<?xml version="1.0" encoding="UTF-8" standalone="no"?>
<svg
   xmlns:dc="http://purl.org/dc/elements/1.1/"
   xmlns:cc="http://creativecommons.org/ns#"
   xmlns:rdf="http://www.w3.org/1999/02/22-rdf-syntax-ns#"
   xmlns:svg="http://www.w3.org/2000/svg"
   xmlns="http://www.w3.org/2000/svg"
   xmlns:sodipodi="http://sodipodi.sourceforge.net/DTD/sodipodi-0.dtd"
   xmlns:inkscape="http://www.inkscape.org/namespaces/inkscape"
   viewBox="0 0 512 512"
   id="svg2"
   version="1.1"
   inkscape:version="0.48.5 r10040"
   width="100%"
   height="100%"
   sodipodi:docname="bookmark-missing.svg">
  <sodipodi:namedview
     pagecolor="#ffffff"
     bordercolor="#ffffff"
     borderopacity="1"
     objecttolerance="10"
     gridtolerance="10"
     guidetolerance="10"
     inkscape:pageopacity="0"
     inkscape:pageshadow="2"
     inkscape:window-width="1306"
     inkscape:window-height="715"
     id="namedview330"
     showgrid="false"
     inkscape:zoom="0.4609375"
     inkscape:cx="461.75858"
     inkscape:cy="217.81491"
     inkscape:window-x="56"
     inkscape:window-y="28"
     inkscape:window-maximized="1"
     inkscape:current-layer="svg2" />
  <metadata
     id="metadata332">
    <rdf:RDF>
      <cc:Work
         rdf:about="">
        <dc:format>image/svg+xml</dc:format>
        <dc:type
           rdf:resource="http://purl.org/dc/dcmitype/StillImage" />
      </cc:Work>
    </rdf:RDF>
  </metadata>
  <defs
     id="defs4">
    <clipPath
       clipPathUnits="userSpaceOnUse"
       id="clipPath4462">
      <path
         inkscape:connector-curvature="0"
         style="fill:none;fill-opacity:1;stroke:none"
         d="m 25.999998,-4e-6 c -14.39735,0 -25.9999995000001,11.602648 -25.9999995000001,26 l 0,460.000004 c 0,14.39735 11.6026495000001,26 25.9999995000001,26 L 486,512 c 14.39735,0 26,-11.60265 26,-26 l 0,-460.000004 c 0,-14.397352 -11.60265,-26 -26,-26 l -460.000002,0 z"
         id="path4464" />
    </clipPath>
  </defs>
  <path
     id="rect2986"
     d="m 25.999998,-4e-6 c -14.39735,0 -25.9999995000001,11.602648 -25.9999995000001,26 l 0,460.000004 c 0,14.39735 11.6026495000001,26 25.9999995000001,26 L 486,512 c 14.39735,0 26,-11.60265 26,-26 l 0,-460.000004 c 0,-14.397352 -11.60265,-26 -26,-26 l -460.000002,0 z"
     style="fill:none;fill-opacity:1;stroke:none"
     inkscape:connector-curvature="0" />
  <g
     style="fill:#000000;fill-rule:evenodd;opacity:0.0"
     id="g4068"
     clip-path="url(#clipPath4462)">
    <path
       inkscape:connector-curvature="0"
       d="m 256.00144,65.661075 c -0.0442,0 -0.0853,0.0378 -0.16369,0.09821 L 644.74648,454.66801 c 0.0784,-0.0604 0.11949,-0.0982 0.16369,-0.0982 z"
       id="path4070"
       style="fill:#000000" />
    <path
       inkscape:connector-curvature="0"
       d="m 255.83775,65.759285 c -0.0692,0.05331 -0.16689,0.130304 -0.2619,0.229165 l 388.90873,388.90873 c 0.095,-0.0989 0.1927,-0.17586 0.2619,-0.22917 z"
       id="path4072"
       style="fill:#000000" />
    <path
       inkscape:connector-curvature="0"
       d="m 255.57585,65.98845 c -0.006,0.0064 0.006,0.02615 0,0.03274 l 388.90873,388.90873 c 0.006,-0.007 -0.006,-0.0263 0,-0.0327 z"
       id="path4074"
       style="fill:#000000" />
    <path
       inkscape:connector-curvature="0"
       d="m 255.57585,66.02119 c -0.20085,0.210675 -0.4778,0.48403 -0.78571,0.883922 L 643.69887,455.81384 c 0.30791,-0.39989 0.58486,-0.67325 0.78571,-0.88392 z"
       id="path4076"
       style="fill:#000000" />
    <path
       inkscape:connector-curvature="0"
       d="m 254.79014,66.905112 c -0.006,0.0083 0.006,0.02434 0,0.03274 L 643.69887,455.84658 c 0.006,-0.008 -0.006,-0.0244 0,-0.0327 z"
       id="path4078"
       style="fill:#000000" />
    <path
       inkscape:connector-curvature="0"
       d="m 254.79014,66.937852 c -0.31146,0.405199 -0.70062,0.889342 -1.11309,1.473203 L 642.58578,457.31978 c 0.41247,-0.58386 0.80163,-1.068 1.11309,-1.4732 z"
       id="path4080"
       style="fill:#000000" />
    <path
       inkscape:connector-curvature="0"
       d="m 253.67705,68.411055 c -0.006,0.0083 0.006,0.02441 0,0.03274 L 642.58578,457.35252 c 0.006,-0.008 -0.006,-0.0244 0,-0.0327 z"
       id="path4082"
       style="fill:#000000" />
    <path
       inkscape:connector-curvature="0"
       d="m 253.67705,68.443795 c -0.41481,0.587575 -0.86611,1.242874 -1.37499,1.997009 L 641.21079,459.34953 c 0.50888,-0.75413 0.96018,-1.40943 1.37499,-1.99701 z"
       id="path4084"
       style="fill:#000000" />
    <path
       inkscape:connector-curvature="0"
       d="m 252.30206,70.440804 c -0.005,0.0084 0.005,0.0243 0,0.03274 L 641.21079,459.38227 c 0.005,-0.008 -0.005,-0.0243 0,-0.0327 z"
       id="path4086"
       style="fill:#000000" />
    <path
       inkscape:connector-curvature="0"
       d="m 252.30206,70.473544 c -1.02639,1.521512 -2.27196,3.350425 -3.6339,5.467222 L 637.57689,464.8495 c 1.36194,-2.1168 2.60751,-3.94571 3.6339,-5.46723 z"
       id="path4088"
       style="fill:#000000" />
    <path
       inkscape:connector-curvature="0"
       d="m 248.66816,75.940766 c -0.005,0.0088 0.005,0.02393 0,0.03274 L 637.57689,464.88224 c 0.005,-0.009 -0.005,-0.0239 0,-0.0327 z"
       id="path4090"
       style="fill:#000000" />
    <path
       inkscape:connector-curvature="0"
       d="m 248.66816,75.973506 c -1.36413,2.120436 -2.87901,4.527394 -4.51782,7.136852 L 633.05907,472.01909 c 1.63881,-2.60946 3.15369,-5.01642 4.51782,-7.13685 z"
       id="path4092"
       style="fill:#000000" />
    <path
       inkscape:connector-curvature="0"
       d="m 244.15034,83.110358 c -0.005,0.0086 0.005,0.02418 0,0.03274 L 633.05907,472.05183 c 0.005,-0.009 -0.005,-0.0241 0,-0.0327 z"
       id="path4094"
       style="fill:#000000" />
    <path
       inkscape:connector-curvature="0"
       d="m 244.15034,83.143098 c -1.64028,2.611932 -3.41712,5.419639 -5.2708,8.413629 L 627.78827,480.46546 c 1.85368,-2.99399 3.63052,-5.8017 5.2708,-8.41363 z"
       id="path4096"
       style="fill:#000000" />
    <path
       inkscape:connector-curvature="0"
       d="m 238.87954,91.556727 c -0.005,0.0084 0.005,0.02437 0,0.03274 L 627.78827,480.4982 c 0.005,-0.008 -0.005,-0.0243 0,-0.0327 z"
       id="path4098"
       style="fill:#000000" />
    <path
       inkscape:connector-curvature="0"
       d="m 238.87954,91.589467 c -1.85466,2.995659 -3.82074,6.158074 -5.82733,9.428503 L 621.96094,489.9267 c 2.00659,-3.27043 3.97267,-6.43284 5.82733,-9.4285 z"
       id="path4100"
       style="fill:#000000" />
    <path
       inkscape:connector-curvature="0"
       d="m 233.05221,101.01797 c -0.005,0.008 0.005,0.0245 0,0.0327 L 621.96094,489.9594 c 0.005,-0.008 -0.005,-0.0247 0,-0.0327 z"
       id="path4102"
       style="fill:#000000" />
    <path
       inkscape:connector-curvature="0"
       d="m 233.05221,101.05067 c -4.01919,6.55072 -8.28049,13.52069 -12.5386,20.52663 l 388.90873,388.90873 c 4.25811,-7.00594 8.51941,-13.97591 12.5386,-20.52663 z"
       id="path4104"
       style="fill:#000000" />
    <path
       inkscape:connector-curvature="0"
       d="m 220.51361,121.5773 c -0.005,0.008 0.005,0.0247 0,0.0327 l 388.90873,388.90873 c 0.005,-0.008 -0.005,-0.0247 0,-0.0327 z"
       id="path4106"
       style="fill:#000000" />
    <path
       inkscape:connector-curvature="0"
       d="m 220.51361,121.61 c -8.52085,14.01958 -17.06099,28.06714 -23.57126,38.72888 l 388.90873,388.90873 c 6.51027,-10.66174 15.05041,-24.7093 23.57126,-38.72888 z"
       id="path4108"
       style="fill:#000000" />
    <path
       inkscape:connector-curvature="0"
       d="m 196.94235,160.33888 c -0.004,0.006 0.004,0.0263 0,0.0327 l 388.90873,388.90873 c 0.004,-0.006 -0.004,-0.0267 0,-0.0327 z"
       id="path4110"
       style="fill:#000000" />
    <path
       inkscape:connector-curvature="0"
       d="m 196.94235,160.37158 c -3.24938,5.32133 -6.01299,9.80531 -8.02077,12.99693 l 388.90873,388.90873 c 2.00778,-3.19162 4.77139,-7.6756 8.02077,-12.99693 z"
       id="path4112"
       style="fill:#000000" />
    <path
       inkscape:connector-curvature="0"
       d="m 188.92158,173.36851 c -0.004,0.006 0.004,0.027 0,0.0327 l 388.90873,388.90873 c 0.004,-0.006 -0.004,-0.0267 0,-0.0327 z"
       id="path4114"
       style="fill:#000000" />
    <path
       inkscape:connector-curvature="0"
       d="m 188.92158,173.40121 c -0.99726,1.58496 -1.82485,2.83521 -2.4226,3.73211 l 388.90873,388.90873 c 0.59775,-0.8969 1.42534,-2.14715 2.4226,-3.73211 z"
       id="path4116"
       style="fill:#000000" />
    <path
       inkscape:connector-curvature="0"
       d="m 186.49898,177.13332 c -0.004,0.005 0.004,0.0272 0,0.0327 l 388.90873,388.90873 c 0.004,-0.005 -0.004,-0.0277 0,-0.0327 z"
       id="path4118"
       style="fill:#000000" />
    <path
       inkscape:connector-curvature="0"
       d="m 186.49898,177.16602 c -0.59093,0.88568 -0.97917,1.40882 -1.11309,1.50595 L 574.29462,567.5807 c 0.13392,-0.0971 0.52216,-0.62027 1.11309,-1.50595 z"
       id="path4120"
       style="fill:#000000" />
    <path
       inkscape:connector-curvature="0"
       d="m 185.38589,178.67197 c -2.09707,1.52096 -120.750644,28.41778 -128.921667,32.41048 L 445.37295,599.99118 c 8.17103,-3.9927 126.8246,-30.88952 128.92167,-32.41048 z"
       id="path4122"
       style="fill:#000000" />
    <path
       inkscape:connector-curvature="0"
       d="m 56.464223,211.08245 c -0.148265,0.0725 -0.253226,0.13934 -0.327379,0.19643 L 445.04557,600.18761 c 0.0742,-0.0571 0.17912,-0.12393 0.32738,-0.19643 z"
       id="path4124"
       style="fill:#000000" />
    <path
       inkscape:connector-curvature="0"
       d="m 56.136844,211.27888 c -0.05767,0.0444 -0.119569,0.0634 -0.130951,0.0982 L 444.91462,600.28581 c 0.0114,-0.0348 0.0733,-0.0538 0.13095,-0.0982 z"
       id="path4126"
       style="fill:#000000" />
    <path
       inkscape:connector-curvature="0"
       d="m 56.005893,211.37708 c -0.0017,0.005 8.36e-4,0.0266 0,0.0327 L 444.91462,600.31851 c 8.4e-4,-0.006 -0.002,-0.0277 0,-0.0327 z"
       id="path4128"
       style="fill:#000000" />
    <path
       inkscape:connector-curvature="0"
       d="m 56.005893,211.40978 c -0.222704,0.68082 5.89379,8.2024 14.830248,18.75879 L 459.74487,619.0773 c -8.93646,-10.55639 -15.05295,-18.07797 -14.83025,-18.75879 z"
       id="path4130"
       style="fill:#000000" />
    <path
       inkscape:connector-curvature="0"
       d="m 70.836141,230.16857 c 0.37222,0.44155 0.633316,0.7597 1.014873,1.2113 L 460.75974,620.2886 c -0.38155,-0.4516 -0.64265,-0.76975 -1.01487,-1.2113 z"
       id="path4132"
       style="fill:#000000" />
    <path
       inkscape:connector-curvature="0"
       d="m 71.851014,231.37987 c 1.200654,1.41517 2.344034,2.74553 3.633902,4.25592 L 464.39365,624.54452 c -1.28987,-1.51039 -2.43325,-2.84075 -3.63391,-4.25592 z"
       id="path4134"
       style="fill:#000000" />
    <path
       inkscape:connector-curvature="0"
       d="m 75.484916,235.63579 c 2.148846,2.52905 4.230189,5.01805 6.547571,7.72613 L 470.94122,632.27065 c -2.31739,-2.70808 -4.39873,-5.19708 -6.54757,-7.72613 z"
       id="path4136"
       style="fill:#000000" />
    <path
       inkscape:connector-curvature="0"
       d="m 82.032487,243.36192 0.360116,0.32738 388.908727,388.90873 -0.36011,-0.32738 z"
       id="path4138"
       style="fill:#000000" />
    <path
       inkscape:connector-curvature="0"
       d="m 82.392603,243.6893 c 25.170297,29.24009 59.354777,67.98475 59.877527,69.56794 l 388.90873,388.90873 c -0.52275,-1.58319 -34.70723,-40.32785 -59.87753,-69.56794 z"
       id="path4140"
       style="fill:#000000" />
    <path
       inkscape:connector-curvature="0"
       d="m 142.27013,313.25724 c 0.83084,2.53999 -11.80198,130.93692 -9.70381,133.03509 l 388.90873,388.90873 c -2.09817,-2.09817 10.53465,-130.4951 9.70381,-133.03509 z"
       id="path4142"
       style="fill:#000000" />
    <path
       inkscape:connector-curvature="0"
       d="m 132.56632,446.29233 c 0.004,0.004 0.009,0.008 0.0134,0.0115 L 521.48846,835.2126 c -0.005,-0.003 -0.009,-0.007 -0.0134,-0.0115 z"
       id="path4144"
       style="fill:#000000" />
    <path
       inkscape:connector-curvature="0"
       d="m 132.57973,446.30387 c 1.72402,1.2504 76.50803,-31.2097 108.55873,-44.62169 L 630.04719,790.59091 C 597.99649,804.0029 523.21248,836.463 521.48846,835.2126 z"
       id="path4146"
       style="fill:#000000" />
    <path
       inkscape:connector-curvature="0"
       d="m 241.13846,401.68218 c 0.0747,-0.0302 0.30972,-0.13001 0.39285,-0.16368 l 388.90873,388.90873 c -0.0831,0.0337 -0.31815,0.13348 -0.39285,0.16368 z"
       id="path4148"
       style="fill:#000000" />
    <path
       inkscape:connector-curvature="0"
       d="m 241.53131,401.5185 c 3.5149,-1.42404 14.16802,-5.76187 14.47013,-5.76187 l 388.90873,388.90873 c -0.30211,0 -10.95523,4.33783 -14.47013,5.76187 z"
       id="path4150"
       style="fill:#000000" />
    <path
       inkscape:connector-curvature="0"
       d="m 256.00144,395.75663 c 0.30211,0 10.95523,4.33783 14.47013,5.76187 L 659.3803,790.42723 c -3.5149,-1.42404 -14.16802,-5.76187 -14.47013,-5.76187 z"
       id="path4152"
       style="fill:#000000" />
    <path
       inkscape:connector-curvature="0"
       d="m 270.47157,401.5185 c 0.13834,0.0578 0.25284,0.10509 0.39286,0.16368 l 388.90873,388.90873 c -0.14002,-0.0586 -0.25452,-0.10588 -0.39286,-0.16368 z"
       id="path4154"
       style="fill:#000000" />
    <path
       inkscape:connector-curvature="0"
       d="m 270.86443,401.68218 c 32.05069,13.41199 106.8347,45.87209 108.55872,44.62169 L 768.33188,835.2126 c -1.72402,1.2504 -76.50803,-31.2097 -108.55872,-44.62169 z"
       id="path4156"
       style="fill:#000000" />
    <path
       inkscape:connector-curvature="0"
       d="m 379.42315,446.30387 c 2.16469,-1.57 -10.52298,-130.50131 -9.6904,-133.04664 l 388.90873,388.90873 c -0.83258,2.54533 11.85509,131.47664 9.6904,133.04664 z"
       id="path4158"
       style="fill:#000000" />
    <path
       inkscape:connector-curvature="0"
       d="m 369.73275,313.25723 c 0.52276,-1.58319 34.70724,-40.32785 59.87753,-69.56794 l 388.90873,388.90873 c -25.17029,29.24009 -59.35477,67.98475 -59.87753,69.56794 z"
       id="path4160"
       style="fill:#000000" />
    <path
       inkscape:connector-curvature="0"
       d="m 429.61028,243.68929 0.36012,-0.32738 388.90873,388.90873 -0.36012,0.32738 z"
       id="path4162"
       style="fill:#000000" />
    <path
       inkscape:connector-curvature="0"
       d="m 429.9704,243.36191 c 2.20907,-2.5815 4.16255,-4.9453 6.22019,-7.36601 l 388.90873,388.90873 c -2.05764,2.42071 -4.01112,4.78451 -6.22019,7.36601 z"
       id="path4164"
       style="fill:#000000" />
    <path
       inkscape:connector-curvature="0"
       d="m 436.19059,235.9959 c 1.29368,-1.52194 2.71742,-3.1826 3.92855,-4.61604 l 388.90873,388.90873 c -1.21113,1.43344 -2.63487,3.0941 -3.92855,4.61604 z"
       id="path4166"
       style="fill:#000000" />
    <path
       inkscape:connector-curvature="0"
       d="m 440.11914,231.37986 c 8.00248,-9.4321 13.91365,-16.61878 15.41953,-19.05343 L 844.4474,601.23516 c -1.50588,2.43465 -7.41705,9.62133 -15.41953,19.05343 z"
       id="path4168"
       style="fill:#000000" />
    <path
       inkscape:connector-curvature="0"
       d="m 455.53867,212.32643 c 0.14815,-0.23954 0.2983,-0.47586 0.36011,-0.62202 l 388.90873,388.90873 c -0.0618,0.14616 -0.21196,0.38248 -0.36011,0.62202 z"
       id="path4170"
       style="fill:#000000" />
    <path
       inkscape:connector-curvature="0"
       d="m 455.89878,211.70441 c 0.0554,-0.13101 0.11544,-0.24215 0.0982,-0.29463 l 388.90873,388.90873 c 0.0172,0.0525 -0.0428,0.16362 -0.0982,0.29463 z"
       id="path4172"
       style="fill:#000000" />
    <path
       inkscape:connector-curvature="0"
       d="m 455.99698,211.40978 c -0.006,-0.0187 -0.0192,-0.0373 -0.0391,-0.0571 l 388.90873,388.90873 c 0.0198,0.0198 0.0329,0.0383 0.039,0.0571 z"
       id="path4174"
       style="fill:#000000" />
    <path
       inkscape:connector-curvature="0"
       d="m 455.95793,211.35271 c -0.0223,-0.0223 -0.0531,-0.0462 -0.0919,-0.0739 l 388.90873,388.90873 c 0.0388,0.0277 0.0696,0.0516 0.0919,0.0739 z"
       id="path4176"
       style="fill:#000000" />
    <path
       inkscape:connector-curvature="0"
       d="m 455.86602,211.27882 c -0.0742,-0.0571 -0.17911,-0.12397 -0.32737,-0.19643 l 388.90873,388.90873 c 0.14826,0.0725 0.25317,0.13933 0.32737,0.19643 z"
       id="path4178"
       style="fill:#000000" />
    <path
       inkscape:connector-curvature="0"
       d="m 455.53865,211.08239 c -8.17103,-3.9927 -126.82461,-30.88952 -128.92168,-32.41048 L 715.5257,567.58064 c 2.09707,1.52096 120.75065,28.41778 128.92168,32.41048 z"
       id="path4180"
       style="fill:#000000" />
    <path
       inkscape:connector-curvature="0"
       d="m 326.61697,178.67191 c -0.0176,-0.014 -0.0391,-0.0335 -0.0643,-0.0587 L 715.4614,567.52194 c 0.0252,0.0252 0.0467,0.0447 0.0643,0.0587 z"
       id="path4182"
       style="fill:#000000" />
    <path
       inkscape:connector-curvature="0"
       d="m 326.55264,178.61324 c -0.0768,-0.0768 -0.18799,-0.20704 -0.32852,-0.39965 l 388.90873,388.90873 c 0.14053,0.19261 0.25172,0.32285 0.32852,0.39965 z"
       id="path4184"
       style="fill:#000000" />
    <path
       inkscape:connector-curvature="0"
       d="m 326.22412,178.21359 c -0.18411,-0.25151 -0.42805,-0.60972 -0.72023,-1.04761 l 388.90873,388.90873 c 0.29218,0.43789 0.53612,0.7961 0.72023,1.04761 z"
       id="path4186"
       style="fill:#000000" />
    <path
       inkscape:connector-curvature="0"
       d="M 325.50389,177.16598 C 317.68175,165.42944 273.05902,90.22921 259.7008,70.440566 L 648.60953,459.3493 c 13.35822,19.78864 57.98095,94.98887 65.80309,106.72541 z"
       id="path4188"
       style="fill:#000000" />
    <path
       inkscape:connector-curvature="0"
       d="m 259.7008,70.440566 c -1.0219,-1.514411 -1.86072,-2.686774 -2.48808,-3.50295 L 646.12145,455.84635 c 0.62736,0.81617 1.46618,1.98853 2.48808,3.50295 z"
       id="path4190"
       style="fill:#000000" />
    <path
       inkscape:connector-curvature="0"
       d="m 257.21272,66.937616 c -0.34117,-0.443086 -0.62401,-0.777806 -0.8361,-0.9899 L 645.28535,454.85645 c 0.21209,0.21209 0.49493,0.54681 0.8361,0.9899 z"
       id="path4192"
       style="fill:#000000" />
    <path
       inkscape:connector-curvature="0"
       d="m 256.37662,65.947716 c -0.0811,-0.08107 -0.1518,-0.144222 -0.21151,-0.188663 L 645.07384,454.66778 c 0.0597,0.0444 0.13044,0.1076 0.21151,0.18867 z"
       id="path4194"
       style="fill:#000000" />
    <path
       inkscape:connector-curvature="0"
       d="m 256.16511,65.759053 c -0.0785,-0.06042 -0.11946,-0.09821 -0.16369,-0.09821 L 644.91015,454.56957 c 0.0442,0 0.0852,0.0378 0.16369,0.0982 z"
       id="path4196"
       style="fill:#000000" />
  </g>
  <path
     style="fill:#ffffff;fill-rule:evenodd"
     d="m 256.00144,65.661075 c -0.0442,0 -0.0853,0.0378 -0.16369,0.09821 -0.0692,0.05331 -0.16689,0.130304 -0.2619,0.229165 -0.006,0.0064 0.006,0.02615 0,0.03274 -0.20085,0.210675 -0.4778,0.48403 -0.78571,0.883922 -0.006,0.0083 0.006,0.02434 0,0.03274 -0.31146,0.405199 -0.70062,0.889342 -1.11309,1.473203 -0.006,0.0083 0.006,0.02441 0,0.03274 -0.41481,0.587575 -0.86611,1.242874 -1.37499,1.997009 -0.005,0.0084 0.005,0.0243 0,0.03274 -1.02639,1.521512 -2.27196,3.350425 -3.6339,5.467222 -0.005,0.0088 0.005,0.02393 0,0.03274 -1.36413,2.120436 -2.87901,4.527394 -4.51782,7.136852 -0.005,0.0086 0.005,0.02418 0,0.03274 -1.64028,2.611932 -3.41712,5.419639 -5.2708,8.413629 -0.005,0.0084 0.005,0.02437 0,0.03274 -1.85466,2.995659 -3.82074,6.158074 -5.82733,9.428503 -0.005,0.008 0.005,0.0245 0,0.0327 -4.01919,6.55072 -8.28049,13.52069 -12.5386,20.52663 -0.005,0.008 0.005,0.0247 0,0.0327 -8.52085,14.01958 -17.06099,28.06714 -23.57126,38.72888 -0.004,0.006 0.004,0.0263 0,0.0327 -3.24938,5.32133 -6.01299,9.80531 -8.02077,12.99693 -0.004,0.006 0.004,0.027 0,0.0327 -0.99726,1.58496 -1.82485,2.83521 -2.4226,3.73211 -0.004,0.005 0.004,0.0272 0,0.0327 -0.59093,0.88568 -0.97917,1.40882 -1.11309,1.50595 -2.09707,1.52096 -120.750644,28.41778 -128.921667,32.41048 -0.148265,0.0725 -0.253226,0.13934 -0.327379,0.19643 -0.05767,0.0444 -0.119569,0.0634 -0.130951,0.0982 -0.0017,0.005 8.36e-4,0.0266 0,0.0327 -0.222704,0.68082 5.89379,8.2024 14.830248,18.75879 0.37222,0.44155 0.633316,0.7597 1.014873,1.2113 1.200654,1.41517 2.344034,2.74553 3.633902,4.25592 2.148846,2.52905 4.230189,5.01805 6.547571,7.72613 l 0.360116,0.32738 c 25.170297,29.24009 59.354777,67.98475 59.877527,69.56794 0.83258,2.54532 -11.85509,131.47664 -9.6904,133.04663 1.72402,1.2504 76.50803,-31.2097 108.55873,-44.62169 0.0747,-0.0302 0.30972,-0.13001 0.39285,-0.16368 3.5149,-1.42404 14.16802,-5.76187 14.47013,-5.76187 0.30211,0 10.95523,4.33783 14.47013,5.76187 0.13834,0.0578 0.25284,0.10509 0.39286,0.16368 32.05069,13.41199 106.8347,45.87209 108.55872,44.62169 2.16469,-1.57 -10.52298,-130.50131 -9.6904,-133.04664 0.52276,-1.58319 34.70724,-40.32785 59.87753,-69.56794 l 0.36012,-0.32738 c 2.20907,-2.5815 4.16255,-4.9453 6.22019,-7.36601 1.29368,-1.52194 2.71742,-3.1826 3.92855,-4.61604 8.00248,-9.4321 13.91365,-16.61878 15.41953,-19.05343 0.14815,-0.23954 0.2983,-0.47586 0.36011,-0.62202 0.0554,-0.13101 0.11544,-0.24215 0.0982,-0.29463 -0.013,-0.0398 -0.0576,-0.0787 -0.13096,-0.13096 -0.0742,-0.0571 -0.17911,-0.12397 -0.32737,-0.19643 -8.17103,-3.9927 -126.82461,-30.88952 -128.92168,-32.41048 -0.0713,-0.0567 -0.2062,-0.20249 -0.39285,-0.45832 -0.18411,-0.25151 -0.42805,-0.60972 -0.72023,-1.04761 -7.82214,-11.73654 -52.44487,-86.93677 -65.80309,-106.725414 -1.0219,-1.514411 -1.86072,-2.686774 -2.48808,-3.50295 -0.47158,-0.612447 -0.8317,-1.017853 -1.04761,-1.178563 -0.0785,-0.06042 -0.11946,-0.09821 -0.16369,-0.09821 z"
     id="path3163"
     inkscape:connector-curvature="0" />
</svg>
