<?xml version="1.0" encoding="UTF-8" standalone="no"?>
<svg
   xmlns:dc="http://purl.org/dc/elements/1.1/"
   xmlns:cc="http://creativecommons.org/ns#"
   xmlns:rdf="http://www.w3.org/1999/02/22-rdf-syntax-ns#"
   xmlns:svg="http://www.w3.org/2000/svg"
   xmlns="http://www.w3.org/2000/svg"
   xmlns:sodipodi="http://sodipodi.sourceforge.net/DTD/sodipodi-0.dtd"
   xmlns:inkscape="http://www.inkscape.org/namespaces/inkscape"
   viewBox="0 0 512 512"
   id="svg2"
   version="1.1"
   inkscape:version="0.48.5 r10040"
   width="100%"
   height="100%"
   sodipodi:docname="configure.svg">
  <sodipodi:namedview
     pagecolor="#ffffff"
     bordercolor="#ffffff"
     borderopacity="1"
     objecttolerance="10"
     gridtolerance="10"
     guidetolerance="10"
     inkscape:pageopacity="0"
     inkscape:pageshadow="2"
     inkscape:window-width="1306"
     inkscape:window-height="715"
     id="namedview114"
     showgrid="false"
     inkscape:zoom="0.4609375"
     inkscape:cx="544.54237"
     inkscape:cy="147.52542"
     inkscape:window-x="56"
     inkscape:window-y="28"
     inkscape:window-maximized="1"
     inkscape:current-layer="svg2" />
  <metadata
     id="metadata116">
    <rdf:RDF>
      <cc:Work
         rdf:about="">
        <dc:format>image/svg+xml</dc:format>
        <dc:type
           rdf:resource="http://purl.org/dc/dcmitype/StillImage" />
      </cc:Work>
    </rdf:RDF>
  </metadata>
  <defs
     id="defs4">
    <clipPath
       clipPathUnits="userSpaceOnUse"
       id="clipPath3425">
      <path
         inkscape:connector-curvature="0"
         style="fill:none;fill-opacity:1;stroke:none"
         d="M 26.000001,1.9999999e-6 C 11.602651,1.9999999e-6 1e-6,11.60265 1e-6,26.000002 L 1e-6,486 c 0,14.39735 11.60265,26 26,26 L 486,512 c 14.39735,0 26,-11.60265 26,-26 L 512,26.000002 C 512,11.60265 500.39735,1.9999999e-6 486,1.9999999e-6 l -459.999999,0 z"
         id="path3427" />
    </clipPath>
  </defs>
  <path
     id="rect2986"
     d="M 26.000001,1.9999999e-6 C 11.602651,1.9999999e-6 1e-6,11.60265 1e-6,26.000002 L 1e-6,486 c 0,14.39735 11.60265,26 26,26 L 486,512 c 14.39735,0 26,-11.60265 26,-26 L 512,26.000002 C 512,11.60265 500.39735,1.9999999e-6 486,1.9999999e-6 l -459.999999,0 z"
     style="fill:none;fill-opacity:1;stroke:none"
     inkscape:connector-curvature="0" />
  <g
     style="fill:#000000;opacity:0.0"
     id="g3134"
     clip-path="url(#clipPath3425)">
    <path
       inkscape:connector-curvature="0"
       d="m 233.30208,56 c -8.4774,0 -14.44767,6.164664 -15.31965,13.695699 L 606.89116,458.60443 c 0.87198,-7.53104 6.84225,-13.6957 15.31965,-13.6957 z"
       id="path3136"
       style="fill:#000000" />
    <path
       inkscape:connector-curvature="0"
       d="m 217.98243,69.695699 -4.88709,42.310271 388.90873,388.90873 4.88709,-42.31027 z"
       id="path3138"
       style="fill:#000000" />
    <path
       inkscape:connector-curvature="0"
       d="m 213.09534,112.00597 c -9.86139,2.93513 -19.27958,6.87505 -28.17538,11.66694 l 388.90873,388.90873 c 8.8958,-4.79189 18.31399,-8.73181 28.17538,-11.66694 z"
       id="path3140"
       style="fill:#000000" />
    <path
       inkscape:connector-curvature="0"
       d="m 184.91996,123.67291 -33.37287,-26.46342 388.90873,388.90873 33.37287,26.46342 z"
       id="path3142"
       style="fill:#000000" />
    <path
       inkscape:connector-curvature="0"
       d="M 151.54709,97.20949 C 145.60722,92.5032 137.02741,92.3616 131.02995,98.35427 L 519.93868,487.263 c 5.99746,-5.99267 14.57727,-5.85107 20.51714,-1.14478 z"
       id="path3144"
       style="fill:#000000" />
    <path
       inkscape:connector-curvature="0"
       d="M 131.02995,98.35427 99.153844,130.23037 488.06257,519.1391 519.93868,487.263 z"
       id="path3146"
       style="fill:#000000" />
    <path
       inkscape:connector-curvature="0"
       d="m 99.153844,130.23037 c -5.994264,5.99426 -5.68067,14.44768 -1.144779,20.51714 L 486.91779,539.65624 c -4.53589,-6.06946 -4.84948,-14.52288 1.14478,-20.51714 z"
       id="path3148"
       style="fill:#000000" />
    <path
       inkscape:connector-curvature="0"
       d="M 98.009065,150.74751 123.6325,185.00116 512.54123,573.90989 486.91779,539.65624 z"
       id="path3150"
       style="fill:#000000" />
    <path
       inkscape:connector-curvature="0"
       d="m 123.6325,185.00116 c -9.40966,21.6034 -11.6178,27.7881 -11.62313,27.78277 L 500.9181,601.69266 c 0.005,0.005 2.21347,-6.17937 11.62313,-27.78277 z"
       id="path3152"
       style="fill:#000000" />
    <path
       inkscape:connector-curvature="0"
       d="m 112.00937,212.78393 c -4e-5,-4e-5 3e-5,-3.6e-4 2e-4,-9.8e-4 L 500.9183,601.69168 c -1.7e-4,6.2e-4 -2.4e-4,9.4e-4 -2e-4,9.8e-4 z"
       id="path3154"
       style="fill:#000000" />
    <path
       inkscape:connector-curvature="0"
       d="m 112.00957,212.78295 -42.310277,4.88709 388.908727,388.90873 42.31028,-4.88709 z"
       id="path3156"
       style="fill:#000000" />
    <path
       inkscape:connector-curvature="0"
       d="m 69.699293,217.67004 c -7.527834,0.87198 -13.695698,6.84465 -13.695698,15.31966 L 444.91232,621.89843 c 0,-8.47501 6.16787,-14.44768 13.6957,-15.31966 z"
       id="path3158"
       style="fill:#000000" />
    <path
       inkscape:connector-curvature="0"
       d="m 56.003595,232.9897 0,45.08702 388.908725,388.90873 0,-45.08702 z"
       id="path3160"
       style="fill:#000000" />
    <path
       inkscape:connector-curvature="0"
       d="m 56.003595,278.07672 c 0,4.39664 1.665683,8.05006 4.315971,10.70034 L 449.2283,677.68579 c -2.65029,-2.65028 -4.31598,-6.3037 -4.31598,-10.70034 z"
       id="path3162"
       style="fill:#000000" />
    <path
       inkscape:connector-curvature="0"
       d="m 60.319566,288.77706 c 2.459887,2.45989 5.767989,4.0556 9.379727,4.57932 L 458.60802,682.26511 c -3.61174,-0.52372 -6.91984,-2.11943 -9.37972,-4.57932 z"
       id="path3164"
       style="fill:#000000" />
    <path
       inkscape:connector-curvature="0"
       d="m 69.699293,293.35638 42.487057,6.16386 388.90873,388.90873 -42.48706,-6.16386 z"
       id="path3166"
       style="fill:#000000" />
    <path
       inkscape:connector-curvature="0"
       d="m 112.18635,299.52024 c 2.94074,9.73819 6.86865,19.03238 11.62295,27.82579 l 388.90873,388.90873 c -4.7543,-8.79341 -8.68221,-18.0876 -11.62295,-27.82579 z"
       id="path3168"
       style="fill:#000000" />
    <path
       inkscape:connector-curvature="0"
       d="M 123.8093,327.34603 97.569073,360.4573 486.4778,749.36603 512.71803,716.25476 z"
       id="path3170"
       style="fill:#000000" />
    <path
       inkscape:connector-curvature="0"
       d="m 97.569073,360.4573 c -4.706288,5.93987 -4.847886,14.51968 1.144788,20.51715 L 487.62259,769.88318 c -5.99267,-5.99747 -5.85108,-14.57728 -1.14479,-20.51715 z"
       id="path3172"
       style="fill:#000000" />
    <path
       inkscape:connector-curvature="0"
       d="m 98.713861,380.97445 31.876089,31.8761 388.90873,388.90873 -31.87609,-31.8761 z"
       id="path3174"
       style="fill:#000000" />
    <path
       inkscape:connector-curvature="0"
       d="m 130.58995,412.85055 c 0,0 0,0 0,0 l 388.90873,388.90873 c 0,0 0,0 0,0 z"
       id="path3176"
       style="fill:#000000" />
    <path
       inkscape:connector-curvature="0"
       d="m 130.58995,412.85055 c 5.99427,5.99427 14.39969,5.68068 20.47315,1.14477 l 388.90873,388.90873 c -6.07346,4.53591 -14.47888,4.8495 -20.47315,-1.14477 z"
       id="path3178"
       style="fill:#000000" />
    <path
       inkscape:connector-curvature="0"
       d="m 151.0631,413.99532 34.12164,-25.49223 388.90873,388.90873 -34.12164,25.49223 z"
       id="path3180"
       style="fill:#000000" />
    <path
       inkscape:connector-curvature="0"
       d="m 185.18474,388.50309 c 8.82382,4.72869 18.1476,8.62861 27.9138,11.53494 l 388.90873,388.90873 c -9.7662,-2.90633 -19.08998,-6.80625 -27.9138,-11.53494 z"
       id="path3182"
       style="fill:#000000" />
    <path
       inkscape:connector-curvature="0"
       d="m 213.09854,400.03803 4.88708,42.26627 388.90873,388.90873 -4.88708,-42.26627 z"
       id="path3184"
       style="fill:#000000" />
    <path
       inkscape:connector-curvature="0"
       d="m 217.98562,442.3043 c 0.41535,3.5857 1.9878,6.86284 4.43678,9.31183 l 388.90873,388.90873 c -2.44899,-2.44899 -4.02143,-5.72613 -4.43678,-9.31183 z"
       id="path3186"
       style="fill:#000000" />
    <path
       inkscape:connector-curvature="0"
       d="M 222.4224,451.61613 C 225.11483,454.30856 228.86672,456 233.30528,456 l 388.90873,388.90873 c -4.43856,0 -8.19045,-1.69144 -10.88288,-4.38387 z"
       id="path3188"
       style="fill:#000000" />
    <path
       inkscape:connector-curvature="0"
       d="m 233.30528,456 45.08702,0 388.90873,388.90873 -45.08702,0 z"
       id="path3190"
       style="fill:#000000" />
    <path
       inkscape:connector-curvature="0"
       d="m 278.3923,456 c 8.47742,0 14.19169,-6.19266 15.27966,-13.6957 l 388.90873,388.90873 c -1.08797,7.50304 -6.80224,13.6957 -15.27966,13.6957 z"
       id="path3192"
       style="fill:#000000" />
    <path
       inkscape:connector-curvature="0"
       d="m 293.67196,442.3043 6.16386,-42.52707 388.90873,388.90873 -6.16386,42.52707 z"
       id="path3194"
       style="fill:#000000" />
    <path
       inkscape:connector-curvature="0"
       d="m 299.83582,399.77723 c 9.4942,-2.88953 18.5676,-6.69904 27.16501,-11.31174 l 388.90873,388.90873 c -8.59741,4.6127 -17.67081,8.42221 -27.16501,11.31174 z"
       id="path3196"
       style="fill:#000000" />
    <path
       inkscape:connector-curvature="0"
       d="m 327.00083,388.46549 34.47125,25.75943 388.90873,388.90873 -34.47125,-25.75943 z"
       id="path3198"
       style="fill:#000000" />
    <path
       inkscape:connector-curvature="0"
       d="m 361.47208,414.22492 c 6.07106,4.5359 14.51968,4.8479 20.51715,-1.14478 l 388.90873,388.90873 c -5.99747,5.99268 -14.44609,5.68068 -20.51715,1.14478 z"
       id="path3200"
       style="fill:#000000" />
    <path
       inkscape:connector-curvature="0"
       d="m 381.98923,413.08014 31.87609,-31.87609 388.90873,388.90873 -31.87609,31.87609 z"
       id="path3202"
       style="fill:#000000" />
    <path
       inkscape:connector-curvature="0"
       d="m 413.86532,381.20405 c 5.99426,-5.99427 5.85108,-14.57727 1.14478,-20.51715 l 388.90873,388.90873 c 4.7063,5.93988 4.84948,14.52288 -1.14478,20.51715 z"
       id="path3204"
       style="fill:#000000" />
    <path
       inkscape:connector-curvature="0"
       d="m 415.0101,360.6869 -26.63941,-33.59287 388.90873,388.90873 26.63941,33.59287 z"
       id="path3206"
       style="fill:#000000" />
    <path
       inkscape:connector-curvature="0"
       d="m 388.37069,327.09403 c 4.6911,-8.7174 8.57901,-17.91879 11.49094,-27.56098 l 388.90873,388.90873 c -2.91193,9.64219 -6.79984,18.84358 -11.49094,27.56098 z"
       id="path3208"
       style="fill:#000000" />
    <path
       inkscape:connector-curvature="0"
       d="m 399.86163,299.53305 42.43907,-6.16387 388.90873,388.90873 -42.43907,6.16387 z"
       id="path3210"
       style="fill:#000000" />
    <path
       inkscape:connector-curvature="0"
       d="m 442.3007,293.36918 c 7.49983,-1.08557 13.6957,-6.84385 13.6957,-15.31967 l 388.90873,388.90873 c 0,8.47582 -6.19587,14.2341 -13.6957,15.31967 z"
       id="path3212"
       style="fill:#000000" />
    <path
       inkscape:connector-curvature="0"
       d="m 455.9964,278.04951 0,-45.08701 388.90873,388.90873 0,45.08701 z"
       id="path3214"
       style="fill:#000000" />
    <path
       inkscape:connector-curvature="0"
       d="m 455.9964,232.9625 c 0,-4.42831 -1.68213,-8.16158 -4.36245,-10.8419 l 388.90873,388.90873 c 2.68032,2.68032 4.36245,6.41359 4.36245,10.8419 z"
       id="path3216"
       style="fill:#000000" />
    <path
       inkscape:connector-curvature="0"
       d="m 451.63395,222.1206 c -2.4508,-2.45081 -5.73617,-4.02127 -9.33325,-4.43776 l 388.90873,388.90873 c 3.59708,0.41649 6.88245,1.98695 9.33325,4.43776 z"
       id="path3218"
       style="fill:#000000" />
    <path
       inkscape:connector-curvature="0"
       d="m 442.3007,217.68284 -42.39826,-4.93109 388.90873,388.90873 42.39826,4.93109 z"
       id="path3220"
       style="fill:#000000" />
    <path
       inkscape:connector-curvature="0"
       d="m 399.90244,212.75175 c -2.87913,-9.58538 -6.67825,-18.75479 -11.31176,-27.4314 l 388.90873,388.90873 c 4.63351,8.67661 8.43263,17.84602 11.31176,27.4314 z"
       id="path3222"
       style="fill:#000000" />
    <path
       inkscape:connector-curvature="0"
       d="m 388.59068,185.32035 25.93223,-34.78163 388.90873,388.90873 -25.93223,34.78163 z"
       id="path3224"
       style="fill:#000000" />
    <path
       inkscape:connector-curvature="0"
       d="m 414.52291,150.53872 c 4.53591,-6.07108 4.8479,-14.51968 -1.14477,-20.51714 l 388.90873,388.90873 c 5.99267,5.99746 5.68068,14.44606 1.14477,20.51714 z"
       id="path3226"
       style="fill:#000000" />
    <path
       inkscape:connector-curvature="0"
       d="M 413.37814,130.02158 381.50205,98.14547 770.41078,487.0542 802.28687,518.93031 z"
       id="path3228"
       style="fill:#000000" />
    <path
       inkscape:connector-curvature="0"
       d="m 381.50205,98.14547 c -5.99427,-5.99426 -14.53569,-5.85106 -20.47316,-1.14477 l 388.90873,388.90873 c 5.93747,-4.70629 14.47889,-4.84949 20.47316,1.14477 z"
       id="path3230"
       style="fill:#000000" />
    <path
       inkscape:connector-curvature="0"
       d="m 361.02889,97.0007 -33.76725,26.76901 388.90873,388.90873 33.76725,-26.76901 z"
       id="path3232"
       style="fill:#000000" />
    <path
       inkscape:connector-curvature="0"
       d="m 327.26164,123.76971 c -8.67582,-4.68389 -17.83321,-8.571 -27.4314,-11.49095 l 388.90873,388.90873 c 9.59819,2.91995 18.75558,6.80706 27.4314,11.49095 z"
       id="path3234"
       style="fill:#000000" />
    <path
       inkscape:connector-curvature="0"
       d="m 299.83024,112.27876 -6.16386,-42.575061 388.90873,388.908731 6.16386,42.57506 z"
       id="path3236"
       style="fill:#000000" />
    <path
       inkscape:connector-curvature="0"
       d="m 293.66638,69.703699 c -0.52263,-3.610614 -2.11806,-6.919006 -4.57839,-9.379335 L 677.99672,449.23309 c 2.46033,2.46033 4.05576,5.76872 4.57839,9.37934 z"
       id="path3238"
       style="fill:#000000" />
    <path
       inkscape:connector-curvature="0"
       d="m 289.08799,60.324364 c -2.65017,-2.650177 -6.30388,-4.316363 -10.70129,-4.316363 L 667.29543,444.91673 c 4.39741,0 8.05112,1.66619 10.70129,4.31636 z"
       id="path3240"
       style="fill:#000000" />
    <path
       inkscape:connector-curvature="0"
       d="m 256.01999,192.97299 c 17.40882,0 33.17015,7.05752 44.57944,18.46681 l 388.90873,388.90873 c -11.40929,-11.40929 -27.17062,-18.46681 -44.57944,-18.46681 z"
       id="path3242"
       style="fill:#000000" />
    <path
       inkscape:connector-curvature="0"
       d="m 300.59943,211.4398 c 11.40981,11.40981 18.46718,27.17179 18.46718,44.5798 l 388.90873,388.90873 c 0,-17.40801 -7.05737,-33.16999 -18.46718,-44.5798 z"
       id="path3244"
       style="fill:#000000" />
    <path
       inkscape:connector-curvature="0"
       d="m 319.06661,256.0196 c 0,34.81844 -28.23138,63.04661 -63.04662,63.04661 l 388.90873,388.90873 c 34.81524,0 63.04662,-28.22817 63.04662,-63.04661 z"
       id="path3246"
       style="fill:#000000" />
    <path
       inkscape:connector-curvature="0"
       d="m 256.01999,319.06621 c -17.40882,0 -33.17015,-7.05752 -44.57944,-18.46681 l 388.90873,388.90873 c 11.40929,11.40929 27.17062,18.46681 44.57944,18.46681 z"
       id="path3248"
       style="fill:#000000" />
    <path
       inkscape:connector-curvature="0"
       d="M 211.44055,300.5994 C 200.03074,289.18959 192.97337,273.42762 192.97337,256.0196 L 581.8821,644.92833 c 0,17.40802 7.05737,33.16999 18.46718,44.5798 z"
       id="path3250"
       style="fill:#000000" />
    <path
       inkscape:connector-curvature="0"
       d="m 192.97337,256.0196 c 0,-34.81843 28.23139,-63.04661 63.04662,-63.04661 l 388.90873,388.90873 c -34.81523,0 -63.04662,28.22818 -63.04662,63.04661 z"
       id="path3252"
       style="fill:#000000" />
  </g>
  <path
     style="fill:#ffffff"
     inkscape:connector-curvature="0"
     id="path104"
     d="m 233.30208,56 c -8.4774,0 -14.44767,6.164664 -15.31965,13.695699 l -4.88709,42.310271 c -9.86139,2.93513 -19.27958,6.87505 -28.17538,11.66694 L 151.54709,97.20949 c -5.93987,-4.70629 -14.51968,-4.84789 -20.51714,1.14478 l -31.876106,31.8761 c -5.994264,5.99426 -5.68067,14.44768 -1.144779,20.51714 l 25.623435,34.25365 c -9.47418,21.75153 -11.64774,27.87219 -11.62293,27.78179 l -42.310277,4.88709 c -7.527834,0.87198 -13.695698,6.84465 -13.695698,15.31966 v 45.08702 c 0,8.47741 6.192663,14.19169 13.695698,15.27966 l 42.487057,6.16386 c 2.94074,9.73819 6.86865,19.03238 11.62295,27.82579 L 97.569073,360.4573 c -4.706288,5.93987 -4.847886,14.51968 1.144788,20.51715 l 31.876089,31.8761 c 5.99427,5.99427 14.39969,5.68068 20.47315,1.14477 l 34.12164,-25.49223 c 8.82382,4.72869 18.1476,8.62861 27.9138,11.53494 l 4.88708,42.26627 C 218.85761,449.83213 224.82948,456 233.30528,456 h 45.08702 c 8.47742,0 14.19169,-6.19266 15.27966,-13.6957 l 6.16386,-42.52707 c 9.4942,-2.88953 18.5676,-6.69904 27.16501,-11.31174 l 34.47125,25.75943 c 6.07106,4.5359 14.51968,4.8479 20.51715,-1.14478 l 31.87609,-31.87609 c 5.99426,-5.99427 5.85108,-14.57727 1.14478,-20.51715 l -26.63941,-33.59287 c 4.6911,-8.7174 8.57901,-17.91879 11.49094,-27.56098 l 42.43907,-6.16387 c 7.49983,-1.08557 13.6957,-6.84385 13.6957,-15.31967 V 232.9625 c 0,-8.47741 -6.16467,-14.40767 -13.6957,-15.27966 l -42.39826,-4.93109 c -2.87913,-9.58538 -6.67825,-18.75479 -11.31176,-27.4314 l 25.93223,-34.78163 c 4.53591,-6.07108 4.8479,-14.51968 -1.14477,-20.51714 L 381.50205,98.14547 c -5.99427,-5.99426 -14.53569,-5.85106 -20.47316,-1.14477 l -33.76725,26.76901 c -8.67582,-4.68389 -17.83321,-8.571 -27.4314,-11.49095 L 293.66638,69.703699 C 292.58079,62.203864 286.86651,56.008001 278.3867,56.008001 z m 22.71791,136.97299 c 34.81844,0 63.04662,28.23138 63.04662,63.04661 0,34.81844 -28.23138,63.04661 -63.04662,63.04661 -34.81843,0 -63.04662,-28.23137 -63.04662,-63.04661 0,-34.81843 28.23139,-63.04661 63.04662,-63.04661" />
</svg>
