<?xml version="1.0" encoding="UTF-8" standalone="no"?>
<svg
   xmlns:dc="http://purl.org/dc/elements/1.1/"
   xmlns:cc="http://creativecommons.org/ns#"
   xmlns:rdf="http://www.w3.org/1999/02/22-rdf-syntax-ns#"
   xmlns:svg="http://www.w3.org/2000/svg"
   xmlns="http://www.w3.org/2000/svg"
   xmlns:sodipodi="http://sodipodi.sourceforge.net/DTD/sodipodi-0.dtd"
   xmlns:inkscape="http://www.inkscape.org/namespaces/inkscape"
   viewBox="0 0 512 512"
   id="svg2"
   version="1.1"
   inkscape:version="0.48.5 r10040"
   width="100%"
   height="100%"
   sodipodi:docname="dialog-cancel.svg">
  <sodipodi:namedview
     pagecolor="#ffffff"
     bordercolor="#ffffff"
     borderopacity="1"
     objecttolerance="10"
     gridtolerance="10"
     guidetolerance="10"
     inkscape:pageopacity="0"
     inkscape:pageshadow="2"
     inkscape:window-width="1306"
     inkscape:window-height="715"
     id="namedview190"
     showgrid="false"
     inkscape:zoom="0.4609375"
     inkscape:cx="490.30509"
     inkscape:cy="123.66102"
     inkscape:window-x="56"
     inkscape:window-y="28"
     inkscape:window-maximized="1"
     inkscape:current-layer="svg2" />
  <metadata
     id="metadata194">
    <rdf:RDF>
      <cc:Work
         rdf:about="">
        <dc:format>image/svg+xml</dc:format>
        <dc:type
           rdf:resource="http://purl.org/dc/dcmitype/StillImage" />
      </cc:Work>
    </rdf:RDF>
  </metadata>
  <defs
     id="defs192">
    <clipPath
       clipPathUnits="userSpaceOnUse"
       id="clipPath3354">
      <path
         inkscape:connector-curvature="0"
         style="fill:none;fill-opacity:1;stroke:none"
         d="M 26,-1.9491524e-7 C 11.60265,-1.9491524e-7 0,11.602648 0,26 l 0,460 c 0,14.39735 11.60265,26 26,26 l 460,0 c 14.39735,0 26,-11.60265 26,-26 L 512,26 C 512,11.602648 500.39735,-1.9491523e-7 486,-1.9491523e-7 l -460,0 z"
         id="path3356" />
    </clipPath>
  </defs>
  <path
     id="rect2986"
     d="M 26,-1.9491524e-7 C 11.60265,-1.9491524e-7 0,11.602648 0,26 l 0,460 c 0,14.39735 11.60265,26 26,26 l 460,0 c 14.39735,0 26,-11.60265 26,-26 L 512,26 C 512,11.602648 500.39735,-1.9491523e-7 486,-1.9491523e-7 l -460,0 z"
     style="fill:none;fill-opacity:1;stroke:none"
     inkscape:connector-curvature="0" />
  <g
     style="fill:none"
     id="g18"
     transform="scale(23.27273,23.27273)">
  </g>
  <g
     style="fill:#000000"
     id="g38"
     transform="scale(23.27273,23.27273)">
  </g>
  <g
     style="fill:none"
     id="g52"
     transform="scale(23.27273,23.27273)">
    <g
       style="stroke:#cd1d31"
       id="g54">
    </g>
  </g>
  <g
     style="fill:#000000"
     id="g74"
     transform="scale(23.27273,23.27273)">
  </g>
  <g
     style="line-height:125%;letter-spacing:0;word-spacing:0;font-family:Gentium Book Basic"
     id="g136"
     letter-spacing="0"
     line-height="125%"
     word-spacing="0"
     transform="scale(23.27273,23.27273)">
  </g>
  <g
     style="fill:#000000;fill-rule:evenodd;opacity:0.0"
     id="g3187"
     clip-path="url(#clipPath3354)">
    <path
       inkscape:connector-curvature="0"
       d="m 255.38751,56.019109 c -33.84989,0.025 -68.14978,8.649971 -99.44969,26.724907 L 544.84655,471.65275 c 31.29991,-18.07494 65.5998,-26.69991 99.44969,-26.72491 z"
       id="path3189"
       style="fill:#000000" />
    <path
       inkscape:connector-curvature="0"
       d="M 155.93782,82.744016 C 60.48816,137.84385 27.61327,260.61842 82.738085,356.06812 L 471.64681,744.97685 C 416.522,649.52715 449.39689,526.75258 544.84655,471.65275 z"
       id="path3191"
       style="fill:#000000" />
    <path
       inkscape:connector-curvature="0"
       d="m 82.738085,356.06812 c 8.920363,15.45279 19.614475,29.2655 31.679225,41.33025 L 503.32604,786.3071 c -12.06475,-12.06475 -22.75886,-25.87746 -31.67923,-41.33025 z"
       id="path3193"
       style="fill:#000000" />
    <path
       inkscape:connector-curvature="0"
       d="m 114.41731,397.39837 c 62.45749,62.45749 161.64797,78.0699 241.64486,31.86949 L 744.9709,818.17659 C 664.97401,864.377 565.78353,848.76459 503.32604,786.3071 z"
       id="path3195"
       style="fill:#000000" />
    <path
       inkscape:connector-curvature="0"
       d="M 356.06217,429.26786 C 451.51184,374.16805 484.38673,251.39345 429.26192,155.94377 L 818.17065,544.8525 c 55.12481,95.44968 22.24992,218.22428 -73.19975,273.32409 z"
       id="path3197"
       style="fill:#000000" />
    <path
       inkscape:connector-curvature="0"
       d="m 429.26192,155.94377 c -8.92476,-15.45712 -19.62168,-29.27281 -31.68844,-41.33958 l 388.90873,388.90873 c 12.06676,12.06677 22.76368,25.88246 31.68844,41.33958 z"
       id="path3199"
       style="fill:#000000" />
    <path
       inkscape:connector-curvature="0"
       d="M 397.57348,114.60419 C 359.58055,76.611261 308.00773,55.956161 255.41251,55.994108 L 644.32124,444.90284 c 52.59522,-0.038 104.16804,20.61715 142.16097,58.61008 z"
       id="path3201"
       style="fill:#000000" />
    <path
       inkscape:connector-curvature="0"
       d="m 255.5625,113.41893 c 37.35485,-0.15146 73.9211,14.47998 101.00081,41.55969 L 745.47204,543.88735 C 718.39233,516.80764 681.82608,502.17619 644.47123,502.32766 z"
       id="path3203"
       style="fill:#000000" />
    <path
       inkscape:connector-curvature="0"
       d="m 356.56331,154.97862 c 8.67742,8.67742 16.38074,18.63305 22.82378,29.79006 l 388.90873,388.90873 c -6.44304,-11.15702 -14.14636,-21.11264 -22.82378,-29.79006 z"
       id="path3205"
       style="fill:#000000" />
    <path
       inkscape:connector-curvature="0"
       d="m 379.38709,184.76868 c 34.67487,60.04979 20.94993,134.29955 -29.22491,178.2244 l 388.90873,388.90873 c 50.17484,-43.92485 63.89978,-118.17461 29.22491,-178.2244 z"
       id="path3207"
       style="fill:#000000" />
    <path
       inkscape:connector-curvature="0"
       d="M 350.16218,362.99308 210.43766,120.9939 599.34639,509.90263 739.07091,751.90181 z"
       id="path3209"
       style="fill:#000000" />
    <path
       inkscape:connector-curvature="0"
       d="m 210.43766,120.9939 c 14.79994,-5.04999 30.02489,-7.49997 45.12484,-7.54999 l 388.90873,388.90873 c -15.09995,0.05 -30.3249,2.5 -45.12484,7.54999 z"
       id="path3211"
       style="fill:#000000" />
    <path
       inkscape:connector-curvature="0"
       d="M 161.86282,149.0438 301.58736,391.04298 690.49609,779.95171 550.77155,537.95253 z"
       id="path3213"
       style="fill:#000000" />
    <path
       inkscape:connector-curvature="0"
       d="M 301.58736,391.04298 C 250.20173,408.54462 193.49838,395.0841 155.48128,357.067 L 544.39,745.97573 c 38.01711,38.0171 94.72046,51.47762 146.10609,33.97598 z"
       id="path3215"
       style="fill:#000000" />
    <path
       inkscape:connector-curvature="0"
       d="m 155.48128,357.067 c -8.6851,-8.6851 -16.39496,-18.65182 -22.84337,-29.82379 l 388.90873,388.90873 c 6.44841,11.17197 14.15826,21.13869 22.84336,29.82379 z"
       id="path3217"
       style="fill:#000000" />
    <path
       inkscape:connector-curvature="0"
       d="M 132.63791,327.24321 C 97.963028,267.19341 111.68798,192.94365 161.86282,149.0188 l 388.90873,388.90873 c -50.17484,43.92485 -63.89979,118.17461 -29.22491,178.22441 z"
       id="path3219"
       style="fill:#000000" />
  </g>
  <path
     style="fill:#ffffff;fill-rule:evenodd"
     inkscape:connector-curvature="0"
     id="path188"
     d="m 255.38751,56.019109 c -33.84989,0.025 -68.14978,8.649971 -99.44969,26.724907 C 60.48816,137.84385 27.61327,260.61842 82.738085,356.06812 137.8379,451.51779 260.61249,484.39268 356.06217,429.26786 451.51184,374.16805 484.38673,251.39345 429.26192,155.94377 392.23704,91.818986 324.71227,55.944109 255.41251,55.994108 m 0.14999,57.424822 c 49.32483,-0.2 97.27468,25.37491 123.82459,71.34975 34.67487,60.04979 20.94993,134.29955 -29.22491,178.2244 L 210.43766,120.9939 c 14.79994,-5.04999 30.02489,-7.49997 45.12484,-7.54999 M 161.86282,149.0438 301.58736,391.04298 C 238.46256,412.54291 167.31281,387.318 132.63791,327.24321 97.963028,267.19341 111.68798,192.94365 161.86282,149.0188" />
</svg>
