<?xml version="1.0" encoding="UTF-8" standalone="no"?>
<svg
   xmlns:dc="http://purl.org/dc/elements/1.1/"
   xmlns:cc="http://creativecommons.org/ns#"
   xmlns:rdf="http://www.w3.org/1999/02/22-rdf-syntax-ns#"
   xmlns:svg="http://www.w3.org/2000/svg"
   xmlns="http://www.w3.org/2000/svg"
   xmlns:sodipodi="http://sodipodi.sourceforge.net/DTD/sodipodi-0.dtd"
   xmlns:inkscape="http://www.inkscape.org/namespaces/inkscape"
   width="512"
   height="512"
   viewBox="0 0 384 384"
   id="svg2"
   version="1.1"
   inkscape:version="0.48.5 r10040"
   sodipodi:docname="document-send.svg">
  <sodipodi:namedview
     pagecolor="#ffffff"
     bordercolor="#ffffff"
     borderopacity="1"
     objecttolerance="10"
     gridtolerance="10"
     guidetolerance="10"
     inkscape:pageopacity="0"
     inkscape:pageshadow="2"
     inkscape:window-width="1306"
     inkscape:window-height="715"
     id="namedview10"
     showgrid="false"
     inkscape:zoom="0.4609375"
     inkscape:cx="270.10169"
     inkscape:cy="210.44068"
     inkscape:window-x="56"
     inkscape:window-y="28"
     inkscape:window-maximized="1"
     inkscape:current-layer="svg2" />
  <metadata
     id="metadata14">
    <rdf:RDF>
      <cc:Work
         rdf:about="">
        <dc:format>image/svg+xml</dc:format>
        <dc:type
           rdf:resource="http://purl.org/dc/dcmitype/StillImage" />
      </cc:Work>
    </rdf:RDF>
  </metadata>
  <defs
     id="defs12">
    <clipPath
       clipPathUnits="userSpaceOnUse"
       id="clipPath3049">
      <path
         id="path3051"
         d="M 19.5,-1.5000001e-6 C 8.7019795,-1.5000001e-6 -4.9999994e-7,8.7019845 -4.9999994e-7,19.499998 l 0,345.000002 C -4.9999994e-7,375.29801 8.7019795,384 19.5,384 l 345,0 c 10.79801,0 19.5,-8.70199 19.5,-19.5 L 384,19.499998 C 384,8.7019845 375.29801,-1.5000001e-6 364.5,-1.5000001e-6 l -345,0 z"
         style="fill:none;fill-opacity:1;stroke:none"
         inkscape:connector-curvature="0" />
    </clipPath>
  </defs>
  <path
     inkscape:connector-curvature="0"
     style="fill:none;fill-opacity:1;stroke:none"
     d="M 19.5,-1.5000001e-6 C 8.7019795,-1.5000001e-6 -4.9999994e-7,8.7019845 -4.9999994e-7,19.499998 l 0,345.000002 C -4.9999994e-7,375.29801 8.7019795,384 19.5,384 l 345,0 c 10.79801,0 19.5,-8.70199 19.5,-19.5 L 384,19.499998 C 384,8.7019845 375.29801,-1.5000001e-6 364.5,-1.5000001e-6 l -345,0 z"
     id="rect2986" />
  <g
     style="fill:#000000;opacity:0.0"
     id="g3008"
     clip-path="url(#clipPath3049)">
    <path
       inkscape:connector-curvature="0"
       d="m 266.99731,342 -99.25878,-74.45483 388.90873,388.90873 99.25878,74.45483 z"
       id="path3010"
       style="fill:#000000" />
    <path
       inkscape:connector-curvature="0"
       d="M 167.73853,267.54517 304.49866,79.501343 693.40739,468.41007 556.64726,656.4539 z"
       id="path3012"
       style="fill:#000000" />
    <path
       inkscape:connector-curvature="0"
       d="M 304.49866,79.501343 128.35729,238.02535 517.26602,626.93408 693.40739,468.41007 z"
       id="path3014"
       style="fill:#000000" />
    <path
       inkscape:connector-curvature="0"
       d="M 128.35729,238.02535 42,173.24933 l 388.90873,388.90873 86.35729,64.77602 z"
       id="path3016"
       style="fill:#000000" />
    <path
       inkscape:connector-curvature="0"
       d="M 42,173.24933 342,42 l 388.90873,388.90873 -300,131.24933 z"
       id="path3018"
       style="fill:#000000" />
    <path
       inkscape:connector-curvature="0"
       d="m 117.00269,342 0,-74.99839 388.90873,388.90873 0,74.99839 z"
       id="path3020"
       style="fill:#000000" />
    <path
       inkscape:connector-curvature="0"
       d="m 117.00269,267.00161 56.24664,37.50134 388.90873,388.90873 -56.24664,-37.50134 z"
       id="path3022"
       style="fill:#000000" />
  </g>
  <path
     d="M 266.99731,342 167.73853,267.54517 304.49866,79.501343 128.35729,238.02535 42,173.24933 342,42 M 117.00269,342 v -74.99839 l 56.24664,37.50134"
     id="path8"
     inkscape:connector-curvature="0"
     style="fill:#ffffff" />
</svg>
