<?xml version="1.0" encoding="UTF-8" standalone="no"?>
<svg
   xmlns:dc="http://purl.org/dc/elements/1.1/"
   xmlns:cc="http://creativecommons.org/ns#"
   xmlns:rdf="http://www.w3.org/1999/02/22-rdf-syntax-ns#"
   xmlns:svg="http://www.w3.org/2000/svg"
   xmlns="http://www.w3.org/2000/svg"
   xmlns:sodipodi="http://sodipodi.sourceforge.net/DTD/sodipodi-0.dtd"
   xmlns:inkscape="http://www.inkscape.org/namespaces/inkscape"
   viewBox="0 0 512 512"
   id="svg2"
   version="1.1"
   inkscape:version="0.48.5 r10040"
   width="100%"
   height="100%"
   sodipodi:docname="fork.svg">
  <sodipodi:namedview
     pagecolor="#ffffff"
     bordercolor="#ffffff"
     borderopacity="1"
     objecttolerance="10"
     gridtolerance="10"
     guidetolerance="10"
     inkscape:pageopacity="0"
     inkscape:pageshadow="2"
     inkscape:window-width="1306"
     inkscape:window-height="715"
     id="namedview552"
     showgrid="false"
     inkscape:zoom="0.4609375"
     inkscape:cx="579.25424"
     inkscape:cy="123.66102"
     inkscape:window-x="56"
     inkscape:window-y="28"
     inkscape:window-maximized="1"
     inkscape:current-layer="svg2" />
  <metadata
     id="metadata556">
    <rdf:RDF>
      <cc:Work
         rdf:about="">
        <dc:format>image/svg+xml</dc:format>
        <dc:type
           rdf:resource="http://purl.org/dc/dcmitype/StillImage" />
      </cc:Work>
    </rdf:RDF>
  </metadata>
  <defs
     id="defs554">
    <clipPath
       id="clipPath4542"
       clipPathUnits="userSpaceOnUse">
      <path
         inkscape:connector-curvature="0"
         style="fill:none;fill-opacity:1;stroke:none"
         d="m 25.999998,-2.5e-6 c -14.39736,0 -26,11.6026475 -26,25.9999995 L -2e-6,486 c 0,14.39735 11.60264,26 26,26 L 486,512 c 14.39735,0 26,-11.60265 26,-26 L 512,25.999997 C 512,11.602645 500.39735,-2.5e-6 486,-2.5e-6 l -460.000002,0 z"
         id="path4544" />
    </clipPath>
    <clipPath
       clipPathUnits="userSpaceOnUse"
       id="clipPath4007">
      <path
         inkscape:connector-curvature="0"
         style="fill:none;fill-opacity:1;stroke:none"
         d="m 25.999998,-2.5e-6 c -14.39736,0 -26,11.6026475 -26,25.9999995 L -2e-6,486 c 0,14.39735 11.60264,26 26,26 L 486,512 c 14.39735,0 26,-11.60265 26,-26 L 512,25.999997 C 512,11.602645 500.39735,-2.5e-6 486,-2.5e-6 l -460.000002,0 z"
         id="path4009" />
    </clipPath>
  </defs>
  <g
     style="fill:none"
     id="g18"
     transform="matrix(23.27273,0,0,23.27273,0.022,0)">
  </g>
  <g
     style="fill:#000000"
     id="g38"
     transform="matrix(23.27273,0,0,23.27273,0.022,0)">
  </g>
  <g
     style="fill:none"
     id="g52"
     transform="matrix(23.27273,0,0,23.27273,0.022,0)">
    <g
       style="stroke:#cd1d31"
       id="g54">
    </g>
  </g>
  <g
     style="fill:#000000"
     id="g74"
     transform="matrix(23.27273,0,0,23.27273,0.022,0)">
  </g>
  <g
     style="fill:none"
     id="g100"
     transform="matrix(23.27273,0,0,23.27273,0.022,0)">
  </g>
  <g
     style="fill:#000000"
     id="g120"
     transform="matrix(23.27273,0,0,23.27273,0.022,0)">
  </g>
  <g
     style="fill:none"
     id="g134"
     transform="matrix(23.27273,0,0,23.27273,0.022,0)">
    <g
       style="stroke:#cd1d31"
       id="g136">
    </g>
  </g>
  <g
     style="fill:#000000"
     id="g156"
     transform="matrix(23.27273,0,0,23.27273,0.022,0)">
  </g>
  <g
     style="line-height:125%;letter-spacing:0;word-spacing:0;font-family:Gentium Book Basic"
     id="g212"
     word-spacing="0"
     line-height="125%"
     letter-spacing="0"
     transform="matrix(23.27273,0,0,23.27273,0.022,0)">
  </g>
  <g
     style="line-height:125%;letter-spacing:0;word-spacing:0;font-family:Gentium Book Basic"
     id="g260"
     word-spacing="0"
     line-height="125%"
     letter-spacing="0"
     transform="matrix(23.27273,0,0,23.27273,0.022,0)">
  </g>
  <g
     style="fill:none"
     id="g270"
     transform="matrix(23.27273,0,0,23.27273,0.022,0)">
  </g>
  <g
     style="font-size:208.33000183px;line-height:125%;letter-spacing:0;word-spacing:0;font-family:Gentium Book Basic"
     id="g346"
     word-spacing="0"
     line-height="125%"
     letter-spacing="0"
     font-size="208.33"
     transform="matrix(23.27273,0,0,23.27273,0.022,0)">
  </g>
  <g
     style="fill:none"
     id="g364"
     transform="matrix(23.27273,0,0,23.27273,0.022,0)">
  </g>
  <g
     style="fill:#000000"
     id="g384"
     transform="matrix(23.27273,0,0,23.27273,0.022,0)">
  </g>
  <g
     style="fill:none"
     id="g398"
     transform="matrix(23.27273,0,0,23.27273,0.022,0)">
    <g
       style="stroke:#cd1d31"
       id="g400">
    </g>
  </g>
  <g
     style="fill:#000000"
     id="g420"
     transform="matrix(23.27273,0,0,23.27273,0.022,0)">
  </g>
  <path
     id="rect2986"
     d="m 25.999998,-2.5e-6 c -14.39736,0 -26,11.6026475 -26,25.9999995 L -2e-6,486 c 0,14.39735 11.60264,26 26,26 L 486,512 c 14.39735,0 26,-11.60265 26,-26 L 512,25.999997 C 512,11.602645 500.39735,-2.5e-6 486,-2.5e-6 l -460.000002,0 z"
     style="fill:none;fill-opacity:1;stroke:none"
     inkscape:connector-curvature="0" />
  <g
     style="fill:#000000;fill-rule:evenodd;opacity:0.0"
     id="g3527"
     clip-path="url(#clipPath4007)">
    <path
       inkscape:connector-curvature="0"
       d="m 449.96186,56.033367 c -9.3498,0.149997 -28.3994,1.999958 -40.72415,4.224912 L 798.14644,449.16701 c 12.32475,-2.22496 31.37435,-4.07492 40.72415,-4.22491 z"
       id="path3529"
       style="fill:#000000" />
    <path
       inkscape:connector-curvature="0"
       d="M 409.23771,60.258279 C 346.18902,71.608041 296.59007,90.88264 256.6909,119.50703 l 388.90873,388.90873 c 39.89917,-28.62439 89.49812,-47.89899 152.54681,-59.24875 z"
       id="path3531"
       style="fill:#000000" />
    <path
       inkscape:connector-curvature="0"
       d="m 256.6909,119.50703 c -25.24947,18.09963 -42.72409,36.39925 -60.14874,62.89869 l 388.90873,388.90873 c 17.42465,-26.49944 34.89927,-44.79906 60.14874,-62.89869 z"
       id="path3533"
       style="fill:#000000" />
    <path
       inkscape:connector-curvature="0"
       d="m 196.54216,182.40572 c -4.42491,6.72485 -8.49982,12.89973 -9.07481,13.69972 l 388.90873,388.90873 c 0.57499,-0.79999 4.6499,-6.97487 9.07481,-13.69972 z"
       id="path3535"
       style="fill:#000000" />
    <path
       inkscape:connector-curvature="0"
       d="m 187.46735,196.10544 c -0.54999,0.79998 -7.29985,1.62496 -14.94968,1.87496 L 561.4264,586.88913 c 7.64983,-0.25 14.39969,-1.07498 14.94968,-1.87496 z"
       id="path3537"
       style="fill:#000000" />
    <path
       inkscape:connector-curvature="0"
       d="m 172.51767,197.9804 c -15.59967,0.5 -16.27467,0.82498 -38.5992,18.07462 L 522.8272,604.96375 c 22.32453,-17.24964 22.99953,-17.57462 38.5992,-18.07462 z"
       id="path3539"
       style="fill:#000000" />
    <path
       inkscape:connector-curvature="0"
       d="m 133.91847,216.05502 c -25.34946,19.59959 -52.223901,50.89893 -71.073507,82.84826 L 451.75369,687.81201 c 18.84961,-31.94933 45.72405,-63.24867 71.07351,-82.84826 z"
       id="path3541"
       style="fill:#000000" />
    <path
       inkscape:connector-curvature="0"
       d="m 62.844963,298.90328 c -5.789784,9.80645 -8.064382,15.46335 -5.571414,17.95631 L 446.18228,705.76832 c -2.49297,-2.49296 -0.21837,-8.14986 5.57141,-17.95631 z"
       id="path3543"
       style="fill:#000000" />
    <path
       inkscape:connector-curvature="0"
       d="m 57.273549,316.85959 c 2.67389,2.67389 10.832447,1.70796 26.020987,-1.68164 L 472.20327,704.08668 c -15.18854,3.3896 -23.3471,4.35553 -26.02099,1.68164 z"
       id="path3545"
       style="fill:#000000" />
    <path
       inkscape:connector-curvature="0"
       d="m 83.294536,315.17795 c 9.474802,-2.12496 19.974584,-4.47492 23.374504,-5.22489 l 388.90873,388.90873 c -3.39992,0.74997 -13.8997,3.09993 -23.3745,5.22489 z"
       id="path3547"
       style="fill:#000000" />
    <path
       inkscape:connector-curvature="0"
       d="m 106.66904,309.95306 c 22.77453,-5.0999 35.37426,-7.37485 36.22424,-6.54987 l 388.90873,388.90873 c -0.84998,-0.82498 -13.44971,1.44997 -36.22424,6.54987 z"
       id="path3549"
       style="fill:#000000" />
    <path
       inkscape:connector-curvature="0"
       d="m 142.89328,303.40319 c 0,0 0,0 0,0 l 388.90873,388.90873 c 0,0 0,0 0,0 z"
       id="path3551"
       style="fill:#000000" />
    <path
       inkscape:connector-curvature="0"
       d="m 142.89328,303.40319 c 0.52499,0.52499 -0.42498,4.9749 -2.14995,9.84979 l 388.90873,388.90873 c 1.72497,-4.87489 2.67494,-9.3248 2.14995,-9.84979 z"
       id="path3553"
       style="fill:#000000" />
    <path
       inkscape:connector-curvature="0"
       d="m 140.74333,313.25298 c -2.32495,6.52487 -2.72495,10.02479 -1.47497,13.34973 l 388.90873,388.90873 c -1.24998,-3.32494 -0.84998,-6.82486 1.47497,-13.34973 z"
       id="path3555"
       style="fill:#000000" />
    <path
       inkscape:connector-curvature="0"
       d="m 139.26836,326.60271 c 0.92498,2.47495 11.19976,14.0747 22.82452,25.77446 L 551.00161,741.2859 c -11.62476,-11.69976 -21.89954,-23.29951 -22.82452,-25.77446 z"
       id="path3557"
       style="fill:#000000" />
    <path
       inkscape:connector-curvature="0"
       d="m 162.09288,352.37717 21.09955,21.32455 388.90873,388.90873 -21.09955,-21.32455 z"
       id="path3559"
       style="fill:#000000" />
    <path
       inkscape:connector-curvature="0"
       d="m 183.19243,373.70172 8.79983,-1.04998 388.90873,388.90873 -8.79983,1.04998 z"
       id="path3561"
       style="fill:#000000" />
    <path
       inkscape:connector-curvature="0"
       d="m 191.99226,372.65174 c 4.8499,-0.57499 11.14975,-1.57497 13.9747,-2.19995 l 388.90873,388.90873 c -2.82495,0.62498 -9.1248,1.62496 -13.9747,2.19995 z"
       id="path3563"
       style="fill:#000000" />
    <path
       inkscape:connector-curvature="0"
       d="m 205.96696,370.45179 c 2.45288,-0.55888 3.73924,-0.66466 4.19434,-0.20956 l 388.90873,388.90873 c -0.4551,-0.4551 -1.74146,-0.34932 -4.19434,0.20956 z"
       id="path3565"
       style="fill:#000000" />
    <path
       inkscape:connector-curvature="0"
       d="m 210.1613,370.24223 c 0.27775,0.27776 0.24588,0.76444 -0.0194,1.48453 l 388.90873,388.90873 c 0.2653,-0.72009 0.29717,-1.20677 0.0194,-1.48453 z"
       id="path3567"
       style="fill:#000000" />
    <path
       inkscape:connector-curvature="0"
       d="m 210.14188,371.72676 c -3.12493,8.47482 -17.62464,79.04835 -16.69966,81.4233 l 388.90873,388.90873 c -0.92498,-2.37495 13.57473,-72.94848 16.69966,-81.4233 z"
       id="path3569"
       style="fill:#000000" />
    <path
       inkscape:connector-curvature="0"
       d="m 193.44222,453.15006 c 0.1994,0.52341 0.53684,1.01368 0.9582,1.43504 l 388.90873,388.90873 c -0.42136,-0.42136 -0.7588,-0.91163 -0.9582,-1.43504 z"
       id="path3571"
       style="fill:#000000" />
    <path
       inkscape:connector-curvature="0"
       d="m 194.40042,454.5851 c 0.84654,0.84654 2.03178,1.4149 3.11672,1.4149 l 388.90873,388.90873 c -1.08494,0 -2.27018,-0.56836 -3.11672,-1.4149 z"
       id="path3573"
       style="fill:#000000" />
    <path
       inkscape:connector-curvature="0"
       d="m 197.51714,456 c 1.62497,0 12.92473,-6.57487 24.99948,-14.6247 l 388.90873,388.90873 c -12.07475,8.04983 -23.37451,14.6247 -24.99948,14.6247 z"
       id="path3575"
       style="fill:#000000" />
    <path
       inkscape:connector-curvature="0"
       d="m 222.51662,441.3753 c 39.32417,-25.92445 62.79868,-47.97399 83.07326,-77.99837 l 388.90873,388.90873 c -20.27458,30.02438 -43.74909,52.07392 -83.07326,77.99837 z"
       id="path3577"
       style="fill:#000000" />
    <path
       inkscape:connector-curvature="0"
       d="m 305.58988,363.37693 c 8.44982,-12.52474 8.57482,-12.97471 8.62482,-26.44944 l 388.90873,388.90873 c -0.05,13.47473 -0.175,13.9247 -8.62482,26.44944 z"
       id="path3579"
       style="fill:#000000" />
    <path
       inkscape:connector-curvature="0"
       d="m 314.2147,336.92749 0.05,-13.74972 388.90873,388.90873 -0.05,13.74972 z"
       id="path3581"
       style="fill:#000000" />
    <path
       inkscape:connector-curvature="0"
       d="m 314.2647,323.17777 17.19964,-10.94976 388.90873,388.90873 -17.19964,10.94976 z"
       id="path3583"
       style="fill:#000000" />
    <path
       inkscape:connector-curvature="0"
       d="m 331.46434,312.22801 c 39.64917,-25.24947 67.84858,-60.37375 91.57308,-114.44761 l 388.90873,388.90873 c -23.7245,54.07386 -51.92391,89.19814 -91.57308,114.44761 z"
       id="path3585"
       style="fill:#000000" />
    <path
       inkscape:connector-curvature="0"
       d="m 423.03742,197.7804 c 11.54976,-26.29944 18.62461,-49.22398 26.44944,-85.69821 l 388.90873,388.90873 c -7.82483,36.47423 -14.89968,59.39877 -26.44944,85.69821 z"
       id="path3587"
       style="fill:#000000" />
    <path
       inkscape:connector-curvature="0"
       d="m 449.48686,112.08219 c 3.27398,-15.220248 7.42244,-54.076283 5.92619,-55.572537 L 844.32178,445.41838 c 1.49625,1.49626 -2.65221,40.35229 -5.92619,55.57254 z"
       id="path3589"
       style="fill:#000000" />
    <path
       inkscape:connector-curvature="0"
       d="m 455.41305,56.509653 c -4.4e-4,-4.35e-4 -8.7e-4,-8.67e-4 -10e-4,-0.0013 L 844.32047,445.41709 c 4.4e-4,4.3e-4 8.7e-4,8.6e-4 10e-4,0.001 z"
       id="path3591"
       style="fill:#000000" />
    <path
       inkscape:connector-curvature="0"
       d="m 455.41174,56.508358 c -0.375,-0.374993 -2.42495,-0.549989 -5.54988,-0.49999 L 838.77059,444.9171 c 3.12493,-0.05 5.17488,0.12499 5.54988,0.49999 z"
       id="path3593"
       style="fill:#000000" />
    <path
       inkscape:connector-curvature="0"
       d="m 346.56403,134.95672 c 9.56626,0 16.59718,2.44093 21.91486,7.75862 l 388.90873,388.90873 c -5.31768,-5.31769 -12.3486,-7.75862 -21.91486,-7.75862 z"
       id="path3595"
       style="fill:#000000" />
    <path
       inkscape:connector-curvature="0"
       d="m 368.47889,142.71534 c 1.9225,1.92249 3.62107,4.22099 5.13456,6.91607 l 388.90873,388.90873 c -1.51349,-2.69509 -3.21206,-4.99358 -5.13456,-6.91607 z"
       id="path3597"
       style="fill:#000000" />
    <path
       inkscape:connector-curvature="0"
       d="m 373.61345,149.63141 c 9.14982,16.27466 1.34998,35.32426 -17.64962,43.2741 l 388.90873,388.90873 c 18.9996,-7.94984 26.79944,-26.99944 17.64962,-43.2741 z"
       id="path3599"
       style="fill:#000000" />
    <path
       inkscape:connector-curvature="0"
       d="m 355.96383,192.90551 c -6.54986,2.72493 -9.09981,2.97493 -17.04965,1.47497 l 388.90873,388.90873 c 7.94984,1.49996 10.49979,1.24996 17.04965,-1.47497 z"
       id="path3601"
       style="fill:#000000" />
    <path
       inkscape:connector-curvature="0"
       d="m 338.91418,194.38048 c -2.32495,-0.45 -8.44982,-5.0499 -13.62472,-10.22479 l 388.90873,388.90873 c 5.1749,5.17489 11.29977,9.77479 13.62472,10.22479 z"
       id="path3603"
       style="fill:#000000" />
    <path
       inkscape:connector-curvature="0"
       d="m 325.28946,184.15569 c -8.9998,-8.99981 -9.39979,-9.77481 -9.39979,-18.74961 L 704.7984,554.31481 c 0,8.9748 0.39999,9.7498 9.39979,18.74961 z"
       id="path3605"
       style="fill:#000000" />
    <path
       inkscape:connector-curvature="0"
       d="m 315.88967,165.40608 c 0,-11.02477 3.72492,-18.04963 13.34971,-25.39947 l 388.90873,388.90873 c -9.62479,7.34984 -13.34971,14.3747 -13.34971,25.39947 z"
       id="path3607"
       style="fill:#000000" />
    <path
       inkscape:connector-curvature="0"
       d="m 329.23938,140.00661 c 5.59989,-4.27491 8.24983,-5.07489 17.32465,-5.04989 l 388.90873,388.90873 c -9.07482,-0.025 -11.72476,0.77498 -17.32465,5.04989 z"
       id="path3609"
       style="fill:#000000" />
    <path
       inkscape:connector-curvature="0"
       d="m 122.49371,339.72743 c -6.29987,-0.0749 -19.79959,5.87488 -26.924427,13.02473 L 484.47801,741.66089 c 7.12484,-7.14985 20.62456,-13.09963 26.92443,-13.02473 z"
       id="path3611"
       style="fill:#000000" />
    <path
       inkscape:connector-curvature="0"
       d="m 95.569283,352.75216 c -8.574823,8.57482 -11.749756,19.52458 -13.024732,44.42406 L 471.45328,786.08495 c 1.27498,-24.89948 4.44991,-35.84924 13.02473,-44.42406 z"
       id="path3613"
       style="fill:#000000" />
    <path
       inkscape:connector-curvature="0"
       d="m 82.544551,397.17622 c -0.842467,16.49461 -0.243121,24.98498 3.632037,28.86013 L 475.08532,814.94508 c -3.87516,-3.87515 -4.47451,-12.36552 -3.63204,-28.86013 z"
       id="path3615"
       style="fill:#000000" />
    <path
       inkscape:connector-curvature="0"
       d="m 86.176588,426.03635 c 2.679389,2.67939 6.924848,3.15238 13.342608,2.53922 L 488.42793,817.4843 c -6.41776,0.61316 -10.66322,0.14017 -13.34261,-2.53922 z"
       id="path3617"
       style="fill:#000000" />
    <path
       inkscape:connector-curvature="0"
       d="m 99.519196,428.57557 c 3.374934,-0.32499 13.449714,-0.97497 22.324534,-1.42497 l 388.90873,388.90873 c -8.87482,0.45 -18.9496,1.09998 -22.32453,1.42497 z"
       id="path3619"
       style="fill:#000000" />
    <path
       inkscape:connector-curvature="0"
       d="m 121.84373,427.1506 c 22.14953,-1.12498 33.37429,-7.34985 41.39913,-22.92452 l 388.90873,388.90873 c -8.02484,15.57467 -19.2496,21.79954 -41.39913,22.92452 z"
       id="path3621"
       style="fill:#000000" />
    <path
       inkscape:connector-curvature="0"
       d="m 163.24286,404.22608 c 3.94826,-7.65281 6.23332,-25.35625 3.728,-27.86157 l 388.90873,388.90873 c 2.50532,2.50532 0.22026,20.20876 -3.728,27.86157 z"
       id="path3623"
       style="fill:#000000" />
    <path
       inkscape:connector-curvature="0"
       d="m 166.97086,376.36451 c -0.0645,-0.0645 -0.13218,-0.11893 -0.20308,-0.16285 l 388.90873,388.90873 c 0.0709,0.0439 0.13858,0.0983 0.20308,0.16285 z"
       id="path3625"
       style="fill:#000000" />
    <path
       inkscape:connector-curvature="0"
       d="m 166.76778,376.20166 c -3.44993,-2.12495 -9.99979,2.02496 -15.99967,10.0498 l 388.90873,388.90873 c 5.99988,-8.02484 12.54974,-12.17475 15.99967,-10.0498 z"
       id="path3627"
       style="fill:#000000" />
    <path
       inkscape:connector-curvature="0"
       d="m 150.76811,386.25146 c -7.02484,9.4248 -15.07467,13.19972 -31.49934,14.72469 L 508.1775,789.88488 c 16.42467,-1.52497 24.4745,-5.29989 31.49934,-14.72469 z"
       id="path3629"
       style="fill:#000000" />
    <path
       inkscape:connector-curvature="0"
       d="m 119.26877,400.97615 -11.49974,1.04997 388.90873,388.90873 11.49974,-1.04997 z"
       id="path3631"
       style="fill:#000000" />
    <path
       inkscape:connector-curvature="0"
       d="m 107.76903,402.02612 1.27497,-12.14973 388.90873,388.90873 -1.27497,12.14973 z"
       id="path3633"
       style="fill:#000000" />
    <path
       inkscape:connector-curvature="0"
       d="m 109.044,389.87639 c 0.89998,-8.94982 3.29993,-16.59966 9.07481,-28.9744 l 388.90873,388.90873 c -5.77488,12.37474 -8.17483,20.02458 -9.07481,28.9744 z"
       id="path3635"
       style="fill:#000000" />
    <path
       inkscape:connector-curvature="0"
       d="m 118.11881,360.90199 c 4.3249,-9.24982 7.79983,-17.77463 7.79983,-18.89961 l 388.90873,388.90873 c 0,1.12498 -3.47493,9.64979 -7.79983,18.89961 z"
       id="path3637"
       style="fill:#000000" />
    <path
       inkscape:connector-curvature="0"
       d="m 125.91864,342.00238 c 0,-0.58105 -0.18873,-1.04233 -0.53854,-1.39214 l 388.90873,388.90873 c 0.34981,0.34981 0.53854,0.81109 0.53854,1.39214 z"
       id="path3639"
       style="fill:#000000" />
    <path
       inkscape:connector-curvature="0"
       d="m 125.3801,340.61024 c -0.56826,-0.56826 -1.56157,-0.84234 -2.86139,-0.85782 l 388.90873,388.90873 c 1.29982,0.0155 2.29313,0.28956 2.86139,0.85782 z"
       id="path3641"
       style="fill:#000000" />
  </g>
  <path
     style="fill:#ffffff;fill-rule:evenodd"
     inkscape:connector-curvature="0"
     id="path550"
     d="m 449.96186,56.033367 c -9.3498,0.149997 -28.3994,1.999958 -40.72415,4.224912 -63.04869,11.349762 -112.64764,30.624361 -152.54681,59.248751 -25.24947,18.09963 -42.72409,36.39925 -60.14874,62.89869 -4.42491,6.72485 -8.49982,12.89973 -9.07481,13.69972 -0.54999,0.79998 -7.29985,1.62496 -14.94968,1.87496 -15.59967,0.5 -16.27467,0.82498 -38.5992,18.07462 -25.34946,19.59959 -52.223901,50.89893 -71.073507,82.84826 -11.999749,20.32458 -8.899813,22.82452 20.449573,16.27467 9.474802,-2.12496 19.974584,-4.47492 23.374504,-5.22489 22.77453,-5.0999 35.37426,-7.37485 36.22424,-6.54987 0.52499,0.52498 -0.42498,4.9749 -2.14995,9.84979 -2.32495,6.52487 -2.72495,10.02479 -1.47497,13.34973 0.92498,2.47495 11.19976,14.0747 22.82452,25.77446 l 21.09955,21.32455 8.79983,-1.04998 c 4.8499,-0.57499 11.14975,-1.57497 13.9747,-2.19995 3.94991,-0.89998 4.8749,-0.62499 4.17492,1.27497 -3.12493,8.47482 -17.62464,79.04835 -16.69966,81.4233 0.6,1.57497 2.44996,2.84994 4.07492,2.84994 1.62497,0 12.92473,-6.57487 24.99948,-14.6247 39.32417,-25.92445 62.79868,-47.97399 83.07326,-77.99837 8.44982,-12.52474 8.57482,-12.97471 8.62482,-26.44944 l 0.05,-13.74972 17.19964,-10.94976 c 39.64917,-25.24947 67.84858,-60.37375 91.57308,-114.44761 11.54976,-26.29944 18.62461,-49.22398 26.44944,-85.69821 3.27493,-15.22467 7.42485,-54.098863 5.92488,-55.573832 -0.375,-0.374993 -2.42495,-0.549989 -5.54988,-0.49999 M 346.56403,134.95672 c 13.02473,0 21.34955,4.5249 27.04942,14.67469 9.14982,16.27466 1.34998,35.32426 -17.64962,43.2741 -6.54986,2.72493 -9.09981,2.97493 -17.04965,1.47497 -2.32495,-0.45 -8.44982,-5.0499 -13.62472,-10.22479 -8.9998,-8.99981 -9.39979,-9.77481 -9.39979,-18.74961 0,-11.02477 3.72492,-18.04963 13.34971,-25.39947 5.59989,-4.27491 8.24983,-5.07489 17.32465,-5.04989 M 122.49371,339.72743 c -6.29987,-0.0749 -19.79959,5.87488 -26.924427,13.02473 -8.574823,8.57482 -11.749756,19.52458 -13.024732,44.42406 -1.424971,27.89942 1.274976,32.89932 16.974645,31.39935 3.374934,-0.32499 13.449714,-0.97497 22.324534,-1.42497 22.14953,-1.12498 33.37429,-7.34985 41.39913,-22.92452 4.04991,-7.84983 6.34987,-26.27446 3.52492,-28.02442 -3.44993,-2.12495 -9.99979,2.02496 -15.99967,10.0498 -7.02484,9.4248 -15.07467,13.19972 -31.49934,14.72469 l -11.49974,1.04997 1.27497,-12.14973 c 0.89998,-8.94982 3.29993,-16.59966 9.07481,-28.9744 4.3249,-9.24982 7.79983,-17.77463 7.79983,-18.89961 0,-1.52496 -1.29997,-2.22495 -3.39993,-2.24996" />
</svg>
