<?xml version="1.0" encoding="UTF-8" standalone="no"?>
<!-- Created with Inkscape (http://www.inkscape.org/) -->

<svg
   xmlns:dc="http://purl.org/dc/elements/1.1/"
   xmlns:cc="http://creativecommons.org/ns#"
   xmlns:rdf="http://www.w3.org/1999/02/22-rdf-syntax-ns#"
   xmlns:svg="http://www.w3.org/2000/svg"
   xmlns="http://www.w3.org/2000/svg"
   xmlns:inkscape="http://www.inkscape.org/namespaces/inkscape"
   version="1.1"
   width="100%"
   height="100%"
   viewBox="0 0 512 512"
   id="svg2">
  <metadata
     id="metadata91">
    <rdf:RDF>
      <cc:Work
         rdf:about="">
        <dc:format>image/svg+xml</dc:format>
        <dc:type
           rdf:resource="http://purl.org/dc/dcmitype/StillImage" />
      </cc:Work>
    </rdf:RDF>
  </metadata>
  <defs
     id="defs4">
    <clipPath
       id="0">
      <rect
         width="512"
         height="512"
         rx="25.988001"
         x="0"
         y="0"
         id="rect7"
         style="fill:none" />
    </clipPath>
  </defs>
  <rect
     width="512"
     height="512"
     rx="25.988001"
     x="0"
     y="0"
     id="rect9"
     style="fill:none" />
  <g
     clip-path="url(#0)"
     id="g57"
     style="opacity:0.0;fill-rule:evenodd">
    <path
       d="m 470.99,207.68 c 0.885,2.728 -91.56,106.95 -92.43,109.68 l 353.55,353.55 c 0.871,-2.73 93.32,-106.96 92.43,-109.68 z"
       inkscape:connector-curvature="0"
       id="path59" />
    <path
       d="m 378.56,317.36 c -0.885,2.728 12.66,141.38 10.339,143.07 l 353.55,353.55 C 744.77,812.29 731.224,673.63 732.11,670.91 z"
       inkscape:connector-curvature="0"
       id="path61" />
    <path
       d="m 388.9,460.44 c -2.322,1.681 -130.02,-54.02 -132.88,-54.02 l 353.55,353.55 c 2.86,0 130.56,55.704 132.88,54.02 z"
       inkscape:connector-curvature="0"
       id="path63" />
    <path
       d="m 256.02,406.41 c -2.872,-0.005 -130.55,55.734 -132.87,54.05 L 476.7,814.01 c 2.314,1.684 130,-54.06 132.87,-54.05 z"
       inkscape:connector-curvature="0"
       id="path65" />
    <path
       d="m 123.15,460.46 c -0.005,-0.004 -0.01,-0.008 -0.014,-0.012 l 353.55,353.55 c 0.005,0.005 0.009,0.009 0.014,0.012 z"
       inkscape:connector-curvature="0"
       id="path67" />
    <path
       d="m 123.14,460.45 c -2.252,-2.252 11.212,-140.34 10.324,-143.06 l 353.55,353.55 c 0.889,2.725 -12.575,140.81 -10.324,143.06 z"
       inkscape:connector-curvature="0"
       id="path69" />
    <path
       d="M 133.46,317.39 C 132.575,314.667 40.11,210.46 41,207.73 l 353.55,353.55 c -0.892,2.73 91.57,106.94 92.46,109.66 z"
       inkscape:connector-curvature="0"
       id="path71" />
    <path
       d="m 41.01,207.73 c 0.885,-2.728 136.94,-32.713 139.25,-34.402 l 353.55,353.55 c -2.314,1.689 -138.37,31.674 -139.25,34.402 z"
       inkscape:connector-curvature="0"
       id="path73" />
    <path
       d="M 180.26,173.33 C 182.577,171.644 253.123,51.5 255.98,51.5 l 353.55,353.55 c -2.86,0 -73.41,120.14 -75.72,121.83 z"
       inkscape:connector-curvature="0"
       id="path75" />
    <path
       d="m 255.98,51.5 c 0.081,0 0.215,0.095 0.4,0.28 l 353.55,353.55 c -0.185,-0.185 -0.319,-0.28 -0.4,-0.28 z"
       inkscape:connector-curvature="0"
       id="path77" />
    <path
       d="m 256.38,51.78 c 6.344,6.344 72.22,118.42 75.3,121.48 l 353.55,353.55 c -3.076,-3.059 -68.954,-115.13 -75.3,-121.48 z"
       inkscape:connector-curvature="0"
       id="path79" />
    <path
       d="m 331.68,173.26 c 0.02,0.02 0.038,0.035 0.052,0.046 l 353.55,353.55 c -0.015,-0.011 -0.032,-0.026 -0.052,-0.046 z"
       inkscape:connector-curvature="0"
       id="path81" />
    <path
       d="m 331.73,173.3 c 2.302,1.672 136.05,31.13 139.21,34.3 l 353.55,353.55 c -3.164,-3.164 -136.91,-32.625 -139.21,-34.3 z"
       inkscape:connector-curvature="0"
       id="path83" />
    <path
       d="m 470.94,207.6 c 0.027,0.027 0.045,0.053 0.053,0.076 l 353.55,353.55 c -0.008,-0.023 -0.025,-0.049 -0.053,-0.076 z"
       inkscape:connector-curvature="0"
       id="path85" />
  </g>
  <path
     d="m 470.99,207.68 c 0.885,2.728 -91.56,106.95 -92.43,109.68 -0.885,2.728 12.66,141.38 10.339,143.07 -2.322,1.681 -130.02,-54.02 -132.88,-54.02 -2.872,-0.005 -130.55,55.734 -132.87,54.05 -2.322,-1.686 11.2,-140.34 10.309,-143.07 -0.885,-2.723 -93.35,-106.93 -92.46,-109.66 0.885,-2.728 136.94,-32.713 139.25,-34.402 2.317,-1.686 72.863,-121.83 75.72,-121.83 2.872,0.005 73.42,120.13 75.75,121.8 2.322,1.686 138.37,31.644 139.26,34.37"
     inkscape:connector-curvature="0"
     id="path87"
     style="fill:#ffffff;fill-rule:evenodd" />
</svg>
