<?xml version="1.0" encoding="UTF-8" standalone="no"?>
<svg
   xmlns:dc="http://purl.org/dc/elements/1.1/"
   xmlns:cc="http://creativecommons.org/ns#"
   xmlns:rdf="http://www.w3.org/1999/02/22-rdf-syntax-ns#"
   xmlns:svg="http://www.w3.org/2000/svg"
   xmlns="http://www.w3.org/2000/svg"
   xmlns:sodipodi="http://sodipodi.sourceforge.net/DTD/sodipodi-0.dtd"
   xmlns:inkscape="http://www.inkscape.org/namespaces/inkscape"
   viewBox="0 0 512 512"
   id="svg2"
   version="1.1"
   inkscape:version="0.48.5 r10040"
   width="100%"
   height="100%"
   sodipodi:docname="gtk-refresh.svg">
  <sodipodi:namedview
     pagecolor="#ffffff"
     bordercolor="#ffffff"
     borderopacity="1"
     objecttolerance="10"
     gridtolerance="10"
     guidetolerance="10"
     inkscape:pageopacity="0"
     inkscape:pageshadow="2"
     inkscape:window-width="1306"
     inkscape:window-height="715"
     id="namedview96"
     showgrid="false"
     inkscape:zoom="0.4609375"
     inkscape:cx="-106.30508"
     inkscape:cy="227.79661"
     inkscape:window-x="56"
     inkscape:window-y="28"
     inkscape:window-maximized="1"
     inkscape:current-layer="svg2" />
  <metadata
     id="metadata100">
    <rdf:RDF>
      <cc:Work
         rdf:about="">
        <dc:format>image/svg+xml</dc:format>
        <dc:type
           rdf:resource="http://purl.org/dc/dcmitype/StillImage" />
      </cc:Work>
    </rdf:RDF>
  </metadata>
  <defs
     id="defs98">
    <clipPath
       clipPathUnits="userSpaceOnUse"
       id="clipPath3620">
      <path
         inkscape:connector-curvature="0"
         style="fill:none;fill-opacity:1;stroke:none"
         d="M 25.99998,-4.9999998e-7 C 11.60263,-4.9999998e-7 -2e-5,11.60265 -2e-5,26 l 0,460 c 0,14.39735 11.60265,26 26,26 l 460.00004,0 c 14.3973,0 26,-11.60265 26,-26 l 0,-460 c 0,-14.397351 -11.6027,-26.0000005 -26,-26.0000005 l -460.00004,0 z"
         id="path3622" />
    </clipPath>
  </defs>
  <path
     id="rect2986"
     d="M 25.99998,-4.9999998e-7 C 11.60263,-4.9999998e-7 -2e-5,11.60265 -2e-5,26 l 0,460 c 0,14.39735 11.60265,26 26,26 l 460.00004,0 c 14.3973,0 26,-11.60265 26,-26 l 0,-460 c 0,-14.397351 -11.6027,-26.0000005 -26,-26.0000005 l -460.00004,0 z"
     style="fill:none;fill-opacity:1;stroke:none"
     inkscape:connector-curvature="0" />
  <g
     transform="matrix(23.27273,0,0,23.27273,-787.52545,-80.271216)"
     id="g3142"
     style="fill:none">
  </g>
  <g
     transform="matrix(23.27273,0,0,23.27273,-787.52545,-80.271216)"
     id="g3162"
     style="fill:#000000">
  </g>
  <g
     transform="matrix(23.27273,0,0,23.27273,-787.52545,-80.271216)"
     id="g3176"
     style="fill:none">
    <g
       id="g3178"
       style="stroke:#cd1d31">
    </g>
  </g>
  <g
     transform="matrix(23.27273,0,0,23.27273,-787.52545,-80.271216)"
     id="g3198"
     style="fill:#000000">
  </g>
  <g
     style="fill:#000000;stroke:none;opacity:0.0"
     id="g3433"
     clip-path="url(#clipPath3620)">
    <path
       inkscape:connector-curvature="0"
       d="m 108.84996,289.30556 c 6.07275,22.66353 17.8096,42.29493 33.28406,57.7694 l 388.90873,388.90873 c -15.47446,-15.47447 -27.21131,-35.10587 -33.28406,-57.7694 z"
       id="path3435"
       style="fill:#000000" />
    <path
       inkscape:connector-curvature="0"
       d="m 142.13402,347.07496 c 31.46971,31.4697 78.39726,45.74738 124.57976,33.37267 l 388.90873,388.90873 c -46.1825,12.37471 -93.11006,-1.90297 -124.57976,-33.37267 z"
       id="path3437"
       style="fill:#000000" />
    <path
       inkscape:connector-curvature="0"
       d="m 266.71378,380.44763 c 4.67577,-1.25289 9.22949,-2.73996 13.63349,-4.45379 L 669.256,764.90257 c -4.404,1.71383 -8.95772,3.2009 -13.63349,4.45379 z"
       id="path3439"
       style="fill:#000000" />
    <path
       inkscape:connector-curvature="0"
       d="M 280.34727,375.99384 295.24846,431.60516 684.15719,820.51389 669.256,764.90257 z"
       id="path3441"
       style="fill:#000000" />
    <path
       inkscape:connector-curvature="0"
       d="m 295.24846,431.60516 c -4.47614,1.55524 -9.04469,2.98697 -13.6928,4.23244 l 388.90873,388.90873 c 4.64811,-1.24547 9.21666,-2.6772 13.6928,-4.23244 z"
       id="path3443"
       style="fill:#000000" />
    <path
       inkscape:connector-curvature="0"
       d="M 281.55566,435.8376 C 214.93442,453.68893 147.07168,433.05113 101.57377,387.55322 L 490.4825,776.46195 c 45.49791,45.49791 113.36065,66.13571 179.98189,48.28438 z"
       id="path3445"
       style="fill:#000000" />
    <path
       inkscape:connector-curvature="0"
       d="M 101.57377,387.55322 C 79.238793,365.21825 62.293384,336.89239 53.530149,304.18795 L 442.43888,693.09668 c 8.76323,32.70444 25.70864,61.0303 48.04362,83.36527 z"
       id="path3447"
       style="fill:#000000" />
    <path
       inkscape:connector-curvature="0"
       d="M 53.530149,304.18795 C 26.915579,204.86227 85.854119,102.77701 185.17979,76.162441 L 574.08852,465.07117 C 474.76285,491.68574 415.82431,593.771 442.43888,693.09668 z"
       id="path3449"
       style="fill:#000000" />
    <path
       inkscape:connector-curvature="0"
       d="m 185.17979,76.162441 c 66.62395,-17.852056 134.48734,2.788498 179.98266,48.283819 L 754.07118,513.35499 C 708.57586,467.85967 640.71247,447.21911 574.08852,465.07117 z"
       id="path3451"
       style="fill:#000000" />
    <path
       inkscape:connector-curvature="0"
       d="m 365.16245,124.44626 c 19.1569,19.1569 34.34786,42.72063 43.81041,69.67302 l 388.90873,388.90873 c -9.46255,-26.95239 -24.65351,-50.51612 -43.81041,-69.67302 z"
       id="path3453"
       style="fill:#000000" />
    <path
       inkscape:connector-curvature="0"
       d="m 408.97286,194.11928 55.88799,-14.97532 388.90873,388.90873 -55.88799,14.97532 z"
       id="path3455"
       style="fill:#000000" />
    <path
       inkscape:connector-curvature="0"
       d="M 464.86085,179.14396 411.513,312.05382 800.42173,700.96255 853.76958,568.05269 z"
       id="path3457"
       style="fill:#000000" />
    <path
       inkscape:connector-curvature="0"
       d="M 411.513,312.05382 298.85693,223.62513 687.76566,612.53386 800.42173,700.96255 z"
       id="path3459"
       style="fill:#000000" />
    <path
       inkscape:connector-curvature="0"
       d="m 298.85693,223.62513 54.58762,-14.62689 388.90873,388.90873 -54.58762,14.62689 z"
       id="path3461"
       style="fill:#000000" />
    <path
       inkscape:connector-curvature="0"
       d="M 353.44455,208.99824 C 346.8375,192.06531 336.91707,177.1853 324.64798,164.91621 l 388.90873,388.90873 c 12.26909,12.26909 22.18951,27.1491 28.79657,44.08203 z"
       id="path3463"
       style="fill:#000000" />
    <path
       inkscape:connector-curvature="0"
       d="M 324.64798,164.91621 C 293.14909,133.41732 246.16967,119.12764 200.03452,131.48967 L 588.94325,520.3984 c 46.13515,-12.36203 93.11457,1.92765 124.61346,33.42654 z"
       id="path3465"
       style="fill:#000000" />
    <path
       inkscape:connector-curvature="0"
       d="M 200.03452,131.48967 C 131.28123,149.91229 90.432769,220.46186 108.89245,289.35348 L 497.80118,678.26221 C 479.3415,609.37059 520.18996,538.82102 588.94325,520.3984 z"
       id="path3467"
       style="fill:#000000" />
  </g>
  <path
     id="path3218"
     d="m 108.84996,289.30556 c 18.42262,68.75329 88.97219,109.60175 157.86382,91.14207 4.67577,-1.25289 9.22949,-2.73996 13.63349,-4.45379 l 14.90119,55.61132 c -4.47614,1.55524 -9.04469,2.98697 -13.6928,4.23244 C 182.22998,462.45217 80.144709,403.51363 53.530149,304.18795 26.915579,204.86227 85.854119,102.77701 185.17979,76.162441 279.85736,50.793348 377.0379,103.15821 408.97286,194.11928 L 464.86085,179.14396 411.513,312.05382 298.85693,223.62513 353.44455,208.99824 c -23.5696,-60.4055 -89.30485,-94.68572 -153.41003,-77.50857 -68.75329,18.42262 -109.601751,88.97219 -91.14207,157.86381"
     inkscape:connector-curvature="0"
     style="fill:#ffffff;stroke:none" />
</svg>
