<?xml version="1.0" encoding="UTF-8" standalone="no"?>
<svg
   xmlns:dc="http://purl.org/dc/elements/1.1/"
   xmlns:cc="http://creativecommons.org/ns#"
   xmlns:rdf="http://www.w3.org/1999/02/22-rdf-syntax-ns#"
   xmlns:svg="http://www.w3.org/2000/svg"
   xmlns="http://www.w3.org/2000/svg"
   xmlns:sodipodi="http://sodipodi.sourceforge.net/DTD/sodipodi-0.dtd"
   xmlns:inkscape="http://www.inkscape.org/namespaces/inkscape"
   viewBox="0 0 512 512"
   id="svg2"
   version="1.1"
   inkscape:version="0.48.5 r10040"
   width="100%"
   height="100%"
   sodipodi:docname="insert-button.svg">
  <sodipodi:namedview
     pagecolor="#ffffff"
     bordercolor="#ffffff"
     borderopacity="1"
     objecttolerance="10"
     gridtolerance="10"
     guidetolerance="10"
     inkscape:pageopacity="0"
     inkscape:pageshadow="2"
     inkscape:window-width="1306"
     inkscape:window-height="715"
     id="namedview94"
     showgrid="false"
     inkscape:zoom="0.4609375"
     inkscape:cx="139.9322"
     inkscape:cy="210.44068"
     inkscape:window-x="56"
     inkscape:window-y="28"
     inkscape:window-maximized="1"
     inkscape:current-layer="svg2" />
  <metadata
     id="metadata98">
    <rdf:RDF>
      <cc:Work
         rdf:about="">
        <dc:format>image/svg+xml</dc:format>
        <dc:type
           rdf:resource="http://purl.org/dc/dcmitype/StillImage" />
      </cc:Work>
    </rdf:RDF>
  </metadata>
  <defs
     id="defs96">
    <clipPath
       clipPathUnits="userSpaceOnUse"
       id="clipPath3446">
      <path
         id="path3448"
         d="m 26,-4e-6 c -14.39735,0 -26,11.602648 -26,26 L 0,486 c 0,14.39735 11.60265,26 26,26 l 460,0 c 14.39735,0 26,-11.60265 26,-26 l 0,-460.000004 c 0,-14.397352 -11.60265,-26 -26,-26 l -460,0 z"
         style="fill:none;fill-opacity:1;stroke:none"
         inkscape:connector-curvature="0" />
    </clipPath>
  </defs>
  <path
     inkscape:connector-curvature="0"
     style="fill:none;fill-opacity:1;stroke:none"
     d="m 26,-4e-6 c -14.39735,0 -26,11.602648 -26,26 L 0,486 c 0,14.39735 11.60265,26 26,26 l 460,0 c 14.39735,0 26,-11.60265 26,-26 l 0,-460.000004 c 0,-14.397352 -11.60265,-26 -26,-26 l -460,0 z"
     id="rect2986" />
  <g
     transform="matrix(23.27167,0,0,23.27167,30.372881,8.6789661)"
     style="fill:none;stroke:#cd1d31"
     id="g60">
  </g>
  <g
     style="fill:#000000;opacity:0.0"
     id="g3204"
     clip-path="url(#clipPath3446)">
    <path
       inkscape:connector-curvature="0"
       d="m 154.95382,69.93453 c -57.757291,0 -103.953819,46.19653 -103.953819,103.95382 L 439.90873,562.79708 c 0,-57.75729 46.19653,-103.95382 103.95382,-103.95382 z"
       id="path3206"
       style="fill:#000000" />
    <path
       inkscape:connector-curvature="0"
       d="m 51.000001,173.88835 0,164.22331 388.908729,388.90873 0,-164.22331 z"
       id="path3208"
       style="fill:#000000" />
    <path
       inkscape:connector-curvature="0"
       d="m 51.000001,338.11166 c 0,28.87864 11.54913,54.86709 30.317921,73.63588 L 470.22665,800.65627 c -18.76879,-18.76879 -30.31792,-44.75724 -30.31792,-73.63588 z"
       id="path3210"
       style="fill:#000000" />
    <path
       inkscape:connector-curvature="0"
       d="m 81.317922,411.74754 c 18.768798,18.7688 44.757248,30.31793 73.635898,30.31793 L 543.86255,830.9742 c -28.87865,0 -54.8671,-11.54913 -73.6359,-30.31793 z"
       id="path3212"
       style="fill:#000000" />
    <path
       inkscape:connector-curvature="0"
       d="m 154.95382,442.06547 202.09237,0 388.90873,388.90873 -202.09237,0 z"
       id="path3214"
       style="fill:#000000" />
    <path
       inkscape:connector-curvature="0"
       d="M 357.04619,442.06547 C 414.80347,442.06547 461,395.86895 461,338.11166 l 388.90873,388.90873 c 0,57.75729 -46.19653,103.95381 -103.95381,103.95381 z"
       id="path3216"
       style="fill:#000000" />
    <path
       inkscape:connector-curvature="0"
       d="m 461,338.11166 0,-164.22331 388.90873,388.90873 0,164.22331 z"
       id="path3218"
       style="fill:#000000" />
    <path
       inkscape:connector-curvature="0"
       d="m 461,173.88835 c 0,-28.87865 -11.54913,-54.8671 -30.31793,-73.6359 L 819.5908,489.16118 c 18.7688,18.7688 30.31793,44.75725 30.31793,73.6359 z"
       id="path3220"
       style="fill:#000000" />
    <path
       inkscape:connector-curvature="0"
       d="M 430.68207,100.25245 C 411.91328,81.483661 385.92483,69.93453 357.04619,69.93453 l 388.90873,388.90873 c 28.87864,0 54.86709,11.54913 73.63588,30.31792 z"
       id="path3222"
       style="fill:#000000" />
    <path
       inkscape:connector-curvature="0"
       d="m 357.04619,69.93453 -202.09237,0 388.90873,388.90873 202.09237,0 z"
       id="path3224"
       style="fill:#000000" />
    <path
       inkscape:connector-curvature="0"
       d="m 180.40145,147.71962 c 20.52117,0 36.28164,5.02888 46.62421,15.37145 L 615.93439,551.9998 c -10.34257,-10.34257 -26.10304,-15.37145 -46.62421,-15.37145 z"
       id="path3226"
       style="fill:#000000" />
    <path
       inkscape:connector-curvature="0"
       d="m 227.02566,163.09107 c 0.20856,0.20856 0.41493,0.41929 0.61908,0.63218 l 388.90873,388.90873 c -0.20415,-0.21289 -0.41052,-0.42362 -0.61908,-0.63218 z"
       id="path3228"
       style="fill:#000000" />
    <path
       inkscape:connector-curvature="0"
       d="m 227.64474,163.72325 c 10.42096,10.76989 15.25927,27.00613 15.25927,48.70873 l 388.90873,388.90873 c 0,-21.7026 -4.83831,-37.93884 -15.25927,-48.70873 z"
       id="path3230"
       style="fill:#000000" />
    <path
       inkscape:connector-curvature="0"
       d="m 242.90401,212.43198 0,86.508 388.90873,388.90873 0,-86.508 z"
       id="path3232"
       style="fill:#000000" />
    <path
       inkscape:connector-curvature="0"
       d="m 242.90401,298.93998 c 0,21.60955 -4.83831,37.77601 -15.25927,48.70872 l 388.90873,388.90873 c 10.42096,-10.93271 15.25927,-27.09917 15.25927,-48.70872 z"
       id="path3234"
       style="fill:#000000" />
    <path
       inkscape:connector-curvature="0"
       d="m 227.64474,347.6487 c -10.42097,10.83967 -26.40135,16.72472 -47.24329,16.72472 l 388.90873,388.90873 c 20.84194,0 36.82232,-5.88505 47.24329,-16.72472 z"
       id="path3236"
       style="fill:#000000" />
    <path
       inkscape:connector-curvature="0"
       d="m 180.40145,364.37342 c -20.31204,0 -35.39496,-5.58821 -45.95416,-16.14741 l 388.90873,388.90873 c 10.5592,10.5592 25.64212,16.14741 45.95416,16.14741 z"
       id="path3238"
       style="fill:#000000" />
    <path
       inkscape:connector-curvature="0"
       d="m 134.44729,348.22601 c -0.19082,-0.19081 -0.38015,-0.38325 -0.56802,-0.57731 L 522.788,736.55743 c 0.18786,0.19406 0.3772,0.3865 0.56802,0.57731 z"
       id="path3240"
       style="fill:#000000" />
    <path
       inkscape:connector-curvature="0"
       d="m 133.87927,347.6487 c -10.51401,-10.93271 -16.00363,-27.16896 -16.00363,-48.70872 l 388.90873,388.90873 c 0,21.53976 5.48962,37.77601 16.00363,48.70872 z"
       id="path3242"
       style="fill:#000000" />
    <path
       inkscape:connector-curvature="0"
       d="m 117.87564,298.93998 0,-86.508 388.90873,388.90873 0,86.508 z"
       id="path3244"
       style="fill:#000000" />
    <path
       inkscape:connector-curvature="0"
       d="m 117.87564,212.43198 c 0,-21.53977 5.48962,-37.1247 16.00363,-47.98763 L 522.788,553.35308 c -10.51401,10.86293 -16.00363,26.44786 -16.00363,47.98763 z"
       id="path3246"
       style="fill:#000000" />
    <path
       inkscape:connector-curvature="0"
       d="m 133.87927,164.44435 c 10.51402,-10.83968 25.75003,-16.72473 46.52218,-16.72473 l 388.90873,388.90873 c -20.77215,0 -36.00816,5.88505 -46.52218,16.72473 z"
       id="path3248"
       style="fill:#000000" />
    <path
       inkscape:connector-curvature="0"
       d="m 265.44401,150.62726 46.52218,0 388.90873,388.90873 -46.52218,0 z"
       id="path3250"
       style="fill:#000000" />
    <path
       inkscape:connector-curvature="0"
       d="m 311.96619,150.62726 0,91.60218 388.90873,388.90873 0,-91.60218 z"
       id="path3252"
       style="fill:#000000" />
    <path
       inkscape:connector-curvature="0"
       d="m 311.96619,242.22944 c 0.34891,-3.41938 1.41892,-6.93181 2.18654,-10.18837 L 703.06146,620.9498 c -0.76762,3.25656 -1.83763,6.76899 -2.18654,10.18837 z"
       id="path3254"
       style="fill:#000000" />
    <path
       inkscape:connector-curvature="0"
       d="m 314.15273,232.04107 c 0.76762,-3.25655 1.07001,-6.46658 2.18654,-9.44399 L 705.248,611.50581 c -1.11653,2.97741 -1.41892,6.18744 -2.18654,9.44399 z"
       id="path3256"
       style="fill:#000000" />
    <path
       inkscape:connector-curvature="0"
       d="M 316.33927,222.59708 343.22909,150.62726 732.13782,539.53599 705.248,611.50581 z"
       id="path3258"
       style="fill:#000000" />
    <path
       inkscape:connector-curvature="0"
       d="m 343.22909,150.62726 50.89528,0 388.90873,388.90873 -50.89528,0 z"
       id="path3260"
       style="fill:#000000" />
    <path
       inkscape:connector-curvature="0"
       d="m 394.12437,150.62726 -42.89346,87.95018 388.90873,388.90873 42.89346,-87.95018 z"
       id="path3262"
       style="fill:#000000" />
    <path
       inkscape:connector-curvature="0"
       d="M 351.23091,238.57744 394.12437,360.69817 783.0331,749.6069 740.13964,627.48617 z"
       id="path3264"
       style="fill:#000000" />
    <path
       inkscape:connector-curvature="0"
       d="m 394.12437,360.69817 -50.15092,0 388.90873,388.90873 50.15092,0 z"
       id="path3266"
       style="fill:#000000" />
    <path
       inkscape:connector-curvature="0"
       d="m 343.97345,360.69817 -21.8189,-77.78508 388.90873,388.90873 21.8189,77.78508 z"
       id="path3268"
       style="fill:#000000" />
    <path
       inkscape:connector-curvature="0"
       d="m 322.15455,282.91309 -10.18836,18.91126 388.90873,388.90873 10.18836,-18.91126 z"
       id="path3270"
       style="fill:#000000" />
    <path
       inkscape:connector-curvature="0"
       d="m 311.96619,301.82435 0,58.87382 388.90873,388.90873 0,-58.87382 z"
       id="path3272"
       style="fill:#000000" />
    <path
       inkscape:connector-curvature="0"
       d="m 311.96619,360.69817 -46.52218,0 388.90873,388.90873 46.52218,0 z"
       id="path3274"
       style="fill:#000000" />
    <path
       inkscape:connector-curvature="0"
       d="m 265.44401,360.69817 0,-210.04765 388.90873,388.90873 0,210.04765 z"
       id="path3276"
       style="fill:#000000" />
    <path
       inkscape:connector-curvature="0"
       d="m 180.40145,185.54216 c -4.95461,0 -8.60659,1.20957 -10.90945,4.37308 l 388.90873,388.90873 c 2.30286,-3.16351 5.95484,-4.37308 10.90945,-4.37308 z"
       id="path3278"
       style="fill:#000000" />
    <path
       inkscape:connector-curvature="0"
       d="m 169.492,189.91524 c -2.30285,3.07047 -3.62873,8.42051 -3.62873,15.25928 L 554.772,594.08325 c 0,-6.83877 1.32588,-12.18881 3.62873,-15.25928 z"
       id="path3280"
       style="fill:#000000" />
    <path
       inkscape:connector-curvature="0"
       d="m 165.86327,205.17452 0,101.76727 388.90873,388.90873 0,-101.76727 z"
       id="path3282"
       style="fill:#000000" />
    <path
       inkscape:connector-curvature="0"
       d="m 165.86327,306.94179 c 0,6.83876 1.32588,11.46773 3.62873,14.53819 l 388.90873,388.90873 c -2.30285,-3.07046 -3.62873,-7.69943 -3.62873,-14.53819 z"
       id="path3284"
       style="fill:#000000" />
    <path
       inkscape:connector-curvature="0"
       d="m 169.492,321.47998 c 0.37896,0.50528 0.78941,0.98221 1.23364,1.42644 l 388.90873,388.90873 c -0.44423,-0.44423 -0.85468,-0.92116 -1.23364,-1.42644 z"
       id="path3286"
       style="fill:#000000" />
    <path
       inkscape:connector-curvature="0"
       d="m 170.72564,322.90642 c 2.25527,2.25526 5.38107,3.66773 9.67581,3.66773 l 388.90873,388.90873 c -4.29474,0 -7.42054,-1.41247 -9.67581,-3.66773 z"
       id="path3288"
       style="fill:#000000" />
    <path
       inkscape:connector-curvature="0"
       d="m 180.40145,326.57415 c 5.04767,0 8.60661,-2.02371 10.90946,-5.09417 l 388.90873,388.90873 c -2.30285,3.07046 -5.86179,5.09417 -10.90946,5.09417 z"
       id="path3290"
       style="fill:#000000" />
    <path
       inkscape:connector-curvature="0"
       d="m 191.31091,321.47998 c 2.30284,-3.07046 3.62873,-7.69943 3.62873,-14.53819 l 388.90873,388.90873 c 0,6.83876 -1.32589,11.46773 -3.62873,14.53819 z"
       id="path3292"
       style="fill:#000000" />
    <path
       inkscape:connector-curvature="0"
       d="m 194.93964,306.94179 0,-101.76727 388.90873,388.90873 0,101.76727 z"
       id="path3294"
       style="fill:#000000" />
    <path
       inkscape:connector-curvature="0"
       d="m 194.93964,205.17452 c 0,-6.83877 -1.23284,-12.18881 -3.62873,-15.25928 l 388.90873,388.90873 c 2.39589,3.07047 3.62873,8.42051 3.62873,15.25928 z"
       id="path3296"
       style="fill:#000000" />
    <path
       inkscape:connector-curvature="0"
       d="m 191.31091,189.91524 c -0.31768,-0.43642 -0.6575,-0.8352 -1.0208,-1.1985 l 388.90873,388.90873 c 0.3633,0.3633 0.70312,0.76208 1.0208,1.1985 z"
       id="path3298"
       style="fill:#000000" />
    <path
       inkscape:connector-curvature="0"
       d="m 190.29011,188.71674 c -2.27019,-2.27019 -5.45713,-3.15453 -9.88866,-3.17458 l 388.90873,388.90873 c 4.43153,0.0201 7.61847,0.90439 9.88866,3.17458 z"
       id="path3300"
       style="fill:#000000" />
  </g>
  <path
     style="fill:#ffffff"
     inkscape:connector-curvature="0"
     id="path10"
     d="m 154.95382,69.93453 c -57.757291,0 -103.953819,46.19653 -103.953819,103.95382 v 164.22331 c 0,57.75729 46.196528,103.95381 103.953819,103.95381 H 357.04619 C 414.80347,442.06547 461,395.86895 461,338.11166 V 173.88835 C 461,116.13106 414.80347,69.93453 357.04619,69.93453 H 154.95382 m 25.44763,77.78509 c 20.93499,0 36.91535,5.23375 47.24329,16.00363 10.42096,10.76989 15.25927,27.00613 15.25927,48.70873 v 86.508 c 0,21.60955 -4.83831,37.77601 -15.25927,48.70872 -10.42097,10.83967 -26.40135,16.72472 -47.24329,16.72472 -20.6791,0 -35.93838,-5.792 -46.52218,-16.72472 -10.51401,-10.93271 -16.00363,-27.16896 -16.00363,-48.70872 v -86.508 c 0,-21.53977 5.48962,-37.1247 16.00363,-47.98763 10.51402,-10.83968 25.75003,-16.72473 46.52218,-16.72473 m 85.04256,2.90764 h 46.52218 v 91.60218 c 0.34891,-3.41938 1.41892,-6.93181 2.18654,-10.18837 0.76762,-3.25655 1.07001,-6.46658 2.18654,-9.44399 l 26.88982,-71.96982 h 50.89528 l -42.89346,87.95018 42.89346,122.12073 h -50.15092 l -21.8189,-77.78508 -10.18836,18.91126 v 58.87382 H 265.44401 V 150.65052 m -85.04256,34.89164 c -4.95461,0 -8.60659,1.20957 -10.90945,4.37308 -2.30285,3.07047 -3.62873,8.42051 -3.62873,15.25928 v 101.76727 c 0,6.83876 1.32588,11.46773 3.62873,14.53819 2.30286,3.07046 5.76875,5.09417 10.90945,5.09417 5.04767,0 8.60661,-2.02371 10.90946,-5.09417 2.30284,-3.07046 3.62873,-7.69943 3.62873,-14.53819 V 205.17452 c 0,-6.83877 -1.23284,-12.18881 -3.62873,-15.25928 -2.30285,-3.16351 -5.76876,-4.34982 -10.90946,-4.37308" />
</svg>
