<?xml version="1.0" encoding="UTF-8" standalone="no"?>
<svg
   xmlns:dc="http://purl.org/dc/elements/1.1/"
   xmlns:cc="http://creativecommons.org/ns#"
   xmlns:rdf="http://www.w3.org/1999/02/22-rdf-syntax-ns#"
   xmlns:svg="http://www.w3.org/2000/svg"
   xmlns="http://www.w3.org/2000/svg"
   xmlns:sodipodi="http://sodipodi.sourceforge.net/DTD/sodipodi-0.dtd"
   xmlns:inkscape="http://www.inkscape.org/namespaces/inkscape"
   viewBox="0 0 512 512"
   id="svg2"
   version="1.1"
   inkscape:version="0.48.5 r10040"
   width="100%"
   height="100%"
   sodipodi:docname="mail.svg">
  <sodipodi:namedview
     pagecolor="#ffffff"
     bordercolor="#ffffff"
     borderopacity="1"
     objecttolerance="10"
     gridtolerance="10"
     guidetolerance="10"
     inkscape:pageopacity="0"
     inkscape:pageshadow="2"
     inkscape:window-width="1306"
     inkscape:window-height="715"
     id="namedview508"
     showgrid="false"
     inkscape:zoom="0.4609375"
     inkscape:cx="167.05085"
     inkscape:cy="193.08475"
     inkscape:window-x="56"
     inkscape:window-y="28"
     inkscape:window-maximized="1"
     inkscape:current-layer="svg2" />
  <metadata
     id="metadata512">
    <rdf:RDF>
      <cc:Work
         rdf:about="">
        <dc:format>image/svg+xml</dc:format>
        <dc:type
           rdf:resource="http://purl.org/dc/dcmitype/StillImage" />
      </cc:Work>
    </rdf:RDF>
  </metadata>
  <defs
     id="defs510">
    <clipPath
       clipPathUnits="userSpaceOnUse"
       id="clipPath3710">
      <path
         inkscape:connector-curvature="0"
         style="fill:none;fill-opacity:1;stroke:none"
         d="M 26,0 C 11.60265,0 0,11.60265 0,25.999998 L 0,486 c 0,14.39735 11.60265,26 26,26 l 460,0 c 14.39735,0 26,-11.60265 26,-26 L 512,25.999998 C 512,11.60265 500.39735,0 486,0 L 26,0 z"
         id="path3712" />
    </clipPath>
  </defs>
  <path
     id="rect2986"
     d="M 26,0 C 11.60265,0 0,11.60265 0,25.999998 L 0,486 c 0,14.39735 11.60265,26 26,26 l 460,0 c 14.39735,0 26,-11.60265 26,-26 L 512,25.999998 C 512,11.60265 500.39735,0 486,0 L 26,0 z"
     style="fill:none;fill-opacity:1;stroke:none"
     inkscape:connector-curvature="0" />
  <g
     style="fill:none"
     id="g20"
     transform="matrix(23.273398,0,0,23.273398,-0.017,6.29e-5)">
  </g>
  <g
     id="g40"
     transform="matrix(23.273398,0,0,23.273398,-0.017,6.29e-5)">
    <g
       id="g42">
    </g>
    <g
       style="fill:none"
       id="g56">
      <g
         style="stroke:#cd1d31"
         id="g58">
      </g>
    </g>
    <g
       style="fill:#000000"
       id="g78">
    </g>
  </g>
  <g
     style="fill:none"
     id="g104"
     transform="matrix(23.273398,0,0,23.273398,-0.017,6.29e-5)">
  </g>
  <g
     id="g124"
     transform="matrix(23.273398,0,0,23.273398,-0.017,6.29e-5)">
    <g
       id="g126">
    </g>
    <g
       style="fill:none"
       id="g140">
      <g
         style="stroke:#cd1d31"
         id="g142">
      </g>
    </g>
    <g
       style="fill:#000000"
       id="g162">
    </g>
  </g>
  <g
     style="line-height:125%;letter-spacing:0;word-spacing:0;font-family:Gentium Book Basic"
     id="g218"
     word-spacing="0"
     line-height="125%"
     letter-spacing="0"
     transform="matrix(23.273398,0,0,23.273398,-0.017,6.29e-5)">
  </g>
  <g
     style="line-height:125%;letter-spacing:0;word-spacing:0;font-family:Gentium Book Basic"
     id="g266"
     word-spacing="0"
     line-height="125%"
     letter-spacing="0"
     transform="matrix(23.273398,0,0,23.273398,-0.017,6.29e-5)">
  </g>
  <g
     style="fill:none"
     id="g276"
     transform="matrix(23.273398,0,0,23.273398,-0.017,6.29e-5)">
  </g>
  <g
     style="font-size:208.33000183px;line-height:125%;letter-spacing:0;word-spacing:0;font-family:Gentium Book Basic"
     id="g352"
     word-spacing="0"
     line-height="125%"
     letter-spacing="0"
     font-size="208.33"
     transform="matrix(23.273398,0,0,23.273398,-0.017,6.29e-5)">
  </g>
  <g
     style="fill:none"
     id="g370"
     transform="matrix(23.273398,0,0,23.273398,-0.017,6.29e-5)">
  </g>
  <g
     id="g390"
     transform="matrix(23.273398,0,0,23.273398,-0.017,6.29e-5)">
    <g
       id="g392">
    </g>
    <g
       style="fill:none"
       id="g406">
      <g
         style="stroke:#cd1d31"
         id="g408">
      </g>
    </g>
  </g>
  <g
     style="fill:#000000;opacity:0.0"
     id="g3429"
     clip-path="url(#clipPath3710)">
    <path
       inkscape:connector-curvature="0"
       d="M 304.45322,255.22527 439.22484,405.97579 828.13357,794.88452 693.36195,644.134 z"
       id="path3431"
       style="fill:#000000" />
    <path
       inkscape:connector-curvature="0"
       d="m 439.22484,405.97579 -366.481955,0 388.908725,388.90873 366.48196,0 z"
       id="path3433"
       style="fill:#000000" />
    <path
       inkscape:connector-curvature="0"
       d="M 72.742885,405.97579 207.5145,255.22527 596.42323,644.134 461.65161,794.88452 z"
       id="path3435"
       style="fill:#000000" />
    <path
       inkscape:connector-curvature="0"
       d="M 207.5145,255.22527 255.98924,297.62049 644.89797,686.52922 596.42323,644.134 z"
       id="path3437"
       style="fill:#000000" />
    <path
       inkscape:connector-curvature="0"
       d="M 255.98924,297.62049 304.44246,255.22527 693.35119,644.134 644.89797,686.52922 z"
       id="path3439"
       style="fill:#000000" />
    <path
       inkscape:connector-curvature="0"
       d="m 436.99748,106.02421 -362.027232,0 388.908732,388.90873 362.02723,0 z"
       id="path3441"
       style="fill:#000000" />
    <path
       inkscape:connector-curvature="0"
       d="M 74.970248,106.02421 256,264.42524 644.90873,653.33397 463.87898,494.93294 z"
       id="path3443"
       style="fill:#000000" />
    <path
       inkscape:connector-curvature="0"
       d="M 256,264.42524 436.99748,106.02421 825.90621,494.93294 644.90873,653.33397 z"
       id="path3445"
       style="fill:#000000" />
    <path
       inkscape:connector-curvature="0"
       d="M 323.27282,238.77291 456,387.27454 844.90873,776.18327 712.18155,627.68164 z"
       id="path3447"
       style="fill:#000000" />
    <path
       inkscape:connector-curvature="0"
       d="m 456,387.27454 0,-264.64733 388.90873,388.90873 0,264.64733 z"
       id="path3449"
       style="fill:#000000" />
    <path
       inkscape:connector-curvature="0"
       d="M 456,122.62721 323.27282,238.77291 712.18155,627.68164 844.90873,511.53594 z"
       id="path3451"
       style="fill:#000000" />
    <path
       inkscape:connector-curvature="0"
       d="m 56,122.62721 0,264.64733 388.90873,388.90873 0,-264.64733 z"
       id="path3453"
       style="fill:#000000" />
    <path
       inkscape:connector-curvature="0"
       d="M 56,387.27454 188.70566,238.75138 577.61439,627.66011 444.90873,776.18327 z"
       id="path3455"
       style="fill:#000000" />
    <path
       inkscape:connector-curvature="0"
       d="M 188.70566,238.75138 56,122.62721 444.90873,511.53594 577.61439,627.66011 z"
       id="path3457"
       style="fill:#000000" />
  </g>
  <path
     style="fill:#ffffff"
     inkscape:connector-curvature="0"
     id="path506"
     d="M 304.45322,255.22527 439.22484,405.97579 H 72.742885 L 207.5145,255.22527 l 48.47474,42.39522 48.45322,-42.39522 M 436.99748,106.02421 H 74.970248 L 256,264.42524 436.99748,106.02421 M 323.27282,238.77291 456,387.27454 V 122.62721 L 323.27282,238.77291 M 56,122.62721 V 387.27454 L 188.70566,238.75138 56,122.62721" />
</svg>
