<?xml version="1.0" encoding="UTF-8" standalone="no"?>
<svg
   xmlns:dc="http://purl.org/dc/elements/1.1/"
   xmlns:cc="http://creativecommons.org/ns#"
   xmlns:rdf="http://www.w3.org/1999/02/22-rdf-syntax-ns#"
   xmlns:svg="http://www.w3.org/2000/svg"
   xmlns="http://www.w3.org/2000/svg"
   xmlns:sodipodi="http://sodipodi.sourceforge.net/DTD/sodipodi-0.dtd"
   xmlns:inkscape="http://www.inkscape.org/namespaces/inkscape"
   viewBox="0 0 512 512"
   id="svg2"
   version="1.1"
   inkscape:version="0.48.5 r10040"
   width="100%"
   height="100%"
   sodipodi:docname="network-connect.svg">
  <sodipodi:namedview
     pagecolor="#ffffff"
     bordercolor="#ffffff"
     borderopacity="1"
     objecttolerance="10"
     gridtolerance="10"
     guidetolerance="10"
     inkscape:pageopacity="0"
     inkscape:pageshadow="2"
     inkscape:window-width="1306"
     inkscape:window-height="715"
     id="namedview94"
     showgrid="false"
     inkscape:zoom="0.4609375"
     inkscape:cx="406.77966"
     inkscape:cy="173.55932"
     inkscape:window-x="56"
     inkscape:window-y="28"
     inkscape:window-maximized="1"
     inkscape:current-layer="svg2" />
  <metadata
     id="metadata98">
    <rdf:RDF>
      <cc:Work
         rdf:about="">
        <dc:format>image/svg+xml</dc:format>
        <dc:type
           rdf:resource="http://purl.org/dc/dcmitype/StillImage" />
      </cc:Work>
    </rdf:RDF>
  </metadata>
  <defs
     id="defs96">
    <clipPath
       clipPathUnits="userSpaceOnUse"
       id="clipPath3492">
      <path
         id="path3494"
         d="M 26.000001,0 C 11.602641,0 5.0000006e-7,11.60264 5.0000006e-7,26 l 0,460 C 5.0000006e-7,500.39735 11.602641,512 26.000001,512 L 486,512 c 14.39735,0 26,-11.60265 26,-26 L 512,26 C 512,11.60264 500.39735,0 486,0 L 26.000001,0 z"
         style="fill:none;fill-opacity:1;stroke:none"
         inkscape:connector-curvature="0" />
    </clipPath>
  </defs>
  <path
     inkscape:connector-curvature="0"
     style="fill:none;fill-opacity:1;stroke:none"
     d="M 26.000001,0 C 11.602641,0 5.0000006e-7,11.60264 5.0000006e-7,26 l 0,460 C 5.0000006e-7,500.39735 11.602641,512 26.000001,512 L 486,512 c 14.39735,0 26,-11.60265 26,-26 L 512,26 C 512,11.60264 500.39735,0 486,0 L 26.000001,0 z"
     id="rect2986" />
  <g
     style="fill:#000000;opacity:0.0"
     id="g3211"
     clip-path="url(#clipPath3492)">
    <path
       inkscape:connector-curvature="0"
       d="m 69.507623,455.5774 c -0.849958,-0.175 -2.349896,-0.49999 -3.299865,-0.69997 L 455.11649,843.78616 c 0.94997,0.19998 2.4499,0.52497 3.29986,0.69997 z"
       id="path3213"
       style="fill:#000000" />
    <path
       inkscape:connector-curvature="0"
       d="m 66.207758,454.87743 c -1.391056,-0.2884 -4.082948,-2.28053 -6.068035,-4.26561 L 449.04845,839.52055 c 1.98509,1.98508 4.67698,3.97721 6.06804,4.26561 z"
       id="path3215"
       style="fill:#000000" />
    <path
       inkscape:connector-curvature="0"
       d="m 60.139723,450.61182 c -0.940206,-0.94021 -1.721855,-1.87884 -2.131632,-2.63411 L 446.91682,836.88644 c 0.40978,0.75527 1.19143,1.6939 2.13163,2.63411 z"
       id="path3217"
       style="fill:#000000" />
    <path
       inkscape:connector-curvature="0"
       d="m 58.008091,447.97771 c -1.57493,-2.92489 -2.099914,-7.77468 -1.249945,-11.42453 L 445.66688,825.46191 c -0.84997,3.64985 -0.32499,8.49964 1.24994,11.42453 z"
       id="path3219"
       style="fill:#000000" />
    <path
       inkscape:connector-curvature="0"
       d="m 56.758146,436.55318 c 0.774966,-3.24987 3.799841,-6.49974 38.748419,-41.5733 L 484.41529,783.88861 c -34.94857,35.07356 -37.97345,38.32343 -38.74841,41.5733 z"
       id="path3221"
       style="fill:#000000" />
    <path
       inkscape:connector-curvature="0"
       d="M 95.506565,394.97988 133.43,356.93143 522.33873,745.84016 484.41529,783.88861 z"
       id="path3223"
       style="fill:#000000" />
    <path
       inkscape:connector-curvature="0"
       d="m 133.43,356.93143 -1.62493,-2.29991 388.90873,388.90873 1.62493,2.29991 z"
       id="path3225"
       style="fill:#000000" />
    <path
       inkscape:connector-curvature="0"
       d="m 131.80507,354.63152 c -0.89996,-1.24994 -3.04987,-5.12479 -4.7748,-8.57465 L 515.939,734.9656 c 1.72493,3.44986 3.87484,7.32471 4.7748,8.57465 z"
       id="path3227"
       style="fill:#000000" />
    <path
       inkscape:connector-curvature="0"
       d="m 127.03027,346.05687 c -12.42449,-24.89897 -12.52449,-53.42281 -0.24999,-78.0218 L 515.68901,656.9438 c -12.2745,24.59899 -12.1745,53.12283 0.24999,78.0218 z"
       id="path3229"
       style="fill:#000000" />
    <path
       inkscape:connector-curvature="0"
       d="m 126.78028,268.03507 c 5.14979,-10.34958 9.8746,-16.29934 25.34896,-32.0737 L 541.03797,624.8701 c -15.47436,15.77436 -20.19917,21.72412 -25.34896,32.0737 z"
       id="path3231"
       style="fill:#000000" />
    <path
       inkscape:connector-curvature="0"
       d="m 152.12924,235.96137 15.37438,-15.64936 388.90873,388.90873 -15.37438,15.64936 z"
       id="path3233"
       style="fill:#000000" />
    <path
       inkscape:connector-curvature="0"
       d="m 167.50362,220.31201 -8.17467,-8.34966 388.90873,388.90873 8.17467,8.34966 z"
       id="path3235"
       style="fill:#000000" />
    <path
       inkscape:connector-curvature="0"
       d="m 159.32895,211.96235 c -8.87464,-9.07462 -10.47458,-11.77451 -10.47458,-17.82427 L 537.7631,583.04681 c 0,6.04976 1.59994,8.74965 10.47458,17.82427 z"
       id="path3237"
       style="fill:#000000" />
    <path
       inkscape:connector-curvature="0"
       d="m 148.85437,194.13808 c 0,-12.42449 13.29946,-19.07421 23.64904,-11.82451 L 561.41214,571.2223 c -10.34958,-7.2497 -23.64904,-0.59998 -23.64904,11.82451 z"
       id="path3239"
       style="fill:#000000" />
    <path
       inkscape:connector-curvature="0"
       d="m 172.50341,182.31357 c 1.62597,1.13595 30.67812,29.837 67.14074,66.29962 L 628.55287,637.52192 C 592.09026,601.0593 563.03811,572.35825 561.41214,571.2223 z"
       id="path3241"
       style="fill:#000000" />
    <path
       inkscape:connector-curvature="0"
       d="m 239.64415,248.61319 c 4.46159,4.46159 9.03413,9.03938 13.68095,13.69711 l 388.90873,388.90873 c -4.64682,-4.65773 -9.21936,-9.23552 -13.68096,-13.69711 z"
       id="path3243"
       style="fill:#000000" />
    <path
       inkscape:connector-curvature="0"
       d="m 253.3251,262.3103 c 72.69704,72.87201 77.57183,77.89681 78.4968,81.39667 L 720.73063,732.6157 c -0.92497,-3.49986 -5.79976,-8.52466 -78.4968,-81.39667 z"
       id="path3245"
       style="fill:#000000" />
    <path
       inkscape:connector-curvature="0"
       d="m 331.8219,343.70697 c 2.72489,10.19958 -3.74985,19.22422 -13.92443,19.4742 L 706.8062,752.0899 c 10.17458,-0.24998 16.64932,-9.27462 13.92443,-19.4742 z"
       id="path3247"
       style="fill:#000000" />
    <path
       inkscape:connector-curvature="0"
       d="m 317.89747,363.18117 c -5.59978,0.125 -8.97463,-1.87492 -18.09926,-10.77456 l 388.90873,388.90873 c 9.12463,8.89964 12.49948,10.89956 18.09926,10.77456 z"
       id="path3249"
       style="fill:#000000" />
    <path
       inkscape:connector-curvature="0"
       d="m 299.79821,352.40661 -8.19967,-7.97467 388.90873,388.90873 8.19967,7.97467 z"
       id="path3251"
       style="fill:#000000" />
    <path
       inkscape:connector-curvature="0"
       d="m 291.59854,344.43194 -15.64936,15.37437 388.90873,388.90873 15.64936,-15.37437 z"
       id="path3253"
       style="fill:#000000" />
    <path
       inkscape:connector-curvature="0"
       d="m 275.94918,359.80631 c -15.74936,15.47437 -21.72411,20.17418 -32.07369,25.34896 L 632.78422,774.064 c 10.34958,-5.17478 16.32433,-9.87459 32.07369,-25.34896 z"
       id="path3255"
       style="fill:#000000" />
    <path
       inkscape:connector-curvature="0"
       d="m 243.87549,385.15527 c -24.59899,12.2745 -53.12283,12.1745 -78.02181,-0.24999 l 388.90873,388.90873 c 24.89898,12.42449 53.42282,12.52449 78.02181,0.24999 z"
       id="path3257"
       style="fill:#000000" />
    <path
       inkscape:connector-curvature="0"
       d="m 165.85368,384.90528 c -3.44986,-1.72492 -7.3247,-3.87483 -8.57464,-4.7748 l 388.90873,388.90873 c 1.24994,0.89997 5.12478,3.04988 8.57464,4.7748 z"
       id="path3259"
       style="fill:#000000" />
    <path
       inkscape:connector-curvature="0"
       d="m 157.27904,380.13048 -2.29992,-1.62493 388.90873,388.90873 2.29992,1.62493 z"
       id="path3261"
       style="fill:#000000" />
    <path
       inkscape:connector-curvature="0"
       d="M 154.97912,378.50555 116.93068,416.404 505.83941,805.31273 543.88785,767.41428 z"
       id="path3263"
       style="fill:#000000" />
    <path
       inkscape:connector-curvature="0"
       d="M 116.93068,416.404 C 84.407019,448.80267 78.407265,454.42744 75.657371,455.22741 L 464.5661,844.13614 c 2.74989,-0.79997 8.74965,-6.42474 41.27331,-38.82341 z"
       id="path3265"
       style="fill:#000000" />
    <path
       inkscape:connector-curvature="0"
       d="m 75.657371,455.22741 c -3.324862,0.94997 -3.549848,0.94997 -6.174745,0.39998 L 458.39136,844.53612 c 2.62489,0.54999 2.84988,0.54999 6.17474,-0.39998 z"
       id="path3267"
       style="fill:#000000" />
    <path
       inkscape:connector-curvature="0"
       d="m 343.9714,332.00745 c -0.84997,-0.22499 -2.97488,-1.37495 -4.69981,-2.5749 l 388.90873,388.90873 c 1.72493,1.19995 3.84984,2.34991 4.69981,2.5749 z"
       id="path3269"
       style="fill:#000000" />
    <path
       inkscape:connector-curvature="0"
       d="m 339.27159,329.43255 c -1.51524,-1.05408 -29.68987,-28.92188 -65.40948,-64.64148 L 662.77084,653.6998 c 35.71961,35.7196 63.89424,63.5874 65.40948,64.64148 z"
       id="path3271"
       style="fill:#000000" />
    <path
       inkscape:connector-curvature="0"
       d="m 273.86211,264.79107 c -4.94313,-4.94314 -10.03076,-10.03664 -15.21222,-15.23026 l 388.90873,388.90873 c 5.18146,5.19362 10.26909,10.28712 15.21222,15.23026 z"
       id="path3273"
       style="fill:#000000" />
    <path
       inkscape:connector-curvature="0"
       d="M 258.64989,249.56081 C 185.95286,176.6888 181.07806,171.664 180.15309,168.16415 l 388.90873,388.90873 c 0.92497,3.49985 5.79977,8.52465 78.4968,81.39666 z"
       id="path3275"
       style="fill:#000000" />
    <path
       inkscape:connector-curvature="0"
       d="m 180.15309,168.16415 c -2.72488,-10.19959 3.74985,-19.22422 13.92443,-19.4742 l 388.90873,388.90873 c -10.17458,0.24998 -16.64931,9.27461 -13.92443,19.4742 z"
       id="path3277"
       style="fill:#000000" />
    <path
       inkscape:connector-curvature="0"
       d="m 194.07752,148.68995 c 5.59978,-0.125 8.97464,1.87492 18.09926,10.77455 l 388.90873,388.90873 c -9.12462,-8.89963 -12.49948,-10.89955 -18.09926,-10.77455 z"
       id="path3279"
       style="fill:#000000" />
    <path
       inkscape:connector-curvature="0"
       d="m 212.17678,159.4645 8.19967,7.97468 388.90873,388.90873 -8.19967,-7.97468 z"
       id="path3281"
       style="fill:#000000" />
    <path
       inkscape:connector-curvature="0"
       d="m 220.37645,167.43918 15.64937,-15.37438 388.90873,388.90873 -15.64937,15.37438 z"
       id="path3283"
       style="fill:#000000" />
    <path
       inkscape:connector-curvature="0"
       d="m 236.02582,152.0648 c 15.74935,-15.47436 21.72411,-20.17417 32.07368,-25.34896 l 388.90873,388.90873 c -10.34957,5.17479 -16.32433,9.8746 -32.07368,25.34896 z"
       id="path3285"
       style="fill:#000000" />
    <path
       inkscape:connector-curvature="0"
       d="m 268.0995,126.71584 c 24.59899,-12.27449 53.12283,-12.17451 78.02181,0.24999 l 388.90873,388.90873 c -24.89898,-12.4245 -53.42282,-12.52448 -78.02181,-0.24999 z"
       id="path3287"
       style="fill:#000000" />
    <path
       inkscape:connector-curvature="0"
       d="m 346.12131,126.96583 c 3.44986,1.72493 7.3247,3.87484 8.57465,4.7748 l 388.90873,388.90873 c -1.24995,-0.89996 -5.12479,-3.04987 -8.57465,-4.7748 z"
       id="path3289"
       style="fill:#000000" />
    <path
       inkscape:connector-curvature="0"
       d="m 354.69596,131.74063 2.29991,1.62494 388.90873,388.90873 -2.29991,-1.62494 z"
       id="path3291"
       style="fill:#000000" />
    <path
       inkscape:connector-curvature="0"
       d="M 356.99587,133.36557 395.04431,95.467114 783.95304,484.37584 745.9046,522.2743 z"
       id="path3293"
       style="fill:#000000" />
    <path
       inkscape:connector-curvature="0"
       d="m 395.04431,95.467114 c 32.92366,-32.798662 38.49843,-38.02345 41.34831,-38.823413 L 825.30135,445.55243 c -2.84988,0.79996 -8.42465,6.02475 -41.34831,38.82341 z"
       id="path3295"
       style="fill:#000000" />
    <path
       inkscape:connector-curvature="0"
       d="m 436.39262,56.643701 c 1.79993,-0.524984 4.09984,-0.774977 5.07479,-0.574979 L 830.37614,444.97745 c -0.97495,-0.2 -3.27486,0.05 -5.07479,0.57498 z"
       id="path3297"
       style="fill:#000000" />
    <path
       inkscape:connector-curvature="0"
       d="m 441.46741,56.068722 c 0.97497,0.199989 2.74989,0.574979 3.92484,0.824961 L 834.30098,445.80241 c -1.17495,-0.24998 -2.94987,-0.62497 -3.92484,-0.82496 z"
       id="path3299"
       style="fill:#000000" />
    <path
       inkscape:connector-curvature="0"
       d="m 445.39225,56.893683 c 1.64265,0.345826 4.4693,2.342081 6.5112,4.383976 L 840.81218,450.18639 c -2.0419,-2.0419 -4.86855,-4.03815 -6.5112,-4.38398 z"
       id="path3301"
       style="fill:#000000" />
    <path
       inkscape:connector-curvature="0"
       d="m 451.90345,61.277659 c 0.91023,0.91023 1.66451,1.82953 2.08845,2.615741 l 388.90873,388.90873 c -0.42394,-0.78621 -1.17822,-1.70551 -2.08845,-2.61574 z"
       id="path3303"
       style="fill:#000000" />
    <path
       inkscape:connector-curvature="0"
       d="m 453.9919,63.8934 c 1.57493,2.924885 2.09992,7.774683 1.24995,11.424529 L 844.15058,464.22666 c 0.84997,-3.64985 0.32498,-8.49965 -1.24995,-11.42453 z"
       id="path3305"
       style="fill:#000000" />
    <path
       inkscape:connector-curvature="0"
       d="m 455.24185,75.317929 c -0.77497,3.24987 -3.79984,6.499741 -38.74842,41.573311 l 388.90873,388.90873 c 34.94858,-35.07357 37.97345,-38.32344 38.74842,-41.57331 z"
       id="path3307"
       style="fill:#000000" />
    <path
       inkscape:connector-curvature="0"
       d="m 416.49343,116.89124 -37.92344,38.04844 388.90873,388.90873 37.92344,-38.04844 z"
       id="path3309"
       style="fill:#000000" />
    <path
       inkscape:connector-curvature="0"
       d="m 378.56999,154.93968 1.62493,2.29992 388.90873,388.90873 -1.62493,-2.29992 z"
       id="path3311"
       style="fill:#000000" />
    <path
       inkscape:connector-curvature="0"
       d="m 380.19492,157.2396 c 0.89996,1.24994 3.04987,5.12479 4.77481,8.57464 l 388.90873,388.90873 c -1.72494,-3.44985 -3.87485,-7.3247 -4.77481,-8.57464 z"
       id="path3313"
       style="fill:#000000" />
    <path
       inkscape:connector-curvature="0"
       d="m 384.96973,165.81424 c 12.42449,24.89898 12.52448,53.42282 0.24998,78.02181 l 388.90873,388.90873 c 12.2745,-24.59899 12.17451,-53.12283 -0.24998,-78.02181 z"
       id="path3315"
       style="fill:#000000" />
    <path
       inkscape:connector-curvature="0"
       d="m 385.21971,243.83605 c -5.14979,10.34958 -9.8746,16.29934 -25.34896,32.07369 l 388.90873,388.90873 c 15.47436,-15.77435 20.19917,-21.72411 25.34896,-32.07369 z"
       id="path3317"
       style="fill:#000000" />
    <path
       inkscape:connector-curvature="0"
       d="m 359.87075,275.90974 -15.37437,15.64936 388.90873,388.90873 15.37437,-15.64936 z"
       id="path3319"
       style="fill:#000000" />
    <path
       inkscape:connector-curvature="0"
       d="m 344.49638,291.5591 8.17467,8.34966 388.90873,388.90873 -8.17467,-8.34966 z"
       id="path3321"
       style="fill:#000000" />
    <path
       inkscape:connector-curvature="0"
       d="m 352.67105,299.90876 c 4.49981,4.59981 8.67464,9.59961 9.32461,11.09955 l 388.90873,388.90873 c -0.64997,-1.49994 -4.8248,-6.49974 -9.32461,-11.09955 z"
       id="path3323"
       style="fill:#000000" />
    <path
       inkscape:connector-curvature="0"
       d="m 361.99566,311.00831 c 2.3999,5.72476 0.84997,14.07442 -3.29986,17.82427 l 388.90873,388.90873 c 4.14983,-3.74985 5.69976,-12.09951 3.29986,-17.82427 z"
       id="path3325"
       style="fill:#000000" />
    <path
       inkscape:connector-curvature="0"
       d="m 358.6958,328.83258 c -3.39987,3.07487 -9.72461,4.42481 -14.7244,3.17487 l 388.90873,388.90873 c 4.99979,1.24994 11.32453,-0.1 14.7244,-3.17487 z"
       id="path3327"
       style="fill:#000000" />
  </g>
  <path
     style="fill:#ffffff"
     inkscape:connector-curvature="0"
     id="path92"
     d="m 69.507623,455.5774 c -0.849958,-0.175 -2.349896,-0.49999 -3.299865,-0.69997 -2.049908,-0.42499 -6.924714,-4.54981 -8.199667,-6.89972 -1.57493,-2.92489 -2.099914,-7.77468 -1.249945,-11.42453 0.774966,-3.24987 3.799841,-6.49974 38.748419,-41.5733 L 133.43,356.93143 l -1.62493,-2.29991 c -0.89996,-1.24994 -3.04987,-5.12479 -4.7748,-8.57465 -12.42449,-24.89897 -12.52449,-53.42281 -0.24999,-78.0218 5.14979,-10.34958 9.8746,-16.29934 25.34896,-32.0737 l 15.37438,-15.64936 -8.17467,-8.34966 c -8.87464,-9.07462 -10.47458,-11.77451 -10.47458,-17.82427 0,-12.42449 13.29946,-19.07421 23.64904,-11.82451 1.82493,1.27495 38.19843,37.27347 80.82169,79.99673 72.69704,72.87201 77.57183,77.89681 78.4968,81.39667 2.72489,10.19958 -3.74985,19.22422 -13.92443,19.4742 -5.59978,0.125 -8.97463,-1.87492 -18.09926,-10.77456 l -8.19967,-7.97467 -15.64936,15.37437 c -15.74936,15.47437 -21.72411,20.17418 -32.07369,25.34896 -24.59899,12.2745 -53.12283,12.1745 -78.02181,-0.24999 -3.44986,-1.72492 -7.3247,-3.87483 -8.57464,-4.7748 l -2.29992,-1.62493 -38.04844,37.89845 c -32.523661,32.39867 -38.523415,38.02344 -41.273309,38.82341 -3.324862,0.94997 -3.549848,0.94997 -6.174745,0.39998 M 343.9714,332.00745 c -0.84997,-0.22499 -2.97488,-1.37495 -4.69981,-2.5749 -1.72493,-1.19995 -37.99844,-37.14848 -80.6217,-79.87174 -72.69703,-72.87201 -77.57183,-77.89681 -78.4968,-81.39666 -2.72488,-10.19959 3.74985,-19.22422 13.92443,-19.4742 5.59978,-0.125 8.97464,1.87492 18.09926,10.77455 l 8.19967,7.97468 15.64937,-15.37438 c 15.74935,-15.47436 21.72411,-20.17417 32.07368,-25.34896 24.59899,-12.27449 53.12283,-12.17451 78.02181,0.24999 3.44986,1.72493 7.3247,3.87484 8.57465,4.7748 l 2.29991,1.62494 38.04844,-37.898456 c 32.92366,-32.798662 38.49843,-38.02345 41.34831,-38.823413 1.79993,-0.524984 4.09984,-0.774977 5.07479,-0.574979 0.97497,0.199989 2.74989,0.574979 3.92484,0.824961 2.3749,0.499987 7.22471,4.449821 8.59965,6.999717 1.57493,2.924885 2.09992,7.774683 1.24995,11.424529 -0.77497,3.24987 -3.79984,6.499741 -38.74842,41.573311 l -37.92344,38.04844 1.62493,2.29992 c 0.89996,1.24994 3.04987,5.12479 4.77481,8.57464 12.42449,24.89898 12.52448,53.42282 0.24998,78.02181 -5.14979,10.34958 -9.8746,16.29934 -25.34896,32.07369 l -15.37437,15.64936 8.17467,8.34966 c 4.49981,4.59981 8.67464,9.59961 9.32461,11.09955 2.3999,5.72476 0.84997,14.07442 -3.29986,17.82427 -3.39987,3.07487 -9.72461,4.42481 -14.7244,3.17487" />
</svg>
