<?xml version="1.0" encoding="UTF-8" standalone="no"?>
<svg
   xmlns:dc="http://purl.org/dc/elements/1.1/"
   xmlns:cc="http://creativecommons.org/ns#"
   xmlns:rdf="http://www.w3.org/1999/02/22-rdf-syntax-ns#"
   xmlns:svg="http://www.w3.org/2000/svg"
   xmlns="http://www.w3.org/2000/svg"
   xmlns:sodipodi="http://sodipodi.sourceforge.net/DTD/sodipodi-0.dtd"
   xmlns:inkscape="http://www.inkscape.org/namespaces/inkscape"
   viewBox="0 0 512 512"
   id="svg2"
   version="1.1"
   inkscape:version="0.48.5 r10040"
   width="100%"
   height="100%"
   sodipodi:docname="view-file-columns.svg">
  <sodipodi:namedview
     pagecolor="#ffffff"
     bordercolor="#ffffff"
     borderopacity="1"
     objecttolerance="10"
     gridtolerance="10"
     guidetolerance="10"
     inkscape:pageopacity="0"
     inkscape:pageshadow="2"
     inkscape:window-width="1306"
     inkscape:window-height="715"
     id="namedview182"
     showgrid="false"
     inkscape:zoom="0.4609375"
     inkscape:cx="-11.932203"
     inkscape:cy="256"
     inkscape:window-x="56"
     inkscape:window-y="28"
     inkscape:window-maximized="1"
     inkscape:current-layer="svg2" />
  <metadata
     id="metadata186">
    <rdf:RDF>
      <cc:Work
         rdf:about="">
        <dc:format>image/svg+xml</dc:format>
        <dc:type
           rdf:resource="http://purl.org/dc/dcmitype/StillImage" />
      </cc:Work>
    </rdf:RDF>
  </metadata>
  <defs
     id="defs184">
    <clipPath
       clipPathUnits="userSpaceOnUse"
       id="clipPath3497">
      <path
         id="path3499"
         d="m 26.000002,-1.5e-6 c -14.39735,0 -26,11.6026485 -26,26.0000005 L 2e-6,486 c 0,14.39735 11.60265,26 26,26 L 486,512 c 14.39735,0 26,-11.60265 26,-26 L 512,25.999999 C 512,11.602647 500.39735,-1.5e-6 486,-1.5e-6 l -459.999998,0 z"
         style="fill:none;fill-opacity:1;stroke:none"
         inkscape:connector-curvature="0" />
    </clipPath>
  </defs>
  <path
     inkscape:connector-curvature="0"
     style="fill:none;fill-opacity:1;stroke:none"
     d="m 26.000002,-1.5e-6 c -14.39735,0 -26,11.6026485 -26,26.0000005 L 2e-6,486 c 0,14.39735 11.60265,26 26,26 L 486,512 c 14.39735,0 26,-11.60265 26,-26 L 512,25.999999 C 512,11.602647 500.39735,-1.5e-6 486,-1.5e-6 l -459.999998,0 z"
     id="rect2986" />
  <g
     transform="scale(23.27273,23.27273)"
     id="g22"
     style="fill:none">
  </g>
  <g
     transform="scale(23.27273,23.27273)"
     id="g42"
     style="fill:#000000">
  </g>
  <g
     transform="scale(23.27273,23.27273)"
     id="g56"
     style="fill:none">
    <g
       id="g58"
       style="stroke:#cd1d31">
    </g>
  </g>
  <g
     transform="scale(23.27273,23.27273)"
     id="g78"
     style="fill:#000000">
  </g>
  <g
     transform="scale(23.27273,23.27273)"
     id="g104"
     style="fill:none">
  </g>
  <g
     transform="scale(23.27273,23.27273)"
     id="g124"
     style="fill:#000000">
  </g>
  <g
     transform="scale(23.27273,23.27273)"
     id="g138"
     style="fill:none">
    <g
       id="g140"
       style="stroke:#cd1d31">
    </g>
  </g>
  <g
     transform="scale(23.27273,23.27273)"
     id="g160"
     style="fill:#000000">
  </g>
  <g
     style="fill:#000000;opacity:0.0"
     id="g3354"
     clip-path="url(#clipPath3497)">
    <path
       inkscape:connector-curvature="0"
       d="m 349.36317,56 0,399.86577 388.90873,388.90873 0,-399.86577 z"
       id="path3356"
       style="fill:#000000" />
    <path
       inkscape:connector-curvature="0"
       d="m 349.36317,455.86577 106.63683,0 388.90873,388.90873 -106.63683,0 z"
       id="path3358"
       style="fill:#000000" />
    <path
       inkscape:connector-curvature="0"
       d="M 456,455.86577 456,56 l 388.90873,388.90873 0,399.86577 z"
       id="path3360"
       style="fill:#000000" />
    <path
       inkscape:connector-curvature="0"
       d="m 456,56 -106.63683,0 388.90873,388.90873 106.63683,0 z"
       id="path3362"
       style="fill:#000000" />
    <path
       inkscape:connector-curvature="0"
       d="m 55.999999,56.100671 0,399.865769 388.908731,388.90873 0,-399.86577 z"
       id="path3364"
       style="fill:#000000" />
    <path
       inkscape:connector-curvature="0"
       d="m 55.999999,455.96644 106.636831,0 388.90873,388.90873 -106.63683,0 z"
       id="path3366"
       style="fill:#000000" />
    <path
       inkscape:connector-curvature="0"
       d="m 162.63683,455.96644 0,-399.865769 388.90873,388.908729 0,399.86577 z"
       id="path3368"
       style="fill:#000000" />
    <path
       inkscape:connector-curvature="0"
       d="m 162.63683,56.100671 -106.636831,0 388.908731,388.908729 106.63683,0 z"
       id="path3370"
       style="fill:#000000" />
    <path
       inkscape:connector-curvature="0"
       d="m 202.78598,56.134231 0,399.865769 388.90873,388.90873 0,-399.86577 z"
       id="path3372"
       style="fill:#000000" />
    <path
       inkscape:connector-curvature="0"
       d="m 202.78598,456 106.60701,0 388.90873,388.90873 -106.60701,0 z"
       id="path3374"
       style="fill:#000000" />
    <path
       inkscape:connector-curvature="0"
       d="m 309.39299,456 0,-399.865769 388.90873,388.908729 0,399.86577 z"
       id="path3376"
       style="fill:#000000" />
    <path
       inkscape:connector-curvature="0"
       d="m 309.39299,56.134231 -106.60701,0 388.90873,388.908729 106.60701,0 z"
       id="path3378"
       style="fill:#000000" />
  </g>
  <path
     style="fill:#ffffff"
     d="m 349.36317,56 0,399.86577 106.63683,0 L 456,56 349.36317,56 z m -293.363171,0.100671 0,399.865769 106.636831,0 0,-399.865769 -106.636831,0 z m 146.785981,0.03356 0,399.865769 106.60701,0 0,-399.865769 -106.60701,0 z"
     id="path176"
     inkscape:connector-curvature="0" />
</svg>
