<?xml version="1.0" encoding="UTF-8" standalone="no"?>
<svg
   xmlns:dc="http://purl.org/dc/elements/1.1/"
   xmlns:cc="http://creativecommons.org/ns#"
   xmlns:rdf="http://www.w3.org/1999/02/22-rdf-syntax-ns#"
   xmlns:svg="http://www.w3.org/2000/svg"
   xmlns="http://www.w3.org/2000/svg"
   xmlns:sodipodi="http://sodipodi.sourceforge.net/DTD/sodipodi-0.dtd"
   xmlns:inkscape="http://www.inkscape.org/namespaces/inkscape"
   width="512"
   height="512"
   viewBox="0 0 384 384"
   id="svg2"
   version="1.1"
   inkscape:version="0.48.5 r10040"
   sodipodi:docname="view-sort-descending.svg">
  <sodipodi:namedview
     pagecolor="#ffffff"
     bordercolor="#ffffff"
     borderopacity="1"
     objecttolerance="10"
     gridtolerance="10"
     guidetolerance="10"
     inkscape:pageopacity="0"
     inkscape:pageshadow="2"
     inkscape:window-width="1306"
     inkscape:window-height="715"
     id="namedview10"
     showgrid="false"
     inkscape:zoom="0.4609375"
     inkscape:cx="-11.932203"
     inkscape:cy="256"
     inkscape:window-x="56"
     inkscape:window-y="28"
     inkscape:window-maximized="1"
     inkscape:current-layer="svg2" />
  <metadata
     id="metadata14">
    <rdf:RDF>
      <cc:Work
         rdf:about="">
        <dc:format>image/svg+xml</dc:format>
        <dc:type
           rdf:resource="http://purl.org/dc/dcmitype/StillImage" />
      </cc:Work>
    </rdf:RDF>
  </metadata>
  <defs
     id="defs12">
    <clipPath
       clipPathUnits="userSpaceOnUse"
       id="clipPath3121">
      <path
         id="path3123"
         d="M 19.5,2.5000001e-6 C 8.70198,2.5000001e-6 0,8.7019885 0,19.500003 L 0,364.5 C 0,375.29801 8.70198,384 19.5,384 l 345,0 c 10.79801,0 19.5,-8.70199 19.5,-19.5 L 384,19.500003 C 384,8.7019885 375.29801,2.5000001e-6 364.5,2.5000001e-6 l -345,0 z"
         style="fill:none;fill-opacity:1;stroke:none"
         inkscape:connector-curvature="0" />
    </clipPath>
  </defs>
  <path
     inkscape:connector-curvature="0"
     style="fill:none;fill-opacity:1;stroke:none"
     d="M 19.5,2.5000001e-6 C 8.70198,2.5000001e-6 0,8.7019885 0,19.500003 L 0,364.5 C 0,375.29801 8.70198,384 19.5,384 l 345,0 c 10.79801,0 19.5,-8.70199 19.5,-19.5 L 384,19.500003 C 384,8.7019885 375.29801,2.5000001e-6 364.5,2.5000001e-6 l -345,0 z"
     id="rect2986" />
  <g
     style="fill:#000000;opacity:0.0"
     id="g3008"
     clip-path="url(#clipPath3121)">
    <path
       inkscape:connector-curvature="0"
       d="M 78.908896,42 C 59.026777,42 42.58224,57.862296 42.58224,77.740119 L 431.49097,466.64885 c 0,-19.87782 16.44454,-35.74012 36.32666,-35.74012 z"
       id="path3010"
       style="fill:#000000" />
    <path
       inkscape:connector-curvature="0"
       d="m 42.58224,77.740119 c 0,9.940926 4.111293,19.022482 10.707671,25.618861 L 442.19864,492.26771 c -6.59638,-6.59638 -10.70767,-15.67793 -10.70767,-25.61886 z"
       id="path3012"
       style="fill:#000000" />
    <path
       inkscape:connector-curvature="0"
       d="m 53.289911,103.35898 c 6.596555,6.59655 15.67833,10.7078 25.618985,10.7078 L 467.81763,502.97551 c -9.94066,0 -19.02243,-4.11125 -25.61899,-10.7078 z"
       id="path3014"
       style="fill:#000000" />
    <path
       inkscape:connector-curvature="0"
       d="m 78.908896,114.06678 c 19.882124,0 35.740124,-16.445616 35.740124,-36.326661 L 503.55775,466.64885 c 0,19.88104 -15.858,36.32666 -35.74012,36.32666 z"
       id="path3016"
       style="fill:#000000" />
    <path
       inkscape:connector-curvature="0"
       d="m 114.64902,77.740119 c 0,-9.940522 -3.96515,-18.875122 -10.41483,-25.324807 L 493.14292,441.32404 c 6.44968,6.44969 10.41483,15.38429 10.41483,25.32481 z"
       id="path3018"
       style="fill:#000000" />
    <path
       inkscape:connector-curvature="0"
       d="M 104.23419,52.415312 C 97.783807,45.964929 88.848346,42 78.908896,42 L 467.81763,430.90873 c 9.93945,0 18.87491,3.96493 25.32529,10.41531 z"
       id="path3020"
       style="fill:#000000" />
    <path
       inkscape:connector-curvature="0"
       d="m 78.908896,156.25666 c -19.882119,0 -36.326656,15.86229 -36.326656,35.74012 l 388.90873,388.90873 c 0,-19.87783 16.44454,-35.74012 36.32666,-35.74012 z"
       id="path3022"
       style="fill:#000000" />
    <path
       inkscape:connector-curvature="0"
       d="m 42.58224,191.99678 c 0,9.79432 3.990921,18.61209 10.417451,25.03862 L 441.90842,605.94413 c -6.42653,-6.42653 -10.41745,-15.2443 -10.41745,-25.03862 z"
       id="path3024"
       style="fill:#000000" />
    <path
       inkscape:connector-curvature="0"
       d="m 52.999691,217.0354 c 6.619096,6.6191 15.82195,10.7015 25.909205,10.7015 L 467.81763,616.64563 c -10.08726,0 -19.29011,-4.0824 -25.90921,-10.7015 z"
       id="path3026"
       style="fill:#000000" />
    <path
       inkscape:connector-curvature="0"
       d="m 78.908896,227.7369 c 19.882124,0 35.740124,-15.8623 35.740124,-35.74012 l 388.90873,388.90873 c 0,19.87782 -15.858,35.74012 -35.74012,35.74012 z"
       id="path3028"
       style="fill:#000000" />
    <path
       inkscape:connector-curvature="0"
       d="m 114.64902,191.99678 c 0,-9.94052 -3.96515,-18.87512 -10.41483,-25.32481 L 493.14292,555.5807 c 6.44968,6.44969 10.41483,15.38429 10.41483,25.32481 z"
       id="path3030"
       style="fill:#000000" />
    <path
       inkscape:connector-curvature="0"
       d="M 104.23419,166.67197 C 97.783806,160.22159 88.848346,156.25666 78.908896,156.25666 L 467.81763,545.16539 c 9.93945,0 18.87491,3.96493 25.32529,10.41531 z"
       id="path3032"
       style="fill:#000000" />
    <path
       inkscape:connector-curvature="0"
       d="m 266.4183,242.38959 -25.19856,24.60665 388.90873,388.90873 25.19856,-24.60665 z"
       id="path3034"
       style="fill:#000000" />
    <path
       inkscape:connector-curvature="0"
       d="m 241.21974,266.99624 -49.80198,50.39282 388.90873,388.90873 49.80198,-50.39282 z"
       id="path3036"
       style="fill:#000000" />
    <path
       inkscape:connector-curvature="0"
       d="M 191.41776,317.38906 216.0287,342 604.93743,730.90873 580.32649,706.29779 z"
       id="path3038"
       style="fill:#000000" />
    <path
       inkscape:connector-curvature="0"
       d="m 216.0287,342 49.80198,-50.39282 388.90873,388.90873 -49.80198,50.39282 z"
       id="path3040"
       style="fill:#000000" />
    <path
       inkscape:connector-curvature="0"
       d="M 265.83068,291.60718 316.2235,342 705.13223,730.90873 654.73941,680.51591 z"
       id="path3042"
       style="fill:#000000" />
    <path
       inkscape:connector-curvature="0"
       d="m 316.2235,342 25.19426,-24.61094 388.90873,388.90873 -25.19426,24.61094 z"
       id="path3044"
       style="fill:#000000" />
    <path
       inkscape:connector-curvature="0"
       d="m 341.41776,317.38906 -50.38852,-50.39282 388.90873,388.90873 50.38852,50.39282 z"
       id="path3046"
       style="fill:#000000" />
    <path
       inkscape:connector-curvature="0"
       d="m 78.908896,269.92893 c -19.882119,0 -36.326656,16.44561 -36.326656,36.32665 l 388.90873,388.90873 c 0,-19.88104 16.44454,-36.32665 36.32666,-36.32665 z"
       id="path3048"
       style="fill:#000000" />
    <path
       inkscape:connector-curvature="0"
       d="m 42.58224,306.25558 c 0,9.79432 3.990921,18.61209 10.417451,25.03862 L 441.90842,720.20293 c -6.42653,-6.42653 -10.41745,-15.2443 -10.41745,-25.03862 z"
       id="path3050"
       style="fill:#000000" />
    <path
       inkscape:connector-curvature="0"
       d="m 52.999691,331.2942 c 6.619096,6.6191 15.82195,10.7015 25.909205,10.7015 L 467.81763,730.90443 c -10.08726,0 -19.29011,-4.0824 -25.90921,-10.7015 z"
       id="path3052"
       style="fill:#000000" />
    <path
       inkscape:connector-curvature="0"
       d="m 78.908896,341.9957 c 19.882124,0 35.740124,-15.86229 35.740124,-35.74012 l 388.90873,388.90873 c 0,19.87783 -15.858,35.74012 -35.74012,35.74012 z"
       id="path3054"
       style="fill:#000000" />
    <path
       inkscape:connector-curvature="0"
       d="m 114.64902,306.25558 c 0,-10.08714 -4.08298,-19.28944 -10.70183,-25.9083 l 388.90872,388.90873 c 6.61886,6.61886 10.70184,15.82116 10.70184,25.9083 z"
       id="path3056"
       style="fill:#000000" />
    <path
       inkscape:connector-curvature="0"
       d="M 103.94719,280.34728 C 97.52003,273.92013 88.701761,269.92893 78.908896,269.92893 L 467.81763,658.83766 c 9.79286,0 18.61113,3.9912 25.03828,10.41835 z"
       id="path3058"
       style="fill:#000000" />
  </g>
  <path
     d="M 78.908896,42 C 59.026777,42 42.58224,57.862296 42.58224,77.740119 c 0,19.882119 16.445611,36.326661 36.326656,36.326661 19.882124,0 35.740124,-16.445616 35.740124,-36.326661 C 114.64902,57.857999 98.78672,42 78.908896,42 m 0,114.25666 c -19.882119,0 -36.326656,15.86229 -36.326656,35.74012 0,19.88212 16.445611,35.74012 36.326656,35.74012 19.882124,0 35.740124,-15.8623 35.740124,-35.74012 0,-19.88212 -15.8623,-35.74012 -35.740124,-35.74012 M 266.4183,242.38959 241.21974,266.99624 191.41776,317.38906 216.0287,342 265.83068,291.60718 316.2235,342 341.41776,317.38906 291.02924,266.99624 m -212.120344,2.93269 c -19.882119,0 -36.326656,16.44561 -36.326656,36.32665 0,19.88212 16.445611,35.74012 36.326656,35.74012 19.882124,0 35.740124,-15.86229 35.740124,-35.74012 0,-19.88212 -15.8623,-36.32665 -35.740124,-36.32665"
     id="path8"
     inkscape:connector-curvature="0"
     style="fill:#ffffff" />
</svg>
