<?xml version="1.0" encoding="UTF-8" standalone="no"?>
<svg
   xmlns:dc="http://purl.org/dc/elements/1.1/"
   xmlns:cc="http://creativecommons.org/ns#"
   xmlns:rdf="http://www.w3.org/1999/02/22-rdf-syntax-ns#"
   xmlns:svg="http://www.w3.org/2000/svg"
   xmlns="http://www.w3.org/2000/svg"
   xmlns:sodipodi="http://sodipodi.sourceforge.net/DTD/sodipodi-0.dtd"
   xmlns:inkscape="http://www.inkscape.org/namespaces/inkscape"
   viewBox="0 0 512 512"
   id="svg2"
   version="1.1"
   inkscape:version="0.48.5 r10040"
   width="100%"
   height="100%"
   sodipodi:docname="view-history.svg">
  <sodipodi:namedview
     pagecolor="#ffffff"
     bordercolor="#ffffff"
     borderopacity="1"
     objecttolerance="10"
     gridtolerance="10"
     guidetolerance="10"
     inkscape:pageopacity="0"
     inkscape:pageshadow="2"
     inkscape:window-width="1306"
     inkscape:window-height="715"
     id="namedview94"
     showgrid="false"
     inkscape:zoom="0.4609375"
     inkscape:cx="287.45763"
     inkscape:cy="145.35593"
     inkscape:window-x="56"
     inkscape:window-y="28"
     inkscape:window-maximized="1"
     inkscape:current-layer="svg2" />
  <metadata
     id="metadata98">
    <rdf:RDF>
      <cc:Work
         rdf:about="">
        <dc:format>image/svg+xml</dc:format>
        <dc:type
           rdf:resource="http://purl.org/dc/dcmitype/StillImage" />
      </cc:Work>
    </rdf:RDF>
  </metadata>
  <defs
     id="defs96">
    <clipPath
       clipPathUnits="userSpaceOnUse"
       id="clipPath3455">
      <path
         id="path3457"
         d="M 26,-4.9999998e-7 C 11.60265,-4.9999998e-7 0,11.60265 0,26.000002 L 0,486 c 0,14.39735 11.60265,26 26,26 l 460,0 c 14.39735,0 26,-11.60265 26,-26 L 512,26.000001 C 512,11.602649 500.39735,-5e-7 486,-5e-7 l -460,0 z"
         style="fill:none;fill-opacity:1;stroke:none"
         inkscape:connector-curvature="0" />
    </clipPath>
  </defs>
  <path
     inkscape:connector-curvature="0"
     style="fill:none;fill-opacity:1;stroke:none"
     d="M 26,-4.9999998e-7 C 11.60265,-4.9999998e-7 0,11.60265 0,26.000002 L 0,486 c 0,14.39735 11.60265,26 26,26 l 460,0 c 14.39735,0 26,-11.60265 26,-26 L 512,26.000001 C 512,11.602649 500.39735,-5e-7 486,-5e-7 l -460,0 z"
     id="rect2986" />
  <g
     transform="matrix(23.27167,0,0,23.27167,0,0.001)"
     id="g22"
     style="fill:none">
  </g>
  <g
     transform="matrix(23.27167,0,0,23.27167,0,0.001)"
     id="g42"
     style="fill:#000000">
  </g>
  <g
     transform="matrix(23.27167,0,0,23.27167,0,0.001)"
     id="g56"
     style="fill:none">
    <g
       id="g58"
       style="stroke:#cd1d31">
    </g>
  </g>
  <g
     transform="matrix(23.27167,0,0,23.27167,0,0.001)"
     id="g78"
     style="fill:#000000">
  </g>
  <g
     style="fill:#000000;stroke:none;opacity:0.0"
     id="g3177"
     clip-path="url(#clipPath3455)">
    <path
       inkscape:connector-curvature="0"
       d="m 78.823575,56 c -2.324856,0 -4.249735,1.699894 -4.249735,3.749766 L 463.48257,448.6585 c 0,-2.04988 1.92488,-3.74977 4.24973,-3.74977 z"
       id="path3179"
       style="fill:#000000" />
    <path
       inkscape:connector-curvature="0"
       d="m 74.57384,59.749766 0,19.273795 388.90873,388.908729 0,-19.27379 z"
       id="path3181"
       style="fill:#000000" />
    <path
       inkscape:connector-curvature="0"
       d="m 74.57384,79.023561 c 0,0.917072 0.385263,1.744083 1.019244,2.378064 L 464.50181,470.31036 c -0.63398,-0.63399 -1.01924,-1.461 -1.01924,-2.37807 z"
       id="path3183"
       style="fill:#000000" />
    <path
       inkscape:connector-curvature="0"
       d="m 75.593084,81.401625 c 0.783117,0.783117 1.94573,1.271708 3.230491,1.271708 L 467.7323,471.58206 c -1.28476,0 -2.44737,-0.48859 -3.23049,-1.2717 z"
       id="path3185"
       style="fill:#000000" />
    <path
       inkscape:connector-curvature="0"
       d="m 78.823575,82.673333 25.973375,0 388.90873,388.908727 -25.97338,0 z"
       id="path3187"
       style="fill:#000000" />
    <path
       inkscape:connector-curvature="0"
       d="m 104.79695,82.673333 0,346.653337 388.90873,388.90873 0,-346.65334 z"
       id="path3189"
       style="fill:#000000" />
    <path
       inkscape:connector-curvature="0"
       d="m 104.79695,429.32667 -23.848508,0 388.908728,388.90873 23.84851,0 z"
       id="path3191"
       style="fill:#000000" />
    <path
       inkscape:connector-curvature="0"
       d="m 80.948442,429.32667 c -3.524781,0 -6.374602,1.24992 -6.374602,2.82482 l 388.90873,388.90873 c 0,-1.5749 2.84982,-2.82482 6.3746,-2.82482 z"
       id="path3193"
       style="fill:#000000" />
    <path
       inkscape:connector-curvature="0"
       d="m 74.57384,432.15149 0,21.14868 388.90873,388.90873 0,-21.14868 z"
       id="path3195"
       style="fill:#000000" />
    <path
       inkscape:connector-curvature="0"
       d="m 74.57384,453.30017 c 0,0.39124 0.181595,0.757 0.509801,1.08521 L 463.99237,843.29411 c -0.32821,-0.32821 -0.5098,-0.69397 -0.5098,-1.08521 z"
       id="path3197"
       style="fill:#000000" />
    <path
       inkscape:connector-curvature="0"
       d="M 75.083641,454.38538 C 76.055616,455.35735 78.313425,456 80.948442,456 L 469.85717,844.90873 c -2.63501,0 -4.89282,-0.64265 -5.8648,-1.61462 z"
       id="path3199"
       style="fill:#000000" />
    <path
       inkscape:connector-curvature="0"
       d="m 80.948442,456 350.228108,0 388.90873,388.90873 -350.22811,0 z"
       id="path3201"
       style="fill:#000000" />
    <path
       inkscape:connector-curvature="0"
       d="m 431.17655,456 c 3.52479,0 6.24961,-1.14993 6.24961,-2.69983 L 826.33489,842.2089 c 0,1.5499 -2.72482,2.69983 -6.24961,2.69983 z"
       id="path3203"
       style="fill:#000000" />
    <path
       inkscape:connector-curvature="0"
       d="m 437.42616,453.30017 0,-21.14868 388.90873,388.90873 0,21.14868 z"
       id="path3205"
       style="fill:#000000" />
    <path
       inkscape:connector-curvature="0"
       d="m 437.42616,432.15149 c 0,-0.4155 -0.19762,-0.81123 -0.55432,-1.16793 l 388.90873,388.90873 c 0.3567,0.3567 0.55432,0.75243 0.55432,1.16793 z"
       id="path3207"
       style="fill:#000000" />
    <path
       inkscape:connector-curvature="0"
       d="m 436.87184,430.98356 c -0.97391,-0.97391 -3.13371,-1.65689 -5.69529,-1.65689 L 820.08528,818.2354 c 2.56158,0 4.72138,0.68298 5.69529,1.65689 z"
       id="path3209"
       style="fill:#000000" />
    <path
       inkscape:connector-curvature="0"
       d="m 431.17655,429.32667 -23.9735,0 388.90873,388.90873 23.9735,0 z"
       id="path3211"
       style="fill:#000000" />
    <path
       inkscape:connector-curvature="0"
       d="m 407.20305,429.32667 0,-346.653337 388.90873,388.908727 0,346.65334 z"
       id="path3213"
       style="fill:#000000" />
    <path
       inkscape:connector-curvature="0"
       d="m 407.20305,82.673333 26.09838,0 388.90873,388.908727 -26.09838,0 z"
       id="path3215"
       style="fill:#000000" />
    <path
       inkscape:connector-curvature="0"
       d="m 433.30143,82.673333 c 2.32485,0 4.12473,-1.5999 4.12473,-3.649772 L 826.33489,467.93229 c 0,2.04987 -1.79988,3.64977 -4.12473,3.64977 z"
       id="path3217"
       style="fill:#000000" />
    <path
       inkscape:connector-curvature="0"
       d="m 437.42616,79.023561 0,-19.273795 388.90873,388.908734 0,19.27379 z"
       id="path3219"
       style="fill:#000000" />
    <path
       inkscape:connector-curvature="0"
       d="m 437.42616,59.749766 c 0,-0.966034 -0.40529,-1.854341 -1.07458,-2.523633 L 825.26031,446.13486 c 0.66929,0.6693 1.07458,1.5576 1.07458,2.52364 z"
       id="path3221"
       style="fill:#000000" />
    <path
       inkscape:connector-curvature="0"
       d="M 436.35158,57.226133 C 435.60067,56.475223 434.51744,56 433.30143,56 l 388.90873,388.90873 c 1.21601,0 2.29924,0.47522 3.05015,1.22613 z"
       id="path3223"
       style="fill:#000000" />
    <path
       inkscape:connector-curvature="0"
       d="M 433.30143,56 78.873571,56 467.7823,444.90873 l 354.42786,0 z"
       id="path3225"
       style="fill:#000000" />
    <path
       inkscape:connector-curvature="0"
       d="m 135.09505,82.673333 30.22312,0 388.90873,388.908727 -30.22312,0 z"
       id="path3227"
       style="fill:#000000" />
    <path
       inkscape:connector-curvature="0"
       d="m 165.31817,82.673333 0,17.398907 388.90873,388.90873 0,-17.39891 z"
       id="path3229"
       style="fill:#000000" />
    <path
       inkscape:connector-curvature="0"
       d="m 165.31817,100.07224 0,6.57459 388.90873,388.90873 0,-6.57459 z"
       id="path3231"
       style="fill:#000000" />
    <path
       inkscape:connector-curvature="0"
       d="m 165.31817,106.64683 c 0,0.68515 0.27845,1.29213 0.74249,1.75617 l 388.90873,388.90873 c -0.46404,-0.46404 -0.74249,-1.07102 -0.74249,-1.75617 z"
       id="path3233"
       style="fill:#000000" />
    <path
       inkscape:connector-curvature="0"
       d="m 166.06066,108.403 c 0.58568,0.58569 1.46702,0.94366 2.45731,0.94366 L 557.4267,498.25539 c -0.99029,0 -1.87163,-0.35797 -2.45731,-0.94366 z"
       id="path3235"
       style="fill:#000000" />
    <path
       inkscape:connector-curvature="0"
       d="m 168.51797,109.34666 9.32442,0 388.90873,388.90873 -9.32442,0 z"
       id="path3237"
       style="fill:#000000" />
    <path
       inkscape:connector-curvature="0"
       d="m 177.84239,109.34666 c -6.94956,9.6744 -10.97431,21.99863 -10.97431,37.49766 l 388.90873,388.90873 c 0,-15.49903 4.02475,-27.82326 10.97431,-37.49766 z"
       id="path3239"
       style="fill:#000000" />
    <path
       inkscape:connector-curvature="0"
       d="m 166.86808,146.84432 c 0,17.39322 14.29402,33.065 30.02797,48.79895 L 585.80478,584.552 c -15.73395,-15.73395 -30.02797,-31.40573 -30.02797,-48.79895 z"
       id="path3241"
       style="fill:#000000" />
    <path
       inkscape:connector-curvature="0"
       d="m 196.89605,195.64327 c 9.42426,9.42426 19.36511,18.87081 27.06029,28.72296 l 388.90873,388.90873 c -7.69518,-9.85215 -17.63603,-19.2987 -27.06029,-28.72296 z"
       id="path3243"
       style="fill:#000000" />
    <path
       inkscape:connector-curvature="0"
       d="m 223.95634,224.36623 c 5.36358,6.867 9.63617,13.93104 11.88242,21.32191 l 388.90873,388.90873 c -2.24625,-7.39087 -6.51884,-14.45491 -11.88242,-21.32191 z"
       id="path3245"
       style="fill:#000000" />
    <path
       inkscape:connector-curvature="0"
       d="m 235.83876,245.68814 c -8.87444,29.24818 -68.97068,64.47098 -68.97068,99.99375 l 388.90873,388.90873 c 0,-35.52277 60.09624,-70.74557 68.97068,-99.99375 z"
       id="path3247"
       style="fill:#000000" />
    <path
       inkscape:connector-curvature="0"
       d="m 166.86808,345.68189 c 0,19.82268 6.35905,34.75752 17.03355,45.43202 l 388.90873,388.90873 c -10.6745,-10.6745 -17.03355,-25.60934 -17.03355,-45.43202 z"
       id="path3249"
       style="fill:#000000" />
    <path
       inkscape:connector-curvature="0"
       d="m 183.90163,391.11391 c 4.63139,4.63139 10.07515,8.46078 16.16436,11.53943 l 388.90873,388.90873 c -6.08921,-3.07865 -11.53297,-6.90804 -16.16436,-11.53943 z"
       id="path3251"
       style="fill:#000000" />
    <path
       inkscape:connector-curvature="0"
       d="m 200.06599,402.65334 -24.67345,0 388.90873,388.90873 24.67345,0 z"
       id="path3253"
       style="fill:#000000" />
    <path
       inkscape:connector-curvature="0"
       d="m 175.39254,402.65334 c -7.37454,0 -13.22418,5.27467 -13.22418,11.77426 l 388.90873,388.90873 c 0,-6.49959 5.84964,-11.77426 13.22418,-11.77426 z"
       id="path3255"
       style="fill:#000000" />
    <path
       inkscape:connector-curvature="0"
       d="m 162.16836,414.4276 0,14.89907 388.90873,388.90873 0,-14.89907 z"
       id="path3257"
       style="fill:#000000" />
    <path
       inkscape:connector-curvature="0"
       d="m 162.16836,429.32667 -27.0483,0 388.90873,388.90873 27.0483,0 z"
       id="path3259"
       style="fill:#000000" />
    <path
       inkscape:connector-curvature="0"
       d="m 135.12006,429.32667 0,-346.653337 388.90873,388.908727 0,346.65334 z"
       id="path3261"
       style="fill:#000000" />
    <path
       inkscape:connector-curvature="0"
       d="m 346.75683,82.673333 30.22311,0 388.90873,388.908727 -30.22311,0 z"
       id="path3263"
       style="fill:#000000" />
    <path
       inkscape:connector-curvature="0"
       d="m 376.97994,82.673333 0,346.653337 388.90873,388.90873 0,-346.65334 z"
       id="path3265"
       style="fill:#000000" />
    <path
       inkscape:connector-curvature="0"
       d="m 376.97994,429.32667 -29.99812,0 388.90873,388.90873 29.99812,0 z"
       id="path3267"
       style="fill:#000000" />
    <path
       inkscape:connector-curvature="0"
       d="m 346.98182,429.32667 0,-14.89907 388.90873,388.90873 0,14.89907 z"
       id="path3269"
       style="fill:#000000" />
    <path
       inkscape:connector-curvature="0"
       d="m 346.98182,414.4276 c 0,-2.98378 -1.25914,-5.70941 -3.33481,-7.78509 l 388.90873,388.90873 c 2.07567,2.07568 3.33481,4.80131 3.33481,7.78509 z"
       id="path3271"
       style="fill:#000000" />
    <path
       inkscape:connector-curvature="0"
       d="m 343.64701,406.64251 c -2.44579,-2.44579 -6.02527,-3.98917 -10.01436,-3.98917 l 388.90873,388.90873 c 3.98909,0 7.56857,1.54338 10.01436,3.98917 z"
       id="path3273"
       style="fill:#000000" />
    <path
       inkscape:connector-curvature="0"
       d="m 333.63265,402.65334 -33.77289,0 388.90873,388.90873 33.77289,0 z"
       id="path3275"
       style="fill:#000000" />
    <path
       inkscape:connector-curvature="0"
       d="m 299.85976,402.65334 c 20.12375,-10.17437 33.19793,-28.54822 33.19793,-56.97145 l 388.90873,388.90873 c 0,28.42323 -13.07418,46.79708 -33.19793,56.97145 z"
       id="path3277"
       style="fill:#000000" />
    <path
       inkscape:connector-curvature="0"
       d="m 333.05769,345.68189 c 0,-35.52277 -59.32129,-67.82076 -69.09569,-99.99375 l 388.90873,388.90873 c 9.7744,32.17299 69.09569,64.47098 69.09569,99.99375 z"
       id="path3279"
       style="fill:#000000" />
    <path
       inkscape:connector-curvature="0"
       d="m 263.962,245.68814 c 10.72434,-35.27279 69.09569,-63.79601 69.09569,-98.84382 l 388.90873,388.90873 c 0,35.04781 -58.37135,63.57103 -69.09569,98.84382 z"
       id="path3281"
       style="fill:#000000" />
    <path
       inkscape:connector-curvature="0"
       d="m 333.05769,146.84432 c 0,-15.49903 -4.04975,-27.82326 -10.97431,-37.49766 l 388.90873,388.90873 c 6.92456,9.6744 10.97431,21.99863 10.97431,37.49766 z"
       id="path3283"
       style="fill:#000000" />
    <path
       inkscape:connector-curvature="0"
       d="m 322.08338,109.34666 21.62364,0 388.90873,388.90873 -21.62364,0 z"
       id="path3285"
       style="fill:#000000" />
    <path
       inkscape:connector-curvature="0"
       d="m 343.70702,109.34666 c 1.7499,0 3.07481,-1.14992 3.07481,-2.69983 l 388.90873,388.90873 c 0,1.54991 -1.32491,2.69983 -3.07481,2.69983 z"
       id="path3287"
       style="fill:#000000" />
    <path
       inkscape:connector-curvature="0"
       d="m 346.78183,106.64683 0,-23.948498 388.90873,388.908728 0,23.9485 z"
       id="path3289"
       style="fill:#000000" />
  </g>
  <path
     style="fill:#ffffff;stroke:none"
     inkscape:connector-curvature="0"
     id="path92"
     d="m 78.823575,56 c -2.324856,0 -4.249735,1.699894 -4.249735,3.749766 v 19.273795 c 0,2.049872 1.924879,3.649772 4.249735,3.649772 H 104.79695 V 429.32667 H 80.948442 c -3.524781,0 -6.374602,1.24992 -6.374602,2.82482 v 21.14868 c 0,1.5499 2.849821,2.69983 6.374602,2.69983 H 431.17655 c 3.52479,0 6.24961,-1.14993 6.24961,-2.69983 v -21.14868 c 0,-1.54991 -2.74982,-2.82482 -6.24961,-2.82482 h -23.9735 V 82.673333 h 26.09838 c 2.32485,0 4.12473,-1.5999 4.12473,-3.649772 V 59.749766 C 437.42616,57.699894 435.60128,56 433.30143,56 H 78.873571 m 56.221479,26.673333 h 30.22312 v 17.398907 6.57459 c 0,1.54991 1.42491,2.69983 3.1998,2.69983 h 9.32442 c -6.94956,9.6744 -10.97431,21.99863 -10.97431,37.49766 0,35.07281 58.12136,63.14606 68.97068,98.84382 -8.87444,29.24818 -68.97068,64.47098 -68.97068,99.99375 0,28.42323 13.07418,46.79708 33.19791,56.97145 h -24.67345 c -7.37454,0 -13.22418,5.27467 -13.22418,11.77426 v 14.89907 h -27.0483 V 82.673333 m 211.63677,0 h 30.22311 V 429.32667 H 346.98182 V 414.4276 c 0,-6.49959 -5.97463,-11.77426 -13.34917,-11.77426 h -33.77289 c 20.12375,-10.17437 33.19793,-28.54822 33.19793,-56.97145 0,-35.52277 -59.32129,-67.82076 -69.09569,-99.99375 10.72434,-35.27279 69.09569,-63.79601 69.09569,-98.84382 0,-15.49903 -4.04975,-27.82326 -10.97431,-37.49766 h 21.62364 c 1.7499,0 3.07481,-1.14992 3.07481,-2.69983 V 82.698332" />
</svg>
