<?xml version="1.0" encoding="UTF-8" standalone="no"?>
<svg
   xmlns:dc="http://purl.org/dc/elements/1.1/"
   xmlns:cc="http://creativecommons.org/ns#"
   xmlns:rdf="http://www.w3.org/1999/02/22-rdf-syntax-ns#"
   xmlns:svg="http://www.w3.org/2000/svg"
   xmlns="http://www.w3.org/2000/svg"
   xmlns:sodipodi="http://sodipodi.sourceforge.net/DTD/sodipodi-0.dtd"
   xmlns:inkscape="http://www.inkscape.org/namespaces/inkscape"
   sodipodi:docname="view-calendar-wedding-anniversary.svg"
   height="100%"
   width="100%"
   inkscape:version="0.48.5 r10040"
   version="1.1"
   id="svg2"
   viewBox="0 0 512 512">
  <sodipodi:namedview
     pagecolor="#ffffff"
     bordercolor="#ffffff"
     borderopacity="1"
     objecttolerance="10"
     gridtolerance="10"
     guidetolerance="10"
     inkscape:pageopacity="0"
     inkscape:pageshadow="2"
     inkscape:window-width="1306"
     inkscape:window-height="715"
     id="namedview6"
     showgrid="false"
     showguides="true"
     inkscape:guide-bbox="true"
     inkscape:zoom="1.3037281"
     inkscape:cx="205.49383"
     inkscape:cy="216.51137"
     inkscape:window-x="56"
     inkscape:window-y="28"
     inkscape:window-maximized="1"
     inkscape:current-layer="svg2">
    <sodipodi:guide
       orientation="0,1"
       position="260.08346,471.00503"
       id="guide2989" />
    <sodipodi:guide
       orientation="0,1"
       position="267.59322,40.983051"
       id="guide2991" />
    <sodipodi:guide
       orientation="1,0"
       position="40.940284,84.756935"
       id="guide2993" />
    <sodipodi:guide
       orientation="1,0"
       position="471.05085,254.98305"
       id="guide2995" />
  </sodipodi:namedview>
  <metadata
     id="metadata10">
    <rdf:RDF>
      <cc:Work
         rdf:about="">
        <dc:format>image/svg+xml</dc:format>
        <dc:type
           rdf:resource="http://purl.org/dc/dcmitype/StillImage" />
        <dc:title></dc:title>
      </cc:Work>
    </rdf:RDF>
  </metadata>
  <defs
     id="defs8">
    <clipPath
       id="clipPath5020"
       clipPathUnits="userSpaceOnUse">
      <path
         inkscape:connector-curvature="0"
         id="path5022"
         d="M 26,0 C 11.602648,0 0,11.602648 0,26 l 0,460 c 0,14.39735 11.602648,26 26,26 l 460,0 c 14.39735,0 26,-11.60265 26,-26 L 512,26 C 512,11.602648 500.39735,0 486,0 L 26,0 z"
         style="fill:none;fill-opacity:1;stroke:none" />
    </clipPath>
    <clipPath
       clipPathUnits="userSpaceOnUse"
       id="clipPath3827">
      <path
         id="path3829"
         d="M 26,0 C 11.602648,0 0,11.602648 0,26 l 0,460 c 0,14.39735 11.602648,26 26,26 l 460,0 c 14.39735,0 26,-11.60265 26,-26 L 512,26 C 512,11.602648 500.39735,0 486,0 L 26,0 z"
         style="fill:none;fill-opacity:1;stroke:none"
         inkscape:connector-curvature="0" />
    </clipPath>
  </defs>
  <path
     style="fill:none;fill-opacity:1;stroke:none"
     d="M 26 0 C 11.602648 0 0 11.602648 0 26 L 0 486 C 0 500.39735 11.602648 512 26 512 L 486 512 C 500.39735 512 512 500.39735 512 486 L 512 26 C 512 11.602648 500.39735 0 486 0 L 26 0 z "
     id="rect2986" />
  <g
     style="fill:#000000;opacity:0.0"
     id="g3351"
     clip-path="url(#clipPath3827)">
    <path
       inkscape:connector-curvature="0"
       d="m 161.63995,50.966391 c -3.56213,-0.05127 -7.17105,1.197153 -10.22062,3.887961 L 540.32806,443.76308 c 3.04957,-2.69081 6.65849,-3.93923 10.22062,-3.88796 z"
       id="path3353"
       style="fill:#000000" />
    <path
       inkscape:connector-curvature="0"
       d="m 151.41933,54.854352 c -5.56116,4.869075 -5.52058,4.720164 -5.80249,32.576402 L 534.52557,476.33948 c 0.28191,-27.85623 0.24133,-27.70732 5.80249,-32.5764 z"
       id="path3355"
       style="fill:#000000" />
    <path
       inkscape:connector-curvature="0"
       d="m 145.61684,87.430754 c -0.15373,16.144836 0.0292,26.579066 0.61854,29.218616 L 535.14411,505.5581 c -0.58934,-2.63955 -0.77227,-13.07378 -0.61854,-29.21862 z"
       id="path3357"
       style="fill:#000000" />
    <path
       inkscape:connector-curvature="0"
       d="m 146.23538,116.64937 c 0.71161,3.32645 2.21854,6.15388 4.34254,8.27788 l 388.90873,388.90873 c -2.124,-2.124 -3.63093,-4.95143 -4.34254,-8.27788 z"
       id="path3359"
       style="fill:#000000" />
    <path
       inkscape:connector-curvature="0"
       d="m 150.57792,124.92725 c 1.16498,1.16499 2.51561,2.11835 4.02246,2.82637 l 388.90873,388.90873 c -1.50685,-0.70802 -2.85748,-1.66138 -4.02246,-2.82637 z"
       id="path3361"
       style="fill:#000000" />
    <path
       inkscape:connector-curvature="0"
       d="m 154.60038,127.75362 c 7.50862,3.51088 16.98168,0.34592 20.44125,-6.80393 l 388.90873,388.90873 c -3.45957,7.14985 -12.93263,10.31481 -20.44125,6.80393 z"
       id="path3363"
       style="fill:#000000" />
    <path
       inkscape:connector-curvature="0"
       d="m 175.04163,120.94969 c 1.69139,-3.48524 1.76245,-4.25155 1.53163,-31.92841 l 388.90873,388.90873 c 0.23082,27.67686 0.15976,28.44317 -1.53163,31.92841 z"
       id="path3365"
       style="fill:#000000" />
    <path
       inkscape:connector-curvature="0"
       d="m 176.57326,89.02128 -0.26509,-28.393895 388.90873,388.908725 0.26509,28.3939 z"
       id="path3367"
       style="fill:#000000" />
    <path
       inkscape:connector-curvature="0"
       d="m 176.30817,60.627385 -2.26798,-3.004333 388.90873,388.908728 2.26798,3.00433 z"
       id="path3369"
       style="fill:#000000" />
    <path
       inkscape:connector-curvature="0"
       d="m 174.04019,57.623052 c -0.52934,-0.693478 -1.08939,-1.333476 -1.67546,-1.91955 L 561.27346,444.61223 c 0.58607,0.58608 1.14612,1.22607 1.67546,1.91955 z"
       id="path3371"
       style="fill:#000000" />
    <path
       inkscape:connector-curvature="0"
       d="M 172.36473,55.703502 C 169.29065,52.62942 165.5005,51.038893 161.6694,50.995845 L 550.57813,439.90457 c 3.8311,0.043 7.62125,1.63358 10.69533,4.70766 z"
       id="path3373"
       style="fill:#000000" />
    <path
       inkscape:connector-curvature="0"
       d="m 161.6694,50.995845 -0.0294,-0.02945 388.90873,388.908725 0.0294,0.0294 z"
       id="path3375"
       style="fill:#000000" />
    <path
       inkscape:connector-curvature="0"
       d="m 350.4417,50.995841 c -4.56156,0.05127 -9.03549,2.296291 -12.34133,6.627207 L 727.0091,446.53178 c 3.30584,-4.33092 7.77977,-6.57594 12.34133,-6.62721 z"
       id="path3377"
       style="fill:#000000" />
    <path
       inkscape:connector-curvature="0"
       d="m 338.10037,57.623048 -2.32689,3.004333 388.90873,388.908729 2.32689,-3.00433 z"
       id="path3379"
       style="fill:#000000" />
    <path
       inkscape:connector-curvature="0"
       d="m 335.77348,60.627381 0,29.395349 388.90873,388.90873 0,-29.39535 z"
       id="path3381"
       style="fill:#000000" />
    <path
       inkscape:connector-curvature="0"
       d="m 335.77348,90.02273 0,29.33643 388.90873,388.90873 0,-29.33643 z"
       id="path3383"
       style="fill:#000000" />
    <path
       inkscape:connector-curvature="0"
       d="m 335.77348,119.35916 2.12071,3.23997 388.90873,388.90873 -2.12071,-3.23997 z"
       id="path3385"
       style="fill:#000000" />
    <path
       inkscape:connector-curvature="0"
       d="m 337.89419,122.59913 c 0.43219,0.6527 0.99349,1.31736 1.62636,1.95023 l 388.90873,388.90873 c -0.63287,-0.63287 -1.19417,-1.29754 -1.62636,-1.95023 z"
       id="path3387"
       style="fill:#000000" />
    <path
       inkscape:connector-curvature="0"
       d="m 339.52055,124.54936 c 1.2059,1.20591 2.67169,2.29638 3.9994,2.96863 l 388.90873,388.90873 c -1.32771,-0.67225 -2.7935,-1.76272 -3.9994,-2.96863 z"
       id="path3389"
       style="fill:#000000" />
    <path
       inkscape:connector-curvature="0"
       d="m 343.51995,127.51799 c 6.58607,3.25459 15.17812,1.50014 19.3809,-4.03523 l 388.90873,388.90873 c -4.20278,5.53537 -12.79483,7.28982 -19.3809,4.03523 z"
       id="path3391"
       style="fill:#000000" />
    <path
       inkscape:connector-curvature="0"
       d="m 362.90085,123.48276 c 3.43398,-4.5103 3.84586,-8.78136 3.56396,-36.022556 L 755.37354,476.36893 c 0.2819,27.2412 -0.12998,31.51226 -3.56396,36.02256 z"
       id="path3393"
       style="fill:#000000" />
    <path
       inkscape:connector-curvature="0"
       d="M 366.46481,87.460204 C 366.2223,63.495612 366.21833,60.257858 362.6812,56.720732 L 751.58993,445.62946 c 3.53713,3.53713 3.5411,6.77488 3.78361,30.73947 z"
       id="path3395"
       style="fill:#000000" />
    <path
       inkscape:connector-curvature="0"
       d="m 362.6812,56.720732 c -0.5744,-0.574401 -1.24197,-1.156696 -2.01887,-1.83693 L 749.57106,443.79253 c 0.7769,0.68024 1.44447,1.26253 2.01887,1.83693 z"
       id="path3397"
       style="fill:#000000" />
    <path
       inkscape:connector-curvature="0"
       d="m 360.66233,54.883802 c -3.04959,-2.690808 -6.65852,-3.939216 -10.22063,-3.887961 L 739.35043,439.90457 c 3.56211,-0.0512 7.17104,1.19715 10.22063,3.88796 z"
       id="path3399"
       style="fill:#000000" />
    <path
       inkscape:connector-curvature="0"
       d="m 110.41901,82.776982 c -14.607417,0 -20.160183,0.347796 -23.799032,1.295987 L 475.52871,472.9817 c 3.63885,-0.94819 9.19161,-1.29599 23.79903,-1.29599 z"
       id="path3401"
       style="fill:#000000" />
    <path
       inkscape:connector-curvature="0"
       d="M 86.619978,84.072969 C 71.141368,88.09636 58.486455,99.98617 53.130494,115.61847 L 442.03922,504.5272 c 5.35596,-15.6323 18.01088,-27.52211 33.48949,-31.5455 z"
       id="path3403"
       style="fill:#000000" />
    <path
       inkscape:connector-curvature="0"
       d="m 53.130494,115.61847 -1.796709,5.18395 388.908725,388.90873 1.79671,-5.18395 z"
       id="path3405"
       style="fill:#000000" />
    <path
       inkscape:connector-curvature="0"
       d="M 51.333785,120.80242 51.098151,268.83949 440.00688,657.74822 440.24251,509.71115 z"
       id="path3407"
       style="fill:#000000" />
    <path
       inkscape:connector-curvature="0"
       d="m 51.098151,268.83949 c -0.23045,165.01044 -0.551384,154.02999 5.419582,166.15143 L 445.42646,823.89965 c -5.97096,-12.12144 -5.65003,-1.14099 -5.41958,-166.15143 z"
       id="path3409"
       style="fill:#000000" />
    <path
       inkscape:connector-curvature="0"
       d="m 56.517733,434.99092 c 2.120218,4.29429 5.020839,8.25619 8.482612,11.71796 L 453.90907,835.61761 c -3.46177,-3.46177 -6.36239,-7.42367 -8.48261,-11.71796 z"
       id="path3411"
       style="fill:#000000" />
    <path
       inkscape:connector-curvature="0"
       d="m 65.000345,446.70888 c 6.413018,6.41302 14.751824,11.10968 23.622522,13.02361 L 477.5316,848.64122 c -8.8707,-1.91393 -17.20951,-6.61059 -23.62253,-13.02361 z"
       id="path3413"
       style="fill:#000000" />
    <path
       inkscape:connector-curvature="0"
       d="m 88.622867,459.73249 c 7.995345,1.717 326.219193,1.74664 334.394113,0.0294 l 388.90873,388.90873 c -8.17492,1.71724 -326.39877,1.6876 -334.39411,-0.0294 z"
       id="path3415"
       style="fill:#000000" />
    <path
       inkscape:connector-curvature="0"
       d="m 423.01698,459.76189 c 14.01781,-2.92144 26.39271,-12.33824 32.51749,-24.74157 L 844.4432,823.92905 c -6.12478,12.40333 -18.49968,21.82013 -32.51749,24.74157 z"
       id="path3417"
       style="fill:#000000" />
    <path
       inkscape:connector-curvature="0"
       d="m 455.53447,435.02032 c 5.97103,-12.12144 5.5913,-1.14099 5.36067,-166.15143 l 388.90873,388.90873 c 0.23063,165.01044 0.61036,154.02999 -5.36067,166.15143 z"
       id="path3419"
       style="fill:#000000" />
    <path
       inkscape:connector-curvature="0"
       d="m 460.89514,268.86889 -0.17672,-148.03707 388.90873,388.90873 0.17672,148.03707 z"
       id="path3421"
       style="fill:#000000" />
    <path
       inkscape:connector-curvature="0"
       d="m 460.71842,120.83182 -1.76726,-5.18394 388.90873,388.90873 1.76726,5.18394 z"
       id="path3423"
       style="fill:#000000" />
    <path
       inkscape:connector-curvature="0"
       d="m 458.95116,115.64788 c -2.51476,-7.33974 -6.63861,-13.86094 -11.9083,-19.130626 L 835.95159,485.42598 c 5.26969,5.26969 9.39354,11.79089 11.9083,19.13063 z"
       id="path3425"
       style="fill:#000000" />
    <path
       inkscape:connector-curvature="0"
       d="M 447.04286,96.517254 C 441.08908,90.563479 433.67266,86.20723 425.46168,84.072919 L 814.37041,472.98165 c 8.21098,2.13431 15.6274,6.49056 21.58118,12.44433 z"
       id="path3427"
       style="fill:#000000" />
    <path
       inkscape:connector-curvature="0"
       d="m 425.46168,84.072919 c -3.639,-0.948191 -9.22126,-1.237078 -23.82849,-1.237078 L 790.54192,471.74457 c 14.60723,0 20.18949,0.28889 23.82849,1.23708 z"
       id="path3429"
       style="fill:#000000" />
    <path
       inkscape:connector-curvature="0"
       d="m 401.63319,82.835841 -19.08636,0 388.90873,388.908729 19.08636,0 z"
       id="path3431"
       style="fill:#000000" />
    <path
       inkscape:connector-curvature="0"
       d="m 382.54683,82.835841 0,15.404569 388.90873,388.90873 0,-15.40457 z"
       id="path3433"
       style="fill:#000000" />
    <path
       inkscape:connector-curvature="0"
       d="m 382.54683,98.24041 c 0,8.48244 -0.33015,17.47006 -0.76581,20.05835 l 388.90873,388.90873 c 0.43566,-2.58829 0.76581,-11.57591 0.76581,-20.05835 z"
       id="path3435"
       style="fill:#000000" />
    <path
       inkscape:connector-curvature="0"
       d="m 381.78102,118.29876 c -2.02451,12.40334 -10.45999,22.27692 -22.12014,25.89029 l 388.90873,388.90873 c 11.66015,-3.61337 20.09563,-13.48695 22.12014,-25.89029 z"
       id="path3437"
       style="fill:#000000" />
    <path
       inkscape:connector-curvature="0"
       d="m 359.66088,144.18905 c -5.20222,1.58886 -13.48475,1.52229 -18.37945,-0.11782 l 388.90873,388.90873 c 4.8947,1.64011 13.17723,1.70668 18.37945,0.11782 z"
       id="path3439"
       style="fill:#000000" />
    <path
       inkscape:connector-curvature="0"
       d="m 341.28143,144.07123 c -4.91858,-1.6438 -9.26342,-4.34755 -12.79361,-7.87774 l 388.90873,388.90873 c 3.53019,3.53019 7.87503,6.23394 12.79361,7.87774 z"
       id="path3441"
       style="fill:#000000" />
    <path
       inkscape:connector-curvature="0"
       d="m 328.48782,136.19349 c -3.51432,-3.51432 -6.2213,-7.84766 -7.88328,-12.76969 l 388.90873,388.90873 c 1.66198,4.92203 4.36896,9.25537 7.88328,12.76969 z"
       id="path3443"
       style="fill:#000000" />
    <path
       inkscape:connector-curvature="0"
       d="m 320.60454,123.4238 c -1.07632,-3.22896 -1.29598,-7.23867 -1.29598,-22.17905 l 388.90873,388.90873 c 0,14.94038 0.21966,18.95009 1.29598,22.17905 z"
       id="path3445"
       style="fill:#000000" />
    <path
       inkscape:connector-curvature="0"
       d="m 319.30856,101.24475 0,-18.320546 388.90873,388.908726 0,18.32055 z"
       id="path3447"
       style="fill:#000000" />
    <path
       inkscape:connector-curvature="0"
       d="m 319.30856,82.924204 -63.32664,0 388.90873,388.908726 63.32664,0 z"
       id="path3449"
       style="fill:#000000" />
    <path
       inkscape:connector-curvature="0"
       d="m 255.98192,82.924204 -63.26773,0 388.90873,388.908726 63.26773,0 z"
       id="path3451"
       style="fill:#000000" />
    <path
       inkscape:connector-curvature="0"
       d="m 192.71419,82.924204 0,18.320546 388.90873,388.90873 0,-18.32055 z"
       id="path3453"
       style="fill:#000000" />
    <path
       inkscape:connector-curvature="0"
       d="m 192.71419,101.24475 c 0,14.94038 -0.28234,18.95009 -1.38435,22.17905 l 388.90873,388.90873 c 1.10201,-3.22896 1.38435,-7.23867 1.38435,-22.17905 z"
       id="path3455"
       style="fill:#000000" />
    <path
       inkscape:connector-curvature="0"
       d="m 191.32984,123.4238 c -7.6403,22.6444 -35.6358,29.41037 -52.06229,12.98388 l 388.90873,388.90873 c 16.42649,16.42649 44.42199,9.66052 52.06229,-12.98388 z"
       id="path3457"
       style="fill:#000000" />
    <path
       inkscape:connector-curvature="0"
       d="m 139.26755,136.40768 c -0.32301,-0.32302 -0.64155,-0.655 -0.95537,-0.996 l 388.90873,388.90873 c 0.31382,0.341 0.63236,0.67298 0.95537,0.996 z"
       id="path3459"
       style="fill:#000000" />
    <path
       inkscape:connector-curvature="0"
       d="m 138.31218,135.41168 c -4.12585,-4.48468 -7.10436,-10.66531 -8.12937,-16.9951 l 388.90873,388.90873 c 1.02501,6.32979 4.00352,12.51042 8.12937,16.9951 z"
       id="path3461"
       style="fill:#000000" />
    <path
       inkscape:connector-curvature="0"
       d="m 130.18281,118.41658 c -0.4101,-2.56267 -0.76982,-11.63482 -0.79526,-20.11726 l 388.90873,388.90873 c 0.0254,8.48244 0.38516,17.55459 0.79526,20.11726 z"
       id="path3463"
       style="fill:#000000" />
    <path
       inkscape:connector-curvature="0"
       d="m 129.38755,98.29932 0,-15.404571 388.90873,388.908731 0,15.40457 z"
       id="path3465"
       style="fill:#000000" />
    <path
       inkscape:connector-curvature="0"
       d="m 129.38755,82.894749 -19.02745,0 388.90873,388.908731 19.02745,0 z"
       id="path3467"
       style="fill:#000000" />
    <path
       inkscape:connector-curvature="0"
       d="m 110.3601,82.894749 0.0589,-0.117817 388.90873,388.908728 -0.0589,0.11782 z"
       id="path3469"
       style="fill:#000000" />
    <path
       inkscape:connector-curvature="0"
       d="m 82.172386,192.61188 173.809534,0 388.90873,388.90873 -173.80953,0 z"
       id="path3471"
       style="fill:#000000" />
    <path
       inkscape:connector-curvature="0"
       d="m 255.98192,192.61188 173.83899,0 388.90873,388.90873 -173.83899,0 z"
       id="path3473"
       style="fill:#000000" />
    <path
       inkscape:connector-curvature="0"
       d="m 429.82091,192.61188 0,111.1898 388.90873,388.90873 0,-111.1898 z"
       id="path3475"
       style="fill:#000000" />
    <path
       inkscape:connector-curvature="0"
       d="m 429.82091,303.80168 c 0,78.95593 -0.24296,112.06064 -0.88363,114.34141 l 388.90873,388.90873 c 0.64067,-2.28077 0.88363,-35.38548 0.88363,-114.34141 z"
       id="path3477"
       style="fill:#000000" />
    <path
       inkscape:connector-curvature="0"
       d="m 428.93728,418.14309 c -1.1532,4.17715 -6.51473,9.5976 -10.69189,10.7508 l 388.90873,388.90873 c 4.17716,-1.1532 9.53869,-6.57365 10.69189,-10.7508 z"
       id="path3479"
       style="fill:#000000" />
    <path
       inkscape:connector-curvature="0"
       d="m 418.24539,428.89389 c -2.30641,0.64067 -48.24873,0.90926 -162.64638,0.88363 l 388.90873,388.90873 c 114.39765,0.0256 160.33997,-0.24296 162.64638,-0.88363 z"
       id="path3481"
       style="fill:#000000" />
    <path
       inkscape:connector-curvature="0"
       d="M 255.59901,429.77752 C 120.23868,429.75192 95.698485,429.54371 92.982096,428.56989 L 481.89083,817.47862 c 2.71638,0.97382 27.25658,1.18203 162.61691,1.20763 z"
       id="path3483"
       style="fill:#000000" />
    <path
       inkscape:connector-curvature="0"
       d="m 92.982096,428.56989 c -1.881726,-0.66692 -3.927407,-2.11598 -5.691432,-3.88001 L 476.19939,813.59861 c 1.76403,1.76403 3.80971,3.21309 5.69144,3.88001 z"
       id="path3485"
       style="fill:#000000" />
    <path
       inkscape:connector-curvature="0"
       d="m 87.290664,424.68988 c -2.031837,-2.03184 -3.690004,-4.48153 -4.293559,-6.63516 L 471.90583,806.96345 c 0.60356,2.15363 2.26173,4.60332 4.29356,6.63516 z"
       id="path3487"
       style="fill:#000000" />
    <path
       inkscape:connector-curvature="0"
       d="M 82.997105,418.05472 C 82.407643,415.90207 82.172386,380.70747 82.172386,303.80168 L 471.08112,692.71041 c 0,76.90579 0.23525,112.10039 0.82471,114.25304 z"
       id="path3489"
       style="fill:#000000" />
    <path
       inkscape:connector-curvature="0"
       d="m 82.172386,303.80168 0,-111.1898 388.908734,388.90873 0,111.1898 z"
       id="path3491"
       style="fill:#000000" />
    <path
       inkscape:connector-curvature="0"
       d="m 100.49293,207.51574 0,207.35792 388.90873,388.90873 0,-207.35792 z"
       id="path3493"
       style="fill:#000000" />
    <path
       inkscape:connector-curvature="0"
       d="m 100.49293,414.87366 56.5227,0 388.90873,388.90873 -56.5227,0 z"
       id="path3495"
       style="fill:#000000" />
    <path
       inkscape:connector-curvature="0"
       d="m 157.01563,414.87366 0,-207.35792 388.90873,388.90873 0,207.35792 z"
       id="path3497"
       style="fill:#000000" />
    <path
       inkscape:connector-curvature="0"
       d="m 157.01563,207.51574 -56.5227,0 388.90873,388.90873 56.5227,0 z"
       id="path3499"
       style="fill:#000000" />
    <path
       inkscape:connector-curvature="0"
       d="m 185.29171,207.51574 0,207.35792 388.90873,388.90873 0,-207.35792 z"
       id="path3501"
       style="fill:#000000" />
    <path
       inkscape:connector-curvature="0"
       d="m 185.29171,414.87366 56.55217,0 388.90873,388.90873 -56.55217,0 z"
       id="path3503"
       style="fill:#000000" />
    <path
       inkscape:connector-curvature="0"
       d="m 241.84388,414.87366 0,-207.35792 388.90873,388.90873 0,207.35792 z"
       id="path3505"
       style="fill:#000000" />
    <path
       inkscape:connector-curvature="0"
       d="m 241.84388,207.51574 -56.55217,0 388.90873,388.90873 56.55217,0 z"
       id="path3507"
       style="fill:#000000" />
    <path
       inkscape:connector-curvature="0"
       d="m 270.11996,207.51574 0,207.35792 388.90873,388.90873 0,-207.35792 z"
       id="path3509"
       style="fill:#000000" />
    <path
       inkscape:connector-curvature="0"
       d="m 270.11996,414.87366 56.55216,0 388.90873,388.90873 -56.55216,0 z"
       id="path3511"
       style="fill:#000000" />
    <path
       inkscape:connector-curvature="0"
       d="m 326.67212,414.87366 0,-207.35792 388.90873,388.90873 0,207.35792 z"
       id="path3513"
       style="fill:#000000" />
    <path
       inkscape:connector-curvature="0"
       d="m 326.67212,207.51574 -56.55216,0 388.90873,388.90873 56.55216,0 z"
       id="path3515"
       style="fill:#000000" />
    <path
       inkscape:connector-curvature="0"
       d="m 354.9482,207.51574 0,207.35792 388.90873,388.90873 0,-207.35792 z"
       id="path3517"
       style="fill:#000000" />
    <path
       inkscape:connector-curvature="0"
       d="m 354.9482,414.87366 56.55216,0 388.90873,388.90873 -56.55216,0 z"
       id="path3519"
       style="fill:#000000" />
    <path
       inkscape:connector-curvature="0"
       d="m 411.50036,414.87366 0,-207.35792 388.90873,388.90873 0,207.35792 z"
       id="path3521"
       style="fill:#000000" />
    <path
       inkscape:connector-curvature="0"
       d="m 411.50036,207.51574 -56.55216,0 388.90873,388.90873 56.55216,0 z"
       id="path3523"
       style="fill:#000000" />
  </g>
  <path
     style="fill:#ffffff"
     d="m 161.63995,50.966391 c -3.56213,-0.05127 -7.17105,1.197153 -10.22062,3.887961 -5.56116,4.869075 -5.52058,4.720164 -5.80249,32.576402 -0.15373,16.144836 0.0292,26.579066 0.61854,29.218616 1.10192,5.15097 4.11087,9.10538 8.365,11.10425 7.50862,3.51088 16.98168,0.34592 20.44125,-6.80393 1.69139,-3.48524 1.76245,-4.25155 1.53163,-31.92841 l -0.26509,-28.393895 -2.26798,-3.004333 C 170.73434,53.292136 166.2309,51.0471 161.6694,50.995845 l -0.0294,-0.02945 z"
     id="path3224" />
  <path
     style="fill:#ffffff"
     d="m 350.4417,50.995841 c -4.56156,0.05127 -9.03549,2.296291 -12.34133,6.627207 l -2.32689,3.004333 0,29.395349 0,29.33643 2.12071,3.23997 c 1.25571,1.89637 3.60125,3.8938 5.62576,4.91886 6.58607,3.25459 15.17812,1.50014 19.3809,-4.03523 3.43398,-4.5103 3.84586,-8.78136 3.56396,-36.022556 -0.28189,-27.856247 -0.24148,-27.707326 -5.80248,-32.576402 -3.04959,-2.690808 -6.65852,-3.939216 -10.22063,-3.887961 z"
     id="path3222" />
  <path
     style="fill:#ffffff"
     d="M 110.40625 82.78125 C 95.798833 82.78125 90.263849 83.114309 86.625 84.0625 C 71.14639 88.085891 58.480961 99.9927 53.125 115.625 L 51.34375 120.8125 L 51.09375 268.84375 C 50.8633 433.85419 50.560284 422.87856 56.53125 435 C 62.579221 447.24956 74.965862 456.77168 88.625 459.71875 C 96.620345 461.43575 414.85633 461.46724 423.03125 459.75 C 437.04906 456.82856 449.40647 447.43458 455.53125 435.03125 C 461.50228 422.90981 461.13688 433.88544 460.90625 268.875 L 460.71875 120.84375 L 458.9375 115.65625 C 453.58152 100.02396 440.94728 88.085891 425.46875 84.0625 C 421.82975 83.114309 416.23223 82.84375 401.625 82.84375 L 382.53125 82.84375 L 382.53125 98.25 C 382.53125 106.73244 382.21691 115.72421 381.78125 118.3125 C 379.75674 130.71584 371.3164 140.57413 359.65625 144.1875 C 354.45403 145.77636 346.17595 145.70261 341.28125 144.0625 C 331.46622 140.78229 323.92522 133.30379 320.59375 123.4375 C 319.51743 120.20854 319.3125 116.19038 319.3125 101.25 L 319.3125 82.9375 L 255.96875 82.9375 L 192.71875 82.9375 L 192.71875 101.25 C 192.71875 116.19038 192.44576 120.20854 191.34375 123.4375 C 183.55321 146.52718 154.58548 153.08869 138.3125 135.40625 C 134.18665 130.92157 131.21251 124.73604 130.1875 118.40625 C 129.7774 115.84358 129.40044 106.79494 129.375 98.3125 L 129.375 82.90625 L 110.375 82.90625 L 110.40625 82.78125 z M 82.1875 192.625 L 255.96875 192.625 L 429.8125 192.625 L 429.8125 303.8125 C 429.8125 382.76843 429.57817 415.87548 428.9375 418.15625 C 427.7843 422.3334 422.42716 427.75305 418.25 428.90625 C 415.94359 429.54692 369.9914 429.80688 255.59375 429.78125 C 120.23342 429.75565 95.685139 429.53632 92.96875 428.5625 C 88.919615 427.12741 84.127556 422.0859 83 418.0625 C 82.410538 415.90985 82.1875 380.71829 82.1875 303.8125 L 82.1875 192.625 z "
     id="path3220" />
  <path
     style="fill:#ffffff;fill-opacity:1;stroke:none"
     d="m 204.11094,225.27297 c -48.71598,0 -88.19307,39.51376 -88.19307,88.22974 0,48.71598 39.47709,88.19307 88.19307,88.19307 19.39225,0 37.28842,-6.30163 51.85239,-16.9052 14.5613,10.61426 32.48607,16.9052 51.88906,16.9052 48.71598,0 88.22974,-39.47709 88.22974,-88.19307 0,-48.71598 -39.51376,-88.22974 -88.22974,-88.22974 -19.40299,0 -37.32776,6.28394 -51.88906,16.9052 -14.56397,-10.61057 -32.46014,-16.9052 -51.85239,-16.9052 z m 0,19.72885 c 13.63872,0 26.32282,4.01499 37.00075,10.8912 -13.34693,15.46259 -21.45237,35.5821 -21.45237,57.60969 0,22.03228 8.10035,42.15401 21.45237,57.60969 -10.67607,6.86658 -23.36585,10.85453 -37.00075,10.85453 -37.81935,0 -68.46422,-30.64487 -68.46422,-68.46422 0,-37.81935 30.64487,-68.50089 68.46422,-68.50089 z m 103.74145,0 c 37.81935,0 68.50089,30.68154 68.50089,68.50089 0,37.81935 -30.68154,68.46422 -68.50089,68.46422 -13.62392,0 -26.29943,-3.99812 -36.96408,-10.85453 13.35527,-15.45441 21.45237,-35.582 21.45237,-57.60969 0,-22.03303 -8.09131,-42.18226 -21.45237,-57.64636 10.66303,-6.85941 23.3435,-10.85453 36.96408,-10.85453 z M 256,268.80111 c 10.34805,11.99991 16.61183,27.62064 16.61183,44.7016 0,17.07541 -6.2698,32.67477 -16.61183,44.66493 -10.33906,-11.99151 -16.61183,-27.58468 -16.61183,-44.66493 0,-17.08563 6.26692,-32.7004 16.61183,-44.7016 z"
     id="path3227"
     inkscape:connector-curvature="0" />
</svg>
