<?xml version="1.0" encoding="UTF-8" standalone="no"?>
<svg
   xmlns:dc="http://purl.org/dc/elements/1.1/"
   xmlns:cc="http://creativecommons.org/ns#"
   xmlns:rdf="http://www.w3.org/1999/02/22-rdf-syntax-ns#"
   xmlns:svg="http://www.w3.org/2000/svg"
   xmlns="http://www.w3.org/2000/svg"
   xmlns:sodipodi="http://sodipodi.sourceforge.net/DTD/sodipodi-0.dtd"
   xmlns:inkscape="http://www.inkscape.org/namespaces/inkscape"
   sodipodi:docname="view-calendar-workweek.svg"
   height="100%"
   width="100%"
   inkscape:version="0.48.5 r10040"
   version="1.1"
   id="svg2"
   viewBox="0 0 512 512">
  <sodipodi:namedview
     pagecolor="#ffffff"
     bordercolor="#ffffff"
     borderopacity="1"
     objecttolerance="10"
     gridtolerance="10"
     guidetolerance="10"
     inkscape:pageopacity="0"
     inkscape:pageshadow="2"
     inkscape:window-width="1306"
     inkscape:window-height="715"
     id="namedview6"
     showgrid="false"
     showguides="true"
     inkscape:guide-bbox="true"
     inkscape:zoom="0.65186405"
     inkscape:cx="122.27664"
     inkscape:cy="235.81064"
     inkscape:window-x="56"
     inkscape:window-y="28"
     inkscape:window-maximized="1"
     inkscape:current-layer="svg2">
    <sodipodi:guide
       orientation="0,1"
       position="260.08346,471.00503"
       id="guide2989" />
    <sodipodi:guide
       orientation="0,1"
       position="267.59322,40.983051"
       id="guide2991" />
    <sodipodi:guide
       orientation="1,0"
       position="40.940284,84.756935"
       id="guide2993" />
    <sodipodi:guide
       orientation="1,0"
       position="471.05085,254.98305"
       id="guide2995" />
  </sodipodi:namedview>
  <metadata
     id="metadata10">
    <rdf:RDF>
      <cc:Work
         rdf:about="">
        <dc:format>image/svg+xml</dc:format>
        <dc:type
           rdf:resource="http://purl.org/dc/dcmitype/StillImage" />
        <dc:title />
      </cc:Work>
    </rdf:RDF>
  </metadata>
  <defs
     id="defs8">
    <clipPath
       id="clipPath5020"
       clipPathUnits="userSpaceOnUse">
      <path
         inkscape:connector-curvature="0"
         id="path5022"
         d="M 26,0 C 11.602648,0 0,11.602648 0,26 l 0,460 c 0,14.39735 11.602648,26 26,26 l 460,0 c 14.39735,0 26,-11.60265 26,-26 L 512,26 C 512,11.602648 500.39735,0 486,0 L 26,0 z"
         style="fill:none;fill-opacity:1;stroke:none" />
    </clipPath>
    <clipPath
       clipPathUnits="userSpaceOnUse"
       id="clipPath3935">
      <path
         id="path3937"
         d="M 26,0 C 11.602648,0 0,11.602648 0,26 l 0,460 c 0,14.39735 11.602648,26 26,26 l 460,0 c 14.39735,0 26,-11.60265 26,-26 L 512,26 C 512,11.602648 500.39735,0 486,0 L 26,0 z"
         style="fill:none;fill-opacity:1;stroke:none"
         inkscape:connector-curvature="0" />
    </clipPath>
  </defs>
  <path
     style="fill:none;fill-opacity:1;stroke:none"
     d="M 26 0 C 11.602648 0 0 11.602648 0 26 L 0 486 C 0 500.39735 11.602648 512 26 512 L 486 512 C 500.39735 512 512 500.39735 512 486 L 512 26 C 512 11.602648 500.39735 0 486 0 L 26 0 z "
     id="rect2986" />
  <g
     style="fill:#000000;opacity:0.0"
     id="g3355"
     clip-path="url(#clipPath3935)">
    <path
       inkscape:connector-curvature="0"
       d="m 161.63995,50.9664 c -3.56213,-0.05127 -7.17105,1.197153 -10.22062,3.887961 L 540.32806,443.76309 c 3.04957,-2.69081 6.65849,-3.93923 10.22062,-3.88796 z"
       id="path3357"
       style="fill:#000000" />
    <path
       inkscape:connector-curvature="0"
       d="m 151.41933,54.854361 c -5.56116,4.869075 -5.52058,4.720164 -5.80249,32.576402 L 534.52557,476.33949 c 0.28191,-27.85624 0.24133,-27.70732 5.80249,-32.5764 z"
       id="path3359"
       style="fill:#000000" />
    <path
       inkscape:connector-curvature="0"
       d="m 145.61684,87.430763 c -0.15373,16.144827 0.0292,26.579067 0.61854,29.218617 l 388.90873,388.90873 c -0.58934,-2.63955 -0.77227,-13.07379 -0.61854,-29.21862 z"
       id="path3361"
       style="fill:#000000" />
    <path
       inkscape:connector-curvature="0"
       d="m 146.23538,116.64938 c 0.71161,3.32645 2.21854,6.15388 4.34254,8.27788 l 388.90873,388.90873 c -2.124,-2.124 -3.63093,-4.95143 -4.34254,-8.27788 z"
       id="path3363"
       style="fill:#000000" />
    <path
       inkscape:connector-curvature="0"
       d="m 150.57792,124.92726 c 1.16498,1.16499 2.51561,2.11835 4.02246,2.82637 l 388.90873,388.90873 c -1.50685,-0.70802 -2.85748,-1.66138 -4.02246,-2.82637 z"
       id="path3365"
       style="fill:#000000" />
    <path
       inkscape:connector-curvature="0"
       d="m 154.60038,127.75363 c 7.50862,3.51087 16.98168,0.34592 20.44125,-6.80393 l 388.90873,388.90873 c -3.45957,7.14985 -12.93263,10.3148 -20.44125,6.80393 z"
       id="path3367"
       style="fill:#000000" />
    <path
       inkscape:connector-curvature="0"
       d="m 175.04163,120.9497 c 1.69139,-3.48524 1.76245,-4.25155 1.53163,-31.92841 l 388.90873,388.90873 c 0.23082,27.67686 0.15976,28.44317 -1.53163,31.92841 z"
       id="path3369"
       style="fill:#000000" />
    <path
       inkscape:connector-curvature="0"
       d="m 176.57326,89.02129 -0.26509,-28.393896 388.90873,388.908726 0.26509,28.3939 z"
       id="path3371"
       style="fill:#000000" />
    <path
       inkscape:connector-curvature="0"
       d="m 176.30817,60.627394 -2.26798,-3.004333 388.90873,388.908729 2.26798,3.00433 z"
       id="path3373"
       style="fill:#000000" />
    <path
       inkscape:connector-curvature="0"
       d="m 174.04019,57.623061 c -0.52934,-0.693478 -1.08939,-1.333476 -1.67546,-1.91955 L 561.27346,444.61224 c 0.58607,0.58608 1.14612,1.22607 1.67546,1.91955 z"
       id="path3375"
       style="fill:#000000" />
    <path
       inkscape:connector-curvature="0"
       d="M 172.36473,55.703511 C 169.29065,52.629429 165.5005,51.038902 161.6694,50.995854 L 550.57813,439.90458 c 3.8311,0.043 7.62125,1.63358 10.69533,4.70766 z"
       id="path3377"
       style="fill:#000000" />
    <path
       inkscape:connector-curvature="0"
       d="m 161.6694,50.995854 -0.0294,-0.02945 388.90873,388.908726 0.0294,0.0294 z"
       id="path3379"
       style="fill:#000000" />
    <path
       inkscape:connector-curvature="0"
       d="m 350.4417,50.99585 c -4.56156,0.05127 -9.03549,2.296291 -12.34133,6.627207 L 727.0091,446.53179 c 3.30584,-4.33092 7.77977,-6.57594 12.34133,-6.62721 z"
       id="path3381"
       style="fill:#000000" />
    <path
       inkscape:connector-curvature="0"
       d="m 338.10037,57.623057 -2.32689,3.004333 388.90873,388.90873 2.32689,-3.00433 z"
       id="path3383"
       style="fill:#000000" />
    <path
       inkscape:connector-curvature="0"
       d="m 335.77348,60.62739 0,29.39535 388.90873,388.90873 0,-29.39535 z"
       id="path3385"
       style="fill:#000000" />
    <path
       inkscape:connector-curvature="0"
       d="m 335.77348,90.02274 0,29.33643 388.90873,388.90873 0,-29.33643 z"
       id="path3387"
       style="fill:#000000" />
    <path
       inkscape:connector-curvature="0"
       d="m 335.77348,119.35917 2.12071,3.23997 388.90873,388.90873 -2.12071,-3.23997 z"
       id="path3389"
       style="fill:#000000" />
    <path
       inkscape:connector-curvature="0"
       d="m 337.89419,122.59914 c 0.43219,0.65269 0.99348,1.31735 1.62635,1.95022 l 388.90873,388.90873 c -0.63287,-0.63287 -1.19416,-1.29753 -1.62635,-1.95022 z"
       id="path3391"
       style="fill:#000000" />
    <path
       inkscape:connector-curvature="0"
       d="m 339.52054,124.54936 c 1.2059,1.20591 2.67169,2.29638 3.99941,2.96864 l 388.90873,388.90873 c -1.32772,-0.67226 -2.79351,-1.76273 -3.99941,-2.96864 z"
       id="path3393"
       style="fill:#000000" />
    <path
       inkscape:connector-curvature="0"
       d="m 343.51995,127.518 c 6.58607,3.25459 15.17812,1.50014 19.3809,-4.03523 L 751.80958,512.3915 c -4.20278,5.53537 -12.79483,7.28982 -19.3809,4.03523 z"
       id="path3395"
       style="fill:#000000" />
    <path
       inkscape:connector-curvature="0"
       d="m 362.90085,123.48277 c 3.43398,-4.5103 3.84586,-8.78136 3.56396,-36.022557 L 755.37354,476.36894 c 0.2819,27.2412 -0.12998,31.51226 -3.56396,36.02256 z"
       id="path3397"
       style="fill:#000000" />
    <path
       inkscape:connector-curvature="0"
       d="M 366.46481,87.460213 C 366.2223,63.495621 366.21833,60.257867 362.6812,56.720741 L 751.58993,445.62947 c 3.53713,3.53713 3.5411,6.77488 3.78361,30.73947 z"
       id="path3399"
       style="fill:#000000" />
    <path
       inkscape:connector-curvature="0"
       d="m 362.6812,56.720741 c -0.5744,-0.574401 -1.24197,-1.156696 -2.01887,-1.83693 L 749.57106,443.79254 c 0.7769,0.68023 1.44447,1.26253 2.01887,1.83693 z"
       id="path3401"
       style="fill:#000000" />
    <path
       inkscape:connector-curvature="0"
       d="m 360.66233,54.883811 c -3.04959,-2.690808 -6.65852,-3.939216 -10.22063,-3.887961 l 388.90873,388.90873 c 3.56211,-0.0513 7.17104,1.19715 10.22063,3.88796 z"
       id="path3403"
       style="fill:#000000" />
    <path
       inkscape:connector-curvature="0"
       d="m 110.41901,82.776991 c -14.607417,0 -20.160183,0.347796 -23.799032,1.295987 L 475.52871,472.98171 c 3.63885,-0.94819 9.19161,-1.29599 23.79903,-1.29599 z"
       id="path3405"
       style="fill:#000000" />
    <path
       inkscape:connector-curvature="0"
       d="M 86.619978,84.072978 C 71.141368,88.09637 58.486455,99.98618 53.130494,115.61848 L 442.03922,504.52721 c 5.35596,-15.6323 18.01088,-27.52211 33.48949,-31.5455 z"
       id="path3407"
       style="fill:#000000" />
    <path
       inkscape:connector-curvature="0"
       d="m 53.130494,115.61848 -1.796709,5.18395 388.908725,388.90873 1.79671,-5.18395 z"
       id="path3409"
       style="fill:#000000" />
    <path
       inkscape:connector-curvature="0"
       d="M 51.333785,120.80243 51.098151,268.8395 440.00688,657.74823 440.24251,509.71116 z"
       id="path3411"
       style="fill:#000000" />
    <path
       inkscape:connector-curvature="0"
       d="m 51.098151,268.8395 c -0.23045,165.01044 -0.551384,154.02999 5.419582,166.15143 L 445.42646,823.89966 c -5.97096,-12.12144 -5.65003,-1.14099 -5.41958,-166.15143 z"
       id="path3413"
       style="fill:#000000" />
    <path
       inkscape:connector-curvature="0"
       d="m 56.517733,434.99093 c 2.120218,4.29429 5.020839,8.25619 8.482612,11.71796 L 453.90907,835.61762 c -3.46177,-3.46177 -6.36239,-7.42367 -8.48261,-11.71796 z"
       id="path3415"
       style="fill:#000000" />
    <path
       inkscape:connector-curvature="0"
       d="m 65.000345,446.70889 c 6.413018,6.41302 14.751824,11.10968 23.622522,13.02361 L 477.5316,848.64123 c -8.8707,-1.91393 -17.20951,-6.61059 -23.62253,-13.02361 z"
       id="path3417"
       style="fill:#000000" />
    <path
       inkscape:connector-curvature="0"
       d="m 88.622867,459.7325 c 7.995345,1.717 326.219193,1.74659 334.394113,0.0294 l 388.90873,388.90873 c -8.17492,1.71719 -326.39877,1.6876 -334.39411,-0.0294 z"
       id="path3419"
       style="fill:#000000" />
    <path
       inkscape:connector-curvature="0"
       d="m 423.01698,459.7619 c 14.01781,-2.92145 26.39271,-12.33824 32.51749,-24.74157 L 844.4432,823.92906 c -6.12478,12.40333 -18.49968,21.82012 -32.51749,24.74157 z"
       id="path3421"
       style="fill:#000000" />
    <path
       inkscape:connector-curvature="0"
       d="m 455.53447,435.02033 c 5.97103,-12.12144 5.5913,-1.14099 5.36067,-166.15143 l 388.90873,388.90873 c 0.23063,165.01044 0.61036,154.02999 -5.36067,166.15143 z"
       id="path3423"
       style="fill:#000000" />
    <path
       inkscape:connector-curvature="0"
       d="m 460.89514,268.8689 -0.17672,-148.03707 388.90873,388.90873 0.17672,148.03707 z"
       id="path3425"
       style="fill:#000000" />
    <path
       inkscape:connector-curvature="0"
       d="m 460.71842,120.83183 -1.76726,-5.18394 388.90873,388.90873 1.76726,5.18394 z"
       id="path3427"
       style="fill:#000000" />
    <path
       inkscape:connector-curvature="0"
       d="m 458.95116,115.64789 c -2.51476,-7.33971 -6.6386,-13.86088 -11.90828,-19.130562 L 835.95161,485.42606 c 5.26968,5.26968 9.39352,11.79085 11.90828,19.13056 z"
       id="path3429"
       style="fill:#000000" />
    <path
       inkscape:connector-curvature="0"
       d="M 447.04288,96.517328 C 441.0891,90.56355 433.67267,86.207292 425.46168,84.072978 L 814.37041,472.98171 c 8.21099,2.13431 15.62742,6.49057 21.5812,12.44435 z"
       id="path3431"
       style="fill:#000000" />
    <path
       inkscape:connector-curvature="0"
       d="m 425.46168,84.072978 c -3.639,-0.948191 -9.22126,-1.237078 -23.82849,-1.237078 l 388.90873,388.90873 c 14.60723,0 20.18949,0.28889 23.82849,1.23708 z"
       id="path3433"
       style="fill:#000000" />
    <path
       inkscape:connector-curvature="0"
       d="m 401.63319,82.8359 -19.08636,0 388.90873,388.90873 19.08636,0 z"
       id="path3435"
       style="fill:#000000" />
    <path
       inkscape:connector-curvature="0"
       d="m 382.54683,82.8359 0,15.40457 388.90873,388.90873 0,-15.40457 z"
       id="path3437"
       style="fill:#000000" />
    <path
       inkscape:connector-curvature="0"
       d="m 382.54683,98.24047 c 0,8.48244 -0.33015,17.47006 -0.76581,20.05835 l 388.90873,388.90873 c 0.43566,-2.58829 0.76581,-11.57591 0.76581,-20.05835 z"
       id="path3439"
       style="fill:#000000" />
    <path
       inkscape:connector-curvature="0"
       d="m 381.78102,118.29882 c -2.02451,12.40334 -10.45999,22.27692 -22.12014,25.89028 l 388.90873,388.90873 c 11.66015,-3.61336 20.09563,-13.48694 22.12014,-25.89028 z"
       id="path3441"
       style="fill:#000000" />
    <path
       inkscape:connector-curvature="0"
       d="m 359.66088,144.1891 c -5.20222,1.58887 -13.48475,1.52229 -18.37945,-0.11781 l 388.90873,388.90873 c 4.8947,1.6401 13.17723,1.70668 18.37945,0.11781 z"
       id="path3443"
       style="fill:#000000" />
    <path
       inkscape:connector-curvature="0"
       d="m 341.28143,144.07129 c -4.91858,-1.64381 -9.26342,-4.34755 -12.79361,-7.87775 l 388.90873,388.90873 c 3.53019,3.5302 7.87503,6.23394 12.79361,7.87775 z"
       id="path3445"
       style="fill:#000000" />
    <path
       inkscape:connector-curvature="0"
       d="m 328.48782,136.19354 c -3.51432,-3.51431 -6.2213,-7.84766 -7.88328,-12.76968 l 388.90873,388.90873 c 1.66198,4.92202 4.36896,9.25537 7.88328,12.76968 z"
       id="path3447"
       style="fill:#000000" />
    <path
       inkscape:connector-curvature="0"
       d="m 320.60454,123.42386 c -1.07632,-3.22896 -1.29598,-7.23867 -1.29598,-22.17905 l 388.90873,388.90873 c 0,14.94038 0.21966,18.95009 1.29598,22.17905 z"
       id="path3449"
       style="fill:#000000" />
    <path
       inkscape:connector-curvature="0"
       d="m 319.30856,101.24481 0,-18.320547 388.90873,388.908727 0,18.32055 z"
       id="path3451"
       style="fill:#000000" />
    <path
       inkscape:connector-curvature="0"
       d="m 319.30856,82.924263 -63.32664,0 388.90873,388.908727 63.32664,0 z"
       id="path3453"
       style="fill:#000000" />
    <path
       inkscape:connector-curvature="0"
       d="m 255.98192,82.924263 -63.26773,0 388.90873,388.908727 63.26773,0 z"
       id="path3455"
       style="fill:#000000" />
    <path
       inkscape:connector-curvature="0"
       d="m 192.71419,82.924263 0,18.320547 388.90873,388.90873 0,-18.32055 z"
       id="path3457"
       style="fill:#000000" />
    <path
       inkscape:connector-curvature="0"
       d="m 192.71419,101.24481 c 0,14.94038 -0.28234,18.95009 -1.38435,22.17905 l 388.90873,388.90873 c 1.10201,-3.22896 1.38435,-7.23867 1.38435,-22.17905 z"
       id="path3459"
       style="fill:#000000" />
    <path
       inkscape:connector-curvature="0"
       d="m 191.32984,123.42386 c -7.6403,22.6444 -35.6358,29.41037 -52.06229,12.98388 l 388.90873,388.90873 c 16.42649,16.42649 44.42199,9.66052 52.06229,-12.98388 z"
       id="path3461"
       style="fill:#000000" />
    <path
       inkscape:connector-curvature="0"
       d="m 139.26755,136.40774 c -0.32301,-0.32302 -0.64155,-0.655 -0.95537,-0.996 l 388.90873,388.90873 c 0.31382,0.341 0.63236,0.67298 0.95537,0.996 z"
       id="path3463"
       style="fill:#000000" />
    <path
       inkscape:connector-curvature="0"
       d="m 138.31218,135.41174 c -4.12585,-4.48468 -7.10436,-10.66531 -8.12937,-16.9951 l 388.90873,388.90873 c 1.02501,6.32979 4.00352,12.51042 8.12937,16.9951 z"
       id="path3465"
       style="fill:#000000" />
    <path
       inkscape:connector-curvature="0"
       d="m 130.18281,118.41664 c -0.4101,-2.56268 -0.76982,-11.63482 -0.79526,-20.11726 l 388.90873,388.90873 c 0.0254,8.48244 0.38516,17.55458 0.79526,20.11726 z"
       id="path3467"
       style="fill:#000000" />
    <path
       inkscape:connector-curvature="0"
       d="m 129.38755,98.29938 0,-15.404572 388.90873,388.908732 0,15.40457 z"
       id="path3469"
       style="fill:#000000" />
    <path
       inkscape:connector-curvature="0"
       d="m 129.38755,82.894808 -19.02745,0 388.90873,388.908732 19.02745,0 z"
       id="path3471"
       style="fill:#000000" />
    <path
       inkscape:connector-curvature="0"
       d="m 110.3601,82.894808 0.0589,-0.117817 388.90873,388.908729 -0.0589,0.11782 z"
       id="path3473"
       style="fill:#000000" />
    <path
       inkscape:connector-curvature="0"
       d="m 82.172386,192.61189 173.809534,0 388.90873,388.90873 -173.80953,0 z"
       id="path3475"
       style="fill:#000000" />
    <path
       inkscape:connector-curvature="0"
       d="m 255.98192,192.61189 173.83899,0 388.90873,388.90873 -173.83899,0 z"
       id="path3477"
       style="fill:#000000" />
    <path
       inkscape:connector-curvature="0"
       d="m 429.82091,192.61189 0,111.1898 388.90873,388.90873 0,-111.1898 z"
       id="path3479"
       style="fill:#000000" />
    <path
       inkscape:connector-curvature="0"
       d="m 429.82091,303.80169 c 0,78.95593 -0.24296,112.06064 -0.88363,114.3414 l 388.90873,388.90873 c 0.64067,-2.28076 0.88363,-35.38547 0.88363,-114.3414 z"
       id="path3481"
       style="fill:#000000" />
    <path
       inkscape:connector-curvature="0"
       d="m 428.93728,418.14309 c -1.1532,4.17716 -6.51473,9.59761 -10.69189,10.75081 l 388.90873,388.90873 c 4.17716,-1.1532 9.53869,-6.57365 10.69189,-10.75081 z"
       id="path3483"
       style="fill:#000000" />
    <path
       inkscape:connector-curvature="0"
       d="m 418.24539,428.8939 c -2.30641,0.64067 -48.24873,0.90926 -162.64638,0.88362 l 388.90873,388.90873 c 114.39765,0.0256 160.33997,-0.24295 162.64638,-0.88362 z"
       id="path3485"
       style="fill:#000000" />
    <path
       inkscape:connector-curvature="0"
       d="M 255.59901,429.77752 C 120.23868,429.75192 95.698485,429.54372 92.982096,428.5699 L 481.89083,817.47863 c 2.71638,0.97382 27.25658,1.18202 162.61691,1.20762 z"
       id="path3487"
       style="fill:#000000" />
    <path
       inkscape:connector-curvature="0"
       d="m 92.982096,428.5699 c -1.881726,-0.66692 -3.927407,-2.11598 -5.691432,-3.88001 L 476.19939,813.59862 c 1.76403,1.76403 3.80971,3.21309 5.69144,3.88001 z"
       id="path3489"
       style="fill:#000000" />
    <path
       inkscape:connector-curvature="0"
       d="m 87.290664,424.68989 c -2.031837,-2.03184 -3.690004,-4.48153 -4.293559,-6.63516 L 471.90583,806.96346 c 0.60356,2.15363 2.26173,4.60332 4.29356,6.63516 z"
       id="path3491"
       style="fill:#000000" />
    <path
       inkscape:connector-curvature="0"
       d="M 82.997105,418.05473 C 82.407643,415.90208 82.172386,380.70748 82.172386,303.80169 L 471.08112,692.71042 c 0,76.90579 0.23525,112.10039 0.82471,114.25304 z"
       id="path3493"
       style="fill:#000000" />
    <path
       inkscape:connector-curvature="0"
       d="m 82.172386,303.80169 0,-111.1898 388.908734,388.90873 0,111.1898 z"
       id="path3495"
       style="fill:#000000" />
    <path
       inkscape:connector-curvature="0"
       d="m 100.49293,207.51574 0,47.92207 388.90873,388.90873 0,-47.92207 z"
       id="path3497"
       style="fill:#000000" />
    <path
       inkscape:connector-curvature="0"
       d="m 100.49293,255.43781 0,8.6301 388.90873,388.90873 0,-8.6301 z"
       id="path3499"
       style="fill:#000000" />
    <path
       inkscape:connector-curvature="0"
       d="m 100.49293,264.06791 0,75.40288 388.90873,388.90873 0,-75.40288 z"
       id="path3501"
       style="fill:#000000" />
    <path
       inkscape:connector-curvature="0"
       d="m 100.49293,339.47079 56.55216,0 388.90873,388.90873 -56.55216,0 z"
       id="path3503"
       style="fill:#000000" />
    <path
       inkscape:connector-curvature="0"
       d="m 157.04509,339.47079 0,-75.40288 388.90873,388.90873 0,75.40288 z"
       id="path3505"
       style="fill:#000000" />
    <path
       inkscape:connector-curvature="0"
       d="m 157.04509,264.06791 0,-8.6301 388.90873,388.90873 0,8.6301 z"
       id="path3507"
       style="fill:#000000" />
    <path
       inkscape:connector-curvature="0"
       d="m 157.04509,255.43781 0,-47.92207 388.90873,388.90873 0,47.92207 z"
       id="path3509"
       style="fill:#000000" />
    <path
       inkscape:connector-curvature="0"
       d="m 157.04509,207.51574 -56.55216,0 388.90873,388.90873 56.55216,0 z"
       id="path3511"
       style="fill:#000000" />
    <path
       inkscape:connector-curvature="0"
       d="m 185.32117,207.51574 0,56.55217 388.90873,388.90873 0,-56.55217 z"
       id="path3513"
       style="fill:#000000" />
    <path
       inkscape:connector-curvature="0"
       d="m 185.32117,264.06791 0,75.40288 388.90873,388.90873 0,-75.40288 z"
       id="path3515"
       style="fill:#000000" />
    <path
       inkscape:connector-curvature="0"
       d="m 185.32117,339.47079 56.55216,0 388.90873,388.90873 -56.55216,0 z"
       id="path3517"
       style="fill:#000000" />
    <path
       inkscape:connector-curvature="0"
       d="m 241.87333,339.47079 0,-84.03298 388.90873,388.90873 0,84.03298 z"
       id="path3519"
       style="fill:#000000" />
    <path
       inkscape:connector-curvature="0"
       d="m 241.87333,255.43781 0,-47.92207 388.90873,388.90873 0,47.92207 z"
       id="path3521"
       style="fill:#000000" />
    <path
       inkscape:connector-curvature="0"
       d="m 241.87333,207.51574 -56.55216,0 388.90873,388.90873 56.55216,0 z"
       id="path3523"
       style="fill:#000000" />
    <path
       inkscape:connector-curvature="0"
       d="m 270.14941,207.51574 0,56.55217 388.90873,388.90873 0,-56.55217 z"
       id="path3525"
       style="fill:#000000" />
    <path
       inkscape:connector-curvature="0"
       d="m 270.14941,264.06791 0,75.40288 388.90873,388.90873 0,-75.40288 z"
       id="path3527"
       style="fill:#000000" />
    <path
       inkscape:connector-curvature="0"
       d="m 270.14941,339.47079 56.55216,0 388.90873,388.90873 -56.55216,0 z"
       id="path3529"
       style="fill:#000000" />
    <path
       inkscape:connector-curvature="0"
       d="m 326.70157,339.47079 0,-84.03298 388.90873,388.90873 0,84.03298 z"
       id="path3531"
       style="fill:#000000" />
    <path
       inkscape:connector-curvature="0"
       d="m 326.70157,255.43781 0,-47.92207 388.90873,388.90873 0,47.92207 z"
       id="path3533"
       style="fill:#000000" />
    <path
       inkscape:connector-curvature="0"
       d="m 326.70157,207.51574 -56.55216,0 388.90873,388.90873 56.55216,0 z"
       id="path3535"
       style="fill:#000000" />
    <path
       inkscape:connector-curvature="0"
       d="m 354.97766,207.51574 0,56.55217 388.90873,388.90873 0,-56.55217 z"
       id="path3537"
       style="fill:#000000" />
    <path
       inkscape:connector-curvature="0"
       d="m 354.97766,264.06791 0,75.40288 388.90873,388.90873 0,-75.40288 z"
       id="path3539"
       style="fill:#000000" />
    <path
       inkscape:connector-curvature="0"
       d="m 354.97766,339.47079 56.55216,0 388.90873,388.90873 -56.55216,0 z"
       id="path3541"
       style="fill:#000000" />
    <path
       inkscape:connector-curvature="0"
       d="m 411.52982,339.47079 0,-84.03298 388.90873,388.90873 0,84.03298 z"
       id="path3543"
       style="fill:#000000" />
    <path
       inkscape:connector-curvature="0"
       d="m 411.52982,255.43781 0,-47.92207 388.90873,388.90873 0,47.92207 z"
       id="path3545"
       style="fill:#000000" />
    <path
       inkscape:connector-curvature="0"
       d="m 411.52982,207.51574 -56.55216,0 388.90873,388.90873 56.55216,0 z"
       id="path3547"
       style="fill:#000000" />
    <path
       inkscape:connector-curvature="0"
       d="m 100.49293,358.32151 0,56.55216 388.90873,388.90873 0,-56.55216 z"
       id="path3549"
       style="fill:#000000" />
    <path
       inkscape:connector-curvature="0"
       d="m 100.49293,414.87367 56.55216,0 388.90873,388.90873 -56.55216,0 z"
       id="path3551"
       style="fill:#000000" />
    <path
       inkscape:connector-curvature="0"
       d="m 157.04509,414.87367 0,-56.55216 388.90873,388.90873 0,56.55216 z"
       id="path3553"
       style="fill:#000000" />
    <path
       inkscape:connector-curvature="0"
       d="m 157.04509,358.32151 -56.55216,0 388.90873,388.90873 56.55216,0 z"
       id="path3555"
       style="fill:#000000" />
    <path
       inkscape:connector-curvature="0"
       d="m 185.32117,358.32151 0,56.55216 388.90873,388.90873 0,-56.55216 z"
       id="path3557"
       style="fill:#000000" />
    <path
       inkscape:connector-curvature="0"
       d="m 185.32117,414.87367 56.55216,0 388.90873,388.90873 -56.55216,0 z"
       id="path3559"
       style="fill:#000000" />
    <path
       inkscape:connector-curvature="0"
       d="m 241.87333,414.87367 0,-56.55216 388.90873,388.90873 0,56.55216 z"
       id="path3561"
       style="fill:#000000" />
    <path
       inkscape:connector-curvature="0"
       d="m 241.87333,358.32151 -56.55216,0 388.90873,388.90873 56.55216,0 z"
       id="path3563"
       style="fill:#000000" />
    <path
       inkscape:connector-curvature="0"
       d="m 270.14941,358.32151 0,56.55216 388.90873,388.90873 0,-56.55216 z"
       id="path3565"
       style="fill:#000000" />
    <path
       inkscape:connector-curvature="0"
       d="m 270.14941,414.87367 56.55216,0 388.90873,388.90873 -56.55216,0 z"
       id="path3567"
       style="fill:#000000" />
    <path
       inkscape:connector-curvature="0"
       d="m 326.70157,414.87367 0,-56.55216 388.90873,388.90873 0,56.55216 z"
       id="path3569"
       style="fill:#000000" />
    <path
       inkscape:connector-curvature="0"
       d="m 326.70157,358.32151 -56.55216,0 388.90873,388.90873 56.55216,0 z"
       id="path3571"
       style="fill:#000000" />
    <path
       inkscape:connector-curvature="0"
       d="m 354.97766,358.32151 0,56.55216 388.90873,388.90873 0,-56.55216 z"
       id="path3573"
       style="fill:#000000" />
    <path
       inkscape:connector-curvature="0"
       d="m 354.97766,414.87367 56.55216,0 388.90873,388.90873 -56.55216,0 z"
       id="path3575"
       style="fill:#000000" />
    <path
       inkscape:connector-curvature="0"
       d="m 411.52982,414.87367 0,-56.55216 388.90873,388.90873 0,56.55216 z"
       id="path3577"
       style="fill:#000000" />
    <path
       inkscape:connector-curvature="0"
       d="m 411.52982,358.32151 -56.55216,0 388.90873,388.90873 56.55216,0 z"
       id="path3579"
       style="fill:#000000" />
  </g>
  <path
     style="fill:#ffffff"
     d="m 161.63995,50.9664 c -3.56213,-0.05127 -7.17105,1.197153 -10.22062,3.887961 -5.56116,4.869075 -5.52058,4.720164 -5.80249,32.576402 -0.15373,16.144827 0.0292,26.579067 0.61854,29.218617 1.10192,5.15097 4.11087,9.10538 8.365,11.10425 7.50862,3.51087 16.98168,0.34592 20.44125,-6.80393 1.69139,-3.48524 1.76245,-4.25155 1.53163,-31.92841 l -0.26509,-28.393896 -2.26798,-3.004333 c -3.30585,-4.330916 -7.80929,-6.575952 -12.37079,-6.627207 l -0.0294,-0.02945 z m 188.80175,0.02945 c -4.56156,0.05127 -9.03549,2.296291 -12.34133,6.627207 l -2.32689,3.004333 0,29.39535 0,29.33643 2.12071,3.23997 c 1.25571,1.89637 3.60125,3.89379 5.62576,4.91886 6.58607,3.25459 15.17812,1.50014 19.3809,-4.03523 3.43398,-4.5103 3.84586,-8.78136 3.56396,-36.022557 -0.28189,-27.856247 -0.24148,-27.707326 -5.80248,-32.576402 -3.04959,-2.690808 -6.65852,-3.939216 -10.22063,-3.887961 z M 110.41901,82.776991 c -14.607417,0 -20.160183,0.347796 -23.799032,1.295987 C 71.141368,88.09637 58.486455,99.98618 53.130494,115.61848 l -1.796709,5.18395 -0.235634,148.03707 c -0.23045,165.01044 -0.551384,154.02999 5.419582,166.15143 6.047971,12.24956 18.445996,21.7945 32.105134,24.74157 7.995345,1.717 326.219193,1.74659 334.394113,0.0294 14.01781,-2.92145 26.39271,-12.33824 32.51749,-24.74157 5.97103,-12.12144 5.5913,-1.14099 5.36067,-166.15143 l -0.17672,-148.03707 -1.76726,-5.18394 C 453.59518,100.01565 440.94021,88.09637 425.46168,84.072978 421.82268,83.124787 416.24042,82.8359 401.63319,82.8359 l -19.08636,0 0,15.40457 c 0,8.48244 -0.33015,17.47006 -0.76581,20.05835 -2.02451,12.40334 -10.45999,22.27692 -22.12014,25.89028 -5.20222,1.58887 -13.48475,1.52229 -18.37945,-0.11781 -9.81503,-3.28022 -17.34542,-10.78114 -20.67689,-20.64743 -1.07632,-3.22896 -1.29598,-7.23867 -1.29598,-22.17905 l 0,-18.320547 -63.32664,0 -63.26773,0 0,18.320547 c 0,14.94038 -0.28234,18.95009 -1.38435,22.17905 -7.79054,23.08968 -36.74468,29.67032 -53.01766,11.98788 -4.12585,-4.48468 -7.10436,-10.66531 -8.12937,-16.9951 -0.4101,-2.56268 -0.76982,-11.63482 -0.79526,-20.11726 l 0,-15.404572 -19.02745,0 0.0589,-0.117817 z m -28.246624,109.834899 173.809534,0 173.83899,0 0,111.1898 c 0,78.95593 -0.24296,112.06064 -0.88363,114.3414 -1.1532,4.17716 -6.51473,9.59761 -10.69189,10.75081 -2.30641,0.64067 -48.24873,0.90926 -162.64638,0.88362 -135.36033,-0.0256 -159.900525,-0.2338 -162.616914,-1.20762 -4.049135,-1.43509 -8.857435,-6.49177 -9.984991,-10.51517 -0.589462,-2.15265 -0.824719,-37.34725 -0.824719,-114.25304 l 0,-111.1898 z m 18.320544,14.90385 0,47.92207 0,8.6301 0,75.40288 56.55216,0 0,-75.40288 0,-8.6301 0,-47.92207 -56.55216,0 z m 84.82824,0 0,56.55217 0,75.40288 56.55216,0 0,-84.03298 0,-47.92207 -56.55216,0 z m 84.82824,0 0,56.55217 0,75.40288 56.55216,0 0,-84.03298 0,-47.92207 -56.55216,0 z m 84.82825,0 0,56.55217 0,75.40288 56.55216,0 0,-84.03298 0,-47.92207 -56.55216,0 z m -254.48473,150.80577 0,56.55216 56.55216,0 0,-56.55216 -56.55216,0 z m 84.82824,0 0,56.55216 56.55216,0 0,-56.55216 -56.55216,0 z m 84.82824,0 0,56.55216 56.55216,0 0,-56.55216 -56.55216,0 z m 84.82825,0 0,56.55216 56.55216,0 0,-56.55216 -56.55216,0 z"
     id="path3251"
     inkscape:connector-curvature="0" />
</svg>
