<?xml version="1.0" encoding="UTF-8" standalone="no"?>
<svg
   xmlns:dc="http://purl.org/dc/elements/1.1/"
   xmlns:cc="http://creativecommons.org/ns#"
   xmlns:rdf="http://www.w3.org/1999/02/22-rdf-syntax-ns#"
   xmlns:svg="http://www.w3.org/2000/svg"
   xmlns="http://www.w3.org/2000/svg"
   xmlns:sodipodi="http://sodipodi.sourceforge.net/DTD/sodipodi-0.dtd"
   xmlns:inkscape="http://www.inkscape.org/namespaces/inkscape"
   sodipodi:docname="0 base-small.svg"
   height="100%"
   width="100%"
   inkscape:version="0.48.5 r10040"
   version="1.1"
   id="svg2"
   viewBox="0 0 512 512">
  <metadata
     id="metadata10">
    <rdf:RDF>
      <cc:Work
         rdf:about="">
        <dc:format>image/svg+xml</dc:format>
        <dc:type
           rdf:resource="http://purl.org/dc/dcmitype/StillImage" />
        <dc:title></dc:title>
      </cc:Work>
    </rdf:RDF>
  </metadata>
  <defs
     id="defs8">
    <clipPath
       id="clipPath3560"
       clipPathUnits="userSpaceOnUse">
      <path
         inkscape:connector-curvature="0"
         style="fill:none;fill-opacity:1;stroke:none"
         d="M 26,0 C 11.60265,0 0,11.60265 0,26 l 0,460 c 0,14.39735 11.60265,26 26,26 l 460,0 c 14.39735,0 26,-11.60265 26,-26 L 512,26 C 512,11.60265 500.39735,0 486,0 L 26,0 z"
         id="path3562" />
    </clipPath>
    <clipPath
       id="clipPath4273"
       clipPathUnits="userSpaceOnUse">
      <path
         id="path4275"
         d="M 26,-9.9999993e-7 C 11.60265,-9.9999993e-7 0,11.602647 0,25.999999 L 0,486 c 0,14.39735 11.60265,26 26,26 l 460,0 c 14.39735,0 26,-11.60265 26,-26 L 512,25.999999 C 512,11.602647 500.39735,-9.9999994e-7 486,-9.9999994e-7 l -460,0 z"
         style="fill:none;fill-opacity:1;stroke:none"
         inkscape:connector-curvature="0" />
    </clipPath>
    <clipPath
       clipPathUnits="userSpaceOnUse"
       id="clipPath5005">
      <path
         id="path5007"
         d="M 26,-9.9999993e-7 C 11.60265,-9.9999993e-7 0,11.602647 0,25.999999 L 0,486 c 0,14.39735 11.60265,26 26,26 l 460,0 c 14.39735,0 26,-11.60265 26,-26 L 512,25.999999 C 512,11.602647 500.39735,-9.9999994e-7 486,-9.9999994e-7 l -460,0 z"
         style="fill:none;fill-opacity:1;stroke:none"
         inkscape:connector-curvature="0" />
    </clipPath>
  </defs>
  <sodipodi:namedview
     pagecolor="#ffffff"
     bordercolor="#ffffff"
     borderopacity="1"
     objecttolerance="10"
     gridtolerance="10"
     guidetolerance="10"
     inkscape:pageopacity="0"
     inkscape:pageshadow="2"
     inkscape:window-width="1306"
     inkscape:window-height="715"
     id="namedview6"
     showgrid="false"
     showguides="true"
     inkscape:guide-bbox="true"
     inkscape:zoom="0.92187499"
     inkscape:cx="114.96106"
     inkscape:cy="150.46977"
     inkscape:window-x="56"
     inkscape:window-y="28"
     inkscape:window-maximized="1"
     inkscape:current-layer="svg2">
    <sodipodi:guide
       orientation="0,1"
       position="260.08346,471.00503"
       id="guide2989" />
    <sodipodi:guide
       orientation="0,1"
       position="267.59322,40.983051"
       id="guide2991" />
    <sodipodi:guide
       orientation="1,0"
       position="40.940284,84.756935"
       id="guide2993" />
    <sodipodi:guide
       orientation="1,0"
       position="471.05085,254.98305"
       id="guide2995" />
  </sodipodi:namedview>
  <path
     inkscape:connector-curvature="0"
     style="fill:none;fill-opacity:1;stroke:none"
     d="M 26,0 C 11.60265,0 0,11.60265 0,26 l 0,460 c 0,14.39735 11.60265,26 26,26 l 460,0 c 14.39735,0 26,-11.60265 26,-26 L 512,26 C 512,11.60265 500.39735,0 486,0 L 26,0 z"
     id="rect2986-2" />
  <g
     style="opacity:0.0;fill:#000000;fill-rule:evenodd"
     id="g3415"
     clip-path="url(#clipPath3560)">
    <path
       inkscape:connector-curvature="0"
       d="M 70.385166,70.001172 C 56.724693,72.886862 46.554973,85.709552 46.554973,100.76632 L 435.4637,489.67505 c 0,-15.05677 10.16972,-27.87946 23.8302,-30.76515 z"
       id="path3417"
       style="fill:#000000" />
    <path
       inkscape:connector-curvature="0"
       d="m 46.554973,100.76632 0,310.65353 388.908727,388.90873 0,-310.65353 z"
       id="path3419"
       style="fill:#000000" />
    <path
       inkscape:connector-curvature="0"
       d="m 46.554973,411.41985 c 0,8.6111 3.466905,16.33054 9.019407,21.88304 l 388.90873,388.90873 c -5.5525,-5.5525 -9.01941,-13.27194 -9.01941,-21.88304 z"
       id="path3421"
       style="fill:#000000" />
    <path
       inkscape:connector-curvature="0"
       d="m 55.57438,433.30289 c 5.506738,5.50674 13.064834,8.88211 21.326856,8.88211 L 465.80997,831.09373 c -8.26203,0 -15.82012,-3.37537 -21.32686,-8.88211 z"
       id="path3423"
       style="fill:#000000" />
    <path
       inkscape:connector-curvature="0"
       d="m 76.901236,442.185 358.197544,0 388.90873,388.90873 -358.19754,0 z"
       id="path3425"
       style="fill:#000000" />
    <path
       inkscape:connector-curvature="0"
       d="m 435.09878,442.185 c 16.42979,0 30.34625,-13.61393 30.34625,-30.76515 l 388.90873,388.90873 c 0,17.15122 -13.91646,30.76515 -30.34625,30.76515 z"
       id="path3427"
       style="fill:#000000" />
    <path
       inkscape:connector-curvature="0"
       d="m 465.44503,411.41985 0,-310.65353 388.90873,388.90873 0,310.65353 z"
       id="path3429"
       style="fill:#000000" />
    <path
       inkscape:connector-curvature="0"
       d="m 465.44503,100.76632 c 0,-8.625377 -3.47362,-16.328346 -9.01439,-21.869115 L 845.33937,467.80593 c 5.54077,5.54077 9.01439,13.24374 9.01439,21.86912 z"
       id="path3431"
       style="fill:#000000" />
    <path
       inkscape:connector-curvature="0"
       d="m 456.43064,78.897205 c -5.52168,-5.521681 -13.09629,-8.896033 -21.33186,-8.896033 L 824.00751,458.9099 c 8.23557,0 15.81018,3.37435 21.33186,8.89603 z"
       id="path3433"
       style="fill:#000000" />
    <path
       inkscape:connector-curvature="0"
       d="m 435.09878,70.001172 -358.197544,0 388.908734,388.908728 358.19754,0 z"
       id="path3435"
       style="fill:#000000" />
    <path
       inkscape:connector-curvature="0"
       d="m 76.901236,70.001172 c -2.07118,0 -4.56125,-0.41889 -6.4928,0 L 459.31717,458.9099 c 1.93155,-0.41889 4.42162,0 6.4928,0 z"
       id="path3437"
       style="fill:#000000" />
    <path
       inkscape:connector-curvature="0"
       d="m 76.901236,148.03109 358.197544,0 388.90873,388.90873 -358.19754,0 z"
       id="path3439"
       style="fill:#000000" />
    <path
       inkscape:connector-curvature="0"
       d="m 435.09878,148.03109 0,263.36549 388.90873,388.90873 0,-263.36549 z"
       id="path3441"
       style="fill:#000000" />
    <path
       inkscape:connector-curvature="0"
       d="m 435.09878,411.39658 -358.197544,0 388.908734,388.90873 358.19754,0 z"
       id="path3443"
       style="fill:#000000" />
    <path
       inkscape:connector-curvature="0"
       d="m 76.901236,411.39658 0,-263.36549 388.908734,388.90873 0,263.36549 z"
       id="path3445"
       style="fill:#000000" />
  </g>
  <path
     d="m 70.385166,70.001172 c -13.660473,2.88569 -23.830193,15.70838 -23.830193,30.765148 v 310.65353 c 0,17.15122 13.753557,30.76515 30.346263,30.76515 H 435.09878 c 16.42979,0 30.34625,-13.61393 30.34625,-30.76515 V 100.76632 c 0,-17.221038 -13.84664,-30.765148 -30.34625,-30.765148 H 76.901236 c -2.07118,0 -4.56125,-0.41889 -6.4928,0 m 6.4928,78.029918 H 435.09878 V 411.39658 H 76.901236 V 148.03109"
     id="path94"
     inkscape:connector-curvature="0"
     style="fill:#ffffff;fill-rule:evenodd" />
  <g
     style="fill:none"
     id="g18"
     transform="matrix(23.2685,0,0,23.2685,-1394.2741,-96.830301)">
  </g>
  <g
     style="fill:#000000"
     id="g38"
     transform="matrix(23.2685,0,0,23.2685,-1394.2741,-96.830301)">
  </g>
  <g
     style="fill:none"
     id="g52"
     transform="matrix(23.2685,0,0,23.2685,-1394.2741,-96.830301)">
    <g
       style="stroke:#cd1d31"
       id="g54">
    </g>
  </g>
  <g
     style="fill:#000000"
     id="g74"
     transform="matrix(23.2685,0,0,23.2685,-1394.2741,-96.830301)">
  </g>
  <g
     style="line-height:125%;letter-spacing:0;word-spacing:0;font-family:Gentium Book Basic"
     id="g214"
     word-spacing="0"
     line-height="125%"
     letter-spacing="0"
     transform="matrix(23.2685,0,0,23.2685,-1394.2741,-96.830301)">
  </g>
  <g
     style="line-height:125%;letter-spacing:0;word-spacing:0;font-family:Gentium Book Basic"
     id="g298"
     word-spacing="0"
     line-height="125%"
     letter-spacing="0"
     transform="matrix(23.2685,0,0,23.2685,-1394.2741,-96.830301)">
  </g>
  <g
     style="line-height:125%;letter-spacing:0;word-spacing:0;font-family:Gentium Book Basic"
     id="g442"
     word-spacing="0"
     line-height="125%"
     letter-spacing="0"
     transform="matrix(23.2685,0,0,23.2685,-1394.2741,-96.830301)">
  </g>
  <g
     style="line-height:125%;letter-spacing:0;word-spacing:0;font-family:Gentium Book Basic"
     id="g496"
     word-spacing="0"
     line-height="125%"
     letter-spacing="0"
     transform="matrix(23.2685,0,0,23.2685,-1394.2741,-96.830301)">
  </g>
  <g
     style="fill:none"
     id="g510"
     transform="matrix(23.2685,0,0,23.2685,-1394.2741,-96.830301)">
  </g>
  <g
     style="line-height:125%;letter-spacing:0;word-spacing:0;font-family:Gentium Book Basic"
     id="g526"
     word-spacing="0"
     line-height="125%"
     letter-spacing="0"
     transform="matrix(23.2685,0,0,23.2685,-1394.2741,-96.830301)">
  </g>
  <g
     style="fill:none"
     id="g536"
     transform="matrix(23.2685,0,0,23.2685,-1394.2741,-96.830301)">
  </g>
  <g
     style="line-height:125%;letter-spacing:0;word-spacing:0;font-family:Gentium Book Basic"
     id="g552"
     word-spacing="0"
     line-height="125%"
     letter-spacing="0"
     transform="matrix(23.2685,0,0,23.2685,-1394.2741,-96.830301)">
    <g
       style="font-size:53.02000046px"
       id="g554"
       font-size="53.02">
    </g>
  </g>
  <g
     style="fill:none"
     id="g576"
     transform="matrix(23.2685,0,0,23.2685,-1394.2741,-96.830301)">
  </g>
  <g
     style="fill:#000000"
     id="g596"
     transform="matrix(23.2685,0,0,23.2685,-1394.2741,-96.830301)">
  </g>
  <g
     style="fill:none"
     id="g610"
     transform="matrix(23.2685,0,0,23.2685,-1394.2741,-96.830301)">
    <g
       style="stroke:#cd1d31"
       id="g612">
    </g>
  </g>
  <g
     style="fill:#000000"
     id="g632"
     transform="matrix(23.2685,0,0,23.2685,-1394.2741,-96.830301)">
  </g>
  <g
     style="fill:none"
     id="g670"
     transform="matrix(23.2685,0,0,23.2685,-1394.2741,-96.830301)">
  </g>
  <g
     style="fill:#000000"
     id="g690"
     transform="matrix(23.2685,0,0,23.2685,-1394.2741,-96.830301)">
  </g>
  <g
     style="fill:none"
     id="g704"
     transform="matrix(23.2685,0,0,23.2685,-1394.2741,-96.830301)">
    <g
       style="stroke:#cd1d31"
       id="g706">
    </g>
  </g>
  <g
     style="fill:#000000"
     id="g726"
     transform="matrix(23.2685,0,0,23.2685,-1394.2741,-96.830301)">
  </g>
  <path
     style="fill:#ffffff"
     d="m 214.34885,201.70519 -42.016,41.98795 -0.1965,-0.0842 41.7634,41.73536 -41.7634,41.76341 41.7634,41.76342 41.7354,-41.76342 41.76341,41.76342 42.46509,-41.76342 -42.01602,-42.01606 42.01602,-41.39855 -42.01602,-41.98795 -41.73538,41.73535 -41.7634,-41.73535 z"
     id="path4992"
     inkscape:connector-curvature="0" />
</svg>
