<?xml version="1.0" encoding="UTF-8" standalone="no"?>
<!-- Created with Inkscape (http://www.inkscape.org/) -->

<svg
   xmlns:dc="http://purl.org/dc/elements/1.1/"
   xmlns:cc="http://creativecommons.org/ns#"
   xmlns:rdf="http://www.w3.org/1999/02/22-rdf-syntax-ns#"
   xmlns:svg="http://www.w3.org/2000/svg"
   xmlns="http://www.w3.org/2000/svg"
   xmlns:inkscape="http://www.inkscape.org/namespaces/inkscape"
   version="1.1"
   width="100%"
   height="100%"
   viewBox="0 0 512 512"
   id="svg2">
  <metadata
     id="metadata10">
    <rdf:RDF>
      <cc:Work
         rdf:about="">
        <dc:format>image/svg+xml</dc:format>
        <dc:type
           rdf:resource="http://purl.org/dc/dcmitype/StillImage" />
        <dc:title />
      </cc:Work>
    </rdf:RDF>
  </metadata>
  <defs
     id="defs8">
    <clipPath
       id="clipPath16362">
      <path
         d="M 26,0 C 11.602648,0 0,11.602648 0,26 l 0,460 c 0,14.39735 11.602648,26 26,26 l 460,0 c 14.39735,0 26,-11.60265 26,-26 L 512,26 C 512,11.602648 500.39735,0 486,0 L 26,0 z"
         inkscape:connector-curvature="0"
         id="path16364"
         style="fill:#b93d48;fill-opacity:1;stroke:none" />
    </clipPath>
  </defs>
  <path
     d="M 26,0 C 11.602648,0 0,11.602648 0,26 l 0,460 c 0,14.39735 11.602648,26 26,26 l 460,0 c 14.39735,0 26,-11.60265 26,-26 L 512,26 C 512,11.602648 500.39735,0 486,0 L 26,0 z"
     inkscape:connector-curvature="0"
     id="rect2986"
     style="fill:#b93d48;fill-opacity:1;stroke:none" />
  <text
     x="-103.16737"
     y="-506.71234"
     id="text15758"
     style="font-size:129.22999573px;line-height:125%;letter-spacing:0;word-spacing:0;font-family:Gentium Book Basic">
    <tspan
       x="-103.16737"
       y="-506.71234"
       id="tspan15760" />
  </text>
  <text
     x="171.3714"
     y="-2382.4937"
     transform="scale(4.0128205,0.24920128)"
     id="text15762"
     style="font-size:46.95375824px;text-anchor:middle;font-family:Arial" />
  <text
     x="478.10266"
     y="-586.71234"
     id="text15764"
     style="font-size:129.22999573px;line-height:125%;letter-spacing:0;word-spacing:0;font-family:Gentium Book Basic">
    <tspan
       x="478.10266"
       y="-586.71234"
       id="tspan15766" />
  </text>
  <text
     x="316.22067"
     y="-2703.5317"
     transform="scale(4.0128205,0.24920128)"
     id="text15768"
     style="font-size:46.95375824px;text-anchor:middle;font-family:Arial" />
  <text
     x="-593.47736"
     y="-767.97229"
     id="text15770"
     style="font-size:129.22999573px;line-height:125%;letter-spacing:0;word-spacing:0;font-family:Gentium Book Basic">
    <tspan
       x="-593.47736"
       y="-767.97229"
       id="tspan15772" />
  </text>
  <text
     x="49.182026"
     y="-3430.8782"
     transform="scale(4.0128205,0.24920128)"
     id="text15774"
     style="font-size:46.95375824px;text-anchor:middle;font-family:Arial" />
  <text
     x="504.57263"
     y="-984.44232"
     id="text15776"
     style="font-size:129.22999573px;line-height:125%;letter-spacing:0;word-spacing:0;font-family:Gentium Book Basic">
    <tspan
       x="504.57263"
       y="-984.44232"
       id="tspan15778" />
  </text>
  <text
     x="322.82062"
     y="-4299.5537"
     transform="scale(4.0128205,0.24920128)"
     id="text15780"
     style="font-size:46.95375824px;text-anchor:middle;font-family:Arial" />
  <text
     x="1085.8427"
     y="-1064.4423"
     id="text15782"
     style="font-size:129.22999573px;line-height:125%;letter-spacing:0;word-spacing:0;font-family:Gentium Book Basic">
    <tspan
       x="1085.8427"
       y="-1064.4423"
       id="tspan15784" />
  </text>
  <text
     x="467.66989"
     y="-4620.582"
     transform="scale(4.0128205,0.24920128)"
     id="text15786"
     style="font-size:46.95375824px;text-anchor:middle;font-family:Arial" />
  <text
     x="696.72266"
     y="-1536.8423"
     id="text15788"
     style="font-size:129.22999573px;line-height:125%;letter-spacing:0;word-spacing:0;font-family:Gentium Book Basic">
    <tspan
       x="696.72266"
       y="-1536.8423"
       id="tspan15790" />
  </text>
  <text
     x="370.70038"
     y="-6516.2324"
     transform="scale(4.0128205,0.24920128)"
     id="text15792"
     style="font-size:46.95375824px;text-anchor:middle;font-family:Arial" />
  <text
     x="1277.9827"
     y="-1616.8523"
     id="text15794"
     style="font-size:129.22999573px;line-height:125%;letter-spacing:0;word-spacing:0;font-family:Gentium Book Basic">
    <tspan
       x="1277.9827"
       y="-1616.8523"
       id="tspan15796" />
  </text>
  <text
     x="515.54968"
     y="-6837.2705"
     transform="scale(4.0128205,0.24920128)"
     id="text15798"
     style="font-size:46.95375824px;text-anchor:middle;font-family:Arial" />
  <text
     x="-554.81738"
     y="-202.13225"
     id="text15800"
     style="font-size:208.33000183px;line-height:125%;letter-spacing:0;word-spacing:0;font-family:Gentium Book Basic">
    <tspan
       x="-554.81738"
       y="-202.13225"
       id="tspan15802" />
  </text>
  <g
     clip-path="url(#clipPath16362)"
     id="g15954"
     style="opacity:0.25;fill:#000000;fill-rule:evenodd">
    <path
       d="M 255.71875,41.6875 41,139.9375 l 353.55339,353.55339 214.71875,-98.25 z"
       inkscape:connector-curvature="0"
       id="path15956"
       style="fill:#000000" />
    <path
       d="m 41,139.9375 0,16.625 353.55339,353.55339 0,-16.625 z"
       inkscape:connector-curvature="0"
       id="path15958"
       style="fill:#000000" />
    <path
       d="m 41,156.5625 33.5625,0 353.55339,353.55339 -33.5625,0 z"
       inkscape:connector-curvature="0"
       id="path15960"
       style="fill:#000000" />
    <path
       d="m 74.5625,156.5625 c -0.07219,0.53639 -0.125,1.10391 -0.125,1.65625 l 353.55339,353.55339 c 0,-0.55234 0.0528,-1.11986 0.125,-1.65625 z"
       inkscape:connector-curvature="0"
       id="path15962"
       style="fill:#000000" />
    <path
       d="m 74.4375,158.21875 c 0,3.56591 1.546476,6.83734 4.148734,9.4396 L 432.13963,521.21174 c -2.60226,-2.60226 -4.14874,-5.87369 -4.14874,-9.4396 z"
       inkscape:connector-curvature="0"
       id="path15964"
       style="fill:#000000" />
    <path
       d="m 78.586234,167.65835 c 3.636838,3.63683 9.335831,5.96665 15.757516,5.96665 l 353.55339,353.55339 c -6.42168,0 -12.12068,-2.32981 -15.75751,-5.96665 z"
       inkscape:connector-curvature="0"
       id="path15966"
       style="fill:#000000" />
    <path
       d="m 94.34375,173.625 323.1875,0 353.55339,353.55339 -323.1875,0 z"
       inkscape:connector-curvature="0"
       id="path15968"
       style="fill:#000000" />
    <path
       d="m 417.53125,173.625 c 11.01322,0 19.875,-6.85673 19.875,-15.40625 l 353.55339,353.55339 c 0,8.54952 -8.86178,15.40625 -19.875,15.40625 z"
       inkscape:connector-curvature="0"
       id="path15970"
       style="fill:#000000" />
    <path
       d="m 437.40625,158.21875 c 0,-0.5515 -0.0215,-1.11902 -0.0937,-1.65625 l 353.55339,353.55339 c 0.0722,0.53723 0.0937,1.10475 0.0937,1.65625 z"
       inkscape:connector-curvature="0"
       id="path15972"
       style="fill:#000000" />
    <path
       d="m 437.3125,156.5625 33.5,0 353.55339,353.55339 -33.5,0 z"
       inkscape:connector-curvature="0"
       id="path15974"
       style="fill:#000000" />
    <path
       d="m 470.8125,156.5625 0,-16.59375 353.55339,353.55339 0,16.59375 z"
       inkscape:connector-curvature="0"
       id="path15976"
       style="fill:#000000" />
    <path
       d="M 470.8125,139.96875 255.71875,41.6875 609.27214,395.24089 824.36589,493.52214 z"
       inkscape:connector-curvature="0"
       id="path15978"
       style="fill:#000000" />
    <path
       d="m 107.125,188.34375 0,199.75 353.55339,353.55339 0,-199.75 z"
       inkscape:connector-curvature="0"
       id="path15980"
       style="fill:#000000" />
    <path
       d="m 107.125,388.09375 -12.875,0 353.55339,353.55339 12.875,0 z"
       inkscape:connector-curvature="0"
       id="path15982"
       style="fill:#000000" />
    <path
       d="m 94.25,388.09375 c -10.962857,0 -19.78125,5.87697 -19.78125,13.1875 l 353.55339,353.55339 c 0,-7.31053 8.81839,-13.1875 19.78125,-13.1875 z"
       inkscape:connector-curvature="0"
       id="path15984"
       style="fill:#000000" />
    <path
       d="m 74.46875,401.28125 0,3.125 353.55339,353.55339 0,-3.125 z"
       inkscape:connector-curvature="0"
       id="path15986"
       style="fill:#000000" />
    <path
       d="m 74.46875,404.40625 0,1.9375 353.55339,353.55339 0,-1.9375 z"
       inkscape:connector-curvature="0"
       id="path15988"
       style="fill:#000000" />
    <path
       d="m 74.46875,406.34375 0,15.28125 353.55339,353.55339 0,-15.28125 z"
       inkscape:connector-curvature="0"
       id="path15990"
       style="fill:#000000" />
    <path
       d="m 74.46875,421.625 363.78125,0 353.55339,353.55339 -363.78125,0 z"
       inkscape:connector-curvature="0"
       id="path15992"
       style="fill:#000000" />
    <path
       d="m 438.25,421.625 0,-15.28125 353.55339,353.55339 0,15.28125 z"
       inkscape:connector-curvature="0"
       id="path15994"
       style="fill:#000000" />
    <path
       d="m 438.25,406.34375 0,-1.9375 353.55339,353.55339 0,1.9375 z"
       inkscape:connector-curvature="0"
       id="path15996"
       style="fill:#000000" />
    <path
       d="m 438.25,404.40625 0,-3.125 353.55339,353.55339 0,3.125 z"
       inkscape:connector-curvature="0"
       id="path15998"
       style="fill:#000000" />
    <path
       d="m 438.25,401.28125 c 0,-2.71552 -1.21753,-5.23362 -3.31005,-7.32614 L 788.49334,747.5085 c 2.09252,2.09252 3.31005,4.61062 3.31005,7.32614 z"
       inkscape:connector-curvature="0"
       id="path16000"
       style="fill:#000000" />
    <path
       d="m 434.93995,393.95511 c -3.53951,-3.53951 -9.58253,-5.86136 -16.4712,-5.86136 l 353.55339,353.55339 c 6.88867,0 12.93169,2.32185 16.4712,5.86136 z"
       inkscape:connector-curvature="0"
       id="path16002"
       style="fill:#000000" />
    <path
       d="m 418.46875,388.09375 -12.9375,0 353.55339,353.55339 12.9375,0 z"
       inkscape:connector-curvature="0"
       id="path16004"
       style="fill:#000000" />
    <path
       d="m 405.53125,388.09375 0,-199.75 353.55339,353.55339 0,199.75 z"
       inkscape:connector-curvature="0"
       id="path16006"
       style="fill:#000000" />
    <path
       d="m 405.53125,188.34375 -49.9375,0 353.55339,353.55339 49.9375,0 z"
       inkscape:connector-curvature="0"
       id="path16008"
       style="fill:#000000" />
    <path
       d="m 355.59375,188.34375 0,199.75 353.55339,353.55339 0,-199.75 z"
       inkscape:connector-curvature="0"
       id="path16010"
       style="fill:#000000" />
    <path
       d="m 355.59375,388.09375 -33.5625,0 353.55339,353.55339 33.5625,0 z"
       inkscape:connector-curvature="0"
       id="path16012"
       style="fill:#000000" />
    <path
       d="m 322.03125,388.09375 0,-199.75 353.55339,353.55339 0,199.75 z"
       inkscape:connector-curvature="0"
       id="path16014"
       style="fill:#000000" />
    <path
       d="m 322.03125,188.34375 -49.96875,0 353.55339,353.55339 49.96875,0 z"
       inkscape:connector-curvature="0"
       id="path16016"
       style="fill:#000000" />
    <path
       d="m 272.0625,188.34375 0,199.75 353.55339,353.55339 0,-199.75 z"
       inkscape:connector-curvature="0"
       id="path16018"
       style="fill:#000000" />
    <path
       d="m 272.0625,388.09375 -32.71875,0 353.55339,353.55339 32.71875,0 z"
       inkscape:connector-curvature="0"
       id="path16020"
       style="fill:#000000" />
    <path
       d="m 239.34375,388.09375 0,-199.75 353.55339,353.55339 0,199.75 z"
       inkscape:connector-curvature="0"
       id="path16022"
       style="fill:#000000" />
    <path
       d="m 239.34375,188.34375 -49.9375,0 353.55339,353.55339 49.9375,0 z"
       inkscape:connector-curvature="0"
       id="path16024"
       style="fill:#000000" />
    <path
       d="m 189.40625,188.34375 0,199.75 353.55339,353.55339 0,-199.75 z"
       inkscape:connector-curvature="0"
       id="path16026"
       style="fill:#000000" />
    <path
       d="m 189.40625,388.09375 -32.34375,0 353.55339,353.55339 32.34375,0 z"
       inkscape:connector-curvature="0"
       id="path16028"
       style="fill:#000000" />
    <path
       d="m 157.0625,388.09375 0,-199.75 353.55339,353.55339 0,199.75 z"
       inkscape:connector-curvature="0"
       id="path16030"
       style="fill:#000000" />
    <path
       d="m 157.0625,188.34375 -49.9375,0 353.55339,353.55339 49.9375,0 z"
       inkscape:connector-curvature="0"
       id="path16032"
       style="fill:#000000" />
    <path
       d="m 65.0625,436.75 c -12.932981,0 -23.3125,5.90822 -23.3125,13.21875 l 353.55339,353.55339 c 0,-7.31053 10.37952,-13.21875 23.3125,-13.21875 z"
       inkscape:connector-curvature="0"
       id="path16034"
       style="fill:#000000" />
    <path
       d="m 41.75,449.96875 0,3.125 353.55339,353.55339 0,-3.125 z"
       inkscape:connector-curvature="0"
       id="path16036"
       style="fill:#000000" />
    <path
       d="m 41.75,453.09375 0,1.9375 353.55339,353.55339 0,-1.9375 z"
       inkscape:connector-curvature="0"
       id="path16038"
       style="fill:#000000" />
    <path
       d="m 41.75,455.03125 0,15.28125 353.55339,353.55339 0,-15.28125 z"
       inkscape:connector-curvature="0"
       id="path16040"
       style="fill:#000000" />
    <path
       d="m 41.75,470.3125 429.25,0 353.55339,353.55339 -429.25,0 z"
       inkscape:connector-curvature="0"
       id="path16042"
       style="fill:#000000" />
    <path
       d="m 471,470.3125 0,-15.28125 353.55339,353.55339 0,15.28125 z"
       inkscape:connector-curvature="0"
       id="path16044"
       style="fill:#000000" />
    <path
       d="m 471,455.03125 0,-1.9375 353.55339,353.55339 0,1.9375 z"
       inkscape:connector-curvature="0"
       id="path16046"
       style="fill:#000000" />
    <path
       d="m 471,453.09375 0,-3.125 353.55339,353.55339 0,3.125 z"
       inkscape:connector-curvature="0"
       id="path16048"
       style="fill:#000000" />
    <path
       d="m 471,449.96875 c 0,-2.37172 -1.09626,-4.59614 -3.01922,-6.5191 l 353.55339,353.55339 c 1.92296,1.92296 3.01922,4.14738 3.01922,6.5191 z"
       inkscape:connector-curvature="0"
       id="path16050"
       style="fill:#000000" />
    <path
       d="M 467.98078,443.44965 C 463.97782,439.44669 456.39248,436.75 447.65625,436.75 l 353.55339,353.55339 c 8.73623,0 16.32157,2.69669 20.32453,6.69965 z"
       inkscape:connector-curvature="0"
       id="path16052"
       style="fill:#000000" />
    <path
       d="m 447.65625,436.75 -382.59375,0 353.55339,353.55339 382.59375,0 z"
       inkscape:connector-curvature="0"
       id="path16054"
       style="fill:#000000" />
  </g>
  <path
     d="M 255.71875,41.6875 41,139.9375 l 0,16.625 33.5625,0 c -0.07219,0.53639 -0.125,1.10391 -0.125,1.65625 0,8.54952 8.88967,15.40625 19.90625,15.40625 l 323.1875,0 c 11.01322,0 19.875,-6.85673 19.875,-15.40625 0,-0.5515 -0.0215,-1.11902 -0.0937,-1.65625 l 33.5,0 0,-16.59375 L 255.71875,41.6875 z M 107.125,188.34375 l 0,199.75 -12.875,0 c -10.962857,0 -19.78125,5.87697 -19.78125,13.1875 l 0,3.125 0,1.9375 0,15.28125 363.78125,0 0,-15.28125 0,-1.9375 0,-3.125 c 0,-7.30885 -8.82007,-13.1875 -19.78125,-13.1875 l -12.9375,0 0,-199.75 -49.9375,0 0,199.75 -33.5625,0 0,-199.75 -49.96875,0 0,199.75 -32.71875,0 0,-199.75 -49.9375,0 0,199.75 -32.34375,0 0,-199.75 -49.9375,0 z M 65.0625,436.75 c -12.932981,0 -23.3125,5.90822 -23.3125,13.21875 l 0,3.125 0,1.9375 0,15.28125 429.25,0 0,-15.28125 0,-1.9375 0,-3.125 C 471,442.6599 460.58923,436.75 447.65625,436.75 l -382.59375,0 z"
     inkscape:connector-curvature="0"
     id="path15808"
     style="fill:#ffffff;fill-rule:evenodd" />
</svg>
