<?xml version="1.0" encoding="UTF-8" standalone="no"?>
<!-- Created with Inkscape (http://www.inkscape.org/) -->

<svg
   xmlns:dc="http://purl.org/dc/elements/1.1/"
   xmlns:cc="http://creativecommons.org/ns#"
   xmlns:rdf="http://www.w3.org/1999/02/22-rdf-syntax-ns#"
   xmlns:svg="http://www.w3.org/2000/svg"
   xmlns="http://www.w3.org/2000/svg"
   xmlns:inkscape="http://www.inkscape.org/namespaces/inkscape"
   version="1.1"
   width="100%"
   height="100%"
   viewBox="0 0 512 512"
   id="svg2">
  <metadata
     id="metadata10">
    <rdf:RDF>
      <cc:Work
         rdf:about="">
        <dc:format>image/svg+xml</dc:format>
        <dc:type
           rdf:resource="http://purl.org/dc/dcmitype/StillImage" />
        <dc:title />
      </cc:Work>
    </rdf:RDF>
  </metadata>
  <defs
     id="defs8">
    <mask
       id="XMLID_23_">
      <g
         id="g31"
         style="filter:url(#Adobe_OpacityMaskFilter)">
        <radialGradient
           cx="88.977501"
           cy="-20.899401"
           r="673.11609"
           fx="88.977501"
           fy="-20.899401"
           id="XMLID_24_"
           gradientUnits="userSpaceOnUse">
          <stop
             id="stop34"
             style="stop-color:#ffffff;stop-opacity:1"
             offset="0.30899999" />
          <stop
             id="stop3816"
             style="stop-color:#000000;stop-opacity:1"
             offset="1" />
        </radialGradient>
        <ellipse
           cx="295.89499"
           cy="286.172"
           rx="512.93402"
           ry="349.10599"
           id="ellipse38"
           style="fill:url(#XMLID_24_)" />
      </g>
    </mask>
    <clipPath
       id="clipPath5608">
      <path
         d="M 26,0 C 11.602648,0 0,11.602648 0,26 l 0,460 c 0,14.39735 11.602648,26 26,26 l 460,0 c 14.39735,0 26,-11.60265 26,-26 L 512,26 C 512,11.602648 500.39735,0 486,0 L 26,0 z"
         inkscape:connector-curvature="0"
         id="path5610"
         style="fill:none;fill-opacity:1;stroke:none" />
    </clipPath>
  </defs>
  <path
     d="M 26,0 C 11.602648,0 0,11.602648 0,26 l 0,460 c 0,14.39735 11.602648,26 26,26 l 460,0 c 14.39735,0 26,-11.60265 26,-26 L 512,26 C 512,11.602648 500.39735,0 486,0 L 26,0 z"
     inkscape:connector-curvature="0"
     id="rect2986"
     style="fill:none;fill-opacity:1;stroke:none" />
  <g
     transform="translate(-1770.711,-582.94645)"
     id="layer1" />
  <g
     transform="matrix(1.1,0,0,0.44444,-1675.63,213.80827)"
     id="g2036">
    <g
       transform="matrix(1.0526,0,0,1.2857,-1.2632,-13.429)"
       id="g3712"
       style="opacity:0.4" />
  </g>
  <g
     transform="translate(-1673.23,188.69727)"
     id="g3541" />
  <g
     transform="translate(-1673.23,188.69727)"
     id="g3536" />
  <g
     transform="translate(-2376.2304,-396.5526)"
     id="g4076">
    <g
       transform="translate(-926.66758,684.38448)"
       id="g4038" />
  </g>
  <g
     transform="matrix(2.1421967,0,0,2.1421967,-2342.909,-66.006664)"
     id="g15">
    <linearGradient
       x1="-5.5005002"
       y1="1757.501"
       x2="-5.5005002"
       y2="1865.0122"
       id="linearGradient3066"
       gradientUnits="userSpaceOnUse"
       gradientTransform="translate(133.5,-1619.5)">
      <stop
         id="stop3068"
         style="stop-color:#000000;stop-opacity:0.15000001"
         offset="0" />
      <stop
         id="stop3070"
         style="stop-color:#000000;stop-opacity:0"
         offset="0.66259998" />
    </linearGradient>
  </g>
  <g
     transform="matrix(2.1421967,0,0,2.1421967,-2342.909,-66.006664)"
     id="g24">
    <g
       id="g26">
      <g
         id="g28" />
    </g>
  </g>
  <g
     clip-path="url(#clipPath5608)"
     id="g5309"
     style="opacity:0.0;fill:#000000;fill-opacity:1">
    <path
       d="m 223.77675,465.52382 c 12.9168,-3.58659 36.9682,-18.40063 53.4472,-32.90054 l 388.90873,388.90873 c -16.479,14.49991 -40.5304,29.31395 -53.4472,32.90054 z"
       inkscape:connector-curvature="0"
       id="path5311"
       style="fill:#000000" />
    <path
       d="m 277.22395,432.62328 29.9619,-26.37095 388.90873,388.90873 -29.9619,26.37095 z"
       inkscape:connector-curvature="0"
       id="path5313"
       style="fill:#000000" />
    <path
       d="m 307.18585,406.25233 6.0355,15.86667 388.90873,388.90873 -6.0355,-15.86667 z"
       inkscape:connector-curvature="0"
       id="path5315"
       style="fill:#000000" />
    <path
       d="m 313.22135,422.119 c 2.79099,7.34326 8.27027,14.93977 15.02086,21.69036 l 388.90873,388.90872 c -6.75059,-6.75059 -12.22987,-14.34709 -15.02086,-21.69035 z"
       inkscape:connector-curvature="0"
       id="path5317"
       style="fill:#000000" />
    <path
       d="m 328.24221,443.80936 c 12.32236,12.32236 28.88075,21.82615 41.05694,21.82615 l 388.90873,388.90873 c -12.17619,0 -28.73458,-9.50379 -41.05694,-21.82616 z"
       inkscape:connector-curvature="0"
       id="path5319"
       style="fill:#000000" />
    <path
       d="m 369.29915,465.63551 c 37.1806,0 80.5842,-30.29403 80.5842,-56.24196 l 388.90873,388.90873 c 0,25.94793 -43.4036,56.24196 -80.5842,56.24196 z"
       inkscape:connector-curvature="0"
       id="path5321"
       style="fill:#000000" />
    <path
       d="m 449.88335,409.39355 c 0,-5.59277 -0.6303,-9.17617 -2.89243,-11.4383 l 388.90873,388.90873 c 2.26213,2.26213 2.89243,5.84553 2.89243,11.4383 z"
       inkscape:connector-curvature="0"
       id="path5323"
       style="fill:#000000" />
    <path
       d="m 446.99092,397.95525 c -2.91379,-2.91379 -8.535,-3.63542 -19.00397,-3.63542 l 388.90873,388.90873 c 10.46897,0 16.09018,0.72163 19.00397,3.63542 z"
       inkscape:connector-curvature="0"
       id="path5325"
       style="fill:#000000" />
    <path
       d="m 427.98695,394.31983 c -12.78829,0 -22.35447,-2.90508 -28.85459,-9.4052 l 388.90873,388.90873 c 6.50012,6.50012 16.0663,9.4052 28.85459,9.4052 z"
       inkscape:connector-curvature="0"
       id="path5327"
       style="fill:#000000" />
    <path
       d="m 399.13236,384.91463 c -14.9316,-14.93159 -13.68421,-48.83347 1.85079,-110.069 l 388.90873,388.90873 c -15.535,61.23553 -16.78239,95.13741 -1.85079,110.069 z"
       inkscape:connector-curvature="0"
       id="path5329"
       style="fill:#000000" />
    <path
       d="m 400.98315,274.84563 c 12.5683,-49.54902 14.5663,-66.27016 8.754,-73.27299 l 388.90873,388.90873 c 5.8123,7.00283 3.8143,23.72397 -8.754,73.27299 z"
       inkscape:connector-curvature="0"
       id="path5331"
       style="fill:#000000" />
    <path
       d="m 409.73715,201.57264 c -0.73853,-0.89017 -1.5564,-1.78159 -2.44514,-2.67033 l 388.90873,388.90873 c 0.88874,0.88874 1.70661,1.78016 2.44514,2.67033 z"
       inkscape:connector-curvature="0"
       id="path5333"
       style="fill:#000000" />
    <path
       d="M 407.29201,198.90231 C 394.51525,186.12555 367.09044,173.9019 350.16235,173.9019 l 388.90873,388.90873 c 16.92809,0 44.3529,12.22365 57.12966,25.00041 z"
       inkscape:connector-curvature="0"
       id="path5335"
       style="fill:#000000" />
    <path
       d="m 350.16235,173.9019 c -14.8172,0 -16.9372,3.96353 -26.857,50.2457 l 388.90873,388.90873 c 9.9198,-46.28217 12.0398,-50.2457 26.857,-50.2457 z"
       inkscape:connector-curvature="0"
       id="path5337"
       style="fill:#000000" />
    <path
       d="m 323.30535,224.1476 c -18.4055,85.85747 -22.3717,97.67408 -39.679,118.24983 l 388.90873,388.90873 c 17.3073,-20.57575 21.2735,-32.39236 39.679,-118.24983 z"
       inkscape:connector-curvature="0"
       id="path5339"
       style="fill:#000000" />
    <path
       d="m 283.62635,342.39743 c -31.3725,37.28148 -75.2834,49.38568 -104.61984,28.83648 l 388.90873,388.90873 c 29.33644,20.5492 73.24734,8.445 104.61984,-28.83648 z"
       inkscape:connector-curvature="0"
       id="path5341"
       style="fill:#000000" />
    <path
       d="m 179.00651,371.23391 c -2.98199,-2.08826 -5.76384,-4.43771 -8.34811,-7.02198 l 388.90873,388.90873 c 2.58427,2.58427 5.36612,4.93372 8.34811,7.02198 z"
       inkscape:connector-curvature="0"
       id="path5343"
       style="fill:#000000" />
    <path
       d="M 170.6584,364.21193 C 126.1696,319.72312 140.23741,205.64312 199.81961,156.5316 l 388.90873,388.90873 c -59.5822,49.11152 -73.65001,163.19152 -29.16121,207.68033 z"
       inkscape:connector-curvature="0"
       id="path5345"
       style="fill:#000000" />
    <path
       d="m 199.81961,156.5316 c 30.26234,-24.93996 62.18664,-34.4893 115.32814,-34.4893 l 388.90873,388.90873 c -53.1415,0 -85.0658,9.54934 -115.32814,34.4893 z"
       inkscape:connector-curvature="0"
       id="path5347"
       style="fill:#000000" />
    <path
       d="m 315.14775,122.0423 c 50.6792,0 78.125,8.33613 110.4906,33.56509 l 388.90873,388.90873 c -32.3656,-25.22896 -59.8114,-33.56509 -110.4906,-33.56509 z"
       inkscape:connector-curvature="0"
       id="path5349"
       style="fill:#000000" />
    <path
       d="m 425.63835,155.60739 c 20.3081,15.84434 25.0258,17.32282 28.2647,8.8778 l 388.90873,388.90873 c -3.2389,8.44502 -7.9566,6.96654 -28.2647,-8.8778 z"
       inkscape:connector-curvature="0"
       id="path5351"
       style="fill:#000000" />
    <path
       d="m 453.90305,164.48519 c 6.0765,-15.83319 -2.9181,-51.87913 -18.7642,-75.19404 l 388.90873,388.90873 c 15.8461,23.31491 24.8407,59.36085 18.7642,75.19404 z"
       inkscape:connector-curvature="0"
       id="path5353"
       style="fill:#000000" />
    <path
       d="M 435.13885,89.29115 C 430.75856,82.846133 426.19567,77.182373 421.23634,72.223045 L 810.14507,461.13177 c 4.95933,4.95933 9.52222,10.62309 13.90251,17.06811 z"
       inkscape:connector-curvature="0"
       id="path5355"
       style="fill:#000000" />
    <path
       d="M 421.23634,72.223045 C 397.67471,48.661414 365.16485,41.000001 300.77635,41.000001 L 689.68508,429.90873 c 64.3885,0 96.89836,7.66141 120.45999,31.22304 z"
       inkscape:connector-curvature="0"
       id="path5357"
       style="fill:#000000" />
    <path
       d="m 300.77635,41.000001 c -61.2089,0 -71.7463,1.806558 -104.53397,17.907797 L 585.15111,447.81653 c 32.78767,-16.10124 43.32507,-17.9078 104.53397,-17.9078 z"
       inkscape:connector-curvature="0"
       id="path5359"
       style="fill:#000000" />
    <path
       d="M 196.24238,58.907798 C 99.535529,106.39619 40.921459,227.14782 59.665379,340.26837 L 448.57411,729.1771 c -18.74392,-113.12055 39.87015,-233.87218 136.577,-281.36057 z"
       inkscape:connector-curvature="0"
       id="path5361"
       style="fill:#000000" />
    <path
       d="m 59.665379,340.26837 c 6.948635,41.93233 22.907565,75.08202 45.333941,97.5084 L 493.90805,826.68549 C 471.48167,804.25912 455.52274,771.10943 448.57411,729.1771 z"
       inkscape:connector-curvature="0"
       id="path5363"
       style="fill:#000000" />
    <path
       d="m 104.99932,437.77677 c 30.03072,30.03072 71.65847,40.83305 118.77743,27.74705 l 388.90873,388.90873 c -47.11896,13.086 -88.74671,2.28367 -118.77743,-27.74706 z"
       inkscape:connector-curvature="0"
       id="path5365"
       style="fill:#000000" />
  </g>
  <path
     d="m 223.77675,465.52382 c 12.9168,-3.58659 36.9682,-18.40063 53.4472,-32.90054 l 29.9619,-26.37095 6.0355,15.86667 c 7.8856,20.74748 37.2311,43.51651 56.0778,43.51651 37.1806,0 80.5842,-30.29403 80.5842,-56.24196 0,-12.79666 -3.2998,-15.07372 -21.8964,-15.07372 -42.1646,0 -49.3016,-31.58122 -27.0038,-119.4742 12.5683,-49.54902 14.5663,-66.27016 8.754,-73.27299 -11.3558,-13.6874 -41.4692,-27.67074 -59.5748,-27.67074 -14.8172,0 -16.9372,3.96353 -26.857,50.2457 -18.4055,85.85747 -22.3717,97.67408 -39.679,118.24983 -31.3725,37.28148 -75.2834,49.38568 -104.61984,28.83648 -54.31768,-38.0382 -42.23011,-162.738 20.8131,-214.70231 30.26234,-24.93996 62.18664,-34.4893 115.32814,-34.4893 50.6792,0 78.125,8.33613 110.4906,33.56509 20.3081,15.84434 25.0258,17.32282 28.2647,8.8778 6.0765,-15.83319 -2.9181,-51.87913 -18.7642,-75.19404 -25.1909,-37.065112 -56.4213,-48.291149 -134.3625,-48.291149 -61.2089,0 -71.7463,1.806558 -104.53397,17.907797 C 99.535529,106.39619 40.921459,227.14782 59.665379,340.26837 75.918799,438.35148 141.47025,488.38219 223.77675,465.52382 z"
     inkscape:connector-curvature="0"
     id="path874"
     style="fill:#ffffff;fill-opacity:1" />
</svg>
