<?xml version="1.0" encoding="UTF-8" standalone="no"?>
<!-- Created with Inkscape (http://www.inkscape.org/) -->

<svg
   xmlns:dc="http://purl.org/dc/elements/1.1/"
   xmlns:cc="http://creativecommons.org/ns#"
   xmlns:rdf="http://www.w3.org/1999/02/22-rdf-syntax-ns#"
   xmlns:svg="http://www.w3.org/2000/svg"
   xmlns="http://www.w3.org/2000/svg"
   xmlns:inkscape="http://www.inkscape.org/namespaces/inkscape"
   version="1.1"
   width="100%"
   height="100%"
   viewBox="0 0 512 512"
   id="svg2">
  <metadata
     id="metadata10">
    <rdf:RDF>
      <cc:Work
         rdf:about="">
        <dc:format>image/svg+xml</dc:format>
        <dc:type
           rdf:resource="http://purl.org/dc/dcmitype/StillImage" />
        <dc:title />
      </cc:Work>
    </rdf:RDF>
  </metadata>
  <defs
     id="defs8">
    <clipPath
       id="clipPath3411">
      <path
         d="M 26,0 C 11.602648,0 0,11.602648 0,26 l 0,460 c 0,14.39735 11.602648,26 26,26 l 460,0 c 14.39735,0 26,-11.60265 26,-26 L 512,26 C 512,11.602648 500.39735,0 486,0 L 26,0 z"
         inkscape:connector-curvature="0"
         id="path3413"
         style="fill:none;fill-opacity:1;stroke:none" />
    </clipPath>
  </defs>
  <path
     d="M 26,0 C 11.602648,0 0,11.602648 0,26 l 0,460 c 0,14.39735 11.602648,26 26,26 l 460,0 c 14.39735,0 26,-11.60265 26,-26 L 512,26 C 512,11.602648 500.39735,0 486,0 L 26,0 z"
     inkscape:connector-curvature="0"
     id="rect2986"
     style="fill:none;fill-opacity:1;stroke:none" />
  <g
     clip-path="url(#clipPath3411)"
     id="g3233"
     style="font-size:247.93650818px;font-style:normal;font-variant:normal;font-weight:bold;font-stretch:normal;line-height:125%;letter-spacing:0px;word-spacing:0px;opacity:0.0;fill:#000000;fill-opacity:1;stroke:none;font-family:Arial;-inkscape-font-specification:Arial Bold">
    <path
       d="m 203.17581,76.82592 c -48.54207,3.57e-4 -87.72907,15.967994 -117.51607,47.96119 l 388.90873,388.90873 c 29.787,-31.9932 68.974,-47.96083 117.51607,-47.96119 z"
       inkscape:connector-curvature="0"
       id="path3235"
       style="fill:#000000" />
    <path
       d="M 85.65974,124.78711 C 55.87262,156.62333 41,201.39573 41,259.07843 l 388.90873,388.90873 c 0,-57.6827 14.87262,-102.4551 44.65974,-134.29132 z"
       inkscape:connector-curvature="0"
       id="path3237"
       style="fill:#000000" />
    <path
       d="m 41,259.07843 c 0,54.531 14.80713,97.55072 44.43667,129.07138 L 474.3454,777.05854 C 444.71586,745.53788 429.90873,702.51816 429.90873,647.98716 z"
       inkscape:connector-curvature="0"
       id="path3239"
       style="fill:#000000" />
    <path
       d="m 85.43667,388.14981 c 1.075632,1.13857 2.16204,2.25645 3.259227,3.35364 L 477.60463,780.41218 c -1.09719,-1.09719 -2.1836,-2.21507 -3.25923,-3.35364 z"
       inkscape:connector-curvature="0"
       id="path3241"
       style="fill:#000000" />
    <path
       d="m 88.695897,391.50345 c 29.125943,29.12594 65.847123,43.67063 110.196863,43.67063 l 388.90873,388.90873 c -44.34974,0 -81.07092,-14.54469 -110.19686,-43.67063 z"
       inkscape:connector-curvature="0"
       id="path3243"
       style="fill:#000000" />
    <path
       d="m 198.89276,435.17408 c 37.19424,0 67.88263,-9.11161 91.99625,-27.39365 l 388.90873,388.90873 c -24.11362,18.28204 -54.80201,27.39365 -91.99625,27.39365 z"
       inkscape:connector-curvature="0"
       id="path3245"
       style="fill:#000000" />
    <path
       d="m 290.88901,407.78043 c 24.27066,-18.43958 41.57438,-46.58674 51.97654,-84.41169 l 388.90873,388.90873 c -10.40216,37.82495 -27.70588,65.97211 -51.97654,84.41169 z"
       inkscape:connector-curvature="0"
       id="path3247"
       style="fill:#000000" />
    <path
       d="m 342.86555,323.36874 -67.81488,-21.50445 388.90873,388.90873 67.81488,21.50445 z"
       inkscape:connector-curvature="0"
       id="path3249"
       style="fill:#000000" />
    <path
       d="m 275.05067,301.86429 c -5.83159,25.37429 -15.46987,43.94861 -28.86595,55.76882 l 388.90873,388.90873 c 13.39608,-11.82021 23.03436,-30.39453 28.86595,-55.76882 z"
       inkscape:connector-curvature="0"
       id="path3251"
       style="fill:#000000" />
    <path
       d="m 246.18472,357.63311 c -13.39652,11.82032 -29.40876,17.75685 -48.0058,17.75679 l 388.90873,388.90873 c 18.59704,6e-5 34.60928,-5.93647 48.0058,-17.75679 z"
       inkscape:connector-curvature="0"
       id="path3253"
       style="fill:#000000" />
    <path
       d="m 198.17892,375.3899 c -22.66347,5e-5 -41.48305,-7.50161 -56.50306,-22.52163 L 530.58459,741.777 c 15.02001,15.02001 33.83959,22.52168 56.50306,22.52163 z"
       inkscape:connector-curvature="0"
       id="path3255"
       style="fill:#000000" />
    <path
       d="m 141.67586,352.86827 c -1.69216,-1.69216 -3.3361,-3.47975 -4.93187,-5.36278 l 388.90873,388.90873 c 1.59577,1.88303 3.23971,3.67062 4.93187,5.36278 z"
       inkscape:connector-curvature="0"
       id="path3257"
       style="fill:#000000" />
    <path
       d="M 136.74399,347.50549 C 120.98351,328.90836 113.09791,297.67243 113.09801,253.85847 L 502.00674,642.7672 c -10e-5,43.81396 7.8855,75.04989 23.64598,93.64702 z"
       inkscape:connector-curvature="0"
       id="path3259"
       style="fill:#000000" />
    <path
       d="m 113.09801,253.85847 c -1e-4,-41.29196 7.95097,-71.14717 23.86905,-89.58704 l 388.90873,388.90873 c -15.91808,18.43987 -23.86915,48.29508 -23.86905,89.58704 z"
       inkscape:connector-curvature="0"
       id="path3261"
       style="fill:#000000" />
    <path
       d="M 136.96706,164.27143 C 153.0425,145.83208 173.91704,136.6104 199.6066,136.6101 l 388.90873,388.90873 c -25.68956,3e-4 -46.5641,9.22198 -62.63954,27.66133 z"
       inkscape:connector-curvature="0"
       id="path3263"
       style="fill:#000000" />
    <path
       d="m 199.6066,136.6101 c 18.59703,3e-4 34.36825,5.21372 47.29196,15.61527 L 635.80729,541.1341 c -12.92371,-10.40155 -28.69493,-15.61497 -47.29196,-15.61527 z"
       inkscape:connector-curvature="0"
       id="path3265"
       style="fill:#000000" />
    <path
       d="m 246.89856,152.22537 c 2.11963,1.68556 4.12183,3.47069 6.00644,5.3553 L 641.81373,546.4894 c -1.88461,-1.88461 -3.88681,-3.66974 -6.00644,-5.3553 z"
       inkscape:connector-curvature="0"
       id="path3267"
       style="fill:#000000" />
    <path
       d="m 252.905,157.58067 c 9.7459,9.7459 16.34714,22.15221 19.78107,37.20746 L 661.5948,583.69686 C 658.16087,568.64161 651.55963,556.2353 641.81373,546.4894 z"
       inkscape:connector-curvature="0"
       id="path3269"
       style="fill:#000000" />
    <path
       d="m 272.68607,194.78813 69.24257,-16.55218 388.90873,388.90873 -69.24257,16.55218 z"
       inkscape:connector-curvature="0"
       id="path3271"
       style="fill:#000000" />
    <path
       d="m 341.92864,178.23595 c -7.52273,-26.47866 -18.64302,-47.08256 -33.34673,-61.78627 l 388.90873,388.90873 c 14.70371,14.70371 25.824,35.30761 33.34673,61.78627 z"
       inkscape:connector-curvature="0"
       id="path3273"
       style="fill:#000000" />
    <path
       d="m 308.58191,116.44968 c -0.69931,-0.6993 -1.40672,-1.38527 -2.12224,-2.05788 L 695.3684,503.30053 c 0.71552,0.67261 1.42293,1.35858 2.12224,2.05788 z"
       inkscape:connector-curvature="0"
       id="path3275"
       style="fill:#000000" />
    <path
       d="M 306.45967,114.3918 C 279.98199,89.333156 245.57098,76.826277 203.17581,76.82592 l 388.90873,388.90873 c 42.39517,3.6e-4 76.80618,12.50724 103.28386,37.56588 z"
       inkscape:connector-curvature="0"
       id="path3277"
       style="fill:#000000" />
    <path
       d="m 401.04359,82.715108 0,346.569782 388.90873,388.90873 0,-346.56978 z"
       inkscape:connector-curvature="0"
       id="path3279"
       style="fill:#000000" />
    <path
       d="m 401.04359,429.28489 69.95641,0 388.90873,388.90873 -69.95641,0 z"
       inkscape:connector-curvature="0"
       id="path3281"
       style="fill:#000000" />
    <path
       d="m 471,429.28489 0,-346.569782 388.90873,388.908732 0,346.56978 z"
       inkscape:connector-curvature="0"
       id="path3283"
       style="fill:#000000" />
    <path
       d="m 471,82.715108 -69.95641,0 388.90873,388.908732 69.95641,0 z"
       inkscape:connector-curvature="0"
       id="path3285"
       style="fill:#000000" />
  </g>
  <path
     d="M 203.17581,76.82592 C 154.63374,76.826277 115.44674,92.793914 85.65974,124.78711 55.87262,156.62333 41,201.39573 41,259.07843 c 0,54.531 14.80713,97.55072 44.43667,129.07138 29.62939,31.36313 67.43568,47.02427 113.45609,47.02427 37.19424,0 67.88263,-9.11161 91.99625,-27.39365 24.27066,-18.43958 41.57438,-46.58674 51.97654,-84.41169 l -67.81488,-21.50445 c -5.83159,25.37429 -15.46987,43.94861 -28.86595,55.76882 -13.39652,11.82032 -29.40876,17.75685 -48.0058,17.75679 -25.21674,6e-5 -45.6747,-9.28711 -61.43493,-27.88441 -15.76048,-18.59713 -23.64608,-49.83306 -23.64598,-93.64702 -1e-4,-41.29196 7.95097,-71.14717 23.86905,-89.58704 16.07544,-18.43935 36.94998,-27.66103 62.63954,-27.66133 18.59703,3e-4 34.36825,5.21372 47.29196,15.61527 13.08087,10.40212 21.68955,24.5962 25.78751,42.56276 l 69.24257,-16.55218 C 334.04813,150.49797 322.21972,129.20684 306.45967,114.3918 279.98199,89.333156 245.57098,76.826277 203.17581,76.82592 z m 197.86778,5.889188 0,346.569782 69.95641,0 0,-346.569782 -69.95641,0 z"
     inkscape:connector-curvature="0"
     id="path3109"
     style="font-size:247.93650818px;font-style:normal;font-variant:normal;font-weight:bold;font-stretch:normal;line-height:125%;letter-spacing:0px;word-spacing:0px;fill:#ffffff;fill-opacity:1;stroke:none;font-family:Arial;-inkscape-font-specification:Arial Bold" />
</svg>
