<?xml version="1.0" encoding="UTF-8" standalone="no"?>
<!-- Created with Inkscape (http://www.inkscape.org/) -->

<svg
   xmlns:dc="http://purl.org/dc/elements/1.1/"
   xmlns:cc="http://creativecommons.org/ns#"
   xmlns:rdf="http://www.w3.org/1999/02/22-rdf-syntax-ns#"
   xmlns:svg="http://www.w3.org/2000/svg"
   xmlns="http://www.w3.org/2000/svg"
   xmlns:xlink="http://www.w3.org/1999/xlink"
   xmlns:inkscape="http://www.inkscape.org/namespaces/inkscape"
   version="1.1"
   width="100%"
   height="100%"
   viewBox="0 0 512 512"
   id="svg2">
  <metadata
     id="metadata267">
    <rdf:RDF>
      <cc:Work
         rdf:about="">
        <dc:format>image/svg+xml</dc:format>
        <dc:type
           rdf:resource="http://purl.org/dc/dcmitype/StillImage" />
      </cc:Work>
    </rdf:RDF>
  </metadata>
  <defs
     id="defs4">
    <path
       d="m 261.63,150.37 -21.929,5.586 -7.83,21.23 -12.09,-19.13 -22.612,-0.886 14.457,-17.409 -6.145,-21.779 21.02,8.37 18.814,-12.574 -1.464,22.582 z"
       inkscape:connector-curvature="0"
       id="0"
       style="fill:#ffffff;fill-rule:evenodd;stroke:#ffffff" />
  </defs>
  <path
     d="M 26,0 C 11.603,0 0,11.603 0,26 v 460 c 0,14.397 11.603,26 26,26 h 460 c 14.397,0 26,-11.603 26,-26 V 26 C 512,11.603 500.397,0 486,0 H 26"
     inkscape:connector-curvature="0"
     id="path7"
     style="fill:none" />
  <g
     id="g51"
     style="line-height:125%;letter-spacing:0;word-spacing:0;font-family:Gentium Book Basic">
  </g>
  <g
     id="g99"
     style="line-height:125%;letter-spacing:0;word-spacing:0;font-family:Gentium Book Basic">
  </g>
  <g
     id="g147"
     style="line-height:125%;letter-spacing:0;word-spacing:0;font-family:Gentium Book Basic">
  </g>
  <g
     id="g195"
     style="line-height:125%;letter-spacing:0;word-spacing:0;font-family:Gentium Book Basic">
  </g>
  <path
     d="M 0,261.09 V 486 c 0,14.397 11.603,26 26,26 h 460 c 14.397,0 26,-11.603 26,-26 v -81.12 c -22.503,-14.04 -37.886,-24.672 -40.938,-29.25 -15.01,-22.514 -93.81,-63.803 -146.34,-78.81 -52.53,-15.01 -236.38,-7.462 -281.41,-18.719 -7.891,-1.973 -23.355,-8.215 -43.31,-17"
     inkscape:connector-curvature="0"
     id="path247"
     style="fill:none" />
  <path
     d="m 310.72,40.22 -24.344,16.219 -27.19,-10.813 c 0.061,0.219 7.938,28.19 7.938,28.19 -0.144,0.174 -18.688,22.5 -18.688,22.5 0.02,10e-4 2.16,0.075 2.594,0.094 -0.13,0.156 -1.156,1.375 -1.156,1.375 0.02,0.001 2.192,0.075 2.625,0.094 -0.13,0.156 -1.156,1.344 -1.156,1.344 0.02,0.001 2.16,0.075 2.594,0.094 -0.13,0.156 -1.125,1.375 -1.125,1.375 0.019,0.001 2.093,0.076 2.5,0.094 -0.121,0.144 -1.094,1.313 -1.094,1.313 0.02,10e-4 2.16,0.075 2.594,0.094 -0.13,0.156 -1.125,1.375 -1.125,1.375 0.019,0.002 2.16,0.075 2.594,0.094 -0.13,0.156 -1.156,1.375 -1.156,1.375 0.019,10e-4 2.192,0.075 2.625,0.094 -0.13,0.156 -1.156,1.375 -1.156,1.375 0.019,0.001 2.16,0.075 2.594,0.094 -0.13,0.156 -1.125,1.344 -1.125,1.344 0.019,10e-4 2.16,0.075 2.594,0.094 -0.13,0.156 -1.125,1.375 -1.125,1.375 0.019,0.001 2.094,0.076 2.5,0.094 -0.121,0.144 -1.094,1.313 -1.094,1.313 0.019,0.001 2.16,0.075 2.594,0.094 -0.13,0.156 -1.125,1.375 -1.125,1.375 0.019,0.001 2.16,0.075 2.594,0.094 -0.13,0.156 -1.156,1.375 -1.156,1.375 0.019,0.001 2.16,0.075 2.594,0.094 l -1.125,1.375 c 0.019,10e-4 2.16,0.075 2.594,0.094 l -1.125,1.375 c 0.019,0.001 2.16,0.043 2.594,0.063 l -1.156,1.375 c 0.017,0.001 2.125,0.076 2.531,0.094 l -1.094,1.344 c 0.019,10e-4 2.16,0.044 2.594,0.063 -0.13,0.156 -1.156,1.375 -1.156,1.375 0.019,10e-4 2.192,0.075 2.625,0.094 -0.13,0.156 -1.156,1.375 -1.156,1.375 0.019,0.001 2.16,0.075 2.594,0.094 -0.13,0.156 -1.125,1.375 -1.125,1.375 0.017,0.001 2.16,0.075 2.594,0.094 -0.13,0.156 -1.156,1.375 -1.156,1.375 0.017,0.001 2.192,0.044 2.625,0.063 -0.13,0.156 -1.156,1.375 -1.156,1.375 0.017,10e-4 2.094,0.076 2.5,0.094 -0.121,0.146 -1.094,1.344 -1.094,1.344 h 0.063 c 0.017,0.001 2.142,0.045 2.563,0.063 -0.13,0.156 -1.156,1.375 -1.156,1.375 0.017,0.001 2.162,0.075 2.594,0.094 -0.13,0.156 -1.125,1.375 -1.125,1.375 0.017,0.001 2.162,0.075 2.594,0.094 -0.13,0.156 -1.125,1.375 -1.125,1.375 0.017,10e-4 2.162,0.075 2.594,0.094 -0.13,0.156 -1.156,1.375 -1.156,1.375 0.017,0 2.162,0.043 2.594,0.063 -0.13,0.156 -1.125,1.375 -1.125,1.375 0.017,0 2.162,0.075 2.594,0.094 -0.13,0.156 -1.125,1.375 -1.125,1.375 0.016,0 2.094,0.076 2.5,0.094 l -1.094,1.313 c 0.017,0 2.162,0.075 2.594,0.094 l -1.125,1.375 c 0.017,0 2.162,0.075 2.594,0.094 l -1.156,1.375 c 0.017,0 2.162,0.075 2.594,0.094 l -1.125,1.375 c 0.017,0 2.162,0.044 2.594,0.063 l -1.125,1.375 c 0.017,0 2.162,0.075 2.594,0.094 l -1.156,1.375 c 0.016,0 2.127,0.076 2.531,0.094 l -1.094,1.313 c 0.016,0 2.162,0.075 2.594,0.094 l -1.156,1.375 c 0.016,0 2.193,0.075 2.625,0.094 l -1.156,1.375 c 0.016,0 2.162,0.075 2.594,0.094 l -1.125,1.375 c 0.016,0 2.162,0.075 2.594,0.094 l -1.125,1.345 c 0.016,0 2.162,0.075 2.594,0.094 l -1.156,1.375 c 0.016,0 2.096,0.076 2.5,0.094 -0.121,0.144 -1.094,1.313 -1.094,1.313 0.016,0 2.193,0.075 2.625,0.094 l -1.156,1.375 c 0.016,0 2.162,0.075 2.594,0.094 l -1.125,1.375 c 0.016,0 2.163,0.075 2.594,0.094 l -1.125,1.375 c 0.016,0 2.163,0.075 2.594,0.094 l -1.156,1.344 c 0.016,0 2.163,0.075 2.594,0.094 l -1.125,1.375 c 0.016,0 2.163,0.075 2.594,0.094 l -1.125,1.375 c 0.015,0 2.096,0.076 2.5,0.094 l -1.094,1.313 c 0.016,0 2.163,0.075 2.594,0.094 l -1.125,1.375 c 0.015,0 2.163,0.075 2.594,0.094 l -1.156,1.376 c 0.015,0 2.194,0.075 2.625,0.094 l -1.156,1.344 c 0.015,0 2.163,0.075 2.594,0.094 l -1.125,1.375 c 0.015,0 2.163,0.075 2.594,0.094 l -1.156,1.375 c 0.015,0 2.128,0.076 2.531,0.094 l -1.094,1.313 c 0.015,0 2.163,0.075 2.594,0.094 l -1.156,1.375 c 0.015,0 2.194,0.075 2.625,0.094 -0.13,0.156 -1.156,1.375 -1.156,1.375 0.015,0 2.163,0.075 2.594,0.094 -0.13,0.156 -1.125,1.344 -1.125,1.344 0.015,0 2.163,0.075 2.594,0.094 l -1.125,1.375 c 0.015,0 2.163,0.076 2.594,0.094 l -1.156,1.375 c 0.013,0 2.128,0.076 2.531,0.094 l -1.094,1.313 c 0.015,0 2.163,0.076 2.594,0.094 l -1.156,1.375 c 0.015,0 2.163,0.076 2.594,0.094 l -1.125,1.375 c 0.015,0 2.163,0.076 2.594,0.094 l -1.125,1.344 c 0.013,0 2.163,0.076 2.594,0.094 l -1.156,1.375 c 0.013,0 2.194,0.076 2.625,0.094 l -1.156,1.375 c 0.013,0 2.097,0.076 2.5,0.094 l -1.094,1.313 h 0.063 c 0.013,0 2.145,0.076 2.563,0.094 l -1.156,1.375 c 0.013,0 2.165,0.076 2.594,0.094 l -1.125,1.375 c 0.013,0 2.165,0.076 2.594,0.094 l -1.156,1.344 c 0.013,0 2.196,0.076 2.625,0.094 l -1.156,1.375 c 0.013,0 2.165,0.076 2.594,0.094 l -1.125,1.375 c 0.013,0 2.165,0.076 2.594,0.094 l -1.125,1.375 c 0.013,0 2.097,0.076 2.5,0.094 l -1.094,1.313 c 0.013,0 2.165,0.076 2.594,0.094 -0.13,0.156 -1.125,1.375 -1.125,1.375 0.013,0 2.165,0.076 2.594,0.094 l -1.156,1.344 c 0.013,0 2.165,0.076 2.594,0.094 l -1.125,1.375 c 0.013,0 2.165,0.076 2.594,0.094 l -1.125,1.375 c 0.013,0 2.165,0.076 2.594,0.094 l -1.156,1.375 c 0.012,0 2.13,0.076 2.531,0.094 l -1.094,1.313 c 0.012,0 2.165,0.076 2.594,0.094 l -1.156,1.375 c 0.012,0 2.165,0.076 2.594,0.094 l -1.125,1.344 c 0.012,0 2.165,0.076 2.594,0.094 l -1.125,1.375 c 0.012,0 2.165,0.076 2.594,0.094 l -1.156,1.375 c 0.012,0 2.196,0.076 2.625,0.094 l -1.156,1.375 c 0.012,0 2.099,0.076 2.5,0.094 l -1.094,1.313 c 0.012,0 2.196,0.076 2.625,0.094 l -1.156,1.375 c 0.012,0 2.165,0.076 2.594,0.094 l -1.125,1.344 c 0.012,0 2.166,0.076 2.594,0.094 l -1.125,1.375 c 0.012,0 2.166,0.076 2.594,0.094 l -1.156,1.375 c 0.012,0 2.166,0.076 2.594,0.094 -0.13,0.156 -1.125,1.375 -1.125,1.375 0.012,0 2.166,0.076 2.594,0.094 l -1.125,1.344 c 0.01,0 2.099,0.076 2.5,0.094 l -1.094,1.344 c 0.01,0 2.166,0.076 2.594,0.094 l -1.125,1.344 c 0.01,0 2.166,0.076 2.594,0.094 l -1.156,1.375 c 0.01,0 2.166,0.076 2.594,0.094 l -1.125,1.375 c 0.01,0 2.166,0.076 2.594,0.094 l -1.125,1.375 c 0.01,0 2.166,0.076 2.594,0.094 l -1.156,1.344 c 0.01,0 2.131,0.076 2.531,0.094 l -1.094,1.346 c 0.01,0 2.166,0.076 2.594,0.094 l -1.156,1.344 c 0.01,0 2.197,0.076 2.625,0.094 l -1.156,1.375 c 0.01,0 2.166,0.076 2.594,0.094 l -1.125,1.375 c 0.01,0 2.166,0.076 2.594,0.094 l -1.156,1.375 c 0.01,0 2.197,0.076 2.625,0.094 l -1.156,1.344 c 0.009,0 2.1,0.076 2.5,0.094 l -1.094,1.344 c 0.01,0 2.197,0.076 2.625,0.094 l -1.156,1.344 2.594,0.094 -1.125,1.375 c 0.01,0 2.166,0.076 2.594,0.094 l -1.125,1.375 c 0.009,0 2.166,0.076 2.594,0.094 l -1.156,1.375 c 0.009,0 2.166,0.076 2.594,0.094 l -1.125,1.375 c 0.009,0 2.1,0.045 2.5,0.063 l -1.094,1.344 h 0.063 c 0.009,0 2.117,0.076 2.531,0.094 l -0.906,1.094 c -7.749,-3.094 -16.06,-6.438 -16.06,-6.438 0.061,0.219 7.938,28.19 7.938,28.19 -0.066,0.079 -4.21,5.145 -8.344,10.125 10e-4,-0.017 0,-0.281 0,-0.281 l -1.625,1.094 c 0.07,-1.098 0.188,-2.531 0.188,-2.531 l -1.656,1.094 c 0.069,-1.079 0.188,-2.563 0.188,-2.563 l -1.656,1.094 c 0.069,-1.07 0.188,-2.563 0.188,-2.563 l -1.625,1.094 c 0.069,-1.063 0.188,-2.563 0.188,-2.563 l -1.625,1.063 c 0.064,-0.994 0.188,-2.469 0.188,-2.469 l -1.625,1.094 c 0.067,-1.044 0.188,-2.563 0.188,-2.563 l -1.656,1.094 c 0.066,-1.036 0.188,-2.531 0.188,-2.531 l -1.656,1.094 c 0.066,-1.019 0.188,-2.563 0.188,-2.563 l -1.625,1.094 c 0.064,-1.01 0.156,-2.563 0.156,-2.563 l -1.625,1.094 c 0.064,-1 0.188,-2.531 0.188,-2.531 l -1.594,1.031 c 0.06,-0.937 0.156,-2.469 0.156,-2.469 l -1.625,1.094 c 0.063,-0.985 0.188,-2.531 0.188,-2.531 l -1.656,1.094 c 0.063,-0.978 0.188,-2.563 0.188,-2.563 l -1.625,1.094 c 0.061,-0.963 0.156,-2.563 0.156,-2.563 l -1.625,1.094 c 0.061,-0.955 0.188,-2.531 0.188,-2.531 l -1.594,1.031 c 0.058,-0.918 0.125,-2.5 0.125,-2.5 l -1.656,1.094 c 0.06,-0.933 0.188,-2.563 0.188,-2.563 l -1.594,1.063 c 0.055,-0.876 0.188,-2.469 0.188,-2.469 l -1.656,1.094 c 0.06,-0.924 0.188,-2.563 0.188,-2.563 l -1.625,1.094 c 0.058,-0.911 0.188,-2.563 0.188,-2.563 l -1.656,1.094 c 0.058,-0.903 0.188,-2.531 0.188,-2.531 l -1.594,1.031 c 0.055,-0.867 0.125,-2.5 0.125,-2.5 l -1.594,1.094 c 0.057,-0.882 0.125,-2.563 0.125,-2.563 l -1.594,1.063 c 0.053,-0.829 0.188,-2.469 0.188,-2.469 l -1.625,1.094 c 0.055,-0.876 0.156,-2.563 0.156,-2.563 l -1.625,1.094 0.188,-2.531 -1.656,1.094 c 0.055,-0.855 0.188,-2.563 0.188,-2.563 l -1.625,1.094 c 0.054,-0.849 0.156,-2.563 0.156,-2.563 l -1.625,1.094 c 0.054,-0.838 0.188,-2.531 0.188,-2.531 l -1.594,1.031 c 0.05,-0.785 0.156,-2.469 0.156,-2.469 l -1.625,1.094 c 0.053,-0.825 0.188,-2.531 0.188,-2.531 l -1.656,1.094 c 0.053,-0.819 0.188,-2.563 0.188,-2.563 l -1.656,1.094 c 0.053,-0.813 0.188,-2.563 0.188,-2.563 l -1.625,1.094 c 0.051,-0.803 0.188,-2.563 0.188,-2.563 l -1.656,1.125 c 0.051,-0.797 0.188,-2.563 0.188,-2.563 l -1.656,1.094 c 0.051,-0.791 0.188,-2.563 0.188,-2.563 l -1.594,1.063 c 0.047,-0.736 0.188,-2.469 0.188,-2.469 l -1.656,1.094 c 0.05,-0.779 0.188,-2.563 0.188,-2.563 l -1.625,1.094 c 0.05,-0.774 0.188,-2.563 0.188,-2.563 l -1.656,1.094 c 0.05,-0.763 0.188,-2.531 0.188,-2.531 l -1.594,1.031 c 0.047,-0.733 0.125,-2.5 0.125,-2.5 l -1.625,1.094 c 0.048,-0.753 0.156,-2.563 0.156,-2.563 l -1.594,1.063 c 0.045,-0.701 0.188,-2.469 0.188,-2.469 l -1.625,1.094 c 0.048,-0.743 0.156,-2.563 0.156,-2.563 l -1.625,1.094 c 0.047,-0.737 0.188,-2.531 0.188,-2.531 l -1.656,1.094 0.188,-2.563 -1.656,1.094 c 0.047,-0.724 0.188,-2.563 0.188,-2.563 l -1.625,1.094 c 0.047,-0.718 0.188,-2.563 0.188,-2.563 l -1.594,1.063 c 0.042,-0.668 0.156,-2.469 0.156,-2.469 l -1.625,1.094 c 0.045,-0.709 0.188,-2.531 0.188,-2.531 l -1.656,1.094 c 0.045,-0.705 0.188,-2.563 0.188,-2.563 l -1.656,1.094 c 0.045,-0.696 0.188,-2.563 0.188,-2.563 l -1.625,1.094 c 0.044,-0.692 0.188,-2.563 0.188,-2.563 l -1.656,1.094 c 0.044,-0.687 0.188,-2.531 0.188,-2.531 l -1.594,1.031 c 0.041,-0.639 0.188,-2.469 0.188,-2.469 l -1.656,1.094 c 0.044,-0.679 0.188,-2.531 0.188,-2.531 l -1.656,1.094 c 0.044,-0.674 0.188,-2.563 0.188,-2.563 l -1.625,1.094 c 0.042,-0.667 0.156,-2.563 0.156,-2.563 l -1.625,1.094 c 0.042,-0.663 0.188,-2.531 0.188,-2.531 l -1.656,1.094 c 0.042,-0.658 0.188,-2.563 0.188,-2.563 l -1.656,1.094 c 0.042,-0.651 0.188,-2.563 0.188,-2.563 l -1.594,1.063 c 0.039,-0.609 0.188,-2.469 0.188,-2.469 l -1.625,1.094 c 0.041,-0.647 0.156,-2.563 0.156,-2.563 l -1.625,1.094 c 0.041,-0.639 0.188,-2.531 0.188,-2.531 l -1.656,1.094 c 0.041,-0.635 0.188,-2.563 0.188,-2.563 l -1.656,1.094 c 0.041,-0.629 0.188,-2.563 0.188,-2.563 l -1.625,1.094 c 0.039,-0.625 0.188,-2.563 0.188,-2.563 l -1.625,1.063 c 0.038,-0.584 0.188,-2.469 0.188,-2.469 l -1.625,1.094 c 0.039,-0.617 0.188,-2.563 0.188,-2.563 l -1.656,1.094 c 0.039,-0.613 0.188,-2.531 0.188,-2.531 l -1.656,1.094 c 0.039,-0.61 0.188,-2.563 0.188,-2.563 l -1.625,1.094 c 0.039,-0.604 0.156,-2.563 0.156,-2.563 l -1.625,1.094 c 0.038,-0.6 0.188,-2.531 0.188,-2.531 l -1.594,1.031 c 0.036,-0.56 0.156,-2.469 0.156,-2.469 l -1.625,1.094 c 0.038,-0.594 0.188,-2.531 0.188,-2.531 l -1.656,1.094 c 0.038,-0.59 0.188,-2.563 0.188,-2.563 l -1.625,1.094 c 0.038,-0.587 0.156,-2.563 0.156,-2.563 l -1.625,1.094 c 0.038,-0.581 0.188,-2.531 0.188,-2.531 l -1.656,1.094 c 0.036,-0.578 0.188,-2.563 0.188,-2.563 l -1.656,1.094 c 0.036,-0.575 0.188,-2.563 0.188,-2.563 l -1.594,1.063 c 0.034,-0.534 0.188,-2.469 0.188,-2.469 l -1.656,1.094 c 0.036,-0.569 0.188,-2.563 0.188,-2.563 l -1.594,1.094 c 0.036,-0.565 0.156,-2.563 0.156,-2.563 l -1.656,1.125 c 0.036,-0.56 0.188,-2.563 0.188,-2.563 l -1.594,1.094 c 0.035,-0.556 0.125,-2.563 0.125,-2.563 l -1.594,1.094 c 0.035,-0.553 0.125,-2.563 0.125,-2.563 l -1.531,1.063 c 0.034,-0.514 0.125,-2.469 0.125,-2.469 l -1.625,1.094 c 0.035,-0.549 0.188,-2.563 0.188,-2.563 l -1.656,1.094 c 0.035,-0.546 0.188,-2.531 0.188,-2.531 l -1.594,1.094 c 0.035,-0.539 0.125,-2.563 0.125,-2.563 l -1.625,1.094 c 0.035,-0.537 0.156,-2.563 0.156,-2.563 l -1.625,1.094 c 0.034,-0.534 0.188,-2.531 0.188,-2.531 l -1.594,1.031 c 0.032,-0.498 0.156,-2.469 0.156,-2.469 l -1.625,1.094 c 0.034,-0.53 0.188,-2.531 0.188,-2.531 l -1.656,1.094 c 0.034,-0.527 0.188,-2.563 0.188,-2.563 l -1.656,1.094 c 0.034,-0.523 0.188,-2.563 0.188,-2.563 l -1.625,1.094 c 0.034,-0.52 0.188,-2.563 0.188,-2.563 l -1.656,1.125 c 0.034,-0.515 0.188,-2.563 0.188,-2.563 l -1.594,1.031 c 0.031,-0.48 0.188,-2.438 0.188,-2.438 l -1.656,1.094 c 0.032,-0.511 0.188,-2.563 0.188,-2.563 l -1.656,1.031 c 0.032,-0.49 0.188,-2.5 0.188,-2.5 l -1.625,1.094 c 0.032,-0.505 0.188,-2.563 0.188,-2.563 l -1.656,1.094 c 0.032,-0.502 0.188,-2.531 0.188,-2.531 l -1.656,1.094 c 0.032,-0.498 0.188,-2.563 0.188,-2.563 l -1.625,1.094 c 0.032,-0.496 0.156,-2.563 0.156,-2.563 l -1.594,1.063 c 0.029,-0.463 0.188,-2.469 0.188,-2.469 l -1.625,1.094 0.156,-2.563 -1.625,1.094 c 0.031,-0.489 0.188,-2.531 0.188,-2.531 l -1.656,1.094 c 0.031,-0.486 0.188,-2.563 0.188,-2.563 l -1.656,1.094 c 0.031,-0.482 0.188,-2.563 0.188,-2.563 l -1.594,1.094 c 0.031,-0.479 0.156,-2.531 0.156,-2.531 l -1.563,1.031 c 0.029,-0.447 0.125,-2.469 0.125,-2.469 l -1.625,1.063 c 0.029,-0.46 0.188,-2.5 0.188,-2.5 l -1.656,1.031 c 0.029,-0.458 0.188,-2.5 0.188,-2.5 l -1.656,1.094 c 0.031,-0.471 0.188,-2.563 0.188,-2.563 l -1.625,1.094 c 0.031,-0.467 0.188,-2.563 0.188,-2.563 l -1.656,1.094 c 0.029,-0.466 0.188,-2.531 0.188,-2.531 l -1.594,1.031 c 0.028,-0.433 0.188,-2.469 0.188,-2.469 l -1.656,1.063 c 0.029,-0.445 0.188,-2.5 0.188,-2.5 l -1.656,1.094 c 0.029,-0.46 0.188,-2.563 0.188,-2.563 l -1.625,1.094 c 0.029,-0.457 0.156,-2.563 0.156,-2.563 l -1.625,1.094 c 0.029,-0.454 0.188,-2.531 0.188,-2.531 l -1.656,1.094 c 0.029,-0.451 0.188,-2.563 0.188,-2.563 l -1.594,1.094 c 0.029,-0.448 0.125,-2.563 0.125,-2.563 l -1.594,1.094 c 0.028,-0.432 0.188,-2.5 0.188,-2.5 l -1.625,1.094 c 0.029,-0.445 0.156,-2.563 0.156,-2.563 l -1.625,1.063 0.188,-2.5 -1.656,1.094 c 0.028,-0.441 0.188,-2.563 0.188,-2.563 l -1.594,1.094 c 0.028,-0.438 0.125,-2.563 0.125,-2.563 l -1.625,1.094 c 0.028,-0.436 0.188,-2.563 0.188,-2.563 l -1.625,1.094 c 0.026,-0.42 0.188,-2.5 0.188,-2.5 l -1.594,1.063 c 0.026,-0.417 0.156,-2.531 0.156,-2.531 l -1.656,1.125 c 0.028,-0.431 0.188,-2.563 0.188,-2.563 l -1.594,1.031 c 0.026,-0.413 0.125,-2.5 0.125,-2.5 l -1.469,0.969 c -0.001,10e-4 -0.152,0.091 -0.156,0.094 0.026,-0.412 0.156,-2.531 0.156,-2.531 l -1.313,0.938 c -0.003,0.001 -0.302,0.149 -0.313,0.156 0.028,-0.423 0.188,-2.531 0.188,-2.531 l -1.188,0.813 c -0.003,0.001 -0.389,0.27 -0.406,0.281 0.026,-0.409 0.188,-2.531 0.188,-2.531 l -1.125,0.75 -0.531,0.344 c 0.026,-0.42 0.188,-2.531 0.188,-2.531 l -1,0.625 c -0.004,0.003 -0.618,0.381 -0.656,0.406 0.026,-0.404 0.188,-2.5 0.188,-2.5 l -0.875,0.563 c -0.006,0.004 -0.727,0.464 -0.781,0.5 0.026,-0.403 0.188,-2.531 0.188,-2.531 l -0.719,0.5 -0.906,0.594 c 0.026,-0.415 0.188,-2.531 0.188,-2.531 l -0.594,0.406 c -0.009,0.006 -0.968,0.625 -1.063,0.688 0.026,-0.412 0.188,-2.563 0.188,-2.563 l -0.469,0.313 c -0.009,0.006 -1.017,0.647 -1.125,0.719 0.025,-0.384 0.188,-2.438 0.188,-2.438 l -0.375,0.219 -1.281,0.813 c 0.025,-0.396 0.188,-2.5 0.188,-2.5 l -0.281,0.125 c -0.01,0.007 -1.22,0.834 -1.375,0.938 0.025,-0.393 0.188,-2.531 0.188,-2.531 0,0 -0.124,0.092 -0.125,0.094 -0.012,0.007 -1.316,0.876 -1.5,1 0.026,-0.406 0.188,-2.531 0.188,-2.531 -0.188,0.127 -24.375,16.281 -24.375,16.281 -0.21,-0.085 -27.19,-10.875 -27.19,-10.875 0.061,0.219 7.938,28.19 7.938,28.19 -0.144,0.175 -18.688,22.531 -18.688,22.531 0.02,0.001 2.16,0.076 2.594,0.094 -0.13,0.156 -1.156,1.375 -1.156,1.375 h 0.156 c 0.019,0.001 2.075,0.078 2.469,0.094 -0.13,0.156 -1.156,1.375 -1.156,1.375 h 0.281 l 2.313,0.094 c -0.131,0.158 -1.125,1.375 -1.125,1.375 h 0.406 c 0.016,0 1.799,0.082 2.094,0.094 -0.123,0.147 -1.094,1.313 -1.094,1.313 l 0.594,0.031 c 0.015,0 1.707,0.083 1.969,0.094 -0.123,0.149 -1.094,1.344 -1.094,1.344 0,0 0.717,0.031 0.719,0.031 0.015,0 1.615,0.084 1.844,0.094 -0.124,0.149 -1.094,1.313 -1.094,1.313 0,0 0.842,0.063 0.844,0.063 0.013,0 1.541,0.024 1.75,0.031 -0.133,0.161 -1.156,1.375 -1.156,1.375 0,0 0.999,0.031 1,0.031 0.012,0 1.445,0.055 1.625,0.063 -0.134,0.162 -1.156,1.375 -1.156,1.375 l 1.156,0.031 c 0.012,0 1.286,0.057 1.438,0.063 -0.134,0.162 -1.125,1.344 -1.125,1.344 0,0 1.28,0.063 1.281,0.063 0.01,0 1.106,0.027 1.219,0.031 -0.126,0.152 -1.094,1.344 -1.094,1.344 0,0 1.467,0.094 1.469,0.094 0.009,0 1,0.028 1.094,0.031 -0.127,0.152 -1.094,1.313 -1.094,1.313 0,0 1.592,0.094 1.594,0.094 0.007,0 0.899,0.06 0.969,0.063 -0.127,0.153 -1.125,1.313 -1.125,1.313 0,0 1.749,0.092 1.75,0.094 0.006,0 0.758,0.03 0.813,0.031 l -1.094,1.344 c 0,0 1.875,0.092 1.875,0.094 0.006,0 0.65,0.03 0.688,0.031 l -1.094,1.313 2.063,0.094 c 0.004,0 0.478,-0.001 0.5,0 l -1.094,1.375 c 0,0 2.186,0.063 2.188,0.063 h 0.344 l -1.125,1.344 c 0,0 2.374,0.094 2.375,0.094 h 0.219 c -0.14,0.169 -1.125,1.375 -1.125,1.375 0,0 2.499,0.094 2.5,0.094 h 0.094 c -0.14,0.169 -1.156,1.375 -1.156,1.375 0,0 2.537,0.089 2.625,0.094 -0.142,0.171 -1.156,1.375 -1.156,1.375 0,0 2.277,0.081 2.594,0.094 -0.142,0.171 -1.125,1.344 -1.125,1.344 0,0 2.089,0.073 2.594,0.094 -0.143,0.172 -1.156,1.375 -1.156,1.375 0,0 1.793,0.065 2.531,0.094 -0.134,0.162 -1.094,1.313 -1.094,1.313 0,0 1.778,0.062 2.594,0.094 -0.144,0.174 -1.156,1.375 -1.156,1.375 0,0 1.711,0.057 2.625,0.094 -0.146,0.175 -1.156,1.375 -1.156,1.375 0,0 1.598,0.054 2.594,0.094 -0.146,0.175 -1.125,1.375 -1.125,1.375 0,0 1.531,0.051 2.594,0.094 -0.147,0.177 -1.125,1.344 -1.125,1.344 l 2.594,0.094 c -0.147,0.178 -1.156,1.375 -1.156,1.375 l 2.594,0.094 c -0.149,0.178 -1.125,1.375 -1.125,1.375 l 2.5,0.094 -1.094,1.313 2.594,0.094 -1.125,1.375 1.875,0.031 c -68.48,13.13 -120.19,73.35 -120.19,145.66 v 0.031 c 0,40.955 16.604,77.981 43.44,104.81 0.482,0.495 0.95,0.981 1.438,1.469 0.356,0.346 0.703,0.719 1.063,1.063 0.13,0.13 0.214,0.276 0.344,0.406 0.162,0.158 0.368,0.281 0.531,0.438 l -0.375,1.188 80.25,80.25 h 315.03 c 14.397,0 26,-11.603 26,-26 v -255.69 l -1.406,0.938 c 0.038,-0.6 0.188,-2.563 0.188,-2.563 l -1.594,1.063 c 0.036,-0.56 0.188,-2.469 0.188,-2.469 l -1.656,1.094 c 0.038,-0.594 0.188,-2.563 0.188,-2.563 l -1.625,1.094 c 0.038,-0.59 0.188,-2.563 0.188,-2.563 l -1.656,1.094 c 0.038,-0.587 0.188,-2.531 0.188,-2.531 l -1.656,1.094 c 0.038,-0.581 0.188,-2.563 0.188,-2.563 l -1.625,1.094 c 0.036,-0.578 0.156,-2.563 0.156,-2.563 l -1.625,1.094 c 0.036,-0.575 0.188,-2.531 0.188,-2.531 l -1.563,1.031 c 0.034,-0.533 0.156,-2.469 0.156,-2.469 l -1.656,1.094 c 0.036,-0.568 0.188,-2.531 0.188,-2.531 l -1.656,1.094 c 0.036,-0.565 0.188,-2.563 0.188,-2.563 l -1.625,1.094 c 0.036,-0.56 0.156,-2.563 0.156,-2.563 l -1.625,1.094 c 0.035,-0.558 0.188,-2.531 0.188,-2.531 l -1.594,1.094 c 0.035,-0.553 0.125,-2.563 0.125,-2.563 l -1.563,1.031 c 0.034,-0.514 0.156,-2.438 0.156,-2.438 l -1.656,1.094 c 0.035,-0.549 0.188,-2.563 0.188,-2.563 l -1.656,1.094 c 0.035,-0.546 0.188,-2.563 0.188,-2.563 l -1.594,1.094 c 0.035,-0.539 0.156,-2.563 0.156,-2.563 l -1.656,1.125 c 0.035,-0.537 0.188,-2.563 0.188,-2.563 l -1.656,1.094 c 0.034,-0.534 0.188,-2.563 0.188,-2.563 l -1.594,1.063 c 0.032,-0.498 0.188,-2.469 0.188,-2.469 l -1.656,1.094 c 0.034,-0.53 0.188,-2.563 0.188,-2.563 l -1.625,1.094 c 0.034,-0.527 0.188,-2.563 0.188,-2.563 l -1.656,1.094 c 0.034,-0.523 0.188,-2.531 0.188,-2.531 l -1.656,1.094 c 0.034,-0.52 0.188,-2.563 0.188,-2.563 L 474.408,195 c 0.034,-0.515 0.156,-2.563 0.156,-2.563 l -1.594,1.063 c 0.031,-0.48 0.188,-2.469 0.188,-2.469 l -1.625,1.094 c 0.032,-0.511 0.156,-2.563 0.156,-2.563 l -1.625,1.094 c 0.032,-0.506 0.188,-2.531 0.188,-2.531 l -1.656,1.094 c 0.032,-0.505 0.188,-2.563 0.188,-2.563 l -1.656,1.094 c 0.032,-0.502 0.188,-2.563 0.188,-2.563 l -1.625,1.094 c 0.032,-0.498 0.188,-2.563 0.188,-2.563 l -1.656,1.125 c 0.032,-0.496 0.188,-2.563 0.188,-2.563 l -1.594,1.031 c 0.029,-0.463 0.188,-2.438 0.188,-2.438 l -1.656,1.031 0.188,-2.5 -1.656,1.094 c 0.031,-0.489 0.188,-2.563 0.188,-2.563 l -1.625,1.094 c 0.031,-0.486 0.188,-2.563 0.188,-2.563 l -1.656,1.094 c 0.031,-0.482 0.188,-2.531 0.188,-2.531 l -1.594,1.094 c 0.031,-0.479 0.125,-2.563 0.125,-2.563 l -1.563,1.063 c 0.029,-0.447 0.156,-2.469 0.156,-2.469 l -1.656,1.031 c 0.029,-0.46 0.188,-2.5 0.188,-2.5 l -1.625,1.063 c 0.029,-0.458 0.156,-2.531 0.156,-2.531 l -1.625,1.094 c 0.031,-0.471 0.188,-2.531 0.188,-2.531 l -1.656,1.094 c 0.031,-0.467 0.188,-2.563 0.188,-2.563 l -1.625,1.094 c 0.029,-0.466 0.156,-2.563 0.156,-2.563 l -1.594,1.063 c 0.028,-0.433 0.188,-2.469 0.188,-2.469 l -1.625,1.063 c 0.029,-0.445 0.156,-2.531 0.156,-2.531 l -1.625,1.094 c 0.029,-0.46 0.188,-2.531 0.188,-2.531 l -1.656,1.094 c 0.029,-0.457 0.188,-2.563 0.188,-2.563 l -1.656,1.094 c 0.029,-0.454 0.188,-2.563 0.188,-2.563 l -1.625,1.094 c 0.029,-0.451 0.188,-2.563 0.188,-2.563 l -1.625,1.094 c 0.029,-0.448 0.156,-2.531 0.156,-2.531 l -1.563,1.031 c 0.026,-0.417 0.156,-2.469 0.156,-2.469 l -1.656,1.094 c 0.029,-0.445 0.188,-2.531 0.188,-2.531 l -1.656,1.031 0.188,-2.5 -1.625,1.094 c 0.028,-0.441 0.156,-2.563 0.156,-2.563 l -1.594,1.094 c 0.028,-0.438 0.156,-2.531 0.156,-2.531 l -1.594,1.094 c 0.028,-0.436 0.125,-2.563 0.125,-2.563 l -1.594,1.094 c 0.026,-0.42 0.188,-2.5 0.188,-2.5 0,0 -1.251,0.802 -1.594,1.031 0.026,-0.417 0.125,-2.5 0.125,-2.5 l -1.625,1.094 c 0.028,-0.431 0.156,-2.563 0.156,-2.563 l -1.594,1.063 c 0.026,-0.413 0.156,-2.5 0.156,-2.5 l -1.469,0.938 c -0.001,0.001 -0.183,0.091 -0.188,0.094 0.026,-0.412 0.188,-2.5 0.188,-2.5 l -1.313,0.906 c -0.003,0.001 -0.334,0.18 -0.344,0.188 0.028,-0.423 0.188,-2.563 0.188,-2.563 l -1.188,0.813 c -0.003,0.001 -0.389,0.27 -0.406,0.281 0.026,-0.409 0.188,-2.5 0.188,-2.5 l -1.094,0.719 c -0.004,0.003 -0.533,0.356 -0.563,0.375 0.026,-0.42 0.188,-2.563 0.188,-2.563 l -1,0.656 -0.625,0.406 c 0.026,-0.404 0.188,-2.5 0.188,-2.5 l -0.875,0.531 c -0.006,0.004 -0.727,0.464 -0.781,0.5 0.026,-0.403 0.188,-2.5 0.188,-2.5 l -0.719,0.5 c -0.007,0.004 -0.865,0.546 -0.938,0.594 0.026,-0.415 0.188,-2.563 0.188,-2.563 l -0.594,0.406 -1.031,0.688 c 0.026,-0.412 0.156,-2.563 0.156,-2.563 l -0.438,0.344 c -0.009,0.006 -1.048,0.646 -1.156,0.719 0.025,-0.384 0.188,-2.469 0.188,-2.469 l -0.344,0.219 c -0.01,0.006 -1.147,0.753 -1.281,0.844 0.025,-0.396 0.156,-2.531 0.156,-2.531 l -0.25,0.156 c -0.01,0.007 -1.219,0.803 -1.375,0.906 0.025,-0.393 0.188,-2.5 0.188,-2.5 0,0 -0.155,0.092 -0.156,0.094 l -1.5,1 c 0.026,-0.406 0.188,-2.563 0.188,-2.563 -0.066,0.044 -4.618,3.085 -8.469,5.656 0.022,-0.327 0.125,-2.281 0.125,-2.281 l -1.656,1.094 c 0.026,-0.406 0.188,-2.563 0.188,-2.563 l -1.625,1.094 c 0.026,-0.406 0.188,-2.531 0.188,-2.531 l -1.656,1.094 c 0.026,-0.406 0.188,-2.563 0.188,-2.563 l -1.656,1.094 c 0.026,-0.406 0.188,-2.563 0.188,-2.563 l -1.625,1.094 c 0.026,-0.406 0.156,-2.531 0.156,-2.531 l -1.594,1.031 c 0.025,-0.379 0.188,-2.469 0.188,-2.469 l -1.625,1.094 c 0.026,-0.406 0.156,-2.531 0.156,-2.531 l -1.625,1.094 c 0.026,-0.406 0.188,-2.563 0.188,-2.563 l -1.656,1.094 c 0.026,-0.406 0.188,-2.563 0.188,-2.563 l -1.656,1.094 c 0.026,-0.406 0.188,-2.563 0.188,-2.563 l -1.625,1.094 c 0.026,-0.406 0.188,-2.531 0.188,-2.531 l -1.594,1.031 c 0.025,-0.379 0.156,-2.469 0.156,-2.469 l -1.625,1.125 c 0.026,-0.406 0.188,-2.563 0.188,-2.563 l -1.656,1.094 c 0.026,-0.406 0.188,-2.563 0.188,-2.563 l -1.656,1.094 c 0.026,-0.406 0.188,-2.563 0.188,-2.563 l -1.625,1.094 0.188,-2.531 -1.656,1.094 c 0.026,-0.406 0.188,-2.563 0.188,-2.563 l -1.656,1.094 c 0.026,-0.406 0.188,-2.563 0.188,-2.563 l -1.594,1.063 c 0.025,-0.378 0.188,-2.469 0.188,-2.469 l -1.656,1.094 c 0.026,-0.406 0.188,-2.563 0.188,-2.563 l -1.625,1.094 c 0.026,-0.406 0.156,-2.531 0.156,-2.531 l -1.625,1.094 c 0.026,-0.406 0.188,-2.563 0.188,-2.563 l -1.656,1.094 c 0.026,-0.406 0.188,-2.563 0.188,-2.563 l -1.656,1.094 c 0.026,-0.406 0.188,-2.563 0.188,-2.563 l -1.594,1.063 c 0.025,-0.378 0.188,-2.469 0.188,-2.469 l -1.625,1.094 c 0.026,-0.406 0.156,-2.563 0.156,-2.563 l -1.625,1.125 c 0.026,-0.406 0.188,-2.563 0.188,-2.563 l -1.656,1.094 c 0.026,-0.406 0.188,-2.563 0.188,-2.563 l -1.656,1.094 c 0.026,-0.406 0.188,-2.563 0.188,-2.563 l -1.625,1.094 c 0.026,-0.406 0.188,-2.531 0.188,-2.531 l -1.625,1.031 c 0.025,-0.378 0.188,-2.469 0.188,-2.469 l -1.625,1.094 c 0.026,-0.406 0.188,-2.531 0.188,-2.531 l -1.656,1.094 c 0.026,-0.406 0.188,-2.563 0.188,-2.563 l -1.656,1.094 c 0.026,-0.406 0.188,-2.563 0.188,-2.563 l -1.625,1.094 c 0.026,-0.406 0.156,-2.531 0.156,-2.531 l -1.625,1.094 0.188,-2.563 -1.656,1.094 c 0.026,-0.406 0.188,-2.563 0.188,-2.563 l -1.594,1.063 c 0.025,-0.378 0.188,-2.469 0.188,-2.469 l -1.656,1.094 c 0.026,-0.406 0.188,-2.563 0.188,-2.563 l -1.625,1.094 c 0.026,-0.406 0.156,-2.531 0.156,-2.531 l -1.625,1.094 c 0.026,-0.406 0.188,-2.563 0.188,-2.563 l -1.656,1.094 c 0.026,-0.406 0.188,-2.563 0.188,-2.563 l -1.656,1.094 c 0.026,-0.406 0.188,-2.563 0.188,-2.563 l -1.594,1.063 c 0.025,-0.378 0.188,-2.469 0.188,-2.469 L 331,63.309 c 0.026,-0.406 0.188,-2.563 0.188,-2.563 l -1.625,1.094 c 0.026,-0.406 0.188,-2.531 0.188,-2.531 l -1.656,1.094 c 0.026,-0.406 0.188,-2.563 0.188,-2.563 l -1.656,1.094 c 0.026,-0.406 0.188,-2.563 0.188,-2.563 l -1.625,1.094 c 0.026,-0.406 0.156,-2.531 0.156,-2.531 l -1.594,1.031 c 0.025,-0.378 0.188,-2.469 0.188,-2.469 l -1.625,1.094 c 0.026,-0.406 0.156,-2.531 0.156,-2.531 l -1.625,1.094 c 0.026,-0.406 0.188,-2.563 0.188,-2.563 l -1.656,1.094 c 0.026,-0.406 0.188,-2.563 0.188,-2.563 l -1.625,1.094 c 0.026,-0.406 0.156,-2.531 0.156,-2.531 l -1.625,1.094 c 0.026,-0.406 0.188,-2.563 0.188,-2.563 l -1.594,1.031 c 0.025,-0.379 0.156,-2.438 0.156,-2.438 l -1.625,1.094 c 0.026,-0.406 0.188,-2.563 0.188,-2.563 l -1.656,1.094 c 0.026,-0.406 0.188,-2.563 0.188,-2.563 l -1.656,1.094 c 0.026,-0.406 0.188,-2.563 0.188,-2.563 v -0.125 m -146.03,137.09 -0.656,0.781 1.875,0.063 c -1.963,0.382 -3.904,0.796 -5.844,1.25 1.515,-0.721 3.078,-1.417 4.625,-2.094 m 1.094,1.563 -0.125,0.531 -0.156,0.156 h 0.094 l -0.125,0.438 c -1.357,0.277 -2.718,0.558 -4.063,0.875 1.449,-0.692 2.905,-1.362 4.375,-2 m -0.719,2.469 -0.188,0.594 c -0.687,0.153 -1.378,0.275 -2.063,0.438 0.746,-0.356 1.5,-0.685 2.25,-1.031 m 245.66,76.34 c 0.112,0.004 1.253,0.021 1.5,0.031 l -0.375,0.438 c -0.508,-0.203 -0.589,-0.254 -1.125,-0.469"
     inkscape:connector-curvature="0"
     id="path249"
     style="fill-opacity:0.0;fill-rule:evenodd" />
  <g
     transform="translate(-0.23,5.293)"
     id="g251">
    <path
       d="m 168.44,170.71 -0.365,0.046 c -70.19,12.03 -123.56,73.21 -123.56,146.82 0,82.25 66.66,148.92 148.92,148.92 73.54,0 134.6,-53.3 146.73,-123.38 0.013,-0.032 0.033,-0.06 0.046,-0.091 h -0.046 c 0.009,-0.047 0.038,-0.089 0.046,-0.137 l -1.231,-0.319 c -0.018,0.045 -0.028,0.092 -0.046,0.137 -19.445,48.01 -66.47,81.87 -121.46,81.87 -72.37,0 -131.04,-58.67 -131.04,-131.04 0,-55.04 33.926,-102.1 82.01,-121.51 l 0.912,-0.365 -0.684,-0.684 v -0.046 l -0.228,-0.228"
       inkscape:connector-curvature="0"
       id="path253"
       style="color:#000000;fill:#ffffff;fill-rule:evenodd" />
    <use
       transform="matrix(1.29368,0,0,1.29368,-135.14,-75.04)"
       id="use255"
       x="0"
       y="0"
       width="1"
       height="1"
       xlink:href="#0" />
    <use
       transform="matrix(1.29368,0,0,1.29368,88.33,-29.3)"
       id="use257"
       x="0"
       y="0"
       width="1"
       height="1"
       xlink:href="#0" />
    <use
       transform="matrix(1.29368,0,0,1.29368,-5.758,-111.63)"
       id="use259"
       x="0"
       y="0"
       width="1"
       height="1"
       xlink:href="#0" />
    <use
       transform="matrix(1.29368,0,0,1.29368,128.84,93.53)"
       id="use261"
       x="0"
       y="0"
       width="1"
       height="1"
       xlink:href="#0" />
    <use
       transform="matrix(1.29368,0,0,1.29368,-41.05,20.352)"
       id="use263"
       x="0"
       y="0"
       width="1"
       height="1"
       xlink:href="#0" />
  </g>
</svg>
