<?xml version="1.0" encoding="UTF-8" standalone="no"?>
<!-- Created with Inkscape (http://www.inkscape.org/) -->

<svg
   xmlns:dc="http://purl.org/dc/elements/1.1/"
   xmlns:cc="http://creativecommons.org/ns#"
   xmlns:rdf="http://www.w3.org/1999/02/22-rdf-syntax-ns#"
   xmlns:svg="http://www.w3.org/2000/svg"
   xmlns="http://www.w3.org/2000/svg"
   xmlns:inkscape="http://www.inkscape.org/namespaces/inkscape"
   version="1.1"
   width="100%"
   height="100%"
   viewBox="0 0 512 512"
   id="svg2">
  <metadata
     id="metadata649">
    <rdf:RDF>
      <cc:Work
         rdf:about="">
        <dc:format>image/svg+xml</dc:format>
        <dc:type
           rdf:resource="http://purl.org/dc/dcmitype/StillImage" />
      </cc:Work>
    </rdf:RDF>
  </metadata>
  <defs
     id="defs4">
    <clipPath
       id="0">
      <path
         d="M 26,0 C 11.603,0 0,11.603 0,26 v 460 c 0,14.397 11.603,26 26,26 h 460 c 14.397,0 26,-11.603 26,-26 V 26 C 512,11.603 500.397,0 486,0 H 26"
         inkscape:connector-curvature="0"
         id="path7" />
    </clipPath>
  </defs>
  <path
     d="M 26,0 C 11.603,0 0,11.603 0,26 v 460 c 0,14.397 11.603,26 26,26 h 460 c 14.397,0 26,-11.603 26,-26 V 26 C 512,11.603 500.397,0 486,0 H 26"
     inkscape:connector-curvature="0"
     id="path9"
     style="fill:none" />
  <g
     id="g53"
     style="line-height:125%;letter-spacing:0;word-spacing:0;font-family:Gentium Book Basic">
  </g>
  <g
     id="g101"
     style="line-height:125%;letter-spacing:0;word-spacing:0;font-family:Gentium Book Basic">
  </g>
  <g
     id="g149"
     style="line-height:125%;letter-spacing:0;word-spacing:0;font-family:Gentium Book Basic">
  </g>
  <g
     id="g197"
     style="line-height:125%;letter-spacing:0;word-spacing:0;font-family:Gentium Book Basic">
  </g>
  <g
     id="g245"
     style="line-height:125%;letter-spacing:0;word-spacing:0;font-family:Gentium Book Basic">
  </g>
  <g
     id="g293"
     style="line-height:125%;letter-spacing:0;word-spacing:0;font-family:Gentium Book Basic">
  </g>
  <g
     id="g341"
     style="line-height:125%;letter-spacing:0;word-spacing:0;font-family:Gentium Book Basic">
  </g>
  <g
     id="g389"
     style="line-height:125%;letter-spacing:0;word-spacing:0;font-family:Gentium Book Basic">
  </g>
  <g
     id="g437"
     style="line-height:125%;letter-spacing:0;word-spacing:0;font-family:Gentium Book Basic">
  </g>
  <g
     id="g485"
     style="line-height:125%;letter-spacing:0;word-spacing:0;font-family:Gentium Book Basic">
  </g>
  <g
     clip-path="url(#0)"
     id="g537"
     style="opacity:0.0">
    <path
       d="m 256,52.27 c -75.28,0 -136.28,60.817 -136.28,135.83 l 353.55,353.55 c 0,-75.02 61.01,-135.83 136.28,-135.83 z"
       inkscape:connector-curvature="0"
       id="path539" />
    <path
       d="m 119.72,188.11 c 0,4.195 0.165,8.296 0.539,12.393 l 353.55,353.55 c -0.373,-4.098 -0.539,-8.199 -0.539,-12.393 z"
       inkscape:connector-curvature="0"
       id="path541" />
    <path
       d="m 120.26,200.5 c 17.351,-7.977 36.666,-12.393 57.03,-12.393 l 353.55,353.55 c -20.362,0 -39.677,4.417 -57.03,12.393 z"
       inkscape:connector-curvature="0"
       id="path543" />
    <path
       d="m 177.28,188.11 c 9.535,0 18.904,0.973 27.885,2.829 l 353.55,353.55 c -8.981,-1.856 -18.35,-2.829 -27.885,-2.829 z"
       inkscape:connector-curvature="0"
       id="path545" />
    <path
       d="m 205.17,190.93 c -0.053,-0.941 -0.135,-1.875 -0.135,-2.829 l 353.55,353.55 c 0,0.954 0.082,1.888 0.135,2.829 z"
       inkscape:connector-curvature="0"
       id="path547" />
    <path
       d="m 205.03,188.11 c 0,-28.05 22.822,-50.831 50.966,-50.831 l 353.55,353.55 c -28.14,0 -50.966,22.784 -50.966,50.831 z"
       inkscape:connector-curvature="0"
       id="path549" />
    <path
       d="m 256,137.27 c 14.09,0 26.853,5.714 36.08,14.94 l 353.55,353.55 c -9.227,-9.227 -21.986,-14.94 -36.08,-14.94 z"
       inkscape:connector-curvature="0"
       id="path551" />
    <path
       d="m 292.08,152.21 c 9.199,9.199 14.887,21.889 14.887,35.891 l 353.55,353.55 c 0,-14 -5.688,-26.692 -14.887,-35.891 z"
       inkscape:connector-curvature="0"
       id="path553" />
    <path
       d="m 306.97,188.11 c 0,0.954 -0.082,1.888 -0.135,2.829 l 353.55,353.55 c 0.053,-0.941 0.135,-1.875 0.135,-2.829 z"
       inkscape:connector-curvature="0"
       id="path555" />
    <path
       d="m 306.83,190.93 c 8.982,-1.856 18.305,-2.829 27.84,-2.829 l 353.55,353.55 c -9.535,0 -18.858,0.973 -27.84,2.829 z"
       inkscape:connector-curvature="0"
       id="path557" />
    <path
       d="m 334.67,188.11 c 20.362,0 39.722,4.417 57.07,12.393 l 353.55,353.55 C 727.939,546.076 708.579,541.66 688.22,541.66 z"
       inkscape:connector-curvature="0"
       id="path559" />
    <path
       d="m 391.74,200.5 c 0.373,-4.098 0.539,-8.199 0.539,-12.393 l 353.55,353.55 c 0,4.195 -0.165,8.296 -0.539,12.393 z"
       inkscape:connector-curvature="0"
       id="path561" />
    <path
       d="m 392.28,188.11 c 0,-37.429 -15.187,-71.32 -39.756,-95.89 l 353.55,353.55 c 24.569,24.569 39.756,58.46 39.756,95.89 z"
       inkscape:connector-curvature="0"
       id="path563" />
    <path
       d="M 352.53,92.21 C 327.857,67.537 293.721,52.268 256,52.268 l 353.55,353.55 c 37.719,0 71.854,15.269 96.53,39.942 z"
       inkscape:connector-curvature="0"
       id="path565" />
    <path
       d="m 391.74,200.5 c -2.719,29.865 -15.171,56.962 -34.13,78.09 l 353.55,353.55 c 18.956,-21.13 31.408,-48.22 34.13,-78.09 z"
       inkscape:connector-curvature="0"
       id="path567" />
    <path
       d="m 357.62,278.59 c 4.898,2.467 9.343,5.696 13.178,9.53 l 353.55,353.55 c -3.834,-3.834 -8.28,-7.06 -13.178,-9.53 z"
       inkscape:connector-curvature="0"
       id="path569" />
    <path
       d="m 370.8,288.12 c 9.17,9.17 14.843,21.804 14.843,35.778 l 353.55,353.55 c 0,-13.974 -5.673,-26.609 -14.843,-35.778 z"
       inkscape:connector-curvature="0"
       id="path571" />
    <path
       d="m 385.64,323.89 c 0,28.05 -22.777,50.786 -50.921,50.786 l 353.55,353.55 c 28.14,0 50.921,-22.74 50.921,-50.786 z"
       inkscape:connector-curvature="0"
       id="path573" />
    <path
       d="m 334.72,374.68 c -10.297,0 -19.916,-3.03 -27.93,-8.262 l 353.55,353.55 c 8.01,5.234 17.633,8.262 27.93,8.262 z"
       inkscape:connector-curvature="0"
       id="path575" />
    <path
       d="m 306.79,366.42 c -9.208,27.891 -27.18,51.802 -50.741,68.43 l 353.55,353.55 c 23.56,-16.631 41.533,-40.543 50.741,-68.43 z"
       inkscape:connector-curvature="0"
       id="path577" />
    <path
       d="m 256.04,434.85 c 22.23,15.682 49.37,24.877 78.67,24.877 l 353.55,353.55 c -29.3,0 -56.45,-9.195 -78.67,-24.877 z"
       inkscape:connector-curvature="0"
       id="path579" />
    <path
       d="M 334.72,459.73 C 410,459.73 471,398.913 471,323.9 l 353.55,353.55 c 0,75.02 -61.01,135.83 -136.28,135.83 z"
       inkscape:connector-curvature="0"
       id="path581" />
    <path
       d="m 471,323.89 c 0,-37.422 -15.188,-71.31 -39.756,-95.88 l 353.55,353.55 c 24.567,24.567 39.756,58.45 39.756,95.88 z"
       inkscape:connector-curvature="0"
       id="path583" />
    <path
       d="m 431.24,228.02 c -11.354,-11.354 -24.712,-20.718 -39.5,-27.519 l 353.55,353.55 c 14.788,6.801 28.15,16.16 39.5,27.519 z"
       inkscape:connector-curvature="0"
       id="path585" />
    <path
       d="M 120.26,200.5 C 73.477,222.017 41,269.18 41,323.9 l 353.55,353.55 c 0,-54.718 32.473,-101.88 79.26,-123.4 z"
       inkscape:connector-curvature="0"
       id="path587" />
    <path
       d="m 41,323.89 c 0,37.429 15.187,71.32 39.756,95.89 l 353.55,353.55 C 409.737,748.761 394.55,714.87 394.55,677.44 z"
       inkscape:connector-curvature="0"
       id="path589" />
    <path
       d="m 80.76,419.79 c 24.673,24.673 58.809,39.942 96.53,39.942 l 353.55,353.55 c -37.719,0 -71.854,-15.269 -96.53,-39.942 z"
       inkscape:connector-curvature="0"
       id="path591" />
    <path
       d="m 177.28,459.73 c 29.3,0 56.45,-9.195 78.67,-24.877 l 353.55,353.55 c -22.23,15.682 -49.37,24.877 -78.67,24.877 z"
       inkscape:connector-curvature="0"
       id="path593" />
    <path
       d="m 255.96,434.85 c -6.352,-4.484 -12.297,-9.496 -17.775,-14.974 l 353.55,353.55 c 5.477,5.477 11.423,10.49 17.775,14.974 z"
       inkscape:connector-curvature="0"
       id="path595" />
    <path
       d="m 238.18,419.88 c -14.84,-14.84 -26.24,-33.09 -32.967,-53.46 l 353.55,353.55 c 6.726,20.372 18.13,38.62 32.967,53.46 z"
       inkscape:connector-curvature="0"
       id="path597" />
    <path
       d="m 205.21,366.42 c -8.01,5.234 -17.633,8.262 -27.93,8.262 l 353.55,353.55 c 10.297,0 19.916,-3.03 27.93,-8.262 z"
       inkscape:connector-curvature="0"
       id="path599" />
    <path
       d="m 177.28,374.68 c -14.09,0 -26.841,-5.702 -36.06,-14.918 l 353.55,353.55 c 9.216,9.216 21.963,14.918 36.06,14.918 z"
       inkscape:connector-curvature="0"
       id="path601" />
    <path
       d="m 141.23,359.76 c -9.187,-9.187 -14.864,-21.867 -14.864,-35.868 l 353.55,353.55 c 0,14 5.677,26.681 14.864,35.868 z"
       inkscape:connector-curvature="0"
       id="path603" />
    <path
       d="m 126.36,323.89 c 0,-19.817 11.408,-36.94 28.02,-45.31 l 353.55,353.55 c -16.612,8.368 -28.02,25.491 -28.02,45.31 z"
       inkscape:connector-curvature="0"
       id="path605" />
    <path
       d="M 154.38,278.59 C 135.424,257.46 122.972,230.37 120.25,200.5 L 473.8,554.05 c 2.719,29.865 15.171,56.962 34.13,78.09 z"
       inkscape:connector-curvature="0"
       id="path607" />
    <path
       d="m 256,143.34 c -24.8,0 -44.769,19.993 -44.769,44.769 l 353.55,353.55 c 0,-24.776 19.969,-44.769 44.769,-44.769 z"
       inkscape:connector-curvature="0"
       id="path609" />
    <path
       d="m 211.23,188.11 c 0,12.369 4.977,23.523 13.05,31.593 l 353.55,353.55 c -8.07,-8.07 -13.05,-19.224 -13.05,-31.593 z"
       inkscape:connector-curvature="0"
       id="path611" />
    <path
       d="m 224.28,219.7 c 8.095,8.095 19.303,13.09 31.723,13.09 l 353.55,353.55 c -12.419,0 -23.627,-4.991 -31.723,-13.09 z"
       inkscape:connector-curvature="0"
       id="path613" />
    <path
       d="m 256,232.78 c 24.8,0 44.769,-19.903 44.769,-44.679 l 353.55,353.55 c 0,24.776 -19.969,44.679 -44.769,44.679 z"
       inkscape:connector-curvature="0"
       id="path615" />
    <path
       d="m 300.77,188.11 c 0,-12.391 -4.995,-23.586 -13.09,-31.681 l 353.55,353.55 c 8.096,8.096 13.09,19.29 13.09,31.681 z"
       inkscape:connector-curvature="0"
       id="path617" />
    <path
       d="m 287.68,156.42 c -8.092,-8.092 -19.282,-13.09 -31.679,-13.09 l 353.55,353.55 c 12.397,0 23.587,4.996 31.679,13.09 z"
       inkscape:connector-curvature="0"
       id="path619" />
    <path
       d="m 177.28,279.17 c -24.8,0 -44.724,19.948 -44.724,44.724 l 353.55,353.55 c 0,-24.776 19.925,-44.724 44.724,-44.724 z"
       inkscape:connector-curvature="0"
       id="path621" />
    <path
       d="m 132.56,323.89 c 0,12.391 4.983,23.575 13.07,31.659 l 353.55,353.55 c -8.08,-8.08 -13.07,-19.268 -13.07,-31.659 z"
       inkscape:connector-curvature="0"
       id="path623" />
    <path
       d="m 145.63,355.55 c 8.08,8.08 19.259,13.07 31.656,13.07 l 353.55,353.55 c -12.397,0 -23.576,-4.985 -31.656,-13.07 z"
       inkscape:connector-curvature="0"
       id="path625" />
    <path
       d="m 177.28,368.62 c 24.8,0 44.814,-19.948 44.814,-44.724 l 353.55,353.55 c 0,24.776 -20.01,44.724 -44.814,44.724 z"
       inkscape:connector-curvature="0"
       id="path627" />
    <path
       d="m 222.1,323.89 c 0,-12.369 -4.988,-23.534 -13.07,-31.615 l 353.55,353.55 c 8.08,8.08 13.07,19.246 13.07,31.615 z"
       inkscape:connector-curvature="0"
       id="path629" />
    <path
       d="m 209.03,292.28 c -8.107,-8.107 -19.326,-13.11 -31.745,-13.11 l 353.55,353.55 c 12.419,0 23.639,5 31.745,13.11 z"
       inkscape:connector-curvature="0"
       id="path631" />
    <path
       d="m 334.72,279.17 c -24.8,0 -44.814,19.948 -44.814,44.724 l 353.55,353.55 c 0,-24.776 20.01,-44.724 44.814,-44.724 z"
       inkscape:connector-curvature="0"
       id="path633" />
    <path
       d="m 289.9,323.89 c 0,12.369 4.988,23.534 13.07,31.615 l 353.55,353.55 c -8.08,-8.08 -13.07,-19.246 -13.07,-31.615 z"
       inkscape:connector-curvature="0"
       id="path635" />
    <path
       d="m 302.97,355.51 c 8.107,8.107 19.326,13.11 31.745,13.11 l 353.55,353.55 c -12.419,0 -23.639,-5 -31.745,-13.11 z"
       inkscape:connector-curvature="0"
       id="path637" />
    <path
       d="m 334.72,368.62 c 24.8,0 44.724,-19.948 44.724,-44.724 l 353.55,353.55 c 0,24.776 -19.925,44.724 -44.724,44.724 z"
       inkscape:connector-curvature="0"
       id="path639" />
    <path
       d="m 379.44,323.89 c 0,-12.391 -4.983,-23.575 -13.07,-31.659 l 353.55,353.55 c 8.08,8.08 13.07,19.268 13.07,31.659 z"
       inkscape:connector-curvature="0"
       id="path641" />
    <path
       d="m 366.37,292.24 c -8.08,-8.08 -19.259,-13.07 -31.656,-13.07 l 353.55,353.55 c 12.397,0 23.576,4.985 31.656,13.07 z"
       inkscape:connector-curvature="0"
       id="path643" />
  </g>
  <path
     d="m 256,52.27 c -75.28,0 -136.28,60.817 -136.28,135.83 0,4.195 0.165,8.296 0.539,12.393 17.351,-7.977 36.666,-12.393 57.03,-12.393 9.535,0 18.904,0.973 27.885,2.829 -0.053,-0.941 -0.135,-1.875 -0.135,-2.829 0,-28.05 22.822,-50.831 50.966,-50.831 28.14,0 50.966,22.784 50.966,50.831 0,0.954 -0.082,1.888 -0.135,2.829 8.982,-1.856 18.305,-2.829 27.84,-2.829 20.362,0 39.722,4.417 57.07,12.393 0.373,-4.098 0.539,-8.199 0.539,-12.393 0,-75.02 -61.01,-135.83 -136.28,-135.83 m 135.74,148.23 c -2.719,29.865 -15.171,56.962 -34.13,78.09 16.612,8.368 28.02,25.491 28.02,45.31 0,28.05 -22.777,50.786 -50.921,50.786 -10.297,0 -19.916,-3.03 -27.93,-8.262 -9.208,27.891 -27.18,51.802 -50.741,68.43 22.23,15.682 49.37,24.877 78.67,24.877 75.28,0 136.28,-60.817 136.28,-135.83 0,-54.718 -32.473,-101.88 -79.26,-123.4 m -271.49,0 c -46.783,21.517 -79.26,68.68 -79.26,123.4 0,75.02 61.01,135.83 136.28,135.83 29.3,0 56.45,-9.195 78.67,-24.877 -23.56,-16.631 -41.533,-40.543 -50.741,-68.43 -8.01,5.234 -17.633,8.262 -27.93,8.262 -28.14,0 -50.921,-22.74 -50.921,-50.786 0,-19.817 11.408,-36.94 28.02,-45.31 -18.956,-21.13 -31.408,-48.22 -34.13,-78.09 m 135.74,-57.16 c -24.8,0 -44.769,19.993 -44.769,44.769 0,24.776 19.969,44.679 44.769,44.679 24.8,0 44.769,-19.903 44.769,-44.679 0,-24.776 -19.969,-44.769 -44.769,-44.769 m -78.72,135.83 c -24.8,0 -44.724,19.948 -44.724,44.724 0,24.776 19.925,44.724 44.724,44.724 24.8,0 44.814,-19.948 44.814,-44.724 0,-24.776 -20.01,-44.724 -44.814,-44.724 m 157.43,0 c -24.8,0 -44.814,19.948 -44.814,44.724 0,24.776 20.01,44.724 44.814,44.724 24.8,0 44.724,-19.948 44.724,-44.724 0,-24.776 -19.925,-44.724 -44.724,-44.724"
     inkscape:connector-curvature="0"
     id="path645"
     style="fill:#ffffff" />
</svg>
