<?xml version="1.0" encoding="UTF-8" standalone="no"?>
<!-- Created with Inkscape (http://www.inkscape.org/) -->

<svg
   xmlns:dc="http://purl.org/dc/elements/1.1/"
   xmlns:cc="http://creativecommons.org/ns#"
   xmlns:rdf="http://www.w3.org/1999/02/22-rdf-syntax-ns#"
   xmlns:svg="http://www.w3.org/2000/svg"
   xmlns="http://www.w3.org/2000/svg"
   xmlns:inkscape="http://www.inkscape.org/namespaces/inkscape"
   version="1.1"
   width="100%"
   height="100%"
   viewBox="0 0 512 512"
   id="svg2">
  <metadata
     id="metadata10">
    <rdf:RDF>
      <cc:Work
         rdf:about="">
        <dc:format>image/svg+xml</dc:format>
        <dc:type
           rdf:resource="http://purl.org/dc/dcmitype/StillImage" />
        <dc:title />
      </cc:Work>
    </rdf:RDF>
  </metadata>
  <defs
     id="defs8">
    <clipPath
       id="clipPath3617">
      <path
         d="M 26,0 C 11.602648,0 0,11.602648 0,26 l 0,460 c 0,14.39735 11.602648,26 26,26 l 460,0 c 14.39735,0 26,-11.60265 26,-26 L 512,26 C 512,11.602648 500.39735,0 486,0 L 26,0 z"
         inkscape:connector-curvature="0"
         id="path3619"
         style="fill:none;fill-opacity:1;stroke:none" />
    </clipPath>
  </defs>
  <path
     d="M 26,0 C 11.602648,0 0,11.602648 0,26 l 0,460 c 0,14.39735 11.602648,26 26,26 l 460,0 c 14.39735,0 26,-11.60265 26,-26 L 512,26 C 512,11.602648 500.39735,0 486,0 L 26,0 z"
     inkscape:connector-curvature="0"
     id="rect2986"
     style="fill:none;fill-opacity:1;stroke:none" />
  <g
     clip-path="url(#clipPath3617)"
     id="g3123"
     style="opacity:0.0;fill:#000000">
    <path
       d="m 179.6936,41.421797 c -7.27388,0 -13.15231,5.878431 -13.15231,13.15231 L 555.45002,443.48284 c 0,-7.27388 5.87843,-13.15231 13.15231,-13.15231 z"
       inkscape:connector-curvature="0"
       id="path3125"
       style="fill:#000000" />
    <path
       d="m 166.54129,54.574107 0,57.479043 388.90873,388.90873 0,-57.47904 z"
       inkscape:connector-curvature="0"
       id="path3127"
       style="fill:#000000" />
    <path
       d="m 166.54129,112.05315 c 0,3.61777 1.45415,6.87137 3.81091,9.22812 L 559.26093,510.19 c -2.35676,-2.35675 -3.81091,-5.61035 -3.81091,-9.22812 z"
       inkscape:connector-curvature="0"
       id="path3129"
       style="fill:#000000" />
    <path
       d="m 170.3522,121.28127 c 2.38173,2.38173 5.68529,3.8475 9.3414,3.8475 L 568.60233,514.0375 c -3.65611,0 -6.95967,-1.46577 -9.3414,-3.8475 z"
       inkscape:connector-curvature="0"
       id="path3131"
       style="fill:#000000" />
    <path
       d="m 179.6936,125.12877 c 7.27388,0 13.15231,-5.80297 13.15231,-13.07562 l 388.90873,388.90873 c 0,7.27265 -5.87843,13.07562 -13.15231,13.07562 z"
       inkscape:connector-curvature="0"
       id="path3133"
       style="fill:#000000" />
    <path
       d="m 192.84591,112.05315 0,-57.479043 388.90873,388.908733 0,57.47904 z"
       inkscape:connector-curvature="0"
       id="path3135"
       style="fill:#000000" />
    <path
       d="m 192.84591,54.574107 c 0,-3.63694 -1.46961,-6.925017 -3.84845,-9.30386 L 577.90619,434.17898 c 2.37884,2.37884 3.84845,5.66692 3.84845,9.30386 z"
       inkscape:connector-curvature="0"
       id="path3137"
       style="fill:#000000" />
    <path
       d="m 188.99746,45.270247 c -2.37884,-2.378842 -5.66692,-3.84845 -9.30386,-3.84845 L 568.60233,430.33053 c 3.63694,0 6.92502,1.4696 9.30386,3.84845 z"
       inkscape:connector-curvature="0"
       id="path3139"
       style="fill:#000000" />
    <path
       d="m 252.70233,41.421797 c -7.27387,0 -13.07562,5.878431 -13.07562,13.15231 L 628.53544,443.48284 c 0,-7.27388 5.80175,-13.15231 13.07562,-13.15231 z"
       inkscape:connector-curvature="0"
       id="path3141"
       style="fill:#000000" />
    <path
       d="m 239.62671,54.574107 0,57.479043 388.90873,388.90873 0,-57.47904 z"
       inkscape:connector-curvature="0"
       id="path3143"
       style="fill:#000000" />
    <path
       d="m 239.62671,112.05315 c 0,3.63679 1.45062,6.90557 3.81027,9.26522 L 632.34571,510.2271 c -2.35965,-2.35965 -3.81027,-5.62843 -3.81027,-9.26522 z"
       inkscape:connector-curvature="0"
       id="path3145"
       style="fill:#000000" />
    <path
       d="m 243.43698,121.31837 c 2.35984,2.35984 5.62887,3.8104 9.26535,3.8104 L 641.61106,514.0375 c -3.63648,0 -6.90551,-1.45056 -9.26535,-3.8104 z"
       inkscape:connector-curvature="0"
       id="path3147"
       style="fill:#000000" />
    <path
       d="m 252.70233,125.12877 c 7.27388,0 13.15231,-5.80297 13.15231,-13.07562 l 388.90873,388.90873 c 0,7.27265 -5.87843,13.07562 -13.15231,13.07562 z"
       inkscape:connector-curvature="0"
       id="path3149"
       style="fill:#000000" />
    <path
       d="m 265.85464,112.05315 0,-57.479043 388.90873,388.908733 0,57.47904 z"
       inkscape:connector-curvature="0"
       id="path3151"
       style="fill:#000000" />
    <path
       d="m 265.85464,54.574107 c 0,-3.63694 -1.46961,-6.925017 -3.84845,-9.30386 L 650.91492,434.17898 c 2.37884,2.37884 3.84845,5.66692 3.84845,9.30386 z"
       inkscape:connector-curvature="0"
       id="path3153"
       style="fill:#000000" />
    <path
       d="m 262.00619,45.270247 c -2.37884,-2.378842 -5.66692,-3.84845 -9.30386,-3.84845 L 641.61106,430.33053 c 3.63694,0 6.92502,1.4696 9.30386,3.84845 z"
       inkscape:connector-curvature="0"
       id="path3155"
       style="fill:#000000" />
    <path
       d="m 325.74942,41.421797 c -7.27388,0 -13.15231,5.878431 -13.15231,13.15231 L 701.50584,443.48284 c 0,-7.27388 5.87843,-13.15231 13.15231,-13.15231 z"
       inkscape:connector-curvature="0"
       id="path3157"
       style="fill:#000000" />
    <path
       d="m 312.59711,54.574107 0,57.479043 388.90873,388.90873 0,-57.47904 z"
       inkscape:connector-curvature="0"
       id="path3159"
       style="fill:#000000" />
    <path
       d="m 312.59711,112.05315 c 0,3.61777 1.45415,6.87137 3.81091,9.22812 L 705.31675,510.19 c -2.35676,-2.35675 -3.81091,-5.61035 -3.81091,-9.22812 z"
       inkscape:connector-curvature="0"
       id="path3161"
       style="fill:#000000" />
    <path
       d="m 316.40802,121.28127 c 2.38173,2.38173 5.68529,3.8475 9.3414,3.8475 L 714.65815,514.0375 c -3.65611,0 -6.95967,-1.46577 -9.3414,-3.8475 z"
       inkscape:connector-curvature="0"
       id="path3163"
       style="fill:#000000" />
    <path
       d="m 325.74942,125.12877 c 7.27388,0 13.07562,-5.80297 13.07562,-13.07562 l 388.90873,388.90873 c 0,7.27265 -5.80174,13.07562 -13.07562,13.07562 z"
       inkscape:connector-curvature="0"
       id="path3165"
       style="fill:#000000" />
    <path
       d="m 338.82504,112.05315 0,-57.479043 388.90873,388.908733 0,57.47904 z"
       inkscape:connector-curvature="0"
       id="path3167"
       style="fill:#000000" />
    <path
       d="m 338.82504,54.574107 c 0,-3.655959 -1.46596,-6.959399 -3.84766,-9.341107 l 388.90873,388.90873 c 2.3817,2.38171 3.84766,5.68515 3.84766,9.34111 z"
       inkscape:connector-curvature="0"
       id="path3169"
       style="fill:#000000" />
    <path
       d="m 334.97738,45.233 c -2.35693,-2.356926 -5.61065,-3.811203 -9.22796,-3.811203 L 714.65815,430.33053 c 3.61731,0 6.87103,1.45427 9.22796,3.8112 z"
       inkscape:connector-curvature="0"
       id="path3171"
       style="fill:#000000" />
    <path
       d="m 178.46656,144.03281 c -20.00194,0 -36.08258,16.15733 -36.08258,36.15927 l 388.90873,388.90873 c 0,-20.00194 16.08064,-36.15927 36.08258,-36.15927 z"
       inkscape:connector-curvature="0"
       id="path3173"
       style="fill:#000000" />
    <path
       d="m 142.38398,180.19208 0,149.31514 388.90873,388.90873 0,-149.31514 z"
       inkscape:connector-curvature="0"
       id="path3175"
       style="fill:#000000" />
    <path
       d="m 142.38398,329.50722 c 0,10.00979 4.02879,19.04713 10.56012,25.57846 l 388.90873,388.90873 c -6.53133,-6.53133 -10.56012,-15.56867 -10.56012,-25.57846 z"
       inkscape:connector-curvature="0"
       id="path3177"
       style="fill:#000000" />
    <path
       d="m 152.9441,355.08568 c 6.51982,6.51982 15.53337,10.54246 25.52246,10.54246 l 388.90873,388.90873 c -9.98909,0 -19.00264,-4.02264 -25.52246,-10.54246 z"
       inkscape:connector-curvature="0"
       id="path3179"
       style="fill:#000000" />
    <path
       d="m 178.46656,365.62814 148.5099,0 388.90873,388.90873 -148.5099,0 z"
       inkscape:connector-curvature="0"
       id="path3181"
       style="fill:#000000" />
    <path
       d="m 326.97646,365.62814 c 20.00194,0 36.08257,-16.12266 36.08257,-36.12092 l 388.90873,388.90873 c 0,19.99826 -16.08063,36.12092 -36.08257,36.12092 z"
       inkscape:connector-curvature="0"
       id="path3183"
       style="fill:#000000" />
    <path
       d="m 363.05903,329.50722 0,-149.31514 388.90873,388.90873 0,149.31514 z"
       inkscape:connector-curvature="0"
       id="path3185"
       style="fill:#000000" />
    <path
       d="m 363.05903,180.19208 c 0,-10.01938 -4.03651,-19.07407 -10.5789,-25.61645 l 388.90873,388.90873 c 6.54239,6.54238 10.5789,15.59707 10.5789,25.61645 z"
       inkscape:connector-curvature="0"
       id="path3187"
       style="fill:#000000" />
    <path
       d="m 352.48013,154.57563 c -6.51834,-6.51835 -15.52417,-10.54282 -25.50367,-10.54282 l 388.90873,388.90873 c 9.9795,0 18.98533,4.02447 25.50367,10.54282 z"
       inkscape:connector-curvature="0"
       id="path3189"
       style="fill:#000000" />
    <path
       d="m 326.97646,144.03281 -148.5099,0 388.90873,388.90873 148.5099,0 z"
       inkscape:connector-curvature="0"
       id="path3191"
       style="fill:#000000" />
    <path
       d="m 232.03442,167.19315 47.93116,0 388.90873,388.90873 -47.93116,0 z"
       inkscape:connector-curvature="0"
       id="path3193"
       style="fill:#000000" />
    <path
       d="m 279.96558,167.19315 0,36.04423 388.90873,388.90873 0,-36.04423 z"
       inkscape:connector-curvature="0"
       id="path3195"
       style="fill:#000000" />
    <path
       d="m 279.96558,203.23738 -47.93116,0 388.90873,388.90873 47.93116,0 z"
       inkscape:connector-curvature="0"
       id="path3197"
       style="fill:#000000" />
    <path
       d="m 232.03442,203.23738 0,-36.04423 388.90873,388.90873 0,36.04423 z"
       inkscape:connector-curvature="0"
       id="path3199"
       style="fill:#000000" />
    <path
       d="m 54.152307,168.65026 c -7.273879,0 -13.152309,5.80296 -13.152309,13.07562 L 429.90873,570.63461 c 0,-7.27266 5.87843,-13.07562 13.15231,-13.07562 z"
       inkscape:connector-curvature="0"
       id="path3201"
       style="fill:#000000" />
    <path
       d="m 40.999998,181.72588 c 0,3.63694 1.469607,6.92502 3.84845,9.30386 L 433.75718,579.93847 c -2.37884,-2.37884 -3.84845,-5.66692 -3.84845,-9.30386 z"
       inkscape:connector-curvature="0"
       id="path3203"
       style="fill:#000000" />
    <path
       d="m 44.848448,191.02974 c 2.378842,2.37884 5.666919,3.84845 9.303859,3.84845 L 443.06104,583.78692 c -3.63694,0 -6.92502,-1.46961 -9.30386,-3.84845 z"
       inkscape:connector-curvature="0"
       id="path3205"
       style="fill:#000000" />
    <path
       d="m 54.152307,194.87819 57.479043,0 388.90873,388.90873 -57.47904,0 z"
       inkscape:connector-curvature="0"
       id="path3207"
       style="fill:#000000" />
    <path
       d="m 111.63135,194.87819 c 7.27388,0 13.07562,-5.87843 13.07562,-13.15231 L 513.6157,570.63461 c 0,7.27388 -5.80174,13.15231 -13.07562,13.15231 z"
       inkscape:connector-curvature="0"
       id="path3209"
       style="fill:#000000" />
    <path
       d="m 124.70697,181.72588 c 0,-3.63679 -1.45062,-6.90557 -3.81027,-9.26522 l 388.90873,388.90873 c 2.35965,2.35965 3.81027,5.62843 3.81027,9.26522 z"
       inkscape:connector-curvature="0"
       id="path3211"
       style="fill:#000000" />
    <path
       d="m 120.8967,172.46066 c -2.35984,-2.35984 -5.62887,-3.8104 -9.26535,-3.8104 l 388.90873,388.90873 c 3.63648,0 6.90551,1.45056 9.26535,3.8104 z"
       inkscape:connector-curvature="0"
       id="path3213"
       style="fill:#000000" />
    <path
       d="m 111.63135,168.65026 -57.479044,0 388.908734,388.90873 57.47904,0 z"
       inkscape:connector-curvature="0"
       id="path3215"
       style="fill:#000000" />
    <path
       d="m 400.44533,168.65026 c -7.27388,0 -13.15231,5.80296 -13.15231,13.07562 l 388.90873,388.90873 c 0,-7.27266 5.87843,-13.07562 13.15231,-13.07562 z"
       inkscape:connector-curvature="0"
       id="path3217"
       style="fill:#000000" />
    <path
       d="m 387.29302,181.72588 c 0,3.61186 1.44941,6.87965 3.79936,9.25451 l 388.90873,388.90873 c -2.34995,-2.37486 -3.79936,-5.64265 -3.79936,-9.25451 z"
       inkscape:connector-curvature="0"
       id="path3219"
       style="fill:#000000" />
    <path
       d="m 391.09238,190.98039 c 2.3826,2.40785 5.69093,3.8978 9.35295,3.8978 l 388.90873,388.90873 c -3.66202,0 -6.97035,-1.48995 -9.35295,-3.8978 z"
       inkscape:connector-curvature="0"
       id="path3221"
       style="fill:#000000" />
    <path
       d="m 400.44533,194.87819 57.47905,0 388.90873,388.90873 -57.47905,0 z"
       inkscape:connector-curvature="0"
       id="path3223"
       style="fill:#000000" />
    <path
       d="m 457.92438,194.87819 c 7.27387,0 13.07562,-5.87843 13.07562,-13.15231 l 388.90873,388.90873 c 0,7.27388 -5.80175,13.15231 -13.07562,13.15231 z"
       inkscape:connector-curvature="0"
       id="path3225"
       style="fill:#000000" />
    <path
       d="m 471,181.72588 c 0,-3.63679 -1.45062,-6.90557 -3.81027,-9.26522 l 388.90873,388.90873 c 2.35965,2.35965 3.81027,5.62843 3.81027,9.26522 z"
       inkscape:connector-curvature="0"
       id="path3227"
       style="fill:#000000" />
    <path
       d="m 467.18973,172.46066 c -2.35984,-2.35984 -5.62887,-3.8104 -9.26535,-3.8104 l 388.90873,388.90873 c 3.63648,0 6.90551,1.45056 9.26535,3.8104 z"
       inkscape:connector-curvature="0"
       id="path3229"
       style="fill:#000000" />
    <path
       d="m 457.92438,168.65026 -57.47905,0 388.90873,388.90873 57.47905,0 z"
       inkscape:connector-curvature="0"
       id="path3231"
       style="fill:#000000" />
    <path
       d="m 232.03442,224.5955 47.93116,0 388.90873,388.90873 -47.93116,0 z"
       inkscape:connector-curvature="0"
       id="path3233"
       style="fill:#000000" />
    <path
       d="m 279.96558,224.5955 0,118.21741 388.90873,388.90873 0,-118.21741 z"
       inkscape:connector-curvature="0"
       id="path3235"
       style="fill:#000000" />
    <path
       d="m 279.96558,342.81291 -47.93116,0 388.90873,388.90873 47.93116,0 z"
       inkscape:connector-curvature="0"
       id="path3237"
       style="fill:#000000" />
    <path
       d="m 232.03442,342.81291 0,-118.21741 388.90873,388.90873 0,118.21741 z"
       inkscape:connector-curvature="0"
       id="path3239"
       style="fill:#000000" />
    <path
       d="m 54.152307,241.659 c -7.273879,0 -13.152309,5.87843 -13.152309,13.1523 L 429.90873,643.72003 c 0,-7.27387 5.87843,-13.1523 13.15231,-13.1523 z"
       inkscape:connector-curvature="0"
       id="path3241"
       style="fill:#000000" />
    <path
       d="m 40.999998,254.8113 c 0,3.61777 1.454154,6.87137 3.810906,9.22812 L 433.71963,652.94815 c -2.35675,-2.35675 -3.8109,-5.61035 -3.8109,-9.22812 z"
       inkscape:connector-curvature="0"
       id="path3243"
       style="fill:#000000" />
    <path
       d="m 44.810904,264.03942 c 2.38173,2.38173 5.685291,3.8475 9.341403,3.8475 L 443.06104,656.79565 c -3.65612,0 -6.95968,-1.46577 -9.34141,-3.8475 z"
       inkscape:connector-curvature="0"
       id="path3245"
       style="fill:#000000" />
    <path
       d="m 54.152307,267.88692 57.479043,0 388.90873,388.90873 -57.47904,0 z"
       inkscape:connector-curvature="0"
       id="path3247"
       style="fill:#000000" />
    <path
       d="m 111.63135,267.88692 c 7.27388,0 13.07562,-5.80296 13.07562,-13.07562 L 513.6157,643.72003 c 0,7.27266 -5.80174,13.07562 -13.07562,13.07562 z"
       inkscape:connector-curvature="0"
       id="path3249"
       style="fill:#000000" />
    <path
       d="m 124.70697,254.8113 c 0,-3.65595 -1.46595,-6.95939 -3.84766,-9.3411 l 388.90873,388.90873 c 2.38171,2.38171 3.84766,5.68514 3.84766,9.3411 z"
       inkscape:connector-curvature="0"
       id="path3251"
       style="fill:#000000" />
    <path
       d="m 120.85931,245.4702 c -2.35693,-2.35692 -5.61065,-3.8112 -9.22796,-3.8112 l 388.90873,388.90873 c 3.61731,0 6.87103,1.45428 9.22796,3.8112 z"
       inkscape:connector-curvature="0"
       id="path3253"
       style="fill:#000000" />
    <path
       d="m 111.63135,241.659 -57.479044,0 388.908734,388.90873 57.47904,0 z"
       inkscape:connector-curvature="0"
       id="path3255"
       style="fill:#000000" />
    <path
       d="m 400.44533,241.659 c -7.27388,0 -13.15231,5.87843 -13.15231,13.1523 l 388.90873,388.90873 c 0,-7.27387 5.87843,-13.1523 13.15231,-13.1523 z"
       inkscape:connector-curvature="0"
       id="path3257"
       style="fill:#000000" />
    <path
       d="m 387.29302,254.8113 c 0,3.61777 1.45415,6.87137 3.81091,9.22812 l 388.90873,388.90873 c -2.35676,-2.35675 -3.81091,-5.61035 -3.81091,-9.22812 z"
       inkscape:connector-curvature="0"
       id="path3259"
       style="fill:#000000" />
    <path
       d="m 391.10393,264.03942 c 2.38173,2.38173 5.68529,3.8475 9.3414,3.8475 l 388.90873,388.90873 c -3.65611,0 -6.95967,-1.46577 -9.3414,-3.8475 z"
       inkscape:connector-curvature="0"
       id="path3261"
       style="fill:#000000" />
    <path
       d="m 400.44533,267.88692 57.47905,0 388.90873,388.90873 -57.47905,0 z"
       inkscape:connector-curvature="0"
       id="path3263"
       style="fill:#000000" />
    <path
       d="m 457.92438,267.88692 c 7.27387,0 13.07562,-5.80296 13.07562,-13.07562 l 388.90873,388.90873 c 0,7.27266 -5.80175,13.07562 -13.07562,13.07562 z"
       inkscape:connector-curvature="0"
       id="path3265"
       style="fill:#000000" />
    <path
       d="m 471,254.8113 c 0,-3.65595 -1.46595,-6.95939 -3.84766,-9.3411 l 388.90873,388.90873 c 2.3817,2.38171 3.84766,5.68515 3.84766,9.3411 z"
       inkscape:connector-curvature="0"
       id="path3267"
       style="fill:#000000" />
    <path
       d="m 467.15234,245.4702 c -2.35693,-2.35692 -5.61065,-3.8112 -9.22796,-3.8112 l 388.90873,388.90873 c 3.61731,0 6.87103,1.45428 9.22796,3.8112 z"
       inkscape:connector-curvature="0"
       id="path3269"
       style="fill:#000000" />
    <path
       d="m 457.92438,241.659 -57.47905,0 388.90873,388.90873 57.47905,0 z"
       inkscape:connector-curvature="0"
       id="path3271"
       style="fill:#000000" />
    <path
       d="m 54.152306,314.66773 c -7.273879,0 -13.152309,5.87843 -13.152309,13.15231 L 429.90873,716.72877 c 0,-7.27388 5.87843,-13.15231 13.15231,-13.15231 z"
       inkscape:connector-curvature="0"
       id="path3273"
       style="fill:#000000" />
    <path
       d="m 40.999997,327.82004 c 0,3.63694 1.469608,6.92502 3.84845,9.30386 L 433.75718,726.03263 c -2.37885,-2.37884 -3.84845,-5.66692 -3.84845,-9.30386 z"
       inkscape:connector-curvature="0"
       id="path3275"
       style="fill:#000000" />
    <path
       d="m 44.848447,337.1239 c 2.378842,2.37884 5.66692,3.84845 9.303859,3.84845 L 443.06104,729.88108 c -3.63694,0 -6.92502,-1.46961 -9.30386,-3.84845 z"
       inkscape:connector-curvature="0"
       id="path3277"
       style="fill:#000000" />
    <path
       d="m 54.152306,340.97235 57.479044,0 388.90873,388.90873 -57.47904,0 z"
       inkscape:connector-curvature="0"
       id="path3279"
       style="fill:#000000" />
    <path
       d="m 111.63135,340.97235 c 7.27388,0 13.07562,-5.87843 13.07562,-13.15231 L 513.6157,716.72877 c 0,7.27388 -5.80174,13.15231 -13.07562,13.15231 z"
       inkscape:connector-curvature="0"
       id="path3281"
       style="fill:#000000" />
    <path
       d="m 124.70697,327.82004 c 0,-3.65596 -1.46595,-6.9594 -3.84766,-9.34111 l 388.90873,388.90873 c 2.38171,2.38171 3.84766,5.68515 3.84766,9.34111 z"
       inkscape:connector-curvature="0"
       id="path3283"
       style="fill:#000000" />
    <path
       d="m 120.85931,318.47893 c -2.35693,-2.35692 -5.61065,-3.8112 -9.22796,-3.8112 l 388.90873,388.90873 c 3.61731,0 6.87103,1.45428 9.22796,3.8112 z"
       inkscape:connector-curvature="0"
       id="path3285"
       style="fill:#000000" />
    <path
       d="m 111.63135,314.66773 -57.479044,0 388.908734,388.90873 57.47904,0 z"
       inkscape:connector-curvature="0"
       id="path3287"
       style="fill:#000000" />
    <path
       d="m 400.44533,314.66773 c -7.27388,0 -13.15231,5.87843 -13.15231,13.15231 l 388.90873,388.90873 c 0,-7.27388 5.87843,-13.15231 13.15231,-13.15231 z"
       inkscape:connector-curvature="0"
       id="path3289"
       style="fill:#000000" />
    <path
       d="m 387.29302,327.82004 c 0,7.27388 5.87843,13.15231 13.15231,13.15231 l 388.90873,388.90873 c -7.27388,0 -13.15231,-5.87843 -13.15231,-13.15231 z"
       inkscape:connector-curvature="0"
       id="path3291"
       style="fill:#000000" />
    <path
       d="m 400.44533,340.97235 57.47905,0 388.90873,388.90873 -57.47905,0 z"
       inkscape:connector-curvature="0"
       id="path3293"
       style="fill:#000000" />
    <path
       d="m 457.92438,340.97235 c 7.27387,0 13.07562,-5.87843 13.07562,-13.15231 l 388.90873,388.90873 c 0,7.27388 -5.80175,13.15231 -13.07562,13.15231 z"
       inkscape:connector-curvature="0"
       id="path3295"
       style="fill:#000000" />
    <path
       d="m 471,327.82004 c 0,-3.65596 -1.46596,-6.9594 -3.84766,-9.34111 l 388.90873,388.90873 c 2.3817,2.38171 3.84766,5.68515 3.84766,9.34111 z"
       inkscape:connector-curvature="0"
       id="path3297"
       style="fill:#000000" />
    <path
       d="m 467.15234,318.47893 c -2.35693,-2.35692 -5.61065,-3.8112 -9.22796,-3.8112 l 388.90873,388.90873 c 3.61731,0 6.87103,1.45428 9.22796,3.8112 z"
       inkscape:connector-curvature="0"
       id="path3299"
       style="fill:#000000" />
    <path
       d="m 457.92438,314.66773 -57.47905,0 388.90873,388.90873 57.47905,0 z"
       inkscape:connector-curvature="0"
       id="path3301"
       style="fill:#000000" />
    <path
       d="m 179.6936,386.87123 c -7.27388,0 -13.15231,5.87843 -13.15231,13.15231 l 388.90873,388.90873 c 0,-7.27388 5.87843,-13.15231 13.15231,-13.15231 z"
       inkscape:connector-curvature="0"
       id="path3303"
       style="fill:#000000" />
    <path
       d="m 166.54129,400.02354 0,57.47904 388.90873,388.90873 0,-57.47904 z"
       inkscape:connector-curvature="0"
       id="path3305"
       style="fill:#000000" />
    <path
       d="m 166.54129,457.50258 c 0,3.61777 1.45415,6.87137 3.81091,9.22812 l 388.90873,388.90873 c -2.35676,-2.35675 -3.81091,-5.61035 -3.81091,-9.22812 z"
       inkscape:connector-curvature="0"
       id="path3307"
       style="fill:#000000" />
    <path
       d="m 170.3522,466.7307 c 2.38173,2.38173 5.68529,3.8475 9.3414,3.8475 l 388.90873,388.90873 c -3.65611,0 -6.95967,-1.46577 -9.3414,-3.8475 z"
       inkscape:connector-curvature="0"
       id="path3309"
       style="fill:#000000" />
    <path
       d="m 179.6936,470.5782 c 7.27388,0 13.15231,-5.80297 13.15231,-13.07562 l 388.90873,388.90873 c 0,7.27265 -5.87843,13.07562 -13.15231,13.07562 z"
       inkscape:connector-curvature="0"
       id="path3311"
       style="fill:#000000" />
    <path
       d="m 192.84591,457.50258 0,-57.47904 388.90873,388.90873 0,57.47904 z"
       inkscape:connector-curvature="0"
       id="path3313"
       style="fill:#000000" />
    <path
       d="m 192.84591,400.02354 c 0,-3.66237 -1.49023,-6.97099 -3.89849,-9.35363 l 388.90873,388.90873 c 2.40826,2.38264 3.89849,5.69126 3.89849,9.35363 z"
       inkscape:connector-curvature="0"
       id="path3315"
       style="fill:#000000" />
    <path
       d="m 188.94742,390.66991 c -2.37481,-2.34955 -5.64231,-3.79868 -9.25382,-3.79868 l 388.90873,388.90873 c 3.61151,0 6.87901,1.44913 9.25382,3.79868 z"
       inkscape:connector-curvature="0"
       id="path3317"
       style="fill:#000000" />
    <path
       d="m 252.70233,386.87123 c -7.27387,0 -13.07562,5.87843 -13.07562,13.15231 l 388.90873,388.90873 c 0,-7.27388 5.80175,-13.15231 13.07562,-13.15231 z"
       inkscape:connector-curvature="0"
       id="path3319"
       style="fill:#000000" />
    <path
       d="m 239.62671,400.02354 0,57.47904 388.90873,388.90873 0,-57.47904 z"
       inkscape:connector-curvature="0"
       id="path3321"
       style="fill:#000000" />
    <path
       d="m 239.62671,457.50258 c 0,3.63679 1.45062,6.90557 3.81027,9.26522 l 388.90873,388.90873 c -2.35965,-2.35965 -3.81027,-5.62843 -3.81027,-9.26522 z"
       inkscape:connector-curvature="0"
       id="path3323"
       style="fill:#000000" />
    <path
       d="m 243.43698,466.7678 c 2.35984,2.35984 5.62887,3.8104 9.26535,3.8104 l 388.90873,388.90873 c -3.63648,0 -6.90551,-1.45056 -9.26535,-3.8104 z"
       inkscape:connector-curvature="0"
       id="path3325"
       style="fill:#000000" />
    <path
       d="m 252.70233,470.5782 c 7.27388,0 13.15231,-5.80297 13.15231,-13.07562 l 388.90873,388.90873 c 0,7.27265 -5.87843,13.07562 -13.15231,13.07562 z"
       inkscape:connector-curvature="0"
       id="path3327"
       style="fill:#000000" />
    <path
       d="m 265.85464,457.50258 0,-57.47904 388.90873,388.90873 0,57.47904 z"
       inkscape:connector-curvature="0"
       id="path3329"
       style="fill:#000000" />
    <path
       d="m 265.85464,400.02354 c 0,-7.27388 -5.87843,-13.15231 -13.15231,-13.15231 l 388.90873,388.90873 c 7.27388,0 13.15231,5.87843 13.15231,13.15231 z"
       inkscape:connector-curvature="0"
       id="path3331"
       style="fill:#000000" />
    <path
       d="m 325.74942,386.87123 c -7.27388,0 -13.15231,5.87843 -13.15231,13.15231 l 388.90873,388.90873 c 0,-7.27388 5.87843,-13.15231 13.15231,-13.15231 z"
       inkscape:connector-curvature="0"
       id="path3333"
       style="fill:#000000" />
    <path
       d="m 312.59711,400.02354 0,57.47904 388.90873,388.90873 0,-57.47904 z"
       inkscape:connector-curvature="0"
       id="path3335"
       style="fill:#000000" />
    <path
       d="m 312.59711,457.50258 c 0,3.61777 1.45415,6.87137 3.81091,9.22812 l 388.90873,388.90873 c -2.35676,-2.35675 -3.81091,-5.61035 -3.81091,-9.22812 z"
       inkscape:connector-curvature="0"
       id="path3337"
       style="fill:#000000" />
    <path
       d="m 316.40802,466.7307 c 2.38173,2.38173 5.68529,3.8475 9.3414,3.8475 l 388.90873,388.90873 c -3.65611,0 -6.95967,-1.46577 -9.3414,-3.8475 z"
       inkscape:connector-curvature="0"
       id="path3339"
       style="fill:#000000" />
    <path
       d="m 325.74942,470.5782 c 7.27388,0 13.07562,-5.80297 13.07562,-13.07562 l 388.90873,388.90873 c 0,7.27265 -5.80174,13.07562 -13.07562,13.07562 z"
       inkscape:connector-curvature="0"
       id="path3341"
       style="fill:#000000" />
    <path
       d="m 338.82504,457.50258 0,-57.47904 388.90873,388.90873 0,57.47904 z"
       inkscape:connector-curvature="0"
       id="path3343"
       style="fill:#000000" />
    <path
       d="m 338.82504,400.02354 c 0,-3.65596 -1.46596,-6.9594 -3.84766,-9.34111 l 388.90873,388.90873 c 2.3817,2.38171 3.84766,5.68515 3.84766,9.34111 z"
       inkscape:connector-curvature="0"
       id="path3345"
       style="fill:#000000" />
    <path
       d="m 334.97738,390.68243 c -2.35693,-2.35692 -5.61065,-3.8112 -9.22796,-3.8112 l 388.90873,388.90873 c 3.61731,0 6.87103,1.45428 9.22796,3.8112 z"
       inkscape:connector-curvature="0"
       id="path3347"
       style="fill:#000000" />
  </g>
  <path
     d="m 179.6936,41.421797 c -7.27388,0 -13.15231,5.878431 -13.15231,13.15231 l 0,57.479043 c 0,7.27388 5.87843,13.07562 13.15231,13.07562 7.27388,0 13.15231,-5.80297 13.15231,-13.07562 l 0,-57.479043 c 0,-7.273879 -5.87843,-13.15231 -13.15231,-13.15231 z m 73.00873,0 c -7.27387,0 -13.07562,5.878431 -13.07562,13.15231 l 0,57.479043 c 0,7.27388 5.80297,13.07562 13.07562,13.07562 7.27388,0 13.15231,-5.80297 13.15231,-13.07562 l 0,-57.479043 c 0,-7.273879 -5.87843,-13.15231 -13.15231,-13.15231 z m 73.04709,0 c -7.27388,0 -13.15231,5.878431 -13.15231,13.15231 l 0,57.479043 c 0,7.27388 5.87843,13.07562 13.15231,13.07562 7.27388,0 13.07562,-5.80297 13.07562,-13.07562 l 0,-57.479043 c 0,-7.273879 -5.80297,-13.15231 -13.07562,-13.15231 z M 178.46656,144.03281 c -20.00194,0 -36.08258,16.15733 -36.08258,36.15927 l 0,149.31514 c 0,20.00194 16.08677,36.12092 36.08258,36.12092 l 148.5099,0 c 20.00194,0 36.08257,-16.12266 36.08257,-36.12092 l 0,-149.31514 c 0,-20.00194 -16.08677,-36.15927 -36.08257,-36.15927 l -148.5099,0 z m 53.56786,23.16034 47.93116,0 0,36.04423 -47.93116,0 0,-36.04423 z m -177.882113,1.45711 c -7.273879,0 -13.152309,5.80296 -13.152309,13.07562 0,7.27388 5.878429,13.15231 13.152309,13.15231 l 57.479043,0 c 7.27388,0 13.07562,-5.87843 13.07562,-13.15231 0,-7.27388 -5.80296,-13.07562 -13.07562,-13.07562 l -57.479044,0 z m 346.293023,0 c -7.27388,0 -13.15231,5.80296 -13.15231,13.07562 0,7.27388 5.87843,13.15231 13.15231,13.15231 l 57.47905,0 c 7.27387,0 13.07562,-5.87843 13.07562,-13.15231 0,-7.27388 -5.80297,-13.07562 -13.07562,-13.07562 l -57.47905,0 z m -168.41091,55.94524 47.93116,0 0,118.21741 -47.93116,0 0,-118.21741 z M 54.152307,241.659 c -7.273879,0 -13.152309,5.87843 -13.152309,13.1523 0,7.27388 5.878429,13.07562 13.152309,13.07562 l 57.479043,0 c 7.27388,0 13.07562,-5.80296 13.07562,-13.07562 0,-7.27387 -5.80296,-13.1523 -13.07562,-13.1523 l -57.479044,0 z m 346.293023,0 c -7.27388,0 -13.15231,5.87843 -13.15231,13.1523 0,7.27388 5.87843,13.07562 13.15231,13.07562 l 57.47905,0 c 7.27387,0 13.07562,-5.80296 13.07562,-13.07562 0,-7.27387 -5.80297,-13.1523 -13.07562,-13.1523 l -57.47905,0 z M 54.152306,314.66773 c -7.273879,0 -13.152309,5.87843 -13.152309,13.15231 0,7.27388 5.87843,13.15231 13.152309,13.15231 l 57.479044,0 c 7.27388,0 13.07562,-5.87843 13.07562,-13.15231 0,-7.27388 -5.80296,-13.15231 -13.07562,-13.15231 l -57.479044,0 z m 346.293024,0 c -7.27388,0 -13.15231,5.87843 -13.15231,13.15231 0,7.27388 5.87843,13.15231 13.15231,13.15231 l 57.47905,0 c 7.27387,0 13.07562,-5.87843 13.07562,-13.15231 0,-7.27388 -5.80297,-13.15231 -13.07562,-13.15231 l -57.47905,0 z m -220.75173,72.2035 c -7.27388,0 -13.15231,5.87843 -13.15231,13.15231 l 0,57.47904 c 0,7.27388 5.87843,13.07562 13.15231,13.07562 7.27388,0 13.15231,-5.80297 13.15231,-13.07562 l 0,-57.47904 c 0,-7.27388 -5.87843,-13.15231 -13.15231,-13.15231 z m 73.00873,0 c -7.27387,0 -13.07562,5.87843 -13.07562,13.15231 l 0,57.47904 c 0,7.27388 5.80297,13.07562 13.07562,13.07562 7.27388,0 13.15231,-5.80297 13.15231,-13.07562 l 0,-57.47904 c 0,-7.27388 -5.87843,-13.15231 -13.15231,-13.15231 z m 73.04709,0 c -7.27388,0 -13.15231,5.87843 -13.15231,13.15231 l 0,57.47904 c 0,7.27388 5.87843,13.07562 13.15231,13.07562 7.27388,0 13.07562,-5.80297 13.07562,-13.07562 l 0,-57.47904 c 0,-7.27388 -5.80297,-13.15231 -13.07562,-13.15231 z"
     inkscape:connector-curvature="0"
     id="path66"
     style="fill:#ffffff" />
</svg>
