<?xml version="1.0" encoding="UTF-8" standalone="no"?>
<!-- Created with Inkscape (http://www.inkscape.org/) -->

<svg
   xmlns:dc="http://purl.org/dc/elements/1.1/"
   xmlns:cc="http://creativecommons.org/ns#"
   xmlns:rdf="http://www.w3.org/1999/02/22-rdf-syntax-ns#"
   xmlns:svg="http://www.w3.org/2000/svg"
   xmlns="http://www.w3.org/2000/svg"
   xmlns:inkscape="http://www.inkscape.org/namespaces/inkscape"
   version="1.1"
   width="100%"
   height="100%"
   viewBox="0 0 512 512"
   id="svg2">
  <metadata
     id="metadata1277">
    <rdf:RDF>
      <cc:Work
         rdf:about="">
        <dc:format>image/svg+xml</dc:format>
        <dc:type
           rdf:resource="http://purl.org/dc/dcmitype/StillImage" />
      </cc:Work>
    </rdf:RDF>
  </metadata>
  <defs
     id="defs4">
    <clipPath
       id="0">
      <path
         d="M 26,0 C 11.603,0 0,11.603 0,26 v 460 c 0,14.397 11.603,26 26,26 h 460 c 14.397,0 26,-11.603 26,-26 V 26 C 512,11.603 500.397,0 486,0 H 26"
         inkscape:connector-curvature="0"
         id="path7" />
    </clipPath>
  </defs>
  <path
     d="M 26,0 C 11.603,0 0,11.603 0,26 v 460 c 0,14.397 11.603,26 26,26 h 460 c 14.397,0 26,-11.603 26,-26 V 26 C 512,11.603 500.397,0 486,0 H 26"
     inkscape:connector-curvature="0"
     id="path9"
     style="fill:none" />
  <g
     id="g53"
     style="line-height:125%;letter-spacing:0;word-spacing:0;font-family:Gentium Book Basic">
  </g>
  <g
     id="g101"
     style="line-height:125%;letter-spacing:0;word-spacing:0;font-family:Gentium Book Basic">
  </g>
  <g
     id="g149"
     style="line-height:125%;letter-spacing:0;word-spacing:0;font-family:Gentium Book Basic">
  </g>
  <g
     id="g197"
     style="line-height:125%;letter-spacing:0;word-spacing:0;font-family:Gentium Book Basic">
  </g>
  <g
     id="g245"
     style="line-height:125%;letter-spacing:0;word-spacing:0;font-family:Gentium Book Basic">
  </g>
  <g
     id="g293"
     style="line-height:125%;letter-spacing:0;word-spacing:0;font-family:Gentium Book Basic">
  </g>
  <g
     id="g341"
     style="line-height:125%;letter-spacing:0;word-spacing:0;font-family:Gentium Book Basic">
  </g>
  <g
     id="g389"
     style="line-height:125%;letter-spacing:0;word-spacing:0;font-family:Gentium Book Basic">
  </g>
  <g
     id="g437"
     style="line-height:125%;letter-spacing:0;word-spacing:0;font-family:Gentium Book Basic">
  </g>
  <g
     id="g485"
     style="line-height:125%;letter-spacing:0;word-spacing:0;font-family:Gentium Book Basic">
  </g>
  <g
     id="g533"
     style="line-height:125%;letter-spacing:0;word-spacing:0;font-family:Gentium Book Basic">
  </g>
  <g
     id="g581"
     style="line-height:125%;letter-spacing:0;word-spacing:0;font-family:Gentium Book Basic">
  </g>
  <g
     id="g629"
     style="line-height:125%;letter-spacing:0;word-spacing:0;font-family:Gentium Book Basic">
  </g>
  <g
     id="g677"
     style="line-height:125%;letter-spacing:0;word-spacing:0;font-family:Gentium Book Basic">
  </g>
  <g
     id="g725"
     style="font-size:208.33000183px;line-height:125%;letter-spacing:0;word-spacing:0;font-family:Gentium Book Basic">
  </g>
  <g
     id="g857"
     style="line-height:125%;letter-spacing:0;word-spacing:0;font-family:Gentium Book Basic">
  </g>
  <g
     id="g905"
     style="line-height:125%;letter-spacing:0;word-spacing:0;font-family:Gentium Book Basic">
  </g>
  <g
     id="g953"
     style="font-size:208.33000183px;line-height:125%;letter-spacing:0;word-spacing:0;font-family:Gentium Book Basic">
  </g>
  <g
     clip-path="url(#0)"
     id="g1089"
     style="opacity:0.0;color:#000000;fill-rule:evenodd">
    <path
       d="m 55.45,229.53 c -13.497,11.923 -18.709,22.24 -10.58,30.861 l 353.55,353.55 c -8.129,-8.623 -2.917,-18.937 10.58,-30.861 z"
       inkscape:connector-curvature="0"
       id="path1091" />
    <path
       d="m 44.872,260.39 c 0.023,0.023 0.045,0.046 0.068,0.068 l 353.55,353.55 c -0.023,-0.023 -0.045,-0.045 -0.068,-0.068 z"
       inkscape:connector-curvature="0"
       id="path1093" />
    <path
       d="m 44.94,260.46 c 8.547,8.547 18.727,7.147 25.942,-0.068 l 353.55,353.55 c -7.215,7.215 -17.395,8.615 -25.942,0.068 z"
       inkscape:connector-curvature="0"
       id="path1095" />
    <path
       d="m 70.882,260.39 v 169.65 l 353.55,353.55 V 613.94 z"
       inkscape:connector-curvature="0"
       id="path1097" />
    <path
       d="m 70.882,430.04 c 0,3.84 1.912,7.744 4.833,10.664 l 353.55,353.55 c -2.921,-2.921 -4.833,-6.825 -4.833,-10.664 z"
       inkscape:connector-curvature="0"
       id="path1099" />
    <path
       d="m 75.71,440.7 c 2.852,2.852 6.665,4.766 10.597,4.766 l 353.55,353.55 c -3.932,0 -7.745,-1.914 -10.597,-4.766 z"
       inkscape:connector-curvature="0"
       id="path1101" />
    <path
       d="M 86.31,445.47 H 425.65 L 779.2,799.02 H 439.86 z"
       inkscape:connector-curvature="0"
       id="path1103" />
    <path
       d="m 425.65,445.47 c 7.959,0 15.43,-7.841 15.43,-15.43 l 353.55,353.55 c 0,7.589 -7.471,15.43 -15.43,15.43 z"
       inkscape:connector-curvature="0"
       id="path1105" />
    <path
       d="M 441.08,430.04 V 260.39 l 353.55,353.55 v 169.65 z"
       inkscape:connector-curvature="0"
       id="path1107" />
    <path
       d="m 441.08,260.39 c 7.234,7.234 17.429,8.623 26.05,0 l 353.55,353.55 c -8.623,8.623 -18.817,7.234 -26.05,0 z"
       inkscape:connector-curvature="0"
       id="path1109" />
    <path
       d="m 467.14,260.39 c 7.2,-7.637 3.913,-16.602 -6.321,-26.836 l 353.55,353.55 c 10.234,10.234 13.521,19.2 6.321,26.836 z"
       inkscape:connector-curvature="0"
       id="path1111" />
    <path
       d="m 460.81,233.55 c -1.32,-1.32 -2.756,-2.662 -4.301,-4.02 l 353.55,353.55 c 1.544,1.363 2.98,2.704 4.301,4.02 z"
       inkscape:connector-curvature="0"
       id="path1113" />
    <path
       d="M 456.51,229.53 C 256.71,66.69 456.446,229.733 255.97,66.54 l 353.55,353.55 c 200.47,163.2 0.74,0.153 200.54,162.99 z"
       inkscape:connector-curvature="0"
       id="path1115" />
    <path
       d="M 255.98,66.53 C 57.64,228.18 119.04,176.54 55.45,229.52 L 409,583.07 c 63.59,-52.986 2.184,-1.342 200.53,-162.99 z"
       inkscape:connector-curvature="0"
       id="path1117" />
    <path
       d="m 248.27,244.96 c 6.313,0 12.01,2.599 16.17,6.76 l 353.55,353.55 c -4.161,-4.161 -9.859,-6.76 -16.17,-6.76 z"
       inkscape:connector-curvature="0"
       id="path1119" />
    <path
       d="m 264.44,251.72 c 2.427,2.427 4.331,5.386 5.53,8.67 l 353.55,353.55 c -1.199,-3.284 -3.103,-6.243 -5.53,-8.67 z"
       inkscape:connector-curvature="0"
       id="path1121" />
    <path
       d="m 269.97,260.39 h 18.316 l 353.55,353.55 H 623.52 z"
       inkscape:connector-curvature="0"
       id="path1123" />
    <path
       d="m 288.29,260.39 c 3.131,-9.04 11.584,-15.43 21.703,-15.43 l 353.55,353.55 c -10.119,0 -18.572,6.391 -21.703,15.43 z"
       inkscape:connector-curvature="0"
       id="path1125" />
    <path
       d="m 309.99,244.96 c 6.301,0 11.972,2.589 16.12,6.735 l 353.55,353.55 c -4.147,-4.147 -9.818,-6.735 -16.12,-6.735 z"
       inkscape:connector-curvature="0"
       id="path1127" />
    <path
       d="m 326.11,251.69 c 2.432,2.432 4.339,5.399 5.542,8.695 l 353.55,353.55 c -1.203,-3.296 -3.111,-6.263 -5.542,-8.695 z"
       inkscape:connector-curvature="0"
       id="path1129" />
    <path
       d="m 331.65,260.39 h 18.357 l 353.55,353.55 H 685.2 z"
       inkscape:connector-curvature="0"
       id="path1131" />
    <path
       d="m 350.01,260.39 c 3.131,-9.04 11.542,-15.43 21.661,-15.43 l 353.55,353.55 c -10.119,0 -18.53,6.391 -21.661,15.43 z"
       inkscape:connector-curvature="0"
       id="path1133" />
    <path
       d="m 371.67,244.96 c 6.393,0 12.206,2.583 16.406,6.784 l 353.55,353.55 c -4.201,-4.201 -10.01,-6.784 -16.406,-6.784 z"
       inkscape:connector-curvature="0"
       id="path1135" />
    <path
       d="m 388.07,251.74 c 3.959,3.959 6.486,9.354 6.718,15.379 l 353.55,353.55 c -0.232,-6.02 -2.759,-11.42 -6.718,-15.379 z"
       inkscape:connector-curvature="0"
       id="path1137" />
    <path
       d="m 394.79,267.12 v 0.962 l 353.55,353.55 v -0.962 z"
       inkscape:connector-curvature="0"
       id="path1139" />
    <path
       d="m 394.79,268.08 c 0,10.119 -6.349,18.572 -15.388,21.703 l 353.55,353.55 c 9.04,-3.131 15.388,-11.584 15.388,-21.703 z"
       inkscape:connector-curvature="0"
       id="path1141" />
    <path
       d="m 379.4,289.78 v 18.316 l 353.55,353.55 V 643.33 z"
       inkscape:connector-curvature="0"
       id="path1143" />
    <path
       d="m 379.4,308.1 c 3.298,1.198 6.272,3.103 8.708,5.538 l 353.55,353.55 c -2.436,-2.436 -5.41,-4.341 -8.708,-5.538 z"
       inkscape:connector-curvature="0"
       id="path1145" />
    <path
       d="m 388.11,313.64 c 3.933,3.933 6.462,9.249 6.681,15.203 l 353.55,353.55 c -0.219,-5.954 -2.748,-11.27 -6.681,-15.203 z"
       inkscape:connector-curvature="0"
       id="path1147" />
    <path
       d="m 394.79,328.84 v 1 l 353.55,353.55 v -1 z"
       inkscape:connector-curvature="0"
       id="path1149" />
    <path
       d="m 394.79,329.84 c 0,10.06 -6.349,18.488 -15.388,21.619 l 353.55,353.55 c 9.04,-3.131 15.388,-11.562 15.388,-21.619 z"
       inkscape:connector-curvature="0"
       id="path1151" />
    <path
       d="m 379.4,351.46 v 18.399 l 353.55,353.55 V 705.01 z"
       inkscape:connector-curvature="0"
       id="path1153" />
    <path
       d="m 379.4,369.86 c 3.306,1.177 6.287,3.074 8.726,5.514 l 353.55,353.55 c -2.439,-2.439 -5.42,-4.337 -8.726,-5.514 z"
       inkscape:connector-curvature="0"
       id="path1155" />
    <path
       d="m 388.13,375.38 c 3.922,3.922 6.443,9.245 6.662,15.227 l 353.55,353.55 c -0.219,-5.982 -2.74,-11.305 -6.662,-15.227 z"
       inkscape:connector-curvature="0"
       id="path1157" />
    <path
       d="m 394.79,390.6 v 0.962 l 353.55,353.55 v -0.962 z"
       inkscape:connector-curvature="0"
       id="path1159" />
    <path
       d="m 394.79,391.57 c 0,12.772 -10.353,23.12 -23.12,23.12 l 353.55,353.55 c 12.772,0 23.12,-10.353 23.12,-23.12 z"
       inkscape:connector-curvature="0"
       id="path1161" />
    <path
       d="m 371.67,414.69 c -6.363,0 -12.05,-2.528 -16.18,-6.652 l 353.55,353.55 c 4.124,4.124 9.812,6.652 16.18,6.652 z"
       inkscape:connector-curvature="0"
       id="path1163" />
    <path
       d="m 355.49,408.04 c -2.434,-2.434 -4.323,-5.424 -5.485,-8.778 l 353.55,353.55 c 1.162,3.355 3.051,6.345 5.485,8.778 z"
       inkscape:connector-curvature="0"
       id="path1165" />
    <path
       d="m 350.01,399.26 h -18.357 l 353.55,353.55 h 18.357 z"
       inkscape:connector-curvature="0"
       id="path1167" />
    <path
       d="m 331.65,399.26 c -3.131,9.04 -11.542,15.43 -21.661,15.43 l 353.55,353.55 c 10.119,0 18.53,-6.391 21.661,-15.43 z"
       inkscape:connector-curvature="0"
       id="path1169" />
    <path
       d="m 309.99,414.69 c -6.376,0 -12.09,-2.537 -16.229,-6.676 l 353.55,353.55 c 4.138,4.138 9.853,6.676 16.229,6.676 z"
       inkscape:connector-curvature="0"
       id="path1171" />
    <path
       d="m 293.76,408.01 c -2.43,-2.43 -4.316,-5.411 -5.474,-8.754 l 353.55,353.55 c 1.158,3.344 3.045,6.325 5.474,8.754 z"
       inkscape:connector-curvature="0"
       id="path1173" />
    <path
       d="m 288.29,399.26 h -18.316 l 353.55,353.55 h 18.316 z"
       inkscape:connector-curvature="0"
       id="path1175" />
    <path
       d="m 269.97,399.26 c -3.131,9.04 -11.584,15.43 -21.703,15.43 l 353.55,353.55 c 10.119,0 18.572,-6.391 21.703,-15.43 z"
       inkscape:connector-curvature="0"
       id="path1177" />
    <path
       d="m 248.27,414.69 c -6.386,0 -12.167,-2.588 -16.352,-6.773 l 353.55,353.55 c 4.185,4.185 9.966,6.773 16.352,6.773 z"
       inkscape:connector-curvature="0"
       id="path1179" />
    <path
       d="m 231.92,407.92 c -4.185,-4.185 -6.773,-9.966 -6.773,-16.352 l 353.55,353.55 c 0,6.386 2.588,12.167 6.773,16.352 z"
       inkscape:connector-curvature="0"
       id="path1181" />
    <path
       d="m 225.14,391.57 c 0,-10.119 6.391,-18.572 15.43,-21.703 l 353.55,353.55 c -9.04,3.131 -15.43,11.584 -15.43,21.703 z"
       inkscape:connector-curvature="0"
       id="path1183" />
    <path
       d="m 240.57,369.86 v -18.316 l 353.55,353.55 v 18.316 z"
       inkscape:connector-curvature="0"
       id="path1185" />
    <path
       d="m 240.57,351.55 c -3.346,-1.182 -6.329,-3.076 -8.76,-5.507 l 353.55,353.55 c 2.43,2.43 5.414,4.325 8.76,5.507 z"
       inkscape:connector-curvature="0"
       id="path1187" />
    <path
       d="m 231.81,346.04 c -4.135,-4.135 -6.671,-9.823 -6.671,-16.196 l 353.55,353.55 c 0,6.373 2.535,12.06 6.671,16.196 z"
       inkscape:connector-curvature="0"
       id="path1189" />
    <path
       d="m 225.14,329.84 c 0,-10.119 6.391,-18.53 15.43,-21.661 l 353.55,353.55 c -9.04,3.131 -15.43,11.542 -15.43,21.661 z"
       inkscape:connector-curvature="0"
       id="path1191" />
    <path
       d="m 240.57,308.18 v -18.357 l 353.55,353.55 v 18.357 z"
       inkscape:connector-curvature="0"
       id="path1193" />
    <path
       d="m 240.57,289.83 c -3.357,-1.186 -6.349,-3.083 -8.784,-5.518 l 353.55,353.55 c 2.435,2.435 5.427,4.332 8.784,5.518 z"
       inkscape:connector-curvature="0"
       id="path1195" />
    <path
       d="m 231.79,284.31 c -4.121,-4.121 -6.646,-9.782 -6.646,-16.14 l 353.55,353.55 c 0,6.361 2.525,12.02 6.646,16.14 z"
       inkscape:connector-curvature="0"
       id="path1197" />
    <path
       d="m 225.14,268.17 c 0,-12.772 10.353,-23.12 23.12,-23.12 L 601.81,598.6 c -12.772,0 -23.12,10.353 -23.12,23.12 z"
       inkscape:connector-curvature="0"
       id="path1199" />
    <path
       d="m 269.97,275.82 c -2.283,6.694 -7.288,11.684 -13.967,13.967 l 353.55,353.55 c 6.679,-2.283 11.684,-7.272 13.967,-13.967 z"
       inkscape:connector-curvature="0"
       id="path1201" />
    <path
       d="m 256,289.78 v 18.316 l 353.55,353.55 V 643.33 z"
       inkscape:connector-curvature="0"
       id="path1203" />
    <path
       d="m 256,308.1 c 3.229,1.143 6.139,3.01 8.534,5.411 l 353.55,353.55 c -2.395,-2.399 -5.305,-4.268 -8.534,-5.411 z"
       inkscape:connector-curvature="0"
       id="path1205" />
    <path
       d="m 264.54,313.51 c 2.387,2.39 4.262,5.307 5.432,8.556 l 353.55,353.55 c -1.17,-3.249 -3.046,-6.165 -5.432,-8.556 z"
       inkscape:connector-curvature="0"
       id="path1207" />
    <path
       d="m 269.97,322.07 h 18.316 l 353.55,353.55 H 623.52 z"
       inkscape:connector-curvature="0"
       id="path1209" />
    <path
       d="m 288.29,322.07 c 2.283,-6.694 7.288,-11.684 13.967,-13.967 l 353.55,353.55 c -6.679,2.283 -11.684,7.272 -13.967,13.967 z"
       inkscape:connector-curvature="0"
       id="path1211" />
    <path
       d="M 302.25,308.1 V 289.784 L 655.8,643.334 V 661.65 z"
       inkscape:connector-curvature="0"
       id="path1213" />
    <path
       d="m 302.25,289.78 c -3.344,-1.14 -6.263,-2.96 -8.631,-5.329 l 353.55,353.55 c 2.368,2.368 5.287,4.188 8.631,5.329 z"
       inkscape:connector-curvature="0"
       id="path1215" />
    <path
       d="m 293.62,284.46 c -2.373,-2.373 -4.193,-5.296 -5.335,-8.638 l 353.55,353.55 c 1.142,3.342 2.963,6.266 5.335,8.638 z"
       inkscape:connector-curvature="0"
       id="path1217" />
    <path
       d="m 331.69,275.82 c -2.283,6.694 -7.33,11.684 -14.01,13.967 l 353.55,353.55 c 6.679,-2.283 11.726,-7.272 14.01,-13.967 z"
       inkscape:connector-curvature="0"
       id="path1219" />
    <path
       d="m 317.68,289.78 v 18.316 l 353.55,353.55 V 643.33 z"
       inkscape:connector-curvature="0"
       id="path1221" />
    <path
       d="m 317.68,308.1 c 3.24,1.147 6.169,3.02 8.579,5.435 l 353.55,353.55 c -2.41,-2.41 -5.339,-4.287 -8.579,-5.435 z"
       inkscape:connector-curvature="0"
       id="path1223" />
    <path
       d="m 326.26,313.53 c 2.386,2.386 4.263,5.294 5.429,8.532 l 353.55,353.55 c -1.166,-3.238 -3.044,-6.146 -5.429,-8.532 z"
       inkscape:connector-curvature="0"
       id="path1225" />
    <path
       d="m 331.69,322.07 h 18.316 l 353.55,353.55 H 685.24 z"
       inkscape:connector-curvature="0"
       id="path1227" />
    <path
       d="m 350.01,322.07 c 2.283,-6.694 7.288,-11.684 13.967,-13.967 l 353.55,353.55 c -6.679,2.283 -11.684,7.272 -13.967,13.967 z"
       inkscape:connector-curvature="0"
       id="path1229" />
    <path
       d="m 363.97,308.1 v -18.316 l 353.55,353.55 v 18.316 z"
       inkscape:connector-curvature="0"
       id="path1231" />
    <path
       d="m 363.97,289.78 c -3.344,-1.14 -6.263,-2.96 -8.631,-5.329 l 353.55,353.55 c 2.368,2.368 5.287,4.188 8.631,5.329 z"
       inkscape:connector-curvature="0"
       id="path1233" />
    <path
       d="m 355.34,284.46 c -2.373,-2.373 -4.193,-5.296 -5.335,-8.638 l 353.55,353.55 c 1.142,3.342 2.963,6.266 5.335,8.638 z"
       inkscape:connector-curvature="0"
       id="path1235" />
    <path
       d="m 269.97,337.5 c -2.283,6.694 -7.288,11.684 -13.967,13.967 l 353.55,353.55 c 6.679,-2.283 11.684,-7.272 13.967,-13.967 z"
       inkscape:connector-curvature="0"
       id="path1237" />
    <path
       d="m 256,351.46 v 18.357 l 353.55,353.55 V 705.01 z"
       inkscape:connector-curvature="0"
       id="path1239" />
    <path
       d="m 256,369.82 c 3.224,1.141 6.129,3.01 8.522,5.398 l 353.55,353.55 c -2.393,-2.393 -5.298,-4.257 -8.522,-5.398 z"
       inkscape:connector-curvature="0"
       id="path1241" />
    <path
       d="m 264.53,375.22 c 2.393,2.393 4.272,5.314 5.445,8.568 l 353.55,353.55 c -1.172,-3.255 -3.052,-6.176 -5.445,-8.568 z"
       inkscape:connector-curvature="0"
       id="path1243" />
    <path
       d="m 269.97,383.79 h 18.316 l 353.55,353.55 H 623.52 z"
       inkscape:connector-curvature="0"
       id="path1245" />
    <path
       d="m 288.29,383.79 c 2.283,-6.694 7.33,-11.684 14.01,-13.967 l 353.55,353.55 c -6.679,2.283 -11.726,7.272 -14.01,13.967 z"
       inkscape:connector-curvature="0"
       id="path1247" />
    <path
       d="m 302.29,369.82 v -18.357 l 353.55,353.55 v 18.357 z"
       inkscape:connector-curvature="0"
       id="path1249" />
    <path
       d="m 302.29,351.46 c -3.36,-1.146 -6.301,-2.978 -8.686,-5.362 l 353.55,353.55 c 2.385,2.385 5.326,4.217 8.686,5.362 z"
       inkscape:connector-curvature="0"
       id="path1251" />
    <path
       d="m 293.61,346.1 c -2.366,-2.366 -4.185,-5.278 -5.322,-8.604 l 353.55,353.55 c 1.137,3.327 2.956,6.238 5.322,8.604 z"
       inkscape:connector-curvature="0"
       id="path1253" />
    <path
       d="m 331.69,337.5 c -2.237,6.694 -7.286,11.684 -13.841,13.967 l 353.55,353.55 c 6.556,-2.283 11.605,-7.272 13.841,-13.967 z"
       inkscape:connector-curvature="0"
       id="path1255" />
    <path
       d="m 317.85,351.46 v 18.357 L 671.4,723.367 V 705.01 z"
       inkscape:connector-curvature="0"
       id="path1257" />
    <path
       d="m 317.85,369.82 c 3.199,1.133 6.085,2.978 8.452,5.344 l 353.55,353.55 c -2.367,-2.367 -5.252,-4.212 -8.452,-5.344 z"
       inkscape:connector-curvature="0"
       id="path1259" />
    <path
       d="m 326.3,375.17 c 2.403,2.403 4.271,5.343 5.39,8.622 l 353.55,353.55 c -1.119,-3.279 -2.987,-6.22 -5.39,-8.622 z"
       inkscape:connector-curvature="0"
       id="path1261" />
    <path
       d="m 331.69,383.79 h 18.357 l 353.55,353.55 H 685.24 z"
       inkscape:connector-curvature="0"
       id="path1263" />
    <path
       d="m 350.05,383.79 c 2.237,-6.694 7.33,-11.684 14.01,-13.967 l 353.55,353.55 c -6.679,2.283 -11.772,7.272 -14.01,13.967 z"
       inkscape:connector-curvature="0"
       id="path1265" />
    <path
       d="m 364.06,369.82 v -18.357 l 353.55,353.55 v 18.357 z"
       inkscape:connector-curvature="0"
       id="path1267" />
    <path
       d="m 364.06,351.46 c -3.391,-1.146 -6.347,-2.977 -8.732,-5.362 l 353.55,353.55 c 2.385,2.385 5.341,4.216 8.732,5.362 z"
       inkscape:connector-curvature="0"
       id="path1269" />
    <path
       d="m 355.33,346.1 c -2.367,-2.367 -4.17,-5.278 -5.276,-8.605 l 353.55,353.55 c 1.106,3.327 2.91,6.238 5.276,8.605 z"
       inkscape:connector-curvature="0"
       id="path1271" />
  </g>
  <path
     d="m 55.45,229.53 c -13.497,11.923 -18.709,22.24 -10.58,30.861 8.561,8.623 18.776,7.234 26.01,0 v 169.65 c 0,7.589 7.471,15.43 15.43,15.43 h 339.34 c 7.959,0 15.43,-7.841 15.43,-15.43 v -169.65 c 7.234,7.234 17.429,8.623 26.05,0 8.129,-8.623 2.891,-18.937 -10.621,-30.861 -199.8,-162.84 -0.064,0.203 -200.54,-162.99 -198.34,161.65 -136.94,110.01 -200.53,162.99 m 192.82,15.43 c 9.995,0 18.448,6.515 21.703,15.43 h 18.316 c 3.131,-9.04 11.584,-15.43 21.703,-15.43 9.995,0 18.406,6.515 21.661,15.43 h 18.357 c 3.131,-9.04 11.542,-15.43 21.661,-15.43 12.417,0 22.646,9.746 23.12,22.16 v 0.962 c 0,10.119 -6.349,18.572 -15.388,21.703 v 18.316 c 8.623,3.131 15.03,11.1 15.388,20.741 v 1 c 0,10.06 -6.349,18.488 -15.388,21.619 v 18.399 c 8.623,3.07 15.03,11.04 15.388,20.741 v 0.962 c 0,12.772 -10.353,23.12 -23.12,23.12 -10.119,0 -18.53,-6.391 -21.661,-15.43 h -18.357 c -3.131,9.04 -11.542,15.43 -21.661,15.43 -10.119,0 -18.572,-6.391 -21.703,-15.43 h -18.316 c -3.131,9.04 -11.584,15.43 -21.703,15.43 -12.772,0 -23.12,-10.353 -23.12,-23.12 0,-10.119 6.391,-18.572 15.43,-21.703 v -18.316 c -9.04,-3.193 -15.43,-11.584 -15.43,-21.703 0,-10.119 6.391,-18.53 15.43,-21.661 v -18.357 c -9.04,-3.193 -15.43,-11.542 -15.43,-21.661 0,-12.772 10.353,-23.12 23.12,-23.12 z m 21.703,30.861 c -2.283,6.694 -7.288,11.684 -13.967,13.967 v 18.316 c 6.448,2.283 11.622,7.457 13.967,13.967 h 18.316 c 2.283,-6.694 7.288,-11.684 13.967,-13.967 v -18.316 c -6.694,-2.283 -11.684,-7.288 -13.967,-13.967 z m 61.721,0 c -2.283,6.694 -7.33,11.684 -14.01,13.967 v 18.316 c 6.448,2.283 11.664,7.457 14.01,13.967 h 18.316 c 2.283,-6.694 7.288,-11.684 13.967,-13.967 v -18.316 c -6.694,-2.283 -11.684,-7.288 -13.967,-13.967 z M 269.962,337.5 c -2.283,6.694 -7.288,11.684 -13.967,13.967 v 18.357 c 6.448,2.283 11.622,7.457 13.967,13.967 h 18.316 c 2.283,-6.694 7.33,-11.684 14.01,-13.967 v -18.357 c -6.694,-2.283 -11.726,-7.288 -14.01,-13.967 z m 61.721,0 c -2.237,6.694 -7.286,11.684 -13.841,13.967 v 18.357 c 6.448,2.283 11.62,7.457 13.841,13.967 h 18.357 c 2.237,-6.694 7.33,-11.684 14.01,-13.967 v -18.357 c -6.756,-2.283 -11.787,-7.288 -14.01,-13.967 z"
     inkscape:connector-curvature="0"
     id="path1273"
     style="color:#000000;fill:#ffffff;fill-rule:evenodd" />
</svg>
