<?xml version="1.0" encoding="UTF-8" standalone="no"?>
<!-- Created with Inkscape (http://www.inkscape.org/) -->

<svg
   xmlns:dc="http://purl.org/dc/elements/1.1/"
   xmlns:cc="http://creativecommons.org/ns#"
   xmlns:rdf="http://www.w3.org/1999/02/22-rdf-syntax-ns#"
   xmlns:svg="http://www.w3.org/2000/svg"
   xmlns="http://www.w3.org/2000/svg"
   xmlns:inkscape="http://www.inkscape.org/namespaces/inkscape"
   version="1.1"
   width="100%"
   height="100%"
   viewBox="0 0 512 512"
   id="svg2">
  <metadata
     id="metadata135">
    <rdf:RDF>
      <cc:Work
         rdf:about="">
        <dc:format>image/svg+xml</dc:format>
        <dc:type
           rdf:resource="http://purl.org/dc/dcmitype/StillImage" />
      </cc:Work>
    </rdf:RDF>
  </metadata>
  <defs
     id="defs4">
    <clipPath
       id="0">
      <rect
         width="512"
         height="512"
         rx="25.988001"
         x="0"
         y="0"
         id="rect7"
         style="fill:none" />
    </clipPath>
  </defs>
  <rect
     width="512"
     height="512"
     rx="25.988001"
     x="0"
     y="0"
     id="rect9"
     style="fill:none" />
  <g
     clip-path="url(#0)"
     id="g57"
     style="opacity:0.0">
    <path
       d="M 255.99,41 C 191.106,41 132.95,69.758 93.54,115.2 l 282.84,282.84 c 39.41,-45.45 97.57,-74.2 162.45,-74.2 z"
       inkscape:connector-curvature="0"
       id="path59" />
    <path
       d="M 93.53,115.21 196.3,236.84 479.14,519.68 376.37,398.05 z"
       inkscape:connector-curvature="0"
       id="path61" />
    <path
       d="M 196.3,236.84 264.78,41.2 547.62,324.04 479.14,519.68 z"
       inkscape:connector-curvature="0"
       id="path63" />
    <path
       d="m 264.78,41.2 c -2.916,-0.117 -5.843,-0.188 -8.788,-0.188 l 282.84,282.84 c 2.945,0 5.872,0.071 8.788,0.188 z"
       inkscape:connector-curvature="0"
       id="path65" />
    <path
       d="m 299.88,45.528 -51.76,148 282.84,282.84 51.76,-148 z"
       inkscape:connector-curvature="0"
       id="path67" />
    <path
       d="M 248.12,193.53 448.25,159.721 731.09,442.561 530.96,476.37 z"
       inkscape:connector-curvature="0"
       id="path69" />
    <path
       d="m 448.25,159.72 c -10.388,-20.704 -24.02,-39.495 -40.24,-55.708 l 282.84,282.84 c 16.213,16.213 29.847,35 40.24,55.708 z"
       inkscape:connector-curvature="0"
       id="path71" />
    <path
       d="M 408.01,104.01 C 378.96,74.96 341.64,54.19 299.88,45.52 l 282.84,282.84 c 41.761,8.668 79.09,29.44 108.13,58.49 z"
       inkscape:connector-curvature="0"
       id="path73" />
    <path
       d="M 75.24,139.55 C 53.576,173.109 41,213.08 41,256 l 282.84,282.84 c 0,-42.914 12.575,-82.89 34.24,-116.45 z"
       inkscape:connector-curvature="0"
       id="path75" />
    <path
       d="m 41,256 c 0,23.04 3.638,45.23 10.347,66.03 l 282.84,282.84 C 327.479,584.071 323.84,561.878 323.84,538.84 z"
       inkscape:connector-curvature="0"
       id="path77" />
    <path
       d="M 51.35,322.03 207.17,295.75 490.01,578.59 334.19,604.87 z"
       inkscape:connector-curvature="0"
       id="path79" />
    <path
       d="M 207.17,295.75 75.24,139.56 358.08,422.4 490.01,578.59 z"
       inkscape:connector-curvature="0"
       id="path81" />
    <path
       d="M 461.14,191.48 305.48,217.791 588.32,500.631 743.98,474.32 z"
       inkscape:connector-curvature="0"
       id="path83" />
    <path
       d="m 305.47,217.79 130.4,156 282.84,282.84 -130.4,-156 z"
       inkscape:connector-curvature="0"
       id="path85" />
    <path
       d="M 435.87,373.8 C 458.07,339.966 471,299.5 471,256.01 l 282.84,282.84 c 0,43.493 -12.923,83.956 -35.13,117.79 z"
       inkscape:connector-curvature="0"
       id="path87" />
    <path
       d="m 471,256.01 c 0,-22.484 -3.462,-44.16 -9.864,-64.53 l 282.84,282.84 c 6.402,20.372 9.864,42.05 9.864,64.53 z"
       inkscape:connector-curvature="0"
       id="path89" />
    <path
       d="m 256,222.81 c -18.333,0 -33.19,14.857 -33.19,33.19 l 282.84,282.84 c 0,-18.329 14.853,-33.19 33.19,-33.19 z"
       inkscape:connector-curvature="0"
       id="path91" />
    <path
       d="m 222.82,256 c 0,9.166 3.714,17.462 9.719,23.467 l 282.84,282.84 c -6,-6 -9.719,-14.301 -9.719,-23.467 z"
       inkscape:connector-curvature="0"
       id="path93" />
    <path
       d="m 232.54,279.47 c 6.01,6.01 14.302,9.719 23.467,9.719 l 282.84,282.84 c -9.165,0 -17.462,-3.714 -23.467,-9.719 z"
       inkscape:connector-curvature="0"
       id="path95" />
    <path
       d="m 256,289.18 c 18.333,0 33.19,-14.857 33.19,-33.19 l 282.84,282.84 c 0,18.329 -14.853,33.19 -33.19,33.19 z"
       inkscape:connector-curvature="0"
       id="path97" />
    <path
       d="m 289.19,256 c 0,-9.166 -3.714,-17.462 -9.719,-23.467 l 282.84,282.84 c 6,6 9.719,14.301 9.719,23.467 z"
       inkscape:connector-curvature="0"
       id="path99" />
    <path
       d="m 279.47,232.53 c -6.01,-6.01 -14.302,-9.719 -23.467,-9.719 l 282.84,282.84 c 9.165,0 17.462,3.714 23.467,9.719 z"
       inkscape:connector-curvature="0"
       id="path101" />
    <path
       d="m 315.37,274.09 -0.242,0.671 282.84,282.84 0.242,-0.671 z"
       inkscape:connector-curvature="0"
       id="path103" />
    <path
       d="m 315.13,274.76 0.457,0.188 282.84,282.84 -0.457,-0.188 z"
       inkscape:connector-curvature="0"
       id="path105" />
    <path
       d="m 315.59,274.95 -13.216,34.964 282.84,282.84 13.216,-34.964 z"
       inkscape:connector-curvature="0"
       id="path107" />
    <path
       d="m 302.37,309.91 c -0.804,2.237 -1.137,3.217 -1.113,3.241 l 282.84,282.84 c -0.024,-0.024 0.309,-1 1.113,-3.241 z"
       inkscape:connector-curvature="0"
       id="path109" />
    <path
       d="m 301.26,313.15 c 0.153,0.153 14.722,-38.26 14.666,-38.12 l 282.84,282.84 c 0.056,-0.144 -14.513,38.27 -14.666,38.12 z"
       inkscape:connector-curvature="0"
       id="path111" />
    <path
       d="m 315.92,275.03 c -0.001,0.002 -0.003,0.009 -0.009,0.022 l 282.84,282.84 c 0.005,-0.013 0.008,-0.021 0.009,-0.022 z"
       inkscape:connector-curvature="0"
       id="path113" />
    <path
       d="M 315.92,275.06 241.64,470.52 524.48,753.36 598.76,557.9 z"
       inkscape:connector-curvature="0"
       id="path115" />
    <path
       d="m 241.63,470.51 c 4.75,0.313 9.549,0.483 14.378,0.483 l 282.84,282.84 c -4.828,0 -9.628,-0.17 -14.378,-0.483 z"
       inkscape:connector-curvature="0"
       id="path117" />
    <path
       d="m 256.01,471 c 64.726,0 122.78,-28.618 162.19,-73.875 l 282.84,282.84 c -39.41,45.26 -97.46,73.875 -162.19,73.875 z"
       inkscape:connector-curvature="0"
       id="path119" />
    <path
       d="M 418.2,397.12 315.38,274.09 598.22,556.93 701.04,679.96 z"
       inkscape:connector-curvature="0"
       id="path121" />
    <path
       d="M 267.83,318.49 64.04,352.887 346.88,635.727 550.67,601.33 z"
       inkscape:connector-curvature="0"
       id="path123" />
    <path
       d="m 64.04,352.89 c 10.354,20.477 23.888,39.07 39.953,55.14 l 282.84,282.84 c -16.06,-16.06 -29.599,-34.66 -39.953,-55.14 z"
       inkscape:connector-curvature="0"
       id="path125" />
    <path
       d="m 103.99,408.02 c 28.991,28.991 66.23,49.742 107.89,58.44 L 494.72,749.3 c -41.665,-8.699 -78.899,-29.45 -107.89,-58.44 z"
       inkscape:connector-curvature="0"
       id="path127" />
    <path
       d="M 211.88,466.46 267.833,318.49 550.673,601.33 494.72,749.3 z"
       inkscape:connector-curvature="0"
       id="path129" />
  </g>
  <path
     d="M 255.99,41 C 191.106,41 132.95,69.758 93.54,115.2 L 196.31,236.83 264.79,41.19 c -2.916,-0.117 -5.843,-0.188 -8.788,-0.188 m 43.888,4.515 -51.76,148 200.13,-33.809 c -29,-57.798 -83.3,-100.69 -148.37,-114.2 m -224.64,94.03 c -21.664,33.559 -34.24,73.53 -34.24,116.45 0,23.04 3.638,45.23 10.347,66.03 l 155.82,-26.28 -131.93,-156.19 m 385.9,51.922 -155.66,26.311 130.4,156 c 22.2,-33.834 35.13,-74.3 35.13,-117.79 0,-22.484 -3.462,-44.16 -9.864,-64.53 m -205.13,31.34 c -18.333,0 -33.19,14.857 -33.19,33.19 0,18.333 14.857,33.19 33.19,33.19 18.333,0 33.19,-14.857 33.19,-33.19 0,-18.333 -14.857,-33.19 -33.19,-33.19 m 59.37,51.28 -0.242,0.671 0.457,0.188 -13.216,34.964 c -5.972,16.618 14.03,-36.13 13.544,-34.856 l -74.28,195.46 c 4.75,0.313 9.549,0.483 14.378,0.483 64.726,0 122.78,-28.618 162.19,-73.875 l -102.82,-123.03 m -47.548,44.4 -203.79,34.397 c 29.04,57.43 83.09,100.06 147.84,113.58 l 55.953,-147.97"
     inkscape:connector-curvature="0"
     id="path131"
     style="fill:#ffffff" />
</svg>
