<?xml version="1.0" encoding="UTF-8" standalone="no"?>
<!-- Created with Inkscape (http://www.inkscape.org/) -->

<svg
   xmlns:dc="http://purl.org/dc/elements/1.1/"
   xmlns:cc="http://creativecommons.org/ns#"
   xmlns:rdf="http://www.w3.org/1999/02/22-rdf-syntax-ns#"
   xmlns:svg="http://www.w3.org/2000/svg"
   xmlns="http://www.w3.org/2000/svg"
   xmlns:inkscape="http://www.inkscape.org/namespaces/inkscape"
   version="1.1"
   width="100%"
   height="100%"
   viewBox="0 0 512 512"
   id="svg2">
  <metadata
     id="metadata333">
    <rdf:RDF>
      <cc:Work
         rdf:about="">
        <dc:format>image/svg+xml</dc:format>
        <dc:type
           rdf:resource="http://purl.org/dc/dcmitype/StillImage" />
      </cc:Work>
    </rdf:RDF>
  </metadata>
  <defs
     id="defs4">
    <clipPath
       id="0">
      <rect
         width="512"
         height="512"
         rx="25.988001"
         x="0"
         y="0"
         id="rect7"
         style="fill:none" />
    </clipPath>
  </defs>
  <rect
     width="512"
     height="512"
     rx="25.988001"
     x="0"
     y="0"
     id="rect9"
     style="fill:none" />
  <g
     clip-path="url(#0)"
     id="g57"
     style="opacity:0.0">
    <path
       d="m 388.62,225 c 0.431,11.603 -3.385,17.239 -6.839,27.22 l 353.55,353.55 c 3.454,-9.979 7.27,-15.615 6.839,-27.22 z"
       inkscape:connector-curvature="0"
       id="path59" />
    <path
       d="m 381.78,252.21 -6.21,3.088 353.55,353.55 6.21,-3.088 z"
       inkscape:connector-curvature="0"
       id="path61" />
    <path
       d="m 375.57,255.3 c -5.076,9.864 0.511,6.262 -3.132,14.1 l 353.55,353.55 c 3.643,-7.842 -1.945,-4.241 3.132,-14.1 z"
       inkscape:connector-curvature="0"
       id="path63" />
    <path
       d="m 372.44,269.41 c -7.933,7.05 -24.04,22.04 -29.2,23.413 l 353.55,353.55 c 5.158,-1.375 21.265,-16.368 29.2,-23.413 z"
       inkscape:connector-curvature="0"
       id="path65" />
    <path
       d="m 343.24,292.82 c -0.549,-0.006 -0.884,-0.105 -1.053,-0.274 l 353.55,353.55 c 0.169,0.169 0.504,0.268 1.053,0.274 z"
       inkscape:connector-curvature="0"
       id="path67" />
    <path
       d="m 342.19,292.55 c -0.993,-0.993 3.723,-4.422 4.428,-5.879 l 353.55,353.55 c -0.705,1.457 -5.421,4.886 -4.428,5.879 z"
       inkscape:connector-curvature="0"
       id="path69" />
    <path
       d="m 346.62,286.67 c -10.608,7.28 -8.514,10.93 -24.743,15.363 l 353.55,353.55 c 16.228,-4.433 14.13,-8.08 24.743,-15.363 z"
       inkscape:connector-curvature="0"
       id="path71" />
    <path
       d="m 321.87,302.03 -0.471,-1.058 353.55,353.55 0.471,1.058 z"
       inkscape:connector-curvature="0"
       id="path73" />
    <path
       d="m 321.4,300.97 c -23.864,11.232 -53.27,2.487 -72.96,-17.202 l 353.55,353.55 c 19.689,19.689 49.1,28.434 72.96,17.202 z"
       inkscape:connector-curvature="0"
       id="path75" />
    <path
       d="m 248.44,283.77 c -13.314,-13.314 -22.18,-31.631 -21.891,-52.16 l 353.55,353.55 c -0.293,20.529 8.577,38.847 21.891,52.16 z"
       inkscape:connector-curvature="0"
       id="path77" />
    <path
       d="m 226.55,231.61 c -0.426,3.227 -1.209,2.421 -2.1,3.717 L 578,588.877 c 0.891,-1.295 1.674,-0.49 2.1,-3.717 z"
       inkscape:connector-curvature="0"
       id="path79" />
    <path
       d="m 224.45,235.33 c -2.064,-26.18 12.09,-52.47 35.973,-63.22 l 353.55,353.55 c -23.88,10.748 -38.04,37.04 -35.973,63.22 z"
       inkscape:connector-curvature="0"
       id="path81" />
    <path
       d="m 260.43,172.11 c 23.355,-11.555 50.734,-6.82 67.45,8.783 l 353.55,353.55 c -16.714,-15.604 -44.09,-20.338 -67.45,-8.783 z"
       inkscape:connector-curvature="0"
       id="path83" />
    <path
       d="m 327.87,180.89 c -1.441,-1.889 -3.107,-3.796 -4.975,-5.664 l 353.55,353.55 c 1.868,1.868 3.534,3.775 4.975,5.664 z"
       inkscape:connector-curvature="0"
       id="path85" />
    <path
       d="M 322.9,175.23 C 312.87,165.2 296.999,156.285 278.74,157.281 l 353.55,353.55 c 18.263,-0.996 34.13,7.916 44.16,17.949 z"
       inkscape:connector-curvature="0"
       id="path87" />
    <path
       d="m 278.73,157.28 c -21.232,0.345 -41.1,13.835 -47.727,28.485 l 353.55,353.55 c 6.627,-14.65 26.495,-28.14 47.727,-28.485 z"
       inkscape:connector-curvature="0"
       id="path89" />
    <path
       d="m 231.01,185.76 c -10.873,6.843 -12.14,26.394 -16.876,29.98 l 353.55,353.55 c 4.736,-3.586 6,-23.14 16.876,-29.98 z"
       inkscape:connector-curvature="0"
       id="path91" />
    <path
       d="m 214.13,215.74 c -4.778,35.09 4.317,55.26 22.23,73.17 L 589.91,642.46 C 571.994,624.544 562.9,604.38 567.68,569.29 z"
       inkscape:connector-curvature="0"
       id="path93" />
    <path
       d="m 236.36,288.91 c 6.02,6.02 13.03,11.78 20.844,17.768 l 353.55,353.55 c -7.815,-5.989 -14.827,-11.752 -20.844,-17.768 z"
       inkscape:connector-curvature="0"
       id="path95" />
    <path
       d="m 257.21,306.68 c 0.777,0.525 1.342,0.978 1.744,1.381 l 353.55,353.55 c -0.402,-0.402 -0.967,-0.856 -1.744,-1.381 z"
       inkscape:connector-curvature="0"
       id="path97" />
    <path
       d="m 258.95,308.06 c 2.125,2.125 -0.266,2.818 0.28,4.925 l 353.55,353.55 c -0.546,-2.108 1.845,-2.801 -0.28,-4.925 z"
       inkscape:connector-curvature="0"
       id="path99" />
    <path
       d="m 259.23,312.99 c -8.521,-3.988 -16.448,-9.656 -23.331,-16.539 l 353.55,353.55 c 6.883,6.883 14.81,12.552 23.331,16.539 z"
       inkscape:connector-curvature="0"
       id="path101" />
    <path
       d="m 235.9,296.45 c -1.457,-1.457 -2.867,-2.968 -4.226,-4.529 l 353.55,353.55 c 1.359,1.561 2.769,3.073 4.226,4.529 z"
       inkscape:connector-curvature="0"
       id="path103" />
    <path
       d="m 231.67,291.92 c 3.105,4.54 6.394,8.984 10.28,12.869 l 353.55,353.55 c -3.886,-3.886 -7.175,-8.33 -10.28,-12.869 z"
       inkscape:connector-curvature="0"
       id="path105" />
    <path
       d="m 241.95,304.79 c 1.282,1.282 2.629,2.503 4.055,3.647 l 353.55,353.55 c -1.427,-1.144 -2.773,-2.365 -4.055,-3.647 z"
       inkscape:connector-curvature="0"
       id="path107" />
    <path
       d="m 246.01,308.44 c -3.211,-1.084 -6.777,-4.02 -10.251,-7.49 l 353.55,353.55 c 3.474,3.474 7.04,6.406 10.251,7.49 z"
       inkscape:connector-curvature="0"
       id="path109" />
    <path
       d="m 235.76,300.95 c -5.763,-5.763 -11.272,-13.02 -14.487,-15.795 l 353.55,353.55 c 3.215,2.778 8.724,10.03 14.487,15.795 z"
       inkscape:connector-curvature="0"
       id="path111" />
    <path
       d="m 221.27,285.15 c -0.727,-0.629 -1.337,-1.028 -1.806,-1.129 l 353.55,353.55 c 0.469,0.101 1.079,0.501 1.806,1.129 z"
       inkscape:connector-curvature="0"
       id="path113" />
    <path
       d="m 219.47,284.02 c 2.843,5.09 6.676,9.968 11.213,14.505 l 353.55,353.55 c -4.537,-4.537 -8.37,-9.415 -11.213,-14.505 z"
       inkscape:connector-curvature="0"
       id="path115" />
    <path
       d="m 230.68,298.53 c 22.25,22.25 61.43,36.3 83.75,26.963 l 353.55,353.55 c -22.323,9.341 -61.5,-4.713 -83.75,-26.963 z"
       inkscape:connector-curvature="0"
       id="path117" />
    <path
       d="m 314.43,325.49 c -12.439,0.457 -28.23,0.255 -42.2,-4.908 l 353.55,353.55 c 13.966,5.163 29.761,5.365 42.2,4.908 z"
       inkscape:connector-curvature="0"
       id="path119" />
    <path
       d="m 272.23,320.58 c -3.858,-1.981 -8.613,-5.351 -11.03,-7.764 l 353.55,353.55 c 2.414,2.414 7.169,5.783 11.03,7.764 z"
       inkscape:connector-curvature="0"
       id="path121" />
    <path
       d="m 261.2,312.82 c -1.266,-1.266 -1.888,-2.27 -1.398,-2.672 l 353.55,353.55 c -0.49,0.402 0.132,1.405 1.398,2.672 z"
       inkscape:connector-curvature="0"
       id="path123" />
    <path
       d="m 259.81,310.15 c 36.672,13.692 74.55,10.363 106.27,-15.07 l 353.55,353.55 c -31.717,25.429 -69.6,28.757 -106.27,15.07 z"
       inkscape:connector-curvature="0"
       id="path125" />
    <path
       d="m 366.07,295.08 c 8.08,-6.291 16.895,-16.986 19.446,-17.13 l 353.55,353.55 c -2.551,0.14 -11.368,10.835 -19.446,17.13 z"
       inkscape:connector-curvature="0"
       id="path127" />
    <path
       d="m 385.52,277.96 c -3.838,5.772 0.662,2.776 -2.292,7.871 l 353.55,353.55 c 2.954,-5.095 -1.546,-2.098 2.292,-7.871 z"
       inkscape:connector-curvature="0"
       id="path129" />
    <path
       d="m 383.23,285.83 c 8.03,-12.971 -3.501,-5.283 8.308,-22.398 l 353.55,353.55 c -11.808,17.12 -0.278,9.427 -8.308,22.398 z"
       inkscape:connector-curvature="0"
       id="path131" />
    <path
       d="m 391.54,263.43 4.36,6 353.55,353.55 -4.36,-6 z"
       inkscape:connector-curvature="0"
       id="path133" />
    <path
       d="m 395.9,269.43 c -1.633,-10.776 13.374,-23.849 11.848,-40.879 l 353.55,353.55 c 1.526,17.03 -13.481,30.1 -11.848,40.879 z"
       inkscape:connector-curvature="0"
       id="path135" />
    <path
       d="m 407.74,228.55 c 0.859,-1.298 1.528,-1.6 1.992,-1.136 l 353.55,353.55 c -0.464,-0.464 -1.133,-0.162 -1.992,1.136 z"
       inkscape:connector-curvature="0"
       id="path137" />
    <path
       d="m 409.74,227.42 c 1.397,1.397 0.936,9.732 -1.803,18.723 l 353.55,353.55 c 2.739,-8.991 3.199,-17.326 1.803,-18.723 z"
       inkscape:connector-curvature="0"
       id="path139" />
    <path
       d="m 407.93,246.14 c 5.066,-13.289 1.337,-15.426 2.636,-26.394 l 353.55,353.55 c -1.3,10.968 2.43,13.11 -2.636,26.394 z"
       inkscape:connector-curvature="0"
       id="path141" />
    <path
       d="m 410.57,219.75 c 1.398,3.688 3.256,7.603 4.202,11.502 l 353.55,353.55 c -0.947,-3.899 -2.804,-7.814 -4.202,-11.502 z"
       inkscape:connector-curvature="0"
       id="path143" />
    <path
       d="m 414.77,231.25 c -3.304,-12.84 3.377,-21.625 5.04,-29.09 l 353.55,353.55 c -1.661,7.468 -8.342,16.253 -5.04,29.09 z"
       inkscape:connector-curvature="0"
       id="path145" />
    <path
       d="m 419.81,202.15 c -0.96,-0.421 -2.546,1.602 -3.854,0.294 l 353.55,353.55 c 1.308,1.308 2.894,-0.715 3.854,-0.294 z"
       inkscape:connector-curvature="0"
       id="path147" />
    <path
       d="m 415.96,202.45 c -0.923,-0.923 -1.709,-3.507 -2.038,-9.783 l 353.55,353.55 c 0.329,6.276 1.114,8.86 2.038,9.783 z"
       inkscape:connector-curvature="0"
       id="path149" />
    <path
       d="m 413.92,192.66 c 0.157,-6.59 1.842,-3.454 2.497,-5.076 l 353.55,353.55 c -0.655,1.623 -2.34,-1.513 -2.497,5.076 z"
       inkscape:connector-curvature="0"
       id="path151" />
    <path
       d="m 416.42,187.59 c -0.145,-0.084 -0.316,-0.222 -0.509,-0.415 l 353.55,353.55 c 0.193,0.193 0.364,0.331 0.509,0.415 z"
       inkscape:connector-curvature="0"
       id="path153" />
    <path
       d="m 415.91,187.17 c -1.525,-1.525 -4.405,-6.469 -6.234,-15.07 l 353.55,353.55 c 1.83,8.598 4.71,13.543 6.234,15.07 z"
       inkscape:connector-curvature="0"
       id="path155" />
    <path
       d="m 409.67,172.11 c 0.385,-0.592 0.84,-0.48 1.337,0.018 l 353.55,353.55 c -0.497,-0.497 -0.952,-0.61 -1.337,-0.018 z"
       inkscape:connector-curvature="0"
       id="path157" />
    <path
       d="m 411.01,172.12 c 1.225,1.225 2.71,4.783 4.063,5.892 l 353.55,353.55 c -1.353,-1.109 -2.838,-4.667 -4.063,-5.892 z"
       inkscape:connector-curvature="0"
       id="path159" />
    <path
       d="m 415.07,178.02 c 0.214,0.176 0.426,0.29 0.632,0.324 l 353.55,353.55 c -0.206,-0.034 -0.417,-0.148 -0.632,-0.324 z"
       inkscape:connector-curvature="0"
       id="path161" />
    <path
       d="m 415.7,178.34 c -1.311,-7.699 -3.563,-13.572 -3.66,-19.484 l 353.55,353.55 c 0.097,5.912 2.349,11.786 3.66,19.484 z"
       inkscape:connector-curvature="0"
       id="path163" />
    <path
       d="m 412.04,158.86 c -1.47,-3.07 -2.342,-4.523 -2.895,-5.077 l 353.55,353.55 c 0.553,0.553 1.426,2.01 2.895,5.077 z"
       inkscape:connector-curvature="0"
       id="path165" />
    <path
       d="m 409.15,153.78 c -1.521,-1.521 -0.628,3.764 -3.092,0.971 l 353.55,353.55 c 2.464,2.793 1.571,-2.492 3.092,-0.971 z"
       inkscape:connector-curvature="0"
       id="path167" />
    <path
       d="m 406.06,154.75 c -0.271,-0.307 -0.583,-0.712 -0.943,-1.234 l 353.55,353.55 c 0.36,0.522 0.672,0.927 0.943,1.234 z"
       inkscape:connector-curvature="0"
       id="path169" />
    <path
       d="m 405.11,153.52 c -6.339,-19.757 5.254,-4.587 6.04,-13.558 l 353.55,353.55 c -0.787,8.971 -12.381,-6.2 -6.04,13.558 z"
       inkscape:connector-curvature="0"
       id="path171" />
    <path
       d="m 411.16,139.96 c 9.595,13.904 15.07,35.466 17.587,44.4 l 353.55,353.55 c -2.521,-8.934 -7.992,-30.497 -17.587,-44.4 z"
       inkscape:connector-curvature="0"
       id="path173" />
    <path
       d="m 428.74,184.36 c -1.919,-10.887 -5.02,-21.439 -8.808,-31.645 l 353.55,353.55 c 3.788,10.207 6.889,20.758 8.808,31.645 z"
       inkscape:connector-curvature="0"
       id="path175" />
    <path
       d="m 419.93,152.71 c 2.396,1.01 -2.289,-14.663 0.612,-11.762 l 353.55,353.55 c -2.901,-2.901 1.784,12.77 -0.612,11.762 z"
       inkscape:connector-curvature="0"
       id="path177" />
    <path
       d="m 420.55,140.95 c 0.64,0.64 1.65,2.185 3.187,5.01 l 353.55,353.55 c -1.537,-2.829 -2.547,-4.374 -3.187,-5.01 z"
       inkscape:connector-curvature="0"
       id="path179" />
    <path
       d="m 423.73,145.97 c -5.441,-20 -18.308,-39.22 -33.639,-54.55 l 353.55,353.55 c 15.331,15.331 28.2,34.546 33.639,54.55 z"
       inkscape:connector-curvature="0"
       id="path181" />
    <path
       d="M 390.09,91.42 C 379.858,81.188 368.528,72.686 357.577,66.834 l 353.55,353.55 c 10.952,5.852 22.281,14.354 32.513,24.586 z"
       inkscape:connector-curvature="0"
       id="path183" />
    <path
       d="m 357.58,66.83 c 1.231,1.128 2.583,2.363 3.723,3.503 l 353.55,353.55 c -1.14,-1.14 -2.491,-2.375 -3.723,-3.503 z"
       inkscape:connector-curvature="0"
       id="path185" />
    <path
       d="m 361.3,70.33 c 1.95,1.95 3.28,3.621 2.329,4 l 353.55,353.55 c 0.951,-0.382 -0.379,-2.053 -2.329,-4 z"
       inkscape:connector-curvature="0"
       id="path187" />
    <path
       d="m 363.63,74.34 c -5.911,-3.515 -8.804,-5.623 -10.345,-7.164 l 353.55,353.55 c 1.541,1.541 4.434,3.65 10.345,7.164 z"
       inkscape:connector-curvature="0"
       id="path189" />
    <path
       d="m 353.29,67.17 c -2.01,-2.01 -1.721,-3.052 -2.825,-4.987 l 353.55,353.55 c 1.103,1.935 0.817,2.98 2.825,4.987 z"
       inkscape:connector-curvature="0"
       id="path191" />
    <path
       d="m 350.46,62.19 c -11.07,-4.51 -11.81,0.367 -19.13,0.013 l 353.55,353.55 c 7.324,0.354 8.06,-4.523 19.13,-0.013 z"
       inkscape:connector-curvature="0"
       id="path193" />
    <path
       d="M 331.33,62.2 C 310.439,51.12 306.415,52.292 287.19,45.358 l 353.55,353.55 c 19.229,6.934 23.254,5.758 44.14,16.842 z"
       inkscape:connector-curvature="0"
       id="path195" />
    <path
       d="m 287.19,45.36 0.877,4.091 353.55,353.55 -0.877,-4.091 z"
       inkscape:connector-curvature="0"
       id="path197" />
    <path
       d="m 288.06,49.45 c -13.835,-4.611 -16.12,1.738 -31.07,0.013 l 353.55,353.55 c 14.949,1.725 17.236,-4.624 31.07,-0.013 z"
       inkscape:connector-curvature="0"
       id="path199" />
    <path
       d="m 256.99,49.46 c -0.012,-0.009 -0.022,-0.018 -0.032,-0.028 l 353.55,353.55 c 0.009,0.009 0.02,0.019 0.032,0.028 z"
       inkscape:connector-curvature="0"
       id="path201" />
    <path
       d="m 256.96,49.43 c -0.727,-0.727 4.885,-2.555 9.521,-3.224 l 353.55,353.55 c -4.636,0.669 -10.248,2.496 -9.521,3.224 z"
       inkscape:connector-curvature="0"
       id="path203" />
    <path
       d="m 266.48,46.21 c -13.38,1.767 -12.755,-2.641 -25.852,0.478 l 353.55,353.55 c 13.1,-3.119 12.472,1.288 25.852,-0.478 z"
       inkscape:connector-curvature="0"
       id="path205" />
    <path
       d="m 240.63,46.687 c 3.223,-2.261 6.642,-3.765 10.08,-5.687 l 353.55,353.55 c -3.438,1.922 -6.857,3.426 -10.08,5.687 z"
       inkscape:connector-curvature="0"
       id="path207" />
    <path
       d="m 250.71,41 c -8.92,0.544 -20.674,4.445 -22.11,3.01 l 353.55,353.55 c 1.432,1.432 13.186,-2.469 22.11,-3.01 z"
       inkscape:connector-curvature="0"
       id="path209" />
    <path
       d="m 228.6,44.01 c -0.319,-0.319 -0.126,-0.902 0.724,-1.846 l 353.55,353.55 c -0.85,0.944 -1.043,1.527 -0.724,1.846 z"
       inkscape:connector-curvature="0"
       id="path211" />
    <path
       d="m 229.33,42.17 c -17.793,7.943 -49.4,19.09 -67.13,35.717 l 353.55,353.55 c 17.736,-16.627 49.34,-27.773 67.13,-35.717 z"
       inkscape:connector-curvature="0"
       id="path213" />
    <path
       d="m 162.19,77.884 -0.557,-3.727 353.55,353.55 0.557,3.727 z"
       inkscape:connector-curvature="0"
       id="path215" />
    <path
       d="m 161.64,74.16 c -8.126,9.754 -35.438,29.13 -37.613,41.777 l 353.55,353.55 c 2.175,-12.644 29.487,-32.02 37.613,-41.777 z"
       inkscape:connector-curvature="0"
       id="path217" />
    <path
       d="m 124.02,115.93 -2.175,0.5 353.55,353.55 2.175,-0.5 z"
       inkscape:connector-curvature="0"
       id="path219" />
    <path
       d="m 121.85,116.43 c -4.222,7.16 -6.964,15.272 -10.316,22.634 l 353.55,353.55 c 3.352,-7.363 6.094,-15.474 10.316,-22.634 z"
       inkscape:connector-curvature="0"
       id="path221" />
    <path
       d="m 111.53,139.07 c -4.534,7.734 -7.085,5.223 -7.421,4.887 l 353.55,353.55 c 0.336,0.336 2.886,2.846 7.421,-4.887 z"
       inkscape:connector-curvature="0"
       id="path223" />
    <path
       d="m 104.11,143.96 c -0.061,-0.061 -0.049,-0.05 0.037,0.105 l 353.55,353.55 c -0.086,-0.155 -0.097,-0.166 -0.037,-0.105 z"
       inkscape:connector-curvature="0"
       id="path225" />
    <path
       d="m 104.15,144.06 c 0.018,0.033 0.039,0.072 0.064,0.118 l 353.55,353.55 c -0.025,-0.046 -0.046,-0.086 -0.064,-0.118 z"
       inkscape:connector-curvature="0"
       id="path227" />
    <path
       d="m 104.21,144.18 c -10.877,22.05 -16.29,40.581 -20.953,55.789 l 353.55,353.55 c 4.664,-15.208 10.08,-33.735 20.953,-55.789 z"
       inkscape:connector-curvature="0"
       id="path229" />
    <path
       d="m 83.26,199.97 c 3.324,4.971 0.041,29.923 1.335,49.91 l 353.55,353.55 c -1.294,-19.987 1.989,-44.939 -1.335,-49.91 z"
       inkscape:connector-curvature="0"
       id="path231" />
    <path
       d="m 84.59,249.88 c -3.453,62.43 25.19,123.71 67.38,165.9 L 505.52,769.33 C 463.33,727.14 434.688,665.86 438.14,603.43 z"
       inkscape:connector-curvature="0"
       id="path233" />
    <path
       d="m 151.97,415.78 c 24.484,24.484 53.53,42.541 83.52,50.664 l 353.55,353.55 c -29.985,-8.124 -59.03,-26.18 -83.52,-50.664 z"
       inkscape:connector-curvature="0"
       id="path235" />
    <path
       d="m 235.49,466.44 c 11.968,4.285 29.762,4.135 44.899,4.558 l 353.55,353.55 c -15.14,-0.423 -32.931,-0.273 -44.899,-4.558 z"
       inkscape:connector-curvature="0"
       id="path237" />
    <path
       d="m 280.39,471 c -17.856,-5.111 -20.16,-2.705 -37.566,-8.769 l 353.55,353.55 c 17.404,6.06 19.71,3.659 37.566,8.769 z"
       inkscape:connector-curvature="0"
       id="path239" />
    <path
       d="m 242.82,462.23 c -6.166,-2.907 -9.966,-6.02 -13.292,-9.341 l 353.55,353.55 c 3.325,3.325 7.125,6.433 13.292,9.341 z"
       inkscape:connector-curvature="0"
       id="path241" />
    <path
       d="m 229.53,452.89 c -2.938,-2.938 -5.506,-6.05 -9.01,-9.335 l 353.55,353.55 c 3.503,3.289 6.071,6.397 9.01,9.335 z"
       inkscape:connector-curvature="0"
       id="path243" />
    <path
       d="m 220.52,443.55 c -0.6,-0.563 -1.228,-1.132 -1.889,-1.706 l 353.55,353.55 c 0.662,0.574 1.289,1.143 1.889,1.706 z"
       inkscape:connector-curvature="0"
       id="path245" />
    <path
       d="m 218.63,441.85 3.52,6.219 353.55,353.55 -3.52,-6.219 z"
       inkscape:connector-curvature="0"
       id="path247" />
    <path
       d="m 222.15,448.07 c -17.433,-6.173 -10.137,-7.636 -24.328,-12.13 l 353.55,353.55 c 14.191,4.491 6.896,5.955 24.328,12.13 z"
       inkscape:connector-curvature="0"
       id="path249" />
    <path
       d="m 197.82,435.94 3.76,-4.903 353.55,353.55 -3.76,4.903 z"
       inkscape:connector-curvature="0"
       id="path251" />
    <path
       d="m 201.58,431.04 c -3.426,-0.261 -8.199,-3.704 -11.993,-7.499 l 353.55,353.55 c 3.795,3.795 8.568,7.237 11.993,7.499 z"
       inkscape:connector-curvature="0"
       id="path253" />
    <path
       d="m 189.59,423.54 c -2.465,-2.465 -4.518,-5.08 -5.521,-7.07 l 353.55,353.55 c 1,1.987 3.055,4.602 5.521,7.07 z"
       inkscape:connector-curvature="0"
       id="path255" />
    <path
       d="m 184.07,416.47 -6.185,0.255 353.55,353.55 6.185,-0.255 z"
       inkscape:connector-curvature="0"
       id="path257" />
    <path
       d="m 177.88,416.73 c -7.425,-9.153 -11.387,-15.773 -11.09,-20.891 l 353.55,353.55 c -0.293,5.118 3.668,11.737 11.09,20.891 z"
       inkscape:connector-curvature="0"
       id="path259" />
    <path
       d="m 166.79,395.84 -1.999,3.563 353.55,353.55 1.999,-3.563 z"
       inkscape:connector-curvature="0"
       id="path261" />
    <path
       d="m 164.79,399.4 c -2.261,-3.885 -27.332,-34.379 -14.321,-27.28 l 353.55,353.55 c -13.01,-7.104 12.06,23.39 14.321,27.28 z"
       inkscape:connector-curvature="0"
       id="path263" />
    <path
       d="m 150.47,372.12 c -1.382,-1.259 -3.02,-2.252 -4.83,-4.056 l 353.55,353.55 c 1.805,1.805 3.448,2.797 4.83,4.056 z"
       inkscape:connector-curvature="0"
       id="path265" />
    <path
       d="m 145.64,368.07 c -1.35,-1.35 -2.791,-3.155 -4.281,-5.866 l 353.55,353.55 c 1.49,2.711 2.931,4.516 4.281,5.866 z"
       inkscape:connector-curvature="0"
       id="path267" />
    <path
       d="m 141.36,362.2 2.646,-3.02 353.55,353.55 -2.646,3.02 z"
       inkscape:connector-curvature="0"
       id="path269" />
    <path
       d="m 144.01,359.18 c -6.248,-8.05 -11.517,-18.374 -11.11,-21.812 l 353.55,353.55 c -0.403,3.438 4.866,13.757 11.11,21.812 z"
       inkscape:connector-curvature="0"
       id="path271" />
    <path
       d="m 132.89,337.37 c 0.843,1.137 1.62,2.041 2.349,2.77 l 353.55,353.55 c -0.728,-0.728 -1.506,-1.632 -2.349,-2.77 z"
       inkscape:connector-curvature="0"
       id="path273" />
    <path
       d="m 135.24,340.14 c 2.157,2.157 3.883,2.775 5.599,3.353 l 353.55,353.55 c -1.715,-0.578 -3.442,-1.196 -5.599,-3.353 z"
       inkscape:connector-curvature="0"
       id="path275" />
    <path
       d="m 140.84,343.49 c -4.098,-10.168 -7.193,-15.207 -9.738,-17.752 l 353.55,353.55 c 2.546,2.545 5.641,7.585 9.738,17.752 z"
       inkscape:connector-curvature="0"
       id="path277" />
    <path
       d="m 131.1,325.74 c -5.246,-5.246 -8.158,0.101 -12.702,-7.02 l 353.55,353.55 c 4.544,7.123 7.455,1.777 12.702,7.02 z"
       inkscape:connector-curvature="0"
       id="path279" />
    <path
       d="m 118.4,318.72 c -1.753,-2.749 -3.749,-7.354 -6.216,-15.14 l 353.55,353.55 c 2.467,7.787 4.463,12.392 6.216,15.14 z"
       inkscape:connector-curvature="0"
       id="path281" />
    <path
       d="m 112.18,303.57 2.527,-0.208 353.55,353.55 -2.527,0.208 z"
       inkscape:connector-curvature="0"
       id="path283" />
    <path
       d="m 114.71,303.37 c -1.935,-2.934 -3.122,-6.098 -4.678,-9.216 l 353.55,353.55 c 1.556,3.118 2.743,6.282 4.678,9.216 z"
       inkscape:connector-curvature="0"
       id="path285" />
    <path
       d="m 110.03,294.15 1.102,-10.974 353.55,353.55 -1.102,10.974 z"
       inkscape:connector-curvature="0"
       id="path287" />
    <path
       d="m 111.14,283.18 c -11.373,-13.14 -3.179,-55.931 -1.53,-79.39 l 353.55,353.55 c -1.648,23.454 -9.842,66.25 1.53,79.39 z"
       inkscape:connector-curvature="0"
       id="path289" />
    <path
       d="m 109.61,203.79 c 1.123,-9.538 9.495,-19.695 15.848,-35.631 l 353.55,353.55 c -6.353,15.937 -14.725,26.09 -15.848,35.631 z"
       inkscape:connector-curvature="0"
       id="path291" />
    <path
       d="m 125.45,168.16 -3.871,-0.665 353.55,353.55 3.871,0.665 z"
       inkscape:connector-curvature="0"
       id="path293" />
    <path
       d="m 121.58,167.5 c 7.405,-12.912 42.27,-51.863 58.42,-49.867 l 353.55,353.55 c -16.15,-1.996 -51.02,36.955 -58.42,49.867 z"
       inkscape:connector-curvature="0"
       id="path295" />
    <path
       d="m 180.01,117.63 c 2.484,-3.12 3.234,-4.26 3.052,-4.442 l 353.55,353.55 c 0.183,0.183 -0.567,1.322 -3.052,4.442 z"
       inkscape:connector-curvature="0"
       id="path297" />
    <path
       d="m 183.06,113.19 c -0.383,-0.383 -4.863,3.441 -6.06,2.051 l 353.55,353.55 c 1.193,1.39 5.673,-2.434 6.06,-2.051 z"
       inkscape:connector-curvature="0"
       id="path299" />
    <path
       d="m 177,115.24 c -0.03,-0.035 -0.058,-0.074 -0.084,-0.116 l 353.55,353.55 c 0.026,0.042 0.054,0.08 0.084,0.116 z"
       inkscape:connector-curvature="0"
       id="path301" />
    <path
       d="m 176.92,115.12 c 17.18,-17.783 22.592,-12.563 34.19,-15.773 l 353.55,353.55 c -11.602,3.21 -17.01,-2.01 -34.19,15.773 z"
       inkscape:connector-curvature="0"
       id="path303" />
    <path
       d="m 211.11,99.35 c 2.987,-1.773 3.933,-2.533 3.725,-2.741 l 353.55,353.55 c 0.208,0.208 -0.739,0.968 -3.725,2.741 z"
       inkscape:connector-curvature="0"
       id="path305" />
    <path
       d="m 214.84,96.61 c -0.56,-0.56 -9.482,2.876 -9.519,1.327 l 353.55,353.55 c 0.037,1.549 8.959,-1.887 9.519,-1.327 z"
       inkscape:connector-curvature="0"
       id="path307" />
    <path
       d="m 205.32,97.93 c -0.007,-0.285 0.286,-0.737 0.986,-1.414 l 353.55,353.55 c -0.7,0.677 -0.993,1.13 -0.986,1.414 z"
       inkscape:connector-curvature="0"
       id="path309" />
    <path
       d="m 206.3,96.52 c 21.627,-5.518 15.32,-12.554 43.525,-15.353 l 353.55,353.55 c -28.2,2.799 -21.898,9.835 -43.525,15.353 z"
       inkscape:connector-curvature="0"
       id="path311" />
    <path
       d="m 249.83,81.17 c 0.165,0.094 0.291,0.185 0.38,0.275 l 353.55,353.55 c -0.09,-0.089 -0.215,-0.181 -0.38,-0.275 z"
       inkscape:connector-curvature="0"
       id="path313" />
    <path
       d="m 250.21,81.44 c 1.524,1.524 -7.419,2.459 -9.76,4.533 L 594,439.523 c 2.341,-2.073 11.284,-3.01 9.76,-4.533 z"
       inkscape:connector-curvature="0"
       id="path315" />
    <path
       d="m 240.45,85.974 c 18.01,-8.817 56.999,-6.805 82.34,4.888 l 353.55,353.55 C 651.001,432.719 612.01,430.706 594,439.524 z"
       inkscape:connector-curvature="0"
       id="path317" />
    <path
       d="m 322.79,90.86 c 9.493,4.44 19.368,11.685 28.43,20.747 l 353.55,353.55 c -9.06,-9.06 -18.937,-16.307 -28.43,-20.747 z"
       inkscape:connector-curvature="0"
       id="path319" />
    <path
       d="m 351.22,111.61 c 18.98,18.98 34.397,45.932 35.28,71.783 l 353.55,353.55 c -0.885,-25.851 -16.301,-52.803 -35.28,-71.784 z"
       inkscape:connector-curvature="0"
       id="path321" />
    <path
       d="m 386.5,183.39 1.485,0.403 353.55,353.55 -1.485,-0.403 z"
       inkscape:connector-curvature="0"
       id="path323" />
    <path
       d="m 387.98,183.8 c -0.75,15.185 2.325,32.742 -3.01,48.87 l 353.55,353.55 c 5.335,-16.13 2.261,-33.685 3.01,-48.87 z"
       inkscape:connector-curvature="0"
       id="path325" />
    <path
       d="m 384.97,232.67 3.607,-7.64 353.55,353.55 -3.607,7.64 z"
       inkscape:connector-curvature="0"
       id="path327" />
  </g>
  <path
     d="m 388.62,225 c 0.431,11.603 -3.385,17.239 -6.839,27.22 l -6.21,3.088 c -5.076,9.864 0.511,6.262 -3.132,14.1 -7.933,7.05 -24.04,22.04 -29.2,23.413 -3.77,-0.041 2.55,-4.447 3.375,-6.153 -10.608,7.28 -8.514,10.93 -24.743,15.363 l -0.471,-1.058 c -40,18.826 -95.58,-18.475 -94.85,-69.36 -0.426,3.227 -1.209,2.421 -2.1,3.717 -2.064,-26.18 12.09,-52.47 35.973,-63.22 23.355,-11.555 50.734,-6.82 67.45,8.783 -9.182,-12.03 -27.476,-24.795 -49.14,-23.614 -21.232,0.345 -41.1,13.835 -47.727,28.485 -10.873,6.843 -12.14,26.394 -16.876,29.98 -6.383,46.873 11.992,67.12 43.08,90.94 4.88,3.294 1.375,3.799 2.024,6.306 -10.325,-4.832 -19.777,-12.13 -27.557,-21.07 4.13,6.04 8.584,11.905 14.335,16.516 -9.744,-3.29 -22.754,-23.595 -26.543,-24.414 16.785,30.05 68.09,52.714 94.96,41.468 -12.439,0.457 -28.23,0.255 -42.2,-4.908 -5.882,-3.02 -13.85,-9.269 -12.425,-10.436 36.672,13.692 74.55,10.363 106.27,-15.07 8.08,-6.291 16.895,-16.986 19.446,-17.13 -3.838,5.772 0.662,2.776 -2.292,7.871 8.03,-12.971 -3.501,-5.283 8.308,-22.398 l 4.36,6 c -1.633,-10.776 13.374,-23.849 11.848,-40.879 3.444,-5.206 3.838,5.609 0.189,17.587 5.066,-13.289 1.337,-15.426 2.636,-26.394 1.398,3.688 3.256,7.603 4.202,11.502 -3.304,-12.84 3.377,-21.625 5.04,-29.09 -1.639,-0.719 -5.096,5.677 -5.892,-9.489 0.157,-6.59 1.842,-3.454 2.497,-5.076 -1.288,-0.747 -4.682,-5.797 -6.743,-15.483 1.485,-2.282 3.996,5.902 6.03,6.234 -1.311,-7.699 -3.563,-13.572 -3.66,-19.484 -5.955,-12.439 -2.107,1.66 -6.93,-5.34 -6.339,-19.757 5.254,-4.587 6.04,-13.558 9.595,13.904 15.07,35.466 17.587,44.4 -1.919,-10.887 -5.02,-21.439 -8.808,-31.645 2.925,1.23 -4.702,-22.394 3.799,-6.748 -9.07,-33.35 -38.792,-64.52 -66.15,-79.14 3.338,3.059 7.559,6.901 6.05,7.506 -13.611,-8.093 -11.219,-8.731 -13.169,-12.151 -11.07,-4.51 -11.81,0.367 -19.13,0.013 -20.891,-11.08 -24.915,-9.908 -44.14,-16.842 l 0.877,4.091 c -13.835,-4.611 -16.12,1.738 -31.07,0.013 -0.905,-0.708 4.793,-2.574 9.489,-3.251 -13.38,1.767 -12.755,-2.641 -25.852,0.478 3.223,-2.261 6.642,-3.765 10.08,-5.687 -10.906,0.665 -26.05,6.349 -21.382,1.167 -17.793,7.943 -49.4,19.09 -67.13,35.717 l -0.557,-3.727 c -8.126,9.754 -35.438,29.13 -37.613,41.777 l -2.175,0.5 c -4.222,7.16 -6.964,15.272 -10.316,22.634 -5.528,9.428 -8.107,3.631 -7.32,5.111 -10.877,22.05 -16.29,40.581 -20.953,55.789 3.324,4.971 0.041,29.923 1.335,49.91 -5.456,98.67 69.24,194.44 150.9,216.56 11.968,4.285 29.762,4.135 44.899,4.558 -17.856,-5.111 -20.16,-2.705 -37.566,-8.769 -12.549,-5.916 -15.296,-12.664 -24.19,-20.382 l 3.52,6.219 c -17.433,-6.173 -10.137,-7.636 -24.328,-12.13 l 3.76,-4.903 c -5.651,-0.431 -14.969,-9.519 -17.514,-14.566 l -6.185,0.255 c -7.425,-9.153 -11.387,-15.773 -11.09,-20.891 l -1.999,3.563 c -2.261,-3.885 -27.332,-34.379 -14.321,-27.28 -2.416,-2.201 -5.629,-3.587 -9.111,-9.922 l 2.646,-3.02 c -6.248,-8.05 -11.517,-18.374 -11.11,-21.812 3.338,4.504 5.653,5.35 7.948,6.123 -15.801,-39.21 -16.694,-2.157 -28.656,-39.916 l 2.527,-0.208 c -1.935,-2.934 -3.122,-6.098 -4.678,-9.216 l 1.102,-10.974 c -11.373,-13.14 -3.179,-55.931 -1.53,-79.39 1.123,-9.538 9.495,-19.695 15.848,-35.631 l -3.871,-0.665 c 7.405,-12.912 42.27,-51.863 58.42,-49.867 7.824,-9.825 -1.553,-0.013 -3.088,-2.507 17.18,-17.783 22.592,-12.563 34.19,-15.773 12.5,-7.42 -10.734,2.901 -4.807,-2.829 21.627,-5.518 15.32,-12.554 43.525,-15.353 2.977,1.693 -6.901,2.612 -9.38,4.807 18.01,-8.817 56.999,-6.805 82.34,4.888 29.376,13.74 62.4,54.34 63.711,92.53 l 1.485,0.403 c -0.75,15.185 2.325,32.742 -3.01,48.87 l 3.607,-7.64"
     inkscape:connector-curvature="0"
     id="path329"
     style="fill:#ffffff" />
</svg>
