<?xml version="1.0" encoding="UTF-8" standalone="no"?>
<!-- Created with Inkscape (http://www.inkscape.org/) -->

<svg
   xmlns:dc="http://purl.org/dc/elements/1.1/"
   xmlns:cc="http://creativecommons.org/ns#"
   xmlns:rdf="http://www.w3.org/1999/02/22-rdf-syntax-ns#"
   xmlns:svg="http://www.w3.org/2000/svg"
   xmlns="http://www.w3.org/2000/svg"
   xmlns:inkscape="http://www.inkscape.org/namespaces/inkscape"
   version="1.1"
   width="100%"
   height="100%"
   viewBox="0 0 512 512"
   id="svg2">
  <metadata
     id="metadata73">
    <rdf:RDF>
      <cc:Work
         rdf:about="">
        <dc:format>image/svg+xml</dc:format>
        <dc:type
           rdf:resource="http://purl.org/dc/dcmitype/StillImage" />
      </cc:Work>
    </rdf:RDF>
  </metadata>
  <defs
     id="defs4" />
  <path
     d="M 26,0 C 11.603,0 0,11.603 0,26 v 460 c 0,14.397 11.603,26 26,26 h 460 c 14.397,0 26,-11.603 26,-26 V 26 C 512,11.603 500.397,0 486,0 H 26"
     inkscape:connector-curvature="0"
     id="path19"
     style="fill:none" />
  <path
     d="m 102.38,68.09 -61.37,99.44 15.25,15.25 H 41.01 L 244.14,443.91 312.23,512 h 173.78 c 14.397,0 26,-11.603 26,-26 V 170.47 L 409.64,68.1 403.734,77.631 394.203,68.1 h -122.72 -0.031 l 24.906,40.34 -40.34,-40.34 -5.906,9.531 -9.531,-9.531 h -122.72 -0.031 l 24.906,40.34 -40.34,-40.34"
     inkscape:connector-curvature="0"
     id="path67"
     style="opacity:0.0" />
  <path
     d="M 102.37,68.1 41,167.54 H 163.95 L 102.36,68.1 m 15.453,0 61.37,99.44 61.37,-99.44 h -122.73 m 138.18,0 -61.37,99.44 h 122.73 L 255.993,68.1 m 15.453,0 61.37,99.44 61.37,-99.44 h -122.73 m 138.18,0 -61.59,99.44 h 122.95 L 409.626,68.1 M 40.996,182.76 244.116,443.89 171.556,182.76 H 40.996 m 145.79,0 69.21,261.13 69.21,-261.13 h -138.4 m 153.63,0 -72.56,261.13 203.12,-261.13 h -130.56"
     inkscape:connector-curvature="0"
     id="path69"
     style="fill:#ffffff" />
</svg>
