<?xml version="1.0" encoding="UTF-8" standalone="no"?>
<!-- Created with Inkscape (http://www.inkscape.org/) -->

<svg
   xmlns:dc="http://purl.org/dc/elements/1.1/"
   xmlns:cc="http://creativecommons.org/ns#"
   xmlns:rdf="http://www.w3.org/1999/02/22-rdf-syntax-ns#"
   xmlns:svg="http://www.w3.org/2000/svg"
   xmlns="http://www.w3.org/2000/svg"
   xmlns:inkscape="http://www.inkscape.org/namespaces/inkscape"
   version="1.1"
   width="100%"
   height="100%"
   viewBox="0 0 512 512"
   id="svg2">
  <metadata
     id="metadata139">
    <rdf:RDF>
      <cc:Work
         rdf:about="">
        <dc:format>image/svg+xml</dc:format>
        <dc:type
           rdf:resource="http://purl.org/dc/dcmitype/StillImage" />
      </cc:Work>
    </rdf:RDF>
  </metadata>
  <defs
     id="defs4">
    <clipPath
       id="0">
      <rect
         width="512"
         height="512"
         rx="25.988001"
         x="0"
         y="0"
         id="rect7"
         style="fill:none" />
    </clipPath>
  </defs>
  <rect
     width="512"
     height="512"
     rx="25.988001"
     x="0"
     y="0"
     id="rect9"
     style="fill:none" />
  <g
     clip-path="url(#0)"
     id="g57"
     style="opacity:0.0">
    <path
       d="m 228.83,437.21 c -0.737,-0.723 -4.619,-1.608 -8.626,-1.966 l 353.55,353.55 c 4.01,0.358 7.889,1.243 8.626,1.966 z"
       inkscape:connector-curvature="0"
       id="path59" />
    <path
       d="m 220.2,435.24 c -8.529,-0.763 -18.17,-6.654 -33.384,-21.865 l 353.55,353.55 c 15.211,15.211 24.855,21.1 33.384,21.865 z"
       inkscape:connector-curvature="0"
       id="path61" />
    <path
       d="m 186.82,413.38 c -11.897,-11.897 -27.2,-29.497 -48.04,-54.804 l 353.55,353.55 c 20.839,25.307 36.14,42.907 48.04,54.804 z"
       inkscape:connector-curvature="0"
       id="path63" />
    <path
       d="M 138.78,358.57 C 120.918,336.879 106.71,320.654 94.44,308.39 l 353.55,353.55 c 12.268,12.268 26.478,28.494 44.34,50.18 z"
       inkscape:connector-curvature="0"
       id="path65" />
    <path
       d="M 94.44,308.39 C 74.25,288.2 59.32,278.728 42.02,273.25 L 395.57,626.8 c 17.298,5.48 32.23,14.954 52.42,35.14 z"
       inkscape:connector-curvature="0"
       id="path67" />
    <path
       d="m 42.02,273.25 c -0.311,-0.099 -0.558,-0.228 -0.731,-0.401 l 353.55,353.55 c 0.173,0.173 0.42,0.302 0.731,0.401 z"
       inkscape:connector-curvature="0"
       id="path69" />
    <path
       d="m 41.29,272.84 c -1.601,-1.601 3.166,-6.93 22.614,-26.02 l 353.55,353.55 c -19.447,19.09 -24.21,24.414 -22.614,26.02 z"
       inkscape:connector-curvature="0"
       id="path71" />
    <path
       d="m 63.901,246.83 c 29.16,-28.631 48.879,-49.4 97.23,-102.48 l 353.55,353.55 c -48.35,53.08 -68.07,73.852 -97.23,102.48 z"
       inkscape:connector-curvature="0"
       id="path73" />
    <path
       d="m 161.13,144.35 c 37.966,-41.679 43.52,-47.14 45.86,-44.798 l 353.55,353.55 c -2.34,-2.34 -7.894,3.119 -45.86,44.798 z"
       inkscape:connector-curvature="0"
       id="path75" />
    <path
       d="m 206.99,99.55 c 0.026,0.026 0.052,0.053 0.077,0.081 l 353.55,353.55 c -0.025,-0.028 -0.051,-0.055 -0.077,-0.081 z"
       inkscape:connector-curvature="0"
       id="path77" />
    <path
       d="m 207.07,99.63 c 0.889,0.982 6.69,9.237 12.889,18.343 l 353.55,353.55 c -6.199,-9.106 -12,-17.361 -12.889,-18.343 z"
       inkscape:connector-curvature="0"
       id="path79" />
    <path
       d="m 219.96,117.97 c 4.179,6.137 8.108,11.08 11.907,14.875 l 353.55,353.55 c -3.799,-3.799 -7.729,-8.737 -11.907,-14.875 z"
       inkscape:connector-curvature="0"
       id="path81" />
    <path
       d="m 231.86,132.85 c 10.417,10.417 19.859,12.277 30.799,6.836 l 353.55,353.55 c -10.94,5.441 -20.382,3.581 -30.799,-6.836 z"
       inkscape:connector-curvature="0"
       id="path83" />
    <path
       d="m 262.66,139.68 c 12.598,-6.273 39.967,-41.14 47.63,-60.684 l 353.55,353.55 c -7.663,19.543 -35.03,54.41 -47.63,60.684 z"
       inkscape:connector-curvature="0"
       id="path85" />
    <path
       d="m 310.29,78.999 c 1.883,-4.807 3.315,-6.123 5.63,-3.808 l 353.55,353.55 c -2.315,-2.315 -3.747,-0.999 -5.63,3.808 z"
       inkscape:connector-curvature="0"
       id="path87" />
    <path
       d="m 315.92,75.19 c 0.96,0.96 2.071,2.544 3.43,4.762 l 353.55,353.55 c -1.358,-2.218 -2.47,-3.803 -3.43,-4.762 z"
       inkscape:connector-curvature="0"
       id="path89" />
    <path
       d="m 319.35,79.953 c 6.4,10.454 40.12,52.589 62.22,77.75 l 353.55,353.55 c -22.1,-25.16 -55.816,-67.3 -62.22,-77.75 z"
       inkscape:connector-curvature="0"
       id="path91" />
    <path
       d="m 381.57,157.7 c 9.786,11.141 29.18,31.452 46.35,48.617 l 353.55,353.55 c -17.16,-17.16 -36.561,-37.476 -46.35,-48.617 z"
       inkscape:connector-curvature="0"
       id="path93" />
    <path
       d="m 427.92,206.32 c 3.044,3.044 6.02,5.989 8.856,8.767 l 353.55,353.55 c -2.838,-2.778 -5.812,-5.723 -8.856,-8.767 z"
       inkscape:connector-curvature="0"
       id="path95" />
    <path
       d="m 436.77,215.09 c 4.473,4.38 8.752,8.615 12.678,12.54 l 353.55,353.55 c -3.925,-3.925 -8.205,-8.16 -12.678,-12.54 z"
       inkscape:connector-curvature="0"
       id="path97" />
    <path
       d="m 449.45,227.63 c 12.607,12.607 21.562,22.02 21.55,22.755 l 353.55,353.55 c 0.012,-0.736 -8.943,-10.147 -21.55,-22.755 z"
       inkscape:connector-curvature="0"
       id="path99" />
    <path
       d="m 471,250.38 c -0.014,0.967 -5.125,3.317 -11.355,5.222 l 353.55,353.55 c 6.23,-1.905 11.341,-4.255 11.355,-5.222 z"
       inkscape:connector-curvature="0"
       id="path101" />
    <path
       d="m 459.65,255.6 c -27.2,8.322 -52.619,29.952 -121.47,103.38 L 691.73,712.53 C 760.579,639.11 786,617.48 813.2,609.15 z"
       inkscape:connector-curvature="0"
       id="path103" />
    <path
       d="m 338.18,358.98 c -53.67,57.23 -78.21,76.84 -98.58,78.68 l 353.55,353.55 c 20.367,-1.849 44.907,-21.454 98.58,-78.68 z"
       inkscape:connector-curvature="0"
       id="path105" />
    <path
       d="m 239.6,437.67 c -5.183,0.474 -10.03,0.264 -10.764,-0.456 l 353.55,353.55 c 0.737,0.72 5.58,0.931 10.764,0.456 z"
       inkscape:connector-curvature="0"
       id="path107" />
    <path
       d="m 267.53,331.03 c 13.293,-3.842 15.386,-5.249 33.26,-22.421 l 353.55,353.55 c -17.875,17.17 -19.969,18.579 -33.26,22.421 z"
       inkscape:connector-curvature="0"
       id="path109" />
    <path
       d="m 300.79,308.61 c 18.535,-17.796 35.881,-40.767 51.38,-68.04 l 353.55,353.55 c -15.495,27.27 -32.842,50.24 -51.38,68.04 z"
       inkscape:connector-curvature="0"
       id="path111" />
    <path
       d="m 352.17,240.57 c 5.212,-9.171 6.532,-14.02 3.796,-16.754 l 353.55,353.55 c 2.737,2.737 1.416,7.583 -3.796,16.754 z"
       inkscape:connector-curvature="0"
       id="path113" />
    <path
       d="m 355.97,223.82 c -1.101,-1.101 -2.86,-1.861 -5.286,-2.423 l 353.55,353.55 c 2.426,0.562 4.184,1.322 5.286,2.423 z"
       inkscape:connector-curvature="0"
       id="path115" />
    <path
       d="m 350.68,221.39 c -3.045,-0.705 -15.245,-5.471 -27.11,-10.589 l 353.55,353.55 c 11.867,5.118 24.07,9.884 27.11,10.589 z"
       inkscape:connector-curvature="0"
       id="path117" />
    <path
       d="M 323.57,210.81 C 279.48,191.79 265.3,189.832 244.618,199.88 l 353.55,353.55 c 20.684,-10.05 34.866,-8.09 78.952,10.93 z"
       inkscape:connector-curvature="0"
       id="path119" />
    <path
       d="m 244.62,199.88 c -15.289,7.43 -51.05,28.643 -62.64,37.16 l 353.55,353.55 c 11.589,-8.513 47.35,-29.727 62.64,-37.16 z"
       inkscape:connector-curvature="0"
       id="path121" />
    <path
       d="m 181.97,237.03 c -4.807,3.534 -11.733,7.466 -15.386,8.738 l 353.55,353.55 c 3.653,-1.272 10.579,-5.204 15.386,-8.738 z"
       inkscape:connector-curvature="0"
       id="path123" />
    <path
       d="m 166.59,245.77 c -3.656,1.272 -7.077,3.392 -7.603,4.71 l 353.55,353.55 c 0.526,-1.318 3.947,-3.438 7.603,-4.71 z"
       inkscape:connector-curvature="0"
       id="path125" />
    <path
       d="m 158.98,250.48 c -1.3,3.26 22.09,40.39 33.645,53.4 l 353.55,353.55 C 534.621,644.41 511.23,607.29 512.53,604.03 z"
       inkscape:connector-curvature="0"
       id="path127" />
    <path
       d="m 192.63,303.88 c 1.513,1.705 3.112,3.396 4.772,5.056 l 353.55,353.55 c -1.66,-1.66 -3.259,-3.352 -4.772,-5.056 z"
       inkscape:connector-curvature="0"
       id="path129" />
    <path
       d="m 197.4,308.94 c 10.607,10.607 23.711,19.927 32.938,23.18 l 353.55,353.55 c -9.227,-3.252 -22.331,-12.572 -32.938,-23.18 z"
       inkscape:connector-curvature="0"
       id="path131" />
    <path
       d="m 230.34,332.12 c 11.05,3.894 20.936,3.605 37.19,-1.093 l 353.55,353.55 c -16.252,4.698 -26.14,4.988 -37.19,1.093 z"
       inkscape:connector-curvature="0"
       id="path133" />
  </g>
  <path
     d="m 228.83,437.21 c -0.737,-0.723 -4.619,-1.608 -8.626,-1.966 -15.199,-1.36 -33.94,-19 -81.42,-76.67 -47.26,-57.38 -68.948,-76.52 -96.76,-85.33 -3.191,-1.011 0.334,-5.269 21.882,-26.416 29.16,-28.631 48.879,-49.4 97.23,-102.48 38.39,-42.14 43.64,-47.26 45.937,-44.717 0.889,0.982 6.69,9.237 12.889,18.343 15.635,22.963 27.776,29.14 42.706,21.71 12.598,-6.273 39.967,-41.14 47.63,-60.684 2.664,-6.8 4.426,-6.614 9.06,0.955 6.4,10.454 40.12,52.589 62.22,77.75 11.521,13.12 36.36,38.945 55.2,57.38 18.84,18.446 34.24,34.33 34.23,35.29 -0.014,0.967 -5.125,3.317 -11.355,5.222 -27.2,8.322 -52.619,29.952 -121.47,103.38 -53.67,57.23 -78.21,76.84 -98.58,78.68 -5.183,0.474 -10.03,0.264 -10.764,-0.456 m 38.695,-106.18 c 13.293,-3.842 15.386,-5.249 33.26,-22.421 18.535,-17.796 35.881,-40.767 51.38,-68.04 7.309,-12.861 6.965,-17.218 -1.49,-19.18 -3.045,-0.705 -15.245,-5.471 -27.11,-10.589 -44.09,-19.02 -58.27,-20.978 -78.952,-10.93 -15.289,7.43 -51.05,28.643 -62.64,37.16 -4.807,3.534 -11.733,7.466 -15.386,8.738 -3.656,1.272 -7.077,3.392 -7.603,4.71 -1.3,3.26 22.09,40.39 33.645,53.4 11.183,12.598 27.04,24.474 37.71,28.24 11.05,3.894 20.936,3.605 37.19,-1.093"
     inkscape:connector-curvature="0"
     id="path135"
     style="fill:#ffffff" />
</svg>
