<?xml version="1.0" encoding="UTF-8" standalone="no"?>
<!-- Created with Inkscape (http://www.inkscape.org/) -->

<svg
   xmlns:dc="http://purl.org/dc/elements/1.1/"
   xmlns:cc="http://creativecommons.org/ns#"
   xmlns:rdf="http://www.w3.org/1999/02/22-rdf-syntax-ns#"
   xmlns:svg="http://www.w3.org/2000/svg"
   xmlns="http://www.w3.org/2000/svg"
   xmlns:inkscape="http://www.inkscape.org/namespaces/inkscape"
   version="1.1"
   width="100%"
   height="100%"
   viewBox="0 0 512 512"
   id="svg2">
  <metadata
     id="metadata10">
    <rdf:RDF>
      <cc:Work
         rdf:about="">
        <dc:format>image/svg+xml</dc:format>
        <dc:type
           rdf:resource="http://purl.org/dc/dcmitype/StillImage" />
        <dc:title />
      </cc:Work>
    </rdf:RDF>
  </metadata>
  <defs
     id="defs8">
    <clipPath
       id="clipPath3308">
      <path
         d="M 26,0 C 11.602648,0 0,11.602648 0,26 l 0,460 c 0,14.39735 11.602648,26 26,26 l 460,0 c 14.39735,0 26,-11.60265 26,-26 L 512,26 C 512,11.602648 500.39735,0 486,0 L 26,0 z"
         inkscape:connector-curvature="0"
         id="path3310"
         style="fill:none;fill-opacity:1;stroke:none" />
    </clipPath>
  </defs>
  <path
     d="M 26,0 C 11.602648,0 0,11.602648 0,26 l 0,460 c 0,14.39735 11.602648,26 26,26 l 460,0 c 14.39735,0 26,-11.60265 26,-26 L 512,26 C 512,11.602648 500.39735,0 486,0 L 26,0 z"
     inkscape:connector-curvature="0"
     id="rect2986"
     style="fill:none;fill-opacity:1;stroke:none" />
  <g
     transform="matrix(11.339704,0,0,11.339704,-1547.6117,-171.1874)"
     id="g3040" />
  <g
     clip-path="url(#clipPath3308)"
     id="g3199"
     style="opacity:0.0;fill:#000000;fill-opacity:1;fill-rule:nonzero;stroke:none">
    <path
       d="M 91.296051,65.111243 40.999999,118.15599 429.90873,507.06472 480.20478,454.01997 z"
       inkscape:connector-curvature="0"
       id="path3202"
       style="fill:#000000" />
    <path
       d="M 40.999999,118.15599 154.17819,210.9843 543.08692,599.89303 429.90873,507.06472 z"
       inkscape:connector-curvature="0"
       id="path3204"
       style="fill:#000000" />
    <path
       d="M 154.17819,210.9843 40.999999,303.86083 429.90873,692.76956 543.08692,599.89303 z"
       inkscape:connector-curvature="0"
       id="path3206"
       style="fill:#000000" />
    <path
       d="m 40.999999,303.86083 50.296052,52.9483 388.908729,388.90873 -50.29605,-52.9483 z"
       inkscape:connector-curvature="0"
       id="path3208"
       style="fill:#000000" />
    <path
       d="M 91.296051,356.80913 261.08747,210.9843 649.9962,599.89303 480.20478,745.71786 z"
       inkscape:connector-curvature="0"
       id="path3210"
       style="fill:#000000" />
    <path
       d="M 261.08747,210.9843 91.296051,65.111243 480.20478,454.01997 649.9962,599.89303 z"
       inkscape:connector-curvature="0"
       id="path3212"
       style="fill:#000000" />
    <path
       d="m 261.03924,368.5272 0,78.36156 388.90873,388.90873 0,-78.36156 z"
       inkscape:connector-curvature="0"
       id="path3214"
       style="fill:#000000" />
    <path
       d="m 261.03924,446.88876 209.96076,0 388.90873,388.90873 -209.96076,0 z"
       inkscape:connector-curvature="0"
       id="path3216"
       style="fill:#000000" />
    <path
       d="m 471,446.88876 0,-78.36156 388.90873,388.90873 0,78.36156 z"
       inkscape:connector-curvature="0"
       id="path3218"
       style="fill:#000000" />
    <path
       d="m 471,368.5272 -209.96076,0 388.90873,388.90873 209.96076,0 z"
       inkscape:connector-curvature="0"
       id="path3220"
       style="fill:#000000" />
  </g>
  <path
     d="M 91.296051,65.111243 40.999999,118.15599 154.17819,210.9843 40.999999,303.86083 91.296051,356.80913 261.08747,210.9843 91.296051,65.111243 z M 261.03924,368.5272 l 0,78.36156 209.96076,0 0,-78.36156 -209.96076,0 z"
     inkscape:connector-curvature="0"
     id="path3062"
     style="fill:#ffffff;fill-opacity:1;fill-rule:nonzero;stroke:none" />
</svg>
