<?xml version="1.0" encoding="UTF-8" standalone="no"?>
<!-- Created with Inkscape (http://www.inkscape.org/) -->

<svg
   xmlns:dc="http://purl.org/dc/elements/1.1/"
   xmlns:cc="http://creativecommons.org/ns#"
   xmlns:rdf="http://www.w3.org/1999/02/22-rdf-syntax-ns#"
   xmlns:svg="http://www.w3.org/2000/svg"
   xmlns="http://www.w3.org/2000/svg"
   xmlns:inkscape="http://www.inkscape.org/namespaces/inkscape"
   version="1.1"
   width="100%"
   height="100%"
   viewBox="0 0 512 512"
   id="svg2">
  <metadata
     id="metadata91">
    <rdf:RDF>
      <cc:Work
         rdf:about="">
        <dc:format>image/svg+xml</dc:format>
        <dc:type
           rdf:resource="http://purl.org/dc/dcmitype/StillImage" />
      </cc:Work>
    </rdf:RDF>
  </metadata>
  <defs
     id="defs4">
    <clipPath
       id="0">
      <path
         d="M 26,0 C 11.603,0 0,11.603 0,26 v 460 c 0,14.397 11.603,26 26,26 h 460 c 14.397,0 26,-11.603 26,-26 V 26 C 512,11.603 500.397,0 486,0 H 26"
         inkscape:connector-curvature="0"
         id="path7" />
    </clipPath>
  </defs>
  <path
     d="M 26,0 C 11.603,0 0,11.603 0,26 v 460 c 0,14.397 11.603,26 26,26 h 460 c 14.397,0 26,-11.603 26,-26 V 26 C 512,11.603 500.397,0 486,0 H 26"
     inkscape:connector-curvature="0"
     id="path9"
     style="fill:none" />
  <g
     clip-path="url(#0)"
     id="g57"
     style="opacity:0.0;fill-rule:evenodd">
    <path
       d="m 471,316.68 c 0,46.969 -37.801,85.05 -84.42,85.05 l 353.55,353.55 c 46.615,0 84.42,-38.08 84.42,-85.05 z"
       inkscape:connector-curvature="0"
       id="path59" />
    <path
       d="M 386.58,401.72 H 125.4 l 353.55,353.55 h 261.18 z"
       inkscape:connector-curvature="0"
       id="path61" />
    <path
       d="m 125.4,401.72 c -23.19,0 -44.2,-9.424 -59.45,-24.68 L 419.5,730.59 c 15.256,15.256 36.26,24.68 59.45,24.68 z"
       inkscape:connector-curvature="0"
       id="path63" />
    <path
       d="M 65.949,377.04 C 50.541,361.632 41,340.277 41,316.67 l 353.55,353.55 c 0,23.604 9.541,44.959 24.949,60.37 z"
       inkscape:connector-curvature="0"
       id="path65" />
    <path
       d="m 41,316.68 c 0,-42.42 30.816,-77.56 71.13,-83.997 l 353.55,353.55 c -40.32,6.433 -71.13,41.575 -71.13,83.997 z"
       inkscape:connector-curvature="0"
       id="path67" />
    <path
       d="m 112.13,232.68 c -0.511,-2.976 -0.793,-6.04 -0.793,-9.192 l 353.55,353.55 c 0,3.153 0.282,6.216 0.793,9.192 z"
       inkscape:connector-curvature="0"
       id="path69" />
    <path
       d="m 111.34,223.49 c 0,-29.761 23.946,-53.882 53.49,-53.882 l 353.55,353.55 c -29.544,0 -53.49,24.12 -53.49,53.882 z"
       inkscape:connector-curvature="0"
       id="path71" />
    <path
       d="m 164.83,169.6 c 13.177,0 25.25,4.802 34.567,12.789 l 353.55,353.55 C 543.631,527.952 531.558,523.15 518.38,523.15 z"
       inkscape:connector-curvature="0"
       id="path73" />
    <path
       d="m 199.4,182.39 c 16.607,-37.706 37.897,-72.12 97.62,-72.12 l 353.55,353.55 c -59.724,0 -81.01,34.411 -97.62,72.12 z"
       inkscape:connector-curvature="0"
       id="path75" />
    <path
       d="m 297.02,110.28 c 32.08,0 56.686,11.04 74.15,28.5 l 353.55,353.55 c -17.46,-17.46 -42.07,-28.5 -74.15,-28.5 z"
       inkscape:connector-curvature="0"
       id="path77" />
    <path
       d="m 371.16,138.78 c 21.964,21.964 32.62,54.09 32.62,87.18 l 353.55,353.55 c 0,-33.09 -10.656,-65.21 -32.62,-87.18 z"
       inkscape:connector-curvature="0"
       id="path79" />
    <path
       d="m 403.78,225.95 c 0,2.484 -0.105,4.945 -0.272,7.382 l 353.55,353.55 c 0.166,-2.437 0.272,-4.898 0.272,-7.382 z"
       inkscape:connector-curvature="0"
       id="path81" />
    <path
       d="m 403.51,233.34 c 16.409,3.368 31.09,11.531 42.529,22.973 l 353.55,353.55 C 788.147,598.421 773.469,590.258 757.06,586.89 z"
       inkscape:connector-curvature="0"
       id="path83" />
    <path
       d="m 446.04,256.31 c 15.406,15.406 24.946,36.756 24.946,60.35 l 353.55,353.55 c 0,-23.592 -9.54,-44.942 -24.946,-60.35 z"
       inkscape:connector-curvature="0"
       id="path85" />
  </g>
  <path
     d="m 471,316.68 c 0,46.969 -37.801,85.05 -84.42,85.05 H 125.4 c -46.611,0 -84.4,-38.07 -84.4,-85.05 0,-42.42 30.816,-77.56 71.13,-83.997 -0.511,-2.976 -0.793,-6.04 -0.793,-9.192 0,-29.761 23.946,-53.882 53.49,-53.882 13.177,0 25.25,4.802 34.567,12.789 16.607,-37.706 37.897,-72.12 97.62,-72.12 72.43,0 106.77,56.29 106.77,115.68 0,2.484 -0.105,4.945 -0.272,7.382 38.503,7.902 67.47,42.21 67.47,83.32"
     inkscape:connector-curvature="0"
     id="path87"
     style="fill:#ffffff;fill-rule:evenodd" />
</svg>
