<?xml version="1.0" encoding="UTF-8" standalone="no"?>
<!-- Created with Inkscape (http://www.inkscape.org/) -->

<svg
   xmlns:dc="http://purl.org/dc/elements/1.1/"
   xmlns:cc="http://creativecommons.org/ns#"
   xmlns:rdf="http://www.w3.org/1999/02/22-rdf-syntax-ns#"
   xmlns:svg="http://www.w3.org/2000/svg"
   xmlns="http://www.w3.org/2000/svg"
   xmlns:inkscape="http://www.inkscape.org/namespaces/inkscape"
   version="1.1"
   width="100%"
   height="100%"
   viewBox="0 0 512 512"
   id="svg2">
  <metadata
     id="metadata10">
    <rdf:RDF>
      <cc:Work
         rdf:about="">
        <dc:format>image/svg+xml</dc:format>
        <dc:type
           rdf:resource="http://purl.org/dc/dcmitype/StillImage" />
        <dc:title />
      </cc:Work>
    </rdf:RDF>
  </metadata>
  <defs
     id="defs8">
    <clipPath
       id="clipPath3481">
      <path
         d="M 26,0 C 11.602648,0 0,11.602648 0,26 l 0,460 c 0,14.39735 11.602648,26 26,26 l 460,0 c 14.39735,0 26,-11.60265 26,-26 L 512,26 C 512,11.602648 500.39735,0 486,0 L 26,0 z"
         inkscape:connector-curvature="0"
         id="path3483"
         style="fill:none;fill-opacity:1;stroke:none" />
    </clipPath>
  </defs>
  <path
     d="M 26,0 C 11.602648,0 0,11.602648 0,26 l 0,460 c 0,14.39735 11.602648,26 26,26 l 460,0 c 14.39735,0 26,-11.60265 26,-26 L 512,26 C 512,11.602648 500.39735,0 486,0 L 26,0 z"
     inkscape:connector-curvature="0"
     id="rect2986"
     style="fill:none;fill-opacity:1;stroke:none" />
  <g
     transform="translate(-955.53235,-191.94616)"
     id="g62"
     style="font-size:208.33000183px;line-height:125%;letter-spacing:0;word-spacing:0;font-family:Gentium Book Basic">
  </g>
  <g
     transform="translate(-955.53235,-191.94616)"
     id="g80"
     style="line-height:125%;letter-spacing:0;word-spacing:0">
  </g>
  <g
     clip-path="url(#clipPath3481)"
     id="g3301"
     style="opacity:0.0;fill:#000000">
    <path
       d="M 291.58318,41 C 187.7709,41.36937 102.97351,122.34814 96.46974,224.60675 L 485.37847,613.51548 C 491.88224,511.25687 576.67963,430.2781 680.49191,429.90873 z"
       inkscape:connector-curvature="0"
       id="path3304"
       style="fill:#000000" />
    <path
       d="m 96.46974,224.60675 109.43863,0 388.90873,388.90873 -109.43863,0 z"
       inkscape:connector-curvature="0"
       id="path3306"
       style="fill:#000000" />
    <path
       d="m 205.90837,224.60675 c 6.08778,-42.00645 42.05566,-74.32087 85.67481,-74.66841 l 388.90873,388.90873 c -43.61915,0.34754 -79.58703,32.66196 -85.67481,74.66841 z"
       inkscape:connector-curvature="0"
       id="path3308"
       style="fill:#000000" />
    <path
       d="m 291.58318,149.93834 0,-108.93834 388.90873,388.90873 0,108.93834 z"
       inkscape:connector-curvature="0"
       id="path3310"
       style="fill:#000000" />
    <path
       d="m 304.63243,76.10374 0,74.83518 388.90873,388.90873 0,-74.83518 z"
       inkscape:connector-curvature="0"
       id="path3312"
       style="fill:#000000" />
    <path
       d="m 304.63243,150.93892 c 13.76374,2.62676 26.2175,9.43097 35.81959,19.03306 l 388.90873,388.90873 c -9.60209,-9.60209 -22.05585,-16.4063 -35.81959,-19.03306 z"
       inkscape:connector-curvature="0"
       id="path3314"
       style="fill:#000000" />
    <path
       d="m 340.45202,169.97198 c 12.00112,12.00112 19.54759,28.37285 19.62932,46.42166 l 388.90873,388.90873 c -0.0817,-18.04881 -7.6282,-34.42054 -19.62932,-46.42166 z"
       inkscape:connector-curvature="0"
       id="path3316"
       style="fill:#000000" />
    <path
       d="m 360.08134,216.39364 c 0.35462,2.67742 0.14453,5.40175 0,8.21311 l 388.90873,388.90873 c 0.14453,-2.81136 0.35462,-5.53569 0,-8.21311 z"
       inkscape:connector-curvature="0"
       id="path3318"
       style="fill:#000000" />
    <path
       d="m 360.08134,224.60675 93.42932,0 388.90873,388.90873 -93.42932,0 z"
       inkscape:connector-curvature="0"
       id="path3320"
       style="fill:#000000" />
    <path
       d="m 453.51066,224.60675 c -3.06135,-39.36251 -20.42318,-74.7772 -46.84404,-101.19805 l 388.90873,388.90873 c 26.42086,26.42085 43.78269,61.83554 46.84404,101.19805 z"
       inkscape:connector-curvature="0"
       id="path3322"
       style="fill:#000000" />
    <path
       d="M 406.66662,123.4087 C 380.05853,96.800607 344.26257,79.314271 304.63243,76.10374 l 388.90873,388.90873 c 39.63014,3.21053 75.4261,20.69687 102.03419,47.30496 z"
       inkscape:connector-curvature="0"
       id="path3324"
       style="fill:#000000" />
    <path
       d="m 58.48934,237.656 c 0.112477,64.38843 26.251218,122.66004 68.45798,164.8668 l 388.90873,388.90873 c -42.20676,-42.20676 -68.3455,-100.47837 -68.45798,-164.8668 z"
       inkscape:connector-curvature="0"
       id="path3326"
       style="fill:#000000" />
    <path
       d="M 126.94732,402.5228 C 169.10376,444.67925 227.28994,470.80913 291.58318,471 l 388.90873,388.90873 c -64.29324,-0.19087 -122.47942,-26.32076 -164.63586,-68.4772 z"
       inkscape:connector-curvature="0"
       id="path3328"
       style="fill:#000000" />
    <path
       d="m 291.58318,471 0,-146.46015 388.90873,388.90873 0,146.46015 z"
       inkscape:connector-curvature="0"
       id="path3330"
       style="fill:#000000" />
    <path
       d="m 291.58318,324.53985 c -23.83181,-0.18988 -45.38416,-9.92142 -61.02615,-25.56341 l 388.90873,388.90873 c 15.64199,15.64199 37.19434,25.37353 61.02615,25.56341 z"
       inkscape:connector-curvature="0"
       id="path3332"
       style="fill:#000000" />
    <path
       d="M 230.55703,298.97644 C 214.85067,283.27007 205.10341,261.60451 204.99117,237.656 L 593.8999,626.56473 c 0.11224,23.94851 9.8595,45.61407 25.56586,61.32044 z"
       inkscape:connector-curvature="0"
       id="path3334"
       style="fill:#000000" />
    <path
       d="m 204.99117,237.656 -146.50183,0 388.90873,388.90873 146.50183,0 z"
       inkscape:connector-curvature="0"
       id="path3336"
       style="fill:#000000" />
    <path
       d="m 358.37201,237.656 c -6.51653,23.92196 -28.00333,41.54962 -53.73958,42.23289 l 388.90873,388.90873 c 25.73625,-0.68327 47.22305,-18.31093 53.73958,-42.23289 z"
       inkscape:connector-curvature="0"
       id="path3338"
       style="fill:#000000" />
    <path
       d="m 304.63243,279.88889 0,50.57107 388.90873,388.90873 0,-50.57107 z"
       inkscape:connector-curvature="0"
       id="path3340"
       style="fill:#000000" />
    <path
       d="m 304.63243,330.45996 c 2.12417,0.14533 4.25891,0.25014 6.4204,0.25014 l 388.90873,388.90873 c -2.16149,0 -4.29623,-0.10481 -6.4204,-0.25014 z"
       inkscape:connector-curvature="0"
       id="path3342"
       style="fill:#000000" />
    <path
       d="m 311.05283,330.7101 c 53.66746,0 97.73631,-40.79038 103.05992,-93.0541 l 388.90873,388.90873 c -5.32361,52.26372 -49.39246,93.0541 -103.05992,93.0541 z"
       inkscape:connector-curvature="0"
       id="path3344"
       style="fill:#000000" />
    <path
       d="m 414.11275,237.656 -55.74074,0 388.90873,388.90873 55.74074,0 z"
       inkscape:connector-curvature="0"
       id="path3346"
       style="fill:#000000" />
  </g>
  <path
     d="M 291.58318,41 C 187.7709,41.36937 102.97351,122.34814 96.46974,224.60675 l 109.43863,0 c 6.08778,-42.00645 42.05566,-74.32087 85.67481,-74.66841 l 0,-108.93834 z m 13.04925,35.10374 0,74.83518 c 30.96629,5.90981 55.30178,32.96508 55.44891,65.45472 0.35462,2.67742 0.14453,5.40175 0,8.21311 l 93.42932,0 C 447.36627,145.6028 383.61385,82.50221 304.63243,76.10374 z M 58.48934,237.656 C 58.71416,366.35609 162.91994,470.61804 291.58318,471 l 0,-146.46015 c -47.7617,-0.38054 -86.36799,-39.08498 -86.59201,-86.88385 l -146.50183,0 z m 299.88267,0 c -6.51653,23.92196 -28.00333,41.54962 -53.73958,42.23289 l 0,50.57107 c 2.12417,0.14533 4.25891,0.25014 6.4204,0.25014 53.66746,0 97.73631,-40.79038 103.05992,-93.0541 l -55.74074,0 z"
     inkscape:connector-curvature="0"
     id="path104"
     style="fill:#ffffff" />
</svg>
