<?xml version="1.0" encoding="UTF-8" standalone="no"?>
<!-- Created with Inkscape (http://www.inkscape.org/) -->

<svg
   xmlns:dc="http://purl.org/dc/elements/1.1/"
   xmlns:cc="http://creativecommons.org/ns#"
   xmlns:rdf="http://www.w3.org/1999/02/22-rdf-syntax-ns#"
   xmlns:svg="http://www.w3.org/2000/svg"
   xmlns="http://www.w3.org/2000/svg"
   xmlns:inkscape="http://www.inkscape.org/namespaces/inkscape"
   version="1.1"
   width="100%"
   height="100%"
   viewBox="0 0 512 512"
   id="svg2">
  <metadata
     id="metadata355">
    <rdf:RDF>
      <cc:Work
         rdf:about="">
        <dc:format>image/svg+xml</dc:format>
        <dc:type
           rdf:resource="http://purl.org/dc/dcmitype/StillImage" />
      </cc:Work>
    </rdf:RDF>
  </metadata>
  <defs
     id="defs4">
    <clipPath
       id="0">
      <path
         d="M 26,0 C 11.603,0 0,11.603 0,26 v 460 c 0,14.397 11.603,26 26,26 h 460 c 14.397,0 26,-11.603 26,-26 V 26 C 512,11.603 500.397,0 486,0 H 26"
         inkscape:connector-curvature="0"
         id="path7" />
    </clipPath>
  </defs>
  <path
     d="M 26,0 C 11.603,0 0,11.603 0,26 v 460 c 0,14.397 11.603,26 26,26 h 460 c 14.397,0 26,-11.603 26,-26 V 26 C 512,11.603 500.397,0 486,0 H 26"
     inkscape:connector-curvature="0"
     id="path9"
     style="fill:none" />
  <g
     clip-path="url(#0)"
     id="g57"
     style="opacity:0.0;fill-rule:evenodd">
    <path
       d="m 179.69,41.42 c -7.274,0 -13.152,5.879 -13.152,13.152 l 353.55,353.55 c 0,-7.274 5.879,-13.152 13.152,-13.152 z"
       inkscape:connector-curvature="0"
       id="path59" />
    <path
       d="m 166.54,54.57 v 57.48 L 520.09,465.6 v -57.48 z"
       inkscape:connector-curvature="0"
       id="path61" />
    <path
       d="m 166.54,112.05 c 0,3.618 1.454,6.871 3.811,9.228 l 353.55,353.55 c -2.357,-2.357 -3.811,-5.61 -3.811,-9.228 z"
       inkscape:connector-curvature="0"
       id="path63" />
    <path
       d="m 170.35,121.28 c 2.382,2.382 5.686,3.848 9.342,3.848 l 353.55,353.55 c -3.656,0 -6.96,-1.466 -9.342,-3.848 z"
       inkscape:connector-curvature="0"
       id="path65" />
    <path
       d="m 179.69,125.12 c 7.274,0 13.152,-5.803 13.152,-13.08 l 353.55,353.55 c 0,7.273 -5.879,13.08 -13.152,13.08 z"
       inkscape:connector-curvature="0"
       id="path67" />
    <path
       d="M 192.84,112.05 V 54.57 l 353.55,353.55 v 57.48 z"
       inkscape:connector-curvature="0"
       id="path69" />
    <path
       d="m 192.84,54.57 c 0,-3.637 -1.47,-6.925 -3.849,-9.304 l 353.55,353.55 c 2.379,2.379 3.849,5.667 3.849,9.304 z"
       inkscape:connector-curvature="0"
       id="path71" />
    <path
       d="m 189,45.27 c -2.379,-2.379 -5.667,-3.849 -9.304,-3.849 l 353.55,353.55 c 3.637,0 6.925,1.47 9.304,3.849 z"
       inkscape:connector-curvature="0"
       id="path73" />
    <path
       d="m 252.7,41.42 c -7.274,0 -13.08,5.879 -13.08,13.152 l 353.55,353.55 c 0,-7.274 5.801,-13.152 13.08,-13.152 z"
       inkscape:connector-curvature="0"
       id="path75" />
    <path
       d="m 239.62,54.57 v 57.48 L 593.17,465.6 v -57.48 z"
       inkscape:connector-curvature="0"
       id="path77" />
    <path
       d="m 239.62,112.05 c 0,3.637 1.451,6.905 3.81,9.265 l 353.55,353.55 c -2.36,-2.36 -3.81,-5.628 -3.81,-9.265 z"
       inkscape:connector-curvature="0"
       id="path79" />
    <path
       d="m 243.43,121.31 c 2.36,2.36 5.629,3.81 9.265,3.81 l 353.55,353.55 c -3.636,0 -6.905,-1.45 -9.265,-3.81 z"
       inkscape:connector-curvature="0"
       id="path81" />
    <path
       d="m 252.7,125.12 c 7.274,0 13.152,-5.803 13.152,-13.08 l 353.55,353.55 c 0,7.273 -5.879,13.08 -13.152,13.08 z"
       inkscape:connector-curvature="0"
       id="path83" />
    <path
       d="M 265.85,112.05 V 54.57 L 619.4,408.12 v 57.48 z"
       inkscape:connector-curvature="0"
       id="path85" />
    <path
       d="m 265.85,54.57 c 0,-3.637 -1.47,-6.925 -3.849,-9.304 l 353.55,353.55 c 2.379,2.379 3.849,5.667 3.849,9.304 z"
       inkscape:connector-curvature="0"
       id="path87" />
    <path
       d="m 262,45.27 c -2.379,-2.379 -5.667,-3.849 -9.304,-3.849 l 353.55,353.55 c 3.637,0 6.925,1.47 9.304,3.849 z"
       inkscape:connector-curvature="0"
       id="path89" />
    <path
       d="m 325.74,41.42 c -7.274,0 -13.152,5.879 -13.152,13.152 l 353.55,353.55 c 0,-7.274 5.879,-13.152 13.152,-13.152 z"
       inkscape:connector-curvature="0"
       id="path91" />
    <path
       d="m 312.59,54.57 v 57.48 L 666.14,465.6 v -57.48 z"
       inkscape:connector-curvature="0"
       id="path93" />
    <path
       d="m 312.59,112.05 c 0,3.618 1.454,6.871 3.811,9.228 l 353.55,353.55 c -2.357,-2.357 -3.811,-5.61 -3.811,-9.228 z"
       inkscape:connector-curvature="0"
       id="path95" />
    <path
       d="m 316.4,121.28 c 2.382,2.382 5.686,3.848 9.342,3.848 l 353.55,353.55 c -3.656,0 -6.96,-1.466 -9.342,-3.848 z"
       inkscape:connector-curvature="0"
       id="path97" />
    <path
       d="m 325.74,125.12 c 7.274,0 13.08,-5.803 13.08,-13.08 l 353.55,353.55 c 0,7.273 -5.801,13.08 -13.08,13.08 z"
       inkscape:connector-curvature="0"
       id="path99" />
    <path
       d="M 338.82,112.05 V 54.57 l 353.55,353.55 v 57.48 z"
       inkscape:connector-curvature="0"
       id="path101" />
    <path
       d="m 338.82,54.57 c 0,-3.656 -1.466,-6.96 -3.848,-9.341 l 353.55,353.55 c 2.382,2.382 3.848,5.685 3.848,9.341 z"
       inkscape:connector-curvature="0"
       id="path103" />
    <path
       d="m 334.97,45.23 c -2.357,-2.357 -5.61,-3.811 -9.227,-3.811 l 353.55,353.55 c 3.617,0 6.871,1.454 9.227,3.811 z"
       inkscape:connector-curvature="0"
       id="path105" />
    <path
       d="m 178.46,144.03 c -20,0 -36.08,16.16 -36.08,36.16 l 353.55,353.55 c 0,-20 16.08,-36.16 36.08,-36.16 z"
       inkscape:connector-curvature="0"
       id="path107" />
    <path
       d="M 142.38,180.19 V 329.51 L 495.93,683.06 V 533.74 z"
       inkscape:connector-curvature="0"
       id="path109" />
    <path
       d="m 142.38,329.51 c 0,10.01 4.03,19.05 10.56,25.579 l 353.55,353.55 c -6.531,-6.531 -10.56,-15.569 -10.56,-25.579 z"
       inkscape:connector-curvature="0"
       id="path111" />
    <path
       d="m 152.94,355.09 c 6.52,6.52 15.533,10.542 25.522,10.542 l 353.55,353.55 c -9.989,0 -19,-4.02 -25.522,-10.542 z"
       inkscape:connector-curvature="0"
       id="path113" />
    <path
       d="M 178.46,365.63 H 326.97 L 680.52,719.18 H 532.01 z"
       inkscape:connector-curvature="0"
       id="path115" />
    <path
       d="m 326.97,365.63 c 20,0 36.08,-16.12 36.08,-36.12 L 716.6,683.06 c 0,19.998 -16.08,36.12 -36.08,36.12 z"
       inkscape:connector-curvature="0"
       id="path117" />
    <path
       d="M 363.05,329.51 V 180.19 L 716.6,533.74 v 149.32 z"
       inkscape:connector-curvature="0"
       id="path119" />
    <path
       d="m 363.05,180.19 c 0,-10.02 -4.04,-19.07 -10.579,-25.617 l 353.55,353.55 c 6.542,6.542 10.579,15.597 10.579,25.617 z"
       inkscape:connector-curvature="0"
       id="path121" />
    <path
       d="m 352.47,154.58 c -6.518,-6.518 -15.524,-10.543 -25.503,-10.543 l 353.55,353.55 c 9.979,0 18.985,4.02 25.503,10.543 z"
       inkscape:connector-curvature="0"
       id="path123" />
    <path
       d="M 326.97,144.03 H 178.46 l 353.55,353.55 h 148.51 z"
       inkscape:connector-curvature="0"
       id="path125" />
    <path
       d="m 280.35,167.69 c 0.498,1.244 1.018,2.266 1.572,3.374 l 353.55,353.55 c -0.553,-1.108 -1.074,-2.13 -1.572,-3.374 z"
       inkscape:connector-curvature="0"
       id="path127" />
    <path
       d="m 281.99,171.26 c 2.194,5.21 2.371,5.239 4.065,8.626 l 353.55,353.55 c -1.695,-3.387 -1.871,-3.416 -4.065,-8.626 z"
       inkscape:connector-curvature="0"
       id="path129" />
    <path
       d="m 286.06,179.88 c 0.688,1.048 1.964,3.123 3.605,6.404 l 353.55,353.55 c -1.641,-3.281 -2.917,-5.356 -3.605,-6.404 z"
       inkscape:connector-curvature="0"
       id="path131" />
    <path
       d="m 288.71,190.31 c -9.217,7.05 -9.853,7.684 -17.447,14.495 l 353.55,353.55 c 7.594,-6.811 8.23,-7.447 17.447,-14.495 z"
       inkscape:connector-curvature="0"
       id="path133" />
    <path
       d="m 265.7,204 c -0.042,-0.061 -0.036,-0.093 -0.077,-0.153 l 353.55,353.55 c 0.042,0.06 0.036,0.092 0.077,0.153 z"
       inkscape:connector-curvature="0"
       id="path135" />
    <path
       d="m 265.62,203.85 c -5.755,-8.425 -8.524,-13.287 -10.507,-19.517 l 353.55,353.55 c 1.983,6.23 4.752,11.09 10.507,19.517 z"
       inkscape:connector-curvature="0"
       id="path137" />
    <path
       d="m 256.73,180.38 c 0.717,-0.358 1.73,-1.086 2.838,-1.918 l 353.55,353.55 c -1.108,0.832 -2.122,1.56 -2.838,1.918 z"
       inkscape:connector-curvature="0"
       id="path139" />
    <path
       d="m 259.72,178.39 c 2.445,-1.631 4.301,-3.02 5.56,-4.03 l 353.55,353.55 c -1.259,1.01 -3.114,2.395 -5.56,4.03 z"
       inkscape:connector-curvature="0"
       id="path141" />
    <path
       d="m 265.28,174.36 c 2.811,-2.249 5.145,-4.03 5.866,-4.755 l 353.55,353.55 c -0.721,0.721 -3.055,2.506 -5.866,4.755 z"
       inkscape:connector-curvature="0"
       id="path143" />
    <path
       d="m 271.14,169.61 c 1.345,-1.345 2.923,-2.285 4.141,-3.259 l 353.55,353.55 c -1.218,0.974 -2.796,1.914 -4.141,3.259 z"
       inkscape:connector-curvature="0"
       id="path145" />
    <path
       d="m 54.16,168.65 c -7.274,0 -13.152,5.803 -13.152,13.08 l 353.55,353.55 c 0,-7.273 5.879,-13.08 13.152,-13.08 z"
       inkscape:connector-curvature="0"
       id="path147" />
    <path
       d="m 41,181.73 c 0,3.637 1.47,6.925 3.849,9.304 l 353.55,353.55 c -2.379,-2.379 -3.849,-5.667 -3.849,-9.304 z"
       inkscape:connector-curvature="0"
       id="path149" />
    <path
       d="m 44.852,191.03 c 2.379,2.379 5.667,3.849 9.304,3.849 l 353.55,353.55 c -3.637,0 -6.925,-1.47 -9.304,-3.849 z"
       inkscape:connector-curvature="0"
       id="path151" />
    <path
       d="m 54.16,194.88 h 57.48 l 353.55,353.55 h -57.48 z"
       inkscape:connector-curvature="0"
       id="path153" />
    <path
       d="m 111.63,194.88 c 7.274,0 13.08,-5.879 13.08,-13.152 l 353.55,353.55 c 0,7.274 -5.801,13.152 -13.08,13.152 z"
       inkscape:connector-curvature="0"
       id="path155" />
    <path
       d="m 124.71,181.73 c 0,-3.637 -1.451,-6.905 -3.81,-9.265 l 353.55,353.55 c 2.36,2.36 3.81,5.628 3.81,9.265 z"
       inkscape:connector-curvature="0"
       id="path157" />
    <path
       d="m 120.9,172.46 c -2.36,-2.36 -5.629,-3.81 -9.265,-3.81 l 353.55,353.55 c 3.636,0 6.905,1.45 9.265,3.81 z"
       inkscape:connector-curvature="0"
       id="path159" />
    <path
       d="M 111.63,168.65 H 54.15 L 407.7,522.2 h 57.48 z"
       inkscape:connector-curvature="0"
       id="path161" />
    <path
       d="m 400.45,168.65 c -7.274,0 -13.152,5.803 -13.152,13.08 l 353.55,353.55 c 0,-7.273 5.879,-13.08 13.152,-13.08 z"
       inkscape:connector-curvature="0"
       id="path163" />
    <path
       d="m 387.29,181.73 c 0,7.274 5.879,13.152 13.152,13.152 l 353.55,353.55 c -7.274,0 -13.152,-5.879 -13.152,-13.152 z"
       inkscape:connector-curvature="0"
       id="path165" />
    <path
       d="m 400.45,194.88 h 57.48 L 811.48,548.43 H 754 z"
       inkscape:connector-curvature="0"
       id="path167" />
    <path
       d="m 457.92,194.88 c 7.274,0 13.08,-5.879 13.08,-13.152 l 353.55,353.55 c 0,7.274 -5.801,13.152 -13.08,13.152 z"
       inkscape:connector-curvature="0"
       id="path169" />
    <path
       d="m 471,181.73 c 0,-3.637 -1.451,-6.905 -3.81,-9.265 l 353.55,353.55 c 2.36,2.36 3.81,5.628 3.81,9.265 z"
       inkscape:connector-curvature="0"
       id="path171" />
    <path
       d="m 467.19,172.46 c -2.36,-2.36 -5.629,-3.81 -9.265,-3.81 l 353.55,353.55 c 3.636,0 6.905,1.45 9.265,3.81 z"
       inkscape:connector-curvature="0"
       id="path173" />
    <path
       d="M 457.92,168.65 H 400.44 L 753.99,522.2 h 57.48 z"
       inkscape:connector-curvature="0"
       id="path175" />
    <path
       d="m 268.47,222.37 c 1.593,0 3.203,0.477 4.486,1.534 l 353.55,353.55 c -1.283,-1.056 -2.893,-1.534 -4.486,-1.534 z"
       inkscape:connector-curvature="0"
       id="path177" />
    <path
       d="m 272.95,223.91 c 0.135,0.111 0.265,0.23 0.39,0.355 l 353.55,353.55 c -0.125,-0.125 -0.255,-0.244 -0.39,-0.355 z"
       inkscape:connector-curvature="0"
       id="path179" />
    <path
       d="m 273.34,224.26 c 1.065,1.065 1.757,2.612 1.757,4.171 l 353.55,353.55 c 0,-1.558 -0.692,-3.105 -1.757,-4.171 z"
       inkscape:connector-curvature="0"
       id="path181" />
    <path
       d="m 275.1,228.43 c 0,1.239 -0.275,2.286 -0.767,4.601 l 353.55,353.55 c 0.492,-2.315 0.767,-3.362 0.767,-4.601 z"
       inkscape:connector-curvature="0"
       id="path183" />
    <path
       d="m 274.33,233.03 c -0.492,2.315 -1.299,5.761 -2.531,10.928 l 353.55,353.55 c 1.232,-5.167 2.039,-8.612 2.531,-10.928 z"
       inkscape:connector-curvature="0"
       id="path185" />
    <path
       d="m 271.8,243.96 c -2.466,10.335 -6.666,27.636 -13.728,56.713 l 353.55,353.55 c 7.06,-29.08 11.262,-46.38 13.728,-56.713 z"
       inkscape:connector-curvature="0"
       id="path187" />
    <path
       d="m 258.04,300.75 c -1.609,5.898 -2.378,11.154 -2.378,13.268 l 353.55,353.55 c 0,-2.114 0.769,-7.369 2.378,-13.268 z"
       inkscape:connector-curvature="0"
       id="path189" />
    <path
       d="m 255.66,314.02 c 0,1.904 0.447,3.254 0.844,3.872 l 353.55,353.55 c -0.398,-0.618 -0.844,-1.968 -0.844,-3.872 z"
       inkscape:connector-curvature="0"
       id="path191" />
    <path
       d="m 256.5,317.89 c 0.148,0.23 0.248,0.374 0.338,0.464 l 353.55,353.55 c -0.09,-0.09 -0.19,-0.234 -0.338,-0.464 z"
       inkscape:connector-curvature="0"
       id="path193" />
    <path
       d="m 256.84,318.35 c 0.151,0.151 0.274,0.15 0.545,0.15 l 353.55,353.55 c -0.271,0 -0.393,0.001 -0.545,-0.15 z"
       inkscape:connector-curvature="0"
       id="path195" />
    <path
       d="m 257.39,318.5 c 1.717,0 1.628,0.179 5.33,-1.572 l 353.55,353.55 c -3.702,1.751 -3.614,1.572 -5.33,1.572 z"
       inkscape:connector-curvature="0"
       id="path197" />
    <path
       d="m 262.72,316.93 c 3.622,-1.714 10.476,-5.388 23.08,-12.155 l 353.55,353.55 c -12.608,6.767 -19.462,10.441 -23.08,12.155 z"
       inkscape:connector-curvature="0"
       id="path199" />
    <path
       d="m 291.05,308.27 -0.038,0.115 353.55,353.55 0.038,-0.115 z"
       inkscape:connector-curvature="0"
       id="path201" />
    <path
       d="m 291.01,308.38 -1.036,7.171 353.55,353.55 1.036,-7.171 z"
       inkscape:connector-curvature="0"
       id="path203" />
    <path
       d="m 288.45,317.93 c -2.59,1.555 -5.04,3.166 -7.593,4.601 l 353.55,353.55 c 2.55,-1.436 5,-3.047 7.593,-4.601 z"
       inkscape:connector-curvature="0"
       id="path205" />
    <path
       d="m 280.85,322.53 c -0.094,0.054 -0.173,0.101 -0.269,0.153 l 353.55,353.55 c 0.096,-0.053 0.174,-0.099 0.269,-0.153 z"
       inkscape:connector-curvature="0"
       id="path207" />
    <path
       d="m 280.58,322.68 c -5.232,3.571 -10.436,6.896 -15.606,10.161 l 353.55,353.55 c 5.171,-3.265 10.374,-6.59 15.606,-10.161 z"
       inkscape:connector-curvature="0"
       id="path209" />
    <path
       d="m 264.98,332.85 c -14.786,9.484 -22.23,13.497 -28.606,13.497 l 353.55,353.55 c 6.372,0 13.82,-4.01 28.606,-13.497 z"
       inkscape:connector-curvature="0"
       id="path211" />
    <path
       d="m 236.37,346.34 c -2.336,0 -4.467,-1.057 -6.069,-2.659 l 353.55,353.55 c 1.602,1.602 3.733,2.659 6.069,2.659 z"
       inkscape:connector-curvature="0"
       id="path213" />
    <path
       d="m 230.3,343.68 c -0.584,-0.584 -1.097,-1.239 -1.524,-1.943 l 353.55,353.55 c 0.427,0.703 0.94,1.359 1.524,1.943 z"
       inkscape:connector-curvature="0"
       id="path215" />
    <path
       d="m 228.78,341.74 c -1.599,-2.634 -2.378,-5.923 -2.378,-9.701 l 353.55,353.55 c 0,3.778 0.779,7.07 2.378,9.701 z"
       inkscape:connector-curvature="0"
       id="path217" />
    <path
       d="m 226.4,332.04 c 0,-3.461 0.071,-5.842 1.725,-12.884 l 353.55,353.55 c -1.654,7.04 -1.725,9.422 -1.725,12.884 z"
       inkscape:connector-curvature="0"
       id="path219" />
    <path
       d="m 228.13,319.16 c 1.653,-7.04 4.933,-19.14 11.427,-43.33 l 353.55,353.55 c -6.495,24.18 -9.774,36.29 -11.427,43.33 z"
       inkscape:connector-curvature="0"
       id="path221" />
    <path
       d="m 239.55,275.83 c 0.005,-0.018 -0.005,-0.02 0,-0.038 l 353.55,353.55 c -0.005,0.018 0.005,0.02 0,0.038 z"
       inkscape:connector-curvature="0"
       id="path223" />
    <path
       d="m 239.55,275.79 c 4.134,-15.712 4.87,-19.301 4.87,-22.393 l 353.55,353.55 c 0,3.092 -0.736,6.681 -4.87,22.393 z"
       inkscape:connector-curvature="0"
       id="path225" />
    <path
       d="m 244.42,253.4 c 0,-1.104 -0.21,-1.493 -0.269,-1.649 l 353.55,353.55 c 0.059,0.156 0.269,0.545 0.269,1.649 z"
       inkscape:connector-curvature="0"
       id="path227" />
    <path
       d="m 244.15,251.75 c -0.847,-0.004 -0.972,-0.095 -3.336,0.998 l 353.55,353.55 c 2.364,-1.092 2.49,-1 3.336,-0.998 z"
       inkscape:connector-curvature="0"
       id="path229" />
    <path
       d="m 240.82,252.75 c -2.513,1.16 -6.947,3.512 -15.11,7.938 l 353.55,353.55 c 8.161,-4.426 12.595,-6.778 15.11,-7.938 z"
       inkscape:connector-curvature="0"
       id="path231" />
    <path
       d="m 220.88,257.58 0.575,-7.746 353.55,353.55 -0.575,7.746 z"
       inkscape:connector-curvature="0"
       id="path233" />
    <path
       d="m 222.87,247.34 c 11.404,-7.649 21.236,-13.763 28.873,-18.02 l 353.55,353.55 c -7.637,4.259 -17.469,10.373 -28.873,18.02 z"
       inkscape:connector-curvature="0"
       id="path235" />
    <path
       d="m 251.75,229.32 c 3.818,-2.129 7.07,-3.82 9.778,-4.985 l 353.55,353.55 c -2.713,1.166 -5.96,2.857 -9.778,4.985 z"
       inkscape:connector-curvature="0"
       id="path237" />
    <path
       d="m 261.52,224.33 c 2.713,-1.166 4.704,-1.956 6.94,-1.956 l 353.55,353.55 c -2.236,0 -4.227,0.79 -6.94,1.956 z"
       inkscape:connector-curvature="0"
       id="path239" />
    <path
       d="m 54.15,241.66 c -7.274,0 -13.152,5.879 -13.152,13.152 l 353.55,353.55 c 0,-7.274 5.879,-13.152 13.152,-13.152 z"
       inkscape:connector-curvature="0"
       id="path241" />
    <path
       d="m 41,254.82 c 0,3.618 1.454,6.871 3.811,9.228 l 353.55,353.55 c -2.357,-2.357 -3.811,-5.61 -3.811,-9.228 z"
       inkscape:connector-curvature="0"
       id="path243" />
    <path
       d="m 44.811,264.04 c 2.382,2.382 5.686,3.848 9.342,3.848 l 353.55,353.55 c -3.656,0 -6.96,-1.466 -9.342,-3.848 z"
       inkscape:connector-curvature="0"
       id="path245" />
    <path
       d="m 54.15,267.89 h 57.48 L 465.18,621.44 H 407.7 z"
       inkscape:connector-curvature="0"
       id="path247" />
    <path
       d="m 111.63,267.89 c 7.274,0 13.08,-5.803 13.08,-13.08 l 353.55,353.55 c 0,7.273 -5.801,13.08 -13.08,13.08 z"
       inkscape:connector-curvature="0"
       id="path249" />
    <path
       d="m 124.71,254.82 c 0,-3.656 -1.466,-6.96 -3.848,-9.341 l 353.55,353.55 c 2.382,2.382 3.848,5.685 3.848,9.341 z"
       inkscape:connector-curvature="0"
       id="path251" />
    <path
       d="m 120.86,245.48 c -2.357,-2.357 -5.61,-3.811 -9.227,-3.811 l 353.55,353.55 c 3.617,0 6.871,1.454 9.227,3.811 z"
       inkscape:connector-curvature="0"
       id="path253" />
    <path
       d="M 111.63,241.66 H 54.15 L 407.7,595.21 h 57.48 z"
       inkscape:connector-curvature="0"
       id="path255" />
    <path
       d="m 400.44,241.66 c -7.274,0 -13.152,5.879 -13.152,13.152 l 353.55,353.55 c 0,-7.274 5.879,-13.152 13.152,-13.152 z"
       inkscape:connector-curvature="0"
       id="path257" />
    <path
       d="m 387.29,254.82 c 0,3.618 1.454,6.871 3.811,9.228 l 353.55,353.55 c -2.357,-2.357 -3.811,-5.61 -3.811,-9.228 z"
       inkscape:connector-curvature="0"
       id="path259" />
    <path
       d="m 391.1,264.04 c 2.382,2.382 5.686,3.848 9.342,3.848 l 353.55,353.55 c -3.656,0 -6.96,-1.466 -9.342,-3.848 z"
       inkscape:connector-curvature="0"
       id="path261" />
    <path
       d="m 400.44,267.89 h 57.48 l 353.55,353.55 h -57.48 z"
       inkscape:connector-curvature="0"
       id="path263" />
    <path
       d="m 457.92,267.89 c 7.274,0 13.08,-5.803 13.08,-13.08 l 353.55,353.55 c 0,7.273 -5.801,13.08 -13.08,13.08 z"
       inkscape:connector-curvature="0"
       id="path265" />
    <path
       d="m 471,254.82 c 0,-3.656 -1.466,-6.96 -3.848,-9.341 l 353.55,353.55 c 2.382,2.382 3.848,5.685 3.848,9.341 z"
       inkscape:connector-curvature="0"
       id="path267" />
    <path
       d="m 467.15,245.48 c -2.357,-2.357 -5.61,-3.811 -9.227,-3.811 l 353.55,353.55 c 3.617,0 6.871,1.454 9.227,3.811 z"
       inkscape:connector-curvature="0"
       id="path269" />
    <path
       d="m 457.92,241.66 h -57.48 l 353.55,353.55 h 57.48 z"
       inkscape:connector-curvature="0"
       id="path271" />
    <path
       d="m 54.15,314.67 c -7.274,0 -13.152,5.879 -13.152,13.152 l 353.55,353.55 c 0,-7.274 5.879,-13.152 13.152,-13.152 z"
       inkscape:connector-curvature="0"
       id="path273" />
    <path
       d="m 41,327.82 c 0,3.727 1.543,7.088 4.03,9.479 l 353.55,353.55 c -2.484,-2.391 -4.03,-5.752 -4.03,-9.479 z"
       inkscape:connector-curvature="0"
       id="path275" />
    <path
       d="m 45.03,337.3 c 2.364,2.276 5.579,3.673 9.125,3.673 l 353.55,353.55 c -3.547,0 -6.762,-1.398 -9.125,-3.673 z"
       inkscape:connector-curvature="0"
       id="path277" />
    <path
       d="m 54.15,340.98 h 57.48 L 465.18,694.53 H 407.7 z"
       inkscape:connector-curvature="0"
       id="path279" />
    <path
       d="m 111.63,340.98 c 7.274,0 13.08,-5.879 13.08,-13.152 l 353.55,353.55 c 0,7.274 -5.801,13.152 -13.08,13.152 z"
       inkscape:connector-curvature="0"
       id="path281" />
    <path
       d="m 124.71,327.82 c 0,-3.656 -1.466,-6.96 -3.848,-9.341 l 353.55,353.55 c 2.382,2.382 3.848,5.685 3.848,9.341 z"
       inkscape:connector-curvature="0"
       id="path283" />
    <path
       d="m 120.86,318.48 c -2.357,-2.357 -5.61,-3.811 -9.227,-3.811 l 353.55,353.55 c 3.617,0 6.871,1.454 9.227,3.811 z"
       inkscape:connector-curvature="0"
       id="path285" />
    <path
       d="M 111.63,314.67 H 54.15 L 407.7,668.22 h 57.48 z"
       inkscape:connector-curvature="0"
       id="path287" />
    <path
       d="m 400.44,314.67 c -7.274,0 -13.152,5.879 -13.152,13.152 l 353.55,353.55 c 0,-7.274 5.879,-13.152 13.152,-13.152 z"
       inkscape:connector-curvature="0"
       id="path289" />
    <path
       d="m 387.29,327.82 c 0,3.637 1.47,6.925 3.849,9.304 l 353.55,353.55 c -2.379,-2.379 -3.849,-5.667 -3.849,-9.304 z"
       inkscape:connector-curvature="0"
       id="path291" />
    <path
       d="m 391.14,337.13 c 2.379,2.379 5.667,3.849 9.304,3.849 l 353.55,353.55 c -3.637,0 -6.925,-1.47 -9.304,-3.849 z"
       inkscape:connector-curvature="0"
       id="path293" />
    <path
       d="m 400.44,340.98 h 57.48 l 353.55,353.55 h -57.48 z"
       inkscape:connector-curvature="0"
       id="path295" />
    <path
       d="m 457.92,340.98 c 7.274,0 13.08,-5.879 13.08,-13.152 l 353.55,353.55 c 0,7.274 -5.801,13.152 -13.08,13.152 z"
       inkscape:connector-curvature="0"
       id="path297" />
    <path
       d="m 471,327.82 c 0,-3.656 -1.466,-6.96 -3.848,-9.341 l 353.55,353.55 c 2.382,2.382 3.848,5.685 3.848,9.341 z"
       inkscape:connector-curvature="0"
       id="path299" />
    <path
       d="m 467.15,318.48 c -2.357,-2.357 -5.61,-3.811 -9.227,-3.811 l 353.55,353.55 c 3.617,0 6.871,1.454 9.227,3.811 z"
       inkscape:connector-curvature="0"
       id="path301" />
    <path
       d="m 457.92,314.67 h -57.48 l 353.55,353.55 h 57.48 z"
       inkscape:connector-curvature="0"
       id="path303" />
    <path
       d="m 179.69,386.88 c -7.274,0 -13.152,5.879 -13.152,13.152 l 353.55,353.55 c 0,-7.274 5.879,-13.152 13.152,-13.152 z"
       inkscape:connector-curvature="0"
       id="path305" />
    <path
       d="m 166.54,400.03 v 57.48 l 353.55,353.55 v -57.48 z"
       inkscape:connector-curvature="0"
       id="path307" />
    <path
       d="m 166.54,457.51 c 0,3.618 1.454,6.871 3.811,9.228 l 353.55,353.55 c -2.357,-2.357 -3.811,-5.61 -3.811,-9.228 z"
       inkscape:connector-curvature="0"
       id="path309" />
    <path
       d="m 170.35,466.73 c 2.382,2.382 5.686,3.848 9.342,3.848 l 353.55,353.55 c -3.656,0 -6.96,-1.466 -9.342,-3.848 z"
       inkscape:connector-curvature="0"
       id="path311" />
    <path
       d="m 179.69,470.58 c 7.274,0 13.152,-5.803 13.152,-13.08 l 353.55,353.55 c 0,7.273 -5.879,13.08 -13.152,13.08 z"
       inkscape:connector-curvature="0"
       id="path313" />
    <path
       d="m 192.84,457.51 v -57.48 l 353.55,353.55 v 57.48 z"
       inkscape:connector-curvature="0"
       id="path315" />
    <path
       d="m 192.84,400.03 c 0,-3.612 -1.449,-6.88 -3.799,-9.255 l 353.55,353.55 c 2.35,2.375 3.799,5.643 3.799,9.255 z"
       inkscape:connector-curvature="0"
       id="path317" />
    <path
       d="m 189.04,390.77 c -2.383,-2.408 -5.691,-3.898 -9.353,-3.898 l 353.55,353.55 c 3.662,0 6.97,1.49 9.353,3.898 z"
       inkscape:connector-curvature="0"
       id="path319" />
    <path
       d="m 252.7,386.88 c -7.274,0 -13.08,5.879 -13.08,13.152 l 353.55,353.55 c 0,-7.274 5.801,-13.152 13.08,-13.152 z"
       inkscape:connector-curvature="0"
       id="path321" />
    <path
       d="m 239.62,400.03 v 57.48 l 353.55,353.55 v -57.48 z"
       inkscape:connector-curvature="0"
       id="path323" />
    <path
       d="m 239.62,457.51 c 0,3.637 1.451,6.905 3.81,9.265 l 353.55,353.55 c -2.36,-2.36 -3.81,-5.628 -3.81,-9.265 z"
       inkscape:connector-curvature="0"
       id="path325" />
    <path
       d="m 243.43,466.77 c 2.36,2.36 5.629,3.81 9.265,3.81 l 353.55,353.55 c -3.636,0 -6.905,-1.45 -9.265,-3.81 z"
       inkscape:connector-curvature="0"
       id="path327" />
    <path
       d="m 252.7,470.58 c 7.274,0 13.152,-5.803 13.152,-13.08 l 353.55,353.55 c 0,7.273 -5.879,13.08 -13.152,13.08 z"
       inkscape:connector-curvature="0"
       id="path329" />
    <path
       d="M 265.85,457.51 V 400.03 L 619.4,753.58 v 57.48 z"
       inkscape:connector-curvature="0"
       id="path331" />
    <path
       d="m 265.85,400.03 c 0,-7.274 -5.879,-13.152 -13.152,-13.152 l 353.55,353.55 c 7.274,0 13.152,5.879 13.152,13.152 z"
       inkscape:connector-curvature="0"
       id="path333" />
    <path
       d="m 325.74,386.88 c -7.274,0 -13.152,5.879 -13.152,13.152 l 353.55,353.55 c 0,-7.274 5.879,-13.152 13.152,-13.152 z"
       inkscape:connector-curvature="0"
       id="path335" />
    <path
       d="m 312.59,400.03 v 57.48 l 353.55,353.55 v -57.48 z"
       inkscape:connector-curvature="0"
       id="path337" />
    <path
       d="m 312.59,457.51 c 0,3.618 1.454,6.871 3.811,9.228 l 353.55,353.55 c -2.357,-2.357 -3.811,-5.61 -3.811,-9.228 z"
       inkscape:connector-curvature="0"
       id="path339" />
    <path
       d="m 316.4,466.73 c 2.382,2.382 5.686,3.848 9.342,3.848 l 353.55,353.55 c -3.656,0 -6.96,-1.466 -9.342,-3.848 z"
       inkscape:connector-curvature="0"
       id="path341" />
    <path
       d="m 325.74,470.58 c 7.274,0 13.08,-5.803 13.08,-13.08 l 353.55,353.55 c 0,7.273 -5.801,13.08 -13.08,13.08 z"
       inkscape:connector-curvature="0"
       id="path343" />
    <path
       d="m 338.82,457.51 v -57.48 l 353.55,353.55 v 57.48 z"
       inkscape:connector-curvature="0"
       id="path345" />
    <path
       d="m 338.82,400.03 c 0,-3.656 -1.466,-6.96 -3.848,-9.341 l 353.55,353.55 c 2.382,2.382 3.848,5.685 3.848,9.341 z"
       inkscape:connector-curvature="0"
       id="path347" />
    <path
       d="m 334.97,390.69 c -2.357,-2.357 -5.61,-3.811 -9.227,-3.811 l 353.55,353.55 c 3.617,0 6.871,1.454 9.227,3.811 z"
       inkscape:connector-curvature="0"
       id="path349" />
  </g>
  <path
     d="m 179.69,41.42 c -7.274,0 -13.152,5.879 -13.152,13.152 v 57.48 c 0,7.274 5.879,13.08 13.152,13.08 7.274,0 13.152,-5.803 13.152,-13.08 v -57.48 c 0,-7.274 -5.879,-13.152 -13.152,-13.152 m 73.01,0 c -7.274,0 -13.08,5.879 -13.08,13.152 v 57.48 c 0,7.274 5.803,13.08 13.08,13.08 7.274,0 13.152,-5.803 13.152,-13.08 v -57.48 c 0,-7.274 -5.879,-13.152 -13.152,-13.152 m 73.04,0 c -7.274,0 -13.152,5.879 -13.152,13.152 v 57.48 c 0,7.274 5.879,13.08 13.152,13.08 7.274,0 13.08,-5.803 13.08,-13.08 v -57.48 c 0,-7.274 -5.803,-13.152 -13.08,-13.152 M 178.46,144.04 c -20,0 -36.08,16.16 -36.08,36.16 v 149.32 c 0,20 16.09,36.12 36.08,36.12 h 148.51 c 20,0 36.08,-16.12 36.08,-36.12 V 180.2 c 0,-20 -16.09,-36.16 -36.08,-36.16 H 178.46 m 98.81355,21.5879 a 3.275442,3.275442 0 0 1 3.06755,2.0706 c 0.498,1.244 1.018,2.266 1.572,3.374 a 3.275442,3.275442 0 0 1 0.0767,0.19172 c 2.194,5.21 2.371,5.239 4.065,8.626 0.688,1.048 1.964,3.123 3.605,6.404 a 3.275442,3.275442 0 0 1 -0.95861,4.02616 c -9.217,7.05 -9.853,7.684 -17.447,14.495 a 3.275442,3.275442 0 0 1 -0.76689,0.69019 3.275442,3.275442 0 0 1 -0.11497,0.0767 3.275442,3.275442 0 0 1 -0.19172,0.0767 3.275442,3.275442 0 0 1 -0.11497,0.0767 3.275442,3.275442 0 0 1 -0.15338,0.0383 3.275442,3.275442 0 0 1 -0.3451,0.11498 3.275442,3.275442 0 0 1 -0.95861,0.11497 3.275442,3.275442 0 0 1 -0.11497,0 3.275442,3.275442 0 0 1 -0.23006,-0.0383 3.275442,3.275442 0 0 1 -0.38344,-0.0767 3.275442,3.275442 0 0 1 -0.0383,0 3.275442,3.275442 0 0 1 -0.19173,-0.0767 3.275442,3.275442 0 0 1 -0.11496,-0.0383 3.275442,3.275442 0 0 1 -0.57517,-0.26841 3.275442,3.275442 0 0 1 -0.15337,-0.11497 3.275442,3.275442 0 0 1 -0.11498,-0.11497 3.275442,3.275442 0 0 1 -0.26841,-0.19172 3.275442,3.275442 0 0 1 -0.11497,-0.11497 3.275442,3.275442 0 0 1 -0.0767,-0.15338 3.275442,3.275442 0 0 1 -0.49848,-0.6902 3.275442,3.275442 0 0 1 -0.0383,-0.11497 c -0.042,-0.061 -0.036,-0.093 -0.077,-0.153 -5.755,-8.425 -8.524,-13.287 -10.507,-19.517 a 3.275442,3.275442 0 0 1 1.61046,-3.94947 c 0.717,-0.358 1.73,-1.086 2.838,-1.918 a 3.275442,3.275442 0 0 1 0.15338,-0.0767 c 2.445,-1.631 4.301,-3.02 5.56,-4.03 2.811,-2.249 5.145,-4.03 5.866,-4.755 1.345,-1.345 2.923,-2.285 4.141,-3.259 a 3.275442,3.275442 0 0 1 1.68715,-0.6902 3.275442,3.275442 0 0 1 0.30676,-0.0383 m -223.12,3.03 c -7.274,0 -13.152,5.803 -13.152,13.08 0,7.274 5.879,13.152 13.152,13.152 h 57.48 c 7.274,0 13.08,-5.879 13.08,-13.152 0,-7.274 -5.803,-13.08 -13.08,-13.08 h -57.48 m 346.29,0 c -7.274,0 -13.152,5.803 -13.152,13.08 0,7.274 5.879,13.152 13.152,13.152 h 57.48 c 7.274,0 13.08,-5.879 13.08,-13.152 0,-7.274 -5.803,-13.08 -13.08,-13.08 h -57.48 m -131.98,53.72 c 1.593,0 3.203,0.477 4.486,1.534 1.283,1.056 2.147,2.784 2.147,4.525 0,1.239 -0.275,2.286 -0.767,4.601 -0.492,2.315 -1.299,5.761 -2.531,10.928 -2.466,10.335 -6.666,27.636 -13.728,56.713 a 3.275442,3.275442 0 0 1 -0.0383,0.0767 c -1.609,5.898 -2.378,11.154 -2.378,13.268 0,1.904 0.447,3.254 0.844,3.872 0.396,0.617 0.45,0.614 0.882,0.614 1.717,0 1.628,0.179 5.33,-1.572 3.622,-1.714 10.476,-5.388 23.08,-12.155 a 3.275442,3.275442 0 0 1 0.30676,-0.23007 3.275442,3.275442 0 0 1 0.84358,-0.3451 3.275442,3.275442 0 0 1 0.15337,-0.0383 3.275442,3.275442 0 0 1 0.19173,-0.0383 3.275442,3.275442 0 0 1 0.65185,-0.0767 3.275442,3.275442 0 0 1 0.15338,0 3.275442,3.275442 0 0 1 0.15338,0 3.275442,3.275442 0 0 1 0.3451,0.11497 3.275442,3.275442 0 0 1 0.30675,0.0767 3.275442,3.275442 0 0 1 0.0383,0 3.275442,3.275442 0 0 1 0.26841,0.11497 3.275442,3.275442 0 0 1 0.46014,0.23007 3.275442,3.275442 0 0 1 1.41874,2.26232 3.275442,3.275442 0 0 1 0.0383,0.15338 3.275442,3.275442 0 0 1 0,0.19172 3.275442,3.275442 0 0 1 -0.0383,0.80523 3.275442,3.275442 0 0 1 -0.0383,0.26841 l -0.038,0.115 -1.036,7.171 a 3.275442,3.275442 0 0 1 -1.53377,2.37736 c -2.59,1.555 -5.04,3.166 -7.593,4.601 -0.094,0.054 -0.173,0.101 -0.269,0.153 -5.232,3.571 -10.436,6.896 -15.606,10.161 -14.786,9.484 -22.23,13.497 -28.606,13.497 -3.187,0 -5.993,-1.967 -7.593,-4.601 -1.599,-2.634 -2.378,-5.923 -2.378,-9.701 0,-3.461 0.071,-5.842 1.725,-12.884 1.653,-7.04 4.933,-19.14 11.427,-43.33 0.005,-0.018 -0.005,-0.02 0,-0.038 4.134,-15.712 4.87,-19.301 4.87,-22.393 0,-1.104 -0.21,-1.493 -0.269,-1.649 -0.847,-0.004 -0.972,-0.095 -3.336,0.998 -2.513,1.16 -6.947,3.512 -15.11,7.938 a 3.275442,3.275442 0 0 1 -4.8314,-3.1059 l 0.575,-7.746 a 3.275442,3.275442 0 0 1 1.41874,-2.49239 c 11.404,-7.649 21.236,-13.763 28.873,-18.02 3.818,-2.129 7.07,-3.82 9.778,-4.985 2.713,-1.166 4.704,-1.956 6.94,-1.956 m -214.31,19.288 c -7.274,0 -13.152,5.879 -13.152,13.152 0,7.274 5.879,13.08 13.152,13.08 h 57.48 c 7.274,0 13.08,-5.803 13.08,-13.08 0,-7.274 -5.803,-13.152 -13.08,-13.152 h -57.48 m 346.29,0 c -7.274,0 -13.152,5.879 -13.152,13.152 0,7.274 5.879,13.08 13.152,13.08 h 57.48 c 7.274,0 13.08,-5.803 13.08,-13.08 0,-7.274 -5.803,-13.152 -13.08,-13.152 h -57.48 m -346.29,73.01 c -7.274,0 -13.152,5.879 -13.152,13.152 0,7.274 5.879,13.152 13.152,13.152 h 57.48 c 7.274,0 13.08,-5.879 13.08,-13.152 0,-7.274 -5.803,-13.152 -13.08,-13.152 h -57.48 m 346.29,0 c -7.274,0 -13.152,5.879 -13.152,13.152 0,7.274 5.879,13.152 13.152,13.152 h 57.48 c 7.274,0 13.08,-5.879 13.08,-13.152 0,-7.274 -5.803,-13.152 -13.08,-13.152 h -57.48 m -220.75,72.2 c -7.274,0 -13.152,5.879 -13.152,13.152 v 57.48 c 0,7.274 5.879,13.08 13.152,13.08 7.274,0 13.152,-5.803 13.152,-13.08 v -57.48 c 0,-7.274 -5.879,-13.152 -13.152,-13.152 m 73.01,0 c -7.274,0 -13.08,5.879 -13.08,13.152 v 57.48 c 0,7.274 5.803,13.08 13.08,13.08 7.274,0 13.152,-5.803 13.152,-13.08 v -57.48 c 0,-7.274 -5.879,-13.152 -13.152,-13.152 m 73.04,0 c -7.274,0 -13.152,5.879 -13.152,13.152 v 57.48 c 0,7.274 5.879,13.08 13.152,13.08 7.274,0 13.08,-5.803 13.08,-13.08 v -57.48 c 0,-7.274 -5.803,-13.152 -13.08,-13.152"
     inkscape:connector-curvature="0"
     id="path351"
     style="fill:#ffffff;fill-rule:evenodd" />
</svg>
