<?xml version="1.0" encoding="UTF-8" standalone="no"?>
<!-- Created with Inkscape (http://www.inkscape.org/) -->

<svg
   xmlns:dc="http://purl.org/dc/elements/1.1/"
   xmlns:cc="http://creativecommons.org/ns#"
   xmlns:rdf="http://www.w3.org/1999/02/22-rdf-syntax-ns#"
   xmlns:svg="http://www.w3.org/2000/svg"
   xmlns="http://www.w3.org/2000/svg"
   xmlns:inkscape="http://www.inkscape.org/namespaces/inkscape"
   version="1.1"
   width="100%"
   height="100%"
   viewBox="0 0 512 512"
   id="svg2">
  <metadata
     id="metadata10">
    <rdf:RDF>
      <cc:Work
         rdf:about="">
        <dc:format>image/svg+xml</dc:format>
        <dc:type
           rdf:resource="http://purl.org/dc/dcmitype/StillImage" />
        <dc:title />
      </cc:Work>
    </rdf:RDF>
  </metadata>
  <defs
     id="defs8">
    <clipPath
       id="clipPath3405">
      <path
         d="M 26,0 C 11.602648,0 0,11.602648 0,26 l 0,460 c 0,14.39735 11.602648,26 26,26 l 460,0 c 14.39735,0 26,-11.60265 26,-26 L 512,26 C 512,11.602648 500.39735,0 486,0 L 26,0 z"
         inkscape:connector-curvature="0"
         id="path3407"
         style="fill:none;fill-opacity:1;stroke:none" />
    </clipPath>
  </defs>
  <path
     d="M 26,0 C 11.602648,0 0,11.602648 0,26 l 0,460 c 0,14.39735 11.602648,26 26,26 l 460,0 c 14.39735,0 26,-11.60265 26,-26 L 512,26 C 512,11.602648 500.39735,0 486,0 L 26,0 z"
     inkscape:connector-curvature="0"
     id="rect2986"
     style="fill:none;fill-opacity:1;stroke:none" />
  <path
     d="M 0,255.5 0,486 c 0,14.39735 11.602648,26 26,26 l 230.5,0 0,-256.5 -256.5,0 z"
     inkscape:connector-curvature="0"
     id="path3186"
     style="font-size:medium;font-style:normal;font-variant:normal;font-weight:normal;font-stretch:normal;text-indent:0;text-align:start;text-decoration:none;line-height:normal;letter-spacing:normal;word-spacing:normal;text-transform:none;direction:ltr;block-progression:tb;writing-mode:lr-tb;text-anchor:start;baseline-shift:baseline;color:#000000;fill:none;fill-opacity:1;stroke:none;stroke-width:1px;marker:none;visibility:visible;display:inline;overflow:visible;enable-background:accumulate;font-family:Sans;-inkscape-font-specification:Sans" />
  <g
     clip-path="url(#clipPath3405)"
     id="g3234"
     style="opacity:0.0;fill:#000000;fill-opacity:1;stroke:none">
    <path
       d="m 41.38163,41 0,183.86777 388.90873,388.90873 0,-183.86777 z"
       inkscape:connector-curvature="0"
       id="path3236"
       style="fill:#000000" />
    <path
       d="m 41.38163,224.86777 184.18571,0 388.90873,388.90873 -184.18571,0 z"
       inkscape:connector-curvature="0"
       id="path3238"
       style="fill:#000000" />
    <path
       d="m 225.56734,224.86777 0,-183.86777 388.90873,388.90873 0,183.86777 z"
       inkscape:connector-curvature="0"
       id="path3240"
       style="fill:#000000" />
    <path
       d="m 225.56734,41 -184.18571,0 388.90873,388.90873 184.18571,0 z"
       inkscape:connector-curvature="0"
       id="path3242"
       style="fill:#000000" />
    <path
       d="m 286.4326,41 0,183.86777 388.90873,388.90873 0,-183.86777 z"
       inkscape:connector-curvature="0"
       id="path3244"
       style="fill:#000000" />
    <path
       d="m 286.4326,224.86777 184.18577,0 388.90873,388.90873 -184.18577,0 z"
       inkscape:connector-curvature="0"
       id="path3246"
       style="fill:#000000" />
    <path
       d="m 470.61837,224.86777 0,-183.86777 388.90873,388.90873 0,183.86777 z"
       inkscape:connector-curvature="0"
       id="path3248"
       style="fill:#000000" />
    <path
       d="m 470.61837,41 -184.18577,0 388.90873,388.90873 184.18577,0 z"
       inkscape:connector-curvature="0"
       id="path3250"
       style="fill:#000000" />
    <path
       d="m 85.51993,85.074839 95.90896,0 388.90873,388.908731 -95.90896,0 z"
       inkscape:connector-curvature="0"
       id="path3252"
       style="fill:#000000" />
    <path
       d="m 181.42889,85.074839 0,95.718091 388.90873,388.90873 0,-95.71809 z"
       inkscape:connector-curvature="0"
       id="path3254"
       style="fill:#000000" />
    <path
       d="m 181.42889,180.79293 -95.90896,0 388.90873,388.90873 95.90896,0 z"
       inkscape:connector-curvature="0"
       id="path3256"
       style="fill:#000000" />
    <path
       d="m 85.51993,180.79293 0,-95.718091 388.90873,388.908731 0,95.71809 z"
       inkscape:connector-curvature="0"
       id="path3258"
       style="fill:#000000" />
    <path
       d="m 330.57104,85.074839 95.9089,0 388.90873,388.908731 -95.9089,0 z"
       inkscape:connector-curvature="0"
       id="path3260"
       style="fill:#000000" />
    <path
       d="m 426.47994,85.074839 0,95.718091 388.90873,388.90873 0,-95.71809 z"
       inkscape:connector-curvature="0"
       id="path3262"
       style="fill:#000000" />
    <path
       d="m 426.47994,180.79293 -95.9089,0 388.90873,388.90873 95.9089,0 z"
       inkscape:connector-curvature="0"
       id="path3264"
       style="fill:#000000" />
    <path
       d="m 330.57104,180.79293 0,-95.718091 388.90873,388.908731 0,95.71809 z"
       inkscape:connector-curvature="0"
       id="path3266"
       style="fill:#000000" />
    <path
       d="m 41.38163,287.19583 0,183.80417 388.90873,388.90873 0,-183.80417 z"
       inkscape:connector-curvature="0"
       id="path3268"
       style="fill:#000000" />
    <path
       d="m 41.38163,471 184.18571,0 388.90873,388.90873 -184.18571,0 z"
       inkscape:connector-curvature="0"
       id="path3270"
       style="fill:#000000" />
    <path
       d="m 225.56734,471 0,-183.80417 388.90873,388.90873 0,183.80417 z"
       inkscape:connector-curvature="0"
       id="path3272"
       style="fill:#000000" />
    <path
       d="m 225.56734,287.19583 -184.18571,0 388.90873,388.90873 184.18571,0 z"
       inkscape:connector-curvature="0"
       id="path3274"
       style="fill:#000000" />
    <path
       d="m 286.4326,287.19583 0,183.80417 388.90873,388.90873 0,-183.80417 z"
       inkscape:connector-curvature="0"
       id="path3276"
       style="fill:#000000" />
    <path
       d="m 286.4326,471 184.18577,0 388.90873,388.90873 -184.18577,0 z"
       inkscape:connector-curvature="0"
       id="path3278"
       style="fill:#000000" />
    <path
       d="m 470.61837,471 0,-183.80417 388.90873,388.90873 0,183.80417 z"
       inkscape:connector-curvature="0"
       id="path3280"
       style="fill:#000000" />
    <path
       d="m 470.61837,287.19583 -184.18577,0 388.90873,388.90873 184.18577,0 z"
       inkscape:connector-curvature="0"
       id="path3282"
       style="fill:#000000" />
    <path
       d="m 85.51993,331.27067 95.90896,0 388.90873,388.90873 -95.90896,0 z"
       inkscape:connector-curvature="0"
       id="path3284"
       style="fill:#000000" />
    <path
       d="m 181.42889,331.27067 0,95.65449 388.90873,388.90873 0,-95.65449 z"
       inkscape:connector-curvature="0"
       id="path3286"
       style="fill:#000000" />
    <path
       d="m 181.42889,426.92516 -95.90896,0 388.90873,388.90873 95.90896,0 z"
       inkscape:connector-curvature="0"
       id="path3288"
       style="fill:#000000" />
    <path
       d="m 85.51993,426.92516 0,-95.65449 388.90873,388.90873 0,95.65449 z"
       inkscape:connector-curvature="0"
       id="path3290"
       style="fill:#000000" />
    <path
       d="m 330.57104,331.27067 95.9089,0 388.90873,388.90873 -95.9089,0 z"
       inkscape:connector-curvature="0"
       id="path3292"
       style="fill:#000000" />
    <path
       d="m 426.47994,331.27067 0,95.65449 388.90873,388.90873 0,-95.65449 z"
       inkscape:connector-curvature="0"
       id="path3294"
       style="fill:#000000" />
    <path
       d="m 426.47994,426.92516 -95.9089,0 388.90873,388.90873 95.9089,0 z"
       inkscape:connector-curvature="0"
       id="path3296"
       style="fill:#000000" />
    <path
       d="m 330.57104,426.92516 0,-95.65449 388.90873,388.90873 0,95.65449 z"
       inkscape:connector-curvature="0"
       id="path3298"
       style="fill:#000000" />
  </g>
  <path
     d="m 41.38163,41 0,183.86777 184.18571,0 0,-183.86777 -184.18571,0 z m 245.05097,0 0,183.86777 184.18577,0 0,-183.86777 -184.18577,0 z m -200.91267,44.074839 95.90896,0 0,95.718091 -95.90896,0 0,-95.718091 z m 245.05111,0 95.9089,0 0,95.718091 -95.9089,0 0,-95.718091 z M 41.38163,287.19583 l 0,183.80417 184.18571,0 0,-183.80417 -184.18571,0 z m 245.05097,0 0,183.80417 184.18577,0 0,-183.80417 -184.18577,0 z m -200.91267,44.07484 95.90896,0 0,95.65449 -95.90896,0 0,-95.65449 z m 245.05111,0 95.9089,0 0,95.65449 -95.9089,0 0,-95.65449 z"
     inkscape:connector-curvature="0"
     id="path3140"
     style="fill:#ffffff;fill-opacity:1;stroke:none" />
</svg>
