<?xml version="1.0" encoding="UTF-8" standalone="no"?>
<!-- Created with Inkscape (http://www.inkscape.org/) -->

<svg
   xmlns:dc="http://purl.org/dc/elements/1.1/"
   xmlns:cc="http://creativecommons.org/ns#"
   xmlns:rdf="http://www.w3.org/1999/02/22-rdf-syntax-ns#"
   xmlns:svg="http://www.w3.org/2000/svg"
   xmlns="http://www.w3.org/2000/svg"
   xmlns:inkscape="http://www.inkscape.org/namespaces/inkscape"
   version="1.1"
   width="100%"
   height="100%"
   viewBox="0 0 512 512"
   id="svg2">
  <metadata
     id="metadata10">
    <rdf:RDF>
      <cc:Work
         rdf:about="">
        <dc:format>image/svg+xml</dc:format>
        <dc:type
           rdf:resource="http://purl.org/dc/dcmitype/StillImage" />
        <dc:title />
      </cc:Work>
    </rdf:RDF>
  </metadata>
  <defs
     id="defs8">
    <clipPath
       id="clipPath3987">
      <path
         d="M 26,0 C 11.602648,0 0,11.602648 0,26 l 0,460 c 0,14.39735 11.602648,26 26,26 l 460,0 c 14.39735,0 26,-11.60265 26,-26 L 512,26 C 512,11.602648 500.39735,0 486,0 L 26,0 z"
         inkscape:connector-curvature="0"
         id="path3989"
         style="fill:none;fill-opacity:1;stroke:none" />
    </clipPath>
  </defs>
  <path
     d="M 26,0 C 11.602648,0 0,11.602648 0,26 l 0,460 c 0,14.39735 11.602648,26 26,26 l 460,0 c 14.39735,0 26,-11.60265 26,-26 L 512,26 C 512,11.602648 500.39735,0 486,0 L 26,0 z"
     inkscape:connector-curvature="0"
     id="rect2986"
     style="fill:none;fill-opacity:1;stroke:none" />
  <g
     transform="translate(-1345.1841,-4.7905704)"
     id="g65"
     style="line-height:125%;letter-spacing:0;word-spacing:0;font-family:Gentium Book Basic">
  </g>
  <g
     clip-path="url(#clipPath3987)"
     id="g3537"
     style="opacity:0.0;fill:#000000">
    <path
       d="m 416.99742,41 c -0.56291,0 -1.1287,0.232631 -1.52647,0.628966 L 804.37968,430.5377 c 0.39777,-0.39634 0.96356,-0.62897 1.52647,-0.62897 z"
       inkscape:connector-curvature="0"
       id="path3539"
       style="fill:#000000" />
    <path
       d="M 415.47095,41.628966 393.57203,63.572401 782.48076,452.48113 804.37968,430.5377 z"
       inkscape:connector-curvature="0"
       id="path3541"
       style="fill:#000000" />
    <path
       d="m 393.57203,63.572401 -7.80893,-7.762988 388.90873,388.908727 7.80893,7.76299 z"
       inkscape:connector-curvature="0"
       id="path3543"
       style="fill:#000000" />
    <path
       d="m 385.7631,55.809413 c -1.41733,-1.413018 -3.62158,-1.634162 -5.29595,-0.538498 L 769.37588,444.17964 c 1.67437,-1.09566 3.87862,-0.87452 5.29595,0.5385 z"
       inkscape:connector-curvature="0"
       id="path3545"
       style="fill:#000000" />
    <path
       d="M 380.46715,55.270915 318.18806,96.107733 707.09679,485.01646 769.37588,444.17964 z"
       inkscape:connector-curvature="0"
       id="path3547"
       style="fill:#000000" />
    <path
       d="m 318.18806,96.107733 c -0.10914,0.06606 -0.2111,0.145035 -0.31449,0.224015 L 706.7823,485.24048 c 0.10339,-0.079 0.20535,-0.15796 0.31449,-0.22402 z"
       inkscape:connector-curvature="0"
       id="path3549"
       style="fill:#000000" />
    <path
       d="M 317.87357,96.331748 C 310.38055,92.180287 302.54002,88.580249 294.31464,85.606304 L 683.22337,474.51503 c 8.22538,2.97395 16.06591,6.57399 23.55893,10.72545 z"
       inkscape:connector-curvature="0"
       id="path3551"
       style="fill:#000000" />
    <path
       d="m 294.31464,85.606304 c -0.57152,-0.203912 -1.21341,-0.153652 -1.75047,0.134983 L 681.4729,474.65002 c 0.53706,-0.28864 1.17895,-0.3389 1.75047,-0.13499 z"
       inkscape:connector-curvature="0"
       id="path3553"
       style="fill:#000000" />
    <path
       d="m 292.56417,85.741287 c -0.53132,0.291507 -0.90324,0.798413 -1.03248,1.391479 L 680.44042,476.0415 c 0.12924,-0.59307 0.50116,-1.09998 1.03248,-1.39148 z"
       inkscape:connector-curvature="0"
       id="path3555"
       style="fill:#000000" />
    <path
       d="m 291.53169,87.132766 -4.44297,20.103924 388.90873,388.90873 4.44297,-20.10392 z"
       inkscape:connector-curvature="0"
       id="path3557"
       style="fill:#000000" />
    <path
       d="m 287.08872,107.23669 c 18.22633,7.14412 34.65633,18.02794 48.32227,31.69388 L 724.31972,527.8393 c -13.66594,-13.66594 -30.09594,-24.54976 -48.32227,-31.69388 z"
       inkscape:connector-curvature="0"
       id="path3559"
       style="fill:#000000" />
    <path
       d="m 335.41099,138.93057 c 25.47198,25.47198 41.34124,60.60939 41.34124,99.2114 L 765.66096,627.0507 c 0,-38.60201 -15.86926,-73.73942 -41.34124,-99.2114 z"
       inkscape:connector-curvature="0"
       id="path3561"
       style="fill:#000000" />
    <path
       d="m 376.75223,238.14197 c 0,77.64423 -63.25557,140.91416 -140.05253,140.91416 l 388.90873,388.90873 c 76.79696,0 140.05253,-63.26993 140.05253,-140.91416 z"
       inkscape:connector-curvature="0"
       id="path3563"
       style="fill:#000000" />
    <path
       d="m 236.6997,379.05613 c -38.49323,0 -73.38012,-15.67796 -98.70776,-41.0056 l 388.90873,388.90873 c 25.32764,25.32764 60.21453,41.0056 98.70776,41.0056 z"
       inkscape:connector-curvature="0"
       id="path3565"
       style="fill:#000000" />
    <path
       d="M 137.99194,338.05053 C 124.01469,324.07329 112.94869,307.15727 105.7944,288.31562 l 388.90873,388.90873 c 7.15429,18.84165 18.22029,35.75767 32.19754,49.73491 z"
       inkscape:connector-curvature="0"
       id="path3567"
       style="fill:#000000" />
    <path
       d="m 105.7944,288.31562 -19.744903,5.47545 388.908733,388.90873 19.7449,-5.47545 z"
       inkscape:connector-curvature="0"
       id="path3569"
       style="fill:#000000" />
    <path
       d="m 86.049497,293.79107 c -0.5744,0.1594 -1.0282,0.50547 -1.3011,1.03248 L 473.65713,683.73228 c 0.2729,-0.52701 0.7267,-0.87308 1.3011,-1.03248 z"
       inkscape:connector-curvature="0"
       id="path3571"
       style="fill:#000000" />
    <path
       d="m 84.748397,294.82355 c -0.267,0.52127 -0.2929,1.15311 -0.09,1.70596 L 473.56713,685.43824 c -0.2029,-0.55285 -0.177,-1.18469 0.09,-1.70596 z"
       inkscape:connector-curvature="0"
       id="path3573"
       style="fill:#000000" />
    <path
       d="m 84.658397,296.52951 c 3.0357,8.24979 6.7104,16.17936 10.9494,23.69392 L 484.51653,709.13216 c -4.239,-7.51456 -7.9137,-15.44413 -10.9494,-23.69392 z"
       inkscape:connector-curvature="0"
       id="path3575"
       style="fill:#000000" />
    <path
       d="m 95.607797,320.22343 -38.0983,62.78025 388.908733,388.90873 38.0983,-62.78025 z"
       inkscape:connector-curvature="0"
       id="path3577"
       style="fill:#000000" />
    <path
       d="m 57.509497,383.00368 c -1.0153,1.65427 -0.7927,3.82693 0.583,5.20548 L 447.00123,777.11789 c -1.3757,-1.37855 -1.5983,-3.55121 -0.583,-5.20548 z"
       inkscape:connector-curvature="0"
       id="path3579"
       style="fill:#000000" />
    <path
       d="m 58.092497,388.20916 5.385,5.38498 388.908733,388.90873 -5.385,-5.38498 z"
       inkscape:connector-curvature="0"
       id="path3581"
       style="fill:#000000" />
    <path
       d="m 63.477497,393.59414 -21.2714,21.31591 388.908733,388.90873 21.2714,-21.31591 z"
       inkscape:connector-curvature="0"
       id="path3583"
       style="fill:#000000" />
    <path
       d="m 42.206097,414.91005 c -0.822879,0.82567 -0.8229,2.18407 -6.4e-5,3.00691 L 431.11476,806.82569 c -0.82283,-0.82284 -0.82281,-2.18124 7e-5,-3.00691 z"
       inkscape:connector-curvature="0"
       id="path3585"
       style="fill:#000000" />
    <path
       d="m 42.206033,417.91696 c 2.2e-5,2e-5 4.3e-5,4e-5 6.4e-5,6e-5 L 431.11483,806.82575 c -2e-5,-2e-5 -5e-5,-4e-5 -7e-5,-6e-5 z"
       inkscape:connector-curvature="0"
       id="path3587"
       style="fill:#000000" />
    <path
       d="m 42.206097,417.91702 15.7959,15.75143 388.908733,388.90873 -15.7959,-15.75143 z"
       inkscape:connector-curvature="0"
       id="path3589"
       style="fill:#000000" />
    <path
       d="m 58.001997,433.66845 c 9.04e-4,9.1e-4 0.0018,0.002 0.0027,0.003 L 446.91344,822.5799 c -9e-4,-9.1e-4 -0.002,-0.002 -0.003,-0.003 z"
       inkscape:connector-curvature="0"
       id="path3591"
       style="fill:#000000" />
    <path
       d="m 58.004711,433.67117 c 0.82584,0.82584 2.127798,0.82493 2.959786,-0.003 L 449.87323,822.57718 c -0.83199,0.82765 -2.13395,0.82856 -2.95979,0.003 z"
       inkscape:connector-curvature="0"
       id="path3593"
       style="fill:#000000" />
    <path
       d="m 60.964497,433.66845 21.3159,-21.27139 388.908733,388.90873 -21.3159,21.27139 z"
       inkscape:connector-curvature="0"
       id="path3595"
       style="fill:#000000" />
    <path
       d="m 82.280397,412.39706 8.4364,8.43646 388.908733,388.90873 -8.4364,-8.43646 z"
       inkscape:connector-curvature="0"
       id="path3597"
       style="fill:#000000" />
    <path
       d="m 90.716797,420.83352 c 1.420201,1.4159 3.6245,1.63704 5.296001,0.5385 L 484.92153,810.28075 c -1.6715,1.09854 -3.8758,0.8774 -5.296,-0.5385 z"
       inkscape:connector-curvature="0"
       id="path3599"
       style="fill:#000000" />
    <path
       d="M 96.012798,421.37202 156.5543,381.70267 545.46303,770.6114 484.92153,810.28075 z"
       inkscape:connector-curvature="0"
       id="path3601"
       style="fill:#000000" />
    <path
       d="m 156.5543,381.70267 c 12.6167,7.31065 26.2184,12.92395 40.4807,16.69344 l 388.90873,388.90873 c -14.2623,-3.76949 -27.864,-9.38279 -40.4807,-16.69344 z"
       inkscape:connector-curvature="0"
       id="path3603"
       style="fill:#000000" />
    <path
       d="m 197.035,398.39611 16.9175,69.3729 388.90873,388.90873 -16.9175,-69.3729 z"
       inkscape:connector-curvature="0"
       id="path3605"
       style="fill:#000000" />
    <path
       d="m 213.9525,467.76901 c 0.1872,0.76404 0.58262,1.44043 1.11653,1.97433 l 388.90873,388.90873 c -0.53391,-0.5339 -0.92933,-1.21029 -1.11653,-1.97433 z"
       inkscape:connector-curvature="0"
       id="path3607"
       style="fill:#000000" />
    <path
       d="M 215.06903,469.74334 C 215.84966,470.52398 216.92633,471 218.081,471 l 388.90873,388.90873 c -1.15467,0 -2.23134,-0.47602 -3.01197,-1.25666 z"
       inkscape:connector-curvature="0"
       id="path3609"
       style="fill:#000000" />
    <path
       d="m 218.081,471 46.1385,0 388.90873,388.90873 -46.1385,0 z"
       inkscape:connector-curvature="0"
       id="path3611"
       style="fill:#000000" />
    <path
       d="m 264.2195,471 c 1.9974,0 3.7235,-1.45035 4.1285,-3.41049 l 388.90873,388.90873 c -0.405,1.96014 -2.1311,3.41049 -4.1285,3.41049 z"
       inkscape:connector-curvature="0"
       id="path3613"
       style="fill:#000000" />
    <path
       d="m 268.348,467.58951 14.48914,-69.86976 388.90873,388.90873 -14.48914,69.86976 z"
       inkscape:connector-curvature="0"
       id="path3615"
       style="fill:#000000" />
    <path
       d="m 282.83714,397.71975 c 13.44952,-3.77666 26.22988,-9.22339 38.05386,-16.11042 l 388.90873,388.90873 c -11.82398,6.88703 -24.60434,12.33376 -38.05386,16.11042 z"
       inkscape:connector-curvature="0"
       id="path3617"
       style="fill:#000000" />
    <path
       d="M 320.891,381.60933 383.53627,419.61867 772.445,808.5274 709.79973,770.51806 z"
       inkscape:connector-curvature="0"
       id="path3619"
       style="fill:#000000" />
    <path
       d="m 383.53627,419.61867 c 1.66144,1.00807 3.73933,0.74959 5.11645,-0.62896 l 388.90873,388.90873 c -1.37712,1.37855 -3.45501,1.63703 -5.11645,0.62896 z"
       inkscape:connector-curvature="0"
       id="path3621"
       style="fill:#000000" />
    <path
       d="m 388.65272,418.98971 32.62436,-32.62437 388.90873,388.90873 -32.62436,32.62437 z"
       inkscape:connector-curvature="0"
       id="path3623"
       style="fill:#000000" />
    <path
       d="m 421.27708,386.36534 c 1.41015,-1.41732 1.67581,-3.62157 0.58301,-5.29594 l 388.90873,388.90873 c 1.0928,1.67437 0.82714,3.87862 -0.58301,5.29594 z"
       inkscape:connector-curvature="0"
       id="path3625"
       style="fill:#000000" />
    <path
       d="m 421.86009,381.0694 -40.16333,-61.2538 388.90873,388.90873 40.16333,61.2538 z"
       inkscape:connector-curvature="0"
       id="path3627"
       style="fill:#000000" />
    <path
       d="m 381.69676,319.8156 c 7.10674,-12.65829 12.5549,-26.30024 16.11042,-40.74634 l 388.90873,388.90873 c -3.55552,14.4461 -9.00368,28.08805 -16.11042,40.74634 z"
       inkscape:connector-curvature="0"
       id="path3629"
       style="fill:#000000" />
    <path
       d="m 397.80718,279.06926 69.37291,-17.00793 388.90873,388.90873 -69.37291,17.00793 z"
       inkscape:connector-curvature="0"
       id="path3631"
       style="fill:#000000" />
    <path
       d="m 467.18009,262.06133 c 1.88833,-0.46239 3.23099,-2.13963 3.23099,-4.08397 l 388.90873,388.90873 c 0,1.94434 -1.34266,3.62158 -3.23099,4.08397 z"
       inkscape:connector-curvature="0"
       id="path3633"
       style="fill:#000000" />
    <path
       d="m 470.41108,257.97736 0,-46.12415 388.90873,388.90873 0,46.12415 z"
       inkscape:connector-curvature="0"
       id="path3635"
       style="fill:#000000" />
    <path
       d="m 470.41108,211.85321 c 0,-1.14965 -0.46713,-2.20844 -1.23657,-2.97789 l 388.90872,388.90873 c 0.76945,0.76944 1.23658,1.82824 1.23658,2.97789 z"
       inkscape:connector-curvature="0"
       id="path3637"
       style="fill:#000000" />
    <path
       d="m 469.17451,208.87532 c -0.56743,-0.56743 -1.29927,-0.97749 -2.12941,-1.15059 l 388.90873,388.90873 c 0.83014,0.1731 1.56198,0.58316 2.1294,1.15059 z"
       inkscape:connector-curvature="0"
       id="path3639"
       style="fill:#000000" />
    <path
       d="m 467.0451,207.72473 -71.39622,-14.85393 388.90873,388.90873 71.39622,14.85393 z"
       inkscape:connector-curvature="0"
       id="path3641"
       style="fill:#000000" />
    <path
       d="m 395.64888,192.8708 c -3.73789,-12.41705 -8.92614,-24.26257 -15.39242,-35.36137 l 388.90873,388.90873 c 6.46628,11.0988 11.65453,22.94432 15.39242,35.36137 z"
       inkscape:connector-curvature="0"
       id="path3643"
       style="fill:#000000" />
    <path
       d="M 380.25646,157.50943 419.02831,93.650746 807.93704,482.55948 769.16519,546.41816 z"
       inkscape:connector-curvature="0"
       id="path3645"
       style="fill:#000000" />
    <path
       d="m 419.02831,93.650746 c 1.00807,-1.664318 0.79267,-3.829798 -0.58301,-5.205481 L 807.35403,477.35399 c 1.37568,1.37569 1.59108,3.54117 0.58301,5.20549 z"
       inkscape:connector-curvature="0"
       id="path3647"
       style="fill:#000000" />
    <path
       d="m 418.4453,88.445265 -6.10298,-6.058461 388.90873,388.908726 6.10298,6.05846 z"
       inkscape:connector-curvature="0"
       id="path3649"
       style="fill:#000000" />
    <path
       d="M 412.34232,82.386804 434.28576,60.397417 823.19449,449.30615 801.25105,471.29553 z"
       inkscape:connector-curvature="0"
       id="path3651"
       style="fill:#000000" />
    <path
       d="m 434.28576,60.397417 c 0.82569,-0.827133 0.82569,-2.135325 0,-2.962458 L 823.19449,446.34369 c 0.82569,0.82713 0.82569,2.13532 0,2.96246 z"
       inkscape:connector-curvature="0"
       id="path3653"
       style="fill:#000000" />
    <path
       d="M 434.28576,57.434959 418.48981,41.639018 807.39854,430.54775 823.19449,446.34369 z"
       inkscape:connector-curvature="0"
       id="path3655"
       style="fill:#000000" />
    <path
       d="m 418.48981,41.639018 c -9.6e-4,-9.61e-4 -0.002,-0.0019 -0.003,-0.0029 L 807.39567,430.54487 c 9.5e-4,9.6e-4 0.002,0.002 0.003,0.003 z"
       inkscape:connector-curvature="0"
       id="path3657"
       style="fill:#000000" />
    <path
       d="m 418.48694,41.636139 c -0.39316,-0.393157 -0.92039,-0.626087 -1.47764,-0.626087 L 805.91803,429.91878 c 0.55725,0 1.08448,0.23293 1.47764,0.62609 z"
       inkscape:connector-curvature="0"
       id="path3659"
       style="fill:#000000" />
    <path
       d="m 236.7058,117.07326 c -66.7019,0 -120.7959,54.58215 -120.7959,121.11179 l 388.90873,388.90873 c 0,-66.52964 54.094,-121.11179 120.7959,-121.11179 z"
       inkscape:connector-curvature="0"
       id="path3661"
       style="fill:#000000" />
    <path
       d="m 115.9099,238.18505 c 0,33.6399 13.65402,64.1623 35.70119,86.20948 l 388.90873,388.90873 c -22.04718,-22.04718 -35.70119,-52.56958 -35.70119,-86.20948 z"
       inkscape:connector-curvature="0"
       id="path3663"
       style="fill:#000000" />
    <path
       d="m 151.61109,324.39453 c 21.83881,21.8388 51.91288,35.36183 85.10911,35.36183 l 388.90873,388.90873 c -33.19623,0 -63.2703,-13.52303 -85.10911,-35.36183 z"
       inkscape:connector-curvature="0"
       id="path3665"
       style="fill:#000000" />
    <path
       d="m 236.7202,359.75636 c 66.22804,0 120.8102,-54.59652 120.8102,-121.57131 l 388.90873,388.90873 c 0,66.97479 -54.58216,121.57131 -120.8102,121.57131 z"
       inkscape:connector-curvature="0"
       id="path3667"
       style="fill:#000000" />
    <path
       d="m 357.5304,238.18505 c 0,-33.30619 -13.67591,-63.61808 -35.64424,-85.58642 l 388.90873,388.90873 c 21.96833,21.96834 35.64424,52.28023 35.64424,85.58642 z"
       inkscape:connector-curvature="0"
       id="path3669"
       style="fill:#000000" />
    <path
       d="M 321.88616,152.59863 C 299.9724,130.68487 269.80736,117.07326 236.7345,117.07326 l 388.90873,388.90873 c 33.07286,0 63.2379,13.61161 85.15166,35.52537 z"
       inkscape:connector-curvature="0"
       id="path3671"
       style="fill:#000000" />
    <path
       d="m 186.6542,179.13695 106.98162,0 388.90873,388.90873 -106.98162,0 z"
       inkscape:connector-curvature="0"
       id="path3673"
       style="fill:#000000" />
    <path
       d="m 293.63582,179.13695 0,106.17457 388.90873,388.90873 0,-106.17457 z"
       inkscape:connector-curvature="0"
       id="path3675"
       style="fill:#000000" />
    <path
       d="m 293.63582,285.31152 c -1.74916,-1.83552 -2.64084,-2.76546 -3.62362,-3.74823 l 388.90873,388.90872 c 0.98278,0.98278 1.87446,1.91272 3.62362,3.74824 z"
       inkscape:connector-curvature="0"
       id="path3677"
       style="fill:#000000" />
    <path
       d="m 290.0122,281.56329 c -3.02069,-3.0207 -6.90199,-6.5406 -39.1877,-38.38959 l 388.90873,388.90873 c 32.2857,31.84899 36.16701,35.36889 39.1877,38.38958 z"
       inkscape:connector-curvature="0"
       id="path3679"
       style="fill:#000000" />
    <path
       d="m 250.8245,243.1737 c -29.6418,12.99575 -38.2822,34.29011 -26.5214,80.96138 l 388.90873,388.90873 c -11.7608,-46.67127 -3.1204,-67.96563 26.5214,-80.96138 z"
       inkscape:connector-curvature="0"
       id="path3681"
       style="fill:#000000" />
    <path
       d="M 224.3031,324.13508 C 181.1228,278.70882 165.0683,245.35784 215.5522,207.69027 L 604.46093,596.599 c -50.4839,37.66757 -34.4294,71.01855 8.7509,116.44481 z"
       inkscape:connector-curvature="0"
       id="path3683"
       style="fill:#000000" />
    <path
       d="m 215.5522,207.69027 -28.0924,-27.86692 388.90873,388.90873 28.0924,27.86692 z"
       inkscape:connector-curvature="0"
       id="path3685"
       style="fill:#000000" />
    <path
       d="m 187.4598,179.82335 -0.8085,-0.67348 388.90873,388.90873 0.8085,0.67348 z"
       inkscape:connector-curvature="0"
       id="path3687"
       style="fill:#000000" />
  </g>
  <path
     d="m 416.99742,41 c -0.56291,0 -1.1287,0.232631 -1.52647,0.628966 l -21.89892,21.943435 -7.80893,-7.762988 c -1.41733,-1.413018 -3.62158,-1.634162 -5.29595,-0.538498 l -62.27909,40.836818 c -0.10914,0.06606 -0.2111,0.145035 -0.31449,0.224015 -7.49302,-4.151461 -15.33355,-7.751499 -23.55893,-10.725444 -0.57152,-0.203912 -1.21341,-0.153652 -1.75047,0.134983 -0.53132,0.291507 -0.90324,0.798413 -1.03248,1.391479 l -4.44297,20.103924 c 52.19841,20.46005 89.66351,71.59295 89.66351,130.90528 0,77.64423 -63.25557,140.91416 -140.05253,140.91416 -59.736,0 -110.787,-37.75661 -130.9053,-90.74051 l -19.744903,5.47545 c -0.5744,0.1594 -1.0282,0.50547 -1.3011,1.03248 -0.267,0.52127 -0.2929,1.15311 -0.09,1.70596 3.0357,8.24979 6.7104,16.17936 10.9494,23.69392 l -38.0983,62.78025 c -1.0153,1.65427 -0.7927,3.82693 0.583,5.20548 l 5.385,5.38498 -21.2714,21.31591 c -0.8229,0.82569 -0.8229,2.18414 0,3.00697 l 15.7959,15.75143 c 0.8257,0.82856 2.1296,0.82856 2.9625,0 l 21.3159,-21.27139 8.4364,8.43646 c 1.420201,1.4159 3.6245,1.63704 5.296001,0.5385 L 156.5543,381.70267 c 12.6167,7.31065 26.2184,12.92395 40.4807,16.69344 l 16.9175,69.3729 C 214.4134,469.65016 216.1366,471 218.081,471 h 46.1385 c 1.9974,0 3.7235,-1.45035 4.1285,-3.41049 l 14.48914,-69.86976 c 13.44952,-3.77666 26.22988,-9.22339 38.05386,-16.11042 l 62.64527,38.00934 c 1.66144,1.00807 3.73933,0.74959 5.11645,-0.62896 l 32.62436,-32.62437 c 1.41015,-1.41732 1.67581,-3.62157 0.58301,-5.29594 l -40.16333,-61.2538 c 7.10674,-12.65829 12.5549,-26.30024 16.11042,-40.74634 l 69.37291,-17.00793 c 1.88833,-0.46239 3.23099,-2.13963 3.23099,-4.08397 v -46.12415 c 0,-1.99746 -1.41015,-3.72066 -3.36598,-4.12848 L 395.64888,192.8708 c -3.73789,-12.41705 -8.92614,-24.26257 -15.39242,-35.36137 l 38.77185,-63.858684 c 1.00807,-1.664318 0.79267,-3.829798 -0.58301,-5.205481 l -6.10298,-6.058461 21.94344,-21.989387 c 0.82569,-0.827133 0.82569,-2.135325 0,-2.962458 L 418.48981,41.639018 c -0.39346,-0.394899 -0.9219,-0.628966 -1.48051,-0.628966 M 236.7058,117.07326 c -66.7019,0 -120.7959,54.58215 -120.7959,121.11179 0,66.96187 54.1011,121.57131 120.8103,121.57131 66.22804,0 120.8102,-54.59652 120.8102,-121.57131 0,-66.52964 -54.5678,-121.11179 -120.7959,-121.11179 m -50.0803,62.06369 h 106.98162 v 106.17457 c -7.12541,-7.47722 -0.0215,0.0732 -42.81132,-42.13782 -29.6418,12.99575 -38.2822,34.29011 -26.5214,80.96138 -43.1803,-45.42626 -59.2348,-78.77724 -8.7509,-116.44481 l -28.0924,-27.86692 -0.8085,-0.67348"
     inkscape:connector-curvature="0"
     id="path271"
     style="fill:#ffffff" />
</svg>
