<?xml version="1.0" encoding="UTF-8" standalone="no"?>
<!-- Created with Inkscape (http://www.inkscape.org/) -->

<svg
   xmlns:dc="http://purl.org/dc/elements/1.1/"
   xmlns:cc="http://creativecommons.org/ns#"
   xmlns:rdf="http://www.w3.org/1999/02/22-rdf-syntax-ns#"
   xmlns:svg="http://www.w3.org/2000/svg"
   xmlns="http://www.w3.org/2000/svg"
   xmlns:inkscape="http://www.inkscape.org/namespaces/inkscape"
   version="1.1"
   width="100%"
   height="100%"
   viewBox="0 0 512 512"
   id="svg2">
  <metadata
     id="metadata193">
    <rdf:RDF>
      <cc:Work
         rdf:about="">
        <dc:format>image/svg+xml</dc:format>
        <dc:type
           rdf:resource="http://purl.org/dc/dcmitype/StillImage" />
      </cc:Work>
    </rdf:RDF>
  </metadata>
  <defs
     id="defs4">
    <clipPath
       id="0">
      <path
         d="M 26,0 C 11.603,0 0,11.603 0,26 v 460 c 0,14.397 11.603,26 26,26 h 460 c 14.397,0 26,-11.603 26,-26 V 26 C 512,11.603 500.397,0 486,0 H 26"
         inkscape:connector-curvature="0"
         id="path7" />
    </clipPath>
  </defs>
  <path
     d="M 26,0 C 11.603,0 0,11.603 0,26 v 460 c 0,14.397 11.603,26 26,26 h 460 c 14.397,0 26,-11.603 26,-26 V 26 C 512,11.603 500.397,0 486,0 H 26"
     inkscape:connector-curvature="0"
     id="path9"
     style="fill:none" />
  <g
     transform="translate(-565.88,-50.812)"
     id="g53"
     style="font-size:208.33000183px;line-height:125%;letter-spacing:0;word-spacing:0;font-family:Gentium Book Basic">
  </g>
  <g
     clip-path="url(#0)"
     id="g101"
     style="opacity:0.0;color:#000000">
    <path
       d="m 338.66,108.72 c -41.999,0 -75.67,12.946 -99,39.06 l 353.55,353.55 c 23.332,-26.12 57,-39.06 99,-39.06 z"
       inkscape:connector-curvature="0"
       id="path103" />
    <path
       d="m 239.66,147.78 c -23.18,25.962 -34.406,62.32 -34.406,107.75 l 353.55,353.55 c 0,-45.43 11.226,-81.79 34.406,-107.75 z"
       inkscape:connector-curvature="0"
       id="path105" />
    <path
       d="m 205.25,255.53 c 0,45.803 11.299,82.42 34.594,108.63 l 353.55,353.55 C 570.099,691.5 558.8,654.888 558.8,609.09 z"
       inkscape:connector-curvature="0"
       id="path107" />
    <path
       d="m 239.84,364.16 0.031,0.031 353.55,353.55 -0.031,-0.031 z"
       inkscape:connector-curvature="0"
       id="path109" />
    <path
       d="m 239.88,364.19 c 1.347,1.5 2.728,2.956 4.141,4.369 l 353.55,353.55 c -1.413,-1.413 -2.794,-2.87 -4.141,-4.369 z"
       inkscape:connector-curvature="0"
       id="path111" />
    <path
       d="m 244.02,368.56 c 23.16,23.16 55.13,34.725 94.27,34.725 l 353.55,353.55 c -39.14,0 -71.1,-11.561 -94.27,-34.725 z"
       inkscape:connector-curvature="0"
       id="path113" />
    <path
       d="m 338.28,403.28 c 41.06,0 74.35,-13.296 97.75,-39.844 l 353.55,353.55 c -23.396,26.548 -56.689,39.844 -97.75,39.844 z"
       inkscape:connector-curvature="0"
       id="path115" />
    <path
       d="m 436.03,363.44 h 0.031 l 353.55,353.55 h -0.031 z"
       inkscape:connector-curvature="0"
       id="path117" />
    <path
       d="m 436.06,363.44 c 0.005,-0.006 -0.005,-0.026 0,-0.031 l 353.55,353.55 c -0.005,0.006 0.005,0.025 0,0.031 z"
       inkscape:connector-curvature="0"
       id="path119" />
    <path
       d="m 436.06,363.41 c 23.47,-26.514 34.937,-62.776 34.938,-107.5 l 353.55,353.55 c 0,44.724 -11.467,80.986 -34.938,107.5 z"
       inkscape:connector-curvature="0"
       id="path121" />
    <path
       d="m 471,255.91 c 0,-44.957 -11.408,-81.21 -34.781,-107.5 l 353.55,353.55 c 23.373,26.29 34.781,62.54 34.781,107.5 z"
       inkscape:connector-curvature="0"
       id="path123" />
    <path
       d="m 436.22,148.41 c -0.005,-0.006 0.005,-0.025 0,-0.031 l 353.55,353.55 c 0.005,0.006 -0.005,0.025 0,0.031 z"
       inkscape:connector-curvature="0"
       id="path125" />
    <path
       d="m 436.22,148.38 c -1.544,-1.744 -3.131,-3.43 -4.76,-5.059 l 353.55,353.55 c 1.629,1.629 3.216,3.315 4.76,5.059 z"
       inkscape:connector-curvature="0"
       id="path127" />
    <path
       d="M 431.46,143.32 C 408.4,120.26 376.9,108.723 338.66,108.723 l 353.55,353.55 c 38.24,0 69.75,11.541 92.8,34.597 z"
       inkscape:connector-curvature="0"
       id="path129" />
    <path
       d="m 41,112.69 v 7.5 l 353.55,353.55 v -7.5 z"
       inkscape:connector-curvature="0"
       id="path131" />
    <path
       d="M 41,120.19 V 391.82 L 394.55,745.37 V 473.75 z"
       inkscape:connector-curvature="0"
       id="path133" />
    <path
       d="m 41,391.81 v 7.5 l 353.55,353.55 v -7.5 z"
       inkscape:connector-curvature="0"
       id="path135" />
    <path
       d="m 41,399.31 h 7.5 l 353.55,353.55 h -7.5 z"
       inkscape:connector-curvature="0"
       id="path137" />
    <path
       d="M 48.5,399.31 H 201.38 L 554.93,752.86 H 402.06 z"
       inkscape:connector-curvature="0"
       id="path139" />
    <path
       d="m 201.38,399.31 h 7.5 l 353.55,353.55 h -7.5 z"
       inkscape:connector-curvature="0"
       id="path141" />
    <path
       d="m 208.88,399.31 v -7.5 l 353.55,353.55 v 7.5 z"
       inkscape:connector-curvature="0"
       id="path143" />
    <path
       d="m 208.88,391.81 v -30.5 l 353.55,353.55 v 30.5 z"
       inkscape:connector-curvature="0"
       id="path145" />
    <path
       d="m 208.88,361.31 v -7.5 l 353.55,353.55 v 7.5 z"
       inkscape:connector-curvature="0"
       id="path147" />
    <path
       d="m 208.88,353.81 h -7.5 l 353.55,353.55 h 7.5 z"
       inkscape:connector-curvature="0"
       id="path149" />
    <path
       d="M 201.38,353.81 H 90.19 l 353.55,353.55 h 111.19 z"
       inkscape:connector-curvature="0"
       id="path151" />
    <path
       d="M 90.19,353.81 V 120.19 l 353.55,353.55 v 233.63 z"
       inkscape:connector-curvature="0"
       id="path153" />
    <path
       d="m 90.19,120.19 v -7.5 l 353.55,353.55 v 7.5 z"
       inkscape:connector-curvature="0"
       id="path155" />
    <path
       d="m 90.19,112.69 h -7.5 l 353.55,353.55 h 7.5 z"
       inkscape:connector-curvature="0"
       id="path157" />
    <path
       d="M 82.69,112.69 H 48.5 l 353.55,353.55 h 34.19 z"
       inkscape:connector-curvature="0"
       id="path159" />
    <path
       d="M 48.5,112.69 H 41 l 353.55,353.55 h 7.5 z"
       inkscape:connector-curvature="0"
       id="path161" />
    <path
       d="m 338.66,153.81 c 24.513,0 42.541,6.591 55.716,19.766 l 353.55,353.55 C 734.751,513.951 716.726,507.36 692.21,507.36 z"
       inkscape:connector-curvature="0"
       id="path163" />
    <path
       d="m 394.37,173.58 c 1.615,1.615 3.156,3.328 4.628,5.14 l 353.55,353.55 c -1.472,-1.812 -3.01,-3.526 -4.628,-5.14 z"
       inkscape:connector-curvature="0"
       id="path165" />
    <path
       d="m 399,178.72 h 0.031 l 353.55,353.55 h -0.031 z"
       inkscape:connector-curvature="0"
       id="path167" />
    <path
       d="m 399.03,178.72 v 0.031 l 353.55,353.55 v -0.031 z"
       inkscape:connector-curvature="0"
       id="path169" />
    <path
       d="m 399.03,178.75 c 13.446,16.447 20.75,41.903 20.75,77.16 l 353.55,353.55 c 0,-35.25 -7.304,-60.709 -20.75,-77.16 z"
       inkscape:connector-curvature="0"
       id="path171" />
    <path
       d="m 419.78,255.91 c 0,35.37 -7.377,61.04 -20.969,77.75 l 353.55,353.55 c 13.592,-16.711 20.969,-42.38 20.969,-77.75 z"
       inkscape:connector-curvature="0"
       id="path173" />
    <path
       d="m 398.81,333.66 c -13.615,16.74 -33.02,25.09 -60.53,25.09 L 691.83,712.3 c 27.506,0 46.916,-8.354 60.53,-25.09 z"
       inkscape:connector-curvature="0"
       id="path175" />
    <path
       d="m 338.28,358.75 c -24.501,0 -42.592,-6.667 -55.968,-20.04 l 353.55,353.55 c 13.376,13.376 31.467,20.04 55.968,20.04 z"
       inkscape:connector-curvature="0"
       id="path177" />
    <path
       d="m 282.31,338.71 c -1.7,-1.7 -3.324,-3.509 -4.876,-5.426 l 353.55,353.55 c 1.551,1.917 3.175,3.726 4.876,5.426 z"
       inkscape:connector-curvature="0"
       id="path179" />
    <path
       d="m 277.44,333.28 c -13.763,-17.01 -21.16,-42.522 -21.16,-77.37 l 353.55,353.55 c 0,34.853 7.394,60.37 21.16,77.38 z"
       inkscape:connector-curvature="0"
       id="path181" />
    <path
       d="m 256.28,255.91 c 0,-34.725 7.392,-60.03 21.13,-76.78 l 353.55,353.55 c -13.733,16.747 -21.13,42.06 -21.12,76.78 z"
       inkscape:connector-curvature="0"
       id="path183" />
    <path
       d="m 277.41,179.13 0.031,-0.031 353.55,353.55 -0.031,0.031 z"
       inkscape:connector-curvature="0"
       id="path185" />
    <path
       d="m 277.44,179.09 c 13.735,-16.861 33.33,-25.281 61.22,-25.281 l 353.55,353.55 c -27.888,0 -47.48,8.42 -61.22,25.281 z"
       inkscape:connector-curvature="0"
       id="path187" />
  </g>
  <path
     d="m 338.66,108.72 c -41.999,0 -75.67,12.946 -99,39.06 -23.18,25.962 -34.406,62.32 -34.406,107.75 0,45.803 11.299,82.42 34.594,108.63 l 0.031,0.031 c 23.431,26.08 56.878,39.09 98.41,39.09 41.06,0 74.35,-13.296 97.75,-39.844 h 0.031 c 0.005,-0.006 -0.005,-0.026 0,-0.031 23.47,-26.514 34.937,-62.776 34.938,-107.5 0,-44.957 -11.408,-81.21 -34.781,-107.5 -0.005,-0.006 0.005,-0.025 0,-0.031 -23.398,-26.427 -56.62,-39.656 -97.56,-39.656 m -297.66,3.969 v 7.5 271.63 7.5 h 7.5 152.88 7.5 v -7.5 -30.5 -7.5 h -7.5 -111.19 v -233.62 -7.5 h -7.5 -34.19 -7.5 m 297.66,41.13 c 27.517,0 46.863,8.306 60.34,24.906 h 0.031 v 0.031 c 13.446,16.447 20.75,41.903 20.75,77.16 0,35.37 -7.377,61.04 -20.969,77.75 -13.615,16.74 -33.02,25.09 -60.53,25.09 -27.615,0 -47.09,-8.47 -60.844,-25.469 -13.763,-17.01 -21.16,-42.522 -21.16,-77.37 0,-34.725 7.392,-60.03 21.13,-76.78 l 0.031,-0.031 c 13.735,-16.861 33.33,-25.281 61.22,-25.281"
     inkscape:connector-curvature="0"
     id="path189"
     style="color:#000000;fill:#ffffff" />
</svg>
