<?xml version="1.0" encoding="UTF-8" standalone="no"?>
<!-- Created with Inkscape (http://www.inkscape.org/) -->

<svg
   xmlns:dc="http://purl.org/dc/elements/1.1/"
   xmlns:cc="http://creativecommons.org/ns#"
   xmlns:rdf="http://www.w3.org/1999/02/22-rdf-syntax-ns#"
   xmlns:svg="http://www.w3.org/2000/svg"
   xmlns="http://www.w3.org/2000/svg"
   xmlns:inkscape="http://www.inkscape.org/namespaces/inkscape"
   version="1.1"
   width="100%"
   height="100%"
   viewBox="0 0 512 512"
   id="svg2">
  <metadata
     id="metadata10">
    <rdf:RDF>
      <cc:Work
         rdf:about="">
        <dc:format>image/svg+xml</dc:format>
        <dc:type
           rdf:resource="http://purl.org/dc/dcmitype/StillImage" />
        <dc:title />
      </cc:Work>
    </rdf:RDF>
  </metadata>
  <defs
     id="defs8">
    <clipPath
       id="clipPath5514">
      <path
         d="M 26,0 C 11.602648,0 0,11.602648 0,26 l 0,460 c 0,14.39735 11.602648,26 26,26 l 460,0 c 14.39735,0 26,-11.60265 26,-26 L 512,26 C 512,11.602648 500.39735,0 486,0 L 26,0 z"
         inkscape:connector-curvature="0"
         id="path5516"
         style="fill:none;fill-opacity:1;stroke:none" />
    </clipPath>
  </defs>
  <path
     d="M 26,0 C 11.602648,0 0,11.602648 0,26 l 0,460 c 0,14.39735 11.602648,26 26,26 l 460,0 c 14.39735,0 26,-11.60265 26,-26 L 512,26 C 512,11.602648 500.39735,0 486,0 L 26,0 z"
     inkscape:connector-curvature="0"
     id="rect2986"
     style="fill:none;fill-opacity:1;stroke:none" />
  <g
     transform="matrix(0.96592583,-0.25881905,0.25881905,0.96592583,-2840.7212,150.88026)"
     id="g3238"
     style="line-height:125%;letter-spacing:0;word-spacing:0;font-family:Gentium Book Basic">
  </g>
  <g
     transform="matrix(0.96592583,-0.25881905,0.25881905,0.96592583,-2840.7212,150.88026)"
     id="g3410"
     style="line-height:125%;letter-spacing:0;word-spacing:0;font-family:Gentium Book Basic">
  </g>
  <g
     transform="matrix(0.96592583,-0.25881905,0.25881905,0.96592583,-2840.7212,150.88026)"
     id="g3458"
     style="line-height:125%;letter-spacing:0;word-spacing:0;font-family:Gentium Book Basic">
  </g>
  <g
     clip-path="url(#clipPath5514)"
     id="g4984"
     style="opacity:0.0;fill:#000000;fill-opacity:1">
    <path
       d="M 352.12559,70.455568 245.57251,41.945374 634.48124,430.8541 741.03432,459.3643 z"
       inkscape:connector-curvature="0"
       id="path4986"
       style="fill:#000000" />
    <path
       d="M 245.57251,41.945374 C 230.84827,38.000026 215.75335,46.770158 211.8358,61.423272 L 600.74453,450.332 c 3.91755,-14.65311 19.01247,-23.42324 33.73671,-19.4779 z"
       inkscape:connector-curvature="0"
       id="path4988"
       style="fill:#000000" />
    <path
       d="M 211.8358,61.423272 139.42459,331.66557 528.33332,720.5743 600.74453,450.332 z"
       inkscape:connector-curvature="0"
       id="path4990"
       style="fill:#000000" />
    <path
       d="M 139.42459,331.66557 299.22004,374.48263 688.12877,763.39136 528.33332,720.5743 z"
       inkscape:connector-curvature="0"
       id="path4992"
       style="fill:#000000" />
    <path
       d="m 299.22004,374.48263 72.41121,-270.2423 388.90873,388.90873 -72.41121,270.2423 z"
       inkscape:connector-curvature="0"
       id="path4994"
       style="fill:#000000" />
    <path
       d="m 371.63125,104.24033 c 2.64177,-9.859237 -0.42202,-19.913865 -7.16881,-26.660652 L 753.37117,466.48841 c 6.74679,6.74678 9.81058,16.80141 7.16881,26.66065 z"
       inkscape:connector-curvature="0"
       id="path4996"
       style="fill:#000000" />
    <path
       d="m 364.46244,77.579678 c -3.30688,-3.306875 -7.49855,-5.819081 -12.33685,-7.12411 L 741.03432,459.3643 c 4.8383,1.30503 9.02997,3.81723 12.33685,7.12411 z"
       inkscape:connector-curvature="0"
       id="path4998"
       style="fill:#000000" />
    <path
       d="m 316.1763,137.15434 c 3.97816,1.06595 6.44442,2.23658 9.85782,4.14446 l 388.90873,388.90873 c -3.4134,-1.90788 -5.87966,-3.07851 -9.85782,-4.14446 z"
       inkscape:connector-curvature="0"
       id="path5000"
       style="fill:#000000" />
    <path
       d="m 326.03412,141.2988 c 1.36284,0.75213 2.61138,1.69262 3.67998,2.76123 l 388.90873,388.90873 c -1.0686,-1.06861 -2.31714,-2.0091 -3.67998,-2.76123 z"
       inkscape:connector-curvature="0"
       id="path5002"
       style="fill:#000000" />
    <path
       d="m 329.7141,144.06003 c 2.84513,2.84513 4.4148,6.59844 3.47039,10.12302 l 388.90873,388.90873 c 0.94441,-3.52458 -0.62526,-7.27789 -3.47039,-10.12302 z"
       inkscape:connector-curvature="0"
       id="path5004"
       style="fill:#000000" />
    <path
       d="m 333.18449,154.18305 c -1.56257,5.83162 -7.33394,9.04383 -14.04706,7.24504 l 388.90873,388.90873 c 6.71312,1.79879 12.48449,-1.41342 14.04706,-7.24504 z"
       inkscape:connector-curvature="0"
       id="path5006"
       style="fill:#000000" />
    <path
       d="m 319.13743,161.42809 c -3.17575,-0.85093 -3.9594,-1.83275 -8.63825,-3.08645 l 388.90873,388.90873 c 4.67885,1.2537 5.4625,2.23552 8.63825,3.08645 z"
       inkscape:connector-curvature="0"
       id="path5008"
       style="fill:#000000" />
    <path
       d="m 310.49918,158.34164 c -13.82183,-3.70355 -28.01922,4.20427 -31.51987,17.26889 l 388.90873,388.90873 c 3.50065,-13.06462 17.69804,-20.97244 31.51987,-17.26889 z"
       inkscape:connector-curvature="0"
       id="path5010"
       style="fill:#000000" />
    <path
       d="m 278.97931,175.61053 -5.31152,19.82282 388.90873,388.90873 5.31152,-19.82282 z"
       inkscape:connector-curvature="0"
       id="path5012"
       style="fill:#000000" />
    <path
       d="m 273.66779,195.43335 c -0.29182,1.0891 -0.18451,1.9513 0.48332,2.61913 l 388.90873,388.90873 c -0.66783,-0.66783 -0.77514,-1.53003 -0.48332,-2.61913 z"
       inkscape:connector-curvature="0"
       id="path5014"
       style="fill:#000000" />
    <path
       d="m 274.15111,198.05248 c 0.46869,0.46869 1.21345,0.84164 2.29006,1.13012 L 665.3499,588.09133 c -1.07661,-0.28848 -1.82137,-0.66144 -2.29006,-1.13012 z"
       inkscape:connector-curvature="0"
       id="path5016"
       style="fill:#000000" />
    <path
       d="m 276.44117,199.1826 16.26002,4.35686 388.90873,388.90873 -16.26002,-4.35686 z"
       inkscape:connector-curvature="0"
       id="path5018"
       style="fill:#000000" />
    <path
       d="m 292.70119,203.53946 c 1.93979,0.51977 3.63554,1.5592 4.99836,2.92202 l 388.90873,388.90873 c -1.36282,-1.36282 -3.05857,-2.40225 -4.99836,-2.92202 z"
       inkscape:connector-curvature="0"
       id="path5020"
       style="fill:#000000" />
    <path
       d="m 297.69955,206.46148 c 2.94859,2.94859 4.33868,7.411 3.27003,11.39927 l 388.90873,388.90873 c 1.06865,-3.98827 -0.32144,-8.45068 -3.27003,-11.39927 z"
       inkscape:connector-curvature="0"
       id="path5022"
       style="fill:#000000" />
    <path
       d="m 300.96958,217.86075 c -1.56257,5.83159 -8.13931,9.92484 -14.32129,8.26839 l 388.90873,388.90873 c 6.18198,1.65645 12.75872,-2.4368 14.32129,-8.26839 z"
       inkscape:connector-curvature="0"
       id="path5024"
       style="fill:#000000" />
    <path
       d="m 286.64829,226.12914 -19.78491,-5.30136 388.90873,388.90873 19.78491,5.30136 z"
       inkscape:connector-curvature="0"
       id="path5026"
       style="fill:#000000" />
    <path
       d="m 266.86338,220.82778 -6.05289,22.58968 388.90873,388.90873 6.05289,-22.58968 z"
       inkscape:connector-curvature="0"
       id="path5028"
       style="fill:#000000" />
    <path
       d="m 260.81049,243.41746 c -6.63489,24.76176 -33.61109,39.45765 -59.79682,32.44121 L 589.9224,664.7674 c 26.18573,7.01644 53.16193,-7.67945 59.79682,-32.44121 z"
       inkscape:connector-curvature="0"
       id="path5030"
       style="fill:#000000" />
    <path
       d="m 201.01367,275.85867 c -3.97817,-1.06595 -6.43232,-2.2818 -9.85782,-4.14446 l 388.90873,388.90873 c 3.4255,1.86266 5.87965,3.07851 9.85782,4.14446 z"
       inkscape:connector-curvature="0"
       id="path5032"
       style="fill:#000000" />
    <path
       d="m 191.15585,271.71421 c -1.35448,-0.74752 -2.59538,-1.68359 -3.65884,-2.74705 l 388.90873,388.90873 c 1.06345,1.06346 2.30436,1.99953 3.65884,2.74705 z"
       inkscape:connector-curvature="0"
       id="path5034"
       style="fill:#000000" />
    <path
       d="m 187.49701,268.96716 c -2.85543,-2.85543 -4.4315,-6.62922 -3.49154,-10.13721 L 572.9142,647.73868 c -0.93996,3.50799 0.63611,7.28178 3.49154,10.13721 z"
       inkscape:connector-curvature="0"
       id="path5036"
       style="fill:#000000" />
    <path
       d="m 184.00547,258.82995 c 1.57469,-5.8768 7.51675,-9.72606 14.22989,-7.92728 L 587.14409,639.8114 c -6.71314,-1.79878 -12.6552,2.05048 -14.22989,7.92728 z"
       inkscape:connector-curvature="0"
       id="path5038"
       style="fill:#000000" />
    <path
       d="m 198.23536,250.90267 8.83119,2.36632 388.90873,388.90873 -8.83119,-2.36632 z"
       inkscape:connector-curvature="0"
       id="path5040"
       style="fill:#000000" />
    <path
       d="m 207.06655,253.26899 c 13.77661,3.69143 27.51592,-2.50678 31.05271,-15.52539 l 388.90873,388.90873 c -3.53679,13.01861 -17.2761,19.21682 -31.05271,15.52539 z"
       inkscape:connector-curvature="0"
       id="path5042"
       style="fill:#000000" />
    <path
       d="m 238.11926,237.7436 5.17947,-19.3301 388.90873,388.90873 -5.17947,19.3301 z"
       inkscape:connector-curvature="0"
       id="path5044"
       style="fill:#000000" />
    <path
       d="m 243.29873,218.4135 c 0.50833,-1.8971 0.27355,-2.93646 -0.3644,-3.57442 l 388.90872,388.90873 c 0.63796,0.63796 0.87274,1.67732 0.36441,3.57442 z"
       inkscape:connector-curvature="0"
       id="path5046"
       style="fill:#000000" />
    <path
       d="m 242.93433,214.83908 c -0.5212,-0.5212 -1.3115,-0.77448 -2.18553,-1.00868 l 388.90873,388.90873 c 0.87403,0.2342 1.66433,0.48748 2.18552,1.00868 z"
       inkscape:connector-curvature="0"
       id="path5048"
       style="fill:#000000" />
    <path
       d="m 240.7488,213.8304 -16.26001,-4.35686 388.90873,388.90873 16.26001,4.35686 z"
       inkscape:connector-curvature="0"
       id="path5050"
       style="fill:#000000" />
    <path
       d="m 224.48879,209.47354 c -3.93842,-1.05529 -6.69807,-2.60963 -8.5317,-4.44327 L 604.86582,593.939 c 1.83363,1.83364 4.59328,3.38798 8.5317,4.44327 z"
       inkscape:connector-curvature="0"
       id="path5052"
       style="fill:#000000" />
    <path
       d="m 215.95709,205.03027 c -3.10189,-3.10188 -3.5538,-7.00304 -2.57936,-10.63969 l 388.90873,388.90873 c -0.97444,3.63665 -0.52253,7.53781 2.57936,10.63969 z"
       inkscape:connector-curvature="0"
       id="path5054"
       style="fill:#000000" />
    <path
       d="m 213.37773,194.39058 c 1.57468,-5.87683 7.52633,-10.08911 16.97442,-7.5575 l 388.90873,388.90873 c -9.44809,-2.53161 -15.39974,1.68067 -16.97442,7.5575 z"
       inkscape:connector-curvature="0"
       id="path5056"
       style="fill:#000000" />
    <path
       d="m 230.35215,186.83308 19.97444,5.35214 388.90873,388.90873 -19.97444,-5.35214 z"
       inkscape:connector-curvature="0"
       id="path5058"
       style="fill:#000000" />
    <path
       d="m 250.32659,192.18522 6.06304,-22.62759 388.90873,388.90873 -6.06304,22.62759 z"
       inkscape:connector-curvature="0"
       id="path5060"
       style="fill:#000000" />
    <path
       d="m 256.38963,169.55763 c 6.63489,-24.76175 33.60094,-39.41974 59.78667,-32.40329 l 388.90873,388.90873 c -26.18573,-7.01645 -53.15178,7.64154 -59.78667,32.40329 z"
       inkscape:connector-curvature="0"
       id="path5062"
       style="fill:#000000" />
    <path
       d="m 163.96909,360.13825 -22.32256,83.30892 388.90873,388.90873 22.32256,-83.30892 z"
       inkscape:connector-curvature="0"
       id="path5064"
       style="fill:#000000" />
    <path
       d="M 141.64653,443.44717 244.47506,471 633.38379,859.90873 530.55526,832.3559 z"
       inkscape:connector-curvature="0"
       id="path5066"
       style="fill:#000000" />
    <path
       d="m 244.47506,471 22.27449,-83.28118 388.90873,388.90873 -22.27449,83.28118 z"
       inkscape:connector-curvature="0"
       id="path5068"
       style="fill:#000000" />
    <path
       d="M 266.74955,387.71882 163.96909,360.13825 552.87782,749.04698 655.65828,776.62755 z"
       inkscape:connector-curvature="0"
       id="path5070"
       style="fill:#000000" />
    <path
       d="m 176.67688,413.83507 20.88408,5.59587 388.90873,388.90873 -20.88408,-5.59587 z"
       inkscape:connector-curvature="0"
       id="path5072"
       style="fill:#000000" />
    <path
       d="m 197.56096,419.43094 -4.55254,17.14193 388.90873,388.90873 4.55254,-17.14193 z"
       inkscape:connector-curvature="0"
       id="path5074"
       style="fill:#000000" />
    <path
       d="m 193.00842,436.57287 -20.94973,-5.65409 388.90873,388.90873 20.94973,5.65409 z"
       inkscape:connector-curvature="0"
       id="path5076"
       style="fill:#000000" />
    <path
       d="m 172.05869,430.91878 4.61819,-17.08371 388.90873,388.90873 -4.61819,17.08371 z"
       inkscape:connector-curvature="0"
       id="path5078"
       style="fill:#000000" />
    <path
       d="m 208.55258,422.37614 20.88408,5.59587 388.90873,388.90873 -20.88408,-5.59587 z"
       inkscape:connector-curvature="0"
       id="path5080"
       style="fill:#000000" />
    <path
       d="m 229.43666,427.97201 -4.58028,17.09386 388.90873,388.90873 4.58028,-17.09386 z"
       inkscape:connector-curvature="0"
       id="path5082"
       style="fill:#000000" />
    <path
       d="m 224.85638,445.06587 -20.92199,-5.60602 388.90873,388.90873 20.92199,5.60602 z"
       inkscape:connector-curvature="0"
       id="path5084"
       style="fill:#000000" />
    <path
       d="m 203.93439,439.45985 4.61819,-17.08371 388.90873,388.90873 -4.61819,17.08371 z"
       inkscape:connector-curvature="0"
       id="path5086"
       style="fill:#000000" />
  </g>
  <path
     d="M 352.12559,70.455568 245.57251,41.945374 c -14.72424,-3.945348 -29.81916,4.824784 -33.73671,19.477898 l -72.41121,270.242298 159.79545,42.81706 72.41121,-270.2423 c 3.93661,-14.691651 -4.7961,-29.817172 -19.50566,-33.784762 z M 316.1763,137.15434 c 3.97816,1.06595 6.44442,2.23658 9.85782,4.14446 4.99134,2.75465 8.44949,8.03587 7.15037,12.88425 -1.56257,5.83162 -7.33394,9.04383 -14.04706,7.24504 -3.17575,-0.85093 -3.9594,-1.83275 -8.63825,-3.08645 -13.82183,-3.70355 -28.01922,4.20427 -31.51987,17.26889 l -5.31152,19.82282 c -0.49662,1.85344 0.1627,3.04972 2.77338,3.74925 l 16.26002,4.35686 c 6.13674,1.64434 9.83096,8.48968 8.26839,14.32129 -1.56257,5.83159 -8.13931,9.92484 -14.32129,8.26839 l -19.78491,-5.30136 -6.05289,22.58968 c -6.63489,24.76176 -33.61109,39.45765 -59.79682,32.44121 -3.97817,-1.06595 -6.43232,-2.2818 -9.85782,-4.14446 -4.99133,-2.75466 -8.44041,-8.06978 -7.15038,-12.88426 1.57469,-5.8768 7.51675,-9.72606 14.22989,-7.92728 l 8.83119,2.36632 c 13.77661,3.69143 27.51592,-2.50678 31.05271,-15.52539 l 5.17947,-19.3301 c 0.92363,-3.44698 -0.60605,-4.06223 -2.54993,-4.5831 l -16.26001,-4.35686 c -10.60088,-2.84049 -12.66153,-9.29656 -11.11106,-15.08296 1.57468,-5.87683 7.52633,-10.08911 16.97442,-7.5575 l 19.97444,5.35214 6.06304,-22.62759 c 6.63489,-24.76175 33.60094,-39.41974 59.78667,-32.40329 z M 163.96909,360.13825 141.64653,443.44717 244.47506,471 266.74955,387.71882 163.96909,360.13825 z m 12.70779,53.69682 20.88408,5.59587 -4.55254,17.14193 -20.94973,-5.65409 4.61819,-17.08371 z m 31.8757,8.54107 20.88408,5.59587 -4.58028,17.09386 -20.92199,-5.60602 4.61819,-17.08371 z"
     inkscape:connector-curvature="0"
     id="path4175"
     style="fill:#ffffff;fill-opacity:1" />
</svg>
