<?xml version="1.0" encoding="UTF-8" standalone="no"?>
<!-- Created with Inkscape (http://www.inkscape.org/) -->

<svg
   xmlns:dc="http://purl.org/dc/elements/1.1/"
   xmlns:cc="http://creativecommons.org/ns#"
   xmlns:rdf="http://www.w3.org/1999/02/22-rdf-syntax-ns#"
   xmlns:svg="http://www.w3.org/2000/svg"
   xmlns="http://www.w3.org/2000/svg"
   xmlns:inkscape="http://www.inkscape.org/namespaces/inkscape"
   version="1.1"
   width="100%"
   height="100%"
   viewBox="0 0 512 512"
   id="svg2">
  <metadata
     id="metadata10">
    <rdf:RDF>
      <cc:Work
         rdf:about="">
        <dc:format>image/svg+xml</dc:format>
        <dc:type
           rdf:resource="http://purl.org/dc/dcmitype/StillImage" />
        <dc:title />
      </cc:Work>
    </rdf:RDF>
  </metadata>
  <defs
     id="defs8">
    <clipPath
       id="clipPath3897">
      <path
         d="M 26,0 C 11.602648,0 0,11.602648 0,26 l 0,460 c 0,14.39735 11.602648,26 26,26 l 460,0 c 14.39735,0 26,-11.60265 26,-26 L 512,26 C 512,11.602648 500.39735,0 486,0 L 26,0 z"
         inkscape:connector-curvature="0"
         id="path3899"
         style="fill:none;fill-opacity:1;stroke:none" />
    </clipPath>
  </defs>
  <path
     d="M 26,0 C 11.602648,0 0,11.602648 0,26 l 0,460 c 0,14.39735 11.602648,26 26,26 l 460,0 c 14.39735,0 26,-11.60265 26,-26 L 512,26 C 512,11.602648 500.39735,0 486,0 L 26,0 z"
     inkscape:connector-curvature="0"
     id="rect2986"
     style="fill:none;fill-opacity:1;stroke:none" />
  <g
     clip-path="url(#clipPath3897)"
     id="g3449"
     style="opacity:0.0;fill:#000000;fill-opacity:1;stroke:none">
    <path
       d="m 41,60.632555 0,390.734895 388.90873,388.90873 0,-390.7349 z"
       inkscape:connector-curvature="0"
       id="path3451"
       style="fill:#000000" />
    <path
       d="m 41,451.36745 430,0 388.90873,388.90873 -430,0 z"
       inkscape:connector-curvature="0"
       id="path3453"
       style="fill:#000000" />
    <path
       d="m 471,451.36745 0,-390.734895 388.90873,388.908725 0,390.7349 z"
       inkscape:connector-curvature="0"
       id="path3455"
       style="fill:#000000" />
    <path
       d="m 471,60.632555 -430,0 388.90873,388.908725 430,0 z"
       inkscape:connector-curvature="0"
       id="path3457"
       style="fill:#000000" />
    <path
       d="m 74.9978,122.33473 362.00443,0 388.90873,388.90873 -362.00443,0 z"
       inkscape:connector-curvature="0"
       id="path3459"
       style="fill:#000000" />
    <path
       d="m 437.00223,122.33473 0,298.18163 388.90873,388.90873 0,-298.18163 z"
       inkscape:connector-curvature="0"
       id="path3461"
       style="fill:#000000" />
    <path
       d="m 437.00223,420.51636 -362.00443,0 388.90873,388.90873 362.00443,0 z"
       inkscape:connector-curvature="0"
       id="path3463"
       style="fill:#000000" />
    <path
       d="m 74.9978,420.51636 0,-298.18163 388.90873,388.90873 0,298.18163 z"
       inkscape:connector-curvature="0"
       id="path3465"
       style="fill:#000000" />
    <path
       d="m 158.5216,138.88898 0,54.72478 388.90873,388.90873 0,-54.72478 z"
       inkscape:connector-curvature="0"
       id="path3467"
       style="fill:#000000" />
    <path
       d="m 158.5216,193.61376 54.72463,0 388.90873,388.90873 -54.72463,0 z"
       inkscape:connector-curvature="0"
       id="path3469"
       style="fill:#000000" />
    <path
       d="m 213.24623,193.61376 0,-54.72478 388.90873,388.90873 0,54.72478 z"
       inkscape:connector-curvature="0"
       id="path3471"
       style="fill:#000000" />
    <path
       d="m 213.24623,138.88898 -54.72463,0 388.90873,388.90873 54.72463,0 z"
       inkscape:connector-curvature="0"
       id="path3473"
       style="fill:#000000" />
    <path
       d="m 228.97967,138.88898 0,54.72478 388.90873,388.90873 0,-54.72478 z"
       inkscape:connector-curvature="0"
       id="path3475"
       style="fill:#000000" />
    <path
       d="m 228.97967,193.61376 54.72479,0 388.90873,388.90873 -54.72479,0 z"
       inkscape:connector-curvature="0"
       id="path3477"
       style="fill:#000000" />
    <path
       d="m 283.70446,193.61376 0,-54.72478 388.90873,388.90873 0,54.72478 z"
       inkscape:connector-curvature="0"
       id="path3479"
       style="fill:#000000" />
    <path
       d="m 283.70446,138.88898 -54.72479,0 388.90873,388.90873 54.72479,0 z"
       inkscape:connector-curvature="0"
       id="path3481"
       style="fill:#000000" />
    <path
       d="m 299.50623,138.88898 0,54.72478 388.90873,388.90873 0,-54.72478 z"
       inkscape:connector-curvature="0"
       id="path3483"
       style="fill:#000000" />
    <path
       d="m 299.50623,193.61376 54.72477,0 388.90873,388.90873 -54.72477,0 z"
       inkscape:connector-curvature="0"
       id="path3485"
       style="fill:#000000" />
    <path
       d="m 354.231,193.61376 0,-54.72478 388.90873,388.90873 0,54.72478 z"
       inkscape:connector-curvature="0"
       id="path3487"
       style="fill:#000000" />
    <path
       d="m 354.231,138.88898 -54.72477,0 388.90873,388.90873 54.72477,0 z"
       inkscape:connector-curvature="0"
       id="path3489"
       style="fill:#000000" />
    <path
       d="m 369.96438,138.88898 0,54.72478 388.90873,388.90873 0,-54.72478 z"
       inkscape:connector-curvature="0"
       id="path3491"
       style="fill:#000000" />
    <path
       d="m 369.96438,193.61376 54.72478,0 388.90873,388.90873 -54.72478,0 z"
       inkscape:connector-curvature="0"
       id="path3493"
       style="fill:#000000" />
    <path
       d="m 424.68916,193.61376 0,-54.72478 388.90873,388.90873 0,54.72478 z"
       inkscape:connector-curvature="0"
       id="path3495"
       style="fill:#000000" />
    <path
       d="m 424.68916,138.88898 -54.72478,0 388.90873,388.90873 54.72478,0 z"
       inkscape:connector-curvature="0"
       id="path3497"
       style="fill:#000000" />
    <path
       d="m 88.0633,209.34713 0,54.72477 388.90873,388.90873 0,-54.72477 z"
       inkscape:connector-curvature="0"
       id="path3499"
       style="fill:#000000" />
    <path
       d="m 88.0633,264.0719 54.7248,0 388.90873,388.90873 -54.7248,0 z"
       inkscape:connector-curvature="0"
       id="path3501"
       style="fill:#000000" />
    <path
       d="m 142.7881,264.0719 0,-54.72477 388.90873,388.90873 0,54.72477 z"
       inkscape:connector-curvature="0"
       id="path3503"
       style="fill:#000000" />
    <path
       d="m 142.7881,209.34713 -54.7248,0 388.90873,388.90873 54.7248,0 z"
       inkscape:connector-curvature="0"
       id="path3505"
       style="fill:#000000" />
    <path
       d="m 158.5216,209.34713 0,54.72477 388.90873,388.90873 0,-54.72477 z"
       inkscape:connector-curvature="0"
       id="path3507"
       style="fill:#000000" />
    <path
       d="m 158.5216,264.0719 54.72463,0 388.90873,388.90873 -54.72463,0 z"
       inkscape:connector-curvature="0"
       id="path3509"
       style="fill:#000000" />
    <path
       d="m 213.24623,264.0719 0,-54.72477 388.90873,388.90873 0,54.72477 z"
       inkscape:connector-curvature="0"
       id="path3511"
       style="fill:#000000" />
    <path
       d="m 213.24623,209.34713 -54.72463,0 388.90873,388.90873 54.72463,0 z"
       inkscape:connector-curvature="0"
       id="path3513"
       style="fill:#000000" />
    <path
       d="m 228.97967,209.34713 0,54.72477 388.90873,388.90873 0,-54.72477 z"
       inkscape:connector-curvature="0"
       id="path3515"
       style="fill:#000000" />
    <path
       d="m 228.97967,264.0719 54.72479,0 388.90873,388.90873 -54.72479,0 z"
       inkscape:connector-curvature="0"
       id="path3517"
       style="fill:#000000" />
    <path
       d="m 283.70446,264.0719 0,-54.72477 388.90873,388.90873 0,54.72477 z"
       inkscape:connector-curvature="0"
       id="path3519"
       style="fill:#000000" />
    <path
       d="m 283.70446,209.34713 -54.72479,0 388.90873,388.90873 54.72479,0 z"
       inkscape:connector-curvature="0"
       id="path3521"
       style="fill:#000000" />
    <path
       d="m 299.50623,209.34713 0,54.72477 388.90873,388.90873 0,-54.72477 z"
       inkscape:connector-curvature="0"
       id="path3523"
       style="fill:#000000" />
    <path
       d="m 299.50623,264.0719 54.72477,0 388.90873,388.90873 -54.72477,0 z"
       inkscape:connector-curvature="0"
       id="path3525"
       style="fill:#000000" />
    <path
       d="m 354.231,264.0719 0,-54.72477 388.90873,388.90873 0,54.72477 z"
       inkscape:connector-curvature="0"
       id="path3527"
       style="fill:#000000" />
    <path
       d="m 354.231,209.34713 -54.72477,0 388.90873,388.90873 54.72477,0 z"
       inkscape:connector-curvature="0"
       id="path3529"
       style="fill:#000000" />
    <path
       d="m 369.96438,209.34713 0,54.72477 388.90873,388.90873 0,-54.72477 z"
       inkscape:connector-curvature="0"
       id="path3531"
       style="fill:#000000" />
    <path
       d="m 369.96438,264.0719 54.72478,0 388.90873,388.90873 -54.72478,0 z"
       inkscape:connector-curvature="0"
       id="path3533"
       style="fill:#000000" />
    <path
       d="m 424.68916,264.0719 0,-54.72477 388.90873,388.90873 0,54.72477 z"
       inkscape:connector-curvature="0"
       id="path3535"
       style="fill:#000000" />
    <path
       d="m 424.68916,209.34713 -54.72478,0 388.90873,388.90873 54.72478,0 z"
       inkscape:connector-curvature="0"
       id="path3537"
       style="fill:#000000" />
    <path
       d="m 88.0633,279.87368 0,54.72479 388.90873,388.90873 0,-54.72479 z"
       inkscape:connector-curvature="0"
       id="path3539"
       style="fill:#000000" />
    <path
       d="m 88.0633,334.59847 54.7248,0 388.90873,388.90873 -54.7248,0 z"
       inkscape:connector-curvature="0"
       id="path3541"
       style="fill:#000000" />
    <path
       d="m 142.7881,334.59847 0,-54.72479 388.90873,388.90873 0,54.72479 z"
       inkscape:connector-curvature="0"
       id="path3543"
       style="fill:#000000" />
    <path
       d="m 142.7881,279.87368 -54.7248,0 388.90873,388.90873 54.7248,0 z"
       inkscape:connector-curvature="0"
       id="path3545"
       style="fill:#000000" />
    <path
       d="m 158.5216,279.87368 0,54.72479 388.90873,388.90873 0,-54.72479 z"
       inkscape:connector-curvature="0"
       id="path3547"
       style="fill:#000000" />
    <path
       d="m 158.5216,334.59847 54.72463,0 388.90873,388.90873 -54.72463,0 z"
       inkscape:connector-curvature="0"
       id="path3549"
       style="fill:#000000" />
    <path
       d="m 213.24623,334.59847 0,-54.72479 388.90873,388.90873 0,54.72479 z"
       inkscape:connector-curvature="0"
       id="path3551"
       style="fill:#000000" />
    <path
       d="m 213.24623,279.87368 -54.72463,0 388.90873,388.90873 54.72463,0 z"
       inkscape:connector-curvature="0"
       id="path3553"
       style="fill:#000000" />
    <path
       d="m 228.97967,279.87368 0,54.72479 388.90873,388.90873 0,-54.72479 z"
       inkscape:connector-curvature="0"
       id="path3555"
       style="fill:#000000" />
    <path
       d="m 228.97967,334.59847 54.72479,0 388.90873,388.90873 -54.72479,0 z"
       inkscape:connector-curvature="0"
       id="path3557"
       style="fill:#000000" />
    <path
       d="m 283.70446,334.59847 0,-54.72479 388.90873,388.90873 0,54.72479 z"
       inkscape:connector-curvature="0"
       id="path3559"
       style="fill:#000000" />
    <path
       d="m 283.70446,279.87368 -54.72479,0 388.90873,388.90873 54.72479,0 z"
       inkscape:connector-curvature="0"
       id="path3561"
       style="fill:#000000" />
    <path
       d="m 299.50623,279.87368 0,54.72479 388.90873,388.90873 0,-54.72479 z"
       inkscape:connector-curvature="0"
       id="path3563"
       style="fill:#000000" />
    <path
       d="m 299.50623,334.59847 54.72477,0 388.90873,388.90873 -54.72477,0 z"
       inkscape:connector-curvature="0"
       id="path3565"
       style="fill:#000000" />
    <path
       d="m 354.231,334.59847 0,-54.72479 388.90873,388.90873 0,54.72479 z"
       inkscape:connector-curvature="0"
       id="path3567"
       style="fill:#000000" />
    <path
       d="m 354.231,279.87368 -54.72477,0 388.90873,388.90873 54.72477,0 z"
       inkscape:connector-curvature="0"
       id="path3569"
       style="fill:#000000" />
    <path
       d="m 369.96438,279.87368 0,54.72479 388.90873,388.90873 0,-54.72479 z"
       inkscape:connector-curvature="0"
       id="path3571"
       style="fill:#000000" />
    <path
       d="m 369.96438,334.59847 54.72478,0 388.90873,388.90873 -54.72478,0 z"
       inkscape:connector-curvature="0"
       id="path3573"
       style="fill:#000000" />
    <path
       d="m 424.68916,334.59847 0,-54.72479 388.90873,388.90873 0,54.72479 z"
       inkscape:connector-curvature="0"
       id="path3575"
       style="fill:#000000" />
    <path
       d="m 424.68916,279.87368 -54.72478,0 388.90873,388.90873 54.72478,0 z"
       inkscape:connector-curvature="0"
       id="path3577"
       style="fill:#000000" />
    <path
       d="m 88.0633,350.33183 0,54.72477 388.90873,388.90873 0,-54.72477 z"
       inkscape:connector-curvature="0"
       id="path3579"
       style="fill:#000000" />
    <path
       d="m 88.0633,405.0566 54.7248,0 388.90873,388.90873 -54.7248,0 z"
       inkscape:connector-curvature="0"
       id="path3581"
       style="fill:#000000" />
    <path
       d="m 142.7881,405.0566 0,-54.72477 388.90873,388.90873 0,54.72477 z"
       inkscape:connector-curvature="0"
       id="path3583"
       style="fill:#000000" />
    <path
       d="m 142.7881,350.33183 -54.7248,0 388.90873,388.90873 54.7248,0 z"
       inkscape:connector-curvature="0"
       id="path3585"
       style="fill:#000000" />
    <path
       d="m 158.5216,350.33183 0,54.72477 388.90873,388.90873 0,-54.72477 z"
       inkscape:connector-curvature="0"
       id="path3587"
       style="fill:#000000" />
    <path
       d="m 158.5216,405.0566 54.72463,0 388.90873,388.90873 -54.72463,0 z"
       inkscape:connector-curvature="0"
       id="path3589"
       style="fill:#000000" />
    <path
       d="m 213.24623,405.0566 0,-54.72477 388.90873,388.90873 0,54.72477 z"
       inkscape:connector-curvature="0"
       id="path3591"
       style="fill:#000000" />
    <path
       d="m 213.24623,350.33183 -54.72463,0 388.90873,388.90873 54.72463,0 z"
       inkscape:connector-curvature="0"
       id="path3593"
       style="fill:#000000" />
    <path
       d="m 228.97967,350.33183 0,54.72477 388.90873,388.90873 0,-54.72477 z"
       inkscape:connector-curvature="0"
       id="path3595"
       style="fill:#000000" />
    <path
       d="m 228.97967,405.0566 54.72479,0 388.90873,388.90873 -54.72479,0 z"
       inkscape:connector-curvature="0"
       id="path3597"
       style="fill:#000000" />
    <path
       d="m 283.70446,405.0566 0,-54.72477 388.90873,388.90873 0,54.72477 z"
       inkscape:connector-curvature="0"
       id="path3599"
       style="fill:#000000" />
    <path
       d="m 283.70446,350.33183 -54.72479,0 388.90873,388.90873 54.72479,0 z"
       inkscape:connector-curvature="0"
       id="path3601"
       style="fill:#000000" />
    <path
       d="m 299.50623,350.33183 0,54.72477 388.90873,388.90873 0,-54.72477 z"
       inkscape:connector-curvature="0"
       id="path3603"
       style="fill:#000000" />
    <path
       d="m 299.50623,405.0566 54.72477,0 388.90873,388.90873 -54.72477,0 z"
       inkscape:connector-curvature="0"
       id="path3605"
       style="fill:#000000" />
    <path
       d="m 354.231,405.0566 0,-54.72477 388.90873,388.90873 0,54.72477 z"
       inkscape:connector-curvature="0"
       id="path3607"
       style="fill:#000000" />
    <path
       d="m 354.231,350.33183 -54.72477,0 388.90873,388.90873 54.72477,0 z"
       inkscape:connector-curvature="0"
       id="path3609"
       style="fill:#000000" />
  </g>
  <path
     d="m 41,60.632555 0,390.734895 430,0 0,-390.734895 -430,0 z m 33.9978,61.702175 362.00443,0 0,298.18163 -362.00443,0 0,-298.18163 z m 83.5238,16.55425 0,54.72478 54.72463,0 0,-54.72478 -54.72463,0 z m 70.45807,0 0,54.72478 54.72479,0 0,-54.72478 -54.72479,0 z m 70.52656,0 0,54.72478 54.72477,0 0,-54.72478 -54.72477,0 z m 70.45815,0 0,54.72478 54.72478,0 0,-54.72478 -54.72478,0 z m -281.90108,70.45815 0,54.72477 54.7248,0 0,-54.72477 -54.7248,0 z m 70.4583,0 0,54.72477 54.72463,0 0,-54.72477 -54.72463,0 z m 70.45807,0 0,54.72477 54.72479,0 0,-54.72477 -54.72479,0 z m 70.52656,0 0,54.72477 54.72477,0 0,-54.72477 -54.72477,0 z m 70.45815,0 0,54.72477 54.72478,0 0,-54.72477 -54.72478,0 z m -281.90108,70.52655 0,54.72479 54.7248,0 0,-54.72479 -54.7248,0 z m 70.4583,0 0,54.72479 54.72463,0 0,-54.72479 -54.72463,0 z m 70.45807,0 0,54.72479 54.72479,0 0,-54.72479 -54.72479,0 z m 70.52656,0 0,54.72479 54.72477,0 0,-54.72479 -54.72477,0 z m 70.45815,0 0,54.72479 54.72478,0 0,-54.72479 -54.72478,0 z m -281.90108,70.45815 0,54.72477 54.7248,0 0,-54.72477 -54.7248,0 z m 70.4583,0 0,54.72477 54.72463,0 0,-54.72477 -54.72463,0 z m 70.45807,0 0,54.72477 54.72479,0 0,-54.72477 -54.72479,0 z m 70.52656,0 0,54.72477 54.72477,0 0,-54.72477 -54.72477,0 z"
     inkscape:connector-curvature="0"
     id="rect3115"
     style="fill:#ffffff;fill-opacity:1;stroke:none" />
</svg>
