<?xml version="1.0" encoding="UTF-8" standalone="no"?>
<!-- Created with Inkscape (http://www.inkscape.org/) -->

<svg
   xmlns:dc="http://purl.org/dc/elements/1.1/"
   xmlns:cc="http://creativecommons.org/ns#"
   xmlns:rdf="http://www.w3.org/1999/02/22-rdf-syntax-ns#"
   xmlns:svg="http://www.w3.org/2000/svg"
   xmlns="http://www.w3.org/2000/svg"
   xmlns:sodipodi="http://sodipodi.sourceforge.net/DTD/sodipodi-0.dtd"
   xmlns:inkscape="http://www.inkscape.org/namespaces/inkscape"
   version="1.1"
   width="100%"
   height="100%"
   viewBox="0 0 512 512"
   id="svg2"
   inkscape:version="0.48.5 r10040"
   sodipodi:docname="ooo-impress.svg">
  <sodipodi:namedview
     pagecolor="#ffffff"
     bordercolor="#666666"
     borderopacity="1"
     objecttolerance="10"
     gridtolerance="10"
     guidetolerance="10"
     inkscape:pageopacity="0"
     inkscape:pageshadow="2"
     inkscape:window-width="640"
     inkscape:window-height="480"
     id="namedview248"
     showgrid="false"
     inkscape:zoom="0.4609375"
     inkscape:cx="256"
     inkscape:cy="256"
     inkscape:window-x="56"
     inkscape:window-y="0"
     inkscape:window-maximized="0"
     inkscape:current-layer="svg2" />
  <metadata
     id="metadata511">
    <rdf:RDF>
      <cc:Work
         rdf:about="">
        <dc:format>image/svg+xml</dc:format>
        <dc:type
           rdf:resource="http://purl.org/dc/dcmitype/StillImage" />
      </cc:Work>
    </rdf:RDF>
  </metadata>
  <defs
     id="defs4" />
  <path
     d="M 26,0 C 11.603,0 0,11.603 0,26 v 460 c 0,14.397 11.603,26 26,26 h 460 c 14.397,0 26,-11.603 26,-26 V 26 C 512,11.603 500.397,0 486,0 H 26"
     inkscape:connector-curvature="0"
     id="path23"
     style="fill:none" />
  <path
     d="M 26,0 C 11.603,0 0,11.603 0,26 v 460 c 0,14.397 11.603,26 26,26 H 199 C 214.383,438.55 208.774,366.4 185.88,280.94 155.377,167.1 144.51,89.67 173.85,0 H 26.01"
     inkscape:connector-curvature="0"
     id="path25"
     style="fill:none" />
  <g
     id="g69"
     style="line-height:125%;letter-spacing:0;word-spacing:0;font-family:Gentium Book Basic">
  </g>
  <g
     id="g117"
     style="line-height:125%;letter-spacing:0;word-spacing:0;font-family:Gentium Book Basic">
  </g>
  <g
     id="g165"
     style="line-height:125%;letter-spacing:0;word-spacing:0;font-family:Gentium Book Basic">
  </g>
  <g
     id="g213"
     style="line-height:125%;letter-spacing:0;word-spacing:0;font-family:Gentium Book Basic">
  </g>
  <g
     id="g261"
     style="line-height:125%;letter-spacing:0;word-spacing:0;font-family:Gentium Book Basic">
  </g>
  <g
     id="g309"
     style="line-height:125%;letter-spacing:0;word-spacing:0;font-family:Gentium Book Basic">
  </g>
  <g
     id="g357"
     style="line-height:125%;letter-spacing:0;word-spacing:0;font-family:Gentium Book Basic">
  </g>
  <g
     id="g405"
     style="line-height:125%;letter-spacing:0;word-spacing:0;font-family:Gentium Book Basic">
  </g>
  <g
     id="g453"
     style="line-height:125%;letter-spacing:0;word-spacing:0;font-family:Gentium Book Basic">
  </g>
  <path
     d="m 41,90.66 v 99.22 l 49.625,49.625 H 41 v 99.22 l 49.563,49.563 H 41 v 33.06 l 90.66,90.66 H 486 c 14.397,0 26,-11.603 26,-26 v -286.44 l -73,-73 -1.938,-1.969 C 416.105,103.642 387.171,90.661 355.192,90.661 v 33.31 l -16.75,-16.75 c -40.34,0 -75.866,20.635 -96.59,51.938 l -68.5,-68.5 H 41.012"
     inkscape:connector-curvature="0"
     id="path505"
     style="opacity:0.0" />
  <path
     d="m 41,90.66 v 99.22 H 173.33 V 90.66 H 41 m 314.18,0 V 206.48 H 471 C 471,142.556 419.158,90.66 355.18,90.66 m -16.745,16.553 c -63.924,0 -115.78,51.794 -115.78,115.78 0,63.924 51.794,115.78 115.78,115.78 63.924,0 115.78,-51.794 115.78,-115.78 h -115.78 v -115.78 m -297.43,132.28 v 99.22 h 132.33 v -99.22 H 41.005 m 0,148.79 v 33.06 h 429.95 v -33.06 H 41.005"
     inkscape:connector-curvature="0"
     id="path507"
     style="fill:#ffffff" />
</svg>
