<?xml version="1.0" encoding="UTF-8" standalone="no"?>
<!-- Created with Inkscape (http://www.inkscape.org/) -->

<svg
   xmlns:dc="http://purl.org/dc/elements/1.1/"
   xmlns:cc="http://creativecommons.org/ns#"
   xmlns:rdf="http://www.w3.org/1999/02/22-rdf-syntax-ns#"
   xmlns:svg="http://www.w3.org/2000/svg"
   xmlns="http://www.w3.org/2000/svg"
   xmlns:inkscape="http://www.inkscape.org/namespaces/inkscape"
   version="1.1"
   width="100%"
   height="100%"
   viewBox="0 0 512 512"
   id="svg2">
  <metadata
     id="metadata173">
    <rdf:RDF>
      <cc:Work
         rdf:about="">
        <dc:format>image/svg+xml</dc:format>
        <dc:type
           rdf:resource="http://purl.org/dc/dcmitype/StillImage" />
      </cc:Work>
    </rdf:RDF>
  </metadata>
  <defs
     id="defs4" />
  <path
     d="M 26,0 C 11.603,0 0,11.603 0,26 v 460 c 0,14.397 11.603,26 26,26 h 460 c 14.397,0 26,-11.603 26,-26 V 26 C 512,11.603 500.397,0 486,0 H 26"
     inkscape:connector-curvature="0"
     id="path19"
     style="fill:none" />
  <path
     d="M 26,0 C 11.603,0 0,11.603 0,26 v 460 c 0,14.397 11.603,26 26,26 H 199 C 214.383,438.55 208.774,366.4 185.88,280.94 155.377,167.1 144.51,89.67 173.85,0 H 26.01"
     inkscape:connector-curvature="0"
     id="path21"
     style="fill:none" />
  <g
     id="g65"
     style="line-height:125%;letter-spacing:0;word-spacing:0;font-family:Gentium Book Basic">
  </g>
  <g
     id="g113"
     style="line-height:125%;letter-spacing:0;word-spacing:0;font-family:Gentium Book Basic">
  </g>
  <g
     id="g165"
     style="color:#000000">
    <path
       d="m 66.75,56.75 51.53,51.53 H 92.53 v 25.813 L 41,82.563 v 346.88 l 25.813,25.813 H 66.75 l 56.75,56.75 H 486 c 14.397,0 26,-11.603 26,-26 v -362.5 L 445.25,56.756 H 66.75"
       inkscape:connector-curvature="0"
       id="path167"
       style="opacity:0.0" />
    <path
       d="m 66.746495,56.748116 a 25.767041,25.767041 0 0 0 -25.74648,25.80024 V 429.45 a 25.767041,25.767041 0 0 0 25.74648,25.80024 H 445.25 A 25.767041,25.767041 0 0 0 470.9966,429.45 V 82.55 A 25.767041,25.767041 0 0 0 445.25,56.74976 H 66.746 m 25.8,51.55 H 230.26 V 227.99 H 92.55 v -119.7 m 189.21,0 h 137.72 v 119.7 H 281.76 V 108.29 M 92.55,279.48 H 230.26 V 403.71 H 92.55 V 279.48 m 189.21,0 H 419.48 V 403.71 H 281.76 V 279.48"
       inkscape:connector-curvature="0"
       id="path169"
       style="fill:#ffffff" />
  </g>
</svg>
