<?xml version="1.0" encoding="UTF-8" standalone="no"?>
<!-- Created with Inkscape (http://www.inkscape.org/) -->

<svg
   xmlns:dc="http://purl.org/dc/elements/1.1/"
   xmlns:cc="http://creativecommons.org/ns#"
   xmlns:rdf="http://www.w3.org/1999/02/22-rdf-syntax-ns#"
   xmlns:svg="http://www.w3.org/2000/svg"
   xmlns="http://www.w3.org/2000/svg"
   xmlns:sodipodi="http://sodipodi.sourceforge.net/DTD/sodipodi-0.dtd"
   xmlns:inkscape="http://www.inkscape.org/namespaces/inkscape"
   version="1.1"
   width="100%"
   height="100%"
   viewBox="0 0 512 512"
   id="svg2"
   inkscape:version="0.48.5 r10040"
   sodipodi:docname="pychess.svg">
  <sodipodi:namedview
     pagecolor="#ffffff"
     bordercolor="#666666"
     borderopacity="1"
     objecttolerance="10"
     gridtolerance="10"
     guidetolerance="10"
     inkscape:pageopacity="0"
     inkscape:pageshadow="2"
     inkscape:window-width="640"
     inkscape:window-height="480"
     id="namedview125"
     showgrid="false"
     inkscape:zoom="0.4609375"
     inkscape:cx="256"
     inkscape:cy="256"
     inkscape:window-x="56"
     inkscape:window-y="0"
     inkscape:window-maximized="0"
     inkscape:current-layer="svg2" />
  <metadata
     id="metadata247">
    <rdf:RDF>
      <cc:Work
         rdf:about="">
        <dc:format>image/svg+xml</dc:format>
        <dc:type
           rdf:resource="http://purl.org/dc/dcmitype/StillImage" />
      </cc:Work>
    </rdf:RDF>
  </metadata>
  <defs
     id="defs4">
    <clipPath
       id="0">
      <path
         d="M 26,0 C 11.603,0 0,11.603 0,26 v 460 c 0,14.397 11.603,26 26,26 h 460 c 14.397,0 26,-11.603 26,-26 V 26 C 512,11.603 500.397,0 486,0 H 26"
         inkscape:connector-curvature="0"
         id="path7" />
    </clipPath>
  </defs>
  <path
     d="M 26,0 C 11.603,0 0,11.603 0,26 v 460 c 0,14.397 11.603,26 26,26 h 460 c 14.397,0 26,-11.603 26,-26 V 26 C 512,11.603 500.397,0 486,0 H 26"
     inkscape:connector-curvature="0"
     id="path9"
     style="fill:none" />
  <g
     clip-path="url(#0)"
     id="g57"
     style="opacity:0.0">
    <path
       d="m 191.47,453.98 c -18.796,-1.296 -36.27,-4.889 -50.28,-10.339 l 353.55,353.55 c 14.02,5.45 31.489,9.04 50.28,10.339 z"
       inkscape:connector-curvature="0"
       id="path59" />
    <path
       d="m 141.19,443.64 c -8.07,-3.136 -18.04,-8.148 -19.791,-9.896 l 353.55,353.55 c 1.748,1.748 11.723,6.759 19.791,9.896 z"
       inkscape:connector-curvature="0"
       id="path61" />
    <path
       d="m 121.4,433.75 c -0.089,-0.089 -0.157,-0.17 -0.202,-0.242 l 353.55,353.55 c 0.045,0.072 0.113,0.153 0.202,0.242 z"
       inkscape:connector-curvature="0"
       id="path63" />
    <path
       d="m 121.19,433.5 c -0.291,-0.462 3.369,-9.657 8.13,-20.433 l 353.55,353.55 c -4.761,10.775 -8.421,19.971 -8.13,20.433 z"
       inkscape:connector-curvature="0"
       id="path65" />
    <path
       d="m 129.32,413.07 c 4.763,-10.775 8.66,-20.06 8.66,-20.634 l 353.55,353.55 c 0,0.573 -3.897,9.859 -8.66,20.634 z"
       inkscape:connector-curvature="0"
       id="path67" />
    <path
       d="m 137.98,392.44 c 0,-1.121 -14.392,-33.888 -17.235,-39.24 l 353.55,353.55 c 2.844,5.351 17.235,38.12 17.235,39.24 z"
       inkscape:connector-curvature="0"
       id="path69" />
    <path
       d="m 120.75,353.2 c -0.944,-1.778 -9.06,-12.03 -18.02,-22.78 l 353.55,353.55 c 8.958,10.745 17.08,21 18.02,22.78 z"
       inkscape:connector-curvature="0"
       id="path71" />
    <path
       d="m 102.73,330.42 -16.309,-19.552 353.55,353.55 16.309,19.552 z"
       inkscape:connector-curvature="0"
       id="path73" />
    <path
       d="m 86.42,310.87 -1.076,-8.594 353.55,353.55 1.076,8.594 z"
       inkscape:connector-curvature="0"
       id="path75" />
    <path
       d="m 85.34,302.27 c -0.591,-4.727 -5.03,-39.751 -9.872,-77.83 l 353.55,353.55 c 4.838,38.08 9.281,73.1 9.872,77.83 z"
       inkscape:connector-curvature="0"
       id="path77" />
    <path
       d="m 75.47,224.44 -8.796,-69.23 353.55,353.55 8.796,69.23 z"
       inkscape:connector-curvature="0"
       id="path79" />
    <path
       d="m 66.67,155.21 -5.171,-0.636 353.55,353.55 5.171,0.636 z"
       inkscape:connector-curvature="0"
       id="path81" />
    <path
       d="m 61.5,154.57 c -5.903,-0.726 -10.865,-3.207 -14.429,-6.77 l 353.55,353.55 c 3.564,3.564 8.526,6.04 14.429,6.77 z"
       inkscape:connector-curvature="0"
       id="path83" />
    <path
       d="m 47.07,147.8 c -5.45,-5.45 -7.628,-13.433 -4.892,-21.542 l 353.55,353.55 c -2.736,8.109 -0.558,16.09 4.892,21.542 z"
       inkscape:connector-curvature="0"
       id="path85" />
    <path
       d="m 42.18,126.26 c 1.924,-5.699 4.865,-9.224 10.339,-12.391 l 353.55,353.55 c -5.474,3.168 -8.415,6.692 -10.339,12.391 z"
       inkscape:connector-curvature="0"
       id="path87" />
    <path
       d="m 52.52,113.87 c 3.58,-2.071 5.244,-2.44 11.03,-2.44 L 417.1,464.98 c -5.781,0 -7.446,0.369 -11.03,2.44 z"
       inkscape:connector-curvature="0"
       id="path89" />
    <path
       d="m 63.55,111.43 c 5.782,0 7.446,0.368 11.03,2.44 l 353.55,353.55 c -3.58,-2.072 -5.244,-2.44 -11.03,-2.44 z"
       inkscape:connector-curvature="0"
       id="path91" />
    <path
       d="m 74.57,113.87 c 2.141,1.239 3.894,2.532 5.351,3.989 l 353.55,353.55 c -1.457,-1.457 -3.21,-2.75 -5.351,-3.989 z"
       inkscape:connector-curvature="0"
       id="path93" />
    <path
       d="m 79.923,117.86 c 2.268,2.268 3.816,4.932 4.988,8.402 l 353.55,353.55 c -1.171,-3.471 -2.72,-6.135 -4.988,-8.402 z"
       inkscape:connector-curvature="0"
       id="path95" />
    <path
       d="m 84.91,126.26 c 3.285,9.732 -0.992,20.617 -10.06,25.614 l 353.55,353.55 c 9.07,-4.997 13.349,-15.882 10.06,-25.614 z"
       inkscape:connector-curvature="0"
       id="path97" />
    <path
       d="m 74.846,151.87 c -1.049,0.578 5.666,14.86 33.3,70.825 l 353.55,353.55 c -27.631,-55.965 -34.35,-70.25 -33.3,-70.825 z"
       inkscape:connector-curvature="0"
       id="path99" />
    <path
       d="m 108.14,222.7 c 19.04,38.553 34.677,70.17 34.737,70.26 l 353.55,353.55 c -0.06,-0.09 -15.699,-31.706 -34.737,-70.26 z"
       inkscape:connector-curvature="0"
       id="path101" />
    <path
       d="m 142.88,292.96 c 0,0 0,0 0,0 l 353.55,353.55 c 0,0 0,0 0,0 z"
       inkscape:connector-curvature="0"
       id="path103" />
    <path
       d="m 142.88,292.96 c 0.189,0.189 9.716,-167.78 9.668,-170.48 l 353.55,353.55 c 0.048,2.7 -9.479,170.67 -9.668,170.48 z"
       inkscape:connector-curvature="0"
       id="path105" />
    <path
       d="m 152.55,122.48 c -0.017,-0.926 -0.145,-1.527 -0.605,-1.986 l 353.55,353.55 c 0.459,0.459 0.588,1.06 0.605,1.986 z"
       inkscape:connector-curvature="0"
       id="path107" />
    <path
       d="m 151.94,120.5 c -0.54,-0.54 -1.535,-0.884 -3.342,-1.331 l 353.55,353.55 c 1.807,0.447 2.802,0.792 3.342,1.331 z"
       inkscape:connector-curvature="0"
       id="path109" />
    <path
       d="m 148.6,119.16 c -3.733,-0.925 -7.512,-3.199 -10.492,-6.179 l 353.55,353.55 c 2.98,2.98 6.76,5.254 10.492,6.179 z"
       inkscape:connector-curvature="0"
       id="path111" />
    <path
       d="m 138.11,112.98 c -1.347,-1.347 -2.531,-2.838 -3.473,-4.414 l 353.55,353.55 c 0.942,1.576 2.126,3.067 3.473,4.414 z"
       inkscape:connector-curvature="0"
       id="path113" />
    <path
       d="m 134.64,108.57 c -2.197,-3.678 -2.557,-5.235 -2.557,-11.05 l 353.55,353.55 c 0,5.816 0.36,7.374 2.557,11.05 z"
       inkscape:connector-curvature="0"
       id="path115" />
    <path
       d="m 132.08,97.52 c 0,-5.974 0.324,-7.288 2.75,-11.167 l 353.55,353.55 c -2.426,3.879 -2.75,5.193 -2.75,11.167 z"
       inkscape:connector-curvature="0"
       id="path117" />
    <path
       d="m 134.83,86.35 c 8.123,-12.988 25.455,-14.412 35.597,-4.27 l 353.55,353.55 c -10.142,-10.142 -27.473,-8.718 -35.597,4.27 z"
       inkscape:connector-curvature="0"
       id="path119" />
    <path
       d="m 170.43,82.08 c 1.248,1.248 2.387,2.671 3.387,4.27 l 353.55,353.55 c -1,-1.598 -2.139,-3.02 -3.387,-4.27 z"
       inkscape:connector-curvature="0"
       id="path121" />
    <path
       d="m 173.81,86.35 c 2.432,3.889 2.75,5.186 2.75,11.237 l 353.55,353.55 c 0,-6.05 -0.318,-7.348 -2.75,-11.238 z"
       inkscape:connector-curvature="0"
       id="path123" />
    <path
       d="m 176.56,97.59 c 0,6.05 -0.32,7.353 -2.74,11.238 l 353.55,353.55 c 2.42,-3.885 2.74,-5.19 2.74,-11.238 z"
       inkscape:connector-curvature="0"
       id="path125" />
    <path
       d="m 173.82,108.83 c -1.636,2.624 -4.584,5.596 -7.315,7.371 l 353.55,353.55 c 2.731,-1.775 5.68,-4.746 7.315,-7.371 z"
       inkscape:connector-curvature="0"
       id="path127" />
    <path
       d="m 166.51,116.2 -4.575,2.973 353.55,353.55 4.575,-2.973 z"
       inkscape:connector-curvature="0"
       id="path129" />
    <path
       d="m 161.93,119.17 28.645,81.67 353.55,353.55 -28.645,-81.67 z"
       inkscape:connector-curvature="0"
       id="path131" />
    <path
       d="m 190.58,200.84 c 15.672,44.684 28.714,81.29 29.1,81.67 l 353.55,353.55 c -0.385,-0.385 -13.427,-36.987 -29.1,-81.67 z"
       inkscape:connector-curvature="0"
       id="path133" />
    <path
       d="m 219.68,282.51 c 0.002,0.002 0.004,0.003 0.005,0.003 l 353.55,353.55 c -10e-4,0 -0.003,-10e-4 -0.005,-0.003 z"
       inkscape:connector-curvature="0"
       id="path135" />
    <path
       d="m 219.68,282.52 c 0.315,0 30.09,-166.66 32.12,-179.85 l 353.55,353.55 c -2.033,13.19 -31.804,179.85 -32.12,179.85 z"
       inkscape:connector-curvature="0"
       id="path137" />
    <path
       d="m 251.8,102.66 c 0.014,-0.089 -0.049,-0.2 -0.176,-0.327 l 353.55,353.55 c 0.127,0.127 0.19,0.238 0.176,0.327 z"
       inkscape:connector-curvature="0"
       id="path139" />
    <path
       d="m 251.63,102.34 c -0.442,-0.442 -1.662,-1.073 -3.119,-1.579 l 353.55,353.55 c 1.457,0.506 2.677,1.137 3.119,1.579 z"
       inkscape:connector-curvature="0"
       id="path141" />
    <path
       d="m 248.51,100.76 c -3.19,-1.108 -6.123,-2.981 -8.569,-5.426 l 353.55,353.55 c 2.446,2.446 5.379,4.319 8.569,5.426 z"
       inkscape:connector-curvature="0"
       id="path143" />
    <path
       d="m 239.94,95.33 c -1.395,-1.395 -2.631,-2.976 -3.665,-4.707 l 353.55,353.55 c 1.034,1.731 2.27,3.312 3.665,4.707 z"
       inkscape:connector-curvature="0"
       id="path145" />
    <path
       d="m 236.27,90.63 c -2.152,-3.603 -2.516,-5.193 -2.516,-10.984 l 353.55,353.55 c 0,5.791 0.365,7.381 2.516,10.984 z"
       inkscape:connector-curvature="0"
       id="path147" />
    <path
       d="m 233.76,79.64 c 0,-5.974 0.324,-7.288 2.75,-11.167 l 353.55,353.55 c -2.426,3.879 -2.75,5.193 -2.75,11.167 z"
       inkscape:connector-curvature="0"
       id="path149" />
    <path
       d="m 236.51,68.47 c 8.123,-12.988 25.455,-14.412 35.597,-4.27 l 353.55,353.55 c -10.142,-10.142 -27.473,-8.718 -35.597,4.27 z"
       inkscape:connector-curvature="0"
       id="path151" />
    <path
       d="m 272.1,64.2 c 1.248,1.248 2.387,2.671 3.387,4.27 l 353.55,353.55 c -1,-1.598 -2.139,-3.02 -3.387,-4.27 z"
       inkscape:connector-curvature="0"
       id="path153" />
    <path
       d="m 275.49,68.47 c 2.426,3.879 2.75,5.193 2.75,11.167 l 353.55,353.55 c 0,-5.974 -0.324,-7.288 -2.75,-11.167 z"
       inkscape:connector-curvature="0"
       id="path155" />
    <path
       d="m 278.24,79.64 c 0,5.791 -0.365,7.381 -2.516,10.984 l 353.55,353.55 c 2.152,-3.603 2.516,-5.193 2.516,-10.984 z"
       inkscape:connector-curvature="0"
       id="path157" />
    <path
       d="m 275.73,90.63 c -2.848,4.767 -7.225,8.394 -12.234,10.133 l 353.55,353.55 c 5.01,-1.739 9.386,-5.366 12.234,-10.133 z"
       inkscape:connector-curvature="0"
       id="path159" />
    <path
       d="m 263.49,100.76 c -1.873,0.651 -3.355,1.516 -3.295,1.906 l 353.55,353.55 c -0.06,-0.39 1.423,-1.254 3.295,-1.906 z"
       inkscape:connector-curvature="0"
       id="path161" />
    <path
       d="m 260.2,102.66 c 2.037,13.164 31.745,179.48 32.12,179.85 l 353.55,353.55 c -0.373,-0.373 -30.08,-166.69 -32.12,-179.85 z"
       inkscape:connector-curvature="0"
       id="path163" />
    <path
       d="m 292.31,282.52 c 0,0 10e-4,0.001 10e-4,0.001 l 353.55,353.55 c 0,0 -10e-4,0 -10e-4,-10e-4 z"
       inkscape:connector-curvature="0"
       id="path165" />
    <path
       d="m 292.32,282.52 c 0.252,0 13.349,-36.754 29.1,-81.67 L 674.97,554.4 c -15.756,44.92 -28.852,81.67 -29.1,81.67 z"
       inkscape:connector-curvature="0"
       id="path167" />
    <path
       d="m 321.42,200.84 28.645,-81.67 353.55,353.55 -28.645,81.67 z"
       inkscape:connector-curvature="0"
       id="path169" />
    <path
       d="m 350.07,119.17 -4.575,-2.973 353.55,353.55 4.575,2.973 z"
       inkscape:connector-curvature="0"
       id="path171" />
    <path
       d="m 345.49,116.2 c -1.339,-0.87 -2.731,-2.028 -3.995,-3.292 l 353.55,353.55 c 1.264,1.264 2.656,2.422 3.995,3.292 z"
       inkscape:connector-curvature="0"
       id="path173" />
    <path
       d="m 341.5,112.91 c -1.313,-1.313 -2.488,-2.741 -3.322,-4.079 l 353.55,353.55 c 0.834,1.338 2.01,2.765 3.322,4.079 z"
       inkscape:connector-curvature="0"
       id="path175" />
    <path
       d="m 338.17,108.83 c -2.42,-3.885 -2.74,-5.195 -2.74,-11.238 l 353.55,353.55 c 0,6.04 0.32,7.353 2.74,11.238 z"
       inkscape:connector-curvature="0"
       id="path177" />
    <path
       d="m 335.43,97.59 c 0,-6.05 0.317,-7.348 2.75,-11.237 l 353.55,353.55 c -2.434,3.889 -2.75,5.19 -2.75,11.238 z"
       inkscape:connector-curvature="0"
       id="path179" />
    <path
       d="m 338.18,86.35 c 8.123,-12.988 25.455,-14.412 35.597,-4.27 l 353.55,353.55 c -10.142,-10.142 -27.473,-8.718 -35.597,4.27 z"
       inkscape:connector-curvature="0"
       id="path181" />
    <path
       d="m 373.78,82.08 c 1.248,1.248 2.387,2.671 3.387,4.27 l 353.55,353.55 c -1,-1.598 -2.139,-3.02 -3.387,-4.27 z"
       inkscape:connector-curvature="0"
       id="path183" />
    <path
       d="m 377.17,86.35 c 2.426,3.879 2.75,5.193 2.75,11.167 l 353.55,353.55 c 0,-5.974 -0.324,-7.288 -2.75,-11.167 z"
       inkscape:connector-curvature="0"
       id="path185" />
    <path
       d="m 379.92,97.52 c 0,5.816 -0.36,7.374 -2.557,11.05 l 353.55,353.55 c 2.197,-3.678 2.557,-5.235 2.557,-11.05 z"
       inkscape:connector-curvature="0"
       id="path187" />
    <path
       d="m 377.36,108.57 c -3.03,5.067 -8.544,9.255 -13.965,10.594 l 353.55,353.55 c 5.421,-1.338 10.934,-5.526 13.965,-10.594 z"
       inkscape:connector-curvature="0"
       id="path189" />
    <path
       d="m 363.4,119.16 c -3.343,0.828 -3.91,1.305 -3.946,3.318 l 353.55,353.55 c 0.036,-2.01 0.603,-2.489 3.946,-3.318 z"
       inkscape:connector-curvature="0"
       id="path191" />
    <path
       d="m 359.45,122.48 c -0.048,2.69 9.456,170.27 9.667,170.48 l 353.55,353.55 C 722.456,646.299 712.952,478.72 713,476.03 z"
       inkscape:connector-curvature="0"
       id="path193" />
    <path
       d="m 369.12,292.96 c 0,0 10e-4,0 10e-4,0 l 353.55,353.55 c 0,0 -0.001,0 -0.001,0 z"
       inkscape:connector-curvature="0"
       id="path195" />
    <path
       d="m 369.12,292.96 c 0.067,-0.09 15.7,-31.706 34.737,-70.26 l 353.55,353.55 c -19.04,38.553 -34.67,70.17 -34.737,70.26 z"
       inkscape:connector-curvature="0"
       id="path197" />
    <path
       d="m 403.85,222.7 c 27.337,-55.35 34.2,-69.926 33.33,-70.801 l 353.55,353.55 c 0.875,0.875 -5.992,15.454 -33.33,70.801 z"
       inkscape:connector-curvature="0"
       id="path199" />
    <path
       d="m 437.18,151.9 c -0.01,-0.01 -0.02,-0.018 -0.032,-0.024 l 353.55,353.55 c 0.011,0.006 0.022,0.014 0.032,0.024 z"
       inkscape:connector-curvature="0"
       id="path201" />
    <path
       d="m 437.15,151.87 c -1.804,-0.993 -3.419,-2.219 -4.822,-3.622 l 353.55,353.55 c 1.403,1.403 3.02,2.629 4.822,3.622 z"
       inkscape:connector-curvature="0"
       id="path203" />
    <path
       d="m 432.33,148.25 c -5.656,-5.656 -7.876,-14.194 -5.242,-21.992 l 353.55,353.55 c -2.633,7.798 -0.414,16.336 5.242,21.992 z"
       inkscape:connector-curvature="0"
       id="path205" />
    <path
       d="m 427.09,126.26 c 1.924,-5.699 4.865,-9.224 10.339,-12.391 l 353.55,353.55 c -5.474,3.168 -8.415,6.692 -10.339,12.391 z"
       inkscape:connector-curvature="0"
       id="path207" />
    <path
       d="m 437.43,113.87 c 3.58,-2.071 5.244,-2.44 11.03,-2.44 l 353.55,353.55 c -5.782,0 -7.446,0.369 -11.03,2.44 z"
       inkscape:connector-curvature="0"
       id="path209" />
    <path
       d="m 448.45,111.43 c 5.782,0 7.446,0.368 11.03,2.44 l 353.55,353.55 c -3.58,-2.072 -5.244,-2.44 -11.03,-2.44 z"
       inkscape:connector-curvature="0"
       id="path211" />
    <path
       d="m 459.48,113.87 c 2.141,1.239 3.894,2.532 5.351,3.989 l 353.55,353.55 c -1.457,-1.457 -3.21,-2.75 -5.351,-3.989 z"
       inkscape:connector-curvature="0"
       id="path213" />
    <path
       d="m 464.83,117.86 c 2.268,2.268 3.816,4.932 4.988,8.403 l 353.55,353.55 c -1.171,-3.471 -2.72,-6.135 -4.988,-8.402 z"
       inkscape:connector-curvature="0"
       id="path215" />
    <path
       d="m 469.82,126.26 c 4.532,13.41 -4.391,26.477 -19.321,28.312 l 353.55,353.55 c 14.93,-1.835 23.852,-14.902 19.321,-28.312 z"
       inkscape:connector-curvature="0"
       id="path217" />
    <path
       d="m 450.5,154.57 -5.171,0.636 353.55,353.55 5.171,-0.636 z"
       inkscape:connector-curvature="0"
       id="path219" />
    <path
       d="m 445.33,155.21 -8.796,69.23 353.55,353.55 8.796,-69.23 z"
       inkscape:connector-curvature="0"
       id="path221" />
    <path
       d="m 436.53,224.44 c -4.838,38.08 -9.281,73.1 -9.872,77.83 l 353.55,353.55 c 0.591,-4.727 5.03,-39.751 9.872,-77.83 z"
       inkscape:connector-curvature="0"
       id="path223" />
    <path
       d="m 426.66,302.27 -1.076,8.594 353.55,353.55 1.076,-8.594 z"
       inkscape:connector-curvature="0"
       id="path225" />
    <path
       d="m 425.58,310.87 -16.309,19.552 353.55,353.55 16.309,-19.552 z"
       inkscape:connector-curvature="0"
       id="path227" />
    <path
       d="m 409.27,330.42 c -8.97,10.751 -17.08,21 -18.02,22.78 L 744.8,706.75 c 0.939,-1.777 9.05,-12.03 18.02,-22.78 z"
       inkscape:connector-curvature="0"
       id="path229" />
    <path
       d="m 391.25,353.2 c -2.845,5.355 -17.235,38.12 -17.235,39.24 l 353.55,353.55 c 0,-1.118 14.39,-33.884 17.235,-39.24 z"
       inkscape:connector-curvature="0"
       id="path231" />
    <path
       d="m 374.02,392.44 c 0,0.573 3.897,9.859 8.66,20.634 l 353.55,353.55 c -4.763,-10.775 -8.66,-20.06 -8.66,-20.634 z"
       inkscape:connector-curvature="0"
       id="path233" />
    <path
       d="m 382.67,413.07 c 4.763,10.775 8.421,19.971 8.13,20.433 l 353.55,353.55 c 0.291,-0.462 -3.367,-9.657 -8.13,-20.433 z"
       inkscape:connector-curvature="0"
       id="path235" />
    <path
       d="m 390.8,433.5 c -2.083,3.316 -23.914,12.318 -37.946,15.645 l 353.55,353.55 c 14.03,-3.327 35.863,-12.328 37.946,-15.645 z"
       inkscape:connector-curvature="0"
       id="path237" />
    <path
       d="m 352.86,449.15 c -20.331,4.821 -24.397,5.06 -90.51,5.285 l 353.55,353.55 c 66.12,-0.225 70.18,-0.464 90.51,-5.285 z"
       inkscape:connector-curvature="0"
       id="path239" />
    <path
       d="m 262.35,454.43 c -33.704,0.117 -65.6,-0.089 -70.885,-0.452 l 353.55,353.55 c 5.283,0.363 37.18,0.569 70.885,0.452 z"
       inkscape:connector-curvature="0"
       id="path241" />
  </g>
  <path
     d="m 191.47,453.98 c -18.796,-1.296 -36.27,-4.889 -50.28,-10.339 -8.481,-3.297 -19.07,-8.666 -19.993,-10.138 -0.291,-0.462 3.369,-9.657 8.13,-20.433 4.763,-10.775 8.66,-20.06 8.66,-20.634 0,-1.121 -14.392,-33.888 -17.235,-39.24 -0.944,-1.778 -9.06,-12.03 -18.02,-22.78 L 86.423,310.864 85.347,302.27 c -0.591,-4.727 -5.03,-39.751 -9.872,-77.83 l -8.796,-69.23 -5.171,-0.636 c -14.93,-1.835 -23.847,-14.902 -19.321,-28.312 1.924,-5.699 4.865,-9.224 10.339,-12.391 3.58,-2.071 5.244,-2.44 11.03,-2.44 5.782,0 7.446,0.368 11.03,2.44 5.474,3.168 8.415,6.691 10.339,12.391 3.285,9.732 -0.992,20.617 -10.06,25.614 -1.049,0.578 5.666,14.86 33.3,70.825 19.04,38.553 34.677,70.17 34.737,70.26 0.186,0.248 9.716,-167.77 9.668,-170.48 -0.036,-2.01 -0.602,-2.489 -3.946,-3.318 -5.42,-1.343 -10.939,-5.531 -13.965,-10.594 -2.197,-3.678 -2.557,-5.235 -2.557,-11.05 0,-5.974 0.324,-7.288 2.75,-11.167 9.123,-14.587 29.861,-14.587 38.984,0 2.432,3.889 2.75,5.186 2.75,11.237 0,6.05 -0.32,7.353 -2.74,11.238 -1.636,2.624 -4.584,5.596 -7.315,7.371 l -4.575,2.973 28.645,81.67 c 15.756,44.922 28.852,81.67 29.1,81.67 0.315,0 30.09,-166.66 32.12,-179.85 0.061,-0.398 -1.421,-1.254 -3.295,-1.906 -5.01,-1.739 -9.386,-5.366 -12.234,-10.133 -2.152,-3.603 -2.516,-5.193 -2.516,-10.984 0,-5.974 0.324,-7.288 2.75,-11.167 9.123,-14.587 29.861,-14.587 38.984,0 2.426,3.879 2.75,5.193 2.75,11.167 0,5.791 -0.365,7.381 -2.516,10.984 -2.848,4.767 -7.225,8.394 -12.234,10.133 -1.873,0.651 -3.355,1.516 -3.295,1.906 2.039,13.179 31.811,179.85 32.12,179.85 0.252,0 13.349,-36.754 29.1,-81.67 l 28.645,-81.67 -4.575,-2.973 c -2.731,-1.775 -5.681,-4.746 -7.317,-7.371 -2.42,-3.885 -2.74,-5.195 -2.74,-11.238 0,-6.05 0.317,-7.348 2.75,-11.237 9.123,-14.587 29.861,-14.587 38.984,0 2.426,3.879 2.75,5.193 2.75,11.167 0,5.816 -0.36,7.374 -2.557,11.05 -3.03,5.067 -8.544,9.255 -13.965,10.594 -3.343,0.828 -3.91,1.305 -3.946,3.318 -0.048,2.693 9.482,170.72 9.668,170.48 0.067,-0.09 15.7,-31.706 34.737,-70.26 27.637,-55.955 34.35,-70.24 33.3,-70.825 -9.08,-4.997 -13.35,-15.882 -10.06,-25.614 1.924,-5.699 4.865,-9.224 10.339,-12.391 3.58,-2.071 5.244,-2.44 11.03,-2.44 5.782,0 7.446,0.368 11.03,2.44 5.474,3.168 8.415,6.691 10.339,12.391 4.532,13.41 -4.391,26.477 -19.321,28.312 l -5.171,0.636 -8.796,69.23 c -4.838,38.08 -9.281,73.1 -9.872,77.83 l -1.076,8.594 -16.309,19.552 c -8.97,10.751 -17.08,21 -18.02,22.78 -2.845,5.355 -17.235,38.12 -17.235,39.24 0,0.573 3.897,9.859 8.66,20.634 4.763,10.775 8.421,19.971 8.13,20.433 -2.083,3.316 -23.914,12.318 -37.946,15.645 -20.331,4.821 -24.397,5.06 -90.51,5.285 -33.704,0.117 -65.6,-0.089 -70.885,-0.452 z"
     inkscape:connector-curvature="0"
     id="path243"
     style="fill:#ffffff" />
</svg>
