<?xml version="1.0" encoding="UTF-8" standalone="no"?>
<!-- Created with Inkscape (http://www.inkscape.org/) -->

<svg
   xmlns:dc="http://purl.org/dc/elements/1.1/"
   xmlns:cc="http://creativecommons.org/ns#"
   xmlns:rdf="http://www.w3.org/1999/02/22-rdf-syntax-ns#"
   xmlns:svg="http://www.w3.org/2000/svg"
   xmlns="http://www.w3.org/2000/svg"
   xmlns:inkscape="http://www.inkscape.org/namespaces/inkscape"
   version="1.1"
   width="100%"
   height="100%"
   viewBox="0 0 512 512"
   id="svg2">
  <metadata
     id="metadata137">
    <rdf:RDF>
      <cc:Work
         rdf:about="">
        <dc:format>image/svg+xml</dc:format>
        <dc:type
           rdf:resource="http://purl.org/dc/dcmitype/StillImage" />
      </cc:Work>
    </rdf:RDF>
  </metadata>
  <defs
     id="defs4">
    <clipPath
       id="0">
      <rect
         width="512"
         height="512"
         rx="25.988001"
         x="0"
         y="0"
         id="rect7"
         style="fill:none" />
    </clipPath>
  </defs>
  <rect
     width="512"
     height="512"
     rx="25.988001"
     x="0"
     y="0"
     id="rect9"
     style="fill:none" />
  <g
     clip-path="url(#0)"
     id="g63"
     style="opacity:0.0;fill-rule:evenodd">
    <path
       d="m 373.31,66.781 c -11.852,0.062 -23.894,2.297 -35.563,6.969 l 282.84,282.84 c 11.669,-4.672 23.711,-6.907 35.563,-6.969 z"
       inkscape:connector-curvature="0"
       id="path65" />
    <path
       d="M 337.75,73.75 C 288.26,93.567 264.1,149.53 283.38,199.09 L 566.22,481.93 C 546.943,432.366 571.108,376.4 620.6,356.59 z"
       inkscape:connector-curvature="0"
       id="path67" />
    <path
       d="M 283.38,199.09 253.26,309.75 536.1,592.59 566.23,481.93 z"
       inkscape:connector-curvature="0"
       id="path69" />
    <path
       d="m 253.25,309.75 c -0.896,0.317 -1.797,0.644 -2.688,1 l 282.84,282.84 c 0.89,-0.356 1.792,-0.683 2.688,-1 z"
       inkscape:connector-curvature="0"
       id="path71" />
    <path
       d="m 250.56,310.75 c -13.16,5.27 -23.827,14.13 -31.344,24.969 l 282.84,282.84 c 7.517,-10.842 18.18,-19.699 31.344,-24.969 z"
       inkscape:connector-curvature="0"
       id="path73" />
    <path
       d="M 219.22,335.72 0,334.657 l 282.84,282.84 219.22,1.063 z"
       inkscape:connector-curvature="0"
       id="path75" />
    <path
       d="M 0,334.66 V 417.1 L 282.84,699.94 V 617.5 z"
       inkscape:connector-curvature="0"
       id="path77" />
    <path
       d="M 0,417.09 221.16,417.934 504,700.774 282.84,699.93 z"
       inkscape:connector-curvature="0"
       id="path79" />
    <path
       d="m 221.16,417.94 c 1.859,2.424 3.862,4.706 5.993,6.837 l 282.84,282.84 c -2.131,-2.131 -4.135,-4.413 -5.993,-6.837 z"
       inkscape:connector-curvature="0"
       id="path81" />
    <path
       d="m 227.15,424.77 c 19.13,19.13 48.51,26.14 75.23,15.445 l 282.84,282.84 c -26.711,10.692 -56.1,3.685 -75.23,-15.445 z"
       inkscape:connector-curvature="0"
       id="path83" />
    <path
       d="m 302.38,440.22 c 33.809,-13.538 51.2,-50.564 40.875,-84.78 l 282.84,282.84 c 10.323,34.22 -7.07,71.24 -40.875,84.78 z"
       inkscape:connector-curvature="0"
       id="path85" />
    <path
       d="m 343.25,355.44 61.5,-99.44 282.84,282.84 -61.5,99.44 z"
       inkscape:connector-curvature="0"
       id="path87" />
    <path
       d="m 404.75,256 c 1.746,-0.587 3.488,-1.244 5.219,-1.938 l 282.84,282.84 c -1.731,0.693 -3.473,1.35 -5.219,1.938 z"
       inkscape:connector-curvature="0"
       id="path89" />
    <path
       d="m 409.97,254.06 c 49.79,-19.938 73.995,-76.46 54.06,-126.25 l 282.84,282.84 c 19.932,49.788 -4.273,106.31 -54.06,126.25 z"
       inkscape:connector-curvature="0"
       id="path91" />
    <path
       d="m 464.03,127.81 c -5.04,-12.578 -12.411,-23.523 -21.423,-32.535 l 282.84,282.84 c 9.01,9.01 16.386,19.956 21.423,32.535 z"
       inkscape:connector-curvature="0"
       id="path93" />
    <path
       d="M 442.61,95.28 C 424.309,76.979 399.26,66.647 373.31,66.783 l 282.84,282.84 c 25.941,-0.136 50.995,10.196 69.3,28.497 z"
       inkscape:connector-curvature="0"
       id="path95" />
    <path
       d="m 374.88,109.41 c 14.06,0.277 27.554,6.03 37.498,15.975 l 282.84,282.84 C 685.273,398.28 671.779,392.527 657.72,392.25 z"
       inkscape:connector-curvature="0"
       id="path97" />
    <path
       d="m 412.37,125.38 c 5.062,5.062 9.204,11.21 12.03,18.275 l 282.84,282.84 c -2.828,-7.06 -6.971,-13.212 -12.03,-18.275 z"
       inkscape:connector-curvature="0"
       id="path99" />
    <path
       d="m 424.41,143.66 c 11.182,27.92 -2.389,59.6 -30.31,70.781 l 282.84,282.84 c 27.923,-11.178 41.494,-42.861 30.31,-70.781 z"
       inkscape:connector-curvature="0"
       id="path101" />
    <path
       d="m 394.09,214.44 c -20.869,8.358 -43.856,2.904 -58.805,-12.05 l 282.84,282.84 c 14.949,14.949 37.936,20.403 58.805,12.05 z"
       inkscape:connector-curvature="0"
       id="path103" />
    <path
       d="m 335.29,202.39 c -5.05,-5.05 -9.184,-11.185 -12.01,-18.236 l 282.84,282.84 c 2.824,7.05 6.957,13.186 12.01,18.236 z"
       inkscape:connector-curvature="0"
       id="path105" />
    <path
       d="m 323.28,184.16 c -11.182,-27.92 2.389,-59.659 30.31,-70.844 l 282.84,282.84 C 608.507,407.341 594.936,439.08 606.12,467 z"
       inkscape:connector-curvature="0"
       id="path107" />
    <path
       d="m 353.59,113.31 c 6.98,-2.795 14.209,-4.046 21.281,-3.906 l 282.84,282.84 c -7.07,-0.139 -14.301,1.111 -21.281,3.906 z"
       inkscape:connector-curvature="0"
       id="path109" />
    <path
       d="m 274.84,321.03 c 15.02,-0.447 29.62,5.389 40.2,15.966 l 282.84,282.84 c -10.577,-10.577 -25.17,-16.412 -40.2,-15.966 z"
       inkscape:connector-curvature="0"
       id="path111" />
    <path
       d="m 315.04,337 c 5.057,5.057 9.195,11.197 12.02,18.253 l 282.84,282.84 c -2.827,-7.06 -6.965,-13.196 -12.02,-18.253 z"
       inkscape:connector-curvature="0"
       id="path113" />
    <path
       d="m 327.06,355.25 c 11.182,27.92 -2.421,59.6 -30.344,70.781 l 282.84,282.84 c 27.923,-11.18 41.526,-42.861 30.344,-70.781 z"
       inkscape:connector-curvature="0"
       id="path115" />
    <path
       d="m 296.72,426.03 c -18.863,7.554 -39.44,3.83 -54.25,-8 l 282.84,282.84 c 14.81,11.83 35.387,15.554 54.25,8 z"
       inkscape:connector-curvature="0"
       id="path117" />
    <path
       d="m 242.47,418.03 26.28,0.094 282.84,282.84 -26.28,-0.094 z"
       inkscape:connector-curvature="0"
       id="path119" />
    <path
       d="m 268.75,418.13 c 22.761,0.13 41.18,-18.05 41.31,-40.813 l 282.84,282.84 c -0.13,22.763 -18.552,40.943 -41.31,40.813 z"
       inkscape:connector-curvature="0"
       id="path121" />
    <path
       d="m 310.06,377.31 c 0.066,-11.473 -4.529,-21.851 -12.02,-29.34 l 282.84,282.84 c 7.489,7.489 12.08,17.867 12.02,29.34 z"
       inkscape:connector-curvature="0"
       id="path123" />
    <path
       d="m 298.04,347.97 c -7.368,-7.368 -17.538,-11.939 -28.826,-12 l 282.84,282.84 c 11.288,0.065 21.458,4.636 28.826,12 z"
       inkscape:connector-curvature="0"
       id="path125" />
    <path
       d="m 269.22,335.97 -30.06,-0.156 282.84,282.84 30.06,0.156 z"
       inkscape:connector-curvature="0"
       id="path127" />
    <path
       d="m 239.16,335.81 c 4.814,-4.538 10.552,-8.262 17.06,-10.875 l 282.84,282.84 c -6.511,2.613 -12.249,6.337 -17.06,10.875 z"
       inkscape:connector-curvature="0"
       id="path129" />
    <path
       d="m 256.22,324.94 c 6.108,-2.446 12.407,-3.721 18.625,-3.906 l 282.84,282.84 c -6.218,0.185 -12.518,1.46 -18.625,3.906 z"
       inkscape:connector-curvature="0"
       id="path131" />
  </g>
  <path
     d="m 373.31,66.781 c -11.852,0.062 -23.894,2.297 -35.563,6.969 -49.49,19.817 -73.65,75.78 -54.37,125.34 l -30.12,110.66 c -0.896,0.317 -1.797,0.644 -2.688,1 -13.16,5.27 -23.827,14.13 -31.344,24.969 L 0.005,334.656 v 82.44 l 221.16,0.844 c 18.543,24.19 51.53,34.16 81.22,22.281 33.809,-13.538 51.2,-50.564 40.875,-84.78 l 61.5,-99.44 c 1.746,-0.587 3.488,-1.244 5.219,-1.938 49.79,-19.938 73.995,-76.46 54.06,-126.25 -15.265,-38.12 -52,-61.23 -90.72,-61.03 m 1.563,42.625 c 21.22,0.418 41.15,13.308 49.53,34.25 11.182,27.92 -2.389,59.6 -30.31,70.781 -27.92,11.182 -59.63,-2.358 -70.813,-30.28 -11.182,-27.92 2.389,-59.659 30.31,-70.844 6.98,-2.795 14.209,-4.046 21.281,-3.906 m -100.03,211.63 c 22.21,-0.66 43.48,12.404 52.22,34.22 11.182,27.92 -2.421,59.6 -30.344,70.781 -18.863,7.554 -39.44,3.83 -54.25,-8 l 26.28,0.094 c 22.761,0.13 41.18,-18.05 41.31,-40.813 0.13,-22.761 -18.08,-41.21 -40.844,-41.34 l -30.06,-0.156 c 4.814,-4.538 10.552,-8.262 17.06,-10.875 6.108,-2.446 12.407,-3.721 18.625,-3.906"
     inkscape:connector-curvature="0"
     id="path133"
     style="fill:#ffffff;fill-rule:evenodd" />
</svg>
