<?xml version="1.0" encoding="UTF-8" standalone="no"?>
<!-- Created with Inkscape (http://www.inkscape.org/) -->

<svg
   xmlns:dc="http://purl.org/dc/elements/1.1/"
   xmlns:cc="http://creativecommons.org/ns#"
   xmlns:rdf="http://www.w3.org/1999/02/22-rdf-syntax-ns#"
   xmlns:svg="http://www.w3.org/2000/svg"
   xmlns="http://www.w3.org/2000/svg"
   xmlns:xlink="http://www.w3.org/1999/xlink"
   xmlns:sodipodi="http://sodipodi.sourceforge.net/DTD/sodipodi-0.dtd"
   xmlns:inkscape="http://www.inkscape.org/namespaces/inkscape"
   version="1.1"
   width="100%"
   height="100%"
   viewBox="0 0 512 512"
   id="svg2"
   inkscape:version="0.48.5 r10040"
   sodipodi:docname="umplayer.svg">
  <sodipodi:namedview
     pagecolor="#ffffff"
     bordercolor="#666666"
     borderopacity="1"
     objecttolerance="10"
     gridtolerance="10"
     guidetolerance="10"
     inkscape:pageopacity="0"
     inkscape:pageshadow="2"
     inkscape:window-width="640"
     inkscape:window-height="480"
     id="namedview64"
     showgrid="false"
     inkscape:zoom="1.84375"
     inkscape:cx="381.44204"
     inkscape:cy="141.05776"
     inkscape:window-x="0"
     inkscape:window-y="0"
     inkscape:window-maximized="0"
     inkscape:current-layer="svg2" />
  <metadata
     id="metadata224">
    <rdf:RDF>
      <cc:Work
         rdf:about="">
        <dc:format>image/svg+xml</dc:format>
        <dc:type
           rdf:resource="http://purl.org/dc/dcmitype/StillImage" />
      </cc:Work>
    </rdf:RDF>
  </metadata>
  <defs
     id="defs4">
    <clipPath
       id="3">
      <path
         d="M 26,0 C 11.603,0 0,11.603 0,26 v 460 c 0,14.397 11.603,26 26,26 h 460 c 14.397,0 26,-11.603 26,-26 V 26 C 512,11.603 500.397,0 486,0 H 26"
         inkscape:connector-curvature="0"
         id="path7" />
    </clipPath>
    <filter
       color-interpolation-filters="sRGB"
       id="0">
      <feGaussianBlur
         id="feGaussianBlur14"
         stdDeviation="4.79818" />
    </filter>
    <linearGradient
       x1="1034.7"
       x2="1327.9"
       id="2"
       gradientUnits="userSpaceOnUse">
      <stop
         id="stop23"
         style="stop-color:#de6f42;stop-opacity:1"
         offset="0" />
      <stop
         id="stop25"
         style="stop-color:#a7d138;stop-opacity:1"
         offset="0.5" />
      <stop
         id="stop27"
         style="stop-color:#69cdbf;stop-opacity:1"
         offset="1" />
    </linearGradient>
    <radialGradient
       cx="158.75"
       cy="191.17999"
       r="256"
       id="1"
       gradientUnits="userSpaceOnUse"
       gradientTransform="matrix(0.78229,0.78229,-0.70711,0.70711,169.74,-68.19)">
      <stop
         id="stop30"
         style="stop-color:#535353;stop-opacity:1"
         offset="0" />
      <stop
         id="stop32"
         style="stop-color:#282629;stop-opacity:1"
         offset="1" />
    </radialGradient>
    <linearGradient
       inkscape:collect="always"
       xlink:href="#2"
       id="linearGradient3041"
       gradientUnits="userSpaceOnUse"
       x1="1034.7"
       x2="1327.9" />
  </defs>
  <path
     style="color:#000000;fill:#ffffff;fill-rule:evenodd;filter:url(#0)"
     id="path168"
     transform="matrix(1.28799,0,0,1.28799,-1265.51,22.02)"
     inkscape:connector-curvature="0"
     d="m 1179.17,136.2 c -31.02,-0.289 -61.21,26.04 -60.31,57.969 -0.397,23.09 -0.026,46.24 -1.531,69.28 -0.607,10.491 -9.69,20.276 -20.688,18.875 -9.109,-0.342 -17.256,-8.092 -16.938,-17.5 -1.875,-42.704 -0.891,-85.51 -1.781,-128.25 -15.08,0 -30.17,0 -45.25,0 0.993,44.21 -0.036,88.55 0.625,132.69 3.662,30.2 30.403,56 61.13,56.781 28.667,1.776 59.37,-16.738 65.5,-45.813 3.434,-19.445 1.481,-39.33 2.226,-58.968 0.011,-13.205 -1.835,-29.724 9.649,-38.875 9.818,-7.867 25.465,-1.474 28.344,10.313 2.35,10.122 0.694,20.778 1.561,31.12 0.639,34.32 0.475,68.65 1,102.97 14.386,0 28.771,0 43.16,0 0.831,-44.47 -1.728,-89.12 2.094,-133.47 5.179,-14.15 28.518,-17.292 35.03,-2.781 4.902,11.559 1.579,24.529 3.01,36.718 0.576,33.17 0.14,66.36 0.338,99.53 14.49,0 28.979,0 43.47,0 -0.988,-48.669 2.091,-97.53 -2.188,-146.06 -6.309,-26.26 -33.617,-43.47 -59.844,-43.781 -15.576,-0.413 -31.05,5.059 -43.531,13.719 -12.244,-10.361 -29.05,-14.807 -45.06,-14.469" />
  <path
     style="color:#000000;fill:#ffffff;fill-rule:evenodd"
     id="path172"
     inkscape:connector-curvature="0"
     d="m 47.5,0 23.906,29.5 -61.37,81.41 h 55.75 L 127.226,29.5 104.976,0 h -57.47 m 102.03,0 22.22,29.5 -61.34,81.41 h 55.75 L 227.576,29.5 205.326,0 h -55.781 m 100.41,0 22.25,29.5 -61.41,81.41 h 55.75 L 327.955,29.5 305.705,0 h -55.75 m 100.38,0 22.25,29.5 -61.44,81.41 h 55.813 L 428.338,29.5 406.118,0 h -55.781 m 98.69,0 23.906,29.5 -35.688,47.31 -25.719,34.09 h 0.031 55.781 l 34.656,-45.938 10.03,-13.313 V 25.993 c 0,-14.397 -11.603,-26 -26,-26 h -37 m 63,110.78 -0.094,0.125 h 0.094 v -0.125" />
  <path
     d="m 253.33,205.17 c -2.843,0.08 -5.667,0.327 -8.439,0.703 -23.569,3.198 -43.14,16.269 -54.15,36.15 -10.09,21.661 -6.841,20.2 -7.806,69.41 -1.073,54.712 -1.394,57.79 -6.259,65.61 -7.04,11.326 -15.376,16.204 -27.919,16.386 -11.417,0.166 -19.259,-4.209 -27.568,-15.331 -4.461,-5.972 -4.657,-9.415 -5.274,-89.31 l -0.703,-83.12 H 93.763 72.384 l 0.703,86.15 c 0,73.941 -4.486,74.16 8.09,101.2 16.96,34.436 57.34,49.843 95.36,36.429 12.135,-4.282 27.574,-15.711 34.32,-25.458 11.366,-16.426 12.588,-23.897 12.588,-78.83 0,-48.45 0.253,-51.49 5.063,-60.902 7,-13.706 15.187,-19.2 28.693,-19.2 12.597,0 21.1,5.216 28.13,17.16 4.244,7.206 4.506,12.306 5.134,90.3 l 0.703,82.7 h 20.11 20.18 v -78.2 c 0.013,-44.38 0.993,-81.62 2.25,-86.15 5.419,-16.06 20.518,-23.526 31.506,-23.559 15.598,0.551 26.864,8.08 31.506,23.559 1.257,4.526 2.173,41.771 2.18,86.15 l 0.07,78.2 h 20.254 20.254 v -86.22 c 0,-96.24 -0.402,-98.98 -15.12,-116.18 -22.423,-26.2 -59.926,-34.12 -92.06,-19.41 -7.22,3.306 -14.947,7.632 -17.16,9.635 -3.723,3.369 -4.408,3.288 -9.07,-0.985 -11.933,-10.932 -32.845,-17.436 -52.744,-16.878"
     inkscape:connector-curvature="0"
     id="path220"
     style="color:#000000;fill:#ffffff;fill-rule:evenodd" />
</svg>
