<?xml version="1.0" encoding="UTF-8" standalone="no"?>
<!-- Created with Inkscape (http://www.inkscape.org/) -->

<svg
   xmlns:dc="http://purl.org/dc/elements/1.1/"
   xmlns:cc="http://creativecommons.org/ns#"
   xmlns:rdf="http://www.w3.org/1999/02/22-rdf-syntax-ns#"
   xmlns:svg="http://www.w3.org/2000/svg"
   xmlns="http://www.w3.org/2000/svg"
   xmlns:sodipodi="http://sodipodi.sourceforge.net/DTD/sodipodi-0.dtd"
   xmlns:inkscape="http://www.inkscape.org/namespaces/inkscape"
   version="1.1"
   width="100%"
   height="100%"
   viewBox="0 0 512 512"
   id="svg2"
   inkscape:version="0.48.5 r10040"
   sodipodi:docname="web-browser.svg">
  <sodipodi:namedview
     pagecolor="#ffffff"
     bordercolor="#666666"
     borderopacity="1"
     objecttolerance="10"
     gridtolerance="10"
     guidetolerance="10"
     inkscape:pageopacity="0"
     inkscape:pageshadow="2"
     inkscape:window-width="640"
     inkscape:window-height="480"
     id="namedview12"
     showgrid="false"
     inkscape:zoom="0.4609375"
     inkscape:cx="256"
     inkscape:cy="256"
     inkscape:window-x="0"
     inkscape:window-y="0"
     inkscape:window-maximized="0"
     inkscape:current-layer="svg2" />
  <metadata
     id="metadata68">
    <rdf:RDF>
      <cc:Work
         rdf:about="">
        <dc:format>image/svg+xml</dc:format>
        <dc:type
           rdf:resource="http://purl.org/dc/dcmitype/StillImage" />
      </cc:Work>
    </rdf:RDF>
  </metadata>
  <defs
     id="defs66" />
  <rect
     width="512"
     height="512"
     rx="25.988001"
     x="0"
     y="0"
     id="rect4"
     style="fill:none" />
  <path
     d="m 252.88,49.948 c -0.86,0.53 -5.888,19.475 -11.404,43.17 -5.692,24.455 -11.11,45.44 -12.08,46.603 -0.208,0.252 -0.655,0.558 -1.198,0.885 -43.979,9.879 -78.66,44.21 -89.04,87.999 -0.017,0.07 -0.037,0.138 -0.052,0.208 -1.853,4.539 -3.329,5.299 -7.55,6.405 -3.366,0.881 -23.02,5.48 -43.639,10.206 -20.62,4.725 -38.06,9.101 -38.74,9.738 -0.683,0.637 17.687,5.539 40.823,10.882 23.14,5.345 43.606,10.621 45.46,11.764 1.025,0.632 2.269,2.416 3.489,4.739 10.214,44.532 45.535,79.47 90.29,89.09 5.587,3.684 6.345,9.211 10.727,27.701 3.366,14.178 8.15,34.781 10.674,45.77 3.406,14.823 4.975,19.12 5.988,16.662 0.75,-1.823 5.495,-21.328 10.571,-43.32 5.075,-21.994 9.852,-41.4 10.571,-43.11 0.602,-1.436 3.812,-3.349 9.113,-5.624 38.59,-11.05 69.11,-41.18 80.66,-79.56 0.455,-1.513 0.855,-3.044 1.25,-4.582 -0.397,1.545 -0.793,3.064 -1.25,4.582 1.623,-5.02 3.866,-9.451 5.155,-9.946 1.335,-0.513 22.04,-5.475 45.978,-11.04 23.941,-5.564 43.789,-10.356 44.1,-10.674 0.781,-0.773 -5.742,-2.466 -48.894,-12.445 -20.16,-4.662 -38.07,-9.03 -39.781,-9.738 -1.188,-0.487 -2.711,-2.743 -4.479,-6.457 -0.012,-0.023 -0.042,-0.03 -0.052,-0.052 -10.391,-45.953 -47.48,-81.75 -94.14,-90.18 -0.415,-0.477 -0.718,-0.986 -0.938,-1.51 -0.825,-1.976 -5.777,-22.338 -10.987,-45.26 -5.21,-22.911 -9.962,-42.21 -10.571,-42.906 -0.018,-0.022 -0.025,-0.017 -0.052,0 m 1.353,87.74 c 2.039,0 4.079,0.05 6.092,0.157 -2.02,-0.102 -4.051,-0.157 -6.092,-0.157 m 0,0 c -1.64,0 -3.271,0.038 -4.895,0.105 1.626,-0.068 3.252,-0.105 4.895,-0.105 m -7.133,0.26 c -1.661,0.098 -3.304,0.198 -4.947,0.365 -1.465,0.148 -2.926,0.318 -4.374,0.522 1.453,-0.205 2.904,-0.368 4.374,-0.522 1.641,-0.17 3.286,-0.263 4.947,-0.365 m 7.133,31.399 c 47.853,0 86.64,38.792 86.64,86.64 0,47.853 -38.792,86.64 -86.64,86.64 -47.853,0 -86.64,-38.792 -86.64,-86.64 0,-47.853 38.792,-86.64 86.64,-86.64 m -117.74,75.03 c -0.148,1.523 -0.275,3.043 -0.365,4.582 0.093,-1.543 0.212,-3.056 0.365,-4.582 m 235.46,0.157 c 0.15,1.508 0.273,3.01 0.365,4.531 -0.088,-1.523 -0.22,-3.02 -0.365,-4.531 m -235.87,5.883 c -0.085,1.846 -0.157,3.704 -0.157,5.572 0,1.745 0.082,3.481 0.157,5.207 -0.077,-1.72 -0.157,-3.467 -0.157,-5.207 0,-1.865 0.068,-3.727 0.157,-5.572 m 236.34,0.573 c 0.072,1.653 0.105,3.329 0.105,4.999 0,-1.683 -0.035,-3.332 -0.105,-4.999 m -236.29,11.82 c 0.098,1.733 0.245,3.442 0.417,5.155 -0.177,-1.72 -0.317,-3.414 -0.417,-5.155 m 236.19,0.157 c -0.1,1.708 -0.245,3.416 -0.417,5.104 -0.143,1.406 -0.33,2.826 -0.522,4.217 0.193,-1.398 0.377,-2.804 0.522,-4.217 0.172,-1.695 0.317,-3.387 0.417,-5.104 m -1.458,12.757 c -0.177,1.051 -0.37,2.083 -0.573,3.124 0.203,-1.035 0.397,-2.079 0.573,-3.124 m -128.72,97.94 c 1.886,0.192 3.766,0.367 5.675,0.468 -1.908,-0.103 -3.792,-0.277 -5.675,-0.468 m 5.988,0.468 c 2.02,0.102 4.051,0.157 6.092,0.157 1.938,0 3.866,-0.063 5.78,-0.157 -1.918,0.093 -3.841,0.157 -5.78,0.157 -2.038,0 -4.079,-0.053 -6.092,-0.157"
     inkscape:connector-curvature="0"
     id="path54"
     style="fill:#ffffff" />
  <path
     d="M 453.44,41 C 351.06,146.89 224.98,219.56 153.82,348.97 c -19.884,30.783 -68.48,93.2 -97.34,122.06 21.788,21.788 24.13,24.11 41,40.969 h 388.53 c 14.397,0 26,-11.603 26,-26 V 100.219 C 492.93,80.762 473.75,61.3 453.45,40.999"
     inkscape:connector-curvature="0"
     id="path56"
     style="fill-opacity:0.0" />
  <g
     transform="matrix(1.66624,0,0,1.66624,-170.56,-170.56)"
     id="g58"
     style="fill:#ffffff">
    <path
       d="m 237.27,238.95 c 37.435,-30.23 -0.097,-0.034 37.36,-30.13 99.78,-81.57 0.438,0.088 99.87,-81.85 -88.84,125.7 -61.965,88.4 -89.23,126.48 -7.272,10.175 -13.783,18.5 -14.468,18.5 -33.637,-32.76 -0.104,-0.121 -33.523,-33"
       inkscape:connector-curvature="0"
       id="path60" />
    <path
       d="m 271.95,271.25 c -37.03,30.721 0.097,0.033 -36.956,30.626 -98.69,82.88 -0.439,-0.082 -98.78,83.16 87.17,-126.86 60.792,-89.22 87.55,-127.65 7.137,-10.27 13.537,-18.68 14.223,-18.689 34.07,32.31 0.106,0.12 33.956,32.554"
       inkscape:connector-curvature="0"
       id="path62" />
  </g>
</svg>
