<?xml version="1.0" encoding="UTF-8" standalone="no"?>
<!-- Created with Inkscape (http://www.inkscape.org/) -->

<svg
   xmlns:dc="http://purl.org/dc/elements/1.1/"
   xmlns:cc="http://creativecommons.org/ns#"
   xmlns:rdf="http://www.w3.org/1999/02/22-rdf-syntax-ns#"
   xmlns:svg="http://www.w3.org/2000/svg"
   xmlns="http://www.w3.org/2000/svg"
   xmlns:inkscape="http://www.inkscape.org/namespaces/inkscape"
   version="1.1"
   width="100%"
   height="100%"
   viewBox="0 0 512 512"
   id="svg2">
  <metadata
     id="metadata10">
    <rdf:RDF>
      <cc:Work
         rdf:about="">
        <dc:format>image/svg+xml</dc:format>
        <dc:type
           rdf:resource="http://purl.org/dc/dcmitype/StillImage" />
        <dc:title />
      </cc:Work>
    </rdf:RDF>
  </metadata>
  <defs
     id="defs8">
    <clipPath
       id="clipPath3292">
      <path
         d="M 26,0 C 11.602648,0 0,11.602648 0,26 l 0,460 c 0,14.39735 11.602648,26 26,26 l 460,0 c 14.39735,0 26,-11.60265 26,-26 L 512,26 C 512,11.602648 500.39735,0 486,0 L 26,0 z"
         inkscape:connector-curvature="0"
         id="path3294"
         style="fill:none;fill-opacity:1;stroke:none" />
    </clipPath>
  </defs>
  <path
     d="M 26,0 C 11.602648,0 0,11.602648 0,26 l 0,460 c 0,14.39735 11.602648,26 26,26 l 460,0 c 14.39735,0 26,-11.60265 26,-26 L 512,26 C 512,11.602648 500.39735,0 486,0 L 26,0 z"
     inkscape:connector-curvature="0"
     id="rect2986"
     style="fill:none;fill-opacity:1;stroke:none" />
  <path
     d="m 256,256 0,256 230,0 c 14.39735,0 26,-11.60265 26,-26 l 0,-230 -256,0 z"
     inkscape:connector-curvature="0"
     id="path3175"
     style="fill:none;fill-opacity:1" />
  <path
     d="m 0,256 0,230 c 0,14.39735 11.602648,26 26,26 l 230,0 0,-256 -256,0 z"
     inkscape:connector-curvature="0"
     id="path3177"
     style="fill:none;fill-opacity:1" />
  <path
     d="M 26,0 C 11.602648,0 0,11.602648 0,26 L 0,256 256,256 256,0 26,0 z"
     inkscape:connector-curvature="0"
     id="path3162"
     style="fill:none;fill-opacity:1" />
  <g
     clip-path="url(#clipPath3292)"
     id="g3199"
     style="opacity:0.0;fill:#000000;fill-opacity:1;stroke:none">
    <path
       d="M 358.10074,40.999966 255.98017,143.12053 644.8889,532.02926 747.00947,429.9087 z"
       inkscape:connector-curvature="0"
       id="path3201"
       style="fill:#000000" />
    <path
       d="M 255.98017,143.12053 153.89925,41.039599 542.80798,429.94833 644.8889,532.02926 z"
       inkscape:connector-curvature="0"
       id="path3203"
       style="fill:#000000" />
    <path
       d="M 153.89925,41.039599 41.03963,153.89926 429.94836,542.80799 542.80798,429.94833 z"
       inkscape:connector-curvature="0"
       id="path3205"
       style="fill:#000000" />
    <path
       d="M 41.03963,153.89926 143.12052,255.98018 532.02925,644.88891 429.94836,542.80799 z"
       inkscape:connector-curvature="0"
       id="path3207"
       style="fill:#000000" />
    <path
       d="M 143.12052,255.98018 41,358.10075 429.90873,747.00948 532.02925,644.88891 z"
       inkscape:connector-curvature="0"
       id="path3209"
       style="fill:#000000" />
    <path
       d="M 41,358.10075 153.89925,471.00003 542.80798,859.90876 429.90873,747.00948 z"
       inkscape:connector-curvature="0"
       id="path3211"
       style="fill:#000000" />
    <path
       d="M 153.89925,471.00003 256.0198,368.87946 644.92853,757.78819 542.80798,859.90876 z"
       inkscape:connector-curvature="0"
       id="path3213"
       style="fill:#000000" />
    <path
       d="M 256.0198,368.87946 358.14035,471.00003 747.04908,859.90876 644.92853,757.78819 z"
       inkscape:connector-curvature="0"
       id="path3215"
       style="fill:#000000" />
    <path
       d="M 358.14035,471.00003 471,358.14036 859.90873,747.04909 747.04908,859.90876 z"
       inkscape:connector-curvature="0"
       id="path3217"
       style="fill:#000000" />
    <path
       d="M 471,358.14036 368.87945,256.01981 757.78818,644.92854 859.90873,747.04909 z"
       inkscape:connector-curvature="0"
       id="path3219"
       style="fill:#000000" />
    <path
       d="M 368.87945,256.01981 471,153.89926 859.90873,542.80799 757.78818,644.92854 z"
       inkscape:connector-curvature="0"
       id="path3221"
       style="fill:#000000" />
    <path
       d="M 471,153.89926 358.10072,40.999966 747.00945,429.9087 859.90873,542.80799 z"
       inkscape:connector-curvature="0"
       id="path3223"
       style="fill:#000000" />
  </g>
  <path
     d="M 358.10074,40.999966 255.98017,143.12053 153.89925,41.039599 41.03963,153.89926 143.12052,255.98018 41,358.10075 153.89925,471.00003 256.0198,368.87946 358.14035,471.00003 471,358.14036 368.87945,256.01981 471,153.89926 358.10072,40.999966 z"
     inkscape:connector-curvature="0"
     id="rect4337"
     style="fill:#ffffff;fill-opacity:1;stroke:none" />
</svg>
