<?xml version="1.0" encoding="UTF-8" standalone="no"?>
<svg
   xmlns:dc="http://purl.org/dc/elements/1.1/"
   xmlns:cc="http://creativecommons.org/ns#"
   xmlns:rdf="http://www.w3.org/1999/02/22-rdf-syntax-ns#"
   xmlns:svg="http://www.w3.org/2000/svg"
   xmlns="http://www.w3.org/2000/svg"
   xmlns:sodipodi="http://sodipodi.sourceforge.net/DTD/sodipodi-0.dtd"
   xmlns:inkscape="http://www.inkscape.org/namespaces/inkscape"
   viewBox="0 0 512 512"
   id="svg2"
   version="1.1"
   inkscape:version="0.48.5 r10040"
   width="100%"
   height="100%"
   sodipodi:docname="document-close.svg">
  <sodipodi:namedview
     pagecolor="#ffffff"
     bordercolor="#666666"
     borderopacity="1"
     objecttolerance="10"
     gridtolerance="10"
     guidetolerance="10"
     inkscape:pageopacity="0"
     inkscape:pageshadow="2"
     inkscape:window-width="1306"
     inkscape:window-height="715"
     id="namedview272"
     showgrid="false"
     inkscape:zoom="0.4609375"
     inkscape:cx="-11.932203"
     inkscape:cy="256"
     inkscape:window-x="56"
     inkscape:window-y="28"
     inkscape:window-maximized="1"
     inkscape:current-layer="svg2" />
  <metadata
     id="metadata276">
    <rdf:RDF>
      <cc:Work
         rdf:about="">
        <dc:format>image/svg+xml</dc:format>
        <dc:type
           rdf:resource="http://purl.org/dc/dcmitype/StillImage" />
      </cc:Work>
    </rdf:RDF>
  </metadata>
  <defs
     id="defs274">
    <clipPath
       clipPathUnits="userSpaceOnUse"
       id="clipPath3971">
      <path
         id="path3973"
         d="m 25.999999,1e-6 c -14.39735,0 -25.99999925000003,11.602648 -25.99999925000003,26 l 0,459.999999 C -2.5000003e-7,500.39735 11.602649,512 25.999999,512 L 486,512 c 14.39735,0 26,-11.60265 26,-26 l 0,-459.999999 c 0,-14.397352 -11.60265,-26 -26,-26 l -460.000001,0 z"
         style="fill:#cd1d31;fill-opacity:1;stroke:none"
         inkscape:connector-curvature="0" />
    </clipPath>
  </defs>
  <text
     font-size="208.33"
     letter-spacing="0"
     line-height="125%"
     word-spacing="0"
     y="1385.1929"
     x="-27128.092"
     id="text6"
     sodipodi:linespacing="125%"
     style="font-size:4848.40771484px;line-height:125%;letter-spacing:0;word-spacing:0;font-family:Gentium Book Basic">
    <tspan
       y="1385.1929"
       x="-27128.092"
       id="tspan8" />
  </text>
  <text
     transform="scale(4.0128206,0.24920128)"
     font-size="75.7"
     y="-7541.4893"
     x="633.94592"
     id="text10"
     style="font-size:1761.73657227px;text-anchor:middle;font-family:Arial" />
  <text
     font-size="208.33"
     letter-spacing="0"
     line-height="125%"
     word-spacing="0"
     y="2297.2512"
     x="-27262.838"
     id="text12"
     sodipodi:linespacing="125%"
     style="font-size:4848.40771484px;line-height:125%;letter-spacing:0;word-spacing:0;font-family:Gentium Book Basic">
    <tspan
       y="2297.2512"
       x="-27262.838"
       id="tspan14" />
  </text>
  <text
     transform="scale(4.0128206,0.24920128)"
     font-size="75.7"
     y="-3881.6387"
     x="600.4101"
     id="text16"
     style="font-size:1761.73657227px;text-anchor:middle;font-family:Arial" />
  <text
     style="font-size:2976.10449219px;line-height:125%;letter-spacing:0;word-spacing:0;fill:#555753;font-family:Gentium Book Basic"
     sodipodi:linespacing="125%"
     id="text20"
     transform="scale(1.0508243,0.95163389)"
     x="-12799.019"
     y="-4749.0137"
     word-spacing="0"
     line-height="125%"
     letter-spacing="0"
     font-size="127.88">
    <tspan
       id="tspan22"
       x="-12799.019"
       y="-4749.0137" />
  </text>
  <text
     style="font-size:1081.4901123px;text-anchor:middle;fill:#555753;font-family:Arial"
     id="text24"
     x="1349.384"
     y="-27098.229"
     font-size="46.47"
     transform="scale(4.2167652,0.23714861)" />
  <text
     style="font-size:1593.24450684px;line-height:125%;letter-spacing:0;word-spacing:0;fill:#555753;font-family:Gentium Book Basic"
     sodipodi:linespacing="125%"
     id="text26"
     transform="scale(1.0508243,0.95163389)"
     x="-3396.1755"
     y="-5574.0288"
     word-spacing="0"
     line-height="125%"
     letter-spacing="0"
     font-size="68.46">
    <tspan
       id="tspan28"
       x="-3396.1755"
       y="-5574.0288" />
  </text>
  <text
     style="font-size:578.88928223px;text-anchor:middle;fill:#555753;font-family:Arial"
     id="text30"
     x="1583.4858"
     y="-26672.104"
     font-size="24.874"
     transform="scale(4.2167652,0.23714861)" />
  <text
     style="font-size:4654.54589844px;line-height:125%;letter-spacing:0;word-spacing:0;fill:#555753;font-family:Gentium Book Basic"
     sodipodi:linespacing="125%"
     id="text32"
     x="-39462.637"
     y="-1728.4656"
     word-spacing="0"
     line-height="125%"
     letter-spacing="0"
     font-size="200">
    <tspan
       id="tspan34"
       x="-39462.637"
       y="-1728.4656" />
  </text>
  <text
     style="font-size:1691.22058105px;text-anchor:middle;fill:#555753;font-family:Arial"
     id="text36"
     x="-2735.4626"
     y="-19511.525"
     font-size="72.67"
     transform="scale(4.0128206,0.24920128)" />
  <text
     style="font-size:4848.40771484px;line-height:125%;letter-spacing:0;word-spacing:0;fill:#000000;stroke:#cd1d31;stroke-width:23.27272987;font-family:Gentium Book Basic"
     sodipodi:linespacing="125%"
     id="text40"
     x="-25279.537"
     y="-13955.027"
     word-spacing="0"
     line-height="125%"
     letter-spacing="0"
     font-size="208.33">
    <tspan
       style="stroke-width:23.27272987"
       id="tspan42"
       x="-25279.537"
       y="-13955.027" />
  </text>
  <text
     style="font-size:1761.73657227px;text-anchor:middle;fill:#000000;stroke:none;font-family:Arial"
     id="text44"
     x="1094.7437"
     y="-69099.18"
     font-size="75.7"
     transform="scale(4.0128206,0.24920128)" />
  <text
     style="font-size:4848.40771484px;line-height:125%;letter-spacing:0;word-spacing:0;fill:#000000;stroke:#cd1d31;stroke-width:23.27272987;font-family:Gentium Book Basic"
     sodipodi:linespacing="125%"
     id="text46"
     x="-25414.52"
     y="-13042.969"
     word-spacing="0"
     line-height="125%"
     letter-spacing="0"
     font-size="208.33">
    <tspan
       style="stroke-width:23.27272987"
       id="tspan48"
       x="-25414.52"
       y="-13042.969" />
  </text>
  <text
     style="font-size:1761.73657227px;text-anchor:middle;fill:#000000;stroke:none;font-family:Arial"
     id="text50"
     x="1061.0681"
     y="-65439.094"
     font-size="75.7"
     transform="scale(4.0128206,0.24920128)" />
  <text
     font-size="127.88"
     letter-spacing="0"
     line-height="125%"
     word-spacing="0"
     y="-20868.805"
     x="-11039.84"
     transform="scale(1.0508243,0.95163389)"
     id="text56"
     sodipodi:linespacing="125%"
     style="font-size:2976.10449219px;line-height:125%;letter-spacing:0;word-spacing:0;fill:#555753;stroke:#cd1d31;stroke-width:23.27263451;font-family:Gentium Book Basic">
    <tspan
       style="stroke-width:23.27263451"
       y="-20868.805"
       x="-11039.84"
       id="tspan58" />
  </text>
  <text
     transform="scale(4.2167652,0.23714861)"
     font-size="46.47"
     y="-91785.164"
     x="1787.8217"
     id="text60"
     style="font-size:1081.4901123px;text-anchor:middle;fill:#555753;stroke:#cd1d31;stroke-width:23.2728672;font-family:Arial" />
  <text
     font-size="68.46"
     letter-spacing="0"
     line-height="125%"
     word-spacing="0"
     y="-21693.818"
     x="-1637.2299"
     transform="scale(1.0508243,0.95163389)"
     id="text62"
     sodipodi:linespacing="125%"
     style="font-size:1593.24450684px;line-height:125%;letter-spacing:0;word-spacing:0;fill:#555753;stroke:#cd1d31;stroke-width:23.27263451;font-family:Gentium Book Basic">
    <tspan
       style="stroke-width:23.27263451"
       y="-21693.818"
       x="-1637.2299"
       id="tspan64" />
  </text>
  <text
     transform="scale(4.2167652,0.23714861)"
     font-size="24.874"
     y="-91359.039"
     x="2021.714"
     id="text66"
     style="font-size:578.88928223px;text-anchor:middle;fill:#555753;stroke:#cd1d31;stroke-width:23.2728672;font-family:Arial" />
  <text
     font-size="200"
     letter-spacing="0"
     line-height="125%"
     word-spacing="0"
     y="-17068.686"
     x="-37614.082"
     id="text68"
     sodipodi:linespacing="125%"
     style="font-size:4654.54589844px;line-height:125%;letter-spacing:0;word-spacing:0;fill:#555753;stroke:#cd1d31;stroke-width:23.27272987;font-family:Gentium Book Basic">
    <tspan
       style="stroke-width:23.27272987"
       y="-17068.686"
       x="-37614.082"
       id="tspan70" />
  </text>
  <text
     style="font-size:1691.22058105px;text-anchor:middle;fill:#555753;stroke:none;font-family:Arial"
     id="text72"
     x="-2274.8977"
     y="-81069.211"
     font-size="72.67"
     transform="scale(4.0128206,0.24920128)" />
  <text
     style="font-size:4654.54589844px;line-height:125%;letter-spacing:0;word-spacing:0;fill:#000000;stroke:#cd1d31;stroke-width:23.27272987;font-family:Gentium Book Basic"
     sodipodi:linespacing="125%"
     id="text76"
     x="-8303.71"
     y="-20644.541"
     word-spacing="0"
     line-height="125%"
     letter-spacing="0"
     font-size="200">
    <tspan
       style="stroke-width:23.27272987"
       id="tspan78"
       x="-8303.71"
       y="-20644.541" />
  </text>
  <text
     style="font-size:1691.22058105px;text-anchor:middle;fill:#000000;stroke:none;font-family:Arial"
     id="text80"
     x="5029.2114"
     y="-95418.398"
     font-size="72.67"
     transform="scale(4.0128206,0.24920128)" />
  <text
     style="font-size:4654.54589844px;line-height:125%;letter-spacing:0;word-spacing:0;fill:#000000;stroke:#cd1d31;stroke-width:23.27272987;font-family:Gentium Book Basic"
     sodipodi:linespacing="125%"
     id="text82"
     x="12632.903"
     y="-23526.17"
     word-spacing="0"
     line-height="125%"
     letter-spacing="0"
     font-size="200">
    <tspan
       style="stroke-width:23.27272987"
       id="tspan84"
       x="12632.903"
       y="-23526.17" />
  </text>
  <text
     style="font-size:1691.22058105px;text-anchor:middle;fill:#000000;stroke:none;font-family:Arial"
     id="text86"
     x="10246.698"
     y="-106981.63"
     font-size="72.67"
     transform="scale(4.0128206,0.24920128)" />
  <text
     font-size="15.991"
     letter-spacing="0"
     line-height="125%"
     word-spacing="0"
     x="-206.94112"
     y="-225.88513"
     id="text92"
     sodipodi:linespacing="125%"
     style="font-size:372.15423584px;line-height:125%;letter-spacing:0;word-spacing:0;font-family:Gentium Book Basic">
    <tspan
       x="-206.94112"
       y="-225.88513"
       id="tspan94" />
  </text>
  <text
     x="515.9538"
     y="-1911.845"
     font-size="5.81"
     transform="scale(4.0128206,0.24920128)"
     id="text96"
     style="font-size:135.21386719px;text-anchor:middle;font-family:Arial" />
  <text
     font-size="15.991"
     letter-spacing="0"
     line-height="125%"
     word-spacing="0"
     x="1467.1129"
     y="-456.28516"
     id="text98"
     sodipodi:linespacing="125%"
     style="font-size:372.15423584px;line-height:125%;letter-spacing:0;word-spacing:0;font-family:Gentium Book Basic">
    <tspan
       x="1467.1129"
       y="-456.28516"
       id="tspan100" />
  </text>
  <text
     x="933.23163"
     y="-2836.4658"
     font-size="5.81"
     transform="scale(4.0128206,0.24920128)"
     id="text102"
     style="font-size:135.21386719px;text-anchor:middle;font-family:Arial" />
  <text
     font-size="15.991"
     letter-spacing="0"
     line-height="125%"
     word-spacing="0"
     x="-1619.0839"
     y="-978.38562"
     id="text104"
     sodipodi:linespacing="125%"
     style="font-size:372.15423584px;line-height:125%;letter-spacing:0;word-spacing:0;font-family:Gentium Book Basic">
    <tspan
       x="-1619.0839"
       y="-978.38562"
       id="tspan106" />
  </text>
  <text
     x="164.07191"
     y="-4931.2334"
     font-size="5.81"
     transform="scale(4.0128206,0.24920128)"
     id="text108"
     style="font-size:135.21386719px;text-anchor:middle;font-family:Arial" />
  <text
     font-size="15.991"
     letter-spacing="0"
     line-height="125%"
     word-spacing="0"
     x="1543.2147"
     y="-1601.7223"
     id="text110"
     sodipodi:linespacing="125%"
     style="font-size:372.15423584px;line-height:125%;letter-spacing:0;word-spacing:0;font-family:Gentium Book Basic">
    <tspan
       x="1543.2147"
       y="-1601.7223"
       id="tspan112" />
  </text>
  <text
     x="952.15228"
     y="-7432.8066"
     font-size="5.81"
     transform="scale(4.0128206,0.24920128)"
     id="text114"
     style="font-size:135.21386719px;text-anchor:middle;font-family:Arial" />
  <text
     font-size="15.991"
     letter-spacing="0"
     line-height="125%"
     word-spacing="0"
     x="3217.2224"
     y="-1832.0293"
     id="text116"
     sodipodi:linespacing="125%"
     style="font-size:372.15423584px;line-height:125%;letter-spacing:0;word-spacing:0;font-family:Gentium Book Basic">
    <tspan
       x="3217.2224"
       y="-1832.0293"
       id="tspan118" />
  </text>
  <text
     x="1369.314"
     y="-8357.4268"
     font-size="5.81"
     transform="scale(4.0128206,0.24920128)"
     id="text120"
     style="font-size:135.21386719px;text-anchor:middle;font-family:Arial" />
  <text
     font-size="15.991"
     letter-spacing="0"
     line-height="125%"
     word-spacing="0"
     x="2096.6401"
     y="-3192.553"
     id="text122"
     sodipodi:linespacing="125%"
     style="font-size:372.15423584px;line-height:125%;letter-spacing:0;word-spacing:0;font-family:Gentium Book Basic">
    <tspan
       x="2096.6401"
       y="-3192.553"
       id="tspan124" />
  </text>
  <text
     x="1090.0658"
     y="-13816.717"
     font-size="5.81"
     transform="scale(4.0128206,0.24920128)"
     id="text126"
     style="font-size:135.21386719px;text-anchor:middle;font-family:Arial" />
  <text
     font-size="15.991"
     letter-spacing="0"
     line-height="125%"
     word-spacing="0"
     x="3770.6477"
     y="-3422.9531"
     id="text128"
     sodipodi:linespacing="125%"
     style="font-size:372.15423584px;line-height:125%;letter-spacing:0;word-spacing:0;font-family:Gentium Book Basic">
    <tspan
       x="3770.6477"
       y="-3422.9531"
       id="tspan130" />
  </text>
  <text
     x="1507.2274"
     y="-14741.337"
     font-size="5.81"
     transform="scale(4.0128206,0.24920128)"
     id="text132"
     style="font-size:135.21386719px;text-anchor:middle;font-family:Arial" />
  <text
     style="font-size:599.9942627px;line-height:125%;letter-spacing:0;word-spacing:0;font-family:Gentium Book Basic"
     id="text136"
     y="651.28735"
     x="-1507.6772"
     font-size="25.781"
     sodipodi:linespacing="125%">
    <tspan
       id="tspan138"
       y="651.28735"
       x="-1507.6772" />
  </text>
  <text
     style="font-size:372.15423584px;line-height:125%;letter-spacing:0;word-spacing:0;font-family:Gentium Book Basic"
     id="text140"
     y="-2365.2075"
     x="8732.8594"
     font-size="15.991"
     sodipodi:linespacing="125%">
    <tspan
       id="tspan142"
       y="-2365.2075"
       x="8732.8594" />
  </text>
  <text
     x="2743.8408"
     y="-10497.11"
     font-size="5.81"
     transform="scale(4.0128206,0.24920128)"
     id="text144"
     style="font-size:135.21386719px;text-anchor:middle;font-family:Arial" />
  <text
     font-size="15.991"
     letter-spacing="0"
     line-height="125%"
     word-spacing="0"
     x="10406.634"
     y="-2595.6077"
     id="text146"
     sodipodi:linespacing="125%"
     style="font-size:372.15423584px;line-height:125%;letter-spacing:0;word-spacing:0;font-family:Gentium Book Basic">
    <tspan
       x="10406.634"
       y="-2595.6077"
       id="tspan148" />
  </text>
  <text
     x="3160.8862"
     y="-11421.499"
     font-size="5.81"
     transform="scale(4.0128206,0.24920128)"
     id="text150"
     style="font-size:135.21386719px;text-anchor:middle;font-family:Arial" />
  <text
     font-size="15.991"
     letter-spacing="0"
     line-height="125%"
     word-spacing="0"
     x="7320.6699"
     y="-3117.615"
     id="text152"
     sodipodi:linespacing="125%"
     style="font-size:372.15423584px;line-height:125%;letter-spacing:0;word-spacing:0;font-family:Gentium Book Basic">
    <tspan
       x="7320.6699"
       y="-3117.615"
       id="tspan154" />
  </text>
  <text
     x="2391.959"
     y="-13516.268"
     font-size="5.81"
     transform="scale(4.0128206,0.24920128)"
     id="text156"
     style="font-size:135.21386719px;text-anchor:middle;font-family:Arial" />
  <text
     font-size="15.991"
     letter-spacing="0"
     line-height="125%"
     word-spacing="0"
     x="10482.969"
     y="-3741.0913"
     id="text158"
     sodipodi:linespacing="125%"
     style="font-size:372.15423584px;line-height:125%;letter-spacing:0;word-spacing:0;font-family:Gentium Book Basic">
    <tspan
       x="10482.969"
       y="-3741.0913"
       id="tspan160" />
  </text>
  <text
     x="3179.9695"
     y="-16018.073"
     font-size="5.81"
     transform="scale(4.0128206,0.24920128)"
     id="text162"
     style="font-size:135.21386719px;text-anchor:middle;font-family:Arial" />
  <text
     font-size="15.991"
     letter-spacing="0"
     line-height="125%"
     word-spacing="0"
     x="12156.976"
     y="-3971.4912"
     id="text164"
     sodipodi:linespacing="125%"
     style="font-size:372.15423584px;line-height:125%;letter-spacing:0;word-spacing:0;font-family:Gentium Book Basic">
    <tspan
       x="12156.976"
       y="-3971.4912"
       id="tspan166" />
  </text>
  <text
     x="3597.0146"
     y="-16942.461"
     font-size="5.81"
     transform="scale(4.0128206,0.24920128)"
     id="text168"
     style="font-size:135.21386719px;text-anchor:middle;font-family:Arial" />
  <text
     font-size="15.991"
     letter-spacing="0"
     line-height="125%"
     word-spacing="0"
     x="11036.395"
     y="-5332.0151"
     id="text170"
     sodipodi:linespacing="125%"
     style="font-size:372.15423584px;line-height:125%;letter-spacing:0;word-spacing:0;font-family:Gentium Book Basic">
    <tspan
       x="11036.395"
       y="-5332.0151"
       id="tspan172" />
  </text>
  <text
     x="3317.7434"
     y="-22401.982"
     font-size="5.81"
     transform="scale(4.0128206,0.24920128)"
     id="text174"
     style="font-size:135.21386719px;text-anchor:middle;font-family:Arial" />
  <text
     font-size="15.991"
     letter-spacing="0"
     line-height="125%"
     word-spacing="0"
     x="12710.402"
     y="-5562.415"
     id="text176"
     sodipodi:linespacing="125%"
     style="font-size:372.15423584px;line-height:125%;letter-spacing:0;word-spacing:0;font-family:Gentium Book Basic">
    <tspan
       x="12710.402"
       y="-5562.415"
       id="tspan178" />
  </text>
  <text
     x="3735.0215"
     y="-23326.371"
     font-size="5.81"
     transform="scale(4.0128206,0.24920128)"
     id="text180"
     style="font-size:135.21386719px;text-anchor:middle;font-family:Arial" />
  <text
     font-size="25.781"
     letter-spacing="0"
     line-height="125%"
     word-spacing="0"
     x="7431.9136"
     y="-1488.1282"
     id="text182"
     sodipodi:linespacing="125%"
     style="font-size:599.9942627px;line-height:125%;letter-spacing:0;word-spacing:0;font-family:Gentium Book Basic">
    <tspan
       x="7431.9136"
       y="-1488.1282"
       id="tspan184" />
  </text>
  <text
     x="-27955.9"
     y="1339.5784"
     word-spacing="0"
     line-height="125%"
     letter-spacing="0"
     font-size="208.33"
     id="text188"
     sodipodi:linespacing="125%"
     style="font-size:4848.40771484px;line-height:125%;letter-spacing:0;word-spacing:0;font-family:Gentium Book Basic">
    <tspan
       x="-27955.9"
       y="1339.5784"
       id="tspan190" />
  </text>
  <text
     x="427.75058"
     y="-7724.8774"
     font-size="75.7"
     transform="scale(4.0128206,0.24920128)"
     id="text192"
     style="font-size:1761.73657227px;text-anchor:middle;font-family:Arial" />
  <text
     x="-28090.65"
     y="2251.6367"
     word-spacing="0"
     line-height="125%"
     letter-spacing="0"
     font-size="208.33"
     id="text194"
     sodipodi:linespacing="125%"
     style="font-size:4848.40771484px;line-height:125%;letter-spacing:0;word-spacing:0;font-family:Gentium Book Basic">
    <tspan
       x="-28090.65"
       y="2251.6367"
       id="tspan196" />
  </text>
  <text
     x="394.14496"
     y="-4064.7942"
     font-size="75.7"
     transform="scale(4.0128206,0.24920128)"
     id="text198"
     style="font-size:1761.73657227px;text-anchor:middle;font-family:Arial" />
  <text
     style="font-size:2976.10449219px;line-height:125%;letter-spacing:0;word-spacing:0;fill:#555753;font-family:Gentium Book Basic"
     sodipodi:linespacing="125%"
     id="text202"
     font-size="127.88"
     letter-spacing="0"
     line-height="125%"
     word-spacing="0"
     y="-4796.9556"
     x="-13586.564"
     transform="scale(1.0508243,0.95163389)">
    <tspan
       id="tspan204"
       y="-4796.9556"
       x="-13586.564" />
  </text>
  <text
     style="font-size:1081.4901123px;text-anchor:middle;fill:#555753;font-family:Arial"
     id="text206"
     transform="scale(4.2167652,0.23714861)"
     font-size="46.47"
     y="-27290.695"
     x="1153.0775" />
  <text
     style="font-size:1593.24450684px;line-height:125%;letter-spacing:0;word-spacing:0;fill:#555753;font-family:Gentium Book Basic"
     sodipodi:linespacing="125%"
     id="text208"
     font-size="68.46"
     letter-spacing="0"
     line-height="125%"
     word-spacing="0"
     y="-5621.9707"
     x="-4183.9541"
     transform="scale(1.0508243,0.95163389)">
    <tspan
       id="tspan210"
       y="-5621.9707"
       x="-4183.9541" />
  </text>
  <text
     style="font-size:578.88928223px;text-anchor:middle;fill:#555753;font-family:Arial"
     id="text212"
     transform="scale(4.2167652,0.23714861)"
     font-size="24.874"
     y="-26864.801"
     x="1387.0629" />
  <text
     style="font-size:4654.54589844px;line-height:125%;letter-spacing:0;word-spacing:0;fill:#555753;font-family:Gentium Book Basic"
     sodipodi:linespacing="125%"
     id="text214"
     font-size="200"
     letter-spacing="0"
     line-height="125%"
     word-spacing="0"
     y="-1774.0803"
     x="-40290.215">
    <tspan
       id="tspan216"
       y="-1774.0803"
       x="-40290.215" />
  </text>
  <text
     style="font-size:1691.22058105px;text-anchor:middle;fill:#555753;font-family:Arial"
     id="text218"
     transform="scale(4.0128206,0.24920128)"
     font-size="72.67"
     y="-19694.912"
     x="-2941.658" />
  <text
     style="font-size:4848.40771484px;line-height:125%;letter-spacing:0;word-spacing:0;fill:#000000;stroke:#cd1d31;stroke-width:23.27272987;font-family:Gentium Book Basic"
     sodipodi:linespacing="125%"
     id="text222"
     font-size="208.33"
     letter-spacing="0"
     line-height="125%"
     word-spacing="0"
     y="-14000.874"
     x="-26107.35">
    <tspan
       style="stroke-width:23.27272987"
       id="tspan224"
       y="-14000.874"
       x="-26107.35" />
  </text>
  <text
     style="font-size:1761.73657227px;text-anchor:middle;fill:#000000;stroke:none;font-family:Arial"
     id="text226"
     transform="scale(4.0128206,0.24920128)"
     font-size="75.7"
     y="-69282.328"
     x="888.31549" />
  <text
     style="font-size:4848.40771484px;line-height:125%;letter-spacing:0;word-spacing:0;fill:#000000;stroke:#cd1d31;stroke-width:23.27272987;font-family:Gentium Book Basic"
     sodipodi:linespacing="125%"
     id="text228"
     font-size="208.33"
     letter-spacing="0"
     line-height="125%"
     word-spacing="0"
     y="-13088.584"
     x="-26242.098">
    <tspan
       style="stroke-width:23.27272987"
       id="tspan230"
       y="-13088.584"
       x="-26242.098" />
  </text>
  <text
     style="font-size:1761.73657227px;text-anchor:middle;fill:#000000;stroke:none;font-family:Arial"
     id="text232"
     transform="scale(4.0128206,0.24920128)"
     font-size="75.7"
     y="-65622.477"
     x="854.80298" />
  <text
     transform="scale(1.0508243,0.95163389)"
     x="-11827.386"
     y="-20916.746"
     word-spacing="0"
     line-height="125%"
     letter-spacing="0"
     font-size="127.88"
     id="text238"
     sodipodi:linespacing="125%"
     style="font-size:2976.10449219px;line-height:125%;letter-spacing:0;word-spacing:0;fill:#555753;stroke:#cd1d31;stroke-width:23.27263451;font-family:Gentium Book Basic">
    <tspan
       style="stroke-width:23.27263451"
       x="-11827.386"
       y="-20916.746"
       id="tspan240" />
  </text>
  <text
     x="1591.3986"
     y="-91977.625"
     font-size="46.47"
     transform="scale(4.2167652,0.23714861)"
     id="text242"
     style="font-size:1081.4901123px;text-anchor:middle;fill:#555753;stroke:#cd1d31;stroke-width:23.2728672;font-family:Arial" />
  <text
     transform="scale(1.0508243,0.95163389)"
     x="-2424.7759"
     y="-21741.76"
     word-spacing="0"
     line-height="125%"
     letter-spacing="0"
     font-size="68.46"
     id="text244"
     sodipodi:linespacing="125%"
     style="font-size:1593.24450684px;line-height:125%;letter-spacing:0;word-spacing:0;fill:#555753;stroke:#cd1d31;stroke-width:23.27263451;font-family:Gentium Book Basic">
    <tspan
       style="stroke-width:23.27263451"
       x="-2424.7759"
       y="-21741.76"
       id="tspan246" />
  </text>
  <text
     x="1825.5237"
     y="-91551.734"
     font-size="24.874"
     transform="scale(4.2167652,0.23714861)"
     id="text248"
     style="font-size:578.88928223px;text-anchor:middle;fill:#555753;stroke:#cd1d31;stroke-width:23.2728672;font-family:Arial" />
  <text
     x="-38441.898"
     y="-17114.301"
     word-spacing="0"
     line-height="125%"
     letter-spacing="0"
     font-size="200"
     id="text250"
     sodipodi:linespacing="125%"
     style="font-size:4654.54589844px;line-height:125%;letter-spacing:0;word-spacing:0;fill:#555753;stroke:#cd1d31;stroke-width:23.27272987;font-family:Gentium Book Basic">
    <tspan
       style="stroke-width:23.27272987"
       x="-38441.898"
       y="-17114.301"
       id="tspan252" />
  </text>
  <text
     style="font-size:1691.22058105px;text-anchor:middle;fill:#555753;stroke:none;font-family:Arial"
     id="text254"
     transform="scale(4.0128206,0.24920128)"
     font-size="72.67"
     y="-81252.602"
     x="-2481.093" />
  <text
     style="font-size:4654.54589844px;line-height:125%;letter-spacing:0;word-spacing:0;fill:#000000;stroke:#cd1d31;stroke-width:23.27272987;font-family:Gentium Book Basic"
     sodipodi:linespacing="125%"
     id="text258"
     font-size="200"
     letter-spacing="0"
     line-height="125%"
     word-spacing="0"
     y="-20690.156"
     x="-9131.5205">
    <tspan
       style="stroke-width:23.27272987"
       id="tspan260"
       y="-20690.156"
       x="-9131.5205" />
  </text>
  <text
     style="font-size:1691.22058105px;text-anchor:middle;fill:#000000;stroke:none;font-family:Arial"
     id="text262"
     transform="scale(4.0128206,0.24920128)"
     font-size="72.67"
     y="-95601.797"
     x="4823.0161" />
  <text
     style="font-size:4654.54589844px;line-height:125%;letter-spacing:0;word-spacing:0;fill:#000000;stroke:#cd1d31;stroke-width:23.27272987;font-family:Gentium Book Basic"
     sodipodi:linespacing="125%"
     id="text264"
     font-size="200"
     letter-spacing="0"
     line-height="125%"
     word-spacing="0"
     y="-23571.783"
     x="11805.093">
    <tspan
       style="stroke-width:23.27272987"
       id="tspan266"
       y="-23571.783"
       x="11805.093" />
  </text>
  <text
     style="font-size:1691.22058105px;text-anchor:middle;fill:#000000;stroke:none;font-family:Arial"
     id="text268"
     transform="scale(4.0128206,0.24920128)"
     font-size="72.67"
     y="-107165.02"
     x="10040.271" />
  <path
     inkscape:connector-curvature="0"
     style="fill:#cd1d31;fill-opacity:1;stroke:none"
     d="m 25.999999,1e-6 c -14.39735,0 -25.99999925000003,11.602648 -25.99999925000003,26 l 0,459.999999 C -2.5000003e-7,500.39735 11.602649,512 25.999999,512 L 486,512 c 14.39735,0 26,-11.60265 26,-26 l 0,-459.999999 c 0,-14.397352 -11.60265,-26 -26,-26 l -460.000001,0 z"
     id="rect2986" />
  <g
     style="fill:#000000;opacity:0.25"
     id="g3605"
     clip-path="url(#clipPath3971)">
    <path
       inkscape:connector-curvature="0"
       d="m 77.910941,80.284871 0.02949,0.02949 388.908729,388.908729 -0.0295,-0.0295 z"
       id="path3607"
       style="fill:#000000" />
    <path
       inkscape:connector-curvature="0"
       d="M 77.940431,80.314361 C 65.817473,80.314361 56,90.139358 56,102.28428 l 388.90873,388.90873 c 0,-12.14492 9.81747,-21.96992 21.94043,-21.96992 z"
       id="path3609"
       style="fill:#000000" />
    <path
       inkscape:connector-curvature="0"
       d="m 56,102.28428 0,307.46093 388.90873,388.90873 0,-307.46093 z"
       id="path3611"
       style="fill:#000000" />
    <path
       inkscape:connector-curvature="0"
       d="m 56,409.74521 c 0,6.07709 2.458113,11.57332 6.433192,15.5484 L 451.34192,814.20234 c -3.97508,-3.97508 -6.43319,-9.47131 -6.43319,-15.5484 z"
       id="path3613"
       style="fill:#000000" />
    <path
       inkscape:connector-curvature="0"
       d="m 62.433192,425.29361 c 3.969019,3.96902 9.450383,6.42152 15.507239,6.42152 L 466.84916,820.62386 c -6.05686,0 -11.53822,-2.45251 -15.50724,-6.42152 z"
       id="path3615"
       style="fill:#000000" />
    <path
       inkscape:connector-curvature="0"
       d="m 77.940431,431.71513 171.601299,0 388.90873,388.90873 -171.6013,0 z"
       id="path3617"
       style="fill:#000000" />
    <path
       inkscape:connector-curvature="0"
       d="m 249.54173,431.71513 -49.42495,-50.81097 388.90873,388.90873 49.42495,50.81097 z"
       id="path3619"
       style="fill:#000000" />
    <path
       inkscape:connector-curvature="0"
       d="m 200.11678,380.90416 -4.12858,-4.12858 388.90873,388.90873 4.12858,4.12858 z"
       id="path3621"
       style="fill:#000000" />
    <path
       inkscape:connector-curvature="0"
       d="m 195.9882,376.77558 -107.048064,0 388.908734,388.90873 107.04806,0 z"
       id="path3623"
       style="fill:#000000" />
    <path
       inkscape:connector-curvature="0"
       d="m 88.940136,376.77558 0,-24.71247 388.908734,388.90873 0,24.71247 z"
       id="path3625"
       style="fill:#000000" />
    <path
       inkscape:connector-curvature="0"
       d="m 88.940136,352.06311 109.790624,0 388.90873,388.90873 -109.79062,0 z"
       id="path3627"
       style="fill:#000000" />
    <path
       inkscape:connector-curvature="0"
       d="m 198.73076,352.06311 0,6.90062 388.90873,388.90873 0,-6.90062 z"
       id="path3629"
       style="fill:#000000" />
    <path
       inkscape:connector-curvature="0"
       d="m 198.73076,358.96373 1.38602,-1.38602 388.90873,388.90873 -1.38602,1.38602 z"
       id="path3631"
       style="fill:#000000" />
    <path
       inkscape:connector-curvature="0"
       d="m 200.11678,357.57771 34.32616,-33.64789 388.90873,388.90873 -34.32616,33.64789 z"
       id="path3633"
       style="fill:#000000" />
    <path
       inkscape:connector-curvature="0"
       d="m 234.44294,323.92982 0,-30.19759 388.90873,388.90873 0,30.19759 z"
       id="path3635"
       style="fill:#000000" />
    <path
       inkscape:connector-curvature="0"
       d="m 234.44294,293.73223 -35.00443,-34.32615 388.90873,388.90873 35.00443,34.32615 z"
       id="path3637"
       style="fill:#000000" />
    <path
       inkscape:connector-curvature="0"
       d="m 199.43851,259.40608 -11.64848,-12.35624 388.90873,388.90873 11.64848,12.35624 z"
       id="path3639"
       style="fill:#000000" />
    <path
       inkscape:connector-curvature="0"
       d="m 187.79003,247.04984 9.61369,-8.22766 388.90873,388.90873 -9.61369,8.22766 z"
       id="path3641"
       style="fill:#000000" />
    <path
       inkscape:connector-curvature="0"
       d="m 197.40372,238.82218 -108.463584,0 388.908734,388.90873 108.46358,0 z"
       id="path3643"
       style="fill:#000000" />
    <path
       inkscape:connector-curvature="0"
       d="m 88.940136,238.82218 0,-24.71248 388.908734,388.90873 0,24.71248 z"
       id="path3645"
       style="fill:#000000" />
    <path
       inkscape:connector-curvature="0"
       d="m 88.940136,214.1097 133.087584,0 388.90873,388.90873 -133.08758,0 z"
       id="path3647"
       style="fill:#000000" />
    <path
       inkscape:connector-curvature="0"
       d="m 222.02772,214.1097 30.19758,-30.19758 388.90873,388.90873 -30.19758,30.19758 z"
       id="path3649"
       style="fill:#000000" />
    <path
       inkscape:connector-curvature="0"
       d="m 252.2253,183.91212 c -3.05193,0 -5.81164,-1.24441 -7.79969,-3.2538 l 388.90873,388.90873 c 1.98805,2.00939 4.74776,3.2538 7.79969,3.2538 z"
       id="path3651"
       style="fill:#000000" />
    <path
       inkscape:connector-curvature="0"
       d="m 244.42561,180.65832 c -1.96044,-1.98149 -3.17052,-4.70686 -3.17052,-7.71641 l 388.90873,388.90873 c 0,3.00955 1.21008,5.73492 3.17052,7.71641 z"
       id="path3653"
       style="fill:#000000" />
    <path
       inkscape:connector-curvature="0"
       d="m 241.25509,172.94191 0,-92.657038 388.90873,388.908728 0,92.65704 z"
       id="path3655"
       style="fill:#000000" />
    <path
       inkscape:connector-curvature="0"
       d="m 241.25509,80.284872 -163.344149,0 388.908729,388.908728 163.34415,0 z"
       id="path3657"
       style="fill:#000000" />
    <path
       inkscape:connector-curvature="0"
       d="m 263.90327,80.284871 0,78.914779 388.90873,388.90873 0,-78.91478 z"
       id="path3659"
       style="fill:#000000" />
    <path
       inkscape:connector-curvature="0"
       d="m 263.90327,159.19965 77.55825,0 388.90873,388.90873 -77.55825,0 z"
       id="path3661"
       style="fill:#000000" />
    <path
       inkscape:connector-curvature="0"
       d="M 341.46152,159.19965 263.90327,80.284871 652.812,469.1936 l 77.55825,78.91478 z"
       id="path3663"
       style="fill:#000000" />
    <path
       inkscape:connector-curvature="0"
       d="m 88.881156,145.48688 109.820114,0 388.90873,388.90873 -109.82011,0 z"
       id="path3665"
       style="fill:#000000" />
    <path
       inkscape:connector-curvature="0"
       d="m 198.70127,145.48688 0,24.71247 388.90873,388.90873 0,-24.71247 z"
       id="path3667"
       style="fill:#000000" />
    <path
       inkscape:connector-curvature="0"
       d="m 198.70127,170.19935 -109.820114,0 388.908734,388.90873 109.82011,0 z"
       id="path3669"
       style="fill:#000000" />
    <path
       inkscape:connector-curvature="0"
       d="m 88.881156,170.19935 0,-24.71247 388.908734,388.90873 0,24.71247 z"
       id="path3671"
       style="fill:#000000" />
    <path
       inkscape:connector-curvature="0"
       d="m 293.42259,183.91212 40.48953,40.48953 388.90873,388.90873 -40.48953,-40.48953 z"
       id="path3673"
       style="fill:#000000" />
    <path
       inkscape:connector-curvature="0"
       d="m 333.91212,224.40165 7.5494,-7.54939 388.90873,388.90873 -7.5494,7.54939 z"
       id="path3675"
       style="fill:#000000" />
    <path
       inkscape:connector-curvature="0"
       d="m 341.46152,216.85226 0,-32.94014 388.90873,388.90873 0,32.94014 z"
       id="path3677"
       style="fill:#000000" />
    <path
       inkscape:connector-curvature="0"
       d="m 341.46152,183.91212 -48.03893,0 388.90873,388.90873 48.03893,0 z"
       id="path3679"
       style="fill:#000000" />
    <path
       inkscape:connector-curvature="0"
       d="m 272.89767,186.53672 -61.57476,60.83751 388.90873,388.90873 61.57476,-60.83751 z"
       id="path3681"
       style="fill:#000000" />
    <path
       inkscape:connector-curvature="0"
       d="m 211.32291,247.37423 61.22088,61.22088 388.90873,388.90873 -61.22088,-61.22088 z"
       id="path3683"
       style="fill:#000000" />
    <path
       inkscape:connector-curvature="0"
       d="m 272.54379,308.59511 -60.867,60.83751 388.90873,388.90873 60.867,-60.83751 z"
       id="path3685"
       style="fill:#000000" />
    <path
       inkscape:connector-curvature="0"
       d="m 211.67679,369.43262 61.27986,62.16455 388.90873,388.90873 -61.27986,-62.16455 z"
       id="path3687"
       style="fill:#000000" />
    <path
       inkscape:connector-curvature="0"
       d="M 272.95665,431.59717 334.05957,370.16986 722.9683,759.07859 661.86538,820.5059 z"
       id="path3689"
       style="fill:#000000" />
    <path
       inkscape:connector-curvature="0"
       d="M 334.05957,370.16986 395.04453,431.30227 783.95326,820.211 722.9683,759.07859 z"
       id="path3691"
       style="fill:#000000" />
    <path
       inkscape:connector-curvature="0"
       d="M 395.04453,431.30227 456,369.63905 844.90873,758.54778 783.95326,820.211 z"
       id="path3693"
       style="fill:#000000" />
    <path
       inkscape:connector-curvature="0"
       d="m 456,369.63905 -60.89649,-60.92598 388.90873,388.90873 60.89649,60.92598 z"
       id="path3695"
       style="fill:#000000" />
    <path
       inkscape:connector-curvature="0"
       d="m 395.10351,308.71307 60.66057,-60.92598 388.90873,388.90873 -60.66057,60.92598 z"
       id="path3697"
       style="fill:#000000" />
    <path
       inkscape:connector-curvature="0"
       d="m 455.76408,247.78709 -61.25037,-61.25037 388.90873,388.90873 61.25037,61.25037 z"
       id="path3699"
       style="fill:#000000" />
    <path
       inkscape:connector-curvature="0"
       d="m 394.51371,186.53672 -60.80802,60.80802 388.90873,388.90873 60.80802,-60.80802 z"
       id="path3701"
       style="fill:#000000" />
    <path
       inkscape:connector-curvature="0"
       d="m 333.70569,247.34474 -60.80802,-60.80802 388.90873,388.90873 60.80802,60.80802 z"
       id="path3703"
       style="fill:#000000" />
    <path
       inkscape:connector-curvature="0"
       d="m 88.881156,283.46977 109.820114,0 388.90873,388.90873 -109.82011,0 z"
       id="path3705"
       style="fill:#000000" />
    <path
       inkscape:connector-curvature="0"
       d="m 198.70127,283.46977 0,24.71248 388.90873,388.90873 0,-24.71248 z"
       id="path3707"
       style="fill:#000000" />
    <path
       inkscape:connector-curvature="0"
       d="m 198.70127,308.18225 -109.820114,0 388.908734,388.90873 109.82011,0 z"
       id="path3709"
       style="fill:#000000" />
    <path
       inkscape:connector-curvature="0"
       d="m 88.881156,308.18225 0,-24.71248 388.908734,388.90873 0,24.71248 z"
       id="path3711"
       style="fill:#000000" />
    <path
       inkscape:connector-curvature="0"
       d="m 333.88263,393.93866 -37.74698,37.74698 388.90873,388.90873 37.74698,-37.74698 z"
       id="path3713"
       style="fill:#000000" />
    <path
       inkscape:connector-curvature="0"
       d="m 296.13565,431.68564 23.35595,0 388.90873,388.90873 -23.35595,0 z"
       id="path3715"
       style="fill:#000000" />
    <path
       inkscape:connector-curvature="0"
       d="m 319.4916,431.68564 c 12.14492,0 21.96992,-9.825 21.96992,-21.96992 l 388.90873,388.90873 c 0,12.14492 -9.825,21.96992 -21.96992,21.96992 z"
       id="path3717"
       style="fill:#000000" />
    <path
       inkscape:connector-curvature="0"
       d="m 341.46152,409.71572 0,-8.22766 388.90873,388.90873 0,8.22766 z"
       id="path3719"
       style="fill:#000000" />
    <path
       inkscape:connector-curvature="0"
       d="m 341.46152,401.48806 -7.57889,-7.5494 388.90873,388.90873 7.57889,7.5494 z"
       id="path3721"
       style="fill:#000000" />
  </g>
  <path
     style="fill:#ffffff"
     d="m 77.910941,80.284871 0.02949,0.02949 C 65.817473,80.314361 56,90.139358 56,102.28428 l 0,307.46093 c 0,12.14492 9.817473,21.96992 21.940431,21.96992 l 171.601299,0 -49.42495,-50.81097 -4.12858,-4.12858 -107.048064,0 0,-24.71247 109.790624,0 0,6.90062 1.38602,-1.38602 34.32616,-33.64789 0,-30.19759 -35.00443,-34.32615 -11.64848,-12.35624 9.61369,-8.22766 -108.463584,0 0,-24.71248 133.087584,0 30.19758,-30.19758 c -6.06148,0 -10.97021,-4.90873 -10.97021,-10.97021 l 0,-92.657038 -163.344149,0 z m 185.992329,0 0,78.914779 77.55825,0 -77.55825,-78.914779 z m -175.022114,65.202009 109.820114,0 0,24.71247 -109.820114,0 0,-24.71247 z m 204.541434,38.42524 40.48953,40.48953 7.5494,-7.54939 0,-32.94014 -48.03893,0 z m -20.52492,2.6246 -61.57476,60.83751 61.22088,61.22088 -60.867,60.83751 61.27986,62.16455 61.10292,-61.42731 60.98496,61.13241 L 456,369.63905 l -60.89649,-60.92598 60.66057,-60.92598 -61.25037,-61.25037 -60.80802,60.80802 -60.80802,-60.80802 z m -184.016514,96.93305 109.820114,0 0,24.71248 -109.820114,0 0,-24.71248 z m 245.001474,110.46889 -37.74698,37.74698 23.35595,0 c 12.14492,0 21.96992,-9.825 21.96992,-21.96992 l 0,-8.22766 -7.57889,-7.5494 z"
     id="path186"
     inkscape:connector-curvature="0" />
</svg>
