<?xml version="1.0" encoding="UTF-8" standalone="no"?>
<svg
   xmlns:dc="http://purl.org/dc/elements/1.1/"
   xmlns:cc="http://creativecommons.org/ns#"
   xmlns:rdf="http://www.w3.org/1999/02/22-rdf-syntax-ns#"
   xmlns:svg="http://www.w3.org/2000/svg"
   xmlns="http://www.w3.org/2000/svg"
   xmlns:sodipodi="http://sodipodi.sourceforge.net/DTD/sodipodi-0.dtd"
   xmlns:inkscape="http://www.inkscape.org/namespaces/inkscape"
   viewBox="0 0 512 512"
   id="svg2"
   version="1.1"
   inkscape:version="0.48.5 r10040"
   width="100%"
   height="100%"
   sodipodi:docname="download.svg">
  <sodipodi:namedview
     pagecolor="#ffffff"
     bordercolor="#666666"
     borderopacity="1"
     objecttolerance="10"
     gridtolerance="10"
     guidetolerance="10"
     inkscape:pageopacity="0"
     inkscape:pageshadow="2"
     inkscape:window-width="1306"
     inkscape:window-height="715"
     id="namedview192"
     showgrid="false"
     inkscape:zoom="0.4609375"
     inkscape:cx="-11.932203"
     inkscape:cy="256"
     inkscape:window-x="56"
     inkscape:window-y="28"
     inkscape:window-maximized="1"
     inkscape:current-layer="svg2" />
  <metadata
     id="metadata196">
    <rdf:RDF>
      <cc:Work
         rdf:about="">
        <dc:format>image/svg+xml</dc:format>
        <dc:type
           rdf:resource="http://purl.org/dc/dcmitype/StillImage" />
      </cc:Work>
    </rdf:RDF>
  </metadata>
  <defs
     id="defs194">
    <clipPath
       clipPathUnits="userSpaceOnUse"
       id="clipPath3599">
      <path
         id="path3601"
         d="M 26,-4.9999998e-7 C 11.60265,-4.9999998e-7 0,11.602648 0,26 l 0,460 c 0,14.39735 11.60265,26 26,26 l 460,0 c 14.39735,0 26,-11.60265 26,-26 L 512,26 C 512,11.602648 500.39735,-5e-7 486,-5e-7 l -460,0 z"
         style="fill:#0078ad;fill-opacity:1;stroke:none"
         inkscape:connector-curvature="0" />
    </clipPath>
  </defs>
  <path
     inkscape:connector-curvature="0"
     style="fill:#0078ad;fill-opacity:1;stroke:none"
     d="M 26,-4.9999998e-7 C 11.60265,-4.9999998e-7 0,11.602648 0,26 l 0,460 c 0,14.39735 11.60265,26 26,26 l 460,0 c 14.39735,0 26,-11.60265 26,-26 L 512,26 C 512,11.602648 500.39735,-5e-7 486,-5e-7 l -460,0 z"
     id="rect2986" />
  <text
     x="-27128.092"
     y="1385.1929"
     word-spacing="0"
     line-height="125%"
     letter-spacing="0"
     font-size="208.33"
     id="text6"
     sodipodi:linespacing="125%"
     style="font-size:4848.40771484px;line-height:125%;letter-spacing:0;word-spacing:0;font-family:Gentium Book Basic">
    <tspan
       x="-27128.092"
       y="1385.1929"
       id="tspan8" />
  </text>
  <text
     x="633.94592"
     y="-7541.4893"
     font-size="75.7"
     transform="scale(4.0128206,0.24920128)"
     id="text10"
     style="font-size:1761.73657227px;text-anchor:middle;font-family:Arial" />
  <text
     x="-27262.838"
     y="2297.2512"
     word-spacing="0"
     line-height="125%"
     letter-spacing="0"
     font-size="208.33"
     id="text12"
     sodipodi:linespacing="125%"
     style="font-size:4848.40771484px;line-height:125%;letter-spacing:0;word-spacing:0;font-family:Gentium Book Basic">
    <tspan
       x="-27262.838"
       y="2297.2512"
       id="tspan14" />
  </text>
  <text
     x="600.4101"
     y="-3881.6387"
     font-size="75.7"
     transform="scale(4.0128206,0.24920128)"
     id="text16"
     style="font-size:1761.73657227px;text-anchor:middle;font-family:Arial" />
  <g
     transform="scale(23.27273,23.27273)"
     id="g18"
     style="fill:#555753">
    <text
       transform="scale(1.05082,0.95163)"
       x="-549.96002"
       y="-204.06"
       word-spacing="0"
       line-height="125%"
       letter-spacing="0"
       font-size="127.88"
       id="text20"
       sodipodi:linespacing="125%"
       style="font-size:127.87999725px;line-height:125%;letter-spacing:0;word-spacing:0;font-family:Gentium Book Basic">
      <tspan
         x="-549.96002"
         y="-204.06"
         id="tspan22" />
    </text>
    <text
       x="57.980999"
       y="-1164.37"
       font-size="46.47"
       transform="scale(4.21679,0.23715)"
       id="text24"
       style="font-size:46.47000122px;text-anchor:middle;font-family:Arial" />
    <text
       transform="scale(1.05082,0.95163)"
       x="-145.92999"
       y="-239.50999"
       word-spacing="0"
       line-height="125%"
       letter-spacing="0"
       font-size="68.46"
       id="text26"
       sodipodi:linespacing="125%"
       style="font-size:68.45999908px;line-height:125%;letter-spacing:0;word-spacing:0;font-family:Gentium Book Basic">
      <tspan
         x="-145.92999"
         y="-239.50999"
         id="tspan28" />
    </text>
    <text
       x="68.040001"
       y="-1146.0601"
       font-size="24.874"
       transform="scale(4.21679,0.23715)"
       id="text30"
       style="font-size:24.87400055px;text-anchor:middle;font-family:Arial" />
    <text
       x="-1695.66"
       y="-74.269997"
       word-spacing="0"
       line-height="125%"
       letter-spacing="0"
       font-size="200"
       id="text32"
       sodipodi:linespacing="125%"
       style="font-size:200px;line-height:125%;letter-spacing:0;word-spacing:0;font-family:Gentium Book Basic">
      <tspan
         x="-1695.66"
         y="-74.269997"
         id="tspan34" />
    </text>
    <text
       x="-117.54"
       y="-838.39001"
       font-size="72.67"
       transform="scale(4.0128,0.2492)"
       id="text36"
       style="font-size:72.66999817px;text-anchor:middle;font-family:Arial" />
  </g>
  <g
     transform="scale(23.27273,23.27273)"
     id="g38"
     style="fill:#000000">
    <text
       x="-1086.23"
       y="-599.63"
       word-spacing="0"
       line-height="125%"
       letter-spacing="0"
       font-size="208.33"
       id="text40"
       sodipodi:linespacing="125%"
       style="font-size:208.33000183px;line-height:125%;letter-spacing:0;word-spacing:0;stroke:#cd1d31;font-family:Gentium Book Basic">
      <tspan
         x="-1086.23"
         y="-599.63"
         id="tspan42" />
    </text>
    <text
       x="47.040001"
       y="-2969.1201"
       font-size="75.7"
       transform="scale(4.0128,0.2492)"
       id="text44"
       style="font-size:75.69999695px;text-anchor:middle;stroke:none;font-family:Arial" />
    <text
       x="-1092.03"
       y="-560.44"
       word-spacing="0"
       line-height="125%"
       letter-spacing="0"
       font-size="208.33"
       id="text46"
       sodipodi:linespacing="125%"
       style="font-size:208.33000183px;line-height:125%;letter-spacing:0;word-spacing:0;stroke:#cd1d31;font-family:Gentium Book Basic">
      <tspan
         x="-1092.03"
         y="-560.44"
         id="tspan48" />
    </text>
    <text
       x="45.592999"
       y="-2811.8501"
       font-size="75.7"
       transform="scale(4.0128,0.2492)"
       id="text50"
       style="font-size:75.69999695px;text-anchor:middle;stroke:none;font-family:Arial" />
  </g>
  <g
     transform="scale(23.27273,23.27273)"
     id="g52"
     style="fill:#555753">
    <g
       id="g54"
       style="stroke:#cd1d31">
      <text
         transform="scale(1.05082,0.95163)"
         x="-474.37"
         y="-896.71002"
         word-spacing="0"
         line-height="125%"
         letter-spacing="0"
         font-size="127.88"
         id="text56"
         sodipodi:linespacing="125%"
         style="font-size:127.87999725px;line-height:125%;letter-spacing:0;word-spacing:0;font-family:Gentium Book Basic">
        <tspan
           x="-474.37"
           y="-896.71002"
           id="tspan58" />
      </text>
      <text
         x="76.82"
         y="-3943.8701"
         font-size="46.47"
         transform="scale(4.21679,0.23715)"
         id="text60"
         style="font-size:46.47000122px;text-anchor:middle;font-family:Arial" />
      <text
         transform="scale(1.05082,0.95163)"
         x="-70.349998"
         y="-932.15997"
         word-spacing="0"
         line-height="125%"
         letter-spacing="0"
         font-size="68.46"
         id="text62"
         sodipodi:linespacing="125%"
         style="font-size:68.45999908px;line-height:125%;letter-spacing:0;word-spacing:0;font-family:Gentium Book Basic">
        <tspan
           x="-70.349998"
           y="-932.15997"
           id="tspan64" />
      </text>
      <text
         x="86.870003"
         y="-3925.5601"
         font-size="24.874"
         transform="scale(4.21679,0.23715)"
         id="text66"
         style="font-size:24.87400055px;text-anchor:middle;font-family:Arial" />
      <text
         x="-1616.23"
         y="-733.41998"
         word-spacing="0"
         line-height="125%"
         letter-spacing="0"
         font-size="200"
         id="text68"
         sodipodi:linespacing="125%"
         style="font-size:200px;line-height:125%;letter-spacing:0;word-spacing:0;font-family:Gentium Book Basic">
        <tspan
           x="-1616.23"
           y="-733.41998"
           id="tspan70" />
      </text>
    </g>
    <text
       x="-97.75"
       y="-3483.46"
       font-size="72.67"
       transform="scale(4.0128,0.2492)"
       id="text72"
       style="font-size:72.66999817px;text-anchor:middle;stroke:none;font-family:Arial" />
  </g>
  <g
     transform="scale(23.27273,23.27273)"
     id="g74"
     style="fill:#000000">
    <text
       x="-356.79999"
       y="-887.07001"
       word-spacing="0"
       line-height="125%"
       letter-spacing="0"
       font-size="200"
       id="text76"
       sodipodi:linespacing="125%"
       style="font-size:200px;line-height:125%;letter-spacing:0;word-spacing:0;stroke:#cd1d31;font-family:Gentium Book Basic">
      <tspan
         x="-356.79999"
         y="-887.07001"
         id="tspan78" />
    </text>
    <text
       x="216.10001"
       y="-4100.0298"
       font-size="72.67"
       transform="scale(4.0128,0.2492)"
       id="text80"
       style="font-size:72.66999817px;text-anchor:middle;stroke:none;font-family:Arial" />
    <text
       x="542.82001"
       y="-1010.89"
       word-spacing="0"
       line-height="125%"
       letter-spacing="0"
       font-size="200"
       id="text82"
       sodipodi:linespacing="125%"
       style="font-size:200px;line-height:125%;letter-spacing:0;word-spacing:0;stroke:#cd1d31;font-family:Gentium Book Basic">
      <tspan
         x="542.82001"
         y="-1010.89"
         id="tspan84" />
    </text>
    <text
       x="440.29001"
       y="-4596.8901"
       font-size="72.67"
       transform="scale(4.0128,0.2492)"
       id="text86"
       style="font-size:72.66999817px;text-anchor:middle;stroke:none;font-family:Arial" />
  </g>
  <text
     y="-230.9353"
     x="10795.521"
     word-spacing="0"
     line-height="125%"
     letter-spacing="0"
     font-size="129.23"
     id="text92"
     sodipodi:linespacing="125%"
     style="font-size:3007.53491211px;line-height:125%;letter-spacing:0;word-spacing:0;font-family:Gentium Book Basic">
    <tspan
       y="-230.9353"
       x="10795.521"
       id="tspan94" />
  </text>
  <text
     transform="scale(4.0128206,0.24920128)"
     font-size="46.954"
     y="-9052.3477"
     x="7276.8799"
     id="text96"
     style="font-size:1092.7421875px;text-anchor:middle;font-family:Arial" />
  <text
     y="-2092.6838"
     x="24323.029"
     word-spacing="0"
     line-height="125%"
     letter-spacing="0"
     font-size="129.23"
     id="text98"
     sodipodi:linespacing="125%"
     style="font-size:3007.53491211px;line-height:125%;letter-spacing:0;word-spacing:0;font-family:Gentium Book Basic">
    <tspan
       y="-2092.6838"
       x="24323.029"
       id="tspan100" />
  </text>
  <text
     transform="scale(4.0128206,0.24920128)"
     font-size="46.954"
     y="-16523.553"
     x="10647.918"
     id="text102"
     style="font-size:1092.7421875px;text-anchor:middle;font-family:Arial" />
  <text
     y="-6311.0986"
     x="-615.44733"
     word-spacing="0"
     line-height="125%"
     letter-spacing="0"
     font-size="129.23"
     id="text104"
     sodipodi:linespacing="125%"
     style="font-size:3007.53491211px;line-height:125%;letter-spacing:0;word-spacing:0;font-family:Gentium Book Basic">
    <tspan
       y="-6311.0986"
       x="-615.44733"
       id="tspan106" />
  </text>
  <text
     transform="scale(4.0128206,0.24920128)"
     font-size="46.954"
     y="-33451.121"
     x="4433.1997"
     id="text108"
     style="font-size:1092.7421875px;text-anchor:middle;font-family:Arial" />
  <text
     y="-11349.18"
     x="24939.289"
     word-spacing="0"
     line-height="125%"
     letter-spacing="0"
     font-size="129.23"
     id="text110"
     sodipodi:linespacing="125%"
     style="font-size:3007.53491211px;line-height:125%;letter-spacing:0;word-spacing:0;font-family:Gentium Book Basic">
    <tspan
       y="-11349.18"
       x="24939.289"
       id="tspan112" />
  </text>
  <text
     transform="scale(4.0128206,0.24920128)"
     font-size="46.954"
     y="-53667.34"
     x="10801.284"
     id="text114"
     style="font-size:1092.7421875px;text-anchor:middle;font-family:Arial" />
  <text
     y="-13210.997"
     x="38466.797"
     word-spacing="0"
     line-height="125%"
     letter-spacing="0"
     font-size="129.23"
     id="text116"
     sodipodi:linespacing="125%"
     style="font-size:3007.53491211px;line-height:125%;letter-spacing:0;word-spacing:0;font-family:Gentium Book Basic">
    <tspan
       y="-13210.997"
       x="38466.797"
       id="tspan118" />
  </text>
  <text
     transform="scale(4.0128206,0.24920128)"
     font-size="46.954"
     y="-61138.777"
     x="14172.554"
     id="text120"
     style="font-size:1092.7421875px;text-anchor:middle;font-family:Arial" />
  <text
     y="-24205.037"
     x="29410.912"
     word-spacing="0"
     line-height="125%"
     letter-spacing="0"
     font-size="129.23"
     id="text122"
     sodipodi:linespacing="125%"
     style="font-size:3007.53491211px;line-height:125%;letter-spacing:0;word-spacing:0;font-family:Gentium Book Basic">
    <tspan
       y="-24205.037"
       x="29410.912"
       id="tspan124" />
  </text>
  <text
     transform="scale(4.0128206,0.24920128)"
     font-size="46.954"
     y="-105255.73"
     x="11915.81"
     id="text126"
     style="font-size:1092.7421875px;text-anchor:middle;font-family:Arial" />
  <text
     y="-26066.855"
     x="42938.652"
     word-spacing="0"
     line-height="125%"
     letter-spacing="0"
     font-size="129.23"
     id="text128"
     sodipodi:linespacing="125%"
     style="font-size:3007.53491211px;line-height:125%;letter-spacing:0;word-spacing:0;font-family:Gentium Book Basic">
    <tspan
       y="-26066.855"
       x="42938.652"
       id="tspan130" />
  </text>
  <text
     transform="scale(4.0128206,0.24920128)"
     font-size="46.954"
     y="-112726.94"
     x="15286.847"
     id="text132"
     style="font-size:1092.7421875px;text-anchor:middle;font-family:Arial" />
  <g
     transform="scale(23.27273,23.27273)"
     letter-spacing="0"
     line-height="125%"
     word-spacing="0"
     id="g134"
     style="line-height:125%;letter-spacing:0;word-spacing:0;font-family:Gentium Book Basic">
    <text
       y="294.64999"
       x="12.211"
       font-size="208.33"
       id="text136"
       style="font-size:208.33000183px">
      <tspan
         y="294.64999"
         x="12.211"
         id="tspan138" />
    </text>
    <text
       y="-752.79999"
       x="3568"
       font-size="129.23"
       id="text140"
       style="font-size:129.22999573px">
      <tspan
         y="-752.79999"
         x="3568"
         id="tspan142" />
    </text>
  </g>
  <text
     transform="scale(4.0128206,0.24920128)"
     font-size="46.954"
     y="-78428.695"
     x="25279.408"
     id="text144"
     style="font-size:1092.7421875px;text-anchor:middle;font-family:Arial" />
  <text
     y="-19381.529"
     x="96564.844"
     word-spacing="0"
     line-height="125%"
     letter-spacing="0"
     font-size="129.23"
     id="text146"
     sodipodi:linespacing="125%"
     style="font-size:3007.53491211px;line-height:125%;letter-spacing:0;word-spacing:0;font-family:Gentium Book Basic">
    <tspan
       y="-19381.529"
       x="96564.844"
       id="tspan148" />
  </text>
  <text
     transform="scale(4.0128206,0.24920128)"
     font-size="46.954"
     y="-85900.141"
     x="28650.445"
     id="text150"
     style="font-size:1092.7421875px;text-anchor:middle;font-family:Arial" />
  <text
     y="-23599.945"
     x="71626.25"
     word-spacing="0"
     line-height="125%"
     letter-spacing="0"
     font-size="129.23"
     id="text152"
     sodipodi:linespacing="125%"
     style="font-size:3007.53491211px;line-height:125%;letter-spacing:0;word-spacing:0;font-family:Gentium Book Basic">
    <tspan
       y="-23599.945"
       x="71626.25"
       id="tspan154" />
  </text>
  <text
     transform="scale(4.0128206,0.24920128)"
     font-size="46.954"
     y="-102827.48"
     x="22435.727"
     id="text156"
     style="font-size:1092.7421875px;text-anchor:middle;font-family:Arial" />
  <text
     y="-28637.793"
     x="97180.875"
     word-spacing="0"
     line-height="125%"
     letter-spacing="0"
     font-size="129.23"
     id="text158"
     sodipodi:linespacing="125%"
     style="font-size:3007.53491211px;line-height:125%;letter-spacing:0;word-spacing:0;font-family:Gentium Book Basic">
    <tspan
       y="-28637.793"
       x="97180.875"
       id="tspan160" />
  </text>
  <text
     transform="scale(4.0128206,0.24920128)"
     font-size="46.954"
     y="-123043.69"
     x="28804.047"
     id="text162"
     style="font-size:1092.7421875px;text-anchor:middle;font-family:Arial" />
  <text
     y="-30499.611"
     x="110708.6"
     word-spacing="0"
     line-height="125%"
     letter-spacing="0"
     font-size="129.23"
     id="text164"
     sodipodi:linespacing="125%"
     style="font-size:3007.53491211px;line-height:125%;letter-spacing:0;word-spacing:0;font-family:Gentium Book Basic">
    <tspan
       y="-30499.611"
       x="110708.6"
       id="tspan166" />
  </text>
  <text
     transform="scale(4.0128206,0.24920128)"
     font-size="46.954"
     y="-130515.13"
     x="32175.084"
     id="text168"
     style="font-size:1092.7421875px;text-anchor:middle;font-family:Arial" />
  <text
     y="-41493.648"
     x="101652.73"
     word-spacing="0"
     line-height="125%"
     letter-spacing="0"
     font-size="129.23"
     id="text170"
     sodipodi:linespacing="125%"
     style="font-size:3007.53491211px;line-height:125%;letter-spacing:0;word-spacing:0;font-family:Gentium Book Basic">
    <tspan
       y="-41493.648"
       x="101652.73"
       id="tspan172" />
  </text>
  <text
     transform="scale(4.0128206,0.24920128)"
     font-size="46.954"
     y="-174632.08"
     x="29918.34"
     id="text174"
     style="font-size:1092.7421875px;text-anchor:middle;font-family:Arial" />
  <text
     y="-43355.469"
     x="115180.47"
     word-spacing="0"
     line-height="125%"
     letter-spacing="0"
     font-size="129.23"
     id="text176"
     sodipodi:linespacing="125%"
     style="font-size:3007.53491211px;line-height:125%;letter-spacing:0;word-spacing:0;font-family:Gentium Book Basic">
    <tspan
       y="-43355.469"
       x="115180.47"
       id="tspan178" />
  </text>
  <text
     transform="scale(4.0128206,0.24920128)"
     font-size="46.954"
     y="-182103.52"
     x="33289.375"
     id="text180"
     style="font-size:1092.7421875px;text-anchor:middle;font-family:Arial" />
  <text
     y="-10431.303"
     x="72525.977"
     word-spacing="0"
     line-height="125%"
     letter-spacing="0"
     font-size="208.33"
     id="text182"
     sodipodi:linespacing="125%"
     style="font-size:4848.40771484px;line-height:125%;letter-spacing:0;word-spacing:0;font-family:Gentium Book Basic">
    <tspan
       y="-10431.303"
       x="72525.977"
       id="tspan184" />
  </text>
  <g
     style="fill:#000000;opacity:0.25"
     id="g3374"
     clip-path="url(#clipPath3599)">
    <path
       inkscape:connector-curvature="0"
       d="m 222.125,56 c -11.47988,0 -9.46875,7.625 -9.46875,7.625 l 388.90873,388.90873 c 0,0 -2.01113,-7.625 9.46875,-7.625 z"
       id="path3376"
       style="fill:#000000" />
    <path
       inkscape:connector-curvature="0"
       d="m 212.65625,63.625 0,134.59375 388.90873,388.90873 0,-134.59375 z"
       id="path3378"
       style="fill:#000000" />
    <path
       inkscape:connector-curvature="0"
       d="m 212.65625,198.21875 0,21.84375 388.90873,388.90873 0,-21.84375 z"
       id="path3380"
       style="fill:#000000" />
    <path
       inkscape:connector-curvature="0"
       d="m 212.65625,220.0625 -50.125,0 388.90873,388.90873 50.125,0 z"
       id="path3382"
       style="fill:#000000" />
    <path
       inkscape:connector-curvature="0"
       d="m 162.53125,220.0625 c -13.33525,0 -3.38839,10.55524 -1.46219,12.48144 l 388.90873,388.90873 c -1.9262,-1.9262 -11.87307,-12.48144 1.46219,-12.48144 z"
       id="path3384"
       style="fill:#000000" />
    <path
       inkscape:connector-curvature="0"
       d="m 161.06906,232.54394 c 0.1934,0.1934 0.30594,0.29981 0.30594,0.29981 l 388.90873,388.90873 c 0,0 -0.11254,-0.10641 -0.30594,-0.29981 z"
       id="path3386"
       style="fill:#000000" />
    <path
       inkscape:connector-curvature="0"
       d="m 161.375,232.84375 c 0,0 0,0 0,0 l 388.90873,388.90873 c 0,0 0,0 0,0 z"
       id="path3388"
       style="fill:#000000" />
    <path
       inkscape:connector-curvature="0"
       d="m 161.375,232.84375 88.9375,107.4375 388.90873,388.90873 -88.9375,-107.4375 z"
       id="path3390"
       style="fill:#000000" />
    <path
       inkscape:connector-curvature="0"
       d="m 250.3125,340.28125 0.0312,0 388.90873,388.90873 -0.0312,0 z"
       id="path3392"
       style="fill:#000000" />
    <path
       inkscape:connector-curvature="0"
       d="m 250.34375,340.28125 c 0,0 0.14927,0.17545 0.42741,0.45359 l 388.90873,388.90873 c -0.27814,-0.27814 -0.42741,-0.45359 -0.42741,-0.45359 z"
       id="path3394"
       style="fill:#000000" />
    <path
       inkscape:connector-curvature="0"
       d="m 250.77116,340.73484 c 1.66271,1.66272 7.93087,6.99513 14.44759,0.45266 l 388.90873,388.90873 c -6.51672,6.54247 -12.78488,1.21006 -14.44759,-0.45266 z"
       id="path3396"
       style="fill:#000000" />
    <path
       inkscape:connector-curvature="0"
       d="m 265.21875,341.1875 c 10.54643,-10.53694 86.1875,-110.96875 86.1875,-110.96875 l 388.90873,388.90873 c 0,0 -75.64107,100.43181 -86.1875,110.96875 z"
       id="path3398"
       style="fill:#000000" />
    <path
       inkscape:connector-curvature="0"
       d="m 351.40625,230.21875 c 0,0 7.57263,-7.55912 3.80667,-11.32508 L 744.12165,607.8024 c 3.76596,3.76596 -3.80667,11.32508 -3.80667,11.32508 z"
       id="path3400"
       style="fill:#000000" />
    <path
       inkscape:connector-curvature="0"
       d="m 355.21292,218.89367 c -1.2493,-1.2493 -3.74639,-2.08117 -8.18167,-2.08117 l 388.90873,388.90873 c 4.43528,0 6.93237,0.83187 8.18167,2.08117 z"
       id="path3402"
       style="fill:#000000" />
    <path
       inkscape:connector-curvature="0"
       d="m 347.03125,216.8125 -46.28125,0 388.90873,388.90873 46.28125,0 z"
       id="path3404"
       style="fill:#000000" />
    <path
       inkscape:connector-curvature="0"
       d="m 300.75,216.8125 0,-19.53125 388.90873,388.90873 0,19.53125 z"
       id="path3406"
       style="fill:#000000" />
    <path
       inkscape:connector-curvature="0"
       d="m 300.75,197.28125 0,-134.875 388.90873,388.90873 0,134.875 z"
       id="path3408"
       style="fill:#000000" />
    <path
       inkscape:connector-curvature="0"
       d="m 300.75,62.40625 c 0,0 0.0785,-2.425387 -1.78762,-4.291468 L 687.87111,447.02351 c 1.86608,1.86608 1.78762,4.29147 1.78762,4.29147 z"
       id="path3410"
       style="fill:#000000" />
    <path
       inkscape:connector-curvature="0"
       d="M 298.96238,58.114782 C 297.79568,56.948076 295.86885,56 292.6875,56 l 388.90873,388.90873 c 3.18135,0 5.10818,0.94808 6.27488,2.11478 z"
       id="path3412"
       style="fill:#000000" />
    <path
       inkscape:connector-curvature="0"
       d="m 292.6875,56 -70.5625,0 388.90873,388.90873 70.5625,0 z"
       id="path3414"
       style="fill:#000000" />
    <path
       inkscape:connector-curvature="0"
       d="m 64.6875,312.53125 0,116.9375 388.90873,388.90873 0,-116.9375 z"
       id="path3416"
       style="fill:#000000" />
    <path
       inkscape:connector-curvature="0"
       d="m 64.6875,429.46875 c 0,7.32168 2.96156,13.94842 7.76091,18.74777 l 388.90873,388.90873 c -4.79935,-4.79935 -7.76091,-11.42609 -7.76091,-18.74777 z"
       id="path3418"
       style="fill:#000000" />
    <path
       inkscape:connector-curvature="0"
       d="M 72.44841,448.21652 C 77.257593,453.0257 83.912103,456 91.28125,456 l 388.90873,388.90873 c -7.36915,0 -14.02366,-2.9743 -18.83284,-7.78348 z"
       id="path3420"
       style="fill:#000000" />
    <path
       inkscape:connector-curvature="0"
       d="m 91.28125,456 329.4375,0 388.90873,388.90873 -329.4375,0 z"
       id="path3422"
       style="fill:#000000" />
    <path
       inkscape:connector-curvature="0"
       d="m 420.71875,456 c 14.71058,0 26.59375,-11.85865 26.59375,-26.53125 l 388.90873,388.90873 c 0,14.6726 -11.88317,26.53125 -26.59375,26.53125 z"
       id="path3424"
       style="fill:#000000" />
    <path
       inkscape:connector-curvature="0"
       d="m 447.3125,429.46875 0,-116.9375 388.90873,388.90873 0,116.9375 z"
       id="path3426"
       style="fill:#000000" />
    <path
       inkscape:connector-curvature="0"
       d="m 447.3125,312.53125 -53.125,0 388.90873,388.90873 53.125,0 z"
       id="path3428"
       style="fill:#000000" />
    <path
       inkscape:connector-curvature="0"
       d="m 394.1875,312.53125 0,90.375 388.90873,388.90873 0,-90.375 z"
       id="path3430"
       style="fill:#000000" />
    <path
       inkscape:connector-curvature="0"
       d="m 394.1875,402.90625 -276.375,0 388.90873,388.90873 276.375,0 z"
       id="path3432"
       style="fill:#000000" />
    <path
       inkscape:connector-curvature="0"
       d="m 117.8125,402.90625 0,-90.375 388.90873,388.90873 0,90.375 z"
       id="path3434"
       style="fill:#000000" />
    <path
       inkscape:connector-curvature="0"
       d="m 117.8125,312.53125 -53.125,0 388.90873,388.90873 53.125,0 z"
       id="path3436"
       style="fill:#000000" />
  </g>
  <path
     inkscape:connector-curvature="0"
     style="fill:#ffffff"
     d="m 222.125,56 c -11.47988,0 -9.46875,7.625 -9.46875,7.625 l 0,134.59375 0,21.84375 -50.125,0 c -14.67418,0 -1.15625,12.78125 -1.15625,12.78125 l 88.9375,107.4375 0.0312,0 c 0,0 7.26816,8.54315 14.875,0.90625 10.54643,-10.53694 86.1875,-110.96875 86.1875,-110.96875 0,0 13.4302,-13.40625 -4.375,-13.40625 l -46.28125,0 0,-19.53125 0,-134.875 c 0,0 0.20725,-6.40625 -8.0625,-6.40625 l -70.5625,0 z m -157.4375,256.53125 0,116.9375 C 64.6875,444.12711 76.558023,456 91.28125,456 l 329.4375,0 c 14.71058,0 26.59375,-11.85865 26.59375,-26.53125 l 0,-116.9375 -53.125,0 0,90.375 -276.375,0 0,-90.375 -53.125,0 z"
     id="path188" />
</svg>
