<?xml version="1.0" encoding="UTF-8" standalone="no"?>
<svg
   xmlns:dc="http://purl.org/dc/elements/1.1/"
   xmlns:cc="http://creativecommons.org/ns#"
   xmlns:rdf="http://www.w3.org/1999/02/22-rdf-syntax-ns#"
   xmlns:svg="http://www.w3.org/2000/svg"
   xmlns="http://www.w3.org/2000/svg"
   xmlns:sodipodi="http://sodipodi.sourceforge.net/DTD/sodipodi-0.dtd"
   xmlns:inkscape="http://www.inkscape.org/namespaces/inkscape"
   width="512"
   height="512"
   viewBox="0 0 384 384"
   id="svg2"
   version="1.1"
   inkscape:version="0.48.5 r10040"
   sodipodi:docname="edit-cut.svg">
  <sodipodi:namedview
     pagecolor="#ffffff"
     bordercolor="#666666"
     borderopacity="1"
     objecttolerance="10"
     gridtolerance="10"
     guidetolerance="10"
     inkscape:pageopacity="0"
     inkscape:pageshadow="2"
     inkscape:window-width="1306"
     inkscape:window-height="715"
     id="namedview10"
     showgrid="false"
     inkscape:zoom="0.4609375"
     inkscape:cx="204.63572"
     inkscape:cy="197.61101"
     inkscape:window-x="56"
     inkscape:window-y="28"
     inkscape:window-maximized="1"
     inkscape:current-layer="svg2" />
  <metadata
     id="metadata14">
    <rdf:RDF>
      <cc:Work
         rdf:about="">
        <dc:format>image/svg+xml</dc:format>
        <dc:type
           rdf:resource="http://purl.org/dc/dcmitype/StillImage" />
      </cc:Work>
    </rdf:RDF>
  </metadata>
  <defs
     id="defs12">
    <clipPath
       clipPathUnits="userSpaceOnUse"
       id="clipPath3315">
      <path
         inkscape:connector-curvature="0"
         style="fill:#cd1d31;fill-opacity:1;stroke:none"
         d="m 19.499995,-3e-6 c -10.79801,0 -19.5,8.701986 -19.5,19.5 L -5e-6,364.5 c 0,10.79801 8.70199,19.5 19.5,19.5 L 364.5,384 c 10.79801,0 19.5,-8.70199 19.5,-19.5 l 0,-345.000003 c 0,-10.798014 -8.70199,-19.5 -19.5,-19.5 l -345.000005,0 z"
         id="path3317" />
    </clipPath>
  </defs>
  <path
     id="rect2986"
     d="m 19.499995,-3e-6 c -10.79801,0 -19.5,8.701986 -19.5,19.5 L -5e-6,364.5 c 0,10.79801 8.70199,19.5 19.5,19.5 L 364.5,384 c 10.79801,0 19.5,-8.70199 19.5,-19.5 l 0,-345.000003 c 0,-10.798014 -8.70199,-19.5 -19.5,-19.5 l -345.000005,0 z"
     style="fill:#cd1d31;fill-opacity:1;stroke:none"
     inkscape:connector-curvature="0" />
  <g
     style="fill:#000000;opacity:0.25"
     id="g3056"
     clip-path="url(#clipPath3315)">
    <path
       inkscape:connector-curvature="0"
       d="m 122.79709,42.004605 c -0.25349,0.01852 -0.51542,0.0936 -0.80865,0.234082 L 510.89717,431.14742 c 0.29323,-0.14049 0.55516,-0.21557 0.80865,-0.23409 z"
       id="path3058"
       style="fill:#000000" />
    <path
       inkscape:connector-curvature="0"
       d="m 121.98844,42.238687 c -4.96344,4.081118 -5.50648,11.662834 -7.85239,17.407192 L 503.04478,448.55461 c 2.34591,-5.74436 2.88895,-13.32608 7.85239,-17.40719 z"
       id="path3060"
       style="fill:#000000" />
    <path
       inkscape:connector-curvature="0"
       d="m 114.13605,59.645879 c -6.37335,21.952276 -9.8632,46.604701 0.17024,68.011471 l 388.90873,388.90873 c -10.03344,-21.40677 -6.54359,-46.0592 -0.17024,-68.01147 z"
       id="path3062"
       style="fill:#000000" />
    <path
       inkscape:connector-curvature="0"
       d="m 114.30629,127.65735 c 14.18589,31.19308 33.57565,59.812 50.88093,89.41934 l 388.90873,388.90873 c -17.30528,-29.60734 -36.69504,-58.22626 -50.88093,-89.41934 z"
       id="path3064"
       style="fill:#000000" />
    <path
       inkscape:connector-curvature="0"
       d="m 165.18722,217.07669 c 19.68729,31.62663 37.87016,64.43341 60.88261,93.73922 l 388.90873,388.90873 c -23.01245,-29.30581 -41.19532,-62.11259 -60.88261,-93.73922 z"
       id="path3066"
       style="fill:#000000" />
    <path
       inkscape:connector-curvature="0"
       d="m 226.06983,310.81591 c 3.64565,4.09972 7.40974,8.35986 11.42245,12.37256 L 626.40101,712.0972 c -4.01271,-4.0127 -7.7768,-8.27284 -11.42245,-12.37256 z"
       id="path3068"
       style="fill:#000000" />
    <path
       inkscape:connector-curvature="0"
       d="m 237.49228,323.18847 c 8.33068,8.33068 17.73293,15.59491 29.37167,18.14323 l 388.90873,388.90873 c -11.63875,-2.54832 -21.04099,-9.81255 -29.37167,-18.14323 z"
       id="path3070"
       style="fill:#000000" />
    <path
       inkscape:connector-curvature="0"
       d="m 266.86395,341.3317 c 23.98243,4.76302 49.11637,-16.65635 47.75274,-41.241 l 388.90873,388.90873 c 1.36363,24.58465 -23.77031,46.00402 -47.75274,41.241 z"
       id="path3072"
       style="fill:#000000" />
    <path
       inkscape:connector-curvature="0"
       d="m 314.61669,300.0907 c -1.10637,-16.06569 -9.02105,-30.80285 -20.30427,-42.08606 l 388.90873,388.90873 c 11.28322,11.28321 19.1979,26.02037 20.30427,42.08606 z"
       id="path3074"
       style="fill:#000000" />
    <path
       inkscape:connector-curvature="0"
       d="m 294.31242,258.00464 c -5.1105,-5.11051 -10.91205,-9.51245 -17.08502,-13.00835 l 388.90873,388.90873 c 6.17297,3.4959 11.97452,7.89784 17.08502,13.00835 z"
       id="path3076"
       style="fill:#000000" />
    <path
       inkscape:connector-curvature="0"
       d="m 277.2274,244.99629 c -11.25557,-6.58467 -25.87538,-8.11705 -37.36801,-1.42577 l 388.90873,388.90873 c 11.49263,-6.69128 26.11244,-5.1589 37.36801,1.42577 z"
       id="path3078"
       style="fill:#000000" />
    <path
       inkscape:connector-curvature="0"
       d="m 239.85939,243.57052 c -4.53626,1.63435 -8.02694,7.36889 -13.49163,4.91572 l 388.90873,388.90873 c 5.46469,2.45317 8.95537,-3.28137 13.49163,-4.91572 z"
       id="path3080"
       style="fill:#000000" />
    <path
       inkscape:connector-curvature="0"
       d="m 226.36776,248.48624 c -1.61476,-0.59025 -2.91172,-1.45302 -3.97145,-2.51275 l 388.90873,388.90873 c 1.05973,1.05973 2.35669,1.9225 3.97145,2.51275 z"
       id="path3082"
       style="fill:#000000" />
    <path
       inkscape:connector-curvature="0"
       d="m 222.39631,245.97349 c -4.53134,-4.53135 -4.72532,-12.66387 -6.88145,-18.49079 l 388.90873,388.90873 c 2.15613,5.82692 2.35011,13.95944 6.88145,18.49079 z"
       id="path3084"
       style="fill:#000000" />
    <path
       inkscape:connector-curvature="0"
       d="m 215.51486,227.4827 c -5.08553,-19.77024 -7.60559,-40.87482 -16.55598,-59.37171 l 388.90873,388.90873 c 8.95039,18.49689 11.47045,39.60147 16.55598,59.37171 z"
       id="path3086"
       style="fill:#000000" />
    <path
       inkscape:connector-curvature="0"
       d="M 198.95888,168.11099 C 175.7281,126.54262 151.53033,85.33799 126.15936,44.983831 L 515.06809,433.89256 c 25.37097,40.35416 49.56874,81.55879 72.79952,123.12716 z"
       id="path3088"
       style="fill:#000000" />
    <path
       inkscape:connector-curvature="0"
       d="m 126.15936,44.983831 c -0.49712,-0.644234 -1.01633,-1.568549 -1.66506,-2.217278 L 513.40303,431.67528 c 0.64873,0.64873 1.16794,1.57305 1.66506,2.21728 z"
       id="path3090"
       style="fill:#000000" />
    <path
       inkscape:connector-curvature="0"
       d="m 124.4943,42.766553 c -0.41745,-0.417446 -0.88852,-0.72078 -1.44185,-0.761948 L 511.96118,430.91333 c 0.55333,0.0412 1.0244,0.34451 1.44185,0.76195 z"
       id="path3092"
       style="fill:#000000" />
    <path
       inkscape:connector-curvature="0"
       d="m 123.05245,42.004605 c -0.0815,-0.0061 -0.17087,-0.0062 -0.25536,0 L 511.70582,430.91333 c 0.0845,-0.006 0.17386,-0.006 0.25536,0 z"
       id="path3094"
       style="fill:#000000" />
    <path
       inkscape:connector-curvature="0"
       d="m 290.35727,55.006799 c -0.51521,-0.03961 -1.02195,0.09393 -1.42577,0.510724 L 677.84023,444.42625 c 0.40382,-0.41679 0.91056,-0.55033 1.42577,-0.51072 z"
       id="path3096"
       style="fill:#000000" />
    <path
       inkscape:connector-curvature="0"
       d="m 288.9315,55.517523 c -23.32502,28.226589 -44.95251,58.014347 -66.84106,87.418997 l 388.90873,388.90873 c 21.88855,-29.40465 43.51604,-59.19241 66.84106,-87.419 z"
       id="path3098"
       style="fill:#000000" />
    <path
       inkscape:connector-curvature="0"
       d="m 222.09044,142.93652 c -4.20743,5.43242 -9.30117,11.78472 -7.17143,19.15217 l 388.90873,388.90873 c -2.12974,-7.36745 2.964,-13.71975 7.17143,-19.15217 z"
       id="path3100"
       style="fill:#000000" />
    <path
       inkscape:connector-curvature="0"
       d="m 214.91901,162.08869 c 3.89633,14.84929 10.15389,29.17462 13.30012,44.32663 l 388.90873,388.90873 c -3.14623,-15.15201 -9.40379,-29.47734 -13.30012,-44.32663 z"
       id="path3102"
       style="fill:#000000" />
    <path
       inkscape:connector-curvature="0"
       d="m 228.21913,206.41532 c 0.39824,1.85914 1.44018,5.11349 3.09916,6.77247 l 388.90873,388.90873 c -1.65898,-1.65898 -2.70092,-4.91333 -3.09916,-6.77247 z"
       id="path3104"
       style="fill:#000000" />
    <path
       inkscape:connector-curvature="0"
       d="m 231.31829,213.18779 c 1.15874,1.15873 2.61849,1.53917 4.37018,0.12231 L 624.5972,602.21883 c -1.75169,1.41686 -3.21144,1.03642 -4.37018,-0.12231 z"
       id="path3106"
       style="fill:#000000" />
    <path
       inkscape:connector-curvature="0"
       d="m 235.68847,213.3101 c 18.37993,-23.41311 37.86419,-46.1202 52.94511,-71.71423 L 677.54231,530.5046 c -15.08092,25.59403 -34.56518,48.30112 -52.94511,71.71423 z"
       id="path3108"
       style="fill:#000000" />
    <path
       inkscape:connector-curvature="0"
       d="m 288.63358,141.59587 c 9.45159,-15.70243 12.85989,-34.59958 10.93802,-52.90254 l 388.90873,388.90873 c 1.92187,18.30296 -1.48643,37.20011 -10.93802,52.90254 z"
       id="path3110"
       style="fill:#000000" />
    <path
       inkscape:connector-curvature="0"
       d="M 299.5716,88.69333 C 298.29536,77.814556 298.19703,65.978627 292.67682,56.262329 L 681.58555,445.17106 c 5.52021,9.7163 5.61854,21.55223 6.89478,32.431 z"
       id="path3112"
       style="fill:#000000" />
    <path
       inkscape:connector-curvature="0"
       d="m 292.67682,56.262329 c -0.0411,-0.04519 -0.084,-0.09009 -0.1284,-0.134514 L 681.45715,445.03654 c 0.0444,0.0444 0.0873,0.0893 0.1284,0.13452 z"
       id="path3114"
       style="fill:#000000" />
    <path
       inkscape:connector-curvature="0"
       d="m 292.54842,56.127815 c -0.56797,-0.567976 -1.39476,-1.059801 -2.19115,-1.121016 L 679.266,443.91553 c 0.79639,0.0612 1.62318,0.55304 2.19115,1.12101 z"
       id="path3116"
       style="fill:#000000" />
    <path
       inkscape:connector-curvature="0"
       d="m 197.5331,226.63149 c 5.64131,0 10.21449,4.57318 10.21449,10.21449 l 388.90873,388.90873 c 0,-5.64131 -4.57318,-10.21449 -10.21449,-10.21449 z"
       id="path3118"
       style="fill:#000000" />
    <path
       inkscape:connector-curvature="0"
       d="m 207.74759,236.84598 c 0,5.64131 -4.57318,10.21449 -10.21449,10.21449 L 586.44183,635.9692 c 5.64131,0 10.21449,-4.57318 10.21449,-10.21449 z"
       id="path3120"
       style="fill:#000000" />
    <path
       inkscape:connector-curvature="0"
       d="m 197.5331,247.06047 c -5.64131,0 -10.21449,-4.57318 -10.21449,-10.21449 l 388.90873,388.90873 c 0,5.64131 4.57318,10.21449 10.21449,10.21449 z"
       id="path3122"
       style="fill:#000000" />
    <path
       inkscape:connector-curvature="0"
       d="m 187.31861,236.84598 c 0,-5.64131 4.57318,-10.21449 10.21449,-10.21449 l 388.90873,388.90873 c -5.64131,0 -10.21449,4.57318 -10.21449,10.21449 z"
       id="path3124"
       style="fill:#000000" />
    <path
       inkscape:connector-curvature="0"
       d="m 130.45795,233.76035 c -0.63937,-0.0122 -1.27319,-0.006 -1.91521,0.0213 l 388.90873,388.90873 c 0.64202,-0.0273 1.27584,-0.0335 1.91521,-0.0213 z"
       id="path3126"
       style="fill:#000000" />
    <path
       inkscape:connector-curvature="0"
       d="m 128.54274,233.78165 c -21.08273,0.97177 -38.116204,16.83908 -49.731794,33.09069 L 467.71968,655.78107 c 11.61559,-16.25161 28.64906,-32.11892 49.73179,-33.09069 z"
       id="path3128"
       style="fill:#000000" />
    <path
       inkscape:connector-curvature="0"
       d="m 78.810946,266.87234 c -8.803148,11.8456 -13.111771,28.69947 -5.68181,42.30501 L 462.03787,698.08608 c -7.42997,-13.60554 -3.12134,-30.45941 5.68181,-42.30501 z"
       id="path3130"
       style="fill:#000000" />
    <path
       inkscape:connector-curvature="0"
       d="m 73.129136,309.17735 c 2.45528,4.70025 5.701224,9.15488 9.545297,12.99895 L 471.58316,711.08503 c -3.84407,-3.84407 -7.09001,-8.2987 -9.54529,-12.99895 z"
       id="path3132"
       style="fill:#000000" />
    <path
       inkscape:connector-curvature="0"
       d="m 82.674433,322.1763 c 8.787776,8.78778 20.701417,14.38474 33.440677,12.43088 l 388.90873,388.90873 c -12.73927,1.95386 -24.6529,-3.6431 -33.44068,-12.43088 z"
       id="path3134"
       style="fill:#000000" />
    <path
       inkscape:connector-curvature="0"
       d="m 116.11511,334.60718 c 17.86681,-2.85309 31.70436,-15.55471 44.07126,-27.66425 L 549.0951,695.85166 c -12.3669,12.10954 -26.20445,24.81116 -44.07126,27.66425 z"
       id="path3136"
       style="fill:#000000" />
    <path
       inkscape:connector-curvature="0"
       d="m 160.18637,306.94293 c 9.46917,-9.72825 17.82919,-20.54242 26.57896,-30.96267 l 388.90873,388.90873 c -8.74977,10.42025 -17.10979,21.23442 -26.57896,30.96267 z"
       id="path3138"
       style="fill:#000000" />
    <path
       inkscape:connector-curvature="0"
       d="m 186.76533,275.98026 c -5.90369,-8.6213 -9.79809,-18.98712 -17.20797,-26.397 l 388.90873,388.90873 c 7.40988,7.40988 11.30428,17.7757 17.20797,26.397 z"
       id="path3140"
       style="fill:#000000" />
    <path
       inkscape:connector-curvature="0"
       d="m 169.55736,249.58326 c -0.21933,-0.21934 -0.44175,-0.43609 -0.66739,-0.65012 L 557.7987,637.84187 c 0.22564,0.21403 0.44806,0.43078 0.66739,0.65012 z"
       id="path3142"
       style="fill:#000000" />
    <path
       inkscape:connector-curvature="0"
       d="m 168.88997,248.93314 c -2.49879,-2.01373 -5.62774,0.64951 -8.08647,-1.78753 l 388.90873,388.90873 c 2.45873,2.43704 5.58768,-0.2262 8.08647,1.78753 z"
       id="path3144"
       style="fill:#000000" />
    <path
       inkscape:connector-curvature="0"
       d="m 160.8035,247.14561 c -7.99664,-4.53276 -14.95079,-11.65335 -24.62118,-12.7894 l 388.90873,388.90873 c 9.67039,1.13605 16.62454,8.25664 24.62118,12.7894 z"
       id="path3146"
       style="fill:#000000" />
    <path
       inkscape:connector-curvature="0"
       d="m 136.18232,234.35621 c -1.88674,-0.34491 -3.8062,-0.5594 -5.72437,-0.59584 L 519.36668,622.6691 c 1.91817,0.0364 3.83763,0.25093 5.72437,0.59584 z"
       id="path3148"
       style="fill:#000000" />
    <path
       inkscape:connector-curvature="0"
       d="m 129.92595,254.27445 c 1.60571,-0.0282 3.20771,0.10253 4.8306,0.40433 l 388.90873,388.90873 c -1.62289,-0.3018 -3.22489,-0.43253 -4.8306,-0.40433 z"
       id="path3150"
       style="fill:#000000" />
    <path
       inkscape:connector-curvature="0"
       d="m 134.75655,254.67878 c 3.67164,0.71135 6.82997,2.52532 9.31897,5.01432 l 388.90873,388.90873 c -2.489,-2.489 -5.64733,-4.30297 -9.31897,-5.01432 z"
       id="path3152"
       style="fill:#000000" />
    <path
       inkscape:connector-curvature="0"
       d="m 144.07552,259.6931 c 5.8867,5.8867 8.02943,15.54927 4.36419,23.33089 l 388.90873,388.90873 c 3.66524,-7.78162 1.52251,-17.44419 -4.36419,-23.33089 z"
       id="path3154"
       style="fill:#000000" />
    <path
       inkscape:connector-curvature="0"
       d="m 148.43971,283.02399 c -6.16674,13.8633 -18.39333,25.49579 -33.02685,29.91994 l 388.90873,388.90873 c 14.63352,-4.42415 26.86011,-16.05664 33.02685,-29.91994 z"
       id="path3156"
       style="fill:#000000" />
    <path
       inkscape:connector-curvature="0"
       d="m 115.41286,312.94393 c -7.35725,1.61137 -15.834713,-0.92185 -21.18842,-6.27555 l 388.90873,388.90873 c 5.35371,5.3537 13.83117,7.88692 21.18842,6.27555 z"
       id="path3158"
       style="fill:#000000" />
    <path
       inkscape:connector-curvature="0"
       d="m 94.22444,306.66838 c -0.679673,-0.67968 -1.308999,-1.40481 -1.879296,-2.17269 L 481.25387,693.40442 c 0.5703,0.76788 1.19963,1.49301 1.8793,2.17269 z"
       id="path3160"
       style="fill:#000000" />
    <path
       inkscape:connector-curvature="0"
       d="m 92.345144,304.49569 c -6.388434,-11.57838 -0.279353,-25.68942 8.235436,-34.41005 l 388.90873,388.90873 c -8.51479,8.72063 -14.62387,22.83167 -8.23544,34.41005 z"
       id="path3162"
       style="fill:#000000" />
    <path
       inkscape:connector-curvature="0"
       d="m 100.58058,270.08564 c 7.46009,-7.86492 18.1054,-15.61375 29.34537,-15.81119 l 388.90873,388.90873 c -11.23997,0.19744 -21.88528,7.94627 -29.34537,15.81119 z"
       id="path3164"
       style="fill:#000000" />
    <path
       inkscape:connector-curvature="0"
       d="m 256.22386,259.29658 c 8.80229,-0.10789 16.61488,4.68823 22.87954,10.95288 l 388.90873,388.90873 c -6.26466,-6.26465 -14.07725,-11.06077 -22.87954,-10.95288 z"
       id="path3166"
       style="fill:#000000" />
    <path
       inkscape:connector-curvature="0"
       d="m 279.1034,270.24946 c 3.13323,3.13324 5.87926,6.63382 8.16824,10.07194 l 388.90873,388.90873 c -2.28898,-3.43812 -5.03501,-6.9387 -8.16824,-10.07194 z"
       id="path3168"
       style="fill:#000000" />
    <path
       inkscape:connector-curvature="0"
       d="m 287.27164,280.3214 c 6.9005,10.0466 10.50625,24.98647 2.23443,35.30384 L 678.4148,704.53397 c 8.27182,-10.31737 4.66607,-25.25724 -2.23443,-35.30384 z"
       id="path3170"
       style="fill:#000000" />
    <path
       inkscape:connector-curvature="0"
       d="m 289.50607,315.62524 c -6.15212,5.85175 -16.31491,7.58888 -24.1743,4.38371 L 654.2405,708.91768 c 7.85939,3.20517 18.02218,1.46804 24.1743,-4.38371 z"
       id="path3172"
       style="fill:#000000" />
    <path
       inkscape:connector-curvature="0"
       d="m 265.33177,320.00895 c -4.7398,-2.37912 -9.04579,-5.56254 -12.80338,-9.32013 l 388.90872,388.90873 c 3.7576,3.75759 8.06359,6.94101 12.80339,9.32013 z"
       id="path3174"
       style="fill:#000000" />
    <path
       inkscape:connector-curvature="0"
       d="m 252.52839,310.68882 c -7.07415,-7.07415 -12.20462,-16.18335 -14.62678,-25.79217 l 388.90873,388.90873 c 2.42216,9.60882 7.55263,18.71802 14.62677,25.79217 z"
       id="path3176"
       style="fill:#000000" />
    <path
       inkscape:connector-curvature="0"
       d="m 237.90161,284.89665 c -3.24764,-11.79975 5.73959,-25.35141 18.32225,-25.60007 l 388.90873,388.90873 c -12.58266,0.24866 -21.56989,13.80032 -18.32225,25.60007 z"
       id="path3178"
       style="fill:#000000" />
  </g>
  <path
     style="fill:#ffffff"
     d="m 122.79709,42.004605 c -0.25349,0.01852 -0.51542,0.0936 -0.80865,0.234082 -4.96344,4.081118 -5.50648,11.662834 -7.85239,17.407192 -6.37335,21.952276 -9.8632,46.604701 0.17024,68.011471 14.18589,31.19308 33.57565,59.812 50.88093,89.41934 19.68729,31.62663 37.87016,64.43341 60.88261,93.73922 11.2143,12.61103 23.54924,26.74 40.79412,30.51579 23.98243,4.76302 49.11637,-16.65635 47.75274,-41.241 -1.60748,-23.34232 -17.58734,-43.8801 -37.38929,-55.09441 -11.25557,-6.58467 -25.87538,-8.11705 -37.36801,-1.42577 -4.53626,1.63435 -8.02694,7.36889 -13.49163,4.91572 -8.51938,-3.11414 -8.19252,-13.8139 -10.8529,-21.00354 -5.08553,-19.77024 -7.60559,-40.87482 -16.55598,-59.37171 -23.23078,-41.56837 -47.42855,-82.773 -72.79952,-123.127159 -0.81701,-1.058787 -1.69369,-2.874082 -3.10691,-2.979226 -0.0815,-0.0061 -0.17087,-0.0062 -0.25536,0 z m 167.56018,13.002194 c -0.51521,-0.03961 -1.02195,0.09393 -1.42577,0.510724 -23.32502,28.226589 -44.95251,58.014347 -66.84106,87.418997 -4.20743,5.43242 -9.30117,11.78472 -7.17143,19.15217 3.89633,14.84929 10.15389,29.17462 13.30012,44.32663 0.67639,3.15767 3.20972,10.3402 7.46934,6.89478 18.37993,-23.41311 37.86419,-46.1202 52.94511,-71.71423 9.45159,-15.70243 12.85989,-34.59958 10.93802,-52.90254 -1.27624,-10.878774 -1.37457,-22.714703 -6.89478,-32.431001 -0.56684,-0.622911 -1.46086,-1.189527 -2.31955,-1.25553 z M 197.5331,226.63149 c 5.64131,0 10.21449,4.57318 10.21449,10.21449 0,5.64131 -4.57318,10.21449 -10.21449,10.21449 -5.64131,0 -10.21449,-4.57318 -10.21449,-10.21449 0,-5.64131 4.57318,-10.21449 10.21449,-10.21449 z m -67.07515,7.12886 c -0.63937,-0.0122 -1.27319,-0.006 -1.91521,0.0213 -21.08273,0.97177 -38.116204,16.83908 -49.731794,33.09069 -8.803148,11.8456 -13.111771,28.69947 -5.68181,42.30501 8.068194,15.44529 24.67412,28.23837 42.985974,25.42983 17.86681,-2.85309 31.70436,-15.55471 44.07126,-27.66425 9.46917,-9.72825 17.82919,-20.54242 26.57896,-30.96267 -6.07844,-8.87649 -10.02688,-19.60232 -17.87536,-27.04712 -2.49879,-2.01373 -5.62774,0.64951 -8.08647,-1.78753 -7.99664,-4.53276 -14.95079,-11.65335 -24.62118,-12.7894 -1.88674,-0.34491 -3.8062,-0.5594 -5.72437,-0.59584 z m -0.532,20.5141 c 1.60571,-0.0282 3.20771,0.10253 4.8306,0.40433 12.35538,2.39374 18.89813,17.27339 13.68316,28.34521 -6.16674,13.8633 -18.39333,25.49579 -33.02685,29.91994 -8.29128,1.81594 -18.005259,-1.63185 -23.067716,-8.44824 -6.388434,-11.57838 -0.279353,-25.68942 8.235436,-34.41005 7.46009,-7.86492 18.1054,-15.61375 29.34537,-15.81119 z m 126.29791,5.02213 c 13.20471,-0.16185 24.18215,10.71244 31.04778,21.02482 6.9005,10.0466 10.50625,24.98647 2.23443,35.30384 -6.15212,5.85175 -16.31491,7.58888 -24.1743,4.38371 -13.66306,-6.85812 -23.72142,-20.39954 -27.43016,-35.1123 -3.24764,-11.79975 5.73959,-25.35141 18.32225,-25.60007 z"
     id="path3046"
     inkscape:connector-curvature="0" />
</svg>
