<?xml version="1.0" encoding="UTF-8" standalone="no"?>
<svg
   xmlns:dc="http://purl.org/dc/elements/1.1/"
   xmlns:cc="http://creativecommons.org/ns#"
   xmlns:rdf="http://www.w3.org/1999/02/22-rdf-syntax-ns#"
   xmlns:svg="http://www.w3.org/2000/svg"
   xmlns="http://www.w3.org/2000/svg"
   xmlns:sodipodi="http://sodipodi.sourceforge.net/DTD/sodipodi-0.dtd"
   xmlns:inkscape="http://www.inkscape.org/namespaces/inkscape"
   width="512"
   height="512"
   viewBox="0 0 384 384"
   id="svg2"
   version="1.1"
   inkscape:version="0.48.5 r10040"
   sodipodi:docname="go-top.svg">
  <sodipodi:namedview
     pagecolor="#ffffff"
     bordercolor="#666666"
     borderopacity="1"
     objecttolerance="10"
     gridtolerance="10"
     guidetolerance="10"
     inkscape:pageopacity="0"
     inkscape:pageshadow="2"
     inkscape:window-width="1306"
     inkscape:window-height="715"
     id="namedview20"
     showgrid="false"
     inkscape:zoom="0.4609375"
     inkscape:cx="147.52542"
     inkscape:cy="123.66102"
     inkscape:window-x="56"
     inkscape:window-y="28"
     inkscape:window-maximized="1"
     inkscape:current-layer="svg2" />
  <metadata
     id="metadata24">
    <rdf:RDF>
      <cc:Work
         rdf:about="">
        <dc:format>image/svg+xml</dc:format>
        <dc:type
           rdf:resource="http://purl.org/dc/dcmitype/StillImage" />
        <dc:title></dc:title>
      </cc:Work>
    </rdf:RDF>
  </metadata>
  <defs
     id="defs22">
    <clipPath
       clipPathUnits="userSpaceOnUse"
       id="clipPath3188">
      <path
         inkscape:connector-curvature="0"
         style="fill:#0078ad;fill-opacity:1;stroke:none"
         d="M 19.500001,-2e-6 C 8.7019813,-2e-6 1.35e-6,8.701984 1.35e-6,19.499998 l 0,345.000002 c 0,10.79801 8.70197995,19.5 19.49999965,19.5 L 364.5,384 c 10.79801,0 19.5,-8.70199 19.5,-19.5 l 0,-345.000002 c 0,-10.798014 -8.70199,-19.5 -19.5,-19.5 l -344.999999,0 z"
         id="path3190" />
    </clipPath>
    <clipPath
       id="clipPath3413"
       clipPathUnits="userSpaceOnUse">
      <path
         inkscape:connector-curvature="0"
         style="fill:#0078ad;fill-opacity:1;stroke:none"
         d="M 19.500001,-2e-6 C 8.7019813,-2e-6 1.35e-6,8.701984 1.35e-6,19.499998 l 0,345.000002 c 0,10.79801 8.70197995,19.5 19.49999965,19.5 L 364.5,384 c 10.79801,0 19.5,-8.70199 19.5,-19.5 l 0,-345.000002 c 0,-10.798014 -8.70199,-19.5 -19.5,-19.5 l -344.999999,0 z"
         id="path3415" />
    </clipPath>
    <clipPath
       clipPathUnits="userSpaceOnUse"
       id="clipPath3589">
      <path
         inkscape:connector-curvature="0"
         style="fill:#0078ad;fill-opacity:1;stroke:none"
         d="M 19.500001,-2e-6 C 8.7019813,-2e-6 1.35e-6,8.701984 1.35e-6,19.499998 l 0,345.000002 c 0,10.79801 8.70197995,19.5 19.49999965,19.5 L 364.5,384 c 10.79801,0 19.5,-8.70199 19.5,-19.5 l 0,-345.000002 c 0,-10.798014 -8.70199,-19.5 -19.5,-19.5 l -344.999999,0 z"
         id="path3591" />
    </clipPath>
  </defs>
  <path
     id="rect2986"
     d="M 19.500001,-2e-6 C 8.7019813,-2e-6 1.35e-6,8.701984 1.35e-6,19.499998 l 0,345.000002 c 0,10.79801 8.70197995,19.5 19.49999965,19.5 L 364.5,384 c 10.79801,0 19.5,-8.70199 19.5,-19.5 l 0,-345.000002 c 0,-10.798014 -8.70199,-19.5 -19.5,-19.5 l -344.999999,0 z"
     style="fill:#0078ad;fill-opacity:1;stroke:none"
     inkscape:connector-curvature="0" />
  <g
     style="fill:#000000;fill-rule:evenodd;opacity:0.25"
     id="g3428"
     clip-path="url(#clipPath3589)">
    <path
       inkscape:connector-curvature="0"
       d="m 42.000001,113.85225 c 0,-4.83928 1.85609,-9.68361 5.534731,-13.36273 L 436.44346,489.39825 c -3.67864,3.67912 -5.53473,8.52345 -5.53473,13.36273 z"
       id="path3430"
       style="fill:#000000" />
    <path
       inkscape:connector-curvature="0"
       d="M 47.534732,100.48952 81.867702,66.156561 470.77643,455.06529 436.44346,489.39825 z"
       id="path3432"
       style="fill:#000000" />
    <path
       inkscape:connector-curvature="0"
       d="m 81.867702,66.156561 c 7.357296,-7.357297 18.596388,-7.357301 25.953678,-1.1e-5 l 388.90873,388.90873 c -7.35729,-7.35729 -18.59638,-7.35729 -25.95368,1e-5 z"
       id="path3434"
       style="fill:#000000" />
    <path
       inkscape:connector-curvature="0"
       d="m 107.82138,66.15655 c 0,4e-6 10e-6,7e-6 10e-6,1.1e-5 L 496.73012,455.06529 c 0,0 -10e-6,-1e-5 -10e-6,-1e-5 z"
       id="path3436"
       style="fill:#000000" />
    <path
       inkscape:connector-curvature="0"
       d="m 107.82139,66.156561 78.63285,78.610799 388.90873,388.90873 -78.63285,-78.6108 z"
       id="path3438"
       style="fill:#000000" />
    <path
       inkscape:connector-curvature="0"
       d="m 186.45424,144.76736 34.33297,34.33297 388.90873,388.90873 -34.33297,-34.33297 z"
       id="path3440"
       style="fill:#000000" />
    <path
       inkscape:connector-curvature="0"
       d="m 220.78721,179.10033 c 7.35352,7.3573 7.35352,19.36723 0,26.72547 l 388.90873,388.90873 c 7.35352,-7.35824 7.35352,-19.36817 0,-26.72547 z"
       id="path3442"
       style="fill:#000000" />
    <path
       inkscape:connector-curvature="0"
       d="m 220.78721,205.8258 -35.10474,35.10474 388.90873,388.90873 35.10474,-35.10474 z"
       id="path3444"
       style="fill:#000000" />
    <path
       inkscape:connector-curvature="0"
       d="m 185.68247,240.93054 -77.86108,77.0893 388.90873,388.90873 77.86108,-77.0893 z"
       id="path3446"
       style="fill:#000000" />
    <path
       inkscape:connector-curvature="0"
       d="m 107.82139,318.01984 c -3.67865,3.67865 -8.162878,5.35833 -12.965819,5.35833 L 483.7643,712.2869 c 4.80294,0 9.28717,-1.67968 12.96582,-5.35833 z"
       id="path3448"
       style="fill:#000000" />
    <path
       inkscape:connector-curvature="0"
       d="m 94.855571,323.37817 c -4.800118,0 -9.309228,-1.65763 -12.987867,-5.33627 L 470.77643,706.95063 c 3.67864,3.67864 8.18775,5.33627 12.98787,5.33627 z"
       id="path3450"
       style="fill:#000000" />
    <path
       inkscape:connector-curvature="0"
       d="m 81.867704,318.0419 c -10e-7,0 -10e-7,0 -2e-6,0 L 470.77643,706.95063 c 0,0 0,0 0,0 z"
       id="path3452"
       style="fill:#000000" />
    <path
       inkscape:connector-curvature="0"
       d="m 81.867702,318.0419 -34.33297,-34.35502 388.908728,388.90873 34.33297,34.35502 z"
       id="path3454"
       style="fill:#000000" />
    <path
       inkscape:connector-curvature="0"
       d="m 47.534732,283.68688 c -7.35729,-7.3573 -7.35729,-19.36723 0,-26.72548 L 436.44346,645.87013 c -7.35729,7.35825 -7.35729,19.36818 0,26.72548 z"
       id="path3456"
       style="fill:#000000" />
    <path
       inkscape:connector-curvature="0"
       d="m 47.534732,256.9614 64.873198,-64.8732 388.90873,388.90873 -64.8732,64.8732 z"
       id="path3458"
       style="fill:#000000" />
    <path
       inkscape:connector-curvature="0"
       d="m 112.40793,192.0882 -64.873198,-64.87321 388.908728,388.90873 64.8732,64.87321 z"
       id="path3460"
       style="fill:#000000" />
    <path
       inkscape:connector-curvature="0"
       d="m 47.534732,127.21499 c -10e-7,0 -10e-7,0 -2e-6,0 l 388.90873,388.90873 c 0,0 0,0 0,0 z"
       id="path3462"
       style="fill:#000000" />
    <path
       inkscape:connector-curvature="0"
       d="m 47.53473,127.21499 c -3.67864,-3.67864 -5.534729,-8.52345 -5.534729,-13.36274 L 430.90873,502.76098 c 0,4.83929 1.85609,9.6841 5.53473,13.36274 z"
       id="path3464"
       style="fill:#000000" />
    <path
       inkscape:connector-curvature="0"
       d="m 270.35721,79.298782 c 0,-19.78566 16.04675,-35.832411 35.83242,-35.832411 L 695.09836,432.3751 c -19.78567,0 -35.83242,16.04675 -35.83242,35.83241 z"
       id="path3466"
       style="fill:#000000" />
    <path
       inkscape:connector-curvature="0"
       d="m 306.18963,43.466371 c 9.88732,0 18.83545,4.007219 25.31398,10.485747 L 720.41234,442.86085 c -6.47853,-6.47853 -15.42666,-10.48575 -25.31398,-10.48575 z"
       id="path3468"
       style="fill:#000000" />
    <path
       inkscape:connector-curvature="0"
       d="M 331.50361,53.952118 C 337.98936,60.437868 342,69.40044 342,79.298782 L 730.90873,468.20751 c 0,-9.89834 -4.01064,-18.86091 -10.49639,-25.34666 z"
       id="path3470"
       style="fill:#000000" />
    <path
       inkscape:connector-curvature="0"
       d="m 342,79.298782 c 0,19.785679 -16.0247,35.832418 -35.81037,35.832418 l 388.90873,388.90873 c 19.78567,0 35.81037,-16.04674 35.81037,-35.83242 z"
       id="path3472"
       style="fill:#000000" />
    <path
       inkscape:connector-curvature="0"
       d="m 306.18963,115.1312 c -9.89284,0 -18.85094,-4.01169 -25.33584,-10.49658 l 388.90873,388.90873 c 6.4849,6.48489 15.443,10.49658 25.33584,10.49658 z"
       id="path3474"
       style="fill:#000000" />
    <path
       inkscape:connector-curvature="0"
       d="M 280.85379,104.63462 C 274.3689,98.149723 270.35721,89.191619 270.35721,79.298781 L 659.26594,468.20751 c 0,9.89284 4.01169,18.85094 10.49658,25.33584 z"
       id="path3476"
       style="fill:#000000" />
    <path
       inkscape:connector-curvature="0"
       d="m 270.35721,192 c 0,-19.78567 16.04675,-35.83242 35.83242,-35.83242 l 388.90873,388.90873 c -19.78567,0 -35.83242,16.04675 -35.83242,35.83242 z"
       id="path3478"
       style="fill:#000000" />
    <path
       inkscape:connector-curvature="0"
       d="m 306.18963,156.16758 c 9.88732,0 18.83545,4.00722 25.31398,10.48575 l 388.90873,388.90873 c -6.47853,-6.47853 -15.42666,-10.48575 -25.31398,-10.48575 z"
       id="path3480"
       style="fill:#000000" />
    <path
       inkscape:connector-curvature="0"
       d="M 331.50361,166.65333 C 337.98936,173.13908 342,182.10165 342,192 l 388.90873,388.90873 c 0,-9.89835 -4.01064,-18.86092 -10.49639,-25.34667 z"
       id="path3482"
       style="fill:#000000" />
    <path
       inkscape:connector-curvature="0"
       d="m 342,192 c 0,19.78566 -16.0247,35.83241 -35.81037,35.83241 l 388.90873,388.90873 c 19.78567,0 35.81037,-16.04675 35.81037,-35.83241 z"
       id="path3484"
       style="fill:#000000" />
    <path
       inkscape:connector-curvature="0"
       d="m 306.18963,227.83241 c -9.89284,0 -18.85094,-4.01169 -25.33584,-10.49658 l 388.90873,388.90872 c 6.4849,6.4849 15.443,10.49659 25.33584,10.49659 z"
       id="path3486"
       style="fill:#000000" />
    <path
       inkscape:connector-curvature="0"
       d="M 280.85379,217.33583 C 274.3689,210.85093 270.35721,201.89283 270.35721,192 l 388.90873,388.90873 c 0,9.89283 4.01169,18.85093 10.49658,25.33582 z"
       id="path3488"
       style="fill:#000000" />
    <path
       inkscape:connector-curvature="0"
       d="m 270.35721,304.70122 c 0,-19.78567 16.04675,-35.83242 35.83242,-35.83242 l 388.90873,388.90873 c -19.78567,0 -35.83242,16.04675 -35.83242,35.83242 z"
       id="path3490"
       style="fill:#000000" />
    <path
       inkscape:connector-curvature="0"
       d="m 306.18963,268.8688 c 9.88732,0 18.83545,4.00722 25.31398,10.48575 l 388.90873,388.90873 c -6.47853,-6.47853 -15.42666,-10.48575 -25.31398,-10.48575 z"
       id="path3492"
       style="fill:#000000" />
    <path
       inkscape:connector-curvature="0"
       d="M 331.50361,279.35455 C 337.98936,285.8403 342,294.80287 342,304.70121 l 388.90873,388.90873 c 0,-9.89834 -4.01064,-18.86091 -10.49639,-25.34666 z"
       id="path3494"
       style="fill:#000000" />
    <path
       inkscape:connector-curvature="0"
       d="m 342,304.70121 c 0,19.78567 -16.0247,35.83242 -35.81037,35.83242 l 388.90873,388.90873 c 19.78567,0 35.81037,-16.04675 35.81037,-35.83242 z"
       id="path3496"
       style="fill:#000000" />
    <path
       inkscape:connector-curvature="0"
       d="m 306.18963,340.53363 c -9.7535,0 -18.59841,-3.89948 -25.06036,-10.22405 L 670.038,719.21831 c 6.46195,6.32457 15.30686,10.22405 25.06036,10.22405 z"
       id="path3498"
       style="fill:#000000" />
    <path
       inkscape:connector-curvature="0"
       d="m 281.12927,330.30958 c -6.64657,-6.50527 -10.77206,-15.5762 -10.77206,-25.60837 l 388.90873,388.90873 c 0,10.03217 4.12549,19.1031 10.77206,25.60837 z"
       id="path3500"
       style="fill:#000000" />
  </g>
  <path
     style="fill:#ffffff;fill-rule:evenodd"
     d="m 42.000001,113.85225 c 0,-4.83928 1.85609,-9.68361 5.534731,-13.36273 l 34.33297,-34.332959 c 7.3573,-7.357301 18.596398,-7.357301 25.953688,0 l 78.63285,78.610799 34.33297,34.33297 c 7.35352,7.3573 7.35352,19.36723 0,26.72547 l -35.10474,35.10474 -77.86108,77.0893 c -3.67865,3.67865 -8.162878,5.35833 -12.965819,5.35833 -4.800119,0 -9.30923,-1.65763 -12.987869,-5.33627 l -34.33297,-34.35502 c -7.35729,-7.3573 -7.35729,-19.36723 0,-26.72548 L 112.40793,192.0882 47.534732,127.21499 c -3.678641,-3.67864 -5.534731,-8.52345 -5.534731,-13.36274 z M 270.35721,79.298782 c 0,-19.78566 16.04675,-35.832411 35.83242,-35.832411 19.78567,0 35.81037,16.04675 35.81037,35.832411 0,19.785679 -16.0247,35.832418 -35.81037,35.832418 -19.78567,0 -35.83242,-16.046739 -35.83242,-35.832419 z m 0,112.701218 c 0,-19.78567 16.04675,-35.83242 35.83242,-35.83242 C 325.9753,156.16758 342,172.21433 342,192 c 0,19.78566 -16.0247,35.83241 -35.81037,35.83241 -19.78567,0 -35.83242,-16.04675 -35.83242,-35.83241 z m 0,112.70122 c 0,-19.78567 16.04675,-35.83242 35.83242,-35.83242 19.78567,0 35.81037,16.04675 35.81037,35.83241 0,19.78567 -16.0247,35.83242 -35.81037,35.83242 -19.78567,0 -35.83242,-16.04675 -35.83242,-35.83242 z"
     id="path12"
     inkscape:connector-curvature="0" />
</svg>
