<?xml version="1.0" encoding="UTF-8" standalone="no"?>
<svg
   xmlns:dc="http://purl.org/dc/elements/1.1/"
   xmlns:cc="http://creativecommons.org/ns#"
   xmlns:rdf="http://www.w3.org/1999/02/22-rdf-syntax-ns#"
   xmlns:svg="http://www.w3.org/2000/svg"
   xmlns="http://www.w3.org/2000/svg"
   xmlns:sodipodi="http://sodipodi.sourceforge.net/DTD/sodipodi-0.dtd"
   xmlns:inkscape="http://www.inkscape.org/namespaces/inkscape"
   viewBox="0 0 512 512"
   id="svg2"
   version="1.1"
   inkscape:version="0.48.5 r10040"
   width="100%"
   height="100%"
   sodipodi:docname="list-add-font.svg">
  <sodipodi:namedview
     pagecolor="#ffffff"
     bordercolor="#666666"
     borderopacity="1"
     objecttolerance="10"
     gridtolerance="10"
     guidetolerance="10"
     inkscape:pageopacity="0"
     inkscape:pageshadow="2"
     inkscape:window-width="1306"
     inkscape:window-height="715"
     id="namedview182"
     showgrid="false"
     inkscape:zoom="0.4609375"
     inkscape:cx="-11.932203"
     inkscape:cy="256"
     inkscape:window-x="56"
     inkscape:window-y="28"
     inkscape:window-maximized="1"
     inkscape:current-layer="svg2" />
  <metadata
     id="metadata186">
    <rdf:RDF>
      <cc:Work
         rdf:about="">
        <dc:format>image/svg+xml</dc:format>
        <dc:type
           rdf:resource="http://purl.org/dc/dcmitype/StillImage" />
      </cc:Work>
    </rdf:RDF>
  </metadata>
  <defs
     id="defs184">
    <clipPath
       clipPathUnits="userSpaceOnUse"
       id="clipPath3626">
      <path
         id="path3628"
         d="M 26,0 C 11.60265,0 0,11.602648 0,25.999998 L 0,486 c 0,14.39735 11.60265,26 26,26 l 460,0 c 14.39735,0 26,-11.60265 26,-26 L 512,25.999998 C 512,11.602648 500.39735,0 486,0 L 26,0 z"
         style="fill:#66ae4a;fill-opacity:1;stroke:none"
         inkscape:connector-curvature="0" />
    </clipPath>
  </defs>
  <path
     inkscape:connector-curvature="0"
     style="fill:#66ae4a;fill-opacity:1;stroke:none"
     d="M 26,0 C 11.60265,0 0,11.602648 0,25.999998 L 0,486 c 0,14.39735 11.60265,26 26,26 l 460,0 c 14.39735,0 26,-11.60265 26,-26 L 512,25.999998 C 512,11.602648 500.39735,0 486,0 L 26,0 z"
     id="rect2986" />
  <text
     font-size="208.33"
     letter-spacing="0"
     line-height="125%"
     word-spacing="0"
     y="1385.1929"
     x="-27115.074"
     id="text10"
     sodipodi:linespacing="125%"
     style="font-size:4848.40771484px;line-height:125%;letter-spacing:0;word-spacing:0;font-family:Gentium Book Basic">
    <tspan
       y="1385.1929"
       x="-27115.074"
       id="tspan12" />
  </text>
  <text
     transform="scale(4.0128206,0.24920128)"
     font-size="75.7"
     y="-7541.4893"
     x="637.18976"
     id="text14"
     style="font-size:1761.73657227px;text-anchor:middle;font-family:Arial" />
  <text
     font-size="208.33"
     letter-spacing="0"
     line-height="125%"
     word-spacing="0"
     y="2297.2512"
     x="-27249.822"
     id="text16"
     sodipodi:linespacing="125%"
     style="font-size:4848.40771484px;line-height:125%;letter-spacing:0;word-spacing:0;font-family:Gentium Book Basic">
    <tspan
       y="2297.2512"
       x="-27249.822"
       id="tspan18" />
  </text>
  <text
     transform="scale(4.0128206,0.24920128)"
     font-size="75.7"
     y="-3881.6387"
     x="603.65393"
     id="text20"
     style="font-size:1761.73657227px;text-anchor:middle;font-family:Arial" />
  <g
     transform="matrix(23.27273,0,0,23.27273,13.016949,0)"
     id="g22"
     style="fill:#555753">
    <text
       font-size="127.88"
       letter-spacing="0"
       line-height="125%"
       word-spacing="0"
       y="-204.06"
       x="-549.96002"
       transform="scale(1.05082,0.95163)"
       id="text24"
       sodipodi:linespacing="125%"
       style="font-size:127.87999725px;line-height:125%;letter-spacing:0;word-spacing:0;font-family:Gentium Book Basic">
      <tspan
         y="-204.06"
         x="-549.96002"
         id="tspan26" />
    </text>
    <text
       transform="scale(4.21679,0.23715)"
       font-size="46.47"
       y="-1164.37"
       x="57.980999"
       id="text28"
       style="font-size:46.47000122px;text-anchor:middle;font-family:Arial" />
    <text
       font-size="68.46"
       letter-spacing="0"
       line-height="125%"
       word-spacing="0"
       y="-239.50999"
       x="-145.92999"
       transform="scale(1.05082,0.95163)"
       id="text30"
       sodipodi:linespacing="125%"
       style="font-size:68.45999908px;line-height:125%;letter-spacing:0;word-spacing:0;font-family:Gentium Book Basic">
      <tspan
         y="-239.50999"
         x="-145.92999"
         id="tspan32" />
    </text>
    <text
       transform="scale(4.21679,0.23715)"
       font-size="24.874"
       y="-1146.0601"
       x="68.040001"
       id="text34"
       style="font-size:24.87400055px;text-anchor:middle;font-family:Arial" />
    <text
       font-size="200"
       letter-spacing="0"
       line-height="125%"
       word-spacing="0"
       y="-74.269997"
       x="-1695.66"
       id="text36"
       sodipodi:linespacing="125%"
       style="font-size:200px;line-height:125%;letter-spacing:0;word-spacing:0;font-family:Gentium Book Basic">
      <tspan
         y="-74.269997"
         x="-1695.66"
         id="tspan38" />
    </text>
    <text
       transform="scale(4.0128,0.2492)"
       font-size="72.67"
       y="-838.39001"
       x="-117.54"
       id="text40"
       style="font-size:72.66999817px;text-anchor:middle;font-family:Arial" />
  </g>
  <g
     transform="matrix(23.27273,0,0,23.27273,13.016949,0)"
     id="g42"
     style="fill:#000000">
    <text
       font-size="208.33"
       letter-spacing="0"
       line-height="125%"
       word-spacing="0"
       y="-599.63"
       x="-1086.23"
       id="text44"
       sodipodi:linespacing="125%"
       style="font-size:208.33000183px;line-height:125%;letter-spacing:0;word-spacing:0;stroke:#cd1d31;font-family:Gentium Book Basic">
      <tspan
         y="-599.63"
         x="-1086.23"
         id="tspan46" />
    </text>
    <text
       transform="scale(4.0128,0.2492)"
       font-size="75.7"
       y="-2969.1201"
       x="47.040001"
       id="text48"
       style="font-size:75.69999695px;text-anchor:middle;stroke:none;font-family:Arial" />
    <text
       font-size="208.33"
       letter-spacing="0"
       line-height="125%"
       word-spacing="0"
       y="-560.44"
       x="-1092.03"
       id="text50"
       sodipodi:linespacing="125%"
       style="font-size:208.33000183px;line-height:125%;letter-spacing:0;word-spacing:0;stroke:#cd1d31;font-family:Gentium Book Basic">
      <tspan
         y="-560.44"
         x="-1092.03"
         id="tspan52" />
    </text>
    <text
       transform="scale(4.0128,0.2492)"
       font-size="75.7"
       y="-2811.8501"
       x="45.592999"
       id="text54"
       style="font-size:75.69999695px;text-anchor:middle;stroke:none;font-family:Arial" />
  </g>
  <g
     transform="matrix(23.27273,0,0,23.27273,13.016949,0)"
     id="g56"
     style="fill:#555753">
    <g
       id="g58"
       style="stroke:#cd1d31">
      <text
         font-size="127.88"
         letter-spacing="0"
         line-height="125%"
         word-spacing="0"
         y="-896.71002"
         x="-474.37"
         transform="scale(1.05082,0.95163)"
         id="text60"
         sodipodi:linespacing="125%"
         style="font-size:127.87999725px;line-height:125%;letter-spacing:0;word-spacing:0;font-family:Gentium Book Basic">
        <tspan
           y="-896.71002"
           x="-474.37"
           id="tspan62" />
      </text>
      <text
         transform="scale(4.21679,0.23715)"
         font-size="46.47"
         y="-3943.8701"
         x="76.82"
         id="text64"
         style="font-size:46.47000122px;text-anchor:middle;font-family:Arial" />
      <text
         font-size="68.46"
         letter-spacing="0"
         line-height="125%"
         word-spacing="0"
         y="-932.15997"
         x="-70.349998"
         transform="scale(1.05082,0.95163)"
         id="text66"
         sodipodi:linespacing="125%"
         style="font-size:68.45999908px;line-height:125%;letter-spacing:0;word-spacing:0;font-family:Gentium Book Basic">
        <tspan
           y="-932.15997"
           x="-70.349998"
           id="tspan68" />
      </text>
      <text
         transform="scale(4.21679,0.23715)"
         font-size="24.874"
         y="-3925.5601"
         x="86.870003"
         id="text70"
         style="font-size:24.87400055px;text-anchor:middle;font-family:Arial" />
      <text
         font-size="200"
         letter-spacing="0"
         line-height="125%"
         word-spacing="0"
         y="-733.41998"
         x="-1616.23"
         id="text72"
         sodipodi:linespacing="125%"
         style="font-size:200px;line-height:125%;letter-spacing:0;word-spacing:0;font-family:Gentium Book Basic">
        <tspan
           y="-733.41998"
           x="-1616.23"
           id="tspan74" />
      </text>
    </g>
    <text
       transform="scale(4.0128,0.2492)"
       font-size="72.67"
       y="-3483.46"
       x="-97.75"
       id="text76"
       style="font-size:72.66999817px;text-anchor:middle;stroke:none;font-family:Arial" />
  </g>
  <g
     transform="matrix(23.27273,0,0,23.27273,13.016949,0)"
     id="g78"
     style="fill:#000000">
    <text
       font-size="200"
       letter-spacing="0"
       line-height="125%"
       word-spacing="0"
       y="-887.07001"
       x="-356.79999"
       id="text80"
       sodipodi:linespacing="125%"
       style="font-size:200px;line-height:125%;letter-spacing:0;word-spacing:0;stroke:#cd1d31;font-family:Gentium Book Basic">
      <tspan
         y="-887.07001"
         x="-356.79999"
         id="tspan82" />
    </text>
    <text
       transform="scale(4.0128,0.2492)"
       font-size="72.67"
       y="-4100.0298"
       x="216.10001"
       id="text84"
       style="font-size:72.66999817px;text-anchor:middle;stroke:none;font-family:Arial" />
    <text
       font-size="200"
       letter-spacing="0"
       line-height="125%"
       word-spacing="0"
       y="-1010.89"
       x="542.82001"
       id="text86"
       sodipodi:linespacing="125%"
       style="font-size:200px;line-height:125%;letter-spacing:0;word-spacing:0;stroke:#cd1d31;font-family:Gentium Book Basic">
      <tspan
         y="-1010.89"
         x="542.82001"
         id="tspan88" />
    </text>
    <text
       transform="scale(4.0128,0.2492)"
       font-size="72.67"
       y="-4596.8901"
       x="440.29001"
       id="text90"
       style="font-size:72.66999817px;text-anchor:middle;stroke:none;font-family:Arial" />
  </g>
  <text
     x="-27837.691"
     y="1243.4619"
     word-spacing="0"
     line-height="125%"
     letter-spacing="0"
     font-size="208.33"
     id="text92"
     sodipodi:linespacing="125%"
     style="font-size:4848.40771484px;line-height:125%;letter-spacing:0;word-spacing:0;font-family:Gentium Book Basic">
    <tspan
       x="-27837.691"
       y="1243.4619"
       id="tspan94" />
  </text>
  <text
     x="457.08301"
     y="-8109.8066"
     font-size="75.7"
     transform="scale(4.0128206,0.24920128)"
     id="text96"
     style="font-size:1761.73657227px;text-anchor:middle;font-family:Arial" />
  <text
     x="-27972.441"
     y="2155.5203"
     word-spacing="0"
     line-height="125%"
     letter-spacing="0"
     font-size="208.33"
     id="text98"
     sodipodi:linespacing="125%"
     style="font-size:4848.40771484px;line-height:125%;letter-spacing:0;word-spacing:0;font-family:Gentium Book Basic">
    <tspan
       x="-27972.441"
       y="2155.5203"
       id="tspan100" />
  </text>
  <text
     x="423.54718"
     y="-4449.9561"
     font-size="75.7"
     transform="scale(4.0128206,0.24920128)"
     id="text102"
     style="font-size:1761.73657227px;text-anchor:middle;font-family:Arial" />
  <g
     transform="matrix(23.27273,0,0,23.27273,-709.60132,-141.61456)"
     id="g104"
     style="fill:#555753">
    <text
       transform="scale(1.05082,0.95163)"
       x="-549.96002"
       y="-204.06"
       word-spacing="0"
       line-height="125%"
       letter-spacing="0"
       font-size="127.88"
       id="text106"
       sodipodi:linespacing="125%"
       style="font-size:127.87999725px;line-height:125%;letter-spacing:0;word-spacing:0;font-family:Gentium Book Basic">
      <tspan
         x="-549.96002"
         y="-204.06"
         id="tspan108" />
    </text>
    <text
       x="57.980999"
       y="-1164.37"
       font-size="46.47"
       transform="scale(4.21679,0.23715)"
       id="text110"
       style="font-size:46.47000122px;text-anchor:middle;font-family:Arial" />
    <text
       transform="scale(1.05082,0.95163)"
       x="-145.92999"
       y="-239.50999"
       word-spacing="0"
       line-height="125%"
       letter-spacing="0"
       font-size="68.46"
       id="text112"
       sodipodi:linespacing="125%"
       style="font-size:68.45999908px;line-height:125%;letter-spacing:0;word-spacing:0;font-family:Gentium Book Basic">
      <tspan
         x="-145.92999"
         y="-239.50999"
         id="tspan114" />
    </text>
    <text
       x="68.040001"
       y="-1146.0601"
       font-size="24.874"
       transform="scale(4.21679,0.23715)"
       id="text116"
       style="font-size:24.87400055px;text-anchor:middle;font-family:Arial" />
    <text
       x="-1695.66"
       y="-74.269997"
       word-spacing="0"
       line-height="125%"
       letter-spacing="0"
       font-size="200"
       id="text118"
       sodipodi:linespacing="125%"
       style="font-size:200px;line-height:125%;letter-spacing:0;word-spacing:0;font-family:Gentium Book Basic">
      <tspan
         x="-1695.66"
         y="-74.269997"
         id="tspan120" />
    </text>
    <text
       x="-117.54"
       y="-838.39001"
       font-size="72.67"
       transform="scale(4.0128,0.2492)"
       id="text122"
       style="font-size:72.66999817px;text-anchor:middle;font-family:Arial" />
  </g>
  <g
     transform="matrix(23.27273,0,0,23.27273,-709.60132,-141.61456)"
     id="g124">
    <g
       id="g126">
      <text
         x="-1086.23"
         y="-599.63"
         word-spacing="0"
         line-height="125%"
         letter-spacing="0"
         font-size="208.33"
         id="text128"
         sodipodi:linespacing="125%"
         style="font-size:208.33000183px;line-height:125%;letter-spacing:0;word-spacing:0;stroke:#cd1d31;font-family:Gentium Book Basic">
        <tspan
           x="-1086.23"
           y="-599.63"
           id="tspan130" />
      </text>
      <text
         x="47.040001"
         y="-2969.1201"
         font-size="75.7"
         transform="scale(4.0128,0.2492)"
         id="text132"
         style="font-size:75.69999695px;text-anchor:middle;stroke:none;font-family:Arial" />
      <text
         x="-1092.03"
         y="-560.44"
         word-spacing="0"
         line-height="125%"
         letter-spacing="0"
         font-size="208.33"
         id="text134"
         sodipodi:linespacing="125%"
         style="font-size:208.33000183px;line-height:125%;letter-spacing:0;word-spacing:0;stroke:#cd1d31;font-family:Gentium Book Basic">
        <tspan
           x="-1092.03"
           y="-560.44"
           id="tspan136" />
      </text>
      <text
         x="45.592999"
         y="-2811.8501"
         font-size="75.7"
         transform="scale(4.0128,0.2492)"
         id="text138"
         style="font-size:75.69999695px;text-anchor:middle;stroke:none;font-family:Arial" />
    </g>
    <g
       id="g140"
       style="fill:#555753">
      <g
         id="g142"
         style="stroke:#cd1d31">
        <text
           transform="scale(1.05082,0.95163)"
           x="-474.37"
           y="-896.71002"
           word-spacing="0"
           line-height="125%"
           letter-spacing="0"
           font-size="127.88"
           id="text144"
           sodipodi:linespacing="125%"
           style="font-size:127.87999725px;line-height:125%;letter-spacing:0;word-spacing:0;font-family:Gentium Book Basic">
          <tspan
             x="-474.37"
             y="-896.71002"
             id="tspan146" />
        </text>
        <text
           x="76.82"
           y="-3943.8701"
           font-size="46.47"
           transform="scale(4.21679,0.23715)"
           id="text148"
           style="font-size:46.47000122px;text-anchor:middle;font-family:Arial" />
        <text
           transform="scale(1.05082,0.95163)"
           x="-70.349998"
           y="-932.15997"
           word-spacing="0"
           line-height="125%"
           letter-spacing="0"
           font-size="68.46"
           id="text150"
           sodipodi:linespacing="125%"
           style="font-size:68.45999908px;line-height:125%;letter-spacing:0;word-spacing:0;font-family:Gentium Book Basic">
          <tspan
             x="-70.349998"
             y="-932.15997"
             id="tspan152" />
        </text>
        <text
           x="86.870003"
           y="-3925.5601"
           font-size="24.874"
           transform="scale(4.21679,0.23715)"
           id="text154"
           style="font-size:24.87400055px;text-anchor:middle;font-family:Arial" />
        <text
           x="-1616.23"
           y="-733.41998"
           word-spacing="0"
           line-height="125%"
           letter-spacing="0"
           font-size="200"
           id="text156"
           sodipodi:linespacing="125%"
           style="font-size:200px;line-height:125%;letter-spacing:0;word-spacing:0;font-family:Gentium Book Basic">
          <tspan
             x="-1616.23"
             y="-733.41998"
             id="tspan158" />
        </text>
      </g>
      <text
         x="-97.75"
         y="-3483.46"
         font-size="72.67"
         transform="scale(4.0128,0.2492)"
         id="text160"
         style="font-size:72.66999817px;text-anchor:middle;stroke:none;font-family:Arial" />
    </g>
    <g
       id="g162"
       style="fill:#000000">
      <text
         x="-356.79999"
         y="-887.07001"
         word-spacing="0"
         line-height="125%"
         letter-spacing="0"
         font-size="200"
         id="text164"
         sodipodi:linespacing="125%"
         style="font-size:200px;line-height:125%;letter-spacing:0;word-spacing:0;stroke:#cd1d31;font-family:Gentium Book Basic">
        <tspan
           x="-356.79999"
           y="-887.07001"
           id="tspan166" />
      </text>
      <text
         x="216.10001"
         y="-4100.0298"
         font-size="72.67"
         transform="scale(4.0128,0.2492)"
         id="text168"
         style="font-size:72.66999817px;text-anchor:middle;stroke:none;font-family:Arial" />
      <text
         x="542.82001"
         y="-1010.89"
         word-spacing="0"
         line-height="125%"
         letter-spacing="0"
         font-size="200"
         id="text170"
         sodipodi:linespacing="125%"
         style="font-size:200px;line-height:125%;letter-spacing:0;word-spacing:0;stroke:#cd1d31;font-family:Gentium Book Basic">
        <tspan
           x="542.82001"
           y="-1010.89"
           id="tspan172" />
      </text>
      <text
         x="440.29001"
         y="-4596.8901"
         font-size="72.67"
         transform="scale(4.0128,0.2492)"
         id="text174"
         style="font-size:72.66999817px;text-anchor:middle;stroke:none;font-family:Arial" />
    </g>
  </g>
  <g
     style="fill:#000000;opacity:0.25"
     id="g3354"
     clip-path="url(#clipPath3626)">
    <path
       inkscape:connector-curvature="0"
       d="m 194.8679,72.818833 -0.0308,0.03074 388.90873,388.908727 0.0308,-0.0307 z"
       id="path3356"
       style="fill:#000000" />
    <path
       inkscape:connector-curvature="0"
       d="M 194.8371,72.849573 133.28996,251.00429 522.19869,639.91302 583.74583,461.7583 z"
       id="path3358"
       style="fill:#000000" />
    <path
       inkscape:connector-curvature="0"
       d="M 133.28996,251.00429 C 114.2413,305.54025 96.623715,358.94036 83.916969,391.22235 L 472.8257,780.13108 c 12.70674,-32.28199 30.32433,-85.6821 49.37299,-140.21806 z"
       id="path3360"
       style="fill:#000000" />
    <path
       inkscape:connector-curvature="0"
       d="m 83.916969,391.22235 c -8.47116,22.23107 -14.321103,26.31184 -42.916994,27.91449 L 429.9087,808.04557 c 28.5959,-1.60265 34.44584,-5.68342 42.917,-27.91449 z"
       id="path3362"
       style="fill:#000000" />
    <path
       inkscape:connector-curvature="0"
       d="m 40.999975,419.13684 0,20.04433 388.908725,388.90873 0,-20.04433 z"
       id="path3364"
       style="fill:#000000" />
    <path
       inkscape:connector-curvature="0"
       d="m 40.999975,439.18117 124.508475,0 388.90873,388.90873 -124.50848,0 z"
       id="path3366"
       style="fill:#000000" />
    <path
       inkscape:connector-curvature="0"
       d="m 165.50845,439.18117 0,-20.04433 388.90873,388.90873 0,20.04433 z"
       id="path3368"
       style="fill:#000000" />
    <path
       inkscape:connector-curvature="0"
       d="m 165.50845,419.13684 -32.18774,-2.85908 388.90873,388.90873 32.18774,2.85908 z"
       id="path3370"
       style="fill:#000000" />
    <path
       inkscape:connector-curvature="0"
       d="m 133.32071,416.27776 c -4.16005,-0.37596 -6.8755,-1.36863 -8.52679,-3.01991 l 388.90873,388.90873 c 1.65129,1.65128 4.36674,2.64395 8.52679,3.01991 z"
       id="path3372"
       style="fill:#000000" />
    <path
       inkscape:connector-curvature="0"
       d="m 124.79392,413.25785 c -2.97447,-2.97448 -2.49605,-8.08598 -0.78829,-15.5795 l 388.90873,388.90873 c -1.70776,7.49352 -2.18618,12.60502 0.78829,15.5795 z"
       id="path3374"
       style="fill:#000000" />
    <path
       inkscape:connector-curvature="0"
       d="m 124.00563,397.67835 c 6.34192,-28.59589 15.53107,-57.49499 25.05541,-88.72382 l 388.90873,388.90873 c -9.52434,31.22883 -18.71349,60.12793 -25.05541,88.72382 z"
       id="path3376"
       style="fill:#000000" />
    <path
       inkscape:connector-curvature="0"
       d="m 149.06104,308.95453 102.31213,0 388.90873,388.90873 -102.31213,0 z"
       id="path3378"
       style="fill:#000000" />
    <path
       inkscape:connector-curvature="0"
       d="m 251.37317,308.95453 0,-1.44491 388.90873,388.90873 0,1.44491 z"
       id="path3380"
       style="fill:#000000" />
    <path
       inkscape:connector-curvature="0"
       d="m 251.37317,307.50962 0,-22.90341 388.90873,388.90873 0,22.90341 z"
       id="path3382"
       style="fill:#000000" />
    <path
       inkscape:connector-curvature="0"
       d="m 251.37317,284.60621 22.90341,0 388.90873,388.90873 -22.90341,0 z"
       id="path3384"
       style="fill:#000000" />
    <path
       inkscape:connector-curvature="0"
       d="m 274.27658,284.60621 42.20991,0 388.90873,388.90873 -42.20991,0 z"
       id="path3386"
       style="fill:#000000" />
    <path
       inkscape:connector-curvature="0"
       d="m 316.48649,284.60621 0,-42.20991 388.90873,388.90873 0,42.20991 z"
       id="path3388"
       style="fill:#000000" />
    <path
       inkscape:connector-curvature="0"
       d="m 316.48649,242.3963 0,-0.70709 388.90873,388.90873 0,0.70709 z"
       id="path3390"
       style="fill:#000000" />
    <path
       inkscape:connector-curvature="0"
       d="M 316.48649,241.68921 261.39534,72.818831 650.30407,461.72756 705.39522,630.59794 z"
       id="path3392"
       style="fill:#000000" />
    <path
       inkscape:connector-curvature="0"
       d="m 261.39534,72.818831 -66.52749,0 388.90873,388.908729 66.52749,0 z"
       id="path3394"
       style="fill:#000000" />
    <path
       inkscape:connector-curvature="0"
       d="m 200.61681,146.54015 1.41418,0 388.90873,388.90873 -1.41418,0 z"
       id="path3396"
       style="fill:#000000" />
    <path
       inkscape:connector-curvature="0"
       d="M 202.03099,146.54015 243.53381,283.19204 632.44254,672.10077 590.93972,535.44888 z"
       id="path3398"
       style="fill:#000000" />
    <path
       inkscape:connector-curvature="0"
       d="m 243.53381,283.19204 -85.83399,0 388.90873,388.90873 85.83399,0 z"
       id="path3400"
       style="fill:#000000" />
    <path
       inkscape:connector-curvature="0"
       d="m 157.69982,283.19204 42.917,-136.65189 388.90873,388.90873 -42.917,136.65189 z"
       id="path3402"
       style="fill:#000000" />
    <path
       inkscape:connector-curvature="0"
       d="m 339.26699,242.15036 0,65.32852 388.90873,388.90873 0,-65.32852 z"
       id="path3404"
       style="fill:#000000" />
    <path
       inkscape:connector-curvature="0"
       d="m 339.26699,307.47888 -65.32853,0 388.90873,388.90873 65.32853,0 z"
       id="path3406"
       style="fill:#000000" />
    <path
       inkscape:connector-curvature="0"
       d="m 273.93846,307.47888 -0.36891,65.75891 388.90873,388.90873 0.36891,-65.75891 z"
       id="path3408"
       style="fill:#000000" />
    <path
       inkscape:connector-curvature="0"
       d="m 273.56955,373.23779 65.72818,-0.0307 388.90873,388.90873 -65.72818,0.0307 z"
       id="path3410"
       style="fill:#000000" />
    <path
       inkscape:connector-curvature="0"
       d="m 339.29773,373.20709 0,65.35926 388.90873,388.90873 0,-65.35926 z"
       id="path3412"
       style="fill:#000000" />
    <path
       inkscape:connector-curvature="0"
       d="m 339.29773,438.56635 66.31228,0.49189 388.90873,388.90873 -66.31228,-0.49189 z"
       id="path3414"
       style="fill:#000000" />
    <path
       inkscape:connector-curvature="0"
       d="m 405.61001,439.05824 -0.18445,-65.82041 388.90873,388.90873 0.18445,65.82041 z"
       id="path3416"
       style="fill:#000000" />
    <path
       inkscape:connector-curvature="0"
       d="m 405.42556,373.23783 65.57446,0.0922 388.90873,388.90873 -65.57446,-0.0922 z"
       id="path3418"
       style="fill:#000000" />
    <path
       inkscape:connector-curvature="0"
       d="m 471.00002,373.33003 -0.36891,-65.88189 388.90873,388.90873 0.36891,65.88189 z"
       id="path3420"
       style="fill:#000000" />
    <path
       inkscape:connector-curvature="0"
       d="m 470.63111,307.44814 -65.42075,0 388.90873,388.90873 65.42075,0 z"
       id="path3422"
       style="fill:#000000" />
    <path
       inkscape:connector-curvature="0"
       d="m 405.21036,307.44814 -0.12297,-65.29777 388.90873,388.90873 0.12297,65.29777 z"
       id="path3424"
       style="fill:#000000" />
    <path
       inkscape:connector-curvature="0"
       d="m 405.08739,242.15037 -65.82041,0 388.90873,388.90873 65.82041,0 z"
       id="path3426"
       style="fill:#000000" />
    <path
       inkscape:connector-curvature="0"
       d="m 279.31846,396.20269 0,0.70709 388.90873,388.90873 0,-0.70709 z"
       id="path3428"
       style="fill:#000000" />
    <path
       inkscape:connector-curvature="0"
       d="m 279.31846,396.90978 c 3.70899,11.12698 2.54974,17.55408 -8.57725,18.63015 l 388.90873,388.90873 c 11.12699,-1.07607 12.28624,-7.50317 8.57725,-18.63015 z"
       id="path3430"
       style="fill:#000000" />
    <path
       inkscape:connector-curvature="0"
       d="m 270.74121,415.53993 -30.77358,3.56617 388.90873,388.90873 30.77358,-3.56617 z"
       id="path3432"
       style="fill:#000000" />
    <path
       inkscape:connector-curvature="0"
       d="m 239.96763,419.1061 0,20.01358 388.90873,388.90873 0,-20.01358 z"
       id="path3434"
       style="fill:#000000" />
    <path
       inkscape:connector-curvature="0"
       d="m 239.96763,439.11968 76.5804,0 388.90873,388.90873 -76.5804,0 z"
       id="path3436"
       style="fill:#000000" />
    <path
       inkscape:connector-curvature="0"
       d="m 316.54803,439.11968 0,-0.70708 388.90873,388.90873 0,0.70708 z"
       id="path3438"
       style="fill:#000000" />
    <path
       inkscape:connector-curvature="0"
       d="m 316.54803,438.4126 0,-42.20991 388.90873,388.90873 0,42.20991 z"
       id="path3440"
       style="fill:#000000" />
    <path
       inkscape:connector-curvature="0"
       d="m 316.54803,396.20269 -37.22957,0 388.90873,388.90873 37.22957,0 z"
       id="path3442"
       style="fill:#000000" />
  </g>
  <path
     style="fill:#ffffff"
     d="m 194.8679,72.818833 -0.0308,0.03074 -61.54714,178.154717 c -19.04866,54.53596 -36.666245,107.93607 -49.372991,140.21806 -8.47116,22.23107 -14.321103,26.31184 -42.916994,27.91449 l 0,20.04433 124.508475,0 0,-20.04433 -32.18774,-2.85908 c -11.65357,-1.05318 -11.97091,-6.94584 -9.31508,-18.59941 6.34192,-28.59589 15.53107,-57.49499 25.05541,-88.72382 l 102.31213,0 0,-1.44491 0,-22.90341 22.90341,0 42.20991,0 0,-42.20991 0,-0.70709 -55.09115,-168.870379 -66.52749,0 z m 5.74891,73.721317 1.41418,0 41.50282,136.65189 -85.83399,0 42.917,-136.65189 z m 138.65018,95.61021 0,65.32852 -65.32853,0 -0.36891,65.75891 65.72818,-0.0307 0,65.35926 66.31228,0.49189 -0.18445,-65.82041 65.57446,0.0922 -0.36891,-65.88189 -65.42075,0 -0.12297,-65.29777 -65.82041,0 z m -59.94853,154.05233 0,0.70709 c 3.70899,11.12698 2.54974,17.55408 -8.57725,18.63015 l -30.77358,3.56617 0,20.01358 76.5804,0 0,-0.70708 0,-42.20991 -37.22957,0 z"
     id="path178"
     inkscape:connector-curvature="0" />
</svg>
