<?xml version="1.0" encoding="UTF-8" standalone="no"?>
<svg
   xmlns:dc="http://purl.org/dc/elements/1.1/"
   xmlns:cc="http://creativecommons.org/ns#"
   xmlns:rdf="http://www.w3.org/1999/02/22-rdf-syntax-ns#"
   xmlns:svg="http://www.w3.org/2000/svg"
   xmlns="http://www.w3.org/2000/svg"
   xmlns:sodipodi="http://sodipodi.sourceforge.net/DTD/sodipodi-0.dtd"
   xmlns:inkscape="http://www.inkscape.org/namespaces/inkscape"
   width="512"
   height="512"
   viewBox="0 0 384 384"
   id="svg2"
   version="1.1"
   inkscape:version="0.48.5 r10040"
   sodipodi:docname="mail-forwarded.svg">
  <sodipodi:namedview
     pagecolor="#ffffff"
     bordercolor="#666666"
     borderopacity="1"
     objecttolerance="10"
     gridtolerance="10"
     guidetolerance="10"
     inkscape:pageopacity="0"
     inkscape:pageshadow="2"
     inkscape:window-width="1306"
     inkscape:window-height="715"
     id="namedview14"
     showgrid="false"
     inkscape:zoom="0.4609375"
     inkscape:cx="-11.932203"
     inkscape:cy="235.38983"
     inkscape:window-x="56"
     inkscape:window-y="28"
     inkscape:window-maximized="1"
     inkscape:current-layer="svg2" />
  <metadata
     id="metadata18">
    <rdf:RDF>
      <cc:Work
         rdf:about="">
        <dc:format>image/svg+xml</dc:format>
        <dc:type
           rdf:resource="http://purl.org/dc/dcmitype/StillImage" />
      </cc:Work>
    </rdf:RDF>
  </metadata>
  <defs
     id="defs16">
    <clipPath
       clipPathUnits="userSpaceOnUse"
       id="clipPath3192">
      <path
         id="path3194"
         d="M 19.500005,0 C 8.701985,0 4.9999999e-6,8.70198 4.9999999e-6,19.5 l 0,345 C 4.9999999e-6,375.29801 8.701985,384 19.500005,384 l 344.999985,0 c 10.79801,0 19.5,-8.70199 19.5,-19.5 l 0,-345 c 0,-10.79802 -8.70199,-19.5 -19.5,-19.5 L 19.500005,0 z"
         style="fill:#924565;fill-opacity:1;stroke:none"
         inkscape:connector-curvature="0" />
    </clipPath>
  </defs>
  <path
     inkscape:connector-curvature="0"
     style="fill:#924565;fill-opacity:1;stroke:none"
     d="M 19.500005,0 C 8.701985,0 4.9999999e-6,8.70198 4.9999999e-6,19.5 l 0,345 C 4.9999999e-6,375.29801 8.701985,384 19.500005,384 l 344.999985,0 c 10.79801,0 19.5,-8.70199 19.5,-19.5 l 0,-345 c 0,-10.79802 -8.70199,-19.5 -19.5,-19.5 L 19.500005,0 z"
     id="rect2986" />
  <g
     style="fill:#000000;opacity:0.25"
     id="g3015"
     clip-path="url(#clipPath3192)">
    <path
       inkscape:connector-curvature="0"
       d="m 69.462331,47.624999 0,80.106071 388.908729,388.90873 0,-80.10607 z"
       id="path3017"
       style="fill:#000000" />
    <path
       inkscape:connector-curvature="0"
       d="M 69.462331,127.73107 33.843695,154.457 422.75242,543.36573 458.37106,516.6398 z"
       id="path3019"
       style="fill:#000000" />
    <path
       inkscape:connector-curvature="0"
       d="m 33.843695,154.457 0,153.54261 388.908725,388.90873 0,-153.54261 z"
       id="path3021"
       style="fill:#000000" />
    <path
       inkscape:connector-curvature="0"
       d="M 33.843695,307.99961 131.20927,214.53058 520.118,603.43931 422.75242,696.90834 z"
       id="path3023"
       style="fill:#000000" />
    <path
       inkscape:connector-curvature="0"
       d="m 131.20927,214.53058 -43.96153,-34.4951 388.90873,388.90873 43.96153,34.4951 z"
       id="path3025"
       style="fill:#000000" />
    <path
       inkscape:connector-curvature="0"
       d="m 87.24774,180.03548 0,-114.601163 388.90873,388.908733 0,114.60116 z"
       id="path3027"
       style="fill:#000000" />
    <path
       inkscape:connector-curvature="0"
       d="m 87.24774,65.434317 124.61742,0 388.90873,388.908733 -124.61742,0 z"
       id="path3029"
       style="fill:#000000" />
    <path
       inkscape:connector-curvature="0"
       d="m 211.86516,65.434317 0,53.404043 388.90873,388.90873 0,-53.40404 z"
       id="path3031"
       style="fill:#000000" />
    <path
       inkscape:connector-curvature="0"
       d="m 211.86516,118.83836 53.40405,0 388.90873,388.90873 -53.40405,0 z"
       id="path3033"
       style="fill:#000000" />
    <path
       inkscape:connector-curvature="0"
       d="m 265.26921,118.83836 0,53.40405 388.90873,388.90873 0,-53.40405 z"
       id="path3035"
       style="fill:#000000" />
    <path
       inkscape:connector-curvature="0"
       d="m 265.26921,172.24241 c 3.15981,-0.34678 6.21584,-0.54982 9.46643,-0.54982 l 388.90873,388.90873 c -3.25059,0 -6.30662,0.20304 -9.46643,0.54982 z"
       id="path3037"
       style="fill:#000000" />
    <path
       inkscape:connector-curvature="0"
       d="m 274.73564,171.69259 c 16.10809,0 30.86183,4.67342 43.93761,12.23943 l 388.90873,388.90873 c -13.07578,-7.56601 -27.82952,-12.23943 -43.93761,-12.23943 z"
       id="path3039"
       style="fill:#000000" />
    <path
       inkscape:connector-curvature="0"
       d="m 318.67325,183.93202 0,-29.49893 388.90873,388.90873 0,29.49893 z"
       id="path3041"
       style="fill:#000000" />
    <path
       inkscape:connector-curvature="0"
       d="m 318.67325,154.43309 -35.59473,-26.70202 388.90873,388.90873 35.59473,26.70202 z"
       id="path3043"
       style="fill:#000000" />
    <path
       inkscape:connector-curvature="0"
       d="m 283.07852,127.73107 0,-26.70202 388.90873,388.90873 0,26.70202 z"
       id="path3045"
       style="fill:#000000" />
    <path
       inkscape:connector-curvature="0"
       d="M 283.07852,101.02905 229.67448,47.624998 618.58321,436.53373 671.98725,489.93778 z"
       id="path3047"
       style="fill:#000000" />
    <path
       inkscape:connector-curvature="0"
       d="m 229.67448,47.624998 -160.212149,0 388.908729,388.908732 160.21215,0 z"
       id="path3049"
       style="fill:#000000" />
    <path
       inkscape:connector-curvature="0"
       d="m 69.438431,149.98674 0,16.13596 388.908729,388.90873 0,-16.13596 z"
       id="path3051"
       style="fill:#000000" />
    <path
       inkscape:connector-curvature="0"
       d="m 69.438431,166.1227 -10.566066,-8.34289 388.908725,388.90873 10.56607,8.34289 z"
       id="path3053"
       style="fill:#000000" />
    <path
       inkscape:connector-curvature="0"
       d="m 58.872365,157.77981 10.566066,-7.79307 388.908729,388.90873 -10.56607,7.79307 z"
       id="path3055"
       style="fill:#000000" />
    <path
       inkscape:connector-curvature="0"
       d="m 283.07853,149.98674 10.56607,7.79307 388.90873,388.90873 -10.56607,-7.79307 z"
       id="path3057"
       style="fill:#000000" />
    <path
       inkscape:connector-curvature="0"
       d="m 293.6446,157.77981 -10.56607,8.34289 388.90873,388.90873 10.56607,-8.34289 z"
       id="path3059"
       style="fill:#000000" />
    <path
       inkscape:connector-curvature="0"
       d="m 283.07853,166.1227 0,-16.13596 388.90873,388.90873 0,16.13596 z"
       id="path3061"
       style="fill:#000000" />
    <path
       inkscape:connector-curvature="0"
       d="m 274.49659,185.05556 c -41.71399,0 -75.65972,33.95388 -75.65972,75.65972 L 587.7456,649.62401 c 0,-41.70584 33.94573,-75.65972 75.65972,-75.65972 z"
       id="path3063"
       style="fill:#000000" />
    <path
       inkscape:connector-curvature="0"
       d="m 198.83687,260.71528 c 0,20.85725 8.48613,39.77239 22.18685,53.47311 L 609.93245,703.09712 C 596.23173,689.3964 587.7456,670.48126 587.7456,649.62401 z"
       id="path3065"
       style="fill:#000000" />
    <path
       inkscape:connector-curvature="0"
       d="m 221.02372,314.18839 c 13.70039,13.70039 32.61511,22.18661 53.47287,22.18661 l 388.90873,388.90873 c -20.85776,0 -39.77249,-8.48622 -53.47287,-22.18661 z"
       id="path3067"
       style="fill:#000000" />
    <path
       inkscape:connector-curvature="0"
       d="m 274.49659,336.375 c 41.714,0 75.65972,-33.94369 75.65972,-75.65972 l 388.90873,388.90873 c 0,41.71603 -33.94572,75.65972 -75.65972,75.65972 z"
       id="path3069"
       style="fill:#000000" />
    <path
       inkscape:connector-curvature="0"
       d="m 350.15631,260.71528 c 0,-20.85598 -8.48764,-39.77008 -22.18816,-53.4706 l 388.90873,388.90873 c 13.70052,13.70052 22.18816,32.61462 22.18816,53.4706 z"
       id="path3071"
       style="fill:#000000" />
    <path
       inkscape:connector-curvature="0"
       d="m 327.96815,207.24468 c -13.70186,-13.70186 -32.61762,-22.18912 -53.47156,-22.18912 l 388.90873,388.90873 c 20.85394,0 39.7697,8.48726 53.47156,22.18912 z"
       id="path3073"
       style="fill:#000000" />
    <path
       inkscape:connector-curvature="0"
       d="M 176.27044,196.17144 33.8437,332.47846 422.75243,721.38719 565.17917,585.08017 z"
       id="path3075"
       style="fill:#000000" />
    <path
       inkscape:connector-curvature="0"
       d="m 33.8437,332.47846 188.58752,0 388.90873,388.90873 -188.58752,0 z"
       id="path3077"
       style="fill:#000000" />
    <path
       inkscape:connector-curvature="0"
       d="m 222.43122,332.47846 c -3.69825,-2.72092 -7.18799,-5.72099 -10.43529,-8.96829 L 600.90466,712.4189 c 3.2473,3.2473 6.73704,6.24737 10.43529,8.96829 z"
       id="path3079"
       style="fill:#000000" />
    <path
       inkscape:connector-curvature="0"
       d="m 211.99593,323.51017 c -16.13399,-16.13399 -26.28297,-38.3708 -26.28297,-62.79489 l 388.90873,388.90873 c 0,24.42409 10.14898,46.6609 26.28297,62.79489 z"
       id="path3081"
       style="fill:#000000" />
    <path
       inkscape:connector-curvature="0"
       d="m 185.71296,260.71528 c 0,-16.11219 4.67341,-30.88574 12.23942,-43.96153 l 388.90873,388.90873 c -7.56601,13.07579 -12.23942,27.84934 -12.23942,43.96153 z"
       id="path3083"
       style="fill:#000000" />
    <path
       inkscape:connector-curvature="0"
       d="m 197.95238,216.75375 -21.68194,-20.58231 388.90873,388.90873 21.68194,20.58231 z"
       id="path3085"
       style="fill:#000000" />
    <path
       inkscape:connector-curvature="0"
       d="m 290.08274,221.20011 47.28433,39.51517 388.90873,388.90873 -47.28433,-39.51517 z"
       id="path3087"
       style="fill:#000000" />
    <path
       inkscape:connector-curvature="0"
       d="m 337.36707,260.71528 -47.28433,39.49126 388.90873,388.90873 47.28433,-39.49126 z"
       id="path3089"
       style="fill:#000000" />
    <path
       inkscape:connector-curvature="0"
       d="m 290.08274,300.20654 0,-23.92903 388.90873,388.90873 0,23.92903 z"
       id="path3091"
       style="fill:#000000" />
    <path
       inkscape:connector-curvature="0"
       d="m 290.08274,276.27751 c -31.43084,-7.86077 -54.8784,-4.05609 -78.45662,15.58615 l 388.90873,388.90873 c 23.57822,-19.64224 47.02578,-23.44692 78.45662,-15.58615 z"
       id="path3093"
       style="fill:#000000" />
    <path
       inkscape:connector-curvature="0"
       d="m 211.62612,291.86366 c 15.71745,-39.28855 43.09488,-46.73452 78.45662,-46.73452 l 388.90873,388.90873 c -35.36174,0 -62.73917,7.44597 -78.45662,46.73452 z"
       id="path3095"
       style="fill:#000000" />
    <path
       inkscape:connector-curvature="0"
       d="m 290.08274,245.12914 0,-23.92903 388.90873,388.90873 0,23.92903 z"
       id="path3097"
       style="fill:#000000" />
  </g>
  <path
     style="fill:#ffffff"
     d="m 69.462331,47.624999 0,80.106071 -35.618636,26.72593 0,153.54261 97.365575,-93.46903 -43.96153,-34.4951 0,-114.601163 124.61742,0 0,53.404043 53.40405,0 0,53.40405 c 3.15981,-0.34678 6.21584,-0.54982 9.46643,-0.54982 16.10809,0 30.86183,4.67342 43.93761,12.23943 l 0,-29.49893 -35.59473,-26.70202 0,-26.70202 -53.40404,-53.404052 -160.212149,0 z m -0.0239,102.361741 0,16.13596 -10.566066,-8.34289 10.566066,-7.79307 z m 213.640099,0 10.56607,7.79307 -10.56607,8.34289 0,-16.13596 z m -8.58194,35.06882 c -41.71399,0 -75.65972,33.95388 -75.65972,75.65972 0,41.714 33.94369,75.65972 75.65972,75.65972 41.714,0 75.65972,-33.94369 75.65972,-75.65972 0,-41.714 -33.95388,-75.65972 -75.65972,-75.65972 z m -98.22615,11.11588 -142.42674,136.30702 188.58752,0 c -22.07277,-16.23967 -36.71826,-42.42324 -36.71826,-71.76318 0,-16.11219 4.67341,-30.88574 12.23942,-43.96153 l -21.68194,-20.58231 z m 113.8123,25.02867 47.28433,39.51517 -47.28433,39.49126 0,-23.92903 c -31.43084,-7.86077 -54.8784,-4.05609 -78.45662,15.58615 15.71745,-39.28855 43.09488,-46.73452 78.45662,-46.73452 l 0,-23.92903 z"
     id="path10"
     inkscape:connector-curvature="0" />
</svg>
