<?xml version="1.0" encoding="UTF-8" standalone="no"?>
<svg
   xmlns:dc="http://purl.org/dc/elements/1.1/"
   xmlns:cc="http://creativecommons.org/ns#"
   xmlns:rdf="http://www.w3.org/1999/02/22-rdf-syntax-ns#"
   xmlns:svg="http://www.w3.org/2000/svg"
   xmlns="http://www.w3.org/2000/svg"
   xmlns:sodipodi="http://sodipodi.sourceforge.net/DTD/sodipodi-0.dtd"
   xmlns:inkscape="http://www.inkscape.org/namespaces/inkscape"
   width="512"
   height="512"
   viewBox="0 0 384 384"
   id="svg2"
   version="1.1"
   inkscape:version="0.48.5 r10040"
   sodipodi:docname="media-repeat-track-amarok.svg">
  <sodipodi:namedview
     pagecolor="#ffffff"
     bordercolor="#666666"
     borderopacity="1"
     objecttolerance="10"
     gridtolerance="10"
     guidetolerance="10"
     inkscape:pageopacity="0"
     inkscape:pageshadow="2"
     inkscape:window-width="1306"
     inkscape:window-height="715"
     id="namedview14"
     showgrid="false"
     inkscape:zoom="0.4609375"
     inkscape:cx="-11.932203"
     inkscape:cy="256"
     inkscape:window-x="56"
     inkscape:window-y="28"
     inkscape:window-maximized="1"
     inkscape:current-layer="svg2" />
  <metadata
     id="metadata18">
    <rdf:RDF>
      <cc:Work
         rdf:about="">
        <dc:format>image/svg+xml</dc:format>
        <dc:type
           rdf:resource="http://purl.org/dc/dcmitype/StillImage" />
      </cc:Work>
    </rdf:RDF>
  </metadata>
  <defs
     id="defs16">
    <clipPath
       clipPathUnits="userSpaceOnUse"
       id="clipPath3220">
      <path
         id="path3222"
         d="M 19.500003,9.0000002e-7 C 8.701983,9.0000002e-7 3e-6,8.7019869 3e-6,19.500001 L 3e-6,364.5 c 0,10.79801 8.70198,19.5 19.5,19.5 L 364.5,384 c 10.79801,0 19.5,-8.70199 19.5,-19.5 L 384,19.500001 C 384,8.7019869 375.29801,9.0000002e-7 364.5,9.0000002e-7 l -344.999997,0 z"
         style="fill:#6788cc;fill-opacity:1;stroke:none"
         inkscape:connector-curvature="0" />
    </clipPath>
  </defs>
  <path
     inkscape:connector-curvature="0"
     style="fill:#6788cc;fill-opacity:1;stroke:none"
     d="M 19.500003,9.0000002e-7 C 8.701983,9.0000002e-7 3e-6,8.7019869 3e-6,19.500001 L 3e-6,364.5 c 0,10.79801 8.70198,19.5 19.5,19.5 L 364.5,384 c 10.79801,0 19.5,-8.70199 19.5,-19.5 L 384,19.500001 C 384,8.7019869 375.29801,9.0000002e-7 364.5,9.0000002e-7 l -344.999997,0 z"
     id="rect2986" />
  <g
     style="fill:#000000;opacity:0.25"
     id="g3015"
     clip-path="url(#clipPath3220)">
    <path
       inkscape:connector-curvature="0"
       d="m 93.289339,60.367373 c -30.384249,0 -55.039341,24.632998 -55.039341,55.017247 L 427.15873,504.29335 c 0,-30.38425 24.65509,-55.01725 55.03934,-55.01725 z"
       id="path3017"
       style="fill:#000000" />
    <path
       inkscape:connector-curvature="0"
       d="m 38.249998,115.38462 0,109.5263 388.908732,388.90873 0,-109.5263 z"
       id="path3019"
       style="fill:#000000" />
    <path
       inkscape:connector-curvature="0"
       d="m 38.249998,224.91092 c 0,15.1866 6.159292,28.93644 16.114714,38.89186 L 443.27344,652.71151 c -9.95542,-9.95542 -16.11471,-23.70526 -16.11471,-38.89186 z"
       id="path3021"
       style="fill:#000000" />
    <path
       inkscape:connector-curvature="0"
       d="m 54.364712,263.80278 c 9.962663,9.96266 23.72698,16.12539 38.924627,16.12539 L 482.19807,668.8369 c -15.19765,0 -28.96197,-6.16273 -38.92463,-16.12539 z"
       id="path3023"
       style="fill:#000000" />
    <path
       inkscape:connector-curvature="0"
       d="m 93.289339,279.92817 33.408061,0 388.90873,388.90873 -33.40806,0 z"
       id="path3025"
       style="fill:#000000" />
    <path
       inkscape:connector-curvature="0"
       d="m 126.6974,279.92817 c -0.22814,-1.70164 -0.50819,-3.36927 -0.50819,-5.1482 L 515.09794,663.6887 c 0,1.77893 0.28005,3.44656 0.50819,5.1482 z"
       id="path3027"
       style="fill:#000000" />
    <path
       inkscape:connector-curvature="0"
       d="m 126.18921,274.77997 0,-39.06446 388.90873,388.90873 0,39.06446 z"
       id="path3029"
       style="fill:#000000" />
    <path
       inkscape:connector-curvature="0"
       d="m 126.18921,235.71551 -10.80459,0 388.90873,388.90873 10.80459,0 z"
       id="path3031"
       style="fill:#000000" />
    <path
       inkscape:connector-curvature="0"
       d="m 115.38462,235.71551 c -9.1107,0 -17.331222,-3.66793 -23.276292,-9.613 L 481.01706,615.01124 c 5.94507,5.94507 14.16559,9.613 23.27629,9.613 z"
       id="path3033"
       style="fill:#000000" />
    <path
       inkscape:connector-curvature="0"
       d="M 92.108328,226.10251 C 86.15605,220.15023 82.484747,211.91529 82.484747,202.79355 L 471.39348,591.70228 c 0,9.12174 3.6713,17.35668 9.62358,23.30896 z"
       id="path3035"
       style="fill:#000000" />
    <path
       inkscape:connector-curvature="0"
       d="m 82.484747,202.79355 0,-65.82184 388.908733,388.90873 0,65.82184 z"
       id="path3037"
       style="fill:#000000" />
    <path
       inkscape:connector-curvature="0"
       d="m 82.484747,136.97171 c 0,-18.23244 14.667434,-32.89987 32.899873,-32.89987 l 388.90873,388.90873 c -18.23244,0 -32.89987,14.66743 -32.89987,32.89987 z"
       id="path3039"
       style="fill:#000000" />
    <path
       inkscape:connector-curvature="0"
       d="m 115.38462,104.07184 153.25285,0 388.90873,388.90873 -153.25285,0 z"
       id="path3041"
       style="fill:#000000" />
    <path
       inkscape:connector-curvature="0"
       d="m 268.63747,104.07184 c 9.51258,0 18.05472,3.99265 24.04962,10.40113 L 681.59581,503.3817 c -5.99489,-6.40848 -14.53703,-10.40113 -24.04961,-10.40113 z"
       id="path3043"
       style="fill:#000000" />
    <path
       inkscape:connector-curvature="0"
       d="m 292.68709,114.47297 c 5.49532,5.87445 8.85025,13.77888 8.85025,22.49874 l 388.90873,388.90873 c 0,-8.71986 -3.35493,-16.62429 -8.85026,-22.49874 z"
       id="path3045"
       style="fill:#000000" />
    <path
       inkscape:connector-curvature="0"
       d="m 301.53734,136.97171 0,65.82184 388.90873,388.90873 0,-65.82184 z"
       id="path3047"
       style="fill:#000000" />
    <path
       inkscape:connector-curvature="0"
       d="m 301.53734,202.79355 c 0,18.23243 -14.66743,32.92196 -32.89987,32.92196 L 657.5462,624.62424 c 18.23244,0 32.89987,-14.68953 32.89987,-32.92196 z"
       id="path3049"
       style="fill:#000000" />
    <path
       inkscape:connector-curvature="0"
       d="m 268.63747,235.71551 -10.80459,0 388.90873,388.90873 10.80459,0 z"
       id="path3051"
       style="fill:#000000" />
    <path
       inkscape:connector-curvature="0"
       d="m 257.83288,235.71551 0,-43.70446 388.90873,388.90873 0,43.70446 z"
       id="path3053"
       style="fill:#000000" />
    <path
       inkscape:connector-curvature="0"
       d="m 257.83288,192.01105 -87.93921,65.79974 388.90873,388.90873 87.93921,-65.79974 z"
       id="path3055"
       style="fill:#000000" />
    <path
       inkscape:connector-curvature="0"
       d="m 169.89367,257.81079 87.93921,65.82184 388.90873,388.90873 -87.93921,-65.82184 z"
       id="path3057"
       style="fill:#000000" />
    <path
       inkscape:connector-curvature="0"
       d="m 257.83288,323.63263 0,-43.70446 388.90873,388.90873 0,43.70446 z"
       id="path3059"
       style="fill:#000000" />
    <path
       inkscape:connector-curvature="0"
       d="m 257.83288,279.92817 32.89987,0 388.90873,388.90873 -32.89987,0 z"
       id="path3061"
       style="fill:#000000" />
    <path
       inkscape:connector-curvature="0"
       d="m 290.73275,279.92817 c 30.38425,0 55.01725,-24.633 55.01725,-55.01725 l 388.90873,388.90873 c 0,30.38425 -24.633,55.01725 -55.01725,55.01725 z"
       id="path3063"
       style="fill:#000000" />
    <path
       inkscape:connector-curvature="0"
       d="m 345.75,224.91092 0,-109.5263 388.90873,388.90873 0,109.5263 z"
       id="path3065"
       style="fill:#000000" />
    <path
       inkscape:connector-curvature="0"
       d="m 345.75,115.38462 c 0,-15.19212 -6.15825,-28.946435 -16.11453,-38.902716 L 718.5442,465.39063 c 9.95628,9.95628 16.11453,23.7106 16.11453,38.90272 z"
       id="path3067"
       style="fill:#000000" />
    <path
       inkscape:connector-curvature="0"
       d="M 329.63547,76.481904 C 319.67919,66.525623 305.92488,60.367373 290.73275,60.367373 L 679.64148,449.2761 c 15.19213,0 28.94644,6.15825 38.90272,16.11453 z"
       id="path3069"
       style="fill:#000000" />
    <path
       inkscape:connector-curvature="0"
       d="m 290.73275,60.367373 -197.44341,0 388.90873,388.908727 197.44341,0 z"
       id="path3071"
       style="fill:#000000" />
    <path
       inkscape:connector-curvature="0"
       d="m 157.25517,119.03034 c -0.90974,0.15461 -1.97802,0.44479 -2.58515,0.59658 l 388.90873,388.90873 c 0.60713,-0.15179 1.67541,-0.44197 2.58515,-0.59658 z"
       id="path3073"
       style="fill:#000000" />
    <path
       inkscape:connector-curvature="0"
       d="m 154.67002,119.62692 c -13.93075,3.17795 -16.18511,3.63417 -22.69185,4.08762 L 520.8869,512.62327 c 6.50674,-0.45345 8.7611,-0.90967 22.69185,-4.08762 z"
       id="path3075"
       style="fill:#000000" />
    <path
       inkscape:connector-curvature="0"
       d="m 131.97817,123.71454 c -10.44547,0.60806 -10.45973,0.61867 -10.91507,0.61867 l 388.90873,388.90873 c 0.45534,0 0.4696,-0.0106 10.91507,-0.61867 z"
       id="path3077"
       style="fill:#000000" />
    <path
       inkscape:connector-curvature="0"
       d="m 121.0631,124.33321 c -0.60806,0 -1.34781,-6e-5 -2.40838,-0.15467 l 388.90873,388.90873 c 1.06057,0.15461 1.80032,0.15467 2.40838,0.15467 z"
       id="path3079"
       style="fill:#000000" />
    <path
       inkscape:connector-curvature="0"
       d="m 118.65472,124.17854 0,11.79888 388.90873,388.90873 0,-11.79888 z"
       id="path3081"
       style="fill:#000000" />
    <path
       inkscape:connector-curvature="0"
       d="m 118.65472,135.97742 2.12115,0.15467 388.90873,388.90873 -2.12115,-0.15467 z"
       id="path3083"
       style="fill:#000000" />
    <path
       inkscape:connector-curvature="0"
       d="m 120.77587,136.13209 c 9.55491,0.51259 13.82088,0.78878 15.72457,2.69247 l 388.90873,388.90873 c -1.90369,-1.90369 -6.16966,-2.17988 -15.72457,-2.69247 z"
       id="path3085"
       style="fill:#000000" />
    <path
       inkscape:connector-curvature="0"
       d="m 136.50044,138.82456 c 1.47494,1.47494 1.53184,3.92684 1.53184,8.2226 l 388.90873,388.90873 c 0,-4.29576 -0.0569,-6.74766 -1.53184,-8.2226 z"
       id="path3087"
       style="fill:#000000" />
    <path
       inkscape:connector-curvature="0"
       d="m 138.03228,147.04716 0,51.018 388.90873,388.90873 0,-51.018 z"
       id="path3089"
       style="fill:#000000" />
    <path
       inkscape:connector-curvature="0"
       d="m 138.03228,198.06516 c 0,9.0851 -1.51291,10.30299 -15.4446,11.35697 l 388.90873,388.90873 c 13.93169,-1.05398 15.4446,-2.27187 15.4446,-11.35697 z"
       id="path3091"
       style="fill:#000000" />
    <path
       inkscape:connector-curvature="0"
       d="m 122.58768,209.42213 -3.93296,0.30933 388.90873,388.90873 3.93296,-0.30933 z"
       id="path3093"
       style="fill:#000000" />
    <path
       inkscape:connector-curvature="0"
       d="m 118.65472,209.73146 0,12.41755 388.90873,388.90873 0,-12.41755 z"
       id="path3095"
       style="fill:#000000" />
    <path
       inkscape:connector-curvature="0"
       d="m 118.65472,222.14901 65.24736,0 388.90873,388.90873 -65.24736,0 z"
       id="path3097"
       style="fill:#000000" />
    <path
       inkscape:connector-curvature="0"
       d="m 183.90208,222.14901 0,-12.41755 388.90873,388.90873 0,12.41755 z"
       id="path3099"
       style="fill:#000000" />
    <path
       inkscape:connector-curvature="0"
       d="m 183.90208,209.73146 -3.46896,-0.30933 388.90873,388.90873 3.46896,0.30933 z"
       id="path3101"
       style="fill:#000000" />
    <path
       inkscape:connector-curvature="0"
       d="m 180.43312,209.42213 c -0.30168,0 -1.8233,-0.1585 -3.33639,-0.30933 l 388.90873,388.90873 c 1.51309,0.15083 3.03471,0.30933 3.33639,0.30933 z"
       id="path3103"
       style="fill:#000000" />
    <path
       inkscape:connector-curvature="0"
       d="m 177.09673,209.1128 c -5.56388,-0.39629 -8.75049,-1.04281 -10.52263,-2.81495 l 388.90873,388.90873 c 1.77214,1.77214 4.95874,2.41866 10.52263,2.81495 z"
       id="path3105"
       style="fill:#000000" />
    <path
       inkscape:connector-curvature="0"
       d="m 166.5741,206.29785 c -1.60466,-1.60467 -2.04958,-4.13226 -2.04958,-8.23269 l 388.90873,388.90873 c 0,4.10043 0.44492,6.62802 2.04958,8.23269 z"
       id="path3107"
       style="fill:#000000" />
    <path
       inkscape:connector-curvature="0"
       d="m 164.52452,198.06516 0,-79.03482 388.90873,388.90873 0,79.03482 z"
       id="path3109"
       style="fill:#000000" />
    <path
       inkscape:connector-curvature="0"
       d="m 164.52452,119.03034 -7.26935,0 388.90873,388.90873 7.26935,0 z"
       id="path3111"
       style="fill:#000000" />
  </g>
  <path
     style="fill:#ffffff"
     d="m 93.289339,60.367373 c -30.384249,0 -55.039341,24.632998 -55.039341,55.017247 l 0,109.5263 c 0,30.38425 24.655092,55.01725 55.039341,55.01725 l 33.408061,0 c -0.22814,-1.70164 -0.50819,-3.36927 -0.50819,-5.1482 l 0,-39.06446 -10.80459,0 c -18.232439,0 -32.899873,-14.68953 -32.899873,-32.92196 l 0,-65.82184 c 0,-18.23244 14.667434,-32.89987 32.899873,-32.89987 l 153.25285,0 c 18.23244,0 32.89987,14.66743 32.89987,32.89987 l 0,65.82184 c 0,18.23243 -14.66743,32.92196 -32.89987,32.92196 l -10.80459,0 0,-43.70446 -87.93921,65.79974 87.93921,65.82184 0,-43.70446 32.89987,0 c 30.38425,0 55.01725,-24.633 55.01725,-55.01725 l 0,-109.5263 c 0,-30.384249 -24.633,-55.017247 -55.01725,-55.017247 l -197.44341,0 z m 63.965831,58.662967 c -0.90974,0.15461 -1.97802,0.44479 -2.58515,0.59658 -13.93075,3.17795 -16.18511,3.63417 -22.69185,4.08762 -10.44547,0.60806 -10.45973,0.61867 -10.91507,0.61867 -0.60806,0 -1.34781,-6e-5 -2.40838,-0.15467 l 0,11.79888 2.12115,0.15467 c 16.95786,0.90974 17.25641,1.07483 17.25641,10.91507 l 0,51.018 c 0,9.0851 -1.51291,10.30299 -15.4446,11.35697 l -3.93296,0.30933 0,12.41755 65.24736,0 0,-12.41755 -3.46896,-0.30933 c -0.30168,0 -1.8233,-0.1585 -3.33639,-0.30933 -10.60196,-0.75513 -12.57221,-2.41882 -12.57221,-11.04764 l 0,-79.03482 -7.26935,0 z"
     id="path10"
     inkscape:connector-curvature="0" />
</svg>
