<?xml version="1.0" encoding="UTF-8" standalone="no"?>
<svg
   xmlns:dc="http://purl.org/dc/elements/1.1/"
   xmlns:cc="http://creativecommons.org/ns#"
   xmlns:rdf="http://www.w3.org/1999/02/22-rdf-syntax-ns#"
   xmlns:svg="http://www.w3.org/2000/svg"
   xmlns="http://www.w3.org/2000/svg"
   xmlns:sodipodi="http://sodipodi.sourceforge.net/DTD/sodipodi-0.dtd"
   xmlns:inkscape="http://www.inkscape.org/namespaces/inkscape"
   width="512"
   height="512"
   viewBox="0 0 384 384"
   id="svg2"
   version="1.1"
   inkscape:version="0.48.5 r10040"
   sodipodi:docname="media-optical-burn.svg">
  <sodipodi:namedview
     pagecolor="#ffffff"
     bordercolor="#666666"
     borderopacity="1"
     objecttolerance="10"
     gridtolerance="10"
     guidetolerance="10"
     inkscape:pageopacity="0"
     inkscape:pageshadow="2"
     inkscape:window-width="1306"
     inkscape:window-height="715"
     id="namedview14"
     showgrid="false"
     inkscape:zoom="0.4609375"
     inkscape:cx="239.72881"
     inkscape:cy="162.71186"
     inkscape:window-x="56"
     inkscape:window-y="28"
     inkscape:window-maximized="1"
     inkscape:current-layer="svg2" />
  <metadata
     id="metadata18">
    <rdf:RDF>
      <cc:Work
         rdf:about="">
        <dc:format>image/svg+xml</dc:format>
        <dc:type
           rdf:resource="http://purl.org/dc/dcmitype/StillImage" />
      </cc:Work>
    </rdf:RDF>
  </metadata>
  <defs
     id="defs16">
    <clipPath
       clipPathUnits="userSpaceOnUse"
       id="clipPath3100">
      <path
         id="path3102"
         d="M 26,6.6666671e-7 C 11.602653,6.6666671e-7 0,11.602654 0,26.000001 L 0,486 c 0,14.39735 11.602653,26 26,26 l 460,0 c 14.39735,0 26,-11.60265 26,-26 L 512,26 C 512,11.602654 500.39735,6.6666667e-7 486,6.6666667e-7 l -460,0 z"
         style="fill:#cd1d31;fill-opacity:1;stroke:none"
         inkscape:connector-curvature="0" />
    </clipPath>
  </defs>
  <path
     inkscape:connector-curvature="0"
     style="fill:#cd1d31;fill-opacity:1;stroke:none"
     d="M 19.5,5.0000003e-7 C 8.70199,5.0000003e-7 0,8.7019905 0,19.500001 L 0,364.5 C 0,375.29801 8.70199,384 19.5,384 l 345,0 c 10.79801,0 19.5,-8.70199 19.5,-19.5 l 0,-345 C 384,8.7019905 375.29801,5e-7 364.5,5e-7 l -345,0 z"
     id="rect2986" />
  <g
     style="fill:#000000;opacity:0.25"
     id="g3015"
     transform="scale(0.75,0.75)"
     clip-path="url(#clipPath3100)">
    <path
       inkscape:connector-curvature="0"
       d="M 256.03125,56 C 145.54318,56 56,145.52366 56,255.96875 l 388.90873,388.90873 c 0,-110.44509 89.54318,-199.96875 200.03125,-199.96875 z"
       id="path3017"
       style="fill:#000000" />
    <path
       inkscape:connector-curvature="0"
       d="m 56,255.96875 c 0,55.23686 22.389381,105.24467 58.58798,141.44327 l 388.90873,388.90873 c -36.1986,-36.1986 -58.58798,-86.20641 -58.58798,-141.44327 z"
       id="path3019"
       style="fill:#000000" />
    <path
       inkscape:connector-curvature="0"
       d="M 114.58798,397.41202 C 150.78657,433.61062 200.79439,456 256.03125,456 l 388.90873,388.90873 c -55.23686,0 -105.24468,-22.38938 -141.44327,-58.58798 z"
       id="path3021"
       style="fill:#000000" />
    <path
       inkscape:connector-curvature="0"
       d="M 256.03125,456 C 366.47633,456 456,366.42815 456,255.96875 l 388.90873,388.90873 c 0,110.4594 -89.52367,200.03125 -199.96875,200.03125 z"
       id="path3023"
       style="fill:#000000" />
    <path
       inkscape:connector-curvature="0"
       d="M 456,255.96875 C 456,200.74621 433.61908,150.75402 397.43253,114.56747 L 786.34126,503.4762 c 36.18655,36.18655 58.56747,86.17874 58.56747,141.40128 z"
       id="path3025"
       style="fill:#000000" />
    <path
       inkscape:connector-curvature="0"
       d="M 397.43253,114.56747 C 361.24598,78.380916 311.25379,56 256.03125,56 l 388.90873,388.90873 c 55.22254,0 105.21473,22.38092 141.40128,58.56747 z"
       id="path3027"
       style="fill:#000000" />
    <path
       inkscape:connector-curvature="0"
       d="m 256.03125,188.40625 c 18.64325,0 35.53533,7.56777 47.76587,19.79831 l 388.90873,388.90873 c -12.23054,-12.23054 -29.12262,-19.79831 -47.76587,-19.79831 z"
       id="path3029"
       style="fill:#000000" />
    <path
       inkscape:connector-curvature="0"
       d="m 303.79712,208.20456 c 12.22819,12.22819 19.79663,29.11736 19.79663,47.76419 l 388.90873,388.90873 c 0,-18.64683 -7.56844,-35.536 -19.79663,-47.76419 z"
       id="path3031"
       style="fill:#000000" />
    <path
       inkscape:connector-curvature="0"
       d="m 323.59375,255.96875 c 0,37.32588 -30.29391,67.59375 -67.5625,67.59375 l 388.90873,388.90873 c 37.26859,0 67.5625,-30.26787 67.5625,-67.59375 z"
       id="path3033"
       style="fill:#000000" />
    <path
       inkscape:connector-curvature="0"
       d="m 256.03125,323.5625 c -18.65757,0 -35.55746,-7.56842 -47.79223,-19.80319 l 388.90873,388.90873 c 12.23477,12.23477 29.13466,19.80319 47.79223,19.80319 z"
       id="path3035"
       style="fill:#000000" />
    <path
       inkscape:connector-curvature="0"
       d="M 208.23902,303.75931 C 196.00659,291.52689 188.4375,274.6299 188.4375,255.96875 l 388.90873,388.90873 c 0,18.66115 7.56909,35.55814 19.80152,47.79056 z"
       id="path3037"
       style="fill:#000000" />
    <path
       inkscape:connector-curvature="0"
       d="m 188.4375,255.96875 c 0,-37.29724 30.28218,-67.5625 67.59375,-67.5625 l 388.90873,388.90873 c -37.31157,0 -67.59375,30.26526 -67.59375,67.5625 z"
       id="path3039"
       style="fill:#000000" />
    <path
       inkscape:connector-curvature="0"
       d="m 256,236.03125 c -10.98865,0 -20.03125,8.96696 -20.03125,20 l 388.90873,388.90873 c 0,-11.03304 9.0426,-20 20.03125,-20 z"
       id="path3041"
       style="fill:#000000" />
    <path
       inkscape:connector-curvature="0"
       d="m 235.96875,256.03125 c 0,5.47089 2.2414,10.43617 5.84845,14.04321 l 388.90873,388.90873 c -3.60705,-3.60704 -5.84845,-8.57232 -5.84845,-14.04321 z"
       id="path3043"
       style="fill:#000000" />
    <path
       inkscape:connector-curvature="0"
       d="m 241.8172,270.07446 c 3.63795,3.63795 8.66504,5.89429 14.1828,5.89429 l 388.90873,388.90873 c -5.51776,0 -10.54485,-2.25634 -14.1828,-5.89429 z"
       id="path3045"
       style="fill:#000000" />
    <path
       inkscape:connector-curvature="0"
       d="m 256,275.96875 c 11.03304,0 20,-8.94885 20,-19.9375 l 388.90873,388.90873 c 0,10.98865 -8.96696,19.9375 -20,19.9375 z"
       id="path3047"
       style="fill:#000000" />
    <path
       inkscape:connector-curvature="0"
       d="m 276,256.03125 c 0,-5.74323 -2.42978,-10.92661 -6.31595,-14.57675 l 388.90873,388.90873 c 3.88617,3.65014 6.31595,8.83352 6.31595,14.57675 z"
       id="path3049"
       style="fill:#000000" />
    <path
       inkscape:connector-curvature="0"
       d="M 269.68405,241.4545 C 266.10469,238.09252 261.28981,236.03125 256,236.03125 l 388.90873,388.90873 c 5.28981,0 10.10469,2.06127 13.68405,5.42325 z"
       id="path3051"
       style="fill:#000000" />
  </g>
  <path
     inkscape:connector-curvature="0"
     style="fill:#ffffff"
     d="M 192.02344,42 C 109.15739,42 42,109.14275 42,191.97656 42,274.83185 109.16814,342 192.02344,342 274.85725,342 342,274.82111 342,191.97656 342,109.14275 274.85725,42 192.02344,42 z m 0,99.30469 c 27.96218,0 50.67187,22.69894 50.67187,50.67187 0,27.99441 -22.72043,50.69531 -50.67187,50.69531 -27.98368,0 -50.69532,-22.7009 -50.69532,-50.69531 0,-27.97293 22.71164,-50.67187 50.69532,-50.67187 z M 192,177.02344 c -8.24149,0 -15.02344,6.72522 -15.02344,15 0,8.24148 6.78195,14.95312 15.02344,14.95312 8.27478,0 15,-6.71164 15,-14.95312 0,-8.27478 -6.72522,-15 -15,-15 z"
     id="path10" />
</svg>
