<?xml version="1.0" encoding="UTF-8" standalone="no"?>
<svg
   xmlns:dc="http://purl.org/dc/elements/1.1/"
   xmlns:cc="http://creativecommons.org/ns#"
   xmlns:rdf="http://www.w3.org/1999/02/22-rdf-syntax-ns#"
   xmlns:svg="http://www.w3.org/2000/svg"
   xmlns="http://www.w3.org/2000/svg"
   xmlns:sodipodi="http://sodipodi.sourceforge.net/DTD/sodipodi-0.dtd"
   xmlns:inkscape="http://www.inkscape.org/namespaces/inkscape"
   viewBox="0 0 512 512"
   id="svg2"
   version="1.1"
   inkscape:version="0.48.5 r10040"
   width="100%"
   height="100%"
   sodipodi:docname="mixer-headset.svg">
  <sodipodi:namedview
     pagecolor="#ffffff"
     bordercolor="#666666"
     borderopacity="1"
     objecttolerance="10"
     gridtolerance="10"
     guidetolerance="10"
     inkscape:pageopacity="0"
     inkscape:pageshadow="2"
     inkscape:window-width="1306"
     inkscape:window-height="715"
     id="namedview100"
     showgrid="false"
     inkscape:zoom="0.4609375"
     inkscape:cx="-11.932203"
     inkscape:cy="256"
     inkscape:window-x="56"
     inkscape:window-y="28"
     inkscape:window-maximized="1"
     inkscape:current-layer="svg2" />
  <metadata
     id="metadata104">
    <rdf:RDF>
      <cc:Work
         rdf:about="">
        <dc:format>image/svg+xml</dc:format>
        <dc:type
           rdf:resource="http://purl.org/dc/dcmitype/StillImage" />
      </cc:Work>
    </rdf:RDF>
  </metadata>
  <defs
     id="defs102">
    <clipPath
       clipPathUnits="userSpaceOnUse"
       id="clipPath3395">
      <path
         id="path3397"
         d="M 26.000003,2e-6 C 11.602653,2e-6 2.5000001e-6,11.60265 2.5000001e-6,26.000002 l 0,459.999998 C 2.5000001e-6,500.39735 11.602653,512 26.000003,512 L 486,512 c 14.39735,0 26,-11.60265 26,-26 l 0,-459.999998 c 0,-14.397352 -11.60265,-26 -26,-26 l -459.999997,0 z"
         style="fill:#b93d48;fill-opacity:1;stroke:none"
         inkscape:connector-curvature="0" />
    </clipPath>
  </defs>
  <path
     inkscape:connector-curvature="0"
     style="fill:#b93d48;fill-opacity:1;stroke:none"
     d="M 26.000003,2e-6 C 11.602653,2e-6 2.5000001e-6,11.60265 2.5000001e-6,26.000002 l 0,459.999998 C 2.5000001e-6,500.39735 11.602653,512 26.000003,512 L 486,512 c 14.39735,0 26,-11.60265 26,-26 l 0,-459.999998 c 0,-14.397352 -11.60265,-26 -26,-26 l -459.999997,0 z"
     id="rect2986" />
  <text
     x="-27092.145"
     y="1346.08"
     word-spacing="0"
     line-height="125%"
     letter-spacing="0"
     font-size="208.33"
     id="text10"
     sodipodi:linespacing="125%"
     style="font-size:4848.18701172px;line-height:125%;letter-spacing:0;word-spacing:0;font-family:Gentium Book Basic">
    <tspan
       x="-27092.145"
       y="1346.08"
       id="tspan12" />
  </text>
  <text
     x="642.56726"
     y="-7697.8457"
     font-size="75.7"
     transform="scale(4.0128205,0.24920128)"
     id="text14"
     style="font-size:1761.65637207px;text-anchor:middle;font-family:Arial" />
  <text
     x="-27226.885"
     y="2258.0967"
     word-spacing="0"
     line-height="125%"
     letter-spacing="0"
     font-size="208.33"
     id="text16"
     sodipodi:linespacing="125%"
     style="font-size:4848.18701172px;line-height:125%;letter-spacing:0;word-spacing:0;font-family:Gentium Book Basic">
    <tspan
       x="-27226.885"
       y="2258.0967"
       id="tspan18" />
  </text>
  <text
     x="609.03296"
     y="-4038.1619"
     font-size="75.7"
     transform="scale(4.0128205,0.24920128)"
     id="text20"
     style="font-size:1761.65637207px;text-anchor:middle;font-family:Arial" />
  <text
     style="font-size:2975.96899414px;line-height:125%;letter-spacing:0;word-spacing:0;fill:#555753;font-family:Gentium Book Basic"
     sodipodi:linespacing="125%"
     id="text24"
     font-size="127.88"
     letter-spacing="0"
     line-height="125%"
     word-spacing="0"
     y="-4789.832"
     x="-12765.402"
     transform="scale(1.0508243,0.95163388)">
    <tspan
       id="tspan26"
       y="-4789.832"
       x="-12765.402" />
  </text>
  <text
     style="font-size:1081.44091797px;text-anchor:middle;fill:#555753;font-family:Arial"
     id="text28"
     transform="scale(4.2167652,0.23714861)"
     font-size="46.47"
     y="-27261.658"
     x="1357.5544" />
  <text
     style="font-size:1593.17199707px;line-height:125%;letter-spacing:0;word-spacing:0;fill:#555753;font-family:Gentium Book Basic"
     sodipodi:linespacing="125%"
     id="text30"
     font-size="68.46"
     letter-spacing="0"
     line-height="125%"
     word-spacing="0"
     y="-5614.8091"
     x="-3362.9878"
     transform="scale(1.0508243,0.95163388)">
    <tspan
       id="tspan32"
       y="-5614.8091"
       x="-3362.9878" />
  </text>
  <text
     style="font-size:578.86291504px;text-anchor:middle;fill:#555753;font-family:Arial"
     id="text34"
     transform="scale(4.2167652,0.23714861)"
     font-size="24.874"
     y="-26835.553"
     x="1591.6456" />
  <text
     style="font-size:4654.33398438px;line-height:125%;letter-spacing:0;word-spacing:0;fill:#555753;font-family:Gentium Book Basic"
     sodipodi:linespacing="125%"
     id="text36"
     font-size="200"
     letter-spacing="0"
     line-height="125%"
     word-spacing="0"
     y="-1767.4366"
     x="-39426.129">
    <tspan
       id="tspan38"
       y="-1767.4366"
       x="-39426.129" />
  </text>
  <text
     style="font-size:1691.14355469px;text-anchor:middle;fill:#555753;font-family:Arial"
     id="text40"
     transform="scale(4.0128205,0.24920128)"
     font-size="72.67"
     y="-19667.336"
     x="-2726.688" />
  <text
     style="font-size:4848.18701172px;line-height:125%;letter-spacing:0;word-spacing:0;fill:#000000;stroke:#cd1d31;stroke-width:23.27166939;font-family:Gentium Book Basic"
     sodipodi:linespacing="125%"
     id="text44"
     font-size="208.33"
     letter-spacing="0"
     line-height="125%"
     word-spacing="0"
     y="-13993.441"
     x="-25243.674">
    <tspan
       style="stroke-width:23.27166939"
       id="tspan46"
       y="-13993.441"
       x="-25243.674" />
  </text>
  <text
     style="font-size:1761.65637207px;text-anchor:middle;fill:#000000;stroke:none;font-family:Arial"
     id="text48"
     transform="scale(4.0128205,0.24920128)"
     font-size="75.7"
     y="-69252.727"
     x="1103.344" />
  <text
     style="font-size:4848.18701172px;line-height:125%;letter-spacing:0;word-spacing:0;fill:#000000;stroke:#cd1d31;stroke-width:23.27166939;font-family:Gentium Book Basic"
     sodipodi:linespacing="125%"
     id="text50"
     font-size="208.33"
     letter-spacing="0"
     line-height="125%"
     word-spacing="0"
     y="-13081.425"
     x="-25378.65">
    <tspan
       style="stroke-width:23.27166939"
       id="tspan52"
       y="-13081.425"
       x="-25378.65" />
  </text>
  <text
     style="font-size:1761.65637207px;text-anchor:middle;fill:#000000;stroke:none;font-family:Arial"
     id="text54"
     transform="scale(4.0128205,0.24920128)"
     font-size="75.7"
     y="-65592.812"
     x="1069.67" />
  <g
     transform="matrix(23.27167,0,0,23.27167,34.711864,-39.049847)"
     style="fill:#555753;stroke:#cd1d31"
     id="g58">
    <text
       style="font-size:127.87999725px;line-height:125%;letter-spacing:0;word-spacing:0;font-family:Gentium Book Basic"
       sodipodi:linespacing="125%"
       id="text60"
       font-size="127.88"
       letter-spacing="0"
       line-height="125%"
       word-spacing="0"
       y="-896.71002"
       x="-474.37"
       transform="scale(1.05082,0.95163)">
      <tspan
         id="tspan62"
         y="-896.71002"
         x="-474.37" />
    </text>
    <text
       style="font-size:46.47000122px;text-anchor:middle;font-family:Arial"
       id="text64"
       transform="scale(4.21679,0.23715)"
       font-size="46.47"
       y="-3943.8701"
       x="76.82" />
    <text
       style="font-size:68.45999908px;line-height:125%;letter-spacing:0;word-spacing:0;font-family:Gentium Book Basic"
       sodipodi:linespacing="125%"
       id="text66"
       font-size="68.46"
       letter-spacing="0"
       line-height="125%"
       word-spacing="0"
       y="-932.15997"
       x="-70.349998"
       transform="scale(1.05082,0.95163)">
      <tspan
         id="tspan68"
         y="-932.15997"
         x="-70.349998" />
    </text>
    <text
       style="font-size:24.87400055px;text-anchor:middle;font-family:Arial"
       id="text70"
       transform="scale(4.21679,0.23715)"
       font-size="24.874"
       y="-3925.5601"
       x="86.870003" />
    <text
       style="font-size:200px;line-height:125%;letter-spacing:0;word-spacing:0;font-family:Gentium Book Basic"
       sodipodi:linespacing="125%"
       id="text72"
       font-size="200"
       letter-spacing="0"
       line-height="125%"
       word-spacing="0"
       y="-733.41998"
       x="-1616.23">
      <tspan
         id="tspan74"
         y="-733.41998"
         x="-1616.23" />
    </text>
  </g>
  <text
     style="font-size:1691.14355469px;text-anchor:middle;fill:#555753;stroke:none;font-family:Arial"
     id="text76"
     transform="scale(4.0128205,0.24920128)"
     font-size="72.67"
     y="-81222.219"
     x="-2266.1438" />
  <text
     style="font-size:4654.33398438px;line-height:125%;letter-spacing:0;word-spacing:0;fill:#000000;stroke:#cd1d31;stroke-width:23.27166939;font-family:Gentium Book Basic"
     sodipodi:linespacing="125%"
     id="text80"
     font-size="200"
     letter-spacing="0"
     line-height="125%"
     word-spacing="0"
     y="-20682.65"
     x="-8268.6201">
    <tspan
       style="stroke-width:23.27166939"
       id="tspan82"
       y="-20682.65"
       x="-8268.6201" />
  </text>
  <text
     style="font-size:1691.14355469px;text-anchor:middle;fill:#000000;stroke:none;font-family:Arial"
     id="text84"
     transform="scale(4.0128205,0.24920128)"
     font-size="72.67"
     y="-95570.75"
     x="5037.6323" />
  <text
     style="font-size:4654.33398438px;line-height:125%;letter-spacing:0;word-spacing:0;fill:#000000;stroke:#cd1d31;stroke-width:23.27166939;font-family:Gentium Book Basic"
     sodipodi:linespacing="125%"
     id="text86"
     font-size="200"
     letter-spacing="0"
     line-height="125%"
     word-spacing="0"
     y="-23564.148"
     x="12667.04">
    <tspan
       style="stroke-width:23.27166939"
       id="tspan88"
       y="-23564.148"
       x="12667.04" />
  </text>
  <text
     style="font-size:1691.14355469px;text-anchor:middle;fill:#000000;stroke:none;font-family:Arial"
     id="text90"
     transform="scale(4.0128205,0.24920128)"
     font-size="72.67"
     y="-107133.46"
     x="10254.882" />
  <g
     style="fill:#000000;opacity:0.25"
     id="g3217"
     clip-path="url(#clipPath3395)">
    <path
       inkscape:connector-curvature="0"
       d="M 255.907,71.304703 C 142.91776,71.829246 51,164.1925 51,277.17269 l 388.90873,388.90873 c 0,-112.98019 91.91776,-205.34344 204.907,-205.86799 z"
       id="path3219"
       style="fill:#000000" />
    <path
       inkscape:connector-curvature="0"
       d="m 51,277.17269 c 0,34.31234 8.594029,68.12484 24.86164,98.08257 l 388.90873,388.90873 c -16.26761,-29.95773 -24.86164,-63.77023 -24.86164,-98.08257 z"
       id="path3221"
       style="fill:#000000" />
    <path
       inkscape:connector-curvature="0"
       d="m 75.86164,375.25526 0,-54.40421 388.90873,388.90873 0,54.40421 z"
       id="path3223"
       style="fill:#000000" />
    <path
       inkscape:connector-curvature="0"
       d="m 75.86164,320.85105 c 0,-10.03188 3.56852,-19.33393 9.82685,-27.3106 l 388.90873,388.90873 c -6.25833,7.97667 -9.82685,17.27872 -9.82685,27.3106 z"
       id="path3225"
       style="fill:#000000" />
    <path
       inkscape:connector-curvature="0"
       d="M 85.68849,293.54045 C 85.17074,288.11189 84.9135,282.651 84.9135,277.17269 l 388.90873,388.90873 c 0,5.47831 0.25724,10.9392 0.77499,16.36776 z"
       id="path3227"
       style="fill:#000000" />
    <path
       inkscape:connector-curvature="0"
       d="m 84.9135,277.17269 c 0,-94.37249 76.77702,-171.5136 170.9935,-171.95448 l 388.90873,388.90873 c -94.21648,0.44088 -170.9935,77.58199 -170.9935,171.95448 z"
       id="path3229"
       style="fill:#000000" />
    <path
       inkscape:connector-curvature="0"
       d="m 255.907,105.21821 c 47.04065,0.2175 89.70745,19.49232 120.67397,50.45884 L 765.4897,544.58578 C 734.52318,513.61926 691.85637,494.34444 644.81573,494.12694 z"
       id="path3231"
       style="fill:#000000" />
    <path
       inkscape:connector-curvature="0"
       d="m 376.58097,155.67705 c 31.16119,31.16119 50.47453,74.16154 50.47453,121.49564 l 388.90873,388.90873 c 0,-47.3341 -19.31334,-90.33445 -50.47453,-121.49564 z"
       id="path3233"
       style="fill:#000000" />
    <path
       inkscape:connector-curvature="0"
       d="m 427.0555,277.17269 c 0,6.06616 -0.32566,12.10541 -0.96099,18.10374 l 388.90873,388.90873 c 0.63533,-5.99833 0.96099,-12.03758 0.96099,-18.10374 z"
       id="path3235"
       style="fill:#000000" />
    <path
       inkscape:connector-curvature="0"
       d="m 426.09451,295.27643 c 5.43987,7.57874 8.52488,16.26851 8.52488,25.57462 l 388.90873,388.90873 c 0,-9.30611 -3.08501,-17.99588 -8.52488,-25.57462 z"
       id="path3237"
       style="fill:#000000" />
    <path
       inkscape:connector-curvature="0"
       d="m 434.61939,320.85105 0,57.16317 388.90873,388.90873 0,-57.16317 z"
       id="path3239"
       style="fill:#000000" />
    <path
       inkscape:connector-curvature="0"
       d="M 434.61939,378.01422 C 451.87277,347.3669 461,312.50763 461,277.14169 l 388.90873,388.90873 c 0,35.36594 -9.12723,70.22521 -26.38061,100.87253 z"
       id="path3241"
       style="fill:#000000" />
    <path
       inkscape:connector-curvature="0"
       d="m 461,277.14169 c 0,-56.63336 -23.1024,-108.0778 -60.39617,-145.37158 l 388.90873,388.90873 c 37.29377,37.29378 60.39617,88.73822 60.39617,145.37158 z"
       id="path3243"
       style="fill:#000000" />
    <path
       inkscape:connector-curvature="0"
       d="M 400.60383,131.77011 C 363.49576,94.662044 312.33729,71.564064 255.907,71.304703 L 644.81573,460.21343 c 56.43029,0.25936 107.58876,23.35734 144.69683,60.46541 z"
       id="path3245"
       style="fill:#000000" />
    <path
       inkscape:connector-curvature="0"
       d="m 150.26055,277.88568 c -30.43027,0 -55.81995,14.6562 -61.7821,34.1615 l 388.90873,388.90873 c 5.96215,-19.5053 31.35183,-34.1615 61.7821,-34.1615 z"
       id="path3247"
       style="fill:#000000" />
    <path
       inkscape:connector-curvature="0"
       d="m 88.47845,312.04718 c -0.86594,2.83751 -1.30198,5.79001 -1.30198,8.80387 L 476.0852,709.75978 c 0,-3.01386 0.43604,-5.96636 1.30198,-8.80387 z"
       id="path3249"
       style="fill:#000000" />
    <path
       inkscape:connector-curvature="0"
       d="m 87.17647,320.85105 0,52.45124 388.90873,388.90873 0,-52.45124 z"
       id="path3251"
       style="fill:#000000" />
    <path
       inkscape:connector-curvature="0"
       d="m 87.17647,373.30229 0,24.42764 388.90873,388.90873 0,-24.42764 z"
       id="path3253"
       style="fill:#000000" />
    <path
       inkscape:connector-curvature="0"
       d="m 87.17647,397.72993 c 0,8.95125 4.018321,17.25987 10.894969,24.13652 L 486.98017,810.77518 c -6.87665,-6.87665 -10.89497,-15.18527 -10.89497,-24.13652 z"
       id="path3255"
       style="fill:#000000" />
    <path
       inkscape:connector-curvature="0"
       d="m 98.071439,421.86645 c 11.349111,11.34911 30.483641,18.79785 52.189111,18.79785 l 388.90873,388.90873 c -21.70547,0 -40.84,-7.44874 -52.18911,-18.79785 z"
       id="path3257"
       style="fill:#000000" />
    <path
       inkscape:connector-curvature="0"
       d="m 150.26055,440.6643 26.59761,0 388.90873,388.90873 -26.59761,0 z"
       id="path3259"
       style="fill:#000000" />
    <path
       inkscape:connector-curvature="0"
       d="m 176.85816,440.6643 0,-162.77862 388.90873,388.90873 0,162.77862 z"
       id="path3261"
       style="fill:#000000" />
    <path
       inkscape:connector-curvature="0"
       d="m 176.85816,277.88568 -26.59761,0 388.90873,388.90873 26.59761,0 z"
       id="path3263"
       style="fill:#000000" />
    <path
       inkscape:connector-curvature="0"
       d="m 333.59186,277.88568 0,162.80962 388.90873,388.90873 0,-162.80962 z"
       id="path3265"
       style="fill:#000000" />
    <path
       inkscape:connector-curvature="0"
       d="m 333.59186,440.6953 26.59762,0 388.90873,388.90873 -26.59762,0 z"
       id="path3267"
       style="fill:#000000" />
    <path
       inkscape:connector-curvature="0"
       d="m 360.18948,440.6953 c 34.85722,0 63.11507,-19.24111 63.11507,-42.96537 l 388.90873,388.90873 c 0,23.72426 -28.25785,42.96537 -63.11507,42.96537 z"
       id="path3269"
       style="fill:#000000" />
    <path
       inkscape:connector-curvature="0"
       d="m 423.30455,397.72993 0,-25.26463 388.90873,388.90873 0,25.26463 z"
       id="path3271"
       style="fill:#000000" />
    <path
       inkscape:connector-curvature="0"
       d="m 423.30455,372.4653 0,-51.61425 388.90873,388.90873 0,51.61425 z"
       id="path3273"
       style="fill:#000000" />
    <path
       inkscape:connector-curvature="0"
       d="m 423.30455,320.85105 c 0,-1.85172 -0.19237,-3.66523 -0.52699,-5.45592 l 388.90873,388.90873 c 0.33462,1.79069 0.52699,3.6042 0.52699,5.45592 z"
       id="path3275"
       style="fill:#000000" />
    <path
       inkscape:connector-curvature="0"
       d="m 422.77756,315.39513 c -1.28163,-6.86864 -4.9441,-13.23293 -10.40691,-18.69575 l 388.90873,388.90873 c 5.46281,5.46282 9.12528,11.82711 10.40691,18.69575 z"
       id="path3277"
       style="fill:#000000" />
    <path
       inkscape:connector-curvature="0"
       d="m 412.37065,296.69938 c -11.35396,-11.35395 -30.48498,-18.8137 -52.18117,-18.8137 l 388.90873,388.90873 c 21.69619,0 40.82721,7.45975 52.18117,18.8137 z"
       id="path3279"
       style="fill:#000000" />
    <path
       inkscape:connector-curvature="0"
       d="m 360.18948,277.88568 -26.59762,0 388.90873,388.90873 26.59762,0 z"
       id="path3281"
       style="fill:#000000" />
  </g>
  <path
     style="fill:#ffffff"
     d="M 255.907,71.304703 C 142.91776,71.829246 51,164.1925 51,277.17269 c 0,34.31234 8.594029,68.12484 24.86164,98.08257 l 0,-54.40421 c 0,-10.03188 3.56852,-19.33393 9.82685,-27.3106 -0.51775,-5.42856 -0.77499,-10.88945 -0.77499,-16.36776 0,-94.37249 76.77702,-171.5136 170.9935,-171.95448 94.37701,0.43636 171.1485,77.58199 171.1485,171.95448 0,6.06616 -0.32566,12.10541 -0.96099,18.10374 5.43987,7.57874 8.52488,16.26851 8.52488,25.57462 l 0,57.16317 C 451.87277,347.3669 461,312.50763 461,277.14169 461,164.15697 369.04999,71.824723 255.907,71.304703 z M 150.26055,277.88568 c -30.43027,0 -55.81995,14.6562 -61.7821,34.1615 -0.86594,2.83751 -1.30198,5.79001 -1.30198,8.80387 l 0,52.45124 0,24.42764 c 0,23.72425 28.22685,42.93437 63.08408,42.93437 l 26.59761,0 0,-162.77862 -26.59761,0 z m 183.33131,0 0,162.80962 26.59762,0 c 34.85722,0 63.11507,-19.24111 63.11507,-42.96537 l 0,-25.26463 0,-51.61425 c 0,-1.85172 -0.19237,-3.66523 -0.52699,-5.45592 -3.94538,-21.14449 -30.45305,-37.50945 -62.58808,-37.50945 l -26.59762,0 z"
     id="path94"
     inkscape:connector-curvature="0" />
</svg>
