<?xml version="1.0" encoding="UTF-8" standalone="no"?>
<svg
   xmlns:dc="http://purl.org/dc/elements/1.1/"
   xmlns:cc="http://creativecommons.org/ns#"
   xmlns:rdf="http://www.w3.org/1999/02/22-rdf-syntax-ns#"
   xmlns:svg="http://www.w3.org/2000/svg"
   xmlns="http://www.w3.org/2000/svg"
   xmlns:sodipodi="http://sodipodi.sourceforge.net/DTD/sodipodi-0.dtd"
   xmlns:inkscape="http://www.inkscape.org/namespaces/inkscape"
   sodipodi:docname="text-speak.svg"
   height="100%"
   width="100%"
   inkscape:version="0.48.5 r10040"
   version="1.1"
   id="svg2"
   viewBox="0 0 512 512">
  <sodipodi:namedview
     pagecolor="#ffffff"
     bordercolor="#666666"
     borderopacity="1"
     objecttolerance="10"
     gridtolerance="10"
     guidetolerance="10"
     inkscape:pageopacity="0"
     inkscape:pageshadow="2"
     inkscape:window-width="1306"
     inkscape:window-height="715"
     id="namedview6"
     showgrid="false"
     showguides="true"
     inkscape:guide-bbox="true"
     inkscape:zoom="0.4609375"
     inkscape:cx="83.015858"
     inkscape:cy="160.50778"
     inkscape:window-x="56"
     inkscape:window-y="28"
     inkscape:window-maximized="1"
     inkscape:current-layer="svg2">
    <sodipodi:guide
       id="guide2989"
       position="260.08346,471.00503"
       orientation="0,1" />
    <sodipodi:guide
       id="guide2991"
       position="267.59322,40.983051"
       orientation="0,1" />
    <sodipodi:guide
       id="guide2993"
       position="40.940284,84.756935"
       orientation="1,0" />
    <sodipodi:guide
       id="guide2995"
       position="471.05085,254.98305"
       orientation="1,0" />
  </sodipodi:namedview>
  <metadata
     id="metadata10">
    <rdf:RDF>
      <cc:Work
         rdf:about="">
        <dc:format>image/svg+xml</dc:format>
        <dc:type
           rdf:resource="http://purl.org/dc/dcmitype/StillImage" />
        <dc:title />
      </cc:Work>
    </rdf:RDF>
  </metadata>
  <defs
     id="defs8">
    <clipPath
       clipPathUnits="userSpaceOnUse"
       id="clipPath3394">
      <path
         style="fill:#0078ad;fill-opacity:1;stroke:none"
         d="M 26,0 C 11.602648,0 0,11.602648 0,26 l 0,460 c 0,14.39735 11.602648,26 26,26 l 460,0 c 14.39735,0 26,-11.60265 26,-26 L 512,26 C 512,11.602648 500.39735,0 486,0 L 26,0 z"
         id="path3396"
         inkscape:connector-curvature="0" />
    </clipPath>
  </defs>
  <path
     id="rect2986"
     d="M 26 0 C 11.602648 0 0 11.602648 0 26 L 0 486 C 0 500.39735 11.602648 512 26 512 L 486 512 C 500.39735 512 512 500.39735 512 486 L 512 26 C 512 11.602648 500.39735 0 486 0 L 26 0 z "
     style="fill:#0078ad;fill-opacity:1;stroke:none" />
  <text
     id="text3006"
     font-size="129.23"
     letter-spacing="0"
     line-height="125%"
     word-spacing="0"
     x="-32.600536"
     y="251.32993"
     sodipodi:linespacing="125%"
     style="font-size:129.22999573px;line-height:125%;letter-spacing:0;word-spacing:0;font-family:Gentium Book Basic">
    <tspan
       id="tspan3008"
       x="-32.600536"
       y="251.32993" />
  </text>
  <text
     id="text3010"
     x="188.95674"
     y="659.39392"
     font-size="46.954"
     transform="scale(4.0128205,0.24920128)"
     style="font-size:46.95375824px;text-anchor:middle;font-family:Arial" />
  <text
     id="text3012"
     font-size="129.23"
     letter-spacing="0"
     line-height="125%"
     word-spacing="0"
     x="548.66949"
     y="171.32993"
     sodipodi:linespacing="125%"
     style="font-size:129.22999573px;line-height:125%;letter-spacing:0;word-spacing:0;font-family:Gentium Book Basic">
    <tspan
       id="tspan3014"
       x="548.66949"
       y="171.32993" />
  </text>
  <text
     id="text3016"
     x="333.806"
     y="338.35577"
     font-size="46.954"
     transform="scale(4.0128205,0.24920128)"
     style="font-size:46.95375824px;text-anchor:middle;font-family:Arial" />
  <text
     id="text3018"
     font-size="129.23"
     letter-spacing="0"
     line-height="125%"
     word-spacing="0"
     x="-522.91052"
     y="-9.9300585"
     sodipodi:linespacing="125%"
     style="font-size:129.22999573px;line-height:125%;letter-spacing:0;word-spacing:0;font-family:Gentium Book Basic">
    <tspan
       id="tspan3020"
       x="-522.91052"
       y="-9.9300585" />
  </text>
  <text
     id="text3022"
     x="66.767372"
     y="-388.99057"
     font-size="46.954"
     transform="scale(4.0128205,0.24920128)"
     style="font-size:46.95375824px;text-anchor:middle;font-family:Arial" />
  <text
     id="text3024"
     font-size="129.23"
     letter-spacing="0"
     line-height="125%"
     word-spacing="0"
     x="575.13947"
     y="-226.40005"
     sodipodi:linespacing="125%"
     style="font-size:129.22999573px;line-height:125%;letter-spacing:0;word-spacing:0;font-family:Gentium Book Basic">
    <tspan
       id="tspan3026"
       x="575.13947"
       y="-226.40005" />
  </text>
  <text
     id="text3028"
     x="340.40594"
     y="-1257.6661"
     font-size="46.954"
     transform="scale(4.0128205,0.24920128)"
     style="font-size:46.95375824px;text-anchor:middle;font-family:Arial" />
  <text
     id="text3030"
     font-size="129.23"
     letter-spacing="0"
     line-height="125%"
     word-spacing="0"
     x="1156.4094"
     y="-306.40005"
     sodipodi:linespacing="125%"
     style="font-size:129.22999573px;line-height:125%;letter-spacing:0;word-spacing:0;font-family:Gentium Book Basic">
    <tspan
       id="tspan3032"
       x="1156.4094"
       y="-306.40005" />
  </text>
  <text
     id="text3034"
     x="485.25525"
     y="-1578.6945"
     font-size="46.954"
     transform="scale(4.0128205,0.24920128)"
     style="font-size:46.95375824px;text-anchor:middle;font-family:Arial" />
  <text
     id="text3036"
     font-size="129.23"
     letter-spacing="0"
     line-height="125%"
     word-spacing="0"
     x="767.28949"
     y="-778.80005"
     sodipodi:linespacing="125%"
     style="font-size:129.22999573px;line-height:125%;letter-spacing:0;word-spacing:0;font-family:Gentium Book Basic">
    <tspan
       id="tspan3038"
       x="767.28949"
       y="-778.80005" />
  </text>
  <text
     id="text3040"
     x="388.28571"
     y="-3474.3447"
     font-size="46.954"
     transform="scale(4.0128205,0.24920128)"
     style="font-size:46.95375824px;text-anchor:middle;font-family:Arial" />
  <text
     id="text3042"
     font-size="129.23"
     letter-spacing="0"
     line-height="125%"
     word-spacing="0"
     x="1348.5494"
     y="-858.81006"
     sodipodi:linespacing="125%"
     style="font-size:129.22999573px;line-height:125%;letter-spacing:0;word-spacing:0;font-family:Gentium Book Basic">
    <tspan
       id="tspan3044"
       x="1348.5494"
       y="-858.81006" />
  </text>
  <text
     id="text3046"
     x="533.13501"
     y="-3795.3831"
     font-size="46.954"
     transform="scale(4.0128205,0.24920128)"
     style="font-size:46.95375824px;text-anchor:middle;font-family:Arial" />
  <text
     id="text3048"
     font-size="208.33"
     letter-spacing="0"
     line-height="125%"
     word-spacing="0"
     x="-484.25055"
     y="555.90997"
     sodipodi:linespacing="125%"
     style="font-size:208.33000183px;line-height:125%;letter-spacing:0;word-spacing:0;font-family:Gentium Book Basic">
    <tspan
       id="tspan3050"
       x="-484.25055"
       y="555.90997" />
  </text>
  <g
     style="fill:#000000;opacity:0.25"
     id="g3178"
     clip-path="url(#clipPath3394)">
    <path
       inkscape:connector-curvature="0"
       d="m 395.62922,60.25203 c -4.14996,0.21119 -8.36194,1.386764 -12.27708,3.646349 L 772.26087,452.80711 c 3.91514,-2.25959 8.12712,-3.43516 12.27708,-3.64635 z"
       id="path3180"
       style="fill:#000000" />
    <path
       inkscape:connector-curvature="0"
       d="m 383.35214,63.898379 -93.41092,53.950901 388.90873,388.90873 93.41092,-53.9509 z"
       id="path3182"
       style="fill:#000000" />
    <path
       inkscape:connector-curvature="0"
       d="m 289.94122,117.84928 c -12.52518,7.23215 -17.11376,22.5663 -10.29218,34.3826 l 388.90873,388.90873 c -6.82158,-11.8163 -2.233,-27.15045 10.29218,-34.3826 z"
       id="path3184"
       style="fill:#000000" />
    <path
       inkscape:connector-curvature="0"
       d="m 279.64904,152.23188 c 1.05088,1.8197 2.30968,3.44637 3.73319,4.86988 l 388.90873,388.90873 c -1.42351,-1.42351 -2.68231,-3.05018 -3.73319,-4.86988 z"
       id="path3186"
       style="fill:#000000" />
    <path
       inkscape:connector-curvature="0"
       d="m 283.38223,157.10176 c 7.81895,7.81895 20.60715,9.50864 31.20323,3.39163 l 388.90873,388.90873 c -10.59608,6.11701 -23.38428,4.42732 -31.20323,-3.39163 z"
       id="path3188"
       style="fill:#000000" />
    <path
       inkscape:connector-curvature="0"
       d="m 314.58546,160.49339 93.41092,-53.90511 388.90873,388.90873 -93.41092,53.90511 z"
       id="path3190"
       style="fill:#000000" />
    <path
       inkscape:connector-curvature="0"
       d="m 407.99638,106.58828 c 12.52519,-7.232149 17.11377,-22.566309 10.29219,-34.382606 L 807.1973,461.1144 c 6.82158,11.8163 2.233,27.15046 -10.29219,34.38261 z"
       id="path3192"
       style="fill:#000000" />
    <path
       inkscape:connector-curvature="0"
       d="m 418.28857,72.205674 c -1.05256,-1.823092 -2.3141,-3.453344 -3.741,-4.88024 L 803.4563,456.23416 c 1.42689,1.4269 2.68844,3.05715 3.741,4.88024 z"
       id="path3194"
       style="fill:#000000" />
    <path
       inkscape:connector-curvature="0"
       d="m 414.54757,67.325434 c -4.93172,-4.931719 -11.83871,-7.434218 -18.91983,-7.073404 l 388.90873,388.90873 c 7.08112,-0.36081 13.98811,2.14168 18.91983,7.0734 z"
       id="path3196"
       style="fill:#000000" />
    <path
       inkscape:connector-curvature="0"
       d="m 182.91667,81.060882 c -3.23873,0.0576 -7.74904,1.309968 -12.13825,7.8923 L 559.68715,477.86191 c 4.38921,-6.58233 8.89952,-7.8347 12.13825,-7.8923 z"
       id="path3198"
       style="fill:#000000" />
    <path
       inkscape:connector-curvature="0"
       d="m 170.77842,88.953182 -60.22752,90.324298 388.90873,388.90873 60.22752,-90.3243 z"
       id="path3200"
       style="fill:#000000" />
    <path
       inkscape:connector-curvature="0"
       d="M 110.5509,179.27748 71.553139,202.67673 460.46187,591.58546 499.45963,568.18621 z"
       id="path3202"
       style="fill:#000000" />
    <path
       inkscape:connector-curvature="0"
       d="m 71.553139,202.67673 c -15.416863,9.78415 -15.552734,20.13688 -15.552734,20.26094 L 444.90913,611.8464 c 0,-0.12406 0.13588,-10.47679 15.55274,-20.26094 z"
       id="path3204"
       style="fill:#000000" />
    <path
       inkscape:connector-curvature="0"
       d="m 56.000405,222.93767 0,76.56594 388.908725,388.90873 0,-76.56594 z"
       id="path3206"
       style="fill:#000000" />
    <path
       inkscape:connector-curvature="0"
       d="m 56.000405,299.50361 c -0.01425,0.40201 0.318665,5.47915 5.376078,10.53656 L 450.28521,698.9489 c -5.05741,-5.05741 -5.39033,-10.13455 -5.37608,-10.53656 z"
       id="path3208"
       style="fill:#000000" />
    <path
       inkscape:connector-curvature="0"
       d="m 61.376483,310.04017 c 2.281511,2.28151 5.524511,4.55901 10.130874,6.40146 L 460.41609,705.35036 c -4.60637,-1.84245 -7.84937,-4.11995 -10.13088,-6.40146 z"
       id="path3210"
       style="fill:#000000" />
    <path
       inkscape:connector-curvature="0"
       d="m 71.507357,316.44163 39.045023,15.59999 388.90873,388.90873 -39.04502,-15.59999 z"
       id="path3212"
       style="fill:#000000" />
    <path
       inkscape:connector-curvature="0"
       d="m 110.55238,332.04162 60.41213,90.64921 388.90873,388.90873 -60.41213,-90.64921 z"
       id="path3214"
       style="fill:#000000" />
    <path
       inkscape:connector-curvature="0"
       d="m 170.96451,422.69083 c 1.11534,1.86901 2.20339,3.27741 3.2645,4.33852 l 388.90873,388.90873 c -1.06111,-1.06111 -2.14916,-2.46951 -3.2645,-4.33852 z"
       id="path3216"
       style="fill:#000000" />
    <path
       inkscape:connector-curvature="0"
       d="m 174.22901,427.02935 c 3.43641,3.43641 6.59024,3.23035 9.47335,3.23035 l 388.90873,388.90873 c -2.88311,0 -6.03694,0.20606 -9.47335,-3.23035 z"
       id="path3218"
       style="fill:#000000" />
    <path
       inkscape:connector-curvature="0"
       d="m 183.70236,430.2597 33.32222,0 388.90873,388.90873 -33.32222,0 z"
       id="path3220"
       style="fill:#000000" />
    <path
       inkscape:connector-curvature="0"
       d="m 217.02458,430.2597 c 7.46992,0 13.52207,-8.85078 13.52207,-14.58392 l 388.90873,388.90873 c 0,5.73314 -6.05215,14.58392 -13.52207,14.58392 z"
       id="path3222"
       style="fill:#000000" />
    <path
       inkscape:connector-curvature="0"
       d="m 230.54665,415.67578 0,-322.500277 388.90873,388.908727 0,322.50028 z"
       id="path3224"
       style="fill:#000000" />
    <path
       inkscape:connector-curvature="0"
       d="m 230.54665,93.175503 c 0,-1.195077 -0.35622,-6.009592 -3.52463,-9.178002 L 615.93075,472.90623 c 3.16841,3.16841 3.52463,7.98293 3.52463,9.178 z"
       id="path3226"
       style="fill:#000000" />
    <path
       inkscape:connector-curvature="0"
       d="m 227.02202,83.997501 c -1.65935,-1.659349 -4.09002,-2.867207 -7.64481,-2.867207 L 608.28594,470.03902 c 3.55479,0 5.98546,1.20786 7.64481,2.86721 z"
       id="path3228"
       style="fill:#000000" />
    <path
       inkscape:connector-curvature="0"
       d="m 219.37721,81.130294 -35.12103,0 388.90873,388.908726 35.12103,0 z"
       id="path3230"
       style="fill:#000000" />
    <path
       inkscape:connector-curvature="0"
       d="m 184.25618,81.130294 c -0.40466,-0.02806 -0.87577,-0.05464 -1.33803,-0.04578 L 571.82688,469.99324 c 0.46226,-0.009 0.93337,0.0177 1.33803,0.0458 z"
       id="path3232"
       style="fill:#000000" />
    <path
       inkscape:connector-curvature="0"
       d="m 322.02289,230.57152 c -14.46282,0 -26.12257,10.9996 -26.12257,24.64571 l 388.90873,388.90873 c 0,-13.64611 11.65975,-24.64571 26.12257,-24.64571 z"
       id="path3234"
       style="fill:#000000" />
    <path
       inkscape:connector-curvature="0"
       d="m 295.90032,255.21723 c 0,6.56343 2.69756,12.51517 7.10741,16.92502 l 388.90873,388.90873 c -4.40985,-4.40985 -7.10741,-10.36159 -7.10741,-16.92502 z"
       id="path3236"
       style="fill:#000000" />
    <path
       inkscape:connector-curvature="0"
       d="m 303.00773,272.14225 c 4.75774,4.75774 11.50857,7.7207 19.01516,7.7207 l 388.90873,388.90873 c -7.50659,0 -14.25742,-2.96296 -19.01516,-7.7207 z"
       id="path3238"
       style="fill:#000000" />
    <path
       inkscape:connector-curvature="0"
       d="m 322.02289,279.86295 107.85454,0 388.90873,388.90873 -107.85454,0 z"
       id="path3240"
       style="fill:#000000" />
    <path
       inkscape:connector-curvature="0"
       d="m 429.87743,279.86295 c 14.46282,0 26.12257,-10.9996 26.12257,-24.64572 l 388.90873,388.90873 c 0,13.64612 -11.65975,24.64572 -26.12257,24.64572 z"
       id="path3242"
       style="fill:#000000" />
    <path
       inkscape:connector-curvature="0"
       d="m 456,255.21723 c 0,-6.56343 -2.69756,-12.51517 -7.10741,-16.92501 l 388.90873,388.90873 c 4.40985,4.40984 7.10741,10.36158 7.10741,16.92501 z"
       id="path3244"
       style="fill:#000000" />
    <path
       inkscape:connector-curvature="0"
       d="m 448.89259,238.29222 c -4.75773,-4.75774 -11.50857,-7.7207 -19.01516,-7.7207 l 388.90873,388.90873 c 7.50659,0 14.25743,2.96296 19.01516,7.7207 z"
       id="path3246"
       style="fill:#000000" />
    <path
       inkscape:connector-curvature="0"
       d="m 429.87743,230.57152 -107.85454,0 388.90873,388.90873 107.85454,0 z"
       id="path3248"
       style="fill:#000000" />
    <path
       inkscape:connector-curvature="0"
       d="m 299.8258,347.80407 c -8.22164,0.35445 -15.90423,4.56791 -20.1679,11.95365 l 388.90873,388.90873 c 4.26367,-7.38574 11.94626,-11.5992 20.1679,-11.95365 z"
       id="path3250"
       style="fill:#000000" />
    <path
       inkscape:connector-curvature="0"
       d="m 279.6579,359.75772 c -5.64531,9.77543 -3.47856,21.96212 4.53281,29.97349 l 388.90873,388.90873 c -8.01137,-8.01137 -10.17812,-20.19806 -4.53281,-29.97349 z"
       id="path3252"
       style="fill:#000000" />
    <path
       inkscape:connector-curvature="0"
       d="m 284.19071,389.73121 c 1.67137,1.67137 3.59711,3.161 5.75937,4.40911 l 388.90873,388.90873 c -2.16226,-1.24811 -4.088,-2.73774 -5.75937,-4.40911 z"
       id="path3254"
       style="fill:#000000" />
    <path
       inkscape:connector-curvature="0"
       d="m 289.95008,394.14032 93.41093,53.9509 388.90873,388.90873 -93.41093,-53.9509 z"
       id="path3256"
       style="fill:#000000" />
    <path
       inkscape:connector-curvature="0"
       d="m 383.36101,448.09122 c 12.52518,7.23215 28.11927,3.509 34.93642,-8.3073 l 388.90873,388.90873 c -6.81715,11.8163 -22.41124,15.53945 -34.93642,8.3073 z"
       id="path3258"
       style="fill:#000000" />
    <path
       inkscape:connector-curvature="0"
       d="m 418.29743,439.78392 c 5.64531,-9.77543 3.47856,-21.96211 -4.53281,-29.97349 l 388.90873,388.90873 c 8.01137,8.01138 10.17812,20.19806 4.53281,29.97349 z"
       id="path3260"
       style="fill:#000000" />
    <path
       inkscape:connector-curvature="0"
       d="m 413.76462,409.81043 c -1.67137,-1.67136 -3.59712,-3.161 -5.75938,-4.40911 l 388.90873,388.90873 c 2.16226,1.24811 4.08801,2.73775 5.75938,4.40911 z"
       id="path3262"
       style="fill:#000000" />
    <path
       inkscape:connector-curvature="0"
       d="m 408.00524,405.40132 -93.41092,-53.90512 388.90873,388.90873 93.41092,53.90512 z"
       id="path3264"
       style="fill:#000000" />
    <path
       inkscape:connector-curvature="0"
       d="m 314.59432,351.4962 c -4.69787,-2.7115 -9.83584,-3.9048 -14.76852,-3.69213 L 688.73453,736.7128 c 4.93268,-0.21267 10.07065,0.98063 14.76852,3.69213 z"
       id="path3266"
       style="fill:#000000" />
  </g>
  <path
     style="fill:#ffffff"
     inkscape:connector-curvature="0"
     d="m 395.62922,60.25203 c -4.14996,0.21119 -8.36194,1.386764 -12.27708,3.646349 l -93.41092,53.950901 c -12.52518,7.23215 -17.11376,22.5663 -10.29218,34.3826 6.82306,11.81482 22.41123,15.49218 34.93642,8.26151 l 93.41092,-53.90511 C 420.52157,99.356131 425.11015,84.021971 418.28857,72.205674 413.59808,64.081508 404.75764,59.786821 395.62774,60.25203 M 182.91667,81.060882 c -3.23873,0.0576 -7.74904,1.309968 -12.13825,7.8923 L 110.5509,179.27748 71.553139,202.67673 c -15.416863,9.78415 -15.552734,20.13688 -15.552734,20.26094 v 76.56594 c -0.02068,0.58336 0.68969,11.01141 15.506952,16.93802 l 39.045023,15.59999 60.41213,90.64921 c 4.7274,7.92184 8.96449,7.56887 12.73785,7.56887 h 33.32222 c 7.46992,0 13.52207,-8.85078 13.52207,-14.58392 V 93.175503 c 0,-1.820959 -0.82704,-12.045209 -11.16944,-12.045209 h -35.12103 c -0.40466,-0.02806 -0.87577,-0.05464 -1.33803,-0.04578 M 322.02289,230.57152 c -14.46282,0 -26.12257,10.9996 -26.12257,24.64571 0,13.64464 11.65828,24.64572 26.12257,24.64572 h 107.85454 c 14.46282,0 26.12257,-10.9996 26.12257,-24.64572 0,-13.64464 -11.65828,-24.64571 -26.12257,-24.64571 H 322.02289 M 299.8258,347.80407 c -8.22164,0.35445 -15.90423,4.56791 -20.1679,11.95365 -6.82306,11.81482 -2.23448,27.15193 10.29218,34.3826 l 93.41093,53.9509 c 12.52518,7.23215 28.11927,3.509 34.93642,-8.3073 6.82306,-11.81482 2.23448,-27.15193 -10.29219,-34.3826 L 314.59432,351.4962 c -4.69787,-2.7115 -9.83584,-3.9048 -14.76852,-3.69213"
     id="path3052" />
</svg>
