<?xml version="1.0" encoding="UTF-8" standalone="no"?>
<!-- Created with Inkscape (http://www.inkscape.org/) -->

<svg
   xmlns:dc="http://purl.org/dc/elements/1.1/"
   xmlns:cc="http://creativecommons.org/ns#"
   xmlns:rdf="http://www.w3.org/1999/02/22-rdf-syntax-ns#"
   xmlns:svg="http://www.w3.org/2000/svg"
   xmlns="http://www.w3.org/2000/svg"
   xmlns:inkscape="http://www.inkscape.org/namespaces/inkscape"
   version="1.1"
   width="100%"
   height="100%"
   viewBox="0 0 512 512"
   id="svg2">
  <metadata
     id="metadata10">
    <rdf:RDF>
      <cc:Work
         rdf:about="">
        <dc:format>image/svg+xml</dc:format>
        <dc:type
           rdf:resource="http://purl.org/dc/dcmitype/StillImage" />
        <dc:title />
      </cc:Work>
    </rdf:RDF>
  </metadata>
  <defs
     id="defs8">
    <clipPath
       id="clipPath9933">
      <path
         d="M 26,0 C 11.602648,0 0,11.602648 0,26 l 0,460 c 0,14.39735 11.602648,26 26,26 l 460,0 c 14.39735,0 26,-11.60265 26,-26 L 512,26 C 512,11.602648 500.39735,0 486,0 L 26,0 z"
         inkscape:connector-curvature="0"
         id="path9935"
         style="fill:none;fill-opacity:1;stroke:none" />
    </clipPath>
  </defs>
  <path
     d="M 26,0 C 11.602648,0 0,11.602648 0,26 l 0,460 c 0,14.39735 11.602648,26 26,26 l 460,0 c 14.39735,0 26,-11.60265 26,-26 L 512,26 C 512,11.602648 500.39735,0 486,0 L 26,0 z"
     inkscape:connector-curvature="0"
     id="rect2986"
     style="fill:none;fill-opacity:1;stroke:none" />
  <g
     clip-path="url(#clipPath9933)"
     id="g9757"
     style="opacity:0.0;fill:#000000">
    <path
       d="m 87.96875,78.375 0,268.8125 353.55339,353.55339 0,-268.8125 z"
       inkscape:connector-curvature="0"
       id="path9759"
       style="fill:#000000" />
    <path
       d="m 87.96875,347.1875 c 61.08073,1.20703 117.59103,16.02919 164.78125,58.875 l 353.55339,353.55339 c -47.19022,-42.84581 -103.70052,-57.66797 -164.78125,-58.875 z"
       inkscape:connector-curvature="0"
       id="path9761"
       style="fill:#000000" />
    <path
       d="m 252.75,406.0625 1.125,-269.90625 353.55339,353.55339 -1.125,269.90625 z"
       inkscape:connector-curvature="0"
       id="path9763"
       style="fill:#000000" />
    <path
       d="M 253.875,136.15625 C 195.91975,83.807502 142.05437,82.496163 87.96875,78.375 l 353.55339,353.55339 c 54.08562,4.12116 107.951,5.4325 165.90625,57.78125 z"
       inkscape:connector-curvature="0"
       id="path9765"
       style="fill:#000000" />
    <path
       d="m 424,78.375 c -54.08562,4.121164 -107.95099,5.463753 -165.90625,57.8125 l 353.55339,353.55339 c 57.95526,-52.34875 111.82063,-53.69134 165.90625,-57.8125 z"
       inkscape:connector-curvature="0"
       id="path9767"
       style="fill:#000000" />
    <path
       d="m 258.09375,136.1875 1.125,269.875 353.55339,353.55339 -1.125,-269.875 z"
       inkscape:connector-curvature="0"
       id="path9769"
       style="fill:#000000" />
    <path
       d="M 259.21875,406.0625 C 306.40897,363.21669 362.93415,348.36327 424,347.15625 l 353.55339,353.55339 c -61.06585,1.20702 -117.59103,16.06044 -164.78125,58.90625 z"
       inkscape:connector-curvature="0"
       id="path9771"
       style="fill:#000000" />
    <path
       d="m 424,347.15625 0,-268.78125 353.55339,353.55339 0,268.78125 z"
       inkscape:connector-curvature="0"
       id="path9773"
       style="fill:#000000" />
    <path
       d="m 64.84375,108.1875 0,263.625 353.55339,353.55339 0,-263.625 z"
       inkscape:connector-curvature="0"
       id="path9775"
       style="fill:#000000" />
    <path
       d="M 64.84375,371.8125 C 154.88722,373.13711 214.83019,391.00158 255,419.71875 L 608.55339,773.27214 C 568.38358,744.55497 508.44061,726.6905 418.39714,725.36589 z"
       inkscape:connector-curvature="0"
       id="path9777"
       style="fill:#000000" />
    <path
       d="m 255,419.71875 c 0.82007,0.26195 1.37341,0.0461 2,0 l 353.55339,353.55339 c -0.62659,0.0461 -1.17993,0.26195 -2,0 z"
       inkscape:connector-curvature="0"
       id="path9779"
       style="fill:#000000" />
    <path
       d="m 257,419.71875 c 40.17725,-28.7127 100.08152,-46.58164 190.125,-47.90625 l 353.55339,353.55339 c -90.04348,1.32461 -149.94775,19.19355 -190.125,47.90625 z"
       inkscape:connector-curvature="0"
       id="path9781"
       style="fill:#000000" />
    <path
       d="m 447.125,371.8125 0,-263.625 353.55339,353.55339 0,263.625 z"
       inkscape:connector-curvature="0"
       id="path9783"
       style="fill:#000000" />
    <path
       d="m 447.125,108.1875 -10.46875,0 353.55339,353.55339 10.46875,0 z"
       inkscape:connector-curvature="0"
       id="path9785"
       style="fill:#000000" />
    <path
       d="m 436.65625,108.1875 0,252.40625 353.55339,353.55339 0,-252.40625 z"
       inkscape:connector-curvature="0"
       id="path9787"
       style="fill:#000000" />
    <path
       d="M 436.65625,360.59375 C 387.48209,364.97685 348.90702,356.57161 255.96875,414 l 353.55339,353.55339 c 92.93827,-57.42839 131.51334,-49.02315 180.6875,-53.40625 z"
       inkscape:connector-curvature="0"
       id="path9789"
       style="fill:#000000" />
    <path
       d="M 255.96875,414 C 163.05282,356.59394 124.45541,364.97685 75.28125,360.59375 l 353.55339,353.55339 c 49.17416,4.3831 87.77157,-3.99981 180.6875,53.40625 z"
       inkscape:connector-curvature="0"
       id="path9791"
       style="fill:#000000" />
    <path
       d="m 75.28125,360.59375 0,-252.40625 353.55339,353.55339 0,252.40625 z"
       inkscape:connector-curvature="0"
       id="path9793"
       style="fill:#000000" />
    <path
       d="m 75.28125,108.1875 -10.4375,0 353.55339,353.55339 10.4375,0 z"
       inkscape:connector-curvature="0"
       id="path9795"
       style="fill:#000000" />
    <path
       d="m 41,140.65625 0,258.71875 353.55339,353.55339 0,-258.71875 z"
       inkscape:connector-curvature="0"
       id="path9797"
       style="fill:#000000" />
    <path
       d="m 41,399.375 c 66.53245,5.09899 144.36714,1.38618 186.21875,25.6875 l 353.55339,353.55339 c -41.85161,-24.30132 -119.6863,-20.58851 -186.21875,-25.6875 z"
       inkscape:connector-curvature="0"
       id="path9799"
       style="fill:#000000" />
    <path
       d="m 227.21875,425.0625 c 12.0941,6.9832 16.46252,8.88548 28.09375,8.46875 l 353.55339,353.55339 c -11.63123,0.41673 -15.99965,-1.48555 -28.09375,-8.46875 z"
       inkscape:connector-curvature="0"
       id="path9801"
       style="fill:#000000" />
    <path
       d="m 255.3125,433.53125 0.0625,0 353.55339,353.55339 -0.0625,0 z"
       inkscape:connector-curvature="0"
       id="path9803"
       style="fill:#000000" />
    <path
       d="m 255.375,433.53125 c 12.67902,0.61022 16.8463,-1.21616 29.40625,-8.46875 l 353.55339,353.55339 c -12.55995,7.25259 -16.72723,9.07897 -29.40625,8.46875 z"
       inkscape:connector-curvature="0"
       id="path9805"
       style="fill:#000000" />
    <path
       d="M 284.78125,425.0625 C 326.63286,400.76118 404.45713,404.47399 471,399.375 l 353.55339,353.55339 c -66.54287,5.09899 -144.36714,1.38618 -186.21875,25.6875 z"
       inkscape:connector-curvature="0"
       id="path9807"
       style="fill:#000000" />
    <path
       d="m 471,399.375 0,-258.71875 353.55339,353.55339 0,258.71875 z"
       inkscape:connector-curvature="0"
       id="path9809"
       style="fill:#000000" />
    <path
       d="m 471,140.65625 -11.59375,0 353.55339,353.55339 11.59375,0 z"
       inkscape:connector-curvature="0"
       id="path9811"
       style="fill:#000000" />
    <path
       d="m 459.40625,140.65625 0,246.78125 353.55339,353.55339 0,-246.78125 z"
       inkscape:connector-curvature="0"
       id="path9813"
       style="fill:#000000" />
    <path
       d="m 459.40625,387.4375 c -60.20858,2.62838 -120.3694,5.39114 -176.6875,26.46875 l 353.55339,353.55339 c 56.3181,-21.07761 116.47892,-23.84037 176.6875,-26.46875 z"
       inkscape:connector-curvature="0"
       id="path9815"
       style="fill:#000000" />
    <path
       d="m 282.71875,413.90625 c -10.84094,10.2084 -14.91495,10.39283 -26.1875,10.625 l 353.55339,353.55339 c 11.27255,-0.23217 15.34656,-0.4166 26.1875,-10.625 z"
       inkscape:connector-curvature="0"
       id="path9817"
       style="fill:#000000" />
    <path
       d="m 256.53125,424.53125 c -12.49298,-0.25748 -15.93429,0.0294 -27.25,-10.625 l 353.55339,353.55339 c 11.31571,10.65443 14.75702,10.36752 27.25,10.625 z"
       inkscape:connector-curvature="0"
       id="path9819"
       style="fill:#000000" />
    <path
       d="M 229.28125,413.90625 C 172.95719,392.82864 112.73387,390.07332 52.53125,387.4375 l 353.55339,353.55339 c 60.20262,2.63582 120.42594,5.39114 176.75,26.46875 z"
       inkscape:connector-curvature="0"
       id="path9821"
       style="fill:#000000" />
    <path
       d="m 52.53125,387.4375 0,-246.78125 353.55339,353.55339 0,246.78125 z"
       inkscape:connector-curvature="0"
       id="path9823"
       style="fill:#000000" />
    <path
       d="m 52.53125,140.65625 -11.53125,0 353.55339,353.55339 11.53125,0 z"
       inkscape:connector-curvature="0"
       id="path9825"
       style="fill:#000000" />
  </g>
  <path
     d="m 87.96875,78.375 0,268.8125 c 61.08073,1.20703 117.59103,16.02919 164.78125,58.875 l 1.125,-269.90625 C 195.91975,83.807502 142.05437,82.496163 87.96875,78.375 z M 424,78.375 c -54.08562,4.121164 -107.95099,5.463753 -165.90625,57.8125 l 1.125,269.875 C 306.40897,363.21669 362.93415,348.36327 424,347.15625 L 424,78.375 z m -359.15625,29.8125 0,263.625 c 90.04347,1.32461 149.98644,19.18908 190.15625,47.90625 0.82007,0.26195 1.37341,0.0461 2,0 40.17725,-28.7127 100.08152,-46.58164 190.125,-47.90625 l 0,-263.625 -10.46875,0 0,252.40625 C 387.48209,364.97685 348.90702,356.57161 255.96875,414 163.05282,356.59394 124.45541,364.97685 75.28125,360.59375 l 0,-252.40625 -10.4375,0 z M 41,140.65625 41,399.375 c 66.53245,5.09899 144.36714,1.38618 186.21875,25.6875 12.0941,6.9832 16.46252,8.88548 28.09375,8.46875 l 0.0625,0 c 12.67902,0.61022 16.8463,-1.21616 29.40625,-8.46875 C 326.63286,400.76118 404.45713,404.47399 471,399.375 l 0,-258.71875 -11.59375,0 0,246.78125 c -60.20858,2.62838 -120.3694,5.39114 -176.6875,26.46875 -10.84094,10.2084 -14.91495,10.39283 -26.1875,10.625 -12.49298,-0.25748 -15.93429,0.0294 -27.25,-10.625 -56.32406,-21.07761 -116.54738,-23.83293 -176.75,-26.46875 l 0,-246.78125 -11.53125,0 z"
     inkscape:connector-curvature="0"
     id="path9572"
     style="fill:#ffffff" />
</svg>
