<?xml version="1.0" encoding="UTF-8" standalone="no"?>
<!-- Created with Inkscape (http://www.inkscape.org/) -->

<svg
   xmlns:dc="http://purl.org/dc/elements/1.1/"
   xmlns:cc="http://creativecommons.org/ns#"
   xmlns:rdf="http://www.w3.org/1999/02/22-rdf-syntax-ns#"
   xmlns:svg="http://www.w3.org/2000/svg"
   xmlns="http://www.w3.org/2000/svg"
   xmlns:inkscape="http://www.inkscape.org/namespaces/inkscape"
   version="1.1"
   width="100%"
   height="100%"
   viewBox="0 0 512 512"
   id="svg2">
  <metadata
     id="metadata10">
    <rdf:RDF>
      <cc:Work
         rdf:about="">
        <dc:format>image/svg+xml</dc:format>
        <dc:type
           rdf:resource="http://purl.org/dc/dcmitype/StillImage" />
        <dc:title />
      </cc:Work>
    </rdf:RDF>
  </metadata>
  <defs
     id="defs8">
    <clipPath
       id="clipPath14838">
      <path
         d="M 26,0 C 11.602648,0 0,11.602648 0,26 l 0,460 c 0,14.39735 11.602648,26 26,26 l 460,0 c 14.39735,0 26,-11.60265 26,-26 L 512,26 C 512,11.602648 500.39735,0 486,0 L 26,0 z"
         inkscape:connector-curvature="0"
         id="path14840"
         style="fill:none;fill-opacity:1;stroke:none" />
    </clipPath>
  </defs>
  <path
     d="M 26,0 C 11.602648,0 0,11.602648 0,26 l 0,460 c 0,14.39735 11.602648,26 26,26 l 460,0 c 14.39735,0 26,-11.60265 26,-26 L 512,26 C 512,11.602648 500.39735,0 486,0 L 26,0 z"
     inkscape:connector-curvature="0"
     id="rect2986"
     style="fill:none;fill-opacity:1;stroke:none" />
  <g
     clip-path="url(#clipPath14838)"
     id="g14414"
     style="opacity:0.0;fill:#000000">
    <path
       d="m 147.28125,44.3125 0,29.4375 353.55339,353.55339 0,-29.4375 z"
       inkscape:connector-curvature="0"
       id="path14416"
       style="fill:#000000" />
    <path
       d="m 147.28125,73.75 22.25,0 353.55339,353.55339 -22.25,0 z"
       inkscape:connector-curvature="0"
       id="path14418"
       style="fill:#000000" />
    <path
       d="m 169.53125,73.75 c -0.2496,20.750552 -0.91318,87.8555 0.0625,116.21875 l 353.55339,353.55339 c -0.97568,-28.36325 -0.3121,-95.4682 -0.0625,-116.21875 z"
       inkscape:connector-curvature="0"
       id="path14420"
       style="fill:#000000" />
    <path
       d="m 169.59375,189.96875 c -0.17018,6.48951 -16.14578,28.28959 -29,45.75 l 353.55339,353.55339 c 12.85422,-17.46041 28.82982,-39.26049 29,-45.75 z"
       inkscape:connector-curvature="0"
       id="path14422"
       style="fill:#000000" />
    <path
       d="m 140.59375,235.71875 c -8.00978,10.95956 -16.86085,23.03511 -25.6875,35.96875 l 353.55339,353.55339 c 8.82665,-12.93364 17.67772,-25.00919 25.6875,-35.96875 z"
       inkscape:connector-curvature="0"
       id="path14424"
       style="fill:#000000" />
    <path
       d="M 114.90625,271.6875 C 88.664576,310.3069 63.243796,355.55117 52.375,374.90625 l 353.55339,353.55339 c 10.8688,-19.35508 36.28958,-64.59935 62.53125,-103.21875 z"
       inkscape:connector-curvature="0"
       id="path14426"
       style="fill:#000000" />
    <path
       d="m 52.375,374.90625 -2.90625,5.15625 353.55339,353.55339 2.90625,-5.15625 z"
       inkscape:connector-curvature="0"
       id="path14428"
       style="fill:#000000" />
    <path
       d="M 49.46875,380.0625 C 38.282286,399.80332 38.176787,426.7094 49.125,445.53125 l 353.55339,353.55339 c -10.94821,-18.82185 -10.84271,-45.72793 0.34375,-65.46875 z"
       inkscape:connector-curvature="0"
       id="path14430"
       style="fill:#000000" />
    <path
       d="m 49.125,445.53125 c 2.191822,3.76168 4.73423,7.07958 7.580967,9.92632 L 410.25936,809.01096 c -2.84674,-2.84674 -5.38915,-6.16464 -7.58097,-9.92632 z"
       inkscape:connector-curvature="0"
       id="path14432"
       style="fill:#000000" />
    <path
       d="m 56.705967,455.45757 c 7.95421,7.95421 18.284405,12.22993 29.981533,12.22993 l 353.55339,353.55339 c -11.69713,0 -22.02732,-4.27572 -29.98153,-12.22993 z"
       inkscape:connector-curvature="0"
       id="path14434"
       style="fill:#000000" />
    <path
       d="m 86.6875,467.6875 338.625,0 353.55339,353.55339 -338.625,0 z"
       inkscape:connector-curvature="0"
       id="path14436"
       style="fill:#000000" />
    <path
       d="m 425.3125,467.6875 0.0313,0 353.55339,353.55339 -0.0313,0 z"
       inkscape:connector-curvature="0"
       id="path14438"
       style="fill:#000000" />
    <path
       d="m 425.34375,467.6875 c 15.86073,0 29.21514,-7.88386 37.53125,-22.15625 l 353.55339,353.55339 c -8.31611,14.27239 -21.67052,22.15625 -37.53125,22.15625 z"
       inkscape:connector-curvature="0"
       id="path14440"
       style="fill:#000000" />
    <path
       d="m 462.875,445.53125 c 10.95518,-18.81432 10.80947,-45.66485 -0.375,-65.4375 l 353.55339,353.55339 c 11.18447,19.77265 11.33018,46.62318 0.375,65.4375 z"
       inkscape:connector-curvature="0"
       id="path14442"
       style="fill:#000000" />
    <path
       d="m 462.5,380.09375 -2.875,-5.125 353.55339,353.55339 2.875,5.125 z"
       inkscape:connector-curvature="0"
       id="path14444"
       style="fill:#000000" />
    <path
       d="m 459.625,374.96875 c -10.86879,-19.34374 -36.27823,-64.60791 -62.53125,-103.25 l 353.55339,353.55339 c 26.25302,38.64209 51.66246,83.90626 62.53125,103.25 z"
       inkscape:connector-curvature="0"
       id="path14446"
       style="fill:#000000" />
    <path
       d="M 397.09375,271.71875 C 388.27845,258.77377 379.41881,246.69821 371.375,235.75 l 353.55339,353.55339 c 8.04381,10.94821 16.90345,23.02377 25.71875,35.96875 z"
       inkscape:connector-curvature="0"
       id="path14448"
       style="fill:#000000" />
    <path
       d="m 371.375,235.75 c -12.84288,-17.50579 -28.80991,-39.26328 -28.96875,-45.71875 l 353.55339,353.55339 c 0.15884,6.45547 16.12587,28.21296 28.96875,45.71875 z"
       inkscape:connector-curvature="0"
       id="path14450"
       style="fill:#000000" />
    <path
       d="m 342.40625,190.03125 c 0.96435,-28.38594 0.28943,-95.519353 0.0625,-116.28125 l 353.55339,353.55339 c 0.22693,20.7619 0.90185,87.89531 -0.0625,116.28125 z"
       inkscape:connector-curvature="0"
       id="path14452"
       style="fill:#000000" />
    <path
       d="m 342.46875,73.75 16.78125,0 353.55339,353.55339 -16.78125,0 z"
       inkscape:connector-curvature="0"
       id="path14454"
       style="fill:#000000" />
    <path
       d="m 359.25,73.75 0,-29.4375 353.55339,353.55339 0,29.4375 z"
       inkscape:connector-curvature="0"
       id="path14456"
       style="fill:#000000" />
    <path
       d="m 359.25,44.3125 -211.96875,0 353.55339,353.55339 211.96875,0 z"
       inkscape:connector-curvature="0"
       id="path14458"
       style="fill:#000000" />
    <path
       d="m 193.8125,79.8125 124.40625,0 353.55339,353.55339 -124.40625,0 z"
       inkscape:connector-curvature="0"
       id="path14460"
       style="fill:#000000" />
    <path
       d="m 318.21875,79.8125 c 0.24959,25.36809 0.73725,84.10902 -0.125,109.375 l 353.55339,353.55339 c 0.86225,-25.26598 0.37459,-84.00691 0.125,-109.375 z"
       inkscape:connector-curvature="0"
       id="path14462"
       style="fill:#000000" />
    <path
       d="m 318.09375,189.1875 c -0.48784,13.7505 11.2039,30.32788 33.65625,60.9375 l 353.55339,353.55339 c -22.45235,-30.60962 -34.14409,-47.187 -33.65625,-60.9375 z"
       inkscape:connector-curvature="0"
       id="path14464"
       style="fill:#000000" />
    <path
       d="m 351.75,250.125 c 7.87363,10.74399 16.58498,22.57452 25.21875,35.28125 l 353.55339,353.55339 c -8.63377,-12.70673 -17.34512,-24.53726 -25.21875,-35.28125 z"
       inkscape:connector-curvature="0"
       id="path14466"
       style="fill:#000000" />
    <path
       d="m 376.96875,285.40625 c 25.67441,37.74581 50.72754,82.36884 61.4375,101.40625 l 353.55339,353.55339 c -10.70996,-19.03741 -35.76309,-63.66044 -61.4375,-101.40625 z"
       inkscape:connector-curvature="0"
       id="path14468"
       style="fill:#000000" />
    <path
       d="m 438.40625,386.8125 2.90625,5.25 353.55339,353.55339 -2.90625,-5.25 z"
       inkscape:connector-curvature="0"
       id="path14470"
       style="fill:#000000" />
    <path
       d="m 441.3125,392.0625 c 6.90928,12.16216 7.11431,29.90749 0.5,41.21875 l 353.55339,353.55339 c 6.61431,-11.31126 6.40928,-29.05659 -0.5,-41.21875 z"
       inkscape:connector-curvature="0"
       id="path14472"
       style="fill:#000000" />
    <path
       d="m 441.8125,433.28125 c -3.88009,6.68238 -9.40918,10.0625 -16.5,10.0625 l 353.55339,353.55339 c 7.09082,0 12.61991,-3.38012 16.5,-10.0625 z"
       inkscape:connector-curvature="0"
       id="path14474"
       style="fill:#000000" />
    <path
       d="m 425.3125,443.34375 -338.625,0 353.55339,353.55339 338.625,0 z"
       inkscape:connector-curvature="0"
       id="path14476"
       style="fill:#000000" />
    <path
       d="m 86.6875,443.34375 c -5.061636,0 -9.358198,-1.73875 -12.81946,-5.20001 l 353.55339,353.55339 c 3.46126,3.46126 7.75783,5.20001 12.81946,5.20001 z"
       inkscape:connector-curvature="0"
       id="path14478"
       style="fill:#000000" />
    <path
       d="m 73.86804,438.14374 c -1.356564,-1.35657 -2.58482,-2.97772 -3.68054,-4.86249 l 353.55339,353.55339 c 1.09572,1.88477 2.32398,3.50592 3.68054,4.86249 z"
       inkscape:connector-curvature="0"
       id="path14480"
       style="fill:#000000" />
    <path
       d="m 70.1875,433.28125 c -6.602964,-11.32261 -6.397942,-29.05659 0.5,-41.21875 l 353.55339,353.55339 c -6.89794,12.16216 -7.10296,29.89614 -0.5,41.21875 z"
       inkscape:connector-curvature="0"
       id="path14482"
       style="fill:#000000" />
    <path
       d="m 70.6875,392.0625 2.90625,-5.25 353.55339,353.55339 -2.90625,5.25 z"
       inkscape:connector-curvature="0"
       id="path14484"
       style="fill:#000000" />
    <path
       d="m 73.59375,386.8125 c 10.698617,-19.03741 35.76031,-63.66044 61.46875,-101.40625 l 353.55339,353.55339 c -25.70844,37.74581 -50.77013,82.36884 -61.46875,101.40625 z"
       inkscape:connector-curvature="0"
       id="path14486"
       style="fill:#000000" />
    <path
       d="m 135.0625,285.40625 c 8.61109,-12.71808 17.29118,-24.53726 25.1875,-35.28125 l 353.55339,353.55339 c -7.89632,10.74399 -16.57641,22.56317 -25.1875,35.28125 z"
       inkscape:connector-curvature="0"
       id="path14488"
       style="fill:#000000" />
    <path
       d="m 160.25,250.125 c 22.441,-30.59828 34.15265,-47.187 33.6875,-60.9375 l 353.55339,353.55339 c 0.46515,13.7505 -11.2465,30.33922 -33.6875,60.9375 z"
       inkscape:connector-curvature="0"
       id="path14490"
       style="fill:#000000" />
    <path
       d="m 193.9375,189.1875 c -0.88494,-25.26598 -0.39728,-84.00691 -0.125,-109.375 l 353.55339,353.55339 c -0.27228,25.36809 -0.75994,84.10902 0.125,109.375 z"
       inkscape:connector-curvature="0"
       id="path14492"
       style="fill:#000000" />
    <path
       d="m 134.8125,305.71875 c -3.75529,5.16211 -7.67684,10.54352 -11.625,16.375 l 353.55339,353.55339 c 3.94816,-5.83148 7.86971,-11.21289 11.625,-16.375 z"
       inkscape:connector-curvature="0"
       id="path14494"
       style="fill:#000000" />
    <path
       d="M 123.1875,322.09375 C 107.75789,344.78435 92.770963,371.4047 86.40625,382.75 l 353.55339,353.55339 c 6.36471,-11.3453 21.35164,-37.96565 36.78125,-60.65625 z"
       inkscape:connector-curvature="0"
       id="path14496"
       style="fill:#000000" />
    <path
       d="m 86.40625,382.75 -1.6875,3.03125 353.55339,353.55339 1.6875,-3.03125 z"
       inkscape:connector-curvature="0"
       id="path14498"
       style="fill:#000000" />
    <path
       d="m 84.71875,385.78125 c -6.568928,11.60624 -6.63163,27.42698 -0.1875,38.5 l 353.55339,353.55339 c -6.44413,-11.07302 -6.38143,-26.89376 0.1875,-38.5 z"
       inkscape:connector-curvature="0"
       id="path14500"
       style="fill:#000000" />
    <path
       d="m 84.53125,424.28125 c 1.29675,2.21316 2.79559,4.16592 4.471213,5.84154 L 442.55585,783.67618 c -1.67562,-1.67562 -3.17446,-3.62838 -4.47121,-5.84154 z"
       inkscape:connector-curvature="0"
       id="path14502"
       style="fill:#000000" />
    <path
       d="m 89.002463,430.12279 c 4.672191,4.67219 10.718831,7.18971 17.591287,7.18971 l 353.55339,353.55339 c -6.87246,0 -12.9191,-2.51752 -17.59129,-7.18971 z"
       inkscape:connector-curvature="0"
       id="path14504"
       style="fill:#000000" />
    <path
       d="m 106.59375,437.3125 21.21875,0 353.55339,353.55339 -21.21875,0 z"
       inkscape:connector-curvature="0"
       id="path14506"
       style="fill:#000000" />
    <path
       d="m 127.8125,437.3125 78.6875,0 353.55339,353.55339 -78.6875,0 z"
       inkscape:connector-curvature="0"
       id="path14508"
       style="fill:#000000" />
    <path
       d="m 206.5,437.3125 99.15625,0 353.55339,353.55339 -99.15625,0 z"
       inkscape:connector-curvature="0"
       id="path14510"
       style="fill:#000000" />
    <path
       d="m 305.65625,437.3125 79.15625,0 353.55339,353.55339 -79.15625,0 z"
       inkscape:connector-curvature="0"
       id="path14512"
       style="fill:#000000" />
    <path
       d="m 384.8125,437.3125 20.75,0 353.55339,353.55339 -20.75,0 z"
       inkscape:connector-curvature="0"
       id="path14514"
       style="fill:#000000" />
    <path
       d="m 405.5625,437.3125 c 9.32584,0 17.14999,-4.64708 22.0625,-13.03125 l 353.55339,353.55339 c -4.91251,8.38417 -12.73666,13.03125 -22.0625,13.03125 z"
       inkscape:connector-curvature="0"
       id="path14516"
       style="fill:#000000" />
    <path
       d="m 427.625,424.28125 c 6.39875,-11.07302 6.37287,-26.89376 -0.21875,-38.5 l 353.55339,353.55339 c 6.59162,11.60624 6.6175,27.42698 0.21875,38.5 z"
       inkscape:connector-curvature="0"
       id="path14518"
       style="fill:#000000" />
    <path
       d="m 427.40625,385.78125 -1.6875,-3.03125 353.55339,353.55339 1.6875,3.03125 z"
       inkscape:connector-curvature="0"
       id="path14520"
       style="fill:#000000" />
    <path
       d="m 425.71875,382.75 -0.0313,0 353.55339,353.55339 0.0313,0 z"
       inkscape:connector-curvature="0"
       id="path14522"
       style="fill:#000000" />
    <path
       d="m 425.6875,382.75 c -6.3874,-11.3453 -21.3403,-37.9543 -36.78125,-60.65625 l 353.55339,353.55339 c 15.44095,22.70195 30.39385,49.31095 36.78125,60.65625 z"
       inkscape:connector-curvature="0"
       id="path14524"
       style="fill:#000000" />
    <path
       d="m 388.90625,322.09375 c -3.94816,-5.83148 -7.85836,-11.21289 -11.625,-16.375 l 353.55339,353.55339 c 3.76664,5.16211 7.67684,10.54352 11.625,16.375 z"
       inkscape:connector-curvature="0"
       id="path14526"
       style="fill:#000000" />
    <path
       d="m 377.28125,305.71875 c 0,0 -19.57473,8.10553 -79.875,10.125 l 353.55339,353.55339 c 60.30027,-2.01947 79.875,-10.125 79.875,-10.125 z"
       inkscape:connector-curvature="0"
       id="path14528"
       style="fill:#000000" />
    <path
       d="m 297.40625,315.84375 c -60.32295,2.04215 -70.48102,17.25929 -104.4375,14.21875 l 353.55339,353.55339 c 33.95648,3.04054 44.11455,-12.1766 104.4375,-14.21875 z"
       inkscape:connector-curvature="0"
       id="path14530"
       style="fill:#000000" />
    <path
       d="M 192.96875,330.0625 C 159.01228,327.01061 134.8125,305.71875 134.8125,305.71875 l 353.55339,353.55339 c 0,0 24.19978,21.29186 58.15625,24.34375 z"
       inkscape:connector-curvature="0"
       id="path14532"
       style="fill:#000000" />
    <path
       d="m 134.8125,305.71875 c 0,0 0,0 0,0 l 353.55339,353.55339 c 0,0 0,0 0,0 z"
       inkscape:connector-curvature="0"
       id="path14534"
       style="fill:#000000" />
    <path
       d="m 148.0625,346.09375 c 5.56629,0 10.6065,2.25494 14.25456,5.90301 l 353.55339,353.55339 c -3.64806,-3.64807 -8.68827,-5.90301 -14.25456,-5.90301 z"
       inkscape:connector-curvature="0"
       id="path14536"
       style="fill:#000000" />
    <path
       d="m 162.31706,351.99676 c 3.64621,3.6462 5.90169,8.68412 5.90169,14.25324 l 353.55339,353.55339 c 0,-5.56912 -2.25548,-10.60704 -5.90169,-14.25324 z"
       inkscape:connector-curvature="0"
       id="path14538"
       style="fill:#000000" />
    <path
       d="m 168.21875,366.25 c 0,11.12974 -9.02651,20.1875 -20.15625,20.1875 l 353.55339,353.55339 c 11.12974,0 20.15625,-9.05776 20.15625,-20.1875 z"
       inkscape:connector-curvature="0"
       id="path14540"
       style="fill:#000000" />
    <path
       d="m 148.0625,386.4375 c -5.56629,0 -10.61431,-2.26276 -14.27019,-5.91864 L 487.3457,734.07225 c 3.65588,3.65588 8.7039,5.91864 14.27019,5.91864 z"
       inkscape:connector-curvature="0"
       id="path14542"
       style="fill:#000000" />
    <path
       d="M 133.79231,380.51886 C 130.13829,376.86485 127.875,371.81912 127.875,366.25 l 353.55339,353.55339 c 0,5.56912 2.26329,10.61485 5.91731,14.26886 z"
       inkscape:connector-curvature="0"
       id="path14544"
       style="fill:#000000" />
    <path
       d="m 127.875,366.25 c 0,-11.14108 9.05776,-20.15625 20.1875,-20.15625 l 353.55339,353.55339 c -11.12974,0 -20.1875,9.01517 -20.1875,20.15625 z"
       inkscape:connector-curvature="0"
       id="path14546"
       style="fill:#000000" />
    <path
       d="m 233.9375,351.03125 c 3.35894,0 6.41104,1.37085 8.62079,3.5806 l 353.55339,353.55339 c -2.20975,-2.20975 -5.26185,-3.5806 -8.62079,-3.5806 z"
       inkscape:connector-curvature="0"
       id="path14548"
       style="fill:#000000" />
    <path
       d="m 242.55829,354.61185 c 2.20133,2.20133 3.56671,5.23517 3.56671,8.57565 l 353.55339,353.55339 c 0,-3.34047 -1.36538,-6.37432 -3.56671,-8.57565 z"
       inkscape:connector-curvature="0"
       id="path14550"
       style="fill:#000000" />
    <path
       d="m 246.125,363.1875 c 0,6.72776 -5.48243,12.1875 -12.1875,12.1875 l 353.55339,353.55339 c 6.70507,0 12.1875,-5.45974 12.1875,-12.1875 z"
       inkscape:connector-curvature="0"
       id="path14552"
       style="fill:#000000" />
    <path
       d="m 233.9375,375.375 c -3.34968,0 -6.36954,-1.35063 -8.55764,-3.53872 l 353.55339,353.55339 c 2.1881,2.18809 5.20796,3.53872 8.55764,3.53872 z"
       inkscape:connector-curvature="0"
       id="path14554"
       style="fill:#000000" />
    <path
       d="m 225.37986,371.83628 c -2.20664,-2.20665 -3.56736,-5.26501 -3.56736,-8.64878 l 353.55339,353.55339 c 0,3.38377 1.36072,6.44214 3.56736,8.64878 z"
       inkscape:connector-curvature="0"
       id="path14556"
       style="fill:#000000" />
    <path
       d="m 221.8125,363.1875 c 0,-6.68239 5.40858,-12.15625 12.125,-12.15625 l 353.55339,353.55339 c -6.71642,0 -12.125,5.47386 -12.125,12.15625 z"
       inkscape:connector-curvature="0"
       id="path14558"
       style="fill:#000000" />
    <path
       d="m 344.0625,354.34375 c 6.02508,0 11.47097,2.44009 15.41031,6.37943 L 713.0262,714.27657 c -3.93933,-3.93934 -9.38523,-6.37943 -15.41031,-6.37943 z"
       inkscape:connector-curvature="0"
       id="path14560"
       style="fill:#000000" />
    <path
       d="m 359.47281,360.72318 c 3.93839,3.93839 6.37094,9.3753 6.37094,15.37057 l 353.55339,353.55339 c 0,-5.99527 -2.43255,-11.43218 -6.37094,-15.37057 z"
       inkscape:connector-curvature="0"
       id="path14562"
       style="fill:#000000" />
    <path
       d="m 365.84375,376.09375 c 0,12.00333 -9.73254,21.75 -21.78125,21.75 l 353.55339,353.55339 c 12.04871,0 21.78125,-9.74667 21.78125,-21.75 z"
       inkscape:connector-curvature="0"
       id="path14564"
       style="fill:#000000" />
    <path
       d="m 344.0625,397.84375 c -5.99102,0 -11.41667,-2.4298 -15.34659,-6.35971 L 682.2693,745.03743 c 3.92992,3.92991 9.35557,6.35971 15.34659,6.35971 z"
       inkscape:connector-curvature="0"
       id="path14566"
       style="fill:#000000" />
    <path
       d="m 328.71591,391.48404 c -3.93643,-3.93644 -6.37216,-9.37797 -6.37216,-15.39029 l 353.55339,353.55339 c 0,6.01232 2.43573,11.45385 6.37216,15.39029 z"
       inkscape:connector-curvature="0"
       id="path14568"
       style="fill:#000000" />
    <path
       d="m 322.34375,376.09375 c 0,-11.99198 9.72677,-21.75 21.71875,-21.75 l 353.55339,353.55339 c -11.99198,0 -21.71875,9.75802 -21.71875,21.75 z"
       inkscape:connector-curvature="0"
       id="path14570"
       style="fill:#000000" />
    <path
       d="m 282.84375,397 c 2.63992,0 5.03692,1.0731 6.77074,2.80692 l 353.55339,353.55339 c -1.73382,-1.73382 -4.13082,-2.80692 -6.77074,-2.80692 z"
       inkscape:connector-curvature="0"
       id="path14572"
       style="fill:#000000" />
    <path
       d="m 289.61449,399.80692 c 1.72356,1.72355 2.79176,4.10003 2.79176,6.72433 l 353.55339,353.55339 c 0,-2.6243 -1.0682,-5.00077 -2.79176,-6.72433 z"
       inkscape:connector-curvature="0"
       id="path14574"
       style="fill:#000000" />
    <path
       d="m 292.40625,406.53125 c -0.0114,5.25288 -4.30962,9.53125 -9.5625,9.53125 l 353.55339,353.55339 c 5.25288,0 9.5511,-4.27837 9.5625,-9.53125 z"
       inkscape:connector-curvature="0"
       id="path14576"
       style="fill:#000000" />
    <path
       d="m 282.84375,416.0625 c -2.63069,0 -5.01235,-1.06844 -6.73692,-2.793 l 353.55339,353.55339 c 1.72457,1.72456 4.10623,2.793 6.73692,2.793 z"
       inkscape:connector-curvature="0"
       id="path14578"
       style="fill:#000000" />
    <path
       d="m 276.10683,413.2695 c -1.72642,-1.72643 -2.79433,-4.11039 -2.79433,-6.73825 l 353.55339,353.55339 c 0,2.62786 1.06791,5.01182 2.79433,6.73825 z"
       inkscape:connector-curvature="0"
       id="path14580"
       style="fill:#000000" />
    <path
       d="m 273.3125,406.53125 c 0,-5.26422 4.26703,-9.53125 9.53125,-9.53125 l 353.55339,353.55339 c -5.26422,0 -9.53125,4.26703 -9.53125,9.53125 z"
       inkscape:connector-curvature="0"
       id="path14582"
       style="fill:#000000" />
    <path
       d="m 366.5,406.53125 c 2.00318,0 3.81303,0.80647 5.1195,2.11294 l 353.55339,353.55339 c -1.30647,-1.30647 -3.11632,-2.11294 -5.1195,-2.11294 z"
       inkscape:connector-curvature="0"
       id="path14584"
       style="fill:#000000" />
    <path
       d="m 371.6195,408.64419 c 1.29811,1.29811 2.09925,3.08984 2.09925,5.07456 l 353.55339,353.55339 c 0,-1.98471 -0.80114,-3.77645 -2.09925,-5.07456 z"
       inkscape:connector-curvature="0"
       id="path14586"
       style="fill:#000000" />
    <path
       d="m 373.71875,413.71875 c -0.0113,3.99354 -3.23655,7.21875 -7.21875,7.21875 l 353.55339,353.55339 c 3.9822,0 7.20745,-3.22521 7.21875,-7.21875 z"
       inkscape:connector-curvature="0"
       id="path14588"
       style="fill:#000000" />
    <path
       d="m 366.5,420.9375 c -1.98046,0 -3.77332,-0.80228 -5.07306,-2.10202 l 353.55339,353.55339 c 1.29974,1.29974 3.0926,2.10202 5.07306,2.10202 z"
       inkscape:connector-curvature="0"
       id="path14590"
       style="fill:#000000" />
    <path
       d="m 361.42694,418.83548 c -1.30625,-1.30625 -2.11444,-3.11497 -2.11444,-5.11673 l 353.55339,353.55339 c 0,2.00176 0.80819,3.81048 2.11444,5.11673 z"
       inkscape:connector-curvature="0"
       id="path14592"
       style="fill:#000000" />
    <path
       d="m 359.3125,413.71875 c 0,-3.9822 3.21665,-7.1875 7.1875,-7.1875 l 353.55339,353.55339 c -3.97085,0 -7.1875,3.2053 -7.1875,7.1875 z"
       inkscape:connector-curvature="0"
       id="path14594"
       style="fill:#000000" />
    <path
       d="m 170.46875,406.5625 c 1.98685,0 3.79269,0.81029 5.10124,2.11885 l 353.5534,353.55339 c -1.30856,-1.30856 -3.1144,-2.11885 -5.10125,-2.11885 z"
       inkscape:connector-curvature="0"
       id="path14596"
       style="fill:#000000" />
    <path
       d="m 175.56999,408.68135 c 1.30669,1.30669 2.11751,3.11022 2.11751,5.0999 l 353.55339,353.55339 c 0,-1.98968 -0.81081,-3.79321 -2.1175,-5.0999 z"
       inkscape:connector-curvature="0"
       id="path14598"
       style="fill:#000000" />
    <path
       d="m 177.6875,413.78125 c 0,3.99355 -3.24789,7.21875 -7.21875,7.21875 l 353.55339,353.55339 c 3.97086,0 7.21875,-3.2252 7.21875,-7.21875 z"
       inkscape:connector-curvature="0"
       id="path14600"
       style="fill:#000000" />
    <path
       d="m 170.46875,421 c -1.99252,0 -3.79836,-0.80745 -5.10549,-2.11458 l 353.55339,353.55339 c 1.30714,1.30713 3.11297,2.11458 5.10549,2.11458 z"
       inkscape:connector-curvature="0"
       id="path14602"
       style="fill:#000000" />
    <path
       d="M 165.36326,418.88542 C 164.05799,417.58014 163.25,415.7766 163.25,413.78125 l 353.55339,353.55339 c 0,1.99535 0.80799,3.79889 2.11326,5.10417 z"
       inkscape:connector-curvature="0"
       id="path14604"
       style="fill:#000000" />
    <path
       d="m 163.25,413.78125 c 0,-3.9822 3.23655,-7.21875 7.21875,-7.21875 l 353.55339,353.55339 c -3.9822,0 -7.21875,3.23655 -7.21875,7.21875 z"
       inkscape:connector-curvature="0"
       id="path14606"
       style="fill:#000000" />
  </g>
  <path
     d="m 147.28125,44.3125 0,29.4375 22.25,0 c -0.2496,20.750552 -0.91318,87.8555 0.0625,116.21875 -0.17018,6.48951 -16.14578,28.28959 -29,45.75 -8.00978,10.95956 -16.86085,23.03511 -25.6875,35.96875 C 88.664576,310.3069 63.243796,355.55117 52.375,374.90625 l -2.90625,5.15625 c -11.186464,19.74082 -11.291963,46.6469 -0.34375,65.46875 8.316104,14.27239 21.679081,22.15625 37.5625,22.15625 l 338.625,0 0.0313,0 c 15.86073,0 29.21514,-7.88386 37.53125,-22.15625 10.95518,-18.81432 10.80947,-45.66485 -0.375,-65.4375 l -2.875,-5.125 c -10.86884,-19.34374 -36.27828,-64.60791 -62.5313,-103.25 C 388.27845,258.77377 379.41881,246.69821 371.375,235.75 358.53212,218.24421 342.56509,196.48672 342.40625,190.03125 343.3706,161.64531 342.69568,94.511897 342.46875,73.75 l 16.78125,0 0,-29.4375 -211.96875,0 z m 46.53125,35.5 124.40625,0 c 0.24959,25.36809 0.73725,84.10902 -0.125,109.375 -0.48784,13.7505 11.2039,30.32788 33.65625,60.9375 7.87363,10.74399 16.58498,22.57452 25.21875,35.28125 25.67441,37.74581 50.72754,82.36884 61.4375,101.40625 l 2.90625,5.25 c 6.90928,12.16216 7.11431,29.90749 0.5,41.21875 -3.88009,6.68238 -9.40918,10.0625 -16.5,10.0625 l -338.625,0 c -7.045431,0 -12.608562,-3.36877 -16.5,-10.0625 -6.602964,-11.32261 -6.397942,-29.05659 0.5,-41.21875 l 2.90625,-5.25 c 10.698617,-19.03741 35.76031,-63.66044 61.46875,-101.40625 8.61109,-12.71808 17.29118,-24.53726 25.1875,-35.28125 22.441,-30.59828 34.15265,-47.187 33.6875,-60.9375 -0.88494,-25.26598 -0.39728,-84.00691 -0.125,-109.375 z m -59,225.90625 c -3.75529,5.16211 -7.67684,10.54352 -11.625,16.375 -15.42961,22.6906 -30.416537,49.31095 -36.78125,60.65625 l -1.6875,3.03125 c -6.568928,11.60624 -6.63163,27.42698 -0.1875,38.5 4.912515,8.38417 12.725323,13.03125 22.0625,13.03125 l 21.21875,0 78.6875,0 99.15625,0 79.15625,0 20.75,0 c 9.32584,0 17.14999,-4.64708 22.0625,-13.03125 6.39875,-11.07302 6.37287,-26.89376 -0.21875,-38.5 l -1.6875,-3.03125 -0.0313,0 c -6.3874,-11.3453 -21.3403,-37.9543 -36.78125,-60.65625 -3.94816,-5.83148 -7.85836,-11.21289 -11.625,-16.375 0,0 -19.57473,8.10553 -79.875,10.125 -60.32295,2.04215 -70.48102,17.25929 -104.4375,14.21875 -33.95647,-3.05189 -58.15625,-24.34375 -58.15625,-24.34375 z m 13.25,40.375 c 11.12974,0 20.15625,9.01517 20.15625,20.15625 0,11.12974 -9.02651,20.1875 -20.15625,20.1875 -11.12974,0 -20.1875,-9.04642 -20.1875,-20.1875 0,-11.14108 9.05776,-20.15625 20.1875,-20.15625 z m 85.875,4.9375 c 6.70507,0 12.1875,5.46252 12.1875,12.15625 0,6.72776 -5.48243,12.1875 -12.1875,12.1875 -6.72776,0 -12.125,-5.4484 -12.125,-12.1875 0,-6.68239 5.40858,-12.15625 12.125,-12.15625 z m 110.125,3.3125 c 12.04871,0 21.78125,9.75802 21.78125,21.75 0,12.00333 -9.73254,21.75 -21.78125,21.75 -11.99198,0 -21.71875,-9.73533 -21.71875,-21.75 0,-11.99198 9.72677,-21.75 21.71875,-21.75 z M 282.84375,397 c 5.26422,0 9.5625,4.26703 9.5625,9.53125 -0.0114,5.25288 -4.30962,9.53125 -9.5625,9.53125 -5.26422,0 -9.53125,-4.27837 -9.53125,-9.53125 0,-5.26422 4.26703,-9.53125 9.53125,-9.53125 z M 366.5,406.53125 c 3.99355,0 7.21875,3.2053 7.21875,7.1875 -0.0113,3.99354 -3.23655,7.21875 -7.21875,7.21875 -3.97085,0 -7.1875,-3.22521 -7.1875,-7.21875 0,-3.9822 3.21665,-7.1875 7.1875,-7.1875 z m -196.03125,0.0313 c 3.97086,0 7.21875,3.23655 7.21875,7.21875 0,3.99355 -3.24789,7.21875 -7.21875,7.21875 -3.9822,0 -7.21875,-3.2252 -7.21875,-7.21875 0,-3.9822 3.23655,-7.21875 7.21875,-7.21875 z"
     inkscape:connector-curvature="0"
     id="path14229"
     style="fill:#ffffff" />
</svg>
