<?xml version="1.0" encoding="UTF-8" standalone="no"?>
<!-- Created with Inkscape (http://www.inkscape.org/) -->

<svg
   xmlns:dc="http://purl.org/dc/elements/1.1/"
   xmlns:cc="http://creativecommons.org/ns#"
   xmlns:rdf="http://www.w3.org/1999/02/22-rdf-syntax-ns#"
   xmlns:svg="http://www.w3.org/2000/svg"
   xmlns="http://www.w3.org/2000/svg"
   xmlns:inkscape="http://www.inkscape.org/namespaces/inkscape"
   version="1.1"
   width="100%"
   height="100%"
   viewBox="0 0 512 512"
   id="svg2">
  <metadata
     id="metadata10">
    <rdf:RDF>
      <cc:Work
         rdf:about="">
        <dc:format>image/svg+xml</dc:format>
        <dc:type
           rdf:resource="http://purl.org/dc/dcmitype/StillImage" />
        <dc:title />
      </cc:Work>
    </rdf:RDF>
  </metadata>
  <defs
     id="defs8">
    <clipPath
       id="clipPath5540">
      <path
         d="M 26,0 C 11.602648,0 0,11.602648 0,26 l 0,460 c 0,14.39735 11.602648,26 26,26 l 460,0 c 14.39735,0 26,-11.60265 26,-26 L 512,26 C 512,11.602648 500.39735,0 486,0 L 26,0 z"
         inkscape:connector-curvature="0"
         id="path5542"
         style="fill:none;fill-opacity:1;stroke:none" />
    </clipPath>
  </defs>
  <path
     d="M 26,0 C 11.602648,0 0,11.602648 0,26 l 0,460 c 0,14.39735 11.602648,26 26,26 l 460,0 c 14.39735,0 26,-11.60265 26,-26 L 512,26 C 512,11.602648 500.39735,0 486,0 L 26,0 z"
     inkscape:connector-curvature="0"
     id="rect2986"
     style="fill:none;fill-opacity:1;stroke:none" />
  <g
     clip-path="url(#clipPath5540)"
     id="g5244"
     style="opacity:0.0;fill:#000000">
    <path
       d="m 460.1875,61.09375 c 0,0 -2.59491,4.79201 -24.6875,6.21875 l 353.55339,353.55339 c 22.09259,-1.42674 24.6875,-6.21875 24.6875,-6.21875 z"
       inkscape:connector-curvature="0"
       id="path5246"
       style="fill:#000000" />
    <path
       d="M 435.5,67.3125 C 413.41616,68.739241 396.84375,90.125 396.84375,90.125 l 353.55339,353.55339 c 0,0 16.57241,-21.38576 38.65625,-22.8125 z"
       inkscape:connector-curvature="0"
       id="path5248"
       style="fill:#000000" />
    <path
       d="m 396.84375,90.125 0.1875,0.09375 353.55339,353.55339 -0.1875,-0.0937 z"
       inkscape:connector-curvature="0"
       id="path5250"
       style="fill:#000000" />
    <path
       d="m 397.03125,90.21875 c -0.92782,0.910313 -1.82971,1.882148 -2.6875,2.90625 l 353.55339,353.55339 c 0.85779,-1.0241 1.75968,-1.99594 2.6875,-2.90625 z"
       inkscape:connector-curvature="0"
       id="path5252"
       style="fill:#000000" />
    <path
       d="m 394.34375,93.125 c -14.21791,16.95053 -12.89961,41.77023 2.45456,57.1244 L 750.3517,503.80279 c -15.35417,-15.35417 -16.67247,-40.17387 -2.45456,-57.1244 z"
       inkscape:connector-curvature="0"
       id="path5254"
       style="fill:#000000" />
    <path
       d="m 396.79831,150.2494 c 0.87582,0.87582 1.79731,1.72084 2.76419,2.53185 l 353.55339,353.55339 c -0.96688,-0.81101 -1.88837,-1.65603 -2.76419,-2.53185 z"
       inkscape:connector-curvature="0"
       id="path5256"
       style="fill:#000000" />
    <path
       d="m 399.5625,152.78125 c 17.91741,15.02892 44.59608,12.66741 59.625,-5.25 l 353.55339,353.55339 c -15.02892,17.91741 -41.70759,20.27892 -59.625,5.25 z"
       inkscape:connector-curvature="0"
       id="path5258"
       style="fill:#000000" />
    <path
       d="m 459.1875,147.53125 c 5.44437,-6.48598 8.59092,-14.13481 9.5625,-21.96875 l 353.55339,353.55339 c -0.97158,7.83394 -4.11813,15.48277 -9.5625,21.96875 z"
       inkscape:connector-curvature="0"
       id="path5260"
       style="fill:#000000" />
    <path
       d="m 468.75,125.5625 0.0313,0 353.55339,353.55339 -0.0313,0 z"
       inkscape:connector-curvature="0"
       id="path5262"
       style="fill:#000000" />
    <path
       d="M 468.78125,125.5625 C 476.91279,87.075521 460.1875,61.09375 460.1875,61.09375 l 353.55339,353.55339 c 0,0 16.72529,25.98177 8.59375,64.46875 z"
       inkscape:connector-curvature="0"
       id="path5264"
       style="fill:#000000" />
    <path
       d="m 245.65625,81.34375 c -12.67239,-0.0086 -26.03532,1.037744 -40.09375,3.28125 l 353.55339,353.55339 c 14.05843,-2.24351 27.42136,-3.28981 40.09375,-3.28125 z"
       inkscape:connector-curvature="0"
       id="path5266"
       style="fill:#000000" />
    <path
       d="M 205.5625,84.625 C 44.961176,110.24941 -7.1830444,302.71554 89.825015,399.7236 L 443.37841,753.27699 C 346.37035,656.26893 398.51457,463.80281 559.11589,438.17839 z"
       inkscape:connector-curvature="0"
       id="path5268"
       style="fill:#000000" />
    <path
       d="m 89.825015,399.7236 c 2.336218,2.33622 4.75894,4.61707 7.268735,6.8389 l 353.55339,353.55339 c -2.50979,-2.22183 -4.93252,-4.50268 -7.26873,-6.8389 z"
       inkscape:connector-curvature="0"
       id="path5270"
       style="fill:#000000" />
    <path
       d="m 97.09375,406.5625 c 99.88059,88.40539 152.26824,28.203 190.125,-38.6875 l 353.55339,353.55339 c -37.85676,66.8905 -90.24441,127.09289 -190.125,38.6875 z"
       inkscape:connector-curvature="0"
       id="path5272"
       style="fill:#000000" />
    <path
       d="m 287.21875,367.875 c 4.28022,-7.57135 14.41452,-12.01282 23.0625,-11.09375 l 353.55339,353.55339 c -8.64798,-0.91907 -18.78228,3.5224 -23.0625,11.09375 z"
       inkscape:connector-curvature="0"
       id="path5274"
       style="fill:#000000" />
    <path
       d="m 310.28125,356.78125 c 27.53696,2.92351 83.95453,-0.15252 103.5,-69.1875 l 353.55339,353.55339 c -19.54547,69.03498 -75.96304,72.11101 -103.5,69.1875 z"
       inkscape:connector-curvature="0"
       id="path5276"
       style="fill:#000000" />
    <path
       d="m 413.78125,287.59375 c 5.47063,-19.34415 6.70099,-40.58769 3.8125,-61.875 l 353.55339,353.55339 c 2.88849,21.28731 1.65813,42.53085 -3.8125,61.875 z"
       inkscape:connector-curvature="0"
       id="path5278"
       style="fill:#000000" />
    <path
       d="M 417.59375,225.71875 384.125,270.9375 737.67839,624.49089 771.14714,579.27214 z"
       inkscape:connector-curvature="0"
       id="path5280"
       style="fill:#000000" />
    <path
       d="m 384.125,270.9375 c -3.31423,4.47303 -7.23352,8.28974 -11.4375,11.375 l 353.55339,353.55339 c 4.20398,-3.08526 8.12327,-6.90197 11.4375,-11.375 z"
       inkscape:connector-curvature="0"
       id="path5282"
       style="fill:#000000" />
    <path
       d="m 372.6875,282.3125 c -9.68083,12.95445 -23.51829,19.68264 -35.78125,15.65625 l 353.55339,353.55339 c 12.26296,4.02639 26.10042,-2.7018 35.78125,-15.65625 z"
       inkscape:connector-curvature="0"
       id="path5284"
       style="fill:#000000" />
    <path
       d="m 336.90625,297.96875 c -3.6644,-1.20001 -6.88299,-3.24993 -9.59872,-5.96565 l 353.5534,353.55339 c 2.71572,2.71572 5.93431,4.76564 9.59871,5.96565 z"
       inkscape:connector-curvature="0"
       id="path5286"
       style="fill:#000000" />
    <path
       d="M 327.30753,292.0031 C 317.46454,282.1601 314.22747,263.57066 320.3125,245 l 353.55339,353.55339 c -6.08503,18.57066 -2.84796,37.1601 6.99504,47.0031 z"
       inkscape:connector-curvature="0"
       id="path5288"
       style="fill:#000000" />
    <path
       d="m 320.3125,245 c 2.44209,-7.44881 6.15475,-13.86567 10.53125,-19.1875 l 353.55339,353.55339 c -4.3765,5.32183 -8.08916,11.73869 -10.53125,19.1875 z"
       inkscape:connector-curvature="0"
       id="path5290"
       style="fill:#000000" />
    <path
       d="m 330.84375,225.8125 28.6875,-67.34375 353.55339,353.55339 -28.6875,67.34375 z"
       inkscape:connector-curvature="0"
       id="path5292"
       style="fill:#000000" />
    <path
       d="m 359.53125,158.46875 11.8125,-27.78125 353.55339,353.55339 -11.8125,27.78125 z"
       inkscape:connector-curvature="0"
       id="path5294"
       style="fill:#000000" />
    <path
       d="m 371.34375,130.6875 c -0.29302,-0.29764 -0.58738,-0.59431 -0.88308,-0.89001 l 353.5534,353.55339 c 0.29569,0.2957 0.59005,0.59237 0.88307,0.89001 z"
       inkscape:connector-curvature="0"
       id="path5296"
       style="fill:#000000" />
    <path
       d="M 370.46067,129.79749 C 341.61125,100.94806 300.01278,81.380488 245.65625,81.34375 l 353.55339,353.55339 c 54.35653,0.0367 95.955,19.60432 124.80443,48.45374 z"
       inkscape:connector-curvature="0"
       id="path5298"
       style="fill:#000000" />
    <path
       d="m 213.03125,125.3125 c 18.83648,0 34.125,15.28852 34.125,34.125 l 353.55339,353.55339 c 0,-18.83648 -15.28852,-34.125 -34.125,-34.125 z"
       inkscape:connector-curvature="0"
       id="path5300"
       style="fill:#000000" />
    <path
       d="m 247.15625,159.4375 c 0,18.84523 -15.27977,34.09375 -34.125,34.09375 l 353.55339,353.55339 c 18.84523,0 34.125,-15.24852 34.125,-34.09375 z"
       inkscape:connector-curvature="0"
       id="path5302"
       style="fill:#000000" />
    <path
       d="m 213.03125,193.53125 c -9.43043,0 -17.96801,-3.81845 -24.14482,-9.99526 l 353.55339,353.55339 c 6.17681,6.17681 14.71439,9.99526 24.14482,9.99526 z"
       inkscape:connector-curvature="0"
       id="path5304"
       style="fill:#000000" />
    <path
       d="m 188.88643,183.53599 c -6.16657,-6.16657 -9.98018,-14.68369 -9.98018,-24.09849 l 353.55339,353.55339 c 0,9.4148 3.81361,17.93192 9.98018,24.09849 z"
       inkscape:connector-curvature="0"
       id="path5306"
       style="fill:#000000" />
    <path
       d="m 178.90625,159.4375 c 0,-18.83648 15.27977,-34.125 34.125,-34.125 l 353.55339,353.55339 c -18.84523,0 -34.125,15.28852 -34.125,34.125 z"
       inkscape:connector-curvature="0"
       id="path5308"
       style="fill:#000000" />
    <path
       d="m 381.125,137.15625 -12.15625,28.5625 353.55339,353.55339 12.15625,-28.5625 z"
       inkscape:connector-curvature="0"
       id="path5310"
       style="fill:#000000" />
    <path
       d="m 368.96875,165.71875 c 10.73119,10.68743 34.27387,29.27511 55.71875,28.96875 l 353.55339,353.55339 c -21.44488,0.30636 -44.98756,-18.28132 -55.71875,-28.96875 z"
       inkscape:connector-curvature="0"
       id="path5312"
       style="fill:#000000" />
    <path
       d="m 424.6875,194.6875 22.21875,-29.96875 353.55339,353.55339 -22.21875,29.96875 z"
       inkscape:connector-curvature="0"
       id="path5314"
       style="fill:#000000" />
    <path
       d="m 446.90625,164.71875 c -16.5782,7.35252 -36.63616,5.26427 -51.4375,-7.15625 l 353.55339,353.55339 c 14.80134,12.42052 34.8593,14.50877 51.4375,7.15625 z"
       inkscape:connector-curvature="0"
       id="path5316"
       style="fill:#000000" />
    <path
       d="m 395.46875,157.5625 c -1.09044,-0.91557 -2.12978,-1.86932 -3.11808,-2.85762 l 353.55339,353.55339 c 0.9883,0.9883 2.02764,1.94205 3.11808,2.85762 z"
       inkscape:connector-curvature="0"
       id="path5318"
       style="fill:#000000" />
    <path
       d="m 392.35067,154.70488 c -5.09644,-5.09644 -8.83566,-11.11173 -11.22567,-17.54863 l 353.55339,353.55339 c 2.39001,6.4369 6.12923,12.45219 11.22567,17.54863 z"
       inkscape:connector-curvature="0"
       id="path5320"
       style="fill:#000000" />
    <path
       d="m 138.25,184.34375 c 9.42152,0 17.95188,3.82124 24.12731,9.99667 L 515.9307,547.89381 c -6.17543,-6.17543 -14.70579,-9.99667 -24.12731,-9.99667 z"
       inkscape:connector-curvature="0"
       id="path5322"
       style="fill:#000000" />
    <path
       d="m 162.37731,194.34042 c 6.17686,6.17686 9.99769,14.709 9.99769,24.12833 l 353.55339,353.55339 c 0,-9.41933 -3.82083,-17.95147 -9.99769,-24.12833 z"
       inkscape:connector-curvature="0"
       id="path5324"
       style="fill:#000000" />
    <path
       d="m 172.375,218.46875 c 0,18.84523 -15.27977,34.125 -34.125,34.125 l 353.55339,353.55339 c 18.84523,0 34.125,-15.27977 34.125,-34.125 z"
       inkscape:connector-curvature="0"
       id="path5326"
       style="fill:#000000" />
    <path
       d="m 138.25,252.59375 c -9.91854,0 -18.84942,-4.23262 -25.08477,-10.99 l 353.55339,353.5534 c 6.23535,6.75737 15.16623,10.98999 25.08477,10.98999 z"
       inkscape:connector-curvature="0"
       id="path5328"
       style="fill:#000000" />
    <path
       d="m 113.16523,241.60375 c -5.61181,-6.08163 -9.04023,-14.20831 -9.04023,-23.135 l 353.55339,353.55339 c 0,8.92669 3.42843,17.05337 9.04023,23.13501 z"
       inkscape:connector-curvature="0"
       id="path5330"
       style="fill:#000000" />
    <path
       d="m 104.125,218.46875 c 0,-18.83647 15.27977,-34.125 34.125,-34.125 l 353.55339,353.55339 c -18.84523,0 -34.125,15.28853 -34.125,34.125 z"
       inkscape:connector-curvature="0"
       id="path5332"
       style="fill:#000000" />
    <path
       d="m 359.71875,187.375 -26.4375,62.15625 353.55339,353.55339 26.4375,-62.15625 z"
       inkscape:connector-curvature="0"
       id="path5334"
       style="fill:#000000" />
    <path
       d="m 333.28125,249.53125 c -5.1169,12.01731 -4.03214,25.15154 2.12692,31.3106 l 353.55339,353.55339 c -6.15906,-6.15906 -7.24382,-19.29329 -2.12692,-31.3106 z"
       inkscape:connector-curvature="0"
       id="path5336"
       style="fill:#000000" />
    <path
       d="m 335.40817,280.84185 c 0.75678,0.75678 1.59017,1.40825 2.49808,1.9394 l 353.55339,353.55339 c -0.90791,-0.53115 -1.7413,-1.18262 -2.49808,-1.9394 z"
       inkscape:connector-curvature="0"
       id="path5338"
       style="fill:#000000" />
    <path
       d="m 337.90625,282.78125 0.0313,0 353.55339,353.55339 -0.0313,0 z"
       inkscape:connector-curvature="0"
       id="path5340"
       style="fill:#000000" />
    <path
       d="m 337.9375,282.78125 c 8.32673,4.81504 22.13934,-0.82881 30.875,-12.625 l 353.55339,353.55339 c -8.73566,11.79619 -22.54827,17.44004 -30.875,12.625 z"
       inkscape:connector-curvature="0"
       id="path5342"
       style="fill:#000000" />
    <path
       d="m 368.8125,270.15625 40.71875,-55 353.55339,353.55339 -40.71875,55 z"
       inkscape:connector-curvature="0"
       id="path5344"
       style="fill:#000000" />
    <path
       d="M 409.53125,215.15625 C 390.56348,210.79725 373.56626,199.05691 362.625,189.875 l 353.55339,353.55339 c 10.94126,9.18191 27.93848,20.92225 46.90625,25.28125 z"
       inkscape:connector-curvature="0"
       id="path5346"
       style="fill:#000000" />
    <path
       d="m 362.625,189.875 c -1.01535,-0.85779 -1.99594,-1.69472 -2.90625,-2.5 l 353.55339,353.55339 c 0.91031,0.80528 1.8909,1.64221 2.90625,2.5 z"
       inkscape:connector-curvature="0"
       id="path5348"
       style="fill:#000000" />
    <path
       d="m 118.5625,272.28125 c 9.42261,0 17.95386,3.81994 24.12946,9.99554 l 353.55339,353.55339 c -6.1756,-6.1756 -14.70685,-9.99554 -24.12946,-9.99554 z"
       inkscape:connector-curvature="0"
       id="path5350"
       style="fill:#000000" />
    <path
       d="m 142.69196,282.27679 c 6.1756,6.1756 9.99554,14.70685 9.99554,24.12946 l 353.55339,353.55339 c 0,-9.42261 -3.81994,-17.95386 -9.99554,-24.12946 z"
       inkscape:connector-curvature="0"
       id="path5352"
       style="fill:#000000" />
    <path
       d="m 152.6875,306.40625 c 0,18.83648 -15.27977,34.09375 -34.125,34.09375 l 353.55339,353.55339 c 18.84523,0 34.125,-15.25727 34.125,-34.09375 z"
       inkscape:connector-curvature="0"
       id="path5354"
       style="fill:#000000" />
    <path
       d="m 118.5625,340.5 c -9.42605,0 -17.96364,-3.82065 -24.141545,-9.99855 L 447.97435,684.05484 c 6.1779,6.1779 14.71549,9.99855 24.14154,9.99855 z"
       inkscape:connector-curvature="0"
       id="path5356"
       style="fill:#000000" />
    <path
       d="M 94.420955,330.50145 C 88.253293,324.33379 84.4375,315.81668 84.4375,306.40625 l 353.55339,353.55339 c 0,9.41043 3.81579,17.92754 9.98346,24.0952 z"
       inkscape:connector-curvature="0"
       id="path5358"
       style="fill:#000000" />
    <path
       d="m 84.4375,306.40625 c 0,-18.83647 15.279773,-34.125 34.125,-34.125 l 353.55339,353.55339 c -18.84523,0 -34.125,15.28853 -34.125,34.125 z"
       inkscape:connector-curvature="0"
       id="path5360"
       style="fill:#000000" />
    <path
       d="m 185.5,340.5 c 9.4148,0 17.93192,3.81361 24.09849,9.98018 l 353.55339,353.55339 c -6.16657,-6.16657 -14.68369,-9.98018 -24.09849,-9.98018 z"
       inkscape:connector-curvature="0"
       id="path5362"
       style="fill:#000000" />
    <path
       d="m 209.59849,350.48018 c 6.17681,6.17681 9.99526,14.71439 9.99526,24.14482 l 353.55339,353.55339 c 0,-9.43043 -3.81845,-17.96801 -9.99526,-24.14482 z"
       inkscape:connector-curvature="0"
       id="path5364"
       style="fill:#000000" />
    <path
       d="m 219.59375,374.625 c 0,18.83648 -15.24852,34.125 -34.09375,34.125 l 353.55339,353.55339 c 18.84523,0 34.09375,-15.28852 34.09375,-34.125 z"
       inkscape:connector-curvature="0"
       id="path5366"
       style="fill:#000000" />
    <path
       d="m 185.5,408.75 c -9.42152,0 -17.95188,-3.82124 -24.12731,-9.99667 l 353.55339,353.55339 c 6.17543,6.17543 14.70579,9.99667 24.12731,9.99667 z"
       inkscape:connector-curvature="0"
       id="path5368"
       style="fill:#000000" />
    <path
       d="m 161.37269,398.75333 c -6.17686,-6.17686 -9.99769,-14.709 -9.99769,-24.12833 l 353.55339,353.55339 c 0,9.41933 3.82083,17.95147 9.99769,24.12833 z"
       inkscape:connector-curvature="0"
       id="path5370"
       style="fill:#000000" />
    <path
       d="m 151.375,374.625 c 0,-18.84523 15.27977,-34.125 34.125,-34.125 l 353.55339,353.55339 c -18.84523,0 -34.125,15.27977 -34.125,34.125 z"
       inkscape:connector-curvature="0"
       id="path5372"
       style="fill:#000000" />
  </g>
  <path
     d="m 460.1875,61.09375 c 0,0 -2.59491,4.79201 -24.6875,6.21875 -22.08384,1.426741 -38.65625,22.8125 -38.65625,22.8125 l 0.1875,0.09375 c -0.92782,0.910313 -1.82971,1.882148 -2.6875,2.90625 -15.02892,17.91741 -12.69866,44.62733 5.21875,59.65625 17.91741,15.02892 44.59608,12.66741 59.625,-5.25 5.44437,-6.48598 8.59092,-14.13481 9.5625,-21.96875 l 0.0313,0 c 8.13149,-38.486979 -8.5938,-64.46875 -8.5938,-64.46875 z m -214.53125,20.25 C 232.98386,81.335185 219.62093,82.381494 205.5625,84.625 41.093461,110.86652 -9.6316903,312.08252 97.09375,406.5625 c 99.88059,88.40539 152.26824,28.203 190.125,-38.6875 4.28022,-7.57135 14.41452,-12.01282 23.0625,-11.09375 27.53696,2.92351 83.95453,-0.15252 103.5,-69.1875 5.47063,-19.34415 6.70099,-40.58769 3.8125,-61.875 L 384.125,270.9375 c -3.31423,4.47303 -7.23352,8.28974 -11.4375,11.375 -9.68083,12.95445 -23.51829,19.68264 -35.78125,15.65625 C 319.96042,292.41935 312.54858,268.69439 320.3125,245 c 2.44209,-7.44881 6.15475,-13.86567 10.53125,-19.1875 l 28.6875,-67.34375 11.8125,-27.78125 C 342.46265,101.35124 300.56992,81.380865 245.65625,81.34375 z m -32.625,43.96875 c 18.83648,0 34.125,15.28852 34.125,34.125 0,18.84523 -15.27977,34.09375 -34.125,34.09375 -18.84523,0 -34.125,-15.24852 -34.125,-34.09375 0,-18.83648 15.27977,-34.125 34.125,-34.125 z m 168.09375,11.84375 -12.15625,28.5625 c 10.73119,10.68743 34.27387,29.27511 55.71875,28.96875 l 22.21875,-29.96875 c -16.5782,7.35252 -36.63616,5.26427 -51.4375,-7.15625 -6.71356,-5.63694 -11.49027,-12.72111 -14.34375,-20.40625 z m -242.875,47.1875 c 18.84523,0 34.125,15.28853 34.125,34.125 0,18.84523 -15.27977,34.125 -34.125,34.125 -18.84523,0 -34.125,-15.27977 -34.125,-34.125 0,-18.83647 15.27977,-34.125 34.125,-34.125 z m 221.46875,3.03125 -26.4375,62.15625 c -5.74563,13.49391 -3.67193,28.39608 4.625,33.25 l 0.0313,0 c 8.32673,4.81504 22.13934,-0.82881 30.875,-12.625 l 40.71875,-55 c -18.96777,-4.359 -35.96499,-16.09934 -46.90625,-25.28125 -1.01535,-0.85779 -1.99594,-1.69472 -2.90625,-2.5 z M 118.5625,272.28125 c 18.84523,0 34.125,15.27978 34.125,34.125 0,18.83648 -15.27977,34.09375 -34.125,34.09375 -18.836474,0 -34.125,-15.25727 -34.125,-34.09375 0,-18.83647 15.279773,-34.125 34.125,-34.125 z M 185.5,340.5 c 18.84523,0 34.09375,15.27977 34.09375,34.125 0,18.83648 -15.24852,34.125 -34.09375,34.125 -18.84523,0 -34.125,-15.28852 -34.125,-34.125 0,-18.84523 15.27977,-34.125 34.125,-34.125 z"
     inkscape:connector-curvature="0"
     id="path5045"
     style="fill:#ffffff" />
</svg>
