<?xml version="1.0" encoding="UTF-8" standalone="no"?>
<svg
   xmlns:dc="http://purl.org/dc/elements/1.1/"
   xmlns:cc="http://creativecommons.org/ns#"
   xmlns:rdf="http://www.w3.org/1999/02/22-rdf-syntax-ns#"
   xmlns:svg="http://www.w3.org/2000/svg"
   xmlns="http://www.w3.org/2000/svg"
   xmlns:sodipodi="http://sodipodi.sourceforge.net/DTD/sodipodi-0.dtd"
   xmlns:inkscape="http://www.inkscape.org/namespaces/inkscape"
   viewBox="0 0 512 512"
   id="svg2"
   version="1.1"
   inkscape:version="0.48.5 r10040"
   width="100%"
   height="100%"
   sodipodi:docname="address-book-insert.svg">
  <sodipodi:namedview
     pagecolor="#ffffff"
     bordercolor="#666666"
     borderopacity="1"
     objecttolerance="10"
     gridtolerance="10"
     guidetolerance="10"
     inkscape:pageopacity="0"
     inkscape:pageshadow="2"
     inkscape:window-width="1306"
     inkscape:window-height="715"
     id="namedview504"
     showgrid="false"
     inkscape:zoom="0.4609375"
     inkscape:cx="187.81205"
     inkscape:cy="112.27947"
     inkscape:window-x="56"
     inkscape:window-y="28"
     inkscape:window-maximized="1"
     inkscape:current-layer="svg2" />
  <metadata
     id="metadata508">
    <rdf:RDF>
      <cc:Work
         rdf:about="">
        <dc:format>image/svg+xml</dc:format>
        <dc:type
           rdf:resource="http://purl.org/dc/dcmitype/StillImage" />
      </cc:Work>
    </rdf:RDF>
  </metadata>
  <defs
     id="defs506">
    <clipPath
       clipPathUnits="userSpaceOnUse"
       id="clipPath3302">
      <path
         inkscape:connector-curvature="0"
         style="fill:none;fill-opacity:1;stroke:none"
         d="M 26,0 C 11.60265,0 0,11.60265 0,26 l 0,460 c 0,14.39735 11.60265,26 26,26 l 460,0 c 14.39735,0 26,-11.60265 26,-26 L 512,26 C 512,11.60265 500.39735,0 486,0 L 26,0 z"
         id="path3304" />
    </clipPath>
  </defs>
  <path
     id="rect2986"
     d="M 26,0 C 11.60265,0 0,11.60265 0,26 l 0,460 c 0,14.39735 11.60265,26 26,26 l 460,0 c 14.39735,0 26,-11.60265 26,-26 L 512,26 C 512,11.60265 500.39735,0 486,0 L 26,0 z"
     style="fill:none;fill-opacity:1;stroke:none"
     inkscape:connector-curvature="0" />
     font-family="Arial"
     x="634.01"
     y="-7541.51"
     font-size="1761.69"
     transform="scale(4.0128.2492)" />
     font-family="Arial"
     x="600.42"
     y="-3881.55"
     font-size="1761.69"
     transform="scale(4.0128.2492)" />
  <g
     id="g16"
     fill="none">
       font-family="Arial"
       x="1349.37"
       y="-27098.01"
       font-size="1081.38"
       transform="scale(4.21679.23715)" />
       font-family="Arial"
       x="1583.44"
       y="-26671.99"
       font-size="578.9"
       transform="scale(4.21679.23715)" />
       font-family="Arial"
       x="-2735.52"
       y="-19511.68"
       font-size="1691.22"
       transform="scale(4.0128.2492)" />
  </g>
  <g
     id="g36"
     fill="#000">
       font-family="Arial"
       x="1094.66"
       y="-69099.42"
       font-size="1761.69"
       transform="scale(4.0128.2492)" />
       font-family="Arial"
       x="1061.07"
       y="-65439.47"
       font-size="1761.69"
       transform="scale(4.0128.2492)" />
  </g>
  <g
     id="g50"
     fill="none">
    <g
       id="g52"
       stroke-width="23.273"
       stroke="#cd1d31">
         font-family="Arial"
         x="1787.74"
         y="-91784.55"
         font-size="1081.38"
         transform="scale(4.21679.23715)" />
         font-family="Arial"
         x="2021.81"
         y="-91358.54"
         font-size="578.9"
         transform="scale(4.21679.23715)" />
    </g>
       font-family="Arial"
       x="-2274.87"
       y="-81069.59"
       font-size="1691.22"
       transform="scale(4.0128.2492)" />
  </g>
  <g
     id="g72"
     fill="#000">
       font-family="Arial"
       x="5029.29"
       y="-95418.98"
       font-size="1691.22"
       transform="scale(4.0128.2492)" />
       font-family="Arial"
       x="10246.67"
       y="-106982.23"
       font-size="1691.22"
       transform="scale(4.0128.2492)" />
  </g>
     font-family="Arial"
     transform="scale(4.0128.2492)"
     font-size="1761.69"
     y="13729.18"
     x="-2515.64" />
     font-family="Arial"
     x="5638.51"
     y="-11009.46"
     font-size="1092.75"
     transform="scale(4.0128.2492)" />
     font-family="Arial"
     x="9009.61"
     y="-18480.83"
     font-size="1092.75"
     transform="scale(4.0128.2492)" />
     font-family="Arial"
     x="2794.91"
     y="-35408.33"
     font-size="1092.75"
     transform="scale(4.0128.2492)" />
     font-family="Arial"
     x="9163.13"
     y="-55624.75"
     font-size="1092.75"
     transform="scale(4.0128.2492)" />
     font-family="Arial"
     x="12534.23"
     y="-63096.11"
     font-size="1092.75"
     transform="scale(4.0128.2492)" />
     font-family="Arial"
     x="10277.5"
     y="-107213.34"
     font-size="1092.75"
     transform="scale(4.0128.2492)" />
     font-family="Arial"
     x="13648.6"
     y="-114684.7"
     font-size="1092.75"
     transform="scale(4.0128.2492)" />
  <g
     id="g138"
     font-size="4848.48"
     letter-spacing="0"
     line-height="125%"
     word-spacing="0"
     font-family="Gentium Book Basic">
  </g>
     font-family="Arial"
     x="416.13"
     y="-7545.42"
     font-size="1761.69"
     transform="scale(4.0128.2492)" />
     font-family="Arial"
     x="382.53"
     y="-3885.46"
     font-size="1761.69"
     transform="scale(4.0128.2492)" />
  <g
     id="g156"
     fill="none">
       font-family="Arial"
       x="1142.02"
       y="-27102.11"
       font-size="1081.38"
       transform="scale(4.21679.23715)" />
       font-family="Arial"
       x="1376.09"
       y="-26676.1"
       font-size="578.9"
       transform="scale(4.21679.23715)" />
       font-family="Arial"
       x="-2953.4"
       y="-19515.59"
       font-size="1691.22"
       transform="scale(4.0128.2492)" />
  </g>
  <g
     id="g176"
     fill="#000">
       font-family="Arial"
       x="876.77"
       y="-69103.34"
       font-size="1761.69"
       transform="scale(4.0128.2492)" />
       font-family="Arial"
       x="843.18"
       y="-65443.38"
       font-size="1761.69"
       transform="scale(4.0128.2492)" />
  </g>
  <g
     id="g190"
     fill="none">
    <g
       id="g192"
       stroke-width="23.273"
       stroke="#cd1d31">
         font-family="Arial"
         x="1580.39"
         y="-91788.66"
         font-size="1081.38"
         transform="scale(4.21679.23715)" />
         font-family="Arial"
         x="1814.46"
         y="-91362.65"
         font-size="578.9"
         transform="scale(4.21679.23715)" />
    </g>
       font-family="Arial"
       x="-2492.75"
       y="-81073.51"
       font-size="1691.22"
       transform="scale(4.0128.2492)" />
  </g>
  <g
     id="g212"
     fill="#000">
       font-family="Arial"
       x="4811.4"
       y="-95422.88"
       font-size="1691.22"
       transform="scale(4.0128.2492)" />
       font-family="Arial"
       x="10028.78"
       y="-106986.14"
       font-size="1691.22"
       transform="scale(4.0128.2492)" />
  </g>
     font-family="Arial"
     x="-189.9"
     y="1934.52"
     font-size="55.27"
     transform="scale(4.0128.2492)" />
     font-family="Arial"
     transform="scale(4.0128.2492)"
     font-size="34.28"
     y="1158.41"
     x="65.914" />
     font-family="Arial"
     transform="scale(4.0128.2492)"
     font-size="34.28"
     y="924.01"
     x="171.67" />
     font-family="Arial"
     transform="scale(4.0128.2492)"
     font-size="34.28"
     y="392.96"
     x="-23.297" />
     font-family="Arial"
     transform="scale(4.0128.2492)"
     font-size="34.28"
     y="-241.28"
     x="176.49" />
     font-family="Arial"
     transform="scale(4.0128.2492)"
     font-size="34.28"
     y="-475.68"
     x="282.25" />
     font-family="Arial"
     transform="scale(4.0128.2492)"
     font-size="34.28"
     y="-1859.75"
     x="211.45" />
     font-family="Arial"
     transform="scale(4.0128.2492)"
     font-size="34.28"
     y="-2094.15"
     x="317.21" />
  <g
     id="g276"
     letter-spacing="0"
     line-height="125%"
     word-spacing="0"
     font-family="Gentium Book Basic">
  </g>
     font-family="Arial"
     transform="scale(4.0128.2492)"
     font-size="1761.69"
     y="-8029.03"
     x="468.58" />
     font-family="Arial"
     transform="scale(4.0128.2492)"
     font-size="1761.69"
     y="-4369.08"
     x="434.98" />
  <g
     id="g294"
     fill="none">
       font-family="Arial"
       transform="scale(4.21679.23715)"
       font-size="1081.38"
       y="-27610.31"
       x="1191.94" />
       font-family="Arial"
       transform="scale(4.21679.23715)"
       font-size="578.9"
       y="-27184.3"
       x="1426.01" />
       font-family="Arial"
       transform="scale(4.0128.2492)"
       font-size="1691.22"
       y="-19999.21"
       x="-2900.95" />
  </g>
  <g
     id="g314"
     fill="#000">
       font-family="Arial"
       transform="scale(4.0128.2492)"
       font-size="1761.69"
       y="-69586.95"
       x="929.23" />
       font-family="Arial"
       transform="scale(4.0128.2492)"
       font-size="1761.69"
       y="-65926.99"
       x="895.63" />
  </g>
  <g
     id="g328"
     fill="none">
    <g
       id="g330"
       stroke-width="23.273"
       stroke="#cd1d31">
         font-family="Arial"
         transform="scale(4.21679.23715)"
         font-size="1081.38"
         y="-92296.85"
         x="1630.31" />
         font-family="Arial"
         transform="scale(4.21679.23715)"
         font-size="578.9"
         y="-91870.84"
         x="1864.38" />
    </g>
       font-family="Arial"
       transform="scale(4.0128.2492)"
       font-size="1691.22"
       y="-81557.12"
       x="-2440.3" />
  </g>
  <g
     id="g350"
     fill="#000">
       font-family="Arial"
       transform="scale(4.0128.2492)"
       font-size="1691.22"
       y="-95906.49"
       x="4863.85" />
       font-family="Arial"
       transform="scale(4.0128.2492)"
       font-size="1691.22"
       y="-107469.76"
       x="10081.23" />
  </g>
     font-family="Arial"
     x="-2681.08"
     y="13241.65"
     font-size="1761.69"
     transform="scale(4.0128.2492)" />
     font-family="Arial"
     transform="scale(4.0128.2492)"
     font-size="1092.75"
     y="-11496.99"
     x="5473.08" />
     font-family="Arial"
     transform="scale(4.0128.2492)"
     font-size="1092.75"
     y="-18968.35"
     x="8844.18" />
     font-family="Arial"
     transform="scale(4.0128.2492)"
     font-size="1092.75"
     y="-35895.86"
     x="2629.48" />
     font-family="Arial"
     transform="scale(4.0128.2492)"
     font-size="1092.75"
     y="-56112.27"
     x="8997.7" />
     font-family="Arial"
     transform="scale(4.0128.2492)"
     font-size="1092.75"
     y="-63583.63"
     x="12368.8" />
     font-family="Arial"
     transform="scale(4.0128.2492)"
     font-size="1092.75"
     y="-107700.87"
     x="10112.06" />
     font-family="Arial"
     transform="scale(4.0128.2492)"
     font-size="1092.75"
     y="-115172.22"
     x="13483.16" />
  <g
     id="g412"
     font-size="4848.48"
     letter-spacing="0"
     line-height="125%"
     word-spacing="0"
     font-family="Gentium Book Basic">
  </g>
     font-family="Arial"
     transform="scale(4.0128.2492)"
     font-size="1761.69"
     y="-8032.94"
     x="250.69" />
     font-family="Arial"
     transform="scale(4.0128.2492)"
     font-size="1761.69"
     y="-4372.99"
     x="217.1" />
  <g
     id="g430"
     fill="none">
       font-family="Arial"
       transform="scale(4.21679.23715)"
       font-size="1081.38"
       y="-27614.42"
       x="984.59" />
       font-family="Arial"
       transform="scale(4.21679.23715)"
       font-size="578.9"
       y="-27188.4"
       x="1218.66" />
       font-family="Arial"
       transform="scale(4.0128.2492)"
       font-size="1691.22"
       y="-20003.12"
       x="-3118.84" />
  </g>
  <g
     id="g450"
     fill="#000">
       font-family="Arial"
       transform="scale(4.0128.2492)"
       font-size="1761.69"
       y="-69590.85"
       x="711.34" />
       font-family="Arial"
       transform="scale(4.0128.2492)"
       font-size="1761.69"
       y="-65930.9"
       x="677.75" />
  </g>
  <g
     id="g464"
     fill="none">
    <g
       id="g466"
       stroke-width="23.273"
       stroke="#cd1d31">
         font-family="Arial"
         transform="scale(4.21679.23715)"
         font-size="1081.38"
         y="-92300.96"
         x="1422.96" />
         font-family="Arial"
         transform="scale(4.21679.23715)"
         font-size="578.9"
         y="-91874.95"
         x="1657.03" />
    </g>
       font-family="Arial"
       transform="scale(4.0128.2492)"
       font-size="1691.22"
       y="-81561.03"
       x="-2658.19" />
  </g>
  <g
     id="g486"
     fill="#000">
       font-family="Arial"
       transform="scale(4.0128.2492)"
       font-size="1691.22"
       y="-95910.41"
       x="4645.97" />
       font-family="Arial"
       transform="scale(4.0128.2492)"
       font-size="1691.22"
       y="-107473.66"
       x="9863.35" />
  </g>
  <g
     style="fill:#000000;opacity:0.0"
     id="g3773"
     clip-path="url(#clipPath3302)">
    <path
       inkscape:connector-curvature="0"
       d="m 69.8125,68.53125 c -0.650739,0.02163 -1.370094,0.06252 -2.125,0.1875 l 282.84271,282.84271 c 0.75491,-0.12498 1.47426,-0.16587 2.125,-0.1875 z"
       id="path3775"
       style="fill:#000000" />
    <path
       inkscape:connector-curvature="0"
       d="m 67.6875,68.71875 c -3.015864,0.501715 -6.609237,1.547772 -10.90625,3.65625 l 282.84271,282.84271 c 4.29702,-2.10848 7.89039,-3.15453 10.90625,-3.65625 z"
       id="path3777"
       style="fill:#000000" />
    <path
       inkscape:connector-curvature="0"
       d="M 56.78125,72.375 C 48.04362,76.252926 38.08942,87.924083 38.5,103.75 l 282.84271,282.84271 c -0.41058,-15.82591 9.54362,-27.49707 18.28125,-31.375 z"
       id="path3779"
       style="fill:#000000" />
    <path
       inkscape:connector-curvature="0"
       d="m 38.5,103.75 0,315.40625 282.84271,282.84271 0,-315.40625 z"
       id="path3781"
       style="fill:#000000" />
    <path
       inkscape:connector-curvature="0"
       d="m 38.5,419.15625 c 0,7.78764 2.597222,12.98075 6.060185,16.44371 L 327.4029,718.44267 c -3.46297,-3.46296 -6.06019,-8.65606 -6.06019,-16.44371 z"
       id="path3783"
       style="fill:#000000" />
    <path
       inkscape:connector-curvature="0"
       d="m 44.560185,435.59996 c 6.925926,6.92593 17.314815,6.93129 17.314815,6.93129 l 282.84271,282.84271 c 0,0 -10.38889,-0.005 -17.31481,-6.93129 z"
       id="path3785"
       style="fill:#000000" />
    <path
       inkscape:connector-curvature="0"
       d="m 61.875,442.53125 257.125,0 282.84271,282.84271 -257.125,0 z"
       id="path3787"
       style="fill:#000000" />
    <path
       inkscape:connector-curvature="0"
       d="m 319,442.53125 0,-46.1875 282.84271,282.84271 0,46.1875 z"
       id="path3789"
       style="fill:#000000" />
    <path
       inkscape:connector-curvature="0"
       d="m 319,396.34375 -29.9375,0 282.84271,282.84271 29.9375,0 z"
       id="path3791"
       style="fill:#000000" />
    <path
       inkscape:connector-curvature="0"
       d="m 289.0625,396.34375 -1.59375,7.46875 282.84271,282.84271 1.59375,-7.46875 z"
       id="path3793"
       style="fill:#000000" />
    <path
       inkscape:connector-curvature="0"
       d="m 287.46875,403.8125 -85.40625,0 282.84271,282.84271 85.40625,0 z"
       id="path3795"
       style="fill:#000000" />
    <path
       inkscape:connector-curvature="0"
       d="m 202.0625,403.8125 -86.15625,0 282.84271,282.84271 86.15625,0 z"
       id="path3797"
       style="fill:#000000" />
    <path
       inkscape:connector-curvature="0"
       d="m 115.90625,403.8125 -6.59375,-35.03125 282.84271,282.84271 6.59375,35.03125 z"
       id="path3799"
       style="fill:#000000" />
    <path
       inkscape:connector-curvature="0"
       d="m 109.3125,368.78125 c -8.5499,-45.57542 16.07084,-84.91457 44.5625,-87.625 l 282.84271,282.84271 c -28.49166,2.71043 -53.1124,42.04958 -44.5625,87.625 z"
       id="path3801"
       style="fill:#000000" />
    <path
       inkscape:connector-curvature="0"
       d="m 153.875,281.15625 c 9.49856,-0.90448 19.17899,2.59064 28.46875,11 l 282.84271,282.84271 c -9.28976,-8.40936 -18.97019,-11.90448 -28.46875,-11 z"
       id="path3803"
       style="fill:#000000" />
    <path
       inkscape:connector-curvature="0"
       d="m 182.34375,292.15625 c 18.39279,16.64507 20.29571,16.64507 38.6875,0 l 282.84271,282.84271 c -18.39179,16.64507 -20.29471,16.64507 -38.6875,0 z"
       id="path3805"
       style="fill:#000000" />
    <path
       inkscape:connector-curvature="0"
       d="m 221.03125,292.15625 c 15.75523,-14.25776 33.27268,-13.25726 47.40625,-3.0625 l 282.84271,282.84271 c -14.13357,-10.19476 -31.65102,-11.19526 -47.40625,3.0625 z"
       id="path3807"
       style="fill:#000000" />
    <path
       inkscape:connector-curvature="0"
       d="m 268.4375,289.09375 50.53125,0 282.84271,282.84271 -50.53125,0 z"
       id="path3809"
       style="fill:#000000" />
    <path
       inkscape:connector-curvature="0"
       d="m 318.96875,289.09375 0,-64.65625 282.84271,282.84271 0,64.65625 z"
       id="path3811"
       style="fill:#000000" />
    <path
       inkscape:connector-curvature="0"
       d="m 318.96875,224.4375 0,-1 282.84271,282.84271 0,1 z"
       id="path3813"
       style="fill:#000000" />
    <path
       inkscape:connector-curvature="0"
       d="m 318.96875,223.4375 0,-1 282.84271,282.84271 0,1 z"
       id="path3815"
       style="fill:#000000" />
    <path
       inkscape:connector-curvature="0"
       d="m 318.96875,222.4375 23.25,0 282.84271,282.84271 -23.25,0 z"
       id="path3817"
       style="fill:#000000" />
    <path
       inkscape:connector-curvature="0"
       d="m 342.21875,222.4375 0,-106.96875 282.84271,282.84271 0,106.96875 z"
       id="path3819"
       style="fill:#000000" />
    <path
       inkscape:connector-curvature="0"
       d="m 342.21875,115.46875 -23.375,0 282.84271,282.84271 23.375,0 z"
       id="path3821"
       style="fill:#000000" />
    <path
       inkscape:connector-curvature="0"
       d="m 318.84375,115.46875 0,-23.375 282.84271,282.84271 0,23.375 z"
       id="path3823"
       style="fill:#000000" />
    <path
       inkscape:connector-curvature="0"
       d="m 318.84375,92.09375 23.375,0 282.84271,282.84271 -23.375,0 z"
       id="path3825"
       style="fill:#000000" />
    <path
       inkscape:connector-curvature="0"
       d="m 342.21875,92.09375 0,-23.375 282.84271,282.84271 0,23.375 z"
       id="path3827"
       style="fill:#000000" />
    <path
       inkscape:connector-curvature="0"
       d="m 342.21875,68.71875 -268.65625,0 282.84271,282.84271 268.65625,0 z"
       id="path3829"
       style="fill:#000000" />
    <path
       inkscape:connector-curvature="0"
       d="m 73.5625,68.71875 c -0.368167,0.01732 -1.797786,-0.252391 -3.75,-0.1875 l 282.84271,282.84271 c 1.95222,-0.0649 3.38184,0.20482 3.75,0.1875 z"
       id="path3831"
       style="fill:#000000" />
    <path
       inkscape:connector-curvature="0"
       d="m 72.28125,92 c 0.804476,-0.01798 1.263934,0.146455 1.28125,0.09375 l 282.84271,282.84271 c -0.0173,0.0527 -0.47677,-0.11173 -1.28125,-0.0937 z"
       id="path3833"
       style="fill:#000000" />
    <path
       inkscape:connector-curvature="0"
       d="m 73.5625,92.09375 221.9375,0 282.84271,282.84271 -221.9375,0 z"
       id="path3835"
       style="fill:#000000" />
    <path
       inkscape:connector-curvature="0"
       d="m 295.5,92.09375 0,23.375 282.84271,282.84271 0,-23.375 z"
       id="path3837"
       style="fill:#000000" />
    <path
       inkscape:connector-curvature="0"
       d="m 295.5,115.46875 -221.9375,0 282.84271,282.84271 221.9375,0 z"
       id="path3839"
       style="fill:#000000" />
    <path
       inkscape:connector-curvature="0"
       d="m 73.5625,115.46875 c -0.151583,0 -1.097434,-0.55124 -2.21875,-0.75 l 282.84271,282.84271 c 1.12132,0.19876 2.06717,0.75 2.21875,0.75 z"
       id="path3841"
       style="fill:#000000" />
    <path
       inkscape:connector-curvature="0"
       d="m 71.34375,114.71875 c -2.067959,-0.31522 -4.837732,-1.46584 -6.53125,-2.9375 l 282.84271,282.84271 c 1.69352,1.47166 4.46329,2.62228 6.53125,2.9375 z"
       id="path3843"
       style="fill:#000000" />
    <path
       inkscape:connector-curvature="0"
       d="m 64.8125,111.78125 c -0.275981,-0.2718 -0.539069,-0.51524 -0.786398,-0.76256 L 346.86881,393.8614 c 0.24733,0.24733 0.51042,0.49076 0.7864,0.76256 z"
       id="path3845"
       style="fill:#000000" />
    <path
       inkscape:connector-curvature="0"
       d="M 64.026102,111.01869 C 62.849297,109.84188 62.029291,108.57699 61.875,103.75 l 282.84271,282.84271 c 0.15429,4.827 0.9743,6.09188 2.1511,7.26869 z"
       id="path3847"
       style="fill:#000000" />
    <path
       inkscape:connector-curvature="0"
       d="m 61.875,103.75 c 0.385483,-7.559098 2.115286,-8.221061 5.09375,-10.21875 l 282.84271,282.84271 c -2.97846,1.99769 -4.70826,2.65965 -5.09375,10.21875 z"
       id="path3849"
       style="fill:#000000" />
    <path
       inkscape:connector-curvature="0"
       d="m 66.96875,93.53125 c 1.5068,-0.758921 3.035846,-1.214642 4.375,-1.4375 l 282.84271,282.84271 c -1.33915,0.22286 -2.8682,0.67858 -4.375,1.4375 z"
       id="path3851"
       style="fill:#000000" />
    <path
       inkscape:connector-curvature="0"
       d="M 71.34375,92.09375 C 71.688326,92.03252 72.013088,92.00599 72.28125,92 l 282.84271,282.84271 c -0.26816,0.006 -0.59292,0.0325 -0.9375,0.0937 z"
       id="path3853"
       style="fill:#000000" />
    <path
       inkscape:connector-curvature="0"
       d="m 202.0625,153.40625 c 15.66765,0 29.70843,6.21067 39.83535,16.33759 l 282.84271,282.84271 c -10.12692,-10.12691 -24.1677,-16.33759 -39.83535,-16.33759 z"
       id="path3855"
       style="fill:#000000" />
    <path
       inkscape:connector-curvature="0"
       d="M 241.89785,169.74384 C 252.0347,179.88069 258.25,193.94148 258.25,209.625 l 282.84271,282.84271 c 0,-15.68352 -6.2153,-29.7443 -16.35215,-39.88116 z"
       id="path3857"
       style="fill:#000000" />
    <path
       inkscape:connector-curvature="0"
       d="m 258.25,209.625 c 0,31.35066 -24.83583,56.9375 -56.1875,56.9375 l 282.84271,282.84271 c 31.35167,0 56.1875,-25.58684 56.1875,-56.9375 z"
       id="path3859"
       style="fill:#000000" />
    <path
       inkscape:connector-curvature="0"
       d="m 202.0625,266.5625 c -15.67546,0 -29.90993,-6.39656 -40.2255,-16.71212 l 282.84272,282.84271 c 10.31556,10.31556 24.55004,16.71212 40.22549,16.71212 z"
       id="path3861"
       style="fill:#000000" />
    <path
       inkscape:connector-curvature="0"
       d="M 161.837,249.85038 C 151.52161,239.53498 145.125,225.30071 145.125,209.625 l 282.84271,282.84271 c 0,15.67571 6.39661,29.90998 16.71201,40.22538 z"
       id="path3863"
       style="fill:#000000" />
    <path
       inkscape:connector-curvature="0"
       d="m 145.125,209.625 c 0,-31.35067 25.58583,-56.21875 56.9375,-56.21875 l 282.84271,282.84271 c -31.35167,0 -56.9375,24.86808 -56.9375,56.21875 z"
       id="path3865"
       style="fill:#000000" />
    <path
       inkscape:connector-curvature="0"
       d="m 339.03125,242.53125 0,66.65625 282.84271,282.84271 0,-66.65625 z"
       id="path3867"
       style="fill:#000000" />
    <path
       inkscape:connector-curvature="0"
       d="m 339.03125,309.1875 -66.65625,-0.0312 282.84271,282.84271 66.65625,0.0312 z"
       id="path3869"
       style="fill:#000000" />
    <path
       inkscape:connector-curvature="0"
       d="m 272.375,309.15625 -0.375,67.125 282.84271,282.84271 0.375,-67.125 z"
       id="path3871"
       style="fill:#000000" />
    <path
       inkscape:connector-curvature="0"
       d="m 272,376.28125 67.09375,0 282.84271,282.84271 -67.09375,0 z"
       id="path3873"
       style="fill:#000000" />
    <path
       inkscape:connector-curvature="0"
       d="m 339.09375,376.28125 0,66.71875 282.84271,282.84271 0,-66.71875 z"
       id="path3875"
       style="fill:#000000" />
    <path
       inkscape:connector-curvature="0"
       d="m 339.09375,443 67.65625,0.46875 282.84271,282.84271 -67.65625,-0.46875 z"
       id="path3877"
       style="fill:#000000" />
    <path
       inkscape:connector-curvature="0"
       d="m 406.75,443.46875 -0.15625,-67.15625 282.84271,282.84271 0.15625,67.15625 z"
       id="path3879"
       style="fill:#000000" />
    <path
       inkscape:connector-curvature="0"
       d="m 406.59375,376.3125 66.90625,0.0937 282.84271,282.84271 -66.90625,-0.0937 z"
       id="path3881"
       style="fill:#000000" />
    <path
       inkscape:connector-curvature="0"
       d="m 473.5,376.40625 -0.375,-67.21875 282.84271,282.84271 0.375,67.21875 z"
       id="path3883"
       style="fill:#000000" />
    <path
       inkscape:connector-curvature="0"
       d="m 473.125,309.1875 -66.78125,-0.0312 282.84271,282.84271 66.78125,0.0312 z"
       id="path3885"
       style="fill:#000000" />
    <path
       inkscape:connector-curvature="0"
       d="m 406.34375,309.15625 -0.125,-66.625 282.84271,282.84271 0.125,66.625 z"
       id="path3887"
       style="fill:#000000" />
    <path
       inkscape:connector-curvature="0"
       d="m 406.21875,242.53125 -67.1875,0 282.84271,282.84271 67.1875,0 z"
       id="path3889"
       style="fill:#000000" />
  </g>
  <path
     inkscape:connector-curvature="0"
     style="fill:#666666"
     d="m 69.8125,68.53125 c -0.650739,0.02163 -1.370094,0.06252 -2.125,0.1875 C 64.671636,69.220465 61.078263,70.266522 56.78125,72.375 48.04362,76.252926 38.08942,87.924083 38.5,103.75 l 0,315.40625 c 0,23.36293 23.375,23.375 23.375,23.375 l 257.125,0 0,-46.1875 -29.9375,0 -1.59375,7.46875 -85.40625,0 -86.15625,0 -6.59375,-35.03125 c -8.5499,-45.57542 16.07084,-84.91457 44.5625,-87.625 9.49856,-0.90448 19.17899,2.59064 28.46875,11 18.39279,16.64507 20.29571,16.64507 38.6875,0 15.75523,-14.25776 33.27268,-13.25726 47.40625,-3.0625 l 50.53125,0 0,-64.65625 0,-1 0,-1 23.25,0 0,-106.96875 -23.375,0 0,-23.375 23.375,0 0,-23.375 -268.65625,0 c -0.368167,0.01732 -1.797786,-0.252391 -3.75,-0.1875 z M 72.28125,92 c 0.804476,-0.01798 1.263934,0.146455 1.28125,0.09375 l 221.9375,0 0,23.375 -221.9375,0 c -0.151583,0 -1.097434,-0.55124 -2.21875,-0.75 -2.067959,-0.31522 -4.837732,-1.46584 -6.53125,-2.9375 -1.589117,-1.56503 -2.750782,-2.18977 -2.9375,-8.03125 0.385483,-7.559098 2.115286,-8.221061 5.09375,-10.21875 1.5068,-0.758921 3.035846,-1.214642 4.375,-1.4375 0.344576,-0.06123 0.669338,-0.08776 0.9375,-0.09375 z m 129.78125,61.40625 c 31.35067,0 56.1875,24.86708 56.1875,56.21875 0,31.35066 -24.83583,56.9375 -56.1875,56.9375 -31.35066,0 -56.9375,-25.58583 -56.9375,-56.9375 0,-31.35067 25.58583,-56.21875 56.9375,-56.21875 z m 136.96875,89.125 0,66.65625 -66.65625,-0.0312 -0.375,67.125 67.09375,0 0,66.71875 67.65625,0.46875 -0.15625,-67.15625 66.90625,0.0937 -0.375,-67.21875 -66.78125,-0.0312 -0.125,-66.625 -67.1875,0 z"
     id="path226" />
</svg>
