<?xml version="1.0" encoding="UTF-8" standalone="no"?>
<svg
   xmlns:dc="http://purl.org/dc/elements/1.1/"
   xmlns:cc="http://creativecommons.org/ns#"
   xmlns:rdf="http://www.w3.org/1999/02/22-rdf-syntax-ns#"
   xmlns:svg="http://www.w3.org/2000/svg"
   xmlns="http://www.w3.org/2000/svg"
   xmlns:sodipodi="http://sodipodi.sourceforge.net/DTD/sodipodi-0.dtd"
   xmlns:inkscape="http://www.inkscape.org/namespaces/inkscape"
   viewBox="0 0 512 512"
   id="svg2"
   version="1.1"
   inkscape:version="0.48.5 r10040"
   width="100%"
   height="100%"
   sodipodi:docname="appointment.svg">
  <sodipodi:namedview
     pagecolor="#ffffff"
     bordercolor="#666666"
     borderopacity="1"
     objecttolerance="10"
     gridtolerance="10"
     guidetolerance="10"
     inkscape:pageopacity="0"
     inkscape:pageshadow="2"
     inkscape:window-width="1306"
     inkscape:window-height="715"
     id="namedview248"
     showgrid="false"
     inkscape:zoom="0.65186406"
     inkscape:cx="125.23625"
     inkscape:cy="223.94529"
     inkscape:window-x="56"
     inkscape:window-y="28"
     inkscape:window-maximized="1"
     inkscape:current-layer="svg2" />
  <metadata
     id="metadata252">
    <rdf:RDF>
      <cc:Work
         rdf:about="">
        <dc:format>image/svg+xml</dc:format>
        <dc:type
           rdf:resource="http://purl.org/dc/dcmitype/StillImage" />
      </cc:Work>
    </rdf:RDF>
  </metadata>
  <defs
     id="defs250">
    <clipPath
       clipPathUnits="userSpaceOnUse"
       id="clipPath3856">
      <path
         id="path3858"
         d="M 26,0 C 11.60264,0 0,11.60264 0,26 l 0,460 c 0,14.39735 11.60264,26 26,26 l 460,0 c 14.39735,0 26,-11.60265 26,-26 L 512,26 C 512,11.60264 500.39735,0 486,0 L 26,0 z"
         style="fill:none;fill-opacity:1;stroke:none"
         inkscape:connector-curvature="0" />
    </clipPath>
  </defs>
  <path
     inkscape:connector-curvature="0"
     style="fill:none;fill-opacity:1;stroke:none"
     d="M 26,0 C 11.60264,0 0,11.60264 0,26 l 0,460 c 0,14.39735 11.60264,26 26,26 l 460,0 c 14.39735,0 26,-11.60265 26,-26 L 512,26 C 512,11.60264 500.39735,0 486,0 L 26,0 z"
     id="rect2986" />
  <g
     transform="matrix(23.27273,0,0,23.27273,0,-0.0023)"
     id="g56"
     style="fill:none;stroke:#cd1d31">
  </g>
  <g
     transform="matrix(23.27273,0,0,23.27273,0,-0.0023)"
     id="g212"
     style="fill:none;stroke:#cd1d31">
  </g>
  <g
     style="fill:#000000;opacity:0.0"
     id="g3196"
     clip-path="url(#clipPath3856)">
    <path
       inkscape:connector-curvature="0"
       d="m 142.28684,63.223506 c -3.34238,-0.04809 -6.8896,1.220614 -9.75106,3.74544 L 415.37849,349.81166 c 2.86146,-2.52483 6.40868,-3.79353 9.75106,-3.74544 z"
       id="path3198"
       style="fill:#000000" />
    <path
       inkscape:connector-curvature="0"
       d="m 132.53578,66.968946 c -5.21798,4.568734 -4.99848,4.665057 -5.26299,30.803016 L 410.1155,380.61467 c 0.26451,-26.13795 0.045,-26.23428 5.26299,-30.80301 z"
       id="path3200"
       style="fill:#000000" />
    <path
       inkscape:connector-curvature="0"
       d="m 127.27279,97.771962 c -0.14428,15.148958 0.21362,24.580838 0.74263,27.057578 l 282.84271,282.84271 c -0.52901,-2.47674 -0.88691,-11.90862 -0.74263,-27.05758 z"
       id="path3202"
       style="fill:#000000" />
    <path
       inkscape:connector-curvature="0"
       d="m 128.01542,124.82954 c 0.70052,3.27451 2.06179,6.08263 4.11572,8.13657 l 282.84272,282.84271 c -2.05394,-2.05394 -3.41521,-4.86206 -4.11573,-8.13657 z"
       id="path3204"
       style="fill:#000000" />
    <path
       inkscape:connector-curvature="0"
       d="m 132.13114,132.96611 c 0.97772,0.97771 2.11238,1.78453 3.40745,2.38941 L 418.3813,418.19823 c -1.29506,-0.60488 -2.42973,-1.4117 -3.40744,-2.38941 z"
       id="path3206"
       style="fill:#000000" />
    <path
       inkscape:connector-curvature="0"
       d="m 135.53859,135.35552 c 7.04547,3.29429 16.26416,-0.0395 19.53441,-6.74825 l 282.84271,282.84271 c -3.27025,6.70875 -12.48894,10.04254 -19.53441,6.74825 z"
       id="path3208"
       style="fill:#000000" />
    <path
       inkscape:connector-curvature="0"
       d="m 155.073,128.60727 c 1.58703,-3.27025 1.70991,-3.32406 1.51755,-29.317759 L 439.43326,382.13222 c 0.19236,25.9937 0.0695,26.04751 -1.51755,29.31776 z"
       id="path3210"
       style="fill:#000000" />
    <path
       inkscape:connector-curvature="0"
       d="m 156.59055,99.289511 -0.74264,-27.057576 282.84271,282.842715 0.74264,27.05757 z"
       id="path3212"
       style="fill:#000000" />
    <path
       inkscape:connector-curvature="0"
       d="m 155.84791,72.231935 -1.51754,-3.002809 282.84271,282.842714 1.51754,3.00281 z"
       id="path3214"
       style="fill:#000000" />
    <path
       inkscape:connector-curvature="0"
       d="m 154.33037,69.229126 c -0.42045,-0.550816 -0.86895,-1.061765 -1.34084,-1.533655 L 435.83224,350.53818 c 0.47189,0.47189 0.9204,0.98284 1.34084,1.53366 z"
       id="path3216"
       style="fill:#000000" />
    <path
       inkscape:connector-curvature="0"
       d="m 152.98953,67.695471 c -3.00958,-3.009577 -6.97038,-4.430392 -10.6704,-4.471965 L 425.16184,346.06622 c 3.70002,0.0416 7.66083,1.46239 10.6704,4.47196 z"
       id="path3218"
       style="fill:#000000" />
    <path
       inkscape:connector-curvature="0"
       d="m 142.31913,63.223506 -0.0323,0 282.84271,282.842714 0.0323,0 z"
       id="path3220"
       style="fill:#000000" />
    <path
       inkscape:connector-curvature="0"
       d="m 319.64634,63.223506 c -4.28018,0.0481 -8.94159,1.941852 -12.04352,6.00562 L 590.44553,352.07184 c 3.10193,-4.06377 7.76334,-5.95752 12.04352,-6.00562 z"
       id="path3222"
       style="fill:#000000" />
    <path
       inkscape:connector-curvature="0"
       d="m 307.60282,69.229126 -1.51755,3.002809 282.84271,282.842715 1.51755,-3.00281 z"
       id="path3224"
       style="fill:#000000" />
    <path
       inkscape:connector-curvature="0"
       d="m 306.08527,72.231935 0,27.800205 282.84271,282.84271 0,-27.8002 z"
       id="path3226"
       style="fill:#000000" />
    <path
       inkscape:connector-curvature="0"
       d="m 306.08527,100.03214 0,27.05758 282.84271,282.84271 0,-27.05758 z"
       id="path3228"
       style="fill:#000000" />
    <path
       inkscape:connector-curvature="0"
       d="m 306.08527,127.08972 1.51755,3.00281 282.84271,282.84271 -1.51755,-3.00281 z"
       id="path3230"
       style="fill:#000000" />
    <path
       inkscape:connector-curvature="0"
       d="m 307.60282,130.09253 c 0.65764,0.99317 1.62146,2.22509 2.67927,3.28291 l 282.84272,282.84271 c -1.05782,-1.05782 -2.02163,-2.28974 -2.67928,-3.28291 z"
       id="path3232"
       style="fill:#000000" />
    <path
       inkscape:connector-curvature="0"
       d="m 310.28209,133.37544 c 0.83741,0.83741 1.73374,1.56571 2.58372,1.98008 l 282.84271,282.84271 c -0.84998,-0.41437 -1.7463,-1.14267 -2.58371,-1.98008 z"
       id="path3234"
       style="fill:#000000" />
    <path
       inkscape:connector-curvature="0"
       d="m 312.86581,135.35552 c 6.17981,3.05384 14.1056,1.42444 18.04914,-3.74544 l 282.84271,282.84271 c -3.94354,5.16988 -11.86933,6.79928 -18.04914,3.74544 z"
       id="path3236"
       style="fill:#000000" />
    <path
       inkscape:connector-curvature="0"
       d="m 330.91495,131.61008 c 3.22216,-4.23209 4.00995,-8.24497 3.74544,-33.805829 L 617.5031,380.64696 c 0.26451,25.56086 -0.52328,29.57374 -3.74544,33.80583 z"
       id="path3238"
       style="fill:#000000" />
    <path
       inkscape:connector-curvature="0"
       d="m 334.66039,97.804251 c -0.23067,-22.794617 -0.0932,-25.783566 -3.51517,-29.205499 L 613.98794,351.44146 c 3.42193,3.42194 3.2845,6.41089 3.51516,29.2055 z"
       id="path3240"
       style="fill:#000000" />
    <path
       inkscape:connector-curvature="0"
       d="m 331.14522,68.598752 c -0.5019,-0.501905 -1.08038,-1.013124 -1.74782,-1.597518 L 612.24011,349.84395 c 0.66744,0.58439 1.24592,1.09561 1.74783,1.59751 z"
       id="path3242"
       style="fill:#000000" />
    <path
       inkscape:connector-curvature="0"
       d="m 329.3974,67.001234 c -2.86147,-2.524826 -6.43272,-3.793532 -9.75106,-3.74544 L 602.48905,346.09851 c 3.31834,-0.0481 6.88959,1.22061 9.75106,3.74544 z"
       id="path3244"
       style="fill:#000000" />
    <path
       inkscape:connector-curvature="0"
       d="m 319.64634,63.255794 0,-0.03229 282.84271,282.842716 0,0.0323 z"
       id="path3246"
       style="fill:#000000" />
    <path
       inkscape:connector-curvature="0"
       d="m 171.57231,93.219315 0,17.274225 282.84271,282.84271 0,-17.27422 z"
       id="path3248"
       style="fill:#000000" />
    <path
       inkscape:connector-curvature="0"
       d="m 171.57231,110.49354 c 0,14.0188 -0.48357,17.27954 -1.51755,20.30933 l 282.84271,282.84271 c 1.03398,-3.02979 1.51755,-6.29053 1.51755,-20.30933 z"
       id="path3250"
       style="fill:#000000" />
    <path
       inkscape:connector-curvature="0"
       d="m 170.05476,130.80287 c -7.17341,21.26065 -33.33098,27.6003 -48.75785,12.17343 l 282.84271,282.84271 c 15.42687,15.42687 41.58444,9.08722 48.75785,-12.17343 z"
       id="path3252"
       style="fill:#000000" />
    <path
       inkscape:connector-curvature="0"
       d="m 121.29691,142.9763 c -0.2937,-0.2937 -0.58351,-0.59529 -0.86923,-0.90482 l 282.84271,282.84271 c 0.28572,0.30953 0.57553,0.61112 0.86923,0.90482 z"
       id="path3254"
       style="fill:#000000" />
    <path
       inkscape:connector-curvature="0"
       d="m 120.42768,142.07148 c -3.87141,-4.20805 -6.53729,-9.84138 -7.52317,-15.75668 l 282.84271,282.84271 c 0.98588,5.9153 3.65176,11.54863 7.52317,15.75668 z"
       id="path3256"
       style="fill:#000000" />
    <path
       inkscape:connector-curvature="0"
       d="m 112.90451,126.3148 c -0.38475,-2.4046 -0.74263,-10.83257 -0.74263,-18.79178 l 282.84271,282.84271 c 0,7.95921 0.35788,16.38718 0.74263,18.79178 z"
       id="path3258"
       style="fill:#000000" />
    <path
       inkscape:connector-curvature="0"
       d="m 112.16188,107.52302 0,-14.271416 282.84271,282.842716 0,14.27141 z"
       id="path3260"
       style="fill:#000000" />
    <path
       inkscape:connector-curvature="0"
       d="m 112.16188,93.251604 -18.016857,0 282.842717,282.842716 18.01685,0 z"
       id="path3262"
       style="fill:#000000" />
    <path
       inkscape:connector-curvature="0"
       d="m 94.145023,93.251604 0.0646,0.03229 282.842717,282.842716 -0.0646,-0.0323 z"
       id="path3264"
       style="fill:#000000" />
    <path
       inkscape:connector-curvature="0"
       d="m 94.209623,93.283894 c -13.70619,0 -19.15497,-0.14707 -22.5695,0.74263 L 354.48284,376.86924 c 3.41453,-0.8897 8.86331,-0.74263 22.5695,-0.74263 z"
       id="path3266"
       style="fill:#000000" />
    <path
       inkscape:connector-curvature="0"
       d="M 71.640123,94.026524 C 57.116364,97.801742 45.838665,109.41886 40.837106,124.08691 L 323.67982,406.92962 c 5.00156,-14.66805 16.27926,-26.28517 30.80302,-30.06038 z"
       id="path3268"
       style="fill:#000000" />
    <path
       inkscape:connector-curvature="0"
       d="m 40.837106,124.08691 -2.26018,4.52036 282.842714,282.84271 2.26018,-4.52036 z"
       id="path3270"
       style="fill:#000000" />
    <path
       inkscape:connector-curvature="0"
       d="m 38.576926,128.60727 0,139.00103 282.842714,282.84271 0,-139.00103 z"
       id="path3272"
       style="fill:#000000" />
    <path
       inkscape:connector-curvature="0"
       d="M 38.576926,267.6083 C 38.360512,422.44026 38.21316,411.79947 43.839915,423.17322 L 326.68263,706.01593 c -5.62676,-11.37375 -5.47941,-0.73296 -5.26299,-155.56492 z"
       id="path3274"
       style="fill:#000000" />
    <path
       inkscape:connector-curvature="0"
       d="m 43.839915,423.17322 c 2.015247,4.08173 4.77381,7.85561 8.067588,11.14939 L 334.75022,717.16532 c -3.29378,-3.29378 -6.05235,-7.06766 -8.06759,-11.14939 z"
       id="path3276"
       style="fill:#000000" />
    <path
       inkscape:connector-curvature="0"
       d="m 51.907503,434.32261 c 5.981354,5.98135 13.727686,10.37946 21.9928,12.16274 L 356.74302,729.32806 c -8.26512,-1.78327 -16.01145,-6.18139 -21.9928,-12.16274 z"
       id="path3278"
       style="fill:#000000" />
    <path
       inkscape:connector-curvature="0"
       d="m 73.900303,446.48535 c 5.84316,1.25039 161.002647,1.46401 244.971157,0.74263 l 282.84271,282.84271 c -83.96851,0.72138 -239.12799,0.50776 -244.97115,-0.74263 z"
       id="path3280"
       style="fill:#000000" />
    <path
       inkscape:connector-curvature="0"
       d="m 318.87146,447.22798 0,-29.31775 282.84271,282.84271 0,29.31775 z"
       id="path3282"
       style="fill:#000000" />
    <path
       inkscape:connector-curvature="0"
       d="m 318.87146,417.91023 c -23.63718,0.16832 -26.01843,0.76667 -87.88869,0.74263 l 282.84271,282.84271 c 61.87026,0.024 64.25151,-0.57431 87.88869,-0.74263 z"
       id="path3284"
       style="fill:#000000" />
    <path
       inkscape:connector-curvature="0"
       d="M 230.98277,418.65286 C 103.97199,418.62876 80.226903,418.04905 77.678033,417.13531 L 360.52075,699.97802 c 2.54887,0.91374 26.29395,1.49345 153.30473,1.51755 z"
       id="path3286"
       style="fill:#000000" />
    <path
       inkscape:connector-curvature="0"
       d="m 77.678033,417.13531 c -1.677098,-0.59441 -3.422764,-1.82849 -4.940673,-3.3464 l 282.84271,282.84272 c 1.51791,1.51791 3.26358,2.75198 4.94068,3.34639 z"
       id="path3288"
       style="fill:#000000" />
    <path
       inkscape:connector-curvature="0"
       d="m 72.73736,413.78891 c -1.920729,-1.92072 -3.476777,-4.29593 -4.06776,-6.40466 l 282.84271,282.84271 c 0.59099,2.10874 2.14703,4.48394 4.06776,6.40467 z"
       id="path3290"
       style="fill:#000000" />
    <path
       inkscape:connector-curvature="0"
       d="M 68.6696,407.38425 C 68.116543,405.36439 67.92697,372.83343 67.92697,300.67149 L 350.76968,583.5142 c 0,72.16194 0.18958,104.6929 0.74263,106.71276 z"
       id="path3292"
       style="fill:#000000" />
    <path
       inkscape:connector-curvature="0"
       d="m 67.92697,300.67149 0,-104.48486 282.84271,282.84271 0,104.48486 z"
       id="path3294"
       style="fill:#000000" />
    <path
       inkscape:connector-curvature="0"
       d="m 67.92697,196.18663 163.0558,0 282.84271,282.84271 -163.0558,0 z"
       id="path3296"
       style="fill:#000000" />
    <path
       inkscape:connector-curvature="0"
       d="m 230.98277,196.18663 163.05579,0 282.84271,282.84271 -163.05579,0 z"
       id="path3298"
       style="fill:#000000" />
    <path
       inkscape:connector-curvature="0"
       d="m 394.03856,196.18663 0,30.06039 282.84271,282.84271 0,-30.06039 z"
       id="path3300"
       style="fill:#000000" />
    <path
       inkscape:connector-curvature="0"
       d="m 394.03856,226.24702 11.26861,0 282.84271,282.84271 -11.26861,0 z"
       id="path3302"
       style="fill:#000000" />
    <path
       inkscape:connector-curvature="0"
       d="m 405.30717,226.24702 18.04915,0 282.84271,282.84271 -18.04915,0 z"
       id="path3304"
       style="fill:#000000" />
    <path
       inkscape:connector-curvature="0"
       d="m 423.35632,226.24702 0,-97.67204 282.84271,282.84271 0,97.67204 z"
       id="path3306"
       style="fill:#000000" />
    <path
       inkscape:connector-curvature="0"
       d="m 423.35632,128.57498 -2.26018,-4.52036 282.84271,282.84271 2.26018,4.52036 z"
       id="path3308"
       style="fill:#000000" />
    <path
       inkscape:connector-curvature="0"
       d="m 421.09614,124.05462 c -2.48792,-7.26139 -6.50806,-13.77509 -11.69281,-18.95983 L 692.24605,387.9375 c 5.18474,5.18474 9.20488,11.69844 11.6928,18.95983 z"
       id="path3310"
       style="fill:#000000" />
    <path
       inkscape:connector-curvature="0"
       d="M 409.40333,105.09479 C 404.11488,99.806336 397.61477,95.900537 390.29312,93.994236 L 673.13583,376.83695 c 7.32165,1.9063 13.82177,5.8121 19.11022,11.10055 z"
       id="path3312"
       style="fill:#000000" />
    <path
       inkscape:connector-curvature="0"
       d="m 390.29312,93.994236 c -3.41453,-0.889701 -8.86331,-0.74263 -22.5695,-0.74263 L 650.56633,376.09432 c 13.70619,0 19.15497,-0.14707 22.5695,0.74263 z"
       id="path3314"
       style="fill:#000000" />
    <path
       inkscape:connector-curvature="0"
       d="m 367.72362,93.251606 -18.04915,0 282.84271,282.842714 18.04915,0 z"
       id="path3316"
       style="fill:#000000" />
    <path
       inkscape:connector-curvature="0"
       d="m 349.67447,93.251606 0,14.271414 282.84271,282.84271 0,-14.27141 z"
       id="path3318"
       style="fill:#000000" />
    <path
       inkscape:connector-curvature="0"
       d="m 349.67447,107.52302 c 0,7.95921 -0.3579,16.38718 -0.74263,18.79178 l 282.84271,282.84271 c 0.38473,-2.4046 0.74263,-10.83257 0.74263,-18.79178 z"
       id="path3320"
       style="fill:#000000" />
    <path
       inkscape:connector-curvature="0"
       d="m 348.93184,126.3148 c -1.89963,11.63824 -10.07876,20.70413 -21.01967,24.02248 l 282.84271,282.84271 c 10.94091,-3.31835 19.12004,-12.38424 21.01967,-24.02248 z"
       id="path3322"
       style="fill:#000000" />
    <path
       inkscape:connector-curvature="0"
       d="m 327.91217,150.33728 c -4.88133,1.49085 -11.94706,1.53894 -16.56388,0 L 594.191,433.17999 c 4.61682,1.53894 11.68255,1.49085 16.56388,0 z"
       id="path3324"
       style="fill:#000000" />
    <path
       inkscape:connector-curvature="0"
       d="m 311.34829,150.33728 c -4.60931,-1.54045 -8.71495,-4.10713 -12.05838,-7.45057 l 282.84271,282.84272 c 3.34344,3.34343 7.44907,5.91011 12.05838,7.45056 z"
       id="path3326"
       style="fill:#000000" />
    <path
       inkscape:connector-curvature="0"
       d="m 299.28991,142.88671 c -3.3369,-3.33689 -5.91458,-7.44751 -7.47603,-12.08384 l 282.84271,282.84271 c 1.56146,4.63633 4.13913,8.74695 7.47603,12.08385 z"
       id="path3328"
       style="fill:#000000" />
    <path
       inkscape:connector-curvature="0"
       d="m 291.81388,130.80287 c -1.00994,-3.02979 -1.51755,-6.29053 -1.51755,-20.30933 l 282.84271,282.84271 c 0,14.0188 0.50761,17.27954 1.51755,20.30933 z"
       id="path3330"
       style="fill:#000000" />
    <path
       inkscape:connector-curvature="0"
       d="m 290.29633,110.49354 0,-17.274223 282.84271,282.842713 0,17.27422 z"
       id="path3332"
       style="fill:#000000" />
    <path
       inkscape:connector-curvature="0"
       d="m 290.29633,93.219317 -59.37814,0 282.84271,282.842713 59.37814,0 z"
       id="path3334"
       style="fill:#000000" />
    <path
       inkscape:connector-curvature="0"
       d="m 230.91819,93.219317 -59.34585,0 282.84271,282.842713 59.34585,0 z"
       id="path3336"
       style="fill:#000000" />
    <path
       inkscape:connector-curvature="0"
       d="m 87.396773,210.52262 0,48.81988 282.842717,282.84271 0,-48.81988 z"
       id="path3338"
       style="fill:#000000" />
    <path
       inkscape:connector-curvature="0"
       d="m 87.396773,259.3425 53.372517,0 282.84271,282.84271 -53.37251,0 z"
       id="path3340"
       style="fill:#000000" />
    <path
       inkscape:connector-curvature="0"
       d="m 140.76929,259.3425 0,-48.81988 282.84271,282.84271 0,48.81988 z"
       id="path3342"
       style="fill:#000000" />
    <path
       inkscape:connector-curvature="0"
       d="m 140.76929,210.52262 -53.372517,0 282.842717,282.84271 53.37251,0 z"
       id="path3344"
       style="fill:#000000" />
    <path
       inkscape:connector-curvature="0"
       d="m 164.82406,210.52262 0,48.81988 282.84271,282.84271 0,-48.81988 z"
       id="path3346"
       style="fill:#000000" />
    <path
       inkscape:connector-curvature="0"
       d="m 164.82406,259.3425 54.11515,0 282.84271,282.84271 -54.11515,0 z"
       id="path3348"
       style="fill:#000000" />
    <path
       inkscape:connector-curvature="0"
       d="m 218.93921,259.3425 0,-48.81988 282.84271,282.84271 0,48.81988 z"
       id="path3350"
       style="fill:#000000" />
    <path
       inkscape:connector-curvature="0"
       d="m 218.93921,210.52262 -54.11515,0 282.84271,282.84271 54.11515,0 z"
       id="path3352"
       style="fill:#000000" />
    <path
       inkscape:connector-curvature="0"
       d="m 242.96169,210.52262 0,48.81988 282.84271,282.84271 0,-48.81988 z"
       id="path3354"
       style="fill:#000000" />
    <path
       inkscape:connector-curvature="0"
       d="m 242.96169,259.3425 54.11515,0 282.84271,282.84271 -54.11515,0 z"
       id="path3356"
       style="fill:#000000" />
    <path
       inkscape:connector-curvature="0"
       d="m 297.07684,259.3425 0,-48.81988 282.84271,282.84271 0,48.81988 z"
       id="path3358"
       style="fill:#000000" />
    <path
       inkscape:connector-curvature="0"
       d="m 297.07684,210.52262 -54.11515,0 282.84271,282.84271 54.11515,0 z"
       id="path3360"
       style="fill:#000000" />
    <path
       inkscape:connector-curvature="0"
       d="m 336.79142,244.42532 0,67.80538 282.84271,282.84271 0,-67.80538 z"
       id="path3362"
       style="fill:#000000" />
    <path
       inkscape:connector-curvature="0"
       d="m 336.79142,312.2307 -67.77309,-0.0323 282.84271,282.84271 67.77309,0.0323 z"
       id="path3364"
       style="fill:#000000" />
    <path
       inkscape:connector-curvature="0"
       d="m 269.01833,312.1984 -0.41975,68.22513 282.84271,282.84271 0.41975,-68.22513 z"
       id="path3366"
       style="fill:#000000" />
    <path
       inkscape:connector-curvature="0"
       d="m 268.59858,380.42353 68.22513,0 282.84271,282.84271 -68.22513,0 z"
       id="path3368"
       style="fill:#000000" />
    <path
       inkscape:connector-curvature="0"
       d="m 336.82371,380.42353 0,67.83767 282.84271,282.84271 0,-67.83767 z"
       id="path3370"
       style="fill:#000000" />
    <path
       inkscape:connector-curvature="0"
       d="m 336.82371,448.2612 68.80632,0.51661 282.84271,282.84271 -68.80632,-0.51661 z"
       id="path3372"
       style="fill:#000000" />
    <path
       inkscape:connector-curvature="0"
       d="m 405.63003,448.77781 -0.16145,-68.32199 282.84271,282.84271 0.16145,68.32199 z"
       id="path3374"
       style="fill:#000000" />
    <path
       inkscape:connector-curvature="0"
       d="m 405.46858,380.45582 68.0314,0.0969 282.84271,282.84271 -68.0314,-0.0969 z"
       id="path3376"
       style="fill:#000000" />
    <path
       inkscape:connector-curvature="0"
       d="m 473.49998,380.55272 -0.38746,-68.32199 282.84271,282.84271 0.38746,68.32199 z"
       id="path3378"
       style="fill:#000000" />
    <path
       inkscape:connector-curvature="0"
       d="m 473.11252,312.23073 -67.90224,-0.0323 282.84271,282.84271 67.90224,0.0323 z"
       id="path3380"
       style="fill:#000000" />
    <path
       inkscape:connector-curvature="0"
       d="m 405.21028,312.19843 -0.12916,-67.77309 282.84271,282.84271 0.12916,67.77309 z"
       id="path3382"
       style="fill:#000000" />
    <path
       inkscape:connector-curvature="0"
       d="m 405.08112,244.42534 -68.2897,0 282.84271,282.84271 68.2897,0 z"
       id="path3384"
       style="fill:#000000" />
    <path
       inkscape:connector-curvature="0"
       d="m 87.396773,281.07251 0,49.62708 282.842717,282.84271 0,-49.62708 z"
       id="path3386"
       style="fill:#000000" />
    <path
       inkscape:connector-curvature="0"
       d="m 87.396773,330.69959 53.372517,0 282.84271,282.84271 -53.37251,0 z"
       id="path3388"
       style="fill:#000000" />
    <path
       inkscape:connector-curvature="0"
       d="m 140.76929,330.69959 0,-49.62708 282.84271,282.84271 0,49.62708 z"
       id="path3390"
       style="fill:#000000" />
    <path
       inkscape:connector-curvature="0"
       d="m 140.76929,281.07251 -53.372517,0 282.842717,282.84271 53.37251,0 z"
       id="path3392"
       style="fill:#000000" />
    <path
       inkscape:connector-curvature="0"
       d="m 164.82406,281.07251 0,49.62708 282.84271,282.84271 0,-49.62708 z"
       id="path3394"
       style="fill:#000000" />
    <path
       inkscape:connector-curvature="0"
       d="m 164.82406,330.69959 54.11515,0 282.84271,282.84271 -54.11515,0 z"
       id="path3396"
       style="fill:#000000" />
    <path
       inkscape:connector-curvature="0"
       d="m 218.93921,330.69959 0,-49.62708 282.84271,282.84271 0,49.62708 z"
       id="path3398"
       style="fill:#000000" />
    <path
       inkscape:connector-curvature="0"
       d="m 218.93921,281.07251 -54.11515,0 282.84271,282.84271 54.11515,0 z"
       id="path3400"
       style="fill:#000000" />
    <path
       inkscape:connector-curvature="0"
       d="m 87.396773,352.49418 0,49.62708 282.842717,282.84271 0,-49.62708 z"
       id="path3402"
       style="fill:#000000" />
    <path
       inkscape:connector-curvature="0"
       d="m 87.396773,402.12126 53.372517,0 282.84271,282.84271 -53.37251,0 z"
       id="path3404"
       style="fill:#000000" />
    <path
       inkscape:connector-curvature="0"
       d="m 140.76929,402.12126 0,-49.62708 282.84271,282.84271 0,49.62708 z"
       id="path3406"
       style="fill:#000000" />
    <path
       inkscape:connector-curvature="0"
       d="m 140.76929,352.49418 -53.372517,0 282.842717,282.84271 53.37251,0 z"
       id="path3408"
       style="fill:#000000" />
    <path
       inkscape:connector-curvature="0"
       d="m 164.82406,352.49418 0,49.62708 282.84271,282.84271 0,-49.62708 z"
       id="path3410"
       style="fill:#000000" />
    <path
       inkscape:connector-curvature="0"
       d="m 164.82406,402.12126 54.11515,0 282.84271,282.84271 -54.11515,0 z"
       id="path3412"
       style="fill:#000000" />
    <path
       inkscape:connector-curvature="0"
       d="m 218.93921,402.12126 0,-49.62708 282.84271,282.84271 0,49.62708 z"
       id="path3414"
       style="fill:#000000" />
    <path
       inkscape:connector-curvature="0"
       d="m 218.93921,352.49418 -54.11515,0 282.84271,282.84271 54.11515,0 z"
       id="path3416"
       style="fill:#000000" />
  </g>
  <path
     style="fill:#666666"
     d="m 142.28684,63.223506 c -3.34238,-0.04809 -6.8896,1.220614 -9.75106,3.74544 -5.21798,4.568734 -4.99848,4.665057 -5.26299,30.803016 -0.14428,15.148958 0.21362,24.580838 0.74263,27.057578 1.03398,4.83324 3.50749,8.65039 7.52317,10.52598 7.04547,3.29429 16.26416,-0.0395 19.53441,-6.74825 1.58703,-3.27025 1.70991,-3.32406 1.51755,-29.317759 l -0.74264,-27.057576 -1.51754,-3.002809 c -3.10193,-4.063768 -7.73107,-5.957528 -12.01124,-6.00562 l -0.0323,0 z m 177.3595,0 c -4.28018,0.0481 -8.94159,1.941852 -12.04352,6.00562 l -1.51755,3.002809 0,27.800205 0,27.05758 1.51755,3.00281 c 1.17826,1.7794 3.33931,4.32519 5.26299,5.26299 6.17981,3.05384 14.1056,1.42444 18.04914,-3.74544 3.22216,-4.23209 4.00995,-8.24497 3.74544,-33.805829 -0.2645,-26.137967 -0.045,-26.234284 -5.26299,-30.803017 -2.86147,-2.524826 -6.43272,-3.793532 -9.75106,-3.74544 l 0,-0.03229 z m -148.07403,29.995809 0,17.274225 c 0,14.0188 -0.48357,17.27954 -1.51755,20.30933 -7.30998,21.66541 -34.33385,27.83628 -49.62708,11.26861 -3.87141,-4.20805 -6.53729,-9.84138 -7.52317,-15.75668 -0.38475,-2.4046 -0.74263,-10.83257 -0.74263,-18.79178 l 0,-14.271416 -18.016857,0 0.0646,0.03229 c -13.70619,0 -19.15497,-0.14707 -22.5695,0.74263 -14.523759,3.775218 -25.801458,15.392336 -30.803017,30.060386 l -2.26018,4.52036 0,139.00103 c -0.216414,154.83196 -0.363766,144.19117 5.262989,155.56492 5.674847,11.49396 17.243888,20.54685 30.060388,23.31213 5.84316,1.25039 161.002647,1.46401 244.971157,0.74263 l 0,-29.31775 c -23.63718,0.16832 -26.01843,0.76667 -87.88869,0.74263 -127.01078,-0.0241 -150.755867,-0.60381 -153.304737,-1.51755 -3.79926,-1.34657 -7.95041,-5.97584 -9.008433,-9.75106 -0.553057,-2.01986 -0.74263,-34.55082 -0.74263,-106.71276 l 0,-104.48486 163.0558,0 163.05579,0 0,30.06039 11.26861,0 18.04915,0 0,-97.67204 -2.26018,-4.52036 c -5.02561,-14.66803 -16.3033,-26.285166 -30.80302,-30.060384 -3.41453,-0.889701 -8.86331,-0.74263 -22.5695,-0.74263 l -18.04915,0 0,14.271414 c 0,7.95921 -0.3579,16.38718 -0.74263,18.79178 -1.89963,11.63824 -10.07876,20.70413 -21.01967,24.02248 -4.88133,1.49085 -11.94706,1.53894 -16.56388,0 -9.20961,-3.07789 -16.40844,-10.25266 -19.53441,-19.53441 -1.00994,-3.02979 -1.51755,-6.29053 -1.51755,-20.30933 l 0,-17.274223 -59.37814,0 -59.34585,0 z m -84.175537,117.303305 0,48.81988 53.372517,0 0,-48.81988 -53.372517,0 z m 77.427287,0 0,48.81988 54.11515,0 0,-48.81988 -54.11515,0 z m 78.13763,0 0,48.81988 54.11515,0 0,-48.81988 -54.11515,0 z m 93.82973,33.9027 0,67.80538 -67.77309,-0.0323 -0.41975,68.22513 68.22513,0 0,67.83767 68.80632,0.51661 -0.16145,-68.32199 68.0314,0.0969 -0.38746,-68.32199 -67.90224,-0.0323 -0.12916,-67.77309 -68.2897,0 z m -249.394647,36.64719 0,49.62708 53.372517,0 0,-49.62708 -53.372517,0 z m 77.427287,0 0,49.62708 54.11515,0 0,-49.62708 -54.11515,0 z m -77.427287,71.42167 0,49.62708 53.372517,0 0,-49.62708 -53.372517,0 z m 77.427287,0 0,49.62708 54.11515,0 0,-49.62708 -54.11515,0 z"
     id="path142"
     inkscape:connector-curvature="0" />
</svg>
