<?xml version="1.0" encoding="UTF-8" standalone="no"?>
<svg
   xmlns:dc="http://purl.org/dc/elements/1.1/"
   xmlns:cc="http://creativecommons.org/ns#"
   xmlns:rdf="http://www.w3.org/1999/02/22-rdf-syntax-ns#"
   xmlns:svg="http://www.w3.org/2000/svg"
   xmlns="http://www.w3.org/2000/svg"
   xmlns:sodipodi="http://sodipodi.sourceforge.net/DTD/sodipodi-0.dtd"
   xmlns:inkscape="http://www.inkscape.org/namespaces/inkscape"
   width="512"
   height="512"
   viewBox="0 0 384 384"
   id="svg2"
   version="1.1"
   inkscape:version="0.48.5 r10040"
   sodipodi:docname="go-bottom.svg">
  <sodipodi:namedview
     pagecolor="#ffffff"
     bordercolor="#666666"
     borderopacity="1"
     objecttolerance="10"
     gridtolerance="10"
     guidetolerance="10"
     inkscape:pageopacity="0"
     inkscape:pageshadow="2"
     inkscape:window-width="1306"
     inkscape:window-height="715"
     id="namedview20"
     showgrid="false"
     inkscape:zoom="0.4609375"
     inkscape:cx="119.32203"
     inkscape:cy="171.38983"
     inkscape:window-x="56"
     inkscape:window-y="28"
     inkscape:window-maximized="1"
     inkscape:current-layer="svg2" />
  <metadata
     id="metadata24">
    <rdf:RDF>
      <cc:Work
         rdf:about="">
        <dc:format>image/svg+xml</dc:format>
        <dc:type
           rdf:resource="http://purl.org/dc/dcmitype/StillImage" />
      </cc:Work>
    </rdf:RDF>
  </metadata>
  <defs
     id="defs22">
    <clipPath
       id="clipPath3175"
       clipPathUnits="userSpaceOnUse">
      <path
         inkscape:connector-curvature="0"
         style="fill:none;fill-opacity:1;stroke:none"
         d="M 19.500001,-2e-6 C 8.7019813,-2e-6 1.35e-6,8.701984 1.35e-6,19.499998 l 0,345.000002 c 0,10.79801 8.70197995,19.5 19.49999965,19.5 L 364.5,384 c 10.79801,0 19.5,-8.70199 19.5,-19.5 l 0,-345.000002 c 0,-10.798014 -8.70199,-19.5 -19.5,-19.5 l -344.999999,0 z"
         id="path3177" />
    </clipPath>
    <clipPath
       clipPathUnits="userSpaceOnUse"
       id="clipPath3187">
      <path
         inkscape:connector-curvature="0"
         style="fill:none;fill-opacity:1;stroke:none"
         d="M 19.500001,-2e-6 C 8.7019813,-2e-6 1.35e-6,8.701984 1.35e-6,19.499998 l 0,345.000002 c 0,10.79801 8.70197995,19.5 19.49999965,19.5 L 364.5,384 c 10.79801,0 19.5,-8.70199 19.5,-19.5 l 0,-345.000002 c 0,-10.798014 -8.70199,-19.5 -19.5,-19.5 l -344.999999,0 z"
         id="path3189" />
    </clipPath>
  </defs>
  <path
     id="rect2986"
     d="M 19.500001,-2e-6 C 8.7019813,-2e-6 1.35e-6,8.701984 1.35e-6,19.499998 l 0,345.000002 c 0,10.79801 8.70197995,19.5 19.49999965,19.5 L 364.5,384 c 10.79801,0 19.5,-8.70199 19.5,-19.5 l 0,-345.000002 c 0,-10.798014 -8.70199,-19.5 -19.5,-19.5 l -344.999999,0 z"
     style="fill:none;fill-opacity:1;stroke:none"
     inkscape:connector-curvature="0" />
  <g
     style="fill:#000000;fill-rule:evenodd;opacity:0.0"
     id="g3028"
     clip-path="url(#clipPath3187)">
    <path
       inkscape:connector-curvature="0"
       d="m 113.85226,42 c -4.83928,0 -9.68361,1.856083 -13.36273,5.53473 l 388.90873,388.90873 c 3.67912,-3.67865 8.52345,-5.53473 13.36273,-5.53473 z"
       id="path3030"
       style="fill:#000000" />
    <path
       inkscape:connector-curvature="0"
       d="M 100.48953,47.53473 66.156562,81.867695 455.06529,470.77642 489.39826,436.44346 z"
       id="path3032"
       style="fill:#000000" />
    <path
       inkscape:connector-curvature="0"
       d="m 66.156562,81.867695 c -7.357295,7.357295 -7.357295,18.596395 0,25.953695 L 455.06529,496.73012 c -7.35729,-7.3573 -7.35729,-18.5964 0,-25.9537 z"
       id="path3034"
       style="fill:#000000" />
    <path
       inkscape:connector-curvature="0"
       d="m 66.156562,107.82139 78.610798,78.63285 388.90873,388.90873 -78.6108,-78.63285 z"
       id="path3036"
       style="fill:#000000" />
    <path
       inkscape:connector-curvature="0"
       d="m 144.76736,186.45424 34.33297,34.33297 388.90873,388.90873 -34.33297,-34.33297 z"
       id="path3038"
       style="fill:#000000" />
    <path
       inkscape:connector-curvature="0"
       d="m 179.10033,220.78721 c 7.35729,7.35353 19.36723,7.35353 26.72547,0 l 388.90873,388.90873 c -7.35824,7.35353 -19.36818,7.35353 -26.72547,0 z"
       id="path3040"
       style="fill:#000000" />
    <path
       inkscape:connector-curvature="0"
       d="m 205.8258,220.78721 35.10473,-35.10474 388.90873,388.90873 -35.10473,35.10474 z"
       id="path3042"
       style="fill:#000000" />
    <path
       inkscape:connector-curvature="0"
       d="m 240.93053,185.68247 77.08932,-77.86108 388.90873,388.90873 -77.08932,77.86108 z"
       id="path3044"
       style="fill:#000000" />
    <path
       inkscape:connector-curvature="0"
       d="m 318.01985,107.82139 c 3.67864,-3.67865 5.35833,-8.16288 5.35833,-12.96582 L 712.28691,483.7643 c 0,4.80294 -1.67969,9.28717 -5.35833,12.96582 z"
       id="path3046"
       style="fill:#000000" />
    <path
       inkscape:connector-curvature="0"
       d="m 323.37818,94.85557 c 0,-4.800117 -1.65763,-9.309224 -5.33627,-12.98787 l 388.90873,388.90873 c 3.67864,3.67865 5.33627,8.18775 5.33627,12.98787 z"
       id="path3048"
       style="fill:#000000" />
    <path
       inkscape:connector-curvature="0"
       d="m 318.04191,81.8677 c -10e-6,-2e-6 -10e-6,-4e-6 -10e-6,-6e-6 L 706.95063,470.77642 c 0,1e-5 0,1e-5 10e-6,1e-5 z"
       id="path3050"
       style="fill:#000000" />
    <path
       inkscape:connector-curvature="0"
       d="M 318.0419,81.867694 283.68687,47.534729 672.5956,436.44346 l 34.35503,34.33296 z"
       id="path3052"
       style="fill:#000000" />
    <path
       inkscape:connector-curvature="0"
       d="m 283.68687,47.534729 c 0,-5e-6 -10e-6,-9e-6 -10e-6,-1.4e-5 L 672.59559,436.44344 c 0,10e-6 10e-6,10e-6 10e-6,2e-5 z"
       id="path3054"
       style="fill:#000000" />
    <path
       inkscape:connector-curvature="0"
       d="m 283.68686,47.534715 c -7.35729,-7.357281 -19.36721,-7.357276 -26.72545,1.4e-5 L 645.87014,436.44346 c 7.35824,-7.35729 19.36816,-7.3573 26.72545,-2e-5 z"
       id="path3056"
       style="fill:#000000" />
    <path
       inkscape:connector-curvature="0"
       d="m 256.96141,47.534729 -64.8732,64.873211 388.90873,388.90873 64.8732,-64.87321 z"
       id="path3058"
       style="fill:#000000" />
    <path
       inkscape:connector-curvature="0"
       d="M 192.08821,112.40794 127.215,47.53473 l 388.90873,388.90873 64.87321,64.87321 z"
       id="path3060"
       style="fill:#000000" />
    <path
       inkscape:connector-curvature="0"
       d="m 127.215,47.53473 c 0,-4e-6 -1e-5,-9e-6 -1e-5,-1.3e-5 L 516.12372,436.44345 c 0,0 10e-6,1e-5 10e-6,1e-5 z"
       id="path3062"
       style="fill:#000000" />
    <path
       inkscape:connector-curvature="0"
       d="M 127.21499,47.534717 C 123.53635,43.856079 118.69154,42 113.85226,42 l 388.90873,388.90873 c 4.83928,0 9.68409,1.85608 13.36273,5.53472 z"
       id="path3064"
       style="fill:#000000" />
    <path
       inkscape:connector-curvature="0"
       d="m 79.298789,270.35721 c -19.785667,0 -35.832414,16.04675 -35.832414,35.83242 L 432.3751,695.09836 c 0,-19.78567 16.04675,-35.83242 35.83242,-35.83242 z"
       id="path3066"
       style="fill:#000000" />
    <path
       inkscape:connector-curvature="0"
       d="m 43.466375,306.18963 c 0,9.88732 4.007218,18.83545 10.485746,25.31398 L 442.86085,720.41234 c -6.47853,-6.47853 -10.48575,-15.42666 -10.48575,-25.31398 z"
       id="path3068"
       style="fill:#000000" />
    <path
       inkscape:connector-curvature="0"
       d="M 53.952121,331.50361 C 60.437871,337.98936 69.400444,342 79.298789,342 L 468.20752,730.90873 c -9.89835,0 -18.86092,-4.01064 -25.34667,-10.49639 z"
       id="path3070"
       style="fill:#000000" />
    <path
       inkscape:connector-curvature="0"
       d="m 79.298789,342 c 19.785667,0 35.832421,-16.0247 35.832421,-35.81037 l 388.90873,388.90873 c 0,19.78567 -16.04675,35.81037 -35.83242,35.81037 z"
       id="path3072"
       style="fill:#000000" />
    <path
       inkscape:connector-curvature="0"
       d="m 115.13121,306.18963 c 0,-9.89283 -4.01169,-18.85094 -10.49658,-25.33584 l 388.90873,388.90873 c 6.48489,6.4849 10.49658,15.44301 10.49658,25.33584 z"
       id="path3074"
       style="fill:#000000" />
    <path
       inkscape:connector-curvature="0"
       d="M 104.63463,280.85379 C 98.149729,274.3689 89.191623,270.35721 79.298789,270.35721 L 468.20752,659.26594 c 9.89283,0 18.85094,4.01169 25.33584,10.49658 z"
       id="path3076"
       style="fill:#000000" />
    <path
       inkscape:connector-curvature="0"
       d="m 192.00001,270.35721 c -19.78568,0 -35.83243,16.04675 -35.83243,35.83242 l 388.90873,388.90873 c 0,-19.78567 16.04675,-35.83242 35.83243,-35.83242 z"
       id="path3078"
       style="fill:#000000" />
    <path
       inkscape:connector-curvature="0"
       d="m 156.16758,306.18963 c 0,9.88732 4.00722,18.83545 10.48574,25.31398 l 388.90873,388.90872 c -6.47852,-6.47852 -10.48574,-15.42665 -10.48574,-25.31397 z"
       id="path3080"
       style="fill:#000000" />
    <path
       inkscape:connector-curvature="0"
       d="M 166.65332,331.50361 C 173.13908,337.98936 182.10166,342 192.00001,342 l 388.90873,388.90873 c -9.89835,0 -18.86093,-4.01064 -25.34669,-10.4964 z"
       id="path3082"
       style="fill:#000000" />
    <path
       inkscape:connector-curvature="0"
       d="m 192.00001,342 c 19.78566,0 35.83241,-16.0247 35.83241,-35.81037 l 388.90873,388.90873 c 0,19.78567 -16.04675,35.81037 -35.83241,35.81037 z"
       id="path3084"
       style="fill:#000000" />
    <path
       inkscape:connector-curvature="0"
       d="m 227.83242,306.18963 c 0,-9.89284 -4.01169,-18.85094 -10.49658,-25.33584 l 388.90872,388.90873 c 6.4849,6.4849 10.49659,15.443 10.49659,25.33584 z"
       id="path3086"
       style="fill:#000000" />
    <path
       inkscape:connector-curvature="0"
       d="m 217.33584,280.85379 c -6.4849,-6.48489 -15.443,-10.49658 -25.33583,-10.49658 l 388.90873,388.90873 c 9.89283,0 18.85093,4.01169 25.33582,10.49658 z"
       id="path3088"
       style="fill:#000000" />
    <path
       inkscape:connector-curvature="0"
       d="m 304.70122,270.35721 c -19.78566,0 -35.83242,16.04675 -35.83242,35.83242 l 388.90873,388.90873 c 0,-19.78567 16.04676,-35.83242 35.83242,-35.83242 z"
       id="path3090"
       style="fill:#000000" />
    <path
       inkscape:connector-curvature="0"
       d="m 268.8688,306.18963 c 0,9.88732 4.00722,18.83545 10.48575,25.31398 l 388.90873,388.90872 c -6.47853,-6.47852 -10.48575,-15.42665 -10.48575,-25.31397 z"
       id="path3092"
       style="fill:#000000" />
    <path
       inkscape:connector-curvature="0"
       d="M 279.35455,331.50361 C 285.8403,337.98936 294.80288,342 304.70122,342 l 388.90873,388.90873 c -9.89834,0 -18.86092,-4.01064 -25.34667,-10.4964 z"
       id="path3094"
       style="fill:#000000" />
    <path
       inkscape:connector-curvature="0"
       d="m 304.70122,342 c 19.78566,0 35.83241,-16.0247 35.83241,-35.81037 l 388.90873,388.90873 c 0,19.78567 -16.04675,35.81037 -35.83241,35.81037 z"
       id="path3096"
       style="fill:#000000" />
    <path
       inkscape:connector-curvature="0"
       d="m 340.53363,306.18963 c 0,-9.89284 -4.01169,-18.85094 -10.49658,-25.33584 l 388.90872,388.90873 c 6.4849,6.4849 10.49659,15.443 10.49659,25.33584 z"
       id="path3098"
       style="fill:#000000" />
    <path
       inkscape:connector-curvature="0"
       d="m 330.03705,280.85379 c -6.4849,-6.48489 -15.443,-10.49658 -25.33583,-10.49658 l 388.90873,388.90873 c 9.89283,0 18.85093,4.01169 25.33582,10.49658 z"
       id="path3100"
       style="fill:#000000" />
  </g>
  <path
     style="fill:#666666;fill-rule:evenodd"
     d="m 113.85226,42 c -4.83928,0 -9.68361,1.856083 -13.36273,5.53473 L 66.156562,81.867695 c -7.357295,7.357295 -7.357295,18.596395 0,25.953695 l 78.610798,78.63285 34.33297,34.33297 c 7.35729,7.35353 19.36723,7.35353 26.72547,0 l 35.10473,-35.10474 77.08932,-77.86108 c 3.67864,-3.67865 5.35833,-8.16288 5.35833,-12.96582 0,-4.80012 -1.65763,-9.309229 -5.33628,-12.987876 L 283.68687,47.534729 c -7.35728,-7.357295 -19.36722,-7.357295 -26.72546,0 L 192.08821,112.40794 127.215,47.53473 C 123.53636,43.856083 118.69155,42 113.85226,42 z M 79.298789,270.35721 c -19.785667,0 -35.832414,16.04675 -35.832414,35.83242 0,19.78567 16.046747,35.81037 35.832414,35.81037 19.785667,0 35.832421,-16.0247 35.832421,-35.81037 0,-19.78567 -16.046754,-35.83242 -35.832421,-35.83242 z m 112.701221,0 c -19.78568,0 -35.83243,16.04675 -35.83243,35.83242 0,19.78567 16.04675,35.81037 35.83243,35.81037 19.78566,0 35.83241,-16.0247 35.83241,-35.81037 0,-19.78567 -16.04675,-35.83242 -35.83241,-35.83242 z m 112.70121,0 c -19.78566,0 -35.83242,16.04675 -35.83242,35.83242 0,19.78567 16.04676,35.81037 35.83242,35.81037 19.78566,0 35.83241,-16.0247 35.83241,-35.81037 0,-19.78567 -16.04675,-35.83242 -35.83241,-35.83242 z"
     id="path12"
     inkscape:connector-curvature="0" />
</svg>
