<?xml version="1.0" encoding="UTF-8" standalone="no"?>
<!-- Created with Inkscape (http://www.inkscape.org/) -->

<svg
   xmlns:dc="http://purl.org/dc/elements/1.1/"
   xmlns:cc="http://creativecommons.org/ns#"
   xmlns:rdf="http://www.w3.org/1999/02/22-rdf-syntax-ns#"
   xmlns:svg="http://www.w3.org/2000/svg"
   xmlns="http://www.w3.org/2000/svg"
   xmlns:inkscape="http://www.inkscape.org/namespaces/inkscape"
   version="1.1"
   width="100%"
   height="100%"
   viewBox="0 0 512 512"
   id="svg2">
  <metadata
     id="metadata101">
    <rdf:RDF>
      <cc:Work
         rdf:about="">
        <dc:format>image/svg+xml</dc:format>
        <dc:type
           rdf:resource="http://purl.org/dc/dcmitype/StillImage" />
      </cc:Work>
    </rdf:RDF>
  </metadata>
  <defs
     id="defs4">
    <clipPath
       id="0">
      <path
         d="M 26,0 C 11.603,0 0,11.603 0,26 v 460 c 0,14.397 11.603,26 26,26 h 460 c 14.397,0 26,-11.603 26,-26 V 26 C 512,11.603 500.397,0 486,0 H 26"
         inkscape:connector-curvature="0"
         id="path7" />
    </clipPath>
  </defs>
  <path
     d="M 26,0 C 11.603,0 0,11.603 0,26 v 460 c 0,14.397 11.603,26 26,26 h 460 c 14.397,0 26,-11.603 26,-26 V 26 C 512,11.603 500.397,0 486,0 H 26"
     inkscape:connector-curvature="0"
     id="path9"
     style="fill:none" />
  <g
     clip-path="url(#0)"
     id="g57"
     style="opacity:0.0;fill-rule:evenodd">
    <path
       d="m 164.85,164.88 c -50.2,50.21 -50.2,132.05 0,182.26 L 518.4,700.69 c -50.2,-50.21 -50.2,-132.06 0,-182.26 z"
       inkscape:connector-curvature="0"
       id="path59" />
    <path
       d="m 164.85,347.14 c 50.21,50.2 132.05,50.2 182.26,0 l 353.55,353.55 c -50.21,50.2 -132.06,50.2 -182.26,0 z"
       inkscape:connector-curvature="0"
       id="path61" />
    <path
       d="m 347.12,347.14 c 50.2,-50.21 50.2,-132.05 0,-182.26 l 353.55,353.55 c 50.2,50.21 50.2,132.06 0,182.26 z"
       inkscape:connector-curvature="0"
       id="path63" />
    <path
       d="m 347.12,164.88 c -50.21,-50.2 -132.05,-50.2 -182.26,0 l 353.55,353.55 c 50.21,-50.2 132.06,-50.2 182.26,0 z"
       inkscape:connector-curvature="0"
       id="path65" />
    <path
       d="m 69.07,308.55 c -36.98,36.98 -37.643,98.06 -0.669,135.04 l 353.55,353.55 c -36.975,-36.98 -36.31,-98.06 0.669,-135.04 z"
       inkscape:connector-curvature="0"
       id="path67" />
    <path
       d="m 68.4,443.6 c 0,0 0,0 0,0 l 353.55,353.55 c 0,0 0,0 0,0 z"
       inkscape:connector-curvature="0"
       id="path69" />
    <path
       d="m 68.4,443.6 c 36.98,36.98 98.06,36.31 135.04,-0.669 l 353.55,353.55 c -36.98,36.976 -98.06,37.649 -135.04,0.669 z"
       inkscape:connector-curvature="0"
       id="path71" />
    <path
       d="m 203.45,442.93 c 8.294,-8.287 14.06,-17.82 18.63,-27.93 l 353.55,353.55 c -4.574,10.11 -10.335,19.642 -18.63,27.93 z"
       inkscape:connector-curvature="0"
       id="path73" />
    <path
       d="m 222.08,415 c -29.773,-6.338 -58.02,-20.779 -81.15,-43.905 l 353.55,353.55 c 23.13,23.13 51.38,37.567 81.15,43.905 z"
       inkscape:connector-curvature="0"
       id="path75" />
    <path
       d="m 140.92,371.09 c 0,0 0,0 0,0 l 353.55,353.55 c 0,0 0,0 0,0 z"
       inkscape:connector-curvature="0"
       id="path77" />
    <path
       d="M 140.92,371.09 C 117.79,347.96 103.356,319.7 97.015,289.94 l 353.55,353.55 c 6.341,29.768 20.779,58.03 43.905,81.15 z"
       inkscape:connector-curvature="0"
       id="path79" />
    <path
       d="m 97.02,289.94 c -10.115,4.571 -19.65,10.332 -27.93,18.63 l 353.55,353.55 c 8.28,-8.297 17.815,-14.06 27.93,-18.63 z"
       inkscape:connector-curvature="0"
       id="path81" />
    <path
       d="m 308.57,69.09 c -8.294,8.287 -14.1,17.874 -18.63,27.93 l 353.55,353.55 c 4.526,-10.06 10.335,-19.642 18.63,-27.93 z"
       inkscape:connector-curvature="0"
       id="path83" />
    <path
       d="m 289.94,97.02 c 29.773,6.338 58.02,20.779 81.15,43.905 l 353.55,353.55 c -23.13,-23.13 -51.38,-37.567 -81.15,-43.905 z"
       inkscape:connector-curvature="0"
       id="path85" />
    <path
       d="m 371.09,140.92 c 23.13,23.13 37.564,51.39 43.905,81.15 l 353.55,353.55 c -6.341,-29.768 -20.779,-58.03 -43.905,-81.15 z"
       inkscape:connector-curvature="0"
       id="path87" />
    <path
       d="m 415,222.08 c 10.06,-4.523 19.649,-10.332 27.93,-18.63 L 796.48,557 c -8.28,8.297 -17.868,14.11 -27.93,18.63 z"
       inkscape:connector-curvature="0"
       id="path89" />
    <path
       d="m 442.93,203.45 c 36.98,-36.98 37.643,-98.06 0.669,-135.04 l 353.55,353.55 c 36.975,36.98 36.31,98.06 -0.669,135.04 z"
       inkscape:connector-curvature="0"
       id="path91" />
    <path
       d="m 443.6,68.4 c 0,0 0,0 0,0 l 353.55,353.55 c 0,0 0,0 0,0 z"
       inkscape:connector-curvature="0"
       id="path93" />
    <path
       d="M 443.6,68.4 C 406.62,31.42 345.54,32.09 308.56,69.069 l 353.55,353.55 c 36.98,-36.976 98.06,-37.649 135.04,-0.669 z"
       inkscape:connector-curvature="0"
       id="path95" />
  </g>
  <path
     d="m 164.85,164.88 c -50.2,50.21 -50.2,132.05 0,182.26 50.21,50.2 132.05,50.2 182.26,0 50.2,-50.21 50.2,-132.05 0,-182.26 -50.21,-50.2 -132.05,-50.2 -182.26,0 M 69.07,308.56 c -36.98,36.98 -37.643,98.06 -0.669,135.04 36.98,36.98 98.06,36.31 135.04,-0.669 8.294,-8.287 14.06,-17.82 18.63,-27.93 -29.773,-6.338 -58.02,-20.779 -81.15,-43.905 -23.13,-23.13 -37.564,-51.39 -43.905,-81.15 -10.115,4.571 -19.65,10.332 -27.93,18.63 m 239.48,-239.48 c -8.294,8.287 -14.1,17.874 -18.63,27.93 29.773,6.338 58.02,20.779 81.15,43.905 23.13,23.13 37.564,51.39 43.905,81.15 10.06,-4.523 19.649,-10.332 27.93,-18.63 36.98,-36.98 37.643,-98.06 0.669,-135.04 -36.98,-36.98 -98.06,-36.31 -135.04,0.669"
     inkscape:connector-curvature="0"
     id="path97"
     style="fill:#666666;fill-rule:evenodd" />
</svg>
