<?xml version="1.0" encoding="UTF-8" standalone="no"?>
<svg
   xmlns:dc="http://purl.org/dc/elements/1.1/"
   xmlns:cc="http://creativecommons.org/ns#"
   xmlns:rdf="http://www.w3.org/1999/02/22-rdf-syntax-ns#"
   xmlns:svg="http://www.w3.org/2000/svg"
   xmlns="http://www.w3.org/2000/svg"
   xmlns:sodipodi="http://sodipodi.sourceforge.net/DTD/sodipodi-0.dtd"
   xmlns:inkscape="http://www.inkscape.org/namespaces/inkscape"
   viewBox="0 0 512 512"
   id="svg2"
   version="1.1"
   inkscape:version="0.48.5 r10040"
   width="100%"
   height="100%"
   sodipodi:docname="view-left-new.svg">
  <sodipodi:namedview
     pagecolor="#ffffff"
     bordercolor="#666666"
     borderopacity="1"
     objecttolerance="10"
     gridtolerance="10"
     guidetolerance="10"
     inkscape:pageopacity="0"
     inkscape:pageshadow="2"
     inkscape:window-width="1306"
     inkscape:window-height="715"
     id="namedview180"
     showgrid="false"
     inkscape:zoom="0.4609375"
     inkscape:cx="432.81356"
     inkscape:cy="177.89831"
     inkscape:window-x="56"
     inkscape:window-y="28"
     inkscape:window-maximized="1"
     inkscape:current-layer="svg2" />
  <metadata
     id="metadata184">
    <rdf:RDF>
      <cc:Work
         rdf:about="">
        <dc:format>image/svg+xml</dc:format>
        <dc:type
           rdf:resource="http://purl.org/dc/dcmitype/StillImage" />
      </cc:Work>
    </rdf:RDF>
  </metadata>
  <defs
     id="defs182">
    <clipPath
       clipPathUnits="userSpaceOnUse"
       id="clipPath3392">
      <path
         id="path3394"
         d="M 26,-1.5e-6 C 11.60265,-1.5e-6 0,11.602648 0,25.999998 L 0,486 c 0,14.39735 11.60265,26 26,26 l 460,0 c 14.39735,0 26,-11.60265 26,-26 L 512,25.999998 C 512,11.602648 500.39735,-1.5e-6 486,-1.5e-6 l -460,0 z"
         style="fill:none;fill-opacity:1;stroke:none"
         inkscape:connector-curvature="0" />
    </clipPath>
  </defs>
  <path
     inkscape:connector-curvature="0"
     style="fill:none;fill-opacity:1;stroke:none"
     d="M 26,-1.5e-6 C 11.60265,-1.5e-6 0,11.602648 0,25.999998 L 0,486 c 0,14.39735 11.60265,26 26,26 l 460,0 c 14.39735,0 26,-11.60265 26,-26 L 512,25.999998 C 512,11.602648 500.39735,-1.5e-6 486,-1.5e-6 l -460,0 z"
     id="rect2986" />
  <g
     transform="scale(23.27273,23.27273)"
     id="g22"
     style="fill:none">
  </g>
  <g
     transform="scale(23.27273,23.27273)"
     id="g42"
     style="fill:#000000">
  </g>
  <g
     transform="scale(23.27273,23.27273)"
     id="g56"
     style="fill:none">
    <g
       id="g58"
       style="stroke:#cd1d31">
    </g>
  </g>
  <g
     transform="scale(23.27273,23.27273)"
     id="g78"
     style="fill:#000000">
  </g>
  <g
     transform="scale(23.27273,23.27273)"
     id="g104"
     style="fill:none">
  </g>
  <g
     transform="scale(23.27273,23.27273)"
     id="g124"
     style="fill:#000000">
  </g>
  <g
     transform="scale(23.27273,23.27273)"
     id="g138"
     style="fill:none">
    <g
       id="g140"
       style="stroke:#cd1d31">
    </g>
  </g>
  <g
     transform="scale(23.27273,23.27273)"
     id="g160"
     style="fill:#000000">
  </g>
  <g
     style="fill:#000000;opacity:0.0"
     id="g3186"
     clip-path="url(#clipPath3392)">
    <path
       inkscape:connector-curvature="0"
       d="m 56,78.183908 0,355.603442 388.90873,388.90873 0,-355.60344 z"
       id="path3188"
       style="fill:#000000" />
    <path
       inkscape:connector-curvature="0"
       d="m 56,433.78735 261.14943,0 388.90873,388.90873 -261.14943,0 z"
       id="path3190"
       style="fill:#000000" />
    <path
       inkscape:connector-curvature="0"
       d="m 317.14943,433.78735 0,-355.603442 388.90873,388.908732 0,355.60344 z"
       id="path3192"
       style="fill:#000000" />
    <path
       inkscape:connector-curvature="0"
       d="m 317.14943,78.183908 -261.14943,0 388.90873,388.908732 261.14943,0 z"
       id="path3194"
       style="fill:#000000" />
    <path
       inkscape:connector-curvature="0"
       d="m 352.49425,78.212648 0,355.603442 388.90873,388.90873 0,-355.60344 z"
       id="path3196"
       style="fill:#000000" />
    <path
       inkscape:connector-curvature="0"
       d="m 352.49425,433.81609 33.33334,0 388.90873,388.90873 -33.33334,0 z"
       id="path3198"
       style="fill:#000000" />
    <path
       inkscape:connector-curvature="0"
       d="m 385.82759,433.81609 36.81034,0 388.90873,388.90873 -36.81034,0 z"
       id="path3200"
       style="fill:#000000" />
    <path
       inkscape:connector-curvature="0"
       d="m 422.63793,433.81609 31.95402,0 388.90873,388.90873 -31.95402,0 z"
       id="path3202"
       style="fill:#000000" />
    <path
       inkscape:connector-curvature="0"
       d="m 454.59195,433.81609 1.40805,0 388.90873,388.90873 -1.40805,0 z"
       id="path3204"
       style="fill:#000000" />
    <path
       inkscape:connector-curvature="0"
       d="m 456,433.81609 0,-355.603442 388.90873,388.908732 0,355.60344 z"
       id="path3206"
       style="fill:#000000" />
    <path
       inkscape:connector-curvature="0"
       d="m 456,78.212648 -1.40805,0 388.90873,388.908732 1.40805,0 z"
       id="path3208"
       style="fill:#000000" />
    <path
       inkscape:connector-curvature="0"
       d="m 454.59195,78.212648 -31.95402,0 388.90873,388.908732 31.95402,0 z"
       id="path3210"
       style="fill:#000000" />
    <path
       inkscape:connector-curvature="0"
       d="m 422.63793,78.212648 -36.81034,0 388.90873,388.908732 36.81034,0 z"
       id="path3212"
       style="fill:#000000" />
    <path
       inkscape:connector-curvature="0"
       d="m 385.82759,78.212648 -33.33334,0 388.90873,388.908732 33.33334,0 z"
       id="path3214"
       style="fill:#000000" />
    <path
       inkscape:connector-curvature="0"
       d="m 155.68391,164.01724 61.78161,0 388.90873,388.90873 -61.78161,0 z"
       id="path3216"
       style="fill:#000000" />
    <path
       inkscape:connector-curvature="0"
       d="m 217.46552,164.01724 0,0.0575 388.90873,388.90873 0,-0.0575 z"
       id="path3218"
       style="fill:#000000" />
    <path
       inkscape:connector-curvature="0"
       d="m 217.46552,164.07474 0,61.06322 388.90873,388.90873 0,-61.06322 z"
       id="path3220"
       style="fill:#000000" />
    <path
       inkscape:connector-curvature="0"
       d="m 217.46552,225.13796 61.06322,0 388.90873,388.90873 -61.06322,0 z"
       id="path3222"
       style="fill:#000000" />
    <path
       inkscape:connector-curvature="0"
       d="m 278.52874,225.13796 0,61.03448 388.90873,388.90873 0,-61.03448 z"
       id="path3224"
       style="fill:#000000" />
    <path
       inkscape:connector-curvature="0"
       d="m 278.52874,286.17244 -61.06322,0 388.90873,388.90873 61.06322,0 z"
       id="path3226"
       style="fill:#000000" />
    <path
       inkscape:connector-curvature="0"
       d="m 217.46552,286.17244 0,61.06322 388.90873,388.90873 0,-61.06322 z"
       id="path3228"
       style="fill:#000000" />
    <path
       inkscape:connector-curvature="0"
       d="m 217.46552,347.23566 -61.78161,0.71839 388.90873,388.90873 61.78161,-0.71839 z"
       id="path3230"
       style="fill:#000000" />
    <path
       inkscape:connector-curvature="0"
       d="m 155.68391,347.95405 0,-61.78161 388.90873,388.90873 0,61.78161 z"
       id="path3232"
       style="fill:#000000" />
    <path
       inkscape:connector-curvature="0"
       d="m 155.68391,286.17244 -61.06322,0.68966 388.90873,388.90873 61.06322,-0.68966 z"
       id="path3234"
       style="fill:#000000" />
    <path
       inkscape:connector-curvature="0"
       d="m 94.62069,286.8621 0,-61.78161 388.90873,388.90873 0,61.78161 z"
       id="path3236"
       style="fill:#000000" />
    <path
       inkscape:connector-curvature="0"
       d="m 94.62069,225.08049 61.06322,0 388.90873,388.90873 -61.06322,0 z"
       id="path3238"
       style="fill:#000000" />
    <path
       inkscape:connector-curvature="0"
       d="m 155.68391,225.08049 0,-61.06322 388.90873,388.90873 0,61.06322 z"
       id="path3240"
       style="fill:#000000" />
  </g>
  <path
     inkscape:connector-curvature="0"
     style="fill:#666666"
     d="m 56,78.183908 0,355.603442 261.14943,0 0,-355.603442 -261.14943,0 z m 296.49425,0.02874 0,355.603442 33.33334,0 36.81034,0 31.95402,0 1.40805,0 0,-355.603442 -1.40805,0 -31.95402,0 -36.81034,0 -33.33334,0 z m -196.81034,85.804592 61.78161,0 0,0.0575 0,61.06322 61.06322,0 0,61.03448 -61.06322,0 0,61.06322 -61.78161,0.71839 0,-61.78161 -61.06322,0.68966 0,-61.78161 61.06322,0 0,-61.06322 z"
     id="path3264" />
</svg>
