<?xml version="1.0" encoding="UTF-8" standalone="no"?>
<svg
   xmlns:dc="http://purl.org/dc/elements/1.1/"
   xmlns:cc="http://creativecommons.org/ns#"
   xmlns:rdf="http://www.w3.org/1999/02/22-rdf-syntax-ns#"
   xmlns:svg="http://www.w3.org/2000/svg"
   xmlns="http://www.w3.org/2000/svg"
   xmlns:sodipodi="http://sodipodi.sourceforge.net/DTD/sodipodi-0.dtd"
   xmlns:inkscape="http://www.inkscape.org/namespaces/inkscape"
   width="512"
   height="512"
   viewBox="0 0 384 384"
   id="svg2"
   version="1.1"
   inkscape:version="0.48.5 r10040"
   sodipodi:docname="zoom-double-size.svg">
  <sodipodi:namedview
     pagecolor="#ffffff"
     bordercolor="#666666"
     borderopacity="1"
     objecttolerance="10"
     gridtolerance="10"
     guidetolerance="10"
     inkscape:pageopacity="0"
     inkscape:pageshadow="2"
     inkscape:window-width="1306"
     inkscape:window-height="715"
     id="namedview14"
     showgrid="false"
     inkscape:zoom="0.70710678"
     inkscape:cx="159.68898"
     inkscape:cy="219.14197"
     inkscape:window-x="56"
     inkscape:window-y="28"
     inkscape:window-maximized="1"
     inkscape:current-layer="svg2" />
  <metadata
     id="metadata18">
    <rdf:RDF>
      <cc:Work
         rdf:about="">
        <dc:format>image/svg+xml</dc:format>
        <dc:type
           rdf:resource="http://purl.org/dc/dcmitype/StillImage" />
        <dc:title />
      </cc:Work>
    </rdf:RDF>
  </metadata>
  <defs
     id="defs16">
    <clipPath
       id="clipPath3172"
       clipPathUnits="userSpaceOnUse">
      <path
         inkscape:connector-curvature="0"
         style="fill:none;fill-opacity:1;stroke:none"
         d="M 19.5,-5e-7 C 8.70199,-5e-7 0,8.7019855 0,19.5 l 0,345 C 0,375.29801 8.70199,384 19.5,384 l 345,0 c 10.79801,0 19.5,-8.70199 19.5,-19.5 l 0,-345 C 384,8.7019855 375.29801,-5e-7 364.5,-5e-7 l -345,0 z"
         id="path3174" />
    </clipPath>
    <clipPath
       clipPathUnits="userSpaceOnUse"
       id="clipPath5033">
      <path
         inkscape:connector-curvature="0"
         style="fill:none;fill-opacity:1;stroke:none"
         d="M 19.5,-5e-7 C 8.70199,-5e-7 0,8.7019855 0,19.5 l 0,345 C 0,375.29801 8.70199,384 19.5,384 l 345,0 c 10.79801,0 19.5,-8.70199 19.5,-19.5 l 0,-345 C 384,8.7019855 375.29801,-5e-7 364.5,-5e-7 l -345,0 z"
         id="path5035" />
    </clipPath>
  </defs>
  <path
     id="rect2986"
     d="M 19.5,-5e-7 C 8.70199,-5e-7 0,8.7019855 0,19.5 l 0,345 C 0,375.29801 8.70199,384 19.5,384 l 345,0 c 10.79801,0 19.5,-8.70199 19.5,-19.5 l 0,-345 C 384,8.7019855 375.29801,-5e-7 364.5,-5e-7 l -345,0 z"
     style="fill:none;fill-opacity:1;stroke:none"
     inkscape:connector-curvature="0" />
  <g
     style="fill:#000000;opacity:0.0"
     id="g4223"
     clip-path="url(#clipPath5033)">
    <path
       inkscape:connector-curvature="0"
       d="M 211.70158,27.000001 C 131.83752,26.999974 67.449957,91.946043 67.449954,171.81007 L 456.35868,560.7188 c 1e-5,-79.86403 64.38757,-144.8101 144.25163,-144.81007 z"
       id="path4225"
       style="fill:#000000" />
    <path
       inkscape:connector-curvature="0"
       d="m 67.449954,171.81007 c 5e-6,6.90014 0.119215,13.4404 1.052461,20.08268 L 457.41114,580.80148 c -0.93324,-6.64228 -1.05245,-13.18254 -1.05246,-20.08268 z"
       id="path4227"
       style="fill:#000000" />
    <path
       inkscape:connector-curvature="0"
       d="m 68.502415,191.89275 c 0.0595,0.0963 -0.08382,0.39766 -0.02148,0.49401 L 457.38966,581.29549 c -0.0623,-0.0963 0.081,-0.39771 0.0215,-0.49401 z"
       id="path4229"
       style="fill:#000000" />
    <path
       inkscape:connector-curvature="0"
       d="m 68.480935,192.38676 c 4.538696,35.1005 15.964849,69.18649 -3.586959,93.75497 L 453.80271,675.05046 c 19.5518,-24.56848 8.12565,-58.65447 3.58695,-93.75497 z"
       id="path4231"
       style="fill:#000000" />
    <path
       inkscape:connector-curvature="0"
       d="M 64.893976,286.14173 34.565909,316.49127 423.47464,705.4 453.80271,675.05046 z"
       id="path4233"
       style="fill:#000000" />
    <path
       inkscape:connector-curvature="0"
       d="M 34.565909,316.49127 33.685278,317.3719 422.59401,706.28063 423.47464,705.4 z"
       id="path4235"
       style="fill:#000000" />
    <path
       inkscape:connector-curvature="0"
       d="m 33.685278,317.3719 c -7.807221,8.71925 -7.500481,22.05435 0.880629,30.43546 L 423.47464,736.71609 c -8.38111,-8.38111 -8.68785,-21.71621 -0.88063,-30.43546 z"
       id="path4237"
       style="fill:#000000" />
    <path
       inkscape:connector-curvature="0"
       d="m 34.565907,347.80736 c 10e-7,0 10e-7,0 2e-6,0 L 423.47464,736.71609 c 0,0 0,0 0,0 z"
       id="path4239"
       style="fill:#000000" />
    <path
       inkscape:connector-curvature="0"
       d="m 34.565909,347.80736 2.68485,2.68485 388.908731,388.90873 -2.68485,-2.68485 z"
       id="path4241"
       style="fill:#000000" />
    <path
       inkscape:connector-curvature="0"
       d="m 37.250759,350.49221 c 8.381113,8.38111 21.694724,8.66638 30.413982,0.85915 L 456.57347,740.26009 c -8.71926,7.80723 -22.03287,7.52196 -30.41398,-0.85915 z"
       id="path4243"
       style="fill:#000000" />
    <path
       inkscape:connector-curvature="0"
       d="m 67.664741,351.35136 0.02148,0.0215 388.908729,388.90873 -0.0215,-0.0215 z"
       id="path4245"
       style="fill:#000000" />
    <path
       inkscape:connector-curvature="0"
       d="m 67.686221,351.37286 0.88063,-0.88063 388.908729,388.90873 -0.88063,0.88063 z"
       id="path4247"
       style="fill:#000000" />
    <path
       inkscape:connector-curvature="0"
       d="M 68.566851,350.49223 98.894918,320.16417 487.80365,709.0729 457.47558,739.40096 z"
       id="path4249"
       style="fill:#000000" />
    <path
       inkscape:connector-curvature="0"
       d="m 98.894918,320.16417 c 25.569732,-19.59243 59.377472,-7.40821 96.847912,-4.12393 l 388.90873,388.90873 c -37.47044,-3.28428 -71.27818,-15.4685 -96.84791,4.12393 z"
       id="path4251"
       style="fill:#000000" />
    <path
       inkscape:connector-curvature="0"
       d="m 195.74283,316.04024 c 5.21029,0.57147 10.59733,0.0215 15.95875,0.0215 l 388.90873,388.90873 c -5.36142,0 -10.74846,0.54997 -15.95875,-0.0215 z"
       id="path4253"
       style="fill:#000000" />
    <path
       inkscape:connector-curvature="0"
       d="m 211.70158,316.06174 c 2.70431,0 5.06394,0.11828 7.73237,-0.0215 l 388.90873,388.90873 c -2.66843,0.13978 -5.02806,0.0215 -7.73237,0.0215 z"
       id="path4255"
       style="fill:#000000" />
    <path
       inkscape:connector-curvature="0"
       d="m 219.43395,316.04024 c 76.1235,-4.18068 136.51925,-67.5831 136.51925,-144.74564 l 388.90873,388.90873 c 0,77.16254 -60.39575,140.56496 -136.51925,144.74564 z"
       id="path4257"
       style="fill:#000000" />
    <path
       inkscape:connector-curvature="0"
       d="m 355.9532,171.2946 c 0,-39.92982 -16.0504,-75.331892 -42.21388,-101.495367 L 702.64805,458.70796 c 26.16348,26.16348 42.21388,61.56555 42.21388,101.49537 z"
       id="path4259"
       style="fill:#000000" />
    <path
       inkscape:connector-curvature="0"
       d="m 313.73932,69.799233 c -0.004,-0.0045 -0.009,-0.009 -0.0134,-0.01344 L 702.63461,458.69452 c 0.004,0.004 0.009,0.009 0.0134,0.0134 z"
       id="path4261"
       style="fill:#000000" />
    <path
       inkscape:connector-curvature="0"
       d="m 313.72588,69.785792 c -0.003,-0.0026 -0.005,-0.0053 -0.008,-0.0079 L 702.62669,458.6866 c 0.003,0.003 0.005,0.005 0.008,0.008 z"
       id="path4263"
       style="fill:#000000" />
    <path
       inkscape:connector-curvature="0"
       d="M 313.71796,69.77787 C 287.55105,43.610962 251.63145,27.042959 211.70158,27.042959 L 600.61031,415.95169 c 39.92987,0 75.84947,16.568 102.01638,42.73491 z"
       id="path4265"
       style="fill:#000000" />
    <path
       inkscape:connector-curvature="0"
       d="m 211.70158,27.042959 0,-0.04296 388.90873,388.908731 0,0.043 z"
       id="path4267"
       style="fill:#000000" />
    <path
       inkscape:connector-curvature="0"
       d="m 211.70158,65.661842 c 29.34803,2e-6 56.00864,11.677338 75.24024,30.907991 L 675.85055,485.47856 c -19.2316,-19.23065 -45.89221,-30.90799 -75.24024,-30.90799 z"
       id="path4269"
       style="fill:#000000" />
    <path
       inkscape:connector-curvature="0"
       d="m 286.94182,96.569833 c 0.002,0.0024 0.005,0.0048 0.007,0.0073 L 675.85755,485.48586 c -0.002,-0.002 -0.005,-0.005 -0.007,-0.007 z"
       id="path4271"
       style="fill:#000000" />
    <path
       inkscape:connector-curvature="0"
       d="m 286.94909,96.5771 c 19.22633,19.22633 30.87924,45.88864 30.87924,75.23297 L 706.73706,560.7188 c 0,-29.34433 -11.65291,-56.00664 -30.87924,-75.23297 z"
       id="path4273"
       style="fill:#000000" />
    <path
       inkscape:connector-curvature="0"
       d="m 317.82833,171.81007 c 0,58.6866 -47.44016,106.12675 -106.12675,106.12675 l 388.90873,388.90873 c 58.68659,0 106.12675,-47.44015 106.12675,-106.12675 z"
       id="path4275"
       style="fill:#000000" />
    <path
       inkscape:connector-curvature="0"
       d="m 211.70158,277.93682 c -29.21431,0 -55.64168,-11.88398 -74.81728,-31.05958 l 388.90873,388.90873 c 19.1756,19.1756 45.60297,31.05958 74.81728,31.05958 z"
       id="path4277"
       style="fill:#000000" />
    <path
       inkscape:connector-curvature="0"
       d="M 136.8843,246.87724 C 117.53936,227.5323 105.57482,200.76639 105.57482,171.29458 l 388.90873,388.90873 c 0,29.47181 11.96454,56.23772 31.30948,75.58266 z"
       id="path4279"
       style="fill:#000000" />
    <path
       inkscape:connector-curvature="0"
       d="m 105.57482,171.29458 c 0,-58.6866 47.44016,-105.632738 106.12676,-105.632738 L 600.61031,454.57057 c -58.6866,0 -106.12676,46.94614 -106.12676,105.63274 z"
       id="path4281"
       style="fill:#000000" />
    <path
       inkscape:connector-curvature="0"
       d="m 207.62061,99.147293 c -33.28526,0 -57.36988,17.379837 -57.36988,41.454077 L 539.15946,529.5101 c 0,-24.07424 24.08462,-41.45408 57.36988,-41.45408 z"
       id="path4283"
       style="fill:#000000" />
    <path
       inkscape:connector-curvature="0"
       d="m 150.25073,140.60137 c 0,6.10686 2.10371,11.24852 5.62859,14.7734 L 544.78805,544.2835 c -3.52488,-3.52489 -5.62859,-8.66655 -5.62859,-14.7734 z"
       id="path4285"
       style="fill:#000000" />
    <path
       inkscape:connector-curvature="0"
       d="m 155.87932,155.37477 c 3.24171,3.2417 7.68542,5.11597 12.80022,5.11597 l 388.90873,388.90873 c -5.1148,0 -9.55851,-1.87427 -12.80022,-5.11597 z"
       id="path4287"
       style="fill:#000000" />
    <path
       inkscape:connector-curvature="0"
       d="m 168.67954,160.49074 c 9.42036,0 17.37635,-7.31677 17.37635,-16.1091 l 388.90873,388.90873 c 0,8.79233 -7.95599,16.1091 -17.37635,16.1091 z"
       id="path4289"
       style="fill:#000000" />
    <path
       inkscape:connector-curvature="0"
       d="m 186.05589,144.38164 c 0,-3.5588 -0.83859,-6.06915 -3.35069,-9.83729 l 388.90873,388.90873 c 2.5121,3.76814 3.35069,6.27849 3.35069,9.83729 z"
       id="path4291"
       style="fill:#000000" />
    <path
       inkscape:connector-curvature="0"
       d="m 182.7052,134.54435 c -1.46539,-2.30275 -2.08344,-3.99022 -2.08344,-5.45561 l 388.90873,388.90873 c 0,1.46539 0.61805,3.15286 2.08344,5.45561 z"
       id="path4293"
       style="fill:#000000" />
    <path
       inkscape:connector-curvature="0"
       d="m 180.62176,129.08874 c 0,-6.0709 10.24939,-11.72743 21.13514,-11.72743 l 388.90873,388.90873 c -10.88575,0 -21.13514,5.65653 -21.13514,11.72743 z"
       id="path4295"
       style="fill:#000000" />
    <path
       inkscape:connector-curvature="0"
       d="m 201.7569,117.36131 c 7.07224,0 12.84461,2.20753 16.75786,6.12078 l 388.90873,388.90873 c -3.91325,-3.91325 -9.68562,-6.12078 -16.75786,-6.12078 z"
       id="path4297"
       style="fill:#000000" />
    <path
       inkscape:connector-curvature="0"
       d="m 218.51476,123.48209 c 3.61594,3.61594 5.64452,8.68827 5.64452,14.82105 l 388.90873,388.90873 c 0,-6.13279 -2.02858,-11.20511 -5.64452,-14.82105 z"
       id="path4299"
       style="fill:#000000" />
    <path
       inkscape:connector-curvature="0"
       d="m 224.15928,138.30314 c 0,14.86323 -9.00033,31.61177 -25.53829,47.10301 l 388.90873,388.90873 c 16.53796,-15.49124 25.53829,-32.23978 25.53829,-47.10301 z"
       id="path4301"
       style="fill:#000000" />
    <path
       inkscape:connector-curvature="0"
       d="m 198.62099,185.40615 c -12.14179,11.30443 -16.55039,14.65626 -48.37026,35.59037 l 388.90873,388.90873 c 31.81987,-20.93411 36.22847,-24.28594 48.37026,-35.59037 z"
       id="path4303"
       style="fill:#000000" />
    <path
       inkscape:connector-curvature="0"
       d="m 150.25073,220.99652 3.3507,23.45485 388.90873,388.90873 -3.3507,-23.45485 z"
       id="path4305"
       style="fill:#000000" />
    <path
       inkscape:connector-curvature="0"
       d="m 153.60143,244.45137 106.77111,0 388.90873,388.90873 -106.77111,0 z"
       id="path4307"
       style="fill:#000000" />
    <path
       inkscape:connector-curvature="0"
       d="m 260.37254,244.45137 12.77989,-45.42766 388.90873,388.90873 -12.77989,45.42766 z"
       id="path4309"
       style="fill:#000000" />
    <path
       inkscape:connector-curvature="0"
       d="m 273.15243,199.02371 -16.96825,-4.61794 388.90873,388.90873 16.96825,4.61794 z"
       id="path4311"
       style="fill:#000000" />
    <path
       inkscape:connector-curvature="0"
       d="m 256.18418,194.40577 c -9.42036,19.46873 -11.50617,20.72704 -37.67382,20.72704 l 388.90873,388.90873 c 26.16765,0 28.25346,-1.25831 37.67382,-20.72704 z"
       id="path4313"
       style="fill:#000000" />
    <path
       inkscape:connector-curvature="0"
       d="m 218.51036,215.13281 -26.18266,0 388.90873,388.90873 26.18266,0 z"
       id="path4315"
       style="fill:#000000" />
    <path
       inkscape:connector-curvature="0"
       d="m 192.3277,215.13281 c 25.95832,-14.02586 38.5376,-22.19706 51.09807,-33.29214 L 632.3345,570.7494 c -12.56047,11.09508 -25.13975,19.26628 -51.09807,33.29214 z"
       id="path4317"
       style="fill:#000000" />
    <path
       inkscape:connector-curvature="0"
       d="m 243.42577,181.84067 c 15.90993,-14.44454 22.38091,-25.7314 22.38091,-39.75726 l 388.90873,388.90873 c 0,14.02586 -6.47098,25.31272 -22.38091,39.75726 z"
       id="path4319"
       style="fill:#000000" />
    <path
       inkscape:connector-curvature="0"
       d="m 265.80668,142.08341 c 0,-10.65404 -3.94052,-19.84229 -11.05196,-26.95373 l 388.90873,388.90873 c 7.11144,7.11144 11.05196,16.29969 11.05196,26.95373 z"
       id="path4321"
       style="fill:#000000" />
    <path
       inkscape:connector-curvature="0"
       d="M 254.75472,115.12968 C 244.67905,105.05401 228.23807,99.147293 207.62061,99.147293 L 596.52934,488.05602 c 20.61746,0 37.05844,5.90672 47.13411,15.98239 z"
       id="path4323"
       style="fill:#000000" />
  </g>
  <path
     style="fill:#666666"
     d="M 211.70158,27.000001 C 131.83752,26.999974 67.449957,91.946043 67.449954,171.81007 c 5e-6,6.90014 0.119215,13.4404 1.052461,20.08268 0.0595,0.0963 -0.08382,0.39766 -0.02148,0.49401 4.538696,35.1005 15.964849,69.18649 -3.586959,93.75497 l -30.328067,30.34954 -0.880631,0.88063 c -7.807222,8.71925 -7.500481,22.05435 0.880631,30.43546 l 2.68485,2.68485 c 8.381113,8.38111 21.694724,8.66638 30.413982,0.85915 l 0.02148,0.0215 0.88063,-0.88063 30.328067,-30.32806 c 25.569732,-19.59243 59.377472,-7.40821 96.847912,-4.12393 5.21029,0.57147 10.59733,0.0215 15.95875,0.0215 2.70431,0 5.06394,0.11828 7.73237,-0.0215 76.1235,-4.18068 136.51925,-67.5831 136.51925,-144.74564 0,-39.93666 -16.0559,-75.344017 -42.22732,-101.508808 C 287.5583,43.614306 251.63548,27.042959 211.70158,27.042959 l 0,-0.04296 z m 0,38.661841 c 29.34803,2e-6 56.00864,11.677338 75.24024,30.907991 19.23066,19.226877 30.88651,45.892207 30.88651,75.240237 0,58.6866 -47.44016,106.12675 -106.12675,106.12675 -58.6866,0 -106.12676,-47.9566 -106.12676,-106.64224 0,-58.6866 47.44016,-105.632738 106.12676,-105.632738 z m -4.08097,33.485451 c -33.28526,0 -57.36988,17.379837 -57.36988,41.454077 0,11.72311 7.75241,19.88937 18.42881,19.88937 9.42036,0 17.37635,-7.31677 17.37635,-16.1091 0,-3.5588 -0.83859,-6.06915 -3.35069,-9.83729 -1.46539,-2.30275 -2.08344,-3.99022 -2.08344,-5.45561 0,-6.0709 10.24939,-11.72743 21.13514,-11.72743 13.60718,0 22.40238,8.17202 22.40238,20.94183 0,14.86323 -9.00033,31.61177 -25.53829,47.10301 -12.14179,11.30443 -16.55039,14.65626 -48.37026,35.59037 l 3.3507,23.45485 106.77111,0 12.77989,-45.42766 -16.96825,-4.61794 c -9.42036,19.46873 -11.50617,20.72704 -37.67382,20.72704 l -26.18266,0 c 25.95832,-14.02586 38.5376,-22.19706 51.09807,-33.29214 15.90993,-14.44454 22.38091,-25.7314 22.38091,-39.75726 0,-25.74897 -23.01674,-42.936117 -58.18607,-42.936117 z"
     id="path9287"
     inkscape:connector-curvature="0" />
</svg>
