<?xml version="1.0" encoding="UTF-8" standalone="no"?>
<!-- Created with Inkscape (http://www.inkscape.org/) -->

<svg
   xmlns:dc="http://purl.org/dc/elements/1.1/"
   xmlns:cc="http://creativecommons.org/ns#"
   xmlns:rdf="http://www.w3.org/1999/02/22-rdf-syntax-ns#"
   xmlns:svg="http://www.w3.org/2000/svg"
   xmlns="http://www.w3.org/2000/svg"
   xmlns:sodipodi="http://sodipodi.sourceforge.net/DTD/sodipodi-0.dtd"
   xmlns:inkscape="http://www.inkscape.org/namespaces/inkscape"
   version="1.1"
   width="100%"
   height="100%"
   viewBox="0 0 512 512"
   id="svg2"
   inkscape:version="0.48.5 r10040"
   sodipodi:docname="audio-volume-muted.svg">
  <sodipodi:namedview
     pagecolor="#ffffff"
     bordercolor="#666666"
     borderopacity="1"
     objecttolerance="10"
     gridtolerance="10"
     guidetolerance="10"
     inkscape:pageopacity="0"
     inkscape:pageshadow="2"
     inkscape:window-width="1307"
     inkscape:window-height="748"
     id="namedview31"
     showgrid="false"
     inkscape:zoom="0.32593203"
     inkscape:cx="456.97406"
     inkscape:cy="14.926778"
     inkscape:window-x="57"
     inkscape:window-y="-3"
     inkscape:window-maximized="1"
     inkscape:current-layer="svg2" />
  <metadata
     id="metadata60">
    <rdf:RDF>
      <cc:Work
         rdf:about="">
        <dc:format>image/svg+xml</dc:format>
        <dc:type
           rdf:resource="http://purl.org/dc/dcmitype/StillImage" />
        <dc:title />
      </cc:Work>
    </rdf:RDF>
  </metadata>
  <defs
     id="defs58">
    <clipPath
       id="clipPath3274">
      <rect
         style="fill:#ef6a47"
         id="rect3276"
         y="0"
         x="0"
         rx="25.988001"
         height="512"
         width="512" />
    </clipPath>
    <clipPath
       id="clipPath6533"
       clipPathUnits="userSpaceOnUse">
      <rect
         style="fill:#ef6a47"
         id="rect6535"
         y="0"
         x="0"
         rx="25.988001"
         height="512"
         width="512" />
    </clipPath>
    <clipPath
       clipPathUnits="userSpaceOnUse"
       id="clipPath7506">
      <rect
         style="fill:#cd1c30;fill-opacity:1"
         id="rect7508"
         y="0"
         x="0"
         rx="25.988001"
         height="512"
         width="512" />
    </clipPath>
  </defs>
  <rect
     width="512"
     height="512"
     rx="25.988001"
     x="0"
     y="0"
     id="rect4"
     style="fill:#cd1c30;fill-opacity:1" />
  <text
     x="137.67999"
     y="194.35001"
     id="text8"
     style="font-size:129.22999573px;line-height:125%;letter-spacing:0;word-spacing:0;font-family:Gentium Book Basic">
    <tspan
       x="137.67999"
       y="194.35001"
       id="tspan10" />
  </text>
  <text
     x="231.39"
     y="430.76001"
     transform="scale(4.0128,0.2492)"
     id="text12"
     style="font-size:46.95399857px;text-anchor:middle;font-family:Arial" />
  <text
     x="718.95001"
     y="114.35"
     id="text14"
     style="font-size:129.22999573px;line-height:125%;letter-spacing:0;word-spacing:0;font-family:Gentium Book Basic">
    <tspan
       x="718.95001"
       y="114.35"
       id="tspan16" />
  </text>
  <text
     x="376.23999"
     y="109.72"
     transform="scale(4.0128,0.2492)"
     id="text18"
     style="font-size:46.95399857px;text-anchor:middle;font-family:Arial" />
  <text
     x="-352.63"
     y="-66.905998"
     id="text20"
     style="font-size:129.22999573px;line-height:125%;letter-spacing:0;word-spacing:0;font-family:Gentium Book Basic">
    <tspan
       x="-352.63"
       y="-66.905998"
       id="tspan22" />
  </text>
  <text
     x="109.2"
     y="-617.63"
     transform="scale(4.0128,0.2492)"
     id="text24"
     style="font-size:46.95399857px;text-anchor:middle;font-family:Arial" />
  <text
     x="745.41998"
     y="-283.38"
     id="text26"
     style="font-size:129.22999573px;line-height:125%;letter-spacing:0;word-spacing:0;font-family:Gentium Book Basic">
    <tspan
       x="745.41998"
       y="-283.38"
       id="tspan28" />
  </text>
  <text
     x="382.84"
     y="-1486.29"
     transform="scale(4.0128,0.2492)"
     id="text30"
     style="font-size:46.95399857px;text-anchor:middle;font-family:Arial" />
  <text
     x="1326.6899"
     y="-363.38"
     id="text32"
     style="font-size:129.22999573px;line-height:125%;letter-spacing:0;word-spacing:0;font-family:Gentium Book Basic">
    <tspan
       x="1326.6899"
       y="-363.38"
       id="tspan34" />
  </text>
  <text
     x="527.69"
     y="-1807.3199"
     transform="scale(4.0128,0.2492)"
     id="text36"
     style="font-size:46.95399857px;text-anchor:middle;font-family:Arial" />
  <text
     x="937.57001"
     y="-835.78003"
     id="text38"
     style="font-size:129.22999573px;line-height:125%;letter-spacing:0;word-spacing:0;font-family:Gentium Book Basic">
    <tspan
       x="937.57001"
       y="-835.78003"
       id="tspan40" />
  </text>
  <text
     x="430.72"
     y="-3702.96"
     transform="scale(4.0128,0.2492)"
     id="text42"
     style="font-size:46.95399857px;text-anchor:middle;font-family:Arial" />
  <text
     x="1518.83"
     y="-915.78998"
     id="text44"
     style="font-size:129.22999573px;line-height:125%;letter-spacing:0;word-spacing:0;font-family:Gentium Book Basic">
    <tspan
       x="1518.83"
       y="-915.78998"
       id="tspan46" />
  </text>
  <text
     x="575.57001"
     y="-4024"
     transform="scale(4.0128,0.2492)"
     id="text48"
     style="font-size:46.95399857px;text-anchor:middle;font-family:Arial" />
  <text
     x="-313.97"
     y="498.92999"
     id="text50"
     style="font-size:208.33000183px;line-height:125%;letter-spacing:0;word-spacing:0;font-family:Gentium Book Basic">
    <tspan
       x="-313.97"
       y="498.92999"
       id="tspan52" />
  </text>
  <text
     sodipodi:linespacing="125%"
     x="154.74306"
     y="-420.99731"
     id="text8-1"
     style="font-size:129.22999573px;line-height:125%;letter-spacing:0;word-spacing:0;font-family:Gentium Book Basic">
    <tspan
       x="154.74306"
       y="-420.99731"
       id="tspan10-9" />
  </text>
  <text
     x="235.64096"
     y="-2038.5205"
     transform="scale(4.0128205,0.24920128)"
     id="text12-3"
     style="font-size:46.95375824px;text-anchor:middle;font-family:Arial" />
  <text
     sodipodi:linespacing="125%"
     x="736.01306"
     y="-500.99731"
     id="text14-2"
     style="font-size:129.22999573px;line-height:125%;letter-spacing:0;word-spacing:0;font-family:Gentium Book Basic">
    <tspan
       x="736.01306"
       y="-500.99731"
       id="tspan16-7" />
  </text>
  <text
     x="380.4902"
     y="-2359.5588"
     transform="scale(4.0128205,0.24920128)"
     id="text18-0"
     style="font-size:46.95375824px;text-anchor:middle;font-family:Arial" />
  <text
     sodipodi:linespacing="125%"
     x="-335.56693"
     y="-682.2533"
     id="text20-5"
     style="font-size:129.22999573px;line-height:125%;letter-spacing:0;word-spacing:0;font-family:Gentium Book Basic">
    <tspan
       x="-335.56693"
       y="-682.2533"
       id="tspan22-9" />
  </text>
  <text
     x="113.45158"
     y="-3086.9053"
     transform="scale(4.0128205,0.24920128)"
     id="text24-2"
     style="font-size:46.95375824px;text-anchor:middle;font-family:Arial" />
  <text
     sodipodi:linespacing="125%"
     x="762.48303"
     y="-898.72729"
     id="text26-2"
     style="font-size:129.22999573px;line-height:125%;letter-spacing:0;word-spacing:0;font-family:Gentium Book Basic">
    <tspan
       x="762.48303"
       y="-898.72729"
       id="tspan28-5" />
  </text>
  <text
     x="387.09018"
     y="-3955.5608"
     transform="scale(4.0128205,0.24920128)"
     id="text30-6"
     style="font-size:46.95375824px;text-anchor:middle;font-family:Arial" />
  <text
     sodipodi:linespacing="125%"
     x="1343.7531"
     y="-978.72729"
     id="text32-2"
     style="font-size:129.22999573px;line-height:125%;letter-spacing:0;word-spacing:0;font-family:Gentium Book Basic">
    <tspan
       x="1343.7531"
       y="-978.72729"
       id="tspan34-2" />
  </text>
  <text
     x="531.93945"
     y="-4276.5889"
     transform="scale(4.0128205,0.24920128)"
     id="text36-7"
     style="font-size:46.95375824px;text-anchor:middle;font-family:Arial" />
  <text
     sodipodi:linespacing="125%"
     x="954.63306"
     y="-1451.1273"
     id="text38-1"
     style="font-size:129.22999573px;line-height:125%;letter-spacing:0;word-spacing:0;font-family:Gentium Book Basic">
    <tspan
       x="954.63306"
       y="-1451.1273"
       id="tspan40-3" />
  </text>
  <text
     x="434.96994"
     y="-6172.2192"
     transform="scale(4.0128205,0.24920128)"
     id="text42-2"
     style="font-size:46.95375824px;text-anchor:middle;font-family:Arial" />
  <text
     sodipodi:linespacing="125%"
     x="1535.8931"
     y="-1531.1373"
     id="text44-1"
     style="font-size:129.22999573px;line-height:125%;letter-spacing:0;word-spacing:0;font-family:Gentium Book Basic">
    <tspan
       x="1535.8931"
       y="-1531.1373"
       id="tspan46-6" />
  </text>
  <text
     x="579.81921"
     y="-6493.2578"
     transform="scale(4.0128205,0.24920128)"
     id="text48-7"
     style="font-size:46.95375824px;text-anchor:middle;font-family:Arial" />
  <text
     sodipodi:linespacing="125%"
     x="-296.90692"
     y="-116.41732"
     id="text50-9"
     style="font-size:208.33000183px;line-height:125%;letter-spacing:0;word-spacing:0;font-family:Gentium Book Basic">
    <tspan
       x="-296.90692"
       y="-116.41732"
       id="tspan52-3" />
  </text>
  <text
     sodipodi:linespacing="125%"
     x="-58.176929"
     y="-624.80133"
     id="text60"
     style="font-size:129.22999573px;line-height:125%;letter-spacing:0;word-spacing:0;font-family:Gentium Book Basic">
    <tspan
       x="-58.176929"
       y="-624.80133"
       id="tspan62" />
  </text>
  <text
     x="182.58122"
     y="-2856.3564"
     transform="scale(4.0128205,0.24920128)"
     id="text64"
     style="font-size:46.95375824px;text-anchor:middle;font-family:Arial" />
  <text
     sodipodi:linespacing="125%"
     x="523.09308"
     y="-704.7973"
     id="text66"
     style="font-size:129.22999573px;line-height:125%;letter-spacing:0;word-spacing:0;font-family:Gentium Book Basic">
    <tspan
       x="523.09308"
       y="-704.7973"
       id="tspan68" />
  </text>
  <text
     x="327.43048"
     y="-3177.3948"
     transform="scale(4.0128205,0.24920128)"
     id="text70"
     style="font-size:46.95375824px;text-anchor:middle;font-family:Arial" />
  <text
     sodipodi:linespacing="125%"
     x="-548.48694"
     y="-886.05731"
     id="text72"
     style="font-size:129.22999573px;line-height:125%;letter-spacing:0;word-spacing:0;font-family:Gentium Book Basic">
    <tspan
       x="-548.48694"
       y="-886.05731"
       id="tspan74" />
  </text>
  <text
     x="60.39185"
     y="-3904.741"
     transform="scale(4.0128205,0.24920128)"
     id="text76"
     style="font-size:46.95375824px;text-anchor:middle;font-family:Arial" />
  <text
     sodipodi:linespacing="125%"
     x="549.56305"
     y="-1102.5273"
     id="text78"
     style="font-size:129.22999573px;line-height:125%;letter-spacing:0;word-spacing:0;font-family:Gentium Book Basic">
    <tspan
       x="549.56305"
       y="-1102.5273"
       id="tspan80" />
  </text>
  <text
     x="334.03046"
     y="-4773.3965"
     transform="scale(4.0128205,0.24920128)"
     id="text82"
     style="font-size:46.95375824px;text-anchor:middle;font-family:Arial" />
  <text
     sodipodi:linespacing="125%"
     x="1130.8331"
     y="-1182.5273"
     id="text84"
     style="font-size:129.22999573px;line-height:125%;letter-spacing:0;word-spacing:0;font-family:Gentium Book Basic">
    <tspan
       x="1130.8331"
       y="-1182.5273"
       id="tspan86" />
  </text>
  <text
     x="478.8797"
     y="-5094.4248"
     transform="scale(4.0128205,0.24920128)"
     id="text88"
     style="font-size:46.95375824px;text-anchor:middle;font-family:Arial" />
  <text
     sodipodi:linespacing="125%"
     x="741.71307"
     y="-1654.9272"
     id="text90"
     style="font-size:129.22999573px;line-height:125%;letter-spacing:0;word-spacing:0;font-family:Gentium Book Basic">
    <tspan
       x="741.71307"
       y="-1654.9272"
       id="tspan92" />
  </text>
  <text
     x="381.91022"
     y="-6990.0552"
     transform="scale(4.0128205,0.24920128)"
     id="text94"
     style="font-size:46.95375824px;text-anchor:middle;font-family:Arial" />
  <text
     sodipodi:linespacing="125%"
     x="1322.9731"
     y="-1734.9373"
     id="text96"
     style="font-size:129.22999573px;line-height:125%;letter-spacing:0;word-spacing:0;font-family:Gentium Book Basic">
    <tspan
       x="1322.9731"
       y="-1734.9373"
       id="tspan98" />
  </text>
  <text
     x="526.75946"
     y="-7311.0933"
     transform="scale(4.0128205,0.24920128)"
     id="text100"
     style="font-size:46.95375824px;text-anchor:middle;font-family:Arial" />
  <text
     sodipodi:linespacing="125%"
     x="-509.82693"
     y="-320.21732"
     id="text102"
     style="font-size:208.33000183px;line-height:125%;letter-spacing:0;word-spacing:0;font-family:Gentium Book Basic">
    <tspan
       x="-509.82693"
       y="-320.21732"
       id="tspan104" />
  </text>
  <text
     style="font-size:129.22999573px;line-height:125%;letter-spacing:0;word-spacing:0;font-family:Gentium Book Basic"
     id="text8-2"
     y="-580.54028"
     x="-50.822777"
     sodipodi:linespacing="125%">
    <tspan
       id="tspan10-5"
       y="-580.54028"
       x="-50.822777" />
  </text>
  <text
     style="font-size:46.95375824px;text-anchor:middle;font-family:Arial"
     id="text12-9"
     transform="scale(4.0128205,0.24920128)"
     y="-2678.7378"
     x="184.41368" />
  <text
     style="font-size:129.22999573px;line-height:125%;letter-spacing:0;word-spacing:0;font-family:Gentium Book Basic"
     id="text14-0"
     y="-660.54028"
     x="530.44727"
     sodipodi:linespacing="125%">
    <tspan
       id="tspan16-1"
       y="-660.54028"
       x="530.44727" />
  </text>
  <text
     style="font-size:46.95375824px;text-anchor:middle;font-family:Arial"
     id="text18-9"
     transform="scale(4.0128205,0.24920128)"
     y="-2999.7761"
     x="329.26294" />
  <text
     style="font-size:129.22999573px;line-height:125%;letter-spacing:0;word-spacing:0;font-family:Gentium Book Basic"
     id="text20-3"
     y="-841.79626"
     x="-541.13275"
     sodipodi:linespacing="125%">
    <tspan
       id="tspan22-3"
       y="-841.79626"
       x="-541.13275" />
  </text>
  <text
     style="font-size:46.95375824px;text-anchor:middle;font-family:Arial"
     id="text24-4"
     transform="scale(4.0128205,0.24920128)"
     y="-3727.1226"
     x="62.224308" />
  <text
     style="font-size:129.22999573px;line-height:125%;letter-spacing:0;word-spacing:0;font-family:Gentium Book Basic"
     id="text26-8"
     y="-1058.2703"
     x="556.91724"
     sodipodi:linespacing="125%">
    <tspan
       id="tspan28-2"
       y="-1058.2703"
       x="556.91724" />
  </text>
  <text
     style="font-size:46.95375824px;text-anchor:middle;font-family:Arial"
     id="text30-63"
     transform="scale(4.0128205,0.24920128)"
     y="-4595.7778"
     x="335.86292" />
  <text
     style="font-size:129.22999573px;line-height:125%;letter-spacing:0;word-spacing:0;font-family:Gentium Book Basic"
     id="text32-28"
     y="-1138.2703"
     x="1138.1871"
     sodipodi:linespacing="125%">
    <tspan
       id="tspan34-5"
       y="-1138.2703"
       x="1138.1871" />
  </text>
  <text
     style="font-size:46.95375824px;text-anchor:middle;font-family:Arial"
     id="text36-9"
     transform="scale(4.0128205,0.24920128)"
     y="-4916.8062"
     x="480.71216" />
  <text
     style="font-size:129.22999573px;line-height:125%;letter-spacing:0;word-spacing:0;font-family:Gentium Book Basic"
     id="text38-6"
     y="-1610.6703"
     x="749.06726"
     sodipodi:linespacing="125%">
    <tspan
       id="tspan40-7"
       y="-1610.6703"
       x="749.06726" />
  </text>
  <text
     style="font-size:46.95375824px;text-anchor:middle;font-family:Arial"
     id="text42-1"
     transform="scale(4.0128205,0.24920128)"
     y="-6812.4365"
     x="383.74268" />
  <text
     style="font-size:129.22999573px;line-height:125%;letter-spacing:0;word-spacing:0;font-family:Gentium Book Basic"
     id="text44-3"
     y="-1690.6803"
     x="1330.3271"
     sodipodi:linespacing="125%">
    <tspan
       id="tspan46-0"
       y="-1690.6803"
       x="1330.3271" />
  </text>
  <text
     style="font-size:46.95375824px;text-anchor:middle;font-family:Arial"
     id="text48-4"
     transform="scale(4.0128205,0.24920128)"
     y="-7133.4751"
     x="528.59192" />
  <text
     style="font-size:208.33000183px;line-height:125%;letter-spacing:0;word-spacing:0;font-family:Gentium Book Basic"
     id="text50-7"
     y="-275.9603"
     x="-502.47278"
     sodipodi:linespacing="125%">
    <tspan
       id="tspan52-2"
       y="-275.9603"
       x="-502.47278" />
  </text>
  <text
     style="font-size:129.22999573px;line-height:125%;letter-spacing:0;word-spacing:0;font-family:Gentium Book Basic"
     id="text60-2"
     y="-784.3443"
     x="-263.74277"
     sodipodi:linespacing="125%">
    <tspan
       id="tspan62-5"
       y="-784.3443"
       x="-263.74277" />
  </text>
  <text
     style="font-size:46.95375824px;text-anchor:middle;font-family:Arial"
     id="text64-3"
     transform="scale(4.0128205,0.24920128)"
     y="-3496.5737"
     x="131.35396" />
  <text
     style="font-size:129.22999573px;line-height:125%;letter-spacing:0;word-spacing:0;font-family:Gentium Book Basic"
     id="text66-5"
     y="-864.34027"
     x="317.52722"
     sodipodi:linespacing="125%">
    <tspan
       id="tspan68-5"
       y="-864.34027"
       x="317.52722" />
  </text>
  <text
     style="font-size:46.95375824px;text-anchor:middle;font-family:Arial"
     id="text70-3"
     transform="scale(4.0128205,0.24920128)"
     y="-3817.6121"
     x="276.20322" />
  <text
     style="font-size:129.22999573px;line-height:125%;letter-spacing:0;word-spacing:0;font-family:Gentium Book Basic"
     id="text72-0"
     y="-1045.6002"
     x="-754.05273"
     sodipodi:linespacing="125%">
    <tspan
       id="tspan74-0"
       y="-1045.6002"
       x="-754.05273" />
  </text>
  <text
     style="font-size:46.95375824px;text-anchor:middle;font-family:Arial"
     id="text76-3"
     transform="scale(4.0128205,0.24920128)"
     y="-4544.9585"
     x="9.1645813" />
  <text
     style="font-size:129.22999573px;line-height:125%;letter-spacing:0;word-spacing:0;font-family:Gentium Book Basic"
     id="text78-2"
     y="-1262.0703"
     x="343.99722"
     sodipodi:linespacing="125%">
    <tspan
       id="tspan80-4"
       y="-1262.0703"
       x="343.99722" />
  </text>
  <text
     style="font-size:46.95375824px;text-anchor:middle;font-family:Arial"
     id="text82-4"
     transform="scale(4.0128205,0.24920128)"
     y="-5413.6138"
     x="282.80319" />
  <text
     style="font-size:129.22999573px;line-height:125%;letter-spacing:0;word-spacing:0;font-family:Gentium Book Basic"
     id="text84-5"
     y="-1342.0703"
     x="925.26727"
     sodipodi:linespacing="125%">
    <tspan
       id="tspan86-7"
       y="-1342.0703"
       x="925.26727" />
  </text>
  <text
     style="font-size:46.95375824px;text-anchor:middle;font-family:Arial"
     id="text88-0"
     transform="scale(4.0128205,0.24920128)"
     y="-5734.6421"
     x="427.65244" />
  <text
     style="font-size:129.22999573px;line-height:125%;letter-spacing:0;word-spacing:0;font-family:Gentium Book Basic"
     id="text90-3"
     y="-1814.4702"
     x="536.14728"
     sodipodi:linespacing="125%">
    <tspan
       id="tspan92-1"
       y="-1814.4702"
       x="536.14728" />
  </text>
  <text
     style="font-size:46.95375824px;text-anchor:middle;font-family:Arial"
     id="text94-6"
     transform="scale(4.0128205,0.24920128)"
     y="-7630.2725"
     x="330.68295" />
  <text
     style="font-size:129.22999573px;line-height:125%;letter-spacing:0;word-spacing:0;font-family:Gentium Book Basic"
     id="text96-7"
     y="-1894.4802"
     x="1117.4072"
     sodipodi:linespacing="125%">
    <tspan
       id="tspan98-5"
       y="-1894.4802"
       x="1117.4072" />
  </text>
  <text
     style="font-size:46.95375824px;text-anchor:middle;font-family:Arial"
     id="text100-5"
     transform="scale(4.0128205,0.24920128)"
     y="-7951.3105"
     x="475.5322" />
  <text
     x="-715.39276"
     y="-479.76028"
     id="text104"
     style="font-size:208.33000183px;line-height:125%;letter-spacing:0;word-spacing:0;font-family:Gentium Book Basic"
     sodipodi:linespacing="125%">
    <tspan
       x="-715.39276"
       y="-479.76028"
       id="tspan106" />
  </text>
  <text
     x="-134.50777"
     y="-563.64026"
     id="text108"
     style="font-size:129.22999573px;line-height:125%;letter-spacing:0;word-spacing:0;font-family:Gentium Book Basic"
     sodipodi:linespacing="125%">
    <tspan
       x="-134.50777"
       y="-563.64026"
       id="tspan110" />
  </text>
  <text
     style="font-size:46.95375824px;text-anchor:middle;font-family:Arial"
     id="text112"
     transform="scale(4.0128205,0.24920128)"
     y="-2610.9482"
     x="163.56378" />
  <text
     style="font-size:129.22999573px;line-height:125%;letter-spacing:0;word-spacing:0;font-family:Gentium Book Basic"
     id="text114"
     y="-643.64026"
     x="446.76724"
     sodipodi:linespacing="125%">
    <tspan
       id="tspan116"
       y="-643.64026"
       x="446.76724" />
  </text>
  <text
     style="font-size:46.95375824px;text-anchor:middle;font-family:Arial"
     id="text118"
     transform="scale(4.0128205,0.24920128)"
     y="-2931.9866"
     x="308.41306" />
  <text
     style="font-size:129.22999573px;line-height:125%;letter-spacing:0;word-spacing:0;font-family:Gentium Book Basic"
     id="text120"
     y="-824.90027"
     x="-624.81274"
     sodipodi:linespacing="125%">
    <tspan
       id="tspan122"
       y="-824.90027"
       x="-624.81274" />
  </text>
  <text
     style="font-size:46.95375824px;text-anchor:middle;font-family:Arial"
     id="text124"
     transform="scale(4.0128205,0.24920128)"
     y="-3659.3328"
     x="41.374416" />
  <text
     style="font-size:129.22999573px;line-height:125%;letter-spacing:0;word-spacing:0;font-family:Gentium Book Basic"
     id="text126"
     y="-1041.3702"
     x="473.23721"
     sodipodi:linespacing="125%">
    <tspan
       id="tspan128"
       y="-1041.3702"
       x="473.23721" />
  </text>
  <text
     style="font-size:46.95375824px;text-anchor:middle;font-family:Arial"
     id="text130"
     transform="scale(4.0128205,0.24920128)"
     y="-4527.9883"
     x="315.013" />
  <text
     style="font-size:129.22999573px;line-height:125%;letter-spacing:0;word-spacing:0;font-family:Gentium Book Basic"
     id="text132"
     y="-1121.3702"
     x="1054.5072"
     sodipodi:linespacing="125%">
    <tspan
       id="tspan134"
       y="-1121.3702"
       x="1054.5072" />
  </text>
  <text
     style="font-size:46.95375824px;text-anchor:middle;font-family:Arial"
     id="text136"
     transform="scale(4.0128205,0.24920128)"
     y="-4849.0166"
     x="459.86227" />
  <text
     style="font-size:129.22999573px;line-height:125%;letter-spacing:0;word-spacing:0;font-family:Gentium Book Basic"
     id="text138"
     y="-1593.7703"
     x="665.38727"
     sodipodi:linespacing="125%">
    <tspan
       id="tspan140"
       y="-1593.7703"
       x="665.38727" />
  </text>
  <text
     style="font-size:46.95375824px;text-anchor:middle;font-family:Arial"
     id="text142"
     transform="scale(4.0128205,0.24920128)"
     y="-6744.647"
     x="362.89276" />
  <text
     style="font-size:129.22999573px;line-height:125%;letter-spacing:0;word-spacing:0;font-family:Gentium Book Basic"
     id="text144"
     y="-1673.7803"
     x="1246.6472"
     sodipodi:linespacing="125%">
    <tspan
       id="tspan146"
       y="-1673.7803"
       x="1246.6472" />
  </text>
  <text
     style="font-size:46.95375824px;text-anchor:middle;font-family:Arial"
     id="text148"
     transform="scale(4.0128205,0.24920128)"
     y="-7065.6855"
     x="507.73206" />
  <text
     style="font-size:208.33000183px;line-height:125%;letter-spacing:0;word-spacing:0;font-family:Gentium Book Basic"
     id="text150"
     y="-259.06027"
     x="-586.15277"
     sodipodi:linespacing="125%">
    <tspan
       id="tspan152"
       y="-259.06027"
       x="-586.15277" />
  </text>
  <g
     style="color:#000000;fill:#000000;opacity:0.25"
     id="g7227"
     clip-path="url(#clipPath7506)">
    <path
       inkscape:connector-curvature="0"
       d="m 231.53125,70.84375 c -2.37009,0.0087 -4.95115,0.459778 -7.71875,1.4375 l 388.90873,388.90873 c 2.7676,-0.97772 5.34866,-1.4288 7.71875,-1.4375 z"
       id="path7229"
       style="fill:#000000" />
    <path
       inkscape:connector-curvature="0"
       d="m 223.8125,72.28125 c -5.1903,1.838841 -5.3531,1.989175 -71.25,66.75 l 388.90873,388.90873 c 65.8969,-64.76083 66.0597,-64.91116 71.25,-66.75 z"
       id="path7231"
       style="fill:#000000" />
    <path
       inkscape:connector-curvature="0"
       d="M 152.5625,139.03125 120,171.0625 l 388.90873,388.90873 32.5625,-32.03125 z"
       id="path7233"
       style="fill:#000000" />
    <path
       inkscape:connector-curvature="0"
       d="m 120,171.0625 0,169.59375 388.90873,388.90873 0,-169.59375 z"
       id="path7235"
       style="fill:#000000" />
    <path
       inkscape:connector-curvature="0"
       d="m 120,340.65625 28.375,27.875 388.90873,388.90873 -28.375,-27.875 z"
       id="path7237"
       style="fill:#000000" />
    <path
       inkscape:connector-curvature="0"
       d="m 148.375,368.53125 c 66.71271,65.57469 69.85581,68.56951 74.125,70.65625 l 388.90873,388.90873 c -4.26919,-2.08674 -7.41229,-5.08156 -74.125,-70.65625 z"
       id="path7239"
       style="fill:#000000" />
    <path
       inkscape:connector-curvature="0"
       d="m 222.5,439.1875 0.0312,0 388.90873,388.90873 -0.0312,0 z"
       id="path7241"
       style="fill:#000000" />
    <path
       inkscape:connector-curvature="0"
       d="m 222.53125,439.1875 c 7.6069,3.69297 15.25855,2.05962 19.96875,-4.28125 l 388.90873,388.90873 c -4.7102,6.34087 -12.36185,7.97422 -19.96875,4.28125 z"
       id="path7243"
       style="fill:#000000" />
    <path
       inkscape:connector-curvature="0"
       d="m 242.5,434.90625 c 4.8059,-6.48031 4.53085,4.75901 4.78125,-178.03125 l 388.90873,388.90873 c -0.2504,182.79026 0.0247,171.55094 -4.78125,178.03125 z"
       id="path7245"
       style="fill:#000000" />
    <path
       inkscape:connector-curvature="0"
       d="m 247.28125,256.875 c 0.2057,-149.64985 0.0695,-169.682707 -1.09375,-173.6875 l 388.90873,388.90873 c 1.16325,4.00479 1.29945,24.03765 1.09375,173.6875 z"
       id="path7247"
       style="fill:#000000" />
    <path
       inkscape:connector-curvature="0"
       d="m 246.1875,83.1875 c -1.0323,-3.55174 -2.60395,-6.36212 -4.6402,-8.398373 L 630.45603,463.69786 c 2.03625,2.03625 3.6079,4.84663 4.6402,8.39837 z"
       id="path7249"
       style="fill:#000000" />
    <path
       inkscape:connector-curvature="0"
       d="m 241.5473,74.789127 c -2.6217,-2.621695 -6.01356,-3.960133 -10.01605,-3.945377 l 388.90873,388.90873 c 4.00249,-0.0148 7.39435,1.32368 10.01605,3.94538 z"
       id="path7251"
       style="fill:#000000" />
    <path
       inkscape:connector-curvature="0"
       d="m 330.8125,160.96875 -47.75,47.1875 388.90873,388.90873 47.75,-47.1875 z"
       id="path7253"
       style="fill:#000000" />
    <path
       inkscape:connector-curvature="0"
       d="M 283.0625,208.15625 330.46875,255.625 719.37748,644.53373 671.97123,597.06498 z"
       id="path7255"
       style="fill:#000000" />
    <path
       inkscape:connector-curvature="0"
       d="M 330.46875,255.625 283.25,302.8125 672.15873,691.72123 719.37748,644.53373 z"
       id="path7257"
       style="fill:#000000" />
    <path
       inkscape:connector-curvature="0"
       d="m 283.25,302.8125 47.5,48.21875 388.90873,388.90873 -47.5,-48.21875 z"
       id="path7259"
       style="fill:#000000" />
    <path
       inkscape:connector-curvature="0"
       d="m 330.75,351.03125 47.40625,-47.625 388.90873,388.90873 -47.40625,47.625 z"
       id="path7261"
       style="fill:#000000" />
    <path
       inkscape:connector-curvature="0"
       d="m 378.15625,303.40625 47.375,47.46875 388.90873,388.90873 -47.375,-47.46875 z"
       id="path7263"
       style="fill:#000000" />
    <path
       inkscape:connector-curvature="0"
       d="m 425.53125,350.875 47.3125,-47.8125 388.90873,388.90873 -47.3125,47.8125 z"
       id="path7265"
       style="fill:#000000" />
    <path
       inkscape:connector-curvature="0"
       d="m 472.84375,303.0625 -47.25,-47.28125 388.90873,388.90873 47.25,47.28125 z"
       id="path7267"
       style="fill:#000000" />
    <path
       inkscape:connector-curvature="0"
       d="m 425.59375,255.78125 47.0625,-47.25 388.90873,388.90873 -47.0625,47.25 z"
       id="path7269"
       style="fill:#000000" />
    <path
       inkscape:connector-curvature="0"
       d="m 472.65625,208.53125 -47.5,-47.5625 388.90873,388.90873 47.5,47.5625 z"
       id="path7271"
       style="fill:#000000" />
    <path
       inkscape:connector-curvature="0"
       d="m 425.15625,160.96875 -47.1875,47.1875 388.90873,388.90873 47.1875,-47.1875 z"
       id="path7273"
       style="fill:#000000" />
    <path
       inkscape:connector-curvature="0"
       d="m 377.96875,208.15625 -47.15625,-47.1875 388.90873,388.90873 47.15625,47.1875 z"
       id="path7275"
       style="fill:#000000" />
    <path
       inkscape:connector-curvature="0"
       d="M 55.46875,174.9375 C 47.44475,174.9375 41,181.3822 41,189.40625 l 388.90873,388.90873 c 0,-8.02405 6.44475,-14.46875 14.46875,-14.46875 z"
       id="path7277"
       style="fill:#000000" />
    <path
       inkscape:connector-curvature="0"
       d="m 41,189.40625 0,133.15625 388.90873,388.90873 0,-133.15625 z"
       id="path7279"
       style="fill:#000000" />
    <path
       inkscape:connector-curvature="0"
       d="m 41,322.5625 c 0,4.01203 1.611168,7.62922 4.22535,10.24341 l 388.90873,388.90873 c -2.61418,-2.61419 -4.22535,-6.23138 -4.22535,-10.24341 z"
       id="path7281"
       style="fill:#000000" />
    <path
       inkscape:connector-curvature="0"
       d="m 45.22535,332.80591 c 2.614174,2.61417 6.231356,4.22534 10.2434,4.22534 l 388.90873,388.90873 c -4.01204,0 -7.62923,-1.61117 -10.2434,-4.22534 z"
       id="path7283"
       style="fill:#000000" />
    <path
       inkscape:connector-curvature="0"
       d="m 55.46875,337.03125 54.21875,0 388.90873,388.90873 -54.21875,0 z"
       id="path7285"
       style="fill:#000000" />
    <path
       inkscape:connector-curvature="0"
       d="m 109.6875,337.03125 0,-162.09375 388.90873,388.90873 0,162.09375 z"
       id="path7287"
       style="fill:#000000" />
    <path
       inkscape:connector-curvature="0"
       d="m 109.6875,174.9375 -54.21875,0 388.90873,388.90873 54.21875,0 z"
       id="path7289"
       style="fill:#000000" />
  </g>
  <path
     inkscape:connector-curvature="0"
     style="color:#000000;fill:#ffffff"
     d="m 231.53125,70.84375 c -2.37009,0.0087 -4.95115,0.459778 -7.71875,1.4375 -5.1903,1.838841 -5.3531,1.989175 -71.25,66.75 L 120,171.0625 l 0,169.59375 28.375,27.875 c 66.71271,65.57469 69.85581,68.56951 74.125,70.65625 l 0.0312,0 c 7.6069,3.69297 15.25855,2.05962 19.96875,-4.28125 4.8059,-6.48031 4.53085,4.75901 4.78125,-178.03125 0.2057,-149.64985 0.0695,-169.682707 -1.09375,-173.6875 -2.3614,-8.124642 -7.54505,-12.369966 -14.65625,-12.34375 z m 99.28125,90.125 -47.75,47.1875 47.40625,47.46875 -47.21875,47.1875 47.5,48.21875 47.40625,-47.625 47.375,47.46875 47.3125,-47.8125 -47.25,-47.28125 47.0625,-47.25 -47.5,-47.5625 -47.1875,47.1875 -47.15625,-47.1875 z M 55.46875,174.9375 C 47.44475,174.9375 41,181.3822 41,189.40625 l 0,133.15625 c 0,8.02405 6.44465,14.46875 14.46875,14.46875 l 54.21875,0 0,-162.09375 -54.21875,0 z"
     id="path6700" />
</svg>
