<?xml version="1.0" encoding="UTF-8" standalone="no"?>
<!-- Created with Inkscape (http://www.inkscape.org/) -->

<svg
   xmlns:dc="http://purl.org/dc/elements/1.1/"
   xmlns:cc="http://creativecommons.org/ns#"
   xmlns:rdf="http://www.w3.org/1999/02/22-rdf-syntax-ns#"
   xmlns:svg="http://www.w3.org/2000/svg"
   xmlns="http://www.w3.org/2000/svg"
   xmlns:inkscape="http://www.inkscape.org/namespaces/inkscape"
   version="1.1"
   width="100%"
   height="100%"
   viewBox="0 0 512 512"
   id="svg2">
  <metadata
     id="metadata10">
    <rdf:RDF>
      <cc:Work
         rdf:about="">
        <dc:format>image/svg+xml</dc:format>
        <dc:type
           rdf:resource="http://purl.org/dc/dcmitype/StillImage" />
        <dc:title />
      </cc:Work>
    </rdf:RDF>
  </metadata>
  <defs
     id="defs8">
    <clipPath
       id="clipPath3285">
      <path
         d="M 26,0 C 11.602648,0 0,11.602648 0,26 l 0,460 c 0,14.39735 11.602648,26 26,26 l 460,0 c 14.39735,0 26,-11.60265 26,-26 L 512,26 C 512,11.602648 500.39735,0 486,0 L 26,0 z"
         inkscape:connector-curvature="0"
         id="path3287"
         style="fill:#68af4c;fill-opacity:1;stroke:none" />
    </clipPath>
  </defs>
  <path
     d="M 26,0 C 11.602648,0 0,11.602648 0,26 l 0,460 c 0,14.39735 11.602648,26 26,26 l 460,0 c 14.39735,0 26,-11.60265 26,-26 L 512,26 C 512,11.602648 500.39735,0 486,0 L 26,0 z"
     inkscape:connector-curvature="0"
     id="rect2986"
     style="fill:#68af4c;fill-opacity:1;stroke:none" />
  <text
     x="-945.18243"
     y="-40.703033"
     id="text11"
     style="font-size:129.22999573px;line-height:125%;letter-spacing:0;word-spacing:0;font-family:Gentium Book Basic">
    <tspan
       x="-945.18243"
       y="-40.703033"
       id="tspan13" />
  </text>
  <text
     x="-38.464146"
     y="-512.49493"
     transform="scale(4.0128205,0.24920128)"
     id="text15"
     style="font-size:46.95375824px;text-anchor:middle;font-family:Arial" />
  <text
     x="-363.91238"
     y="-120.70502"
     id="text17"
     style="font-size:129.22999573px;line-height:125%;letter-spacing:0;word-spacing:0;font-family:Gentium Book Basic">
    <tspan
       x="-363.91238"
       y="-120.70502"
       id="tspan19" />
  </text>
  <text
     x="106.3851"
     y="-833.51331"
     transform="scale(4.0128205,0.24920128)"
     id="text21"
     style="font-size:46.95375824px;text-anchor:middle;font-family:Arial" />
  <text
     x="-1435.4924"
     y="-301.96503"
     id="text23"
     style="font-size:129.22999573px;line-height:125%;letter-spacing:0;word-spacing:0;font-family:Gentium Book Basic">
    <tspan
       x="-1435.4924"
       y="-301.96503"
       id="tspan25" />
  </text>
  <text
     x="-160.64853"
     y="-1560.8696"
     transform="scale(4.0128205,0.24920128)"
     id="text27"
     style="font-size:46.95375824px;text-anchor:middle;font-family:Arial" />
  <text
     x="-337.44238"
     y="-518.435"
     id="text29"
     style="font-size:129.22999573px;line-height:125%;letter-spacing:0;word-spacing:0;font-family:Gentium Book Basic">
    <tspan
       x="-337.44238"
       y="-518.435"
       id="tspan31" />
  </text>
  <text
     x="112.98508"
     y="-2429.5352"
     transform="scale(4.0128205,0.24920128)"
     id="text33"
     style="font-size:46.95375824px;text-anchor:middle;font-family:Arial" />
  <text
     x="243.82756"
     y="-598.44501"
     id="text35"
     style="font-size:129.22999573px;line-height:125%;letter-spacing:0;word-spacing:0;font-family:Gentium Book Basic">
    <tspan
       x="243.82756"
       y="-598.44501"
       id="tspan37" />
  </text>
  <text
     x="257.83435"
     y="-2750.5635"
     transform="scale(4.0128205,0.24920128)"
     id="text39"
     style="font-size:46.95375824px;text-anchor:middle;font-family:Arial" />
  <text
     x="-145.29243"
     y="-1070.845"
     id="text41"
     style="font-size:129.22999573px;line-height:125%;letter-spacing:0;word-spacing:0;font-family:Gentium Book Basic">
    <tspan
       x="-145.29243"
       y="-1070.845"
       id="tspan43" />
  </text>
  <text
     x="160.86484"
     y="-4646.2036"
     transform="scale(4.0128205,0.24920128)"
     id="text45"
     style="font-size:46.95375824px;text-anchor:middle;font-family:Arial" />
  <text
     x="435.96765"
     y="-1150.845"
     id="text47"
     style="font-size:129.22999573px;line-height:125%;letter-spacing:0;word-spacing:0;font-family:Gentium Book Basic">
    <tspan
       x="435.96765"
       y="-1150.845"
       id="tspan49" />
  </text>
  <text
     x="305.71411"
     y="-4967.2324"
     transform="scale(4.0128205,0.24920128)"
     id="text51"
     style="font-size:46.95375824px;text-anchor:middle;font-family:Arial" />
  <text
     x="-1396.8324"
     y="263.87497"
     id="text53"
     style="font-size:208.33000183px;line-height:125%;letter-spacing:0;word-spacing:0;font-family:Gentium Book Basic">
    <tspan
       x="-1396.8324"
       y="263.87497"
       id="tspan55" />
  </text>
  <g
     clip-path="url(#clipPath3285)"
     id="g3139"
     style="opacity:0.25;fill:#000000">
    <path
       d="m 256.058,41 c -36.22891,0 -65.40172,28.374871 -65.40172,63.71334 l 388.90873,388.90873 c 0,-35.33847 29.17281,-63.71334 65.40172,-63.71334 z"
       inkscape:connector-curvature="0"
       id="path3141"
       style="fill:#000000" />
    <path
       d="m 190.65628,104.71334 0,191.13062 388.90873,388.90873 0,-191.13062 z"
       inkscape:connector-curvature="0"
       id="path3143"
       style="fill:#000000" />
    <path
       d="m 190.65628,295.84396 c 0,17.34642 7.04487,33.03323 18.51278,44.50114 l 388.90872,388.90873 c -11.46791,-11.46791 -18.51277,-27.15472 -18.51277,-44.50114 z"
       inkscape:connector-curvature="0"
       id="path3145"
       style="fill:#000000" />
    <path
       d="m 209.16906,340.3451 c 11.86364,11.86364 28.46086,19.2122 46.88894,19.2122 l 388.90873,388.90873 c -18.42808,0 -35.0253,-7.34856 -46.88895,-19.2122 z"
       inkscape:connector-curvature="0"
       id="path3147"
       style="fill:#000000" />
    <path
       d="m 256.058,359.5573 c 36.22891,0 65.40173,-28.37487 65.40173,-63.71334 l 388.90873,388.90873 c 0,35.33847 -29.17282,63.71334 -65.40173,63.71334 z"
       inkscape:connector-curvature="0"
       id="path3149"
       style="fill:#000000" />
    <path
       d="m 321.45973,295.84396 0,-191.13062 388.90873,388.90873 0,191.13062 z"
       inkscape:connector-curvature="0"
       id="path3151"
       style="fill:#000000" />
    <path
       d="M 321.45973,104.71334 C 321.46666,87.366916 314.42191,71.680112 302.954,60.212202 L 691.86273,449.12093 c 11.46791,11.46791 18.51266,27.15472 18.50573,44.50114 z"
       inkscape:connector-curvature="0"
       id="path3153"
       style="fill:#000000" />
    <path
       d="M 302.954,60.212202 C 291.09035,48.348557 274.49301,41 256.07211,41 l 388.90873,388.90873 c 18.4209,0 35.01824,7.34856 46.88189,19.2122 z"
       inkscape:connector-curvature="0"
       id="path3155"
       style="fill:#000000" />
    <path
       d="m 141.55364,255.97492 0,39.81731 388.90873,388.90873 0,-39.81731 z"
       inkscape:connector-curvature="0"
       id="path3157"
       style="fill:#000000" />
    <path
       d="m 141.55364,295.79223 c 0,29.85641 12.53486,57.21734 32.67258,77.35505 L 563.13495,762.05601 C 542.99723,741.9183 530.46237,714.55737 530.46237,684.70096 z"
       inkscape:connector-curvature="0"
       id="path3159"
       style="fill:#000000" />
    <path
       d="m 174.22622,373.14728 c 15.38047,15.38048 35.19597,26.54739 57.24911,31.39438 l 388.90873,388.90873 c -22.05314,-4.84699 -41.86864,-16.0139 -57.24911,-31.39438 z"
       inkscape:connector-curvature="0"
       id="path3161"
       style="fill:#000000" />
    <path
       d="m 231.47533,404.54166 0,42.56231 388.90873,388.90873 0,-42.56231 z"
       inkscape:connector-curvature="0"
       id="path3163"
       style="fill:#000000" />
    <path
       d="m 231.47533,447.10397 -24.51996,0 388.90873,388.90873 24.51996,0 z"
       inkscape:connector-curvature="0"
       id="path3165"
       style="fill:#000000" />
    <path
       d="m 206.95537,447.10397 0,23.89603 388.90873,388.90873 0,-23.89603 z"
       inkscape:connector-curvature="0"
       id="path3167"
       style="fill:#000000" />
    <path
       d="m 206.95537,471 98.08926,0 388.90873,388.90873 -98.08926,0 z"
       inkscape:connector-curvature="0"
       id="path3169"
       style="fill:#000000" />
    <path
       d="m 305.04463,471 0,-23.89603 388.90873,388.90873 0,23.89603 z"
       inkscape:connector-curvature="0"
       id="path3171"
       style="fill:#000000" />
    <path
       d="m 305.04463,447.10397 -24.51997,0 388.90873,388.90873 24.51997,0 z"
       inkscape:connector-curvature="0"
       id="path3173"
       style="fill:#000000" />
    <path
       d="m 280.52466,447.10397 0,-42.56231 388.90873,388.90873 0,42.56231 z"
       inkscape:connector-curvature="0"
       id="path3175"
       style="fill:#000000" />
    <path
       d="m 280.52466,404.54166 c 50.92898,-11.19631 89.92169,-56.09288 89.92169,-108.74943 l 388.90873,388.90873 c 0,52.65655 -38.99271,97.55312 -89.92169,108.74943 z"
       inkscape:connector-curvature="0"
       id="path3177"
       style="fill:#000000" />
    <path
       d="m 370.44635,295.79223 0,-39.81731 388.90873,388.90873 0,39.81731 z"
       inkscape:connector-curvature="0"
       id="path3179"
       style="fill:#000000" />
    <path
       d="m 370.44635,255.97492 -24.26443,0 388.90873,388.90873 24.26443,0 z"
       inkscape:connector-curvature="0"
       id="path3181"
       style="fill:#000000" />
    <path
       d="m 346.18192,255.97492 0,39.81731 388.90873,388.90873 0,-39.81731 z"
       inkscape:connector-curvature="0"
       id="path3183"
       style="fill:#000000" />
    <path
       d="m 346.18192,295.79223 c 0,48.2749 -40.62623,87.85236 -90.17252,87.85236 l 388.90873,388.90873 c 49.54629,0 90.17252,-39.57746 90.17252,-87.85236 z"
       inkscape:connector-curvature="0"
       id="path3185"
       style="fill:#000000" />
    <path
       d="m 256.0094,383.64459 c -25.2013,0 -48.09218,-10.23836 -64.50435,-26.65054 l 388.90873,388.90873 c 16.41217,16.41218 39.30305,26.65054 64.50435,26.65054 z"
       inkscape:connector-curvature="0"
       id="path3187"
       style="fill:#000000" />
    <path
       d="m 191.50505,356.99405 c -15.85859,-15.85859 -25.66816,-37.48152 -25.66816,-61.20182 l 388.90873,388.90873 c 0,23.7203 9.80957,45.34323 25.66816,61.20182 z"
       inkscape:connector-curvature="0"
       id="path3189"
       style="fill:#000000" />
    <path
       d="m 165.83689,295.79223 0,-39.81731 388.90873,388.90873 0,39.81731 z"
       inkscape:connector-curvature="0"
       id="path3191"
       style="fill:#000000" />
  </g>
  <path
     d="m 256.058,41 c -36.22891,0 -65.40172,28.374871 -65.40172,63.71334 v 191.13062 c 0,35.29144 29.16027,63.71334 65.40172,63.71334 36.22891,0 65.40173,-28.37487 65.40173,-63.71334 V 104.71334 C 321.47383,69.421901 292.29945,41 256.07211,41 M 141.55364,255.97492 v 39.81731 c 0,52.65968 38.99428,97.55625 89.92169,108.74943 v 42.56231 H 206.95537 V 471 h 98.08926 v -23.89603 h -24.51997 v -42.56231 c 50.92898,-11.19631 89.92169,-56.09288 89.92169,-108.74943 v -39.81731 h -24.26443 v 39.81731 c 0,48.2749 -40.62623,87.85236 -90.17252,87.85236 -49.55255,0 -90.17251,-39.58373 -90.17251,-87.85236 v -39.81731 z"
     inkscape:connector-curvature="0"
     id="path59"
     style="fill:#ffffff" />
</svg>
