<?xml version="1.0" encoding="UTF-8" standalone="no"?>
<!-- Created with Inkscape (http://www.inkscape.org/) -->

<svg
   xmlns:dc="http://purl.org/dc/elements/1.1/"
   xmlns:cc="http://creativecommons.org/ns#"
   xmlns:rdf="http://www.w3.org/1999/02/22-rdf-syntax-ns#"
   xmlns:svg="http://www.w3.org/2000/svg"
   xmlns="http://www.w3.org/2000/svg"
   xmlns:sodipodi="http://sodipodi.sourceforge.net/DTD/sodipodi-0.dtd"
   xmlns:inkscape="http://www.inkscape.org/namespaces/inkscape"
   version="1.1"
   width="100%"
   height="100%"
   viewBox="0 0 512 512"
   id="svg2"
   inkscape:version="0.48.5 r10040"
   sodipodi:docname="applications-other.svg">
  <sodipodi:namedview
     pagecolor="#ffffff"
     bordercolor="#666666"
     borderopacity="1"
     objecttolerance="10"
     gridtolerance="10"
     guidetolerance="10"
     inkscape:pageopacity="0"
     inkscape:pageshadow="2"
     inkscape:window-width="1306"
     inkscape:window-height="706"
     id="namedview46"
     showgrid="false"
     inkscape:zoom="0.65186406"
     inkscape:cx="154.52145"
     inkscape:cy="191.34442"
     inkscape:window-x="56"
     inkscape:window-y="26"
     inkscape:window-maximized="1"
     inkscape:current-layer="svg2" />
  <metadata
     id="metadata90">
    <rdf:RDF>
      <cc:Work
         rdf:about="">
        <dc:format>image/svg+xml</dc:format>
        <dc:type
           rdf:resource="http://purl.org/dc/dcmitype/StillImage" />
      </cc:Work>
    </rdf:RDF>
  </metadata>
  <defs
     id="defs88">
    <clipPath
       clipPathUnits="userSpaceOnUse"
       id="clipPath3236">
      <path
         style="fill:#669966;fill-rule:evenodd"
         id="path3238"
         inkscape:connector-curvature="0"
         d="m 471.95,253.05 c 0,120.9 -98.01,218.9 -218.9,218.9 -120.9,0 -218.9,-98.01 -218.9,-218.9 0,-120.9 98.01,-218.9 218.9,-218.9 120.9,0 218.9,98.01 218.9,218.9" />
    </clipPath>
  </defs>
  <path
     d="m 471.95,253.05 c 0,120.9 -98.01,218.9 -218.9,218.9 -120.9,0 -218.9,-98.01 -218.9,-218.9 0,-120.9 98.01,-218.9 218.9,-218.9 120.9,0 218.9,98.01 218.9,218.9"
     inkscape:connector-curvature="0"
     id="path6"
     style="fill:#ae4a32;fill-rule:evenodd" />
  <path
     d="M 256,1 C 115.17,1 1,115.17 1,256 1,396.83 115.17,511 256,511 396.83,511 511,396.83 511,256 511,115.17 396.83,1 256,1 m 8.827,44.931 c 120.9,0 218.9,98 218.9,218.9 0,120.9 -98,218.9 -218.9,218.9 -120.9,0 -218.93,-98 -218.93,-218.9 0,-120.9 98.03,-218.9 218.93,-218.9"
     inkscape:connector-curvature="0"
     id="path10"
     style="fill-opacity:0.06700003;fill-rule:evenodd" />
  <path
     id="path14"
     inkscape:connector-curvature="0"
     d="m 256,4.433 c -138.94,0 -251.57,112.63 -251.57,251.57 0,138.94 112.63,251.57 251.57,251.57 138.94,0 251.57,-112.63 251.57,-251.57 C 507.57,117.063 394.94,4.433 256,4.433 m 5.885,38.556 c 120.9,0 218.9,98 218.9,218.9 0,120.9 -98,218.9 -218.9,218.9 -120.9,0 -218.93,-98 -218.93,-218.9 0,-120.9 98.03,-218.9 218.93,-218.9"
     style="fill-opacity:0.12900002;fill-rule:evenodd" />
  <path
     id="path16"
     inkscape:connector-curvature="0"
     d="m 256,8.356 c -136.77,0 -247.64,110.87 -247.64,247.64 0,136.77 110.87,247.64 247.64,247.64 136.77,0 247.64,-110.87 247.64,-247.64 C 503.64,119.226 392.77,8.356 256,8.356 m 2.942,31.691 c 120.9,0 218.9,98 218.9,218.9 0,120.9 -98,218.9 -218.9,218.9 -120.9,0 -218.93,-98 -218.93,-218.9 0,-120.9 98.03,-218.9 218.93,-218.9"
     style="fill-opacity:0.12900002;fill-rule:evenodd" />
  <path
     d="m 253.04,7.859 c -135.42,0 -245.19,109.78 -245.19,245.19 0,135.42 109.78,245.19 245.19,245.19 135.42,0 245.19,-109.78 245.19,-245.19 0,-135.42 -109.78,-245.19 -245.19,-245.19 z m 0,26.297 c 120.9,0 218.9,98 218.9,218.9 0,120.9 -98,218.9 -218.9,218.9 -120.9,0 -218.93,-98 -218.93,-218.9 0,-120.9 98.03,-218.9 218.93,-218.9 z"
     inkscape:connector-curvature="0"
     id="path18"
     style="fill:#ffffff;fill-rule:evenodd;stroke:#000000;stroke-width:4.90399981;stroke-opacity:0.31000001" />
  <text
     style="font-size:129.22999573px;line-height:125%;letter-spacing:0;word-spacing:0;font-family:Gentium Book Basic"
     id="text20"
     y="231.36"
     x="729.64001">
    <tspan
       id="tspan22"
       y="231.36"
       x="729.64001" />
  </text>
  <text
     style="font-size:46.95399857px;text-anchor:middle;font-family:Arial"
     id="text24"
     transform="scale(4.0128,0.2492)"
     y="579.25"
     x="378.91" />
  <text
     style="font-size:129.22999573px;line-height:125%;letter-spacing:0;word-spacing:0;font-family:Gentium Book Basic"
     id="text26"
     y="151.36"
     x="1310.91">
    <tspan
       id="tspan28"
       y="151.36"
       x="1310.91" />
  </text>
  <text
     style="font-size:46.95399857px;text-anchor:middle;font-family:Arial"
     id="text30"
     transform="scale(4.0128,0.2492)"
     y="258.22"
     x="523.76001" />
  <text
     style="font-size:129.22999573px;line-height:125%;letter-spacing:0;word-spacing:0;font-family:Gentium Book Basic"
     id="text32"
     y="-29.900999"
     x="239.33">
    <tspan
       id="tspan34"
       y="-29.900999"
       x="239.33" />
  </text>
  <text
     style="font-size:46.95399857px;text-anchor:middle;font-family:Arial"
     id="text36"
     transform="scale(4.0128,0.2492)"
     y="-469.14001"
     x="256.72" />
  <text
     style="font-size:129.22999573px;line-height:125%;letter-spacing:0;word-spacing:0;font-family:Gentium Book Basic"
     id="text38"
     y="-246.37"
     x="1337.38">
    <tspan
       id="tspan40"
       y="-246.37"
       x="1337.38" />
  </text>
  <text
     style="font-size:46.95399857px;text-anchor:middle;font-family:Arial"
     id="text42"
     transform="scale(4.0128,0.2492)"
     y="-1337.8101"
     x="530.35999" />
  <text
     style="font-size:129.22999573px;line-height:125%;letter-spacing:0;word-spacing:0;font-family:Gentium Book Basic"
     id="text44"
     y="-326.38"
     x="1918.65">
    <tspan
       id="tspan46"
       y="-326.38"
       x="1918.65" />
  </text>
  <text
     style="font-size:46.95399857px;text-anchor:middle;font-family:Arial"
     id="text48"
     transform="scale(4.0128,0.2492)"
     y="-1658.85"
     x="675.21002" />
  <text
     style="font-size:129.22999573px;line-height:125%;letter-spacing:0;word-spacing:0;font-family:Gentium Book Basic"
     id="text50"
     y="-798.78003"
     x="1529.53">
    <tspan
       id="tspan52"
       y="-798.78003"
       x="1529.53" />
  </text>
  <text
     style="font-size:46.95399857px;text-anchor:middle;font-family:Arial"
     id="text54"
     transform="scale(4.0128,0.2492)"
     y="-3554.51"
     x="578.23999" />
  <text
     style="font-size:129.22999573px;line-height:125%;letter-spacing:0;word-spacing:0;font-family:Gentium Book Basic"
     id="text56"
     y="-878.78003"
     x="2110.79">
    <tspan
       id="tspan58"
       y="-878.78003"
       x="2110.79" />
  </text>
  <text
     style="font-size:46.95399857px;text-anchor:middle;font-family:Arial"
     id="text60"
     transform="scale(4.0128,0.2492)"
     y="-3875.54"
     x="723.09003" />
  <text
     style="font-size:208.33000183px;line-height:125%;letter-spacing:0;word-spacing:0;font-family:Gentium Book Basic"
     id="text62"
     y="535.94"
     x="277.98999">
    <tspan
       id="tspan64"
       y="535.94"
       x="277.98999" />
  </text>
  <g
     style="fill:#000000;fill-opacity:1;stroke:none;opacity:0.25"
     id="g3076"
     clip-path="url(#clipPath3236)">
    <path
       inkscape:connector-curvature="0"
       d="m 332.60937,124.42188 -18.78125,36.71874 388.90873,388.90873 18.78125,-36.71874 z"
       id="path3078"
       style="fill:#000000" />
    <path
       inkscape:connector-curvature="0"
       d="m 313.82812,161.14062 -40.75,6.28125 388.90873,388.90873 40.75,-6.28125 z"
       id="path3080"
       style="fill:#000000" />
    <path
       inkscape:connector-curvature="0"
       d="m 273.07812,167.42187 29.09375,29.1875 388.90873,388.90873 -29.09375,-29.1875 z"
       id="path3082"
       style="fill:#000000" />
    <path
       inkscape:connector-curvature="0"
       d="m 302.17187,196.60937 -6.59375,40.6875 388.90873,388.90873 6.59375,-40.6875 z"
       id="path3084"
       style="fill:#000000" />
    <path
       inkscape:connector-curvature="0"
       d="m 295.57812,237.29687 36.75,-18.65625 388.90873,388.90873 -36.75,18.65625 z"
       id="path3086"
       style="fill:#000000" />
    <path
       inkscape:connector-curvature="0"
       d="M 332.32812,218.64062 368.98437,237.48437 757.8931,626.3931 721.23685,607.54935 z"
       id="path3088"
       style="fill:#000000" />
    <path
       inkscape:connector-curvature="0"
       d="m 368.98437,237.48437 -6.375,-40.71875 388.90873,388.90873 6.375,40.71875 z"
       id="path3090"
       style="fill:#000000" />
    <path
       inkscape:connector-curvature="0"
       d="m 362.60937,196.76562 29.25,-29 388.90873,388.90873 -29.25,29 z"
       id="path3092"
       style="fill:#000000" />
    <path
       inkscape:connector-curvature="0"
       d="m 391.85937,167.76562 -40.6875,-6.53125 388.90873,388.90873 40.6875,6.53125 z"
       id="path3094"
       style="fill:#000000" />
    <path
       inkscape:connector-curvature="0"
       d="m 351.17187,161.23437 -18.5625,-36.81249 388.90873,388.90873 18.5625,36.81249 z"
       id="path3096"
       style="fill:#000000" />
    <path
       inkscape:connector-curvature="0"
       d="m 173.70312,127.42188 c -29.57547,0 -53.56249,23.95577 -53.56249,53.53124 l 388.90873,388.90873 c 0,-29.57547 23.98702,-53.53124 53.56249,-53.53124 z"
       id="path3098"
       style="fill:#000000" />
    <path
       inkscape:connector-curvature="0"
       d="m 120.14063,180.95312 c 0,14.78774 5.99676,28.17836 15.69045,37.87206 l 388.90873,388.90873 c -9.69369,-9.6937 -15.69045,-23.08432 -15.69045,-37.87206 z"
       id="path3100"
       style="fill:#000000" />
    <path
       inkscape:connector-curvature="0"
       d="m 135.83108,218.82518 c 9.69369,9.69368 23.08431,15.69044 37.87204,15.69044 l 388.90873,388.90873 c -14.78773,0 -28.17835,-5.99676 -37.87204,-15.69044 z"
       id="path3102"
       style="fill:#000000" />
    <path
       inkscape:connector-curvature="0"
       d="m 173.70312,234.51562 c 29.57547,0 53.5625,-23.98703 53.5625,-53.5625 l 388.90873,388.90873 c 0,29.57547 -23.98703,53.5625 -53.5625,53.5625 z"
       id="path3104"
       style="fill:#000000" />
    <path
       inkscape:connector-curvature="0"
       d="m 227.26562,180.95312 c 0,-14.77992 -5.99042,-28.1564 -15.67508,-37.84106 l 388.90873,388.90873 c 9.68466,9.68466 15.67508,23.06114 15.67508,37.84106 z"
       id="path3106"
       style="fill:#000000" />
    <path
       inkscape:connector-curvature="0"
       d="m 211.59054,143.11206 c -9.69491,-9.69491 -23.09187,-15.69018 -37.88742,-15.69018 l 388.90873,388.90873 c 14.79555,0 28.19251,5.99527 37.88742,15.69018 z"
       id="path3108"
       style="fill:#000000" />
    <path
       inkscape:connector-curvature="0"
       d="m 283.57812,280.48437 c -2.58691,0 -4.65625,2.06934 -4.65625,4.65625 L 667.8306,674.04935 c 0,-2.58691 2.06934,-4.65625 4.65625,-4.65625 z"
       id="path3110"
       style="fill:#000000" />
    <path
       inkscape:connector-curvature="0"
       d="m 278.92187,285.14062 0,97.78125 388.90873,388.90873 0,-97.78125 z"
       id="path3112"
       style="fill:#000000" />
    <path
       inkscape:connector-curvature="0"
       d="m 278.92187,382.92187 c 0,2.58691 2.06934,4.65625 4.65625,4.65625 l 388.90873,388.90873 c -2.58691,0 -4.65625,-2.06934 -4.65625,-4.65625 z"
       id="path3114"
       style="fill:#000000" />
    <path
       inkscape:connector-curvature="0"
       d="m 283.57812,387.57812 97.78125,0 388.90873,388.90873 -97.78125,0 z"
       id="path3116"
       style="fill:#000000" />
    <path
       inkscape:connector-curvature="0"
       d="m 381.35937,387.57812 c 2.58691,0 4.65625,-2.06934 4.65625,-4.65625 L 774.92435,771.8306 c 0,2.58691 -2.06934,4.65625 -4.65625,4.65625 z"
       id="path3118"
       style="fill:#000000" />
    <path
       inkscape:connector-curvature="0"
       d="m 386.01562,382.92187 0,-97.78125 388.90873,388.90873 0,97.78125 z"
       id="path3120"
       style="fill:#000000" />
    <path
       inkscape:connector-curvature="0"
       d="m 386.01562,285.14062 c 0,-2.58691 -2.06934,-4.65625 -4.65625,-4.65625 L 770.2681,669.3931 c 2.58691,0 4.65625,2.06934 4.65625,4.65625 z"
       id="path3122"
       style="fill:#000000" />
    <path
       inkscape:connector-curvature="0"
       d="m 381.35937,280.48437 -97.78125,0 388.90873,388.90873 97.78125,0 z"
       id="path3124"
       style="fill:#000000" />
    <path
       inkscape:connector-curvature="0"
       d="m 173.70312,287.39062 -27.25,46.09375 388.90873,388.90873 27.25,-46.09375 z"
       id="path3126"
       style="fill:#000000" />
    <path
       inkscape:connector-curvature="0"
       d="m 146.45312,333.48437 -26.31249,46.65625 388.90873,388.90873 26.31249,-46.65625 z"
       id="path3128"
       style="fill:#000000" />
    <path
       inkscape:connector-curvature="0"
       d="m 120.14063,380.14062 53.56249,0.53125 388.90873,388.90873 -53.56249,-0.53125 z"
       id="path3130"
       style="fill:#000000" />
    <path
       inkscape:connector-curvature="0"
       d="m 173.70312,380.67187 53.5625,-0.53125 388.90873,388.90873 -53.5625,0.53125 z"
       id="path3132"
       style="fill:#000000" />
    <path
       inkscape:connector-curvature="0"
       d="m 227.26562,380.14062 -26.3125,-46.65625 388.90873,388.90873 26.3125,46.65625 z"
       id="path3134"
       style="fill:#000000" />
    <path
       inkscape:connector-curvature="0"
       d="m 200.95312,333.48437 -27.25,-46.09375 388.90873,388.90873 27.25,46.09375 z"
       id="path3136"
       style="fill:#000000" />
  </g>
  <path
     style="fill:#ffffff;fill-opacity:1;stroke:none"
     d="m 332.60937,124.42188 -18.78125,36.71874 -40.75,6.28125 29.09375,29.1875 -6.59375,40.6875 36.75,-18.65625 36.65625,18.84375 -6.375,-40.71875 29.25,-29 -40.6875,-6.53125 -18.5625,-36.81249 z m -158.90625,3 c -29.57547,0 -53.56249,23.95577 -53.56249,53.53124 0,29.57547 23.98702,53.5625 53.56249,53.5625 29.57547,0 53.5625,-23.98703 53.5625,-53.5625 0,-29.57547 -23.98703,-53.53124 -53.5625,-53.53124 z m 109.875,153.06249 c -2.58691,0 -4.65625,2.06934 -4.65625,4.65625 l 0,97.78125 c 0,2.58691 2.06934,4.65625 4.65625,4.65625 l 97.78125,0 c 2.58691,0 4.65625,-2.06934 4.65625,-4.65625 l 0,-97.78125 c 0,-2.58691 -2.06934,-4.65625 -4.65625,-4.65625 l -97.78125,0 z m -109.875,6.90625 -27.25,46.09375 -26.31249,46.65625 53.56249,0.53125 53.5625,-0.53125 -26.3125,-46.65625 -27.25,-46.09375 z"
     id="path3032"
     inkscape:connector-curvature="0" />
</svg>
