<?xml version="1.0" encoding="UTF-8" standalone="no"?>
<!-- Created with Inkscape (http://www.inkscape.org/) -->

<svg
   xmlns:dc="http://purl.org/dc/elements/1.1/"
   xmlns:cc="http://creativecommons.org/ns#"
   xmlns:rdf="http://www.w3.org/1999/02/22-rdf-syntax-ns#"
   xmlns:svg="http://www.w3.org/2000/svg"
   xmlns="http://www.w3.org/2000/svg"
   xmlns:sodipodi="http://sodipodi.sourceforge.net/DTD/sodipodi-0.dtd"
   xmlns:inkscape="http://www.inkscape.org/namespaces/inkscape"
   version="1.1"
   width="100%"
   height="100%"
   viewBox="0 0 512 512"
   id="svg2"
   inkscape:version="0.48.5 r10040"
   sodipodi:docname="applications-internet.svg">
  <sodipodi:namedview
     pagecolor="#ffffff"
     bordercolor="#666666"
     borderopacity="1"
     objecttolerance="10"
     gridtolerance="10"
     guidetolerance="10"
     inkscape:pageopacity="0"
     inkscape:pageshadow="2"
     inkscape:window-width="1306"
     inkscape:window-height="706"
     id="namedview38"
     showgrid="false"
     inkscape:zoom="0.65186406"
     inkscape:cx="300.48005"
     inkscape:cy="214.73838"
     inkscape:window-x="56"
     inkscape:window-y="26"
     inkscape:window-maximized="1"
     inkscape:current-layer="svg2" />
  <metadata
     id="metadata74">
    <rdf:RDF>
      <cc:Work
         rdf:about="">
        <dc:format>image/svg+xml</dc:format>
        <dc:type
           rdf:resource="http://purl.org/dc/dcmitype/StillImage" />
      </cc:Work>
    </rdf:RDF>
  </metadata>
  <defs
     id="defs72">
    <clipPath
       clipPathUnits="userSpaceOnUse"
       id="clipPath3418">
      <path
         d="m 471.95,253.05 c 0,120.9 -98.01,218.9 -218.9,218.9 -120.9,0 -218.9,-98.01 -218.9,-218.9 0,-120.9 98.01,-218.9 218.9,-218.9 120.9,0 218.9,98.01 218.9,218.9"
         inkscape:connector-curvature="0"
         id="path3420"
         style="fill:#0279ad;fill-rule:evenodd" />
    </clipPath>
  </defs>
  <path
     style="fill:#0279ad;fill-rule:evenodd"
     id="path4"
     inkscape:connector-curvature="0"
     d="m 471.95,253.05 c 0,120.9 -98.01,218.9 -218.9,218.9 -120.9,0 -218.9,-98.01 -218.9,-218.9 0,-120.9 98.01,-218.9 218.9,-218.9 120.9,0 218.9,98.01 218.9,218.9" />
  <path
     style="fill:#ffffff;fill-opacity:0.43700005"
     id="path6"
     inkscape:connector-curvature="0"
     d="m 256.73,32.577 c -119.06,0 -216.41,93.37 -223.62,211.27 2.263,5.493 7.424,9.187 10.357,14.599 l 1.414,13.07 2.37,-12.12 26.1,11.08 18.04,16.893 15.479,2.293 c -5.528,12.662 -16.713,33.06 -14.676,47.2 1.185,8.221 9.466,19.947 14.217,26.638 6.637,9.346 19.17,14.873 22.511,26.638 l 0.535,19.377 3.631,14.523 c -0.6,5.087 -4.576,13.239 -3.822,19.15 10.253,7.143 21.13,13.435 32.524,18.804 1.994,-1.897 1.739,-5.998 -0.077,-8.905 l 8.828,-12.345 11.198,-8.37 7.873,-27.632 16.969,-11.122 c 6.946,-10.534 1.911,-19.296 4.51,-30.12 l 11.427,-32.677 c -12.92,-4.898 -31.435,-10.909 -40.55,-21.785 l -2.37,1.223 -2.408,-10.892 -14.294,-7.262 -2.37,2.408 -3.593,-16.931 -19.07,-1.567 -14.332,-7.911 c -6.171,-0.891 -14.341,9.342 -16.663,14.294 l -8.37,-1.185 2.408,-2.446 -7.147,-4.854 1.185,4.854 c -5.142,-5.397 -6.03,-12.205 -4.777,-19.377 l -8.332,-3.631 -1.223,3.631 c -1.491,-5.99 -0.862,-13.726 3.593,-18.15 -6.534,-4.525 -10.926,-0.267 -15.479,4.854 l -9.555,-19.377 c -2.627,5.941 -1.669,11.867 -1.185,18.15 h -2.408 c -0.527,-6.773 -2.159,-14.178 1.223,-20.562 6.32,-11.93 25.301,-16.963 36.957,-14.523 l -1.223,2.408 10.739,9.708 c 0.049,-18.508 7.236,-20.464 17.313,-33.938 l 7.03,-12.994 c 7.82,-8.732 19.967,-14.686 30.46,-18.612 l 13.147,-8.293 c -4.256,-7.479 -15.442,-5.339 -22.625,-4.854 12.917,-7.462 30.479,-3.419 39.33,-16.931 -9.652,-7.131 -9.652,-25.736 -25.03,-18.15 l 2.37,-7.262 -13.11,-6.077 -9.555,20.256 -13.11,16.05 -1.185,-8.446 c -5.04,-2.378 -18.915,-6.559 -19.19,-13.338 -0.294,-7.368 22.13,-18.498 27.556,-22.969 l -2.408,6.04 9.249,-0.879 c 1.959,-1.256 20.545,-27.871 22.931,-11.236 12.927,4.975 14.404,10.677 27.441,2.446 l -8.332,-3.669 c -1.315,-11.954 -11.728,-12.07 -21.479,-12.08 l 30.995,-14.523 c 3.451,8.594 14.269,10.353 17.772,18.268 2.488,5.624 -4.888,9.01 -4.701,14.408 0.231,6.653 6.6,14.787 9.593,20.562 l 17.925,-19.874 c 9.897,-5.357 25.827,-5.944 33.709,-14.599 9.125,-10.02 4.104,-25.966 21.1,-26.03 -3.448,-1.473 -9,-2.591 -11.924,0 l -3.593,-3.631 h 4.777 c -2.493,-3.471 -4.163,-5.364 -8.332,-6.077 -0.974,-1.223 -2.229,-2.042 -3.631,-2.637 -3.657,-0.178 -7.344,-0.268 -11.05,-0.268 m 104.07,35.581 c -4.191,3.484 -11.301,5.241 -16.663,6.077 l -9.746,13.606 -11.351,9.593 c -1.828,4.409 1.086,11.08 1.987,15.517 l 11.924,-6.04 c 1.715,6.01 6.362,7.559 10.739,10.892 7.07,-13.616 0.985,-26.635 17.886,-33.9 l -10.739,13.338 3.593,-2.446 1.185,7.262 1.185,-9.669 c 3.149,10.919 -0.146,25.918 -11.924,30.04 l -11.924,-0.994 v -7.262 c -6.781,1.437 -6.526,4.865 -4.739,10.892 -4.602,-1.328 -7.348,-1.107 -10.739,2.408 -3.642,-3.8 -6.607,-6.688 -7.147,-12.08 -2.315,-2.341 -3.354,-3.935 -3.593,-7.262 l -8.332,-1.223 3.554,19.377 c -3.181,-6.06 -6.475,-7.537 -13.11,-6.077 l 3.593,14.523 4.777,-1.185 -3.593,-1.223 4.777,-8.485 2.37,13.338 10.739,-2.446 c -3.01,2.916 -5.409,3.624 -9.555,3.631 l 1.223,3.631 h -5.962 l 8.332,14.523 c -19.535,0.164 -19.761,10.318 -19.07,26.638 3.813,0.279 5.668,0.852 8.332,3.631 15.776,-8.439 19.413,-24.12 38.14,-29.05 3.039,9.595 12.439,9.02 9.555,20.6 9.202,-1.907 11.778,-9.789 5.962,-16.969 7.84,4.741 10.08,14.476 15.478,21.785 3.801,-5.067 2.342,-10.858 8.37,-14.523 v 3.631 c 10.1,9.1 17.07,11.152 29.81,15.746 -4.379,6.311 -9.662,12.48 -17.886,11.962 -10.07,-0.633 -22.918,-10.649 -29.81,1.338 l -19.19,-15.44 c -10.641,-4.556 -21.1,-0.248 -32.07,-1.491 l -4.777,2.408 2.37,1.223 c -21.843,9.977 -33.959,36.25 -36.23,58.09 l -4.166,14.523 c 2.323,14.184 14.175,28.872 24.12,38.524 7,6.795 12.03,-6.486 18.689,0.229 8.812,-3.387 22.11,-9.299 30.19,0.153 5.309,6.211 -0.237,11.356 1.605,18 3.187,11.498 10.796,24.971 10.778,37.531 l -2.981,30.23 c 2.612,18.436 12.684,33.959 12.841,53.28 14.618,-1.529 31.06,-8.993 39.17,-21.785 l 3.478,-10.778 6.04,-7.491 -2.293,-11.886 c 3.412,-8.314 17.222,-9.223 19.3,-18.307 2.83,-12.367 -4.562,-27.01 -0.153,-39.9 6.8,-19.868 25.735,-34.418 26.26,-56.907 l -14.294,1.223 c 12.868,-16.03 40.13,-24.1 26.22,-48.42 l -5.962,7.262 h -2.37 c -4.604,-9.807 -11.915,-10.83 -11.924,-23.01 11.161,9.752 22.707,10.06 33.365,21.785 0.973,-0.535 1.783,-1.211 2.446,-2.026 -8.147,-62.56 -41.822,-117.04 -90.16,-152.53 -9.09,-0.905 -19.831,-2.204 -25.53,-7.605 h -2.408 v -0.038" />
  <path
     d="M 256,1 C 115.17,1 1,115.17 1,256 1,396.83 115.17,511 256,511 396.83,511 511,396.83 511,256 511,115.17 396.83,1 256,1 m 8.827,44.931 c 120.9,0 218.9,98 218.9,218.9 0,120.9 -98,218.9 -218.9,218.9 -120.9,0 -218.93,-98 -218.93,-218.9 0,-120.9 98.03,-218.9 218.93,-218.9"
     inkscape:connector-curvature="0"
     id="path12"
     style="fill-opacity:0.06700003;fill-rule:evenodd" />
  <g
     id="g14"
     style="fill-opacity:0.12900002;fill-rule:evenodd">
    <path
       d="m 256,4.433 c -138.94,0 -251.57,112.63 -251.57,251.57 0,138.94 112.63,251.57 251.57,251.57 138.94,0 251.57,-112.63 251.57,-251.57 C 507.57,117.063 394.94,4.433 256,4.433 m 5.885,38.556 c 120.9,0 218.9,98 218.9,218.9 0,120.9 -98,218.9 -218.9,218.9 -120.9,0 -218.93,-98 -218.93,-218.9 0,-120.9 98.03,-218.9 218.93,-218.9"
       inkscape:connector-curvature="0"
       id="path16" />
    <path
       d="m 256,8.356 c -136.77,0 -247.64,110.87 -247.64,247.64 0,136.77 110.87,247.64 247.64,247.64 136.77,0 247.64,-110.87 247.64,-247.64 C 503.64,119.226 392.77,8.356 256,8.356 m 2.942,31.691 c 120.9,0 218.9,98 218.9,218.9 0,120.9 -98,218.9 -218.9,218.9 -120.9,0 -218.93,-98 -218.93,-218.9 0,-120.9 98.03,-218.9 218.93,-218.9"
       inkscape:connector-curvature="0"
       id="path18" />
  </g>
  <path
     d="m 253.04,7.859 c -135.42,0 -245.19,109.78 -245.19,245.19 0,135.42 109.78,245.19 245.19,245.19 135.42,0 245.19,-109.78 245.19,-245.19 0,-135.42 -109.78,-245.19 -245.19,-245.19 z m 0,26.297 c 120.9,0 218.9,98 218.9,218.9 0,120.9 -98,218.9 -218.9,218.9 -120.9,0 -218.93,-98 -218.93,-218.9 0,-120.9 98.03,-218.9 218.93,-218.9 z"
     inkscape:connector-curvature="0"
     id="path20"
     style="fill:#ffffff;fill-rule:evenodd;stroke:#000000;stroke-width:4.90399981;stroke-opacity:0.31000001" />
  <text
     style="font-size:129.22999573px;line-height:125%;letter-spacing:0;word-spacing:0;font-family:Gentium Book Basic"
     id="text22"
     y="231.36"
     x="729.64001">
    <tspan
       id="tspan24"
       y="231.36"
       x="729.64001" />
  </text>
  <text
     style="font-size:46.95399857px;text-anchor:middle;font-family:Arial"
     id="text26"
     transform="scale(4.0128,0.2492)"
     y="579.25"
     x="378.91" />
  <text
     style="font-size:129.22999573px;line-height:125%;letter-spacing:0;word-spacing:0;font-family:Gentium Book Basic"
     id="text28"
     y="151.36"
     x="1310.91">
    <tspan
       id="tspan30"
       y="151.36"
       x="1310.91" />
  </text>
  <text
     style="font-size:46.95399857px;text-anchor:middle;font-family:Arial"
     id="text32"
     transform="scale(4.0128,0.2492)"
     y="258.22"
     x="523.76001" />
  <text
     style="font-size:129.22999573px;line-height:125%;letter-spacing:0;word-spacing:0;font-family:Gentium Book Basic"
     id="text34"
     y="-29.900999"
     x="239.33">
    <tspan
       id="tspan36"
       y="-29.900999"
       x="239.33" />
  </text>
  <text
     style="font-size:46.95399857px;text-anchor:middle;font-family:Arial"
     id="text38"
     transform="scale(4.0128,0.2492)"
     y="-469.14001"
     x="256.72" />
  <text
     style="font-size:129.22999573px;line-height:125%;letter-spacing:0;word-spacing:0;font-family:Gentium Book Basic"
     id="text40"
     y="-246.37"
     x="1337.38">
    <tspan
       id="tspan42"
       y="-246.37"
       x="1337.38" />
  </text>
  <text
     style="font-size:46.95399857px;text-anchor:middle;font-family:Arial"
     id="text44"
     transform="scale(4.0128,0.2492)"
     y="-1337.8101"
     x="530.35999" />
  <text
     style="font-size:129.22999573px;line-height:125%;letter-spacing:0;word-spacing:0;font-family:Gentium Book Basic"
     id="text46"
     y="-326.38"
     x="1918.65">
    <tspan
       id="tspan48"
       y="-326.38"
       x="1918.65" />
  </text>
  <text
     style="font-size:46.95399857px;text-anchor:middle;font-family:Arial"
     id="text50"
     transform="scale(4.0128,0.2492)"
     y="-1658.85"
     x="675.21002" />
  <text
     style="font-size:129.22999573px;line-height:125%;letter-spacing:0;word-spacing:0;font-family:Gentium Book Basic"
     id="text52"
     y="-798.78003"
     x="1529.53">
    <tspan
       id="tspan54"
       y="-798.78003"
       x="1529.53" />
  </text>
  <text
     style="font-size:46.95399857px;text-anchor:middle;font-family:Arial"
     id="text56"
     transform="scale(4.0128,0.2492)"
     y="-3554.51"
     x="578.23999" />
  <text
     style="font-size:129.22999573px;line-height:125%;letter-spacing:0;word-spacing:0;font-family:Gentium Book Basic"
     id="text58"
     y="-878.78003"
     x="2110.79">
    <tspan
       id="tspan60"
       y="-878.78003"
       x="2110.79" />
  </text>
  <text
     style="font-size:46.95399857px;text-anchor:middle;font-family:Arial"
     id="text62"
     transform="scale(4.0128,0.2492)"
     y="-3875.54"
     x="723.09003" />
  <text
     style="font-size:208.33000183px;line-height:125%;letter-spacing:0;word-spacing:0;font-family:Gentium Book Basic"
     id="text64"
     y="535.94"
     x="277.98999">
    <tspan
       id="tspan66"
       y="535.94"
       x="277.98999" />
  </text>
  <g
     style="color:#000000;fill:#000000;opacity:0.25"
     id="g3056"
     clip-path="url(#clipPath3418)">
    <path
       inkscape:connector-curvature="0"
       d="m 256.27498,94.830943 c -25.25659,0 -49.20083,5.887637 -70.50847,16.306427 L 574.67524,500.0461 c 21.30764,-10.41879 45.25188,-16.30643 70.50847,-16.30643 z"
       id="path3058"
       style="fill:#000000" />
    <path
       inkscape:connector-curvature="0"
       d="m 185.76651,111.13737 -0.8053,-0.30184 388.90873,388.90873 0.8053,0.30184 z"
       id="path3060"
       style="fill:#000000" />
    <path
       inkscape:connector-curvature="0"
       d="m 184.96121,110.83553 c -0.099,0.26843 -0.20401,0.53567 -0.30184,0.8053 L 573.5681,500.54956 c 0.0978,-0.26963 0.20284,-0.53687 0.30184,-0.8053 z"
       id="path3062"
       style="fill:#000000" />
    <path
       inkscape:connector-curvature="0"
       d="m 184.65937,111.64083 c -53.0424,26.42576 -89.585117,81.25772 -89.585117,144.39322 L 483.98298,644.94278 c 0,-63.1355 36.54272,-117.96746 89.58512,-144.39322 z"
       id="path3064"
       style="fill:#000000" />
    <path
       inkscape:connector-curvature="0"
       d="m 95.074253,256.03405 c 0,44.39748 18.083757,84.65866 47.260457,113.83536 l 388.90873,388.90873 c -29.1767,-29.1767 -47.26046,-69.43788 -47.26046,-113.83536 z"
       id="path3066"
       style="fill:#000000" />
    <path
       inkscape:connector-curvature="0"
       d="m 142.33471,369.86941 c 12.34622,12.34622 26.67873,22.70766 42.46783,30.55787 l 388.90873,388.90873 c -15.7891,-7.85021 -30.12161,-18.21165 -42.46783,-30.55787 z"
       id="path3068"
       style="fill:#000000" />
    <path
       inkscape:connector-curvature="0"
       d="m 184.80254,400.42728 c 0.14316,0.33166 0.25889,0.67526 0.40205,1.00692 l 388.90873,388.90873 c -0.14316,-0.33166 -0.25889,-0.67526 -0.40205,-1.00692 z"
       id="path3070"
       style="fill:#000000" />
    <path
       inkscape:connector-curvature="0"
       d="m 185.20459,401.4342 0.85541,-0.35194 388.90873,388.90873 -0.85541,0.35194 z"
       id="path3072"
       style="fill:#000000" />
    <path
       inkscape:connector-curvature="0"
       d="m 186.06,401.08226 c 21.23486,10.32453 45.06577,16.1048 70.20663,16.1048 l 388.90873,388.90873 c -25.14086,0 -48.97177,-5.78027 -70.20663,-16.1048 z"
       id="path3074"
       style="fill:#000000" />
    <path
       inkscape:connector-curvature="0"
       d="m 256.26663,417.18706 c 25.07763,0 48.82025,-5.72658 69.95966,-16.00459 L 715.13502,790.0912 c -21.13941,10.27801 -44.88203,16.00459 -69.95966,16.00459 z"
       id="path3076"
       style="fill:#000000" />
    <path
       inkscape:connector-curvature="0"
       d="m 326.22629,401.18247 0.60368,0.25173 388.90873,388.90873 -0.60368,-0.25173 z"
       id="path3078"
       style="fill:#000000" />
    <path
       inkscape:connector-curvature="0"
       d="m 326.82997,401.4342 c 0.10857,-0.24815 0.19447,-0.50585 0.30184,-0.75519 l 388.90873,388.90873 c -0.10737,0.24934 -0.19327,0.50704 -0.30184,0.75519 z"
       id="path3080"
       style="fill:#000000" />
    <path
       inkscape:connector-curvature="0"
       d="m 327.13181,400.67901 c 53.21898,-26.30646 89.78794,-81.25773 89.78794,-144.64376 l 388.90873,388.90873 c 0,63.38603 -36.56896,118.3373 -89.78794,144.64376 z"
       id="path3082"
       style="fill:#000000" />
    <path
       inkscape:connector-curvature="0"
       d="m 416.91975,256.03525 c 0,-44.55008 -18.06325,-84.96268 -47.28091,-114.18034 l 388.90873,388.90873 c 29.21766,29.21766 47.28091,69.63026 47.28091,114.18034 z"
       id="path3084"
       style="fill:#000000" />
    <path
       inkscape:connector-curvature="0"
       d="m 369.63884,141.85491 c -12.32205,-12.32205 -26.62802,-22.65299 -42.39966,-30.46343 l 388.90873,388.90873 c 15.77164,7.81044 30.07761,18.14138 42.39966,30.46343 z"
       id="path3086"
       style="fill:#000000" />
    <path
       inkscape:connector-curvature="0"
       d="m 327.23918,111.39148 c -0.068,-0.18372 -0.13362,-0.36984 -0.20162,-0.55356 l 388.90873,388.90873 c 0.068,0.18372 0.13362,0.36984 0.20162,0.55356 z"
       id="path3088"
       style="fill:#000000" />
    <path
       inkscape:connector-curvature="0"
       d="m 327.03756,110.83792 -0.55357,0.20162 388.90873,388.90873 0.55357,-0.20162 z"
       id="path3090"
       style="fill:#000000" />
    <path
       inkscape:connector-curvature="0"
       d="M 326.48399,111.03954 C 305.28134,100.68159 281.46117,94.834522 256.27736,94.834522 L 645.18609,483.74325 c 25.18381,0 49.00398,5.84707 70.20663,16.20502 z"
       id="path3092"
       style="fill:#000000" />
    <path
       inkscape:connector-curvature="0"
       d="m 245.95998,115.41798 0,70.20663 388.90873,388.90873 0,-70.20663 z"
       id="path3094"
       style="fill:#000000" />
    <path
       inkscape:connector-curvature="0"
       d="m 245.95998,185.62461 -60.74465,0 388.90873,388.90873 60.74465,0 z"
       id="path3096"
       style="fill:#000000" />
    <path
       inkscape:connector-curvature="0"
       d="m 185.21533,185.62461 c 3.78073,-20.07881 8.97402,-39.92736 15.60492,-59.23546 l 388.90873,388.90873 c -6.6309,19.3081 -11.82419,39.15665 -15.60492,59.23546 z"
       id="path3098"
       style="fill:#000000" />
    <path
       inkscape:connector-curvature="0"
       d="m 200.82025,126.38915 c 14.02414,-6.00098 29.20315,-9.82466 45.14331,-10.97117 l 388.90873,388.90873 c -15.94016,1.14651 -31.11917,4.97019 -45.14331,10.97117 z"
       id="path3100"
       style="fill:#000000" />
    <path
       inkscape:connector-curvature="0"
       d="m 266.09486,115.41798 c 15.90199,1.09402 31.06668,4.79601 45.0431,10.71944 l 388.90873,388.90873 c -13.97642,-5.92343 -29.14111,-9.62542 -45.0431,-10.71944 z"
       id="path3102"
       style="fill:#000000" />
    <path
       inkscape:connector-curvature="0"
       d="m 311.13796,126.13742 c 6.66788,19.38804 11.90889,39.3201 15.70156,59.48719 l 388.90873,388.90873 c -3.79267,-20.16709 -9.03368,-40.09915 -15.70156,-59.48719 z"
       id="path3104"
       style="fill:#000000" />
    <path
       inkscape:connector-curvature="0"
       d="m 326.83952,185.62461 -60.74466,0 388.90873,388.90873 60.74466,0 z"
       id="path3106"
       style="fill:#000000" />
    <path
       inkscape:connector-curvature="0"
       d="m 266.09486,185.62461 0,-70.20663 388.90873,388.90873 0,70.20663 z"
       id="path3108"
       style="fill:#000000" />
    <path
       inkscape:connector-curvature="0"
       d="m 336.69877,140.32978 c 6.71508,4.70435 13.00038,9.98327 18.78357,15.76646 l 388.90873,388.90873 c -5.78319,-5.78319 -12.06849,-11.06211 -18.78357,-15.76646 z"
       id="path3110"
       style="fill:#000000" />
    <path
       inkscape:connector-curvature="0"
       d="m 355.48234,156.09624 c 8.76581,8.76581 16.37807,18.69019 22.58498,29.52837 l 388.90873,388.90873 c -6.20691,-10.83818 -13.81917,-20.76256 -22.58498,-29.52837 z"
       id="path3112"
       style="fill:#000000" />
    <path
       inkscape:connector-curvature="0"
       d="m 378.06732,185.62461 -30.69922,0 388.90873,388.90873 30.69922,0 z"
       id="path3114"
       style="fill:#000000" />
    <path
       inkscape:connector-curvature="0"
       d="m 347.3681,185.62461 c -2.75592,-15.25059 -6.34099,-30.40096 -10.66933,-45.29483 L 725.6075,529.23851 c 4.32834,14.89387 7.91341,30.04424 10.66933,45.29483 z"
       id="path3116"
       style="fill:#000000" />
    <path
       inkscape:connector-curvature="0"
       d="m 175.1974,140.63162 c -4.28658,14.79604 -7.83467,29.84978 -10.56911,44.99299 l 388.90873,388.90873 c 2.73444,-15.14321 6.28253,-30.19695 10.56911,-44.99299 z"
       id="path3118"
       style="fill:#000000" />
    <path
       inkscape:connector-curvature="0"
       d="m 164.62829,185.62461 -30.599,0 388.90873,388.90873 30.599,0 z"
       id="path3120"
       style="fill:#000000" />
    <path
       inkscape:connector-curvature="0"
       d="m 134.02929,185.62461 c 10.28636,-17.83948 24.38924,-33.19624 41.16811,-44.99299 l 388.90873,388.90873 c -16.77887,11.79675 -30.88175,27.15351 -41.16811,44.99299 z"
       id="path3122"
       style="fill:#000000" />
    <path
       inkscape:connector-curvature="0"
       d="m 124.5184,205.75949 36.99606,0 388.90873,388.90873 -36.99606,0 z"
       id="path3124"
       style="fill:#000000" />
    <path
       inkscape:connector-curvature="0"
       d="m 161.51446,205.75949 c -1.78478,13.40257 -2.9635,26.84929 -3.47293,40.26141 l 388.90873,388.90873 c 0.50943,-13.41212 1.68815,-26.85884 3.47293,-40.26141 z"
       id="path3126"
       style="fill:#000000" />
    <path
       inkscape:connector-curvature="0"
       d="m 158.04153,246.0209 -42.37546,0 388.90873,388.90873 42.37546,0 z"
       id="path3128"
       style="fill:#000000" />
    <path
       inkscape:connector-curvature="0"
       d="m 115.66607,246.0209 c 0.98425,-14.09931 4.03962,-27.6188 8.8571,-40.26141 L 513.4319,594.66822 c -4.81748,12.64261 -7.87285,26.1621 -8.8571,40.26141 z"
       id="path3130"
       style="fill:#000000" />
    <path
       inkscape:connector-curvature="0"
       d="m 181.8963,205.75949 64.06607,0 388.90873,388.90873 -64.06607,0 z"
       id="path3132"
       style="fill:#000000" />
    <path
       inkscape:connector-curvature="0"
       d="m 245.96237,205.75949 0,40.26141 388.90873,388.90873 0,-40.26141 z"
       id="path3134"
       style="fill:#000000" />
    <path
       inkscape:connector-curvature="0"
       d="m 245.96237,246.0209 -67.64041,0 388.90873,388.90873 67.64041,0 z"
       id="path3136"
       style="fill:#000000" />
    <path
       inkscape:connector-curvature="0"
       d="m 178.32196,246.0209 c 0.5321,-13.39184 1.7132,-26.86122 3.57315,-40.26141 l 388.90873,388.90873 c -1.85995,13.40019 -3.04105,26.86957 -3.57315,40.26141 z"
       id="path3138"
       style="fill:#000000" />
    <path
       inkscape:connector-curvature="0"
       d="m 266.0877,205.75949 64.01596,0 388.90873,388.90873 -64.01596,0 z"
       id="path3140"
       style="fill:#000000" />
    <path
       inkscape:connector-curvature="0"
       d="m 330.10366,205.75949 c 1.85637,13.40019 3.09474,26.87076 3.62326,40.26141 l 388.90873,388.90873 c -0.52852,-13.39065 -1.76689,-26.86122 -3.62326,-40.26141 z"
       id="path3142"
       style="fill:#000000" />
    <path
       inkscape:connector-curvature="0"
       d="m 333.72692,246.0209 -67.63922,0 388.90873,388.90873 67.63922,0 z"
       id="path3144"
       style="fill:#000000" />
    <path
       inkscape:connector-curvature="0"
       d="m 266.0877,246.0209 0,-40.26141 388.90873,388.90873 0,40.26141 z"
       id="path3146"
       style="fill:#000000" />
    <path
       inkscape:connector-curvature="0"
       d="m 350.48312,205.75949 37.0915,0 388.90873,388.90873 -37.0915,0 z"
       id="path3148"
       style="fill:#000000" />
    <path
       inkscape:connector-curvature="0"
       d="m 387.57462,205.75949 c 4.78408,12.64619 7.7798,26.1621 8.75689,40.26141 l 388.90873,388.90873 c -0.97709,-14.09931 -3.97281,-27.61522 -8.75689,-40.26141 z"
       id="path3150"
       style="fill:#000000" />
    <path
       inkscape:connector-curvature="0"
       d="m 396.33151,246.0209 -42.37546,0 388.90873,388.90873 42.37546,0 z"
       id="path3152"
       style="fill:#000000" />
    <path
       inkscape:connector-curvature="0"
       d="m 353.95605,246.0209 c -0.51301,-13.41212 -1.68577,-26.85884 -3.47293,-40.26141 l 388.90873,388.90873 c 1.78716,13.40257 2.95992,26.84929 3.47293,40.26141 z"
       id="path3154"
       style="fill:#000000" />
    <path
       inkscape:connector-curvature="0"
       d="m 115.65771,266.1522 42.12613,0 388.90873,388.90873 -42.12613,0 z"
       id="path3156"
       style="fill:#000000" />
    <path
       inkscape:connector-curvature="0"
       d="m 157.78384,266.1522 c 0.14913,13.52784 0.93772,26.98291 2.466,40.2614 l 388.90873,388.90873 c -1.52828,-13.27849 -2.31687,-26.73356 -2.466,-40.2614 z"
       id="path3158"
       style="fill:#000000" />
    <path
       inkscape:connector-curvature="0"
       d="m 160.24984,306.4136 -35.68253,0 388.90873,388.90873 35.68253,0 z"
       id="path3160"
       style="fill:#000000" />
    <path
       inkscape:connector-curvature="0"
       d="m 124.56731,306.4136 c -4.81987,-12.63187 -7.90983,-26.1776 -8.9084,-40.2614 l 388.90873,388.90873 c 0.99857,14.0838 4.08853,27.62953 8.9084,40.2614 z"
       id="path3162"
       style="fill:#000000" />
    <path
       inkscape:connector-curvature="0"
       d="m 178.01893,266.1522 67.94225,0 388.90873,388.90873 -67.94225,0 z"
       id="path3164"
       style="fill:#000000" />
    <path
       inkscape:connector-curvature="0"
       d="m 245.96118,266.1522 0,40.2614 388.90873,388.90873 0,-40.2614 z"
       id="path3166"
       style="fill:#000000" />
    <path
       inkscape:connector-curvature="0"
       d="m 245.96118,306.4136 -65.32473,0 388.90873,388.90873 65.32473,0 z"
       id="path3168"
       style="fill:#000000" />
    <path
       inkscape:connector-curvature="0"
       d="m 180.63645,306.4136 c -1.59747,-13.2427 -2.46362,-26.69658 -2.61752,-40.2614 l 388.90873,388.90873 c 0.1539,13.56482 1.02005,27.0187 2.61752,40.2614 z"
       id="path3170"
       style="fill:#000000" />
    <path
       inkscape:connector-curvature="0"
       d="m 266.09128,266.1522 67.89095,0 388.90873,388.90873 -67.89095,0 z"
       id="path3172"
       style="fill:#000000" />
    <path
       inkscape:connector-curvature="0"
       d="m 333.98223,266.1522 c -0.15748,13.56482 -1.01647,27.0187 -2.61753,40.2614 l 388.90873,388.90873 c 1.60106,-13.2427 2.46005,-26.69658 2.61753,-40.2614 z"
       id="path3174"
       style="fill:#000000" />
    <path
       inkscape:connector-curvature="0"
       d="m 331.3647,306.4136 -65.27461,0 388.90873,388.90873 65.27461,0 z"
       id="path3176"
       style="fill:#000000" />
    <path
       inkscape:connector-curvature="0"
       d="m 266.09009,306.4136 0,-40.2614 388.90873,388.90873 0,40.2614 z"
       id="path3178"
       style="fill:#000000" />
    <path
       inkscape:connector-curvature="0"
       d="m 354.26385,266.1522 42.0784,0 388.90873,388.90873 -42.0784,0 z"
       id="path3180"
       style="fill:#000000" />
    <path
       inkscape:connector-curvature="0"
       d="m 396.34225,266.1522 c -0.99022,14.0838 -4.01695,27.63073 -8.807,40.2614 l 388.90873,388.90873 c 4.79005,-12.63067 7.81678,-26.1776 8.807,-40.2614 z"
       id="path3182"
       style="fill:#000000" />
    <path
       inkscape:connector-curvature="0"
       d="m 387.53525,306.4136 -35.78274,0 388.90873,388.90873 35.78274,0 z"
       id="path3184"
       style="fill:#000000" />
    <path
       inkscape:connector-curvature="0"
       d="m 351.75251,306.4136 c 1.52589,-13.27849 2.37056,-26.73475 2.51611,-40.2614 l 388.90873,388.90873 c -0.14555,13.52665 -0.99022,26.98291 -2.51611,40.2614 z"
       id="path3186"
       style="fill:#000000" />
    <path
       inkscape:connector-curvature="0"
       d="m 134.14143,326.54491 29.03851,0 388.90873,388.90873 -29.03851,0 z"
       id="path3188"
       style="fill:#000000" />
    <path
       inkscape:connector-curvature="0"
       d="m 163.17994,326.54491 c 2.56503,14.9213 6.06301,29.54316 10.51781,43.78444 l 388.90873,388.90873 c -4.4548,-14.24128 -7.95278,-28.86314 -10.51781,-43.78444 z"
       id="path3190"
       style="fill:#000000" />
    <path
       inkscape:connector-curvature="0"
       d="m 173.69775,370.32935 c -6.11142,-4.41758 -11.85186,-9.31061 -17.1681,-14.62686 l 388.90873,388.90873 c 5.31624,5.31625 11.05668,10.20928 17.1681,14.62686 z"
       id="path3192"
       style="fill:#000000" />
    <path
       inkscape:connector-curvature="0"
       d="m 156.52965,355.70249 c -8.66926,-8.66925 -16.2105,-18.46394 -22.39299,-29.15758 l 388.90873,388.90873 c 6.18249,10.69364 13.72373,20.48833 22.39299,29.15758 z"
       id="path3194"
       style="fill:#000000" />
    <path
       inkscape:connector-curvature="0"
       d="m 183.65842,326.54491 62.30037,0 388.90873,388.90873 -62.30037,0 z"
       id="path3196"
       style="fill:#000000" />
    <path
       inkscape:connector-curvature="0"
       d="m 245.95879,326.54491 0,70.10641 388.90873,388.90873 0,-70.10641 z"
       id="path3198"
       style="fill:#000000" />
    <path
       inkscape:connector-curvature="0"
       d="m 245.95879,396.65132 c -16.11196,-1.15963 -31.44606,-5.06444 -45.59786,-11.17279 l 388.90873,388.90873 c 14.1518,6.10835 29.4859,10.01316 45.59786,11.17279 z"
       id="path3200"
       style="fill:#000000" />
    <path
       inkscape:connector-curvature="0"
       d="m 200.36093,385.47853 c -7.46364,-18.71039 -13.01007,-38.48736 -16.71444,-58.93601 l 388.90873,388.90873 c 3.70437,20.44865 9.2508,40.22562 16.71444,58.93601 z"
       id="path3202"
       style="fill:#000000" />
    <path
       inkscape:connector-curvature="0"
       d="m 266.08532,326.54252 62.25265,0 388.90873,388.90873 -62.25265,0 z"
       id="path3204"
       style="fill:#000000" />
    <path
       inkscape:connector-curvature="0"
       d="m 328.33797,326.54252 c -3.7175,20.52858 -9.24723,40.40457 -16.76217,59.18535 L 700.48453,774.6366 c 7.51494,-18.78078 13.04467,-38.65677 16.76217,-59.18535 z"
       id="path3206"
       style="fill:#000000" />
    <path
       inkscape:connector-curvature="0"
       d="m 311.5758,385.72787 c -14.10169,6.03916 -29.42028,9.81512 -45.49048,10.92106 l 388.90873,388.90873 c 16.0702,-1.10594 31.38879,-4.8819 45.49048,-10.92106 z"
       id="path3208"
       style="fill:#000000" />
    <path
       inkscape:connector-curvature="0"
       d="m 266.08532,396.64893 0,-70.10641 388.90873,388.90873 0,70.10641 z"
       id="path3210"
       style="fill:#000000" />
    <path
       inkscape:connector-curvature="0"
       d="m 348.87013,326.54252 29.08862,0 388.90873,388.90873 -29.08862,0 z"
       id="path3212"
       style="fill:#000000" />
    <path
       inkscape:connector-curvature="0"
       d="m 377.95875,326.54252 c -9.97379,17.36703 -23.50521,32.37901 -39.65654,44.03617 l 388.90873,388.90873 c 16.15133,-11.65716 29.68275,-26.66914 39.65654,-44.03617 z"
       id="path3214"
       style="fill:#000000" />
    <path
       inkscape:connector-curvature="0"
       d="m 338.30221,370.57869 c 4.49059,-14.31644 7.99215,-29.03016 10.56911,-44.03617 l 388.90873,388.90873 c -2.57696,15.00601 -6.07852,29.71973 -10.56911,44.03617 z"
       id="path3216"
       style="fill:#000000" />
  </g>
  <path
     d="m 256.27498,94.830943 c -25.25659,0 -49.20083,5.887637 -70.50847,16.306427 l -0.8053,-0.30184 c -0.099,0.26843 -0.20401,0.53567 -0.30184,0.8053 -53.0424,26.42576 -89.585117,81.25772 -89.585117,144.39322 0,63.18442 36.626227,117.99133 89.728287,144.39323 0.14316,0.33166 0.25889,0.67526 0.40205,1.00692 l 0.85541,-0.35194 c 21.23486,10.32453 45.06577,16.1048 70.20663,16.1048 25.07763,0 48.82025,-5.72658 69.95966,-16.00459 l 0.60368,0.25173 c 0.10857,-0.24815 0.19447,-0.50585 0.30184,-0.75519 53.21898,-26.30646 89.78794,-81.25773 89.78794,-144.64376 0,-63.33832 -36.5117,-118.31345 -89.68057,-144.64377 -0.068,-0.18372 -0.13362,-0.36984 -0.20162,-0.55356 l -0.55357,0.20162 C 305.28134,100.68159 281.46117,94.834522 256.27736,94.834522 m -10.31738,20.583458 v 70.20663 h -60.74465 c 3.78073,-20.07881 8.97402,-39.92736 15.60492,-59.23546 14.02414,-6.00098 29.20315,-9.82466 45.14331,-10.97117 m 20.1313,0 c 15.90199,1.09402 31.06668,4.79601 45.0431,10.71944 6.66788,19.38804 11.90889,39.3201 15.70156,59.48719 h -60.74466 v -70.20663 m 70.60391,24.9118 c 16.8934,11.83492 31.06667,27.30622 41.36855,45.29483 H 347.3681 c -2.75592,-15.25059 -6.34099,-30.40096 -10.66933,-45.29483 m -161.50137,0.30184 c -4.28658,14.79604 -7.83467,29.84978 -10.56911,44.99299 h -30.599 c 10.28636,-17.83948 24.38924,-33.19624 41.16811,-44.99299 m -50.679,65.12787 h 36.99606 c -1.78478,13.40257 -2.9635,26.84929 -3.47293,40.26141 h -42.37546 c 0.98425,-14.09931 4.03962,-27.6188 8.8571,-40.26141 m 57.37313,0 h 64.06607 v 40.26141 h -67.64041 c 0.5321,-13.39184 1.7132,-26.86122 3.57315,-40.26141 m 84.19259,0 h 64.01596 c 1.85637,13.40019 3.09474,26.87076 3.62326,40.26141 H 266.0877 v -40.26141 m 84.39542,0 h 37.0915 c 4.78408,12.64619 7.7798,26.1621 8.75689,40.26141 h -42.37546 c -0.51301,-13.41212 -1.68577,-26.85884 -3.47293,-40.26141 M 115.65771,266.1522 h 42.12613 c 0.14913,13.52784 0.93772,26.98291 2.466,40.2614 h -35.68253 c -4.81987,-12.63187 -7.90983,-26.1776 -8.9084,-40.2614 m 62.36002,0 h 67.94225 v 40.2614 h -65.32473 c -1.59747,-13.2427 -2.46362,-26.69658 -2.61752,-40.2614 m 88.07235,0 h 67.89095 c -0.15748,13.56482 -1.01647,27.0187 -2.61753,40.2614 h -65.27461 v -40.2614 m 88.17376,0 h 42.0784 c -0.99022,14.0838 -4.01695,27.63073 -8.807,40.2614 h -35.78274 c 1.52589,-13.27849 2.37056,-26.73475 2.51611,-40.2614 m -220.12719,60.39271 h 29.03851 c 2.56503,14.9213 6.06301,29.54316 10.51781,43.78444 -16.07736,-11.62137 -29.58731,-26.53313 -39.56109,-43.78444 m 49.52176,0 h 62.30037 v 70.10641 c -16.11196,-1.15963 -31.44606,-5.06444 -45.59786,-11.17279 -7.46364,-18.71039 -13.01007,-38.48736 -16.71444,-58.93601 m 82.43883,0 h 62.25265 c -3.7175,20.52858 -9.24723,40.40457 -16.76217,59.18535 -14.10169,6.03916 -29.42028,9.81512 -45.49048,10.92106 v -70.10641 m 82.78481,0 h 29.08862 c -9.97379,17.36703 -23.50521,32.37901 -39.65654,44.03617 4.49059,-14.31644 7.99215,-29.03016 10.56911,-44.03617"
     inkscape:connector-curvature="0"
     id="path68"
     style="color:#000000;fill:#ffffff" />
</svg>
