<?xml version="1.0" encoding="UTF-8" standalone="no"?>
<svg
   xmlns:dc="http://purl.org/dc/elements/1.1/"
   xmlns:cc="http://creativecommons.org/ns#"
   xmlns:rdf="http://www.w3.org/1999/02/22-rdf-syntax-ns#"
   xmlns:svg="http://www.w3.org/2000/svg"
   xmlns="http://www.w3.org/2000/svg"
   xmlns:xlink="http://www.w3.org/1999/xlink"
   xmlns:sodipodi="http://sodipodi.sourceforge.net/DTD/sodipodi-0.dtd"
   xmlns:inkscape="http://www.inkscape.org/namespaces/inkscape"
   sodipodi:docname="preferences-tweaks-cerbere.svg"
   height="100%"
   width="100%"
   inkscape:version="0.48.5 r10040"
   version="1.1"
   id="svg2"
   viewBox="0 0 512 512">
  <sodipodi:namedview
     pagecolor="#ffffff"
     bordercolor="#666666"
     borderopacity="1"
     objecttolerance="10"
     gridtolerance="10"
     guidetolerance="10"
     inkscape:pageopacity="0"
     inkscape:pageshadow="2"
     inkscape:window-width="1306"
     inkscape:window-height="706"
     id="namedview66"
     showgrid="false"
     inkscape:zoom="0.4609375"
     inkscape:cx="165.17656"
     inkscape:cy="173.26419"
     inkscape:window-x="56"
     inkscape:window-y="26"
     inkscape:window-maximized="1"
     inkscape:current-layer="svg2" />
  <metadata
     id="metadata70">
    <rdf:RDF>
      <cc:Work
         rdf:about="">
        <dc:format>image/svg+xml</dc:format>
        <dc:type
           rdf:resource="http://purl.org/dc/dcmitype/StillImage" />
        <dc:title />
      </cc:Work>
    </rdf:RDF>
  </metadata>
  <defs
     id="defs68">
    <linearGradient
       inkscape:collect="always"
       xlink:href="#linearGradient3850"
       id="linearGradient3834"
       gradientUnits="userSpaceOnUse"
       gradientTransform="matrix(1.0144092,0,0,1.0144092,0.01729132,1027.7306)"
       x1="14.123719"
       y1="5.0480494"
       x2="18.938709"
       y2="11.007048" />
    <linearGradient
       inkscape:collect="always"
       xlink:href="#linearGradient3862"
       id="linearGradient3832"
       gradientUnits="userSpaceOnUse"
       gradientTransform="matrix(1.0144092,0,0,1.0144092,0.01729132,1027.7306)"
       x1="15.162443"
       y1="4.0093255"
       x2="23.148277"
       y2="10.843039" />
    <radialGradient
       inkscape:collect="always"
       xlink:href="#linearGradient3821"
       id="radialGradient3830"
       gradientUnits="userSpaceOnUse"
       gradientTransform="matrix(-1.995182,0,0,-1.1882781,32.677187,2260.9765)"
       cx="10.851937"
       cy="1033.5725"
       fx="10.851937"
       fy="1033.5725"
       r="8.0937504" />
    <radialGradient
       inkscape:collect="always"
       xlink:href="#linearGradient3842"
       id="radialGradient3828"
       gradientUnits="userSpaceOnUse"
       gradientTransform="matrix(-1.9829118,0,0,-1.3523537,32.425719,1035.9668)"
       cx="10.8684"
       cy="4.3122196"
       fx="10.8684"
       fy="4.3122196"
       r="9.734375" />
    <radialGradient
       inkscape:collect="always"
       xlink:href="#linearGradient3842"
       id="radialGradient3817"
       gradientUnits="userSpaceOnUse"
       gradientTransform="matrix(-1.9829118,0,0,-1.3523537,32.425719,1035.9668)"
       cx="10.8684"
       cy="4.3122196"
       fx="10.8684"
       fy="4.3122196"
       r="9.734375" />
    <radialGradient
       inkscape:collect="always"
       xlink:href="#linearGradient3821"
       id="radialGradient3814"
       gradientUnits="userSpaceOnUse"
       gradientTransform="matrix(-1.995182,0,0,-1.1882781,32.677187,2260.9765)"
       cx="10.851937"
       cy="1033.5725"
       fx="10.851937"
       fy="1033.5725"
       r="8.0937504" />
    <linearGradient
       inkscape:collect="always"
       xlink:href="#linearGradient3850"
       id="linearGradient3810"
       gradientUnits="userSpaceOnUse"
       x1="14.123719"
       y1="5.0480494"
       x2="18.938709"
       y2="11.007048"
       gradientTransform="matrix(1.0144092,0,0,1.0144092,0.01729132,1027.7306)" />
    <linearGradient
       inkscape:collect="always"
       xlink:href="#linearGradient3862"
       id="linearGradient3808"
       gradientUnits="userSpaceOnUse"
       x1="15.162443"
       y1="4.0093255"
       x2="23.148277"
       y2="10.843039"
       gradientTransform="matrix(1.0144092,0,0,1.0144092,0.01729132,1027.7306)" />
    <linearGradient
       inkscape:collect="always"
       xlink:href="#linearGradient3850"
       id="linearGradient3805"
       gradientUnits="userSpaceOnUse"
       x1="14.123719"
       y1="5.0480494"
       x2="18.938709"
       y2="11.007048" />
    <linearGradient
       inkscape:collect="always"
       xlink:href="#linearGradient3862"
       id="linearGradient3803"
       gradientUnits="userSpaceOnUse"
       x1="15.162443"
       y1="4.0093255"
       x2="23.148277"
       y2="10.843039" />
    <radialGradient
       inkscape:collect="always"
       xlink:href="#linearGradient3821"
       id="radialGradient3800"
       gradientUnits="userSpaceOnUse"
       gradientTransform="matrix(-1.9668414,0,0,-1.1713992,32.195977,1215.7282)"
       cx="10.851937"
       cy="1033.5725"
       fx="10.851937"
       fy="1033.5725"
       r="8.0937504" />
    <radialGradient
       inkscape:collect="always"
       xlink:href="#linearGradient3842"
       id="radialGradient3798"
       gradientUnits="userSpaceOnUse"
       gradientTransform="matrix(-1.9547455,0,0,-1.3331442,31.948081,8.1191832)"
       cx="10.8684"
       cy="4.3122196"
       fx="10.8684"
       fy="4.3122196"
       r="9.734375" />
    <linearGradient
       inkscape:collect="always"
       xlink:href="#linearGradient3850"
       id="linearGradient3933"
       gradientUnits="userSpaceOnUse"
       x1="14.123719"
       y1="5.0480494"
       x2="18.938709"
       y2="11.007048" />
    <linearGradient
       inkscape:collect="always"
       xlink:href="#linearGradient3862"
       id="linearGradient3931"
       gradientUnits="userSpaceOnUse"
       x1="15.162443"
       y1="4.0093255"
       x2="23.148277"
       y2="10.843039" />
    <radialGradient
       inkscape:collect="always"
       xlink:href="#linearGradient3821"
       id="radialGradient3929"
       gradientUnits="userSpaceOnUse"
       gradientTransform="matrix(-1.9668414,0,0,-1.1713992,32.195977,1215.7282)"
       cx="10.851937"
       cy="1033.5725"
       fx="10.851937"
       fy="1033.5725"
       r="8.0937504" />
    <radialGradient
       inkscape:collect="always"
       xlink:href="#linearGradient3842"
       id="radialGradient3927"
       gradientUnits="userSpaceOnUse"
       gradientTransform="matrix(-1.9547455,0,0,-1.3331442,31.948081,8.1191832)"
       cx="10.8684"
       cy="4.3122196"
       fx="10.8684"
       fy="4.3122196"
       r="9.734375" />
    <radialGradient
       inkscape:collect="always"
       xlink:href="#linearGradient3909"
       id="radialGradient3925"
       gradientUnits="userSpaceOnUse"
       gradientTransform="matrix(1,0,0,0.15831664,0,17.51608)"
       cx="11.345922"
       cy="20.810772"
       fx="11.345922"
       fy="20.810772"
       r="9.6450005" />
    <radialGradient
       inkscape:collect="always"
       xlink:href="#linearGradient3909"
       id="radialGradient3915"
       cx="11.345922"
       cy="20.810772"
       fx="11.345922"
       fy="20.810772"
       r="9.6450005"
       gradientTransform="matrix(1,0,0,0.15831664,0,17.51608)"
       gradientUnits="userSpaceOnUse" />
    <linearGradient
       inkscape:collect="always"
       xlink:href="#linearGradient3850"
       id="linearGradient3886"
       gradientUnits="userSpaceOnUse"
       x1="14.123719"
       y1="5.0480494"
       x2="18.938709"
       y2="11.007048" />
    <linearGradient
       inkscape:collect="always"
       xlink:href="#linearGradient3862"
       id="linearGradient3884"
       gradientUnits="userSpaceOnUse"
       x1="15.162443"
       y1="4.0093255"
       x2="23.148277"
       y2="10.843039" />
    <radialGradient
       inkscape:collect="always"
       xlink:href="#linearGradient3821"
       id="radialGradient3882"
       gradientUnits="userSpaceOnUse"
       gradientTransform="matrix(-1.9668414,0,0,-1.1713992,32.195977,1215.7282)"
       cx="10.851937"
       cy="1033.5725"
       fx="10.851937"
       fy="1033.5725"
       r="8.0937504" />
    <radialGradient
       inkscape:collect="always"
       xlink:href="#linearGradient3842"
       id="radialGradient3880"
       gradientUnits="userSpaceOnUse"
       gradientTransform="matrix(-1.9547455,0,0,-1.3331442,31.948081,8.1191832)"
       cx="10.8684"
       cy="4.3122196"
       fx="10.8684"
       fy="4.3122196"
       r="9.734375" />
    <linearGradient
       id="linearGradient3792">
      <stop
         style="stop-color:#800080;stop-opacity:1;"
         offset="0"
         id="stop3794" />
      <stop
         id="stop3800"
         offset="0.73735327"
         style="stop-color:#800080;stop-opacity:1;" />
      <stop
         style="stop-color:#800080;stop-opacity:0;"
         offset="1"
         id="stop3796" />
    </linearGradient>
    <linearGradient
       id="linearGradient3802">
      <stop
         style="stop-color:#ff00ff;stop-opacity:1;"
         offset="0"
         id="stop3804" />
      <stop
         id="stop3810"
         offset="0.6998378"
         style="stop-color:#ff00ff;stop-opacity:1;" />
      <stop
         style="stop-color:#ff00ff;stop-opacity:0"
         offset="1"
         id="stop3806" />
    </linearGradient>
    <linearGradient
       id="linearGradient3821">
      <stop
         style="stop-color:#e1e1e1;stop-opacity:1;"
         offset="0"
         id="stop3823" />
      <stop
         style="stop-color:#969696;stop-opacity:1;"
         offset="1"
         id="stop3825" />
    </linearGradient>
    <linearGradient
       id="linearGradient3842">
      <stop
         style="stop-color:#df91ff;stop-opacity:1;"
         offset="0"
         id="stop3844" />
      <stop
         style="stop-color:#c12dff;stop-opacity:1;"
         offset="1"
         id="stop3846" />
    </linearGradient>
    <linearGradient
       id="linearGradient3850">
      <stop
         style="stop-color:#8c00c8;stop-opacity:0;"
         offset="0"
         id="stop3852" />
      <stop
         id="stop3858"
         offset="0.03677667"
         style="stop-color:#8c00c8;stop-opacity:1;" />
      <stop
         style="stop-color:#8c00c8;stop-opacity:1;"
         offset="1"
         id="stop3854" />
    </linearGradient>
    <linearGradient
       id="linearGradient3862">
      <stop
         style="stop-color:#d775ff;stop-opacity:0;"
         offset="0"
         id="stop3864" />
      <stop
         id="stop3870"
         offset="0.0585856"
         style="stop-color:#d775ff;stop-opacity:1;" />
      <stop
         style="stop-color:#c12dff;stop-opacity:1;"
         offset="1"
         id="stop3866" />
    </linearGradient>
    <linearGradient
       inkscape:collect="always"
       id="linearGradient3909">
      <stop
         style="stop-color:#000000;stop-opacity:1;"
         offset="0"
         id="stop3911" />
      <stop
         style="stop-color:#000000;stop-opacity:0;"
         offset="1"
         id="stop3913" />
    </linearGradient>
    <clipPath
       clipPathUnits="userSpaceOnUse"
       id="clipPath4954">
      <path
         d="m 471.9456,253.05189 c 0,120.89699 -98.00565,218.90724 -218.90724,218.90724 -120.89698,0 -218.90723,-98.00566 -218.90723,-218.90724 0,-120.89698 98.00565,-218.907232 218.90723,-218.907232 120.89699,0 218.90724,98.005652 218.90724,218.907232"
         id="path4956"
         inkscape:connector-curvature="0"
         style="fill:#8a1cb9;fill-opacity:1;fill-rule:evenodd" />
    </clipPath>
  </defs>
  <path
     style="fill:#8a1cb9;fill-rule:evenodd;fill-opacity:1"
     inkscape:connector-curvature="0"
     id="path8"
     d="m 471.9456,253.05189 c 0,120.89699 -98.00565,218.90724 -218.90724,218.90724 -120.89698,0 -218.90723,-98.00566 -218.90723,-218.90724 0,-120.89698 98.00565,-218.907232 218.90723,-218.907232 120.89699,0 218.90724,98.005652 218.90724,218.907232" />
  <path
     style="fill-opacity:0.06700003;fill-rule:evenodd"
     inkscape:connector-curvature="0"
     id="path10"
     d="M 256,1 C 115.17,1 1,115.17 1,256 1,396.83 115.17,511 256,511 396.83,511 511,396.83 511,256 511,115.17 396.83,1 256,1 m 8.827,44.931 c 120.9,0 218.9,98 218.9,218.9 0,120.9 -98,218.9 -218.9,218.9 -120.9,0 -218.93,-98 -218.93,-218.9 0,-120.9 98.03,-218.9 218.93,-218.9" />
  <path
     d="M 256,4.43 C 117.06,4.43 4.43,117.06 4.43,256 4.43,394.94 117.06,507.57 256,507.57 394.94,507.57 507.57,394.94 507.57,256 507.57,117.06 394.94,4.43 256,4.43 m 5.885,38.556 c 120.9,0 218.9,98 218.9,218.9 0,120.9 -98,218.9 -218.9,218.9 -120.9,0 -218.93,-98 -218.93,-218.9 0,-120.9 98.03,-218.9 218.93,-218.9"
     id="path14"
     inkscape:connector-curvature="0"
     style="fill-opacity:0.12900002;fill-rule:evenodd" />
  <path
     d="M 256,8.36 C 119.23,8.36 8.36,119.23 8.36,256 8.36,392.77 119.23,503.64 256,503.64 392.77,503.64 503.64,392.77 503.64,256 503.64,119.23 392.77,8.36 256,8.36 m 2.942,31.691 c 120.9,0 218.9,98 218.9,218.9 0,120.9 -98,218.9 -218.9,218.9 -120.9,0 -218.93,-98 -218.93,-218.9 0,-120.9 98.03,-218.9 218.93,-218.9"
     id="path16"
     inkscape:connector-curvature="0"
     style="fill-opacity:0.12900002;fill-rule:evenodd" />
  <path
     style="fill:#ffffff;fill-rule:evenodd;stroke:#000000;stroke-width:4.90399981;stroke-opacity:0.31000001"
     inkscape:connector-curvature="0"
     id="path18"
     d="M 253.04,7.86 C 117.62,7.86 7.85,117.64 7.85,253.05 c 0,135.42 109.78,245.19 245.19,245.19 135.42,0 245.19,-109.78 245.19,-245.19 C 498.23,117.63 388.45,7.86 253.04,7.86 z m 0,26.297 c 120.9,0 218.9,98 218.9,218.9 0,120.9 -98,218.9 -218.9,218.9 -120.9,0 -218.93,-98 -218.93,-218.9 0,-120.9 98.03,-218.9 218.93,-218.9 z" />
  <text
     font-size="129.23"
     letter-spacing="0"
     line-height="125%"
     word-spacing="0"
     x="729.64001"
     y="231.35997"
     id="text20"
     sodipodi:linespacing="125%"
     style="font-size:129.22999573px;line-height:125%;letter-spacing:0;word-spacing:0;font-family:Gentium Book Basic">
    <tspan
       x="729.64001"
       y="231.35997"
       id="tspan22" />
  </text>
  <text
     x="378.90805"
     y="579.25812"
     font-size="46.954"
     transform="scale(4.0128205,0.24920128)"
     id="text24"
     style="font-size:46.95375824px;text-anchor:middle;font-family:Arial" />
  <text
     font-size="129.23"
     letter-spacing="0"
     line-height="125%"
     word-spacing="0"
     x="1310.91"
     y="151.35997"
     id="text26"
     sodipodi:linespacing="125%"
     style="font-size:129.22999573px;line-height:125%;letter-spacing:0;word-spacing:0;font-family:Gentium Book Basic">
    <tspan
       x="1310.91"
       y="151.35997"
       id="tspan28" />
  </text>
  <text
     x="523.75732"
     y="258.21997"
     font-size="46.954"
     transform="scale(4.0128205,0.24920128)"
     id="text30"
     style="font-size:46.95375824px;text-anchor:middle;font-family:Arial" />
  <text
     font-size="129.23"
     letter-spacing="0"
     line-height="125%"
     word-spacing="0"
     x="239.33"
     y="-29.900009"
     id="text32"
     sodipodi:linespacing="125%"
     style="font-size:129.22999573px;line-height:125%;letter-spacing:0;word-spacing:0;font-family:Gentium Book Basic">
    <tspan
       x="239.33"
       y="-29.900009"
       id="tspan34" />
  </text>
  <text
     x="256.71869"
     y="-469.1264"
     font-size="46.954"
     transform="scale(4.0128205,0.24920128)"
     id="text36"
     style="font-size:46.95375824px;text-anchor:middle;font-family:Arial" />
  <text
     font-size="129.23"
     letter-spacing="0"
     line-height="125%"
     word-spacing="0"
     x="1337.38"
     y="-246.37001"
     id="text38"
     sodipodi:linespacing="125%"
     style="font-size:129.22999573px;line-height:125%;letter-spacing:0;word-spacing:0;font-family:Gentium Book Basic">
    <tspan
       x="1337.38"
       y="-246.37001"
       id="tspan40" />
  </text>
  <text
     x="530.3573"
     y="-1337.802"
     font-size="46.954"
     transform="scale(4.0128205,0.24920128)"
     id="text42"
     style="font-size:46.95375824px;text-anchor:middle;font-family:Arial" />
  <text
     font-size="129.23"
     letter-spacing="0"
     line-height="125%"
     word-spacing="0"
     x="1918.65"
     y="-326.37"
     id="text44"
     sodipodi:linespacing="125%"
     style="font-size:129.22999573px;line-height:125%;letter-spacing:0;word-spacing:0;font-family:Gentium Book Basic">
    <tspan
       x="1918.65"
       y="-326.37"
       id="tspan46" />
  </text>
  <text
     x="675.20654"
     y="-1658.8303"
     font-size="46.954"
     transform="scale(4.0128205,0.24920128)"
     id="text48"
     style="font-size:46.95375824px;text-anchor:middle;font-family:Arial" />
  <text
     font-size="129.23"
     letter-spacing="0"
     line-height="125%"
     word-spacing="0"
     x="1529.53"
     y="-798.77002"
     id="text50"
     sodipodi:linespacing="125%"
     style="font-size:129.22999573px;line-height:125%;letter-spacing:0;word-spacing:0;font-family:Gentium Book Basic">
    <tspan
       x="1529.53"
       y="-798.77002"
       id="tspan52" />
  </text>
  <text
     x="578.237"
     y="-3554.4807"
     font-size="46.954"
     transform="scale(4.0128205,0.24920128)"
     id="text54"
     style="font-size:46.95375824px;text-anchor:middle;font-family:Arial" />
  <text
     font-size="129.23"
     letter-spacing="0"
     line-height="125%"
     word-spacing="0"
     x="2110.79"
     y="-878.78003"
     id="text56"
     sodipodi:linespacing="125%"
     style="font-size:129.22999573px;line-height:125%;letter-spacing:0;word-spacing:0;font-family:Gentium Book Basic">
    <tspan
       x="2110.79"
       y="-878.78003"
       id="tspan58" />
  </text>
  <text
     x="723.0863"
     y="-3875.519"
     font-size="46.954"
     transform="scale(4.0128205,0.24920128)"
     id="text60"
     style="font-size:46.95375824px;text-anchor:middle;font-family:Arial" />
  <text
     font-size="208.33"
     letter-spacing="0"
     line-height="125%"
     word-spacing="0"
     x="277.98999"
     y="535.94006"
     id="text62"
     sodipodi:linespacing="125%"
     style="font-size:208.33000183px;line-height:125%;letter-spacing:0;word-spacing:0;font-family:Gentium Book Basic">
    <tspan
       x="277.98999"
       y="535.94006"
       id="tspan64" />
  </text>
  <g
     style="font-size:medium;font-style:normal;font-variant:normal;font-weight:normal;font-stretch:normal;text-indent:0;text-align:start;text-decoration:none;line-height:normal;letter-spacing:normal;word-spacing:normal;text-transform:none;direction:ltr;block-progression:tb;writing-mode:lr-tb;text-anchor:start;baseline-shift:baseline;color:#000000;fill:#000000;fill-opacity:1;fill-rule:nonzero;stroke:none;stroke-width:15.94080353000000017;marker:none;visibility:visible;display:inline;overflow:visible;enable-background:accumulate;font-family:Sans;-inkscape-font-specification:Sans;opacity:0.25"
     id="g4463"
     clip-path="url(#clipPath4954)">
    <path
       inkscape:connector-curvature="0"
       d="M 241.84655,100.62344 C 156.18808,100.62344 86.469998,170.34185 86.469998,256 L 475.37873,644.90873 c 0,-85.65815 69.71808,-155.37656 155.37655,-155.37656 z"
       id="path4465"
       style="fill:#000000" />
    <path
       inkscape:connector-curvature="0"
       d="m 86.469998,256 c 0,42.82965 17.429422,81.67366 45.566092,109.81033 L 520.94482,754.71906 C 492.80815,726.58239 475.37873,687.73838 475.37873,644.90873 z"
       id="path4467"
       style="fill:#000000" />
    <path
       inkscape:connector-curvature="0"
       d="m 132.03609,365.81033 c 28.13686,28.13687 66.98112,45.56623 109.81046,45.56623 l 388.90873,388.90873 c -42.82934,0 -81.6736,-17.42936 -109.81046,-45.56623 z"
       id="path4469"
       style="fill:#000000" />
    <path
       inkscape:connector-curvature="0"
       d="m 241.84655,411.37656 c 29.1927,0 56.61806,-8.24464 79.94098,-22.26017 l 388.90873,388.90873 c -23.32292,14.01553 -50.74828,22.26017 -79.94098,22.26017 z"
       id="path4471"
       style="fill:#000000" />
    <path
       inkscape:connector-curvature="0"
       d="m 321.78753,389.11639 7.14341,-4.2979 388.90873,388.90873 -7.14341,4.2979 z"
       id="path4473"
       style="fill:#000000" />
    <path
       inkscape:connector-curvature="0"
       d="m 328.93094,384.81849 -4.95,-6.6988 388.90873,388.90873 4.95,6.6988 z"
       id="path4475"
       style="fill:#000000" />
    <path
       inkscape:connector-curvature="0"
       d="m 323.98094,378.11969 -23.594,-31.77483 388.90873,388.90873 23.594,31.77483 z"
       id="path4477"
       style="fill:#000000" />
    <path
       inkscape:connector-curvature="0"
       d="m 300.38694,346.34486 -3.94221,-5.30569 388.90873,388.90873 3.94221,5.30569 z"
       id="path4479"
       style="fill:#000000" />
    <path
       inkscape:connector-curvature="0"
       d="m 296.44473,341.03917 -5.77994,3.2012 388.90873,388.90873 5.77994,-3.2012 z"
       id="path4481"
       style="fill:#000000" />
    <path
       inkscape:connector-curvature="0"
       d="m 290.66479,344.24037 c -6.59635,3.6321 -13.69297,6.56828 -21.13382,8.68473 L 658.4397,741.83383 c 7.44085,-2.11645 14.53747,-5.05263 21.13382,-8.68473 z"
       id="path4483"
       style="fill:#000000" />
    <path
       inkscape:connector-curvature="0"
       d="m 269.53097,352.9251 -5.2464,1.48203 388.90873,388.90873 5.2464,-1.48203 z"
       id="path4485"
       style="fill:#000000" />
    <path
       inkscape:connector-curvature="0"
       d="m 264.28457,354.40713 -0.23713,5.45389 388.90873,388.90873 0.23713,-5.45389 z"
       id="path4487"
       style="fill:#000000" />
    <path
       inkscape:connector-curvature="0"
       d="m 264.04744,359.86102 -0.1482,3.26048 388.90873,388.90873 0.1482,-3.26048 z"
       id="path4489"
       style="fill:#000000" />
    <path
       inkscape:connector-curvature="0"
       d="m 263.89924,363.1215 c -8.12384,1.81946 -16.66982,2.78622 -25.43173,2.78622 l 388.90873,388.90873 c 8.76191,0 17.30789,-0.96676 25.43173,-2.78622 z"
       id="path4491"
       style="fill:#000000" />
    <path
       inkscape:connector-curvature="0"
       d="m 238.46751,365.90772 c -8.86346,0 -17.50905,-0.98393 -25.72813,-2.8455 l 388.90873,388.90873 c 8.21908,1.86157 16.86467,2.8455 25.72813,2.8455 z"
       id="path4493"
       style="fill:#000000" />
    <path
       inkscape:connector-curvature="0"
       d="m 212.73938,363.06222 -0.53353,-5.92814 388.90873,388.90873 0.53353,5.92814 z"
       id="path4495"
       style="fill:#000000" />
    <path
       inkscape:connector-curvature="0"
       d="m 212.20585,357.13408 -0.44461,-4.77216 388.90873,388.90873 0.44461,4.77216 z"
       id="path4497"
       style="fill:#000000" />
    <path
       inkscape:connector-curvature="0"
       d="m 211.76124,352.36192 -4.50538,-1.65988 388.90873,388.90873 4.50538,1.65988 z"
       id="path4499"
       style="fill:#000000" />
    <path
       inkscape:connector-curvature="0"
       d="m 207.25586,350.70204 c -13.46771,-4.90473 -25.5801,-12.58834 -35.65777,-22.37873 l 388.90873,388.90873 c 10.07767,9.79039 22.19006,17.474 35.65777,22.37873 z"
       id="path4501"
       style="fill:#000000" />
    <path
       inkscape:connector-curvature="0"
       d="m 171.59809,328.32331 -3.64581,-3.55688 388.90873,388.90873 3.64581,3.55688 z"
       id="path4503"
       style="fill:#000000" />
    <path
       inkscape:connector-curvature="0"
       d="m 167.95228,324.76643 -4.68323,2.07485 388.90873,388.90873 4.68323,-2.07485 z"
       id="path4505"
       style="fill:#000000" />
    <path
       inkscape:connector-curvature="0"
       d="m 163.26905,326.84128 -7.73622,3.40868 388.90873,388.90873 7.73622,-3.40868 z"
       id="path4507"
       style="fill:#000000" />
    <path
       inkscape:connector-curvature="0"
       d="m 155.53283,330.24996 c -11.56687,-12.42323 -20.11602,-27.51139 -25.19459,-44.31285 l 388.90873,388.90873 c 5.07857,16.80146 13.62772,31.88962 25.19459,44.31285 z"
       id="path4509"
       style="fill:#000000" />
    <path
       inkscape:connector-curvature="0"
       d="m 130.33824,285.93711 8.62544,-5.2464 388.90873,388.90873 -8.62544,5.2464 z"
       id="path4511"
       style="fill:#000000" />
    <path
       inkscape:connector-curvature="0"
       d="m 138.96368,280.69071 4.35718,-2.66767 388.90873,388.90873 -4.35718,2.66767 z"
       id="path4513"
       style="fill:#000000" />
    <path
       inkscape:connector-curvature="0"
       d="m 143.32086,278.02304 -0.85958,-5.03892 388.90873,388.90873 0.85958,5.03892 z"
       id="path4515"
       style="fill:#000000" />
    <path
       inkscape:connector-curvature="0"
       d="M 142.46128,272.98412 C 141.53236,267.47977 141.06817,261.7989 141.06817,256 L 529.9769,644.90873 c 0,5.7989 0.46419,11.47977 1.39311,16.98412 z"
       id="path4517"
       style="fill:#000000" />
    <path
       inkscape:connector-curvature="0"
       d="m 141.06817,256 c 0,-7.79904 0.86629,-15.3417 2.51946,-22.58622 l 388.90873,388.90873 c -1.65317,7.24452 -2.51946,14.78718 -2.51946,22.58622 z"
       id="path4519"
       style="fill:#000000" />
    <path
       inkscape:connector-curvature="0"
       d="m 143.58763,233.41378 1.21527,-5.30568 388.90873,388.90873 -1.21527,5.30568 z"
       id="path4521"
       style="fill:#000000" />
    <path
       inkscape:connector-curvature="0"
       d="m 144.8029,228.1081 -4.68324,-2.84551 388.90873,388.90873 4.68324,2.84551 z"
       id="path4523"
       style="fill:#000000" />
    <path
       inkscape:connector-curvature="0"
       d="m 140.11966,225.26259 -9.78142,-5.95778 388.90873,388.90873 9.78142,5.95778 z"
       id="path4525"
       style="fill:#000000" />
    <path
       inkscape:connector-curvature="0"
       d="m 130.33824,219.30481 c 5.05142,-16.71078 13.54383,-31.72005 25.01675,-44.10536 l 388.90873,388.90873 c -11.47292,12.38531 -19.96533,27.39458 -25.01675,44.10536 z"
       id="path4527"
       style="fill:#000000" />
    <path
       inkscape:connector-curvature="0"
       d="m 155.35499,175.19945 11.82664,5.92814 388.90873,388.90873 -11.82664,-5.92814 z"
       id="path4529"
       style="fill:#000000" />
    <path
       inkscape:connector-curvature="0"
       d="m 167.18163,181.12759 4.53502,2.28233 388.90873,388.90873 -4.53502,-2.28233 z"
       id="path4531"
       style="fill:#000000" />
    <path
       inkscape:connector-curvature="0"
       d="m 171.71665,183.40992 3.82365,-3.3494 388.90873,388.90873 -3.82365,3.3494 z"
       id="path4533"
       style="fill:#000000" />
    <path
       inkscape:connector-curvature="0"
       d="m 175.5403,180.06052 c 9.28155,-8.10984 20.03729,-14.54166 31.83412,-18.82185 L 596.28315,550.1474 c -11.79683,4.28019 -22.55257,10.71201 -31.83412,18.82185 z"
       id="path4535"
       style="fill:#000000" />
    <path
       inkscape:connector-curvature="0"
       d="m 207.37442,161.23867 4.71287,-1.71916 388.90873,388.90873 -4.71287,1.71916 z"
       id="path4537"
       style="fill:#000000" />
    <path
       inkscape:connector-curvature="0"
       d="m 212.08729,159.51951 0.26677,-5.00927 388.90873,388.90873 -0.26677,5.00927 z"
       id="path4539"
       style="fill:#000000" />
    <path
       inkscape:connector-curvature="0"
       d="m 212.35406,154.51024 0.62245,-12.38982 388.90873,388.90873 -0.62245,12.38982 z"
       id="path4541"
       style="fill:#000000" />
    <path
       inkscape:connector-curvature="0"
       d="m 212.97651,142.12042 c 8.14067,-1.82795 16.70877,-2.78622 25.491,-2.78622 l 388.90873,388.90873 c -8.78223,0 -17.35033,0.95827 -25.491,2.78622 z"
       id="path4543"
       style="fill:#000000" />
    <path
       inkscape:connector-curvature="0"
       d="m 238.46751,139.3342 c 9.14604,0 18.04998,1.07066 26.49879,3.05299 l 388.90873,388.90873 c -8.44881,-1.98233 -17.35275,-3.05299 -26.49879,-3.05299 z"
       id="path4545"
       style="fill:#000000" />
    <path
       inkscape:connector-curvature="0"
       d="m 264.9663,142.38719 3.67545,15.05747 388.90873,388.90873 -3.67545,-15.05747 z"
       id="path4547"
       style="fill:#000000" />
    <path
       inkscape:connector-curvature="0"
       d="m 268.64175,157.44466 0.88922,3.61617 388.90873,388.90873 -0.88922,-3.61617 z"
       id="path4549"
       style="fill:#000000" />
    <path
       inkscape:connector-curvature="0"
       d="m 269.53097,161.06083 0.0296,0 388.90873,388.90873 -0.0296,0 z"
       id="path4551"
       style="fill:#000000" />
    <path
       inkscape:connector-curvature="0"
       d="m 269.56057,161.06083 0.0889,0.38533 388.90873,388.90873 -0.0889,-0.38533 z"
       id="path4553"
       style="fill:#000000" />
    <path
       inkscape:connector-curvature="0"
       d="m 269.64947,161.44616 1.03742,4.35718 388.90873,388.90873 -1.03742,-4.35718 z"
       id="path4555"
       style="fill:#000000" />
    <path
       inkscape:connector-curvature="0"
       d="m 270.68689,165.80334 4.32755,1.18563 388.90873,388.90873 -4.32755,-1.18563 z"
       id="path4557"
       style="fill:#000000" />
    <path
       inkscape:connector-curvature="0"
       d="m 275.01444,166.98897 c 1.96088,0.53269 4.6678,1.46851 7.70658,2.66766 l 388.90873,388.90873 c -3.03878,-1.19915 -5.7457,-2.13497 -7.70658,-2.66766 z"
       id="path4559"
       style="fill:#000000" />
    <path
       inkscape:connector-curvature="0"
       d="m 282.72102,169.65663 0.71138,0.29641 388.90873,388.90873 -0.71138,-0.29641 z"
       id="path4561"
       style="fill:#000000" />
    <path
       inkscape:connector-curvature="0"
       d="m 283.4324,169.95304 0.74101,0.11856 388.90873,388.90873 -0.74101,-0.11856 z"
       id="path4563"
       style="fill:#000000" />
    <path
       inkscape:connector-curvature="0"
       d="m 284.17341,170.0716 c 0.12662,0.0228 0.11874,0.01 0.23713,0.0296 l 388.90873,388.90873 c -0.11839,-0.0196 -0.11051,-0.007 -0.23713,-0.0296 z"
       id="path4565"
       style="fill:#000000" />
    <path
       inkscape:connector-curvature="0"
       d="m 284.41054,170.1012 c 2.6943,1.23133 5.32764,2.48695 7.88443,3.76437 L 681.2037,562.7743 c -2.55679,-1.27742 -5.19013,-2.53304 -7.88443,-3.76437 z"
       id="path4567"
       style="fill:#000000" />
    <path
       inkscape:connector-curvature="0"
       d="m 292.29497,173.86557 0.0296,0.0296 388.90873,388.90873 -0.0296,-0.0296 z"
       id="path4569"
       style="fill:#000000" />
    <path
       inkscape:connector-curvature="0"
       d="m 292.32457,173.89517 0.0296,0 388.90873,388.90873 -0.0296,0 z"
       id="path4571"
       style="fill:#000000" />
    <path
       inkscape:connector-curvature="0"
       d="m 292.35417,173.89517 c 0.50463,0.24641 1.03406,0.52964 1.63024,0.82994 l 388.90873,388.90873 c -0.59618,-0.3003 -1.12561,-0.58353 -1.63024,-0.82994 z"
       id="path4573"
       style="fill:#000000" />
    <path
       inkscape:connector-curvature="0"
       d="m 293.98441,174.72511 c 9.83962,4.95618 20.15458,12.09878 26.50394,18.44814 l 388.90873,388.90873 c -6.34936,-6.34936 -16.66432,-13.49196 -26.50394,-18.44814 z"
       id="path4575"
       style="fill:#000000" />
    <path
       inkscape:connector-curvature="0"
       d="m 320.48835,193.17325 c 2.6341,2.6341 4.58569,5.13169 5.53766,7.27999 l 388.90873,388.90873 c -0.95197,-2.1483 -2.90356,-4.64589 -5.53766,-7.27999 z"
       id="path4577"
       style="fill:#000000" />
    <path
       inkscape:connector-curvature="0"
       d="m 326.02601,200.45324 10.90778,-4.06078 388.90873,388.90873 -10.90778,4.06078 z"
       id="path4579"
       style="fill:#000000" />
    <path
       inkscape:connector-curvature="0"
       d="m 336.93379,196.39246 c 4.32617,7.77525 7.75975,16.14539 10.25568,24.95747 L 736.0982,610.25866 c -2.49593,-8.81208 -5.92951,-17.18222 -10.25568,-24.95747 z"
       id="path4581"
       style="fill:#000000" />
    <path
       inkscape:connector-curvature="0"
       d="m 347.18947,221.34993 -8.47724,11.94521 388.90873,388.90873 8.47724,-11.94521 z"
       id="path4583"
       style="fill:#000000" />
    <path
       inkscape:connector-curvature="0"
       d="m 338.71223,233.29514 -1.7488,2.46018 388.90873,388.90873 1.7488,-2.46018 z"
       id="path4585"
       style="fill:#000000" />
    <path
       inkscape:connector-curvature="0"
       d="m 336.96343,235.75532 0.41497,2.96407 388.90873,388.90873 -0.41497,-2.96407 z"
       id="path4587"
       style="fill:#000000" />
    <path
       inkscape:connector-curvature="0"
       d="m 337.3784,238.71939 c 0.61644,4.45396 0.91886,9.17368 0.91886,13.90149 l 388.90873,388.90873 c 0,-4.72781 -0.30242,-9.44753 -0.91886,-13.90149 z"
       id="path4589"
       style="fill:#000000" />
    <path
       inkscape:connector-curvature="0"
       d="m 338.29726,252.62088 c 0,4.7278 -0.30194,9.41579 -0.91886,13.87184 l 388.90873,388.90873 c 0.61692,-4.45605 0.91886,-9.14404 0.91886,-13.87184 z"
       id="path4591"
       style="fill:#000000" />
    <path
       inkscape:connector-curvature="0"
       d="m 337.3784,266.49272 -0.38533,2.96407 388.90873,388.90873 0.38533,-2.96407 z"
       id="path4593"
       style="fill:#000000" />
    <path
       inkscape:connector-curvature="0"
       d="m 336.99307,269.45679 1.71916,2.43054 388.90873,388.90873 -1.71916,-2.43054 z"
       id="path4595"
       style="fill:#000000" />
    <path
       inkscape:connector-curvature="0"
       d="m 338.71223,271.88733 8.50688,12.03413 388.90873,388.90873 -8.50688,-12.03413 z"
       id="path4597"
       style="fill:#000000" />
    <path
       inkscape:connector-curvature="0"
       d="m 347.21911,283.92146 -0.59281,2.22305 388.90873,388.90873 0.59281,-2.22305 z"
       id="path4599"
       style="fill:#000000" />
    <path
       inkscape:connector-curvature="0"
       d="m 346.6263,286.14451 1.86736,2.87515 388.90873,388.90873 -1.86736,-2.87515 z"
       id="path4601"
       style="fill:#000000" />
    <path
       inkscape:connector-curvature="0"
       d="m 348.49366,289.01966 6.93593,10.61137 388.90873,388.90873 -6.93593,-10.61137 z"
       id="path4603"
       style="fill:#000000" />
    <path
       inkscape:connector-curvature="0"
       d="m 355.42959,299.63103 7.11376,10.90778 388.90873,388.90873 -7.11376,-10.90778 z"
       id="path4605"
       style="fill:#000000" />
    <path
       inkscape:connector-curvature="0"
       d="m 362.54335,310.53881 5.92815,-11.61916 388.90873,388.90873 -5.92815,11.61916 z"
       id="path4607"
       style="fill:#000000" />
    <path
       inkscape:connector-curvature="0"
       d="m 368.4715,298.91965 25.52064,-50.06314 388.90873,388.90873 -25.52064,50.06314 z"
       id="path4609"
       style="fill:#000000" />
    <path
       inkscape:connector-curvature="0"
       d="m 393.99214,248.85651 0,-0.0296 388.90873,388.90873 0,0.0296 z"
       id="path4611"
       style="fill:#000000" />
    <path
       inkscape:connector-curvature="0"
       d="m 393.99214,248.82691 25.52064,-49.55925 388.90873,388.90873 -25.52064,49.55925 z"
       id="path4613"
       style="fill:#000000" />
    <path
       inkscape:connector-curvature="0"
       d="m 419.51278,199.26766 6.01707,-11.73772 388.90873,388.90873 -6.01707,11.73772 z"
       id="path4615"
       style="fill:#000000" />
    <path
       inkscape:connector-curvature="0"
       d="m 425.52985,187.52994 -13.16047,0.71138 388.90873,388.90873 13.16047,-0.71138 z"
       id="path4617"
       style="fill:#000000" />
    <path
       inkscape:connector-curvature="0"
       d="m 412.36938,188.24132 -30.11496,1.65988 388.90873,388.90873 30.11496,-1.65988 z"
       id="path4619"
       style="fill:#000000" />
    <path
       inkscape:connector-curvature="0"
       d="m 382.25442,189.9012 c -5.37761,-11.23459 -11.9868,-21.75468 -19.74071,-31.30059 l 388.90873,388.90873 c 7.75391,9.54591 14.3631,20.066 19.74071,31.30059 z"
       id="path4621"
       style="fill:#000000" />
    <path
       inkscape:connector-curvature="0"
       d="m 362.51371,158.60061 c -2.30979,-2.84362 -4.72539,-5.6199 -7.26197,-8.32903 l 388.90873,388.90873 c 2.53658,2.70913 4.95218,5.48541 7.26197,8.32903 z"
       id="path4623"
       style="fill:#000000" />
    <path
       inkscape:connector-curvature="0"
       d="m 355.25174,150.27158 c 0.0901,0.0962 0.1552,0.16395 0.19873,0.20748 L 744.3592,539.38779 c -0.0435,-0.0435 -0.10863,-0.11124 -0.19873,-0.20748 z"
       id="path4625"
       style="fill:#000000" />
    <path
       inkscape:connector-curvature="0"
       d="m 355.45047,150.47906 c 0.17867,0.17867 -0.006,-0.0501 -0.31729,-0.38533 l 388.90873,388.90873 c 0.31115,0.33525 0.49596,0.56399 0.31729,0.38533 z"
       id="path4627"
       style="fill:#000000" />
    <path
       inkscape:connector-curvature="0"
       d="m 355.13318,150.09373 c -0.006,-0.006 -0.0134,-0.0132 -0.0202,-0.0199 l 388.90873,388.90873 c 0.007,0.007 0.0141,0.0139 0.0202,0.0199 z"
       id="path4629"
       style="fill:#000000" />
    <path
       inkscape:connector-curvature="0"
       d="m 355.11303,150.0738 c -0.003,-0.003 -0.007,-0.007 -0.009,-0.01 l 388.90873,388.90873 c 0.003,0.003 0.006,0.006 0.009,0.01 z"
       id="path4631"
       style="fill:#000000" />
    <path
       inkscape:connector-curvature="0"
       d="m 355.10358,150.06413 c -0.37591,-0.404 -0.79343,-0.8593 -1.27455,-1.36347 l 388.90873,388.90873 c 0.48112,0.50417 0.89864,0.95947 1.27455,1.36347 z"
       id="path4633"
       style="fill:#000000" />
    <path
       inkscape:connector-curvature="0"
       d="m 353.82903,148.70066 -0.0296,0 388.90873,388.90873 0.0296,0 z"
       id="path4635"
       style="fill:#000000" />
    <path
       inkscape:connector-curvature="0"
       d="m 353.79943,148.70066 0,-0.0296 388.90873,388.90873 0,0.0296 z"
       id="path4637"
       style="fill:#000000" />
    <path
       inkscape:connector-curvature="0"
       d="m 353.79943,148.67106 c -0.0526,-0.0547 -0.10238,-0.10532 -0.14911,-0.15205 l 388.90873,388.90873 c 0.0467,0.0467 0.0965,0.0973 0.14911,0.15205 z"
       id="path4639"
       style="fill:#000000" />
    <path
       inkscape:connector-curvature="0"
       d="m 353.65032,148.51901 c -0.28429,-0.28428 -0.45747,-0.42483 -0.5023,-0.46971 l 388.90873,388.90873 c 0.0448,0.0449 0.21801,0.18543 0.5023,0.46971 z"
       id="path4641"
       style="fill:#000000" />
    <path
       inkscape:connector-curvature="0"
       d="m 353.14802,148.0493 c -2.3e-4,-2.4e-4 -4.6e-4,-4.6e-4 -6.8e-4,-6.9e-4 l 388.90873,388.90873 c 2.2e-4,2.3e-4 4.5e-4,4.5e-4 6.8e-4,6.9e-4 z"
       id="path4643"
       style="fill:#000000" />
    <path
       inkscape:connector-curvature="0"
       d="m 353.14734,148.04861 c -0.005,-0.005 0.005,-0.0245 0,-0.0296 l 388.90873,388.90873 c 0.005,0.005 -0.005,0.0246 0,0.0296 z"
       id="path4645"
       style="fill:#000000" />
    <path
       inkscape:connector-curvature="0"
       d="m 353.14734,148.01901 -0.0296,0 388.90873,388.90873 0.0296,0 z"
       id="path4647"
       style="fill:#000000" />
    <path
       inkscape:connector-curvature="0"
       d="m 353.11774,148.01901 c -0.48962,-0.50669 -0.97733,-1.00114 -1.46226,-1.48607 l 388.90873,388.90873 c 0.48493,0.48493 0.97264,0.97938 1.46226,1.48607 z"
       id="path4649"
       style="fill:#000000" />
    <path
       inkscape:connector-curvature="0"
       d="m 351.65548,146.53294 c -0.59425,-0.59425 -1.18431,-1.17418 -1.76857,-1.74477 L 738.79564,533.6969 c 0.58426,0.57059 1.17432,1.15052 1.76857,1.74477 z"
       id="path4651"
       style="fill:#000000" />
    <path
       inkscape:connector-curvature="0"
       d="M 349.88691,144.78817 C 321.98183,117.53601 283.86506,100.62352 241.84655,100.62352 l 388.90873,388.90873 c 42.01851,0 80.13528,16.91249 108.04036,44.16465 z"
       id="path4653"
       style="fill:#000000" />
    <path
       inkscape:connector-curvature="0"
       d="m 238.46751,203.18027 c -27.29705,0 -49.44069,22.14372 -49.44069,49.44069 l 388.90873,388.90873 c 0,-27.29697 22.14364,-49.44069 49.44069,-49.44069 z"
       id="path4655"
       style="fill:#000000" />
    <path
       inkscape:connector-curvature="0"
       d="m 189.02682,252.62096 c 0,13.77985 5.61636,26.36733 14.70371,35.45469 l 388.90873,388.90873 c -9.08735,-9.08736 -14.70371,-21.67484 -14.70371,-35.45469 z"
       id="path4657"
       style="fill:#000000" />
    <path
       inkscape:connector-curvature="0"
       d="m 203.73053,288.07565 c 8.91409,8.91409 21.16807,14.46025 34.73698,14.46025 l 388.90873,388.90873 c -13.56891,0 -25.82289,-5.54617 -34.73698,-14.46025 z"
       id="path4659"
       style="fill:#000000" />
    <path
       inkscape:connector-curvature="0"
       d="m 238.46751,302.5359 c 27.40158,0 49.94459,-22.51364 49.94459,-49.91494 l 388.90873,388.90873 c 0,27.4013 -22.54301,49.91494 -49.94459,49.91494 z"
       id="path4661"
       style="fill:#000000" />
    <path
       inkscape:connector-curvature="0"
       d="m 288.4121,252.62096 c 0,-13.5614 -5.54737,-25.80943 -14.46027,-34.72233 l 388.90873,388.90873 c 8.9129,8.9129 14.46027,21.16093 14.46027,34.72233 z"
       id="path4663"
       style="fill:#000000" />
    <path
       inkscape:connector-curvature="0"
       d="m 273.95183,217.89863 c -9.09595,-9.09594 -21.69707,-14.71836 -35.48432,-14.71836 L 627.37624,592.089 c 13.78725,0 26.38837,5.62242 35.48432,14.71836 z"
       id="path4665"
       style="fill:#000000" />
  </g>
  <path
     style="font-size:medium;font-style:normal;font-variant:normal;font-weight:normal;font-stretch:normal;text-indent:0;text-align:start;text-decoration:none;line-height:normal;letter-spacing:normal;word-spacing:normal;text-transform:none;direction:ltr;block-progression:tb;writing-mode:lr-tb;text-anchor:start;baseline-shift:baseline;color:#000000;fill:#ffffff;fill-opacity:1;fill-rule:nonzero;stroke:none;stroke-width:15.94080353;marker:none;visibility:visible;display:inline;overflow:visible;enable-background:accumulate;font-family:Sans;-inkscape-font-specification:Sans"
     d="m 241.84655,100.62344 c -85.65847,0 -155.376552,69.71841 -155.376552,155.37656 0,85.65959 69.718172,155.37656 155.376552,155.37656 29.1927,0 56.61806,-8.24464 79.94098,-22.26017 l 7.14341,-4.2979 -4.95,-6.6988 -23.594,-31.77483 -3.94221,-5.30569 -5.77994,3.2012 c -6.59635,3.6321 -13.69297,6.56828 -21.13382,8.68473 l -5.2464,1.48203 -0.23713,5.45389 -0.1482,3.26048 c -8.12384,1.81946 -16.66982,2.78622 -25.43173,2.78622 -8.86346,0 -17.50905,-0.98393 -25.72813,-2.8455 l -0.53353,-5.92814 -0.44461,-4.77216 -4.50538,-1.65988 c -13.46771,-4.90473 -25.5801,-12.58834 -35.65777,-22.37873 l -3.64581,-3.55688 -4.68323,2.07485 -7.73622,3.40868 c -11.56687,-12.42323 -20.11602,-27.51139 -25.19459,-44.31285 l 8.62544,-5.2464 4.35718,-2.66767 -0.85958,-5.03892 C 141.53236,267.47977 141.06817,261.7989 141.06817,256 c 0,-7.79904 0.86629,-15.3417 2.51946,-22.58622 l 1.21527,-5.30568 -4.68324,-2.84551 -9.78142,-5.95778 c 5.05142,-16.71078 13.54383,-31.72005 25.01675,-44.10536 l 11.82664,5.92814 4.53502,2.28233 3.82365,-3.3494 c 9.28155,-8.10984 20.03729,-14.54166 31.83412,-18.82185 l 4.71287,-1.71916 0.26677,-5.00927 0.62245,-12.38982 c 8.14067,-1.82795 16.70877,-2.78622 25.491,-2.78622 9.14604,0 18.04998,1.07066 26.49879,3.05299 l 3.67545,15.05747 0.88922,3.61617 0.0296,0 0.0889,0.38533 1.03742,4.35718 4.32755,1.18563 c 1.96088,0.53269 4.6678,1.46851 7.70658,2.66766 l 0.71138,0.29641 0.74101,0.11856 c 0.12662,0.0228 0.11874,0.01 0.23713,0.0296 2.6943,1.23133 5.32764,2.48695 7.88443,3.76437 l 0.0296,0.0296 0.0296,0 c 0.50463,0.24641 1.03406,0.52964 1.63024,0.82994 13.9217,7.01231 28.79496,18.40147 32.0416,25.72813 l 10.90778,-4.06078 c 4.32617,7.77525 7.75975,16.14539 10.25568,24.95747 l -8.47724,11.94521 -1.7488,2.46018 0.41497,2.96407 c 0.61644,4.45396 0.91886,9.17368 0.91886,13.90149 0,4.7278 -0.30194,9.41579 -0.91886,13.87184 l -0.38533,2.96407 1.71916,2.43054 8.50688,12.03413 -0.59281,2.22305 1.86736,2.87515 6.93593,10.61137 7.11376,10.90778 5.92815,-11.61916 25.52064,-50.06314 0,-0.0296 25.52064,-49.55925 6.01707,-11.73772 -13.16047,0.71138 -30.11496,1.65988 c -5.37761,-11.23459 -11.9868,-21.75468 -19.74071,-31.30059 -2.30979,-2.84362 -4.72539,-5.6199 -7.26197,-8.32903 0.45995,0.49128 0.26839,0.23907 -0.11856,-0.17785 -0.009,-0.009 -0.0211,-0.0206 -0.0296,-0.0296 -0.37591,-0.404 -0.79343,-0.8593 -1.27455,-1.36347 l -0.0296,0 0,-0.0296 c -0.37465,-0.38926 -0.60121,-0.57111 -0.65209,-0.62245 -0.005,-0.005 0.005,-0.0245 0,-0.0296 l -0.0296,0 c -1.08962,-1.1276 -2.16979,-2.19463 -3.23083,-3.23084 -27.90508,-27.25216 -66.02185,-44.16465 -108.04036,-44.16465 z m -3.37904,102.55683 c -27.29705,0 -49.44069,22.14372 -49.44069,49.44069 0,27.29697 22.03913,49.91494 49.44069,49.91494 27.40158,0 49.94459,-22.51364 49.94459,-49.91494 0,-27.4013 -22.64753,-49.44069 -49.94459,-49.44069 z"
     id="path3610"
     inkscape:connector-curvature="0" />
</svg>
