<?xml version="1.0" encoding="UTF-8" standalone="no"?>
<!-- Created with Inkscape (http://www.inkscape.org/) -->

<svg
   xmlns:dc="http://purl.org/dc/elements/1.1/"
   xmlns:cc="http://creativecommons.org/ns#"
   xmlns:rdf="http://www.w3.org/1999/02/22-rdf-syntax-ns#"
   xmlns:svg="http://www.w3.org/2000/svg"
   xmlns="http://www.w3.org/2000/svg"
   xmlns:inkscape="http://www.inkscape.org/namespaces/inkscape"
   version="1.1"
   width="100%"
   height="100%"
   viewBox="0 0 512 512"
   id="svg2">
  <metadata
     id="metadata82">
    <rdf:RDF>
      <cc:Work
         rdf:about="">
        <dc:format>image/svg+xml</dc:format>
        <dc:type
           rdf:resource="http://purl.org/dc/dcmitype/StillImage" />
      </cc:Work>
    </rdf:RDF>
  </metadata>
  <defs
     id="defs80" />
  <path
     d="m 471.95,253.05 c 0,120.9 -98.01,218.9 -218.9,218.9 -120.9,0 -218.9,-98.01 -218.9,-218.9 0,-120.9 98.01,-218.9 218.9,-218.9 120.9,0 218.9,98.01 218.9,218.9"
     inkscape:connector-curvature="0"
     id="path4"
     style="fill:#ef6a47;fill-rule:evenodd" />
  <path
     d="m 198.56,120.59 c -6.178,0 -11.589,0.716 -16.25,2.125 -4.553,1.409 -8.738,2.937 -12.531,4.563 0.217,2.385 0.71,4.693 1.469,6.969 0.867,2.276 1.727,4.52 2.594,6.688 0.175,-0.079 0.356,-0.141 0.531,-0.219 0.157,0.399 0.311,0.824 0.469,1.219 0.174,-0.079 0.357,-0.141 0.531,-0.219 0.157,0.399 0.311,0.824 0.469,1.219 0.174,-0.079 0.357,-0.141 0.531,-0.219 0.157,0.399 0.311,0.824 0.469,1.219 0.166,-0.075 0.334,-0.145 0.5,-0.219 0.154,0.39 0.314,0.802 0.469,1.188 0.173,-0.078 0.357,-0.141 0.531,-0.219 0.157,0.399 0.311,0.824 0.469,1.219 0.173,-0.078 0.357,-0.141 0.531,-0.219 0.157,0.399 0.311,0.824 0.469,1.219 0.175,-0.079 0.356,-0.141 0.531,-0.219 0.157,0.399 0.311,0.824 0.469,1.219 0.174,-0.079 0.357,-0.141 0.531,-0.219 0.157,0.399 0.311,0.824 0.469,1.219 0.174,-0.079 0.357,-0.141 0.531,-0.219 0.157,0.399 0.311,0.824 0.469,1.219 0.166,-0.075 0.334,-0.145 0.5,-0.219 0.154,0.39 0.314,0.802 0.469,1.188 0.173,-0.078 0.357,-0.141 0.531,-0.219 0.157,0.399 0.311,0.824 0.469,1.219 0.173,-0.078 0.357,-0.141 0.531,-0.219 0.157,0.399 0.311,0.824 0.469,1.219 0.175,-0.079 0.356,-0.141 0.531,-0.219 0.157,0.399 0.311,0.824 0.469,1.219 0.174,-0.079 0.357,-0.141 0.531,-0.219 0.157,0.399 0.311,0.824 0.469,1.219 0.174,-0.079 0.357,-0.141 0.531,-0.219 0.157,0.399 0.311,0.824 0.469,1.219 0.166,-0.075 0.334,-0.145 0.5,-0.219 0.154,0.39 0.314,0.802 0.469,1.188 0.173,-0.078 0.357,-0.141 0.531,-0.219 0.157,0.399 0.311,0.824 0.469,1.219 0.173,-0.078 0.357,-0.141 0.531,-0.219 0.157,0.399 0.311,0.824 0.469,1.219 0.175,-0.079 0.356,-0.141 0.531,-0.219 0.157,0.399 0.311,0.824 0.469,1.219 0.175,-0.079 0.356,-0.141 0.531,-0.219 0.157,0.399 0.311,0.824 0.469,1.219 0.174,-0.079 0.357,-0.141 0.531,-0.219 0.157,0.399 0.311,0.824 0.469,1.219 0.166,-0.075 0.334,-0.145 0.5,-0.219 0.155,0.392 0.314,0.8 0.469,1.188 0.173,-0.078 0.357,-0.141 0.531,-0.219 0.157,0.399 0.311,0.824 0.469,1.219 0.173,-0.078 0.357,-0.141 0.531,-0.219 0.157,0.399 0.311,0.824 0.469,1.219 0.175,-0.079 0.356,-0.141 0.531,-0.219 0.157,0.399 0.311,0.824 0.469,1.219 0.175,-0.079 0.356,-0.141 0.531,-0.219 0.157,0.399 0.311,0.824 0.469,1.219 0.174,-0.079 0.357,-0.141 0.531,-0.219 0.157,0.399 0.311,0.824 0.469,1.219 0.174,-0.079 0.357,-0.141 0.531,-0.219 0.157,0.399 0.311,0.824 0.469,1.219 0.166,-0.075 0.334,-0.145 0.5,-0.219 0.154,0.39 0.314,0.802 0.469,1.188 0.173,-0.078 0.357,-0.141 0.531,-0.219 0.157,0.399 0.311,0.824 0.469,1.219 0.173,-0.078 0.357,-0.141 0.531,-0.219 0.157,0.399 0.311,0.824 0.469,1.219 0.175,-0.079 0.356,-0.141 0.531,-0.219 0.157,0.399 0.311,0.824 0.469,1.219 0.174,-0.079 0.357,-0.141 0.531,-0.219 0.157,0.399 0.311,0.824 0.469,1.219 0.174,-0.079 0.357,-0.141 0.531,-0.219 0.157,0.399 0.311,0.824 0.469,1.219 0.166,-0.075 0.334,-0.145 0.5,-0.219 0.146,0.369 0.292,0.76 0.438,1.125 -0.664,0.869 -1.365,1.738 -2.094,2.625 -2.385,2.927 -4.994,6.077 -7.813,9.438 l -31.875,37.25 0.969,2.094 h 0.531 l 0.469,1 h 0.531 l 0.469,1 h 0.531 l 0.469,1 h 0.531 l 0.438,0.969 h 0.531 l 0.469,1 h 0.531 l 0.469,1 h 0.531 c 0.231,0.5 0.469,1 0.469,1 h 0.531 c 0.231,0.5 0.469,1 0.469,1 h 0.531 c 0.231,0.5 0.469,1 0.469,1 h 0.531 c 0.222,0.479 0.438,0.969 0.438,0.969 h 0.531 c 0.231,0.5 0.469,1 0.469,1 h 0.531 c 0.231,0.5 0.469,1 0.469,1 h 0.531 c 0.231,0.5 0.469,1 0.469,1 h 0.531 c 0.231,0.5 0.469,1 0.469,1 h 0.531 c 0.231,0.5 0.469,1 0.469,1 h 0.531 c 0.222,0.479 0.438,0.969 0.438,0.969 h 0.531 c 0.231,0.5 0.469,1 0.469,1 h 0.531 c 0.231,0.5 0.469,1 0.469,1 h 0.531 c 0.231,0.5 0.469,1 0.469,1 h 0.531 c 0.231,0.5 0.469,1 0.469,1 h 0.531 c 0.231,0.5 0.469,1 0.469,1 h 0.531 c 0.222,0.479 0.438,0.969 0.438,0.969 h 0.031 0.5 c 0.231,0.5 0.469,1 0.469,1 h 0.531 c 0.231,0.5 0.469,1 0.469,1 h 0.531 c 0.231,0.5 0.469,1 0.469,1 h 0.531 c 0.231,0.5 0.469,1 0.469,1 h 0.531 c 0.231,0.5 0.469,1 0.469,1 h 0.531 c 0.231,0.5 0.469,1 0.469,1 h 0.531 c 0.222,0.479 0.438,0.969 0.438,0.969 h 0.531 c 0.231,0.5 0.469,1 0.469,1 h 0.531 c 0.231,0.5 0.469,1 0.469,1 h 0.531 c 0.231,0.5 0.469,1 0.469,1 h 0.531 c 0.231,0.5 0.469,1 0.469,1 h 0.531 c 0.231,0.5 0.469,1 0.469,1 h 0.531 c 0.221,0.479 0.438,0.969 0.438,0.969 h 0.531 c 0.231,0.499 0.469,1 0.469,1 h 0.531 c 0.231,0.499 0.469,1 0.469,1 h 0.531 c 0.231,0.499 0.469,1 0.469,1 h 0.531 c 0.231,0.499 0.469,1 0.469,1 h 0.531 c 0.231,0.499 0.469,1 0.469,1 h 0.531 c 0.221,0.478 0.438,0.969 0.438,0.969 h 0.531 c 0.231,0.499 0.469,1 0.469,1 h 0.531 c 0.231,0.499 0.469,1 0.469,1 h 0.531 c 0.231,0.499 0.469,1 0.469,1 h 0.531 c 0.231,0.499 0.469,1 0.469,1 h 0.531 c 0.231,0.499 0.469,1 0.469,1 h 0.531 c 0.196,0.423 0.353,0.729 0.406,0.844 -0.481,-0.078 -0.961,-0.142 -1.438,-0.188 l -47.625,93.31 1.313,1.781 h 0.25 l 0.75,1 h 0.25 l 0.719,0.969 0.031,0.031 h 0.25 l 0.719,0.969 0.031,0.031 h 0.281 l 0.688,0.938 v 0.031 h 0.25 l 0.719,0.969 0.031,0.031 h 0.281 l 0.688,0.938 0.031,0.063 h 0.25 l 0.688,0.938 0.063,0.063 h 0.281 l 0.656,0.906 c 0.001,10e-4 0.063,0.094 0.063,0.094 h 0.281 l 0.656,0.906 c 0.001,10e-4 0.063,0.094 0.063,0.094 h 0.25 l 0.656,0.906 0.063,0.063 h 0.281 l 0.656,0.906 c 0.001,0.002 0.063,0.094 0.063,0.094 h 0.281 l 0.656,0.906 c 0.001,0.002 0.063,0.094 0.063,0.094 h 0.25 l 0.656,0.875 c 10e-4,0.002 0.094,0.125 0.094,0.125 h 0.25 l 0.656,0.875 c 10e-4,0.002 0.094,0.125 0.094,0.125 h 0.25 l 0.625,0.844 c 0.002,0.002 0.125,0.156 0.125,0.156 h 0.25 l 0.625,0.844 c 0.002,0.002 0.094,0.125 0.094,0.125 h 0.281 l 0.625,0.844 c 0.002,0.002 0.094,0.156 0.094,0.156 h 0.25 l 0.625,0.844 c 0.002,0.002 0.125,0.156 0.125,0.156 h 0.25 l 0.625,0.844 c 0.002,0.003 0.125,0.156 0.125,0.156 h 0.281 l 0.594,0.813 0.125,0.188 h 0.25 l 0.594,0.813 c 0.002,0.003 0.156,0.188 0.156,0.188 h 0.25 l 0.594,0.781 0.125,0.188 h 0.281 l 0.594,0.813 0.125,0.188 h 0.281 l 0.563,0.781 c 0.002,0.003 0.156,0.219 0.156,0.219 h 0.281 l 0.563,0.781 c 0.003,0.003 0.156,0.219 0.156,0.219 h 0.25 l 0.563,0.75 0.188,0.25 h 0.25 l 0.563,0.75 0.188,0.25 h 0.25 l 0.563,0.75 0.188,0.25 h 0.25 l 0.531,0.719 0.188,0.25 h 0.25 l 0.563,0.75 0.188,0.25 h 0.281 l 0.531,0.719 c 0.003,0.004 0.188,0.281 0.188,0.281 h 0.25 l 0.531,0.719 c 0.003,0.004 0.219,0.281 0.219,0.281 h 0.281 l 0.5,0.688 c 0.003,0.005 0.219,0.313 0.219,0.313 h 0.25 l 0.5,0.688 c 0.003,0.005 0.25,0.313 0.25,0.313 h 0.25 l 0.5,0.688 c 0.004,0.005 0.219,0.281 0.219,0.281 h 0.281 l 0.5,0.688 c 0.004,0.005 0.219,0.313 0.219,0.313 h 0.25 l 0.5,0.688 0.25,0.313 h 0.25 l 0.5,0.656 c 0.004,0.005 0.25,0.344 0.25,0.344 h 0.25 l 0.5,0.656 c 0.004,0.005 0.25,0.344 0.25,0.344 h 0.25 l 0.469,0.625 c 0.004,0.005 0.281,0.375 0.281,0.375 h 0.25 l 0.469,0.625 c 0.004,0.006 0.25,0.344 0.25,0.344 h 0.281 l 0.469,0.625 0.25,0.375 h 0.25 l 0.469,0.625 c 0.004,0.006 0.281,0.375 0.281,0.375 h 0.25 l 0.469,0.625 c 0.004,0.006 0.281,0.375 0.281,0.375 h 0.25 l 0.438,0.594 c 0.005,0.006 0.313,0.406 0.313,0.406 h 0.25 l 0.438,0.594 c 0.005,0.006 0.313,0.406 0.313,0.406 h 0.281 l 0.406,0.563 c 0.005,0.006 0.313,0.438 0.313,0.438 h 0.25 l 0.406,0.563 c 0.005,0.007 0.313,0.406 0.313,0.406 h 0.281 l 0.406,0.563 0.313,0.438 h 0.281 l 0.406,0.563 0.313,0.438 h 0.25 l 0.406,0.531 c 0.005,0.007 0.344,0.469 0.344,0.469 h 0.25 l 0.406,0.531 c 0.005,0.007 0.344,0.469 0.344,0.469 h 0.25 l 0.375,0.531 c 0.005,0.007 0.375,0.469 0.375,0.469 h 0.25 l 0.375,0.5 c 0.005,0.007 0.344,0.469 0.344,0.469 h 0.25 l 0.406,0.531 c 0.006,0.007 0.344,0.469 0.344,0.469 h 0.25 l 0.375,0.5 0.375,0.5 h 0.25 l 0.375,0.5 0.375,0.5 h 0.281 l 0.344,0.469 c 0.006,0.008 0.375,0.531 0.375,0.531 h 0.25 l 0.344,0.469 c 0.006,0.008 0.406,0.531 0.406,0.531 h 0.25 l 0.344,0.438 c 0.006,0.008 0.375,0.531 0.375,0.531 h 0.281 l 0.344,0.469 c 0.006,0.008 0.375,0.531 0.375,0.531 h 0.25 l 0.344,0.469 c 0.006,0.008 0.406,0.531 0.406,0.531 h 0.281 l 0.313,0.438 c 0.006,0.009 0.406,0.563 0.406,0.563 h 0.25 l 0.313,0.438 c 0.006,0.009 0.438,0.563 0.438,0.563 h 0.25 l 0.313,0.406 c 0.007,0.009 0.438,0.594 0.438,0.594 h 0.25 l 0.313,0.406 c 0.007,0.009 0.406,0.563 0.406,0.563 h 0.25 l 0.313,0.406 c 0.007,0.009 0.438,0.594 0.438,0.594 h 0.25 l 0.313,0.406 c 0.007,0.009 0.438,0.594 0.438,0.594 h 0.281 l 0.281,0.375 c 0.007,0.009 0.438,0.625 0.438,0.625 h 0.25 l 0.281,0.375 c 0.007,0.01 0.469,0.625 0.469,0.625 h 0.25 l 0.281,0.375 c 0.007,0.01 0.469,0.625 0.469,0.625 h 0.25 l 0.25,0.344 c 0.007,0.01 0.5,0.656 0.5,0.656 h 0.25 l 0.25,0.344 c 0.007,0.01 0.469,0.625 0.469,0.625 h 0.281 l 0.25,0.344 c 0.007,0.01 0.469,0.656 0.469,0.656 h 0.25 l 0.25,0.344 c 0.008,0.01 0.5,0.656 0.5,0.656 h 0.281 l 0.219,0.313 c 0.008,0.01 0.5,0.688 0.5,0.688 h 0.281 l 0.219,0.313 c 0.008,0.01 0.5,0.688 0.5,0.688 h 0.25 l 0.219,0.281 c 0.008,0.011 0.531,0.719 0.531,0.719 h 0.25 l 0.219,0.281 c 0.008,0.011 0.5,0.688 0.5,0.688 h 0.281 l 0.219,0.313 c 0.008,0.011 0.5,0.688 0.5,0.688 h 0.25 l 0.219,0.281 c 0.008,0.011 0.531,0.719 0.531,0.719 h 0.25 l 0.219,0.281 c 0.008,0.011 0.531,0.719 0.531,0.719 h 0.25 l 0.188,0.25 c 0.008,0.011 0.563,0.75 0.563,0.75 h 0.25 l 0.188,0.25 c 0.008,0.011 0.563,0.75 0.563,0.75 h 0.281 l 0.156,0.219 c 0.009,0.012 0.531,0.75 0.531,0.75 h 0.25 l 0.188,0.25 c 0.009,0.012 0.563,0.75 0.563,0.75 h 0.281 l 0.156,0.219 c 0.009,0.012 0.563,0.781 0.563,0.781 h 0.281 l 0.156,0.219 c 0.009,0.012 0.563,0.781 0.563,0.781 h 0.25 l 0.156,0.219 c 0.009,0.012 0.594,0.781 0.594,0.781 h 0.281 l 0.125,0.188 0.594,0.813 h 0.281 c 0.041,0.055 0.125,0.187 0.125,0.188 0.009,0.012 0.594,0.813 0.594,0.813 h 0.25 l 0.125,0.156 c 0.009,0.012 0.594,0.813 0.594,0.813 h 0.281 l 0.125,0.188 c 0.009,0.013 0.594,0.813 0.594,0.813 h 0.25 l 0.125,0.156 c 0.009,0.013 0.625,0.844 0.625,0.844 h 0.25 l 0.125,0.156 c 0.01,0.013 0.625,0.844 0.625,0.844 h 0.281 l 0.094,0.125 c 0.01,0.013 0.625,0.875 0.625,0.875 h 0.25 l 0.094,0.125 c 0.01,0.013 0.656,0.875 0.656,0.875 h 0.25 l 0.094,0.125 c 0.01,0.013 0.625,0.844 0.625,0.844 h 0.281 l 0.094,0.125 c 0.01,0.014 0.625,0.875 0.625,0.875 h 0.25 l 0.094,0.125 c 0.01,0.014 0.656,0.875 0.656,0.875 h 0.281 l 0.063,0.094 c 0.01,0.014 0.656,0.906 0.656,0.906 h 0.25 l 0.063,0.094 c 0.01,0.014 0.688,0.906 0.688,0.906 h 0.281 l 0.031,0.063 c 0.01,0.014 0.688,0.938 0.688,0.938 h 0.281 l 0.031,0.063 c 10e-4,0.002 0.071,0.094 0.094,0.125 68.61,-5.161 128.39,-41.941 164.81,-95.81 -0.358,-0.408 -0.743,-0.791 -1.156,-1.156 -0.325,-0.359 -0.661,-0.707 -1.031,-1.031 -0.292,-0.321 -0.609,-0.645 -0.938,-0.938 -0.311,-0.349 -0.646,-0.684 -1,-1 -0.019,-0.022 -0.043,-0.041 -0.063,-0.063 0.025,-0.045 0.069,-0.08 0.094,-0.125 0.085,0.08 0.162,0.174 0.25,0.25 0.063,0.062 0.124,0.126 0.188,0.188 0.029,0.033 0.064,0.062 0.094,0.094 0.006,0.005 0.026,-0.005 0.031,0 0.165,0.173 0.331,0.331 0.5,0.5 0.059,0.054 0.096,0.135 0.156,0.188 0.068,0.067 0.15,0.121 0.219,0.188 0.025,0.028 0.037,0.066 0.063,0.094 0.027,0.026 0.067,0.037 0.094,0.063 0.106,0.111 0.205,0.235 0.313,0.344 0.029,0.032 0.064,0.062 0.094,0.094 0.072,0.072 0.146,0.147 0.219,0.219 0.241,0.259 0.501,0.501 0.75,0.75 0.045,0.041 0.079,0.085 0.125,0.125 0.105,0.104 0.206,0.211 0.313,0.313 0.163,0.172 0.333,0.332 0.5,0.5 0.055,0.051 0.1,0.107 0.156,0.156 0.042,0.042 0.084,0.083 0.125,0.125 20.253,-29.998 33.26,-65.27 36.531,-103.34 -0.237,-0.259 -0.482,-0.516 -0.75,-0.75 -0.319,-0.363 -0.672,-0.684 -1.031,-1 -0.319,-0.362 -0.642,-0.715 -1,-1.031 -0.314,-0.357 -0.649,-0.688 -1,-1 -0.318,-0.362 -0.643,-0.714 -1,-1.031 -0.318,-0.362 -0.675,-0.682 -1.031,-1 -0.005,-0.006 0.005,-0.026 0,-0.031 -0.039,-0.035 -0.086,-0.06 -0.125,-0.094 -0.278,-0.307 -0.569,-0.6 -0.875,-0.875 -0.015,-0.017 -0.017,-0.046 -0.031,-0.063 -0.05,-0.044 -0.105,-0.081 -0.156,-0.125 -0.265,-0.288 -0.523,-0.584 -0.813,-0.844 -0.337,-0.384 -0.684,-0.726 -1.063,-1.063 -0.305,-0.342 -0.631,-0.664 -0.969,-0.969 -0.317,-0.361 -0.648,-0.68 -1,-1 -0.313,-0.356 -0.654,-0.684 -1,-1 -0.317,-0.361 -0.649,-0.71 -1,-1.031 -0.377,-0.428 -0.795,-0.815 -1.219,-1.188 -0.264,-0.289 -0.527,-0.581 -0.813,-0.844 -0.025,-0.029 -0.037,-0.065 -0.063,-0.094 -0.028,-0.025 -0.066,-0.038 -0.094,-0.063 -0.268,-0.295 -0.553,-0.575 -0.844,-0.844 -0.029,-0.033 -0.065,-0.061 -0.094,-0.094 -0.032,-0.029 -0.062,-0.065 -0.094,-0.094 -0.263,-0.289 -0.559,-0.549 -0.844,-0.813 -0.03,-0.034 -0.064,-0.06 -0.094,-0.094 -0.033,-0.03 -0.061,-0.064 -0.094,-0.094 -0.267,-0.292 -0.524,-0.577 -0.813,-0.844 -0.03,-0.034 -0.064,-0.06 -0.094,-0.094 -0.032,-0.029 -0.061,-0.065 -0.094,-0.094 -0.261,-0.286 -0.53,-0.55 -0.813,-0.813 -0.019,-0.022 -0.043,-0.041 -0.063,-0.063 -0.055,-0.05 -0.101,-0.107 -0.156,-0.156 -0.249,-0.271 -0.514,-0.531 -0.781,-0.781 -0.053,-0.06 -0.102,-0.128 -0.156,-0.188 -0.027,-0.025 -0.066,-0.038 -0.094,-0.063 -0.246,-0.267 -0.517,-0.535 -0.781,-0.781 -0.025,-0.029 -0.037,-0.065 -0.063,-0.094 -0.059,-0.054 -0.128,-0.103 -0.188,-0.156 -0.337,-0.365 -0.661,-0.735 -1.031,-1.063 -0.23,-0.248 -0.474,-0.489 -0.719,-0.719 -0.045,-0.051 -0.079,-0.106 -0.125,-0.156 -0.049,-0.045 -0.106,-0.081 -0.156,-0.125 -0.23,-0.248 -0.474,-0.488 -0.719,-0.719 -0.048,-0.055 -0.108,-0.102 -0.156,-0.156 -0.053,-0.048 -0.103,-0.109 -0.156,-0.156 -0.225,-0.242 -0.479,-0.462 -0.719,-0.688 -0.319,-0.363 -0.652,-0.703 -1,-1.031 -0.069,-0.078 -0.149,-0.142 -0.219,-0.219 -0.033,-0.03 -0.06,-0.064 -0.094,-0.094 -0.223,-0.239 -0.452,-0.464 -0.688,-0.688 -0.039,-0.044 -0.086,-0.081 -0.125,-0.125 -0.076,-0.07 -0.142,-0.15 -0.219,-0.219 -0.221,-0.236 -0.454,-0.466 -0.688,-0.688 -0.054,-0.062 -0.101,-0.127 -0.156,-0.188 -0.059,-0.054 -0.127,-0.103 -0.188,-0.156 -0.274,-0.293 -0.55,-0.574 -0.844,-0.844 -0.384,-0.422 -0.764,-0.842 -1.188,-1.219 -0.201,-0.214 -0.414,-0.424 -0.625,-0.625 -0.065,-0.073 -0.122,-0.147 -0.188,-0.219 -0.07,-0.065 -0.147,-0.124 -0.219,-0.188 -0.329,-0.348 -0.675,-0.715 -1.031,-1.031 -0.193,-0.204 -0.391,-0.4 -0.594,-0.594 -0.456,-0.519 -0.926,-0.983 -1.438,-1.438 -0.183,-0.194 -0.371,-0.379 -0.563,-0.563 -0.393,-0.447 -0.817,-0.881 -1.25,-1.281 -0.325,-0.355 -0.681,-0.675 -1.031,-1 -0.246,-0.268 -0.489,-0.53 -0.75,-0.781 -0.078,-0.089 -0.17,-0.163 -0.25,-0.25 -0.085,-0.079 -0.163,-0.173 -0.25,-0.25 -0.163,-0.171 -0.331,-0.336 -0.5,-0.5 -0.485,-0.551 -1.019,-1.08 -1.563,-1.563 -0.153,-0.16 -0.31,-0.315 -0.469,-0.469 -0.41,-0.466 -0.83,-0.894 -1.281,-1.313 -0.356,-0.387 -0.74,-0.741 -1.125,-1.094 -0.297,-0.318 -0.59,-0.643 -0.906,-0.938 -0.325,-0.353 -0.682,-0.675 -1.031,-1 -0.226,-0.245 -0.45,-0.487 -0.688,-0.719 -0.098,-0.111 -0.213,-0.204 -0.313,-0.313 -0.106,-0.099 -0.204,-0.216 -0.313,-0.313 -0.245,-0.254 -0.492,-0.511 -0.75,-0.75 -0.42,-0.453 -0.854,-0.905 -1.313,-1.313 -0.113,-0.116 -0.228,-0.23 -0.344,-0.344 -0.311,-0.354 -0.667,-0.672 -1,-1 -0.537,-0.611 -1.117,-1.184 -1.719,-1.719 -0.103,-0.107 -0.207,-0.208 -0.313,-0.313 -0.434,-0.494 -0.899,-0.961 -1.375,-1.406 -0.444,-0.479 -0.89,-0.944 -1.375,-1.375 -0.339,-0.348 -0.67,-0.71 -1.031,-1.031 -0.082,-0.084 -0.167,-0.167 -0.25,-0.25 -0.565,-0.643 -1.179,-1.249 -1.813,-1.813 -0.215,-0.219 -0.401,-0.447 -0.625,-0.656 -0.451,-0.484 -0.915,-0.938 -1.406,-1.375 -0.062,-0.064 -0.125,-0.125 -0.188,-0.188 -0.317,-0.36 -0.663,-0.695 -1,-1.031 -0.589,-0.67 -1.215,-1.288 -1.875,-1.875 -0.34,-0.345 -0.671,-0.711 -1.031,-1.031 -0.041,-0.042 -0.083,-0.083 -0.125,-0.125 -0.604,-0.686 -1.261,-1.336 -1.938,-1.938 -0.031,-0.032 -0.062,-0.062 -0.094,-0.094 -0.47,-0.534 -0.956,-1.017 -1.469,-1.5 -0.323,-0.346 -0.658,-0.676 -1,-1 -0.33,-0.354 -0.681,-0.7 -1.031,-1.031 -0.33,-0.354 -0.65,-0.7 -1,-1.031 -0.49,-0.525 -0.998,-1.025 -1.531,-1.5 -0.005,-0.006 0.005,-0.026 0,-0.031 -0.109,-0.11 -0.233,-0.205 -0.344,-0.313 -0.54,-0.59 -1.094,-1.19 -1.688,-1.719 -0.111,-0.111 -0.231,-0.203 -0.344,-0.313 -0.387,-0.423 -0.773,-0.827 -1.188,-1.219 -0.323,-0.345 -0.659,-0.676 -1,-1 -0.33,-0.353 -0.682,-0.7 -1.031,-1.031 -0.325,-0.347 -0.657,-0.674 -1,-1 -0.5,-0.535 -0.989,-1.077 -1.531,-1.563 -0.166,-0.167 -0.33,-0.338 -0.5,-0.5 -0.363,-0.387 -0.74,-0.764 -1.125,-1.125 -0.297,-0.313 -0.595,-0.61 -0.906,-0.906 -0.335,-0.357 -0.678,-0.695 -1.031,-1.031 -0.292,-0.311 -0.6,-0.612 -0.906,-0.906 -0.404,-0.436 -0.819,-0.846 -1.25,-1.25 -0.281,-0.295 -0.55,-0.594 -0.844,-0.875 -0.505,-0.538 -1.017,-1.072 -1.563,-1.563 -0.155,-0.156 -0.31,-0.317 -0.469,-0.469 -0.342,-0.365 -0.702,-0.719 -1.063,-1.063 -0.327,-0.348 -0.656,-0.672 -1,-1 -0.366,-0.389 -0.739,-0.761 -1.125,-1.125 -0.26,-0.273 -0.511,-0.551 -0.781,-0.813 -0.413,-0.445 -0.841,-0.867 -1.281,-1.281 -0.271,-0.284 -0.562,-0.542 -0.844,-0.813 -0.378,-0.403 -0.757,-0.81 -1.156,-1.188 -0.337,-0.354 -0.677,-0.697 -1.031,-1.031 -0.294,-0.308 -0.6,-0.613 -0.906,-0.906 -0.283,-0.299 -0.581,-0.589 -0.875,-0.875 -0.439,-0.471 -0.876,-0.937 -1.344,-1.375 -0.22,-0.229 -0.46,-0.436 -0.688,-0.656 -0.464,-0.498 -0.942,-0.976 -1.438,-1.438 -0.074,-0.084 -0.144,-0.167 -0.219,-0.25 -0.062,-0.062 -0.125,-0.126 -0.188,-0.188 -0.46,-0.502 -0.946,-0.972 -1.438,-1.438 -0.337,-0.353 -0.678,-0.697 -1.031,-1.031 -0.294,-0.307 -0.6,-0.613 -0.906,-0.906 -0.313,-0.331 -0.642,-0.654 -0.969,-0.969 -0.398,-0.422 -0.799,-0.822 -1.219,-1.219 -0.231,-0.241 -0.449,-0.486 -0.688,-0.719 -0.383,-0.41 -0.784,-0.801 -1.188,-1.188 -0.328,-0.346 -0.688,-0.671 -1.031,-1 -0.362,-0.382 -0.713,-0.764 -1.094,-1.125 -0.249,-0.261 -0.492,-0.53 -0.75,-0.781 -0.433,-0.464 -0.885,-0.91 -1.344,-1.344 -0.259,-0.269 -0.545,-0.523 -0.813,-0.781 -0.402,-0.426 -0.795,-0.849 -1.219,-1.25 -0.221,-0.229 -0.46,-0.434 -0.688,-0.656 -0.408,-0.437 -0.82,-0.871 -1.25,-1.281 -0.31,-0.325 -0.646,-0.627 -0.969,-0.938 -0.362,-0.381 -0.714,-0.764 -1.094,-1.125 -0.244,-0.255 -0.498,-0.504 -0.75,-0.75 -0.458,-0.49 -0.921,-0.98 -1.406,-1.438 -0.235,-0.242 -0.477,-0.484 -0.719,-0.719 -0.356,-0.376 -0.722,-0.736 -1.094,-1.094 -0.326,-0.343 -0.66,-0.673 -1,-1 -0.335,-0.352 -0.683,-0.696 -1.031,-1.031 -0.29,-0.306 -0.574,-0.613 -0.875,-0.906 -0.452,-0.48 -0.929,-0.925 -1.406,-1.375 -0.19,-0.195 -0.369,-0.404 -0.563,-0.594 -0.468,-0.5 -0.973,-0.97 -1.469,-1.438 -0.189,-0.195 -0.369,-0.404 -0.563,-0.594 -0.396,-0.423 -0.803,-0.818 -1.219,-1.219 -0.357,-0.375 -0.721,-0.737 -1.094,-1.094 -0.307,-0.32 -0.62,-0.631 -0.938,-0.938 -0.285,-0.3 -0.58,-0.587 -0.875,-0.875 -0.441,-0.468 -0.879,-0.934 -1.344,-1.375 -0.241,-0.249 -0.502,-0.478 -0.75,-0.719 -0.381,-0.402 -0.758,-0.805 -1.156,-1.188 -0.31,-0.323 -0.616,-0.659 -0.938,-0.969 -2.648,-2.775 -5.721,-5.07 -9.188,-6.875 -5.095,-2.71 -11.05,-4.062 -17.875,-4.063 -6.829,0 -12.86,1.353 -18.06,4.063 -5.094,2.71 -9.375,6.529 -12.844,11.406 -3.36,4.769 -5.891,10.451 -7.625,17.06 -1.045,3.983 -1.797,8.203 -2.219,12.656 -0.048,-0.046 -0.108,-0.08 -0.156,-0.125 -0.199,-0.209 -0.418,-0.423 -0.625,-0.625 -0.034,-0.038 -0.059,-0.087 -0.094,-0.125 -0.123,-0.119 -0.249,-0.228 -0.375,-0.344 -0.173,-0.179 -0.353,-0.358 -0.531,-0.531 -0.32,-0.35 -0.659,-0.669 -1,-1 -0.025,-0.027 -0.037,-0.066 -0.063,-0.094 -0.09,-0.086 -0.19,-0.165 -0.281,-0.25 -0.215,-0.226 -0.432,-0.439 -0.656,-0.656 -0.025,-0.027 -0.037,-0.066 -0.063,-0.094 -0.09,-0.086 -0.19,-0.165 -0.281,-0.25 -0.215,-0.226 -0.432,-0.439 -0.656,-0.656 -0.025,-0.027 -0.037,-0.066 -0.063,-0.094 -0.09,-0.086 -0.19,-0.165 -0.281,-0.25 -0.204,-0.215 -0.412,-0.418 -0.625,-0.625 -0.034,-0.037 -0.06,-0.088 -0.094,-0.125 -0.09,-0.086 -0.19,-0.165 -0.281,-0.25 -0.199,-0.209 -0.418,-0.423 -0.625,-0.625 -0.034,-0.038 -0.059,-0.087 -0.094,-0.125 -0.123,-0.119 -0.249,-0.228 -0.375,-0.344 -0.173,-0.179 -0.353,-0.358 -0.531,-0.531 -0.32,-0.35 -0.659,-0.669 -1,-1 -0.025,-0.027 -0.037,-0.066 -0.063,-0.094 -0.09,-0.086 -0.19,-0.165 -0.281,-0.25 -0.215,-0.226 -0.432,-0.439 -0.656,-0.656 -0.025,-0.027 -0.037,-0.066 -0.063,-0.094 -0.09,-0.086 -0.19,-0.165 -0.281,-0.25 -0.215,-0.226 -0.432,-0.439 -0.656,-0.656 -0.025,-0.027 -0.037,-0.066 -0.063,-0.094 -0.069,-0.066 -0.149,-0.122 -0.219,-0.188 -0.39,-0.413 -0.797,-0.801 -1.219,-1.188 -0.158,-0.163 -0.306,-0.342 -0.469,-0.5 -0.034,-0.038 -0.059,-0.087 -0.094,-0.125 -0.09,-0.086 -0.19,-0.165 -0.281,-0.25 -0.202,-0.212 -0.415,-0.421 -0.625,-0.625 -0.315,-0.345 -0.664,-0.673 -1,-1 -0.32,-0.35 -0.659,-0.669 -1,-1 -0.025,-0.027 -0.037,-0.066 -0.063,-0.094 -0.09,-0.086 -0.19,-0.165 -0.281,-0.25 -0.215,-0.226 -0.432,-0.439 -0.656,-0.656 -0.025,-0.027 -0.037,-0.066 -0.063,-0.094 -0.069,-0.066 -0.149,-0.122 -0.219,-0.188 -0.39,-0.413 -0.797,-0.801 -1.219,-1.188 -0.158,-0.163 -0.306,-0.342 -0.469,-0.5 -0.034,-0.038 -0.059,-0.087 -0.094,-0.125 -0.09,-0.086 -0.19,-0.165 -0.281,-0.25 -0.202,-0.212 -0.415,-0.421 -0.625,-0.625 -0.315,-0.345 -0.664,-0.673 -1,-1 -0.32,-0.35 -0.659,-0.669 -1,-1 -0.025,-0.027 -0.037,-0.066 -0.063,-0.094 -0.09,-0.086 -0.19,-0.165 -0.281,-0.25 -0.215,-0.226 -0.432,-0.439 -0.656,-0.656 -0.025,-0.027 -0.037,-0.066 -0.063,-0.094 -0.069,-0.066 -0.149,-0.122 -0.219,-0.188 -0.39,-0.413 -0.797,-0.801 -1.219,-1.188 -0.158,-0.163 -0.306,-0.342 -0.469,-0.5 -0.034,-0.037 -0.06,-0.088 -0.094,-0.125 -0.09,-0.086 -0.19,-0.165 -0.281,-0.25 -0.199,-0.209 -0.418,-0.423 -0.625,-0.625 -0.034,-0.038 -0.059,-0.087 -0.094,-0.125 -0.123,-0.119 -0.249,-0.228 -0.375,-0.344 -0.173,-0.179 -0.353,-0.358 -0.531,-0.531 -0.32,-0.35 -0.659,-0.669 -1,-1 -0.025,-0.027 -0.037,-0.066 -0.063,-0.094 -0.09,-0.086 -0.19,-0.165 -0.281,-0.25 -0.215,-0.226 -0.432,-0.439 -0.656,-0.656 -0.025,-0.027 -0.037,-0.066 -0.063,-0.094 -0.09,-0.086 -0.19,-0.165 -0.281,-0.25 -0.215,-0.226 -0.432,-0.439 -0.656,-0.656 -0.025,-0.027 -0.037,-0.066 -0.063,-0.094 -0.09,-0.086 -0.19,-0.165 -0.281,-0.25 -0.204,-0.215 -0.412,-0.418 -0.625,-0.625 -0.034,-0.037 -0.06,-0.088 -0.094,-0.125 -0.09,-0.086 -0.19,-0.165 -0.281,-0.25 -0.199,-0.209 -0.418,-0.423 -0.625,-0.625 -0.034,-0.038 -0.059,-0.087 -0.094,-0.125 -0.09,-0.086 -0.19,-0.165 -0.281,-0.25 -0.202,-0.212 -0.415,-0.421 -0.625,-0.625 -0.32,-0.35 -0.659,-0.669 -1,-1 -0.025,-0.027 -0.037,-0.066 -0.063,-0.094 -0.09,-0.086 -0.19,-0.165 -0.281,-0.25 -0.215,-0.226 -0.432,-0.439 -0.656,-0.656 -0.025,-0.027 -0.037,-0.066 -0.063,-0.094 -0.069,-0.066 -0.149,-0.122 -0.219,-0.188 -0.962,-1.019 -2.01,-1.959 -3.156,-2.813 -3.252,-2.493 -7.135,-4.339 -11.688,-5.531 -4.553,-1.301 -9.597,-1.969 -15.12,-1.969"
     inkscape:connector-curvature="0"
     id="path6"
     style="fill-opacity:0.23500001" />
  <g
     id="g8"
     style="fill-rule:evenodd">
    <path
       d="M 256,1 C 115.17,1 1,115.17 1,256 1,396.83 115.17,511 256,511 396.83,511 511,396.83 511,256 511,115.17 396.83,1 256,1 m 8.827,44.931 c 120.9,0 218.9,98 218.9,218.9 0,120.9 -98,218.9 -218.9,218.9 -120.9,0 -218.93,-98 -218.93,-218.9 0,-120.9 98.03,-218.9 218.93,-218.9"
       inkscape:connector-curvature="0"
       id="path10"
       style="fill-opacity:0.06700003" />
    <g
       id="g12"
       style="fill-opacity:0.12900002">
      <path
         d="m 256,4.433 c -138.94,0 -251.57,112.63 -251.57,251.57 0,138.94 112.63,251.57 251.57,251.57 138.94,0 251.57,-112.63 251.57,-251.57 C 507.57,117.063 394.94,4.433 256,4.433 m 5.885,38.556 c 120.9,0 218.9,98 218.9,218.9 0,120.9 -98,218.9 -218.9,218.9 -120.9,0 -218.93,-98 -218.93,-218.9 0,-120.9 98.03,-218.9 218.93,-218.9"
         inkscape:connector-curvature="0"
         id="path14" />
      <path
         d="m 256,8.356 c -136.77,0 -247.64,110.87 -247.64,247.64 0,136.77 110.87,247.64 247.64,247.64 136.77,0 247.64,-110.87 247.64,-247.64 C 503.64,119.226 392.77,8.356 256,8.356 m 2.942,31.691 c 120.9,0 218.9,98 218.9,218.9 0,120.9 -98,218.9 -218.9,218.9 -120.9,0 -218.93,-98 -218.93,-218.9 0,-120.9 98.03,-218.9 218.93,-218.9"
         inkscape:connector-curvature="0"
         id="path16" />
    </g>
    <path
       d="m 253.04,7.859 c -135.42,0 -245.19,109.78 -245.19,245.19 0,135.42 109.78,245.19 245.19,245.19 135.42,0 245.19,-109.78 245.19,-245.19 0,-135.42 -109.78,-245.19 -245.19,-245.19 z m 0,26.297 c 120.9,0 218.9,98 218.9,218.9 0,120.9 -98,218.9 -218.9,218.9 -120.9,0 -218.93,-98 -218.93,-218.9 0,-120.9 98.03,-218.9 218.93,-218.9 z"
       inkscape:connector-curvature="0"
       id="path18"
       style="fill:#ffffff;stroke:#000000;stroke-width:4.90399981;stroke-opacity:0.31000001" />
  </g>
  <text
     x="729.64001"
     y="231.36"
     id="text20"
     style="font-size:129.22999573px;line-height:125%;letter-spacing:0;word-spacing:0;font-family:Gentium Book Basic">
    <tspan
       x="729.64001"
       y="231.36"
       id="tspan22" />
  </text>
  <text
     x="378.91"
     y="579.25"
     transform="scale(4.0128,0.2492)"
     id="text24"
     style="font-size:46.95399857px;text-anchor:middle;font-family:Arial" />
  <text
     x="1310.91"
     y="151.36"
     id="text26"
     style="font-size:129.22999573px;line-height:125%;letter-spacing:0;word-spacing:0;font-family:Gentium Book Basic">
    <tspan
       x="1310.91"
       y="151.36"
       id="tspan28" />
  </text>
  <text
     x="523.76001"
     y="258.22"
     transform="scale(4.0128,0.2492)"
     id="text30"
     style="font-size:46.95399857px;text-anchor:middle;font-family:Arial" />
  <text
     x="239.33"
     y="-29.900999"
     id="text32"
     style="font-size:129.22999573px;line-height:125%;letter-spacing:0;word-spacing:0;font-family:Gentium Book Basic">
    <tspan
       x="239.33"
       y="-29.900999"
       id="tspan34" />
  </text>
  <text
     x="256.72"
     y="-469.14001"
     transform="scale(4.0128,0.2492)"
     id="text36"
     style="font-size:46.95399857px;text-anchor:middle;font-family:Arial" />
  <text
     x="1337.38"
     y="-246.37"
     id="text38"
     style="font-size:129.22999573px;line-height:125%;letter-spacing:0;word-spacing:0;font-family:Gentium Book Basic">
    <tspan
       x="1337.38"
       y="-246.37"
       id="tspan40" />
  </text>
  <text
     x="530.35999"
     y="-1337.8101"
     transform="scale(4.0128,0.2492)"
     id="text42"
     style="font-size:46.95399857px;text-anchor:middle;font-family:Arial" />
  <text
     x="1918.65"
     y="-326.38"
     id="text44"
     style="font-size:129.22999573px;line-height:125%;letter-spacing:0;word-spacing:0;font-family:Gentium Book Basic">
    <tspan
       x="1918.65"
       y="-326.38"
       id="tspan46" />
  </text>
  <text
     x="675.21002"
     y="-1658.85"
     transform="scale(4.0128,0.2492)"
     id="text48"
     style="font-size:46.95399857px;text-anchor:middle;font-family:Arial" />
  <text
     x="1529.53"
     y="-798.78003"
     id="text50"
     style="font-size:129.22999573px;line-height:125%;letter-spacing:0;word-spacing:0;font-family:Gentium Book Basic">
    <tspan
       x="1529.53"
       y="-798.78003"
       id="tspan52" />
  </text>
  <text
     x="578.23999"
     y="-3554.51"
     transform="scale(4.0128,0.2492)"
     id="text54"
     style="font-size:46.95399857px;text-anchor:middle;font-family:Arial" />
  <text
     x="2110.79"
     y="-878.78003"
     id="text56"
     style="font-size:129.22999573px;line-height:125%;letter-spacing:0;word-spacing:0;font-family:Gentium Book Basic">
    <tspan
       x="2110.79"
       y="-878.78003"
       id="tspan58" />
  </text>
  <text
     x="723.09003"
     y="-3875.54"
     transform="scale(4.0128,0.2492)"
     id="text60"
     style="font-size:46.95399857px;text-anchor:middle;font-family:Arial" />
  <g
     id="g62"
     style="line-height:125%;letter-spacing:0;word-spacing:0">
    <text
       x="277.98999"
       y="535.94"
       id="text64"
       style="font-size:208.33000183px;font-family:Gentium Book Basic">
      <tspan
         x="277.98999"
         y="535.94"
         id="tspan66" />
    </text>
    <g
       transform="matrix(1.15994,0,0,1.15994,-40.943,-24.336)"
       id="g68"
       style="font-size:140.16999817px;fill:#ffffff;font-family:Aller">
      <text
         x="171.14999"
         y="216.77"
         id="text70">
        <tspan
           x="171.14999"
           y="216.77"
           id="tspan72">20</tspan>
      </text>
      <text
         x="173.33"
         y="349.72"
         id="text74">
        <tspan
           x="173.33"
           y="349.72"
           id="tspan76">48</tspan>
      </text>
    </g>
  </g>
</svg>
