<?xml version="1.0" encoding="UTF-8" standalone="no"?>
<!-- Created with Inkscape (http://www.inkscape.org/) -->

<svg
   xmlns:dc="http://purl.org/dc/elements/1.1/"
   xmlns:cc="http://creativecommons.org/ns#"
   xmlns:rdf="http://www.w3.org/1999/02/22-rdf-syntax-ns#"
   xmlns:svg="http://www.w3.org/2000/svg"
   xmlns="http://www.w3.org/2000/svg"
   xmlns:inkscape="http://www.inkscape.org/namespaces/inkscape"
   version="1.1"
   width="100%"
   height="100%"
   viewBox="0 0 512 512"
   id="svg2">
  <metadata
     id="metadata70">
    <rdf:RDF>
      <cc:Work
         rdf:about="">
        <dc:format>image/svg+xml</dc:format>
        <dc:type
           rdf:resource="http://purl.org/dc/dcmitype/StillImage" />
        <dc:title />
      </cc:Work>
    </rdf:RDF>
  </metadata>
  <defs
     id="defs68">
    <clipPath
       id="clipPath3394">
      <path
         d="m 471.9456,253.05189 c 0,120.89699 -98.00565,218.90724 -218.90724,218.90724 -120.89698,0 -218.90723,-98.00566 -218.90723,-218.90724 0,-120.89698 98.00565,-218.907232 218.90723,-218.907232 120.89699,0 218.90724,98.005652 218.90724,218.907232"
         inkscape:connector-curvature="0"
         id="path3396"
         style="fill:#0078ad;fill-rule:evenodd" />
    </clipPath>
  </defs>
  <path
     d="m 471.9456,253.05189 c 0,120.89699 -98.00565,218.90724 -218.90724,218.90724 -120.89698,0 -218.90723,-98.00566 -218.90723,-218.90724 0,-120.89698 98.00565,-218.907232 218.90723,-218.907232 120.89699,0 218.90724,98.005652 218.90724,218.907232"
     inkscape:connector-curvature="0"
     id="path8"
     style="fill:#0078ad;fill-rule:evenodd" />
  <path
     d="M 256,1 C 115.17,1 1,115.17 1,256 1,396.83 115.17,511 256,511 396.83,511 511,396.83 511,256 511,115.17 396.83,1 256,1 m 8.827,44.931 c 120.9,0 218.9,98 218.9,218.9 0,120.9 -98,218.9 -218.9,218.9 -120.9,0 -218.93,-98 -218.93,-218.9 0,-120.9 98.03,-218.9 218.93,-218.9"
     inkscape:connector-curvature="0"
     id="path10"
     style="fill-opacity:0.06700003;fill-rule:evenodd" />
  <path
     d="M 256,4.43 C 117.06,4.43 4.43,117.06 4.43,256 4.43,394.94 117.06,507.57 256,507.57 394.94,507.57 507.57,394.94 507.57,256 507.57,117.06 394.94,4.43 256,4.43 m 5.885,38.556 c 120.9,0 218.9,98 218.9,218.9 0,120.9 -98,218.9 -218.9,218.9 -120.9,0 -218.93,-98 -218.93,-218.9 0,-120.9 98.03,-218.9 218.93,-218.9"
     inkscape:connector-curvature="0"
     id="path14"
     style="fill-opacity:0.12900002;fill-rule:evenodd" />
  <path
     d="M 256,8.36 C 119.23,8.36 8.36,119.23 8.36,256 8.36,392.77 119.23,503.64 256,503.64 392.77,503.64 503.64,392.77 503.64,256 503.64,119.23 392.77,8.36 256,8.36 m 2.942,31.691 c 120.9,0 218.9,98 218.9,218.9 0,120.9 -98,218.9 -218.9,218.9 -120.9,0 -218.93,-98 -218.93,-218.9 0,-120.9 98.03,-218.9 218.93,-218.9"
     inkscape:connector-curvature="0"
     id="path16"
     style="fill-opacity:0.12900002;fill-rule:evenodd" />
  <path
     d="M 253.04,7.86 C 117.62,7.86 7.85,117.64 7.85,253.05 c 0,135.42 109.78,245.19 245.19,245.19 135.42,0 245.19,-109.78 245.19,-245.19 C 498.23,117.63 388.45,7.86 253.04,7.86 z m 0,26.297 c 120.9,0 218.9,98 218.9,218.9 0,120.9 -98,218.9 -218.9,218.9 -120.9,0 -218.93,-98 -218.93,-218.9 0,-120.9 98.03,-218.9 218.93,-218.9 z"
     inkscape:connector-curvature="0"
     id="path18"
     style="fill:#ffffff;fill-rule:evenodd;stroke:#000000;stroke-width:4.90399981;stroke-opacity:0.31000001" />
  <text
     x="729.64001"
     y="231.35997"
     id="text20"
     style="font-size:129.22999573px;line-height:125%;letter-spacing:0;word-spacing:0;font-family:Gentium Book Basic">
    <tspan
       x="729.64001"
       y="231.35997"
       id="tspan22" />
  </text>
  <text
     x="378.90805"
     y="579.25812"
     transform="scale(4.0128205,0.24920128)"
     id="text24"
     style="font-size:46.95375824px;text-anchor:middle;font-family:Arial" />
  <text
     x="1310.91"
     y="151.35997"
     id="text26"
     style="font-size:129.22999573px;line-height:125%;letter-spacing:0;word-spacing:0;font-family:Gentium Book Basic">
    <tspan
       x="1310.91"
       y="151.35997"
       id="tspan28" />
  </text>
  <text
     x="523.75732"
     y="258.21997"
     transform="scale(4.0128205,0.24920128)"
     id="text30"
     style="font-size:46.95375824px;text-anchor:middle;font-family:Arial" />
  <text
     x="239.33"
     y="-29.900009"
     id="text32"
     style="font-size:129.22999573px;line-height:125%;letter-spacing:0;word-spacing:0;font-family:Gentium Book Basic">
    <tspan
       x="239.33"
       y="-29.900009"
       id="tspan34" />
  </text>
  <text
     x="256.71869"
     y="-469.1264"
     transform="scale(4.0128205,0.24920128)"
     id="text36"
     style="font-size:46.95375824px;text-anchor:middle;font-family:Arial" />
  <text
     x="1337.38"
     y="-246.37001"
     id="text38"
     style="font-size:129.22999573px;line-height:125%;letter-spacing:0;word-spacing:0;font-family:Gentium Book Basic">
    <tspan
       x="1337.38"
       y="-246.37001"
       id="tspan40" />
  </text>
  <text
     x="530.3573"
     y="-1337.802"
     transform="scale(4.0128205,0.24920128)"
     id="text42"
     style="font-size:46.95375824px;text-anchor:middle;font-family:Arial" />
  <text
     x="1918.65"
     y="-326.37"
     id="text44"
     style="font-size:129.22999573px;line-height:125%;letter-spacing:0;word-spacing:0;font-family:Gentium Book Basic">
    <tspan
       x="1918.65"
       y="-326.37"
       id="tspan46" />
  </text>
  <text
     x="675.20654"
     y="-1658.8303"
     transform="scale(4.0128205,0.24920128)"
     id="text48"
     style="font-size:46.95375824px;text-anchor:middle;font-family:Arial" />
  <text
     x="1529.53"
     y="-798.77002"
     id="text50"
     style="font-size:129.22999573px;line-height:125%;letter-spacing:0;word-spacing:0;font-family:Gentium Book Basic">
    <tspan
       x="1529.53"
       y="-798.77002"
       id="tspan52" />
  </text>
  <text
     x="578.237"
     y="-3554.4807"
     transform="scale(4.0128205,0.24920128)"
     id="text54"
     style="font-size:46.95375824px;text-anchor:middle;font-family:Arial" />
  <text
     x="2110.79"
     y="-878.78003"
     id="text56"
     style="font-size:129.22999573px;line-height:125%;letter-spacing:0;word-spacing:0;font-family:Gentium Book Basic">
    <tspan
       x="2110.79"
       y="-878.78003"
       id="tspan58" />
  </text>
  <text
     x="723.0863"
     y="-3875.519"
     transform="scale(4.0128205,0.24920128)"
     id="text60"
     style="font-size:46.95375824px;text-anchor:middle;font-family:Arial" />
  <text
     x="277.98999"
     y="535.94006"
     id="text62"
     style="font-size:208.33000183px;line-height:125%;letter-spacing:0;word-spacing:0;font-family:Gentium Book Basic">
    <tspan
       x="277.98999"
       y="535.94006"
       id="tspan64" />
  </text>
  <g
     clip-path="url(#clipPath3394)"
     id="g3254"
     style="opacity:0.25;fill:#000000;fill-opacity:1">
    <path
       d="m 256,119.48818 c -61.51681,0 -123.03501,20.50514 -173.346346,61.503 L 471.56238,569.89991 c 50.31134,-40.99786 111.82954,-61.503 173.34635,-61.503 z"
       inkscape:connector-curvature="0"
       id="path3256"
       style="fill:#000000" />
    <path
       d="M 82.653654,180.99118 116.8428,222.68047 505.75153,611.5892 471.56238,569.89991 z"
       inkscape:connector-curvature="0"
       id="path3258"
       style="fill:#000000" />
    <path
       d="m 116.8428,222.68047 c 37.92251,-30.89953 86.36925,-49.48996 139.14814,-49.48996 l 388.90873,388.90873 c -52.77889,0 -101.22563,18.59043 -139.14814,49.48996 z"
       inkscape:connector-curvature="0"
       id="path3260"
       style="fill:#000000" />
    <path
       d="m 255.99094,173.19051 c 52.74179,0 101.18811,18.58865 139.16627,49.53517 L 784.06594,611.63441 C 746.08778,580.68789 697.64146,562.09924 644.89967,562.09924 z"
       inkscape:connector-curvature="0"
       id="path3262"
       style="fill:#000000" />
    <path
       d="m 395.15721,222.72568 34.18914,-41.7345 388.90873,388.90873 -34.18914,41.7345 z"
       inkscape:connector-curvature="0"
       id="path3264"
       style="fill:#000000" />
    <path
       d="M 429.34635,180.99118 C 379.03269,139.99332 317.51682,119.48818 256,119.48818 l 388.90873,388.90873 c 61.51682,0 123.03269,20.50514 173.34635,61.503 z"
       inkscape:connector-curvature="0"
       id="path3266"
       style="fill:#000000" />
    <path
       d="m 256,185.97298 c -49.70836,0 -95.34721,17.51251 -131.10364,46.62765 l 388.90873,388.90873 c 35.75643,-29.11514 81.39528,-46.62765 131.10364,-46.62765 z"
       inkscape:connector-curvature="0"
       id="path3268"
       style="fill:#000000" />
    <path
       d="m 124.89636,232.60063 34.19819,41.69018 388.90873,388.90873 -34.19819,-41.69018 z"
       inkscape:connector-curvature="0"
       id="path3270"
       style="fill:#000000" />
    <path
       d="M 159.09455,274.29081 C 185.52806,252.75474 219.25561,239.79321 256,239.79321 l 388.90873,388.90873 c -36.74439,0 -70.47194,12.96153 -96.90545,34.4976 z"
       inkscape:connector-curvature="0"
       id="path3272"
       style="fill:#000000" />
    <path
       d="m 256,239.79321 c 36.70729,0 70.46731,12.96153 96.90545,34.4976 l 388.90873,388.90873 c -26.43814,-21.53607 -60.19816,-34.4976 -96.90545,-34.4976 z"
       inkscape:connector-curvature="0"
       id="path3274"
       style="fill:#000000" />
    <path
       d="m 352.90545,274.29081 34.1529,-41.69018 388.90873,388.90873 -34.1529,41.69018 z"
       inkscape:connector-curvature="0"
       id="path3276"
       style="fill:#000000" />
    <path
       d="M 387.05835,232.60063 C 351.30192,203.48549 305.67126,185.97298 256,185.97298 l 388.90873,388.90873 c 49.67126,0 95.30192,17.51251 131.05835,46.62765 z"
       inkscape:connector-curvature="0"
       id="path3278"
       style="fill:#000000" />
    <path
       d="m 256,252.70244 c -33.62747,0 -64.53227,11.87653 -88.70695,31.58919 l 388.90873,388.90873 c 24.17468,-19.71266 55.07948,-31.58919 88.70695,-31.58919 z"
       inkscape:connector-curvature="0"
       id="path3280"
       style="fill:#000000" />
    <path
       d="m 167.29305,284.29163 36.04626,43.99138 388.90873,388.90873 -36.04626,-43.99138 z"
       inkscape:connector-curvature="0"
       id="path3282"
       style="fill:#000000" />
    <path
       d="M 203.33931,328.28301 C 217.55098,315.67162 235.89773,307.99948 256,307.99948 l 388.90873,388.90873 c -20.10227,0 -38.44902,7.67214 -52.66069,20.28353 z"
       inkscape:connector-curvature="0"
       id="path3284"
       style="fill:#000000" />
    <path
       d="m 256,307.99948 c 20.06517,0 38.44438,7.67214 52.66069,20.28353 L 697.56942,717.19174 C 683.35311,704.58035 664.9739,696.90821 644.90873,696.90821 z"
       inkscape:connector-curvature="0"
       id="path3286"
       style="fill:#000000" />
    <path
       d="m 308.66069,328.28301 36.06437,-43.99138 388.90873,388.90873 -36.06437,43.99138 z"
       inkscape:connector-curvature="0"
       id="path3288"
       style="fill:#000000" />
    <path
       d="M 344.72506,284.29163 C 320.49009,264.57897 289.63675,252.70244 256,252.70244 l 388.90873,388.90873 c 33.63675,0 64.49009,11.87653 88.72506,31.58919 z"
       inkscape:connector-curvature="0"
       id="path3290"
       style="fill:#000000" />
    <path
       d="m 255.991,320.91757 c -17.02709,0 -32.58517,6.50381 -44.58901,17.16769 l 388.90873,388.90873 c 12.00384,-10.66388 27.56192,-17.16769 44.58901,-17.16769 z"
       inkscape:connector-curvature="0"
       id="path3292"
       style="fill:#000000" />
    <path
       d="M 211.40199,338.08526 255.991,392.51182 644.89973,781.42055 600.31072,726.99399 z"
       inkscape:connector-curvature="0"
       id="path3294"
       style="fill:#000000" />
    <path
       d="m 255.991,392.51182 44.59807,-54.39021 388.90873,388.90873 -44.59807,54.39021 z"
       inkscape:connector-curvature="0"
       id="path3296"
       style="fill:#000000" />
    <path
       d="M 300.58907,338.12161 C 288.58523,327.41075 272.98563,320.91757 255.991,320.91757 L 644.89973,709.8263 c 16.99463,0 32.59423,6.49318 44.59807,17.20404 z"
       inkscape:connector-curvature="0"
       id="path3298"
       style="fill:#000000" />
  </g>
  <path
     d="m 256,119.48818 c -61.51681,0 -123.03501,20.50514 -173.346346,61.503 l 34.189146,41.68929 c 37.92251,-30.89953 86.36925,-49.48996 139.14814,-49.48996 52.74179,0 101.18811,18.58865 139.16627,49.53517 l 34.18914,-41.7345 C 379.03269,139.99332 317.51682,119.48818 256,119.48818 z m 0,66.4848 c -49.70836,0 -95.34721,17.51251 -131.10364,46.62765 l 34.19819,41.69018 c 26.43351,-21.53607 60.16106,-34.4976 96.90545,-34.4976 36.70729,0 70.46731,12.96153 96.90545,34.4976 l 34.1529,-41.69018 C 351.30192,203.48549 305.67126,185.97298 256,185.97298 z m 0,66.72946 c -33.62747,0 -64.53227,11.87653 -88.70695,31.58919 l 36.04626,43.99138 C 217.55098,315.67162 235.89773,307.99948 256,307.99948 c 20.06517,0 38.44438,7.67214 52.66069,20.28353 l 36.06437,-43.99138 C 320.49009,264.57897 289.63675,252.70244 256,252.70244 z m -0.009,68.21513 c -17.02709,0 -32.58517,6.50381 -44.58901,17.16769 l 44.58901,54.42656 44.59807,-54.39021 C 288.58523,327.41075 272.98563,320.91757 255.991,320.91757 z"
     inkscape:connector-curvature="0"
     id="path440-1"
     style="fill:#ffffff;fill-opacity:1" />
</svg>
