<?xml version="1.0" encoding="UTF-8" standalone="no"?>
<!-- Created with Inkscape (http://www.inkscape.org/) -->

<svg
   xmlns:dc="http://purl.org/dc/elements/1.1/"
   xmlns:cc="http://creativecommons.org/ns#"
   xmlns:rdf="http://www.w3.org/1999/02/22-rdf-syntax-ns#"
   xmlns:svg="http://www.w3.org/2000/svg"
   xmlns="http://www.w3.org/2000/svg"
   xmlns:inkscape="http://www.inkscape.org/namespaces/inkscape"
   version="1.1"
   width="100%"
   height="100%"
   viewBox="0 0 512 512"
   id="svg2">
  <metadata
     id="metadata80">
    <rdf:RDF>
      <cc:Work
         rdf:about="">
        <dc:format>image/svg+xml</dc:format>
        <dc:type
           rdf:resource="http://purl.org/dc/dcmitype/StillImage" />
      </cc:Work>
    </rdf:RDF>
  </metadata>
  <defs
     id="defs78" />
  <g
     id="g4"
     style="fill-rule:evenodd">
    <path
       d="m 471.95,253.05 c 0,120.9 -98.01,218.9 -218.9,218.9 -120.9,0 -218.9,-98.01 -218.9,-218.9 0,-120.9 98.01,-218.9 218.9,-218.9 120.9,0 218.9,98.01 218.9,218.9"
       inkscape:connector-curvature="0"
       id="path6"
       style="fill:#487387" />
    <path
       d="m 256,106.38 c -49.42,0 -92.62,26.566 -116.19,66.16 -5.539,9.305 -9.96,19.339 -13.156,29.906 l 1.219,0.344 c -0.068,0.221 -0.152,0.435 -0.219,0.656 0,0 1.196,0.337 1.219,0.344 -0.068,0.221 -0.152,0.435 -0.219,0.656 0,0 1.166,0.337 1.188,0.344 -0.064,0.208 -0.124,0.416 -0.188,0.625 0,0 1.166,0.337 1.188,0.344 -0.068,0.22 -0.152,0.436 -0.219,0.656 0,0 1.196,0.337 1.219,0.344 -0.068,0.221 -0.152,0.435 -0.219,0.656 0,0 1.196,0.337 1.219,0.344 -0.068,0.221 -0.152,0.435 -0.219,0.656 0,0 1.196,0.337 1.219,0.344 -0.068,0.221 -0.152,0.435 -0.219,0.656 0,0 1.196,0.337 1.219,0.344 -0.068,0.221 -0.152,0.435 -0.219,0.656 0,0 1.166,0.337 1.188,0.344 -0.064,0.208 -0.124,0.416 -0.188,0.625 0,0 1.166,0.337 1.188,0.344 -0.068,0.22 -0.152,0.436 -0.219,0.656 0,0 1.196,0.337 1.219,0.344 -0.068,0.221 -0.152,0.435 -0.219,0.656 0,0 1.196,0.337 1.219,0.344 -0.068,0.221 -0.152,0.435 -0.219,0.656 0,0 1.196,0.337 1.219,0.344 -0.068,0.221 -0.152,0.435 -0.219,0.656 0,0 1.196,0.337 1.219,0.344 -0.068,0.221 -0.152,0.435 -0.219,0.656 0,0 1.166,0.337 1.188,0.344 -0.065,0.21 -0.124,0.415 -0.188,0.625 0,0 1.166,0.337 1.188,0.344 -0.068,0.22 -0.152,0.436 -0.219,0.656 0,0 1.196,0.337 1.219,0.344 -0.068,0.221 -0.152,0.435 -0.219,0.656 0,0 1.196,0.337 1.219,0.344 -0.068,0.221 -0.152,0.435 -0.219,0.656 0,0 1.196,0.337 1.219,0.344 -0.068,0.221 -0.152,0.435 -0.219,0.656 0,0 1.196,0.337 1.219,0.344 -0.068,0.221 -0.152,0.435 -0.219,0.656 0,0 1.196,0.337 1.219,0.344 -0.068,0.221 -0.152,0.435 -0.219,0.656 0,0 1.136,0.338 1.156,0.344 -0.064,0.208 -0.125,0.417 -0.188,0.625 0,0 1.196,0.337 1.219,0.344 -0.068,0.22 -0.152,0.436 -0.219,0.656 0,0 1.196,0.337 1.219,0.344 -0.068,0.221 -0.152,0.435 -0.219,0.656 0,0 1.196,0.337 1.219,0.344 -0.068,0.221 -0.152,0.435 -0.219,0.656 0,0 1.196,0.337 1.219,0.344 -0.068,0.221 -0.152,0.435 -0.219,0.656 0,0 1.196,0.337 1.219,0.344 -0.068,0.221 -0.152,0.435 -0.219,0.656 0,0 1.166,0.337 1.188,0.344 -0.064,0.208 -0.124,0.416 -0.188,0.625 0,0 1.166,0.337 1.188,0.344 -0.068,0.22 -0.152,0.436 -0.219,0.656 l 1.219,0.344 c -0.068,0.221 -0.152,0.435 -0.219,0.656 0,0 1.196,0.337 1.219,0.344 -0.068,0.221 -0.152,0.435 -0.219,0.656 0,0 1.196,0.337 1.219,0.344 -0.068,0.221 -0.152,0.435 -0.219,0.656 0,0 1.196,0.337 1.219,0.344 -0.068,0.221 -0.152,0.435 -0.219,0.656 l 1.188,0.344 c -0.065,0.21 -0.124,0.415 -0.188,0.625 l 1.188,0.344 c -0.068,0.22 -0.152,0.436 -0.219,0.656 0,0 1.196,0.337 1.219,0.344 -0.068,0.221 -0.152,0.435 -0.219,0.656 0,0 1.196,0.337 1.219,0.344 -0.068,0.221 -0.152,0.435 -0.219,0.656 l 1.219,0.344 c -0.068,0.221 -0.152,0.435 -0.219,0.656 0,0 1.196,0.337 1.219,0.344 -0.029,0.095 -0.065,0.187 -0.094,0.281 h -73.53 v 0.031 c -10e-4,0.258 0,0.523 0,0.781 0,46.06 18.981,87.69 49.563,117.47 0.145,0.146 0.292,0.292 0.438,0.438 0.323,0.313 0.643,0.628 0.969,0.938 0.005,0.005 -0.005,0.026 0,0.031 0.14,0.14 0.297,0.267 0.438,0.406 0.051,0.053 0.105,0.103 0.156,0.156 0.151,0.152 0.286,0.318 0.438,0.469 0.491,0.499 0.972,1.01 1.469,1.5 0.166,0.167 0.333,0.333 0.5,0.5 0.163,0.16 0.336,0.309 0.5,0.469 0.478,0.482 0.954,0.961 1.438,1.438 0.021,0.021 0.042,0.042 0.063,0.063 0.269,0.265 0.541,0.518 0.813,0.781 0.01,0.011 0.021,0.021 0.031,0.031 0.031,0.032 0.063,0.062 0.094,0.094 0.157,0.157 0.312,0.313 0.469,0.469 0.051,0.053 0.105,0.103 0.156,0.156 0.151,0.152 0.286,0.318 0.438,0.469 0.491,0.499 0.972,1.01 1.469,1.5 0.166,0.167 0.333,0.333 0.5,0.5 0.131,0.129 0.274,0.246 0.406,0.375 0.508,0.513 1.017,1.025 1.531,1.531 0.021,0.021 0.042,0.042 0.063,0.063 0.268,0.263 0.543,0.52 0.813,0.781 0.01,0.011 0.021,0.021 0.031,0.031 0.057,0.057 0.099,0.13 0.156,0.188 0.131,0.129 0.275,0.246 0.406,0.375 0.191,0.184 0.37,0.38 0.563,0.563 0.01,0.011 0.021,0.021 0.031,0.031 0.006,0.006 -0.006,0.025 0,0.031 l 0.031,0.031 c 0.45,0.458 0.888,0.922 1.344,1.375 0.363,0.366 0.728,0.731 1.094,1.094 0.166,0.167 0.333,0.333 0.5,0.5 0.31,0.305 0.625,0.604 0.938,0.906 0.021,0.021 0.042,0.042 0.063,0.063 0.27,0.261 0.541,0.522 0.813,0.781 0.01,0.011 0.021,0.021 0.031,0.031 0.057,0.057 0.099,0.13 0.156,0.188 0.131,0.129 0.275,0.246 0.406,0.375 0.191,0.184 0.37,0.38 0.563,0.563 0.01,0.011 0.021,0.021 0.031,0.031 0.006,0.006 -0.006,0.025 0,0.031 l 0.031,0.031 c 0.45,0.458 0.888,0.922 1.344,1.375 0.363,0.366 0.728,0.731 1.094,1.094 0.166,0.167 0.333,0.333 0.5,0.5 0.31,0.305 0.625,0.604 0.938,0.906 0.021,0.021 0.042,0.042 0.063,0.063 0.27,0.261 0.541,0.522 0.813,0.781 0.01,0.011 0.021,0.021 0.031,0.031 0.057,0.057 0.099,0.13 0.156,0.188 0.131,0.129 0.275,0.246 0.406,0.375 0.191,0.184 0.37,0.38 0.563,0.563 0.005,0.005 -0.005,0.026 0,0.031 0.14,0.14 0.297,0.267 0.438,0.406 0.051,0.053 0.105,0.103 0.156,0.156 0.151,0.152 0.286,0.318 0.438,0.469 0.491,0.499 0.972,1.01 1.469,1.5 0.166,0.167 0.333,0.333 0.5,0.5 0.163,0.16 0.336,0.309 0.5,0.469 0.478,0.482 0.954,0.961 1.438,1.438 0.021,0.021 0.042,0.042 0.063,0.063 0.269,0.265 0.541,0.518 0.813,0.781 0.01,0.011 0.021,0.021 0.031,0.031 0.031,0.032 0.063,0.062 0.094,0.094 0.157,0.157 0.312,0.313 0.469,0.469 0.051,0.053 0.105,0.103 0.156,0.156 0.151,0.152 0.286,0.318 0.438,0.469 0.491,0.499 0.972,1.01 1.469,1.5 0.166,0.167 0.333,0.333 0.5,0.5 0.131,0.129 0.274,0.246 0.406,0.375 0.508,0.513 1.017,1.025 1.531,1.531 0.021,0.021 0.042,0.042 0.063,0.063 0.268,0.263 0.543,0.52 0.813,0.781 0.01,0.011 0.021,0.021 0.031,0.031 0.057,0.057 0.099,0.13 0.156,0.188 0.131,0.129 0.275,0.246 0.406,0.375 0.191,0.184 0.37,0.38 0.563,0.563 0.01,0.011 0.021,0.021 0.031,0.031 0.006,0.006 -0.006,0.025 0,0.031 l 0.031,0.031 c 0.45,0.458 0.888,0.922 1.344,1.375 0.363,0.366 0.728,0.731 1.094,1.094 0.166,0.167 0.333,0.333 0.5,0.5 0.31,0.305 0.625,0.604 0.938,0.906 0.021,0.021 0.042,0.042 0.063,0.063 0.27,0.261 0.541,0.522 0.813,0.781 0.01,0.011 0.021,0.021 0.031,0.031 0.057,0.057 0.099,0.13 0.156,0.188 0.131,0.129 0.275,0.246 0.406,0.375 0.191,0.184 0.37,0.38 0.563,0.563 0.005,0.005 -0.005,0.026 0,0.031 0.14,0.14 0.297,0.267 0.438,0.406 0.051,0.053 0.105,0.103 0.156,0.156 0.151,0.152 0.286,0.318 0.438,0.469 0.491,0.499 0.972,1.01 1.469,1.5 0.166,0.167 0.333,0.333 0.5,0.5 0.163,0.16 0.336,0.309 0.5,0.469 0.478,0.482 0.954,0.961 1.438,1.438 0.021,0.021 0.042,0.042 0.063,0.063 0.269,0.265 0.541,0.518 0.813,0.781 0.01,0.011 0.021,0.021 0.031,0.031 0.031,0.032 0.063,0.062 0.094,0.094 0.157,0.157 0.312,0.313 0.469,0.469 0.051,0.053 0.105,0.103 0.156,0.156 0.151,0.152 0.286,0.318 0.438,0.469 0.491,0.499 0.972,1.01 1.469,1.5 0.166,0.167 0.333,0.333 0.5,0.5 0.131,0.129 0.274,0.246 0.406,0.375 0.51,0.515 1.015,1.023 1.531,1.531 0.021,0.021 0.042,0.042 0.063,0.063 0.269,0.265 0.541,0.518 0.813,0.781 0.01,0.011 0.021,0.021 0.031,0.031 0.187,0.188 0.374,0.375 0.563,0.563 0.031,0.032 0.063,0.062 0.094,0.094 0.129,0.133 0.245,0.274 0.375,0.406 0.052,0.052 0.104,0.104 0.156,0.156 0.45,0.458 0.888,0.922 1.344,1.375 0.363,0.366 0.728,0.731 1.094,1.094 0.166,0.167 0.333,0.333 0.5,0.5 0.31,0.305 0.625,0.604 0.938,0.906 0.021,0.021 0.042,0.042 0.063,0.063 0.27,0.261 0.541,0.522 0.813,0.781 0.01,0.011 0.021,0.021 0.031,0.031 0.057,0.057 0.099,0.13 0.156,0.188 0.131,0.129 0.275,0.246 0.406,0.375 0.191,0.184 0.37,0.38 0.563,0.563 0.01,0.011 0.021,0.021 0.031,0.031 0.006,0.006 -0.006,0.025 0,0.031 l 0.031,0.031 c 0.45,0.458 0.888,0.922 1.344,1.375 0.363,0.366 0.728,0.731 1.094,1.094 0.166,0.167 0.333,0.333 0.5,0.5 0.31,0.305 0.625,0.604 0.938,0.906 0.021,0.021 0.042,0.042 0.063,0.063 0.27,0.261 0.541,0.522 0.813,0.781 0.01,0.011 0.021,0.021 0.031,0.031 0.057,0.057 0.099,0.13 0.156,0.188 0.131,0.129 0.275,0.246 0.406,0.375 0.191,0.184 0.37,0.38 0.563,0.563 0.005,0.005 -0.005,0.026 0,0.031 0.14,0.14 0.297,0.267 0.438,0.406 0.051,0.053 0.105,0.103 0.156,0.156 0.151,0.152 0.286,0.318 0.438,0.469 0.491,0.499 0.972,1.01 1.469,1.5 0.166,0.167 0.333,0.333 0.5,0.5 0.163,0.16 0.336,0.309 0.5,0.469 0.478,0.482 0.954,0.961 1.438,1.438 0.021,0.021 0.042,0.042 0.063,0.063 0.269,0.265 0.541,0.518 0.813,0.781 0.01,0.011 0.021,0.021 0.031,0.031 0.031,0.032 0.063,0.062 0.094,0.094 0.157,0.157 0.312,0.313 0.469,0.469 0.051,0.053 0.105,0.103 0.156,0.156 0.151,0.152 0.286,0.318 0.438,0.469 0.491,0.499 0.972,1.01 1.469,1.5 0.166,0.167 0.333,0.333 0.5,0.5 0.131,0.129 0.274,0.246 0.406,0.375 0.508,0.513 1.017,1.025 1.531,1.531 0.021,0.021 0.042,0.042 0.063,0.063 0.268,0.263 0.543,0.52 0.813,0.781 0.01,0.011 0.021,0.021 0.031,0.031 0.057,0.057 0.099,0.13 0.156,0.188 0.131,0.129 0.275,0.246 0.406,0.375 0.191,0.184 0.37,0.38 0.563,0.563 0.01,0.011 0.021,0.021 0.031,0.031 0.006,0.006 -0.006,0.025 0,0.031 l 0.031,0.031 c 0.45,0.458 0.888,0.922 1.344,1.375 0.363,0.366 0.728,0.731 1.094,1.094 0.166,0.167 0.333,0.333 0.5,0.5 0.31,0.305 0.625,0.604 0.938,0.906 0.021,0.021 0.042,0.042 0.063,0.063 0.27,0.261 0.541,0.522 0.813,0.781 0.01,0.011 0.021,0.021 0.031,0.031 0.057,0.057 0.099,0.13 0.156,0.188 0.131,0.129 0.275,0.246 0.406,0.375 0.191,0.184 0.37,0.38 0.563,0.563 0.005,0.005 -0.005,0.026 0,0.031 0.14,0.14 0.297,0.267 0.438,0.406 0.051,0.053 0.105,0.103 0.156,0.156 0.151,0.152 0.286,0.318 0.438,0.469 0.491,0.499 0.972,1.01 1.469,1.5 0.166,0.167 0.333,0.333 0.5,0.5 0.163,0.16 0.336,0.309 0.5,0.469 0.478,0.482 0.954,0.961 1.438,1.438 0.021,0.021 0.042,0.042 0.063,0.063 0.269,0.265 0.541,0.518 0.813,0.781 0.01,0.011 0.021,0.021 0.031,0.031 0.031,0.032 0.063,0.062 0.094,0.094 0.157,0.157 0.312,0.313 0.469,0.469 0.051,0.053 0.105,0.103 0.156,0.156 0.151,0.152 0.286,0.318 0.438,0.469 0.491,0.499 0.972,1.01 1.469,1.5 0.166,0.167 0.333,0.333 0.5,0.5 0.163,0.16 0.336,0.309 0.5,0.469 0.478,0.482 0.954,0.961 1.438,1.438 0.021,0.021 0.042,0.042 0.063,0.063 0.269,0.265 0.541,0.518 0.813,0.781 0.01,0.011 0.021,0.021 0.031,0.031 0.187,0.188 0.374,0.375 0.563,0.563 0.031,0.032 0.063,0.062 0.094,0.094 0.129,0.133 0.245,0.274 0.375,0.406 0.052,0.052 0.104,0.104 0.156,0.156 0.482,0.49 0.949,0.985 1.438,1.469 0.166,0.167 0.333,0.333 0.5,0.5 0.131,0.129 0.274,0.246 0.406,0.375 0.508,0.513 1.017,1.025 1.531,1.531 0.021,0.021 0.042,0.042 0.063,0.063 0.268,0.263 0.543,0.52 0.813,0.781 0.01,0.011 0.021,0.021 0.031,0.031 0.057,0.057 0.099,0.13 0.156,0.188 0.131,0.129 0.275,0.246 0.406,0.375 0.191,0.184 0.37,0.38 0.563,0.563 0.01,0.011 0.021,0.021 0.031,0.031 0.006,0.006 -0.006,0.025 0,0.031 l 0.031,0.031 c 0.45,0.458 0.888,0.922 1.344,1.375 0.363,0.366 0.728,0.731 1.094,1.094 0.166,0.167 0.333,0.333 0.5,0.5 0.31,0.305 0.625,0.604 0.938,0.906 0.021,0.021 0.042,0.042 0.063,0.063 0.27,0.261 0.541,0.522 0.813,0.781 0.01,0.011 0.021,0.021 0.031,0.031 0.031,0.031 0.067,0.059 0.094,0.094 115.9,-0.73 210.43,-91.52 217.13,-205.91 -0.042,-0.042 -0.083,-0.083 -0.125,-0.125 -0.332,-0.336 -0.665,-0.668 -1,-1 -0.332,-0.336 -0.665,-0.668 -1,-1 -0.329,-0.332 -0.668,-0.671 -1,-1 -0.65,-0.658 -1.305,-1.325 -1.969,-1.969 -0.166,-0.168 -0.333,-0.333 -0.5,-0.5 -0.168,-0.164 -0.331,-0.336 -0.5,-0.5 -0.847,-0.875 -1.724,-1.711 -2.594,-2.563 -0.786,-0.802 -1.569,-1.624 -2.375,-2.406 -0.166,-0.168 -0.333,-0.333 -0.5,-0.5 -0.168,-0.164 -0.331,-0.336 -0.5,-0.5 -0.332,-0.336 -0.665,-0.668 -1,-1 -0.332,-0.336 -0.665,-0.668 -1,-1 -0.332,-0.336 -0.665,-0.668 -1,-1 -0.65,-0.658 -1.305,-1.325 -1.969,-1.969 -0.166,-0.168 -0.333,-0.333 -0.5,-0.5 -0.168,-0.164 -0.331,-0.336 -0.5,-0.5 -0.332,-0.336 -0.665,-0.668 -1,-1 -0.332,-0.336 -0.665,-0.668 -1,-1 -0.332,-0.336 -0.665,-0.668 -1,-1 -0.329,-0.332 -0.668,-0.671 -1,-1 -0.322,-0.325 -0.644,-0.647 -0.969,-0.969 -0.332,-0.336 -0.665,-0.668 -1,-1 -0.332,-0.336 -0.665,-0.668 -1,-1 -0.332,-0.336 -0.665,-0.668 -1,-1 -0.332,-0.336 -0.665,-0.668 -1,-1 -0.329,-0.332 -0.668,-0.671 -1,-1 -0.65,-0.658 -1.305,-1.325 -1.969,-1.969 -0.166,-0.168 -0.333,-0.333 -0.5,-0.5 -0.168,-0.164 -0.331,-0.336 -0.5,-0.5 -0.847,-0.875 -1.724,-1.711 -2.594,-2.563 -0.786,-0.802 -1.569,-1.624 -2.375,-2.406 -0.166,-0.168 -0.333,-0.333 -0.5,-0.5 -0.168,-0.164 -0.331,-0.336 -0.5,-0.5 -0.332,-0.336 -0.665,-0.668 -1,-1 -0.332,-0.336 -0.665,-0.668 -1,-1 -0.332,-0.336 -0.665,-0.668 -1,-1 -0.329,-0.332 -0.668,-0.671 -1,-1 -0.322,-0.325 -0.644,-0.647 -0.969,-0.969 -0.332,-0.336 -0.665,-0.668 -1,-1 -0.332,-0.336 -0.665,-0.668 -1,-1 -0.332,-0.336 -0.665,-0.668 -1,-1 -0.332,-0.336 -0.665,-0.668 -1,-1 -0.329,-0.332 -0.668,-0.671 -1,-1 -0.322,-0.325 -0.644,-0.647 -0.969,-0.969 -0.332,-0.336 -0.665,-0.668 -1,-1 -0.166,-0.168 -0.333,-0.333 -0.5,-0.5 -0.168,-0.164 -0.331,-0.336 -0.5,-0.5 -0.847,-0.875 -1.724,-1.711 -2.594,-2.563 -0.786,-0.802 -1.569,-1.624 -2.375,-2.406 -0.166,-0.168 -0.333,-0.333 -0.5,-0.5 -0.168,-0.164 -0.331,-0.336 -0.5,-0.5 -0.332,-0.336 -0.665,-0.668 -1,-1 -0.332,-0.336 -0.665,-0.668 -1,-1 -0.332,-0.336 -0.665,-0.668 -1,-1 -0.65,-0.658 -1.305,-1.325 -1.969,-1.969 -0.166,-0.168 -0.333,-0.333 -0.5,-0.5 -0.168,-0.164 -0.331,-0.336 -0.5,-0.5 -0.332,-0.336 -0.665,-0.668 -1,-1 -0.332,-0.336 -0.665,-0.668 -1,-1 -0.332,-0.336 -0.665,-0.668 -1,-1 -0.329,-0.332 -0.668,-0.671 -1,-1 -0.322,-0.325 -0.644,-0.647 -0.969,-0.969 -0.332,-0.336 -0.665,-0.668 -1,-1 -0.332,-0.336 -0.665,-0.668 -1,-1 -0.332,-0.336 -0.665,-0.668 -1,-1 -0.332,-0.336 -0.665,-0.668 -1,-1 -0.329,-0.332 -0.668,-0.671 -1,-1 -0.65,-0.658 -1.305,-1.325 -1.969,-1.969 -0.166,-0.168 -0.333,-0.333 -0.5,-0.5 -0.168,-0.164 -0.331,-0.336 -0.5,-0.5 -0.847,-0.875 -1.724,-1.711 -2.594,-2.563 -0.786,-0.802 -1.569,-1.624 -2.375,-2.406 -0.166,-0.168 -0.333,-0.333 -0.5,-0.5 -0.168,-0.164 -0.331,-0.336 -0.5,-0.5 -0.332,-0.336 -0.665,-0.668 -1,-1 -0.332,-0.336 -0.665,-0.668 -1,-1 -0.332,-0.336 -0.665,-0.668 -1,-1 -0.329,-0.332 -0.668,-0.671 -1,-1 -0.322,-0.325 -0.644,-0.647 -0.969,-0.969 -0.332,-0.336 -0.665,-0.668 -1,-1 -0.332,-0.336 -0.665,-0.668 -1,-1 -0.332,-0.336 -0.665,-0.668 -1,-1 -0.332,-0.336 -0.665,-0.668 -1,-1 -0.329,-0.332 -0.668,-0.671 -1,-1 -0.322,-0.325 -0.644,-0.647 -0.969,-0.969 -0.332,-0.336 -0.665,-0.668 -1,-1 -0.166,-0.168 -0.333,-0.333 -0.5,-0.5 -0.168,-0.164 -0.331,-0.336 -0.5,-0.5 -0.847,-0.875 -1.724,-1.711 -2.594,-2.563 -0.786,-0.802 -1.569,-1.624 -2.375,-2.406 -0.166,-0.168 -0.333,-0.333 -0.5,-0.5 -0.168,-0.164 -0.331,-0.336 -0.5,-0.5 -0.332,-0.336 -0.665,-0.668 -1,-1 -0.332,-0.336 -0.665,-0.668 -1,-1 -0.332,-0.336 -0.665,-0.668 -1,-1 -0.65,-0.658 -1.305,-1.325 -1.969,-1.969 -0.166,-0.168 -0.333,-0.333 -0.5,-0.5 -0.168,-0.164 -0.331,-0.336 -0.5,-0.5 -0.332,-0.336 -0.665,-0.668 -1,-1 -0.332,-0.336 -0.665,-0.668 -1,-1 -0.332,-0.336 -0.665,-0.668 -1,-1 -0.329,-0.332 -0.668,-0.671 -1,-1 -0.322,-0.325 -0.644,-0.647 -0.969,-0.969 -0.332,-0.336 -0.665,-0.668 -1,-1 -0.332,-0.336 -0.665,-0.668 -1,-1 -0.332,-0.336 -0.665,-0.668 -1,-1 -0.332,-0.336 -0.665,-0.668 -1,-1 -0.329,-0.332 -0.668,-0.671 -1,-1 -0.65,-0.658 -1.305,-1.325 -1.969,-1.969 -0.166,-0.168 -0.333,-0.333 -0.5,-0.5 -0.168,-0.164 -0.331,-0.336 -0.5,-0.5 -24.558,-25.361 -58.949,-41.12 -97.03,-41.12"
       inkscape:connector-curvature="0"
       id="path8"
       style="fill-opacity:0.23500001" />
    <path
       d="M 256,1 C 115.17,1 1,115.17 1,256 1,396.83 115.17,511 256,511 396.83,511 511,396.83 511,256 511,115.17 396.83,1 256,1 m 8.827,44.931 c 120.9,0 218.9,98 218.9,218.9 0,120.9 -98,218.9 -218.9,218.9 -120.9,0 -218.93,-98 -218.93,-218.9 0,-120.9 98.03,-218.9 218.93,-218.9"
       inkscape:connector-curvature="0"
       id="path10"
       style="fill-opacity:0.06700003" />
    <g
       id="g12"
       style="fill-opacity:0.12900002">
      <path
         d="m 256,4.433 c -138.94,0 -251.57,112.63 -251.57,251.57 0,138.94 112.63,251.57 251.57,251.57 138.94,0 251.57,-112.63 251.57,-251.57 C 507.57,117.063 394.94,4.433 256,4.433 m 5.885,38.556 c 120.9,0 218.9,98 218.9,218.9 0,120.9 -98,218.9 -218.9,218.9 -120.9,0 -218.93,-98 -218.93,-218.9 0,-120.9 98.03,-218.9 218.93,-218.9"
         inkscape:connector-curvature="0"
         id="path14" />
      <path
         d="m 256,8.356 c -136.77,0 -247.64,110.87 -247.64,247.64 0,136.77 110.87,247.64 247.64,247.64 136.77,0 247.64,-110.87 247.64,-247.64 C 503.64,119.226 392.77,8.356 256,8.356 m 2.942,31.691 c 120.9,0 218.9,98 218.9,218.9 0,120.9 -98,218.9 -218.9,218.9 -120.9,0 -218.93,-98 -218.93,-218.9 0,-120.9 98.03,-218.9 218.93,-218.9"
         inkscape:connector-curvature="0"
         id="path16" />
    </g>
    <path
       d="m 253.04,7.859 c -135.42,0 -245.19,109.78 -245.19,245.19 0,135.42 109.78,245.19 245.19,245.19 135.42,0 245.19,-109.78 245.19,-245.19 0,-135.42 -109.78,-245.19 -245.19,-245.19 z m 0,26.297 c 120.9,0 218.9,98 218.9,218.9 0,120.9 -98,218.9 -218.9,218.9 -120.9,0 -218.93,-98 -218.93,-218.9 0,-120.9 98.03,-218.9 218.93,-218.9 z"
       inkscape:connector-curvature="0"
       id="path18"
       style="fill:#ffffff;stroke:#000000;stroke-width:4.90399981;stroke-opacity:0.31000001" />
  </g>
  <text
     x="729.64001"
     y="231.36"
     id="text20"
     style="font-size:129.22999573px;line-height:125%;letter-spacing:0;word-spacing:0;font-family:Gentium Book Basic">
    <tspan
       x="729.64001"
       y="231.36"
       id="tspan22" />
  </text>
  <text
     x="378.91"
     y="579.25"
     transform="scale(4.0128,0.2492)"
     id="text24"
     style="font-size:46.95399857px;text-anchor:middle;font-family:Arial" />
  <text
     x="1310.91"
     y="151.36"
     id="text26"
     style="font-size:129.22999573px;line-height:125%;letter-spacing:0;word-spacing:0;font-family:Gentium Book Basic">
    <tspan
       x="1310.91"
       y="151.36"
       id="tspan28" />
  </text>
  <text
     x="523.76001"
     y="258.22"
     transform="scale(4.0128,0.2492)"
     id="text30"
     style="font-size:46.95399857px;text-anchor:middle;font-family:Arial" />
  <text
     x="239.33"
     y="-29.900999"
     id="text32"
     style="font-size:129.22999573px;line-height:125%;letter-spacing:0;word-spacing:0;font-family:Gentium Book Basic">
    <tspan
       x="239.33"
       y="-29.900999"
       id="tspan34" />
  </text>
  <text
     x="256.72"
     y="-469.14001"
     transform="scale(4.0128,0.2492)"
     id="text36"
     style="font-size:46.95399857px;text-anchor:middle;font-family:Arial" />
  <text
     x="1337.38"
     y="-246.37"
     id="text38"
     style="font-size:129.22999573px;line-height:125%;letter-spacing:0;word-spacing:0;font-family:Gentium Book Basic">
    <tspan
       x="1337.38"
       y="-246.37"
       id="tspan40" />
  </text>
  <text
     x="530.35999"
     y="-1337.8101"
     transform="scale(4.0128,0.2492)"
     id="text42"
     style="font-size:46.95399857px;text-anchor:middle;font-family:Arial" />
  <text
     x="1918.65"
     y="-326.38"
     id="text44"
     style="font-size:129.22999573px;line-height:125%;letter-spacing:0;word-spacing:0;font-family:Gentium Book Basic">
    <tspan
       x="1918.65"
       y="-326.38"
       id="tspan46" />
  </text>
  <text
     x="675.21002"
     y="-1658.85"
     transform="scale(4.0128,0.2492)"
     id="text48"
     style="font-size:46.95399857px;text-anchor:middle;font-family:Arial" />
  <text
     x="1529.53"
     y="-798.78003"
     id="text50"
     style="font-size:129.22999573px;line-height:125%;letter-spacing:0;word-spacing:0;font-family:Gentium Book Basic">
    <tspan
       x="1529.53"
       y="-798.78003"
       id="tspan52" />
  </text>
  <text
     x="578.23999"
     y="-3554.51"
     transform="scale(4.0128,0.2492)"
     id="text54"
     style="font-size:46.95399857px;text-anchor:middle;font-family:Arial" />
  <text
     x="2110.79"
     y="-878.78003"
     id="text56"
     style="font-size:129.22999573px;line-height:125%;letter-spacing:0;word-spacing:0;font-family:Gentium Book Basic">
    <tspan
       x="2110.79"
       y="-878.78003"
       id="tspan58" />
  </text>
  <text
     x="723.09003"
     y="-3875.54"
     transform="scale(4.0128,0.2492)"
     id="text60"
     style="font-size:46.95399857px;text-anchor:middle;font-family:Arial" />
  <g
     id="g62"
     style="font-size:208.33000183px;line-height:125%;letter-spacing:0;word-spacing:0;font-family:Gentium Book Basic">
    <text
       x="277.98999"
       y="535.94"
       id="text64">
      <tspan
         x="277.98999"
         y="535.94"
         id="tspan66" />
    </text>
    <text
       x="-1767.8199"
       y="470.64001"
       id="text68">
      <tspan
         x="-1767.8199"
         y="470.64001"
         id="tspan70" />
    </text>
  </g>
  <text
     x="-122.81"
     y="1325.7"
     transform="scale(4.0128,0.2492)"
     id="text72"
     style="font-size:75.69999695px;text-anchor:middle;font-family:Arial" />
  <path
     d="m 256,106.37 c -49.42,0 -92.62,26.587 -116.19,66.18 -5.539,9.305 -9.962,19.321 -13.159,29.888 l 129.96,38.456 H 92.051 c -0.001,0.258 0,0.532 0,0.791 0,90.55 73.4,163.95 163.95,163.95 90.55,0 163.95,-73.4 163.95,-163.95 0,-0.258 10e-4,-0.532 0,-0.791 h -28.817 c -0.116,-24.979 -7.02,-48.31 -18.948,-68.34 -23.567,-39.59 -66.767,-66.18 -116.19,-66.18"
     inkscape:connector-curvature="0"
     id="path74"
     style="fill:#ffffff;fill-rule:evenodd" />
</svg>
