<?xml version="1.0" encoding="UTF-8" standalone="no"?>
<!-- Created with Inkscape (http://www.inkscape.org/) -->

<svg
   xmlns:dc="http://purl.org/dc/elements/1.1/"
   xmlns:cc="http://creativecommons.org/ns#"
   xmlns:rdf="http://www.w3.org/1999/02/22-rdf-syntax-ns#"
   xmlns:svg="http://www.w3.org/2000/svg"
   xmlns="http://www.w3.org/2000/svg"
   xmlns:inkscape="http://www.inkscape.org/namespaces/inkscape"
   version="1.1"
   width="100%"
   height="100%"
   viewBox="0 0 512 512"
   id="svg2">
  <metadata
     id="metadata74">
    <rdf:RDF>
      <cc:Work
         rdf:about="">
        <dc:format>image/svg+xml</dc:format>
        <dc:type
           rdf:resource="http://purl.org/dc/dcmitype/StillImage" />
      </cc:Work>
    </rdf:RDF>
  </metadata>
  <defs
     id="defs72" />
  <g
     transform="translate(0,-540.36)"
     id="g4">
    <path
       d="m 471.95,793.41 c 0,120.9 -98.01,218.9 -218.9,218.9 -120.9,0 -218.9,-98.01 -218.9,-218.9 0,-120.9 98.01,-218.9 218.9,-218.9 120.9,0 218.9,98.01 218.9,218.9"
       inkscape:connector-curvature="0"
       id="path6"
       style="fill:#ef6a47;fill-rule:evenodd" />
    <path
       d="m 202.97,115.22 c -5.205,0 -9.438,4.204 -9.438,9.406 0,2.926 1.345,5.553 3.438,7.281 0.313,0.348 0.639,0.702 1,1 0.313,0.348 0.608,0.702 0.969,1 0.314,0.35 0.637,0.7 1,1 0.314,0.35 0.637,0.669 1,0.969 0.261,0.291 0.518,0.587 0.813,0.844 0.315,0.369 0.664,0.715 1.031,1.031 0.35,0.407 0.742,0.783 1.156,1.125 0.313,0.348 0.639,0.702 1,1 0.313,0.348 0.608,0.702 0.969,1 0.314,0.35 0.637,0.669 1,0.969 0.261,0.291 0.518,0.587 0.813,0.844 0.315,0.369 0.664,0.715 1.031,1.031 0.307,0.356 0.644,0.693 1,1 v 75.75 c -0.03,0.236 -0.074,0.48 -0.094,0.719 l -57.53,150.81 c -0.408,1.071 -0.625,2.199 -0.625,3.344 0,6.16 2.635,11.712 6.813,15.625 0.323,0.345 0.655,0.677 1,1 0.343,0.366 0.695,0.721 1.063,1.063 0.274,0.289 0.554,0.57 0.844,0.844 0.36,0.387 0.738,0.765 1.125,1.125 0.304,0.322 0.614,0.635 0.938,0.938 0.323,0.345 0.655,0.677 1,1 0.323,0.345 0.655,0.677 1,1 0.343,0.366 0.695,0.721 1.063,1.063 0.299,0.316 0.62,0.609 0.938,0.906 0.298,0.318 0.59,0.638 0.906,0.938 0.341,0.368 0.696,0.72 1.063,1.063 0.323,0.345 0.655,0.677 1,1 0.323,0.345 0.655,0.677 1,1 0.343,0.366 0.695,0.721 1.063,1.063 0.299,0.316 0.62,0.609 0.938,0.906 0.298,0.318 0.59,0.638 0.906,0.938 0.341,0.368 0.696,0.72 1.063,1.063 0.323,0.345 0.655,0.677 1,1 0.323,0.345 0.655,0.677 1,1 0.303,0.323 0.616,0.633 0.938,0.938 0.382,0.411 0.775,0.807 1.188,1.188 0.255,0.267 0.513,0.528 0.781,0.781 0.341,0.368 0.696,0.72 1.063,1.063 0.323,0.345 0.655,0.677 1,1 0.323,0.345 0.655,0.677 1,1 0.323,0.345 0.655,0.677 1,1 0.343,0.366 0.695,0.721 1.063,1.063 0.253,0.268 0.514,0.527 0.781,0.781 0.38,0.413 0.777,0.805 1.188,1.188 0.304,0.322 0.614,0.635 0.938,0.938 0.323,0.345 0.655,0.677 1,1 0.323,0.345 0.655,0.677 1,1 0.343,0.366 0.695,0.721 1.063,1.063 0.299,0.316 0.62,0.609 0.938,0.906 0.298,0.318 0.59,0.638 0.906,0.938 0.341,0.368 0.696,0.72 1.063,1.063 0.323,0.345 0.655,0.677 1,1 0.323,0.345 0.655,0.677 1,1 0.343,0.366 0.695,0.721 1.063,1.063 0.299,0.316 0.62,0.609 0.938,0.906 0.298,0.318 0.59,0.638 0.906,0.938 0.341,0.368 0.696,0.72 1.063,1.063 0.323,0.345 0.655,0.677 1,1 0.323,0.345 0.655,0.677 1,1 0.323,0.345 0.655,0.677 1,1 0.343,0.366 0.695,0.721 1.063,1.063 0.274,0.289 0.554,0.57 0.844,0.844 0.36,0.387 0.738,0.765 1.125,1.125 0.304,0.322 0.614,0.635 0.938,0.938 0.323,0.345 0.655,0.677 1,1 0.323,0.345 0.655,0.677 1,1 0.343,0.366 0.695,0.721 1.063,1.063 0.299,0.316 0.62,0.609 0.938,0.906 0.298,0.318 0.59,0.638 0.906,0.938 0.341,0.368 0.696,0.72 1.063,1.063 0.323,0.345 0.655,0.677 1,1 0.323,0.345 0.655,0.677 1,1 0.343,0.366 0.695,0.721 1.063,1.063 0.299,0.316 0.62,0.609 0.938,0.906 0.298,0.318 0.59,0.638 0.906,0.938 0.341,0.368 0.696,0.72 1.063,1.063 0.323,0.345 0.655,0.677 1,1 0.323,0.345 0.655,0.677 1,1 0.303,0.323 0.616,0.633 0.938,0.938 0.382,0.411 0.775,0.807 1.188,1.188 0.255,0.267 0.513,0.528 0.781,0.781 0.341,0.368 0.696,0.72 1.063,1.063 0.323,0.345 0.655,0.677 1,1 0.323,0.345 0.655,0.677 1,1 0.323,0.345 0.655,0.677 1,1 0.343,0.366 0.695,0.721 1.063,1.063 0.253,0.268 0.514,0.527 0.781,0.781 0.38,0.413 0.777,0.805 1.188,1.188 0.304,0.322 0.614,0.635 0.938,0.938 0.323,0.345 0.655,0.677 1,1 0.323,0.345 0.655,0.677 1,1 0.343,0.366 0.695,0.721 1.063,1.063 0.299,0.316 0.62,0.609 0.938,0.906 0.298,0.318 0.59,0.638 0.906,0.938 0.341,0.368 0.696,0.72 1.063,1.063 0.293,0.312 0.596,0.612 0.906,0.906 4.704,0.302 9.438,0.5 14.219,0.5 113.59,0 206.97,-86.52 217.84,-197.25 -0.347,-0.401 -0.717,-0.788 -1.125,-1.125 -0.226,-0.252 -0.467,-0.493 -0.719,-0.719 -0.043,-0.053 -0.081,-0.105 -0.125,-0.156 -0.049,-0.042 -0.106,-0.084 -0.156,-0.125 -0.226,-0.252 -0.467,-0.493 -0.719,-0.719 -0.043,-0.053 -0.081,-0.105 -0.125,-0.156 -0.049,-0.042 -0.106,-0.084 -0.156,-0.125 -0.224,-0.249 -0.438,-0.495 -0.688,-0.719 -0.042,-0.051 -0.082,-0.106 -0.125,-0.156 -0.05,-0.043 -0.105,-0.083 -0.156,-0.125 -0.224,-0.249 -0.47,-0.463 -0.719,-0.688 -0.041,-0.05 -0.083,-0.107 -0.125,-0.156 -0.051,-0.044 -0.104,-0.082 -0.156,-0.125 -0.226,-0.252 -0.467,-0.492 -0.719,-0.719 -0.041,-0.05 -0.083,-0.107 -0.125,-0.156 -0.051,-0.044 -0.104,-0.082 -0.156,-0.125 -0.226,-0.252 -0.467,-0.492 -0.719,-0.719 -0.384,-0.465 -0.816,-0.897 -1.281,-1.281 -0.226,-0.252 -0.467,-0.493 -0.719,-0.719 -0.043,-0.053 -0.081,-0.105 -0.125,-0.156 -0.049,-0.042 -0.106,-0.084 -0.156,-0.125 -0.224,-0.249 -0.438,-0.495 -0.688,-0.719 -0.042,-0.051 -0.082,-0.106 -0.125,-0.156 -0.05,-0.043 -0.105,-0.083 -0.156,-0.125 -0.314,-0.35 -0.637,-0.7 -1,-1 -0.221,-0.246 -0.473,-0.466 -0.719,-0.688 -0.041,-0.05 -0.083,-0.107 -0.125,-0.156 -0.051,-0.044 -0.104,-0.082 -0.156,-0.125 -0.226,-0.252 -0.467,-0.492 -0.719,-0.719 -0.384,-0.465 -0.816,-0.897 -1.281,-1.281 -0.226,-0.252 -0.467,-0.493 -0.719,-0.719 -0.043,-0.053 -0.081,-0.105 -0.125,-0.156 -0.049,-0.042 -0.106,-0.084 -0.156,-0.125 -0.224,-0.249 -0.438,-0.495 -0.688,-0.719 -0.042,-0.051 -0.082,-0.106 -0.125,-0.156 -0.05,-0.043 -0.105,-0.083 -0.156,-0.125 -0.226,-0.252 -0.467,-0.493 -0.719,-0.719 -0.042,-0.051 -0.082,-0.106 -0.125,-0.156 -0.05,-0.043 -0.105,-0.083 -0.156,-0.125 -0.224,-0.249 -0.47,-0.463 -0.719,-0.688 -0.041,-0.05 -0.083,-0.107 -0.125,-0.156 -0.051,-0.044 -0.104,-0.082 -0.156,-0.125 -0.226,-0.252 -0.467,-0.492 -0.719,-0.719 -0.384,-0.465 -0.816,-0.897 -1.281,-1.281 -0.226,-0.252 -0.467,-0.493 -0.719,-0.719 -0.043,-0.053 -0.081,-0.105 -0.125,-0.156 -0.049,-0.042 -0.106,-0.084 -0.156,-0.125 -0.226,-0.252 -0.467,-0.493 -0.719,-0.719 -0.043,-0.053 -0.081,-0.105 -0.125,-0.156 -0.049,-0.042 -0.106,-0.084 -0.156,-0.125 -0.224,-0.249 -0.438,-0.495 -0.688,-0.719 -0.042,-0.051 -0.082,-0.106 -0.125,-0.156 -0.05,-0.043 -0.105,-0.083 -0.156,-0.125 -0.224,-0.249 -0.47,-0.463 -0.719,-0.688 -0.041,-0.05 -0.083,-0.107 -0.125,-0.156 -0.051,-0.044 -0.104,-0.082 -0.156,-0.125 -0.226,-0.252 -0.467,-0.492 -0.719,-0.719 -0.041,-0.05 -0.083,-0.107 -0.125,-0.156 -0.051,-0.044 -0.104,-0.082 -0.156,-0.125 -0.226,-0.252 -0.467,-0.492 -0.719,-0.719 -0.384,-0.465 -0.816,-0.897 -1.281,-1.281 -0.226,-0.252 -0.467,-0.493 -0.719,-0.719 -0.043,-0.053 -0.081,-0.105 -0.125,-0.156 -0.049,-0.042 -0.106,-0.084 -0.156,-0.125 -0.224,-0.249 -0.438,-0.495 -0.688,-0.719 -0.042,-0.051 -0.082,-0.106 -0.125,-0.156 -0.05,-0.043 -0.105,-0.083 -0.156,-0.125 -0.224,-0.249 -0.47,-0.463 -0.719,-0.688 -0.041,-0.05 -0.083,-0.107 -0.125,-0.156 -0.051,-0.044 -0.104,-0.082 -0.156,-0.125 -0.226,-0.252 -0.467,-0.492 -0.719,-0.719 -0.041,-0.05 -0.083,-0.107 -0.125,-0.156 -0.051,-0.044 -0.104,-0.082 -0.156,-0.125 -0.226,-0.252 -0.467,-0.492 -0.719,-0.719 -0.384,-0.465 -0.816,-0.897 -1.281,-1.281 -0.226,-0.252 -0.467,-0.493 -0.719,-0.719 -0.043,-0.053 -0.081,-0.105 -0.125,-0.156 -0.049,-0.042 -0.106,-0.084 -0.156,-0.125 -0.224,-0.249 -0.438,-0.495 -0.688,-0.719 -0.042,-0.051 -0.082,-0.106 -0.125,-0.156 -0.05,-0.043 -0.105,-0.083 -0.156,-0.125 -0.226,-0.252 -0.467,-0.493 -0.719,-0.719 -0.042,-0.051 -0.082,-0.106 -0.125,-0.156 -0.05,-0.043 -0.105,-0.083 -0.156,-0.125 -0.224,-0.249 -0.47,-0.463 -0.719,-0.688 -0.041,-0.05 -0.083,-0.107 -0.125,-0.156 -0.051,-0.044 -0.104,-0.082 -0.156,-0.125 -0.226,-0.252 -0.467,-0.492 -0.719,-0.719 -0.384,-0.465 -0.816,-0.897 -1.281,-1.281 -0.226,-0.252 -0.467,-0.493 -0.719,-0.719 -0.043,-0.053 -0.081,-0.105 -0.125,-0.156 -0.049,-0.042 -0.106,-0.084 -0.156,-0.125 -0.226,-0.252 -0.467,-0.493 -0.719,-0.719 -0.043,-0.053 -0.081,-0.105 -0.125,-0.156 -0.049,-0.042 -0.106,-0.084 -0.156,-0.125 -0.224,-0.249 -0.438,-0.495 -0.688,-0.719 -0.042,-0.051 -0.082,-0.106 -0.125,-0.156 -0.05,-0.043 -0.105,-0.083 -0.156,-0.125 -0.224,-0.249 -0.47,-0.463 -0.719,-0.688 -0.041,-0.05 -0.083,-0.107 -0.125,-0.156 -0.051,-0.044 -0.104,-0.082 -0.156,-0.125 -0.226,-0.252 -0.467,-0.492 -0.719,-0.719 -0.384,-0.465 -0.816,-0.897 -1.281,-1.281 -0.226,-0.252 -0.467,-0.493 -0.719,-0.719 -0.043,-0.053 -0.081,-0.105 -0.125,-0.156 -0.049,-0.042 -0.106,-0.084 -0.156,-0.125 -0.226,-0.252 -0.467,-0.493 -0.719,-0.719 -0.043,-0.053 -0.081,-0.105 -0.125,-0.156 -0.049,-0.042 -0.106,-0.084 -0.156,-0.125 -0.224,-0.249 -0.438,-0.495 -0.688,-0.719 -0.042,-0.051 -0.082,-0.106 -0.125,-0.156 -0.05,-0.043 -0.105,-0.083 -0.156,-0.125 -0.224,-0.249 -0.47,-0.463 -0.719,-0.688 -0.041,-0.05 -0.083,-0.107 -0.125,-0.156 -0.051,-0.044 -0.104,-0.082 -0.156,-0.125 -0.226,-0.252 -0.467,-0.492 -0.719,-0.719 -0.041,-0.05 -0.083,-0.107 -0.125,-0.156 -0.051,-0.044 -0.104,-0.082 -0.156,-0.125 -0.226,-0.252 -0.467,-0.492 -0.719,-0.719 -0.384,-0.465 -0.816,-0.897 -1.281,-1.281 -0.226,-0.252 -0.467,-0.493 -0.719,-0.719 -0.043,-0.053 -0.081,-0.105 -0.125,-0.156 -0.049,-0.042 -0.106,-0.084 -0.156,-0.125 -0.224,-0.249 -0.438,-0.495 -0.688,-0.719 -0.042,-0.051 -0.082,-0.106 -0.125,-0.156 -0.05,-0.043 -0.105,-0.083 -0.156,-0.125 -0.314,-0.35 -0.637,-0.7 -1,-1 -0.221,-0.246 -0.473,-0.466 -0.719,-0.688 -0.041,-0.05 -0.083,-0.107 -0.125,-0.156 -0.051,-0.044 -0.104,-0.082 -0.156,-0.125 -0.226,-0.252 -0.467,-0.492 -0.719,-0.719 -0.384,-0.465 -0.816,-0.897 -1.281,-1.281 -0.226,-0.252 -0.467,-0.493 -0.719,-0.719 -0.043,-0.053 -0.081,-0.105 -0.125,-0.156 -0.049,-0.042 -0.106,-0.084 -0.156,-0.125 -0.224,-0.249 -0.438,-0.495 -0.688,-0.719 -0.042,-0.051 -0.082,-0.106 -0.125,-0.156 -0.05,-0.043 -0.105,-0.083 -0.156,-0.125 -0.226,-0.252 -0.467,-0.493 -0.719,-0.719 -0.042,-0.051 -0.082,-0.106 -0.125,-0.156 -0.05,-0.043 -0.105,-0.083 -0.156,-0.125 -0.224,-0.249 -0.47,-0.463 -0.719,-0.688 -0.041,-0.05 -0.083,-0.107 -0.125,-0.156 -0.051,-0.044 -0.104,-0.082 -0.156,-0.125 -0.226,-0.252 -0.467,-0.492 -0.719,-0.719 -0.384,-0.465 -0.816,-0.897 -1.281,-1.281 -0.226,-0.252 -0.467,-0.493 -0.719,-0.719 -0.043,-0.053 -0.081,-0.105 -0.125,-0.156 -0.049,-0.042 -0.106,-0.084 -0.156,-0.125 -0.226,-0.252 -0.467,-0.493 -0.719,-0.719 -0.043,-0.053 -0.081,-0.105 -0.125,-0.156 -0.049,-0.042 -0.106,-0.084 -0.156,-0.125 -0.224,-0.249 -0.438,-0.495 -0.688,-0.719 -0.042,-0.051 -0.082,-0.106 -0.125,-0.156 -0.05,-0.043 -0.105,-0.083 -0.156,-0.125 -0.224,-0.249 -0.47,-0.463 -0.719,-0.688 -0.041,-0.05 -0.083,-0.107 -0.125,-0.156 -0.051,-0.044 -0.104,-0.082 -0.156,-0.125 -0.226,-0.252 -0.467,-0.492 -0.719,-0.719 -0.041,-0.05 -0.083,-0.107 -0.125,-0.156 -0.051,-0.044 -0.104,-0.082 -0.156,-0.125 -0.226,-0.252 -0.467,-0.492 -0.719,-0.719 -0.384,-0.465 -0.816,-0.897 -1.281,-1.281 -0.226,-0.252 -0.467,-0.493 -0.719,-0.719 -0.043,-0.053 -0.081,-0.105 -0.125,-0.156 -0.049,-0.042 -0.106,-0.084 -0.156,-0.125 -0.224,-0.249 -0.438,-0.495 -0.688,-0.719 -0.042,-0.051 -0.082,-0.106 -0.125,-0.156 -0.05,-0.043 -0.105,-0.083 -0.156,-0.125 -0.224,-0.249 -0.47,-0.463 -0.719,-0.688 -0.041,-0.05 -0.083,-0.107 -0.125,-0.156 -0.051,-0.044 -0.104,-0.082 -0.156,-0.125 -0.226,-0.252 -0.467,-0.492 -0.719,-0.719 -0.041,-0.05 -0.083,-0.107 -0.125,-0.156 -0.051,-0.044 -0.104,-0.082 -0.156,-0.125 -0.226,-0.252 -0.467,-0.492 -0.719,-0.719 -0.384,-0.465 -0.816,-0.897 -1.281,-1.281 -0.226,-0.252 -0.467,-0.493 -0.719,-0.719 -0.043,-0.053 -0.081,-0.105 -0.125,-0.156 -0.049,-0.042 -0.106,-0.084 -0.156,-0.125 -0.224,-0.249 -0.438,-0.495 -0.688,-0.719 -0.042,-0.051 -0.082,-0.106 -0.125,-0.156 -0.05,-0.043 -0.105,-0.083 -0.156,-0.125 -0.226,-0.252 -0.467,-0.493 -0.719,-0.719 -0.042,-0.051 -0.082,-0.106 -0.125,-0.156 -0.05,-0.043 -0.105,-0.083 -0.156,-0.125 -0.224,-0.249 -0.47,-0.463 -0.719,-0.688 -0.041,-0.05 -0.083,-0.107 -0.125,-0.156 -0.051,-0.044 -0.104,-0.082 -0.156,-0.125 -0.226,-0.252 -0.467,-0.492 -0.719,-0.719 -0.384,-0.465 -0.816,-0.897 -1.281,-1.281 -0.226,-0.252 -0.467,-0.493 -0.719,-0.719 -0.043,-0.053 -0.081,-0.105 -0.125,-0.156 -0.049,-0.042 -0.106,-0.084 -0.156,-0.125 -0.226,-0.252 -0.467,-0.493 -0.719,-0.719 -0.043,-0.053 -0.081,-0.105 -0.125,-0.156 -0.049,-0.042 -0.106,-0.084 -0.156,-0.125 -0.224,-0.249 -0.438,-0.495 -0.688,-0.719 -0.042,-0.051 -0.082,-0.106 -0.125,-0.156 -0.05,-0.043 -0.105,-0.083 -0.156,-0.125 -0.224,-0.249 -0.47,-0.463 -0.719,-0.688 -0.041,-0.05 -0.083,-0.107 -0.125,-0.156 -0.051,-0.044 -0.104,-0.082 -0.156,-0.125 -0.226,-0.252 -0.467,-0.492 -0.719,-0.719 -0.384,-0.465 -0.816,-0.897 -1.281,-1.281 -0.226,-0.252 -0.467,-0.493 -0.719,-0.719 -0.043,-0.053 -0.081,-0.105 -0.125,-0.156 -0.049,-0.042 -0.106,-0.084 -0.156,-0.125 -0.226,-0.252 -0.467,-0.493 -0.719,-0.719 -0.043,-0.053 -0.081,-0.105 -0.125,-0.156 -0.049,-0.042 -0.106,-0.084 -0.156,-0.125 -0.224,-0.249 -0.438,-0.495 -0.688,-0.719 -0.042,-0.051 -0.082,-0.106 -0.125,-0.156 -0.05,-0.043 -0.105,-0.083 -0.156,-0.125 -0.224,-0.249 -0.47,-0.463 -0.719,-0.688 -0.041,-0.05 -0.083,-0.107 -0.125,-0.156 -0.051,-0.044 -0.104,-0.082 -0.156,-0.125 -0.226,-0.252 -0.467,-0.492 -0.719,-0.719 -0.041,-0.05 -0.083,-0.107 -0.125,-0.156 -0.051,-0.044 -0.104,-0.082 -0.156,-0.125 -0.226,-0.252 -0.467,-0.492 -0.719,-0.719 -0.384,-0.465 -0.816,-0.897 -1.281,-1.281 -0.226,-0.252 -0.467,-0.493 -0.719,-0.719 -0.043,-0.053 -0.081,-0.105 -0.125,-0.156 -0.049,-0.042 -0.106,-0.084 -0.156,-0.125 -0.224,-0.249 -0.438,-0.495 -0.688,-0.719 -0.042,-0.051 -0.082,-0.106 -0.125,-0.156 -0.05,-0.043 -0.105,-0.083 -0.156,-0.125 -0.314,-0.35 -0.637,-0.7 -1,-1 -0.221,-0.246 -0.473,-0.466 -0.719,-0.688 -0.041,-0.05 -0.083,-0.107 -0.125,-0.156 -0.051,-0.044 -0.104,-0.082 -0.156,-0.125 -0.226,-0.252 -0.467,-0.492 -0.719,-0.719 -0.384,-0.465 -0.816,-0.897 -1.281,-1.281 -0.226,-0.252 -0.467,-0.493 -0.719,-0.719 -0.043,-0.053 -0.081,-0.105 -0.125,-0.156 -0.049,-0.042 -0.106,-0.084 -0.156,-0.125 -0.224,-0.249 -0.438,-0.495 -0.688,-0.719 -0.042,-0.051 -0.082,-0.106 -0.125,-0.156 -0.05,-0.043 -0.105,-0.083 -0.156,-0.125 -0.226,-0.252 -0.467,-0.493 -0.719,-0.719 -0.042,-0.051 -0.082,-0.106 -0.125,-0.156 -0.05,-0.043 -0.105,-0.083 -0.156,-0.125 -0.224,-0.249 -0.47,-0.463 -0.719,-0.688 -0.041,-0.05 -0.083,-0.107 -0.125,-0.156 -0.051,-0.044 -0.104,-0.082 -0.156,-0.125 -0.226,-0.252 -0.467,-0.492 -0.719,-0.719 -0.384,-0.465 -0.816,-0.897 -1.281,-1.281 -0.226,-0.252 -0.467,-0.493 -0.719,-0.719 -0.043,-0.053 -0.081,-0.105 -0.125,-0.156 -0.049,-0.042 -0.106,-0.084 -0.156,-0.125 -0.226,-0.252 -0.467,-0.493 -0.719,-0.719 -0.043,-0.053 -0.081,-0.105 -0.125,-0.156 -0.049,-0.042 -0.106,-0.084 -0.156,-0.125 -0.224,-0.249 -0.438,-0.495 -0.688,-0.719 -0.042,-0.051 -0.082,-0.106 -0.125,-0.156 -0.05,-0.043 -0.105,-0.083 -0.156,-0.125 -0.224,-0.249 -0.47,-0.463 -0.719,-0.688 -0.041,-0.05 -0.083,-0.107 -0.125,-0.156 -0.051,-0.044 -0.104,-0.082 -0.156,-0.125 -0.226,-0.252 -0.467,-0.492 -0.719,-0.719 -0.341,-0.414 -0.719,-0.806 -1.125,-1.156 -0.35,-0.407 -0.742,-0.783 -1.156,-1.125 -0.226,-0.252 -0.467,-0.493 -0.719,-0.719 -0.043,-0.053 -0.081,-0.105 -0.125,-0.156 -0.049,-0.042 -0.106,-0.084 -0.156,-0.125 -0.224,-0.249 -0.438,-0.495 -0.688,-0.719 -0.042,-0.051 -0.082,-0.106 -0.125,-0.156 -0.05,-0.043 -0.105,-0.083 -0.156,-0.125 -0.224,-0.249 -0.47,-0.463 -0.719,-0.688 -0.041,-0.05 -0.083,-0.107 -0.125,-0.156 -0.051,-0.044 -0.104,-0.082 -0.156,-0.125 -0.226,-0.252 -0.467,-0.492 -0.719,-0.719 -0.041,-0.05 -0.083,-0.107 -0.125,-0.156 -0.051,-0.044 -0.104,-0.082 -0.156,-0.125 -0.226,-0.252 -0.467,-0.492 -0.719,-0.719 -0.384,-0.465 -0.816,-0.897 -1.281,-1.281 -0.226,-0.252 -0.467,-0.493 -0.719,-0.719 -0.043,-0.053 -0.081,-0.105 -0.125,-0.156 -0.049,-0.042 -0.106,-0.084 -0.156,-0.125 -0.224,-0.249 -0.438,-0.495 -0.688,-0.719 -0.042,-0.051 -0.082,-0.106 -0.125,-0.156 -0.05,-0.043 -0.105,-0.083 -0.156,-0.125 -0.226,-0.252 -0.467,-0.493 -0.719,-0.719 -0.042,-0.051 -0.082,-0.106 -0.125,-0.156 -0.05,-0.043 -0.105,-0.083 -0.156,-0.125 -0.224,-0.249 -0.47,-0.463 -0.719,-0.688 -0.041,-0.05 -0.083,-0.107 -0.125,-0.156 -0.051,-0.044 -0.104,-0.082 -0.156,-0.125 -0.226,-0.252 -0.467,-0.492 -0.719,-0.719 -0.384,-0.465 -0.816,-0.897 -1.281,-1.281 -0.226,-0.252 -0.467,-0.493 -0.719,-0.719 -0.043,-0.053 -0.081,-0.105 -0.125,-0.156 -0.049,-0.042 -0.106,-0.084 -0.156,-0.125 -0.226,-0.252 -0.467,-0.493 -0.719,-0.719 -0.043,-0.053 -0.081,-0.105 -0.125,-0.156 -0.049,-0.042 -0.106,-0.084 -0.156,-0.125 -0.224,-0.249 -0.438,-0.495 -0.688,-0.719 -0.042,-0.051 -0.082,-0.106 -0.125,-0.156 -0.05,-0.043 -0.105,-0.083 -0.156,-0.125 -0.224,-0.249 -0.47,-0.463 -0.719,-0.688 -0.041,-0.05 -0.083,-0.107 -0.125,-0.156 -0.051,-0.044 -0.104,-0.082 -0.156,-0.125 -0.226,-0.252 -0.467,-0.492 -0.719,-0.719 -0.384,-0.465 -0.816,-0.897 -1.281,-1.281 -0.226,-0.252 -0.467,-0.493 -0.719,-0.719 -0.043,-0.053 -0.081,-0.105 -0.125,-0.156 -0.049,-0.042 -0.106,-0.084 -0.156,-0.125 -0.226,-0.252 -0.467,-0.493 -0.719,-0.719 -0.043,-0.053 -0.081,-0.105 -0.125,-0.156 -0.049,-0.042 -0.106,-0.084 -0.156,-0.125 -0.224,-0.249 -0.438,-0.495 -0.688,-0.719 -0.042,-0.051 -0.082,-0.106 -0.125,-0.156 -0.05,-0.043 -0.105,-0.083 -0.156,-0.125 -0.224,-0.249 -0.47,-0.463 -0.719,-0.688 -0.041,-0.05 -0.083,-0.107 -0.125,-0.156 -0.051,-0.044 -0.104,-0.082 -0.156,-0.125 -0.226,-0.252 -0.467,-0.492 -0.719,-0.719 -0.041,-0.05 -0.083,-0.107 -0.125,-0.156 -0.051,-0.044 -0.104,-0.082 -0.156,-0.125 -0.226,-0.252 -0.467,-0.492 -0.719,-0.719 -0.384,-0.465 -0.816,-0.897 -1.281,-1.281 -0.226,-0.252 -0.467,-0.493 -0.719,-0.719 -0.043,-0.053 -0.081,-0.105 -0.125,-0.156 -0.049,-0.042 -0.106,-0.084 -0.156,-0.125 -0.224,-0.249 -0.438,-0.495 -0.688,-0.719 -0.042,-0.051 -0.082,-0.106 -0.125,-0.156 -0.05,-0.043 -0.105,-0.083 -0.156,-0.125 -0.314,-0.35 -0.637,-0.7 -1,-1 -0.221,-0.246 -0.473,-0.466 -0.719,-0.688 -0.041,-0.05 -0.083,-0.107 -0.125,-0.156 -0.051,-0.044 -0.104,-0.082 -0.156,-0.125 -0.226,-0.252 -0.467,-0.492 -0.719,-0.719 -0.384,-0.465 -0.816,-0.897 -1.281,-1.281 -0.226,-0.252 -0.467,-0.493 -0.719,-0.719 -0.043,-0.053 -0.081,-0.105 -0.125,-0.156 -0.049,-0.042 -0.106,-0.084 -0.156,-0.125 -0.224,-0.249 -0.438,-0.495 -0.688,-0.719 -0.042,-0.051 -0.082,-0.106 -0.125,-0.156 -0.05,-0.043 -0.105,-0.083 -0.156,-0.125 -0.226,-0.252 -0.467,-0.493 -0.719,-0.719 -0.042,-0.051 -0.082,-0.106 -0.125,-0.156 -0.05,-0.043 -0.105,-0.083 -0.156,-0.125 -0.224,-0.249 -0.47,-0.463 -0.719,-0.688 -0.041,-0.05 -0.083,-0.107 -0.125,-0.156 -0.051,-0.044 -0.104,-0.082 -0.156,-0.125 -0.226,-0.252 -0.467,-0.492 -0.719,-0.719 -0.384,-0.465 -0.816,-0.897 -1.281,-1.281 -0.226,-0.252 -0.467,-0.493 -0.719,-0.719 -0.043,-0.052 -0.081,-0.105 -0.125,-0.156 -0.049,-0.042 -0.106,-0.084 -0.156,-0.125 -0.226,-0.252 -0.467,-0.493 -0.719,-0.719 -0.043,-0.052 -0.081,-0.105 -0.125,-0.156 -0.049,-0.042 -0.106,-0.084 -0.156,-0.125 -0.224,-0.249 -0.438,-0.495 -0.688,-0.719 -0.042,-0.051 -0.082,-0.106 -0.125,-0.156 -0.05,-0.043 -0.105,-0.083 -0.156,-0.125 -0.224,-0.249 -0.47,-0.463 -0.719,-0.688 -0.041,-0.05 -0.083,-0.107 -0.125,-0.156 -0.051,-0.044 -0.104,-0.082 -0.156,-0.125 -0.226,-0.252 -0.467,-0.492 -0.719,-0.719 -1.726,-2.094 -4.353,-3.438 -7.281,-3.438 h -16.625 c -5.205,0 -9.406,4.204 -9.406,9.406 v 49 c -0.194,-0.191 -0.415,-0.358 -0.625,-0.531 -0.224,-0.249 -0.438,-0.495 -0.688,-0.719 -0.042,-0.051 -0.082,-0.106 -0.125,-0.156 -0.05,-0.043 -0.105,-0.083 -0.156,-0.125 -0.226,-0.252 -0.467,-0.493 -0.719,-0.719 -0.042,-0.051 -0.082,-0.106 -0.125,-0.156 -0.05,-0.043 -0.105,-0.083 -0.156,-0.125 -0.226,-0.252 -0.467,-0.493 -0.719,-0.719 -0.042,-0.051 -0.082,-0.106 -0.125,-0.156 -0.05,-0.043 -0.105,-0.083 -0.156,-0.125 -0.224,-0.249 -0.469,-0.463 -0.719,-0.688 -0.342,-0.414 -0.718,-0.806 -1.125,-1.156 -0.35,-0.407 -0.742,-0.783 -1.156,-1.125 -0.222,-0.246 -0.441,-0.497 -0.688,-0.719 -0.3,-0.363 -0.65,-0.685 -1,-1 -0.042,-0.051 -0.082,-0.106 -0.125,-0.156 -0.05,-0.043 -0.105,-0.083 -0.156,-0.125 -0.226,-0.252 -0.467,-0.493 -0.719,-0.719 -0.042,-0.051 -0.082,-0.106 -0.125,-0.156 -0.05,-0.043 -0.105,-0.083 -0.156,-0.125 -0.224,-0.249 -0.469,-0.463 -0.719,-0.688 -0.342,-0.414 -0.718,-0.806 -1.125,-1.156 -0.307,-0.356 -0.644,-0.693 -1,-1 -0.35,-0.407 -0.742,-0.783 -1.156,-1.125 -0.224,-0.249 -0.438,-0.495 -0.688,-0.719 -0.042,-0.051 -0.082,-0.106 -0.125,-0.156 -0.05,-0.043 -0.105,-0.083 -0.156,-0.125 -0.226,-0.252 -0.467,-0.493 -0.719,-0.719 -0.042,-0.051 -0.082,-0.106 -0.125,-0.156 -0.05,-0.043 -0.105,-0.083 -0.156,-0.125 -0.224,-0.249 -0.469,-0.463 -0.719,-0.688 -0.041,-0.05 -0.083,-0.107 -0.125,-0.156 -0.052,-0.044 -0.104,-0.082 -0.156,-0.125 -0.226,-0.252 -0.467,-0.492 -0.719,-0.719 -0.342,-0.414 -0.718,-0.806 -1.125,-1.156 -0.35,-0.407 -0.742,-0.783 -1.156,-1.125 -0.224,-0.249 -0.438,-0.495 -0.688,-0.719 -0.042,-0.051 -0.082,-0.106 -0.125,-0.156 -0.05,-0.043 -0.105,-0.083 -0.156,-0.125 -0.226,-0.252 -0.467,-0.493 -0.719,-0.719 -0.042,-0.051 -0.082,-0.106 -0.125,-0.156 -0.05,-0.043 -0.105,-0.083 -0.156,-0.125 -0.226,-0.252 -0.467,-0.493 -0.719,-0.719 -0.042,-0.051 -0.082,-0.106 -0.125,-0.156 -0.05,-0.043 -0.105,-0.083 -0.156,-0.125 -0.224,-0.249 -0.469,-0.463 -0.719,-0.688 -0.342,-0.414 -0.718,-0.806 -1.125,-1.156 -0.35,-0.407 -0.742,-0.783 -1.156,-1.125 -0.222,-0.246 -0.441,-0.497 -0.688,-0.719 -0.3,-0.363 -0.65,-0.685 -1,-1 -0.042,-0.051 -0.082,-0.106 -0.125,-0.156 -0.05,-0.043 -0.105,-0.083 -0.156,-0.125 -0.226,-0.252 -0.467,-0.493 -0.719,-0.719 -0.042,-0.051 -0.082,-0.106 -0.125,-0.156 -0.05,-0.043 -0.105,-0.083 -0.156,-0.125 -0.224,-0.249 -0.469,-0.463 -0.719,-0.688 -0.342,-0.414 -0.718,-0.806 -1.125,-1.156 -0.35,-0.407 -0.742,-0.783 -1.156,-1.125 -0.227,-0.252 -0.466,-0.493 -0.719,-0.719 -0.043,-0.053 -0.081,-0.105 -0.125,-0.156 -0.049,-0.042 -0.106,-0.084 -0.156,-0.125 -0.224,-0.249 -0.438,-0.495 -0.688,-0.719 -0.042,-0.051 -0.082,-0.106 -0.125,-0.156 -0.05,-0.043 -0.105,-0.083 -0.156,-0.125 -0.226,-0.252 -0.467,-0.493 -0.719,-0.719 -0.042,-0.051 -0.082,-0.106 -0.125,-0.156 -0.05,-0.043 -0.105,-0.083 -0.156,-0.125 -0.224,-0.249 -0.469,-0.463 -0.719,-0.688 -0.342,-0.414 -0.718,-0.806 -1.125,-1.156 -0.307,-0.356 -0.644,-0.693 -1,-1 -0.35,-0.407 -0.742,-0.783 -1.156,-1.125 -0.224,-0.249 -0.438,-0.495 -0.688,-0.719 -0.042,-0.051 -0.082,-0.106 -0.125,-0.156 -0.05,-0.043 -0.105,-0.083 -0.156,-0.125 -0.226,-0.252 -0.467,-0.493 -0.719,-0.719 -0.042,-0.051 -0.082,-0.106 -0.125,-0.156 -0.05,-0.043 -0.105,-0.083 -0.156,-0.125 -0.315,-0.35 -0.637,-0.7 -1,-1 -0.222,-0.246 -0.473,-0.466 -0.719,-0.688 -0.342,-0.414 -0.718,-0.806 -1.125,-1.156 -0.35,-0.407 -0.742,-0.783 -1.156,-1.125 -0.224,-0.249 -0.438,-0.495 -0.688,-0.719 -0.042,-0.051 -0.082,-0.106 -0.125,-0.156 -0.05,-0.043 -0.105,-0.083 -0.156,-0.125 -0.226,-0.252 -0.467,-0.493 -0.719,-0.719 -0.042,-0.051 -0.082,-0.106 -0.125,-0.156 -0.05,-0.043 -0.105,-0.083 -0.156,-0.125 -0.226,-0.252 -0.467,-0.493 -0.719,-0.719 -0.042,-0.051 -0.082,-0.106 -0.125,-0.156 -0.05,-0.043 -0.105,-0.083 -0.156,-0.125 -0.224,-0.249 -0.469,-0.463 -0.719,-0.688 -0.342,-0.414 -0.718,-0.806 -1.125,-1.156 -0.35,-0.407 -0.742,-0.783 -1.156,-1.125 -0.222,-0.246 -0.441,-0.497 -0.688,-0.719 -0.3,-0.363 -0.65,-0.686 -1,-1 -0.042,-0.051 -0.082,-0.106 -0.125,-0.156 -0.05,-0.043 -0.105,-0.083 -0.156,-0.125 -0.226,-0.252 -0.467,-0.493 -0.719,-0.719 -0.042,-0.051 -0.082,-0.106 -0.125,-0.156 -0.05,-0.043 -0.105,-0.083 -0.156,-0.125 -0.224,-0.249 -0.469,-0.463 -0.719,-0.688 -0.342,-0.414 -0.718,-0.806 -1.125,-1.156 -1.728,-2.01 -4.3,-3.281 -7.156,-3.281 h -16.188"
       inkscape:connector-curvature="0"
       transform="translate(0,540.36)"
       id="path8"
       style="fill-opacity:0.23500001" />
    <g
       id="g10"
       style="fill-rule:evenodd">
      <path
         d="m 256,541.36 c -140.83,0 -255,114.17 -255,255 0,140.83 114.17,255 255,255 140.83,0 255,-114.17 255,-255 0,-140.83 -114.17,-255 -255,-255 m 8.827,44.931 c 120.9,0 218.9,98 218.9,218.9 0,120.9 -98,218.9 -218.9,218.9 -120.9,0 -218.93,-98 -218.93,-218.9 0,-120.9 98.03,-218.9 218.93,-218.9"
         inkscape:connector-curvature="0"
         id="path12"
         style="fill-opacity:0.06700003" />
      <g
         id="g14"
         style="fill-opacity:0.12900002">
        <path
           d="M 256,544.79 C 117.06,544.79 4.43,657.42 4.43,796.36 4.43,935.3 117.06,1047.93 256,1047.93 394.94,1047.93 507.57,935.3 507.57,796.36 507.57,657.42 394.94,544.79 256,544.79 m 5.885,38.556 c 120.9,0 218.9,98 218.9,218.9 0,120.9 -98,218.9 -218.9,218.9 -120.9,0 -218.93,-98 -218.93,-218.9 0,-120.9 98.03,-218.9 218.93,-218.9"
           inkscape:connector-curvature="0"
           id="path16" />
        <path
           d="M 256,548.72 C 119.23,548.72 8.36,659.59 8.36,796.36 8.36,933.13 119.23,1044 256,1044 392.77,1044 503.64,933.13 503.64,796.36 503.64,659.59 392.77,548.72 256,548.72 m 2.942,31.691 c 120.9,0 218.9,98 218.9,218.9 0,120.9 -98,218.9 -218.9,218.9 -120.9,0 -218.93,-98 -218.93,-218.9 0,-120.9 98.03,-218.9 218.93,-218.9"
           inkscape:connector-curvature="0"
           id="path18" />
      </g>
      <path
         d="M 253.04,548.22 C 117.62,548.22 7.85,658 7.85,793.41 c 0,135.42 109.78,245.19 245.19,245.19 135.42,0 245.19,-109.78 245.19,-245.19 0,-135.42 -109.78,-245.19 -245.19,-245.19 z m 0,26.297 c 120.9,0 218.9,98 218.9,218.9 0,120.9 -98,218.9 -218.9,218.9 -120.9,0 -218.93,-98 -218.93,-218.9 0,-120.9 98.03,-218.9 218.93,-218.9 z"
         inkscape:connector-curvature="0"
         id="path20"
         style="fill:#ffffff;stroke:#000000;stroke-width:4.90399981;stroke-opacity:0.31000001" />
    </g>
    <text
       x="729.64001"
       y="771.71997"
       id="text22"
       style="font-size:129.22999573px;line-height:125%;letter-spacing:0;word-spacing:0;font-family:Gentium Book Basic">
      <tspan
         x="729.64001"
         y="771.71997"
         id="tspan24" />
    </text>
    <text
       x="378.91"
       y="2747.6399"
       transform="scale(4.0128,0.2492)"
       id="text26"
       style="font-size:46.95399857px;text-anchor:middle;font-family:Arial" />
    <text
       x="1310.91"
       y="691.71997"
       id="text28"
       style="font-size:129.22999573px;line-height:125%;letter-spacing:0;word-spacing:0;font-family:Gentium Book Basic">
      <tspan
         x="1310.91"
         y="691.71997"
         id="tspan30" />
    </text>
    <text
       x="523.76001"
       y="2426.6001"
       transform="scale(4.0128,0.2492)"
       id="text32"
       style="font-size:46.95399857px;text-anchor:middle;font-family:Arial" />
    <text
       x="239.33"
       y="510.45999"
       id="text34"
       style="font-size:129.22999573px;line-height:125%;letter-spacing:0;word-spacing:0;font-family:Gentium Book Basic">
      <tspan
         x="239.33"
         y="510.45999"
         id="tspan36" />
    </text>
    <text
       x="256.72"
       y="1699.25"
       transform="scale(4.0128,0.2492)"
       id="text38"
       style="font-size:46.95399857px;text-anchor:middle;font-family:Arial" />
    <text
       x="1337.38"
       y="293.98999"
       id="text40"
       style="font-size:129.22999573px;line-height:125%;letter-spacing:0;word-spacing:0;font-family:Gentium Book Basic">
      <tspan
         x="1337.38"
         y="293.98999"
         id="tspan42" />
    </text>
    <text
       x="530.35999"
       y="830.57001"
       transform="scale(4.0128,0.2492)"
       id="text44"
       style="font-size:46.95399857px;text-anchor:middle;font-family:Arial" />
    <text
       x="1918.65"
       y="213.99001"
       id="text46"
       style="font-size:129.22999573px;line-height:125%;letter-spacing:0;word-spacing:0;font-family:Gentium Book Basic">
      <tspan
         x="1918.65"
         y="213.99001"
         id="tspan48" />
    </text>
    <text
       x="675.21002"
       y="509.54001"
       transform="scale(4.0128,0.2492)"
       id="text50"
       style="font-size:46.95399857px;text-anchor:middle;font-family:Arial" />
    <text
       x="1529.53"
       y="-258.41"
       id="text52"
       style="font-size:129.22999573px;line-height:125%;letter-spacing:0;word-spacing:0;font-family:Gentium Book Basic">
      <tspan
         x="1529.53"
         y="-258.41"
         id="tspan54" />
    </text>
    <text
       x="578.23999"
       y="-1386.12"
       transform="scale(4.0128,0.2492)"
       id="text56"
       style="font-size:46.95399857px;text-anchor:middle;font-family:Arial" />
    <text
       x="2110.79"
       y="-338.42001"
       id="text58"
       style="font-size:129.22999573px;line-height:125%;letter-spacing:0;word-spacing:0;font-family:Gentium Book Basic">
      <tspan
         x="2110.79"
         y="-338.42001"
         id="tspan60" />
    </text>
    <text
       x="723.09003"
       y="-1707.16"
       transform="scale(4.0128,0.2492)"
       id="text62"
       style="font-size:46.95399857px;text-anchor:middle;font-family:Arial" />
    <text
       x="277.98999"
       y="1076.3"
       id="text64"
       style="font-size:208.33000183px;line-height:125%;letter-spacing:0;word-spacing:0;font-family:Gentium Book Basic">
      <tspan
         x="277.98999"
         y="1076.3"
         id="tspan66" />
    </text>
    <path
       d="m 360.5,915.71 c 0,11.816 -9.609,21.428 -21.424,21.428 h -166.14 c -11.826,0 -21.431,-9.616 -21.431,-21.428 0,-1.146 0.212,-2.284 0.62,-3.356 l 57.55,-150.81 c 0.02,-0.239 0.054,-0.478 0.084,-0.714 v -86.42 h -6.799 c -5.205,0 -9.417,-4.218 -9.417,-9.42 0,-5.202 4.211,-9.42 9.417,-9.42 h 16.216 c 5.205,0 9.424,4.218 9.424,9.42 v 96.56 c 0,0.542 -0.047,1.078 -0.138,1.614 0,1.149 -0.276,2.695 -0.691,3.763 l -34.662,90.84 h 124.98 l -35.811,-90.73 c -0.387,-0.977 -0.606,-2.01 -0.65,-3.056 l -0.077,-0.569 c -0.04,-0.371 -0.061,-0.741 -0.061,-1.112 V 665 c 0,-5.202 4.211,-9.42 9.417,-9.42 h 16.64 c 5.205,0 9.417,4.218 9.417,9.42 0,5.202 -4.211,9.42 -9.417,9.42 h -7.227 v 87.04 l 59.52,150.8 c 0.435,1.105 0.66,2.274 0.66,3.46 M 237.76,836.794 c 0,-3.895 3.164,-7.07 7.06,-7.07 3.898,0 7.07,3.167 7.07,7.07 0,3.891 -3.17,7.07 -7.07,7.07 -3.898,0 -7.06,-3.174 -7.06,-7.07 m 4.703,0 c 0,1.297 1.058,2.352 2.355,2.352 1.297,0 2.355,-1.055 2.355,-2.352 0,-1.301 -1.058,-2.355 -2.355,-2.355 -1.297,0 -2.355,1.055 -2.355,2.355 m 31.791,-7.07 c 0,-3.895 3.17,-7.07 7.07,-7.07 3.898,0 7.06,3.167 7.06,7.07 0,3.891 -3.164,7.07 -7.06,7.07 -3.898,0 -7.07,-3.17 -7.07,-7.07 m 4.71,0 c 0,1.297 1.058,2.352 2.355,2.352 1.297,0 2.355,-1.055 2.355,-2.352 0,-1.3 -1.058,-2.355 -2.355,-2.355 -1.297,0 -2.355,1.058 -2.355,2.355 m -24.339,-23.547 c 0,-5.411 4.403,-9.814 9.818,-9.814 5.407,0 9.811,4.403 9.811,9.814 0,5.407 -4.403,9.814 -9.811,9.814 -5.418,0 -9.818,-4.403 -9.818,-9.814 m 4.71,0 c 0,2.813 2.291,5.104 5.108,5.104 2.81,0 5.108,-2.291 5.108,-5.104 0,-2.817 -2.298,-5.108 -5.108,-5.108 -2.817,0 -5.108,2.291 -5.108,5.108"
       inkscape:connector-curvature="0"
       id="path68"
       style="fill:#ffffff" />
  </g>
</svg>
