<?xml version="1.0" encoding="UTF-8" standalone="no"?>
<!-- Created with Inkscape (http://www.inkscape.org/) -->

<svg
   xmlns:dc="http://purl.org/dc/elements/1.1/"
   xmlns:cc="http://creativecommons.org/ns#"
   xmlns:rdf="http://www.w3.org/1999/02/22-rdf-syntax-ns#"
   xmlns:svg="http://www.w3.org/2000/svg"
   xmlns="http://www.w3.org/2000/svg"
   xmlns:inkscape="http://www.inkscape.org/namespaces/inkscape"
   version="1.1"
   width="100%"
   height="100%"
   viewBox="0 0 512 512"
   id="svg2">
  <metadata
     id="metadata74">
    <rdf:RDF>
      <cc:Work
         rdf:about="">
        <dc:format>image/svg+xml</dc:format>
        <dc:type
           rdf:resource="http://purl.org/dc/dcmitype/StillImage" />
      </cc:Work>
    </rdf:RDF>
  </metadata>
  <defs
     id="defs72" />
  <g
     transform="translate(0,-540.36)"
     id="g4">
    <path
       d="m 471.95,793.41 c 0,120.9 -98.01,218.9 -218.9,218.9 -120.9,0 -218.9,-98.01 -218.9,-218.9 0,-120.9 98.01,-218.9 218.9,-218.9 120.9,0 218.9,98.01 218.9,218.9"
       inkscape:connector-curvature="0"
       id="path6"
       style="fill:#f38725;fill-rule:evenodd" />
    <path
       d="m 233.06,106.34 c -5.759,0 -11.531,3.699 -11.531,11.531 0,17.638 -3.992,26.957 -10.625,31.5 -3.248,1.149 -6.258,2.662 -9.344,4.125 -0.097,0.046 -0.278,-0.047 -0.375,0 -7.938,1.641 -17.235,-2.11 -29.875,-14.75 -5.538,-5.538 -12.302,-4.073 -16.375,0 l -8.094,8.094 -8.094,8.094 c -4.073,4.073 -5.538,10.837 0,16.375 12.64,12.64 16.391,21.937 14.75,29.875 -0.024,0.118 0.027,0.257 0,0.375 -1.463,3.086 -2.976,6.095 -4.125,9.344 -4.543,6.633 -13.862,10.625 -31.5,10.625 -7.832,0 -11.531,5.772 -11.531,11.531 v 11.5 11.531 c 0,3.291 1.225,6.565 3.719,8.781 0.323,0.379 0.68,0.73 1.063,1.063 0.302,0.348 0.616,0.691 0.969,1 0.316,0.366 0.659,0.709 1.031,1.031 0.289,0.331 0.603,0.611 0.938,0.906 0.309,0.362 0.637,0.68 1,1 0.301,0.35 0.648,0.69 1,1 0.316,0.367 0.66,0.708 1.031,1.031 0.308,0.354 0.64,0.687 1,1 0.313,0.361 0.633,0.713 1,1.031 0.308,0.354 0.639,0.688 1,1 0.289,0.331 0.603,0.611 0.938,0.906 0.301,0.35 0.648,0.69 1,1 0.293,0.34 0.628,0.666 0.969,0.969 0.323,0.379 0.68,0.73 1.063,1.063 0.313,0.361 0.633,0.713 1,1.031 0.308,0.354 0.639,0.688 1,1 0.289,0.331 0.603,0.611 0.938,0.906 0.301,0.35 0.648,0.69 1,1 0.293,0.34 0.628,0.666 0.969,0.969 0.323,0.379 0.68,0.73 1.063,1.063 0.313,0.361 0.633,0.713 1,1.031 0.308,0.354 0.639,0.688 1,1 0.283,0.325 0.579,0.616 0.906,0.906 0.305,0.356 0.673,0.684 1.031,1 0.293,0.34 0.628,0.666 0.969,0.969 0.323,0.379 0.68,0.73 1.063,1.063 0.308,0.354 0.64,0.687 1,1 0.313,0.361 0.633,0.713 1,1.031 0.289,0.331 0.603,0.611 0.938,0.906 0.309,0.362 0.637,0.68 1,1 0.301,0.35 0.648,0.69 1,1 0.293,0.34 0.628,0.666 0.969,0.969 0.323,0.379 0.68,0.73 1.063,1.063 0.313,0.361 0.633,0.713 1,1.031 0.308,0.354 0.639,0.688 1,1 0.289,0.331 0.603,0.611 0.938,0.906 0.301,0.35 0.648,0.69 1,1 0.293,0.34 0.628,0.666 0.969,0.969 0.323,0.379 0.68,0.73 1.063,1.063 0.222,0.256 0.438,0.515 0.688,0.75 -2.434,4.01 -5.97,8.408 -10.875,13.313 -5.538,5.538 -4.072,12.334 0,16.406 l 1.656,1.625 c 0.107,0.115 0.201,0.232 0.313,0.344 l 0.906,0.906 c 0.031,0.032 0.062,0.062 0.094,0.094 l 0.906,0.906 c 0.031,0.031 0.063,0.063 0.094,0.094 l 0.781,0.75 c 0.075,0.078 0.142,0.174 0.219,0.25 l 0.281,0.25 0.406,0.406 c 0.103,0.111 0.206,0.237 0.313,0.344 l 1.906,1.875 c 0.026,0.027 0.036,0.067 0.063,0.094 l 0.156,0.156 1,1 0.656,0.625 c 0.068,0.071 0.118,0.15 0.188,0.219 l 0.156,0.125 0.438,0.438 0.344,0.375 c 0.021,0.021 0.042,0.042 0.063,0.063 l 0.125,0.125 1,1 1,1 0.5,0.469 c 0.117,0.127 0.222,0.253 0.344,0.375 l 0.094,0.063 0.031,0.031 0.031,0.063 1,1 0.656,0.625 c 0.068,0.071 0.118,0.15 0.188,0.219 l 0.156,0.125 0.063,0.063 0.031,0.063 0.031,0.031 0.844,0.844 0.156,0.156 c 0.011,0.011 0.021,0.021 0.031,0.031 l 0.813,0.813 0.156,0.156 c 0.115,0.115 0.224,0.233 0.344,0.344 l 0.188,0.156 c 0.061,0.064 0.125,0.125 0.188,0.188 v 0.031 l 0.125,0.125 0.156,0.125 0.438,0.438 0.094,0.094 0.031,0.031 c 0.051,0.053 0.104,0.104 0.156,0.156 v 0.031 l 0.063,0.063 0.063,0.063 0.125,0.125 0.875,0.875 0.125,0.125 0.563,0.563 c 0.052,0.054 0.103,0.103 0.156,0.156 l 0.156,0.125 0.063,0.063 0.031,0.031 0.031,0.063 0.844,0.844 0.156,0.156 c 0.011,0.011 0.021,0.021 0.031,0.031 l 0.813,0.813 0.156,0.156 c 0.105,0.105 0.203,0.211 0.313,0.313 l 0.063,0.031 0.219,0.219 c 0.02,0.021 0.042,0.042 0.063,0.063 v 0.031 l 0.063,0.063 0.125,0.125 0.156,0.125 0.438,0.438 0.063,0.063 0.094,0.125 0.063,0.063 0.031,0.031 0.094,0.094 0.063,0.063 0.125,0.125 0.875,0.875 0.125,0.125 0.875,0.875 0.125,0.125 0.688,0.656 c 0.016,0.016 0.015,0.047 0.031,0.063 l 0.156,0.125 0.063,0.063 0.031,0.063 0.031,0.031 c 0.011,0.011 0.021,0.021 0.031,0.031 l 0.813,0.813 0.156,0.156 c 0.116,0.116 0.224,0.232 0.344,0.344 0.117,0.127 0.253,0.253 0.375,0.375 l 0.125,0.125 0.031,0.031 0.125,0.094 0.625,0.625 0.094,0.094 0.125,0.156 0.156,0.125 0.438,0.438 0.094,0.094 0.031,0.031 c 0.047,0.049 0.077,0.108 0.125,0.156 l 0.031,0.031 0.063,0.063 0.063,0.063 0.125,0.125 0.875,0.875 0.125,0.125 0.656,0.656 c 0.021,0.021 0.041,0.041 0.063,0.063 l 0.156,0.125 0.063,0.063 0.031,0.063 0.031,0.031 0.844,0.844 0.156,0.156 c 0.011,0.011 0.021,0.021 0.031,0.031 l 0.813,0.813 0.156,0.156 c 0.115,0.115 0.224,0.233 0.344,0.344 l 0.188,0.156 c 0.061,0.064 0.125,0.125 0.188,0.188 v 0.031 l 0.125,0.125 0.156,0.125 0.438,0.438 0.094,0.094 0.031,0.031 c 0.047,0.049 0.077,0.108 0.125,0.156 l 0.031,0.031 0.063,0.063 0.063,0.063 0.125,0.125 0.875,0.875 0.125,0.125 0.656,0.656 c 0.021,0.021 0.041,0.041 0.063,0.063 l 0.156,0.125 0.063,0.063 0.063,0.094 0.844,0.844 0.156,0.156 c 0.011,0.011 0.021,0.021 0.031,0.031 l 0.813,0.813 0.156,0.156 c 0.105,0.105 0.203,0.211 0.313,0.313 l 0.063,0.031 0.188,0.188 0.156,0.188 0.125,0.125 0.156,0.125 0.438,0.438 0.125,0.125 c 0.051,0.053 0.104,0.104 0.156,0.156 v 0.031 l 0.063,0.063 0.063,0.063 0.125,0.125 0.875,0.875 0.125,0.125 0.594,0.563 c 0.047,0.049 0.077,0.108 0.125,0.156 l 0.156,0.125 v 0.031 l 0.125,0.125 0.688,0.656 c 0.016,0.016 0.015,0.047 0.031,0.063 l 0.156,0.125 0.063,0.063 0.031,0.063 0.031,0.031 c 0.011,0.011 0.021,0.021 0.031,0.031 l 0.813,0.813 0.156,0.156 c 0.085,0.085 0.163,0.168 0.25,0.25 l 0.063,0.031 c 0.022,0.02 0.041,0.042 0.063,0.063 l 0.156,0.156 c 0.035,0.037 0.058,0.089 0.094,0.125 l 0.031,0.031 c 0.02,0.02 0.042,0.042 0.063,0.063 l 0.125,0.125 0.031,0.031 0.125,0.094 0.438,0.438 c 0.091,0.096 0.188,0.188 0.281,0.281 l 0.031,0.031 0.031,0.063 0.063,0.063 0.125,0.125 0.875,0.875 0.125,0.125 0.875,0.875 0.125,0.125 0.688,0.656 c 0.016,0.016 0.015,0.047 0.031,0.063 l 0.156,0.125 0.063,0.063 0.031,0.063 0.031,0.031 c 0.011,0.011 0.021,0.021 0.031,0.031 l 0.813,0.813 0.156,0.156 c 0.116,0.116 0.224,0.232 0.344,0.344 0.117,0.127 0.253,0.253 0.375,0.375 l 0.125,0.125 0.031,0.031 0.125,0.094 0.625,0.625 0.094,0.094 0.125,0.156 0.156,0.125 0.438,0.438 0.094,0.094 0.031,0.031 c 0.047,0.049 0.077,0.108 0.125,0.156 l 0.031,0.031 0.063,0.063 0.063,0.063 0.125,0.125 0.875,0.875 0.125,0.125 0.656,0.656 c 0.021,0.021 0.041,0.041 0.063,0.063 l 0.156,0.125 0.063,0.063 0.031,0.063 0.031,0.031 0.844,0.844 0.156,0.156 c 0.011,0.011 0.021,0.021 0.031,0.031 l 0.813,0.813 0.156,0.156 c 0.115,0.115 0.224,0.233 0.344,0.344 0.085,0.085 0.102,0.071 0.188,0.156 0.061,0.064 0.125,0.125 0.188,0.188 v 0.031 l 0.125,0.125 0.156,0.125 0.438,0.438 0.094,0.094 0.031,0.031 c 0.051,0.053 0.104,0.104 0.156,0.156 v 0.031 l 0.063,0.063 0.063,0.063 0.125,0.125 0.875,0.875 0.125,0.125 0.656,0.656 c 0.021,0.021 0.041,0.041 0.063,0.063 l 0.156,0.125 0.063,0.063 0.063,0.094 0.844,0.844 0.156,0.156 c 0.011,0.011 0.021,0.021 0.031,0.031 l 0.813,0.813 0.156,0.156 c 0.105,0.105 0.203,0.211 0.313,0.313 l 0.063,0.031 0.188,0.188 0.156,0.188 0.125,0.125 c 0.005,0.005 0.156,0.125 0.156,0.125 l 0.438,0.438 0.094,0.094 0.125,0.156 0.031,0.031 0.094,0.094 0.063,0.063 0.125,0.125 0.875,0.875 0.125,0.125 0.594,0.563 c 0.047,0.049 0.077,0.108 0.125,0.156 l 0.156,0.125 v 0.031 l 0.125,0.125 0.688,0.656 c 0.016,0.016 0.015,0.047 0.031,0.063 l 0.156,0.125 0.063,0.063 0.031,0.063 0.031,0.031 c 0.011,0.011 0.021,0.021 0.031,0.031 l 0.813,0.813 0.156,0.156 c 0.116,0.116 0.224,0.232 0.344,0.344 0.117,0.127 0.253,0.253 0.375,0.375 l 0.125,0.125 0.031,0.031 0.125,0.094 0.625,0.625 0.094,0.094 0.125,0.156 0.156,0.125 0.438,0.438 0.094,0.094 0.031,0.031 c 0.047,0.049 0.077,0.108 0.125,0.156 l 0.031,0.031 0.063,0.063 0.063,0.063 0.125,0.125 0.875,0.875 0.125,0.125 0.656,0.656 c 0.021,0.021 0.041,0.041 0.063,0.063 l 0.156,0.125 0.063,0.063 0.031,0.063 0.031,0.031 0.844,0.844 0.156,0.156 c 0.011,0.011 0.021,0.021 0.031,0.031 l 0.813,0.813 0.156,0.156 c 0.115,0.115 0.224,0.233 0.344,0.344 l 0.188,0.156 c 0.061,0.064 0.125,0.125 0.188,0.188 v 0.031 l 0.125,0.125 0.156,0.125 0.438,0.438 0.094,0.094 0.031,0.031 c 0.047,0.049 0.077,0.108 0.125,0.156 l 0.031,0.031 0.063,0.063 0.063,0.063 0.125,0.125 0.875,0.875 0.125,0.125 0.688,0.688 c 0.011,0.011 0.021,0.021 0.031,0.031 l 0.156,0.125 0.063,0.063 0.031,0.063 0.031,0.031 0.844,0.844 0.156,0.156 c 0.011,0.011 0.021,0.021 0.031,0.031 l 0.813,0.813 0.156,0.156 c 0.115,0.115 0.224,0.233 0.344,0.344 l 0.188,0.156 c 0.025,0.026 0.037,0.068 0.063,0.094 l 0.031,0.031 0.094,0.094 0.125,0.125 0.156,0.125 0.438,0.438 0.094,0.094 0.063,0.094 0.125,0.125 0.063,0.063 0.063,0.063 0.125,0.125 0.875,0.875 0.125,0.125 0.594,0.563 c 0.047,0.049 0.077,0.108 0.125,0.156 l 0.156,0.125 v 0.031 l 0.125,0.125 0.688,0.656 c 0.016,0.016 0.015,0.047 0.031,0.063 l 0.156,0.125 0.063,0.063 0.031,0.063 0.031,0.031 c 0.011,0.011 0.021,0.021 0.031,0.031 l 0.813,0.813 0.156,0.156 c 0.085,0.085 0.163,0.168 0.25,0.25 l 0.063,0.031 c 0.022,0.02 0.041,0.042 0.063,0.063 l 0.156,0.156 c 0.035,0.037 0.058,0.089 0.094,0.125 l 0.031,0.031 c 0.02,0.02 0.042,0.042 0.063,0.063 l 0.125,0.125 0.031,0.031 0.125,0.094 0.438,0.438 c 0.091,0.096 0.188,0.188 0.281,0.281 l 0.031,0.031 0.031,0.063 0.063,0.063 0.125,0.125 0.875,0.875 0.125,0.125 0.875,0.875 0.125,0.125 0.688,0.656 c 0.016,0.016 0.015,0.047 0.031,0.063 l 0.156,0.125 0.063,0.063 0.031,0.063 0.031,0.031 c 0.011,0.011 0.021,0.021 0.031,0.031 l 0.813,0.813 0.156,0.156 c 0.126,0.126 0.244,0.254 0.375,0.375 0.108,0.116 0.232,0.232 0.344,0.344 l 0.125,0.125 0.031,0.031 0.125,0.094 0.625,0.625 0.094,0.094 0.125,0.156 0.156,0.125 0.438,0.438 0.094,0.094 0.031,0.031 c 0.047,0.049 0.077,0.108 0.125,0.156 l 0.031,0.031 0.063,0.063 0.063,0.063 0.125,0.125 0.875,0.875 0.125,0.125 0.656,0.656 c 0.021,0.021 0.041,0.041 0.063,0.063 l 0.156,0.125 0.063,0.063 0.031,0.063 0.031,0.031 0.844,0.844 0.156,0.156 c 0.011,0.011 0.021,0.021 0.031,0.031 l 0.813,0.813 0.156,0.156 c 0.115,0.115 0.224,0.233 0.344,0.344 l 0.188,0.156 c 0.061,0.064 0.125,0.125 0.188,0.188 v 0.031 l 0.125,0.125 0.156,0.125 0.438,0.438 0.094,0.094 0.031,0.031 c 0.051,0.053 0.104,0.104 0.156,0.156 v 0.031 l 0.063,0.063 0.063,0.063 0.125,0.125 0.875,0.875 0.125,0.125 0.656,0.656 c 0.021,0.021 0.041,0.041 0.063,0.063 l 0.156,0.125 0.063,0.063 0.063,0.094 0.844,0.844 0.156,0.156 c 0.011,0.011 0.021,0.021 0.031,0.031 l 0.813,0.813 0.156,0.156 c 0.105,0.105 0.203,0.211 0.313,0.313 l 0.063,0.031 0.188,0.188 0.156,0.188 0.125,0.125 0.156,0.125 0.438,0.438 0.094,0.094 0.125,0.156 0.031,0.031 0.094,0.094 0.063,0.063 0.125,0.125 0.875,0.875 0.125,0.125 c 0.109,0.109 0.555,0.524 0.594,0.563 0.047,0.049 0.077,0.108 0.125,0.156 0.005,0.005 0.156,0.125 0.156,0.125 v 0.031 l 0.125,0.125 0.688,0.656 c 0.016,0.016 0.015,0.047 0.031,0.063 l 0.156,0.125 0.063,0.063 0.031,0.063 0.031,0.031 c 0.011,0.011 0.021,0.021 0.031,0.031 l 0.813,0.813 0.156,0.156 c 0.095,0.095 0.183,0.189 0.281,0.281 l 0.063,0.031 c 0.011,0.01 0.021,0.021 0.031,0.031 l 0.156,0.156 c 0.035,0.037 0.058,0.089 0.094,0.125 l 0.031,0.031 c 0.02,0.02 0.042,0.042 0.063,0.063 l 0.125,0.125 0.031,0.031 0.125,0.094 0.625,0.625 0.094,0.094 0.125,0.156 0.156,0.125 0.031,0.063 0.094,0.094 0.031,0.031 0.063,0.063 0.344,0.344 c 0.042,0.043 0.083,0.083 0.125,0.125 l 0.156,0.156 0.125,0.125 0.875,0.875 0.125,0.125 0.656,0.656 c 0.021,0.021 0.041,0.041 0.063,0.063 l 0.156,0.125 0.063,0.063 0.031,0.063 0.031,0.031 c 0.011,0.011 0.021,0.021 0.031,0.031 l 0.813,0.813 0.156,0.156 c 0.011,0.011 0.021,0.021 0.031,0.031 l 0.813,0.813 0.156,0.156 c 0.115,0.115 0.224,0.233 0.344,0.344 l 0.188,0.156 c 0.061,0.064 0.125,0.125 0.188,0.188 v 0.031 l 0.125,0.125 0.156,0.125 0.438,0.438 0.094,0.094 0.031,0.031 c 0.047,0.049 0.077,0.108 0.125,0.156 l 0.031,0.031 0.063,0.063 0.063,0.063 0.125,0.125 0.875,0.875 0.125,0.125 0.688,0.688 c 0.011,0.011 0.021,0.021 0.031,0.031 l 0.156,0.125 0.063,0.063 c 0.012,0.012 0.019,0.05 0.031,0.063 l 0.031,0.031 0.844,0.844 0.156,0.156 c 0.011,0.011 0.021,0.021 0.031,0.031 l 0.813,0.813 0.156,0.156 c 0.115,0.115 0.224,0.233 0.344,0.344 0.075,0.075 0.11,0.078 0.188,0.156 0.054,0.054 0.039,0.071 0.094,0.125 l 0.094,0.094 0.125,0.125 0.156,0.125 0.438,0.438 0.094,0.094 c 0.038,0.038 0.025,0.056 0.063,0.094 l 0.125,0.125 0.063,0.063 0.063,0.063 0.125,0.125 0.875,0.875 0.125,0.125 c 0.109,0.109 0.555,0.524 0.594,0.563 0.047,0.049 0.077,0.108 0.125,0.156 0.005,0.005 0.156,0.125 0.156,0.125 0.004,0.004 -0.004,0.027 0,0.031 l 0.125,0.125 c 0.127,0.127 0.657,0.626 0.688,0.656 0.016,0.016 0.015,0.047 0.031,0.063 0.005,0.005 0.156,0.125 0.156,0.125 l 0.063,0.063 c 0.019,0.019 0.012,0.044 0.031,0.063 l 0.031,0.031 c 0.011,0.011 0.021,0.021 0.031,0.031 l 0.813,0.813 0.156,0.156 c 103.1,-10.426 185.04,-92.37 195.47,-195.47 l -0.156,-0.156 -0.813,-0.813 -0.031,-0.031 -0.063,-0.063 h -0.031 l -0.063,-0.063 -0.094,-0.125 -0.031,-0.031 c -0.083,-0.083 -0.165,-0.169 -0.25,-0.25 l -0.469,-0.469 -0.125,-0.125 h -0.031 l -0.125,-0.125 -0.25,-0.25 -0.094,-0.094 -0.375,-0.406 -0.125,-0.125 -0.875,-0.875 -0.125,-0.125 -0.063,-0.063 -0.813,-0.781 -0.031,-0.031 -0.031,-0.031 -0.031,-0.063 -0.031,-0.031 c -0.001,-0.001 -0.444,-0.413 -0.5,-0.469 -0.003,-0.003 0.003,-0.028 0,-0.031 l -0.031,-0.031 -0.031,-0.031 -0.031,-0.031 -0.25,-0.25 -0.156,-0.156 -0.813,-0.813 -0.031,-0.031 -0.156,-0.156 -0.844,-0.844 -0.031,-0.031 -0.125,-0.094 -0.156,-0.188 c -0.011,-0.011 -0.021,-0.021 -0.031,-0.031 l -0.031,-0.031 -0.063,-0.063 -0.688,-0.688 -0.875,-0.875 -0.125,-0.125 -0.063,-0.063 -0.469,-0.438 c -0.121,-0.112 -0.219,-0.236 -0.344,-0.344 l -0.031,-0.031 -0.063,-0.094 -0.031,-0.031 -0.156,-0.125 c -0.062,-0.062 -0.124,-0.126 -0.188,-0.188 l -0.156,-0.156 v -0.031 l -0.031,-0.031 -0.031,-0.031 -0.031,-0.031 -0.25,-0.25 -0.156,-0.156 -0.813,-0.813 -0.031,-0.031 -0.156,-0.156 -0.813,-0.813 -0.031,-0.031 -0.031,-0.031 -0.125,-0.094 -0.188,-0.219 c -0.011,-0.011 -0.021,-0.021 -0.031,-0.031 l -0.063,-0.063 -0.688,-0.688 -0.875,-0.875 -0.125,-0.125 -0.156,-0.156 c -0.042,-0.042 -0.082,-0.083 -0.125,-0.125 l -0.594,-0.563 v -0.031 l -0.125,-0.125 -0.156,-0.125 c -0.01,-0.01 -0.021,-0.021 -0.031,-0.031 l -0.063,-0.063 -0.625,-0.625 -0.094,-0.094 v -0.031 l -0.031,-0.031 -0.125,-0.125 c -0.02,-0.02 -0.042,-0.042 -0.063,-0.063 l -0.313,-0.281 -0.031,-0.031 -0.031,-0.031 v -0.031 l -0.031,-0.031 -0.25,-0.25 -0.156,-0.156 -0.813,-0.813 -0.031,-0.031 -0.031,-0.031 -0.125,-0.094 -0.188,-0.188 c -0.015,-0.015 -0.016,-0.047 -0.031,-0.063 l -0.063,-0.063 -0.688,-0.688 h -0.031 l -0.125,-0.125 -0.156,-0.156 -0.531,-0.563 -0.031,-0.031 -0.125,-0.125 -0.875,-0.875 -0.125,-0.125 -0.063,-0.063 -0.094,-0.063 c -0.052,-0.052 -0.103,-0.105 -0.156,-0.156 l -0.563,-0.563 -0.031,-0.063 -0.063,-0.063 -0.031,-0.031 -0.5,-0.469 -0.031,-0.031 v -0.031 l -0.031,-0.031 -0.031,-0.031 -0.25,-0.25 -0.156,-0.156 -0.813,-0.813 -0.031,-0.031 -0.156,-0.156 -0.844,-0.844 -0.094,-0.063 -0.063,-0.063 -0.188,-0.219 c -0.021,-0.021 -0.041,-0.042 -0.063,-0.063 l -0.031,-0.031 -0.688,-0.688 -0.875,-0.875 -0.125,-0.125 -0.063,-0.063 c -0.004,-0.004 -0.088,-0.057 -0.094,-0.063 -0.052,-0.052 -0.103,-0.105 -0.156,-0.156 l -0.563,-0.563 -0.031,-0.031 -0.063,-0.094 -0.031,-0.031 -0.156,-0.125 c -0.062,-0.062 -0.124,-0.126 -0.188,-0.188 l -0.156,-0.156 v -0.031 l -0.031,-0.031 -0.031,-0.031 -0.031,-0.031 -0.25,-0.25 -0.156,-0.156 -0.813,-0.813 -0.031,-0.031 -0.156,-0.156 -0.844,-0.844 -0.031,-0.031 -0.125,-0.094 -0.188,-0.219 c -0.011,-0.011 -0.021,-0.021 -0.031,-0.031 l -0.063,-0.063 -0.688,-0.688 -0.875,-0.875 -0.125,-0.125 -0.063,-0.063 -0.469,-0.438 c -0.121,-0.112 -0.219,-0.236 -0.344,-0.344 l -0.031,-0.031 -0.063,-0.094 -0.031,-0.031 -0.156,-0.125 c -0.031,-0.031 -0.062,-0.063 -0.094,-0.094 l -0.625,-0.625 -0.094,-0.094 v -0.031 l -0.031,-0.031 -0.469,-0.438 c -0.005,-0.005 0.005,-0.027 0,-0.031 l -0.063,-0.063 -0.313,-0.313 -0.156,-0.156 -0.813,-0.813 -0.031,-0.031 -0.031,-0.031 -0.125,-0.094 -0.188,-0.188 c -0.015,-0.015 -0.016,-0.047 -0.031,-0.063 l -0.063,-0.063 -0.688,-0.688 -0.875,-0.875 -0.125,-0.125 -0.875,-0.875 -0.281,-0.25 c -0.093,-0.093 -0.185,-0.191 -0.281,-0.281 l -0.438,-0.438 -0.094,-0.094 v -0.031 l -0.031,-0.031 -0.125,-0.125 c -0.02,-0.02 -0.042,-0.042 -0.063,-0.063 l -0.313,-0.281 -0.031,-0.031 c -0.011,-0.01 -0.021,-0.022 -0.031,-0.031 l -0.031,-0.031 v -0.031 l -0.25,-0.25 -0.156,-0.156 -0.813,-0.813 -0.031,-0.031 -0.031,-0.031 -0.125,-0.094 -0.188,-0.188 c -0.015,-0.015 -0.016,-0.047 -0.031,-0.063 l -0.063,-0.063 -0.688,-0.688 h -0.031 l -0.125,-0.125 -0.156,-0.156 -0.531,-0.563 -0.031,-0.031 -0.125,-0.125 -0.875,-0.875 -0.125,-0.125 -0.063,-0.063 -0.813,-0.781 -0.031,-0.031 -0.031,-0.031 -0.031,-0.063 -0.031,-0.031 -0.5,-0.469 v -0.031 l -0.031,-0.031 -0.031,-0.031 -0.031,-0.031 -0.25,-0.25 -0.156,-0.156 -0.813,-0.813 -0.031,-0.031 -0.156,-0.156 -0.844,-0.844 -0.031,-0.031 -0.125,-0.094 -0.156,-0.188 c -0.011,-0.011 -0.021,-0.021 -0.031,-0.031 l -0.031,-0.031 -0.063,-0.063 -0.688,-0.688 -0.875,-0.875 -0.125,-0.125 -0.063,-0.063 -0.5,-0.469 c -0.11,-0.101 -0.199,-0.215 -0.313,-0.313 l -0.031,-0.031 -0.063,-0.094 -0.031,-0.031 -0.156,-0.125 c -0.062,-0.062 -0.124,-0.126 -0.188,-0.188 l -0.156,-0.156 v -0.031 l -0.031,-0.031 -0.031,-0.031 -0.031,-0.031 -0.25,-0.25 -0.156,-0.156 -0.813,-0.813 -0.031,-0.031 -0.156,-0.156 -0.813,-0.813 -0.031,-0.031 -0.031,-0.031 -0.125,-0.094 -0.188,-0.219 c -0.011,-0.011 -0.021,-0.021 -0.031,-0.031 l -0.063,-0.063 -0.688,-0.688 -0.875,-0.875 -0.125,-0.125 -0.156,-0.156 c -0.042,-0.042 -0.082,-0.083 -0.125,-0.125 l -0.594,-0.563 v -0.031 l -0.125,-0.125 c -10e-4,-10e-4 -0.151,-0.119 -0.156,-0.125 -0.01,-0.01 -0.021,-0.021 -0.031,-0.031 l -0.063,-0.063 -0.625,-0.625 -0.094,-0.094 v -0.031 l -0.031,-0.031 -0.125,-0.125 c -0.02,-0.02 -0.042,-0.042 -0.063,-0.063 -0.015,-0.015 -0.278,-0.247 -0.313,-0.281 l -0.031,-0.031 -0.031,-0.031 v -0.031 l -0.031,-0.031 -0.25,-0.25 -0.156,-0.156 -0.813,-0.813 -0.031,-0.031 -0.031,-0.031 -0.125,-0.094 -0.188,-0.188 c -0.015,-0.015 -0.016,-0.047 -0.031,-0.063 l -0.063,-0.063 -0.688,-0.688 h -0.031 l -0.125,-0.125 -0.156,-0.156 -0.531,-0.563 -0.031,-0.031 -0.125,-0.125 -0.875,-0.875 -0.125,-0.125 -0.063,-0.063 -0.094,-0.063 c -0.052,-0.052 -0.103,-0.105 -0.156,-0.156 l -0.563,-0.563 -0.031,-0.063 -0.063,-0.063 -0.031,-0.031 -0.5,-0.469 -0.031,-0.031 v -0.031 l -0.031,-0.031 -0.031,-0.031 -0.25,-0.25 -0.156,-0.156 -0.813,-0.813 -0.031,-0.031 -0.156,-0.156 -0.844,-0.844 -0.094,-0.063 -0.063,-0.063 -0.188,-0.219 c -0.021,-0.021 -0.041,-0.042 -0.063,-0.063 l -0.031,-0.031 -0.688,-0.688 -0.875,-0.875 -0.125,-0.125 -0.063,-0.063 -0.094,-0.063 c -0.052,-0.052 -0.103,-0.105 -0.156,-0.156 l -0.563,-0.563 -0.031,-0.031 -0.063,-0.094 -0.031,-0.031 -0.156,-0.125 c -0.062,-0.062 -0.124,-0.126 -0.188,-0.188 l -0.156,-0.156 v -0.031 l -0.031,-0.031 -0.031,-0.031 -0.031,-0.031 -0.25,-0.25 -0.156,-0.156 -0.813,-0.813 -0.031,-0.031 -0.156,-0.156 -0.844,-0.844 -0.031,-0.031 -0.125,-0.094 -0.188,-0.219 c -0.011,-0.011 -0.021,-0.021 -0.031,-0.031 l -0.063,-0.063 -0.688,-0.688 -0.875,-0.875 -0.125,-0.125 -0.063,-0.063 -0.5,-0.469 c -0.11,-0.101 -0.199,-0.215 -0.313,-0.313 l -0.031,-0.031 -0.063,-0.094 -0.031,-0.031 -0.156,-0.125 c -0.031,-0.031 -0.062,-0.063 -0.094,-0.094 l -0.625,-0.625 -0.094,-0.094 v -0.031 l -0.031,-0.031 -0.125,-0.125 c -0.02,-0.02 -0.042,-0.042 -0.063,-0.063 l -0.313,-0.281 c -0.005,-0.005 0.005,-0.027 0,-0.031 l -0.063,-0.063 -0.281,-0.281 -0.156,-0.156 -0.813,-0.813 -0.031,-0.031 -0.031,-0.031 -0.125,-0.094 -0.188,-0.188 c -0.015,-0.015 -0.016,-0.047 -0.031,-0.063 l -0.063,-0.063 -0.688,-0.688 -0.875,-0.875 -0.125,-0.125 -0.875,-0.875 c -0.002,-0.002 -0.263,-0.232 -0.281,-0.25 -0.093,-0.093 -0.185,-0.191 -0.281,-0.281 l -0.438,-0.438 -0.094,-0.094 v -0.031 l -0.031,-0.031 -0.125,-0.125 c -0.02,-0.02 -0.042,-0.042 -0.063,-0.063 l -0.313,-0.281 -0.031,-0.031 c -0.011,-0.01 -0.021,-0.022 -0.031,-0.031 l -0.031,-0.031 v -0.031 l -0.25,-0.25 -0.156,-0.156 -0.813,-0.813 -0.031,-0.031 -0.031,-0.031 -0.125,-0.094 -0.188,-0.188 c -0.015,-0.015 -0.016,-0.047 -0.031,-0.063 l -0.063,-0.063 -0.688,-0.688 h -0.031 l -0.125,-0.125 -0.156,-0.156 -0.531,-0.563 -0.031,-0.031 -0.125,-0.125 -0.875,-0.875 -0.125,-0.125 -0.063,-0.063 -0.813,-0.781 -0.031,-0.031 -0.031,-0.031 -0.031,-0.063 -0.031,-0.031 -0.5,-0.469 v -0.031 l -0.031,-0.031 -0.031,-0.031 -0.031,-0.031 -0.25,-0.25 -0.156,-0.156 -0.813,-0.813 -0.031,-0.031 -0.156,-0.156 -0.844,-0.844 -0.031,-0.031 -0.125,-0.094 -0.156,-0.188 c -0.011,-0.011 -0.021,-0.021 -0.031,-0.031 l -0.031,-0.031 -0.063,-0.063 -0.688,-0.688 -0.875,-0.875 -0.125,-0.125 -0.063,-0.063 -0.469,-0.438 c -0.121,-0.112 -0.219,-0.236 -0.344,-0.344 l -0.031,-0.031 -0.063,-0.094 -0.031,-0.031 -0.156,-0.125 c -0.062,-0.062 -0.124,-0.126 -0.188,-0.188 l -0.156,-0.156 v -0.031 l -0.031,-0.031 -0.031,-0.031 -0.031,-0.031 -0.25,-0.25 -0.156,-0.156 -0.813,-0.813 -0.031,-0.031 -0.156,-0.156 -0.844,-0.844 -0.031,-0.031 -0.125,-0.094 -0.188,-0.219 c -0.011,-0.011 -0.021,-0.021 -0.031,-0.031 l -0.063,-0.063 -0.688,-0.688 -0.875,-0.875 -0.125,-0.125 -0.063,-0.063 -0.5,-0.469 c -0.11,-0.101 -0.199,-0.215 -0.313,-0.313 l -0.031,-0.031 -0.063,-0.094 -0.031,-0.031 -0.156,-0.125 c -0.031,-0.031 -0.062,-0.063 -0.094,-0.094 l -0.625,-0.625 -0.094,-0.094 v -0.031 l -0.031,-0.031 -0.125,-0.125 c -0.02,-0.02 -0.042,-0.042 -0.063,-0.063 l -0.313,-0.281 c -0.005,-0.005 0.005,-0.027 0,-0.031 l -0.063,-0.063 -0.281,-0.281 -0.156,-0.156 -0.813,-0.813 -0.031,-0.031 -0.031,-0.031 -0.125,-0.094 -0.188,-0.188 c -0.015,-0.015 -0.016,-0.047 -0.031,-0.063 l -0.063,-0.063 -0.688,-0.688 h -0.031 l -0.125,-0.125 -0.156,-0.156 -0.531,-0.563 -0.031,-0.031 -0.125,-0.125 -0.875,-0.875 -0.125,-0.125 -0.063,-0.063 -0.813,-0.781 -0.031,-0.063 -0.063,-0.063 -0.031,-0.031 -0.5,-0.469 -0.031,-0.031 v -0.031 l -0.031,-0.031 -0.031,-0.031 -0.25,-0.25 -0.156,-0.156 -0.813,-0.813 -0.031,-0.031 -0.156,-0.156 -0.844,-0.844 -0.094,-0.063 -0.063,-0.063 -0.188,-0.219 c -0.021,-0.021 -0.041,-0.042 -0.063,-0.063 l -0.031,-0.031 -0.688,-0.688 -0.875,-0.875 -0.125,-0.125 -0.063,-0.063 -0.094,-0.063 c -0.052,-0.052 -0.103,-0.105 -0.156,-0.156 l -0.563,-0.563 -0.031,-0.031 c -0.005,-0.005 -0.059,-0.091 -0.063,-0.094 l -0.031,-0.031 -0.156,-0.125 c -0.062,-0.062 -0.124,-0.126 -0.188,-0.188 l -0.156,-0.156 v -0.031 l -0.031,-0.031 -0.031,-0.031 -0.031,-0.031 -0.25,-0.25 -0.156,-0.156 -0.813,-0.813 -0.031,-0.031 -0.156,-0.156 -0.844,-0.844 -0.031,-0.031 -0.125,-0.094 -0.344,-0.344 -0.531,-0.563 -0.094,-0.094 -1,-1 -0.094,-0.063 -0.438,-0.438 c -0.099,-0.092 -0.18,-0.193 -0.281,-0.281 l -0.063,-0.063 -0.125,-0.156 -1,-1 -1,-1 -0.125,-0.125 c -0.021,-0.021 -0.042,-0.042 -0.063,-0.063 l -0.813,-0.781 -0.344,-0.344 -0.531,-0.563 -0.094,-0.094 -1,-1 -2.469,-2.438 c -0.137,-0.128 -0.264,-0.285 -0.406,-0.406 l -5.219,-5.25 h -0.031 c -4.073,-4.072 -10.837,-5.538 -16.375,0 -4.905,4.904 -9.298,8.441 -13.313,10.875 -0.219,-0.232 -0.451,-0.448 -0.688,-0.656 -0.344,-0.401 -0.73,-0.757 -1.125,-1.094 -0.303,-0.34 -0.629,-0.676 -0.969,-0.969 -0.31,-0.352 -0.65,-0.699 -1,-1 -0.285,-0.323 -0.556,-0.626 -0.875,-0.906 -0.311,-0.362 -0.648,-0.69 -1,-1 -0.311,-0.362 -0.648,-0.69 -1,-1 -0.309,-0.36 -0.65,-0.692 -1,-1 -0.335,-0.389 -0.712,-0.734 -1.094,-1.063 -0.31,-0.352 -0.65,-0.699 -1,-1 -0.32,-0.363 -0.638,-0.691 -1,-1 -0.285,-0.323 -0.556,-0.626 -0.875,-0.906 -0.311,-0.362 -0.648,-0.69 -1,-1 -0.309,-0.36 -0.65,-0.692 -1,-1 -0.344,-0.401 -0.73,-0.757 -1.125,-1.094 -0.303,-0.34 -0.629,-0.676 -0.969,-0.969 -0.316,-0.358 -0.644,-0.726 -1,-1.031 -0.28,-0.317 -0.562,-0.6 -0.875,-0.875 -0.311,-0.362 -0.648,-0.69 -1,-1 -0.311,-0.362 -0.648,-0.69 -1,-1 -0.344,-0.401 -0.73,-0.757 -1.125,-1.094 -0.303,-0.34 -0.629,-0.676 -0.969,-0.969 -0.31,-0.352 -0.65,-0.699 -1,-1 -0.285,-0.323 -0.556,-0.626 -0.875,-0.906 -0.311,-0.362 -0.648,-0.69 -1,-1 -0.311,-0.362 -0.648,-0.69 -1,-1 -0.344,-0.401 -0.73,-0.757 -1.125,-1.094 -0.303,-0.34 -0.629,-0.676 -0.969,-0.969 -0.31,-0.352 -0.65,-0.699 -1,-1 -0.285,-0.323 -0.556,-0.626 -0.875,-0.906 -0.311,-0.362 -0.648,-0.69 -1,-1 -0.311,-0.362 -0.648,-0.69 -1,-1 -0.309,-0.36 -0.65,-0.692 -1,-1 -0.335,-0.389 -0.712,-0.734 -1.094,-1.063 -0.31,-0.352 -0.65,-0.699 -1,-1 -0.32,-0.363 -0.638,-0.691 -1,-1 -0.285,-0.323 -0.556,-0.626 -0.875,-0.906 -0.311,-0.362 -0.648,-0.69 -1,-1 -0.309,-0.36 -0.65,-0.692 -1,-1 -0.344,-0.401 -0.73,-0.757 -1.125,-1.094 -2.216,-2.493 -5.49,-3.719 -8.781,-3.719 h -11.531 -11.5"
       inkscape:connector-curvature="0"
       transform="translate(0,540.36)"
       id="path8"
       style="color:#000000;fill-opacity:0.23500001" />
    <g
       id="g10"
       style="fill-rule:evenodd">
      <path
         d="m 256,541.36 c -140.83,0 -255,114.17 -255,255 0,140.83 114.17,255 255,255 140.83,0 255,-114.17 255,-255 0,-140.83 -114.17,-255 -255,-255 m 8.827,44.931 c 120.9,0 218.9,98 218.9,218.9 0,120.9 -98,218.9 -218.9,218.9 -120.9,0 -218.93,-98 -218.93,-218.9 0,-120.9 98.03,-218.9 218.93,-218.9"
         inkscape:connector-curvature="0"
         id="path12"
         style="fill-opacity:0.06700003" />
      <g
         id="g14"
         style="fill-opacity:0.12900002">
        <path
           d="M 256,544.79 C 117.06,544.79 4.43,657.42 4.43,796.36 4.43,935.3 117.06,1047.93 256,1047.93 394.94,1047.93 507.57,935.3 507.57,796.36 507.57,657.42 394.94,544.79 256,544.79 m 5.885,38.556 c 120.9,0 218.9,98 218.9,218.9 0,120.9 -98,218.9 -218.9,218.9 -120.9,0 -218.93,-98 -218.93,-218.9 0,-120.9 98.03,-218.9 218.93,-218.9"
           inkscape:connector-curvature="0"
           id="path16" />
        <path
           d="M 256,548.72 C 119.23,548.72 8.36,659.59 8.36,796.36 8.36,933.13 119.23,1044 256,1044 392.77,1044 503.64,933.13 503.64,796.36 503.64,659.59 392.77,548.72 256,548.72 m 2.942,31.691 c 120.9,0 218.9,98 218.9,218.9 0,120.9 -98,218.9 -218.9,218.9 -120.9,0 -218.93,-98 -218.93,-218.9 0,-120.9 98.03,-218.9 218.93,-218.9"
           inkscape:connector-curvature="0"
           id="path18" />
      </g>
      <path
         d="M 253.04,548.22 C 117.62,548.22 7.85,658 7.85,793.41 c 0,135.42 109.78,245.19 245.19,245.19 135.42,0 245.19,-109.78 245.19,-245.19 0,-135.42 -109.78,-245.19 -245.19,-245.19 z m 0,26.297 c 120.9,0 218.9,98 218.9,218.9 0,120.9 -98,218.9 -218.9,218.9 -120.9,0 -218.93,-98 -218.93,-218.9 0,-120.9 98.03,-218.9 218.93,-218.9 z"
         inkscape:connector-curvature="0"
         id="path20"
         style="fill:#ffffff;stroke:#000000;stroke-width:4.90399981;stroke-opacity:0.31000001" />
    </g>
    <text
       x="729.64001"
       y="771.71997"
       id="text22"
       style="font-size:129.22999573px;line-height:125%;letter-spacing:0;word-spacing:0;font-family:Gentium Book Basic">
      <tspan
         x="729.64001"
         y="771.71997"
         id="tspan24" />
    </text>
    <text
       x="378.91"
       y="2747.6399"
       transform="scale(4.0128,0.2492)"
       id="text26"
       style="font-size:46.95399857px;text-anchor:middle;font-family:Arial" />
    <text
       x="1310.91"
       y="691.71997"
       id="text28"
       style="font-size:129.22999573px;line-height:125%;letter-spacing:0;word-spacing:0;font-family:Gentium Book Basic">
      <tspan
         x="1310.91"
         y="691.71997"
         id="tspan30" />
    </text>
    <text
       x="523.76001"
       y="2426.6001"
       transform="scale(4.0128,0.2492)"
       id="text32"
       style="font-size:46.95399857px;text-anchor:middle;font-family:Arial" />
    <text
       x="239.33"
       y="510.45999"
       id="text34"
       style="font-size:129.22999573px;line-height:125%;letter-spacing:0;word-spacing:0;font-family:Gentium Book Basic">
      <tspan
         x="239.33"
         y="510.45999"
         id="tspan36" />
    </text>
    <text
       x="256.72"
       y="1699.25"
       transform="scale(4.0128,0.2492)"
       id="text38"
       style="font-size:46.95399857px;text-anchor:middle;font-family:Arial" />
    <text
       x="1337.38"
       y="293.98999"
       id="text40"
       style="font-size:129.22999573px;line-height:125%;letter-spacing:0;word-spacing:0;font-family:Gentium Book Basic">
      <tspan
         x="1337.38"
         y="293.98999"
         id="tspan42" />
    </text>
    <text
       x="530.35999"
       y="830.57001"
       transform="scale(4.0128,0.2492)"
       id="text44"
       style="font-size:46.95399857px;text-anchor:middle;font-family:Arial" />
    <text
       x="1918.65"
       y="213.99001"
       id="text46"
       style="font-size:129.22999573px;line-height:125%;letter-spacing:0;word-spacing:0;font-family:Gentium Book Basic">
      <tspan
         x="1918.65"
         y="213.99001"
         id="tspan48" />
    </text>
    <text
       x="675.21002"
       y="509.54001"
       transform="scale(4.0128,0.2492)"
       id="text50"
       style="font-size:46.95399857px;text-anchor:middle;font-family:Arial" />
    <text
       x="1529.53"
       y="-258.41"
       id="text52"
       style="font-size:129.22999573px;line-height:125%;letter-spacing:0;word-spacing:0;font-family:Gentium Book Basic">
      <tspan
         x="1529.53"
         y="-258.41"
         id="tspan54" />
    </text>
    <text
       x="578.23999"
       y="-1386.12"
       transform="scale(4.0128,0.2492)"
       id="text56"
       style="font-size:46.95399857px;text-anchor:middle;font-family:Arial" />
    <text
       x="2110.79"
       y="-338.42001"
       id="text58"
       style="font-size:129.22999573px;line-height:125%;letter-spacing:0;word-spacing:0;font-family:Gentium Book Basic">
      <tspan
         x="2110.79"
         y="-338.42001"
         id="tspan60" />
    </text>
    <text
       x="723.09003"
       y="-1707.16"
       transform="scale(4.0128,0.2492)"
       id="text62"
       style="font-size:46.95399857px;text-anchor:middle;font-family:Arial" />
    <text
       x="277.98999"
       y="1076.3"
       id="text64"
       style="font-size:208.33000183px;line-height:125%;letter-spacing:0;word-spacing:0;font-family:Gentium Book Basic">
      <tspan
         x="277.98999"
         y="1076.3"
         id="tspan66" />
    </text>
    <path
       d="m 233.05,646.71 c -5.759,0 -11.519,3.687 -11.519,11.519 0,17.638 -3.986,26.955 -10.619,31.497 -3.248,1.149 -6.273,2.677 -9.359,4.14 -0.097,0.046 -0.263,-0.047 -0.36,0 -7.938,1.641 -17.237,-2.118 -29.877,-14.759 -5.538,-5.538 -12.306,-4.073 -16.379,0 l -8.099,8.099 -8.099,8.099 c -4.073,4.073 -5.538,10.84 0,16.379 12.64,12.64 16.4,21.94 14.759,29.877 -0.024,0.118 0.027,0.242 0,0.36 -1.463,3.086 -2.99,6.111 -4.14,9.359 -4.543,6.633 -13.859,10.619 -31.497,10.619 -7.832,0 -11.519,5.759 -11.519,11.519 v 11.519 11.519 c 0,5.759 3.687,11.519 11.519,11.519 17.638,0 26.955,3.986 31.497,10.619 1.149,3.248 2.677,6.273 4.14,9.359 0.046,0.097 -0.047,0.263 0,0.36 1.641,7.938 -2.118,17.237 -14.759,29.877 -5.538,5.538 -4.073,12.306 0,16.379 l 8.099,8.099 8.099,8.099 c 4.073,4.073 10.84,5.538 16.379,0 12.64,-12.64 21.94,-16.4 29.877,-14.759 0.118,0.024 0.242,-0.027 0.36,0 3.086,1.463 6.111,2.99 9.359,4.14 6.633,4.543 10.619,13.859 10.619,31.497 0,7.832 5.76,11.519 11.519,11.519 h 11.519 11.519 c 5.759,0 11.519,-3.687 11.519,-11.519 0,-17.638 3.986,-26.955 10.619,-31.497 3.248,-1.149 6.273,-2.677 9.359,-4.14 0.097,-0.046 0.263,0.047 0.36,0 7.938,-1.641 17.237,2.118 29.877,14.759 5.538,5.538 12.306,4.073 16.378,0 l 8.099,-8.099 8.099,-8.099 c 4.073,-4.073 5.538,-10.84 0,-16.379 -12.64,-12.64 -16.4,-21.94 -14.759,-29.877 0.024,-0.118 -0.027,-0.242 0,-0.36 1.463,-3.086 2.99,-6.111 4.14,-9.359 4.543,-6.633 13.859,-10.619 31.497,-10.619 7.832,0 11.519,-5.759 11.519,-11.519 v -11.519 -11.519 c 0,-5.759 -3.687,-11.519 -11.519,-11.519 -17.638,0 -26.955,-3.986 -31.497,-10.619 -1.149,-3.248 -2.677,-6.273 -4.14,-9.359 -0.027,-0.118 0.024,-0.242 0,-0.36 -1.641,-7.938 2.118,-17.237 14.759,-29.877 5.538,-5.538 4.073,-12.306 0,-16.379 l -8.099,-8.099 -8.099,-8.099 c -4.073,-4.073 -10.84,-5.538 -16.378,0 -12.64,12.64 -21.94,16.4 -29.877,14.759 -0.097,-0.047 -0.263,0.046 -0.36,0 -3.086,-1.463 -6.111,-2.99 -9.359,-4.14 -6.633,-4.543 -10.619,-13.859 -10.619,-31.497 0,-7.832 -5.759,-11.519 -11.519,-11.519 H 244.569 233.05 m 11.519,80.63 c 31.809,0 57.59,25.786 57.59,57.59 0,31.809 -25.786,57.59 -57.59,57.59 -31.809,0 -57.59,-25.786 -57.59,-57.59 0,-31.809 25.786,-57.59 57.59,-57.59"
       inkscape:connector-curvature="0"
       id="path68"
       style="color:#000000;fill:#ffffff" />
  </g>
</svg>
