<?xml version="1.0" encoding="UTF-8" standalone="no"?>
<!-- Created with Inkscape (http://www.inkscape.org/) -->

<svg
   xmlns:dc="http://purl.org/dc/elements/1.1/"
   xmlns:cc="http://creativecommons.org/ns#"
   xmlns:rdf="http://www.w3.org/1999/02/22-rdf-syntax-ns#"
   xmlns:svg="http://www.w3.org/2000/svg"
   xmlns="http://www.w3.org/2000/svg"
   xmlns:xlink="http://www.w3.org/1999/xlink"
   xmlns:sodipodi="http://sodipodi.sourceforge.net/DTD/sodipodi-0.dtd"
   xmlns:inkscape="http://www.inkscape.org/namespaces/inkscape"
   width="512"
   height="512"
   id="svg2"
   version="1.1"
   inkscape:version="0.48.5 r10040"
   sodipodi:docname="ardis-builder.svg"
   inkscape:export-filename="/home/ivan/Projekti/Ardis/ardis-builder.png"
   inkscape:export-xdpi="90"
   inkscape:export-ydpi="90">
  <sodipodi:namedview
     id="base"
     pagecolor="#ffffff"
     bordercolor="#666666"
     borderopacity="1.0"
     inkscape:pageopacity="0.0"
     inkscape:pageshadow="2"
     inkscape:zoom="0.49497475"
     inkscape:cx="271.40357"
     inkscape:cy="282.1724"
     inkscape:document-units="px"
     inkscape:current-layer="layer1"
     showgrid="false"
     inkscape:window-width="1306"
     inkscape:window-height="706"
     inkscape:window-x="56"
     inkscape:window-y="26"
     inkscape:window-maximized="1" />
  <defs
     id="defs4">
    <linearGradient
       id="linearGradient5794">
      <stop
         style="stop-color:#000000;stop-opacity:1;"
         offset="0"
         id="stop5796" />
      <stop
         style="stop-color:#ffffff;stop-opacity:1;"
         offset="1"
         id="stop5798" />
    </linearGradient>
    <linearGradient
       id="linearGradient5786">
      <stop
         style="stop-color:#ffffff;stop-opacity:1;"
         offset="0"
         id="stop5788" />
      <stop
         style="stop-color:#000000;stop-opacity:1;"
         offset="1"
         id="stop5790" />
    </linearGradient>
    <clipPath
       clipPathUnits="userSpaceOnUse"
       id="clipPath5740">
      <path
         style="fill:#ea6124;fill-opacity:1;fill-rule:evenodd"
         inkscape:connector-curvature="0"
         d="m 471.9456,793.41407 c 0,120.89699 -98.00565,218.90723 -218.90724,218.90723 -120.89698,0 -218.90723,-98.00565 -218.90723,-218.90723 0,-120.89698 98.00565,-218.90723 218.90723,-218.90723 120.89699,0 218.90724,98.00565 218.90724,218.90723"
         id="path5742" />
    </clipPath>
    <linearGradient
       inkscape:collect="always"
       xlink:href="#linearGradient5786"
       id="linearGradient5792"
       x1="244.83914"
       y1="794.92023"
       x2="244.83914"
       y2="573.43622"
       gradientUnits="userSpaceOnUse" />
    <linearGradient
       inkscape:collect="always"
       xlink:href="#linearGradient5794"
       id="linearGradient5800"
       x1="249.12482"
       y1="794.04077"
       x2="249.12482"
       y2="1010.4744"
       gradientUnits="userSpaceOnUse" />
    <linearGradient
       inkscape:collect="always"
       xlink:href="#linearGradient5794"
       id="linearGradient5806"
       gradientUnits="userSpaceOnUse"
       x1="249.12482"
       y1="794.04077"
       x2="249.12482"
       y2="1010.4744" />
    <linearGradient
       inkscape:collect="always"
       xlink:href="#linearGradient5786"
       id="linearGradient5808"
       gradientUnits="userSpaceOnUse"
       x1="244.83914"
       y1="794.92023"
       x2="244.83914"
       y2="573.43622" />
  </defs>
  <metadata
     id="metadata7">
    <rdf:RDF>
      <cc:Work
         rdf:about="">
        <dc:format>image/svg+xml</dc:format>
        <dc:type
           rdf:resource="http://purl.org/dc/dcmitype/StillImage" />
        <dc:title></dc:title>
      </cc:Work>
    </rdf:RDF>
  </metadata>
  <g
     inkscape:label="Layer 1"
     inkscape:groupmode="layer"
     id="layer1"
     transform="translate(0,-540.36218)">
    <path
       id="path2991"
       d="m 471.9456,793.41407 c 0,120.89699 -98.00565,218.90723 -218.90724,218.90723 -120.89698,0 -218.90723,-98.00565 -218.90723,-218.90723 0,-120.89698 98.00565,-218.90723 218.90723,-218.90723 120.89699,0 218.90724,98.00565 218.90724,218.90723"
       inkscape:connector-curvature="0"
       style="fill:#ea6124;fill-rule:evenodd;fill-opacity:1" />
    <path
       id="path4121"
       transform="translate(0,540.36218)"
       d="M 210.1875 38.34375 C 109.79858 58.262005 34.125 146.82708 34.125 253.0625 C 34.125 373.96408 132.13427 471.96875 253.03125 471.96875 C 290.16998 471.96875 325.14058 462.69407 355.78125 446.375 L 210.1875 38.34375 z "
       style="font-size:medium;font-style:normal;font-variant:normal;font-weight:normal;font-stretch:normal;text-indent:0;text-align:start;text-decoration:none;line-height:normal;letter-spacing:normal;word-spacing:normal;text-transform:none;direction:ltr;block-progression:tb;writing-mode:lr-tb;text-anchor:start;baseline-shift:baseline;color:#000000;fill:#189d4d;fill-opacity:1;stroke:none;stroke-width:1px;marker:none;visibility:visible;display:inline;overflow:visible;enable-background:accumulate;font-family:Sans;-inkscape-font-specification:Sans" />
    <g
       id="g5802"
       style="opacity:0.1"
       transform="matrix(-0.73441359,-0.6787022,0.6787022,-0.73441359,-99.638244,1547.8594)">
      <path
         id="path5750"
         d="m 34.125,792.89343 c -4.22e-4,0.1773 0,0.35385 0,0.53125 0,120.90158 98.00927,218.90622 218.90625,218.90622 120.90159,0 218.90625,-98.00923 218.90625,-218.90622 0,-0.17741 4.2e-4,-0.35394 0,-0.53125 l -437.8125,0 z"
         style="font-size:medium;font-style:normal;font-variant:normal;font-weight:normal;font-stretch:normal;text-indent:0;text-align:start;text-decoration:none;line-height:normal;letter-spacing:normal;word-spacing:normal;text-transform:none;direction:ltr;block-progression:tb;writing-mode:lr-tb;text-anchor:start;baseline-shift:baseline;color:#000000;fill:url(#linearGradient5806);fill-opacity:1;stroke:none;stroke-width:1px;marker:none;visibility:visible;display:inline;overflow:visible;enable-background:accumulate;font-family:Sans;-inkscape-font-specification:Sans"
         inkscape:connector-curvature="0" />
      <path
         id="path5744"
         d="m 253.03125,574.51843 c -120.90158,0 -218.90625,98.00927 -218.90625,218.90625 0,0.1574 -3.32e-4,0.31142 0,0.46875 l 437.8125,0 c 3.3e-4,-0.15732 0,-0.31135 0,-0.46875 0,-120.90158 -98.00926,-218.90625 -218.90625,-218.90625 z"
         style="fill:url(#linearGradient5808);fill-opacity:1;fill-rule:evenodd"
         inkscape:connector-curvature="0" />
    </g>
    <g
       style="font-size:326.27954102000001058px;font-style:normal;font-weight:bold;line-height:125%;letter-spacing:0px;word-spacing:0px;fill:#000000;fill-opacity:1;stroke:none;font-family:Sans;-inkscape-font-specification:Sans Bold;opacity:0.25"
       id="g5240"
       clip-path="url(#clipPath5740)">
      <path
         inkscape:connector-curvature="0"
         d="m 176.73437,679.42468 -82.218745,233.875 388.908725,388.90872 82.21875,-233.875 z"
         id="path5242"
         style="fill:#000000" />
      <path
         inkscape:connector-curvature="0"
         d="m 94.515625,913.29968 53.218745,0 388.90873,388.90872 -53.21875,0 z"
         id="path5244"
         style="fill:#000000" />
      <path
         inkscape:connector-curvature="0"
         d="m 147.73437,913.29968 16.875,-55.4375 388.90873,388.90872 -16.875,55.4375 z"
         id="path5246"
         style="fill:#000000" />
      <path
         inkscape:connector-curvature="0"
         d="m 164.60937,857.86218 84.9375,0 388.90873,388.90872 -84.9375,0 z"
         id="path5248"
         style="fill:#000000" />
      <path
         inkscape:connector-curvature="0"
         d="m 249.54687,857.86218 16.875,55.4375 388.90873,388.90872 -16.875,-55.4375 z"
         id="path5250"
         style="fill:#000000" />
      <path
         inkscape:connector-curvature="0"
         d="m 266.42187,913.29968 53.21875,0 388.90873,388.90872 -53.21875,0 z"
         id="path5252"
         style="fill:#000000" />
      <path
         inkscape:connector-curvature="0"
         d="m 319.64062,913.29968 -82.53125,-233.875 388.90873,388.90872 82.53125,233.875 z"
         id="path5254"
         style="fill:#000000" />
      <path
         inkscape:connector-curvature="0"
         d="m 237.10937,679.42468 -60.375,0 388.90873,388.90872 60.375,0 z"
         id="path5256"
         style="fill:#000000" />
      <path
         inkscape:connector-curvature="0"
         d="m 256.39062,679.89343 c 15.44552,43.81702 30.91602,87.62522 46.375,131.4375 l 388.90873,388.90877 c -15.45898,-43.8123 -30.92948,-87.6205 -46.375,-131.4375 z"
         id="path5258"
         style="fill:#000000" />
      <path
         inkscape:connector-curvature="0"
         d="m 302.76562,811.33093 22,0 388.90873,388.90877 -22,0 z"
         id="path5260"
         style="fill:#000000" />
      <path
         inkscape:connector-curvature="0"
         d="m 324.76562,811.33093 c 16.24704,6e-5 27.71993,3.34726 34.41246,10.03979 l 388.90873,388.90868 c -6.69253,-6.6925 -18.16543,-10.0397 -34.41246,-10.0397 z"
         id="path5262"
         style="fill:#000000" />
      <path
         inkscape:connector-curvature="0"
         d="m 359.17808,821.37072 c 4.68259,4.68259 7.02498,11.00287 7.02504,18.96021 l 388.90873,388.90877 c -6e-5,-7.9574 -2.34245,-14.2777 -7.02504,-18.9603 z"
         id="path5264"
         style="fill:#000000" />
      <path
         inkscape:connector-curvature="0"
         d="m 366.20312,840.33093 c -1.5e-4,10.72735 -3.24004,18.70198 -9.71875,23.90625 L 745.3931,1253.1459 c 6.47871,-5.2043 9.7186,-13.1789 9.71875,-23.9062 z"
         id="path5266"
         style="fill:#000000" />
      <path
         inkscape:connector-curvature="0"
         d="m 356.48437,864.23718 c -6.47899,5.20438 -16.53015,7.81254 -30.125,7.8125 L 715.2681,1260.9584 c 13.59485,0 23.64601,-2.6081 30.125,-7.8125 z"
         id="path5268"
         style="fill:#000000" />
      <path
         inkscape:connector-curvature="0"
         d="m 326.35937,872.04968 -2.1875,0 388.90873,388.90872 2.1875,0 z"
         id="path5270"
         style="fill:#000000" />
      <path
         inkscape:connector-curvature="0"
         d="m 324.17187,872.04968 c 4.77945,13.54231 9.56399,27.08281 14.34375,40.625 l 388.90873,388.90872 c -4.77976,-13.5422 -9.5643,-27.0827 -14.34375,-40.625 z"
         id="path5272"
         style="fill:#000000" />
      <path
         inkscape:connector-curvature="0"
         d="m 338.51562,912.67468 c 23.23816,-0.92629 41.88223,-6.80435 55.875,-17.6875 l 388.90873,388.90872 c -13.99277,10.8832 -32.63684,16.7612 -55.875,17.6875 z"
         id="path5274"
         style="fill:#000000" />
      <path
         inkscape:connector-curvature="0"
         d="m 394.39062,894.98718 c 15.40037,-11.89558 23.09355,-28.47655 23.09375,-49.71875 L 806.3931,1234.1772 c -2e-4,21.2422 -7.69338,37.8231 -23.09375,49.7187 z"
         id="path5276"
         style="fill:#000000" />
      <path
         inkscape:connector-curvature="0"
         d="m 417.48437,845.26843 c -2e-4,-14.97564 -3.29012,-26.97199 -9.875,-36 L 796.5181,1198.1772 c 6.58488,9.028 9.8748,21.0243 9.875,36 z"
         id="path5278"
         style="fill:#000000" />
      <path
         inkscape:connector-curvature="0"
         d="m 407.60937,809.26843 c -1.17896,-1.64275 -2.49442,-3.19015 -3.94662,-4.64235 l 388.90873,388.90872 c 1.4522,1.4522 2.76766,2.9996 3.94662,4.6424 z"
         id="path5280"
         style="fill:#000000" />
      <path
         inkscape:connector-curvature="0"
         d="m 403.66275,804.62608 c -6.52845,-6.52845 -15.82038,-11.13289 -27.89713,-13.8264 l 388.90873,388.90872 c 12.07675,2.6935 21.36868,7.298 27.89713,13.8264 z"
         id="path5282"
         style="fill:#000000" />
      <path
         inkscape:connector-curvature="0"
         d="m 375.76562,790.79968 0,-1.59375 388.90873,388.90877 0,1.5937 z"
         id="path5284"
         style="fill:#000000" />
      <path
         inkscape:connector-curvature="0"
         d="m 375.76562,789.20593 c 10.83333,-1.80546 19.45846,-7.17191 25.9375,-16.09375 l 388.90873,388.90872 c -6.47904,8.9218 -15.10417,14.2883 -25.9375,16.0938 z"
         id="path5286"
         style="fill:#000000" />
      <path
         inkscape:connector-curvature="0"
         d="m 401.70312,773.11218 c 6.58488,-8.92156 9.90607,-20.33623 9.90625,-34.25 L 800.5181,1127.7709 c -1.8e-4,13.9138 -3.32137,25.3284 -9.90625,34.25 z"
         id="path5288"
         style="fill:#000000" />
      <path
         inkscape:connector-curvature="0"
         d="m 411.60937,738.86218 c -1.4e-4,-16.0845 -4.61366,-28.74416 -13.83555,-37.96606 l 388.90873,388.90878 c 9.22189,9.2218 13.83541,21.8815 13.83555,37.966 z"
         id="path5290"
         style="fill:#000000" />
      <path
         inkscape:connector-curvature="0"
         d="m 397.77382,700.89612 c -2.53072,-2.53071 -5.40849,-4.80253 -8.6332,-6.81519 l 388.90873,388.90877 c 3.22471,2.0126 6.10248,4.2844 8.6332,6.8152 z"
         id="path5292"
         style="fill:#000000" />
      <path
         inkscape:connector-curvature="0"
         d="m 389.14062,694.08093 c -14.86966,-9.45253 -38.84357,-14.18727 -71.875,-14.1875 l 388.90873,388.90877 c 33.03143,2e-4 57.00534,4.7349 71.875,14.1875 z"
         id="path5294"
         style="fill:#000000" />
      <path
         inkscape:connector-curvature="0"
         d="m 317.26562,679.89343 -60.875,0 388.90873,388.90877 60.875,0 z"
         id="path5296"
         style="fill:#000000" />
      <path
         inkscape:connector-curvature="0"
         d="m 207.17187,715.58093 c 0.84957,3.82379 2.21309,9.04012 4.125,15.625 L 600.2056,1120.1147 c -1.91191,-6.5849 -3.27543,-11.8013 -4.125,-15.625 z"
         id="path5298"
         style="fill:#000000" />
      <path
         inkscape:connector-curvature="0"
         d="m 211.29687,731.20593 c 2.01789,6.58524 10.82438,34.98119 26.4375,85.21875 L 626.6431,1205.3334 c -15.61312,-50.2376 -24.41961,-78.6335 -26.4375,-85.2187 z"
         id="path5300"
         style="fill:#000000" />
      <path
         inkscape:connector-curvature="0"
         d="m 237.73437,816.42468 -60.6875,0 388.90873,388.90872 60.6875,0 z"
         id="path5302"
         style="fill:#000000" />
      <path
         inkscape:connector-curvature="0"
         d="m 177.04687,816.42468 c 16.56878,-53.6363 26.61993,-87.24858 30.125,-100.84375 L 596.0806,1104.4897 c -3.50507,13.5951 -13.55622,47.2074 -30.125,100.8437 z"
         id="path5304"
         style="fill:#000000" />
      <path
         inkscape:connector-curvature="0"
         d="m 294.17187,720.36218 25.96875,0 388.90873,388.90872 -25.96875,0 z"
         id="path5306"
         style="fill:#000000" />
      <path
         inkscape:connector-curvature="0"
         d="m 320.14062,720.36218 c 14.12591,1.9e-4 24.42728,1.97664 30.90625,5.90625 L 739.9556,1115.1772 c -6.47897,-3.9297 -16.78034,-5.9061 -30.90625,-5.9063 z"
         id="path5308"
         style="fill:#000000" />
      <path
         inkscape:connector-curvature="0"
         d="m 351.04687,726.26843 c 1.55438,0.9026 2.92516,1.94762 4.11241,3.13487 l 388.90873,388.9087 c -1.18725,-1.1872 -2.55803,-2.2322 -4.11241,-3.1348 z"
         id="path5310"
         style="fill:#000000" />
      <path
         inkscape:connector-curvature="0"
         d="m 355.15928,729.4033 c 3.84239,3.8424 5.76248,9.17453 5.76259,15.99013 L 749.8306,1134.3022 c -1.1e-4,-6.8156 -1.9202,-12.1478 -5.76259,-15.9902 z"
         id="path5312"
         style="fill:#000000" />
      <path
         inkscape:connector-curvature="0"
         d="m 360.92187,745.39343 c -1.5e-4,9.55913 -3.00862,16.38918 -9.0625,20.53125 L 740.7681,1154.8334 c 6.05388,-4.1421 9.06235,-10.9721 9.0625,-20.5312 z"
         id="path5314"
         style="fill:#000000" />
      <path
         inkscape:connector-curvature="0"
         d="m 351.85937,765.92468 c -5.94794,4.14236 -15.61756,6.21889 -29,6.21875 L 711.7681,1161.0522 c 13.38244,10e-5 23.05206,-2.0764 29,-6.2188 z"
         id="path5316"
         style="fill:#000000" />
      <path
         inkscape:connector-curvature="0"
         d="m 322.85937,772.14343 -28.6875,0 388.90873,388.90877 28.6875,0 z"
         id="path5318"
         style="fill:#000000" />
      <path
         inkscape:connector-curvature="0"
         d="m 294.17187,772.14343 0,-51.78125 388.90873,388.90872 0,51.7813 z"
         id="path5320"
         style="fill:#000000" />
    </g>
    <path
       id="path2993"
       d="m 256,541.36218 c -140.83,0 -255,114.17 -255,255 0,140.83 114.17,255.00002 255,255.00002 140.83,0 255,-114.17002 255,-255.00002 0,-140.83 -114.17,-255 -255,-255 m 8.827,44.931 c 120.9,0 218.9,98 218.9,218.9 0,120.9 -98,218.90002 -218.9,218.90002 -120.9,0 -218.93,-98.00002 -218.93,-218.90002 0,-120.9 98.03,-218.9 218.93,-218.9"
       inkscape:connector-curvature="0"
       style="fill-opacity:0.06700003;fill-rule:evenodd" />
    <path
       style="fill-opacity:0.12900002;fill-rule:evenodd"
       inkscape:connector-curvature="0"
       d="m 256,544.79218 c -138.94,0 -251.57,112.63 -251.57,251.57 0,138.94 112.63,251.57002 251.57,251.57002 138.94,0 251.57,-112.63002 251.57,-251.57002 0,-138.94 -112.63,-251.57 -251.57,-251.57 m 5.885,38.556 c 120.9,0 218.9,98 218.9,218.9 0,120.9 -98,218.90002 -218.9,218.90002 -120.9,0 -218.93,-98.00002 -218.93,-218.90002 0,-120.9 98.03,-218.9 218.93,-218.9"
       id="path2997" />
    <path
       style="fill-opacity:0.12900002;fill-rule:evenodd"
       inkscape:connector-curvature="0"
       d="m 256,548.72218 c -136.77,0 -247.64,110.87 -247.64,247.64 0,136.77 110.87,247.64002 247.64,247.64002 136.77,0 247.64,-110.87002 247.64,-247.64002 0,-136.77 -110.87,-247.64 -247.64,-247.64 m 2.942,31.691 c 120.9,0 218.9,98 218.9,218.9 0,120.9 -98,218.90002 -218.9,218.90002 -120.9,0 -218.93,-98.00002 -218.93,-218.90002 0,-120.9 98.03,-218.9 218.93,-218.9"
       id="path2999" />
    <path
       id="path3001"
       d="m 253.04,548.22218 c -135.42,0 -245.19,109.78 -245.19,245.19 0,135.42 109.78,245.19002 245.19,245.19002 135.42,0 245.19,-109.78002 245.19,-245.19002 0,-135.42 -109.78,-245.19 -245.19,-245.19 z m 0,26.297 c 120.9,0 218.9,98 218.9,218.9 0,120.9 -98,218.90002 -218.9,218.90002 -120.9,0 -218.93,-98.00002 -218.93,-218.90002 0,-120.9 98.03,-218.9 218.93,-218.9 z"
       inkscape:connector-curvature="0"
       style="fill:#ffffff;fill-rule:evenodd;stroke:#000000;stroke-width:4.90399981;stroke-opacity:0.31000001" />
    <text
       style="font-size:129.22999573px;line-height:125%;letter-spacing:0;word-spacing:0;font-family:Gentium Book Basic"
       sodipodi:linespacing="125%"
       font-size="129.23"
       letter-spacing="0"
       line-height="125%"
       word-spacing="0"
       x="729.64001"
       y="771.72217"
       id="text3003">
      <tspan
         x="729.64001"
         y="771.72217"
         id="tspan3005" />
    </text>
    <text
       style="font-size:46.95375824px;text-anchor:middle;font-family:Arial"
       x="378.90805"
       y="2747.6345"
       font-size="46.954"
       transform="scale(4.0128205,0.24920128)"
       id="text3007" />
    <text
       style="font-size:129.22999573px;line-height:125%;letter-spacing:0;word-spacing:0;font-family:Gentium Book Basic"
       sodipodi:linespacing="125%"
       font-size="129.23"
       letter-spacing="0"
       line-height="125%"
       word-spacing="0"
       x="1310.91"
       y="691.72217"
       id="text3009">
      <tspan
         x="1310.91"
         y="691.72217"
         id="tspan3011" />
    </text>
    <text
       style="font-size:46.95375824px;text-anchor:middle;font-family:Arial"
       x="523.75732"
       y="2426.5964"
       font-size="46.954"
       transform="scale(4.0128205,0.24920128)"
       id="text3013" />
    <text
       style="font-size:129.22999573px;line-height:125%;letter-spacing:0;word-spacing:0;font-family:Gentium Book Basic"
       sodipodi:linespacing="125%"
       font-size="129.23"
       letter-spacing="0"
       line-height="125%"
       word-spacing="0"
       x="239.33"
       y="510.46216"
       id="text3015">
      <tspan
         x="239.33"
         y="510.46216"
         id="tspan3017" />
    </text>
    <text
       style="font-size:46.95375824px;text-anchor:middle;font-family:Arial"
       x="256.71869"
       y="1699.25"
       font-size="46.954"
       transform="scale(4.0128205,0.24920128)"
       id="text3019" />
    <text
       style="font-size:129.22999573px;line-height:125%;letter-spacing:0;word-spacing:0;font-family:Gentium Book Basic"
       sodipodi:linespacing="125%"
       font-size="129.23"
       letter-spacing="0"
       line-height="125%"
       word-spacing="0"
       x="1337.38"
       y="293.99216"
       id="text3021">
      <tspan
         x="1337.38"
         y="293.99216"
         id="tspan3023" />
    </text>
    <text
       style="font-size:46.95375824px;text-anchor:middle;font-family:Arial"
       x="530.3573"
       y="830.57452"
       font-size="46.954"
       transform="scale(4.0128205,0.24920128)"
       id="text3025" />
    <text
       style="font-size:129.22999573px;line-height:125%;letter-spacing:0;word-spacing:0;font-family:Gentium Book Basic"
       sodipodi:linespacing="125%"
       font-size="129.23"
       letter-spacing="0"
       line-height="125%"
       word-spacing="0"
       x="1918.65"
       y="213.99219"
       id="text3027">
      <tspan
         x="1918.65"
         y="213.99219"
         id="tspan3029" />
    </text>
    <text
       style="font-size:46.95375824px;text-anchor:middle;font-family:Arial"
       x="675.20654"
       y="509.54614"
       font-size="46.954"
       transform="scale(4.0128205,0.24920128)"
       id="text3031" />
    <text
       style="font-size:129.22999573px;line-height:125%;letter-spacing:0;word-spacing:0;font-family:Gentium Book Basic"
       sodipodi:linespacing="125%"
       font-size="129.23"
       letter-spacing="0"
       line-height="125%"
       word-spacing="0"
       x="1529.53"
       y="-258.40784"
       id="text3033">
      <tspan
         x="1529.53"
         y="-258.40784"
         id="tspan3035" />
    </text>
    <text
       style="font-size:46.95375824px;text-anchor:middle;font-family:Arial"
       x="578.237"
       y="-1386.1041"
       font-size="46.954"
       transform="scale(4.0128205,0.24920128)"
       id="text3037" />
    <text
       style="font-size:129.22999573px;line-height:125%;letter-spacing:0;word-spacing:0;font-family:Gentium Book Basic"
       sodipodi:linespacing="125%"
       font-size="129.23"
       letter-spacing="0"
       line-height="125%"
       word-spacing="0"
       x="2110.79"
       y="-338.41785"
       id="text3039">
      <tspan
         x="2110.79"
         y="-338.41785"
         id="tspan3041" />
    </text>
    <text
       style="font-size:46.95375824px;text-anchor:middle;font-family:Arial"
       x="723.0863"
       y="-1707.1426"
       font-size="46.954"
       transform="scale(4.0128205,0.24920128)"
       id="text3043" />
    <text
       style="font-size:208.33000183px;line-height:125%;letter-spacing:0;word-spacing:0;font-family:Gentium Book Basic"
       sodipodi:linespacing="125%"
       font-size="208.33"
       letter-spacing="0"
       line-height="125%"
       word-spacing="0"
       x="277.98999"
       y="1076.3022"
       id="text3045">
      <tspan
         x="277.98999"
         y="1076.3022"
         id="tspan3047" />
    </text>
    <path
       style="font-size:326.27954102px;font-style:normal;font-weight:bold;line-height:125%;letter-spacing:0px;word-spacing:0px;fill:#ffffff;fill-opacity:1;stroke:none;font-family:Sans;-inkscape-font-specification:Sans Bold"
       d="m 176.73437,679.42468 -82.218745,233.875 53.218745,0 16.875,-55.4375 84.9375,0 16.875,55.4375 53.21875,0 -82.53125,-233.875 -60.375,0 z m 79.65625,0.46875 c 15.44552,43.81702 30.91602,87.62522 46.375,131.4375 l 22,0 c 27.61467,1e-4 41.43735,9.66973 41.4375,29 -1.5e-4,10.72735 -3.24004,18.70198 -9.71875,23.90625 -6.47899,5.20438 -16.53015,7.81254 -30.125,7.8125 l -2.1875,0 c 4.77945,13.54231 9.56399,27.08281 14.34375,40.625 23.23816,-0.92629 41.88223,-6.80435 55.875,-17.6875 15.40037,-11.89558 23.09355,-28.47655 23.09375,-49.71875 -2e-4,-14.97564 -3.29012,-26.97199 -9.875,-36 -6.47904,-9.0278 -17.08062,-15.17609 -31.84375,-18.46875 l 0,-1.59375 c 10.83333,-1.80546 19.45846,-7.17191 25.9375,-16.09375 6.58488,-8.92156 9.90607,-20.33623 9.90625,-34.25 -1.8e-4,-20.49849 -7.49322,-35.43449 -22.46875,-44.78125 -14.86966,-9.45253 -38.84357,-14.18727 -71.875,-14.1875 l -60.875,0 z m -49.21875,35.6875 c 0.84957,3.82379 2.21309,9.04012 4.125,15.625 2.01789,6.58524 10.82438,34.98119 26.4375,85.21875 l -60.6875,0 c 16.56878,-53.6363 26.61993,-87.24858 30.125,-100.84375 z m 87,4.78125 25.96875,0 c 14.12591,1.9e-4 24.42728,1.97664 30.90625,5.90625 6.58493,3.82377 9.87485,10.20347 9.875,19.125 -1.5e-4,9.55913 -3.00862,16.38918 -9.0625,20.53125 -5.94794,4.14236 -15.61756,6.21889 -29,6.21875 l -28.6875,0 0,-51.78125 z"
       id="path4130"
       inkscape:connector-curvature="0" />
  </g>
</svg>
