<?xml version="1.0" encoding="UTF-8" standalone="no"?>
<!-- Created with Inkscape (http://www.inkscape.org/) -->

<svg
   xmlns:dc="http://purl.org/dc/elements/1.1/"
   xmlns:cc="http://creativecommons.org/ns#"
   xmlns:rdf="http://www.w3.org/1999/02/22-rdf-syntax-ns#"
   xmlns:svg="http://www.w3.org/2000/svg"
   xmlns="http://www.w3.org/2000/svg"
   xmlns:inkscape="http://www.inkscape.org/namespaces/inkscape"
   version="1.1"
   width="100%"
   height="100%"
   viewBox="0 0 512 512"
   id="svg2">
  <metadata
     id="metadata70">
    <rdf:RDF>
      <cc:Work
         rdf:about="">
        <dc:format>image/svg+xml</dc:format>
        <dc:type
           rdf:resource="http://purl.org/dc/dcmitype/StillImage" />
        <dc:title />
      </cc:Work>
    </rdf:RDF>
  </metadata>
  <defs
     id="defs68">
    <clipPath
       id="clipPath3617">
      <path
         d="m 471.9456,253.05189 c 0,120.89699 -98.00565,218.90724 -218.90724,218.90724 -120.89698,0 -218.90723,-98.00566 -218.90723,-218.90724 0,-120.89698 98.00565,-218.907232 218.90723,-218.907232 120.89699,0 218.90724,98.005652 218.90724,218.907232"
         inkscape:connector-curvature="0"
         id="path3619"
         style="fill:#d23638;fill-opacity:1;fill-rule:evenodd" />
    </clipPath>
  </defs>
  <path
     d="m 471.9456,253.05189 c 0,120.89699 -98.00565,218.90724 -218.90724,218.90724 -120.89698,0 -218.90723,-98.00566 -218.90723,-218.90724 0,-120.89698 98.00565,-218.907232 218.90723,-218.907232 120.89699,0 218.90724,98.005652 218.90724,218.907232"
     inkscape:connector-curvature="0"
     id="path8"
     style="fill:#d23638;fill-opacity:1;fill-rule:evenodd" />
  <path
     d="M 256,1 C 115.17,1 1,115.17 1,256 1,396.83 115.17,511 256,511 396.83,511 511,396.83 511,256 511,115.17 396.83,1 256,1 m 8.827,44.931 c 120.9,0 218.9,98 218.9,218.9 0,120.9 -98,218.9 -218.9,218.9 -120.9,0 -218.93,-98 -218.93,-218.9 0,-120.9 98.03,-218.9 218.93,-218.9"
     inkscape:connector-curvature="0"
     id="path10"
     style="fill-opacity:0.06700003;fill-rule:evenodd" />
  <path
     d="M 256,4.43 C 117.06,4.43 4.43,117.06 4.43,256 4.43,394.94 117.06,507.57 256,507.57 394.94,507.57 507.57,394.94 507.57,256 507.57,117.06 394.94,4.43 256,4.43 m 5.885,38.556 c 120.9,0 218.9,98 218.9,218.9 0,120.9 -98,218.9 -218.9,218.9 -120.9,0 -218.93,-98 -218.93,-218.9 0,-120.9 98.03,-218.9 218.93,-218.9"
     inkscape:connector-curvature="0"
     id="path14"
     style="fill-opacity:0.12900002;fill-rule:evenodd" />
  <path
     d="M 256,8.36 C 119.23,8.36 8.36,119.23 8.36,256 8.36,392.77 119.23,503.64 256,503.64 392.77,503.64 503.64,392.77 503.64,256 503.64,119.23 392.77,8.36 256,8.36 m 2.942,31.691 c 120.9,0 218.9,98 218.9,218.9 0,120.9 -98,218.9 -218.9,218.9 -120.9,0 -218.93,-98 -218.93,-218.9 0,-120.9 98.03,-218.9 218.93,-218.9"
     inkscape:connector-curvature="0"
     id="path16"
     style="fill-opacity:0.12900002;fill-rule:evenodd" />
  <path
     d="M 253.04,7.86 C 117.62,7.86 7.85,117.64 7.85,253.05 c 0,135.42 109.78,245.19 245.19,245.19 135.42,0 245.19,-109.78 245.19,-245.19 C 498.23,117.63 388.45,7.86 253.04,7.86 z m 0,26.297 c 120.9,0 218.9,98 218.9,218.9 0,120.9 -98,218.9 -218.9,218.9 -120.9,0 -218.93,-98 -218.93,-218.9 0,-120.9 98.03,-218.9 218.93,-218.9 z"
     inkscape:connector-curvature="0"
     id="path18"
     style="fill:#ffffff;fill-rule:evenodd;stroke:#000000;stroke-width:4.90399981;stroke-opacity:0.31000001" />
  <text
     x="729.64001"
     y="231.35997"
     id="text20"
     style="font-size:129.22999573px;line-height:125%;letter-spacing:0;word-spacing:0;font-family:Gentium Book Basic">
    <tspan
       x="729.64001"
       y="231.35997"
       id="tspan22" />
  </text>
  <text
     x="378.90805"
     y="579.25812"
     transform="scale(4.0128205,0.24920128)"
     id="text24"
     style="font-size:46.95375824px;text-anchor:middle;font-family:Arial" />
  <text
     x="1310.91"
     y="151.35997"
     id="text26"
     style="font-size:129.22999573px;line-height:125%;letter-spacing:0;word-spacing:0;font-family:Gentium Book Basic">
    <tspan
       x="1310.91"
       y="151.35997"
       id="tspan28" />
  </text>
  <text
     x="523.75732"
     y="258.21997"
     transform="scale(4.0128205,0.24920128)"
     id="text30"
     style="font-size:46.95375824px;text-anchor:middle;font-family:Arial" />
  <text
     x="239.33"
     y="-29.900009"
     id="text32"
     style="font-size:129.22999573px;line-height:125%;letter-spacing:0;word-spacing:0;font-family:Gentium Book Basic">
    <tspan
       x="239.33"
       y="-29.900009"
       id="tspan34" />
  </text>
  <text
     x="256.71869"
     y="-469.1264"
     transform="scale(4.0128205,0.24920128)"
     id="text36"
     style="font-size:46.95375824px;text-anchor:middle;font-family:Arial" />
  <text
     x="1337.38"
     y="-246.37001"
     id="text38"
     style="font-size:129.22999573px;line-height:125%;letter-spacing:0;word-spacing:0;font-family:Gentium Book Basic">
    <tspan
       x="1337.38"
       y="-246.37001"
       id="tspan40" />
  </text>
  <text
     x="530.3573"
     y="-1337.802"
     transform="scale(4.0128205,0.24920128)"
     id="text42"
     style="font-size:46.95375824px;text-anchor:middle;font-family:Arial" />
  <text
     x="1918.65"
     y="-326.37"
     id="text44"
     style="font-size:129.22999573px;line-height:125%;letter-spacing:0;word-spacing:0;font-family:Gentium Book Basic">
    <tspan
       x="1918.65"
       y="-326.37"
       id="tspan46" />
  </text>
  <text
     x="675.20654"
     y="-1658.8303"
     transform="scale(4.0128205,0.24920128)"
     id="text48"
     style="font-size:46.95375824px;text-anchor:middle;font-family:Arial" />
  <text
     x="1529.53"
     y="-798.77002"
     id="text50"
     style="font-size:129.22999573px;line-height:125%;letter-spacing:0;word-spacing:0;font-family:Gentium Book Basic">
    <tspan
       x="1529.53"
       y="-798.77002"
       id="tspan52" />
  </text>
  <text
     x="578.237"
     y="-3554.4807"
     transform="scale(4.0128205,0.24920128)"
     id="text54"
     style="font-size:46.95375824px;text-anchor:middle;font-family:Arial" />
  <text
     x="2110.79"
     y="-878.78003"
     id="text56"
     style="font-size:129.22999573px;line-height:125%;letter-spacing:0;word-spacing:0;font-family:Gentium Book Basic">
    <tspan
       x="2110.79"
       y="-878.78003"
       id="tspan58" />
  </text>
  <text
     x="723.0863"
     y="-3875.519"
     transform="scale(4.0128205,0.24920128)"
     id="text60"
     style="font-size:46.95375824px;text-anchor:middle;font-family:Arial" />
  <text
     x="277.98999"
     y="535.94006"
     id="text62"
     style="font-size:208.33000183px;line-height:125%;letter-spacing:0;word-spacing:0;font-family:Gentium Book Basic">
    <tspan
       x="277.98999"
       y="535.94006"
       id="tspan64" />
  </text>
  <g
     clip-path="url(#clipPath3617)"
     id="g3297"
     style="opacity:0.25;fill:#000000">
    <path
       d="m 343.125,139.25 -41.25,190.4375 388.90873,388.90873 41.25,-190.4375 z"
       inkscape:connector-curvature="0"
       id="path3299"
       style="fill:#000000" />
    <path
       d="m 301.875,329.6875 -1.6875,8.03125 388.90873,388.90873 1.6875,-8.03125 z"
       inkscape:connector-curvature="0"
       id="path3301"
       style="fill:#000000" />
    <path
       d="m 300.1875,337.71875 7.9375,-1.0625 388.90873,388.90873 -7.9375,1.0625 z"
       inkscape:connector-curvature="0"
       id="path3303"
       style="fill:#000000" />
    <path
       d="m 308.125,336.65625 17.6875,-2.8125 388.90873,388.90873 -17.6875,2.8125 z"
       inkscape:connector-curvature="0"
       id="path3305"
       style="fill:#000000" />
    <path
       d="m 325.8125,333.84375 3.78125,-0.28125 388.90873,388.90873 -3.78125,0.28125 z"
       inkscape:connector-curvature="0"
       id="path3307"
       style="fill:#000000" />
    <path
       d="m 329.59375,333.5625 1.09375,-3.875 388.90873,388.90873 -1.09375,3.875 z"
       inkscape:connector-curvature="0"
       id="path3309"
       style="fill:#000000" />
    <path
       d="m 330.6875,329.6875 6.15625,-27.625 388.90873,388.90873 -6.15625,27.625 z"
       inkscape:connector-curvature="0"
       id="path3311"
       style="fill:#000000" />
    <path
       d="m 336.84375,302.0625 6.96875,24.53125 388.90873,388.90873 -6.96875,-24.53125 z"
       inkscape:connector-curvature="0"
       id="path3313"
       style="fill:#000000" />
    <path
       d="m 343.8125,326.59375 1.40625,4.875 388.90873,388.90873 -1.40625,-4.875 z"
       inkscape:connector-curvature="0"
       id="path3315"
       style="fill:#000000" />
    <path
       d="m 345.21875,331.46875 4.75,-0.6875 388.90873,388.90873 -4.75,0.6875 z"
       inkscape:connector-curvature="0"
       id="path3317"
       style="fill:#000000" />
    <path
       d="M 349.96875,330.78125 368.375,328 l 388.90873,388.90873 -18.40625,2.78125 z"
       inkscape:connector-curvature="0"
       id="path3319"
       style="fill:#000000" />
    <path
       d="m 368.375,328 6.5625,-0.6875 388.90873,388.90873 -6.5625,0.6875 z"
       inkscape:connector-curvature="0"
       id="path3321"
       style="fill:#000000" />
    <path
       d="m 374.9375,327.3125 -17.3125,-56.46875 388.90873,388.90873 17.3125,56.46875 z"
       inkscape:connector-curvature="0"
       id="path3323"
       style="fill:#000000" />
    <path
       d="m 357.625,270.84375 47.40625,-51.28125 388.90873,388.90873 -47.40625,51.28125 z"
       inkscape:connector-curvature="0"
       id="path3325"
       style="fill:#000000" />
    <path
       d="m 405.03125,219.5625 -16.1875,2.78125 388.90873,388.90873 16.1875,-2.78125 z"
       inkscape:connector-curvature="0"
       id="path3327"
       style="fill:#000000" />
    <path
       d="m 388.84375,222.34375 -16.3125,2.78125 388.90873,388.90873 16.3125,-2.78125 z"
       inkscape:connector-curvature="0"
       id="path3329"
       style="fill:#000000" />
    <path
       d="m 372.53125,225.125 -1.6875,0 388.90873,388.90873 1.6875,0 z"
       inkscape:connector-curvature="0"
       id="path3331"
       style="fill:#000000" />
    <path
       d="m 370.84375,225.125 -1.375,1.40625 388.90873,388.90873 1.375,-1.40625 z"
       inkscape:connector-curvature="0"
       id="path3333"
       style="fill:#000000" />
    <path
       d="M 369.46875,226.53125 349.375,248.375 738.28373,637.28373 758.37748,615.43998 z"
       inkscape:connector-curvature="0"
       id="path3335"
       style="fill:#000000" />
    <path
       d="m 349.375,248.375 22.875,-107.71875 388.90873,388.90873 -22.875,107.71875 z"
       inkscape:connector-curvature="0"
       id="path3337"
       style="fill:#000000" />
    <path
       d="m 372.25,140.65625 -29.125,-1.40625 388.90873,388.90873 29.125,1.40625 z"
       inkscape:connector-curvature="0"
       id="path3339"
       style="fill:#000000" />
    <path
       d="m 203.5625,179.8125 -19.03125,3.09375 388.90873,388.90873 19.03125,-3.09375 z"
       inkscape:connector-curvature="0"
       id="path3341"
       style="fill:#000000" />
    <path
       d="M 184.53125,182.90625 106.96875,372.75 495.87748,761.65873 573.43998,571.81498 z"
       inkscape:connector-curvature="0"
       id="path3343"
       style="fill:#000000" />
    <path
       d="M 106.96875,372.75 117,370.6875 l 388.90873,388.90873 -10.03125,2.0625 z"
       inkscape:connector-curvature="0"
       id="path3345"
       style="fill:#000000" />
    <path
       d="m 117,370.6875 16.28125,-2.78125 388.90873,388.90873 -16.28125,2.78125 z"
       inkscape:connector-curvature="0"
       id="path3347"
       style="fill:#000000" />
    <path
       d="m 133.28125,367.90625 3.09375,-0.6875 388.90873,388.90873 -3.09375,0.6875 z"
       inkscape:connector-curvature="0"
       id="path3349"
       style="fill:#000000" />
    <path
       d="m 136.375,367.21875 1.0625,-2.78125 388.90873,388.90873 -1.0625,2.78125 z"
       inkscape:connector-curvature="0"
       id="path3351"
       style="fill:#000000" />
    <path
       d="m 137.4375,364.4375 12.4375,-31.84375 388.90873,388.90873 -12.4375,31.84375 z"
       inkscape:connector-curvature="0"
       id="path3353"
       style="fill:#000000" />
    <path
       d="m 149.875,332.59375 24.25,-3.46875 388.90873,388.90873 -24.25,3.46875 z"
       inkscape:connector-curvature="0"
       id="path3355"
       style="fill:#000000" />
    <path
       d="m 174.125,329.125 0,24.9375 388.90873,388.90873 0,-24.9375 z"
       inkscape:connector-curvature="0"
       id="path3357"
       style="fill:#000000" />
    <path
       d="m 174.125,354.0625 -0.34375,6.5625 388.90873,388.90873 0.34375,-6.5625 z"
       inkscape:connector-curvature="0"
       id="path3359"
       style="fill:#000000" />
    <path
       d="m 173.78125,360.625 6.5625,-1.03125 388.90873,388.90873 -6.5625,1.03125 z"
       inkscape:connector-curvature="0"
       id="path3361"
       style="fill:#000000" />
    <path
       d="m 180.34375,359.59375 19.0625,-3.125 388.90873,388.90873 -19.0625,3.125 z"
       inkscape:connector-curvature="0"
       id="path3363"
       style="fill:#000000" />
    <path
       d="m 199.40625,356.46875 4.84375,-0.6875 388.90873,388.90873 -4.84375,0.6875 z"
       inkscape:connector-curvature="0"
       id="path3365"
       style="fill:#000000" />
    <path
       d="m 204.25,355.78125 -0.34375,-4.84375 388.90873,388.90873 0.34375,4.84375 z"
       inkscape:connector-curvature="0"
       id="path3367"
       style="fill:#000000" />
    <path
       d="m 203.90625,350.9375 -0.34375,-171.09375 388.90873,388.90873 0.34375,171.09375 z"
       inkscape:connector-curvature="0"
       id="path3369"
       style="fill:#000000" />
    <path
       d="m 203.5625,179.84375 0,-0.0312 388.90873,388.90873 0,0.0312 z"
       inkscape:connector-curvature="0"
       id="path3371"
       style="fill:#000000" />
    <path
       d="m 280.84375,228.75 c -1.18203,0.0258 -2.45974,0.10053 -3.84375,0.1875 l 388.90873,388.90873 c 1.38401,-0.087 2.66172,-0.16166 3.84375,-0.1875 z"
       inkscape:connector-curvature="0"
       id="path3373"
       style="fill:#000000" />
    <path
       d="m 277,228.9375 c -19.40103,0.69573 -37.0652,12.45746 -40.15625,26.3125 l 388.90873,388.90873 c 3.09105,-13.85504 20.75522,-25.61677 40.15625,-26.3125 z"
       inkscape:connector-curvature="0"
       id="path3375"
       style="fill:#000000" />
    <path
       d="m 236.84375,255.25 c -2.42513,11.08204 0.68686,18.6917 12.8125,32.21875 l 388.90873,388.90873 c -12.12564,-13.52705 -15.23763,-21.13671 -12.8125,-32.21875 z"
       inkscape:connector-curvature="0"
       id="path3377"
       style="fill:#000000" />
    <path
       d="m 249.65625,287.46875 c 12.81144,13.4873 15.91689,19.38257 14.1875,27.34375 l 388.90873,388.90873 c 1.72939,-7.96118 -1.37606,-13.85645 -14.1875,-27.34375 z"
       inkscape:connector-curvature="0"
       id="path3379"
       style="fill:#000000" />
    <path
       d="m 263.84375,314.8125 c -1.03367,5.17824 -9.71156,11.76478 -19.75,13.15625 l 388.90873,388.90873 c 10.03844,-1.39147 18.71633,-7.97801 19.75,-13.15625 z"
       inkscape:connector-curvature="0"
       id="path3381"
       style="fill:#000000" />
    <path
       d="m 244.09375,327.96875 c -5.19813,0.67586 -8.66039,0.67586 -11.78125,0 l 388.90873,388.90873 c 3.12086,0.67586 6.58312,0.67586 11.78125,0 z"
       inkscape:connector-curvature="0"
       id="path3383"
       style="fill:#000000" />
    <path
       d="m 232.3125,327.96875 -3.4375,-1.03125 388.90873,388.90873 3.4375,1.03125 z"
       inkscape:connector-curvature="0"
       id="path3385"
       style="fill:#000000" />
    <path
       d="m 228.875,326.9375 -2.09375,2.78125 388.90873,388.90873 2.09375,-2.78125 z"
       inkscape:connector-curvature="0"
       id="path3387"
       style="fill:#000000" />
    <path
       d="m 226.78125,329.71875 -8.3125,10.03125 388.90873,388.90873 8.3125,-10.03125 z"
       inkscape:connector-curvature="0"
       id="path3389"
       style="fill:#000000" />
    <path
       d="m 218.46875,339.75 -5.875,6.9375 388.90873,388.90873 5.875,-6.9375 z"
       inkscape:connector-curvature="0"
       id="path3391"
       style="fill:#000000" />
    <path
       d="m 212.59375,346.6875 9,2.0625 388.90873,388.90873 -9,-2.0625 z"
       inkscape:connector-curvature="0"
       id="path3393"
       style="fill:#000000" />
    <path
       d="m 221.59375,348.75 c 5.54599,1.38153 13.82903,1.38565 22.84375,-0.34375 l 388.90873,388.90873 c -9.01472,1.7294 -17.29776,1.72528 -22.84375,0.34375 z"
       inkscape:connector-curvature="0"
       id="path3395"
       style="fill:#000000" />
    <path
       d="m 244.4375,348.40625 c 20.07688,-3.11092 44.00173,-17.65662 48.15625,-35.65625 l 388.90873,388.90873 c -4.15452,17.99963 -28.07937,32.54533 -48.15625,35.65625 z"
       inkscape:connector-curvature="0"
       id="path3397"
       style="fill:#000000" />
    <path
       d="m 292.59375,312.75 c 3.8111,-16.614 -3.11672,-26.99174 -17.62466,-41.49969 l 388.90873,388.90873 c 14.50794,14.50795 21.43576,24.88569 17.62466,41.49969 z"
       inkscape:connector-curvature="0"
       id="path3399"
       style="fill:#000000" />
    <path
       d="m 274.96909,271.25031 c -0.0209,-0.0209 -0.0419,-0.0419 -0.0628,-0.0628 l 388.90873,388.90873 c 0.021,0.0209 0.0419,0.0419 0.0628,0.0628 z"
       inkscape:connector-curvature="0"
       id="path3401"
       style="fill:#000000" />
    <path
       d="M 274.90625,271.1875 C 263.48628,259.75759 264.17926,256.98351 264.875,254.90625 l 388.90873,388.90873 c -0.69574,2.07726 -1.38872,4.85134 10.03125,16.28125 z"
       inkscape:connector-curvature="0"
       id="path3403"
       style="fill:#000000" />
    <path
       d="m 264.875,254.90625 c 0.34728,-2.40121 4.84697,-5.86105 11.0625,-6.21875 l 388.90873,388.90873 c -6.21553,0.3577 -10.71522,3.81754 -11.0625,6.21875 z"
       inkscape:connector-curvature="0"
       id="path3405"
       style="fill:#000000" />
    <path
       d="m 275.9375,248.6875 0.0312,0 388.90873,388.90873 -0.0312,0 z"
       inkscape:connector-curvature="0"
       id="path3407"
       style="fill:#000000" />
    <path
       d="m 275.96875,248.6875 c 5.52229,0.001 8.29226,0.337 10.375,1.03125 l 388.90873,388.90873 c -2.08274,-0.69425 -4.85271,-1.02977 -10.375,-1.03125 z"
       inkscape:connector-curvature="0"
       id="path3409"
       style="fill:#000000" />
    <path
       d="m 286.34375,249.71875 3.09375,0.6875 388.90873,388.90873 -3.09375,-0.6875 z"
       inkscape:connector-curvature="0"
       id="path3411"
       style="fill:#000000" />
    <path
       d="m 289.4375,250.40625 2.4375,-2.4375 388.90873,388.90873 -2.4375,2.4375 z"
       inkscape:connector-curvature="0"
       id="path3413"
       style="fill:#000000" />
    <path
       d="M 291.875,247.96875 299.5,240 l 388.90873,388.90873 -7.625,7.96875 z"
       inkscape:connector-curvature="0"
       id="path3415"
       style="fill:#000000" />
    <path
       d="m 299.5,240 6.21875,-6.5625 388.90873,388.90873 -6.21875,6.5625 z"
       inkscape:connector-curvature="0"
       id="path3417"
       style="fill:#000000" />
    <path
       d="m 305.71875,233.4375 -9,-2.4375 388.90873,388.90873 9,2.4375 z"
       inkscape:connector-curvature="0"
       id="path3419"
       style="fill:#000000" />
    <path
       d="m 296.71875,231 c -3.93959,-1.20884 -7.60079,-2.43087 -15.875,-2.25 l 388.90873,388.90873 c 8.27421,-0.18087 11.93541,1.04116 15.875,2.25 z"
       inkscape:connector-curvature="0"
       id="path3421"
       style="fill:#000000" />
    <path
       d="m 177.25,247.71875 -3.8125,56.09375 388.90873,388.90873 3.8125,-56.09375 z"
       inkscape:connector-curvature="0"
       id="path3423"
       style="fill:#000000" />
    <path
       d="m 173.4375,303.8125 -15.9375,2.09375 388.90873,388.90873 15.9375,-2.09375 z"
       inkscape:connector-curvature="0"
       id="path3425"
       style="fill:#000000" />
    <path
       d="m 157.5,305.90625 19.75,-58.1875 388.90873,388.90873 -19.75,58.1875 z"
       inkscape:connector-curvature="0"
       id="path3427"
       style="fill:#000000" />
  </g>
  <path
     d="m 343.125,139.25 -41.25,190.4375 -1.6875,8.03125 7.9375,-1.0625 17.6875,-2.8125 3.78125,-0.28125 1.09375,-3.875 6.15625,-27.625 6.96875,24.53125 1.40625,4.875 4.75,-0.6875 L 368.375,328 l 6.5625,-0.6875 -17.3125,-56.46875 47.40625,-51.28125 -16.1875,2.78125 -16.3125,2.78125 -1.6875,0 -1.375,1.40625 L 349.375,248.375 372.25,140.65625 343.125,139.25 z M 203.5625,179.8125 184.53125,182.90625 106.96875,372.75 117,370.6875 l 16.28125,-2.78125 3.09375,-0.6875 1.0625,-2.78125 12.4375,-31.84375 24.25,-3.46875 0,24.9375 -0.34375,6.5625 6.5625,-1.03125 19.0625,-3.125 4.84375,-0.6875 -0.34375,-4.84375 -0.34375,-171.09375 0,-0.0312 z m 77.28125,48.9375 c -1.18203,0.0258 -2.45974,0.10053 -3.84375,0.1875 -19.40103,0.69573 -37.0652,12.45746 -40.15625,26.3125 -2.42513,11.08204 0.68686,18.6917 12.8125,32.21875 12.81144,13.4873 15.91689,19.38257 14.1875,27.34375 -1.03367,5.17824 -9.71156,11.76478 -19.75,13.15625 -5.19813,0.67586 -8.66039,0.67586 -11.78125,0 l -3.4375,-1.03125 -2.09375,2.78125 -8.3125,10.03125 -5.875,6.9375 9,2.0625 c 5.54599,1.38153 13.82903,1.38565 22.84375,-0.34375 20.07688,-3.11092 44.00173,-17.65662 48.15625,-35.65625 3.8166,-16.63797 -3.13673,-27.02167 -17.6875,-41.5625 -11.41997,-11.42991 -10.72699,-14.20399 -10.03125,-16.28125 0.34728,-2.40121 4.84697,-5.86105 11.0625,-6.21875 l 0.0312,0 c 5.52229,0.001 8.29226,0.337 10.375,1.03125 l 3.09375,0.6875 2.4375,-2.4375 L 299.5,240 l 6.21875,-6.5625 -9,-2.4375 c -3.93959,-1.20884 -7.60079,-2.43087 -15.875,-2.25 z M 177.25,247.71875 l -3.8125,56.09375 -15.9375,2.09375 19.75,-58.1875 z"
     inkscape:connector-curvature="0"
     id="use3094"
     style="fill:#ffffff" />
</svg>
