<?xml version="1.0" encoding="UTF-8" standalone="no"?>
<!-- Created with Inkscape (http://www.inkscape.org/) -->

<svg
   xmlns:dc="http://purl.org/dc/elements/1.1/"
   xmlns:cc="http://creativecommons.org/ns#"
   xmlns:rdf="http://www.w3.org/1999/02/22-rdf-syntax-ns#"
   xmlns:svg="http://www.w3.org/2000/svg"
   xmlns="http://www.w3.org/2000/svg"
   xmlns:inkscape="http://www.inkscape.org/namespaces/inkscape"
   version="1.1"
   width="100%"
   height="100%"
   viewBox="0 0 512 512"
   id="svg2">
  <metadata
     id="metadata72">
    <rdf:RDF>
      <cc:Work
         rdf:about="">
        <dc:format>image/svg+xml</dc:format>
        <dc:type
           rdf:resource="http://purl.org/dc/dcmitype/StillImage" />
      </cc:Work>
    </rdf:RDF>
  </metadata>
  <defs
     id="defs70" />
  <path
     d="m 471.95,253.05 c 0,120.9 -98.01,218.9 -218.9,218.9 -120.9,0 -218.9,-98.01 -218.9,-218.9 0,-120.9 98.01,-218.9 218.9,-218.9 120.9,0 218.9,98.01 218.9,218.9"
     inkscape:connector-curvature="0"
     id="path4"
     style="fill:#f38725;fill-rule:evenodd" />
  <path
     d="m 226.25,120.66 c -8.774,21.845 -4.505,55.635 0.675,68.1 24.277,27.577 -0.103,0.041 50.14,56.21 -5.621,11.08 -5.313,10.555 -14.03,13.935 50.51,48.51 103,102.67 147,146.69 38.31,-39.42 61.906,-93.21 61.906,-152.53 0,-1.231 -0.011,-2.461 -0.031,-3.688 -2.062,-2.055 -4.125,-4.102 -6.188,-6.156 -21.329,-21.449 -44.35,-44.601 -65.875,-65.938 -29.598,4.666 -45.17,2.401 -67.09,8.813 -20.959,10.984 -13.197,7.178 -45.625,-25.25 -13.48,-13.308 -27.22,-27.85 -40.531,-40.19 z m -114.66,69.63 c 3,10.197 2.823,10.325 0.281,19.625 11.432,11.432 26.466,25.15 39.781,38.469 18.855,18.855 8.862,12.209 -3.594,19.938 -2.579,7.865 5.683,13.808 12.906,21.03 25.493,25.493 27.25,21.575 2.281,24.906 -28.18,10.425 -37.806,48.32 -15.03,68.16 30.31,29.339 60.19,59.11 89.94,89.03 4.918,0.33 9.873,0.531 14.875,0.531 57.33,0 109.51,-22.06 148.53,-58.12 -7.274,-7.303 -15.09,-14.425 -21.656,-22.03 -28.877,-27.306 -56.2,-56.14 -84.66,-83.91 -28.872,-29.07 -76.56,-77.05 -105.66,-105.97 -29.716,0.004 -27.42,-0.322 -53.16,-5.844 -8.384,-1.469 -16.705,-3.303 -24.844,-5.813"
     inkscape:connector-curvature="0"
     id="path6"
     style="color:#000000;fill-opacity:0.23500001" />
  <g
     id="g8"
     style="fill-rule:evenodd">
    <path
       d="M 256,1 C 115.17,1 1,115.17 1,256 1,396.83 115.17,511 256,511 396.83,511 511,396.83 511,256 511,115.17 396.83,1 256,1 m 8.827,44.931 c 120.9,0 218.9,98 218.9,218.9 0,120.9 -98,218.9 -218.9,218.9 -120.9,0 -218.93,-98 -218.93,-218.9 0,-120.9 98.03,-218.9 218.93,-218.9"
       inkscape:connector-curvature="0"
       id="path10"
       style="fill-opacity:0.06700003" />
    <g
       id="g12"
       style="fill-opacity:0.12900002">
      <path
         d="m 256,4.433 c -138.94,0 -251.57,112.63 -251.57,251.57 0,138.94 112.63,251.57 251.57,251.57 138.94,0 251.57,-112.63 251.57,-251.57 C 507.57,117.063 394.94,4.433 256,4.433 m 5.885,38.556 c 120.9,0 218.9,98 218.9,218.9 0,120.9 -98,218.9 -218.9,218.9 -120.9,0 -218.93,-98 -218.93,-218.9 0,-120.9 98.03,-218.9 218.93,-218.9"
         inkscape:connector-curvature="0"
         id="path14" />
      <path
         d="m 256,8.356 c -136.77,0 -247.64,110.87 -247.64,247.64 0,136.77 110.87,247.64 247.64,247.64 136.77,0 247.64,-110.87 247.64,-247.64 C 503.64,119.226 392.77,8.356 256,8.356 m 2.942,31.691 c 120.9,0 218.9,98 218.9,218.9 0,120.9 -98,218.9 -218.9,218.9 -120.9,0 -218.93,-98 -218.93,-218.9 0,-120.9 98.03,-218.9 218.93,-218.9"
         inkscape:connector-curvature="0"
         id="path16" />
    </g>
    <path
       d="m 253.04,7.859 c -135.42,0 -245.19,109.78 -245.19,245.19 0,135.42 109.78,245.19 245.19,245.19 135.42,0 245.19,-109.78 245.19,-245.19 0,-135.42 -109.78,-245.19 -245.19,-245.19 z m 0,26.297 c 120.9,0 218.9,98 218.9,218.9 0,120.9 -98,218.9 -218.9,218.9 -120.9,0 -218.93,-98 -218.93,-218.9 0,-120.9 98.03,-218.9 218.93,-218.9 z"
       inkscape:connector-curvature="0"
       id="path18"
       style="fill:#ffffff;stroke:#000000;stroke-width:4.90399981;stroke-opacity:0.31000001" />
  </g>
  <text
     x="729.64001"
     y="231.36"
     id="text20"
     style="font-size:129.22999573px;line-height:125%;letter-spacing:0;word-spacing:0;font-family:Gentium Book Basic">
    <tspan
       x="729.64001"
       y="231.36"
       id="tspan22" />
  </text>
  <text
     x="378.91"
     y="579.25"
     transform="scale(4.0128,0.2492)"
     id="text24"
     style="font-size:46.95399857px;text-anchor:middle;font-family:Arial" />
  <text
     x="1310.91"
     y="151.36"
     id="text26"
     style="font-size:129.22999573px;line-height:125%;letter-spacing:0;word-spacing:0;font-family:Gentium Book Basic">
    <tspan
       x="1310.91"
       y="151.36"
       id="tspan28" />
  </text>
  <text
     x="523.76001"
     y="258.22"
     transform="scale(4.0128,0.2492)"
     id="text30"
     style="font-size:46.95399857px;text-anchor:middle;font-family:Arial" />
  <text
     x="239.33"
     y="-29.900999"
     id="text32"
     style="font-size:129.22999573px;line-height:125%;letter-spacing:0;word-spacing:0;font-family:Gentium Book Basic">
    <tspan
       x="239.33"
       y="-29.900999"
       id="tspan34" />
  </text>
  <text
     x="256.72"
     y="-469.14001"
     transform="scale(4.0128,0.2492)"
     id="text36"
     style="font-size:46.95399857px;text-anchor:middle;font-family:Arial" />
  <text
     x="1337.38"
     y="-246.37"
     id="text38"
     style="font-size:129.22999573px;line-height:125%;letter-spacing:0;word-spacing:0;font-family:Gentium Book Basic">
    <tspan
       x="1337.38"
       y="-246.37"
       id="tspan40" />
  </text>
  <text
     x="530.35999"
     y="-1337.8101"
     transform="scale(4.0128,0.2492)"
     id="text42"
     style="font-size:46.95399857px;text-anchor:middle;font-family:Arial" />
  <text
     x="1918.65"
     y="-326.38"
     id="text44"
     style="font-size:129.22999573px;line-height:125%;letter-spacing:0;word-spacing:0;font-family:Gentium Book Basic">
    <tspan
       x="1918.65"
       y="-326.38"
       id="tspan46" />
  </text>
  <text
     x="675.21002"
     y="-1658.85"
     transform="scale(4.0128,0.2492)"
     id="text48"
     style="font-size:46.95399857px;text-anchor:middle;font-family:Arial" />
  <text
     x="1529.53"
     y="-798.78003"
     id="text50"
     style="font-size:129.22999573px;line-height:125%;letter-spacing:0;word-spacing:0;font-family:Gentium Book Basic">
    <tspan
       x="1529.53"
       y="-798.78003"
       id="tspan52" />
  </text>
  <text
     x="578.23999"
     y="-3554.51"
     transform="scale(4.0128,0.2492)"
     id="text54"
     style="font-size:46.95399857px;text-anchor:middle;font-family:Arial" />
  <text
     x="2110.79"
     y="-878.78003"
     id="text56"
     style="font-size:129.22999573px;line-height:125%;letter-spacing:0;word-spacing:0;font-family:Gentium Book Basic">
    <tspan
       x="2110.79"
       y="-878.78003"
       id="tspan58" />
  </text>
  <text
     x="723.09003"
     y="-3875.54"
     transform="scale(4.0128,0.2492)"
     id="text60"
     style="font-size:46.95399857px;text-anchor:middle;font-family:Arial" />
  <text
     x="277.98999"
     y="535.94"
     id="text62"
     style="font-size:208.33000183px;line-height:125%;letter-spacing:0;word-spacing:0;font-family:Gentium Book Basic">
    <tspan
       x="277.98999"
       y="535.94"
       id="tspan64" />
  </text>
  <path
     d="m 226.25,120.66 c -14.428,33.647 -3.477,54.08 0.406,68.31 l 22.813,-3.03 c -4.824,-17.677 -13.13,-38.01 -1.438,-65.28 H 226.25 m 174.16,56.56 c -37.733,0 -74.03,7.251 -120.47,24.656 l 15.969,14.531 c 23.22,-11.604 60.962,-24.656 104.5,-24.656 V 177.22 m -288.81,13.06 v 18.875 c 14.513,4.351 46.44,8.688 75.47,8.688 l 2.906,-15.969 c -28.926,-1.127 -50.801,-4.342 -78.37,-11.594 m 169.94,50.53 -19,17.656 c 50.794,24.658 91.44,59.46 114.66,105.88 l 17.406,-23.22 c -22.993,-34.47 -58.05,-69.63 -113.06,-100.31 m -77.34,9.281 c -0.778,-0.007 -1.554,0.013 -2.344,0.031 -2.916,0.063 -5.878,0.494 -9.03,0.844 -8.915,0.988 -15.642,2.857 -23.12,5.625 -5.073,1.876 -8.916,3.784 -14.656,7.344 -5.74,3.56 -11.563,8.75 -11.563,8.75 l 17.5,17.469 c 0,0 8.245,-6.143 12.969,-8.719 4.724,-2.575 11.11,-3.699 15.781,-4.25 12.05,-1.423 23.764,0.997 29.344,5.656 5.951,4.969 8.428,8.443 8.719,21.719 -5.365,-0.218 -10.87,0.12 -16.906,0.281 -5.395,0.145 -16.367,0.394 -20.875,1.125 -12.01,1.949 -24.98,3.971 -37.5,12.13 -6.671,4.345 -12.1,10.888 -14.969,18.313 -3.235,8.358 -3.972,18.225 -1.406,26.813 2.671,8.94 8.717,17.661 16.656,22.563 15.257,6.04 35.15,7.565 49.625,2.531 8.07,-2.913 14.427,-5.35 21.719,-13.813 1.182,-1.372 2.179,-3.792 3.656,-6.219 v 20.594 h 30.469 v -82.906 c -0.338,-18.06 -7.517,-34.16 -20.313,-44.844 -11.69,-7.888 -22.09,-10.924 -33.75,-11.03 m 16.781,77.03 c 1.267,-0.014 2.504,-0.008 3.719,0 0.579,0.004 1.123,-0.007 1.688,0 -0.009,0.184 0.009,0.367 0,0.563 0,0 1.456,23.678 -11.563,31.844 -13.02,8.166 -18.664,8.412 -28.19,6.781 -6.642,-1.137 -14.252,-4.819 -16.938,-11 -2.155,-4.961 -0.511,-11.539 2.844,-15.781 5.241,-6.627 14.884,-8.298 23.13,-10.156 6.61,-1.491 16.443,-2.151 25.313,-2.25"
     inkscape:connector-curvature="0"
     id="path66"
     style="color:#000000;fill:#ffffff" />
</svg>
