<?xml version="1.0" encoding="UTF-8" standalone="no"?>
<!-- Created with Inkscape (http://www.inkscape.org/) -->

<svg
   xmlns:dc="http://purl.org/dc/elements/1.1/"
   xmlns:cc="http://creativecommons.org/ns#"
   xmlns:rdf="http://www.w3.org/1999/02/22-rdf-syntax-ns#"
   xmlns:svg="http://www.w3.org/2000/svg"
   xmlns="http://www.w3.org/2000/svg"
   xmlns:inkscape="http://www.inkscape.org/namespaces/inkscape"
   version="1.1"
   width="100%"
   height="100%"
   viewBox="0 0 512 512"
   id="svg2">
  <metadata
     id="metadata72">
    <rdf:RDF>
      <cc:Work
         rdf:about="">
        <dc:format>image/svg+xml</dc:format>
        <dc:type
           rdf:resource="http://purl.org/dc/dcmitype/StillImage" />
      </cc:Work>
    </rdf:RDF>
  </metadata>
  <defs
     id="defs70" />
  <path
     d="m 471.95,253.05 c 0,120.9 -98.01,218.9 -218.9,218.9 -120.9,0 -218.9,-98.01 -218.9,-218.9 0,-120.9 98.01,-218.9 218.9,-218.9 120.9,0 218.9,98.01 218.9,218.9"
     inkscape:connector-curvature="0"
     id="path4"
     style="fill:#0078ad;fill-rule:evenodd" />
  <path
     d="M 266.72,125.19 137.66,372.53 h 1.531 c -0.004,0.008 -0.531,1 -0.531,1 h 1.531 c -0.004,0.008 -0.531,1 -0.531,1 h 1.5 c -0.004,0.008 -0.5,0.969 -0.5,0.969 h 1.531 c -0.004,0.008 -0.531,1 -0.531,1 h 1.5 c -0.004,0.008 -0.531,1 -0.531,1 h 1.531 c -0.004,0.008 -0.531,1 -0.531,1 h 1.531 c -0.004,0.008 -0.531,1 -0.531,1 h 1.531 c -0.004,0.008 -0.531,1 -0.531,1 h 1.5 c -0.004,0.008 -0.5,0.969 -0.5,0.969 h 1.531 c -0.004,0.008 -0.531,1 -0.531,1 h 1.5 c -0.004,0.008 -0.531,1 -0.531,1 h 1.531 c -0.004,0.008 -0.531,1 -0.531,1 h 1.531 c -0.004,0.008 -0.531,1 -0.531,1 h 1.531 c -0.004,0.008 -0.531,1 -0.531,1 h 1.5 c -0.004,0.008 -0.5,0.969 -0.5,0.969 h 1.531 c -0.004,0.008 -0.531,1 -0.531,1 h 1.5 l -0.531,1 h 1.531 c -0.004,0.008 -0.531,1 -0.531,1 h 1.531 l -0.531,1 h 1.531 c -0.004,0.008 -0.531,1 -0.531,1 h 1.531 l -0.531,1 h 1.5 c -0.004,0.008 -0.5,0.969 -0.5,0.969 h 1.531 l -0.531,1 h 1.5 c -0.004,0.008 -0.531,1 -0.531,1 h 1.531 l -0.531,1 h 1.531 c -0.004,0.008 -0.531,1 -0.531,1 h 1.531 c -0.004,0.008 -0.531,1 -0.531,1 h 1.5 c -0.004,0.008 -0.5,0.968 -0.5,0.969 h 1.531 c -0.004,0.008 -0.531,1 -0.531,1 h 1.5 c -0.004,0.008 -0.531,1 -0.531,1 h 1.531 c -0.004,0.008 -0.531,1 -0.531,1 h 1.531 c -0.004,0.008 -0.531,1 -0.531,1 h 1.531 c -0.004,0.008 -0.531,1 -0.531,1 h 1.5 c -0.004,0.008 -0.5,0.968 -0.5,0.969 h 1.531 c -0.004,0.008 -0.531,1 -0.531,1 h 1.5 c -0.004,0.008 -0.531,1 -0.531,1 h 1.531 c -0.004,0.008 -0.531,1 -0.531,1 h 1.531 c -0.004,0.008 -0.531,1 -0.531,1 h 1.531 c -0.004,0.008 -0.531,1 -0.531,1 h 1.5 l -0.5,0.969 h 1.531 l -0.531,1 h 1.531 c -0.004,0.009 -0.531,1 -0.531,1 h 1.5 c -0.004,0.009 -0.531,1 -0.531,1 h 1.531 c -0.004,0.009 -0.531,1 -0.531,1 h 1.531 c -0.004,0.009 -0.531,1 -0.531,1 h 1.531 c -0.004,0.009 -0.531,1 -0.531,1 h 1.5 c -0.004,0.008 -0.5,0.968 -0.5,0.969 h 1.531 c -0.004,0.009 -0.531,1 -0.531,1 h 1.5 c -0.004,0.009 -0.531,1 -0.531,1 h 1.531 c -0.004,0.009 -0.531,1 -0.531,1 h 1.531 c -0.004,0.009 -0.531,1 -0.531,1 h 1.531 l -0.531,1 h 1.5 c -0.004,0.008 -0.5,0.968 -0.5,0.969 h 1.531 c -0.005,0.009 -0.531,0.999 -0.531,1 h 1.5 c -0.005,0.009 -0.531,0.999 -0.531,1 h 1.531 l -0.531,1 h 1.531 c -0.005,0.009 -0.531,0.999 -0.531,1 h 1.531 l -0.531,1 h 1.5 c -0.004,0.008 -0.5,0.968 -0.5,0.969 h 1.531 l -0.531,1 h 1.5 c -0.005,0.009 -0.531,0.999 -0.531,1 h 1.531 l -0.531,1 h 1.531 c -0.005,0.009 -0.531,0.999 -0.531,1 h 1.531 l -0.531,1 h 1.531 c -0.005,0.009 -0.531,0.999 -0.531,1 h 1.5 l -0.5,0.969 h 1.531 c -0.005,0.009 -0.531,0.999 -0.531,1 h 1.5 l -0.531,1 h 1.531 c -0.005,0.009 -0.531,0.999 -0.531,1 h 1.531 c -0.005,0.009 -0.531,0.999 -0.531,1 h 1.531 c -0.005,0.009 -0.531,0.999 -0.531,1 h 1.5 c -0.004,0.008 -0.5,0.968 -0.5,0.969 h 1.531 c -0.005,0.009 -0.531,0.999 -0.531,1 h 1.5 c -0.005,0.009 -0.531,0.999 -0.531,1 h 1.531 c -0.005,0.009 -0.531,0.999 -0.531,1 h 1.531 c -0.005,0.009 -0.531,0.999 -0.531,1 h 1.531 c -0.005,0.009 -0.531,0.999 -0.531,1 h 1.5 c -0.004,0.008 -0.5,0.968 -0.5,0.969 h 1.531 c -0.005,0.009 -0.531,0.999 -0.531,1 h 1.5 l -0.531,1 h 1.531 l -0.531,1 h 1.531 l -0.531,1 h 1.531 l -0.531,1 h 1.5 l -0.5,0.969 h 1.531 l -0.531,1 h 1.531 l -0.531,1 h 1.5 l -0.531,1 h 1.531 l -0.531,1 h 1.531 c -0.005,0.009 -0.531,0.999 -0.531,1 h 1.531 l -0.531,1 h 1.5 l -0.5,0.969 h 1.531 l -0.531,1 h 1.5 l -0.531,1 h 1.531 l -0.531,1 h 1.531 c -0.005,0.009 -0.531,0.999 -0.531,1 h 1.531 c -0.005,0.009 -0.531,0.999 -0.531,1 h 1.5 c -0.004,0.008 -0.5,0.968 -0.5,0.969 h 1.531 c -0.005,0.009 -0.531,0.999 -0.531,1 h 1.5 l -0.531,1 h 1.531 c -0.002,0.003 -0.096,0.203 -0.188,0.375 5.132,0.36 10.308,0.563 15.531,0.563 116.05,0 211.01,-90.32 218.44,-204.5 h -0.5 l -0.094,-1 h -0.906 c -0.001,-0.009 -0.094,-0.967 -0.094,-0.969 h -0.906 c -0.001,-0.009 -0.094,-0.999 -0.094,-1 h -0.906 c -0.001,-0.009 -0.094,-0.999 -0.094,-1 h -0.906 c -0.001,-0.009 -0.094,-0.999 -0.094,-1 h -0.906 l -0.094,-1 h -0.875 c -0.001,-0.009 -0.094,-0.999 -0.094,-1 h -0.906 c -0.001,-0.009 -0.094,-0.967 -0.094,-0.969 h -0.906 c -0.001,-0.009 -0.094,-0.999 -0.094,-1 h -0.906 c -0.001,-0.009 -0.094,-0.999 -0.094,-1 h -0.906 l -0.094,-1 h -0.906 c -0.001,-0.009 -0.094,-0.999 -0.094,-1 h -0.875 c -0.001,-0.009 -0.094,-0.999 -0.094,-1 h -0.906 c -0.001,-0.009 -0.094,-0.999 -0.094,-1 h -0.906 c -0.001,-0.009 -0.094,-0.968 -0.094,-0.969 h -0.906 l -0.094,-1 h -0.906 c -0.001,-0.009 -0.094,-0.999 -0.094,-1 h -0.906 c -0.001,-0.009 -0.094,-0.999 -0.094,-1 h -0.906 c -0.001,-0.009 -0.094,-0.999 -0.094,-1 h -0.875 c -0.001,-0.009 -0.094,-0.999 -0.094,-1 h -0.906 l -0.094,-0.969 h -0.906 c -0.001,-0.009 -0.094,-0.999 -0.094,-1 h -0.906 c -0.001,-0.009 -0.094,-0.999 -0.094,-1 h -0.906 c -0.001,-0.009 -0.094,-0.999 -0.094,-1 h -0.906 c -0.001,-0.009 -0.094,-0.999 -0.094,-1 h -0.875 l -0.094,-1 h -0.906 c -10e-4,-0.009 -0.094,-0.968 -0.094,-0.969 h -0.906 c -10e-4,-0.009 -0.094,-0.999 -0.094,-1 h -0.906 c -10e-4,-0.009 -0.094,-0.999 -0.094,-1 h -0.906 c -10e-4,-0.009 -0.094,-0.999 -0.094,-1 h -0.906 l -0.094,-1 h -0.875 c -10e-4,-0.009 -0.094,-0.999 -0.094,-1 h -0.906 c -10e-4,-0.009 -0.094,-0.999 -0.094,-1 h -0.906 c -10e-4,-0.009 -0.094,-0.968 -0.094,-0.969 h -0.906 c -10e-4,-0.009 -0.094,-0.999 -0.094,-1 h -0.906 l -0.094,-1 h -0.906 c -10e-4,-0.009 -0.094,-0.999 -0.094,-1 h -0.875 c -10e-4,-0.009 -0.094,-0.999 -0.094,-1 h -0.906 c -10e-4,-0.009 -0.094,-0.999 -0.094,-1 h -0.906 c -10e-4,-0.009 -0.094,-0.968 -0.094,-0.969 h -0.906 l -0.094,-1 h -0.906 c -10e-4,-0.009 -0.094,-0.999 -0.094,-1 h -0.906 c -10e-4,-0.009 -0.094,-0.999 -0.094,-1 h -0.906 c -10e-4,-0.009 -0.094,-0.999 -0.094,-1 h -0.875 c -10e-4,-0.009 -0.094,-0.999 -0.094,-1 h -0.906 l -0.094,-0.969 h -0.906 c -10e-4,-0.009 -0.094,-0.999 -0.094,-1 h -0.906 c -10e-4,-0.009 -0.094,-0.999 -0.094,-1 h -0.906 c -10e-4,-0.009 -0.094,-0.999 -0.094,-1 h -0.906 c -10e-4,-0.009 -0.094,-0.999 -0.094,-1 h -0.875 l -0.094,-1 h -0.906 c -10e-4,-0.008 -0.094,-0.968 -0.094,-0.969 h -0.906 c -10e-4,-0.009 -0.094,-0.999 -0.094,-1 h -0.906 c -10e-4,-0.009 -0.094,-0.999 -0.094,-1 h -0.906 c -10e-4,-0.009 -0.094,-0.999 -0.094,-1 h -0.906 l -0.094,-1 h -0.875 c -0.001,-0.009 -0.094,-0.999 -0.094,-1 h -0.906 c -0.001,-0.009 -0.094,-0.999 -0.094,-1 h -0.906 c -0.001,-0.008 -0.094,-0.968 -0.094,-0.969 h -0.906 c -0.001,-0.009 -0.094,-0.999 -0.094,-1 h -0.906 l -0.094,-1 h -0.906 c -0.001,-0.009 -0.094,-0.999 -0.094,-1 h -0.906 c -0.001,-0.009 -0.094,-0.999 -0.094,-1 h -0.875 c -0.001,-0.009 -0.094,-0.999 -0.094,-1 h -0.906 c -0.001,-0.008 -0.094,-0.968 -0.094,-0.969 h -0.906 l -0.094,-1 h -0.906 c -0.001,-0.009 -0.094,-0.999 -0.094,-1 h -0.906 c -0.001,-0.009 -0.094,-0.999 -0.094,-1 h -0.906 c -0.001,-0.009 -0.094,-0.999 -0.094,-1 h -0.875 c -0.001,-0.009 -0.094,-0.999 -0.094,-1 h -0.906 l -0.094,-0.969 h -0.906 c -0.001,-0.009 -0.094,-0.999 -0.094,-1 h -0.906 c -0.001,-0.009 -0.094,-0.999 -0.094,-1 h -0.906 c -0.001,-0.009 -0.094,-0.999 -0.094,-1 h -0.906 c -0.001,-0.009 -0.094,-0.999 -0.094,-1 h -0.875 l -0.094,-1 h -0.906 c -0.001,-0.009 -0.094,-0.999 -0.094,-1 h -0.906 c -0.001,-0.008 -0.094,-0.968 -0.094,-0.969 h -0.906 c -0.001,-0.009 -0.094,-0.999 -0.094,-1 h -0.906 c -0.001,-0.009 -0.094,-0.999 -0.094,-1 h -0.906 l -0.094,-1 h -0.875 c -10e-4,-0.009 -0.094,-0.999 -0.094,-1 h -0.906 c -10e-4,-0.009 -0.094,-0.999 -0.094,-1 h -0.906 c -10e-4,-0.008 -0.094,-0.968 -0.094,-0.969 h -0.906 c -10e-4,-0.009 -0.094,-0.999 -0.094,-1 h -0.906 l -0.094,-1 h -0.906 c -10e-4,-0.009 -0.094,-0.999 -0.094,-1 h -0.906 c -10e-4,-0.009 -0.094,-0.999 -0.094,-1 h -0.875 c -10e-4,-0.009 -0.094,-0.999 -0.094,-1 h -0.906 c -10e-4,-0.008 -0.094,-0.968 -0.094,-0.969 h -0.906 l -0.094,-1 h -0.906 c -10e-4,-0.009 -0.094,-1 -0.094,-1 h -0.906 c -10e-4,-0.009 -0.094,-1 -0.094,-1 h -0.906 c -10e-4,-0.009 -0.094,-1 -0.094,-1 h -0.875 c -10e-4,-0.008 -0.094,-1 -0.094,-1 h -0.906 c -10e-4,-0.008 -0.094,-0.968 -0.094,-0.969 h -0.906 c -10e-4,-0.008 -0.094,-1 -0.094,-1 h -0.906 l -0.094,-1 h -0.906 c -10e-4,-0.008 -0.094,-1 -0.094,-1 h -0.906 c -10e-4,-0.008 -0.094,-1 -0.094,-1 h -0.875 c -10e-4,-0.008 -0.094,-1 -0.094,-1 h -0.906 c -10e-4,-0.008 -0.094,-1 -0.094,-1 h -0.906 C 369.473,165.96 369.38,165 369.38,164.999 h -0.906 c -10e-4,-0.008 -0.094,-1 -0.094,-1 h -0.906 c -10e-4,-0.008 -0.094,-1 -0.094,-1 h -0.906 c -10e-4,-0.008 -0.094,-1 -0.094,-1 h -0.875 c -10e-4,-0.008 -0.094,-1 -0.094,-1 h -0.906 c -10e-4,-0.008 -0.094,-1 -0.094,-1 h -0.906 c -10e-4,-0.008 -0.094,-0.968 -0.094,-0.969 h -0.906 c -10e-4,-0.008 -0.094,-1 -0.094,-1 h -0.906 c -10e-4,-0.008 -0.094,-1 -0.094,-1 h -0.906 c -10e-4,-0.008 -0.094,-1 -0.094,-1 h -0.906 c -10e-4,-0.008 -0.094,-1 -0.094,-1 h -0.875 c -10e-4,-0.008 -0.094,-1 -0.094,-1 h -0.906 c -10e-4,-0.008 -0.094,-0.968 -0.094,-0.969 h -0.906 c -10e-4,-0.008 -0.094,-1 -0.094,-1 h -0.906 c -10e-4,-0.008 -0.094,-1 -0.094,-1 h -0.906 l -0.094,-1 h -0.906 c -10e-4,-0.008 -0.094,-1 -0.094,-1 h -0.875 c -0.001,-0.008 -0.094,-1 -0.094,-1 h -0.906 c -0.001,-0.008 -0.094,-1 -0.094,-1 h -0.906 c -0.001,-0.008 -0.094,-0.969 -0.094,-0.969 h -0.906 c -0.001,-0.008 -0.094,-1 -0.094,-1 h -0.906 c -0.001,-0.008 -0.094,-1 -0.094,-1 h -0.906 c -0.001,-0.008 -0.094,-1 -0.094,-1 h -0.875 c -0.001,-0.008 -0.094,-1 -0.094,-1 h -0.906 c -0.001,-0.008 -0.094,-1 -0.094,-1 h -0.906 c -0.001,-0.008 -0.094,-0.969 -0.094,-0.969 h -0.906 c -0.001,-0.008 -0.094,-1 -0.094,-1 h -0.906 c -0.001,-0.008 -0.094,-1 -0.094,-1 h -0.906 c -0.001,-0.008 -0.094,-1 -0.094,-1 h -0.906 c -0.001,-0.008 -0.094,-1 -0.094,-1 h -0.875 c -0.001,-0.008 -0.094,-1 -0.094,-1 h -0.906 c -0.001,-0.008 -0.094,-0.969 -0.094,-0.969 h -0.906 c -0.001,-0.008 -0.094,-1 -0.094,-1 h -0.906 c -0.001,-0.008 -0.094,-1 -0.094,-1 h -0.906 c -0.001,-0.008 -0.094,-1 -0.094,-1 h -0.906 c -0.001,-0.008 -0.094,-1 -0.094,-1 h -0.875 c -0.001,-0.008 -0.094,-1 -0.094,-1 h -0.906 c -0.001,-0.008 -0.094,-0.969 -0.094,-0.969 h -0.906 c -0.001,-0.008 -0.094,-1 -0.094,-1 h -0.906 c -0.001,-0.008 -0.094,-1 -0.094,-1 h -0.906 l -0.094,-1 h -62.844"
     inkscape:connector-curvature="0"
     id="path6"
     style="fill-opacity:0.23500001" />
  <g
     transform="translate(0,-540.36)"
     id="g8"
     style="fill-rule:evenodd">
    <path
       d="m 256,541.36 c -140.83,0 -255,114.17 -255,255 0,140.83 114.17,255 255,255 140.83,0 255,-114.17 255,-255 0,-140.83 -114.17,-255 -255,-255 m 8.827,44.931 c 120.9,0 218.9,98 218.9,218.9 0,120.9 -98,218.9 -218.9,218.9 -120.9,0 -218.93,-98 -218.93,-218.9 0,-120.9 98.03,-218.9 218.93,-218.9"
       inkscape:connector-curvature="0"
       id="path10"
       style="fill-opacity:0.06700003" />
    <g
       id="g12"
       style="fill-opacity:0.12900002">
      <path
         d="M 256,544.79 C 117.06,544.79 4.43,657.42 4.43,796.36 4.43,935.3 117.06,1047.93 256,1047.93 394.94,1047.93 507.57,935.3 507.57,796.36 507.57,657.42 394.94,544.79 256,544.79 m 5.885,38.556 c 120.9,0 218.9,98 218.9,218.9 0,120.9 -98,218.9 -218.9,218.9 -120.9,0 -218.93,-98 -218.93,-218.9 0,-120.9 98.03,-218.9 218.93,-218.9"
         inkscape:connector-curvature="0"
         id="path14" />
      <path
         d="M 256,548.72 C 119.23,548.72 8.36,659.59 8.36,796.36 8.36,933.13 119.23,1044 256,1044 392.77,1044 503.64,933.13 503.64,796.36 503.64,659.59 392.77,548.72 256,548.72 m 2.942,31.691 c 120.9,0 218.9,98 218.9,218.9 0,120.9 -98,218.9 -218.9,218.9 -120.9,0 -218.93,-98 -218.93,-218.9 0,-120.9 98.03,-218.9 218.93,-218.9"
         inkscape:connector-curvature="0"
         id="path16" />
    </g>
    <path
       d="M 253.04,548.22 C 117.62,548.22 7.85,658 7.85,793.41 c 0,135.42 109.78,245.19 245.19,245.19 135.42,0 245.19,-109.78 245.19,-245.19 0,-135.42 -109.78,-245.19 -245.19,-245.19 z m 0,26.297 c 120.9,0 218.9,98 218.9,218.9 0,120.9 -98,218.9 -218.9,218.9 -120.9,0 -218.93,-98 -218.93,-218.9 0,-120.9 98.03,-218.9 218.93,-218.9 z"
       inkscape:connector-curvature="0"
       id="path18"
       style="fill:#ffffff;stroke:#000000;stroke-width:4.90399981;stroke-opacity:0.31000001" />
  </g>
  <text
     x="729.64001"
     y="231.36"
     id="text20"
     style="font-size:129.22999573px;line-height:125%;letter-spacing:0;word-spacing:0;font-family:Gentium Book Basic">
    <tspan
       x="729.64001"
       y="231.36"
       id="tspan22" />
  </text>
  <text
     x="378.91"
     y="579.26001"
     transform="scale(4.0128,0.2492)"
     id="text24"
     style="font-size:46.95399857px;text-anchor:middle;font-family:Arial" />
  <text
     x="1310.91"
     y="151.36"
     id="text26"
     style="font-size:129.22999573px;line-height:125%;letter-spacing:0;word-spacing:0;font-family:Gentium Book Basic">
    <tspan
       x="1310.91"
       y="151.36"
       id="tspan28" />
  </text>
  <text
     x="523.76001"
     y="258.22"
     transform="scale(4.0128,0.2492)"
     id="text30"
     style="font-size:46.95399857px;text-anchor:middle;font-family:Arial" />
  <text
     x="239.33"
     y="-29.9"
     id="text32"
     style="font-size:129.22999573px;line-height:125%;letter-spacing:0;word-spacing:0;font-family:Gentium Book Basic">
    <tspan
       x="239.33"
       y="-29.9"
       id="tspan34" />
  </text>
  <text
     x="256.72"
     y="-469.13"
     transform="scale(4.0128,0.2492)"
     id="text36"
     style="font-size:46.95399857px;text-anchor:middle;font-family:Arial" />
  <text
     x="1337.38"
     y="-246.37"
     id="text38"
     style="font-size:129.22999573px;line-height:125%;letter-spacing:0;word-spacing:0;font-family:Gentium Book Basic">
    <tspan
       x="1337.38"
       y="-246.37"
       id="tspan40" />
  </text>
  <text
     x="530.35999"
     y="-1337.8"
     transform="scale(4.0128,0.2492)"
     id="text42"
     style="font-size:46.95399857px;text-anchor:middle;font-family:Arial" />
  <text
     x="1918.65"
     y="-326.37"
     id="text44"
     style="font-size:129.22999573px;line-height:125%;letter-spacing:0;word-spacing:0;font-family:Gentium Book Basic">
    <tspan
       x="1918.65"
       y="-326.37"
       id="tspan46" />
  </text>
  <text
     x="675.21002"
     y="-1658.83"
     transform="scale(4.0128,0.2492)"
     id="text48"
     style="font-size:46.95399857px;text-anchor:middle;font-family:Arial" />
  <text
     x="1529.53"
     y="-798.77002"
     id="text50"
     style="font-size:129.22999573px;line-height:125%;letter-spacing:0;word-spacing:0;font-family:Gentium Book Basic">
    <tspan
       x="1529.53"
       y="-798.77002"
       id="tspan52" />
  </text>
  <text
     x="578.23999"
     y="-3554.48"
     transform="scale(4.0128,0.2492)"
     id="text54"
     style="font-size:46.95399857px;text-anchor:middle;font-family:Arial" />
  <text
     x="2110.79"
     y="-878.78003"
     id="text56"
     style="font-size:129.22999573px;line-height:125%;letter-spacing:0;word-spacing:0;font-family:Gentium Book Basic">
    <tspan
       x="2110.79"
       y="-878.78003"
       id="tspan58" />
  </text>
  <text
     x="723.09003"
     y="-3875.52"
     transform="scale(4.0128,0.2492)"
     id="text60"
     style="font-size:46.95399857px;text-anchor:middle;font-family:Arial" />
  <text
     x="277.98999"
     y="535.94"
     id="text62"
     style="font-size:208.33000183px;line-height:125%;letter-spacing:0;word-spacing:0;font-family:Gentium Book Basic">
    <tspan
       x="277.98999"
       y="535.94"
       id="tspan64" />
  </text>
  <path
     d="m 300.25,313.9 h -79.69 l -28.98,58.63 h -53.916 l 129.06,-247.34 h 62.846 l 24.768,247.34 h -50.04 l -4.04,-58.63 m -2.527,-43.807 -4.381,-58.971 -0.842,-22.409 -0.505,-26.28 h -0.842 c -6.07,16.512 -12.02,30.777 -17.86,42.796 l -31.676,64.868 h 56.11"
     inkscape:connector-curvature="0"
     id="path66"
     style="fill:#ffffff" />
</svg>
