<?xml version="1.0" encoding="UTF-8" standalone="no"?>
<!-- Created with Inkscape (http://www.inkscape.org/) -->

<svg
   xmlns:dc="http://purl.org/dc/elements/1.1/"
   xmlns:cc="http://creativecommons.org/ns#"
   xmlns:rdf="http://www.w3.org/1999/02/22-rdf-syntax-ns#"
   xmlns:svg="http://www.w3.org/2000/svg"
   xmlns="http://www.w3.org/2000/svg"
   xmlns:inkscape="http://www.inkscape.org/namespaces/inkscape"
   version="1.1"
   width="100%"
   height="100%"
   viewBox="0 0 512 512"
   id="svg2">
  <metadata
     id="metadata72">
    <rdf:RDF>
      <cc:Work
         rdf:about="">
        <dc:format>image/svg+xml</dc:format>
        <dc:type
           rdf:resource="http://purl.org/dc/dcmitype/StillImage" />
      </cc:Work>
    </rdf:RDF>
  </metadata>
  <defs
     id="defs70" />
  <path
     d="m 471.95,253.05 c 0,120.9 -98.01,218.9 -218.9,218.9 -120.9,0 -218.9,-98.01 -218.9,-218.9 0,-120.9 98.01,-218.9 218.9,-218.9 120.9,0 218.9,98.01 218.9,218.9"
     inkscape:connector-curvature="0"
     id="path4"
     style="fill:#6ea6c1;fill-rule:evenodd" />
  <path
     d="m 225.78,111.19 c -18.607,6.691 -51.672,9.348 -52.19,33.406 -0.011,37.22 -36.23,24.341 -44.33,49.3 -12.264,19.543 -15.06,36.26 -1.894,54.15 4.157,25.766 -7.77,42.94 -6.615,67.889 5.536,15.03 15.463,25.655 25.625,34.656 15.334,15.858 31.18,31.21 45.688,46.06 18.48,18.285 36.729,36.593 54.938,54.906 6.713,6.638 13.358,13.292 20,19.938 109.88,-6.917 197.74,-94.89 204.5,-204.81 -10.752,-10.72 -21.507,-21.43 -32.22,-32.375 -16.01,-15.602 -31.718,-31.754 -47.719,-47.5 -15.17,-15.408 -31.996,-31.587 -47.594,-47.75 -13.714,-14.758 -37.08,-23.13 -57.75,-27.875 -15.447,17.868 -44.977,17.761 -60.44,0"
     inkscape:connector-curvature="0"
     id="path6"
     style="color:#000000;fill-opacity:0.23500001" />
  <g
     id="g8"
     style="fill-rule:evenodd">
    <path
       d="M 256,1 C 115.17,1 1,115.17 1,256 1,396.83 115.17,511 256,511 396.83,511 511,396.83 511,256 511,115.17 396.83,1 256,1 m 8.827,44.931 c 120.9,0 218.9,98 218.9,218.9 0,120.9 -98,218.9 -218.9,218.9 -120.9,0 -218.93,-98 -218.93,-218.9 0,-120.9 98.03,-218.9 218.93,-218.9"
       inkscape:connector-curvature="0"
       id="path10"
       style="fill-opacity:0.06700003" />
    <g
       id="g12"
       style="fill-opacity:0.12900002">
      <path
         d="m 256,4.433 c -138.94,0 -251.57,112.63 -251.57,251.57 0,138.94 112.63,251.57 251.57,251.57 138.94,0 251.57,-112.63 251.57,-251.57 C 507.57,117.063 394.94,4.433 256,4.433 m 5.885,38.556 c 120.9,0 218.9,98 218.9,218.9 0,120.9 -98,218.9 -218.9,218.9 -120.9,0 -218.93,-98 -218.93,-218.9 0,-120.9 98.03,-218.9 218.93,-218.9"
         inkscape:connector-curvature="0"
         id="path14" />
      <path
         d="m 256,8.356 c -136.77,0 -247.64,110.87 -247.64,247.64 0,136.77 110.87,247.64 247.64,247.64 136.77,0 247.64,-110.87 247.64,-247.64 C 503.64,119.226 392.77,8.356 256,8.356 m 2.942,31.691 c 120.9,0 218.9,98 218.9,218.9 0,120.9 -98,218.9 -218.9,218.9 -120.9,0 -218.93,-98 -218.93,-218.9 0,-120.9 98.03,-218.9 218.93,-218.9"
         inkscape:connector-curvature="0"
         id="path16" />
    </g>
    <path
       d="m 253.04,7.859 c -135.42,0 -245.19,109.78 -245.19,245.19 0,135.42 109.78,245.19 245.19,245.19 135.42,0 245.19,-109.78 245.19,-245.19 0,-135.42 -109.78,-245.19 -245.19,-245.19 z m 0,26.297 c 120.9,0 218.9,98 218.9,218.9 0,120.9 -98,218.9 -218.9,218.9 -120.9,0 -218.93,-98 -218.93,-218.9 0,-120.9 98.03,-218.9 218.93,-218.9 z"
       inkscape:connector-curvature="0"
       id="path18"
       style="fill:#ffffff;stroke:#000000;stroke-width:4.90399981;stroke-opacity:0.31000001" />
  </g>
  <text
     x="729.64001"
     y="231.36"
     id="text20"
     style="font-size:129.22999573px;line-height:125%;letter-spacing:0;word-spacing:0;font-family:Gentium Book Basic">
    <tspan
       x="729.64001"
       y="231.36"
       id="tspan22" />
  </text>
  <text
     x="378.91"
     y="579.25"
     transform="scale(4.0128,0.2492)"
     id="text24"
     style="font-size:46.95399857px;text-anchor:middle;font-family:Arial" />
  <text
     x="1310.91"
     y="151.36"
     id="text26"
     style="font-size:129.22999573px;line-height:125%;letter-spacing:0;word-spacing:0;font-family:Gentium Book Basic">
    <tspan
       x="1310.91"
       y="151.36"
       id="tspan28" />
  </text>
  <text
     x="523.76001"
     y="258.22"
     transform="scale(4.0128,0.2492)"
     id="text30"
     style="font-size:46.95399857px;text-anchor:middle;font-family:Arial" />
  <text
     x="239.33"
     y="-29.900999"
     id="text32"
     style="font-size:129.22999573px;line-height:125%;letter-spacing:0;word-spacing:0;font-family:Gentium Book Basic">
    <tspan
       x="239.33"
       y="-29.900999"
       id="tspan34" />
  </text>
  <text
     x="256.72"
     y="-469.14001"
     transform="scale(4.0128,0.2492)"
     id="text36"
     style="font-size:46.95399857px;text-anchor:middle;font-family:Arial" />
  <text
     x="1337.38"
     y="-246.37"
     id="text38"
     style="font-size:129.22999573px;line-height:125%;letter-spacing:0;word-spacing:0;font-family:Gentium Book Basic">
    <tspan
       x="1337.38"
       y="-246.37"
       id="tspan40" />
  </text>
  <text
     x="530.35999"
     y="-1337.8101"
     transform="scale(4.0128,0.2492)"
     id="text42"
     style="font-size:46.95399857px;text-anchor:middle;font-family:Arial" />
  <text
     x="1918.65"
     y="-326.38"
     id="text44"
     style="font-size:129.22999573px;line-height:125%;letter-spacing:0;word-spacing:0;font-family:Gentium Book Basic">
    <tspan
       x="1918.65"
       y="-326.38"
       id="tspan46" />
  </text>
  <text
     x="675.21002"
     y="-1658.85"
     transform="scale(4.0128,0.2492)"
     id="text48"
     style="font-size:46.95399857px;text-anchor:middle;font-family:Arial" />
  <text
     x="1529.53"
     y="-798.78003"
     id="text50"
     style="font-size:129.22999573px;line-height:125%;letter-spacing:0;word-spacing:0;font-family:Gentium Book Basic">
    <tspan
       x="1529.53"
       y="-798.78003"
       id="tspan52" />
  </text>
  <text
     x="578.23999"
     y="-3554.51"
     transform="scale(4.0128,0.2492)"
     id="text54"
     style="font-size:46.95399857px;text-anchor:middle;font-family:Arial" />
  <text
     x="2110.79"
     y="-878.78003"
     id="text56"
     style="font-size:129.22999573px;line-height:125%;letter-spacing:0;word-spacing:0;font-family:Gentium Book Basic">
    <tspan
       x="2110.79"
       y="-878.78003"
       id="tspan58" />
  </text>
  <text
     x="723.09003"
     y="-3875.54"
     transform="scale(4.0128,0.2492)"
     id="text60"
     style="font-size:46.95399857px;text-anchor:middle;font-family:Arial" />
  <text
     x="277.98999"
     y="535.94"
     id="text62"
     style="font-size:208.33000183px;line-height:125%;letter-spacing:0;word-spacing:0;font-family:Gentium Book Basic">
    <tspan
       x="277.98999"
       y="535.94"
       id="tspan64" />
  </text>
  <path
     d="m 225.79,111.2 c -18.413,3.832 -35.687,11.02 -50.895,20.991 0.443,11.07 -3.372,22.391 -11.821,30.83 -8.448,8.439 -19.784,12.25 -30.865,11.807 -9.985,15.19 -17.18,32.445 -21.01,50.837 8.215,7.508 13.13,18.18 13.13,30.17 0,11.998 -4.92,22.994 -13.13,30.502 3.837,18.392 11.03,35.32 21.01,50.51 11.08,-0.443 22.417,3.696 30.865,12.135 8.448,8.439 12.264,19.434 11.821,30.502 15.207,9.974 32.482,17.486 50.895,21.319 7.517,-8.205 18.2,-13.447 30.21,-13.447 12.01,0 22.692,5.242 30.21,13.447 18.354,-3.82 35.724,-11.395 50.895,-21.319 -0.021,-0.593 0,-1.047 0,-1.64 0,-10.509 3.793,-20.844 11.821,-28.862 8.448,-8.439 19.784,-12.578 30.865,-12.135 9.985,-15.19 17.18,-32.12 21.01,-50.51 -8.214,-7.508 -13.13,-18.504 -13.13,-30.502 0,-11.998 4.92,-22.666 13.13,-30.17 -3.837,-18.392 -11.03,-35.647 -21.01,-50.837 -11.08,0.443 -22.417,-3.368 -30.865,-11.807 -8.03,-8.02 -11.821,-18.353 -11.821,-28.862 0,-0.593 -0.021,-1.375 0,-1.968 -15.171,-9.924 -32.541,-17.17 -50.895,-20.991 -7.517,8.205 -18.2,13.447 -30.21,13.447 -12.01,0 -22.692,-5.242 -30.21,-13.447 m 72.894,46.25 c 4.687,0 8.139,0.506 12.477,1.64 6.327,1.657 11.489,6.765 11.492,12.791 0.004,7.285 -5.222,12.463 -13.13,12.463 -3.769,0 -5.317,-0.656 -10.836,-0.656 -16.288,0 -29.524,13.249 -29.552,29.518 v 25.583 c 0,2.302 1.966,3.936 4.269,3.936 h 19.373 c 7.225,0 13.13,5.884 13.13,13.12 0,7.238 -5.912,13.12 -13.13,13.12 h -23.641 v 29.518 c 0,30.855 -24.93,56.08 -55.82,56.08 -4.687,0 -8.139,-0.505 -12.477,-1.64 -6.327,-1.656 -11.49,-7.095 -11.492,-13.12 0,-7.283 5.547,-12.463 13.462,-12.463 3.765,0 4.991,0.656 10.507,0.656 16.288,0 29.526,-12.927 29.552,-29.19 v -25.911 c 0,-2.298 -1.966,-3.936 -4.269,-3.936 h -19.373 c -7.227,0 -13.13,-5.879 -13.13,-13.12 -0.002,-7.281 6.159,-13.12 13.462,-13.12 h 23.313 v -29.518 c 0,-30.858 24.925,-55.757 55.82,-55.757"
     inkscape:connector-curvature="0"
     id="path66"
     style="color:#000000;fill:#f9f9f9" />
</svg>
