<?xml version="1.0" encoding="UTF-8" standalone="no"?>
<!-- Created with Inkscape (http://www.inkscape.org/) -->

<svg
   xmlns:dc="http://purl.org/dc/elements/1.1/"
   xmlns:cc="http://creativecommons.org/ns#"
   xmlns:rdf="http://www.w3.org/1999/02/22-rdf-syntax-ns#"
   xmlns:svg="http://www.w3.org/2000/svg"
   xmlns="http://www.w3.org/2000/svg"
   xmlns:inkscape="http://www.inkscape.org/namespaces/inkscape"
   version="1.1"
   width="100%"
   height="100%"
   viewBox="0 0 512 512"
   id="svg2">
  <metadata
     id="metadata70">
    <rdf:RDF>
      <cc:Work
         rdf:about="">
        <dc:format>image/svg+xml</dc:format>
        <dc:type
           rdf:resource="http://purl.org/dc/dcmitype/StillImage" />
        <dc:title />
      </cc:Work>
    </rdf:RDF>
  </metadata>
  <defs
     id="defs68">
    <clipPath
       id="clipPath3531">
      <path
         d="m 471.9456,253.05189 c 0,120.89699 -98.00565,218.90724 -218.90724,218.90724 -120.89698,0 -218.90723,-98.00566 -218.90723,-218.90724 0,-120.89698 98.00565,-218.907232 218.90723,-218.907232 120.89699,0 218.90724,98.005652 218.90724,218.907232"
         inkscape:connector-curvature="0"
         id="path3533"
         style="fill:#c84f42;fill-opacity:1;fill-rule:evenodd" />
    </clipPath>
  </defs>
  <path
     d="m 471.9456,253.05189 c 0,120.89699 -98.00565,218.90724 -218.90724,218.90724 -120.89698,0 -218.90723,-98.00566 -218.90723,-218.90724 0,-120.89698 98.00565,-218.907232 218.90723,-218.907232 120.89699,0 218.90724,98.005652 218.90724,218.907232"
     inkscape:connector-curvature="0"
     id="path8"
     style="fill:#c84f42;fill-opacity:1;fill-rule:evenodd" />
  <path
     d="M 256,1 C 115.17,1 1,115.17 1,256 1,396.83 115.17,511 256,511 396.83,511 511,396.83 511,256 511,115.17 396.83,1 256,1 m 8.827,44.931 c 120.9,0 218.9,98 218.9,218.9 0,120.9 -98,218.9 -218.9,218.9 -120.9,0 -218.93,-98 -218.93,-218.9 0,-120.9 98.03,-218.9 218.93,-218.9"
     inkscape:connector-curvature="0"
     id="path10"
     style="fill-opacity:0.06700003;fill-rule:evenodd" />
  <path
     d="M 256,4.43 C 117.06,4.43 4.43,117.06 4.43,256 4.43,394.94 117.06,507.57 256,507.57 394.94,507.57 507.57,394.94 507.57,256 507.57,117.06 394.94,4.43 256,4.43 m 5.885,38.556 c 120.9,0 218.9,98 218.9,218.9 0,120.9 -98,218.9 -218.9,218.9 -120.9,0 -218.93,-98 -218.93,-218.9 0,-120.9 98.03,-218.9 218.93,-218.9"
     inkscape:connector-curvature="0"
     id="path14"
     style="fill-opacity:0.12900002;fill-rule:evenodd" />
  <path
     d="M 256,8.36 C 119.23,8.36 8.36,119.23 8.36,256 8.36,392.77 119.23,503.64 256,503.64 392.77,503.64 503.64,392.77 503.64,256 503.64,119.23 392.77,8.36 256,8.36 m 2.942,31.691 c 120.9,0 218.9,98 218.9,218.9 0,120.9 -98,218.9 -218.9,218.9 -120.9,0 -218.93,-98 -218.93,-218.9 0,-120.9 98.03,-218.9 218.93,-218.9"
     inkscape:connector-curvature="0"
     id="path16"
     style="fill-opacity:0.12900002;fill-rule:evenodd" />
  <path
     d="M 253.04,7.86 C 117.62,7.86 7.85,117.64 7.85,253.05 c 0,135.42 109.78,245.19 245.19,245.19 135.42,0 245.19,-109.78 245.19,-245.19 C 498.23,117.63 388.45,7.86 253.04,7.86 z m 0,26.297 c 120.9,0 218.9,98 218.9,218.9 0,120.9 -98,218.9 -218.9,218.9 -120.9,0 -218.93,-98 -218.93,-218.9 0,-120.9 98.03,-218.9 218.93,-218.9 z"
     inkscape:connector-curvature="0"
     id="path18"
     style="fill:#ffffff;fill-rule:evenodd;stroke:#000000;stroke-width:4.90399981;stroke-opacity:0.31000001" />
  <text
     x="729.64001"
     y="231.35997"
     id="text20"
     style="font-size:129.22999573px;line-height:125%;letter-spacing:0;word-spacing:0;font-family:Gentium Book Basic">
    <tspan
       x="729.64001"
       y="231.35997"
       id="tspan22" />
  </text>
  <text
     x="378.90805"
     y="579.25812"
     transform="scale(4.0128205,0.24920128)"
     id="text24"
     style="font-size:46.95375824px;text-anchor:middle;font-family:Arial" />
  <text
     x="1310.91"
     y="151.35997"
     id="text26"
     style="font-size:129.22999573px;line-height:125%;letter-spacing:0;word-spacing:0;font-family:Gentium Book Basic">
    <tspan
       x="1310.91"
       y="151.35997"
       id="tspan28" />
  </text>
  <text
     x="523.75732"
     y="258.21997"
     transform="scale(4.0128205,0.24920128)"
     id="text30"
     style="font-size:46.95375824px;text-anchor:middle;font-family:Arial" />
  <text
     x="239.33"
     y="-29.900009"
     id="text32"
     style="font-size:129.22999573px;line-height:125%;letter-spacing:0;word-spacing:0;font-family:Gentium Book Basic">
    <tspan
       x="239.33"
       y="-29.900009"
       id="tspan34" />
  </text>
  <text
     x="256.71869"
     y="-469.1264"
     transform="scale(4.0128205,0.24920128)"
     id="text36"
     style="font-size:46.95375824px;text-anchor:middle;font-family:Arial" />
  <text
     x="1337.38"
     y="-246.37001"
     id="text38"
     style="font-size:129.22999573px;line-height:125%;letter-spacing:0;word-spacing:0;font-family:Gentium Book Basic">
    <tspan
       x="1337.38"
       y="-246.37001"
       id="tspan40" />
  </text>
  <text
     x="530.3573"
     y="-1337.802"
     transform="scale(4.0128205,0.24920128)"
     id="text42"
     style="font-size:46.95375824px;text-anchor:middle;font-family:Arial" />
  <text
     x="1918.65"
     y="-326.37"
     id="text44"
     style="font-size:129.22999573px;line-height:125%;letter-spacing:0;word-spacing:0;font-family:Gentium Book Basic">
    <tspan
       x="1918.65"
       y="-326.37"
       id="tspan46" />
  </text>
  <text
     x="675.20654"
     y="-1658.8303"
     transform="scale(4.0128205,0.24920128)"
     id="text48"
     style="font-size:46.95375824px;text-anchor:middle;font-family:Arial" />
  <text
     x="1529.53"
     y="-798.77002"
     id="text50"
     style="font-size:129.22999573px;line-height:125%;letter-spacing:0;word-spacing:0;font-family:Gentium Book Basic">
    <tspan
       x="1529.53"
       y="-798.77002"
       id="tspan52" />
  </text>
  <text
     x="578.237"
     y="-3554.4807"
     transform="scale(4.0128205,0.24920128)"
     id="text54"
     style="font-size:46.95375824px;text-anchor:middle;font-family:Arial" />
  <text
     x="2110.79"
     y="-878.78003"
     id="text56"
     style="font-size:129.22999573px;line-height:125%;letter-spacing:0;word-spacing:0;font-family:Gentium Book Basic">
    <tspan
       x="2110.79"
       y="-878.78003"
       id="tspan58" />
  </text>
  <text
     x="723.0863"
     y="-3875.519"
     transform="scale(4.0128205,0.24920128)"
     id="text60"
     style="font-size:46.95375824px;text-anchor:middle;font-family:Arial" />
  <text
     x="277.98999"
     y="535.94006"
     id="text62"
     style="font-size:208.33000183px;line-height:125%;letter-spacing:0;word-spacing:0;font-family:Gentium Book Basic">
    <tspan
       x="277.98999"
       y="535.94006"
       id="tspan64" />
  </text>
  <g
     clip-path="url(#clipPath3531)"
     id="g3353"
     style="opacity:0.25;fill:#000000">
    <path
       d="m 155.81463,109.19494 c -10.82261,0 -19.53995,10.5062 -19.53995,23.57169 l 388.90873,388.90873 c 0,-13.06549 8.71734,-23.57169 19.53995,-23.57169 z"
       inkscape:connector-curvature="0"
       id="path3355"
       style="fill:#000000" />
    <path
       d="m 136.27468,132.76663 0,141.11986 388.90873,388.90873 0,-141.11986 z"
       inkscape:connector-curvature="0"
       id="path3357"
       style="fill:#000000" />
    <path
       d="m 136.27468,273.88649 c 0,1.06578 0.0947,2.07459 0.20685,3.10181 l 388.90873,388.90873 c -0.11215,-1.02722 -0.20685,-2.03603 -0.20685,-3.10181 z"
       inkscape:connector-curvature="0"
       id="path3359"
       style="fill:#000000" />
    <path
       d="m 136.48153,276.9883 c 0.004,0.0333 -0.004,0.0701 0,0.10343 l 388.90873,388.90873 c -0.004,-0.0333 0.004,-0.0701 0,-0.10343 z"
       inkscape:connector-curvature="0"
       id="path3361"
       style="fill:#000000" />
    <path
       d="m 136.48153,277.09173 c -0.0999,2.00623 -0.20685,3.96513 -0.20685,5.99678 l 388.90873,388.90873 c 0,-2.03165 0.10695,-3.99055 0.20685,-5.99678 z"
       inkscape:connector-curvature="0"
       id="path3363"
       style="fill:#000000" />
    <path
       d="m 136.27468,283.08851 c 0,33.06141 13.39987,62.99363 35.06629,84.66005 L 560.2497,756.65729 c -21.66642,-21.66642 -35.06629,-51.59864 -35.06629,-84.66005 z"
       inkscape:connector-curvature="0"
       id="path3365"
       style="fill:#000000" />
    <path
       d="M 171.34097,367.74856 C 193.00596,389.41355 222.9364,402.81383 256,402.81383 l 388.90873,388.90873 c -33.0636,0 -62.99404,-13.40029 -84.65903,-35.06527 z"
       inkscape:connector-curvature="0"
       id="path3367"
       style="fill:#000000" />
    <path
       d="m 256,402.81383 c 66.12063,0 119.72532,-53.59593 119.72532,-119.72532 l 388.90873,388.90873 c 0,66.12939 -53.60469,119.72532 -119.72532,119.72532 z"
       inkscape:connector-curvature="0"
       id="path3369"
       style="fill:#000000" />
    <path
       d="m 375.72532,283.08851 c 0,-33.06141 -13.39987,-62.99363 -35.06629,-84.66005 l 388.90873,388.90873 c 21.66642,21.66642 35.06629,51.59864 35.06629,84.66005 z"
       inkscape:connector-curvature="0"
       id="path3371"
       style="fill:#000000" />
    <path
       d="M 340.65903,198.42846 C 318.99404,176.76347 289.0636,163.36319 256,163.36319 l 388.90873,388.90873 c 33.0636,0 62.99404,13.40028 84.65903,35.06527 z"
       inkscape:connector-curvature="0"
       id="path3373"
       style="fill:#000000" />
    <path
       d="m 256,163.36319 c -31.09878,0 -59.35431,11.88664 -80.64368,31.32579 l 388.90873,388.90873 c 21.28937,-19.43915 49.5449,-31.32579 80.64368,-31.32579 z"
       inkscape:connector-curvature="0"
       id="path3375"
       style="fill:#000000" />
    <path
       d="m 175.35632,194.68898 0,-61.93112 388.90873,388.90873 0,61.93112 z"
       inkscape:connector-curvature="0"
       id="path3377"
       style="fill:#000000" />
    <path
       d="m 175.35632,132.75786 c 0,-7.32594 -2.74069,-13.84726 -7.05646,-18.16303 l 388.90873,388.90873 c 4.31577,4.31577 7.05646,10.83709 7.05646,18.16303 z"
       inkscape:connector-curvature="0"
       id="path3379"
       style="fill:#000000" />
    <path
       d="m 168.29986,114.59483 c -3.38121,-3.38121 -7.72921,-5.40866 -12.48348,-5.40866 L 544.72511,498.0949 c 4.75427,0 9.10227,2.02745 12.48348,5.40866 z"
       inkscape:connector-curvature="0"
       id="path3381"
       style="fill:#000000" />
    <path
       d="m 255.99649,202.33703 c 22.33259,0 42.56401,9.05205 57.20221,23.69025 l 388.90873,388.90873 c -14.6382,-14.6382 -34.86962,-23.69025 -57.20221,-23.69025 z"
       inkscape:connector-curvature="0"
       id="path3383"
       style="fill:#000000" />
    <path
       d="m 313.1987,226.02728 c 14.60575,14.60575 23.64306,34.77291 23.64306,57.0586 l 388.90873,388.90873 c 0,-22.28569 -9.03731,-42.45285 -23.64306,-57.0586 z"
       inkscape:connector-curvature="0"
       id="path3385"
       style="fill:#000000" />
    <path
       d="m 336.84176,283.08588 c 0,44.61565 -36.23312,80.84527 -80.84527,80.84527 l 388.90873,388.90873 c 44.61215,0 80.84527,-36.22962 80.84527,-80.84527 z"
       inkscape:connector-curvature="0"
       id="path3387"
       style="fill:#000000" />
    <path
       d="m 255.99649,363.93115 c -22.28108,0 -42.44445,-9.03658 -57.04836,-23.64049 l 388.90873,388.90873 c 14.60391,14.60391 34.76728,23.64049 57.04836,23.64049 z"
       inkscape:connector-curvature="0"
       id="path3389"
       style="fill:#000000" />
    <path
       d="m 198.94813,340.29066 c -14.63895,-14.63895 -23.69172,-34.87198 -23.69172,-57.20478 l 388.90873,388.90873 c 0,22.3328 9.05277,42.56583 23.69172,57.20478 z"
       inkscape:connector-curvature="0"
       id="path3391"
       style="fill:#000000" />
    <path
       d="m 175.25641,283.08588 c 0,-44.61565 36.12794,-80.74009 80.74885,-80.74009 l 388.90873,388.90873 c -44.62091,0 -80.74885,36.12444 -80.74885,80.74009 z"
       inkscape:connector-curvature="0"
       id="path3393"
       style="fill:#000000" />
    <path
       d="m 215.37227,260.03481 c -12.58518,0 -22.74518,10.16 -22.74518,22.74518 l 388.90873,388.90873 c 0,-12.58518 10.16,-22.74518 22.74518,-22.74518 z"
       inkscape:connector-curvature="0"
       id="path3395"
       style="fill:#000000" />
    <path
       d="m 192.62709,282.77999 c 0,6.31867 2.56109,12.05229 6.70436,16.19556 l 388.90873,388.90873 c -4.14327,-4.14327 -6.70436,-9.87689 -6.70436,-16.19556 z"
       inkscape:connector-curvature="0"
       id="path3397"
       style="fill:#000000" />
    <path
       d="m 199.33145,298.97555 c 4.10907,4.10907 9.7743,6.65392 16.04082,6.65392 L 604.281,694.5382 c -6.26652,0 -11.93175,-2.54485 -16.04082,-6.65392 z"
       inkscape:connector-curvature="0"
       id="path3399"
       style="fill:#000000" />
    <path
       d="m 215.37227,305.62947 c 12.58519,0 22.84948,-10.26342 22.84948,-22.84948 l 388.90873,388.90873 c 0,12.58606 -10.26429,22.84948 -22.84948,22.84948 z"
       inkscape:connector-curvature="0"
       id="path3401"
       style="fill:#000000" />
    <path
       d="m 238.22175,282.77999 c 0,-6.26663 -2.54472,-11.93195 -6.65381,-16.04104 l 388.90873,388.90873 c 4.10908,4.10909 6.65381,9.77441 6.65381,16.04104 z"
       inkscape:connector-curvature="0"
       id="path3403"
       style="fill:#000000" />
    <path
       d="m 231.56794,266.73895 c -4.14314,-4.14314 -9.87667,-6.70414 -16.19567,-6.70414 L 604.281,648.94354 c 6.319,0 12.05253,2.561 16.19567,6.70414 z"
       inkscape:connector-curvature="0"
       id="path3405"
       style="fill:#000000" />
  </g>
  <path
     d="m 155.81463,109.19494 c -10.82261,0 -19.53995,10.5062 -19.53995,23.57169 v 141.11986 c 0,1.06578 0.0947,2.07459 0.20685,3.10181 0.004,0.0333 -0.004,0.0701 0,0.10343 -0.0999,2.00623 -0.20685,3.96513 -0.20685,5.99678 0,66.12063 53.59593,119.72532 119.72532,119.72532 66.12063,0 119.72532,-53.59593 119.72532,-119.72532 0,-66.12063 -53.59593,-119.72532 -119.72532,-119.72532 -31.09878,0 -59.35431,11.88664 -80.64368,31.32579 v -61.93112 c 0,-13.06548 -8.71733,-23.57169 -19.53994,-23.57169 m 100.18011,93.15086 c 44.61565,0 80.84527,36.12794 80.84527,80.74885 0,44.61565 -36.23312,80.84527 -80.84527,80.84527 -44.61564,0 -80.74008,-36.23313 -80.74008,-80.84527 0,-44.61565 36.12794,-80.74009 80.74885,-80.74009 m -40.63299,57.68902 c -12.58518,0 -22.74518,10.16 -22.74518,22.74518 0,12.58519 10.16,22.84948 22.74518,22.84948 12.58519,0 22.84948,-10.26342 22.84948,-22.84948 0,-12.58518 -10.26342,-22.74518 -22.84948,-22.74518"
     inkscape:connector-curvature="0"
     id="path3126"
     style="fill:#ffffff" />
</svg>
