<?xml version="1.0" encoding="UTF-8" standalone="no"?>
<svg
   xmlns:dc="http://purl.org/dc/elements/1.1/"
   xmlns:cc="http://creativecommons.org/ns#"
   xmlns:rdf="http://www.w3.org/1999/02/22-rdf-syntax-ns#"
   xmlns:svg="http://www.w3.org/2000/svg"
   xmlns="http://www.w3.org/2000/svg"
   xmlns:sodipodi="http://sodipodi.sourceforge.net/DTD/sodipodi-0.dtd"
   xmlns:inkscape="http://www.inkscape.org/namespaces/inkscape"
   viewBox="0 0 512 512"
   id="svg2"
   version="1.1"
   inkscape:version="0.48.5 r10040"
   width="100%"
   height="100%"
   sodipodi:docname="a base.svg">
  <sodipodi:namedview
     pagecolor="#ffffff"
     bordercolor="#666666"
     borderopacity="1"
     objecttolerance="10"
     gridtolerance="10"
     guidetolerance="10"
     inkscape:pageopacity="0"
     inkscape:pageshadow="2"
     inkscape:window-width="1306"
     inkscape:window-height="706"
     id="namedview66"
     showgrid="false"
     inkscape:zoom="0.65186406"
     inkscape:cx="254.87385"
     inkscape:cy="185.82298"
     inkscape:window-x="56"
     inkscape:window-y="26"
     inkscape:window-maximized="1"
     inkscape:current-layer="svg2" />
  <metadata
     id="metadata70">
    <rdf:RDF>
      <cc:Work
         rdf:about="">
        <dc:format>image/svg+xml</dc:format>
        <dc:type
           rdf:resource="http://purl.org/dc/dcmitype/StillImage" />
        <dc:title></dc:title>
      </cc:Work>
    </rdf:RDF>
  </metadata>
  <defs
     id="defs68">
    <clipPath
       clipPathUnits="userSpaceOnUse"
       id="clipPath4828">
      <path
         d="m 471.9456,253.05189 c 0,120.89699 -98.00565,218.90724 -218.90724,218.90724 -120.89698,0 -218.90723,-98.00566 -218.90723,-218.90724 0,-120.89698 98.00565,-218.907232 218.90723,-218.907232 120.89699,0 218.90724,98.005652 218.90724,218.907232"
         id="path4830"
         inkscape:connector-curvature="0"
         style="fill:#870511;fill-opacity:1;fill-rule:evenodd" />
    </clipPath>
  </defs>
  <path
     style="fill:#870511;fill-rule:evenodd;fill-opacity:1"
     inkscape:connector-curvature="0"
     id="path8"
     d="m 471.9456,253.05189 c 0,120.89699 -98.00565,218.90724 -218.90724,218.90724 -120.89698,0 -218.90723,-98.00566 -218.90723,-218.90724 0,-120.89698 98.00565,-218.907232 218.90723,-218.907232 120.89699,0 218.90724,98.005652 218.90724,218.907232" />
  <path
     style="fill-opacity:0.06700003;fill-rule:evenodd"
     inkscape:connector-curvature="0"
     id="path10"
     d="M 256,1 C 115.17,1 1,115.17 1,256 1,396.83 115.17,511 256,511 396.83,511 511,396.83 511,256 511,115.17 396.83,1 256,1 m 8.827,44.931 c 120.9,0 218.9,98 218.9,218.9 0,120.9 -98,218.9 -218.9,218.9 -120.9,0 -218.93,-98 -218.93,-218.9 0,-120.9 98.03,-218.9 218.93,-218.9" />
  <path
     d="M 256,4.43 C 117.06,4.43 4.43,117.06 4.43,256 4.43,394.94 117.06,507.57 256,507.57 394.94,507.57 507.57,394.94 507.57,256 507.57,117.06 394.94,4.43 256,4.43 m 5.885,38.556 c 120.9,0 218.9,98 218.9,218.9 0,120.9 -98,218.9 -218.9,218.9 -120.9,0 -218.93,-98 -218.93,-218.9 0,-120.9 98.03,-218.9 218.93,-218.9"
     id="path14"
     inkscape:connector-curvature="0"
     style="fill-opacity:0.12900002;fill-rule:evenodd" />
  <path
     d="M 256,8.36 C 119.23,8.36 8.36,119.23 8.36,256 8.36,392.77 119.23,503.64 256,503.64 392.77,503.64 503.64,392.77 503.64,256 503.64,119.23 392.77,8.36 256,8.36 m 2.942,31.691 c 120.9,0 218.9,98 218.9,218.9 0,120.9 -98,218.9 -218.9,218.9 -120.9,0 -218.93,-98 -218.93,-218.9 0,-120.9 98.03,-218.9 218.93,-218.9"
     id="path16"
     inkscape:connector-curvature="0"
     style="fill-opacity:0.12900002;fill-rule:evenodd" />
  <path
     style="fill:#ffffff;fill-rule:evenodd;stroke:#000000;stroke-width:4.90399981;stroke-opacity:0.31000001"
     inkscape:connector-curvature="0"
     id="path18"
     d="M 253.04,7.86 C 117.62,7.86 7.85,117.64 7.85,253.05 c 0,135.42 109.78,245.19 245.19,245.19 135.42,0 245.19,-109.78 245.19,-245.19 C 498.23,117.63 388.45,7.86 253.04,7.86 z m 0,26.297 c 120.9,0 218.9,98 218.9,218.9 0,120.9 -98,218.9 -218.9,218.9 -120.9,0 -218.93,-98 -218.93,-218.9 0,-120.9 98.03,-218.9 218.93,-218.9 z" />
  <text
     font-size="129.23"
     letter-spacing="0"
     line-height="125%"
     word-spacing="0"
     x="729.64001"
     y="231.35997"
     id="text20"
     sodipodi:linespacing="125%"
     style="font-size:129.22999573px;line-height:125%;letter-spacing:0;word-spacing:0;font-family:Gentium Book Basic">
    <tspan
       x="729.64001"
       y="231.35997"
       id="tspan22" />
  </text>
  <text
     x="378.90805"
     y="579.25812"
     font-size="46.954"
     transform="scale(4.0128205,0.24920128)"
     id="text24"
     style="font-size:46.95375824px;text-anchor:middle;font-family:Arial" />
  <text
     font-size="129.23"
     letter-spacing="0"
     line-height="125%"
     word-spacing="0"
     x="1310.91"
     y="151.35997"
     id="text26"
     sodipodi:linespacing="125%"
     style="font-size:129.22999573px;line-height:125%;letter-spacing:0;word-spacing:0;font-family:Gentium Book Basic">
    <tspan
       x="1310.91"
       y="151.35997"
       id="tspan28" />
  </text>
  <text
     x="523.75732"
     y="258.21997"
     font-size="46.954"
     transform="scale(4.0128205,0.24920128)"
     id="text30"
     style="font-size:46.95375824px;text-anchor:middle;font-family:Arial" />
  <text
     font-size="129.23"
     letter-spacing="0"
     line-height="125%"
     word-spacing="0"
     x="239.33"
     y="-29.900009"
     id="text32"
     sodipodi:linespacing="125%"
     style="font-size:129.22999573px;line-height:125%;letter-spacing:0;word-spacing:0;font-family:Gentium Book Basic">
    <tspan
       x="239.33"
       y="-29.900009"
       id="tspan34" />
  </text>
  <text
     x="256.71869"
     y="-469.1264"
     font-size="46.954"
     transform="scale(4.0128205,0.24920128)"
     id="text36"
     style="font-size:46.95375824px;text-anchor:middle;font-family:Arial" />
  <text
     font-size="129.23"
     letter-spacing="0"
     line-height="125%"
     word-spacing="0"
     x="1337.38"
     y="-246.37001"
     id="text38"
     sodipodi:linespacing="125%"
     style="font-size:129.22999573px;line-height:125%;letter-spacing:0;word-spacing:0;font-family:Gentium Book Basic">
    <tspan
       x="1337.38"
       y="-246.37001"
       id="tspan40" />
  </text>
  <text
     x="530.3573"
     y="-1337.802"
     font-size="46.954"
     transform="scale(4.0128205,0.24920128)"
     id="text42"
     style="font-size:46.95375824px;text-anchor:middle;font-family:Arial" />
  <text
     font-size="129.23"
     letter-spacing="0"
     line-height="125%"
     word-spacing="0"
     x="1918.65"
     y="-326.37"
     id="text44"
     sodipodi:linespacing="125%"
     style="font-size:129.22999573px;line-height:125%;letter-spacing:0;word-spacing:0;font-family:Gentium Book Basic">
    <tspan
       x="1918.65"
       y="-326.37"
       id="tspan46" />
  </text>
  <text
     x="675.20654"
     y="-1658.8303"
     font-size="46.954"
     transform="scale(4.0128205,0.24920128)"
     id="text48"
     style="font-size:46.95375824px;text-anchor:middle;font-family:Arial" />
  <text
     font-size="129.23"
     letter-spacing="0"
     line-height="125%"
     word-spacing="0"
     x="1529.53"
     y="-798.77002"
     id="text50"
     sodipodi:linespacing="125%"
     style="font-size:129.22999573px;line-height:125%;letter-spacing:0;word-spacing:0;font-family:Gentium Book Basic">
    <tspan
       x="1529.53"
       y="-798.77002"
       id="tspan52" />
  </text>
  <text
     x="578.237"
     y="-3554.4807"
     font-size="46.954"
     transform="scale(4.0128205,0.24920128)"
     id="text54"
     style="font-size:46.95375824px;text-anchor:middle;font-family:Arial" />
  <text
     font-size="129.23"
     letter-spacing="0"
     line-height="125%"
     word-spacing="0"
     x="2110.79"
     y="-878.78003"
     id="text56"
     sodipodi:linespacing="125%"
     style="font-size:129.22999573px;line-height:125%;letter-spacing:0;word-spacing:0;font-family:Gentium Book Basic">
    <tspan
       x="2110.79"
       y="-878.78003"
       id="tspan58" />
  </text>
  <text
     x="723.0863"
     y="-3875.519"
     font-size="46.954"
     transform="scale(4.0128205,0.24920128)"
     id="text60"
     style="font-size:46.95375824px;text-anchor:middle;font-family:Arial" />
  <text
     font-size="208.33"
     letter-spacing="0"
     line-height="125%"
     word-spacing="0"
     x="277.98999"
     y="535.94006"
     id="text62"
     sodipodi:linespacing="125%"
     style="font-size:208.33000183px;line-height:125%;letter-spacing:0;word-spacing:0;font-family:Gentium Book Basic">
    <tspan
       x="277.98999"
       y="535.94006"
       id="tspan64" />
  </text>
  <g
     style="font-size:68.29161834999997893px;font-style:normal;font-variant:normal;font-weight:normal;font-stretch:normal;text-indent:0;text-align:start;text-decoration:none;line-height:125%;letter-spacing:0px;word-spacing:0px;text-transform:none;direction:ltr;block-progression:tb;writing-mode:lr-tb;text-anchor:start;baseline-shift:baseline;color:#000000;fill:#000000;fill-opacity:1;fill-rule:nonzero;stroke:none;stroke-width:2.60905146999999982;marker:none;visibility:visible;display:inline;overflow:visible;enable-background:accumulate;font-family:Sans;-inkscape-font-specification:Sans;opacity:0.25"
     id="g3916"
     clip-path="url(#clipPath4828)">
    <path
       inkscape:connector-curvature="0"
       d="m 131.96875,155.25 0,72 388.90873,388.90873 0,-72 z"
       id="path3918"
       style="fill:#000000" />
    <path
       inkscape:connector-curvature="0"
       d="m 131.96875,227.25 73.78125,0 388.90873,388.90873 -73.78125,0 z"
       id="path3920"
       style="fill:#000000" />
    <path
       inkscape:connector-curvature="0"
       d="m 205.75,227.25 0,-72 388.90873,388.90873 0,72 z"
       id="path3922"
       style="fill:#000000" />
    <path
       inkscape:connector-curvature="0"
       d="m 205.75,155.25 -73.78125,0 388.90873,388.90873 73.78125,0 z"
       id="path3924"
       style="fill:#000000" />
    <path
       inkscape:connector-curvature="0"
       d="m 216.6875,155.25 0,72 388.90873,388.90873 0,-72 z"
       id="path3926"
       style="fill:#000000" />
    <path
       inkscape:connector-curvature="0"
       d="m 216.6875,227.25 73.75,0 388.90873,388.90873 -73.75,0 z"
       id="path3928"
       style="fill:#000000" />
    <path
       inkscape:connector-curvature="0"
       d="m 290.4375,227.25 0,-72 388.90873,388.90873 0,72 z"
       id="path3930"
       style="fill:#000000" />
    <path
       inkscape:connector-curvature="0"
       d="m 290.4375,155.25 -73.75,0 388.90873,388.90873 73.75,0 z"
       id="path3932"
       style="fill:#000000" />
    <path
       inkscape:connector-curvature="0"
       d="m 301.03125,155.25 0,72 388.90873,388.90873 0,-72 z"
       id="path3934"
       style="fill:#000000" />
    <path
       inkscape:connector-curvature="0"
       d="m 301.03125,227.25 73.75,0 388.90873,388.90873 -73.75,0 z"
       id="path3936"
       style="fill:#000000" />
    <path
       inkscape:connector-curvature="0"
       d="m 374.78125,227.25 0,-72 388.90873,388.90873 0,72 z"
       id="path3938"
       style="fill:#000000" />
    <path
       inkscape:connector-curvature="0"
       d="m 374.78125,155.25 -73.75,0 388.90873,388.90873 73.75,0 z"
       id="path3940"
       style="fill:#000000" />
    <path
       inkscape:connector-curvature="0"
       d="m 340.875,165.59375 c 8.30707,0 14.65573,2.48205 19.47691,7.30323 l 388.90873,388.90873 c -4.82118,-4.82118 -11.16984,-7.30323 -19.47691,-7.30323 z"
       id="path3942"
       style="fill:#000000" />
    <path
       inkscape:connector-curvature="0"
       d="m 360.35191,172.89698 c 0.18707,0.18707 0.37184,0.37766 0.55434,0.57177 l 388.90873,388.90873 c -0.1825,-0.19411 -0.36727,-0.3847 -0.55434,-0.57177 z"
       id="path3944"
       style="fill:#000000" />
    <path
       inkscape:connector-curvature="0"
       d="m 360.90625,173.46875 -5.625,5.34375 388.90873,388.90873 5.625,-5.34375 z"
       id="path3946"
       style="fill:#000000" />
    <path
       inkscape:connector-curvature="0"
       d="m 355.28125,178.8125 c -0.43261,-0.53535 -0.8838,-1.0399 -1.35644,-1.51254 l 388.90873,388.90873 c 0.47264,0.47264 0.92383,0.97719 1.35644,1.51254 z"
       id="path3948"
       style="fill:#000000" />
    <path
       inkscape:connector-curvature="0"
       d="m 353.92481,177.29996 c -3.13214,-3.13214 -7.20579,-4.86246 -13.04981,-4.86246 l 388.90873,388.90873 c 5.84401,0 9.91767,1.73032 13.04981,4.86246 z"
       id="path3950"
       style="fill:#000000" />
    <path
       inkscape:connector-curvature="0"
       d="m 340.875,172.4375 c -12.8172,0 -18.15625,8.45305 -18.15625,19.09375 l 388.90873,388.90873 c 0,-10.6407 5.33905,-19.09375 18.15625,-19.09375 z"
       id="path3952"
       style="fill:#000000" />
    <path
       inkscape:connector-curvature="0"
       d="m 322.71875,191.53125 c 0,5.57209 1.47092,10.49596 4.84004,13.86508 l 388.90873,388.90873 c -3.36912,-3.36912 -4.84004,-8.29299 -4.84004,-13.86508 z"
       id="path3954"
       style="fill:#000000" />
    <path
       inkscape:connector-curvature="0"
       d="m 327.55879,205.39633 c 2.91505,2.91505 7.25112,4.66617 13.28496,4.66617 l 388.90873,388.90873 c -6.03384,0 -10.36991,-1.75112 -13.28496,-4.66617 z"
       id="path3956"
       style="fill:#000000" />
    <path
       inkscape:connector-curvature="0"
       d="m 340.84375,210.0625 c 6.72585,0 11.10582,-2.23008 14.46875,-6.375 l 388.90873,388.90873 c -3.36293,4.14492 -7.7429,6.375 -14.46875,6.375 z"
       id="path3958"
       style="fill:#000000" />
    <path
       inkscape:connector-curvature="0"
       d="m 355.3125,203.6875 5.53125,5.28125 388.90873,388.90873 -5.53125,-5.28125 z"
       id="path3960"
       style="fill:#000000" />
    <path
       inkscape:connector-curvature="0"
       d="m 360.84375,208.96875 c -4.88575,5.25847 -11.43405,7.9375 -20,7.9375 l 388.90873,388.90873 c 8.56595,0 15.11425,-2.67903 20,-7.9375 z"
       id="path3962"
       style="fill:#000000" />
    <path
       inkscape:connector-curvature="0"
       d="m 340.84375,216.90625 c -8.45316,0 -14.88681,-2.50279 -19.23587,-6.85185 l 388.90873,388.90873 c 4.34906,4.34906 10.78271,6.85185 19.23587,6.85185 z"
       id="path3964"
       style="fill:#000000" />
    <path
       inkscape:connector-curvature="0"
       d="m 321.60788,210.0544 c -4.4651,-4.46511 -6.73288,-10.87632 -6.73288,-18.52315 l 388.90873,388.90873 c 0,7.64683 2.26777,14.05804 6.73288,18.52315 z"
       id="path3966"
       style="fill:#000000" />
    <path
       inkscape:connector-curvature="0"
       d="m 314.875,191.53125 c 0,-15.1568 9.18535,-25.9375 26,-25.9375 l 388.90873,388.90873 c -16.81465,0 -26,10.7807 -26,25.9375 z"
       id="path3968"
       style="fill:#000000" />
    <path
       inkscape:connector-curvature="0"
       d="m 151.1875,166.21875 20.0625,0 388.90873,388.90873 -20.0625,0 z"
       id="path3970"
       style="fill:#000000" />
    <path
       inkscape:connector-curvature="0"
       d="m 171.25,166.21875 c 4.21632,0 7.41859,1.38721 9.64058,3.60921 l 388.90873,388.90873 c -2.222,-2.222 -5.42426,-3.60921 -9.64058,-3.60921 z"
       id="path3972"
       style="fill:#000000" />
    <path
       inkscape:connector-curvature="0"
       d="m 180.89058,169.82796 c 2.56953,2.56953 3.82817,6.25539 3.82817,10.20329 l 388.90873,388.90873 c 0,-3.9479 -1.25864,-7.63376 -3.82817,-10.20329 z"
       id="path3974"
       style="fill:#000000" />
    <path
       inkscape:connector-curvature="0"
       d="m 184.71875,180.03125 c 0,4.39237 -1.35456,7.55539 -4.4375,9.90625 l 388.90873,388.90873 c 3.08294,-2.35086 4.4375,-5.51388 4.4375,-9.90625 z"
       id="path3976"
       style="fill:#000000" />
    <path
       inkscape:connector-curvature="0"
       d="m 180.28125,189.9375 0,0.15625 388.90873,388.90873 0,-0.15625 z"
       id="path3978"
       style="fill:#000000" />
    <path
       inkscape:connector-curvature="0"
       d="m 180.28125,190.09375 c 1.07811,0.47456 2.02535,1.13058 2.83553,1.94076 l 388.90873,388.90873 c -0.81018,-0.81018 -1.75742,-1.4662 -2.83553,-1.94076 z"
       id="path3980"
       style="fill:#000000" />
    <path
       inkscape:connector-curvature="0"
       d="m 183.11678,192.03451 c 2.25269,2.25269 3.44572,5.6972 3.44572,9.74674 l 388.90873,388.90873 c 0,-4.04954 -1.19303,-7.49405 -3.44572,-9.74674 z"
       id="path3982"
       style="fill:#000000" />
    <path
       inkscape:connector-curvature="0"
       d="m 186.5625,201.78125 c 0,8.97036 -5.29161,14.5625 -14.90625,14.5625 l 388.90873,388.90873 c 9.61464,0 14.90625,-5.59214 14.90625,-14.5625 z"
       id="path3984"
       style="fill:#000000" />
    <path
       inkscape:connector-curvature="0"
       d="m 171.65625,216.34375 -20.46875,0 388.90873,388.90873 20.46875,0 z"
       id="path3986"
       style="fill:#000000" />
    <path
       inkscape:connector-curvature="0"
       d="m 151.1875,216.34375 0,-50.125 388.90873,388.90873 0,50.125 z"
       id="path3988"
       style="fill:#000000" />
    <path
       inkscape:connector-curvature="0"
       d="m 235.90625,166.21875 20.03125,0 388.90873,388.90873 -20.03125,0 z"
       id="path3990"
       style="fill:#000000" />
    <path
       inkscape:connector-curvature="0"
       d="m 255.9375,166.21875 c 4.2247,0 7.43806,1.39273 9.66779,3.62246 l 388.90873,388.90873 c -2.22973,-2.22973 -5.44309,-3.62246 -9.66779,-3.62246 z"
       id="path3992"
       style="fill:#000000" />
    <path
       inkscape:connector-curvature="0"
       d="m 265.60529,169.84121 c 2.56894,2.56894 3.83221,6.24892 3.83221,10.19004 l 388.90873,388.90873 c 0,-3.94112 -1.26327,-7.6211 -3.83221,-10.19004 z"
       id="path3994"
       style="fill:#000000" />
    <path
       inkscape:connector-curvature="0"
       d="m 269.4375,180.03125 c 0,4.39237 -1.35455,7.55539 -4.4375,9.90625 l 388.90873,388.90873 c 3.08295,-2.35086 4.4375,-5.51388 4.4375,-9.90625 z"
       id="path3996"
       style="fill:#000000" />
    <path
       inkscape:connector-curvature="0"
       d="m 265,189.9375 0,0.15625 388.90873,388.90873 0,-0.15625 z"
       id="path3998"
       style="fill:#000000" />
    <path
       inkscape:connector-curvature="0"
       d="m 265,190.09375 c 1.07811,0.47456 2.02535,1.13058 2.83553,1.94076 l 388.90873,388.90873 c -0.81018,-0.81018 -1.75742,-1.4662 -2.83553,-1.94076 z"
       id="path4000"
       style="fill:#000000" />
    <path
       inkscape:connector-curvature="0"
       d="m 267.83553,192.03451 c 2.25269,2.25269 3.44572,5.6972 3.44572,9.74674 l 388.90873,388.90873 c 0,-4.04954 -1.19303,-7.49405 -3.44572,-9.74674 z"
       id="path4002"
       style="fill:#000000" />
    <path
       inkscape:connector-curvature="0"
       d="m 271.28125,201.78125 c 0,8.97036 -5.2916,14.5625 -14.90625,14.5625 l 388.90873,388.90873 c 9.61465,0 14.90625,-5.59214 14.90625,-14.5625 z"
       id="path4004"
       style="fill:#000000" />
    <path
       inkscape:connector-curvature="0"
       d="m 256.375,216.34375 -20.46875,0 388.90873,388.90873 20.46875,0 z"
       id="path4006"
       style="fill:#000000" />
    <path
       inkscape:connector-curvature="0"
       d="m 235.90625,216.34375 0,-50.125 388.90873,388.90873 0,50.125 z"
       id="path4008"
       style="fill:#000000" />
    <path
       inkscape:connector-curvature="0"
       d="m 156.8125,173.0625 0.625,0.75 388.90873,388.90873 -0.625,-0.75 z"
       id="path4010"
       style="fill:#000000" />
    <path
       inkscape:connector-curvature="0"
       d="m 157.4375,173.8125 0,12.5625 388.90873,388.90873 0,-12.5625 z"
       id="path4012"
       style="fill:#000000" />
    <path
       inkscape:connector-curvature="0"
       d="m 157.4375,186.375 -0.625,0.71875 388.90873,388.90873 0.625,-0.71875 z"
       id="path4014"
       style="fill:#000000" />
    <path
       inkscape:connector-curvature="0"
       d="m 156.8125,187.09375 13.90625,0 388.90873,388.90873 -13.90625,0 z"
       id="path4016"
       style="fill:#000000" />
    <path
       inkscape:connector-curvature="0"
       d="m 170.71875,187.09375 c 5.69561,0 7.5625,-3.16569 7.5625,-7.125 l 388.90873,388.90873 c 0,3.95931 -1.86689,7.125 -7.5625,7.125 z"
       id="path4018"
       style="fill:#000000" />
    <path
       inkscape:connector-curvature="0"
       d="m 178.28125,179.96875 c 0,-2.20472 -0.55417,-3.88765 -1.70656,-5.04004 l 388.90873,388.90873 c 1.15239,1.15239 1.70656,2.83532 1.70656,5.04004 z"
       id="path4020"
       style="fill:#000000" />
    <path
       inkscape:connector-curvature="0"
       d="m 176.57469,174.92871 c -1.24049,-1.24049 -3.17416,-1.86621 -5.85594,-1.86621 l 388.90873,388.90873 c 2.68178,0 4.61545,0.62572 5.85594,1.86621 z"
       id="path4022"
       style="fill:#000000" />
    <path
       inkscape:connector-curvature="0"
       d="m 170.71875,173.0625 -13.90625,0 388.90873,388.90873 13.90625,0 z"
       id="path4024"
       style="fill:#000000" />
    <path
       inkscape:connector-curvature="0"
       d="m 241.53125,173.0625 0.65625,0.75 388.90873,388.90873 -0.65625,-0.75 z"
       id="path4026"
       style="fill:#000000" />
    <path
       inkscape:connector-curvature="0"
       d="m 242.1875,173.8125 0,12.5625 388.90873,388.90873 0,-12.5625 z"
       id="path4028"
       style="fill:#000000" />
    <path
       inkscape:connector-curvature="0"
       d="m 242.1875,186.375 -0.65625,0.71875 388.90873,388.90873 0.65625,-0.71875 z"
       id="path4030"
       style="fill:#000000" />
    <path
       inkscape:connector-curvature="0"
       d="m 241.53125,187.09375 13.875,0 388.90873,388.90873 -13.875,0 z"
       id="path4032"
       style="fill:#000000" />
    <path
       inkscape:connector-curvature="0"
       d="m 255.40625,187.09375 c 5.69563,0 7.59375,-3.16569 7.59375,-7.125 l 388.90873,388.90873 c 0,3.95931 -1.89812,7.125 -7.59375,7.125 z"
       id="path4034"
       style="fill:#000000" />
    <path
       inkscape:connector-curvature="0"
       d="m 263,179.96875 c 0,-2.19738 -0.55769,-3.87645 -1.70976,-5.02852 l 388.90873,388.90873 c 1.15207,1.15207 1.70976,2.83114 1.70976,5.02852 z"
       id="path4036"
       style="fill:#000000" />
    <path
       inkscape:connector-curvature="0"
       d="m 261.29024,174.94023 c -1.24814,-1.24814 -3.19391,-1.87773 -5.88399,-1.87773 l 388.90873,388.90873 c 2.69008,0 4.63585,0.62959 5.88399,1.87773 z"
       id="path4038"
       style="fill:#000000" />
    <path
       inkscape:connector-curvature="0"
       d="m 255.40625,173.0625 -13.875,0 388.90873,388.90873 13.875,0 z"
       id="path4040"
       style="fill:#000000" />
    <path
       inkscape:connector-curvature="0"
       d="m 156.8125,193.96875 0.625,0.71875 388.90873,388.90873 -0.625,-0.71875 z"
       id="path4042"
       style="fill:#000000" />
    <path
       inkscape:connector-curvature="0"
       d="m 157.4375,194.6875 0,14 388.90873,388.90873 0,-14 z"
       id="path4044"
       style="fill:#000000" />
    <path
       inkscape:connector-curvature="0"
       d="m 157.4375,208.6875 -0.625,0.75 388.90873,388.90873 0.625,-0.75 z"
       id="path4046"
       style="fill:#000000" />
    <path
       inkscape:connector-curvature="0"
       d="m 156.8125,209.4375 14.84375,0 388.90873,388.90873 -14.84375,0 z"
       id="path4048"
       style="fill:#000000" />
    <path
       inkscape:connector-curvature="0"
       d="m 171.65625,209.4375 c 6.27041,0 8.46875,-2.76897 8.46875,-7.65625 l 388.90873,388.90873 c 0,4.88728 -2.19834,7.65625 -8.46875,7.65625 z"
       id="path4050"
       style="fill:#000000" />
    <path
       inkscape:connector-curvature="0"
       d="m 180.125,201.78125 c 0,-2.37438 -0.61109,-4.32276 -1.96824,-5.67991 l 388.90873,388.90873 c 1.35715,1.35715 1.96824,3.30553 1.96824,5.67991 z"
       id="path4052"
       style="fill:#000000" />
    <path
       inkscape:connector-curvature="0"
       d="m 178.15676,196.10134 c -1.36561,-1.36561 -3.48661,-2.13259 -6.50051,-2.13259 l 388.90873,388.90873 c 3.0139,0 5.1349,0.76698 6.50051,2.13259 z"
       id="path4054"
       style="fill:#000000" />
    <path
       inkscape:connector-curvature="0"
       d="m 171.65625,193.96875 -14.84375,0 388.90873,388.90873 14.84375,0 z"
       id="path4056"
       style="fill:#000000" />
    <path
       inkscape:connector-curvature="0"
       d="m 241.53125,193.96875 0.65625,0.71875 388.90873,388.90873 -0.65625,-0.71875 z"
       id="path4058"
       style="fill:#000000" />
    <path
       inkscape:connector-curvature="0"
       d="m 242.1875,194.6875 0,14 388.90873,388.90873 0,-14 z"
       id="path4060"
       style="fill:#000000" />
    <path
       inkscape:connector-curvature="0"
       d="m 242.1875,208.6875 -0.65625,0.75 388.90873,388.90873 0.65625,-0.75 z"
       id="path4062"
       style="fill:#000000" />
    <path
       inkscape:connector-curvature="0"
       d="m 241.53125,209.4375 14.84375,0 388.90873,388.90873 -14.84375,0 z"
       id="path4064"
       style="fill:#000000" />
    <path
       inkscape:connector-curvature="0"
       d="m 256.375,209.4375 c 6.27042,0 8.46875,-2.76897 8.46875,-7.65625 l 388.90873,388.90873 c 0,4.88728 -2.19833,7.65625 -8.46875,7.65625 z"
       id="path4066"
       style="fill:#000000" />
    <path
       inkscape:connector-curvature="0"
       d="m 264.84375,201.78125 c 0,-2.37438 -0.61109,-4.32277 -1.96823,-5.67991 l 388.90873,388.90873 c 1.35714,1.35714 1.96823,3.30553 1.96823,5.67991 z"
       id="path4068"
       style="fill:#000000" />
    <path
       inkscape:connector-curvature="0"
       d="m 262.87552,196.10134 c -1.36561,-1.36561 -3.48661,-2.13259 -6.50052,-2.13259 l 388.90873,388.90873 c 3.01391,0 5.13491,0.76698 6.50052,2.13259 z"
       id="path4070"
       style="fill:#000000" />
    <path
       inkscape:connector-curvature="0"
       d="m 256.375,193.96875 -14.84375,0 388.90873,388.90873 14.84375,0 z"
       id="path4072"
       style="fill:#000000" />
    <path
       inkscape:connector-curvature="0"
       d="m 397.1875,262.84375 c -8.88689,8e-5 -16.23932,2.10748 -21.84375,6.40625 l 388.90873,388.90873 c 5.60443,-4.29877 12.95686,-6.40617 21.84375,-6.40625 z"
       id="path4074"
       style="fill:#000000" />
    <path
       inkscape:connector-curvature="0"
       d="m 375.34375,269.25 c -5.5737,4.30877 -8.43751,10.30428 -8.4375,17.5625 l 388.90873,388.90873 c -10e-6,-7.25822 2.8638,-13.25373 8.4375,-17.5625 z"
       id="path4076"
       style="fill:#000000" />
    <path
       inkscape:connector-curvature="0"
       d="m 366.90625,286.8125 c -10e-6,6.68292 1.89775,12.31053 5.71875,16.65625 l 388.90873,388.90873 c -3.821,-4.34572 -5.71876,-9.97333 -5.71875,-16.65625 z"
       id="path4078"
       style="fill:#000000" />
    <path
       inkscape:connector-curvature="0"
       d="m 372.625,303.46875 c 0.29977,0.33757 0.61409,0.67074 0.94293,0.99958 l 388.90873,388.90873 c -0.32884,-0.32884 -0.64316,-0.66201 -0.94293,-0.99958 z"
       id="path4080"
       style="fill:#000000" />
    <path
       inkscape:connector-curvature="0"
       d="m 373.56793,304.46833 c 3.8673,3.8673 9.74309,7.13622 17.58832,9.93792 l 388.90873,388.90873 c -7.84523,-2.8017 -13.72102,-6.07062 -17.58832,-9.93792 z"
       id="path4082"
       style="fill:#000000" />
    <path
       inkscape:connector-curvature="0"
       d="m 391.15625,314.40625 c 5.87324,2.09242 10.23205,3.94301 13,5.53125 l 388.90873,388.90873 c -2.76795,-1.58824 -7.12676,-3.43883 -13,-5.53125 z"
       id="path4084"
       style="fill:#000000" />
    <path
       inkscape:connector-curvature="0"
       d="m 404.15625,319.9375 0,0.0312 388.90873,388.90873 0,-0.0312 z"
       id="path4086"
       style="fill:#000000" />
    <path
       inkscape:connector-curvature="0"
       d="m 404.15625,319.96875 c 1.87041,1.0582 3.34369,2.14421 4.43825,3.23877 l 388.90873,388.90873 c -1.09456,-1.09456 -2.56784,-2.18057 -4.43825,-3.23877 z"
       id="path4088"
       style="fill:#000000" />
    <path
       inkscape:connector-curvature="0"
       d="m 408.5945,323.20752 c 0.55447,0.55447 1.01175,1.11113 1.37425,1.66748 l 388.90873,388.90873 c -0.3625,-0.55635 -0.81978,-1.11301 -1.37425,-1.66748 z"
       id="path4090"
       style="fill:#000000" />
    <path
       inkscape:connector-curvature="0"
       d="m 409.96875,324.875 c 1.07162,1.64487 1.6562,3.81944 1.65625,6.59375 l 388.90873,388.90873 c -5e-5,-2.77431 -0.58463,-4.94888 -1.65625,-6.59375 z"
       id="path4092"
       style="fill:#000000" />
    <path
       inkscape:connector-curvature="0"
       d="m 411.625,331.46875 c -5e-5,4.12047 -1.48535,7.10276 -4.625,9.4375 l 388.90873,388.90873 c 3.13965,-2.33474 4.62495,-5.31703 4.625,-9.4375 z"
       id="path4094"
       style="fill:#000000" />
    <path
       inkscape:connector-curvature="0"
       d="m 407,340.90625 c -3.10136,2.30622 -7.91472,3.59375 -14.53125,3.59375 l 388.90873,388.90873 c 6.61653,0 11.42989,-1.28753 14.53125,-3.59375 z"
       id="path4096"
       style="fill:#000000" />
    <path
       inkscape:connector-curvature="0"
       d="m 392.46875,344.5 c -3.86687,0 -8.07658,-0.458 -12.59375,-1.375 l 388.90873,388.90873 c 4.51717,0.917 8.72688,1.375 12.59375,1.375 z"
       id="path4098"
       style="fill:#000000" />
    <path
       inkscape:connector-curvature="0"
       d="m 379.875,343.125 c -4.47287,-0.91623 -8.58604,-2.16659 -12.34375,-3.75 l 388.90873,388.90873 c 3.75771,1.58341 7.87088,2.83377 12.34375,3.75 z"
       id="path4100"
       style="fill:#000000" />
    <path
       inkscape:connector-curvature="0"
       d="m 367.53125,339.375 -1.8125,-0.78125 388.90873,388.90873 1.8125,0.78125 z"
       id="path4102"
       style="fill:#000000" />
    <path
       inkscape:connector-curvature="0"
       d="m 365.71875,338.59375 0,1.96875 388.90873,388.90873 0,-1.96875 z"
       id="path4104"
       style="fill:#000000" />
    <path
       inkscape:connector-curvature="0"
       d="m 365.71875,340.5625 0,10.6875 388.90873,388.90873 0,-10.6875 z"
       id="path4106"
       style="fill:#000000" />
    <path
       inkscape:connector-curvature="0"
       d="m 365.71875,351.25 0,0.84375 388.90873,388.90873 0,-0.84375 z"
       id="path4108"
       style="fill:#000000" />
    <path
       inkscape:connector-curvature="0"
       d="m 365.71875,352.09375 0.75,0.34375 388.90873,388.90873 -0.75,-0.34375 z"
       id="path4110"
       style="fill:#000000" />
    <path
       inkscape:connector-curvature="0"
       d="m 366.46875,352.4375 c 6.14965,2.92753 14.63781,4.3125 25.5,4.3125 l 388.90873,388.90873 c -10.86219,0 -19.35035,-1.38497 -25.5,-4.3125 z"
       id="path4112"
       style="fill:#000000" />
    <path
       inkscape:connector-curvature="0"
       d="m 391.96875,356.75 c 10.36075,0 18.62329,-2.25071 24.625,-6.9375 l 388.90873,388.90873 c -6.00171,4.68679 -14.26425,6.9375 -24.625,6.9375 z"
       id="path4114"
       style="fill:#000000" />
    <path
       inkscape:connector-curvature="0"
       d="m 416.59375,349.8125 c 5.9939,-4.68076 9.06243,-11.25571 9.0625,-19.3125 l 388.90873,388.90873 c -7e-5,8.05679 -3.0686,14.63174 -9.0625,19.3125 z"
       id="path4116"
       style="fill:#000000" />
    <path
       inkscape:connector-curvature="0"
       d="m 425.65625,330.5 c -7e-5,-4.29664 -0.84218,-8.07091 -2.53125,-11.25 l 388.90873,388.90873 c 1.68907,3.17909 2.53118,6.95336 2.53125,11.25 z"
       id="path4118"
       style="fill:#000000" />
    <path
       inkscape:connector-curvature="0"
       d="m 423.125,319.25 c -0.98153,-1.87247 -2.27045,-3.6049 -3.85849,-5.19294 l 388.90873,388.90873 c 1.58804,1.58804 2.87696,3.32047 3.85849,5.19294 z"
       id="path4120"
       style="fill:#000000" />
    <path
       inkscape:connector-curvature="0"
       d="m 419.26651,314.05706 c -1.13497,-1.13497 -2.42273,-2.19619 -3.86026,-3.18206 l 388.90873,388.90873 c 1.43753,0.98587 2.72529,2.04709 3.86026,3.18206 z"
       id="path4122"
       style="fill:#000000" />
    <path
       inkscape:connector-curvature="0"
       d="m 415.40625,310.875 c -3.47229,-2.42369 -8.57625,-4.79814 -15.375,-7.25 l 388.90873,388.90873 c 6.79875,2.45186 11.90271,4.82631 15.375,7.25 z"
       id="path4124"
       style="fill:#000000" />
    <path
       inkscape:connector-curvature="0"
       d="m 400.03125,303.625 c -5.58229,-2.01057 -9.64887,-3.81554 -12.15625,-5.3125 l 388.90873,388.90873 c 2.50738,1.49696 6.57396,3.30193 12.15625,5.3125 z"
       id="path4126"
       style="fill:#000000" />
    <path
       inkscape:connector-curvature="0"
       d="m 387.875,298.3125 c -1.51067,-0.91616 -2.7512,-1.86092 -3.72945,-2.83917 l 388.90873,388.90873 c 0.97825,0.97825 2.21878,1.92301 3.72945,2.83917 z"
       id="path4128"
       style="fill:#000000" />
    <path
       inkscape:connector-curvature="0"
       d="m 384.14555,295.47333 c -0.62294,-0.62294 -1.13953,-1.25946 -1.5518,-1.91083 l 388.90873,388.90873 c 0.41227,0.65136 0.92886,1.28789 1.5518,1.91083 z"
       id="path4130"
       style="fill:#000000" />
    <path
       inkscape:connector-curvature="0"
       d="m 382.59375,293.5625 c -0.005,-0.008 0.005,-0.0235 0,-0.0312 l 388.90873,388.90873 c 0.005,0.008 -0.005,0.0232 0,0.0312 z"
       id="path4132"
       style="fill:#000000" />
    <path
       inkscape:connector-curvature="0"
       d="m 382.59375,293.53125 c -1.00195,-1.69436 -1.53127,-3.8627 -1.53125,-6.59375 l 388.90873,388.90873 c -2e-5,2.73105 0.5293,4.89939 1.53125,6.59375 z"
       id="path4134"
       style="fill:#000000" />
    <path
       inkscape:connector-curvature="0"
       d="m 381.0625,286.9375 c -2e-5,-3.76991 1.28307,-6.45804 4,-8.5 l 388.90873,388.90873 c -2.71693,2.04196 -4.00002,4.73009 -4,8.5 z"
       id="path4136"
       style="fill:#000000" />
    <path
       inkscape:connector-curvature="0"
       d="m 385.0625,278.4375 c 2.76577,-2.05045 6.68392,-3.15617 11.875,-3.15625 l 388.90873,388.90873 c -5.19108,8e-5 -9.10923,1.1058 -11.875,3.15625 z"
       id="path4138"
       style="fill:#000000" />
    <path
       inkscape:connector-curvature="0"
       d="m 396.9375,275.28125 c 6.49236,8e-5 13.56736,1.5463 21.21875,4.65625 l 388.90873,388.90873 c -7.65139,-3.10995 -14.72639,-4.65617 -21.21875,-4.65625 z"
       id="path4140"
       style="fill:#000000" />
    <path
       inkscape:connector-curvature="0"
       d="m 418.15625,279.9375 1.21875,0.5 388.90873,388.90873 -1.21875,-0.5 z"
       id="path4142"
       style="fill:#000000" />
    <path
       inkscape:connector-curvature="0"
       d="m 419.375,280.4375 0.46875,-1.25 388.90873,388.90873 -0.46875,1.25 z"
       id="path4144"
       style="fill:#000000" />
    <path
       inkscape:connector-curvature="0"
       d="m 419.84375,279.1875 3.5625,-9.625 388.90873,388.90873 -3.5625,9.625 z"
       id="path4146"
       style="fill:#000000" />
    <path
       inkscape:connector-curvature="0"
       d="m 423.40625,269.5625 0.40625,-1.15625 388.90873,388.90873 -0.40625,1.15625 z"
       id="path4148"
       style="fill:#000000" />
    <path
       inkscape:connector-curvature="0"
       d="m 423.8125,268.40625 -1.125,-0.46875 388.90873,388.90873 1.125,0.46875 z"
       id="path4150"
       style="fill:#000000" />
    <path
       inkscape:connector-curvature="0"
       d="m 422.6875,267.9375 c -7.78104,-3.3971 -16.28648,-5.09367 -25.5,-5.09375 l 388.90873,388.90873 c 9.21352,8e-5 17.71896,1.69665 25.5,5.09375 z"
       id="path4152"
       style="fill:#000000" />
    <path
       inkscape:connector-curvature="0"
       d="m 86.34375,264.125 0,1.28125 388.90873,388.90873 0,-1.28125 z"
       id="path4154"
       style="fill:#000000" />
    <path
       inkscape:connector-curvature="0"
       d="m 86.34375,265.40625 0,88.84375 388.90873,388.90873 0,-88.84375 z"
       id="path4156"
       style="fill:#000000" />
    <path
       inkscape:connector-curvature="0"
       d="m 86.34375,354.25 0,1.28125 388.90873,388.90873 0,-1.28125 z"
       id="path4158"
       style="fill:#000000" />
    <path
       inkscape:connector-curvature="0"
       d="m 86.34375,355.53125 1.3125,0 388.90873,388.90873 -1.3125,0 z"
       id="path4160"
       style="fill:#000000" />
    <path
       inkscape:connector-curvature="0"
       d="m 87.65625,355.53125 10.5625,0 388.90873,388.90873 -10.5625,0 z"
       id="path4162"
       style="fill:#000000" />
    <path
       inkscape:connector-curvature="0"
       d="m 98.21875,355.53125 1.28125,0 388.90873,388.90873 -1.28125,0 z"
       id="path4164"
       style="fill:#000000" />
    <path
       inkscape:connector-curvature="0"
       d="m 99.5,355.53125 0,-1.28125 388.90873,388.90873 0,1.28125 z"
       id="path4166"
       style="fill:#000000" />
    <path
       inkscape:connector-curvature="0"
       d="m 99.5,354.25 0,-49.65625 388.90873,388.90873 0,49.65625 z"
       id="path4168"
       style="fill:#000000" />
    <path
       inkscape:connector-curvature="0"
       d="m 99.5,304.59375 c -1.9e-5,-5.46712 -0.252474,-11.88823 -0.75,-19.28125 l 388.90873,388.90873 c 0.49753,7.39302 0.74998,13.81413 0.75,19.28125 z"
       id="path4170"
       style="fill:#000000" />
    <path
       inkscape:connector-curvature="0"
       d="m 98.75,285.3125 -0.0625,-0.875 388.90873,388.90873 0.0625,0.875 z"
       id="path4172"
       style="fill:#000000" />
    <path
       inkscape:connector-curvature="0"
       d="m 98.6875,284.4375 46.4375,70.53125 388.90873,388.90873 -46.4375,-70.53125 z"
       id="path4174"
       style="fill:#000000" />
    <path
       inkscape:connector-curvature="0"
       d="m 145.125,354.96875 0.375,0.5625 388.90873,388.90873 -0.375,-0.5625 z"
       id="path4176"
       style="fill:#000000" />
    <path
       inkscape:connector-curvature="0"
       d="m 145.5,355.53125 0.71875,0 388.90873,388.90873 -0.71875,0 z"
       id="path4178"
       style="fill:#000000" />
    <path
       inkscape:connector-curvature="0"
       d="m 146.21875,355.53125 13.3125,0 388.90873,388.90873 -13.3125,0 z"
       id="path4180"
       style="fill:#000000" />
    <path
       inkscape:connector-curvature="0"
       d="m 159.53125,355.53125 0,-1.28125 388.90873,388.90873 0,1.28125 z"
       id="path4182"
       style="fill:#000000" />
    <path
       inkscape:connector-curvature="0"
       d="m 159.53125,354.25 1.3125,0 388.90873,388.90873 -1.3125,0 z"
       id="path4184"
       style="fill:#000000" />
    <path
       inkscape:connector-curvature="0"
       d="m 160.84375,354.25 0,-88.84375 388.90873,388.90873 0,88.84375 z"
       id="path4186"
       style="fill:#000000" />
    <path
       inkscape:connector-curvature="0"
       d="m 160.84375,265.40625 0,-1.28125 388.90873,388.90873 0,1.28125 z"
       id="path4188"
       style="fill:#000000" />
    <path
       inkscape:connector-curvature="0"
       d="m 160.84375,264.125 -1.3125,0 388.90873,388.90873 1.3125,0 z"
       id="path4190"
       style="fill:#000000" />
    <path
       inkscape:connector-curvature="0"
       d="m 159.53125,264.125 -10.65625,0 388.90873,388.90873 10.65625,0 z"
       id="path4192"
       style="fill:#000000" />
    <path
       inkscape:connector-curvature="0"
       d="m 148.875,264.125 -1.3125,0 388.90873,388.90873 1.3125,0 z"
       id="path4194"
       style="fill:#000000" />
    <path
       inkscape:connector-curvature="0"
       d="m 147.5625,264.125 0,1.28125 388.90873,388.90873 0,-1.28125 z"
       id="path4196"
       style="fill:#000000" />
    <path
       inkscape:connector-curvature="0"
       d="m 147.5625,265.40625 0,50.125 388.90873,388.90873 0,-50.125 z"
       id="path4198"
       style="fill:#000000" />
    <path
       inkscape:connector-curvature="0"
       d="m 147.5625,315.53125 c -7e-5,2.71362 0.12654,7.06006 0.375,13.0625 l 388.90873,388.90873 c -0.24846,-6.00244 -0.37507,-10.34888 -0.375,-13.0625 z"
       id="path4200"
       style="fill:#000000" />
    <path
       inkscape:connector-curvature="0"
       d="m 147.9375,328.59375 c 0.15303,3.67422 0.22195,4.65111 0.3125,6.4375 l 388.90873,388.90873 c -0.0906,-1.78639 -0.15947,-2.76328 -0.3125,-6.4375 z"
       id="path4202"
       style="fill:#000000" />
    <path
       inkscape:connector-curvature="0"
       d="m 148.25,335.03125 -13.71875,-20.9375 388.90873,388.90873 13.71875,20.9375 z"
       id="path4204"
       style="fill:#000000" />
    <path
       inkscape:connector-curvature="0"
       d="m 134.53125,314.09375 -29.78125,-45.0625 388.90873,388.90873 29.78125,45.0625 z"
       id="path4206"
       style="fill:#000000" />
    <path
       inkscape:connector-curvature="0"
       d="m 104.75,269.03125 0,-0.0312 388.90873,388.90873 0,0.0312 z"
       id="path4208"
       style="fill:#000000" />
    <path
       inkscape:connector-curvature="0"
       d="m 104.75,269 -2.78125,-4.28125 388.90873,388.90873 2.78125,4.28125 z"
       id="path4210"
       style="fill:#000000" />
    <path
       inkscape:connector-curvature="0"
       d="m 101.96875,264.71875 -0.375,-0.59375 388.90873,388.90873 0.375,0.59375 z"
       id="path4212"
       style="fill:#000000" />
    <path
       inkscape:connector-curvature="0"
       d="m 101.59375,264.125 -0.71875,0 388.90873,388.90873 0.71875,0 z"
       id="path4214"
       style="fill:#000000" />
    <path
       inkscape:connector-curvature="0"
       d="m 100.875,264.125 -13.21875,0 388.90873,388.90873 13.21875,0 z"
       id="path4216"
       style="fill:#000000" />
    <path
       inkscape:connector-curvature="0"
       d="m 87.65625,264.125 -1.3125,0 388.90873,388.90873 1.3125,0 z"
       id="path4218"
       style="fill:#000000" />
    <path
       inkscape:connector-curvature="0"
       d="m 182.84375,264.125 0,1.28125 388.90873,388.90873 0,-1.28125 z"
       id="path4220"
       style="fill:#000000" />
    <path
       inkscape:connector-curvature="0"
       d="m 182.84375,265.40625 0,88.84375 388.90873,388.90873 0,-88.84375 z"
       id="path4222"
       style="fill:#000000" />
    <path
       inkscape:connector-curvature="0"
       d="m 182.84375,354.25 0,1.28125 388.90873,388.90873 0,-1.28125 z"
       id="path4224"
       style="fill:#000000" />
    <path
       inkscape:connector-curvature="0"
       d="m 182.84375,355.53125 1.3125,0 388.90873,388.90873 -1.3125,0 z"
       id="path4226"
       style="fill:#000000" />
    <path
       inkscape:connector-curvature="0"
       d="m 184.15625,355.53125 50.65625,0 388.90873,388.90873 -50.65625,0 z"
       id="path4228"
       style="fill:#000000" />
    <path
       inkscape:connector-curvature="0"
       d="m 234.8125,355.53125 0,-1.28125 388.90873,388.90873 0,1.28125 z"
       id="path4230"
       style="fill:#000000" />
    <path
       inkscape:connector-curvature="0"
       d="m 234.8125,354.25 1.3125,0 388.90873,388.90873 -1.3125,0 z"
       id="path4232"
       style="fill:#000000" />
    <path
       inkscape:connector-curvature="0"
       d="m 236.125,354.25 0,-9.84375 388.90873,388.90873 0,9.84375 z"
       id="path4234"
       style="fill:#000000" />
    <path
       inkscape:connector-curvature="0"
       d="m 236.125,344.40625 0,-1.3125 388.90873,388.90873 0,1.3125 z"
       id="path4236"
       style="fill:#000000" />
    <path
       inkscape:connector-curvature="0"
       d="m 236.125,343.09375 -1.3125,0 388.90873,388.90873 1.3125,0 z"
       id="path4238"
       style="fill:#000000" />
    <path
       inkscape:connector-curvature="0"
       d="m 234.8125,343.09375 -37.9375,0 388.90873,388.90873 37.9375,0 z"
       id="path4240"
       style="fill:#000000" />
    <path
       inkscape:connector-curvature="0"
       d="m 196.875,343.09375 0,-29.09375 388.90873,388.90873 0,29.09375 z"
       id="path4242"
       style="fill:#000000" />
    <path
       inkscape:connector-curvature="0"
       d="m 196.875,314 35.65625,0 388.90873,388.90873 -35.65625,0 z"
       id="path4244"
       style="fill:#000000" />
    <path
       inkscape:connector-curvature="0"
       d="m 232.53125,314 1.3125,0 388.90873,388.90873 -1.3125,0 z"
       id="path4246"
       style="fill:#000000" />
    <path
       inkscape:connector-curvature="0"
       d="m 233.84375,314 0,-1.3125 388.90873,388.90873 0,1.3125 z"
       id="path4248"
       style="fill:#000000" />
    <path
       inkscape:connector-curvature="0"
       d="m 233.84375,312.6875 0,-9.71875 388.90873,388.90873 0,9.71875 z"
       id="path4250"
       style="fill:#000000" />
    <path
       inkscape:connector-curvature="0"
       d="m 233.84375,302.96875 0,-1.3125 388.90873,388.90873 0,1.3125 z"
       id="path4252"
       style="fill:#000000" />
    <path
       inkscape:connector-curvature="0"
       d="m 233.84375,301.65625 -1.3125,0 388.90873,388.90873 1.3125,0 z"
       id="path4254"
       style="fill:#000000" />
    <path
       inkscape:connector-curvature="0"
       d="m 232.53125,301.65625 -35.65625,0 388.90873,388.90873 35.65625,0 z"
       id="path4256"
       style="fill:#000000" />
    <path
       inkscape:connector-curvature="0"
       d="m 196.875,301.65625 0,-25.09375 388.90873,388.90873 0,25.09375 z"
       id="path4258"
       style="fill:#000000" />
    <path
       inkscape:connector-curvature="0"
       d="m 196.875,276.5625 37.9375,0 388.90873,388.90873 -37.9375,0 z"
       id="path4260"
       style="fill:#000000" />
    <path
       inkscape:connector-curvature="0"
       d="m 234.8125,276.5625 1.3125,0 388.90873,388.90873 -1.3125,0 z"
       id="path4262"
       style="fill:#000000" />
    <path
       inkscape:connector-curvature="0"
       d="m 236.125,276.5625 0,-1.3125 388.90873,388.90873 0,1.3125 z"
       id="path4264"
       style="fill:#000000" />
    <path
       inkscape:connector-curvature="0"
       d="m 236.125,275.25 0,-9.84375 388.90873,388.90873 0,9.84375 z"
       id="path4266"
       style="fill:#000000" />
    <path
       inkscape:connector-curvature="0"
       d="m 236.125,265.40625 0,-1.28125 388.90873,388.90873 0,1.28125 z"
       id="path4268"
       style="fill:#000000" />
    <path
       inkscape:connector-curvature="0"
       d="m 236.125,264.125 -1.3125,0 388.90873,388.90873 1.3125,0 z"
       id="path4270"
       style="fill:#000000" />
    <path
       inkscape:connector-curvature="0"
       d="m 234.8125,264.125 -50.65625,0 388.90873,388.90873 50.65625,0 z"
       id="path4272"
       style="fill:#000000" />
    <path
       inkscape:connector-curvature="0"
       d="m 184.15625,264.125 -1.3125,0 388.90873,388.90873 1.3125,0 z"
       id="path4274"
       style="fill:#000000" />
    <path
       inkscape:connector-curvature="0"
       d="m 242.34375,264.125 0.46875,1.625 388.90873,388.90873 -0.46875,-1.625 z"
       id="path4276"
       style="fill:#000000" />
    <path
       inkscape:connector-curvature="0"
       d="m 242.8125,265.75 24,88.84375 388.90873,388.90873 -24,-88.84375 z"
       id="path4278"
       style="fill:#000000" />
    <path
       inkscape:connector-curvature="0"
       d="m 266.8125,354.59375 0.25,0.9375 388.90873,388.90873 -0.25,-0.9375 z"
       id="path4280"
       style="fill:#000000" />
    <path
       inkscape:connector-curvature="0"
       d="m 267.0625,355.53125 1,0 388.90873,388.90873 -1,0 z"
       id="path4282"
       style="fill:#000000" />
    <path
       inkscape:connector-curvature="0"
       d="m 268.0625,355.53125 11.53125,0 388.90873,388.90873 -11.53125,0 z"
       id="path4284"
       style="fill:#000000" />
    <path
       inkscape:connector-curvature="0"
       d="m 279.59375,355.53125 0.96875,0 388.90873,388.90873 -0.96875,0 z"
       id="path4286"
       style="fill:#000000" />
    <path
       inkscape:connector-curvature="0"
       d="m 280.5625,355.53125 0.28125,-0.90625 388.90873,388.90873 -0.28125,0.90625 z"
       id="path4288"
       style="fill:#000000" />
    <path
       inkscape:connector-curvature="0"
       d="m 280.84375,354.625 17.125,-57.84375 388.90873,388.90873 -17.125,57.84375 z"
       id="path4290"
       style="fill:#000000" />
    <path
       inkscape:connector-curvature="0"
       d="m 297.96875,296.78125 c 1.39083,-4.542 2.3665,-8.41812 3.15625,-11.96875 l 388.90873,388.90873 c -0.78975,3.55063 -1.76542,7.42675 -3.15625,11.96875 z"
       id="path4292"
       style="fill:#000000" />
    <path
       inkscape:connector-curvature="0"
       d="m 301.125,284.8125 c 0.7896,3.09266 1.84409,6.81124 3.28125,11.59375 l 388.90873,388.90873 c -1.43716,-4.78251 -2.49165,-8.50109 -3.28125,-11.59375 z"
       id="path4294"
       style="fill:#000000" />
    <path
       inkscape:connector-curvature="0"
       d="M 304.40625,296.40625 322.0625,354.625 710.97123,743.53373 693.31498,685.31498 z"
       id="path4296"
       style="fill:#000000" />
    <path
       inkscape:connector-curvature="0"
       d="m 322.0625,354.625 0.28125,0.90625 388.90873,388.90873 -0.28125,-0.90625 z"
       id="path4298"
       style="fill:#000000" />
    <path
       inkscape:connector-curvature="0"
       d="m 322.34375,355.53125 0.96875,0 388.90873,388.90873 -0.96875,0 z"
       id="path4300"
       style="fill:#000000" />
    <path
       inkscape:connector-curvature="0"
       d="m 323.3125,355.53125 11.53125,0 388.90873,388.90873 -11.53125,0 z"
       id="path4302"
       style="fill:#000000" />
    <path
       inkscape:connector-curvature="0"
       d="m 334.84375,355.53125 0,-1.28125 388.90873,388.90873 0,1.28125 z"
       id="path4304"
       style="fill:#000000" />
    <path
       inkscape:connector-curvature="0"
       d="m 334.84375,354.25 1.28125,0.34375 388.90873,388.90873 -1.28125,-0.34375 z"
       id="path4306"
       style="fill:#000000" />
    <path
       inkscape:connector-curvature="0"
       d="M 336.125,354.59375 360.21875,265.75 749.12748,654.65873 725.03373,743.50248 z"
       id="path4308"
       style="fill:#000000" />
    <path
       inkscape:connector-curvature="0"
       d="m 360.21875,265.75 0.46875,-1.625 388.90873,388.90873 -0.46875,1.625 z"
       id="path4310"
       style="fill:#000000" />
    <path
       inkscape:connector-curvature="0"
       d="m 360.6875,264.125 -1.71875,0 388.90873,388.90873 1.71875,0 z"
       id="path4312"
       style="fill:#000000" />
    <path
       inkscape:connector-curvature="0"
       d="m 358.96875,264.125 -11.90625,0 388.90873,388.90873 11.90625,0 z"
       id="path4314"
       style="fill:#000000" />
    <path
       inkscape:connector-curvature="0"
       d="m 347.0625,264.125 -1,0 388.90873,388.90873 1,0 z"
       id="path4316"
       style="fill:#000000" />
    <path
       inkscape:connector-curvature="0"
       d="m 346.0625,264.125 -0.25,0.96875 388.90873,388.90873 0.25,-0.96875 z"
       id="path4318"
       style="fill:#000000" />
    <path
       inkscape:connector-curvature="0"
       d="m 345.8125,265.09375 -14.03125,54.125 388.90873,388.90873 14.03125,-54.125 z"
       id="path4320"
       style="fill:#000000" />
    <path
       inkscape:connector-curvature="0"
       d="m 331.78125,319.21875 c -1.43462,5.41731 -2.41911,10.02922 -3.21875,14.28125 l 388.90873,388.90873 c 0.79964,-4.25203 1.78413,-8.86394 3.21875,-14.28125 z"
       id="path4322"
       style="fill:#000000" />
    <path
       inkscape:connector-curvature="0"
       d="m 328.5625,333.5 c -1.00574,-4.86607 -2.1662,-9.71377 -3.625,-14.46875 l 388.90873,388.90873 c 1.4588,4.75498 2.61926,9.60268 3.625,14.46875 z"
       id="path4324"
       style="fill:#000000" />
    <path
       inkscape:connector-curvature="0"
       d="m 324.9375,319.03125 -16.6875,-54 388.90873,388.90873 16.6875,54 z"
       id="path4326"
       style="fill:#000000" />
    <path
       inkscape:connector-curvature="0"
       d="m 308.25,265.03125 -0.28125,-0.90625 388.90873,388.90873 0.28125,0.90625 z"
       id="path4328"
       style="fill:#000000" />
    <path
       inkscape:connector-curvature="0"
       d="m 307.96875,264.125 -0.96875,0 388.90873,388.90873 0.96875,0 z"
       id="path4330"
       style="fill:#000000" />
    <path
       inkscape:connector-curvature="0"
       d="m 307,264.125 -11.78125,0 388.90873,388.90873 11.78125,0 z"
       id="path4332"
       style="fill:#000000" />
    <path
       inkscape:connector-curvature="0"
       d="m 295.21875,264.125 -0.96875,0 388.90873,388.90873 0.96875,0 z"
       id="path4334"
       style="fill:#000000" />
    <path
       inkscape:connector-curvature="0"
       d="m 294.25,264.125 -0.28125,0.90625 388.90873,388.90873 0.28125,-0.90625 z"
       id="path4336"
       style="fill:#000000" />
    <path
       inkscape:connector-curvature="0"
       d="m 293.96875,265.03125 -16,53.59375 388.90873,388.90873 16,-53.59375 z"
       id="path4338"
       style="fill:#000000" />
    <path
       inkscape:connector-curvature="0"
       d="m 277.96875,318.625 c -1.5213,5.18975 -2.6415,10.02211 -3.5625,14.6875 l 388.90873,388.90873 c 0.921,-4.66539 2.0412,-9.49775 3.5625,-14.6875 z"
       id="path4340"
       style="fill:#000000" />
    <path
       inkscape:connector-curvature="0"
       d="m 274.40625,333.3125 c -0.86239,-4.64785 -1.83798,-9.28832 -3.09375,-13.96875 l 388.90873,388.90873 c 1.25577,4.68043 2.23136,9.3209 3.09375,13.96875 z"
       id="path4342"
       style="fill:#000000" />
    <path
       inkscape:connector-curvature="0"
       d="m 271.3125,319.34375 -14.09375,-54.25 388.90873,388.90873 14.09375,54.25 z"
       id="path4344"
       style="fill:#000000" />
    <path
       inkscape:connector-curvature="0"
       d="m 257.21875,265.09375 -0.25,-0.96875 388.90873,388.90873 0.25,0.96875 z"
       id="path4346"
       style="fill:#000000" />
    <path
       inkscape:connector-curvature="0"
       d="m 256.96875,264.125 -1,0 388.90873,388.90873 1,0 z"
       id="path4348"
       style="fill:#000000" />
    <path
       inkscape:connector-curvature="0"
       d="m 255.96875,264.125 -11.90625,0 388.90873,388.90873 11.90625,0 z"
       id="path4350"
       style="fill:#000000" />
    <path
       inkscape:connector-curvature="0"
       d="m 244.0625,264.125 -1.71875,0 388.90873,388.90873 1.71875,0 z"
       id="path4352"
       style="fill:#000000" />
  </g>
  <path
     inkscape:connector-curvature="0"
     style="font-size:68.29161835px;font-style:normal;font-variant:normal;font-weight:normal;font-stretch:normal;text-indent:0;text-align:start;text-decoration:none;line-height:125%;letter-spacing:0px;word-spacing:0px;text-transform:none;direction:ltr;block-progression:tb;writing-mode:lr-tb;text-anchor:start;baseline-shift:baseline;color:#000000;fill:#ffffff;fill-opacity:1;fill-rule:nonzero;stroke:none;stroke-width:2.60905147;marker:none;visibility:visible;display:inline;overflow:visible;enable-background:accumulate;font-family:Sans;-inkscape-font-specification:Sans"
     d="m 131.96875,155.25 0,72 73.78125,0 0,-72 -73.78125,0 z m 84.71875,0 0,72 73.75,0 0,-72 -73.75,0 z m 84.34375,0 0,72 73.75,0 0,-72 -73.75,0 z m 39.84375,10.34375 c 8.6294,0 15.14546,2.6784 20.03125,7.875 l -5.625,5.34375 c -3.29947,-4.08307 -7.68038,-6.375 -14.40625,-6.375 -12.8172,0 -18.15625,8.45305 -18.15625,19.09375 0,10.39322 5.11746,18.53125 18.125,18.53125 6.72585,0 11.10582,-2.23008 14.46875,-6.375 l 5.53125,5.28125 c -4.88575,5.25847 -11.43405,7.9375 -20,7.9375 -17.13188,0 -25.96875,-10.28009 -25.96875,-25.375 0,-15.1568 9.18535,-25.9375 26,-25.9375 z m -189.6875,0.625 20.0625,0 c 9.09209,0 13.46875,6.45065 13.46875,13.8125 0,4.39237 -1.35456,7.55539 -4.4375,9.90625 l 0,0.15625 c 4.07576,1.79408 6.28125,6.18155 6.28125,11.6875 0,8.97036 -5.29161,14.5625 -14.90625,14.5625 l -20.46875,0 0,-50.125 z m 84.71875,0 20.03125,0 c 9.09211,0 13.5,6.45065 13.5,13.8125 0,4.39237 -1.35455,7.55539 -4.4375,9.90625 l 0,0.15625 c 4.07576,1.79408 6.28125,6.18155 6.28125,11.6875 0,8.97036 -5.2916,14.5625 -14.90625,14.5625 l -20.46875,0 0,-50.125 z m -79.09375,6.84375 0.625,0.75 0,12.5625 -0.625,0.71875 13.90625,0 c 5.69561,0 7.5625,-3.16569 7.5625,-7.125 0,-4.57798 -2.3894,-6.90625 -7.5625,-6.90625 l -13.90625,0 z m 84.71875,0 0.65625,0.75 0,12.5625 -0.65625,0.71875 13.875,0 c 5.69563,0 7.59375,-3.16569 7.59375,-7.125 0,-4.57798 -2.42064,-6.90625 -7.59375,-6.90625 l -13.875,0 z m -84.71875,20.90625 0.625,0.71875 0,14 -0.625,0.75 14.84375,0 c 6.27041,0 8.46875,-2.76897 8.46875,-7.65625 0,-4.76356 -2.45962,-7.8125 -8.46875,-7.8125 l -14.84375,0 z m 84.71875,0 0.65625,0.71875 0,14 -0.65625,0.75 14.84375,0 c 6.27042,0 8.46875,-2.76897 8.46875,-7.65625 0,-4.76356 -2.4596,-7.8125 -8.46875,-7.8125 l -14.84375,0 z m 155.65625,68.875 c -8.88689,8e-5 -16.23932,2.10748 -21.84375,6.40625 -5.5737,4.30877 -8.43751,10.30428 -8.4375,17.5625 -10e-6,6.68292 1.89775,12.31053 5.71875,16.65625 3.82522,4.30758 10.01894,7.89757 18.53125,10.9375 5.87324,2.09242 10.23205,3.94301 13,5.53125 l 0,0.0312 c 2.81789,1.59424 4.7344,3.25162 5.8125,4.90625 1.07162,1.64487 1.6562,3.81944 1.65625,6.59375 -5e-5,4.12047 -1.48535,7.10276 -4.625,9.4375 -3.10136,2.30622 -7.91472,3.59375 -14.53125,3.59375 -3.86687,0 -8.07658,-0.458 -12.59375,-1.375 -4.47287,-0.91623 -8.58604,-2.16659 -12.34375,-3.75 l -1.8125,-0.78125 0,1.96875 0,10.6875 0,0.84375 0.75,0.34375 c 6.14965,2.92753 14.63781,4.3125 25.5,4.3125 10.36075,0 18.62329,-2.25071 24.625,-6.9375 5.9939,-4.68076 9.06243,-11.25571 9.0625,-19.3125 -7e-5,-4.29664 -0.84218,-8.07091 -2.53125,-11.25 -1.68303,-3.21072 -4.26983,-6.0097 -7.71875,-8.375 -3.47229,-2.42369 -8.57625,-4.79814 -15.375,-7.25 -5.58229,-2.01057 -9.64887,-3.81554 -12.15625,-5.3125 -2.47266,-1.49956 -4.22157,-3.07575 -5.28125,-4.75 -0.005,-0.008 0.005,-0.0235 0,-0.0312 -1.00195,-1.69436 -1.53127,-3.8627 -1.53125,-6.59375 -2e-5,-3.76991 1.28307,-6.45804 4,-8.5 2.76577,-2.05045 6.68392,-3.15617 11.875,-3.15625 6.49236,8e-5 13.56736,1.5463 21.21875,4.65625 l 1.21875,0.5 0.46875,-1.25 3.5625,-9.625 0.40625,-1.15625 -1.125,-0.46875 c -7.78104,-3.3971 -16.28648,-5.09367 -25.5,-5.09375 z m -310.84375,1.28125 0,1.28125 0,88.84375 0,1.28125 1.3125,0 10.5625,0 1.28125,0 0,-1.28125 0,-49.65625 c -1.9e-5,-5.46712 -0.252474,-11.88823 -0.75,-19.28125 l -0.0625,-0.875 46.4375,70.53125 0.375,0.5625 0.71875,0 13.3125,0 0,-1.28125 1.3125,0 0,-88.84375 0,-1.28125 -1.3125,0 -10.65625,0 -1.3125,0 0,1.28125 0,50.125 c -7e-5,2.71362 0.12654,7.06006 0.375,13.0625 0.15303,3.67422 0.22195,4.65111 0.3125,6.4375 l -13.71875,-20.9375 -29.78125,-45.0625 0,-0.0312 -2.78125,-4.28125 -0.375,-0.59375 -0.71875,0 -13.21875,0 -1.3125,0 z m 96.5,0 0,1.28125 0,88.84375 0,1.28125 1.3125,0 50.65625,0 0,-1.28125 1.3125,0 0,-9.84375 0,-1.3125 -1.3125,0 -37.9375,0 0,-29.09375 35.65625,0 1.3125,0 0,-1.3125 0,-9.71875 0,-1.3125 -1.3125,0 -35.65625,0 0,-25.09375 37.9375,0 1.3125,0 0,-1.3125 0,-9.84375 0,-1.28125 -1.3125,0 -50.65625,0 -1.3125,0 z m 59.5,0 0.46875,1.625 24,88.84375 0.25,0.9375 1,0 11.53125,0 0.96875,0 0.28125,-0.90625 17.125,-57.84375 c 1.39083,-4.542 2.3665,-8.41812 3.15625,-11.96875 0.7896,3.09266 1.84409,6.81124 3.28125,11.59375 l 17.65625,58.21875 0.28125,0.90625 0.96875,0 11.53125,0 0,-1.28125 1.28125,0.34375 24.09375,-88.84375 0.46875,-1.625 -1.71875,0 -11.90625,0 -1,0 -0.25,0.96875 -14.03125,54.125 c -1.43462,5.41731 -2.41911,10.02922 -3.21875,14.28125 -1.00574,-4.86607 -2.1662,-9.71377 -3.625,-14.46875 l -16.6875,-54 -0.28125,-0.90625 -0.96875,0 -11.78125,0 -0.96875,0 -0.28125,0.90625 -16,53.59375 c -1.5213,5.18975 -2.6415,10.02211 -3.5625,14.6875 -0.86239,-4.64785 -1.83798,-9.28832 -3.09375,-13.96875 l -14.09375,-54.25 -0.25,-0.96875 -1,0 -11.90625,0 -1.71875,0 z"
     id="path3878" />
</svg>
