<?xml version="1.0" encoding="UTF-8" standalone="no"?>
<svg
   xmlns:dc="http://purl.org/dc/elements/1.1/"
   xmlns:cc="http://creativecommons.org/ns#"
   xmlns:rdf="http://www.w3.org/1999/02/22-rdf-syntax-ns#"
   xmlns:svg="http://www.w3.org/2000/svg"
   xmlns="http://www.w3.org/2000/svg"
   xmlns:sodipodi="http://sodipodi.sourceforge.net/DTD/sodipodi-0.dtd"
   xmlns:inkscape="http://www.inkscape.org/namespaces/inkscape"
   viewBox="0 0 512 512"
   id="svg2"
   version="1.1"
   inkscape:version="0.48.5 r10040"
   width="100%"
   height="100%"
   sodipodi:docname="bless-48x48.svg">
  <sodipodi:namedview
     pagecolor="#ffffff"
     bordercolor="#666666"
     borderopacity="1"
     objecttolerance="10"
     gridtolerance="10"
     guidetolerance="10"
     inkscape:pageopacity="0"
     inkscape:pageshadow="2"
     inkscape:window-width="1307"
     inkscape:window-height="748"
     id="namedview66"
     showgrid="false"
     inkscape:zoom="0.65186406"
     inkscape:cx="296.52568"
     inkscape:cy="303.44996"
     inkscape:window-x="57"
     inkscape:window-y="-3"
     inkscape:window-maximized="1"
     inkscape:current-layer="svg2" />
  <metadata
     id="metadata70">
    <rdf:RDF>
      <cc:Work
         rdf:about="">
        <dc:format>image/svg+xml</dc:format>
        <dc:type
           rdf:resource="http://purl.org/dc/dcmitype/StillImage" />
        <dc:title />
      </cc:Work>
    </rdf:RDF>
  </metadata>
  <defs
     id="defs68">
    <linearGradient
       id="linearGradient3795-1-2">
      <stop
         style="stop-color:#272b30;stop-opacity:1"
         offset="0"
         id="stop3797-1-9" />
      <stop
         style="stop-color:#282c31;stop-opacity:1"
         offset="1"
         id="stop3799-3-6" />
    </linearGradient>
    <clipPath
       clipPathUnits="userSpaceOnUse"
       id="clipPath5908">
      <path
         d="m 471.9456,253.05189 c 0,120.89699 -98.00565,218.90724 -218.90724,218.90724 -120.89698,0 -218.90723,-98.00566 -218.90723,-218.90724 0,-120.89698 98.00565,-218.907232 218.90723,-218.907232 120.89699,0 218.90724,98.005652 218.90724,218.907232"
         id="path5910"
         inkscape:connector-curvature="0"
         style="fill:#484043;fill-rule:evenodd" />
    </clipPath>
  </defs>
  <path
     style="fill:#484043;fill-rule:evenodd"
     inkscape:connector-curvature="0"
     id="path8"
     d="m 471.9456,253.05189 c 0,120.89699 -98.00565,218.90724 -218.90724,218.90724 -120.89698,0 -218.90723,-98.00566 -218.90723,-218.90724 0,-120.89698 98.00565,-218.907232 218.90723,-218.907232 120.89699,0 218.90724,98.005652 218.90724,218.907232" />
  <g
     style="fill:#000000;opacity:0.25"
     id="g4592"
     clip-path="url(#clipPath5908)">
    <path
       inkscape:connector-curvature="0"
       d="m 113.5,129.6875 0,11.78125 388.90873,388.90873 0,-11.78125 z"
       id="path4594" />
    <path
       inkscape:connector-curvature="0"
       d="m 113.5,141.46875 11.78125,0 388.90873,388.90873 -11.78125,0 z"
       id="path4596" />
    <path
       inkscape:connector-curvature="0"
       d="m 125.28125,141.46875 0,23.53125 388.90873,388.90873 0,-23.53125 z"
       id="path4598" />
    <path
       inkscape:connector-curvature="0"
       d="m 125.28125,165 -11.78125,0 388.90873,388.90873 11.78125,0 z"
       id="path4600" />
    <path
       inkscape:connector-curvature="0"
       d="m 113.5,165 0,11.78125 388.90873,388.90873 0,-11.78125 z"
       id="path4602" />
    <path
       inkscape:connector-curvature="0"
       d="m 113.5,176.78125 11.78125,0 388.90873,388.90873 -11.78125,0 z"
       id="path4604" />
    <path
       inkscape:connector-curvature="0"
       d="m 125.28125,176.78125 11.78125,0 388.90873,388.90873 -11.78125,0 z"
       id="path4606" />
    <path
       inkscape:connector-curvature="0"
       d="m 137.0625,176.78125 11.75,0 388.90873,388.90873 -11.75,0 z"
       id="path4608" />
    <path
       inkscape:connector-curvature="0"
       d="m 148.8125,176.78125 0,-11.78125 388.90873,388.90873 0,11.78125 z"
       id="path4610" />
    <path
       inkscape:connector-curvature="0"
       d="m 148.8125,165 -11.75,0 388.90873,388.90873 11.75,0 z"
       id="path4612" />
    <path
       inkscape:connector-curvature="0"
       d="m 137.0625,165 0,-35.3125 388.90873,388.90873 0,35.3125 z"
       id="path4614" />
    <path
       inkscape:connector-curvature="0"
       d="m 137.0625,129.6875 -11.78125,0 388.90873,388.90873 11.78125,0 z"
       id="path4616" />
    <path
       inkscape:connector-curvature="0"
       d="m 125.28125,129.6875 -11.78125,0 388.90873,388.90873 11.78125,0 z"
       id="path4618" />
    <path
       inkscape:connector-curvature="0"
       d="m 163.4375,129.6875 0,11.78125 388.90873,388.90873 0,-11.78125 z"
       id="path4620" />
    <path
       inkscape:connector-curvature="0"
       d="m 163.4375,141.46875 0,23.53125 388.90873,388.90873 0,-23.53125 z"
       id="path4622" />
    <path
       inkscape:connector-curvature="0"
       d="m 163.4375,165 0,11.78125 388.90873,388.90873 0,-11.78125 z"
       id="path4624" />
    <path
       inkscape:connector-curvature="0"
       d="m 163.4375,176.78125 11.75,0 388.90873,388.90873 -11.75,0 z"
       id="path4626" />
    <path
       inkscape:connector-curvature="0"
       d="m 175.1875,176.78125 23.5625,0 388.90873,388.90873 -23.5625,0 z"
       id="path4628" />
    <path
       inkscape:connector-curvature="0"
       d="m 198.75,176.78125 0,-11.78125 388.90873,388.90873 0,11.78125 z"
       id="path4630" />
    <path
       inkscape:connector-curvature="0"
       d="m 198.75,165 0,-35.3125 388.90873,388.90873 0,35.3125 z"
       id="path4632" />
    <path
       inkscape:connector-curvature="0"
       d="m 198.75,129.6875 -23.5625,0 388.90873,388.90873 23.5625,0 z"
       id="path4634" />
    <path
       inkscape:connector-curvature="0"
       d="m 175.1875,129.6875 -11.75,0 388.90873,388.90873 11.75,0 z"
       id="path4636" />
    <path
       inkscape:connector-curvature="0"
       d="m 213.375,129.6875 0,11.78125 388.90873,388.90873 0,-11.78125 z"
       id="path4638" />
    <path
       inkscape:connector-curvature="0"
       d="m 213.375,141.46875 11.75,0 388.90873,388.90873 -11.75,0 z"
       id="path4640" />
    <path
       inkscape:connector-curvature="0"
       d="m 225.125,141.46875 0,23.53125 388.90873,388.90873 0,-23.53125 z"
       id="path4642" />
    <path
       inkscape:connector-curvature="0"
       d="m 225.125,165 -11.75,0 388.90873,388.90873 11.75,0 z"
       id="path4644" />
    <path
       inkscape:connector-curvature="0"
       d="m 213.375,165 0,11.78125 388.90873,388.90873 0,-11.78125 z"
       id="path4646" />
    <path
       inkscape:connector-curvature="0"
       d="m 213.375,176.78125 11.75,0 388.90873,388.90873 -11.75,0 z"
       id="path4648" />
    <path
       inkscape:connector-curvature="0"
       d="m 225.125,176.78125 11.78125,0 388.90873,388.90873 -11.78125,0 z"
       id="path4650" />
    <path
       inkscape:connector-curvature="0"
       d="m 236.90625,176.78125 11.78125,0 388.90873,388.90873 -11.78125,0 z"
       id="path4652" />
    <path
       inkscape:connector-curvature="0"
       d="m 248.6875,176.78125 0,-11.78125 388.90873,388.90873 0,11.78125 z"
       id="path4654" />
    <path
       inkscape:connector-curvature="0"
       d="m 248.6875,165 -11.78125,0 388.90873,388.90873 11.78125,0 z"
       id="path4656" />
    <path
       inkscape:connector-curvature="0"
       d="m 236.90625,165 0,-35.3125 388.90873,388.90873 0,35.3125 z"
       id="path4658" />
    <path
       inkscape:connector-curvature="0"
       d="m 236.90625,129.6875 -11.78125,0 388.90873,388.90873 11.78125,0 z"
       id="path4660" />
    <path
       inkscape:connector-curvature="0"
       d="m 225.125,129.6875 -11.75,0 388.90873,388.90873 11.75,0 z"
       id="path4662" />
    <path
       inkscape:connector-curvature="0"
       d="m 263.28125,129.6875 0,11.78125 388.90873,388.90873 0,-11.78125 z"
       id="path4664" />
    <path
       inkscape:connector-curvature="0"
       d="m 263.28125,141.46875 11.78125,0 388.90873,388.90873 -11.78125,0 z"
       id="path4666" />
    <path
       inkscape:connector-curvature="0"
       d="m 275.0625,141.46875 0,23.53125 388.90873,388.90873 0,-23.53125 z"
       id="path4668" />
    <path
       inkscape:connector-curvature="0"
       d="m 275.0625,165 -11.78125,0 388.90873,388.90873 11.78125,0 z"
       id="path4670" />
    <path
       inkscape:connector-curvature="0"
       d="m 263.28125,165 0,11.78125 388.90873,388.90873 0,-11.78125 z"
       id="path4672" />
    <path
       inkscape:connector-curvature="0"
       d="m 263.28125,176.78125 11.78125,0 388.90873,388.90873 -11.78125,0 z"
       id="path4674" />
    <path
       inkscape:connector-curvature="0"
       d="m 275.0625,176.78125 11.78125,0 388.90873,388.90873 -11.78125,0 z"
       id="path4676" />
    <path
       inkscape:connector-curvature="0"
       d="m 286.84375,176.78125 11.75,0 388.90873,388.90873 -11.75,0 z"
       id="path4678" />
    <path
       inkscape:connector-curvature="0"
       d="m 298.59375,176.78125 0,-11.78125 388.90873,388.90873 0,11.78125 z"
       id="path4680" />
    <path
       inkscape:connector-curvature="0"
       d="m 298.59375,165 -11.75,0 388.90873,388.90873 11.75,0 z"
       id="path4682" />
    <path
       inkscape:connector-curvature="0"
       d="m 286.84375,165 0,-35.3125 388.90873,388.90873 0,35.3125 z"
       id="path4684" />
    <path
       inkscape:connector-curvature="0"
       d="m 286.84375,129.6875 -11.78125,0 388.90873,388.90873 11.78125,0 z"
       id="path4686" />
    <path
       inkscape:connector-curvature="0"
       d="m 275.0625,129.6875 -11.78125,0 388.90873,388.90873 11.78125,0 z"
       id="path4688" />
    <path
       inkscape:connector-curvature="0"
       d="m 313.25,129.6875 0,11.78125 388.90873,388.90873 0,-11.78125 z"
       id="path4690" />
    <path
       inkscape:connector-curvature="0"
       d="m 313.25,141.46875 0,23.53125 388.90873,388.90873 0,-23.53125 z"
       id="path4692" />
    <path
       inkscape:connector-curvature="0"
       d="m 313.25,165 0,11.78125 388.90873,388.90873 0,-11.78125 z"
       id="path4694" />
    <path
       inkscape:connector-curvature="0"
       d="m 313.25,176.78125 11.78125,0 388.90873,388.90873 -11.78125,0 z"
       id="path4696" />
    <path
       inkscape:connector-curvature="0"
       d="m 325.03125,176.78125 23.53125,0 388.90873,388.90873 -23.53125,0 z"
       id="path4698" />
    <path
       inkscape:connector-curvature="0"
       d="m 348.5625,176.78125 0,-11.78125 388.90873,388.90873 0,11.78125 z"
       id="path4700" />
    <path
       inkscape:connector-curvature="0"
       d="m 348.5625,165 0,-35.3125 388.90873,388.90873 0,35.3125 z"
       id="path4702" />
    <path
       inkscape:connector-curvature="0"
       d="m 348.5625,129.6875 -23.53125,0 388.90873,388.90873 23.53125,0 z"
       id="path4704" />
    <path
       inkscape:connector-curvature="0"
       d="m 325.03125,129.6875 -11.78125,0 388.90873,388.90873 11.78125,0 z"
       id="path4706" />
    <path
       inkscape:connector-curvature="0"
       d="m 363.1875,129.6875 0,11.78125 388.90873,388.90873 0,-11.78125 z"
       id="path4708" />
    <path
       inkscape:connector-curvature="0"
       d="m 363.1875,141.46875 11.75,0 388.90873,388.90873 -11.75,0 z"
       id="path4710" />
    <path
       inkscape:connector-curvature="0"
       d="m 374.9375,141.46875 0,23.53125 388.90873,388.90873 0,-23.53125 z"
       id="path4712" />
    <path
       inkscape:connector-curvature="0"
       d="m 374.9375,165 -11.75,0 388.90873,388.90873 11.75,0 z"
       id="path4714" />
    <path
       inkscape:connector-curvature="0"
       d="m 363.1875,165 0,11.78125 388.90873,388.90873 0,-11.78125 z"
       id="path4716" />
    <path
       inkscape:connector-curvature="0"
       d="m 363.1875,176.78125 11.75,0 388.90873,388.90873 -11.75,0 z"
       id="path4718" />
    <path
       inkscape:connector-curvature="0"
       d="m 374.9375,176.78125 11.78125,0 388.90873,388.90873 -11.78125,0 z"
       id="path4720" />
    <path
       inkscape:connector-curvature="0"
       d="m 386.71875,176.78125 11.78125,0 388.90873,388.90873 -11.78125,0 z"
       id="path4722" />
    <path
       inkscape:connector-curvature="0"
       d="m 398.5,176.78125 0,-11.78125 388.90873,388.90873 0,11.78125 z"
       id="path4724" />
    <path
       inkscape:connector-curvature="0"
       d="m 398.5,165 -11.78125,0 388.90873,388.90873 11.78125,0 z"
       id="path4726" />
    <path
       inkscape:connector-curvature="0"
       d="m 386.71875,165 0,-35.3125 388.90873,388.90873 0,35.3125 z"
       id="path4728" />
    <path
       inkscape:connector-curvature="0"
       d="m 386.71875,129.6875 -11.78125,0 388.90873,388.90873 11.78125,0 z"
       id="path4730" />
    <path
       inkscape:connector-curvature="0"
       d="m 374.9375,129.6875 -11.75,0 388.90873,388.90873 11.75,0 z"
       id="path4732" />
    <path
       inkscape:connector-curvature="0"
       d="m 175.1875,141.46875 11.78125,0 388.90873,388.90873 -11.78125,0 z"
       id="path4734" />
    <path
       inkscape:connector-curvature="0"
       d="m 186.96875,141.46875 0,23.53125 388.90873,388.90873 0,-23.53125 z"
       id="path4736" />
    <path
       inkscape:connector-curvature="0"
       d="m 186.96875,165 -11.78125,0 388.90873,388.90873 11.78125,0 z"
       id="path4738" />
    <path
       inkscape:connector-curvature="0"
       d="m 175.1875,165 0,-23.53125 388.90873,388.90873 0,23.53125 z"
       id="path4740" />
    <path
       inkscape:connector-curvature="0"
       d="m 325.03125,141.46875 11.78125,0 388.90873,388.90873 -11.78125,0 z"
       id="path4742" />
    <path
       inkscape:connector-curvature="0"
       d="m 336.8125,141.46875 0,23.53125 388.90873,388.90873 0,-23.53125 z"
       id="path4744" />
    <path
       inkscape:connector-curvature="0"
       d="m 336.8125,165 -11.78125,0 388.90873,388.90873 11.78125,0 z"
       id="path4746" />
    <path
       inkscape:connector-curvature="0"
       d="m 325.03125,165 0,-23.53125 388.90873,388.90873 0,23.53125 z"
       id="path4748" />
    <path
       inkscape:connector-curvature="0"
       d="m 213.375,198.1875 0,11.78125 388.90873,388.90873 0,-11.78125 z"
       id="path4750" />
    <path
       inkscape:connector-curvature="0"
       d="m 213.375,209.96875 11.75,0 388.90873,388.90873 -11.75,0 z"
       id="path4752" />
    <path
       inkscape:connector-curvature="0"
       d="m 225.125,209.96875 0,23.53125 388.90873,388.90873 0,-23.53125 z"
       id="path4754" />
    <path
       inkscape:connector-curvature="0"
       d="m 225.125,233.5 -11.75,0 388.90873,388.90873 11.75,0 z"
       id="path4756" />
    <path
       inkscape:connector-curvature="0"
       d="m 213.375,233.5 0,11.78125 388.90873,388.90873 0,-11.78125 z"
       id="path4758" />
    <path
       inkscape:connector-curvature="0"
       d="m 213.375,245.28125 11.75,0 388.90873,388.90873 -11.75,0 z"
       id="path4760" />
    <path
       inkscape:connector-curvature="0"
       d="m 225.125,245.28125 11.78125,0 388.90873,388.90873 -11.78125,0 z"
       id="path4762" />
    <path
       inkscape:connector-curvature="0"
       d="m 236.90625,245.28125 11.78125,0 388.90873,388.90873 -11.78125,0 z"
       id="path4764" />
    <path
       inkscape:connector-curvature="0"
       d="m 248.6875,245.28125 0,-11.78125 388.90873,388.90873 0,11.78125 z"
       id="path4766" />
    <path
       inkscape:connector-curvature="0"
       d="m 248.6875,233.5 -11.78125,0 388.90873,388.90873 11.78125,0 z"
       id="path4768" />
    <path
       inkscape:connector-curvature="0"
       d="m 236.90625,233.5 0,-35.3125 388.90873,388.90873 0,35.3125 z"
       id="path4770" />
    <path
       inkscape:connector-curvature="0"
       d="m 236.90625,198.1875 -11.78125,0 388.90873,388.90873 11.78125,0 z"
       id="path4772" />
    <path
       inkscape:connector-curvature="0"
       d="m 225.125,198.1875 -11.75,0 388.90873,388.90873 11.75,0 z"
       id="path4774" />
    <path
       inkscape:connector-curvature="0"
       d="m 363.1875,198.1875 0,11.78125 388.90873,388.90873 0,-11.78125 z"
       id="path4776" />
    <path
       inkscape:connector-curvature="0"
       d="m 363.1875,209.96875 11.75,0 388.90873,388.90873 -11.75,0 z"
       id="path4778" />
    <path
       inkscape:connector-curvature="0"
       d="m 374.9375,209.96875 0,23.53125 388.90873,388.90873 0,-23.53125 z"
       id="path4780" />
    <path
       inkscape:connector-curvature="0"
       d="m 374.9375,233.5 -11.75,0 388.90873,388.90873 11.75,0 z"
       id="path4782" />
    <path
       inkscape:connector-curvature="0"
       d="m 363.1875,233.5 0,11.78125 388.90873,388.90873 0,-11.78125 z"
       id="path4784" />
    <path
       inkscape:connector-curvature="0"
       d="m 363.1875,245.28125 11.75,0 388.90873,388.90873 -11.75,0 z"
       id="path4786" />
    <path
       inkscape:connector-curvature="0"
       d="m 374.9375,245.28125 11.78125,0 388.90873,388.90873 -11.78125,0 z"
       id="path4788" />
    <path
       inkscape:connector-curvature="0"
       d="m 386.71875,245.28125 11.78125,0 388.90873,388.90873 -11.78125,0 z"
       id="path4790" />
    <path
       inkscape:connector-curvature="0"
       d="m 398.5,245.28125 0,-11.78125 388.90873,388.90873 0,11.78125 z"
       id="path4792" />
    <path
       inkscape:connector-curvature="0"
       d="m 398.5,233.5 -11.78125,0 388.90873,388.90873 11.78125,0 z"
       id="path4794" />
    <path
       inkscape:connector-curvature="0"
       d="m 386.71875,233.5 0,-35.3125 388.90873,388.90873 0,35.3125 z"
       id="path4796" />
    <path
       inkscape:connector-curvature="0"
       d="m 386.71875,198.1875 -11.78125,0 388.90873,388.90873 11.78125,0 z"
       id="path4798" />
    <path
       inkscape:connector-curvature="0"
       d="m 374.9375,198.1875 -11.75,0 388.90873,388.90873 11.75,0 z"
       id="path4800" />
    <path
       inkscape:connector-curvature="0"
       d="m 113.5,198.21875 0,11.75 388.90873,388.90873 0,-11.75 z"
       id="path4802" />
    <path
       inkscape:connector-curvature="0"
       d="m 113.5,209.96875 0,23.5625 388.90873,388.90873 0,-23.5625 z"
       id="path4804" />
    <path
       inkscape:connector-curvature="0"
       d="m 113.5,233.53125 0,11.78125 388.90873,388.90873 0,-11.78125 z"
       id="path4806" />
    <path
       inkscape:connector-curvature="0"
       d="m 113.5,245.3125 11.78125,0 388.90873,388.90873 -11.78125,0 z"
       id="path4808" />
    <path
       inkscape:connector-curvature="0"
       d="m 125.28125,245.3125 23.5625,0 388.90873,388.90873 -23.5625,0 z"
       id="path4810" />
    <path
       inkscape:connector-curvature="0"
       d="m 148.84375,245.3125 0,-11.78125 388.90873,388.90873 0,11.78125 z"
       id="path4812" />
    <path
       inkscape:connector-curvature="0"
       d="m 148.84375,233.53125 0,-35.3125 388.90873,388.90873 0,35.3125 z"
       id="path4814" />
    <path
       inkscape:connector-curvature="0"
       d="m 148.84375,198.21875 -23.5625,0 388.90873,388.90873 23.5625,0 z"
       id="path4816" />
    <path
       inkscape:connector-curvature="0"
       d="m 125.28125,198.21875 -11.78125,0 388.90873,388.90873 11.78125,0 z"
       id="path4818" />
    <path
       inkscape:connector-curvature="0"
       d="m 163.4375,198.21875 0,11.75 388.90873,388.90873 0,-11.75 z"
       id="path4820" />
    <path
       inkscape:connector-curvature="0"
       d="m 163.4375,209.96875 0,23.5625 388.90873,388.90873 0,-23.5625 z"
       id="path4822" />
    <path
       inkscape:connector-curvature="0"
       d="m 163.4375,233.53125 0,11.78125 388.90873,388.90873 0,-11.78125 z"
       id="path4824" />
    <path
       inkscape:connector-curvature="0"
       d="m 163.4375,245.3125 11.75,0 388.90873,388.90873 -11.75,0 z"
       id="path4826" />
    <path
       inkscape:connector-curvature="0"
       d="m 175.1875,245.3125 23.5625,0 388.90873,388.90873 -23.5625,0 z"
       id="path4828" />
    <path
       inkscape:connector-curvature="0"
       d="m 198.75,245.3125 0,-11.78125 388.90873,388.90873 0,11.78125 z"
       id="path4830" />
    <path
       inkscape:connector-curvature="0"
       d="m 198.75,233.53125 0,-35.3125 388.90873,388.90873 0,35.3125 z"
       id="path4832" />
    <path
       inkscape:connector-curvature="0"
       d="m 198.75,198.21875 -23.5625,0 388.90873,388.90873 23.5625,0 z"
       id="path4834" />
    <path
       inkscape:connector-curvature="0"
       d="m 175.1875,198.21875 -11.75,0 388.90873,388.90873 11.75,0 z"
       id="path4836" />
    <path
       inkscape:connector-curvature="0"
       d="m 263.3125,198.21875 0,11.75 388.90873,388.90873 0,-11.75 z"
       id="path4838" />
    <path
       inkscape:connector-curvature="0"
       d="m 263.3125,209.96875 0,23.5625 388.90873,388.90873 0,-23.5625 z"
       id="path4840" />
    <path
       inkscape:connector-curvature="0"
       d="m 263.3125,233.53125 0,11.78125 388.90873,388.90873 0,-11.78125 z"
       id="path4842" />
    <path
       inkscape:connector-curvature="0"
       d="m 263.3125,245.3125 11.75,0 388.90873,388.90873 -11.75,0 z"
       id="path4844" />
    <path
       inkscape:connector-curvature="0"
       d="m 275.0625,245.3125 23.5625,0 388.90873,388.90873 -23.5625,0 z"
       id="path4846" />
    <path
       inkscape:connector-curvature="0"
       d="m 298.625,245.3125 0,-11.78125 388.90873,388.90873 0,11.78125 z"
       id="path4848" />
    <path
       inkscape:connector-curvature="0"
       d="m 298.625,233.53125 0,-35.3125 388.90873,388.90873 0,35.3125 z"
       id="path4850" />
    <path
       inkscape:connector-curvature="0"
       d="m 298.625,198.21875 -23.5625,0 388.90873,388.90873 23.5625,0 z"
       id="path4852" />
    <path
       inkscape:connector-curvature="0"
       d="m 275.0625,198.21875 -11.75,0 388.90873,388.90873 11.75,0 z"
       id="path4854" />
    <path
       inkscape:connector-curvature="0"
       d="m 313.25,198.21875 0,11.75 388.90873,388.90873 0,-11.75 z"
       id="path4856" />
    <path
       inkscape:connector-curvature="0"
       d="m 313.25,209.96875 0,23.5625 388.90873,388.90873 0,-23.5625 z"
       id="path4858" />
    <path
       inkscape:connector-curvature="0"
       d="m 313.25,233.53125 0,11.78125 388.90873,388.90873 0,-11.78125 z"
       id="path4860" />
    <path
       inkscape:connector-curvature="0"
       d="m 313.25,245.3125 11.78125,0 388.90873,388.90873 -11.78125,0 z"
       id="path4862" />
    <path
       inkscape:connector-curvature="0"
       d="m 325.03125,245.3125 23.53125,0 388.90873,388.90873 -23.53125,0 z"
       id="path4864" />
    <path
       inkscape:connector-curvature="0"
       d="m 348.5625,245.3125 0,-11.78125 388.90873,388.90873 0,11.78125 z"
       id="path4866" />
    <path
       inkscape:connector-curvature="0"
       d="m 348.5625,233.53125 0,-35.3125 388.90873,388.90873 0,35.3125 z"
       id="path4868" />
    <path
       inkscape:connector-curvature="0"
       d="m 348.5625,198.21875 -23.53125,0 388.90873,388.90873 23.53125,0 z"
       id="path4870" />
    <path
       inkscape:connector-curvature="0"
       d="m 325.03125,198.21875 -11.78125,0 388.90873,388.90873 11.78125,0 z"
       id="path4872" />
    <path
       inkscape:connector-curvature="0"
       d="m 125.28125,209.96875 11.78125,0 388.90873,388.90873 -11.78125,0 z"
       id="path4874" />
    <path
       inkscape:connector-curvature="0"
       d="m 137.0625,209.96875 0,23.5625 388.90873,388.90873 0,-23.5625 z"
       id="path4876" />
    <path
       inkscape:connector-curvature="0"
       d="m 137.0625,233.53125 -11.78125,0 388.90873,388.90873 11.78125,0 z"
       id="path4878" />
    <path
       inkscape:connector-curvature="0"
       d="m 125.28125,233.53125 0,-23.5625 388.90873,388.90873 0,23.5625 z"
       id="path4880" />
    <path
       inkscape:connector-curvature="0"
       d="m 175.1875,209.96875 11.78125,0 388.90873,388.90873 -11.78125,0 z"
       id="path4882" />
    <path
       inkscape:connector-curvature="0"
       d="m 186.96875,209.96875 0,23.5625 388.90873,388.90873 0,-23.5625 z"
       id="path4884" />
    <path
       inkscape:connector-curvature="0"
       d="m 186.96875,233.53125 -11.78125,0 388.90873,388.90873 11.78125,0 z"
       id="path4886" />
    <path
       inkscape:connector-curvature="0"
       d="m 175.1875,233.53125 0,-23.5625 388.90873,388.90873 0,23.5625 z"
       id="path4888" />
    <path
       inkscape:connector-curvature="0"
       d="m 275.0625,209.96875 11.78125,0 388.90873,388.90873 -11.78125,0 z"
       id="path4890" />
    <path
       inkscape:connector-curvature="0"
       d="m 286.84375,209.96875 0,23.5625 388.90873,388.90873 0,-23.5625 z"
       id="path4892" />
    <path
       inkscape:connector-curvature="0"
       d="m 286.84375,233.53125 -11.78125,0 388.90873,388.90873 11.78125,0 z"
       id="path4894" />
    <path
       inkscape:connector-curvature="0"
       d="m 275.0625,233.53125 0,-23.5625 388.90873,388.90873 0,23.5625 z"
       id="path4896" />
    <path
       inkscape:connector-curvature="0"
       d="m 325.03125,209.96875 11.78125,0 388.90873,388.90873 -11.78125,0 z"
       id="path4898" />
    <path
       inkscape:connector-curvature="0"
       d="m 336.8125,209.96875 0,23.5625 388.90873,388.90873 0,-23.5625 z"
       id="path4900" />
    <path
       inkscape:connector-curvature="0"
       d="m 336.8125,233.53125 -11.78125,0 388.90873,388.90873 11.78125,0 z"
       id="path4902" />
    <path
       inkscape:connector-curvature="0"
       d="m 325.03125,233.53125 0,-23.5625 388.90873,388.90873 0,23.5625 z"
       id="path4904" />
    <path
       inkscape:connector-curvature="0"
       d="m 113.5,266.71875 0,11.78125 388.90873,388.90873 0,-11.78125 z"
       id="path4906" />
    <path
       inkscape:connector-curvature="0"
       d="m 113.5,278.5 0,23.53125 388.90873,388.90873 0,-23.53125 z"
       id="path4908" />
    <path
       inkscape:connector-curvature="0"
       d="m 113.5,302.03125 0,11.78125 388.90873,388.90873 0,-11.78125 z"
       id="path4910" />
    <path
       inkscape:connector-curvature="0"
       d="m 113.5,313.8125 11.78125,0 388.90873,388.90873 -11.78125,0 z"
       id="path4912" />
    <path
       inkscape:connector-curvature="0"
       d="m 125.28125,313.8125 23.5625,0 388.90873,388.90873 -23.5625,0 z"
       id="path4914" />
    <path
       inkscape:connector-curvature="0"
       d="m 148.84375,313.8125 0,-11.78125 388.90873,388.90873 0,11.78125 z"
       id="path4916" />
    <path
       inkscape:connector-curvature="0"
       d="m 148.84375,302.03125 0,-35.3125 388.90873,388.90873 0,35.3125 z"
       id="path4918" />
    <path
       inkscape:connector-curvature="0"
       d="m 148.84375,266.71875 -23.5625,0 388.90873,388.90873 23.5625,0 z"
       id="path4920" />
    <path
       inkscape:connector-curvature="0"
       d="m 125.28125,266.71875 -11.78125,0 388.90873,388.90873 11.78125,0 z"
       id="path4922" />
    <path
       inkscape:connector-curvature="0"
       d="m 163.4375,266.71875 0,11.78125 388.90873,388.90873 0,-11.78125 z"
       id="path4924" />
    <path
       inkscape:connector-curvature="0"
       d="m 163.4375,278.5 11.78125,0 388.90873,388.90873 -11.78125,0 z"
       id="path4926" />
    <path
       inkscape:connector-curvature="0"
       d="m 175.21875,278.5 0,23.53125 388.90873,388.90873 0,-23.53125 z"
       id="path4928" />
    <path
       inkscape:connector-curvature="0"
       d="m 175.21875,302.03125 -11.78125,0 388.90873,388.90873 11.78125,0 z"
       id="path4930" />
    <path
       inkscape:connector-curvature="0"
       d="m 163.4375,302.03125 0,11.78125 388.90873,388.90873 0,-11.78125 z"
       id="path4932" />
    <path
       inkscape:connector-curvature="0"
       d="m 163.4375,313.8125 11.78125,0 388.90873,388.90873 -11.78125,0 z"
       id="path4934" />
    <path
       inkscape:connector-curvature="0"
       d="m 175.21875,313.8125 11.75,0 388.90873,388.90873 -11.75,0 z"
       id="path4936" />
    <path
       inkscape:connector-curvature="0"
       d="m 186.96875,313.8125 11.78125,0 388.90873,388.90873 -11.78125,0 z"
       id="path4938" />
    <path
       inkscape:connector-curvature="0"
       d="m 198.75,313.8125 0,-11.78125 388.90873,388.90873 0,11.78125 z"
       id="path4940" />
    <path
       inkscape:connector-curvature="0"
       d="m 198.75,302.03125 -11.78125,0 388.90873,388.90873 11.78125,0 z"
       id="path4942" />
    <path
       inkscape:connector-curvature="0"
       d="m 186.96875,302.03125 0,-35.3125 388.90873,388.90873 0,35.3125 z"
       id="path4944" />
    <path
       inkscape:connector-curvature="0"
       d="m 186.96875,266.71875 -11.75,0 388.90873,388.90873 11.75,0 z"
       id="path4946" />
    <path
       inkscape:connector-curvature="0"
       d="m 175.21875,266.71875 -11.78125,0 388.90873,388.90873 11.78125,0 z"
       id="path4948" />
    <path
       inkscape:connector-curvature="0"
       d="m 213.34375,266.71875 0,11.78125 388.90873,388.90873 0,-11.78125 z"
       id="path4950" />
    <path
       inkscape:connector-curvature="0"
       d="m 213.34375,278.5 0,23.53125 388.90873,388.90873 0,-23.53125 z"
       id="path4952" />
    <path
       inkscape:connector-curvature="0"
       d="m 213.34375,302.03125 0,11.78125 388.90873,388.90873 0,-11.78125 z"
       id="path4954" />
    <path
       inkscape:connector-curvature="0"
       d="m 213.34375,313.8125 11.78125,0 388.90873,388.90873 -11.78125,0 z"
       id="path4956" />
    <path
       inkscape:connector-curvature="0"
       d="m 225.125,313.8125 23.53125,0 388.90873,388.90873 -23.53125,0 z"
       id="path4958" />
    <path
       inkscape:connector-curvature="0"
       d="m 248.65625,313.8125 0,-11.78125 388.90873,388.90873 0,11.78125 z"
       id="path4960" />
    <path
       inkscape:connector-curvature="0"
       d="m 248.65625,302.03125 0,-35.3125 388.90873,388.90873 0,35.3125 z"
       id="path4962" />
    <path
       inkscape:connector-curvature="0"
       d="m 248.65625,266.71875 -23.53125,0 388.90873,388.90873 23.53125,0 z"
       id="path4964" />
    <path
       inkscape:connector-curvature="0"
       d="m 225.125,266.71875 -11.78125,0 388.90873,388.90873 11.78125,0 z"
       id="path4966" />
    <path
       inkscape:connector-curvature="0"
       d="m 263.3125,266.71875 0,11.78125 388.90873,388.90873 0,-11.78125 z"
       id="path4968" />
    <path
       inkscape:connector-curvature="0"
       d="m 263.3125,278.5 0,23.53125 388.90873,388.90873 0,-23.53125 z"
       id="path4970" />
    <path
       inkscape:connector-curvature="0"
       d="m 263.3125,302.03125 0,11.78125 388.90873,388.90873 0,-11.78125 z"
       id="path4972" />
    <path
       inkscape:connector-curvature="0"
       d="m 263.3125,313.8125 11.75,0 388.90873,388.90873 -11.75,0 z"
       id="path4974" />
    <path
       inkscape:connector-curvature="0"
       d="m 275.0625,313.8125 23.5625,0 388.90873,388.90873 -23.5625,0 z"
       id="path4976" />
    <path
       inkscape:connector-curvature="0"
       d="m 298.625,313.8125 0,-11.78125 388.90873,388.90873 0,11.78125 z"
       id="path4978" />
    <path
       inkscape:connector-curvature="0"
       d="m 298.625,302.03125 0,-35.3125 388.90873,388.90873 0,35.3125 z"
       id="path4980" />
    <path
       inkscape:connector-curvature="0"
       d="m 298.625,266.71875 -23.5625,0 388.90873,388.90873 23.5625,0 z"
       id="path4982" />
    <path
       inkscape:connector-curvature="0"
       d="m 275.0625,266.71875 -11.75,0 388.90873,388.90873 11.75,0 z"
       id="path4984" />
    <path
       inkscape:connector-curvature="0"
       d="m 313.25,266.71875 0,11.78125 388.90873,388.90873 0,-11.78125 z"
       id="path4986" />
    <path
       inkscape:connector-curvature="0"
       d="m 313.25,278.5 11.78125,0 388.90873,388.90873 -11.78125,0 z"
       id="path4988" />
    <path
       inkscape:connector-curvature="0"
       d="m 325.03125,278.5 0,23.53125 388.90873,388.90873 0,-23.53125 z"
       id="path4990" />
    <path
       inkscape:connector-curvature="0"
       d="m 325.03125,302.03125 -11.78125,0 388.90873,388.90873 11.78125,0 z"
       id="path4992" />
    <path
       inkscape:connector-curvature="0"
       d="m 313.25,302.03125 0,11.78125 388.90873,388.90873 0,-11.78125 z"
       id="path4994" />
    <path
       inkscape:connector-curvature="0"
       d="m 313.25,313.8125 11.78125,0 388.90873,388.90873 -11.78125,0 z"
       id="path4996" />
    <path
       inkscape:connector-curvature="0"
       d="m 325.03125,313.8125 11.75,0 388.90873,388.90873 -11.75,0 z"
       id="path4998" />
    <path
       inkscape:connector-curvature="0"
       d="m 336.78125,313.8125 11.78125,0 388.90873,388.90873 -11.78125,0 z"
       id="path5000" />
    <path
       inkscape:connector-curvature="0"
       d="m 348.5625,313.8125 0,-11.78125 388.90873,388.90873 0,11.78125 z"
       id="path5002" />
    <path
       inkscape:connector-curvature="0"
       d="m 348.5625,302.03125 -11.78125,0 388.90873,388.90873 11.78125,0 z"
       id="path5004" />
    <path
       inkscape:connector-curvature="0"
       d="m 336.78125,302.03125 0,-35.3125 388.90873,388.90873 0,35.3125 z"
       id="path5006" />
    <path
       inkscape:connector-curvature="0"
       d="m 336.78125,266.71875 -11.75,0 388.90873,388.90873 11.75,0 z"
       id="path5008" />
    <path
       inkscape:connector-curvature="0"
       d="m 325.03125,266.71875 -11.78125,0 388.90873,388.90873 11.78125,0 z"
       id="path5010" />
    <path
       inkscape:connector-curvature="0"
       d="m 363.1875,266.71875 0,11.78125 388.90873,388.90873 0,-11.78125 z"
       id="path5012" />
    <path
       inkscape:connector-curvature="0"
       d="m 363.1875,278.5 0,23.53125 388.90873,388.90873 0,-23.53125 z"
       id="path5014" />
    <path
       inkscape:connector-curvature="0"
       d="m 363.1875,302.03125 0,11.78125 388.90873,388.90873 0,-11.78125 z"
       id="path5016" />
    <path
       inkscape:connector-curvature="0"
       d="m 363.1875,313.8125 11.75,0 388.90873,388.90873 -11.75,0 z"
       id="path5018" />
    <path
       inkscape:connector-curvature="0"
       d="m 374.9375,313.8125 23.5625,0 388.90873,388.90873 -23.5625,0 z"
       id="path5020" />
    <path
       inkscape:connector-curvature="0"
       d="m 398.5,313.8125 0,-11.78125 388.90873,388.90873 0,11.78125 z"
       id="path5022" />
    <path
       inkscape:connector-curvature="0"
       d="m 398.5,302.03125 0,-35.3125 388.90873,388.90873 0,35.3125 z"
       id="path5024" />
    <path
       inkscape:connector-curvature="0"
       d="m 398.5,266.71875 -23.5625,0 388.90873,388.90873 23.5625,0 z"
       id="path5026" />
    <path
       inkscape:connector-curvature="0"
       d="m 374.9375,266.71875 -11.75,0 388.90873,388.90873 11.75,0 z"
       id="path5028" />
    <path
       inkscape:connector-curvature="0"
       d="m 125.28125,278.5 11.78125,0 388.90873,388.90873 -11.78125,0 z"
       id="path5030" />
    <path
       inkscape:connector-curvature="0"
       d="m 137.0625,278.5 0,23.53125 388.90873,388.90873 0,-23.53125 z"
       id="path5032" />
    <path
       inkscape:connector-curvature="0"
       d="m 137.0625,302.03125 -11.78125,0 388.90873,388.90873 11.78125,0 z"
       id="path5034" />
    <path
       inkscape:connector-curvature="0"
       d="m 125.28125,302.03125 0,-23.53125 388.90873,388.90873 0,23.53125 z"
       id="path5036" />
    <path
       inkscape:connector-curvature="0"
       d="m 225.125,278.5 11.78125,0 388.90873,388.90873 -11.78125,0 z"
       id="path5038" />
    <path
       inkscape:connector-curvature="0"
       d="m 236.90625,278.5 0,23.53125 388.90873,388.90873 0,-23.53125 z"
       id="path5040" />
    <path
       inkscape:connector-curvature="0"
       d="m 236.90625,302.03125 -11.78125,0 388.90873,388.90873 11.78125,0 z"
       id="path5042" />
    <path
       inkscape:connector-curvature="0"
       d="m 225.125,302.03125 0,-23.53125 388.90873,388.90873 0,23.53125 z"
       id="path5044" />
    <path
       inkscape:connector-curvature="0"
       d="m 275.0625,278.5 11.78125,0 388.90873,388.90873 -11.78125,0 z"
       id="path5046" />
    <path
       inkscape:connector-curvature="0"
       d="m 286.84375,278.5 0,23.53125 388.90873,388.90873 0,-23.53125 z"
       id="path5048" />
    <path
       inkscape:connector-curvature="0"
       d="m 286.84375,302.03125 -11.78125,0 388.90873,388.90873 11.78125,0 z"
       id="path5050" />
    <path
       inkscape:connector-curvature="0"
       d="m 275.0625,302.03125 0,-23.53125 388.90873,388.90873 0,23.53125 z"
       id="path5052" />
    <path
       inkscape:connector-curvature="0"
       d="m 374.9375,278.5 11.78125,0 388.90873,388.90873 -11.78125,0 z"
       id="path5054" />
    <path
       inkscape:connector-curvature="0"
       d="m 386.71875,278.5 0,23.53125 388.90873,388.90873 0,-23.53125 z"
       id="path5056" />
    <path
       inkscape:connector-curvature="0"
       d="m 386.71875,302.03125 -11.78125,0 388.90873,388.90873 11.78125,0 z"
       id="path5058" />
    <path
       inkscape:connector-curvature="0"
       d="m 374.9375,302.03125 0,-23.53125 388.90873,388.90873 0,23.53125 z"
       id="path5060" />
    <path
       inkscape:connector-curvature="0"
       d="m 113.5,335.21875 0,11.78125 388.90873,388.90873 0,-11.78125 z"
       id="path5062" />
    <path
       inkscape:connector-curvature="0"
       d="m 113.5,347 11.78125,0 388.90873,388.90873 -11.78125,0 z"
       id="path5064" />
    <path
       inkscape:connector-curvature="0"
       d="m 125.28125,347 0,23.53125 388.90873,388.90873 0,-23.53125 z"
       id="path5066" />
    <path
       inkscape:connector-curvature="0"
       d="m 125.28125,370.53125 -11.78125,0 388.90873,388.90873 11.78125,0 z"
       id="path5068" />
    <path
       inkscape:connector-curvature="0"
       d="m 113.5,370.53125 0,11.78125 388.90873,388.90873 0,-11.78125 z"
       id="path5070" />
    <path
       inkscape:connector-curvature="0"
       d="m 113.5,382.3125 11.78125,0 388.90873,388.90873 -11.78125,0 z"
       id="path5072" />
    <path
       inkscape:connector-curvature="0"
       d="m 125.28125,382.3125 11.78125,0 388.90873,388.90873 -11.78125,0 z"
       id="path5074" />
    <path
       inkscape:connector-curvature="0"
       d="m 137.0625,382.3125 11.75,0 388.90873,388.90873 -11.75,0 z"
       id="path5076" />
    <path
       inkscape:connector-curvature="0"
       d="m 148.8125,382.3125 0,-11.78125 388.90873,388.90873 0,11.78125 z"
       id="path5078" />
    <path
       inkscape:connector-curvature="0"
       d="m 148.8125,370.53125 -11.75,0 388.90873,388.90873 11.75,0 z"
       id="path5080" />
    <path
       inkscape:connector-curvature="0"
       d="m 137.0625,370.53125 0,-35.3125 388.90873,388.90873 0,35.3125 z"
       id="path5082" />
    <path
       inkscape:connector-curvature="0"
       d="m 137.0625,335.21875 -11.78125,0 388.90873,388.90873 11.78125,0 z"
       id="path5084" />
    <path
       inkscape:connector-curvature="0"
       d="m 125.28125,335.21875 -11.78125,0 388.90873,388.90873 11.78125,0 z"
       id="path5086" />
    <path
       inkscape:connector-curvature="0"
       d="m 213.375,335.21875 0,11.78125 388.90873,388.90873 0,-11.78125 z"
       id="path5088" />
    <path
       inkscape:connector-curvature="0"
       d="m 213.375,347 11.75,0 388.90873,388.90873 -11.75,0 z"
       id="path5090" />
    <path
       inkscape:connector-curvature="0"
       d="m 225.125,347 0,23.53125 388.90873,388.90873 0,-23.53125 z"
       id="path5092" />
    <path
       inkscape:connector-curvature="0"
       d="m 225.125,370.53125 -11.75,0 388.90873,388.90873 11.75,0 z"
       id="path5094" />
    <path
       inkscape:connector-curvature="0"
       d="m 213.375,370.53125 0,11.78125 388.90873,388.90873 0,-11.78125 z"
       id="path5096" />
    <path
       inkscape:connector-curvature="0"
       d="m 213.375,382.3125 11.75,0 388.90873,388.90873 -11.75,0 z"
       id="path5098" />
    <path
       inkscape:connector-curvature="0"
       d="m 225.125,382.3125 11.78125,0 388.90873,388.90873 -11.78125,0 z"
       id="path5100" />
    <path
       inkscape:connector-curvature="0"
       d="m 236.90625,382.3125 11.78125,0 388.90873,388.90873 -11.78125,0 z"
       id="path5102" />
    <path
       inkscape:connector-curvature="0"
       d="m 248.6875,382.3125 0,-11.78125 388.90873,388.90873 0,11.78125 z"
       id="path5104" />
    <path
       inkscape:connector-curvature="0"
       d="m 248.6875,370.53125 -11.78125,0 388.90873,388.90873 11.78125,0 z"
       id="path5106" />
    <path
       inkscape:connector-curvature="0"
       d="m 236.90625,370.53125 0,-35.3125 388.90873,388.90873 0,35.3125 z"
       id="path5108" />
    <path
       inkscape:connector-curvature="0"
       d="m 236.90625,335.21875 -11.78125,0 388.90873,388.90873 11.78125,0 z"
       id="path5110" />
    <path
       inkscape:connector-curvature="0"
       d="m 225.125,335.21875 -11.75,0 388.90873,388.90873 11.75,0 z"
       id="path5112" />
    <path
       inkscape:connector-curvature="0"
       d="m 263.28125,335.21875 0,11.78125 388.90873,388.90873 0,-11.78125 z"
       id="path5114" />
    <path
       inkscape:connector-curvature="0"
       d="m 263.28125,347 11.78125,0 388.90873,388.90873 -11.78125,0 z"
       id="path5116" />
    <path
       inkscape:connector-curvature="0"
       d="m 275.0625,347 0,23.53125 388.90873,388.90873 0,-23.53125 z"
       id="path5118" />
    <path
       inkscape:connector-curvature="0"
       d="m 275.0625,370.53125 -11.78125,0 388.90873,388.90873 11.78125,0 z"
       id="path5120" />
    <path
       inkscape:connector-curvature="0"
       d="m 263.28125,370.53125 0,11.78125 388.90873,388.90873 0,-11.78125 z"
       id="path5122" />
    <path
       inkscape:connector-curvature="0"
       d="m 263.28125,382.3125 11.78125,0 388.90873,388.90873 -11.78125,0 z"
       id="path5124" />
    <path
       inkscape:connector-curvature="0"
       d="m 275.0625,382.3125 11.78125,0 388.90873,388.90873 -11.78125,0 z"
       id="path5126" />
    <path
       inkscape:connector-curvature="0"
       d="m 286.84375,382.3125 11.75,0 388.90873,388.90873 -11.75,0 z"
       id="path5128" />
    <path
       inkscape:connector-curvature="0"
       d="m 298.59375,382.3125 0,-11.78125 388.90873,388.90873 0,11.78125 z"
       id="path5130" />
    <path
       inkscape:connector-curvature="0"
       d="m 298.59375,370.53125 -11.75,0 388.90873,388.90873 11.75,0 z"
       id="path5132" />
    <path
       inkscape:connector-curvature="0"
       d="m 286.84375,370.53125 0,-35.3125 388.90873,388.90873 0,35.3125 z"
       id="path5134" />
    <path
       inkscape:connector-curvature="0"
       d="m 286.84375,335.21875 -11.78125,0 388.90873,388.90873 11.78125,0 z"
       id="path5136" />
    <path
       inkscape:connector-curvature="0"
       d="m 275.0625,335.21875 -11.78125,0 388.90873,388.90873 11.78125,0 z"
       id="path5138" />
    <path
       inkscape:connector-curvature="0"
       d="m 363.1875,335.21875 0,11.78125 388.90873,388.90873 0,-11.78125 z"
       id="path5140" />
    <path
       inkscape:connector-curvature="0"
       d="m 363.1875,347 11.75,0 388.90873,388.90873 -11.75,0 z"
       id="path5142" />
    <path
       inkscape:connector-curvature="0"
       d="m 374.9375,347 0,23.53125 388.90873,388.90873 0,-23.53125 z"
       id="path5144" />
    <path
       inkscape:connector-curvature="0"
       d="m 374.9375,370.53125 -11.75,0 388.90873,388.90873 11.75,0 z"
       id="path5146" />
    <path
       inkscape:connector-curvature="0"
       d="m 363.1875,370.53125 0,11.78125 388.90873,388.90873 0,-11.78125 z"
       id="path5148" />
    <path
       inkscape:connector-curvature="0"
       d="m 363.1875,382.3125 11.75,0 388.90873,388.90873 -11.75,0 z"
       id="path5150" />
    <path
       inkscape:connector-curvature="0"
       d="m 374.9375,382.3125 11.78125,0 388.90873,388.90873 -11.78125,0 z"
       id="path5152" />
    <path
       inkscape:connector-curvature="0"
       d="m 386.71875,382.3125 11.78125,0 388.90873,388.90873 -11.78125,0 z"
       id="path5154" />
    <path
       inkscape:connector-curvature="0"
       d="m 398.5,382.3125 0,-11.78125 388.90873,388.90873 0,11.78125 z"
       id="path5156" />
    <path
       inkscape:connector-curvature="0"
       d="m 398.5,370.53125 -11.78125,0 388.90873,388.90873 11.78125,0 z"
       id="path5158" />
    <path
       inkscape:connector-curvature="0"
       d="m 386.71875,370.53125 0,-35.3125 388.90873,388.90873 0,35.3125 z"
       id="path5160" />
    <path
       inkscape:connector-curvature="0"
       d="m 386.71875,335.21875 -11.78125,0 388.90873,388.90873 11.78125,0 z"
       id="path5162" />
    <path
       inkscape:connector-curvature="0"
       d="m 374.9375,335.21875 -11.75,0 388.90873,388.90873 11.75,0 z"
       id="path5164" />
    <path
       inkscape:connector-curvature="0"
       d="m 163.4375,335.25 0,11.78125 388.90873,388.90873 0,-11.78125 z"
       id="path5166" />
    <path
       inkscape:connector-curvature="0"
       d="m 163.4375,347.03125 0,23.5 388.90873,388.90873 0,-23.5 z"
       id="path5168" />
    <path
       inkscape:connector-curvature="0"
       d="m 163.4375,370.53125 0,11.75 388.90873,388.90873 0,-11.75 z"
       id="path5170" />
    <path
       inkscape:connector-curvature="0"
       d="m 163.4375,382.28125 11.75,0 388.90873,388.90873 -11.75,0 z"
       id="path5172" />
    <path
       inkscape:connector-curvature="0"
       d="m 175.1875,382.28125 23.5625,0 388.90873,388.90873 -23.5625,0 z"
       id="path5174" />
    <path
       inkscape:connector-curvature="0"
       d="m 198.75,382.28125 0,-11.75 388.90873,388.90873 0,11.75 z"
       id="path5176" />
    <path
       inkscape:connector-curvature="0"
       d="m 198.75,370.53125 0,-35.28125 388.90873,388.90873 0,35.28125 z"
       id="path5178" />
    <path
       inkscape:connector-curvature="0"
       d="m 198.75,335.25 -23.5625,0 388.90873,388.90873 23.5625,0 z"
       id="path5180" />
    <path
       inkscape:connector-curvature="0"
       d="m 175.1875,335.25 -11.75,0 388.90873,388.90873 11.75,0 z"
       id="path5182" />
    <path
       inkscape:connector-curvature="0"
       d="m 313.25,335.25 0,11.78125 388.90873,388.90873 0,-11.78125 z"
       id="path5184" />
    <path
       inkscape:connector-curvature="0"
       d="m 313.25,347.03125 0,23.5 388.90873,388.90873 0,-23.5 z"
       id="path5186" />
    <path
       inkscape:connector-curvature="0"
       d="m 313.25,370.53125 0,11.75 388.90873,388.90873 0,-11.75 z"
       id="path5188" />
    <path
       inkscape:connector-curvature="0"
       d="m 313.25,382.28125 11.78125,0 388.90873,388.90873 -11.78125,0 z"
       id="path5190" />
    <path
       inkscape:connector-curvature="0"
       d="m 325.03125,382.28125 23.53125,0 388.90873,388.90873 -23.53125,0 z"
       id="path5192" />
    <path
       inkscape:connector-curvature="0"
       d="m 348.5625,382.28125 0,-11.75 388.90873,388.90873 0,11.75 z"
       id="path5194" />
    <path
       inkscape:connector-curvature="0"
       d="m 348.5625,370.53125 0,-35.28125 388.90873,388.90873 0,35.28125 z"
       id="path5196" />
    <path
       inkscape:connector-curvature="0"
       d="m 348.5625,335.25 -23.53125,0 388.90873,388.90873 23.53125,0 z"
       id="path5198" />
    <path
       inkscape:connector-curvature="0"
       d="m 325.03125,335.25 -11.78125,0 388.90873,388.90873 11.78125,0 z"
       id="path5200" />
    <path
       inkscape:connector-curvature="0"
       d="m 175.1875,347.03125 11.78125,0 388.90873,388.90873 -11.78125,0 z"
       id="path5202" />
    <path
       inkscape:connector-curvature="0"
       d="m 186.96875,347.03125 0,23.5 388.90873,388.90873 0,-23.5 z"
       id="path5204" />
    <path
       inkscape:connector-curvature="0"
       d="m 186.96875,370.53125 -11.78125,0 388.90873,388.90873 11.78125,0 z"
       id="path5206" />
    <path
       inkscape:connector-curvature="0"
       d="m 175.1875,370.53125 0,-23.5 388.90873,388.90873 0,23.5 z"
       id="path5208" />
    <path
       inkscape:connector-curvature="0"
       d="m 325.03125,347.03125 11.78125,0 388.90873,388.90873 -11.78125,0 z"
       id="path5210" />
    <path
       inkscape:connector-curvature="0"
       d="m 336.8125,347.03125 0,23.5 388.90873,388.90873 0,-23.5 z"
       id="path5212" />
    <path
       inkscape:connector-curvature="0"
       d="m 336.8125,370.53125 -11.78125,0 388.90873,388.90873 11.78125,0 z"
       id="path5214" />
    <path
       inkscape:connector-curvature="0"
       d="m 325.03125,370.53125 0,-23.5 388.90873,388.90873 0,23.5 z"
       id="path5216" />
  </g>
  <path
     style="fill-opacity:0.06700003;fill-rule:evenodd"
     inkscape:connector-curvature="0"
     id="path10"
     d="M 256,1 C 115.17,1 1,115.17 1,256 1,396.83 115.17,511 256,511 396.83,511 511,396.83 511,256 511,115.17 396.83,1 256,1 m 8.827,44.931 c 120.9,0 218.9,98 218.9,218.9 0,120.9 -98,218.9 -218.9,218.9 -120.9,0 -218.93,-98 -218.93,-218.9 0,-120.9 98.03,-218.9 218.93,-218.9" />
  <path
     d="M 256,4.43 C 117.06,4.43 4.43,117.06 4.43,256 4.43,394.94 117.06,507.57 256,507.57 394.94,507.57 507.57,394.94 507.57,256 507.57,117.06 394.94,4.43 256,4.43 m 5.885,38.556 c 120.9,0 218.9,98 218.9,218.9 0,120.9 -98,218.9 -218.9,218.9 -120.9,0 -218.93,-98 -218.93,-218.9 0,-120.9 98.03,-218.9 218.93,-218.9"
     id="path14"
     inkscape:connector-curvature="0"
     style="fill-opacity:0.12900002;fill-rule:evenodd" />
  <path
     d="M 256,8.36 C 119.23,8.36 8.36,119.23 8.36,256 8.36,392.77 119.23,503.64 256,503.64 392.77,503.64 503.64,392.77 503.64,256 503.64,119.23 392.77,8.36 256,8.36 m 2.942,31.691 c 120.9,0 218.9,98 218.9,218.9 0,120.9 -98,218.9 -218.9,218.9 -120.9,0 -218.93,-98 -218.93,-218.9 0,-120.9 98.03,-218.9 218.93,-218.9"
     id="path16"
     inkscape:connector-curvature="0"
     style="fill-opacity:0.12900002;fill-rule:evenodd" />
  <path
     style="fill:#ffffff;fill-rule:evenodd;stroke:#000000;stroke-width:4.90399981;stroke-opacity:0.31000001"
     inkscape:connector-curvature="0"
     id="path18"
     d="M 253.04,7.86 C 117.62,7.86 7.85,117.64 7.85,253.05 c 0,135.42 109.78,245.19 245.19,245.19 135.42,0 245.19,-109.78 245.19,-245.19 C 498.23,117.63 388.45,7.86 253.04,7.86 z m 0,26.297 c 120.9,0 218.9,98 218.9,218.9 0,120.9 -98,218.9 -218.9,218.9 -120.9,0 -218.93,-98 -218.93,-218.9 0,-120.9 98.03,-218.9 218.93,-218.9 z" />
  <text
     font-size="129.23"
     letter-spacing="0"
     line-height="125%"
     word-spacing="0"
     x="729.64001"
     y="231.35997"
     id="text20"
     sodipodi:linespacing="125%"
     style="font-size:129.22999573px;line-height:125%;letter-spacing:0;word-spacing:0;font-family:Gentium Book Basic">
    <tspan
       x="729.64001"
       y="231.35997"
       id="tspan22" />
  </text>
  <text
     x="378.90805"
     y="579.25812"
     font-size="46.954"
     transform="scale(4.0128205,0.24920128)"
     id="text24"
     style="font-size:46.95375824px;text-anchor:middle;font-family:Arial" />
  <text
     font-size="129.23"
     letter-spacing="0"
     line-height="125%"
     word-spacing="0"
     x="1310.91"
     y="151.35997"
     id="text26"
     sodipodi:linespacing="125%"
     style="font-size:129.22999573px;line-height:125%;letter-spacing:0;word-spacing:0;font-family:Gentium Book Basic">
    <tspan
       x="1310.91"
       y="151.35997"
       id="tspan28" />
  </text>
  <text
     x="523.75732"
     y="258.21997"
     font-size="46.954"
     transform="scale(4.0128205,0.24920128)"
     id="text30"
     style="font-size:46.95375824px;text-anchor:middle;font-family:Arial" />
  <text
     font-size="129.23"
     letter-spacing="0"
     line-height="125%"
     word-spacing="0"
     x="239.33"
     y="-29.900009"
     id="text32"
     sodipodi:linespacing="125%"
     style="font-size:129.22999573px;line-height:125%;letter-spacing:0;word-spacing:0;font-family:Gentium Book Basic">
    <tspan
       x="239.33"
       y="-29.900009"
       id="tspan34" />
  </text>
  <text
     x="256.71869"
     y="-469.1264"
     font-size="46.954"
     transform="scale(4.0128205,0.24920128)"
     id="text36"
     style="font-size:46.95375824px;text-anchor:middle;font-family:Arial" />
  <text
     font-size="129.23"
     letter-spacing="0"
     line-height="125%"
     word-spacing="0"
     x="1337.38"
     y="-246.37001"
     id="text38"
     sodipodi:linespacing="125%"
     style="font-size:129.22999573px;line-height:125%;letter-spacing:0;word-spacing:0;font-family:Gentium Book Basic">
    <tspan
       x="1337.38"
       y="-246.37001"
       id="tspan40" />
  </text>
  <text
     x="530.3573"
     y="-1337.802"
     font-size="46.954"
     transform="scale(4.0128205,0.24920128)"
     id="text42"
     style="font-size:46.95375824px;text-anchor:middle;font-family:Arial" />
  <text
     font-size="129.23"
     letter-spacing="0"
     line-height="125%"
     word-spacing="0"
     x="1918.65"
     y="-326.37"
     id="text44"
     sodipodi:linespacing="125%"
     style="font-size:129.22999573px;line-height:125%;letter-spacing:0;word-spacing:0;font-family:Gentium Book Basic">
    <tspan
       x="1918.65"
       y="-326.37"
       id="tspan46" />
  </text>
  <text
     x="675.20654"
     y="-1658.8303"
     font-size="46.954"
     transform="scale(4.0128205,0.24920128)"
     id="text48"
     style="font-size:46.95375824px;text-anchor:middle;font-family:Arial" />
  <text
     font-size="129.23"
     letter-spacing="0"
     line-height="125%"
     word-spacing="0"
     x="1529.53"
     y="-798.77002"
     id="text50"
     sodipodi:linespacing="125%"
     style="font-size:129.22999573px;line-height:125%;letter-spacing:0;word-spacing:0;font-family:Gentium Book Basic">
    <tspan
       x="1529.53"
       y="-798.77002"
       id="tspan52" />
  </text>
  <text
     x="578.237"
     y="-3554.4807"
     font-size="46.954"
     transform="scale(4.0128205,0.24920128)"
     id="text54"
     style="font-size:46.95375824px;text-anchor:middle;font-family:Arial" />
  <text
     font-size="129.23"
     letter-spacing="0"
     line-height="125%"
     word-spacing="0"
     x="2110.79"
     y="-878.78003"
     id="text56"
     sodipodi:linespacing="125%"
     style="font-size:129.22999573px;line-height:125%;letter-spacing:0;word-spacing:0;font-family:Gentium Book Basic">
    <tspan
       x="2110.79"
       y="-878.78003"
       id="tspan58" />
  </text>
  <text
     x="723.0863"
     y="-3875.519"
     font-size="46.954"
     transform="scale(4.0128205,0.24920128)"
     id="text60"
     style="font-size:46.95375824px;text-anchor:middle;font-family:Arial" />
  <text
     font-size="208.33"
     letter-spacing="0"
     line-height="125%"
     word-spacing="0"
     x="277.98999"
     y="535.94006"
     id="text62"
     sodipodi:linespacing="125%"
     style="font-size:208.33000183px;line-height:125%;letter-spacing:0;word-spacing:0;font-family:Gentium Book Basic">
    <tspan
       x="277.98999"
       y="535.94006"
       id="tspan64" />
  </text>
  <g
     transform="matrix(1.2073792,0,0,1.2073792,-28.128054,-87.33604)"
     id="g4429">
    <path
       inkscape:connector-curvature="0"
       style="fill:#ffffff"
       d="m 117.30881,179.75746 0,9.74808 9.74809,0 0,19.49615 -9.74809,0 0,9.74808 9.74809,0 9.74806,0 9.74808,0 0,-9.74808 -9.74808,0 0,-29.24423 -9.74806,0 -9.74809,0 z"
       id="path4243" />
    <path
       inkscape:connector-curvature="0"
       style="fill:#ffffff"
       d="m 158.65625,179.75 0,9.75 0,19.5 0,9.75 9.75,0 19.5,0 0,-9.75 0,-29.25 -19.5,0 -9.75,0 z m 9.75,9.75 9.75,0 0,19.5 -9.75,0 0,-19.5 z"
       id="path4241" />
    <path
       inkscape:connector-curvature="0"
       style="fill:#ffffff"
       d="m 200.01517,179.75746 0,9.74808 9.74808,0 0,19.49615 -9.74808,0 0,9.74808 9.74808,0 9.74808,0 9.74808,0 0,-9.74808 -9.74808,0 0,-29.24423 -9.74808,0 -9.74808,0 z"
       id="path4239" />
    <path
       inkscape:connector-curvature="0"
       style="fill:#ffffff"
       d="m 241.36836,179.75746 0,9.74808 9.74808,0 0,19.49615 -9.74808,0 0,9.74808 9.74808,0 9.74808,0 9.74808,0 0,-9.74808 -9.74808,0 0,-29.24423 -9.74808,0 -9.74808,0 z"
       id="path4237" />
    <path
       inkscape:connector-curvature="0"
       style="fill:#ffffff"
       d="m 282.75,179.75 0,9.75 0,19.5 0,9.75 9.75,0 19.5,0 0,-9.75 0,-29.25 -19.5,0 -9.75,0 z m 9.75,9.75 9.75,0 0,19.5 -9.75,0 0,-19.5 z"
       id="path4235" />
    <path
       inkscape:connector-curvature="0"
       style="fill:#ffffff"
       d="m 324.09375,179.75746 0,9.74808 9.74808,0 0,19.49615 -9.74808,0 0,9.74808 9.74808,0 9.74809,0 9.74808,0 0,-9.74808 -9.74808,0 0,-29.24423 -9.74809,0 -9.74808,0 z"
       id="path4233" />
    <path
       inkscape:connector-curvature="0"
       style="fill:#ffffff"
       d="m 117.3125,236.5 0,9.75 0,19.5 0,9.75 9.75,0 19.5,0 0,-9.75 0,-29.25 -19.5,0 -9.75,0 z m 9.75,9.75 9.75,0 0,19.5 -9.75,0 0,-19.5 z"
       id="path4221" />
    <path
       inkscape:connector-curvature="0"
       style="fill:#ffffff"
       d="m 158.65625,236.5 0,9.75 0,19.5 0,9.75 9.75,0 19.5,0 0,-9.75 0,-29.25 -19.5,0 -9.75,0 z m 9.75,9.75 9.75,0 0,19.5 -9.75,0 0,-19.5 z"
       id="path4219" />
    <path
       inkscape:connector-curvature="0"
       style="fill:#ffffff"
       d="m 200.01518,236.49433 0,9.74808 9.74808,0 0,19.49616 -9.74808,0 0,9.74808 9.74808,0 9.74807,0 9.74808,0 0,-9.74808 -9.74808,0 0,-29.24424 -9.74807,0 -9.74808,0 z"
       id="path4217" />
    <path
       inkscape:connector-curvature="0"
       style="fill:#ffffff"
       d="m 241.375,236.5 0,9.75 0,19.5 0,9.75 9.75,0 19.5,0 0,-9.75 0,-29.25 -19.5,0 -9.75,0 z m 9.75,9.75 9.75,0 0,19.5 -9.75,0 0,-19.5 z"
       id="path4215" />
    <path
       inkscape:connector-curvature="0"
       style="fill:#ffffff"
       d="m 282.75,236.5 0,9.75 0,19.5 0,9.75 9.75,0 19.5,0 0,-9.75 0,-29.25 -19.5,0 -9.75,0 z m 9.75,9.75 9.75,0 0,19.5 -9.75,0 0,-19.5 z"
       id="path4213" />
    <path
       inkscape:connector-curvature="0"
       style="fill:#ffffff"
       d="m 324.09377,236.49433 0,9.74808 9.74808,0 0,19.49616 -9.74808,0 0,9.74808 9.74808,0 9.74808,0 9.74808,0 0,-9.74808 -9.74808,0 0,-29.24424 -9.74808,0 -9.74808,0 z"
       id="path4211" />
    <path
       inkscape:connector-curvature="0"
       style="fill:#ffffff"
       d="m 117.3125,293.25 0,9.75 0,19.5 0,9.75 9.75,0 19.5,0 0,-9.75 0,-29.25 -19.5,0 -9.75,0 z m 9.75,9.75 9.75,0 0,19.5 -9.75,0 0,-19.5 z"
       id="path4195" />
    <path
       inkscape:connector-curvature="0"
       style="fill:#ffffff"
       d="m 158.66199,293.25024 0,9.74808 9.74808,0 0,19.49616 -9.74808,0 0,9.74808 9.74808,0 9.74808,0 9.74809,0 0,-9.74808 -9.74809,0 0,-29.24424 -9.74808,0 -9.74808,0 z"
       id="path4193" />
    <path
       inkscape:connector-curvature="0"
       style="fill:#ffffff"
       d="m 200,293.25 0,9.75 0,19.5 0,9.75 9.75,0 19.5,0 0,-9.75 0,-29.25 -19.5,0 -9.75,0 z m 9.75,9.75 9.75,0 0,19.5 -9.75,0 0,-19.5 z"
       id="path4191" />
    <path
       inkscape:connector-curvature="0"
       style="fill:#ffffff"
       d="m 241.375,293.25 0,9.75 0,19.5 0,9.75 9.75,0 19.5,0 0,-9.75 0,-29.25 -19.5,0 -9.75,0 z m 9.75,9.75 9.75,0 0,19.5 -9.75,0 0,-19.5 z"
       id="path4189" />
    <path
       inkscape:connector-curvature="0"
       style="fill:#ffffff"
       d="m 282.74059,293.25024 0,9.74808 9.74807,0 0,19.49616 -9.74807,0 0,9.74808 9.74807,0 9.74808,0 9.74808,0 0,-9.74808 -9.74808,0 0,-29.24424 -9.74808,0 -9.74807,0 z"
       id="path4187" />
    <path
       inkscape:connector-curvature="0"
       style="fill:#ffffff"
       d="m 324.09375,293.25 0,9.75 0,19.5 0,9.75 9.75,0 19.5,0 0,-9.75 0,-29.25 -19.5,0 -9.75,0 z m 9.75,9.75 9.75,0 0,19.5 -9.75,0 0,-19.5 z"
       id="path4185" />
    <path
       inkscape:connector-curvature="0"
       style="fill:#ffffff"
       d="m 117.30881,349.98711 0,9.74808 9.74809,0 0,19.49613 -9.74809,0 0,9.74811 9.74809,0 9.74806,0 9.74808,0 0,-9.74811 -9.74808,0 0,-29.24421 -9.74806,0 -9.74809,0 z"
       id="path4163" />
    <path
       inkscape:connector-curvature="0"
       style="fill:#ffffff"
       d="m 158.65625,350 0,9.75 0,19.46875 0,9.75 9.75,0 19.5,0 0,-9.75 0,-29.21875 -19.5,0 -9.75,0 z m 9.75,9.75 9.75,0 0,19.46875 -9.75,0 0,-19.46875 z"
       id="path4161" />
    <path
       inkscape:connector-curvature="0"
       style="fill:#ffffff"
       d="m 200.01518,349.98711 0,9.74808 9.74808,0 0,19.49613 -9.74808,0 0,9.74811 9.74808,0 9.74807,0 9.74808,0 0,-9.74811 -9.74808,0 0,-29.24421 -9.74807,0 -9.74808,0 z"
       id="path4159" />
    <path
       inkscape:connector-curvature="0"
       style="fill:#ffffff"
       d="m 241.36836,349.98711 0,9.74808 9.74808,0 0,19.49613 -9.74808,0 0,9.74811 9.74808,0 9.74808,0 9.74808,0 0,-9.74811 -9.74808,0 0,-29.24421 -9.74808,0 -9.74808,0 z"
       id="path4157" />
    <path
       inkscape:connector-curvature="0"
       style="fill:#ffffff"
       d="m 282.75,350 0,9.75 0,19.46875 0,9.75 9.75,0 19.5,0 0,-9.75 0,-29.21875 -19.5,0 -9.75,0 z m 9.75,9.75 9.75,0 0,19.46875 -9.75,0 0,-19.46875 z"
       id="path4155" />
    <path
       inkscape:connector-curvature="0"
       style="fill:#ffffff"
       d="m 324.09377,349.98711 0,9.74808 9.74808,0 0,19.49613 -9.74808,0 0,9.74811 9.74808,0 9.74808,0 9.74808,0 0,-9.74811 -9.74808,0 0,-29.24421 -9.74808,0 -9.74808,0 z"
       id="path4153" />
  </g>
</svg>
