<?xml version="1.0" encoding="UTF-8" standalone="no"?>
<!-- Created with Inkscape (http://www.inkscape.org/) -->

<svg
   xmlns:dc="http://purl.org/dc/elements/1.1/"
   xmlns:cc="http://creativecommons.org/ns#"
   xmlns:rdf="http://www.w3.org/1999/02/22-rdf-syntax-ns#"
   xmlns:svg="http://www.w3.org/2000/svg"
   xmlns="http://www.w3.org/2000/svg"
   xmlns:xlink="http://www.w3.org/1999/xlink"
   xmlns:inkscape="http://www.inkscape.org/namespaces/inkscape"
   version="1.1"
   width="100%"
   height="100%"
   viewBox="0 0 512 512"
   id="svg2">
  <metadata
     id="metadata77">
    <rdf:RDF>
      <cc:Work
         rdf:about="">
        <dc:format>image/svg+xml</dc:format>
        <dc:type
           rdf:resource="http://purl.org/dc/dcmitype/StillImage" />
      </cc:Work>
    </rdf:RDF>
  </metadata>
  <defs
     id="defs4">
    <path
       d="M 13,10.5 C 13,11.881 11.881,13 10.5,13 9.119,13 8,11.881 8,10.5 8,9.119 9.119,8 10.5,8 11.881,8 13,9.119 13,10.5"
       inkscape:connector-curvature="0"
       id="0"
       style="fill:#ffffff" />
  </defs>
  <g
     transform="translate(0,-540.36)"
     id="g7">
    <path
       d="m 280,423.79 c 0,78.898 -63.959,142.86 -142.86,142.86 -78.898,0 -142.86,-63.959 -142.86,-142.86 0,-78.898 63.959,-142.86 142.86,-142.86 78.898,0 142.86,63.959 142.86,142.86"
       inkscape:connector-curvature="0"
       transform="matrix(1.53232,0,0,1.53232,42.896,144.03)"
       id="path9"
       style="fill:#707175;fill-rule:evenodd" />
    <path
       d="m 203.38,114.69 c -11.212,0 -20.281,9.04 -20.281,20.19 0,1.949 0.263,3.842 0.781,5.625 l -12.719,11.844 c -4.672,-3.349 -10.394,-5.344 -16.594,-5.344 -15.697,0 -28.438,12.678 -28.438,28.28 0,7.896 3.3,14.981 8.563,20.09 0.368,0.395 0.735,0.783 1.125,1.156 0.322,0.34 0.661,0.676 1,1 0.322,0.34 0.661,0.676 1,1 0.322,0.34 0.661,0.676 1,1 0.389,0.411 0.774,0.8 1.188,1.188 0.041,0.043 0.084,0.083 0.125,0.125 0.127,0.117 0.246,0.229 0.375,0.344 0.475,0.518 0.956,1.019 1.469,1.5 0.005,0.006 -0.005,0.026 0,0.031 v 140.88 c -9.458,4.588 -15.969,14.241 -15.969,25.406 0,7.818 3.209,14.885 8.375,20 0.41,0.448 0.844,0.86 1.281,1.281 0.38,0.403 0.785,0.776 1.188,1.156 0.324,0.338 0.659,0.678 1,1 0.476,0.496 0.958,1.01 1.469,1.469 0.327,0.325 0.626,0.66 0.969,0.969 0.015,0.017 0.016,0.046 0.031,0.063 0.322,0.32 0.632,0.634 0.969,0.938 0.015,0.017 0.016,0.046 0.031,0.063 0.011,0.01 0.021,0.021 0.031,0.031 0.464,0.507 0.969,0.965 1.469,1.438 0.324,0.338 0.659,0.678 1,1 0.476,0.496 0.958,1.01 1.469,1.469 0.327,0.325 0.626,0.66 0.969,0.969 0.015,0.017 0.016,0.046 0.031,0.063 0.322,0.32 0.632,0.634 0.969,0.938 0.015,0.017 0.016,0.046 0.031,0.063 0.011,0.01 0.021,0.021 0.031,0.031 0.464,0.507 0.969,0.965 1.469,1.438 0.324,0.338 0.659,0.678 1,1 0.324,0.338 0.659,0.678 1,1 0.321,0.335 0.631,0.681 0.969,1 0.478,0.499 0.955,0.974 1.469,1.438 0.015,0.017 0.016,0.046 0.031,0.063 0.011,0.01 0.021,0.021 0.031,0.031 0.41,0.448 0.844,0.86 1.281,1.281 0.38,0.403 0.785,0.776 1.188,1.156 0.324,0.338 0.659,0.678 1,1 0.476,0.496 0.958,1.01 1.469,1.469 0.327,0.325 0.626,0.66 0.969,0.969 0.015,0.017 0.016,0.046 0.031,0.063 0.011,0.01 0.021,0.021 0.031,0.031 0.41,0.448 0.844,0.86 1.281,1.281 0.38,0.403 0.785,0.776 1.188,1.156 0.324,0.338 0.659,0.678 1,1 0.476,0.496 0.958,1.01 1.469,1.469 0.327,0.325 0.626,0.66 0.969,0.969 0.015,0.017 0.016,0.046 0.031,0.063 0.322,0.32 0.632,0.634 0.969,0.938 0.015,0.017 0.016,0.046 0.031,0.063 0.011,0.01 0.021,0.021 0.031,0.031 0.464,0.507 0.969,0.965 1.469,1.438 0.324,0.338 0.659,0.678 1,1 0.324,0.338 0.659,0.678 1,1 0.321,0.335 0.631,0.681 0.969,1 0.478,0.499 0.955,0.974 1.469,1.438 0.015,0.017 0.016,0.046 0.031,0.063 0.011,0.01 0.021,0.021 0.031,0.031 0.464,0.507 0.969,0.965 1.469,1.438 0.324,0.338 0.659,0.678 1,1 0.324,0.338 0.659,0.678 1,1 0.321,0.335 0.631,0.681 0.969,1 0.478,0.499 0.955,0.974 1.469,1.438 0.015,0.017 0.016,0.046 0.031,0.063 0.011,0.01 0.021,0.021 0.031,0.031 0.41,0.448 0.844,0.86 1.281,1.281 0.38,0.403 0.785,0.776 1.188,1.156 0.324,0.338 0.659,0.678 1,1 0.476,0.496 0.958,1.01 1.469,1.469 0.327,0.325 0.626,0.66 0.969,0.969 0.015,0.017 0.016,0.046 0.031,0.063 0.322,0.32 0.632,0.634 0.969,0.938 0.015,0.017 0.016,0.046 0.031,0.063 0.011,0.01 0.021,0.021 0.031,0.031 0.464,0.507 0.969,0.965 1.469,1.438 0.324,0.338 0.659,0.678 1,1 0.476,0.496 0.958,1.01 1.469,1.469 0.327,0.325 0.626,0.66 0.969,0.969 0.015,0.017 0.016,0.046 0.031,0.063 0.322,0.32 0.632,0.634 0.969,0.938 0.015,0.017 0.016,0.046 0.031,0.063 0.011,0.01 0.021,0.021 0.031,0.031 0.464,0.507 0.969,0.965 1.469,1.438 0.324,0.338 0.659,0.678 1,1 0.324,0.338 0.659,0.678 1,1 0.321,0.335 0.631,0.681 0.969,1 0.478,0.499 0.955,0.974 1.469,1.438 0.015,0.017 0.016,0.046 0.031,0.063 0.011,0.01 0.021,0.021 0.031,0.031 0.41,0.448 0.844,0.86 1.281,1.281 0.38,0.403 0.785,0.776 1.188,1.156 0.324,0.338 0.659,0.678 1,1 0.476,0.496 0.958,1.01 1.469,1.469 0.327,0.325 0.626,0.66 0.969,0.969 0.015,0.017 0.016,0.046 0.031,0.063 0.011,0.01 0.021,0.021 0.031,0.031 0.41,0.448 0.844,0.86 1.281,1.281 0.38,0.403 0.785,0.776 1.188,1.156 0.324,0.338 0.659,0.678 1,1 0.476,0.496 0.958,1.01 1.469,1.469 0.327,0.325 0.626,0.66 0.969,0.969 0.015,0.017 0.016,0.046 0.031,0.063 0.322,0.32 0.632,0.634 0.969,0.938 0.015,0.017 0.016,0.046 0.031,0.063 0.011,0.01 0.021,0.021 0.031,0.031 0.464,0.507 0.969,0.965 1.469,1.438 0.324,0.338 0.659,0.678 1,1 0.324,0.338 0.659,0.678 1,1 0.122,0.128 0.254,0.246 0.375,0.375 12.716,2.298 25.809,3.531 39.19,3.531 120.9,0 218.91,-98.01 218.91,-218.91 0,-1.252 -0.01,-2.503 -0.031,-3.75 -0.226,-0.22 -0.45,-0.442 -0.688,-0.656 -0.026,-0.026 -0.036,-0.068 -0.063,-0.094 -0.464,-0.507 -0.969,-0.965 -1.469,-1.438 -0.324,-0.338 -0.659,-0.678 -1,-1 -0.324,-0.338 -0.659,-0.678 -1,-1 -0.476,-0.496 -0.958,-1.01 -1.469,-1.469 -0.021,-0.021 -0.041,-0.041 -0.063,-0.063 -0.146,-0.159 -0.288,-0.313 -0.438,-0.469 -0.157,-0.148 -0.309,-0.293 -0.469,-0.438 -0.026,-0.026 -0.036,-0.068 -0.063,-0.094 -0.321,-0.351 -0.662,-0.666 -1,-1 -0.464,-0.507 -0.969,-0.965 -1.469,-1.438 -0.324,-0.338 -0.659,-0.678 -1,-1 -0.476,-0.496 -0.958,-1.01 -1.469,-1.469 -0.021,-0.021 -0.041,-0.041 -0.063,-0.063 -0.146,-0.159 -0.288,-0.313 -0.438,-0.469 -0.157,-0.148 -0.309,-0.293 -0.469,-0.438 -0.026,-0.026 -0.036,-0.068 -0.063,-0.094 -0.316,-0.345 -0.667,-0.671 -1,-1 -0.464,-0.507 -0.969,-0.965 -1.469,-1.438 -0.324,-0.338 -0.659,-0.678 -1,-1 -0.324,-0.338 -0.659,-0.678 -1,-1 -0.321,-0.335 -0.631,-0.681 -0.969,-1 -0.175,-0.182 -0.352,-0.353 -0.531,-0.531 -0.316,-0.345 -0.667,-0.671 -1,-1 -0.464,-0.507 -0.969,-0.965 -1.469,-1.438 -0.324,-0.338 -0.659,-0.678 -1,-1 -0.324,-0.338 -0.659,-0.678 -1,-1 -0.321,-0.335 -0.631,-0.681 -0.969,-1 -0.175,-0.182 -0.352,-0.353 -0.531,-0.531 -0.316,-0.345 -0.667,-0.671 -1,-1 -0.321,-0.351 -0.662,-0.666 -1,-1 -0.464,-0.507 -0.969,-0.965 -1.469,-1.438 -0.324,-0.338 -0.659,-0.678 -1,-1 -0.476,-0.496 -0.958,-1.01 -1.469,-1.469 -0.021,-0.021 -0.041,-0.041 -0.063,-0.063 -0.146,-0.159 -0.288,-0.313 -0.438,-0.469 -0.157,-0.148 -0.309,-0.293 -0.469,-0.438 -0.026,-0.026 -0.036,-0.068 -0.063,-0.094 -0.316,-0.345 -0.667,-0.671 -1,-1 -0.464,-0.507 -0.969,-0.965 -1.469,-1.438 -0.324,-0.338 -0.659,-0.678 -1,-1 -0.476,-0.496 -0.958,-1.01 -1.469,-1.469 -0.021,-0.021 -0.041,-0.041 -0.063,-0.063 -0.146,-0.159 -0.288,-0.313 -0.438,-0.469 -0.157,-0.148 -0.309,-0.293 -0.469,-0.438 -0.026,-0.026 -0.036,-0.068 -0.063,-0.094 -0.316,-0.345 -0.667,-0.671 -1,-1 -0.464,-0.507 -0.969,-0.965 -1.469,-1.438 -0.324,-0.338 -0.659,-0.678 -1,-1 -0.324,-0.338 -0.659,-0.678 -1,-1 -0.321,-0.335 -0.631,-0.681 -0.969,-1 -0.175,-0.182 -0.352,-0.353 -0.531,-0.531 -0.316,-0.345 -0.667,-0.671 -1,-1 -0.464,-0.507 -0.969,-0.965 -1.469,-1.438 -0.324,-0.338 -0.659,-0.678 -1,-1 -0.324,-0.338 -0.659,-0.678 -1,-1 -0.476,-0.496 -0.958,-1.01 -1.469,-1.469 -0.021,-0.021 -0.041,-0.041 -0.063,-0.063 -0.146,-0.159 -0.288,-0.313 -0.438,-0.469 -0.157,-0.148 -0.309,-0.293 -0.469,-0.438 -0.026,-0.026 -0.036,-0.068 -0.063,-0.094 -0.321,-0.351 -0.662,-0.666 -1,-1 -0.464,-0.507 -0.969,-0.965 -1.469,-1.438 -0.324,-0.338 -0.659,-0.678 -1,-1 -0.476,-0.496 -0.958,-1.01 -1.469,-1.469 -0.021,-0.021 -0.041,-0.041 -0.063,-0.063 -0.146,-0.159 -0.288,-0.313 -0.438,-0.469 -0.157,-0.148 -0.309,-0.293 -0.469,-0.438 -0.026,-0.026 -0.036,-0.068 -0.063,-0.094 -0.316,-0.345 -0.667,-0.671 -1,-1 -0.464,-0.507 -0.969,-0.965 -1.469,-1.438 -0.324,-0.338 -0.659,-0.678 -1,-1 -0.324,-0.338 -0.659,-0.678 -1,-1 -0.321,-0.335 -0.631,-0.681 -0.969,-1 -0.175,-0.182 -0.352,-0.353 -0.531,-0.531 -0.316,-0.345 -0.667,-0.671 -1,-1 -0.464,-0.507 -0.969,-0.965 -1.469,-1.438 -0.324,-0.338 -0.659,-0.678 -1,-1 -0.324,-0.338 -0.659,-0.678 -1,-1 -0.321,-0.335 -0.631,-0.681 -0.969,-1 -0.175,-0.182 -0.352,-0.353 -0.531,-0.531 -0.316,-0.345 -0.667,-0.671 -1,-1 -0.321,-0.351 -0.662,-0.666 -1,-1 -0.464,-0.507 -0.969,-0.965 -1.469,-1.438 -0.324,-0.338 -0.659,-0.678 -1,-1 -0.476,-0.496 -0.958,-1.01 -1.469,-1.469 -0.021,-0.021 -0.041,-0.041 -0.063,-0.063 -0.146,-0.159 -0.288,-0.313 -0.438,-0.469 -0.157,-0.148 -0.309,-0.293 -0.469,-0.438 -0.026,-0.026 -0.036,-0.068 -0.063,-0.094 -0.316,-0.345 -0.667,-0.671 -1,-1 -0.464,-0.507 -0.969,-0.965 -1.469,-1.438 -0.324,-0.338 -0.659,-0.678 -1,-1 -0.476,-0.496 -0.958,-1.01 -1.469,-1.469 -0.021,-0.021 -0.041,-0.041 -0.063,-0.063 -0.146,-0.159 -0.288,-0.313 -0.438,-0.469 -0.157,-0.148 -0.309,-0.293 -0.469,-0.438 -0.026,-0.026 -0.036,-0.068 -0.063,-0.094 -0.316,-0.345 -0.667,-0.671 -1,-1 -0.464,-0.507 -0.969,-0.965 -1.469,-1.438 -0.324,-0.338 -0.659,-0.678 -1,-1 -0.324,-0.338 -0.659,-0.678 -1,-1 -0.321,-0.335 -0.631,-0.681 -0.969,-1 -0.175,-0.182 -0.352,-0.353 -0.531,-0.531 -0.316,-0.345 -0.667,-0.671 -1,-1 -0.464,-0.507 -0.969,-0.965 -1.469,-1.438 -0.324,-0.338 -0.659,-0.678 -1,-1 -0.324,-0.338 -0.659,-0.678 -1,-1 -0.321,-0.335 -0.631,-0.681 -0.969,-1 -0.18,-0.188 -0.377,-0.348 -0.563,-0.531 -0.146,-0.159 -0.288,-0.313 -0.438,-0.469 -0.157,-0.148 -0.309,-0.293 -0.469,-0.438 -5.151,-5.14 -12.252,-8.344 -20.12,-8.344 -2.475,0 -4.867,0.314 -7.156,0.906 -0.22,-0.226 -0.457,-0.44 -0.688,-0.656 -0.336,-0.361 -0.701,-0.696 -1.063,-1.031 -0.304,-0.324 -0.613,-0.634 -0.938,-0.938 -0.352,-0.379 -0.713,-0.742 -1.094,-1.094 -0.274,-0.291 -0.553,-0.57 -0.844,-0.844 -0.335,-0.362 -0.671,-0.725 -1.031,-1.063 -0.336,-0.361 -0.701,-0.696 -1.063,-1.031 -0.322,-0.344 -0.655,-0.679 -1,-1 -0.304,-0.324 -0.613,-0.634 -0.938,-0.938 -0.352,-0.379 -0.713,-0.742 -1.094,-1.094 -0.309,-0.328 -0.638,-0.63 -0.969,-0.938 -0.267,-0.285 -0.53,-0.575 -0.813,-0.844 -0.368,-0.401 -0.757,-0.786 -1.156,-1.156 -0.322,-0.344 -0.655,-0.679 -1,-1 -0.322,-0.344 -0.655,-0.679 -1,-1 -0.304,-0.324 -0.613,-0.634 -0.938,-0.938 -0.373,-0.401 -0.752,-0.786 -1.156,-1.156 -0.253,-0.266 -0.514,-0.529 -0.781,-0.781 -0.352,-0.381 -0.714,-0.741 -1.094,-1.094 -0.322,-0.344 -0.655,-0.679 -1,-1 -0.322,-0.344 -0.655,-0.679 -1,-1 -0.304,-0.324 -0.613,-0.634 -0.938,-0.938 -0.352,-0.379 -0.713,-0.742 -1.094,-1.094 -0.274,-0.291 -0.553,-0.57 -0.844,-0.844 -0.335,-0.362 -0.671,-0.725 -1.031,-1.063 -0.336,-0.361 -0.701,-0.696 -1.063,-1.031 -0.322,-0.344 -0.655,-0.679 -1,-1 -3.7,-3.95 -8.952,-6.438 -14.813,-6.438 -7.718,0 -14.441,4.29 -17.875,10.594 h -68.69 c -0.005,-0.005 -0.026,0.005 -0.031,0 -0.084,-0.092 -0.164,-0.191 -0.25,-0.281 -0.021,-0.02 -0.041,-0.043 -0.063,-0.063 -0.308,-0.322 -0.608,-0.636 -0.938,-0.938 -0.333,-0.35 -0.674,-0.705 -1.031,-1.031 -0.308,-0.322 -0.64,-0.636 -0.969,-0.938 -0.323,-0.34 -0.654,-0.683 -1,-1 -3.704,-3.894 -8.937,-6.344 -14.75,-6.344"
       inkscape:connector-curvature="0"
       transform="translate(0,540.36)"
       id="path11"
       style="fill-opacity:0.23500001" />
    <g
       id="g13"
       style="fill-rule:evenodd">
      <path
         d="m 256,541.36 c -140.83,0 -255,114.17 -255,255 0,140.83 114.17,255 255,255 140.83,0 255,-114.17 255,-255 0,-140.83 -114.17,-255 -255,-255 m 8.827,44.931 c 120.9,0 218.9,98 218.9,218.9 0,120.9 -98,218.9 -218.9,218.9 -120.9,0 -218.93,-98 -218.93,-218.9 0,-120.9 98.03,-218.9 218.93,-218.9"
         inkscape:connector-curvature="0"
         id="path15"
         style="fill-opacity:0.06700003" />
      <g
         id="g17"
         style="fill-opacity:0.12900002">
        <path
           d="M 256,544.79 C 117.06,544.79 4.43,657.42 4.43,796.36 4.43,935.3 117.06,1047.93 256,1047.93 394.94,1047.93 507.57,935.3 507.57,796.36 507.57,657.42 394.94,544.79 256,544.79 m 5.885,38.556 c 120.9,0 218.9,98 218.9,218.9 0,120.9 -98,218.9 -218.9,218.9 -120.9,0 -218.93,-98 -218.93,-218.9 0,-120.9 98.03,-218.9 218.93,-218.9"
           inkscape:connector-curvature="0"
           id="path19" />
        <path
           d="M 256,548.72 C 119.23,548.72 8.36,659.59 8.36,796.36 8.36,933.13 119.23,1044 256,1044 392.77,1044 503.64,933.13 503.64,796.36 503.64,659.59 392.77,548.72 256,548.72 m 2.942,31.691 c 120.9,0 218.9,98 218.9,218.9 0,120.9 -98,218.9 -218.9,218.9 -120.9,0 -218.93,-98 -218.93,-218.9 0,-120.9 98.03,-218.9 218.93,-218.9"
           inkscape:connector-curvature="0"
           id="path21" />
      </g>
      <path
         d="M 253.04,548.22 C 117.62,548.22 7.85,658 7.85,793.41 c 0,135.42 109.78,245.19 245.19,245.19 135.42,0 245.19,-109.78 245.19,-245.19 0,-135.42 -109.78,-245.19 -245.19,-245.19 z m 0,26.297 c 120.9,0 218.9,98 218.9,218.9 0,120.9 -98,218.9 -218.9,218.9 -120.9,0 -218.93,-98 -218.93,-218.9 0,-120.9 98.03,-218.9 218.93,-218.9 z"
         inkscape:connector-curvature="0"
         id="path23"
         style="fill:#ffffff;stroke:#000000;stroke-width:4.90399981;stroke-opacity:0.31000001" />
    </g>
    <g
       transform="matrix(1.41298,0,0,1.41298,612.79,-230.45)"
       id="g25">
      <use
         transform="matrix(8.0459,0,0,7.99801,-265.11,585.42)"
         id="use27"
         x="0"
         y="0"
         width="1"
         height="1"
         xlink:href="#0" />
      <g
         id="g29"
         style="fill:#ffffff">
        <path
           d="m -333.2,677.94 v 119.97 h 17.241 V 677.94 z"
           inkscape:connector-curvature="0"
           id="path31" />
        <path
           d="m -188.8,803.69 h -120.69 v 5.713 h 120.69 z"
           inkscape:connector-curvature="0"
           id="path33" />
      </g>
      <use
         transform="matrix(5.74704,0,0,5.71287,-275.38,660.97)"
         id="use35"
         x="0"
         y="0"
         width="1"
         height="1"
         xlink:href="#0" />
      <use
         transform="matrix(8.0459,0,0,7.99801,-408.78,585.58)"
         id="use37"
         x="0"
         y="0"
         width="1"
         height="1"
         xlink:href="#0" />
      <use
         transform="matrix(8.0459,0,0,7.99801,-408.88,722.69)"
         id="use39"
         x="0"
         y="0"
         width="1"
         height="1"
         xlink:href="#0" />
      <use
         transform="matrix(8.0459,0,0,7.99801,-265.11,722.72)"
         id="use41"
         x="0"
         y="0"
         width="1"
         height="1"
         xlink:href="#0" />
      <g
         id="g43"
         style="fill:#ffffff">
        <path
           d="m -189.18,678.44 v 119.97 h 17.241 V 678.44 z"
           inkscape:connector-curvature="0"
           id="path45" />
        <path
           d="m -189.82,660.84 h -120.69 v 17.14 h 120.69 z"
           inkscape:connector-curvature="0"
           id="path47" />
        <path
           d="m -184.23,797.95 h -133.9 v 17.14 h 133.9 z"
           inkscape:connector-curvature="0"
           id="path49" />
      </g>
      <use
         transform="matrix(5.74704,0,0,5.71287,-350.09,660.97)"
         id="use51"
         x="0"
         y="0"
         width="1"
         height="1"
         xlink:href="#0" />
      <use
         transform="matrix(5.74704,0,0,5.71287,-350.09,580.99)"
         id="use53"
         x="0"
         y="0"
         width="1"
         height="1"
         xlink:href="#0" />
      <use
         transform="matrix(5.74704,0,0,5.71287,-275.38,580.99)"
         id="use55"
         x="0"
         y="0"
         width="1"
         height="1"
         xlink:href="#0" />
      <g
         id="g57"
         style="fill:#ffffff">
        <path
           d="m -296.69,647.17 v 69.38 h 11.494 v -69.38 z"
           inkscape:connector-curvature="0"
           id="path59" />
        <path
           d="m -219.97,647.63 v 69.38 h 11.494 v -69.38 z"
           inkscape:connector-curvature="0"
           id="path61" />
        <path
           d="m -217.42,634.19 h -69.791 v 11.426 h 69.791 z"
           inkscape:connector-curvature="0"
           id="path63" />
        <path
           d="m -217.42,714.98 h -69.791 v 11.426 h 69.791 z"
           inkscape:connector-curvature="0"
           id="path65" />
        <path
           d="m -290.75,712.69 -43.13,103.6 9.27,3.813 43.13,-103.6 z"
           inkscape:connector-curvature="0"
           id="path67" />
        <path
           d="m -213.87,712.69 43.13,103.6 -9.27,3.813 -43.13,-103.6 z"
           inkscape:connector-curvature="0"
           id="path69" />
        <path
           d="m -212.15,635.17 37,34.461 -5.343,4.889 -37,-34.462 z"
           inkscape:connector-curvature="0"
           id="path71" />
        <path
           d="m -295.41,637.39 -37,34.461 5.343,4.889 37,-34.462 z"
           inkscape:connector-curvature="0"
           id="path73" />
      </g>
    </g>
  </g>
</svg>
