<?xml version="1.0" encoding="UTF-8" standalone="no"?>
<!-- Created with Inkscape (http://www.inkscape.org/) -->

<svg
   xmlns:dc="http://purl.org/dc/elements/1.1/"
   xmlns:cc="http://creativecommons.org/ns#"
   xmlns:rdf="http://www.w3.org/1999/02/22-rdf-syntax-ns#"
   xmlns:svg="http://www.w3.org/2000/svg"
   xmlns="http://www.w3.org/2000/svg"
   xmlns:inkscape="http://www.inkscape.org/namespaces/inkscape"
   version="1.1"
   width="100%"
   height="100%"
   viewBox="0 0 512 512"
   id="svg2">
  <metadata
     id="metadata80">
    <rdf:RDF>
      <cc:Work
         rdf:about="">
        <dc:format>image/svg+xml</dc:format>
        <dc:type
           rdf:resource="http://purl.org/dc/dcmitype/StillImage" />
      </cc:Work>
    </rdf:RDF>
  </metadata>
  <defs
     id="defs78" />
  <path
     d="m 471.95,253.05 c 0,120.9 -98.01,218.9 -218.9,218.9 -120.9,0 -218.9,-98.01 -218.9,-218.9 0,-120.9 98.01,-218.9 218.9,-218.9 120.9,0 218.9,98.01 218.9,218.9"
     inkscape:connector-curvature="0"
     id="path4"
     style="fill:#ef6a47;fill-rule:evenodd" />
  <path
     d="m 230.72,102.66 c -1.783,0.102 -3.451,0.573 -5.03,1.25 -1.614,0.655 -3.112,1.565 -4.5,2.75 -1.388,1.208 -2.702,2.706 -3.594,4.625 -0.903,1.896 -1.251,4.364 -0.563,6.531 0.563,1.8 1.639,3.215 2.813,4.313 0.34,0.409 0.722,0.754 1.094,1.094 0.311,0.362 0.665,0.694 1,1 0.334,0.389 0.702,0.738 1.063,1.063 0.316,0.363 0.629,0.695 0.969,1 0.326,0.375 0.681,0.686 1.031,1 0.298,0.342 0.618,0.615 0.938,0.906 0.295,0.345 0.589,0.643 0.906,0.938 0.331,0.394 0.702,0.733 1.063,1.063 0.334,0.389 0.702,0.738 1.063,1.063 0.316,0.363 0.629,0.695 0.969,1 0.326,0.375 0.681,0.686 1.031,1 0.298,0.342 0.618,0.615 0.938,0.906 0.295,0.345 0.589,0.643 0.906,0.938 0.331,0.394 0.702,0.733 1.063,1.063 0.311,0.362 0.665,0.694 1,1 0.333,0.389 0.671,0.738 1.031,1.063 0.32,0.369 0.655,0.69 1,1 0.207,0.238 0.438,0.443 0.656,0.656 0.225,1.518 0.086,3.036 -0.219,4.719 -0.824,4.83 -3.776,10.231 -6.688,16.16 l 0.469,0.594 c 0.306,-0.108 0.61,-0.222 0.906,-0.344 -0.126,0.254 -0.249,0.494 -0.375,0.75 l 0.469,0.594 c 0.306,-0.108 0.61,-0.222 0.906,-0.344 -0.126,0.254 -0.249,0.494 -0.375,0.75 l 0.469,0.594 c 0.313,-0.11 0.603,-0.219 0.906,-0.344 -0.125,0.253 -0.25,0.495 -0.375,0.75 l 0.469,0.594 c 0.304,-0.107 0.58,-0.254 0.875,-0.375 -0.126,0.254 -0.249,0.494 -0.375,0.75 l 0.469,0.594 c 0.306,-0.108 0.61,-0.222 0.906,-0.344 -0.126,0.254 -0.249,0.494 -0.375,0.75 l 0.469,0.594 c 0.306,-0.108 0.61,-0.222 0.906,-0.344 -0.126,0.254 -0.249,0.494 -0.375,0.75 l 0.469,0.594 c 0.306,-0.108 0.61,-0.222 0.906,-0.344 -0.126,0.254 -0.249,0.494 -0.375,0.75 l 0.469,0.594 c 0.306,-0.108 0.61,-0.222 0.906,-0.344 -0.126,0.254 -0.249,0.494 -0.375,0.75 l 0.469,0.594 c 0.316,-0.112 0.6,-0.249 0.906,-0.375 -0.13,0.263 -0.245,0.517 -0.375,0.781 l 0.469,0.594 c 0.304,-0.107 0.58,-0.254 0.875,-0.375 -0.126,0.254 -0.249,0.494 -0.375,0.75 l 0.469,0.594 c 0.306,-0.108 0.61,-0.222 0.906,-0.344 -0.126,0.254 -0.249,0.494 -0.375,0.75 l 0.469,0.594 c 0.306,-0.108 0.61,-0.222 0.906,-0.344 -0.126,0.254 -0.249,0.494 -0.375,0.75 10e-4,10e-4 0.216,0.306 0.344,0.469 -56.799,1.979 -106.04,26.744 -108.09,69 0.056,0.79 0.236,1.596 0.281,2.375 1.103,48.884 21.08,91.72 50.969,116.94 0.412,0.359 0.834,0.711 1.25,1.063 0.477,0.415 0.955,0.844 1.438,1.25 0.511,0.443 1.046,0.849 1.563,1.281 0.061,0.054 0.126,0.102 0.188,0.156 0.304,0.262 0.6,0.523 0.906,0.781 0.082,0.073 0.168,0.146 0.25,0.219 0.64,0.553 1.256,1.12 1.906,1.656 0.079,0.068 0.17,0.12 0.25,0.188 0.152,0.137 0.316,0.27 0.469,0.406 0.36,0.31 0.7,0.632 1.063,0.938 0.565,0.49 1.146,0.961 1.719,1.438 0.332,0.285 0.666,0.563 1,0.844 0.05,0.044 0.107,0.081 0.156,0.125 0.429,0.37 0.848,0.763 1.281,1.125 0.276,0.238 0.566,0.484 0.844,0.719 0.27,0.221 0.541,0.438 0.813,0.656 0.332,0.284 0.635,0.596 0.969,0.875 0.436,0.376 0.872,0.757 1.313,1.125 0.573,0.494 1.169,0.958 1.75,1.438 0.128,0.11 0.246,0.235 0.375,0.344 0.579,0.506 1.163,1.01 1.75,1.5 0.039,0.035 0.086,0.059 0.125,0.094 0.522,0.449 1.034,0.906 1.563,1.344 0.156,0.134 0.312,0.273 0.469,0.406 0.092,0.075 0.189,0.144 0.281,0.219 0.11,0.099 0.233,0.183 0.344,0.281 0.41,0.353 0.805,0.717 1.219,1.063 0.028,0.025 0.066,0.038 0.094,0.063 0.324,0.279 0.642,0.569 0.969,0.844 0.455,0.395 0.915,0.771 1.375,1.156 0.093,0.084 0.188,0.167 0.281,0.25 0.376,0.324 0.745,0.651 1.125,0.969 0.061,0.054 0.127,0.102 0.188,0.156 0.364,0.313 0.726,0.63 1.094,0.938 0.071,0.064 0.147,0.124 0.219,0.188 0.006,0.005 0.025,-0.005 0.031,0 0.212,0.182 0.412,0.382 0.625,0.563 0.646,0.565 1.312,1.11 1.969,1.656 0.044,0.039 0.081,0.086 0.125,0.125 0.281,0.241 0.561,0.482 0.844,0.719 0.437,0.379 0.87,0.754 1.313,1.125 0.532,0.462 1.054,0.927 1.594,1.375 0.028,0.025 0.066,0.038 0.094,0.063 0.04,0.033 0.085,0.06 0.125,0.094 0.157,0.135 0.311,0.273 0.469,0.406 0.52,0.456 1.035,0.901 1.563,1.344 0.154,0.138 0.314,0.269 0.469,0.406 0.428,0.367 0.849,0.735 1.281,1.094 0.011,0.01 0.02,0.022 0.031,0.031 0.186,0.159 0.376,0.311 0.563,0.469 0.534,0.468 1.083,0.921 1.625,1.375 0.152,0.137 0.316,0.27 0.469,0.406 0.219,0.188 0.436,0.377 0.656,0.563 0.594,0.519 1.178,1.029 1.781,1.531 0.426,0.367 0.85,0.735 1.281,1.094 0.409,0.353 0.837,0.687 1.25,1.031 0.066,0.057 0.121,0.13 0.188,0.188 0.028,0.025 0.066,0.038 0.094,0.063 0.167,0.143 0.332,0.295 0.5,0.438 0.499,0.438 0.994,0.887 1.5,1.313 0.585,0.51 1.187,1.01 1.781,1.5 0.442,0.381 0.896,0.754 1.344,1.125 0.049,0.044 0.107,0.081 0.156,0.125 0.151,0.129 0.286,0.278 0.438,0.406 0.155,0.126 0.313,0.25 0.469,0.375 0.131,0.118 0.275,0.227 0.406,0.344 0.31,0.265 0.594,0.552 0.906,0.813 0.409,0.354 0.836,0.686 1.25,1.031 0.153,0.138 0.315,0.269 0.469,0.406 0.27,0.231 0.54,0.46 0.813,0.688 0.165,0.149 0.335,0.29 0.5,0.438 0.314,0.269 0.62,0.548 0.938,0.813 0.121,0.109 0.253,0.204 0.375,0.313 0.134,0.115 0.272,0.23 0.406,0.344 0.612,0.538 1.221,1.076 1.844,1.594 0.548,0.475 1.099,0.947 1.656,1.406 0.017,0.015 0.046,0.016 0.063,0.031 0.118,0.101 0.225,0.212 0.344,0.313 0.132,0.107 0.274,0.206 0.406,0.313 0.186,0.168 0.376,0.334 0.563,0.5 0.157,0.134 0.311,0.273 0.469,0.406 0.533,0.467 1.083,0.923 1.625,1.375 0.174,0.158 0.356,0.313 0.531,0.469 0.135,0.116 0.27,0.229 0.406,0.344 0.562,0.494 1.116,0.992 1.688,1.469 0.42,0.365 0.856,0.708 1.281,1.063 0.292,0.254 0.58,0.501 0.875,0.75 0.103,0.084 0.209,0.167 0.313,0.25 0.407,0.356 0.806,0.716 1.219,1.063 0.394,0.345 0.788,0.664 1.188,1 0.43,0.378 0.845,0.757 1.281,1.125 0.689,0.607 1.389,1.171 2.094,1.75 0.061,0.054 0.127,0.102 0.188,0.156 0.084,0.071 0.166,0.148 0.25,0.219 0.577,0.509 1.162,1.01 1.75,1.5 0.605,0.526 1.227,1.058 1.844,1.563 0.107,0.091 0.205,0.191 0.313,0.281 0.08,0.065 0.17,0.123 0.25,0.188 0.034,0.028 0.06,0.066 0.094,0.094 0.388,0.339 0.795,0.67 1.188,1 0.612,0.538 1.219,1.079 1.844,1.594 0.179,0.154 0.351,0.317 0.531,0.469 0.07,0.056 0.149,0.1 0.219,0.156 0.062,0.052 0.125,0.104 0.188,0.156 0.379,0.331 0.772,0.646 1.156,0.969 0.612,0.537 1.219,1.08 1.844,1.594 0.23,0.198 0.456,0.399 0.688,0.594 0.555,0.489 1.122,0.968 1.688,1.438 0.514,0.447 1.039,0.882 1.563,1.313 0.335,0.288 0.661,0.594 1,0.875 0.424,0.37 0.851,0.736 1.281,1.094 0.473,0.413 0.956,0.82 1.438,1.219 0.374,0.325 0.746,0.653 1.125,0.969 0.463,0.405 0.935,0.797 1.406,1.188 0.52,0.453 1.032,0.908 1.563,1.344 0.291,0.251 0.581,0.505 0.875,0.75 0.551,0.484 1.093,0.974 1.656,1.438 0.365,0.316 0.755,0.599 1.125,0.906 0.43,0.376 0.844,0.762 1.281,1.125 0.514,0.449 1.038,0.882 1.563,1.313 0.252,0.218 0.495,0.442 0.75,0.656 0.567,0.501 1.139,0.99 1.719,1.469 0.521,0.453 1.031,0.91 1.563,1.344 0.326,0.281 0.67,0.539 1,0.813 0.407,0.356 0.805,0.719 1.219,1.063 0.473,0.414 0.956,0.821 1.438,1.219 0.408,0.355 0.804,0.72 1.219,1.063 0.429,0.375 0.876,0.733 1.313,1.094 0.509,0.445 1.012,0.887 1.531,1.313 0.189,0.164 0.372,0.339 0.563,0.5 0.032,0.04 0.064,0.082 0.094,0.125 70.09,-17.955 126.6,-69.75 151.16,-136.94 -0.198,-0.176 -0.397,-0.353 -0.594,-0.531 -0.055,-0.047 -0.101,-0.109 -0.156,-0.156 -0.297,-0.266 -0.599,-0.521 -0.906,-0.781 -0.17,-0.162 -0.357,-0.309 -0.531,-0.469 0.425,-0.769 0.87,-1.593 1.313,-2.531 l -0.344,-0.688 c -0.27,-0.038 -0.524,-0.057 -0.781,-0.063 0.041,-0.086 0.084,-0.162 0.125,-0.25 -0.01,-0.021 -0.344,-0.688 -0.344,-0.688 -0.269,-0.037 -0.525,-0.057 -0.781,-0.063 0.041,-0.086 0.084,-0.162 0.125,-0.25 l -0.344,-0.688 c -0.268,-0.037 -0.526,-0.057 -0.781,-0.063 0.042,-0.087 0.083,-0.161 0.125,-0.25 -0.01,-0.021 -0.344,-0.688 -0.344,-0.688 -0.256,-0.035 -0.507,-0.056 -0.75,-0.063 0.038,-0.079 0.087,-0.138 0.125,-0.219 0,0 -0.031,-0.031 -0.031,-0.031 l -0.313,-0.656 c -0.007,-0.001 -0.025,0 -0.031,0 -0.263,-0.037 -0.499,-0.057 -0.75,-0.063 0.042,-0.088 0.083,-0.161 0.125,-0.25 v -0.031 c -0.01,-0.02 -0.344,-0.656 -0.344,-0.656 -0.008,-0.001 -0.023,0 -0.031,0 -0.262,-0.036 -0.501,-0.057 -0.75,-0.063 0.042,-0.087 0.083,-0.161 0.125,-0.25 0,0 0,-0.031 0,-0.031 l -0.344,-0.656 c -0.01,-0.001 -0.022,0 -0.031,0 -0.26,-0.036 -0.502,-0.057 -0.75,-0.063 0.042,-0.087 0.083,-0.162 0.125,-0.25 0,0 0,-0.031 0,-0.031 -0.01,-0.02 -0.344,-0.656 -0.344,-0.656 -0.012,-0.002 -0.02,0 -0.031,0 -0.259,-0.036 -0.503,-0.057 -0.75,-0.063 0.042,-0.086 0.083,-0.162 0.125,-0.25 0,0 0,-0.031 0,-0.031 l -0.344,-0.656 c -0.013,-0.002 -0.019,10e-4 -0.031,0 -0.258,-0.036 -0.504,-0.057 -0.75,-0.063 0.042,-0.086 0.083,-0.162 0.125,-0.25 0,0 0,-0.031 0,-0.031 -0.01,-0.02 -0.344,-0.656 -0.344,-0.656 -0.015,-0.002 -0.017,0 -0.031,0 -0.246,-0.034 -0.485,-0.056 -0.719,-0.063 0.038,-0.078 0.087,-0.139 0.125,-0.219 0,0 -0.031,-0.062 -0.031,-0.063 -0.01,-0.02 -0.313,-0.625 -0.313,-0.625 -0.016,-0.002 -0.047,-0.031 -0.063,-0.031 -0.253,-0.035 -0.478,-0.026 -0.719,-0.031 0.042,-0.086 0.083,-0.162 0.125,-0.25 0,0 -0.031,-0.031 -0.031,-0.031 -0.01,-0.02 -0.313,-0.656 -0.313,-0.656 -0.018,-0.003 -0.045,10e-4 -0.063,0 -0.252,-0.035 -0.479,-0.057 -0.719,-0.063 0.042,-0.087 0.083,-0.162 0.125,-0.25 0,0 -0.031,-0.031 -0.031,-0.031 -0.01,-0.02 -0.313,-0.656 -0.313,-0.656 -0.02,-0.003 -0.044,0 -0.063,0 -0.251,-0.035 -0.48,-0.057 -0.719,-0.063 0.042,-0.086 0.084,-0.162 0.125,-0.25 0,0 -0.031,-0.031 -0.031,-0.031 -0.01,-0.019 -0.313,-0.656 -0.313,-0.656 -0.021,-0.003 -0.042,0 -0.063,0 -0.249,-0.035 -0.481,-0.057 -0.719,-0.063 0.042,-0.087 0.083,-0.161 0.125,-0.25 l -0.031,-0.031 c -0.01,-0.019 -0.313,-0.656 -0.313,-0.656 -0.023,-0.003 -0.041,0 -0.063,0 -0.248,-0.034 -0.483,-0.057 -0.719,-0.063 0.042,-0.087 0.083,-0.161 0.125,-0.25 0,0 0,-0.031 0,-0.031 -0.01,-0.019 -0.344,-0.656 -0.344,-0.656 -0.024,-0.003 -0.039,0 -0.063,0 -0.236,-0.033 -0.463,-0.056 -0.688,-0.063 0.038,-0.079 0.087,-0.138 0.125,-0.219 0,0 -0.031,-0.062 -0.031,-0.063 -0.01,-0.019 -0.313,-0.625 -0.313,-0.625 -0.026,-0.004 -0.069,-0.031 -0.094,-0.031 -0.243,-0.034 -0.456,-0.026 -0.688,-0.031 0.042,-0.087 0.083,-0.161 0.125,-0.25 0,0 -0.031,-0.062 -0.031,-0.063 -0.01,-0.019 -0.313,-0.625 -0.313,-0.625 -0.028,-0.004 -0.067,0 -0.094,0 -0.242,-0.034 -0.457,-0.057 -0.688,-0.063 0.042,-0.087 0.083,-0.161 0.125,-0.25 0,0 -0.031,-0.062 -0.031,-0.063 -0.009,-0.019 -0.313,-0.625 -0.313,-0.625 -0.029,-0.004 -0.066,10e-4 -0.094,0 -0.241,-0.033 -0.458,-0.057 -0.688,-0.063 0.042,-0.086 0.083,-0.162 0.125,-0.25 0,0 -0.031,-0.062 -0.031,-0.063 -0.009,-0.019 -0.313,-0.625 -0.313,-0.625 -0.031,-0.004 -0.064,0 -0.094,0 -0.239,-0.033 -0.459,-0.057 -0.688,-0.063 0.042,-0.087 0.083,-0.162 0.125,-0.25 l -0.031,-0.063 c -0.009,-0.019 -0.313,-0.625 -0.313,-0.625 -0.033,-0.005 -0.063,0 -0.094,0 -0.238,-0.033 -0.461,-0.057 -0.688,-0.063 0.042,-0.086 0.084,-0.162 0.125,-0.25 0,0 -0.031,-0.062 -0.031,-0.063 -0.009,-0.019 -0.313,-0.625 -0.313,-0.625 -0.034,-0.005 -0.061,10e-4 -0.094,0 -0.226,-0.031 -0.441,-0.056 -0.656,-0.063 0.038,-0.078 0.087,-0.139 0.125,-0.219 l -0.063,-0.094 c -0.009,-0.019 -0.281,-0.594 -0.281,-0.594 -0.036,-0.005 -0.091,-0.031 -0.125,-0.031 -0.233,-0.032 -0.434,-0.026 -0.656,-0.031 0.042,-0.087 0.083,-0.161 0.125,-0.25 0,0 -0.062,-0.093 -0.063,-0.094 -0.009,-0.018 -0.281,-0.594 -0.281,-0.594 -0.037,-0.005 -0.089,-0.031 -0.125,-0.031 -0.232,-0.032 -0.435,-0.026 -0.656,-0.031 0.042,-0.086 0.083,-0.162 0.125,-0.25 l -0.063,-0.094 c -0.009,-0.018 -0.281,-0.594 -0.281,-0.594 -0.039,-0.005 -0.088,10e-4 -0.125,0 -0.231,-0.032 -0.436,-0.057 -0.656,-0.063 0.041,-0.086 0.084,-0.162 0.125,-0.25 0,0 -0.031,-0.094 -0.031,-0.094 -0.009,-0.018 -0.313,-0.594 -0.313,-0.594 -0.041,-0.006 -0.086,0 -0.125,0 -0.23,-0.032 -0.438,-0.057 -0.656,-0.063 0.042,-0.087 0.083,-0.161 0.125,-0.25 0,0 -0.031,-0.093 -0.031,-0.094 -0.009,-0.018 -0.313,-0.594 -0.313,-0.594 -0.042,-0.006 -0.084,0 -0.125,0 -0.228,-0.032 -0.439,-0.057 -0.656,-0.063 0.042,-0.087 0.083,-0.161 0.125,-0.25 0,0 -0.031,-0.093 -0.031,-0.094 l -0.313,-0.594 c -0.044,-0.006 -0.083,10e-4 -0.125,0 -0.227,-0.031 -0.44,-0.057 -0.656,-0.063 0.042,-0.086 0.083,-0.162 0.125,-0.25 l -0.031,-0.094 c -0.009,-0.018 -0.313,-0.594 -0.313,-0.594 -0.046,-0.006 -0.081,0.001 -0.125,0 -0.215,-0.03 -0.42,-0.057 -0.625,-0.063 0.038,-0.078 0.087,-0.139 0.125,-0.219 0,0 -0.062,-0.125 -0.063,-0.125 -0.009,-0.018 -0.281,-0.563 -0.281,-0.563 -0.047,-0.007 -0.111,-0.031 -0.156,-0.031 -0.222,-0.031 -0.414,-0.026 -0.625,-0.031 0.042,-0.087 0.083,-0.161 0.125,-0.25 0,0 -0.062,-0.125 -0.063,-0.125 -0.009,-0.018 -0.281,-0.563 -0.281,-0.563 -0.049,-0.007 -0.11,-0.031 -0.156,-0.031 -0.221,-0.031 -0.415,-0.026 -0.625,-0.031 0.042,-0.087 0.083,-0.161 0.125,-0.25 0,0 -0.062,-0.093 -0.063,-0.094 -0.009,-0.018 -0.281,-0.594 -0.281,-0.594 -0.05,-0.007 -0.108,10e-4 -0.156,0 -0.22,-0.031 -0.416,-0.057 -0.625,-0.063 0.042,-0.086 0.083,-0.162 0.125,-0.25 0,0 -0.062,-0.093 -0.063,-0.094 -0.009,-0.017 -0.281,-0.594 -0.281,-0.594 -0.052,-0.007 -0.106,0 -0.156,0 -0.218,-0.03 -0.417,-0.057 -0.625,-0.063 0.041,-0.086 0.084,-0.162 0.125,-0.25 0,0 -0.062,-0.093 -0.063,-0.094 -0.009,-0.017 -0.281,-0.594 -0.281,-0.594 -0.053,-0.007 -0.105,0 -0.156,0 -0.217,-0.03 -0.418,-0.057 -0.625,-0.063 0.042,-0.086 0.084,-0.162 0.125,-0.25 0,0 -0.031,-0.093 -0.031,-0.094 -0.009,-0.017 -0.313,-0.594 -0.313,-0.594 -0.055,-0.008 -0.103,0 -0.156,0 -0.205,-0.028 -0.399,-0.057 -0.594,-0.063 0.038,-0.078 0.088,-0.139 0.125,-0.219 0,0 -0.062,-0.125 -0.063,-0.125 -0.009,-0.017 -0.281,-0.563 -0.281,-0.563 -0.057,-0.008 -0.133,-0.031 -0.188,-0.031 -0.212,-0.029 -0.392,-0.026 -0.594,-0.031 0.041,-0.086 0.084,-0.162 0.125,-0.25 0,0 -0.062,-0.125 -0.063,-0.125 -0.009,-0.017 -0.281,-0.563 -0.281,-0.563 -0.058,-0.008 -0.131,-0.031 -0.188,-0.031 -0.211,-0.029 -0.393,-0.026 -0.594,-0.031 0.042,-0.088 0.083,-0.16 0.125,-0.25 0,0 -0.062,-0.125 -0.063,-0.125 -0.008,-0.017 -0.281,-0.563 -0.281,-0.563 -0.06,-0.008 -0.13,0 -0.188,0 -0.21,-0.029 -0.394,-0.057 -0.594,-0.063 0.042,-0.087 0.083,-0.161 0.125,-0.25 0,0 -0.062,-0.125 -0.063,-0.125 -0.008,-0.017 -0.281,-0.563 -0.281,-0.563 -0.062,-0.009 -0.128,0 -0.188,0 -0.208,-0.029 -0.395,-0.057 -0.594,-0.063 0.042,-0.087 0.083,-0.161 0.125,-0.25 0,0 -0.062,-0.125 -0.063,-0.125 -0.008,-0.017 -0.281,-0.563 -0.281,-0.563 -0.063,-0.009 -0.127,0 -0.188,0 -0.207,-0.029 -0.397,-0.057 -0.594,-0.063 0.042,-0.086 0.083,-0.162 0.125,-0.25 0,0 -0.062,-0.125 -0.063,-0.125 -0.008,-0.017 -0.281,-0.563 -0.281,-0.563 -0.065,-0.009 -0.125,0 -0.188,0 -0.194,-0.027 -0.378,-0.025 -0.563,-0.031 0.042,-0.087 0.083,-0.161 0.125,-0.25 0,0 -0.094,-0.156 -0.094,-0.156 -0.008,-0.017 -0.25,-0.531 -0.25,-0.531 -0.066,-0.009 -0.155,-0.031 -0.219,-0.031 -0.202,-0.028 -0.37,-0.026 -0.563,-0.031 0.042,-0.087 0.083,-0.161 0.125,-0.25 0,0 -0.094,-0.156 -0.094,-0.156 -0.008,-0.017 -0.25,-0.531 -0.25,-0.531 -0.068,-0.009 -0.153,-0.031 -0.219,-0.031 -0.201,-0.028 -0.371,-0.026 -0.563,-0.031 0.042,-0.086 0.083,-0.162 0.125,-0.25 0,0 -0.094,-0.156 -0.094,-0.156 -0.008,-0.016 -0.25,-0.531 -0.25,-0.531 -0.07,-0.01 -0.152,-0.031 -0.219,-0.031 -0.199,-0.028 -0.373,-0.026 -0.563,-0.031 0.042,-0.086 0.083,-0.161 0.125,-0.25 l -0.063,-0.156 c -0.008,-0.016 -0.281,-0.531 -0.281,-0.531 -0.071,-0.01 -0.15,0 -0.219,0 -0.199,-0.028 -0.374,-0.057 -0.563,-0.063 0.042,-0.086 0.083,-0.162 0.125,-0.25 0,0 -0.062,-0.156 -0.063,-0.156 -0.008,-0.016 -0.281,-0.531 -0.281,-0.531 -0.073,-0.01 -0.149,0 -0.219,0 -0.197,-0.027 -0.375,-0.057 -0.563,-0.063 0.041,-0.085 0.084,-0.163 0.125,-0.25 0,0 -0.062,-0.156 -0.063,-0.156 -0.008,-0.016 -0.281,-0.531 -0.281,-0.531 -0.075,-0.01 -0.147,0 -0.219,0 -0.196,-0.027 -0.376,-0.057 -0.563,-0.063 0.041,-0.085 0.084,-0.163 0.125,-0.25 0,0 -0.062,-0.156 -0.063,-0.156 l -0.281,-0.531 c -0.076,-0.011 -0.146,0 -0.219,0 -0.183,-0.025 -0.357,-0.026 -0.531,-0.031 0.043,-0.088 0.083,-0.16 0.125,-0.25 0,0 -0.094,-0.187 -0.094,-0.188 -0.008,-0.016 -0.25,-0.5 -0.25,-0.5 -0.078,-0.011 -0.175,-0.031 -0.25,-0.031 -0.191,-0.026 -0.35,-0.026 -0.531,-0.031 0.042,-0.087 0.083,-0.161 0.125,-0.25 0,0 -0.094,-0.187 -0.094,-0.188 -0.008,-0.016 -0.25,-0.5 -0.25,-0.5 -0.079,-0.011 -0.174,-0.031 -0.25,-0.031 -0.19,-0.026 -0.351,-0.026 -0.531,-0.031 0.042,-0.087 0.083,-0.161 0.125,-0.25 0,0 -0.094,-0.187 -0.094,-0.188 -0.008,-0.016 -0.25,-0.5 -0.25,-0.5 -0.081,-0.011 -0.172,-0.031 -0.25,-0.031 -0.188,-0.026 -0.352,-0.026 -0.531,-0.031 0.042,-0.087 0.083,-0.161 0.125,-0.25 0,0 -0.094,-0.156 -0.094,-0.156 -0.008,-0.015 -0.25,-0.531 -0.25,-0.531 -0.083,-0.012 -0.171,10e-4 -0.25,0 -0.187,-0.026 -0.353,-0.057 -0.531,-0.063 0.042,-0.086 0.083,-0.161 0.125,-0.25 0,0 -0.094,-0.156 -0.094,-0.156 -0.008,-0.015 -0.25,-0.531 -0.25,-0.531 -0.084,-0.012 -0.169,10e-4 -0.25,0 -0.186,-0.026 -0.354,-0.057 -0.531,-0.063 0.042,-0.086 0.083,-0.162 0.125,-0.25 l -0.063,-0.156 c -0.008,-0.015 -0.281,-0.531 -0.281,-0.531 -0.086,-0.012 -0.136,10e-4 -0.219,0 -0.176,-0.024 -0.364,-0.026 -0.531,-0.031 0.042,-0.086 0.083,-0.162 0.125,-0.25 0,0 -0.094,-0.187 -0.094,-0.188 -0.008,-0.015 -0.25,-0.5 -0.25,-0.5 -0.087,-0.012 -0.166,-0.031 -0.25,-0.031 -0.183,-0.025 -0.357,-0.026 -0.531,-0.031 0.042,-0.086 0.083,-0.161 0.125,-0.25 0,0 -0.094,-0.187 -0.094,-0.188 -0.008,-0.015 -0.25,-0.5 -0.25,-0.5 -0.089,-0.012 -0.165,-0.031 -0.25,-0.031 -0.182,-0.025 -0.358,-0.026 -0.531,-0.031 0.042,-0.086 0.083,-0.162 0.125,-0.25 0,0 -0.094,-0.187 -0.094,-0.188 -0.008,-0.015 -0.25,-0.5 -0.25,-0.5 -0.091,-0.013 -0.163,-0.031 -0.25,-0.031 -0.181,-0.025 -0.359,-0.026 -0.531,-0.031 0.041,-0.085 0.084,-0.162 0.125,-0.25 0,0 -0.094,-0.187 -0.094,-0.188 -0.007,-0.015 -0.25,-0.5 -0.25,-0.5 -0.092,-0.013 -0.161,10e-4 -0.25,0 -0.18,-0.025 -0.36,-0.058 -0.531,-0.063 0.042,-0.086 0.084,-0.162 0.125,-0.25 0,0 -0.094,-0.187 -0.094,-0.188 -0.007,-0.015 -0.25,-0.5 -0.25,-0.5 -0.094,-0.013 -0.16,0.001 -0.25,0 -0.179,-0.025 -0.361,-0.058 -0.531,-0.063 0.041,-0.085 0.084,-0.163 0.125,-0.25 l -0.094,-0.188 c -0.007,-0.015 -0.25,-0.5 -0.25,-0.5 -0.096,-0.013 -0.158,10e-4 -0.25,0 -0.166,-0.023 -0.342,-0.026 -0.5,-0.031 0.042,-0.087 0.083,-0.16 0.125,-0.25 l -0.125,-0.219 c -0.007,-0.015 -0.219,-0.469 -0.219,-0.469 -0.097,-0.014 -0.188,-0.031 -0.281,-0.031 -0.173,-0.024 -0.335,-0.026 -0.5,-0.031 0.042,-0.087 0.083,-0.161 0.125,-0.25 l -0.125,-0.219 c -0.007,-0.014 -0.219,-0.469 -0.219,-0.469 -0.099,-0.014 -0.186,-0.031 -0.281,-0.031 -0.172,-0.024 -0.336,-0.026 -0.5,-0.031 0.042,-0.087 0.083,-0.16 0.125,-0.25 l -0.125,-0.219 c -0.007,-0.014 -0.219,-0.469 -0.219,-0.469 -0.1,-0.014 -0.185,-0.031 -0.281,-0.031 -0.171,-0.024 -0.337,-0.026 -0.5,-0.031 0.044,-0.089 0.082,-0.158 0.125,-0.25 l -0.094,-0.219 c -0.007,-0.014 -0.25,-0.469 -0.25,-0.469 -0.102,-0.014 -0.183,-0.031 -0.281,-0.031 -0.17,-0.024 -0.339,-0.026 -0.5,-0.031 0.044,-0.09 0.081,-0.157 0.125,-0.25 l -0.094,-0.219 c -0.007,-0.014 -0.25,-0.469 -0.25,-0.469 -0.104,-0.014 -0.182,10e-4 -0.281,0 -0.169,-0.023 -0.339,-0.058 -0.5,-0.063 0.044,-0.09 0.081,-0.158 0.125,-0.25 l -0.094,-0.219 c -0.007,-0.014 -0.25,-0.469 -0.25,-0.469 -0.105,-0.015 -0.18,0.001 -0.281,0 -0.156,-0.022 -0.32,-0.026 -0.469,-0.031 0.044,-0.09 0.081,-0.157 0.125,-0.25 l -0.125,-0.25 -0.219,-0.438 c -0.107,-0.015 -0.21,-0.031 -0.313,-0.031 -0.163,-0.023 -0.313,-0.026 -0.469,-0.031 0.044,-0.09 0.081,-0.157 0.125,-0.25 l -0.125,-0.25 c -0.007,-0.014 -0.219,-0.438 -0.219,-0.438 -0.108,-0.015 -0.208,-0.031 -0.313,-0.031 -0.162,-0.023 -0.314,-0.026 -0.469,-0.031 0.044,-0.09 0.081,-0.157 0.125,-0.25 l -0.125,-0.25 c -0.007,-0.014 -0.219,-0.438 -0.219,-0.438 -0.11,-0.015 -0.207,-0.031 -0.313,-0.031 -0.161,-0.022 -0.316,-0.026 -0.469,-0.031 0.044,-0.09 0.081,-0.157 0.125,-0.25 l -0.125,-0.25 c -0.007,-0.014 -0.219,-0.438 -0.219,-0.438 -0.112,-0.016 -0.205,-0.031 -0.313,-0.031 -0.16,-0.022 -0.317,-0.026 -0.469,-0.031 0.044,-0.09 0.081,-0.157 0.125,-0.25 l -0.125,-0.25 c -0.007,-0.014 -0.219,-0.438 -0.219,-0.438 -0.113,-0.016 -0.204,-0.03 -0.313,-0.031 -0.159,-0.022 -0.318,-0.027 -0.469,-0.031 0.044,-0.09 0.081,-0.157 0.125,-0.25 l -0.125,-0.219 c -0.007,-0.013 -0.219,-0.469 -0.219,-0.469 -0.115,-0.016 -0.202,0.001 -0.313,0 -0.158,-0.022 -0.319,-0.058 -0.469,-0.063 0.044,-0.089 0.081,-0.158 0.125,-0.25 l -0.094,-0.219 c -0.007,-0.013 -0.25,-0.469 -0.25,-0.469 -0.116,-0.016 -0.201,0.001 -0.313,0 -0.145,-0.02 -0.299,-0.026 -0.438,-0.031 0.044,-0.09 0.081,-0.157 0.125,-0.25 l -0.125,-0.25 c -0.007,-0.013 -0.219,-0.438 -0.219,-0.438 -0.118,-0.016 -0.23,-0.03 -0.344,-0.031 -0.152,-0.021 -0.293,-0.026 -0.438,-0.031 0.044,-0.09 0.081,-0.157 0.125,-0.25 l -0.125,-0.25 c -0.007,-0.013 -0.219,-0.438 -0.219,-0.438 -0.12,-0.017 -0.229,-0.03 -0.344,-0.031 -0.151,-0.021 -0.294,-0.027 -0.438,-0.031 0.044,-0.09 0.081,-0.157 0.125,-0.25 l -0.125,-0.25 c -0.007,-0.013 -0.219,-0.438 -0.219,-0.438 -0.121,-0.017 -0.227,-0.03 -0.344,-0.031 -0.15,-0.021 -0.295,-0.027 -0.438,-0.031 0.044,-0.089 0.081,-0.158 0.125,-0.25 l -0.125,-0.25 c -0.006,-0.013 -0.219,-0.438 -0.219,-0.438 -0.123,-0.017 -0.226,-0.03 -0.344,-0.031 -0.149,-0.021 -0.296,-0.027 -0.438,-0.031 0.044,-0.09 0.081,-0.157 0.125,-0.25 l -0.125,-0.25 c -0.006,-0.013 -0.219,-0.438 -0.219,-0.438 -0.125,-0.017 -0.224,-0.03 -0.344,-0.031 -0.147,-0.02 -0.297,-0.027 -0.438,-0.031 0.044,-0.089 0.082,-0.158 0.125,-0.25 l -0.125,-0.25 c -0.006,-0.013 -0.219,-0.438 -0.219,-0.438 -0.126,-0.018 -0.223,0.001 -0.344,0 -0.135,-0.019 -0.278,-0.026 -0.406,-0.031 0.044,-0.09 0.081,-0.157 0.125,-0.25 l -0.156,-0.281 c -0.006,-0.013 -0.188,-0.406 -0.188,-0.406 -0.128,-0.018 -0.252,-0.03 -0.375,-0.031 -0.142,-0.02 -0.271,-0.027 -0.406,-0.031 0.044,-0.09 0.081,-0.157 0.125,-0.25 l -0.156,-0.281 c -0.006,-0.012 -0.188,-0.406 -0.188,-0.406 -0.129,-0.018 -0.251,-0.03 -0.375,-0.031 -0.141,-0.02 -0.272,-0.027 -0.406,-0.031 0.044,-0.09 0.081,-0.157 0.125,-0.25 l -0.156,-0.281 c -0.006,-0.012 -0.188,-0.406 -0.188,-0.406 -0.131,-0.018 -0.249,-0.03 -0.375,-0.031 -0.14,-0.019 -0.273,-0.027 -0.406,-0.031 0.044,-0.089 0.081,-0.158 0.125,-0.25 l -0.125,-0.281 c -0.006,-0.012 -0.219,-0.406 -0.219,-0.406 -0.133,-0.018 -0.248,-0.03 -0.375,-0.031 -0.139,-0.019 -0.274,-0.027 -0.406,-0.031 0.044,-0.09 0.081,-0.157 0.125,-0.25 l -0.125,-0.281 c -0.006,-0.012 -0.219,-0.406 -0.219,-0.406 -0.134,-0.019 -0.246,-0.03 -0.375,-0.031 -0.138,-0.019 -0.275,-0.027 -0.406,-0.031 0.044,-0.09 0.081,-0.157 0.125,-0.25 l -0.125,-0.281 c -0.006,-0.012 -0.219,-0.406 -0.219,-0.406 -0.136,-0.019 -0.245,0.001 -0.375,0 -0.125,-0.017 -0.256,-0.026 -0.375,-0.031 0.044,-0.089 0.081,-0.157 0.125,-0.25 l -0.156,-0.313 -0.188,-0.375 c -0.137,-0.019 -0.274,-0.03 -0.406,-0.031 -0.132,-0.018 -0.249,-0.027 -0.375,-0.031 0.044,-0.091 0.081,-0.156 0.125,-0.25 l -0.156,-0.313 c -0.006,-0.012 -0.188,-0.375 -0.188,-0.375 -0.139,-0.019 -0.273,-0.03 -0.406,-0.031 -0.131,-0.018 -0.25,-0.027 -0.375,-0.031 0.044,-0.09 0.081,-0.157 0.125,-0.25 l -0.156,-0.313 c -0.006,-0.012 -0.188,-0.375 -0.188,-0.375 -0.141,-0.02 -0.271,-0.03 -0.406,-0.031 -0.13,-0.018 -0.251,-0.027 -0.375,-0.031 0.044,-0.089 0.081,-0.158 0.125,-0.25 l -0.156,-0.313 c -0.006,-0.012 -0.188,-0.375 -0.188,-0.375 -0.142,-0.02 -0.27,-0.03 -0.406,-0.031 -0.129,-0.018 -0.253,-0.027 -0.375,-0.031 0.044,-0.089 0.082,-0.158 0.125,-0.25 l -0.156,-0.313 c -0.006,-0.012 -0.188,-0.375 -0.188,-0.375 -0.144,-0.02 -0.268,-0.03 -0.406,-0.031 -0.128,-0.018 -0.254,-0.027 -0.375,-0.031 0.044,-0.089 0.081,-0.157 0.125,-0.25 l -0.156,-0.313 c -0.006,-0.012 -0.188,-0.375 -0.188,-0.375 -0.145,-0.02 -0.267,-0.03 -0.406,-0.031 -0.127,-0.018 -0.255,-0.027 -0.375,-0.031 0.044,-0.089 0.081,-0.157 0.125,-0.25 l -0.125,-0.281 c -0.006,-0.011 -0.219,-0.406 -0.219,-0.406 -0.147,-0.02 -0.265,0.001 -0.406,0 -0.114,-0.016 -0.235,-0.026 -0.344,-0.031 0.044,-0.089 0.081,-0.158 0.125,-0.25 l -0.156,-0.313 c -0.006,-0.011 -0.188,-0.375 -0.188,-0.375 -0.149,-0.021 -0.295,-0.03 -0.438,-0.031 -0.121,-0.017 -0.229,-0.027 -0.344,-0.031 0.044,-0.089 0.081,-0.157 0.125,-0.25 l -0.156,-0.313 c -0.006,-0.011 -0.188,-0.375 -0.188,-0.375 -0.15,-0.021 -0.293,-0.03 -0.438,-0.031 -0.12,-0.017 -0.23,-0.027 -0.344,-0.031 0.044,-0.089 0.081,-0.157 0.125,-0.25 l -0.156,-0.313 c -0.006,-0.011 -0.188,-0.375 -0.188,-0.375 -0.152,-0.021 -0.292,-0.03 -0.438,-0.031 -0.119,-0.016 -0.231,-0.027 -0.344,-0.031 0.043,-0.089 0.082,-0.158 0.125,-0.25 l -0.156,-0.313 c -0.005,-0.011 -0.188,-0.375 -0.188,-0.375 -0.154,-0.021 -0.29,-0.03 -0.438,-0.031 -0.118,-0.016 -0.232,-0.027 -0.344,-0.031 0.044,-0.09 0.081,-0.157 0.125,-0.25 l -0.156,-0.313 c -0.005,-0.011 -0.188,-0.375 -0.188,-0.375 -0.155,-0.022 -0.289,-0.03 -0.438,-0.031 -0.117,-0.016 -0.233,-0.027 -0.344,-0.031 0.044,-0.089 0.081,-0.157 0.125,-0.25 l -0.156,-0.313 c -0.005,-0.011 -0.188,-0.375 -0.188,-0.375 -0.157,-0.022 -0.287,-0.03 -0.438,-0.031 -0.105,-0.015 -0.213,-0.027 -0.313,-0.031 0.039,-0.08 0.086,-0.136 0.125,-0.219 l -0.188,-0.344 c -0.005,-0.011 -0.156,-0.344 -0.156,-0.344 -0.158,-0.022 -0.317,-0.03 -0.469,-0.031 -0.056,-0.096 -0.131,-0.185 -0.188,-0.281 l -0.063,-0.125 c -0.019,-0.032 -0.043,-0.062 -0.063,-0.094 v -0.031 c -0.02,-0.032 -0.043,-0.062 -0.063,-0.094 -0.007,-0.012 -0.024,-0.019 -0.031,-0.031 -0.033,-0.066 -0.125,-0.313 -0.125,-0.313 -0.021,-0.003 -0.042,0.002 -0.063,0 -0.061,-0.104 -0.125,-0.209 -0.188,-0.313 -0.024,-0.039 -0.038,-0.086 -0.063,-0.125 -0.007,-0.012 -0.024,-0.019 -0.031,-0.031 -0.064,-0.103 -0.123,-0.21 -0.188,-0.313 -0.081,-0.137 -0.168,-0.27 -0.25,-0.406 -0.012,-0.02 -0.02,-0.043 -0.031,-0.063 -0.149,-0.238 -0.285,-0.483 -0.438,-0.719 -0.012,-0.02 -0.02,-0.043 -0.031,-0.063 -0.02,-0.032 -0.043,-0.062 -0.063,-0.094 -0.122,-0.209 -0.25,-0.418 -0.375,-0.625 -0.012,-0.02 -0.02,-0.042 -0.031,-0.063 -0.145,-0.231 -0.289,-0.458 -0.438,-0.688 -0.016,-0.028 -0.015,-0.066 -0.031,-0.094 -0.145,-0.232 -0.289,-0.457 -0.438,-0.688 -0.016,-0.028 -0.015,-0.066 -0.031,-0.094 -0.084,-0.135 -0.164,-0.272 -0.25,-0.406 -0.005,-0.008 0.005,-0.023 0,-0.031 -0.051,-0.083 -0.105,-0.167 -0.156,-0.25 -0.151,-0.261 -0.313,-0.523 -0.469,-0.781 -0.019,-0.032 -0.044,-0.062 -0.063,-0.094 -0.008,-0.012 -0.024,-0.019 -0.031,-0.031 -0.122,-0.209 -0.25,-0.417 -0.375,-0.625 -0.023,-0.04 -0.039,-0.085 -0.063,-0.125 -0.028,-0.044 -0.066,-0.081 -0.094,-0.125 -0.128,-0.218 -0.244,-0.44 -0.375,-0.656 -0.156,-0.249 -0.309,-0.503 -0.469,-0.75 -6.58,-10.516 -16.831,-19.259 -29.531,-26.06 l -0.156,-0.281 c -0.003,-0.007 -0.125,-0.25 -0.125,-0.25 -0.216,-0.03 -0.417,-0.03 -0.625,-0.031 -0.053,-0.007 -0.105,0.003 -0.156,0 0.048,-0.095 0.077,-0.179 0.125,-0.281 l -0.219,-0.438 c -0.003,-0.007 -0.125,-0.25 -0.125,-0.25 -0.218,-0.03 -0.416,-0.03 -0.625,-0.031 -0.042,-0.006 -0.085,0.003 -0.125,0 0.044,-0.088 0.081,-0.156 0.125,-0.25 l -0.25,-0.469 -0.094,-0.219 c -0.22,-0.031 -0.445,-0.061 -0.656,-0.063 -0.047,-0.006 -0.08,0.003 -0.125,0 0.043,-0.086 0.082,-0.158 0.125,-0.25 l -0.25,-0.469 -0.094,-0.219 c -0.221,-0.031 -0.444,-0.061 -0.656,-0.063 -0.046,-0.006 -0.081,0.003 -0.125,0 0.045,-0.088 0.08,-0.156 0.125,-0.25 l -0.25,-0.469 -0.094,-0.219 c -0.223,-0.031 -0.442,-0.03 -0.656,-0.031 -0.045,-0.006 -0.082,0.003 -0.125,0 0.048,-0.095 0.077,-0.179 0.125,-0.281 l -0.219,-0.469 -0.125,-0.219 c -0.224,-0.031 -0.441,-0.03 -0.656,-0.031 -0.044,-0.006 -0.083,0.003 -0.125,0 0.047,-0.093 0.078,-0.181 0.125,-0.281 l -0.219,-0.469 -0.125,-0.219 c -0.226,-0.031 -0.439,-0.03 -0.656,-0.031 -0.043,-0.006 -0.084,0.003 -0.125,0 0.047,-0.093 0.078,-0.181 0.125,-0.281 l -0.219,-0.469 -0.125,-0.219 c -0.228,-0.032 -0.438,-0.03 -0.656,-0.031 -0.032,-0.004 -0.063,0.003 -0.094,0 0.044,-0.087 0.081,-0.157 0.125,-0.25 l -0.25,-0.5 -0.094,-0.188 c -0.229,-0.032 -0.467,-0.061 -0.688,-0.063 -0.036,-0.005 -0.059,0.003 -0.094,0 0.044,-0.087 0.081,-0.157 0.125,-0.25 l -0.25,-0.5 -0.094,-0.188 c -0.231,-0.032 -0.466,-0.061 -0.688,-0.063 -0.035,-0.005 -0.06,0.003 -0.094,0 0.048,-0.094 0.077,-0.148 0.125,-0.25 l -0.25,-0.5 -0.094,-0.188 c -0.233,-0.032 -0.464,-0.061 -0.688,-0.063 -0.034,-0.005 -0.061,0.003 -0.094,0 0.048,-0.093 0.077,-0.149 0.125,-0.25 l -0.25,-0.5 -0.094,-0.188 c -0.234,-0.033 -0.463,-0.03 -0.688,-0.031 -0.044,-0.006 -0.083,0.003 -0.125,0 0.055,-0.106 0.101,-0.165 0.156,-0.281 l -0.25,-0.5 -0.094,-0.188 c -0.236,-0.033 -0.461,-0.03 -0.688,-0.031 -0.033,-0.005 -0.062,0.003 -0.094,0 0.053,-0.102 0.072,-0.169 0.125,-0.281 l -0.25,-0.5 -0.094,-0.188 c -0.237,-0.033 -0.46,-0.03 -0.688,-0.031 -0.021,-0.003 -0.042,0.002 -0.063,0 0.048,-0.093 0.077,-0.148 0.125,-0.25 l -0.281,-0.531 c -0.003,-0.005 -0.063,-0.156 -0.063,-0.156 -0.239,-0.033 -0.489,-0.061 -0.719,-0.063 -0.024,-0.003 -0.039,0.002 -0.063,0 0.048,-0.093 0.077,-0.148 0.125,-0.25 l -0.25,-0.531 -0.094,-0.156 c -0.241,-0.034 -0.488,-0.061 -0.719,-0.063 -0.024,-0.003 -0.039,0.002 -0.063,0 0.048,-0.094 0.077,-0.148 0.125,-0.25 l -0.25,-0.531 -0.094,-0.156 c -0.242,-0.034 -0.486,-0.061 -0.719,-0.063 -0.023,-0.003 -0.04,0.002 -0.063,0 0.047,-0.092 0.078,-0.15 0.125,-0.25 l -0.25,-0.5 c -0.003,-0.005 -0.094,-0.188 -0.094,-0.188 -0.244,-0.034 -0.485,-0.03 -0.719,-0.031 -0.034,-0.005 -0.061,0.002 -0.094,0 0.055,-0.105 0.101,-0.165 0.156,-0.281 l -0.25,-0.5 c -0.003,-0.005 -0.094,-0.188 -0.094,-0.188 -0.245,-0.034 -0.452,-0.03 -0.688,-0.031 -0.029,-0.004 -0.066,0.002 -0.094,0 0.053,-0.101 0.072,-0.169 0.125,-0.281 l -0.25,-0.5 c -0.002,-0.005 -0.094,-0.188 -0.094,-0.188 -0.247,-0.034 -0.45,-0.03 -0.688,-0.031 -0.019,-0.003 -0.044,0.002 -0.063,0 0.048,-0.093 0.077,-0.147 0.125,-0.25 l -0.281,-0.531 -0.063,-0.156 c -0.249,-0.035 -0.48,-0.061 -0.719,-0.063 -0.022,-0.003 -0.042,0.002 -0.063,0 0.048,-0.092 0.077,-0.148 0.125,-0.25 l -0.281,-0.531 -0.063,-0.156 c -0.25,-0.035 -0.478,-0.061 -0.719,-0.063 -0.021,-0.003 -0.042,0.002 -0.063,0 0.048,-0.092 0.077,-0.149 0.125,-0.25 l -0.281,-0.531 -0.063,-0.156 c -0.252,-0.035 -0.477,-0.061 -0.719,-0.063 -0.021,-0.003 -0.042,0.002 -0.063,0 0.048,-0.092 0.077,-0.148 0.125,-0.25 l -0.281,-0.531 -0.063,-0.156 c -0.254,-0.035 -0.475,-0.061 -0.719,-0.063 -0.02,-0.003 -0.043,0.002 -0.063,0 0.047,-0.091 0.077,-0.149 0.125,-0.25 l -0.25,-0.531 -0.094,-0.156 c -0.255,-0.036 -0.474,-0.03 -0.719,-0.031 -0.029,-0.004 -0.066,0.002 -0.094,0 0.054,-0.103 0.101,-0.165 0.156,-0.281 l -0.25,-0.531 -0.094,-0.156 c -0.257,-0.036 -0.472,-0.03 -0.719,-0.031 -0.019,-0.003 -0.044,0.002 -0.063,0 0.052,-0.099 0.072,-0.169 0.125,-0.281 l -0.25,-0.531 -0.094,-0.156 c -0.258,-0.036 -0.471,-0.03 -0.719,-0.031 -0.009,-0.001 -0.022,0.001 -0.031,0 0.048,-0.091 0.077,-0.148 0.125,-0.25 l -0.281,-0.563 -0.063,-0.125 c -0.26,-0.036 -0.5,-0.061 -0.75,-0.063 -0.011,-0.001 -0.021,0.001 -0.031,0 0.048,-0.091 0.077,-0.148 0.125,-0.25 l -0.281,-0.563 -0.063,-0.125 c -0.262,-0.036 -0.499,-0.061 -0.75,-0.063 -0.01,-0.001 -0.021,0.001 -0.031,0 0.048,-0.091 0.077,-0.147 0.125,-0.25 l -0.281,-0.563 -0.063,-0.125 c -0.263,-0.037 -0.497,-0.061 -0.75,-0.063 -0.01,-0.001 -0.021,0.001 -0.031,0 0.047,-0.089 0.078,-0.15 0.125,-0.25 l -0.281,-0.563 -0.063,-0.125 c -0.265,-0.037 -0.496,-0.061 -0.75,-0.063 -0.01,-10e-4 -0.022,0.001 -0.031,0 0.047,-0.089 0.077,-0.149 0.125,-0.25 l -0.281,-0.563 -0.063,-0.125 c -0.266,-0.037 -0.494,-0.03 -0.75,-0.031 -0.009,-0.001 -0.022,0.001 -0.031,0 0.052,-0.098 0.072,-0.169 0.125,-0.281 l -0.281,-0.563 -0.063,-0.125 c -0.268,-0.037 -0.493,-0.03 -0.75,-0.031 0.047,-0.088 0.078,-0.15 0.125,-0.25 l -0.313,-0.594 -0.031,-0.094 c -0.27,-0.037 -0.522,-0.061 -0.781,-0.063 0.047,-0.089 0.077,-0.148 0.125,-0.25 l -0.281,-0.594 -0.063,-0.094 c -0.271,-0.038 -0.521,-0.061 -0.781,-0.063 0.047,-0.088 0.077,-0.149 0.125,-0.25 l -0.281,-0.594 -0.063,-0.094 c -0.273,-0.038 -0.519,-0.061 -0.781,-0.063 0.048,-0.089 0.077,-0.147 0.125,-0.25 l -0.281,-0.594 -0.063,-0.094 c -0.274,-0.038 -0.518,-0.061 -0.781,-0.063 0.047,-0.087 0.077,-0.149 0.125,-0.25 l -0.281,-0.563 c -0.002,-0.003 -0.063,-0.125 -0.063,-0.125 -0.276,-0.038 -0.516,-0.029 -0.781,-0.031 0.051,-0.094 0.073,-0.17 0.125,-0.281 l -0.281,-0.563 c -10e-4,-0.003 -0.063,-0.125 -0.063,-0.125 -0.278,-0.039 -0.515,-0.029 -0.781,-0.031 0.05,-0.092 0.105,-0.141 0.156,-0.25 l -0.313,-0.594 -0.031,-0.094 c -0.279,-0.039 -0.544,-0.061 -0.813,-0.063 0.048,-0.089 0.106,-0.145 0.156,-0.25 l -0.313,-0.594 -0.031,-0.094 c -0.27,-0.038 -0.522,-0.06 -0.781,-0.063 0.047,-0.086 0.077,-0.148 0.125,-0.25 l -0.313,-0.594 -0.031,-0.094 c -0.272,-0.038 -0.521,-0.06 -0.781,-0.063 0.047,-0.086 0.076,-0.147 0.125,-0.25 l -0.313,-0.594 -0.031,-0.094 c -0.273,-0.038 -0.519,-0.06 -0.781,-0.063 0.045,-0.083 0.078,-0.151 0.125,-0.25 l -0.313,-0.594 -0.031,-0.094 c -0.275,-0.038 -0.518,-0.06 -0.781,-0.063 0.046,-0.083 0.077,-0.149 0.125,-0.25 l -0.281,-0.594 -0.063,-0.094 c -0.276,-0.038 -0.517,-0.029 -0.781,-0.031 0.05,-0.091 0.072,-0.168 0.125,-0.281 l -0.281,-0.594 -0.063,-0.094 c -0.267,-0.037 -0.495,-0.028 -0.75,-0.031 0.045,-0.082 0.078,-0.15 0.125,-0.25 l -0.313,-0.625 -0.031,-0.063 c -0.269,-0.037 -0.524,-0.059 -0.781,-0.063 0.046,-0.082 0.077,-0.148 0.125,-0.25 l -0.313,-0.625 -0.031,-0.063 c -0.281,-0.039 -0.543,-0.06 -0.813,-0.063 0.047,-0.084 0.106,-0.143 0.156,-0.25 l -0.313,-0.625 -0.031,-0.063 c -0.272,-0.038 -0.521,-0.059 -0.781,-0.063 0.046,-0.082 0.076,-0.146 0.125,-0.25 l -0.313,-0.625 c -0.001,-0.002 -0.031,-0.063 -0.031,-0.063 -0.274,-0.038 -0.52,-0.059 -0.781,-0.063 0.044,-0.079 0.078,-0.149 0.125,-0.25 l -0.313,-0.625 c -0.001,-0.002 -0.031,-0.063 -0.031,-0.063 -0.275,-0.038 -0.518,-0.059 -0.781,-0.063 0.043,-0.077 0.078,-0.15 0.125,-0.25 l -0.313,-0.625 c -0.001,-0.002 -0.031,-0.063 -0.031,-0.063 -0.277,-0.039 -0.517,-0.028 -0.781,-0.031 0.046,-0.083 0.104,-0.139 0.156,-0.25 l -0.344,-0.656 c -0.001,-0.002 0,-0.031 0,-0.031 -0.279,-0.039 -0.546,-0.059 -0.813,-0.063 0.043,-0.077 0.107,-0.146 0.156,-0.25 l -0.313,-0.656 c -10e-4,-0.001 -0.031,-0.031 -0.031,-0.031 -0.27,-0.038 -0.524,-0.058 -0.781,-0.063 0.041,-0.075 0.077,-0.148 0.125,-0.25 l -0.313,-0.656 c -10e-4,-0.001 -0.031,-0.031 -0.031,-0.031 -0.271,-0.038 -0.522,-0.058 -0.781,-0.063 0.041,-0.075 0.075,-0.145 0.125,-0.25 l -0.313,-0.656 c -10e-4,-0.001 -0.031,-0.031 -0.031,-0.031 -0.273,-0.038 -0.521,-0.058 -0.781,-0.063 0.038,-0.069 0.08,-0.154 0.125,-0.25 l -0.313,-0.656 c -10e-4,-0.001 -0.031,-0.031 -0.031,-0.031 -0.274,-0.038 -0.52,-0.058 -0.781,-0.063 0.036,-0.069 0.078,-0.151 0.125,-0.25 l -0.313,-0.625 c -10e-4,-0.001 -0.031,-0.063 -0.031,-0.063 -0.275,-0.038 -0.518,-0.027 -0.781,-0.031 0.006,-0.013 0.025,-0.018 0.031,-0.031 0.033,-0.067 0.078,-0.12 0.125,-0.219 l -0.344,-0.656 v -0.031 c -0.278,-0.039 -0.547,-0.058 -0.813,-0.063 0.006,-0.013 0.025,-0.018 0.031,-0.031 0.03,-0.059 0.084,-0.131 0.125,-0.219 l -0.344,-0.656 v -0.031 c -0.269,-0.037 -0.525,-0.058 -0.781,-0.063 0.01,-0.022 0.021,-0.04 0.031,-0.063 0.026,-0.052 0.058,-0.111 0.094,-0.188 l -0.344,-0.656 v -0.031 c -0.281,-0.039 -0.544,-0.058 -0.813,-0.063 0.017,-0.035 0.046,-0.058 0.063,-0.094 0.022,-0.044 0.063,-0.091 0.094,-0.156 l -0.344,-0.656 v -0.031 c -0.272,-0.038 -0.522,-0.057 -0.781,-0.063 0.021,-0.044 0.042,-0.081 0.063,-0.125 0.019,-0.037 0.037,-0.07 0.063,-0.125 l -0.344,-0.656 v -0.031 c -0.262,-0.036 -0.5,-0.057 -0.75,-0.063 0.021,-0.044 0.041,-0.08 0.063,-0.125 0.015,-0.03 0.011,-0.081 0.031,-0.125 l -0.313,-0.656 -0.031,-0.031 c -0.274,-0.038 -0.52,-0.057 -0.781,-0.063 0.027,-0.057 0.067,-0.099 0.094,-0.156 0.011,-0.022 0.047,-0.03 0.063,-0.063 l -0.344,-0.688 c -0.277,-0.039 -0.548,-0.057 -0.813,-0.063 0.037,-0.077 0.088,-0.14 0.125,-0.219 0.007,-0.015 0.021,-0.009 0.031,-0.031 l -0.344,-0.688 c -0.279,-0.039 -0.547,-0.057 -0.813,-0.063 0.038,-0.079 0.087,-0.138 0.125,-0.219 0.004,-0.007 0.026,-0.02 0.031,-0.031 l -0.344,-0.688 c -0.269,-0.037 -0.525,-0.057 -0.781,-0.063 0.042,-0.086 0.083,-0.162 0.125,-0.25 l -0.344,-0.688 c -0.324,-0.045 -0.626,-0.06 -0.938,-0.063 -0.935,-0.006 -1.824,0.152 -2.688,0.406 -0.668,0.18 -1.298,0.44 -1.906,0.781 -0.054,-0.103 -0.313,-0.594 -0.313,-0.594 -0.34,0.019 -0.669,0.049 -1,0.094 0.115,-0.153 0.229,-0.282 0.344,-0.438 -0.001,-0.002 -0.344,-0.656 -0.344,-0.656 -0.34,0.019 -0.669,0.049 -1,0.094 0.115,-0.154 0.228,-0.281 0.344,-0.438 -0.001,-0.002 -0.344,-0.656 -0.344,-0.656 -0.34,0.019 -0.668,0.08 -1,0.125 0.121,-0.161 0.223,-0.305 0.344,-0.469 -0.001,-0.002 -0.344,-0.656 -0.344,-0.656 -0.34,0.019 -0.668,0.08 -1,0.125 0.121,-0.161 0.223,-0.305 0.344,-0.469 -0.001,-0.002 -0.344,-0.656 -0.344,-0.656 -0.34,0.019 -0.668,0.08 -1,0.125 0.12,-0.16 0.224,-0.306 0.344,-0.469 -0.001,-0.002 -0.344,-0.656 -0.344,-0.656 -0.329,0.019 -0.647,0.082 -0.969,0.125 0.115,-0.154 0.229,-0.282 0.344,-0.438 -0.001,-0.001 -0.344,-0.656 -0.344,-0.656 -0.332,0.019 -0.676,0.05 -1,0.094 0.115,-0.154 0.229,-0.282 0.344,-0.438 -0.001,-0.001 -0.344,-0.656 -0.344,-0.656 -0.34,0.019 -0.669,0.049 -1,0.094 0.115,-0.154 0.228,-0.281 0.344,-0.438 -0.001,-0.001 -0.344,-0.656 -0.344,-0.656 -0.34,0.019 -0.668,0.08 -1,0.125 0.121,-0.161 0.223,-0.305 0.344,-0.469 -0.001,-0.001 -0.344,-0.656 -0.344,-0.656 -0.34,0.019 -0.668,0.08 -1,0.125 0.121,-0.161 0.223,-0.305 0.344,-0.469 -0.001,-0.001 -0.344,-0.656 -0.344,-0.656 -0.34,0.019 -0.668,0.08 -1,0.125 0.12,-0.16 0.224,-0.306 0.344,-0.469 l -0.344,-0.656 c -0.329,0.019 -0.647,0.082 -0.969,0.125 0.115,-0.154 0.229,-0.282 0.344,-0.438 l -0.344,-0.656 c -0.332,0.019 -0.676,0.05 -1,0.094 0.115,-0.154 0.229,-0.282 0.344,-0.438 l -0.344,-0.656 c -0.34,0.019 -0.669,0.049 -1,0.094 0.115,-0.154 0.228,-0.281 0.344,-0.438 l -0.344,-0.656 c -0.34,0.019 -0.669,0.049 -1,0.094 0.115,-0.154 0.228,-0.281 0.344,-0.438 l -0.344,-0.656 c -0.34,0.019 -0.668,0.08 -1,0.125 0.121,-0.161 0.223,-0.305 0.344,-0.469 l -0.344,-0.656 c -0.34,0.019 -0.668,0.08 -1,0.125 0.12,-0.16 0.224,-0.306 0.344,-0.469 l -0.344,-0.656 c -0.329,0.019 -0.647,0.082 -0.969,0.125 0.115,-0.154 0.229,-0.282 0.344,-0.438 l -0.344,-0.656 c -0.332,0.019 -0.676,0.05 -1,0.094 0.115,-0.154 0.229,-0.282 0.344,-0.438 l -0.344,-0.656 c -0.34,0.019 -0.669,0.049 -1,0.094 0.115,-0.154 0.229,-0.282 0.344,-0.438 l -0.344,-0.656 c -0.34,0.019 -0.669,0.049 -1,0.094 0.115,-0.154 0.228,-0.281 0.344,-0.438 l -0.344,-0.656 m 13.25,70.28 c -0.036,0.072 -0.058,0.147 -0.094,0.219 -0.155,0.005 -0.313,-0.005 -0.469,0 0.188,-0.07 0.378,-0.143 0.563,-0.219"
     inkscape:connector-curvature="0"
     id="path6"
     style="fill-opacity:0.23500001" />
  <g
     id="g8"
     style="fill-rule:evenodd">
    <path
       d="M 256,1 C 115.17,1 1,115.17 1,256 1,396.83 115.17,511 256,511 396.83,511 511,396.83 511,256 511,115.17 396.83,1 256,1 m 8.827,44.931 c 120.9,0 218.9,98 218.9,218.9 0,120.9 -98,218.9 -218.9,218.9 -120.9,0 -218.93,-98 -218.93,-218.9 0,-120.9 98.03,-218.9 218.93,-218.9"
       inkscape:connector-curvature="0"
       id="path10"
       style="fill-opacity:0.06700003" />
    <g
       id="g12"
       style="fill-opacity:0.12900002">
      <path
         d="m 256,4.433 c -138.94,0 -251.57,112.63 -251.57,251.57 0,138.94 112.63,251.57 251.57,251.57 138.94,0 251.57,-112.63 251.57,-251.57 C 507.57,117.063 394.94,4.433 256,4.433 m 5.885,38.556 c 120.9,0 218.9,98 218.9,218.9 0,120.9 -98,218.9 -218.9,218.9 -120.9,0 -218.93,-98 -218.93,-218.9 0,-120.9 98.03,-218.9 218.93,-218.9"
         inkscape:connector-curvature="0"
         id="path14" />
      <path
         d="m 256,8.356 c -136.77,0 -247.64,110.87 -247.64,247.64 0,136.77 110.87,247.64 247.64,247.64 136.77,0 247.64,-110.87 247.64,-247.64 C 503.64,119.226 392.77,8.356 256,8.356 m 2.942,31.691 c 120.9,0 218.9,98 218.9,218.9 0,120.9 -98,218.9 -218.9,218.9 -120.9,0 -218.93,-98 -218.93,-218.9 0,-120.9 98.03,-218.9 218.93,-218.9"
         inkscape:connector-curvature="0"
         id="path16" />
    </g>
    <path
       d="m 253.04,7.859 c -135.42,0 -245.19,109.78 -245.19,245.19 0,135.42 109.78,245.19 245.19,245.19 135.42,0 245.19,-109.78 245.19,-245.19 0,-135.42 -109.78,-245.19 -245.19,-245.19 z m 0,26.297 c 120.9,0 218.9,98 218.9,218.9 0,120.9 -98,218.9 -218.9,218.9 -120.9,0 -218.93,-98 -218.93,-218.9 0,-120.9 98.03,-218.9 218.93,-218.9 z"
       inkscape:connector-curvature="0"
       id="path18"
       style="fill:#ffffff;stroke:#000000;stroke-width:4.90399981;stroke-opacity:0.31000001" />
  </g>
  <text
     x="729.64001"
     y="231.36"
     id="text20"
     style="font-size:129.22999573px;line-height:125%;letter-spacing:0;word-spacing:0;font-family:Gentium Book Basic">
    <tspan
       x="729.64001"
       y="231.36"
       id="tspan22" />
  </text>
  <text
     x="378.91"
     y="579.25"
     transform="scale(4.0128,0.2492)"
     id="text24"
     style="font-size:46.95399857px;text-anchor:middle;font-family:Arial" />
  <text
     x="1310.91"
     y="151.36"
     id="text26"
     style="font-size:129.22999573px;line-height:125%;letter-spacing:0;word-spacing:0;font-family:Gentium Book Basic">
    <tspan
       x="1310.91"
       y="151.36"
       id="tspan28" />
  </text>
  <text
     x="523.76001"
     y="258.22"
     transform="scale(4.0128,0.2492)"
     id="text30"
     style="font-size:46.95399857px;text-anchor:middle;font-family:Arial" />
  <text
     x="239.33"
     y="-29.900999"
     id="text32"
     style="font-size:129.22999573px;line-height:125%;letter-spacing:0;word-spacing:0;font-family:Gentium Book Basic">
    <tspan
       x="239.33"
       y="-29.900999"
       id="tspan34" />
  </text>
  <text
     x="256.72"
     y="-469.14001"
     transform="scale(4.0128,0.2492)"
     id="text36"
     style="font-size:46.95399857px;text-anchor:middle;font-family:Arial" />
  <text
     x="1337.38"
     y="-246.37"
     id="text38"
     style="font-size:129.22999573px;line-height:125%;letter-spacing:0;word-spacing:0;font-family:Gentium Book Basic">
    <tspan
       x="1337.38"
       y="-246.37"
       id="tspan40" />
  </text>
  <text
     x="530.35999"
     y="-1337.8101"
     transform="scale(4.0128,0.2492)"
     id="text42"
     style="font-size:46.95399857px;text-anchor:middle;font-family:Arial" />
  <text
     x="1918.65"
     y="-326.38"
     id="text44"
     style="font-size:129.22999573px;line-height:125%;letter-spacing:0;word-spacing:0;font-family:Gentium Book Basic">
    <tspan
       x="1918.65"
       y="-326.38"
       id="tspan46" />
  </text>
  <text
     x="675.21002"
     y="-1658.85"
     transform="scale(4.0128,0.2492)"
     id="text48"
     style="font-size:46.95399857px;text-anchor:middle;font-family:Arial" />
  <text
     x="1529.53"
     y="-798.78003"
     id="text50"
     style="font-size:129.22999573px;line-height:125%;letter-spacing:0;word-spacing:0;font-family:Gentium Book Basic">
    <tspan
       x="1529.53"
       y="-798.78003"
       id="tspan52" />
  </text>
  <text
     x="578.23999"
     y="-3554.51"
     transform="scale(4.0128,0.2492)"
     id="text54"
     style="font-size:46.95399857px;text-anchor:middle;font-family:Arial" />
  <text
     x="2110.79"
     y="-878.78003"
     id="text56"
     style="font-size:129.22999573px;line-height:125%;letter-spacing:0;word-spacing:0;font-family:Gentium Book Basic">
    <tspan
       x="2110.79"
       y="-878.78003"
       id="tspan58" />
  </text>
  <text
     x="723.09003"
     y="-3875.54"
     transform="scale(4.0128,0.2492)"
     id="text60"
     style="font-size:46.95399857px;text-anchor:middle;font-family:Arial" />
  <text
     x="277.98999"
     y="535.94"
     id="text62"
     style="font-size:208.33000183px;line-height:125%;letter-spacing:0;word-spacing:0;font-family:Gentium Book Basic">
    <tspan
       x="277.98999"
       y="535.94"
       id="tspan64" />
  </text>
  <g
     transform="matrix(11.28562,0,0,11.28562,134.84,102.65)"
     id="g66"
     style="fill:#ffffff">
    <path
       d="m 20.249,14.11 c -0.121,0 -0.233,0.026 -0.351,0.037 0.12,-0.735 0.199,-0.821 0.214,-1.596 0,0.005 -0.003,0.01 -0.003,0.017 0.009,-0.069 0.023,-0.138 0.024,-0.208 C 19.949,8.495 15.303,6.28 10.073,6.234 4.837,6.28 0.193,8.495 0.003,12.36 c 0.005,0.07 0.021,0.139 0.025,0.208 0.155,6.923 4.587,12.479 10.04,12.479 2.987,0 5.664,-1.675 7.503,-4.318 0.655,0.745 1.605,1.222 2.678,1.222 1.98,0 3.587,-2.271 3.587,-4.253 0,-1.979 -1.606,-3.588 -3.586,-3.588 m -3.678,0.922 c -1.607,0.915 -3.948,1.524 -6.547,1.521 C 7.423,16.557 5.081,15.947 3.472,15.032 1.841,14.105 1.072,12.968 1.086,11.962 1.071,10.947 1.844,9.811 3.472,8.885 5.081,7.968 7.423,7.361 10.025,7.365 c 2.599,-0.005 4.94,0.603 6.547,1.52 1.631,0.927 2.404,2.062 2.389,3.077 0.015,1.01 -0.758,2.143 -2.389,3.07 m 3.678,4.974 c -0.76,-0.001 -1.372,-0.527 -1.558,-1.227 0.259,-0.563 0.488,-1.821 0.683,-2.433 0.258,-0.165 0.545,-0.287 0.875,-0.291 0.904,0.004 1.639,0.739 1.641,1.643 -0.003,0.906 -0.737,2.307 -1.641,2.308"
       inkscape:connector-curvature="0"
       id="path68" />
    <path
       d="M 15.753,9.175 C 14.347,8.375 12.298,7.844 10.023,7.846 7.746,7.844 5.695,8.375 4.287,9.175 2.863,9.987 2.186,10.982 2.198,11.87 c -0.011,0.881 0.662,1.876 2.089,2.688 0,0 1.991,-4.168 5.188,-1.029 3.196,3.139 1.574,-3.319 4.137,-0.82 2.563,2.498 4.233,-0.839 4.233,-0.839 0.013,-0.889 -0.663,-1.883 -2.092,-2.695"
       inkscape:connector-curvature="0"
       id="path70" />
    <path
       d="m 7.595,1.783 c 0.128,0.104 0.262,0.18 0.385,0.26 0.239,0.158 0.504,0.312 0.683,0.502 0.093,0.094 0.17,0.2 0.238,0.297 0.067,0.099 0.124,0.193 0.16,0.291 C 9.132,3.325 9.12,3.508 9.082,3.718 9.009,4.146 8.747,4.624 8.489,5.149 L 8.532,5.2 C 8.824,5.097 9.069,4.922 9.289,4.707 9.505,4.489 9.691,4.22 9.785,3.881 9.882,3.55 9.821,3.137 9.627,2.836 9.441,2.524 9.149,2.341 8.865,2.234 8.722,2.175 8.576,2.134 8.454,2.083 8.328,2.029 8.211,1.958 8.111,1.868 7.906,1.693 7.814,1.407 7.838,1.242 7.846,1.159 7.861,1.09 7.889,0.998 7.92,0.911 7.972,0.812 8.039,0.712 8.17,0.509 8.347,0.301 8.525,0.06 L 8.495,0 C 8.337,0.009 8.189,0.051 8.049,0.111 7.906,0.169 7.773,0.251 7.65,0.356 7.527,0.463 7.413,0.596 7.334,0.766 7.254,0.934 7.223,1.152 7.284,1.344 7.344,1.536 7.467,1.681 7.595,1.783"
       inkscape:connector-curvature="0"
       id="path72" />
    <path
       d="m 10.238,3.02 c 0.099,0.067 0.194,0.109 0.277,0.159 0.162,0.097 0.336,0.21 0.431,0.35 0.102,0.142 0.163,0.278 0.194,0.377 0.024,0.107 0.004,0.185 -0.009,0.301 -0.014,0.112 -0.053,0.255 -0.101,0.414 -0.05,0.161 -0.114,0.33 -0.169,0.533 l 0.044,0.05 C 11.122,5.165 11.302,5.063 11.464,4.929 11.624,4.793 11.763,4.61 11.833,4.37 11.906,4.132 11.856,3.824 11.707,3.61 11.568,3.386 11.35,3.27 11.148,3.216 11.047,3.186 10.944,3.166 10.865,3.138 10.783,3.109 10.708,3.065 10.648,3.004 10.518,2.887 10.502,2.676 10.545,2.611 10.562,2.576 10.569,2.556 10.577,2.511 10.59,2.467 10.613,2.41 10.644,2.346 10.71,2.214 10.805,2.066 10.897,1.871 l -0.03,-0.06 C 10.752,1.795 10.647,1.812 10.545,1.842 10.441,1.87 10.345,1.92 10.256,1.99 10.166,2.06 10.082,2.152 10.023,2.277 9.961,2.397 9.939,2.565 9.99,2.71 c 0.051,0.147 0.151,0.246 0.248,0.31"
       inkscape:connector-curvature="0"
       id="path74" />
  </g>
</svg>
