<?xml version="1.0" encoding="UTF-8" standalone="no"?>
<!-- Created with Inkscape (http://www.inkscape.org/) -->

<svg
   xmlns:dc="http://purl.org/dc/elements/1.1/"
   xmlns:cc="http://creativecommons.org/ns#"
   xmlns:rdf="http://www.w3.org/1999/02/22-rdf-syntax-ns#"
   xmlns:svg="http://www.w3.org/2000/svg"
   xmlns="http://www.w3.org/2000/svg"
   xmlns:inkscape="http://www.inkscape.org/namespaces/inkscape"
   version="1.1"
   width="100%"
   height="100%"
   viewBox="0 0 512 512"
   id="svg2">
  <metadata
     id="metadata72">
    <rdf:RDF>
      <cc:Work
         rdf:about="">
        <dc:format>image/svg+xml</dc:format>
        <dc:type
           rdf:resource="http://purl.org/dc/dcmitype/StillImage" />
      </cc:Work>
    </rdf:RDF>
  </metadata>
  <defs
     id="defs70" />
  <path
     d="m 471.95,253.05 c 0,120.9 -98.01,218.9 -218.9,218.9 -120.9,0 -218.9,-98.01 -218.9,-218.9 0,-120.9 98.01,-218.9 218.9,-218.9 120.9,0 218.9,98.01 218.9,218.9"
     inkscape:connector-curvature="0"
     id="path4"
     style="fill:#ae4a32;fill-rule:evenodd" />
  <path
     d="m 138.81,138.81 v 166.03 l 1,0.656 v 0.344 l 1,0.656 v 0.344 l 1,0.656 v 0.344 l 0.969,0.656 v 0.313 l 1,0.656 v 0.344 l 1,0.656 v 0.344 l 1,0.656 v 0.344 l 1,0.656 v 0.344 l 1,0.656 v 0.344 l 0.969,0.656 v 0.313 l 1,0.656 v 0.344 l 1,0.656 v 0.344 l 1,0.656 v 0.344 l 1,0.656 v 0.344 l 1,0.656 v 0.344 l 0.969,0.656 v 0.313 l 1,0.656 v 0.344 l 1,0.656 v 0.344 l 1,0.656 v 0.344 l 1,0.656 v 0.344 l 1,0.656 v 0.344 l 0.969,0.656 v 0.313 l 1,0.656 v 0.344 l 1,0.656 v 0.344 l 1,0.656 v 0.344 l 1,0.656 v 0.344 l 1,0.656 v 0.344 l 1,0.656 v 0.344 l 0.969,0.656 v 0.313 l 1,0.656 v 0.344 l 1,0.656 v 0.344 l 1,0.656 v 0.344 l 1,0.656 v 0.344 l 1,0.656 v 0.344 l 0.969,0.656 v 0.313 l 1,0.656 v 0.344 l 1,0.656 v 0.344 l 1,0.656 v 0.344 l 1,0.656 v 0.344 l 1,0.656 v 0.344 l 0.969,0.656 v 0.313 l 1,0.656 v 0.344 l 1,0.656 v 0.344 l 1,0.656 v 0.344 l 1,0.656 v 0.344 l 1,0.656 v 0.344 l 1,0.656 v 0.344 l 0.969,0.656 v 0.313 l 1,0.656 v 0.344 l 1,0.656 v 0.344 l 1,0.656 v 0.344 l 1,0.656 v 0.344 l 1,0.656 v 0.344 l 0.969,0.656 v 0.313 l 1,0.656 v 0.344 l 1,0.656 v 0.344 l 1,0.656 v 0.344 l 1,0.656 v 0.344 l 1,0.656 v 0.344 l 0.969,0.656 v 0.313 l 1,0.656 v 0.344 l 1,0.656 v 0.344 l 1,0.656 v 0.344 l 1,0.656 v 0.344 l 1,0.656 v 0.344 l 0.969,0.656 v 0.313 l 1,0.656 v 0.344 l 1,0.656 v 0.344 l 1,0.656 v 0.344 l 1,0.656 v 0.344 l 1,0.656 v 0.344 l 1,0.656 v 0.344 l 0.969,0.656 v 0.313 l 1,0.656 v 0.344 l 1,0.656 v 0.344 l 1,0.656 v 0.344 l 1,0.656 v 0.344 l 1,0.656 v 0.344 l 0.969,0.656 v 0.313 l 1,0.656 v 0.344 l 1,0.656 v 0.344 l 1,0.656 v 0.344 l 1,0.656 v 0.344 l 1,0.656 v 0.344 l 0.969,0.656 v 0.313 l 1,0.656 v 0.344 l 1,0.656 v 0.344 l 1,0.656 v 0.344 l 1,0.656 v 0.344 l 1,0.656 v 0.344 l 1,0.656 v 0.344 l 0.969,0.656 v 0.313 l 1,0.656 v 0.344 l 1,0.656 v 0.344 l 1,0.656 v 0.344 l 1,0.656 v 0.344 l 1,0.656 v 0.344 l 0.969,0.656 v 0.313 l 1,0.656 v 0.344 l 1,0.656 v 0.344 l 1,0.656 v 0.344 l 1,0.656 v 0.344 l 1,0.656 v 0.344 l 0.969,0.656 v 0.313 l 1,0.656 v 0.344 l 1,0.656 v 0.344 l 1,0.656 v 0.344 l 1,0.656 v 0.344 l 1,0.656 v 0.344 l 0.969,0.656 v 0.313 l 1,0.656 v 0.344 l 1,0.656 v 0.344 l 1,0.656 v 0.344 l 1,0.656 v 0.344 l 1,0.656 v 0.344 l 1,0.656 v 0.344 l 0.969,0.656 v 0.313 l 1,0.656 v 0.344 l 1,0.656 v 0.344 l 1,0.656 v 0.344 l 1,0.656 v 0.344 l 1,0.656 v 0.344 l 0.969,0.656 v 0.313 l 1,0.656 v 0.344 l 1,0.656 v 0.344 l 1,0.656 v 0.344 l 1,0.656 v 0.344 l 1,0.656 v 0.344 l 0.969,0.656 v 0.313 l 1,0.656 v 0.344 l 1,0.656 v 0.344 l 1,0.656 v 0.344 l 1,0.656 v 0.344 l 1,0.656 v 0.344 l 1,0.656 v 0.344 l 0.969,0.656 v 0.313 l 1,0.656 v 0.344 l 1,0.656 v 0.344 l 1,0.656 v 0.344 l 1,0.656 v 0.344 l 1,0.656 v 0.344 l 0.969,0.656 v 0.313 l 1,0.656 v 0.344 l 1,0.656 v 0.344 l 1,0.656 v 0.344 l 1,0.656 v 0.344 l 1,0.656 v 0.344 l 0.969,0.656 v 0.313 l 1,0.656 v 0.344 l 1,0.656 v 0.344 l 1,0.656 v 0.344 l 1,0.656 v 0.344 l 1,0.656 v 0.344 l 0.969,0.656 v 0.313 l 1,0.656 v 0.344 l 1,0.656 v 0.344 l 1,0.656 v 0.344 l 1,0.656 v 0.344 l 1,0.656 v 0.344 l 1,0.656 v 0.344 l 0.969,0.656 v 0.313 l 1,0.656 v 0.344 l 0.969,0.625 c 97.84,-21.86 170.97,-109.17 170.97,-213.59 0,-5.243 -0.2,-10.443 -0.563,-15.594 l -0.688,0.406 v -1.563 l -0.969,0.531 v -1.5 l -1,0.563 v -1.563 l -1,0.563 v -1.563 l -1,0.563 v -1.563 l -1,0.563 v -1.563 l -1,0.563 v -1.563 l -0.969,0.531 v -1.5 l -1,0.563 v -1.563 l -1,0.563 v -1.563 l -1,0.563 v -1.563 l -1,0.563 v -1.563 l -1,0.563 v -1.563 l -1,0.563 v -1.563 l -0.969,0.531 v -1.5 l -1,0.563 v -1.563 l -1,0.563 v -1.563 l -1,0.563 v -1.563 l -1,0.563 v -1.563 l -1,0.563 v -1.563 l -0.969,0.531 v -1.5 l -1,0.563 v -1.563 l -1,0.563 v -1.563 l -1,0.563 v -1.563 l -1,0.563 v -1.563 l -1,0.563 v -1.563 l -0.969,0.531 v -1.5 l -1,0.563 v -1.563 l -1,0.563 v -1.563 l -1,0.563 v -1.563 l -1,0.563 v -1.563 l -1,0.563 v -1.563 l -1,0.563 v -1.563 l -0.969,0.531 v -1.5 l -1,0.563 v -1.563 l -1,0.563 v -1.563 l -1,0.563 v -1.563 l -1,0.563 v -1.563 l -1,0.563 v -1.563 l -0.969,0.531 v -1.5 l -1,0.563 v -1.563 l -1,0.563 v -1.563 l -1,0.563 v -1.563 l -1,0.563 v -1.563 l -1,0.563 v -1.563 l -0.969,0.531 v -1.5 l -1,0.563 v -1.563 l -1,0.563 v -1.563 l -1,0.563 v -1.563 l -1,0.563 v -1.563 l -1,0.563 v -1.563 l -0.969,0.531 v -1.5 l -1,0.563 v -1.563 l -1,0.563 v -1.563 l -1,0.563 v -1.563 l -1,0.563 v -1.563 l -1,0.563 v -1.563 l -1,0.563 v -1.563 l -0.969,0.531 v -1.5 l -1,0.563 v -1.563 l -1,0.563 v -1.563 l -1,0.563 v -1.563 l -1,0.563 v -1.563 l -1,0.563 v -1.563 l -0.969,0.531 v -1.5 l -1,0.563 v -1.563 l -1,0.563 v -1.563 l -1,0.563 v -1.563 l -1,0.563 v -1.563 l -1,0.563 v -1.563 l -0.969,0.531 v -1.5 l -1,0.563 v -1.563 l -1,0.563 v -1.563 l -1,0.563 v -1.563 l -1,0.563 v -1.563 l -1,0.563 v -1.563 l -1,0.563 v -1.563 l -0.969,0.531 v -1.5 l -1,0.563 v -1.563 l -1,0.563 v -1.563 l -1,0.563 v -1.563 l -1,0.563 v -1.563 l -1,0.563 v -1.563 l -0.969,0.531 v -1.5 l -1,0.563 v -1.563 l -1,0.563 v -1.563 l -1,0.563 v -1.563 l -1,0.563 v -1.563 l -1,0.563 v -1.563 l -0.969,0.531 v -1.5 l -1,0.563 v -1.563 l -1,0.563 v -1.563 l -1,0.563 v -1.563 l -1,0.563 v -1.563 l -1,0.563 v -1.563 l -0.969,0.531 v -1.5 l -1,0.563 v -1.563 l -1,0.563 v -1.563 l -1,0.563 v -1.563 l -12.563,6.969 c -0.903,0 -1.742,0.026 -2.625,0.031 l 1.625,-1.031 c -0.903,0 -1.742,0.026 -2.625,0.031 l 1.625,-1.031 c -0.903,0 -1.742,0.026 -2.625,0.031 l 1.625,-1.031 c -0.882,0 -1.7,0.026 -2.563,0.031 l 1.594,-1 c -0.899,0 -1.746,0.026 -2.625,0.031 l 1.625,-1.031 c -0.899,0 -1.746,0.026 -2.625,0.031 l 1.625,-1.031 c -0.899,0 -1.746,0.026 -2.625,0.031 l 1.625,-1.031 c -39.06,0 -58.59,5.076 -97.66,39.06 -39.06,-33.13 -58.59,-39.06 -97.66,-39.06 l 1.594,1 c -0.203,0 -0.389,0 -0.594,0 l 1.594,1 c -0.203,0 -0.389,0 -0.594,0 l 1.594,1 c -0.203,0 -0.389,0 -0.594,0 l 1.563,0.969 c -0.202,0 -0.39,0 -0.594,0 l 1.625,1 c -0.213,0 -0.411,0 -0.625,0 l 1.594,1 c -0.203,0 -0.389,0 -0.594,0 l 1.594,1 c -0.203,0 -0.389,0 -0.594,0 l 1.594,1 c -0.203,0 -0.389,0 -0.594,0 l 1.594,1 c -0.203,0 -0.389,0 -0.594,0 l 1.563,0.969 c -0.202,0 -0.39,0 -0.594,0 l 1.625,1 c -0.213,0 -0.411,0 -0.625,0 l 1.594,1 c -0.203,0 -0.389,0 -0.594,0 l 1.625,1 c -0.214,0 -0.41,0 -0.625,0 l 1.594,1 c -0.203,0 -0.389,0 -0.594,0 l 1.594,1 c -0.203,0 -0.389,0 -0.594,0 l 1.563,0.969 c -0.202,0 -0.39,0 -0.594,0 l 1.625,1 c -0.213,0 -0.411,0 -0.625,0 l 1.625,1 c -0.214,0 -0.41,0 -0.625,0 l 1.625,1 c -0.214,0 -0.41,0 -0.625,0 l 1.594,1 c -0.203,0 -0.389,0 -0.594,0 l 1.594,1 c -0.203,0 -0.389,0 -0.594,0 l 1.563,0.969 c -0.202,0 -0.39,0 -0.594,0 l 1.625,1 c -0.213,0 -0.411,0 -0.625,0 l 1.625,1 c -0.213,0 -0.411,0 -0.625,0 l 1.625,1 c -0.096,0 -0.185,0 -0.281,0 l -44.75,-24.875"
     inkscape:connector-curvature="0"
     id="path6"
     style="fill-opacity:0.23500001" />
  <g
     id="g8"
     style="fill-rule:evenodd">
    <path
       d="M 256,1 C 115.17,1 1,115.17 1,256 1,396.83 115.17,511 256,511 396.83,511 511,396.83 511,256 511,115.17 396.83,1 256,1 m 8.827,44.931 c 120.9,0 218.9,98 218.9,218.9 0,120.9 -98,218.9 -218.9,218.9 -120.9,0 -218.93,-98 -218.93,-218.9 0,-120.9 98.03,-218.9 218.93,-218.9"
       inkscape:connector-curvature="0"
       id="path10"
       style="fill-opacity:0.06700003" />
    <g
       id="g12"
       style="fill-opacity:0.12900002">
      <path
         d="m 256,4.433 c -138.94,0 -251.57,112.63 -251.57,251.57 0,138.94 112.63,251.57 251.57,251.57 138.94,0 251.57,-112.63 251.57,-251.57 C 507.57,117.063 394.94,4.433 256,4.433 m 5.885,38.556 c 120.9,0 218.9,98 218.9,218.9 0,120.9 -98,218.9 -218.9,218.9 -120.9,0 -218.93,-98 -218.93,-218.9 0,-120.9 98.03,-218.9 218.93,-218.9"
         inkscape:connector-curvature="0"
         id="path14" />
      <path
         d="m 256,8.356 c -136.77,0 -247.64,110.87 -247.64,247.64 0,136.77 110.87,247.64 247.64,247.64 136.77,0 247.64,-110.87 247.64,-247.64 C 503.64,119.226 392.77,8.356 256,8.356 m 2.942,31.691 c 120.9,0 218.9,98 218.9,218.9 0,120.9 -98,218.9 -218.9,218.9 -120.9,0 -218.93,-98 -218.93,-218.9 0,-120.9 98.03,-218.9 218.93,-218.9"
         inkscape:connector-curvature="0"
         id="path16" />
    </g>
    <path
       d="m 253.04,7.859 c -135.42,0 -245.19,109.78 -245.19,245.19 0,135.42 109.78,245.19 245.19,245.19 135.42,0 245.19,-109.78 245.19,-245.19 0,-135.42 -109.78,-245.19 -245.19,-245.19 z m 0,26.297 c 120.9,0 218.9,98 218.9,218.9 0,120.9 -98,218.9 -218.9,218.9 -120.9,0 -218.93,-98 -218.93,-218.9 0,-120.9 98.03,-218.9 218.93,-218.9 z"
       inkscape:connector-curvature="0"
       id="path18"
       style="fill:#ffffff;stroke:#000000;stroke-width:4.90399981;stroke-opacity:0.31000001" />
  </g>
  <text
     x="729.64001"
     y="231.36"
     id="text20"
     style="font-size:129.22999573px;line-height:125%;letter-spacing:0;word-spacing:0;font-family:Gentium Book Basic">
    <tspan
       x="729.64001"
       y="231.36"
       id="tspan22" />
  </text>
  <text
     x="378.91"
     y="579.25"
     transform="scale(4.0128,0.2492)"
     id="text24"
     style="font-size:46.95399857px;text-anchor:middle;font-family:Arial" />
  <text
     x="1310.91"
     y="151.36"
     id="text26"
     style="font-size:129.22999573px;line-height:125%;letter-spacing:0;word-spacing:0;font-family:Gentium Book Basic">
    <tspan
       x="1310.91"
       y="151.36"
       id="tspan28" />
  </text>
  <text
     x="523.76001"
     y="258.22"
     transform="scale(4.0128,0.2492)"
     id="text30"
     style="font-size:46.95399857px;text-anchor:middle;font-family:Arial" />
  <text
     x="239.33"
     y="-29.900999"
     id="text32"
     style="font-size:129.22999573px;line-height:125%;letter-spacing:0;word-spacing:0;font-family:Gentium Book Basic">
    <tspan
       x="239.33"
       y="-29.900999"
       id="tspan34" />
  </text>
  <text
     x="256.72"
     y="-469.14001"
     transform="scale(4.0128,0.2492)"
     id="text36"
     style="font-size:46.95399857px;text-anchor:middle;font-family:Arial" />
  <text
     x="1337.38"
     y="-246.37"
     id="text38"
     style="font-size:129.22999573px;line-height:125%;letter-spacing:0;word-spacing:0;font-family:Gentium Book Basic">
    <tspan
       x="1337.38"
       y="-246.37"
       id="tspan40" />
  </text>
  <text
     x="530.35999"
     y="-1337.8101"
     transform="scale(4.0128,0.2492)"
     id="text42"
     style="font-size:46.95399857px;text-anchor:middle;font-family:Arial" />
  <text
     x="1918.65"
     y="-326.38"
     id="text44"
     style="font-size:129.22999573px;line-height:125%;letter-spacing:0;word-spacing:0;font-family:Gentium Book Basic">
    <tspan
       x="1918.65"
       y="-326.38"
       id="tspan46" />
  </text>
  <text
     x="675.21002"
     y="-1658.85"
     transform="scale(4.0128,0.2492)"
     id="text48"
     style="font-size:46.95399857px;text-anchor:middle;font-family:Arial" />
  <text
     x="1529.53"
     y="-798.78003"
     id="text50"
     style="font-size:129.22999573px;line-height:125%;letter-spacing:0;word-spacing:0;font-family:Gentium Book Basic">
    <tspan
       x="1529.53"
       y="-798.78003"
       id="tspan52" />
  </text>
  <text
     x="578.23999"
     y="-3554.51"
     transform="scale(4.0128,0.2492)"
     id="text54"
     style="font-size:46.95399857px;text-anchor:middle;font-family:Arial" />
  <text
     x="2110.79"
     y="-878.78003"
     id="text56"
     style="font-size:129.22999573px;line-height:125%;letter-spacing:0;word-spacing:0;font-family:Gentium Book Basic">
    <tspan
       x="2110.79"
       y="-878.78003"
       id="tspan58" />
  </text>
  <text
     x="723.09003"
     y="-3875.54"
     transform="scale(4.0128,0.2492)"
     id="text60"
     style="font-size:46.95399857px;text-anchor:middle;font-family:Arial" />
  <text
     x="277.98999"
     y="535.94"
     id="text62"
     style="font-size:208.33000183px;line-height:125%;letter-spacing:0;word-spacing:0;font-family:Gentium Book Basic">
    <tspan
       x="277.98999"
       y="535.94"
       id="tspan64" />
  </text>
  <path
     d="m -52.07,154.31 v -18 h -4 v 18 z m -5,-19 -9,-5 v 17 l 9,6 z m 15,12 v -17 l -9,5 v 18 z m -2,-17 c -4,0 -6,0.52 -10,4 -4,-3.393 -6,-4 -10,-4 l 8,5 h 4 z"
     inkscape:connector-curvature="0"
     transform="matrix(9.76568,0,0,9.76568,784,-1133.76)"
     id="path66"
     style="fill:#f9f9f9" />
</svg>
