<?xml version="1.0" encoding="UTF-8" standalone="no"?>
<svg
   xmlns:dc="http://purl.org/dc/elements/1.1/"
   xmlns:cc="http://creativecommons.org/ns#"
   xmlns:rdf="http://www.w3.org/1999/02/22-rdf-syntax-ns#"
   xmlns:svg="http://www.w3.org/2000/svg"
   xmlns="http://www.w3.org/2000/svg"
   xmlns:xlink="http://www.w3.org/1999/xlink"
   xmlns:sodipodi="http://sodipodi.sourceforge.net/DTD/sodipodi-0.dtd"
   xmlns:inkscape="http://www.inkscape.org/namespaces/inkscape"
   viewBox="0 0 512 512"
   id="svg2"
   version="1.1"
   inkscape:version="0.48.5 r10040"
   width="100%"
   height="100%"
   sodipodi:docname="budgie.svg">
  <sodipodi:namedview
     pagecolor="#ffffff"
     bordercolor="#666666"
     borderopacity="1"
     objecttolerance="10"
     gridtolerance="10"
     guidetolerance="10"
     inkscape:pageopacity="0"
     inkscape:pageshadow="2"
     inkscape:window-width="1307"
     inkscape:window-height="748"
     id="namedview66"
     showgrid="false"
     inkscape:zoom="0.57803479"
     inkscape:cx="383.85798"
     inkscape:cy="247.59636"
     inkscape:window-x="57"
     inkscape:window-y="-3"
     inkscape:window-maximized="1"
     inkscape:current-layer="svg2" />
  <metadata
     id="metadata70">
    <rdf:RDF>
      <cc:Work
         rdf:about="">
        <dc:format>image/svg+xml</dc:format>
        <dc:type
           rdf:resource="http://purl.org/dc/dcmitype/StillImage" />
        <dc:title></dc:title>
      </cc:Work>
    </rdf:RDF>
  </metadata>
  <defs
     id="defs68">
    <filter
       id="filter3251"
       inkscape:label="Air spray"
       inkscape:menu="Scatter"
       inkscape:menu-tooltip="Convert to small scattered particles with some thickness"
       width="2"
       height="2"
       y="-0.5"
       x="-0.5"
       color-interpolation-filters="sRGB">
      <feGaussianBlur
         id="feGaussianBlur3253"
         stdDeviation="0.01"
         result="result1" />
      <feBlend
         id="feBlend3255"
         in2="result1"
         result="fbSourceGraphic"
         mode="multiply" />
      <feTurbulence
         id="feTurbulence3257"
         baseFrequency="0.8"
         type="fractalNoise"
         seed="0"
         numOctaves="3"
         result="result3" />
      <feDisplacementMap
         id="feDisplacementMap3259"
         in2="result3"
         in="fbSourceGraphic"
         xChannelSelector="R"
         yChannelSelector="G"
         scale="50"
         result="result2" />
      <feMorphology
         id="feMorphology3261"
         radius="1"
         operator="dilate"
         result="result4" />
      <feBlend
         id="feBlend3263"
         in2="result2"
         mode="screen" />
    </filter>
    <filter
       id="filter3645"
       inkscape:label="Button"
       x="0"
       y="0"
       width="1"
       height="1"
       inkscape:menu="Bevels"
       inkscape:menu-tooltip="Soft bevel, slightly depressed middle"
       color-interpolation-filters="sRGB">
      <feGaussianBlur
         id="feGaussianBlur3647"
         stdDeviation="2.3"
         in="SourceAlpha"
         result="result0" />
      <feMorphology
         id="feMorphology3649"
         in="SourceAlpha"
         radius="6.6"
         result="result1" />
      <feGaussianBlur
         id="feGaussianBlur3651"
         stdDeviation="8.9"
         in="result1" />
      <feColorMatrix
         id="feColorMatrix3653"
         values="1 0 0 0 0 0 1 0 0 0 0 0 1 0 0 0 0 0 0.3 0"
         result="result91" />
      <feComposite
         id="feComposite3655"
         in2="result91"
         in="result0"
         operator="out"
         result="result2" />
      <feGaussianBlur
         id="feGaussianBlur3657"
         stdDeviation="1.7"
         result="result4" />
      <feDiffuseLighting
         id="feDiffuseLighting3659"
         surfaceScale="10"
         result="result92">
        <feDistantLight
           id="feDistantLight3661"
           azimuth="225"
           elevation="45" />
      </feDiffuseLighting>
      <feBlend
         id="feBlend3663"
         in2="SourceGraphic"
         mode="multiply"
         result="result93" />
      <feComposite
         id="feComposite3665"
         in2="SourceAlpha"
         operator="in"
         result="result3" />
      <feSpecularLighting
         id="feSpecularLighting3667"
         in="result4"
         surfaceScale="5"
         specularExponent="17.89999962"
         result="result94">
        <feDistantLight
           id="feDistantLight3669"
           azimuth="225"
           elevation="45" />
      </feSpecularLighting>
      <feComposite
         id="feComposite3671"
         in2="result3"
         operator="atop" />
    </filter>
    <filter
       id="filter3617"
       inkscape:label="Button"
       x="0"
       y="0"
       width="1"
       height="1"
       inkscape:menu="Bevels"
       inkscape:menu-tooltip="Soft bevel, slightly depressed middle"
       color-interpolation-filters="sRGB">
      <feGaussianBlur
         id="feGaussianBlur3619"
         stdDeviation="2.3"
         in="SourceAlpha"
         result="result0" />
      <feMorphology
         id="feMorphology3621"
         in="SourceAlpha"
         radius="6.6"
         result="result1" />
      <feGaussianBlur
         id="feGaussianBlur3623"
         stdDeviation="8.9"
         in="result1" />
      <feColorMatrix
         id="feColorMatrix3625"
         values="1 0 0 0 0 0 1 0 0 0 0 0 1 0 0 0 0 0 0.3 0"
         result="result91" />
      <feComposite
         id="feComposite3627"
         in2="result91"
         in="result0"
         operator="out"
         result="result2" />
      <feGaussianBlur
         id="feGaussianBlur3629"
         stdDeviation="1.7"
         result="result4" />
      <feDiffuseLighting
         id="feDiffuseLighting3631"
         surfaceScale="10"
         result="result92">
        <feDistantLight
           id="feDistantLight3633"
           azimuth="225"
           elevation="45" />
      </feDiffuseLighting>
      <feBlend
         id="feBlend3635"
         in2="SourceGraphic"
         mode="multiply"
         result="result93" />
      <feComposite
         id="feComposite3637"
         in2="SourceAlpha"
         operator="in"
         result="result3" />
      <feSpecularLighting
         id="feSpecularLighting3639"
         in="result4"
         surfaceScale="5"
         specularExponent="17.89999962"
         result="result94">
        <feDistantLight
           id="feDistantLight3641"
           azimuth="225"
           elevation="45" />
      </feSpecularLighting>
      <feComposite
         id="feComposite3643"
         in2="result3"
         operator="atop" />
    </filter>
    <filter
       id="filter3476"
       inkscape:label="Air spray"
       inkscape:menu="Scatter"
       inkscape:menu-tooltip="Convert to small scattered particles with some thickness"
       width="2"
       height="2"
       y="-0.5"
       x="-0.5"
       color-interpolation-filters="sRGB">
      <feGaussianBlur
         id="feGaussianBlur3478"
         stdDeviation="0.01"
         result="result1" />
      <feBlend
         in2="result1"
         id="feBlend3480"
         result="fbSourceGraphic"
         mode="multiply" />
      <feTurbulence
         id="feTurbulence3482"
         baseFrequency="0.8"
         type="fractalNoise"
         seed="0"
         numOctaves="3"
         result="result3" />
      <feDisplacementMap
         in2="result3"
         id="feDisplacementMap3484"
         in="fbSourceGraphic"
         xChannelSelector="R"
         yChannelSelector="G"
         scale="50"
         result="result2" />
      <feMorphology
         id="feMorphology3486"
         radius="1"
         operator="dilate"
         result="result4" />
      <feBlend
         in2="result2"
         id="feBlend3488"
         mode="screen" />
    </filter>
    <clipPath
       clipPathUnits="userSpaceOnUse"
       id="clipPath7933">
      <path
         d="m 471.9456,253.05189 c 0,120.89699 -98.00565,218.90724 -218.90724,218.90724 -120.89698,0 -218.90723,-98.00566 -218.90723,-218.90724 0,-120.89698 98.00565,-218.907232 218.90723,-218.907232 120.89699,0 218.90724,98.005652 218.90724,218.907232"
         id="path7935"
         inkscape:connector-curvature="0"
         style="fill:#26a6a6;fill-opacity:1;fill-rule:evenodd" />
    </clipPath>
    <path
       style="fill:#ffffff;fill-rule:evenodd;stroke:#ffffff"
       id="0"
       inkscape:connector-curvature="0"
       d="m 261.63,150.37 -21.929,5.586 -7.83,21.23 -12.09,-19.13 -22.612,-0.886 14.457,-17.409 -6.145,-21.779 21.02,8.37 18.814,-12.574 -1.464,22.582 z" />
    <linearGradient
       x2="47"
       x1="1"
       gradientTransform="matrix(0,-1,1,0,-1.5e-6,47.999998)"
       gradientUnits="userSpaceOnUse"
       id="linearGradient3124">
      <stop
         id="stop8116"
         stop-opacity="1"
         stop-color="#463b6b" />
      <stop
         id="stop8118"
         stop-opacity="1"
         stop-color="#4f4277"
         offset="1" />
    </linearGradient>
    <clipPath
       id="clipPath8109">
      <g
         id="g8111"
         transform="translate(0,-1004.3622)">
        <path
           id="path8113"
           fill="#1890d0"
           transform="matrix(15.333333,0,0,11.5,414.99999,878.8622)"
           d="m -24 13 c 0 1.105 -0.672 2 -1.5 2 -0.828 0 -1.5 -0.895 -1.5 -2 0 -1.105 0.672 -2 1.5 -2 0.828 0 1.5 0.895 1.5 2 z" />
      </g>
    </clipPath>
    <clipPath
       id="clipPath8103">
      <g
         id="g8105"
         transform="translate(0,-1004.3622)">
        <path
           id="path8107"
           fill="#1890d0"
           transform="matrix(15.333333,0,0,11.5,414.99999,878.8622)"
           d="m -24 13 c 0 1.105 -0.672 2 -1.5 2 -0.828 0 -1.5 -0.895 -1.5 -2 0 -1.105 0.672 -2 1.5 -2 0.828 0 1.5 0.895 1.5 2 z" />
      </g>
    </clipPath>
  </defs>
  <text
     font-size="129.23"
     letter-spacing="0"
     line-height="125%"
     word-spacing="0"
     x="729.64001"
     y="231.35997"
     id="text20"
     sodipodi:linespacing="125%"
     style="font-size:129.22999573px;line-height:125%;letter-spacing:0;word-spacing:0;font-family:Gentium Book Basic">
    <tspan
       x="729.64001"
       y="231.35997"
       id="tspan22" />
  </text>
  <text
     x="378.90805"
     y="579.25812"
     font-size="46.954"
     transform="scale(4.0128205,0.24920128)"
     id="text24"
     style="font-size:46.95375824px;text-anchor:middle;font-family:Arial" />
  <text
     font-size="129.23"
     letter-spacing="0"
     line-height="125%"
     word-spacing="0"
     x="1310.91"
     y="151.35997"
     id="text26"
     sodipodi:linespacing="125%"
     style="font-size:129.22999573px;line-height:125%;letter-spacing:0;word-spacing:0;font-family:Gentium Book Basic">
    <tspan
       x="1310.91"
       y="151.35997"
       id="tspan28" />
  </text>
  <text
     x="523.75732"
     y="258.21997"
     font-size="46.954"
     transform="scale(4.0128205,0.24920128)"
     id="text30"
     style="font-size:46.95375824px;text-anchor:middle;font-family:Arial" />
  <text
     font-size="129.23"
     letter-spacing="0"
     line-height="125%"
     word-spacing="0"
     x="239.33"
     y="-29.900009"
     id="text32"
     sodipodi:linespacing="125%"
     style="font-size:129.22999573px;line-height:125%;letter-spacing:0;word-spacing:0;font-family:Gentium Book Basic">
    <tspan
       x="239.33"
       y="-29.900009"
       id="tspan34" />
  </text>
  <text
     x="256.71869"
     y="-469.1264"
     font-size="46.954"
     transform="scale(4.0128205,0.24920128)"
     id="text36"
     style="font-size:46.95375824px;text-anchor:middle;font-family:Arial" />
  <text
     font-size="129.23"
     letter-spacing="0"
     line-height="125%"
     word-spacing="0"
     x="1337.38"
     y="-246.37001"
     id="text38"
     sodipodi:linespacing="125%"
     style="font-size:129.22999573px;line-height:125%;letter-spacing:0;word-spacing:0;font-family:Gentium Book Basic">
    <tspan
       x="1337.38"
       y="-246.37001"
       id="tspan40" />
  </text>
  <text
     x="530.3573"
     y="-1337.802"
     font-size="46.954"
     transform="scale(4.0128205,0.24920128)"
     id="text42"
     style="font-size:46.95375824px;text-anchor:middle;font-family:Arial" />
  <text
     font-size="129.23"
     letter-spacing="0"
     line-height="125%"
     word-spacing="0"
     x="1918.65"
     y="-326.37"
     id="text44"
     sodipodi:linespacing="125%"
     style="font-size:129.22999573px;line-height:125%;letter-spacing:0;word-spacing:0;font-family:Gentium Book Basic">
    <tspan
       x="1918.65"
       y="-326.37"
       id="tspan46" />
  </text>
  <text
     x="675.20654"
     y="-1658.8303"
     font-size="46.954"
     transform="scale(4.0128205,0.24920128)"
     id="text48"
     style="font-size:46.95375824px;text-anchor:middle;font-family:Arial" />
  <text
     font-size="129.23"
     letter-spacing="0"
     line-height="125%"
     word-spacing="0"
     x="1529.53"
     y="-798.77002"
     id="text50"
     sodipodi:linespacing="125%"
     style="font-size:129.22999573px;line-height:125%;letter-spacing:0;word-spacing:0;font-family:Gentium Book Basic">
    <tspan
       x="1529.53"
       y="-798.77002"
       id="tspan52" />
  </text>
  <text
     x="578.237"
     y="-3554.4807"
     font-size="46.954"
     transform="scale(4.0128205,0.24920128)"
     id="text54"
     style="font-size:46.95375824px;text-anchor:middle;font-family:Arial" />
  <text
     font-size="129.23"
     letter-spacing="0"
     line-height="125%"
     word-spacing="0"
     x="2110.79"
     y="-878.78003"
     id="text56"
     sodipodi:linespacing="125%"
     style="font-size:129.22999573px;line-height:125%;letter-spacing:0;word-spacing:0;font-family:Gentium Book Basic">
    <tspan
       x="2110.79"
       y="-878.78003"
       id="tspan58" />
  </text>
  <text
     x="723.0863"
     y="-3875.519"
     font-size="46.954"
     transform="scale(4.0128205,0.24920128)"
     id="text60"
     style="font-size:46.95375824px;text-anchor:middle;font-family:Arial" />
  <text
     font-size="208.33"
     letter-spacing="0"
     line-height="125%"
     word-spacing="0"
     x="277.98999"
     y="535.94006"
     id="text62"
     sodipodi:linespacing="125%"
     style="font-size:208.33000183px;line-height:125%;letter-spacing:0;word-spacing:0;font-family:Gentium Book Basic">
    <tspan
       x="277.98999"
       y="535.94006"
       id="tspan64" />
  </text>
  <path
     style="fill:#55405f;fill-rule:evenodd"
     id="path11"
     inkscape:connector-curvature="0"
     d="m 471.95,253.05 c 0,120.9 -98.01,218.9 -218.9,218.9 -120.9,0 -218.9,-98.01 -218.9,-218.9 0,-120.9 98.01,-218.9 218.9,-218.9 120.9,0 218.9,98.01 218.9,218.9" />
  <path
     style="fill:#19171c;stroke:none;stroke-width:1px;stroke-linecap:butt;stroke-linejoin:miter;stroke-opacity:1"
     d="M 34.1875 257.0625 C 36.331834 376.09738 133.50578 471.9375 253.0625 471.9375 C 325.24299 471.9375 389.24989 437.01332 429.125 383.125 C 398.74727 365.26715 375.05358 350.39287 371.875 345.625 C 362.08865 330.94546 310.721 304.03635 276.46875 294.25 C 242.2165 284.46364 122.32782 289.37102 92.96875 282.03125 C 84.274285 279.85763 61.704744 269.8557 34.1875 257.0625 z "
     id="path8236" />
  <path
     style="fill-opacity:0.23500001;fill-rule:evenodd"
     id="path13"
     inkscape:connector-curvature="0"
     d="m 296.59,95.97 -16.688,11.125 -18.625,-7.406 c 0.042,0.15 5.438,19.313 5.438,19.313 -0.099,0.119 -12.813,15.406 -12.813,15.406 0.014,0.001 1.484,0.05 1.781,0.063 -0.089,0.107 -0.781,0.938 -0.781,0.938 0.014,0.001 1.484,0.05 1.781,0.063 -0.089,0.107 -0.781,0.938 -0.781,0.938 0.014,0.001 1.484,0.05 1.781,0.063 -0.089,0.107 -0.781,0.938 -0.781,0.938 0.013,0.001 1.44,0.051 1.719,0.063 -0.083,0.099 -0.75,0.906 -0.75,0.906 0.014,0.001 1.484,0.05 1.781,0.063 -0.089,0.107 -0.781,0.938 -0.781,0.938 0.013,0.001 1.484,0.05 1.781,0.063 -0.089,0.107 -0.781,0.938 -0.781,0.938 0.013,0.001 1.484,0.05 1.781,0.063 -0.089,0.107 -0.781,0.938 -0.781,0.938 0.013,10e-4 1.484,0.05 1.781,0.063 -0.089,0.107 -0.781,0.938 -0.781,0.938 0.013,0.001 1.484,0.05 1.781,0.063 -0.089,0.107 -0.781,0.938 -0.781,0.938 0.013,0.001 1.441,0.051 1.719,0.063 -0.083,0.099 -0.75,0.906 -0.75,0.906 0.013,10e-4 1.484,0.05 1.781,0.063 -0.089,0.107 -0.781,0.938 -0.781,0.938 0.013,0.001 1.484,0.05 1.781,0.063 -0.089,0.107 -0.781,0.938 -0.781,0.938 0.013,0.001 1.484,0.05 1.781,0.063 l -0.781,0.938 c 0.013,0.001 1.484,0.05 1.781,0.063 l -0.781,0.938 c 0.013,0.001 1.484,0.05 1.781,0.063 l -0.781,0.938 c 0.012,0.001 1.441,0.051 1.719,0.063 l -0.75,0.906 c 0.013,0.001 1.484,0.05 1.781,0.063 -0.089,0.107 -0.781,0.938 -0.781,0.938 0.013,0.001 1.484,0.05 1.781,0.063 -0.089,0.107 -0.781,0.938 -0.781,0.938 0.013,10e-4 1.484,0.05 1.781,0.063 -0.089,0.107 -0.781,0.938 -0.781,0.938 0.012,0.001 1.484,0.05 1.781,0.063 -0.089,0.107 -0.781,0.938 -0.781,0.938 0.012,0.001 1.484,0.05 1.781,0.063 -0.089,0.107 -0.781,0.938 -0.781,0.938 0.012,0.001 1.441,0.051 1.719,0.063 -0.083,0.1 -0.75,0.906 -0.75,0.906 h 0.031 c 0.012,0.001 1.462,0.051 1.75,0.063 -0.089,0.107 -0.781,0.938 -0.781,0.938 0.012,0.001 1.485,0.05 1.781,0.063 -0.089,0.107 -0.781,0.938 -0.781,0.938 0.012,0.001 1.485,0.05 1.781,0.063 -0.089,0.107 -0.781,0.938 -0.781,0.938 0.012,0.001 1.485,0.05 1.781,0.063 -0.089,0.107 -0.781,0.938 -0.781,0.938 0.012,0 1.485,0.05 1.781,0.063 -0.089,0.107 -0.781,0.938 -0.781,0.938 0.012,0 1.485,0.05 1.781,0.063 -0.089,0.107 -0.781,0.938 -0.781,0.938 0.011,0 1.441,0.051 1.719,0.063 l -0.75,0.906 c 0.012,0 1.485,0.05 1.781,0.063 l -0.781,0.938 c 0.012,0 1.485,0.05 1.781,0.063 l -0.781,0.938 c 0.012,0 1.485,0.05 1.781,0.063 l -0.781,0.938 c 0.012,0 1.485,0.05 1.781,0.063 l -0.781,0.938 c 0.012,0 1.485,0.05 1.781,0.063 l -0.781,0.938 c 0.011,0 1.442,0.051 1.719,0.063 l -0.75,0.906 c 0.011,0 1.485,0.05 1.781,0.063 l -0.781,0.938 c 0.011,0 1.485,0.05 1.781,0.063 l -0.781,0.938 c 0.011,0 1.485,0.05 1.781,0.063 l -0.781,0.938 c 0.011,0 1.485,0.05 1.781,0.063 l -0.781,0.938 c 0.011,0 1.485,0.05 1.781,0.063 l -0.781,0.938 c 0.011,0 1.442,0.051 1.719,0.063 -0.083,0.099 -0.75,0.906 -0.75,0.906 0.011,0 1.485,0.05 1.781,0.063 l -0.781,0.938 c 0.011,0 1.485,0.05 1.781,0.063 l -0.781,0.938 c 0.011,0 1.486,0.05 1.781,0.063 l -0.781,0.938 c 0.011,0 1.486,0.05 1.781,0.063 l -0.781,0.938 c 0.011,0 1.486,0.05 1.781,0.063 l -0.781,0.938 c 0.011,0 1.486,0.05 1.781,0.063 l -0.781,0.938 c 0.01,0 1.442,0.051 1.719,0.063 l -0.75,0.906 c 0.011,0 1.486,0.05 1.781,0.063 l -0.781,0.938 c 0.01,0 1.486,0.05 1.781,0.063 l -0.781,0.938 c 0.01,0 1.486,0.05 1.781,0.063 l -0.781,0.938 c 0.01,0 1.486,0.05 1.781,0.063 l -0.781,0.938 c 0.01,0 1.486,0.05 1.781,0.063 l -0.781,0.938 c 0.01,0 1.443,0.051 1.719,0.063 l -0.75,0.906 c 0.01,0 1.486,0.05 1.781,0.063 l -0.781,0.938 c 0.01,0 1.486,0.05 1.781,0.063 -0.089,0.107 -0.781,0.938 -0.781,0.938 0.01,0 1.486,0.05 1.781,0.063 -0.089,0.107 -0.781,0.938 -0.781,0.938 0.01,0 1.486,0.05 1.781,0.063 l -0.781,0.938 c 0.01,0 1.486,0.051 1.781,0.063 l -0.781,0.938 c 0.009,0 1.443,0.051 1.719,0.063 l -0.75,0.906 c 0.01,0 1.486,0.051 1.781,0.063 l -0.781,0.938 c 0.01,0 1.486,0.051 1.781,0.063 l -0.781,0.938 c 0.01,0 1.486,0.051 1.781,0.063 l -0.781,0.938 c 0.009,0 1.486,0.051 1.781,0.063 l -0.781,0.938 c 0.009,0 1.486,0.051 1.781,0.063 l -0.781,0.938 c 0.009,0 1.443,0.051 1.719,0.063 l -0.75,0.906 h 0.031 c 0.009,0 1.464,0.051 1.75,0.063 l -0.781,0.938 c 0.009,0 1.487,0.051 1.781,0.063 l -0.781,0.938 c 0.009,0 1.487,0.051 1.781,0.063 l -0.781,0.938 c 0.009,0 1.487,0.051 1.781,0.063 l -0.781,0.938 c 0.009,0 1.487,0.051 1.781,0.063 l -0.781,0.938 c 0.009,0 1.487,0.051 1.781,0.063 l -0.781,0.938 c 0.009,0 1.443,0.051 1.719,0.063 l -0.75,0.906 c 0.009,0 1.487,0.051 1.781,0.063 -0.089,0.107 -0.781,0.938 -0.781,0.938 0.009,0 1.487,0.051 1.781,0.063 l -0.781,0.938 c 0.009,0 1.487,0.051 1.781,0.063 l -0.781,0.938 c 0.009,0 1.487,0.051 1.781,0.063 l -0.781,0.938 c 0.009,0 1.487,0.051 1.781,0.063 l -0.781,0.938 c 0.008,0 1.444,0.051 1.719,0.063 l -0.75,0.906 c 0.008,0 1.487,0.051 1.781,0.063 l -0.781,0.938 c 0.008,0 1.487,0.051 1.781,0.063 l -0.781,0.938 c 0.008,0 1.487,0.051 1.781,0.063 l -0.781,0.938 c 0.008,0 1.487,0.051 1.781,0.063 l -0.781,0.938 c 0.008,0 1.487,0.051 1.781,0.063 l -0.781,0.938 c 0.008,0 1.444,0.051 1.719,0.063 l -0.75,0.906 c 0.008,0 1.487,0.051 1.781,0.063 l -0.781,0.938 c 0.008,0 1.487,0.051 1.781,0.063 l -0.781,0.938 c 0.008,0 1.488,0.051 1.781,0.063 l -0.781,0.938 c 0.008,0 1.488,0.051 1.781,0.063 l -0.781,0.938 c 0.008,0 1.488,0.051 1.781,0.063 -0.089,0.107 -0.781,0.938 -0.781,0.938 0.008,0 1.488,0.051 1.781,0.063 l -0.781,0.938 c 0.007,0 1.444,0.051 1.719,0.063 l -0.75,0.906 c 0.007,0 1.488,0.051 1.781,0.063 l -0.781,0.938 c 0.007,0 1.488,0.051 1.781,0.063 l -0.781,0.938 c 0.007,0 1.488,0.051 1.781,0.063 l -0.781,0.938 c 0.007,0 1.488,0.051 1.781,0.063 l -0.781,0.938 c 0.007,0 1.488,0.051 1.781,0.063 l -0.781,0.938 c 0.007,0 1.445,0.051 1.719,0.063 l -0.75,0.906 c 0.007,0 1.488,0.051 1.781,0.063 l -0.781,0.938 c 0.007,0 1.488,0.051 1.781,0.063 l -0.781,0.938 c 0.007,0 1.488,0.051 1.781,0.063 l -0.781,0.938 c 0.007,0 1.488,0.051 1.781,0.063 l -0.781,0.938 c 0.007,0 1.488,0.051 1.781,0.063 l -0.781,0.938 c 0.006,0 1.445,0.051 1.719,0.063 l -0.75,0.906 c 0.007,0 1.488,0.051 1.781,0.063 l -0.781,0.938 1.781,0.063 -0.781,0.938 c 0.007,0 1.488,0.051 1.781,0.063 l -0.781,0.938 c 0.006,0 1.488,0.051 1.781,0.063 l -0.781,0.938 c 0.006,0 1.488,0.051 1.781,0.063 l -0.781,0.938 c 0.006,0 1.445,0.051 1.719,0.063 l -0.75,0.906 h 0.031 c 0.006,0 1.466,0.051 1.75,0.063 l -0.625,0.75 c -5.309,-2.12 -11,-4.406 -11,-4.406 0.042,0.15 5.438,19.313 5.438,19.313 -0.045,0.054 -2.887,3.526 -5.719,6.938 0.001,-0.012 0,-0.188 0,-0.188 l -1.125,0.75 c 0.048,-0.752 0.125,-1.75 0.125,-1.75 l -1.125,0.75 c 0.047,-0.739 0.125,-1.75 0.125,-1.75 l -1.125,0.75 c 0.047,-0.733 0.125,-1.75 0.125,-1.75 l -1.125,0.75 c 0.047,-0.728 0.125,-1.75 0.125,-1.75 l -1.094,0.719 c 0.044,-0.681 0.125,-1.688 0.125,-1.688 l -1.125,0.75 c 0.046,-0.715 0.125,-1.75 0.125,-1.75 l -1.125,0.75 c 0.045,-0.71 0.125,-1.75 0.125,-1.75 l -1.125,0.75 c 0.045,-0.698 0.125,-1.75 0.125,-1.75 l -1.125,0.75 c 0.044,-0.692 0.125,-1.75 0.125,-1.75 l -1.125,0.75 c 0.044,-0.687 0.125,-1.75 0.125,-1.75 l -1.094,0.719 c 0.041,-0.642 0.125,-1.688 0.125,-1.688 l -1.125,0.75 c 0.043,-0.675 0.125,-1.75 0.125,-1.75 l -1.125,0.75 c 0.043,-0.67 0.125,-1.75 0.125,-1.75 l -1.125,0.75 c 0.042,-0.66 0.125,-1.75 0.125,-1.75 l -1.125,0.75 c 0.042,-0.654 0.125,-1.75 0.125,-1.75 l -1.094,0.719 c 0.04,-0.629 0.094,-1.719 0.094,-1.719 l -1.125,0.75 c 0.041,-0.639 0.125,-1.75 0.125,-1.75 l -1.094,0.719 c 0.038,-0.6 0.125,-1.688 0.125,-1.688 l -1.125,0.75 c 0.041,-0.633 0.125,-1.75 0.125,-1.75 l -1.125,0.75 c 0.04,-0.624 0.125,-1.75 0.125,-1.75 l -1.125,0.75 c 0.04,-0.619 0.125,-1.75 0.125,-1.75 l -1.094,0.719 c 0.038,-0.594 0.094,-1.719 0.094,-1.719 l -1.094,0.75 c 0.039,-0.604 0.094,-1.75 0.094,-1.75 l -1.094,0.719 c 0.036,-0.568 0.125,-1.688 0.125,-1.688 l -1.125,0.75 c 0.038,-0.6 0.125,-1.75 0.125,-1.75 l -1.125,0.75 0.125,-1.75 -1.125,0.75 c 0.038,-0.586 0.125,-1.75 0.125,-1.75 l -1.125,0.75 c 0.037,-0.582 0.125,-1.75 0.125,-1.75 l -1.125,0.75 c 0.037,-0.574 0.125,-1.75 0.125,-1.75 l -1.094,0.719 c 0.034,-0.538 0.125,-1.688 0.125,-1.688 l -1.125,0.75 c 0.036,-0.565 0.125,-1.75 0.125,-1.75 l -1.125,0.75 c 0.036,-0.561 0.125,-1.75 0.125,-1.75 l -1.125,0.75 c 0.036,-0.557 0.125,-1.75 0.125,-1.75 l -1.125,0.75 c 0.035,-0.55 0.125,-1.75 0.125,-1.75 l -1.125,0.75 c 0.035,-0.546 0.125,-1.75 0.125,-1.75 l -1.125,0.75 c 0.035,-0.542 0.125,-1.75 0.125,-1.75 l -1.094,0.719 c 0.032,-0.504 0.125,-1.688 0.125,-1.688 l -1.125,0.75 c 0.034,-0.534 0.125,-1.75 0.125,-1.75 l -1.125,0.75 c 0.034,-0.53 0.125,-1.75 0.125,-1.75 l -1.125,0.75 c 0.034,-0.523 0.125,-1.75 0.125,-1.75 l -1.094,0.719 c 0.032,-0.502 0.094,-1.719 0.094,-1.719 l -1.125,0.75 c 0.033,-0.516 0.125,-1.75 0.125,-1.75 l -1.094,0.719 c 0.031,-0.48 0.125,-1.688 0.125,-1.688 l -1.125,0.75 c 0.033,-0.509 0.125,-1.75 0.125,-1.75 l -1.125,0.75 c 0.032,-0.505 0.125,-1.75 0.125,-1.75 l -1.125,0.75 0.125,-1.75 -1.125,0.75 c 0.032,-0.496 0.125,-1.75 0.125,-1.75 l -1.125,0.75 c 0.032,-0.492 0.125,-1.75 0.125,-1.75 l -1.094,0.719 c 0.029,-0.458 0.125,-1.688 0.125,-1.688 l -1.125,0.75 c 0.031,-0.486 0.125,-1.75 0.125,-1.75 l -1.125,0.75 c 0.031,-0.483 0.125,-1.75 0.125,-1.75 l -1.125,0.75 c 0.031,-0.477 0.125,-1.75 0.125,-1.75 l -1.125,0.75 c 0.03,-0.474 0.125,-1.75 0.125,-1.75 l -1.125,0.75 c 0.03,-0.471 0.125,-1.75 0.125,-1.75 l -1.094,0.719 c 0.028,-0.438 0.125,-1.688 0.125,-1.688 l -1.125,0.75 c 0.03,-0.465 0.125,-1.75 0.125,-1.75 l -1.125,0.75 c 0.03,-0.462 0.125,-1.75 0.125,-1.75 l -1.125,0.75 c 0.029,-0.457 0.125,-1.75 0.125,-1.75 l -1.125,0.75 c 0.029,-0.454 0.125,-1.75 0.125,-1.75 l -1.125,0.75 c 0.029,-0.451 0.125,-1.75 0.125,-1.75 l -1.125,0.75 c 0.029,-0.446 0.125,-1.75 0.125,-1.75 l -1.094,0.719 c 0.027,-0.417 0.125,-1.688 0.125,-1.688 l -1.125,0.75 c 0.028,-0.443 0.125,-1.75 0.125,-1.75 l -1.125,0.75 c 0.028,-0.438 0.125,-1.75 0.125,-1.75 l -1.125,0.75 c 0.028,-0.435 0.125,-1.75 0.125,-1.75 l -1.125,0.75 c 0.028,-0.431 0.125,-1.75 0.125,-1.75 l -1.125,0.75 c 0.027,-0.428 0.125,-1.75 0.125,-1.75 l -1.094,0.719 c 0.026,-0.4 0.125,-1.688 0.125,-1.688 l -1.125,0.75 c 0.027,-0.423 0.125,-1.75 0.125,-1.75 l -1.125,0.75 c 0.027,-0.42 0.125,-1.75 0.125,-1.75 l -1.125,0.75 c 0.027,-0.418 0.125,-1.75 0.125,-1.75 l -1.125,0.75 c 0.027,-0.414 0.125,-1.75 0.125,-1.75 l -1.125,0.75 c 0.026,-0.411 0.125,-1.75 0.125,-1.75 l -1.094,0.719 c 0.025,-0.384 0.125,-1.688 0.125,-1.688 l -1.125,0.75 c 0.026,-0.407 0.125,-1.75 0.125,-1.75 l -1.125,0.75 c 0.026,-0.404 0.125,-1.75 0.125,-1.75 l -1.125,0.75 c 0.026,-0.402 0.125,-1.75 0.125,-1.75 l -1.125,0.75 c 0.026,-0.398 0.125,-1.75 0.125,-1.75 l -1.125,0.75 c 0.025,-0.396 0.125,-1.75 0.125,-1.75 l -1.125,0.75 c 0.025,-0.394 0.125,-1.75 0.125,-1.75 l -1.094,0.719 c 0.023,-0.366 0.125,-1.688 0.125,-1.688 l -1.125,0.75 c 0.025,-0.39 0.125,-1.75 0.125,-1.75 l -1.094,0.75 c 0.025,-0.387 0.094,-1.75 0.094,-1.75 l -1.125,0.75 c 0.025,-0.384 0.125,-1.75 0.125,-1.75 l -1.094,0.75 c 0.024,-0.381 0.094,-1.75 0.094,-1.75 l -1.094,0.75 c 0.024,-0.379 0.094,-1.75 0.094,-1.75 l -1.063,0.719 c 0.023,-0.352 0.094,-1.688 0.094,-1.688 l -1.125,0.75 c 0.024,-0.376 0.125,-1.75 0.125,-1.75 l -1.125,0.75 c 0.024,-0.374 0.125,-1.75 0.125,-1.75 l -1.094,0.75 c 0.024,-0.369 0.094,-1.75 0.094,-1.75 l -1.125,0.75 c 0.024,-0.368 0.125,-1.75 0.125,-1.75 l -1.125,0.75 c 0.023,-0.366 0.125,-1.75 0.125,-1.75 l -1.094,0.719 c 0.022,-0.341 0.125,-1.688 0.125,-1.688 l -1.125,0.75 c 0.023,-0.363 0.125,-1.75 0.125,-1.75 l -1.125,0.75 c 0.023,-0.361 0.125,-1.75 0.125,-1.75 l -1.125,0.75 c 0.023,-0.358 0.125,-1.75 0.125,-1.75 l -1.125,0.75 c 0.023,-0.356 0.125,-1.75 0.125,-1.75 l -1.125,0.75 c 0.023,-0.353 0.125,-1.75 0.125,-1.75 l -1.094,0.719 c 0.021,-0.329 0.125,-1.688 0.125,-1.688 l -1.125,0.75 c 0.022,-0.35 0.125,-1.75 0.125,-1.75 l -1.125,0.719 c 0.022,-0.336 0.125,-1.719 0.125,-1.719 l -1.125,0.75 c 0.022,-0.346 0.125,-1.75 0.125,-1.75 l -1.125,0.75 c 0.022,-0.344 0.125,-1.75 0.125,-1.75 l -1.125,0.75 c 0.022,-0.341 0.125,-1.75 0.125,-1.75 l -1.125,0.75 c 0.022,-0.34 0.125,-1.75 0.125,-1.75 l -1.094,0.719 c 0.02,-0.317 0.125,-1.688 0.125,-1.688 l -1.125,0.75 0.125,-1.75 -1.125,0.75 c 0.021,-0.335 0.125,-1.75 0.125,-1.75 l -1.125,0.75 c 0.021,-0.333 0.125,-1.75 0.125,-1.75 l -1.125,0.75 c 0.021,-0.33 0.125,-1.75 0.125,-1.75 l -1.094,0.75 c 0.021,-0.328 0.094,-1.75 0.094,-1.75 l -1.063,0.719 c 0.02,-0.306 0.094,-1.688 0.094,-1.688 l -1.125,0.719 c 0.02,-0.315 0.125,-1.719 0.125,-1.719 l -1.125,0.719 c 0.02,-0.314 0.125,-1.719 0.125,-1.719 l -1.125,0.75 c 0.021,-0.323 0.125,-1.75 0.125,-1.75 l -1.125,0.75 c 0.021,-0.32 0.125,-1.75 0.125,-1.75 l -1.125,0.75 c 0.02,-0.319 0.125,-1.75 0.125,-1.75 l -1.094,0.719 c 0.019,-0.297 0.125,-1.688 0.125,-1.688 l -1.125,0.719 c 0.02,-0.305 0.125,-1.719 0.125,-1.719 l -1.125,0.75 c 0.02,-0.315 0.125,-1.75 0.125,-1.75 l -1.125,0.75 c 0.02,-0.313 0.125,-1.75 0.125,-1.75 l -1.125,0.75 c 0.02,-0.311 0.125,-1.75 0.125,-1.75 l -1.125,0.75 c 0.02,-0.309 0.125,-1.75 0.125,-1.75 l -1.094,0.75 c 0.02,-0.307 0.094,-1.75 0.094,-1.75 l -1.094,0.75 c 0.019,-0.296 0.125,-1.719 0.125,-1.719 l -1.125,0.75 c 0.02,-0.305 0.125,-1.75 0.125,-1.75 l -1.125,0.719 0.125,-1.719 -1.125,0.75 c 0.019,-0.302 0.125,-1.75 0.125,-1.75 l -1.094,0.75 c 0.019,-0.3 0.094,-1.75 0.094,-1.75 l -1.125,0.75 c 0.019,-0.299 0.125,-1.75 0.125,-1.75 l -1.094,0.75 c 0.018,-0.288 0.125,-1.719 0.125,-1.719 l -1.094,0.719 c 0.018,-0.286 0.094,-1.719 0.094,-1.719 l -1.125,0.75 c 0.019,-0.295 0.125,-1.75 0.125,-1.75 l -1.094,0.719 c 0.018,-0.283 0.094,-1.719 0.094,-1.719 l -1,0.656 c -0.001,0.001 -0.122,0.061 -0.125,0.063 0.018,-0.282 0.125,-1.719 0.125,-1.719 l -0.906,0.625 c -0.002,0.001 -0.212,0.12 -0.219,0.125 0.019,-0.29 0.125,-1.75 0.125,-1.75 l -0.813,0.563 c -0.002,0.001 -0.269,0.18 -0.281,0.188 0.018,-0.28 0.125,-1.719 0.125,-1.719 l -0.75,0.5 -0.375,0.25 c 0.018,-0.288 0.125,-1.75 0.125,-1.75 l -0.688,0.438 c -0.003,0.002 -0.412,0.264 -0.438,0.281 0.018,-0.277 0.125,-1.719 0.125,-1.719 l -0.594,0.375 c -0.004,0.003 -0.494,0.319 -0.531,0.344 0.018,-0.276 0.125,-1.719 0.125,-1.719 l -0.5,0.344 -0.625,0.406 c 0.018,-0.284 0.125,-1.75 0.125,-1.75 l -0.406,0.281 c -0.006,0.004 -0.654,0.426 -0.719,0.469 0.018,-0.282 0.125,-1.75 0.125,-1.75 l -0.313,0.219 c -0.006,0.004 -0.707,0.451 -0.781,0.5 0.017,-0.263 0.125,-1.688 0.125,-1.688 l -0.25,0.156 -0.875,0.563 c 0.017,-0.271 0.125,-1.719 0.125,-1.719 l -0.188,0.094 c -0.007,0.005 -0.832,0.554 -0.938,0.625 0.017,-0.269 0.125,-1.719 0.125,-1.719 0,0 -0.093,0.062 -0.094,0.063 -0.008,0.005 -0.905,0.603 -1.031,0.688 0.018,-0.278 0.125,-1.75 0.125,-1.75 -0.129,0.087 -16.688,11.156 -16.688,11.156 -0.144,-0.058 -18.625,-7.438 -18.625,-7.438 0.042,0.15 5.438,19.313 5.438,19.313 -0.099,0.12 -12.813,15.438 -12.813,15.438 0.014,0.001 1.484,0.051 1.781,0.063 -0.089,0.107 -0.781,0.938 -0.781,0.938 h 0.094 c 0.013,0.001 1.418,0.052 1.688,0.063 -0.089,0.107 -0.781,0.938 -0.781,0.938 h 0.188 l 1.594,0.063 c -0.09,0.108 -0.781,0.938 -0.781,0.938 h 0.281 c 0.011,0 1.236,0.055 1.438,0.063 -0.084,0.101 -0.75,0.906 -0.75,0.906 0,0 0.406,0.031 0.406,0.031 0.01,0 1.165,0.056 1.344,0.063 -0.084,0.102 -0.75,0.906 -0.75,0.906 0,0 0.499,0.031 0.5,0.031 0.01,0 1.093,0.056 1.25,0.063 -0.085,0.102 -0.75,0.906 -0.75,0.906 0,0 0.593,0.031 0.594,0.031 0.009,0 1.045,0.026 1.188,0.031 -0.091,0.11 -0.781,0.938 -0.781,0.938 0,0 0.687,0.031 0.688,0.031 0.008,0 0.971,0.026 1.094,0.031 -0.092,0.111 -0.781,0.938 -0.781,0.938 0,0 0.781,0.031 0.781,0.031 0.008,0 0.896,0.027 1,0.031 -0.092,0.111 -0.781,0.938 -0.781,0.938 0,0 0.874,0.031 0.875,0.031 0.007,0 0.767,0.028 0.844,0.031 -0.086,0.104 -0.75,0.906 -0.75,0.906 0,0 0.999,0.063 1,0.063 0.006,0 0.688,0.029 0.75,0.031 -0.087,0.104 -0.75,0.906 -0.75,0.906 0,0 1.093,0.063 1.094,0.063 0.005,0 0.608,0.029 0.656,0.031 -0.087,0.105 -0.75,0.906 -0.75,0.906 0,0 1.187,0.062 1.188,0.063 0.004,0 0.526,0.03 0.563,0.031 l -0.75,0.906 c 0,0 1.281,0.062 1.281,0.063 0.004,0 0.443,0.03 0.469,0.031 l -0.75,0.906 c 0,0 1.406,0.063 1.406,0.063 0.003,0 0.329,-10e-4 0.344,0 l -0.75,0.938 c 0,0 1.499,0.031 1.5,0.031 0.002,0 0.242,0 0.25,0 l -0.781,0.938 c 0,0 1.624,0.063 1.625,0.063 0.001,0 0.152,0 0.156,0 -0.096,0.116 -0.781,0.938 -0.781,0.938 0,0 1.718,0.063 1.719,0.063 0,0 0.062,0 0.063,0 -0.096,0.116 -0.781,0.938 -0.781,0.938 0,0 1.721,0.06 1.781,0.063 -0.097,0.117 -0.781,0.938 -0.781,0.938 0,0 1.564,0.054 1.781,0.063 -0.097,0.117 -0.781,0.938 -0.781,0.938 0,0 1.435,0.049 1.781,0.063 -0.098,0.118 -0.781,0.938 -0.781,0.938 0,0 1.213,0.043 1.719,0.063 -0.092,0.111 -0.75,0.906 -0.75,0.906 0,0 1.222,0.041 1.781,0.063 -0.099,0.119 -0.781,0.938 -0.781,0.938 0,0 1.155,0.038 1.781,0.063 -0.1,0.12 -0.781,0.938 -0.781,0.938 0,0 1.099,0.036 1.781,0.063 -0.1,0.12 -0.781,0.938 -0.781,0.938 0,0 1.053,0.034 1.781,0.063 -0.101,0.121 -0.781,0.938 -0.781,0.938 l 1.781,0.063 c -0.101,0.122 -0.781,0.938 -0.781,0.938 l 1.781,0.063 c -0.102,0.122 -0.781,0.938 -0.781,0.938 l 1.719,0.063 -0.75,0.906 1.781,0.063 -0.781,0.938 1.281,0.031 c -46.915,8.994 -82.34,50.24 -82.34,99.78 v 0.031 c 0,28.06 11.365,53.43 29.75,71.813 0.33,0.339 0.666,0.666 1,1 0.244,0.237 0.473,0.484 0.719,0.719 0.089,0.089 0.161,0.192 0.25,0.281 0.111,0.108 0.232,0.206 0.344,0.313 l -0.25,0.813 107.84,107.84 c 61.63,-0.181 117.26,-25.85 156.94,-67 h 0.031 c 0.465,-0.483 0.914,-0.982 1.375,-1.469 0.005,-0.013 0.026,-0.019 0.031,-0.031 0.03,-0.032 0.063,-0.062 0.094,-0.094 34.639,-36.653 56.761,-85.27 59.5,-139 l -0.281,0.188 c 0.035,-0.545 0.094,-1.75 0.094,-1.75 l -1.094,0.75 c 0.035,-0.541 0.094,-1.75 0.094,-1.75 l -1.094,0.719 c 0.032,-0.504 0.125,-1.688 0.125,-1.688 l -1.125,0.75 c 0.034,-0.534 0.125,-1.75 0.125,-1.75 l -1.125,0.75 c 0.034,-0.53 0.125,-1.75 0.125,-1.75 l -1.094,0.75 c 0.033,-0.522 0.094,-1.75 0.094,-1.75 l -1.094,0.75 c 0.033,-0.519 0.094,-1.75 0.094,-1.75 l -1.094,0.75 c 0.033,-0.515 0.094,-1.75 0.094,-1.75 l -1.063,0.719 c 0.031,-0.479 0.094,-1.688 0.094,-1.688 l -1.125,0.75 c 0.033,-0.509 0.125,-1.75 0.125,-1.75 l -1.094,0.75 c 0.032,-0.504 0.094,-1.75 0.094,-1.75 l -1.125,0.75 0.125,-1.75 -1.125,0.75 c 0.032,-0.496 0.125,-1.75 0.125,-1.75 l -1.125,0.75 c 0.032,-0.492 0.125,-1.75 0.125,-1.75 l -1.094,0.719 c 0.029,-0.458 0.125,-1.688 0.125,-1.688 l -1.125,0.75 c 0.031,-0.486 0.125,-1.75 0.125,-1.75 l -1.125,0.75 c 0.031,-0.483 0.125,-1.75 0.125,-1.75 l -1.125,0.75 c 0.031,-0.477 0.125,-1.75 0.125,-1.75 l -1.125,0.75 c 0.03,-0.474 0.125,-1.75 0.125,-1.75 l -1.125,0.75 c 0.03,-0.471 0.125,-1.75 0.125,-1.75 l -1.094,0.719 c 0.028,-0.438 0.125,-1.688 0.125,-1.688 l -1.125,0.75 c 0.03,-0.465 0.125,-1.75 0.125,-1.75 l -1.125,0.75 c 0.03,-0.462 0.125,-1.75 0.125,-1.75 l -1.125,0.75 c 0.029,-0.457 0.125,-1.75 0.125,-1.75 l -1.125,0.75 c 0.029,-0.454 0.125,-1.75 0.125,-1.75 l -1.094,0.75 c 0.029,-0.45 0.094,-1.75 0.094,-1.75 l -1.094,0.75 c 0.029,-0.445 0.094,-1.75 0.094,-1.75 l -1.063,0.719 c 0.027,-0.416 0.094,-1.688 0.094,-1.688 l -1.125,0.75 c 0.028,-0.443 0.125,-1.75 0.125,-1.75 l -1.125,0.75 c 0.028,-0.438 0.125,-1.75 0.125,-1.75 l -1.094,0.75 c 0.028,-0.434 0.094,-1.75 0.094,-1.75 l -1.094,0.75 c 0.028,-0.43 0.094,-1.75 0.094,-1.75 l -1.094,0.75 c 0.027,-0.427 0.094,-1.75 0.094,-1.75 l -1.094,0.719 c 0.026,-0.4 0.125,-1.688 0.125,-1.688 l -1.125,0.75 c 0.027,-0.423 0.125,-1.75 0.125,-1.75 0,0 -0.798,0.531 -1.125,0.75 0.027,-0.42 0.125,-1.75 0.125,-1.75 l -1.125,0.75 c 0.027,-0.418 0.125,-1.75 0.125,-1.75 l -1.125,0.75 c 0.027,-0.414 0.125,-1.75 0.125,-1.75 l -1.125,0.75 c 0.026,-0.411 0.125,-1.75 0.125,-1.75 l -1.094,0.719 c 0.025,-0.384 0.125,-1.688 0.125,-1.688 l -1.125,0.75 c 0.026,-0.407 0.125,-1.75 0.125,-1.75 l -1.125,0.75 c 0.026,-0.404 0.125,-1.75 0.125,-1.75 l -1.125,0.75 c 0.026,-0.402 0.125,-1.75 0.125,-1.75 l -1.125,0.75 c 0.026,-0.398 0.125,-1.75 0.125,-1.75 l -1.125,0.75 c 0.025,-0.396 0.125,-1.75 0.125,-1.75 l -1.125,0.75 c 0.025,-0.394 0.125,-1.75 0.125,-1.75 l -1.063,0.719 c 0.023,-0.365 0.094,-1.688 0.094,-1.688 l -1.125,0.75 c 0.025,-0.389 0.125,-1.75 0.125,-1.75 l -1.125,0.75 c 0.025,-0.387 0.125,-1.75 0.125,-1.75 l -1.125,0.75 c 0.025,-0.384 0.125,-1.75 0.125,-1.75 l -1.125,0.75 c 0.024,-0.382 0.125,-1.75 0.125,-1.75 l -1.094,0.75 c 0.024,-0.379 0.094,-1.75 0.094,-1.75 l -1.063,0.719 c 0.023,-0.352 0.094,-1.688 0.094,-1.688 l -1.125,0.75 c 0.024,-0.376 0.125,-1.75 0.125,-1.75 l -1.125,0.75 c 0.024,-0.374 0.125,-1.75 0.125,-1.75 l -1.094,0.75 c 0.024,-0.369 0.094,-1.75 0.094,-1.75 l -1.125,0.75 c 0.024,-0.368 0.125,-1.75 0.125,-1.75 l -1.125,0.75 c 0.023,-0.366 0.125,-1.75 0.125,-1.75 l -1.094,0.719 c 0.022,-0.341 0.125,-1.688 0.125,-1.688 l -1.125,0.75 c 0.023,-0.363 0.125,-1.75 0.125,-1.75 l -1.125,0.75 c 0.023,-0.361 0.125,-1.75 0.125,-1.75 l -1.125,0.75 c 0.023,-0.358 0.125,-1.75 0.125,-1.75 l -1.125,0.75 c 0.023,-0.356 0.125,-1.75 0.125,-1.75 l -1.125,0.75 c 0.023,-0.353 0.125,-1.75 0.125,-1.75 l -1.094,0.719 c 0.021,-0.329 0.125,-1.688 0.125,-1.688 l -1.125,0.75 c 0.022,-0.35 0.125,-1.75 0.125,-1.75 l -1.125,0.75 c 0.022,-0.347 0.125,-1.75 0.125,-1.75 l -1.125,0.75 c 0.022,-0.346 0.125,-1.75 0.125,-1.75 l -1.125,0.75 c 0.022,-0.344 0.125,-1.75 0.125,-1.75 l -1.125,0.75 c 0.022,-0.341 0.125,-1.75 0.125,-1.75 l -1.125,0.75 c 0.022,-0.34 0.125,-1.75 0.125,-1.75 l -1.094,0.719 c 0.02,-0.317 0.125,-1.688 0.125,-1.688 l -1.125,0.719 0.125,-1.719 -1.125,0.75 c 0.021,-0.335 0.125,-1.75 0.125,-1.75 l -1.125,0.75 c 0.021,-0.333 0.125,-1.75 0.125,-1.75 l -1.125,0.75 c 0.021,-0.33 0.125,-1.75 0.125,-1.75 l -1.094,0.75 c 0.021,-0.328 0.094,-1.75 0.094,-1.75 l -1.063,0.719 c 0.02,-0.306 0.094,-1.688 0.094,-1.688 l -1.125,0.719 c 0.02,-0.315 0.125,-1.719 0.125,-1.719 l -1.125,0.719 c 0.02,-0.314 0.125,-1.719 0.125,-1.719 l -1.125,0.75 c 0.021,-0.323 0.125,-1.75 0.125,-1.75 l -1.125,0.75 c 0.021,-0.32 0.125,-1.75 0.125,-1.75 l -1.125,0.75 c 0.02,-0.319 0.125,-1.75 0.125,-1.75 l -1.094,0.719 c 0.019,-0.297 0.125,-1.688 0.125,-1.688 l -1.125,0.719 c 0.02,-0.305 0.125,-1.719 0.125,-1.719 l -1.125,0.75 c 0.02,-0.315 0.125,-1.75 0.125,-1.75 l -1.125,0.75 c 0.02,-0.313 0.125,-1.75 0.125,-1.75 l -1.125,0.75 c 0.02,-0.311 0.125,-1.75 0.125,-1.75 l -1.125,0.75 c 0.02,-0.309 0.125,-1.75 0.125,-1.75 l -1.094,0.75 c 0.02,-0.307 0.094,-1.75 0.094,-1.75 l -1.063,0.719 c 0.018,-0.286 0.094,-1.688 0.094,-1.688 l -1.125,0.75 c 0.02,-0.305 0.125,-1.75 0.125,-1.75 l -1.125,0.719 0.125,-1.719 -1.125,0.75 c 0.019,-0.302 0.125,-1.75 0.125,-1.75 l -1.094,0.75 c 0.019,-0.3 0.094,-1.75 0.094,-1.75 l -1.094,0.75 c 0.019,-0.299 0.094,-1.75 0.094,-1.75 l -1.094,0.75 c 0.018,-0.288 0.125,-1.719 0.125,-1.719 0,0 -0.859,0.562 -1.094,0.719 0.018,-0.286 0.094,-1.719 0.094,-1.719 l -1.125,0.75 c 0.019,-0.295 0.125,-1.75 0.125,-1.75 l -1.094,0.719 c 0.018,-0.283 0.094,-1.719 0.094,-1.719 l -1,0.656 c -10e-4,0.001 -0.122,0.061 -0.125,0.063 0.018,-0.282 0.125,-1.719 0.125,-1.719 l -0.906,0.625 c -0.002,0.001 -0.212,0.12 -0.219,0.125 0.019,-0.29 0.125,-1.75 0.125,-1.75 l -0.813,0.563 c -0.002,0.001 -0.269,0.18 -0.281,0.188 0.018,-0.28 0.125,-1.719 0.125,-1.719 l -0.75,0.5 c -0.003,0.002 -0.355,0.237 -0.375,0.25 0.018,-0.288 0.125,-1.75 0.125,-1.75 l -0.688,0.438 -0.438,0.281 c 0.018,-0.277 0.125,-1.719 0.125,-1.719 l -0.594,0.375 c -0.004,0.003 -0.494,0.319 -0.531,0.344 0.018,-0.276 0.125,-1.719 0.125,-1.719 l -0.5,0.344 c -0.005,0.003 -0.575,0.373 -0.625,0.406 0.018,-0.284 0.125,-1.75 0.125,-1.75 l -0.406,0.281 -0.719,0.469 c 0.018,-0.282 0.125,-1.75 0.125,-1.75 l -0.313,0.219 c -0.006,0.004 -0.707,0.45 -0.781,0.5 0.017,-0.263 0.125,-1.688 0.125,-1.688 l -0.25,0.156 c -0.007,0.004 -0.783,0.501 -0.875,0.563 0.017,-0.271 0.125,-1.719 0.125,-1.719 l -0.188,0.094 c -0.007,0.005 -0.831,0.554 -0.938,0.625 0.017,-0.269 0.125,-1.719 0.125,-1.719 0,0 -0.093,0.062 -0.094,0.063 l -1.031,0.688 c 0.018,-0.278 0.125,-1.75 0.125,-1.75 -0.045,0.03 -3.175,2.113 -5.813,3.875 0.015,-0.224 0.094,-1.563 0.094,-1.563 l -1.125,0.75 c 0.018,-0.278 0.125,-1.75 0.125,-1.75 l -1.125,0.75 c 0.018,-0.278 0.125,-1.75 0.125,-1.75 l -1.125,0.75 c 0.018,-0.278 0.125,-1.75 0.125,-1.75 l -1.125,0.75 c 0.018,-0.278 0.125,-1.75 0.125,-1.75 l -1.125,0.75 c 0.018,-0.278 0.125,-1.75 0.125,-1.75 l -1.094,0.719 c 0.017,-0.26 0.125,-1.688 0.125,-1.688 l -1.125,0.75 c 0.018,-0.278 0.125,-1.75 0.125,-1.75 l -1.125,0.75 c 0.018,-0.278 0.125,-1.75 0.125,-1.75 l -1.125,0.75 c 0.018,-0.278 0.125,-1.75 0.125,-1.75 l -1.125,0.75 c 0.018,-0.278 0.125,-1.75 0.125,-1.75 l -1.125,0.75 c 0.018,-0.278 0.125,-1.75 0.125,-1.75 l -1.094,0.719 c 0.017,-0.26 0.125,-1.688 0.125,-1.688 l -1.125,0.75 c 0.018,-0.278 0.125,-1.75 0.125,-1.75 l -1.125,0.75 c 0.018,-0.278 0.125,-1.75 0.125,-1.75 l -1.125,0.75 c 0.018,-0.278 0.125,-1.75 0.125,-1.75 l -1.125,0.75 0.125,-1.75 -1.125,0.75 c 0.018,-0.278 0.125,-1.75 0.125,-1.75 l -1.125,0.75 c 0.018,-0.278 0.125,-1.75 0.125,-1.75 l -1.094,0.719 c 0.017,-0.259 0.125,-1.688 0.125,-1.688 l -1.125,0.75 c 0.018,-0.278 0.125,-1.75 0.125,-1.75 l -1.125,0.75 c 0.018,-0.278 0.125,-1.75 0.125,-1.75 l -1.125,0.75 c 0.018,-0.278 0.125,-1.75 0.125,-1.75 l -1.125,0.75 c 0.018,-0.278 0.125,-1.75 0.125,-1.75 l -1.125,0.75 c 0.018,-0.278 0.125,-1.75 0.125,-1.75 l -1.094,0.719 c 0.017,-0.259 0.125,-1.688 0.125,-1.688 l -1.125,0.75 c 0.018,-0.278 0.125,-1.75 0.125,-1.75 l -1.125,0.75 c 0.018,-0.278 0.125,-1.75 0.125,-1.75 l -1.125,0.75 c 0.018,-0.278 0.125,-1.75 0.125,-1.75 l -1.125,0.75 c 0.018,-0.278 0.125,-1.75 0.125,-1.75 l -1.125,0.75 c 0.018,-0.278 0.125,-1.75 0.125,-1.75 l -1.094,0.719 c 0.017,-0.259 0.125,-1.688 0.125,-1.688 l -1.125,0.75 c 0.018,-0.278 0.125,-1.75 0.125,-1.75 l -1.125,0.75 c 0.018,-0.278 0.125,-1.75 0.125,-1.75 l -1.125,0.75 c 0.018,-0.278 0.125,-1.75 0.125,-1.75 l -1.125,0.75 c 0.018,-0.278 0.125,-1.75 0.125,-1.75 l -1.125,0.75 0.125,-1.75 -1.125,0.75 c 0.018,-0.278 0.125,-1.75 0.125,-1.75 l -1.094,0.719 c 0.017,-0.259 0.125,-1.688 0.125,-1.688 l -1.125,0.75 c 0.018,-0.278 0.125,-1.75 0.125,-1.75 l -1.125,0.75 c 0.018,-0.278 0.125,-1.75 0.125,-1.75 l -1.125,0.75 c 0.018,-0.278 0.125,-1.75 0.125,-1.75 l -1.125,0.75 c 0.018,-0.278 0.125,-1.75 0.125,-1.75 l -1.125,0.75 c 0.018,-0.278 0.125,-1.75 0.125,-1.75 l -1.094,0.719 c 0.017,-0.259 0.125,-1.688 0.125,-1.688 l -1.125,0.75 c 0.018,-0.278 0.125,-1.75 0.125,-1.75 l -1.125,0.75 c 0.018,-0.278 0.125,-1.75 0.125,-1.75 l -1.125,0.75 c 0.018,-0.278 0.125,-1.75 0.125,-1.75 l -1.125,0.75 c 0.018,-0.278 0.125,-1.75 0.125,-1.75 l -1.125,0.75 c 0.018,-0.278 0.125,-1.75 0.125,-1.75 l -1.094,0.719 c 0.017,-0.259 0.125,-1.688 0.125,-1.688 l -1.125,0.75 c 0.018,-0.278 0.125,-1.75 0.125,-1.75 l -1.125,0.75 c 0.018,-0.278 0.125,-1.75 0.125,-1.75 l -1.125,0.75 c 0.018,-0.278 0.125,-1.75 0.125,-1.75 l -1.125,0.75 c 0.018,-0.278 0.125,-1.75 0.125,-1.75 l -1.125,0.75 c 0.018,-0.278 0.125,-1.75 0.125,-1.75 l -1.094,0.719 c 0.017,-0.26 0.125,-1.688 0.125,-1.688 l -1.125,0.75 c 0.018,-0.278 0.125,-1.75 0.125,-1.75 l -1.125,0.75 c 0.018,-0.278 0.125,-1.75 0.125,-1.75 l -1.125,0.75 c 0.018,-0.278 0.125,-1.75 0.125,-1.75 m -100.06,93.84 -0.438,0.531 1.281,0.031 c -1.345,0.262 -2.671,0.564 -4,0.875 1.038,-0.494 2.096,-0.974 3.156,-1.438 m 0.75,1.063 -0.094,0.375 -0.094,0.094 h 0.063 l -0.094,0.313 c -0.93,0.19 -1.86,0.377 -2.781,0.594 0.993,-0.474 1.993,-0.938 3,-1.375 m -0.5,1.688 -0.125,0.406 c -0.471,0.105 -0.937,0.202 -1.406,0.313 0.511,-0.244 1.017,-0.482 1.531,-0.719 m 168.31,52.31 c 0.077,0.003 0.862,0.024 1.031,0.031 l -0.25,0.281 c -0.348,-0.139 -0.414,-0.166 -0.781,-0.313" />
  <path
     style="fill-opacity:0.06700003;fill-rule:evenodd"
     id="path15"
     inkscape:connector-curvature="0"
     d="M 256,1 C 115.17,1 1,115.17 1,256 1,396.83 115.17,511 256,511 396.83,511 511,396.83 511,256 511,115.17 396.83,1 256,1 m 8.827,44.931 c 120.9,0 218.9,98 218.9,218.9 0,120.9 -98,218.9 -218.9,218.9 -120.9,0 -218.93,-98 -218.93,-218.9 0,-120.9 98.03,-218.9 218.93,-218.9" />
  <path
     style="fill-opacity:0.12900002;fill-rule:evenodd"
     d="M 256,4.43 C 117.06,4.43 4.43,117.06 4.43,256 4.43,394.94 117.06,507.57 256,507.57 394.94,507.57 507.57,394.94 507.57,256 507.57,117.06 394.94,4.43 256,4.43 m 5.885,38.556 c 120.9,0 218.9,98 218.9,218.9 0,120.9 -98,218.9 -218.9,218.9 -120.9,0 -218.93,-98 -218.93,-218.9 0,-120.9 98.03,-218.9 218.93,-218.9"
     inkscape:connector-curvature="0"
     id="path19" />
  <path
     style="fill-opacity:0.12900002;fill-rule:evenodd"
     d="M 256,8.36 C 119.23,8.36 8.36,119.23 8.36,256 8.36,392.77 119.23,503.64 256,503.64 392.77,503.64 503.64,392.77 503.64,256 503.64,119.23 392.77,8.36 256,8.36 m 2.942,31.691 c 120.9,0 218.9,98 218.9,218.9 0,120.9 -98,218.9 -218.9,218.9 -120.9,0 -218.93,-98 -218.93,-218.9 0,-120.9 98.03,-218.9 218.93,-218.9"
     inkscape:connector-curvature="0"
     id="path21" />
  <path
     style="fill:#ffffff;fill-rule:evenodd;stroke:#000000;stroke-width:4.90399981;stroke-opacity:0.31000001"
     id="path23"
     inkscape:connector-curvature="0"
     d="M 253.04,7.86 C 117.62,7.86 7.85,117.64 7.85,253.05 c 0,135.42 109.78,245.19 245.19,245.19 135.42,0 245.19,-109.78 245.19,-245.19 C 498.23,117.63 388.45,7.86 253.04,7.86 z m 0,26.297 c 120.9,0 218.9,98 218.9,218.9 0,120.9 -98,218.9 -218.9,218.9 -120.9,0 -218.93,-98 -218.93,-218.9 0,-120.9 98.03,-218.9 218.93,-218.9 z" />
  <text
     sodipodi:linespacing="125%"
     x="729.64001"
     y="231.35997"
     id="text25"
     style="font-size:129.22999573px;line-height:125%;letter-spacing:0;word-spacing:0;font-family:Gentium Book Basic">
    <tspan
       x="729.64001"
       y="231.35997"
       id="tspan27" />
  </text>
  <text
     x="378.90805"
     y="579.25812"
     transform="scale(4.0128205,0.24920128)"
     id="text29"
     style="font-size:46.95375824px;text-anchor:middle;font-family:Arial" />
  <text
     sodipodi:linespacing="125%"
     x="1310.91"
     y="151.35997"
     id="text31"
     style="font-size:129.22999573px;line-height:125%;letter-spacing:0;word-spacing:0;font-family:Gentium Book Basic">
    <tspan
       x="1310.91"
       y="151.35997"
       id="tspan33" />
  </text>
  <text
     x="523.75732"
     y="258.21997"
     transform="scale(4.0128205,0.24920128)"
     id="text35"
     style="font-size:46.95375824px;text-anchor:middle;font-family:Arial" />
  <text
     sodipodi:linespacing="125%"
     x="239.33"
     y="-29.900009"
     id="text37"
     style="font-size:129.22999573px;line-height:125%;letter-spacing:0;word-spacing:0;font-family:Gentium Book Basic">
    <tspan
       x="239.33"
       y="-29.900009"
       id="tspan39" />
  </text>
  <text
     x="256.71869"
     y="-469.1264"
     transform="scale(4.0128205,0.24920128)"
     id="text41"
     style="font-size:46.95375824px;text-anchor:middle;font-family:Arial" />
  <text
     sodipodi:linespacing="125%"
     x="1337.38"
     y="-246.37001"
     id="text43"
     style="font-size:129.22999573px;line-height:125%;letter-spacing:0;word-spacing:0;font-family:Gentium Book Basic">
    <tspan
       x="1337.38"
       y="-246.37001"
       id="tspan45" />
  </text>
  <text
     x="530.3573"
     y="-1337.802"
     transform="scale(4.0128205,0.24920128)"
     id="text47"
     style="font-size:46.95375824px;text-anchor:middle;font-family:Arial" />
  <text
     sodipodi:linespacing="125%"
     x="1918.65"
     y="-326.37"
     id="text49"
     style="font-size:129.22999573px;line-height:125%;letter-spacing:0;word-spacing:0;font-family:Gentium Book Basic">
    <tspan
       x="1918.65"
       y="-326.37"
       id="tspan51" />
  </text>
  <text
     x="675.20654"
     y="-1658.8303"
     transform="scale(4.0128205,0.24920128)"
     id="text53"
     style="font-size:46.95375824px;text-anchor:middle;font-family:Arial" />
  <text
     sodipodi:linespacing="125%"
     x="1529.53"
     y="-798.77002"
     id="text55"
     style="font-size:129.22999573px;line-height:125%;letter-spacing:0;word-spacing:0;font-family:Gentium Book Basic">
    <tspan
       x="1529.53"
       y="-798.77002"
       id="tspan57" />
  </text>
  <text
     x="578.237"
     y="-3554.4807"
     transform="scale(4.0128205,0.24920128)"
     id="text59"
     style="font-size:46.95375824px;text-anchor:middle;font-family:Arial" />
  <text
     sodipodi:linespacing="125%"
     x="2110.79"
     y="-878.78003"
     id="text61"
     style="font-size:129.22999573px;line-height:125%;letter-spacing:0;word-spacing:0;font-family:Gentium Book Basic">
    <tspan
       x="2110.79"
       y="-878.78003"
       id="tspan63" />
  </text>
  <text
     x="723.0863"
     y="-3875.519"
     transform="scale(4.0128205,0.24920128)"
     id="text65"
     style="font-size:46.95375824px;text-anchor:middle;font-family:Arial" />
  <text
     sodipodi:linespacing="125%"
     x="277.98999"
     y="535.94006"
     id="text67"
     style="font-size:208.33000183px;line-height:125%;letter-spacing:0;word-spacing:0;font-family:Gentium Book Basic">
    <tspan
       x="277.98999"
       y="535.94006"
       id="tspan69" />
  </text>
  <path
     style="fill:#ffffff;fill-rule:evenodd;stroke:#ffffff;stroke-width:0.88634998"
     id="path73"
     inkscape:connector-curvature="0"
     d="m 198.32582,189.04449 c -47.88062,8.20849 -84.30961,49.91037 -84.30961,100.13096 0,56.11482 45.47862,101.6023 101.6023,101.6023 50.22325,0 91.92336,-36.42899 100.13096,-84.30961 -13.36616,33.10517 -45.78352,56.47733 -83.6803,56.47733 -49.82174,0 -90.2127,-40.38919 -90.2127,-90.2127 0,-37.89324 23.37039,-70.31415 56.47733,-83.6803 z" />
  <use
     style="fill:#ffffff;stroke:#ffffff"
     xlink:href="#0"
     height="1"
     width="1"
     y="0"
     x="0"
     id="use75"
     transform="matrix(0.88635,0,0,0.88635,-9.505524,20.185951)" />
  <use
     style="fill:#ffffff;stroke:#ffffff"
     xlink:href="#0"
     height="1"
     width="1"
     y="0"
     x="0"
     id="use77"
     transform="matrix(0.88635,0,0,0.88635,143.60257,51.527287)" />
  <use
     style="fill:#ffffff;stroke:#ffffff"
     xlink:href="#0"
     height="1"
     width="1"
     y="0"
     x="0"
     id="use79"
     transform="matrix(0.88635,0,0,0.88635,79.138339,-4.880027)" />
  <use
     style="fill:#ffffff;stroke:#ffffff"
     xlink:href="#0"
     height="1"
     width="1"
     y="0"
     x="0"
     id="use81"
     transform="matrix(0.88635,0,0,0.88635,171.35419,135.68622)" />
  <use
     style="fill:#ffffff;stroke:#ffffff"
     xlink:href="#0"
     height="1"
     width="1"
     y="0"
     x="0"
     id="use83"
     transform="matrix(0.88635,0,0,0.88635,54.958711,85.5454)" />
</svg>
