<?xml version="1.0" encoding="UTF-8" standalone="no"?>
<!-- Created with Inkscape (http://www.inkscape.org/) -->

<svg
   xmlns:dc="http://purl.org/dc/elements/1.1/"
   xmlns:cc="http://creativecommons.org/ns#"
   xmlns:rdf="http://www.w3.org/1999/02/22-rdf-syntax-ns#"
   xmlns:svg="http://www.w3.org/2000/svg"
   xmlns="http://www.w3.org/2000/svg"
   xmlns:inkscape="http://www.inkscape.org/namespaces/inkscape"
   version="1.1"
   width="100%"
   height="100%"
   viewBox="0 0 512 512"
   id="svg2">
  <metadata
     id="metadata72">
    <rdf:RDF>
      <cc:Work
         rdf:about="">
        <dc:format>image/svg+xml</dc:format>
        <dc:type
           rdf:resource="http://purl.org/dc/dcmitype/StillImage" />
      </cc:Work>
    </rdf:RDF>
  </metadata>
  <defs
     id="defs70" />
  <path
     d="m 471.95,253.05 c 0,120.9 -98.01,218.9 -218.9,218.9 -120.9,0 -218.9,-98.01 -218.9,-218.9 0,-120.9 98.01,-218.9 218.9,-218.9 120.9,0 218.9,98.01 218.9,218.9"
     inkscape:connector-curvature="0"
     id="path4"
     style="fill:#ef6a47;fill-rule:evenodd" />
  <path
     d="m 143.91,142.28 c -0.872,0 -1.625,0.798 -1.625,1.781 v 91.19 c 0,0.656 0.331,1.222 0.813,1.531 0.128,0.194 0.283,0.343 0.469,0.469 0.132,0.21 0.303,0.367 0.5,0.5 0.132,0.21 0.303,0.367 0.5,0.5 0.132,0.21 0.303,0.367 0.5,0.5 0.132,0.21 0.303,0.367 0.5,0.5 0.132,0.21 0.303,0.367 0.5,0.5 0.132,0.21 0.303,0.367 0.5,0.5 0.132,0.21 0.303,0.367 0.5,0.5 0.14,0.223 0.319,0.396 0.531,0.531 0.134,0.197 0.306,0.376 0.5,0.5 0.134,0.197 0.306,0.376 0.5,0.5 0.134,0.197 0.306,0.376 0.5,0.5 0.134,0.197 0.306,0.376 0.5,0.5 0.134,0.197 0.306,0.376 0.5,0.5 0.126,0.185 0.29,0.348 0.469,0.469 0.13,0.197 0.311,0.374 0.5,0.5 0.13,0.197 0.311,0.374 0.5,0.5 0.13,0.197 0.311,0.374 0.5,0.5 0.13,0.197 0.311,0.374 0.5,0.5 0.136,0.206 0.3,0.372 0.5,0.5 0.136,0.205 0.301,0.372 0.5,0.5 0.136,0.205 0.301,0.372 0.5,0.5 0.136,0.205 0.301,0.372 0.5,0.5 0.136,0.205 0.301,0.372 0.5,0.5 0.136,0.205 0.301,0.372 0.5,0.5 0.128,0.194 0.283,0.343 0.469,0.469 0.132,0.21 0.303,0.367 0.5,0.5 0.132,0.21 0.303,0.367 0.5,0.5 0.132,0.21 0.303,0.367 0.5,0.5 0.132,0.21 0.303,0.367 0.5,0.5 0.132,0.21 0.303,0.367 0.5,0.5 0.132,0.21 0.303,0.367 0.5,0.5 0.132,0.21 0.303,0.367 0.5,0.5 0.14,0.223 0.319,0.396 0.531,0.531 0.134,0.197 0.306,0.376 0.5,0.5 0.134,0.197 0.306,0.376 0.5,0.5 0.134,0.197 0.306,0.376 0.5,0.5 0.134,0.197 0.306,0.376 0.5,0.5 0.134,0.197 0.306,0.376 0.5,0.5 0.126,0.185 0.29,0.348 0.469,0.469 0.13,0.197 0.311,0.374 0.5,0.5 0.13,0.197 0.311,0.374 0.5,0.5 0.13,0.197 0.311,0.374 0.5,0.5 0.13,0.197 0.311,0.374 0.5,0.5 0.136,0.206 0.3,0.372 0.5,0.5 0.136,0.205 0.301,0.372 0.5,0.5 0.136,0.205 0.301,0.372 0.5,0.5 0.136,0.205 0.301,0.372 0.5,0.5 0.136,0.205 0.301,0.372 0.5,0.5 0.136,0.205 0.301,0.372 0.5,0.5 0.128,0.194 0.283,0.343 0.469,0.469 0.132,0.21 0.303,0.367 0.5,0.5 0.132,0.21 0.303,0.367 0.5,0.5 0.132,0.21 0.303,0.367 0.5,0.5 0.132,0.21 0.303,0.367 0.5,0.5 0.132,0.21 0.303,0.367 0.5,0.5 0.132,0.21 0.303,0.367 0.5,0.5 0.132,0.21 0.303,0.367 0.5,0.5 0.14,0.223 0.319,0.396 0.531,0.531 0.134,0.197 0.306,0.376 0.5,0.5 0.134,0.197 0.306,0.376 0.5,0.5 0.134,0.197 0.306,0.376 0.5,0.5 0.134,0.197 0.306,0.376 0.5,0.5 0.134,0.197 0.306,0.376 0.5,0.5 0.126,0.185 0.29,0.348 0.469,0.469 0.13,0.197 0.311,0.374 0.5,0.5 0.13,0.197 0.311,0.374 0.5,0.5 0.13,0.197 0.311,0.374 0.5,0.5 0.13,0.197 0.311,0.374 0.5,0.5 0.136,0.206 0.3,0.372 0.5,0.5 0.136,0.205 0.301,0.372 0.5,0.5 0.136,0.205 0.301,0.372 0.5,0.5 0.136,0.205 0.301,0.372 0.5,0.5 0.136,0.205 0.301,0.372 0.5,0.5 0.136,0.205 0.301,0.372 0.5,0.5 0.128,0.194 0.283,0.343 0.469,0.469 0.075,0.12 0.151,0.216 0.25,0.313 h -37.31 c -0.872,0 -1.625,0.798 -1.625,1.781 v 91.19 c 0,0.656 0.331,1.222 0.813,1.531 0.128,0.194 0.283,0.343 0.469,0.469 0.132,0.21 0.303,0.367 0.5,0.5 0.132,0.21 0.303,0.367 0.5,0.5 0.132,0.21 0.303,0.367 0.5,0.5 0.132,0.21 0.303,0.367 0.5,0.5 0.132,0.21 0.303,0.367 0.5,0.5 0.132,0.21 0.303,0.367 0.5,0.5 0.132,0.21 0.303,0.367 0.5,0.5 0.14,0.223 0.319,0.396 0.531,0.531 0.134,0.197 0.306,0.376 0.5,0.5 0.134,0.197 0.306,0.376 0.5,0.5 0.134,0.197 0.306,0.376 0.5,0.5 0.134,0.197 0.306,0.376 0.5,0.5 0.134,0.197 0.306,0.376 0.5,0.5 0.126,0.185 0.29,0.348 0.469,0.469 0.13,0.197 0.311,0.374 0.5,0.5 0.13,0.197 0.311,0.374 0.5,0.5 0.13,0.197 0.311,0.374 0.5,0.5 0.13,0.197 0.311,0.374 0.5,0.5 0.136,0.206 0.3,0.372 0.5,0.5 0.136,0.205 0.301,0.372 0.5,0.5 0.136,0.205 0.301,0.372 0.5,0.5 0.136,0.205 0.301,0.372 0.5,0.5 0.136,0.205 0.301,0.372 0.5,0.5 0.136,0.205 0.301,0.372 0.5,0.5 0.128,0.194 0.283,0.343 0.469,0.469 0.132,0.21 0.303,0.367 0.5,0.5 0.132,0.21 0.303,0.367 0.5,0.5 0.132,0.21 0.303,0.367 0.5,0.5 0.132,0.21 0.303,0.367 0.5,0.5 0.132,0.21 0.303,0.367 0.5,0.5 0.132,0.21 0.303,0.367 0.5,0.5 0.132,0.21 0.303,0.367 0.5,0.5 0.14,0.223 0.319,0.396 0.531,0.531 0.134,0.197 0.306,0.376 0.5,0.5 0.134,0.197 0.306,0.376 0.5,0.5 0.134,0.197 0.306,0.376 0.5,0.5 0.134,0.197 0.306,0.376 0.5,0.5 0.134,0.197 0.306,0.376 0.5,0.5 0.126,0.185 0.29,0.348 0.469,0.469 0.13,0.197 0.311,0.374 0.5,0.5 0.13,0.197 0.311,0.374 0.5,0.5 0.13,0.197 0.311,0.374 0.5,0.5 0.13,0.197 0.311,0.374 0.5,0.5 0.136,0.206 0.3,0.372 0.5,0.5 0.136,0.205 0.301,0.372 0.5,0.5 0.136,0.205 0.301,0.372 0.5,0.5 0.136,0.205 0.301,0.372 0.5,0.5 0.136,0.205 0.301,0.372 0.5,0.5 0.136,0.205 0.301,0.372 0.5,0.5 0.128,0.194 0.283,0.343 0.469,0.469 0.132,0.21 0.303,0.367 0.5,0.5 0.132,0.21 0.303,0.367 0.5,0.5 0.132,0.21 0.303,0.367 0.5,0.5 0.132,0.21 0.303,0.367 0.5,0.5 0.132,0.21 0.303,0.367 0.5,0.5 0.132,0.21 0.303,0.367 0.5,0.5 0.132,0.21 0.303,0.367 0.5,0.5 0.14,0.223 0.319,0.396 0.531,0.531 0.134,0.197 0.306,0.376 0.5,0.5 0.134,0.197 0.306,0.376 0.5,0.5 0.134,0.197 0.306,0.376 0.5,0.5 0.134,0.197 0.306,0.376 0.5,0.5 0.134,0.197 0.306,0.376 0.5,0.5 0.126,0.185 0.29,0.348 0.469,0.469 0.13,0.197 0.311,0.374 0.5,0.5 0.13,0.197 0.311,0.374 0.5,0.5 0.13,0.197 0.311,0.374 0.5,0.5 0.13,0.197 0.311,0.374 0.5,0.5 0.136,0.206 0.3,0.372 0.5,0.5 0.136,0.205 0.301,0.372 0.5,0.5 0.136,0.205 0.301,0.372 0.5,0.5 0.136,0.205 0.301,0.372 0.5,0.5 0.136,0.205 0.301,0.372 0.5,0.5 0.136,0.205 0.301,0.372 0.5,0.5 0.128,0.194 0.283,0.343 0.469,0.469 0.132,0.21 0.303,0.367 0.5,0.5 0.132,0.21 0.303,0.367 0.5,0.5 0.132,0.21 0.303,0.367 0.5,0.5 0.132,0.21 0.303,0.367 0.5,0.5 0.132,0.21 0.303,0.367 0.5,0.5 0.132,0.21 0.303,0.367 0.5,0.5 0.132,0.21 0.303,0.367 0.5,0.5 0.14,0.223 0.319,0.396 0.531,0.531 0.134,0.197 0.306,0.376 0.5,0.5 0.134,0.197 0.306,0.376 0.5,0.5 0.134,0.197 0.306,0.376 0.5,0.5 0.134,0.197 0.306,0.376 0.5,0.5 0.134,0.197 0.306,0.376 0.5,0.5 0.126,0.185 0.29,0.348 0.469,0.469 0.13,0.197 0.311,0.374 0.5,0.5 0.13,0.197 0.311,0.374 0.5,0.5 0.13,0.197 0.311,0.374 0.5,0.5 0.13,0.197 0.311,0.374 0.5,0.5 0.136,0.206 0.3,0.372 0.5,0.5 0.136,0.205 0.301,0.372 0.5,0.5 0.136,0.205 0.301,0.372 0.5,0.5 0.136,0.205 0.301,0.372 0.5,0.5 0.136,0.205 0.301,0.372 0.5,0.5 0.136,0.205 0.301,0.372 0.5,0.5 0.128,0.194 0.283,0.343 0.469,0.469 0.132,0.21 0.303,0.367 0.5,0.5 0.132,0.21 0.303,0.367 0.5,0.5 0.132,0.21 0.303,0.367 0.5,0.5 0.132,0.21 0.303,0.367 0.5,0.5 0.132,0.21 0.303,0.367 0.5,0.5 0.132,0.21 0.303,0.367 0.5,0.5 0.132,0.21 0.303,0.367 0.5,0.5 0.14,0.223 0.319,0.396 0.531,0.531 0.134,0.197 0.306,0.376 0.5,0.5 0.134,0.197 0.306,0.376 0.5,0.5 0.134,0.197 0.306,0.376 0.5,0.5 0.134,0.197 0.306,0.376 0.5,0.5 0.134,0.197 0.306,0.376 0.5,0.5 0.126,0.185 0.29,0.348 0.469,0.469 0.13,0.197 0.311,0.374 0.5,0.5 0.13,0.197 0.311,0.374 0.5,0.5 0.13,0.197 0.311,0.374 0.5,0.5 0.13,0.197 0.311,0.374 0.5,0.5 0.124,0.188 0.291,0.345 0.469,0.469 0.139,0.221 0.321,0.396 0.531,0.531 0.136,0.205 0.301,0.372 0.5,0.5 0.136,0.205 0.301,0.372 0.5,0.5 0.136,0.205 0.301,0.372 0.5,0.5 0.136,0.205 0.301,0.372 0.5,0.5 0.128,0.194 0.283,0.343 0.469,0.469 0.132,0.21 0.303,0.367 0.5,0.5 0.132,0.21 0.303,0.367 0.5,0.5 0.132,0.21 0.303,0.367 0.5,0.5 0.132,0.21 0.303,0.367 0.5,0.5 0.132,0.21 0.303,0.367 0.5,0.5 0.132,0.21 0.303,0.367 0.5,0.5 0.132,0.21 0.303,0.367 0.5,0.5 0.14,0.223 0.319,0.396 0.531,0.531 0.134,0.197 0.306,0.376 0.5,0.5 0.134,0.197 0.306,0.376 0.5,0.5 0.134,0.197 0.306,0.376 0.5,0.5 0.134,0.197 0.306,0.376 0.5,0.5 0.134,0.197 0.306,0.376 0.5,0.5 0.126,0.185 0.29,0.348 0.469,0.469 0.13,0.197 0.311,0.374 0.5,0.5 0.13,0.197 0.311,0.374 0.5,0.5 0.13,0.197 0.311,0.374 0.5,0.5 0.13,0.197 0.311,0.374 0.5,0.5 0.124,0.188 0.291,0.345 0.469,0.469 0.139,0.221 0.321,0.396 0.531,0.531 0.136,0.205 0.301,0.372 0.5,0.5 0.136,0.205 0.301,0.372 0.5,0.5 0.136,0.205 0.301,0.372 0.5,0.5 0.136,0.205 0.301,0.372 0.5,0.5 0.128,0.194 0.283,0.343 0.469,0.469 0.132,0.21 0.303,0.367 0.5,0.5 0.132,0.21 0.303,0.367 0.5,0.5 0.132,0.21 0.303,0.367 0.5,0.5 0.132,0.21 0.303,0.367 0.5,0.5 0.132,0.21 0.303,0.367 0.5,0.5 0.132,0.21 0.303,0.367 0.5,0.5 0.132,0.21 0.303,0.367 0.5,0.5 0.14,0.223 0.319,0.396 0.531,0.531 0.134,0.197 0.306,0.376 0.5,0.5 0.134,0.197 0.306,0.376 0.5,0.5 0.134,0.197 0.306,0.376 0.5,0.5 0.134,0.197 0.306,0.376 0.5,0.5 0.134,0.197 0.306,0.376 0.5,0.5 0.126,0.185 0.29,0.348 0.469,0.469 0.13,0.197 0.311,0.374 0.5,0.5 0.13,0.197 0.311,0.374 0.5,0.5 0.13,0.197 0.311,0.374 0.5,0.5 0.13,0.197 0.311,0.374 0.5,0.5 0.124,0.188 0.291,0.345 0.469,0.469 0.139,0.221 0.321,0.396 0.531,0.531 0.136,0.205 0.301,0.372 0.5,0.5 0.136,0.205 0.301,0.372 0.5,0.5 0.136,0.205 0.301,0.372 0.5,0.5 0.136,0.205 0.301,0.372 0.5,0.5 0.128,0.194 0.283,0.343 0.469,0.469 0.132,0.21 0.303,0.367 0.5,0.5 0.132,0.21 0.303,0.367 0.5,0.5 0.132,0.21 0.303,0.367 0.5,0.5 0.132,0.21 0.303,0.367 0.5,0.5 0.132,0.21 0.303,0.367 0.5,0.5 0.132,0.21 0.303,0.367 0.5,0.5 0.132,0.21 0.303,0.367 0.5,0.5 0.14,0.223 0.319,0.396 0.531,0.531 0.134,0.197 0.306,0.376 0.5,0.5 0.134,0.197 0.306,0.376 0.5,0.5 0.134,0.197 0.306,0.376 0.5,0.5 0.134,0.197 0.306,0.376 0.5,0.5 0.134,0.197 0.306,0.376 0.5,0.5 0.126,0.185 0.29,0.348 0.469,0.469 0.13,0.197 0.311,0.374 0.5,0.5 0.13,0.197 0.311,0.374 0.5,0.5 0.13,0.197 0.311,0.374 0.5,0.5 0.13,0.197 0.311,0.374 0.5,0.5 0.124,0.188 0.291,0.345 0.469,0.469 0.139,0.221 0.321,0.396 0.531,0.531 0.136,0.205 0.301,0.372 0.5,0.5 0.136,0.205 0.301,0.372 0.5,0.5 0.136,0.205 0.301,0.372 0.5,0.5 0.136,0.205 0.301,0.372 0.5,0.5 0.131,0.198 0.279,0.374 0.469,0.5 0.13,0.2 0.31,0.34 0.5,0.469 0.132,0.21 0.303,0.367 0.5,0.5 0.132,0.21 0.303,0.367 0.5,0.5 0.132,0.21 0.303,0.367 0.5,0.5 0.029,0.046 0.061,0.084 0.094,0.125 2.539,0.087 5.065,0.156 7.625,0.156 120.9,0 218.91,-98.01 218.91,-218.91 0,-2.571 -0.068,-5.138 -0.156,-7.688 -0.051,-0.039 -0.101,-0.091 -0.156,-0.125 -0.136,-0.206 -0.299,-0.378 -0.5,-0.5 -0.136,-0.206 -0.299,-0.378 -0.5,-0.5 -0.136,-0.206 -0.299,-0.378 -0.5,-0.5 -0.117,-0.177 -0.24,-0.321 -0.406,-0.438 -0.124,-0.21 -0.31,-0.367 -0.5,-0.5 -0.124,-0.21 -0.31,-0.367 -0.5,-0.5 -0.125,-0.212 -0.308,-0.366 -0.5,-0.5 -0.125,-0.212 -0.308,-0.366 -0.5,-0.5 -0.125,-0.212 -0.308,-0.366 -0.5,-0.5 -0.125,-0.212 -0.308,-0.366 -0.5,-0.5 -0.125,-0.212 -0.308,-0.366 -0.5,-0.5 -0.125,-0.212 -0.308,-0.366 -0.5,-0.5 -0.125,-0.212 -0.308,-0.366 -0.5,-0.5 -0.133,-0.226 -0.323,-0.395 -0.531,-0.531 -0.128,-0.2 -0.31,-0.376 -0.5,-0.5 -0.128,-0.2 -0.31,-0.376 -0.5,-0.5 -0.139,-0.217 -0.32,-0.405 -0.531,-0.531 -0.136,-0.202 -0.301,-0.38 -0.5,-0.5 -0.136,-0.202 -0.301,-0.38 -0.5,-0.5 -0.136,-0.202 -0.301,-0.38 -0.5,-0.5 -0.136,-0.202 -0.301,-0.38 -0.5,-0.5 -0.136,-0.202 -0.301,-0.38 -0.5,-0.5 -0.136,-0.202 -0.301,-0.38 -0.5,-0.5 -0.136,-0.202 -0.301,-0.38 -0.5,-0.5 -0.13,-0.192 -0.281,-0.35 -0.469,-0.469 -0.133,-0.206 -0.302,-0.375 -0.5,-0.5 -0.133,-0.206 -0.302,-0.375 -0.5,-0.5 -0.133,-0.206 -0.302,-0.375 -0.5,-0.5 -0.118,-0.184 -0.266,-0.317 -0.438,-0.438 -0.124,-0.21 -0.31,-0.367 -0.5,-0.5 -0.124,-0.21 -0.31,-0.367 -0.5,-0.5 -0.125,-0.212 -0.308,-0.366 -0.5,-0.5 -0.125,-0.212 -0.308,-0.366 -0.5,-0.5 -0.125,-0.212 -0.308,-0.366 -0.5,-0.5 -0.125,-0.212 -0.308,-0.366 -0.5,-0.5 -0.125,-0.212 -0.308,-0.366 -0.5,-0.5 -0.125,-0.212 -0.308,-0.366 -0.5,-0.5 -0.125,-0.212 -0.308,-0.366 -0.5,-0.5 -0.133,-0.226 -0.323,-0.395 -0.531,-0.531 -0.128,-0.2 -0.31,-0.376 -0.5,-0.5 -0.128,-0.2 -0.31,-0.376 -0.5,-0.5 -0.139,-0.217 -0.32,-0.405 -0.531,-0.531 -0.136,-0.202 -0.301,-0.38 -0.5,-0.5 -0.136,-0.202 -0.301,-0.38 -0.5,-0.5 -0.136,-0.202 -0.301,-0.38 -0.5,-0.5 -0.136,-0.202 -0.301,-0.38 -0.5,-0.5 -0.136,-0.202 -0.301,-0.38 -0.5,-0.5 -0.136,-0.202 -0.301,-0.38 -0.5,-0.5 -0.136,-0.202 -0.301,-0.38 -0.5,-0.5 -0.134,-0.199 -0.304,-0.349 -0.5,-0.469 -0.136,-0.206 -0.299,-0.378 -0.5,-0.5 -0.136,-0.206 -0.299,-0.378 -0.5,-0.5 -0.136,-0.206 -0.299,-0.378 -0.5,-0.5 -0.117,-0.177 -0.24,-0.321 -0.406,-0.438 -0.124,-0.21 -0.31,-0.367 -0.5,-0.5 -0.124,-0.21 -0.31,-0.367 -0.5,-0.5 -0.125,-0.212 -0.308,-0.366 -0.5,-0.5 -0.125,-0.212 -0.308,-0.366 -0.5,-0.5 -0.125,-0.212 -0.308,-0.366 -0.5,-0.5 -0.125,-0.212 -0.308,-0.366 -0.5,-0.5 -0.125,-0.212 -0.308,-0.366 -0.5,-0.5 -0.125,-0.212 -0.308,-0.366 -0.5,-0.5 -0.125,-0.212 -0.308,-0.366 -0.5,-0.5 -0.133,-0.226 -0.323,-0.395 -0.531,-0.531 -0.128,-0.2 -0.31,-0.376 -0.5,-0.5 -0.128,-0.2 -0.31,-0.376 -0.5,-0.5 -0.139,-0.217 -0.32,-0.405 -0.531,-0.531 -0.136,-0.202 -0.301,-0.38 -0.5,-0.5 -0.136,-0.202 -0.301,-0.38 -0.5,-0.5 -0.136,-0.202 -0.301,-0.38 -0.5,-0.5 -0.136,-0.202 -0.301,-0.38 -0.5,-0.5 -0.136,-0.202 -0.301,-0.38 -0.5,-0.5 -0.136,-0.202 -0.301,-0.38 -0.5,-0.5 -0.136,-0.202 -0.301,-0.38 -0.5,-0.5 -0.13,-0.192 -0.281,-0.35 -0.469,-0.469 -0.133,-0.206 -0.302,-0.375 -0.5,-0.5 -0.133,-0.206 -0.302,-0.375 -0.5,-0.5 -0.133,-0.206 -0.302,-0.375 -0.5,-0.5 -0.118,-0.184 -0.266,-0.317 -0.438,-0.438 -0.124,-0.21 -0.31,-0.367 -0.5,-0.5 -0.124,-0.21 -0.31,-0.367 -0.5,-0.5 -0.125,-0.212 -0.308,-0.366 -0.5,-0.5 -0.125,-0.212 -0.308,-0.366 -0.5,-0.5 -0.125,-0.212 -0.308,-0.366 -0.5,-0.5 -0.125,-0.212 -0.308,-0.366 -0.5,-0.5 -0.125,-0.212 -0.308,-0.366 -0.5,-0.5 -0.125,-0.212 -0.308,-0.366 -0.5,-0.5 -0.125,-0.212 -0.308,-0.366 -0.5,-0.5 -0.133,-0.226 -0.323,-0.395 -0.531,-0.531 -0.128,-0.2 -0.31,-0.376 -0.5,-0.5 -0.128,-0.2 -0.31,-0.376 -0.5,-0.5 -0.139,-0.217 -0.32,-0.405 -0.531,-0.531 -0.136,-0.202 -0.301,-0.38 -0.5,-0.5 -0.136,-0.202 -0.301,-0.38 -0.5,-0.5 -0.136,-0.202 -0.301,-0.38 -0.5,-0.5 -0.136,-0.202 -0.301,-0.38 -0.5,-0.5 -0.136,-0.202 -0.301,-0.38 -0.5,-0.5 -0.136,-0.202 -0.301,-0.38 -0.5,-0.5 -0.136,-0.202 -0.301,-0.38 -0.5,-0.5 -0.134,-0.199 -0.304,-0.349 -0.5,-0.469 -0.136,-0.206 -0.299,-0.378 -0.5,-0.5 -0.136,-0.206 -0.299,-0.378 -0.5,-0.5 -0.136,-0.206 -0.299,-0.378 -0.5,-0.5 -0.117,-0.177 -0.24,-0.321 -0.406,-0.438 -0.124,-0.21 -0.31,-0.367 -0.5,-0.5 -0.124,-0.21 -0.31,-0.367 -0.5,-0.5 -0.125,-0.212 -0.308,-0.366 -0.5,-0.5 -0.125,-0.212 -0.308,-0.366 -0.5,-0.5 -0.125,-0.212 -0.308,-0.366 -0.5,-0.5 -0.125,-0.212 -0.308,-0.366 -0.5,-0.5 -0.125,-0.212 -0.308,-0.366 -0.5,-0.5 -0.125,-0.212 -0.308,-0.366 -0.5,-0.5 -0.125,-0.212 -0.308,-0.366 -0.5,-0.5 -0.133,-0.226 -0.323,-0.395 -0.531,-0.531 -0.128,-0.2 -0.31,-0.376 -0.5,-0.5 -0.128,-0.2 -0.31,-0.376 -0.5,-0.5 -0.139,-0.217 -0.32,-0.405 -0.531,-0.531 -0.136,-0.202 -0.301,-0.38 -0.5,-0.5 -0.136,-0.202 -0.301,-0.38 -0.5,-0.5 -0.136,-0.202 -0.301,-0.38 -0.5,-0.5 -0.136,-0.202 -0.301,-0.38 -0.5,-0.5 -0.136,-0.202 -0.301,-0.38 -0.5,-0.5 -0.136,-0.202 -0.301,-0.38 -0.5,-0.5 -0.136,-0.202 -0.301,-0.38 -0.5,-0.5 -0.13,-0.192 -0.281,-0.35 -0.469,-0.469 -0.133,-0.206 -0.302,-0.375 -0.5,-0.5 -0.133,-0.206 -0.302,-0.375 -0.5,-0.5 -0.133,-0.206 -0.302,-0.375 -0.5,-0.5 -0.118,-0.184 -0.266,-0.317 -0.438,-0.438 -0.124,-0.21 -0.31,-0.367 -0.5,-0.5 -0.124,-0.21 -0.31,-0.367 -0.5,-0.5 -0.125,-0.212 -0.308,-0.366 -0.5,-0.5 -0.125,-0.212 -0.308,-0.366 -0.5,-0.5 -0.125,-0.212 -0.308,-0.366 -0.5,-0.5 -0.125,-0.212 -0.308,-0.366 -0.5,-0.5 -0.125,-0.212 -0.308,-0.366 -0.5,-0.5 -0.125,-0.212 -0.308,-0.366 -0.5,-0.5 -0.125,-0.212 -0.308,-0.366 -0.5,-0.5 -0.125,-0.212 -0.308,-0.366 -0.5,-0.5 -0.133,-0.226 -0.323,-0.395 -0.531,-0.531 -0.128,-0.2 -0.31,-0.376 -0.5,-0.5 -0.139,-0.217 -0.32,-0.405 -0.531,-0.531 -0.136,-0.202 -0.301,-0.38 -0.5,-0.5 -0.136,-0.202 -0.301,-0.38 -0.5,-0.5 -0.136,-0.202 -0.301,-0.38 -0.5,-0.5 -0.136,-0.202 -0.301,-0.38 -0.5,-0.5 -0.136,-0.202 -0.301,-0.38 -0.5,-0.5 -0.136,-0.202 -0.301,-0.38 -0.5,-0.5 -0.136,-0.202 -0.301,-0.38 -0.5,-0.5 -0.134,-0.199 -0.304,-0.349 -0.5,-0.469 -0.136,-0.206 -0.299,-0.378 -0.5,-0.5 -0.136,-0.206 -0.299,-0.378 -0.5,-0.5 -0.136,-0.206 -0.299,-0.378 -0.5,-0.5 -0.142,-0.215 -0.287,-0.408 -0.5,-0.531 -0.114,-0.167 -0.247,-0.295 -0.406,-0.406 -0.124,-0.21 -0.31,-0.367 -0.5,-0.5 -0.125,-0.212 -0.308,-0.366 -0.5,-0.5 -0.125,-0.212 -0.308,-0.366 -0.5,-0.5 -0.125,-0.212 -0.308,-0.366 -0.5,-0.5 -0.125,-0.212 -0.308,-0.366 -0.5,-0.5 -0.125,-0.212 -0.308,-0.366 -0.5,-0.5 -0.125,-0.212 -0.308,-0.366 -0.5,-0.5 -0.125,-0.212 -0.308,-0.366 -0.5,-0.5 -0.125,-0.212 -0.308,-0.366 -0.5,-0.5 -0.133,-0.226 -0.323,-0.395 -0.531,-0.531 -0.128,-0.2 -0.31,-0.376 -0.5,-0.5 -0.139,-0.217 -0.32,-0.405 -0.531,-0.531 -0.136,-0.202 -0.301,-0.38 -0.5,-0.5 -0.136,-0.202 -0.301,-0.38 -0.5,-0.5 -0.136,-0.202 -0.301,-0.38 -0.5,-0.5 -0.136,-0.202 -0.301,-0.38 -0.5,-0.5 -0.136,-0.202 -0.301,-0.38 -0.5,-0.5 -0.136,-0.202 -0.301,-0.38 -0.5,-0.5 -0.136,-0.202 -0.301,-0.38 -0.5,-0.5 -0.136,-0.202 -0.301,-0.38 -0.5,-0.5 -0.13,-0.192 -0.281,-0.35 -0.469,-0.469 -0.133,-0.206 -0.302,-0.375 -0.5,-0.5 -0.133,-0.206 -0.302,-0.375 -0.5,-0.5 -0.143,-0.222 -0.313,-0.405 -0.531,-0.531 -0.114,-0.167 -0.247,-0.295 -0.406,-0.406 -0.124,-0.21 -0.31,-0.367 -0.5,-0.5 -0.125,-0.212 -0.308,-0.366 -0.5,-0.5 -0.125,-0.212 -0.308,-0.366 -0.5,-0.5 -0.125,-0.212 -0.308,-0.366 -0.5,-0.5 -0.125,-0.212 -0.308,-0.366 -0.5,-0.5 -0.125,-0.212 -0.308,-0.366 -0.5,-0.5 -0.125,-0.212 -0.308,-0.366 -0.5,-0.5 -0.125,-0.212 -0.308,-0.366 -0.5,-0.5 -0.125,-0.212 -0.308,-0.366 -0.5,-0.5 -0.133,-0.226 -0.323,-0.395 -0.531,-0.531 -0.128,-0.2 -0.31,-0.376 -0.5,-0.5 -0.139,-0.217 -0.32,-0.405 -0.531,-0.531 -0.136,-0.202 -0.301,-0.38 -0.5,-0.5 -0.136,-0.202 -0.301,-0.38 -0.5,-0.5 -0.136,-0.202 -0.301,-0.38 -0.5,-0.5 -0.136,-0.202 -0.301,-0.38 -0.5,-0.5 -0.136,-0.202 -0.301,-0.38 -0.5,-0.5 -0.136,-0.202 -0.301,-0.38 -0.5,-0.5 -0.136,-0.202 -0.301,-0.38 -0.5,-0.5 -0.136,-0.202 -0.301,-0.38 -0.5,-0.5 -0.134,-0.199 -0.304,-0.349 -0.5,-0.469 -0.136,-0.206 -0.299,-0.378 -0.5,-0.5 -0.136,-0.206 -0.299,-0.378 -0.5,-0.5 -0.136,-0.206 -0.299,-0.378 -0.5,-0.5 -0.117,-0.177 -0.24,-0.321 -0.406,-0.438 -0.279,-0.474 -0.768,-0.781 -1.313,-0.781 h -91.62 c -0.872,0 -1.563,0.798 -1.563,1.781 v 37.13 c -0.078,-0.084 -0.158,-0.154 -0.25,-0.219 -0.124,-0.21 -0.31,-0.367 -0.5,-0.5 -0.124,-0.21 -0.31,-0.367 -0.5,-0.5 -0.125,-0.212 -0.308,-0.366 -0.5,-0.5 -0.125,-0.212 -0.308,-0.366 -0.5,-0.5 -0.125,-0.212 -0.308,-0.366 -0.5,-0.5 -0.125,-0.212 -0.308,-0.366 -0.5,-0.5 -0.125,-0.212 -0.308,-0.366 -0.5,-0.5 -0.125,-0.212 -0.308,-0.366 -0.5,-0.5 -0.125,-0.212 -0.308,-0.366 -0.5,-0.5 -0.125,-0.212 -0.308,-0.366 -0.5,-0.5 -0.133,-0.226 -0.323,-0.395 -0.531,-0.531 -0.128,-0.2 -0.31,-0.376 -0.5,-0.5 -0.139,-0.217 -0.32,-0.405 -0.531,-0.531 -0.136,-0.202 -0.301,-0.38 -0.5,-0.5 -0.136,-0.202 -0.301,-0.38 -0.5,-0.5 -0.136,-0.202 -0.301,-0.38 -0.5,-0.5 -0.136,-0.202 -0.301,-0.38 -0.5,-0.5 -0.136,-0.202 -0.301,-0.38 -0.5,-0.5 -0.136,-0.202 -0.301,-0.38 -0.5,-0.5 -0.136,-0.202 -0.301,-0.38 -0.5,-0.5 -0.136,-0.202 -0.301,-0.38 -0.5,-0.5 -0.13,-0.192 -0.281,-0.35 -0.469,-0.469 -0.133,-0.206 -0.302,-0.375 -0.5,-0.5 -0.133,-0.206 -0.302,-0.375 -0.5,-0.5 -0.143,-0.222 -0.313,-0.405 -0.531,-0.531 -0.114,-0.167 -0.247,-0.295 -0.406,-0.406 -0.124,-0.21 -0.31,-0.367 -0.5,-0.5 -0.125,-0.212 -0.308,-0.366 -0.5,-0.5 -0.125,-0.212 -0.308,-0.366 -0.5,-0.5 -0.125,-0.212 -0.308,-0.366 -0.5,-0.5 -0.125,-0.212 -0.308,-0.366 -0.5,-0.5 -0.125,-0.212 -0.308,-0.366 -0.5,-0.5 -0.125,-0.212 -0.308,-0.366 -0.5,-0.5 -0.125,-0.212 -0.308,-0.366 -0.5,-0.5 -0.125,-0.212 -0.308,-0.366 -0.5,-0.5 -0.133,-0.226 -0.323,-0.395 -0.531,-0.531 -0.128,-0.2 -0.31,-0.376 -0.5,-0.5 -0.139,-0.217 -0.32,-0.405 -0.531,-0.531 -0.136,-0.202 -0.301,-0.38 -0.5,-0.5 -0.136,-0.202 -0.301,-0.38 -0.5,-0.5 -0.136,-0.202 -0.301,-0.38 -0.5,-0.5 -0.136,-0.202 -0.301,-0.38 -0.5,-0.5 -0.136,-0.202 -0.301,-0.38 -0.5,-0.5 -0.136,-0.202 -0.301,-0.38 -0.5,-0.5 -0.136,-0.202 -0.301,-0.38 -0.5,-0.5 -0.136,-0.202 -0.301,-0.38 -0.5,-0.5 -0.134,-0.199 -0.304,-0.349 -0.5,-0.469 -0.136,-0.206 -0.299,-0.378 -0.5,-0.5 -0.136,-0.206 -0.299,-0.378 -0.5,-0.5 -0.142,-0.215 -0.287,-0.408 -0.5,-0.531 -0.114,-0.167 -0.247,-0.295 -0.406,-0.406 -0.124,-0.21 -0.31,-0.367 -0.5,-0.5 -0.125,-0.212 -0.308,-0.366 -0.5,-0.5 -0.125,-0.212 -0.308,-0.366 -0.5,-0.5 -0.125,-0.212 -0.308,-0.366 -0.5,-0.5 -0.125,-0.212 -0.308,-0.366 -0.5,-0.5 -0.125,-0.212 -0.308,-0.366 -0.5,-0.5 -0.125,-0.212 -0.308,-0.366 -0.5,-0.5 -0.125,-0.212 -0.308,-0.366 -0.5,-0.5 -0.125,-0.212 -0.308,-0.366 -0.5,-0.5 -0.133,-0.226 -0.323,-0.395 -0.531,-0.531 -0.128,-0.2 -0.31,-0.376 -0.5,-0.5 -0.139,-0.217 -0.32,-0.405 -0.531,-0.531 -0.136,-0.202 -0.301,-0.38 -0.5,-0.5 -0.136,-0.202 -0.301,-0.38 -0.5,-0.5 -0.136,-0.202 -0.301,-0.38 -0.5,-0.5 -0.136,-0.202 -0.301,-0.38 -0.5,-0.5 -0.136,-0.202 -0.301,-0.38 -0.5,-0.5 -0.136,-0.202 -0.301,-0.38 -0.5,-0.5 -0.136,-0.202 -0.301,-0.38 -0.5,-0.5 -0.136,-0.202 -0.301,-0.38 -0.5,-0.5 -0.13,-0.192 -0.281,-0.35 -0.469,-0.469 -0.133,-0.206 -0.302,-0.375 -0.5,-0.5 -0.133,-0.206 -0.302,-0.375 -0.5,-0.5 -0.133,-0.206 -0.302,-0.375 -0.5,-0.5 -0.118,-0.184 -0.266,-0.317 -0.438,-0.438 -0.279,-0.474 -0.768,-0.781 -1.313,-0.781 h -91.59"
     inkscape:connector-curvature="0"
     id="path6"
     style="fill-opacity:0.23500001" />
  <g
     id="g8"
     style="fill-rule:evenodd">
    <path
       d="M 256,1 C 115.17,1 1,115.17 1,256 1,396.83 115.17,511 256,511 396.83,511 511,396.83 511,256 511,115.17 396.83,1 256,1 m 8.827,44.931 c 120.9,0 218.9,98 218.9,218.9 0,120.9 -98,218.9 -218.9,218.9 -120.9,0 -218.93,-98 -218.93,-218.9 0,-120.9 98.03,-218.9 218.93,-218.9"
       inkscape:connector-curvature="0"
       id="path10"
       style="fill-opacity:0.06700003" />
    <g
       id="g12"
       style="fill-opacity:0.12900002">
      <path
         d="m 256,4.433 c -138.94,0 -251.57,112.63 -251.57,251.57 0,138.94 112.63,251.57 251.57,251.57 138.94,0 251.57,-112.63 251.57,-251.57 C 507.57,117.063 394.94,4.433 256,4.433 m 5.885,38.556 c 120.9,0 218.9,98 218.9,218.9 0,120.9 -98,218.9 -218.9,218.9 -120.9,0 -218.93,-98 -218.93,-218.9 0,-120.9 98.03,-218.9 218.93,-218.9"
         inkscape:connector-curvature="0"
         id="path14" />
      <path
         d="m 256,8.356 c -136.77,0 -247.64,110.87 -247.64,247.64 0,136.77 110.87,247.64 247.64,247.64 136.77,0 247.64,-110.87 247.64,-247.64 C 503.64,119.226 392.77,8.356 256,8.356 m 2.942,31.691 c 120.9,0 218.9,98 218.9,218.9 0,120.9 -98,218.9 -218.9,218.9 -120.9,0 -218.93,-98 -218.93,-218.9 0,-120.9 98.03,-218.9 218.93,-218.9"
         inkscape:connector-curvature="0"
         id="path16" />
    </g>
    <path
       d="m 253.04,7.859 c -135.42,0 -245.19,109.78 -245.19,245.19 0,135.42 109.78,245.19 245.19,245.19 135.42,0 245.19,-109.78 245.19,-245.19 0,-135.42 -109.78,-245.19 -245.19,-245.19 z m 0,26.297 c 120.9,0 218.9,98 218.9,218.9 0,120.9 -98,218.9 -218.9,218.9 -120.9,0 -218.93,-98 -218.93,-218.9 0,-120.9 98.03,-218.9 218.93,-218.9 z"
       inkscape:connector-curvature="0"
       id="path18"
       style="fill:#ffffff;stroke:#000000;stroke-width:4.90399981;stroke-opacity:0.31000001" />
  </g>
  <text
     x="729.64001"
     y="231.36"
     id="text20"
     style="font-size:129.22999573px;line-height:125%;letter-spacing:0;word-spacing:0;font-family:Gentium Book Basic">
    <tspan
       x="729.64001"
       y="231.36"
       id="tspan22" />
  </text>
  <text
     x="378.91"
     y="579.25"
     transform="scale(4.0128,0.2492)"
     id="text24"
     style="font-size:46.95399857px;text-anchor:middle;font-family:Arial" />
  <text
     x="1310.91"
     y="151.36"
     id="text26"
     style="font-size:129.22999573px;line-height:125%;letter-spacing:0;word-spacing:0;font-family:Gentium Book Basic">
    <tspan
       x="1310.91"
       y="151.36"
       id="tspan28" />
  </text>
  <text
     x="523.76001"
     y="258.22"
     transform="scale(4.0128,0.2492)"
     id="text30"
     style="font-size:46.95399857px;text-anchor:middle;font-family:Arial" />
  <text
     x="239.33"
     y="-29.900999"
     id="text32"
     style="font-size:129.22999573px;line-height:125%;letter-spacing:0;word-spacing:0;font-family:Gentium Book Basic">
    <tspan
       x="239.33"
       y="-29.900999"
       id="tspan34" />
  </text>
  <text
     x="256.72"
     y="-469.14001"
     transform="scale(4.0128,0.2492)"
     id="text36"
     style="font-size:46.95399857px;text-anchor:middle;font-family:Arial" />
  <text
     x="1337.38"
     y="-246.37"
     id="text38"
     style="font-size:129.22999573px;line-height:125%;letter-spacing:0;word-spacing:0;font-family:Gentium Book Basic">
    <tspan
       x="1337.38"
       y="-246.37"
       id="tspan40" />
  </text>
  <text
     x="530.35999"
     y="-1337.8101"
     transform="scale(4.0128,0.2492)"
     id="text42"
     style="font-size:46.95399857px;text-anchor:middle;font-family:Arial" />
  <text
     x="1918.65"
     y="-326.38"
     id="text44"
     style="font-size:129.22999573px;line-height:125%;letter-spacing:0;word-spacing:0;font-family:Gentium Book Basic">
    <tspan
       x="1918.65"
       y="-326.38"
       id="tspan46" />
  </text>
  <text
     x="675.21002"
     y="-1658.85"
     transform="scale(4.0128,0.2492)"
     id="text48"
     style="font-size:46.95399857px;text-anchor:middle;font-family:Arial" />
  <text
     x="1529.53"
     y="-798.78003"
     id="text50"
     style="font-size:129.22999573px;line-height:125%;letter-spacing:0;word-spacing:0;font-family:Gentium Book Basic">
    <tspan
       x="1529.53"
       y="-798.78003"
       id="tspan52" />
  </text>
  <text
     x="578.23999"
     y="-3554.51"
     transform="scale(4.0128,0.2492)"
     id="text54"
     style="font-size:46.95399857px;text-anchor:middle;font-family:Arial" />
  <text
     x="2110.79"
     y="-878.78003"
     id="text56"
     style="font-size:129.22999573px;line-height:125%;letter-spacing:0;word-spacing:0;font-family:Gentium Book Basic">
    <tspan
       x="2110.79"
       y="-878.78003"
       id="tspan58" />
  </text>
  <text
     x="723.09003"
     y="-3875.54"
     transform="scale(4.0128,0.2492)"
     id="text60"
     style="font-size:46.95399857px;text-anchor:middle;font-family:Arial" />
  <text
     x="277.98999"
     y="535.94"
     id="text62"
     style="font-size:208.33000183px;line-height:125%;letter-spacing:0;word-spacing:0;font-family:Gentium Book Basic">
    <tspan
       x="277.98999"
       y="535.94"
       id="tspan64" />
  </text>
  <path
     d="m 143.9,142.27 c -0.872,0 -1.606,0.801 -1.606,1.785 v 91.2 c 0,0.984 0.735,1.785 1.606,1.785 h 91.6 c 0.872,0 1.562,-0.801 1.562,-1.785 v -91.2 c 0,-0.984 -0.69,-1.785 -1.562,-1.785 h -91.6 m 132.64,0 c -0.872,0 -1.562,0.801 -1.562,1.785 v 91.2 c 0,0.984 0.69,1.785 1.562,1.785 h 91.6 c 0.872,0 1.562,-0.801 1.562,-1.785 v -91.2 c 0,-0.984 -0.69,-1.785 -1.562,-1.785 h -91.6 M 143.9,274.96 c -0.872,0 -1.606,0.801 -1.606,1.785 v 91.2 c 0,0.984 0.735,1.785 1.606,1.785 h 91.6 c 0.872,0 1.562,-0.801 1.562,-1.785 v -91.2 c 0,-0.984 -0.69,-1.785 -1.562,-1.785 h -91.6 m 132.64,0 c -0.872,0 -1.562,0.801 -1.562,1.785 v 91.2 c 0,0.984 0.69,1.785 1.562,1.785 h 91.6 c 0.872,0 1.562,-0.801 1.562,-1.785 v -91.2 c 0,-0.984 -0.69,-1.785 -1.562,-1.785 h -91.6"
     inkscape:connector-curvature="0"
     id="path66"
     style="fill:#ffffff" />
</svg>
