<?xml version="1.0" encoding="UTF-8" standalone="no"?>
<!-- Created with Inkscape (http://www.inkscape.org/) -->

<svg
   xmlns:dc="http://purl.org/dc/elements/1.1/"
   xmlns:cc="http://creativecommons.org/ns#"
   xmlns:rdf="http://www.w3.org/1999/02/22-rdf-syntax-ns#"
   xmlns:svg="http://www.w3.org/2000/svg"
   xmlns="http://www.w3.org/2000/svg"
   xmlns:inkscape="http://www.inkscape.org/namespaces/inkscape"
   version="1.1"
   width="100%"
   height="100%"
   viewBox="0 0 512 512"
   id="svg2">
  <metadata
     id="metadata72">
    <rdf:RDF>
      <cc:Work
         rdf:about="">
        <dc:format>image/svg+xml</dc:format>
        <dc:type
           rdf:resource="http://purl.org/dc/dcmitype/StillImage" />
      </cc:Work>
    </rdf:RDF>
  </metadata>
  <defs
     id="defs70" />
  <path
     d="m 471.95,253.05 c 0,120.9 -98.01,218.9 -218.9,218.9 -120.9,0 -218.9,-98.01 -218.9,-218.9 0,-120.9 98.01,-218.9 218.9,-218.9 120.9,0 218.9,98.01 218.9,218.9"
     inkscape:connector-curvature="0"
     id="path4"
     style="fill:#c74a6c;fill-rule:evenodd" />
  <path
     d="m 153.88,136.34 c -6.01,0 -10.875,6.292 -10.875,14.09 v 209.13 c 0,4.605 1.728,8.662 4.375,11.219 0.035,0.038 0.059,0.088 0.094,0.125 0.105,0.099 0.205,0.187 0.313,0.281 0.177,0.196 0.345,0.381 0.531,0.563 0.193,0.212 0.39,0.399 0.594,0.594 0.01,0.011 0.021,0.02 0.031,0.031 0.114,0.107 0.227,0.211 0.344,0.313 0.055,0.061 0.101,0.128 0.156,0.188 0.111,0.105 0.229,0.213 0.344,0.313 0.055,0.061 0.101,0.128 0.156,0.188 0.111,0.105 0.229,0.213 0.344,0.313 0.055,0.061 0.101,0.128 0.156,0.188 0.111,0.105 0.229,0.213 0.344,0.313 0.055,0.061 0.101,0.128 0.156,0.188 0.111,0.105 0.229,0.213 0.344,0.313 0.054,0.06 0.101,0.129 0.156,0.188 0.111,0.105 0.229,0.213 0.344,0.313 0.054,0.06 0.101,0.129 0.156,0.188 0.111,0.105 0.229,0.213 0.344,0.313 0.054,0.06 0.101,0.129 0.156,0.188 0.111,0.105 0.229,0.213 0.344,0.313 0.054,0.06 0.101,0.129 0.156,0.188 0.111,0.105 0.229,0.213 0.344,0.313 0.054,0.06 0.101,0.129 0.156,0.188 0.111,0.105 0.229,0.213 0.344,0.313 0.054,0.06 0.101,0.129 0.156,0.188 0.111,0.105 0.229,0.213 0.344,0.313 0.054,0.06 0.101,0.129 0.156,0.188 0.111,0.105 0.229,0.213 0.344,0.313 0.054,0.06 0.101,0.129 0.156,0.188 0.111,0.105 0.229,0.213 0.344,0.313 0.054,0.06 0.101,0.129 0.156,0.188 0.111,0.105 0.229,0.213 0.344,0.313 0.054,0.06 0.101,0.129 0.156,0.188 0.111,0.105 0.229,0.213 0.344,0.313 0.054,0.06 0.101,0.129 0.156,0.188 0.111,0.105 0.229,0.213 0.344,0.313 0.054,0.06 0.101,0.129 0.156,0.188 0.111,0.105 0.229,0.213 0.344,0.313 0.054,0.06 0.101,0.129 0.156,0.188 0.111,0.105 0.229,0.213 0.344,0.313 0.054,0.06 0.101,0.129 0.156,0.188 0.108,0.102 0.201,0.216 0.313,0.313 0.058,0.065 0.128,0.124 0.188,0.188 0.108,0.102 0.201,0.216 0.313,0.313 0.058,0.065 0.128,0.124 0.188,0.188 0.125,0.118 0.246,0.233 0.375,0.344 0.044,0.049 0.08,0.109 0.125,0.156 0.105,0.099 0.205,0.187 0.313,0.281 0.063,0.071 0.123,0.15 0.188,0.219 0.105,0.099 0.205,0.187 0.313,0.281 0.177,0.196 0.345,0.381 0.531,0.563 0.193,0.212 0.39,0.399 0.594,0.594 0.01,0.011 0.021,0.02 0.031,0.031 0.114,0.107 0.227,0.211 0.344,0.313 0.055,0.061 0.101,0.128 0.156,0.188 0.111,0.105 0.229,0.213 0.344,0.313 0.055,0.061 0.101,0.128 0.156,0.188 0.111,0.105 0.229,0.213 0.344,0.313 0.055,0.061 0.101,0.128 0.156,0.188 0.111,0.105 0.229,0.213 0.344,0.313 0.055,0.061 0.101,0.128 0.156,0.188 0.111,0.105 0.229,0.213 0.344,0.313 0.054,0.06 0.101,0.129 0.156,0.188 0.111,0.105 0.229,0.213 0.344,0.313 0.054,0.06 0.101,0.129 0.156,0.188 0.111,0.105 0.229,0.213 0.344,0.313 0.054,0.06 0.101,0.129 0.156,0.188 0.111,0.105 0.229,0.213 0.344,0.313 0.054,0.06 0.101,0.129 0.156,0.188 0.111,0.105 0.229,0.213 0.344,0.313 0.054,0.06 0.101,0.129 0.156,0.188 0.111,0.105 0.229,0.213 0.344,0.313 0.054,0.06 0.101,0.129 0.156,0.188 0.111,0.105 0.229,0.213 0.344,0.313 0.054,0.06 0.101,0.129 0.156,0.188 0.111,0.105 0.229,0.213 0.344,0.313 0.054,0.06 0.101,0.129 0.156,0.188 0.111,0.105 0.229,0.213 0.344,0.313 0.054,0.06 0.101,0.129 0.156,0.188 0.111,0.105 0.229,0.213 0.344,0.313 0.054,0.06 0.101,0.129 0.156,0.188 0.111,0.105 0.229,0.213 0.344,0.313 0.054,0.06 0.101,0.129 0.156,0.188 0.111,0.105 0.229,0.213 0.344,0.313 0.054,0.06 0.101,0.129 0.156,0.188 0.111,0.105 0.229,0.213 0.344,0.313 0.054,0.06 0.101,0.129 0.156,0.188 0.111,0.105 0.229,0.213 0.344,0.313 0.054,0.06 0.101,0.129 0.156,0.188 0.108,0.102 0.201,0.216 0.313,0.313 0.058,0.065 0.128,0.124 0.188,0.188 0.108,0.102 0.201,0.216 0.313,0.313 0.058,0.065 0.128,0.124 0.188,0.188 0.125,0.118 0.246,0.233 0.375,0.344 0.044,0.049 0.08,0.109 0.125,0.156 0.105,0.099 0.205,0.187 0.313,0.281 0.063,0.071 0.123,0.15 0.188,0.219 0.105,0.099 0.205,0.187 0.313,0.281 0.177,0.196 0.345,0.381 0.531,0.563 0.193,0.212 0.39,0.399 0.594,0.594 0.01,0.011 0.021,0.02 0.031,0.031 0.114,0.107 0.227,0.211 0.344,0.313 0.055,0.061 0.101,0.128 0.156,0.188 0.111,0.105 0.229,0.213 0.344,0.313 0.055,0.061 0.101,0.128 0.156,0.188 0.111,0.105 0.229,0.213 0.344,0.313 0.055,0.061 0.101,0.128 0.156,0.188 0.111,0.105 0.229,0.213 0.344,0.313 0.055,0.061 0.101,0.128 0.156,0.188 0.111,0.105 0.229,0.213 0.344,0.313 0.054,0.06 0.101,0.129 0.156,0.188 0.111,0.105 0.229,0.213 0.344,0.313 0.054,0.06 0.101,0.129 0.156,0.188 0.111,0.105 0.229,0.213 0.344,0.313 0.054,0.06 0.101,0.129 0.156,0.188 0.111,0.105 0.229,0.213 0.344,0.313 0.054,0.06 0.101,0.129 0.156,0.188 0.111,0.105 0.229,0.213 0.344,0.313 0.054,0.06 0.101,0.129 0.156,0.188 0.111,0.105 0.229,0.213 0.344,0.313 0.054,0.06 0.101,0.129 0.156,0.188 0.111,0.105 0.229,0.213 0.344,0.313 0.054,0.06 0.101,0.129 0.156,0.188 0.111,0.105 0.229,0.213 0.344,0.313 0.054,0.06 0.101,0.129 0.156,0.188 0.111,0.105 0.229,0.213 0.344,0.313 0.054,0.06 0.101,0.129 0.156,0.188 0.111,0.105 0.229,0.213 0.344,0.313 0.054,0.06 0.101,0.129 0.156,0.188 0.111,0.105 0.229,0.213 0.344,0.313 0.054,0.06 0.101,0.129 0.156,0.188 0.111,0.105 0.229,0.213 0.344,0.313 0.054,0.06 0.101,0.129 0.156,0.188 0.111,0.105 0.229,0.213 0.344,0.313 0.054,0.06 0.101,0.129 0.156,0.188 0.111,0.105 0.229,0.213 0.344,0.313 0.054,0.06 0.101,0.129 0.156,0.188 0.108,0.102 0.201,0.216 0.313,0.313 0.058,0.065 0.128,0.124 0.188,0.188 0.108,0.102 0.201,0.216 0.313,0.313 0.058,0.065 0.128,0.124 0.188,0.188 0.125,0.118 0.246,0.233 0.375,0.344 0.044,0.049 0.08,0.109 0.125,0.156 0.105,0.099 0.205,0.187 0.313,0.281 0.063,0.071 0.123,0.15 0.188,0.219 0.105,0.099 0.205,0.187 0.313,0.281 0.177,0.196 0.345,0.381 0.531,0.563 0.193,0.212 0.39,0.399 0.594,0.594 0.01,0.011 0.021,0.02 0.031,0.031 0.114,0.107 0.227,0.211 0.344,0.313 0.055,0.061 0.101,0.128 0.156,0.188 0.111,0.105 0.229,0.213 0.344,0.313 0.055,0.061 0.101,0.128 0.156,0.188 0.111,0.105 0.229,0.213 0.344,0.313 0.055,0.061 0.101,0.128 0.156,0.188 0.111,0.105 0.229,0.213 0.344,0.313 0.055,0.061 0.101,0.128 0.156,0.188 0.111,0.105 0.229,0.213 0.344,0.313 0.054,0.06 0.101,0.129 0.156,0.188 0.111,0.105 0.229,0.213 0.344,0.313 0.054,0.06 0.101,0.129 0.156,0.188 0.111,0.105 0.229,0.213 0.344,0.313 0.054,0.06 0.101,0.129 0.156,0.188 0.111,0.105 0.229,0.213 0.344,0.313 0.054,0.06 0.101,0.129 0.156,0.188 0.111,0.105 0.229,0.213 0.344,0.313 0.054,0.06 0.101,0.129 0.156,0.188 0.111,0.105 0.229,0.213 0.344,0.313 0.054,0.06 0.101,0.129 0.156,0.188 0.111,0.105 0.229,0.213 0.344,0.313 0.054,0.06 0.101,0.129 0.156,0.188 0.111,0.105 0.229,0.213 0.344,0.313 0.054,0.06 0.101,0.129 0.156,0.188 0.111,0.105 0.229,0.213 0.344,0.313 0.054,0.06 0.101,0.129 0.156,0.188 0.111,0.105 0.229,0.213 0.344,0.313 0.054,0.06 0.101,0.129 0.156,0.188 0.111,0.105 0.229,0.213 0.344,0.313 0.054,0.06 0.101,0.129 0.156,0.188 0.111,0.105 0.229,0.213 0.344,0.313 0.054,0.06 0.101,0.129 0.156,0.188 0.111,0.105 0.229,0.213 0.344,0.313 0.054,0.06 0.101,0.129 0.156,0.188 0.111,0.105 0.229,0.213 0.344,0.313 0.054,0.06 0.101,0.129 0.156,0.188 0.108,0.102 0.201,0.216 0.313,0.313 0.058,0.065 0.128,0.124 0.188,0.188 0.108,0.102 0.201,0.216 0.313,0.313 0.058,0.065 0.128,0.124 0.188,0.188 0.125,0.118 0.246,0.233 0.375,0.344 0.044,0.049 0.08,0.109 0.125,0.156 0.105,0.099 0.205,0.187 0.313,0.281 0.063,0.071 0.123,0.15 0.188,0.219 0.105,0.099 0.205,0.187 0.313,0.281 0.177,0.196 0.345,0.381 0.531,0.563 0.193,0.212 0.39,0.399 0.594,0.594 0.01,0.011 0.021,0.02 0.031,0.031 0.114,0.107 0.227,0.211 0.344,0.313 0.055,0.061 0.101,0.128 0.156,0.188 0.111,0.105 0.229,0.213 0.344,0.313 0.055,0.061 0.101,0.128 0.156,0.188 0.111,0.105 0.229,0.213 0.344,0.313 0.055,0.061 0.101,0.128 0.156,0.188 0.111,0.105 0.229,0.213 0.344,0.313 0.055,0.061 0.101,0.128 0.156,0.188 0.111,0.105 0.229,0.213 0.344,0.313 0.054,0.06 0.101,0.129 0.156,0.188 0.111,0.105 0.229,0.213 0.344,0.313 0.054,0.06 0.101,0.129 0.156,0.188 0.111,0.105 0.229,0.213 0.344,0.313 0.054,0.06 0.101,0.129 0.156,0.188 0.111,0.105 0.229,0.213 0.344,0.313 0.054,0.06 0.101,0.129 0.156,0.188 0.111,0.105 0.229,0.213 0.344,0.313 0.054,0.06 0.101,0.129 0.156,0.188 0.111,0.105 0.229,0.213 0.344,0.313 0.054,0.06 0.101,0.129 0.156,0.188 0.111,0.105 0.229,0.213 0.344,0.313 0.054,0.06 0.101,0.129 0.156,0.188 0.111,0.105 0.229,0.213 0.344,0.313 0.054,0.06 0.101,0.129 0.156,0.188 0.111,0.105 0.229,0.213 0.344,0.313 0.054,0.06 0.101,0.129 0.156,0.188 0.111,0.105 0.229,0.213 0.344,0.313 0.054,0.06 0.101,0.129 0.156,0.188 0.111,0.105 0.229,0.213 0.344,0.313 0.054,0.06 0.101,0.129 0.156,0.188 0.111,0.105 0.229,0.213 0.344,0.313 0.054,0.06 0.101,0.129 0.156,0.188 0.111,0.105 0.229,0.213 0.344,0.313 0.054,0.06 0.101,0.129 0.156,0.188 0.111,0.105 0.229,0.213 0.344,0.313 0.054,0.06 0.101,0.129 0.156,0.188 0.108,0.102 0.201,0.216 0.313,0.313 0.058,0.065 0.128,0.124 0.188,0.188 0.108,0.102 0.201,0.216 0.313,0.313 0.058,0.065 0.128,0.124 0.188,0.188 0.125,0.118 0.246,0.233 0.375,0.344 0.044,0.049 0.08,0.109 0.125,0.156 0.105,0.099 0.205,0.187 0.313,0.281 0.063,0.071 0.123,0.15 0.188,0.219 0.105,0.099 0.205,0.187 0.313,0.281 0.177,0.196 0.345,0.381 0.531,0.563 0.193,0.212 0.39,0.399 0.594,0.594 0.01,0.011 0.021,0.02 0.031,0.031 0.114,0.107 0.227,0.211 0.344,0.313 0.055,0.061 0.101,0.128 0.156,0.188 0.111,0.105 0.229,0.213 0.344,0.313 0.055,0.061 0.101,0.128 0.156,0.188 0.111,0.105 0.229,0.213 0.344,0.313 0.055,0.061 0.101,0.128 0.156,0.188 0.111,0.105 0.229,0.213 0.344,0.313 0.055,0.061 0.101,0.128 0.156,0.188 0.111,0.105 0.229,0.213 0.344,0.313 0.054,0.06 0.101,0.129 0.156,0.188 0.111,0.105 0.229,0.213 0.344,0.313 0.054,0.06 0.101,0.129 0.156,0.188 0.111,0.105 0.229,0.213 0.344,0.313 0.054,0.06 0.101,0.129 0.156,0.188 0.111,0.105 0.229,0.213 0.344,0.313 0.054,0.06 0.101,0.129 0.156,0.188 0.111,0.105 0.229,0.213 0.344,0.313 0.054,0.06 0.101,0.129 0.156,0.188 0.111,0.105 0.229,0.213 0.344,0.313 0.054,0.06 0.101,0.129 0.156,0.188 0.111,0.105 0.229,0.213 0.344,0.313 0.054,0.06 0.101,0.129 0.156,0.188 0.111,0.105 0.229,0.213 0.344,0.313 0.054,0.06 0.101,0.129 0.156,0.188 0.111,0.105 0.229,0.213 0.344,0.313 0.054,0.06 0.101,0.129 0.156,0.188 0.111,0.105 0.229,0.213 0.344,0.313 0.054,0.06 0.101,0.129 0.156,0.188 0.111,0.105 0.229,0.213 0.344,0.313 0.054,0.06 0.101,0.129 0.156,0.188 0.111,0.105 0.229,0.213 0.344,0.313 0.054,0.06 0.101,0.129 0.156,0.188 0.111,0.105 0.229,0.213 0.344,0.313 0.054,0.06 0.101,0.129 0.156,0.188 0.111,0.105 0.229,0.213 0.344,0.313 0.054,0.06 0.101,0.129 0.156,0.188 0.111,0.105 0.229,0.213 0.344,0.313 0.054,0.06 0.101,0.129 0.156,0.188 0.108,0.102 0.201,0.216 0.313,0.313 0.058,0.065 0.128,0.124 0.188,0.188 0.125,0.118 0.246,0.233 0.375,0.344 0.044,0.049 0.08,0.109 0.125,0.156 0.105,0.099 0.205,0.187 0.313,0.281 0.063,0.071 0.123,0.15 0.188,0.219 0.105,0.099 0.205,0.187 0.313,0.281 0.177,0.196 0.345,0.381 0.531,0.563 0.193,0.212 0.39,0.399 0.594,0.594 0.01,0.011 0.021,0.02 0.031,0.031 0.114,0.107 0.227,0.211 0.344,0.313 0.055,0.061 0.101,0.128 0.156,0.188 0.111,0.105 0.229,0.213 0.344,0.313 0.055,0.061 0.101,0.128 0.156,0.188 0.111,0.105 0.229,0.213 0.344,0.313 0.055,0.061 0.101,0.128 0.156,0.188 0.111,0.105 0.229,0.213 0.344,0.313 0.055,0.061 0.101,0.128 0.156,0.188 0.111,0.105 0.229,0.213 0.344,0.313 0.054,0.06 0.101,0.129 0.156,0.188 0.111,0.105 0.229,0.213 0.344,0.313 0.054,0.06 0.101,0.129 0.156,0.188 0.111,0.105 0.229,0.213 0.344,0.313 0.054,0.06 0.101,0.129 0.156,0.188 0.111,0.105 0.229,0.213 0.344,0.313 0.054,0.06 0.101,0.129 0.156,0.188 0.111,0.105 0.229,0.213 0.344,0.313 0.054,0.06 0.101,0.129 0.156,0.188 0.111,0.105 0.229,0.213 0.344,0.313 0.054,0.06 0.101,0.129 0.156,0.188 0.111,0.105 0.229,0.213 0.344,0.313 0.054,0.06 0.101,0.129 0.156,0.188 0.111,0.105 0.229,0.213 0.344,0.313 0.054,0.06 0.101,0.129 0.156,0.188 0.111,0.105 0.229,0.213 0.344,0.313 0.054,0.06 0.101,0.129 0.156,0.188 0.111,0.105 0.229,0.213 0.344,0.313 0.054,0.06 0.101,0.129 0.156,0.188 0.111,0.105 0.229,0.213 0.344,0.313 0.054,0.06 0.101,0.129 0.156,0.188 0.111,0.105 0.229,0.213 0.344,0.313 0.054,0.06 0.101,0.129 0.156,0.188 0.111,0.105 0.229,0.213 0.344,0.313 0.054,0.06 0.101,0.129 0.156,0.188 0.111,0.105 0.229,0.213 0.344,0.313 0.054,0.06 0.101,0.129 0.156,0.188 0.111,0.105 0.229,0.213 0.344,0.313 0.054,0.06 0.101,0.129 0.156,0.188 0.108,0.102 0.201,0.216 0.313,0.313 0.058,0.065 0.128,0.124 0.188,0.188 0.108,0.102 0.201,0.216 0.313,0.313 0.058,0.065 0.128,0.124 0.188,0.188 0.125,0.118 0.246,0.233 0.375,0.344 0.044,0.049 0.08,0.109 0.125,0.156 0.105,0.099 0.205,0.187 0.313,0.281 0.177,0.196 0.345,0.381 0.531,0.563 0.193,0.212 0.39,0.399 0.594,0.594 0.01,0.011 0.021,0.02 0.031,0.031 0.114,0.107 0.227,0.211 0.344,0.313 0.055,0.061 0.101,0.128 0.156,0.188 0.111,0.105 0.229,0.213 0.344,0.313 0.055,0.061 0.101,0.128 0.156,0.188 0.111,0.105 0.229,0.213 0.344,0.313 0.055,0.061 0.101,0.128 0.156,0.188 0.111,0.105 0.229,0.213 0.344,0.313 0.055,0.061 0.101,0.128 0.156,0.188 0.111,0.105 0.229,0.213 0.344,0.313 0.054,0.06 0.101,0.129 0.156,0.188 0.111,0.105 0.229,0.213 0.344,0.313 0.054,0.06 0.101,0.129 0.156,0.188 0.111,0.105 0.229,0.213 0.344,0.313 0.054,0.06 0.101,0.129 0.156,0.188 0.111,0.105 0.229,0.213 0.344,0.313 0.054,0.06 0.101,0.129 0.156,0.188 0.111,0.105 0.229,0.213 0.344,0.313 0.054,0.06 0.101,0.129 0.156,0.188 0.111,0.105 0.229,0.213 0.344,0.313 0.054,0.06 0.101,0.129 0.156,0.188 0.111,0.105 0.229,0.213 0.344,0.313 0.054,0.06 0.101,0.129 0.156,0.188 0.111,0.105 0.229,0.213 0.344,0.313 0.054,0.06 0.101,0.129 0.156,0.188 0.111,0.105 0.229,0.213 0.344,0.313 0.054,0.06 0.101,0.129 0.156,0.188 0.111,0.105 0.229,0.213 0.344,0.313 0.054,0.06 0.101,0.129 0.156,0.188 0.111,0.105 0.229,0.213 0.344,0.313 0.054,0.06 0.101,0.129 0.156,0.188 0.111,0.105 0.229,0.213 0.344,0.313 0.054,0.06 0.101,0.129 0.156,0.188 0.111,0.105 0.229,0.213 0.344,0.313 0.054,0.06 0.101,0.129 0.156,0.188 0.111,0.105 0.229,0.213 0.344,0.313 0.054,0.06 0.101,0.129 0.156,0.188 0.111,0.105 0.229,0.213 0.344,0.313 0.054,0.06 0.101,0.129 0.156,0.188 0.108,0.102 0.201,0.216 0.313,0.313 0.058,0.065 0.128,0.124 0.188,0.188 0.108,0.102 0.201,0.216 0.313,0.313 0.058,0.065 0.128,0.124 0.188,0.188 0.125,0.118 0.246,0.233 0.375,0.344 0.044,0.049 0.08,0.109 0.125,0.156 0.105,0.099 0.205,0.187 0.313,0.281 0.177,0.196 0.345,0.381 0.531,0.563 0.132,0.145 0.269,0.274 0.406,0.406 1.525,0.031 3.03,0.063 4.563,0.063 120.9,0 218.91,-98.01 218.91,-218.91 0,-4.69 -0.147,-9.352 -0.438,-13.969 h -0.281 v -0.5 h -0.5 v -0.5 h -0.5 v -0.5 h -0.5 v -0.5 h -0.5 v -0.5 h -0.5 v -0.5 h -0.5 v -0.5 h -0.5 v -0.5 h -0.5 v -0.5 h -0.5 v -0.5 h -0.5 v -0.5 h -0.5 v -0.5 h -0.5 v -0.5 h -0.5 v -0.5 h -0.5 v -0.5 h -0.5 v -0.5 h -0.5 v -0.5 h -0.5 v -0.5 h -0.469 v -0.469 h -0.5 v -0.5 h -0.5 v -0.5 h -0.5 v -0.5 h -0.5 v -0.5 h -0.5 v -0.5 h -0.5 v -0.5 h -0.5 v -0.5 h -0.5 v -0.5 h -0.5 v -0.5 h -0.5 v -0.5 h -0.5 v -0.5 h -0.5 v -0.5 h -0.5 v -0.5 h -0.5 v -0.5 h -0.5 v -0.5 h -0.5 v -0.5 h -0.5 v -0.5 h -0.5 v -0.5 h -0.5 v -0.5 h -0.5 v -0.5 h -0.5 v -0.5 h -0.5 v -0.5 h -0.5 v -0.5 h -0.5 v -0.5 h -0.469 v -0.469 h -0.5 v -0.5 h -0.5 v -0.5 h -0.5 v -0.5 h -0.5 v -0.5 h -0.5 v -0.5 h -0.5 v -0.5 h -0.5 v -0.5 h -0.5 v -0.5 h -0.5 v -0.5 h -0.5 v -0.5 h -0.5 v -0.5 h -0.5 v -0.5 h -0.5 v -0.5 h -0.5 v -0.5 h -0.5 v -0.5 h -0.5 v -0.5 h -0.5 v -0.5 h -0.5 v -0.5 h -0.5 v -0.5 h -0.5 v -0.5 h -0.5 v -0.5 h -0.5 v -0.5 h -0.5 v -0.5 h -0.5 v -0.5 h -0.469 v -0.469 h -0.5 v -0.5 h -0.5 v -0.5 h -0.5 v -0.5 h -0.5 v -0.5 h -0.5 v -0.5 h -0.5 v -0.5 h -0.5 v -0.5 h -0.5 v -0.5 h -0.5 v -0.5 h -0.5 v -0.5 h -0.5 v -0.5 h -0.5 v -0.5 h -0.5 v -0.5 h -0.5 v -0.5 h -0.5 v -0.5 h -0.5 v -0.5 h -0.5 v -0.5 h -0.5 v -0.5 h -0.5 v -0.5 h -0.5 v -0.5 h -0.5 v -0.5 h -0.5 v -0.5 h -0.5 v -0.5 h -0.5 v -0.5 h -0.469 v -0.469 h -0.5 v -0.5 h -0.5 v -0.5 h -0.5 v -0.5 h -0.5 v -0.5 h -0.5 v -0.5 h -0.5 v -0.5 h -0.5 v -0.5 h -0.5 v -0.5 h -0.5 v -0.5 h -0.5 v -0.5 h -0.5 v -0.5 h -0.5 v -0.5 h -0.5 v -0.5 h -0.5 v -0.5 h -0.5 v -0.5 h -0.5 v -0.5 h -0.5 v -0.5 h -0.5 v -0.5 h -0.5 v -0.5 h -0.5 v -0.5 h -0.5 v -0.5 h -0.5 v -0.5 h -0.5 v -0.5 h -0.5 v -0.5 h -0.469 v -0.469 h -0.5 v -0.5 h -0.5 v -0.5 h -0.5 v -0.5 h -0.5 v -0.5 h -0.5 v -0.5 h -0.5 v -0.5 h -0.5 v -0.5 h -0.5 v -0.5 h -0.5 v -0.5 h -0.5 v -0.5 h -0.5 v -0.5 h -0.5 v -0.5 h -0.5 v -0.5 h -0.5 v -0.5 h -0.5 v -0.5 h -0.5 v -0.5 h -0.5 v -0.5 h -0.5 v -0.5 h -0.5 v -0.5 h -0.5 v -0.5 h -0.5 v -0.5 h -0.5 v -0.5 h -0.5 v -0.5 h -0.5 v -0.5 h -0.469 v -0.469 h -0.5 v -0.5 h -0.5 v -0.5 h -0.5 v -0.5 h -0.5 v -0.5 h -0.5 v -0.5 h -0.5 v -0.5 h -0.5 v -0.5 h -0.5 v -0.5 h -0.5 v -0.5 h -0.5 v -0.5 h -0.5 v -0.5 h -0.5 v -0.5 h -0.5 v -0.5 h -0.5 v -0.5 h -0.5 v -0.5 h -0.5 v -0.5 h -0.5 v -0.5 h -0.5 v -0.5 h -0.5 v -0.5 h -0.5 v -0.5 h -0.5 v -0.5 h -0.5 v -0.5 h -0.5 v -0.5 h -0.5 v -0.5 h -0.469 v -0.469 h -0.5 v -0.5 h -0.5 v -0.5 h -0.5 v -0.5 h -0.5 v -0.5 h -0.5 v -0.5 h -0.5 v -0.5 h -0.5 v -0.5 h -0.5 v -0.5 h -0.5 v -0.5 h -0.5 v -0.5 h -0.5 v -0.5 h -0.5 v -0.5 h -0.5 v -0.5 h -0.5 v -0.5 h -0.5 v -0.5 h -0.5 v -0.5 h -0.5 v -0.5 h -0.5 v -0.5 h -0.5 v -0.5 h -0.5 v -0.5 h -0.5 v -0.5 h -0.5 v -0.5 h -0.5 v -0.5 h -0.5 v -0.5 h -0.469 V 142.5 h -0.5 V 142 h -0.5 v -0.5 h -0.5 V 141 h -0.5 v -0.5 h -0.5 V 140 h -0.5 v -0.5 h -0.5 V 139 h -0.5 v -0.5 h -0.5 V 138.406 138 h -0.5 v -0.219 -0.281 h -0.5 V 137.125 137 h -0.5 v -0.5 h -22.22 V 150 h -0.344 v -0.5 h -0.5 V 149 h -0.5 v -0.5 h -0.5 V 148 h -0.5 v -0.5 h -0.5 V 147 h -0.5 v -0.5 h -0.5 V 146 h -0.5 v -0.5 h -0.5 V 145 h -0.5 v -0.5 h -0.5 V 144 h -0.5 v -0.5 h -0.469 v -0.469 h -0.5 v -0.5 h -0.5 v -0.5 h -0.5 v -0.5 h -0.5 v -0.5 h -0.5 v -0.5 h -0.5 v -0.5 h -0.5 v -0.5 h -0.5 v -0.5 h -0.5 v -0.5 h -0.5 v -0.5 h -0.5 v -0.5 h -0.5 v -0.5 h -154.34 v 11.938 h -0.344 v -0.5 h -0.5 v -0.5 h -0.5 v -0.5 h -0.5 v -0.5 h -0.5 v -0.5 h -0.5 v -0.5 h -0.5 v -0.5 h -0.5 v -0.5 h -0.5 v -0.5 h -0.5 v -0.5 h -0.5 v -0.5 h -0.5 v -0.5 h -0.469 V 142.5 h -0.5 V 142 h -0.5 v -0.5 h -0.5 V 141 h -0.5 v -0.5 h -0.5 V 140 h -0.5 v -0.5 h -0.5 V 139 h -0.5 v -0.5 h -0.5 V 138 h -0.5 v -0.5 h -0.5 V 137 h -0.5 v -0.5 h -13.406"
     inkscape:connector-curvature="0"
     id="path6"
     style="fill-opacity:0.23500001" />
  <g
     id="g8"
     style="fill-rule:evenodd">
    <path
       d="M 256,1 C 115.17,1 1,115.17 1,256 1,396.83 115.17,511 256,511 396.83,511 511,396.83 511,256 511,115.17 396.83,1 256,1 m 8.827,44.931 c 120.9,0 218.9,98 218.9,218.9 0,120.9 -98,218.9 -218.9,218.9 -120.9,0 -218.93,-98 -218.93,-218.9 0,-120.9 98.03,-218.9 218.93,-218.9"
       inkscape:connector-curvature="0"
       id="path10"
       style="fill-opacity:0.06700003" />
    <g
       id="g12"
       style="fill-opacity:0.12900002">
      <path
         d="m 256,4.433 c -138.94,0 -251.57,112.63 -251.57,251.57 0,138.94 112.63,251.57 251.57,251.57 138.94,0 251.57,-112.63 251.57,-251.57 C 507.57,117.063 394.94,4.433 256,4.433 m 5.885,38.556 c 120.9,0 218.9,98 218.9,218.9 0,120.9 -98,218.9 -218.9,218.9 -120.9,0 -218.93,-98 -218.93,-218.9 0,-120.9 98.03,-218.9 218.93,-218.9"
         inkscape:connector-curvature="0"
         id="path14" />
      <path
         d="m 256,8.356 c -136.77,0 -247.64,110.87 -247.64,247.64 0,136.77 110.87,247.64 247.64,247.64 136.77,0 247.64,-110.87 247.64,-247.64 C 503.64,119.226 392.77,8.356 256,8.356 m 2.942,31.691 c 120.9,0 218.9,98 218.9,218.9 0,120.9 -98,218.9 -218.9,218.9 -120.9,0 -218.93,-98 -218.93,-218.9 0,-120.9 98.03,-218.9 218.93,-218.9"
         inkscape:connector-curvature="0"
         id="path16" />
    </g>
    <path
       d="m 253.04,7.859 c -135.42,0 -245.19,109.78 -245.19,245.19 0,135.42 109.78,245.19 245.19,245.19 135.42,0 245.19,-109.78 245.19,-245.19 0,-135.42 -109.78,-245.19 -245.19,-245.19 z m 0,26.297 c 120.9,0 218.9,98 218.9,218.9 0,120.9 -98,218.9 -218.9,218.9 -120.9,0 -218.93,-98 -218.93,-218.9 0,-120.9 98.03,-218.9 218.93,-218.9 z"
       inkscape:connector-curvature="0"
       id="path18"
       style="fill:#ffffff;stroke:#000000;stroke-width:4.90399981;stroke-opacity:0.31000001" />
  </g>
  <text
     x="729.64001"
     y="231.36"
     id="text20"
     style="font-size:129.22999573px;line-height:125%;letter-spacing:0;word-spacing:0;font-family:Gentium Book Basic">
    <tspan
       x="729.64001"
       y="231.36"
       id="tspan22" />
  </text>
  <text
     x="378.91"
     y="579.25"
     transform="scale(4.0128,0.2492)"
     id="text24"
     style="font-size:46.95399857px;text-anchor:middle;font-family:Arial" />
  <text
     x="1310.91"
     y="151.36"
     id="text26"
     style="font-size:129.22999573px;line-height:125%;letter-spacing:0;word-spacing:0;font-family:Gentium Book Basic">
    <tspan
       x="1310.91"
       y="151.36"
       id="tspan28" />
  </text>
  <text
     x="523.76001"
     y="258.22"
     transform="scale(4.0128,0.2492)"
     id="text30"
     style="font-size:46.95399857px;text-anchor:middle;font-family:Arial" />
  <text
     x="239.33"
     y="-29.900999"
     id="text32"
     style="font-size:129.22999573px;line-height:125%;letter-spacing:0;word-spacing:0;font-family:Gentium Book Basic">
    <tspan
       x="239.33"
       y="-29.900999"
       id="tspan34" />
  </text>
  <text
     x="256.72"
     y="-469.14001"
     transform="scale(4.0128,0.2492)"
     id="text36"
     style="font-size:46.95399857px;text-anchor:middle;font-family:Arial" />
  <text
     x="1337.38"
     y="-246.37"
     id="text38"
     style="font-size:129.22999573px;line-height:125%;letter-spacing:0;word-spacing:0;font-family:Gentium Book Basic">
    <tspan
       x="1337.38"
       y="-246.37"
       id="tspan40" />
  </text>
  <text
     x="530.35999"
     y="-1337.8101"
     transform="scale(4.0128,0.2492)"
     id="text42"
     style="font-size:46.95399857px;text-anchor:middle;font-family:Arial" />
  <text
     x="1918.65"
     y="-326.38"
     id="text44"
     style="font-size:129.22999573px;line-height:125%;letter-spacing:0;word-spacing:0;font-family:Gentium Book Basic">
    <tspan
       x="1918.65"
       y="-326.38"
       id="tspan46" />
  </text>
  <text
     x="675.21002"
     y="-1658.85"
     transform="scale(4.0128,0.2492)"
     id="text48"
     style="font-size:46.95399857px;text-anchor:middle;font-family:Arial" />
  <text
     x="1529.53"
     y="-798.78003"
     id="text50"
     style="font-size:129.22999573px;line-height:125%;letter-spacing:0;word-spacing:0;font-family:Gentium Book Basic">
    <tspan
       x="1529.53"
       y="-798.78003"
       id="tspan52" />
  </text>
  <text
     x="578.23999"
     y="-3554.51"
     transform="scale(4.0128,0.2492)"
     id="text54"
     style="font-size:46.95399857px;text-anchor:middle;font-family:Arial" />
  <text
     x="2110.79"
     y="-878.78003"
     id="text56"
     style="font-size:129.22999573px;line-height:125%;letter-spacing:0;word-spacing:0;font-family:Gentium Book Basic">
    <tspan
       x="2110.79"
       y="-878.78003"
       id="tspan58" />
  </text>
  <text
     x="723.09003"
     y="-3875.54"
     transform="scale(4.0128,0.2492)"
     id="text60"
     style="font-size:46.95399857px;text-anchor:middle;font-family:Arial" />
  <text
     x="277.98999"
     y="535.94"
     id="text62"
     style="font-size:208.33000183px;line-height:125%;letter-spacing:0;word-spacing:0;font-family:Gentium Book Basic">
    <tspan
       x="277.98999"
       y="535.94"
       id="tspan64" />
  </text>
  <path
     d="m 153.88,136.34 c -6.01,0 -10.875,6.292 -10.875,14.09 v 209.13 c 0,7.764 4.862,14.03 10.875,14.03 h 13.406 V 136.34 H 153.88 m 192.88,0 v 56.09 h 22.22 v -56.09 h -22.22 m -167.16,0.531 v 236.72 H 333.94 V 136.871 H 179.6 m 78.53,58.56 c -0.932,0.809 -1.486,1.768 -1.844,2.813 0.875,-1.261 2.344,-1.938 2.344,-1.938 0,2.259 2.386,4.237 3.563,5.094 -0.235,-0.565 -0.438,-0.906 -0.438,-0.906 0.442,0.461 0.802,0.923 1.094,1.375 0.188,0.038 0.331,0.087 0.5,0.125 -0.48,-0.668 -0.844,-1.094 -0.844,-1.094 0.461,0.405 0.827,0.789 1.156,1.156 0.405,0.094 0.789,0.168 1.156,0.281 -0.207,-0.282 -0.344,-0.438 -0.344,-0.438 0.245,0.179 0.462,0.374 0.688,0.563 6.418,1.901 9.06,5.5 9.06,5.5 5.646,6.343 2.728,16.54 1.844,19.16 2.541,-0.715 0.625,6.094 0.625,6.094 -0.311,1.957 -1.117,2.799 -1.625,3.156 -1.318,9.392 -9.763,20.19 -18.656,20.19 -7.736,0 -16.283,-10.269 -17.469,-20.19 -0.499,-0.358 -1.324,-1.199 -1.625,-3.156 0.009,-0.009 -2.074,-7.371 0.938,-5.969 -2.117,-11.152 -0.531,-14.969 -0.531,-14.969 2.72,-8.423 12.09,-12.469 12.09,-12.469 2.089,-2.268 2.116,-1.49 1.938,-0.813 0.583,-0.734 1.125,-1.156 1.125,-1.156 -0.555,0.583 -0.936,1.176 -1.219,1.75 l 1.031,0.531 c 0.612,-0.998 1.281,-1.625 1.281,-1.625 -0.461,0.602 -0.84,1.173 -1.094,1.719 l 0.531,0.25 c 0.546,-1.948 2.166,-3.052 2.844,-3.438 0.903,-1.092 1.875,-1.594 1.875,-1.594 m -2.156,1.969 c -0.678,0.668 -1.112,1.463 -1.375,2.281 l 0.313,0.125 c 0.207,-0.96 0.611,-1.776 1.063,-2.406 m 90.78,1.156 v 56.06 h 22.22 v -56.06 h -22.22 m -76.34,54.09 c 0,0 0.057,2.83 8,5.625 0,0 14.928,4.714 17.375,10.125 0,0 8.132,18.55 6.25,35 0,0 -0.093,1.359 -2.813,3.063 0,0 -18.774,7.858 -44.531,7.313 0,0 -25.1,-1.254 -41.09,-8.406 0,0 -2.25,-0.549 -2.344,-5.781 -0.009,0 0.814,-22.976 7.75,-33.28 0,0 2.01,-2.693 6.719,-4.5 0,0 16.06,-4.903 17.16,-9.06 0,0 11.891,30.727 27.531,-0.094 m 76.34,8.094 v 56.06 h 22.22 v -56.06 h -22.22 m 0.031,60.47 v 54.44 h 22.22 v -54.44 h -22.22"
     inkscape:connector-curvature="0"
     id="path66"
     style="fill:#ffffff" />
</svg>
