<?xml version="1.0" encoding="UTF-8" standalone="no"?>
<!-- Created with Inkscape (http://www.inkscape.org/) -->

<svg
   xmlns:dc="http://purl.org/dc/elements/1.1/"
   xmlns:cc="http://creativecommons.org/ns#"
   xmlns:rdf="http://www.w3.org/1999/02/22-rdf-syntax-ns#"
   xmlns:svg="http://www.w3.org/2000/svg"
   xmlns="http://www.w3.org/2000/svg"
   xmlns:inkscape="http://www.inkscape.org/namespaces/inkscape"
   version="1.1"
   width="100%"
   height="100%"
   viewBox="0 0 512 512"
   id="svg2">
  <metadata
     id="metadata70">
    <rdf:RDF>
      <cc:Work
         rdf:about="">
        <dc:format>image/svg+xml</dc:format>
        <dc:type
           rdf:resource="http://purl.org/dc/dcmitype/StillImage" />
        <dc:title />
      </cc:Work>
    </rdf:RDF>
  </metadata>
  <defs
     id="defs68" />
  <path
     d="m 471.95,253.05 c 0,120.9 -98.01,218.9 -218.9,218.9 -120.9,0 -218.9,-98.01 -218.9,-218.9 0,-120.9 98.01,-218.9 218.9,-218.9 120.9,0 218.9,98.01 218.9,218.9"
     inkscape:connector-curvature="0"
     id="path4"
     style="fill:#8a704d;fill-rule:evenodd" />
  <path
     d="m 186.31,116.59 c -9.614,0 -17.438,7.823 -17.438,17.438 v 34.844 h 1 v 1 h 1 v 1 h 1 v 1 h 0.969 v 0.969 h 1 v 1 h 1 v 1 h 1 v 1 h 1 v 1 h 1 v 1 h 0.969 v 0.969 h 1 v 1 h 1 v 1 h 1 v 1 h 1 v 1 h 1 v 1 h 0.969 v 0.969 h 1 v 1 h 1 v 0.531 h -52.75 c -9.614,0 -17.438,7.792 -17.438,17.406 v 87.13 c 0,5.065 2.176,9.627 5.625,12.813 0.296,0.32 0.618,0.609 0.938,0.906 0.339,0.372 0.693,0.721 1.063,1.063 0.319,0.345 0.654,0.681 1,1 0.319,0.345 0.654,0.681 1,1 0.341,0.37 0.691,0.724 1.063,1.063 0.343,0.368 0.689,0.725 1.063,1.063 0.213,0.226 0.431,0.442 0.656,0.656 0.356,0.398 0.735,0.762 1.125,1.125 0.339,0.372 0.693,0.721 1.063,1.063 0.319,0.345 0.654,0.681 1,1 0.319,0.345 0.654,0.681 1,1 0.341,0.37 0.691,0.724 1.063,1.063 0.298,0.319 0.586,0.641 0.906,0.938 0.296,0.32 0.618,0.609 0.938,0.906 0.339,0.372 0.693,0.721 1.063,1.063 0.319,0.345 0.654,0.681 1,1 0.319,0.345 0.654,0.681 1,1 0.341,0.37 0.691,0.724 1.063,1.063 0.298,0.319 0.586,0.641 0.906,0.938 0.296,0.32 0.618,0.609 0.938,0.906 0.339,0.372 0.693,0.721 1.063,1.063 0.319,0.345 0.654,0.681 1,1 0.319,0.345 0.654,0.681 1,1 0.341,0.37 0.691,0.724 1.063,1.063 0.298,0.319 0.586,0.641 0.906,0.938 0.296,0.32 0.618,0.609 0.938,0.906 0.32,0.35 0.653,0.677 1,1 0.339,0.372 0.693,0.721 1.063,1.063 0.319,0.345 0.654,0.681 1,1 0.341,0.37 0.691,0.724 1.063,1.063 0.343,0.368 0.689,0.725 1.063,1.063 0.213,0.226 0.431,0.442 0.656,0.656 0.356,0.398 0.735,0.762 1.125,1.125 0.339,0.372 0.693,0.721 1.063,1.063 0.319,0.345 0.654,0.681 1,1 0.319,0.345 0.654,0.681 1,1 0.341,0.37 0.691,0.724 1.063,1.063 0.298,0.319 0.586,0.641 0.906,0.938 0.296,0.32 0.618,0.609 0.938,0.906 0.339,0.372 0.693,0.721 1.063,1.063 0.319,0.345 0.654,0.681 1,1 0.319,0.345 0.654,0.681 1,1 0.341,0.37 0.691,0.724 1.063,1.063 0.298,0.319 0.586,0.641 0.906,0.938 0.296,0.32 0.618,0.609 0.938,0.906 0.339,0.372 0.693,0.721 1.063,1.063 0.284,0.308 0.57,0.62 0.875,0.906 v 27.656 c 0,5.064 2.176,9.627 5.625,12.813 0.296,0.32 0.618,0.609 0.938,0.906 0.339,0.372 0.693,0.721 1.063,1.063 0.319,0.345 0.654,0.681 1,1 0.319,0.345 0.654,0.681 1,1 0.341,0.37 0.691,0.724 1.063,1.063 0.343,0.368 0.689,0.725 1.063,1.063 0.213,0.226 0.431,0.442 0.656,0.656 0.356,0.397 0.735,0.762 1.125,1.125 0.339,0.372 0.693,0.721 1.063,1.063 0.319,0.345 0.654,0.681 1,1 0.319,0.345 0.654,0.681 1,1 0.341,0.37 0.691,0.724 1.063,1.063 0.298,0.319 0.586,0.641 0.906,0.938 0.296,0.32 0.618,0.609 0.938,0.906 0.339,0.372 0.693,0.721 1.063,1.063 0.319,0.345 0.654,0.681 1,1 0.319,0.345 0.654,0.681 1,1 0.341,0.37 0.691,0.724 1.063,1.063 0.298,0.319 0.586,0.641 0.906,0.938 0.296,0.32 0.618,0.609 0.938,0.906 0.339,0.372 0.693,0.721 1.063,1.063 0.319,0.345 0.654,0.681 1,1 0.319,0.345 0.654,0.681 1,1 0.341,0.37 0.691,0.724 1.063,1.063 0.298,0.319 0.586,0.641 0.906,0.938 0.296,0.32 0.618,0.609 0.938,0.906 0.32,0.35 0.653,0.677 1,1 0.339,0.372 0.693,0.721 1.063,1.063 0.319,0.345 0.654,0.681 1,1 0.319,0.345 0.654,0.681 1,1 0.362,0.391 0.729,0.768 1.125,1.125 0.232,0.246 0.473,0.487 0.719,0.719 0.338,0.374 0.694,0.719 1.063,1.063 0.339,0.372 0.693,0.721 1.063,1.063 0.319,0.345 0.654,0.681 1,1 0.319,0.345 0.654,0.681 1,1 0.341,0.37 0.691,0.724 1.063,1.063 0.298,0.319 0.586,0.641 0.906,0.938 0.296,0.32 0.618,0.609 0.938,0.906 0.339,0.372 0.693,0.721 1.063,1.063 0.319,0.345 0.654,0.681 1,1 0.319,0.345 0.654,0.681 1,1 0.341,0.37 0.691,0.724 1.063,1.063 0.298,0.319 0.586,0.641 0.906,0.938 0.296,0.32 0.618,0.609 0.938,0.906 0.339,0.372 0.693,0.721 1.063,1.063 0.319,0.345 0.654,0.681 1,1 0.319,0.345 0.654,0.681 1,1 0.341,0.37 0.691,0.724 1.063,1.063 0.343,0.368 0.689,0.725 1.063,1.063 0.213,0.226 0.431,0.442 0.656,0.656 0.356,0.397 0.735,0.762 1.125,1.125 0.339,0.372 0.693,0.721 1.063,1.063 0.319,0.345 0.654,0.681 1,1 0.319,0.345 0.654,0.681 1,1 0.341,0.37 0.691,0.724 1.063,1.063 0.298,0.319 0.586,0.641 0.906,0.938 0.296,0.32 0.618,0.609 0.938,0.906 0.339,0.372 0.693,0.721 1.063,1.063 0.319,0.345 0.654,0.681 1,1 0.319,0.345 0.654,0.681 1,1 0.341,0.37 0.691,0.724 1.063,1.063 0.298,0.319 0.586,0.641 0.906,0.938 0.296,0.32 0.618,0.609 0.938,0.906 0.339,0.372 0.693,0.721 1.063,1.063 0.319,0.345 0.654,0.681 1,1 0.319,0.345 0.654,0.681 1,1 0.341,0.37 0.691,0.724 1.063,1.063 0.298,0.319 0.586,0.641 0.906,0.938 0.296,0.32 0.618,0.609 0.938,0.906 0.32,0.35 0.653,0.677 1,1 0.339,0.372 0.693,0.721 1.063,1.063 0.319,0.345 0.654,0.681 1,1 0.341,0.37 0.691,0.724 1.063,1.063 0.343,0.368 0.689,0.725 1.063,1.063 0.213,0.226 0.431,0.442 0.656,0.656 0.356,0.398 0.735,0.762 1.125,1.125 0.339,0.372 0.693,0.721 1.063,1.063 0.319,0.345 0.654,0.681 1,1 0.319,0.345 0.654,0.681 1,1 0.341,0.37 0.691,0.724 1.063,1.063 0.156,0.168 0.312,0.335 0.469,0.5 118.82,-1.397 214.86,-97.46 216.25,-216.28 -0.032,-0.03 -0.061,-0.064 -0.094,-0.094 -0.341,-0.37 -0.691,-0.723 -1.063,-1.063 -0.297,-0.319 -0.586,-0.641 -0.906,-0.938 -0.296,-0.321 -0.618,-0.609 -0.938,-0.906 -0.339,-0.372 -0.693,-0.721 -1.063,-1.063 -0.319,-0.346 -0.655,-0.681 -1,-1 -0.319,-0.346 -0.655,-0.681 -1,-1 -0.341,-0.37 -0.691,-0.723 -1.063,-1.063 -0.297,-0.319 -0.586,-0.641 -0.906,-0.938 -0.296,-0.321 -0.618,-0.609 -0.938,-0.906 -0.339,-0.372 -0.693,-0.721 -1.063,-1.063 -0.319,-0.346 -0.655,-0.681 -1,-1 -0.319,-0.346 -0.655,-0.681 -1,-1 -0.341,-0.37 -0.691,-0.723 -1.063,-1.063 -0.363,-0.39 -0.727,-0.769 -1.125,-1.125 -0.214,-0.225 -0.431,-0.443 -0.656,-0.656 -0.337,-0.374 -0.694,-0.719 -1.063,-1.063 -0.339,-0.372 -0.693,-0.721 -1.063,-1.063 -0.319,-0.346 -0.655,-0.681 -1,-1 -0.319,-0.346 -0.655,-0.681 -1,-1 -0.341,-0.37 -0.691,-0.723 -1.063,-1.063 -0.297,-0.319 -0.586,-0.641 -0.906,-0.938 -0.296,-0.321 -0.618,-0.609 -0.938,-0.906 -0.339,-0.372 -0.693,-0.721 -1.063,-1.063 -0.319,-0.346 -0.655,-0.681 -1,-1 -0.319,-0.346 -0.655,-0.681 -1,-1 -0.341,-0.37 -0.691,-0.723 -1.063,-1.063 -0.297,-0.319 -0.586,-0.641 -0.906,-0.938 -0.296,-0.321 -0.618,-0.609 -0.938,-0.906 -0.339,-0.372 -0.693,-0.721 -1.063,-1.063 -0.319,-0.346 -0.655,-0.681 -1,-1 -0.319,-0.346 -0.655,-0.681 -1,-1 -0.341,-0.37 -0.691,-0.723 -1.063,-1.063 -0.343,-0.368 -0.689,-0.725 -1.063,-1.063 -0.213,-0.226 -0.432,-0.442 -0.656,-0.656 -0.375,-0.42 -0.774,-0.806 -1.188,-1.188 -0.319,-0.346 -0.655,-0.681 -1,-1 -0.319,-0.346 -0.655,-0.681 -1,-1 -0.341,-0.37 -0.691,-0.723 -1.063,-1.063 -0.363,-0.39 -0.727,-0.769 -1.125,-1.125 -0.214,-0.225 -0.431,-0.443 -0.656,-0.656 -0.337,-0.374 -0.694,-0.719 -1.063,-1.063 -0.339,-0.372 -0.693,-0.721 -1.063,-1.063 -0.319,-0.346 -0.655,-0.681 -1,-1 -0.319,-0.346 -0.655,-0.681 -1,-1 -0.341,-0.37 -0.691,-0.723 -1.063,-1.063 -0.297,-0.319 -0.586,-0.641 -0.906,-0.938 -0.296,-0.321 -0.618,-0.609 -0.938,-0.906 -0.339,-0.372 -0.693,-0.721 -1.063,-1.063 -0.319,-0.346 -0.655,-0.681 -1,-1 -0.319,-0.346 -0.655,-0.681 -1,-1 -0.341,-0.37 -0.691,-0.723 -1.063,-1.063 -0.297,-0.319 -0.586,-0.641 -0.906,-0.938 -0.296,-0.321 -0.618,-0.609 -0.938,-0.906 -0.339,-0.372 -0.693,-0.721 -1.063,-1.063 -0.319,-0.346 -0.655,-0.681 -1,-1 -0.319,-0.346 -0.655,-0.681 -1,-1 -0.341,-0.37 -0.691,-0.723 -1.063,-1.063 -0.363,-0.39 -0.727,-0.769 -1.125,-1.125 -0.214,-0.225 -0.431,-0.443 -0.656,-0.656 -0.337,-0.374 -0.694,-0.719 -1.063,-1.063 -0.339,-0.372 -0.693,-0.721 -1.063,-1.063 -0.319,-0.346 -0.655,-0.681 -1,-1 -0.319,-0.346 -0.655,-0.681 -1,-1 -0.341,-0.37 -0.691,-0.723 -1.063,-1.063 -0.297,-0.319 -0.586,-0.641 -0.906,-0.938 -0.296,-0.321 -0.618,-0.609 -0.938,-0.906 -0.339,-0.372 -0.693,-0.721 -1.063,-1.063 -0.319,-0.346 -0.655,-0.681 -1,-1 -0.319,-0.346 -0.655,-0.681 -1,-1 -0.341,-0.37 -0.691,-0.723 -1.063,-1.063 -0.297,-0.319 -0.586,-0.641 -0.906,-0.938 -0.296,-0.321 -0.618,-0.609 -0.938,-0.906 -0.339,-0.372 -0.693,-0.721 -1.063,-1.063 -0.319,-0.346 -0.655,-0.681 -1,-1 -0.319,-0.346 -0.655,-0.681 -1,-1 -0.341,-0.37 -0.691,-0.723 -1.063,-1.063 -0.297,-0.319 -0.586,-0.641 -0.906,-0.938 -0.296,-0.321 -0.618,-0.609 -0.938,-0.906 -0.339,-0.372 -0.693,-0.721 -1.063,-1.063 -0.319,-0.346 -0.655,-0.681 -1,-1 -0.319,-0.346 -0.655,-0.681 -1,-1 -0.341,-0.37 -0.691,-0.723 -1.063,-1.063 -0.363,-0.39 -0.727,-0.769 -1.125,-1.125 -0.214,-0.225 -0.431,-0.443 -0.656,-0.656 -0.337,-0.374 -0.694,-0.719 -1.063,-1.063 -0.339,-0.372 -0.693,-0.721 -1.063,-1.063 -0.319,-0.346 -0.655,-0.681 -1,-1 -0.319,-0.346 -0.655,-0.681 -1,-1 -0.341,-0.37 -0.691,-0.723 -1.063,-1.063 -0.297,-0.319 -0.586,-0.641 -0.906,-0.938 -0.296,-0.321 -0.618,-0.609 -0.938,-0.906 -0.339,-0.372 -0.693,-0.721 -1.063,-1.063 -0.319,-0.346 -0.655,-0.681 -1,-1 -0.319,-0.346 -0.655,-0.681 -1,-1 -0.341,-0.37 -0.691,-0.723 -1.063,-1.063 -0.297,-0.319 -0.586,-0.641 -0.906,-0.938 -0.296,-0.321 -0.618,-0.609 -0.938,-0.906 -0.339,-0.372 -0.693,-0.721 -1.063,-1.063 -0.319,-0.346 -0.655,-0.681 -1,-1 -0.319,-0.346 -0.655,-0.681 -1,-1 -0.341,-0.37 -0.691,-0.723 -1.063,-1.063 -0.363,-0.39 -0.727,-0.769 -1.125,-1.125 -0.214,-0.225 -0.431,-0.443 -0.656,-0.656 -0.337,-0.374 -0.694,-0.719 -1.063,-1.063 -0.339,-0.372 -0.693,-0.721 -1.063,-1.063 -0.319,-0.346 -0.655,-0.681 -1,-1 -0.319,-0.346 -0.655,-0.681 -1,-1 -0.341,-0.37 -0.691,-0.723 -1.063,-1.063 -0.297,-0.319 -0.586,-0.641 -0.906,-0.938 -0.296,-0.321 -0.618,-0.609 -0.938,-0.906 -0.339,-0.372 -0.693,-0.721 -1.063,-1.063 -0.319,-0.346 -0.655,-0.681 -1,-1 -0.319,-0.346 -0.655,-0.681 -1,-1 -0.341,-0.37 -0.691,-0.723 -1.063,-1.063 -0.297,-0.319 -0.586,-0.641 -0.906,-0.938 -0.296,-0.321 -0.618,-0.609 -0.938,-0.906 -0.339,-0.372 -0.693,-0.721 -1.063,-1.063 -0.319,-0.346 -0.655,-0.681 -1,-1 -0.319,-0.346 -0.655,-0.681 -1,-1 -0.341,-0.37 -0.691,-0.723 -1.063,-1.063 -0.297,-0.319 -0.586,-0.641 -0.906,-0.938 -0.296,-0.321 -0.618,-0.609 -0.938,-0.906 -0.339,-0.372 -0.693,-0.721 -1.063,-1.063 -0.319,-0.346 -0.655,-0.681 -1,-1 -0.319,-0.346 -0.655,-0.681 -1,-1 -0.341,-0.37 -0.691,-0.723 -1.063,-1.063 -0.363,-0.39 -0.727,-0.769 -1.125,-1.125 -0.214,-0.225 -0.431,-0.443 -0.656,-0.656 -0.337,-0.374 -0.694,-0.719 -1.063,-1.063 -0.339,-0.372 -0.693,-0.721 -1.063,-1.063 -0.319,-0.346 -0.655,-0.681 -1,-1 -0.319,-0.346 -0.655,-0.681 -1,-1 -0.341,-0.37 -0.691,-0.723 -1.063,-1.063 -0.297,-0.319 -0.586,-0.641 -0.906,-0.938 -3.186,-3.449 -7.748,-5.625 -12.813,-5.625 h -139.37"
     inkscape:connector-curvature="0"
     id="path6"
     style="fill-opacity:0.23500001" />
  <path
     d="M 256,1 C 115.17,1 1,115.17 1,256 1,396.83 115.17,511 256,511 396.83,511 511,396.83 511,256 511,115.17 396.83,1 256,1 m 8.827,44.931 c 120.9,0 218.9,98 218.9,218.9 0,120.9 -98,218.9 -218.9,218.9 -120.9,0 -218.93,-98 -218.93,-218.9 0,-120.9 98.03,-218.9 218.93,-218.9"
     inkscape:connector-curvature="0"
     id="path10-4"
     style="fill-opacity:0.06700003;fill-rule:evenodd" />
  <path
     d="m 256,4.433 c -138.94,0 -251.57,112.63 -251.57,251.57 0,138.94 112.63,251.57 251.57,251.57 138.94,0 251.57,-112.63 251.57,-251.57 C 507.57,117.063 394.94,4.433 256,4.433 m 5.885,38.556 c 120.9,0 218.9,98 218.9,218.9 0,120.9 -98,218.9 -218.9,218.9 -120.9,0 -218.93,-98 -218.93,-218.9 0,-120.9 98.03,-218.9 218.93,-218.9"
     inkscape:connector-curvature="0"
     id="path14-3"
     style="fill-opacity:0.12900002;fill-rule:evenodd" />
  <path
     d="m 256,8.356 c -136.77,0 -247.64,110.87 -247.64,247.64 0,136.77 110.87,247.64 247.64,247.64 136.77,0 247.64,-110.87 247.64,-247.64 C 503.64,119.226 392.77,8.356 256,8.356 m 2.942,31.691 c 120.9,0 218.9,98 218.9,218.9 0,120.9 -98,218.9 -218.9,218.9 -120.9,0 -218.93,-98 -218.93,-218.9 0,-120.9 98.03,-218.9 218.93,-218.9"
     inkscape:connector-curvature="0"
     id="path16-9"
     style="fill-opacity:0.12900002;fill-rule:evenodd" />
  <path
     d="m 253.04,7.859 c -135.42,0 -245.19,109.78 -245.19,245.19 0,135.42 109.78,245.19 245.19,245.19 135.42,0 245.19,-109.78 245.19,-245.19 0,-135.42 -109.78,-245.19 -245.19,-245.19 z m 0,26.297 c 120.9,0 218.9,98 218.9,218.9 0,120.9 -98,218.9 -218.9,218.9 -120.9,0 -218.93,-98 -218.93,-218.9 0,-120.9 98.03,-218.9 218.93,-218.9 z"
     inkscape:connector-curvature="0"
     id="path18-7"
     style="fill:#ffffff;fill-rule:evenodd;stroke:#000000;stroke-width:4.90399981;stroke-opacity:0.31000001" />
  <text
     x="729.64001"
     y="231.36"
     id="text20-7"
     style="font-size:129.22999573px;line-height:125%;letter-spacing:0;word-spacing:0;font-family:Gentium Book Basic">
    <tspan
       x="729.64001"
       y="231.36"
       id="tspan22-1" />
  </text>
  <text
     x="378.90805"
     y="579.24701"
     transform="scale(4.0128205,0.24920128)"
     id="text24-1"
     style="font-size:46.95375824px;text-anchor:middle;font-family:Arial" />
  <text
     x="1310.91"
     y="151.36"
     id="text26-3"
     style="font-size:129.22999573px;line-height:125%;letter-spacing:0;word-spacing:0;font-family:Gentium Book Basic">
    <tspan
       x="1310.91"
       y="151.36"
       id="tspan28-5" />
  </text>
  <text
     x="523.75732"
     y="258.21869"
     transform="scale(4.0128205,0.24920128)"
     id="text30-9"
     style="font-size:46.95375824px;text-anchor:middle;font-family:Arial" />
  <text
     x="239.33"
     y="-29.900999"
     id="text32-7"
     style="font-size:129.22999573px;line-height:125%;letter-spacing:0;word-spacing:0;font-family:Gentium Book Basic">
    <tspan
       x="239.33"
       y="-29.900999"
       id="tspan34-8" />
  </text>
  <text
     x="256.71869"
     y="-469.1376"
     transform="scale(4.0128205,0.24920128)"
     id="text36-2"
     style="font-size:46.95375824px;text-anchor:middle;font-family:Arial" />
  <text
     x="1337.38"
     y="-246.37"
     id="text38-9"
     style="font-size:129.22999573px;line-height:125%;letter-spacing:0;word-spacing:0;font-family:Gentium Book Basic">
    <tspan
       x="1337.38"
       y="-246.37"
       id="tspan40-8" />
  </text>
  <text
     x="530.3573"
     y="-1337.8032"
     transform="scale(4.0128205,0.24920128)"
     id="text42-6"
     style="font-size:46.95375824px;text-anchor:middle;font-family:Arial" />
  <text
     x="1918.65"
     y="-326.38"
     id="text44-1"
     style="font-size:129.22999573px;line-height:125%;letter-spacing:0;word-spacing:0;font-family:Gentium Book Basic">
    <tspan
       x="1918.65"
       y="-326.38"
       id="tspan46-7" />
  </text>
  <text
     x="675.20654"
     y="-1658.8414"
     transform="scale(4.0128205,0.24920128)"
     id="text48-1"
     style="font-size:46.95375824px;text-anchor:middle;font-family:Arial" />
  <text
     x="1529.53"
     y="-798.78003"
     id="text50-5"
     style="font-size:129.22999573px;line-height:125%;letter-spacing:0;word-spacing:0;font-family:Gentium Book Basic">
    <tspan
       x="1529.53"
       y="-798.78003"
       id="tspan52-9" />
  </text>
  <text
     x="578.237"
     y="-3554.4917"
     transform="scale(4.0128205,0.24920128)"
     id="text54-2"
     style="font-size:46.95375824px;text-anchor:middle;font-family:Arial" />
  <text
     x="2110.79"
     y="-878.78003"
     id="text56-1"
     style="font-size:129.22999573px;line-height:125%;letter-spacing:0;word-spacing:0;font-family:Gentium Book Basic">
    <tspan
       x="2110.79"
       y="-878.78003"
       id="tspan58-2" />
  </text>
  <text
     x="723.0863"
     y="-3875.5203"
     transform="scale(4.0128205,0.24920128)"
     id="text60-9"
     style="font-size:46.95375824px;text-anchor:middle;font-family:Arial" />
  <text
     x="277.98999"
     y="535.94"
     id="text62-5"
     style="font-size:208.33000183px;line-height:125%;letter-spacing:0;word-spacing:0;font-family:Gentium Book Basic">
    <tspan
       x="277.98999"
       y="535.94"
       id="tspan64-9" />
  </text>
  <path
     d="m 186.30112,134.02528 h 139.40224 v 34.85056 h 17.42528 v -34.85056 c 0,-9.6144 -7.794,-17.42528 -17.42528,-17.42528 H 186.30112 c -9.6144,0 -17.42528,7.81088 -17.42528,17.42528 v 34.85056 h 17.42528 v -34.85056"
     inkscape:connector-curvature="0"
     id="path68"
     style="fill:#ffffff" />
  <path
     d="M 377.9792,186.30112 H 134.02528 c -9.6144,0 -17.42528,7.81088 -17.42528,17.42528 v 87.1264 c 0,9.63182 7.81088,17.42528 17.42528,17.42528 h 34.85056 v 69.70112 c 0,9.63182 7.81088,17.42528 17.42528,17.42528 h 139.40224 c 9.63182,0 17.42528,-7.794 17.42528,-17.42528 v -69.70112 h 34.85056 c 9.63182,0 17.42528,-7.794 17.42528,-17.42528 v -87.1264 c 0,-9.6144 -7.79346,-17.42528 -17.42528,-17.42528 M 325.70336,377.9792 H 186.30112 V 256.00224 H 325.70336 V 377.9792 m 34.85056,-139.40224 c -9.63182,0 -17.42528,-7.794 -17.42528,-17.42528 0,-9.6144 7.794,-17.42528 17.42528,-17.42528 9.63128,0 17.42528,7.81088 17.42528,17.42528 0,9.63182 -7.79346,17.42528 -17.42528,17.42528"
     inkscape:connector-curvature="0"
     id="path70"
     style="fill:#ffffff" />
  <path
     d="m 203.7264,273.42752 h 69.70112 V 290.8528 H 203.7264 z"
     inkscape:connector-curvature="0"
     id="path72"
     style="fill:#ffffff" />
  <path
     d="m 203.7264,308.27808 h 104.55168 v 17.42528 H 203.7264 z"
     inkscape:connector-curvature="0"
     id="path74"
     style="fill:#ffffff" />
  <path
     d="m 203.7264,343.12864 h 104.55168 v 17.42528 H 203.7264 z"
     inkscape:connector-curvature="0"
     id="path76"
     style="fill:#ffffff" />
</svg>
