<?xml version="1.0" encoding="UTF-8" standalone="no"?>
<svg
   xmlns:dc="http://purl.org/dc/elements/1.1/"
   xmlns:cc="http://creativecommons.org/ns#"
   xmlns:rdf="http://www.w3.org/1999/02/22-rdf-syntax-ns#"
   xmlns:svg="http://www.w3.org/2000/svg"
   xmlns="http://www.w3.org/2000/svg"
   xmlns:sodipodi="http://sodipodi.sourceforge.net/DTD/sodipodi-0.dtd"
   xmlns:inkscape="http://www.inkscape.org/namespaces/inkscape"
   viewBox="0 0 512 512"
   id="svg2"
   version="1.1"
   inkscape:version="0.48.5 r10040"
   width="100%"
   height="100%"
   sodipodi:docname="a base.svg">
  <sodipodi:namedview
     pagecolor="#ffffff"
     bordercolor="#666666"
     borderopacity="1"
     objecttolerance="10"
     gridtolerance="10"
     guidetolerance="10"
     inkscape:pageopacity="0"
     inkscape:pageshadow="2"
     inkscape:window-width="1307"
     inkscape:window-height="748"
     id="namedview66"
     showgrid="false"
     inkscape:zoom="0.65186406"
     inkscape:cx="367.47193"
     inkscape:cy="294.53868"
     inkscape:window-x="57"
     inkscape:window-y="-3"
     inkscape:window-maximized="1"
     inkscape:current-layer="svg2" />
  <metadata
     id="metadata70">
    <rdf:RDF>
      <cc:Work
         rdf:about="">
        <dc:format>image/svg+xml</dc:format>
        <dc:type
           rdf:resource="http://purl.org/dc/dcmitype/StillImage" />
        <dc:title></dc:title>
      </cc:Work>
    </rdf:RDF>
  </metadata>
  <defs
     id="defs68">
    <clipPath
       clipPathUnits="userSpaceOnUse"
       id="clipPath3329">
      <path
         d="m 471.9456,253.05189 c 0,120.89699 -98.00565,218.90724 -218.90724,218.90724 -120.89698,0 -218.90723,-98.00566 -218.90723,-218.90724 0,-120.89698 98.00565,-218.907232 218.90723,-218.907232 120.89699,0 218.90724,98.005652 218.90724,218.907232"
         id="path3331"
         inkscape:connector-curvature="0"
         style="fill:#924565;fill-rule:evenodd" />
    </clipPath>
  </defs>
  <path
     style="fill:#924565;fill-rule:evenodd"
     inkscape:connector-curvature="0"
     id="path8"
     d="m 471.9456,253.05189 c 0,120.89699 -98.00565,218.90724 -218.90724,218.90724 -120.89698,0 -218.90723,-98.00566 -218.90723,-218.90724 0,-120.89698 98.00565,-218.907232 218.90723,-218.907232 120.89699,0 218.90724,98.005652 218.90724,218.907232" />
  <path
     style="fill-opacity:0.06700003;fill-rule:evenodd"
     inkscape:connector-curvature="0"
     id="path10"
     d="M 256,1 C 115.17,1 1,115.17 1,256 1,396.83 115.17,511 256,511 396.83,511 511,396.83 511,256 511,115.17 396.83,1 256,1 m 8.827,44.931 c 120.9,0 218.9,98 218.9,218.9 0,120.9 -98,218.9 -218.9,218.9 -120.9,0 -218.93,-98 -218.93,-218.9 0,-120.9 98.03,-218.9 218.93,-218.9" />
  <path
     d="M 256,4.43 C 117.06,4.43 4.43,117.06 4.43,256 4.43,394.94 117.06,507.57 256,507.57 394.94,507.57 507.57,394.94 507.57,256 507.57,117.06 394.94,4.43 256,4.43 m 5.885,38.556 c 120.9,0 218.9,98 218.9,218.9 0,120.9 -98,218.9 -218.9,218.9 -120.9,0 -218.93,-98 -218.93,-218.9 0,-120.9 98.03,-218.9 218.93,-218.9"
     id="path14"
     inkscape:connector-curvature="0"
     style="fill-opacity:0.12900002;fill-rule:evenodd" />
  <path
     d="M 256,8.36 C 119.23,8.36 8.36,119.23 8.36,256 8.36,392.77 119.23,503.64 256,503.64 392.77,503.64 503.64,392.77 503.64,256 503.64,119.23 392.77,8.36 256,8.36 m 2.942,31.691 c 120.9,0 218.9,98 218.9,218.9 0,120.9 -98,218.9 -218.9,218.9 -120.9,0 -218.93,-98 -218.93,-218.9 0,-120.9 98.03,-218.9 218.93,-218.9"
     id="path16"
     inkscape:connector-curvature="0"
     style="fill-opacity:0.12900002;fill-rule:evenodd" />
  <path
     style="fill:#ffffff;fill-rule:evenodd;stroke:#000000;stroke-width:4.90399981;stroke-opacity:0.31000001"
     inkscape:connector-curvature="0"
     id="path18"
     d="M 253.04,7.86 C 117.62,7.86 7.85,117.64 7.85,253.05 c 0,135.42 109.78,245.19 245.19,245.19 135.42,0 245.19,-109.78 245.19,-245.19 C 498.23,117.63 388.45,7.86 253.04,7.86 z m 0,26.297 c 120.9,0 218.9,98 218.9,218.9 0,120.9 -98,218.9 -218.9,218.9 -120.9,0 -218.93,-98 -218.93,-218.9 0,-120.9 98.03,-218.9 218.93,-218.9 z" />
  <text
     font-size="129.23"
     letter-spacing="0"
     line-height="125%"
     word-spacing="0"
     x="729.64001"
     y="231.35997"
     id="text20"
     sodipodi:linespacing="125%"
     style="font-size:129.22999573px;line-height:125%;letter-spacing:0;word-spacing:0;font-family:Gentium Book Basic">
    <tspan
       x="729.64001"
       y="231.35997"
       id="tspan22" />
  </text>
  <text
     x="378.90805"
     y="579.25812"
     font-size="46.954"
     transform="scale(4.0128205,0.24920128)"
     id="text24"
     style="font-size:46.95375824px;text-anchor:middle;font-family:Arial" />
  <text
     font-size="129.23"
     letter-spacing="0"
     line-height="125%"
     word-spacing="0"
     x="1310.91"
     y="151.35997"
     id="text26"
     sodipodi:linespacing="125%"
     style="font-size:129.22999573px;line-height:125%;letter-spacing:0;word-spacing:0;font-family:Gentium Book Basic">
    <tspan
       x="1310.91"
       y="151.35997"
       id="tspan28" />
  </text>
  <text
     x="523.75732"
     y="258.21997"
     font-size="46.954"
     transform="scale(4.0128205,0.24920128)"
     id="text30"
     style="font-size:46.95375824px;text-anchor:middle;font-family:Arial" />
  <text
     font-size="129.23"
     letter-spacing="0"
     line-height="125%"
     word-spacing="0"
     x="239.33"
     y="-29.900009"
     id="text32"
     sodipodi:linespacing="125%"
     style="font-size:129.22999573px;line-height:125%;letter-spacing:0;word-spacing:0;font-family:Gentium Book Basic">
    <tspan
       x="239.33"
       y="-29.900009"
       id="tspan34" />
  </text>
  <text
     x="256.71869"
     y="-469.1264"
     font-size="46.954"
     transform="scale(4.0128205,0.24920128)"
     id="text36"
     style="font-size:46.95375824px;text-anchor:middle;font-family:Arial" />
  <text
     font-size="129.23"
     letter-spacing="0"
     line-height="125%"
     word-spacing="0"
     x="1337.38"
     y="-246.37001"
     id="text38"
     sodipodi:linespacing="125%"
     style="font-size:129.22999573px;line-height:125%;letter-spacing:0;word-spacing:0;font-family:Gentium Book Basic">
    <tspan
       x="1337.38"
       y="-246.37001"
       id="tspan40" />
  </text>
  <text
     x="530.3573"
     y="-1337.802"
     font-size="46.954"
     transform="scale(4.0128205,0.24920128)"
     id="text42"
     style="font-size:46.95375824px;text-anchor:middle;font-family:Arial" />
  <text
     font-size="129.23"
     letter-spacing="0"
     line-height="125%"
     word-spacing="0"
     x="1918.65"
     y="-326.37"
     id="text44"
     sodipodi:linespacing="125%"
     style="font-size:129.22999573px;line-height:125%;letter-spacing:0;word-spacing:0;font-family:Gentium Book Basic">
    <tspan
       x="1918.65"
       y="-326.37"
       id="tspan46" />
  </text>
  <text
     x="675.20654"
     y="-1658.8303"
     font-size="46.954"
     transform="scale(4.0128205,0.24920128)"
     id="text48"
     style="font-size:46.95375824px;text-anchor:middle;font-family:Arial" />
  <text
     font-size="129.23"
     letter-spacing="0"
     line-height="125%"
     word-spacing="0"
     x="1529.53"
     y="-798.77002"
     id="text50"
     sodipodi:linespacing="125%"
     style="font-size:129.22999573px;line-height:125%;letter-spacing:0;word-spacing:0;font-family:Gentium Book Basic">
    <tspan
       x="1529.53"
       y="-798.77002"
       id="tspan52" />
  </text>
  <text
     x="578.237"
     y="-3554.4807"
     font-size="46.954"
     transform="scale(4.0128205,0.24920128)"
     id="text54"
     style="font-size:46.95375824px;text-anchor:middle;font-family:Arial" />
  <text
     font-size="129.23"
     letter-spacing="0"
     line-height="125%"
     word-spacing="0"
     x="2110.79"
     y="-878.78003"
     id="text56"
     sodipodi:linespacing="125%"
     style="font-size:129.22999573px;line-height:125%;letter-spacing:0;word-spacing:0;font-family:Gentium Book Basic">
    <tspan
       x="2110.79"
       y="-878.78003"
       id="tspan58" />
  </text>
  <text
     x="723.0863"
     y="-3875.519"
     font-size="46.954"
     transform="scale(4.0128205,0.24920128)"
     id="text60"
     style="font-size:46.95375824px;text-anchor:middle;font-family:Arial" />
  <text
     font-size="208.33"
     letter-spacing="0"
     line-height="125%"
     word-spacing="0"
     x="277.98999"
     y="535.94006"
     id="text62"
     sodipodi:linespacing="125%"
     style="font-size:208.33000183px;line-height:125%;letter-spacing:0;word-spacing:0;font-family:Gentium Book Basic">
    <tspan
       x="277.98999"
       y="535.94006"
       id="tspan64" />
  </text>
  <g
     style="fill:#000000;opacity:0.25"
     id="g3141"
     clip-path="url(#clipPath3329)">
    <path
       inkscape:connector-curvature="0"
       d="m 241.16715,93.528451 c -18.1134,0.516447 -36.24596,12.113169 -50.22985,27.360299 l 388.90873,388.90873 c 13.98389,-15.24713 32.11645,-26.84385 50.22985,-27.3603 z"
       id="path3143"
       style="fill:#000000" />
    <path
       inkscape:connector-curvature="0"
       d="m 190.9373,120.88875 c -30.80091,34.52692 -44.45774,89.3559 -51.53272,117.72967 l 388.90873,388.90873 c 7.07498,-28.37377 20.73181,-83.20275 51.53272,-117.72967 z"
       id="path3145"
       style="fill:#000000" />
    <path
       inkscape:connector-curvature="0"
       d="m 139.40458,238.61842 c -10.96668,46.12968 -13.65244,89.34698 -9.06466,120.88982 l 388.90873,388.90873 c -4.58778,-31.54284 -1.90202,-74.76014 9.06466,-120.88982 z"
       id="path3147"
       style="fill:#000000" />
    <path
       inkscape:connector-curvature="0"
       d="m 130.33992,359.50824 c 2.97898,18.67213 10.64345,32.4884 20.19062,42.03557 l 388.90873,388.90873 c -9.54717,-9.54717 -17.21164,-23.36344 -20.19062,-42.03557 z"
       id="path3149"
       style="fill:#000000" />
    <path
       inkscape:connector-curvature="0"
       d="m 150.53054,401.54381 c 13.39659,13.39659 30.50016,18.38743 43.56692,16.59364 l 388.90873,388.90873 c -13.06676,1.79379 -30.17033,-3.19705 -43.56692,-16.59364 z"
       id="path3151"
       style="fill:#000000" />
    <path
       inkscape:connector-curvature="0"
       d="M 194.09746,418.13745 C 407.17278,351.05877 452.83026,294.9896 269.02642,102.92576 L 657.93515,491.83449 C 841.73899,683.89833 796.08151,739.9675 583.00619,807.04618 z"
       id="path3153"
       style="fill:#000000" />
    <path
       inkscape:connector-curvature="0"
       d="m 269.02642,102.92576 c -8.89228,-6.893499 -18.3713,-9.667829 -27.85927,-9.397309 L 630.07588,482.43718 c 9.48797,-0.27052 18.96699,2.50381 27.85927,9.39731 z"
       id="path3155"
       style="fill:#000000" />
    <path
       inkscape:connector-curvature="0"
       d="m 238.31192,120.99963 c 0.54011,0.002 1.07425,0.0738 1.58008,0.19404 L 628.80073,510.1024 c -0.50583,-0.12024 -1.03997,-0.19204 -1.58008,-0.19404 z"
       id="path3157"
       style="fill:#000000" />
    <path
       inkscape:connector-curvature="0"
       d="m 239.892,121.19367 c 1.61525,0.38401 3.12134,1.4467 4.45328,2.77863 l 388.90873,388.90873 c -1.33194,-1.33193 -2.83803,-2.39462 -4.45328,-2.77863 z"
       id="path3159"
       style="fill:#000000" />
    <path
       inkscape:connector-curvature="0"
       d="m 244.34528,123.9723 c 2.00634,2.00634 3.61751,4.62361 4.61137,6.45236 l 388.90873,388.90873 c -0.99386,-1.82875 -2.60503,-4.44602 -4.61137,-6.45236 z"
       id="path3161"
       style="fill:#000000" />
    <path
       inkscape:connector-curvature="0"
       d="m 248.95665,130.42466 c 4.0065,7.36324 6.9999,18.0608 8.67657,30.93626 l 388.90873,388.90873 c -1.67667,-12.87546 -4.67007,-23.57302 -8.67657,-30.93626 z"
       id="path3163"
       style="fill:#000000" />
    <path
       inkscape:connector-curvature="0"
       d="m 257.63322,161.36092 c 3.75364,28.80756 0.88576,65.53541 -8.12215,103.4258 L 638.4198,653.69545 c 9.00791,-37.89039 11.87579,-74.61824 8.12215,-103.4258 z"
       id="path3165"
       style="fill:#000000" />
    <path
       inkscape:connector-curvature="0"
       d="m 249.51107,264.78672 c -9.00852,37.89298 -22.96391,71.98907 -39.28019,96.02439 l 388.90873,388.90873 c 16.31628,-24.03532 30.27167,-58.13141 39.28019,-96.02439 z"
       id="path3167"
       style="fill:#000000" />
    <path
       inkscape:connector-curvature="0"
       d="m 210.23088,360.81111 c -7.29365,10.7438 -14.81284,18.98443 -21.70528,23.75661 l 388.90873,388.90873 c 6.89244,-4.77218 14.41163,-13.01281 21.70528,-23.75661 z"
       id="path3169"
       style="fill:#000000" />
    <path
       inkscape:connector-curvature="0"
       d="m 188.5256,384.56772 c -2.84547,1.97044 -8.17644,5.12054 -12.22481,4.1581 l 388.90873,388.90873 c 4.04837,0.96244 9.37934,-2.18766 12.22481,-4.1581 z"
       id="path3171"
       style="fill:#000000" />
    <path
       inkscape:connector-curvature="0"
       d="m 176.30079,388.72582 c -1.62497,-0.38631 -3.144,-1.45965 -4.48718,-2.80283 l 388.90873,388.90873 c 1.34318,1.34318 2.86221,2.41652 4.48718,2.80283 z"
       id="path3173"
       style="fill:#000000" />
    <path
       inkscape:connector-curvature="0"
       d="m 171.81361,385.92299 c -2.00388,-2.00388 -3.61635,-4.60836 -4.6052,-6.42815 l 388.90873,388.90873 c 0.98885,1.81979 2.60132,4.42427 4.6052,6.42815 z"
       id="path3175"
       style="fill:#000000" />
    <path
       inkscape:connector-curvature="0"
       d="m 167.20841,379.49484 c -4.00563,-7.36304 -7.00096,-18.08786 -8.67657,-30.96399 l 388.90873,388.90873 c 1.67561,12.87613 4.67094,23.60095 8.67657,30.96399 z"
       id="path3177"
       style="fill:#000000" />
    <path
       inkscape:connector-curvature="0"
       d="m 158.53184,348.53085 c -3.75409,-28.80949 -0.88493,-65.53886 8.12216,-103.4258 l 388.90873,388.90873 c -9.00709,37.88694 -11.87625,74.61631 -8.12216,103.4258 z"
       id="path3179"
       style="fill:#000000" />
    <path
       inkscape:connector-curvature="0"
       d="m 166.654,245.10505 c 9.0079,-37.89039 22.96303,-71.98928 39.28018,-96.02439 l 388.90873,388.90873 c -16.31715,24.03511 -30.27228,58.134 -39.28018,96.02439 z"
       id="path3181"
       style="fill:#000000" />
    <path
       inkscape:connector-curvature="0"
       d="m 205.93418,149.08066 c 7.29279,-10.74401 14.78406,-18.95605 21.67756,-23.72889 L 616.52047,514.2605 c -6.8935,4.77284 -14.38477,12.98488 -21.67756,23.72889 z"
       id="path3183"
       style="fill:#000000" />
    <path
       inkscape:connector-curvature="0"
       d="m 227.61174,125.35177 c 2.4877,-1.72543 6.91936,-4.36359 10.70018,-4.35214 l 388.90873,388.90873 c -3.78082,-0.0115 -8.21248,2.62671 -10.70018,4.35214 z"
       id="path3185"
       style="fill:#000000" />
    <path
       inkscape:connector-curvature="0"
       d="m 219.73907,203.33001 c -1.4573,-0.004 -3.17134,0.99849 -4.13038,1.66324 l 388.90873,388.90873 c 0.95904,-0.66475 2.67308,-1.66724 4.13038,-1.66324 z"
       id="path3187"
       style="fill:#000000" />
    <path
       inkscape:connector-curvature="0"
       d="m 215.60869,204.99325 c -2.6583,1.83896 -5.56163,5.00619 -8.37164,9.14782 L 596.14578,603.0498 c 2.81001,-4.14163 5.71334,-7.30886 8.37164,-9.14782 z"
       id="path3189"
       style="fill:#000000" />
    <path
       inkscape:connector-curvature="0"
       d="m 207.23705,214.14107 c -6.28878,9.26307 -11.66362,22.40325 -15.13548,37.00709 L 581.0103,640.05689 c 3.47186,-14.60384 8.8467,-27.74402 15.13548,-37.00709 z"
       id="path3191"
       style="fill:#000000" />
    <path
       inkscape:connector-curvature="0"
       d="m 192.10157,251.14816 c -3.47165,14.60297 -4.57946,28.75925 -3.13244,39.86231 L 577.87786,679.9192 c -1.44702,-11.10306 -0.33921,-25.25934 3.13244,-39.86231 z"
       id="path3193"
       style="fill:#000000" />
    <path
       inkscape:connector-curvature="0"
       d="m 188.96913,291.01047 c 0.64569,4.96226 1.81136,9.08217 3.3542,11.91989 l 388.90873,388.90873 c -1.54284,-2.83772 -2.70851,-6.95763 -3.3542,-11.91989 z"
       id="path3195"
       style="fill:#000000" />
    <path
       inkscape:connector-curvature="0"
       d="m 192.32333,302.93036 c 0.38554,0.70929 1.01215,1.73425 1.79301,2.51511 L 583.02507,694.3542 c -0.78086,-0.78086 -1.40747,-1.80582 -1.79301,-2.51511 z"
       id="path3197"
       style="fill:#000000" />
    <path
       inkscape:connector-curvature="0"
       d="m 194.11634,305.44547 c 0.50907,0.50907 1.08368,0.91438 1.6998,1.06086 l 388.90873,388.90873 c -0.61612,-0.14648 -1.19073,-0.55179 -1.6998,-1.06086 z"
       id="path3199"
       style="fill:#000000" />
    <path
       inkscape:connector-curvature="0"
       d="m 195.81614,306.50633 c 1.56204,0.37135 3.64247,-0.8485 4.74023,-1.6078 L 589.4651,693.80726 c -1.09776,0.7593 -3.17819,1.97915 -4.74023,1.6078 z"
       id="path3201"
       style="fill:#000000" />
    <path
       inkscape:connector-curvature="0"
       d="m 200.55637,304.89853 c 2.65743,-1.83916 5.53326,-5.00727 8.34392,-9.14782 l 388.90873,388.90873 c -2.81066,4.14055 -5.68649,7.30866 -8.34392,9.14782 z"
       id="path3203"
       style="fill:#000000" />
    <path
       inkscape:connector-curvature="0"
       d="m 208.90029,295.75071 c 6.28813,-9.26414 11.66362,-22.40326 15.13548,-37.00709 L 612.9445,647.65235 c -3.47186,14.60383 -8.84735,27.74295 -15.13548,37.00709 z"
       id="path3205"
       style="fill:#000000" />
    <path
       inkscape:connector-curvature="0"
       d="m 224.03577,258.74362 c 3.47186,-14.60383 4.60632,-28.75946 3.16016,-39.86232 l 388.90873,388.90873 c 1.44616,11.10286 0.3117,25.25849 -3.16016,39.86232 z"
       id="path3207"
       style="fill:#000000" />
    <path
       inkscape:connector-curvature="0"
       d="m 227.19593,218.8813 c -0.64655,-4.96246 -1.81137,-9.08216 -3.3542,-11.91989 l 388.90873,388.90873 c 1.54283,2.83773 2.70765,6.95743 3.3542,11.91989 z"
       id="path3209"
       style="fill:#000000" />
    <path
       inkscape:connector-curvature="0"
       d="m 223.84173,206.96141 c -0.38257,-0.70292 -1.00995,-1.71421 -1.78751,-2.49176 l 388.90873,388.90872 c 0.77756,0.77756 1.40494,1.78885 1.78751,2.49177 z"
       id="path3211"
       style="fill:#000000" />
    <path
       inkscape:connector-curvature="0"
       d="m 222.05422,204.46965 c -0.51995,-0.51996 -1.10705,-0.93539 -1.73301,-1.0842 l 388.90873,388.90873 c 0.62596,0.14881 1.21306,0.56424 1.73301,1.08419 z"
       id="path3213"
       style="fill:#000000" />
    <path
       inkscape:connector-curvature="0"
       d="m 220.32121,203.38545 c -0.19504,-0.0464 -0.37395,-0.0547 -0.58214,-0.0554 L 608.6478,592.23878 c 0.20819,7e-4 0.3871,0.009 0.58214,0.0554 z"
       id="path3215"
       style="fill:#000000" />
  </g>
  <path
     d="m 241.16715,93.528451 c -18.1134,0.516447 -36.24596,12.113169 -50.22985,27.360299 -30.80091,34.52692 -44.45774,89.3559 -51.53272,117.72967 -10.96668,46.12968 -13.65244,89.34698 -9.06466,120.88982 7.15909,44.8729 41.37867,61.70135 63.75754,58.62921 213.07532,-67.07868 258.7328,-123.14785 74.92896,-315.21169 -8.89228,-6.893499 -18.3713,-9.667829 -27.85927,-9.397309 z m -2.85523,27.471179 c 0.54011,0.002 1.07425,0.0738 1.58008,0.19404 4.04837,0.96245 7.41101,6.18821 9.06465,9.23099 4.0065,7.36324 6.9999,18.0608 8.67657,30.93626 3.75364,28.80756 0.88576,65.53541 -8.12215,103.4258 -9.00852,37.89298 -22.96391,71.98907 -39.28019,96.02439 -7.29365,10.7438 -14.81284,18.98443 -21.70528,23.75661 -2.84547,1.97044 -8.17644,5.12054 -12.22481,4.1581 -4.04924,-0.96265 -7.44071,-6.1914 -9.09238,-9.23098 -4.00563,-7.36304 -7.00096,-18.08786 -8.67657,-30.96399 -3.75409,-28.80949 -0.88493,-65.53886 8.12216,-103.4258 9.0079,-37.89039 22.96303,-71.98928 39.28018,-96.02439 7.29279,-10.74401 14.78406,-18.95605 21.67756,-23.72889 2.4877,-1.72543 6.91936,-4.36359 10.70018,-4.35214 z m -18.57285,82.33038 c -1.4573,-0.004 -3.17134,0.99849 -4.13038,1.66324 -2.6583,1.83896 -5.56163,5.00619 -8.37164,9.14782 -6.28878,9.26307 -11.66362,22.40325 -15.13548,37.00709 -3.47165,14.60297 -4.57946,28.75925 -3.13244,39.86231 0.64569,4.96226 1.81136,9.08217 3.3542,11.91989 0.63688,1.17169 1.93162,3.20481 3.49281,3.57597 1.56204,0.37135 3.64247,-0.8485 4.74023,-1.6078 2.65743,-1.83916 5.53326,-5.00727 8.34392,-9.14782 6.28813,-9.26414 11.66362,-22.40326 15.13548,-37.00709 3.47186,-14.60383 4.60632,-28.75946 3.16016,-39.86232 -0.64655,-4.96246 -1.81137,-9.08216 -3.3542,-11.91989 -0.6384,-1.17296 -1.95848,-3.20461 -3.52052,-3.57596 -0.19504,-0.0464 -0.37395,-0.0547 -0.58214,-0.0554 z"
     id="path3065"
     style="fill:#ffffff"
     inkscape:connector-curvature="0" />
</svg>
