<?xml version="1.0" encoding="UTF-8" standalone="no"?>
<!-- Created with Inkscape (http://www.inkscape.org/) -->

<svg
   xmlns:dc="http://purl.org/dc/elements/1.1/"
   xmlns:cc="http://creativecommons.org/ns#"
   xmlns:rdf="http://www.w3.org/1999/02/22-rdf-syntax-ns#"
   xmlns:svg="http://www.w3.org/2000/svg"
   xmlns="http://www.w3.org/2000/svg"
   xmlns:inkscape="http://www.inkscape.org/namespaces/inkscape"
   version="1.1"
   width="100%"
   height="100%"
   viewBox="0 0 512 512"
   id="svg2">
  <metadata
     id="metadata70">
    <rdf:RDF>
      <cc:Work
         rdf:about="">
        <dc:format>image/svg+xml</dc:format>
        <dc:type
           rdf:resource="http://purl.org/dc/dcmitype/StillImage" />
        <dc:title />
      </cc:Work>
    </rdf:RDF>
  </metadata>
  <defs
     id="defs68">
    <clipPath
       id="clipPath3637">
      <path
         d="m 471.95,253.05 c 0,120.9 -98.01,218.9 -218.9,218.9 -120.9,0 -218.9,-98.01 -218.9,-218.9 0,-120.9 98.01,-218.9 218.9,-218.9 120.9,0 218.9,98.01 218.9,218.9"
         inkscape:connector-curvature="0"
         id="path3639"
         style="fill:#2480c9;fill-opacity:1;fill-rule:evenodd" />
    </clipPath>
  </defs>
  <path
     d="m 471.95,253.05 c 0,120.9 -98.01,218.9 -218.9,218.9 -120.9,0 -218.9,-98.01 -218.9,-218.9 0,-120.9 98.01,-218.9 218.9,-218.9 120.9,0 218.9,98.01 218.9,218.9"
     inkscape:connector-curvature="0"
     id="path4"
     style="fill:#2480c9;fill-opacity:1;fill-rule:evenodd" />
  <path
     d="M 256,1 C 115.17,1 1,115.17 1,256 1,396.83 115.17,511 256,511 396.83,511 511,396.83 511,256 511,115.17 396.83,1 256,1 m 8.827,44.931 c 120.9,0 218.9,98 218.9,218.9 0,120.9 -98,218.9 -218.9,218.9 -120.9,0 -218.93,-98 -218.93,-218.9 0,-120.9 98.03,-218.9 218.93,-218.9"
     inkscape:connector-curvature="0"
     id="path10-4"
     style="fill-opacity:0.06700003;fill-rule:evenodd" />
  <path
     d="m 256,4.433 c -138.94,0 -251.57,112.63 -251.57,251.57 0,138.94 112.63,251.57 251.57,251.57 138.94,0 251.57,-112.63 251.57,-251.57 C 507.57,117.063 394.94,4.433 256,4.433 m 5.885,38.556 c 120.9,0 218.9,98 218.9,218.9 0,120.9 -98,218.9 -218.9,218.9 -120.9,0 -218.93,-98 -218.93,-218.9 0,-120.9 98.03,-218.9 218.93,-218.9"
     inkscape:connector-curvature="0"
     id="path14-3"
     style="fill-opacity:0.12900002;fill-rule:evenodd" />
  <path
     d="m 256,8.356 c -136.77,0 -247.64,110.87 -247.64,247.64 0,136.77 110.87,247.64 247.64,247.64 136.77,0 247.64,-110.87 247.64,-247.64 C 503.64,119.226 392.77,8.356 256,8.356 m 2.942,31.691 c 120.9,0 218.9,98 218.9,218.9 0,120.9 -98,218.9 -218.9,218.9 -120.9,0 -218.93,-98 -218.93,-218.9 0,-120.9 98.03,-218.9 218.93,-218.9"
     inkscape:connector-curvature="0"
     id="path16-9"
     style="fill-opacity:0.12900002;fill-rule:evenodd" />
  <path
     d="m 253.04,7.859 c -135.42,0 -245.19,109.78 -245.19,245.19 0,135.42 109.78,245.19 245.19,245.19 135.42,0 245.19,-109.78 245.19,-245.19 0,-135.42 -109.78,-245.19 -245.19,-245.19 z m 0,26.297 c 120.9,0 218.9,98 218.9,218.9 0,120.9 -98,218.9 -218.9,218.9 -120.9,0 -218.93,-98 -218.93,-218.9 0,-120.9 98.03,-218.9 218.93,-218.9 z"
     inkscape:connector-curvature="0"
     id="path18-7"
     style="fill:#ffffff;fill-rule:evenodd;stroke:#000000;stroke-width:4.90399981;stroke-opacity:0.31000001" />
  <text
     x="729.64001"
     y="231.36"
     id="text20-7"
     style="font-size:129.22999573px;line-height:125%;letter-spacing:0;word-spacing:0;font-family:Gentium Book Basic">
    <tspan
       x="729.64001"
       y="231.36"
       id="tspan22-1" />
  </text>
  <text
     x="378.90805"
     y="579.24701"
     transform="scale(4.0128205,0.24920128)"
     id="text24-1"
     style="font-size:46.95375824px;text-anchor:middle;font-family:Arial" />
  <text
     x="1310.91"
     y="151.36"
     id="text26-3"
     style="font-size:129.22999573px;line-height:125%;letter-spacing:0;word-spacing:0;font-family:Gentium Book Basic">
    <tspan
       x="1310.91"
       y="151.36"
       id="tspan28-5" />
  </text>
  <text
     x="523.75732"
     y="258.21869"
     transform="scale(4.0128205,0.24920128)"
     id="text30-9"
     style="font-size:46.95375824px;text-anchor:middle;font-family:Arial" />
  <text
     x="239.33"
     y="-29.900999"
     id="text32-7"
     style="font-size:129.22999573px;line-height:125%;letter-spacing:0;word-spacing:0;font-family:Gentium Book Basic">
    <tspan
       x="239.33"
       y="-29.900999"
       id="tspan34-8" />
  </text>
  <text
     x="256.71869"
     y="-469.1376"
     transform="scale(4.0128205,0.24920128)"
     id="text36-2"
     style="font-size:46.95375824px;text-anchor:middle;font-family:Arial" />
  <text
     x="1337.38"
     y="-246.37"
     id="text38-9"
     style="font-size:129.22999573px;line-height:125%;letter-spacing:0;word-spacing:0;font-family:Gentium Book Basic">
    <tspan
       x="1337.38"
       y="-246.37"
       id="tspan40-8" />
  </text>
  <text
     x="530.3573"
     y="-1337.8032"
     transform="scale(4.0128205,0.24920128)"
     id="text42-6"
     style="font-size:46.95375824px;text-anchor:middle;font-family:Arial" />
  <text
     x="1918.65"
     y="-326.38"
     id="text44-1"
     style="font-size:129.22999573px;line-height:125%;letter-spacing:0;word-spacing:0;font-family:Gentium Book Basic">
    <tspan
       x="1918.65"
       y="-326.38"
       id="tspan46-7" />
  </text>
  <text
     x="675.20654"
     y="-1658.8414"
     transform="scale(4.0128205,0.24920128)"
     id="text48-1"
     style="font-size:46.95375824px;text-anchor:middle;font-family:Arial" />
  <text
     x="1529.53"
     y="-798.78003"
     id="text50-5"
     style="font-size:129.22999573px;line-height:125%;letter-spacing:0;word-spacing:0;font-family:Gentium Book Basic">
    <tspan
       x="1529.53"
       y="-798.78003"
       id="tspan52-9" />
  </text>
  <text
     x="578.237"
     y="-3554.4917"
     transform="scale(4.0128205,0.24920128)"
     id="text54-2"
     style="font-size:46.95375824px;text-anchor:middle;font-family:Arial" />
  <text
     x="2110.79"
     y="-878.78003"
     id="text56-1"
     style="font-size:129.22999573px;line-height:125%;letter-spacing:0;word-spacing:0;font-family:Gentium Book Basic">
    <tspan
       x="2110.79"
       y="-878.78003"
       id="tspan58-2" />
  </text>
  <text
     x="723.0863"
     y="-3875.5203"
     transform="scale(4.0128205,0.24920128)"
     id="text60-9"
     style="font-size:46.95375824px;text-anchor:middle;font-family:Arial" />
  <text
     x="277.98999"
     y="535.94"
     id="text62-5"
     style="font-size:208.33000183px;line-height:125%;letter-spacing:0;word-spacing:0;font-family:Gentium Book Basic">
    <tspan
       x="277.98999"
       y="535.94"
       id="tspan64-9" />
  </text>
  <g
     clip-path="url(#clipPath3637)"
     id="g3384"
     style="opacity:0.25;color:#000000;fill:#000000;fill-opacity:1;fill-rule:nonzero;stroke:none;stroke-width:3;marker:none;visibility:visible;display:inline;overflow:visible;enable-background:accumulate">
    <path
       d="M 256,95.963545 C 167.61426,95.963545 95.963545,167.61426 95.963545,256 L 484.87227,644.90873 c 0,-88.38574 71.65072,-160.03646 160.03646,-160.03646 z"
       inkscape:connector-curvature="0"
       id="path3386"
       style="fill:#000000" />
    <path
       d="m 95.963545,256 c 0,44.19283 17.912685,84.20196 46.873595,113.16286 l 388.90873,388.90873 c -28.96091,-28.9609 -46.8736,-68.97003 -46.8736,-113.16286 z"
       inkscape:connector-curvature="0"
       id="path3388"
       style="fill:#000000" />
    <path
       d="m 142.83714,369.16286 c 28.96089,28.9609 68.97,46.87359 113.16286,46.87359 l 388.90873,388.90873 c -44.19286,0 -84.20197,-17.91269 -113.16286,-46.87359 z"
       inkscape:connector-curvature="0"
       id="path3390"
       style="fill:#000000" />
    <path
       d="m 256,416.03645 c 23.15332,0 45.14546,-4.94459 65.0148,-13.79108 L 709.92353,791.1541 c -19.86934,8.84649 -41.86148,13.79108 -65.0148,13.79108 z"
       inkscape:connector-curvature="0"
       id="path3392"
       style="fill:#000000" />
    <path
       d="m 321.0148,402.24537 -13.79108,-30.91613 388.90873,388.90873 13.79108,30.91613 z"
       inkscape:connector-curvature="0"
       id="path3394"
       style="fill:#000000" />
    <path
       d="M 307.22372,371.32924 C 291.58182,378.28553 274.22305,382.0893 256,382.0893 l 388.90873,388.90873 c 18.22305,0 35.58182,-3.80377 51.22372,-10.76006 z"
       inkscape:connector-curvature="0"
       id="path3396"
       style="fill:#000000" />
    <path
       d="m 256,382.0893 c -34.81865,0 -66.34101,-14.11304 -89.1587,-36.93074 l 388.90873,388.90873 c 22.81769,22.8177 54.34005,36.93074 89.1587,36.93074 z"
       inkscape:connector-curvature="0"
       id="path3398"
       style="fill:#000000" />
    <path
       d="M 166.8413,345.15856 C 144.02362,322.34089 129.9106,290.81857 129.9106,256 l 388.90873,388.90873 c 0,34.81857 14.11302,66.34089 36.9307,89.15856 z"
       inkscape:connector-curvature="0"
       id="path3400"
       style="fill:#000000" />
    <path
       d="m 129.9106,256 c 0,-69.63727 56.45213,-126.08939 126.0894,-126.08939 l 388.90873,388.90873 c -69.63727,0 -126.0894,56.45212 -126.0894,126.08939 z"
       inkscape:connector-curvature="0"
       id="path3402"
       style="fill:#000000" />
    <path
       d="m 256,129.91061 c 34.81857,0 66.34089,14.11302 89.15857,36.9307 L 734.0673,555.75004 c -22.81768,-22.81768 -54.34,-36.9307 -89.15857,-36.9307 z"
       inkscape:connector-curvature="0"
       id="path3404"
       style="fill:#000000" />
    <path
       d="M 345.15857,166.84131 C 367.97626,189.659 382.0893,221.18136 382.0893,256 l 388.90873,388.90873 c 0,-34.81864 -14.11304,-66.341 -36.93073,-89.15869 z"
       inkscape:connector-curvature="0"
       id="path3406"
       style="fill:#000000" />
    <path
       d="m 382.0893,256 33.94715,0 388.90873,388.90873 -33.94715,0 z"
       inkscape:connector-curvature="0"
       id="path3408"
       style="fill:#000000" />
    <path
       d="m 416.03645,256 c 0,-44.19286 -17.91269,-84.20196 -46.87359,-113.16286 l 388.90873,388.90873 c 28.9609,28.9609 46.87359,68.97 46.87359,113.16286 z"
       inkscape:connector-curvature="0"
       id="path3410"
       style="fill:#000000" />
    <path
       d="M 369.16286,142.83714 C 340.20195,113.87623 300.19283,95.963545 256,95.963545 L 644.90873,484.87227 c 44.19283,0 84.20195,17.91269 113.16286,46.8736 z"
       inkscape:connector-curvature="0"
       id="path3412"
       style="fill:#000000" />
    <path
       d="m 222.05284,173.55691 c 0,0 -24.24791,0 -24.24791,24.24802 l 388.90873,388.90873 c 0,-24.24802 24.24791,-24.24802 24.24791,-24.24802 z"
       inkscape:connector-curvature="0"
       id="path3414"
       style="fill:#000000" />
    <path
       d="m 197.80493,197.80493 0,130.93892 388.90873,388.90873 0,-130.93892 z"
       inkscape:connector-curvature="0"
       id="path3416"
       style="fill:#000000" />
    <path
       d="m 197.80493,328.74385 33.94705,0 388.90873,388.90873 -33.94705,0 z"
       inkscape:connector-curvature="0"
       id="path3418"
       style="fill:#000000" />
    <path
       d="m 231.75198,328.74385 0,-29.09754 388.90873,388.90873 0,29.09754 z"
       inkscape:connector-curvature="0"
       id="path3420"
       style="fill:#000000" />
    <path
       d="m 231.75198,299.64631 0,-19.3984 388.90873,388.90873 0,19.3984 z"
       inkscape:connector-curvature="0"
       id="path3422"
       style="fill:#000000" />
    <path
       d="m 231.75198,280.24791 0,-67.89421 388.90873,388.90873 0,67.89421 z"
       inkscape:connector-curvature="0"
       id="path3424"
       style="fill:#000000" />
    <path
       d="m 231.75198,212.3537 c 0,-3.35183 0.052,-4.841 4.84962,-4.69811 l 388.90873,388.90873 c -4.79762,-0.14289 -4.84962,1.34628 -4.84962,4.69811 z"
       inkscape:connector-curvature="0"
       id="path3426"
       style="fill:#000000" />
    <path
       d="m 236.6016,207.65559 c 2.15021,0.0624 5.20577,-0.15172 9.69915,-0.15172 L 635.20948,596.4126 c -4.49338,0 -7.54894,0.21412 -9.69915,0.15172 z"
       inkscape:connector-curvature="0"
       id="path3428"
       style="fill:#000000" />
    <path
       d="m 246.30075,207.50387 c 17.33471,6e-5 32.75169,3.57724 42.49868,13.32423 l 388.90873,388.90873 c -9.74699,-9.74699 -25.16397,-13.32417 -42.49868,-13.32423 z"
       inkscape:connector-curvature="0"
       id="path3430"
       style="fill:#000000" />
    <path
       d="m 288.79943,220.8281 c 6.80544,6.80544 10.84679,16.61864 10.84687,30.32208 l 388.90873,388.90873 c -8e-5,-13.70344 -4.04143,-23.51664 -10.84687,-30.32208 z"
       inkscape:connector-curvature="0"
       id="path3432"
       style="fill:#000000" />
    <path
       d="m 299.6463,251.15018 c -10e-5,27.03857 -9.69925,38.79667 -38.79678,43.64629 L 649.75825,683.7052 c 29.09753,-4.84962 38.79668,-16.60772 38.79678,-43.64629 z"
       inkscape:connector-curvature="0"
       id="path3434"
       style="fill:#000000" />
    <path
       d="m 260.84952,294.79647 0,33.94718 388.90873,388.90873 0,-33.94718 z"
       inkscape:connector-curvature="0"
       id="path3436"
       style="fill:#000000" />
    <path
       d="m 260.84952,328.74365 c 46.76441,-0.91138 74.5534,-40.31267 72.74384,-77.59347 l 388.90873,388.90873 c 1.80956,37.2808 -25.97943,76.68209 -72.74384,77.59347 z"
       inkscape:connector-curvature="0"
       id="path3438"
       style="fill:#000000" />
    <path
       d="m 333.59336,251.15018 c -0.9155,-18.86252 -8.35337,-38.50118 -23.1541,-53.30191 L 699.34799,586.757 c 14.80073,14.80073 22.2386,34.43939 23.1541,53.30191 z"
       inkscape:connector-curvature="0"
       id="path3440"
       style="fill:#000000" />
    <path
       d="m 310.43926,197.84827 c -14.45214,-14.45215 -35.92442,-24.29156 -65.19932,-24.29156 l 388.90873,388.90873 c 29.2749,0 50.74717,9.83941 65.19932,24.29156 z"
       inkscape:connector-curvature="0"
       id="path3442"
       style="fill:#000000" />
    <path
       d="m 245.23994,173.55671 -23.1871,0 388.90873,388.90873 23.1871,0 z"
       inkscape:connector-curvature="0"
       id="path3444"
       style="fill:#000000" />
    <path
       d="m 395.72876,271.15494 c -7.8924,-0.19745 -14.97682,5.19256 -16.82202,13.18483 L 767.81547,673.2485 c 1.8452,-7.99227 8.92962,-13.38228 16.82202,-13.18483 z"
       inkscape:connector-curvature="0"
       id="path3446"
       style="fill:#000000" />
    <path
       d="m 378.90674,284.33977 c -1.36379,5.90726 0.54061,11.78561 4.52709,15.77209 l 388.90873,388.90873 c -3.98648,-3.98648 -5.89088,-9.86483 -4.52709,-15.77209 z"
       inkscape:connector-curvature="0"
       id="path3448"
       style="fill:#000000" />
    <path
       d="m 383.43383,300.11186 c 2.17756,2.17756 4.97636,3.79064 8.20309,4.53559 l 388.90873,388.90873 c -3.22673,-0.74495 -6.02553,-2.35803 -8.20309,-4.53559 z"
       inkscape:connector-curvature="0"
       id="path3450"
       style="fill:#000000" />
    <path
       d="m 391.63692,304.64745 c 9.13393,2.10874 18.19895,-3.44463 20.30769,-12.57865 l 388.90873,388.90873 c -2.10874,9.13402 -11.17376,14.68739 -20.30769,12.57865 z"
       inkscape:connector-curvature="0"
       id="path3452"
       style="fill:#000000" />
    <path
       d="m 411.94461,292.0688 c 1.37144,-5.94033 -0.56207,-11.91559 -4.59434,-15.94787 L 796.259,665.02966 c 4.03227,4.03228 5.96578,10.00754 4.59434,15.94787 z"
       inkscape:connector-curvature="0"
       id="path3454"
       style="fill:#000000" />
    <path
       d="m 407.35027,276.12093 c -2.16781,-2.16781 -4.94223,-3.77404 -8.13583,-4.51134 l 388.90873,388.90873 c 3.1936,0.7373 5.96802,2.34353 8.13583,4.51134 z"
       inkscape:connector-curvature="0"
       id="path3456"
       style="fill:#000000" />
    <path
       d="m 399.21444,271.60959 c -1.14176,-0.26396 -2.35815,-0.42607 -3.48568,-0.45413 l 388.90873,388.90873 c 1.12753,0.0281 2.34392,0.19017 3.48568,0.45413 z"
       inkscape:connector-curvature="0"
       id="path3458"
       style="fill:#000000" />
    <path
       d="m 375.7242,316.92297 c -5.44789,0.10395 -10.75153,2.8153 -13.9426,7.72904 l 388.90873,388.90873 c 3.19107,-4.91374 8.49471,-7.62509 13.9426,-7.72904 z"
       inkscape:connector-curvature="0"
       id="path3460"
       style="fill:#000000" />
    <path
       d="m 361.7816,324.65201 c -4.4432,6.84187 -3.31947,15.69898 2.22865,21.24709 l 388.90873,388.90873 c -5.54812,-5.54811 -6.67185,-14.40522 -2.22865,-21.24709 z"
       inkscape:connector-curvature="0"
       id="path3462"
       style="fill:#000000" />
    <path
       d="m 364.01025,345.8991 c 0.8271,0.8271 1.75252,1.58066 2.77249,2.24304 l 388.90873,388.90873 c -1.01997,-0.66238 -1.94539,-1.41594 -2.77249,-2.24304 z"
       inkscape:connector-curvature="0"
       id="path3464"
       style="fill:#000000" />
    <path
       d="m 366.78274,348.14214 c 7.86195,5.10568 18.38466,2.8608 23.49024,-5.00114 l 388.90873,388.90873 c -5.10558,7.86194 -15.62829,10.10682 -23.49024,5.00114 z"
       inkscape:connector-curvature="0"
       id="path3466"
       style="fill:#000000" />
    <path
       d="m 390.27298,343.141 c 4.44319,-6.84186 3.31955,-15.69894 -2.22857,-21.24705 l 388.90873,388.90873 c 5.54812,5.54811 6.67176,14.40519 2.22857,21.24705 z"
       inkscape:connector-curvature="0"
       id="path3468"
       style="fill:#000000" />
    <path
       d="m 388.04441,321.89395 c -0.82712,-0.82712 -1.75257,-1.5807 -2.77257,-2.24309 l 388.90873,388.90873 c 1.02,0.66239 1.94545,1.41597 2.77257,2.24309 z"
       inkscape:connector-curvature="0"
       id="path3470"
       style="fill:#000000" />
    <path
       d="m 385.27184,319.65086 c -2.94821,-1.91461 -6.27894,-2.78733 -9.54764,-2.72789 L 764.63293,705.8317 c 3.2687,-0.0594 6.59943,0.81328 9.54764,2.72789 z"
       inkscape:connector-curvature="0"
       id="path3472"
       style="fill:#000000" />
    <path
       d="m 341.17088,353.29489 c -3.26495,0.16835 -6.43699,1.21847 -9.24449,3.33406 l 388.90873,388.90873 c 2.8075,-2.11559 5.97954,-3.16571 9.24449,-3.33406 z"
       inkscape:connector-curvature="0"
       id="path3474"
       style="fill:#000000" />
    <path
       d="m 331.92639,356.62895 c -7.48659,5.6416 -8.97566,16.30668 -3.33417,23.79326 l 388.90873,388.90873 c -5.64149,-7.48658 -4.15242,-18.15166 3.33417,-23.79326 z"
       inkscape:connector-curvature="0"
       id="path3476"
       style="fill:#000000" />
    <path
       d="m 328.59222,380.42221 c 0.48565,0.64448 1.00852,1.24452 1.56339,1.79938 l 388.90873,388.90873 c -0.55487,-0.55486 -1.07774,-1.1549 -1.56339,-1.79938 z"
       inkscape:connector-curvature="0"
       id="path3478"
       style="fill:#000000" />
    <path
       d="m 330.15561,382.22159 c 5.89084,5.89085 15.38786,6.69074 22.22998,1.53479 l 388.90873,388.90873 c -6.84212,5.15595 -16.33914,4.35606 -22.22998,-1.53479 z"
       inkscape:connector-curvature="0"
       id="path3480"
       style="fill:#000000" />
    <path
       d="m 352.38559,383.75638 c 7.48659,-5.6416 8.97566,-16.15516 3.33406,-23.64175 l 388.90873,388.90873 c 5.6416,7.48659 4.15253,18.00015 -3.33406,23.64175 z"
       inkscape:connector-curvature="0"
       id="path3482"
       style="fill:#000000" />
    <path
       d="m 355.71965,360.11463 c -0.48495,-0.64355 -1.00877,-1.2444 -1.56576,-1.80139 l 388.90873,388.90873 c 0.55699,0.55699 1.08081,1.15784 1.56576,1.80139 z"
       inkscape:connector-curvature="0"
       id="path3484"
       style="fill:#000000" />
    <path
       d="m 354.15389,358.31324 c -3.49282,-3.49282 -8.28986,-5.26088 -12.98301,-5.01835 l 388.90873,388.90873 c 4.69315,-0.24253 9.49019,1.52553 12.98301,5.01835 z"
       inkscape:connector-curvature="0"
       id="path3486"
       style="fill:#000000" />
  </g>
  <path
     d="M 256,95.963545 C 167.61426,95.963545 95.963545,167.61426 95.963545,256 c 0,88.38565 71.650715,160.03645 160.036455,160.03645 23.15332,0 45.14546,-4.94459 65.0148,-13.79108 L 307.22372,371.32924 C 291.58182,378.28553 274.22305,382.0893 256,382.0893 186.36273,382.0893 129.9106,325.63717 129.9106,256 c 0,-69.63727 56.45213,-126.08939 126.0894,-126.08939 69.63716,0 126.0893,56.45212 126.0893,126.08939 l 33.94715,0 C 416.03645,167.61426 344.38564,95.963545 256,95.963545 z m -33.94716,77.593365 c 0,0 -24.24791,0 -24.24791,24.24802 l 0,130.93892 33.94705,0 0,-29.09754 0,-19.3984 0,-67.89421 c 0,-3.35183 0.052,-4.841 4.84962,-4.69811 2.15021,0.0624 5.20577,-0.15172 9.69915,-0.15172 29.43797,1e-4 53.34535,10.31632 53.34555,43.64631 -10e-5,27.03857 -9.69925,38.79667 -38.79678,43.64629 l 0,33.94718 c 46.76441,-0.91138 74.5534,-40.31267 72.74384,-77.59347 -1.80944,-37.28081 -29.09753,-77.59347 -88.35342,-77.59347 l -23.1871,0 z m 173.67592,97.59803 c -7.8924,-0.19745 -14.97682,5.19256 -16.82202,13.18483 -2.10874,9.13402 3.59626,18.19894 12.73018,20.30768 9.13393,2.10874 18.19895,-3.44463 20.30769,-12.57865 2.10874,-9.13394 -3.59625,-18.35047 -12.73017,-20.45921 -1.14176,-0.26396 -2.35815,-0.42607 -3.48568,-0.45413 z m -20.00456,45.76803 c -5.44789,0.10395 -10.75153,2.8153 -13.9426,7.72904 -5.10558,7.86184 -2.8607,18.38455 5.00114,23.49013 7.86195,5.10568 18.38466,2.8608 23.49024,-5.00114 5.10558,-7.86185 2.8608,-18.38456 -5.00114,-23.49014 -2.94821,-1.91461 -6.27894,-2.78733 -9.54764,-2.72789 z m -34.55332,36.37192 c -3.26495,0.16835 -6.43699,1.21847 -9.24449,3.33406 -7.48659,5.6416 -8.97566,16.30668 -3.33417,23.79326 5.6416,7.4867 16.30678,8.97577 23.79337,3.33417 7.48659,-5.6416 8.97566,-16.15516 3.33406,-23.64175 -3.526,-4.67919 -9.10722,-7.10094 -14.54877,-6.81974 z"
     inkscape:connector-curvature="0"
     id="path4155"
     style="color:#000000;fill:#ffffff;fill-opacity:1;fill-rule:nonzero;stroke:none;stroke-width:3;marker:none;visibility:visible;display:inline;overflow:visible;enable-background:accumulate" />
</svg>
