<?xml version="1.0" encoding="UTF-8" standalone="no"?>
<!-- Created with Inkscape (http://www.inkscape.org/) -->

<svg
   xmlns:dc="http://purl.org/dc/elements/1.1/"
   xmlns:cc="http://creativecommons.org/ns#"
   xmlns:rdf="http://www.w3.org/1999/02/22-rdf-syntax-ns#"
   xmlns:svg="http://www.w3.org/2000/svg"
   xmlns="http://www.w3.org/2000/svg"
   xmlns:inkscape="http://www.inkscape.org/namespaces/inkscape"
   version="1.1"
   width="100%"
   height="100%"
   viewBox="0 0 512 512"
   id="svg2">
  <metadata
     id="metadata82">
    <rdf:RDF>
      <cc:Work
         rdf:about="">
        <dc:format>image/svg+xml</dc:format>
        <dc:type
           rdf:resource="http://purl.org/dc/dcmitype/StillImage" />
      </cc:Work>
    </rdf:RDF>
  </metadata>
  <defs
     id="defs80" />
  <g
     id="g4"
     style="fill-rule:evenodd">
    <path
       d="m 471.95,253.05 c 0,120.9 -98.01,218.9 -218.9,218.9 -120.9,0 -218.9,-98.01 -218.9,-218.9 0,-120.9 98.01,-218.9 218.9,-218.9 120.9,0 218.9,98.01 218.9,218.9"
       inkscape:connector-curvature="0"
       id="path6"
       style="fill:#8db173" />
    <path
       d="m 139.72,135.72 c -61.43,0 -61.719,66.16 -61.719,66.16 v 75.22 c 0,14.15 9.737,33.01 19.19,42.44 0.186,0.186 0.377,0.35 0.563,0.531 0.147,0.151 0.291,0.323 0.438,0.469 0.248,0.247 0.473,0.48 0.719,0.719 0.091,0.092 0.19,0.191 0.281,0.281 0.175,0.169 0.357,0.335 0.531,0.5 0.157,0.161 0.312,0.344 0.469,0.5 0.175,0.169 0.357,0.335 0.531,0.5 0.148,0.152 0.29,0.321 0.438,0.469 0.186,0.179 0.378,0.356 0.563,0.531 0.147,0.151 0.291,0.323 0.438,0.469 0.182,0.176 0.382,0.36 0.563,0.531 0.147,0.151 0.291,0.323 0.438,0.469 0.186,0.186 0.377,0.35 0.563,0.531 0.147,0.151 0.291,0.323 0.438,0.469 0.186,0.186 0.377,0.35 0.563,0.531 0.147,0.151 0.291,0.323 0.438,0.469 0.248,0.247 0.473,0.48 0.719,0.719 0.091,0.092 0.19,0.191 0.281,0.281 0.175,0.169 0.357,0.335 0.531,0.5 0.148,0.152 0.29,0.321 0.438,0.469 0.186,0.179 0.378,0.356 0.563,0.531 0.148,0.152 0.29,0.321 0.438,0.469 0.182,0.176 0.382,0.36 0.563,0.531 0.147,0.151 0.291,0.323 0.438,0.469 0.182,0.176 0.382,0.36 0.563,0.531 0.147,0.151 0.291,0.323 0.438,0.469 0.186,0.186 0.377,0.35 0.563,0.531 0.147,0.151 0.291,0.323 0.438,0.469 0.248,0.247 0.473,0.48 0.719,0.719 0.091,0.092 0.19,0.191 0.281,0.281 0.175,0.169 0.357,0.335 0.531,0.5 0.148,0.152 0.29,0.321 0.438,0.469 0.186,0.179 0.378,0.356 0.563,0.531 0.148,0.152 0.29,0.321 0.438,0.469 0.182,0.176 0.382,0.36 0.563,0.531 0.147,0.151 0.291,0.323 0.438,0.469 0.182,0.176 0.382,0.36 0.563,0.531 0.147,0.151 0.291,0.323 0.438,0.469 0.186,0.186 0.377,0.35 0.563,0.531 0.147,0.151 0.291,0.323 0.438,0.469 0.248,0.247 0.473,0.48 0.719,0.719 0.091,0.092 0.19,0.191 0.281,0.281 0.175,0.169 0.357,0.335 0.531,0.5 0.148,0.152 0.29,0.321 0.438,0.469 l 0.031,0.031 c 0.175,0.169 0.357,0.335 0.531,0.5 0.148,0.152 0.29,0.321 0.438,0.469 0.186,0.179 0.378,0.356 0.563,0.531 0.147,0.151 0.291,0.323 0.438,0.469 0.182,0.176 0.382,0.36 0.563,0.531 0.147,0.151 0.291,0.323 0.438,0.469 0.186,0.186 0.377,0.35 0.563,0.531 0.147,0.151 0.291,0.323 0.438,0.469 0.248,0.247 0.473,0.48 0.719,0.719 0.091,0.092 0.19,0.191 0.281,0.281 0.175,0.169 0.357,0.335 0.531,0.5 0.157,0.161 0.312,0.344 0.469,0.5 0.175,0.169 0.357,0.335 0.531,0.5 0.148,0.152 0.29,0.321 0.438,0.469 0.186,0.179 0.378,0.356 0.563,0.531 0.147,0.151 0.291,0.323 0.438,0.469 0.182,0.176 0.382,0.36 0.563,0.531 0.147,0.151 0.291,0.323 0.438,0.469 0.186,0.186 0.377,0.35 0.563,0.531 0.147,0.151 0.291,0.323 0.438,0.469 0.176,0.175 0.357,0.329 0.531,0.5 0.157,0.161 0.312,0.344 0.469,0.5 0.097,0.097 0.185,0.186 0.281,0.281 1.775,5.282 4.847,9.92 8.719,13.656 0.322,0.336 0.666,0.677 1,1 0.322,0.336 0.666,0.646 1,0.969 0.327,0.342 0.66,0.672 1,1 0.433,0.452 0.858,0.885 1.313,1.313 0.305,0.311 0.59,0.639 0.906,0.938 0.248,0.254 0.495,0.504 0.75,0.75 0.322,0.336 0.666,0.677 1,1 0.332,0.347 0.686,0.699 1.031,1.031 0.312,0.325 0.645,0.625 0.969,0.938 0.433,0.452 0.858,0.885 1.313,1.313 0.305,0.311 0.59,0.639 0.906,0.938 0.248,0.254 0.495,0.504 0.75,0.75 0.322,0.336 0.666,0.677 1,1 0.332,0.347 0.686,0.699 1.031,1.031 0.312,0.325 0.645,0.625 0.969,0.938 0.327,0.342 0.66,0.672 1,1 0.403,0.421 0.796,0.85 1.219,1.25 0.33,0.338 0.657,0.676 1,1 0.248,0.254 0.495,0.504 0.75,0.75 0.322,0.336 0.666,0.677 1,1 0.322,0.336 0.666,0.646 1,0.969 0.327,0.342 0.66,0.672 1,1 0.433,0.452 0.858,0.885 1.313,1.313 0.305,0.311 0.59,0.639 0.906,0.938 0.248,0.254 0.495,0.504 0.75,0.75 0.322,0.336 0.666,0.677 1,1 0.322,0.336 0.666,0.646 1,0.969 0.327,0.342 0.66,0.672 1,1 0.433,0.452 0.858,0.885 1.313,1.313 0.305,0.311 0.59,0.639 0.906,0.938 0.248,0.254 0.495,0.504 0.75,0.75 0.322,0.336 0.666,0.677 1,1 0.332,0.347 0.686,0.699 1.031,1.031 0.312,0.325 0.645,0.625 0.969,0.938 0.327,0.342 0.66,0.672 1,1 0.403,0.421 0.796,0.85 1.219,1.25 0.33,0.338 0.657,0.676 1,1 0.248,0.254 0.495,0.504 0.75,0.75 0.332,0.347 0.686,0.699 1.031,1.031 0.312,0.325 0.645,0.625 0.969,0.938 0.327,0.342 0.66,0.672 1,1 0.408,0.427 0.791,0.845 1.219,1.25 0.33,0.338 0.657,0.676 1,1 0.248,0.254 0.495,0.504 0.75,0.75 0.322,0.336 0.666,0.677 1,1 0.322,0.336 0.666,0.646 1,0.969 0.327,0.342 0.66,0.672 1,1 0.433,0.452 0.858,0.885 1.313,1.313 0.305,0.311 0.59,0.639 0.906,0.938 0.248,0.254 0.495,0.504 0.75,0.75 0.322,0.336 0.666,0.677 1,1 0.332,0.347 0.686,0.699 1.031,1.031 0.312,0.325 0.645,0.625 0.969,0.938 0.433,0.452 0.858,0.885 1.313,1.313 0.305,0.311 0.59,0.639 0.906,0.938 0.248,0.254 0.495,0.504 0.75,0.75 0.322,0.336 0.666,0.677 1,1 0.332,0.347 0.686,0.699 1.031,1.031 0.312,0.325 0.645,0.625 0.969,0.938 0.327,0.342 0.66,0.672 1,1 0.403,0.421 0.796,0.85 1.219,1.25 0.33,0.338 0.657,0.676 1,1 0.248,0.254 0.495,0.504 0.75,0.75 0.322,0.336 0.666,0.677 1,1 0.322,0.336 0.666,0.646 1,0.969 0.327,0.342 0.66,0.672 1,1 0.433,0.452 0.858,0.885 1.313,1.313 0.305,0.311 0.59,0.639 0.906,0.938 0.248,0.254 0.495,0.504 0.75,0.75 0.322,0.336 0.666,0.677 1,1 0.322,0.336 0.666,0.646 1,0.969 0.327,0.342 0.66,0.672 1,1 0.433,0.452 0.858,0.885 1.313,1.313 0.305,0.311 0.59,0.639 0.906,0.938 0.248,0.254 0.495,0.504 0.75,0.75 0.322,0.336 0.666,0.677 1,1 0.332,0.347 0.686,0.699 1.031,1.031 0.312,0.325 0.645,0.625 0.969,0.938 0.433,0.452 0.858,0.885 1.313,1.313 0.305,0.311 0.59,0.639 0.906,0.938 0.248,0.254 0.495,0.504 0.75,0.75 0.322,0.336 0.666,0.677 1,1 0.332,0.347 0.686,0.699 1.031,1.031 0.312,0.325 0.645,0.625 0.969,0.938 0.327,0.342 0.66,0.672 1,1 0.408,0.427 0.791,0.845 1.219,1.25 0.33,0.338 0.657,0.676 1,1 0.248,0.254 0.495,0.504 0.75,0.75 0.322,0.336 0.666,0.677 1,1 0.322,0.336 0.666,0.646 1,0.969 0.327,0.342 0.66,0.672 1,1 0.433,0.452 0.858,0.885 1.313,1.313 0.305,0.311 0.59,0.639 0.906,0.938 0.248,0.254 0.495,0.504 0.75,0.75 0.322,0.336 0.666,0.677 1,1 0.332,0.347 0.686,0.699 1.031,1.031 0.312,0.325 0.645,0.625 0.969,0.938 0.433,0.452 0.858,0.885 1.313,1.313 0.305,0.311 0.59,0.639 0.906,0.938 0.248,0.254 0.495,0.504 0.75,0.75 0.322,0.336 0.666,0.677 1,1 0.332,0.347 0.686,0.699 1.031,1.031 0.312,0.325 0.645,0.625 0.969,0.938 0.327,0.342 0.66,0.672 1,1 0.403,0.421 0.796,0.85 1.219,1.25 0.237,0.243 0.478,0.481 0.719,0.719 2.849,0.11 5.687,0.219 8.563,0.219 120.9,0 218.91,-98.01 218.91,-218.91 0,-0.209 10e-4,-0.416 0,-0.625 -0.128,-0.116 -0.259,-0.226 -0.406,-0.344 -0.23,-0.291 -0.533,-0.561 -0.875,-0.844 -0.281,-0.386 -0.677,-0.753 -1.156,-1.125 -0.262,-0.323 -0.568,-0.657 -0.969,-0.969 -0.253,-0.312 -0.553,-0.636 -0.938,-0.938 -0.227,-0.288 -0.533,-0.564 -0.875,-0.844 -0.24,-0.33 -0.606,-0.649 -1,-0.969 -0.243,-0.335 -0.597,-0.676 -1,-1 -0.23,-0.317 -0.561,-0.599 -0.938,-0.906 -0.243,-0.35 -0.607,-0.693 -1.031,-1.031 -0.241,-0.332 -0.595,-0.649 -1,-0.969 -0.236,-0.325 -0.573,-0.655 -0.969,-0.969 -0.239,-0.329 -0.595,-0.652 -1,-0.969 -0.236,-0.325 -0.568,-0.655 -0.969,-0.969 -0.234,-0.322 -0.602,-0.659 -1,-0.969 -0.228,-0.314 -0.582,-0.635 -0.969,-0.938 -0.227,-0.329 -0.564,-0.652 -0.969,-0.969 -0.231,-0.335 -0.582,-0.647 -1,-0.969 -0.23,-0.332 -0.583,-0.649 -1,-0.969 -0.226,-0.327 -0.559,-0.655 -0.969,-0.969 -0.236,-0.343 -0.59,-0.703 -1.031,-1.031 -0.214,-0.294 -0.539,-0.592 -0.906,-0.875 -0.217,-0.328 -0.587,-0.654 -1,-0.969 -0.224,-0.341 -0.592,-0.674 -1.031,-1 -0.218,-0.325 -0.522,-0.658 -0.938,-0.969 -0.21,-0.316 -0.567,-0.603 -0.969,-0.906 -0.213,-0.347 -0.583,-0.669 -1.031,-1 -0.212,-0.33 -0.541,-0.654 -0.969,-0.969 -0.213,-0.335 -0.559,-0.681 -1,-1 -0.21,-0.319 -0.549,-0.634 -0.969,-0.938 -0.209,-0.335 -0.555,-0.651 -1,-0.969 -0.206,-0.33 -0.559,-0.656 -1,-0.969 -0.197,-0.322 -0.511,-0.632 -0.938,-0.938 -0.198,-0.346 -0.562,-0.673 -1.031,-1 -0.206,-0.342 -0.527,-0.679 -1,-1 -0.202,-0.327 -0.517,-0.662 -0.969,-0.969 -0.196,-0.319 -0.528,-0.637 -0.969,-0.938 -0.192,-0.334 -0.533,-0.656 -1,-0.969 -0.158,-0.275 -0.428,-0.55 -0.781,-0.813 -0.09,-0.107 -0.183,-0.206 -0.281,-0.313 -0.012,-0.016 -0.019,-0.046 -0.031,-0.063 -0.115,-0.123 -0.25,-0.253 -0.375,-0.375 -0.02,-0.018 -0.042,-0.045 -0.063,-0.063 -0.29,-0.358 -0.627,-0.71 -1,-1.063 -0.262,-0.311 -0.551,-0.63 -0.875,-0.938 -0.252,-0.301 -0.534,-0.609 -0.844,-0.906 -0.222,-0.268 -0.482,-0.516 -0.75,-0.781 -0.315,-0.397 -0.679,-0.796 -1.094,-1.188 -0.241,-0.285 -0.52,-0.562 -0.813,-0.844 -0.25,-0.302 -0.505,-0.607 -0.813,-0.906 -0.291,-0.357 -0.629,-0.71 -1,-1.063 -0.247,-0.293 -0.512,-0.585 -0.813,-0.875 -0.259,-0.313 -0.556,-0.628 -0.875,-0.938 -0.265,-0.32 -0.579,-0.621 -0.906,-0.938 -0.279,-0.338 -0.589,-0.698 -0.938,-1.031 -0.264,-0.313 -0.551,-0.628 -0.875,-0.938 -0.268,-0.317 -0.578,-0.624 -0.906,-0.938 -0.246,-0.291 -0.516,-0.587 -0.813,-0.875 -0.243,-0.293 -0.519,-0.585 -0.813,-0.875 -0.28,-0.344 -0.588,-0.691 -0.938,-1.031 -0.283,-0.34 -0.618,-0.664 -0.969,-1 -0.248,-0.293 -0.515,-0.585 -0.813,-0.875 -0.262,-0.316 -0.555,-0.625 -0.875,-0.938 -0.289,-0.349 -0.609,-0.686 -0.969,-1.031 -0.242,-0.286 -0.523,-0.561 -0.813,-0.844 -0.246,-0.296 -0.517,-0.582 -0.813,-0.875 -0.312,-0.383 -0.667,-0.778 -1.063,-1.156 -0.255,-0.298 -0.539,-0.58 -0.844,-0.875 -0.264,-0.312 -0.557,-0.629 -0.875,-0.938 -0.269,-0.319 -0.549,-0.654 -0.875,-0.969 -0.251,-0.297 -0.543,-0.581 -0.844,-0.875 -0.275,-0.329 -0.571,-0.674 -0.906,-1 -0.276,-0.327 -0.603,-0.645 -0.938,-0.969 -0.241,-0.283 -0.496,-0.563 -0.781,-0.844 -0.272,-0.328 -0.576,-0.644 -0.906,-0.969 -0.277,-0.332 -0.57,-0.672 -0.906,-1 -0.278,-0.329 -0.602,-0.644 -0.938,-0.969 -0.224,-0.262 -0.458,-0.521 -0.719,-0.781 -0.293,-0.358 -0.638,-0.708 -1,-1.063 -0.293,-0.348 -0.611,-0.687 -0.969,-1.031 -0.25,-0.29 -0.519,-0.588 -0.813,-0.875 -0.249,-0.294 -0.518,-0.584 -0.813,-0.875 -0.305,-0.366 -0.657,-0.732 -1.031,-1.094 -0.246,-0.285 -0.524,-0.561 -0.813,-0.844 -0.264,-0.311 -0.561,-0.629 -0.875,-0.938 -0.287,-0.338 -0.592,-0.697 -0.938,-1.031 -0.237,-0.276 -0.506,-0.539 -0.781,-0.813 -3.626,-4.342 -12.136,-8.479 -22.594,-10.5 -4.294,-0.83 -8.44,-1.218 -12.156,-1.188 -6.194,0.05 -11.228,1.25 -14.03,3.344 -1.224,0.915 -2.01,2 -2.281,3.25 h -0.031 v 0.094 l -2.406,12.375 1.156,0.219 -0.156,0.781 0.25,0.031 0.906,0.188 -0.156,0.781 c 0.002,0 0.531,0.094 0.531,0.094 l 0.625,0.125 -0.156,0.781 0.781,0.125 0.344,0.063 -0.156,0.781 c 0.004,10e-4 1.063,0.219 1.063,0.219 l 0.094,0.031 c -0.017,0.088 -0.156,0.75 -0.156,0.75 0.004,10e-4 0.914,0.172 1.156,0.219 l -0.156,0.781 c 0.004,10e-4 0.701,0.131 1.156,0.219 -0.019,0.096 -0.156,0.781 -0.156,0.781 0.004,10e-4 0.617,0.114 1.156,0.219 -0.019,0.096 -0.156,0.781 -0.156,0.781 0.004,10e-4 0.583,0.108 1.156,0.219 -0.016,0.084 -0.123,0.676 -0.125,0.688 l -10.313,-2 -2.531,13.09 1.125,0.219 -0.125,0.719 v 0.063 l 1.125,0.219 -0.125,0.625 v 0.156 l 1.125,0.219 -0.094,0.563 -0.031,0.219 1.125,0.219 -0.094,0.5 -0.063,0.25 1.156,0.219 -0.094,0.469 c 0,0.003 -0.063,0.313 -0.063,0.313 l 1.156,0.219 -0.094,0.406 -0.063,0.375 1.156,0.219 -0.063,0.313 c -0.001,0.004 -0.094,0.469 -0.094,0.469 l 1.156,0.219 -0.063,0.25 -0.094,0.531 1.125,0.219 -0.031,0.188 c -10e-4,0.005 -0.094,0.594 -0.094,0.594 l 1.125,0.219 -0.031,0.125 c -10e-4,0.005 -0.125,0.625 -0.125,0.625 l 1.156,0.219 v 0.063 c 0,0.003 -0.033,0.161 -0.063,0.313 l -12.625,-2.438 -4.125,21.375 h -0.469 v -0.969 h -1 v -1 h -1 v -1 h -1 v -1 h -1 v -1 h -1 v -1 h -0.969 v -0.969 h -1 v -1 h -1 v -1 h -1 v -1 h -1 v -1 h -1 v -1 h -0.969 v -0.969 h -1 v -1 h -1 v -1 h -1 v -1 h -1 v -1 h -1 v -1 h -1 v -1 h -0.969 v -0.969 h -1 v -1 h -1 v -1 h -1 v -1 h -1 v -1 h -1 v -1 h -0.969 v -0.969 h -1 v -1 h -1 v -1 h -1 v -1 h -1 v -1 h -1 v -1 h -0.969 v -0.969 h -1 v -1 h -1 v -1 h -1 v -1 h -1 v -1 h -1 v -1 h -0.969 v -0.969 h -1 v -1 h -1 v -1 h -1 v -1 h -1 v -1 h -1 v -1 h -1 v -1 h -0.969 v -0.969 h -1 v -1 h -1 v -1 h -1 v -1 h -1 v -1 h -1 v -1 h -0.969 v -0.969 h -1 v -1 h -1 v -1 h -1 v -1 h -1 v -1 h -1 v -1 h -0.969 v -0.969 h -1 v -1 h -1 v -1 h -1 v -1 h -1 v -1 h -1 v -1 h -1 v -1 h -0.969 v -0.969 h -1 v -1 h -1 v -1 h -1 v -1 h -1 v -1 h -1 v -1 h -0.969 v -0.969 h -1 v -1 h -1 v -1 h -0.938 -0.063 v -1 h -0.844 -0.156 v -1 h -0.781 -0.219 v -1 h -0.688 -0.281 v -0.969 h -0.656 -0.344 v -1 h -0.563 -0.438 v -1 h -0.5 -0.5 v -1 h -0.438 -0.563 v -1 h -0.344 -0.656 v -1 h -0.281 -0.688 v -0.969 h -0.219 -0.781 v -1 h -0.156 -0.844 v -1 h -0.063 -0.938 v -1 h -14.25 l -14.313,37.594 h -6.875 c -0.005,-0.005 -0.026,0.005 -0.031,0 -0.167,-0.176 -0.33,-0.357 -0.5,-0.531 -0.153,-0.148 -0.314,-0.291 -0.469,-0.438 -0.183,-0.183 -0.345,-0.382 -0.531,-0.563 -0.327,-0.334 -0.663,-0.673 -1,-1 -0.194,-0.198 -0.396,-0.398 -0.594,-0.594 -0.132,-0.138 -0.272,-0.269 -0.406,-0.406 -0.197,-0.191 -0.393,-0.374 -0.594,-0.563 -0.131,-0.137 -0.274,-0.271 -0.406,-0.406 -0.2,-0.194 -0.39,-0.402 -0.594,-0.594 -0.333,-0.33 -0.657,-0.677 -1,-1 -0.127,-0.133 -0.246,-0.274 -0.375,-0.406 -0.203,-0.197 -0.418,-0.399 -0.625,-0.594 -0.127,-0.133 -0.246,-0.274 -0.375,-0.406 -0.048,-0.046 -0.108,-0.079 -0.156,-0.125 -0.285,-0.289 -0.551,-0.591 -0.844,-0.875 -0.194,-0.198 -0.396,-0.398 -0.594,-0.594 -0.132,-0.138 -0.272,-0.269 -0.406,-0.406 -0.133,-0.129 -0.271,-0.247 -0.406,-0.375 -0.068,-0.068 -0.119,-0.151 -0.188,-0.219 -0.127,-0.133 -0.277,-0.243 -0.406,-0.375 -0.2,-0.194 -0.39,-0.402 -0.594,-0.594 -0.132,-0.138 -0.272,-0.269 -0.406,-0.406 -0.2,-0.194 -0.39,-0.402 -0.594,-0.594 -0.127,-0.133 -0.246,-0.274 -0.375,-0.406 -0.203,-0.197 -0.418,-0.399 -0.625,-0.594 -0.127,-0.133 -0.246,-0.274 -0.375,-0.406 -0.048,-0.046 -0.108,-0.079 -0.156,-0.125 -0.285,-0.289 -0.551,-0.591 -0.844,-0.875 -0.327,-0.334 -0.663,-0.673 -1,-1 -0.194,-0.198 -0.396,-0.398 -0.594,-0.594 -0.132,-0.138 -0.272,-0.269 -0.406,-0.406 -0.197,-0.191 -0.393,-0.374 -0.594,-0.563 -0.131,-0.137 -0.274,-0.271 -0.406,-0.406 -0.2,-0.194 -0.39,-0.402 -0.594,-0.594 -0.333,-0.33 -0.657,-0.678 -1,-1 -0.127,-0.133 -0.246,-0.274 -0.375,-0.406 -0.203,-0.197 -0.418,-0.399 -0.625,-0.594 -0.127,-0.133 -0.246,-0.274 -0.375,-0.406 -0.048,-0.046 -0.108,-0.079 -0.156,-0.125 -0.285,-0.289 -0.551,-0.591 -0.844,-0.875 -0.327,-0.334 -0.663,-0.673 -1,-1 -0.194,-0.198 -0.396,-0.398 -0.594,-0.594 -0.132,-0.138 -0.272,-0.269 -0.406,-0.406 -0.197,-0.191 -0.393,-0.374 -0.594,-0.563 -0.132,-0.138 -0.272,-0.269 -0.406,-0.406 -0.2,-0.194 -0.39,-0.402 -0.594,-0.594 -0.127,-0.133 -0.246,-0.274 -0.375,-0.406 -0.203,-0.197 -0.418,-0.399 -0.625,-0.594 -0.127,-0.133 -0.246,-0.274 -0.375,-0.406 -0.205,-0.199 -0.416,-0.397 -0.625,-0.594 -0.127,-0.133 -0.246,-0.274 -0.375,-0.406 -0.048,-0.046 -0.108,-0.079 -0.156,-0.125 -0.285,-0.289 -0.551,-0.591 -0.844,-0.875 -0.194,-0.198 -0.396,-0.398 -0.594,-0.594 -0.132,-0.138 -0.272,-0.269 -0.406,-0.406 -0.133,-0.129 -0.271,-0.247 -0.406,-0.375 -0.068,-0.068 -0.119,-0.151 -0.188,-0.219 -0.127,-0.133 -0.277,-0.243 -0.406,-0.375 -0.2,-0.194 -0.39,-0.402 -0.594,-0.594 -0.066,-0.069 -0.121,-0.15 -0.188,-0.219 -0.069,-0.067 -0.149,-0.12 -0.219,-0.188 -9.06,-9.245 -22.12,-15.938 -41,-15.938"
       inkscape:connector-curvature="0"
       id="path8"
       style="fill-opacity:0.23500001" />
    <path
       d="M 256,1 C 115.17,1 1,115.17 1,256 1,396.83 115.17,511 256,511 396.83,511 511,396.83 511,256 511,115.17 396.83,1 256,1 m 8.827,44.931 c 120.9,0 218.9,98 218.9,218.9 0,120.9 -98,218.9 -218.9,218.9 -120.9,0 -218.93,-98 -218.93,-218.9 0,-120.9 98.03,-218.9 218.93,-218.9"
       inkscape:connector-curvature="0"
       id="path10"
       style="fill-opacity:0.06700003" />
    <g
       id="g12"
       style="fill-opacity:0.12900002">
      <path
         d="m 256,4.433 c -138.94,0 -251.57,112.63 -251.57,251.57 0,138.94 112.63,251.57 251.57,251.57 138.94,0 251.57,-112.63 251.57,-251.57 C 507.57,117.063 394.94,4.433 256,4.433 m 5.885,38.556 c 120.9,0 218.9,98 218.9,218.9 0,120.9 -98,218.9 -218.9,218.9 -120.9,0 -218.93,-98 -218.93,-218.9 0,-120.9 98.03,-218.9 218.93,-218.9"
         inkscape:connector-curvature="0"
         id="path14" />
      <path
         d="m 256,8.356 c -136.77,0 -247.64,110.87 -247.64,247.64 0,136.77 110.87,247.64 247.64,247.64 136.77,0 247.64,-110.87 247.64,-247.64 C 503.64,119.226 392.77,8.356 256,8.356 m 2.942,31.691 c 120.9,0 218.9,98 218.9,218.9 0,120.9 -98,218.9 -218.9,218.9 -120.9,0 -218.93,-98 -218.93,-218.9 0,-120.9 98.03,-218.9 218.93,-218.9"
         inkscape:connector-curvature="0"
         id="path16" />
    </g>
    <path
       d="m 253.04,7.859 c -135.42,0 -245.19,109.78 -245.19,245.19 0,135.42 109.78,245.19 245.19,245.19 135.42,0 245.19,-109.78 245.19,-245.19 0,-135.42 -109.78,-245.19 -245.19,-245.19 z m 0,26.297 c 120.9,0 218.9,98 218.9,218.9 0,120.9 -98,218.9 -218.9,218.9 -120.9,0 -218.93,-98 -218.93,-218.9 0,-120.9 98.03,-218.9 218.93,-218.9 z"
       inkscape:connector-curvature="0"
       id="path18"
       style="fill:#ffffff;stroke:#000000;stroke-width:4.90399981;stroke-opacity:0.31000001" />
  </g>
  <text
     x="729.64001"
     y="231.36"
     id="text20"
     style="font-size:129.22999573px;line-height:125%;letter-spacing:0;word-spacing:0;font-family:Gentium Book Basic">
    <tspan
       x="729.64001"
       y="231.36"
       id="tspan22" />
  </text>
  <text
     x="378.91"
     y="579.25"
     transform="scale(4.0128,0.2492)"
     id="text24"
     style="font-size:46.95399857px;text-anchor:middle;font-family:Arial" />
  <text
     x="1310.91"
     y="151.36"
     id="text26"
     style="font-size:129.22999573px;line-height:125%;letter-spacing:0;word-spacing:0;font-family:Gentium Book Basic">
    <tspan
       x="1310.91"
       y="151.36"
       id="tspan28" />
  </text>
  <text
     x="523.76001"
     y="258.22"
     transform="scale(4.0128,0.2492)"
     id="text30"
     style="font-size:46.95399857px;text-anchor:middle;font-family:Arial" />
  <text
     x="239.33"
     y="-29.900999"
     id="text32"
     style="font-size:129.22999573px;line-height:125%;letter-spacing:0;word-spacing:0;font-family:Gentium Book Basic">
    <tspan
       x="239.33"
       y="-29.900999"
       id="tspan34" />
  </text>
  <text
     x="256.72"
     y="-469.14001"
     transform="scale(4.0128,0.2492)"
     id="text36"
     style="font-size:46.95399857px;text-anchor:middle;font-family:Arial" />
  <text
     x="1337.38"
     y="-246.37"
     id="text38"
     style="font-size:129.22999573px;line-height:125%;letter-spacing:0;word-spacing:0;font-family:Gentium Book Basic">
    <tspan
       x="1337.38"
       y="-246.37"
       id="tspan40" />
  </text>
  <text
     x="530.35999"
     y="-1337.8101"
     transform="scale(4.0128,0.2492)"
     id="text42"
     style="font-size:46.95399857px;text-anchor:middle;font-family:Arial" />
  <text
     x="1918.65"
     y="-326.38"
     id="text44"
     style="font-size:129.22999573px;line-height:125%;letter-spacing:0;word-spacing:0;font-family:Gentium Book Basic">
    <tspan
       x="1918.65"
       y="-326.38"
       id="tspan46" />
  </text>
  <text
     x="675.21002"
     y="-1658.85"
     transform="scale(4.0128,0.2492)"
     id="text48"
     style="font-size:46.95399857px;text-anchor:middle;font-family:Arial" />
  <text
     x="1529.53"
     y="-798.78003"
     id="text50"
     style="font-size:129.22999573px;line-height:125%;letter-spacing:0;word-spacing:0;font-family:Gentium Book Basic">
    <tspan
       x="1529.53"
       y="-798.78003"
       id="tspan52" />
  </text>
  <text
     x="578.23999"
     y="-3554.51"
     transform="scale(4.0128,0.2492)"
     id="text54"
     style="font-size:46.95399857px;text-anchor:middle;font-family:Arial" />
  <text
     x="2110.79"
     y="-878.78003"
     id="text56"
     style="font-size:129.22999573px;line-height:125%;letter-spacing:0;word-spacing:0;font-family:Gentium Book Basic">
    <tspan
       x="2110.79"
       y="-878.78003"
       id="tspan58" />
  </text>
  <text
     x="723.09003"
     y="-3875.54"
     transform="scale(4.0128,0.2492)"
     id="text60"
     style="font-size:46.95399857px;text-anchor:middle;font-family:Arial" />
  <text
     x="277.98999"
     y="535.94"
     id="text62"
     style="font-size:208.33000183px;line-height:125%;letter-spacing:0;word-spacing:0;font-family:Gentium Book Basic">
    <tspan
       x="277.98999"
       y="535.94"
       id="tspan64" />
  </text>
  <g
     id="g66"
     style="fill:#ffffff;fill-rule:evenodd">
    <path
       d="m 139.71,135.72 c -61.43,0 -61.698,66.15 -61.698,66.15 v 75.22 c 0,14.15 9.712,33.01 19.16,42.44 16.706,16.673 28.26,14.28 28.26,14.28 0,0 0.157,4.649 4.882,18.796 4.725,14.15 18.626,23.678 32.802,23.678 14.176,0 19.16,-4.882 19.16,-4.882 v -18.796 c 0,0 -4.83,0.169 -14.28,-4.546 -9.452,-4.716 -9.429,-14.25 -9.429,-14.25 0,0 14.08,-4.649 28.26,-18.796 14.176,-14.15 14.311,-37.928 14.311,-37.928 v -70.7 c 0,0 0.006,-70.67 -61.42,-70.67 m 93.58,9.734 -14.311,37.592 h -9.429 v 18.827 h 9.429 v 99.2 c 0,0 0.083,23.343 23.709,23.343 23.626,0 28.29,-9.398 28.29,-9.398 v -18.16 c -0.443,1.326 -2.341,4.211 -9.429,4.211 -9.451,0 -13.975,-9.398 -13.975,-9.398 v -89.8 h 23.404 V 183.04 h -23.404 v -37.592 h -14.28 m -90.65,13.945 c 23.631,0 23.709,23.343 23.709,23.343 v 94.35 c 0,0 -0.083,33.05 -23.709,33.05 -23.631,0 -23.709,-33.05 -23.709,-33.05 v -89.5 c 0,0 0.083,-28.19 23.709,-28.19"
       inkscape:connector-curvature="0"
       id="path68" />
    <g
       transform="matrix(0.53304,-0.36035,0.36035,0.53304,-157.52,-91.73)"
       id="g70">
      <path
         d="m 373.71,816.11 -89.45,89.45 -10.993,10.993 -2.798,2.798 -22.315,69.941 a 9.103771,10.142807 45 0 0 2.92897,10.07408 9.103771,10.142807 45 0 0 8.1696,1.10332 l 70.926,-22.38099 2.312,-2.312 10.678,-10.678 89.76,-89.76 -59.22,-59.22 m -59.10478,119.07642 a 2.540616,2.540616 0 0 1 0.86687,2.02269 l -0.985,21.19 3.875,3.875 a 2.540616,2.540616 0 0 1 -1.14269,4.24241 l -33.453,8.945 a 2.540616,2.540616 0 0 1 -2.45613,-0.64359 l -6.488,-6.488 a 2.540616,2.540616 0 0 1 -0.65672,-2.49553 l 9.759,-34.37 a 2.540616,2.540616 0 0 1 4.24241,-1.11643 l 5.214,5.214 19.426,-0.985 a 2.540616,2.540616 0 0 1 1.79941,0.61732"
         inkscape:connector-curvature="0"
         id="path72" />
      <path
         d="m 424.88,228.19 c -2.372,0.112 -4.319,0.85 -5.75,2.219 l -0.031,-0.031 -0.094,0.125 -13.875,13.844 59.22,59.25 13.875,-13.875 c 0.031,-0.031 0.063,-0.062 0.094,-0.094 6.409,-6.66 -1.515,-25.08 -17.844,-41.41 -12.818,-12.818 -26.903,-20.442 -35.594,-20.03"
         inkscape:connector-curvature="0"
         transform="translate(0,540.36)"
         id="path74" />
      <path
         d="m 397.44,792.4 59.23,59.23 -14.668,14.668 -59.23,-59.23 z"
         inkscape:connector-curvature="0"
         id="path76" />
    </g>
  </g>
</svg>
