<?xml version="1.0" encoding="UTF-8" standalone="no"?>
<!-- Created with Inkscape (http://www.inkscape.org/) -->

<svg
   xmlns:dc="http://purl.org/dc/elements/1.1/"
   xmlns:cc="http://creativecommons.org/ns#"
   xmlns:rdf="http://www.w3.org/1999/02/22-rdf-syntax-ns#"
   xmlns:svg="http://www.w3.org/2000/svg"
   xmlns="http://www.w3.org/2000/svg"
   xmlns:inkscape="http://www.inkscape.org/namespaces/inkscape"
   version="1.1"
   width="100%"
   height="100%"
   viewBox="0 0 512 512"
   id="svg2">
  <metadata
     id="metadata74">
    <rdf:RDF>
      <cc:Work
         rdf:about="">
        <dc:format>image/svg+xml</dc:format>
        <dc:type
           rdf:resource="http://purl.org/dc/dcmitype/StillImage" />
      </cc:Work>
    </rdf:RDF>
  </metadata>
  <defs
     id="defs72" />
  <g
     transform="translate(0,-540.36)"
     id="g4">
    <g
       id="g6"
       style="fill-rule:evenodd">
      <path
         d="m 471.95,793.41 c 0,120.9 -98.01,218.9 -218.9,218.9 -120.9,0 -218.9,-98.01 -218.9,-218.9 0,-120.9 98.01,-218.9 218.9,-218.9 120.9,0 218.9,98.01 218.9,218.9"
         inkscape:connector-curvature="0"
         id="path8"
         style="fill:#0078ad" />
      <path
         d="m 301.53,169.5 c -10.741,0 -20.11,6.04 -24.813,14.906 h -44.37 l -61.844,61.875 h -6.094 c -0.365,-0.38 -0.744,-0.76 -1.125,-1.125 -0.326,-0.336 -0.662,-0.645 -1,-0.969 -0.331,-0.342 -0.657,-0.671 -1,-1 -0.326,-0.336 -0.662,-0.676 -1,-1 -0.326,-0.336 -0.662,-0.676 -1,-1 -0.326,-0.336 -0.631,-0.676 -0.969,-1 -0.326,-0.336 -0.662,-0.676 -1,-1 -0.326,-0.336 -0.662,-0.676 -1,-1 -0.326,-0.336 -0.662,-0.645 -1,-0.969 -0.331,-0.342 -0.657,-0.671 -1,-1 -0.326,-0.336 -0.662,-0.676 -1,-1 -0.326,-0.336 -0.631,-0.676 -0.969,-1 -0.326,-0.336 -0.662,-0.676 -1,-1 -6.839,-7.06 -16.429,-11.438 -27.03,-11.438 -20.766,0.001 -37.594,16.828 -37.594,37.594 0,10.636 4.404,20.249 11.5,27.09 0.325,0.338 0.662,0.674 1,1 0.348,0.362 0.731,0.684 1.094,1.031 0.303,0.313 0.593,0.635 0.906,0.938 0.325,0.338 0.662,0.674 1,1 0.302,0.314 0.625,0.603 0.938,0.906 0.347,0.363 0.67,0.745 1.031,1.094 0.325,0.338 0.662,0.674 1,1 0.348,0.362 0.731,0.684 1.094,1.031 0.303,0.313 0.593,0.635 0.906,0.938 0.325,0.338 0.662,0.674 1,1 0.302,0.314 0.625,0.603 0.938,0.906 0.347,0.363 0.67,0.745 1.031,1.094 0.325,0.338 0.662,0.674 1,1 0.412,0.428 0.85,0.842 1.281,1.25 0.073,0.074 0.145,0.145 0.219,0.219 0.102,0.095 0.209,0.187 0.313,0.281 0.391,0.413 0.778,0.824 1.188,1.219 0.384,0.399 0.786,0.774 1.188,1.156 0.108,0.11 0.204,0.235 0.313,0.344 0.093,0.086 0.188,0.165 0.281,0.25 0.396,0.419 0.773,0.85 1.188,1.25 0.325,0.338 0.662,0.674 1,1 0.348,0.362 0.731,0.684 1.094,1.031 0.303,0.313 0.593,0.635 0.906,0.938 0.384,0.399 0.786,0.774 1.188,1.156 0.108,0.11 0.204,0.235 0.313,0.344 0.093,0.086 0.188,0.165 0.281,0.25 0.396,0.419 0.773,0.85 1.188,1.25 0.325,0.338 0.662,0.674 1,1 0.348,0.362 0.731,0.684 1.094,1.031 0.303,0.313 0.593,0.635 0.906,0.938 0.325,0.338 0.662,0.674 1,1 0.302,0.314 0.625,0.603 0.938,0.906 0.347,0.363 0.67,0.745 1.031,1.094 0.325,0.338 0.662,0.674 1,1 0.348,0.362 0.731,0.684 1.094,1.031 0.303,0.313 0.593,0.635 0.906,0.938 0.325,0.338 0.662,0.674 1,1 0.302,0.314 0.625,0.603 0.938,0.906 0.383,0.4 0.756,0.805 1.156,1.188 0.293,0.302 0.572,0.614 0.875,0.906 0.325,0.338 0.662,0.674 1,1 0.348,0.362 0.731,0.684 1.094,1.031 0.303,0.313 0.593,0.635 0.906,0.938 0.384,0.399 0.786,0.774 1.188,1.156 0.108,0.11 0.204,0.235 0.313,0.344 0.093,0.086 0.188,0.165 0.281,0.25 0.396,0.419 0.773,0.85 1.188,1.25 0.325,0.338 0.662,0.674 1,1 0.348,0.362 0.731,0.684 1.094,1.031 0.303,0.313 0.593,0.635 0.906,0.938 0.325,0.338 0.662,0.674 1,1 0.302,0.314 0.625,0.603 0.938,0.906 0.347,0.363 0.67,0.745 1.031,1.094 0.325,0.338 0.662,0.674 1,1 0.348,0.362 0.731,0.684 1.094,1.031 0.303,0.313 0.593,0.635 0.906,0.938 0.325,0.338 0.662,0.674 1,1 0.302,0.314 0.625,0.603 0.938,0.906 0.347,0.363 0.67,0.745 1.031,1.094 0.325,0.338 0.662,0.674 1,1 0.412,0.428 0.85,0.842 1.281,1.25 0.073,0.074 0.145,0.145 0.219,0.219 0.102,0.095 0.209,0.187 0.313,0.281 0.391,0.413 0.778,0.824 1.188,1.219 0.384,0.399 0.786,0.774 1.188,1.156 0.108,0.11 0.204,0.235 0.313,0.344 0.093,0.086 0.188,0.165 0.281,0.25 0.396,0.419 0.773,0.85 1.188,1.25 0.325,0.338 0.662,0.674 1,1 0.348,0.362 0.731,0.684 1.094,1.031 0.303,0.313 0.593,0.635 0.906,0.938 0.384,0.399 0.786,0.774 1.188,1.156 0.108,0.11 0.204,0.235 0.313,0.344 0.093,0.086 0.188,0.165 0.281,0.25 0.396,0.419 0.773,0.85 1.188,1.25 0.325,0.338 0.662,0.674 1,1 0.348,0.362 0.731,0.684 1.094,1.031 0.303,0.313 0.593,0.635 0.906,0.938 0.325,0.338 0.662,0.674 1,1 0.302,0.314 0.625,0.603 0.938,0.906 0.347,0.363 0.67,0.745 1.031,1.094 0.325,0.338 0.662,0.674 1,1 0.348,0.362 0.731,0.684 1.094,1.031 0.303,0.313 0.593,0.635 0.906,0.938 0.325,0.338 0.662,0.674 1,1 0.302,0.314 0.625,0.603 0.938,0.906 0.383,0.4 0.756,0.805 1.156,1.188 0.293,0.302 0.572,0.614 0.875,0.906 0.325,0.338 0.662,0.674 1,1 0.348,0.362 0.731,0.684 1.094,1.031 0.303,0.313 0.593,0.635 0.906,0.938 0.384,0.399 0.786,0.774 1.188,1.156 0.108,0.11 0.204,0.235 0.313,0.344 0.093,0.086 0.188,0.165 0.281,0.25 0.396,0.419 0.773,0.85 1.188,1.25 0.325,0.338 0.662,0.674 1,1 0.348,0.362 0.731,0.684 1.094,1.031 0.303,0.313 0.593,0.635 0.906,0.938 0.325,0.338 0.662,0.674 1,1 0.302,0.314 0.625,0.603 0.938,0.906 0.347,0.363 0.67,0.745 1.031,1.094 0.325,0.338 0.662,0.674 1,1 0.348,0.362 0.731,0.684 1.094,1.031 0.303,0.313 0.593,0.635 0.906,0.938 0.325,0.338 0.662,0.674 1,1 0.302,0.314 0.625,0.603 0.938,0.906 0.347,0.363 0.67,0.745 1.031,1.094 0.325,0.338 0.662,0.674 1,1 0.412,0.428 0.85,0.842 1.281,1.25 0.073,0.074 0.145,0.145 0.219,0.219 0.102,0.095 0.209,0.187 0.313,0.281 0.391,0.413 0.778,0.824 1.188,1.219 0.384,0.399 0.786,0.774 1.188,1.156 0.108,0.11 0.204,0.235 0.313,0.344 0.093,0.086 0.188,0.165 0.281,0.25 0.396,0.419 0.773,0.85 1.188,1.25 0.325,0.338 0.662,0.674 1,1 0.348,0.362 0.731,0.684 1.094,1.031 0.303,0.313 0.593,0.635 0.906,0.938 0.384,0.399 0.786,0.774 1.188,1.156 0.108,0.11 0.204,0.235 0.313,0.344 0.093,0.086 0.188,0.165 0.281,0.25 0.396,0.419 0.773,0.85 1.188,1.25 0.325,0.338 0.662,0.674 1,1 0.348,0.362 0.731,0.684 1.094,1.031 0.303,0.313 0.593,0.635 0.906,0.938 0.325,0.338 0.662,0.674 1,1 0.302,0.314 0.625,0.603 0.938,0.906 0.347,0.363 0.67,0.745 1.031,1.094 0.325,0.338 0.662,0.674 1,1 0.348,0.362 0.731,0.684 1.094,1.031 0.303,0.313 0.593,0.635 0.906,0.938 0.325,0.338 0.662,0.674 1,1 0.302,0.314 0.625,0.603 0.938,0.906 0.383,0.4 0.756,0.805 1.156,1.188 0.293,0.302 0.572,0.614 0.875,0.906 0.412,0.428 0.85,0.842 1.281,1.25 0.073,0.074 0.145,0.145 0.219,0.219 0.102,0.095 0.209,0.187 0.313,0.281 0.391,0.413 0.778,0.824 1.188,1.219 0.384,0.399 0.786,0.774 1.188,1.156 0.108,0.11 0.204,0.235 0.313,0.344 0.093,0.086 0.188,0.165 0.281,0.25 0.396,0.419 0.773,0.85 1.188,1.25 0.325,0.338 0.662,0.674 1,1 0.348,0.362 0.731,0.684 1.094,1.031 0.303,0.313 0.593,0.635 0.906,0.938 0.325,0.338 0.662,0.674 1,1 0.302,0.314 0.625,0.603 0.938,0.906 0.347,0.363 0.67,0.745 1.031,1.094 0.325,0.338 0.662,0.674 1,1 0.348,0.362 0.731,0.684 1.094,1.031 0.303,0.313 0.593,0.635 0.906,0.938 0.325,0.338 0.662,0.674 1,1 0.302,0.314 0.625,0.603 0.938,0.906 0.347,0.363 0.67,0.745 1.031,1.094 0.325,0.338 0.662,0.674 1,1 0.348,0.362 0.731,0.684 1.094,1.031 0.303,0.313 0.593,0.635 0.906,0.938 0.325,0.338 0.662,0.674 1,1 0.384,0.399 0.786,0.774 1.188,1.156 0.108,0.11 0.204,0.235 0.313,0.344 0.093,0.086 0.188,0.165 0.281,0.25 0.396,0.419 0.773,0.85 1.188,1.25 0.325,0.338 0.662,0.674 1,1 0.348,0.362 0.731,0.684 1.094,1.031 0.303,0.313 0.593,0.635 0.906,0.938 0.384,0.399 0.786,0.774 1.188,1.156 0.108,0.11 0.204,0.235 0.313,0.344 0.093,0.086 0.188,0.165 0.281,0.25 0.396,0.419 0.773,0.85 1.188,1.25 0.325,0.338 0.662,0.674 1,1 0.348,0.362 0.731,0.684 1.094,1.031 0.303,0.313 0.593,0.635 0.906,0.938 0.325,0.338 0.662,0.674 1,1 0.302,0.314 0.625,0.603 0.938,0.906 0.347,0.363 0.67,0.745 1.031,1.094 0.325,0.338 0.662,0.674 1,1 0.348,0.362 0.731,0.684 1.094,1.031 0.303,0.313 0.593,0.635 0.906,0.938 0.325,0.338 0.662,0.674 1,1 0.302,0.314 0.625,0.603 0.938,0.906 0.347,0.363 0.67,0.745 1.031,1.094 0.325,0.338 0.662,0.674 1,1 0.412,0.428 0.85,0.842 1.281,1.25 0.073,0.074 0.145,0.145 0.219,0.219 0.102,0.095 0.209,0.187 0.313,0.281 0.391,0.413 0.778,0.824 1.188,1.219 0.384,0.399 0.786,0.774 1.188,1.156 0.108,0.11 0.204,0.235 0.313,0.344 0.093,0.086 0.188,0.165 0.281,0.25 0.396,0.419 0.773,0.85 1.188,1.25 0.325,0.338 0.662,0.674 1,1 0.348,0.362 0.731,0.684 1.094,1.031 0.303,0.313 0.593,0.635 0.906,0.938 0.384,0.399 0.786,0.774 1.188,1.156 0.108,0.11 0.204,0.235 0.313,0.344 0.093,0.086 0.188,0.165 0.281,0.25 0.396,0.419 0.773,0.85 1.188,1.25 0.325,0.338 0.662,0.674 1,1 0.348,0.362 0.731,0.684 1.094,1.031 0.149,0.154 0.29,0.314 0.438,0.469 91.41,-12.01 165.05,-80.4 184.84,-169.12 l -0.938,-0.563 0.313,-0.188 -1.313,-0.813 c 0.004,-0.002 0.313,-0.188 0.313,-0.188 -0.001,-10e-4 -1.19,-0.744 -1.25,-0.781 0.003,-0.002 0.281,-0.188 0.281,-0.188 l -1.313,-0.813 c 0.004,-0.002 0.313,-0.188 0.313,-0.188 l -1.313,-0.813 c 0.004,-0.002 0.313,-0.188 0.313,-0.188 l -1.313,-0.813 c 0.004,-0.002 0.313,-0.188 0.313,-0.188 l -1.313,-0.813 c 0.004,-0.002 0.313,-0.188 0.313,-0.188 l -1.313,-0.813 c 0.004,-0.002 0.313,-0.188 0.313,-0.188 -0.001,-10e-4 -1.218,-0.773 -1.281,-0.813 l 0.313,-0.188 c -0.001,0 -1.22,-0.743 -1.281,-0.781 0.003,-0.002 0.281,-0.188 0.281,-0.188 l -1.313,-0.813 c 0.004,-0.002 0.313,-0.188 0.313,-0.188 l -1.313,-0.813 0.313,-0.188 -1.313,-0.813 c 0.004,-0.002 0.313,-0.188 0.313,-0.188 l -1.313,-0.813 c 0.004,-0.002 0.313,-0.188 0.313,-0.188 -0.001,0 -1.218,-0.774 -1.281,-0.813 0.004,-0.002 0.313,-0.188 0.313,-0.188 -10e-4,0 -1.22,-0.743 -1.281,-0.781 0.003,-0.002 0.281,-0.188 0.281,-0.188 l -1.313,-0.813 0.313,-0.188 -1.313,-0.813 c 0.004,-0.002 0.313,-0.188 0.313,-0.188 l -1.313,-0.813 c 0.004,-0.002 0.313,-0.188 0.313,-0.188 l -1.313,-0.813 0.313,-0.188 c -10e-4,0 -1.218,-0.774 -1.281,-0.813 0.004,-0.002 0.313,-0.188 0.313,-0.188 -10e-4,0 -1.22,-0.743 -1.281,-0.781 0.003,-0.002 0.281,-0.188 0.281,-0.188 l -1.313,-0.813 0.313,-0.188 -1.313,-0.813 c 0.004,-0.002 0.313,-0.188 0.313,-0.188 l -1.313,-0.813 c 0.004,-0.002 0.313,-0.188 0.313,-0.188 l -1.313,-0.813 c 0.004,-0.002 0.313,-0.188 0.313,-0.188 l -1.313,-0.813 c 0.004,-0.002 0.313,-0.188 0.313,-0.188 0,0 -1.191,-0.745 -1.25,-0.781 0.003,-0.002 0.281,-0.188 0.281,-0.188 v -0.031 c 0,0 -1.22,-0.743 -1.281,-0.781 0.003,-0.002 0.281,-0.188 0.281,-0.188 l -1.313,-0.813 c 0.004,-0.002 0.313,-0.188 0.313,-0.188 0,0 -1.248,-0.772 -1.313,-0.813 l 0.313,-0.188 -1.313,-0.813 c 0.004,-0.002 0.313,-0.188 0.313,-0.188 l -1.313,-0.813 c 0.004,-0.002 0.313,-0.188 0.313,-0.188 0,0 -1.219,-0.774 -1.281,-0.813 0.004,-0.002 0.313,-0.188 0.313,-0.188 0,0 -1.22,-0.743 -1.281,-0.781 0.003,-0.002 0.281,-0.188 0.281,-0.188 l -1.313,-0.813 c 0.004,-0.002 0.313,-0.188 0.313,-0.188 l -1.313,-0.813 c 0.004,-0.002 0.313,-0.188 0.313,-0.188 l -1.313,-0.813 c 0.004,-0.002 0.313,-0.188 0.313,-0.188 0,0 -1.248,-0.773 -1.313,-0.813 0.004,-0.002 0.313,-0.188 0.313,-0.188 0,0 -1.219,-0.774 -1.281,-0.813 0.004,-0.002 0.313,-0.188 0.313,-0.188 0,0 -1.22,-0.743 -1.281,-0.781 l 0.281,-0.188 -1.313,-0.813 0.313,-0.188 -52.06,-32.25 0.031,2.469 c -0.374,-0.382 -0.761,-0.734 -1.156,-1.094 -0.031,-0.031 -0.062,-0.062 -0.094,-0.094 -0.462,-0.509 -0.94,-0.995 -1.438,-1.469 -0.175,-0.184 -0.352,-0.352 -0.531,-0.531 -0.143,-0.158 -0.291,-0.314 -0.438,-0.469 -0.154,-0.147 -0.311,-0.294 -0.469,-0.438 -0.031,-0.031 -0.062,-0.062 -0.094,-0.094 -0.143,-0.158 -0.291,-0.314 -0.438,-0.469 -0.154,-0.147 -0.311,-0.294 -0.469,-0.438 -0.332,-0.334 -0.652,-0.683 -1,-1 -0.179,-0.18 -0.348,-0.356 -0.531,-0.531 -0.473,-0.498 -0.961,-0.975 -1.469,-1.438 -0.031,-0.031 -0.062,-0.062 -0.094,-0.094 -0.603,-0.664 -1.212,-1.303 -1.875,-1.906 -0.032,-0.032 -0.062,-0.062 -0.094,-0.094 -0.143,-0.158 -0.291,-0.314 -0.438,-0.469 -0.154,-0.147 -0.311,-0.294 -0.469,-0.438 -0.031,-0.031 -0.062,-0.062 -0.094,-0.094 -0.143,-0.158 -0.291,-0.314 -0.438,-0.469 -0.154,-0.147 -0.311,-0.294 -0.469,-0.438 -0.179,-0.18 -0.348,-0.356 -0.531,-0.531 -0.473,-0.498 -0.961,-0.975 -1.469,-1.438 -0.031,-0.031 -0.062,-0.062 -0.094,-0.094 -0.462,-0.509 -0.94,-0.995 -1.438,-1.469 -0.175,-0.184 -0.352,-0.352 -0.531,-0.531 -0.143,-0.158 -0.291,-0.314 -0.438,-0.469 -0.154,-0.147 -0.311,-0.294 -0.469,-0.438 -0.031,-0.031 -0.062,-0.062 -0.094,-0.094 -0.143,-0.158 -0.291,-0.314 -0.438,-0.469 -0.154,-0.147 -0.311,-0.294 -0.469,-0.438 -0.179,-0.18 -0.348,-0.356 -0.531,-0.531 -0.473,-0.498 -0.961,-0.975 -1.469,-1.438 -0.031,-0.031 -0.062,-0.062 -0.094,-0.094 -0.462,-0.509 -0.94,-0.995 -1.438,-1.469 -0.175,-0.184 -0.352,-0.352 -0.531,-0.531 -0.143,-0.158 -0.291,-0.314 -0.438,-0.469 -0.154,-0.147 -0.311,-0.294 -0.469,-0.438 -0.031,-0.031 -0.062,-0.062 -0.094,-0.094 -0.143,-0.158 -0.291,-0.314 -0.438,-0.469 -0.154,-0.147 -0.311,-0.294 -0.469,-0.438 -0.332,-0.334 -0.652,-0.683 -1,-1 -0.331,-0.333 -0.652,-0.652 -1,-0.969 -0.031,-0.031 -0.062,-0.062 -0.094,-0.094 -0.462,-0.509 -0.94,-0.995 -1.438,-1.469 -0.175,-0.184 -0.352,-0.352 -0.531,-0.531 -0.143,-0.158 -0.291,-0.314 -0.438,-0.469 -0.154,-0.147 -0.311,-0.294 -0.469,-0.438 -0.031,-0.031 -0.062,-0.062 -0.094,-0.094 -0.143,-0.158 -0.291,-0.314 -0.438,-0.469 -0.154,-0.147 -0.311,-0.294 -0.469,-0.438 -0.031,-0.031 -0.062,-0.062 -0.094,-0.094 -0.143,-0.158 -0.291,-0.314 -0.438,-0.469 -0.154,-0.147 -0.311,-0.294 -0.469,-0.438 -0.179,-0.18 -0.348,-0.356 -0.531,-0.531 -0.473,-0.498 -0.961,-0.975 -1.469,-1.438 -0.031,-0.031 -0.062,-0.062 -0.094,-0.094 -0.603,-0.664 -1.212,-1.303 -1.875,-1.906 -0.032,-0.032 -0.062,-0.062 -0.094,-0.094 -0.143,-0.158 -0.291,-0.314 -0.438,-0.469 -0.154,-0.147 -0.311,-0.294 -0.469,-0.438 -0.031,-0.031 -0.062,-0.062 -0.094,-0.094 -0.143,-0.158 -0.291,-0.314 -0.438,-0.469 -0.154,-0.147 -0.311,-0.294 -0.469,-0.438 -0.179,-0.18 -0.348,-0.356 -0.531,-0.531 -0.473,-0.498 -0.961,-0.975 -1.469,-1.438 -0.031,-0.031 -0.062,-0.062 -0.094,-0.094 -0.462,-0.509 -0.94,-0.995 -1.438,-1.469 -0.175,-0.184 -0.352,-0.352 -0.531,-0.531 -0.143,-0.158 -0.291,-0.314 -0.438,-0.469 -0.154,-0.147 -0.311,-0.294 -0.469,-0.438 -0.031,-0.031 -0.062,-0.062 -0.094,-0.094 -0.143,-0.158 -0.291,-0.314 -0.438,-0.469 -0.154,-0.147 -0.311,-0.294 -0.469,-0.438 -0.179,-0.18 -0.348,-0.356 -0.531,-0.531 -0.473,-0.498 -0.961,-0.975 -1.469,-1.438 -0.031,-0.031 -0.062,-0.062 -0.094,-0.094 -0.462,-0.509 -0.94,-0.995 -1.438,-1.469 -0.175,-0.184 -0.352,-0.352 -0.531,-0.531 -0.143,-0.158 -0.291,-0.314 -0.438,-0.469 -0.154,-0.147 -0.311,-0.294 -0.469,-0.438 -0.031,-0.031 -0.062,-0.062 -0.094,-0.094 -0.143,-0.158 -0.291,-0.314 -0.438,-0.469 -0.154,-0.147 -0.311,-0.294 -0.469,-0.438 -0.332,-0.334 -0.652,-0.683 -1,-1 -0.331,-0.333 -0.652,-0.652 -1,-0.969 -0.031,-0.031 -0.062,-0.062 -0.094,-0.094 -5.122,-5.644 -12.494,-9.188 -20.719,-9.188"
         inkscape:connector-curvature="0"
         transform="translate(0,540.36)"
         id="path10"
         style="fill-opacity:0.23500001" />
      <path
         d="m 256,541.36 c -140.83,0 -255,114.17 -255,255 0,140.83 114.17,255 255,255 140.83,0 255,-114.17 255,-255 0,-140.83 -114.17,-255 -255,-255 m 8.827,44.931 c 120.9,0 218.9,98 218.9,218.9 0,120.9 -98,218.9 -218.9,218.9 -120.9,0 -218.93,-98 -218.93,-218.9 0,-120.9 98.03,-218.9 218.93,-218.9"
         inkscape:connector-curvature="0"
         id="path12"
         style="fill-opacity:0.06700003" />
      <g
         id="g14"
         style="fill-opacity:0.12900002">
        <path
           d="M 256,544.79 C 117.06,544.79 4.43,657.42 4.43,796.36 4.43,935.3 117.06,1047.93 256,1047.93 394.94,1047.93 507.57,935.3 507.57,796.36 507.57,657.42 394.94,544.79 256,544.79 m 5.885,38.556 c 120.9,0 218.9,98 218.9,218.9 0,120.9 -98,218.9 -218.9,218.9 -120.9,0 -218.93,-98 -218.93,-218.9 0,-120.9 98.03,-218.9 218.93,-218.9"
           inkscape:connector-curvature="0"
           id="path16" />
        <path
           d="M 256,548.72 C 119.23,548.72 8.36,659.59 8.36,796.36 8.36,933.13 119.23,1044 256,1044 392.77,1044 503.64,933.13 503.64,796.36 503.64,659.59 392.77,548.72 256,548.72 m 2.942,31.691 c 120.9,0 218.9,98 218.9,218.9 0,120.9 -98,218.9 -218.9,218.9 -120.9,0 -218.93,-98 -218.93,-218.9 0,-120.9 98.03,-218.9 218.93,-218.9"
           inkscape:connector-curvature="0"
           id="path18" />
      </g>
      <path
         d="M 253.04,548.22 C 117.62,548.22 7.85,658 7.85,793.41 c 0,135.42 109.78,245.19 245.19,245.19 135.42,0 245.19,-109.78 245.19,-245.19 0,-135.42 -109.78,-245.19 -245.19,-245.19 z m 0,26.297 c 120.9,0 218.9,98 218.9,218.9 0,120.9 -98,218.9 -218.9,218.9 -120.9,0 -218.93,-98 -218.93,-218.9 0,-120.9 98.03,-218.9 218.93,-218.9 z"
         inkscape:connector-curvature="0"
         id="path20"
         style="fill:#ffffff;stroke:#000000;stroke-width:4.90399981;stroke-opacity:0.31000001" />
    </g>
    <text
       x="729.64001"
       y="771.71997"
       id="text22"
       style="font-size:129.22999573px;line-height:125%;letter-spacing:0;word-spacing:0;font-family:Gentium Book Basic">
      <tspan
         x="729.64001"
         y="771.71997"
         id="tspan24" />
    </text>
    <text
       x="378.91"
       y="2747.6399"
       transform="scale(4.0128,0.2492)"
       id="text26"
       style="font-size:46.95399857px;text-anchor:middle;font-family:Arial" />
    <text
       x="1310.91"
       y="691.71997"
       id="text28"
       style="font-size:129.22999573px;line-height:125%;letter-spacing:0;word-spacing:0;font-family:Gentium Book Basic">
      <tspan
         x="1310.91"
         y="691.71997"
         id="tspan30" />
    </text>
    <text
       x="523.76001"
       y="2426.6001"
       transform="scale(4.0128,0.2492)"
       id="text32"
       style="font-size:46.95399857px;text-anchor:middle;font-family:Arial" />
    <text
       x="239.33"
       y="510.45999"
       id="text34"
       style="font-size:129.22999573px;line-height:125%;letter-spacing:0;word-spacing:0;font-family:Gentium Book Basic">
      <tspan
         x="239.33"
         y="510.45999"
         id="tspan36" />
    </text>
    <text
       x="256.72"
       y="1699.25"
       transform="scale(4.0128,0.2492)"
       id="text38"
       style="font-size:46.95399857px;text-anchor:middle;font-family:Arial" />
    <text
       x="1337.38"
       y="293.98999"
       id="text40"
       style="font-size:129.22999573px;line-height:125%;letter-spacing:0;word-spacing:0;font-family:Gentium Book Basic">
      <tspan
         x="1337.38"
         y="293.98999"
         id="tspan42" />
    </text>
    <text
       x="530.35999"
       y="830.57001"
       transform="scale(4.0128,0.2492)"
       id="text44"
       style="font-size:46.95399857px;text-anchor:middle;font-family:Arial" />
    <text
       x="1918.65"
       y="213.99001"
       id="text46"
       style="font-size:129.22999573px;line-height:125%;letter-spacing:0;word-spacing:0;font-family:Gentium Book Basic">
      <tspan
         x="1918.65"
         y="213.99001"
         id="tspan48" />
    </text>
    <text
       x="675.21002"
       y="509.54001"
       transform="scale(4.0128,0.2492)"
       id="text50"
       style="font-size:46.95399857px;text-anchor:middle;font-family:Arial" />
    <text
       x="1529.53"
       y="-258.41"
       id="text52"
       style="font-size:129.22999573px;line-height:125%;letter-spacing:0;word-spacing:0;font-family:Gentium Book Basic">
      <tspan
         x="1529.53"
         y="-258.41"
         id="tspan54" />
    </text>
    <text
       x="578.23999"
       y="-1386.12"
       transform="scale(4.0128,0.2492)"
       id="text56"
       style="font-size:46.95399857px;text-anchor:middle;font-family:Arial" />
    <text
       x="2110.79"
       y="-338.42001"
       id="text58"
       style="font-size:129.22999573px;line-height:125%;letter-spacing:0;word-spacing:0;font-family:Gentium Book Basic">
      <tspan
         x="2110.79"
         y="-338.42001"
         id="tspan60" />
    </text>
    <text
       x="723.09003"
       y="-1707.16"
       transform="scale(4.0128,0.2492)"
       id="text62"
       style="font-size:46.95399857px;text-anchor:middle;font-family:Arial" />
    <text
       x="277.98999"
       y="1076.3"
       id="text64"
       style="font-size:208.33000183px;line-height:125%;letter-spacing:0;word-spacing:0;font-family:Gentium Book Basic">
      <tspan
         x="277.98999"
         y="1076.3"
         id="tspan66" />
    </text>
    <path
       d="m 301.52,709.86 c -10.741,0 -20.09,6.04 -24.795,14.907 h -44.39 l -61.834,61.864 h -10.928 c -5.321,-14.302 -19.11,-24.489 -35.26,-24.489 -20.766,0 -37.59,16.824 -37.59,37.59 0,20.766 16.824,37.62 37.59,37.62 16.15,0 29.942,-10.188 35.26,-24.489 h 58.59 l 60.24,60.24 h 47.02 v 9.765 h 43.41 v -45.763 h -43.41 v 9.795 h -36.12 l -34.04,-34.04 h 118.19 l 0.122,19.805 51.701,-32.906 -52.07,-32.23 0.122,19.1 h -144.3 l -0.214,-0.214 -0.214,0.214 h -21.03 l 35.631,-35.631 h 33.519 c 4.706,8.872 14.05,14.907 24.795,14.907 15.482,0 28.01,-12.527 28.01,-28.01 0,-15.482 -12.527,-28.04 -28.01,-28.04"
       inkscape:connector-curvature="0"
       id="path68"
       style="fill:#ffffff;fill-rule:evenodd" />
  </g>
</svg>
