<?xml version="1.0" encoding="UTF-8" standalone="no"?>
<!-- Created with Inkscape (http://www.inkscape.org/) -->

<svg
   xmlns:dc="http://purl.org/dc/elements/1.1/"
   xmlns:cc="http://creativecommons.org/ns#"
   xmlns:rdf="http://www.w3.org/1999/02/22-rdf-syntax-ns#"
   xmlns:svg="http://www.w3.org/2000/svg"
   xmlns="http://www.w3.org/2000/svg"
   xmlns:inkscape="http://www.inkscape.org/namespaces/inkscape"
   version="1.1"
   width="100%"
   height="100%"
   viewBox="0 0 512 512"
   id="svg2">
  <metadata
     id="metadata70">
    <rdf:RDF>
      <cc:Work
         rdf:about="">
        <dc:format>image/svg+xml</dc:format>
        <dc:type
           rdf:resource="http://purl.org/dc/dcmitype/StillImage" />
        <dc:title />
      </cc:Work>
    </rdf:RDF>
  </metadata>
  <defs
     id="defs68">
    <clipPath
       id="clipPath3661">
      <path
         d="m 471.9456,253.05189 c 0,120.89699 -98.00565,218.90724 -218.90724,218.90724 -120.89698,0 -218.90723,-98.00566 -218.90723,-218.90724 0,-120.89698 98.00565,-218.907232 218.90723,-218.907232 120.89699,0 218.90724,98.005652 218.90724,218.907232"
         inkscape:connector-curvature="0"
         id="path3663"
         style="fill:#596f5e;fill-opacity:1;fill-rule:evenodd" />
    </clipPath>
  </defs>
  <path
     d="m 471.9456,253.05189 c 0,120.89699 -98.00565,218.90724 -218.90724,218.90724 -120.89698,0 -218.90723,-98.00566 -218.90723,-218.90724 0,-120.89698 98.00565,-218.907232 218.90723,-218.907232 120.89699,0 218.90724,98.005652 218.90724,218.907232"
     inkscape:connector-curvature="0"
     id="path8"
     style="fill:#596f5e;fill-opacity:1;fill-rule:evenodd" />
  <path
     d="M 256,1 C 115.17,1 1,115.17 1,256 1,396.83 115.17,511 256,511 396.83,511 511,396.83 511,256 511,115.17 396.83,1 256,1 m 8.827,44.931 c 120.9,0 218.9,98 218.9,218.9 0,120.9 -98,218.9 -218.9,218.9 -120.9,0 -218.93,-98 -218.93,-218.9 0,-120.9 98.03,-218.9 218.93,-218.9"
     inkscape:connector-curvature="0"
     id="path10"
     style="fill-opacity:0.06700003;fill-rule:evenodd" />
  <path
     d="M 256,4.43 C 117.06,4.43 4.43,117.06 4.43,256 4.43,394.94 117.06,507.57 256,507.57 394.94,507.57 507.57,394.94 507.57,256 507.57,117.06 394.94,4.43 256,4.43 m 5.885,38.556 c 120.9,0 218.9,98 218.9,218.9 0,120.9 -98,218.9 -218.9,218.9 -120.9,0 -218.93,-98 -218.93,-218.9 0,-120.9 98.03,-218.9 218.93,-218.9"
     inkscape:connector-curvature="0"
     id="path14"
     style="fill-opacity:0.12900002;fill-rule:evenodd" />
  <path
     d="M 256,8.36 C 119.23,8.36 8.36,119.23 8.36,256 8.36,392.77 119.23,503.64 256,503.64 392.77,503.64 503.64,392.77 503.64,256 503.64,119.23 392.77,8.36 256,8.36 m 2.942,31.691 c 120.9,0 218.9,98 218.9,218.9 0,120.9 -98,218.9 -218.9,218.9 -120.9,0 -218.93,-98 -218.93,-218.9 0,-120.9 98.03,-218.9 218.93,-218.9"
     inkscape:connector-curvature="0"
     id="path16"
     style="fill-opacity:0.12900002;fill-rule:evenodd" />
  <path
     d="M 253.04,7.86 C 117.62,7.86 7.85,117.64 7.85,253.05 c 0,135.42 109.78,245.19 245.19,245.19 135.42,0 245.19,-109.78 245.19,-245.19 C 498.23,117.63 388.45,7.86 253.04,7.86 z m 0,26.297 c 120.9,0 218.9,98 218.9,218.9 0,120.9 -98,218.9 -218.9,218.9 -120.9,0 -218.93,-98 -218.93,-218.9 0,-120.9 98.03,-218.9 218.93,-218.9 z"
     inkscape:connector-curvature="0"
     id="path18"
     style="fill:#ffffff;fill-rule:evenodd;stroke:#000000;stroke-width:4.90399981;stroke-opacity:0.31000001" />
  <text
     x="729.64001"
     y="231.35997"
     id="text20"
     style="font-size:129.22999573px;line-height:125%;letter-spacing:0;word-spacing:0;font-family:Gentium Book Basic">
    <tspan
       x="729.64001"
       y="231.35997"
       id="tspan22" />
  </text>
  <text
     x="378.90805"
     y="579.25812"
     transform="scale(4.0128205,0.24920128)"
     id="text24"
     style="font-size:46.95375824px;text-anchor:middle;font-family:Arial" />
  <text
     x="1310.91"
     y="151.35997"
     id="text26"
     style="font-size:129.22999573px;line-height:125%;letter-spacing:0;word-spacing:0;font-family:Gentium Book Basic">
    <tspan
       x="1310.91"
       y="151.35997"
       id="tspan28" />
  </text>
  <text
     x="523.75732"
     y="258.21997"
     transform="scale(4.0128205,0.24920128)"
     id="text30"
     style="font-size:46.95375824px;text-anchor:middle;font-family:Arial" />
  <text
     x="239.33"
     y="-29.900009"
     id="text32"
     style="font-size:129.22999573px;line-height:125%;letter-spacing:0;word-spacing:0;font-family:Gentium Book Basic">
    <tspan
       x="239.33"
       y="-29.900009"
       id="tspan34" />
  </text>
  <text
     x="256.71869"
     y="-469.1264"
     transform="scale(4.0128205,0.24920128)"
     id="text36"
     style="font-size:46.95375824px;text-anchor:middle;font-family:Arial" />
  <text
     x="1337.38"
     y="-246.37001"
     id="text38"
     style="font-size:129.22999573px;line-height:125%;letter-spacing:0;word-spacing:0;font-family:Gentium Book Basic">
    <tspan
       x="1337.38"
       y="-246.37001"
       id="tspan40" />
  </text>
  <text
     x="530.3573"
     y="-1337.802"
     transform="scale(4.0128205,0.24920128)"
     id="text42"
     style="font-size:46.95375824px;text-anchor:middle;font-family:Arial" />
  <text
     x="1918.65"
     y="-326.37"
     id="text44"
     style="font-size:129.22999573px;line-height:125%;letter-spacing:0;word-spacing:0;font-family:Gentium Book Basic">
    <tspan
       x="1918.65"
       y="-326.37"
       id="tspan46" />
  </text>
  <text
     x="675.20654"
     y="-1658.8303"
     transform="scale(4.0128205,0.24920128)"
     id="text48"
     style="font-size:46.95375824px;text-anchor:middle;font-family:Arial" />
  <text
     x="1529.53"
     y="-798.77002"
     id="text50"
     style="font-size:129.22999573px;line-height:125%;letter-spacing:0;word-spacing:0;font-family:Gentium Book Basic">
    <tspan
       x="1529.53"
       y="-798.77002"
       id="tspan52" />
  </text>
  <text
     x="578.237"
     y="-3554.4807"
     transform="scale(4.0128205,0.24920128)"
     id="text54"
     style="font-size:46.95375824px;text-anchor:middle;font-family:Arial" />
  <text
     x="2110.79"
     y="-878.78003"
     id="text56"
     style="font-size:129.22999573px;line-height:125%;letter-spacing:0;word-spacing:0;font-family:Gentium Book Basic">
    <tspan
       x="2110.79"
       y="-878.78003"
       id="tspan58" />
  </text>
  <text
     x="723.0863"
     y="-3875.519"
     transform="scale(4.0128205,0.24920128)"
     id="text60"
     style="font-size:46.95375824px;text-anchor:middle;font-family:Arial" />
  <text
     x="277.98999"
     y="535.94006"
     id="text62"
     style="font-size:208.33000183px;line-height:125%;letter-spacing:0;word-spacing:0;font-family:Gentium Book Basic">
    <tspan
       x="277.98999"
       y="535.94006"
       id="tspan64" />
  </text>
  <text
     x="-1065.9647"
     y="32.781643"
     id="text3046"
     style="font-size:129.22999573px;line-height:125%;letter-spacing:0;word-spacing:0;font-family:Gentium Book Basic">
    <tspan
       x="-1065.9647"
       y="32.781643"
       id="tspan3048" />
  </text>
  <text
     x="-68.555496"
     y="-217.63452"
     transform="scale(4.0128205,0.24920128)"
     id="text3050"
     style="font-size:46.95375824px;text-anchor:middle;font-family:Arial" />
  <text
     x="-484.69476"
     y="-47.223354"
     id="text3052"
     style="font-size:129.22999573px;line-height:125%;letter-spacing:0;word-spacing:0;font-family:Gentium Book Basic">
    <tspan
       x="-484.69476"
       y="-47.223354"
       id="tspan3054" />
  </text>
  <text
     x="76.293755"
     y="-538.65289"
     transform="scale(4.0128205,0.24920128)"
     id="text3056"
     style="font-size:46.95375824px;text-anchor:middle;font-family:Arial" />
  <text
     x="-1556.2748"
     y="-228.48836"
     id="text3058"
     style="font-size:129.22999573px;line-height:125%;letter-spacing:0;word-spacing:0;font-family:Gentium Book Basic">
    <tspan
       x="-1556.2748"
       y="-228.48836"
       id="tspan3060" />
  </text>
  <text
     x="-190.74887"
     y="-1266.0092"
     transform="scale(4.0128205,0.24920128)"
     id="text3062"
     style="font-size:46.95375824px;text-anchor:middle;font-family:Arial" />
  <text
     x="-458.22479"
     y="-444.94836"
     id="text3064"
     style="font-size:129.22999573px;line-height:125%;letter-spacing:0;word-spacing:0;font-family:Gentium Book Basic">
    <tspan
       x="-458.22479"
       y="-444.94836"
       id="tspan3066" />
  </text>
  <text
     x="82.88372"
     y="-2134.6748"
     transform="scale(4.0128205,0.24920128)"
     id="text3068"
     style="font-size:46.95375824px;text-anchor:middle;font-family:Arial" />
  <text
     x="123.04523"
     y="-524.95837"
     id="text3070"
     style="font-size:129.22999573px;line-height:125%;letter-spacing:0;word-spacing:0;font-family:Gentium Book Basic">
    <tspan
       x="123.04523"
       y="-524.95837"
       id="tspan3072" />
  </text>
  <text
     x="227.73299"
     y="-2455.7029"
     transform="scale(4.0128205,0.24920128)"
     id="text3074"
     style="font-size:46.95375824px;text-anchor:middle;font-family:Arial" />
  <text
     x="-266.0748"
     y="-997.35834"
     id="text3076"
     style="font-size:129.22999573px;line-height:125%;letter-spacing:0;word-spacing:0;font-family:Gentium Book Basic">
    <tspan
       x="-266.0748"
       y="-997.35834"
       id="tspan3078" />
  </text>
  <text
     x="130.76347"
     y="-4351.3535"
     transform="scale(4.0128205,0.24920128)"
     id="text3080"
     style="font-size:46.95375824px;text-anchor:middle;font-family:Arial" />
  <text
     x="315.18524"
     y="-1077.3583"
     id="text3082"
     style="font-size:129.22999573px;line-height:125%;letter-spacing:0;word-spacing:0;font-family:Gentium Book Basic">
    <tspan
       x="315.18524"
       y="-1077.3583"
       id="tspan3084" />
  </text>
  <text
     x="275.61273"
     y="-4672.3716"
     transform="scale(4.0128205,0.24920128)"
     id="text3086"
     style="font-size:46.95375824px;text-anchor:middle;font-family:Arial" />
  <text
     x="-1517.6147"
     y="337.36163"
     id="text3088"
     style="font-size:208.33000183px;line-height:125%;letter-spacing:0;word-spacing:0;font-family:Gentium Book Basic">
    <tspan
       x="-1517.6147"
       y="337.36163"
       id="tspan3090" />
  </text>
  <g
     clip-path="url(#clipPath3661)"
     id="g3437"
     style="opacity:0.25;fill:#000000">
    <path
       d="m 200.91785,281.93675 -31.15,-53.95 388.90873,388.90873 31.15,53.95 z"
       inkscape:connector-curvature="0"
       id="path3439"
       style="fill:#000000" />
    <path
       d="m 169.76785,227.98675 c -30.03,30.985 -30.415,61 -21.977,84.62 l 388.90873,388.90873 c -8.438,-23.62 -8.053,-53.635 21.977,-84.62 z"
       inkscape:connector-curvature="0"
       id="path3441"
       style="fill:#000000" />
    <path
       d="m 147.79085,312.60675 53.13,-30.672 388.90873,388.90873 -53.13,30.672 z"
       inkscape:connector-curvature="0"
       id="path3443"
       style="fill:#000000" />
    <path
       d="m 195.06485,173.30475 c 1.559,-0.937 3.127,-1.865 4.713,-2.78 l 388.90873,388.90873 c -1.586,0.915 -3.154,1.843 -4.713,2.78 z"
       inkscape:connector-curvature="0"
       id="path3445"
       style="fill:#000000" />
    <path
       d="m 199.77785,170.52475 c 43.842,-25.312 89.98,-37.05 129.14,-35.562 l 388.90873,388.90873 c -39.16,-1.488 -85.298,10.25 -129.14,35.562 z"
       inkscape:connector-curvature="0"
       id="path3447"
       style="fill:#000000" />
    <path
       d="m 328.91785,134.96275 c 31.07046,1.17823 57.74687,10.67936 75.39408,28.32657 l 388.90873,388.90873 c -17.64721,-17.64721 -44.32362,-27.14834 -75.39408,-28.32657 z"
       inkscape:connector-curvature="0"
       id="path3449"
       style="fill:#000000" />
    <path
       d="m 404.31193,163.28932 c 4.59465,4.59465 8.57722,9.7415 11.86592,15.43743 l 388.90873,388.90873 c -3.2887,-5.69593 -7.27127,-10.84278 -11.86592,-15.43743 z"
       inkscape:connector-curvature="0"
       id="path3451"
       style="fill:#000000" />
    <path
       d="m 416.17785,178.72675 c 3.214,5.567 5.638,11.441 7.319,17.559 l 388.90873,388.90873 c -1.681,-6.118 -4.105,-11.992 -7.319,-17.559 z"
       inkscape:connector-curvature="0"
       id="path3453"
       style="fill:#000000" />
    <path
       d="m 423.49685,196.28575 -7.594,4.384 388.90873,388.90873 7.594,-4.384 z"
       inkscape:connector-curvature="0"
       id="path3455"
       style="fill:#000000" />
    <path
       d="m 415.90285,200.66975 -48.631,28.08 388.90873,388.90873 48.631,-28.08 z"
       inkscape:connector-curvature="0"
       id="path3457"
       style="fill:#000000" />
    <path
       d="m 367.27185,228.74975 -95.67,55.24 388.90873,388.90873 95.67,-55.24 z"
       inkscape:connector-curvature="0"
       id="path3459"
       style="fill:#000000" />
    <path
       d="m 271.60185,283.98975 -5.624,-9.741 388.90873,388.90873 5.624,9.741 z"
       inkscape:connector-curvature="0"
       id="path3461"
       style="fill:#000000" />
    <path
       d="m 265.97785,274.24875 -12.937,-22.408 388.90873,388.90873 12.937,22.408 z"
       inkscape:connector-curvature="0"
       id="path3463"
       style="fill:#000000" />
    <path
       d="m 253.04085,251.84075 -28.813,-49.906 388.90873,388.90873 28.813,49.906 z"
       inkscape:connector-curvature="0"
       id="path3465"
       style="fill:#000000" />
    <path
       d="m 224.22785,201.93475 c 17.574,-9.695 32.852,-15.574 46.15,-18.567 l 388.90873,388.90873 c -13.298,2.993 -28.576,8.872 -46.15,18.567 z"
       inkscape:connector-curvature="0"
       id="path3467"
       style="fill:#000000" />
    <path
       d="m 270.37785,183.36775 25.317,43.85 388.90873,388.90873 -25.317,-43.85 z"
       inkscape:connector-curvature="0"
       id="path3469"
       style="fill:#000000" />
    <path
       d="m 295.69485,227.21775 53.12,-30.667 388.90873,388.90873 -53.12,30.667 z"
       inkscape:connector-curvature="0"
       id="path3471"
       style="fill:#000000" />
    <path
       d="m 348.81485,196.55075 c -1.50031,-1.76698 -3.08553,-3.49597 -4.76017,-5.17061 l 388.90873,388.90873 c 1.67464,1.67464 3.25986,3.40363 4.76017,5.17061 z"
       inkscape:connector-curvature="0"
       id="path3473"
       style="fill:#000000" />
    <path
       d="m 344.05468,191.38014 c -22.8794,-22.8794 -62.44949,-35.61406 -130.20983,3.50561 l 388.90873,388.90873 c 67.76034,-39.11967 107.33043,-26.38501 130.20983,-3.50561 z"
       inkscape:connector-curvature="0"
       id="path3475"
       style="fill:#000000" />
    <path
       d="m 213.84485,194.88575 c -1.604,0.926 -3.177,1.854 -4.714,2.781 l 388.90873,388.90873 c 1.537,-0.927 3.11,-1.855 4.714,-2.781 z"
       inkscape:connector-curvature="0"
       id="path3477"
       style="fill:#000000" />
    <path
       d="m 209.13085,197.66675 34.439,59.65 388.90873,388.90873 -34.439,-59.65 z"
       inkscape:connector-curvature="0"
       id="path3479"
       style="fill:#000000" />
    <path
       d="m 243.56985,257.31675 18.564,32.15 388.90873,388.90873 -18.564,-32.15 z"
       inkscape:connector-curvature="0"
       id="path3481"
       style="fill:#000000" />
    <path
       d="m 262.13385,289.46675 -42.644,24.621 388.90873,388.90873 42.644,-24.621 z"
       inkscape:connector-curvature="0"
       id="path3483"
       style="fill:#000000" />
    <path
       d="m 219.48985,314.08775 -53.03,30.617 388.90873,388.90873 53.03,-30.617 z"
       inkscape:connector-curvature="0"
       id="path3485"
       style="fill:#000000" />
    <path
       d="m 166.45985,344.70475 -47.664,27.519 388.90873,388.90873 47.664,-27.519 z"
       inkscape:connector-curvature="0"
       id="path3487"
       style="fill:#000000" />
    <path
       d="m 118.79585,372.22375 -8.555,4.939 388.90873,388.90873 8.555,-4.939 z"
       inkscape:connector-curvature="0"
       id="path3489"
       style="fill:#000000" />
    <path
       d="m 110.24085,377.16275 c -4.46,-4.514 -8.336,-9.555 -11.546997,-15.12 L 487.60258,750.95148 c 3.211,5.565 7.087,10.606 11.547,15.12 z"
       inkscape:connector-curvature="0"
       id="path3491"
       style="fill:#000000" />
    <path
       d="m 98.693853,362.04275 c -15.921,-27.575 -12.564,-62.793 5.728997,-97.45 l 388.90873,388.90873 c -18.293,34.657 -21.65,69.875 -5.729,97.45 z"
       inkscape:connector-curvature="0"
       id="path3493"
       style="fill:#000000" />
    <path
       d="m 104.42285,264.59275 c 11.406,-21.608 28.622,-42.997 50.59,-62.17 l 388.90873,388.90873 c -21.968,19.173 -39.184,40.562 -50.59,62.17 z"
       inkscape:connector-curvature="0"
       id="path3495"
       style="fill:#000000" />
    <path
       d="m 155.01285,202.42275 -17.15,-29.699 388.90873,388.90873 17.15,29.699 z"
       inkscape:connector-curvature="0"
       id="path3497"
       style="fill:#000000" />
    <path
       d="m 137.86285,172.72375 c 12.359,-10.34 25.855,-19.957 40.33,-28.635 l 388.90873,388.90873 c -14.475,8.678 -27.971,18.295 -40.33,28.635 z"
       inkscape:connector-curvature="0"
       id="path3499"
       style="fill:#000000" />
    <path
       d="m 178.19285,144.08875 16.876,29.23 388.90873,388.90873 -16.876,-29.23 z"
       inkscape:connector-curvature="0"
       id="path3501"
       style="fill:#000000" />
  </g>
  <path
     d="m 200.91785,281.93675 -31.15,-53.95 c -30.03,30.985 -30.415,61 -21.977,84.62 l 53.13,-30.672 m -5.856,-108.63 c 1.559,-0.937 3.127,-1.865 4.713,-2.78 43.842,-25.312 89.98,-37.05 129.14,-35.562 39.16,1.485 71.34,16.191 87.26,43.764 3.214,5.567 5.638,11.441 7.319,17.559 l -7.594,4.384 -48.631,28.08 -95.67,55.24 -5.624,-9.741 -12.937,-22.408 -28.813,-49.906 c 17.574,-9.695 32.852,-15.574 46.15,-18.567 l 25.317,43.85 53.12,-30.667 c -21.998,-25.908 -62.25,-43.648 -134.97,-1.665 -1.604,0.926 -3.177,1.854 -4.714,2.781 l 34.439,59.65 18.564,32.15 -42.644,24.621 -53.03,30.617 -47.664,27.519 -8.555,4.939 c -4.46,-4.514 -8.336,-9.555 -11.546997,-15.12 -15.921,-27.575 -12.564,-62.793 5.728997,-97.45 11.406,-21.608 28.622,-42.997 50.59,-62.17 l -17.15,-29.699 c 12.359,-10.34 25.855,-19.957 40.33,-28.635 l 16.876,29.23"
     inkscape:connector-curvature="0"
     id="path3096"
     style="fill:#ffffff" />
</svg>
