<?xml version="1.0" encoding="UTF-8" standalone="no"?>
<svg
   xmlns:dc="http://purl.org/dc/elements/1.1/"
   xmlns:cc="http://creativecommons.org/ns#"
   xmlns:rdf="http://www.w3.org/1999/02/22-rdf-syntax-ns#"
   xmlns:svg="http://www.w3.org/2000/svg"
   xmlns="http://www.w3.org/2000/svg"
   xmlns:xlink="http://www.w3.org/1999/xlink"
   xmlns:sodipodi="http://sodipodi.sourceforge.net/DTD/sodipodi-0.dtd"
   xmlns:inkscape="http://www.inkscape.org/namespaces/inkscape"
   viewBox="0 0 512 512"
   id="svg2"
   version="1.1"
   inkscape:version="0.48.5 r10040"
   width="100%"
   height="100%"
   sodipodi:docname="DeSmuME.svg">
  <sodipodi:namedview
     pagecolor="#ffffff"
     bordercolor="#666666"
     borderopacity="1"
     objecttolerance="10"
     gridtolerance="10"
     guidetolerance="10"
     inkscape:pageopacity="0"
     inkscape:pageshadow="2"
     inkscape:window-width="1307"
     inkscape:window-height="748"
     id="namedview66"
     showgrid="false"
     inkscape:zoom="0.65186406"
     inkscape:cx="351.96688"
     inkscape:cy="194.62789"
     inkscape:window-x="57"
     inkscape:window-y="-3"
     inkscape:window-maximized="1"
     inkscape:current-layer="svg2" />
  <metadata
     id="metadata70">
    <rdf:RDF>
      <cc:Work
         rdf:about="">
        <dc:format>image/svg+xml</dc:format>
        <dc:type
           rdf:resource="http://purl.org/dc/dcmitype/StillImage" />
        <dc:title></dc:title>
      </cc:Work>
    </rdf:RDF>
  </metadata>
  <defs
     id="defs68">
    <clipPath
       clipPathUnits="userSpaceOnUse"
       id="clipPath3329">
      <path
         d="m 471.9456,253.05189 c 0,120.89699 -98.00565,218.90724 -218.90724,218.90724 -120.89698,0 -218.90723,-98.00566 -218.90723,-218.90724 0,-120.89698 98.00565,-218.907232 218.90723,-218.907232 120.89699,0 218.90724,98.005652 218.90724,218.907232"
         id="path3331"
         inkscape:connector-curvature="0"
         style="fill:#924565;fill-rule:evenodd" />
    </clipPath>
    <clipPath
       id="clipPath3652"
       clipPathUnits="userSpaceOnUse">
      <path
         d="m 471.9456,253.05189 c 0,120.89699 -98.00565,218.90724 -218.90724,218.90724 -120.89698,0 -218.90723,-98.00566 -218.90723,-218.90724 0,-120.89698 98.00565,-218.907232 218.90723,-218.907232 120.89699,0 218.90724,98.005652 218.90724,218.907232"
         id="path3654"
         inkscape:connector-curvature="0"
         style="fill:#e75177;fill-rule:evenodd" />
    </clipPath>
    <linearGradient
       inkscape:collect="always"
       xlink:href="#linearGradient4001"
       id="linearGradient4007"
       x1="22.45064"
       y1="1049.29"
       x2="22.45064"
       y2="1007.3755"
       gradientUnits="userSpaceOnUse"
       gradientTransform="matrix(0.95237789,0,0,0.95237799,1.1428685,48.972576)" />
    <linearGradient
       inkscape:collect="always"
       id="linearGradient4001">
      <stop
         style="stop-color:#c0bebe;stop-opacity:1"
         offset="0"
         id="stop4003" />
      <stop
         style="stop-color:#f2f7f7;stop-opacity:1"
         offset="1"
         id="stop4005" />
    </linearGradient>
    <linearGradient
       inkscape:collect="always"
       xlink:href="#linearGradient2785"
       id="linearGradient2791"
       x1="24.218407"
       y1="1006.577"
       x2="24.218407"
       y2="1014.4436"
       gradientUnits="userSpaceOnUse"
       gradientTransform="translate(0,2)" />
    <linearGradient
       y2="35.375"
       x2="64.5"
       y1="35.375"
       x1="-15.000001"
       gradientTransform="matrix(0,-0.1197917,0.87499999,0,-6.95295,1013.8218)"
       gradientUnits="userSpaceOnUse"
       id="linearGradient1476"
       xlink:href="#linearGradient6194"
       inkscape:collect="always" />
    <linearGradient
       x1="0"
       y1="0"
       x2="1"
       y2="0"
       gradientUnits="userSpaceOnUse"
       gradientTransform="matrix(13.526835,20.525875,20.525875,-13.526835,19.18986,1021.0543)"
       spreadMethod="pad"
       id="linearGradient6194">
      <stop
         style="stop-opacity:1;stop-color:#ffffff"
         offset="0"
         id="stop6196" />
      <stop
         style="stop-opacity:1;stop-color:#29282b"
         offset="0.168498"
         id="stop6198" />
      <stop
         style="stop-opacity:1;stop-color:#868c95"
         offset="0.263736"
         id="stop6200" />
      <stop
         style="stop-opacity:1;stop-color:#92979f"
         offset="0.395604"
         id="stop6202" />
      <stop
         style="stop-opacity:1;stop-color:#737881"
         offset="0.542125"
         id="stop6204" />
      <stop
         style="stop-opacity:1;stop-color:#70757e"
         offset="0.626374"
         id="stop6206" />
      <stop
         style="stop-opacity:1;stop-color:#e4e6e8"
         offset="0.717949"
         id="stop6208" />
      <stop
         style="stop-opacity:1;stop-color:#ffffff"
         offset="0.791209"
         id="stop6210" />
      <stop
         style="stop-opacity:1;stop-color:#1d191a"
         offset="1"
         id="stop6212" />
    </linearGradient>
    <linearGradient
       gradientTransform="translate(-63.327689,-9.7643169)"
       gradientUnits="userSpaceOnUse"
       y2="-994.90985"
       x2="88.429985"
       y1="-1042.1093"
       x1="88.429985"
       id="linearGradient929"
       xlink:href="#linearGradient3795-1"
       inkscape:collect="always" />
    <linearGradient
       id="linearGradient3795-1">
      <stop
         id="stop3797-1"
         offset="0"
         style="stop-color:#c58624;stop-opacity:1" />
      <stop
         id="stop3799-3"
         offset="1"
         style="stop-color:#e09825;stop-opacity:1" />
    </linearGradient>
    <linearGradient
       inkscape:collect="always"
       id="linearGradient2785">
      <stop
         style="stop-color:#000000;stop-opacity:1;"
         offset="0"
         id="stop2787" />
      <stop
         style="stop-color:#000000;stop-opacity:0;"
         offset="1"
         id="stop2789" />
    </linearGradient>
    <linearGradient
       y2="-994.90985"
       x2="88.429985"
       y1="-1042.1093"
       x1="88.429985"
       gradientTransform="matrix(4.6158187,0,0,4.6158187,-526.74978,4527.0191)"
       gradientUnits="userSpaceOnUse"
       id="linearGradient4520"
       xlink:href="#linearGradient3795-1"
       inkscape:collect="always" />
    <clipPath
       clipPathUnits="userSpaceOnUse"
       id="clipPath4772">
      <path
         d="m 471.9456,253.05189 c 0,120.89699 -98.00565,218.90724 -218.90724,218.90724 -120.89698,0 -218.90723,-98.00566 -218.90723,-218.90724 0,-120.89698 98.00565,-218.907232 218.90723,-218.907232 120.89699,0 218.90724,98.005652 218.90724,218.907232"
         id="path4774"
         inkscape:connector-curvature="0"
         style="fill:#68af4c;fill-rule:evenodd" />
    </clipPath>
  </defs>
  <path
     style="fill:#68af4c;fill-rule:evenodd"
     inkscape:connector-curvature="0"
     id="path8"
     d="m 471.9456,253.05189 c 0,120.89699 -98.00565,218.90724 -218.90724,218.90724 -120.89698,0 -218.90723,-98.00566 -218.90723,-218.90724 0,-120.89698 98.00565,-218.907232 218.90723,-218.907232 120.89699,0 218.90724,98.005652 218.90724,218.907232" />
  <path
     style="fill-opacity:0.06700003;fill-rule:evenodd"
     inkscape:connector-curvature="0"
     id="path10"
     d="M 256,1 C 115.17,1 1,115.17 1,256 1,396.83 115.17,511 256,511 396.83,511 511,396.83 511,256 511,115.17 396.83,1 256,1 m 8.827,44.931 c 120.9,0 218.9,98 218.9,218.9 0,120.9 -98,218.9 -218.9,218.9 -120.9,0 -218.93,-98 -218.93,-218.9 0,-120.9 98.03,-218.9 218.93,-218.9" />
  <path
     d="M 256,4.43 C 117.06,4.43 4.43,117.06 4.43,256 4.43,394.94 117.06,507.57 256,507.57 394.94,507.57 507.57,394.94 507.57,256 507.57,117.06 394.94,4.43 256,4.43 m 5.885,38.556 c 120.9,0 218.9,98 218.9,218.9 0,120.9 -98,218.9 -218.9,218.9 -120.9,0 -218.93,-98 -218.93,-218.9 0,-120.9 98.03,-218.9 218.93,-218.9"
     id="path14"
     inkscape:connector-curvature="0"
     style="fill-opacity:0.12900002;fill-rule:evenodd" />
  <path
     d="M 256,8.36 C 119.23,8.36 8.36,119.23 8.36,256 8.36,392.77 119.23,503.64 256,503.64 392.77,503.64 503.64,392.77 503.64,256 503.64,119.23 392.77,8.36 256,8.36 m 2.942,31.691 c 120.9,0 218.9,98 218.9,218.9 0,120.9 -98,218.9 -218.9,218.9 -120.9,0 -218.93,-98 -218.93,-218.9 0,-120.9 98.03,-218.9 218.93,-218.9"
     id="path16"
     inkscape:connector-curvature="0"
     style="fill-opacity:0.12900002;fill-rule:evenodd" />
  <path
     style="fill:#ffffff;fill-rule:evenodd;stroke:#000000;stroke-width:4.90399981;stroke-opacity:0.31000001"
     inkscape:connector-curvature="0"
     id="path18"
     d="M 253.04,7.86 C 117.62,7.86 7.85,117.64 7.85,253.05 c 0,135.42 109.78,245.19 245.19,245.19 135.42,0 245.19,-109.78 245.19,-245.19 C 498.23,117.63 388.45,7.86 253.04,7.86 z m 0,26.297 c 120.9,0 218.9,98 218.9,218.9 0,120.9 -98,218.9 -218.9,218.9 -120.9,0 -218.93,-98 -218.93,-218.9 0,-120.9 98.03,-218.9 218.93,-218.9 z" />
  <text
     font-size="129.23"
     letter-spacing="0"
     line-height="125%"
     word-spacing="0"
     x="729.64001"
     y="231.35997"
     id="text20"
     sodipodi:linespacing="125%"
     style="font-size:129.22999573px;line-height:125%;letter-spacing:0;word-spacing:0;font-family:Gentium Book Basic">
    <tspan
       x="729.64001"
       y="231.35997"
       id="tspan22" />
  </text>
  <text
     x="378.90805"
     y="579.25812"
     font-size="46.954"
     transform="scale(4.0128205,0.24920128)"
     id="text24"
     style="font-size:46.95375824px;text-anchor:middle;font-family:Arial" />
  <text
     font-size="129.23"
     letter-spacing="0"
     line-height="125%"
     word-spacing="0"
     x="1310.91"
     y="151.35997"
     id="text26"
     sodipodi:linespacing="125%"
     style="font-size:129.22999573px;line-height:125%;letter-spacing:0;word-spacing:0;font-family:Gentium Book Basic">
    <tspan
       x="1310.91"
       y="151.35997"
       id="tspan28" />
  </text>
  <text
     x="523.75732"
     y="258.21997"
     font-size="46.954"
     transform="scale(4.0128205,0.24920128)"
     id="text30"
     style="font-size:46.95375824px;text-anchor:middle;font-family:Arial" />
  <text
     font-size="129.23"
     letter-spacing="0"
     line-height="125%"
     word-spacing="0"
     x="239.33"
     y="-29.900009"
     id="text32"
     sodipodi:linespacing="125%"
     style="font-size:129.22999573px;line-height:125%;letter-spacing:0;word-spacing:0;font-family:Gentium Book Basic">
    <tspan
       x="239.33"
       y="-29.900009"
       id="tspan34" />
  </text>
  <text
     x="256.71869"
     y="-469.1264"
     font-size="46.954"
     transform="scale(4.0128205,0.24920128)"
     id="text36"
     style="font-size:46.95375824px;text-anchor:middle;font-family:Arial" />
  <text
     font-size="129.23"
     letter-spacing="0"
     line-height="125%"
     word-spacing="0"
     x="1337.38"
     y="-246.37001"
     id="text38"
     sodipodi:linespacing="125%"
     style="font-size:129.22999573px;line-height:125%;letter-spacing:0;word-spacing:0;font-family:Gentium Book Basic">
    <tspan
       x="1337.38"
       y="-246.37001"
       id="tspan40" />
  </text>
  <text
     x="530.3573"
     y="-1337.802"
     font-size="46.954"
     transform="scale(4.0128205,0.24920128)"
     id="text42"
     style="font-size:46.95375824px;text-anchor:middle;font-family:Arial" />
  <text
     font-size="129.23"
     letter-spacing="0"
     line-height="125%"
     word-spacing="0"
     x="1918.65"
     y="-326.37"
     id="text44"
     sodipodi:linespacing="125%"
     style="font-size:129.22999573px;line-height:125%;letter-spacing:0;word-spacing:0;font-family:Gentium Book Basic">
    <tspan
       x="1918.65"
       y="-326.37"
       id="tspan46" />
  </text>
  <text
     x="675.20654"
     y="-1658.8303"
     font-size="46.954"
     transform="scale(4.0128205,0.24920128)"
     id="text48"
     style="font-size:46.95375824px;text-anchor:middle;font-family:Arial" />
  <text
     font-size="129.23"
     letter-spacing="0"
     line-height="125%"
     word-spacing="0"
     x="1529.53"
     y="-798.77002"
     id="text50"
     sodipodi:linespacing="125%"
     style="font-size:129.22999573px;line-height:125%;letter-spacing:0;word-spacing:0;font-family:Gentium Book Basic">
    <tspan
       x="1529.53"
       y="-798.77002"
       id="tspan52" />
  </text>
  <text
     x="578.237"
     y="-3554.4807"
     font-size="46.954"
     transform="scale(4.0128205,0.24920128)"
     id="text54"
     style="font-size:46.95375824px;text-anchor:middle;font-family:Arial" />
  <text
     font-size="129.23"
     letter-spacing="0"
     line-height="125%"
     word-spacing="0"
     x="2110.79"
     y="-878.78003"
     id="text56"
     sodipodi:linespacing="125%"
     style="font-size:129.22999573px;line-height:125%;letter-spacing:0;word-spacing:0;font-family:Gentium Book Basic">
    <tspan
       x="2110.79"
       y="-878.78003"
       id="tspan58" />
  </text>
  <text
     x="723.0863"
     y="-3875.519"
     font-size="46.954"
     transform="scale(4.0128205,0.24920128)"
     id="text60"
     style="font-size:46.95375824px;text-anchor:middle;font-family:Arial" />
  <text
     font-size="208.33"
     letter-spacing="0"
     line-height="125%"
     word-spacing="0"
     x="277.98999"
     y="535.94006"
     id="text62"
     sodipodi:linespacing="125%"
     style="font-size:208.33000183px;line-height:125%;letter-spacing:0;word-spacing:0;font-family:Gentium Book Basic">
    <tspan
       x="277.98999"
       y="535.94006"
       id="tspan64" />
  </text>
  <g
     style="fill:#000000;opacity:0.25"
     id="g4584"
     clip-path="url(#clipPath4772)">
    <path
       inkscape:connector-curvature="0"
       d="m 198.76683,371.15827 c -19.30926,19.07006 -49.74327,18.08839 -68.79664,-0.7037 L 518.87892,759.3633 c 19.05337,18.79209 49.48738,19.77376 68.79664,0.7037 z"
       id="path4586"
       style="fill:#000000" />
    <path
       inkscape:connector-curvature="0"
       d="m 129.97019,370.45457 c -0.0405,-0.0402 -0.0808,-0.0804 -0.12114,-0.12074 l 388.90873,388.90873 c 0.0403,0.0403 0.0807,0.0805 0.12114,0.12074 z"
       id="path4588"
       style="fill:#000000" />
    <path
       inkscape:connector-curvature="0"
       d="m 129.84905,370.33383 c -18.86202,-18.86203 -19.8151,-48.92517 -0.60319,-68.0096 l 388.90873,388.90873 c -19.21191,19.08443 -18.25883,49.14757 0.60319,68.0096 z"
       id="path4590"
       style="fill:#000000" />
    <path
       inkscape:connector-curvature="0"
       d="M 129.24586,302.32423 288.11376,144.99739 677.02249,533.90612 518.15459,691.23296 z"
       id="path4592"
       style="fill:#000000" />
    <path
       inkscape:connector-curvature="0"
       d="m 288.11376,144.99739 c 25.11208,-24.78875 64.62613,-23.53501 89.45673,0.97344 l 388.90873,388.90873 c -24.8306,-24.50845 -64.34465,-25.76219 -89.45673,-0.97344 z"
       id="path4594"
       style="fill:#000000" />
    <path
       inkscape:connector-curvature="0"
       d="m 377.57049,145.97083 c 0.0457,0.0455 0.0914,0.091 0.13692,0.13653 l 388.90873,388.90873 c -0.0456,-0.0456 -0.0912,-0.0911 -0.13692,-0.13653 z"
       id="path4596"
       style="fill:#000000" />
    <path
       inkscape:connector-curvature="0"
       d="m 377.70741,146.10736 c 24.61379,24.61379 25.82492,63.64517 0.85011,88.46773 l 388.90873,388.90873 c 24.97481,-24.82256 23.76368,-63.85394 -0.85011,-88.46773 z"
       id="path4598"
       style="fill:#000000" />
    <path
       inkscape:connector-curvature="0"
       d="M 378.55752,234.57509 246.16683,365.68119 635.07556,754.58992 767.46625,623.48382 z"
       id="path4600"
       style="fill:#000000" />
    <path
       inkscape:connector-curvature="0"
       d="m 246.16683,365.68119 c -2.92358,2.90038 -7.66355,2.90038 -10.57587,0 l 388.90873,388.90873 c 2.91232,2.90038 7.65229,2.90038 10.57587,0 z"
       id="path4602"
       style="fill:#000000" />
    <path
       inkscape:connector-curvature="0"
       d="m 235.59096,365.68119 c -0.0102,-0.0101 -0.0204,-0.0202 -0.0305,-0.0303 l 388.90873,388.90873 c 0.0101,0.0101 0.0203,0.0202 0.0305,0.0303 z"
       id="path4604"
       style="fill:#000000" />
    <path
       inkscape:connector-curvature="0"
       d="m 235.56048,365.65088 c -2.89688,-2.89688 -2.89789,-7.56441 0.0203,-10.45003 l 388.90873,388.90873 c -2.91817,2.88562 -2.91716,7.55315 -0.0203,10.45003 z"
       id="path4606"
       style="fill:#000000" />
    <path
       inkscape:connector-curvature="0"
       d="M 235.58076,355.20085 367.95977,224.07951 756.8685,612.98824 624.48949,744.10958 z"
       id="path4608"
       style="fill:#000000" />
    <path
       inkscape:connector-curvature="0"
       d="m 367.95977,224.07951 c 19.05474,-18.89188 18.29681,-48.34733 -0.94751,-67.59165 l 388.90873,388.90873 c 19.24432,19.24432 20.00225,48.69977 0.94751,67.59165 z"
       id="path4610"
       style="fill:#000000" />
    <path
       inkscape:connector-curvature="0"
       d="m 367.01226,156.48786 c -0.0107,-0.0107 -0.0214,-0.0214 -0.0321,-0.032 l 388.90873,388.90873 c 0.0107,0.0107 0.0214,0.0214 0.032,0.032 z"
       id="path4612"
       style="fill:#000000" />
    <path
       inkscape:connector-curvature="0"
       d="m 366.98021,156.45584 c -19.40685,-19.07827 -49.18032,-19.8324 -68.27825,-0.96172 l 388.90873,388.90873 c 19.09793,-18.87068 48.8714,-18.11655 68.27825,0.96172 z"
       id="path4614"
       style="fill:#000000" />
    <path
       inkscape:connector-curvature="0"
       d="M 298.70196,155.49412 139.83409,312.81043 528.74282,701.71916 687.61069,544.40285 z"
       id="path4616"
       style="fill:#000000" />
    <path
       inkscape:connector-curvature="0"
       d="m 139.83409,312.81043 c -13.25927,13.18601 -12.76387,33.66463 0.72432,47.15677 l 388.90873,388.90873 c -13.48819,-13.49214 -13.98359,-33.97076 -0.72432,-47.15677 z"
       id="path4618"
       style="fill:#000000" />
    <path
       inkscape:connector-curvature="0"
       d="m 140.55841,359.9672 c 13.64581,13.38188 34.30684,13.85217 47.63224,0.73888 l 388.90873,388.90873 c -13.3254,13.11329 -33.98643,12.643 -47.63224,-0.73888 z"
       id="path4620"
       style="fill:#000000" />
    <path
       inkscape:connector-curvature="0"
       d="M 188.19065,360.70608 320.5696,229.607 709.47833,618.51573 577.09938,749.61481 z"
       id="path4622"
       style="fill:#000000" />
    <path
       inkscape:connector-curvature="0"
       d="m 320.5696,229.607 c 6.88294,-6.80822 6.6315,-17.80928 -1.077,-25.60031 l 388.90873,388.90873 c 7.7085,7.79103 7.95994,18.79209 1.077,25.60031 z"
       id="path4624"
       style="fill:#000000" />
    <path
       inkscape:connector-curvature="0"
       d="m 319.4926,204.00669 c -7.8512,-7.61631 -18.95649,-7.86964 -25.83918,-1.0321 l 388.90873,388.90873 c 6.88269,-6.83754 17.98798,-6.58421 25.83918,1.0321 z"
       id="path4626"
       style="fill:#000000" />
    <path
       inkscape:connector-curvature="0"
       d="M 293.65342,202.97459 174.51069,320.96153 563.41942,709.87026 682.56215,591.88332 z"
       id="path4628"
       style="fill:#000000" />
    <path
       inkscape:connector-curvature="0"
       d="m 174.51069,320.96153 c -2.92355,2.91095 -7.66355,2.89804 -10.58713,0 l 388.90873,388.90873 c 2.92358,2.89804 7.66358,2.91095 10.58713,0 z"
       id="path4630"
       style="fill:#000000" />
    <path
       inkscape:connector-curvature="0"
       d="m 163.92356,320.96153 c -0.008,-0.008 -0.0158,-0.0157 -0.0237,-0.0236 l 388.90873,388.90873 c 0.008,0.008 0.0158,0.0157 0.0237,0.0236 z"
       id="path4632"
       style="fill:#000000" />
    <path
       inkscape:connector-curvature="0"
       d="m 163.89986,320.93793 c -2.89989,-2.89989 -2.90319,-7.5806 0.0135,-10.46845 l 388.90873,388.90873 c -2.91669,2.88785 -2.91339,7.56856 -0.0135,10.46845 z"
       id="path4634"
       style="fill:#000000" />
    <path
       inkscape:connector-curvature="0"
       d="M 163.91336,310.46948 283.07958,192.48724 671.98831,581.39597 552.82209,699.37821 z"
       id="path4636"
       style="fill:#000000" />
    <path
       inkscape:connector-curvature="0"
       d="m 283.07958,192.48724 c 13.17293,-13.00777 34.03941,-11.74112 47.0036,1.05553 L 718.99191,582.4515 c -12.96419,-12.79665 -33.83067,-14.0633 -47.0036,-1.05553 z"
       id="path4638"
       style="fill:#000000" />
    <path
       inkscape:connector-curvature="0"
       d="m 330.08318,193.54277 c 0.0291,0.0289 0.0581,0.0578 0.087,0.0867 L 719.07891,582.5382 c -0.029,-0.029 -0.058,-0.0579 -0.087,-0.0867 z"
       id="path4640"
       style="fill:#000000" />
    <path
       inkscape:connector-curvature="0"
       d="m 330.1702,193.62949 c 12.86254,12.86255 14.08854,33.47351 1.00124,46.48247 l 388.90873,388.90873 c 13.0873,-13.00896 11.8613,-33.61992 -1.00124,-46.48247 z"
       id="path4642"
       style="fill:#000000" />
    <path
       inkscape:connector-curvature="0"
       d="M 331.17144,240.11196 198.76901,371.21455 587.67774,760.12328 720.08017,629.02069 z"
       id="path4644"
       style="fill:#000000" />
  </g>
  <path
     inkscape:connector-curvature="0"
     id="path108"
     style="fill:#ffffff"
     d="m 198.76683,371.15827 c -19.30926,19.07006 -49.74327,18.08839 -68.79664,-0.7037 -18.979,-18.85426 -19.97728,-49.00514 -0.72433,-68.13034 l 158.8679,-157.32684 c 25.11208,-24.78875 64.62613,-23.53501 89.45673,0.97344 24.74614,24.60578 26.00807,63.73575 0.98703,88.60426 l -132.39069,131.1061 c -2.92358,2.90038 -7.66355,2.90038 -10.57587,0 -2.92732,-2.89454 -2.93857,-7.58463 -0.0102,-10.48034 L 367.95977,224.07951 c 19.06531,-18.90236 18.29596,-48.38002 -0.97956,-67.62367 -19.40685,-19.07827 -49.18032,-19.8324 -68.27825,-0.96172 L 139.83409,312.81043 c -13.25927,13.18601 -12.76387,33.66463 0.72432,47.15677 13.64581,13.38188 34.30684,13.85217 47.63224,0.73888 L 320.5696,229.607 c 6.88294,-6.80822 6.6315,-17.80928 -1.077,-25.60031 -7.8512,-7.61631 -18.95649,-7.86964 -25.83918,-1.0321 L 174.51069,320.96153 c -2.92355,2.91095 -7.66355,2.89804 -10.58713,0 -2.92355,-2.89804 -2.93481,-7.59635 -0.0102,-10.49205 L 283.07958,192.48724 c 13.17293,-13.00777 34.03941,-11.74112 47.0036,1.05553 12.94397,12.85646 14.20501,33.53095 1.08826,46.56919 L 198.76901,371.21455 z" />
</svg>
