<?xml version="1.0" encoding="UTF-8" standalone="no"?>
<!-- Created with Inkscape (http://www.inkscape.org/) -->

<svg
   xmlns:dc="http://purl.org/dc/elements/1.1/"
   xmlns:cc="http://creativecommons.org/ns#"
   xmlns:rdf="http://www.w3.org/1999/02/22-rdf-syntax-ns#"
   xmlns:svg="http://www.w3.org/2000/svg"
   xmlns="http://www.w3.org/2000/svg"
   xmlns:inkscape="http://www.inkscape.org/namespaces/inkscape"
   version="1.1"
   width="100%"
   height="100%"
   viewBox="0 0 512 512"
   id="svg2">
  <metadata
     id="metadata72">
    <rdf:RDF>
      <cc:Work
         rdf:about="">
        <dc:format>image/svg+xml</dc:format>
        <dc:type
           rdf:resource="http://purl.org/dc/dcmitype/StillImage" />
      </cc:Work>
    </rdf:RDF>
  </metadata>
  <defs
     id="defs70" />
  <path
     d="m 471.95,253.05 c 0,120.9 -98.01,218.9 -218.9,218.9 -120.9,0 -218.9,-98.01 -218.9,-218.9 0,-120.9 98.01,-218.9 218.9,-218.9 120.9,0 218.9,98.01 218.9,218.9"
     inkscape:connector-curvature="0"
     id="path4"
     style="fill:#767ecc;fill-rule:evenodd" />
  <path
     d="m 232.56,101.88 c -61.24,0.363 -118.44,45.84 -132.12,105.63 -14.06,52.853 8.06,111.02 50.34,144.69 28.921,25.654 58.49,50.61 86.969,76.66 14.314,13.608 28.407,27.403 42.25,41.44 103.14,-12.661 184.08,-97.02 191.41,-201.72 -41.72,-41.689 -83.17,-83.69 -125.34,-124.91 -22.2,-19.568 -48.844,-36.729 -79,-39.438 7.471,1.101 9.264,1.811 0.688,0.594 7.638,1.15 8.945,1.775 0.469,0.594 7.614,1.121 9.236,1.794 0.625,0.594 7.614,1.121 9.205,1.825 0.594,0.625 7.614,1.121 9.205,1.794 0.594,0.594 7.697,1.156 9.289,1.837 0.594,0.594 7.697,1.156 9.32,1.869 0.625,0.625 7.697,1.156 9.289,1.837 0.594,0.594 7.07,1.028 8.664,1.662 0.594,0.594 7.07,1.028 8.695,1.694 0.625,0.625 7.07,1.028 8.664,1.662 0.594,0.594 7.07,1.028 8.664,1.662 0.594,0.594 7.07,1.028 8.695,1.694 0.625,0.625 7.07,1.028 8.664,1.662 0.594,0.594 7.488,1.089 9.08,1.749 0.594,0.594 7.488,1.089 9.111,1.78 0.625,0.625 7.488,1.089 9.08,1.749 0.594,0.594 7.488,1.089 9.08,1.749 0.594,0.594 7.488,1.089 9.111,1.749 0.625,0.594 7.405,1.055 8.995,1.735 0.594,0.625 7.405,1.055 8.995,1.704 0.594,0.594 7.698,1.119 9.287,1.792 0.594,0.594 7.698,1.119 9.318,1.823 0.625,0.625 7.657,1.082 9.244,1.747 0.594,0.594 7.662,1.09 9.24,1.752 0.594,0.563 7.471,1.101 9.264,1.811 0.688,0.594 7.638,1.15 8.976,1.806 0.5,0.625 7.614,1.121 9.205,1.794 0.594,0.594 7.614,1.121 9.205,1.794 0.594,0.594 7.614,1.121 9.236,1.825 0.625,0.625 7.614,1.121 9.205,1.794 0.594,0.594 7.697,1.156 9.289,1.837 0.594,0.594 7.697,1.156 9.32,1.869 0.625,0.625 7.07,1.028 8.664,1.662 0.594,0.594 7.07,1.028 8.664,1.662 0.594,0.594 7.07,1.028 8.695,1.662 0.625,0.594 7.07,1.028 8.664,1.694 0.594,0.625 7.07,1.028 8.664,1.662 0.594,0.594 7.07,1.028 8.664,1.662 0.594,0.594 7.488,1.089 9.111,1.78 0.625,0.625 7.488,1.089 9.08,1.749 0.594,0.594 7.488,1.089 9.08,1.749 0.594,0.594 7.488,1.089 9.111,1.78 0.625,0.625 7.488,1.089 9.08,1.749 0.594,0.594 7.488,1.089 9.08,1.749 0.594,0.594 7.405,1.055 9.03,1.735 0.625,0.625 7.698,1.119 9.287,1.792 0.594,0.594 7.698,1.119 9.287,1.792 0.594,0.594 7.657,1.082 9.275,1.778 0.625,0.625 7.662,1.09 9.24,1.752 0.594,0.563 7.471,1.101 9.264,1.811 0.688,0.594 7.638,1.15 8.945,1.775 0.469,0.594 7.613,1.121 9.236,1.826 0.625,0.625 7.613,1.121 9.205,1.794 0.594,0.594 7.613,1.121 9.205,1.794 0.594,0.594 7.613,1.121 9.236,1.794 0.625,0.594 7.697,1.156 9.289,1.869 0.594,0.625 7.697,1.156 9.289,1.837 0.594,0.594 7.07,1.028 8.664,1.662 0.594,0.594 7.07,1.028 8.695,1.694 0.625,0.625 7.07,1.028 8.664,1.662 0.594,0.594 7.07,1.028 8.664,1.662 0.594,0.594 7.07,1.028 8.695,1.694 0.625,0.625 7.07,1.028 8.664,1.662 0.594,0.594 7.488,1.089 9.08,1.749 0.594,0.594 7.488,1.089 9.111,1.78 0.625,0.625 7.488,1.089 9.08,1.749 0.594,0.594 7.488,1.089 9.08,1.749 0.594,0.594 7.488,1.089 9.111,1.749 0.625,0.594 7.488,1.089 9.08,1.78 0.594,0.625 7.405,1.055 8.995,1.704 0.594,0.594 7.698,1.119 9.287,1.792 0.594,0.594 7.698,1.119 9.318,1.823 0.625,0.625 7.657,1.082 9.244,1.747 0.594,0.594 7.662,1.09 9.24,1.752 0.594,0.563 7.471,1.101 9.264,1.811 0.688,0.594 7.638,1.15 8.976,1.806 0.5,0.625 7.613,1.121 9.205,1.794 0.594,0.594 7.613,1.121 9.205,1.794 0.594,0.594 7.613,1.121 9.236,1.825 0.625,0.625 7.613,1.121 9.205,1.794 0.594,0.594 7.697,1.156 9.289,1.837 0.594,0.594 7.697,1.156 9.32,1.869 0.625,0.625 7.07,1.028 8.664,1.662 0.594,0.594 7.07,1.028 8.664,1.662 0.594,0.594 7.07,1.028 8.695,1.694 0.625,0.625 7.07,1.028 8.664,1.662 0.594,0.594 7.07,1.028 8.664,1.662 0.594,0.594 16.06,2.494 -7.46,-0.583 6.938,1.688 -13.444,-1.59 8.316,1.714 -5.125,0.125 3.46,0.562 4.64,0.804 4.75,0.875 -0.537,0.066 -6.892,-0.682 0.938,0.781 -14.659,-2 9.778,1.742 -3.875,0.156 13,2.051 -7.571,-0.741 4.375,1.5 -5.65,-0.773 -2.567,-0.061 -0.563,0.406 0.411,1.694 4.899,9.964 2.344,13.719 -17.397,-18.444 -33.993,-37.678 -51.34,-56.12 -12.4,-11.412 -29.02,-18.13 -45.875,-18.438 m 95.53,61 c 0.681,0.161 0.998,0.264 0.125,0.125 -0.054,-0.056 -0.077,-0.077 -0.125,-0.125"
     inkscape:connector-curvature="0"
     id="path6"
     style="fill-opacity:0.23500001" />
  <g
     id="g8"
     style="fill-rule:evenodd">
    <path
       d="M 256,1 C 115.17,1 1,115.17 1,256 1,396.83 115.17,511 256,511 396.83,511 511,396.83 511,256 511,115.17 396.83,1 256,1 m 8.827,44.931 c 120.9,0 218.9,98 218.9,218.9 0,120.9 -98,218.9 -218.9,218.9 -120.9,0 -218.93,-98 -218.93,-218.9 0,-120.9 98.03,-218.9 218.93,-218.9"
       inkscape:connector-curvature="0"
       id="path10"
       style="fill-opacity:0.06700003" />
    <g
       id="g12"
       style="fill-opacity:0.12900002">
      <path
         d="m 256,4.433 c -138.94,0 -251.57,112.63 -251.57,251.57 0,138.94 112.63,251.57 251.57,251.57 138.94,0 251.57,-112.63 251.57,-251.57 C 507.57,117.063 394.94,4.433 256,4.433 m 5.885,38.556 c 120.9,0 218.9,98 218.9,218.9 0,120.9 -98,218.9 -218.9,218.9 -120.9,0 -218.93,-98 -218.93,-218.9 0,-120.9 98.03,-218.9 218.93,-218.9"
         inkscape:connector-curvature="0"
         id="path14" />
      <path
         d="m 256,8.356 c -136.77,0 -247.64,110.87 -247.64,247.64 0,136.77 110.87,247.64 247.64,247.64 136.77,0 247.64,-110.87 247.64,-247.64 C 503.64,119.226 392.77,8.356 256,8.356 m 2.942,31.691 c 120.9,0 218.9,98 218.9,218.9 0,120.9 -98,218.9 -218.9,218.9 -120.9,0 -218.93,-98 -218.93,-218.9 0,-120.9 98.03,-218.9 218.93,-218.9"
         inkscape:connector-curvature="0"
         id="path16" />
    </g>
    <path
       d="m 253.04,7.859 c -135.42,0 -245.19,109.78 -245.19,245.19 0,135.42 109.78,245.19 245.19,245.19 135.42,0 245.19,-109.78 245.19,-245.19 0,-135.42 -109.78,-245.19 -245.19,-245.19 z m 0,26.297 c 120.9,0 218.9,98 218.9,218.9 0,120.9 -98,218.9 -218.9,218.9 -120.9,0 -218.93,-98 -218.93,-218.9 0,-120.9 98.03,-218.9 218.93,-218.9 z"
       inkscape:connector-curvature="0"
       id="path18"
       style="fill:#ffffff;stroke:#000000;stroke-width:4.90399981;stroke-opacity:0.31000001" />
  </g>
  <text
     x="729.64001"
     y="231.36"
     id="text20"
     style="font-size:129.22999573px;line-height:125%;letter-spacing:0;word-spacing:0;font-family:Gentium Book Basic">
    <tspan
       x="729.64001"
       y="231.36"
       id="tspan22" />
  </text>
  <text
     x="378.91"
     y="579.25"
     transform="scale(4.0128,0.2492)"
     id="text24"
     style="font-size:46.95399857px;text-anchor:middle;font-family:Arial" />
  <text
     x="1310.91"
     y="151.36"
     id="text26"
     style="font-size:129.22999573px;line-height:125%;letter-spacing:0;word-spacing:0;font-family:Gentium Book Basic">
    <tspan
       x="1310.91"
       y="151.36"
       id="tspan28" />
  </text>
  <text
     x="523.76001"
     y="258.22"
     transform="scale(4.0128,0.2492)"
     id="text30"
     style="font-size:46.95399857px;text-anchor:middle;font-family:Arial" />
  <text
     x="239.33"
     y="-29.900999"
     id="text32"
     style="font-size:129.22999573px;line-height:125%;letter-spacing:0;word-spacing:0;font-family:Gentium Book Basic">
    <tspan
       x="239.33"
       y="-29.900999"
       id="tspan34" />
  </text>
  <text
     x="256.72"
     y="-469.14001"
     transform="scale(4.0128,0.2492)"
     id="text36"
     style="font-size:46.95399857px;text-anchor:middle;font-family:Arial" />
  <text
     x="1337.38"
     y="-246.37"
     id="text38"
     style="font-size:129.22999573px;line-height:125%;letter-spacing:0;word-spacing:0;font-family:Gentium Book Basic">
    <tspan
       x="1337.38"
       y="-246.37"
       id="tspan40" />
  </text>
  <text
     x="530.35999"
     y="-1337.8101"
     transform="scale(4.0128,0.2492)"
     id="text42"
     style="font-size:46.95399857px;text-anchor:middle;font-family:Arial" />
  <text
     x="1918.65"
     y="-326.38"
     id="text44"
     style="font-size:129.22999573px;line-height:125%;letter-spacing:0;word-spacing:0;font-family:Gentium Book Basic">
    <tspan
       x="1918.65"
       y="-326.38"
       id="tspan46" />
  </text>
  <text
     x="675.21002"
     y="-1658.85"
     transform="scale(4.0128,0.2492)"
     id="text48"
     style="font-size:46.95399857px;text-anchor:middle;font-family:Arial" />
  <text
     x="1529.53"
     y="-798.78003"
     id="text50"
     style="font-size:129.22999573px;line-height:125%;letter-spacing:0;word-spacing:0;font-family:Gentium Book Basic">
    <tspan
       x="1529.53"
       y="-798.78003"
       id="tspan52" />
  </text>
  <text
     x="578.23999"
     y="-3554.51"
     transform="scale(4.0128,0.2492)"
     id="text54"
     style="font-size:46.95399857px;text-anchor:middle;font-family:Arial" />
  <text
     x="2110.79"
     y="-878.78003"
     id="text56"
     style="font-size:129.22999573px;line-height:125%;letter-spacing:0;word-spacing:0;font-family:Gentium Book Basic">
    <tspan
       x="2110.79"
       y="-878.78003"
       id="tspan58" />
  </text>
  <text
     x="723.09003"
     y="-3875.54"
     transform="scale(4.0128,0.2492)"
     id="text60"
     style="font-size:46.95399857px;text-anchor:middle;font-family:Arial" />
  <text
     x="277.98999"
     y="535.94"
     id="text62"
     style="font-size:208.33000183px;line-height:125%;letter-spacing:0;word-spacing:0;font-family:Gentium Book Basic">
    <tspan
       x="277.98999"
       y="535.94"
       id="tspan64" />
  </text>
  <path
     d="m 232.59,101.88 c -35.28,0.676 -70.11,15.383 -95.17,40.23 -25.06,24.846 -40.09,59.53 -41.07,94.81 -0.977,35.28 12.12,70.771 35.763,96.97 23.645,26.2 59.946,52.791 95.14,55.42 -34.75,-3.827 -64.13,-43.26 -64.13,-79.03 0,-38.37 31.11,-69.48 69.48,-69.48 17.975,-0.325 35.686,-7.965 48.28,-20.792 12.596,-12.827 19.913,-30.707 19.913,-48.685 0,-17.977 -7.317,-35.858 -19.913,-48.685 -12.596,-12.827 -30.31,-20.43 -48.28,-20.755 m 34.445,2.343 c 34.75,3.827 64.17,43.26 64.17,79.03 0,38.37 -31.11,69.48 -69.48,69.48 -17.975,0.325 -35.722,7.965 -48.32,20.792 -12.596,12.827 -19.913,30.707 -19.913,48.685 0,17.978 7.317,35.858 19.913,48.685 12.596,12.827 30.344,20.43 48.32,20.755 35.28,-0.676 70.08,-15.383 95.14,-40.23 25.06,-24.846 40.09,-59.53 41.07,-94.81 0.977,-35.28 -12.08,-70.771 -35.727,-96.97 -23.645,-26.2 -59.982,-52.791 -95.17,-55.42 m -34.445,48.685 c 10.186,0 18.449,8.263 18.449,18.449 0,10.186 -8.263,18.412 -18.449,18.412 -10.186,0 -18.449,-8.226 -18.449,-18.412 0,-10.186 8.263,-18.449 18.449,-18.449 m 29.14,150.85 c 10.186,0 18.449,8.226 18.449,18.412 0,10.186 -8.263,18.449 -18.449,18.449 -10.186,0 -18.449,-8.263 -18.449,-18.449 0,-10.186 8.263,-18.412 18.449,-18.412"
     inkscape:connector-curvature="0"
     id="path66"
     style="fill:#ffffff" />
</svg>
