<?xml version="1.0" encoding="UTF-8" standalone="no"?>
<!-- Created with Inkscape (http://www.inkscape.org/) -->

<svg
   xmlns:dc="http://purl.org/dc/elements/1.1/"
   xmlns:cc="http://creativecommons.org/ns#"
   xmlns:rdf="http://www.w3.org/1999/02/22-rdf-syntax-ns#"
   xmlns:svg="http://www.w3.org/2000/svg"
   xmlns="http://www.w3.org/2000/svg"
   xmlns:inkscape="http://www.inkscape.org/namespaces/inkscape"
   version="1.1"
   width="100%"
   height="100%"
   viewBox="0 0 512 512"
   id="svg2">
  <metadata
     id="metadata84">
    <rdf:RDF>
      <cc:Work
         rdf:about="">
        <dc:format>image/svg+xml</dc:format>
        <dc:type
           rdf:resource="http://purl.org/dc/dcmitype/StillImage" />
      </cc:Work>
    </rdf:RDF>
  </metadata>
  <defs
     id="defs82" />
  <path
     d="m 471.95,253.05 c 0,120.9 -98.01,218.9 -218.9,218.9 -120.9,0 -218.9,-98.01 -218.9,-218.9 0,-120.9 98.01,-218.9 218.9,-218.9 120.9,0 218.9,98.01 218.9,218.9"
     inkscape:connector-curvature="0"
     id="path4"
     style="fill:#8a34a6;fill-rule:evenodd" />
  <path
     d="m 265.28,110.13 c -12.07,0.042 -24.12,1.638 -35.906,4.813 h -0.031 c -53.695,14.452 -92.01,58.44 -102.78,110.84 h -17.25 v 4.375 h 1 v 1 h 1 v 1 h 1 v 1 h 0.969 v 0.969 h 1 v 1 h 1 v 1 h 1 v 1 h 1 v 1 h 1 v 1 h 0.969 v 0.969 h 1 v 1 h 1 v 1 h 1 v 1 h 1 v 1 h 0.719 c -0.01,0.125 -0.022,0.25 -0.031,0.375 h -14.625 v 4.375 h 1 v 1 h 1 v 1 h 1 v 1 h 0.969 v 0.969 h 1 v 1 h 1 v 1 h 1 v 1 h 1 v 1 h 1 v 1 h 0.969 v 0.969 h 1 v 1 h 1 v 1 h 1 v 1 h 1 v 1 h 0.406 c 0.006,0.125 0.025,0.25 0.031,0.375 h -14.375 v 4.375 h 1 v 1 h 1 v 1 h 1 v 1 h 0.969 v 0.969 h 1 v 1 h 1 v 1 h 1 v 1 h 1 v 1 h 1 v 1 h 0.969 v 0.969 h 1 v 1 h 1 v 1 h 1 v 1 h 1 v 1 h 1 v 0.375 h -14.938 v 4.375 h 1 v 1 h 1 v 1 h 1 v 1 h 0.969 v 0.969 h 1 v 1 h 1 v 1 h 1 v 1 h 1 v 1 h 1 v 1 h 0.969 v 0.969 h 1 v 1 h 1 v 1 h 1 v 1 h 1 v 1 h 1 v 1 h 0.969 v 0.969 h 1 v 1 h 1 v 1 h 1 v 1 h 1 v 1 h 1 v 1 h 0.969 v 0.969 h 1 v 1 h 0.844 c 0.054,0.145 0.102,0.293 0.156,0.438 v 0.563 h 0.219 c 7.591,20.07 19.234,38.05 33.906,52.875 0.175,0.18 0.356,0.352 0.531,0.531 0.439,0.456 0.899,0.894 1.344,1.344 0.148,0.153 0.288,0.316 0.438,0.469 0.069,0.067 0.15,0.121 0.219,0.188 0.113,0.115 0.23,0.229 0.344,0.344 0.016,0.015 0.016,0.047 0.031,0.063 0.144,0.149 0.293,0.29 0.438,0.438 0.058,0.056 0.129,0.1 0.188,0.156 0.145,0.148 0.292,0.29 0.438,0.438 0.189,0.184 0.372,0.379 0.563,0.563 0.145,0.147 0.292,0.291 0.438,0.438 0.189,0.184 0.372,0.379 0.563,0.563 0.145,0.147 0.292,0.291 0.438,0.438 0.18,0.176 0.35,0.357 0.531,0.531 0.155,0.158 0.313,0.311 0.469,0.469 0.175,0.18 0.356,0.352 0.531,0.531 0.148,0.154 0.288,0.315 0.438,0.469 0.185,0.18 0.377,0.352 0.563,0.531 0.113,0.115 0.23,0.229 0.344,0.344 0.159,0.164 0.309,0.336 0.469,0.5 0.058,0.056 0.129,0.1 0.188,0.156 0.145,0.147 0.292,0.291 0.438,0.438 0.19,0.185 0.371,0.378 0.563,0.563 0.073,0.073 0.146,0.146 0.219,0.219 0.072,0.074 0.146,0.145 0.219,0.219 0.189,0.184 0.372,0.379 0.563,0.563 0.145,0.147 0.292,0.291 0.438,0.438 0.185,0.18 0.377,0.352 0.563,0.531 0.15,0.153 0.287,0.317 0.438,0.469 0.175,0.18 0.356,0.352 0.531,0.531 0.148,0.154 0.288,0.315 0.438,0.469 0.185,0.18 0.377,0.352 0.563,0.531 0.113,0.115 0.23,0.229 0.344,0.344 0.159,0.164 0.309,0.337 0.469,0.5 0.058,0.056 0.129,0.1 0.188,0.156 0.144,0.147 0.293,0.291 0.438,0.438 0.19,0.185 0.371,0.378 0.563,0.563 0.145,0.147 0.292,0.291 0.438,0.438 0.189,0.184 0.372,0.379 0.563,0.563 0.145,0.147 0.292,0.291 0.438,0.438 0.189,0.184 0.372,0.379 0.563,0.563 0.145,0.147 0.292,0.291 0.438,0.438 0.175,0.18 0.356,0.352 0.531,0.531 0.148,0.154 0.288,0.315 0.438,0.469 0.185,0.18 0.377,0.352 0.563,0.531 0.113,0.115 0.23,0.229 0.344,0.344 0.159,0.164 0.309,0.337 0.469,0.5 0.058,0.056 0.129,0.1 0.188,0.156 0.144,0.147 0.293,0.291 0.438,0.438 0.19,0.185 0.371,0.378 0.563,0.563 0.145,0.147 0.292,0.291 0.438,0.438 0.189,0.184 0.372,0.379 0.563,0.563 0.145,0.147 0.292,0.291 0.438,0.438 0.189,0.184 0.372,0.379 0.563,0.563 0.145,0.147 0.292,0.291 0.438,0.438 0.175,0.18 0.356,0.352 0.531,0.531 0.148,0.154 0.288,0.315 0.438,0.469 0.185,0.18 0.377,0.352 0.563,0.531 0.113,0.115 0.23,0.229 0.344,0.344 0.148,0.153 0.288,0.316 0.438,0.469 0.069,0.067 0.15,0.121 0.219,0.188 0.113,0.115 0.23,0.229 0.344,0.344 0.016,0.015 0.016,0.047 0.031,0.063 0.143,0.148 0.293,0.29 0.438,0.438 0.058,0.056 0.129,0.1 0.188,0.156 0.145,0.147 0.292,0.291 0.438,0.438 0.189,0.184 0.372,0.379 0.563,0.563 0.073,0.073 0.146,0.146 0.219,0.219 0.072,0.074 0.146,0.145 0.219,0.219 0.189,0.184 0.372,0.379 0.563,0.563 0.145,0.147 0.292,0.291 0.438,0.438 0.185,0.18 0.377,0.352 0.563,0.531 0.15,0.153 0.287,0.317 0.438,0.469 0.175,0.18 0.356,0.352 0.531,0.531 0.148,0.154 0.288,0.315 0.438,0.469 0.185,0.18 0.377,0.352 0.563,0.531 0.113,0.115 0.23,0.229 0.344,0.344 0.159,0.164 0.309,0.336 0.469,0.5 0.058,0.056 0.129,0.1 0.188,0.156 0.145,0.147 0.292,0.291 0.438,0.438 0.19,0.185 0.371,0.378 0.563,0.563 0.073,0.073 0.146,0.146 0.219,0.219 0.072,0.074 0.146,0.145 0.219,0.219 0.189,0.184 0.372,0.379 0.563,0.563 0.145,0.147 0.292,0.291 0.438,0.438 0.185,0.18 0.377,0.352 0.563,0.531 0.15,0.153 0.287,0.317 0.438,0.469 0.175,0.18 0.356,0.352 0.531,0.531 0.148,0.154 0.288,0.315 0.438,0.469 0.185,0.18 0.377,0.352 0.563,0.531 0.113,0.115 0.23,0.229 0.344,0.344 0.159,0.164 0.309,0.337 0.469,0.5 0.058,0.056 0.129,0.1 0.188,0.156 0.144,0.147 0.293,0.291 0.438,0.438 0.19,0.185 0.371,0.378 0.563,0.563 0.145,0.147 0.292,0.291 0.438,0.438 0.189,0.184 0.372,0.379 0.563,0.563 0.145,0.147 0.292,0.291 0.438,0.438 0.189,0.184 0.372,0.379 0.563,0.563 0.145,0.147 0.292,0.291 0.438,0.438 0.175,0.18 0.356,0.352 0.531,0.531 0.148,0.154 0.288,0.315 0.438,0.469 0.185,0.18 0.377,0.352 0.563,0.531 0.113,0.115 0.23,0.229 0.344,0.344 0.148,0.153 0.288,0.316 0.438,0.469 0.069,0.067 0.15,0.121 0.219,0.188 0.113,0.115 0.23,0.229 0.344,0.344 0.016,0.015 0.016,0.047 0.031,0.063 0.144,0.149 0.293,0.29 0.438,0.438 0.058,0.056 0.129,0.1 0.188,0.156 0.145,0.148 0.292,0.29 0.438,0.438 0.189,0.184 0.372,0.379 0.563,0.563 0.145,0.147 0.292,0.291 0.438,0.438 0.189,0.184 0.372,0.379 0.563,0.563 0.145,0.147 0.292,0.291 0.438,0.438 0.18,0.176 0.35,0.357 0.531,0.531 0.155,0.158 0.313,0.311 0.469,0.469 0.175,0.18 0.356,0.352 0.531,0.531 0.148,0.154 0.288,0.315 0.438,0.469 0.185,0.18 0.377,0.352 0.563,0.531 0.113,0.115 0.23,0.229 0.344,0.344 0.159,0.164 0.309,0.336 0.469,0.5 0.058,0.056 0.129,0.1 0.188,0.156 0.145,0.147 0.292,0.291 0.438,0.438 0.19,0.185 0.371,0.378 0.563,0.563 0.073,0.073 0.146,0.146 0.219,0.219 0.072,0.074 0.146,0.145 0.219,0.219 0.189,0.184 0.372,0.379 0.563,0.563 0.145,0.147 0.292,0.291 0.438,0.438 0.185,0.18 0.377,0.352 0.563,0.531 0.15,0.153 0.287,0.317 0.438,0.469 0.175,0.18 0.356,0.352 0.531,0.531 0.148,0.154 0.288,0.315 0.438,0.469 0.185,0.18 0.377,0.352 0.563,0.531 0.113,0.115 0.23,0.229 0.344,0.344 0.159,0.164 0.309,0.337 0.469,0.5 0.058,0.056 0.129,0.1 0.188,0.156 0.144,0.147 0.293,0.291 0.438,0.438 0.19,0.185 0.371,0.378 0.563,0.563 0.145,0.147 0.292,0.291 0.438,0.438 0.189,0.184 0.372,0.379 0.563,0.563 0.145,0.147 0.292,0.291 0.438,0.438 0.189,0.184 0.372,0.379 0.563,0.563 0.145,0.147 0.292,0.291 0.438,0.438 0.175,0.18 0.356,0.352 0.531,0.531 0.148,0.154 0.288,0.315 0.438,0.469 0.185,0.18 0.377,0.352 0.563,0.531 0.113,0.115 0.23,0.229 0.344,0.344 0.159,0.164 0.309,0.337 0.469,0.5 0.058,0.056 0.129,0.1 0.188,0.156 0.144,0.147 0.293,0.291 0.438,0.438 0.19,0.185 0.371,0.378 0.563,0.563 0.145,0.147 0.292,0.291 0.438,0.438 0.189,0.184 0.372,0.379 0.563,0.563 0.145,0.147 0.292,0.291 0.438,0.438 0.189,0.184 0.372,0.379 0.563,0.563 0.145,0.147 0.292,0.291 0.438,0.438 0.175,0.18 0.356,0.352 0.531,0.531 0.148,0.154 0.288,0.315 0.438,0.469 0.185,0.18 0.377,0.352 0.563,0.531 0.113,0.115 0.23,0.229 0.344,0.344 0.148,0.153 0.288,0.316 0.438,0.469 0.069,0.067 0.15,0.121 0.219,0.188 0.113,0.115 0.23,0.229 0.344,0.344 0.016,0.015 0.016,0.047 0.031,0.063 0.143,0.148 0.293,0.29 0.438,0.438 0.058,0.056 0.129,0.1 0.188,0.156 0.145,0.147 0.292,0.291 0.438,0.438 0.189,0.184 0.372,0.379 0.563,0.563 0.073,0.073 0.146,0.146 0.219,0.219 0.072,0.074 0.146,0.145 0.219,0.219 0.189,0.184 0.372,0.379 0.563,0.563 0.145,0.147 0.292,0.291 0.438,0.438 0.185,0.18 0.377,0.352 0.563,0.531 0.15,0.153 0.287,0.317 0.438,0.469 0.175,0.18 0.356,0.352 0.531,0.531 0.148,0.154 0.288,0.315 0.438,0.469 0.185,0.18 0.377,0.352 0.563,0.531 0.113,0.115 0.23,0.229 0.344,0.344 0.159,0.164 0.309,0.336 0.469,0.5 0.058,0.056 0.129,0.1 0.188,0.156 0.145,0.147 0.292,0.291 0.438,0.438 0.19,0.185 0.371,0.378 0.563,0.563 0.073,0.073 0.146,0.146 0.219,0.219 0.072,0.074 0.146,0.145 0.219,0.219 0.189,0.184 0.372,0.379 0.563,0.563 0.145,0.147 0.292,0.291 0.438,0.438 0.185,0.18 0.377,0.352 0.563,0.531 0.15,0.153 0.287,0.317 0.438,0.469 0.175,0.18 0.356,0.352 0.531,0.531 0.148,0.154 0.288,0.315 0.438,0.469 0.185,0.18 0.377,0.352 0.563,0.531 0.113,0.115 0.23,0.229 0.344,0.344 0.159,0.164 0.309,0.337 0.469,0.5 0.058,0.056 0.129,0.1 0.188,0.156 0.144,0.147 0.293,0.291 0.438,0.438 0.19,0.185 0.371,0.378 0.563,0.563 0.145,0.147 0.292,0.291 0.438,0.438 0.189,0.184 0.372,0.379 0.563,0.563 0.145,0.147 0.292,0.291 0.438,0.438 0.189,0.184 0.372,0.379 0.563,0.563 0.145,0.147 0.292,0.291 0.438,0.438 0.175,0.18 0.356,0.352 0.531,0.531 0.148,0.154 0.288,0.315 0.438,0.469 0.185,0.18 0.377,0.352 0.563,0.531 0.113,0.115 0.23,0.229 0.344,0.344 0.159,0.164 0.309,0.337 0.469,0.5 0.058,0.056 0.129,0.1 0.188,0.156 0.144,0.147 0.293,0.291 0.438,0.438 0.19,0.185 0.371,0.378 0.563,0.563 0.145,0.147 0.292,0.291 0.438,0.438 0.189,0.184 0.372,0.379 0.563,0.563 0.145,0.147 0.292,0.291 0.438,0.438 0.189,0.184 0.372,0.379 0.563,0.563 0.145,0.147 0.292,0.291 0.438,0.438 0.18,0.175 0.351,0.357 0.531,0.531 0.155,0.158 0.313,0.311 0.469,0.469 0.175,0.18 0.356,0.352 0.531,0.531 0.148,0.154 0.288,0.315 0.438,0.469 0.185,0.18 0.377,0.352 0.563,0.531 0.113,0.115 0.23,0.229 0.344,0.344 0.159,0.164 0.309,0.336 0.469,0.5 0.058,0.056 0.129,0.1 0.188,0.156 0.145,0.147 0.292,0.291 0.438,0.438 0.19,0.185 0.371,0.378 0.563,0.563 0.073,0.073 0.146,0.146 0.219,0.219 0.072,0.074 0.146,0.145 0.219,0.219 0.189,0.184 0.372,0.379 0.563,0.563 0.145,0.147 0.292,0.291 0.438,0.438 0.185,0.18 0.377,0.352 0.563,0.531 0.15,0.153 0.287,0.317 0.438,0.469 0.175,0.18 0.356,0.352 0.531,0.531 0.148,0.154 0.288,0.315 0.438,0.469 0.185,0.18 0.377,0.352 0.563,0.531 0.113,0.115 0.23,0.229 0.344,0.344 0.159,0.164 0.309,0.337 0.469,0.5 0.058,0.056 0.129,0.1 0.188,0.156 0.144,0.147 0.293,0.291 0.438,0.438 0.19,0.185 0.371,0.378 0.563,0.563 0.145,0.147 0.292,0.291 0.438,0.438 0.189,0.184 0.372,0.379 0.563,0.563 0.145,0.147 0.292,0.291 0.438,0.438 0.189,0.184 0.372,0.379 0.563,0.563 0.145,0.147 0.292,0.291 0.438,0.438 0.175,0.18 0.356,0.352 0.531,0.531 0.148,0.154 0.288,0.315 0.438,0.469 0.143,0.139 0.293,0.27 0.438,0.406 104.43,-10.485 187.19,-94.36 195.97,-199.28 -0.26,-0.108 -0.522,-0.205 -0.781,-0.313 0.271,0.064 0.542,0.124 0.813,0.188 0.011,-0.136 0.02,-0.271 0.031,-0.406 -0.606,-0.256 -1.206,-0.53 -1.813,-0.781 0.615,0.145 1.23,0.289 1.844,0.438 0.006,-0.073 -0.006,-0.146 0,-0.219 -0.915,-0.399 -1.826,-0.804 -2.75,-1.188 0.938,0.221 1.878,0.446 2.813,0.688 10e-4,-0.01 -0.001,-0.021 0,-0.031 -1.224,-0.55 -2.452,-1.08 -3.688,-1.594 0.959,0.227 1.919,0.44 2.875,0.688 -1.31,-0.591 -2.615,-1.169 -3.938,-1.719 0.981,0.232 1.96,0.466 2.938,0.719 -1.328,-0.599 -2.659,-1.162 -4,-1.719 1.01,0.238 2.024,0.458 3.03,0.719 -1.36,-0.613 -2.752,-1.181 -4.125,-1.75 1.043,0.245 2.086,0.481 3.125,0.75 -1.36,-0.613 -2.752,-1.181 -4.125,-1.75 1.043,0.245 2.086,0.481 3.125,0.75 -1.33,-0.6 -2.657,-1.161 -4,-1.719 1,0.236 2,0.492 3,0.75 -1.287,-0.581 -2.575,-1.147 -3.875,-1.688 0.959,0.227 1.919,0.44 2.875,0.688 -1.31,-0.591 -2.615,-1.169 -3.938,-1.719 0.981,0.232 1.96,0.466 2.938,0.719 -1.319,-0.595 -2.637,-1.166 -3.969,-1.719 0.994,0.235 2.01,0.462 3,0.719 -1.328,-0.599 -2.691,-1.162 -4.03,-1.719 1.01,0.238 2.024,0.458 3.03,0.719 -1.36,-0.613 -2.752,-1.181 -4.125,-1.75 1.043,0.245 2.086,0.481 3.125,0.75 -1.33,-0.6 -2.657,-1.161 -4,-1.719 1,0.236 2,0.492 3,0.75 -1.287,-0.581 -2.575,-1.147 -3.875,-1.688 0.959,0.227 1.919,0.44 2.875,0.688 -1.31,-0.591 -2.615,-1.169 -3.938,-1.719 0.981,0.232 1.96,0.466 2.938,0.719 -1.328,-0.599 -2.659,-1.162 -4,-1.719 0.982,0.232 1.99,0.435 2.969,0.688 -1.315,-0.593 -2.641,-1.136 -3.969,-1.688 1.01,0.238 2.024,0.458 3.03,0.719 -1.36,-0.613 -2.752,-1.181 -4.125,-1.75 1.043,0.245 2.086,0.481 3.125,0.75 -1.355,-0.611 -2.725,-1.183 -4.094,-1.75 1.033,0.243 2.064,0.483 3.094,0.75 -1.33,-0.6 -2.657,-1.161 -4,-1.719 1,0.236 2,0.492 3,0.75 -1.287,-0.581 -2.575,-1.147 -3.875,-1.688 0.959,0.227 1.919,0.44 2.875,0.688 -1.31,-0.591 -2.615,-1.169 -3.938,-1.719 0.981,0.232 1.96,0.466 2.938,0.719 -1.328,-0.599 -2.659,-1.162 -4,-1.719 1.01,0.238 2.024,0.458 3.03,0.719 -1.36,-0.613 -2.752,-1.181 -4.125,-1.75 1.043,0.245 2.086,0.481 3.125,0.75 -1.36,-0.613 -2.752,-1.181 -4.125,-1.75 1.043,0.245 2.086,0.481 3.125,0.75 -1.33,-0.6 -2.657,-1.161 -4,-1.719 1,0.236 2,0.492 3,0.75 -1.287,-0.581 -2.575,-1.147 -3.875,-1.688 0.959,0.227 1.919,0.44 2.875,0.688 -1.31,-0.591 -2.615,-1.169 -3.938,-1.719 0.981,0.232 1.96,0.466 2.938,0.719 -1.328,-0.599 -2.659,-1.162 -4,-1.719 1.01,0.238 2.024,0.458 3.03,0.719 -1.328,-0.599 -2.691,-1.162 -4.03,-1.719 1.01,0.238 2.024,0.458 3.03,0.719 -1.36,-0.613 -2.752,-1.181 -4.125,-1.75 1.043,0.245 2.086,0.481 3.125,0.75 -1.33,-0.6 -2.657,-1.161 -4,-1.719 1,0.236 2,0.492 3,0.75 -1.287,-0.581 -2.575,-1.147 -3.875,-1.688 0.959,0.227 1.919,0.44 2.875,0.688 -1.31,-0.591 -2.615,-1.169 -3.938,-1.719 0.981,0.232 1.96,0.466 2.938,0.719 -1.319,-0.595 -2.637,-1.166 -3.969,-1.719 0.994,0.235 2.01,0.462 3,0.719 -1.328,-0.599 -2.691,-1.162 -4.03,-1.719 1.01,0.238 2.024,0.458 3.03,0.719 -1.36,-0.613 -2.752,-1.181 -4.125,-1.75 1.043,0.245 2.086,0.481 3.125,0.75 -1.334,-0.601 -2.685,-1.16 -4.03,-1.719 1.012,0.238 2.023,0.489 3.03,0.75 v -0.031 c -1.287,-0.581 -2.575,-1.115 -3.875,-1.656 0.959,0.227 1.919,0.44 2.875,0.688 -1.31,-0.591 -2.615,-1.169 -3.938,-1.719 0.981,0.232 1.96,0.466 2.938,0.719 -1.31,-0.591 -2.615,-1.169 -3.938,-1.719 0.981,0.232 1.96,0.466 2.938,0.719 -1.328,-0.599 -2.659,-1.162 -4,-1.719 1.01,0.238 2.024,0.458 3.03,0.719 -1.36,-0.613 -2.752,-1.181 -4.125,-1.75 1.043,0.245 2.086,0.481 3.125,0.75 -1.355,-0.611 -2.725,-1.183 -4.094,-1.75 1.033,0.243 2.064,0.483 3.094,0.75 -1.33,-0.6 -2.657,-1.161 -4,-1.719 1,0.236 2,0.492 3,0.75 -1.287,-0.581 -2.575,-1.147 -3.875,-1.688 0.959,0.227 1.919,0.44 2.875,0.688 -1.31,-0.591 -2.615,-1.169 -3.938,-1.719 0.981,0.232 1.96,0.466 2.938,0.719 -1.328,-0.599 -2.659,-1.162 -4,-1.719 1.01,0.238 2.024,0.458 3.03,0.719 -1.36,-0.613 -2.752,-1.181 -4.125,-1.75 1.043,0.245 2.086,0.481 3.125,0.75 -1.36,-0.613 -2.752,-1.181 -4.125,-1.75 1.043,0.245 2.086,0.481 3.125,0.75 -1.33,-0.6 -2.657,-1.161 -4,-1.719 1,0.236 2,0.492 3,0.75 -1.287,-0.581 -2.575,-1.147 -3.875,-1.688 0.959,0.227 1.919,0.44 2.875,0.688 -1.31,-0.591 -2.615,-1.169 -3.938,-1.719 0.981,0.232 1.96,0.466 2.938,0.719 -1.319,-0.595 -2.637,-1.166 -3.969,-1.719 0.994,0.235 2.01,0.462 3,0.719 -1.328,-0.599 -2.691,-1.162 -4.03,-1.719 1.01,0.238 2.024,0.458 3.03,0.719 -1.36,-0.613 -2.752,-1.181 -4.125,-1.75 1.043,0.245 2.086,0.481 3.125,0.75 -1.33,-0.6 -2.657,-1.161 -4,-1.719 1,0.236 2,0.492 3,0.75 -1.287,-0.581 -2.575,-1.147 -3.875,-1.688 0.959,0.227 1.919,0.44 2.875,0.688 -1.31,-0.591 -2.615,-1.169 -3.938,-1.719 0.981,0.232 1.96,0.466 2.938,0.719 -1.328,-0.599 -2.659,-1.162 -4,-1.719 0.982,0.232 1.99,0.435 2.969,0.688 -1.315,-0.593 -2.641,-1.136 -3.969,-1.688 1.01,0.238 2.024,0.458 3.03,0.719 -1.36,-0.613 -2.752,-1.181 -4.125,-1.75 1.043,0.245 2.086,0.481 3.125,0.75 -1.355,-0.611 -2.725,-1.183 -4.094,-1.75 1.033,0.243 2.064,0.483 3.094,0.75 -1.287,-0.581 -2.575,-1.115 -3.875,-1.656 0.959,0.227 1.919,0.44 2.875,0.688 -1.287,-0.581 -2.575,-1.147 -3.875,-1.688 0.959,0.227 1.919,0.44 2.875,0.688 -1.31,-0.591 -2.615,-1.169 -3.938,-1.719 0.981,0.232 1.96,0.466 2.938,0.719 -1.328,-0.599 -2.659,-1.162 -4,-1.719 1.01,0.238 2.024,0.458 3.03,0.719 -1.36,-0.613 -2.752,-1.181 -4.125,-1.75 1.043,0.245 2.086,0.481 3.125,0.75 -1.36,-0.613 -2.752,-1.181 -4.125,-1.75 1.043,0.245 2.086,0.481 3.125,0.75 -1.33,-0.6 -2.657,-1.161 -4,-1.719 1,0.236 2,0.492 3,0.75 -1.287,-0.581 -2.575,-1.147 -3.875,-1.688 0.959,0.227 1.919,0.44 2.875,0.688 -1.31,-0.591 -2.615,-1.169 -3.938,-1.719 0.981,0.232 1.96,0.466 2.938,0.719 -1.328,-0.599 -2.659,-1.162 -4,-1.719 1.01,0.238 2.024,0.458 3.03,0.719 -1.328,-0.599 -2.691,-1.162 -4.03,-1.719 1.01,0.238 2.024,0.458 3.03,0.719 -1.36,-0.613 -2.752,-1.181 -4.125,-1.75 1.043,0.245 2.086,0.481 3.125,0.75 -1.33,-0.6 -2.657,-1.161 -4,-1.719 1,0.236 2,0.492 3,0.75 -1.287,-0.581 -2.575,-1.147 -3.875,-1.688 0.959,0.227 1.919,0.44 2.875,0.688 -1.31,-0.591 -2.615,-1.169 -3.938,-1.719 0.981,0.232 1.96,0.466 2.938,0.719 -1.319,-0.595 -2.637,-1.166 -3.969,-1.719 0.994,0.235 2.01,0.462 3,0.719 -1.328,-0.599 -2.691,-1.162 -4.03,-1.719 1.01,0.238 2.024,0.458 3.03,0.719 -1.36,-0.613 -2.752,-1.181 -4.125,-1.75 1.043,0.245 2.086,0.481 3.125,0.75 -1.333,-0.601 -2.685,-1.16 -4.03,-1.719 1.012,0.238 2.023,0.489 3.03,0.75 -1.287,-0.581 -2.575,-1.147 -3.875,-1.688 0.959,0.227 1.919,0.44 2.875,0.688 -1.31,-0.591 -2.615,-1.169 -3.938,-1.719 0.981,0.232 1.96,0.466 2.938,0.719 -1.31,-0.591 -2.615,-1.169 -3.938,-1.719 0.981,0.232 1.96,0.466 2.938,0.719 -1.328,-0.599 -2.659,-1.162 -4,-1.719 1.01,0.238 2.024,0.458 3.03,0.719 -1.36,-0.613 -2.752,-1.181 -4.125,-1.75 1.043,0.245 2.086,0.481 3.125,0.75 -1.355,-0.611 -2.725,-1.183 -4.094,-1.75 1.033,0.243 2.064,0.483 3.094,0.75 -1.33,-0.6 -2.657,-1.161 -4,-1.719 1,0.236 2,0.492 3,0.75 -1.287,-0.581 -2.575,-1.147 -3.875,-1.688 0.959,0.227 1.919,0.44 2.875,0.688 -1.31,-0.591 -2.615,-1.169 -3.938,-1.719 0.981,0.232 1.96,0.466 2.938,0.719 -1.328,-0.599 -2.659,-1.162 -4,-1.719 1.01,0.238 2.024,0.458 3.03,0.719 -1.36,-0.613 -2.752,-1.181 -4.125,-1.75 1.043,0.245 2.086,0.481 3.125,0.75 -1.36,-0.613 -2.752,-1.181 -4.125,-1.75 1.043,0.245 2.086,0.481 3.125,0.75 -1.33,-0.6 -2.657,-1.161 -4,-1.719 1,0.236 2,0.492 3,0.75 -1.287,-0.581 -2.575,-1.147 -3.875,-1.688 0.959,0.227 1.919,0.44 2.875,0.688 -1.31,-0.591 -2.615,-1.169 -3.938,-1.719 0.981,0.232 1.96,0.466 2.938,0.719 -1.319,-0.595 -2.637,-1.166 -3.969,-1.719 0.994,0.235 2.01,0.462 3,0.719 -1.328,-0.599 -2.691,-1.162 -4.03,-1.719 1.01,0.238 2.024,0.458 3.03,0.719 -1.36,-0.613 -2.752,-1.181 -4.125,-1.75 1.043,0.245 2.086,0.481 3.125,0.75 -1.33,-0.6 -2.657,-1.161 -4,-1.719 1,0.236 2,0.492 3,0.75 -1.287,-0.581 -2.575,-1.147 -3.875,-1.688 0.959,0.227 1.919,0.44 2.875,0.688 -1.31,-0.591 -2.615,-1.169 -3.938,-1.719 0.981,0.232 1.96,0.466 2.938,0.719 -1.328,-0.599 -2.659,-1.162 -4,-1.719 0.982,0.232 1.99,0.435 2.969,0.688 -1.315,-0.593 -2.641,-1.136 -3.969,-1.688 1.01,0.238 2.024,0.458 3.03,0.719 -1.36,-0.613 -2.752,-1.181 -4.125,-1.75 1.043,0.245 2.086,0.481 3.125,0.75 -1.355,-0.611 -2.725,-1.183 -4.094,-1.75 1.033,0.243 2.064,0.483 3.094,0.75 -1.287,-0.581 -2.575,-1.115 -3.875,-1.656 0.959,0.227 1.919,0.44 2.875,0.688 -1.287,-0.581 -2.575,-1.147 -3.875,-1.688 0.959,0.227 1.919,0.44 2.875,0.688 -1.31,-0.591 -2.615,-1.169 -3.938,-1.719 0.981,0.232 1.96,0.466 2.938,0.719 -1.328,-0.599 -2.659,-1.162 -4,-1.719 1.01,0.238 2.024,0.458 3.03,0.719 -1.36,-0.613 -2.752,-1.181 -4.125,-1.75 1.043,0.245 2.086,0.481 3.125,0.75 -1.36,-0.613 -2.752,-1.181 -4.125,-1.75 1.043,0.245 2.086,0.481 3.125,0.75 -1.33,-0.6 -2.657,-1.161 -4,-1.719 1,0.236 2,0.492 3,0.75 -1.287,-0.581 -2.575,-1.147 -3.875,-1.688 0.959,0.227 1.919,0.44 2.875,0.688 -1.31,-0.591 -2.615,-1.169 -3.938,-1.719 0.981,0.232 1.96,0.466 2.938,0.719 -1.328,-0.599 -2.659,-1.162 -4,-1.719 1.01,0.238 2.024,0.458 3.03,0.719 -1.328,-0.599 -2.691,-1.162 -4.03,-1.719 1.01,0.238 2.024,0.458 3.03,0.719 -1.36,-0.613 -2.752,-1.181 -4.125,-1.75 1.043,0.245 2.086,0.481 3.125,0.75 -1.33,-0.6 -2.657,-1.161 -4,-1.719 1,0.236 2,0.492 3,0.75 -1.287,-0.581 -2.575,-1.147 -3.875,-1.688 0.959,0.227 1.919,0.44 2.875,0.688 -1.31,-0.591 -2.615,-1.169 -3.938,-1.719 0.981,0.232 1.96,0.466 2.938,0.719 -1.319,-0.595 -2.637,-1.166 -3.969,-1.719 0.994,0.235 2.01,0.462 3,0.719 -1.328,-0.599 -2.691,-1.162 -4.03,-1.719 1.01,0.238 2.024,0.458 3.03,0.719 -1.36,-0.613 -2.752,-1.181 -4.125,-1.75 1.043,0.245 2.086,0.481 3.125,0.75 -1.333,-0.601 -2.685,-1.16 -4.03,-1.719 1.012,0.238 2.023,0.489 3.03,0.75 -1.287,-0.581 -2.575,-1.147 -3.875,-1.688 0.959,0.227 1.919,0.44 2.875,0.688 -1.31,-0.591 -2.615,-1.169 -3.938,-1.719 0.981,0.232 1.96,0.466 2.938,0.719 -1.31,-0.591 -2.615,-1.169 -3.938,-1.719 0.981,0.232 1.96,0.466 2.938,0.719 -1.328,-0.599 -2.659,-1.162 -4,-1.719 1.01,0.238 2.024,0.458 3.03,0.719 -1.36,-0.613 -2.752,-1.181 -4.125,-1.75 1.043,0.245 2.086,0.481 3.125,0.75 -1.355,-0.611 -2.725,-1.183 -4.094,-1.75 1.033,0.243 2.064,0.483 3.094,0.75 -1.33,-0.6 -2.657,-1.161 -4,-1.719 1,0.236 2,0.492 3,0.75 -1.287,-0.581 -2.575,-1.147 -3.875,-1.688 0.959,0.227 1.919,0.44 2.875,0.688 -1.31,-0.591 -2.615,-1.169 -3.938,-1.719 0.981,0.232 1.96,0.466 2.938,0.719 -1.328,-0.599 -2.659,-1.162 -4,-1.719 1.01,0.238 2.024,0.458 3.03,0.719 -1.36,-0.613 -2.752,-1.181 -4.125,-1.75 1.043,0.245 2.086,0.481 3.125,0.75 -1.36,-0.613 -2.752,-1.181 -4.125,-1.75 1.043,0.245 2.086,0.481 3.125,0.75 -1.33,-0.6 -2.657,-1.161 -4,-1.719 1,0.236 2,0.492 3,0.75 -1.287,-0.581 -2.575,-1.147 -3.875,-1.688 0.959,0.227 1.919,0.44 2.875,0.688 -1.31,-0.591 -2.615,-1.169 -3.938,-1.719 0.981,0.232 1.96,0.466 2.938,0.719 -1.328,-0.599 -2.659,-1.162 -4,-1.719 1.01,0.238 2.024,0.458 3.03,0.719 -1.328,-0.599 -2.691,-1.162 -4.03,-1.719 1.01,0.238 2.024,0.458 3.03,0.719 -1.36,-0.613 -2.752,-1.181 -4.125,-1.75 1.043,0.245 2.086,0.481 3.125,0.75 -1.33,-0.6 -2.657,-1.161 -4,-1.719 1,0.236 2,0.492 3,0.75 -1.287,-0.581 -2.575,-1.147 -3.875,-1.688 0.959,0.227 1.919,0.44 2.875,0.688 -1.31,-0.591 -2.615,-1.169 -3.938,-1.719 0.981,0.232 1.96,0.466 2.938,0.719 -1.328,-0.599 -2.659,-1.162 -4,-1.719 0.982,0.232 1.99,0.435 2.969,0.688 -1.315,-0.593 -2.641,-1.136 -3.969,-1.688 1.01,0.238 2.024,0.458 3.03,0.719 -18.755,-8.457 -38.86,-12.695 -58.969,-12.625"
     inkscape:connector-curvature="0"
     id="path6"
     style="fill-opacity:0.23500001" />
  <g
     id="g8"
     style="fill-rule:evenodd">
    <path
       d="M 256,1 C 115.17,1 1,115.17 1,256 1,396.83 115.17,511 256,511 396.83,511 511,396.83 511,256 511,115.17 396.83,1 256,1 m 8.827,44.931 c 120.9,0 218.9,98 218.9,218.9 0,120.9 -98,218.9 -218.9,218.9 -120.9,0 -218.93,-98 -218.93,-218.9 0,-120.9 98.03,-218.9 218.93,-218.9"
       inkscape:connector-curvature="0"
       id="path10"
       style="fill-opacity:0.06700003" />
    <g
       id="g12"
       style="fill-opacity:0.12900002">
      <path
         d="m 256,4.433 c -138.94,0 -251.57,112.63 -251.57,251.57 0,138.94 112.63,251.57 251.57,251.57 138.94,0 251.57,-112.63 251.57,-251.57 C 507.57,117.063 394.94,4.433 256,4.433 m 5.885,38.556 c 120.9,0 218.9,98 218.9,218.9 0,120.9 -98,218.9 -218.9,218.9 -120.9,0 -218.93,-98 -218.93,-218.9 0,-120.9 98.03,-218.9 218.93,-218.9"
         inkscape:connector-curvature="0"
         id="path14" />
      <path
         d="m 256,8.356 c -136.77,0 -247.64,110.87 -247.64,247.64 0,136.77 110.87,247.64 247.64,247.64 136.77,0 247.64,-110.87 247.64,-247.64 C 503.64,119.226 392.77,8.356 256,8.356 m 2.942,31.691 c 120.9,0 218.9,98 218.9,218.9 0,120.9 -98,218.9 -218.9,218.9 -120.9,0 -218.93,-98 -218.93,-218.9 0,-120.9 98.03,-218.9 218.93,-218.9"
         inkscape:connector-curvature="0"
         id="path16" />
    </g>
    <path
       d="m 253.04,7.859 c -135.42,0 -245.19,109.78 -245.19,245.19 0,135.42 109.78,245.19 245.19,245.19 135.42,0 245.19,-109.78 245.19,-245.19 0,-135.42 -109.78,-245.19 -245.19,-245.19 z m 0,26.297 c 120.9,0 218.9,98 218.9,218.9 0,120.9 -98,218.9 -218.9,218.9 -120.9,0 -218.93,-98 -218.93,-218.9 0,-120.9 98.03,-218.9 218.93,-218.9 z"
       inkscape:connector-curvature="0"
       id="path18"
       style="fill:#ffffff;stroke:#000000;stroke-width:4.90399981;stroke-opacity:0.31000001" />
  </g>
  <text
     x="729.64001"
     y="231.36"
     id="text20"
     style="font-size:129.22999573px;line-height:125%;letter-spacing:0;word-spacing:0;font-family:Gentium Book Basic">
    <tspan
       x="729.64001"
       y="231.36"
       id="tspan22" />
  </text>
  <text
     x="378.91"
     y="579.25"
     transform="scale(4.0128,0.2492)"
     id="text24"
     style="font-size:46.95399857px;text-anchor:middle;font-family:Arial" />
  <text
     x="1310.91"
     y="151.36"
     id="text26"
     style="font-size:129.22999573px;line-height:125%;letter-spacing:0;word-spacing:0;font-family:Gentium Book Basic">
    <tspan
       x="1310.91"
       y="151.36"
       id="tspan28" />
  </text>
  <text
     x="523.76001"
     y="258.22"
     transform="scale(4.0128,0.2492)"
     id="text30"
     style="font-size:46.95399857px;text-anchor:middle;font-family:Arial" />
  <text
     x="239.33"
     y="-29.900999"
     id="text32"
     style="font-size:129.22999573px;line-height:125%;letter-spacing:0;word-spacing:0;font-family:Gentium Book Basic">
    <tspan
       x="239.33"
       y="-29.900999"
       id="tspan34" />
  </text>
  <text
     x="256.72"
     y="-469.14001"
     transform="scale(4.0128,0.2492)"
     id="text36"
     style="font-size:46.95399857px;text-anchor:middle;font-family:Arial" />
  <text
     x="1337.38"
     y="-246.37"
     id="text38"
     style="font-size:129.22999573px;line-height:125%;letter-spacing:0;word-spacing:0;font-family:Gentium Book Basic">
    <tspan
       x="1337.38"
       y="-246.37"
       id="tspan40" />
  </text>
  <text
     x="530.35999"
     y="-1337.8101"
     transform="scale(4.0128,0.2492)"
     id="text42"
     style="font-size:46.95399857px;text-anchor:middle;font-family:Arial" />
  <text
     x="1918.65"
     y="-326.38"
     id="text44"
     style="font-size:129.22999573px;line-height:125%;letter-spacing:0;word-spacing:0;font-family:Gentium Book Basic">
    <tspan
       x="1918.65"
       y="-326.38"
       id="tspan46" />
  </text>
  <text
     x="675.21002"
     y="-1658.85"
     transform="scale(4.0128,0.2492)"
     id="text48"
     style="font-size:46.95399857px;text-anchor:middle;font-family:Arial" />
  <text
     x="1529.53"
     y="-798.78003"
     id="text50"
     style="font-size:129.22999573px;line-height:125%;letter-spacing:0;word-spacing:0;font-family:Gentium Book Basic">
    <tspan
       x="1529.53"
       y="-798.78003"
       id="tspan52" />
  </text>
  <text
     x="578.23999"
     y="-3554.51"
     transform="scale(4.0128,0.2492)"
     id="text54"
     style="font-size:46.95399857px;text-anchor:middle;font-family:Arial" />
  <text
     x="2110.79"
     y="-878.78003"
     id="text56"
     style="font-size:129.22999573px;line-height:125%;letter-spacing:0;word-spacing:0;font-family:Gentium Book Basic">
    <tspan
       x="2110.79"
       y="-878.78003"
       id="tspan58" />
  </text>
  <text
     x="723.09003"
     y="-3875.54"
     transform="scale(4.0128,0.2492)"
     id="text60"
     style="font-size:46.95399857px;text-anchor:middle;font-family:Arial" />
  <text
     x="277.98999"
     y="535.94"
     id="text62"
     style="font-size:208.33000183px;line-height:125%;letter-spacing:0;word-spacing:0;font-family:Gentium Book Basic">
    <tspan
       x="277.98999"
       y="535.94"
       id="tspan64" />
  </text>
  <g
     transform="matrix(10.91718,0,0,10.93811,-22.871,-11008.41)"
     id="g66">
    <path
       d="m 13.788916,1033.071 a 13.563779,13.187009 75 0 0 9.821248,10.0974 13.563779,13.187009 75 0 1 1.664198,-25.5086 13.563779,13.187009 75 0 1 6.520561,-0.01 13.563779,13.187009 75 0 0 -8.690934,-0.7152 13.563779,13.187009 75 0 0 -9.315073,16.1342 z"
       inkscape:connector-curvature="0"
       id="path68"
       style="fill:#ffffff" />
    <g
       transform="translate(1.503,-1.759)"
       id="g70"
       style="fill:none;stroke:#ffffff;stroke-width:0.40000001">
      <path
         d="m 10.607,1029.03 c 4.419,0 26.87,0 26.87,0"
         inkscape:connector-curvature="0"
         id="path72" />
      <path
         d="m 10.607,1030.74 c 4.419,0 26.87,0 26.87,0"
         inkscape:connector-curvature="0"
         id="path74" />
      <path
         d="m 10.607,1034.15 c 4.419,0 26.87,0 26.87,0"
         inkscape:connector-curvature="0"
         id="path76" />
      <path
         d="m 10.607,1032.45 c 4.419,0 26.87,0 26.87,0"
         inkscape:connector-curvature="0"
         id="path78" />
    </g>
  </g>
</svg>
