<?xml version="1.0" encoding="UTF-8" standalone="no"?>
<!-- Created with Inkscape (http://www.inkscape.org/) -->

<svg
   xmlns:dc="http://purl.org/dc/elements/1.1/"
   xmlns:cc="http://creativecommons.org/ns#"
   xmlns:rdf="http://www.w3.org/1999/02/22-rdf-syntax-ns#"
   xmlns:svg="http://www.w3.org/2000/svg"
   xmlns="http://www.w3.org/2000/svg"
   xmlns:inkscape="http://www.inkscape.org/namespaces/inkscape"
   version="1.1"
   width="100%"
   height="100%"
   viewBox="0 0 512 512"
   id="svg2">
  <metadata
     id="metadata101">
    <rdf:RDF>
      <cc:Work
         rdf:about="">
        <dc:format>image/svg+xml</dc:format>
        <dc:type
           rdf:resource="http://purl.org/dc/dcmitype/StillImage" />
      </cc:Work>
    </rdf:RDF>
  </metadata>
  <defs
     id="defs4" />
  <g
     id="g35"
     style="fill-rule:evenodd">
    <path
       d="m 471.95,253.05 c 0,120.9 -98.01,218.91 -218.91,218.91 -120.9,0 -218.91,-98.01 -218.91,-218.91 0,-120.9 98.01,-218.91 218.91,-218.91 120.9,0 218.91,98.01 218.91,218.91"
       inkscape:connector-curvature="0"
       id="path37"
       style="fill:#4ea92b" />
    <path
       d="M 256,1 C 115.17,1 1,115.17 1,256 1,396.83 115.17,511 256,511 396.83,511 511,396.83 511,256 511,115.17 396.83,1 256,1 m 8.827,44.931 c 120.9,0 218.9,98 218.9,218.9 0,120.9 -98,218.9 -218.9,218.9 -120.9,0 -218.93,-98 -218.93,-218.9 0,-120.9 98.03,-218.9 218.93,-218.9"
       inkscape:connector-curvature="0"
       id="path39"
       style="fill-opacity:0.06700003" />
    <g
       id="g41"
       style="fill-opacity:0.12900002">
      <path
         d="M 256,4.43 C 117.06,4.43 4.43,117.06 4.43,256 4.43,394.94 117.06,507.57 256,507.57 394.94,507.57 507.57,394.94 507.57,256 507.57,117.06 394.94,4.43 256,4.43 m 5.885,38.556 c 120.9,0 218.9,98 218.9,218.9 0,120.9 -98,218.9 -218.9,218.9 -120.9,0 -218.93,-98 -218.93,-218.9 0,-120.9 98.03,-218.9 218.93,-218.9"
         inkscape:connector-curvature="0"
         id="path43" />
      <path
         d="M 256,8.36 C 119.23,8.36 8.36,119.23 8.36,256 8.36,392.77 119.23,503.64 256,503.64 392.77,503.64 503.64,392.77 503.64,256 503.64,119.23 392.77,8.36 256,8.36 m 2.942,31.691 c 120.9,0 218.9,98 218.9,218.9 0,120.9 -98,218.9 -218.9,218.9 -120.9,0 -218.93,-98 -218.93,-218.9 0,-120.9 98.03,-218.9 218.93,-218.9"
         inkscape:connector-curvature="0"
         id="path45" />
    </g>
    <path
       d="M 253.04,7.86 C 117.62,7.86 7.85,117.64 7.85,253.05 c 0,135.42 109.78,245.19 245.19,245.19 135.42,0 245.19,-109.78 245.19,-245.19 C 498.23,117.63 388.45,7.86 253.04,7.86 z m 0,26.297 c 120.9,0 218.9,98 218.9,218.9 0,120.9 -98,218.9 -218.9,218.9 -120.9,0 -218.93,-98 -218.93,-218.9 0,-120.9 98.03,-218.9 218.93,-218.9 z"
       inkscape:connector-curvature="0"
       id="path47"
       style="fill:#ffffff;stroke:#000000;stroke-width:4.90399981;stroke-opacity:0.31000001" />
  </g>
  <text
     x="729.64001"
     y="231.36"
     id="text49"
     style="font-size:129.22999573px;line-height:125%;letter-spacing:0;word-spacing:0;font-family:Gentium Book Basic">
    <tspan
       x="729.64001"
       y="231.36"
       id="tspan51" />
  </text>
  <text
     x="378.91"
     y="579.26001"
     transform="scale(4.0128,0.2492)"
     id="text53"
     style="font-size:46.95399857px;text-anchor:middle;font-family:Arial" />
  <text
     x="1310.91"
     y="151.36"
     id="text55"
     style="font-size:129.22999573px;line-height:125%;letter-spacing:0;word-spacing:0;font-family:Gentium Book Basic">
    <tspan
       x="1310.91"
       y="151.36"
       id="tspan57" />
  </text>
  <text
     x="523.76001"
     y="258.22"
     transform="scale(4.0128,0.2492)"
     id="text59"
     style="font-size:46.95399857px;text-anchor:middle;font-family:Arial" />
  <text
     x="239.33"
     y="-29.9"
     id="text61"
     style="font-size:129.22999573px;line-height:125%;letter-spacing:0;word-spacing:0;font-family:Gentium Book Basic">
    <tspan
       x="239.33"
       y="-29.9"
       id="tspan63" />
  </text>
  <text
     x="256.72"
     y="-469.13"
     transform="scale(4.0128,0.2492)"
     id="text65"
     style="font-size:46.95399857px;text-anchor:middle;font-family:Arial" />
  <text
     x="1337.38"
     y="-246.37"
     id="text67"
     style="font-size:129.22999573px;line-height:125%;letter-spacing:0;word-spacing:0;font-family:Gentium Book Basic">
    <tspan
       x="1337.38"
       y="-246.37"
       id="tspan69" />
  </text>
  <text
     x="530.35999"
     y="-1337.8"
     transform="scale(4.0128,0.2492)"
     id="text71"
     style="font-size:46.95399857px;text-anchor:middle;font-family:Arial" />
  <text
     x="1918.65"
     y="-326.37"
     id="text73"
     style="font-size:129.22999573px;line-height:125%;letter-spacing:0;word-spacing:0;font-family:Gentium Book Basic">
    <tspan
       x="1918.65"
       y="-326.37"
       id="tspan75" />
  </text>
  <text
     x="675.21002"
     y="-1658.83"
     transform="scale(4.0128,0.2492)"
     id="text77"
     style="font-size:46.95399857px;text-anchor:middle;font-family:Arial" />
  <text
     x="1529.53"
     y="-798.77002"
     id="text79"
     style="font-size:129.22999573px;line-height:125%;letter-spacing:0;word-spacing:0;font-family:Gentium Book Basic">
    <tspan
       x="1529.53"
       y="-798.77002"
       id="tspan81" />
  </text>
  <text
     x="578.23999"
     y="-3554.48"
     transform="scale(4.0128,0.2492)"
     id="text83"
     style="font-size:46.95399857px;text-anchor:middle;font-family:Arial" />
  <text
     x="2110.79"
     y="-878.78003"
     id="text85"
     style="font-size:129.22999573px;line-height:125%;letter-spacing:0;word-spacing:0;font-family:Gentium Book Basic">
    <tspan
       x="2110.79"
       y="-878.78003"
       id="tspan87" />
  </text>
  <text
     x="723.09003"
     y="-3875.52"
     transform="scale(4.0128,0.2492)"
     id="text89"
     style="font-size:46.95399857px;text-anchor:middle;font-family:Arial" />
  <text
     x="277.98999"
     y="535.94"
     id="text91"
     style="font-size:208.33000183px;line-height:125%;letter-spacing:0;word-spacing:0;font-family:Gentium Book Basic">
    <tspan
       x="277.98999"
       y="535.94"
       id="tspan93" />
  </text>
  <path
     d="m 139.56,113.59 -46.5,75.38 11.531,11.531 H 93.06 l 153.94,197.91 65.41,65.41 c 92.05,-25.877 159.53,-110.43 159.53,-210.75 0,-15.247 -1.564,-30.13 -4.531,-44.5 l -94.97,-94.97 -4.469,7.25 -7.25,-7.25 h -93 l 18.875,30.594 -30.594,-30.594 -4.469,7.25 -7.25,-7.25 h -93 l 18.875,30.594 -30.594,-30.594"
     inkscape:connector-curvature="0"
     id="path95"
     style="opacity:0.25" />
  <path
     d="m 139.57,113.6 -46.51,75.36 h 93.18 L 139.565,113.6 m 11.711,0 46.51,75.36 46.51,-75.36 h -93.01 m 104.72,0 -46.51,75.36 h 93.01 l -46.51,-75.36 m 11.711,0 46.51,75.36 46.51,-75.36 h -93.01 m 104.72,0 -46.675,75.36 h 93.18 L 372.432,113.6 M 93.062,200.5 247.002,398.4 192.01,200.5 H 93.06 m 110.49,0 L 256,398.4 308.45,200.5 H 203.56 m 116.43,0 -54.992,197.9 153.94,-197.9 h -98.95"
     inkscape:connector-curvature="0"
     id="path97"
     style="fill:#ffffff" />
</svg>
