<?xml version="1.0" encoding="UTF-8" standalone="no"?>
<!-- Created with Inkscape (http://www.inkscape.org/) -->

<svg
   xmlns:dc="http://purl.org/dc/elements/1.1/"
   xmlns:cc="http://creativecommons.org/ns#"
   xmlns:rdf="http://www.w3.org/1999/02/22-rdf-syntax-ns#"
   xmlns:svg="http://www.w3.org/2000/svg"
   xmlns="http://www.w3.org/2000/svg"
   xmlns:inkscape="http://www.inkscape.org/namespaces/inkscape"
   version="1.1"
   width="100%"
   height="100%"
   viewBox="0 0 512 512"
   id="svg2">
  <metadata
     id="metadata211">
    <rdf:RDF>
      <cc:Work
         rdf:about="">
        <dc:format>image/svg+xml</dc:format>
        <dc:type
           rdf:resource="http://purl.org/dc/dcmitype/StillImage" />
      </cc:Work>
    </rdf:RDF>
  </metadata>
  <defs
     id="defs4">
    <clipPath
       id="0">
      <path
         d="m 471.95,253.05 c 0,120.9 -98.01,218.9 -218.9,218.9 -120.9,0 -218.9,-98.01 -218.9,-218.9 0,-120.9 98.01,-218.9 218.9,-218.9 120.9,0 218.9,98.01 218.9,218.9"
         inkscape:connector-curvature="0"
         id="path7" />
    </clipPath>
  </defs>
  <g
     id="g9"
     style="fill-rule:evenodd">
    <path
       d="m 471.95,253.05 c 0,120.9 -98.01,218.9 -218.9,218.9 -120.9,0 -218.9,-98.01 -218.9,-218.9 0,-120.9 98.01,-218.9 218.9,-218.9 120.9,0 218.9,98.01 218.9,218.9"
       inkscape:connector-curvature="0"
       id="path11"
       style="fill:#b93d48" />
    <path
       d="M 256,1 C 115.17,1 1,115.17 1,256 1,396.83 115.17,511 256,511 396.83,511 511,396.83 511,256 511,115.17 396.83,1 256,1 m 8.827,44.931 c 120.9,0 218.9,98 218.9,218.9 0,120.9 -98,218.9 -218.9,218.9 -120.9,0 -218.93,-98 -218.93,-218.9 0,-120.9 98.03,-218.9 218.93,-218.9"
       inkscape:connector-curvature="0"
       id="path13"
       style="fill-opacity:0.06700003" />
    <g
       id="g15"
       style="fill-opacity:0.12900002">
      <path
         d="m 256,4.433 c -138.94,0 -251.57,112.63 -251.57,251.57 0,138.94 112.63,251.57 251.57,251.57 138.94,0 251.57,-112.63 251.57,-251.57 C 507.57,117.063 394.94,4.433 256,4.433 m 5.885,38.556 c 120.9,0 218.9,98 218.9,218.9 0,120.9 -98,218.9 -218.9,218.9 -120.9,0 -218.93,-98 -218.93,-218.9 0,-120.9 98.03,-218.9 218.93,-218.9"
         inkscape:connector-curvature="0"
         id="path17" />
      <path
         d="m 256,8.356 c -136.77,0 -247.64,110.87 -247.64,247.64 0,136.77 110.87,247.64 247.64,247.64 136.77,0 247.64,-110.87 247.64,-247.64 C 503.64,119.226 392.77,8.356 256,8.356 m 2.942,31.691 c 120.9,0 218.9,98 218.9,218.9 0,120.9 -98,218.9 -218.9,218.9 -120.9,0 -218.93,-98 -218.93,-218.9 0,-120.9 98.03,-218.9 218.93,-218.9"
         inkscape:connector-curvature="0"
         id="path19" />
    </g>
    <path
       d="m 253.04,7.859 c -135.42,0 -245.19,109.78 -245.19,245.19 0,135.42 109.78,245.19 245.19,245.19 135.42,0 245.19,-109.78 245.19,-245.19 0,-135.42 -109.78,-245.19 -245.19,-245.19 z m 0,26.297 c 120.9,0 218.9,98 218.9,218.9 0,120.9 -98,218.9 -218.9,218.9 -120.9,0 -218.93,-98 -218.93,-218.9 0,-120.9 98.03,-218.9 218.93,-218.9 z"
       inkscape:connector-curvature="0"
       id="path21"
       style="fill:#ffffff;stroke:#000000;stroke-width:4.90399981;stroke-opacity:0.31000001" />
  </g>
  <text
     x="729.64001"
     y="231.36"
     id="text23"
     style="font-size:129.22999573px;line-height:125%;letter-spacing:0;word-spacing:0;font-family:Gentium Book Basic">
    <tspan
       x="729.64001"
       y="231.36"
       id="tspan25" />
  </text>
  <text
     x="378.91"
     y="579.25"
     transform="scale(4.0128,0.2492)"
     id="text27"
     style="font-size:46.95399857px;text-anchor:middle;font-family:Arial" />
  <text
     x="1310.91"
     y="151.36"
     id="text29"
     style="font-size:129.22999573px;line-height:125%;letter-spacing:0;word-spacing:0;font-family:Gentium Book Basic">
    <tspan
       x="1310.91"
       y="151.36"
       id="tspan31" />
  </text>
  <text
     x="523.76001"
     y="258.22"
     transform="scale(4.0128,0.2492)"
     id="text33"
     style="font-size:46.95399857px;text-anchor:middle;font-family:Arial" />
  <text
     x="239.33"
     y="-29.900999"
     id="text35"
     style="font-size:129.22999573px;line-height:125%;letter-spacing:0;word-spacing:0;font-family:Gentium Book Basic">
    <tspan
       x="239.33"
       y="-29.900999"
       id="tspan37" />
  </text>
  <text
     x="256.72"
     y="-469.14001"
     transform="scale(4.0128,0.2492)"
     id="text39"
     style="font-size:46.95399857px;text-anchor:middle;font-family:Arial" />
  <text
     x="1337.38"
     y="-246.37"
     id="text41"
     style="font-size:129.22999573px;line-height:125%;letter-spacing:0;word-spacing:0;font-family:Gentium Book Basic">
    <tspan
       x="1337.38"
       y="-246.37"
       id="tspan43" />
  </text>
  <text
     x="530.35999"
     y="-1337.8101"
     transform="scale(4.0128,0.2492)"
     id="text45"
     style="font-size:46.95399857px;text-anchor:middle;font-family:Arial" />
  <text
     x="1918.65"
     y="-326.38"
     id="text47"
     style="font-size:129.22999573px;line-height:125%;letter-spacing:0;word-spacing:0;font-family:Gentium Book Basic">
    <tspan
       x="1918.65"
       y="-326.38"
       id="tspan49" />
  </text>
  <text
     x="675.21002"
     y="-1658.85"
     transform="scale(4.0128,0.2492)"
     id="text51"
     style="font-size:46.95399857px;text-anchor:middle;font-family:Arial" />
  <text
     x="1529.53"
     y="-798.78003"
     id="text53"
     style="font-size:129.22999573px;line-height:125%;letter-spacing:0;word-spacing:0;font-family:Gentium Book Basic">
    <tspan
       x="1529.53"
       y="-798.78003"
       id="tspan55" />
  </text>
  <text
     x="578.23999"
     y="-3554.51"
     transform="scale(4.0128,0.2492)"
     id="text57"
     style="font-size:46.95399857px;text-anchor:middle;font-family:Arial" />
  <text
     x="2110.79"
     y="-878.78003"
     id="text59"
     style="font-size:129.22999573px;line-height:125%;letter-spacing:0;word-spacing:0;font-family:Gentium Book Basic">
    <tspan
       x="2110.79"
       y="-878.78003"
       id="tspan61" />
  </text>
  <text
     x="723.09003"
     y="-3875.54"
     transform="scale(4.0128,0.2492)"
     id="text63"
     style="font-size:46.95399857px;text-anchor:middle;font-family:Arial" />
  <text
     x="277.98999"
     y="535.94"
     id="text65"
     style="font-size:208.33000183px;line-height:125%;letter-spacing:0;word-spacing:0;font-family:Gentium Book Basic">
    <tspan
       x="277.98999"
       y="535.94"
       id="tspan67" />
  </text>
  <g
     clip-path="url(#0)"
     id="g69"
     style="opacity:0.25">
    <path
       d="m 193.38,124.09 v 31.5 l 106.07,106.07 v -31.5 z"
       inkscape:connector-curvature="0"
       id="path71" />
    <path
       d="m 193.38,155.59 h 55.16 l 106.07,106.07 h -55.16 z"
       inkscape:connector-curvature="0"
       id="path73" />
    <path
       d="m 248.53,155.59 v -31.5 L 354.6,230.16 v 31.5 z"
       inkscape:connector-curvature="0"
       id="path75" />
    <path
       d="M 248.53,124.09 H 193.37 L 299.44,230.16 H 354.6 z"
       inkscape:connector-curvature="0"
       id="path77" />
    <path
       d="m 193.38,170.56 v 31.5 l 106.07,106.07 v -31.5 z"
       inkscape:connector-curvature="0"
       id="path79" />
    <path
       d="m 193.38,202.06 h 55.16 l 106.07,106.07 h -55.16 z"
       inkscape:connector-curvature="0"
       id="path81" />
    <path
       d="m 248.53,202.06 v -31.5 L 354.6,276.63 v 31.5 z"
       inkscape:connector-curvature="0"
       id="path83" />
    <path
       d="M 248.53,170.56 H 193.37 L 299.44,276.63 H 354.6 z"
       inkscape:connector-curvature="0"
       id="path85" />
    <path
       d="m 123.28,217.03 v 31.5 L 229.35,354.6 v -31.5 z"
       inkscape:connector-curvature="0"
       id="path87" />
    <path
       d="m 123.28,248.53 h 55.16 L 284.51,354.6 h -55.16 z"
       inkscape:connector-curvature="0"
       id="path89" />
    <path
       d="m 178.44,248.53 v -31.5 L 284.51,323.1 v 31.5 z"
       inkscape:connector-curvature="0"
       id="path91" />
    <path
       d="M 178.44,217.03 H 123.28 L 229.35,323.1 h 55.16 z"
       inkscape:connector-curvature="0"
       id="path93" />
    <path
       d="m 193.38,217.03 v 31.5 L 299.45,354.6 v -31.5 z"
       inkscape:connector-curvature="0"
       id="path95" />
    <path
       d="m 193.38,248.53 h 55.16 L 354.61,354.6 h -55.16 z"
       inkscape:connector-curvature="0"
       id="path97" />
    <path
       d="m 248.53,248.53 v -31.5 L 354.6,323.1 v 31.5 z"
       inkscape:connector-curvature="0"
       id="path99" />
    <path
       d="M 248.53,217.03 H 193.37 L 299.44,323.1 h 55.16 z"
       inkscape:connector-curvature="0"
       id="path101" />
    <path
       d="m 333.56,217.03 v 31.5 L 439.63,354.6 v -31.5 z"
       inkscape:connector-curvature="0"
       id="path103" />
    <path
       d="m 333.56,248.53 h 55.16 L 494.79,354.6 h -55.16 z"
       inkscape:connector-curvature="0"
       id="path105" />
    <path
       d="m 388.72,248.53 v -31.5 L 494.79,323.1 v 31.5 z"
       inkscape:connector-curvature="0"
       id="path107" />
    <path
       d="M 388.72,217.03 H 333.56 L 439.63,323.1 h 55.16 z"
       inkscape:connector-curvature="0"
       id="path109" />
    <path
       d="m 123.28,263.47 v 31.5 l 106.07,106.07 v -31.5 z"
       inkscape:connector-curvature="0"
       id="path111" />
    <path
       d="m 123.28,294.97 h 55.16 l 106.07,106.07 h -55.16 z"
       inkscape:connector-curvature="0"
       id="path113" />
    <path
       d="m 178.44,294.97 v -31.5 l 106.07,106.07 v 31.5 z"
       inkscape:connector-curvature="0"
       id="path115" />
    <path
       d="m 178.44,263.47 h -55.16 l 106.07,106.07 h 55.16 z"
       inkscape:connector-curvature="0"
       id="path117" />
    <path
       d="m 193.38,263.47 v 31.5 l 106.07,106.07 v -31.5 z"
       inkscape:connector-curvature="0"
       id="path119" />
    <path
       d="m 193.38,294.97 h 55.16 l 106.07,106.07 h -55.16 z"
       inkscape:connector-curvature="0"
       id="path121" />
    <path
       d="m 248.53,294.97 v -31.5 L 354.6,369.54 v 31.5 z"
       inkscape:connector-curvature="0"
       id="path123" />
    <path
       d="M 248.53,263.47 H 193.37 L 299.44,369.54 H 354.6 z"
       inkscape:connector-curvature="0"
       id="path125" />
    <path
       d="m 263.47,263.47 v 31.5 l 106.07,106.07 v -31.5 z"
       inkscape:connector-curvature="0"
       id="path127" />
    <path
       d="m 263.47,294.97 h 55.16 L 424.7,401.04 h -55.16 z"
       inkscape:connector-curvature="0"
       id="path129" />
    <path
       d="m 318.63,294.97 v -31.5 L 424.7,369.54 v 31.5 z"
       inkscape:connector-curvature="0"
       id="path131" />
    <path
       d="M 318.63,263.47 H 263.47 L 369.54,369.54 H 424.7 z"
       inkscape:connector-curvature="0"
       id="path133" />
    <path
       d="m 333.56,263.47 v 31.5 l 106.07,106.07 v -31.5 z"
       inkscape:connector-curvature="0"
       id="path135" />
    <path
       d="m 333.56,294.97 h 55.16 l 106.07,106.07 h -55.16 z"
       inkscape:connector-curvature="0"
       id="path137" />
    <path
       d="m 388.72,294.97 v -31.5 l 106.07,106.07 v 31.5 z"
       inkscape:connector-curvature="0"
       id="path139" />
    <path
       d="m 388.72,263.47 h -55.16 l 106.07,106.07 h 55.16 z"
       inkscape:connector-curvature="0"
       id="path141" />
    <path
       d="m 123.28,309.94 v 31.5 l 106.07,106.07 v -31.5 z"
       inkscape:connector-curvature="0"
       id="path143" />
    <path
       d="m 123.28,341.44 h 55.16 l 106.07,106.07 h -55.16 z"
       inkscape:connector-curvature="0"
       id="path145" />
    <path
       d="m 178.44,341.44 v -31.5 l 106.07,106.07 v 31.5 z"
       inkscape:connector-curvature="0"
       id="path147" />
    <path
       d="m 178.44,309.94 h -55.16 l 106.07,106.07 h 55.16 z"
       inkscape:connector-curvature="0"
       id="path149" />
    <path
       d="m 193.38,309.94 v 31.5 l 106.07,106.07 v -31.5 z"
       inkscape:connector-curvature="0"
       id="path151" />
    <path
       d="m 193.38,341.44 h 55.16 l 106.07,106.07 h -55.16 z"
       inkscape:connector-curvature="0"
       id="path153" />
    <path
       d="m 248.53,341.44 v -31.5 L 354.6,416.01 v 31.5 z"
       inkscape:connector-curvature="0"
       id="path155" />
    <path
       d="M 248.53,309.94 H 193.37 L 299.44,416.01 H 354.6 z"
       inkscape:connector-curvature="0"
       id="path157" />
    <path
       d="m 263.47,309.94 v 31.5 l 106.07,106.07 v -31.5 z"
       inkscape:connector-curvature="0"
       id="path159" />
    <path
       d="m 263.47,341.44 h 55.16 L 424.7,447.51 h -55.16 z"
       inkscape:connector-curvature="0"
       id="path161" />
    <path
       d="m 318.63,341.44 v -31.5 L 424.7,416.01 v 31.5 z"
       inkscape:connector-curvature="0"
       id="path163" />
    <path
       d="M 318.63,309.94 H 263.47 L 369.54,416.01 H 424.7 z"
       inkscape:connector-curvature="0"
       id="path165" />
    <path
       d="m 333.56,309.94 v 31.5 l 106.07,106.07 v -31.5 z"
       inkscape:connector-curvature="0"
       id="path167" />
    <path
       d="m 333.56,341.44 h 55.16 l 106.07,106.07 h -55.16 z"
       inkscape:connector-curvature="0"
       id="path169" />
    <path
       d="m 388.72,341.44 v -31.5 l 106.07,106.07 v 31.5 z"
       inkscape:connector-curvature="0"
       id="path171" />
    <path
       d="m 388.72,309.94 h -55.16 l 106.07,106.07 h 55.16 z"
       inkscape:connector-curvature="0"
       id="path173" />
    <path
       d="m 123.28,356.41 v 31.5 l 106.07,106.07 v -31.5 z"
       inkscape:connector-curvature="0"
       id="path175" />
    <path
       d="m 123.28,387.91 h 55.16 l 106.07,106.07 h -55.16 z"
       inkscape:connector-curvature="0"
       id="path177" />
    <path
       d="m 178.44,387.91 v -31.5 l 106.07,106.07 v 31.5 z"
       inkscape:connector-curvature="0"
       id="path179" />
    <path
       d="m 178.44,356.41 h -55.16 l 106.07,106.07 h 55.16 z"
       inkscape:connector-curvature="0"
       id="path181" />
    <path
       d="m 193.38,356.41 v 31.5 l 106.07,106.07 v -31.5 z"
       inkscape:connector-curvature="0"
       id="path183" />
    <path
       d="m 193.38,387.91 h 55.16 l 106.07,106.07 h -55.16 z"
       inkscape:connector-curvature="0"
       id="path185" />
    <path
       d="m 248.53,387.91 v -31.5 L 354.6,462.48 v 31.5 z"
       inkscape:connector-curvature="0"
       id="path187" />
    <path
       d="M 248.53,356.41 H 193.37 L 299.44,462.48 H 354.6 z"
       inkscape:connector-curvature="0"
       id="path189" />
    <path
       d="m 263.47,356.41 v 31.5 l 106.07,106.07 v -31.5 z"
       inkscape:connector-curvature="0"
       id="path191" />
    <path
       d="m 263.47,387.91 h 55.16 L 424.7,493.98 h -55.16 z"
       inkscape:connector-curvature="0"
       id="path193" />
    <path
       d="m 318.63,387.91 v -31.5 L 424.7,462.48 v 31.5 z"
       inkscape:connector-curvature="0"
       id="path195" />
    <path
       d="M 318.63,356.41 H 263.47 L 369.54,462.48 H 424.7 z"
       inkscape:connector-curvature="0"
       id="path197" />
    <path
       d="m 333.56,356.41 v 31.5 l 106.07,106.07 v -31.5 z"
       inkscape:connector-curvature="0"
       id="path199" />
    <path
       d="m 333.56,387.91 h 55.16 l 106.07,106.07 h -55.16 z"
       inkscape:connector-curvature="0"
       id="path201" />
    <path
       d="m 388.72,387.91 v -31.5 l 106.07,106.07 v 31.5 z"
       inkscape:connector-curvature="0"
       id="path203" />
    <path
       d="m 388.72,356.41 h -55.16 l 106.07,106.07 h 55.16 z"
       inkscape:connector-curvature="0"
       id="path205" />
  </g>
  <path
     d="m 193.38,124.09 v 31.5 h 55.16 v -31.5 h -55.16 m 0,46.47 v 31.5 h 55.16 v -31.5 h -55.16 m -70.09,46.47 v 31.5 h 55.16 v -31.5 h -55.16 m 70.09,0 v 31.5 h 55.16 v -31.5 h -55.16 m 140.19,0 v 31.5 h 55.16 v -31.5 h -55.16 m -210.28,46.44 v 31.5 h 55.16 v -31.5 h -55.16 m 70.09,0 v 31.5 h 55.16 v -31.5 h -55.16 m 70.09,0 v 31.5 h 55.16 v -31.5 h -55.16 m 70.09,0 v 31.5 h 55.16 v -31.5 h -55.16 m -210.28,46.47 v 31.5 h 55.16 v -31.5 h -55.16 m 70.09,0 v 31.5 h 55.16 v -31.5 h -55.16 m 70.09,0 v 31.5 h 55.16 v -31.5 h -55.16 m 70.09,0 v 31.5 h 55.16 v -31.5 h -55.16 m -210.28,46.47 v 31.5 h 55.16 v -31.5 h -55.16 m 70.09,0 v 31.5 h 55.16 v -31.5 h -55.16 m 70.09,0 v 31.5 h 55.16 v -31.5 h -55.16 m 70.09,0 v 31.5 h 55.16 v -31.5 h -55.16"
     inkscape:connector-curvature="0"
     id="path207"
     style="fill:#ffffff" />
</svg>
