<?xml version="1.0" encoding="UTF-8" standalone="no"?>
<!-- Created with Inkscape (http://www.inkscape.org/) -->

<svg
   xmlns:dc="http://purl.org/dc/elements/1.1/"
   xmlns:cc="http://creativecommons.org/ns#"
   xmlns:rdf="http://www.w3.org/1999/02/22-rdf-syntax-ns#"
   xmlns:svg="http://www.w3.org/2000/svg"
   xmlns="http://www.w3.org/2000/svg"
   xmlns:inkscape="http://www.inkscape.org/namespaces/inkscape"
   version="1.1"
   width="100%"
   height="100%"
   viewBox="0 0 512 512"
   id="svg2">
  <metadata
     id="metadata76">
    <rdf:RDF>
      <cc:Work
         rdf:about="">
        <dc:format>image/svg+xml</dc:format>
        <dc:type
           rdf:resource="http://purl.org/dc/dcmitype/StillImage" />
      </cc:Work>
    </rdf:RDF>
  </metadata>
  <defs
     id="defs74" />
  <path
     d="m 471.95,253.05 c 0,120.9 -98.01,218.9 -218.9,218.9 -120.9,0 -218.9,-98.01 -218.9,-218.9 0,-120.9 98.01,-218.9 218.9,-218.9 120.9,0 218.9,98.01 218.9,218.9"
     inkscape:connector-curvature="0"
     id="path4"
     style="fill:#f38725;fill-rule:evenodd" />
  <path
     d="m 265.63,130.19 c -26.488,0 -50.05,5.859 -70.69,17.563 -20.636,11.602 -36.613,27.762 -47.906,48.5 -11.191,20.739 -16.781,43.798 -16.781,69.16 0,35.695 10.397,63.737 31.16,84.16 0.165,0.167 0.334,0.334 0.5,0.5 0.457,0.469 0.908,0.945 1.375,1.406 0.362,0.368 0.725,0.731 1.094,1.094 0.819,0.829 1.647,1.633 2.5,2.438 0.005,0.005 -0.005,0.026 0,0.031 0.005,0.005 0.026,-0.005 0.031,0 0.327,0.317 0.637,0.656 0.969,0.969 0.005,0.005 -0.005,0.026 0,0.031 0.457,0.469 0.908,0.945 1.375,1.406 0.33,0.335 0.664,0.669 1,1 0.849,0.862 1.709,1.696 2.594,2.531 0.005,0.005 -0.005,0.026 0,0.031 0.005,0.005 0.026,-0.005 0.031,0 0.327,0.317 0.637,0.656 0.969,0.969 0.005,0.005 -0.005,0.026 0,0.031 0.431,0.443 0.872,0.877 1.313,1.313 0.356,0.362 0.7,0.737 1.063,1.094 0.362,0.368 0.725,0.731 1.094,1.094 0.819,0.829 1.647,1.633 2.5,2.438 0.005,0.005 -0.005,0.026 0,0.031 0.005,0.005 0.026,-0.005 0.031,0 0.327,0.317 0.637,0.656 0.969,0.969 0.005,0.005 -0.005,0.026 0,0.031 0.457,0.469 0.908,0.945 1.375,1.406 0.362,0.368 0.725,0.731 1.094,1.094 0.819,0.829 1.647,1.633 2.5,2.438 0.005,0.005 -0.005,0.026 0,0.031 0.005,0.005 0.026,-0.005 0.031,0 0.327,0.317 0.637,0.656 0.969,0.969 0.005,0.005 -0.005,0.026 0,0.031 0.457,0.469 0.908,0.945 1.375,1.406 0.33,0.335 0.664,0.669 1,1 0.849,0.862 1.709,1.696 2.594,2.531 0.005,0.005 -0.005,0.026 0,0.031 0.005,0.005 0.026,-0.005 0.031,0 0.327,0.317 0.637,0.656 0.969,0.969 0.005,0.005 -0.005,0.026 0,0.031 0.431,0.443 0.872,0.877 1.313,1.313 0.356,0.362 0.7,0.737 1.063,1.094 0.362,0.368 0.725,0.731 1.094,1.094 0.819,0.829 1.647,1.633 2.5,2.438 0.005,0.005 -0.005,0.026 0,0.031 0.431,0.443 0.872,0.877 1.313,1.313 0.356,0.362 0.7,0.737 1.063,1.094 0.362,0.368 0.725,0.731 1.094,1.094 0.819,0.829 1.647,1.633 2.5,2.438 0.005,0.005 -0.005,0.026 0,0.031 0.005,0.005 0.026,-0.005 0.031,0 0.327,0.317 0.637,0.656 0.969,0.969 0.005,0.005 -0.005,0.026 0,0.031 0.457,0.469 0.908,0.945 1.375,1.406 0.362,0.368 0.725,0.731 1.094,1.094 0.819,0.829 1.647,1.633 2.5,2.438 0.005,0.005 -0.005,0.026 0,0.031 0.005,0.005 0.026,-0.005 0.031,0 0.327,0.317 0.637,0.656 0.969,0.969 0.005,0.005 -0.005,0.026 0,0.031 0.457,0.469 0.908,0.945 1.375,1.406 0.33,0.335 0.664,0.669 1,1 0.849,0.862 1.708,1.696 2.594,2.531 0.005,0.005 -0.005,0.026 0,0.031 0.005,0.005 0.026,-0.005 0.031,0 0.327,0.317 0.637,0.656 0.969,0.969 0.005,0.005 -0.005,0.026 0,0.031 0.431,0.443 0.872,0.877 1.313,1.313 0.356,0.362 0.7,0.737 1.063,1.094 0.362,0.368 0.725,0.731 1.094,1.094 0.819,0.829 1.647,1.633 2.5,2.438 0.005,0.005 -0.005,0.026 0,0.031 0.005,0.005 0.026,-0.005 0.031,0 0.327,0.317 0.637,0.656 0.969,0.969 0.005,0.005 -0.005,0.026 0,0.031 0.457,0.469 0.908,0.945 1.375,1.406 0.362,0.368 0.725,0.731 1.094,1.094 0.819,0.829 1.647,1.633 2.5,2.438 0.005,0.005 -0.005,0.026 0,0.031 0.005,0.005 0.026,-0.005 0.031,0 0.327,0.317 0.637,0.656 0.969,0.969 0.005,0.005 -0.005,0.026 0,0.031 0.457,0.469 0.908,0.945 1.375,1.406 0.33,0.335 0.664,0.669 1,1 0.849,0.862 1.708,1.696 2.594,2.531 0.005,0.005 -0.005,0.026 0,0.031 0.005,0.005 0.026,-0.005 0.031,0 0.327,0.317 0.637,0.656 0.969,0.969 0.005,0.005 -0.005,0.026 0,0.031 0.431,0.443 0.872,0.877 1.313,1.313 0.356,0.362 0.7,0.737 1.063,1.094 0.362,0.368 0.725,0.731 1.094,1.094 0.819,0.829 1.647,1.633 2.5,2.438 0.005,0.005 -0.005,0.026 0,0.031 0.431,0.443 0.872,0.877 1.313,1.313 0.356,0.362 0.7,0.737 1.063,1.094 0.362,0.368 0.725,0.731 1.094,1.094 0.819,0.829 1.647,1.633 2.5,2.438 0.005,0.005 -0.005,0.026 0,0.031 0.005,0.005 0.026,-0.005 0.031,0 0.327,0.317 0.637,0.656 0.969,0.969 0.005,0.005 -0.005,0.026 0,0.031 0.457,0.469 0.908,0.945 1.375,1.406 0.362,0.368 0.725,0.731 1.094,1.094 0.819,0.829 1.647,1.633 2.5,2.438 0.005,0.005 -0.005,0.026 0,0.031 0.005,0.005 0.026,-0.005 0.031,0 0.327,0.317 0.637,0.656 0.969,0.969 0.005,0.005 -0.005,0.026 0,0.031 0.457,0.469 0.908,0.945 1.375,1.406 0.33,0.335 0.664,0.669 1,1 0.849,0.862 1.709,1.696 2.594,2.531 0.005,0.005 -0.005,0.026 0,0.031 0.005,0.005 0.026,-0.005 0.031,0 0.327,0.317 0.637,0.656 0.969,0.969 0.005,0.005 -0.005,0.026 0,0.031 0.431,0.443 0.872,0.877 1.313,1.313 0.356,0.362 0.7,0.737 1.063,1.094 0.362,0.368 0.725,0.731 1.094,1.094 0.819,0.829 1.647,1.633 2.5,2.438 0.005,0.005 -0.005,0.026 0,0.031 0.005,0.005 0.026,-0.005 0.031,0 0.327,0.317 0.637,0.656 0.969,0.969 0.005,0.005 -0.005,0.026 0,0.031 0.457,0.469 0.908,0.945 1.375,1.406 0.362,0.368 0.725,0.731 1.094,1.094 0.819,0.829 1.647,1.633 2.5,2.438 0.005,0.005 -0.005,0.026 0,0.031 0.005,0.005 0.026,-0.005 0.031,0 0.327,0.317 0.637,0.656 0.969,0.969 0.005,0.005 -0.005,0.026 0,0.031 0.457,0.469 0.908,0.945 1.375,1.406 0.33,0.335 0.664,0.669 1,1 0.849,0.862 1.709,1.696 2.594,2.531 0.005,0.005 -0.005,0.026 0,0.031 0.005,0.005 0.026,-0.005 0.031,0 0.327,0.317 0.637,0.656 0.969,0.969 0.005,0.005 -0.005,0.026 0,0.031 0.431,0.443 0.872,0.877 1.313,1.313 0.093,0.094 0.189,0.186 0.281,0.281 98.05,-12.911 175.64,-90.7 188.25,-188.84 -0.106,-0.102 -0.206,-0.211 -0.313,-0.313 -0.228,-0.23 -0.457,-0.46 -0.688,-0.688 -0.106,-0.102 -0.206,-0.211 -0.313,-0.313 -0.223,-0.225 -0.462,-0.434 -0.688,-0.656 -0.124,-0.126 -0.251,-0.25 -0.375,-0.375 -0.037,-0.036 -0.057,-0.089 -0.094,-0.125 -0.292,-0.301 -0.61,-0.577 -0.906,-0.875 -0.037,-0.036 -0.057,-0.089 -0.094,-0.125 -0.65,-0.671 -1.299,-1.317 -1.969,-1.969 -0.331,-0.332 -0.664,-0.673 -1,-1 -0.174,-0.18 -0.356,-0.353 -0.531,-0.531 -0.106,-0.102 -0.206,-0.211 -0.313,-0.313 -0.223,-0.225 -0.462,-0.434 -0.688,-0.656 -0.005,-0.005 0.005,-0.026 0,-0.031 -0.112,-0.107 -0.231,-0.206 -0.344,-0.313 -0.01,-0.01 -0.021,-0.021 -0.031,-0.031 -0.037,-0.036 -0.057,-0.089 -0.094,-0.125 -0.172,-0.172 -0.358,-0.329 -0.531,-0.5 -0.124,-0.126 -0.251,-0.25 -0.375,-0.375 -0.037,-0.036 -0.057,-0.089 -0.094,-0.125 -0.17,-0.176 -0.36,-0.326 -0.531,-0.5 -0.043,-0.041 -0.082,-0.084 -0.125,-0.125 -0.115,-0.116 -0.229,-0.228 -0.344,-0.344 -0.174,-0.18 -0.356,-0.353 -0.531,-0.531 -0.053,-0.051 -0.103,-0.105 -0.156,-0.156 -0.43,-0.435 -0.843,-0.886 -1.281,-1.313 -0.176,-0.176 -0.354,-0.356 -0.531,-0.531 -0.106,-0.102 -0.206,-0.211 -0.313,-0.313 -0.228,-0.23 -0.457,-0.46 -0.688,-0.688 -0.106,-0.102 -0.206,-0.211 -0.313,-0.313 -0.223,-0.225 -0.462,-0.434 -0.688,-0.656 -0.124,-0.126 -0.251,-0.25 -0.375,-0.375 -0.037,-0.036 -0.057,-0.089 -0.094,-0.125 -0.17,-0.176 -0.36,-0.326 -0.531,-0.5 -0.042,-0.041 -0.083,-0.085 -0.125,-0.125 -0.115,-0.116 -0.229,-0.228 -0.344,-0.344 -0.174,-0.18 -0.356,-0.353 -0.531,-0.531 -0.053,-0.051 -0.103,-0.105 -0.156,-0.156 -0.43,-0.435 -0.843,-0.886 -1.281,-1.313 -0.176,-0.176 -0.354,-0.356 -0.531,-0.531 -0.106,-0.102 -0.206,-0.211 -0.313,-0.313 -0.228,-0.23 -0.457,-0.46 -0.688,-0.688 -0.106,-0.102 -0.206,-0.211 -0.313,-0.313 -0.223,-0.225 -0.462,-0.434 -0.688,-0.656 -0.124,-0.126 -0.251,-0.25 -0.375,-0.375 -0.037,-0.036 -0.057,-0.089 -0.094,-0.125 -0.33,-0.341 -0.665,-0.664 -1,-1 -0.65,-0.671 -1.299,-1.317 -1.969,-1.969 -0.176,-0.176 -0.354,-0.356 -0.531,-0.531 -0.106,-0.102 -0.206,-0.211 -0.313,-0.313 -0.228,-0.23 -0.457,-0.46 -0.688,-0.688 -0.106,-0.102 -0.206,-0.211 -0.313,-0.313 -0.223,-0.225 -0.462,-0.434 -0.688,-0.656 -0.124,-0.126 -0.251,-0.25 -0.375,-0.375 -0.037,-0.036 -0.057,-0.089 -0.094,-0.125 -0.292,-0.301 -0.61,-0.577 -0.906,-0.875 -0.037,-0.036 -0.057,-0.089 -0.094,-0.125 -0.17,-0.176 -0.36,-0.326 -0.531,-0.5 -0.043,-0.041 -0.082,-0.084 -0.125,-0.125 -0.115,-0.116 -0.229,-0.228 -0.344,-0.344 -0.174,-0.18 -0.356,-0.353 -0.531,-0.531 -0.053,-0.051 -0.103,-0.105 -0.156,-0.156 -0.43,-0.435 -0.843,-0.886 -1.281,-1.313 -0.176,-0.176 -0.354,-0.356 -0.531,-0.531 -0.106,-0.102 -0.206,-0.211 -0.313,-0.313 -0.228,-0.23 -0.457,-0.46 -0.688,-0.688 -0.106,-0.102 -0.206,-0.211 -0.313,-0.313 -0.223,-0.225 -0.462,-0.434 -0.688,-0.656 -0.124,-0.126 -0.251,-0.25 -0.375,-0.375 -0.037,-0.036 -0.057,-0.089 -0.094,-0.125 -0.17,-0.176 -0.36,-0.326 -0.531,-0.5 -0.042,-0.041 -0.083,-0.085 -0.125,-0.125 -0.115,-0.116 -0.229,-0.228 -0.344,-0.344 -0.174,-0.18 -0.356,-0.353 -0.531,-0.531 -0.053,-0.051 -0.103,-0.105 -0.156,-0.156 -0.43,-0.435 -0.843,-0.886 -1.281,-1.313 -0.176,-0.176 -0.354,-0.356 -0.531,-0.531 -0.106,-0.102 -0.206,-0.211 -0.313,-0.313 -0.228,-0.23 -0.457,-0.46 -0.688,-0.688 -0.106,-0.102 -0.206,-0.211 -0.313,-0.313 -0.223,-0.225 -0.462,-0.434 -0.688,-0.656 -0.124,-0.126 -0.251,-0.25 -0.375,-0.375 -0.037,-0.036 -0.057,-0.089 -0.094,-0.125 -0.17,-0.176 -0.36,-0.326 -0.531,-0.5 -0.042,-0.041 -0.083,-0.085 -0.125,-0.125 -0.115,-0.116 -0.229,-0.228 -0.344,-0.344 -0.174,-0.18 -0.356,-0.353 -0.531,-0.531 -0.053,-0.051 -0.103,-0.105 -0.156,-0.156 -0.43,-0.435 -0.843,-0.886 -1.281,-1.313 -0.176,-0.176 -0.354,-0.356 -0.531,-0.531 -0.106,-0.102 -0.206,-0.211 -0.313,-0.313 -0.228,-0.23 -0.457,-0.46 -0.688,-0.688 -0.106,-0.102 -0.206,-0.211 -0.313,-0.313 -0.223,-0.225 -0.462,-0.434 -0.688,-0.656 -0.124,-0.126 -0.251,-0.25 -0.375,-0.375 -0.037,-0.036 -0.057,-0.089 -0.094,-0.125 -0.292,-0.301 -0.61,-0.577 -0.906,-0.875 -0.037,-0.036 -0.057,-0.089 -0.094,-0.125 -0.65,-0.671 -1.299,-1.317 -1.969,-1.969 -0.331,-0.332 -0.664,-0.673 -1,-1 -0.174,-0.18 -0.356,-0.353 -0.531,-0.531 -0.106,-0.102 -0.206,-0.211 -0.313,-0.313 -0.223,-0.225 -0.462,-0.434 -0.688,-0.656 -0.005,-0.005 0.005,-0.026 0,-0.031 -0.112,-0.107 -0.231,-0.206 -0.344,-0.313 -0.01,-0.01 -0.021,-0.021 -0.031,-0.031 -0.037,-0.036 -0.057,-0.089 -0.094,-0.125 -0.292,-0.301 -0.61,-0.577 -0.906,-0.875 -0.037,-0.036 -0.057,-0.089 -0.094,-0.125 -0.17,-0.176 -0.36,-0.326 -0.531,-0.5 -0.043,-0.041 -0.082,-0.084 -0.125,-0.125 -0.115,-0.116 -0.229,-0.228 -0.344,-0.344 -0.174,-0.18 -0.356,-0.353 -0.531,-0.531 -0.053,-0.051 -0.103,-0.105 -0.156,-0.156 -0.43,-0.435 -0.843,-0.886 -1.281,-1.313 -0.176,-0.176 -0.354,-0.356 -0.531,-0.531 -0.106,-0.102 -0.206,-0.211 -0.313,-0.313 -0.228,-0.23 -0.457,-0.46 -0.688,-0.688 -0.106,-0.102 -0.206,-0.211 -0.313,-0.313 -0.223,-0.225 -0.462,-0.434 -0.688,-0.656 -0.124,-0.126 -0.251,-0.25 -0.375,-0.375 -0.037,-0.036 -0.057,-0.089 -0.094,-0.125 -0.17,-0.176 -0.36,-0.326 -0.531,-0.5 -0.042,-0.041 -0.083,-0.085 -0.125,-0.125 -0.115,-0.116 -0.229,-0.228 -0.344,-0.344 -0.174,-0.18 -0.356,-0.353 -0.531,-0.531 -0.053,-0.051 -0.103,-0.105 -0.156,-0.156 -0.43,-0.435 -0.843,-0.886 -1.281,-1.313 -0.176,-0.176 -0.354,-0.356 -0.531,-0.531 -0.106,-0.102 -0.206,-0.211 -0.313,-0.313 -0.228,-0.23 -0.457,-0.46 -0.688,-0.688 -0.106,-0.102 -0.206,-0.211 -0.313,-0.313 -0.223,-0.225 -0.462,-0.434 -0.688,-0.656 -0.124,-0.126 -0.251,-0.25 -0.375,-0.375 -0.037,-0.036 -0.057,-0.089 -0.094,-0.125 -0.17,-0.176 -0.36,-0.326 -0.531,-0.5 -0.042,-0.041 -0.083,-0.085 -0.125,-0.125 -0.115,-0.116 -0.229,-0.228 -0.344,-0.344 -0.174,-0.18 -0.356,-0.353 -0.531,-0.531 -0.053,-0.051 -0.103,-0.105 -0.156,-0.156 -0.098,-0.1 -0.182,-0.213 -0.281,-0.313 -0.181,-0.176 -0.349,-0.357 -0.531,-0.531 -0.154,-0.157 -0.314,-0.313 -0.469,-0.469 -0.285,-0.277 -0.555,-0.57 -0.844,-0.844 -0.052,-0.052 -0.104,-0.104 -0.156,-0.156 -0.284,-0.276 -0.556,-0.571 -0.844,-0.844 -0.052,-0.052 -0.104,-0.104 -0.156,-0.156 -0.174,-0.17 -0.356,-0.332 -0.531,-0.5 -0.124,-0.126 -0.251,-0.25 -0.375,-0.375 -0.037,-0.036 -0.057,-0.089 -0.094,-0.125 -0.292,-0.301 -0.61,-0.577 -0.906,-0.875 -0.037,-0.036 -0.057,-0.089 -0.094,-0.125 -0.32,-0.33 -0.644,-0.643 -0.969,-0.969 -0.185,-0.18 -0.376,-0.353 -0.563,-0.531 -0.149,-0.151 -0.288,-0.318 -0.438,-0.469 -0.181,-0.176 -0.349,-0.357 -0.531,-0.531 -0.154,-0.157 -0.314,-0.313 -0.469,-0.469 -0.284,-0.276 -0.556,-0.571 -0.844,-0.844 -0.052,-0.052 -0.104,-0.104 -0.156,-0.156 -0.284,-0.276 -0.556,-0.571 -0.844,-0.844 -0.052,-0.052 -0.104,-0.104 -0.156,-0.156 -0.174,-0.17 -0.356,-0.332 -0.531,-0.5 -0.124,-0.126 -0.251,-0.25 -0.375,-0.375 -0.037,-0.036 -0.057,-0.089 -0.094,-0.125 -0.17,-0.176 -0.36,-0.326 -0.531,-0.5 -0.043,-0.041 -0.082,-0.084 -0.125,-0.125 -0.115,-0.116 -0.229,-0.228 -0.344,-0.344 -0.174,-0.18 -0.356,-0.353 -0.531,-0.531 -0.053,-0.051 -0.103,-0.105 -0.156,-0.156 -0.098,-0.1 -0.182,-0.213 -0.281,-0.313 -0.181,-0.176 -0.349,-0.357 -0.531,-0.531 -0.154,-0.157 -0.314,-0.313 -0.469,-0.469 -0.285,-0.277 -0.555,-0.57 -0.844,-0.844 -0.052,-0.052 -0.104,-0.104 -0.156,-0.156 -0.284,-0.276 -0.556,-0.571 -0.844,-0.844 -0.052,-0.052 -0.104,-0.104 -0.156,-0.156 -0.174,-0.17 -0.356,-0.332 -0.531,-0.5 -0.124,-0.126 -0.251,-0.25 -0.375,-0.375 -0.037,-0.036 -0.057,-0.089 -0.094,-0.125 -0.17,-0.176 -0.36,-0.326 -0.531,-0.5 -0.042,-0.041 -0.083,-0.085 -0.125,-0.125 -0.115,-0.116 -0.229,-0.228 -0.344,-0.344 -0.174,-0.18 -0.356,-0.353 -0.531,-0.531 -0.053,-0.051 -0.103,-0.105 -0.156,-0.156 -0.098,-0.1 -0.182,-0.213 -0.281,-0.313 -0.181,-0.176 -0.349,-0.357 -0.531,-0.531 -0.154,-0.157 -0.314,-0.313 -0.469,-0.469 -0.285,-0.277 -0.555,-0.57 -0.844,-0.844 -0.052,-0.052 -0.104,-0.104 -0.156,-0.156 -0.284,-0.276 -0.556,-0.571 -0.844,-0.844 -0.052,-0.052 -0.104,-0.104 -0.156,-0.156 -0.174,-0.17 -0.356,-0.332 -0.531,-0.5 -0.124,-0.126 -0.251,-0.25 -0.375,-0.375 -0.037,-0.036 -0.057,-0.089 -0.094,-0.125 -0.292,-0.301 -0.61,-0.577 -0.906,-0.875 -0.037,-0.036 -0.057,-0.089 -0.094,-0.125 -0.32,-0.33 -0.644,-0.643 -0.969,-0.969 -0.185,-0.18 -0.376,-0.353 -0.563,-0.531 -0.149,-0.151 -0.288,-0.318 -0.438,-0.469 -0.181,-0.176 -0.349,-0.357 -0.531,-0.531 -0.154,-0.157 -0.314,-0.313 -0.469,-0.469 -0.284,-0.276 -0.556,-0.571 -0.844,-0.844 -0.052,-0.052 -0.104,-0.104 -0.156,-0.156 -0.174,-0.18 -0.356,-0.353 -0.531,-0.531 -0.112,-0.107 -0.231,-0.206 -0.344,-0.313 -0.01,-0.01 -0.021,-0.021 -0.031,-0.031 -0.037,-0.036 -0.057,-0.089 -0.094,-0.125 -0.292,-0.301 -0.61,-0.577 -0.906,-0.875 -0.037,-0.036 -0.057,-0.089 -0.094,-0.125 -0.17,-0.176 -0.36,-0.326 -0.531,-0.5 -0.043,-0.041 -0.082,-0.084 -0.125,-0.125 -0.115,-0.116 -0.229,-0.228 -0.344,-0.344 -0.174,-0.18 -0.356,-0.353 -0.531,-0.531 -0.053,-0.051 -0.103,-0.105 -0.156,-0.156 -0.098,-0.1 -0.182,-0.213 -0.281,-0.313 -0.181,-0.176 -0.349,-0.357 -0.531,-0.531 -0.154,-0.157 -0.314,-0.313 -0.469,-0.469 -0.285,-0.277 -0.555,-0.57 -0.844,-0.844 -0.052,-0.052 -0.104,-0.104 -0.156,-0.156 -0.284,-0.276 -0.556,-0.571 -0.844,-0.844 -0.052,-0.052 -0.104,-0.104 -0.156,-0.156 -0.174,-0.17 -0.356,-0.332 -0.531,-0.5 -0.124,-0.126 -0.251,-0.25 -0.375,-0.375 -0.037,-0.036 -0.057,-0.089 -0.094,-0.125 -0.17,-0.176 -0.36,-0.326 -0.531,-0.5 -0.042,-0.041 -0.083,-0.085 -0.125,-0.125 -0.115,-0.116 -0.229,-0.228 -0.344,-0.344 -0.174,-0.18 -0.356,-0.353 -0.531,-0.531 -0.053,-0.051 -0.103,-0.105 -0.156,-0.156 -0.098,-0.1 -0.182,-0.213 -0.281,-0.313 -0.181,-0.176 -0.349,-0.357 -0.531,-0.531 -0.154,-0.157 -0.314,-0.313 -0.469,-0.469 -0.285,-0.277 -0.555,-0.57 -0.844,-0.844 -0.052,-0.052 -0.104,-0.104 -0.156,-0.156 -0.284,-0.276 -0.556,-0.571 -0.844,-0.844 -0.052,-0.052 -0.104,-0.104 -0.156,-0.156 -0.174,-0.17 -0.356,-0.332 -0.531,-0.5 -0.124,-0.126 -0.251,-0.25 -0.375,-0.375 -0.037,-0.036 -0.057,-0.089 -0.094,-0.125 -0.17,-0.176 -0.36,-0.326 -0.531,-0.5 -0.042,-0.041 -0.083,-0.085 -0.125,-0.125 -0.115,-0.116 -0.229,-0.228 -0.344,-0.344 -0.174,-0.18 -0.356,-0.353 -0.531,-0.531 -0.053,-0.051 -0.103,-0.105 -0.156,-0.156 -0.098,-0.1 -0.182,-0.213 -0.281,-0.313 -0.181,-0.176 -0.349,-0.357 -0.531,-0.531 -0.154,-0.157 -0.314,-0.313 -0.469,-0.469 -0.285,-0.277 -0.555,-0.57 -0.844,-0.844 -0.052,-0.052 -0.104,-0.104 -0.156,-0.156 -0.284,-0.276 -0.556,-0.571 -0.844,-0.844 -0.052,-0.052 -0.104,-0.104 -0.156,-0.156 -0.174,-0.17 -0.356,-0.332 -0.531,-0.5 -0.124,-0.126 -0.251,-0.25 -0.375,-0.375 -0.037,-0.036 -0.057,-0.089 -0.094,-0.125 -0.292,-0.301 -0.61,-0.577 -0.906,-0.875 -0.037,-0.036 -0.057,-0.089 -0.094,-0.125 -0.32,-0.33 -0.644,-0.643 -0.969,-0.969 -0.185,-0.18 -0.376,-0.353 -0.563,-0.531 -0.149,-0.151 -0.288,-0.318 -0.438,-0.469 -0.181,-0.176 -0.349,-0.357 -0.531,-0.531 -7.31,-7.431 -15.836,-13.705 -25.594,-18.781 -17.762,-9.24 -37.945,-13.844 -60.53,-13.844"
     inkscape:connector-curvature="0"
     id="path6"
     style="fill-opacity:0.23500001" />
  <g
     id="g8"
     style="fill-rule:evenodd">
    <path
       d="M 256,1 C 115.17,1 1,115.17 1,256 1,396.83 115.17,511 256,511 396.83,511 511,396.83 511,256 511,115.17 396.83,1 256,1 m 8.827,44.931 c 120.9,0 218.9,98 218.9,218.9 0,120.9 -98,218.9 -218.9,218.9 -120.9,0 -218.93,-98 -218.93,-218.9 0,-120.9 98.03,-218.9 218.93,-218.9"
       inkscape:connector-curvature="0"
       id="path10"
       style="fill-opacity:0.06700003" />
    <g
       id="g12"
       style="fill-opacity:0.12900002">
      <path
         d="m 256,4.433 c -138.94,0 -251.57,112.63 -251.57,251.57 0,138.94 112.63,251.57 251.57,251.57 138.94,0 251.57,-112.63 251.57,-251.57 C 507.57,117.063 394.94,4.433 256,4.433 m 5.885,38.556 c 120.9,0 218.9,98 218.9,218.9 0,120.9 -98,218.9 -218.9,218.9 -120.9,0 -218.93,-98 -218.93,-218.9 0,-120.9 98.03,-218.9 218.93,-218.9"
         inkscape:connector-curvature="0"
         id="path14" />
      <path
         d="m 256,8.356 c -136.77,0 -247.64,110.87 -247.64,247.64 0,136.77 110.87,247.64 247.64,247.64 136.77,0 247.64,-110.87 247.64,-247.64 C 503.64,119.226 392.77,8.356 256,8.356 m 2.942,31.691 c 120.9,0 218.9,98 218.9,218.9 0,120.9 -98,218.9 -218.9,218.9 -120.9,0 -218.93,-98 -218.93,-218.9 0,-120.9 98.03,-218.9 218.93,-218.9"
         inkscape:connector-curvature="0"
         id="path16" />
    </g>
    <path
       d="m 253.04,7.859 c -135.42,0 -245.19,109.78 -245.19,245.19 0,135.42 109.78,245.19 245.19,245.19 135.42,0 245.19,-109.78 245.19,-245.19 0,-135.42 -109.78,-245.19 -245.19,-245.19 z m 0,26.297 c 120.9,0 218.9,98 218.9,218.9 0,120.9 -98,218.9 -218.9,218.9 -120.9,0 -218.93,-98 -218.93,-218.9 0,-120.9 98.03,-218.9 218.93,-218.9 z"
       inkscape:connector-curvature="0"
       id="path18"
       style="fill:#ffffff;stroke:#000000;stroke-width:4.90399981;stroke-opacity:0.31000001" />
  </g>
  <text
     x="729.64001"
     y="231.36"
     id="text20"
     style="font-size:129.22999573px;line-height:125%;letter-spacing:0;word-spacing:0;font-family:Gentium Book Basic">
    <tspan
       x="729.64001"
       y="231.36"
       id="tspan22" />
  </text>
  <text
     x="378.91"
     y="579.25"
     transform="scale(4.0128,0.2492)"
     id="text24"
     style="font-size:46.95399857px;text-anchor:middle;font-family:Arial" />
  <text
     x="1310.91"
     y="151.36"
     id="text26"
     style="font-size:129.22999573px;line-height:125%;letter-spacing:0;word-spacing:0;font-family:Gentium Book Basic">
    <tspan
       x="1310.91"
       y="151.36"
       id="tspan28" />
  </text>
  <text
     x="523.76001"
     y="258.22"
     transform="scale(4.0128,0.2492)"
     id="text30"
     style="font-size:46.95399857px;text-anchor:middle;font-family:Arial" />
  <text
     x="239.33"
     y="-29.900999"
     id="text32"
     style="font-size:129.22999573px;line-height:125%;letter-spacing:0;word-spacing:0;font-family:Gentium Book Basic">
    <tspan
       x="239.33"
       y="-29.900999"
       id="tspan34" />
  </text>
  <text
     x="256.72"
     y="-469.14001"
     transform="scale(4.0128,0.2492)"
     id="text36"
     style="font-size:46.95399857px;text-anchor:middle;font-family:Arial" />
  <text
     x="1337.38"
     y="-246.37"
     id="text38"
     style="font-size:129.22999573px;line-height:125%;letter-spacing:0;word-spacing:0;font-family:Gentium Book Basic">
    <tspan
       x="1337.38"
       y="-246.37"
       id="tspan40" />
  </text>
  <text
     x="530.35999"
     y="-1337.8101"
     transform="scale(4.0128,0.2492)"
     id="text42"
     style="font-size:46.95399857px;text-anchor:middle;font-family:Arial" />
  <text
     x="1918.65"
     y="-326.38"
     id="text44"
     style="font-size:129.22999573px;line-height:125%;letter-spacing:0;word-spacing:0;font-family:Gentium Book Basic">
    <tspan
       x="1918.65"
       y="-326.38"
       id="tspan46" />
  </text>
  <text
     x="675.21002"
     y="-1658.85"
     transform="scale(4.0128,0.2492)"
     id="text48"
     style="font-size:46.95399857px;text-anchor:middle;font-family:Arial" />
  <text
     x="1529.53"
     y="-798.78003"
     id="text50"
     style="font-size:129.22999573px;line-height:125%;letter-spacing:0;word-spacing:0;font-family:Gentium Book Basic">
    <tspan
       x="1529.53"
       y="-798.78003"
       id="tspan52" />
  </text>
  <text
     x="578.23999"
     y="-3554.51"
     transform="scale(4.0128,0.2492)"
     id="text54"
     style="font-size:46.95399857px;text-anchor:middle;font-family:Arial" />
  <text
     x="2110.79"
     y="-878.78003"
     id="text56"
     style="font-size:129.22999573px;line-height:125%;letter-spacing:0;word-spacing:0;font-family:Gentium Book Basic">
    <tspan
       x="2110.79"
       y="-878.78003"
       id="tspan58" />
  </text>
  <text
     x="723.09003"
     y="-3875.54"
     transform="scale(4.0128,0.2492)"
     id="text60"
     style="font-size:46.95399857px;text-anchor:middle;font-family:Arial" />
  <g
     id="g62"
     style="line-height:125%;letter-spacing:0;word-spacing:0;fill:#ffffff">
    <text
       x="277.98999"
       y="535.94"
       id="text64"
       style="font-size:208.33000183px;font-family:Gentium Book Basic">
      <tspan
         x="277.98999"
         y="535.94"
         id="tspan66"
         style="fill:#ffffff" />
    </text>
    <text
       x="114.55"
       y="355.32999"
       id="text68"
       style="font-size:315.3999939px;font-weight:bold;font-family:Sans">
      <tspan
         x="114.55"
         y="355.32999"
         id="tspan70"
         style="fill:#ffffff">@</tspan>
    </text>
  </g>
</svg>
