<?xml version="1.0" encoding="UTF-8" standalone="no"?>
<!-- Created with Inkscape (http://www.inkscape.org/) -->

<svg
   xmlns:dc="http://purl.org/dc/elements/1.1/"
   xmlns:cc="http://creativecommons.org/ns#"
   xmlns:rdf="http://www.w3.org/1999/02/22-rdf-syntax-ns#"
   xmlns:svg="http://www.w3.org/2000/svg"
   xmlns="http://www.w3.org/2000/svg"
   xmlns:inkscape="http://www.inkscape.org/namespaces/inkscape"
   version="1.1"
   width="100%"
   height="100%"
   viewBox="0 0 512 512"
   id="svg2">
  <metadata
     id="metadata86">
    <rdf:RDF>
      <cc:Work
         rdf:about="">
        <dc:format>image/svg+xml</dc:format>
        <dc:type
           rdf:resource="http://purl.org/dc/dcmitype/StillImage" />
      </cc:Work>
    </rdf:RDF>
  </metadata>
  <defs
     id="defs84" />
  <text
     x="-1160.48"
     y="549.52002"
     id="text4"
     style="font-size:208.33000183px;line-height:125%;letter-spacing:0;word-spacing:0;font-family:Gentium Book Basic">
    <tspan
       x="-1160.48"
       y="549.52002"
       id="tspan6" />
  </text>
  <text
     x="28.534"
     y="1642.24"
     transform="scale(4.0128,0.2492)"
     id="text8"
     style="font-size:75.69999695px;text-anchor:middle;font-family:Arial" />
  <g
     id="g10"
     style="fill-rule:evenodd">
    <path
       d="m 471.95,253.05 c 0,120.9 -98.01,218.9 -218.9,218.9 -120.9,0 -218.9,-98.01 -218.9,-218.9 0,-120.9 98.01,-218.9 218.9,-218.9 120.9,0 218.9,98.01 218.9,218.9"
       inkscape:connector-curvature="0"
       id="path12"
       style="fill:#924565" />
    <path
       d="M 256,1 C 115.17,1 1,115.17 1,256 1,396.83 115.17,511 256,511 396.83,511 511,396.83 511,256 511,115.17 396.83,1 256,1 m 8.827,44.931 c 120.9,0 218.9,98 218.9,218.9 0,120.9 -98,218.9 -218.9,218.9 -120.9,0 -218.93,-98 -218.93,-218.9 0,-120.9 98.03,-218.9 218.93,-218.9"
       inkscape:connector-curvature="0"
       id="path14"
       style="fill-opacity:0.06700003" />
  </g>
  <path
     d="m 253.44,94.81 c -43.707,0 -83.31,17.588 -112.16,46.03 -0.056,-1.093 0,-1.813 0,-1.813 -0.489,0.472 -0.753,1.116 -0.906,1.75 -0.154,-1.696 -0.094,-2.75 -0.094,-2.75 -0.521,0.503 -0.749,1.245 -0.875,1.906 -0.172,-1.791 -0.125,-2.906 -0.125,-2.906 -0.53,0.512 -0.775,1.285 -0.875,1.938 -0.173,-1.799 -0.125,-2.938 -0.125,-2.938 -0.633,0.611 -0.804,1.635 -0.844,2.281 -0.221,-2.02 -0.125,-3.25 -0.125,-3.25 -0.587,0.566 -0.751,1.516 -0.781,2.094 -0.032,0.031 -0.062,0.063 -0.094,0.094 -0.208,-1.972 -0.125,-3.188 -0.125,-3.188 -0.521,0.503 -0.661,1.33 -0.688,1.844 -0.073,0.071 -0.146,0.147 -0.219,0.219 -0.189,-1.892 -0.094,-3.063 -0.094,-3.063 -0.456,0.441 -0.57,1.175 -0.594,1.625 -0.107,0.103 -0.207,0.208 -0.313,0.313 -0.171,-1.808 -0.094,-2.938 -0.094,-2.938 -0.391,0.378 -0.48,1.021 -0.5,1.406 -0.139,0.135 -0.269,0.27 -0.406,0.406 -0.157,-1.744 -0.094,-2.813 -0.094,-2.813 -0.326,0.315 -0.389,0.866 -0.406,1.188 -0.17,0.164 -0.333,0.333 -0.5,0.5 -0.14,-1.662 -0.094,-2.688 -0.094,-2.688 -0.261,0.252 -0.299,0.681 -0.313,0.938 -0.211,0.204 -0.419,0.417 -0.625,0.625 -0.125,-1.58 -0.031,-2.531 -0.031,-2.531 -0.196,0.189 -0.271,0.495 -0.281,0.688 -0.236,0.228 -0.458,0.454 -0.688,0.688 -0.11,-1.501 -0.031,-2.375 -0.031,-2.375 -0.131,0.126 -0.181,0.34 -0.188,0.469 -0.267,0.257 -0.523,0.517 -0.781,0.781 -0.092,-1.39 -0.031,-2.25 -0.031,-2.25 -0.065,0.063 -0.09,0.154 -0.094,0.219 -0.296,0.286 -0.589,0.58 -0.875,0.875 -0.075,-1.281 -0.031,-2.094 -0.031,-2.094 -13.09,12.644 -16.267,33.971 -16.938,46.875 0.185,-0.217 0.37,-0.404 0.563,-0.625 0.186,-0.214 0.401,-0.438 0.594,-0.656 -0.056,0.784 -0.118,1.549 -0.156,2.281 0.184,-0.215 0.371,-0.405 0.563,-0.625 0.022,-0.025 0.052,-0.069 0.094,-0.094 0.154,-0.177 0.341,-0.351 0.5,-0.531 -0.054,0.758 -0.119,1.509 -0.156,2.219 0.183,-0.214 0.372,-0.375 0.563,-0.594 0.044,-0.051 0.105,-0.138 0.188,-0.188 0.117,-0.135 0.255,-0.27 0.375,-0.406 -0.052,0.743 -0.089,1.491 -0.125,2.188 0.182,-0.213 0.373,-0.376 0.563,-0.594 0.066,-0.076 0.157,-0.175 0.281,-0.25 0.079,-0.091 0.169,-0.189 0.25,-0.281 -0.052,0.735 -0.089,1.436 -0.125,2.125 0.004,-0.005 0.028,0.005 0.031,0 0.181,-0.212 0.342,-0.408 0.531,-0.625 0.088,-0.102 0.241,-0.213 0.406,-0.313 0.051,-0.059 0.105,-0.128 0.156,-0.188 -0.043,0.613 -0.062,1.2 -0.094,1.781 -3.554,4.193 -5.534,7.325 -5.563,7.375 -0.011,-0.005 -0.188,-0.094 -0.188,-0.094 -12.511,18.13 -20.375,56.781 -20.375,56.781 0.475,-2.137 1.543,-4.439 2.719,-6.531 -1.08,4.448 -1.667,7.368 -1.688,7.469 0.466,-2.098 1.536,-4.347 2.688,-6.406 -1.088,4.482 -1.719,7.469 -1.719,7.469 0.014,-0.061 0.062,-0.156 0.063,-0.156 0.416,-1.87 1.282,-3.85 2.281,-5.719 -0.156,0.846 -0.27,1.721 -0.406,2.625 -0.567,2.47 -0.938,4.25 -0.938,4.25 0.02,-0.091 0.094,-0.219 0.094,-0.219 0.124,-0.559 0.303,-1.144 0.5,-1.719 -2.255,17.463 -1.531,42.44 -1.531,42.44 0,-2.224 0.37,-4.554 0.875,-6.75 0.019,4.567 0.121,7.523 0.125,7.656 0,-2.188 0.382,-4.462 0.875,-6.625 0.019,4.651 0.125,7.719 0.125,7.719 0,-0.075 0.031,-0.187 0.031,-0.188 0,-2.159 0.359,-4.394 0.844,-6.531 0.019,4.659 0.125,7.719 0.125,7.719 0,-0.112 0.031,-0.25 0.031,-0.25 0,-2.148 0.361,-4.405 0.844,-6.531 0.018,4.683 0.094,7.75 0.094,7.75 0,-0.149 0.094,-0.312 0.094,-0.313 0,-2.109 0.343,-4.315 0.813,-6.406 0.018,4.66 0.094,7.719 0.094,7.719 0,-0.186 0.094,-0.406 0.094,-0.406 0,-2.101 0.344,-4.292 0.813,-6.375 0.017,4.685 0.094,7.781 0.094,7.781 0,-0.223 0.125,-0.5 0.125,-0.5 0,-1.5 0.17,-3.037 0.438,-4.563 0.113,0.566 0.252,1.137 0.375,1.719 0.032,2.501 0.063,4.344 0.063,4.344 0,-0.261 0.125,-0.562 0.125,-0.563 0,-0.738 0.083,-1.495 0.156,-2.25 0.222,1 0.435,2.02 0.688,3.063 0.005,0.196 0.031,0.75 0.031,0.75 0,-0.138 0.025,-0.285 0.063,-0.406 5.01,20.534 16.11,48.741 41,73.28 0.031,0.032 0.063,0.062 0.094,0.094 0.276,0.277 0.533,0.568 0.813,0.844 0.378,0.381 0.772,0.746 1.156,1.125 0.342,0.344 0.683,0.688 1.031,1.031 0.317,0.319 0.616,0.651 0.938,0.969 0.367,0.37 0.751,0.725 1.125,1.094 0.337,0.339 0.657,0.694 1,1.031 0.347,0.349 0.71,0.683 1.063,1.031 0.316,0.318 0.617,0.652 0.938,0.969 0.497,0.5 1.023,0.971 1.531,1.469 0.021,0.021 0.042,0.041 0.063,0.063 0.161,0.16 0.307,0.34 0.469,0.5 0.378,0.381 0.771,0.746 1.156,1.125 0.341,0.343 0.684,0.689 1.031,1.031 0.016,0.016 0.016,0.047 0.031,0.063 0.291,0.293 0.58,0.584 0.875,0.875 0.348,0.351 0.709,0.682 1.063,1.031 0.373,0.376 0.745,0.751 1.125,1.125 0.312,0.314 0.621,0.625 0.938,0.938 0.372,0.375 0.746,0.752 1.125,1.125 0.311,0.313 0.621,0.625 0.938,0.938 0.374,0.377 0.744,0.75 1.125,1.125 0.423,0.426 0.849,0.858 1.281,1.281 0.265,0.265 0.544,0.517 0.813,0.781 0.306,0.308 0.596,0.631 0.906,0.938 0.378,0.381 0.771,0.746 1.156,1.125 0.341,0.343 0.684,0.69 1.031,1.031 0.306,0.308 0.595,0.63 0.906,0.938 0.378,0.382 0.77,0.745 1.156,1.125 0.341,0.344 0.684,0.689 1.031,1.031 0.343,0.345 0.682,0.688 1.031,1.031 0.341,0.343 0.684,0.69 1.031,1.031 0.485,0.489 0.971,0.983 1.469,1.469 0.053,0.053 0.103,0.104 0.156,0.156 0.111,0.107 0.233,0.205 0.344,0.313 0.341,0.345 0.684,0.688 1.031,1.031 0.373,0.377 0.745,0.75 1.125,1.125 0.342,0.345 0.683,0.688 1.031,1.031 0.203,0.205 0.388,0.42 0.594,0.625 0.111,0.108 0.232,0.205 0.344,0.313 0.403,0.408 0.806,0.813 1.219,1.219 0.28,0.282 0.559,0.563 0.844,0.844 0.383,0.387 0.765,0.771 1.156,1.156 0.341,0.344 0.684,0.689 1.031,1.031 0.307,0.309 0.594,0.63 0.906,0.938 0.509,0.514 1.039,1.021 1.563,1.531 0.202,0.202 0.42,0.392 0.625,0.594 0.341,0.345 0.683,0.688 1.031,1.031 0.203,0.205 0.389,0.421 0.594,0.625 0.478,0.488 0.977,0.953 1.469,1.438 0.341,0.344 0.683,0.689 1.031,1.031 0.305,0.308 0.596,0.631 0.906,0.938 0.408,0.413 0.832,0.809 1.25,1.219 0.275,0.277 0.533,0.568 0.813,0.844 0.387,0.392 0.791,0.766 1.188,1.156 0.34,0.344 0.684,0.69 1.031,1.031 0.311,0.314 0.62,0.625 0.938,0.938 0.488,0.494 0.997,0.979 1.5,1.469 0.218,0.218 0.436,0.439 0.656,0.656 0.377,0.381 0.739,0.777 1.125,1.156 0.166,0.168 0.332,0.333 0.5,0.5 0.137,0.133 0.268,0.274 0.406,0.406 0.347,0.351 0.708,0.683 1.063,1.031 0.342,0.345 0.682,0.688 1.031,1.031 0.341,0.345 0.683,0.689 1.031,1.031 0.371,0.376 0.745,0.752 1.125,1.125 0.311,0.313 0.62,0.626 0.938,0.938 0.3,0.304 0.6,0.604 0.906,0.906 0.545,0.553 1.091,1.108 1.656,1.656 0.042,0.042 0.083,0.083 0.125,0.125 0.084,0.082 0.165,0.169 0.25,0.25 0.432,0.439 0.868,0.877 1.313,1.313 0.167,0.168 0.332,0.332 0.5,0.5 0.132,0.128 0.273,0.247 0.406,0.375 0.352,0.357 0.702,0.708 1.063,1.063 0.339,0.343 0.684,0.69 1.031,1.031 0.341,0.345 0.682,0.688 1.031,1.031 0.341,0.345 0.682,0.688 1.031,1.031 0.34,0.344 0.683,0.689 1.031,1.031 0.371,0.375 0.745,0.752 1.125,1.125 0.31,0.313 0.62,0.626 0.938,0.938 0.381,0.386 0.765,0.773 1.156,1.156 0.341,0.344 0.682,0.689 1.031,1.031 0.167,0.168 0.331,0.332 0.5,0.5 0.08,0.077 0.17,0.142 0.25,0.219 0.436,0.444 0.863,0.903 1.313,1.344 0.166,0.168 0.332,0.333 0.5,0.5 0.127,0.122 0.247,0.253 0.375,0.375 0.305,0.31 0.625,0.598 0.938,0.906 0.39,0.398 0.785,0.793 1.188,1.188 0.34,0.345 0.682,0.688 1.031,1.031 0.34,0.345 0.682,0.688 1.031,1.031 0.339,0.344 0.683,0.689 1.031,1.031 0.376,0.381 0.738,0.778 1.125,1.156 0.168,0.17 0.329,0.33 0.5,0.5 0.227,0.219 0.456,0.439 0.688,0.656 0.125,0.126 0.249,0.25 0.375,0.375 0.038,0.035 0.087,0.058 0.125,0.094 0.42,0.431 0.847,0.854 1.281,1.281 0.055,0.058 0.101,0.129 0.156,0.188 0.238,0.241 0.476,0.479 0.719,0.719 0.384,0.392 0.791,0.767 1.188,1.156 0.339,0.345 0.682,0.689 1.031,1.031 0.05,0.053 0.106,0.103 0.156,0.156 0.244,0.247 0.47,0.505 0.719,0.75 0.435,0.446 0.892,0.871 1.344,1.313 0.289,0.293 0.579,0.584 0.875,0.875 0.391,0.398 0.783,0.793 1.188,1.188 0.283,0.286 0.554,0.59 0.844,0.875 0.477,0.487 0.971,0.956 1.469,1.438 0.207,0.208 0.414,0.418 0.625,0.625 0.338,0.345 0.683,0.689 1.031,1.031 0.399,0.407 0.805,0.815 1.219,1.219 0.279,0.282 0.558,0.563 0.844,0.844 0.343,0.35 0.709,0.684 1.063,1.031 0.391,0.399 0.782,0.793 1.188,1.188 0.03,0.032 0.063,0.062 0.094,0.094 0.171,0.173 0.33,0.356 0.5,0.531 1.846,0.046 3.674,0.094 5.531,0.094 120.9,0 218.91,-98.01 218.91,-218.91 0,-6.697 -0.318,-13.332 -0.906,-19.875 -0.264,-0.266 -0.574,-0.551 -0.813,-0.781 -0.337,-0.368 -0.624,-0.647 -0.938,-0.969 -0.006,-0.006 -0.025,0.006 -0.031,0 -0.335,-0.365 -0.626,-0.618 -0.938,-0.938 -0.005,-0.006 0.005,-0.025 0,-0.031 -0.143,-0.139 -0.24,-0.217 -0.375,-0.344 -0.209,-0.222 -0.395,-0.421 -0.594,-0.625 -0.08,-0.077 -0.141,-0.114 -0.219,-0.188 -0.419,-0.424 -0.793,-0.847 -1.156,-1.188 -0.368,-0.368 -0.708,-0.699 -1.031,-1 -0.156,-0.164 -0.287,-0.315 -0.438,-0.469 -0.192,-0.186 -0.322,-0.334 -0.5,-0.5 -0.188,-0.198 -0.351,-0.379 -0.531,-0.563 -0.15,-0.145 -0.265,-0.211 -0.406,-0.344 -0.154,-0.154 -0.322,-0.357 -0.469,-0.5 -0.039,-0.042 -0.055,-0.083 -0.094,-0.125 -0.105,-0.101 -0.181,-0.155 -0.281,-0.25 -0.244,-0.26 -0.456,-0.483 -0.688,-0.719 -0.155,-0.15 -0.26,-0.238 -0.406,-0.375 -0.139,-0.139 -0.304,-0.308 -0.438,-0.438 -0.047,-0.048 -0.079,-0.109 -0.125,-0.156 -0.068,-0.065 -0.122,-0.093 -0.188,-0.156 -0.411,-0.415 -0.796,-0.817 -1.156,-1.156 -0.216,-0.228 -0.388,-0.447 -0.594,-0.656 -0.093,-0.089 -0.16,-0.134 -0.25,-0.219 -0.377,-0.379 -0.728,-0.747 -1.063,-1.063 -0.158,-0.167 -0.316,-0.342 -0.469,-0.5 -0.038,-0.037 -0.087,-0.089 -0.125,-0.125 -0.341,-0.349 -0.658,-0.668 -0.969,-0.969 -0.344,-0.352 -0.656,-0.666 -0.969,-0.969 -0.011,-0.011 -0.02,-0.02 -0.031,-0.031 -0.227,-0.219 -0.386,-0.37 -0.594,-0.563 -0.12,-0.118 -0.228,-0.263 -0.344,-0.375 -0.333,-0.341 -0.633,-0.673 -0.938,-0.969 -0.336,-0.344 -0.662,-0.671 -0.969,-0.969 -0.333,-0.341 -0.664,-0.641 -0.969,-0.938 -0.033,-0.033 -0.062,-0.061 -0.094,-0.094 -0.257,-0.248 -0.423,-0.409 -0.656,-0.625 -0.079,-0.087 -0.14,-0.166 -0.219,-0.25 -0.333,-0.341 -0.632,-0.672 -0.938,-0.969 -0.336,-0.344 -0.66,-0.669 -0.969,-0.969 -0.334,-0.342 -0.662,-0.671 -0.969,-0.969 -0.336,-0.344 -0.66,-0.669 -0.969,-0.969 -0.339,-0.347 -0.658,-0.666 -0.969,-0.969 -0.335,-0.344 -0.629,-0.668 -0.938,-0.969 -0.338,-0.347 -0.657,-0.666 -0.969,-0.969 -0.341,-0.349 -0.655,-0.664 -0.969,-0.969 -0.338,-0.346 -0.657,-0.634 -0.969,-0.938 -0.336,-0.344 -0.659,-0.667 -0.969,-0.969 -0.06,-0.061 -0.097,-0.127 -0.156,-0.188 -0.217,-0.209 -0.361,-0.343 -0.563,-0.531 -0.077,-0.076 -0.143,-0.176 -0.219,-0.25 -0.336,-0.345 -0.658,-0.666 -0.969,-0.969 -0.339,-0.347 -0.656,-0.664 -0.969,-0.969 -0.341,-0.349 -0.654,-0.662 -0.969,-0.969 -0.343,-0.352 -0.652,-0.66 -0.969,-0.969 -0.067,-0.069 -0.122,-0.121 -0.188,-0.188 -0.123,-0.118 -0.194,-0.201 -0.313,-0.313 -0.156,-0.155 -0.288,-0.323 -0.438,-0.469 -0.339,-0.347 -0.655,-0.663 -0.969,-0.969 -0.341,-0.349 -0.653,-0.661 -0.969,-0.969 -0.077,-0.079 -0.142,-0.142 -0.219,-0.219 -0.044,-0.042 -0.082,-0.052 -0.125,-0.094 -0.216,-0.218 -0.42,-0.425 -0.625,-0.625 -0.081,-0.083 -0.139,-0.169 -0.219,-0.25 -0.105,-0.101 -0.18,-0.154 -0.281,-0.25 -0.152,-0.152 -0.291,-0.326 -0.438,-0.469 -0.334,-0.343 -0.658,-0.665 -0.969,-0.969 -0.337,-0.345 -0.656,-0.663 -0.969,-0.969 -0.339,-0.347 -0.654,-0.661 -0.969,-0.969 -0.337,-0.345 -0.656,-0.663 -0.969,-0.969 -0.098,-0.101 -0.185,-0.184 -0.281,-0.281 -0.125,-0.121 -0.192,-0.198 -0.313,-0.313 -0.12,-0.12 -0.227,-0.26 -0.344,-0.375 -0.337,-0.345 -0.655,-0.662 -0.969,-0.969 -0.339,-0.347 -0.653,-0.66 -0.969,-0.969 -0.341,-0.349 -0.651,-0.658 -0.969,-0.969 -0.338,-0.346 -0.654,-0.629 -0.969,-0.938 -0.331,-0.339 -0.628,-0.665 -0.938,-0.969 -0.335,-0.343 -0.656,-0.662 -0.969,-0.969 -0.337,-0.345 -0.654,-0.661 -0.969,-0.969 -0.339,-0.347 -0.652,-0.659 -0.969,-0.969 -0.341,-0.349 -0.651,-0.657 -0.969,-0.969 -0.337,-0.346 -0.622,-0.659 -0.938,-0.969 -0.127,-0.13 -0.251,-0.219 -0.375,-0.344 -0.136,-0.131 -0.213,-0.219 -0.344,-0.344 -0.089,-0.088 -0.163,-0.196 -0.25,-0.281 -0.339,-0.347 -0.652,-0.658 -0.969,-0.969 -0.341,-0.349 -0.65,-0.656 -0.969,-0.969 -0.133,-0.136 -0.245,-0.245 -0.375,-0.375 -0.23,-0.222 -0.378,-0.36 -0.594,-0.563 -0.137,-0.141 -0.241,-0.271 -0.375,-0.406 -0.019,-0.018 -0.044,-0.013 -0.063,-0.031 -0.176,-0.177 -0.33,-0.364 -0.5,-0.531 -0.339,-0.347 -0.651,-0.657 -0.969,-0.969 -0.341,-0.349 -0.649,-0.655 -0.969,-0.969 -0.343,-0.351 -0.648,-0.653 -0.969,-0.969 -0.141,-0.145 -0.268,-0.267 -0.406,-0.406 -0.012,-0.012 -0.019,-0.019 -0.031,-0.031 -0.175,-0.176 -0.331,-0.365 -0.5,-0.531 -0.157,-0.161 -0.316,-0.284 -0.469,-0.438 -0.1,-0.096 -0.153,-0.157 -0.25,-0.25 -0.088,-0.087 -0.164,-0.196 -0.25,-0.281 -0.158,-0.162 -0.315,-0.283 -0.469,-0.438 -0.099,-0.096 -0.153,-0.158 -0.25,-0.25 -0.088,-0.088 -0.163,-0.196 -0.25,-0.281 -0.159,-0.163 -0.314,-0.282 -0.469,-0.438 -0.1,-0.096 -0.153,-0.157 -0.25,-0.25 -0.089,-0.088 -0.163,-0.195 -0.25,-0.281 -0.569,-0.583 -1.085,-1.076 -1.594,-1.563 -0.11,-0.11 -0.204,-0.237 -0.313,-0.344 -0.334,-0.342 -0.655,-0.66 -0.969,-0.969 -0.335,-0.344 -0.653,-0.658 -0.969,-0.969 -0.337,-0.346 -0.651,-0.656 -0.969,-0.969 -0.339,-0.347 -0.65,-0.655 -0.969,-0.969 -0.176,-0.18 -0.329,-0.329 -0.5,-0.5 -0.011,-0.011 -0.02,-0.02 -0.031,-0.031 -0.144,-0.144 -0.266,-0.3 -0.406,-0.438 -0.181,-0.185 -0.356,-0.324 -0.531,-0.5 -0.069,-0.066 -0.12,-0.123 -0.188,-0.188 -0.089,-0.089 -0.163,-0.195 -0.25,-0.281 -0.341,-0.349 -0.648,-0.653 -0.969,-0.969 -0.339,-0.347 -0.649,-0.654 -0.969,-0.969 -0.187,-0.191 -0.35,-0.35 -0.531,-0.531 -0.155,-0.15 -0.288,-0.265 -0.438,-0.406 -0.191,-0.196 -0.346,-0.377 -0.531,-0.563 -0.029,-0.028 -0.065,-0.035 -0.094,-0.063 -0.053,-0.053 -0.104,-0.104 -0.156,-0.156 -0.062,-0.059 -0.095,-0.13 -0.156,-0.188 -0.196,-0.201 -0.373,-0.372 -0.563,-0.563 -0.147,-0.142 -0.264,-0.272 -0.406,-0.406 -0.339,-0.334 -0.654,-0.67 -0.969,-0.969 -0.198,-0.203 -0.371,-0.37 -0.563,-0.563 -0.149,-0.144 -0.263,-0.27 -0.406,-0.406 -0.337,-0.345 -0.619,-0.654 -0.938,-0.969 -0.338,-0.346 -0.65,-0.654 -0.969,-0.969 -0.208,-0.213 -0.393,-0.392 -0.594,-0.594 -0.136,-0.131 -0.243,-0.25 -0.375,-0.375 -0.209,-0.214 -0.392,-0.391 -0.594,-0.594 -0.137,-0.132 -0.242,-0.249 -0.375,-0.375 -0.208,-0.213 -0.393,-0.392 -0.594,-0.594 -0.063,-0.06 -0.126,-0.097 -0.188,-0.156 -3.446,-3.429 -5.813,-5.156 -5.813,-5.156 v 3 c -0.717,-0.769 -1.514,-1.562 -2.344,-2.344 -0.13,-0.136 -0.272,-0.27 -0.406,-0.406 -0.314,-0.339 -0.661,-0.688 -1,-1.031 -0.062,-0.06 -0.125,-0.128 -0.188,-0.188 -0.398,-0.398 -0.795,-0.788 -1.219,-1.188 -2.89,-2.856 -6.449,-5.792 -9.5,-8.125 -3.582,-2.739 -6.438,-4.656 -6.438,-4.656 v 6.781 c 0.343,0.316 0.663,0.624 1,0.938 v 0.063 c 0.169,0.156 0.187,0.25 0.188,0.25 0.31,0.285 0.601,0.56 0.906,0.844 0.226,0.245 0.281,0.437 0.281,0.438 0.376,0.346 0.725,0.687 1.094,1.031 0.076,0.14 0.062,0.219 0.063,0.219 0.365,0.336 0.704,0.666 1.063,1 0.079,0.156 0.125,0.25 0.125,0.25 0.371,0.341 0.73,0.661 1.094,1 0.051,0.121 0.094,0.25 0.094,0.25 0.375,0.345 0.727,0.689 1.094,1.031 0.06,0.144 0.094,0.25 0.094,0.25 0.371,0.342 0.73,0.661 1.094,1 0.057,0.144 0.094,0.25 0.094,0.25 0.377,0.347 0.725,0.687 1.094,1.031 0.048,0.131 0.063,0.219 0.063,0.219 0.386,0.355 0.747,0.71 1.125,1.063 0.046,0.13 0.063,0.219 0.063,0.219 0.383,0.352 0.75,0.682 1.125,1.031 0.048,0.137 0.063,0.219 0.063,0.219 0.388,0.357 0.745,0.708 1.125,1.063 0.033,0.105 0.063,0.187 0.063,0.188 0.388,0.357 0.745,0.708 1.125,1.063 0.036,0.115 0.063,0.187 0.063,0.188 0.375,0.345 0.726,0.689 1.094,1.031 0.055,0.164 0.063,0.25 0.063,0.25 0.392,0.361 0.773,0.705 1.156,1.063 0.021,0.078 0.031,0.187 0.031,0.188 0.389,0.357 0.745,0.708 1.125,1.063 0.024,0.086 0.063,0.187 0.063,0.188 0.381,0.351 0.752,0.683 1.125,1.031 0.038,0.127 0.063,0.25 0.063,0.25 0.3,0.276 0.58,0.538 0.875,0.813 0.091,0.114 0.191,0.23 0.281,0.344 0.004,0.017 0.031,0.094 0.031,0.094 0.055,0.051 0.101,0.105 0.156,0.156 1.922,2.429 3.636,4.743 5.156,6.938 -0.917,-0.646 -1.851,-1.279 -2.781,-1.906 0.743,0.389 1.492,0.806 2.219,1.219 -1.029,-0.731 -2.078,-1.449 -3.125,-2.156 0.722,0.379 1.419,0.755 2.125,1.156 -1.029,-0.731 -2.078,-1.449 -3.125,-2.156 0.722,0.379 1.419,0.755 2.125,1.156 -1.019,-0.724 -2.057,-1.425 -3.094,-2.125 0.709,0.372 1.4,0.731 2.094,1.125 -1.04,-0.738 -2.067,-1.442 -3.125,-2.156 0.722,0.379 1.45,0.786 2.156,1.188 -1.04,-0.738 -2.098,-1.473 -3.156,-2.188 0.722,0.379 1.45,0.786 2.156,1.188 -1.04,-0.738 -2.098,-1.473 -3.156,-2.188 0.722,0.379 1.45,0.786 2.156,1.188 -1.029,-0.731 -2.078,-1.449 -3.125,-2.156 0.722,0.379 1.419,0.755 2.125,1.156 -1.029,-0.731 -2.078,-1.449 -3.125,-2.156 0.722,0.379 1.419,0.755 2.125,1.156 -1.019,-0.724 -2.057,-1.425 -3.094,-2.125 0.709,0.372 1.4,0.731 2.094,1.125 -1.04,-0.738 -2.067,-1.442 -3.125,-2.156 0.722,0.379 1.45,0.786 2.156,1.188 -1.04,-0.738 -2.098,-1.473 -3.156,-2.188 0.722,0.379 1.45,0.786 2.156,1.188 -1.04,-0.738 -2.098,-1.473 -3.156,-2.188 0.722,0.379 1.45,0.786 2.156,1.188 -0.987,-0.701 -1.997,-1.384 -3,-2.063 0.667,0.352 1.346,0.691 2,1.063 -1.029,-0.731 -2.078,-1.449 -3.125,-2.156 0.722,0.379 1.419,0.755 2.125,1.156 -1.019,-0.724 -2.057,-1.425 -3.094,-2.125 0.709,0.372 1.4,0.731 2.094,1.125 -0.98,-0.696 -1.941,-1.388 -2.938,-2.063 0.658,0.348 1.293,0.696 1.938,1.063 -1.04,-0.738 -2.067,-1.442 -3.125,-2.156 0.722,0.379 1.45,0.786 2.156,1.188 -1.04,-0.738 -2.098,-1.473 -3.156,-2.188 0.722,0.379 1.45,0.786 2.156,1.188 -1.06,-0.753 -2.14,-1.491 -3.219,-2.219 0.743,0.389 1.492,0.806 2.219,1.219 -1.029,-0.731 -2.078,-1.449 -3.125,-2.156 0.722,0.379 1.419,0.755 2.125,1.156 -1.029,-0.731 -2.078,-1.449 -3.125,-2.156 0.722,0.379 1.419,0.755 2.125,1.156 -1.019,-0.724 -2.057,-1.425 -3.094,-2.125 0.709,0.372 1.4,0.731 2.094,1.125 -1.04,-0.738 -2.067,-1.442 -3.125,-2.156 0.722,0.379 1.45,0.786 2.156,1.188 -1.04,-0.738 -2.098,-1.473 -3.156,-2.188 0.722,0.379 1.45,0.786 2.156,1.188 -1.06,-0.753 -2.14,-1.491 -3.219,-2.219 0.743,0.389 1.492,0.806 2.219,1.219 -1.029,-0.731 -2.078,-1.449 -3.125,-2.156 0.722,0.379 1.419,0.755 2.125,1.156 -1.029,-0.731 -2.078,-1.449 -3.125,-2.156 0.722,0.379 1.419,0.755 2.125,1.156 -1.019,-0.724 -2.057,-1.425 -3.094,-2.125 0.709,0.372 1.4,0.731 2.094,1.125 -1.04,-0.738 -2.067,-1.442 -3.125,-2.156 0.722,0.379 1.45,0.786 2.156,1.188 -1.04,-0.738 -2.098,-1.473 -3.156,-2.188 0.722,0.379 1.45,0.786 2.156,1.188 -1.04,-0.738 -2.098,-1.473 -3.156,-2.188 0.722,0.379 1.45,0.786 2.156,1.188 -0.987,-0.701 -1.997,-1.384 -3,-2.063 0.667,0.352 1.346,0.691 2,1.063 -1.029,-0.731 -2.078,-1.449 -3.125,-2.156 0.722,0.379 1.419,0.755 2.125,1.156 -1.019,-0.724 -2.057,-1.425 -3.094,-2.125 0.709,0.372 1.4,0.731 2.094,1.125 -1.04,-0.738 -2.067,-1.442 -3.125,-2.156 0.722,0.379 1.45,0.786 2.156,1.188 -1.04,-0.738 -2.098,-1.473 -3.156,-2.188 0.722,0.379 1.45,0.786 2.156,1.188 -1.04,-0.738 -2.098,-1.473 -3.156,-2.188 0.722,0.379 1.45,0.786 2.156,1.188 -0.987,-0.701 -1.997,-1.384 -3,-2.063 0.667,0.352 1.346,0.691 2,1.063 -26.08,-18.522 -57.95,-29.438 -92.37,-29.438 m 129.03,67.06 c 0.595,0.312 1.197,0.641 1.781,0.969 0.117,0.169 0.229,0.333 0.344,0.5 -0.703,-0.491 -1.413,-0.989 -2.125,-1.469 m 1,1 c 0.431,0.226 0.856,0.485 1.281,0.719 0.071,0.105 0.148,0.208 0.219,0.313 -0.501,-0.347 -0.995,-0.69 -1.5,-1.031 m 1.156,1.094 c 0.2,0.105 0.395,0.205 0.594,0.313 0.033,0.049 0.061,0.107 0.094,0.156 -0.229,-0.157 -0.457,-0.313 -0.688,-0.469 m 0.875,0.906 c 0.075,0.039 0.144,0.085 0.219,0.125 0.013,0.02 0.018,0.043 0.031,0.063 -0.087,-0.059 -0.163,-0.129 -0.25,-0.188"
     inkscape:connector-curvature="0"
     id="path16"
     style="fill-opacity:0.23500001" />
  <g
     id="g18"
     style="fill-opacity:0.12900002;fill-rule:evenodd">
    <path
       d="m 256,4.433 c -138.94,0 -251.57,112.63 -251.57,251.57 0,138.94 112.63,251.57 251.57,251.57 138.94,0 251.57,-112.63 251.57,-251.57 C 507.57,117.063 394.94,4.433 256,4.433 m 5.885,38.556 c 120.9,0 218.9,98 218.9,218.9 0,120.9 -98,218.9 -218.9,218.9 -120.9,0 -218.93,-98 -218.93,-218.9 0,-120.9 98.03,-218.9 218.93,-218.9"
       inkscape:connector-curvature="0"
       id="path20" />
    <path
       d="m 256,8.356 c -136.77,0 -247.64,110.87 -247.64,247.64 0,136.77 110.87,247.64 247.64,247.64 136.77,0 247.64,-110.87 247.64,-247.64 C 503.64,119.226 392.77,8.356 256,8.356 m 2.942,31.691 c 120.9,0 218.9,98 218.9,218.9 0,120.9 -98,218.9 -218.9,218.9 -120.9,0 -218.93,-98 -218.93,-218.9 0,-120.9 98.03,-218.9 218.93,-218.9"
       inkscape:connector-curvature="0"
       id="path22" />
  </g>
  <path
     d="m 253.04,7.859 c -135.42,0 -245.19,109.78 -245.19,245.19 0,135.42 109.78,245.19 245.19,245.19 135.42,0 245.19,-109.78 245.19,-245.19 0,-135.42 -109.78,-245.19 -245.19,-245.19 z m 0,26.297 c 120.9,0 218.9,98 218.9,218.9 0,120.9 -98,218.9 -218.9,218.9 -120.9,0 -218.93,-98 -218.93,-218.9 0,-120.9 98.03,-218.9 218.93,-218.9 z"
     inkscape:connector-curvature="0"
     id="path24"
     style="fill:#ffffff;fill-rule:evenodd;stroke:#000000;stroke-width:4.90399981;stroke-opacity:0.31000001" />
  <text
     x="729.64001"
     y="231.36"
     id="text26"
     style="font-size:129.22999573px;line-height:125%;letter-spacing:0;word-spacing:0;font-family:Gentium Book Basic">
    <tspan
       x="729.64001"
       y="231.36"
       id="tspan28" />
  </text>
  <text
     x="378.91"
     y="579.25"
     transform="scale(4.0128,0.2492)"
     id="text30"
     style="font-size:46.95399857px;text-anchor:middle;font-family:Arial" />
  <text
     x="1310.91"
     y="151.36"
     id="text32"
     style="font-size:129.22999573px;line-height:125%;letter-spacing:0;word-spacing:0;font-family:Gentium Book Basic">
    <tspan
       x="1310.91"
       y="151.36"
       id="tspan34" />
  </text>
  <text
     x="523.76001"
     y="258.22"
     transform="scale(4.0128,0.2492)"
     id="text36"
     style="font-size:46.95399857px;text-anchor:middle;font-family:Arial" />
  <text
     x="239.33"
     y="-29.900999"
     id="text38"
     style="font-size:129.22999573px;line-height:125%;letter-spacing:0;word-spacing:0;font-family:Gentium Book Basic">
    <tspan
       x="239.33"
       y="-29.900999"
       id="tspan40" />
  </text>
  <text
     x="256.72"
     y="-469.14001"
     transform="scale(4.0128,0.2492)"
     id="text42"
     style="font-size:46.95399857px;text-anchor:middle;font-family:Arial" />
  <text
     x="1337.38"
     y="-246.37"
     id="text44"
     style="font-size:129.22999573px;line-height:125%;letter-spacing:0;word-spacing:0;font-family:Gentium Book Basic">
    <tspan
       x="1337.38"
       y="-246.37"
       id="tspan46" />
  </text>
  <text
     x="530.35999"
     y="-1337.8101"
     transform="scale(4.0128,0.2492)"
     id="text48"
     style="font-size:46.95399857px;text-anchor:middle;font-family:Arial" />
  <text
     x="1918.65"
     y="-326.38"
     id="text50"
     style="font-size:129.22999573px;line-height:125%;letter-spacing:0;word-spacing:0;font-family:Gentium Book Basic">
    <tspan
       x="1918.65"
       y="-326.38"
       id="tspan52" />
  </text>
  <text
     x="675.21002"
     y="-1658.85"
     transform="scale(4.0128,0.2492)"
     id="text54"
     style="font-size:46.95399857px;text-anchor:middle;font-family:Arial" />
  <text
     x="1529.53"
     y="-798.78003"
     id="text56"
     style="font-size:129.22999573px;line-height:125%;letter-spacing:0;word-spacing:0;font-family:Gentium Book Basic">
    <tspan
       x="1529.53"
       y="-798.78003"
       id="tspan58" />
  </text>
  <text
     x="578.23999"
     y="-3554.51"
     transform="scale(4.0128,0.2492)"
     id="text60"
     style="font-size:46.95399857px;text-anchor:middle;font-family:Arial" />
  <text
     x="2110.79"
     y="-878.78003"
     id="text62"
     style="font-size:129.22999573px;line-height:125%;letter-spacing:0;word-spacing:0;font-family:Gentium Book Basic">
    <tspan
       x="2110.79"
       y="-878.78003"
       id="tspan64" />
  </text>
  <text
     x="723.09003"
     y="-3875.54"
     transform="scale(4.0128,0.2492)"
     id="text66"
     style="font-size:46.95399857px;text-anchor:middle;font-family:Arial" />
  <text
     x="277.98999"
     y="535.94"
     id="text68"
     style="font-size:208.33000183px;line-height:125%;letter-spacing:0;word-spacing:0;font-family:Gentium Book Basic">
    <tspan
       x="277.98999"
       y="535.94"
       id="tspan70" />
  </text>
  <g
     id="g72"
     style="fill:#ffffff">
    <path
       d="m 366.7,133.55 c -0.91,-0.899 -1.831,-1.786 -2.762,-2.662 0.916,0.885 1.838,1.772 2.762,2.662"
       inkscape:connector-curvature="0"
       id="path74" />
    <path
       d="m 97.77,222.62 c 0,0 -0.468,0.573 -1.173,1.528 -0.101,0.521 -0.205,1.042 -0.3,1.565 0.443,-1.234 0.932,-2.281 1.473,-3.093"
       inkscape:connector-curvature="0"
       id="path76" />
    <path
       d="m 144.38,147.35 c 0.302,-0.307 0.597,-0.619 0.901,-0.923 14.05,-14.05 30.406,-25.08 48.618,-32.78 18.851,-7.974 38.881,-12.02 59.53,-12.02 19.493,0 38.431,3.607 56.35,10.717 10.466,1.808 24.416,5.29 36.04,11.897 -26.08,-18.522 -57.962,-29.412 -92.39,-29.412 -44.632,0 -84.981,18.311 -113.97,47.822 1.349,1.639 2.973,3.219 4.915,4.696"
       inkscape:connector-curvature="0"
       id="path78" />
    <path
       d="m 201.09,267.49 c -1.112,-0.927 -2.063,-1.916 -2.873,-2.949 -0.273,2.281 -0.453,4.736 -0.452,7.314 -10e-4,4.802 0.6,9.986 2.24,15.12 1.643,5.141 4.312,10.239 8.518,14.972 2.807,3.155 6.303,6.153 10.677,8.878 l -0.245,0.394 c 8.215,0.149 21.584,-0.009 28.358,-2.267 10.196,-3.399 26.511,-16.314 26.511,-16.314 4.079,-4.079 8.837,-2.039 12.915,-2.039 4.079,0 5.438,-6.118 0,-12.236 -5.438,-6.118 -24.471,-12.236 -38.746,-2.719 -14.275,9.517 -34.668,2.039 -46.903,-8.157 m 9.853,-89.71 c -0.91,3.388 -1.698,7.687 -1.696,12.363 10e-4,4.72 0.791,9.795 3.01,14.789 1.781,4.01 3.462,6.943 4.991,9.302 1.075,1.657 2.076,3.03 3.01,4.304 1.914,-1.761 4.151,-3.528 5.98,-4.747 4.079,-2.719 19.713,-10.196 21.752,-12.236 2.039,-2.039 6.118,-12.915 2.719,-16.314 -3.399,-3.399 -25.15,-1.36 -31.949,-2.719 -2.864,-0.573 -5.605,-2.594 -7.821,-4.741 m 4.39,66.51 c 0.021,0.054 0.032,0.085 0.032,0.085 0.026,-0.052 0.048,-0.108 0.074,-0.161 l -0.106,0.076 m 201.24,-30.504 c 0,5.526 -4.99,13.269 -5.956,14.715 0.201,-0.513 0.518,-2.132 0.518,-7.237 0,-7.477 2.039,-26.511 -7.477,-47.583 -9.517,-21.07 -23.792,-31.27 -23.792,-31.27 v 4.758 c -2.039,-6.798 -21.07,-19.713 -21.07,-19.713 v 6.798 c 33.988,31.27 37.39,53.02 37.39,53.02 -6.118,-19.713 -23.792,-34.668 -38.746,-48.943 -14.955,-14.275 -46.22,-21.752 -46.22,-21.752 33.31,19.03 49.622,48.943 49.622,48.943 -16.994,-16.314 -30.589,-14.955 -30.589,-14.955 10.196,7.477 14.955,15.634 24.471,30.589 9.517,14.955 8.837,50.3 8.837,50.3 -4.758,-11.556 -14.275,-16.314 -14.275,-16.314 0,0 2.039,20.393 3.399,31.949 1.36,11.556 -4.758,33.31 -4.758,33.31 0,-8.157 -4.758,-10.196 -4.758,-10.196 0,0 1.36,4.758 -5.438,26.511 -6.798,21.752 -19.713,29.23 -21.752,28.55 -2.039,-0.68 0,-4.079 0,-4.079 0,0 -3.399,-2.719 -8.157,4.758 -4.01,6.306 -10.928,9.712 -12.994,10.623 2.217,-1.258 2.798,-5.865 2.798,-5.865 0,0 -4.758,2.719 -26.511,6.118 -21.752,3.399 -31.949,-6.118 -31.949,-6.118 2.039,-2.039 11.556,0 11.556,0 0,-2.039 -10.876,-5.438 -21.752,-6.798 -8.842,-1.105 -13.13,-5.206 -15.181,-8.495 -4.078,-2.741 -7.498,-5.756 -10.336,-8.947 -3.252,-3.656 -5.735,-7.542 -7.587,-11.485 -3.706,-7.893 -4.889,-15.982 -4.889,-23.13 10e-4,-6.749 1.051,-12.683 2.1,-16.964 1.05,-4.28 2.104,-6.908 2.151,-7.03 l 0.145,0.059 c 1.277,-3.928 3.783,-7.086 6.749,-8.374 -0.931,-0.635 -1.885,-1.226 -2.871,-1.746 -4.439,-2.374 -9.47,-3.359 -14.416,-2.539 -4.956,0.785 -9.701,3.241 -13.918,6.464 -4.047,3.087 -7.267,7.483 -9.38,12.336 -2.128,4.868 -3.194,10.241 -3.193,15.641 -0.005,5.404 1.058,10.833 3.02,15.946 1.954,5.12 4.792,9.923 8.221,14.272 3.43,4.355 7.446,8.264 11.803,11.75 -4.543,-3.24 -8.796,-6.935 -12.518,-11.154 -3.72,-4.212 -6.903,-8.959 -9.226,-14.155 -2.326,-5.187 -3.774,-10.822 -4.09,-16.581 -0.32,-5.752 0.488,-11.618 2.531,-17.11 2.047,-5.481 5.3,-10.61 9.931,-14.583 2.237,-1.873 4.672,-3.576 7.316,-4.984 2.64,-1.409 5.51,-2.508 8.531,-3.127 3.02,-0.62 6.178,-0.738 9.26,-0.308 3.085,0.42 6.074,1.368 8.842,2.682 2.772,1.315 5.331,2.984 7.676,4.883 1.172,0.951 2.292,1.959 3.361,3.03 0.535,0.534 1.056,1.082 1.565,1.65 0.424,0.477 0.816,0.929 1.241,1.467 2.422,-6.279 0.724,-16.774 0.326,-18.977 -1.282,-1.815 -3.101,-4.104 -5.151,-7.373 -1.545,-2.466 -3.216,-5.492 -4.926,-9.341 -2.676,-6.02 -3.597,-12.08 -3.597,-17.55 0.002,-6.39 1.244,-12.01 2.48,-16.06 0.382,-1.249 0.763,-2.35 1.111,-3.279 3.841,-16.709 22.24,-33.15 22.24,-33.15 -25.831,-3.399 -43.505,20.393 -43.505,20.393 -0.071,-0.044 -0.145,-0.084 -0.217,-0.127 -1.832,2.03 -8.04,9.293 -8.62,15.08 0,0 0.215,-10.403 2.816,-17.676 -9.856,-3.14 -21.456,-1.5 -27.405,-0.266 l 0.039,0.216 c -6.096,1.094 -11.664,3.44 -16.611,6.392 -4.945,2.951 -9.258,6.506 -12.802,9.95 -7.08,6.872 -11.08,13.291 -11.12,13.363 v 0.003 l -0.192,-0.118 c -12.511,18.13 -20.375,56.794 -20.375,56.794 1.36,-6.118 7.477,-13.595 7.477,-13.595 -6.798,10.196 -5.438,57.1 -5.438,57.1 0,-7.477 4.079,-16.314 4.079,-16.314 1.36,15.634 8.157,65.937 52.34,104 44.18,38.07 81.57,41.465 81.57,41.465 -8.837,-2.719 -10.876,-6.798 -10.876,-6.798 28.55,11.556 46.22,9.517 46.22,9.517 -4.758,-2.719 -5.438,-4.758 -5.438,-4.758 30.589,1.36 71.37,-9.517 80.891,-16.314 9.517,-6.798 17.674,-20.393 17.674,-20.393 24.471,-11.556 41.465,-35.35 46.22,-47.583 4.758,-12.236 0,-25.15 0,-25.15 0,0 0,-0.68 11.556,-26.511 11.556,-25.831 0,-62.54 0,-62.54 M 131.16,155.892 c 2.867,-1.72 5.962,-3.274 9.263,-4.556 -13.09,-10.9 -12.07,-25.25 -12.07,-25.25 -13.09,12.644 -16.29,33.982 -16.961,46.887 0.185,-0.217 0.369,-0.434 0.562,-0.655 4.43,-5.095 10.896,-11.431 19.21,-16.422"
       inkscape:connector-curvature="0"
       id="path80" />
  </g>
</svg>
