<?xml version="1.0" encoding="UTF-8" standalone="no"?>
<!-- Created with Inkscape (http://www.inkscape.org/) -->

<svg
   xmlns:dc="http://purl.org/dc/elements/1.1/"
   xmlns:cc="http://creativecommons.org/ns#"
   xmlns:rdf="http://www.w3.org/1999/02/22-rdf-syntax-ns#"
   xmlns:svg="http://www.w3.org/2000/svg"
   xmlns="http://www.w3.org/2000/svg"
   xmlns:inkscape="http://www.inkscape.org/namespaces/inkscape"
   version="1.1"
   width="100%"
   height="100%"
   viewBox="0 0 512 512"
   id="svg2">
  <metadata
     id="metadata76">
    <rdf:RDF>
      <cc:Work
         rdf:about="">
        <dc:format>image/svg+xml</dc:format>
        <dc:type
           rdf:resource="http://purl.org/dc/dcmitype/StillImage" />
      </cc:Work>
    </rdf:RDF>
  </metadata>
  <defs
     id="defs74" />
  <g
     transform="matrix(0.95199,0,0,0.95199,-678.3,12.289)"
     id="g4">
    <path
       d="m 981.41,6 c -138.07,0 -250,111.93 -250,250 0,16.598 1.633,32.807 4.719,48.5 39.442,-48.18 96.2,-91.22 173.75,-91.22 76.31,0 172.64,41.785 291.94,160.78 18.876,-35.16 29.594,-75.36 29.594,-118.06 0,-138.07 -111.93,-250 -250,-250"
       inkscape:connector-curvature="0"
       id="path6"
       style="fill:#ffce7b" />
    <path
       d="m 909.88,213.28 c -77.53,0 -134.31,43.02 -173.75,91.19 22.573,114.87 123.8,201.53 245.28,201.53 95.37,0 178.25,-53.41 220.41,-131.94 -119.3,-119 -215.63,-160.78 -291.94,-160.78"
       inkscape:connector-curvature="0"
       id="path8"
       style="fill:#869fcb" />
  </g>
  <path
     d="m 232,145.88 c -48.661,0 -88.12,39.464 -88.12,88.13 0,24.75 10.224,47.12 26.656,63.13 0.052,0.053 0.104,0.104 0.156,0.156 0.121,0.118 0.253,0.227 0.375,0.344 0.046,0.048 0.079,0.108 0.125,0.156 0.006,0.005 0.026,-0.005 0.031,0 0.161,0.164 0.306,0.337 0.469,0.5 0.169,0.163 0.33,0.338 0.5,0.5 0.165,0.167 0.334,0.334 0.5,0.5 0.227,0.22 0.458,0.439 0.688,0.656 0.046,0.048 0.079,0.109 0.125,0.156 0.062,0.062 0.125,0.125 0.188,0.188 0.032,0.031 0.062,0.063 0.094,0.094 0.455,0.468 0.91,0.948 1.375,1.406 0.438,0.445 0.897,0.877 1.344,1.313 0.052,0.053 0.104,0.104 0.156,0.156 0.174,0.169 0.356,0.333 0.531,0.5 0.161,0.164 0.306,0.337 0.469,0.5 0.089,0.086 0.192,0.164 0.281,0.25 0.076,0.08 0.143,0.17 0.219,0.25 0.005,0.005 0.026,-0.005 0.031,0 0.265,0.27 0.512,0.546 0.781,0.813 0.122,0.117 0.252,0.227 0.375,0.344 0.046,0.048 0.079,0.109 0.125,0.156 0.062,0.062 0.125,0.125 0.188,0.188 0.032,0.031 0.062,0.063 0.094,0.094 0.455,0.468 0.91,0.948 1.375,1.406 0.329,0.335 0.665,0.671 1,1 0.438,0.445 0.897,0.877 1.344,1.313 0.052,0.053 0.104,0.104 0.156,0.156 0.121,0.118 0.253,0.227 0.375,0.344 0.046,0.048 0.079,0.108 0.125,0.156 0.006,0.005 0.026,-0.005 0.031,0 0.265,0.27 0.512,0.546 0.781,0.813 0.122,0.117 0.252,0.227 0.375,0.344 0.108,0.11 0.203,0.235 0.313,0.344 0.165,0.16 0.334,0.31 0.5,0.469 0.17,0.173 0.329,0.36 0.5,0.531 0.032,0.031 0.062,0.063 0.094,0.094 0.455,0.468 0.91,0.948 1.375,1.406 0.438,0.445 0.897,0.877 1.344,1.313 0.052,0.053 0.104,0.104 0.156,0.156 0.09,0.087 0.191,0.163 0.281,0.25 0.076,0.08 0.143,0.17 0.219,0.25 0.005,0.005 0.026,-0.005 0.031,0 0.161,0.164 0.306,0.337 0.469,0.5 0.169,0.163 0.33,0.338 0.5,0.5 0.165,0.167 0.334,0.334 0.5,0.5 0.227,0.22 0.458,0.439 0.688,0.656 0.046,0.048 0.079,0.109 0.125,0.156 0.062,0.062 0.125,0.125 0.188,0.188 0.032,0.031 0.062,0.063 0.094,0.094 0.455,0.468 0.91,0.948 1.375,1.406 0.438,0.445 0.897,0.877 1.344,1.313 0.052,0.053 0.104,0.104 0.156,0.156 0.174,0.169 0.356,0.333 0.531,0.5 0.161,0.164 0.306,0.337 0.469,0.5 0.169,0.163 0.33,0.338 0.5,0.5 0.166,0.169 0.332,0.332 0.5,0.5 0.227,0.22 0.458,0.439 0.688,0.656 0.046,0.048 0.079,0.109 0.125,0.156 0.062,0.062 0.125,0.125 0.188,0.188 0.032,0.031 0.062,0.063 0.094,0.094 0.455,0.468 0.91,0.948 1.375,1.406 0.329,0.335 0.665,0.671 1,1 0.438,0.445 0.897,0.877 1.344,1.313 0.052,0.053 0.104,0.104 0.156,0.156 0.09,0.087 0.191,0.163 0.281,0.25 0.076,0.08 0.143,0.17 0.219,0.25 0.005,0.005 0.026,-0.005 0.031,0 0.265,0.27 0.512,0.546 0.781,0.813 0.122,0.117 0.252,0.227 0.375,0.344 0.02,0.021 0.042,0.042 0.063,0.063 0.088,0.089 0.162,0.193 0.25,0.281 0.165,0.16 0.334,0.31 0.5,0.469 0.168,0.171 0.33,0.362 0.5,0.531 0.032,0.031 0.062,0.063 0.094,0.094 0.455,0.468 0.91,0.948 1.375,1.406 0.438,0.445 0.897,0.877 1.344,1.313 0.052,0.053 0.104,0.104 0.156,0.156 0.121,0.118 0.253,0.227 0.375,0.344 0.046,0.048 0.079,0.108 0.125,0.156 0.006,0.005 0.026,-0.005 0.031,0 0.265,0.27 0.512,0.546 0.781,0.813 0.122,0.117 0.252,0.227 0.375,0.344 0.108,0.11 0.203,0.235 0.313,0.344 0.165,0.16 0.334,0.31 0.5,0.469 0.17,0.173 0.329,0.36 0.5,0.531 0.032,0.031 0.062,0.063 0.094,0.094 0.455,0.468 0.91,0.948 1.375,1.406 0.438,0.445 0.897,0.877 1.344,1.313 0.052,0.053 0.104,0.104 0.156,0.156 0.09,0.087 0.191,0.163 0.281,0.25 0.076,0.08 0.143,0.17 0.219,0.25 0.005,0.005 0.026,-0.005 0.031,0 0.161,0.164 0.306,0.337 0.469,0.5 0.169,0.163 0.33,0.338 0.5,0.5 0.165,0.167 0.334,0.334 0.5,0.5 0.227,0.22 0.458,0.439 0.688,0.656 0.046,0.048 0.079,0.109 0.125,0.156 0.062,0.062 0.125,0.125 0.188,0.188 0.032,0.031 0.062,0.063 0.094,0.094 0.455,0.468 0.91,0.948 1.375,1.406 0.438,0.445 0.897,0.877 1.344,1.313 0.052,0.053 0.104,0.104 0.156,0.156 0.174,0.169 0.356,0.333 0.531,0.5 0.161,0.164 0.306,0.337 0.469,0.5 0.12,0.116 0.254,0.228 0.375,0.344 0.046,0.048 0.079,0.108 0.125,0.156 0.006,0.005 0.026,-0.005 0.031,0 0.265,0.27 0.512,0.546 0.781,0.813 0.122,0.117 0.252,0.227 0.375,0.344 0.046,0.048 0.079,0.109 0.125,0.156 0.062,0.062 0.125,0.125 0.188,0.188 0.032,0.031 0.062,0.063 0.094,0.094 0.455,0.468 0.91,0.948 1.375,1.406 0.329,0.335 0.665,0.671 1,1 0.438,0.445 0.897,0.877 1.344,1.313 0.052,0.053 0.104,0.104 0.156,0.156 0.09,0.087 0.191,0.163 0.281,0.25 0.076,0.08 0.143,0.17 0.219,0.25 0.005,0.005 0.026,-0.005 0.031,0 0.265,0.27 0.512,0.546 0.781,0.813 0.122,0.117 0.252,0.227 0.375,0.344 0.02,0.021 0.042,0.042 0.063,0.063 0.088,0.089 0.162,0.193 0.25,0.281 0.165,0.16 0.334,0.31 0.5,0.469 0.168,0.171 0.33,0.362 0.5,0.531 0.032,0.031 0.062,0.063 0.094,0.094 0.455,0.468 0.91,0.948 1.375,1.406 0.438,0.445 0.897,0.877 1.344,1.313 0.052,0.053 0.104,0.104 0.156,0.156 0.121,0.118 0.253,0.227 0.375,0.344 0.046,0.048 0.079,0.108 0.125,0.156 0.006,0.005 0.026,-0.005 0.031,0 0.161,0.164 0.306,0.337 0.469,0.5 0.169,0.163 0.33,0.338 0.5,0.5 0.165,0.167 0.334,0.334 0.5,0.5 0.227,0.22 0.458,0.439 0.688,0.656 0.046,0.048 0.079,0.109 0.125,0.156 0.062,0.062 0.125,0.125 0.188,0.188 0.032,0.031 0.062,0.063 0.094,0.094 0.455,0.468 0.91,0.948 1.375,1.406 0.438,0.445 0.897,0.877 1.344,1.313 0.052,0.053 0.104,0.104 0.156,0.156 0.174,0.169 0.356,0.333 0.531,0.5 0.161,0.164 0.306,0.337 0.469,0.5 0.169,0.163 0.33,0.338 0.5,0.5 0.166,0.169 0.332,0.332 0.5,0.5 0.227,0.22 0.458,0.439 0.688,0.656 0.046,0.048 0.079,0.109 0.125,0.156 0.062,0.062 0.125,0.125 0.188,0.188 0.032,0.031 0.062,0.063 0.094,0.094 0.455,0.468 0.91,0.948 1.375,1.406 0.329,0.335 0.665,0.671 1,1 0.438,0.445 0.897,0.877 1.344,1.313 0.052,0.053 0.104,0.104 0.156,0.156 0.121,0.118 0.253,0.227 0.375,0.344 0.046,0.048 0.079,0.108 0.125,0.156 0.006,0.005 0.026,-0.005 0.031,0 0.265,0.27 0.512,0.546 0.781,0.813 0.122,0.117 0.252,0.227 0.375,0.344 0.046,0.048 0.079,0.109 0.125,0.156 0.062,0.062 0.125,0.125 0.188,0.188 0.032,0.031 0.062,0.063 0.094,0.094 0.455,0.468 0.91,0.948 1.375,1.406 0.329,0.335 0.665,0.671 1,1 0.438,0.445 0.897,0.877 1.344,1.313 0.052,0.053 0.104,0.104 0.156,0.156 0.09,0.087 0.191,0.163 0.281,0.25 0.076,0.08 0.143,0.17 0.219,0.25 0.005,0.005 0.026,-0.005 0.031,0 0.265,0.27 0.512,0.546 0.781,0.813 0.122,0.117 0.252,0.227 0.375,0.344 0.108,0.11 0.203,0.235 0.313,0.344 0.165,0.16 0.334,0.31 0.5,0.469 0.17,0.173 0.329,0.36 0.5,0.531 0.032,0.031 0.062,0.063 0.094,0.094 0.455,0.468 0.909,0.948 1.375,1.406 0.438,0.445 0.897,0.877 1.344,1.313 0.052,0.053 0.104,0.104 0.156,0.156 0.121,0.118 0.253,0.227 0.375,0.344 0.046,0.048 0.079,0.108 0.125,0.156 0.006,0.005 0.026,-0.005 0.031,0 0.161,0.164 0.306,0.337 0.469,0.5 0.169,0.163 0.33,0.338 0.5,0.5 0.165,0.167 0.334,0.334 0.5,0.5 0.227,0.22 0.458,0.439 0.688,0.656 0.046,0.048 0.079,0.109 0.125,0.156 0.062,0.062 0.125,0.125 0.188,0.188 0.032,0.031 0.062,0.063 0.094,0.094 0.455,0.468 0.909,0.948 1.375,1.406 0.438,0.445 0.897,0.877 1.344,1.313 0.052,0.053 0.104,0.104 0.156,0.156 0.174,0.169 0.356,0.333 0.531,0.5 0.161,0.164 0.306,0.337 0.469,0.5 0.089,0.086 0.192,0.164 0.281,0.25 0.076,0.08 0.143,0.17 0.219,0.25 0.005,0.005 0.026,-0.005 0.031,0 0.265,0.27 0.512,0.546 0.781,0.813 0.122,0.117 0.252,0.227 0.375,0.344 0.046,0.048 0.079,0.109 0.125,0.156 0.062,0.062 0.125,0.125 0.188,0.188 0.032,0.031 0.062,0.063 0.094,0.094 0.455,0.468 0.909,0.948 1.375,1.406 0.329,0.335 0.665,0.671 1,1 0.438,0.445 0.897,0.877 1.344,1.313 0.052,0.053 0.104,0.104 0.156,0.156 0.121,0.118 0.253,0.227 0.375,0.344 0.046,0.048 0.079,0.108 0.125,0.156 0.006,0.005 0.026,-0.005 0.031,0 0.265,0.27 0.512,0.546 0.781,0.813 0.122,0.117 0.252,0.227 0.375,0.344 0.02,0.021 0.042,0.042 0.063,0.063 0.088,0.089 0.162,0.193 0.25,0.281 0.165,0.16 0.334,0.31 0.5,0.469 0.168,0.171 0.33,0.362 0.5,0.531 0.032,0.031 0.062,0.063 0.094,0.094 0.455,0.468 0.909,0.948 1.375,1.406 0.438,0.445 0.897,0.877 1.344,1.313 0.052,0.053 0.104,0.104 0.156,0.156 0.09,0.087 0.191,0.163 0.281,0.25 0.076,0.08 0.143,0.17 0.219,0.25 0.005,0.005 0.026,-0.005 0.031,0 0.161,0.164 0.306,0.337 0.469,0.5 0.169,0.163 0.33,0.338 0.5,0.5 0.165,0.167 0.334,0.334 0.5,0.5 0.227,0.22 0.458,0.439 0.688,0.656 0.046,0.048 0.079,0.109 0.125,0.156 0.062,0.062 0.125,0.125 0.188,0.188 0.032,0.031 0.062,0.063 0.094,0.094 0.455,0.468 0.909,0.948 1.375,1.406 0.438,0.445 0.897,0.877 1.344,1.313 0.052,0.053 0.104,0.104 0.156,0.156 0.174,0.169 0.356,0.333 0.531,0.5 0.161,0.164 0.306,0.337 0.469,0.5 0.169,0.163 0.33,0.338 0.5,0.5 0.166,0.169 0.332,0.332 0.5,0.5 0.227,0.22 0.458,0.439 0.688,0.656 0.046,0.048 0.079,0.109 0.125,0.156 0.062,0.062 0.125,0.125 0.188,0.188 0.032,0.031 0.062,0.063 0.094,0.094 0.455,0.468 0.909,0.948 1.375,1.406 0.329,0.335 0.665,0.671 1,1 0.438,0.445 0.897,0.877 1.344,1.313 0.052,0.053 0.104,0.104 0.156,0.156 0.09,0.087 0.191,0.163 0.281,0.25 0.076,0.08 0.143,0.17 0.219,0.25 0.005,0.005 0.026,-0.005 0.031,0 0.265,0.27 0.512,0.546 0.781,0.813 0.122,0.117 0.252,0.227 0.375,0.344 0.046,0.048 0.079,0.109 0.125,0.156 0.062,0.062 0.125,0.125 0.188,0.188 0.032,0.031 0.062,0.063 0.094,0.094 0.455,0.468 0.909,0.948 1.375,1.406 0.329,0.335 0.665,0.671 1,1 0.438,0.445 0.897,0.877 1.344,1.313 0.052,0.053 0.104,0.104 0.156,0.156 0.121,0.118 0.253,0.227 0.375,0.344 0.046,0.048 0.079,0.108 0.125,0.156 0.006,0.005 0.026,-0.005 0.031,0 0.265,0.27 0.512,0.546 0.781,0.813 0.122,0.117 0.252,0.227 0.375,0.344 0.108,0.11 0.204,0.235 0.313,0.344 0.165,0.16 0.334,0.31 0.5,0.469 0.17,0.173 0.329,0.36 0.5,0.531 0.032,0.031 0.062,0.063 0.094,0.094 0.455,0.468 0.909,0.948 1.375,1.406 0.438,0.445 0.897,0.877 1.344,1.313 0.052,0.053 0.104,0.104 0.156,0.156 0.09,0.087 0.191,0.163 0.281,0.25 0.076,0.08 0.143,0.17 0.219,0.25 0.005,0.005 0.026,-0.005 0.031,0 0.161,0.164 0.306,0.337 0.469,0.5 0.169,0.163 0.33,0.338 0.5,0.5 0.165,0.167 0.334,0.334 0.5,0.5 0.227,0.22 0.458,0.439 0.688,0.656 0.046,0.048 0.079,0.109 0.125,0.156 0.062,0.062 0.125,0.125 0.188,0.188 0.032,0.031 0.062,0.063 0.094,0.094 0.455,0.468 0.909,0.948 1.375,1.406 0.438,0.445 0.897,0.877 1.344,1.313 0.052,0.053 0.104,0.104 0.156,0.156 0.174,0.169 0.356,0.333 0.531,0.5 0.161,0.164 0.306,0.337 0.469,0.5 0.12,0.116 0.254,0.228 0.375,0.344 0.046,0.048 0.079,0.108 0.125,0.156 0.006,0.005 0.026,-0.005 0.031,0 0.265,0.27 0.512,0.546 0.781,0.813 0.122,0.117 0.252,0.227 0.375,0.344 0.046,0.048 0.079,0.109 0.125,0.156 0.062,0.062 0.125,0.125 0.188,0.188 0.032,0.031 0.062,0.063 0.094,0.094 0.455,0.468 0.909,0.948 1.375,1.406 0.329,0.335 0.665,0.671 1,1 0.438,0.445 0.897,0.877 1.344,1.313 0.052,0.053 0.104,0.104 0.156,0.156 0.09,0.087 0.191,0.163 0.281,0.25 0.076,0.08 0.143,0.17 0.219,0.25 0.005,0.005 0.026,-0.005 0.031,0 0.265,0.27 0.512,0.546 0.781,0.813 0.122,0.117 0.252,0.227 0.375,0.344 0.02,0.021 0.042,0.042 0.063,0.063 0.088,0.089 0.162,0.193 0.25,0.281 0.165,0.16 0.334,0.31 0.5,0.469 0.168,0.171 0.33,0.362 0.5,0.531 0.032,0.031 0.062,0.063 0.094,0.094 0.455,0.468 0.909,0.948 1.375,1.406 0.438,0.445 0.897,0.877 1.344,1.313 0.052,0.053 0.104,0.104 0.156,0.156 0.121,0.118 0.253,0.227 0.375,0.344 0.046,0.048 0.079,0.108 0.125,0.156 0.006,0.005 0.026,-0.005 0.031,0 0.161,0.164 0.306,0.337 0.469,0.5 0.169,0.163 0.33,0.338 0.5,0.5 0.165,0.167 0.334,0.334 0.5,0.5 0.227,0.22 0.458,0.439 0.688,0.656 0.046,0.048 0.079,0.109 0.125,0.156 0.062,0.062 0.125,0.125 0.188,0.188 0.032,0.031 0.062,0.063 0.094,0.094 0.455,0.468 0.909,0.948 1.375,1.406 0.438,0.445 0.897,0.877 1.344,1.313 0.052,0.053 0.104,0.104 0.156,0.156 0.174,0.169 0.356,0.333 0.531,0.5 0.161,0.164 0.306,0.337 0.469,0.5 0.169,0.163 0.33,0.338 0.5,0.5 0.166,0.169 0.332,0.332 0.5,0.5 0.227,0.22 0.458,0.439 0.688,0.656 0.046,0.048 0.079,0.109 0.125,0.156 0.062,0.062 0.125,0.125 0.188,0.188 0.032,0.031 0.062,0.063 0.094,0.094 0.455,0.468 0.909,0.948 1.375,1.406 0.438,0.445 0.897,0.877 1.344,1.313 0.052,0.053 0.104,0.104 0.156,0.156 0.174,0.169 0.356,0.333 0.531,0.5 0.161,0.164 0.306,0.337 0.469,0.5 0.12,0.116 0.254,0.228 0.375,0.344 0.046,0.048 0.079,0.108 0.125,0.156 0.006,0.005 0.026,-0.005 0.031,0 0.265,0.27 0.512,0.546 0.781,0.813 0.122,0.117 0.252,0.227 0.375,0.344 0.046,0.048 0.079,0.109 0.125,0.156 0.062,0.062 0.125,0.125 0.188,0.188 0.032,0.031 0.062,0.063 0.094,0.094 57.02,-22.09 102.61,-67.12 125.47,-123.75 -0.321,-0.315 -0.647,-0.626 -0.969,-0.938 -0.119,-0.122 -0.256,-0.222 -0.375,-0.344 -0.048,-0.046 -0.077,-0.111 -0.125,-0.156 -0.319,-0.335 -0.676,-0.639 -1,-0.969 -0.05,-0.052 -0.106,-0.104 -0.156,-0.156 -0.037,-0.035 -0.057,-0.09 -0.094,-0.125 -0.085,-0.083 -0.165,-0.167 -0.25,-0.25 -0.157,-0.162 -0.342,-0.308 -0.5,-0.469 -0.086,-0.09 -0.163,-0.191 -0.25,-0.281 -0.085,-0.083 -0.165,-0.167 -0.25,-0.25 -0.485,-0.501 -0.972,-1.01 -1.469,-1.5 -0.489,-0.497 -0.999,-0.984 -1.5,-1.469 -0.119,-0.122 -0.256,-0.222 -0.375,-0.344 -0.048,-0.046 -0.077,-0.111 -0.125,-0.156 -0.162,-0.17 -0.337,-0.331 -0.5,-0.5 -0.168,-0.168 -0.331,-0.334 -0.5,-0.5 -0.319,-0.335 -0.676,-0.639 -1,-0.969 -0.084,-0.08 -0.166,-0.17 -0.25,-0.25 -0.09,-0.088 -0.159,-0.194 -0.25,-0.281 -0.485,-0.501 -0.972,-1.01 -1.469,-1.5 -0.489,-0.497 -0.999,-0.984 -1.5,-1.469 -0.119,-0.122 -0.256,-0.222 -0.375,-0.344 -0.048,-0.046 -0.077,-0.111 -0.125,-0.156 -0.324,-0.34 -0.67,-0.665 -1,-1 -0.319,-0.335 -0.676,-0.639 -1,-0.969 -0.051,-0.053 -0.106,-0.103 -0.156,-0.156 -0.037,-0.035 -0.057,-0.09 -0.094,-0.125 -0.085,-0.083 -0.165,-0.167 -0.25,-0.25 -0.485,-0.501 -0.972,-1.01 -1.469,-1.5 -0.489,-0.497 -0.999,-0.984 -1.5,-1.469 -0.17,-0.176 -0.36,-0.326 -0.531,-0.5 -0.077,-0.081 -0.142,-0.17 -0.219,-0.25 -0.083,-0.081 -0.167,-0.169 -0.25,-0.25 -0.119,-0.122 -0.256,-0.222 -0.375,-0.344 -0.047,-0.045 -0.078,-0.111 -0.125,-0.156 -0.319,-0.335 -0.676,-0.639 -1,-0.969 -0.081,-0.085 -0.169,-0.165 -0.25,-0.25 -0.09,-0.088 -0.159,-0.194 -0.25,-0.281 -0.485,-0.501 -0.972,-1.01 -1.469,-1.5 -0.329,-0.335 -0.665,-0.671 -1,-1 -0.489,-0.497 -0.999,-0.984 -1.5,-1.469 -0.119,-0.122 -0.256,-0.222 -0.375,-0.344 -0.048,-0.046 -0.077,-0.111 -0.125,-0.156 -0.319,-0.335 -0.676,-0.639 -1,-0.969 -0.05,-0.052 -0.106,-0.104 -0.156,-0.156 -0.037,-0.035 -0.057,-0.09 -0.094,-0.125 -0.085,-0.083 -0.165,-0.167 -0.25,-0.25 -0.157,-0.162 -0.342,-0.308 -0.5,-0.469 -0.086,-0.09 -0.163,-0.191 -0.25,-0.281 -0.085,-0.083 -0.165,-0.167 -0.25,-0.25 -0.485,-0.501 -0.972,-1.01 -1.469,-1.5 -0.489,-0.497 -0.999,-0.984 -1.5,-1.469 -0.119,-0.122 -0.256,-0.222 -0.375,-0.344 -0.048,-0.046 -0.077,-0.111 -0.125,-0.156 -0.324,-0.34 -0.67,-0.665 -1,-1 -0.319,-0.335 -0.676,-0.639 -1,-0.969 -0.081,-0.085 -0.169,-0.165 -0.25,-0.25 -0.09,-0.088 -0.159,-0.194 -0.25,-0.281 -0.485,-0.501 -0.972,-1.01 -1.469,-1.5 -0.489,-0.497 -0.999,-0.984 -1.5,-1.469 -0.17,-0.176 -0.36,-0.326 -0.531,-0.5 -0.322,-0.338 -0.641,-0.667 -0.969,-1 -0.064,-0.061 -0.124,-0.127 -0.188,-0.188 -0.259,-0.27 -0.55,-0.514 -0.813,-0.781 -0.051,-0.053 -0.106,-0.103 -0.156,-0.156 -0.037,-0.035 -0.057,-0.09 -0.094,-0.125 -0.085,-0.083 -0.165,-0.167 -0.25,-0.25 -0.485,-0.501 -0.972,-1.01 -1.469,-1.5 -0.489,-0.497 -0.999,-0.984 -1.5,-1.469 -0.17,-0.17 -0.36,-0.332 -0.531,-0.5 -0.077,-0.081 -0.142,-0.17 -0.219,-0.25 -0.083,-0.081 -0.167,-0.169 -0.25,-0.25 -0.119,-0.122 -0.256,-0.222 -0.375,-0.344 -0.047,-0.045 -0.078,-0.111 -0.125,-0.156 -0.319,-0.335 -0.676,-0.639 -1,-0.969 -0.08,-0.084 -0.17,-0.166 -0.25,-0.25 -0.09,-0.088 -0.159,-0.194 -0.25,-0.281 -0.157,-0.162 -0.342,-0.308 -0.5,-0.469 -0.084,-0.08 -0.166,-0.17 -0.25,-0.25 -0.09,-0.088 -0.159,-0.194 -0.25,-0.281 -0.485,-0.501 -0.972,-1.01 -1.469,-1.5 -0.489,-0.497 -0.999,-0.984 -1.5,-1.469 -0.119,-0.122 -0.256,-0.222 -0.375,-0.344 -0.048,-0.046 -0.077,-0.111 -0.125,-0.156 -0.162,-0.17 -0.337,-0.331 -0.5,-0.5 -0.168,-0.168 -0.331,-0.334 -0.5,-0.5 -0.319,-0.335 -0.676,-0.639 -1,-0.969 -0.086,-0.09 -0.163,-0.191 -0.25,-0.281 -0.085,-0.083 -0.165,-0.167 -0.25,-0.25 -0.485,-0.501 -0.972,-1.01 -1.469,-1.5 -0.489,-0.497 -0.999,-0.984 -1.5,-1.469 -0.119,-0.122 -0.256,-0.222 -0.375,-0.344 -0.048,-0.046 -0.077,-0.111 -0.125,-0.156 -0.324,-0.34 -0.67,-0.665 -1,-1 -0.319,-0.335 -0.676,-0.639 -1,-0.969 -0.081,-0.085 -0.169,-0.165 -0.25,-0.25 -0.09,-0.088 -0.159,-0.194 -0.25,-0.281 -0.485,-0.501 -0.972,-1.01 -1.469,-1.5 -0.489,-0.497 -0.999,-0.984 -1.5,-1.469 -0.17,-0.176 -0.36,-0.326 -0.531,-0.5 -0.086,-0.082 -0.164,-0.169 -0.25,-0.25 -0.078,-0.076 -0.141,-0.174 -0.219,-0.25 -0.119,-0.122 -0.256,-0.222 -0.375,-0.344 -0.047,-0.045 -0.078,-0.111 -0.125,-0.156 -0.319,-0.335 -0.676,-0.639 -1,-0.969 -0.051,-0.053 -0.106,-0.103 -0.156,-0.156 -0.037,-0.035 -0.057,-0.09 -0.094,-0.125 -0.085,-0.083 -0.165,-0.167 -0.25,-0.25 -0.485,-0.501 -0.972,-1.01 -1.469,-1.5 -0.329,-0.335 -0.665,-0.671 -1,-1 -0.489,-0.497 -0.999,-0.984 -1.5,-1.469 -0.119,-0.122 -0.256,-0.222 -0.375,-0.344 -0.048,-0.046 -0.077,-0.111 -0.125,-0.156 -0.319,-0.335 -0.676,-0.639 -1,-0.969 -0.08,-0.084 -0.17,-0.166 -0.25,-0.25 -0.09,-0.088 -0.159,-0.194 -0.25,-0.281 -0.157,-0.162 -0.342,-0.308 -0.5,-0.469 -0.084,-0.08 -0.166,-0.17 -0.25,-0.25 -0.09,-0.088 -0.159,-0.194 -0.25,-0.281 -0.485,-0.501 -0.972,-1.01 -1.469,-1.5 -0.489,-0.497 -0.999,-0.984 -1.5,-1.469 -0.119,-0.122 -0.256,-0.222 -0.375,-0.344 -0.048,-0.046 -0.077,-0.111 -0.125,-0.156 -0.324,-0.34 -0.67,-0.665 -1,-1 -0.319,-0.335 -0.676,-0.639 -1,-0.969 -0.051,-0.053 -0.106,-0.103 -0.156,-0.156 -0.037,-0.035 -0.057,-0.09 -0.094,-0.125 -0.085,-0.083 -0.165,-0.167 -0.25,-0.25 -0.485,-0.501 -0.972,-1.01 -1.469,-1.5 -0.489,-0.497 -0.999,-0.984 -1.5,-1.469 -0.17,-0.176 -0.36,-0.326 -0.531,-0.5 -0.322,-0.338 -0.641,-0.667 -0.969,-1 -0.064,-0.061 -0.124,-0.127 -0.188,-0.188 -0.259,-0.27 -0.55,-0.514 -0.813,-0.781 -0.081,-0.085 -0.169,-0.165 -0.25,-0.25 -0.09,-0.088 -0.159,-0.194 -0.25,-0.281 -0.485,-0.501 -0.972,-1.01 -1.469,-1.5 -0.489,-0.497 -0.999,-0.984 -1.5,-1.469 -0.17,-0.176 -0.36,-0.326 -0.531,-0.5 -0.086,-0.082 -0.164,-0.169 -0.25,-0.25 -0.078,-0.076 -0.141,-0.174 -0.219,-0.25 -0.119,-0.122 -0.256,-0.222 -0.375,-0.344 -0.047,-0.045 -0.078,-0.111 -0.125,-0.156 -0.319,-0.335 -0.676,-0.639 -1,-0.969 -0.051,-0.053 -0.106,-0.103 -0.156,-0.156 -0.037,-0.035 -0.057,-0.09 -0.094,-0.125 -0.085,-0.083 -0.165,-0.167 -0.25,-0.25 -0.485,-0.501 -0.972,-1.01 -1.469,-1.5 -0.329,-0.335 -0.665,-0.671 -1,-1 -0.489,-0.497 -0.999,-0.984 -1.5,-1.469 -0.119,-0.122 -0.256,-0.222 -0.375,-0.344 -0.048,-0.046 -0.077,-0.111 -0.125,-0.156 -0.162,-0.17 -0.337,-0.331 -0.5,-0.5 -0.168,-0.168 -0.331,-0.334 -0.5,-0.5 -0.319,-0.335 -0.676,-0.639 -1,-0.969 -0.084,-0.08 -0.166,-0.17 -0.25,-0.25 -0.09,-0.088 -0.159,-0.194 -0.25,-0.281 -0.485,-0.501 -0.972,-1.01 -1.469,-1.5 -0.489,-0.497 -0.999,-0.984 -1.5,-1.469 -0.119,-0.122 -0.256,-0.222 -0.375,-0.344 -0.048,-0.046 -0.077,-0.111 -0.125,-0.156 -0.324,-0.34 -0.67,-0.665 -1,-1 -0.319,-0.335 -0.676,-0.639 -1,-0.969 -0.051,-0.053 -0.106,-0.103 -0.156,-0.156 -0.037,-0.035 -0.057,-0.09 -0.094,-0.125 -0.085,-0.083 -0.165,-0.167 -0.25,-0.25 -0.485,-0.501 -0.972,-1.01 -1.469,-1.5 -0.489,-0.497 -0.999,-0.984 -1.5,-1.469 -0.17,-0.176 -0.36,-0.326 -0.531,-0.5 -0.077,-0.081 -0.142,-0.17 -0.219,-0.25 -0.083,-0.081 -0.167,-0.169 -0.25,-0.25 -0.119,-0.122 -0.256,-0.222 -0.375,-0.344 -0.047,-0.045 -0.078,-0.111 -0.125,-0.156 -0.319,-0.335 -0.676,-0.639 -1,-0.969 -0.081,-0.085 -0.169,-0.165 -0.25,-0.25 -0.09,-0.088 -0.159,-0.194 -0.25,-0.281 -0.485,-0.501 -0.972,-1.01 -1.469,-1.5 -0.329,-0.335 -0.665,-0.671 -1,-1 -0.489,-0.497 -0.999,-0.984 -1.5,-1.469 -0.119,-0.122 -0.256,-0.222 -0.375,-0.344 -0.048,-0.046 -0.077,-0.111 -0.125,-0.156 -0.319,-0.335 -0.676,-0.639 -1,-0.969 -0.05,-0.052 -0.106,-0.104 -0.156,-0.156 -0.037,-0.035 -0.057,-0.09 -0.094,-0.125 -0.085,-0.083 -0.165,-0.167 -0.25,-0.25 -0.157,-0.162 -0.342,-0.308 -0.5,-0.469 -0.086,-0.09 -0.163,-0.191 -0.25,-0.281 -0.085,-0.083 -0.165,-0.167 -0.25,-0.25 -0.485,-0.501 -0.972,-1.01 -1.469,-1.5 -0.489,-0.497 -0.999,-0.984 -1.5,-1.469 -0.119,-0.122 -0.256,-0.222 -0.375,-0.344 -0.048,-0.046 -0.077,-0.111 -0.125,-0.156 -0.162,-0.17 -0.337,-0.331 -0.5,-0.5 -0.168,-0.168 -0.331,-0.334 -0.5,-0.5 -0.319,-0.335 -0.676,-0.639 -1,-0.969 -0.081,-0.085 -0.169,-0.165 -0.25,-0.25 -0.09,-0.088 -0.159,-0.194 -0.25,-0.281 -0.485,-0.501 -0.972,-1.01 -1.469,-1.5 -0.489,-0.497 -0.999,-0.984 -1.5,-1.469 -0.17,-0.176 -0.36,-0.326 -0.531,-0.5 -0.322,-0.338 -0.641,-0.667 -0.969,-1 -0.064,-0.061 -0.124,-0.127 -0.188,-0.188 -0.259,-0.27 -0.55,-0.514 -0.813,-0.781 -0.051,-0.053 -0.106,-0.103 -0.156,-0.156 -0.037,-0.035 -0.057,-0.09 -0.094,-0.125 -0.085,-0.083 -0.165,-0.167 -0.25,-0.25 -0.485,-0.501 -0.972,-1.01 -1.469,-1.5 -0.489,-0.497 -0.999,-0.984 -1.5,-1.469 -0.17,-0.176 -0.36,-0.326 -0.531,-0.5 -0.077,-0.081 -0.142,-0.17 -0.219,-0.25 -0.083,-0.081 -0.167,-0.169 -0.25,-0.25 -0.119,-0.122 -0.256,-0.222 -0.375,-0.344 -0.047,-0.045 -0.078,-0.111 -0.125,-0.156 -0.319,-0.335 -0.676,-0.639 -1,-0.969 -0.081,-0.085 -0.169,-0.165 -0.25,-0.25 -0.09,-0.088 -0.159,-0.194 -0.25,-0.281 -0.485,-0.501 -0.972,-1.01 -1.469,-1.5 -0.329,-0.335 -0.665,-0.671 -1,-1 -0.489,-0.497 -0.999,-0.984 -1.5,-1.469 -0.119,-0.122 -0.256,-0.222 -0.375,-0.344 -0.048,-0.046 -0.077,-0.111 -0.125,-0.156 -0.319,-0.335 -0.676,-0.639 -1,-0.969 -0.05,-0.052 -0.106,-0.104 -0.156,-0.156 -0.037,-0.035 -0.057,-0.09 -0.094,-0.125 -0.085,-0.083 -0.165,-0.167 -0.25,-0.25 -0.157,-0.162 -0.342,-0.308 -0.5,-0.469 -0.086,-0.09 -0.163,-0.191 -0.25,-0.281 -0.085,-0.083 -0.165,-0.167 -0.25,-0.25 -0.485,-0.501 -0.972,-1.01 -1.469,-1.5 -0.489,-0.497 -0.999,-0.984 -1.5,-1.469 -0.119,-0.122 -0.256,-0.222 -0.375,-0.344 -0.048,-0.046 -0.077,-0.111 -0.125,-0.156 -0.324,-0.34 -0.67,-0.665 -1,-1 -0.319,-0.335 -0.676,-0.639 -1,-0.969 -0.081,-0.085 -0.169,-0.165 -0.25,-0.25 -0.09,-0.088 -0.159,-0.194 -0.25,-0.281 -0.485,-0.501 -0.972,-1.01 -1.469,-1.5 -0.489,-0.497 -0.999,-0.984 -1.5,-1.469 -0.17,-0.176 -0.36,-0.326 -0.531,-0.5 -0.086,-0.082 -0.164,-0.169 -0.25,-0.25 -0.078,-0.076 -0.141,-0.174 -0.219,-0.25 -0.119,-0.122 -0.256,-0.222 -0.375,-0.344 -0.047,-0.045 -0.078,-0.111 -0.125,-0.156 -0.319,-0.335 -0.676,-0.639 -1,-0.969 -0.051,-0.053 -0.106,-0.103 -0.156,-0.156 -0.037,-0.035 -0.057,-0.09 -0.094,-0.125 -0.085,-0.083 -0.165,-0.167 -0.25,-0.25 -0.485,-0.501 -0.972,-1.01 -1.469,-1.5 -0.329,-0.335 -0.665,-0.671 -1,-1 -0.489,-0.497 -0.999,-0.984 -1.5,-1.469 -0.119,-0.122 -0.256,-0.222 -0.375,-0.344 -0.048,-0.046 -0.077,-0.111 -0.125,-0.156 -0.319,-0.335 -0.676,-0.639 -1,-0.969 -0.08,-0.084 -0.17,-0.166 -0.25,-0.25 -0.09,-0.088 -0.159,-0.194 -0.25,-0.281 -0.157,-0.162 -0.342,-0.308 -0.5,-0.469 -0.084,-0.08 -0.166,-0.17 -0.25,-0.25 -0.09,-0.088 -0.159,-0.194 -0.25,-0.281 -0.485,-0.501 -0.972,-1.01 -1.469,-1.5 -0.489,-0.497 -0.999,-0.984 -1.5,-1.469 -0.119,-0.122 -0.256,-0.222 -0.375,-0.344 -0.048,-0.046 -0.077,-0.111 -0.125,-0.156 -0.162,-0.17 -0.337,-0.331 -0.5,-0.5 -0.168,-0.168 -0.331,-0.334 -0.5,-0.5 -0.319,-0.335 -0.676,-0.639 -1,-0.969 -0.086,-0.09 -0.163,-0.191 -0.25,-0.281 -0.085,-0.083 -0.165,-0.167 -0.25,-0.25 -16.02,-16.525 -38.452,-26.813 -63.28,-26.813"
     inkscape:connector-curvature="0"
     id="path10"
     style="fill-opacity:0.23500001" />
  <g
     id="g12"
     style="fill-rule:evenodd">
    <path
       d="M 256,1 C 115.17,1 1,115.17 1,256 1,396.83 115.17,511 256,511 396.83,511 511,396.83 511,256 511,115.17 396.83,1 256,1 m 8.827,44.931 c 120.9,0 218.9,98 218.9,218.9 0,120.9 -98,218.9 -218.9,218.9 -120.9,0 -218.93,-98 -218.93,-218.9 0,-120.9 98.03,-218.9 218.93,-218.9"
       inkscape:connector-curvature="0"
       id="path14"
       style="fill-opacity:0.06700003" />
    <g
       id="g16"
       style="fill-opacity:0.12900002">
      <path
         d="m 256,4.433 c -138.94,0 -251.57,112.63 -251.57,251.57 0,138.94 112.63,251.57 251.57,251.57 138.94,0 251.57,-112.63 251.57,-251.57 C 507.57,117.063 394.94,4.433 256,4.433 m 5.885,38.556 c 120.9,0 218.9,98 218.9,218.9 0,120.9 -98,218.9 -218.9,218.9 -120.9,0 -218.93,-98 -218.93,-218.9 0,-120.9 98.03,-218.9 218.93,-218.9"
         inkscape:connector-curvature="0"
         id="path18" />
      <path
         d="m 256,8.356 c -136.77,0 -247.64,110.87 -247.64,247.64 0,136.77 110.87,247.64 247.64,247.64 136.77,0 247.64,-110.87 247.64,-247.64 C 503.64,119.226 392.77,8.356 256,8.356 m 2.942,31.691 c 120.9,0 218.9,98 218.9,218.9 0,120.9 -98,218.9 -218.9,218.9 -120.9,0 -218.93,-98 -218.93,-218.9 0,-120.9 98.03,-218.9 218.93,-218.9"
         inkscape:connector-curvature="0"
         id="path20" />
    </g>
    <path
       d="m 253.04,7.859 c -135.42,0 -245.19,109.78 -245.19,245.19 0,135.42 109.78,245.19 245.19,245.19 135.42,0 245.19,-109.78 245.19,-245.19 0,-135.42 -109.78,-245.19 -245.19,-245.19 z m 0,26.297 c 120.9,0 218.9,98 218.9,218.9 0,120.9 -98,218.9 -218.9,218.9 -120.9,0 -218.93,-98 -218.93,-218.9 0,-120.9 98.03,-218.9 218.93,-218.9 z"
       inkscape:connector-curvature="0"
       id="path22"
       style="fill:#ffffff;stroke:#000000;stroke-width:4.90399981;stroke-opacity:0.31000001" />
  </g>
  <text
     x="729.64001"
     y="231.36"
     id="text24"
     style="font-size:129.22999573px;line-height:125%;letter-spacing:0;word-spacing:0;font-family:Gentium Book Basic">
    <tspan
       x="729.64001"
       y="231.36"
       id="tspan26" />
  </text>
  <text
     x="378.91"
     y="579.25"
     transform="scale(4.0128,0.2492)"
     id="text28"
     style="font-size:46.95399857px;text-anchor:middle;font-family:Arial" />
  <text
     x="1310.91"
     y="151.36"
     id="text30"
     style="font-size:129.22999573px;line-height:125%;letter-spacing:0;word-spacing:0;font-family:Gentium Book Basic">
    <tspan
       x="1310.91"
       y="151.36"
       id="tspan32" />
  </text>
  <text
     x="523.76001"
     y="258.22"
     transform="scale(4.0128,0.2492)"
     id="text34"
     style="font-size:46.95399857px;text-anchor:middle;font-family:Arial" />
  <text
     x="239.33"
     y="-29.900999"
     id="text36"
     style="font-size:129.22999573px;line-height:125%;letter-spacing:0;word-spacing:0;font-family:Gentium Book Basic">
    <tspan
       x="239.33"
       y="-29.900999"
       id="tspan38" />
  </text>
  <text
     x="256.72"
     y="-469.14001"
     transform="scale(4.0128,0.2492)"
     id="text40"
     style="font-size:46.95399857px;text-anchor:middle;font-family:Arial" />
  <text
     x="1337.38"
     y="-246.37"
     id="text42"
     style="font-size:129.22999573px;line-height:125%;letter-spacing:0;word-spacing:0;font-family:Gentium Book Basic">
    <tspan
       x="1337.38"
       y="-246.37"
       id="tspan44" />
  </text>
  <text
     x="530.35999"
     y="-1337.8101"
     transform="scale(4.0128,0.2492)"
     id="text46"
     style="font-size:46.95399857px;text-anchor:middle;font-family:Arial" />
  <text
     x="1918.65"
     y="-326.38"
     id="text48"
     style="font-size:129.22999573px;line-height:125%;letter-spacing:0;word-spacing:0;font-family:Gentium Book Basic">
    <tspan
       x="1918.65"
       y="-326.38"
       id="tspan50" />
  </text>
  <text
     x="675.21002"
     y="-1658.85"
     transform="scale(4.0128,0.2492)"
     id="text52"
     style="font-size:46.95399857px;text-anchor:middle;font-family:Arial" />
  <text
     x="1529.53"
     y="-798.78003"
     id="text54"
     style="font-size:129.22999573px;line-height:125%;letter-spacing:0;word-spacing:0;font-family:Gentium Book Basic">
    <tspan
       x="1529.53"
       y="-798.78003"
       id="tspan56" />
  </text>
  <text
     x="578.23999"
     y="-3554.51"
     transform="scale(4.0128,0.2492)"
     id="text58"
     style="font-size:46.95399857px;text-anchor:middle;font-family:Arial" />
  <text
     x="2110.79"
     y="-878.78003"
     id="text60"
     style="font-size:129.22999573px;line-height:125%;letter-spacing:0;word-spacing:0;font-family:Gentium Book Basic">
    <tspan
       x="2110.79"
       y="-878.78003"
       id="tspan62" />
  </text>
  <text
     x="723.09003"
     y="-3875.54"
     transform="scale(4.0128,0.2492)"
     id="text64"
     style="font-size:46.95399857px;text-anchor:middle;font-family:Arial" />
  <text
     x="277.98999"
     y="535.94"
     id="text66"
     style="font-size:208.33000183px;line-height:125%;letter-spacing:0;word-spacing:0;font-family:Gentium Book Basic">
    <tspan
       x="277.98999"
       y="535.94"
       id="tspan68" />
  </text>
  <path
     d="m 320.11,234 c 0,48.661 -39.448,88.11 -88.11,88.11 -48.661,0 -88.11,-39.448 -88.11,-88.11 0,-48.661 39.448,-88.11 88.11,-88.11 48.661,0 88.11,39.448 88.11,88.11"
     inkscape:connector-curvature="0"
     id="path70"
     style="fill:#ffffff" />
</svg>
