<?xml version="1.0" encoding="UTF-8" standalone="no"?>
<!-- Created with Inkscape (http://www.inkscape.org/) -->

<svg
   xmlns:dc="http://purl.org/dc/elements/1.1/"
   xmlns:cc="http://creativecommons.org/ns#"
   xmlns:rdf="http://www.w3.org/1999/02/22-rdf-syntax-ns#"
   xmlns:svg="http://www.w3.org/2000/svg"
   xmlns="http://www.w3.org/2000/svg"
   xmlns:inkscape="http://www.inkscape.org/namespaces/inkscape"
   version="1.1"
   width="100%"
   height="100%"
   viewBox="0 0 512 512"
   id="svg2">
  <metadata
     id="metadata28">
    <rdf:RDF>
      <cc:Work
         rdf:about="">
        <dc:format>image/svg+xml</dc:format>
        <dc:type
           rdf:resource="http://purl.org/dc/dcmitype/StillImage" />
      </cc:Work>
    </rdf:RDF>
  </metadata>
  <defs
     id="defs26" />
  <g
     id="g4"
     style="fill-rule:evenodd">
    <path
       d="m 471.95,253.05 c 0,120.9 -98.01,218.9 -218.9,218.9 -120.9,0 -218.9,-98.01 -218.9,-218.9 0,-120.9 98.01,-218.9 218.9,-218.9 120.9,0 218.9,98.01 218.9,218.9"
       inkscape:connector-curvature="0"
       id="path6"
       style="fill:#a63a3e" />
    <path
       d="M 256,1 C 115.17,1 1,115.17 1,256 1,396.83 115.17,511 256,511 396.83,511 511,396.83 511,256 511,115.17 396.83,1 256,1 m 8.827,44.931 c 120.9,0 218.9,98 218.9,218.9 0,120.9 -98,218.9 -218.9,218.9 -120.9,0 -218.93,-98 -218.93,-218.9 0,-120.9 98.03,-218.9 218.93,-218.9"
       inkscape:connector-curvature="0"
       id="path8"
       style="fill-opacity:0.06700003" />
    <g
       id="g10"
       style="fill-opacity:0.12900002">
      <path
         d="m 256,4.433 c -138.94,0 -251.57,112.63 -251.57,251.57 0,138.94 112.63,251.57 251.57,251.57 138.94,0 251.57,-112.63 251.57,-251.57 C 507.57,117.063 394.94,4.433 256,4.433 m 5.885,38.556 c 120.9,0 218.9,98 218.9,218.9 0,120.9 -98,218.9 -218.9,218.9 -120.9,0 -218.93,-98 -218.93,-218.9 0,-120.9 98.03,-218.9 218.93,-218.9"
         inkscape:connector-curvature="0"
         id="path12" />
      <path
         d="m 256,8.356 c -136.77,0 -247.64,110.87 -247.64,247.64 0,136.77 110.87,247.64 247.64,247.64 136.77,0 247.64,-110.87 247.64,-247.64 C 503.64,119.226 392.77,8.356 256,8.356 m 2.942,31.691 c 120.9,0 218.9,98 218.9,218.9 0,120.9 -98,218.9 -218.9,218.9 -120.9,0 -218.93,-98 -218.93,-218.9 0,-120.9 98.03,-218.9 218.93,-218.9"
         inkscape:connector-curvature="0"
         id="path14" />
    </g>
    <path
       d="m 253.04,7.859 c -135.42,0 -245.19,109.78 -245.19,245.19 0,135.42 109.78,245.19 245.19,245.19 135.42,0 245.19,-109.78 245.19,-245.19 0,-135.42 -109.78,-245.19 -245.19,-245.19 z m 0,26.297 c 120.9,0 218.9,98 218.9,218.9 0,120.9 -98,218.9 -218.9,218.9 -120.9,0 -218.93,-98 -218.93,-218.9 0,-120.9 98.03,-218.9 218.93,-218.9 z"
       inkscape:connector-curvature="0"
       id="path16"
       style="fill:#ffffff;stroke:#000000;stroke-width:4.90399981;stroke-opacity:0.31000001" />
  </g>
  <g
     id="g18"
     style="color:#000000;fill-opacity:1">
    <path
       d="m 203.03,117.16 c -8.537,0.271 -16.678,6.303 -19.938,14.781 l -77.41,202.81 c -4.186,9.348 -1.462,21.319 5.5,28.28 l 106,105.97 c 11.674,1.925 23.655,2.938 35.875,2.938 100.61,0 185.36,-67.878 210.97,-160.34 l -117.37,-117.37 c -3.092,-3.092 -7.255,-4.95 -11.469,-4.813 -6.185,0.196 -12.201,4.576 -14.563,10.719 l -7,18.344 -93.81,-93.81 -0.813,-0.844 c -4.284,-4.284 -10.1,-6.847 -15.969,-6.656"
       inkscape:connector-curvature="0"
       id="path20"
       style="opacity:0.25" />
    <path
       d="m 203.03,117.15 c -8.537,0.271 -16.683,6.311 -19.942,14.79 l -77.4,202.81 c -5.244,11.712 0.365,27.523 11.554,32.469 11.189,4.946 25.647,-1.996 29.597,-14.28 l 12.978,-35.699 h 89.42 l 11.713,31.449 c 3.959,12.355 18.542,19.348 29.755,14.28 11.212,-5.069 16.694,-21.13 11.237,-32.809 l -77.71,-198.39 c -3.472,-8.835 -12.285,-14.91 -21.21,-14.62 m 132.16,72.25 c -6.185,0.196 -12.199,4.567 -14.561,10.71 L 296.88,262.5 c 27.893,72.26 -0.007,0.41 27.856,71.908 h 43.842 l 8.546,22.779 c 2.87,8.951 13.403,14.04 21.525,10.37 8.125,-3.672 12.03,-15.338 8.07,-23.799 l -56.19,-143.65 c -2.514,-6.401 -8.886,-10.92 -15.352,-10.71 m -131.21,6.12 26.27,70.55 h -51.914 z m 131.84,50.659 18.993,51.17 h -37.51 z"
       inkscape:connector-curvature="0"
       id="path22"
       style="fill:#ffffff" />
  </g>
</svg>
