<?xml version="1.0" encoding="UTF-8" standalone="no"?>
<!-- Created with Inkscape (http://www.inkscape.org/) -->

<svg
   xmlns:dc="http://purl.org/dc/elements/1.1/"
   xmlns:cc="http://creativecommons.org/ns#"
   xmlns:rdf="http://www.w3.org/1999/02/22-rdf-syntax-ns#"
   xmlns:svg="http://www.w3.org/2000/svg"
   xmlns="http://www.w3.org/2000/svg"
   xmlns:inkscape="http://www.inkscape.org/namespaces/inkscape"
   version="1.1"
   width="100%"
   height="100%"
   viewBox="0 0 512 512"
   id="svg2">
  <metadata
     id="metadata72">
    <rdf:RDF>
      <cc:Work
         rdf:about="">
        <dc:format>image/svg+xml</dc:format>
        <dc:type
           rdf:resource="http://purl.org/dc/dcmitype/StillImage" />
      </cc:Work>
    </rdf:RDF>
  </metadata>
  <defs
     id="defs70" />
  <g
     id="g4"
     style="fill-rule:evenodd">
    <path
       d="m 471.95,253.05 c 0,120.9 -98.01,218.9 -218.9,218.9 -120.9,0 -218.9,-98.01 -218.9,-218.9 0,-120.9 98.01,-218.9 218.9,-218.9 120.9,0 218.9,98.01 218.9,218.9"
       inkscape:connector-curvature="0"
       id="path6"
       style="fill:#99c1c3" />
    <path
       d="m 273.09,113.44 c -57.21,0.654 -111.07,34.33 -135.06,86.88 -24.676,54.04 -12.365,118.25 27.594,158.91 0.16,0.164 0.308,0.336 0.469,0.5 0.125,0.126 0.249,0.249 0.375,0.375 0.041,0.042 0.084,0.083 0.125,0.125 0.115,0.115 0.228,0.229 0.344,0.344 0.052,0.053 0.104,0.103 0.156,0.156 0.106,0.104 0.207,0.209 0.313,0.313 0.062,0.063 0.125,0.124 0.188,0.188 0.143,0.14 0.293,0.267 0.438,0.406 0.026,0.027 0.036,0.067 0.063,0.094 0.142,0.139 0.294,0.268 0.438,0.406 0.026,0.027 0.036,0.067 0.063,0.094 0.142,0.139 0.294,0.268 0.438,0.406 0.026,0.027 0.036,0.067 0.063,0.094 0.142,0.139 0.294,0.268 0.438,0.406 0.026,0.027 0.036,0.067 0.063,0.094 0.142,0.139 0.294,0.268 0.438,0.406 0.01,0.011 0.021,0.021 0.031,0.031 0.016,0.016 0.015,0.046 0.031,0.063 0.142,0.139 0.294,0.268 0.438,0.406 0.01,0.011 0.021,0.021 0.031,0.031 0.016,0.016 0.015,0.046 0.031,0.063 0.142,0.139 0.294,0.268 0.438,0.406 0.01,0.011 0.021,0.021 0.031,0.031 0.016,0.016 0.015,0.046 0.031,0.063 0.142,0.139 0.294,0.268 0.438,0.406 0.01,0.011 0.021,0.021 0.031,0.031 0.016,0.016 0.015,0.046 0.031,0.063 0.142,0.139 0.294,0.268 0.438,0.406 0.026,0.026 0.037,0.067 0.063,0.094 0.142,0.139 0.294,0.268 0.438,0.406 0.021,0.021 0.042,0.041 0.063,0.063 0.148,0.144 0.289,0.294 0.438,0.438 0.021,0.021 0.042,0.042 0.063,0.063 0.148,0.144 0.289,0.294 0.438,0.438 0.021,0.021 0.042,0.042 0.063,0.063 0.148,0.144 0.289,0.294 0.438,0.438 0.021,0.021 0.042,0.042 0.063,0.063 0.148,0.144 0.289,0.294 0.438,0.438 0.021,0.021 0.042,0.042 0.063,0.063 0.147,0.143 0.29,0.295 0.438,0.438 0.021,0.021 0.042,0.042 0.063,0.063 0.147,0.143 0.29,0.295 0.438,0.438 0.021,0.021 0.042,0.042 0.063,0.063 0.147,0.143 0.29,0.295 0.438,0.438 0.021,0.021 0.042,0.042 0.063,0.063 0.142,0.139 0.294,0.268 0.438,0.406 0.01,0.011 0.021,0.021 0.031,0.031 0.016,0.016 0.015,0.046 0.031,0.063 0.142,0.139 0.294,0.268 0.438,0.406 0.01,0.011 0.021,0.021 0.031,0.031 0.016,0.016 0.015,0.046 0.031,0.063 0.142,0.139 0.294,0.268 0.438,0.406 0.01,0.011 0.021,0.021 0.031,0.031 0.016,0.016 0.015,0.046 0.031,0.063 0.142,0.139 0.294,0.268 0.438,0.406 0.01,0.011 0.021,0.021 0.031,0.031 0.005,0.005 -0.005,0.026 0,0.031 0.01,0.01 0.022,0.022 0.031,0.031 0.138,0.134 0.268,0.272 0.406,0.406 0.031,0.031 0.063,0.062 0.094,0.094 0.138,0.135 0.268,0.272 0.406,0.406 0.026,0.027 0.036,0.067 0.063,0.094 0.143,0.14 0.294,0.267 0.438,0.406 0.026,0.027 0.036,0.067 0.063,0.094 0.143,0.14 0.294,0.267 0.438,0.406 0.026,0.027 0.036,0.067 0.063,0.094 0.143,0.14 0.294,0.267 0.438,0.406 0.026,0.027 0.036,0.067 0.063,0.094 0.143,0.14 0.294,0.267 0.438,0.406 0.026,0.027 0.036,0.067 0.063,0.094 0.142,0.139 0.294,0.268 0.438,0.406 0.026,0.027 0.036,0.067 0.063,0.094 0.142,0.139 0.294,0.268 0.438,0.406 0.026,0.027 0.036,0.067 0.063,0.094 0.142,0.139 0.294,0.268 0.438,0.406 0.01,0.011 0.021,0.021 0.031,0.031 0.016,0.016 0.015,0.046 0.031,0.063 0.142,0.139 0.294,0.268 0.438,0.406 0.01,0.011 0.021,0.021 0.031,0.031 0.016,0.016 0.015,0.046 0.031,0.063 0.142,0.139 0.294,0.268 0.438,0.406 0.01,0.011 0.021,0.021 0.031,0.031 0.016,0.016 0.015,0.046 0.031,0.063 0.142,0.139 0.294,0.268 0.438,0.406 0.01,0.011 0.021,0.021 0.031,0.031 0.016,0.016 0.015,0.046 0.031,0.063 0.142,0.139 0.294,0.268 0.438,0.406 0.026,0.026 0.037,0.067 0.063,0.094 0.142,0.139 0.294,0.268 0.438,0.406 0.021,0.021 0.042,0.041 0.063,0.063 0.148,0.144 0.289,0.294 0.438,0.438 0.021,0.021 0.042,0.042 0.063,0.063 0.148,0.144 0.289,0.294 0.438,0.438 0.021,0.021 0.042,0.042 0.063,0.063 0.148,0.144 0.289,0.294 0.438,0.438 0.021,0.021 0.042,0.042 0.063,0.063 0.148,0.144 0.289,0.294 0.438,0.438 0.021,0.021 0.042,0.042 0.063,0.063 0.147,0.143 0.29,0.295 0.438,0.438 0.021,0.021 0.042,0.042 0.063,0.063 0.147,0.143 0.29,0.295 0.438,0.438 0.021,0.021 0.042,0.042 0.063,0.063 0.147,0.143 0.29,0.295 0.438,0.438 0.021,0.021 0.042,0.042 0.063,0.063 0.142,0.139 0.294,0.268 0.438,0.406 0.01,0.011 0.021,0.021 0.031,0.031 0.016,0.016 0.015,0.046 0.031,0.063 0.142,0.139 0.294,0.268 0.438,0.406 0.01,0.011 0.021,0.021 0.031,0.031 0.016,0.016 0.015,0.046 0.031,0.063 0.142,0.139 0.294,0.268 0.438,0.406 0.01,0.011 0.021,0.021 0.031,0.031 0.016,0.016 0.015,0.046 0.031,0.063 0.142,0.139 0.294,0.268 0.438,0.406 0.01,0.011 0.021,0.021 0.031,0.031 0.005,0.005 -0.005,0.026 0,0.031 0.01,0.01 0.022,0.022 0.031,0.031 0.138,0.134 0.268,0.272 0.406,0.406 0.031,0.031 0.063,0.062 0.094,0.094 0.138,0.135 0.268,0.272 0.406,0.406 0.026,0.027 0.036,0.067 0.063,0.094 0.143,0.14 0.294,0.267 0.438,0.406 0.026,0.027 0.036,0.067 0.063,0.094 0.143,0.14 0.294,0.267 0.438,0.406 0.026,0.027 0.036,0.067 0.063,0.094 0.143,0.14 0.294,0.267 0.438,0.406 0.026,0.027 0.036,0.067 0.063,0.094 0.143,0.14 0.294,0.267 0.438,0.406 0.026,0.027 0.036,0.067 0.063,0.094 0.142,0.139 0.294,0.268 0.438,0.406 0.026,0.027 0.036,0.067 0.063,0.094 0.142,0.139 0.294,0.268 0.438,0.406 0.026,0.027 0.036,0.067 0.063,0.094 0.142,0.139 0.294,0.268 0.438,0.406 0.01,0.011 0.021,0.021 0.031,0.031 0.016,0.016 0.015,0.046 0.031,0.063 0.142,0.139 0.294,0.268 0.438,0.406 0.01,0.011 0.021,0.021 0.031,0.031 0.016,0.016 0.015,0.046 0.031,0.063 0.142,0.139 0.294,0.268 0.438,0.406 0.01,0.011 0.021,0.021 0.031,0.031 0.016,0.016 0.015,0.046 0.031,0.063 0.142,0.139 0.294,0.268 0.438,0.406 0.01,0.011 0.021,0.021 0.031,0.031 0.016,0.016 0.015,0.046 0.031,0.063 0.142,0.139 0.294,0.268 0.438,0.406 0.026,0.026 0.037,0.067 0.063,0.094 0.142,0.139 0.294,0.268 0.438,0.406 0.021,0.021 0.042,0.041 0.063,0.063 0.148,0.144 0.289,0.294 0.438,0.438 0.021,0.021 0.042,0.042 0.063,0.063 0.148,0.144 0.289,0.294 0.438,0.438 0.021,0.021 0.042,0.042 0.063,0.063 0.148,0.144 0.289,0.294 0.438,0.438 0.021,0.021 0.042,0.042 0.063,0.063 0.148,0.144 0.289,0.294 0.438,0.438 0.021,0.021 0.042,0.042 0.063,0.063 0.147,0.143 0.29,0.295 0.438,0.438 0.021,0.021 0.042,0.042 0.063,0.063 0.147,0.143 0.29,0.295 0.438,0.438 0.021,0.021 0.042,0.042 0.063,0.063 0.147,0.143 0.29,0.295 0.438,0.438 0.021,0.021 0.042,0.042 0.063,0.063 0.142,0.139 0.294,0.268 0.438,0.406 0.01,0.011 0.021,0.021 0.031,0.031 0.016,0.016 0.015,0.046 0.031,0.063 0.142,0.139 0.294,0.268 0.438,0.406 0.01,0.011 0.021,0.021 0.031,0.031 0.016,0.016 0.015,0.046 0.031,0.063 0.142,0.139 0.294,0.268 0.438,0.406 0.01,0.011 0.021,0.021 0.031,0.031 0.016,0.016 0.015,0.046 0.031,0.063 0.142,0.139 0.294,0.268 0.438,0.406 0.01,0.011 0.021,0.021 0.031,0.031 0.005,0.005 -0.005,0.026 0,0.031 0.01,0.01 0.022,0.022 0.031,0.031 0.138,0.134 0.268,0.272 0.406,0.406 0.031,0.031 0.063,0.062 0.094,0.094 0.138,0.135 0.268,0.272 0.406,0.406 0.026,0.027 0.036,0.067 0.063,0.094 0.143,0.14 0.294,0.267 0.438,0.406 0.026,0.027 0.036,0.067 0.063,0.094 0.143,0.14 0.294,0.267 0.438,0.406 0.026,0.027 0.036,0.067 0.063,0.094 0.143,0.14 0.294,0.267 0.438,0.406 0.026,0.027 0.036,0.067 0.063,0.094 0.143,0.14 0.294,0.267 0.438,0.406 0.026,0.027 0.036,0.067 0.063,0.094 0.142,0.139 0.294,0.268 0.438,0.406 0.026,0.027 0.036,0.067 0.063,0.094 0.142,0.139 0.294,0.268 0.438,0.406 0.026,0.027 0.036,0.067 0.063,0.094 0.142,0.139 0.294,0.268 0.438,0.406 0.01,0.011 0.021,0.021 0.031,0.031 0.016,0.016 0.015,0.046 0.031,0.063 0.142,0.139 0.294,0.268 0.438,0.406 0.01,0.011 0.021,0.021 0.031,0.031 0.016,0.016 0.015,0.046 0.031,0.063 0.142,0.139 0.294,0.268 0.438,0.406 0.01,0.011 0.021,0.021 0.031,0.031 0.016,0.016 0.015,0.046 0.031,0.063 0.142,0.139 0.294,0.268 0.438,0.406 0.01,0.011 0.021,0.021 0.031,0.031 0.016,0.016 0.015,0.046 0.031,0.063 0.142,0.139 0.294,0.268 0.438,0.406 0.026,0.026 0.037,0.067 0.063,0.094 0.142,0.139 0.294,0.268 0.438,0.406 0.021,0.021 0.042,0.041 0.063,0.063 0.148,0.144 0.289,0.294 0.438,0.438 0.021,0.021 0.042,0.042 0.063,0.063 0.148,0.144 0.289,0.294 0.438,0.438 0.021,0.021 0.042,0.042 0.063,0.063 0.148,0.144 0.289,0.294 0.438,0.438 0.021,0.021 0.042,0.042 0.063,0.063 0.148,0.144 0.289,0.294 0.438,0.438 0.021,0.021 0.042,0.042 0.063,0.063 0.147,0.143 0.29,0.295 0.438,0.438 0.021,0.021 0.042,0.042 0.063,0.063 0.147,0.143 0.29,0.295 0.438,0.438 0.021,0.021 0.042,0.042 0.063,0.063 0.147,0.143 0.29,0.295 0.438,0.438 0.021,0.021 0.042,0.042 0.063,0.063 0.142,0.139 0.294,0.268 0.438,0.406 0.01,0.011 0.021,0.021 0.031,0.031 0.016,0.016 0.015,0.046 0.031,0.063 0.142,0.139 0.294,0.268 0.438,0.406 0.01,0.011 0.021,0.021 0.031,0.031 0.016,0.016 0.015,0.046 0.031,0.063 0.142,0.139 0.294,0.268 0.438,0.406 0.01,0.011 0.021,0.021 0.031,0.031 0.016,0.016 0.015,0.046 0.031,0.063 0.142,0.139 0.294,0.268 0.438,0.406 0.01,0.011 0.021,0.021 0.031,0.031 0.005,0.005 -0.005,0.026 0,0.031 0.01,0.01 0.022,0.022 0.031,0.031 0.138,0.134 0.268,0.272 0.406,0.406 0.031,0.031 0.063,0.062 0.094,0.094 0.138,0.135 0.268,0.272 0.406,0.406 0.026,0.027 0.036,0.067 0.063,0.094 0.143,0.14 0.294,0.267 0.438,0.406 0.026,0.027 0.036,0.067 0.063,0.094 0.143,0.14 0.294,0.267 0.438,0.406 0.026,0.027 0.036,0.067 0.063,0.094 0.143,0.14 0.294,0.267 0.438,0.406 0.026,0.027 0.036,0.067 0.063,0.094 0.143,0.14 0.294,0.267 0.438,0.406 0.026,0.027 0.036,0.067 0.063,0.094 0.142,0.139 0.294,0.268 0.438,0.406 0.026,0.027 0.036,0.067 0.063,0.094 0.142,0.139 0.294,0.268 0.438,0.406 0.026,0.027 0.036,0.067 0.063,0.094 0.142,0.139 0.294,0.268 0.438,0.406 0.01,0.011 0.021,0.021 0.031,0.031 0.016,0.016 0.015,0.046 0.031,0.063 0.142,0.139 0.294,0.268 0.438,0.406 0.01,0.011 0.021,0.021 0.031,0.031 0.016,0.016 0.015,0.046 0.031,0.063 0.142,0.139 0.294,0.268 0.438,0.406 0.01,0.011 0.021,0.021 0.031,0.031 0.016,0.016 0.015,0.046 0.031,0.063 0.142,0.139 0.294,0.268 0.438,0.406 0.01,0.011 0.021,0.021 0.031,0.031 0.016,0.016 0.015,0.046 0.031,0.063 0.142,0.139 0.294,0.268 0.438,0.406 0.026,0.026 0.037,0.067 0.063,0.094 0.142,0.139 0.294,0.268 0.438,0.406 0.021,0.021 0.042,0.041 0.063,0.063 0.148,0.144 0.289,0.294 0.438,0.438 0.021,0.021 0.042,0.042 0.063,0.063 0.148,0.144 0.289,0.294 0.438,0.438 0.021,0.021 0.042,0.042 0.063,0.063 0.148,0.144 0.289,0.294 0.438,0.438 0.021,0.021 0.042,0.042 0.063,0.063 0.148,0.144 0.289,0.294 0.438,0.438 0.021,0.021 0.042,0.042 0.063,0.063 0.147,0.143 0.29,0.295 0.438,0.438 0.021,0.021 0.042,0.042 0.063,0.063 0.147,0.143 0.29,0.295 0.438,0.438 0.021,0.021 0.042,0.042 0.063,0.063 0.147,0.143 0.29,0.295 0.438,0.438 0.021,0.021 0.042,0.042 0.063,0.063 0.142,0.139 0.294,0.268 0.438,0.406 0.01,0.011 0.021,0.021 0.031,0.031 0.016,0.016 0.015,0.046 0.031,0.063 0.142,0.139 0.294,0.268 0.438,0.406 0.01,0.011 0.021,0.021 0.031,0.031 0.016,0.016 0.015,0.046 0.031,0.063 0.142,0.139 0.294,0.268 0.438,0.406 0.01,0.011 0.021,0.021 0.031,0.031 0.016,0.016 0.015,0.046 0.031,0.063 0.142,0.139 0.294,0.268 0.438,0.406 0.01,0.011 0.021,0.021 0.031,0.031 0.005,0.005 -0.005,0.026 0,0.031 0.01,0.01 0.022,0.022 0.031,0.031 0.138,0.134 0.268,0.272 0.406,0.406 0.031,0.031 0.063,0.062 0.094,0.094 0.138,0.135 0.268,0.272 0.406,0.406 0.026,0.027 0.036,0.067 0.063,0.094 0.143,0.14 0.294,0.267 0.438,0.406 0.026,0.027 0.036,0.067 0.063,0.094 0.143,0.14 0.294,0.267 0.438,0.406 0.026,0.027 0.036,0.067 0.063,0.094 0.143,0.14 0.294,0.267 0.438,0.406 0.026,0.027 0.036,0.067 0.063,0.094 0.143,0.14 0.294,0.267 0.438,0.406 0.026,0.027 0.036,0.067 0.063,0.094 0.142,0.139 0.294,0.268 0.438,0.406 0.026,0.027 0.036,0.067 0.063,0.094 0.142,0.139 0.294,0.268 0.438,0.406 0.026,0.027 0.036,0.067 0.063,0.094 0.142,0.139 0.294,0.268 0.438,0.406 0.026,0.027 0.036,0.067 0.063,0.094 0.142,0.139 0.294,0.268 0.438,0.406 0.01,0.011 0.021,0.021 0.031,0.031 0.016,0.016 0.015,0.046 0.031,0.063 0.142,0.139 0.294,0.268 0.438,0.406 0.01,0.011 0.021,0.021 0.031,0.031 0.016,0.016 0.015,0.046 0.031,0.063 0.142,0.139 0.294,0.268 0.438,0.406 0.01,0.011 0.021,0.021 0.031,0.031 0.016,0.016 0.015,0.046 0.031,0.063 0.142,0.139 0.294,0.268 0.438,0.406 0.026,0.026 0.037,0.067 0.063,0.094 0.142,0.139 0.294,0.268 0.438,0.406 0.021,0.021 0.042,0.041 0.063,0.063 0.148,0.144 0.289,0.294 0.438,0.438 0.021,0.021 0.042,0.042 0.063,0.063 0.148,0.144 0.289,0.294 0.438,0.438 0.021,0.021 0.042,0.042 0.063,0.063 0.148,0.144 0.289,0.294 0.438,0.438 0.021,0.021 0.042,0.042 0.063,0.063 0.148,0.144 0.289,0.294 0.438,0.438 0.021,0.021 0.042,0.042 0.063,0.063 0.147,0.143 0.29,0.295 0.438,0.438 0.021,0.021 0.042,0.042 0.063,0.063 0.147,0.143 0.29,0.295 0.438,0.438 0.021,0.021 0.042,0.042 0.063,0.063 0.147,0.143 0.29,0.295 0.438,0.438 0.021,0.021 0.042,0.042 0.063,0.063 0.142,0.139 0.294,0.268 0.438,0.406 0.01,0.011 0.021,0.021 0.031,0.031 0.016,0.016 0.015,0.046 0.031,0.063 0.142,0.139 0.294,0.268 0.438,0.406 0.01,0.011 0.021,0.021 0.031,0.031 0.016,0.016 0.015,0.046 0.031,0.063 0.142,0.139 0.294,0.268 0.438,0.406 0.01,0.011 0.021,0.021 0.031,0.031 0.016,0.016 0.015,0.046 0.031,0.063 0.142,0.139 0.294,0.268 0.438,0.406 0.01,0.011 0.021,0.021 0.031,0.031 0.005,0.005 -0.005,0.026 0,0.031 0.01,0.01 0.022,0.022 0.031,0.031 0.058,0.057 0.129,0.1 0.188,0.156 0.108,0.112 0.204,0.232 0.313,0.344 0.138,0.134 0.268,0.272 0.406,0.406 0.026,0.027 0.036,0.067 0.063,0.094 0.143,0.14 0.294,0.267 0.438,0.406 0.026,0.027 0.036,0.067 0.063,0.094 0.143,0.14 0.294,0.267 0.438,0.406 0.026,0.027 0.036,0.067 0.063,0.094 0.143,0.14 0.294,0.267 0.438,0.406 0.026,0.027 0.036,0.067 0.063,0.094 0.143,0.14 0.294,0.267 0.438,0.406 0.026,0.027 0.036,0.067 0.063,0.094 0.142,0.139 0.294,0.268 0.438,0.406 0.026,0.027 0.036,0.067 0.063,0.094 0.142,0.139 0.294,0.268 0.438,0.406 0.026,0.027 0.036,0.067 0.063,0.094 0.142,0.139 0.294,0.268 0.438,0.406 0.026,0.027 0.036,0.067 0.063,0.094 0.142,0.139 0.294,0.268 0.438,0.406 0.01,0.011 0.021,0.021 0.031,0.031 0.016,0.016 0.015,0.046 0.031,0.063 0.142,0.139 0.294,0.268 0.438,0.406 0.01,0.011 0.021,0.021 0.031,0.031 0.016,0.016 0.015,0.046 0.031,0.063 0.142,0.139 0.294,0.268 0.438,0.406 0.01,0.011 0.021,0.021 0.031,0.031 0.016,0.016 0.015,0.046 0.031,0.063 0.142,0.139 0.294,0.268 0.438,0.406 0.026,0.026 0.037,0.067 0.063,0.094 0.142,0.139 0.294,0.268 0.438,0.406 0.021,0.021 0.042,0.041 0.063,0.063 0.148,0.144 0.289,0.294 0.438,0.438 0.021,0.021 0.042,0.042 0.063,0.063 0.148,0.144 0.289,0.294 0.438,0.438 0.021,0.021 0.042,0.042 0.063,0.063 0.148,0.144 0.289,0.294 0.438,0.438 0.021,0.021 0.042,0.042 0.063,0.063 0.148,0.144 0.289,0.294 0.438,0.438 0.021,0.021 0.042,0.042 0.063,0.063 0.147,0.143 0.29,0.295 0.438,0.438 0.021,0.021 0.042,0.042 0.063,0.063 0.147,0.143 0.29,0.295 0.438,0.438 0.021,0.021 0.042,0.042 0.063,0.063 0.147,0.143 0.29,0.295 0.438,0.438 0.021,0.021 0.042,0.042 0.063,0.063 0.147,0.143 0.29,0.295 0.438,0.438 0.021,0.021 0.042,0.042 0.063,0.063 0.142,0.139 0.294,0.268 0.438,0.406 0.01,0.011 0.021,0.021 0.031,0.031 0.016,0.016 0.015,0.046 0.031,0.063 0.142,0.139 0.294,0.268 0.438,0.406 0.01,0.011 0.021,0.021 0.031,0.031 0.016,0.016 0.015,0.046 0.031,0.063 0.142,0.139 0.294,0.268 0.438,0.406 0.01,0.011 0.021,0.021 0.031,0.031 0.005,0.005 -0.005,0.026 0,0.031 0.01,0.01 0.022,0.022 0.031,0.031 0.058,0.057 0.129,0.1 0.188,0.156 0.108,0.112 0.204,0.232 0.313,0.344 0.138,0.134 0.268,0.272 0.406,0.406 0.026,0.027 0.036,0.067 0.063,0.094 0.143,0.14 0.294,0.267 0.438,0.406 0.026,0.027 0.036,0.067 0.063,0.094 0.143,0.14 0.294,0.267 0.438,0.406 0.026,0.027 0.036,0.067 0.063,0.094 0.143,0.14 0.294,0.267 0.438,0.406 0.026,0.027 0.036,0.067 0.063,0.094 0.143,0.14 0.294,0.267 0.438,0.406 0.026,0.027 0.036,0.067 0.063,0.094 0.142,0.139 0.294,0.268 0.438,0.406 0.026,0.027 0.036,0.067 0.063,0.094 0.142,0.139 0.294,0.268 0.438,0.406 0.026,0.027 0.036,0.067 0.063,0.094 0.142,0.139 0.294,0.268 0.438,0.406 0.026,0.027 0.036,0.067 0.063,0.094 0.142,0.139 0.294,0.268 0.438,0.406 0.01,0.011 0.021,0.021 0.031,0.031 0.016,0.016 0.015,0.046 0.031,0.063 0.142,0.139 0.294,0.268 0.438,0.406 0.01,0.011 0.021,0.021 0.031,0.031 0.016,0.016 0.015,0.046 0.031,0.063 0.142,0.139 0.294,0.268 0.438,0.406 0.01,0.011 0.021,0.021 0.031,0.031 0.016,0.016 0.015,0.046 0.031,0.063 0.142,0.139 0.294,0.268 0.438,0.406 0.026,0.026 0.037,0.067 0.063,0.094 0.142,0.139 0.294,0.268 0.438,0.406 0.021,0.021 0.042,0.041 0.063,0.063 0.148,0.144 0.289,0.294 0.438,0.438 0.021,0.021 0.042,0.042 0.063,0.063 0.148,0.144 0.289,0.294 0.438,0.438 0.021,0.021 0.042,0.042 0.063,0.063 0.148,0.144 0.289,0.294 0.438,0.438 0.021,0.021 0.042,0.042 0.063,0.063 0.148,0.144 0.289,0.294 0.438,0.438 0.021,0.021 0.042,0.042 0.063,0.063 0.147,0.143 0.29,0.295 0.438,0.438 0.021,0.021 0.042,0.042 0.063,0.063 0.147,0.143 0.29,0.295 0.438,0.438 0.021,0.021 0.042,0.042 0.063,0.063 0.147,0.143 0.29,0.295 0.438,0.438 0.021,0.021 0.042,0.042 0.063,0.063 0.147,0.143 0.29,0.295 0.438,0.438 0.021,0.021 0.042,0.042 0.063,0.063 0.142,0.139 0.294,0.268 0.438,0.406 0.01,0.011 0.021,0.021 0.031,0.031 0.016,0.016 0.015,0.046 0.031,0.063 0.142,0.139 0.294,0.268 0.438,0.406 0.01,0.011 0.021,0.021 0.031,0.031 0.016,0.016 0.015,0.046 0.031,0.063 0.142,0.139 0.294,0.268 0.438,0.406 0.01,0.011 0.021,0.021 0.031,0.031 0.005,0.005 -0.005,0.026 0,0.031 0.01,0.01 0.022,0.022 0.031,0.031 0.058,0.057 0.129,0.1 0.188,0.156 0.108,0.112 0.204,0.232 0.313,0.344 0.138,0.134 0.268,0.272 0.406,0.406 0.026,0.027 0.036,0.067 0.063,0.094 0.143,0.14 0.294,0.267 0.438,0.406 0.026,0.027 0.036,0.067 0.063,0.094 0.143,0.14 0.294,0.267 0.438,0.406 0.026,0.027 0.036,0.067 0.063,0.094 0.143,0.14 0.294,0.267 0.438,0.406 0.026,0.027 0.036,0.067 0.063,0.094 0.143,0.14 0.294,0.267 0.438,0.406 0.026,0.027 0.036,0.067 0.063,0.094 0.142,0.139 0.294,0.268 0.438,0.406 0.026,0.027 0.036,0.067 0.063,0.094 0.142,0.139 0.294,0.268 0.438,0.406 0.026,0.027 0.036,0.067 0.063,0.094 0.142,0.139 0.294,0.268 0.438,0.406 0.026,0.027 0.036,0.067 0.063,0.094 0.142,0.139 0.294,0.268 0.438,0.406 0.01,0.011 0.021,0.021 0.031,0.031 0.016,0.016 0.015,0.046 0.031,0.063 0.142,0.139 0.294,0.268 0.438,0.406 0.01,0.011 0.021,0.021 0.031,0.031 0.016,0.016 0.015,0.046 0.031,0.063 0.142,0.139 0.294,0.268 0.438,0.406 0.01,0.011 0.021,0.021 0.031,0.031 0.016,0.016 0.015,0.046 0.031,0.063 0.142,0.139 0.294,0.268 0.438,0.406 0.026,0.026 0.037,0.067 0.063,0.094 0.142,0.139 0.294,0.268 0.438,0.406 0.021,0.021 0.042,0.041 0.063,0.063 0.148,0.144 0.289,0.294 0.438,0.438 0.021,0.021 0.042,0.042 0.063,0.063 0.148,0.144 0.289,0.294 0.438,0.438 0.021,0.021 0.042,0.042 0.063,0.063 0.148,0.144 0.289,0.294 0.438,0.438 0.021,0.021 0.042,0.042 0.063,0.063 0.148,0.144 0.289,0.294 0.438,0.438 0.021,0.021 0.042,0.042 0.063,0.063 0.147,0.143 0.29,0.295 0.438,0.438 0.021,0.021 0.042,0.042 0.063,0.063 0.147,0.143 0.29,0.295 0.438,0.438 0.021,0.021 0.042,0.042 0.063,0.063 0.147,0.143 0.29,0.295 0.438,0.438 0.021,0.021 0.042,0.042 0.063,0.063 0.147,0.143 0.29,0.295 0.438,0.438 0.021,0.021 0.042,0.042 0.063,0.063 0.142,0.139 0.294,0.268 0.438,0.406 0.01,0.011 0.021,0.021 0.031,0.031 0.016,0.016 0.015,0.046 0.031,0.063 0.069,0.067 0.148,0.123 0.219,0.188 93.42,-10.192 169.17,-79.14 189.5,-169.12 -0.146,0 -0.292,0.003 -0.438,0 l 0.063,-0.5 c -0.187,-0.005 -0.375,0.004 -0.563,0 l 0.063,-0.5 c -0.187,-0.005 -0.375,0.004 -0.563,0 l 0.063,-0.5 c -0.187,-0.005 -0.375,0.004 -0.563,0 l 0.063,-0.5 c -0.187,-0.005 -0.375,0.004 -0.563,0 l 0.063,-0.5 c -0.187,-0.005 -0.375,0.004 -0.563,0 l 0.063,-0.5 c -0.187,-0.005 -0.375,0.004 -0.563,0 l 0.063,-0.5 c -0.187,-0.005 -0.375,0.004 -0.563,0 l 0.063,-0.5 c -0.187,-0.005 -0.375,0.004 -0.563,0 l 0.063,-0.5 c -0.187,-0.005 -0.375,0.004 -0.563,0 l 0.063,-0.5 c -0.187,-0.005 -0.375,0.004 -0.563,0 l 0.063,-0.5 c -0.187,-0.005 -0.375,0.004 -0.563,0 l 0.063,-0.5 c -0.187,-0.005 -0.375,0.004 -0.563,0 l 0.063,-0.5 c -0.189,-0.005 -0.373,0.004 -0.563,0 l 0.063,-0.469 c -0.189,-0.005 -0.373,0.004 -0.563,0 l 0.063,-0.5 c -0.189,-0.005 -0.373,0.004 -0.563,0 l 0.063,-0.5 c -0.189,-0.005 -0.373,0.004 -0.563,0 l 0.063,-0.5 c -0.179,-0.005 -0.353,0.004 -0.531,0 l 0.063,-0.5 c -0.187,-0.005 -0.375,0.004 -0.563,0 l 0.063,-0.5 c -0.187,-0.005 -0.375,0.004 -0.563,0 l 0.063,-0.5 c -0.187,-0.005 -0.375,0.004 -0.563,0 l 0.063,-0.5 c -0.187,-0.005 -0.375,0.004 -0.563,0 l 0.063,-0.5 c -0.187,-0.005 -0.375,0.004 -0.563,0 l 0.063,-0.5 c -0.187,-0.005 -0.375,0.004 -0.563,0 l 0.063,-0.5 c -0.187,-0.005 -0.375,0.004 -0.563,0 l 0.063,-0.5 c -0.187,-0.005 -0.375,0.004 -0.563,0 l 0.063,-0.5 c -0.187,-0.005 -0.375,0.004 -0.563,0 l 0.063,-0.5 c -0.187,-0.005 -0.375,0.004 -0.563,0 l 0.063,-0.5 c -0.187,-0.005 -0.375,0.004 -0.563,0 l 0.063,-0.5 c -0.187,-0.005 -0.375,0.004 -0.563,0 l 0.063,-0.5 c -0.187,-0.005 -0.375,0.004 -0.563,0 l 0.063,-0.5 c -0.187,-0.005 -0.375,0.004 -0.563,0 l 0.063,-0.5 c -0.187,-0.005 -0.375,0.004 -0.563,0 l 0.063,-0.5 c -0.187,-0.005 -0.375,0.004 -0.563,0 l 0.063,-0.5 c -0.187,-0.005 -0.375,0.004 -0.563,0 l 0.063,-0.5 c -0.187,-0.005 -0.375,0.004 -0.563,0 l 0.063,-0.5 c -0.187,-0.005 -0.375,0.004 -0.563,0 l 0.063,-0.5 c -0.187,-0.005 -0.375,0.004 -0.563,0 l 0.063,-0.5 c -0.189,-0.005 -0.373,0.004 -0.563,0 l 0.063,-0.469 c -0.189,-0.005 -0.373,0.004 -0.563,0 l 0.063,-0.5 c -0.189,-0.005 -0.373,0.004 -0.563,0 l 0.063,-0.5 c -0.189,-0.005 -0.373,0.004 -0.563,0 l 0.063,-0.5 c -0.179,-0.005 -0.353,0.004 -0.531,0 l 0.063,-0.5 c -0.187,-0.005 -0.375,0.004 -0.563,0 l 0.063,-0.5 c -0.187,-0.005 -0.375,0.004 -0.563,0 l 0.063,-0.5 c -0.187,-0.005 -0.375,0.004 -0.563,0 l 0.063,-0.5 c -0.187,-0.005 -0.375,0.004 -0.563,0 l 0.063,-0.5 c -0.187,-0.005 -0.375,0.004 -0.563,0 l 0.063,-0.5 c -0.187,-0.005 -0.375,0.004 -0.563,0 l 0.063,-0.5 c -0.187,-0.005 -0.375,0.004 -0.563,0 l 0.063,-0.5 c -0.187,-0.005 -0.375,0.004 -0.563,0 l 0.063,-0.5 c -0.187,-0.005 -0.375,0.004 -0.563,0 l 0.063,-0.5 c -0.187,-0.005 -0.375,0.004 -0.563,0 l 0.063,-0.5 c -0.187,-0.005 -0.375,0.004 -0.563,0 l 0.063,-0.5 c -0.187,-0.005 -0.375,0.004 -0.563,0 l 0.063,-0.5 c -0.187,-0.005 -0.375,0.004 -0.563,0 l 0.063,-0.5 c -0.187,-0.005 -0.375,0.004 -0.563,0 l 0.063,-0.5 c -0.187,-0.005 -0.375,0.004 -0.563,0 l 0.063,-0.5 c -0.187,-0.005 -0.375,0.004 -0.563,0 l 0.063,-0.5 c -0.187,-0.005 -0.375,0.004 -0.563,0 l 0.063,-0.5 c -0.187,-0.005 -0.375,0.004 -0.563,0 l 0.063,-0.5 c -0.187,-0.005 -0.375,0.004 -0.563,0 l 0.063,-0.5 c -0.187,-0.005 -0.375,0.004 -0.563,0 l 0.063,-0.5 c -0.189,-0.005 -0.373,0.004 -0.563,0 l 0.063,-0.469 c -0.189,-0.005 -0.373,0.004 -0.563,0 l 0.063,-0.5 c -0.189,-0.005 -0.373,0.004 -0.563,0 l 0.063,-0.5 c -0.189,-0.005 -0.373,0.004 -0.563,0 l 0.063,-0.5 c -0.179,-0.005 -0.353,0.004 -0.531,0 l 0.063,-0.5 c -0.187,-0.005 -0.375,0.004 -0.563,0 l 0.063,-0.5 c -0.187,-0.005 -0.375,0.004 -0.563,0 l 0.063,-0.5 c -0.187,-0.005 -0.375,0.004 -0.563,0 l 0.063,-0.5 c -0.187,-0.005 -0.375,0.004 -0.563,0 l 0.063,-0.5 c -0.187,-0.005 -0.375,0.004 -0.563,0 l 0.063,-0.5 c -0.187,-0.005 -0.375,0.004 -0.563,0 l 0.063,-0.5 c -0.187,-0.005 -0.375,0.004 -0.563,0 l 0.063,-0.5 c -0.187,-0.005 -0.375,0.004 -0.563,0 l 0.063,-0.5 c -0.187,-0.005 -0.375,0.004 -0.563,0 l 0.063,-0.5 c -0.187,-0.005 -0.375,0.004 -0.563,0 l 0.063,-0.5 c -0.187,-0.005 -0.375,0.004 -0.563,0 l 0.063,-0.5 c -0.187,-0.005 -0.375,0.004 -0.563,0 l 0.063,-0.5 c -0.187,-0.005 -0.375,0.004 -0.563,0 l 0.063,-0.5 c -0.187,-0.005 -0.375,0.004 -0.563,0 l 0.063,-0.5 c -0.187,-0.005 -0.375,0.004 -0.563,0 l 0.063,-0.5 c -0.187,-0.005 -0.375,0.004 -0.563,0 l 0.063,-0.5 c -0.187,-0.005 -0.375,0.004 -0.563,0 l 0.063,-0.5 c -0.187,-0.005 -0.375,0.004 -0.563,0 l 0.063,-0.5 c -0.187,-0.005 -0.375,0.004 -0.563,0 l 0.063,-0.5 c -0.187,-0.005 -0.375,0.004 -0.563,0 l 0.063,-0.5 c -0.189,-0.005 -0.373,0.004 -0.563,0 l 0.063,-0.469 c -0.189,-0.005 -0.373,0.004 -0.563,0 l 0.063,-0.5 c -0.189,-0.005 -0.373,0.004 -0.563,0 l 0.063,-0.5 c -0.189,-0.005 -0.373,0.004 -0.563,0 l 0.063,-0.5 c -0.179,-0.005 -0.353,0.004 -0.531,0 l 0.063,-0.5 c -0.187,-0.005 -0.375,0.004 -0.563,0 l 0.063,-0.5 c -0.187,-0.005 -0.375,0.004 -0.563,0 l 0.063,-0.5 c -0.187,-0.005 -0.375,0.004 -0.563,0 l 0.063,-0.5 c -0.187,-0.005 -0.375,0.004 -0.563,0 l 0.063,-0.5 c -0.187,-0.005 -0.375,0.004 -0.563,0 l 0.063,-0.5 c -0.187,-0.005 -0.375,0.004 -0.563,0 l 0.063,-0.5 c -0.187,-0.005 -0.375,0.004 -0.563,0 l 0.063,-0.5 c -0.187,-0.005 -0.375,0.004 -0.563,0 l 0.063,-0.5 c -0.187,-0.005 -0.375,0.004 -0.563,0 l 0.063,-0.5 c -0.187,-0.005 -0.375,0.004 -0.563,0 l 0.063,-0.5 c -0.187,-0.005 -0.375,0.004 -0.563,0 l 0.063,-0.5 c -0.187,-0.005 -0.375,0.004 -0.563,0 l 0.063,-0.5 c -0.187,-0.005 -0.375,0.004 -0.563,0 l 0.063,-0.5 c -0.187,-0.005 -0.375,0.004 -0.563,0 l 0.063,-0.5 c -0.187,-0.005 -0.375,0.004 -0.563,0 l 0.063,-0.5 c -0.187,-0.005 -0.375,0.004 -0.563,0 l 0.063,-0.5 c -0.187,-0.005 -0.375,0.004 -0.563,0 l 0.063,-0.5 c -0.187,-0.005 -0.375,0.004 -0.563,0 l 0.063,-0.5 c -0.187,-0.005 -0.375,0.004 -0.563,0 l 0.063,-0.5 c -0.187,-0.005 -0.375,0.004 -0.563,0 l 0.063,-0.5 c -0.189,-0.005 -0.373,0.004 -0.563,0 l 0.063,-0.469 c -0.189,-0.005 -0.373,0.004 -0.563,0 l 0.063,-0.5 c -0.189,-0.005 -0.373,0.004 -0.563,0 l 0.063,-0.5 c -0.189,-0.005 -0.373,0.004 -0.563,0 l 0.063,-0.5 c -0.179,-0.005 -0.353,0.004 -0.531,0 l 0.063,-0.5 c -0.187,-0.005 -0.375,0.004 -0.563,0 l 0.063,-0.5 c -0.187,-0.005 -0.375,0.004 -0.563,0 l 0.063,-0.5 c -0.187,-0.005 -0.375,0.004 -0.563,0 l 0.063,-0.5 c -0.187,-0.005 -0.375,0.004 -0.563,0 l 0.063,-0.5 c -0.187,-0.005 -0.375,0.004 -0.563,0 l 0.063,-0.5 c -0.187,-0.005 -0.375,0.004 -0.563,0 l 0.063,-0.5 c -0.187,-0.005 -0.375,0.004 -0.563,0 l 0.063,-0.5 c -0.187,-0.005 -0.375,0.004 -0.563,0 l 0.063,-0.5 c -0.187,-0.005 -0.375,0.004 -0.563,0 l 0.063,-0.5 c -0.187,-0.005 -0.375,0.004 -0.563,0 l 0.063,-0.5 c -0.187,-0.005 -0.375,0.004 -0.563,0 l 0.063,-0.5 c -0.187,-0.005 -0.375,0.004 -0.563,0 l 0.063,-0.5 c -0.187,-0.005 -0.375,0.004 -0.563,0 l 0.063,-0.5 c -0.187,-0.005 -0.375,0.004 -0.563,0 l 0.063,-0.5 c -0.187,-0.005 -0.375,0.004 -0.563,0 l 0.063,-0.5 c -0.187,-0.005 -0.375,0.004 -0.563,0 l 0.063,-0.5 c -0.187,-0.005 -0.375,0.004 -0.563,0 l 0.063,-0.5 c -0.187,-0.005 -0.375,0.004 -0.563,0 l 0.063,-0.5 c -0.187,-0.005 -0.375,0.004 -0.563,0 l 0.063,-0.5 c -0.187,-0.005 -0.375,0.004 -0.563,0 l 0.063,-0.5 c -0.189,-0.005 -0.373,0.004 -0.563,0 l 0.063,-0.469 c -0.189,-0.005 -0.373,0.004 -0.563,0 l 0.063,-0.5 c -0.189,-0.005 -0.373,0.004 -0.563,0 l 0.063,-0.5 c -0.189,-0.005 -0.373,0.004 -0.563,0 l 0.063,-0.5 c -0.179,-0.005 -0.353,0.004 -0.531,0 l 0.063,-0.5 c -0.187,-0.005 -0.375,0.004 -0.563,0 l 0.063,-0.5 c -0.187,-0.005 -0.375,0.004 -0.563,0 l 0.063,-0.5 c -0.187,-0.005 -0.375,0.004 -0.563,0 l 0.063,-0.5 c -0.187,-0.005 -0.375,0.004 -0.563,0 l 0.063,-0.5 c -0.187,-0.005 -0.375,0.004 -0.563,0 l 0.063,-0.5 c -0.187,-0.005 -0.375,0.004 -0.563,0 l 0.063,-0.5 c -0.187,-0.005 -0.375,0.004 -0.563,0 l 0.063,-0.5 c -0.187,-0.005 -0.375,0.004 -0.563,0 l 0.063,-0.5 c -0.187,-0.005 -0.375,0.004 -0.563,0 l 0.063,-0.5 c -0.187,-0.005 -0.375,0.004 -0.563,0 l 0.063,-0.5 c -0.187,-0.005 -0.375,0.004 -0.563,0 l 0.063,-0.5 c -0.187,-0.005 -0.375,0.004 -0.563,0 l 0.063,-0.5 c -0.187,-0.005 -0.375,0.004 -0.563,0 l 0.063,-0.5 c -0.187,-0.005 -0.375,0.004 -0.563,0 l 0.063,-0.5 c -0.187,-0.005 -0.375,0.004 -0.563,0 l 0.063,-0.5 c -0.187,-0.005 -0.375,0.004 -0.563,0 l 0.063,-0.5 c -0.187,-0.005 -0.375,0.004 -0.563,0 l 0.063,-0.5 c -0.187,-0.005 -0.375,0.004 -0.563,0 l 0.063,-0.5 c -0.187,-0.005 -0.375,0.004 -0.563,0 l 0.063,-0.5 c -0.187,-0.005 -0.375,0.004 -0.563,0 l 0.063,-0.5 c -0.187,-0.005 -0.375,0.004 -0.563,0 l 0.063,-0.469 c -0.189,-0.005 -0.373,0.004 -0.563,0 l 0.063,-0.5 c -0.189,-0.005 -0.373,0.004 -0.563,0 l 0.063,-0.5 c -0.189,-0.005 -0.373,0.004 -0.563,0 l 0.063,-0.5 c -0.179,-0.005 -0.353,0.004 -0.531,0 l 0.063,-0.5 c -0.187,-0.005 -0.375,0.004 -0.563,0 l 0.063,-0.5 c -0.187,-0.005 -0.375,0.004 -0.563,0 l 0.063,-0.5 c -0.187,-0.005 -0.375,0.004 -0.563,0 l 0.063,-0.5 c -0.187,-0.005 -0.375,0.004 -0.563,0 l 0.063,-0.5 c -0.187,-0.005 -0.375,0.004 -0.563,0 l 0.063,-0.5 c -0.187,-0.005 -0.375,0.004 -0.563,0 l 0.063,-0.5 c -0.187,-0.005 -0.375,0.004 -0.563,0 l 0.063,-0.5 c -0.187,-0.005 -0.375,0.004 -0.563,0 l 0.063,-0.5 c -0.187,-0.005 -0.375,0.004 -0.563,0 l 0.063,-0.5 c -0.187,-0.005 -0.375,0.004 -0.563,0 l 0.063,-0.5 c -0.187,-0.005 -0.375,0.004 -0.563,0 l 0.063,-0.5 c -0.187,-0.005 -0.375,0.004 -0.563,0 l 0.063,-0.5 c -0.187,-0.005 -0.375,0.004 -0.563,0 l 0.063,-0.5 c -0.187,-0.005 -0.375,0.004 -0.563,0 l 0.063,-0.5 c -0.187,-0.005 -0.375,0.004 -0.563,0 l 0.063,-0.5 c -0.187,-0.005 -0.375,0.004 -0.563,0 l 0.063,-0.5 c -0.187,-0.005 -0.375,0.004 -0.563,0 l 0.063,-0.5 c -0.187,-0.005 -0.375,0.004 -0.563,0 l 0.063,-0.5 c -0.187,-0.005 -0.375,0.004 -0.563,0 l 0.063,-0.5 c -0.187,-0.005 -0.375,0.004 -0.563,0 l 0.063,-0.5 c -0.187,-0.005 -0.375,0.004 -0.563,0 l 0.063,-0.469 c -0.189,-0.005 -0.373,0.004 -0.563,0 l 0.063,-0.5 c -0.189,-0.005 -0.373,0.004 -0.563,0 l 0.063,-0.5 c -0.189,-0.005 -0.373,0.004 -0.563,0 l 0.063,-0.5 c -0.179,-0.005 -0.353,0.004 -0.531,0 l 0.063,-0.5 c -0.187,-0.005 -0.375,0.004 -0.563,0 l 0.063,-0.5 c -0.187,-0.005 -0.375,0.004 -0.563,0 l 0.063,-0.5 c -0.187,-0.005 -0.375,0.004 -0.563,0 l 0.063,-0.5 c -0.187,-0.005 -0.375,0.004 -0.563,0 l 0.063,-0.5 c -0.187,-0.005 -0.375,0.004 -0.563,0 l 0.063,-0.5 c -0.187,-0.005 -0.375,0.004 -0.563,0 l 0.063,-0.5 c -0.187,-0.005 -0.375,0.004 -0.563,0 l 0.063,-0.5 c -0.187,-0.005 -0.375,0.004 -0.563,0 l 0.063,-0.5 c -0.187,-0.005 -0.375,0.004 -0.563,0 l 0.063,-0.5 c -0.187,-0.005 -0.375,0.004 -0.563,0 l 0.063,-0.5 c -0.187,-0.005 -0.375,0.004 -0.563,0 l 0.063,-0.5 c -0.187,-0.005 -0.375,0.004 -0.563,0 l 0.063,-0.5 c -0.187,-0.005 -0.375,0.004 -0.563,0 l 0.063,-0.5 c -0.187,-0.005 -0.375,0.004 -0.563,0 l 0.063,-0.5 c -0.187,-0.005 -0.375,0.004 -0.563,0 l 0.063,-0.5 c -0.187,-0.005 -0.375,0.004 -0.563,0 l 0.063,-0.5 c -0.187,-0.005 -0.375,0.004 -0.563,0 l 0.063,-0.5 c -0.187,-0.005 -0.375,0.004 -0.563,0 l 0.063,-0.5 c -0.187,-0.005 -0.375,0.004 -0.563,0 l 0.063,-0.5 c -0.187,-0.005 -0.375,0.004 -0.563,0 l 0.063,-0.5 c -0.187,-0.005 -0.375,0.004 -0.563,0 l 0.063,-0.469 c -0.189,-0.005 -0.373,0.004 -0.563,0 l 0.063,-0.5 c -0.189,-0.005 -0.373,0.004 -0.563,0 l 0.063,-0.5 c -0.189,-0.005 -0.373,0.004 -0.563,0 l 0.063,-0.5 c -0.179,-0.005 -0.353,0.004 -0.531,0 l 0.063,-0.5 c -0.187,-0.005 -0.375,0.004 -0.563,0 l 0.063,-0.5 c -0.187,-0.005 -0.375,0.004 -0.563,0 l 0.063,-0.5 c -0.187,-0.005 -0.375,0.004 -0.563,0 l 0.063,-0.5 c -0.187,-0.005 -0.375,0.004 -0.563,0 l 0.063,-0.5 c -0.187,-0.005 -0.375,0.004 -0.563,0 l 0.063,-0.5 c -0.187,-0.005 -0.375,0.004 -0.563,0 l 0.063,-0.5 c -0.187,-0.005 -0.375,0.004 -0.563,0 l 0.063,-0.5 c -0.187,-0.005 -0.375,0.004 -0.563,0 l 0.063,-0.5 c -0.187,-0.005 -0.375,0.004 -0.563,0 l 0.063,-0.5 c -0.187,-0.005 -0.375,0.004 -0.563,0 l 0.063,-0.5 c -0.187,-0.005 -0.375,0.004 -0.563,0 l 0.063,-0.5 c -0.187,-0.005 -0.375,0.004 -0.563,0 l 0.063,-0.5 c -0.187,-0.005 -0.375,0.004 -0.563,0 l 0.063,-0.5 c -0.187,-0.005 -0.375,0.004 -0.563,0 l 0.063,-0.5 c -0.187,-0.005 -0.375,0.004 -0.563,0 l 0.063,-0.5 c -0.187,-0.005 -0.375,0.004 -0.563,0 l 0.063,-0.5 c -0.187,-0.005 -0.375,0.004 -0.563,0 l 0.063,-0.5 c -0.187,-0.005 -0.375,0.004 -0.563,0 l 0.063,-0.5 c -0.187,-0.005 -0.375,0.004 -0.563,0 l 0.063,-0.5 c -0.187,-0.005 -0.375,0.004 -0.563,0 l 0.063,-0.5 c -0.187,-0.005 -0.375,0.004 -0.563,0 l 0.063,-0.469 c -0.189,-0.005 -0.373,0.004 -0.563,0 l 0.063,-0.5 c -0.189,-0.005 -0.373,0.004 -0.563,0 l 0.063,-0.5 c -0.189,-0.005 -0.373,0.004 -0.563,0 l 0.063,-0.5 c -0.189,-0.005 -0.373,0.004 -0.563,0 l 0.063,-0.5 c -0.179,-0.005 -0.353,0.004 -0.531,0 l 0.063,-0.5 c -0.187,-0.005 -0.375,0.004 -0.563,0 l 0.063,-0.5 c -0.187,-0.005 -0.375,0.004 -0.563,0 l 0.063,-0.5 c -0.187,-0.005 -0.375,0.004 -0.563,0 l 0.063,-0.5 c -0.187,-0.005 -0.375,0.004 -0.563,0 l 0.063,-0.5 c -0.187,-0.005 -0.375,0.004 -0.563,0 l 0.063,-0.5 c -0.187,-0.005 -0.375,0.004 -0.563,0 l 0.063,-0.5 c -0.187,-0.005 -0.375,0.004 -0.563,0 l 0.063,-0.5 c -0.187,-0.005 -0.375,0.004 -0.563,0 l 0.063,-0.5 c -0.187,-0.005 -0.375,0.004 -0.563,0 l 0.063,-0.5 c -0.187,-0.005 -0.375,0.004 -0.563,0 l 0.063,-0.5 c -0.187,-0.005 -0.375,0.004 -0.563,0 l 0.063,-0.5 c -0.187,-0.005 -0.375,0.004 -0.563,0 l 0.063,-0.5 c -0.187,-0.005 -0.375,0.004 -0.563,0 l 0.063,-0.5 c -0.187,-0.005 -0.375,0.004 -0.563,0 l 0.063,-0.5 c -0.187,-0.005 -0.375,0.004 -0.563,0 l 0.063,-0.5 c -0.187,-0.005 -0.375,0.004 -0.563,0 l 0.063,-0.5 c -0.187,-0.005 -0.375,0.004 -0.563,0 l 0.063,-0.5 c -0.187,-0.005 -0.375,0.004 -0.563,0 l 0.063,-0.5 c -0.187,-0.005 -0.375,0.004 -0.563,0 l 0.063,-0.5 c -0.187,-0.005 -0.375,0.004 -0.563,0 l 0.063,-0.469 c -0.189,-0.005 -0.373,0.004 -0.563,0 l 0.063,-0.5 c -0.189,-0.005 -0.373,0.004 -0.563,0 l 0.063,-0.5 c -0.189,-0.005 -0.373,0.004 -0.563,0 l 0.063,-0.5 c -0.189,-0.005 -0.373,0.004 -0.563,0 l 0.063,-0.5 c -0.179,-0.005 -0.353,0.004 -0.531,0 l 0.063,-0.5 c -0.187,-0.005 -0.375,0.004 -0.563,0 l 0.063,-0.5 c -0.187,-0.005 -0.375,0.004 -0.563,0 l 0.063,-0.5 c -0.187,-0.005 -0.375,0.004 -0.563,0 l 0.063,-0.5 c -0.187,-0.005 -0.375,0.004 -0.563,0 l 0.063,-0.5 c -0.187,-0.005 -0.375,0.004 -0.563,0 l 0.063,-0.5 c -0.187,-0.005 -0.375,0.004 -0.563,0 l 0.063,-0.5 c -0.187,-0.005 -0.375,0.004 -0.563,0 l 0.063,-0.5 c -0.187,-0.005 -0.375,0.004 -0.563,0 l 0.063,-0.5 c -0.187,-0.005 -0.375,0.004 -0.563,0 l 0.063,-0.5 c -0.187,-0.005 -0.375,0.004 -0.563,0 l 0.063,-0.5 c -0.187,-0.005 -0.375,0.004 -0.563,0 l 0.063,-0.5 c -0.187,-0.005 -0.375,0.004 -0.563,0 l 0.063,-0.5 c -0.187,-0.005 -0.375,0.004 -0.563,0 l 0.063,-0.5 c -0.187,-0.005 -0.375,0.004 -0.563,0 l 0.063,-0.5 c -0.187,-0.005 -0.375,0.004 -0.563,0 l 0.063,-0.5 c -0.187,-0.005 -0.375,0.004 -0.563,0 l 0.063,-0.5 c -0.187,-0.005 -0.375,0.004 -0.563,0 l 0.063,-0.5 c -0.187,-0.005 -0.375,0.004 -0.563,0 l 0.063,-0.5 c -0.187,-0.005 -0.375,0.004 -0.563,0 l 0.063,-0.5 c -0.187,-0.005 -0.375,0.004 -0.563,0 l 0.063,-0.469 c -0.189,-0.005 -0.373,0.004 -0.563,0 l 0.063,-0.5 c -0.189,-0.005 -0.373,0.004 -0.563,0 l 0.063,-0.5 c -0.189,-0.005 -0.373,0.004 -0.563,0 l 0.063,-0.5 c -0.189,-0.005 -0.373,0.004 -0.563,0 l 0.063,-0.5 c -0.179,-0.005 -0.353,0.004 -0.531,0 l 0.063,-0.5 c -0.187,-0.005 -0.375,0.004 -0.563,0 l 0.063,-0.5 c -0.187,-0.005 -0.375,0.004 -0.563,0 l 0.063,-0.5 c -0.187,-0.005 -0.375,0.004 -0.563,0 l 0.063,-0.5 c -0.187,-0.005 -0.375,0.004 -0.563,0 l 0.063,-0.5 c -0.187,-0.005 -0.375,0.004 -0.563,0 l 0.063,-0.5 c -0.187,-0.005 -0.375,0.004 -0.563,0 l 0.063,-0.5 c -0.187,-0.005 -0.375,0.004 -0.563,0 l 0.063,-0.5 c -0.187,-0.005 -0.375,0.004 -0.563,0 l 0.063,-0.5 c -0.187,-0.005 -0.375,0.004 -0.563,0 l 0.063,-0.5 c -0.187,-0.005 -0.375,0.004 -0.563,0 l 0.063,-0.5 c -0.187,-0.005 -0.375,0.004 -0.563,0 l 0.063,-0.5 c -0.187,-0.005 -0.375,0.004 -0.563,0 l 0.063,-0.5 c -0.187,-0.005 -0.375,0.004 -0.563,0 l 0.063,-0.5 c -0.187,-0.005 -0.375,0.004 -0.563,0 l 0.063,-0.5 c -0.187,-0.005 -0.375,0.004 -0.563,0 l 0.063,-0.5 c -0.187,-0.005 -0.375,0.004 -0.563,0 l 0.063,-0.5 c -0.187,-0.005 -0.375,0.004 -0.563,0 l 0.063,-0.5 c -0.187,-0.005 -0.375,0.004 -0.563,0 l 0.063,-0.5 c -0.187,-0.005 -0.375,0.004 -0.563,0 l 0.063,-0.5 c -0.187,-0.005 -0.375,0.004 -0.563,0 l 0.063,-0.469 c -0.189,-0.005 -0.373,0.004 -0.563,0 l 0.063,-0.5 c -0.189,-0.005 -0.373,0.004 -0.563,0 l 0.063,-0.5 c -0.189,-0.005 -0.373,0.004 -0.563,0 l 0.063,-0.5 c -0.189,-0.005 -0.373,0.004 -0.563,0 l 0.063,-0.5 c -0.179,-0.005 -0.353,0.004 -0.531,0 l 0.063,-0.5 c -0.187,-0.005 -0.375,0.004 -0.563,0 l 0.063,-0.5 c -0.187,-0.005 -0.375,0.004 -0.563,0 l 0.063,-0.5 c -0.187,-0.005 -0.375,0.004 -0.563,0 l 0.063,-0.5 c -0.187,-0.005 -0.375,0.004 -0.563,0 l 0.063,-0.5 c -0.187,-0.005 -0.375,0.004 -0.563,0 l 0.063,-0.5 c -0.187,-0.005 -0.375,0.004 -0.563,0 l 0.063,-0.5 c -0.187,-0.005 -0.375,0.004 -0.563,0 l 0.063,-0.5 c -0.187,-0.005 -0.375,0.004 -0.563,0 l 0.063,-0.5 c -0.187,-0.005 -0.375,0.004 -0.563,0 l 0.063,-0.5 c -0.187,-0.005 -0.375,0.004 -0.563,0 l 0.063,-0.5 c -0.187,-0.005 -0.375,0.004 -0.563,0 l 0.063,-0.5 c -0.187,-0.005 -0.375,0.004 -0.563,0 l 0.063,-0.5 c -0.187,-0.005 -0.375,0.004 -0.563,0 l 0.063,-0.5 c -0.187,-0.005 -0.375,0.004 -0.563,0 l 0.063,-0.5 c -0.187,-0.005 -0.375,0.004 -0.563,0 l 0.063,-0.5 c -0.187,-0.005 -0.375,0.004 -0.563,0 l 0.063,-0.5 c -0.187,-0.005 -0.375,0.004 -0.563,0 l 0.063,-0.5 c -0.187,-0.005 -0.375,0.004 -0.563,0 l 0.063,-0.5 c -0.187,-0.005 -0.375,0.004 -0.563,0 l 0.063,-0.5 c -0.187,-0.005 -0.375,0.004 -0.563,0 l 0.063,-0.469 c -0.189,-0.005 -0.373,0.004 -0.563,0 l 0.063,-0.5 c -0.189,-0.005 -0.373,0.004 -0.563,0 l 0.063,-0.5 c -0.189,-0.005 -0.373,0.004 -0.563,0 l 0.063,-0.5 c -0.189,-0.005 -0.373,0.004 -0.563,0 l 0.063,-0.5 c -0.179,-0.005 -0.353,0.004 -0.531,0 l 0.063,-0.5 c -0.187,-0.005 -0.375,0.004 -0.563,0 l 0.063,-0.5 c -0.187,-0.005 -0.375,0.004 -0.563,0 l 0.063,-0.5 c -0.187,-0.005 -0.375,0.004 -0.563,0 l 0.063,-0.5 c -0.187,-0.005 -0.375,0.004 -0.563,0 l 0.063,-0.5 c -0.187,-0.005 -0.375,0.004 -0.563,0 l 0.063,-0.5 c -0.187,-0.005 -0.375,0.004 -0.563,0 l 0.063,-0.5 c -0.187,-0.005 -0.375,0.004 -0.563,0 l 0.063,-0.5 c -0.187,-0.005 -0.375,0.004 -0.563,0 l 0.063,-0.5 c -0.187,-0.005 -0.375,0.004 -0.563,0 l 0.063,-0.5 c -0.187,-0.005 -0.375,0.004 -0.563,0 l 0.063,-0.5 c -0.187,-0.005 -0.375,0.004 -0.563,0 l 0.063,-0.5 c -0.187,-0.005 -0.375,0.004 -0.563,0 l 0.063,-0.5 c -0.187,-0.005 -0.375,0.004 -0.563,0 l 0.063,-0.5 c -0.187,-0.005 -0.375,0.004 -0.563,0 l 0.063,-0.5 c -0.187,-0.005 -0.375,0.004 -0.563,0 l 0.063,-0.5 c -0.187,-0.005 -0.375,0.004 -0.563,0 l 0.063,-0.5 c -0.187,-0.005 -0.375,0.004 -0.563,0 l 0.063,-0.5 c -0.187,-0.005 -0.375,0.004 -0.563,0 l 0.063,-0.5 c -0.187,-0.005 -0.375,0.004 -0.563,0 l 0.063,-0.5 c -0.187,-0.005 -0.375,0.004 -0.563,0 l 0.063,-0.469 c -0.189,-0.005 -0.373,0.004 -0.563,0 l 0.063,-0.5 c -0.189,-0.005 -0.373,0.004 -0.563,0 l 0.063,-0.5 c -0.189,-0.005 -0.373,0.004 -0.563,0 l 0.063,-0.5 c -0.189,-0.005 -0.373,0.004 -0.563,0 l 0.063,-0.5 c -0.179,-0.005 -0.353,0.004 -0.531,0 l 0.063,-0.5 c -0.187,-0.005 -0.375,0.004 -0.563,0 l 0.063,-0.5 c -0.187,-0.005 -0.375,0.004 -0.563,0 l 0.063,-0.5 c -0.187,-0.005 -0.375,0.004 -0.563,0 l 0.063,-0.5 c -0.187,-0.005 -0.375,0.004 -0.563,0 l 0.063,-0.5 c -0.187,-0.005 -0.375,0.004 -0.563,0 l 0.063,-0.5 c -0.187,-0.005 -0.375,0.004 -0.563,0 l 0.063,-0.5 c -0.187,-0.005 -0.375,0.004 -0.563,0 l 0.063,-0.5 c -0.187,-0.005 -0.375,0.004 -0.563,0 l 0.063,-0.5 c -1.852,-0.048 -3.717,-0.052 -5.563,-0.031"
       inkscape:connector-curvature="0"
       id="path8"
       style="fill-opacity:0.23500001" />
    <path
       d="M 256,1 C 115.17,1 1,115.17 1,256 1,396.83 115.17,511 256,511 396.83,511 511,396.83 511,256 511,115.17 396.83,1 256,1 m 8.827,44.931 c 120.9,0 218.9,98 218.9,218.9 0,120.9 -98,218.9 -218.9,218.9 -120.9,0 -218.93,-98 -218.93,-218.9 0,-120.9 98.03,-218.9 218.93,-218.9"
       inkscape:connector-curvature="0"
       id="path10"
       style="fill-opacity:0.06700003" />
    <g
       id="g12"
       style="fill-opacity:0.12900002">
      <path
         d="m 256,4.433 c -138.94,0 -251.57,112.63 -251.57,251.57 0,138.94 112.63,251.57 251.57,251.57 138.94,0 251.57,-112.63 251.57,-251.57 C 507.57,117.063 394.94,4.433 256,4.433 m 5.885,38.556 c 120.9,0 218.9,98 218.9,218.9 0,120.9 -98,218.9 -218.9,218.9 -120.9,0 -218.93,-98 -218.93,-218.9 0,-120.9 98.03,-218.9 218.93,-218.9"
         inkscape:connector-curvature="0"
         id="path14" />
      <path
         d="m 256,8.356 c -136.77,0 -247.64,110.87 -247.64,247.64 0,136.77 110.87,247.64 247.64,247.64 136.77,0 247.64,-110.87 247.64,-247.64 C 503.64,119.226 392.77,8.356 256,8.356 m 2.942,31.691 c 120.9,0 218.9,98 218.9,218.9 0,120.9 -98,218.9 -218.9,218.9 -120.9,0 -218.93,-98 -218.93,-218.9 0,-120.9 98.03,-218.9 218.93,-218.9"
         inkscape:connector-curvature="0"
         id="path16" />
    </g>
    <path
       d="m 253.04,7.859 c -135.42,0 -245.19,109.78 -245.19,245.19 0,135.42 109.78,245.19 245.19,245.19 135.42,0 245.19,-109.78 245.19,-245.19 0,-135.42 -109.78,-245.19 -245.19,-245.19 z m 0,26.297 c 120.9,0 218.9,98 218.9,218.9 0,120.9 -98,218.9 -218.9,218.9 -120.9,0 -218.93,-98 -218.93,-218.9 0,-120.9 98.03,-218.9 218.93,-218.9 z"
       inkscape:connector-curvature="0"
       id="path18"
       style="fill:#ffffff;stroke:#000000;stroke-width:4.90399981;stroke-opacity:0.31000001" />
  </g>
  <text
     x="729.64001"
     y="231.36"
     id="text20"
     style="font-size:129.22999573px;line-height:125%;letter-spacing:0;word-spacing:0;font-family:Gentium Book Basic">
    <tspan
       x="729.64001"
       y="231.36"
       id="tspan22" />
  </text>
  <text
     x="378.91"
     y="579.25"
     transform="scale(4.0128,0.2492)"
     id="text24"
     style="font-size:46.95399857px;text-anchor:middle;font-family:Arial" />
  <text
     x="1310.91"
     y="151.36"
     id="text26"
     style="font-size:129.22999573px;line-height:125%;letter-spacing:0;word-spacing:0;font-family:Gentium Book Basic">
    <tspan
       x="1310.91"
       y="151.36"
       id="tspan28" />
  </text>
  <text
     x="523.76001"
     y="258.22"
     transform="scale(4.0128,0.2492)"
     id="text30"
     style="font-size:46.95399857px;text-anchor:middle;font-family:Arial" />
  <text
     x="239.33"
     y="-29.900999"
     id="text32"
     style="font-size:129.22999573px;line-height:125%;letter-spacing:0;word-spacing:0;font-family:Gentium Book Basic">
    <tspan
       x="239.33"
       y="-29.900999"
       id="tspan34" />
  </text>
  <text
     x="256.72"
     y="-469.14001"
     transform="scale(4.0128,0.2492)"
     id="text36"
     style="font-size:46.95399857px;text-anchor:middle;font-family:Arial" />
  <text
     x="1337.38"
     y="-246.37"
     id="text38"
     style="font-size:129.22999573px;line-height:125%;letter-spacing:0;word-spacing:0;font-family:Gentium Book Basic">
    <tspan
       x="1337.38"
       y="-246.37"
       id="tspan40" />
  </text>
  <text
     x="530.35999"
     y="-1337.8101"
     transform="scale(4.0128,0.2492)"
     id="text42"
     style="font-size:46.95399857px;text-anchor:middle;font-family:Arial" />
  <text
     x="1918.65"
     y="-326.38"
     id="text44"
     style="font-size:129.22999573px;line-height:125%;letter-spacing:0;word-spacing:0;font-family:Gentium Book Basic">
    <tspan
       x="1918.65"
       y="-326.38"
       id="tspan46" />
  </text>
  <text
     x="675.21002"
     y="-1658.85"
     transform="scale(4.0128,0.2492)"
     id="text48"
     style="font-size:46.95399857px;text-anchor:middle;font-family:Arial" />
  <text
     x="1529.53"
     y="-798.78003"
     id="text50"
     style="font-size:129.22999573px;line-height:125%;letter-spacing:0;word-spacing:0;font-family:Gentium Book Basic">
    <tspan
       x="1529.53"
       y="-798.78003"
       id="tspan52" />
  </text>
  <text
     x="578.23999"
     y="-3554.51"
     transform="scale(4.0128,0.2492)"
     id="text54"
     style="font-size:46.95399857px;text-anchor:middle;font-family:Arial" />
  <text
     x="2110.79"
     y="-878.78003"
     id="text56"
     style="font-size:129.22999573px;line-height:125%;letter-spacing:0;word-spacing:0;font-family:Gentium Book Basic">
    <tspan
       x="2110.79"
       y="-878.78003"
       id="tspan58" />
  </text>
  <text
     x="723.09003"
     y="-3875.54"
     transform="scale(4.0128,0.2492)"
     id="text60"
     style="font-size:46.95399857px;text-anchor:middle;font-family:Arial" />
  <text
     x="277.98999"
     y="535.94"
     id="text62"
     style="font-size:208.33000183px;line-height:125%;letter-spacing:0;word-spacing:0;font-family:Gentium Book Basic">
    <tspan
       x="277.98999"
       y="535.94"
       id="tspan64" />
  </text>
  <path
     d="m 259.8,263.66 c -2.153,-9.39 9.128,-14.83 16.809,-13.826 15.01,1.966 22.13,18.8 18.677,32.29 -5.257,20.513 -28.55,29.746 -47.647,23.601 -25.946,-8.35 -37.32,-38.458 -28.434,-63.19 11.325,-31.499 48.24,-45.08 78.48,-33.377 36.939,14.3 52.694,58.22 38.19,94.08 -17.197,42.531 -67.971,60.52 -109.32,43.15 -47.96,-20.15 -68.12,-78 -47.946,-124.98 23.01,-53.58 87.73,-75.994 140.16,-52.925 58.992,25.955 83.56,97.8 57.692,155.88 -28.785,64.65 -107.48,91.49 -170.98,62.709 -70.03,-31.753 -99.04,-117.61 -67.46,-186.78 24.764,-54.24 81.38,-88.37 140.63,-86.83"
     inkscape:connector-curvature="0"
     id="path66"
     style="fill:#ffffff;fill-rule:evenodd" />
</svg>
