<?xml version="1.0" encoding="UTF-8" standalone="no"?>
<!-- Created with Inkscape (http://www.inkscape.org/) -->

<svg
   xmlns:dc="http://purl.org/dc/elements/1.1/"
   xmlns:cc="http://creativecommons.org/ns#"
   xmlns:rdf="http://www.w3.org/1999/02/22-rdf-syntax-ns#"
   xmlns:svg="http://www.w3.org/2000/svg"
   xmlns="http://www.w3.org/2000/svg"
   xmlns:inkscape="http://www.inkscape.org/namespaces/inkscape"
   version="1.1"
   width="100%"
   height="100%"
   viewBox="0 0 512 512"
   id="svg2">
  <metadata
     id="metadata72">
    <rdf:RDF>
      <cc:Work
         rdf:about="">
        <dc:format>image/svg+xml</dc:format>
        <dc:type
           rdf:resource="http://purl.org/dc/dcmitype/StillImage" />
      </cc:Work>
    </rdf:RDF>
  </metadata>
  <defs
     id="defs70">
    <clipPath
       id="clipPath3189">
      <path
         d="m 471.95,253.05 c 0,120.9 -98.01,218.9 -218.9,218.9 -120.9,0 -218.9,-98.01 -218.9,-218.9 0,-120.9 98.01,-218.9 218.9,-218.9 120.9,0 218.9,98.01 218.9,218.9"
         inkscape:connector-curvature="0"
         id="path3191"
         style="fill:#cd1d31;fill-rule:evenodd" />
    </clipPath>
  </defs>
  <path
     d="m 471.95,253.05 c 0,120.9 -98.01,218.9 -218.9,218.9 -120.9,0 -218.9,-98.01 -218.9,-218.9 0,-120.9 98.01,-218.9 218.9,-218.9 120.9,0 218.9,98.01 218.9,218.9"
     inkscape:connector-curvature="0"
     id="path4"
     style="fill:#cd1d31;fill-rule:evenodd" />
  <g
     id="g8"
     style="fill-rule:evenodd">
    <path
       d="M 256,1 C 115.17,1 1,115.17 1,256 1,396.83 115.17,511 256,511 396.83,511 511,396.83 511,256 511,115.17 396.83,1 256,1 m 8.827,44.931 c 120.9,0 218.9,98 218.9,218.9 0,120.9 -98,218.9 -218.9,218.9 -120.9,0 -218.93,-98 -218.93,-218.9 0,-120.9 98.03,-218.9 218.93,-218.9"
       inkscape:connector-curvature="0"
       id="path10"
       style="fill-opacity:0.06700003" />
    <g
       id="g12"
       style="fill-opacity:0.12900002">
      <path
         d="m 256,4.433 c -138.94,0 -251.57,112.63 -251.57,251.57 0,138.94 112.63,251.57 251.57,251.57 138.94,0 251.57,-112.63 251.57,-251.57 C 507.57,117.063 394.94,4.433 256,4.433 m 5.885,38.556 c 120.9,0 218.9,98 218.9,218.9 0,120.9 -98,218.9 -218.9,218.9 -120.9,0 -218.93,-98 -218.93,-218.9 0,-120.9 98.03,-218.9 218.93,-218.9"
         inkscape:connector-curvature="0"
         id="path14" />
      <path
         d="m 256,8.356 c -136.77,0 -247.64,110.87 -247.64,247.64 0,136.77 110.87,247.64 247.64,247.64 136.77,0 247.64,-110.87 247.64,-247.64 C 503.64,119.226 392.77,8.356 256,8.356 m 2.942,31.691 c 120.9,0 218.9,98 218.9,218.9 0,120.9 -98,218.9 -218.9,218.9 -120.9,0 -218.93,-98 -218.93,-218.9 0,-120.9 98.03,-218.9 218.93,-218.9"
         inkscape:connector-curvature="0"
         id="path16" />
    </g>
    <path
       d="m 253.04,7.859 c -135.42,0 -245.19,109.78 -245.19,245.19 0,135.42 109.78,245.19 245.19,245.19 135.42,0 245.19,-109.78 245.19,-245.19 0,-135.42 -109.78,-245.19 -245.19,-245.19 z m 0,26.297 c 120.9,0 218.9,98 218.9,218.9 0,120.9 -98,218.9 -218.9,218.9 -120.9,0 -218.93,-98 -218.93,-218.9 0,-120.9 98.03,-218.9 218.93,-218.9 z"
       inkscape:connector-curvature="0"
       id="path18"
       style="fill:#ffffff;stroke:#000000;stroke-width:4.90399981;stroke-opacity:0.31000001" />
  </g>
  <text
     x="729.64001"
     y="231.36"
     id="text20"
     style="font-size:129.22999573px;line-height:125%;letter-spacing:0;word-spacing:0;font-family:Gentium Book Basic">
    <tspan
       x="729.64001"
       y="231.36"
       id="tspan22" />
  </text>
  <text
     x="378.91"
     y="579.25"
     transform="scale(4.0128,0.2492)"
     id="text24"
     style="font-size:46.95399857px;text-anchor:middle;font-family:Arial" />
  <text
     x="1310.91"
     y="151.36"
     id="text26"
     style="font-size:129.22999573px;line-height:125%;letter-spacing:0;word-spacing:0;font-family:Gentium Book Basic">
    <tspan
       x="1310.91"
       y="151.36"
       id="tspan28" />
  </text>
  <text
     x="523.76001"
     y="258.22"
     transform="scale(4.0128,0.2492)"
     id="text30"
     style="font-size:46.95399857px;text-anchor:middle;font-family:Arial" />
  <text
     x="239.33"
     y="-29.900999"
     id="text32"
     style="font-size:129.22999573px;line-height:125%;letter-spacing:0;word-spacing:0;font-family:Gentium Book Basic">
    <tspan
       x="239.33"
       y="-29.900999"
       id="tspan34" />
  </text>
  <text
     x="256.72"
     y="-469.14001"
     transform="scale(4.0128,0.2492)"
     id="text36"
     style="font-size:46.95399857px;text-anchor:middle;font-family:Arial" />
  <text
     x="1337.38"
     y="-246.37"
     id="text38"
     style="font-size:129.22999573px;line-height:125%;letter-spacing:0;word-spacing:0;font-family:Gentium Book Basic">
    <tspan
       x="1337.38"
       y="-246.37"
       id="tspan40" />
  </text>
  <text
     x="530.35999"
     y="-1337.8101"
     transform="scale(4.0128,0.2492)"
     id="text42"
     style="font-size:46.95399857px;text-anchor:middle;font-family:Arial" />
  <text
     x="1918.65"
     y="-326.38"
     id="text44"
     style="font-size:129.22999573px;line-height:125%;letter-spacing:0;word-spacing:0;font-family:Gentium Book Basic">
    <tspan
       x="1918.65"
       y="-326.38"
       id="tspan46" />
  </text>
  <text
     x="675.21002"
     y="-1658.85"
     transform="scale(4.0128,0.2492)"
     id="text48"
     style="font-size:46.95399857px;text-anchor:middle;font-family:Arial" />
  <text
     x="1529.53"
     y="-798.78003"
     id="text50"
     style="font-size:129.22999573px;line-height:125%;letter-spacing:0;word-spacing:0;font-family:Gentium Book Basic">
    <tspan
       x="1529.53"
       y="-798.78003"
       id="tspan52" />
  </text>
  <text
     x="578.23999"
     y="-3554.51"
     transform="scale(4.0128,0.2492)"
     id="text54"
     style="font-size:46.95399857px;text-anchor:middle;font-family:Arial" />
  <text
     x="2110.79"
     y="-878.78003"
     id="text56"
     style="font-size:129.22999573px;line-height:125%;letter-spacing:0;word-spacing:0;font-family:Gentium Book Basic">
    <tspan
       x="2110.79"
       y="-878.78003"
       id="tspan58" />
  </text>
  <text
     x="723.09003"
     y="-3875.54"
     transform="scale(4.0128,0.2492)"
     id="text60"
     style="font-size:46.95399857px;text-anchor:middle;font-family:Arial" />
  <text
     x="277.98999"
     y="535.94"
     id="text62"
     style="font-size:208.33000183px;line-height:125%;letter-spacing:0;word-spacing:0;font-family:Gentium Book Basic">
    <tspan
       x="277.98999"
       y="535.94"
       id="tspan64" />
  </text>
  <g
     clip-path="url(#clipPath3189)"
     id="g3106"
     style="opacity:0.25;fill:#000000;fill-opacity:1;stroke:none">
    <path
       d="m 123,152.50865 0,0.36649 388.90873,388.90873 0,-0.36649 z"
       inkscape:connector-curvature="0"
       id="path3108"
       style="fill:#000000" />
    <path
       d="m 123,152.87514 c 44.33009,32.72006 88.68274,65.43019 133,98.16282 l 388.90873,388.90873 c -44.31726,-32.73263 -88.66991,-65.44276 -133,-98.16282 z"
       inkscape:connector-curvature="0"
       id="path3110"
       style="fill:#000000" />
    <path
       d="m 256,251.03796 c 44.31736,-32.73253 88.66988,-65.4428 133,-98.16282 l 388.90873,388.90873 c -44.33012,32.72002 -88.68264,65.43029 -133,98.16282 z"
       inkscape:connector-curvature="0"
       id="path3112"
       style="fill:#000000" />
    <path
       d="m 389,152.87514 0,-0.36649 388.90873,388.90873 0,0.36649 z"
       inkscape:connector-curvature="0"
       id="path3114"
       style="fill:#000000" />
    <path
       d="m 389,152.50865 -266,0 388.90873,388.90873 266,0 z"
       inkscape:connector-curvature="0"
       id="path3116"
       style="fill:#000000" />
    <path
       d="m 123,191.77941 0,174.61819 388.90873,388.90873 0,-174.61819 z"
       inkscape:connector-curvature="0"
       id="path3118"
       style="fill:#000000" />
    <path
       d="m 123,366.3976 266,0 388.90873,388.90873 -266,0 z"
       inkscape:connector-curvature="0"
       id="path3120"
       style="fill:#000000" />
    <path
       d="m 389,366.3976 0,-174.61819 388.90873,388.90873 0,174.61819 z"
       inkscape:connector-curvature="0"
       id="path3122"
       style="fill:#000000" />
    <path
       d="m 389,191.77941 c -44.33857,32.68089 -88.67838,65.35272 -133,98.05006 L 644.90873,678.7382 c 44.32162,-32.69734 88.66143,-65.36917 133,-98.05006 z"
       inkscape:connector-curvature="0"
       id="path3124"
       style="fill:#000000" />
    <path
       d="M 256,289.82947 C 211.67837,257.13213 167.33857,224.46029 123,191.77941 l 388.90873,388.90873 c 44.33857,32.68088 88.67837,65.35272 133,98.05006 z"
       inkscape:connector-curvature="0"
       id="path3126"
       style="fill:#000000" />
  </g>
  <path
     d="m 123,152.5 0,0.375 c 44.33009,32.72006 88.68274,65.42362 133,98.15625 44.31736,-32.73253 88.66988,-65.43623 133,-98.15625 l 0,-0.375 -266,0 z m 0,39.28125 0,141.09375 c 33.5993,-22.25261 67.21264,-44.49823 100.8125,-66.75 C 190.20925,241.34702 156.61028,216.55457 123,191.78125 z m 266,0 c -33.61028,24.77333 -67.20926,49.56578 -100.8125,74.34375 33.60002,22.26924 67.19972,44.53124 100.8125,66.78125 l 0,-141.125 z m -152.8125,83.4375 C 198.54403,300.33231 160.61153,325.10429 123,350.25 l 0,16.15625 266,0 0,-16.125 c -37.73381,-25.01763 -75.48598,-49.98084 -113.21875,-75 -6.58917,4.85946 -13.19282,9.70202 -19.78125,14.5625 -6.60513,-4.87279 -13.20663,-9.75322 -19.8125,-14.625 z"
     inkscape:connector-curvature="0"
     id="rect3049"
     style="fill:#ffffff;fill-opacity:1;stroke:none" />
</svg>
