<?xml version="1.0" encoding="UTF-8" standalone="no"?>
<!-- Created with Inkscape (http://www.inkscape.org/) -->

<svg
   xmlns:dc="http://purl.org/dc/elements/1.1/"
   xmlns:cc="http://creativecommons.org/ns#"
   xmlns:rdf="http://www.w3.org/1999/02/22-rdf-syntax-ns#"
   xmlns:svg="http://www.w3.org/2000/svg"
   xmlns="http://www.w3.org/2000/svg"
   xmlns:xlink="http://www.w3.org/1999/xlink"
   xmlns:inkscape="http://www.inkscape.org/namespaces/inkscape"
   version="1.1"
   width="100%"
   height="100%"
   viewBox="0 0 512 512"
   id="svg2">
  <metadata
     id="metadata70">
    <rdf:RDF>
      <cc:Work
         rdf:about="">
        <dc:format>image/svg+xml</dc:format>
        <dc:type
           rdf:resource="http://purl.org/dc/dcmitype/StillImage" />
        <dc:title />
      </cc:Work>
    </rdf:RDF>
  </metadata>
  <defs
     id="defs68">
    <filter
       color-interpolation-filters="sRGB"
       id="filter3174">
      <feGaussianBlur
         stdDeviation="1.71"
         id="feGaussianBlur3176" />
    </filter>
    <linearGradient
       x1="45.447727"
       y1="92.539597"
       x2="45.447727"
       y2="7.0165396"
       id="ButtonShadow"
       gradientUnits="userSpaceOnUse"
       gradientTransform="scale(1.0058652,0.994169)">
      <stop
         id="stop3750"
         style="stop-color:#000000;stop-opacity:1"
         offset="0" />
      <stop
         id="stop3752"
         style="stop-color:#000000;stop-opacity:0.58823532"
         offset="1" />
    </linearGradient>
    <linearGradient
       x1="45.447727"
       y1="92.539597"
       x2="45.447727"
       y2="7.0165396"
       id="linearGradient3330"
       xlink:href="#ButtonShadow"
       gradientUnits="userSpaceOnUse"
       gradientTransform="scale(1.0058652,0.994169)" />
    <clipPath
       id="clipPath4504">
      <path
         d="m 471.9456,253.05189 c 0,120.89699 -98.00565,218.90724 -218.90724,218.90724 -120.89698,0 -218.90723,-98.00566 -218.90723,-218.90724 0,-120.89698 98.00565,-218.907232 218.90723,-218.907232 120.89699,0 218.90724,98.005652 218.90724,218.907232"
         inkscape:connector-curvature="0"
         id="path4506"
         style="fill:#68af4c;fill-rule:evenodd" />
    </clipPath>
  </defs>
  <path
     d="m 471.9456,253.05189 c 0,120.89699 -98.00565,218.90724 -218.90724,218.90724 -120.89698,0 -218.90723,-98.00566 -218.90723,-218.90724 0,-120.89698 98.00565,-218.907232 218.90723,-218.907232 120.89699,0 218.90724,98.005652 218.90724,218.907232"
     inkscape:connector-curvature="0"
     id="path8"
     style="fill:#68af4c;fill-rule:evenodd" />
  <g
     clip-path="url(#clipPath4504)"
     id="g4298"
     style="opacity:0.25;fill:#000000;fill-opacity:1;stroke:none">
    <path
       d="m 178.5,116 c -34.5178,0 -62.5,27.9822 -62.5,62.5 l 388.90873,388.90873 c 0,-34.5178 27.9822,-62.5 62.5,-62.5 z"
       inkscape:connector-curvature="0"
       id="path4300"
       style="fill:#000000" />
    <path
       d="m 116,178.5 c 0,34.5178 27.9822,62.5 62.5,62.5 l 388.90873,388.90873 c -34.5178,0 -62.5,-27.9822 -62.5,-62.5 z"
       inkscape:connector-curvature="0"
       id="path4302"
       style="fill:#000000" />
    <path
       d="m 178.5,241 c 34.5178,0 62.5,-27.9822 62.5,-62.5 l 388.90873,388.90873 c 0,34.5178 -27.9822,62.5 -62.5,62.5 z"
       inkscape:connector-curvature="0"
       id="path4304"
       style="fill:#000000" />
    <path
       d="M 241,178.5 C 241,143.9822 213.0178,116 178.5,116 l 388.90873,388.90873 c 34.5178,0 62.5,27.9822 62.5,62.5 z"
       inkscape:connector-curvature="0"
       id="path4306"
       style="fill:#000000" />
    <path
       d="m 333.5,116 c -34.5178,0 -62.5,27.9822 -62.5,62.5 l 388.90873,388.90873 c 0,-34.5178 27.9822,-62.5 62.5,-62.5 z"
       inkscape:connector-curvature="0"
       id="path4308"
       style="fill:#000000" />
    <path
       d="m 271,178.5 c 0,16.35054 6.27855,31.23464 16.55624,42.37288 l 388.90873,388.90873 c -10.27769,-11.13824 -16.55624,-26.02234 -16.55624,-42.37288 z"
       inkscape:connector-curvature="0"
       id="path4310"
       style="fill:#000000" />
    <path
       d="M 287.55624,220.87288 C 298.97589,233.2487 315.33274,241 333.5,241 l 388.90873,388.90873 c -18.16726,0 -34.52411,-7.7513 -45.94376,-20.12712 z"
       inkscape:connector-curvature="0"
       id="path4312"
       style="fill:#000000" />
    <path
       d="m 333.5,241 c 34.5178,0 62.5,-27.9822 62.5,-62.5 l 388.90873,388.90873 c 0,34.5178 -27.9822,62.5 -62.5,62.5 z"
       inkscape:connector-curvature="0"
       id="path4314"
       style="fill:#000000" />
    <path
       d="m 396,178.5 c 0,-16.35054 -6.27855,-31.23464 -16.55624,-42.37288 l 388.90873,388.90873 c 10.27769,11.13824 16.55624,26.02234 16.55624,42.37288 z"
       inkscape:connector-curvature="0"
       id="path4316"
       style="fill:#000000" />
    <path
       d="M 379.44376,136.12712 C 368.02411,123.7513 351.66726,116 333.5,116 l 388.90873,388.90873 c 18.16726,0 34.52411,7.7513 45.94376,20.12712 z"
       inkscape:connector-curvature="0"
       id="path4318"
       style="fill:#000000" />
    <path
       d="m 178.5,271 c -34.5178,0 -62.5,27.9822 -62.5,62.5 l 388.90873,388.90873 c 0,-34.5178 27.9822,-62.5 62.5,-62.5 z"
       inkscape:connector-curvature="0"
       id="path4320"
       style="fill:#000000" />
    <path
       d="m 116,333.5 c 0,16.24367 6.19675,31.04001 16.35523,42.154 l 388.90873,388.90873 c -10.15848,-11.11399 -16.35523,-25.91033 -16.35523,-42.154 z"
       inkscape:connector-curvature="0"
       id="path4322"
       style="fill:#000000" />
    <path
       d="M 132.35523,375.654 C 143.78352,388.15724 160.22587,396 178.5,396 l 388.90873,388.90873 c -18.27413,0 -34.71648,-7.84276 -46.14477,-20.346 z"
       inkscape:connector-curvature="0"
       id="path4324"
       style="fill:#000000" />
    <path
       d="m 178.5,396 c 34.5178,0 62.5,-27.9822 62.5,-62.5 l 388.90873,388.90873 c 0,34.5178 -27.9822,62.5 -62.5,62.5 z"
       inkscape:connector-curvature="0"
       id="path4326"
       style="fill:#000000" />
    <path
       d="m 241,333.5 c 0,-16.24367 -6.19675,-31.04001 -16.35523,-42.154 L 613.5535,680.25473 c 10.15848,11.11399 16.35523,25.91033 16.35523,42.154 z"
       inkscape:connector-curvature="0"
       id="path4328"
       style="fill:#000000" />
    <path
       d="M 224.64477,291.346 C 213.21648,278.84276 196.77413,271 178.5,271 l 388.90873,388.90873 c 18.27413,0 34.71648,7.84276 46.14477,20.346 z"
       inkscape:connector-curvature="0"
       id="path4330"
       style="fill:#000000" />
    <path
       d="m 333.5,271 c -34.5178,0 -62.5,27.9822 -62.5,62.5 l 388.90873,388.90873 c 0,-34.5178 27.9822,-62.5 62.5,-62.5 z"
       inkscape:connector-curvature="0"
       id="path4332"
       style="fill:#000000" />
    <path
       d="m 271,333.5 c 0,34.5178 27.9822,62.5 62.5,62.5 l 388.90873,388.90873 c -34.5178,0 -62.5,-27.9822 -62.5,-62.5 z"
       inkscape:connector-curvature="0"
       id="path4334"
       style="fill:#000000" />
    <path
       d="m 333.5,396 c 34.5178,0 62.5,-27.9822 62.5,-62.5 l 388.90873,388.90873 c 0,34.5178 -27.9822,62.5 -62.5,62.5 z"
       inkscape:connector-curvature="0"
       id="path4336"
       style="fill:#000000" />
    <path
       d="M 396,333.5 C 396,298.9822 368.0178,271 333.5,271 l 388.90873,388.90873 c 34.5178,0 62.5,27.9822 62.5,62.5 z"
       inkscape:connector-curvature="0"
       id="path4338"
       style="fill:#000000" />
  </g>
  <path
     d="M 256,1 C 115.17,1 1,115.17 1,256 1,396.83 115.17,511 256,511 396.83,511 511,396.83 511,256 511,115.17 396.83,1 256,1 m 8.827,44.931 c 120.9,0 218.9,98 218.9,218.9 0,120.9 -98,218.9 -218.9,218.9 -120.9,0 -218.93,-98 -218.93,-218.9 0,-120.9 98.03,-218.9 218.93,-218.9"
     inkscape:connector-curvature="0"
     id="path10"
     style="fill-opacity:0.06700003;fill-rule:evenodd" />
  <path
     d="M 256,4.43 C 117.06,4.43 4.43,117.06 4.43,256 4.43,394.94 117.06,507.57 256,507.57 394.94,507.57 507.57,394.94 507.57,256 507.57,117.06 394.94,4.43 256,4.43 m 5.885,38.556 c 120.9,0 218.9,98 218.9,218.9 0,120.9 -98,218.9 -218.9,218.9 -120.9,0 -218.93,-98 -218.93,-218.9 0,-120.9 98.03,-218.9 218.93,-218.9"
     inkscape:connector-curvature="0"
     id="path14"
     style="fill-opacity:0.12900002;fill-rule:evenodd" />
  <path
     d="M 256,8.36 C 119.23,8.36 8.36,119.23 8.36,256 8.36,392.77 119.23,503.64 256,503.64 392.77,503.64 503.64,392.77 503.64,256 503.64,119.23 392.77,8.36 256,8.36 m 2.942,31.691 c 120.9,0 218.9,98 218.9,218.9 0,120.9 -98,218.9 -218.9,218.9 -120.9,0 -218.93,-98 -218.93,-218.9 0,-120.9 98.03,-218.9 218.93,-218.9"
     inkscape:connector-curvature="0"
     id="path16"
     style="fill-opacity:0.12900002;fill-rule:evenodd" />
  <path
     d="M 253.04,7.86 C 117.62,7.86 7.85,117.64 7.85,253.05 c 0,135.42 109.78,245.19 245.19,245.19 135.42,0 245.19,-109.78 245.19,-245.19 C 498.23,117.63 388.45,7.86 253.04,7.86 z m 0,26.297 c 120.9,0 218.9,98 218.9,218.9 0,120.9 -98,218.9 -218.9,218.9 -120.9,0 -218.93,-98 -218.93,-218.9 0,-120.9 98.03,-218.9 218.93,-218.9 z"
     inkscape:connector-curvature="0"
     id="path18"
     style="fill:#ffffff;fill-rule:evenodd;stroke:#000000;stroke-width:4.90399981;stroke-opacity:0.31000001" />
  <text
     x="729.64001"
     y="231.35997"
     id="text20"
     style="font-size:129.22999573px;line-height:125%;letter-spacing:0;word-spacing:0;font-family:Gentium Book Basic">
    <tspan
       x="729.64001"
       y="231.35997"
       id="tspan22" />
  </text>
  <text
     x="378.90805"
     y="579.25812"
     transform="scale(4.0128205,0.24920128)"
     id="text24"
     style="font-size:46.95375824px;text-anchor:middle;font-family:Arial" />
  <text
     x="1310.91"
     y="151.35997"
     id="text26"
     style="font-size:129.22999573px;line-height:125%;letter-spacing:0;word-spacing:0;font-family:Gentium Book Basic">
    <tspan
       x="1310.91"
       y="151.35997"
       id="tspan28" />
  </text>
  <text
     x="523.75732"
     y="258.21997"
     transform="scale(4.0128205,0.24920128)"
     id="text30"
     style="font-size:46.95375824px;text-anchor:middle;font-family:Arial" />
  <text
     x="239.33"
     y="-29.900009"
     id="text32"
     style="font-size:129.22999573px;line-height:125%;letter-spacing:0;word-spacing:0;font-family:Gentium Book Basic">
    <tspan
       x="239.33"
       y="-29.900009"
       id="tspan34" />
  </text>
  <text
     x="256.71869"
     y="-469.1264"
     transform="scale(4.0128205,0.24920128)"
     id="text36"
     style="font-size:46.95375824px;text-anchor:middle;font-family:Arial" />
  <text
     x="1337.38"
     y="-246.37001"
     id="text38"
     style="font-size:129.22999573px;line-height:125%;letter-spacing:0;word-spacing:0;font-family:Gentium Book Basic">
    <tspan
       x="1337.38"
       y="-246.37001"
       id="tspan40" />
  </text>
  <text
     x="530.3573"
     y="-1337.802"
     transform="scale(4.0128205,0.24920128)"
     id="text42"
     style="font-size:46.95375824px;text-anchor:middle;font-family:Arial" />
  <text
     x="1918.65"
     y="-326.37"
     id="text44"
     style="font-size:129.22999573px;line-height:125%;letter-spacing:0;word-spacing:0;font-family:Gentium Book Basic">
    <tspan
       x="1918.65"
       y="-326.37"
       id="tspan46" />
  </text>
  <text
     x="675.20654"
     y="-1658.8303"
     transform="scale(4.0128205,0.24920128)"
     id="text48"
     style="font-size:46.95375824px;text-anchor:middle;font-family:Arial" />
  <text
     x="1529.53"
     y="-798.77002"
     id="text50"
     style="font-size:129.22999573px;line-height:125%;letter-spacing:0;word-spacing:0;font-family:Gentium Book Basic">
    <tspan
       x="1529.53"
       y="-798.77002"
       id="tspan52" />
  </text>
  <text
     x="578.237"
     y="-3554.4807"
     transform="scale(4.0128205,0.24920128)"
     id="text54"
     style="font-size:46.95375824px;text-anchor:middle;font-family:Arial" />
  <text
     x="2110.79"
     y="-878.78003"
     id="text56"
     style="font-size:129.22999573px;line-height:125%;letter-spacing:0;word-spacing:0;font-family:Gentium Book Basic">
    <tspan
       x="2110.79"
       y="-878.78003"
       id="tspan58" />
  </text>
  <text
     x="723.0863"
     y="-3875.519"
     transform="scale(4.0128205,0.24920128)"
     id="text60"
     style="font-size:46.95375824px;text-anchor:middle;font-family:Arial" />
  <text
     x="277.98999"
     y="535.94006"
     id="text62"
     style="font-size:208.33000183px;line-height:125%;letter-spacing:0;word-spacing:0;font-family:Gentium Book Basic">
    <tspan
       x="277.98999"
       y="535.94006"
       id="tspan64" />
  </text>
  <rect
     width="86"
     height="85"
     rx="6"
     ry="6"
     x="5"
     y="7"
     transform="matrix(4.6212789,0,0,4.6212789,-566.77054,-7.4651747)"
     id="rect3745"
     style="opacity:0.9;fill:url(#linearGradient3330);fill-opacity:1;fill-rule:nonzero;stroke:none;display:none;filter:url(#filter3174)" />
  <g
     transform="translate(-12.861218,5.1311943)"
     id="g4157">
    <path
       d="m 159.54247,226.66444 a 55.226238,55.226238 0 1 1 -110.452477,0 55.226238,55.226238 0 1 1 110.452477,0 z"
       inkscape:connector-curvature="0"
       transform="matrix(1.1317084,0,0,1.1317084,228.30566,71.850748)"
       id="path4149"
       style="fill:#ffffff;fill-opacity:1;stroke:none" />
    <path
       d="m 159.54247,226.66444 a 55.226238,55.226238 0 1 1 -110.452477,0 55.226238,55.226238 0 1 1 110.452477,0 z"
       inkscape:connector-curvature="0"
       transform="matrix(1.1317084,0,0,1.1317084,73.305667,-83.149247)"
       id="path4151"
       style="fill:#ffffff;fill-opacity:1;stroke:none" />
    <path
       d="m 159.54247,226.66444 a 55.226238,55.226238 0 1 1 -110.452477,0 55.226238,55.226238 0 1 1 110.452477,0 z"
       inkscape:connector-curvature="0"
       transform="matrix(1.1317084,0,0,1.1317084,228.30566,-83.149247)"
       id="path4153"
       style="fill:#282629;fill-opacity:1;stroke:none" />
    <path
       d="m 159.54247,226.66444 a 55.226238,55.226238 0 1 1 -110.452477,0 55.226238,55.226238 0 1 1 110.452477,0 z"
       inkscape:connector-curvature="0"
       transform="matrix(1.1317084,0,0,1.1317084,73.305667,71.850748)"
       id="path4155"
       style="fill:#282629;fill-opacity:1;stroke:none" />
  </g>
</svg>
