<?xml version="1.0" encoding="UTF-8" standalone="no"?>
<svg
   xmlns:dc="http://purl.org/dc/elements/1.1/"
   xmlns:cc="http://creativecommons.org/ns#"
   xmlns:rdf="http://www.w3.org/1999/02/22-rdf-syntax-ns#"
   xmlns:svg="http://www.w3.org/2000/svg"
   xmlns="http://www.w3.org/2000/svg"
   xmlns:xlink="http://www.w3.org/1999/xlink"
   xmlns:sodipodi="http://sodipodi.sourceforge.net/DTD/sodipodi-0.dtd"
   xmlns:inkscape="http://www.inkscape.org/namespaces/inkscape"
   viewBox="0 0 512 512"
   id="svg2"
   version="1.1"
   inkscape:version="0.48.5 r10040"
   width="100%"
   height="100%"
   sodipodi:docname="a base.svg">
  <sodipodi:namedview
     pagecolor="#ffffff"
     bordercolor="#666666"
     borderopacity="1"
     objecttolerance="10"
     gridtolerance="10"
     guidetolerance="10"
     inkscape:pageopacity="0"
     inkscape:pageshadow="2"
     inkscape:window-width="1309"
     inkscape:window-height="706"
     id="namedview66"
     showgrid="false"
     inkscape:zoom="0.4609375"
     inkscape:cx="368.97079"
     inkscape:cy="255.59208"
     inkscape:window-x="53"
     inkscape:window-y="26"
     inkscape:window-maximized="1"
     inkscape:current-layer="svg2" />
  <metadata
     id="metadata70">
    <rdf:RDF>
      <cc:Work
         rdf:about="">
        <dc:format>image/svg+xml</dc:format>
        <dc:type
           rdf:resource="http://purl.org/dc/dcmitype/StillImage" />
        <dc:title></dc:title>
      </cc:Work>
    </rdf:RDF>
  </metadata>
  <defs
     id="defs68">
    <clipPath
       id="clipPath-304821512">
      <g
         transform="translate(0,-1004.3622)"
         id="g3024">
        <path
           d="m -24 13 c 0 1.105 -0.672 2 -1.5 2 -0.828 0 -1.5 -0.895 -1.5 -2 0 -1.105 0.672 -2 1.5 -2 0.828 0 1.5 0.895 1.5 2 z"
           transform="matrix(15.333333,0,0,11.5,414.99999,878.8622)"
           fill="#1890d0"
           id="path3026" />
      </g>
    </clipPath>
    <clipPath
       id="clipPath-296880936">
      <g
         transform="translate(0,-1004.3622)"
         id="g3019">
        <path
           d="m -24 13 c 0 1.105 -0.672 2 -1.5 2 -0.828 0 -1.5 -0.895 -1.5 -2 0 -1.105 0.672 -2 1.5 -2 0.828 0 1.5 0.895 1.5 2 z"
           transform="matrix(15.333333,0,0,11.5,414.99999,878.8622)"
           fill="#1890d0"
           id="path3021" />
      </g>
    </clipPath>
    <linearGradient
       id="linearGradient3764"
       x1="1"
       x2="47"
       gradientUnits="userSpaceOnUse"
       gradientTransform="matrix(0,-1,1,0,-1.5e-6,47.999998)">
      <stop
         stop-color="#ea791e"
         stop-opacity="1"
         id="stop3014" />
      <stop
         offset="1"
         stop-color="#ec8430"
         stop-opacity="1"
         id="stop3016" />
    </linearGradient>
    <linearGradient
       x2="47"
       x1="1"
       gradientTransform="matrix(0,-1,1,0,-1.5e-6,47.999998)"
       gradientUnits="userSpaceOnUse"
       id="linearGradient3128"
       xlink:href="#linearGradient3764"
       inkscape:collect="always" />
    <linearGradient
       x2="47"
       x1="1"
       gradientTransform="matrix(0,-12.170573,12.170573,0,-651.79402,570.21182)"
       gradientUnits="userSpaceOnUse"
       id="linearGradient3131"
       xlink:href="#linearGradient3764"
       inkscape:collect="always" />
    <clipPath
       clipPathUnits="userSpaceOnUse"
       id="clipPath3303">
      <path
         d="m 471.9456,253.05189 c 0,120.89699 -98.00565,218.90724 -218.90724,218.90724 -120.89698,0 -218.90723,-98.00566 -218.90723,-218.90724 0,-120.89698 98.00565,-218.907232 218.90723,-218.907232 120.89699,0 218.90724,98.005652 218.90724,218.907232"
         id="path3305"
         inkscape:connector-curvature="0"
         style="fill:#f38725;fill-rule:evenodd" />
    </clipPath>
  </defs>
  <path
     style="fill:#f38725;fill-rule:evenodd"
     inkscape:connector-curvature="0"
     id="path8"
     d="m 471.9456,253.05189 c 0,120.89699 -98.00565,218.90724 -218.90724,218.90724 -120.89698,0 -218.90723,-98.00566 -218.90723,-218.90724 0,-120.89698 98.00565,-218.907232 218.90723,-218.907232 120.89699,0 218.90724,98.005652 218.90724,218.907232" />
  <path
     style="fill-opacity:0.06700003;fill-rule:evenodd"
     inkscape:connector-curvature="0"
     id="path10"
     d="M 256,1 C 115.17,1 1,115.17 1,256 1,396.83 115.17,511 256,511 396.83,511 511,396.83 511,256 511,115.17 396.83,1 256,1 m 8.827,44.931 c 120.9,0 218.9,98 218.9,218.9 0,120.9 -98,218.9 -218.9,218.9 -120.9,0 -218.93,-98 -218.93,-218.9 0,-120.9 98.03,-218.9 218.93,-218.9" />
  <path
     d="M 256,4.43 C 117.06,4.43 4.43,117.06 4.43,256 4.43,394.94 117.06,507.57 256,507.57 394.94,507.57 507.57,394.94 507.57,256 507.57,117.06 394.94,4.43 256,4.43 m 5.885,38.556 c 120.9,0 218.9,98 218.9,218.9 0,120.9 -98,218.9 -218.9,218.9 -120.9,0 -218.93,-98 -218.93,-218.9 0,-120.9 98.03,-218.9 218.93,-218.9"
     id="path14"
     inkscape:connector-curvature="0"
     style="fill-opacity:0.12900002;fill-rule:evenodd" />
  <path
     d="M 256,8.36 C 119.23,8.36 8.36,119.23 8.36,256 8.36,392.77 119.23,503.64 256,503.64 392.77,503.64 503.64,392.77 503.64,256 503.64,119.23 392.77,8.36 256,8.36 m 2.942,31.691 c 120.9,0 218.9,98 218.9,218.9 0,120.9 -98,218.9 -218.9,218.9 -120.9,0 -218.93,-98 -218.93,-218.9 0,-120.9 98.03,-218.9 218.93,-218.9"
     id="path16"
     inkscape:connector-curvature="0"
     style="fill-opacity:0.12900002;fill-rule:evenodd" />
  <path
     style="fill:#ffffff;fill-rule:evenodd;stroke:#000000;stroke-width:4.90399981;stroke-opacity:0.31000001"
     inkscape:connector-curvature="0"
     id="path18"
     d="M 253.04,7.86 C 117.62,7.86 7.85,117.64 7.85,253.05 c 0,135.42 109.78,245.19 245.19,245.19 135.42,0 245.19,-109.78 245.19,-245.19 C 498.23,117.63 388.45,7.86 253.04,7.86 z m 0,26.297 c 120.9,0 218.9,98 218.9,218.9 0,120.9 -98,218.9 -218.9,218.9 -120.9,0 -218.93,-98 -218.93,-218.9 0,-120.9 98.03,-218.9 218.93,-218.9 z" />
  <text
     font-size="129.23"
     letter-spacing="0"
     line-height="125%"
     word-spacing="0"
     x="729.64001"
     y="231.35997"
     id="text20"
     sodipodi:linespacing="125%"
     style="font-size:129.22999573px;line-height:125%;letter-spacing:0;word-spacing:0;font-family:Gentium Book Basic">
    <tspan
       x="729.64001"
       y="231.35997"
       id="tspan22" />
  </text>
  <text
     x="378.90805"
     y="579.25812"
     font-size="46.954"
     transform="scale(4.0128205,0.24920128)"
     id="text24"
     style="font-size:46.95375824px;text-anchor:middle;font-family:Arial" />
  <text
     font-size="129.23"
     letter-spacing="0"
     line-height="125%"
     word-spacing="0"
     x="1310.91"
     y="151.35997"
     id="text26"
     sodipodi:linespacing="125%"
     style="font-size:129.22999573px;line-height:125%;letter-spacing:0;word-spacing:0;font-family:Gentium Book Basic">
    <tspan
       x="1310.91"
       y="151.35997"
       id="tspan28" />
  </text>
  <text
     x="523.75732"
     y="258.21997"
     font-size="46.954"
     transform="scale(4.0128205,0.24920128)"
     id="text30"
     style="font-size:46.95375824px;text-anchor:middle;font-family:Arial" />
  <text
     font-size="129.23"
     letter-spacing="0"
     line-height="125%"
     word-spacing="0"
     x="239.33"
     y="-29.900009"
     id="text32"
     sodipodi:linespacing="125%"
     style="font-size:129.22999573px;line-height:125%;letter-spacing:0;word-spacing:0;font-family:Gentium Book Basic">
    <tspan
       x="239.33"
       y="-29.900009"
       id="tspan34" />
  </text>
  <text
     x="256.71869"
     y="-469.1264"
     font-size="46.954"
     transform="scale(4.0128205,0.24920128)"
     id="text36"
     style="font-size:46.95375824px;text-anchor:middle;font-family:Arial" />
  <text
     font-size="129.23"
     letter-spacing="0"
     line-height="125%"
     word-spacing="0"
     x="1337.38"
     y="-246.37001"
     id="text38"
     sodipodi:linespacing="125%"
     style="font-size:129.22999573px;line-height:125%;letter-spacing:0;word-spacing:0;font-family:Gentium Book Basic">
    <tspan
       x="1337.38"
       y="-246.37001"
       id="tspan40" />
  </text>
  <text
     x="530.3573"
     y="-1337.802"
     font-size="46.954"
     transform="scale(4.0128205,0.24920128)"
     id="text42"
     style="font-size:46.95375824px;text-anchor:middle;font-family:Arial" />
  <text
     font-size="129.23"
     letter-spacing="0"
     line-height="125%"
     word-spacing="0"
     x="1918.65"
     y="-326.37"
     id="text44"
     sodipodi:linespacing="125%"
     style="font-size:129.22999573px;line-height:125%;letter-spacing:0;word-spacing:0;font-family:Gentium Book Basic">
    <tspan
       x="1918.65"
       y="-326.37"
       id="tspan46" />
  </text>
  <text
     x="675.20654"
     y="-1658.8303"
     font-size="46.954"
     transform="scale(4.0128205,0.24920128)"
     id="text48"
     style="font-size:46.95375824px;text-anchor:middle;font-family:Arial" />
  <text
     font-size="129.23"
     letter-spacing="0"
     line-height="125%"
     word-spacing="0"
     x="1529.53"
     y="-798.77002"
     id="text50"
     sodipodi:linespacing="125%"
     style="font-size:129.22999573px;line-height:125%;letter-spacing:0;word-spacing:0;font-family:Gentium Book Basic">
    <tspan
       x="1529.53"
       y="-798.77002"
       id="tspan52" />
  </text>
  <text
     x="578.237"
     y="-3554.4807"
     font-size="46.954"
     transform="scale(4.0128205,0.24920128)"
     id="text54"
     style="font-size:46.95375824px;text-anchor:middle;font-family:Arial" />
  <text
     font-size="129.23"
     letter-spacing="0"
     line-height="125%"
     word-spacing="0"
     x="2110.79"
     y="-878.78003"
     id="text56"
     sodipodi:linespacing="125%"
     style="font-size:129.22999573px;line-height:125%;letter-spacing:0;word-spacing:0;font-family:Gentium Book Basic">
    <tspan
       x="2110.79"
       y="-878.78003"
       id="tspan58" />
  </text>
  <text
     x="723.0863"
     y="-3875.519"
     font-size="46.954"
     transform="scale(4.0128205,0.24920128)"
     id="text60"
     style="font-size:46.95375824px;text-anchor:middle;font-family:Arial" />
  <text
     font-size="208.33"
     letter-spacing="0"
     line-height="125%"
     word-spacing="0"
     x="277.98999"
     y="535.94006"
     id="text62"
     sodipodi:linespacing="125%"
     style="font-size:208.33000183px;line-height:125%;letter-spacing:0;word-spacing:0;font-family:Gentium Book Basic">
    <tspan
       x="277.98999"
       y="535.94006"
       id="tspan64" />
  </text>
  <g
     style="fill:#000000;fill-opacity:1;fill-rule:nonzero;stroke:none;opacity:0.25"
     id="g3188"
     clip-path="url(#clipPath3303)">
    <path
       inkscape:connector-curvature="0"
       d="m 120.38286,220.48997 c -5.76944,-44.45196 24.88356,-100.79487 73.4241,-100.79487 l 388.90873,388.90873 c -48.54054,0 -79.19354,56.34291 -73.4241,100.79487 z"
       id="path3190"
       style="fill:#000000" />
    <path
       inkscape:connector-curvature="0"
       d="m 193.80696,119.6951 c 27.28127,0 44.64964,6.35578 54.99713,16.70326 l 388.90872,388.90873 c -10.34748,-10.34748 -27.71585,-16.70326 -54.99712,-16.70326 z"
       id="path3192"
       style="fill:#000000" />
    <path
       inkscape:connector-curvature="0"
       d="m 248.80409,136.39836 c 43.31289,43.3129 -36.38885,156.56547 -27.00171,166.3743 l 388.90873,388.90873 c -9.38714,-9.80883 70.3146,-123.0614 27.0017,-166.3743 z"
       id="path3194"
       style="fill:#000000" />
    <path
       inkscape:connector-curvature="0"
       d="m 221.80238,302.77266 c 0,0 0,0 0,0 l 388.90873,388.90873 c 0,0 0,0 0,0 z"
       id="path3196"
       style="fill:#000000" />
    <path
       inkscape:connector-curvature="0"
       d="m 221.80238,302.77266 c 11.35717,11.35717 31.62972,-7.09823 45.16746,-27.72285 l 388.90873,388.90873 c -13.53774,20.62462 -33.81029,39.08002 -45.16746,27.72285 z"
       id="path3198"
       style="fill:#000000" />
    <path
       inkscape:connector-curvature="0"
       d="m 266.96984,275.04981 c 11.58432,-18.0579 21.06755,-37.21744 42.32817,-26.79156 l 388.90873,388.90873 c -21.26062,-10.42588 -30.74385,8.73366 -42.32817,26.79156 z"
       id="path3200"
       style="fill:#000000" />
    <path
       inkscape:connector-curvature="0"
       d="m 309.29801,248.25825 c 4.76819,2.34752 8.58224,5.13026 11.72851,8.27654 l 388.90873,388.90873 c -3.14627,-3.14628 -6.96032,-5.92902 -11.72851,-8.27654 z"
       id="path3202"
       style="fill:#000000" />
    <path
       inkscape:connector-curvature="0"
       d="m 321.02652,256.53479 c 12.4862,12.48619 14.4555,30.69802 23.80808,50.15609 l 388.90873,388.90873 c -9.35258,-19.45807 -11.32188,-37.6699 -23.80808,-50.15609 z"
       id="path3204"
       style="fill:#000000" />
    <path
       inkscape:connector-curvature="0"
       d="m 344.8346,306.69088 c 8.51063,17.67338 17.14125,29.55096 25.7872,38.19692 l 388.90873,388.90873 c -8.64596,-8.64596 -17.27657,-20.52354 -25.7872,-38.19692 z"
       id="path3206"
       style="fill:#000000" />
    <path
       inkscape:connector-curvature="0"
       d="m 370.6218,344.8878 c 3.24948,3.24948 6.50113,6.04247 9.74938,8.51512 l 388.90873,388.90873 c -3.24826,-2.47265 -6.4999,-5.26564 -9.74938,-8.51512 z"
       id="path3208"
       style="fill:#000000" />
    <path
       inkscape:connector-curvature="0"
       d="m 380.37118,353.40292 c 37.4477,40.76546 -22.72106,50.85035 -49.78734,23.78407 l 388.90873,388.90873 c 27.06628,27.06628 87.23504,16.98139 49.78734,-23.78407 z"
       id="path3210"
       style="fill:#000000" />
    <path
       inkscape:connector-curvature="0"
       d="m 330.58384,377.18699 c -2.30439,-2.30439 -4.36883,-4.87806 -6.11265,-7.72503 l 388.90873,388.90873 c 1.74382,2.84697 3.80826,5.42064 6.11265,7.72503 z"
       id="path3212"
       style="fill:#000000" />
    <path
       inkscape:connector-curvature="0"
       d="m 324.47119,369.46196 c -10.57137,-14.83109 -13.9313,-27.65913 -18.66788,-32.39572 l 388.90873,388.90873 c 4.73658,4.73659 8.09651,17.56463 18.66788,32.39572 z"
       id="path3214"
       style="fill:#000000" />
    <path
       inkscape:connector-curvature="0"
       d="m 305.80331,337.06624 c -5.61886,-5.61886 -13.17499,0.14882 -37.00496,27.4667 l 388.90873,388.90873 c 23.82997,-27.31788 31.3861,-33.08556 37.00496,-27.4667 z"
       id="path3216"
       style="fill:#000000" />
    <path
       inkscape:connector-curvature="0"
       d="m 268.79835,364.53294 c -30.3352,37.87322 -60.37274,33.16351 -85.49436,8.04189 l 388.90873,388.90873 c 25.12162,25.12162 55.15916,29.83133 85.49436,-8.04189 z"
       id="path3218"
       style="fill:#000000" />
    <path
       inkscape:connector-curvature="0"
       d="m 183.30399,372.57483 c -32.52322,-32.52322 -56.80702,-99.2582 -62.83027,-152.09622 l 388.90873,388.90873 c 6.02325,52.83802 30.30705,119.573 62.83027,152.09622 z"
       id="path3220"
       style="fill:#000000" />
  </g>
  <path
     id="path3060"
     d="m 120.38286,220.48997 c -5.76944,-44.45196 24.88356,-100.79487 73.4241,-100.79487 141.47626,0 16.36568,170.92539 27.99542,183.07756 11.35717,11.35717 31.62972,-7.09823 45.16746,-27.72285 11.58432,-18.0579 21.06755,-37.21744 42.32817,-26.79156 23.69106,11.66381 23.82734,34.07151 35.53659,58.43263 11.70924,24.3157 23.64562,37.66037 35.53658,46.71204 40.63595,44.23617 -33.67401,52.34519 -55.89999,16.05904 -23.11184,-32.42472 -11.75467,-55.27535 -55.67284,-4.92902 C 199.19026,451.438 131.14946,314.12983 120.47372,220.47861 m 0.0454,0"
     inkscape:connector-curvature="0"
     style="fill:#ffffff;fill-opacity:1;fill-rule:nonzero;stroke:none" />
</svg>
