<?xml version="1.0" encoding="UTF-8" standalone="no"?>
<!-- Created with Inkscape (http://www.inkscape.org/) -->

<svg
   xmlns:dc="http://purl.org/dc/elements/1.1/"
   xmlns:cc="http://creativecommons.org/ns#"
   xmlns:rdf="http://www.w3.org/1999/02/22-rdf-syntax-ns#"
   xmlns:svg="http://www.w3.org/2000/svg"
   xmlns="http://www.w3.org/2000/svg"
   xmlns:inkscape="http://www.inkscape.org/namespaces/inkscape"
   version="1.1"
   width="100%"
   height="100%"
   viewBox="0 0 512 512"
   id="svg2">
  <metadata
     id="metadata72">
    <rdf:RDF>
      <cc:Work
         rdf:about="">
        <dc:format>image/svg+xml</dc:format>
        <dc:type
           rdf:resource="http://purl.org/dc/dcmitype/StillImage" />
      </cc:Work>
    </rdf:RDF>
  </metadata>
  <defs
     id="defs70">
    <clipPath
       id="clipPath3476">
      <path
         d="m 471.95,253.05 c 0,120.9 -98.01,218.9 -218.9,218.9 -120.9,0 -218.9,-98.01 -218.9,-218.9 0,-120.9 98.01,-218.9 218.9,-218.9 120.9,0 218.9,98.01 218.9,218.9"
         inkscape:connector-curvature="0"
         id="path3478"
         style="fill:#68af4c;fill-opacity:1;fill-rule:evenodd" />
    </clipPath>
  </defs>
  <path
     d="m 471.95,253.05 c 0,120.9 -98.01,218.9 -218.9,218.9 -120.9,0 -218.9,-98.01 -218.9,-218.9 0,-120.9 98.01,-218.9 218.9,-218.9 120.9,0 218.9,98.01 218.9,218.9"
     inkscape:connector-curvature="0"
     id="path6"
     style="fill:#68af4c;fill-opacity:1;fill-rule:evenodd" />
  <path
     d="M 256,1 C 115.17,1 1,115.17 1,256 1,396.83 115.17,511 256,511 396.83,511 511,396.83 511,256 511,115.17 396.83,1 256,1 m 8.827,44.931 c 120.9,0 218.9,98 218.9,218.9 0,120.9 -98,218.9 -218.9,218.9 -120.9,0 -218.93,-98 -218.93,-218.9 0,-120.9 98.03,-218.9 218.93,-218.9"
     inkscape:connector-curvature="0"
     id="path10"
     style="fill-opacity:0.06700003;fill-rule:evenodd" />
  <path
     d="m 256,4.433 c -138.94,0 -251.57,112.63 -251.57,251.57 0,138.94 112.63,251.57 251.57,251.57 138.94,0 251.57,-112.63 251.57,-251.57 C 507.57,117.063 394.94,4.433 256,4.433 m 5.885,38.556 c 120.9,0 218.9,98 218.9,218.9 0,120.9 -98,218.9 -218.9,218.9 -120.9,0 -218.93,-98 -218.93,-218.9 0,-120.9 98.03,-218.9 218.93,-218.9"
     inkscape:connector-curvature="0"
     id="path14"
     style="fill-opacity:0.12900002;fill-rule:evenodd" />
  <path
     d="m 256,8.356 c -136.77,0 -247.64,110.87 -247.64,247.64 0,136.77 110.87,247.64 247.64,247.64 136.77,0 247.64,-110.87 247.64,-247.64 C 503.64,119.226 392.77,8.356 256,8.356 m 2.942,31.691 c 120.9,0 218.9,98 218.9,218.9 0,120.9 -98,218.9 -218.9,218.9 -120.9,0 -218.93,-98 -218.93,-218.9 0,-120.9 98.03,-218.9 218.93,-218.9"
     inkscape:connector-curvature="0"
     id="path16"
     style="fill-opacity:0.12900002;fill-rule:evenodd" />
  <path
     d="m 253.04,7.859 c -135.42,0 -245.19,109.78 -245.19,245.19 0,135.42 109.78,245.19 245.19,245.19 135.42,0 245.19,-109.78 245.19,-245.19 0,-135.42 -109.78,-245.19 -245.19,-245.19 z m 0,26.297 c 120.9,0 218.9,98 218.9,218.9 0,120.9 -98,218.9 -218.9,218.9 -120.9,0 -218.93,-98 -218.93,-218.9 0,-120.9 98.03,-218.9 218.93,-218.9 z"
     inkscape:connector-curvature="0"
     id="path18"
     style="fill:#ffffff;fill-rule:evenodd;stroke:#000000;stroke-width:4.90399981;stroke-opacity:0.31000001" />
  <text
     x="729.64001"
     y="231.36"
     id="text20"
     style="font-size:129.22999573px;line-height:125%;letter-spacing:0;word-spacing:0;font-family:Gentium Book Basic">
    <tspan
       x="729.64001"
       y="231.36"
       id="tspan22" />
  </text>
  <text
     x="378.91"
     y="579.25"
     transform="scale(4.0128,0.2492)"
     id="text24"
     style="font-size:46.95399857px;text-anchor:middle;font-family:Arial" />
  <text
     x="1310.91"
     y="151.36"
     id="text26"
     style="font-size:129.22999573px;line-height:125%;letter-spacing:0;word-spacing:0;font-family:Gentium Book Basic">
    <tspan
       x="1310.91"
       y="151.36"
       id="tspan28" />
  </text>
  <text
     x="523.76001"
     y="258.22"
     transform="scale(4.0128,0.2492)"
     id="text30"
     style="font-size:46.95399857px;text-anchor:middle;font-family:Arial" />
  <text
     x="239.33"
     y="-29.900999"
     id="text32"
     style="font-size:129.22999573px;line-height:125%;letter-spacing:0;word-spacing:0;font-family:Gentium Book Basic">
    <tspan
       x="239.33"
       y="-29.900999"
       id="tspan34" />
  </text>
  <text
     x="256.72"
     y="-469.14001"
     transform="scale(4.0128,0.2492)"
     id="text36"
     style="font-size:46.95399857px;text-anchor:middle;font-family:Arial" />
  <text
     x="1337.38"
     y="-246.37"
     id="text38"
     style="font-size:129.22999573px;line-height:125%;letter-spacing:0;word-spacing:0;font-family:Gentium Book Basic">
    <tspan
       x="1337.38"
       y="-246.37"
       id="tspan40" />
  </text>
  <text
     x="530.35999"
     y="-1337.8101"
     transform="scale(4.0128,0.2492)"
     id="text42"
     style="font-size:46.95399857px;text-anchor:middle;font-family:Arial" />
  <text
     x="1918.65"
     y="-326.38"
     id="text44"
     style="font-size:129.22999573px;line-height:125%;letter-spacing:0;word-spacing:0;font-family:Gentium Book Basic">
    <tspan
       x="1918.65"
       y="-326.38"
       id="tspan46" />
  </text>
  <text
     x="675.21002"
     y="-1658.85"
     transform="scale(4.0128,0.2492)"
     id="text48"
     style="font-size:46.95399857px;text-anchor:middle;font-family:Arial" />
  <text
     x="1529.53"
     y="-798.78003"
     id="text50"
     style="font-size:129.22999573px;line-height:125%;letter-spacing:0;word-spacing:0;font-family:Gentium Book Basic">
    <tspan
       x="1529.53"
       y="-798.78003"
       id="tspan52" />
  </text>
  <text
     x="578.23999"
     y="-3554.51"
     transform="scale(4.0128,0.2492)"
     id="text54"
     style="font-size:46.95399857px;text-anchor:middle;font-family:Arial" />
  <text
     x="2110.79"
     y="-878.78003"
     id="text56"
     style="font-size:129.22999573px;line-height:125%;letter-spacing:0;word-spacing:0;font-family:Gentium Book Basic">
    <tspan
       x="2110.79"
       y="-878.78003"
       id="tspan58" />
  </text>
  <text
     x="723.09003"
     y="-3875.54"
     transform="scale(4.0128,0.2492)"
     id="text60"
     style="font-size:46.95399857px;text-anchor:middle;font-family:Arial" />
  <text
     x="277.98999"
     y="535.94"
     id="text62"
     style="font-size:208.33000183px;line-height:125%;letter-spacing:0;word-spacing:0;font-family:Gentium Book Basic">
    <tspan
       x="277.98999"
       y="535.94"
       id="tspan64" />
  </text>
  <g
     clip-path="url(#clipPath3476)"
     id="g3270"
     style="opacity:0.25;fill:#000000">
    <path
       d="m 308.5625,110.625 -85.59375,0.34375 388.90873,388.90873 85.59375,-0.34375 z"
       inkscape:connector-curvature="0"
       id="path3272"
       style="fill:#000000" />
    <path
       d="m 222.96875,110.96875 -5.21875,0 388.90873,388.90873 5.21875,0 z"
       inkscape:connector-curvature="0"
       id="path3274"
       style="fill:#000000" />
    <path
       d="m 217.75,110.96875 2.625,4.46875 388.90873,388.90873 -2.625,-4.46875 z"
       inkscape:connector-curvature="0"
       id="path3276"
       style="fill:#000000" />
    <path
       d="m 220.375,115.4375 99.0625,171.5 388.90873,388.90873 -99.0625,-171.5 z"
       inkscape:connector-curvature="0"
       id="path3278"
       style="fill:#000000" />
    <path
       d="m 319.4375,286.9375 0.84375,1.5625 388.90873,388.90873 -0.84375,-1.5625 z"
       inkscape:connector-curvature="0"
       id="path3280"
       style="fill:#000000" />
    <path
       d="m 320.28125,288.5 1.78125,0 388.90873,388.90873 -1.78125,0 z"
       inkscape:connector-curvature="0"
       id="path3282"
       style="fill:#000000" />
    <path
       d="m 322.0625,288.5 85.46875,-0.40625 388.90873,388.90873 -85.46875,0.40625 z"
       inkscape:connector-curvature="0"
       id="path3284"
       style="fill:#000000" />
    <path
       d="m 407.53125,288.09375 5.21875,0 388.90873,388.90873 -5.21875,0 z"
       inkscape:connector-curvature="0"
       id="path3286"
       style="fill:#000000" />
    <path
       d="m 412.75,288.09375 -2.59375,-4.5 388.90873,388.90873 2.59375,4.5 z"
       inkscape:connector-curvature="0"
       id="path3288"
       style="fill:#000000" />
    <path
       d="m 410.15625,283.59375 -99.09375,-171.5 388.90873,388.90873 99.09375,171.5 z"
       inkscape:connector-curvature="0"
       id="path3290"
       style="fill:#000000" />
    <path
       d="m 311.0625,112.09375 -0.8125,-1.46875 388.90873,388.90873 0.8125,1.46875 z"
       inkscape:connector-curvature="0"
       id="path3292"
       style="fill:#000000" />
    <path
       d="m 310.25,110.625 -1.6875,0 388.90873,388.90873 1.6875,0 z"
       inkscape:connector-curvature="0"
       id="path3294"
       style="fill:#000000" />
    <path
       d="m 201.75,119.9375 -2.59375,4.40625 388.90873,388.90873 2.59375,-4.40625 z"
       inkscape:connector-curvature="0"
       id="path3296"
       style="fill:#000000" />
    <path
       d="M 199.15625,124.34375 100.0625,295.9375 488.97123,684.84623 588.06498,513.25248 z"
       inkscape:connector-curvature="0"
       id="path3298"
       style="fill:#000000" />
    <path
       d="m 100.0625,295.9375 -0.8125,1.46875 388.90873,388.90873 0.8125,-1.46875 z"
       inkscape:connector-curvature="0"
       id="path3300"
       style="fill:#000000" />
    <path
       d="m 99.25,297.40625 0.8125,1.5625 388.90873,388.90873 -0.8125,-1.5625 z"
       inkscape:connector-curvature="0"
       id="path3302"
       style="fill:#000000" />
    <path
       d="m 100.0625,298.96875 43.0625,73.875 388.90873,388.90873 -43.0625,-73.875 z"
       inkscape:connector-curvature="0"
       id="path3304"
       style="fill:#000000" />
    <path
       d="m 143.125,372.84375 2.625,4.5 388.90873,388.90873 -2.625,-4.5 z"
       inkscape:connector-curvature="0"
       id="path3306"
       style="fill:#000000" />
    <path
       d="m 145.75,377.34375 2.59375,-4.5 388.90873,388.90873 -2.59375,4.5 z"
       inkscape:connector-curvature="0"
       id="path3308"
       style="fill:#000000" />
    <path
       d="M 148.34375,372.84375 247.4375,201.25 636.34623,590.15873 537.25248,761.75248 z"
       inkscape:connector-curvature="0"
       id="path3310"
       style="fill:#000000" />
    <path
       d="m 247.4375,201.25 0.84375,-1.46875 388.90873,388.90873 -0.84375,1.46875 z"
       inkscape:connector-curvature="0"
       id="path3312"
       style="fill:#000000" />
    <path
       d="m 248.28125,199.78125 -0.84375,-1.5625 388.90873,388.90873 0.84375,1.5625 z"
       inkscape:connector-curvature="0"
       id="path3314"
       style="fill:#000000" />
    <path
       d="m 247.4375,198.21875 -43.0625,-73.875 388.90873,388.90873 43.0625,73.875 z"
       inkscape:connector-curvature="0"
       id="path3316"
       style="fill:#000000" />
    <path
       d="m 204.375,124.34375 -2.625,-4.40625 388.90873,388.90873 2.625,4.40625 z"
       inkscape:connector-curvature="0"
       id="path3318"
       style="fill:#000000" />
    <path
       d="m 207.71875,305.75 -0.84375,1.46875 388.90873,388.90873 0.84375,-1.46875 z"
       inkscape:connector-curvature="0"
       id="path3320"
       style="fill:#000000" />
    <path
       d="m 206.875,307.21875 -42.4375,74.3125 388.90873,388.90873 42.4375,-74.3125 z"
       inkscape:connector-curvature="0"
       id="path3322"
       style="fill:#000000" />
    <path
       d="m 164.4375,381.53125 -2.59375,4.5 388.90873,388.90873 2.59375,-4.5 z"
       inkscape:connector-curvature="0"
       id="path3324"
       style="fill:#000000" />
    <path
       d="m 161.84375,386.03125 5.125,0 388.90873,388.90873 -5.125,0 z"
       inkscape:connector-curvature="0"
       id="path3326"
       style="fill:#000000" />
    <path
       d="m 166.96875,386.03125 198.125,0 388.90873,388.90873 -198.125,0 z"
       inkscape:connector-curvature="0"
       id="path3328"
       style="fill:#000000" />
    <path
       d="m 365.09375,386.03125 1.78125,0 388.90873,388.90873 -1.78125,0 z"
       inkscape:connector-curvature="0"
       id="path3330"
       style="fill:#000000" />
    <path
       d="m 366.875,386.03125 0.84375,-1.46875 388.90873,388.90873 -0.84375,1.46875 z"
       inkscape:connector-curvature="0"
       id="path3332"
       style="fill:#000000" />
    <path
       d="m 367.71875,384.5625 42.4375,-74.3125 388.90873,388.90873 -42.4375,74.3125 z"
       inkscape:connector-curvature="0"
       id="path3334"
       style="fill:#000000" />
    <path
       d="m 410.15625,310.25 2.59375,-4.5 388.90873,388.90873 -2.59375,4.5 z"
       inkscape:connector-curvature="0"
       id="path3336"
       style="fill:#000000" />
    <path
       d="m 412.75,305.75 -5.21875,0 388.90873,388.90873 5.21875,0 z"
       inkscape:connector-curvature="0"
       id="path3338"
       style="fill:#000000" />
    <path
       d="m 407.53125,305.75 -198.03125,0 388.90873,388.90873 198.03125,0 z"
       inkscape:connector-curvature="0"
       id="path3340"
       style="fill:#000000" />
    <path
       d="m 209.5,305.75 -1.78125,0 388.90873,388.90873 1.78125,0 z"
       inkscape:connector-curvature="0"
       id="path3342"
       style="fill:#000000" />
  </g>
  <path
     d="m 308.5625,110.625 -85.59375,0.34375 -5.21875,0 2.625,4.46875 99.0625,171.5 0.84375,1.5625 1.78125,0 85.46875,-0.40625 5.21875,0 -2.59375,-4.5 -99.09375,-171.5 -0.8125,-1.46875 -1.6875,0 z m -106.8125,9.3125 -2.59375,4.40625 -99.09375,171.59375 -0.8125,1.46875 0.8125,1.5625 43.0625,73.875 2.625,4.5 2.59375,-4.5 99.09375,-171.59375 0.84375,-1.46875 -0.84375,-1.5625 -43.0625,-73.875 -2.625,-4.40625 z m 5.96875,185.8125 -0.84375,1.46875 -42.4375,74.3125 -2.59375,4.5 5.125,0 198.125,0 1.78125,0 0.84375,-1.46875 42.4375,-74.3125 2.59375,-4.5 -5.21875,0 -198.03125,0 -1.78125,0 z"
     inkscape:connector-curvature="0"
     id="path3098"
     style="fill:#ffffff" />
</svg>
