<?xml version="1.0" encoding="UTF-8" standalone="no"?>
<!-- Created with Inkscape (http://www.inkscape.org/) -->

<svg
   xmlns:dc="http://purl.org/dc/elements/1.1/"
   xmlns:cc="http://creativecommons.org/ns#"
   xmlns:rdf="http://www.w3.org/1999/02/22-rdf-syntax-ns#"
   xmlns:svg="http://www.w3.org/2000/svg"
   xmlns="http://www.w3.org/2000/svg"
   xmlns:inkscape="http://www.inkscape.org/namespaces/inkscape"
   version="1.1"
   width="100%"
   height="100%"
   viewBox="0 0 512 512"
   id="svg2">
  <metadata
     id="metadata98">
    <rdf:RDF>
      <cc:Work
         rdf:about="">
        <dc:format>image/svg+xml</dc:format>
        <dc:type
           rdf:resource="http://purl.org/dc/dcmitype/StillImage" />
      </cc:Work>
    </rdf:RDF>
  </metadata>
  <defs
     id="defs96" />
  <text
     x="-1113.42"
     y="547.38"
     id="text4"
     style="font-size:200px;line-height:125%;letter-spacing:0;word-spacing:0;font-family:Gentium Book Basic">
    <tspan
       x="-1113.42"
       y="547.38"
       id="tspan6" />
  </text>
  <text
     x="27.552"
     y="1656.17"
     transform="scale(4.0128,0.2492)"
     id="text8"
     style="font-size:72.66999817px;text-anchor:middle;font-family:Arial" />
  <text
     x="729.64001"
     y="231.36"
     id="text10"
     style="font-size:129.22999573px;line-height:125%;letter-spacing:0;word-spacing:0;font-family:Gentium Book Basic">
    <tspan
       x="729.64001"
       y="231.36"
       id="tspan12" />
  </text>
  <text
     x="378.91"
     y="579.25"
     transform="scale(4.0128,0.2492)"
     id="text14"
     style="font-size:46.95399857px;text-anchor:middle;font-family:Arial" />
  <text
     x="1310.91"
     y="151.36"
     id="text16"
     style="font-size:129.22999573px;line-height:125%;letter-spacing:0;word-spacing:0;font-family:Gentium Book Basic">
    <tspan
       x="1310.91"
       y="151.36"
       id="tspan18" />
  </text>
  <text
     x="523.76001"
     y="258.22"
     transform="scale(4.0128,0.2492)"
     id="text20"
     style="font-size:46.95399857px;text-anchor:middle;font-family:Arial" />
  <text
     x="239.33"
     y="-29.900999"
     id="text22"
     style="font-size:129.22999573px;line-height:125%;letter-spacing:0;word-spacing:0;font-family:Gentium Book Basic">
    <tspan
       x="239.33"
       y="-29.900999"
       id="tspan24" />
  </text>
  <text
     x="256.72"
     y="-469.14001"
     transform="scale(4.0128,0.2492)"
     id="text26"
     style="font-size:46.95399857px;text-anchor:middle;font-family:Arial" />
  <text
     x="1337.38"
     y="-246.37"
     id="text28"
     style="font-size:129.22999573px;line-height:125%;letter-spacing:0;word-spacing:0;font-family:Gentium Book Basic">
    <tspan
       x="1337.38"
       y="-246.37"
       id="tspan30" />
  </text>
  <text
     x="530.35999"
     y="-1337.8101"
     transform="scale(4.0128,0.2492)"
     id="text32"
     style="font-size:46.95399857px;text-anchor:middle;font-family:Arial" />
  <text
     x="1918.65"
     y="-326.38"
     id="text34"
     style="font-size:129.22999573px;line-height:125%;letter-spacing:0;word-spacing:0;font-family:Gentium Book Basic">
    <tspan
       x="1918.65"
       y="-326.38"
       id="tspan36" />
  </text>
  <text
     x="675.21002"
     y="-1658.85"
     transform="scale(4.0128,0.2492)"
     id="text38"
     style="font-size:46.95399857px;text-anchor:middle;font-family:Arial" />
  <text
     x="1529.53"
     y="-798.78003"
     id="text40"
     style="font-size:129.22999573px;line-height:125%;letter-spacing:0;word-spacing:0;font-family:Gentium Book Basic">
    <tspan
       x="1529.53"
       y="-798.78003"
       id="tspan42" />
  </text>
  <text
     x="578.23999"
     y="-3554.51"
     transform="scale(4.0128,0.2492)"
     id="text44"
     style="font-size:46.95399857px;text-anchor:middle;font-family:Arial" />
  <text
     x="2110.79"
     y="-878.78003"
     id="text46"
     style="font-size:129.22999573px;line-height:125%;letter-spacing:0;word-spacing:0;font-family:Gentium Book Basic">
    <tspan
       x="2110.79"
       y="-878.78003"
       id="tspan48" />
  </text>
  <text
     x="723.09003"
     y="-3875.54"
     transform="scale(4.0128,0.2492)"
     id="text50"
     style="font-size:46.95399857px;text-anchor:middle;font-family:Arial" />
  <g
     id="g52"
     style="line-height:125%;letter-spacing:0;word-spacing:0;font-family:Gentium Book Basic">
    <text
       x="277.98999"
       y="535.94"
       id="text54"
       style="font-size:208.33000183px">
      <tspan
         x="277.98999"
         y="535.94"
         id="tspan56" />
    </text>
    <text
       x="-1113.42"
       y="547.38"
       id="text58"
       style="font-size:200px">
      <tspan
         x="-1113.42"
         y="547.38"
         id="tspan60" />
    </text>
  </g>
  <text
     x="27.552"
     y="1656.17"
     transform="scale(4.0128,0.2492)"
     id="text62"
     style="font-size:72.66999817px;text-anchor:middle;font-family:Arial" />
  <path
     d="m 471.94555,253.05138 a 218.90284,218.90284 0 1 1 -437.80566,0 218.90284,218.90284 0 1 1 437.80566,0"
     inkscape:connector-curvature="0"
     id="path64"
     style="fill:#62c0dc;fill-rule:evenodd" />
  <path
     d="m 91.38,88.58 c -16.463,31.24 -69.55,112.17 -69.59,147.48 -0.004,24.456 16.464,65.91 24.505,89.01 8.04,23.1 19.986,44.828 35.18,63.995 15.19,19.17 33.619,35.76 54.27,48.863 20.65,13.1 43.511,22.712 67.32,28.29 l 88.28,-152.94 -91.57,-35.637 z"
     inkscape:connector-curvature="0"
     id="path66"
     style="fill:#8db173" />
  <path
     d="m 284.38,196.31 8.65,109.88 -92.33,162.93 c 44.18,17.539 119.28,-0.481 142.8,-13.368 63.07,-34.563 50.19,-27.945 69.67,-48.08 19.488,-20.14 37.413,-45.937 47.937,-71.908 10.524,-25.97 10.812,-54.684 10.84,-82.71 -0.056,-19.14 -1.971,-39.11 -6.99,-57.58 z"
     inkscape:connector-curvature="0"
     id="path68"
     style="fill:#ffd459" />
  <path
     d="m 259.38,34.19 c -30.08,-0.831 -60.32,4.628 -88.22,15.924 -27.893,11.297 -53.41,28.42 -74.44,49.951 l 92.81,160.88 84.74,-63.22 207.36,-2.188 c -14.816,-34.383 -70.49,-126.5 -111.5,-138.27 -35.26,-10.11 -74.09,-22 -110.75,-23.08"
     inkscape:connector-curvature="0"
     id="path70"
     style="fill:#cd1d31" />
  <g
     id="g72"
     style="fill-rule:evenodd">
    <path
       d="m 323.01721,256.04738 a 67.01723,67.01723 0 0 1 -134.03442,0 67.01723,67.01723 0 1 1 134.03442,0"
       inkscape:connector-curvature="0"
       id="path74"
       style="fill:#62c0dc" />
    <path
       d="m 256.09,98.34 c -48.2,-0.383 -95.71,22.998 -125.06,61.19 19.479,33.844 38.958,67.69 58.44,101.53 1.577,0.347 4.318,4.804 5.938,5.156 2.453,3.373 4.263,4.426 6.491,6.887 2.178,2.44 4.01,3.519 6.477,6.863 3.198,4.825 12.947,16.826 20.781,22.656 7.412,6.673 15.957,14.447 22.687,20.594 -22.19,0.495 -37.34,-15.666 -51.09,-30.594 -30.844,-30.854 -61.712,-61.684 -92.53,-92.56 -24.444,60.716 -5.227,135 44.969,176.75 37.4,31.582 74.855,63.15 112.28,94.72 113.54,-3.106 215.3,-111.63 204.63,-224.56 -36.834,-36.529 -73.07,-73.69 -110.3,-109.8 -28.396,-24.93 -65.907,-38.991 -103.7,-38.822"
       inkscape:connector-curvature="0"
       id="path76"
       style="fill-opacity:0.23500001" />
    <path
       d="m 308.97181,256.03709 a 52.971824,52.971824 0 0 1 -105.94362,0 52.971824,52.971824 0 1 1 105.94362,0"
       inkscape:connector-curvature="0"
       id="path78"
       style="fill:#ffffff" />
    <path
       d="M 256,1 C 115.17,1 1,115.17 1,256 1,396.83 115.17,511 256,511 396.83,511 511,396.83 511,256 511,115.17 396.83,1 256,1 m 8.827,44.931 c 120.9,0 218.9,98 218.9,218.9 0,120.9 -98,218.9 -218.9,218.9 -120.9,0 -218.93,-98 -218.93,-218.9 0,-120.9 98.03,-218.9 218.93,-218.9"
       inkscape:connector-curvature="0"
       id="path80"
       style="fill-opacity:0.06700003" />
    <g
       id="g82"
       style="fill-opacity:0.12900002">
      <path
         d="m 256,4.433 c -138.94,0 -251.57,112.63 -251.57,251.57 0,138.94 112.63,251.57 251.57,251.57 138.94,0 251.57,-112.63 251.57,-251.57 C 507.57,117.063 394.94,4.433 256,4.433 m 5.885,38.556 c 120.9,0 218.9,98 218.9,218.9 0,120.9 -98,218.9 -218.9,218.9 -120.9,0 -218.93,-98 -218.93,-218.9 0,-120.9 98.03,-218.9 218.93,-218.9"
         inkscape:connector-curvature="0"
         id="path84" />
      <path
         d="m 256,8.356 c -136.77,0 -247.64,110.87 -247.64,247.64 0,136.77 110.87,247.64 247.64,247.64 136.77,0 247.64,-110.87 247.64,-247.64 C 503.64,119.226 392.77,8.356 256,8.356 m 2.942,31.691 c 120.9,0 218.9,98 218.9,218.9 0,120.9 -98,218.9 -218.9,218.9 -120.9,0 -218.93,-98 -218.93,-218.9 0,-120.9 98.03,-218.9 218.93,-218.9"
         inkscape:connector-curvature="0"
         id="path86" />
    </g>
    <g
       id="g88"
       style="fill:#ffffff">
      <path
         d="m 253.04,7.859 c -135.42,0 -245.19,109.78 -245.19,245.19 0,135.42 109.78,245.19 245.19,245.19 135.42,0 245.19,-109.78 245.19,-245.19 0,-135.42 -109.78,-245.19 -245.19,-245.19 z m 0,26.297 c 120.9,0 218.9,98 218.9,218.9 0,120.9 -98,218.9 -218.9,218.9 -120.9,0 -218.93,-98 -218.93,-218.9 0,-120.9 98.03,-218.9 218.93,-218.9 z"
         inkscape:connector-curvature="0"
         id="path90"
         style="stroke:#000000;stroke-width:4.90399981;stroke-opacity:0.31000001" />
      <path
         d="m 256.09,98.34 c -50.827,0 -96.08,23.951 -125.07,61.18 l 58.46,101.54 c -0.1,-1.489 -0.181,-3.01 -0.181,-4.525 0,-36.845 29.946,-66.61 66.791,-66.61 0.423,0 0.846,-0.006 1.267,0 l 121.82,-32.581 c -28.994,-35.961 -73.27,-59.01 -123.08,-59.01 m 28.418,97.92 c 22.576,10.64 38.19,33.601 38.19,60.27 0,16.579 -5.942,31.755 -15.928,43.44 l -30.409,113.67 c 77.875,-9.917 137.93,-76.54 137.93,-157.11 0,-21.342 -4.294,-41.704 -11.946,-60.27 h -117.83 m -176.3,3.801 c -6.716,17.54 -10.498,36.573 -10.498,56.47 0,79.7 59.08,145.73 135.75,156.75 l 57.922,-100.1 c -10.227,6.417 -22.325,10.136 -35.3,10.136 -24.18,0 -45.29,-12.939 -57.02,-32.22 l -90.86,-91.05"
         inkscape:connector-curvature="0"
         id="path92" />
    </g>
  </g>
</svg>
