<?xml version="1.0" encoding="UTF-8" standalone="no"?>
<!-- Created with Inkscape (http://www.inkscape.org/) -->

<svg
   xmlns:dc="http://purl.org/dc/elements/1.1/"
   xmlns:cc="http://creativecommons.org/ns#"
   xmlns:rdf="http://www.w3.org/1999/02/22-rdf-syntax-ns#"
   xmlns:svg="http://www.w3.org/2000/svg"
   xmlns="http://www.w3.org/2000/svg"
   xmlns:inkscape="http://www.inkscape.org/namespaces/inkscape"
   version="1.1"
   width="100%"
   height="100%"
   viewBox="0 0 512 512"
   id="svg2">
  <metadata
     id="metadata70">
    <rdf:RDF>
      <cc:Work
         rdf:about="">
        <dc:format>image/svg+xml</dc:format>
        <dc:type
           rdf:resource="http://purl.org/dc/dcmitype/StillImage" />
        <dc:title />
      </cc:Work>
    </rdf:RDF>
  </metadata>
  <defs
     id="defs68">
    <clipPath
       id="clipPath4340">
      <path
         d="m 471.9456,253.05189 c 0,120.89699 -98.00565,218.90724 -218.90724,218.90724 -120.89698,0 -218.90723,-98.00566 -218.90723,-218.90724 0,-120.89698 98.00565,-218.907232 218.90723,-218.907232 120.89699,0 218.90724,98.005652 218.90724,218.907232"
         inkscape:connector-curvature="0"
         id="path4342"
         style="fill:#ffcc67;fill-rule:evenodd" />
    </clipPath>
  </defs>
  <path
     d="m 471.9456,253.05189 c 0,120.89699 -98.00565,218.90724 -218.90724,218.90724 -120.89698,0 -218.90723,-98.00566 -218.90723,-218.90724 0,-120.89698 98.00565,-218.907232 218.90723,-218.907232 120.89699,0 218.90724,98.005652 218.90724,218.907232"
     inkscape:connector-curvature="0"
     id="path8"
     style="fill:#ffcc67;fill-rule:evenodd" />
  <path
     d="M 256,1 C 115.17,1 1,115.17 1,256 1,396.83 115.17,511 256,511 396.83,511 511,396.83 511,256 511,115.17 396.83,1 256,1 m 8.827,44.931 c 120.9,0 218.9,98 218.9,218.9 0,120.9 -98,218.9 -218.9,218.9 -120.9,0 -218.93,-98 -218.93,-218.9 0,-120.9 98.03,-218.9 218.93,-218.9"
     inkscape:connector-curvature="0"
     id="path10"
     style="fill-opacity:0.06700003;fill-rule:evenodd" />
  <path
     d="M 256,4.43 C 117.06,4.43 4.43,117.06 4.43,256 4.43,394.94 117.06,507.57 256,507.57 394.94,507.57 507.57,394.94 507.57,256 507.57,117.06 394.94,4.43 256,4.43 m 5.885,38.556 c 120.9,0 218.9,98 218.9,218.9 0,120.9 -98,218.9 -218.9,218.9 -120.9,0 -218.93,-98 -218.93,-218.9 0,-120.9 98.03,-218.9 218.93,-218.9"
     inkscape:connector-curvature="0"
     id="path14"
     style="fill-opacity:0.12900002;fill-rule:evenodd" />
  <path
     d="M 256,8.36 C 119.23,8.36 8.36,119.23 8.36,256 8.36,392.77 119.23,503.64 256,503.64 392.77,503.64 503.64,392.77 503.64,256 503.64,119.23 392.77,8.36 256,8.36 m 2.942,31.691 c 120.9,0 218.9,98 218.9,218.9 0,120.9 -98,218.9 -218.9,218.9 -120.9,0 -218.93,-98 -218.93,-218.9 0,-120.9 98.03,-218.9 218.93,-218.9"
     inkscape:connector-curvature="0"
     id="path16"
     style="fill-opacity:0.12900002;fill-rule:evenodd" />
  <path
     d="M 253.04,7.86 C 117.62,7.86 7.85,117.64 7.85,253.05 c 0,135.42 109.78,245.19 245.19,245.19 135.42,0 245.19,-109.78 245.19,-245.19 C 498.23,117.63 388.45,7.86 253.04,7.86 z m 0,26.297 c 120.9,0 218.9,98 218.9,218.9 0,120.9 -98,218.9 -218.9,218.9 -120.9,0 -218.93,-98 -218.93,-218.9 0,-120.9 98.03,-218.9 218.93,-218.9 z"
     inkscape:connector-curvature="0"
     id="path18"
     style="fill:#ffffff;fill-rule:evenodd;stroke:#000000;stroke-width:4.90399981;stroke-opacity:0.31000001" />
  <text
     x="729.64001"
     y="231.35997"
     id="text20"
     style="font-size:129.22999573px;line-height:125%;letter-spacing:0;word-spacing:0;font-family:Gentium Book Basic">
    <tspan
       x="729.64001"
       y="231.35997"
       id="tspan22" />
  </text>
  <text
     x="378.90805"
     y="579.25812"
     transform="scale(4.0128205,0.24920128)"
     id="text24"
     style="font-size:46.95375824px;text-anchor:middle;font-family:Arial" />
  <text
     x="1310.91"
     y="151.35997"
     id="text26"
     style="font-size:129.22999573px;line-height:125%;letter-spacing:0;word-spacing:0;font-family:Gentium Book Basic">
    <tspan
       x="1310.91"
       y="151.35997"
       id="tspan28" />
  </text>
  <text
     x="523.75732"
     y="258.21997"
     transform="scale(4.0128205,0.24920128)"
     id="text30"
     style="font-size:46.95375824px;text-anchor:middle;font-family:Arial" />
  <text
     x="239.33"
     y="-29.900009"
     id="text32"
     style="font-size:129.22999573px;line-height:125%;letter-spacing:0;word-spacing:0;font-family:Gentium Book Basic">
    <tspan
       x="239.33"
       y="-29.900009"
       id="tspan34" />
  </text>
  <text
     x="256.71869"
     y="-469.1264"
     transform="scale(4.0128205,0.24920128)"
     id="text36"
     style="font-size:46.95375824px;text-anchor:middle;font-family:Arial" />
  <text
     x="1337.38"
     y="-246.37001"
     id="text38"
     style="font-size:129.22999573px;line-height:125%;letter-spacing:0;word-spacing:0;font-family:Gentium Book Basic">
    <tspan
       x="1337.38"
       y="-246.37001"
       id="tspan40" />
  </text>
  <text
     x="530.3573"
     y="-1337.802"
     transform="scale(4.0128205,0.24920128)"
     id="text42"
     style="font-size:46.95375824px;text-anchor:middle;font-family:Arial" />
  <text
     x="1918.65"
     y="-326.37"
     id="text44"
     style="font-size:129.22999573px;line-height:125%;letter-spacing:0;word-spacing:0;font-family:Gentium Book Basic">
    <tspan
       x="1918.65"
       y="-326.37"
       id="tspan46" />
  </text>
  <text
     x="675.20654"
     y="-1658.8303"
     transform="scale(4.0128205,0.24920128)"
     id="text48"
     style="font-size:46.95375824px;text-anchor:middle;font-family:Arial" />
  <text
     x="1529.53"
     y="-798.77002"
     id="text50"
     style="font-size:129.22999573px;line-height:125%;letter-spacing:0;word-spacing:0;font-family:Gentium Book Basic">
    <tspan
       x="1529.53"
       y="-798.77002"
       id="tspan52" />
  </text>
  <text
     x="578.237"
     y="-3554.4807"
     transform="scale(4.0128205,0.24920128)"
     id="text54"
     style="font-size:46.95375824px;text-anchor:middle;font-family:Arial" />
  <text
     x="2110.79"
     y="-878.78003"
     id="text56"
     style="font-size:129.22999573px;line-height:125%;letter-spacing:0;word-spacing:0;font-family:Gentium Book Basic">
    <tspan
       x="2110.79"
       y="-878.78003"
       id="tspan58" />
  </text>
  <text
     x="723.0863"
     y="-3875.519"
     transform="scale(4.0128205,0.24920128)"
     id="text60"
     style="font-size:46.95375824px;text-anchor:middle;font-family:Arial" />
  <text
     x="277.98999"
     y="535.94006"
     id="text62"
     style="font-size:208.33000183px;line-height:125%;letter-spacing:0;word-spacing:0;font-family:Gentium Book Basic">
    <tspan
       x="277.98999"
       y="535.94006"
       id="tspan64" />
  </text>
  <g
     clip-path="url(#clipPath4340)"
     id="g4140"
     style="opacity:0.25;fill:#000000;fill-opacity:1;stroke:none">
    <path
       d="m 136.19963,132.67063 c -8.17493,0 -14.75765,6.52347 -14.75765,14.62257 l 388.90873,388.90873 c 0,-8.0991 6.58272,-14.62257 14.75765,-14.62257 z"
       inkscape:connector-curvature="0"
       id="path4142"
       style="fill:#000000" />
    <path
       d="m 121.44198,147.2932 0,147.81288 388.90873,388.90873 0,-147.81288 z"
       inkscape:connector-curvature="0"
       id="path4144"
       style="fill:#000000" />
    <path
       d="m 121.44198,295.10608 c 0,4.02537 1.62609,7.66153 4.26556,10.30099 L 514.61627,694.3158 c -2.63947,-2.63946 -4.26556,-6.27562 -4.26556,-10.30099 z"
       inkscape:connector-curvature="0"
       id="path4146"
       style="fill:#000000" />
    <path
       d="m 125.70754,305.40707 c 2.67117,2.67118 6.38022,4.32158 10.49209,4.32158 l 388.90873,388.90873 c -4.11187,0 -7.82092,-1.6504 -10.49209,-4.32158 z"
       inkscape:connector-curvature="0"
       id="path4148"
       style="fill:#000000" />
    <path
       d="m 136.19963,309.72865 54.03258,0 388.90873,388.90873 -54.03258,0 z"
       inkscape:connector-curvature="0"
       id="path4150"
       style="fill:#000000" />
    <path
       d="m 190.23221,309.72865 0,54.97815 388.90873,388.90873 0,-54.97815 z"
       inkscape:connector-curvature="0"
       id="path4152"
       style="fill:#000000" />
    <path
       d="m 190.23221,364.7068 c 0,4.02537 1.62609,7.66153 4.26556,10.30099 L 583.4065,763.91652 c -2.63947,-2.63946 -4.26556,-6.27562 -4.26556,-10.30099 z"
       inkscape:connector-curvature="0"
       id="path4154"
       style="fill:#000000" />
    <path
       d="m 194.49777,375.00779 c 2.67117,2.67118 6.38022,4.32158 10.49209,4.32158 L 593.89859,768.2381 c -4.11187,0 -7.82092,-1.6504 -10.49209,-4.32158 z"
       inkscape:connector-curvature="0"
       id="path4156"
       style="fill:#000000" />
    <path
       d="m 204.98986,379.32937 170.8105,0 388.90873,388.90873 -170.8105,0 z"
       inkscape:connector-curvature="0"
       id="path4158"
       style="fill:#000000" />
    <path
       d="m 375.80036,379.32937 c 8.17494,0 14.75765,-6.52347 14.75765,-14.62257 l 388.90873,388.90873 c 0,8.0991 -6.58271,14.62257 -14.75765,14.62257 z"
       inkscape:connector-curvature="0"
       id="path4160"
       style="fill:#000000" />
    <path
       d="m 390.55801,364.7068 0,-147.81288 388.90873,388.90873 0,147.81288 z"
       inkscape:connector-curvature="0"
       id="path4162"
       style="fill:#000000" />
    <path
       d="m 390.55801,216.89392 c 0,-4.02537 -1.62609,-7.66153 -4.26555,-10.301 l 388.90873,388.90873 c 2.63946,2.63947 4.26555,6.27563 4.26555,10.301 z"
       inkscape:connector-curvature="0"
       id="path4164"
       style="fill:#000000" />
    <path
       d="m 386.29246,206.59292 c -2.67118,-2.67117 -6.38023,-4.32157 -10.4921,-4.32157 l 388.90873,388.90873 c 4.11187,0 7.82092,1.6504 10.4921,4.32157 z"
       inkscape:connector-curvature="0"
       id="path4166"
       style="fill:#000000" />
    <path
       d="m 375.80036,202.27135 -54.03258,0 388.90873,388.90873 54.03258,0 z"
       inkscape:connector-curvature="0"
       id="path4168"
       style="fill:#000000" />
    <path
       d="m 321.76778,202.27135 0,-54.97815 388.90873,388.90873 0,54.97815 z"
       inkscape:connector-curvature="0"
       id="path4170"
       style="fill:#000000" />
    <path
       d="m 321.76778,147.2932 c 0,-4.02537 -1.62609,-7.66153 -4.26555,-10.301 l 388.90873,388.90873 c 2.63946,2.63947 4.26555,6.27563 4.26555,10.301 z"
       inkscape:connector-curvature="0"
       id="path4172"
       style="fill:#000000" />
    <path
       d="m 317.50223,136.9922 c -2.67118,-2.67117 -6.38023,-4.32157 -10.4921,-4.32157 l 388.90873,388.90873 c 4.11187,0 7.82092,1.6504 10.4921,4.32157 z"
       inkscape:connector-curvature="0"
       id="path4174"
       style="fill:#000000" />
    <path
       d="m 307.01013,132.67063 -170.8105,0 388.90873,388.90873 170.8105,0 z"
       inkscape:connector-curvature="0"
       id="path4176"
       style="fill:#000000" />
    <path
       d="m 151.59891,153.37186 140.01193,0 388.90873,388.90873 -140.01193,0 z"
       inkscape:connector-curvature="0"
       id="path4178"
       style="fill:#000000" />
    <path
       d="m 291.61084,153.37186 c 3.51626,0 6.67016,1.3727 8.85951,3.56205 l 388.90873,388.90873 c -2.18935,-2.18935 -5.34325,-3.56205 -8.85951,-3.56205 z"
       inkscape:connector-curvature="0"
       id="path4180"
       style="fill:#000000" />
    <path
       d="m 300.47035,156.93391 c 1.94519,1.94519 3.12897,4.53504 3.12897,7.37955 l 388.90873,388.90873 c 0,-2.84451 -1.18378,-5.43436 -3.12897,-7.37955 z"
       inkscape:connector-curvature="0"
       id="path4182"
       style="fill:#000000" />
    <path
       d="m 303.59932,164.31346 0,113.80613 388.90873,388.90873 0,-113.80613 z"
       inkscape:connector-curvature="0"
       id="path4184"
       style="fill:#000000" />
    <path
       d="m 303.59932,278.11959 c 0,6.04605 -5.34809,10.90783 -11.98848,10.90783 l 388.90873,388.90873 c 6.64039,0 11.98848,-4.86178 11.98848,-10.90783 z"
       inkscape:connector-curvature="0"
       id="path4186"
       style="fill:#000000" />
    <path
       d="m 291.61084,289.02742 -140.01193,0 388.90873,388.90873 140.01193,0 z"
       inkscape:connector-curvature="0"
       id="path4188"
       style="fill:#000000" />
    <path
       d="m 151.59891,289.02742 c -3.52505,0 -6.68593,-1.37006 -8.87592,-3.56004 l 388.90873,388.90873 c 2.18999,2.18998 5.35087,3.56004 8.87592,3.56004 z"
       inkscape:connector-curvature="0"
       id="path4190"
       style="fill:#000000" />
    <path
       d="m 142.72299,285.46738 c -1.93544,-1.93544 -3.11256,-4.51129 -3.11256,-7.34779 l 388.90873,388.90873 c 0,2.8365 1.17712,5.41235 3.11256,7.34779 z"
       inkscape:connector-curvature="0"
       id="path4192"
       style="fill:#000000" />
    <path
       d="m 139.61043,278.11959 0,-113.80613 388.90873,388.90873 0,113.80613 z"
       inkscape:connector-curvature="0"
       id="path4194"
       style="fill:#000000" />
    <path
       d="m 139.61043,164.31346 c 0,-6.04605 5.34809,-10.9416 11.98848,-10.9416 l 388.90873,388.90873 c -6.64039,0 -11.98848,4.89555 -11.98848,10.9416 z"
       inkscape:connector-curvature="0"
       id="path4196"
       style="fill:#000000" />
    <path
       d="m 321.76778,222.97258 38.6333,0 388.90873,388.90873 -38.6333,0 z"
       inkscape:connector-curvature="0"
       id="path4198"
       style="fill:#000000" />
    <path
       d="m 360.40108,222.97258 c 3.51626,0 6.67016,1.3727 8.85951,3.56205 l 388.90873,388.90873 c -2.18935,-2.18935 -5.34325,-3.56205 -8.85951,-3.56205 z"
       inkscape:connector-curvature="0"
       id="path4200"
       style="fill:#000000" />
    <path
       d="m 369.26059,226.53463 c 1.94519,1.94519 3.12897,4.53504 3.12897,7.37955 l 388.90873,388.90873 c 0,-2.84451 -1.18378,-5.43436 -3.12897,-7.37955 z"
       inkscape:connector-curvature="0"
       id="path4202"
       style="fill:#000000" />
    <path
       d="m 372.38956,233.91418 0,113.80613 388.90873,388.90873 0,-113.80613 z"
       inkscape:connector-curvature="0"
       id="path4204"
       style="fill:#000000" />
    <path
       d="m 372.38956,347.72031 c 0,6.04605 -5.34809,10.90783 -11.98848,10.90783 l 388.90873,388.90873 c 6.64039,0 11.98848,-4.86178 11.98848,-10.90783 z"
       inkscape:connector-curvature="0"
       id="path4206"
       style="fill:#000000" />
    <path
       d="m 360.40108,358.62814 -140.01193,0 388.90873,388.90873 140.01193,0 z"
       inkscape:connector-curvature="0"
       id="path4208"
       style="fill:#000000" />
    <path
       d="m 220.38915,358.62814 c -3.52505,0 -6.68593,-1.37006 -8.87592,-3.56004 l 388.90873,388.90873 c 2.18999,2.18998 5.35087,3.56004 8.87592,3.56004 z"
       inkscape:connector-curvature="0"
       id="path4210"
       style="fill:#000000" />
    <path
       d="m 211.51323,355.0681 c -1.93544,-1.93544 -3.11256,-4.51129 -3.11256,-7.34779 L 597.3094,736.62904 c 0,2.8365 1.17712,5.41235 3.11256,7.34779 z"
       inkscape:connector-curvature="0"
       id="path4212"
       style="fill:#000000" />
    <path
       d="m 208.40067,347.72031 0,-37.99166 388.90873,388.90873 0,37.99166 z"
       inkscape:connector-curvature="0"
       id="path4214"
       style="fill:#000000" />
    <path
       d="m 208.40067,309.72865 98.60946,0 388.90873,388.90873 -98.60946,0 z"
       inkscape:connector-curvature="0"
       id="path4216"
       style="fill:#000000" />
    <path
       d="m 307.01013,309.72865 c 8.17494,0 14.75765,-6.52347 14.75765,-14.62257 l 388.90873,388.90873 c 0,8.0991 -6.58271,14.62257 -14.75765,14.62257 z"
       inkscape:connector-curvature="0"
       id="path4218"
       style="fill:#000000" />
    <path
       d="m 321.76778,295.10608 0,-72.1335 388.90873,388.90873 0,72.1335 z"
       inkscape:connector-curvature="0"
       id="path4220"
       style="fill:#000000" />
  </g>
  <path
     d="m 136.19963,132.67063 c -8.17493,0 -14.75765,6.52347 -14.75765,14.62257 l 0,147.81288 c 0,8.0991 6.58272,14.62257 14.75765,14.62257 l 54.03258,0 0,54.97815 c 0,8.0991 6.58272,14.62257 14.75765,14.62257 l 170.8105,0 c 8.17494,0 14.75765,-6.52347 14.75765,-14.62257 l 0,-147.81288 c 0,-8.0991 -6.58271,-14.62257 -14.75765,-14.62257 l -54.03258,0 0,-54.97815 c 0,-8.0991 -6.58271,-14.62257 -14.75765,-14.62257 l -170.8105,0 z m 15.39928,20.70123 140.01193,0 c 6.64039,0 11.98848,4.89555 11.98848,10.9416 l 0,113.80613 c 0,6.04605 -5.34809,10.90783 -11.98848,10.90783 l -140.01193,0 c -6.64039,0 -11.98848,-4.86178 -11.98848,-10.90783 l 0,-113.80613 c 0,-6.04605 5.34809,-10.9416 11.98848,-10.9416 z m 170.16887,69.60072 38.6333,0 c 6.64039,0 11.98848,4.89555 11.98848,10.9416 l 0,113.80613 c 0,6.04605 -5.34809,10.90783 -11.98848,10.90783 l -140.01193,0 c -6.64039,0 -11.98848,-4.86178 -11.98848,-10.90783 l 0,-37.99166 98.60946,0 c 8.17494,0 14.75765,-6.52347 14.75765,-14.62257 l 0,-72.1335 z"
     inkscape:connector-curvature="0"
     id="path3905"
     style="fill:#ffffff;fill-opacity:1;stroke:none" />
</svg>
