<?xml version="1.0" encoding="UTF-8" standalone="no"?>
<!-- Created with Inkscape (http://www.inkscape.org/) -->

<svg
   xmlns:dc="http://purl.org/dc/elements/1.1/"
   xmlns:cc="http://creativecommons.org/ns#"
   xmlns:rdf="http://www.w3.org/1999/02/22-rdf-syntax-ns#"
   xmlns:svg="http://www.w3.org/2000/svg"
   xmlns="http://www.w3.org/2000/svg"
   xmlns:inkscape="http://www.inkscape.org/namespaces/inkscape"
   version="1.1"
   width="100%"
   height="100%"
   viewBox="0 0 512 512"
   id="svg2">
  <metadata
     id="metadata70">
    <rdf:RDF>
      <cc:Work
         rdf:about="">
        <dc:format>image/svg+xml</dc:format>
        <dc:type
           rdf:resource="http://purl.org/dc/dcmitype/StillImage" />
        <dc:title />
      </cc:Work>
    </rdf:RDF>
  </metadata>
  <defs
     id="defs68">
    <clipPath
       id="clipPath7588">
      <g
         id="g7590">
        <path
           d="m 471.95,253.05 c 0,120.9 -98.01,218.9 -218.9,218.9 -120.9,0 -218.9,-98.01 -218.9,-218.9 0,-120.9 98.01,-218.9 218.9,-218.9 120.9,0 218.9,98.01 218.9,218.9"
           inkscape:connector-curvature="0"
           id="path7592"
           style="fill:#c15a54;fill-opacity:1;fill-rule:evenodd" />
        <path
           d="m 253.0625,34.15625 c -120.89,0 -218.90625,98.00625 -218.90625,218.90625 0,0.98642 0.01824,1.95416 0.03125,2.9375 L 256,256 256,34.1875 c -0.98342,-0.01301 -1.95099,-0.03125 -2.9375,-0.03125 z"
           inkscape:connector-curvature="0"
           id="path7594"
           style="fill:#d7ac44" />
        <path
           d="m 34.1875,256 c 1.581288,119.52827 98.96151,215.9375 218.875,215.9375 0.98642,0 1.95416,-0.0182 2.9375,-0.0312 L 256,256 34.1875,256 z"
           inkscape:connector-curvature="0"
           id="path7596"
           style="fill:#6da25c" />
        <path
           d="m 256,256 0,215.90625 C 374.54494,470.33797 470.33781,374.55446 471.90625,256 L 256,256 z"
           inkscape:connector-curvature="0"
           id="path7598"
           style="fill:#7393e1" />
        <path
           d="m 253.0625,34.15625 c -63.27423,0 -120.28443,26.8552 -160.25,69.78125 L 224.65625,235.78125 256,185.3125 256,34.1875 c -0.98342,-0.01301 -1.95099,-0.03125 -2.9375,-0.03125 z"
           inkscape:connector-curvature="0"
           id="path7600"
           style="fill:#ca8237" />
        <path
           d="m 405.15625,95.625 -129.125,129.09375 50.53125,31.34375 145.34375,0 c 0.0136,-1.00427 0.0312,-1.99251 0.0312,-3 0,-61.80213 -25.59034,-117.63297 -66.78125,-157.4375 z"
           inkscape:connector-curvature="0"
           id="path7602"
           style="fill:#7f2c72" />
        <path
           d="m 34.1875,256 c 0.84125,63.58942 28.805329,120.62431 72.84375,160.09375 l 128.75,-128.75 L 185.3125,256 34.1875,256 z"
           inkscape:connector-curvature="0"
           id="path7604"
           style="fill:#1f794e" />
        <path
           d="M 287.34375,276.21875 256,326.6875 l 0,145.21875 c 62.09669,-0.8215 117.96959,-27.45735 157.3125,-69.71875 L 287.34375,276.21875 z"
           inkscape:connector-curvature="0"
           id="path7606"
           style="fill:#5257ad" />
      </g>
    </clipPath>
  </defs>
  <g
     id="g6904">
    <path
       d="m 471.95,253.05 c 0,120.9 -98.01,218.9 -218.9,218.9 -120.9,0 -218.9,-98.01 -218.9,-218.9 0,-120.9 98.01,-218.9 218.9,-218.9 120.9,0 218.9,98.01 218.9,218.9"
       inkscape:connector-curvature="0"
       id="path11"
       style="fill:#c15a54;fill-opacity:1;fill-rule:evenodd" />
    <path
       d="m 253.0625,34.15625 c -120.89,0 -218.90625,98.00625 -218.90625,218.90625 0,0.98642 0.01824,1.95416 0.03125,2.9375 L 256,256 256,34.1875 c -0.98342,-0.01301 -1.95099,-0.03125 -2.9375,-0.03125 z"
       inkscape:connector-curvature="0"
       id="path39"
       style="fill:#d7ac44" />
    <path
       d="m 34.1875,256 c 1.581288,119.52827 98.96151,215.9375 218.875,215.9375 0.98642,0 1.95416,-0.0182 2.9375,-0.0312 L 256,256 34.1875,256 z"
       inkscape:connector-curvature="0"
       id="path41"
       style="fill:#6da25c" />
    <path
       d="m 256,256 0,215.90625 C 374.54494,470.33797 470.33781,374.55446 471.90625,256 L 256,256 z"
       inkscape:connector-curvature="0"
       id="path43"
       style="fill:#7393e1" />
    <path
       d="m 253.0625,34.15625 c -63.27423,0 -120.28443,26.8552 -160.25,69.78125 L 224.65625,235.78125 256,185.3125 256,34.1875 c -0.98342,-0.01301 -1.95099,-0.03125 -2.9375,-0.03125 z"
       inkscape:connector-curvature="0"
       id="path45"
       style="fill:#ca8237" />
    <path
       d="m 405.15625,95.625 -129.125,129.09375 50.53125,31.34375 145.34375,0 c 0.0136,-1.00427 0.0312,-1.99251 0.0312,-3 0,-61.80213 -25.59034,-117.63297 -66.78125,-157.4375 z"
       inkscape:connector-curvature="0"
       id="path47"
       style="fill:#7f2c72" />
    <path
       d="m 34.1875,256 c 0.84125,63.58942 28.805329,120.62431 72.84375,160.09375 l 128.75,-128.75 L 185.3125,256 34.1875,256 z"
       inkscape:connector-curvature="0"
       id="path49"
       style="fill:#1f794e" />
    <path
       d="M 287.34375,276.21875 256,326.6875 l 0,145.21875 c 62.09669,-0.8215 117.96959,-27.45735 157.3125,-69.71875 L 287.34375,276.21875 z"
       inkscape:connector-curvature="0"
       id="path51"
       style="fill:#5257ad" />
  </g>
  <text
     x="729.64001"
     y="231.35997"
     id="text20"
     style="font-size:129.22999573px;line-height:125%;letter-spacing:0;word-spacing:0;font-family:Gentium Book Basic">
    <tspan
       x="729.64001"
       y="231.35997"
       id="tspan22" />
  </text>
  <text
     x="378.90805"
     y="579.25812"
     transform="scale(4.0128205,0.24920128)"
     id="text24"
     style="font-size:46.95375824px;text-anchor:middle;font-family:Arial" />
  <text
     x="1310.91"
     y="151.35997"
     id="text26"
     style="font-size:129.22999573px;line-height:125%;letter-spacing:0;word-spacing:0;font-family:Gentium Book Basic">
    <tspan
       x="1310.91"
       y="151.35997"
       id="tspan28" />
  </text>
  <text
     x="523.75732"
     y="258.21997"
     transform="scale(4.0128205,0.24920128)"
     id="text30"
     style="font-size:46.95375824px;text-anchor:middle;font-family:Arial" />
  <text
     x="239.33"
     y="-29.900009"
     id="text32"
     style="font-size:129.22999573px;line-height:125%;letter-spacing:0;word-spacing:0;font-family:Gentium Book Basic">
    <tspan
       x="239.33"
       y="-29.900009"
       id="tspan34" />
  </text>
  <text
     x="256.71869"
     y="-469.1264"
     transform="scale(4.0128205,0.24920128)"
     id="text36"
     style="font-size:46.95375824px;text-anchor:middle;font-family:Arial" />
  <text
     x="1337.38"
     y="-246.37001"
     id="text38"
     style="font-size:129.22999573px;line-height:125%;letter-spacing:0;word-spacing:0;font-family:Gentium Book Basic">
    <tspan
       x="1337.38"
       y="-246.37001"
       id="tspan40" />
  </text>
  <text
     x="530.3573"
     y="-1337.802"
     transform="scale(4.0128205,0.24920128)"
     id="text42"
     style="font-size:46.95375824px;text-anchor:middle;font-family:Arial" />
  <text
     x="1918.65"
     y="-326.37"
     id="text44"
     style="font-size:129.22999573px;line-height:125%;letter-spacing:0;word-spacing:0;font-family:Gentium Book Basic">
    <tspan
       x="1918.65"
       y="-326.37"
       id="tspan46" />
  </text>
  <text
     x="675.20654"
     y="-1658.8303"
     transform="scale(4.0128205,0.24920128)"
     id="text48"
     style="font-size:46.95375824px;text-anchor:middle;font-family:Arial" />
  <text
     x="1529.53"
     y="-798.77002"
     id="text50"
     style="font-size:129.22999573px;line-height:125%;letter-spacing:0;word-spacing:0;font-family:Gentium Book Basic">
    <tspan
       x="1529.53"
       y="-798.77002"
       id="tspan52" />
  </text>
  <text
     x="578.237"
     y="-3554.4807"
     transform="scale(4.0128205,0.24920128)"
     id="text54"
     style="font-size:46.95375824px;text-anchor:middle;font-family:Arial" />
  <text
     x="2110.79"
     y="-878.78003"
     id="text56"
     style="font-size:129.22999573px;line-height:125%;letter-spacing:0;word-spacing:0;font-family:Gentium Book Basic">
    <tspan
       x="2110.79"
       y="-878.78003"
       id="tspan58" />
  </text>
  <text
     x="723.0863"
     y="-3875.519"
     transform="scale(4.0128205,0.24920128)"
     id="text60"
     style="font-size:46.95375824px;text-anchor:middle;font-family:Arial" />
  <text
     x="277.98999"
     y="535.94006"
     id="text62"
     style="font-size:208.33000183px;line-height:125%;letter-spacing:0;word-spacing:0;font-family:Gentium Book Basic">
    <tspan
       x="277.98999"
       y="535.94006"
       id="tspan64" />
  </text>
  <text
     x="1317.5723"
     y="129.39391"
     id="text20-4"
     style="font-size:129.22999573px;line-height:125%;letter-spacing:0;word-spacing:0;font-family:Gentium Book Basic">
    <tspan
       x="1317.5723"
       y="129.39391"
       id="tspan22-7" />
  </text>
  <text
     x="525.42151"
     y="170.07538"
     transform="scale(4.0128205,0.24920128)"
     id="text24-2"
     style="font-size:46.95375824px;text-anchor:middle;font-family:Arial" />
  <text
     x="1898.8423"
     y="49.393902"
     id="text26-4"
     style="font-size:129.22999573px;line-height:125%;letter-spacing:0;word-spacing:0;font-family:Gentium Book Basic">
    <tspan
       x="1898.8423"
       y="49.393902"
       id="tspan28-1" />
  </text>
  <text
     x="670.27081"
     y="-150.95299"
     transform="scale(4.0128205,0.24920128)"
     id="text30-0"
     style="font-size:46.95375824px;text-anchor:middle;font-family:Arial" />
  <text
     x="827.26221"
     y="-131.8671"
     id="text32-4"
     style="font-size:129.22999573px;line-height:125%;letter-spacing:0;word-spacing:0;font-family:Gentium Book Basic">
    <tspan
       x="827.26221"
       y="-131.8671"
       id="tspan34-4" />
  </text>
  <text
     x="403.23215"
     y="-878.30927"
     transform="scale(4.0128205,0.24920128)"
     id="text36-7"
     style="font-size:46.95375824px;text-anchor:middle;font-family:Arial" />
  <text
     x="1925.3123"
     y="-348.33609"
     id="text38-9"
     style="font-size:129.22999573px;line-height:125%;letter-spacing:0;word-spacing:0;font-family:Gentium Book Basic">
    <tspan
       x="1925.3123"
       y="-348.33609"
       id="tspan40-6" />
  </text>
  <text
     x="676.87073"
     y="-1746.9749"
     transform="scale(4.0128205,0.24920128)"
     id="text42-2"
     style="font-size:46.95375824px;text-anchor:middle;font-family:Arial" />
  <text
     x="2506.5823"
     y="-428.3461"
     id="text44-8"
     style="font-size:129.22999573px;line-height:125%;letter-spacing:0;word-spacing:0;font-family:Gentium Book Basic">
    <tspan
       x="2506.5823"
       y="-428.3461"
       id="tspan46-6" />
  </text>
  <text
     x="821.72003"
     y="-2068.0132"
     transform="scale(4.0128205,0.24920128)"
     id="text48-8"
     style="font-size:46.95375824px;text-anchor:middle;font-family:Arial" />
  <text
     x="2117.4622"
     y="-900.74615"
     id="text50-5"
     style="font-size:129.22999573px;line-height:125%;letter-spacing:0;word-spacing:0;font-family:Gentium Book Basic">
    <tspan
       x="2117.4622"
       y="-900.74615"
       id="tspan52-1" />
  </text>
  <text
     x="724.75049"
     y="-3963.6636"
     transform="scale(4.0128205,0.24920128)"
     id="text54-2"
     style="font-size:46.95375824px;text-anchor:middle;font-family:Arial" />
  <text
     x="2698.7222"
     y="-980.74615"
     id="text56-5"
     style="font-size:129.22999573px;line-height:125%;letter-spacing:0;word-spacing:0;font-family:Gentium Book Basic">
    <tspan
       x="2698.7222"
       y="-980.74615"
       id="tspan58-8" />
  </text>
  <text
     x="869.59979"
     y="-4284.6919"
     transform="scale(4.0128205,0.24920128)"
     id="text60-2"
     style="font-size:46.95375824px;text-anchor:middle;font-family:Arial" />
  <text
     x="865.92218"
     y="433.97391"
     id="text62-8"
     style="font-size:208.33000183px;line-height:125%;letter-spacing:0;word-spacing:0;font-family:Gentium Book Basic">
    <tspan
       x="865.92218"
       y="433.97391"
       id="tspan64-8" />
  </text>
  <g
     id="g15"
     style="fill-rule:evenodd">
    <path
       d="M 256,1 C 115.17,1 1,115.17 1,256 1,396.83 115.17,511 256,511 396.83,511 511,396.83 511,256 511,115.17 396.83,1 256,1 m 8.827,44.931 c 120.9,0 218.9,98 218.9,218.9 0,120.9 -98,218.9 -218.9,218.9 -120.9,0 -218.93,-98 -218.93,-218.9 0,-120.9 98.03,-218.9 218.93,-218.9"
       inkscape:connector-curvature="0"
       id="path17"
       style="fill-opacity:0.06700003" />
    <g
       id="g19"
       style="fill-opacity:0.12900002">
      <path
         d="m 256,4.433 c -138.94,0 -251.57,112.63 -251.57,251.57 0,138.94 112.63,251.57 251.57,251.57 138.94,0 251.57,-112.63 251.57,-251.57 C 507.57,117.063 394.94,4.433 256,4.433 m 5.885,38.556 c 120.9,0 218.9,98 218.9,218.9 0,120.9 -98,218.9 -218.9,218.9 -120.9,0 -218.93,-98 -218.93,-218.9 0,-120.9 98.03,-218.9 218.93,-218.9"
         inkscape:connector-curvature="0"
         id="path21" />
      <path
         d="m 256,8.356 c -136.77,0 -247.64,110.87 -247.64,247.64 0,136.77 110.87,247.64 247.64,247.64 136.77,0 247.64,-110.87 247.64,-247.64 C 503.64,119.226 392.77,8.356 256,8.356 m 2.942,31.691 c 120.9,0 218.9,98 218.9,218.9 0,120.9 -98,218.9 -218.9,218.9 -120.9,0 -218.93,-98 -218.93,-218.9 0,-120.9 98.03,-218.9 218.93,-218.9"
         inkscape:connector-curvature="0"
         id="path23" />
    </g>
    <path
       d="m 253.04,7.859 c -135.42,0 -245.19,109.78 -245.19,245.19 0,135.42 109.78,245.19 245.19,245.19 135.42,0 245.19,-109.78 245.19,-245.19 0,-135.42 -109.78,-245.19 -245.19,-245.19 z m 0,26.297 c 120.9,0 218.9,98 218.9,218.9 0,120.9 -98,218.9 -218.9,218.9 -120.9,0 -218.93,-98 -218.93,-218.9 0,-120.9 98.03,-218.9 218.93,-218.9 z"
       inkscape:connector-curvature="0"
       id="path25"
       style="fill:#ffffff;stroke:#000000;stroke-width:4.90399981;stroke-opacity:0.31000001" />
  </g>
  <text
     x="729.64001"
     y="231.36"
     id="text27"
     style="font-size:129.22999573px;line-height:125%;letter-spacing:0;word-spacing:0;font-family:Gentium Book Basic">
    <tspan
       x="729.64001"
       y="231.36"
       id="tspan29" />
  </text>
  <text
     x="378.90805"
     y="579.24701"
     transform="scale(4.0128205,0.24920128)"
     id="text31"
     style="font-size:46.95375824px;text-anchor:middle;font-family:Arial" />
  <text
     x="1310.91"
     y="151.36"
     id="text33"
     style="font-size:129.22999573px;line-height:125%;letter-spacing:0;word-spacing:0;font-family:Gentium Book Basic">
    <tspan
       x="1310.91"
       y="151.36"
       id="tspan35" />
  </text>
  <text
     x="523.75732"
     y="258.21869"
     transform="scale(4.0128205,0.24920128)"
     id="text37"
     style="font-size:46.95375824px;text-anchor:middle;font-family:Arial" />
  <text
     x="239.33"
     y="-29.900999"
     id="text39"
     style="font-size:129.22999573px;line-height:125%;letter-spacing:0;word-spacing:0;font-family:Gentium Book Basic">
    <tspan
       x="239.33"
       y="-29.900999"
       id="tspan41" />
  </text>
  <text
     x="256.71869"
     y="-469.1376"
     transform="scale(4.0128205,0.24920128)"
     id="text43"
     style="font-size:46.95375824px;text-anchor:middle;font-family:Arial" />
  <text
     x="1337.38"
     y="-246.37"
     id="text45"
     style="font-size:129.22999573px;line-height:125%;letter-spacing:0;word-spacing:0;font-family:Gentium Book Basic">
    <tspan
       x="1337.38"
       y="-246.37"
       id="tspan47" />
  </text>
  <text
     x="530.3573"
     y="-1337.8032"
     transform="scale(4.0128205,0.24920128)"
     id="text49"
     style="font-size:46.95375824px;text-anchor:middle;font-family:Arial" />
  <text
     x="1918.65"
     y="-326.38"
     id="text51"
     style="font-size:129.22999573px;line-height:125%;letter-spacing:0;word-spacing:0;font-family:Gentium Book Basic">
    <tspan
       x="1918.65"
       y="-326.38"
       id="tspan53" />
  </text>
  <text
     x="675.20654"
     y="-1658.8414"
     transform="scale(4.0128205,0.24920128)"
     id="text55"
     style="font-size:46.95375824px;text-anchor:middle;font-family:Arial" />
  <text
     x="1529.53"
     y="-798.78003"
     id="text57"
     style="font-size:129.22999573px;line-height:125%;letter-spacing:0;word-spacing:0;font-family:Gentium Book Basic">
    <tspan
       x="1529.53"
       y="-798.78003"
       id="tspan59" />
  </text>
  <text
     x="578.237"
     y="-3554.4917"
     transform="scale(4.0128205,0.24920128)"
     id="text61"
     style="font-size:46.95375824px;text-anchor:middle;font-family:Arial" />
  <text
     x="2110.79"
     y="-878.78003"
     id="text63"
     style="font-size:129.22999573px;line-height:125%;letter-spacing:0;word-spacing:0;font-family:Gentium Book Basic">
    <tspan
       x="2110.79"
       y="-878.78003"
       id="tspan65" />
  </text>
  <text
     x="723.0863"
     y="-3875.5203"
     transform="scale(4.0128205,0.24920128)"
     id="text67"
     style="font-size:46.95375824px;text-anchor:middle;font-family:Arial" />
  <text
     x="277.98999"
     y="535.94"
     id="text69"
     style="font-size:208.33000183px;line-height:125%;letter-spacing:0;word-spacing:0;font-family:Gentium Book Basic">
    <tspan
       x="277.98999"
       y="535.94"
       id="tspan71" />
  </text>
  <text
     x="-877.95319"
     y="88.173561"
     id="text3031"
     style="font-size:129.22999573px;line-height:125%;letter-spacing:0;word-spacing:0;font-family:Gentium Book Basic">
    <tspan
       x="-877.95319"
       y="88.173561"
       id="tspan3033" />
  </text>
  <text
     x="-21.706223"
     y="4.6655416"
     transform="scale(4.0128205,0.24920128)"
     id="text3035"
     style="font-size:46.95375824px;text-anchor:middle;font-family:Arial" />
  <text
     x="-296.6832"
     y="8.1735563"
     id="text3037"
     style="font-size:129.22999573px;line-height:125%;letter-spacing:0;word-spacing:0;font-family:Gentium Book Basic">
    <tspan
       x="-296.6832"
       y="8.1735563"
       id="tspan3039" />
  </text>
  <text
     x="123.14305"
     y="-316.36282"
     transform="scale(4.0128205,0.24920128)"
     id="text3041"
     style="font-size:46.95375824px;text-anchor:middle;font-family:Arial" />
  <text
     x="-1368.2632"
     y="-173.08743"
     id="text3043"
     style="font-size:129.22999573px;line-height:125%;letter-spacing:0;word-spacing:0;font-family:Gentium Book Basic">
    <tspan
       x="-1368.2632"
       y="-173.08743"
       id="tspan3045" />
  </text>
  <text
     x="-143.8956"
     y="-1043.7191"
     transform="scale(4.0128205,0.24920128)"
     id="text3047"
     style="font-size:46.95375824px;text-anchor:middle;font-family:Arial" />
  <text
     x="-270.21323"
     y="-389.55643"
     id="text3049"
     style="font-size:129.22999573px;line-height:125%;letter-spacing:0;word-spacing:0;font-family:Gentium Book Basic">
    <tspan
       x="-270.21323"
       y="-389.55643"
       id="tspan3051" />
  </text>
  <text
     x="129.743"
     y="-1912.3846"
     transform="scale(4.0128205,0.24920128)"
     id="text3053"
     style="font-size:46.95375824px;text-anchor:middle;font-family:Arial" />
  <text
     x="311.05676"
     y="-469.56644"
     id="text3055"
     style="font-size:129.22999573px;line-height:125%;letter-spacing:0;word-spacing:0;font-family:Gentium Book Basic">
    <tspan
       x="311.05676"
       y="-469.56644"
       id="tspan3057" />
  </text>
  <text
     x="274.59229"
     y="-2233.4231"
     transform="scale(4.0128205,0.24920128)"
     id="text3059"
     style="font-size:46.95375824px;text-anchor:middle;font-family:Arial" />
  <text
     x="-78.063171"
     y="-941.96649"
     id="text3061"
     style="font-size:129.22999573px;line-height:125%;letter-spacing:0;word-spacing:0;font-family:Gentium Book Basic">
    <tspan
       x="-78.063171"
       y="-941.96649"
       id="tspan3063" />
  </text>
  <text
     x="177.62276"
     y="-4129.0732"
     transform="scale(4.0128205,0.24920128)"
     id="text3065"
     style="font-size:46.95375824px;text-anchor:middle;font-family:Arial" />
  <text
     x="503.19678"
     y="-1021.9665"
     id="text3067"
     style="font-size:129.22999573px;line-height:125%;letter-spacing:0;word-spacing:0;font-family:Gentium Book Basic">
    <tspan
       x="503.19678"
       y="-1021.9665"
       id="tspan3069" />
  </text>
  <text
     x="322.47208"
     y="-4450.1016"
     transform="scale(4.0128205,0.24920128)"
     id="text3071"
     style="font-size:46.95375824px;text-anchor:middle;font-family:Arial" />
  <text
     x="-1329.6033"
     y="392.75357"
     id="text3073"
     style="font-size:208.33000183px;line-height:125%;letter-spacing:0;word-spacing:0;font-family:Gentium Book Basic">
    <tspan
       x="-1329.6033"
       y="392.75357"
       id="tspan3075" />
  </text>
  <text
     x="-1758.5083"
     y="-104.32049"
     id="text4889"
     style="font-size:208.33332825px;line-height:125%;letter-spacing:0;word-spacing:0;font-family:Gentium Book Basic">
    <tspan
       x="-1758.5083"
       y="-104.32049"
       id="tspan4891" />
  </text>
  <text
     x="-120.49495"
     y="-981.51056"
     transform="scale(4.0128362,0.2492003)"
     id="text4893"
     style="font-size:75.69770813px;text-anchor:middle;font-family:Arial" />
  <text
     x="-2406.2747"
     y="-872.27222"
     id="text4895"
     style="font-size:208.33332825px;line-height:125%;letter-spacing:0;word-spacing:0;font-family:Gentium Book Basic">
    <tspan
       x="-2406.2747"
       y="-872.27222"
       id="tspan4897" />
  </text>
  <text
     x="-281.91852"
     y="-4063.1748"
     transform="scale(4.0128362,0.2492003)"
     id="text4899"
     style="font-size:75.69770813px;text-anchor:middle;font-family:Arial" />
  <text
     x="-1699.9336"
     y="-1027.9041"
     id="text4901"
     style="font-size:208.33332825px;line-height:125%;letter-spacing:0;word-spacing:0;font-family:Gentium Book Basic">
    <tspan
       x="-1699.9336"
       y="-1027.9041"
       id="tspan4903" />
  </text>
  <text
     x="-105.89812"
     y="-4687.6997"
     transform="scale(4.0128362,0.2492003)"
     id="text4905"
     style="font-size:75.69770813px;text-anchor:middle;font-family:Arial" />
  <text
     x="-802.021"
     y="183.6312"
     id="text3052"
     style="font-size:129.22999573px;line-height:125%;letter-spacing:0;word-spacing:0;font-family:Gentium Book Basic">
    <tspan
       x="-802.021"
       y="183.6312"
       id="tspan3054" />
  </text>
  <text
     x="-2.7838142"
     y="387.71991"
     transform="scale(4.0128205,0.24920128)"
     id="text3056"
     style="font-size:46.95375824px;text-anchor:middle;font-family:Arial" />
  <text
     x="-220.75092"
     y="103.63119"
     id="text3058"
     style="font-size:129.22999573px;line-height:125%;letter-spacing:0;word-spacing:0;font-family:Gentium Book Basic">
    <tspan
       x="-220.75092"
       y="103.63119"
       id="tspan3060" />
  </text>
  <text
     x="142.06544"
     y="66.691528"
     transform="scale(4.0128205,0.24920128)"
     id="text3062"
     style="font-size:46.95375824px;text-anchor:middle;font-family:Arial" />
  <text
     x="-1292.3311"
     y="-77.629807"
     id="text3064"
     style="font-size:129.22999573px;line-height:125%;letter-spacing:0;word-spacing:0;font-family:Gentium Book Basic">
    <tspan
       x="-1292.3311"
       y="-77.629807"
       id="tspan3066" />
  </text>
  <text
     x="-124.97318"
     y="-660.66479"
     transform="scale(4.0128205,0.24920128)"
     id="text3068"
     style="font-size:46.95375824px;text-anchor:middle;font-family:Arial" />
  <text
     x="-194.28094"
     y="-294.09882"
     id="text3070"
     style="font-size:129.22999573px;line-height:125%;letter-spacing:0;word-spacing:0;font-family:Gentium Book Basic">
    <tspan
       x="-194.28094"
       y="-294.09882"
       id="tspan3072" />
  </text>
  <text
     x="148.66539"
     y="-1529.3303"
     transform="scale(4.0128205,0.24920128)"
     id="text3074"
     style="font-size:46.95375824px;text-anchor:middle;font-family:Arial" />
  <text
     x="386.98901"
     y="-374.1088"
     id="text3076"
     style="font-size:129.22999573px;line-height:125%;letter-spacing:0;word-spacing:0;font-family:Gentium Book Basic">
    <tspan
       x="386.98901"
       y="-374.1088"
       id="tspan3078" />
  </text>
  <text
     x="293.51471"
     y="-1850.3687"
     transform="scale(4.0128205,0.24920128)"
     id="text3080"
     style="font-size:46.95375824px;text-anchor:middle;font-family:Arial" />
  <text
     x="-2.1309204"
     y="-846.50885"
     id="text3082"
     style="font-size:129.22999573px;line-height:125%;letter-spacing:0;word-spacing:0;font-family:Gentium Book Basic">
    <tspan
       x="-2.1309204"
       y="-846.50885"
       id="tspan3084" />
  </text>
  <text
     x="196.54515"
     y="-3746.019"
     transform="scale(4.0128205,0.24920128)"
     id="text3086"
     style="font-size:46.95375824px;text-anchor:middle;font-family:Arial" />
  <text
     x="579.12903"
     y="-926.50885"
     id="text3088"
     style="font-size:129.22999573px;line-height:125%;letter-spacing:0;word-spacing:0;font-family:Gentium Book Basic">
    <tspan
       x="579.12903"
       y="-926.50885"
       id="tspan3090" />
  </text>
  <text
     x="341.39444"
     y="-4067.0474"
     transform="scale(4.0128205,0.24920128)"
     id="text3092"
     style="font-size:46.95375824px;text-anchor:middle;font-family:Arial" />
  <text
     x="-1253.671"
     y="488.21121"
     id="text3094"
     style="font-size:208.33000183px;line-height:125%;letter-spacing:0;word-spacing:0;font-family:Gentium Book Basic">
    <tspan
       x="-1253.671"
       y="488.21121"
       id="tspan3096" />
  </text>
  <text
     x="-596.62634"
     y="686.33008"
     id="text27-2"
     style="font-size:129.22999573px;line-height:125%;letter-spacing:0;word-spacing:0;font-family:Gentium Book Basic">
    <tspan
       x="-596.62634"
       y="686.33008"
       id="tspan29-5" />
  </text>
  <text
     x="48.400787"
     y="2404.9604"
     transform="scale(4.0128205,0.24920128)"
     id="text31-1"
     style="font-size:46.95375824px;text-anchor:middle;font-family:Arial" />
  <text
     x="-15.356323"
     y="606.33008"
     id="text33-8"
     style="font-size:129.22999573px;line-height:125%;letter-spacing:0;word-spacing:0;font-family:Gentium Book Basic">
    <tspan
       x="-15.356323"
       y="606.33008"
       id="tspan35-5" />
  </text>
  <text
     x="193.25005"
     y="2083.9321"
     transform="scale(4.0128205,0.24920128)"
     id="text37-3"
     style="font-size:46.95375824px;text-anchor:middle;font-family:Arial" />
  <text
     x="-1086.9364"
     y="425.06909"
     id="text39-2"
     style="font-size:129.22999573px;line-height:125%;letter-spacing:0;word-spacing:0;font-family:Gentium Book Basic">
    <tspan
       x="-1086.9364"
       y="425.06909"
       id="tspan41-4" />
  </text>
  <text
     x="-73.788582"
     y="1356.5757"
     transform="scale(4.0128205,0.24920128)"
     id="text43-3"
     style="font-size:46.95375824px;text-anchor:middle;font-family:Arial" />
  <text
     x="11.113647"
     y="208.6001"
     id="text45-2"
     style="font-size:129.22999573px;line-height:125%;letter-spacing:0;word-spacing:0;font-family:Gentium Book Basic">
    <tspan
       x="11.113647"
       y="208.6001"
       id="tspan47-2" />
  </text>
  <text
     x="199.84999"
     y="487.9101"
     transform="scale(4.0128205,0.24920128)"
     id="text49-5"
     style="font-size:46.95375824px;text-anchor:middle;font-family:Arial" />
  <text
     x="592.38367"
     y="128.59007"
     id="text51-8"
     style="font-size:129.22999573px;line-height:125%;letter-spacing:0;word-spacing:0;font-family:Gentium Book Basic">
    <tspan
       x="592.38367"
       y="128.59007"
       id="tspan53-0" />
  </text>
  <text
     x="344.69931"
     y="166.8718"
     transform="scale(4.0128205,0.24920128)"
     id="text55-5"
     style="font-size:46.95375824px;text-anchor:middle;font-family:Arial" />
  <text
     x="203.26367"
     y="-343.80994"
     id="text57-7"
     style="font-size:129.22999573px;line-height:125%;letter-spacing:0;word-spacing:0;font-family:Gentium Book Basic">
    <tspan
       x="203.26367"
       y="-343.80994"
       id="tspan59-7" />
  </text>
  <text
     x="247.72975"
     y="-1728.7786"
     transform="scale(4.0128205,0.24920128)"
     id="text61-8"
     style="font-size:46.95375824px;text-anchor:middle;font-family:Arial" />
  <text
     x="784.52368"
     y="-423.80994"
     id="text63-2"
     style="font-size:129.22999573px;line-height:125%;letter-spacing:0;word-spacing:0;font-family:Gentium Book Basic">
    <tspan
       x="784.52368"
       y="-423.80994"
       id="tspan65-4" />
  </text>
  <text
     x="392.57907"
     y="-2049.8069"
     transform="scale(4.0128205,0.24920128)"
     id="text67-2"
     style="font-size:46.95375824px;text-anchor:middle;font-family:Arial" />
  <text
     x="-1048.2764"
     y="990.9101"
     id="text69-5"
     style="font-size:208.33000183px;line-height:125%;letter-spacing:0;word-spacing:0;font-family:Gentium Book Basic">
    <tspan
       x="-1048.2764"
       y="990.9101"
       id="tspan71-9" />
  </text>
  <text
     x="-1540.3552"
     y="608.22833"
     id="text20-63"
     style="font-size:129.22999573px;line-height:125%;letter-spacing:0;word-spacing:0;font-family:Gentium Book Basic">
    <tspan
       x="-1540.3552"
       y="608.22833"
       id="tspan22-8" />
  </text>
  <text
     x="-186.77763"
     y="2091.5522"
     transform="scale(4.0128205,0.24920128)"
     id="text24-5"
     style="font-size:46.95375824px;text-anchor:middle;font-family:Arial" />
  <text
     x="-959.08514"
     y="528.22833"
     id="text26-1"
     style="font-size:129.22999573px;line-height:125%;letter-spacing:0;word-spacing:0;font-family:Gentium Book Basic">
    <tspan
       x="-959.08514"
       y="528.22833"
       id="tspan28-4" />
  </text>
  <text
     x="-41.92836"
     y="1770.5238"
     transform="scale(4.0128205,0.24920128)"
     id="text30-2"
     style="font-size:46.95375824px;text-anchor:middle;font-family:Arial" />
  <text
     x="-2030.6652"
     y="346.96738"
     id="text32-0"
     style="font-size:129.22999573px;line-height:125%;letter-spacing:0;word-spacing:0;font-family:Gentium Book Basic">
    <tspan
       x="-2030.6652"
       y="346.96738"
       id="tspan34-8" />
  </text>
  <text
     x="-308.96701"
     y="1043.1675"
     transform="scale(4.0128205,0.24920128)"
     id="text36-8"
     style="font-size:46.95375824px;text-anchor:middle;font-family:Arial" />
  <text
     x="-932.61517"
     y="130.4984"
     id="text38-1"
     style="font-size:129.22999573px;line-height:125%;letter-spacing:0;word-spacing:0;font-family:Gentium Book Basic">
    <tspan
       x="-932.61517"
       y="130.4984"
       id="tspan40-8" />
  </text>
  <text
     x="-35.328445"
     y="174.50195"
     transform="scale(4.0128205,0.24920128)"
     id="text42-25"
     style="font-size:46.95375824px;text-anchor:middle;font-family:Arial" />
  <text
     x="-351.34515"
     y="50.488392"
     id="text44-5"
     style="font-size:129.22999573px;line-height:125%;letter-spacing:0;word-spacing:0;font-family:Gentium Book Basic">
    <tspan
       x="-351.34515"
       y="50.488392"
       id="tspan46-3" />
  </text>
  <text
     x="109.52086"
     y="-146.53627"
     transform="scale(4.0128205,0.24920128)"
     id="text48-1"
     style="font-size:46.95375824px;text-anchor:middle;font-family:Arial" />
  <text
     x="-740.46515"
     y="-421.91162"
     id="text50-0"
     style="font-size:129.22999573px;line-height:125%;letter-spacing:0;word-spacing:0;font-family:Gentium Book Basic">
    <tspan
       x="-740.46515"
       y="-421.91162"
       id="tspan52-2" />
  </text>
  <text
     x="12.551314"
     y="-2042.1866"
     transform="scale(4.0128205,0.24920128)"
     id="text54-80"
     style="font-size:46.95375824px;text-anchor:middle;font-family:Arial" />
  <text
     x="-159.20508"
     y="-501.91162"
     id="text56-71"
     style="font-size:129.22999573px;line-height:125%;letter-spacing:0;word-spacing:0;font-family:Gentium Book Basic">
    <tspan
       x="-159.20508"
       y="-501.91162"
       id="tspan58-2" />
  </text>
  <text
     x="157.40062"
     y="-2363.2151"
     transform="scale(4.0128205,0.24920128)"
     id="text60-4"
     style="font-size:46.95375824px;text-anchor:middle;font-family:Arial" />
  <text
     x="-1992.0052"
     y="912.80835"
     id="text62-1"
     style="font-size:208.33000183px;line-height:125%;letter-spacing:0;word-spacing:0;font-family:Gentium Book Basic">
    <tspan
       x="-1992.0052"
       y="912.80835"
       id="tspan64-6" />
  </text>
  <text
     x="-1292.9022"
     y="683.07355"
     id="text20-2"
     style="font-size:129.22999573px;line-height:125%;letter-spacing:0;word-spacing:0;font-family:Gentium Book Basic">
    <tspan
       x="-1292.9022"
       y="683.07355"
       id="tspan22-5" />
  </text>
  <text
     x="-125.11204"
     y="2391.8926"
     transform="scale(4.0128205,0.24920128)"
     id="text24-8"
     style="font-size:46.95375824px;text-anchor:middle;font-family:Arial" />
  <text
     x="-711.6322"
     y="603.07355"
     id="text26-6"
     style="font-size:129.22999573px;line-height:125%;letter-spacing:0;word-spacing:0;font-family:Gentium Book Basic">
    <tspan
       x="-711.6322"
       y="603.07355"
       id="tspan28-2" />
  </text>
  <text
     x="19.737228"
     y="2070.8643"
     transform="scale(4.0128205,0.24920128)"
     id="text30-6"
     style="font-size:46.95375824px;text-anchor:middle;font-family:Arial" />
  <text
     x="-1783.2122"
     y="421.81256"
     id="text32-8"
     style="font-size:129.22999573px;line-height:125%;letter-spacing:0;word-spacing:0;font-family:Gentium Book Basic">
    <tspan
       x="-1783.2122"
       y="421.81256"
       id="tspan34-6" />
  </text>
  <text
     x="-247.30142"
     y="1343.5078"
     transform="scale(4.0128205,0.24920128)"
     id="text36-2"
     style="font-size:46.95375824px;text-anchor:middle;font-family:Arial" />
  <text
     x="-685.16223"
     y="205.34357"
     id="text38-8"
     style="font-size:129.22999573px;line-height:125%;letter-spacing:0;word-spacing:0;font-family:Gentium Book Basic">
    <tspan
       x="-685.16223"
       y="205.34357"
       id="tspan40-3" />
  </text>
  <text
     x="26.337173"
     y="474.84229"
     transform="scale(4.0128205,0.24920128)"
     id="text42-2-4"
     style="font-size:46.95375824px;text-anchor:middle;font-family:Arial" />
  <text
     x="-103.89221"
     y="125.33356"
     id="text44-1"
     style="font-size:129.22999573px;line-height:125%;letter-spacing:0;word-spacing:0;font-family:Gentium Book Basic">
    <tspan
       x="-103.89221"
       y="125.33356"
       id="tspan46-6-0" />
  </text>
  <text
     x="171.18645"
     y="153.80396"
     transform="scale(4.0128205,0.24920128)"
     id="text48-7"
     style="font-size:46.95375824px;text-anchor:middle;font-family:Arial" />
  <text
     x="-493.01221"
     y="-347.06647"
     id="text50-2"
     style="font-size:129.22999573px;line-height:125%;letter-spacing:0;word-spacing:0;font-family:Gentium Book Basic">
    <tspan
       x="-493.01221"
       y="-347.06647"
       id="tspan52-4" />
  </text>
  <text
     x="74.216934"
     y="-1741.8463"
     transform="scale(4.0128205,0.24920128)"
     id="text54-8"
     style="font-size:46.95375824px;text-anchor:middle;font-family:Arial" />
  <text
     x="88.247803"
     y="-427.06647"
     id="text56-7"
     style="font-size:129.22999573px;line-height:125%;letter-spacing:0;word-spacing:0;font-family:Gentium Book Basic">
    <tspan
       x="88.247803"
       y="-427.06647"
       id="tspan58-0" />
  </text>
  <text
     x="219.06621"
     y="-2062.8748"
     transform="scale(4.0128205,0.24920128)"
     id="text60-9"
     style="font-size:46.95375824px;text-anchor:middle;font-family:Arial" />
  <text
     x="-1744.5522"
     y="987.6535"
     id="text62-5"
     style="font-size:208.33000183px;line-height:125%;letter-spacing:0;word-spacing:0;font-family:Gentium Book Basic">
    <tspan
       x="-1744.5522"
       y="987.6535"
       id="tspan64-2" />
  </text>
  <text
     x="-2158.9431"
     y="0.81718713"
     id="text3031-3"
     style="font-size:129.22999573px;line-height:125%;letter-spacing:0;word-spacing:0;font-family:Gentium Book Basic">
    <tspan
       x="-2158.9431"
       y="0.81718713"
       id="tspan3033-9" />
  </text>
  <text
     x="-340.93054"
     y="-345.87991"
     transform="scale(4.0128205,0.24920128)"
     id="text3035-2"
     style="font-size:46.95375824px;text-anchor:middle;font-family:Arial" />
  <text
     x="-1577.6731"
     y="-79.182816"
     id="text3037-9"
     style="font-size:129.22999573px;line-height:125%;letter-spacing:0;word-spacing:0;font-family:Gentium Book Basic">
    <tspan
       x="-1577.6731"
       y="-79.182816"
       id="tspan3039-5" />
  </text>
  <text
     x="-196.08127"
     y="-666.90826"
     transform="scale(4.0128205,0.24920128)"
     id="text3041-6"
     style="font-size:46.95375824px;text-anchor:middle;font-family:Arial" />
  <text
     x="-2649.2532"
     y="-260.44382"
     id="text3043-2"
     style="font-size:129.22999573px;line-height:125%;letter-spacing:0;word-spacing:0;font-family:Gentium Book Basic">
    <tspan
       x="-2649.2532"
       y="-260.44382"
       id="tspan3045-0" />
  </text>
  <text
     x="-463.11993"
     y="-1394.2645"
     transform="scale(4.0128205,0.24920128)"
     id="text3047-2"
     style="font-size:46.95375824px;text-anchor:middle;font-family:Arial" />
  <text
     x="-1551.2031"
     y="-476.91281"
     id="text3049-4"
     style="font-size:129.22999573px;line-height:125%;letter-spacing:0;word-spacing:0;font-family:Gentium Book Basic">
    <tspan
       x="-1551.2031"
       y="-476.91281"
       id="tspan3051-5" />
  </text>
  <text
     x="-189.48132"
     y="-2262.9302"
     transform="scale(4.0128205,0.24920128)"
     id="text3053-0"
     style="font-size:46.95375824px;text-anchor:middle;font-family:Arial" />
  <text
     x="-969.93311"
     y="-556.92285"
     id="text3055-7"
     style="font-size:129.22999573px;line-height:125%;letter-spacing:0;word-spacing:0;font-family:Gentium Book Basic">
    <tspan
       x="-969.93311"
       y="-556.92285"
       id="tspan3057-4" />
  </text>
  <text
     x="-44.63205"
     y="-2583.9685"
     transform="scale(4.0128205,0.24920128)"
     id="text3059-9"
     style="font-size:46.95375824px;text-anchor:middle;font-family:Arial" />
  <text
     x="-1359.0531"
     y="-1029.3229"
     id="text3061-0"
     style="font-size:129.22999573px;line-height:125%;letter-spacing:0;word-spacing:0;font-family:Gentium Book Basic">
    <tspan
       x="-1359.0531"
       y="-1029.3229"
       id="tspan3063-9" />
  </text>
  <text
     x="-141.60156"
     y="-4479.6187"
     transform="scale(4.0128205,0.24920128)"
     id="text3065-8"
     style="font-size:46.95375824px;text-anchor:middle;font-family:Arial" />
  <text
     x="-777.79315"
     y="-1109.3228"
     id="text3067-7"
     style="font-size:129.22999573px;line-height:125%;letter-spacing:0;word-spacing:0;font-family:Gentium Book Basic">
    <tspan
       x="-777.79315"
       y="-1109.3228"
       id="tspan3069-7" />
  </text>
  <text
     x="3.247741"
     y="-4800.647"
     transform="scale(4.0128205,0.24920128)"
     id="text3071-9"
     style="font-size:46.95375824px;text-anchor:middle;font-family:Arial" />
  <text
     x="-2610.5933"
     y="305.39719"
     id="text3073-9"
     style="font-size:208.33000183px;line-height:125%;letter-spacing:0;word-spacing:0;font-family:Gentium Book Basic">
    <tspan
       x="-2610.5933"
       y="305.39719"
       id="tspan3075-2" />
  </text>
  <text
     x="-3039.498"
     y="-191.67686"
     id="text4889-0"
     style="font-size:208.33332825px;line-height:125%;letter-spacing:0;word-spacing:0;font-family:Gentium Book Basic">
    <tspan
       x="-3039.498"
       y="-191.67686"
       id="tspan4891-9" />
  </text>
  <text
     x="-439.71802"
     y="-1332.0574"
     transform="scale(4.0128362,0.2492003)"
     id="text4893-1"
     style="font-size:75.69770813px;text-anchor:middle;font-family:Arial" />
  <text
     x="-3687.2646"
     y="-959.6286"
     id="text4895-6"
     style="font-size:208.33332825px;line-height:125%;letter-spacing:0;word-spacing:0;font-family:Gentium Book Basic">
    <tspan
       x="-3687.2646"
       y="-959.6286"
       id="tspan4897-1" />
  </text>
  <text
     x="-601.1416"
     y="-4413.7217"
     transform="scale(4.0128362,0.2492003)"
     id="text4899-3"
     style="font-size:75.69770813px;text-anchor:middle;font-family:Arial" />
  <text
     x="-2980.9233"
     y="-1115.2604"
     id="text4901-5"
     style="font-size:208.33332825px;line-height:125%;letter-spacing:0;word-spacing:0;font-family:Gentium Book Basic">
    <tspan
       x="-2980.9233"
       y="-1115.2604"
       id="tspan4903-8" />
  </text>
  <text
     x="-425.12119"
     y="-5038.2466"
     transform="scale(4.0128362,0.2492003)"
     id="text4905-1"
     style="font-size:75.69770813px;text-anchor:middle;font-family:Arial" />
  <text
     x="-2508.2314"
     y="170.03752"
     id="text20-6"
     style="font-size:129.22999573px;line-height:125%;letter-spacing:0;word-spacing:0;font-family:Gentium Book Basic">
    <tspan
       x="-2508.2314"
       y="170.03752"
       id="tspan22-4" />
  </text>
  <text
     x="-427.9736"
     y="333.1709"
     transform="scale(4.0128205,0.24920128)"
     id="text24-4"
     style="font-size:46.95375824px;text-anchor:middle;font-family:Arial" />
  <text
     x="-1926.9613"
     y="90.037529"
     id="text26-63"
     style="font-size:129.22999573px;line-height:125%;letter-spacing:0;word-spacing:0;font-family:Gentium Book Basic">
    <tspan
       x="-1926.9613"
       y="90.037529"
       id="tspan28-0" />
  </text>
  <text
     x="-283.12433"
     y="12.142592"
     transform="scale(4.0128205,0.24920128)"
     id="text30-5"
     style="font-size:46.95375824px;text-anchor:middle;font-family:Arial" />
  <text
     x="-2998.5413"
     y="-91.223473"
     id="text32-3"
     style="font-size:129.22999573px;line-height:125%;letter-spacing:0;word-spacing:0;font-family:Gentium Book Basic">
    <tspan
       x="-2998.5413"
       y="-91.223473"
       id="tspan34-0" />
  </text>
  <text
     x="-550.16296"
     y="-715.21375"
     transform="scale(4.0128205,0.24920128)"
     id="text36-5"
     style="font-size:46.95375824px;text-anchor:middle;font-family:Arial" />
  <text
     x="-1900.4913"
     y="-307.69247"
     id="text38-0"
     style="font-size:129.22999573px;line-height:125%;letter-spacing:0;word-spacing:0;font-family:Gentium Book Basic">
    <tspan
       x="-1900.4913"
       y="-307.69247"
       id="tspan40-9" />
  </text>
  <text
     x="-276.52441"
     y="-1583.8793"
     transform="scale(4.0128205,0.24920128)"
     id="text42-7"
     style="font-size:46.95375824px;text-anchor:middle;font-family:Arial" />
  <text
     x="-1319.2213"
     y="-387.70248"
     id="text44-11"
     style="font-size:129.22999573px;line-height:125%;letter-spacing:0;word-spacing:0;font-family:Gentium Book Basic">
    <tspan
       x="-1319.2213"
       y="-387.70248"
       id="tspan46-4" />
  </text>
  <text
     x="-131.67511"
     y="-1904.9175"
     transform="scale(4.0128205,0.24920128)"
     id="text48-77"
     style="font-size:46.95375824px;text-anchor:middle;font-family:Arial" />
  <text
     x="-1708.3413"
     y="-860.10254"
     id="text50-28"
     style="font-size:129.22999573px;line-height:125%;letter-spacing:0;word-spacing:0;font-family:Gentium Book Basic">
    <tspan
       x="-1708.3413"
       y="-860.10254"
       id="tspan52-0" />
  </text>
  <text
     x="-228.64462"
     y="-3800.5679"
     transform="scale(4.0128205,0.24920128)"
     id="text54-4"
     style="font-size:46.95375824px;text-anchor:middle;font-family:Arial" />
  <text
     x="-1127.0813"
     y="-940.10254"
     id="text56-2"
     style="font-size:129.22999573px;line-height:125%;letter-spacing:0;word-spacing:0;font-family:Gentium Book Basic">
    <tspan
       x="-1127.0813"
       y="-940.10254"
       id="tspan58-6" />
  </text>
  <text
     x="-83.795349"
     y="-4121.5962"
     transform="scale(4.0128205,0.24920128)"
     id="text60-5"
     style="font-size:46.95375824px;text-anchor:middle;font-family:Arial" />
  <text
     x="-2959.8813"
     y="474.61752"
     id="text62-7"
     style="font-size:208.33000183px;line-height:125%;letter-spacing:0;word-spacing:0;font-family:Gentium Book Basic">
    <tspan
       x="-2959.8813"
       y="474.61752"
       id="tspan64-3" />
  </text>
  <g
     clip-path="url(#clipPath7588)"
     id="g7212"
     style="opacity:0.25;fill:#000000">
    <path
       d="m 405.9436,257.20232 c -0.0942,11.44303 -97.59597,35.66149 -105.75207,43.68806 l 388.90873,388.90873 c 8.1561,-8.02657 105.65787,-32.24503 105.75207,-43.68806 z"
       inkscape:connector-curvature="0"
       id="path7214"
       style="fill:#000000" />
    <path
       d="m 300.19153,300.89038 c -8.1561,8.02657 -33.91835,105.1337 -45.39385,105.05322 l 388.90873,388.90873 c 11.4755,0.0805 37.23775,-97.02665 45.39385,-105.05322 z"
       inkscape:connector-curvature="0"
       id="path7216"
       style="fill:#000000" />
    <path
       d="m 254.79768,405.9436 c -0.82232,-0.007 -1.71061,-0.51656 -2.65413,-1.46008 l 388.90873,388.90873 c 0.94352,0.94351 1.83181,1.45331 2.65413,1.46008 z"
       inkscape:connector-curvature="0"
       id="path7218"
       style="fill:#000000" />
    <path
       d="m 252.14355,404.48352 c -12.18605,-12.18606 -33.58416,-96.72201 -41.03393,-104.292 l 388.90873,388.90873 c 7.44976,7.56999 28.84788,92.10594 41.03393,104.292 z"
       inkscape:connector-curvature="0"
       id="path7220"
       style="fill:#000000" />
    <path
       d="m 211.10962,300.19152 c -0.007,-0.007 -0.0146,-0.0148 -0.0221,-0.0222 l 388.90873,388.90873 c 0.007,0.007 0.0148,0.0148 0.0221,0.0222 z"
       inkscape:connector-curvature="0"
       id="path7222"
       style="fill:#000000" />
    <path
       d="m 211.08756,300.16928 c -7.56765,-7.56765 -91.0848,-30.15 -103.4936,-42.56777 l 388.90873,388.90873 c 12.4088,12.41777 95.92595,35.00012 103.4936,42.56777 z"
       inkscape:connector-curvature="0"
       id="path7224"
       style="fill:#000000" />
    <path
       d="m 107.59396,257.60151 c -1.00502,-1.00574 -1.54358,-1.94482 -1.53756,-2.80383 l 388.90873,388.90873 c -0.006,0.85901 0.53254,1.79808 1.53756,2.80383 z"
       inkscape:connector-curvature="0"
       id="path7226"
       style="fill:#000000" />
    <path
       d="m 106.0564,254.79768 c 0.0942,-11.44303 97.59598,-35.6615 105.75208,-43.68806 l 388.90873,388.90873 c -8.1561,8.02656 -105.65788,32.24503 -105.75208,43.68806 z"
       inkscape:connector-curvature="0"
       id="path7228"
       style="fill:#000000" />
    <path
       d="m 211.80848,211.10962 c 8.15609,-8.02657 33.91834,-105.1337 45.39385,-105.05322 l 388.90873,388.90873 c -11.47551,-0.0805 -37.23776,97.02665 -45.39385,105.05322 z"
       inkscape:connector-curvature="0"
       id="path7230"
       style="fill:#000000" />
    <path
       d="m 257.20233,106.0564 c 0.82232,0.007 1.71061,0.51656 2.65412,1.46008 l 388.90873,388.90873 c -0.94351,-0.94352 -1.8318,-1.45331 -2.65412,-1.46008 z"
       inkscape:connector-curvature="0"
       id="path7232"
       style="fill:#000000" />
    <path
       d="m 259.85645,107.51648 c 12.18605,12.18605 33.58417,96.722 41.03393,104.29199 L 689.79911,600.7172 c -7.44976,-7.56999 -28.84788,-92.10594 -41.03393,-104.29199 z"
       inkscape:connector-curvature="0"
       id="path7234"
       style="fill:#000000" />
    <path
       d="m 300.89038,211.80847 c 0.007,0.007 0.0146,0.0148 0.0221,0.0222 L 689.82121,600.7394 c -0.007,-0.007 -0.0148,-0.0148 -0.0221,-0.0222 z"
       inkscape:connector-curvature="0"
       id="path7236"
       style="fill:#000000" />
    <path
       d="m 300.91244,211.83071 c 7.56766,7.56766 91.08479,30.15001 103.4936,42.56777 L 793.31477,643.30721 C 780.90596,630.88945 697.38883,608.3071 689.82117,600.73944 z"
       inkscape:connector-curvature="0"
       id="path7238"
       style="fill:#000000" />
    <path
       d="m 404.40604,254.39848 c 1.00502,1.00575 1.54359,1.94482 1.53756,2.80384 l 388.90873,388.90873 c 0.006,-0.85902 -0.53254,-1.79809 -1.53756,-2.80384 z"
       inkscape:connector-curvature="0"
       id="path7240"
       style="fill:#000000" />
  </g>
  <path
     d="m 405.9436,257.20232 c -0.0942,11.44303 -97.59597,35.66149 -105.75207,43.68806 -8.1561,8.02657 -33.91835,105.1337 -45.39385,105.05322 -11.44303,-0.0942 -35.66149,-97.59598 -43.68806,-105.75208 -8.02656,-8.15609 -105.1337,-33.91834 -105.05322,-45.39384 0.0942,-11.44303 97.59598,-35.6615 105.75208,-43.68806 8.15609,-8.02657 33.91834,-105.1337 45.39385,-105.05322 11.44302,0.0942 35.66149,97.59597 43.68805,105.75207 8.02657,8.1561 105.13371,33.91835 105.05322,45.39385"
     inkscape:connector-curvature="0"
     id="path55"
     style="fill:#ffffff" />
</svg>
