<?xml version="1.0" encoding="UTF-8" standalone="no"?>
<!-- Created with Inkscape (http://www.inkscape.org/) -->

<svg
   xmlns:dc="http://purl.org/dc/elements/1.1/"
   xmlns:cc="http://creativecommons.org/ns#"
   xmlns:rdf="http://www.w3.org/1999/02/22-rdf-syntax-ns#"
   xmlns:svg="http://www.w3.org/2000/svg"
   xmlns="http://www.w3.org/2000/svg"
   xmlns:inkscape="http://www.inkscape.org/namespaces/inkscape"
   version="1.1"
   width="100%"
   height="100%"
   viewBox="0 0 512 512"
   id="svg2">
  <metadata
     id="metadata70">
    <rdf:RDF>
      <cc:Work
         rdf:about="">
        <dc:format>image/svg+xml</dc:format>
        <dc:type
           rdf:resource="http://purl.org/dc/dcmitype/StillImage" />
        <dc:title />
      </cc:Work>
    </rdf:RDF>
  </metadata>
  <defs
     id="defs68">
    <clipPath
       id="clipPath3603">
      <path
         d="m 471.9456,253.05189 c 0,120.89699 -98.00565,218.90724 -218.90724,218.90724 -120.89698,0 -218.90723,-98.00566 -218.90723,-218.90724 0,-120.89698 98.00565,-218.907232 218.90723,-218.907232 120.89699,0 218.90724,98.005652 218.90724,218.907232"
         inkscape:connector-curvature="0"
         id="path3605"
         style="fill:#bc4242;fill-opacity:1;fill-rule:evenodd" />
    </clipPath>
  </defs>
  <path
     d="m 471.9456,253.05189 c 0,120.89699 -98.00565,218.90724 -218.90724,218.90724 -120.89698,0 -218.90723,-98.00566 -218.90723,-218.90724 0,-120.89698 98.00565,-218.907232 218.90723,-218.907232 120.89699,0 218.90724,98.005652 218.90724,218.907232"
     inkscape:connector-curvature="0"
     id="path8"
     style="fill:#bc4242;fill-opacity:1;fill-rule:evenodd" />
  <path
     d="M 256,1 C 115.17,1 1,115.17 1,256 1,396.83 115.17,511 256,511 396.83,511 511,396.83 511,256 511,115.17 396.83,1 256,1 m 8.827,44.931 c 120.9,0 218.9,98 218.9,218.9 0,120.9 -98,218.9 -218.9,218.9 -120.9,0 -218.93,-98 -218.93,-218.9 0,-120.9 98.03,-218.9 218.93,-218.9"
     inkscape:connector-curvature="0"
     id="path10"
     style="fill-opacity:0.06700003;fill-rule:evenodd" />
  <path
     d="M 256,4.43 C 117.06,4.43 4.43,117.06 4.43,256 4.43,394.94 117.06,507.57 256,507.57 394.94,507.57 507.57,394.94 507.57,256 507.57,117.06 394.94,4.43 256,4.43 m 5.885,38.556 c 120.9,0 218.9,98 218.9,218.9 0,120.9 -98,218.9 -218.9,218.9 -120.9,0 -218.93,-98 -218.93,-218.9 0,-120.9 98.03,-218.9 218.93,-218.9"
     inkscape:connector-curvature="0"
     id="path14"
     style="fill-opacity:0.12900002;fill-rule:evenodd" />
  <path
     d="M 256,8.36 C 119.23,8.36 8.36,119.23 8.36,256 8.36,392.77 119.23,503.64 256,503.64 392.77,503.64 503.64,392.77 503.64,256 503.64,119.23 392.77,8.36 256,8.36 m 2.942,31.691 c 120.9,0 218.9,98 218.9,218.9 0,120.9 -98,218.9 -218.9,218.9 -120.9,0 -218.93,-98 -218.93,-218.9 0,-120.9 98.03,-218.9 218.93,-218.9"
     inkscape:connector-curvature="0"
     id="path16"
     style="fill-opacity:0.12900002;fill-rule:evenodd" />
  <path
     d="M 253.04,7.86 C 117.62,7.86 7.85,117.64 7.85,253.05 c 0,135.42 109.78,245.19 245.19,245.19 135.42,0 245.19,-109.78 245.19,-245.19 C 498.23,117.63 388.45,7.86 253.04,7.86 z m 0,26.297 c 120.9,0 218.9,98 218.9,218.9 0,120.9 -98,218.9 -218.9,218.9 -120.9,0 -218.93,-98 -218.93,-218.9 0,-120.9 98.03,-218.9 218.93,-218.9 z"
     inkscape:connector-curvature="0"
     id="path18"
     style="fill:#ffffff;fill-rule:evenodd;stroke:#000000;stroke-width:4.90399981;stroke-opacity:0.31000001" />
  <text
     x="729.64001"
     y="231.35997"
     id="text20"
     style="font-size:129.22999573px;line-height:125%;letter-spacing:0;word-spacing:0;font-family:Gentium Book Basic">
    <tspan
       x="729.64001"
       y="231.35997"
       id="tspan22" />
  </text>
  <text
     x="378.90805"
     y="579.25812"
     transform="scale(4.0128205,0.24920128)"
     id="text24"
     style="font-size:46.95375824px;text-anchor:middle;font-family:Arial" />
  <text
     x="1310.91"
     y="151.35997"
     id="text26"
     style="font-size:129.22999573px;line-height:125%;letter-spacing:0;word-spacing:0;font-family:Gentium Book Basic">
    <tspan
       x="1310.91"
       y="151.35997"
       id="tspan28" />
  </text>
  <text
     x="523.75732"
     y="258.21997"
     transform="scale(4.0128205,0.24920128)"
     id="text30"
     style="font-size:46.95375824px;text-anchor:middle;font-family:Arial" />
  <text
     x="239.33"
     y="-29.900009"
     id="text32"
     style="font-size:129.22999573px;line-height:125%;letter-spacing:0;word-spacing:0;font-family:Gentium Book Basic">
    <tspan
       x="239.33"
       y="-29.900009"
       id="tspan34" />
  </text>
  <text
     x="256.71869"
     y="-469.1264"
     transform="scale(4.0128205,0.24920128)"
     id="text36"
     style="font-size:46.95375824px;text-anchor:middle;font-family:Arial" />
  <text
     x="1337.38"
     y="-246.37001"
     id="text38"
     style="font-size:129.22999573px;line-height:125%;letter-spacing:0;word-spacing:0;font-family:Gentium Book Basic">
    <tspan
       x="1337.38"
       y="-246.37001"
       id="tspan40" />
  </text>
  <text
     x="530.3573"
     y="-1337.802"
     transform="scale(4.0128205,0.24920128)"
     id="text42"
     style="font-size:46.95375824px;text-anchor:middle;font-family:Arial" />
  <text
     x="1918.65"
     y="-326.37"
     id="text44"
     style="font-size:129.22999573px;line-height:125%;letter-spacing:0;word-spacing:0;font-family:Gentium Book Basic">
    <tspan
       x="1918.65"
       y="-326.37"
       id="tspan46" />
  </text>
  <text
     x="675.20654"
     y="-1658.8303"
     transform="scale(4.0128205,0.24920128)"
     id="text48"
     style="font-size:46.95375824px;text-anchor:middle;font-family:Arial" />
  <text
     x="1529.53"
     y="-798.77002"
     id="text50"
     style="font-size:129.22999573px;line-height:125%;letter-spacing:0;word-spacing:0;font-family:Gentium Book Basic">
    <tspan
       x="1529.53"
       y="-798.77002"
       id="tspan52" />
  </text>
  <text
     x="578.237"
     y="-3554.4807"
     transform="scale(4.0128205,0.24920128)"
     id="text54"
     style="font-size:46.95375824px;text-anchor:middle;font-family:Arial" />
  <text
     x="2110.79"
     y="-878.78003"
     id="text56"
     style="font-size:129.22999573px;line-height:125%;letter-spacing:0;word-spacing:0;font-family:Gentium Book Basic">
    <tspan
       x="2110.79"
       y="-878.78003"
       id="tspan58" />
  </text>
  <text
     x="723.0863"
     y="-3875.519"
     transform="scale(4.0128205,0.24920128)"
     id="text60"
     style="font-size:46.95375824px;text-anchor:middle;font-family:Arial" />
  <text
     x="277.98999"
     y="535.94006"
     id="text62"
     style="font-size:208.33000183px;line-height:125%;letter-spacing:0;word-spacing:0;font-family:Gentium Book Basic">
    <tspan
       x="277.98999"
       y="535.94006"
       id="tspan64" />
  </text>
  <g
     clip-path="url(#clipPath3603)"
     id="g3341"
     style="opacity:0.25;fill:#000000">
    <path
       d="m 152.8051,134.55206 c -19.48665,0 -35.15642,15.69372 -35.15642,35.18202 l 388.90873,388.90873 c 0,-19.4883 15.66977,-35.18202 35.15642,-35.18202 z"
       inkscape:connector-curvature="0"
       id="path3343"
       style="fill:#000000" />
    <path
       d="m 117.64868,169.73408 0,172.53184 388.90873,388.90873 0,-172.53184 z"
       inkscape:connector-curvature="0"
       id="path3345"
       style="fill:#000000" />
    <path
       d="m 117.64868,342.26592 c 0,9.74983 3.92247,18.55057 10.28313,24.91124 l 388.90873,388.90873 c -6.36066,-6.36067 -10.28313,-15.16141 -10.28313,-24.91124 z"
       inkscape:connector-curvature="0"
       id="path3347"
       style="fill:#000000" />
    <path
       d="m 127.93181,367.17716 c 6.35218,6.35217 15.13605,10.27078 24.87329,10.27078 l 388.90873,388.90873 c -9.73724,0 -18.52111,-3.91861 -24.87329,-10.27078 z"
       inkscape:connector-curvature="0"
       id="path3349"
       style="fill:#000000" />
    <path
       d="m 152.8051,377.44794 206.3642,0 388.90873,388.90873 -206.3642,0 z"
       inkscape:connector-curvature="0"
       id="path3351"
       style="fill:#000000" />
    <path
       d="m 359.1693,377.44794 c 19.48664,0 35.18202,-15.69372 35.18202,-35.18202 l 388.90873,388.90873 c 0,19.4883 -15.69538,35.18202 -35.18202,35.18202 z"
       inkscape:connector-curvature="0"
       id="path3353"
       style="fill:#000000" />
    <path
       d="m 394.35132,342.26592 0,-172.52358 388.90873,388.90873 0,172.52358 z"
       inkscape:connector-curvature="0"
       id="path3355"
       style="fill:#000000" />
    <path
       d="m 394.35132,169.74234 c 0,-9.74353 -3.9236,-18.5392 -10.2833,-24.89891 l 388.90873,388.90873 c 6.3597,6.35971 10.2833,15.15538 10.2833,24.89891 z"
       inkscape:connector-curvature="0"
       id="path3357"
       style="fill:#000000" />
    <path
       d="M 384.06802,144.84343 C 377.70858,138.484 368.91324,134.56032 359.1693,134.56032 l 388.90873,388.90873 c 9.74394,0 18.53928,3.92368 24.89872,10.28311 z"
       inkscape:connector-curvature="0"
       id="path3359"
       style="fill:#000000" />
    <path
       d="m 359.1693,134.56032 -206.3642,0 388.90873,388.90873 206.3642,0 z"
       inkscape:connector-curvature="0"
       id="path3361"
       style="fill:#000000" />
    <path
       d="m 149.34587,158.33301 36.45074,0 388.90873,388.90873 -36.45074,0 z"
       inkscape:connector-curvature="0"
       id="path3363"
       style="fill:#000000" />
    <path
       d="m 185.79661,158.33301 0,29.14076 388.90873,388.90873 0,-29.14076 z"
       inkscape:connector-curvature="0"
       id="path3365"
       style="fill:#000000" />
    <path
       d="m 185.79661,187.47377 -36.44248,0 388.90873,388.90873 36.44248,0 z"
       inkscape:connector-curvature="0"
       id="path3367"
       style="fill:#000000" />
    <path
       d="m 149.35413,187.47377 0,-29.14076 388.90873,388.90873 0,29.14076 z"
       inkscape:connector-curvature="0"
       id="path3369"
       style="fill:#000000" />
    <path
       d="m 326.22239,158.33301 36.45074,0 388.90873,388.90873 -36.45074,0 z"
       inkscape:connector-curvature="0"
       id="path3371"
       style="fill:#000000" />
    <path
       d="m 362.67313,158.33301 0,29.14076 388.90873,388.90873 0,-29.14076 z"
       inkscape:connector-curvature="0"
       id="path3373"
       style="fill:#000000" />
    <path
       d="m 362.67313,187.47377 -36.44248,0 388.90873,388.90873 36.44248,0 z"
       inkscape:connector-curvature="0"
       id="path3375"
       style="fill:#000000" />
    <path
       d="m 326.23065,187.47377 0,-29.14076 388.90873,388.90873 0,29.14076 z"
       inkscape:connector-curvature="0"
       id="path3377"
       style="fill:#000000" />
    <path
       d="m 149.37065,199.86355 36.45074,0 388.90873,388.90873 -36.45074,0 z"
       inkscape:connector-curvature="0"
       id="path3379"
       style="fill:#000000" />
    <path
       d="m 185.82139,199.86355 0,29.16555 388.90873,388.90873 0,-29.16555 z"
       inkscape:connector-curvature="0"
       id="path3381"
       style="fill:#000000" />
    <path
       d="m 185.82139,229.0291 -36.44248,0 388.90873,388.90873 36.44248,0 z"
       inkscape:connector-curvature="0"
       id="path3383"
       style="fill:#000000" />
    <path
       d="m 149.37891,229.0291 0,-29.16555 388.90873,388.90873 0,29.16555 z"
       inkscape:connector-curvature="0"
       id="path3385"
       style="fill:#000000" />
    <path
       d="m 326.24717,199.86355 36.45074,0 388.90873,388.90873 -36.45074,0 z"
       inkscape:connector-curvature="0"
       id="path3387"
       style="fill:#000000" />
    <path
       d="m 362.69791,199.86355 0,29.16555 388.90873,388.90873 0,-29.16555 z"
       inkscape:connector-curvature="0"
       id="path3389"
       style="fill:#000000" />
    <path
       d="m 362.69791,229.0291 -36.44248,0 388.90873,388.90873 36.44248,0 z"
       inkscape:connector-curvature="0"
       id="path3391"
       style="fill:#000000" />
    <path
       d="m 326.25543,229.0291 0,-29.16555 388.90873,388.90873 0,29.16555 z"
       inkscape:connector-curvature="0"
       id="path3393"
       style="fill:#000000" />
    <path
       d="m 149.39543,241.41888 36.45074,0 388.90873,388.90873 -36.45074,0 z"
       inkscape:connector-curvature="0"
       id="path3395"
       style="fill:#000000" />
    <path
       d="m 185.84617,241.41888 0,29.14076 388.90873,388.90873 0,-29.14076 z"
       inkscape:connector-curvature="0"
       id="path3397"
       style="fill:#000000" />
    <path
       d="m 185.84617,270.55964 -36.44248,0 388.90873,388.90873 36.44248,0 z"
       inkscape:connector-curvature="0"
       id="path3399"
       style="fill:#000000" />
    <path
       d="m 149.40369,270.55964 0,-29.14076 388.90873,388.90873 0,29.14076 z"
       inkscape:connector-curvature="0"
       id="path3401"
       style="fill:#000000" />
    <path
       d="m 326.27195,241.41888 36.45074,0 388.90873,388.90873 -36.45074,0 z"
       inkscape:connector-curvature="0"
       id="path3403"
       style="fill:#000000" />
    <path
       d="m 362.72269,241.41888 0,29.14076 388.90873,388.90873 0,-29.14076 z"
       inkscape:connector-curvature="0"
       id="path3405"
       style="fill:#000000" />
    <path
       d="m 362.72269,270.55964 -36.44248,0 388.90873,388.90873 36.44248,0 z"
       inkscape:connector-curvature="0"
       id="path3407"
       style="fill:#000000" />
    <path
       d="m 326.28021,270.55964 0,-29.14076 388.90873,388.90873 0,29.14076 z"
       inkscape:connector-curvature="0"
       id="path3409"
       style="fill:#000000" />
    <path
       d="m 149.42021,282.94943 36.45074,0 388.90873,388.90873 -36.45074,0 z"
       inkscape:connector-curvature="0"
       id="path3411"
       style="fill:#000000" />
    <path
       d="m 185.87095,282.94943 0,29.16554 388.90873,388.90873 0,-29.16554 z"
       inkscape:connector-curvature="0"
       id="path3413"
       style="fill:#000000" />
    <path
       d="m 185.87095,312.11497 -36.44248,0 388.90873,388.90873 36.44248,0 z"
       inkscape:connector-curvature="0"
       id="path3415"
       style="fill:#000000" />
    <path
       d="m 149.42847,312.11497 0,-29.16554 388.90873,388.90873 0,29.16554 z"
       inkscape:connector-curvature="0"
       id="path3417"
       style="fill:#000000" />
    <path
       d="m 326.29673,282.94943 36.45073,0 388.90873,388.90873 -36.45073,0 z"
       inkscape:connector-curvature="0"
       id="path3419"
       style="fill:#000000" />
    <path
       d="m 362.74746,282.94943 0,29.16554 388.90873,388.90873 0,-29.16554 z"
       inkscape:connector-curvature="0"
       id="path3421"
       style="fill:#000000" />
    <path
       d="m 362.74746,312.11497 -36.44247,0 388.90873,388.90873 36.44247,0 z"
       inkscape:connector-curvature="0"
       id="path3423"
       style="fill:#000000" />
    <path
       d="m 326.30499,312.11497 0,-29.16554 388.90873,388.90873 0,29.16554 z"
       inkscape:connector-curvature="0"
       id="path3425"
       style="fill:#000000" />
    <path
       d="m 149.44499,324.50475 36.45074,0 388.90873,388.90873 -36.45074,0 z"
       inkscape:connector-curvature="0"
       id="path3427"
       style="fill:#000000" />
    <path
       d="m 185.89573,324.50475 0,29.14077 388.90873,388.90873 0,-29.14077 z"
       inkscape:connector-curvature="0"
       id="path3429"
       style="fill:#000000" />
    <path
       d="m 185.89573,353.64552 -36.44248,0 388.90873,388.90873 36.44248,0 z"
       inkscape:connector-curvature="0"
       id="path3431"
       style="fill:#000000" />
    <path
       d="m 149.45325,353.64552 0,-29.14077 388.90873,388.90873 0,29.14077 z"
       inkscape:connector-curvature="0"
       id="path3433"
       style="fill:#000000" />
    <path
       d="m 326.32151,324.50475 36.45073,0 388.90873,388.90873 -36.45073,0 z"
       inkscape:connector-curvature="0"
       id="path3435"
       style="fill:#000000" />
    <path
       d="m 362.77224,324.50475 0,29.14077 388.90873,388.90873 0,-29.14077 z"
       inkscape:connector-curvature="0"
       id="path3437"
       style="fill:#000000" />
    <path
       d="m 362.77224,353.64552 -36.44247,0 388.90873,388.90873 36.44247,0 z"
       inkscape:connector-curvature="0"
       id="path3439"
       style="fill:#000000" />
    <path
       d="m 326.32977,353.64552 0,-29.14077 388.90873,388.90873 0,29.14077 z"
       inkscape:connector-curvature="0"
       id="path3441"
       style="fill:#000000" />
  </g>
  <path
     d="m 152.8051,134.55206 c -19.48665,0 -35.15642,15.69372 -35.15642,35.18202 v 172.53184 c 0,19.48665 15.66894,35.18202 35.15642,35.18202 h 206.3642 c 19.48664,0 35.18202,-15.69372 35.18202,-35.18202 V 169.74234 c 0,-19.48665 -15.69372,-35.18202 -35.18202,-35.18202 H 152.8051 m -3.45923,23.77269 h 36.45074 v 29.14076 h -36.44248 v -29.14076 m 176.86826,0 h 36.45074 v 29.14076 h -36.44248 v -29.14076 m -176.86,41.53054 h 36.45074 v 29.16555 h -36.44248 v -29.16555 m 176.86826,0 h 36.45074 v 29.16555 h -36.44248 v -29.16555 m -176.86,41.55533 h 36.45074 v 29.14076 h -36.44248 v -29.14076 m 176.86826,0 h 36.45074 v 29.14076 h -36.44248 v -29.14076 m -176.86,41.53055 h 36.45074 v 29.16554 h -36.44248 v -29.16554 m 176.86826,0 h 36.45073 v 29.16554 h -36.44247 v -29.16554 m -176.86,41.55532 h 36.45074 v 29.14077 h -36.44248 v -29.14077 m 176.86826,0 h 36.45073 v 29.14077 h -36.44247 v -29.14077"
     inkscape:connector-curvature="0"
     id="path3088"
     style="fill:#ffffff" />
</svg>
