<?xml version="1.0" encoding="UTF-8" standalone="no"?>
<!-- Created with Inkscape (http://www.inkscape.org/) -->

<svg
   xmlns:dc="http://purl.org/dc/elements/1.1/"
   xmlns:cc="http://creativecommons.org/ns#"
   xmlns:rdf="http://www.w3.org/1999/02/22-rdf-syntax-ns#"
   xmlns:svg="http://www.w3.org/2000/svg"
   xmlns="http://www.w3.org/2000/svg"
   xmlns:inkscape="http://www.inkscape.org/namespaces/inkscape"
   version="1.1"
   width="100%"
   height="100%"
   viewBox="0 0 512 512"
   id="svg2">
  <metadata
     id="metadata72">
    <rdf:RDF>
      <cc:Work
         rdf:about="">
        <dc:format>image/svg+xml</dc:format>
        <dc:type
           rdf:resource="http://purl.org/dc/dcmitype/StillImage" />
      </cc:Work>
    </rdf:RDF>
  </metadata>
  <defs
     id="defs70" />
  <path
     d="m 471.95,253.05 c 0,120.9 -98.01,218.9 -218.9,218.9 -120.9,0 -218.9,-98.01 -218.9,-218.9 0,-120.9 98.01,-218.9 218.9,-218.9 120.9,0 218.9,98.01 218.9,218.9"
     inkscape:connector-curvature="0"
     id="path4"
     style="fill:#dd4b38;fill-rule:evenodd" />
  <path
     d="m 209.78,105.84 c -41.815,0.563 -86.21,32.3 -84.44,77.16 1.893,36.885 37.443,56.647 59.19,81.906 46.26,46.26 12.804,24.274 -9.5,21.22 -32.697,5.363 -70.11,28.833 -69.09,65.781 2.133,12.468 8.04,22.717 15.688,31.875 27.586,26.825 55.721,54.861 83.72,82.938 15.355,3.412 31.3,5.25 47.688,5.25 114.32,0 208.16,-87.65 218.03,-199.41 -38.02,-38.13 -73.833,-74.11 -89.44,-89.72 -2.064,0.147 -1.445,0.854 -2.5,-0.188 -23.763,-23.447 -49.18,-48.77 -77,-76.59 -7.06,-0.018 -79.13,-0.047 -86.19,-0.063 -2.038,-0.125 -4.1,-0.184 -6.156,-0.156"
     inkscape:connector-curvature="0"
     id="path6"
     style="fill-opacity:0.23500001" />
  <g
     id="g8"
     style="fill-rule:evenodd">
    <path
       d="M 256,1 C 115.17,1 1,115.17 1,256 1,396.83 115.17,511 256,511 396.83,511 511,396.83 511,256 511,115.17 396.83,1 256,1 m 8.827,44.931 c 120.9,0 218.9,98 218.9,218.9 0,120.9 -98,218.9 -218.9,218.9 -120.9,0 -218.93,-98 -218.93,-218.9 0,-120.9 98.03,-218.9 218.93,-218.9"
       inkscape:connector-curvature="0"
       id="path10"
       style="fill-opacity:0.06700003" />
    <g
       id="g12"
       style="fill-opacity:0.12900002">
      <path
         d="m 256,4.433 c -138.94,0 -251.57,112.63 -251.57,251.57 0,138.94 112.63,251.57 251.57,251.57 138.94,0 251.57,-112.63 251.57,-251.57 C 507.57,117.063 394.94,4.433 256,4.433 m 5.885,38.556 c 120.9,0 218.9,98 218.9,218.9 0,120.9 -98,218.9 -218.9,218.9 -120.9,0 -218.93,-98 -218.93,-218.9 0,-120.9 98.03,-218.9 218.93,-218.9"
         inkscape:connector-curvature="0"
         id="path14" />
      <path
         d="m 256,8.356 c -136.77,0 -247.64,110.87 -247.64,247.64 0,136.77 110.87,247.64 247.64,247.64 136.77,0 247.64,-110.87 247.64,-247.64 C 503.64,119.226 392.77,8.356 256,8.356 m 2.942,31.691 c 120.9,0 218.9,98 218.9,218.9 0,120.9 -98,218.9 -218.9,218.9 -120.9,0 -218.93,-98 -218.93,-218.9 0,-120.9 98.03,-218.9 218.93,-218.9"
         inkscape:connector-curvature="0"
         id="path16" />
    </g>
    <path
       d="m 253.04,7.859 c -135.42,0 -245.19,109.78 -245.19,245.19 0,135.42 109.78,245.19 245.19,245.19 135.42,0 245.19,-109.78 245.19,-245.19 0,-135.42 -109.78,-245.19 -245.19,-245.19 z m 0,26.297 c 120.9,0 218.9,98 218.9,218.9 0,120.9 -98,218.9 -218.9,218.9 -120.9,0 -218.93,-98 -218.93,-218.9 0,-120.9 98.03,-218.9 218.93,-218.9 z"
       inkscape:connector-curvature="0"
       id="path18"
       style="fill:#ffffff;stroke:#000000;stroke-width:4.90399981;stroke-opacity:0.31000001" />
  </g>
  <text
     x="729.64001"
     y="231.36"
     id="text20"
     style="font-size:129.22999573px;line-height:125%;letter-spacing:0;word-spacing:0;font-family:Gentium Book Basic">
    <tspan
       x="729.64001"
       y="231.36"
       id="tspan22" />
  </text>
  <text
     x="378.91"
     y="579.25"
     transform="scale(4.0128,0.2492)"
     id="text24"
     style="font-size:46.95399857px;text-anchor:middle;font-family:Arial" />
  <text
     x="1310.91"
     y="151.36"
     id="text26"
     style="font-size:129.22999573px;line-height:125%;letter-spacing:0;word-spacing:0;font-family:Gentium Book Basic">
    <tspan
       x="1310.91"
       y="151.36"
       id="tspan28" />
  </text>
  <text
     x="523.76001"
     y="258.22"
     transform="scale(4.0128,0.2492)"
     id="text30"
     style="font-size:46.95399857px;text-anchor:middle;font-family:Arial" />
  <text
     x="239.33"
     y="-29.900999"
     id="text32"
     style="font-size:129.22999573px;line-height:125%;letter-spacing:0;word-spacing:0;font-family:Gentium Book Basic">
    <tspan
       x="239.33"
       y="-29.900999"
       id="tspan34" />
  </text>
  <text
     x="256.72"
     y="-469.14001"
     transform="scale(4.0128,0.2492)"
     id="text36"
     style="font-size:46.95399857px;text-anchor:middle;font-family:Arial" />
  <text
     x="1337.38"
     y="-246.37"
     id="text38"
     style="font-size:129.22999573px;line-height:125%;letter-spacing:0;word-spacing:0;font-family:Gentium Book Basic">
    <tspan
       x="1337.38"
       y="-246.37"
       id="tspan40" />
  </text>
  <text
     x="530.35999"
     y="-1337.8101"
     transform="scale(4.0128,0.2492)"
     id="text42"
     style="font-size:46.95399857px;text-anchor:middle;font-family:Arial" />
  <text
     x="1918.65"
     y="-326.38"
     id="text44"
     style="font-size:129.22999573px;line-height:125%;letter-spacing:0;word-spacing:0;font-family:Gentium Book Basic">
    <tspan
       x="1918.65"
       y="-326.38"
       id="tspan46" />
  </text>
  <text
     x="675.21002"
     y="-1658.85"
     transform="scale(4.0128,0.2492)"
     id="text48"
     style="font-size:46.95399857px;text-anchor:middle;font-family:Arial" />
  <text
     x="1529.53"
     y="-798.78003"
     id="text50"
     style="font-size:129.22999573px;line-height:125%;letter-spacing:0;word-spacing:0;font-family:Gentium Book Basic">
    <tspan
       x="1529.53"
       y="-798.78003"
       id="tspan52" />
  </text>
  <text
     x="578.23999"
     y="-3554.51"
     transform="scale(4.0128,0.2492)"
     id="text54"
     style="font-size:46.95399857px;text-anchor:middle;font-family:Arial" />
  <text
     x="2110.79"
     y="-878.78003"
     id="text56"
     style="font-size:129.22999573px;line-height:125%;letter-spacing:0;word-spacing:0;font-family:Gentium Book Basic">
    <tspan
       x="2110.79"
       y="-878.78003"
       id="tspan58" />
  </text>
  <text
     x="723.09003"
     y="-3875.54"
     transform="scale(4.0128,0.2492)"
     id="text60"
     style="font-size:46.95399857px;text-anchor:middle;font-family:Arial" />
  <text
     x="277.98999"
     y="535.94"
     id="text62"
     style="font-size:208.33000183px;line-height:125%;letter-spacing:0;word-spacing:0;font-family:Gentium Book Basic">
    <tspan
       x="277.98999"
       y="535.94"
       id="tspan64" />
  </text>
  <path
     d="m 215.94,106 c -3.55,-0.001 -11.879,0.196 -21.813,2 -23.478,4.247 -55.941,19.746 -65.12,52.03 -14.205,49.93 22.375,69.75 22.375,69.75 0,0 12.804,7.523 18.09,9 15.9,4.438 32.813,2.375 32.813,2.375 0,0 -6.74,22.35 6.781,38.13 3.228,3.766 0.875,3.875 0.875,3.875 0,0 -59.08,-1.511 -87.06,28.19 -27.978,29.7 -12.813,57.03 -12.813,57.03 0,0 14.666,35.756 77.938,37.563 63.55,1.813 102.85,-35.838 106.28,-64.25 1.727,-14.281 -0.219,-27.643 -7.375,-39.34 -6.958,-11.38 -18.921,-21.17 -30.594,-30.719 -7.253,-5.934 -12.311,-8.994 -15.563,-12.406 -3.071,-3.223 -3.578,-7.385 -3.469,-10.5 0.16,-4.35 2.433,-9.664 10.06,-18.5 13.917,-16.12 17.467,-14.12 25.875,-26.19 2.519,-3.617 4.35,-8.889 6.938,-16.75 1.56,-4.736 1.313,-9.654 1.313,-14.219 0,-9.869 -2.369,-19.26 -6.313,-27.19 -7.327,-14.732 -19.915,-24.309 -20.16,-25.03 h 22.06 l 24.969,-14.625 -84.25,-0.219 c 0,0 -0.659,0 -1.844,0 m -18.09,13.688 c 12.85,0.096 32.15,6.765 43.719,41.469 19.851,59.55 -21.719,68.63 -21.719,68.63 0,0 -47.649,7.337 -56.41,-45.625 -8.92,-53.951 12.812,-56.861 21.313,-62.19 0,0 5.384,-2.333 13.09,-2.281 m 150.16,63 v 56.844 h -56.53 v 33.719 h 56.53 v 56.06 h 33.719 v -56.06 h 56.38 V 239.54 h -56.37 v -56.844 h -33.719 m -123.84,112.47 c 0,0 37.933,23.24 41.5,40.28 3.996,19.09 4.239,32.991 -24.719,48.22 -8.549,4.496 -23.551,5.02 -33,5.063 -23.22,0.096 -40.738,-8.832 -49.41,-13.313 -4.505,-2.33 -29.525,-30.429 -11,-55.56 4.66,-6.322 9.796,-9.123 14.594,-12.344 10.21,-6.855 20.23,-10.07 39.13,-11.719 6.285,-0.549 14.683,-0.07 22.906,-0.625"
     inkscape:connector-curvature="0"
     id="path66"
     style="fill:#ffffff" />
</svg>
