<?xml version="1.0" encoding="UTF-8" standalone="no"?>
<!-- Created with Inkscape (http://www.inkscape.org/) -->

<svg
   xmlns:dc="http://purl.org/dc/elements/1.1/"
   xmlns:cc="http://creativecommons.org/ns#"
   xmlns:rdf="http://www.w3.org/1999/02/22-rdf-syntax-ns#"
   xmlns:svg="http://www.w3.org/2000/svg"
   xmlns="http://www.w3.org/2000/svg"
   xmlns:inkscape="http://www.inkscape.org/namespaces/inkscape"
   version="1.1"
   width="100%"
   height="100%"
   viewBox="0 0 512 512"
   id="svg2">
  <metadata
     id="metadata70">
    <rdf:RDF>
      <cc:Work
         rdf:about="">
        <dc:format>image/svg+xml</dc:format>
        <dc:type
           rdf:resource="http://purl.org/dc/dcmitype/StillImage" />
        <dc:title />
      </cc:Work>
    </rdf:RDF>
  </metadata>
  <defs
     id="defs68">
    <clipPath
       id="clipPath3308">
      <path
         d="m 471.9456,253.05189 c 0,120.89699 -98.00565,218.90724 -218.90724,218.90724 -120.89698,0 -218.90723,-98.00566 -218.90723,-218.90724 0,-120.89698 98.00565,-218.907232 218.90723,-218.907232 120.89699,0 218.90724,98.005652 218.90724,218.907232"
         inkscape:connector-curvature="0"
         id="path3310"
         style="fill:#ee604f;fill-opacity:1;fill-rule:evenodd" />
    </clipPath>
  </defs>
  <path
     d="m 471.9456,253.05189 c 0,120.89699 -98.00565,218.90724 -218.90724,218.90724 -120.89698,0 -218.90723,-98.00566 -218.90723,-218.90724 0,-120.89698 98.00565,-218.907232 218.90723,-218.907232 120.89699,0 218.90724,98.005652 218.90724,218.907232"
     inkscape:connector-curvature="0"
     id="path8"
     style="fill:#ee604f;fill-opacity:1;fill-rule:evenodd" />
  <path
     d="M 256,1 C 115.17,1 1,115.17 1,256 1,396.83 115.17,511 256,511 396.83,511 511,396.83 511,256 511,115.17 396.83,1 256,1 m 8.827,44.931 c 120.9,0 218.9,98 218.9,218.9 0,120.9 -98,218.9 -218.9,218.9 -120.9,0 -218.93,-98 -218.93,-218.9 0,-120.9 98.03,-218.9 218.93,-218.9"
     inkscape:connector-curvature="0"
     id="path10"
     style="fill-opacity:0.06700003;fill-rule:evenodd" />
  <path
     d="M 256,4.43 C 117.06,4.43 4.43,117.06 4.43,256 4.43,394.94 117.06,507.57 256,507.57 394.94,507.57 507.57,394.94 507.57,256 507.57,117.06 394.94,4.43 256,4.43 m 5.885,38.556 c 120.9,0 218.9,98 218.9,218.9 0,120.9 -98,218.9 -218.9,218.9 -120.9,0 -218.93,-98 -218.93,-218.9 0,-120.9 98.03,-218.9 218.93,-218.9"
     inkscape:connector-curvature="0"
     id="path14"
     style="fill-opacity:0.12900002;fill-rule:evenodd" />
  <path
     d="M 256,8.36 C 119.23,8.36 8.36,119.23 8.36,256 8.36,392.77 119.23,503.64 256,503.64 392.77,503.64 503.64,392.77 503.64,256 503.64,119.23 392.77,8.36 256,8.36 m 2.942,31.691 c 120.9,0 218.9,98 218.9,218.9 0,120.9 -98,218.9 -218.9,218.9 -120.9,0 -218.93,-98 -218.93,-218.9 0,-120.9 98.03,-218.9 218.93,-218.9"
     inkscape:connector-curvature="0"
     id="path16"
     style="fill-opacity:0.12900002;fill-rule:evenodd" />
  <path
     d="M 253.04,7.86 C 117.62,7.86 7.85,117.64 7.85,253.05 c 0,135.42 109.78,245.19 245.19,245.19 135.42,0 245.19,-109.78 245.19,-245.19 C 498.23,117.63 388.45,7.86 253.04,7.86 z m 0,26.297 c 120.9,0 218.9,98 218.9,218.9 0,120.9 -98,218.9 -218.9,218.9 -120.9,0 -218.93,-98 -218.93,-218.9 0,-120.9 98.03,-218.9 218.93,-218.9 z"
     inkscape:connector-curvature="0"
     id="path18"
     style="fill:#ffffff;fill-rule:evenodd;stroke:#000000;stroke-width:4.90399981;stroke-opacity:0.31000001" />
  <text
     x="729.64001"
     y="231.35997"
     id="text20"
     style="font-size:129.22999573px;line-height:125%;letter-spacing:0;word-spacing:0;font-family:Gentium Book Basic">
    <tspan
       x="729.64001"
       y="231.35997"
       id="tspan22" />
  </text>
  <text
     x="378.90805"
     y="579.25812"
     transform="scale(4.0128205,0.24920128)"
     id="text24"
     style="font-size:46.95375824px;text-anchor:middle;font-family:Arial" />
  <text
     x="1310.91"
     y="151.35997"
     id="text26"
     style="font-size:129.22999573px;line-height:125%;letter-spacing:0;word-spacing:0;font-family:Gentium Book Basic">
    <tspan
       x="1310.91"
       y="151.35997"
       id="tspan28" />
  </text>
  <text
     x="523.75732"
     y="258.21997"
     transform="scale(4.0128205,0.24920128)"
     id="text30"
     style="font-size:46.95375824px;text-anchor:middle;font-family:Arial" />
  <text
     x="239.33"
     y="-29.900009"
     id="text32"
     style="font-size:129.22999573px;line-height:125%;letter-spacing:0;word-spacing:0;font-family:Gentium Book Basic">
    <tspan
       x="239.33"
       y="-29.900009"
       id="tspan34" />
  </text>
  <text
     x="256.71869"
     y="-469.1264"
     transform="scale(4.0128205,0.24920128)"
     id="text36"
     style="font-size:46.95375824px;text-anchor:middle;font-family:Arial" />
  <text
     x="1337.38"
     y="-246.37001"
     id="text38"
     style="font-size:129.22999573px;line-height:125%;letter-spacing:0;word-spacing:0;font-family:Gentium Book Basic">
    <tspan
       x="1337.38"
       y="-246.37001"
       id="tspan40" />
  </text>
  <text
     x="530.3573"
     y="-1337.802"
     transform="scale(4.0128205,0.24920128)"
     id="text42"
     style="font-size:46.95375824px;text-anchor:middle;font-family:Arial" />
  <text
     x="1918.65"
     y="-326.37"
     id="text44"
     style="font-size:129.22999573px;line-height:125%;letter-spacing:0;word-spacing:0;font-family:Gentium Book Basic">
    <tspan
       x="1918.65"
       y="-326.37"
       id="tspan46" />
  </text>
  <text
     x="675.20654"
     y="-1658.8303"
     transform="scale(4.0128205,0.24920128)"
     id="text48"
     style="font-size:46.95375824px;text-anchor:middle;font-family:Arial" />
  <text
     x="1529.53"
     y="-798.77002"
     id="text50"
     style="font-size:129.22999573px;line-height:125%;letter-spacing:0;word-spacing:0;font-family:Gentium Book Basic">
    <tspan
       x="1529.53"
       y="-798.77002"
       id="tspan52" />
  </text>
  <text
     x="578.237"
     y="-3554.4807"
     transform="scale(4.0128205,0.24920128)"
     id="text54"
     style="font-size:46.95375824px;text-anchor:middle;font-family:Arial" />
  <text
     x="2110.79"
     y="-878.78003"
     id="text56"
     style="font-size:129.22999573px;line-height:125%;letter-spacing:0;word-spacing:0;font-family:Gentium Book Basic">
    <tspan
       x="2110.79"
       y="-878.78003"
       id="tspan58" />
  </text>
  <text
     x="723.0863"
     y="-3875.519"
     transform="scale(4.0128205,0.24920128)"
     id="text60"
     style="font-size:46.95375824px;text-anchor:middle;font-family:Arial" />
  <text
     x="277.98999"
     y="535.94006"
     id="text62"
     style="font-size:208.33000183px;line-height:125%;letter-spacing:0;word-spacing:0;font-family:Gentium Book Basic">
    <tspan
       x="277.98999"
       y="535.94006"
       id="tspan64" />
  </text>
  <g
     clip-path="url(#clipPath3308)"
     id="g3207"
     style="opacity:0.25;fill:#000000;fill-opacity:1;stroke:none">
    <path
       d="m 215.53608,128.83448 c -48.03264,0 -86.70155,38.66889 -86.70155,86.70153 l 388.90873,388.90873 c 0,-48.03264 38.66891,-86.70153 86.70155,-86.70153 z"
       inkscape:connector-curvature="0"
       id="path3209"
       style="fill:#000000" />
    <path
       d="m 128.83453,215.53601 c 0,24.01633 9.66723,45.69171 25.33853,61.36302 l 388.90873,388.90873 c -15.6713,-15.67131 -25.33853,-37.34669 -25.33853,-61.36302 z"
       inkscape:connector-curvature="0"
       id="path3211"
       style="fill:#000000" />
    <path
       d="m 154.17306,276.89903 c 15.67131,15.67131 37.3467,25.33853 61.36302,25.33853 l 388.90873,388.90873 c -24.01632,0 -45.69171,-9.66722 -61.36302,-25.33853 z"
       inkscape:connector-curvature="0"
       id="path3213"
       style="fill:#000000" />
    <path
       d="m 215.53608,302.23756 c 48.03265,0 86.70154,-38.66889 86.70154,-86.70155 l 388.90873,388.90873 c 0,48.03266 -38.66889,86.70155 -86.70154,86.70155 z"
       inkscape:connector-curvature="0"
       id="path3215"
       style="fill:#000000" />
    <path
       d="m 302.23762,215.53601 c 0,-24.01632 -9.66722,-45.6917 -25.33852,-61.363 l 388.90873,388.90873 c 15.6713,15.6713 25.33852,37.34668 25.33852,61.363 z"
       inkscape:connector-curvature="0"
       id="path3217"
       style="fill:#000000" />
    <path
       d="M 276.8991,154.17301 C 261.22779,138.5017 239.55241,128.83448 215.53608,128.83448 l 388.90873,388.90873 c 24.01633,0 45.69171,9.66722 61.36302,25.33853 z"
       inkscape:connector-curvature="0"
       id="path3219"
       style="fill:#000000" />
    <path
       d="m 318.46191,209.76237 c 0.10562,1.92304 0.29024,3.82328 0.29024,5.77364 l 388.90873,388.90873 c 0,-1.95036 -0.18462,-3.8506 -0.29024,-5.77364 z"
       inkscape:connector-curvature="0"
       id="path3221"
       style="fill:#000000" />
    <path
       d="m 318.75215,215.53601 c 0,57.18174 -46.03438,103.21613 -103.21613,103.21613 l 388.90873,388.90873 c 57.18175,0 103.21613,-46.03439 103.21613,-103.21613 z"
       inkscape:connector-curvature="0"
       id="path3223"
       style="fill:#000000" />
    <path
       d="m 215.53602,318.75214 c -1.95036,0 -3.85059,-0.18463 -5.77363,-0.29025 l 388.90873,388.90873 c 1.92304,0.10562 3.82327,0.29025 5.77363,0.29025 z"
       inkscape:connector-curvature="0"
       id="path3225"
       style="fill:#000000" />
    <path
       d="m 209.76239,318.46189 0,64.70362 388.90873,388.90873 0,-64.70362 z"
       inkscape:connector-curvature="0"
       id="path3227"
       style="fill:#000000" />
    <path
       d="m 209.76239,383.16551 173.40308,0 388.90873,388.90873 -173.40308,0 z"
       inkscape:connector-curvature="0"
       id="path3229"
       style="fill:#000000" />
    <path
       d="m 383.16547,383.16551 0,-173.4031 388.90873,388.90873 0,173.4031 z"
       inkscape:connector-curvature="0"
       id="path3231"
       style="fill:#000000" />
    <path
       d="m 383.16547,209.76241 -64.70361,0 388.90873,388.90873 64.70361,0 z"
       inkscape:connector-curvature="0"
       id="path3233"
       style="fill:#000000" />
  </g>
  <path
     d="m 215.53608,128.83448 c -48.03264,0 -86.70155,38.66889 -86.70155,86.70153 0,48.03266 38.66891,86.70155 86.70155,86.70155 48.03265,0 86.70154,-38.66889 86.70154,-86.70155 0,-48.03264 -38.66889,-86.70153 -86.70154,-86.70153 z m 102.92583,80.92789 c 0.10562,1.92304 0.29024,3.82328 0.29024,5.77364 0,57.18174 -46.03438,103.21613 -103.21613,103.21613 -1.95036,0 -3.85059,-0.18463 -5.77363,-0.29025 l 0,64.70362 173.40308,0 0,-173.4031 -64.70361,0 z"
     inkscape:connector-curvature="0"
     id="rect4766"
     style="fill:#ffffff;fill-opacity:1;stroke:none" />
</svg>
