<?xml version="1.0" encoding="UTF-8" standalone="no"?>
<!-- Created with Inkscape (http://www.inkscape.org/) -->

<svg
   xmlns:dc="http://purl.org/dc/elements/1.1/"
   xmlns:cc="http://creativecommons.org/ns#"
   xmlns:rdf="http://www.w3.org/1999/02/22-rdf-syntax-ns#"
   xmlns:svg="http://www.w3.org/2000/svg"
   xmlns="http://www.w3.org/2000/svg"
   xmlns:inkscape="http://www.inkscape.org/namespaces/inkscape"
   version="1.1"
   width="100%"
   height="100%"
   viewBox="0 0 512 512"
   id="svg2">
  <metadata
     id="metadata70">
    <rdf:RDF>
      <cc:Work
         rdf:about="">
        <dc:format>image/svg+xml</dc:format>
        <dc:type
           rdf:resource="http://purl.org/dc/dcmitype/StillImage" />
        <dc:title />
      </cc:Work>
    </rdf:RDF>
  </metadata>
  <defs
     id="defs68">
    <clipPath
       id="clipPath4042">
      <path
         d="m 471.9456,253.05189 c 0,120.89699 -98.00565,218.90724 -218.90724,218.90724 -120.89698,0 -218.90723,-98.00566 -218.90723,-218.90724 0,-120.89698 98.00565,-218.907232 218.90723,-218.907232 120.89699,0 218.90724,98.005652 218.90724,218.907232"
         inkscape:connector-curvature="0"
         id="path4044"
         style="fill:#3981f0;fill-opacity:1;fill-rule:evenodd" />
    </clipPath>
  </defs>
  <path
     d="m 471.9456,253.05189 c 0,120.89699 -98.00565,218.90724 -218.90724,218.90724 -120.89698,0 -218.90723,-98.00566 -218.90723,-218.90724 0,-120.89698 98.00565,-218.907232 218.90723,-218.907232 120.89699,0 218.90724,98.005652 218.90724,218.907232"
     inkscape:connector-curvature="0"
     id="path8"
     style="fill:#3981f0;fill-opacity:1;fill-rule:evenodd" />
  <path
     d="M 256,1 C 115.17,1 1,115.17 1,256 1,396.83 115.17,511 256,511 396.83,511 511,396.83 511,256 511,115.17 396.83,1 256,1 m 8.827,44.931 c 120.9,0 218.9,98 218.9,218.9 0,120.9 -98,218.9 -218.9,218.9 -120.9,0 -218.93,-98 -218.93,-218.9 0,-120.9 98.03,-218.9 218.93,-218.9"
     inkscape:connector-curvature="0"
     id="path10"
     style="fill-opacity:0.06700003;fill-rule:evenodd" />
  <path
     d="M 256,4.43 C 117.06,4.43 4.43,117.06 4.43,256 4.43,394.94 117.06,507.57 256,507.57 394.94,507.57 507.57,394.94 507.57,256 507.57,117.06 394.94,4.43 256,4.43 m 5.885,38.556 c 120.9,0 218.9,98 218.9,218.9 0,120.9 -98,218.9 -218.9,218.9 -120.9,0 -218.93,-98 -218.93,-218.9 0,-120.9 98.03,-218.9 218.93,-218.9"
     inkscape:connector-curvature="0"
     id="path14"
     style="fill-opacity:0.12900002;fill-rule:evenodd" />
  <path
     d="M 256,8.36 C 119.23,8.36 8.36,119.23 8.36,256 8.36,392.77 119.23,503.64 256,503.64 392.77,503.64 503.64,392.77 503.64,256 503.64,119.23 392.77,8.36 256,8.36 m 2.942,31.691 c 120.9,0 218.9,98 218.9,218.9 0,120.9 -98,218.9 -218.9,218.9 -120.9,0 -218.93,-98 -218.93,-218.9 0,-120.9 98.03,-218.9 218.93,-218.9"
     inkscape:connector-curvature="0"
     id="path16"
     style="fill-opacity:0.12900002;fill-rule:evenodd" />
  <path
     d="M 253.04,7.86 C 117.62,7.86 7.85,117.64 7.85,253.05 c 0,135.42 109.78,245.19 245.19,245.19 135.42,0 245.19,-109.78 245.19,-245.19 C 498.23,117.63 388.45,7.86 253.04,7.86 z m 0,26.297 c 120.9,0 218.9,98 218.9,218.9 0,120.9 -98,218.9 -218.9,218.9 -120.9,0 -218.93,-98 -218.93,-218.9 0,-120.9 98.03,-218.9 218.93,-218.9 z"
     inkscape:connector-curvature="0"
     id="path18"
     style="fill:#ffffff;fill-rule:evenodd;stroke:#000000;stroke-width:4.90399981;stroke-opacity:0.31000001" />
  <text
     x="729.64001"
     y="231.35997"
     id="text20"
     style="font-size:129.22999573px;line-height:125%;letter-spacing:0;word-spacing:0;font-family:Gentium Book Basic">
    <tspan
       x="729.64001"
       y="231.35997"
       id="tspan22" />
  </text>
  <text
     x="378.90805"
     y="579.25812"
     transform="scale(4.0128205,0.24920128)"
     id="text24"
     style="font-size:46.95375824px;text-anchor:middle;font-family:Arial" />
  <text
     x="1310.91"
     y="151.35997"
     id="text26"
     style="font-size:129.22999573px;line-height:125%;letter-spacing:0;word-spacing:0;font-family:Gentium Book Basic">
    <tspan
       x="1310.91"
       y="151.35997"
       id="tspan28" />
  </text>
  <text
     x="523.75732"
     y="258.21997"
     transform="scale(4.0128205,0.24920128)"
     id="text30"
     style="font-size:46.95375824px;text-anchor:middle;font-family:Arial" />
  <text
     x="239.33"
     y="-29.900009"
     id="text32"
     style="font-size:129.22999573px;line-height:125%;letter-spacing:0;word-spacing:0;font-family:Gentium Book Basic">
    <tspan
       x="239.33"
       y="-29.900009"
       id="tspan34" />
  </text>
  <text
     x="256.71869"
     y="-469.1264"
     transform="scale(4.0128205,0.24920128)"
     id="text36"
     style="font-size:46.95375824px;text-anchor:middle;font-family:Arial" />
  <text
     x="1337.38"
     y="-246.37001"
     id="text38"
     style="font-size:129.22999573px;line-height:125%;letter-spacing:0;word-spacing:0;font-family:Gentium Book Basic">
    <tspan
       x="1337.38"
       y="-246.37001"
       id="tspan40" />
  </text>
  <text
     x="530.3573"
     y="-1337.802"
     transform="scale(4.0128205,0.24920128)"
     id="text42"
     style="font-size:46.95375824px;text-anchor:middle;font-family:Arial" />
  <text
     x="1918.65"
     y="-326.37"
     id="text44"
     style="font-size:129.22999573px;line-height:125%;letter-spacing:0;word-spacing:0;font-family:Gentium Book Basic">
    <tspan
       x="1918.65"
       y="-326.37"
       id="tspan46" />
  </text>
  <text
     x="675.20654"
     y="-1658.8303"
     transform="scale(4.0128205,0.24920128)"
     id="text48"
     style="font-size:46.95375824px;text-anchor:middle;font-family:Arial" />
  <text
     x="1529.53"
     y="-798.77002"
     id="text50"
     style="font-size:129.22999573px;line-height:125%;letter-spacing:0;word-spacing:0;font-family:Gentium Book Basic">
    <tspan
       x="1529.53"
       y="-798.77002"
       id="tspan52" />
  </text>
  <text
     x="578.237"
     y="-3554.4807"
     transform="scale(4.0128205,0.24920128)"
     id="text54"
     style="font-size:46.95375824px;text-anchor:middle;font-family:Arial" />
  <text
     x="2110.79"
     y="-878.78003"
     id="text56"
     style="font-size:129.22999573px;line-height:125%;letter-spacing:0;word-spacing:0;font-family:Gentium Book Basic">
    <tspan
       x="2110.79"
       y="-878.78003"
       id="tspan58" />
  </text>
  <text
     x="723.0863"
     y="-3875.519"
     transform="scale(4.0128205,0.24920128)"
     id="text60"
     style="font-size:46.95375824px;text-anchor:middle;font-family:Arial" />
  <text
     x="277.98999"
     y="535.94006"
     id="text62"
     style="font-size:208.33000183px;line-height:125%;letter-spacing:0;word-spacing:0;font-family:Gentium Book Basic">
    <tspan
       x="277.98999"
       y="535.94006"
       id="tspan64" />
  </text>
  <g
     clip-path="url(#clipPath4042)"
     id="g3938"
     style="opacity:0.25;fill:#000000;fill-opacity:1;stroke:none">
    <path
       d="m 121.15625,143.32098 0,27.56411 388.90873,388.90873 0,-27.56411 z"
       inkscape:connector-curvature="0"
       id="path3940"
       style="fill:#000000" />
    <path
       d="m 121.15625,170.88509 269.6875,0 388.90873,388.90873 -269.6875,0 z"
       inkscape:connector-curvature="0"
       id="path3942"
       style="fill:#000000" />
    <path
       d="m 390.84375,170.88509 0,-27.56411 388.90873,388.90873 0,27.56411 z"
       inkscape:connector-curvature="0"
       id="path3944"
       style="fill:#000000" />
    <path
       d="m 390.84375,143.32098 -269.6875,0 388.90873,388.90873 269.6875,0 z"
       inkscape:connector-curvature="0"
       id="path3946"
       style="fill:#000000" />
    <path
       d="m 121.15625,209.26214 0,27.56411 388.90873,388.90873 0,-27.56411 z"
       inkscape:connector-curvature="0"
       id="path3948"
       style="fill:#000000" />
    <path
       d="m 121.15625,236.82625 269.6875,0 388.90873,388.90873 -269.6875,0 z"
       inkscape:connector-curvature="0"
       id="path3950"
       style="fill:#000000" />
    <path
       d="m 390.84375,236.82625 0,-27.56411 388.90873,388.90873 0,27.56411 z"
       inkscape:connector-curvature="0"
       id="path3952"
       style="fill:#000000" />
    <path
       d="m 390.84375,209.26214 -269.6875,0 388.90873,388.90873 269.6875,0 z"
       inkscape:connector-curvature="0"
       id="path3954"
       style="fill:#000000" />
    <path
       d="m 121.15625,275.2033 0,27.56411 388.90873,388.90873 0,-27.56411 z"
       inkscape:connector-curvature="0"
       id="path3956"
       style="fill:#000000" />
    <path
       d="m 121.15625,302.76741 269.6875,0 388.90873,388.90873 -269.6875,0 z"
       inkscape:connector-curvature="0"
       id="path3958"
       style="fill:#000000" />
    <path
       d="m 390.84375,302.76741 0,-27.56411 388.90873,388.90873 0,27.56411 z"
       inkscape:connector-curvature="0"
       id="path3960"
       style="fill:#000000" />
    <path
       d="m 390.84375,275.2033 -269.6875,0 388.90873,388.90873 269.6875,0 z"
       inkscape:connector-curvature="0"
       id="path3962"
       style="fill:#000000" />
    <path
       d="m 121.15625,341.14445 0,27.53457 388.90873,388.90873 0,-27.53457 z"
       inkscape:connector-curvature="0"
       id="path3964"
       style="fill:#000000" />
    <path
       d="m 121.15625,368.67902 183.25,0 388.90873,388.90873 -183.25,0 z"
       inkscape:connector-curvature="0"
       id="path3966"
       style="fill:#000000" />
    <path
       d="m 304.40625,368.67902 0,-27.53457 388.90873,388.90873 0,27.53457 z"
       inkscape:connector-curvature="0"
       id="path3968"
       style="fill:#000000" />
    <path
       d="m 304.40625,341.14445 -183.25,0 388.90873,388.90873 183.25,0 z"
       inkscape:connector-curvature="0"
       id="path3970"
       style="fill:#000000" />
  </g>
  <path
     d="m 121.15625,143.32098 0,27.56411 269.6875,0 0,-27.56411 -269.6875,0 z m 0,65.94116 0,27.56411 269.6875,0 0,-27.56411 -269.6875,0 z m 0,65.94116 0,27.56411 269.6875,0 0,-27.56411 -269.6875,0 z m 0,65.94115 0,27.53457 183.25,0 0,-27.53457 -183.25,0 z"
     inkscape:connector-curvature="0"
     id="rect3895"
     style="fill:#ffffff;fill-opacity:1;stroke:none" />
</svg>
