<?xml version="1.0" encoding="UTF-8" standalone="no"?>
<!-- Created with Inkscape (http://www.inkscape.org/) -->

<svg
   xmlns:dc="http://purl.org/dc/elements/1.1/"
   xmlns:cc="http://creativecommons.org/ns#"
   xmlns:rdf="http://www.w3.org/1999/02/22-rdf-syntax-ns#"
   xmlns:svg="http://www.w3.org/2000/svg"
   xmlns="http://www.w3.org/2000/svg"
   xmlns:inkscape="http://www.inkscape.org/namespaces/inkscape"
   version="1.1"
   width="100%"
   height="100%"
   viewBox="0 0 512 512"
   id="svg2">
  <metadata
     id="metadata72">
    <rdf:RDF>
      <cc:Work
         rdf:about="">
        <dc:format>image/svg+xml</dc:format>
        <dc:type
           rdf:resource="http://purl.org/dc/dcmitype/StillImage" />
      </cc:Work>
    </rdf:RDF>
  </metadata>
  <defs
     id="defs70" />
  <g
     id="g4"
     style="fill-rule:evenodd">
    <path
       d="m 471.95,253.05 c 0,120.9 -98.01,218.9 -218.9,218.9 -120.9,0 -218.9,-98.01 -218.9,-218.9 0,-120.9 98.01,-218.9 218.9,-218.9 120.9,0 218.9,98.01 218.9,218.9"
       inkscape:connector-curvature="0"
       id="path6"
       style="fill:#0096bb" />
    <path
       d="m 193.81,81.13 c -5.928,0 -10.719,4.791 -10.719,10.719 v 46.844 c 0,3.24 1.453,6.115 3.719,8.06 0.265,0.296 0.547,0.579 0.844,0.844 0.339,0.394 0.701,0.753 1.094,1.094 0.314,0.357 0.641,0.688 1,1 0.26,0.295 0.521,0.579 0.813,0.844 0.297,0.352 0.629,0.69 0.969,1 0.355,0.422 0.771,0.794 1.188,1.156 0.297,0.336 0.632,0.642 0.969,0.938 0.323,0.369 0.661,0.71 1.031,1.031 0.314,0.357 0.641,0.688 1,1 0.26,0.295 0.521,0.579 0.813,0.844 0.297,0.352 0.629,0.69 0.969,1 0.355,0.422 0.771,0.794 1.188,1.156 0.323,0.365 0.693,0.714 1.063,1.031 0.298,0.332 0.601,0.645 0.938,0.938 0.314,0.357 0.641,0.688 1,1 0.314,0.357 0.641,0.688 1,1 0.26,0.295 0.521,0.579 0.813,0.844 0.331,0.392 0.71,0.754 1.094,1.094 0.057,0.065 0.129,0.123 0.188,0.188 h -11.969 c -16.3,0 -29.406,13.168 -29.406,29.469 v 11.656 c -0.194,-0.212 -0.382,-0.431 -0.594,-0.625 -0.288,-0.349 -0.635,-0.663 -0.969,-0.969 -0.346,-0.42 -0.714,-0.8 -1.125,-1.156 -0.243,-0.281 -0.508,-0.53 -0.781,-0.781 -0.295,-0.358 -0.626,-0.687 -0.969,-1 -0.29,-0.352 -0.602,-0.66 -0.938,-0.969 -0.293,-0.356 -0.629,-0.657 -0.969,-0.969 -0.349,-0.423 -0.712,-0.827 -1.125,-1.188 -0.29,-0.332 -0.607,-0.646 -0.938,-0.938 -0.243,-0.281 -0.509,-0.56 -0.781,-0.813 -0.354,-0.43 -0.737,-0.822 -1.156,-1.188 -0.235,-0.27 -0.488,-0.507 -0.75,-0.75 -0.339,-0.411 -0.727,-0.803 -1.125,-1.156 -0.246,-0.284 -0.506,-0.557 -0.781,-0.813 -0.29,-0.353 -0.635,-0.658 -0.969,-0.969 -0.289,-0.351 -0.605,-0.659 -0.938,-0.969 -0.359,-0.435 -0.764,-0.847 -1.188,-1.219 -0.223,-0.254 -0.472,-0.487 -0.719,-0.719 -1.947,-2.364 -4.916,-3.875 -8.25,-3.875 H 91.5 c -5.927,0.001 -10.719,4.729 -10.719,10.656 0,3.247 1.444,6.161 3.719,8.125 0.316,0.356 0.671,0.689 1.031,1 0.314,0.355 0.673,0.69 1.031,1 0.373,0.425 0.783,0.828 1.219,1.188 0.332,0.359 0.652,0.721 1.031,1.031 0.318,0.343 0.639,0.671 1,0.969 0.327,0.357 0.657,0.692 1.031,1 0.328,0.358 0.657,0.691 1.031,1 0.338,0.37 0.674,0.745 1.063,1.063 0.316,0.342 0.641,0.672 1,0.969 0.324,0.355 0.66,0.694 1.031,1 0.323,0.354 0.662,0.695 1.031,1 0.325,0.358 0.658,0.723 1.031,1.031 0.319,0.35 0.666,0.698 1.031,1 0.324,0.357 0.659,0.693 1.031,1 0.322,0.355 0.661,0.695 1.031,1 0.323,0.357 0.66,0.694 1.031,1 0.321,0.355 0.631,0.727 1,1.031 0.323,0.359 0.658,0.692 1.031,1 0.321,0.357 0.66,0.694 1.031,1 0.322,0.359 0.659,0.693 1.031,1 0.34,0.38 0.698,0.741 1.094,1.063 0.306,0.336 0.618,0.679 0.969,0.969 0.319,0.356 0.662,0.696 1.031,1 0.321,0.359 0.66,0.693 1.031,1 0.321,0.361 0.658,0.692 1.031,1 0.331,0.372 0.677,0.747 1.063,1.063 0.322,0.359 0.658,0.695 1.031,1 0.31,0.346 0.641,0.673 1,0.969 0.319,0.361 0.66,0.693 1.031,1 0.319,0.361 0.66,0.725 1.031,1.031 0.325,0.367 0.652,0.721 1.031,1.031 0.311,0.35 0.639,0.671 1,0.969 0.329,0.376 0.675,0.715 1.063,1.031 0.337,0.382 0.696,0.743 1.094,1.063 0.306,0.34 0.614,0.679 0.969,0.969 0.318,0.361 0.659,0.696 1.031,1 0.307,0.348 0.642,0.674 1,0.969 0.317,0.365 0.658,0.692 1.031,1 0.324,0.374 0.679,0.749 1.063,1.063 0.316,0.361 0.659,0.696 1.031,1 0.073,0.083 0.143,0.17 0.219,0.25 H 91.497 c -5.928,0 -10.719,4.791 -10.719,10.719 0,3.24 1.453,6.115 3.719,8.06 0.265,0.296 0.547,0.579 0.844,0.844 0.339,0.394 0.701,0.753 1.094,1.094 0.314,0.357 0.641,0.688 1,1 0.26,0.295 0.521,0.579 0.813,0.844 0.297,0.352 0.629,0.69 0.969,1 0.355,0.422 0.771,0.794 1.188,1.156 0.297,0.336 0.632,0.642 0.969,0.938 0.323,0.369 0.661,0.71 1.031,1.031 0.314,0.357 0.641,0.688 1,1 0.26,0.295 0.521,0.579 0.813,0.844 0.297,0.352 0.629,0.69 0.969,1 0.355,0.422 0.771,0.794 1.188,1.156 0.297,0.336 0.632,0.642 0.969,0.938 0.291,0.332 0.608,0.644 0.938,0.938 0.339,0.394 0.701,0.753 1.094,1.094 0.26,0.295 0.521,0.579 0.813,0.844 0.302,0.358 0.653,0.685 1,1 0.336,0.398 0.735,0.749 1.125,1.094 0.309,0.354 0.647,0.69 1,1 0.291,0.332 0.608,0.644 0.938,0.938 0.339,0.394 0.701,0.753 1.094,1.094 0.314,0.357 0.641,0.688 1,1 0.26,0.295 0.521,0.579 0.813,0.844 0.336,0.398 0.735,0.749 1.125,1.094 0.335,0.384 0.707,0.762 1.094,1.094 0.265,0.296 0.547,0.579 0.844,0.844 0.339,0.394 0.701,0.753 1.094,1.094 0.314,0.357 0.641,0.688 1,1 0.26,0.295 0.521,0.579 0.813,0.844 0.297,0.352 0.629,0.69 0.969,1 0.355,0.422 0.771,0.794 1.188,1.156 0.297,0.336 0.632,0.642 0.969,0.938 0.323,0.369 0.661,0.71 1.031,1.031 0.314,0.357 0.641,0.688 1,1 0.314,0.357 0.641,0.688 1,1 0.255,0.289 0.496,0.584 0.781,0.844 0.355,0.422 0.771,0.794 1.188,1.156 0.323,0.365 0.693,0.714 1.063,1.031 0.265,0.296 0.547,0.579 0.844,0.844 0.339,0.394 0.701,0.753 1.094,1.094 0.299,0.34 0.597,0.67 0.938,0.969 H 91.506 c -5.928,0 -10.719,4.791 -10.719,10.719 0,3.24 1.453,6.13 3.719,8.094 0.296,0.332 0.603,0.676 0.938,0.969 0.31,0.353 0.647,0.659 1,0.969 0.314,0.359 0.641,0.686 1,1 0.309,0.353 0.616,0.69 0.969,1 0.293,0.334 0.637,0.642 0.969,0.938 0.32,0.37 0.664,0.74 1.031,1.063 0.323,0.368 0.693,0.711 1.063,1.031 0.298,0.334 0.601,0.643 0.938,0.938 0.314,0.359 0.641,0.686 1,1 0.309,0.353 0.616,0.69 0.969,1 0.293,0.334 0.637,0.642 0.969,0.938 0.32,0.37 0.664,0.74 1.031,1.063 0.323,0.368 0.693,0.711 1.063,1.031 0.296,0.332 0.603,0.676 0.938,0.969 0.31,0.353 0.647,0.659 1,0.969 0.26,0.297 0.521,0.577 0.813,0.844 0.35,0.417 0.747,0.797 1.156,1.156 0.293,0.334 0.637,0.642 0.969,0.938 0.335,0.386 0.707,0.759 1.094,1.094 0.296,0.332 0.603,0.676 0.938,0.969 0.31,0.353 0.647,0.659 1,0.969 0.314,0.359 0.641,0.686 1,1 0.309,0.353 0.616,0.69 0.969,1 0.293,0.334 0.637,0.642 0.969,0.938 0.335,0.386 0.707,0.759 1.094,1.094 0.296,0.332 0.603,0.676 0.938,0.969 0.379,0.431 0.776,0.853 1.219,1.219 0.249,0.267 0.506,0.509 0.781,0.75 0.309,0.353 0.616,0.69 0.969,1 0.293,0.334 0.637,0.642 0.969,0.938 0.32,0.37 0.664,0.74 1.031,1.063 0.323,0.368 0.693,0.711 1.063,1.031 0.367,0.412 0.73,0.836 1.156,1.188 0.249,0.267 0.506,0.509 0.781,0.75 0.314,0.359 0.641,0.686 1,1 0.295,0.337 0.603,0.64 0.938,0.938 0.32,0.37 0.664,0.74 1.031,1.063 0.323,0.368 0.693,0.711 1.063,1.031 0.296,0.332 0.603,0.676 0.938,0.969 0.31,0.353 0.647,0.659 1,0.969 0.314,0.359 0.641,0.686 1,1 0.295,0.337 0.603,0.64 0.938,0.938 0.32,0.37 0.664,0.74 1.031,1.063 0.323,0.368 0.693,0.711 1.063,1.031 0.296,0.332 0.603,0.676 0.938,0.969 0.31,0.353 0.647,0.659 1,0.969 0.314,0.359 0.641,0.686 1,1 0.309,0.353 0.616,0.69 0.969,1 0.293,0.334 0.637,0.642 0.969,0.938 0.335,0.386 0.707,0.759 1.094,1.094 0.296,0.332 0.603,0.676 0.938,0.969 0.31,0.353 0.647,0.659 1,0.969 0.314,0.359 0.641,0.686 1,1 0.26,0.297 0.521,0.577 0.813,0.844 0.336,0.401 0.735,0.746 1.125,1.094 0.32,0.37 0.664,0.74 1.031,1.063 0.323,0.368 0.693,0.711 1.063,1.031 0.367,0.412 0.73,0.836 1.156,1.188 0.249,0.267 0.506,0.509 0.781,0.75 0.314,0.359 0.641,0.686 1,1 0.295,0.337 0.603,0.64 0.938,0.938 0.32,0.37 0.664,0.74 1.031,1.063 0.323,0.368 0.693,0.711 1.063,1.031 0.296,0.332 0.603,0.676 0.938,0.969 0.31,0.353 0.647,0.659 1,0.969 0.314,0.359 0.641,0.686 1,1 0.309,0.353 0.616,0.69 0.969,1 0.293,0.334 0.637,0.642 0.969,0.938 0.335,0.386 0.707,0.759 1.094,1.094 0.296,0.332 0.603,0.676 0.938,0.969 0.31,0.353 0.647,0.659 1,0.969 0.314,0.359 0.641,0.686 1,1 0.26,0.297 0.521,0.577 0.813,0.844 0.336,0.401 0.735,0.746 1.125,1.094 0.32,0.37 0.664,0.74 1.031,1.063 0.323,0.368 0.693,0.711 1.063,1.031 0.298,0.334 0.601,0.643 0.938,0.938 0.314,0.359 0.641,0.686 1,1 0.314,0.359 0.641,0.686 1,1 0.295,0.337 0.603,0.64 0.938,0.938 0.32,0.37 0.664,0.74 1.031,1.063 0.323,0.368 0.693,0.711 1.063,1.031 0.296,0.332 0.603,0.676 0.938,0.969 0.31,0.353 0.647,0.659 1,0.969 0.314,0.359 0.641,0.686 1,1 0.309,0.353 0.616,0.69 0.969,1 0.293,0.334 0.637,0.642 0.969,0.938 0.335,0.386 0.707,0.759 1.094,1.094 0.296,0.332 0.603,0.676 0.938,0.969 0.31,0.353 0.647,0.659 1,0.969 0.314,0.359 0.641,0.686 1,1 0.309,0.353 0.616,0.69 0.969,1 0.293,0.334 0.637,0.642 0.969,0.938 0.32,0.37 0.664,0.74 1.031,1.063 0.323,0.368 0.693,0.711 1.063,1.031 0.298,0.334 0.601,0.643 0.938,0.938 0.314,0.359 0.641,0.686 1,1 0.26,0.297 0.521,0.577 0.813,0.844 0.331,0.395 0.71,0.751 1.094,1.094 0.091,0.105 0.187,0.211 0.281,0.313 0.29,2.778 1.657,5.219 3.656,6.938 0.265,0.296 0.547,0.579 0.844,0.844 0.339,0.394 0.701,0.753 1.094,1.094 0.314,0.357 0.641,0.688 1,1 0.26,0.295 0.521,0.579 0.813,0.844 0.297,0.352 0.629,0.69 0.969,1 0.355,0.422 0.771,0.794 1.188,1.156 0.297,0.336 0.632,0.642 0.969,0.938 0.323,0.369 0.661,0.71 1.031,1.031 0.314,0.357 0.641,0.688 1,1 0.26,0.295 0.521,0.579 0.813,0.844 0.297,0.352 0.629,0.69 0.969,1 0.355,0.422 0.771,0.794 1.188,1.156 0.297,0.336 0.632,0.642 0.969,0.938 0.323,0.369 0.661,0.71 1.031,1.031 0.314,0.357 0.641,0.688 1,1 0.26,0.295 0.521,0.579 0.813,0.844 0.302,0.358 0.653,0.685 1,1 0.336,0.398 0.735,0.749 1.125,1.094 0.309,0.354 0.647,0.69 1,1 0.291,0.332 0.608,0.644 0.938,0.938 0.339,0.394 0.701,0.753 1.094,1.094 0.314,0.357 0.641,0.688 1,1 0.26,0.295 0.521,0.579 0.813,0.844 0.336,0.398 0.735,0.749 1.125,1.094 0.335,0.384 0.707,0.762 1.094,1.094 0.265,0.296 0.547,0.579 0.844,0.844 0.339,0.394 0.701,0.753 1.094,1.094 0.314,0.357 0.641,0.688 1,1 0.26,0.295 0.521,0.579 0.813,0.844 0.297,0.352 0.629,0.69 0.969,1 0.355,0.422 0.771,0.794 1.188,1.156 0.297,0.336 0.632,0.642 0.969,0.938 0.323,0.369 0.661,0.71 1.031,1.031 0.314,0.357 0.641,0.688 1,1 0.314,0.357 0.641,0.688 1,1 0.255,0.289 0.496,0.584 0.781,0.844 0.355,0.422 0.771,0.794 1.188,1.156 0.323,0.365 0.693,0.714 1.063,1.031 0.265,0.296 0.547,0.579 0.844,0.844 0.339,0.394 0.701,0.753 1.094,1.094 0.314,0.357 0.641,0.688 1,1 0.255,0.289 0.496,0.584 0.781,0.844 0.229,0.272 0.487,0.509 0.75,0.75 7.865,0.856 15.844,1.344 23.938,1.344 120.9,0 218.91,-98.01 218.91,-218.91 0,-7.195 -0.353,-14.326 -1.031,-21.344 -0.043,-0.041 -0.08,-0.086 -0.125,-0.125 -0.292,-0.355 -0.622,-0.667 -0.969,-0.969 -0.019,-0.023 -0.043,-0.04 -0.063,-0.063 -0.033,-0.028 -0.06,-0.066 -0.094,-0.094 -0.249,-0.286 -0.496,-0.563 -0.781,-0.813 -0.29,-0.352 -0.626,-0.669 -0.969,-0.969 -0.289,-0.35 -0.596,-0.669 -0.938,-0.969 -0.018,-0.022 -0.044,-0.041 -0.063,-0.063 -0.044,-0.038 -0.08,-0.088 -0.125,-0.125 -0.248,-0.283 -0.498,-0.565 -0.781,-0.813 -0.289,-0.351 -0.597,-0.668 -0.938,-0.969 -0.291,-0.353 -0.626,-0.667 -0.969,-0.969 -0.286,-0.348 -0.601,-0.67 -0.938,-0.969 -0.019,-0.023 -0.044,-0.04 -0.063,-0.063 -0.057,-0.049 -0.098,-0.109 -0.156,-0.156 -0.239,-0.27 -0.48,-0.543 -0.75,-0.781 -0.289,-0.35 -0.598,-0.668 -0.938,-0.969 -0.289,-0.35 -0.63,-0.667 -0.969,-0.969 -0.288,-0.349 -0.6,-0.668 -0.938,-0.969 -0.027,-0.033 -0.066,-0.061 -0.094,-0.094 -0.055,-0.048 -0.1,-0.11 -0.156,-0.156 -0.229,-0.258 -0.461,-0.521 -0.719,-0.75 -0.291,-0.353 -0.628,-0.664 -0.969,-0.969 -0.024,-0.03 -0.038,-0.064 -0.063,-0.094 -0.061,-0.053 -0.125,-0.105 -0.188,-0.156 -0.223,-0.249 -0.439,-0.496 -0.688,-0.719 -0.29,-0.352 -0.63,-0.665 -0.969,-0.969 -0.289,-0.351 -0.6,-0.665 -0.938,-0.969 -0.042,-0.051 -0.082,-0.106 -0.125,-0.156 -0.05,-0.043 -0.105,-0.083 -0.156,-0.125 -0.222,-0.246 -0.44,-0.498 -0.688,-0.719 -0.287,-0.349 -0.603,-0.666 -0.938,-0.969 -0.291,-0.354 -0.629,-0.662 -0.969,-0.969 -0.288,-0.35 -0.602,-0.665 -0.938,-0.969 -0.032,-0.039 -0.061,-0.087 -0.094,-0.125 -0.072,-0.063 -0.145,-0.127 -0.219,-0.188 -0.212,-0.235 -0.422,-0.476 -0.656,-0.688 -0.289,-0.351 -0.601,-0.663 -0.938,-0.969 -0.291,-0.353 -0.631,-0.662 -0.969,-0.969 -0.287,-0.349 -0.604,-0.664 -0.938,-0.969 -0.34,-0.413 -0.721,-0.806 -1.125,-1.156 -0.246,-0.284 -0.504,-0.559 -0.781,-0.813 -0.288,-0.349 -0.635,-0.663 -0.969,-0.969 -0.346,-0.42 -0.714,-0.8 -1.125,-1.156 -0.243,-0.281 -0.508,-0.53 -0.781,-0.781 -0.295,-0.358 -0.626,-0.687 -0.969,-1 -0.29,-0.352 -0.602,-0.66 -0.938,-0.969 -0.293,-0.356 -0.629,-0.657 -0.969,-0.969 -0.349,-0.423 -0.712,-0.827 -1.125,-1.188 -0.29,-0.332 -0.607,-0.646 -0.938,-0.938 -0.243,-0.281 -0.509,-0.56 -0.781,-0.813 -0.354,-0.43 -0.737,-0.822 -1.156,-1.188 -0.235,-0.27 -0.488,-0.507 -0.75,-0.75 -0.339,-0.411 -0.727,-0.803 -1.125,-1.156 -0.246,-0.284 -0.506,-0.557 -0.781,-0.813 -0.29,-0.353 -0.635,-0.658 -0.969,-0.969 -0.289,-0.351 -0.605,-0.659 -0.938,-0.969 -0.359,-0.435 -0.764,-0.847 -1.188,-1.219 -0.223,-0.254 -0.472,-0.487 -0.719,-0.719 -1.947,-2.364 -4.916,-3.875 -8.25,-3.875 h -1.938 c -0.07,-0.075 -0.144,-0.148 -0.219,-0.219 -0.243,-0.304 -0.509,-0.57 -0.813,-0.813 -0.29,-0.393 -0.646,-0.732 -1.031,-1.031 -0.256,-0.336 -0.548,-0.64 -0.875,-0.906 -0.295,-0.4 -0.639,-0.758 -1.031,-1.063 -0.28,-0.366 -0.575,-0.716 -0.938,-1 -0.281,-0.364 -0.607,-0.686 -0.969,-0.969 -0.272,-0.352 -0.59,-0.66 -0.938,-0.938 -0.279,-0.365 -0.579,-0.714 -0.938,-1 -0.278,-0.365 -0.581,-0.682 -0.938,-0.969 -0.287,-0.378 -0.63,-0.705 -1,-1 -0.273,-0.353 -0.592,-0.657 -0.938,-0.938 -0.297,-0.389 -0.616,-0.76 -1,-1.063 -0.262,-0.33 -0.549,-0.639 -0.875,-0.906 -0.294,-0.384 -0.654,-0.729 -1.031,-1.031 -0.261,-0.331 -0.551,-0.637 -0.875,-0.906 -0.285,-0.373 -0.637,-0.703 -1,-1 -0.281,-0.362 -0.583,-0.71 -0.938,-1 -0.282,-0.363 -0.613,-0.678 -0.969,-0.969 -0.276,-0.355 -0.592,-0.682 -0.938,-0.969 -0.279,-0.36 -0.619,-0.678 -0.969,-0.969 -0.313,-0.403 -0.663,-0.778 -1.063,-1.094 -0.258,-0.316 -0.53,-0.614 -0.844,-0.875 -0.311,-0.4 -0.667,-0.778 -1.063,-1.094 -0.263,-0.321 -0.556,-0.61 -0.875,-0.875 -0.306,-0.388 -0.646,-0.754 -1.031,-1.063 -0.267,-0.326 -0.551,-0.637 -0.875,-0.906 -0.287,-0.363 -0.614,-0.674 -0.969,-0.969 -0.288,-0.364 -0.612,-0.703 -0.969,-1 -0.302,-0.377 -0.625,-0.727 -1,-1.031 -0.285,-0.348 -0.59,-0.684 -0.938,-0.969 -0.278,-0.34 -0.6,-0.657 -0.938,-0.938 -0.291,-0.363 -0.612,-0.703 -0.969,-1 -0.295,-0.364 -0.607,-0.703 -0.969,-1 -0.284,-0.348 -0.592,-0.682 -0.938,-0.969 -0.286,-0.35 -0.621,-0.68 -0.969,-0.969 -0.288,-0.354 -0.588,-0.707 -0.938,-1 -0.291,-0.355 -0.616,-0.676 -0.969,-0.969 -0.293,-0.358 -0.613,-0.673 -0.969,-0.969 -0.286,-0.349 -0.592,-0.678 -0.938,-0.969 -0.292,-0.357 -0.615,-0.704 -0.969,-1 -0.29,-0.355 -0.587,-0.674 -0.938,-0.969 -0.292,-0.357 -0.616,-0.672 -0.969,-0.969 -0.285,-0.349 -0.595,-0.677 -0.938,-0.969 -0.009,-0.011 -0.022,-0.02 -0.031,-0.031 -0.011,-0.009 -0.02,-0.022 -0.031,-0.031 -0.277,-0.331 -0.577,-0.659 -0.906,-0.938 -0.285,-0.349 -0.596,-0.676 -0.938,-0.969 -0.291,-0.356 -0.619,-0.671 -0.969,-0.969 -0.009,-0.011 -0.022,-0.02 -0.031,-0.031 -0.011,-0.01 -0.02,-0.022 -0.031,-0.031 -0.273,-0.326 -0.552,-0.63 -0.875,-0.906 -0.287,-0.351 -0.626,-0.674 -0.969,-0.969 -0.014,-0.017 -0.017,-0.045 -0.031,-0.063 -0.017,-0.014 -0.045,-0.017 -0.063,-0.031 -0.233,-0.275 -0.482,-0.541 -0.75,-0.781 -0.315,-0.401 -0.677,-0.762 -1.063,-1.094 -0.009,-0.012 -0.022,-0.02 -0.031,-0.031 -0.023,-0.02 -0.039,-0.043 -0.063,-0.063 -0.265,-0.313 -0.534,-0.607 -0.844,-0.875 -0.286,-0.35 -0.628,-0.673 -0.969,-0.969 -0.009,-0.011 -0.022,-0.02 -0.031,-0.031 -0.033,-0.028 -0.06,-0.066 -0.094,-0.094 -0.253,-0.296 -0.52,-0.588 -0.813,-0.844 -0.29,-0.354 -0.623,-0.7 -0.969,-1 -0.019,-0.023 -0.043,-0.04 -0.063,-0.063 -0.022,-0.019 -0.04,-0.044 -0.063,-0.063 -0.261,-0.305 -0.541,-0.581 -0.844,-0.844 -0.009,-0.012 -0.022,-0.02 -0.031,-0.031 -0.034,-0.029 -0.06,-0.065 -0.094,-0.094 -0.254,-0.298 -0.518,-0.586 -0.813,-0.844 -0.023,-0.029 -0.039,-0.066 -0.063,-0.094 -0.028,-0.024 -0.066,-0.039 -0.094,-0.063 -0.249,-0.288 -0.526,-0.561 -0.813,-0.813 -0.024,-0.029 -0.039,-0.065 -0.063,-0.094 -0.028,-0.024 -0.065,-0.039 -0.094,-0.063 -0.254,-0.294 -0.489,-0.588 -0.781,-0.844 -0.291,-0.356 -0.623,-0.666 -0.969,-0.969 -0.024,-0.029 -0.038,-0.065 -0.063,-0.094 -0.028,-0.024 -0.065,-0.039 -0.094,-0.063 -0.249,-0.288 -0.496,-0.561 -0.781,-0.813 -0.287,-0.351 -0.63,-0.669 -0.969,-0.969 -0.014,-0.017 -0.017,-0.045 -0.031,-0.063 -0.05,-0.043 -0.106,-0.083 -0.156,-0.125 -0.24,-0.276 -0.476,-0.539 -0.75,-0.781 -0.027,-0.033 -0.066,-0.061 -0.094,-0.094 -0.034,-0.029 -0.059,-0.065 -0.094,-0.094 -0.244,-0.281 -0.503,-0.566 -0.781,-0.813 -0.019,-0.024 -0.043,-0.039 -0.063,-0.063 -0.045,-0.039 -0.08,-0.087 -0.125,-0.125 -0.24,-0.275 -0.477,-0.539 -0.75,-0.781 -0.286,-0.35 -0.632,-0.668 -0.969,-0.969 -0.033,-0.04 -0.06,-0.086 -0.094,-0.125 -0.039,-0.033 -0.086,-0.061 -0.125,-0.094 -0.231,-0.263 -0.458,-0.517 -0.719,-0.75 -0.024,-0.029 -0.039,-0.065 -0.063,-0.094 -0.051,-0.045 -0.104,-0.082 -0.156,-0.125 -0.236,-0.268 -0.483,-0.544 -0.75,-0.781 -0.019,-0.023 -0.044,-0.04 -0.063,-0.063 -0.054,-0.047 -0.101,-0.11 -0.156,-0.156 -0.23,-0.262 -0.459,-0.517 -0.719,-0.75 -0.289,-0.353 -0.63,-0.665 -0.969,-0.969 -0.288,-0.352 -0.6,-0.665 -0.938,-0.969 -0.027,-0.033 -0.066,-0.061 -0.094,-0.094 -0.055,-0.048 -0.1,-0.109 -0.156,-0.156 -0.225,-0.254 -0.467,-0.492 -0.719,-0.719 -0.037,-0.045 -0.088,-0.081 -0.125,-0.125 -0.046,-0.039 -0.079,-0.086 -0.125,-0.125 -0.228,-0.258 -0.463,-0.52 -0.719,-0.75 -0.024,-0.03 -0.038,-0.064 -0.063,-0.094 -0.061,-0.054 -0.125,-0.104 -0.188,-0.156 -0.223,-0.251 -0.439,-0.494 -0.688,-0.719 -0.287,-0.351 -0.633,-0.664 -0.969,-0.969 -0.289,-0.353 -0.6,-0.663 -0.938,-0.969 -0.042,-0.052 -0.082,-0.106 -0.125,-0.156 -0.05,-0.043 -0.105,-0.083 -0.156,-0.125 -0.219,-0.245 -0.444,-0.498 -0.688,-0.719 -0.028,-0.034 -0.065,-0.06 -0.094,-0.094 -0.065,-0.057 -0.121,-0.132 -0.188,-0.188 -0.213,-0.239 -0.42,-0.472 -0.656,-0.688 -0.291,-0.356 -0.629,-0.66 -0.969,-0.969 -0.288,-0.352 -0.602,-0.662 -0.938,-0.969 -0.032,-0.039 -0.061,-0.086 -0.094,-0.125 -0.072,-0.063 -0.145,-0.126 -0.219,-0.188 -0.207,-0.231 -0.427,-0.447 -0.656,-0.656 -0.289,-0.353 -0.601,-0.692 -0.938,-1 -0.291,-0.355 -0.631,-0.659 -0.969,-0.969 -0.285,-0.349 -0.607,-0.664 -0.938,-0.969 -0.34,-0.416 -0.721,-0.803 -1.125,-1.156 -0.244,-0.283 -0.507,-0.559 -0.781,-0.813 -0.288,-0.352 -0.635,-0.661 -0.969,-0.969 -0.287,-0.351 -0.605,-0.661 -0.938,-0.969 -0.334,-0.408 -0.731,-0.776 -1.125,-1.125 -0.308,-0.36 -0.644,-0.688 -1,-1 -0.241,-0.279 -0.48,-0.562 -0.75,-0.813 -0.339,-0.415 -0.724,-0.77 -1.125,-1.125 -0.309,-0.361 -0.612,-0.717 -0.969,-1.031 -0.29,-0.334 -0.607,-0.644 -0.938,-0.938 -0.243,-0.283 -0.509,-0.558 -0.781,-0.813 -0.354,-0.433 -0.737,-0.818 -1.156,-1.188 -0.234,-0.27 -0.49,-0.506 -0.75,-0.75 -0.339,-0.414 -0.727,-0.8 -1.125,-1.156 -0.31,-0.361 -0.644,-0.716 -1,-1.031 -0.229,-0.263 -0.496,-0.511 -0.75,-0.75 -0.289,-0.354 -0.605,-0.656 -0.938,-0.969 -0.359,-0.438 -0.764,-0.844 -1.188,-1.219 -0.223,-0.256 -0.472,-0.485 -0.719,-0.719 -1.947,-2.381 -4.916,-3.906 -8.25,-3.906 -5.927,0 -10.719,4.791 -10.719,10.719 v 34.594 c -0.152,-0.155 -0.306,-0.295 -0.469,-0.438 -0.289,-0.351 -0.627,-0.669 -0.969,-0.969 -0.014,-0.017 -0.017,-0.045 -0.031,-0.063 -0.05,-0.043 -0.105,-0.083 -0.156,-0.125 -0.239,-0.272 -0.479,-0.542 -0.75,-0.781 -0.29,-0.351 -0.627,-0.699 -0.969,-1 -0.29,-0.351 -0.596,-0.667 -0.938,-0.969 -0.289,-0.35 -0.629,-0.668 -0.969,-0.969 -0.033,-0.04 -0.06,-0.086 -0.094,-0.125 -0.039,-0.033 -0.085,-0.061 -0.125,-0.094 -0.23,-0.259 -0.46,-0.52 -0.719,-0.75 -0.289,-0.351 -0.629,-0.698 -0.969,-1 -0.289,-0.351 -0.598,-0.667 -0.938,-0.969 -0.291,-0.353 -0.627,-0.665 -0.969,-0.969 -0.287,-0.348 -0.601,-0.668 -0.938,-0.969 -0.287,-0.348 -0.633,-0.668 -0.969,-0.969 -0.294,-0.356 -0.625,-0.693 -0.969,-1 -0.025,-0.03 -0.038,-0.064 -0.063,-0.094 -0.062,-0.054 -0.124,-0.104 -0.188,-0.156 -0.225,-0.251 -0.437,-0.494 -0.688,-0.719 -0.29,-0.351 -0.631,-0.664 -0.969,-0.969 -0.042,-0.051 -0.082,-0.106 -0.125,-0.156 -0.05,-0.043 -0.105,-0.083 -0.156,-0.125 -0.212,-0.236 -0.421,-0.475 -0.656,-0.688 -0.295,-0.358 -0.624,-0.69 -0.969,-1 -0.028,-0.034 -0.065,-0.06 -0.094,-0.094 -0.065,-0.057 -0.12,-0.132 -0.188,-0.188 -0.215,-0.239 -0.418,-0.472 -0.656,-0.688 -0.291,-0.353 -0.629,-0.662 -0.969,-0.969 -0.288,-0.35 -0.602,-0.664 -0.938,-0.969 -0.29,-0.352 -0.631,-0.662 -0.969,-0.969 -0.292,-0.353 -0.599,-0.692 -0.938,-1 -0.293,-0.355 -0.628,-0.659 -0.969,-0.969 -0.286,-0.346 -0.607,-0.666 -0.938,-0.969 -0.343,-0.416 -0.718,-0.803 -1.125,-1.156 -0.246,-0.283 -0.504,-0.559 -0.781,-0.813 -0.29,-0.352 -0.633,-0.661 -0.969,-0.969 -0.288,-0.349 -0.605,-0.663 -0.938,-0.969 -0.346,-0.42 -0.746,-0.799 -1.156,-1.156 -0.237,-0.273 -0.485,-0.536 -0.75,-0.781 -0.292,-0.354 -0.631,-0.689 -0.969,-1 -0.286,-0.347 -0.608,-0.663 -0.938,-0.969 -0.352,-0.426 -0.74,-0.824 -1.156,-1.188 -0.292,-0.334 -0.604,-0.644 -0.938,-0.938 -0.245,-0.283 -0.507,-0.558 -0.781,-0.813 -0.294,-0.356 -0.63,-0.655 -0.969,-0.969 -0.29,-0.352 -0.604,-0.658 -0.938,-0.969 -0.342,-0.414 -0.724,-0.8 -1.125,-1.156 -0.313,-0.361 -0.641,-0.716 -1,-1.031 -0.231,-0.263 -0.494,-0.511 -0.75,-0.75 -0.292,-0.354 -0.603,-0.656 -0.938,-0.969 -0.362,-0.438 -0.761,-0.844 -1.188,-1.219 -0.225,-0.256 -0.47,-0.485 -0.719,-0.719 -1.965,-2.381 -4.947,-3.906 -8.281,-3.906 -5.927,0 -10.656,4.791 -10.656,10.719 v 33.719 c -0.31,-0.353 -0.647,-0.659 -1,-0.969 -0.309,-0.353 -0.616,-0.69 -0.969,-1 -0.293,-0.334 -0.637,-0.642 -0.969,-0.938 -0.32,-0.37 -0.664,-0.74 -1.031,-1.063 -0.323,-0.368 -0.693,-0.711 -1.063,-1.031 -0.298,-0.334 -0.601,-0.643 -0.938,-0.938 -0.314,-0.359 -0.641,-0.686 -1,-1 -0.314,-0.359 -0.641,-0.686 -1,-1 -0.295,-0.337 -0.603,-0.64 -0.938,-0.938 -0.32,-0.37 -0.664,-0.74 -1.031,-1.063 -0.323,-0.368 -0.693,-0.711 -1.063,-1.031 -0.367,-0.412 -0.73,-0.836 -1.156,-1.188 -0.249,-0.267 -0.506,-0.509 -0.781,-0.75 -0.314,-0.359 -0.641,-0.686 -1,-1 -0.309,-0.353 -0.616,-0.69 -0.969,-1 -0.293,-0.334 -0.637,-0.642 -0.969,-0.938 -0.335,-0.386 -0.707,-0.759 -1.094,-1.094 -0.296,-0.332 -0.603,-0.676 -0.938,-0.969 -0.31,-0.353 -0.647,-0.659 -1,-0.969 -0.314,-0.359 -0.641,-0.686 -1,-1 -0.309,-0.353 -0.616,-0.69 -0.969,-1 -0.293,-0.334 -0.637,-0.642 -0.969,-0.938 -0.32,-0.37 -0.664,-0.74 -1.031,-1.063 -0.323,-0.368 -0.693,-0.711 -1.063,-1.031 -0.298,-0.334 -0.601,-0.643 -0.938,-0.938 -0.314,-0.359 -0.641,-0.686 -1,-1 -0.241,-0.275 -0.483,-0.532 -0.75,-0.781 -0.351,-0.426 -0.775,-0.789 -1.188,-1.156 -0.32,-0.37 -0.664,-0.74 -1.031,-1.063 -0.323,-0.368 -0.693,-0.711 -1.063,-1.031 -0.367,-0.412 -0.73,-0.836 -1.156,-1.188 -0.249,-0.267 -0.506,-0.509 -0.781,-0.75 -0.314,-0.359 -0.641,-0.686 -1,-1 -0.295,-0.337 -0.603,-0.64 -0.938,-0.938 -0.32,-0.37 -0.664,-0.74 -1.031,-1.063 -0.323,-0.368 -0.693,-0.711 -1.063,-1.031 -0.296,-0.332 -0.603,-0.676 -0.938,-0.969 -0.31,-0.353 -0.647,-0.659 -1,-0.969 -0.314,-0.359 -0.641,-0.686 -1,-1 -0.309,-0.353 -0.616,-0.69 -0.969,-1 -0.293,-0.334 -0.637,-0.642 -0.969,-0.938 -1.964,-2.266 -4.854,-3.719 -8.094,-3.719"
       inkscape:connector-curvature="0"
       id="path8"
       style="fill-opacity:0.23500001" />
    <path
       d="M 256,1 C 115.17,1 1,115.17 1,256 1,396.83 115.17,511 256,511 396.83,511 511,396.83 511,256 511,115.17 396.83,1 256,1 m 8.827,44.931 c 120.9,0 218.9,98 218.9,218.9 0,120.9 -98,218.9 -218.9,218.9 -120.9,0 -218.93,-98 -218.93,-218.9 0,-120.9 98.03,-218.9 218.93,-218.9"
       inkscape:connector-curvature="0"
       id="path10"
       style="fill-opacity:0.06700003" />
    <g
       id="g12"
       style="fill-opacity:0.12900002">
      <path
         d="m 256,4.433 c -138.94,0 -251.57,112.63 -251.57,251.57 0,138.94 112.63,251.57 251.57,251.57 138.94,0 251.57,-112.63 251.57,-251.57 C 507.57,117.063 394.94,4.433 256,4.433 m 5.885,38.556 c 120.9,0 218.9,98 218.9,218.9 0,120.9 -98,218.9 -218.9,218.9 -120.9,0 -218.93,-98 -218.93,-218.9 0,-120.9 98.03,-218.9 218.93,-218.9"
         inkscape:connector-curvature="0"
         id="path14" />
      <path
         d="m 256,8.356 c -136.77,0 -247.64,110.87 -247.64,247.64 0,136.77 110.87,247.64 247.64,247.64 136.77,0 247.64,-110.87 247.64,-247.64 C 503.64,119.226 392.77,8.356 256,8.356 m 2.942,31.691 c 120.9,0 218.9,98 218.9,218.9 0,120.9 -98,218.9 -218.9,218.9 -120.9,0 -218.93,-98 -218.93,-218.9 0,-120.9 98.03,-218.9 218.93,-218.9"
         inkscape:connector-curvature="0"
         id="path16" />
    </g>
    <path
       d="m 253.04,7.859 c -135.42,0 -245.19,109.78 -245.19,245.19 0,135.42 109.78,245.19 245.19,245.19 135.42,0 245.19,-109.78 245.19,-245.19 0,-135.42 -109.78,-245.19 -245.19,-245.19 z m 0,26.297 c 120.9,0 218.9,98 218.9,218.9 0,120.9 -98,218.9 -218.9,218.9 -120.9,0 -218.93,-98 -218.93,-218.9 0,-120.9 98.03,-218.9 218.93,-218.9 z"
       inkscape:connector-curvature="0"
       id="path18"
       style="fill:#ffffff;stroke:#000000;stroke-width:4.90399981;stroke-opacity:0.31000001" />
  </g>
  <text
     x="729.64001"
     y="231.36"
     id="text20"
     style="font-size:129.22999573px;line-height:125%;letter-spacing:0;word-spacing:0;font-family:Gentium Book Basic">
    <tspan
       x="729.64001"
       y="231.36"
       id="tspan22" />
  </text>
  <text
     x="378.91"
     y="579.25"
     transform="scale(4.0128,0.2492)"
     id="text24"
     style="font-size:46.95399857px;text-anchor:middle;font-family:Arial" />
  <text
     x="1310.91"
     y="151.36"
     id="text26"
     style="font-size:129.22999573px;line-height:125%;letter-spacing:0;word-spacing:0;font-family:Gentium Book Basic">
    <tspan
       x="1310.91"
       y="151.36"
       id="tspan28" />
  </text>
  <text
     x="523.76001"
     y="258.22"
     transform="scale(4.0128,0.2492)"
     id="text30"
     style="font-size:46.95399857px;text-anchor:middle;font-family:Arial" />
  <text
     x="239.33"
     y="-29.900999"
     id="text32"
     style="font-size:129.22999573px;line-height:125%;letter-spacing:0;word-spacing:0;font-family:Gentium Book Basic">
    <tspan
       x="239.33"
       y="-29.900999"
       id="tspan34" />
  </text>
  <text
     x="256.72"
     y="-469.14001"
     transform="scale(4.0128,0.2492)"
     id="text36"
     style="font-size:46.95399857px;text-anchor:middle;font-family:Arial" />
  <text
     x="1337.38"
     y="-246.37"
     id="text38"
     style="font-size:129.22999573px;line-height:125%;letter-spacing:0;word-spacing:0;font-family:Gentium Book Basic">
    <tspan
       x="1337.38"
       y="-246.37"
       id="tspan40" />
  </text>
  <text
     x="530.35999"
     y="-1337.8101"
     transform="scale(4.0128,0.2492)"
     id="text42"
     style="font-size:46.95399857px;text-anchor:middle;font-family:Arial" />
  <text
     x="1918.65"
     y="-326.38"
     id="text44"
     style="font-size:129.22999573px;line-height:125%;letter-spacing:0;word-spacing:0;font-family:Gentium Book Basic">
    <tspan
       x="1918.65"
       y="-326.38"
       id="tspan46" />
  </text>
  <text
     x="675.21002"
     y="-1658.85"
     transform="scale(4.0128,0.2492)"
     id="text48"
     style="font-size:46.95399857px;text-anchor:middle;font-family:Arial" />
  <text
     x="1529.53"
     y="-798.78003"
     id="text50"
     style="font-size:129.22999573px;line-height:125%;letter-spacing:0;word-spacing:0;font-family:Gentium Book Basic">
    <tspan
       x="1529.53"
       y="-798.78003"
       id="tspan52" />
  </text>
  <text
     x="578.23999"
     y="-3554.51"
     transform="scale(4.0128,0.2492)"
     id="text54"
     style="font-size:46.95399857px;text-anchor:middle;font-family:Arial" />
  <text
     x="2110.79"
     y="-878.78003"
     id="text56"
     style="font-size:129.22999573px;line-height:125%;letter-spacing:0;word-spacing:0;font-family:Gentium Book Basic">
    <tspan
       x="2110.79"
       y="-878.78003"
       id="tspan58" />
  </text>
  <text
     x="723.09003"
     y="-3875.54"
     transform="scale(4.0128,0.2492)"
     id="text60"
     style="font-size:46.95399857px;text-anchor:middle;font-family:Arial" />
  <text
     x="277.98999"
     y="535.94"
     id="text62"
     style="font-size:208.33000183px;line-height:125%;letter-spacing:0;word-spacing:0;font-family:Gentium Book Basic">
    <tspan
       x="277.98999"
       y="535.94"
       id="tspan64" />
  </text>
  <path
     d="m 193.81,81.13 c -5.928,0 -10.719,4.791 -10.719,10.719 v 46.844 c 0,5.928 4.791,10.656 10.719,10.656 5.928,0 10.719,-4.729 10.719,-10.656 V 91.849 c 0,-5.928 -4.791,-10.719 -10.719,-10.719 m 59.5,0 c -5.928,0 -10.656,4.791 -10.656,10.719 v 46.844 c 0,5.928 4.729,10.656 10.656,10.656 5.928,0 10.719,-4.729 10.719,-10.656 V 91.849 c 0,-5.928 -4.791,-10.719 -10.719,-10.719 m 59.53,0 c -5.928,0 -10.719,4.791 -10.719,10.719 v 46.844 c 0,5.928 4.791,10.656 10.719,10.656 5.928,0 10.656,-4.729 10.656,-10.656 V 91.849 c 0,-5.928 -4.729,-10.719 -10.656,-10.719 m -120.03,83.63 c -16.301,0 -29.406,13.168 -29.406,29.469 v 121.69 c 0,16.301 13.11,29.438 29.406,29.438 h 121.03 c 16.301,0 29.406,-13.14 29.406,-29.438 v -121.69 c 0,-16.301 -13.11,-29.469 -29.406,-29.469 H 192.81 m 80.53125,17.59375 a 2.669426,2.669426 0 0 1 2.5,1.6875 c 0.406,1.014 0.83,1.847 1.281,2.75 a 2.669426,2.669426 0 0 1 0.0625,0.15625 c 1.788,4.246 1.932,4.27 3.313,7.03 0.561,0.854 1.601,2.545 2.938,5.219 a 2.669426,2.669426 0 0 1 -0.78125,3.28125 c -7.512,5.744 -8.03,6.262 -14.219,11.813 a 2.669426,2.669426 0 0 1 -0.625,0.5625 2.669426,2.669426 0 0 1 -0.0937,0.0625 2.669426,2.669426 0 0 1 -0.15625,0.0625 2.669426,2.669426 0 0 1 -0.0937,0.0625 2.669426,2.669426 0 0 1 -0.125,0.0312 2.669426,2.669426 0 0 1 -0.28125,0.0937 2.669426,2.669426 0 0 1 -0.78125,0.0937 2.669426,2.669426 0 0 1 -0.0937,0 2.669426,2.669426 0 0 1 -0.1875,-0.0312 2.669426,2.669426 0 0 1 -0.3125,-0.0625 2.669426,2.669426 0 0 1 -0.0312,0 2.669426,2.669426 0 0 1 -0.15625,-0.0625 2.669426,2.669426 0 0 1 -0.0937,-0.0312 2.669426,2.669426 0 0 1 -0.46875,-0.21875 2.669426,2.669426 0 0 1 -0.125,-0.0937 2.669426,2.669426 0 0 1 -0.0937,-0.0937 2.669426,2.669426 0 0 1 -0.21875,-0.15625 2.669426,2.669426 0 0 1 -0.0937,-0.0937 2.669426,2.669426 0 0 1 -0.0625,-0.125 2.669426,2.669426 0 0 1 -0.40625,-0.5625 2.669426,2.669426 0 0 1 -0.0312,-0.0937 c -0.034,-0.05 -0.029,-0.076 -0.063,-0.125 -4.69,-6.866 -6.947,-10.829 -8.563,-15.906 a 2.669426,2.669426 0 0 1 1.3125,-3.21875 c 0.584,-0.292 1.41,-0.885 2.313,-1.563 a 2.669426,2.669426 0 0 1 0.125,-0.0625 c 1.993,-1.329 3.505,-2.46 4.531,-3.281 2.291,-1.833 4.193,-3.287 4.781,-3.875 1.096,-1.096 2.382,-1.862 3.375,-2.656 a 2.669426,2.669426 0 0 1 1.375,-0.5625 2.669426,2.669426 0 0 1 0.25,-0.0312 m -181.84,2.469 c -5.928,0 -10.719,4.729 -10.719,10.656 0,5.928 4.791,10.719 10.719,10.719 h 46.844 c 5.928,0 10.656,-4.791 10.656,-10.719 0,-5.928 -4.729,-10.656 -10.656,-10.656 h -46.844 m 282.22,0 c -5.928,0 -10.719,4.729 -10.719,10.656 0,5.928 4.791,10.719 10.719,10.719 h 46.844 c 5.928,0 10.656,-4.791 10.656,-10.719 0,-5.928 -4.729,-10.656 -10.656,-10.656 h -46.844 m -107.56,43.781 c 1.298,0 2.61,0.389 3.656,1.25 1.046,0.861 1.75,2.269 1.75,3.688 0,1.01 -0.224,1.863 -0.625,3.75 -0.401,1.887 -1.059,4.695 -2.063,8.906 -2.01,8.423 -5.433,22.523 -11.188,46.22 a 2.669426,2.669426 0 0 1 -0.0312,0.0625 c -1.311,4.807 -1.938,9.09 -1.938,10.813 0,1.552 0.364,2.652 0.688,3.156 0.323,0.503 0.367,0.5 0.719,0.5 1.399,0 1.327,0.146 4.344,-1.281 2.952,-1.397 8.538,-4.391 18.813,-9.906 a 2.669426,2.669426 0 0 1 0.25,-0.1875 2.669426,2.669426 0 0 1 0.6875,-0.28125 2.669426,2.669426 0 0 1 0.125,-0.0312 2.669426,2.669426 0 0 1 0.15625,-0.0312 2.669426,2.669426 0 0 1 0.53125,-0.0625 2.669426,2.669426 0 0 1 0.125,0 2.669426,2.669426 0 0 1 0.125,0 2.669426,2.669426 0 0 1 0.28125,0.0937 2.669426,2.669426 0 0 1 0.25,0.0625 2.669426,2.669426 0 0 1 0.0312,0 2.669426,2.669426 0 0 1 0.21875,0.0937 2.669426,2.669426 0 0 1 0.375,0.1875 2.669426,2.669426 0 0 1 1.15625,1.84375 2.669426,2.669426 0 0 1 0.0312,0.125 2.669426,2.669426 0 0 1 0,0.15625 2.669426,2.669426 0 0 1 -0.0312,0.65625 2.669426,2.669426 0 0 1 -0.0312,0.21875 l -0.031,0.094 -0.844,5.844 a 2.669426,2.669426 0 0 1 -1.25,1.9375 c -2.111,1.267 -4.11,2.58 -6.188,3.75 -0.077,0.044 -0.141,0.082 -0.219,0.125 -4.264,2.91 -8.505,5.62 -12.719,8.281 -12.05,7.729 -18.12,11 -23.313,11 -2.597,0 -4.884,-1.603 -6.188,-3.75 -1.303,-2.147 -1.938,-4.827 -1.938,-7.906 0,-2.821 0.058,-4.761 1.406,-10.5 1.347,-5.734 4.02,-15.6 9.313,-35.31 0.004,-0.015 -0.004,-0.016 0,-0.031 3.369,-12.805 3.969,-15.73 3.969,-18.25 0,-0.9 -0.171,-1.217 -0.219,-1.344 -0.69,-0.003 -0.792,-0.077 -2.719,0.813 -2.048,0.945 -5.662,2.862 -12.313,6.469 a 2.669426,2.669426 0 0 1 -3.9375,-2.53125 l 0.469,-6.313 a 2.669426,2.669426 0 0 1 1.15625,-2.03125 c 9.294,-6.234 17.307,-11.217 23.531,-14.688 3.112,-1.735 5.758,-3.113 7.969,-4.063 2.211,-0.95 3.834,-1.594 5.656,-1.594 m -174.66,15.719 c -5.928,0 -10.719,4.791 -10.719,10.719 0,5.928 4.791,10.656 10.719,10.656 h 46.844 c 5.928,0 10.656,-4.729 10.656,-10.656 0,-5.928 -4.729,-10.719 -10.656,-10.719 h -46.844 m 282.22,0 c -5.928,0 -10.719,4.791 -10.719,10.719 0,5.928 4.791,10.656 10.719,10.656 h 46.844 c 5.928,0 10.656,-4.729 10.656,-10.656 0,-5.928 -4.729,-10.719 -10.656,-10.719 h -46.844 m -282.22,59.5 c -5.928,0 -10.719,4.791 -10.719,10.719 0,5.928 4.791,10.719 10.719,10.719 h 46.844 c 5.928,0 10.656,-4.791 10.656,-10.719 0,-5.928 -4.729,-10.719 -10.656,-10.719 h -46.844 m 282.22,0 c -5.928,0 -10.719,4.791 -10.719,10.719 0,5.928 4.791,10.719 10.719,10.719 h 46.844 c 5.928,0 10.656,-4.791 10.656,-10.719 0,-5.928 -4.729,-10.719 -10.656,-10.719 h -46.844 m -179.91,58.844 c -5.928,0 -10.719,4.791 -10.719,10.719 v 46.844 c 0,5.928 4.791,10.656 10.719,10.656 5.928,0 10.719,-4.729 10.719,-10.656 v -46.844 c 0,-5.928 -4.791,-10.719 -10.719,-10.719 m 59.5,0 c -5.928,0 -10.656,4.791 -10.656,10.719 v 46.844 c 0,5.928 4.729,10.656 10.656,10.656 5.928,0 10.719,-4.729 10.719,-10.656 v -46.844 c 0,-5.928 -4.791,-10.719 -10.719,-10.719 m 59.53,0 c -5.928,0 -10.719,4.791 -10.719,10.719 v 46.844 c 0,5.928 4.791,10.656 10.719,10.656 5.928,0 10.656,-4.729 10.656,-10.656 v -46.844 c 0,-5.928 -4.729,-10.719 -10.656,-10.719"
     inkscape:connector-curvature="0"
     id="path66"
     style="fill:#ffffff;fill-rule:evenodd" />
</svg>
