<?xml version="1.0" encoding="UTF-8" standalone="no"?>
<!-- Created with Inkscape (http://www.inkscape.org/) -->

<svg
   xmlns:dc="http://purl.org/dc/elements/1.1/"
   xmlns:cc="http://creativecommons.org/ns#"
   xmlns:rdf="http://www.w3.org/1999/02/22-rdf-syntax-ns#"
   xmlns:svg="http://www.w3.org/2000/svg"
   xmlns="http://www.w3.org/2000/svg"
   xmlns:inkscape="http://www.inkscape.org/namespaces/inkscape"
   version="1.1"
   width="100%"
   height="100%"
   viewBox="0 0 512 512"
   id="svg2">
  <metadata
     id="metadata72">
    <rdf:RDF>
      <cc:Work
         rdf:about="">
        <dc:format>image/svg+xml</dc:format>
        <dc:type
           rdf:resource="http://purl.org/dc/dcmitype/StillImage" />
      </cc:Work>
    </rdf:RDF>
  </metadata>
  <defs
     id="defs70" />
  <path
     d="m 471.95,253.05 c 0,120.9 -98.01,218.9 -218.9,218.9 -120.9,0 -218.9,-98.01 -218.9,-218.9 0,-120.9 98.01,-218.9 218.9,-218.9 120.9,0 218.9,98.01 218.9,218.9"
     inkscape:connector-curvature="0"
     id="path4"
     style="fill:#10477d;fill-rule:evenodd" />
  <path
     d="m 255.63,76.25 c -24.04,0.564 -48,1.286 -49.44,30.719 -25.879,72.08 -51.28,144.31 -77.28,216.34 4.771,3.02 6.981,7.574 11.75,10.594 2.943,3.736 6.05,7.288 10.313,10.313 2.424,4.196 7.554,6.927 9.969,11.125 4.808,3.042 6.957,7.556 11.75,10.594 2.463,4.217 7.541,6.929 10,11.156 4.771,3.02 6.981,7.574 11.75,10.594 2.46,4.222 7.532,6.919 10,11.156 4.798,3.03 6.948,7.546 11.75,10.594 3.041,6.767 -9.387,22.441 -0.75,25.594 3.476,2.216 6.105,4.919 8.03,8.03 4.899,2.942 6.871,7.553 11.781,10.5 2.354,4.326 7.604,6.921 9.969,11.25 3.25,1.953 5.255,4.681 7.688,7.156 0.042,0 0.083,0 0.125,0 110.85,0 202.45,-82.42 216.91,-189.31 -24.388,-24.45 -48.643,-49.04 -72.69,-73.844 -10.559,-9.14 -18.56,-24.334 -34.31,-24.25 -3.059,-3.96 -7.74,-6.55 -10.06,-11.06 -5.155,-2.442 -6.733,-7.685 -11.906,-10.125 -2.059,-4.808 -7.746,-6.799 -9.813,-11.594 -5.161,-2.471 -6.767,-7.677 -11.906,-10.156 -2.112,-4.771 -7.751,-6.809 -9.844,-11.594 -5.151,-2.467 -6.769,-7.67 -11.906,-10.156 -2.106,-4.772 -7.746,-6.798 -9.844,-11.594 -5.161,-2.441 -6.733,-7.692 -11.906,-10.125 -2.066,-4.809 -7.745,-6.804 -9.813,-11.594 -4.169,-2.674 -7.854,-6.331 -10.313,-10.313"
     inkscape:connector-curvature="0"
     id="path6"
     style="fill-opacity:0.23500001" />
  <g
     id="g8"
     style="fill-rule:evenodd">
    <path
       d="M 256,1 C 115.17,1 1,115.17 1,256 1,396.83 115.17,511 256,511 396.83,511 511,396.83 511,256 511,115.17 396.83,1 256,1 m 8.827,44.931 c 120.9,0 218.9,98 218.9,218.9 0,120.9 -98,218.9 -218.9,218.9 -120.9,0 -218.93,-98 -218.93,-218.9 0,-120.9 98.03,-218.9 218.93,-218.9"
       inkscape:connector-curvature="0"
       id="path10"
       style="fill-opacity:0.06700003" />
    <g
       id="g12"
       style="fill-opacity:0.12900002">
      <path
         d="m 256,4.433 c -138.94,0 -251.57,112.63 -251.57,251.57 0,138.94 112.63,251.57 251.57,251.57 138.94,0 251.57,-112.63 251.57,-251.57 C 507.57,117.063 394.94,4.433 256,4.433 m 5.885,38.556 c 120.9,0 218.9,98 218.9,218.9 0,120.9 -98,218.9 -218.9,218.9 -120.9,0 -218.93,-98 -218.93,-218.9 0,-120.9 98.03,-218.9 218.93,-218.9"
         inkscape:connector-curvature="0"
         id="path14" />
      <path
         d="m 256,8.356 c -136.77,0 -247.64,110.87 -247.64,247.64 0,136.77 110.87,247.64 247.64,247.64 136.77,0 247.64,-110.87 247.64,-247.64 C 503.64,119.226 392.77,8.356 256,8.356 m 2.942,31.691 c 120.9,0 218.9,98 218.9,218.9 0,120.9 -98,218.9 -218.9,218.9 -120.9,0 -218.93,-98 -218.93,-218.9 0,-120.9 98.03,-218.9 218.93,-218.9"
         inkscape:connector-curvature="0"
         id="path16" />
    </g>
    <path
       d="m 253.04,7.859 c -135.42,0 -245.19,109.78 -245.19,245.19 0,135.42 109.78,245.19 245.19,245.19 135.42,0 245.19,-109.78 245.19,-245.19 0,-135.42 -109.78,-245.19 -245.19,-245.19 z m 0,26.297 c 120.9,0 218.9,98 218.9,218.9 0,120.9 -98,218.9 -218.9,218.9 -120.9,0 -218.93,-98 -218.93,-218.9 0,-120.9 98.03,-218.9 218.93,-218.9 z"
       inkscape:connector-curvature="0"
       id="path18"
       style="fill:#ffffff;stroke:#000000;stroke-width:4.90399981;stroke-opacity:0.31000001" />
  </g>
  <text
     x="729.64001"
     y="231.36"
     id="text20"
     style="font-size:129.22999573px;line-height:125%;letter-spacing:0;word-spacing:0;font-family:Gentium Book Basic">
    <tspan
       x="729.64001"
       y="231.36"
       id="tspan22" />
  </text>
  <text
     x="378.91"
     y="579.25"
     transform="scale(4.0128,0.2492)"
     id="text24"
     style="font-size:46.95399857px;text-anchor:middle;font-family:Arial" />
  <text
     x="1310.91"
     y="151.36"
     id="text26"
     style="font-size:129.22999573px;line-height:125%;letter-spacing:0;word-spacing:0;font-family:Gentium Book Basic">
    <tspan
       x="1310.91"
       y="151.36"
       id="tspan28" />
  </text>
  <text
     x="523.76001"
     y="258.22"
     transform="scale(4.0128,0.2492)"
     id="text30"
     style="font-size:46.95399857px;text-anchor:middle;font-family:Arial" />
  <text
     x="239.33"
     y="-29.900999"
     id="text32"
     style="font-size:129.22999573px;line-height:125%;letter-spacing:0;word-spacing:0;font-family:Gentium Book Basic">
    <tspan
       x="239.33"
       y="-29.900999"
       id="tspan34" />
  </text>
  <text
     x="256.72"
     y="-469.14001"
     transform="scale(4.0128,0.2492)"
     id="text36"
     style="font-size:46.95399857px;text-anchor:middle;font-family:Arial" />
  <text
     x="1337.38"
     y="-246.37"
     id="text38"
     style="font-size:129.22999573px;line-height:125%;letter-spacing:0;word-spacing:0;font-family:Gentium Book Basic">
    <tspan
       x="1337.38"
       y="-246.37"
       id="tspan40" />
  </text>
  <text
     x="530.35999"
     y="-1337.8101"
     transform="scale(4.0128,0.2492)"
     id="text42"
     style="font-size:46.95399857px;text-anchor:middle;font-family:Arial" />
  <text
     x="1918.65"
     y="-326.38"
     id="text44"
     style="font-size:129.22999573px;line-height:125%;letter-spacing:0;word-spacing:0;font-family:Gentium Book Basic">
    <tspan
       x="1918.65"
       y="-326.38"
       id="tspan46" />
  </text>
  <text
     x="675.21002"
     y="-1658.85"
     transform="scale(4.0128,0.2492)"
     id="text48"
     style="font-size:46.95399857px;text-anchor:middle;font-family:Arial" />
  <text
     x="1529.53"
     y="-798.78003"
     id="text50"
     style="font-size:129.22999573px;line-height:125%;letter-spacing:0;word-spacing:0;font-family:Gentium Book Basic">
    <tspan
       x="1529.53"
       y="-798.78003"
       id="tspan52" />
  </text>
  <text
     x="578.23999"
     y="-3554.51"
     transform="scale(4.0128,0.2492)"
     id="text54"
     style="font-size:46.95399857px;text-anchor:middle;font-family:Arial" />
  <text
     x="2110.79"
     y="-878.78003"
     id="text56"
     style="font-size:129.22999573px;line-height:125%;letter-spacing:0;word-spacing:0;font-family:Gentium Book Basic">
    <tspan
       x="2110.79"
       y="-878.78003"
       id="tspan58" />
  </text>
  <text
     x="723.09003"
     y="-3875.54"
     transform="scale(4.0128,0.2492)"
     id="text60"
     style="font-size:46.95399857px;text-anchor:middle;font-family:Arial" />
  <text
     x="277.98999"
     y="535.94"
     id="text62"
     style="font-size:208.33000183px;line-height:125%;letter-spacing:0;word-spacing:0;font-family:Gentium Book Basic">
    <tspan
       x="277.98999"
       y="535.94"
       id="tspan64" />
  </text>
  <path
     d="m 215.75,80.41 c -29.22,80.911 -57.634,161.98 -86.84,242.91 1.864,0.566 3.71,0.355 5.625,0.375 10.646,-0.051 21.323,0.042 31.969,0 1.45,-0.01 1.267,-2.075 1.875,-3 12.829,-36.17 25.88,-72.16 38.75,-108.31 0.772,-2.242 1.595,-4.622 2.625,-6.75 6.672,0.113 13.266,-0.103 19.938,0 -13.992,39.19 -27.927,78.57 -42.12,117.69 1.483,0.596 2.945,0.343 4.5,0.375 11.182,-0.104 22.287,0.154 33.469,0 12.633,-35.607 25.71,-71.19 38.38,-106.78 2.707,-7.28 2.803,-15.848 -1.5,-22.563 -3.758,-5.943 -10.882,-9.129 -17.688,-9.406 -9.308,-0.277 -18.495,0.164 -27.813,0 12.807,-36.3 26.01,-72.35 38.719,-108.69 -39.824,4.161 -32.08,3.277 -39.875,4.156 m 83.13,103.78 c -0.288,0.596 -0.464,2.039 -0.75,2.625 -28.974,81.27 -58.16,162.43 -87.25,243.66 36.722,5.327 10.242,1.669 36.844,5.281 12.695,-35.669 25.567,-71.17 38.38,-106.81 13.94,-0.257 27.779,-0.118 41.719,-0.375 8.897,-0.309 17.763,-5.645 20.688,-14.281 11.789,-33.15 23.55,-65.987 34.969,-99.28 1.874,-5.03 2.993,-10.517 1.5,-15.781 -2.02,-6.673 -8.09,-11.763 -14.656,-13.531 -5.704,-1.769 -11.412,-1.022 -17.281,-1.125 -17.895,-0.052 -36.27,-0.2 -54.16,-0.375 m 32.781,20.938 c 0.845,-0.008 1.728,0.215 2.563,0.094 5.169,0.093 10.237,-0.113 15.406,0 -12.04,34.31 -24.25,68.68 -36.09,103.06 -6.692,0.473 -13.61,0.041 -20.313,0 12.221,-34.09 24.25,-68.19 36.469,-102.28 0.277,-0.314 0.79,-0.673 1.156,-0.781 0.274,-0.081 0.531,-0.091 0.813,-0.094"
     inkscape:connector-curvature="0"
     id="path66"
     style="fill:#ffffff" />
</svg>
