<?xml version="1.0" encoding="UTF-8" standalone="no"?>
<!-- Created with Inkscape (http://www.inkscape.org/) -->

<svg
   xmlns:dc="http://purl.org/dc/elements/1.1/"
   xmlns:cc="http://creativecommons.org/ns#"
   xmlns:rdf="http://www.w3.org/1999/02/22-rdf-syntax-ns#"
   xmlns:svg="http://www.w3.org/2000/svg"
   xmlns="http://www.w3.org/2000/svg"
   xmlns:inkscape="http://www.inkscape.org/namespaces/inkscape"
   version="1.1"
   width="100%"
   height="100%"
   viewBox="0 0 512 512"
   id="svg2">
  <metadata
     id="metadata70">
    <rdf:RDF>
      <cc:Work
         rdf:about="">
        <dc:format>image/svg+xml</dc:format>
        <dc:type
           rdf:resource="http://purl.org/dc/dcmitype/StillImage" />
        <dc:title />
      </cc:Work>
    </rdf:RDF>
  </metadata>
  <defs
     id="defs68">
    <clipPath
       id="clipPath3426">
      <path
         d="m 471.9456,253.05189 c 0,120.89699 -98.00565,218.90724 -218.90724,218.90724 -120.89698,0 -218.90723,-98.00566 -218.90723,-218.90724 0,-120.89698 98.00565,-218.907232 218.90723,-218.907232 120.89699,0 218.90724,98.005652 218.90724,218.907232"
         inkscape:connector-curvature="0"
         id="path3428"
         style="fill:#336699;fill-rule:evenodd" />
    </clipPath>
  </defs>
  <path
     d="m 471.9456,253.05189 c 0,120.89699 -98.00565,218.90724 -218.90724,218.90724 -120.89698,0 -218.90723,-98.00566 -218.90723,-218.90724 0,-120.89698 98.00565,-218.907232 218.90723,-218.907232 120.89699,0 218.90724,98.005652 218.90724,218.907232"
     inkscape:connector-curvature="0"
     id="path8"
     style="fill:#336699;fill-rule:evenodd" />
  <path
     d="m 253.03125,34.15625 c -20.22933,0 -39.81076,2.739077 -58.40625,7.875 l 0,422.03125 c 18.60131,5.1394 38.17022,7.90625 58.40625,7.90625 22.39467,0 43.99756,-3.3769 64.34375,-9.625 l 0,-418.5625 c -20.34625,-6.248123 -41.94946,-9.625 -64.34375,-9.625 z"
     inkscape:connector-curvature="0"
     id="rect3227"
     style="fill:#f38725;fill-opacity:1;stroke:none" />
  <path
     d="M 256,1 C 115.17,1 1,115.17 1,256 1,396.83 115.17,511 256,511 396.83,511 511,396.83 511,256 511,115.17 396.83,1 256,1 m 8.827,44.931 c 120.9,0 218.9,98 218.9,218.9 0,120.9 -98,218.9 -218.9,218.9 -120.9,0 -218.93,-98 -218.93,-218.9 0,-120.9 98.03,-218.9 218.93,-218.9"
     inkscape:connector-curvature="0"
     id="path10"
     style="fill-opacity:0.06700003;fill-rule:evenodd" />
  <path
     d="M 256,4.43 C 117.06,4.43 4.43,117.06 4.43,256 4.43,394.94 117.06,507.57 256,507.57 394.94,507.57 507.57,394.94 507.57,256 507.57,117.06 394.94,4.43 256,4.43 m 5.885,38.556 c 120.9,0 218.9,98 218.9,218.9 0,120.9 -98,218.9 -218.9,218.9 -120.9,0 -218.93,-98 -218.93,-218.9 0,-120.9 98.03,-218.9 218.93,-218.9"
     inkscape:connector-curvature="0"
     id="path14"
     style="fill-opacity:0.12900002;fill-rule:evenodd" />
  <path
     d="M 256,8.36 C 119.23,8.36 8.36,119.23 8.36,256 8.36,392.77 119.23,503.64 256,503.64 392.77,503.64 503.64,392.77 503.64,256 503.64,119.23 392.77,8.36 256,8.36 m 2.942,31.691 c 120.9,0 218.9,98 218.9,218.9 0,120.9 -98,218.9 -218.9,218.9 -120.9,0 -218.93,-98 -218.93,-218.9 0,-120.9 98.03,-218.9 218.93,-218.9"
     inkscape:connector-curvature="0"
     id="path16"
     style="fill-opacity:0.12900002;fill-rule:evenodd" />
  <path
     d="M 253.04,7.86 C 117.62,7.86 7.85,117.64 7.85,253.05 c 0,135.42 109.78,245.19 245.19,245.19 135.42,0 245.19,-109.78 245.19,-245.19 C 498.23,117.63 388.45,7.86 253.04,7.86 z m 0,26.297 c 120.9,0 218.9,98 218.9,218.9 0,120.9 -98,218.9 -218.9,218.9 -120.9,0 -218.93,-98 -218.93,-218.9 0,-120.9 98.03,-218.9 218.93,-218.9 z"
     inkscape:connector-curvature="0"
     id="path18"
     style="fill:#ffffff;fill-rule:evenodd;stroke:#000000;stroke-width:4.90399981;stroke-opacity:0.31000001" />
  <text
     x="729.64001"
     y="231.35997"
     id="text20"
     style="font-size:129.22999573px;line-height:125%;letter-spacing:0;word-spacing:0;font-family:Gentium Book Basic">
    <tspan
       x="729.64001"
       y="231.35997"
       id="tspan22" />
  </text>
  <text
     x="378.90805"
     y="579.25812"
     transform="scale(4.0128205,0.24920128)"
     id="text24"
     style="font-size:46.95375824px;text-anchor:middle;font-family:Arial" />
  <text
     x="1310.91"
     y="151.35997"
     id="text26"
     style="font-size:129.22999573px;line-height:125%;letter-spacing:0;word-spacing:0;font-family:Gentium Book Basic">
    <tspan
       x="1310.91"
       y="151.35997"
       id="tspan28" />
  </text>
  <text
     x="523.75732"
     y="258.21997"
     transform="scale(4.0128205,0.24920128)"
     id="text30"
     style="font-size:46.95375824px;text-anchor:middle;font-family:Arial" />
  <text
     x="239.33"
     y="-29.900009"
     id="text32"
     style="font-size:129.22999573px;line-height:125%;letter-spacing:0;word-spacing:0;font-family:Gentium Book Basic">
    <tspan
       x="239.33"
       y="-29.900009"
       id="tspan34" />
  </text>
  <text
     x="256.71869"
     y="-469.1264"
     transform="scale(4.0128205,0.24920128)"
     id="text36"
     style="font-size:46.95375824px;text-anchor:middle;font-family:Arial" />
  <text
     x="1337.38"
     y="-246.37001"
     id="text38"
     style="font-size:129.22999573px;line-height:125%;letter-spacing:0;word-spacing:0;font-family:Gentium Book Basic">
    <tspan
       x="1337.38"
       y="-246.37001"
       id="tspan40" />
  </text>
  <text
     x="530.3573"
     y="-1337.802"
     transform="scale(4.0128205,0.24920128)"
     id="text42"
     style="font-size:46.95375824px;text-anchor:middle;font-family:Arial" />
  <text
     x="1918.65"
     y="-326.37"
     id="text44"
     style="font-size:129.22999573px;line-height:125%;letter-spacing:0;word-spacing:0;font-family:Gentium Book Basic">
    <tspan
       x="1918.65"
       y="-326.37"
       id="tspan46" />
  </text>
  <text
     x="675.20654"
     y="-1658.8303"
     transform="scale(4.0128205,0.24920128)"
     id="text48"
     style="font-size:46.95375824px;text-anchor:middle;font-family:Arial" />
  <text
     x="1529.53"
     y="-798.77002"
     id="text50"
     style="font-size:129.22999573px;line-height:125%;letter-spacing:0;word-spacing:0;font-family:Gentium Book Basic">
    <tspan
       x="1529.53"
       y="-798.77002"
       id="tspan52" />
  </text>
  <text
     x="578.237"
     y="-3554.4807"
     transform="scale(4.0128205,0.24920128)"
     id="text54"
     style="font-size:46.95375824px;text-anchor:middle;font-family:Arial" />
  <text
     x="2110.79"
     y="-878.78003"
     id="text56"
     style="font-size:129.22999573px;line-height:125%;letter-spacing:0;word-spacing:0;font-family:Gentium Book Basic">
    <tspan
       x="2110.79"
       y="-878.78003"
       id="tspan58" />
  </text>
  <text
     x="723.0863"
     y="-3875.519"
     transform="scale(4.0128205,0.24920128)"
     id="text60"
     style="font-size:46.95375824px;text-anchor:middle;font-family:Arial" />
  <text
     x="277.98999"
     y="535.94006"
     id="text62"
     style="font-size:208.33000183px;line-height:125%;letter-spacing:0;word-spacing:0;font-family:Gentium Book Basic">
    <tspan
       x="277.98999"
       y="535.94006"
       id="tspan64" />
  </text>
  <g
     clip-path="url(#clipPath3426)"
     id="g3268"
     style="opacity:0.25;fill:#000000;fill-opacity:1;stroke:none">
    <path
       d="m 256,95.52224 c -22.10773,0 -40.18956,18.08184 -40.18956,40.18957 l 388.90873,388.90873 c 0,-22.10773 18.08183,-40.18957 40.18956,-40.18957 z"
       inkscape:connector-curvature="0"
       id="path3270"
       style="fill:#000000" />
    <path
       d="m 215.81044,135.71181 c 0,10.9503 4.43615,20.81125 11.60037,27.97547 l 388.90873,388.90873 c -7.16423,-7.16422 -11.60037,-17.02517 -11.60037,-27.97547 z"
       inkscape:connector-curvature="0"
       id="path3272"
       style="fill:#000000" />
    <path
       d="m 227.41081,163.68728 c 7.29974,7.29975 17.43176,11.79978 28.58919,11.79978 l 388.90873,388.90873 c -11.15743,0 -21.28945,-4.50003 -28.58919,-11.79978 z"
       inkscape:connector-curvature="0"
       id="path3274"
       style="fill:#000000" />
    <path
       d="m 256,175.48706 c 22.10773,0 40.18957,-17.66751 40.18957,-39.77525 L 685.0983,524.62054 c 0,22.10774 -18.08184,39.77525 -40.18957,39.77525 z"
       inkscape:connector-curvature="0"
       id="path3276"
       style="fill:#000000" />
    <path
       d="m 296.18957,135.71181 c 0,-22.10773 -18.08184,-40.18957 -40.18957,-40.18957 l 388.90873,388.90873 c 22.10773,0 40.18957,18.08184 40.18957,40.18957 z"
       inkscape:connector-curvature="0"
       id="path3278"
       style="fill:#000000" />
    <path
       d="m 256,202.00388 c -22.10773,0 -40.18956,18.08183 -40.18956,40.18958 l 388.90873,388.90873 c 0,-22.10775 18.08183,-40.18958 40.18956,-40.18958 z"
       inkscape:connector-curvature="0"
       id="path3280"
       style="fill:#000000" />
    <path
       d="m 215.81044,242.19346 c 0,10.95029 4.43614,20.81123 11.60036,27.97545 l 388.90873,388.90873 c -7.16422,-7.16422 -11.60036,-17.02516 -11.60036,-27.97545 z"
       inkscape:connector-curvature="0"
       id="path3282"
       style="fill:#000000" />
    <path
       d="m 227.4108,270.16891 c 7.29975,7.29975 17.43176,11.79978 28.5892,11.79978 l 388.90873,388.90873 c -11.15744,0 -21.28945,-4.50003 -28.5892,-11.79978 z"
       inkscape:connector-curvature="0"
       id="path3284"
       style="fill:#000000" />
    <path
       d="m 256,281.96869 c 22.10773,0 40.18957,-17.6675 40.18957,-39.77523 L 685.0983,631.10219 c 0,22.10773 -18.08184,39.77523 -40.18957,39.77523 z"
       inkscape:connector-curvature="0"
       id="path3286"
       style="fill:#000000" />
    <path
       d="m 296.18957,242.19346 c 0,-11.05388 -4.52046,-21.10127 -11.80439,-28.3852 l 388.90873,388.90873 c 7.28393,7.28393 11.80439,17.33132 11.80439,28.3852 z"
       inkscape:connector-curvature="0"
       id="path3288"
       style="fill:#000000" />
    <path
       d="M 284.38518,213.80826 C 277.10126,206.52434 267.05386,202.00388 256,202.00388 l 388.90873,388.90873 c 11.05386,0 21.10126,4.52046 28.38518,11.80438 z"
       inkscape:connector-curvature="0"
       id="path3290"
       style="fill:#000000" />
    <path
       d="m 149.51835,308.48553 c -22.10773,0 -40.18956,18.08181 -40.18956,40.18956 l 388.90873,388.90873 c 0,-22.10775 18.08183,-40.18956 40.18956,-40.18956 z"
       inkscape:connector-curvature="0"
       id="path3292"
       style="fill:#000000" />
    <path
       d="m 109.32879,348.67509 c 0,11.05386 4.52046,21.10125 11.80438,28.38517 L 510.0419,765.96899 c -7.28392,-7.28392 -11.80438,-17.33131 -11.80438,-28.38517 z"
       inkscape:connector-curvature="0"
       id="path3294"
       style="fill:#000000" />
    <path
       d="m 121.13317,377.06026 c 7.28392,7.28392 17.33131,11.80438 28.38518,11.80438 l 388.90873,388.90873 c -11.05387,0 -21.10126,-4.52046 -28.38518,-11.80438 z"
       inkscape:connector-curvature="0"
       id="path3296"
       style="fill:#000000" />
    <path
       d="m 149.51835,388.86464 c 22.10775,0 39.77527,-18.08182 39.77527,-40.18955 l 388.90873,388.90873 c 0,22.10773 -17.66752,40.18955 -39.77527,40.18955 z"
       inkscape:connector-curvature="0"
       id="path3298"
       style="fill:#000000" />
    <path
       d="m 189.29362,348.67509 c 0,-11.15744 -4.50003,-21.28945 -11.79977,-28.58919 l 388.90873,388.90873 c 7.29974,7.29974 11.79977,17.43175 11.79977,28.58919 z"
       inkscape:connector-curvature="0"
       id="path3300"
       style="fill:#000000" />
    <path
       d="m 177.49385,320.0859 c -7.16423,-7.16423 -17.02518,-11.60037 -27.9755,-11.60037 l 388.90873,388.90873 c 10.95032,0 20.81127,4.43614 27.9755,11.60037 z"
       inkscape:connector-curvature="0"
       id="path3302"
       style="fill:#000000" />
    <path
       d="m 256,308.48553 c -22.10773,0 -40.18956,18.08181 -40.18956,40.18956 l 388.90873,388.90873 c 0,-22.10775 18.08183,-40.18956 40.18956,-40.18956 z"
       inkscape:connector-curvature="0"
       id="path3304"
       style="fill:#000000" />
    <path
       d="m 215.81044,348.67509 c 0,11.05386 4.52046,21.10125 11.80438,28.38517 l 388.90873,388.90873 c -7.28392,-7.28392 -11.80438,-17.33131 -11.80438,-28.38517 z"
       inkscape:connector-curvature="0"
       id="path3306"
       style="fill:#000000" />
    <path
       d="m 227.61482,377.06026 c 7.28392,7.28392 17.33131,11.80438 28.38518,11.80438 l 388.90873,388.90873 c -11.05387,0 -21.10126,-4.52046 -28.38518,-11.80438 z"
       inkscape:connector-curvature="0"
       id="path3308"
       style="fill:#000000" />
    <path
       d="m 256,388.86464 c 22.10773,0 40.18957,-18.08182 40.18957,-40.18955 L 685.0983,737.58382 c 0,22.10773 -18.08184,40.18955 -40.18957,40.18955 z"
       inkscape:connector-curvature="0"
       id="path3310"
       style="fill:#000000" />
    <path
       d="m 296.18957,348.67509 c 0,-11.05387 -4.52046,-21.10126 -11.80438,-28.38518 l 388.90873,388.90873 c 7.28392,7.28392 11.80438,17.33131 11.80438,28.38518 z"
       inkscape:connector-curvature="0"
       id="path3312"
       style="fill:#000000" />
    <path
       d="M 284.38519,320.28991 C 277.10127,313.00599 267.05387,308.48553 256,308.48553 l 388.90873,388.90873 c 11.05387,0 21.10127,4.52046 28.38519,11.80438 z"
       inkscape:connector-curvature="0"
       id="path3314"
       style="fill:#000000" />
    <path
       d="m 362.48165,308.48553 c -22.10774,0 -39.77526,18.08181 -39.77526,40.18956 l 388.90873,388.90873 c 0,-22.10775 17.66752,-40.18956 39.77526,-40.18956 z"
       inkscape:connector-curvature="0"
       id="path3316"
       style="fill:#000000" />
    <path
       d="m 322.70639,348.67509 c 0,11.15743 4.50003,21.28944 11.79977,28.58918 L 723.41489,766.173 c -7.29974,-7.29974 -11.79977,-17.43175 -11.79977,-28.58918 z"
       inkscape:connector-curvature="0"
       id="path3318"
       style="fill:#000000" />
    <path
       d="m 334.50616,377.26427 c 7.16423,7.16423 17.02518,11.60037 27.97549,11.60037 l 388.90873,388.90873 c -10.95031,0 -20.81126,-4.43615 -27.97549,-11.60037 z"
       inkscape:connector-curvature="0"
       id="path3320"
       style="fill:#000000" />
    <path
       d="m 362.48165,388.86464 c 22.10773,0 40.18955,-18.08182 40.18955,-40.18955 l 388.90873,388.90873 c 0,22.10773 -18.08182,40.18955 -40.18955,40.18955 z"
       inkscape:connector-curvature="0"
       id="path3322"
       style="fill:#000000" />
    <path
       d="m 402.6712,348.67509 c 0,-11.05388 -4.52046,-21.10127 -11.80438,-28.38519 l 388.90873,388.90873 c 7.28392,7.28392 11.80438,17.33131 11.80438,28.38519 z"
       inkscape:connector-curvature="0"
       id="path3324"
       style="fill:#000000" />
    <path
       d="m 390.86682,320.2899 c -7.28392,-7.28392 -17.33131,-11.80437 -28.38517,-11.80437 l 388.90873,388.90873 c 11.05386,0 21.10125,4.52045 28.38517,11.80437 z"
       inkscape:connector-curvature="0"
       id="path3326"
       style="fill:#000000" />
  </g>
  <path
     d="m 256,95.52224 c -22.10773,0 -40.18956,18.08184 -40.18956,40.18957 0,22.10774 18.08183,39.77525 40.18956,39.77525 22.10773,0 40.18957,-17.66751 40.18957,-39.77525 0,-22.10773 -18.08184,-40.18957 -40.18957,-40.18957 z m 0,106.48164 c -22.10773,0 -40.18956,18.08183 -40.18956,40.18958 0,22.10773 18.08183,39.77523 40.18956,39.77523 22.10773,0 40.18957,-17.6675 40.18957,-39.77523 0,-22.10775 -18.08184,-40.18958 -40.18957,-40.18958 z M 149.51835,308.48553 c -22.10773,0 -40.18956,18.08181 -40.18956,40.18956 0,22.10773 18.08183,40.18955 40.18956,40.18955 22.10775,0 39.77527,-18.08182 39.77527,-40.18955 0,-22.10775 -17.6675,-40.18956 -39.77527,-40.18956 z m 106.48165,0 c -22.10773,0 -40.18956,18.08181 -40.18956,40.18956 0,22.10773 18.08183,40.18955 40.18956,40.18955 22.10773,0 40.18957,-18.08182 40.18957,-40.18955 0,-22.10775 -18.08184,-40.18956 -40.18957,-40.18956 z m 106.48165,0 c -22.10774,0 -39.77526,18.08181 -39.77526,40.18956 0,22.10773 17.6675,40.18955 39.77526,40.18955 22.10773,0 40.18955,-18.08182 40.18955,-40.18955 0,-22.10775 -18.08182,-40.18956 -40.18955,-40.18956 z"
     inkscape:connector-curvature="0"
     id="path3178"
     style="fill:#ffffff;fill-opacity:1;stroke:none" />
</svg>
