<?xml version="1.0" encoding="UTF-8" standalone="no"?>
<!-- Created with Inkscape (http://www.inkscape.org/) -->

<svg
   xmlns:dc="http://purl.org/dc/elements/1.1/"
   xmlns:cc="http://creativecommons.org/ns#"
   xmlns:rdf="http://www.w3.org/1999/02/22-rdf-syntax-ns#"
   xmlns:svg="http://www.w3.org/2000/svg"
   xmlns="http://www.w3.org/2000/svg"
   xmlns:inkscape="http://www.inkscape.org/namespaces/inkscape"
   version="1.1"
   width="100%"
   height="100%"
   viewBox="0 0 512 512"
   id="svg2">
  <metadata
     id="metadata275">
    <rdf:RDF>
      <cc:Work
         rdf:about="">
        <dc:format>image/svg+xml</dc:format>
        <dc:type
           rdf:resource="http://purl.org/dc/dcmitype/StillImage" />
      </cc:Work>
    </rdf:RDF>
  </metadata>
  <defs
     id="defs4">
    <clipPath
       id="0">
      <path
         d="m 471.95,253.05 c 0,120.9 -98.01,218.91 -218.91,218.91 -120.9,0 -218.91,-98.01 -218.91,-218.91 0,-120.9 98.01,-218.91 218.91,-218.91 120.9,0 218.91,98.01 218.91,218.91"
         inkscape:connector-curvature="0"
         id="path7" />
    </clipPath>
  </defs>
  <g
     id="g9"
     style="fill-rule:evenodd">
    <path
       d="m 471.95,253.05 c 0,120.9 -98.01,218.91 -218.91,218.91 -120.9,0 -218.91,-98.01 -218.91,-218.91 0,-120.9 98.01,-218.91 218.91,-218.91 120.9,0 218.91,98.01 218.91,218.91"
       inkscape:connector-curvature="0"
       id="path11"
       style="fill:#ae4a32" />
    <path
       d="M 256,1 C 115.17,1 1,115.17 1,256 1,396.83 115.17,511 256,511 396.83,511 511,396.83 511,256 511,115.17 396.83,1 256,1 m 8.827,44.931 c 120.9,0 218.9,98 218.9,218.9 0,120.9 -98,218.9 -218.9,218.9 -120.9,0 -218.93,-98 -218.93,-218.9 0,-120.9 98.03,-218.9 218.93,-218.9"
       inkscape:connector-curvature="0"
       id="path13"
       style="fill-opacity:0.06700003" />
    <g
       id="g15"
       style="fill-opacity:0.12900002">
      <path
         d="M 256,4.43 C 117.06,4.43 4.43,117.06 4.43,256 4.43,394.94 117.06,507.57 256,507.57 394.94,507.57 507.57,394.94 507.57,256 507.57,117.06 394.94,4.43 256,4.43 m 5.885,38.556 c 120.9,0 218.9,98 218.9,218.9 0,120.9 -98,218.9 -218.9,218.9 -120.9,0 -218.93,-98 -218.93,-218.9 0,-120.9 98.03,-218.9 218.93,-218.9"
         inkscape:connector-curvature="0"
         id="path17" />
      <path
         d="M 256,8.36 C 119.23,8.36 8.36,119.23 8.36,256 8.36,392.77 119.23,503.64 256,503.64 392.77,503.64 503.64,392.77 503.64,256 503.64,119.23 392.77,8.36 256,8.36 m 2.942,31.691 c 120.9,0 218.9,98 218.9,218.9 0,120.9 -98,218.9 -218.9,218.9 -120.9,0 -218.93,-98 -218.93,-218.9 0,-120.9 98.03,-218.9 218.93,-218.9"
         inkscape:connector-curvature="0"
         id="path19" />
    </g>
    <path
       d="M 253.04,7.86 C 117.62,7.86 7.85,117.64 7.85,253.05 c 0,135.42 109.78,245.19 245.19,245.19 135.42,0 245.19,-109.78 245.19,-245.19 C 498.23,117.63 388.45,7.86 253.04,7.86 z m 0,26.297 c 120.9,0 218.9,98 218.9,218.9 0,120.9 -98,218.9 -218.9,218.9 -120.9,0 -218.93,-98 -218.93,-218.9 0,-120.9 98.03,-218.9 218.93,-218.9 z"
       inkscape:connector-curvature="0"
       id="path21"
       style="fill:#ffffff;stroke:#000000;stroke-width:4.90399981;stroke-opacity:0.31000001" />
  </g>
  <text
     x="729.64001"
     y="231.36"
     id="text23"
     style="font-size:129.22999573px;line-height:125%;letter-spacing:0;word-spacing:0;font-family:Gentium Book Basic">
    <tspan
       x="729.64001"
       y="231.36"
       id="tspan25" />
  </text>
  <text
     x="378.91"
     y="579.26001"
     transform="scale(4.0128,0.2492)"
     id="text27"
     style="font-size:46.95399857px;text-anchor:middle;font-family:Arial" />
  <text
     x="1310.91"
     y="151.36"
     id="text29"
     style="font-size:129.22999573px;line-height:125%;letter-spacing:0;word-spacing:0;font-family:Gentium Book Basic">
    <tspan
       x="1310.91"
       y="151.36"
       id="tspan31" />
  </text>
  <text
     x="523.76001"
     y="258.22"
     transform="scale(4.0128,0.2492)"
     id="text33"
     style="font-size:46.95399857px;text-anchor:middle;font-family:Arial" />
  <text
     x="239.33"
     y="-29.9"
     id="text35"
     style="font-size:129.22999573px;line-height:125%;letter-spacing:0;word-spacing:0;font-family:Gentium Book Basic">
    <tspan
       x="239.33"
       y="-29.9"
       id="tspan37" />
  </text>
  <text
     x="256.72"
     y="-469.13"
     transform="scale(4.0128,0.2492)"
     id="text39"
     style="font-size:46.95399857px;text-anchor:middle;font-family:Arial" />
  <text
     x="1337.38"
     y="-246.37"
     id="text41"
     style="font-size:129.22999573px;line-height:125%;letter-spacing:0;word-spacing:0;font-family:Gentium Book Basic">
    <tspan
       x="1337.38"
       y="-246.37"
       id="tspan43" />
  </text>
  <text
     x="530.35999"
     y="-1337.8"
     transform="scale(4.0128,0.2492)"
     id="text45"
     style="font-size:46.95399857px;text-anchor:middle;font-family:Arial" />
  <text
     x="1918.65"
     y="-326.37"
     id="text47"
     style="font-size:129.22999573px;line-height:125%;letter-spacing:0;word-spacing:0;font-family:Gentium Book Basic">
    <tspan
       x="1918.65"
       y="-326.37"
       id="tspan49" />
  </text>
  <text
     x="675.21002"
     y="-1658.83"
     transform="scale(4.0128,0.2492)"
     id="text51"
     style="font-size:46.95399857px;text-anchor:middle;font-family:Arial" />
  <text
     x="1529.53"
     y="-798.77002"
     id="text53"
     style="font-size:129.22999573px;line-height:125%;letter-spacing:0;word-spacing:0;font-family:Gentium Book Basic">
    <tspan
       x="1529.53"
       y="-798.77002"
       id="tspan55" />
  </text>
  <text
     x="578.23999"
     y="-3554.48"
     transform="scale(4.0128,0.2492)"
     id="text57"
     style="font-size:46.95399857px;text-anchor:middle;font-family:Arial" />
  <text
     x="2110.79"
     y="-878.78003"
     id="text59"
     style="font-size:129.22999573px;line-height:125%;letter-spacing:0;word-spacing:0;font-family:Gentium Book Basic">
    <tspan
       x="2110.79"
       y="-878.78003"
       id="tspan61" />
  </text>
  <text
     x="723.09003"
     y="-3875.52"
     transform="scale(4.0128,0.2492)"
     id="text63"
     style="font-size:46.95399857px;text-anchor:middle;font-family:Arial" />
  <g
     id="g65"
     style="line-height:125%;letter-spacing:0;word-spacing:0;font-family:Gentium Book Basic">
    <text
       x="277.98999"
       y="535.94"
       id="text67"
       style="font-size:208.33000183px">
      <tspan
         x="277.98999"
         y="535.94"
         id="tspan69" />
    </text>
    <text
       x="-179.38"
       y="88.169998"
       id="text71"
       style="font-size:129.22999573px">
      <tspan
         x="-179.38"
         y="88.169998"
         id="tspan73" />
    </text>
  </g>
  <text
     x="152.38"
     y="4.6659999"
     transform="scale(4.0128,0.2492)"
     id="text75"
     style="font-size:46.95399857px;text-anchor:middle;font-family:Arial" />
  <text
     x="401.89001"
     y="8.1739998"
     id="text77"
     style="font-size:129.22999573px;line-height:125%;letter-spacing:0;word-spacing:0;font-family:Gentium Book Basic">
    <tspan
       x="401.89001"
       y="8.1739998"
       id="tspan79" />
  </text>
  <text
     x="297.23001"
     y="-316.35999"
     transform="scale(4.0128,0.2492)"
     id="text81"
     style="font-size:46.95399857px;text-anchor:middle;font-family:Arial" />
  <text
     x="-669.69"
     y="-173.09"
     id="text83"
     style="font-size:129.22999573px;line-height:125%;letter-spacing:0;word-spacing:0;font-family:Gentium Book Basic">
    <tspan
       x="-669.69"
       y="-173.09"
       id="tspan85" />
  </text>
  <text
     x="30.190001"
     y="-1043.72"
     transform="scale(4.0128,0.2492)"
     id="text87"
     style="font-size:46.95399857px;text-anchor:middle;font-family:Arial" />
  <text
     x="428.35999"
     y="-389.56"
     id="text89"
     style="font-size:129.22999573px;line-height:125%;letter-spacing:0;word-spacing:0;font-family:Gentium Book Basic">
    <tspan
       x="428.35999"
       y="-389.56"
       id="tspan91" />
  </text>
  <text
     x="303.82999"
     y="-1912.38"
     transform="scale(4.0128,0.2492)"
     id="text93"
     style="font-size:46.95399857px;text-anchor:middle;font-family:Arial" />
  <text
     x="1009.63"
     y="-469.57001"
     id="text95"
     style="font-size:129.22999573px;line-height:125%;letter-spacing:0;word-spacing:0;font-family:Gentium Book Basic">
    <tspan
       x="1009.63"
       y="-469.57001"
       id="tspan97" />
  </text>
  <text
     x="448.67999"
     y="-2233.4199"
     transform="scale(4.0128,0.2492)"
     id="text99"
     style="font-size:46.95399857px;text-anchor:middle;font-family:Arial" />
  <text
     x="620.51001"
     y="-941.96997"
     id="text101"
     style="font-size:129.22999573px;line-height:125%;letter-spacing:0;word-spacing:0;font-family:Gentium Book Basic">
    <tspan
       x="620.51001"
       y="-941.96997"
       id="tspan103" />
  </text>
  <text
     x="351.70999"
     y="-4129.0698"
     transform="scale(4.0128,0.2492)"
     id="text105"
     style="font-size:46.95399857px;text-anchor:middle;font-family:Arial" />
  <text
     x="1201.77"
     y="-1021.97"
     id="text107"
     style="font-size:129.22999573px;line-height:125%;letter-spacing:0;word-spacing:0;font-family:Gentium Book Basic">
    <tspan
       x="1201.77"
       y="-1021.97"
       id="tspan109" />
  </text>
  <text
     x="496.56"
     y="-4450.1001"
     transform="scale(4.0128,0.2492)"
     id="text111"
     style="font-size:46.95399857px;text-anchor:middle;font-family:Arial" />
  <text
     x="-631.03003"
     y="392.75"
     id="text113"
     style="font-size:208.33000183px;line-height:125%;letter-spacing:0;word-spacing:0;font-family:Gentium Book Basic">
    <tspan
       x="-631.03003"
       y="392.75"
       id="tspan115" />
  </text>
  <g
     clip-path="url(#0)"
     id="g117"
     style="opacity:0.25">
    <path
       d="m 368.13,106.28 c -0.392,0 -0.786,0.162 -1.063,0.438 l 388.91,388.91 c 0.276,-0.276 0.67,-0.438 1.063,-0.438 z"
       inkscape:connector-curvature="0"
       id="path119" />
    <path
       d="m 367.06,106.72 -15.25,15.281 388.91,388.91 15.25,-15.281 z"
       inkscape:connector-curvature="0"
       id="path121" />
    <path
       d="m 351.81,122 -5.438,-5.406 388.91,388.91 5.438,5.406 z"
       inkscape:connector-curvature="0"
       id="path123" />
    <path
       d="m 346.38,116.59 c -0.987,-0.984 -2.522,-1.138 -3.688,-0.375 l 388.91,388.91 c 1.166,-0.763 2.701,-0.609 3.688,0.375 z"
       inkscape:connector-curvature="0"
       id="path125" />
    <path
       d="m 342.69,116.22 -43.37,28.438 388.91,388.91 43.38,-28.438 z"
       inkscape:connector-curvature="0"
       id="path127" />
    <path
       d="m 299.31,144.66 c -0.076,0.046 -0.147,0.101 -0.219,0.156 l 388.91,388.91 c 0.072,-0.055 0.143,-0.11 0.219,-0.156 z"
       inkscape:connector-curvature="0"
       id="path129" />
    <path
       d="m 299.09,144.81 c -5.218,-2.891 -10.678,-5.398 -16.406,-7.469 l 388.91,388.91 c 5.728,2.071 11.188,4.578 16.406,7.469 z"
       inkscape:connector-curvature="0"
       id="path131" />
    <path
       d="m 282.69,137.34 c -0.398,-0.142 -0.845,-0.107 -1.219,0.094 l 388.91,388.91 c 0.374,-0.201 0.821,-0.236 1.219,-0.094 z"
       inkscape:connector-curvature="0"
       id="path133" />
    <path
       d="m 281.47,137.44 c -0.37,0.203 -0.629,0.556 -0.719,0.969 l 388.91,388.91 c 0.09,-0.413 0.349,-0.766 0.719,-0.969 z"
       inkscape:connector-curvature="0"
       id="path135" />
    <path
       d="m 280.75,138.41 -3.094,14 388.91,388.91 3.094,-14 z"
       inkscape:connector-curvature="0"
       id="path137" />
    <path
       d="m 277.66,152.41 c 12.692,4.975 24.13,12.554 33.649,22.07 l 388.91,388.91 c -9.516,-9.516 -20.957,-17.1 -33.649,-22.07 z"
       inkscape:connector-curvature="0"
       id="path139" />
    <path
       d="m 311.31,174.48 c 17.738,17.738 28.788,42.21 28.788,69.09 l 388.91,388.91 c 0,-26.88 -11.05,-51.35 -28.788,-69.09 z"
       inkscape:connector-curvature="0"
       id="path141" />
    <path
       d="m 340.09,243.56 c 0,54.07 -44.05,98.13 -97.53,98.13 L 631.47,730.6 c 53.48,0 97.53,-44.05 97.53,-98.12 z"
       inkscape:connector-curvature="0"
       id="path143" />
    <path
       d="m 242.56,341.69 c -26.805,0 -51.1,-10.918 -68.73,-28.554 l 388.91,388.91 c 17.637,17.637 41.929,28.554 68.73,28.554 z"
       inkscape:connector-curvature="0"
       id="path145" />
    <path
       d="m 173.83,313.13 c -9.733,-9.733 -17.439,-21.513 -22.422,-34.633 l 388.91,388.91 c 4.982,13.12 12.688,24.9 22.422,34.633 z"
       inkscape:connector-curvature="0"
       id="path147" />
    <path
       d="m 151.41,278.5 -13.75,3.813 388.91,388.91 13.75,-3.813 z"
       inkscape:connector-curvature="0"
       id="path149" />
    <path
       d="m 137.66,282.31 c -0.4,0.111 -0.716,0.352 -0.906,0.719 l 388.91,388.91 c 0.19,-0.367 0.506,-0.608 0.906,-0.719 z"
       inkscape:connector-curvature="0"
       id="path151" />
    <path
       d="m 136.75,283.03 c -0.186,0.363 -0.204,0.803 -0.063,1.188 l 388.91,388.91 c -0.142,-0.385 -0.124,-0.824 0.063,-1.188 z"
       inkscape:connector-curvature="0"
       id="path153" />
    <path
       d="m 136.69,284.22 c 2.114,5.745 4.673,11.267 7.625,16.5 l 388.91,388.91 c -2.952,-5.233 -5.511,-10.755 -7.625,-16.5 z"
       inkscape:connector-curvature="0"
       id="path155" />
    <path
       d="m 144.31,300.72 -26.531,43.719 388.91,388.91 26.531,-43.719 z"
       inkscape:connector-curvature="0"
       id="path157" />
    <path
       d="m 117.78,344.44 c -0.707,1.152 -0.552,2.665 0.406,3.625 l 388.91,388.91 c -0.958,-0.96 -1.113,-2.473 -0.406,-3.625 z"
       inkscape:connector-curvature="0"
       id="path159" />
    <path
       d="m 118.19,348.06 3.75,3.75 388.91,388.91 -3.75,-3.75 z"
       inkscape:connector-curvature="0"
       id="path161" />
    <path
       d="m 121.94,351.81 -14.813,14.844 388.91,388.91 14.813,-14.844 z"
       inkscape:connector-curvature="0"
       id="path163" />
    <path
       d="m 107.13,366.66 c -0.573,0.575 -0.573,1.521 0,2.094 l 388.91,388.91 c -0.573,-0.573 -0.573,-1.519 0,-2.094 z"
       inkscape:connector-curvature="0"
       id="path165" />
    <path
       d="m 107.13,368.75 c 0,0 0,0 0,0 l 388.91,388.91 c 0,0 0,0 0,0 z"
       inkscape:connector-curvature="0"
       id="path167" />
    <path
       d="m 107.13,368.75 11,10.969 388.91,388.91 -11,-10.969 z"
       inkscape:connector-curvature="0"
       id="path169" />
    <path
       d="m 118.13,379.72 c 0.001,10e-4 0.001,10e-4 0.002,0.002 l 388.91,388.91 c -10e-4,-10e-4 -10e-4,-10e-4 -0.002,-0.002 z"
       inkscape:connector-curvature="0"
       id="path171" />
    <path
       d="m 118.13,379.72 c 0.575,0.575 1.481,0.574 2.061,-0.002 l 388.91,388.91 c -0.579,0.576 -1.486,0.577 -2.061,0.002 z"
       inkscape:connector-curvature="0"
       id="path173" />
    <path
       d="m 120.19,379.72 14.844,-14.813 388.91,388.91 -14.844,14.813 z"
       inkscape:connector-curvature="0"
       id="path175" />
    <path
       d="m 135.03,364.91 5.875,5.875 388.91,388.91 -5.875,-5.875 z"
       inkscape:connector-curvature="0"
       id="path177" />
    <path
       d="m 140.91,370.78 c 0.989,0.986 2.524,1.14 3.688,0.375 l 388.91,388.91 c -1.163,0.765 -2.698,0.611 -3.688,-0.375 z"
       inkscape:connector-curvature="0"
       id="path179" />
    <path
       d="m 144.59,371.16 42.16,-27.625 388.91,388.91 -42.16,27.625 z"
       inkscape:connector-curvature="0"
       id="path181" />
    <path
       d="m 186.75,343.53 c 8.786,5.091 18.258,9 28.19,11.625 l 388.91,388.91 c -9.929,-2.622 -19.402,-6.534 -28.19,-11.625 z"
       inkscape:connector-curvature="0"
       id="path183" />
    <path
       d="m 214.94,355.16 11.781,48.31 388.91,388.91 -11.781,-48.31 z"
       inkscape:connector-curvature="0"
       id="path185" />
    <path
       d="m 226.72,403.47 c 0.13,0.532 0.406,1 0.778,1.375 l 388.91,388.91 c -0.372,-0.372 -0.647,-0.843 -0.778,-1.375 z"
       inkscape:connector-curvature="0"
       id="path187" />
    <path
       d="m 227.5,404.84 c 0.544,0.544 1.293,0.875 2.097,0.875 l 388.91,388.91 c -0.804,0 -1.554,-0.332 -2.097,-0.875 z"
       inkscape:connector-curvature="0"
       id="path189" />
    <path
       d="m 229.59,405.72 h 32.13 l 388.91,388.91 h -32.12 z"
       inkscape:connector-curvature="0"
       id="path191" />
    <path
       d="m 261.72,405.72 c 1.391,0 2.593,-1.01 2.875,-2.375 l 388.91,388.91 c -0.282,1.367 -1.484,2.375 -2.875,2.375 z"
       inkscape:connector-curvature="0"
       id="path193" />
    <path
       d="m 264.59,403.34 10.09,-48.656 388.91,388.91 -10.09,48.656 z"
       inkscape:connector-curvature="0"
       id="path195" />
    <path
       d="m 274.69,354.69 c 9.366,-2.63 18.266,-6.423 26.5,-11.219 l 388.91,388.91 c -8.234,4.796 -17.13,8.589 -26.5,11.219 z"
       inkscape:connector-curvature="0"
       id="path197" />
    <path
       d="m 301.19,343.47 43.625,26.469 388.91,388.91 L 690.1,732.38 z"
       inkscape:connector-curvature="0"
       id="path199" />
    <path
       d="m 344.81,369.94 c 1.157,0.702 2.604,0.522 3.563,-0.438 l 388.91,388.91 c -0.958,0.96 -2.405,1.139 -3.563,0.438 z"
       inkscape:connector-curvature="0"
       id="path201" />
    <path
       d="m 348.38,369.5 22.719,-22.719 388.91,388.91 -22.719,22.719 z"
       inkscape:connector-curvature="0"
       id="path203" />
    <path
       d="m 371.09,346.78 c 0.982,-0.987 1.167,-2.522 0.406,-3.688 l 388.91,388.91 c 0.761,1.166 0.576,2.701 -0.406,3.688 z"
       inkscape:connector-curvature="0"
       id="path205" />
    <path
       d="M 371.5,343.09 343.531,300.434 732.441,689.344 760.41,732 z"
       inkscape:connector-curvature="0"
       id="path207" />
    <path
       d="m 343.53,300.44 c 4.949,-8.815 8.743,-18.315 11.219,-28.375 l 388.91,388.91 c -2.476,10.06 -6.27,19.56 -11.219,28.375 z"
       inkscape:connector-curvature="0"
       id="path209" />
    <path
       d="m 354.75,272.06 48.31,-11.844 388.91,388.91 -48.31,11.844 z"
       inkscape:connector-curvature="0"
       id="path211" />
    <path
       d="m 403.06,260.22 c 1.315,-0.322 2.25,-1.49 2.25,-2.844 l 388.91,388.91 c 0,1.354 -0.935,2.522 -2.25,2.844 z"
       inkscape:connector-curvature="0"
       id="path213" />
    <path
       d="M 405.31,257.38 V 225.26 L 794.22,614.17 V 646.3 z"
       inkscape:connector-curvature="0"
       id="path215" />
    <path
       d="m 405.31,225.25 c 0,-0.801 -0.325,-1.538 -0.861,-2.074 l 388.91,388.91 c 0.536,0.536 0.861,1.273 0.861,2.074 z"
       inkscape:connector-curvature="0"
       id="path217" />
    <path
       d="m 404.45,223.18 c -0.395,-0.395 -0.905,-0.681 -1.483,-0.801 l 388.91,388.91 c 0.578,0.121 1.088,0.406 1.483,0.801 z"
       inkscape:connector-curvature="0"
       id="path219" />
    <path
       d="m 402.97,222.38 -49.719,-10.344 388.91,388.91 49.719,10.344 z"
       inkscape:connector-curvature="0"
       id="path221" />
    <path
       d="m 353.25,212.03 c -2.603,-8.647 -6.216,-16.896 -10.719,-24.625 l 388.91,388.91 c 4.503,7.729 8.116,15.978 10.719,24.625 z"
       inkscape:connector-curvature="0"
       id="path223" />
    <path
       d="m 342.53,187.41 27,-44.47 388.91,388.91 -27,44.47 z"
       inkscape:connector-curvature="0"
       id="path225" />
    <path
       d="m 369.53,142.94 c 0.702,-1.159 0.552,-2.667 -0.406,-3.625 l 388.91,388.91 c 0.958,0.958 1.108,2.466 0.406,3.625 z"
       inkscape:connector-curvature="0"
       id="path227" />
    <path
       d="m 369.13,139.31 c 0,0 0,0 0,0 l 388.91,388.91 c 0,0 0,0 0,0 z"
       inkscape:connector-curvature="0"
       id="path229" />
    <path
       d="m 369.13,139.31 -4.25,-4.219 388.91,388.91 4.25,4.219 z"
       inkscape:connector-curvature="0"
       id="path231" />
    <path
       d="m 364.88,135.09 15.281,-15.313 388.91,388.91 L 753.79,524 z"
       inkscape:connector-curvature="0"
       id="path233" />
    <path
       d="m 380.16,119.78 c 0.575,-0.576 0.575,-1.487 0,-2.063 l 388.91,388.91 c 0.575,0.575 0.575,1.486 0,2.063 z"
       inkscape:connector-curvature="0"
       id="path235" />
    <path
       d="m 380.16,117.72 -11,-11 388.91,388.91 11,11 z"
       inkscape:connector-curvature="0"
       id="path237" />
    <path
       d="m 369.16,106.72 c -0.001,-0.001 -0.001,-0.001 -0.002,-0.002 l 388.91,388.91 c 10e-4,0.001 10e-4,0.001 0.002,0.002 z"
       inkscape:connector-curvature="0"
       id="path239" />
    <path
       d="m 369.15,106.72 c -0.274,-0.274 -0.641,-0.436 -1.029,-0.436 l 388.91,388.91 c 0.388,0 0.755,0.162 1.029,0.436 z"
       inkscape:connector-curvature="0"
       id="path241" />
    <path
       d="m 242.56,159.25 c -46.45,0 -84.12,38.01 -84.12,84.34 L 547.35,632.5 c 0,-46.33 37.674,-84.34 84.13,-84.34 z"
       inkscape:connector-curvature="0"
       id="path243" />
    <path
       d="m 158.44,243.59 c 0,23.426 9.508,44.68 24.86,60.03 L 572.21,692.53 C 556.858,677.178 547.35,655.924 547.35,632.5 z"
       inkscape:connector-curvature="0"
       id="path245" />
    <path
       d="m 183.3,303.63 c 15.208,15.208 36.15,24.624 59.26,24.624 l 388.91,388.91 c -23.12,0 -44.06,-9.417 -59.26,-24.624 z"
       inkscape:connector-curvature="0"
       id="path247" />
    <path
       d="m 242.56,328.25 c 46.12,0 84.13,-38.02 84.13,-84.66 L 715.6,632.5 c 0,46.634 -38,84.66 -84.12,84.66 z"
       inkscape:connector-curvature="0"
       id="path249" />
    <path
       d="m 326.69,243.59 c 0,-23.19 -9.525,-44.3 -24.824,-59.6 l 388.91,388.91 c 15.299,15.299 24.824,36.409 24.824,59.6 z"
       inkscape:connector-curvature="0"
       id="path251" />
    <path
       d="m 301.86,183.99 c -15.262,-15.262 -36.27,-24.742 -59.3,-24.742 l 388.91,388.91 c 23.03,0 44.04,9.48 59.3,24.742 z"
       inkscape:connector-curvature="0"
       id="path253" />
    <path
       d="m 207.69,202.47 h 74.5 L 671.1,591.38 h -74.5 z"
       inkscape:connector-curvature="0"
       id="path255" />
    <path
       d="m 282.19,202.47 v 73.938 L 671.1,665.318 V 591.38 z"
       inkscape:connector-curvature="0"
       id="path257" />
    <path
       d="m 282.19,276.41 c -1.217,-1.278 -1.838,-1.925 -2.522,-2.609 l 388.91,388.91 c 0.684,0.684 1.305,1.332 2.522,2.609 z"
       inkscape:connector-curvature="0"
       id="path259" />
    <path
       d="m 279.67,273.8 c -2.104,-2.104 -4.804,-4.552 -27.29,-26.735 l 388.91,388.91 c 22.486,22.18 25.19,24.631 27.29,26.735 z"
       inkscape:connector-curvature="0"
       id="path261" />
    <path
       d="m 252.38,247.06 c -20.642,9.05 -26.659,23.879 -18.469,56.38 l 388.91,388.91 c -8.19,-32.496 -2.173,-47.32 18.469,-56.37 z"
       inkscape:connector-curvature="0"
       id="path263" />
    <path
       d="m 233.91,303.44 c -30.07,-31.634 -41.25,-54.859 -6.094,-81.09 l 388.91,388.91 c -35.16,26.23 -23.98,49.46 6.094,81.09 z"
       inkscape:connector-curvature="0"
       id="path265" />
    <path
       d="m 227.81,222.34 -19.563,-19.406 388.91,388.91 19.563,19.406 z"
       inkscape:connector-curvature="0"
       id="path267" />
    <path
       d="m 208.25,202.94 -0.563,-0.469 388.91,388.91 0.563,0.469 z"
       inkscape:connector-curvature="0"
       id="path269" />
  </g>
  <path
     d="m 368.13,106.28 c -0.392,0 -0.786,0.162 -1.063,0.438 l -15.25,15.281 -5.438,-5.406 c -0.987,-0.984 -2.522,-1.138 -3.688,-0.375 l -43.37,28.438 c -0.076,0.046 -0.147,0.101 -0.219,0.156 -5.218,-2.891 -10.678,-5.398 -16.406,-7.469 -0.398,-0.142 -0.845,-0.107 -1.219,0.094 -0.37,0.203 -0.629,0.556 -0.719,0.969 l -3.094,14 c 36.35,14.248 62.44,49.856 62.44,91.16 0,54.07 -44.05,98.13 -97.53,98.13 -41.599,0 -77.15,-26.293 -91.16,-63.19 l -13.75,3.813 c -0.4,0.111 -0.716,0.352 -0.906,0.719 -0.186,0.363 -0.204,0.803 -0.063,1.188 2.114,5.745 4.673,11.267 7.625,16.5 l -26.531,43.719 c -0.707,1.152 -0.552,2.665 0.406,3.625 l 3.75,3.75 -14.813,14.844 c -0.573,0.575 -0.573,1.521 0,2.094 l 11,10.969 c 0.575,0.577 1.483,0.577 2.063,0 l 14.844,-14.813 5.875,5.875 c 0.989,0.986 2.524,1.14 3.688,0.375 l 42.16,-27.625 c 8.786,5.091 18.258,9 28.19,11.625 l 11.781,48.31 c 0.321,1.31 1.521,2.25 2.875,2.25 h 32.13 c 1.391,0 2.593,-1.01 2.875,-2.375 l 10.09,-48.656 c 9.366,-2.63 18.266,-6.423 26.5,-11.219 l 43.625,26.469 c 1.157,0.702 2.604,0.522 3.563,-0.438 l 22.719,-22.719 c 0.982,-0.987 1.167,-2.522 0.406,-3.688 l -27.969,-42.656 c 4.949,-8.815 8.743,-18.315 11.219,-28.375 l 48.31,-11.844 c 1.315,-0.322 2.25,-1.49 2.25,-2.844 v -32.12 c 0,-1.391 -0.982,-2.591 -2.344,-2.875 L 353.263,212.04 c -2.603,-8.647 -6.216,-16.896 -10.719,-24.625 l 27,-44.47 c 0.702,-1.159 0.552,-2.667 -0.406,-3.625 l -4.25,-4.219 15.281,-15.313 c 0.575,-0.576 0.575,-1.487 0,-2.063 l -11,-11 c -0.274,-0.275 -0.642,-0.438 -1.031,-0.438 m -125.56,52.969 c -46.45,0 -84.12,38.01 -84.12,84.34 0,46.631 37.675,84.66 84.13,84.66 46.12,0 84.13,-38.02 84.13,-84.66 0,-46.33 -38,-84.34 -84.12,-84.34 m -34.875,43.22 h 74.5 v 73.938 c -4.962,-5.207 -0.015,0.051 -29.813,-29.344 -20.642,9.05 -26.659,23.879 -18.469,56.38 -30.07,-31.634 -41.25,-54.859 -6.094,-81.09 l -19.563,-19.406 -0.563,-0.469"
     inkscape:connector-curvature="0"
     id="path271"
     style="fill:#ffffff" />
</svg>
