<?xml version="1.0" encoding="UTF-8" standalone="no"?>
<!-- Created with Inkscape (http://www.inkscape.org/) -->

<svg
   xmlns:dc="http://purl.org/dc/elements/1.1/"
   xmlns:cc="http://creativecommons.org/ns#"
   xmlns:rdf="http://www.w3.org/1999/02/22-rdf-syntax-ns#"
   xmlns:svg="http://www.w3.org/2000/svg"
   xmlns="http://www.w3.org/2000/svg"
   xmlns:inkscape="http://www.inkscape.org/namespaces/inkscape"
   version="1.1"
   width="100%"
   height="100%"
   viewBox="0 0 512 512"
   id="svg2">
  <metadata
     id="metadata74">
    <rdf:RDF>
      <cc:Work
         rdf:about="">
        <dc:format>image/svg+xml</dc:format>
        <dc:type
           rdf:resource="http://purl.org/dc/dcmitype/StillImage" />
      </cc:Work>
    </rdf:RDF>
  </metadata>
  <defs
     id="defs72" />
  <g
     transform="translate(0,-540.36)"
     id="g4">
    <path
       d="m 471.95,793.41 c 0,120.9 -98.01,218.9 -218.9,218.9 -120.9,0 -218.9,-98.01 -218.9,-218.9 0,-120.9 98.01,-218.9 218.9,-218.9 120.9,0 218.9,98.01 218.9,218.9"
       inkscape:connector-curvature="0"
       id="path6"
       style="fill:#0078ad;fill-rule:evenodd" />
    <path
       d="m 256.63,132.94 c -47.956,0.128 -95.07,8.142 -136.69,22.13 -7.941,16.12 -11.683,32.772 -17.625,49.625 0.395,0.164 0.792,0.312 1.188,0.469 -0.062,0.178 -0.125,0.353 -0.188,0.531 0.395,0.164 0.792,0.312 1.188,0.469 -0.062,0.178 -0.125,0.353 -0.188,0.531 0.391,0.163 0.795,0.282 1.188,0.438 -0.062,0.178 -0.125,0.353 -0.188,0.531 0.397,0.165 0.79,0.312 1.188,0.469 -0.062,0.178 -0.125,0.353 -0.188,0.531 0.388,0.161 0.767,0.315 1.156,0.469 -0.062,0.178 -0.125,0.353 -0.188,0.531 0.393,0.164 0.793,0.313 1.188,0.469 -0.062,0.178 -0.125,0.353 -0.188,0.531 0.395,0.164 0.792,0.312 1.188,0.469 -0.062,0.178 -0.125,0.353 -0.188,0.531 0.395,0.164 0.792,0.312 1.188,0.469 -0.062,0.178 -0.125,0.353 -0.188,0.531 0.391,0.163 0.795,0.282 1.188,0.438 -0.063,0.179 -0.124,0.352 -0.188,0.531 0.397,0.165 0.79,0.312 1.188,0.469 -0.033,0.094 -0.061,0.188 -0.094,0.281 -2.905,-0.53 -5.835,-1.163 -8.781,-1.844 -0.582,11.152 -0.196,23.561 4.875,27.813 0.296,0.355 0.633,0.683 0.969,0.969 0.338,0.41 0.702,0.776 1.094,1.094 0.308,0.362 0.617,0.712 0.969,1 0.312,0.368 0.644,0.709 1,1 0.282,0.333 0.587,0.636 0.906,0.906 0.304,0.368 0.654,0.675 1,0.969 0.308,0.376 0.647,0.701 1,1 0.338,0.41 0.702,0.776 1.094,1.094 0.308,0.362 0.617,0.712 0.969,1 0.312,0.368 0.644,0.709 1,1 0.282,0.333 0.587,0.636 0.906,0.906 0.304,0.368 0.654,0.675 1,0.969 0.308,0.376 0.647,0.701 1,1 0.338,0.41 0.702,0.776 1.094,1.094 0.314,0.369 0.641,0.709 1,1 0.308,0.362 0.617,0.712 0.969,1 0.312,0.368 0.644,0.709 1,1 0.282,0.333 0.587,0.635 0.906,0.906 0.304,0.368 0.654,0.675 1,0.969 0.333,0.403 0.678,0.779 1.063,1.094 0.318,0.376 0.667,0.704 1.031,1 0.308,0.362 0.617,0.712 0.969,1 0.312,0.368 0.644,0.709 1,1 0.282,0.333 0.587,0.635 0.906,0.906 0.304,0.368 0.654,0.675 1,0.969 0.308,0.376 0.647,0.701 1,1 0.338,0.41 0.702,0.776 1.094,1.094 0.308,0.362 0.617,0.712 0.969,1 0.312,0.368 0.644,0.709 1,1 0.282,0.333 0.587,0.635 0.906,0.906 0.304,0.368 0.654,0.675 1,0.969 0.308,0.376 0.647,0.701 1,1 0.338,0.41 0.702,0.776 1.094,1.094 0.308,0.362 0.617,0.712 0.969,1 0.312,0.368 0.644,0.709 1,1 0.308,0.364 0.648,0.68 1,0.969 0.287,0.341 0.582,0.662 0.906,0.938 0.304,0.368 0.654,0.675 1,0.969 0.338,0.41 0.702,0.776 1.094,1.094 0.314,0.369 0.641,0.709 1,1 0.308,0.362 0.617,0.712 0.969,1 0.312,0.368 0.644,0.709 1,1 0.282,0.333 0.587,0.635 0.906,0.906 0.314,0.38 0.672,0.699 1.031,1 0.295,0.354 0.633,0.683 0.969,0.969 0.338,0.41 0.702,0.776 1.094,1.094 0.304,0.357 0.623,0.684 0.969,0.969 0.045,0.053 0.079,0.105 0.125,0.156 -17.327,31.613 -17.16,49.11 -17.16,91.75 h 0.969 c 0,0.349 0,0.648 0,1 h 1 c 0,0.348 0,0.649 0,1 h 1 c 0,0.348 0,0.649 0,1 h 1 c 0,0.348 0,0.649 0,1 h 1 c 0,0.348 0,0.649 0,1 h 1 c 0,0.338 0,0.627 0,0.969 h 0.969 c 0,0.349 0,0.648 0,1 h 1 c 0,0.349 0,0.648 0,1 h 1 c 0,0.348 0,0.649 0,1 h 1 c 0,0.348 0,0.649 0,1 h 1 c 0,0.348 0,0.649 0,1 h 1 c 0,0.338 0,0.627 0,0.969 h 1 c 0,0.349 0,0.648 0,1 h 0.969 c 0,0.349 0,0.648 0,1 h 1 c 0,0.348 0,0.649 0,1 h 1 c 0,0.348 0,0.649 0,1 h 1 c 0,0.348 0,0.649 0,1 h 1 c 0,0.348 0,0.649 0,1 h 1 c 0,0.338 0,0.627 0,0.969 h 0.969 c 0,0.349 0,0.648 0,1 h 1 c 0,0.348 0,0.649 0,1 h 1 c 0,0.348 0,0.649 0,1 h 1 c 0,0.348 0,0.649 0,1 h 1 c 0,0.348 0,0.649 0,1 h 1 c 0,0.338 0,0.627 0,0.969 h 0.969 c 0,0.349 0,0.648 0,1 h 1 c 0,0.349 0,0.648 0,1 h 1 c 0,0.348 0,0.649 0,1 h 1 c 0,0.348 0,0.649 0,1 h 1 c 0,0.348 0,0.649 0,1 h 1 c 0,0.338 0,0.627 0,0.969 h 1 c 0,0.349 0,0.648 0,1 h 0.969 c 0,0.349 0,0.648 0,1 h 1 c 0,0.348 0,0.649 0,1 h 1 c 0,0.348 0,0.649 0,1 h 1 c 0,0.348 0,0.649 0,1 h 1 c 0,0.348 0,0.649 0,1 h 1 c 0,0.338 0,0.627 0,0.969 h 0.969 c 0,0.349 0,0.648 0,1 h 1 c 0,0.348 0,0.649 0,1 h 1 c 0,0.348 0,0.649 0,1 h 1 c 0,0.348 0,0.649 0,1 h 1 c 0,0.348 0,0.649 0,1 h 1 c 0,0.338 0,0.627 0,0.969 h 0.969 c 0,0.349 0,0.648 0,1 h 1 c 0,0.348 0,0.649 0,1 h 1 c 0,0.348 0,0.649 0,1 h 1 c 0,0.348 0,0.649 0,1 h 1 c 0,0.348 0,0.649 0,1 h 1 c 0,0.338 0,0.627 0,0.969 h 0.969 c 0,0.349 0,0.648 0,1 h 1 c 0,0.349 0,0.648 0,1 h 1 c 0,0.348 0,0.649 0,1 h 1 c 0,0.348 0,0.649 0,1 h 1 c 0,0.348 0,0.649 0,1 h 1 c 0,0.338 0,0.627 0,0.969 h 1 c 0,0.349 0,0.648 0,1 h 0.969 c 0,0.349 0,0.648 0,1 h 1 c 0,0.348 0,0.649 0,1 h 1 c 0,0.348 0,0.649 0,1 h 1 c 0,0.348 0,0.649 0,1 h 1 c 0,0.348 0,0.649 0,1 h 1 c 0,0.338 0,0.627 0,0.969 h 0.969 c 0,0.349 0,0.648 0,1 h 1 c 0,0.348 0,0.649 0,1 h 1 c 0,0.348 0,0.649 0,1 h 1 c 0,0.348 0,0.649 0,1 h 1 c 0,0.348 0,0.649 0,1 h 1 c 0,0.338 0,0.627 0,0.969 h 0.969 c 0,0.349 0,0.648 0,1 h 1 c 0,0.349 0,0.648 0,1 h 1 c 0,0.348 0,0.649 0,1 h 1 c 0,0.348 0,0.649 0,1 h 1 c 0,0.348 0,0.649 0,1 h 1 c 0,0.338 0,0.627 0,0.969 h 1 c 0,0.349 0,0.648 0,1 h 0.969 c 0,0.349 0,0.648 0,1 h 1 c 0,0.348 0,0.649 0,1 h 1 c 0,0.348 0,0.649 0,1 h 1 c 0,0.348 0,0.649 0,1 h 1 c 0,0.348 0,0.649 0,1 h 1 c 0,0.338 0,0.627 0,0.969 h 0.969 c 0,0.349 0,0.648 0,1 h 1 c 0,0.348 0,0.649 0,1 h 1 c 0,0.348 0,0.649 0,1 h 1 c 0,0.348 0,0.649 0,1 h 1 c 0,0.348 0,0.649 0,1 h 1 c 0,0.338 0,0.627 0,0.969 h 0.969 c 0,0.349 0,0.648 0,1 h 1 c 0,0.348 0,0.649 0,1 h 1 c 0,0.348 0,0.649 0,1 h 1 c 0,0.348 0,0.649 0,1 h 1 c 0,0.065 0,0.125 0,0.188 7.319,0.739 14.736,1.156 22.25,1.156 120.9,0 218.91,-98.01 218.91,-218.91 0,-5.571 -0.185,-11.1 -0.594,-16.563 -0.084,-0.029 -0.167,-0.064 -0.25,-0.094 -0.009,-0.022 -0.281,-0.75 -0.281,-0.75 -0.238,-0.086 -0.48,-0.165 -0.719,-0.25 -0.009,-0.022 -0.281,-0.75 -0.281,-0.75 -0.238,-0.086 -0.48,-0.165 -0.719,-0.25 -0.009,-0.022 -0.281,-0.75 -0.281,-0.75 -0.24,-0.086 -0.479,-0.164 -0.719,-0.25 l -0.281,-0.719 c -0.239,-0.086 -0.479,-0.164 -0.719,-0.25 -0.009,-0.022 -0.281,-0.75 -0.281,-0.75 -0.221,-0.08 -0.435,-0.171 -0.656,-0.25 -0.009,-0.023 -0.313,-0.75 -0.313,-0.75 -0.238,-0.086 -0.481,-0.165 -0.719,-0.25 -0.009,-0.022 -0.281,-0.75 -0.281,-0.75 -0.238,-0.086 -0.48,-0.165 -0.719,-0.25 l -0.281,-0.75 c -0.238,-0.086 -0.48,-0.165 -0.719,-0.25 l -0.281,-0.75 c -0.238,-0.086 -0.48,-0.165 -0.719,-0.25 -0.008,-0.02 -0.281,-0.719 -0.281,-0.719 -0.239,-0.086 -0.479,-0.164 -0.719,-0.25 -0.009,-0.022 -0.281,-0.75 -0.281,-0.75 -0.239,-0.086 -0.479,-0.164 -0.719,-0.25 -0.009,-0.022 -0.281,-0.75 -0.281,-0.75 -0.221,-0.08 -0.435,-0.171 -0.656,-0.25 -0.009,-0.023 -0.313,-0.75 -0.313,-0.75 -0.238,-0.086 -0.48,-0.165 -0.719,-0.25 -0.009,-0.022 -0.281,-0.75 -0.281,-0.75 -0.238,-0.086 -0.48,-0.165 -0.719,-0.25 -0.009,-0.022 -0.281,-0.75 -0.281,-0.75 -0.238,-0.086 -0.48,-0.165 -0.719,-0.25 -0.009,-0.022 -0.281,-0.75 -0.281,-0.75 -0.24,-0.086 -0.479,-0.164 -0.719,-0.25 -0.008,-0.02 -0.281,-0.719 -0.281,-0.719 -0.239,-0.086 -0.479,-0.164 -0.719,-0.25 -0.009,-0.022 -0.281,-0.75 -0.281,-0.75 -0.221,-0.08 -0.435,-0.171 -0.656,-0.25 -0.009,-0.023 -0.313,-0.75 -0.313,-0.75 -0.238,-0.086 -0.48,-0.165 -0.719,-0.25 -0.009,-0.022 -0.281,-0.75 -0.281,-0.75 -0.238,-0.086 -0.48,-0.165 -0.719,-0.25 l -0.281,-0.75 c -0.238,-0.086 -0.48,-0.165 -0.719,-0.25 l -0.281,-0.75 c -0.24,-0.086 -0.479,-0.164 -0.719,-0.25 -0.008,-0.02 -0.281,-0.719 -0.281,-0.719 -0.239,-0.086 -0.479,-0.164 -0.719,-0.25 -0.009,-0.022 -0.281,-0.75 -0.281,-0.75 -0.221,-0.08 -0.435,-0.171 -0.656,-0.25 l -0.313,-0.75 c -0.238,-0.086 -0.481,-0.165 -0.719,-0.25 -0.009,-0.022 -0.281,-0.75 -0.281,-0.75 -0.238,-0.086 -0.48,-0.165 -0.719,-0.25 -0.009,-0.022 -0.281,-0.75 -0.281,-0.75 -0.238,-0.086 -0.48,-0.165 -0.719,-0.25 -0.009,-0.022 -0.281,-0.75 -0.281,-0.75 -0.238,-0.086 -0.48,-0.165 -0.719,-0.25 -0.008,-0.02 -0.281,-0.719 -0.281,-0.719 -0.239,-0.086 -0.479,-0.164 -0.719,-0.25 -0.009,-0.022 -0.281,-0.75 -0.281,-0.75 -0.221,-0.08 -0.435,-0.171 -0.656,-0.25 -0.009,-0.023 -0.313,-0.75 -0.313,-0.75 -0.238,-0.086 -0.481,-0.165 -0.719,-0.25 -0.009,-0.022 -0.281,-0.75 -0.281,-0.75 -0.238,-0.086 -0.48,-0.165 -0.719,-0.25 -0.009,-0.022 -0.281,-0.75 -0.281,-0.75 -0.238,-0.086 -0.48,-0.165 -0.719,-0.25 l -0.281,-0.75 c -0.238,-0.086 -0.48,-0.165 -0.719,-0.25 -0.009,-0.022 -0.281,-0.75 -0.281,-0.75 -0.24,-0.086 -0.479,-0.164 -0.719,-0.25 -0.008,-0.02 -0.281,-0.719 -0.281,-0.719 -0.239,-0.086 -0.479,-0.164 -0.719,-0.25 -0.009,-0.022 -0.281,-0.75 -0.281,-0.75 -0.221,-0.08 -0.435,-0.171 -0.656,-0.25 l -0.313,-0.75 c -0.238,-0.086 -0.48,-0.165 -0.719,-0.25 l -0.281,-0.75 c -0.238,-0.086 -0.48,-0.165 -0.719,-0.25 -0.009,-0.022 -0.281,-0.75 -0.281,-0.75 -0.238,-0.086 -0.48,-0.165 -0.719,-0.25 -0.009,-0.022 -0.281,-0.75 -0.281,-0.75 -0.24,-0.086 -0.479,-0.164 -0.719,-0.25 -0.008,-0.021 -0.281,-0.719 -0.281,-0.719 -0.239,-0.086 -0.479,-0.164 -0.719,-0.25 -0.009,-0.022 -0.281,-0.75 -0.281,-0.75 -0.221,-0.08 -0.435,-0.171 -0.656,-0.25 -0.009,-0.023 -0.313,-0.75 -0.313,-0.75 -0.238,-0.086 -0.481,-0.165 -0.719,-0.25 -0.009,-0.022 -0.281,-0.75 -0.281,-0.75 -0.238,-0.086 -0.48,-0.165 -0.719,-0.25 -0.009,-0.022 -0.281,-0.75 -0.281,-0.75 -0.238,-0.086 -0.48,-0.165 -0.719,-0.25 -0.009,-0.022 -0.281,-0.75 -0.281,-0.75 -0.24,-0.086 -0.479,-0.164 -0.719,-0.25 -0.008,-0.021 -0.281,-0.719 -0.281,-0.719 -0.239,-0.086 -0.479,-0.164 -0.719,-0.25 -0.009,-0.022 -0.281,-0.75 -0.281,-0.75 -0.221,-0.08 -0.435,-0.171 -0.656,-0.25 -0.009,-0.023 -0.313,-0.75 -0.313,-0.75 -0.238,-0.086 -0.481,-0.165 -0.719,-0.25 l -0.281,-0.75 c -0.238,-0.086 -0.48,-0.165 -0.719,-0.25 l -0.281,-0.75 c -0.238,-0.086 -0.48,-0.165 -0.719,-0.25 -0.009,-0.022 -0.281,-0.75 -0.281,-0.75 -0.238,-0.086 -0.48,-0.165 -0.719,-0.25 -0.008,-0.021 -0.281,-0.719 -0.281,-0.719 -0.239,-0.086 -0.479,-0.164 -0.719,-0.25 -0.009,-0.022 -0.281,-0.75 -0.281,-0.75 -0.239,-0.086 -0.479,-0.164 -0.719,-0.25 -0.009,-0.022 -0.281,-0.75 -0.281,-0.75 -0.221,-0.08 -0.435,-0.171 -0.656,-0.25 -0.009,-0.023 -0.313,-0.75 -0.313,-0.75 -0.238,-0.086 -0.48,-0.165 -0.719,-0.25 -0.009,-0.022 -0.281,-0.75 -0.281,-0.75 -0.238,-0.086 -0.48,-0.165 -0.719,-0.25 -0.009,-0.022 -0.281,-0.75 -0.281,-0.75 -0.238,-0.086 -0.48,-0.165 -0.719,-0.25 -0.009,-0.022 -0.281,-0.75 -0.281,-0.75 -0.24,-0.086 -0.479,-0.164 -0.719,-0.25 -0.008,-0.02 -0.281,-0.719 -0.281,-0.719 -0.239,-0.086 -0.479,-0.164 -0.719,-0.25 -0.009,-0.022 -0.281,-0.75 -0.281,-0.75 -0.221,-0.08 -0.435,-0.171 -0.656,-0.25 -0.009,-0.023 -0.313,-0.75 -0.313,-0.75 -0.238,-0.086 -0.48,-0.165 -0.719,-0.25 -0.009,-0.022 -0.281,-0.75 -0.281,-0.75 -0.238,-0.086 -0.48,-0.165 -0.719,-0.25 -0.009,-0.022 -0.281,-0.75 -0.281,-0.75 -0.238,-0.086 -0.48,-0.165 -0.719,-0.25 -0.009,-0.022 -0.281,-0.75 -0.281,-0.75 -0.24,-0.086 -0.479,-0.164 -0.719,-0.25 -0.008,-0.021 -0.281,-0.719 -0.281,-0.719 -0.239,-0.086 -0.479,-0.164 -0.719,-0.25 -0.009,-0.022 -0.281,-0.75 -0.281,-0.75 -0.221,-0.08 -0.435,-0.171 -0.656,-0.25 -0.009,-0.023 -0.313,-0.75 -0.313,-0.75 -0.238,-0.086 -0.481,-0.165 -0.719,-0.25 -0.009,-0.022 -0.281,-0.75 -0.281,-0.75 -0.238,-0.086 -0.48,-0.165 -0.719,-0.25 -0.009,-0.022 -0.281,-0.75 -0.281,-0.75 -0.238,-0.086 -0.48,-0.165 -0.719,-0.25 -0.009,-0.022 -0.281,-0.75 -0.281,-0.75 -0.24,-0.086 -0.479,-0.164 -0.719,-0.25 -0.008,-0.021 -0.281,-0.719 -0.281,-0.719 -0.239,-0.086 -0.479,-0.164 -0.719,-0.25 -0.009,-0.022 -0.281,-0.75 -0.281,-0.75 -0.221,-0.08 -0.435,-0.171 -0.656,-0.25 -0.009,-0.023 -0.313,-0.75 -0.313,-0.75 -0.238,-0.086 -0.481,-0.165 -0.719,-0.25 -0.009,-0.022 -0.281,-0.75 -0.281,-0.75 -0.238,-0.086 -0.48,-0.165 -0.719,-0.25 -0.009,-0.022 -0.281,-0.75 -0.281,-0.75 -0.238,-0.086 -0.48,-0.165 -0.719,-0.25 -0.009,-0.022 -0.281,-0.75 -0.281,-0.75 -0.238,-0.086 -0.48,-0.165 -0.719,-0.25 -0.009,-0.022 -0.281,-0.75 -0.281,-0.75 -0.24,-0.086 -0.479,-0.164 -0.719,-0.25 -0.008,-0.02 -0.281,-0.719 -0.281,-0.719 -0.239,-0.086 -0.479,-0.164 -0.719,-0.25 l -0.281,-0.75 c -0.221,-0.08 -0.435,-0.171 -0.656,-0.25 l -0.313,-0.75 c -42.75,-15.406 -88.54,-22.245 -133.59,-22.12"
       inkscape:connector-curvature="0"
       transform="translate(0,540.36)"
       id="path8"
       style="fill-opacity:0.23500001" />
    <g
       id="g10"
       style="fill-rule:evenodd">
      <path
         d="m 256,541.36 c -140.83,0 -255,114.17 -255,255 0,140.83 114.17,255 255,255 140.83,0 255,-114.17 255,-255 0,-140.83 -114.17,-255 -255,-255 m 8.827,44.931 c 120.9,0 218.9,98 218.9,218.9 0,120.9 -98,218.9 -218.9,218.9 -120.9,0 -218.93,-98 -218.93,-218.9 0,-120.9 98.03,-218.9 218.93,-218.9"
         inkscape:connector-curvature="0"
         id="path12"
         style="fill-opacity:0.06700003" />
      <g
         id="g14"
         style="fill-opacity:0.12900002">
        <path
           d="M 256,544.79 C 117.06,544.79 4.43,657.42 4.43,796.36 4.43,935.3 117.06,1047.93 256,1047.93 394.94,1047.93 507.57,935.3 507.57,796.36 507.57,657.42 394.94,544.79 256,544.79 m 5.885,38.556 c 120.9,0 218.9,98 218.9,218.9 0,120.9 -98,218.9 -218.9,218.9 -120.9,0 -218.93,-98 -218.93,-218.9 0,-120.9 98.03,-218.9 218.93,-218.9"
           inkscape:connector-curvature="0"
           id="path16" />
        <path
           d="M 256,548.72 C 119.23,548.72 8.36,659.59 8.36,796.36 8.36,933.13 119.23,1044 256,1044 392.77,1044 503.64,933.13 503.64,796.36 503.64,659.59 392.77,548.72 256,548.72 m 2.942,31.691 c 120.9,0 218.9,98 218.9,218.9 0,120.9 -98,218.9 -218.9,218.9 -120.9,0 -218.93,-98 -218.93,-218.9 0,-120.9 98.03,-218.9 218.93,-218.9"
           inkscape:connector-curvature="0"
           id="path18" />
      </g>
      <path
         d="M 253.04,548.22 C 117.62,548.22 7.85,658 7.85,793.41 c 0,135.42 109.78,245.19 245.19,245.19 135.42,0 245.19,-109.78 245.19,-245.19 0,-135.42 -109.78,-245.19 -245.19,-245.19 z m 0,26.297 c 120.9,0 218.9,98 218.9,218.9 0,120.9 -98,218.9 -218.9,218.9 -120.9,0 -218.93,-98 -218.93,-218.9 0,-120.9 98.03,-218.9 218.93,-218.9 z"
         inkscape:connector-curvature="0"
         id="path20"
         style="fill:#ffffff;stroke:#000000;stroke-width:4.90399981;stroke-opacity:0.31000001" />
    </g>
    <text
       x="729.64001"
       y="771.71997"
       id="text22"
       style="font-size:129.22999573px;line-height:125%;letter-spacing:0;word-spacing:0;font-family:Gentium Book Basic">
      <tspan
         x="729.64001"
         y="771.71997"
         id="tspan24" />
    </text>
    <text
       x="378.91"
       y="2747.6399"
       transform="scale(4.0128,0.2492)"
       id="text26"
       style="font-size:46.95399857px;text-anchor:middle;font-family:Arial" />
    <text
       x="1310.91"
       y="691.71997"
       id="text28"
       style="font-size:129.22999573px;line-height:125%;letter-spacing:0;word-spacing:0;font-family:Gentium Book Basic">
      <tspan
         x="1310.91"
         y="691.71997"
         id="tspan30" />
    </text>
    <text
       x="523.76001"
       y="2426.6001"
       transform="scale(4.0128,0.2492)"
       id="text32"
       style="font-size:46.95399857px;text-anchor:middle;font-family:Arial" />
    <text
       x="239.33"
       y="510.45999"
       id="text34"
       style="font-size:129.22999573px;line-height:125%;letter-spacing:0;word-spacing:0;font-family:Gentium Book Basic">
      <tspan
         x="239.33"
         y="510.45999"
         id="tspan36" />
    </text>
    <text
       x="256.72"
       y="1699.25"
       transform="scale(4.0128,0.2492)"
       id="text38"
       style="font-size:46.95399857px;text-anchor:middle;font-family:Arial" />
    <text
       x="1337.38"
       y="293.98999"
       id="text40"
       style="font-size:129.22999573px;line-height:125%;letter-spacing:0;word-spacing:0;font-family:Gentium Book Basic">
      <tspan
         x="1337.38"
         y="293.98999"
         id="tspan42" />
    </text>
    <text
       x="530.35999"
       y="830.57001"
       transform="scale(4.0128,0.2492)"
       id="text44"
       style="font-size:46.95399857px;text-anchor:middle;font-family:Arial" />
    <text
       x="1918.65"
       y="213.99001"
       id="text46"
       style="font-size:129.22999573px;line-height:125%;letter-spacing:0;word-spacing:0;font-family:Gentium Book Basic">
      <tspan
         x="1918.65"
         y="213.99001"
         id="tspan48" />
    </text>
    <text
       x="675.21002"
       y="509.54001"
       transform="scale(4.0128,0.2492)"
       id="text50"
       style="font-size:46.95399857px;text-anchor:middle;font-family:Arial" />
    <text
       x="1529.53"
       y="-258.41"
       id="text52"
       style="font-size:129.22999573px;line-height:125%;letter-spacing:0;word-spacing:0;font-family:Gentium Book Basic">
      <tspan
         x="1529.53"
         y="-258.41"
         id="tspan54" />
    </text>
    <text
       x="578.23999"
       y="-1386.12"
       transform="scale(4.0128,0.2492)"
       id="text56"
       style="font-size:46.95399857px;text-anchor:middle;font-family:Arial" />
    <text
       x="2110.79"
       y="-338.42001"
       id="text58"
       style="font-size:129.22999573px;line-height:125%;letter-spacing:0;word-spacing:0;font-family:Gentium Book Basic">
      <tspan
         x="2110.79"
         y="-338.42001"
         id="tspan60" />
    </text>
    <text
       x="723.09003"
       y="-1707.16"
       transform="scale(4.0128,0.2492)"
       id="text62"
       style="font-size:46.95399857px;text-anchor:middle;font-family:Arial" />
    <text
       x="277.98999"
       y="1076.3"
       id="text64"
       style="font-size:208.33000183px;line-height:125%;letter-spacing:0;word-spacing:0;font-family:Gentium Book Basic">
      <tspan
         x="277.98999"
         y="1076.3"
         id="tspan66" />
    </text>
    <path
       d="m 256.61,673.29 c -47.956,0.128 -95.05,8.152 -136.67,22.14 -7.941,16.12 -11.677,32.769 -17.619,49.621 31.12,12.946 65.5,1.487 78.8,-9.736 2.473,-5.409 4.01,-13.66 7.413,-16.236 41.44,-14.547 109.66,-15.61 136.78,2.767 2.318,1.854 6.03,15.766 6.03,15.766 20.12,11.01 58.826,15.403 78.33,7.439 L 390.201,695.43 c -42.75,-15.406 -88.54,-22.255 -133.59,-22.14 m -60.04,59.932 0.653,30.827 c -59.41,84.01 -58.992,91.24 -58.992,155.39 h 235.76 c 0,-59.743 8.119,-60.727 -55.47,-154.74 v -31.48 h -38.684 v 22.292 h -47.846 v -22.292 h -35.421 m -15.609,12.138 c -32.19,14.32 -53.716,13.01 -77.37,7.544 -0.619,11.868 -0.156,25.16 5.899,28.53 20.723,10.416 62.67,9.298 71.782,-19.681 0.628,-1.94 -0.127,-10.679 -0.313,-16.393 m 149.7,0 c -0.186,5.713 -0.968,14.453 -0.339,16.393 9.109,28.98 51.06,30.1 71.783,19.681 6.06,-3.368 6.544,-16.662 5.925,-28.53 -23.652,5.464 -45.18,6.776 -77.37,-7.544 m -118.95,35.37 h 20.18 v 14.15 h -20.18 v -14.15 m 33.15,0 h 20.18 v 14.15 h -20.18 v -14.15 m 33.15,0 h 20.18 v 14.15 h -20.18 v -14.15 m -66.3,24.537 h 20.18 v 14.12 h -20.18 v -14.12 m 33.15,0 h 20.18 v 14.12 h -20.18 v -14.12 m 33.15,0 h 20.18 v 14.12 h -20.18 v -14.12 m -66.3,24.51 h 20.18 v 14.15 h -20.18 v -14.15 m 33.15,0 h 20.18 v 14.15 h -20.18 v -14.15 m 33.15,0 h 20.18 v 14.15 h -20.18 v -14.15"
       inkscape:connector-curvature="0"
       id="path68"
       style="fill:#ffffff" />
  </g>
</svg>
