<?xml version="1.0" encoding="UTF-8" standalone="no"?>
<!-- Created with Inkscape (http://www.inkscape.org/) -->

<svg
   xmlns:dc="http://purl.org/dc/elements/1.1/"
   xmlns:cc="http://creativecommons.org/ns#"
   xmlns:rdf="http://www.w3.org/1999/02/22-rdf-syntax-ns#"
   xmlns:svg="http://www.w3.org/2000/svg"
   xmlns="http://www.w3.org/2000/svg"
   xmlns:xlink="http://www.w3.org/1999/xlink"
   xmlns:inkscape="http://www.inkscape.org/namespaces/inkscape"
   version="1.1"
   width="100%"
   height="100%"
   viewBox="0 0 512 512"
   id="svg2">
  <metadata
     id="metadata87">
    <rdf:RDF>
      <cc:Work
         rdf:about="">
        <dc:format>image/svg+xml</dc:format>
        <dc:type
           rdf:resource="http://purl.org/dc/dcmitype/StillImage" />
      </cc:Work>
    </rdf:RDF>
  </metadata>
  <defs
     id="defs4">
    <path
       d="m 700.04,193.8 c 0,29.01 -23.518,52.53 -52.53,52.53 -29.01,0 -52.53,-23.518 -52.53,-52.53 0,-29.01 23.518,-52.53 52.53,-52.53 29.01,0 52.53,23.518 52.53,52.53"
       inkscape:connector-curvature="0"
       id="0"
       style="fill:#ffffff" />
  </defs>
  <g
     transform="translate(0,-540.36)"
     id="g7">
    <path
       d="m 471.95,793.41 c 0,120.9 -98.01,218.9 -218.9,218.9 -120.9,0 -218.9,-98.01 -218.9,-218.9 0,-120.9 98.01,-218.9 218.9,-218.9 120.9,0 218.9,98.01 218.9,218.9"
       inkscape:connector-curvature="0"
       id="path9"
       style="fill:#0078ad;fill-rule:evenodd" />
    <path
       d="m 341.81,124.56 c -25.469,0 -46.12,20.656 -46.12,46.13 0,0.827 0.019,1.652 0.063,2.469 -0.186,0.094 -95.44,48 -95.44,48 -8.08,-6.979 -18.609,-11.219 -30.12,-11.219 -25.469,0 -46.09,20.625 -46.09,46.09 0,13.188 5.537,25.09 14.406,33.5 0.031,0.031 0.062,0.062 0.094,0.094 0.199,0.187 0.392,0.379 0.594,0.563 0.232,0.238 0.451,0.486 0.688,0.719 0.358,0.374 0.724,0.732 1.094,1.094 0.363,0.377 0.718,0.76 1.094,1.125 0.364,0.376 0.748,0.73 1.125,1.094 0.328,0.337 0.661,0.674 1,1 0.315,0.323 0.645,0.624 0.969,0.938 0.232,0.238 0.451,0.486 0.688,0.719 0.358,0.374 0.724,0.732 1.094,1.094 0.363,0.377 0.718,0.76 1.094,1.125 0.364,0.376 0.748,0.73 1.125,1.094 0.328,0.337 0.661,0.674 1,1 0.315,0.323 0.645,0.624 0.969,0.938 0.232,0.238 0.451,0.486 0.688,0.719 0.358,0.374 0.724,0.732 1.094,1.094 0.326,0.339 0.664,0.671 1,1 0.363,0.377 0.718,0.76 1.094,1.125 0.364,0.376 0.748,0.73 1.125,1.094 0.315,0.323 0.645,0.624 0.969,0.938 0.304,0.312 0.594,0.634 0.906,0.938 0.257,0.265 0.519,0.523 0.781,0.781 0.358,0.374 0.724,0.732 1.094,1.094 0.363,0.377 0.718,0.76 1.094,1.125 0.364,0.376 0.748,0.73 1.125,1.094 0.421,0.432 0.844,0.866 1.281,1.281 0.031,0.031 0.062,0.062 0.094,0.094 0.199,0.187 0.392,0.379 0.594,0.563 0.232,0.238 0.451,0.486 0.688,0.719 0.358,0.374 0.724,0.732 1.094,1.094 0.363,0.377 0.718,0.76 1.094,1.125 0.364,0.376 0.748,0.73 1.125,1.094 0.328,0.337 0.661,0.674 1,1 0.315,0.323 0.645,0.624 0.969,0.938 0.232,0.238 0.451,0.486 0.688,0.719 0.358,0.374 0.724,0.732 1.094,1.094 0.326,0.339 0.664,0.671 1,1 0.399,0.414 0.805,0.819 1.219,1.219 0.328,0.337 0.661,0.674 1,1 0.315,0.323 0.645,0.624 0.969,0.938 0.304,0.312 0.594,0.634 0.906,0.938 0.257,0.265 0.519,0.523 0.781,0.781 0.358,0.374 0.724,0.732 1.094,1.094 0.363,0.377 0.718,0.76 1.094,1.125 0.364,0.376 0.748,0.73 1.125,1.094 0.421,0.432 0.844,0.866 1.281,1.281 0.031,0.031 0.062,0.062 0.094,0.094 0.199,0.187 0.392,0.379 0.594,0.563 0.232,0.238 0.451,0.486 0.688,0.719 0.358,0.374 0.724,0.732 1.094,1.094 0.363,0.377 0.718,0.76 1.094,1.125 0.364,0.376 0.748,0.73 1.125,1.094 0.328,0.337 0.661,0.674 1,1 0.315,0.323 0.645,0.624 0.969,0.938 0.232,0.238 0.451,0.486 0.688,0.719 0.358,0.374 0.724,0.732 1.094,1.094 0.363,0.377 0.718,0.76 1.094,1.125 0.364,0.376 0.748,0.73 1.125,1.094 0.328,0.337 0.661,0.674 1,1 0.315,0.323 0.645,0.624 0.969,0.938 0.232,0.238 0.451,0.486 0.688,0.719 0.358,0.374 0.724,0.732 1.094,1.094 0.326,0.339 0.664,0.671 1,1 0.363,0.377 0.718,0.76 1.094,1.125 0.364,0.376 0.748,0.73 1.125,1.094 0.315,0.323 0.645,0.624 0.969,0.938 0.304,0.312 0.594,0.634 0.906,0.938 0.257,0.265 0.519,0.523 0.781,0.781 0.358,0.374 0.724,0.732 1.094,1.094 0.363,0.377 0.718,0.76 1.094,1.125 0.364,0.376 0.748,0.73 1.125,1.094 0.421,0.432 0.844,0.866 1.281,1.281 0.031,0.031 0.062,0.062 0.094,0.094 0.199,0.187 0.392,0.379 0.594,0.563 0.232,0.238 0.451,0.486 0.688,0.719 0.358,0.374 0.724,0.732 1.094,1.094 0.363,0.377 0.718,0.76 1.094,1.125 0.364,0.376 0.748,0.73 1.125,1.094 0.328,0.337 0.661,0.674 1,1 0.315,0.323 0.645,0.624 0.969,0.938 0.232,0.238 0.451,0.486 0.688,0.719 0.358,0.374 0.724,0.732 1.094,1.094 0.326,0.339 0.664,0.671 1,1 0.399,0.414 0.805,0.819 1.219,1.219 0.328,0.337 0.661,0.674 1,1 0.315,0.323 0.645,0.624 0.969,0.938 0.232,0.238 0.451,0.486 0.688,0.719 0.398,0.416 0.805,0.818 1.219,1.219 0.288,0.297 0.579,0.586 0.875,0.875 0.363,0.377 0.718,0.76 1.094,1.125 0.364,0.376 0.748,0.73 1.125,1.094 0.421,0.432 0.844,0.866 1.281,1.281 0.031,0.031 0.062,0.062 0.094,0.094 0.199,0.187 0.392,0.379 0.594,0.563 0.232,0.238 0.451,0.486 0.688,0.719 0.358,0.374 0.724,0.732 1.094,1.094 0.363,0.377 0.718,0.76 1.094,1.125 0.364,0.376 0.748,0.73 1.125,1.094 0.328,0.337 0.661,0.674 1,1 0.315,0.323 0.645,0.624 0.969,0.938 0.232,0.238 0.451,0.486 0.688,0.719 0.358,0.374 0.724,0.732 1.094,1.094 0.363,0.377 0.718,0.76 1.094,1.125 0.364,0.376 0.748,0.73 1.125,1.094 0.328,0.337 0.661,0.674 1,1 0.315,0.323 0.645,0.624 0.969,0.938 0.232,0.238 0.451,0.486 0.688,0.719 0.358,0.374 0.724,0.732 1.094,1.094 0.326,0.339 0.664,0.671 1,1 0.399,0.414 0.805,0.819 1.219,1.219 0.328,0.337 0.661,0.674 1,1 0.315,0.323 0.645,0.624 0.969,0.938 0.304,0.312 0.594,0.634 0.906,0.938 0.257,0.265 0.519,0.523 0.781,0.781 0.358,0.374 0.724,0.732 1.094,1.094 0.363,0.377 0.718,0.76 1.094,1.125 0.364,0.376 0.748,0.73 1.125,1.094 0.421,0.432 0.844,0.866 1.281,1.281 0.031,0.031 0.062,0.062 0.094,0.094 0.199,0.187 0.392,0.379 0.594,0.563 0.232,0.238 0.451,0.486 0.688,0.719 0.358,0.374 0.724,0.732 1.094,1.094 0.363,0.377 0.718,0.76 1.094,1.125 0.364,0.376 0.748,0.73 1.125,1.094 0.328,0.337 0.661,0.674 1,1 0.315,0.323 0.645,0.624 0.969,0.938 0.232,0.238 0.451,0.486 0.688,0.719 0.358,0.374 0.724,0.732 1.094,1.094 0.326,0.339 0.664,0.671 1,1 0.399,0.414 0.805,0.819 1.219,1.219 0.328,0.337 0.661,0.674 1,1 0.315,0.323 0.645,0.624 0.969,0.938 0.232,0.238 0.451,0.486 0.688,0.719 0.398,0.416 0.805,0.818 1.219,1.219 0.288,0.297 0.579,0.586 0.875,0.875 0.363,0.377 0.718,0.76 1.094,1.125 0.364,0.376 0.748,0.73 1.125,1.094 0.315,0.323 0.645,0.624 0.969,0.938 0.304,0.312 0.594,0.634 0.906,0.938 0.257,0.265 0.519,0.523 0.781,0.781 0.358,0.374 0.724,0.732 1.094,1.094 0.363,0.377 0.718,0.76 1.094,1.125 0.364,0.376 0.748,0.73 1.125,1.094 0.328,0.337 0.661,0.674 1,1 0.315,0.323 0.645,0.624 0.969,0.938 0.232,0.238 0.451,0.486 0.688,0.719 0.358,0.374 0.724,0.732 1.094,1.094 0.363,0.377 0.718,0.76 1.094,1.125 0.364,0.376 0.748,0.73 1.125,1.094 0.328,0.337 0.661,0.674 1,1 0.315,0.323 0.645,0.624 0.969,0.938 0.232,0.238 0.451,0.486 0.688,0.719 0.358,0.374 0.724,0.732 1.094,1.094 0.326,0.339 0.664,0.671 1,1 0.399,0.414 0.805,0.819 1.219,1.219 0.328,0.337 0.661,0.674 1,1 0.315,0.323 0.645,0.624 0.969,0.938 0.304,0.312 0.594,0.634 0.906,0.938 0.257,0.265 0.519,0.523 0.781,0.781 0.358,0.374 0.724,0.732 1.094,1.094 0.363,0.377 0.718,0.76 1.094,1.125 0.364,0.376 0.748,0.73 1.125,1.094 0.421,0.432 0.844,0.866 1.281,1.281 0.031,0.031 0.062,0.062 0.094,0.094 0.199,0.187 0.392,0.379 0.594,0.563 0.232,0.238 0.451,0.486 0.688,0.719 0.358,0.374 0.724,0.732 1.094,1.094 0.363,0.377 0.718,0.76 1.094,1.125 0.364,0.376 0.748,0.73 1.125,1.094 0.328,0.337 0.661,0.674 1,1 0.315,0.323 0.645,0.624 0.969,0.938 0.232,0.238 0.451,0.486 0.688,0.719 0.358,0.374 0.724,0.732 1.094,1.094 0.363,0.377 0.718,0.76 1.094,1.125 0.364,0.376 0.748,0.73 1.125,1.094 0.328,0.337 0.661,0.674 1,1 0.315,0.323 0.645,0.624 0.969,0.938 0.232,0.238 0.451,0.486 0.688,0.719 0.358,0.374 0.724,0.732 1.094,1.094 0.326,0.339 0.664,0.671 1,1 0.363,0.377 0.718,0.76 1.094,1.125 0.364,0.376 0.748,0.73 1.125,1.094 0.119,0.122 0.253,0.226 0.375,0.344 91.89,-25.98 159.22,-110.45 159.22,-210.66 0,-6.123 -0.257,-12.191 -0.75,-18.19 -0.218,-0.22 -0.436,-0.441 -0.656,-0.656 -0.399,-0.415 -0.805,-0.819 -1.219,-1.219 -0.328,-0.337 -0.661,-0.674 -1,-1 -0.455,-0.466 -0.901,-0.928 -1.375,-1.375 -0.167,-0.167 -0.331,-0.336 -0.5,-0.5 -0.303,-0.312 -0.626,-0.602 -0.938,-0.906 -0.313,-0.325 -0.615,-0.653 -0.938,-0.969 -0.363,-0.377 -0.718,-0.76 -1.094,-1.125 -0.364,-0.376 -0.748,-0.73 -1.125,-1.094 -0.452,-0.463 -0.904,-0.931 -1.375,-1.375 -0.167,-0.167 -0.331,-0.336 -0.5,-0.5 -0.303,-0.312 -0.626,-0.602 -0.938,-0.906 -0.313,-0.325 -0.615,-0.653 -0.938,-0.969 -0.363,-0.377 -0.718,-0.76 -1.094,-1.125 -0.364,-0.376 -0.748,-0.73 -1.125,-1.094 -0.328,-0.337 -0.661,-0.674 -1,-1 -0.455,-0.466 -0.901,-0.928 -1.375,-1.375 -0.141,-0.141 -0.295,-0.267 -0.438,-0.406 -0.313,-0.325 -0.615,-0.653 -0.938,-0.969 -0.326,-0.339 -0.664,-0.671 -1,-1 -0.399,-0.415 -0.805,-0.819 -1.219,-1.219 -0.328,-0.337 -0.661,-0.674 -1,-1 -0.455,-0.466 -0.901,-0.928 -1.375,-1.375 -0.526,-0.56 -1.071,-1.092 -1.625,-1.625 -0.247,-0.253 -0.497,-0.503 -0.75,-0.75 -0.363,-0.377 -0.718,-0.76 -1.094,-1.125 -0.364,-0.376 -0.748,-0.73 -1.125,-1.094 -0.455,-0.466 -0.901,-0.928 -1.375,-1.375 -0.167,-0.167 -0.331,-0.336 -0.5,-0.5 -0.303,-0.312 -0.626,-0.602 -0.938,-0.906 -0.313,-0.325 -0.615,-0.653 -0.938,-0.969 -0.363,-0.377 -0.718,-0.76 -1.094,-1.125 -0.364,-0.376 -0.748,-0.73 -1.125,-1.094 -0.328,-0.337 -0.661,-0.674 -1,-1 -0.455,-0.466 -0.901,-0.928 -1.375,-1.375 -0.141,-0.141 -0.295,-0.267 -0.438,-0.406 -0.313,-0.325 -0.615,-0.653 -0.938,-0.969 -0.363,-0.377 -0.718,-0.76 -1.094,-1.125 -0.364,-0.376 -0.748,-0.73 -1.125,-1.094 -0.328,-0.337 -0.661,-0.674 -1,-1 -0.455,-0.466 -0.901,-0.928 -1.375,-1.375 -0.141,-0.141 -0.295,-0.267 -0.438,-0.406 -0.313,-0.325 -0.615,-0.653 -0.938,-0.969 -0.326,-0.339 -0.664,-0.671 -1,-1 -0.399,-0.415 -0.805,-0.819 -1.219,-1.219 -0.328,-0.337 -0.661,-0.674 -1,-1 -0.455,-0.466 -0.901,-0.928 -1.375,-1.375 -0.167,-0.167 -0.331,-0.336 -0.5,-0.5 -0.303,-0.312 -0.626,-0.602 -0.938,-0.906 -0.313,-0.325 -0.615,-0.653 -0.938,-0.969 -0.363,-0.377 -0.718,-0.76 -1.094,-1.125 -0.364,-0.376 -0.748,-0.73 -1.125,-1.094 -0.452,-0.463 -0.904,-0.931 -1.375,-1.375 -0.167,-0.167 -0.331,-0.336 -0.5,-0.5 -0.303,-0.312 -0.626,-0.602 -0.938,-0.906 -0.313,-0.325 -0.615,-0.653 -0.938,-0.969 -0.363,-0.377 -0.718,-0.76 -1.094,-1.125 -0.364,-0.376 -0.748,-0.73 -1.125,-1.094 -0.328,-0.337 -0.661,-0.674 -1,-1 -0.455,-0.466 -0.901,-0.928 -1.375,-1.375 -0.141,-0.141 -0.295,-0.267 -0.438,-0.406 -0.313,-0.325 -0.615,-0.653 -0.938,-0.969 -0.363,-0.377 -0.718,-0.76 -1.094,-1.125 -0.364,-0.376 -0.748,-0.73 -1.125,-1.094 -0.328,-0.337 -0.661,-0.674 -1,-1 -0.455,-0.466 -0.901,-0.928 -1.375,-1.375 -0.141,-0.141 -0.295,-0.267 -0.438,-0.406 -0.313,-0.325 -0.615,-0.653 -0.938,-0.969 -0.326,-0.339 -0.664,-0.671 -1,-1 -0.363,-0.377 -0.718,-0.76 -1.094,-1.125 -0.364,-0.376 -0.748,-0.73 -1.125,-1.094 -0.455,-0.466 -0.901,-0.928 -1.375,-1.375 -0.167,-0.167 -0.331,-0.336 -0.5,-0.5 -0.303,-0.312 -0.626,-0.602 -0.938,-0.906 -0.313,-0.325 -0.615,-0.653 -0.938,-0.969 -0.363,-0.377 -0.718,-0.76 -1.094,-1.125 -0.364,-0.376 -0.748,-0.73 -1.125,-1.094 -0.452,-0.463 -0.904,-0.931 -1.375,-1.375 -0.167,-0.167 -0.331,-0.336 -0.5,-0.5 -0.303,-0.312 -0.626,-0.602 -0.938,-0.906 -0.313,-0.325 -0.615,-0.653 -0.938,-0.969 -0.363,-0.377 -0.718,-0.76 -1.094,-1.125 -0.364,-0.376 -0.748,-0.73 -1.125,-1.094 -0.328,-0.337 -0.661,-0.674 -1,-1 -0.455,-0.466 -0.901,-0.928 -1.375,-1.375 -0.141,-0.141 -0.295,-0.267 -0.438,-0.406 -0.313,-0.325 -0.615,-0.653 -0.938,-0.969 -0.326,-0.339 -0.664,-0.671 -1,-1 -0.399,-0.415 -0.805,-0.819 -1.219,-1.219 -0.328,-0.337 -0.661,-0.674 -1,-1 -0.455,-0.466 -0.901,-0.928 -1.375,-1.375 -0.167,-0.167 -0.331,-0.336 -0.5,-0.5 -0.303,-0.312 -0.626,-0.602 -0.938,-0.906 -0.313,-0.325 -0.615,-0.653 -0.938,-0.969 -0.363,-0.377 -0.718,-0.76 -1.094,-1.125 -0.364,-0.376 -0.748,-0.73 -1.125,-1.094 -8.368,-8.576 -20.04,-13.906 -32.969,-13.906"
       inkscape:connector-curvature="0"
       transform="translate(0,540.36)"
       id="path11"
       style="fill-opacity:0.23500001" />
    <g
       id="g13"
       style="fill-rule:evenodd">
      <path
         d="m 256,541.36 c -140.83,0 -255,114.17 -255,255 0,140.83 114.17,255 255,255 140.83,0 255,-114.17 255,-255 0,-140.83 -114.17,-255 -255,-255 m 8.827,44.931 c 120.9,0 218.9,98 218.9,218.9 0,120.9 -98,218.9 -218.9,218.9 -120.9,0 -218.93,-98 -218.93,-218.9 0,-120.9 98.03,-218.9 218.93,-218.9"
         inkscape:connector-curvature="0"
         id="path15"
         style="fill-opacity:0.06700003" />
      <g
         id="g17"
         style="fill-opacity:0.12900002">
        <path
           d="M 256,544.79 C 117.06,544.79 4.43,657.42 4.43,796.36 4.43,935.3 117.06,1047.93 256,1047.93 394.94,1047.93 507.57,935.3 507.57,796.36 507.57,657.42 394.94,544.79 256,544.79 m 5.885,38.556 c 120.9,0 218.9,98 218.9,218.9 0,120.9 -98,218.9 -218.9,218.9 -120.9,0 -218.93,-98 -218.93,-218.9 0,-120.9 98.03,-218.9 218.93,-218.9"
           inkscape:connector-curvature="0"
           id="path19" />
        <path
           d="M 256,548.72 C 119.23,548.72 8.36,659.59 8.36,796.36 8.36,933.13 119.23,1044 256,1044 392.77,1044 503.64,933.13 503.64,796.36 503.64,659.59 392.77,548.72 256,548.72 m 2.942,31.691 c 120.9,0 218.9,98 218.9,218.9 0,120.9 -98,218.9 -218.9,218.9 -120.9,0 -218.93,-98 -218.93,-218.9 0,-120.9 98.03,-218.9 218.93,-218.9"
           inkscape:connector-curvature="0"
           id="path21" />
      </g>
      <path
         d="M 253.04,548.22 C 117.62,548.22 7.85,658 7.85,793.41 c 0,135.42 109.78,245.19 245.19,245.19 135.42,0 245.19,-109.78 245.19,-245.19 0,-135.42 -109.78,-245.19 -245.19,-245.19 z m 0,26.297 c 120.9,0 218.9,98 218.9,218.9 0,120.9 -98,218.9 -218.9,218.9 -120.9,0 -218.93,-98 -218.93,-218.9 0,-120.9 98.03,-218.9 218.93,-218.9 z"
         inkscape:connector-curvature="0"
         id="path23"
         style="fill:#ffffff;stroke:#000000;stroke-width:4.90399981;stroke-opacity:0.31000001" />
    </g>
    <text
       x="729.64001"
       y="771.71997"
       id="text25"
       style="font-size:129.22999573px;line-height:125%;letter-spacing:0;word-spacing:0;font-family:Gentium Book Basic">
      <tspan
         x="729.64001"
         y="771.71997"
         id="tspan27" />
    </text>
    <text
       x="378.91"
       y="2747.6399"
       transform="scale(4.0128,0.2492)"
       id="text29"
       style="font-size:46.95399857px;text-anchor:middle;font-family:Arial" />
    <text
       x="1310.91"
       y="691.71997"
       id="text31"
       style="font-size:129.22999573px;line-height:125%;letter-spacing:0;word-spacing:0;font-family:Gentium Book Basic">
      <tspan
         x="1310.91"
         y="691.71997"
         id="tspan33" />
    </text>
    <text
       x="523.76001"
       y="2426.6001"
       transform="scale(4.0128,0.2492)"
       id="text35"
       style="font-size:46.95399857px;text-anchor:middle;font-family:Arial" />
    <text
       x="239.33"
       y="510.45999"
       id="text37"
       style="font-size:129.22999573px;line-height:125%;letter-spacing:0;word-spacing:0;font-family:Gentium Book Basic">
      <tspan
         x="239.33"
         y="510.45999"
         id="tspan39" />
    </text>
    <text
       x="256.72"
       y="1699.25"
       transform="scale(4.0128,0.2492)"
       id="text41"
       style="font-size:46.95399857px;text-anchor:middle;font-family:Arial" />
    <text
       x="1337.38"
       y="293.98999"
       id="text43"
       style="font-size:129.22999573px;line-height:125%;letter-spacing:0;word-spacing:0;font-family:Gentium Book Basic">
      <tspan
         x="1337.38"
         y="293.98999"
         id="tspan45" />
    </text>
    <text
       x="530.35999"
       y="830.57001"
       transform="scale(4.0128,0.2492)"
       id="text47"
       style="font-size:46.95399857px;text-anchor:middle;font-family:Arial" />
    <text
       x="1918.65"
       y="213.99001"
       id="text49"
       style="font-size:129.22999573px;line-height:125%;letter-spacing:0;word-spacing:0;font-family:Gentium Book Basic">
      <tspan
         x="1918.65"
         y="213.99001"
         id="tspan51" />
    </text>
    <text
       x="675.21002"
       y="509.54001"
       transform="scale(4.0128,0.2492)"
       id="text53"
       style="font-size:46.95399857px;text-anchor:middle;font-family:Arial" />
    <text
       x="1529.53"
       y="-258.41"
       id="text55"
       style="font-size:129.22999573px;line-height:125%;letter-spacing:0;word-spacing:0;font-family:Gentium Book Basic">
      <tspan
         x="1529.53"
         y="-258.41"
         id="tspan57" />
    </text>
    <text
       x="578.23999"
       y="-1386.12"
       transform="scale(4.0128,0.2492)"
       id="text59"
       style="font-size:46.95399857px;text-anchor:middle;font-family:Arial" />
    <text
       x="2110.79"
       y="-338.42001"
       id="text61"
       style="font-size:129.22999573px;line-height:125%;letter-spacing:0;word-spacing:0;font-family:Gentium Book Basic">
      <tspan
         x="2110.79"
         y="-338.42001"
         id="tspan63" />
    </text>
    <text
       x="723.09003"
       y="-1707.16"
       transform="scale(4.0128,0.2492)"
       id="text65"
       style="font-size:46.95399857px;text-anchor:middle;font-family:Arial" />
    <text
       x="277.98999"
       y="1076.3"
       id="text67"
       style="font-size:208.33000183px;line-height:125%;letter-spacing:0;word-spacing:0;font-family:Gentium Book Basic">
      <tspan
         x="277.98999"
         y="1076.3"
         id="tspan69" />
    </text>
    <g
       transform="matrix(0.57066,0,0,0.57066,-219.77,374.86)"
       id="g71"
       style="fill:#ffffff">
      <use
         transform="matrix(1.53846,0,0,1.53846,-312.8,440.55)"
         id="use73"
         x="0"
         y="0"
         width="1"
         height="1"
         xlink:href="#0" />
      <use
         transform="matrix(1.53846,0,0,1.53846,-12.08,290.97)"
         id="use75"
         x="0"
         y="0"
         width="1"
         height="1"
         xlink:href="#0" />
      <use
         transform="matrix(1.53846,0,0,1.53846,-12.08,589.98)"
         id="use77"
         x="0"
         y="0"
         width="1"
         height="1"
         xlink:href="#0" />
      <g
         id="g79">
        <path
           d="m 728.32,255.42 c 11.11,2.525 182.84,91.42 182.84,91.42 l 25,-59.09 -175.51,-88.33 z"
           inkscape:connector-curvature="0"
           transform="translate(0,540.36)"
           id="path81" />
        <path
           d="m 941.46,646.53 c -11.11,2.525 -182.84,91.42 -182.84,91.42 l -25,-59.09 175.51,-88.33 z"
           inkscape:connector-curvature="0"
           id="path83" />
      </g>
    </g>
  </g>
</svg>
