<?xml version="1.0" encoding="UTF-8" standalone="no"?>
<!-- Created with Inkscape (http://www.inkscape.org/) -->

<svg
   xmlns:dc="http://purl.org/dc/elements/1.1/"
   xmlns:cc="http://creativecommons.org/ns#"
   xmlns:rdf="http://www.w3.org/1999/02/22-rdf-syntax-ns#"
   xmlns:svg="http://www.w3.org/2000/svg"
   xmlns="http://www.w3.org/2000/svg"
   xmlns:inkscape="http://www.inkscape.org/namespaces/inkscape"
   version="1.1"
   width="100%"
   height="100%"
   viewBox="0 0 512 512"
   id="svg2">
  <metadata
     id="metadata72">
    <rdf:RDF>
      <cc:Work
         rdf:about="">
        <dc:format>image/svg+xml</dc:format>
        <dc:type
           rdf:resource="http://purl.org/dc/dcmitype/StillImage" />
      </cc:Work>
    </rdf:RDF>
  </metadata>
  <defs
     id="defs70" />
  <path
     d="m 471.95,253.05 c 0,120.9 -98.01,218.9 -218.9,218.9 -120.9,0 -218.9,-98.01 -218.9,-218.9 0,-120.9 98.01,-218.9 218.9,-218.9 120.9,0 218.9,98.01 218.9,218.9"
     inkscape:connector-curvature="0"
     id="path4"
     style="fill:#cd1d31;fill-rule:evenodd" />
  <path
     d="m 196.84,167.16 c -30.737,0.695 -60.97,17.902 -75.906,48.719 -17.524,36.16 -9.484,77.71 17.09,103.94 0.538,0.548 1.071,1.09 1.625,1.625 0.229,0.229 0.456,0.461 0.688,0.688 0.332,0.334 0.662,0.67 1,1 0.031,0.032 0.063,0.062 0.094,0.094 0.188,0.189 0.373,0.376 0.563,0.563 0.142,0.15 0.294,0.289 0.438,0.438 0.186,0.187 0.375,0.377 0.563,0.563 0.142,0.15 0.294,0.289 0.438,0.438 0.186,0.187 0.375,0.377 0.563,0.563 0.328,0.334 0.666,0.671 1,1 0.188,0.179 0.373,0.354 0.563,0.531 0.015,0.016 0.016,0.047 0.031,0.063 0.239,0.239 0.476,0.482 0.719,0.719 0.332,0.334 0.662,0.67 1,1 0.332,0.334 0.662,0.67 1,1 0.031,0.032 0.063,0.062 0.094,0.094 0.188,0.189 0.373,0.376 0.563,0.563 0.142,0.15 0.294,0.289 0.438,0.438 0.186,0.187 0.375,0.377 0.563,0.563 0.142,0.15 0.294,0.289 0.438,0.438 0.186,0.187 0.375,0.377 0.563,0.563 0.188,0.179 0.373,0.354 0.563,0.531 0.015,0.016 0.016,0.047 0.031,0.063 0.24,0.24 0.475,0.481 0.719,0.719 0.332,0.334 0.662,0.67 1,1 0.332,0.334 0.662,0.67 1,1 0.031,0.032 0.063,0.062 0.094,0.094 0.188,0.189 0.373,0.376 0.563,0.563 0.142,0.15 0.294,0.289 0.438,0.438 0.186,0.187 0.375,0.377 0.563,0.563 0.142,0.15 0.294,0.289 0.438,0.438 0.186,0.187 0.375,0.377 0.563,0.563 0.538,0.548 1.071,1.09 1.625,1.625 0.229,0.229 0.456,0.461 0.688,0.688 0.332,0.334 0.662,0.67 1,1 0.031,0.032 0.063,0.062 0.094,0.094 0.188,0.189 0.373,0.376 0.563,0.563 0.142,0.15 0.294,0.289 0.438,0.438 0.186,0.187 0.375,0.377 0.563,0.563 0.142,0.15 0.294,0.289 0.438,0.438 0.186,0.187 0.375,0.377 0.563,0.563 0.512,0.522 1.036,1.021 1.563,1.531 0.015,0.016 0.016,0.047 0.031,0.063 0.239,0.239 0.476,0.482 0.719,0.719 0.332,0.334 0.662,0.67 1,1 0.332,0.334 0.662,0.67 1,1 0.031,0.032 0.063,0.062 0.094,0.094 0.188,0.189 0.373,0.376 0.563,0.563 0.142,0.15 0.294,0.289 0.438,0.438 0.186,0.187 0.375,0.377 0.563,0.563 0.328,0.334 0.666,0.671 1,1 0.188,0.179 0.373,0.354 0.563,0.531 0.015,0.016 0.016,0.047 0.031,0.063 0.24,0.24 0.475,0.481 0.719,0.719 0.332,0.334 0.662,0.67 1,1 0.332,0.334 0.662,0.67 1,1 0.031,0.032 0.063,0.062 0.094,0.094 0.188,0.189 0.373,0.376 0.563,0.563 0.142,0.15 0.294,0.289 0.438,0.438 0.186,0.187 0.375,0.377 0.563,0.563 0.142,0.15 0.294,0.289 0.438,0.438 0.186,0.187 0.375,0.377 0.563,0.563 0.188,0.179 0.373,0.354 0.563,0.531 0.015,0.016 0.016,0.047 0.031,0.063 0.24,0.24 0.475,0.481 0.719,0.719 0.332,0.334 0.662,0.67 1,1 0.332,0.334 0.662,0.67 1,1 0.031,0.032 0.063,0.062 0.094,0.094 0.188,0.189 0.373,0.376 0.563,0.563 0.142,0.15 0.294,0.289 0.438,0.438 0.186,0.187 0.375,0.377 0.563,0.563 0.142,0.15 0.294,0.289 0.438,0.438 0.186,0.187 0.375,0.377 0.563,0.563 0.538,0.548 1.071,1.09 1.625,1.625 0.229,0.229 0.456,0.461 0.688,0.688 0.332,0.334 0.662,0.67 1,1 0.031,0.032 0.063,0.062 0.094,0.094 0.188,0.189 0.373,0.376 0.563,0.563 0.142,0.15 0.294,0.289 0.438,0.438 0.186,0.187 0.375,0.377 0.563,0.563 0.142,0.15 0.294,0.289 0.438,0.438 0.186,0.187 0.375,0.377 0.563,0.563 0.328,0.334 0.666,0.671 1,1 0.188,0.179 0.373,0.354 0.563,0.531 0.015,0.016 0.016,0.047 0.031,0.063 0.239,0.239 0.476,0.482 0.719,0.719 0.332,0.334 0.662,0.67 1,1 0.332,0.334 0.662,0.67 1,1 0.031,0.032 0.063,0.062 0.094,0.094 0.188,0.189 0.373,0.376 0.563,0.563 0.142,0.15 0.294,0.289 0.438,0.438 0.186,0.187 0.375,0.377 0.563,0.563 0.142,0.15 0.294,0.289 0.438,0.438 0.186,0.187 0.375,0.377 0.563,0.563 0.188,0.179 0.373,0.354 0.563,0.531 0.015,0.016 0.016,0.047 0.031,0.063 0.24,0.24 0.475,0.481 0.719,0.719 0.332,0.334 0.662,0.67 1,1 0.332,0.334 0.662,0.67 1,1 0.031,0.032 0.063,0.062 0.094,0.094 0.188,0.189 0.373,0.376 0.563,0.563 0.142,0.15 0.294,0.289 0.438,0.438 0.186,0.187 0.375,0.377 0.563,0.563 0.142,0.15 0.294,0.289 0.438,0.438 0.186,0.187 0.375,0.377 0.563,0.563 0.538,0.548 1.071,1.09 1.625,1.625 0.229,0.229 0.456,0.461 0.688,0.688 0.332,0.334 0.662,0.67 1,1 0.031,0.032 0.063,0.062 0.094,0.094 0.188,0.189 0.373,0.376 0.563,0.563 0.142,0.15 0.294,0.289 0.438,0.438 0.186,0.187 0.375,0.377 0.563,0.563 0.142,0.15 0.294,0.289 0.438,0.438 0.186,0.187 0.375,0.377 0.563,0.563 0.512,0.522 1.036,1.021 1.563,1.531 0.015,0.016 0.016,0.047 0.031,0.063 0.239,0.239 0.476,0.482 0.719,0.719 0.332,0.334 0.662,0.67 1,1 0.332,0.334 0.662,0.67 1,1 0.031,0.032 0.063,0.062 0.094,0.094 0.188,0.189 0.373,0.376 0.563,0.563 0.142,0.15 0.294,0.289 0.438,0.438 0.186,0.187 0.375,0.377 0.563,0.563 0.328,0.334 0.666,0.671 1,1 0.188,0.179 0.373,0.354 0.563,0.531 0.015,0.016 0.016,0.047 0.031,0.063 0.24,0.24 0.475,0.481 0.719,0.719 0.332,0.334 0.662,0.67 1,1 0.332,0.334 0.662,0.67 1,1 0.031,0.032 0.063,0.062 0.094,0.094 0.188,0.189 0.373,0.376 0.563,0.563 0.142,0.15 0.294,0.289 0.438,0.438 0.186,0.187 0.375,0.377 0.563,0.563 0.142,0.15 0.294,0.289 0.438,0.438 0.186,0.187 0.375,0.377 0.563,0.563 0.188,0.179 0.373,0.354 0.563,0.531 0.015,0.016 0.016,0.047 0.031,0.063 0.24,0.24 0.475,0.481 0.719,0.719 0.332,0.334 0.662,0.67 1,1 0.332,0.334 0.662,0.67 1,1 0.031,0.032 0.063,0.062 0.094,0.094 0.188,0.189 0.373,0.376 0.563,0.563 0.142,0.15 0.294,0.289 0.438,0.438 0.186,0.187 0.375,0.377 0.563,0.563 0.142,0.15 0.294,0.289 0.438,0.438 0.186,0.187 0.375,0.377 0.563,0.563 0.538,0.548 1.071,1.09 1.625,1.625 0.229,0.229 0.456,0.461 0.688,0.688 0.332,0.334 0.662,0.67 1,1 0.031,0.032 0.063,0.062 0.094,0.094 0.188,0.189 0.373,0.376 0.563,0.563 0.142,0.15 0.294,0.289 0.438,0.438 0.186,0.187 0.375,0.377 0.563,0.563 0.142,0.15 0.294,0.289 0.438,0.438 0.186,0.187 0.375,0.377 0.563,0.563 0.328,0.334 0.666,0.671 1,1 0.188,0.179 0.373,0.354 0.563,0.531 0.015,0.016 0.016,0.047 0.031,0.063 0.239,0.239 0.476,0.482 0.719,0.719 0.332,0.334 0.662,0.67 1,1 0.332,0.334 0.662,0.67 1,1 0.031,0.032 0.063,0.062 0.094,0.094 0.188,0.189 0.373,0.376 0.563,0.563 0.142,0.15 0.294,0.289 0.438,0.438 0.186,0.187 0.375,0.377 0.563,0.563 0.328,0.334 0.666,0.671 1,1 0.188,0.179 0.373,0.354 0.563,0.531 0.015,0.016 0.016,0.047 0.031,0.063 0.24,0.24 0.475,0.481 0.719,0.719 0.332,0.334 0.662,0.67 1,1 0.332,0.334 0.662,0.67 1,1 0.031,0.032 0.063,0.062 0.094,0.094 0.188,0.189 0.373,0.376 0.563,0.563 0.142,0.15 0.294,0.289 0.438,0.438 0.186,0.187 0.375,0.377 0.563,0.563 0.142,0.15 0.294,0.289 0.438,0.438 0.186,0.187 0.375,0.377 0.563,0.563 0.538,0.548 1.071,1.09 1.625,1.625 0.229,0.229 0.456,0.461 0.688,0.688 0.332,0.334 0.662,0.67 1,1 0.031,0.032 0.063,0.062 0.094,0.094 0.188,0.189 0.373,0.376 0.563,0.563 0.142,0.15 0.294,0.289 0.438,0.438 0.186,0.187 0.375,0.377 0.563,0.563 0.142,0.15 0.294,0.289 0.438,0.438 0.186,0.187 0.375,0.377 0.563,0.563 0.512,0.522 1.036,1.021 1.563,1.531 0.015,0.016 0.016,0.047 0.031,0.063 0.239,0.239 0.476,0.482 0.719,0.719 0.332,0.334 0.662,0.67 1,1 0.031,0.032 0.063,0.062 0.094,0.094 0.188,0.189 0.373,0.376 0.563,0.563 0.142,0.15 0.294,0.289 0.438,0.438 0.186,0.187 0.375,0.377 0.563,0.563 0.142,0.15 0.294,0.289 0.438,0.438 0.186,0.187 0.375,0.377 0.563,0.563 0.328,0.334 0.666,0.671 1,1 0.188,0.179 0.373,0.354 0.563,0.531 0.015,0.016 0.016,0.047 0.031,0.063 0.24,0.24 0.475,0.481 0.719,0.719 0.332,0.334 0.662,0.67 1,1 0.332,0.334 0.662,0.67 1,1 0.031,0.032 0.063,0.062 0.094,0.094 0.188,0.189 0.373,0.376 0.563,0.563 0.142,0.15 0.294,0.289 0.438,0.438 0.186,0.187 0.375,0.377 0.563,0.563 0.142,0.15 0.294,0.289 0.438,0.438 0.186,0.187 0.375,0.377 0.563,0.563 0.188,0.179 0.373,0.354 0.563,0.531 0.015,0.016 0.016,0.047 0.031,0.063 0.24,0.24 0.475,0.481 0.719,0.719 0.332,0.334 0.662,0.67 1,1 0.332,0.334 0.662,0.67 1,1 0.031,0.032 0.063,0.062 0.094,0.094 0.188,0.189 0.373,0.376 0.563,0.563 0.142,0.15 0.294,0.289 0.438,0.438 0.186,0.187 0.375,0.377 0.563,0.563 0.142,0.15 0.294,0.289 0.438,0.438 0.186,0.187 0.375,0.377 0.563,0.563 0.538,0.548 1.071,1.09 1.625,1.625 0.229,0.229 0.456,0.461 0.688,0.688 0.332,0.334 0.662,0.67 1,1 0.031,0.032 0.063,0.062 0.094,0.094 0.188,0.189 0.373,0.376 0.563,0.563 0.142,0.15 0.294,0.289 0.438,0.438 0.186,0.187 0.375,0.377 0.563,0.563 0.142,0.15 0.294,0.289 0.438,0.438 0.186,0.187 0.375,0.377 0.563,0.563 0.512,0.522 1.036,1.021 1.563,1.531 0.015,0.016 0.016,0.047 0.031,0.063 0.239,0.239 0.476,0.482 0.719,0.719 0.332,0.334 0.662,0.67 1,1 0.332,0.334 0.662,0.67 1,1 0.031,0.032 0.063,0.062 0.094,0.094 0.188,0.189 0.373,0.376 0.563,0.563 0.142,0.15 0.294,0.289 0.438,0.438 0.186,0.187 0.375,0.377 0.563,0.563 0.328,0.334 0.666,0.671 1,1 0.188,0.179 0.373,0.354 0.563,0.531 0.015,0.016 0.016,0.047 0.031,0.063 0.24,0.24 0.475,0.481 0.719,0.719 0.332,0.334 0.662,0.67 1,1 0.332,0.334 0.662,0.67 1,1 0.031,0.032 0.063,0.062 0.094,0.094 0.188,0.189 0.373,0.376 0.563,0.563 0.142,0.15 0.294,0.289 0.438,0.438 0.186,0.187 0.375,0.377 0.563,0.563 0.061,0.064 0.124,0.126 0.188,0.188 38.795,-6.13 74.19,-22.472 103.38,-46.16 l -0.188,-0.438 c -0.002,0.003 -0.243,0.419 -0.313,0.531 -0.15,-0.341 -0.688,-1.531 -0.688,-1.531 -0.002,0.003 -0.243,0.419 -0.313,0.531 l -0.688,-1.531 -0.313,0.5 c -0.139,-0.315 -0.656,-1.469 -0.656,-1.469 -0.002,0.003 -0.243,0.419 -0.313,0.531 -0.15,-0.341 -0.688,-1.531 -0.688,-1.531 -0.002,0.003 -0.243,0.419 -0.313,0.531 -0.15,-0.341 -0.688,-1.531 -0.688,-1.531 l -0.313,0.531 c -0.15,-0.341 -0.688,-1.531 -0.688,-1.531 l -0.313,0.531 c -0.15,-0.341 -0.688,-1.531 -0.688,-1.531 -0.002,0.003 -0.243,0.419 -0.313,0.531 -0.15,-0.341 -0.688,-1.531 -0.688,-1.531 -0.002,0.003 -0.243,0.419 -0.313,0.531 -0.15,-0.341 -0.688,-1.531 -0.688,-1.531 l -0.313,0.5 c -0.139,-0.315 -0.656,-1.469 -0.656,-1.469 l -0.313,0.531 c -0.15,-0.341 -0.688,-1.531 -0.688,-1.531 -0.002,0.003 -0.243,0.419 -0.313,0.531 -0.15,-0.34 -0.688,-1.531 -0.688,-1.531 -0.002,0.003 -0.243,0.419 -0.313,0.531 -0.15,-0.34 -0.688,-1.531 -0.688,-1.531 -0.002,0.003 -0.243,0.419 -0.313,0.531 -0.15,-0.34 -0.688,-1.531 -0.688,-1.531 -0.002,0.003 -0.243,0.419 -0.313,0.531 -0.15,-0.34 -0.688,-1.531 -0.688,-1.531 -0.002,0.003 -0.249,0.396 -0.313,0.5 -0.139,-0.315 -0.656,-1.469 -0.656,-1.469 -0.002,0.003 -0.243,0.419 -0.313,0.531 -0.15,-0.34 -0.688,-1.531 -0.688,-1.531 -0.002,0.003 -0.243,0.419 -0.313,0.531 l -0.688,-1.531 c -0.002,0.003 -0.243,0.419 -0.313,0.531 -0.15,-0.34 -0.688,-1.531 -0.688,-1.531 -0.002,0.003 -0.243,0.418 -0.313,0.531 l -0.688,-1.531 c -0.002,0.003 -0.243,0.418 -0.313,0.531 -0.15,-0.34 -0.688,-1.531 -0.688,-1.531 -0.002,0.003 -0.249,0.396 -0.313,0.5 l -0.656,-1.469 -0.313,0.531 c -0.116,-0.264 -0.502,-1.121 -0.531,-1.188 0.729,-0.441 1.469,-0.84 2.188,-1.219 0.612,-0.322 1.259,-0.637 1.906,-0.938 0.288,0.288 0.588,0.598 0.875,0.875 0.452,0.454 0.894,0.916 1.344,1.344 0.262,0.26 0.52,0.53 0.781,0.781 0.329,0.329 0.672,0.654 1,0.969 0.073,0.076 0.146,0.144 0.219,0.219 0.062,0.062 0.125,0.126 0.188,0.188 0.074,0.079 0.145,0.172 0.219,0.25 0.121,0.118 0.254,0.227 0.375,0.344 0.166,0.166 0.335,0.338 0.5,0.5 0.045,0.047 0.08,0.109 0.125,0.156 0.072,0.07 0.147,0.149 0.219,0.219 0.329,0.331 0.672,0.683 1,1 0.452,0.454 0.894,0.916 1.344,1.344 0.262,0.26 0.52,0.53 0.781,0.781 0.334,0.334 0.668,0.681 1,1 0.329,0.329 0.672,0.654 1,0.969 0.166,0.166 0.335,0.338 0.5,0.5 0.045,0.047 0.08,0.109 0.125,0.156 0.072,0.07 0.147,0.149 0.219,0.219 0.329,0.331 0.672,0.683 1,1 0.063,0.065 0.125,0.123 0.188,0.188 0.313,0.313 0.625,0.638 0.938,0.938 0.438,0.438 0.877,0.869 1.313,1.281 0.073,0.075 0.146,0.145 0.219,0.219 0.039,0.041 0.086,0.084 0.125,0.125 0.121,0.118 0.223,0.259 0.344,0.375 0.329,0.329 0.672,0.654 1,0.969 0.166,0.166 0.335,0.338 0.5,0.5 0.045,0.047 0.08,0.109 0.125,0.156 0.072,0.07 0.147,0.149 0.219,0.219 0.329,0.331 0.672,0.683 1,1 0.329,0.331 0.672,0.683 1,1 0.452,0.454 0.894,0.916 1.344,1.344 0.262,0.26 0.52,0.53 0.781,0.781 0.125,0.125 0.247,0.251 0.375,0.375 41.658,-35.23 69.964,-85.73 76.28,-142.87 -0.011,-0.011 -0.02,-0.021 -0.031,-0.031 -0.254,-0.259 -0.515,-0.519 -0.781,-0.781 -0.322,-0.332 -0.658,-0.663 -1,-1 -0.469,-0.483 -0.959,-0.975 -1.469,-1.469 -0.321,-0.323 -0.662,-0.673 -1,-1 -0.318,-0.321 -0.633,-0.675 -0.969,-1 -0.197,-0.198 -0.421,-0.393 -0.625,-0.594 -0.363,-0.372 -0.737,-0.746 -1.125,-1.125 -0.254,-0.259 -0.515,-0.519 -0.781,-0.781 -0.469,-0.483 -0.959,-0.975 -1.469,-1.469 -0.321,-0.323 -0.662,-0.673 -1,-1 -0.318,-0.321 -0.633,-0.675 -0.969,-1 -0.197,-0.198 -0.421,-0.393 -0.625,-0.594 -0.363,-0.372 -0.737,-0.746 -1.125,-1.125 -0.254,-0.259 -0.515,-0.519 -0.781,-0.781 -0.469,-0.483 -0.959,-0.975 -1.469,-1.469 -0.19,-0.192 -0.397,-0.4 -0.594,-0.594 -0.049,-0.047 -0.107,-0.078 -0.156,-0.125 -0.089,-0.087 -0.16,-0.194 -0.25,-0.281 -0.318,-0.321 -0.633,-0.675 -0.969,-1 -0.197,-0.198 -0.421,-0.393 -0.625,-0.594 -0.363,-0.372 -0.737,-0.746 -1.125,-1.125 -0.254,-0.259 -0.515,-0.519 -0.781,-0.781 -0.469,-0.483 -0.959,-0.975 -1.469,-1.469 -0.19,-0.192 -0.397,-0.4 -0.594,-0.594 -0.049,-0.047 -0.107,-0.078 -0.156,-0.125 -0.089,-0.087 -0.16,-0.194 -0.25,-0.281 -0.318,-0.321 -0.633,-0.675 -0.969,-1 -0.235,-0.237 -0.505,-0.479 -0.75,-0.719 -0.011,-0.01 -0.021,-0.021 -0.031,-0.031 -0.078,-0.076 -0.14,-0.173 -0.219,-0.25 -0.238,-0.239 -0.503,-0.477 -0.75,-0.719 -0.254,-0.259 -0.515,-0.519 -0.781,-0.781 -0.322,-0.332 -0.658,-0.663 -1,-1 -0.469,-0.483 -0.959,-0.975 -1.469,-1.469 -0.321,-0.323 -0.662,-0.673 -1,-1 -0.318,-0.321 -0.633,-0.675 -0.969,-1 -0.197,-0.198 -0.421,-0.393 -0.625,-0.594 -0.363,-0.372 -0.737,-0.746 -1.125,-1.125 -0.254,-0.259 -0.515,-0.519 -0.781,-0.781 -0.469,-0.483 -0.959,-0.975 -1.469,-1.469 -0.321,-0.323 -0.662,-0.673 -1,-1 -0.318,-0.321 -0.633,-0.675 -0.969,-1 -0.197,-0.198 -0.421,-0.393 -0.625,-0.594 -0.363,-0.372 -0.737,-0.746 -1.125,-1.125 -0.254,-0.259 -0.515,-0.519 -0.781,-0.781 -0.469,-0.483 -0.959,-0.975 -1.469,-1.469 -0.19,-0.192 -0.397,-0.4 -0.594,-0.594 -0.049,-0.047 -0.107,-0.078 -0.156,-0.125 -0.089,-0.087 -0.16,-0.194 -0.25,-0.281 -0.318,-0.321 -0.633,-0.675 -0.969,-1 -0.197,-0.198 -0.421,-0.393 -0.625,-0.594 -0.363,-0.372 -0.737,-0.746 -1.125,-1.125 -0.254,-0.259 -0.515,-0.519 -0.781,-0.781 -0.322,-0.332 -0.658,-0.663 -1,-1 -0.469,-0.483 -0.959,-0.975 -1.469,-1.469 -0.321,-0.323 -0.662,-0.673 -1,-1 -0.318,-0.321 -0.633,-0.675 -0.969,-1 -0.197,-0.198 -0.421,-0.393 -0.625,-0.594 -0.363,-0.372 -0.737,-0.746 -1.125,-1.125 -0.254,-0.259 -0.515,-0.519 -0.781,-0.781 -0.469,-0.483 -0.959,-0.975 -1.469,-1.469 -0.321,-0.323 -0.662,-0.673 -1,-1 -0.318,-0.321 -0.633,-0.675 -0.969,-1 -0.197,-0.198 -0.421,-0.393 -0.625,-0.594 -0.363,-0.372 -0.737,-0.746 -1.125,-1.125 -0.254,-0.259 -0.515,-0.519 -0.781,-0.781 -0.469,-0.483 -0.959,-0.975 -1.469,-1.469 -0.19,-0.192 -0.397,-0.4 -0.594,-0.594 -0.049,-0.047 -0.107,-0.078 -0.156,-0.125 -0.089,-0.087 -0.16,-0.194 -0.25,-0.281 -0.318,-0.321 -0.633,-0.675 -0.969,-1 -0.197,-0.198 -0.421,-0.393 -0.625,-0.594 -0.363,-0.372 -0.737,-0.746 -1.125,-1.125 -0.254,-0.259 -0.515,-0.519 -0.781,-0.781 -0.469,-0.483 -0.959,-0.975 -1.469,-1.469 -0.19,-0.192 -0.397,-0.4 -0.594,-0.594 -0.049,-0.047 -0.107,-0.078 -0.156,-0.125 -0.089,-0.087 -0.16,-0.194 -0.25,-0.281 -0.318,-0.321 -0.633,-0.675 -0.969,-1 -0.235,-0.237 -0.505,-0.479 -0.75,-0.719 -0.011,-0.01 -0.021,-0.021 -0.031,-0.031 -0.078,-0.076 -0.14,-0.173 -0.219,-0.25 -0.197,-0.198 -0.421,-0.393 -0.625,-0.594 -0.011,-0.011 -0.021,-0.02 -0.031,-0.031 -0.033,-0.031 -0.061,-0.063 -0.094,-0.094 -0.324,-0.33 -0.657,-0.665 -1,-1 -0.254,-0.259 -0.515,-0.519 -0.781,-0.781 -0.469,-0.483 -0.959,-0.975 -1.469,-1.469 -0.321,-0.323 -0.662,-0.673 -1,-1 -0.318,-0.321 -0.633,-0.675 -0.969,-1 -0.197,-0.198 -0.421,-0.393 -0.625,-0.594 -0.363,-0.372 -0.737,-0.746 -1.125,-1.125 -0.254,-0.259 -0.515,-0.519 -0.781,-0.781 -0.469,-0.483 -0.959,-0.975 -1.469,-1.469 -0.19,-0.192 -0.397,-0.4 -0.594,-0.594 -0.049,-0.047 -0.107,-0.078 -0.156,-0.125 -0.089,-0.087 -0.16,-0.194 -0.25,-0.281 -0.318,-0.321 -0.633,-0.675 -0.969,-1 -0.197,-0.198 -0.421,-0.393 -0.625,-0.594 -0.363,-0.372 -0.737,-0.746 -1.125,-1.125 -0.254,-0.259 -0.515,-0.519 -0.781,-0.781 -0.469,-0.483 -0.959,-0.975 -1.469,-1.469 -0.19,-0.192 -0.397,-0.4 -0.594,-0.594 -0.049,-0.047 -0.107,-0.078 -0.156,-0.125 -0.089,-0.087 -0.16,-0.194 -0.25,-0.281 -0.318,-0.321 -0.633,-0.675 -0.969,-1 -0.197,-0.198 -0.421,-0.393 -0.625,-0.594 -0.363,-0.372 -0.737,-0.746 -1.125,-1.125 -0.254,-0.259 -0.515,-0.519 -0.781,-0.781 -0.322,-0.332 -0.658,-0.663 -1,-1 -0.469,-0.483 -0.959,-0.975 -1.469,-1.469 -0.321,-0.323 -0.662,-0.673 -1,-1 -5.559,-5.597 -13.881,-12.02 -18.813,-13.75 -18.627,-6.551 -39.706,-2.141 -51.906,10.844 -8.475,9.02 -11.825,17.876 -11.813,31.09 0.009,8.154 1.366,14.952 4.531,20.906 -0.296,-0.297 -0.602,-0.609 -0.906,-0.906 -0.081,-0.082 -0.168,-0.168 -0.25,-0.25 -0.558,-0.575 -1.132,-1.177 -1.719,-1.75 -0.328,-0.33 -0.662,-0.67 -1,-1 -0.328,-0.33 -0.662,-0.67 -1,-1 -0.328,-0.33 -0.662,-0.67 -1,-1 -0.323,-0.325 -0.667,-0.644 -1,-0.969 -0.02,-0.02 -0.042,-0.042 -0.063,-0.063 -0.053,-0.052 -0.103,-0.105 -0.156,-0.156 -0.568,-0.586 -1.152,-1.198 -1.75,-1.781 -0.328,-0.33 -0.662,-0.67 -1,-1 -0.328,-0.33 -0.662,-0.67 -1,-1 -0.328,-0.33 -0.662,-0.67 -1,-1 -0.323,-0.325 -0.667,-0.644 -1,-0.969 -0.031,-0.031 -0.063,-0.063 -0.094,-0.094 -0.042,-0.041 -0.082,-0.084 -0.125,-0.125 -0.568,-0.586 -1.152,-1.198 -1.75,-1.781 -0.328,-0.33 -0.662,-0.67 -1,-1 -0.328,-0.33 -0.662,-0.67 -1,-1 -0.328,-0.33 -0.662,-0.67 -1,-1 -0.323,-0.325 -0.667,-0.644 -1,-0.969 -0.28,-0.281 -0.588,-0.562 -0.875,-0.844 -0.049,-0.047 -0.076,-0.11 -0.125,-0.156 -0.071,-0.072 -0.147,-0.147 -0.219,-0.219 -0.568,-0.586 -1.152,-1.198 -1.75,-1.781 -0.328,-0.33 -0.662,-0.67 -1,-1 -0.328,-0.33 -0.662,-0.67 -1,-1 -0.323,-0.325 -0.667,-0.644 -1,-0.969 -0.031,-0.031 -0.063,-0.063 -0.094,-0.094 -0.138,-0.134 -0.267,-0.272 -0.406,-0.406 -0.165,-0.164 -0.332,-0.336 -0.5,-0.5 -0.071,-0.072 -0.147,-0.147 -0.219,-0.219 -0.568,-0.586 -1.152,-1.198 -1.75,-1.781 -0.328,-0.33 -0.662,-0.67 -1,-1 -0.328,-0.33 -0.662,-0.67 -1,-1 -0.328,-0.33 -0.662,-0.67 -1,-1 -0.323,-0.325 -0.667,-0.644 -1,-0.969 -0.02,-0.02 -0.042,-0.042 -0.063,-0.063 -0.053,-0.052 -0.103,-0.105 -0.156,-0.156 -0.568,-0.586 -1.152,-1.198 -1.75,-1.781 -0.328,-0.33 -0.662,-0.67 -1,-1 -0.328,-0.33 -0.662,-0.67 -1,-1 -0.328,-0.33 -0.662,-0.67 -1,-1 -0.323,-0.325 -0.667,-0.644 -1,-0.969 -0.031,-0.031 -0.063,-0.063 -0.094,-0.094 -0.042,-0.041 -0.082,-0.084 -0.125,-0.125 -0.568,-0.586 -1.152,-1.198 -1.75,-1.781 -0.328,-0.33 -0.662,-0.67 -1,-1 -0.328,-0.33 -0.662,-0.67 -1,-1 -0.328,-0.33 -0.662,-0.67 -1,-1 -0.698,-0.701 -1.412,-1.388 -2.156,-2.094 -16.757,-15.879 -38.03,-23.13 -59.06,-22.656"
     inkscape:connector-curvature="0"
     id="path6"
     style="fill-opacity:0.23500001" />
  <g
     id="g8"
     style="fill-rule:evenodd">
    <path
       d="M 256,1 C 115.17,1 1,115.17 1,256 1,396.83 115.17,511 256,511 396.83,511 511,396.83 511,256 511,115.17 396.83,1 256,1 m 8.827,44.931 c 120.9,0 218.9,98 218.9,218.9 0,120.9 -98,218.9 -218.9,218.9 -120.9,0 -218.93,-98 -218.93,-218.9 0,-120.9 98.03,-218.9 218.93,-218.9"
       inkscape:connector-curvature="0"
       id="path10"
       style="fill-opacity:0.06700003" />
    <g
       id="g12"
       style="fill-opacity:0.12900002">
      <path
         d="m 256,4.433 c -138.94,0 -251.57,112.63 -251.57,251.57 0,138.94 112.63,251.57 251.57,251.57 138.94,0 251.57,-112.63 251.57,-251.57 C 507.57,117.063 394.94,4.433 256,4.433 m 5.885,38.556 c 120.9,0 218.9,98 218.9,218.9 0,120.9 -98,218.9 -218.9,218.9 -120.9,0 -218.93,-98 -218.93,-218.9 0,-120.9 98.03,-218.9 218.93,-218.9"
         inkscape:connector-curvature="0"
         id="path14" />
      <path
         d="m 256,8.356 c -136.77,0 -247.64,110.87 -247.64,247.64 0,136.77 110.87,247.64 247.64,247.64 136.77,0 247.64,-110.87 247.64,-247.64 C 503.64,119.226 392.77,8.356 256,8.356 m 2.942,31.691 c 120.9,0 218.9,98 218.9,218.9 0,120.9 -98,218.9 -218.9,218.9 -120.9,0 -218.93,-98 -218.93,-218.9 0,-120.9 98.03,-218.9 218.93,-218.9"
         inkscape:connector-curvature="0"
         id="path16" />
    </g>
    <path
       d="m 253.04,7.859 c -135.42,0 -245.19,109.78 -245.19,245.19 0,135.42 109.78,245.19 245.19,245.19 135.42,0 245.19,-109.78 245.19,-245.19 0,-135.42 -109.78,-245.19 -245.19,-245.19 z m 0,26.297 c 120.9,0 218.9,98 218.9,218.9 0,120.9 -98,218.9 -218.9,218.9 -120.9,0 -218.93,-98 -218.93,-218.9 0,-120.9 98.03,-218.9 218.93,-218.9 z"
       inkscape:connector-curvature="0"
       id="path18"
       style="fill:#ffffff;stroke:#000000;stroke-width:4.90399981;stroke-opacity:0.31000001" />
  </g>
  <text
     x="729.64001"
     y="231.36"
     id="text20"
     style="font-size:129.22999573px;line-height:125%;letter-spacing:0;word-spacing:0;font-family:Gentium Book Basic">
    <tspan
       x="729.64001"
       y="231.36"
       id="tspan22" />
  </text>
  <text
     x="378.91"
     y="579.25"
     transform="scale(4.0128,0.2492)"
     id="text24"
     style="font-size:46.95399857px;text-anchor:middle;font-family:Arial" />
  <text
     x="1310.91"
     y="151.36"
     id="text26"
     style="font-size:129.22999573px;line-height:125%;letter-spacing:0;word-spacing:0;font-family:Gentium Book Basic">
    <tspan
       x="1310.91"
       y="151.36"
       id="tspan28" />
  </text>
  <text
     x="523.76001"
     y="258.22"
     transform="scale(4.0128,0.2492)"
     id="text30"
     style="font-size:46.95399857px;text-anchor:middle;font-family:Arial" />
  <text
     x="239.33"
     y="-29.900999"
     id="text32"
     style="font-size:129.22999573px;line-height:125%;letter-spacing:0;word-spacing:0;font-family:Gentium Book Basic">
    <tspan
       x="239.33"
       y="-29.900999"
       id="tspan34" />
  </text>
  <text
     x="256.72"
     y="-469.14001"
     transform="scale(4.0128,0.2492)"
     id="text36"
     style="font-size:46.95399857px;text-anchor:middle;font-family:Arial" />
  <text
     x="1337.38"
     y="-246.37"
     id="text38"
     style="font-size:129.22999573px;line-height:125%;letter-spacing:0;word-spacing:0;font-family:Gentium Book Basic">
    <tspan
       x="1337.38"
       y="-246.37"
       id="tspan40" />
  </text>
  <text
     x="530.35999"
     y="-1337.8101"
     transform="scale(4.0128,0.2492)"
     id="text42"
     style="font-size:46.95399857px;text-anchor:middle;font-family:Arial" />
  <text
     x="1918.65"
     y="-326.38"
     id="text44"
     style="font-size:129.22999573px;line-height:125%;letter-spacing:0;word-spacing:0;font-family:Gentium Book Basic">
    <tspan
       x="1918.65"
       y="-326.38"
       id="tspan46" />
  </text>
  <text
     x="675.21002"
     y="-1658.85"
     transform="scale(4.0128,0.2492)"
     id="text48"
     style="font-size:46.95399857px;text-anchor:middle;font-family:Arial" />
  <text
     x="1529.53"
     y="-798.78003"
     id="text50"
     style="font-size:129.22999573px;line-height:125%;letter-spacing:0;word-spacing:0;font-family:Gentium Book Basic">
    <tspan
       x="1529.53"
       y="-798.78003"
       id="tspan52" />
  </text>
  <text
     x="578.23999"
     y="-3554.51"
     transform="scale(4.0128,0.2492)"
     id="text54"
     style="font-size:46.95399857px;text-anchor:middle;font-family:Arial" />
  <text
     x="2110.79"
     y="-878.78003"
     id="text56"
     style="font-size:129.22999573px;line-height:125%;letter-spacing:0;word-spacing:0;font-family:Gentium Book Basic">
    <tspan
       x="2110.79"
       y="-878.78003"
       id="tspan58" />
  </text>
  <text
     x="723.09003"
     y="-3875.54"
     transform="scale(4.0128,0.2492)"
     id="text60"
     style="font-size:46.95399857px;text-anchor:middle;font-family:Arial" />
  <text
     x="277.98999"
     y="535.94"
     id="text62"
     style="font-size:208.33000183px;line-height:125%;letter-spacing:0;word-spacing:0;font-family:Gentium Book Basic">
    <tspan
       x="277.98999"
       y="535.94"
       id="tspan64" />
  </text>
  <path
     d="m 196.84,167.16 c -30.737,0.695 -60.97,17.902 -75.906,48.719 -21.992,45.38 -3.743,99.23 40.906,120.66 6.847,3.286 17.15,6.645 22.906,7.438 20.507,2.825 39.624,-1.049 56.28,-11.375 10.956,-6.791 22.906,-17.797 22.906,-21.09 0,-1.116 -2.364,-7.458 -5.281,-14.09 l -5.313,-12.06 -2.688,4.375 c -5.162,8.44 -17.824,19.75 -27.25,24.313 -8.18,3.959 -11.763,4.594 -25.625,4.594 -14.385,0 -17.229,-0.553 -26.25,-5.125 -12.519,-6.345 -23.858,-18.12 -29.625,-30.781 -3.805,-8.354 -4.375,-11.967 -4.375,-27.16 0,-15.896 0.458,-18.467 4.969,-27.656 5.51,-11.226 17.251,-23.537 27.625,-29 10.756,-5.664 27.21,-7.976 38.969,-5.469 23.293,4.967 37.3,17.597 48.19,43.47 26.26,62.41 34.461,79.51 42.531,88.63 12.01,13.57 21.659,17.497 43.06,17.531 15.05,0.024 18.12,-0.531 27.344,-4.906 20.256,-9.613 30.388,-25.882 30.16,-48.44 -0.268,-26.16 -11.141,-37.411 -48.19,-49.906 -26.835,-9.05 -32.25,-13.555 -32.25,-26.75 0,-13.23 8.467,-21.438 22.09,-21.438 7.879,0 12.364,1.958 18.969,8.313 3.249,3.124 5.667,4.098 8.469,3.344 5.346,-1.44 14.969,-7.706 14.969,-9.75 0,-4.222 -16.609,-18.975 -24.5,-21.75 -18.628,-6.552 -39.706,-2.141 -51.906,10.844 -8.476,9.02 -11.825,17.876 -11.813,31.09 0.027,24.638 12.249,37.01 50.03,50.563 24.812,8.902 29.688,13.362 29.688,27.16 0,16.37 -13.507,28.06 -32.469,28.06 -11.589,0 -17.607,-2.111 -24.09,-8.438 -6.086,-5.936 -9.574,-13.04 -28.313,-57.656 -17.914,-42.652 -23.24,-52.31 -35.16,-63.59 -16.757,-15.879 -38.03,-23.13 -59.06,-22.656"
     inkscape:connector-curvature="0"
     id="path66"
     style="fill:#ffffff" />
</svg>
