<?xml version="1.0" encoding="UTF-8" standalone="no"?>
<!-- Created with Inkscape (http://www.inkscape.org/) -->

<svg
   xmlns:dc="http://purl.org/dc/elements/1.1/"
   xmlns:cc="http://creativecommons.org/ns#"
   xmlns:rdf="http://www.w3.org/1999/02/22-rdf-syntax-ns#"
   xmlns:svg="http://www.w3.org/2000/svg"
   xmlns="http://www.w3.org/2000/svg"
   xmlns:inkscape="http://www.inkscape.org/namespaces/inkscape"
   version="1.1"
   width="100%"
   height="100%"
   viewBox="0 0 512 512"
   id="svg2">
  <metadata
     id="metadata86">
    <rdf:RDF>
      <cc:Work
         rdf:about="">
        <dc:format>image/svg+xml</dc:format>
        <dc:type
           rdf:resource="http://purl.org/dc/dcmitype/StillImage" />
      </cc:Work>
    </rdf:RDF>
  </metadata>
  <defs
     id="defs84" />
  <path
     d="m 471.95,253.05 c 0,120.9 -98.01,218.9 -218.9,218.9 -120.9,0 -218.9,-98.01 -218.9,-218.9 0,-120.9 98.01,-218.9 218.9,-218.9 120.9,0 218.9,98.01 218.9,218.9"
     inkscape:connector-curvature="0"
     id="path4"
     style="fill:#ff9955;fill-rule:evenodd" />
  <path
     d="m 115.59,148 v 64.781 h 1 v 1 h 1 v 1 h 1 v 1 h 0.969 v 0.969 h 1 v 1 h 1 v 1 h 1 v 1 h 1 v 1 h 1 v 1 h 0.969 v 0.969 h 1 v 1 h 1 v 1 h 1 v 1 h 1 v 1 h 1 v 1 h 0.969 v 0.969 h 1 v 1 h 1 v 1 h 1 v 1 h 1 v 1 h 1 v 1 h 0.969 v 0.969 h 1 v 1 h 1 v 1 h 1 v 1 h 1 v 1 h 1 v 1 h 1 v 1 h 0.969 v 0.969 h 1 v 1 h 1 v 1 h 1 v 1 h 1 v 0.563 h -32.844 v 64.813 h 1 v 1 h 1 v 1 h 1 v 1 h 0.969 v 0.969 h 1 v 1 h 1 v 1 h 1 v 1 h 1 v 1 h 1 v 1 h 0.969 v 0.969 h 1 v 1 h 1 v 1 h 1 v 1 h 1 v 1 h 1 v 1 h 0.969 v 0.969 h 1 v 1 h 1 v 1 h 1 v 1 h 1 v 1 h 1 v 1 h 0.969 v 0.969 h 1 v 1 h 1 v 1 h 1 v 1 h 1 v 1 h 1 v 1 h 1 v 1 h 0.969 v 0.969 h 1 v 1 h 1 v 1 h 1 v 1 h 1 v 0.563 h -32.844 v 21.594 h 1 v 1 h 1 v 1 h 1 v 1 h 0.969 v 0.969 h 1 v 1 h 1 v 1 h 1 v 1 h 1 v 1 h 1 v 1 h 0.969 v 0.969 h 1 v 1 h 1 v 1 h 1 v 1 h 1 v 1 h 1 v 1 h 0.969 v 0.969 h 1 v 1 h 1 v 1 h 1 v 1 h 1 v 1 h 1 v 1 h 0.969 v 0.969 h 1 v 1 h 1 v 1 h 1 v 1 h 1 v 1 h 1 v 1 h 1 v 1 h 0.969 v 0.969 h 1 v 1 h 1 v 1 h 1 v 1 h 1 v 1 h 1 v 1 h 0.969 v 0.969 h 1 v 1 h 1 v 1 h 1 v 1 h 1 v 1 h 1 v 1 h 0.969 v 0.969 h 1 v 1 h 1 v 1 h 1 v 1 h 1 v 1 h 1 v 1 h 1 v 1 h 0.969 v 0.969 h 1 v 1 h 1 v 1 h 1 v 1 h 1 v 1 h 1 v 1 h 0.969 v 0.969 h 1 v 1 h 1 v 1 h 1 v 1 h 1 v 1 h 1 v 1 h 0.969 v 0.969 h 1 v 1 h 1 v 1 h 1 v 1 h 1 v 1 h 1 v 1 h 0.969 v 0.969 h 1 v 1 h 1 v 1 h 1 v 1 h 1 v 1 h 1 v 1 h 1 v 1 h 0.969 v 0.969 h 1 v 1 h 1 v 1 h 1 v 1 h 1 v 1 h 1 v 1 h 0.969 v 0.969 h 1 v 1 h 1 v 1 h 1 v 1 h 1 v 1 h 1 v 1 h 0.969 v 0.969 h 1 v 1 h 1 v 1 h 1 v 1 h 1 v 1 h 1 v 1 h 1 v 1 h 0.969 v 0.969 h 1 v 1 h 1 v 1 h 1 v 1 h 1 v 1 h 1 v 1 h 0.969 v 0.969 h 1 v 1 h 1 v 1 h 1 v 1 h 1 v 1 h 1 v 1 h 0.969 v 0.969 h 1 v 1 h 1 v 1 h 1 v 0.281 c 10.124,1.435 20.448,2.219 30.969,2.219 116.1,0 211.08,-90.39 218.44,-204.62 -0.063,-0.062 -0.124,-0.126 -0.188,-0.188 -0.346,-0.352 -0.71,-0.686 -1.063,-1.031 -0.29,-0.294 -0.581,-0.585 -0.875,-0.875 -0.247,-0.252 -0.5,-0.502 -0.75,-0.75 -0.59,-0.609 -1.171,-1.224 -1.781,-1.813 -0.167,-0.167 -0.332,-0.335 -0.5,-0.5 -0.33,-0.337 -0.663,-0.67 -1,-1 -0.346,-0.352 -0.71,-0.686 -1.063,-1.031 -0.29,-0.294 -0.581,-0.585 -0.875,-0.875 -0.247,-0.252 -0.5,-0.502 -0.75,-0.75 -0.59,-0.609 -1.171,-1.224 -1.781,-1.813 -0.192,-0.192 -0.4,-0.373 -0.594,-0.563 -0.305,-0.31 -0.596,-0.633 -0.906,-0.938 -0.33,-0.337 -0.663,-0.67 -1,-1 -0.346,-0.352 -0.71,-0.686 -1.063,-1.031 -0.147,-0.155 -0.289,-0.315 -0.438,-0.469 -0.057,-0.057 -0.13,-0.099 -0.188,-0.156 -0.59,-0.609 -1.171,-1.224 -1.781,-1.813 -0.192,-0.192 -0.4,-0.373 -0.594,-0.563 -0.305,-0.31 -0.596,-0.633 -0.906,-0.938 -0.33,-0.337 -0.663,-0.67 -1,-1 -0.346,-0.352 -0.71,-0.686 -1.063,-1.031 -0.29,-0.294 -0.581,-0.585 -0.875,-0.875 -0.247,-0.252 -0.5,-0.502 -0.75,-0.75 -0.59,-0.609 -1.171,-1.224 -1.781,-1.813 -0.167,-0.167 -0.332,-0.335 -0.5,-0.5 -0.33,-0.337 -0.663,-0.67 -1,-1 -0.346,-0.352 -0.71,-0.686 -1.063,-1.031 -0.29,-0.294 -0.581,-0.585 -0.875,-0.875 -0.247,-0.252 -0.5,-0.502 -0.75,-0.75 -0.59,-0.609 -1.171,-1.224 -1.781,-1.813 -0.192,-0.192 -0.4,-0.373 -0.594,-0.563 -0.305,-0.31 -0.596,-0.633 -0.906,-0.938 -0.33,-0.337 -0.663,-0.67 -1,-1 -0.346,-0.352 -0.71,-0.686 -1.063,-1.031 -0.147,-0.155 -0.289,-0.315 -0.438,-0.469 -0.057,-0.057 -0.13,-0.099 -0.188,-0.156 -0.59,-0.609 -1.171,-1.224 -1.781,-1.813 -0.192,-0.192 -0.4,-0.373 -0.594,-0.563 -0.305,-0.31 -0.596,-0.633 -0.906,-0.938 -0.33,-0.337 -0.663,-0.67 -1,-1 -0.346,-0.352 -0.71,-0.686 -1.063,-1.031 -0.147,-0.155 -0.289,-0.315 -0.438,-0.469 -0.057,-0.057 -0.13,-0.099 -0.188,-0.156 -0.431,-0.444 -0.839,-0.91 -1.281,-1.344 -0.49,-0.5 -0.996,-0.983 -1.5,-1.469 -0.167,-0.167 -0.332,-0.335 -0.5,-0.5 -0.33,-0.337 -0.663,-0.67 -1,-1 -0.346,-0.352 -0.71,-0.686 -1.063,-1.031 -0.29,-0.294 -0.581,-0.585 -0.875,-0.875 -0.247,-0.252 -0.5,-0.502 -0.75,-0.75 -0.59,-0.609 -1.171,-1.224 -1.781,-1.813 -0.167,-0.167 -0.332,-0.335 -0.5,-0.5 -0.33,-0.337 -0.663,-0.67 -1,-1 -0.346,-0.352 -0.71,-0.686 -1.063,-1.031 -0.29,-0.294 -0.581,-0.585 -0.875,-0.875 -0.247,-0.252 -0.5,-0.502 -0.75,-0.75 -0.59,-0.609 -1.171,-1.224 -1.781,-1.813 -0.192,-0.192 -0.4,-0.373 -0.594,-0.563 -0.305,-0.31 -0.596,-0.633 -0.906,-0.938 -0.33,-0.337 -0.663,-0.67 -1,-1 -0.346,-0.352 -0.71,-0.686 -1.063,-1.031 -0.147,-0.155 -0.289,-0.315 -0.438,-0.469 -0.057,-0.057 -0.13,-0.099 -0.188,-0.156 -0.59,-0.609 -1.171,-1.224 -1.781,-1.813 -0.192,-0.192 -0.4,-0.373 -0.594,-0.563 -0.305,-0.31 -0.596,-0.633 -0.906,-0.938 -0.33,-0.337 -0.663,-0.67 -1,-1 -0.346,-0.352 -0.71,-0.686 -1.063,-1.031 -0.29,-0.294 -0.581,-0.585 -0.875,-0.875 -0.247,-0.252 -0.5,-0.502 -0.75,-0.75 -0.59,-0.609 -1.171,-1.224 -1.781,-1.813 -0.167,-0.167 -0.332,-0.335 -0.5,-0.5 -0.33,-0.337 -0.663,-0.67 -1,-1 -0.346,-0.352 -0.71,-0.686 -1.063,-1.031 -0.29,-0.294 -0.581,-0.585 -0.875,-0.875 -0.247,-0.252 -0.5,-0.502 -0.75,-0.75 -0.59,-0.609 -1.171,-1.224 -1.781,-1.813 -0.192,-0.192 -0.4,-0.373 -0.594,-0.563 -0.305,-0.31 -0.596,-0.633 -0.906,-0.938 -0.33,-0.337 -0.663,-0.67 -1,-1 -0.346,-0.352 -0.71,-0.686 -1.063,-1.031 -0.147,-0.155 -0.289,-0.315 -0.438,-0.469 -0.057,-0.057 -0.13,-0.099 -0.188,-0.156 -0.59,-0.609 -1.171,-1.224 -1.781,-1.813 -0.192,-0.192 -0.4,-0.373 -0.594,-0.563 -0.305,-0.31 -0.596,-0.633 -0.906,-0.938 -0.33,-0.337 -0.663,-0.67 -1,-1 -0.346,-0.352 -0.71,-0.686 -1.063,-1.031 -0.147,-0.155 -0.289,-0.315 -0.438,-0.469 -0.057,-0.057 -0.13,-0.099 -0.188,-0.156 -0.447,-0.46 -0.886,-0.926 -1.344,-1.375 -0.475,-0.483 -0.95,-0.968 -1.438,-1.438 -0.167,-0.167 -0.332,-0.335 -0.5,-0.5 -0.33,-0.337 -0.663,-0.67 -1,-1 -0.346,-0.352 -0.71,-0.686 -1.063,-1.031 -0.29,-0.294 -0.581,-0.585 -0.875,-0.875 -0.247,-0.252 -0.5,-0.502 -0.75,-0.75 -0.59,-0.609 -1.171,-1.224 -1.781,-1.813 -0.167,-0.167 -0.332,-0.335 -0.5,-0.5 -0.33,-0.337 -0.663,-0.67 -1,-1 -0.346,-0.352 -0.71,-0.686 -1.063,-1.031 -0.29,-0.294 -0.581,-0.585 -0.875,-0.875 -0.247,-0.252 -0.5,-0.502 -0.75,-0.75 -13.738,-14.16 -32.957,-22.969 -54.25,-22.969 v 21.719 c -0.295,0 -0.581,0.027 -0.875,0.031 v -1.031 c -0.326,0 -0.644,0.027 -0.969,0.031 v -1 c -0.334,0 -0.667,0.027 -1,0.031 v -1.031 c -0.334,0 -0.667,0.027 -1,0.031 v -1.031 c -0.334,0 -0.667,0.027 -1,0.031 v -1.031 c -0.337,0 -0.664,0.027 -1,0.031 v -1.031 c -0.337,0 -0.664,0.027 -1,0.031 v -1.031 c -0.326,0 -0.644,0.027 -0.969,0.031 v -1 c -0.334,0 -0.667,0.027 -1,0.031 v -1.031 c -0.334,0 -0.667,0.027 -1,0.031 v -1.031 c -0.334,0 -0.667,0.027 -1,0.031 v -1.031 c -26.446,0 -49.71,13.586 -63.22,34.16 v -0.156 h -1 v -1 h -1 v -1 h -1 v -1 h -1 v -1 h -0.969 v -0.969 h -1 v -1 h -1 v -1 h -1 v -1 h -1 v -1 h -1 v -1 h -0.969 v -0.969 h -1 v -1 h -1 v -1 h -1 v -1 h -1 v -1 h -1 v -1 h -0.969 v -0.969 h -1 v -1 h -1 v -1 h -1 v -1 h -1 v -1 h -1 v -1 h -1 v -1 h -0.969 v -0.969 h -1 v -1 h -1 v -1 h -1 v -1 h -1 v -1 h -1 v -1 h -0.969 v -0.969 h -1 v -1 h -1 v -1 h -1 v -1 h -1 v -1 h -1 v -1 h -0.969 v -0.969 h -1 v -1 h -1 v -1 h -1 v -1 h -1 v -1 h -1 v -1 h -0.969 v -0.969 h -1 v -1 h -1 v -1 h -1 v -1 h -86.41"
     inkscape:connector-curvature="0"
     id="path6"
     style="fill-opacity:0.23500001" />
  <g
     id="g8"
     style="fill-rule:evenodd">
    <path
       d="M 256,1 C 115.17,1 1,115.17 1,256 1,396.83 115.17,511 256,511 396.83,511 511,396.83 511,256 511,115.17 396.83,1 256,1 m 8.827,44.931 c 120.9,0 218.9,98 218.9,218.9 0,120.9 -98,218.9 -218.9,218.9 -120.9,0 -218.93,-98 -218.93,-218.9 0,-120.9 98.03,-218.9 218.93,-218.9"
       inkscape:connector-curvature="0"
       id="path10"
       style="fill-opacity:0.06700003" />
    <g
       id="g12"
       style="fill-opacity:0.12900002">
      <path
         d="m 256,4.433 c -138.94,0 -251.57,112.63 -251.57,251.57 0,138.94 112.63,251.57 251.57,251.57 138.94,0 251.57,-112.63 251.57,-251.57 C 507.57,117.063 394.94,4.433 256,4.433 m 5.885,38.556 c 120.9,0 218.9,98 218.9,218.9 0,120.9 -98,218.9 -218.9,218.9 -120.9,0 -218.93,-98 -218.93,-218.9 0,-120.9 98.03,-218.9 218.93,-218.9"
         inkscape:connector-curvature="0"
         id="path14" />
      <path
         d="m 256,8.356 c -136.77,0 -247.64,110.87 -247.64,247.64 0,136.77 110.87,247.64 247.64,247.64 136.77,0 247.64,-110.87 247.64,-247.64 C 503.64,119.226 392.77,8.356 256,8.356 m 2.942,31.691 c 120.9,0 218.9,98 218.9,218.9 0,120.9 -98,218.9 -218.9,218.9 -120.9,0 -218.93,-98 -218.93,-218.9 0,-120.9 98.03,-218.9 218.93,-218.9"
         inkscape:connector-curvature="0"
         id="path16" />
    </g>
    <path
       d="m 253.04,7.859 c -135.42,0 -245.19,109.78 -245.19,245.19 0,135.42 109.78,245.19 245.19,245.19 135.42,0 245.19,-109.78 245.19,-245.19 0,-135.42 -109.78,-245.19 -245.19,-245.19 z m 0,26.297 c 120.9,0 218.9,98 218.9,218.9 0,120.9 -98,218.9 -218.9,218.9 -120.9,0 -218.93,-98 -218.93,-218.9 0,-120.9 98.03,-218.9 218.93,-218.9 z"
       inkscape:connector-curvature="0"
       id="path18"
       style="fill:#ffffff;stroke:#000000;stroke-width:4.90399981;stroke-opacity:0.31000001" />
  </g>
  <text
     x="729.64001"
     y="231.36"
     id="text20"
     style="font-size:129.22999573px;line-height:125%;letter-spacing:0;word-spacing:0;font-family:Gentium Book Basic">
    <tspan
       x="729.64001"
       y="231.36"
       id="tspan22" />
  </text>
  <text
     x="378.91"
     y="579.25"
     transform="scale(4.0128,0.2492)"
     id="text24"
     style="font-size:46.95399857px;text-anchor:middle;font-family:Arial" />
  <text
     x="1310.91"
     y="151.36"
     id="text26"
     style="font-size:129.22999573px;line-height:125%;letter-spacing:0;word-spacing:0;font-family:Gentium Book Basic">
    <tspan
       x="1310.91"
       y="151.36"
       id="tspan28" />
  </text>
  <text
     x="523.76001"
     y="258.22"
     transform="scale(4.0128,0.2492)"
     id="text30"
     style="font-size:46.95399857px;text-anchor:middle;font-family:Arial" />
  <text
     x="239.33"
     y="-29.900999"
     id="text32"
     style="font-size:129.22999573px;line-height:125%;letter-spacing:0;word-spacing:0;font-family:Gentium Book Basic">
    <tspan
       x="239.33"
       y="-29.900999"
       id="tspan34" />
  </text>
  <text
     x="256.72"
     y="-469.14001"
     transform="scale(4.0128,0.2492)"
     id="text36"
     style="font-size:46.95399857px;text-anchor:middle;font-family:Arial" />
  <text
     x="1337.38"
     y="-246.37"
     id="text38"
     style="font-size:129.22999573px;line-height:125%;letter-spacing:0;word-spacing:0;font-family:Gentium Book Basic">
    <tspan
       x="1337.38"
       y="-246.37"
       id="tspan40" />
  </text>
  <text
     x="530.35999"
     y="-1337.8101"
     transform="scale(4.0128,0.2492)"
     id="text42"
     style="font-size:46.95399857px;text-anchor:middle;font-family:Arial" />
  <text
     x="1918.65"
     y="-326.38"
     id="text44"
     style="font-size:129.22999573px;line-height:125%;letter-spacing:0;word-spacing:0;font-family:Gentium Book Basic">
    <tspan
       x="1918.65"
       y="-326.38"
       id="tspan46" />
  </text>
  <text
     x="675.21002"
     y="-1658.85"
     transform="scale(4.0128,0.2492)"
     id="text48"
     style="font-size:46.95399857px;text-anchor:middle;font-family:Arial" />
  <text
     x="1529.53"
     y="-798.78003"
     id="text50"
     style="font-size:129.22999573px;line-height:125%;letter-spacing:0;word-spacing:0;font-family:Gentium Book Basic">
    <tspan
       x="1529.53"
       y="-798.78003"
       id="tspan52" />
  </text>
  <text
     x="578.23999"
     y="-3554.51"
     transform="scale(4.0128,0.2492)"
     id="text54"
     style="font-size:46.95399857px;text-anchor:middle;font-family:Arial" />
  <text
     x="2110.79"
     y="-878.78003"
     id="text56"
     style="font-size:129.22999573px;line-height:125%;letter-spacing:0;word-spacing:0;font-family:Gentium Book Basic">
    <tspan
       x="2110.79"
       y="-878.78003"
       id="tspan58" />
  </text>
  <text
     x="723.09003"
     y="-3875.54"
     transform="scale(4.0128,0.2492)"
     id="text60"
     style="font-size:46.95399857px;text-anchor:middle;font-family:Arial" />
  <text
     x="277.98999"
     y="535.94"
     id="text62"
     style="font-size:208.33000183px;line-height:125%;letter-spacing:0;word-spacing:0;font-family:Gentium Book Basic">
    <tspan
       x="277.98999"
       y="535.94"
       id="tspan64" />
  </text>
  <g
     transform="matrix(1.3984,0,0,1.3984,549.67,4.03)"
     id="g66"
     style="fill:#f9f9f9">
    <g
       transform="matrix(27.36857,0,0,27.36857,-399.24,-5.194)"
       id="g68">
      <path
         d="M 3.246,3.951 H 5.504 V 5.644 H 3.246 z"
         inkscape:connector-curvature="0"
         id="path70" />
      <path
         d="M 3.246,6.491 H 5.504 V 8.184 H 3.246 z"
         inkscape:connector-curvature="0"
         id="path72" />
      <path
         d="m 3.246,9.03 h 7.338 V 9.594 H 3.246 z"
         inkscape:connector-curvature="0"
         id="path74" />
    </g>
    <g
       transform="matrix(27.36857,0,0,27.36857,-391.52,-5.194)"
       id="g76">
      <path
         d="m 8.326,3.951 v 1.976 h 1.976 c 0,-1.091 -0.884,-1.976 -1.976,-1.976"
         inkscape:connector-curvature="0"
         id="path78" />
      <path
         d="m 8.04,4.233 c -1.091,0 -1.976,0.884 -1.976,1.976 0,1.091 0.884,1.976 1.976,1.976 1.091,0 1.976,-0.884 1.976,-1.976 H 8.04 V 4.233"
         inkscape:connector-curvature="0"
         id="path80" />
    </g>
  </g>
</svg>
