<?xml version="1.0" encoding="UTF-8" standalone="no"?>
<!-- Created with Inkscape (http://www.inkscape.org/) -->

<svg
   xmlns:dc="http://purl.org/dc/elements/1.1/"
   xmlns:cc="http://creativecommons.org/ns#"
   xmlns:rdf="http://www.w3.org/1999/02/22-rdf-syntax-ns#"
   xmlns:svg="http://www.w3.org/2000/svg"
   xmlns="http://www.w3.org/2000/svg"
   xmlns:inkscape="http://www.inkscape.org/namespaces/inkscape"
   version="1.1"
   width="100%"
   height="100%"
   viewBox="0 0 512 512"
   id="svg2">
  <metadata
     id="metadata84">
    <rdf:RDF>
      <cc:Work
         rdf:about="">
        <dc:format>image/svg+xml</dc:format>
        <dc:type
           rdf:resource="http://purl.org/dc/dcmitype/StillImage" />
      </cc:Work>
    </rdf:RDF>
  </metadata>
  <defs
     id="defs82" />
  <g
     id="g4"
     style="fill-rule:evenodd">
    <path
       d="m 471.95,253.05 c 0,120.9 -98.01,218.91 -218.91,218.91 -120.9,0 -218.91,-98.01 -218.91,-218.91 0,-120.9 98.01,-218.91 218.91,-218.91 120.9,0 218.91,98.01 218.91,218.91"
       inkscape:connector-curvature="0"
       id="path6"
       style="fill:#d23638" />
    <path
       d="M 256,1 C 115.17,1 1,115.17 1,256 1,396.83 115.17,511 256,511 396.83,511 511,396.83 511,256 511,115.17 396.83,1 256,1 m 8.827,44.931 c 120.9,0 218.9,98 218.9,218.9 0,120.9 -98,218.9 -218.9,218.9 -120.9,0 -218.93,-98 -218.93,-218.9 0,-120.9 98.03,-218.9 218.93,-218.9"
       inkscape:connector-curvature="0"
       id="path8"
       style="fill-opacity:0.06700003" />
    <g
       id="g10"
       style="fill-opacity:0.12900002">
      <path
         d="M 256,4.43 C 117.06,4.43 4.43,117.06 4.43,256 4.43,394.94 117.06,507.57 256,507.57 394.94,507.57 507.57,394.94 507.57,256 507.57,117.06 394.94,4.43 256,4.43 m 5.885,38.556 c 120.9,0 218.9,98 218.9,218.9 0,120.9 -98,218.9 -218.9,218.9 -120.9,0 -218.93,-98 -218.93,-218.9 0,-120.9 98.03,-218.9 218.93,-218.9"
         inkscape:connector-curvature="0"
         id="path12" />
      <path
         d="M 256,8.36 C 119.23,8.36 8.36,119.23 8.36,256 8.36,392.77 119.23,503.64 256,503.64 392.77,503.64 503.64,392.77 503.64,256 503.64,119.23 392.77,8.36 256,8.36 m 2.942,31.691 c 120.9,0 218.9,98 218.9,218.9 0,120.9 -98,218.9 -218.9,218.9 -120.9,0 -218.93,-98 -218.93,-218.9 0,-120.9 98.03,-218.9 218.93,-218.9"
         inkscape:connector-curvature="0"
         id="path14" />
    </g>
    <path
       d="M 253.04,7.86 C 117.62,7.86 7.85,117.64 7.85,253.05 c 0,135.42 109.78,245.19 245.19,245.19 135.42,0 245.19,-109.78 245.19,-245.19 C 498.23,117.63 388.45,7.86 253.04,7.86 z m 0,26.297 c 120.9,0 218.9,98 218.9,218.9 0,120.9 -98,218.9 -218.9,218.9 -120.9,0 -218.93,-98 -218.93,-218.9 0,-120.9 98.03,-218.9 218.93,-218.9 z"
       inkscape:connector-curvature="0"
       id="path16"
       style="fill:#ffffff;stroke:#000000;stroke-width:4.90399981;stroke-opacity:0.31000001" />
  </g>
  <text
     x="729.64001"
     y="231.36"
     id="text18"
     style="font-size:129.22999573px;line-height:125%;letter-spacing:0;word-spacing:0;font-family:Gentium Book Basic">
    <tspan
       x="729.64001"
       y="231.36"
       id="tspan20" />
  </text>
  <text
     x="378.91"
     y="579.26001"
     transform="scale(4.0128,0.2492)"
     id="text22"
     style="font-size:46.95399857px;text-anchor:middle;font-family:Arial" />
  <text
     x="1310.91"
     y="151.36"
     id="text24"
     style="font-size:129.22999573px;line-height:125%;letter-spacing:0;word-spacing:0;font-family:Gentium Book Basic">
    <tspan
       x="1310.91"
       y="151.36"
       id="tspan26" />
  </text>
  <text
     x="523.76001"
     y="258.22"
     transform="scale(4.0128,0.2492)"
     id="text28"
     style="font-size:46.95399857px;text-anchor:middle;font-family:Arial" />
  <text
     x="239.33"
     y="-29.9"
     id="text30"
     style="font-size:129.22999573px;line-height:125%;letter-spacing:0;word-spacing:0;font-family:Gentium Book Basic">
    <tspan
       x="239.33"
       y="-29.9"
       id="tspan32" />
  </text>
  <text
     x="256.72"
     y="-469.13"
     transform="scale(4.0128,0.2492)"
     id="text34"
     style="font-size:46.95399857px;text-anchor:middle;font-family:Arial" />
  <text
     x="1337.38"
     y="-246.37"
     id="text36"
     style="font-size:129.22999573px;line-height:125%;letter-spacing:0;word-spacing:0;font-family:Gentium Book Basic">
    <tspan
       x="1337.38"
       y="-246.37"
       id="tspan38" />
  </text>
  <text
     x="530.35999"
     y="-1337.8"
     transform="scale(4.0128,0.2492)"
     id="text40"
     style="font-size:46.95399857px;text-anchor:middle;font-family:Arial" />
  <text
     x="1918.65"
     y="-326.37"
     id="text42"
     style="font-size:129.22999573px;line-height:125%;letter-spacing:0;word-spacing:0;font-family:Gentium Book Basic">
    <tspan
       x="1918.65"
       y="-326.37"
       id="tspan44" />
  </text>
  <text
     x="675.21002"
     y="-1658.83"
     transform="scale(4.0128,0.2492)"
     id="text46"
     style="font-size:46.95399857px;text-anchor:middle;font-family:Arial" />
  <text
     x="1529.53"
     y="-798.77002"
     id="text48"
     style="font-size:129.22999573px;line-height:125%;letter-spacing:0;word-spacing:0;font-family:Gentium Book Basic">
    <tspan
       x="1529.53"
       y="-798.77002"
       id="tspan50" />
  </text>
  <text
     x="578.23999"
     y="-3554.48"
     transform="scale(4.0128,0.2492)"
     id="text52"
     style="font-size:46.95399857px;text-anchor:middle;font-family:Arial" />
  <text
     x="2110.79"
     y="-878.78003"
     id="text54"
     style="font-size:129.22999573px;line-height:125%;letter-spacing:0;word-spacing:0;font-family:Gentium Book Basic">
    <tspan
       x="2110.79"
       y="-878.78003"
       id="tspan56" />
  </text>
  <text
     x="723.09003"
     y="-3875.52"
     transform="scale(4.0128,0.2492)"
     id="text58"
     style="font-size:46.95399857px;text-anchor:middle;font-family:Arial" />
  <g
     id="g60"
     style="font-size:208.33000183px;line-height:125%;letter-spacing:0;word-spacing:0;font-family:Gentium Book Basic">
    <text
       x="277.98999"
       y="535.94"
       id="text62">
      <tspan
         x="277.98999"
         y="535.94"
         id="tspan64" />
    </text>
    <g
       transform="translate(-943.66,-409.96)"
       id="g66">
      <text
         x="-937.41998"
         y="319.39999"
         id="text68">
        <tspan
           x="-937.41998"
           y="319.39999"
           id="tspan70" />
      </text>
      <text
         x="2211.23"
         y="16.348"
         id="text72">
        <tspan
           x="2211.23"
           y="16.348"
           id="tspan74" />
      </text>
    </g>
  </g>
  <path
     d="m 126.22,126.22 v 21.281 l 16.219,16.219 c 0,0.01 0,0.021 0,0.031 0,9.05 -7.182,16.719 -16.219,16.719 v 4.063 l 16.188,16.188 c 0.006,0.179 0.031,0.351 0.031,0.531 0,9.05 -7.182,15.719 -16.219,15.719 v 4.063 l 16.188,16.188 c 0.006,0.179 0.031,0.352 0.031,0.531 0,9.07 -7.182,15.719 -16.219,15.719 v 5.063 l 16.188,16.188 c -0.244,8.844 -7.308,16.25 -16.188,16.25 v 3.563 l 16.219,16.219 c 0,9.05 -7.182,16.719 -16.219,16.719 v 4.063 l 16.188,16.188 c 0.006,0.178 0.031,0.352 0.031,0.531 0,9.07 -7.182,16.25 -16.219,16.25 v 21.281 l 81.44,81.44 c 14.639,3.086 29.818,4.75 45.38,4.75 120.9,0 218.91,-98.01 218.91,-218.91 0,-15.568 -1.629,-30.757 -4.719,-45.41 l -81.44,-81.44 h -21.313 c 0,9.05 -7.126,16.219 -16.188,16.219 -0.191,0 -0.373,-0.025 -0.563,-0.031 l -16.188,-16.188 h -4.03 c 0,9.05 -7.703,16.219 -16.75,16.219 L 294.54,126.217 h -3.563 c 0,9.05 -7.172,16.219 -16.219,16.219 -0.18,0 -0.353,-0.026 -0.531,-0.031 l -16.188,-16.188 h -4.063 c 0,9.05 -7.157,16.219 -16.219,16.219 -0.179,0 -0.353,-0.026 -0.531,-0.031 l -16.188,-16.188 h -3.563 c 0,9.05 -7.182,16.219 -16.219,16.219 -0.18,0 -0.353,-0.026 -0.531,-0.031 l -16.188,-16.188 h -4.063 c 0,9.05 -7.7,16.219 -16.75,16.219 l -16.188,-16.219 h -21.313"
     inkscape:connector-curvature="0"
     id="path76"
     style="opacity:0.25" />
  <path
     d="m 126.22,126.22 v 21.281 c 9.04,0 16.219,7.185 16.219,16.25 0,9.05 -7.182,16.719 -16.219,16.719 v 4.063 c 9.04,0 16.219,7.653 16.219,16.719 0,9.05 -7.182,15.719 -16.219,15.719 v 4.063 c 9.04,0 16.219,7.668 16.219,16.719 0,9.07 -7.182,15.719 -16.219,15.719 v 5.063 c 9.04,0 16.219,6.668 16.219,15.719 0,9.05 -7.182,16.719 -16.219,16.719 v 3.563 c 9.04,0 16.219,7.182 16.219,16.219 0,9.05 -7.182,16.719 -16.219,16.719 v 4.063 c 9.04,0 16.219,7.682 16.219,16.719 0,9.07 -7.182,16.25 -16.219,16.25 v 21.281 h 19.281 c 0,-9.05 7.168,-16.75 16.219,-16.75 9.05,0 16.719,7.7 16.719,16.75 h 4.063 c 0,-9.05 7.714,-16.75 16.75,-16.75 9.05,0 16.188,7.7 16.188,16.75 h 3.563 c 0,-9.05 7.182,-16.75 16.219,-16.75 9.05,0 16.719,7.7 16.719,16.75 h 4.063 c 0,-9.05 7.157,-16.75 16.219,-16.75 9.04,0 16.75,7.7 16.75,16.75 h 3.531 c 0,-9.05 7.172,-16.75 16.219,-16.75 9.02,0 16.719,7.7 16.719,16.75 h 4.094 c 0,-9.05 7.672,-16.75 16.719,-16.75 9.05,0 16.188,7.7 16.188,16.75 h 23.344 v -18.781 c -9.02,0 -16.219,-7.122 -16.219,-16.188 0,-9.02 7.197,-16.219 16.219,-16.219 v -4.063 c -9.02,0 -16.219,-7.653 -16.219,-16.719 0,-9.05 7.197,-16.75 16.219,-16.75 v -3.531 c -9.02,0 -16.219,-7.2 -16.219,-16.25 0,-9.05 7.197,-16.219 16.219,-16.219 v -4.563 c -9.02,0 -16.219,-6.668 -16.219,-15.719 0,-9.04 7.197,-16.719 16.219,-16.719 v -4.063 c -9.02,0 -16.219,-7.182 -16.219,-16.219 0,-9.07 7.197,-16.219 16.219,-16.219 v -4.563 c -9.02,0 -16.219,-7.197 -16.219,-16.219 0.011,-9.07 7.182,-16.719 16.219,-16.719 V 126.22 h -21.313 c 0,9.05 -7.126,16.219 -16.188,16.219 -9.05,0 -16.75,-7.168 -16.75,-16.219 h -4.03 c 0,9.05 -7.703,16.219 -16.75,16.219 -9.04,0 -16.219,-7.168 -16.219,-16.219 h -3.563 c 0,9.05 -7.172,16.219 -16.219,16.219 -9.04,0 -16.719,-7.168 -16.719,-16.219 h -4.063 c 0,9.05 -7.157,16.219 -16.219,16.219 -9.04,0 -16.719,-7.168 -16.719,-16.219 h -3.563 c 0,9.05 -7.182,16.219 -16.219,16.219 -9.06,0 -16.719,-7.168 -16.719,-16.219 h -4.063 c 0,9.05 -7.7,16.219 -16.75,16.219 -9.05,0 -16.188,-7.168 -16.188,-16.219 H 126.22 m 158.53,55.53 c 0.849,-0.034 1.73,0.05 2.594,0.281 4.607,1.234 7.328,5.956 6.094,10.563 -0.244,0.913 -0.633,1.75 -1.125,2.5 16.649,7.02 25.326,21.451 21.06,36.438 -3.546,16.177 -5.527,34.923 -1.719,56.625 0.105,0.355 0.264,0.713 0.344,1.063 2.197,9.687 6.875,17.902 12.688,26.719 -2.773,7.869 -7.223,7.826 -11.25,8.375 l -39.469,-10.469 c -0.052,0.223 -0.096,0.433 -0.156,0.656 -3.037,11.343 -14.719,18.07 -26.06,15.03 -11.343,-3.037 -18.07,-14.688 -15.03,-26.03 0.049,-0.183 0.102,-0.35 0.156,-0.531 l -39.22,-10.406 c -2.471,-2.197 -8.232,-6.01 -5.688,-13.219 13.01,-6.186 18.838,-12.443 25.594,-18.688 15.748,-16.411 19.887,-33.06 26.375,-48.813 5.378,-16.2 17.98,-23.91 36.531,-21.09 -0.037,-0.858 0.047,-1.751 0.281,-2.625 1,-3.743 4.322,-6.229 8,-6.375"
     inkscape:connector-curvature="0"
     id="path78"
     style="fill:#ffffff" />
</svg>
