<?xml version="1.0" encoding="UTF-8" standalone="no"?>
<!-- Created with Inkscape (http://www.inkscape.org/) -->

<svg
   xmlns:dc="http://purl.org/dc/elements/1.1/"
   xmlns:cc="http://creativecommons.org/ns#"
   xmlns:rdf="http://www.w3.org/1999/02/22-rdf-syntax-ns#"
   xmlns:svg="http://www.w3.org/2000/svg"
   xmlns="http://www.w3.org/2000/svg"
   xmlns:inkscape="http://www.inkscape.org/namespaces/inkscape"
   version="1.1"
   width="100%"
   height="100%"
   viewBox="0 0 512 512"
   id="svg2">
  <metadata
     id="metadata72">
    <rdf:RDF>
      <cc:Work
         rdf:about="">
        <dc:format>image/svg+xml</dc:format>
        <dc:type
           rdf:resource="http://purl.org/dc/dcmitype/StillImage" />
      </cc:Work>
    </rdf:RDF>
  </metadata>
  <defs
     id="defs70" />
  <path
     d="m 471.95,253.05 c 0,120.9 -98.01,218.9 -218.9,218.9 -120.9,0 -218.9,-98.01 -218.9,-218.9 0,-120.9 98.01,-218.9 218.9,-218.9 120.9,0 218.9,98.01 218.9,218.9"
     inkscape:connector-curvature="0"
     id="path4"
     style="fill:#1b4f6a;fill-rule:evenodd" />
  <path
     d="m 240.38,111.75 c -23.11,0 -41.719,18.11 -41.719,40.625 v 112.44 h -0.875 v -0.969 h -1 v -1 h -1 v -1 h -0.969 v -1 h -1 v -1 h -1 v -1 h -1 v -0.969 h -1 v -1 h -1 v -0.125 -0.875 h -0.969 v -0.25 -0.75 h -1 v -0.375 -0.625 h -1 v -0.5 -0.5 h -1 v -0.594 -0.406 h -1 v -0.719 -0.25 h -1 v -0.875 -0.125 h -0.969 v -1 h -15.5 v 25.406 c 0,21.263 9.974,40.526 25.531,53.625 0.502,0.437 1.017,0.858 1.531,1.281 0.075,0.06 0.144,0.128 0.219,0.188 0.063,0.051 0.124,0.105 0.188,0.156 0.028,0.024 0.066,0.038 0.094,0.063 0.19,0.154 0.371,0.317 0.563,0.469 0.028,0.024 0.065,0.039 0.094,0.063 0.077,0.067 0.141,0.152 0.219,0.219 0.23,0.186 0.455,0.379 0.688,0.563 0.056,0.048 0.1,0.108 0.156,0.156 0.184,0.149 0.377,0.29 0.563,0.438 0.107,0.093 0.205,0.189 0.313,0.281 0.175,0.146 0.355,0.293 0.531,0.438 0.39,0.34 0.79,0.668 1.188,1 0.011,0.01 0.02,0.022 0.031,0.031 0.165,0.137 0.334,0.27 0.5,0.406 0.395,0.345 0.785,0.695 1.188,1.031 0.017,0.015 0.045,0.017 0.063,0.031 0.257,0.214 0.521,0.414 0.781,0.625 0.034,0.029 0.06,0.065 0.094,0.094 0.157,0.126 0.311,0.25 0.469,0.375 0.138,0.12 0.268,0.256 0.406,0.375 0.051,0.043 0.105,0.082 0.156,0.125 0.093,0.075 0.187,0.144 0.281,0.219 0.321,0.281 0.642,0.569 0.969,0.844 0.106,0.092 0.206,0.189 0.313,0.281 0.254,0.212 0.524,0.417 0.781,0.625 0.033,0.029 0.06,0.065 0.094,0.094 0.143,0.115 0.293,0.229 0.438,0.344 0.145,0.127 0.292,0.25 0.438,0.375 0.085,0.071 0.165,0.149 0.25,0.219 0.052,0.042 0.104,0.083 0.156,0.125 0.006,0.005 0.025,-0.005 0.031,0 0.011,0.009 0.02,0.023 0.031,0.031 0.267,0.233 0.542,0.458 0.813,0.688 0.023,0.018 0.04,0.044 0.063,0.063 0.074,0.06 0.145,0.128 0.219,0.188 0.062,0.054 0.125,0.103 0.188,0.156 0.132,0.106 0.273,0.207 0.406,0.313 0.073,0.062 0.145,0.126 0.219,0.188 0.084,0.073 0.166,0.146 0.25,0.219 0.102,0.085 0.21,0.166 0.313,0.25 0.035,0.027 0.059,0.066 0.094,0.094 0.063,0.051 0.125,0.105 0.188,0.156 0.094,0.082 0.187,0.169 0.281,0.25 0.121,0.097 0.253,0.185 0.375,0.281 0.278,0.244 0.561,0.479 0.844,0.719 0.381,0.335 0.767,0.674 1.156,1 0.274,0.238 0.565,0.454 0.844,0.688 0.234,0.204 0.481,0.393 0.719,0.594 0.401,0.351 0.809,0.69 1.219,1.031 0.022,0.019 0.04,0.043 0.063,0.063 0.252,0.209 0.495,0.42 0.75,0.625 0.04,0.034 0.085,0.06 0.125,0.094 0.093,0.075 0.187,0.144 0.281,0.219 0.199,0.176 0.392,0.358 0.594,0.531 0.092,0.074 0.189,0.146 0.281,0.219 0.189,0.166 0.372,0.336 0.563,0.5 0.006,0.005 0.025,-0.005 0.031,0 0.109,0.087 0.203,0.195 0.313,0.281 0.034,0.028 0.06,0.066 0.094,0.094 0.365,0.32 0.752,0.626 1.125,0.938 0.061,0.053 0.126,0.103 0.188,0.156 0.21,0.175 0.444,0.328 0.656,0.5 0.078,0.068 0.14,0.151 0.219,0.219 0.081,0.065 0.169,0.123 0.25,0.188 0.366,0.323 0.751,0.623 1.125,0.938 0.128,0.112 0.246,0.233 0.375,0.344 0.069,0.057 0.149,0.099 0.219,0.156 0.358,0.317 0.728,0.629 1.094,0.938 0.345,0.302 0.711,0.581 1.063,0.875 0.151,0.131 0.286,0.277 0.438,0.406 v 16.16 h -15.656 v 15.25 h 1 v 0.906 0.094 h 1 v 0.844 0.156 h 1 v 0.75 0.25 h 0.969 v 0.688 0.281 h 1 v 0.625 0.375 h 1 v 0.531 0.469 h 1 v 0.469 0.531 h 1 v 0.375 0.625 h 1 v 0.313 0.688 h 1 v 0.219 0.75 h 0.969 v 0.188 0.813 h 1 v 0.094 0.906 h 1 v 1 h 1 v 1 h 1 v 1 h 1 v 0.969 h 0.969 v 1 h 1 v 1 h 1 v 1 h 1 v 1 h 1 v 1 h 1 v 0.969 h 0.969 v 1 h 1 v 1 h 1 v 1 h 1 v 1 h 1 v 1 h 1 v 1 h 1 v 0.969 h 0.969 v 1 h 1 v 1 h 1 v 1 h 1 v 1 h 1 v 1 h 1 v 0.969 h 0.969 v 1 h 1 v 1 h 1 v 1 h 1 v 1 h 1 v 1 h 1 v 0.969 h 0.969 v 1 h 1 v 1 h 1 v 1 h 1 v 1 h 1 v 1 h 1 v 1 h 0.969 v 0.969 h 1 v 1 h 1 v 1 h 1 v 1 h 1 v 1 h 1 v 1 h 1 v 0.969 h 0.969 v 1 h 1 v 1 h 1 v 1 h 1 v 1 h 1 v 1 h 1 v 0.969 h 0.969 v 1 h 1 v 1 h 1 v 1 h 1 v 1 h 1 v 1 h 1 v 0.969 h 0.969 v 1 h 1 v 1 h 1 v 1 h 1 v 1 h 1 v 1 h 1 v 1 h 1 v 0.969 h 0.969 v 1 h 1 v 1 h 1 v 1 h 1 v 1 h 1 v 1 h 1 v 0.969 h 0.969 v 1 h 1 v 1 h 1 v 1 h 1 v 0.906 c 81.52,-14.525 147.41,-74.19 170.94,-152.22 -0.095,-0.093 -0.187,-0.187 -0.281,-0.281 -0.553,-0.593 -1.131,-1.159 -1.719,-1.719 -0.417,-0.425 -0.846,-0.843 -1.281,-1.25 -0.272,-0.292 -0.563,-0.56 -0.844,-0.844 -0.021,-0.02 -0.041,-0.042 -0.063,-0.063 -0.026,-0.026 -0.036,-0.068 -0.063,-0.094 -0.319,-0.342 -0.67,-0.669 -1,-1 -0.322,-0.346 -0.666,-0.665 -1,-1 -0.553,-0.593 -1.131,-1.159 -1.719,-1.719 -0.417,-0.425 -0.846,-0.843 -1.281,-1.25 -0.272,-0.292 -0.563,-0.56 -0.844,-0.844 -0.054,-0.051 -0.102,-0.106 -0.156,-0.156 -0.317,-0.34 -0.64,-0.67 -0.969,-1 -0.319,-0.342 -0.67,-0.669 -1,-1 -0.322,-0.346 -0.666,-0.665 -1,-1 -0.638,-0.684 -1.316,-1.329 -2,-1.969 -0.126,-0.135 -0.247,-0.273 -0.375,-0.406 -0.204,-0.199 -0.417,-0.399 -0.625,-0.594 -0.272,-0.292 -0.563,-0.56 -0.844,-0.844 -0.021,-0.02 -0.041,-0.042 -0.063,-0.063 -0.026,-0.026 -0.036,-0.068 -0.063,-0.094 -0.319,-0.342 -0.67,-0.669 -1,-1 -0.322,-0.346 -0.666,-0.665 -1,-1 -0.553,-0.593 -1.131,-1.159 -1.719,-1.719 -0.417,-0.425 -0.846,-0.843 -1.281,-1.25 -0.272,-0.292 -0.563,-0.56 -0.844,-0.844 -0.021,-0.02 -0.041,-0.042 -0.063,-0.063 -0.026,-0.026 -0.036,-0.068 -0.063,-0.094 -0.319,-0.342 -0.67,-0.669 -1,-1 -0.322,-0.346 -0.666,-0.665 -1,-1 -0.553,-0.593 -1.131,-1.159 -1.719,-1.719 -0.417,-0.425 -0.846,-0.843 -1.281,-1.25 -0.272,-0.292 -0.563,-0.56 -0.844,-0.844 -0.054,-0.051 -0.102,-0.106 -0.156,-0.156 -0.317,-0.34 -0.64,-0.67 -0.969,-1 -0.322,-0.346 -0.666,-0.665 -1,-1 -0.242,-0.259 -0.502,-0.497 -0.75,-0.75 -0.085,-0.08 -0.165,-0.17 -0.25,-0.25 -0.64,-0.686 -1.314,-1.327 -2,-1.969 -0.272,-0.292 -0.563,-0.56 -0.844,-0.844 -0.054,-0.051 -0.102,-0.106 -0.156,-0.156 -0.317,-0.34 -0.64,-0.67 -0.969,-1 -0.319,-0.342 -0.67,-0.669 -1,-1 -0.322,-0.346 -0.666,-0.665 -1,-1 -0.553,-0.593 -1.131,-1.159 -1.719,-1.719 -0.417,-0.425 -0.846,-0.843 -1.281,-1.25 -0.272,-0.292 -0.563,-0.56 -0.844,-0.844 -0.021,-0.02 -0.041,-0.042 -0.063,-0.063 -0.026,-0.026 -0.036,-0.068 -0.063,-0.094 -0.319,-0.342 -0.67,-0.669 -1,-1 -0.322,-0.346 -0.666,-0.665 -1,-1 -0.553,-0.593 -1.131,-1.159 -1.719,-1.719 -0.417,-0.425 -0.846,-0.843 -1.281,-1.25 -0.272,-0.292 -0.563,-0.56 -0.844,-0.844 -0.021,-0.02 -0.041,-0.042 -0.063,-0.063 -0.026,-0.026 -0.036,-0.068 -0.063,-0.094 -0.319,-0.342 -0.67,-0.669 -1,-1 -0.322,-0.346 -0.666,-0.665 -1,-1 -0.553,-0.593 -1.131,-1.159 -1.719,-1.719 -0.417,-0.425 -0.846,-0.843 -1.281,-1.25 -0.272,-0.292 -0.563,-0.56 -0.844,-0.844 -0.054,-0.051 -0.102,-0.106 -0.156,-0.156 -0.317,-0.34 -0.64,-0.67 -0.969,-1 -0.319,-0.342 -0.67,-0.669 -1,-1 -0.322,-0.346 -0.666,-0.665 -1,-1 -0.638,-0.684 -1.316,-1.329 -2,-1.969 -0.126,-0.135 -0.247,-0.273 -0.375,-0.406 -0.206,-0.201 -0.414,-0.397 -0.625,-0.594 -0.272,-0.292 -0.563,-0.56 -0.844,-0.844 -0.021,-0.02 -0.041,-0.042 -0.063,-0.063 -0.026,-0.026 -0.036,-0.068 -0.063,-0.094 -0.319,-0.342 -0.67,-0.669 -1,-1 -0.322,-0.346 -0.666,-0.665 -1,-1 -0.553,-0.593 -1.131,-1.159 -1.719,-1.719 -0.417,-0.425 -0.846,-0.843 -1.281,-1.25 -0.272,-0.292 -0.563,-0.56 -0.844,-0.844 -0.021,-0.02 -0.041,-0.042 -0.063,-0.063 -0.026,-0.026 -0.036,-0.068 -0.063,-0.094 -0.319,-0.342 -0.67,-0.669 -1,-1 -0.322,-0.346 -0.666,-0.665 -1,-1 -0.553,-0.593 -1.131,-1.159 -1.719,-1.719 -0.417,-0.425 -0.846,-0.843 -1.281,-1.25 -0.272,-0.292 -0.563,-0.56 -0.844,-0.844 -0.021,-0.02 -0.041,-0.042 -0.063,-0.063 -0.026,-0.026 -0.036,-0.068 -0.063,-0.094 -0.319,-0.342 -0.67,-0.669 -1,-1 -0.322,-0.346 -0.666,-0.665 -1,-1 -0.242,-0.259 -0.502,-0.497 -0.75,-0.75 -0.085,-0.08 -0.165,-0.17 -0.25,-0.25 -0.64,-0.686 -1.314,-1.327 -2,-1.969 -0.272,-0.292 -0.563,-0.56 -0.844,-0.844 -0.054,-0.051 -0.102,-0.106 -0.156,-0.156 -0.317,-0.34 -0.64,-0.67 -0.969,-1 -0.319,-0.342 -0.67,-0.669 -1,-1 -0.322,-0.346 -0.666,-0.665 -1,-1 -0.553,-0.593 -1.131,-1.159 -1.719,-1.719 -0.417,-0.425 -0.846,-0.843 -1.281,-1.25 -0.272,-0.292 -0.563,-0.56 -0.844,-0.844 -0.021,-0.02 -0.041,-0.042 -0.063,-0.063 -0.026,-0.026 -0.036,-0.068 -0.063,-0.094 -0.319,-0.342 -0.67,-0.669 -1,-1 -0.322,-0.346 -0.666,-0.665 -1,-1 -0.553,-0.593 -1.131,-1.159 -1.719,-1.719 -0.417,-0.425 -0.846,-0.843 -1.281,-1.25 -0.272,-0.292 -0.563,-0.56 -0.844,-0.844 -0.021,-0.02 -0.041,-0.042 -0.063,-0.063 -0.026,-0.026 -0.036,-0.068 -0.063,-0.094 -0.319,-0.342 -0.67,-0.669 -1,-1 -0.322,-0.346 -0.666,-0.665 -1,-1 -0.553,-0.593 -1.131,-1.159 -1.719,-1.719 -0.417,-0.425 -0.846,-0.843 -1.281,-1.25 -0.272,-0.292 -0.563,-0.56 -0.844,-0.844 -0.054,-0.051 -0.102,-0.106 -0.156,-0.156 -0.317,-0.34 -0.64,-0.67 -0.969,-1 -0.319,-0.342 -0.67,-0.669 -1,-1 -0.322,-0.346 -0.666,-0.665 -1,-1 -0.64,-0.686 -1.314,-1.327 -2,-1.969 -0.272,-0.292 -0.563,-0.56 -0.844,-0.844 -0.054,-0.051 -0.102,-0.106 -0.156,-0.156 -0.272,-0.292 -0.563,-0.56 -0.844,-0.844 -0.021,-0.02 -0.041,-0.042 -0.063,-0.063 -0.026,-0.026 -0.036,-0.068 -0.063,-0.094 -0.319,-0.342 -0.67,-0.669 -1,-1 -0.322,-0.346 -0.666,-0.665 -1,-1 -0.553,-0.593 -1.131,-1.159 -1.719,-1.719 -0.417,-0.425 -0.846,-0.843 -1.281,-1.25 -0.272,-0.292 -0.563,-0.56 -0.844,-0.844 -0.021,-0.02 -0.041,-0.042 -0.063,-0.063 -0.026,-0.026 -0.036,-0.068 -0.063,-0.094 -0.319,-0.342 -0.67,-0.669 -1,-1 -0.322,-0.346 -0.666,-0.665 -1,-1 -0.553,-0.593 -1.131,-1.159 -1.719,-1.719 -0.417,-0.425 -0.846,-0.843 -1.281,-1.25 -0.272,-0.292 -0.563,-0.56 -0.844,-0.844 -0.021,-0.02 -0.041,-0.042 -0.063,-0.063 -0.026,-0.026 -0.036,-0.068 -0.063,-0.094 -0.319,-0.342 -0.67,-0.669 -1,-1 -0.322,-0.346 -0.666,-0.665 -1,-1 -0.553,-0.593 -1.131,-1.159 -1.719,-1.719 -0.417,-0.425 -0.846,-0.843 -1.281,-1.25 -0.272,-0.292 -0.563,-0.56 -0.844,-0.844 -0.054,-0.051 -0.102,-0.106 -0.156,-0.156 -0.317,-0.34 -0.64,-0.67 -0.969,-1 -0.319,-0.342 -0.67,-0.669 -1,-1 -0.322,-0.346 -0.666,-0.665 -1,-1 -0.638,-0.684 -1.316,-1.329 -2,-1.969 -0.126,-0.135 -0.247,-0.273 -0.375,-0.406 -0.204,-0.199 -0.417,-0.399 -0.625,-0.594 -0.272,-0.292 -0.563,-0.56 -0.844,-0.844 -0.021,-0.02 -0.041,-0.042 -0.063,-0.063 -0.026,-0.026 -0.036,-0.068 -0.063,-0.094 -0.319,-0.342 -0.67,-0.669 -1,-1 -0.322,-0.346 -0.666,-0.665 -1,-1 -0.553,-0.593 -1.131,-1.159 -1.719,-1.719 -0.417,-0.425 -0.846,-0.843 -1.281,-1.25 -0.272,-0.292 -0.563,-0.56 -0.844,-0.844 -0.021,-0.02 -0.041,-0.042 -0.063,-0.063 -0.026,-0.026 -0.036,-0.068 -0.063,-0.094 -0.319,-0.342 -0.67,-0.669 -1,-1 -0.322,-0.346 -0.666,-0.665 -1,-1 -0.553,-0.593 -1.131,-1.159 -1.719,-1.719 -0.417,-0.425 -0.846,-0.843 -1.281,-1.25 -0.272,-0.292 -0.563,-0.56 -0.844,-0.844 -0.054,-0.051 -0.102,-0.106 -0.156,-0.156 -0.317,-0.34 -0.64,-0.67 -0.969,-1 -0.322,-0.346 -0.666,-0.665 -1,-1 -0.242,-0.259 -0.502,-0.497 -0.75,-0.75 -0.085,-0.08 -0.165,-0.17 -0.25,-0.25 -0.64,-0.686 -1.314,-1.327 -2,-1.969 -0.272,-0.292 -0.563,-0.56 -0.844,-0.844 -0.054,-0.051 -0.102,-0.106 -0.156,-0.156 -0.272,-0.292 -0.563,-0.56 -0.844,-0.844 -0.021,-0.02 -0.041,-0.042 -0.063,-0.063 -0.026,-0.026 -0.036,-0.068 -0.063,-0.094 -0.319,-0.342 -0.67,-0.669 -1,-1 -0.322,-0.346 -0.666,-0.665 -1,-1 -0.553,-0.593 -1.131,-1.159 -1.719,-1.719 -0.417,-0.425 -0.846,-0.843 -1.281,-1.25 -0.272,-0.292 -0.563,-0.56 -0.844,-0.844 -0.021,-0.02 -0.041,-0.042 -0.063,-0.063 -0.026,-0.026 -0.036,-0.068 -0.063,-0.094 -0.319,-0.342 -0.67,-0.669 -1,-1 -0.322,-0.346 -0.666,-0.665 -1,-1 -0.553,-0.593 -1.131,-1.159 -1.719,-1.719 -0.417,-0.425 -0.846,-0.843 -1.281,-1.25 -0.272,-0.292 -0.563,-0.56 -0.844,-0.844 -0.021,-0.02 -0.041,-0.042 -0.063,-0.063 -0.026,-0.026 -0.036,-0.068 -0.063,-0.094 -0.319,-0.342 -0.67,-0.669 -1,-1 -0.322,-0.346 -0.666,-0.665 -1,-1 -0.553,-0.593 -1.131,-1.159 -1.719,-1.719 -0.417,-0.425 -0.846,-0.843 -1.281,-1.25 -0.272,-0.292 -0.563,-0.56 -0.844,-0.844 -0.054,-0.051 -0.102,-0.106 -0.156,-0.156 -0.317,-0.34 -0.64,-0.67 -0.969,-1 -0.319,-0.342 -0.67,-0.669 -1,-1 -0.322,-0.346 -0.666,-0.665 -1,-1 -0.638,-0.684 -1.316,-1.329 -2,-1.969 -0.126,-0.135 -0.247,-0.273 -0.375,-0.406 -0.204,-0.199 -0.417,-0.399 -0.625,-0.594 -0.272,-0.292 -0.563,-0.56 -0.844,-0.844 -0.021,-0.02 -0.041,-0.042 -0.063,-0.063 -0.026,-0.026 -0.036,-0.068 -0.063,-0.094 -0.319,-0.342 -0.67,-0.669 -1,-1 -0.322,-0.346 -0.666,-0.665 -1,-1 -0.553,-0.593 -1.131,-1.159 -1.719,-1.719 -0.417,-0.425 -0.846,-0.843 -1.281,-1.25 -0.272,-0.292 -0.563,-0.56 -0.844,-0.844 -0.021,-0.02 -0.041,-0.042 -0.063,-0.063 -0.026,-0.026 -0.036,-0.068 -0.063,-0.094 -0.319,-0.342 -0.67,-0.669 -1,-1 -0.322,-0.346 -0.666,-0.665 -1,-1 -0.553,-0.593 -1.131,-1.159 -1.719,-1.719 -0.417,-0.425 -0.846,-0.843 -1.281,-1.25 -0.272,-0.292 -0.563,-0.56 -0.844,-0.844 -0.054,-0.051 -0.102,-0.106 -0.156,-0.156 -0.317,-0.34 -0.64,-0.67 -0.969,-1 -0.322,-0.346 -0.666,-0.665 -1,-1 -0.242,-0.259 -0.502,-0.497 -0.75,-0.75 -0.085,-0.08 -0.165,-0.17 -0.25,-0.25 -0.64,-0.686 -1.314,-1.327 -2,-1.969 -0.272,-0.292 -0.563,-0.56 -0.844,-0.844 -0.054,-0.051 -0.102,-0.106 -0.156,-0.156 -7.62,-8.172 -18.598,-13.281 -30.875,-13.281 h -0.031"
     inkscape:connector-curvature="0"
     id="path6"
     style="fill-opacity:0.23500001" />
  <g
     id="g8"
     style="fill-rule:evenodd">
    <path
       d="M 256,1 C 115.17,1 1,115.17 1,256 1,396.83 115.17,511 256,511 396.83,511 511,396.83 511,256 511,115.17 396.83,1 256,1 m 8.827,44.931 c 120.9,0 218.9,98 218.9,218.9 0,120.9 -98,218.9 -218.9,218.9 -120.9,0 -218.93,-98 -218.93,-218.9 0,-120.9 98.03,-218.9 218.93,-218.9"
       inkscape:connector-curvature="0"
       id="path10"
       style="fill-opacity:0.06700003" />
    <g
       id="g12"
       style="fill-opacity:0.12900002">
      <path
         d="m 256,4.433 c -138.94,0 -251.57,112.63 -251.57,251.57 0,138.94 112.63,251.57 251.57,251.57 138.94,0 251.57,-112.63 251.57,-251.57 C 507.57,117.063 394.94,4.433 256,4.433 m 5.885,38.556 c 120.9,0 218.9,98 218.9,218.9 0,120.9 -98,218.9 -218.9,218.9 -120.9,0 -218.93,-98 -218.93,-218.9 0,-120.9 98.03,-218.9 218.93,-218.9"
         inkscape:connector-curvature="0"
         id="path14" />
      <path
         d="m 256,8.356 c -136.77,0 -247.64,110.87 -247.64,247.64 0,136.77 110.87,247.64 247.64,247.64 136.77,0 247.64,-110.87 247.64,-247.64 C 503.64,119.226 392.77,8.356 256,8.356 m 2.942,31.691 c 120.9,0 218.9,98 218.9,218.9 0,120.9 -98,218.9 -218.9,218.9 -120.9,0 -218.93,-98 -218.93,-218.9 0,-120.9 98.03,-218.9 218.93,-218.9"
         inkscape:connector-curvature="0"
         id="path16" />
    </g>
    <path
       d="m 253.04,7.859 c -135.42,0 -245.19,109.78 -245.19,245.19 0,135.42 109.78,245.19 245.19,245.19 135.42,0 245.19,-109.78 245.19,-245.19 0,-135.42 -109.78,-245.19 -245.19,-245.19 z m 0,26.297 c 120.9,0 218.9,98 218.9,218.9 0,120.9 -98,218.9 -218.9,218.9 -120.9,0 -218.93,-98 -218.93,-218.9 0,-120.9 98.03,-218.9 218.93,-218.9 z"
       inkscape:connector-curvature="0"
       id="path18"
       style="fill:#ffffff;stroke:#000000;stroke-width:4.90399981;stroke-opacity:0.31000001" />
  </g>
  <text
     x="729.64001"
     y="231.36"
     id="text20"
     style="font-size:129.22999573px;line-height:125%;letter-spacing:0;word-spacing:0;font-family:Gentium Book Basic">
    <tspan
       x="729.64001"
       y="231.36"
       id="tspan22" />
  </text>
  <text
     x="378.91"
     y="579.25"
     transform="scale(4.0128,0.2492)"
     id="text24"
     style="font-size:46.95399857px;text-anchor:middle;font-family:Arial" />
  <text
     x="1310.91"
     y="151.36"
     id="text26"
     style="font-size:129.22999573px;line-height:125%;letter-spacing:0;word-spacing:0;font-family:Gentium Book Basic">
    <tspan
       x="1310.91"
       y="151.36"
       id="tspan28" />
  </text>
  <text
     x="523.76001"
     y="258.22"
     transform="scale(4.0128,0.2492)"
     id="text30"
     style="font-size:46.95399857px;text-anchor:middle;font-family:Arial" />
  <text
     x="239.33"
     y="-29.900999"
     id="text32"
     style="font-size:129.22999573px;line-height:125%;letter-spacing:0;word-spacing:0;font-family:Gentium Book Basic">
    <tspan
       x="239.33"
       y="-29.900999"
       id="tspan34" />
  </text>
  <text
     x="256.72"
     y="-469.14001"
     transform="scale(4.0128,0.2492)"
     id="text36"
     style="font-size:46.95399857px;text-anchor:middle;font-family:Arial" />
  <text
     x="1337.38"
     y="-246.37"
     id="text38"
     style="font-size:129.22999573px;line-height:125%;letter-spacing:0;word-spacing:0;font-family:Gentium Book Basic">
    <tspan
       x="1337.38"
       y="-246.37"
       id="tspan40" />
  </text>
  <text
     x="530.35999"
     y="-1337.8101"
     transform="scale(4.0128,0.2492)"
     id="text42"
     style="font-size:46.95399857px;text-anchor:middle;font-family:Arial" />
  <text
     x="1918.65"
     y="-326.38"
     id="text44"
     style="font-size:129.22999573px;line-height:125%;letter-spacing:0;word-spacing:0;font-family:Gentium Book Basic">
    <tspan
       x="1918.65"
       y="-326.38"
       id="tspan46" />
  </text>
  <text
     x="675.21002"
     y="-1658.85"
     transform="scale(4.0128,0.2492)"
     id="text48"
     style="font-size:46.95399857px;text-anchor:middle;font-family:Arial" />
  <text
     x="1529.53"
     y="-798.78003"
     id="text50"
     style="font-size:129.22999573px;line-height:125%;letter-spacing:0;word-spacing:0;font-family:Gentium Book Basic">
    <tspan
       x="1529.53"
       y="-798.78003"
       id="tspan52" />
  </text>
  <text
     x="578.23999"
     y="-3554.51"
     transform="scale(4.0128,0.2492)"
     id="text54"
     style="font-size:46.95399857px;text-anchor:middle;font-family:Arial" />
  <text
     x="2110.79"
     y="-878.78003"
     id="text56"
     style="font-size:129.22999573px;line-height:125%;letter-spacing:0;word-spacing:0;font-family:Gentium Book Basic">
    <tspan
       x="2110.79"
       y="-878.78003"
       id="tspan58" />
  </text>
  <text
     x="723.09003"
     y="-3875.54"
     transform="scale(4.0128,0.2492)"
     id="text60"
     style="font-size:46.95399857px;text-anchor:middle;font-family:Arial" />
  <text
     x="277.98999"
     y="535.94"
     id="text62"
     style="font-size:208.33000183px;line-height:125%;letter-spacing:0;word-spacing:0;font-family:Gentium Book Basic">
    <tspan
       x="277.98999"
       y="535.94"
       id="tspan64" />
  </text>
  <path
     d="m 24,8.847 c -2.553,0 -4.609,2 -4.609,4.49 v 13.469 c 0,2.487 2.055,4.49 4.609,4.49 2.553,0 4.609,-2 4.609,-4.49 V 13.337 C 28.61,10.85 26.554,8.847 24.001,8.847 m -8.07,15.15 v 2.806 c 0,3.711 2.748,6.875 6.337,7.664 v 2.999 H 20.54 v 1.684 h 6.913 v -1.684 h -1.728 v -2.999 c 3.589,-0.789 6.337,-3.953 6.337,-7.664 v -2.806 h -1.71 v 2.806 c 0,3.402 -2.863,6.191 -6.355,6.191 -3.492,0 -6.355,-2.789 -6.355,-6.191 v -2.806 z"
     inkscape:connector-curvature="0"
     transform="matrix(9.0517,0,0,9.0517,23.14,31.659)"
     id="path66"
     style="fill:#ffffff" />
</svg>
