<?xml version="1.0" encoding="UTF-8" standalone="no"?>
<svg
   xmlns:dc="http://purl.org/dc/elements/1.1/"
   xmlns:cc="http://creativecommons.org/ns#"
   xmlns:rdf="http://www.w3.org/1999/02/22-rdf-syntax-ns#"
   xmlns:svg="http://www.w3.org/2000/svg"
   xmlns="http://www.w3.org/2000/svg"
   xmlns:xlink="http://www.w3.org/1999/xlink"
   xmlns:sodipodi="http://sodipodi.sourceforge.net/DTD/sodipodi-0.dtd"
   xmlns:inkscape="http://www.inkscape.org/namespaces/inkscape"
   viewBox="0 0 512 512"
   id="svg2"
   version="1.1"
   inkscape:version="0.48.5 r10040"
   width="100%"
   height="100%"
   sodipodi:docname="a base.svg">
  <sodipodi:namedview
     pagecolor="#ffffff"
     bordercolor="#666666"
     borderopacity="1"
     objecttolerance="10"
     gridtolerance="10"
     guidetolerance="10"
     inkscape:pageopacity="0"
     inkscape:pageshadow="2"
     inkscape:window-width="1306"
     inkscape:window-height="706"
     id="namedview66"
     showgrid="false"
     inkscape:zoom="0.65186406"
     inkscape:cx="401.61419"
     inkscape:cy="233.7299"
     inkscape:window-x="56"
     inkscape:window-y="26"
     inkscape:window-maximized="1"
     inkscape:current-layer="svg2" />
  <metadata
     id="metadata70">
    <rdf:RDF>
      <cc:Work
         rdf:about="">
        <dc:format>image/svg+xml</dc:format>
        <dc:type
           rdf:resource="http://purl.org/dc/dcmitype/StillImage" />
        <dc:title></dc:title>
      </cc:Work>
    </rdf:RDF>
  </metadata>
  <defs
     id="defs68">
    <linearGradient
       inkscape:collect="always"
       id="linearGradient1124">
      <stop
         style="stop-color:#2c2c2d;stop-opacity:1"
         offset="0"
         id="stop1126" />
      <stop
         style="stop-color:#333335;stop-opacity:1"
         offset="1"
         id="stop1128" />
    </linearGradient>
    <linearGradient
       gradientTransform="matrix(6.7853086,0,0,6.7853086,-562.03385,6795.5176)"
       y2="-1004.4557"
       x2="23.688078"
       y1="-1052.5389"
       x1="23.688078"
       gradientUnits="userSpaceOnUse"
       id="linearGradient3129"
       xlink:href="#linearGradient1124"
       inkscape:collect="always" />
    <clipPath
       clipPathUnits="userSpaceOnUse"
       id="clipPath3339">
      <path
         d="m 471.9456,253.05189 c 0,120.89699 -98.00565,218.90724 -218.90724,218.90724 -120.89698,0 -218.90723,-98.00566 -218.90723,-218.90724 0,-120.89698 98.00565,-218.907232 218.90723,-218.907232 120.89699,0 218.90724,98.005652 218.90724,218.907232"
         id="path3341"
         inkscape:connector-curvature="0"
         style="fill:#d23638;fill-opacity:1;fill-rule:evenodd" />
    </clipPath>
  </defs>
  <path
     style="fill:#d23638;fill-rule:evenodd;fill-opacity:1"
     inkscape:connector-curvature="0"
     id="path8"
     d="m 471.9456,253.05189 c 0,120.89699 -98.00565,218.90724 -218.90724,218.90724 -120.89698,0 -218.90723,-98.00566 -218.90723,-218.90724 0,-120.89698 98.00565,-218.907232 218.90723,-218.907232 120.89699,0 218.90724,98.005652 218.90724,218.907232" />
  <path
     style="fill-opacity:0.06700003;fill-rule:evenodd"
     inkscape:connector-curvature="0"
     id="path10"
     d="M 256,1 C 115.17,1 1,115.17 1,256 1,396.83 115.17,511 256,511 396.83,511 511,396.83 511,256 511,115.17 396.83,1 256,1 m 8.827,44.931 c 120.9,0 218.9,98 218.9,218.9 0,120.9 -98,218.9 -218.9,218.9 -120.9,0 -218.93,-98 -218.93,-218.9 0,-120.9 98.03,-218.9 218.93,-218.9" />
  <path
     d="M 256,4.43 C 117.06,4.43 4.43,117.06 4.43,256 4.43,394.94 117.06,507.57 256,507.57 394.94,507.57 507.57,394.94 507.57,256 507.57,117.06 394.94,4.43 256,4.43 m 5.885,38.556 c 120.9,0 218.9,98 218.9,218.9 0,120.9 -98,218.9 -218.9,218.9 -120.9,0 -218.93,-98 -218.93,-218.9 0,-120.9 98.03,-218.9 218.93,-218.9"
     id="path14"
     inkscape:connector-curvature="0"
     style="fill-opacity:0.12900002;fill-rule:evenodd" />
  <path
     d="M 256,8.36 C 119.23,8.36 8.36,119.23 8.36,256 8.36,392.77 119.23,503.64 256,503.64 392.77,503.64 503.64,392.77 503.64,256 503.64,119.23 392.77,8.36 256,8.36 m 2.942,31.691 c 120.9,0 218.9,98 218.9,218.9 0,120.9 -98,218.9 -218.9,218.9 -120.9,0 -218.93,-98 -218.93,-218.9 0,-120.9 98.03,-218.9 218.93,-218.9"
     id="path16"
     inkscape:connector-curvature="0"
     style="fill-opacity:0.12900002;fill-rule:evenodd" />
  <path
     style="fill:#ffffff;fill-rule:evenodd;stroke:#000000;stroke-width:4.90399981;stroke-opacity:0.31000001"
     inkscape:connector-curvature="0"
     id="path18"
     d="M 253.04,7.86 C 117.62,7.86 7.85,117.64 7.85,253.05 c 0,135.42 109.78,245.19 245.19,245.19 135.42,0 245.19,-109.78 245.19,-245.19 C 498.23,117.63 388.45,7.86 253.04,7.86 z m 0,26.297 c 120.9,0 218.9,98 218.9,218.9 0,120.9 -98,218.9 -218.9,218.9 -120.9,0 -218.93,-98 -218.93,-218.9 0,-120.9 98.03,-218.9 218.93,-218.9 z" />
  <text
     font-size="129.23"
     letter-spacing="0"
     line-height="125%"
     word-spacing="0"
     x="729.64001"
     y="231.35997"
     id="text20"
     sodipodi:linespacing="125%"
     style="font-size:129.22999573px;line-height:125%;letter-spacing:0;word-spacing:0;font-family:Gentium Book Basic">
    <tspan
       x="729.64001"
       y="231.35997"
       id="tspan22" />
  </text>
  <text
     x="378.90805"
     y="579.25812"
     font-size="46.954"
     transform="scale(4.0128205,0.24920128)"
     id="text24"
     style="font-size:46.95375824px;text-anchor:middle;font-family:Arial" />
  <text
     font-size="129.23"
     letter-spacing="0"
     line-height="125%"
     word-spacing="0"
     x="1310.91"
     y="151.35997"
     id="text26"
     sodipodi:linespacing="125%"
     style="font-size:129.22999573px;line-height:125%;letter-spacing:0;word-spacing:0;font-family:Gentium Book Basic">
    <tspan
       x="1310.91"
       y="151.35997"
       id="tspan28" />
  </text>
  <text
     x="523.75732"
     y="258.21997"
     font-size="46.954"
     transform="scale(4.0128205,0.24920128)"
     id="text30"
     style="font-size:46.95375824px;text-anchor:middle;font-family:Arial" />
  <text
     font-size="129.23"
     letter-spacing="0"
     line-height="125%"
     word-spacing="0"
     x="239.33"
     y="-29.900009"
     id="text32"
     sodipodi:linespacing="125%"
     style="font-size:129.22999573px;line-height:125%;letter-spacing:0;word-spacing:0;font-family:Gentium Book Basic">
    <tspan
       x="239.33"
       y="-29.900009"
       id="tspan34" />
  </text>
  <text
     x="256.71869"
     y="-469.1264"
     font-size="46.954"
     transform="scale(4.0128205,0.24920128)"
     id="text36"
     style="font-size:46.95375824px;text-anchor:middle;font-family:Arial" />
  <text
     font-size="129.23"
     letter-spacing="0"
     line-height="125%"
     word-spacing="0"
     x="1337.38"
     y="-246.37001"
     id="text38"
     sodipodi:linespacing="125%"
     style="font-size:129.22999573px;line-height:125%;letter-spacing:0;word-spacing:0;font-family:Gentium Book Basic">
    <tspan
       x="1337.38"
       y="-246.37001"
       id="tspan40" />
  </text>
  <text
     x="530.3573"
     y="-1337.802"
     font-size="46.954"
     transform="scale(4.0128205,0.24920128)"
     id="text42"
     style="font-size:46.95375824px;text-anchor:middle;font-family:Arial" />
  <text
     font-size="129.23"
     letter-spacing="0"
     line-height="125%"
     word-spacing="0"
     x="1918.65"
     y="-326.37"
     id="text44"
     sodipodi:linespacing="125%"
     style="font-size:129.22999573px;line-height:125%;letter-spacing:0;word-spacing:0;font-family:Gentium Book Basic">
    <tspan
       x="1918.65"
       y="-326.37"
       id="tspan46" />
  </text>
  <text
     x="675.20654"
     y="-1658.8303"
     font-size="46.954"
     transform="scale(4.0128205,0.24920128)"
     id="text48"
     style="font-size:46.95375824px;text-anchor:middle;font-family:Arial" />
  <text
     font-size="129.23"
     letter-spacing="0"
     line-height="125%"
     word-spacing="0"
     x="1529.53"
     y="-798.77002"
     id="text50"
     sodipodi:linespacing="125%"
     style="font-size:129.22999573px;line-height:125%;letter-spacing:0;word-spacing:0;font-family:Gentium Book Basic">
    <tspan
       x="1529.53"
       y="-798.77002"
       id="tspan52" />
  </text>
  <text
     x="578.237"
     y="-3554.4807"
     font-size="46.954"
     transform="scale(4.0128205,0.24920128)"
     id="text54"
     style="font-size:46.95375824px;text-anchor:middle;font-family:Arial" />
  <text
     font-size="129.23"
     letter-spacing="0"
     line-height="125%"
     word-spacing="0"
     x="2110.79"
     y="-878.78003"
     id="text56"
     sodipodi:linespacing="125%"
     style="font-size:129.22999573px;line-height:125%;letter-spacing:0;word-spacing:0;font-family:Gentium Book Basic">
    <tspan
       x="2110.79"
       y="-878.78003"
       id="tspan58" />
  </text>
  <text
     x="723.0863"
     y="-3875.519"
     font-size="46.954"
     transform="scale(4.0128205,0.24920128)"
     id="text60"
     style="font-size:46.95375824px;text-anchor:middle;font-family:Arial" />
  <text
     font-size="208.33"
     letter-spacing="0"
     line-height="125%"
     word-spacing="0"
     x="277.98999"
     y="535.94006"
     id="text62"
     sodipodi:linespacing="125%"
     style="font-size:208.33000183px;line-height:125%;letter-spacing:0;word-spacing:0;font-family:Gentium Book Basic">
    <tspan
       x="277.98999"
       y="535.94006"
       id="tspan64" />
  </text>
  <g
     style="fill:#000000;fill-opacity:1;stroke:none;opacity:0.25"
     id="g3191"
     clip-path="url(#clipPath3339)">
    <path
       inkscape:connector-curvature="0"
       d="m 131.46875,130.34375 c -6.19415,0 -11.1875,4.99335 -11.1875,11.1875 l 388.90873,388.90873 c 0,-6.19415 4.99335,-11.1875 11.1875,-11.1875 z"
       id="path3193"
       style="fill:#000000" />
    <path
       inkscape:connector-curvature="0"
       d="m 120.28125,141.53125 0,181.1875 388.90873,388.90873 0,-181.1875 z"
       id="path3195"
       style="fill:#000000" />
    <path
       inkscape:connector-curvature="0"
       d="m 120.28125,322.71875 c 0,3.05465 1.21437,5.81727 3.18826,7.833 l 388.90873,388.90873 c -1.97389,-2.01573 -3.18826,-4.77835 -3.18826,-7.833 z"
       id="path3197"
       style="fill:#000000" />
    <path
       inkscape:connector-curvature="0"
       d="m 123.46951,330.55175 c 2.02872,2.07173 4.85974,3.3545 7.99924,3.3545 l 388.90873,388.90873 c -3.1395,0 -5.97052,-1.28277 -7.99924,-3.3545 z"
       id="path3199"
       style="fill:#000000" />
    <path
       inkscape:connector-curvature="0"
       d="m 131.46875,333.90625 249.0625,0 388.90873,388.90873 -249.0625,0 z"
       id="path3201"
       style="fill:#000000" />
    <path
       inkscape:connector-curvature="0"
       d="m 380.53125,333.90625 c 6.19415,0 11.1875,-4.99335 11.1875,-11.1875 l 388.90873,388.90873 c 0,6.19415 -4.99335,11.1875 -11.1875,11.1875 z"
       id="path3203"
       style="fill:#000000" />
    <path
       inkscape:connector-curvature="0"
       d="m 391.71875,322.71875 0,-181.1875 388.90873,388.90873 0,181.1875 z"
       id="path3205"
       style="fill:#000000" />
    <path
       inkscape:connector-curvature="0"
       d="m 391.71875,141.53125 c 0,-3.11873 -1.26586,-5.93305 -3.31349,-7.95887 L 777.31399,522.4811 c 2.04763,2.02583 3.31349,4.84015 3.31349,7.95888 z"
       id="path3207"
       style="fill:#000000" />
    <path
       inkscape:connector-curvature="0"
       d="m 388.40526,133.57238 c -2.01919,-1.99769 -4.79859,-3.22863 -7.87401,-3.22863 l 388.90873,388.90873 c 3.07542,0 5.85482,1.23094 7.87401,3.22862 z"
       id="path3209"
       style="fill:#000000" />
    <path
       inkscape:connector-curvature="0"
       d="m 380.53125,130.34375 -249.0625,0 388.90873,388.90873 249.0625,0 z"
       id="path3211"
       style="fill:#000000" />
    <path
       inkscape:connector-curvature="0"
       d="M 215.28125,177.84375 303.5,232.125 692.40873,621.03373 604.18998,566.75248 z"
       id="path3213"
       style="fill:#000000" />
    <path
       inkscape:connector-curvature="0"
       d="m 303.5,232.125 -88.21875,54.28125 388.90873,388.90873 88.21875,-54.28125 z"
       id="path3215"
       style="fill:#000000" />
    <path
       inkscape:connector-curvature="0"
       d="m 215.28125,286.40625 0,-108.5625 388.90873,388.90873 0,108.5625 z"
       id="path3217"
       style="fill:#000000" />
    <path
       inkscape:connector-curvature="0"
       d="m 260.5,354.9375 c -8.2081,0 -15.05483,5.81766 -16.625,13.5625 l 388.90873,388.90873 c 1.57017,-7.74484 8.4169,-13.5625 16.625,-13.5625 z"
       id="path3219"
       style="fill:#000000" />
    <path
       inkscape:connector-curvature="0"
       d="m 243.875,368.5 -100.46875,0 388.90873,388.90873 100.46875,0 z"
       id="path3221"
       style="fill:#000000" />
    <path
       inkscape:connector-curvature="0"
       d="m 143.40625,368.5 c -21.58763,0 -35.83748,0.1361 -45.40625,0.375 l 388.90873,388.90873 c 9.56877,-0.2389 23.81862,-0.375 45.40625,-0.375 z"
       id="path3223"
       style="fill:#000000" />
    <path
       inkscape:connector-curvature="0"
       d="m 98,368.875 0,6.40625 388.90873,388.90873 0,-6.40625 z"
       id="path3225"
       style="fill:#000000" />
    <path
       inkscape:connector-curvature="0"
       d="m 98,375.28125 145.875,0 388.90873,388.90873 -145.875,0 z"
       id="path3227"
       style="fill:#000000" />
    <path
       inkscape:connector-curvature="0"
       d="m 243.875,375.28125 c 0.6751,3.32993 2.32563,6.30937 4.6404,8.62414 l 388.90873,388.90873 c -2.31477,-2.31477 -3.9653,-5.29421 -4.6404,-8.62414 z"
       id="path3229"
       style="fill:#000000" />
    <path
       inkscape:connector-curvature="0"
       d="m 248.5154,383.90539 c 3.06899,3.06899 7.30561,4.96961 11.9846,4.96961 l 388.90873,388.90873 c -4.67899,0 -8.91561,-1.90062 -11.9846,-4.96961 z"
       id="path3231"
       style="fill:#000000" />
    <path
       inkscape:connector-curvature="0"
       d="m 260.5,388.875 c 8.2081,0 15.05483,-5.84891 16.625,-13.59375 l 388.90873,388.90873 c -1.57017,7.74484 -8.4169,13.59375 -16.625,13.59375 z"
       id="path3233"
       style="fill:#000000" />
    <path
       inkscape:connector-curvature="0"
       d="m 277.125,375.28125 136.875,0 388.90873,388.90873 -136.875,0 z"
       id="path3235"
       style="fill:#000000" />
    <path
       inkscape:connector-curvature="0"
       d="m 414,375.28125 0,-6.78125 388.90873,388.90873 0,6.78125 z"
       id="path3237"
       style="fill:#000000" />
    <path
       inkscape:connector-curvature="0"
       d="m 414,368.5 -136.875,0 388.90873,388.90873 136.875,0 z"
       id="path3239"
       style="fill:#000000" />
    <path
       inkscape:connector-curvature="0"
       d="m 277.125,368.5 c -0.67343,-3.32168 -2.31746,-6.28886 -4.62322,-8.59462 l 388.90873,388.90873 c 2.30576,2.30576 3.94979,5.27294 4.62322,8.59462 z"
       id="path3241"
       style="fill:#000000" />
    <path
       inkscape:connector-curvature="0"
       d="M 272.50178,359.90538 C 269.43143,356.83503 265.18773,354.9375 260.5,354.9375 l 388.90873,388.90873 c 4.68773,0 8.93143,1.89753 12.00178,4.96788 z"
       id="path3243"
       style="fill:#000000" />
  </g>
  <path
     inkscape:connector-curvature="0"
     style="fill:#ffffff;fill-opacity:1;stroke:none"
     d="m 131.46875,130.34375 c -6.19415,0 -11.1875,4.99335 -11.1875,11.1875 l 0,181.1875 c 0,6.19415 4.99335,11.1875 11.1875,11.1875 l 249.0625,0 c 6.19415,0 11.1875,-4.99335 11.1875,-11.1875 l 0,-181.1875 c 0,-6.19415 -4.99335,-11.1875 -11.1875,-11.1875 l -249.0625,0 z m 83.8125,47.5 88.21875,54.28125 -88.21875,54.28125 0,-108.5625 z M 260.5,354.9375 c -8.2081,0 -15.05483,5.81766 -16.625,13.5625 l -100.46875,0 c -21.58763,0 -35.83748,0.1361 -45.40625,0.375 l 0,6.40625 145.875,0 c 1.57017,7.74484 8.4169,13.59375 16.625,13.59375 8.2081,0 15.05483,-5.84891 16.625,-13.59375 l 136.875,0 0,-6.78125 -136.875,0 c -1.57017,-7.74484 -8.4169,-13.5625 -16.625,-13.5625 z"
     id="rect4095" />
</svg>
