<?xml version="1.0" encoding="UTF-8" standalone="no"?>
<!-- Created with Inkscape (http://www.inkscape.org/) -->

<svg
   xmlns:dc="http://purl.org/dc/elements/1.1/"
   xmlns:cc="http://creativecommons.org/ns#"
   xmlns:rdf="http://www.w3.org/1999/02/22-rdf-syntax-ns#"
   xmlns:svg="http://www.w3.org/2000/svg"
   xmlns="http://www.w3.org/2000/svg"
   xmlns:xlink="http://www.w3.org/1999/xlink"
   xmlns:inkscape="http://www.inkscape.org/namespaces/inkscape"
   version="1.1"
   width="100%"
   height="100%"
   viewBox="0 0 512 512"
   id="svg2">
  <metadata
     id="metadata70">
    <rdf:RDF>
      <cc:Work
         rdf:about="">
        <dc:format>image/svg+xml</dc:format>
        <dc:type
           rdf:resource="http://purl.org/dc/dcmitype/StillImage" />
        <dc:title />
      </cc:Work>
    </rdf:RDF>
  </metadata>
  <defs
     id="defs68">
    <filter
       color-interpolation-filters="sRGB"
       id="filter3174">
      <feGaussianBlur
         id="feGaussianBlur3176"
         stdDeviation="1.71" />
    </filter>
    <linearGradient
       x1="45.447727"
       y1="92.539597"
       x2="45.447727"
       y2="7.0165396"
       id="ButtonShadow"
       gradientUnits="userSpaceOnUse"
       gradientTransform="scale(1.0058652,0.994169)">
      <stop
         id="stop3750"
         style="stop-color:#000000;stop-opacity:1"
         offset="0" />
      <stop
         id="stop3752"
         style="stop-color:#000000;stop-opacity:0.58823532"
         offset="1" />
    </linearGradient>
    <linearGradient
       x1="45.447727"
       y1="92.539597"
       x2="45.447727"
       y2="7.0165396"
       id="linearGradient3158"
       xlink:href="#ButtonShadow"
       gradientUnits="userSpaceOnUse"
       gradientTransform="scale(1.0058652,0.994169)" />
    <clipPath
       id="clipPath3729">
      <path
         d="m 471.9456,253.05189 c 0,120.89699 -98.00565,218.90724 -218.90724,218.90724 -120.89698,0 -218.90723,-98.00566 -218.90723,-218.90724 0,-120.89698 98.00565,-218.907232 218.90723,-218.907232 120.89699,0 218.90724,98.005652 218.90724,218.907232"
         inkscape:connector-curvature="0"
         id="path3731"
         style="fill:#336699;fill-rule:evenodd" />
    </clipPath>
  </defs>
  <path
     d="m 471.9456,253.05189 c 0,120.89699 -98.00565,218.90724 -218.90724,218.90724 -120.89698,0 -218.90723,-98.00566 -218.90723,-218.90724 0,-120.89698 98.00565,-218.907232 218.90723,-218.907232 120.89699,0 218.90724,98.005652 218.90724,218.907232"
     inkscape:connector-curvature="0"
     id="path8"
     style="fill:#336699;fill-rule:evenodd" />
  <path
     d="M 256,1 C 115.17,1 1,115.17 1,256 1,396.83 115.17,511 256,511 396.83,511 511,396.83 511,256 511,115.17 396.83,1 256,1 m 8.827,44.931 c 120.9,0 218.9,98 218.9,218.9 0,120.9 -98,218.9 -218.9,218.9 -120.9,0 -218.93,-98 -218.93,-218.9 0,-120.9 98.03,-218.9 218.93,-218.9"
     inkscape:connector-curvature="0"
     id="path10"
     style="fill-opacity:0.06700003;fill-rule:evenodd" />
  <path
     d="M 256,4.43 C 117.06,4.43 4.43,117.06 4.43,256 4.43,394.94 117.06,507.57 256,507.57 394.94,507.57 507.57,394.94 507.57,256 507.57,117.06 394.94,4.43 256,4.43 m 5.885,38.556 c 120.9,0 218.9,98 218.9,218.9 0,120.9 -98,218.9 -218.9,218.9 -120.9,0 -218.93,-98 -218.93,-218.9 0,-120.9 98.03,-218.9 218.93,-218.9"
     inkscape:connector-curvature="0"
     id="path14"
     style="fill-opacity:0.12900002;fill-rule:evenodd" />
  <path
     d="M 256,8.36 C 119.23,8.36 8.36,119.23 8.36,256 8.36,392.77 119.23,503.64 256,503.64 392.77,503.64 503.64,392.77 503.64,256 503.64,119.23 392.77,8.36 256,8.36 m 2.942,31.691 c 120.9,0 218.9,98 218.9,218.9 0,120.9 -98,218.9 -218.9,218.9 -120.9,0 -218.93,-98 -218.93,-218.9 0,-120.9 98.03,-218.9 218.93,-218.9"
     inkscape:connector-curvature="0"
     id="path16"
     style="fill-opacity:0.12900002;fill-rule:evenodd" />
  <path
     d="M 253.04,7.86 C 117.62,7.86 7.85,117.64 7.85,253.05 c 0,135.42 109.78,245.19 245.19,245.19 135.42,0 245.19,-109.78 245.19,-245.19 C 498.23,117.63 388.45,7.86 253.04,7.86 z m 0,26.297 c 120.9,0 218.9,98 218.9,218.9 0,120.9 -98,218.9 -218.9,218.9 -120.9,0 -218.93,-98 -218.93,-218.9 0,-120.9 98.03,-218.9 218.93,-218.9 z"
     inkscape:connector-curvature="0"
     id="path18"
     style="fill:#ffffff;fill-rule:evenodd;stroke:#000000;stroke-width:4.90399981;stroke-opacity:0.31000001" />
  <text
     x="729.64001"
     y="231.35997"
     id="text20"
     style="font-size:129.22999573px;line-height:125%;letter-spacing:0;word-spacing:0;font-family:Gentium Book Basic">
    <tspan
       x="729.64001"
       y="231.35997"
       id="tspan22" />
  </text>
  <text
     x="378.90805"
     y="579.25812"
     transform="scale(4.0128205,0.24920128)"
     id="text24"
     style="font-size:46.95375824px;text-anchor:middle;font-family:Arial" />
  <text
     x="1310.91"
     y="151.35997"
     id="text26"
     style="font-size:129.22999573px;line-height:125%;letter-spacing:0;word-spacing:0;font-family:Gentium Book Basic">
    <tspan
       x="1310.91"
       y="151.35997"
       id="tspan28" />
  </text>
  <text
     x="523.75732"
     y="258.21997"
     transform="scale(4.0128205,0.24920128)"
     id="text30"
     style="font-size:46.95375824px;text-anchor:middle;font-family:Arial" />
  <text
     x="239.33"
     y="-29.900009"
     id="text32"
     style="font-size:129.22999573px;line-height:125%;letter-spacing:0;word-spacing:0;font-family:Gentium Book Basic">
    <tspan
       x="239.33"
       y="-29.900009"
       id="tspan34" />
  </text>
  <text
     x="256.71869"
     y="-469.1264"
     transform="scale(4.0128205,0.24920128)"
     id="text36"
     style="font-size:46.95375824px;text-anchor:middle;font-family:Arial" />
  <text
     x="1337.38"
     y="-246.37001"
     id="text38"
     style="font-size:129.22999573px;line-height:125%;letter-spacing:0;word-spacing:0;font-family:Gentium Book Basic">
    <tspan
       x="1337.38"
       y="-246.37001"
       id="tspan40" />
  </text>
  <text
     x="530.3573"
     y="-1337.802"
     transform="scale(4.0128205,0.24920128)"
     id="text42"
     style="font-size:46.95375824px;text-anchor:middle;font-family:Arial" />
  <text
     x="1918.65"
     y="-326.37"
     id="text44"
     style="font-size:129.22999573px;line-height:125%;letter-spacing:0;word-spacing:0;font-family:Gentium Book Basic">
    <tspan
       x="1918.65"
       y="-326.37"
       id="tspan46" />
  </text>
  <text
     x="675.20654"
     y="-1658.8303"
     transform="scale(4.0128205,0.24920128)"
     id="text48"
     style="font-size:46.95375824px;text-anchor:middle;font-family:Arial" />
  <text
     x="1529.53"
     y="-798.77002"
     id="text50"
     style="font-size:129.22999573px;line-height:125%;letter-spacing:0;word-spacing:0;font-family:Gentium Book Basic">
    <tspan
       x="1529.53"
       y="-798.77002"
       id="tspan52" />
  </text>
  <text
     x="578.237"
     y="-3554.4807"
     transform="scale(4.0128205,0.24920128)"
     id="text54"
     style="font-size:46.95375824px;text-anchor:middle;font-family:Arial" />
  <text
     x="2110.79"
     y="-878.78003"
     id="text56"
     style="font-size:129.22999573px;line-height:125%;letter-spacing:0;word-spacing:0;font-family:Gentium Book Basic">
    <tspan
       x="2110.79"
       y="-878.78003"
       id="tspan58" />
  </text>
  <text
     x="723.0863"
     y="-3875.519"
     transform="scale(4.0128205,0.24920128)"
     id="text60"
     style="font-size:46.95375824px;text-anchor:middle;font-family:Arial" />
  <text
     x="277.98999"
     y="535.94006"
     id="text62"
     style="font-size:208.33000183px;line-height:125%;letter-spacing:0;word-spacing:0;font-family:Gentium Book Basic">
    <tspan
       x="277.98999"
       y="535.94006"
       id="tspan64" />
  </text>
  <rect
     width="86"
     height="85"
     rx="6"
     ry="6"
     x="5"
     y="7"
     transform="matrix(2.1031074,0,0,2.1031074,-1451.36,143.20322)"
     id="rect3745"
     style="opacity:0.9;fill:url(#linearGradient3158);fill-opacity:1;fill-rule:nonzero;stroke:none;display:none;filter:url(#filter3174)" />
  <g
     clip-path="url(#clipPath3729)"
     id="g3492"
     style="opacity:0.25;fill:#000000;fill-opacity:1;stroke:none">
    <path
       d="m 264.92019,113.42996 c -4.21154,0 -7.90792,0.25921 -11.16629,0.60174 l 388.90873,388.90873 c 3.25837,-0.34253 6.95475,-0.60174 11.16629,-0.60174 z"
       inkscape:connector-curvature="0"
       id="path3494"
       style="fill:#000000" />
    <path
       d="m 253.7539,114.0317 c -11.2684,1.17665 -22.91244,3.83824 -26.51999,6.18043 l 388.90873,388.90873 c 3.60755,-2.34219 15.25159,-5.00378 26.51999,-6.18043 z"
       inkscape:connector-curvature="0"
       id="path3496"
       style="fill:#000000" />
    <path
       d="m 227.23391,120.21213 c -0.12276,0.0805 -0.12506,0.17775 -0.0122,0.29064 L 616.13048,509.4115 c -0.1129,-0.11289 -0.1106,-0.21017 0.0122,-0.29064 z"
       inkscape:connector-curvature="0"
       id="path3498"
       style="fill:#000000" />
    <path
       d="m 227.22175,120.50277 c 0.82219,0.8222 7.75407,2.4729 18.7556,4.4965 L 634.88608,513.908 c -11.00153,-2.0236 -17.93341,-3.6743 -18.7556,-4.4965 z"
       inkscape:connector-curvature="0"
       id="path3500"
       style="fill:#000000" />
    <path
       d="m 245.97735,124.99927 c 10.13202,1.86218 17.74839,3.57598 18.24232,4.06991 L 653.1284,517.97791 c -0.49393,-0.49393 -8.1103,-2.20773 -18.24232,-4.06991 z"
       inkscape:connector-curvature="0"
       id="path3502"
       style="fill:#000000" />
    <path
       d="m 264.21967,129.06918 c 0.0537,0.0537 0.0233,0.0929 -0.0971,0.11641 L 653.0313,518.09432 c 0.12033,-0.0235 0.15072,-0.0628 0.0971,-0.11641 z"
       inkscape:connector-curvature="0"
       id="path3504"
       style="fill:#000000" />
    <path
       d="m 264.12261,129.18559 c -1.22812,0.2407 -18.7374,-1.57658 -39.08209,-4.18632 L 613.94925,513.908 c 20.34469,2.60974 37.85397,4.42702 39.08209,4.18632 z"
       inkscape:connector-curvature="0"
       id="path3506"
       style="fill:#000000" />
    <path
       d="m 225.04052,124.99927 c -35.71673,-4.58348 -37.19259,-4.84453 -39.68026,-2.59307 l 388.90873,388.90873 c 2.48767,-2.25146 3.96353,-1.99041 39.68026,2.59307 z"
       inkscape:connector-curvature="0"
       id="path3508"
       style="fill:#000000" />
    <path
       d="m 185.36026,122.4062 c -5.18677,4.69456 -12.62092,17.66087 -14.15728,24.52636 l 388.90873,388.90873 c 1.53636,-6.86549 8.97051,-19.8318 14.15728,-24.52636 z"
       inkscape:connector-curvature="0"
       id="path3510"
       style="fill:#000000" />
    <path
       d="m 171.20298,146.93256 c -1.48747,6.64701 -1.31539,7.39317 1.99399,14.15683 L 562.1057,549.99812 c -3.30938,-6.76366 -3.48146,-7.50982 -1.99399,-14.15683 z"
       inkscape:connector-curvature="0"
       id="path3512"
       style="fill:#000000" />
    <path
       d="m 173.19697,161.08939 c 2.00775,4.10375 4.61476,7.79864 8.21635,11.40024 l 388.90873,388.90873 c -3.60159,-3.6016 -6.2086,-7.29649 -8.21635,-11.40024 z"
       inkscape:connector-curvature="0"
       id="path3514"
       style="fill:#000000" />
    <path
       d="m 181.41332,172.48963 c 6.51711,6.5171 16.29079,12.72872 31.66331,20.50448 l 388.90873,388.90873 c -15.37252,-7.77577 -25.14621,-13.98738 -31.66331,-20.50448 z"
       inkscape:connector-curvature="0"
       id="path3516"
       style="fill:#000000" />
    <path
       d="m 213.07663,192.99411 c 10.46961,5.29436 18.96153,9.91555 19.86866,10.82268 l 388.90873,388.90873 c -0.90713,-0.90713 -9.39905,-5.52832 -19.86866,-10.82268 z"
       inkscape:connector-curvature="0"
       id="path3518"
       style="fill:#000000" />
    <path
       d="m 232.94529,203.81679 c 0.0708,0.0708 0.0954,0.11892 0.0712,0.14304 l 388.90873,388.90873 c 0.0242,-0.0241 -4e-4,-0.0723 -0.0712,-0.14304 z"
       inkscape:connector-curvature="0"
       id="path3520"
       style="fill:#000000" />
    <path
       d="m 233.01645,203.95983 c -0.33438,0.33327 -9.89806,-3.24574 -21.33561,-7.97549 l 388.90873,388.90873 c 11.43755,4.72975 21.00123,8.30876 21.33561,7.97549 z"
       inkscape:connector-curvature="0"
       id="path3522"
       style="fill:#000000" />
    <path
       d="m 211.68084,195.98434 -20.73743,-8.57353 388.90873,388.90873 20.73743,8.57353 z"
       inkscape:connector-curvature="0"
       id="path3524"
       style="fill:#000000" />
    <path
       d="m 190.94341,187.41081 -30.50792,8.57353 388.90873,388.90873 30.50792,-8.57353 z"
       inkscape:connector-curvature="0"
       id="path3526"
       style="fill:#000000" />
    <path
       d="m 160.43549,195.98434 c -16.78342,4.69734 -31.92972,8.57353 -32.61838,8.57353 L 516.72584,593.4666 c 0.68866,0 15.83496,-3.87619 32.61838,-8.57353 z"
       inkscape:connector-curvature="0"
       id="path3528"
       style="fill:#000000" />
    <path
       d="m 127.81711,204.55787 -0.48492,194.01217 388.90873,388.90873 0.48492,-194.01217 z"
       inkscape:connector-curvature="0"
       id="path3530"
       style="fill:#000000" />
    <path
       d="m 127.33219,398.57004 27.12137,0 388.90873,388.90873 -27.12137,0 z"
       inkscape:connector-curvature="0"
       id="path3532"
       style="fill:#000000" />
    <path
       d="m 154.45356,398.57004 c 0,-2.00244 66.98188,-83.45146 68.39362,-83.14595 l 388.90873,388.90873 c -1.41174,-0.30551 -68.39362,81.14351 -68.39362,83.14595 z"
       inkscape:connector-curvature="0"
       id="path3534"
       style="fill:#000000" />
    <path
       d="m 222.84718,315.42409 c 0.80652,0.16663 30.65278,12.95982 66.39965,28.31551 l 388.90873,388.90873 c -35.74687,-15.35569 -65.59313,-28.14888 -66.39965,-28.31551 z"
       inkscape:connector-curvature="0"
       id="path3536"
       style="fill:#000000" />
    <path
       d="m 289.24683,343.7396 c 61.05122,26.2233 65.14759,27.73507 66.79843,25.52249 l 388.90873,388.90873 c -1.65084,2.21258 -5.74721,0.70081 -66.79843,-25.52249 z"
       inkscape:connector-curvature="0"
       id="path3538"
       style="fill:#000000" />
    <path
       d="m 356.04526,369.26209 c 2.49652,-3.34572 11.20408,-21.31024 15.75246,-32.70088 l 388.90873,388.90873 c -4.54838,11.39064 -13.25594,29.35516 -15.75246,32.70088 z"
       inkscape:connector-curvature="0"
       id="path3540"
       style="fill:#000000" />
    <path
       d="m 371.79772,336.56121 3.78856,-9.57243 388.90873,388.90873 -3.78856,9.57243 z"
       inkscape:connector-curvature="0"
       id="path3542"
       style="fill:#000000" />
    <path
       d="m 375.58628,326.98878 -6.58014,-3.5892 388.90873,388.90873 6.58014,3.5892 z"
       inkscape:connector-curvature="0"
       id="path3544"
       style="fill:#000000" />
    <path
       d="m 369.00614,323.39958 c -7.5392,-4.12202 -17.90364,-12.40269 -26.05756,-20.55661 L 731.85731,691.7517 c 8.15392,8.15392 18.51836,16.43459 26.05756,20.55661 z"
       inkscape:connector-curvature="0"
       id="path3546"
       style="fill:#000000" />
    <path
       d="m 342.94858,302.84297 c -1.81017,-1.81017 -3.5114,-3.6141 -5.04859,-5.36489 l 388.90873,388.90873 c 1.53719,1.75079 3.23842,3.55472 5.04859,5.36489 z"
       inkscape:connector-curvature="0"
       id="path3548"
       style="fill:#000000" />
    <path
       d="m 337.89999,297.47808 c -7.72134,-8.79479 -21.73441,-30.13003 -21.73441,-33.09989 l 388.90873,388.90873 c 0,2.96986 14.01307,24.3051 21.73441,33.09989 z"
       inkscape:connector-curvature="0"
       id="path3550"
       style="fill:#000000" />
    <path
       d="m 316.16558,264.37819 c 0,-0.49814 1.17089,0.41301 3.02967,2.27179 l 388.90873,388.90873 c -1.85878,-1.85878 -3.02967,-2.76993 -3.02967,-2.27179 z"
       inkscape:connector-curvature="0"
       id="path3552"
       style="fill:#000000" />
    <path
       d="m 319.19525,266.64998 c 1.80988,1.80987 4.27192,4.51817 6.94025,7.69873 l 388.90873,388.90873 c -2.66833,-3.18056 -5.13037,-5.88886 -6.94025,-7.69873 z"
       inkscape:connector-curvature="0"
       id="path3554"
       style="fill:#000000" />
    <path
       d="m 326.1355,274.34871 c 2.53441,3.02061 5.62145,6.32755 9.0164,9.7225 l 388.90873,388.90873 c -3.39495,-3.39495 -6.48199,-6.70189 -9.0164,-9.7225 z"
       inkscape:connector-curvature="0"
       id="path3556"
       style="fill:#000000" />
    <path
       d="m 335.1519,284.07121 c 16.95615,16.95615 41.59347,36.10793 43.42535,32.748 l 388.90873,388.90873 c -1.83188,3.35993 -26.4692,-15.79185 -43.42535,-32.748 z"
       inkscape:connector-curvature="0"
       id="path3558"
       style="fill:#000000" />
    <path
       d="m 378.57725,316.81921 c 2.60902,-4.78436 4.27096,-18.92454 4.18738,-35.29395 l 388.90873,388.90873 c 0.0836,16.36941 -1.57836,30.50959 -4.18738,35.29395 z"
       inkscape:connector-curvature="0"
       id="path3560"
       style="fill:#000000" />
    <path
       d="m 382.76463,281.52526 c -0.10212,-19.98177 -2.89232,-35.5541 -9.77053,-57.02728 l 388.90873,388.90873 c 6.87821,21.47318 9.66841,37.04551 9.77053,57.02728 z"
       inkscape:connector-curvature="0"
       id="path3562"
       style="fill:#000000" />
    <path
       d="m 372.9941,224.49798 -3.78855,-11.96277 388.90873,388.90873 3.78855,11.96277 z"
       inkscape:connector-curvature="0"
       id="path3564"
       style="fill:#000000" />
    <path
       d="m 369.20555,212.53521 -18.94283,-5.98323 388.90873,388.90873 18.94283,5.98323 z"
       inkscape:connector-curvature="0"
       id="path3566"
       style="fill:#000000" />
    <path
       d="m 350.26272,206.55198 -23.32962,-7.37745 388.90873,388.90873 23.32962,7.37745 z"
       inkscape:connector-curvature="0"
       id="path3568"
       style="fill:#000000" />
    <path
       d="m 326.9331,199.17453 c -2.41513,-0.75905 -3.69551,-1.28714 -3.9948,-1.58644 l 388.90873,388.90873 c 0.29929,0.2993 1.57967,0.82739 3.9948,1.58644 z"
       inkscape:connector-curvature="0"
       id="path3570"
       style="fill:#000000" />
    <path
       d="m 322.9383,197.58809 c -0.72096,-0.72096 4.25107,-0.11424 12.76832,1.79011 l 388.90873,388.90873 c -8.51725,-1.90435 -13.48928,-2.51107 -12.76832,-1.79011 z"
       inkscape:connector-curvature="0"
       id="path3572"
       style="fill:#000000" />
    <path
       d="m 335.70662,199.3782 c 14.41143,3.2189 29.22006,6.03786 38.28449,7.1784 l 388.90873,388.90873 c -9.06443,-1.14054 -23.87306,-3.9595 -38.28449,-7.1784 z"
       inkscape:connector-curvature="0"
       id="path3574"
       style="fill:#000000" />
    <path
       d="m 373.99111,206.5566 c 7.98109,1.00539 9.71468,-0.68507 10.56811,-9.57151 l 388.90873,388.90873 c -0.85343,8.88644 -2.58702,10.5769 -10.56811,9.57151 z"
       inkscape:connector-curvature="0"
       id="path3576"
       style="fill:#000000" />
    <path
       d="m 384.55922,196.98509 c 1.08816,-11.32306 -6.18615,-42.65103 -13.5591,-58.22335 l 388.90873,388.90873 c 7.37295,15.57232 14.64726,46.90029 13.5591,58.22335 z"
       inkscape:connector-curvature="0"
       id="path3578"
       style="fill:#000000" />
    <path
       d="m 371.00012,138.76174 c -1.4625,-3.08868 -2.52794,-4.95283 -3.95298,-6.37787 L 755.95587,521.2926 c 1.42504,1.42504 2.49048,3.28919 3.95298,6.37787 z"
       inkscape:connector-curvature="0"
       id="path3580"
       style="fill:#000000" />
    <path
       d="m 367.04714,132.38387 c -1.44227,-1.44227 -3.25289,-2.43475 -6.21632,-3.7917 L 749.73955,517.5009 c 2.96343,1.35695 4.77405,2.34943 6.21632,3.7917 z"
       inkscape:connector-curvature="0"
       id="path3582"
       style="fill:#000000" />
    <path
       d="m 360.83082,128.59217 c -17.16003,-7.85791 -66.42992,-15.24646 -95.91063,-15.15574 l 388.90873,388.90873 c 29.48071,-0.0907 78.7506,7.29783 95.91063,15.15574 z"
       inkscape:connector-curvature="0"
       id="path3584"
       style="fill:#000000" />
  </g>
  <path
     d="m 264.92019,113.42996 c -4.21154,0 -7.90792,0.25921 -11.16629,0.60174 -11.2684,1.17665 -22.91244,3.83824 -26.51999,6.18043 -1.01683,0.66656 6.23132,2.48569 18.74344,4.78714 11.2326,2.06446 19.37335,3.94655 18.14526,4.18632 -1.22812,0.2407 -18.7374,-1.57658 -39.08209,-4.18632 -35.71673,-4.58348 -37.19259,-4.84453 -39.68026,-2.59307 -5.18677,4.69456 -12.62092,17.66087 -14.15728,24.52636 -1.48747,6.64701 -1.31539,7.39317 1.99399,14.15683 5.64078,11.52951 16.01172,19.83178 39.87966,31.90472 11.28633,5.70736 20.27438,10.63244 19.93982,10.96572 -0.33438,0.33327 -9.89806,-3.24574 -21.33561,-7.97549 l -20.73743,-8.57353 -30.50792,8.57353 c -16.78342,4.69734 -31.92972,8.57353 -32.61838,8.57353 l -0.48492,194.01217 27.12137,0 c 0,-2.00244 66.98188,-83.45146 68.39362,-83.14595 0.80652,0.16663 30.65278,12.95982 66.39965,28.31551 61.05122,26.2233 65.14759,27.73507 66.79843,25.52249 2.49652,-3.34572 11.20408,-21.31024 15.75246,-32.70088 l 3.78856,-9.57243 -6.58014,-3.5892 c -9.2129,-5.03711 -22.64469,-16.28426 -31.10615,-25.9215 -7.72134,-8.79479 -21.73441,-30.13003 -21.73441,-33.09989 0,-0.98317 4.56116,3.52347 9.96992,9.97052 15.19258,18.10708 50.24309,46.50315 52.44175,42.4705 2.60902,-4.78436 4.27096,-18.92454 4.18738,-35.29395 -0.10212,-19.98177 -2.89232,-35.5541 -9.77053,-57.02728 l -3.78855,-11.96277 -18.94283,-5.98323 -23.32962,-7.37745 c -8.23289,-2.58751 -3.27949,-2.49123 8.77352,0.20367 14.41143,3.2189 29.22006,6.03786 38.28449,7.1784 7.98109,1.00539 9.71468,-0.68507 10.56811,-9.57151 1.08816,-11.32306 -6.18615,-42.65103 -13.5591,-58.22335 -2.94268,-6.21469 -4.27784,-7.47188 -10.1693,-10.16957 -17.16003,-7.85791 -66.42992,-15.24646 -95.91063,-15.15574 z"
     inkscape:connector-curvature="0"
     id="path3062"
     style="fill:#ffffff;fill-opacity:1;stroke:none" />
</svg>
