<?xml version="1.0" encoding="UTF-8" standalone="no"?>
<!-- Created with Inkscape (http://www.inkscape.org/) -->

<svg
   xmlns:dc="http://purl.org/dc/elements/1.1/"
   xmlns:cc="http://creativecommons.org/ns#"
   xmlns:rdf="http://www.w3.org/1999/02/22-rdf-syntax-ns#"
   xmlns:svg="http://www.w3.org/2000/svg"
   xmlns="http://www.w3.org/2000/svg"
   xmlns:inkscape="http://www.inkscape.org/namespaces/inkscape"
   version="1.1"
   width="100%"
   height="100%"
   viewBox="0 0 512 512"
   id="svg2">
  <metadata
     id="metadata70">
    <rdf:RDF>
      <cc:Work
         rdf:about="">
        <dc:format>image/svg+xml</dc:format>
        <dc:type
           rdf:resource="http://purl.org/dc/dcmitype/StillImage" />
        <dc:title />
      </cc:Work>
    </rdf:RDF>
  </metadata>
  <defs
     id="defs68">
    <clipPath
       id="clipPath3610">
      <path
         d="m 471.9456,253.05189 c 0,120.89699 -98.00565,218.90724 -218.90724,218.90724 -120.89698,0 -218.90723,-98.00566 -218.90723,-218.90724 0,-120.89698 98.00565,-218.907232 218.90723,-218.907232 120.89699,0 218.90724,98.005652 218.90724,218.907232"
         inkscape:connector-curvature="0"
         id="path3612"
         style="fill:#5133ab;fill-opacity:1;fill-rule:evenodd" />
    </clipPath>
  </defs>
  <path
     d="m 471.9456,253.05189 c 0,120.89699 -98.00565,218.90724 -218.90724,218.90724 -120.89698,0 -218.90723,-98.00566 -218.90723,-218.90724 0,-120.89698 98.00565,-218.907232 218.90723,-218.907232 120.89699,0 218.90724,98.005652 218.90724,218.907232"
     inkscape:connector-curvature="0"
     id="path8"
     style="fill:#5133ab;fill-opacity:1;fill-rule:evenodd" />
  <path
     d="M 256,1 C 115.17,1 1,115.17 1,256 1,396.83 115.17,511 256,511 396.83,511 511,396.83 511,256 511,115.17 396.83,1 256,1 m 8.827,44.931 c 120.9,0 218.9,98 218.9,218.9 0,120.9 -98,218.9 -218.9,218.9 -120.9,0 -218.93,-98 -218.93,-218.9 0,-120.9 98.03,-218.9 218.93,-218.9"
     inkscape:connector-curvature="0"
     id="path10"
     style="fill-opacity:0.06700003;fill-rule:evenodd" />
  <path
     d="M 256,4.43 C 117.06,4.43 4.43,117.06 4.43,256 4.43,394.94 117.06,507.57 256,507.57 394.94,507.57 507.57,394.94 507.57,256 507.57,117.06 394.94,4.43 256,4.43 m 5.885,38.556 c 120.9,0 218.9,98 218.9,218.9 0,120.9 -98,218.9 -218.9,218.9 -120.9,0 -218.93,-98 -218.93,-218.9 0,-120.9 98.03,-218.9 218.93,-218.9"
     inkscape:connector-curvature="0"
     id="path14"
     style="fill-opacity:0.12900002;fill-rule:evenodd" />
  <path
     d="M 256,8.36 C 119.23,8.36 8.36,119.23 8.36,256 8.36,392.77 119.23,503.64 256,503.64 392.77,503.64 503.64,392.77 503.64,256 503.64,119.23 392.77,8.36 256,8.36 m 2.942,31.691 c 120.9,0 218.9,98 218.9,218.9 0,120.9 -98,218.9 -218.9,218.9 -120.9,0 -218.93,-98 -218.93,-218.9 0,-120.9 98.03,-218.9 218.93,-218.9"
     inkscape:connector-curvature="0"
     id="path16"
     style="fill-opacity:0.12900002;fill-rule:evenodd" />
  <path
     d="M 253.04,7.86 C 117.62,7.86 7.85,117.64 7.85,253.05 c 0,135.42 109.78,245.19 245.19,245.19 135.42,0 245.19,-109.78 245.19,-245.19 C 498.23,117.63 388.45,7.86 253.04,7.86 z m 0,26.297 c 120.9,0 218.9,98 218.9,218.9 0,120.9 -98,218.9 -218.9,218.9 -120.9,0 -218.93,-98 -218.93,-218.9 0,-120.9 98.03,-218.9 218.93,-218.9 z"
     inkscape:connector-curvature="0"
     id="path18"
     style="fill:#ffffff;fill-rule:evenodd;stroke:#000000;stroke-width:4.90399981;stroke-opacity:0.31000001" />
  <text
     x="729.64001"
     y="231.35997"
     id="text20"
     style="font-size:129.22999573px;line-height:125%;letter-spacing:0;word-spacing:0;font-family:Gentium Book Basic">
    <tspan
       x="729.64001"
       y="231.35997"
       id="tspan22" />
  </text>
  <text
     x="378.90805"
     y="579.25812"
     transform="scale(4.0128205,0.24920128)"
     id="text24"
     style="font-size:46.95375824px;text-anchor:middle;font-family:Arial" />
  <text
     x="1310.91"
     y="151.35997"
     id="text26"
     style="font-size:129.22999573px;line-height:125%;letter-spacing:0;word-spacing:0;font-family:Gentium Book Basic">
    <tspan
       x="1310.91"
       y="151.35997"
       id="tspan28" />
  </text>
  <text
     x="523.75732"
     y="258.21997"
     transform="scale(4.0128205,0.24920128)"
     id="text30"
     style="font-size:46.95375824px;text-anchor:middle;font-family:Arial" />
  <text
     x="239.33"
     y="-29.900009"
     id="text32"
     style="font-size:129.22999573px;line-height:125%;letter-spacing:0;word-spacing:0;font-family:Gentium Book Basic">
    <tspan
       x="239.33"
       y="-29.900009"
       id="tspan34" />
  </text>
  <text
     x="256.71869"
     y="-469.1264"
     transform="scale(4.0128205,0.24920128)"
     id="text36"
     style="font-size:46.95375824px;text-anchor:middle;font-family:Arial" />
  <text
     x="1337.38"
     y="-246.37001"
     id="text38"
     style="font-size:129.22999573px;line-height:125%;letter-spacing:0;word-spacing:0;font-family:Gentium Book Basic">
    <tspan
       x="1337.38"
       y="-246.37001"
       id="tspan40" />
  </text>
  <text
     x="530.3573"
     y="-1337.802"
     transform="scale(4.0128205,0.24920128)"
     id="text42"
     style="font-size:46.95375824px;text-anchor:middle;font-family:Arial" />
  <text
     x="1918.65"
     y="-326.37"
     id="text44"
     style="font-size:129.22999573px;line-height:125%;letter-spacing:0;word-spacing:0;font-family:Gentium Book Basic">
    <tspan
       x="1918.65"
       y="-326.37"
       id="tspan46" />
  </text>
  <text
     x="675.20654"
     y="-1658.8303"
     transform="scale(4.0128205,0.24920128)"
     id="text48"
     style="font-size:46.95375824px;text-anchor:middle;font-family:Arial" />
  <text
     x="1529.53"
     y="-798.77002"
     id="text50"
     style="font-size:129.22999573px;line-height:125%;letter-spacing:0;word-spacing:0;font-family:Gentium Book Basic">
    <tspan
       x="1529.53"
       y="-798.77002"
       id="tspan52" />
  </text>
  <text
     x="578.237"
     y="-3554.4807"
     transform="scale(4.0128205,0.24920128)"
     id="text54"
     style="font-size:46.95375824px;text-anchor:middle;font-family:Arial" />
  <text
     x="2110.79"
     y="-878.78003"
     id="text56"
     style="font-size:129.22999573px;line-height:125%;letter-spacing:0;word-spacing:0;font-family:Gentium Book Basic">
    <tspan
       x="2110.79"
       y="-878.78003"
       id="tspan58" />
  </text>
  <text
     x="723.0863"
     y="-3875.519"
     transform="scale(4.0128205,0.24920128)"
     id="text60"
     style="font-size:46.95375824px;text-anchor:middle;font-family:Arial" />
  <text
     x="277.98999"
     y="535.94006"
     id="text62"
     style="font-size:208.33000183px;line-height:125%;letter-spacing:0;word-spacing:0;font-family:Gentium Book Basic">
    <tspan
       x="277.98999"
       y="535.94006"
       id="tspan64" />
  </text>
  <g
     clip-path="url(#clipPath3610)"
     id="g3250"
     style="opacity:0.25;fill:#000000;fill-opacity:1;stroke:none">
    <path
       d="m 124.01684,136.06876 0,239.86248 388.90873,388.90873 0,-239.86248 z"
       inkscape:connector-curvature="0"
       id="path3252"
       style="fill:#000000" />
    <path
       d="m 124.01684,375.93124 263.96632,0 388.90873,388.90873 -263.96632,0 z"
       inkscape:connector-curvature="0"
       id="path3254"
       style="fill:#000000" />
    <path
       d="m 387.98316,375.93124 0,-239.86248 388.90873,388.90873 0,239.86248 z"
       inkscape:connector-curvature="0"
       id="path3256"
       style="fill:#000000" />
    <path
       d="m 387.98316,136.06876 -263.96632,0 388.90873,388.90873 263.96632,0 z"
       inkscape:connector-curvature="0"
       id="path3258"
       style="fill:#000000" />
    <path
       d="m 144.88723,173.9462 222.22554,0 388.90873,388.90873 -222.22554,0 z"
       inkscape:connector-curvature="0"
       id="path3260"
       style="fill:#000000" />
    <path
       d="m 367.11277,173.9462 0,183.04632 388.90873,388.90873 0,-183.04632 z"
       inkscape:connector-curvature="0"
       id="path3262"
       style="fill:#000000" />
    <path
       d="m 367.11277,356.99252 -222.22554,0 388.90873,388.90873 222.22554,0 z"
       inkscape:connector-curvature="0"
       id="path3264"
       style="fill:#000000" />
    <path
       d="m 144.88723,356.99252 0,-183.04632 388.90873,388.90873 0,183.04632 z"
       inkscape:connector-curvature="0"
       id="path3266"
       style="fill:#000000" />
    <path
       d="m 196.16036,184.10844 0,33.59419 388.90873,388.90873 0,-33.59419 z"
       inkscape:connector-curvature="0"
       id="path3268"
       style="fill:#000000" />
    <path
       d="m 196.16036,217.70263 33.59418,0 388.90873,388.90873 -33.59418,0 z"
       inkscape:connector-curvature="0"
       id="path3270"
       style="fill:#000000" />
    <path
       d="m 229.75454,217.70263 0,-33.59419 388.90873,388.90873 0,33.59419 z"
       inkscape:connector-curvature="0"
       id="path3272"
       style="fill:#000000" />
    <path
       d="m 229.75454,184.10844 -33.59418,0 388.90873,388.90873 33.59418,0 z"
       inkscape:connector-curvature="0"
       id="path3274"
       style="fill:#000000" />
    <path
       d="m 239.41287,184.10844 0,33.59419 388.90873,388.90873 0,-33.59419 z"
       inkscape:connector-curvature="0"
       id="path3276"
       style="fill:#000000" />
    <path
       d="m 239.41287,217.70263 33.59419,0 388.90873,388.90873 -33.59419,0 z"
       inkscape:connector-curvature="0"
       id="path3278"
       style="fill:#000000" />
    <path
       d="m 273.00706,217.70263 0,-33.59419 388.90873,388.90873 0,33.59419 z"
       inkscape:connector-curvature="0"
       id="path3280"
       style="fill:#000000" />
    <path
       d="m 273.00706,184.10844 -33.59419,0 388.90873,388.90873 33.59419,0 z"
       inkscape:connector-curvature="0"
       id="path3282"
       style="fill:#000000" />
    <path
       d="m 282.70738,184.10844 0,33.59419 388.90873,388.90873 0,-33.59419 z"
       inkscape:connector-curvature="0"
       id="path3284"
       style="fill:#000000" />
    <path
       d="m 282.70738,217.70263 33.59418,0 388.90873,388.90873 -33.59418,0 z"
       inkscape:connector-curvature="0"
       id="path3286"
       style="fill:#000000" />
    <path
       d="m 316.30156,217.70263 0,-33.59419 388.90873,388.90873 0,33.59419 z"
       inkscape:connector-curvature="0"
       id="path3288"
       style="fill:#000000" />
    <path
       d="m 316.30156,184.10844 -33.59418,0 388.90873,388.90873 33.59418,0 z"
       inkscape:connector-curvature="0"
       id="path3290"
       style="fill:#000000" />
    <path
       d="m 325.95989,184.10844 0,33.59419 388.90873,388.90873 0,-33.59419 z"
       inkscape:connector-curvature="0"
       id="path3292"
       style="fill:#000000" />
    <path
       d="m 325.95989,217.70263 33.59419,0 388.90873,388.90873 -33.59419,0 z"
       inkscape:connector-curvature="0"
       id="path3294"
       style="fill:#000000" />
    <path
       d="m 359.55408,217.70263 0,-33.59419 388.90873,388.90873 0,33.59419 z"
       inkscape:connector-curvature="0"
       id="path3296"
       style="fill:#000000" />
    <path
       d="m 359.55408,184.10844 -33.59419,0 388.90873,388.90873 33.59419,0 z"
       inkscape:connector-curvature="0"
       id="path3298"
       style="fill:#000000" />
    <path
       d="m 152.90784,227.36096 0,33.59418 388.90873,388.90873 0,-33.59418 z"
       inkscape:connector-curvature="0"
       id="path3300"
       style="fill:#000000" />
    <path
       d="m 152.90784,260.95514 33.59419,0 388.90873,388.90873 -33.59419,0 z"
       inkscape:connector-curvature="0"
       id="path3302"
       style="fill:#000000" />
    <path
       d="m 186.50203,260.95514 0,-33.59418 388.90873,388.90873 0,33.59418 z"
       inkscape:connector-curvature="0"
       id="path3304"
       style="fill:#000000" />
    <path
       d="m 186.50203,227.36096 -33.59419,0 388.90873,388.90873 33.59419,0 z"
       inkscape:connector-curvature="0"
       id="path3306"
       style="fill:#000000" />
    <path
       d="m 196.16036,227.36096 0,33.59418 388.90873,388.90873 0,-33.59418 z"
       inkscape:connector-curvature="0"
       id="path3308"
       style="fill:#000000" />
    <path
       d="m 196.16036,260.95514 33.59418,0 388.90873,388.90873 -33.59418,0 z"
       inkscape:connector-curvature="0"
       id="path3310"
       style="fill:#000000" />
    <path
       d="m 229.75454,260.95514 0,-33.59418 388.90873,388.90873 0,33.59418 z"
       inkscape:connector-curvature="0"
       id="path3312"
       style="fill:#000000" />
    <path
       d="m 229.75454,227.36096 -33.59418,0 388.90873,388.90873 33.59418,0 z"
       inkscape:connector-curvature="0"
       id="path3314"
       style="fill:#000000" />
    <path
       d="m 239.41287,227.36096 0,33.59418 388.90873,388.90873 0,-33.59418 z"
       inkscape:connector-curvature="0"
       id="path3316"
       style="fill:#000000" />
    <path
       d="m 239.41287,260.95514 33.59419,0 388.90873,388.90873 -33.59419,0 z"
       inkscape:connector-curvature="0"
       id="path3318"
       style="fill:#000000" />
    <path
       d="m 273.00706,260.95514 0,-33.59418 388.90873,388.90873 0,33.59418 z"
       inkscape:connector-curvature="0"
       id="path3320"
       style="fill:#000000" />
    <path
       d="m 273.00706,227.36096 -33.59419,0 388.90873,388.90873 33.59419,0 z"
       inkscape:connector-curvature="0"
       id="path3322"
       style="fill:#000000" />
    <path
       d="m 282.70738,227.36096 0,33.59418 388.90873,388.90873 0,-33.59418 z"
       inkscape:connector-curvature="0"
       id="path3324"
       style="fill:#000000" />
    <path
       d="m 282.70738,260.95514 33.59418,0 388.90873,388.90873 -33.59418,0 z"
       inkscape:connector-curvature="0"
       id="path3326"
       style="fill:#000000" />
    <path
       d="m 316.30156,260.95514 0,-33.59418 388.90873,388.90873 0,33.59418 z"
       inkscape:connector-curvature="0"
       id="path3328"
       style="fill:#000000" />
    <path
       d="m 316.30156,227.36096 -33.59418,0 388.90873,388.90873 33.59418,0 z"
       inkscape:connector-curvature="0"
       id="path3330"
       style="fill:#000000" />
    <path
       d="m 325.95989,227.36096 0,33.59418 388.90873,388.90873 0,-33.59418 z"
       inkscape:connector-curvature="0"
       id="path3332"
       style="fill:#000000" />
    <path
       d="m 325.95989,260.95514 33.59419,0 388.90873,388.90873 -33.59419,0 z"
       inkscape:connector-curvature="0"
       id="path3334"
       style="fill:#000000" />
    <path
       d="m 359.55408,260.95514 0,-33.59418 388.90873,388.90873 0,33.59418 z"
       inkscape:connector-curvature="0"
       id="path3336"
       style="fill:#000000" />
    <path
       d="m 359.55408,227.36096 -33.59419,0 388.90873,388.90873 33.59419,0 z"
       inkscape:connector-curvature="0"
       id="path3338"
       style="fill:#000000" />
    <path
       d="m 152.90784,270.65546 0,33.59419 388.90873,388.90873 0,-33.59419 z"
       inkscape:connector-curvature="0"
       id="path3340"
       style="fill:#000000" />
    <path
       d="m 152.90784,304.24965 33.59419,0 388.90873,388.90873 -33.59419,0 z"
       inkscape:connector-curvature="0"
       id="path3342"
       style="fill:#000000" />
    <path
       d="m 186.50203,304.24965 0,-33.59419 388.90873,388.90873 0,33.59419 z"
       inkscape:connector-curvature="0"
       id="path3344"
       style="fill:#000000" />
    <path
       d="m 186.50203,270.65546 -33.59419,0 388.90873,388.90873 33.59419,0 z"
       inkscape:connector-curvature="0"
       id="path3346"
       style="fill:#000000" />
    <path
       d="m 196.16036,270.65546 0,33.59419 388.90873,388.90873 0,-33.59419 z"
       inkscape:connector-curvature="0"
       id="path3348"
       style="fill:#000000" />
    <path
       d="m 196.16036,304.24965 33.59418,0 388.90873,388.90873 -33.59418,0 z"
       inkscape:connector-curvature="0"
       id="path3350"
       style="fill:#000000" />
    <path
       d="m 229.75454,304.24965 0,-33.59419 388.90873,388.90873 0,33.59419 z"
       inkscape:connector-curvature="0"
       id="path3352"
       style="fill:#000000" />
    <path
       d="m 229.75454,270.65546 -33.59418,0 388.90873,388.90873 33.59418,0 z"
       inkscape:connector-curvature="0"
       id="path3354"
       style="fill:#000000" />
    <path
       d="m 239.41287,270.65546 0,33.59419 388.90873,388.90873 0,-33.59419 z"
       inkscape:connector-curvature="0"
       id="path3356"
       style="fill:#000000" />
    <path
       d="m 239.41287,304.24965 33.59419,0 388.90873,388.90873 -33.59419,0 z"
       inkscape:connector-curvature="0"
       id="path3358"
       style="fill:#000000" />
    <path
       d="m 273.00706,304.24965 0,-33.59419 388.90873,388.90873 0,33.59419 z"
       inkscape:connector-curvature="0"
       id="path3360"
       style="fill:#000000" />
    <path
       d="m 273.00706,270.65546 -33.59419,0 388.90873,388.90873 33.59419,0 z"
       inkscape:connector-curvature="0"
       id="path3362"
       style="fill:#000000" />
    <path
       d="m 282.70738,270.65546 0,33.59419 388.90873,388.90873 0,-33.59419 z"
       inkscape:connector-curvature="0"
       id="path3364"
       style="fill:#000000" />
    <path
       d="m 282.70738,304.24965 33.59418,0 388.90873,388.90873 -33.59418,0 z"
       inkscape:connector-curvature="0"
       id="path3366"
       style="fill:#000000" />
    <path
       d="m 316.30156,304.24965 0,-33.59419 388.90873,388.90873 0,33.59419 z"
       inkscape:connector-curvature="0"
       id="path3368"
       style="fill:#000000" />
    <path
       d="m 316.30156,270.65546 -33.59418,0 388.90873,388.90873 33.59418,0 z"
       inkscape:connector-curvature="0"
       id="path3370"
       style="fill:#000000" />
    <path
       d="m 325.95989,270.65546 0,33.59419 388.90873,388.90873 0,-33.59419 z"
       inkscape:connector-curvature="0"
       id="path3372"
       style="fill:#000000" />
    <path
       d="m 325.95989,304.24965 33.59419,0 388.90873,388.90873 -33.59419,0 z"
       inkscape:connector-curvature="0"
       id="path3374"
       style="fill:#000000" />
    <path
       d="m 359.55408,304.24965 0,-33.59419 388.90873,388.90873 0,33.59419 z"
       inkscape:connector-curvature="0"
       id="path3376"
       style="fill:#000000" />
    <path
       d="m 359.55408,270.65546 -33.59419,0 388.90873,388.90873 33.59419,0 z"
       inkscape:connector-curvature="0"
       id="path3378"
       style="fill:#000000" />
    <path
       d="m 152.90784,313.90798 0,33.59418 388.90873,388.90873 0,-33.59418 z"
       inkscape:connector-curvature="0"
       id="path3380"
       style="fill:#000000" />
    <path
       d="m 152.90784,347.50216 33.59419,0 388.90873,388.90873 -33.59419,0 z"
       inkscape:connector-curvature="0"
       id="path3382"
       style="fill:#000000" />
    <path
       d="m 186.50203,347.50216 0,-33.59418 388.90873,388.90873 0,33.59418 z"
       inkscape:connector-curvature="0"
       id="path3384"
       style="fill:#000000" />
    <path
       d="m 186.50203,313.90798 -33.59419,0 388.90873,388.90873 33.59419,0 z"
       inkscape:connector-curvature="0"
       id="path3386"
       style="fill:#000000" />
    <path
       d="m 196.16036,313.90798 0,33.59418 388.90873,388.90873 0,-33.59418 z"
       inkscape:connector-curvature="0"
       id="path3388"
       style="fill:#000000" />
    <path
       d="m 196.16036,347.50216 33.59418,0 388.90873,388.90873 -33.59418,0 z"
       inkscape:connector-curvature="0"
       id="path3390"
       style="fill:#000000" />
    <path
       d="m 229.75454,347.50216 0,-33.59418 388.90873,388.90873 0,33.59418 z"
       inkscape:connector-curvature="0"
       id="path3392"
       style="fill:#000000" />
    <path
       d="m 229.75454,313.90798 -33.59418,0 388.90873,388.90873 33.59418,0 z"
       inkscape:connector-curvature="0"
       id="path3394"
       style="fill:#000000" />
    <path
       d="m 239.41287,313.90798 0,33.59418 388.90873,388.90873 0,-33.59418 z"
       inkscape:connector-curvature="0"
       id="path3396"
       style="fill:#000000" />
    <path
       d="m 239.41287,347.50216 33.59419,0 388.90873,388.90873 -33.59419,0 z"
       inkscape:connector-curvature="0"
       id="path3398"
       style="fill:#000000" />
    <path
       d="m 273.00706,347.50216 0,-33.59418 388.90873,388.90873 0,33.59418 z"
       inkscape:connector-curvature="0"
       id="path3400"
       style="fill:#000000" />
    <path
       d="m 273.00706,313.90798 -33.59419,0 388.90873,388.90873 33.59419,0 z"
       inkscape:connector-curvature="0"
       id="path3402"
       style="fill:#000000" />
    <path
       d="m 282.70738,313.90798 0,33.59418 388.90873,388.90873 0,-33.59418 z"
       inkscape:connector-curvature="0"
       id="path3404"
       style="fill:#000000" />
    <path
       d="m 282.70738,347.50216 33.59418,0 388.90873,388.90873 -33.59418,0 z"
       inkscape:connector-curvature="0"
       id="path3406"
       style="fill:#000000" />
    <path
       d="m 316.30156,347.50216 0,-33.59418 388.90873,388.90873 0,33.59418 z"
       inkscape:connector-curvature="0"
       id="path3408"
       style="fill:#000000" />
    <path
       d="m 316.30156,313.90798 -33.59418,0 388.90873,388.90873 33.59418,0 z"
       inkscape:connector-curvature="0"
       id="path3410"
       style="fill:#000000" />
  </g>
  <path
     d="m 124.01684,136.06876 0,239.86248 263.96632,0 0,-239.86248 -263.96632,0 z m 20.87039,37.87744 222.22554,0 0,183.04632 -222.22554,0 0,-183.04632 z m 51.27313,10.16224 0,33.59419 33.59418,0 0,-33.59419 -33.59418,0 z m 43.25251,0 0,33.59419 33.59419,0 0,-33.59419 -33.59419,0 z m 43.29451,0 0,33.59419 33.59418,0 0,-33.59419 -33.59418,0 z m 43.25251,0 0,33.59419 33.59419,0 0,-33.59419 -33.59419,0 z m -173.05205,43.25252 0,33.59418 33.59419,0 0,-33.59418 -33.59419,0 z m 43.25252,0 0,33.59418 33.59418,0 0,-33.59418 -33.59418,0 z m 43.25251,0 0,33.59418 33.59419,0 0,-33.59418 -33.59419,0 z m 43.29451,0 0,33.59418 33.59418,0 0,-33.59418 -33.59418,0 z m 43.25251,0 0,33.59418 33.59419,0 0,-33.59418 -33.59419,0 z m -173.05205,43.2945 0,33.59419 33.59419,0 0,-33.59419 -33.59419,0 z m 43.25252,0 0,33.59419 33.59418,0 0,-33.59419 -33.59418,0 z m 43.25251,0 0,33.59419 33.59419,0 0,-33.59419 -33.59419,0 z m 43.29451,0 0,33.59419 33.59418,0 0,-33.59419 -33.59418,0 z m 43.25251,0 0,33.59419 33.59419,0 0,-33.59419 -33.59419,0 z m -173.05205,43.25252 0,33.59418 33.59419,0 0,-33.59418 -33.59419,0 z m 43.25252,0 0,33.59418 33.59418,0 0,-33.59418 -33.59418,0 z m 43.25251,0 0,33.59418 33.59419,0 0,-33.59418 -33.59419,0 z m 43.29451,0 0,33.59418 33.59418,0 0,-33.59418 -33.59418,0 z"
     inkscape:connector-curvature="0"
     id="rect3115"
     style="fill:#ffffff;fill-opacity:1;stroke:none" />
</svg>
