<?xml version="1.0" encoding="UTF-8" standalone="no"?>
<!-- Created with Inkscape (http://www.inkscape.org/) -->

<svg
   xmlns:dc="http://purl.org/dc/elements/1.1/"
   xmlns:cc="http://creativecommons.org/ns#"
   xmlns:rdf="http://www.w3.org/1999/02/22-rdf-syntax-ns#"
   xmlns:svg="http://www.w3.org/2000/svg"
   xmlns="http://www.w3.org/2000/svg"
   xmlns:inkscape="http://www.inkscape.org/namespaces/inkscape"
   version="1.1"
   width="100%"
   height="100%"
   viewBox="0 0 512 512"
   id="svg2">
  <metadata
     id="metadata70">
    <rdf:RDF>
      <cc:Work
         rdf:about="">
        <dc:format>image/svg+xml</dc:format>
        <dc:type
           rdf:resource="http://purl.org/dc/dcmitype/StillImage" />
        <dc:title />
      </cc:Work>
    </rdf:RDF>
  </metadata>
  <defs
     id="defs68">
    <clipPath
       id="clipPath4444">
      <path
         d="m 471.9456,253.05189 c 0,120.89699 -98.00565,218.90724 -218.90724,218.90724 -120.89698,0 -218.90723,-98.00566 -218.90723,-218.90724 0,-120.89698 98.00565,-218.907232 218.90723,-218.907232 120.89699,0 218.90724,98.005652 218.90724,218.907232"
         inkscape:connector-curvature="0"
         id="path4446"
         style="fill:#62377a;fill-opacity:1;fill-rule:evenodd" />
    </clipPath>
  </defs>
  <path
     d="m 471.9456,253.05189 c 0,120.89699 -98.00565,218.90724 -218.90724,218.90724 -120.89698,0 -218.90723,-98.00566 -218.90723,-218.90724 0,-120.89698 98.00565,-218.907232 218.90723,-218.907232 120.89699,0 218.90724,98.005652 218.90724,218.907232"
     inkscape:connector-curvature="0"
     id="path8"
     style="fill:#62377a;fill-opacity:1;fill-rule:evenodd" />
  <path
     d="M 256,1 C 115.17,1 1,115.17 1,256 1,396.83 115.17,511 256,511 396.83,511 511,396.83 511,256 511,115.17 396.83,1 256,1 m 8.827,44.931 c 120.9,0 218.9,98 218.9,218.9 0,120.9 -98,218.9 -218.9,218.9 -120.9,0 -218.93,-98 -218.93,-218.9 0,-120.9 98.03,-218.9 218.93,-218.9"
     inkscape:connector-curvature="0"
     id="path10"
     style="fill-opacity:0.06700003;fill-rule:evenodd" />
  <path
     d="M 256,4.43 C 117.06,4.43 4.43,117.06 4.43,256 4.43,394.94 117.06,507.57 256,507.57 394.94,507.57 507.57,394.94 507.57,256 507.57,117.06 394.94,4.43 256,4.43 m 5.885,38.556 c 120.9,0 218.9,98 218.9,218.9 0,120.9 -98,218.9 -218.9,218.9 -120.9,0 -218.93,-98 -218.93,-218.9 0,-120.9 98.03,-218.9 218.93,-218.9"
     inkscape:connector-curvature="0"
     id="path14"
     style="fill-opacity:0.12900002;fill-rule:evenodd" />
  <path
     d="M 256,8.36 C 119.23,8.36 8.36,119.23 8.36,256 8.36,392.77 119.23,503.64 256,503.64 392.77,503.64 503.64,392.77 503.64,256 503.64,119.23 392.77,8.36 256,8.36 m 2.942,31.691 c 120.9,0 218.9,98 218.9,218.9 0,120.9 -98,218.9 -218.9,218.9 -120.9,0 -218.93,-98 -218.93,-218.9 0,-120.9 98.03,-218.9 218.93,-218.9"
     inkscape:connector-curvature="0"
     id="path16"
     style="fill-opacity:0.12900002;fill-rule:evenodd" />
  <path
     d="M 253.04,7.86 C 117.62,7.86 7.85,117.64 7.85,253.05 c 0,135.42 109.78,245.19 245.19,245.19 135.42,0 245.19,-109.78 245.19,-245.19 C 498.23,117.63 388.45,7.86 253.04,7.86 z m 0,26.297 c 120.9,0 218.9,98 218.9,218.9 0,120.9 -98,218.9 -218.9,218.9 -120.9,0 -218.93,-98 -218.93,-218.9 0,-120.9 98.03,-218.9 218.93,-218.9 z"
     inkscape:connector-curvature="0"
     id="path18"
     style="fill:#ffffff;fill-rule:evenodd;stroke:#000000;stroke-width:4.90399981;stroke-opacity:0.31000001" />
  <text
     x="729.64001"
     y="231.35997"
     id="text20"
     style="font-size:129.22999573px;line-height:125%;letter-spacing:0;word-spacing:0;font-family:Gentium Book Basic">
    <tspan
       x="729.64001"
       y="231.35997"
       id="tspan22" />
  </text>
  <text
     x="378.90805"
     y="579.25812"
     transform="scale(4.0128205,0.24920128)"
     id="text24"
     style="font-size:46.95375824px;text-anchor:middle;font-family:Arial" />
  <text
     x="1310.91"
     y="151.35997"
     id="text26"
     style="font-size:129.22999573px;line-height:125%;letter-spacing:0;word-spacing:0;font-family:Gentium Book Basic">
    <tspan
       x="1310.91"
       y="151.35997"
       id="tspan28" />
  </text>
  <text
     x="523.75732"
     y="258.21997"
     transform="scale(4.0128205,0.24920128)"
     id="text30"
     style="font-size:46.95375824px;text-anchor:middle;font-family:Arial" />
  <text
     x="239.33"
     y="-29.900009"
     id="text32"
     style="font-size:129.22999573px;line-height:125%;letter-spacing:0;word-spacing:0;font-family:Gentium Book Basic">
    <tspan
       x="239.33"
       y="-29.900009"
       id="tspan34" />
  </text>
  <text
     x="256.71869"
     y="-469.1264"
     transform="scale(4.0128205,0.24920128)"
     id="text36"
     style="font-size:46.95375824px;text-anchor:middle;font-family:Arial" />
  <text
     x="1337.38"
     y="-246.37001"
     id="text38"
     style="font-size:129.22999573px;line-height:125%;letter-spacing:0;word-spacing:0;font-family:Gentium Book Basic">
    <tspan
       x="1337.38"
       y="-246.37001"
       id="tspan40" />
  </text>
  <text
     x="530.3573"
     y="-1337.802"
     transform="scale(4.0128205,0.24920128)"
     id="text42"
     style="font-size:46.95375824px;text-anchor:middle;font-family:Arial" />
  <text
     x="1918.65"
     y="-326.37"
     id="text44"
     style="font-size:129.22999573px;line-height:125%;letter-spacing:0;word-spacing:0;font-family:Gentium Book Basic">
    <tspan
       x="1918.65"
       y="-326.37"
       id="tspan46" />
  </text>
  <text
     x="675.20654"
     y="-1658.8303"
     transform="scale(4.0128205,0.24920128)"
     id="text48"
     style="font-size:46.95375824px;text-anchor:middle;font-family:Arial" />
  <text
     x="1529.53"
     y="-798.77002"
     id="text50"
     style="font-size:129.22999573px;line-height:125%;letter-spacing:0;word-spacing:0;font-family:Gentium Book Basic">
    <tspan
       x="1529.53"
       y="-798.77002"
       id="tspan52" />
  </text>
  <text
     x="578.237"
     y="-3554.4807"
     transform="scale(4.0128205,0.24920128)"
     id="text54"
     style="font-size:46.95375824px;text-anchor:middle;font-family:Arial" />
  <text
     x="2110.79"
     y="-878.78003"
     id="text56"
     style="font-size:129.22999573px;line-height:125%;letter-spacing:0;word-spacing:0;font-family:Gentium Book Basic">
    <tspan
       x="2110.79"
       y="-878.78003"
       id="tspan58" />
  </text>
  <text
     x="723.0863"
     y="-3875.519"
     transform="scale(4.0128205,0.24920128)"
     id="text60"
     style="font-size:46.95375824px;text-anchor:middle;font-family:Arial" />
  <text
     x="277.98999"
     y="535.94006"
     id="text62"
     style="font-size:208.33000183px;line-height:125%;letter-spacing:0;word-spacing:0;font-family:Gentium Book Basic">
    <tspan
       x="277.98999"
       y="535.94006"
       id="tspan64" />
  </text>
  <g
     clip-path="url(#clipPath4444)"
     id="g4160"
     style="opacity:0.25;fill:#000000;fill-opacity:1;fill-rule:evenodd;stroke:none">
    <path
       d="M 276.73771,127.89493 124.45139,154.76884 513.36012,543.67757 665.64644,516.80366 z"
       inkscape:connector-curvature="0"
       id="path4162"
       style="fill:#000000" />
    <path
       d="m 124.45139,154.76884 0,202.79645 388.90873,388.90873 0,-202.79645 z"
       inkscape:connector-curvature="0"
       id="path4164"
       style="fill:#000000" />
    <path
       d="M 124.45139,357.56529 276.73771,384.10507 665.64644,773.0138 513.36012,746.47402 z"
       inkscape:connector-curvature="0"
       id="path4166"
       style="fill:#000000" />
    <path
       d="m 276.73771,384.10507 0,-256.21014 388.90873,388.90873 0,256.21014 z"
       inkscape:connector-curvature="0"
       id="path4168"
       style="fill:#000000" />
    <path
       d="m 282.50209,157.35865 0,25.62081 388.90873,388.90873 0,-25.62081 z"
       inkscape:connector-curvature="0"
       id="path4170"
       style="fill:#000000" />
    <path
       d="m 282.50209,182.97946 66.93522,0 388.90873,388.90873 -66.93522,0 z"
       inkscape:connector-curvature="0"
       id="path4172"
       style="fill:#000000" />
    <path
       d="m 349.43731,182.97946 0,10.08816 388.90873,388.90873 0,-10.08816 z"
       inkscape:connector-curvature="0"
       id="path4174"
       style="fill:#000000" />
    <path
       d="m 349.43731,193.06762 -66.93522,0 388.90873,388.90873 66.93522,0 z"
       inkscape:connector-curvature="0"
       id="path4176"
       style="fill:#000000" />
    <path
       d="m 282.50209,193.06762 0,16.94267 388.90873,388.90873 0,-16.94267 z"
       inkscape:connector-curvature="0"
       id="path4178"
       style="fill:#000000" />
    <path
       d="m 282.50209,210.01029 66.93522,0 388.90873,388.90873 -66.93522,0 z"
       inkscape:connector-curvature="0"
       id="path4180"
       style="fill:#000000" />
    <path
       d="m 349.43731,210.01029 0,10.08819 388.90873,388.90873 0,-10.08819 z"
       inkscape:connector-curvature="0"
       id="path4182"
       style="fill:#000000" />
    <path
       d="m 349.43731,220.09848 -66.93522,0 388.90873,388.90873 66.93522,0 z"
       inkscape:connector-curvature="0"
       id="path4184"
       style="fill:#000000" />
    <path
       d="m 282.50209,220.09848 0,16.94265 388.90873,388.90873 0,-16.94265 z"
       inkscape:connector-curvature="0"
       id="path4186"
       style="fill:#000000" />
    <path
       d="m 282.50209,237.04113 66.93522,0 388.90873,388.90873 -66.93522,0 z"
       inkscape:connector-curvature="0"
       id="path4188"
       style="fill:#000000" />
    <path
       d="m 349.43731,237.04113 0,10.08816 388.90873,388.90873 0,-10.08816 z"
       inkscape:connector-curvature="0"
       id="path4190"
       style="fill:#000000" />
    <path
       d="m 349.43731,247.12929 -66.93522,0 388.90873,388.90873 66.93522,0 z"
       inkscape:connector-curvature="0"
       id="path4192"
       style="fill:#000000" />
    <path
       d="m 282.50209,247.12929 0,16.94064 388.90873,388.90873 0,-16.94064 z"
       inkscape:connector-curvature="0"
       id="path4194"
       style="fill:#000000" />
    <path
       d="m 282.50209,264.06993 66.93522,0 388.90873,388.90873 -66.93522,0 z"
       inkscape:connector-curvature="0"
       id="path4196"
       style="fill:#000000" />
    <path
       d="m 349.43731,264.06993 0,10.08815 388.90873,388.90873 0,-10.08815 z"
       inkscape:connector-curvature="0"
       id="path4198"
       style="fill:#000000" />
    <path
       d="m 349.43731,274.15808 -66.93522,0 388.90873,388.90873 66.93522,0 z"
       inkscape:connector-curvature="0"
       id="path4200"
       style="fill:#000000" />
    <path
       d="m 282.50209,274.15808 0,16.94265 388.90873,388.90873 0,-16.94265 z"
       inkscape:connector-curvature="0"
       id="path4202"
       style="fill:#000000" />
    <path
       d="m 282.50209,291.10073 66.93522,0 388.90873,388.90873 -66.93522,0 z"
       inkscape:connector-curvature="0"
       id="path4204"
       style="fill:#000000" />
    <path
       d="m 349.43731,291.10073 0,10.0882 388.90873,388.90873 0,-10.0882 z"
       inkscape:connector-curvature="0"
       id="path4206"
       style="fill:#000000" />
    <path
       d="m 349.43731,301.18893 -66.93522,0 388.90873,388.90873 66.93522,0 z"
       inkscape:connector-curvature="0"
       id="path4208"
       style="fill:#000000" />
    <path
       d="m 282.50209,301.18893 0,16.94266 388.90873,388.90873 0,-16.94266 z"
       inkscape:connector-curvature="0"
       id="path4210"
       style="fill:#000000" />
    <path
       d="m 282.50209,318.13159 66.93522,0 388.90873,388.90873 -66.93522,0 z"
       inkscape:connector-curvature="0"
       id="path4212"
       style="fill:#000000" />
    <path
       d="m 349.43731,318.13159 0,10.08816 388.90873,388.90873 0,-10.08816 z"
       inkscape:connector-curvature="0"
       id="path4214"
       style="fill:#000000" />
    <path
       d="m 349.43731,328.21975 -66.93522,0 388.90873,388.90873 66.93522,0 z"
       inkscape:connector-curvature="0"
       id="path4216"
       style="fill:#000000" />
    <path
       d="m 282.50209,328.21975 0,25.78179 388.90873,388.90873 0,-25.78179 z"
       inkscape:connector-curvature="0"
       id="path4218"
       style="fill:#000000" />
    <path
       d="m 282.50209,354.00154 87.40091,0 388.90873,388.90873 -87.40091,0 z"
       inkscape:connector-curvature="0"
       id="path4220"
       style="fill:#000000" />
    <path
       d="m 369.903,354.00154 0,-133.63412 388.90873,388.90873 0,133.63412 z"
       inkscape:connector-curvature="0"
       id="path4222"
       style="fill:#000000" />
    <path
       d="m 369.903,220.36742 17.64561,0 388.90873,388.90873 -17.64561,0 z"
       inkscape:connector-curvature="0"
       id="path4224"
       style="fill:#000000" />
    <path
       d="m 387.54861,220.36742 0,-51.33737 388.90873,388.90873 0,51.33737 z"
       inkscape:connector-curvature="0"
       id="path4226"
       style="fill:#000000" />
    <path
       d="m 387.54861,169.03005 -17.28088,0 388.90873,388.90873 17.28088,0 z"
       inkscape:connector-curvature="0"
       id="path4228"
       style="fill:#000000" />
    <path
       d="m 370.26773,169.03005 0,-11.6714 388.90873,388.90873 0,11.6714 z"
       inkscape:connector-curvature="0"
       id="path4230"
       style="fill:#000000" />
    <path
       d="m 370.26773,157.35865 -87.76564,0 388.90873,388.90873 87.76564,0 z"
       inkscape:connector-curvature="0"
       id="path4232"
       style="fill:#000000" />
    <path
       d="m 170.01424,220.39392 10.82576,0 388.90873,388.90873 -10.82576,0 z"
       inkscape:connector-curvature="0"
       id="path4234"
       style="fill:#000000" />
    <path
       d="m 180.84,220.39392 35.65601,55.86697 388.90873,388.90873 -35.65601,-55.86697 z"
       inkscape:connector-curvature="0"
       id="path4236"
       style="fill:#000000" />
    <path
       d="m 216.49601,276.26089 c 1.48967,2.31732 2.44879,3.90723 2.87913,4.76799 l 388.90873,388.90873 c -0.43034,-0.86076 -1.38946,-2.45067 -2.87913,-4.76799 z"
       inkscape:connector-curvature="0"
       id="path4238"
       style="fill:#000000" />
    <path
       d="m 219.37514,281.02888 0.20043,0 388.90873,388.90873 -0.20043,0 z"
       inkscape:connector-curvature="0"
       id="path4240"
       style="fill:#000000" />
    <path
       d="m 219.57557,281.02888 c -0.331,-2.05264 -0.49725,-5.54663 -0.49725,-10.47937 l 388.90873,388.90873 c 0,4.93274 0.16625,8.42673 0.49725,10.47937 z"
       inkscape:connector-curvature="0"
       id="path4242"
       style="fill:#000000" />
    <path
       d="m 219.07832,270.54951 0,-50.15559 388.90873,388.90873 0,50.15559 z"
       inkscape:connector-curvature="0"
       id="path4244"
       style="fill:#000000" />
    <path
       d="m 219.07832,220.39392 8.34195,0 388.90873,388.90873 -8.34195,0 z"
       inkscape:connector-curvature="0"
       id="path4246"
       style="fill:#000000" />
    <path
       d="m 227.42027,220.39392 0,71.21214 388.90873,388.90873 0,-71.21214 z"
       inkscape:connector-curvature="0"
       id="path4248"
       style="fill:#000000" />
    <path
       d="m 227.42027,291.60606 -10.22876,0 388.90873,388.90873 10.22876,0 z"
       inkscape:connector-curvature="0"
       id="path4250"
       style="fill:#000000" />
    <path
       d="m 217.19151,291.60606 -36.64832,-56.76146 388.90873,388.90873 36.64832,56.76146 z"
       inkscape:connector-curvature="0"
       id="path4252"
       style="fill:#000000" />
    <path
       d="m 180.54319,234.8446 c -0.92699,-1.42365 -1.68833,-2.91243 -2.28402,-4.46848 L 567.1679,619.28485 c 0.59569,1.55605 1.35703,3.04483 2.28402,4.46848 z"
       inkscape:connector-curvature="0"
       id="path4254"
       style="fill:#000000" />
    <path
       d="m 178.25917,230.37612 -0.29741,0 388.90873,388.90873 0.29741,0 z"
       inkscape:connector-curvature="0"
       id="path4256"
       style="fill:#000000" />
    <path
       d="m 177.96176,230.37612 c 0.26529,1.52298 0.39733,4.78356 0.39733,9.78253 l 388.90873,388.90873 c 0,-4.99897 -0.13204,-8.25955 -0.39733,-9.78253 z"
       inkscape:connector-curvature="0"
       id="path4258"
       style="fill:#000000" />
    <path
       d="m 178.35909,240.15865 0,51.44741 388.90873,388.90873 0,-51.44741 z"
       inkscape:connector-curvature="0"
       id="path4260"
       style="fill:#000000" />
    <path
       d="m 178.35909,291.60606 -8.34397,0 388.90873,388.90873 8.34397,0 z"
       inkscape:connector-curvature="0"
       id="path4262"
       style="fill:#000000" />
    <path
       d="m 170.01512,291.60606 0,-71.21214 388.90873,388.90873 0,71.21214 z"
       inkscape:connector-curvature="0"
       id="path4264"
       style="fill:#000000" />
    <path
       d="m 377.2995,229.73837 0,51.88347 388.90873,388.90873 0,-51.88347 z"
       inkscape:connector-curvature="0"
       id="path4266"
       style="fill:#000000" />
    <path
       d="m 377.2995,281.62184 10.24911,0 388.90873,388.90873 -10.24911,0 z"
       inkscape:connector-curvature="0"
       id="path4268"
       style="fill:#000000" />
    <path
       d="m 387.54861,281.62184 0,-51.88347 388.90873,388.90873 0,51.88347 z"
       inkscape:connector-curvature="0"
       id="path4270"
       style="fill:#000000" />
    <path
       d="m 387.54861,229.73837 -10.24911,0 388.90873,388.90873 10.24911,0 z"
       inkscape:connector-curvature="0"
       id="path4272"
       style="fill:#000000" />
    <path
       d="m 377.2995,287.7061 0,51.88347 388.90873,388.90873 0,-51.88347 z"
       inkscape:connector-curvature="0"
       id="path4274"
       style="fill:#000000" />
    <path
       d="m 377.2995,339.58957 10.24911,0 388.90873,388.90873 -10.24911,0 z"
       inkscape:connector-curvature="0"
       id="path4276"
       style="fill:#000000" />
    <path
       d="m 387.54861,339.58957 0,-51.88347 388.90873,388.90873 0,51.88347 z"
       inkscape:connector-curvature="0"
       id="path4278"
       style="fill:#000000" />
    <path
       d="m 387.54861,287.7061 -10.24911,0 388.90873,388.90873 10.24911,0 z"
       inkscape:connector-curvature="0"
       id="path4280"
       style="fill:#000000" />
  </g>
  <path
     d="m 276.73771,127.89493 -152.28632,26.87391 0,202.79645 152.28632,26.53978 0,-256.21014 z m 5.76438,29.46372 0,25.62081 66.93522,0 0,10.08816 -66.93522,0 0,16.94267 66.93522,0 0,10.08819 -66.93522,0 0,16.94265 66.93522,0 0,10.08816 -66.93522,0 0,16.94064 66.93522,0 0,10.08815 -66.93522,0 0,16.94265 66.93522,0 0,10.0882 -66.93522,0 0,16.94266 66.93522,0 0,10.08816 -66.93522,0 0,25.78179 87.40091,0 0,-133.63412 17.64561,0 0,-51.33737 -17.28088,0 0,-11.6714 -87.76564,0 z m -112.48785,63.03527 10.82576,0 35.65601,55.86697 c 1.48967,2.31732 2.44879,3.90723 2.87913,4.76799 l 0.20043,0 c -0.331,-2.05264 -0.49725,-5.54663 -0.49725,-10.47937 l 0,-50.15559 8.34195,0 0,71.21214 -10.22876,0 -36.64832,-56.76146 c -0.92699,-1.42365 -1.68833,-2.91243 -2.28402,-4.46848 l -0.29741,0 c 0.26529,1.52298 0.39733,4.78356 0.39733,9.78253 l 0,51.44741 -8.34397,0 0,-71.21214 z m 207.28526,9.34445 0,51.88347 10.24911,0 0,-51.88347 -10.24911,0 z m 0,57.96773 0,51.88347 10.24911,0 0,-51.88347 -10.24911,0 z"
     inkscape:connector-curvature="0"
     id="path4350"
     style="fill:#ffffff;fill-opacity:1;fill-rule:evenodd;stroke:none" />
</svg>
