<?xml version="1.0" encoding="UTF-8" standalone="no"?>
<svg
   xmlns:dc="http://purl.org/dc/elements/1.1/"
   xmlns:cc="http://creativecommons.org/ns#"
   xmlns:rdf="http://www.w3.org/1999/02/22-rdf-syntax-ns#"
   xmlns:svg="http://www.w3.org/2000/svg"
   xmlns="http://www.w3.org/2000/svg"
   xmlns:xlink="http://www.w3.org/1999/xlink"
   xmlns:sodipodi="http://sodipodi.sourceforge.net/DTD/sodipodi-0.dtd"
   xmlns:inkscape="http://www.inkscape.org/namespaces/inkscape"
   viewBox="0 0 512 512"
   id="svg2"
   version="1.1"
   inkscape:version="0.48.5 r10040"
   width="100%"
   height="100%"
   sodipodi:docname="a base.svg">
  <sodipodi:namedview
     pagecolor="#ffffff"
     bordercolor="#666666"
     borderopacity="1"
     objecttolerance="10"
     gridtolerance="10"
     guidetolerance="10"
     inkscape:pageopacity="0"
     inkscape:pageshadow="2"
     inkscape:window-width="1306"
     inkscape:window-height="706"
     id="namedview66"
     showgrid="false"
     inkscape:zoom="0.4609375"
     inkscape:cx="-11.932203"
     inkscape:cy="235.38983"
     inkscape:window-x="56"
     inkscape:window-y="26"
     inkscape:window-maximized="1"
     inkscape:current-layer="svg2" />
  <metadata
     id="metadata70">
    <rdf:RDF>
      <cc:Work
         rdf:about="">
        <dc:format>image/svg+xml</dc:format>
        <dc:type
           rdf:resource="http://purl.org/dc/dcmitype/StillImage" />
        <dc:title></dc:title>
      </cc:Work>
    </rdf:RDF>
  </metadata>
  <defs
     id="defs68">
    <linearGradient
       xlink:href="#0"
       id="1"
       gradientUnits="userSpaceOnUse"
       gradientTransform="matrix(1.0381,0,0,1.46193,-228.29,-118.25)"
       x1="257"
       x2="362" />
    <linearGradient
       xlink:href="#0"
       id="2"
       gradientUnits="userSpaceOnUse"
       gradientTransform="matrix(1.0381,0,0,1.46193,-119.29,-118.25)"
       x1="257"
       x2="362" />
    <linearGradient
       id="0">
      <stop
         id="stop3028" />
      <stop
         offset="1"
         stop-color="#fff"
         id="stop3030" />
    </linearGradient>
    <linearGradient
       xlink:href="#0"
       id="3"
       gradientUnits="userSpaceOnUse"
       gradientTransform="matrix(1.0381,0,0,1.46193,-10.289,-118.25)"
       x1="257"
       x2="362" />
    <linearGradient
       xlink:href="#0"
       id="4"
       gradientUnits="userSpaceOnUse"
       gradientTransform="matrix(1.02835,0,0,1.46193,101.22,-118.25)"
       x1="257"
       x2="362" />
    <linearGradient
       xlink:href="#0"
       id="6"
       gradientUnits="userSpaceOnUse"
       gradientTransform="matrix(1.0381,0,0,1.46193,-337.29,-118.25)"
       x1="257"
       x2="362" />
    <linearGradient
       xlink:href="#0"
       id="5"
       gradientUnits="userSpaceOnUse"
       gradientTransform="matrix(1.02835,0,0,1.46193,209.19,-118.25)"
       x1="257"
       x2="362" />
    <linearGradient
       id="8"
       y1="19.564"
       x2="0"
       y2="504.02"
       gradientUnits="userSpaceOnUse">
      <stop
         stop-color="#f3f3f3"
         id="stop3017" />
      <stop
         offset=".5"
         stop-color="#eee"
         id="stop3019" />
      <stop
         offset="1"
         stop-color="#ebebeb"
         id="stop3021" />
    </linearGradient>
    <filter
       id="7">
      <feGaussianBlur
         stdDeviation="3.7725"
         id="feGaussianBlur3014" />
    </filter>
    <linearGradient
       x2="362"
       x1="257"
       gradientTransform="matrix(1.02835,0,0,1.46193,-452.50291,-136.44344)"
       gradientUnits="userSpaceOnUse"
       id="linearGradient3101"
       xlink:href="#0"
       inkscape:collect="always" />
    <linearGradient
       x2="362"
       x1="257"
       gradientTransform="matrix(1.0381,0,0,1.46193,-998.98291,-136.44344)"
       gradientUnits="userSpaceOnUse"
       id="linearGradient3104"
       xlink:href="#0"
       inkscape:collect="always" />
    <linearGradient
       x2="362"
       x1="257"
       gradientTransform="matrix(1.02835,0,0,1.46193,-560.47291,-136.44344)"
       gradientUnits="userSpaceOnUse"
       id="linearGradient3107"
       xlink:href="#0"
       inkscape:collect="always" />
    <linearGradient
       x2="362"
       x1="257"
       gradientTransform="matrix(1.0381,0,0,1.46193,-676.32089,-138.61293)"
       gradientUnits="userSpaceOnUse"
       id="linearGradient3110"
       xlink:href="#0"
       inkscape:collect="always" />
    <linearGradient
       x2="362"
       x1="257"
       gradientTransform="matrix(1.0381,0,0,1.46193,-780.98291,-136.44344)"
       gradientUnits="userSpaceOnUse"
       id="linearGradient3113"
       xlink:href="#0"
       inkscape:collect="always" />
    <linearGradient
       x2="362"
       x1="257"
       gradientTransform="matrix(1.0381,0,0,1.46193,-889.98291,-136.44344)"
       gradientUnits="userSpaceOnUse"
       id="linearGradient3116"
       xlink:href="#0"
       inkscape:collect="always" />
    <linearGradient
       gradientTransform="translate(-661.69291,-18.193441)"
       y2="504.02"
       x2="0"
       y1="19.564"
       gradientUnits="userSpaceOnUse"
       id="linearGradient3125"
       xlink:href="#8"
       inkscape:collect="always" />
    <clipPath
       clipPathUnits="userSpaceOnUse"
       id="clipPath4103">
      <path
         d="m 471.9456,253.05189 c 0,120.89699 -98.00565,218.90724 -218.90724,218.90724 -120.89698,0 -218.90723,-98.00566 -218.90723,-218.90724 0,-120.89698 98.00565,-218.907232 218.90723,-218.907232 120.89699,0 218.90724,98.005652 218.90724,218.907232"
         id="path4105"
         inkscape:connector-curvature="0"
         style="fill:#f15a24;fill-opacity:1;fill-rule:evenodd" />
    </clipPath>
  </defs>
  <path
     style="fill:#f15a24;fill-rule:evenodd;fill-opacity:1"
     inkscape:connector-curvature="0"
     id="path8"
     d="m 471.9456,253.05189 c 0,120.89699 -98.00565,218.90724 -218.90724,218.90724 -120.89698,0 -218.90723,-98.00566 -218.90723,-218.90724 0,-120.89698 98.00565,-218.907232 218.90723,-218.907232 120.89699,0 218.90724,98.005652 218.90724,218.907232" />
  <path
     style="fill-opacity:0.06700003;fill-rule:evenodd"
     inkscape:connector-curvature="0"
     id="path10"
     d="M 256,1 C 115.17,1 1,115.17 1,256 1,396.83 115.17,511 256,511 396.83,511 511,396.83 511,256 511,115.17 396.83,1 256,1 m 8.827,44.931 c 120.9,0 218.9,98 218.9,218.9 0,120.9 -98,218.9 -218.9,218.9 -120.9,0 -218.93,-98 -218.93,-218.9 0,-120.9 98.03,-218.9 218.93,-218.9" />
  <path
     d="M 256,4.43 C 117.06,4.43 4.43,117.06 4.43,256 4.43,394.94 117.06,507.57 256,507.57 394.94,507.57 507.57,394.94 507.57,256 507.57,117.06 394.94,4.43 256,4.43 m 5.885,38.556 c 120.9,0 218.9,98 218.9,218.9 0,120.9 -98,218.9 -218.9,218.9 -120.9,0 -218.93,-98 -218.93,-218.9 0,-120.9 98.03,-218.9 218.93,-218.9"
     id="path14"
     inkscape:connector-curvature="0"
     style="fill-opacity:0.12900002;fill-rule:evenodd" />
  <path
     d="M 256,8.36 C 119.23,8.36 8.36,119.23 8.36,256 8.36,392.77 119.23,503.64 256,503.64 392.77,503.64 503.64,392.77 503.64,256 503.64,119.23 392.77,8.36 256,8.36 m 2.942,31.691 c 120.9,0 218.9,98 218.9,218.9 0,120.9 -98,218.9 -218.9,218.9 -120.9,0 -218.93,-98 -218.93,-218.9 0,-120.9 98.03,-218.9 218.93,-218.9"
     id="path16"
     inkscape:connector-curvature="0"
     style="fill-opacity:0.12900002;fill-rule:evenodd" />
  <path
     style="fill:#ffffff;fill-rule:evenodd;stroke:#000000;stroke-width:4.90399981;stroke-opacity:0.31000001"
     inkscape:connector-curvature="0"
     id="path18"
     d="M 253.04,7.86 C 117.62,7.86 7.85,117.64 7.85,253.05 c 0,135.42 109.78,245.19 245.19,245.19 135.42,0 245.19,-109.78 245.19,-245.19 C 498.23,117.63 388.45,7.86 253.04,7.86 z m 0,26.297 c 120.9,0 218.9,98 218.9,218.9 0,120.9 -98,218.9 -218.9,218.9 -120.9,0 -218.93,-98 -218.93,-218.9 0,-120.9 98.03,-218.9 218.93,-218.9 z" />
  <text
     font-size="129.23"
     letter-spacing="0"
     line-height="125%"
     word-spacing="0"
     x="729.64001"
     y="231.35997"
     id="text20"
     sodipodi:linespacing="125%"
     style="font-size:129.22999573px;line-height:125%;letter-spacing:0;word-spacing:0;font-family:Gentium Book Basic">
    <tspan
       x="729.64001"
       y="231.35997"
       id="tspan22" />
  </text>
  <text
     x="378.90805"
     y="579.25812"
     font-size="46.954"
     transform="scale(4.0128205,0.24920128)"
     id="text24"
     style="font-size:46.95375824px;text-anchor:middle;font-family:Arial" />
  <text
     font-size="129.23"
     letter-spacing="0"
     line-height="125%"
     word-spacing="0"
     x="1310.91"
     y="151.35997"
     id="text26"
     sodipodi:linespacing="125%"
     style="font-size:129.22999573px;line-height:125%;letter-spacing:0;word-spacing:0;font-family:Gentium Book Basic">
    <tspan
       x="1310.91"
       y="151.35997"
       id="tspan28" />
  </text>
  <text
     x="523.75732"
     y="258.21997"
     font-size="46.954"
     transform="scale(4.0128205,0.24920128)"
     id="text30"
     style="font-size:46.95375824px;text-anchor:middle;font-family:Arial" />
  <text
     font-size="129.23"
     letter-spacing="0"
     line-height="125%"
     word-spacing="0"
     x="239.33"
     y="-29.900009"
     id="text32"
     sodipodi:linespacing="125%"
     style="font-size:129.22999573px;line-height:125%;letter-spacing:0;word-spacing:0;font-family:Gentium Book Basic">
    <tspan
       x="239.33"
       y="-29.900009"
       id="tspan34" />
  </text>
  <text
     x="256.71869"
     y="-469.1264"
     font-size="46.954"
     transform="scale(4.0128205,0.24920128)"
     id="text36"
     style="font-size:46.95375824px;text-anchor:middle;font-family:Arial" />
  <text
     font-size="129.23"
     letter-spacing="0"
     line-height="125%"
     word-spacing="0"
     x="1337.38"
     y="-246.37001"
     id="text38"
     sodipodi:linespacing="125%"
     style="font-size:129.22999573px;line-height:125%;letter-spacing:0;word-spacing:0;font-family:Gentium Book Basic">
    <tspan
       x="1337.38"
       y="-246.37001"
       id="tspan40" />
  </text>
  <text
     x="530.3573"
     y="-1337.802"
     font-size="46.954"
     transform="scale(4.0128205,0.24920128)"
     id="text42"
     style="font-size:46.95375824px;text-anchor:middle;font-family:Arial" />
  <text
     font-size="129.23"
     letter-spacing="0"
     line-height="125%"
     word-spacing="0"
     x="1918.65"
     y="-326.37"
     id="text44"
     sodipodi:linespacing="125%"
     style="font-size:129.22999573px;line-height:125%;letter-spacing:0;word-spacing:0;font-family:Gentium Book Basic">
    <tspan
       x="1918.65"
       y="-326.37"
       id="tspan46" />
  </text>
  <text
     x="675.20654"
     y="-1658.8303"
     font-size="46.954"
     transform="scale(4.0128205,0.24920128)"
     id="text48"
     style="font-size:46.95375824px;text-anchor:middle;font-family:Arial" />
  <text
     font-size="129.23"
     letter-spacing="0"
     line-height="125%"
     word-spacing="0"
     x="1529.53"
     y="-798.77002"
     id="text50"
     sodipodi:linespacing="125%"
     style="font-size:129.22999573px;line-height:125%;letter-spacing:0;word-spacing:0;font-family:Gentium Book Basic">
    <tspan
       x="1529.53"
       y="-798.77002"
       id="tspan52" />
  </text>
  <text
     x="578.237"
     y="-3554.4807"
     font-size="46.954"
     transform="scale(4.0128205,0.24920128)"
     id="text54"
     style="font-size:46.95375824px;text-anchor:middle;font-family:Arial" />
  <text
     font-size="129.23"
     letter-spacing="0"
     line-height="125%"
     word-spacing="0"
     x="2110.79"
     y="-878.78003"
     id="text56"
     sodipodi:linespacing="125%"
     style="font-size:129.22999573px;line-height:125%;letter-spacing:0;word-spacing:0;font-family:Gentium Book Basic">
    <tspan
       x="2110.79"
       y="-878.78003"
       id="tspan58" />
  </text>
  <text
     x="723.0863"
     y="-3875.519"
     font-size="46.954"
     transform="scale(4.0128205,0.24920128)"
     id="text60"
     style="font-size:46.95375824px;text-anchor:middle;font-family:Arial" />
  <text
     font-size="208.33"
     letter-spacing="0"
     line-height="125%"
     word-spacing="0"
     x="277.98999"
     y="535.94006"
     id="text62"
     sodipodi:linespacing="125%"
     style="font-size:208.33000183px;line-height:125%;letter-spacing:0;word-spacing:0;font-family:Gentium Book Basic">
    <tspan
       x="277.98999"
       y="535.94006"
       id="tspan64" />
  </text>
  <g
     style="fill:#000000;opacity:0.25"
     id="g3228"
     clip-path="url(#clipPath4103)">
    <path
       inkscape:connector-curvature="0"
       d="m 398.4345,160.89652 -24.98,1.163 388.90873,388.90873 24.98,-1.163 z"
       id="path3230"
       style="fill:#000000" />
    <path
       inkscape:connector-curvature="0"
       d="m 373.4545,162.05952 0.96,20.18 388.90873,388.90873 -0.96,-20.18 z"
       id="path3232"
       style="fill:#000000" />
    <path
       inkscape:connector-curvature="0"
       d="m 374.4145,182.23952 6.659,40.22 388.90873,388.90873 -6.659,-40.22 z"
       id="path3234"
       style="fill:#000000" />
    <path
       inkscape:connector-curvature="0"
       d="m 381.0735,222.45952 15.441,-0.785 388.90873,388.90873 -15.441,0.785 z"
       id="path3236"
       style="fill:#000000" />
    <path
       inkscape:connector-curvature="0"
       d="m 396.5145,221.67452 2.879,-40.683 388.90873,388.90873 -2.879,40.683 z"
       id="path3238"
       style="fill:#000000" />
    <path
       inkscape:connector-curvature="0"
       d="m 399.3935,180.99152 -0.96,-20.09 388.90873,388.90873 0.96,20.09 z"
       id="path3240"
       style="fill:#000000" />
    <path
       inkscape:connector-curvature="0"
       d="m 337.3635,162.41352 c -2.037,-0.015 -4.246,0.035 -6.572,0.145 l 388.90873,388.90873 c 2.326,-0.11 4.535,-0.16 6.572,-0.145 z"
       id="path3242"
       style="fill:#000000" />
    <path
       inkscape:connector-curvature="0"
       d="m 330.7915,162.55852 c -9.649,0.458 -17.2,2.284 -22.77,5.409 l 388.90873,388.90873 c 5.57,-3.125 13.121,-4.951 22.77,-5.409 z"
       id="path3244"
       style="fill:#000000" />
    <path
       inkscape:connector-curvature="0"
       d="m 308.0215,167.96752 c -7.138,4.046 -12.427,9.734 -15.878,17.07 l 388.90873,388.90873 c 3.451,-7.336 8.74,-13.024 15.878,-17.07 z"
       id="path3246"
       style="fill:#000000" />
    <path
       inkscape:connector-curvature="0"
       d="m 292.1435,185.03752 c -3.453,7.296 -4.994,15.767 -4.536,25.416 l 388.90873,388.90873 c -0.458,-9.649 1.083,-18.12 4.536,-25.416 z"
       id="path3248"
       style="fill:#000000" />
    <path
       inkscape:connector-curvature="0"
       d="m 287.6075,210.45352 c 0.435,9.166 2.587,17.195 6.368,24.11 l 388.90873,388.90873 c -3.781,-6.915 -5.933,-14.944 -6.368,-24.11 z"
       id="path3250"
       style="fill:#000000" />
    <path
       inkscape:connector-curvature="0"
       d="m 293.9755,234.56352 c 1.8955,3.42878 4.10248,6.40624 6.63301,8.93677 l 388.90873,388.90873 c -2.53053,-2.53053 -4.73751,-5.50799 -6.63301,-8.93677 z"
       id="path3252"
       style="fill:#000000" />
    <path
       inkscape:connector-curvature="0"
       d="m 300.60851,243.50029 c 2.56924,2.56924 5.47202,4.67778 8.72099,6.33023 l 388.90873,388.90873 c -3.24897,-1.65245 -6.15175,-3.76099 -8.72099,-6.33023 z"
       id="path3254"
       style="fill:#000000" />
    <path
       inkscape:connector-curvature="0"
       d="m 309.3295,249.83052 c 6.487,3.278 14.783,4.691 24.776,4.217 l 388.90873,388.90873 c -9.993,0.474 -18.289,-0.939 -24.776,-4.217 z"
       id="path3256"
       style="fill:#000000" />
    <path
       inkscape:connector-curvature="0"
       d="m 334.1055,254.04752 c 8.117,-0.385 15.05,-1.647 20.85,-3.897 l 388.90873,388.90873 c -5.8,2.25 -12.733,3.512 -20.85,3.897 z"
       id="path3258"
       style="fill:#000000" />
    <path
       inkscape:connector-curvature="0"
       d="m 354.9555,250.15052 c 5.839,-2.292 12.456,-6.399 19.891,-12.272 l 388.90873,388.90873 c -7.435,5.873 -14.052,9.98 -19.891,12.272 z"
       id="path3260"
       style="fill:#000000" />
    <path
       inkscape:connector-curvature="0"
       d="m 374.8465,237.87852 -1.745,-37.717 388.90873,388.90873 1.745,37.717 z"
       id="path3262"
       style="fill:#000000" />
    <path
       inkscape:connector-curvature="0"
       d="m 373.1015,200.16152 -40.22,1.948 388.90873,388.90873 40.22,-1.948 z"
       id="path3264"
       style="fill:#000000" />
    <path
       inkscape:connector-curvature="0"
       d="m 332.8815,202.10952 0.843,18.378 388.90873,388.90873 -0.843,-18.378 z"
       id="path3266"
       style="fill:#000000" />
    <path
       inkscape:connector-curvature="0"
       d="m 333.7245,220.48752 17.448,-0.872 388.90873,388.90873 -17.448,0.872 z"
       id="path3268"
       style="fill:#000000" />
    <path
       inkscape:connector-curvature="0"
       d="m 351.1725,219.61552 0.349,8.317 388.90873,388.90873 -0.349,-8.317 z"
       id="path3270"
       style="fill:#000000" />
    <path
       inkscape:connector-curvature="0"
       d="m 351.5215,227.93252 c -3.307,2.292 -6.211,4.02 -8.811,5.03 l 388.90873,388.90873 c 2.6,-1.01 5.504,-2.738 8.811,-5.03 z"
       id="path3272"
       style="fill:#000000" />
    <path
       inkscape:connector-curvature="0"
       d="m 342.7105,232.96252 c -2.6,1.01 -5.378,1.549 -8.288,1.687 l 388.90873,388.90873 c 2.91,-0.138 5.688,-0.677 8.288,-1.687 z"
       id="path3274"
       style="fill:#000000" />
    <path
       inkscape:connector-curvature="0"
       d="m 334.4225,234.64952 c -5.85043,0.27791 -10.5772,-1.39689 -14.15768,-4.97737 l 388.90873,388.90873 c 3.58048,3.58048 8.30725,5.25528 14.15768,4.97737 z"
       id="path3276"
       style="fill:#000000" />
    <path
       inkscape:connector-curvature="0"
       d="m 320.26482,229.67215 c -0.16865,-0.16865 -0.33476,-0.34153 -0.49832,-0.51863 l 388.90873,388.90873 c 0.16356,0.1771 0.32967,0.34998 0.49832,0.51863 z"
       id="path3278"
       style="fill:#000000" />
    <path
       inkscape:connector-curvature="0"
       d="m 319.7665,229.15352 c -3.602,-3.939 -5.624,-10.671 -6.078,-20.24 l 388.90873,388.90873 c 0.454,9.569 2.476,16.301 6.078,20.24 z"
       id="path3280"
       style="fill:#000000" />
    <path
       inkscape:connector-curvature="0"
       d="m 313.6885,208.91352 c -0.427,-9.01 0.927,-15.677 4.1,-19.978 l 388.90873,388.90873 c -3.173,4.301 -4.527,10.968 -4.1,19.978 z"
       id="path3282"
       style="fill:#000000" />
    <path
       inkscape:connector-curvature="0"
       d="m 317.7885,188.93552 c 3.209,-4.343 7.672,-6.65 13.377,-6.921 l 388.90873,388.90873 c -5.705,0.271 -10.168,2.578 -13.377,6.921 z"
       id="path3284"
       style="fill:#000000" />
    <path
       inkscape:connector-curvature="0"
       d="m 331.1655,182.01452 c 3.829,-0.182 7.03,0.587 9.567,2.239 l 388.90873,388.90873 c -2.537,-1.652 -5.738,-2.421 -9.567,-2.239 z"
       id="path3286"
       style="fill:#000000" />
    <path
       inkscape:connector-curvature="0"
       d="m 340.7325,184.25352 c 0.78108,0.50119 1.49794,1.07851 2.15092,1.73149 l 388.90873,388.90873 c -0.65298,-0.65298 -1.36984,-1.2303 -2.15092,-1.73149 z"
       id="path3288"
       style="fill:#000000" />
    <path
       inkscape:connector-curvature="0"
       d="m 342.88342,185.98501 c 1.49804,1.49804 2.65993,3.39434 3.49008,5.68351 l 388.90873,388.90873 c -0.83015,-2.28917 -1.99204,-4.18547 -3.49008,-5.68351 z"
       id="path3290"
       style="fill:#000000" />
    <path
       inkscape:connector-curvature="0"
       d="m 346.3735,191.66852 24.834,-5.903 388.90873,388.90873 -24.834,5.903 z"
       id="path3292"
       style="fill:#000000" />
    <path
       inkscape:connector-curvature="0"
       d="m 371.2075,185.76552 c -1.802,-5.636 -4.293,-10.26 -7.532,-13.813 l 388.90873,388.90873 c 3.239,3.553 5.73,8.177 7.532,13.813 z"
       id="path3294"
       style="fill:#000000" />
    <path
       inkscape:connector-curvature="0"
       d="m 363.6755,171.95252 c -0.3592,-0.40329 -0.72776,-0.79394 -1.10573,-1.17191 L 751.4785,559.68934 c 0.37796,0.37797 0.74653,0.76862 1.10573,1.17191 z"
       id="path3296"
       style="fill:#000000" />
    <path
       inkscape:connector-curvature="0"
       d="m 362.56977,170.78061 c -2.9913,-2.99129 -6.57142,-5.18786 -10.75927,-6.56309 l 388.90873,388.90873 c 4.18785,1.37523 7.76797,3.57179 10.75927,6.56309 z"
       id="path3298"
       style="fill:#000000" />
    <path
       inkscape:connector-curvature="0"
       d="m 351.8105,164.21752 c -3.509,-1.163 -8.342,-1.76 -14.453,-1.803 l 388.90873,388.90873 c 6.111,0.043 10.944,0.64 14.453,1.803 z"
       id="path3300"
       style="fill:#000000" />
    <path
       inkscape:connector-curvature="0"
       d="m 283.8775,166.28252 -34.14,1.628 388.90873,388.90873 34.14,-1.628 z"
       id="path3302"
       style="fill:#000000" />
    <path
       inkscape:connector-curvature="0"
       d="m 249.7375,167.91052 -10.585,54.44 388.90873,388.90873 10.585,-54.44 z"
       id="path3304"
       style="fill:#000000" />
    <path
       inkscape:connector-curvature="0"
       d="m 239.1525,222.35052 -15.761,-53.16 388.90873,388.90873 15.761,53.16 z"
       id="path3306"
       style="fill:#000000" />
    <path
       inkscape:connector-curvature="0"
       d="m 223.3915,169.19052 -34.23,1.658 388.90873,388.90873 34.23,-1.658 z"
       id="path3308"
       style="fill:#000000" />
    <path
       inkscape:connector-curvature="0"
       d="m 189.1615,170.84852 4.246,88.34 388.90873,388.90873 -4.246,-88.34 z"
       id="path3310"
       style="fill:#000000" />
    <path
       inkscape:connector-curvature="0"
       d="m 193.4075,259.18852 21.257,-0.989 388.90873,388.90873 -21.257,0.989 z"
       id="path3312"
       style="fill:#000000" />
    <path
       inkscape:connector-curvature="0"
       d="m 214.6645,258.19952 -3.199,-67.41 388.90873,388.90873 3.199,67.41 z"
       id="path3314"
       style="fill:#000000" />
    <path
       inkscape:connector-curvature="0"
       d="m 211.4655,190.78952 19.629,66.62 388.90873,388.90873 -19.629,-66.62 z"
       id="path3316"
       style="fill:#000000" />
    <path
       inkscape:connector-curvature="0"
       d="m 231.0945,257.40952 19.28,-0.872 388.90873,388.90873 -19.28,0.872 z"
       id="path3318"
       style="fill:#000000" />
    <path
       inkscape:connector-curvature="0"
       d="m 250.3745,256.53752 13.231,-68.22 388.90873,388.90873 -13.231,68.22 z"
       id="path3320"
       style="fill:#000000" />
    <path
       inkscape:connector-curvature="0"
       d="m 263.6055,188.31752 3.228,67.38 388.90873,388.90873 -3.228,-67.38 z"
       id="path3322"
       style="fill:#000000" />
    <path
       inkscape:connector-curvature="0"
       d="m 266.8335,255.69752 21.23,-0.989 388.90873,388.90873 -21.23,0.989 z"
       id="path3324"
       style="fill:#000000" />
    <path
       inkscape:connector-curvature="0"
       d="m 288.0635,254.70852 -4.188,-88.43 388.90873,388.90873 4.188,88.43 z"
       id="path3326"
       style="fill:#000000" />
    <path
       inkscape:connector-curvature="0"
       d="m 145.9455,171.39652 c -0.852,0.01 -1.683,0.046 -2.559,0.087 l 388.90873,388.90873 c 0.876,-0.041 1.707,-0.077 2.559,-0.087 z"
       id="path3328"
       style="fill:#000000" />
    <path
       inkscape:connector-curvature="0"
       d="m 143.3865,171.48352 c -13.669,0.649 -24.13,5.147 -31.406,13.551 l 388.90873,388.90873 c 7.276,-8.404 17.737,-12.902 31.406,-13.551 z"
       id="path3330"
       style="fill:#000000" />
    <path
       inkscape:connector-curvature="0"
       d="m 111.9805,185.03452 c -7.276,8.404 -10.63,19.881 -9.945,34.31 l 388.90873,388.90873 c -0.685,-14.429 2.669,-25.906 9.945,-34.31 z"
       id="path3332"
       style="fill:#000000" />
    <path
       inkscape:connector-curvature="0"
       d="m 102.0355,219.34452 c 0.49,10.332 2.902,18.783 7.095,25.474 l 388.90873,388.90873 c -4.193,-6.691 -6.605,-15.142 -7.095,-25.474 z"
       id="path3334"
       style="fill:#000000" />
    <path
       inkscape:connector-curvature="0"
       d="m 109.1305,244.81852 c 1.75685,2.8035 3.70331,5.2738 5.83936,7.40986 l 388.90873,388.90873 c -2.13605,-2.13606 -4.08251,-4.60636 -5.83936,-7.40986 z"
       id="path3336"
       style="fill:#000000" />
    <path
       inkscape:connector-curvature="0"
       d="m 114.96986,252.22838 c 2.96198,2.96197 6.28852,5.28127 9.97964,6.95514 l 388.90873,388.90873 c -3.69112,-1.67387 -7.01766,-3.99317 -9.97964,-6.95514 z"
       id="path3338"
       style="fill:#000000" />
    <path
       inkscape:connector-curvature="0"
       d="m 124.9495,259.18352 c 6.392,2.88 14.263,4.086 23.758,3.635 l 388.90873,388.90873 c -9.495,0.451 -17.366,-0.755 -23.758,-3.635 z"
       id="path3340"
       style="fill:#000000" />
    <path
       inkscape:connector-curvature="0"
       d="m 148.7075,262.81852 c 9.342,-0.443 17.11,-2.647 23.18,-6.601 l 388.90873,388.90873 c -6.07,3.954 -13.838,6.158 -23.18,6.601 z"
       id="path3342"
       style="fill:#000000" />
    <path
       inkscape:connector-curvature="0"
       d="m 171.8875,256.21752 c 6.104,-3.997 10.629,-9.332 13.609,-16.08 l 388.90873,388.90873 c -2.98,6.748 -7.505,12.083 -13.609,16.08 z"
       id="path3344"
       style="fill:#000000" />
    <path
       inkscape:connector-curvature="0"
       d="m 185.4965,240.13752 c 3.02,-6.792 4.27,-15.374 3.78,-25.707 l 388.90873,388.90873 c 0.49,10.333 -0.76,18.915 -3.78,25.707 z"
       id="path3346"
       style="fill:#000000" />
    <path
       inkscape:connector-curvature="0"
       d="m 189.2765,214.43052 c -0.6539,-13.78711 -4.72003,-24.39847 -12.20566,-31.8841 l 388.90873,388.90873 c 7.48563,7.48563 11.55176,18.09699 12.20566,31.8841 z"
       id="path3348"
       style="fill:#000000" />
    <path
       inkscape:connector-curvature="0"
       d="m 177.07084,182.54642 c -0.24155,-0.24156 -0.48667,-0.47985 -0.73534,-0.7149 l 388.90873,388.90873 c 0.24867,0.23504 0.49379,0.47334 0.73534,0.7149 z"
       id="path3350"
       style="fill:#000000" />
    <path
       inkscape:connector-curvature="0"
       d="m 176.3355,181.83152 c -7.46,-7.088 -17.606,-10.581 -30.388,-10.44 l 388.90873,388.90873 c 12.782,-0.141 22.928,3.352 30.388,10.44 z"
       id="path3352"
       style="fill:#000000" />
    <path
       inkscape:connector-curvature="0"
       d="m 145.3075,192.12552 c 4.70341,-0.008 8.58716,1.5485 11.65373,4.61507 l 388.90873,388.90873 c -3.06657,-3.06657 -6.95032,-4.62258 -11.65373,-4.61507 z"
       id="path3354"
       style="fill:#000000" />
    <path
       inkscape:connector-curvature="0"
       d="m 156.96123,196.74059 c 0.19989,0.1999 0.39632,0.40621 0.58927,0.61893 l 388.90873,388.90873 c -0.19295,-0.21272 -0.38938,-0.41903 -0.58927,-0.61893 z"
       id="path3356"
       style="fill:#000000" />
    <path
       inkscape:connector-curvature="0"
       d="m 157.5505,197.35952 c 3.397,3.667 5.305,9.62 5.7,17.942 l 388.90873,388.90873 c -0.395,-8.322 -2.303,-14.275 -5.7,-17.942 z"
       id="path3358"
       style="fill:#000000" />
    <path
       inkscape:connector-curvature="0"
       d="m 163.2505,215.30152 c 0.469,9.89 -0.753,16.857 -3.635,20.821 l 388.90873,388.90873 c 2.882,-3.964 4.104,-10.931 3.635,-20.821 z"
       id="path3360"
       style="fill:#000000" />
    <path
       inkscape:connector-curvature="0"
       d="m 159.6155,236.12252 c -2.882,3.965 -7.118,6.074 -12.708,6.339 l 388.90873,388.90873 c 5.59,-0.265 9.826,-2.374 12.708,-6.339 z"
       id="path3362"
       style="fill:#000000" />
    <path
       inkscape:connector-curvature="0"
       d="m 146.9075,242.46152 c -5.09236,0.24165 -9.27677,-1.27207 -12.54995,-4.54525 L 523.26628,626.825 c 3.27318,3.27318 7.45759,4.7869 12.54995,4.54525 z"
       id="path3364"
       style="fill:#000000" />
    <path
       inkscape:connector-curvature="0"
       d="m 134.35755,237.91627 c -0.22152,-0.22152 -0.43887,-0.45111 -0.65205,-0.68875 l 388.90873,388.90873 c 0.21318,0.23764 0.43053,0.46723 0.65205,0.68875 z"
       id="path3366"
       style="fill:#000000" />
    <path
       inkscape:connector-curvature="0"
       d="m 133.7055,237.22752 c -3.325,-3.751 -5.16,-10.09 -5.583,-19.02 l 388.90873,388.90873 c 0.423,8.93 2.258,15.269 5.583,19.02 z"
       id="path3368"
       style="fill:#000000" />
    <path
       inkscape:connector-curvature="0"
       d="m 128.1225,218.20752 c -0.427,-9.01 0.816,-15.549 3.809,-19.6 l 388.90873,388.90873 c -2.993,4.051 -4.236,10.59 -3.809,19.6 z"
       id="path3370"
       style="fill:#000000" />
    <path
       inkscape:connector-curvature="0"
       d="m 131.9315,198.60752 c 2.993,-4.05 7.113,-6.207 12.359,-6.456 l 388.90873,388.90873 c -5.246,0.249 -9.366,2.406 -12.359,6.456 z"
       id="path3372"
       style="fill:#000000" />
    <path
       inkscape:connector-curvature="0"
       d="m 144.2905,192.15152 c 0.342,-0.016 0.684,-0.029 1.018,-0.029 l 388.90873,388.90873 c -0.334,0 -0.676,0.013 -1.018,0.029 z"
       id="path3374"
       style="fill:#000000" />
    <path
       inkscape:connector-curvature="0"
       d="m 400.8085,227.68752 -23.351,1.105 388.90873,388.90873 23.351,-1.105 z"
       id="path3376"
       style="fill:#000000" />
    <path
       inkscape:connector-curvature="0"
       d="m 377.4575,228.79252 1.076,21.635 388.90873,388.90873 -1.076,-21.635 z"
       id="path3378"
       style="fill:#000000" />
    <path
       inkscape:connector-curvature="0"
       d="m 378.5335,250.42752 23.293,-1.105 388.90873,388.90873 -23.293,1.105 z"
       id="path3380"
       style="fill:#000000" />
    <path
       inkscape:connector-curvature="0"
       d="m 401.8265,249.32252 -1.018,-21.635 388.90873,388.90873 1.018,21.635 z"
       id="path3382"
       style="fill:#000000" />
    <path
       inkscape:connector-curvature="0"
       d="m 421.5425,283.22752 -15.529,0.727 388.90873,388.90873 15.529,-0.727 z"
       id="path3384"
       style="fill:#000000" />
    <path
       inkscape:connector-curvature="0"
       d="m 406.0135,283.95452 0.553,11.952 388.90873,388.90873 -0.553,-11.952 z"
       id="path3386"
       style="fill:#000000" />
    <path
       inkscape:connector-curvature="0"
       d="m 406.5665,295.90652 4.1,23.787 388.90873,388.90873 -4.1,-23.787 z"
       id="path3388"
       style="fill:#000000" />
    <path
       inkscape:connector-curvature="0"
       d="m 410.6665,319.69352 9.567,-0.465 388.90873,388.90873 -9.567,0.465 z"
       id="path3390"
       style="fill:#000000" />
    <path
       inkscape:connector-curvature="0"
       d="m 420.2335,319.22852 1.861,-24.11 388.90873,388.90873 -1.861,24.11 z"
       id="path3392"
       style="fill:#000000" />
    <path
       inkscape:connector-curvature="0"
       d="m 422.0945,295.11852 -0.553,-11.894 388.90873,388.90873 0.553,11.894 z"
       id="path3394"
       style="fill:#000000" />
    <path
       inkscape:connector-curvature="0"
       d="m 401.6795,284.12552 -16.14,0.843 388.90873,388.90873 16.14,-0.843 z"
       id="path3396"
       style="fill:#000000" />
    <path
       inkscape:connector-curvature="0"
       d="m 385.5395,284.96852 1.512,31.901 388.90873,388.90873 -1.512,-31.901 z"
       id="path3398"
       style="fill:#000000" />
    <path
       inkscape:connector-curvature="0"
       d="m 387.0515,316.86952 c 0.137,2.903 -0.546,5.222 -2.065,6.892 l 388.90873,388.90873 c 1.519,-1.67 2.202,-3.989 2.065,-6.892 z"
       id="path3400"
       style="fill:#000000" />
    <path
       inkscape:connector-curvature="0"
       d="m 384.9865,323.76152 c -1.496,1.645 -3.613,2.485 -6.398,2.617 l 388.90873,388.90873 c 2.785,-0.132 4.902,-0.972 6.398,-2.617 z"
       id="path3402"
       style="fill:#000000" />
    <path
       inkscape:connector-curvature="0"
       d="m 378.5885,326.37852 c -2.808,0.133 -5.02,-0.546 -6.688,-2.065 l 388.90873,388.90873 c 1.668,1.519 3.88,2.198 6.688,2.065 z"
       id="path3404"
       style="fill:#000000" />
    <path
       inkscape:connector-curvature="0"
       d="m 371.9005,324.31352 c -0.0601,-0.0564 -0.11922,-0.11358 -0.17732,-0.17168 l 388.90873,388.90873 c 0.0581,0.0581 0.11721,0.11533 0.17732,0.17168 z"
       id="path3406"
       style="fill:#000000" />
    <path
       inkscape:connector-curvature="0"
       d="m 371.72318,324.14184 c -1.53386,-1.53386 -2.36761,-3.67756 -2.49768,-6.42932 l 388.90873,388.90873 c 0.13007,2.75176 0.96382,4.89546 2.49768,6.42932 z"
       id="path3408"
       style="fill:#000000" />
    <path
       inkscape:connector-curvature="0"
       d="m 369.2255,317.71252 -1.512,-31.959 388.90873,388.90873 1.512,31.959 z"
       id="path3410"
       style="fill:#000000" />
    <path
       inkscape:connector-curvature="0"
       d="m 367.7135,285.75352 -16.197,0.814 388.90873,388.90873 16.197,-0.814 z"
       id="path3412"
       style="fill:#000000" />
    <path
       inkscape:connector-curvature="0"
       d="m 351.5165,286.56752 1.512,31.17 388.90873,388.90873 -1.512,-31.17 z"
       id="path3414"
       style="fill:#000000" />
    <path
       inkscape:connector-curvature="0"
       d="m 353.0285,317.73752 c 0.122,2.57 0.762,5.498 1.919,8.782 l 388.90873,388.90873 c -1.157,-3.284 -1.797,-6.212 -1.919,-8.782 z"
       id="path3416"
       style="fill:#000000" />
    <path
       inkscape:connector-curvature="0"
       d="m 354.9475,326.51952 c 0.717,2.041 1.993,3.973 3.751,5.845 l 388.90873,388.90873 c -1.758,-1.872 -3.034,-3.804 -3.751,-5.845 z"
       id="path3418"
       style="fill:#000000" />
    <path
       inkscape:connector-curvature="0"
       d="m 358.6985,332.36452 c 0.15493,0.16267 0.31034,0.322 0.46632,0.47798 l 388.90873,388.90873 c -0.15598,-0.15598 -0.31139,-0.31531 -0.46632,-0.47798 z"
       id="path3420"
       style="fill:#000000" />
    <path
       inkscape:connector-curvature="0"
       d="m 359.16482,332.8425 c 1.63807,1.63807 3.34,2.90679 5.23368,3.79702 l 388.90873,388.90873 c -1.89368,-0.89023 -3.59561,-2.15895 -5.23368,-3.79702 z"
       id="path3422"
       style="fill:#000000" />
    <path
       inkscape:connector-curvature="0"
       d="m 364.3985,336.63952 c 2.073,0.951 4.662,1.588 7.677,1.803 l 388.90873,388.90873 c -3.015,-0.215 -5.604,-0.852 -7.677,-1.803 z"
       id="path3424"
       style="fill:#000000" />
    <path
       inkscape:connector-curvature="0"
       d="m 372.0755,338.44252 c 3.039,0.214 5.829,0.208 8.375,0.087 l 388.90873,388.90873 c -2.546,0.121 -5.336,0.127 -8.375,-0.087 z"
       id="path3426"
       style="fill:#000000" />
    <path
       inkscape:connector-curvature="0"
       d="m 380.4505,338.52952 c 4.403,-0.209 8.168,-0.953 11.254,-2.268 l 388.90873,388.90873 c -3.086,1.315 -6.851,2.059 -11.254,2.268 z"
       id="path3428"
       style="fill:#000000" />
    <path
       inkscape:connector-curvature="0"
       d="m 391.7045,336.26152 c 2.221,-0.94 4.303,-2.48 6.252,-4.624 l 388.90873,388.90873 c -1.949,2.144 -4.031,3.684 -6.252,4.624 z"
       id="path3430"
       style="fill:#000000" />
    <path
       inkscape:connector-curvature="0"
       d="m 397.9565,331.63752 c 1.972,-2.169 3.365,-4.633 4.188,-7.415 l 388.90873,388.90873 c -0.823,2.782 -2.216,5.246 -4.188,7.415 z"
       id="path3432"
       style="fill:#000000" />
    <path
       inkscape:connector-curvature="0"
       d="m 402.1445,324.22252 c 0.845,-2.807 1.194,-5.776 1.047,-8.869 l 388.90873,388.90873 c 0.147,3.093 -0.202,6.062 -1.047,8.869 z"
       id="path3434"
       style="fill:#000000" />
    <path
       inkscape:connector-curvature="0"
       d="m 403.1915,315.35352 -1.512,-31.23 388.90873,388.90873 1.512,31.23 z"
       id="path3436"
       style="fill:#000000" />
    <path
       inkscape:connector-curvature="0"
       d="m 349.6845,286.62452 -49.17,2.355 388.90873,388.90873 49.17,-2.355 z"
       id="path3438"
       style="fill:#000000" />
    <path
       inkscape:connector-curvature="0"
       d="m 300.5145,288.97952 0.669,12.911 388.90873,388.90873 -0.669,-12.911 z"
       id="path3440"
       style="fill:#000000" />
    <path
       inkscape:connector-curvature="0"
       d="m 301.1835,301.89052 16.459,-0.814 388.90873,388.90873 -16.459,0.814 z"
       id="path3442"
       style="fill:#000000" />
    <path
       inkscape:connector-curvature="0"
       d="m 317.6425,301.07652 1.89,39.432 388.90873,388.90873 -1.89,-39.432 z"
       id="path3444"
       style="fill:#000000" />
    <path
       inkscape:connector-curvature="0"
       d="m 319.5325,340.50852 16.17,-0.785 388.90873,388.90873 -16.17,0.785 z"
       id="path3446"
       style="fill:#000000" />
    <path
       inkscape:connector-curvature="0"
       d="m 335.7025,339.72352 -1.861,-39.4 388.90873,388.90873 1.861,39.4 z"
       id="path3448"
       style="fill:#000000" />
    <path
       inkscape:connector-curvature="0"
       d="m 333.8415,300.32352 16.488,-0.756 388.90873,388.90873 -16.488,0.756 z"
       id="path3450"
       style="fill:#000000" />
    <path
       inkscape:connector-curvature="0"
       d="m 350.3295,299.56752 -0.64,-12.941 388.90873,388.90873 0.64,12.941 z"
       id="path3452"
       style="fill:#000000" />
    <path
       inkscape:connector-curvature="0"
       d="m 298.9455,289.01152 -15.238,0.727 388.90873,388.90873 15.238,-0.727 z"
       id="path3454"
       style="fill:#000000" />
    <path
       inkscape:connector-curvature="0"
       d="m 283.7075,289.73852 1.396,28.964 388.90873,388.90873 -1.396,-28.964 z"
       id="path3456"
       style="fill:#000000" />
    <path
       inkscape:connector-curvature="0"
       d="m 285.1035,318.70252 -21.08,-28 388.90873,388.90873 21.08,28 z"
       id="path3458"
       style="fill:#000000" />
    <path
       inkscape:connector-curvature="0"
       d="m 264.0235,290.70252 -15.12,0.698 388.90873,388.90873 15.12,-0.698 z"
       id="path3460"
       style="fill:#000000" />
    <path
       inkscape:connector-curvature="0"
       d="m 248.9035,291.40052 2.443,52.31 388.90873,388.90873 -2.443,-52.31 z"
       id="path3462"
       style="fill:#000000" />
    <path
       inkscape:connector-curvature="0"
       d="m 251.3465,343.71052 15.267,-0.669 388.90873,388.90873 -15.267,0.669 z"
       id="path3464"
       style="fill:#000000" />
    <path
       inkscape:connector-curvature="0"
       d="m 266.6135,343.04152 -1.367,-28.76 388.90873,388.90873 1.367,28.76 z"
       id="path3466"
       style="fill:#000000" />
    <path
       inkscape:connector-curvature="0"
       d="m 265.2465,314.28152 20.967,27.829 388.90873,388.90873 -20.967,-27.829 z"
       id="path3468"
       style="fill:#000000" />
    <path
       inkscape:connector-curvature="0"
       d="m 286.2135,342.11052 15.209,-0.756 388.90873,388.90873 -15.209,0.756 z"
       id="path3470"
       style="fill:#000000" />
    <path
       inkscape:connector-curvature="0"
       d="m 301.4225,341.35452 -2.472,-52.34 388.90873,388.90873 2.472,52.34 z"
       id="path3472"
       style="fill:#000000" />
    <path
       inkscape:connector-curvature="0"
       d="m 243.5805,291.63152 -16.14,0.785 388.90873,388.90873 16.14,-0.785 z"
       id="path3474"
       style="fill:#000000" />
    <path
       inkscape:connector-curvature="0"
       d="m 227.4405,292.41652 1.512,31.959 388.90873,388.90873 -1.512,-31.959 z"
       id="path3476"
       style="fill:#000000" />
    <path
       inkscape:connector-curvature="0"
       d="m 228.9525,324.37552 c 0.137,2.903 -0.546,5.164 -2.065,6.834 l 388.90873,388.90873 c 1.519,-1.67 2.202,-3.931 2.065,-6.834 z"
       id="path3478"
       style="fill:#000000" />
    <path
       inkscape:connector-curvature="0"
       d="m 226.8875,331.20952 c -1.496,1.645 -3.642,2.543 -6.427,2.675 l 388.90873,388.90873 c 2.785,-0.132 4.931,-1.03 6.427,-2.675 z"
       id="path3480"
       style="fill:#000000" />
    <path
       inkscape:connector-curvature="0"
       d="m 220.4605,333.88452 c -2.808,0.133 -5.02,-0.546 -6.688,-2.065 l 388.90873,388.90873 c 1.668,1.519 3.88,2.198 6.688,2.065 z"
       id="path3482"
       style="fill:#000000" />
    <path
       inkscape:connector-curvature="0"
       d="m 213.7725,331.81952 c -0.0645,-0.0604 -0.12786,-0.12175 -0.19018,-0.18407 l 388.90873,388.90873 c 0.0623,0.0623 0.12572,0.12367 0.19018,0.18407 z"
       id="path3484"
       style="fill:#000000" />
    <path
       inkscape:connector-curvature="0"
       d="m 213.58232,331.63545 c -1.5309,-1.5309 -2.41314,-3.64365 -2.54382,-6.38793 l 388.90873,388.90873 c 0.13068,2.74428 1.01292,4.85703 2.54382,6.38793 z"
       id="path3486"
       style="fill:#000000" />
    <path
       inkscape:connector-curvature="0"
       d="m 211.0385,325.24752 -1.483,-31.959 388.90873,388.90873 1.483,31.959 z"
       id="path3488"
       style="fill:#000000" />
    <path
       inkscape:connector-curvature="0"
       d="m 209.5555,293.28852 -16.14,0.727 388.90873,388.90873 16.14,-0.727 z"
       id="path3490"
       style="fill:#000000" />
    <path
       inkscape:connector-curvature="0"
       d="m 193.4155,294.01552 1.512,31.23 388.90873,388.90873 -1.512,-31.23 z"
       id="path3492"
       style="fill:#000000" />
    <path
       inkscape:connector-curvature="0"
       d="m 194.9275,325.24552 c 0.122,2.57 0.733,5.498 1.89,8.782 l 388.90873,388.90873 c -1.157,-3.284 -1.768,-6.212 -1.89,-8.782 z"
       id="path3494"
       style="fill:#000000" />
    <path
       inkscape:connector-curvature="0"
       d="m 196.8175,334.02752 c 0.717,2.041 1.935,4 3.693,5.874 l 388.90873,388.90873 c -1.758,-1.874 -2.976,-3.833 -3.693,-5.874 z"
       id="path3496"
       style="fill:#000000" />
    <path
       inkscape:connector-curvature="0"
       d="m 200.5105,339.90152 c 0.13413,0.14083 0.2691,0.27915 0.40491,0.41496 l 388.90873,388.90873 c -0.13581,-0.13581 -0.27078,-0.27414 -0.40491,-0.41496 z"
       id="path3498"
       style="fill:#000000" />
    <path
       inkscape:connector-curvature="0"
       d="m 200.91541,340.31648 c 1.66858,1.66858 3.46419,2.95843 5.38209,3.86004 l 388.90873,388.90873 c -1.9179,-0.90161 -3.71351,-2.19146 -5.38209,-3.86004 z"
       id="path3500"
       style="fill:#000000" />
    <path
       inkscape:connector-curvature="0"
       d="m 206.2975,344.17652 c 2.072,0.951 4.662,1.501 7.677,1.716 l 388.90873,388.90873 c -3.015,-0.215 -5.605,-0.765 -7.677,-1.716 z"
       id="path3502"
       style="fill:#000000" />
    <path
       inkscape:connector-curvature="0"
       d="m 213.9745,345.89252 c 3.039,0.213 5.8,0.266 8.346,0.145 l 388.90873,388.90873 c -2.546,0.121 -5.307,0.068 -8.346,-0.145 z"
       id="path3504"
       style="fill:#000000" />
    <path
       inkscape:connector-curvature="0"
       d="m 222.3205,346.03752 c 4.403,-0.209 8.197,-0.953 11.283,-2.268 l 388.90873,388.90873 c -3.086,1.315 -6.88,2.059 -11.283,2.268 z"
       id="path3506"
       style="fill:#000000" />
    <path
       inkscape:connector-curvature="0"
       d="m 233.6035,343.76952 c 2.221,-0.94 4.244,-2.509 6.194,-4.653 l 388.90873,388.90873 c -1.95,2.144 -3.973,3.713 -6.194,4.653 z"
       id="path3508"
       style="fill:#000000" />
    <path
       inkscape:connector-curvature="0"
       d="m 239.7975,339.11652 c 1.972,-2.169 3.365,-4.604 4.188,-7.386 l 388.90873,388.90873 c -0.823,2.782 -2.216,5.217 -4.188,7.386 z"
       id="path3510"
       style="fill:#000000" />
    <path
       inkscape:connector-curvature="0"
       d="m 243.9855,331.73052 c 0.845,-2.807 1.223,-5.776 1.076,-8.869 l 388.90873,388.90873 c 0.147,3.093 -0.231,6.062 -1.076,8.869 z"
       id="path3512"
       style="fill:#000000" />
    <path
       inkscape:connector-curvature="0"
       d="m 245.0615,322.86152 -1.483,-31.23 388.90873,388.90873 1.483,31.23 z"
       id="path3514"
       style="fill:#000000" />
    <path
       inkscape:connector-curvature="0"
       d="m 176.0285,294.94652 c -0.596,-0.01 -1.201,-0.001 -1.832,0.029 l 388.90873,388.90873 c 0.631,-0.03 1.236,-0.039 1.832,-0.029 z"
       id="path3516"
       style="fill:#000000" />
    <path
       inkscape:connector-curvature="0"
       d="m 174.1965,294.97552 -30.3,1.396 388.90873,388.90873 30.3,-1.396 z"
       id="path3518"
       style="fill:#000000" />
    <path
       inkscape:connector-curvature="0"
       d="m 143.8965,296.37152 2.53,52.34 388.90873,388.90873 -2.53,-52.34 z"
       id="path3520"
       style="fill:#000000" />
    <path
       inkscape:connector-curvature="0"
       d="m 146.4265,348.71152 27.859,-1.309 388.90873,388.90873 -27.859,1.309 z"
       id="path3522"
       style="fill:#000000" />
    <path
       inkscape:connector-curvature="0"
       d="m 174.2855,347.40252 c 1.19,-0.057 3.651,-0.398 7.27,-1.047 l 388.90873,388.90873 c -3.619,0.649 -6.08,0.99 -7.27,1.047 z"
       id="path3524"
       style="fill:#000000" />
    <path
       inkscape:connector-curvature="0"
       d="m 181.5555,346.35552 c 2.72,-0.487 4.729,-1.186 6.05,-2.036 l 388.90873,388.90873 c -1.321,0.85 -3.33,1.549 -6.05,2.036 z"
       id="path3526"
       style="fill:#000000" />
    <path
       inkscape:connector-curvature="0"
       d="m 187.6055,344.31952 c 2.13,-1.365 3.785,-3.154 4.944,-5.38 l 388.90873,388.90873 c -1.159,2.226 -2.814,4.015 -4.944,5.38 z"
       id="path3528"
       style="fill:#000000" />
    <path
       inkscape:connector-curvature="0"
       d="m 192.5495,338.93952 c 1.158,-2.225 1.641,-4.702 1.512,-7.415 l 388.90873,388.90873 c 0.129,2.713 -0.354,5.19 -1.512,7.415 z"
       id="path3530"
       style="fill:#000000" />
    <path
       inkscape:connector-curvature="0"
       d="m 194.0615,331.52452 c -0.158,-3.332 -1.194,-6.01 -3.082,-8.113 l 388.90873,388.90873 c 1.888,2.103 2.924,4.781 3.082,8.113 z"
       id="path3532"
       style="fill:#000000" />
    <path
       inkscape:connector-curvature="0"
       d="m 190.9795,323.41152 c -0.15013,-0.17137 -0.30627,-0.33815 -0.46845,-0.50033 l 388.90873,388.90873 c 0.16218,0.16218 0.31832,0.32895 0.46845,0.50033 z"
       id="path3534"
       style="fill:#000000" />
    <path
       inkscape:connector-curvature="0"
       d="m 190.51105,322.91119 c -1.85352,-1.85352 -4.49653,-3.10708 -7.99355,-3.77467 l 388.90873,388.90873 c 3.49702,0.66759 6.14003,1.92115 7.99355,3.77467 z"
       id="path3536"
       style="fill:#000000" />
    <path
       inkscape:connector-curvature="0"
       d="m 182.5175,319.13652 c 2.434,-0.974 4.223,-2.244 5.438,-3.78 l 388.90873,388.90873 c -1.215,1.536 -3.004,2.806 -5.438,3.78 z"
       id="path3538"
       style="fill:#000000" />
    <path
       inkscape:connector-curvature="0"
       d="m 187.9555,315.35652 c 1.823,-2.305 2.677,-5.05 2.53,-8.142 l 388.90873,388.90873 c 0.147,3.092 -0.707,5.837 -2.53,8.142 z"
       id="path3540"
       style="fill:#000000" />
    <path
       inkscape:connector-curvature="0"
       d="m 190.4855,307.21452 c -0.15444,-3.25568 -1.31909,-5.96303 -3.53654,-8.18049 l 388.90873,388.90873 c 2.21745,2.21746 3.3821,4.92481 3.53654,8.18049 z"
       id="path3542"
       style="fill:#000000" />
    <path
       inkscape:connector-curvature="0"
       d="m 186.94896,299.03403 c -0.29514,-0.29514 -0.60892,-0.58159 -0.94146,-0.85951 l 388.90873,388.90873 c 0.33254,0.27792 0.64632,0.56437 0.94146,0.85951 z"
       id="path3544"
       style="fill:#000000" />
    <path
       inkscape:connector-curvature="0"
       d="m 186.0075,298.17452 c -2.457,-2.075 -5.805,-3.152 -9.974,-3.228 l 388.90873,388.90873 c 4.169,0.076 7.517,1.153 9.974,3.228 z"
       id="path3546"
       style="fill:#000000" />
    <path
       inkscape:connector-curvature="0"
       d="m 138.6635,296.63352 -16.14,0.756 388.90873,388.90873 16.14,-0.756 z"
       id="path3548"
       style="fill:#000000" />
    <path
       inkscape:connector-curvature="0"
       d="m 122.5235,297.38952 1.512,31.959 388.90873,388.90873 -1.512,-31.959 z"
       id="path3550"
       style="fill:#000000" />
    <path
       inkscape:connector-curvature="0"
       d="m 124.0355,329.34852 c 0.137,2.903 -0.546,5.222 -2.065,6.892 l 388.90873,388.90873 c 1.519,-1.67 2.202,-3.989 2.065,-6.892 z"
       id="path3552"
       style="fill:#000000" />
    <path
       inkscape:connector-curvature="0"
       d="m 121.9705,336.24052 c -1.496,1.645 -3.671,2.514 -6.456,2.646 l 388.90873,388.90873 c 2.785,-0.132 4.96,-1.001 6.456,-2.646 z"
       id="path3554"
       style="fill:#000000" />
    <path
       inkscape:connector-curvature="0"
       d="m 115.5145,338.88652 c -2.808,0.133 -5.02,-0.546 -6.688,-2.065 l 388.90873,388.90873 c 1.668,1.519 3.88,2.198 6.688,2.065 z"
       id="path3556"
       style="fill:#000000" />
    <path
       inkscape:connector-curvature="0"
       d="m 108.8265,336.82152 c -0.0601,-0.0564 -0.11922,-0.11358 -0.17732,-0.17168 l 388.90873,388.90873 c 0.0581,0.0581 0.11721,0.11533 0.17732,0.17168 z"
       id="path3558"
       style="fill:#000000" />
    <path
       inkscape:connector-curvature="0"
       d="m 108.64918,336.64984 c -1.53386,-1.53386 -2.36761,-3.67756 -2.49768,-6.42932 l 388.90873,388.90873 c 0.13007,2.75176 0.96382,4.89546 2.49768,6.42932 z"
       id="path3560"
       style="fill:#000000" />
    <path
       inkscape:connector-curvature="0"
       d="m 106.1515,330.22052 -1.512,-31.959 388.90873,388.90873 1.512,31.959 z"
       id="path3562"
       style="fill:#000000" />
    <path
       inkscape:connector-curvature="0"
       d="m 104.6395,298.26152 -16.139998,0.727 388.908728,388.90873 16.14,-0.727 z"
       id="path3564"
       style="fill:#000000" />
    <path
       inkscape:connector-curvature="0"
       d="m 88.499502,298.98852 1.454,31.23 388.908728,388.90873 -1.454,-31.23 z"
       id="path3566"
       style="fill:#000000" />
    <path
       inkscape:connector-curvature="0"
       d="m 89.953502,330.21852 c 0.122,2.57 0.791,5.498 1.948,8.782 L 480.81023,727.90925 c -1.157,-3.284 -1.826,-6.212 -1.948,-8.782 z"
       id="path3568"
       style="fill:#000000" />
    <path
       inkscape:connector-curvature="0"
       d="m 91.901502,339.00052 c 0.717,2.041 1.964,4 3.722,5.874 L 484.53223,733.78325 c -1.758,-1.874 -3.005,-3.833 -3.722,-5.874 z"
       id="path3570"
       style="fill:#000000" />
    <path
       inkscape:connector-curvature="0"
       d="m 95.623502,344.87452 c 0.134127,0.14083 0.269099,0.27915 0.404911,0.41496 L 484.93714,734.19821 c -0.13581,-0.13581 -0.27078,-0.27413 -0.40491,-0.41496 z"
       id="path3572"
       style="fill:#000000" />
    <path
       inkscape:connector-curvature="0"
       d="m 96.028413,345.28948 c 1.668583,1.66858 3.464191,2.95843 5.382087,3.86004 l 388.90873,388.90873 c -1.9179,-0.90161 -3.7135,-2.19146 -5.38209,-3.86004 z"
       id="path3574"
       style="fill:#000000" />
    <path
       inkscape:connector-curvature="0"
       d="m 101.4105,349.14952 c 2.072,0.951 4.603,1.53 7.619,1.745 l 388.90873,388.90873 c -3.016,-0.215 -5.547,-0.794 -7.619,-1.745 z"
       id="path3576"
       style="fill:#000000" />
    <path
       inkscape:connector-curvature="0"
       d="m 109.0295,350.89452 c 3.039,0.214 5.829,0.266 8.375,0.145 l 388.90873,388.90873 c -2.546,0.121 -5.336,0.069 -8.375,-0.145 z"
       id="path3578"
       style="fill:#000000" />
    <path
       inkscape:connector-curvature="0"
       d="m 117.4045,351.03952 c 4.403,-0.209 8.139,-0.953 11.225,-2.268 l 388.90873,388.90873 c -3.086,1.315 -6.822,2.059 -11.225,2.268 z"
       id="path3580"
       style="fill:#000000" />
    <path
       inkscape:connector-curvature="0"
       d="m 128.6295,348.77152 c 2.221,-0.94 4.303,-2.48 6.252,-4.624 l 388.90873,388.90873 c -1.949,2.144 -4.031,3.684 -6.252,4.624 z"
       id="path3582"
       style="fill:#000000" />
    <path
       inkscape:connector-curvature="0"
       d="m 134.8815,344.14752 c 1.972,-2.169 3.424,-4.633 4.246,-7.415 l 388.90873,388.90873 c -0.822,2.782 -2.274,5.246 -4.246,7.415 z"
       id="path3584"
       style="fill:#000000" />
    <path
       inkscape:connector-curvature="0"
       d="m 139.1275,336.73252 c 0.845,-2.807 1.135,-5.776 0.989,-8.869 l 388.90873,388.90873 c 0.146,3.093 -0.144,6.062 -0.989,8.869 z"
       id="path3586"
       style="fill:#000000" />
    <path
       inkscape:connector-curvature="0"
       d="m 140.1165,327.86352 -1.454,-31.23 388.90873,388.90873 1.454,31.23 z"
       id="path3588"
       style="fill:#000000" />
    <path
       inkscape:connector-curvature="0"
       d="m 167.8925,305.88052 c 2.451,-0.116 4.189,0.237 5.205,1.047 l 388.90873,388.90873 c -1.016,-0.81 -2.754,-1.163 -5.205,-1.047 z"
       id="path3590"
       style="fill:#000000" />
    <path
       inkscape:connector-curvature="0"
       d="m 173.0975,306.92752 c 0.14688,0.11426 0.28389,0.23487 0.41108,0.36207 l 388.90873,388.90873 c -0.12719,-0.1272 -0.2642,-0.24782 -0.41108,-0.36207 z"
       id="path3592"
       style="fill:#000000" />
    <path
       inkscape:connector-curvature="0"
       d="m 173.50858,307.28959 c 0.77345,0.77344 1.18423,1.79016 1.24692,3.09893 l 388.90873,388.90873 c -0.0627,-1.30877 -0.47347,-2.32549 -1.24692,-3.09893 z"
       id="path3594"
       style="fill:#000000" />
    <path
       inkscape:connector-curvature="0"
       d="m 174.7555,310.38852 c 0.078,1.642 -0.351,2.969 -1.309,3.897 l 388.90873,388.90873 c 0.958,-0.928 1.387,-2.255 1.309,-3.897 z"
       id="path3596"
       style="fill:#000000" />
    <path
       inkscape:connector-curvature="0"
       d="m 173.4465,314.28552 c -0.935,0.903 -2.654,1.422 -5.176,1.541 l 388.90873,388.90873 c 2.522,-0.119 4.241,-0.638 5.176,-1.541 z"
       id="path3598"
       style="fill:#000000" />
    <path
       inkscape:connector-curvature="0"
       d="m 168.2705,315.82652 -7.07,0.32 388.90873,388.90873 7.07,-0.32 z"
       id="path3600"
       style="fill:#000000" />
    <path
       inkscape:connector-curvature="0"
       d="m 161.2005,316.14652 -0.465,-9.945 388.90873,388.90873 0.465,9.945 z"
       id="path3602"
       style="fill:#000000" />
    <path
       inkscape:connector-curvature="0"
       d="m 160.7355,306.20152 7.154,-0.32 388.90873,388.90873 -7.154,0.32 z"
       id="path3604"
       style="fill:#000000" />
    <path
       inkscape:connector-curvature="0"
       d="m 422.8895,322.74752 -14.511,0.698 388.90873,388.90873 14.511,-0.698 z"
       id="path3606"
       style="fill:#000000" />
    <path
       inkscape:connector-curvature="0"
       d="m 408.3785,323.44552 0.669,12.824 388.90873,388.90873 -0.669,-12.824 z"
       id="path3608"
       style="fill:#000000" />
    <path
       inkscape:connector-curvature="0"
       d="m 409.0475,336.26952 14.453,-0.727 388.90873,388.90873 -14.453,0.727 z"
       id="path3610"
       style="fill:#000000" />
    <path
       inkscape:connector-curvature="0"
       d="m 423.5005,335.54252 -0.611,-12.795 388.90873,388.90873 0.611,12.795 z"
       id="path3612"
       style="fill:#000000" />
    <path
       inkscape:connector-curvature="0"
       d="m 171.8995,325.71352 c 1.814,0.082 3.14,0.46 4.01,1.134 l 388.90873,388.90873 c -0.87,-0.674 -2.196,-1.052 -4.01,-1.134 z"
       id="path3614"
       style="fill:#000000" />
    <path
       inkscape:connector-curvature="0"
       d="m 175.9095,326.84752 c 0.1912,0.1409 0.36722,0.29215 0.5283,0.45322 l 388.90873,388.90873 c -0.16108,-0.16107 -0.3371,-0.31232 -0.5283,-0.45322 z"
       id="path3616"
       style="fill:#000000" />
    <path
       inkscape:connector-curvature="0"
       d="m 176.4378,327.30074 c 0.83805,0.83806 1.27147,1.94218 1.3327,3.23978 l 388.90873,388.90873 c -0.0612,-1.2976 -0.49465,-2.40172 -1.3327,-3.23978 z"
       id="path3618"
       style="fill:#000000" />
    <path
       inkscape:connector-curvature="0"
       d="m 177.7705,330.54052 c 0.079,1.666 -0.417,2.959 -1.512,4.01 l 388.90873,388.90873 c 1.095,-1.051 1.591,-2.344 1.512,-4.01 z"
       id="path3620"
       style="fill:#000000" />
    <path
       inkscape:connector-curvature="0"
       d="m 176.2585,334.55052 c -1.096,1.03 -3.061,1.642 -5.845,1.774 l 388.90873,388.90873 c 2.784,-0.132 4.749,-0.744 5.845,-1.774 z"
       id="path3622"
       style="fill:#000000" />
    <path
       inkscape:connector-curvature="0"
       d="m 170.4135,336.32452 -8.23,0.407 388.90873,388.90873 8.23,-0.407 z"
       id="path3624"
       style="fill:#000000" />
    <path
       inkscape:connector-curvature="0"
       d="m 162.1835,336.73152 -0.494,-10.643 388.90873,388.90873 0.494,10.643 z"
       id="path3626"
       style="fill:#000000" />
    <path
       inkscape:connector-curvature="0"
       d="m 161.6895,326.08852 8.23,-0.349 388.90873,388.90873 -8.23,0.349 z"
       id="path3628"
       style="fill:#000000" />
    <path
       inkscape:connector-curvature="0"
       d="m 169.9195,325.73952 c 0.708,-0.034 1.373,-0.057 1.977,-0.029 l 388.90873,388.90873 c -0.604,-0.028 -1.269,-0.005 -1.977,0.029 z"
       id="path3630"
       style="fill:#000000" />
  </g>
  <path
     id="path3050"
     d="m 398.4345,160.89652 -24.98,1.163 0.96,20.18 6.659,40.22 15.441,-0.785 2.879,-40.683 -0.96,-20.09 m -61.07,1.512 c -2.037,-0.015 -4.246,0.035 -6.572,0.145 -9.649,0.458 -17.2,2.284 -22.77,5.409 -7.138,4.046 -12.427,9.734 -15.878,17.07 -3.453,7.296 -4.994,15.767 -4.536,25.416 0.435,9.166 2.587,17.195 6.368,24.11 3.82,6.91 8.905,11.987 15.354,15.267 6.487,3.278 14.783,4.691 24.776,4.217 8.117,-0.385 15.05,-1.647 20.85,-3.897 5.839,-2.292 12.456,-6.399 19.891,-12.272 l -1.745,-37.717 -40.22,1.948 0.843,18.378 17.448,-0.872 0.349,8.317 c -3.307,2.292 -6.211,4.02 -8.811,5.03 -2.6,1.01 -5.378,1.549 -8.288,1.687 -6.126,0.291 -11.02,-1.559 -14.656,-5.496 -3.602,-3.939 -5.624,-10.671 -6.078,-20.24 -0.427,-9.01 0.927,-15.677 4.1,-19.978 3.209,-4.343 7.672,-6.65 13.377,-6.921 3.829,-0.182 7.03,0.587 9.567,2.239 2.573,1.651 4.449,4.128 5.641,7.415 l 24.834,-5.903 c -1.802,-5.636 -4.293,-10.26 -7.532,-13.813 -3.202,-3.595 -7.148,-6.186 -11.865,-7.735 -3.509,-1.163 -8.342,-1.76 -14.453,-1.803 m -53.48,3.868 -34.14,1.628 -10.585,54.44 -15.761,-53.16 -34.23,1.658 4.246,88.34 21.257,-0.989 -3.199,-67.41 19.629,66.62 19.28,-0.872 13.231,-68.22 3.228,67.38 21.23,-0.989 -4.188,-88.43 m -137.93,5.118 c -0.852,0.01 -1.683,0.046 -2.559,0.087 -13.669,0.649 -24.13,5.147 -31.406,13.551 -7.276,8.404 -10.63,19.881 -9.945,34.31 0.49,10.332 2.902,18.783 7.095,25.474 4.193,6.691 9.466,11.484 15.819,14.365 6.392,2.88 14.263,4.086 23.758,3.635 9.342,-0.443 17.11,-2.647 23.18,-6.601 6.104,-3.997 10.629,-9.332 13.609,-16.08 3.02,-6.792 4.27,-15.374 3.78,-25.707 -0.675,-14.232 -4.986,-25.08 -12.941,-32.599 -7.46,-7.088 -17.606,-10.581 -30.388,-10.44 m -0.64,20.734 c 5.01,-0.008 9.09,1.758 12.243,5.234 3.397,3.667 5.305,9.62 5.7,17.942 0.469,9.89 -0.753,16.857 -3.635,20.821 -2.882,3.965 -7.118,6.074 -12.708,6.339 -5.437,0.258 -9.839,-1.485 -13.202,-5.234 -3.325,-3.751 -5.16,-10.09 -5.583,-19.02 -0.427,-9.01 0.816,-15.549 3.809,-19.6 2.993,-4.05 7.113,-6.207 12.359,-6.456 0.342,-0.016 0.684,-0.029 1.018,-0.029 m 255.5,35.565 -23.351,1.105 1.076,21.635 23.293,-1.105 -1.018,-21.635 m 20.734,55.54 -15.529,0.727 0.553,11.952 4.1,23.787 9.567,-0.465 1.861,-24.11 -0.553,-11.894 m -19.862,0.901 -16.14,0.843 1.512,31.901 c 0.137,2.903 -0.546,5.222 -2.065,6.892 -1.496,1.645 -3.613,2.485 -6.398,2.617 -2.808,0.133 -5.02,-0.546 -6.688,-2.065 -1.647,-1.544 -2.54,-3.745 -2.675,-6.601 l -1.512,-31.959 -16.197,0.814 1.512,31.17 c 0.122,2.57 0.762,5.498 1.919,8.782 0.717,2.041 1.993,3.973 3.751,5.845 1.782,1.871 3.626,3.3 5.7,4.275 2.073,0.951 4.662,1.588 7.677,1.803 3.039,0.214 5.829,0.208 8.375,0.087 4.403,-0.209 8.168,-0.953 11.254,-2.268 2.221,-0.94 4.303,-2.48 6.252,-4.624 1.972,-2.169 3.365,-4.633 4.188,-7.415 0.845,-2.807 1.194,-5.776 1.047,-8.869 l -1.512,-31.23 m -51.995,2.501 -49.17,2.355 0.669,12.911 16.459,-0.814 1.89,39.432 16.17,-0.785 -1.861,-39.4 16.488,-0.756 -0.64,-12.941 m -50.744,2.385 -15.238,0.727 1.396,28.964 -21.08,-28 -15.12,0.698 2.443,52.31 15.267,-0.669 -1.367,-28.76 20.967,27.829 15.209,-0.756 -2.472,-52.34 m -55.37,2.617 -16.14,0.785 1.512,31.959 c 0.137,2.903 -0.546,5.164 -2.065,6.834 -1.496,1.645 -3.642,2.543 -6.427,2.675 -2.808,0.133 -5.02,-0.546 -6.688,-2.065 -1.648,-1.544 -2.598,-3.716 -2.734,-6.572 l -1.483,-31.959 -16.14,0.727 1.512,31.23 c 0.122,2.57 0.733,5.498 1.89,8.782 0.717,2.041 1.935,4 3.693,5.874 1.782,1.871 3.713,3.3 5.787,4.275 2.072,0.951 4.662,1.501 7.677,1.716 3.039,0.213 5.8,0.266 8.346,0.145 4.403,-0.209 8.197,-0.953 11.283,-2.268 2.221,-0.94 4.244,-2.509 6.194,-4.653 1.972,-2.169 3.365,-4.604 4.188,-7.386 0.845,-2.807 1.223,-5.776 1.076,-8.869 l -1.483,-31.23 m -67.55,3.315 c -0.596,-0.01 -1.201,-0.001 -1.832,0.029 l -30.3,1.396 2.53,52.34 27.859,-1.309 c 1.19,-0.057 3.651,-0.398 7.27,-1.047 2.72,-0.487 4.729,-1.186 6.05,-2.036 2.13,-1.365 3.785,-3.154 4.944,-5.38 1.158,-2.225 1.641,-4.702 1.512,-7.415 -0.158,-3.332 -1.194,-6.01 -3.082,-8.113 -1.866,-2.13 -4.659,-3.549 -8.462,-4.275 2.434,-0.974 4.223,-2.244 5.438,-3.78 1.823,-2.305 2.677,-5.05 2.53,-8.142 -0.175,-3.689 -1.647,-6.674 -4.478,-9.04 -2.457,-2.075 -5.805,-3.152 -9.974,-3.228 m -37.37,1.687 -16.14,0.756 1.512,31.959 c 0.137,2.903 -0.546,5.222 -2.065,6.892 -1.496,1.645 -3.671,2.514 -6.456,2.646 -2.808,0.133 -5.02,-0.546 -6.688,-2.065 -1.647,-1.544 -2.54,-3.745 -2.675,-6.601 l -1.512,-31.959 -16.139998,0.727 1.454,31.23 c 0.122,2.57 0.791,5.498 1.948,8.782 0.717,2.041 1.964,4 3.722,5.874 1.782,1.871 3.712996,3.3 5.786998,4.275 2.072,0.951 4.603,1.53 7.619,1.745 3.039,0.214 5.829,0.266 8.375,0.145 4.403,-0.209 8.139,-0.953 11.225,-2.268 2.221,-0.94 4.303,-2.48 6.252,-4.624 1.972,-2.169 3.424,-4.633 4.246,-7.415 0.845,-2.807 1.135,-5.776 0.989,-8.869 l -1.454,-31.23 m 29.23,9.247 c 2.451,-0.116 4.189,0.237 5.205,1.047 1.04,0.809 1.585,1.937 1.658,3.461 0.078,1.642 -0.351,2.969 -1.309,3.897 -0.935,0.903 -2.654,1.422 -5.176,1.541 l -7.07,0.32 -0.465,-9.945 7.154,-0.32 m 255,16.866 -14.511,0.698 0.669,12.824 14.453,-0.727 -0.611,-12.795 m -250.99,2.966 c 1.814,0.082 3.14,0.46 4.01,1.134 1.186,0.874 1.788,2.146 1.861,3.693 0.079,1.666 -0.417,2.959 -1.512,4.01 -1.096,1.03 -3.061,1.642 -5.845,1.774 l -8.23,0.407 -0.494,-10.643 8.23,-0.349 c 0.708,-0.034 1.373,-0.057 1.977,-0.029"
     inkscape:connector-curvature="0"
     style="fill:#ffffff" />
</svg>
