<?xml version="1.0" encoding="UTF-8" standalone="no"?>
<!-- Created with Inkscape (http://www.inkscape.org/) -->

<svg
   xmlns:dc="http://purl.org/dc/elements/1.1/"
   xmlns:cc="http://creativecommons.org/ns#"
   xmlns:rdf="http://www.w3.org/1999/02/22-rdf-syntax-ns#"
   xmlns:svg="http://www.w3.org/2000/svg"
   xmlns="http://www.w3.org/2000/svg"
   xmlns:inkscape="http://www.inkscape.org/namespaces/inkscape"
   version="1.1"
   width="100%"
   height="100%"
   viewBox="0 0 512 512"
   id="svg2">
  <metadata
     id="metadata228">
    <rdf:RDF>
      <cc:Work
         rdf:about="">
        <dc:format>image/svg+xml</dc:format>
        <dc:type
           rdf:resource="http://purl.org/dc/dcmitype/StillImage" />
      </cc:Work>
    </rdf:RDF>
  </metadata>
  <defs
     id="defs4" />
  <path
     d="m 471.95,253.05 c 0,120.9 -98.01,218.9 -218.9,218.9 -120.9,0 -218.9,-98.01 -218.9,-218.9 0,-120.9 98.01,-218.9 218.9,-218.9 120.9,0 218.9,98.01 218.9,218.9"
     inkscape:connector-curvature="0"
     id="path16"
     style="fill:#ff9955;fill-rule:evenodd" />
  <path
     d="M 187.63,44.13 C 98.7,71.952 34.16,154.96 34.16,253.07 c 0,101.71 69.37,187.2 163.38,211.78 21.571,-67.43 19.591,-130.31 -1.125,-207.62 -23.14,-86.37 -31.33,-144.98 -8.781,-213.09"
     inkscape:connector-curvature="0"
     id="path18"
     style="fill:#1f467c" />
  <g
     id="g20"
     style="fill-rule:evenodd">
    <path
       d="M 256,1 C 115.17,1 1,115.17 1,256 1,396.83 115.17,511 256,511 396.83,511 511,396.83 511,256 511,115.17 396.83,1 256,1 m 8.827,44.931 c 120.9,0 218.9,98 218.9,218.9 0,120.9 -98,218.9 -218.9,218.9 -120.9,0 -218.93,-98 -218.93,-218.9 0,-120.9 98.03,-218.9 218.93,-218.9"
       inkscape:connector-curvature="0"
       id="path22"
       style="fill-opacity:0.06700003" />
    <g
       id="g24"
       style="fill-opacity:0.12900002">
      <path
         d="m 256,4.433 c -138.94,0 -251.57,112.63 -251.57,251.57 0,138.94 112.63,251.57 251.57,251.57 138.94,0 251.57,-112.63 251.57,-251.57 C 507.57,117.063 394.94,4.433 256,4.433 m 5.885,38.556 c 120.9,0 218.9,98 218.9,218.9 0,120.9 -98,218.9 -218.9,218.9 -120.9,0 -218.93,-98 -218.93,-218.9 0,-120.9 98.03,-218.9 218.93,-218.9"
         inkscape:connector-curvature="0"
         id="path26" />
      <path
         d="m 256,8.356 c -136.77,0 -247.64,110.87 -247.64,247.64 0,136.77 110.87,247.64 247.64,247.64 136.77,0 247.64,-110.87 247.64,-247.64 C 503.64,119.226 392.77,8.356 256,8.356 m 2.942,31.691 c 120.9,0 218.9,98 218.9,218.9 0,120.9 -98,218.9 -218.9,218.9 -120.9,0 -218.93,-98 -218.93,-218.9 0,-120.9 98.03,-218.9 218.93,-218.9"
         inkscape:connector-curvature="0"
         id="path28" />
    </g>
    <path
       d="m 253.04,7.859 c -135.42,0 -245.19,109.78 -245.19,245.19 0,135.42 109.78,245.19 245.19,245.19 135.42,0 245.19,-109.78 245.19,-245.19 0,-135.42 -109.78,-245.19 -245.19,-245.19 z m 0,26.297 c 120.9,0 218.9,98 218.9,218.9 0,120.9 -98,218.9 -218.9,218.9 -120.9,0 -218.93,-98 -218.93,-218.9 0,-120.9 98.03,-218.9 218.93,-218.9 z"
       inkscape:connector-curvature="0"
       id="path30"
       style="fill:#ffffff;stroke:#000000;stroke-width:4.90399981;stroke-opacity:0.31000001" />
  </g>
  <text
     x="729.64001"
     y="231.36"
     id="text32"
     style="font-size:129.22999573px;line-height:125%;letter-spacing:0;word-spacing:0;font-family:Gentium Book Basic">
    <tspan
       x="729.64001"
       y="231.36"
       id="tspan34" />
  </text>
  <text
     x="378.91"
     y="579.25"
     transform="scale(4.0128,0.2492)"
     id="text36"
     style="font-size:46.95399857px;text-anchor:middle;font-family:Arial" />
  <text
     x="1310.91"
     y="151.36"
     id="text38"
     style="font-size:129.22999573px;line-height:125%;letter-spacing:0;word-spacing:0;font-family:Gentium Book Basic">
    <tspan
       x="1310.91"
       y="151.36"
       id="tspan40" />
  </text>
  <text
     x="523.76001"
     y="258.22"
     transform="scale(4.0128,0.2492)"
     id="text42"
     style="font-size:46.95399857px;text-anchor:middle;font-family:Arial" />
  <text
     x="239.33"
     y="-29.900999"
     id="text44"
     style="font-size:129.22999573px;line-height:125%;letter-spacing:0;word-spacing:0;font-family:Gentium Book Basic">
    <tspan
       x="239.33"
       y="-29.900999"
       id="tspan46" />
  </text>
  <text
     x="256.72"
     y="-469.14001"
     transform="scale(4.0128,0.2492)"
     id="text48"
     style="font-size:46.95399857px;text-anchor:middle;font-family:Arial" />
  <text
     x="1337.38"
     y="-246.37"
     id="text50"
     style="font-size:129.22999573px;line-height:125%;letter-spacing:0;word-spacing:0;font-family:Gentium Book Basic">
    <tspan
       x="1337.38"
       y="-246.37"
       id="tspan52" />
  </text>
  <text
     x="530.35999"
     y="-1337.8"
     transform="scale(4.0128,0.2492)"
     id="text54"
     style="font-size:46.95399857px;text-anchor:middle;font-family:Arial" />
  <text
     x="1918.65"
     y="-326.38"
     id="text56"
     style="font-size:129.22999573px;line-height:125%;letter-spacing:0;word-spacing:0;font-family:Gentium Book Basic">
    <tspan
       x="1918.65"
       y="-326.38"
       id="tspan58" />
  </text>
  <text
     x="675.21002"
     y="-1658.84"
     transform="scale(4.0128,0.2492)"
     id="text60"
     style="font-size:46.95399857px;text-anchor:middle;font-family:Arial" />
  <text
     x="1529.53"
     y="-798.78003"
     id="text62"
     style="font-size:129.22999573px;line-height:125%;letter-spacing:0;word-spacing:0;font-family:Gentium Book Basic">
    <tspan
       x="1529.53"
       y="-798.78003"
       id="tspan64" />
  </text>
  <text
     x="578.23999"
     y="-3554.49"
     transform="scale(4.0128,0.2492)"
     id="text66"
     style="font-size:46.95399857px;text-anchor:middle;font-family:Arial" />
  <text
     x="2110.79"
     y="-878.78003"
     id="text68"
     style="font-size:129.22999573px;line-height:125%;letter-spacing:0;word-spacing:0;font-family:Gentium Book Basic">
    <tspan
       x="2110.79"
       y="-878.78003"
       id="tspan70" />
  </text>
  <text
     x="723.09003"
     y="-3875.52"
     transform="scale(4.0128,0.2492)"
     id="text72"
     style="font-size:46.95399857px;text-anchor:middle;font-family:Arial" />
  <g
     id="g74"
     style="line-height:125%;letter-spacing:0;word-spacing:0;font-family:Gentium Book Basic">
    <text
       x="277.98999"
       y="535.94"
       id="text76"
       style="font-size:208.33000183px">
      <tspan
         x="277.98999"
         y="535.94"
         id="tspan78" />
    </text>
    <text
       x="117.74"
       y="2.596"
       id="text80"
       style="font-size:129.22999573px">
      <tspan
         x="117.74"
         y="2.596"
         id="tspan82" />
    </text>
  </g>
  <text
     x="226.42"
     y="-338.73999"
     transform="scale(4.0128,0.2492)"
     id="text84"
     style="font-size:46.95399857px;text-anchor:middle;font-family:Arial" />
  <text
     x="699.01001"
     y="-77.400002"
     id="text86"
     style="font-size:129.22999573px;line-height:125%;letter-spacing:0;word-spacing:0;font-family:Gentium Book Basic">
    <tspan
       x="699.01001"
       y="-77.400002"
       id="tspan88" />
  </text>
  <text
     x="371.26999"
     y="-659.77002"
     transform="scale(4.0128,0.2492)"
     id="text90"
     style="font-size:46.95399857px;text-anchor:middle;font-family:Arial" />
  <text
     x="-372.57001"
     y="-258.66"
     id="text92"
     style="font-size:129.22999573px;line-height:125%;letter-spacing:0;word-spacing:0;font-family:Gentium Book Basic">
    <tspan
       x="-372.57001"
       y="-258.66"
       id="tspan94" />
  </text>
  <text
     x="104.23"
     y="-1387.13"
     transform="scale(4.0128,0.2492)"
     id="text96"
     style="font-size:46.95399857px;text-anchor:middle;font-family:Arial" />
  <text
     x="725.47998"
     y="-475.13"
     id="text98"
     style="font-size:129.22999573px;line-height:125%;letter-spacing:0;word-spacing:0;font-family:Gentium Book Basic">
    <tspan
       x="725.47998"
       y="-475.13"
       id="tspan100" />
  </text>
  <text
     x="377.87"
     y="-2255.79"
     transform="scale(4.0128,0.2492)"
     id="text102"
     style="font-size:46.95399857px;text-anchor:middle;font-family:Arial" />
  <text
     x="1306.75"
     y="-555.14001"
     id="text104"
     style="font-size:129.22999573px;line-height:125%;letter-spacing:0;word-spacing:0;font-family:Gentium Book Basic">
    <tspan
       x="1306.75"
       y="-555.14001"
       id="tspan106" />
  </text>
  <text
     x="522.71997"
     y="-2576.8301"
     transform="scale(4.0128,0.2492)"
     id="text108"
     style="font-size:46.95399857px;text-anchor:middle;font-family:Arial" />
  <text
     x="917.63"
     y="-1027.54"
     id="text110"
     style="font-size:129.22999573px;line-height:125%;letter-spacing:0;word-spacing:0;font-family:Gentium Book Basic">
    <tspan
       x="917.63"
       y="-1027.54"
       id="tspan112" />
  </text>
  <text
     x="425.75"
     y="-4472.48"
     transform="scale(4.0128,0.2492)"
     id="text114"
     style="font-size:46.95399857px;text-anchor:middle;font-family:Arial" />
  <text
     x="1498.89"
     y="-1107.54"
     id="text116"
     style="font-size:129.22999573px;line-height:125%;letter-spacing:0;word-spacing:0;font-family:Gentium Book Basic">
    <tspan
       x="1498.89"
       y="-1107.54"
       id="tspan118" />
  </text>
  <text
     x="570.59998"
     y="-4793.5098"
     transform="scale(4.0128,0.2492)"
     id="text120"
     style="font-size:46.95399857px;text-anchor:middle;font-family:Arial" />
  <g
     id="g122"
     style="line-height:125%;letter-spacing:0;word-spacing:0;font-family:Gentium Book Basic">
    <text
       x="-333.91"
       y="307.17999"
       id="text124"
       style="font-size:208.33000183px">
      <tspan
         x="-333.91"
         y="307.17999"
         id="tspan126" />
    </text>
    <text
       x="20.219999"
       y="31.767"
       id="text128"
       style="font-size:129.22999573px">
      <tspan
         x="20.219999"
         y="31.767"
         id="tspan130" />
    </text>
  </g>
  <text
     x="202.12"
     y="-221.67999"
     transform="scale(4.0128,0.2492)"
     id="text132"
     style="font-size:46.95399857px;text-anchor:middle;font-family:Arial" />
  <text
     x="601.48999"
     y="-48.23"
     id="text134"
     style="font-size:129.22999573px;line-height:125%;letter-spacing:0;word-spacing:0;font-family:Gentium Book Basic">
    <tspan
       x="601.48999"
       y="-48.23"
       id="tspan136" />
  </text>
  <text
     x="346.97"
     y="-542.71002"
     transform="scale(4.0128,0.2492)"
     id="text138"
     style="font-size:46.95399857px;text-anchor:middle;font-family:Arial" />
  <text
     x="-470.09"
     y="-229.49001"
     id="text140"
     style="font-size:129.22999573px;line-height:125%;letter-spacing:0;word-spacing:0;font-family:Gentium Book Basic">
    <tspan
       x="-470.09"
       y="-229.49001"
       id="tspan142" />
  </text>
  <text
     x="79.929001"
     y="-1270.0699"
     transform="scale(4.0128,0.2492)"
     id="text144"
     style="font-size:46.95399857px;text-anchor:middle;font-family:Arial" />
  <text
     x="627.96002"
     y="-445.95999"
     id="text146"
     style="font-size:129.22999573px;line-height:125%;letter-spacing:0;word-spacing:0;font-family:Gentium Book Basic">
    <tspan
       x="627.96002"
       y="-445.95999"
       id="tspan148" />
  </text>
  <text
     x="353.57001"
     y="-2138.73"
     transform="scale(4.0128,0.2492)"
     id="text150"
     style="font-size:46.95399857px;text-anchor:middle;font-family:Arial" />
  <text
     x="1209.23"
     y="-525.96997"
     id="text152"
     style="font-size:129.22999573px;line-height:125%;letter-spacing:0;word-spacing:0;font-family:Gentium Book Basic">
    <tspan
       x="1209.23"
       y="-525.96997"
       id="tspan154" />
  </text>
  <text
     x="498.42001"
     y="-2459.77"
     transform="scale(4.0128,0.2492)"
     id="text156"
     style="font-size:46.95399857px;text-anchor:middle;font-family:Arial" />
  <text
     x="820.10999"
     y="-998.37"
     id="text158"
     style="font-size:129.22999573px;line-height:125%;letter-spacing:0;word-spacing:0;font-family:Gentium Book Basic">
    <tspan
       x="820.10999"
       y="-998.37"
       id="tspan160" />
  </text>
  <text
     x="401.45001"
     y="-4355.4199"
     transform="scale(4.0128,0.2492)"
     id="text162"
     style="font-size:46.95399857px;text-anchor:middle;font-family:Arial" />
  <text
     x="1401.37"
     y="-1078.37"
     id="text164"
     style="font-size:129.22999573px;line-height:125%;letter-spacing:0;word-spacing:0;font-family:Gentium Book Basic">
    <tspan
       x="1401.37"
       y="-1078.37"
       id="tspan166" />
  </text>
  <text
     x="546.29999"
     y="-4676.4502"
     transform="scale(4.0128,0.2492)"
     id="text168"
     style="font-size:46.95399857px;text-anchor:middle;font-family:Arial" />
  <g
     id="g170"
     style="line-height:125%;letter-spacing:0;word-spacing:0;font-family:Gentium Book Basic">
    <text
       x="-431.42999"
       y="336.35001"
       id="text172"
       style="font-size:208.33000183px">
      <tspan
         x="-431.42999"
         y="336.35001"
         id="tspan174" />
    </text>
    <text
       x="-60.049999"
       y="-0.77600002"
       id="text176"
       style="font-size:129.22999573px">
      <tspan
         x="-60.049999"
         y="-0.77600002"
         id="tspan178" />
    </text>
  </g>
  <text
     x="182.12"
     y="-352.26999"
     transform="scale(4.0128,0.2492)"
     id="text180"
     style="font-size:46.95399857px;text-anchor:middle;font-family:Arial" />
  <text
     x="521.21997"
     y="-80.779999"
     id="text182"
     style="font-size:129.22999573px;line-height:125%;letter-spacing:0;word-spacing:0;font-family:Gentium Book Basic">
    <tspan
       x="521.21997"
       y="-80.779999"
       id="tspan184" />
  </text>
  <text
     x="326.95999"
     y="-673.29999"
     transform="scale(4.0128,0.2492)"
     id="text186"
     style="font-size:46.95399857px;text-anchor:middle;font-family:Arial" />
  <text
     x="-550.35999"
     y="-262.04001"
     id="text188"
     style="font-size:129.22999573px;line-height:125%;letter-spacing:0;word-spacing:0;font-family:Gentium Book Basic">
    <tspan
       x="-550.35999"
       y="-262.04001"
       id="tspan190" />
  </text>
  <text
     x="59.925999"
     y="-1400.66"
     transform="scale(4.0128,0.2492)"
     id="text192"
     style="font-size:46.95399857px;text-anchor:middle;font-family:Arial" />
  <text
     x="547.69"
     y="-478.51001"
     id="text194"
     style="font-size:129.22999573px;line-height:125%;letter-spacing:0;word-spacing:0;font-family:Gentium Book Basic">
    <tspan
       x="547.69"
       y="-478.51001"
       id="tspan196" />
  </text>
  <text
     x="333.56"
     y="-2269.3201"
     transform="scale(4.0128,0.2492)"
     id="text198"
     style="font-size:46.95399857px;text-anchor:middle;font-family:Arial" />
  <text
     x="1128.96"
     y="-558.52002"
     id="text200"
     style="font-size:129.22999573px;line-height:125%;letter-spacing:0;word-spacing:0;font-family:Gentium Book Basic">
    <tspan
       x="1128.96"
       y="-558.52002"
       id="tspan202" />
  </text>
  <text
     x="478.41"
     y="-2590.3601"
     transform="scale(4.0128,0.2492)"
     id="text204"
     style="font-size:46.95399857px;text-anchor:middle;font-family:Arial" />
  <text
     x="739.84003"
     y="-1030.92"
     id="text206"
     style="font-size:129.22999573px;line-height:125%;letter-spacing:0;word-spacing:0;font-family:Gentium Book Basic">
    <tspan
       x="739.84003"
       y="-1030.92"
       id="tspan208" />
  </text>
  <text
     x="381.44"
     y="-4486.0098"
     transform="scale(4.0128,0.2492)"
     id="text210"
     style="font-size:46.95399857px;text-anchor:middle;font-family:Arial" />
  <text
     x="1321.1"
     y="-1110.92"
     id="text212"
     style="font-size:129.22999573px;line-height:125%;letter-spacing:0;word-spacing:0;font-family:Gentium Book Basic">
    <tspan
       x="1321.1"
       y="-1110.92"
       id="tspan214" />
  </text>
  <text
     x="526.28998"
     y="-4807.04"
     transform="scale(4.0128,0.2492)"
     id="text216"
     style="font-size:46.95399857px;text-anchor:middle;font-family:Arial" />
  <text
     x="-511.70001"
     y="303.79999"
     id="text218"
     style="font-size:208.33000183px;line-height:125%;letter-spacing:0;word-spacing:0;font-family:Gentium Book Basic">
    <tspan
       x="-511.70001"
       y="303.79999"
       id="tspan220" />
  </text>
  <path
     d="m 115.56,148 v 64.813 l 32.406,32.406 H 115.56 v 64.813 l 32.375,32.375 H 115.56 v 21.594 l 105.66,105.66 c 10.393,1.514 21.03,2.281 31.844,2.281 116.09,0 211.04,-90.36 218.41,-204.59 l -97.19,-97.19 c -13.689,-13.689 -32.608,-22.16 -53.5,-22.16 v 21.75 l -10.938,-10.938 c -26.349,0 -49.554,13.495 -63.09,33.938 l -44.75,-44.75 h -86.44"
     inkscape:connector-curvature="0"
     id="path222"
     style="opacity:0.25" />
  <path
     d="m 115.56,148 v 64.813 H 202 V 148 h -86.44 m 205.22,0 v 75.66 h 75.66 C 396.44,181.905 362.577,148 320.78,148 m -10.938,10.813 c -41.755,0 -75.62,33.832 -75.62,75.63 0,41.755 33.832,75.63 75.63,75.63 41.755,0 75.63,-33.832 75.63,-75.62 h -75.62 v -75.62 m -194.28,86.41 v 64.813 h 86.44 v -64.813 h -86.44 m 0,97.19 v 21.594 h 280.84 v -21.594 h -280.84"
     inkscape:connector-curvature="0"
     id="path224"
     style="fill:#f9f9f9" />
</svg>
