<?xml version="1.0" encoding="UTF-8" standalone="no"?>
<!-- Created with Inkscape (http://www.inkscape.org/) -->

<svg
   xmlns:dc="http://purl.org/dc/elements/1.1/"
   xmlns:cc="http://creativecommons.org/ns#"
   xmlns:rdf="http://www.w3.org/1999/02/22-rdf-syntax-ns#"
   xmlns:svg="http://www.w3.org/2000/svg"
   xmlns="http://www.w3.org/2000/svg"
   xmlns:inkscape="http://www.inkscape.org/namespaces/inkscape"
   version="1.1"
   width="100%"
   height="100%"
   viewBox="0 0 512 512"
   id="svg2">
  <metadata
     id="metadata90">
    <rdf:RDF>
      <cc:Work
         rdf:about="">
        <dc:format>image/svg+xml</dc:format>
        <dc:type
           rdf:resource="http://purl.org/dc/dcmitype/StillImage" />
      </cc:Work>
    </rdf:RDF>
  </metadata>
  <defs
     id="defs88" />
  <g
     transform="translate(0,-540.36)"
     id="g4">
    <text
       x="-1160.48"
       y="1089.88"
       id="text6"
       style="font-size:208.33000183px;line-height:125%;letter-spacing:0;word-spacing:0;font-family:Gentium Book Basic">
      <tspan
         x="-1160.48"
         y="1089.88"
         id="tspan8" />
    </text>
    <text
       x="28.534"
       y="3810.6299"
       transform="scale(4.0128,0.2492)"
       id="text10"
       style="font-size:75.69999695px;text-anchor:middle;font-family:Arial" />
    <g
       transform="matrix(0.91476,0,0,0.91476,-967.4,66.57)"
       id="g12"
       style="fill-rule:evenodd">
      <path
         d="m 1336,549.22 c -91.42,0 -171.34,49.11 -214.94,122.34 -22.249,37.37 -35.06,81 -35.06,127.66 0,138.07 111.93,250 250,250 138.07,0 250,-111.93 250,-250 0,-46.653 -12.814,-90.28 -35.06,-127.66 C 1507.343,598.32 1427.42,549.22 1336,549.22"
         inkscape:connector-curvature="0"
         id="path14"
         style="fill:#282629" />
      <path
         d="m 1338.79,546.36 v 500 c 0.021,0 0.042,0 0.062,0 136.64,0 247.64,-109.63 249.94,-245.72 v -9.75 c -0.958,-44.596 -13.622,-86.28 -35,-122.19 -43.597,-73.24 -123.52,-122.34 -214.94,-122.34 -0.021,0 -0.042,0 -0.062,0"
         inkscape:connector-curvature="0"
         id="path16"
         style="fill:#d1c4b1" />
    </g>
    <path
       d="m 114.94,700.55 c 0,11.09 0,22.19 0,33.28 34.05,35.18 4.157,3.879 55.659,58.54 -0.124,1.402 -2.02,2.331 -2.912,3.871 -14.289,29.06 -21.32,61.1 -25.06,93.09 11.947,10.02 21.733,21.997 33.18,32.464 11.701,12.185 24.35,23.526 35.474,36.19 11.513,9.471 20.647,21.14 31.969,30.844 9.407,10.575 20.16,20.12 29.868,30.41 14.819,12.833 38.19,-2.212 55.49,-5.02 55.41,-18.961 103.12,-59.877 129.64,-112.17 -107.66,-113.84 -4.908,-4.424 -107.77,-114.62 -4.505,-0.995 -8.713,0.676 -13.213,-0.348 -30.29,-25.565 -61.08,-55.01 -85.48,-82.56 -5.637,-6.617 -15.11,-3.079 -22.858,-3.969 -37.995,0 -75.99,0 -113.99,0"
       inkscape:connector-curvature="0"
       id="path18"
       style="fill-opacity:0.23500001" />
    <g
       id="g20"
       style="fill:#ffffff">
      <text
         x="107.22"
         y="889.33002"
         id="text22"
         style="font-size:266.27999878px;font-weight:bold;line-height:125%;letter-spacing:0;word-spacing:0;font-family:Nimbus Sans L">
        <tspan
           x="107.22"
           y="889.33002"
           id="tspan24">7</tspan>
      </text>
      <path
         d="m 352.12,889.33 h -75.891 v -14.02 l 48.897,-70.1 h -47.572 v -17.857 h 73.24 v 13.951 l -48.827,70.17 h 50.15 v 17.857"
         inkscape:connector-curvature="0"
         id="path26" />
    </g>
    <g
       id="g28"
       style="fill-rule:evenodd">
      <path
         d="m 256,541.36 c -140.83,0 -255,114.17 -255,255 0,140.83 114.17,255 255,255 140.83,0 255,-114.17 255,-255 0,-140.83 -114.17,-255 -255,-255 m 8.827,44.931 c 120.9,0 218.9,98 218.9,218.9 0,120.9 -98,218.9 -218.9,218.9 -120.9,0 -218.93,-98 -218.93,-218.9 0,-120.9 98.03,-218.9 218.93,-218.9"
         inkscape:connector-curvature="0"
         id="path30"
         style="fill-opacity:0.06700003" />
      <g
         id="g32"
         style="fill-opacity:0.12900002">
        <path
           d="M 256,544.79 C 117.06,544.79 4.43,657.42 4.43,796.36 4.43,935.3 117.06,1047.93 256,1047.93 394.94,1047.93 507.57,935.3 507.57,796.36 507.57,657.42 394.94,544.79 256,544.79 m 5.885,38.556 c 120.9,0 218.9,98 218.9,218.9 0,120.9 -98,218.9 -218.9,218.9 -120.9,0 -218.93,-98 -218.93,-218.9 0,-120.9 98.03,-218.9 218.93,-218.9"
           inkscape:connector-curvature="0"
           id="path34" />
        <path
           d="M 256,548.72 C 119.23,548.72 8.36,659.59 8.36,796.36 8.36,933.13 119.23,1044 256,1044 392.77,1044 503.64,933.13 503.64,796.36 503.64,659.59 392.77,548.72 256,548.72 m 2.942,31.691 c 120.9,0 218.9,98 218.9,218.9 0,120.9 -98,218.9 -218.9,218.9 -120.9,0 -218.93,-98 -218.93,-218.9 0,-120.9 98.03,-218.9 218.93,-218.9"
           inkscape:connector-curvature="0"
           id="path36" />
      </g>
      <path
         d="M 253.04,548.22 C 117.62,548.22 7.85,658 7.85,793.41 c 0,135.42 109.78,245.19 245.19,245.19 135.42,0 245.19,-109.78 245.19,-245.19 0,-135.42 -109.78,-245.19 -245.19,-245.19 z m 0,26.297 c 120.9,0 218.9,98 218.9,218.9 0,120.9 -98,218.9 -218.9,218.9 -120.9,0 -218.93,-98 -218.93,-218.9 0,-120.9 98.03,-218.9 218.93,-218.9 z"
         inkscape:connector-curvature="0"
         id="path38"
         style="fill:#ffffff;stroke:#000000;stroke-width:4.90399981;stroke-opacity:0.31000001" />
    </g>
    <text
       x="729.64001"
       y="771.71997"
       id="text40"
       style="font-size:129.22999573px;line-height:125%;letter-spacing:0;word-spacing:0;font-family:Gentium Book Basic">
      <tspan
         x="729.64001"
         y="771.71997"
         id="tspan42" />
    </text>
    <text
       x="378.91"
       y="2747.6399"
       transform="scale(4.0128,0.2492)"
       id="text44"
       style="font-size:46.95399857px;text-anchor:middle;font-family:Arial" />
    <text
       x="1310.91"
       y="691.71997"
       id="text46"
       style="font-size:129.22999573px;line-height:125%;letter-spacing:0;word-spacing:0;font-family:Gentium Book Basic">
      <tspan
         x="1310.91"
         y="691.71997"
         id="tspan48" />
    </text>
    <text
       x="523.76001"
       y="2426.6001"
       transform="scale(4.0128,0.2492)"
       id="text50"
       style="font-size:46.95399857px;text-anchor:middle;font-family:Arial" />
    <text
       x="239.33"
       y="510.45999"
       id="text52"
       style="font-size:129.22999573px;line-height:125%;letter-spacing:0;word-spacing:0;font-family:Gentium Book Basic">
      <tspan
         x="239.33"
         y="510.45999"
         id="tspan54" />
    </text>
    <text
       x="256.72"
       y="1699.25"
       transform="scale(4.0128,0.2492)"
       id="text56"
       style="font-size:46.95399857px;text-anchor:middle;font-family:Arial" />
    <text
       x="1337.38"
       y="293.98999"
       id="text58"
       style="font-size:129.22999573px;line-height:125%;letter-spacing:0;word-spacing:0;font-family:Gentium Book Basic">
      <tspan
         x="1337.38"
         y="293.98999"
         id="tspan60" />
    </text>
    <text
       x="530.35999"
       y="830.57001"
       transform="scale(4.0128,0.2492)"
       id="text62"
       style="font-size:46.95399857px;text-anchor:middle;font-family:Arial" />
    <text
       x="1918.65"
       y="213.99001"
       id="text64"
       style="font-size:129.22999573px;line-height:125%;letter-spacing:0;word-spacing:0;font-family:Gentium Book Basic">
      <tspan
         x="1918.65"
         y="213.99001"
         id="tspan66" />
    </text>
    <text
       x="675.21002"
       y="509.54001"
       transform="scale(4.0128,0.2492)"
       id="text68"
       style="font-size:46.95399857px;text-anchor:middle;font-family:Arial" />
    <text
       x="1529.53"
       y="-258.41"
       id="text70"
       style="font-size:129.22999573px;line-height:125%;letter-spacing:0;word-spacing:0;font-family:Gentium Book Basic">
      <tspan
         x="1529.53"
         y="-258.41"
         id="tspan72" />
    </text>
    <text
       x="578.23999"
       y="-1386.12"
       transform="scale(4.0128,0.2492)"
       id="text74"
       style="font-size:46.95399857px;text-anchor:middle;font-family:Arial" />
    <text
       x="2110.79"
       y="-338.42001"
       id="text76"
       style="font-size:129.22999573px;line-height:125%;letter-spacing:0;word-spacing:0;font-family:Gentium Book Basic">
      <tspan
         x="2110.79"
         y="-338.42001"
         id="tspan78" />
    </text>
    <text
       x="723.09003"
       y="-1707.16"
       transform="scale(4.0128,0.2492)"
       id="text80"
       style="font-size:46.95399857px;text-anchor:middle;font-family:Arial" />
    <text
       x="277.98999"
       y="1076.3"
       id="text82"
       style="font-size:208.33000183px;line-height:125%;letter-spacing:0;word-spacing:0;font-family:Gentium Book Basic">
      <tspan
         x="277.98999"
         y="1076.3"
         id="tspan84" />
    </text>
  </g>
</svg>
