<?xml version="1.0" encoding="UTF-8" standalone="no"?>
<svg
   xmlns:dc="http://purl.org/dc/elements/1.1/"
   xmlns:cc="http://creativecommons.org/ns#"
   xmlns:rdf="http://www.w3.org/1999/02/22-rdf-syntax-ns#"
   xmlns:svg="http://www.w3.org/2000/svg"
   xmlns="http://www.w3.org/2000/svg"
   xmlns:sodipodi="http://sodipodi.sourceforge.net/DTD/sodipodi-0.dtd"
   xmlns:inkscape="http://www.inkscape.org/namespaces/inkscape"
   viewBox="0 0 512 512"
   id="svg2"
   version="1.1"
   inkscape:version="0.48.5 r10040"
   width="100%"
   height="100%"
   sodipodi:docname="a base.svg">
  <sodipodi:namedview
     pagecolor="#ffffff"
     bordercolor="#666666"
     borderopacity="1"
     objecttolerance="10"
     gridtolerance="10"
     guidetolerance="10"
     inkscape:pageopacity="0"
     inkscape:pageshadow="2"
     inkscape:window-width="1306"
     inkscape:window-height="706"
     id="namedview66"
     showgrid="false"
     inkscape:zoom="0.921875"
     inkscape:cx="270.52987"
     inkscape:cy="260.36863"
     inkscape:window-x="56"
     inkscape:window-y="26"
     inkscape:window-maximized="1"
     inkscape:current-layer="svg2" />
  <metadata
     id="metadata70">
    <rdf:RDF>
      <cc:Work
         rdf:about="">
        <dc:format>image/svg+xml</dc:format>
        <dc:type
           rdf:resource="http://purl.org/dc/dcmitype/StillImage" />
        <dc:title></dc:title>
      </cc:Work>
    </rdf:RDF>
  </metadata>
  <defs
     id="defs68">
    <clipPath
       id="clipPath-538646568">
      <g
         transform="translate(0,-1004.3622)"
         id="g3024">
        <path
           d="m -24 13 c 0 1.105 -0.672 2 -1.5 2 -0.828 0 -1.5 -0.895 -1.5 -2 0 -1.105 0.672 -2 1.5 -2 0.828 0 1.5 0.895 1.5 2 z"
           transform="matrix(15.333333,0,0,11.5,414.99999,878.8622)"
           fill="#1890d0"
           id="path3026" />
      </g>
    </clipPath>
    <clipPath
       id="clipPath-530784810">
      <g
         transform="translate(0,-1004.3622)"
         id="g3019">
        <path
           d="m -24 13 c 0 1.105 -0.672 2 -1.5 2 -0.828 0 -1.5 -0.895 -1.5 -2 0 -1.105 0.672 -2 1.5 -2 0.828 0 1.5 0.895 1.5 2 z"
           transform="matrix(15.333333,0,0,11.5,414.99999,878.8622)"
           fill="#1890d0"
           id="path3021" />
      </g>
    </clipPath>
    <linearGradient
       id="linearGradient3764"
       x1="1"
       x2="47"
       gradientUnits="userSpaceOnUse"
       gradientTransform="matrix(0,-1,1,0,-1.5e-6,47.999998)">
      <stop
         stop-color="#e4e4e4"
         stop-opacity="1"
         id="stop3014" />
      <stop
         offset="1"
         stop-color="#eee"
         stop-opacity="1"
         id="stop3016" />
    </linearGradient>
    <clipPath
       clipPathUnits="userSpaceOnUse"
       id="clipPath4100">
      <path
         d="m 471.9456,253.05189 c 0,120.89699 -98.00565,218.90724 -218.90724,218.90724 -120.89698,0 -218.90723,-98.00566 -218.90723,-218.90724 0,-120.89698 98.00565,-218.907232 218.90723,-218.907232 120.89699,0 218.90724,98.005652 218.90724,218.907232"
         id="path4102"
         inkscape:connector-curvature="0"
         style="fill:#33678e;fill-opacity:1;fill-rule:evenodd" />
    </clipPath>
  </defs>
  <path
     style="fill:#33678e;fill-rule:evenodd;fill-opacity:1"
     inkscape:connector-curvature="0"
     id="path8"
     d="m 471.9456,253.05189 c 0,120.89699 -98.00565,218.90724 -218.90724,218.90724 -120.89698,0 -218.90723,-98.00566 -218.90723,-218.90724 0,-120.89698 98.00565,-218.907232 218.90723,-218.907232 120.89699,0 218.90724,98.005652 218.90724,218.907232" />
  <path
     style="fill-opacity:0.06700003;fill-rule:evenodd"
     inkscape:connector-curvature="0"
     id="path10"
     d="M 256,1 C 115.17,1 1,115.17 1,256 1,396.83 115.17,511 256,511 396.83,511 511,396.83 511,256 511,115.17 396.83,1 256,1 m 8.827,44.931 c 120.9,0 218.9,98 218.9,218.9 0,120.9 -98,218.9 -218.9,218.9 -120.9,0 -218.93,-98 -218.93,-218.9 0,-120.9 98.03,-218.9 218.93,-218.9" />
  <path
     d="M 256,4.43 C 117.06,4.43 4.43,117.06 4.43,256 4.43,394.94 117.06,507.57 256,507.57 394.94,507.57 507.57,394.94 507.57,256 507.57,117.06 394.94,4.43 256,4.43 m 5.885,38.556 c 120.9,0 218.9,98 218.9,218.9 0,120.9 -98,218.9 -218.9,218.9 -120.9,0 -218.93,-98 -218.93,-218.9 0,-120.9 98.03,-218.9 218.93,-218.9"
     id="path14"
     inkscape:connector-curvature="0"
     style="fill-opacity:0.12900002;fill-rule:evenodd" />
  <path
     d="M 256,8.36 C 119.23,8.36 8.36,119.23 8.36,256 8.36,392.77 119.23,503.64 256,503.64 392.77,503.64 503.64,392.77 503.64,256 503.64,119.23 392.77,8.36 256,8.36 m 2.942,31.691 c 120.9,0 218.9,98 218.9,218.9 0,120.9 -98,218.9 -218.9,218.9 -120.9,0 -218.93,-98 -218.93,-218.9 0,-120.9 98.03,-218.9 218.93,-218.9"
     id="path16"
     inkscape:connector-curvature="0"
     style="fill-opacity:0.12900002;fill-rule:evenodd" />
  <path
     style="fill:#ffffff;fill-rule:evenodd;stroke:#000000;stroke-width:4.90399981;stroke-opacity:0.31000001"
     inkscape:connector-curvature="0"
     id="path18"
     d="M 253.04,7.86 C 117.62,7.86 7.85,117.64 7.85,253.05 c 0,135.42 109.78,245.19 245.19,245.19 135.42,0 245.19,-109.78 245.19,-245.19 C 498.23,117.63 388.45,7.86 253.04,7.86 z m 0,26.297 c 120.9,0 218.9,98 218.9,218.9 0,120.9 -98,218.9 -218.9,218.9 -120.9,0 -218.93,-98 -218.93,-218.9 0,-120.9 98.03,-218.9 218.93,-218.9 z" />
  <text
     font-size="129.23"
     letter-spacing="0"
     line-height="125%"
     word-spacing="0"
     x="729.64001"
     y="231.35997"
     id="text20"
     sodipodi:linespacing="125%"
     style="font-size:129.22999573px;line-height:125%;letter-spacing:0;word-spacing:0;font-family:Gentium Book Basic">
    <tspan
       x="729.64001"
       y="231.35997"
       id="tspan22" />
  </text>
  <text
     x="378.90805"
     y="579.25812"
     font-size="46.954"
     transform="scale(4.0128205,0.24920128)"
     id="text24"
     style="font-size:46.95375824px;text-anchor:middle;font-family:Arial" />
  <text
     font-size="129.23"
     letter-spacing="0"
     line-height="125%"
     word-spacing="0"
     x="1310.91"
     y="151.35997"
     id="text26"
     sodipodi:linespacing="125%"
     style="font-size:129.22999573px;line-height:125%;letter-spacing:0;word-spacing:0;font-family:Gentium Book Basic">
    <tspan
       x="1310.91"
       y="151.35997"
       id="tspan28" />
  </text>
  <text
     x="523.75732"
     y="258.21997"
     font-size="46.954"
     transform="scale(4.0128205,0.24920128)"
     id="text30"
     style="font-size:46.95375824px;text-anchor:middle;font-family:Arial" />
  <text
     font-size="129.23"
     letter-spacing="0"
     line-height="125%"
     word-spacing="0"
     x="239.33"
     y="-29.900009"
     id="text32"
     sodipodi:linespacing="125%"
     style="font-size:129.22999573px;line-height:125%;letter-spacing:0;word-spacing:0;font-family:Gentium Book Basic">
    <tspan
       x="239.33"
       y="-29.900009"
       id="tspan34" />
  </text>
  <text
     x="256.71869"
     y="-469.1264"
     font-size="46.954"
     transform="scale(4.0128205,0.24920128)"
     id="text36"
     style="font-size:46.95375824px;text-anchor:middle;font-family:Arial" />
  <text
     font-size="129.23"
     letter-spacing="0"
     line-height="125%"
     word-spacing="0"
     x="1337.38"
     y="-246.37001"
     id="text38"
     sodipodi:linespacing="125%"
     style="font-size:129.22999573px;line-height:125%;letter-spacing:0;word-spacing:0;font-family:Gentium Book Basic">
    <tspan
       x="1337.38"
       y="-246.37001"
       id="tspan40" />
  </text>
  <text
     x="530.3573"
     y="-1337.802"
     font-size="46.954"
     transform="scale(4.0128205,0.24920128)"
     id="text42"
     style="font-size:46.95375824px;text-anchor:middle;font-family:Arial" />
  <text
     font-size="129.23"
     letter-spacing="0"
     line-height="125%"
     word-spacing="0"
     x="1918.65"
     y="-326.37"
     id="text44"
     sodipodi:linespacing="125%"
     style="font-size:129.22999573px;line-height:125%;letter-spacing:0;word-spacing:0;font-family:Gentium Book Basic">
    <tspan
       x="1918.65"
       y="-326.37"
       id="tspan46" />
  </text>
  <text
     x="675.20654"
     y="-1658.8303"
     font-size="46.954"
     transform="scale(4.0128205,0.24920128)"
     id="text48"
     style="font-size:46.95375824px;text-anchor:middle;font-family:Arial" />
  <text
     font-size="129.23"
     letter-spacing="0"
     line-height="125%"
     word-spacing="0"
     x="1529.53"
     y="-798.77002"
     id="text50"
     sodipodi:linespacing="125%"
     style="font-size:129.22999573px;line-height:125%;letter-spacing:0;word-spacing:0;font-family:Gentium Book Basic">
    <tspan
       x="1529.53"
       y="-798.77002"
       id="tspan52" />
  </text>
  <text
     x="578.237"
     y="-3554.4807"
     font-size="46.954"
     transform="scale(4.0128205,0.24920128)"
     id="text54"
     style="font-size:46.95375824px;text-anchor:middle;font-family:Arial" />
  <text
     font-size="129.23"
     letter-spacing="0"
     line-height="125%"
     word-spacing="0"
     x="2110.79"
     y="-878.78003"
     id="text56"
     sodipodi:linespacing="125%"
     style="font-size:129.22999573px;line-height:125%;letter-spacing:0;word-spacing:0;font-family:Gentium Book Basic">
    <tspan
       x="2110.79"
       y="-878.78003"
       id="tspan58" />
  </text>
  <text
     x="723.0863"
     y="-3875.519"
     font-size="46.954"
     transform="scale(4.0128205,0.24920128)"
     id="text60"
     style="font-size:46.95375824px;text-anchor:middle;font-family:Arial" />
  <text
     font-size="208.33"
     letter-spacing="0"
     line-height="125%"
     word-spacing="0"
     x="277.98999"
     y="535.94006"
     id="text62"
     sodipodi:linespacing="125%"
     style="font-size:208.33000183px;line-height:125%;letter-spacing:0;word-spacing:0;font-family:Gentium Book Basic">
    <tspan
       x="277.98999"
       y="535.94006"
       id="tspan64" />
  </text>
  <g
     transform="matrix(9.7702849,0,0,9.7702849,-566.95543,-44.117739)"
     id="g3040" />
  <g
     style="fill:#000000;fill-opacity:1;fill-rule:nonzero;stroke:none;opacity:0.25"
     id="g3330"
     clip-path="url(#clipPath4100)">
    <path
       inkscape:connector-curvature="0"
       d="m 328.09178,112.18086 c -11.19797,0.1 -21.0228,1.70527 -27.7512,3.22248 l 388.90873,388.90873 c 6.7284,-1.51721 16.55323,-3.12248 27.7512,-3.22248 z"
       id="path3332"
       style="fill:#000000" />
    <path
       inkscape:connector-curvature="0"
       d="m 300.34058,115.40334 c -0.84949,0.19156 -1.48898,0.38131 -2.23677,0.56867 l 388.90873,388.90873 c 0.74779,-0.18736 1.38728,-0.37711 2.23677,-0.56867 z"
       id="path3334"
       style="fill:#000000" />
    <path
       inkscape:connector-curvature="0"
       d="m 298.10381,115.97201 c 15.40883,5.55013 27.67402,14.31146 37.14459,23.78203 l 388.90873,388.90873 c -9.47057,-9.47057 -21.73576,-18.2319 -37.14459,-23.78203 z"
       id="path3336"
       style="fill:#000000" />
    <path
       inkscape:connector-curvature="0"
       d="m 335.2484,139.75404 c 2.81146,2.81147 5.37664,5.68543 7.70467,8.55645 L 731.8618,537.21922 c -2.32803,-2.87102 -4.89321,-5.74498 -7.70467,-8.55645 z"
       id="path3338"
       style="fill:#000000" />
    <path
       inkscape:connector-curvature="0"
       d="m 342.95307,148.31049 c 7.63577,9.41673 12.76239,18.79669 15.84699,25.93144 l 388.90873,388.90873 c -3.0846,-7.13475 -8.21122,-16.51471 -15.84699,-25.93144 z"
       id="path3340"
       style="fill:#000000" />
    <path
       inkscape:connector-curvature="0"
       d="m 358.80006,174.24193 c 1.5423,3.56738 2.56971,6.57612 3.14665,8.83337 l 388.90873,388.90873 c -0.57694,-2.25725 -1.60435,-5.26599 -3.14665,-8.83337 z"
       id="path3342"
       style="fill:#000000" />
    <path
       inkscape:connector-curvature="0"
       d="m 361.94671,183.0753 c 0.28847,1.12864 0.47326,2.03089 0.53077,2.91919 l 388.90873,388.90873 c -0.0575,-0.8883 -0.2423,-1.79055 -0.53077,-2.91919 z"
       id="path3344"
       style="fill:#000000" />
    <path
       inkscape:connector-curvature="0"
       d="m 362.47748,185.99449 c 0.0288,0.44414 0.0734,0.86868 -0.0758,1.51646 l 388.90873,388.90873 c 0.1492,-0.64778 0.1046,-1.07232 0.0758,-1.51646 z"
       id="path3346"
       style="fill:#000000" />
    <path
       inkscape:connector-curvature="0"
       d="m 362.40168,187.51095 c -0.0159,0.0689 -0.0525,0.15221 -0.0758,0.22746 l 388.90873,388.90873 c 0.0233,-0.0752 0.0599,-0.15856 0.0758,-0.22746 z"
       id="path3348"
       style="fill:#000000" />
    <path
       inkscape:connector-curvature="0"
       d="m 362.32588,187.73841 c 0.40605,11.97405 -2.78672,20.03885 -3.22248,31.88355 l 388.90873,388.90873 c 0.43576,-11.8447 3.62853,-19.9095 3.22248,-31.88355 z"
       id="path3350"
       style="fill:#000000" />
    <path
       inkscape:connector-curvature="0"
       d="m 359.1034,219.62196 c -0.25646,8.56198 1.96496,18.33996 2.50216,28.81271 L 750.51429,637.3434 c -0.5372,-10.47275 -2.75862,-20.25073 -2.50216,-28.81271 z"
       id="path3352"
       style="fill:#000000" />
    <path
       inkscape:connector-curvature="0"
       d="m 361.60556,248.43467 c 0.51993,10.13585 -0.6739,21.06213 -7.69603,31.80772 l 388.90873,388.90873 c 7.02213,-10.74559 8.21596,-21.67187 7.69603,-31.80772 z"
       id="path3354"
       style="fill:#000000" />
    <path
       inkscape:connector-curvature="0"
       d="m 353.90953,280.24239 c 0.0493,0.06 0.10264,0.13001 0.15165,0.18956 l 388.90873,388.90873 c -0.049,-0.0596 -0.10235,-0.12956 -0.15165,-0.18956 z"
       id="path3356"
       style="fill:#000000" />
    <path
       inkscape:connector-curvature="0"
       d="m 354.06118,280.43195 c 1.34926,1.64037 2.63306,3.09022 3.71532,4.58728 l 388.90873,388.90873 c -1.08226,-1.49706 -2.36606,-2.94691 -3.71532,-4.58728 z"
       id="path3358"
       style="fill:#000000" />
    <path
       inkscape:connector-curvature="0"
       d="m 357.7765,285.01923 c 18.68323,-27.82159 32.05457,-58.85938 39.12464,-85.22497 l 388.90873,388.90873 c -7.07007,26.36559 -20.44141,57.40338 -39.12464,85.22497 z"
       id="path3360"
       style="fill:#000000" />
    <path
       inkscape:connector-curvature="0"
       d="m 396.90114,199.79426 c 3.70347,-13.81092 5.68297,-26.34021 5.83836,-36.3571 l 388.90873,388.90873 c -0.15539,10.01689 -2.13489,22.54618 -5.83836,36.3571 z"
       id="path3362"
       style="fill:#000000" />
    <path
       inkscape:connector-curvature="0"
       d="m 402.7395,163.43716 c 0.1554,-10.01688 -1.66507,-17.43157 -4.54937,-20.96504 l 388.90873,388.90873 c 2.8843,3.53347 4.70477,10.94816 4.54937,20.96504 z"
       id="path3364"
       style="fill:#000000" />
    <path
       inkscape:connector-curvature="0"
       d="m 398.19013,142.47212 c -1.83813,-2.26146 -3.73919,-4.36434 -5.69342,-6.31857 l 388.90873,388.90873 c 1.95423,1.95423 3.85529,4.05711 5.69342,6.31857 z"
       id="path3366"
       style="fill:#000000" />
    <path
       inkscape:connector-curvature="0"
       d="M 392.49671,136.15355 C 373.08976,116.7466 348.43887,111.99924 328.09183,112.18086 l 388.90873,388.90873 c 20.34703,-0.18162 44.99793,4.56574 64.40488,23.97269 z"
       id="path3368"
       style="fill:#000000" />
    <path
       inkscape:connector-curvature="0"
       d="m 260.49563,115.82036 c -16.35562,0.35754 -28.39303,5.33276 -37.53234,12.66243 l 388.90873,388.90873 c 9.13931,-7.32967 21.17672,-12.30489 37.53234,-12.66243 z"
       id="path3370"
       style="fill:#000000" />
    <path
       inkscape:connector-curvature="0"
       d="m 222.96329,128.48279 c -9.7486,7.81832 -16.20074,18.43587 -20.43428,29.22974 l 388.90873,388.90873 c 4.23354,-10.79387 10.68568,-21.41142 20.43428,-29.22974 z"
       id="path3372"
       style="fill:#000000" />
    <path
       inkscape:connector-curvature="0"
       d="m 202.52901,157.71253 c -5.60768,14.29741 -7.25544,28.60734 -7.73393,36.73621 l 388.90873,388.90873 c 0.47849,-8.12887 2.12625,-22.4388 7.73393,-36.73621 z"
       id="path3374"
       style="fill:#000000" />
    <path
       inkscape:connector-curvature="0"
       d="m 194.79508,194.44874 c 1.00348,-0.63416 2.08986,-1.28515 3.29829,-1.93348 L 587.0021,581.42399 c -1.20843,0.64833 -2.29481,1.29932 -3.29829,1.93348 z"
       id="path3376"
       style="fill:#000000" />
    <path
       inkscape:connector-curvature="0"
       d="m 198.09337,192.51526 c 4.94521,-2.65312 11.47024,-5.36037 18.38706,-6.89989 L 605.38916,574.5241 c -6.91682,1.53952 -13.44185,4.24677 -18.38706,6.89989 z"
       id="path3378"
       style="fill:#000000" />
    <path
       inkscape:connector-curvature="0"
       d="m 216.48043,185.61537 c 3.45842,-0.76976 7.03942,-1.25144 10.53939,-1.25108 l 388.90873,388.90873 c -3.49997,-3.6e-4 -7.08097,0.48132 -10.53939,1.25108 z"
       id="path3380"
       style="fill:#000000" />
    <path
       inkscape:connector-curvature="0"
       d="m 227.01982,184.36429 c 3.49996,3.7e-4 6.941,0.50918 10.16026,1.70602 l 388.90873,388.90873 c -3.21926,-1.19684 -6.6603,-1.70565 -10.16026,-1.70602 z"
       id="path3382"
       style="fill:#000000" />
    <path
       inkscape:connector-curvature="0"
       d="m 237.18008,186.07031 c 2.7272,1.0139 5.24745,2.58564 7.39879,4.73698 l 388.90872,388.90873 c -2.15133,-2.15134 -4.67158,-3.72308 -7.39878,-4.73698 z"
       id="path3384"
       style="fill:#000000" />
    <path
       inkscape:connector-curvature="0"
       d="m 244.57887,190.80729 c 2.92765,2.92766 5.1721,6.92866 6.32516,12.0578 l 388.90873,388.90873 c -1.15306,-5.12914 -3.39751,-9.13014 -6.32517,-12.0578 z"
       id="path3386"
       style="fill:#000000" />
    <path
       inkscape:connector-curvature="0"
       d="m 250.90403,202.86509 c 9.93071,44.24059 -2.90672,59.9066 -7.88558,72.82792 l 388.90873,388.90873 c 4.97886,-12.92132 17.81629,-28.58733 7.88558,-72.82792 z"
       id="path3388"
       style="fill:#000000" />
    <path
       inkscape:connector-curvature="0"
       d="m 243.01845,275.69301 c -2.60029,6.74837 -4.84834,12.55618 -5.53508,17.28763 L 626.3921,681.88937 c 0.68674,-4.73145 2.93479,-10.53926 5.53508,-17.28763 z"
       id="path3390"
       style="fill:#000000" />
    <path
       inkscape:connector-curvature="0"
       d="m 237.48337,292.98064 c 1.58858,-0.95243 3.16206,-1.5013 4.66311,-1.63019 l 388.90873,388.90873 c -1.50105,0.12889 -3.07453,0.67776 -4.66311,1.63019 z"
       id="path3392"
       style="fill:#000000" />
    <path
       inkscape:connector-curvature="0"
       d="m 242.14648,291.35045 c 2.87533,-0.24687 5.20579,0.71583 6.78616,1.3269 l 388.90873,388.90873 c -1.58037,-0.61107 -3.91083,-1.57377 -6.78616,-1.3269 z"
       id="path3394"
       style="fill:#000000" />
    <path
       inkscape:connector-curvature="0"
       d="m 248.97054,292.67735 c 1.81517,0.73328 3.43088,1.85083 4.81323,3.23318 L 642.6925,684.81926 c -1.38235,-1.38235 -2.99807,-2.4999 -4.81323,-3.23318 z"
       id="path3396"
       style="fill:#000000" />
    <path
       inkscape:connector-curvature="0"
       d="m 253.78377,295.91053 c 1.7973,1.7973 3.2001,4.04223 4.13387,6.47216 l 388.90873,388.90873 c -0.93377,-2.42993 -2.33657,-4.67486 -4.13387,-6.47216 z"
       id="path3398"
       style="fill:#000000" />
    <path
       inkscape:connector-curvature="0"
       d="m 257.91764,302.38269 c 0.94688,2.46405 1.39402,5.23352 1.02361,7.92349 l 388.90873,388.90873 c 0.37041,-2.68997 -0.0767,-5.45944 -1.02361,-7.92349 z"
       id="path3400"
       style="fill:#000000" />
    <path
       inkscape:connector-curvature="0"
       d="m 258.94125,310.30618 c -0.17876,7.0958 -0.26168,14.11559 -0.26538,20.96504 L 647.5846,720.17995 c 0.004,-6.84945 0.0866,-13.86924 0.26538,-20.96504 z"
       id="path3402"
       style="fill:#000000" />
    <path
       inkscape:connector-curvature="0"
       d="m 258.67587,331.27122 c 1.10642,6.5784 1.70334,14.56178 1.47855,22.21612 l 388.90873,388.90873 c 0.22479,-7.65434 -0.37213,-15.63772 -1.47855,-22.21612 z"
       id="path3404"
       style="fill:#000000" />
    <path
       inkscape:connector-curvature="0"
       d="m 260.15442,353.48734 c -0.17927,6.08607 -0.36315,11.43826 -0.30329,16.1882 l 388.90873,388.90873 c -0.0599,-4.74994 0.12402,-10.10213 0.30329,-16.1882 z"
       id="path3406"
       style="fill:#000000" />
    <path
       inkscape:connector-curvature="0"
       d="m 259.85113,369.67554 c 0.23016,2.95983 0.50839,5.69609 0.79614,8.11305 L 649.556,766.69732 c -0.28775,-2.41696 -0.56598,-5.15322 -0.79614,-8.11305 z"
       id="path3408"
       style="fill:#000000" />
    <path
       inkscape:connector-curvature="0"
       d="m 260.64727,377.78859 c 0.61618,5.17554 1.44194,9.1028 2.12304,10.76686 l 388.90873,388.90873 c -0.6811,-1.66406 -1.50686,-5.59132 -2.12304,-10.76686 z"
       id="path3410"
       style="fill:#000000" />
    <path
       inkscape:connector-curvature="0"
       d="m 262.77031,388.55545 c 1.58764,3.84282 3.85988,8.89741 7.88314,12.92067 l 388.90873,388.90873 c -4.02327,-4.02326 -6.2955,-9.07785 -7.88314,-12.92067 z"
       id="path3412"
       style="fill:#000000" />
    <path
       inkscape:connector-curvature="0"
       d="m 270.65345,401.47612 c 0.58228,0.58228 1.20124,1.14296 1.86011,1.67524 l 388.90873,388.90873 c -0.65887,-0.53228 -1.27783,-1.09296 -1.86011,-1.67524 z"
       id="path3414"
       style="fill:#000000" />
    <path
       inkscape:connector-curvature="0"
       d="m 272.51356,403.15136 c 5.21131,4.21005 12.90255,6.94369 25.93144,4.32191 L 687.35373,796.382 c -13.02889,2.62178 -20.72013,-0.11186 -25.93144,-4.32191 z"
       id="path3416"
       style="fill:#000000" />
    <path
       inkscape:connector-curvature="0"
       d="m 298.445,407.47327 c 11.07609,-2.28879 18.21614,-5.58221 23.05017,-10.42566 L 710.4039,785.95634 c -4.83403,4.84345 -11.97408,8.13687 -23.05017,10.42566 z"
       id="path3418"
       style="fill:#000000" />
    <path
       inkscape:connector-curvature="0"
       d="m 321.49517,397.04761 c 4.83403,-4.84344 7.63576,-11.45535 9.36413,-21.15459 l 388.90873,388.90873 c -1.72837,9.69924 -4.5301,16.31115 -9.36413,21.15459 z"
       id="path3420"
       style="fill:#000000" />
    <path
       inkscape:connector-curvature="0"
       d="m 330.8593,375.89302 c 2.56261,-14.35882 7.63583,-54.9467 8.37844,-63.72918 l 388.90873,388.90873 c -0.74261,8.78248 -5.81583,49.37036 -8.37844,63.72918 z"
       id="path3422"
       style="fill:#000000" />
    <path
       inkscape:connector-curvature="0"
       d="m 339.23774,312.16384 c -7e-4,-0.0125 6e-4,-0.0254 0,-0.0378 l 388.90873,388.90873 c 6e-4,0.0124 -7e-4,0.0253 0,0.0378 z"
       id="path3424"
       style="fill:#000000" />
    <path
       inkscape:connector-curvature="0"
       d="m 339.23774,312.12604 c -0.36319,-5.97953 0.52088,-10.37538 2.35051,-13.61021 l 388.90873,388.90873 c -1.82963,3.23483 -2.7137,7.63068 -2.35051,13.61021 z"
       id="path3426"
       style="fill:#000000" />
    <path
       inkscape:connector-curvature="0"
       d="m 341.58825,298.51583 c 1.83403,-3.24263 4.58089,-5.15019 7.05153,-6.21748 l 388.90873,388.90873 c -2.47064,1.06729 -5.2175,2.97485 -7.05153,6.21748 z"
       id="path3428"
       style="fill:#000000" />
    <path
       inkscape:connector-curvature="0"
       d="m 348.63978,292.29835 c 2.2975,-0.9925 4.27544,-1.38668 5.45925,-1.74393 l 388.90873,388.90873 c -1.18381,0.35725 -3.16175,0.75143 -5.45925,1.74393 z"
       id="path3430"
       style="fill:#000000" />
    <path
       inkscape:connector-curvature="0"
       d="m 354.09903,290.55442 c -0.71415,-1.413 -2.2347,-3.42495 -4.6252,-6.33122 l 388.90873,388.90873 c 2.3905,2.90627 3.91105,4.91822 4.6252,6.33122 z"
       id="path3432"
       style="fill:#000000" />
    <path
       inkscape:connector-curvature="0"
       d="m 349.47383,284.2232 c -2.85371,-3.46942 -6.3745,-8.08464 -9.17457,-14.59591 l 388.90873,388.90873 c 2.80007,6.51127 6.32086,11.12649 9.17457,14.59591 z"
       id="path3434"
       style="fill:#000000" />
    <path
       inkscape:connector-curvature="0"
       d="m 340.29926,269.62729 c -0.40012,-0.93481 -1.86078,-3.51444 -3.75324,-6.78615 l 388.90873,388.90873 c 1.89246,3.27171 3.35312,5.85134 3.75324,6.78615 z"
       id="path3436"
       style="fill:#000000" />
    <path
       inkscape:connector-curvature="0"
       d="m 336.54602,262.84114 c -1.89245,-3.27172 -4.26416,-7.38519 -6.74824,-11.98003 l 388.90873,388.90873 c 2.48408,4.59484 4.85579,8.70831 6.74824,11.98003 z"
       id="path3438"
       style="fill:#000000" />
    <path
       inkscape:connector-curvature="0"
       d="m 329.79778,250.86111 c -4.96817,-9.18965 -10.35035,-20.32084 -13.11737,-31.01157 l 388.90873,388.90873 c 2.76702,10.69073 8.1492,21.82192 13.11737,31.01157 z"
       id="path3440"
       style="fill:#000000" />
    <path
       inkscape:connector-curvature="0"
       d="m 316.68041,219.84954 c -2.76701,-10.69073 -3.04011,-21.40871 3.60159,-28.73689 l 388.90873,388.90873 c -6.6417,7.32818 -6.3686,18.04616 -3.60159,28.73689 z"
       id="path3442"
       style="fill:#000000" />
    <path
       inkscape:connector-curvature="0"
       d="m 320.282,191.11265 c 6.19009,-6.8299 17.72179,-9.46754 35.7126,-7.27901 l 388.90873,388.90873 c -17.99081,-2.18853 -29.52251,0.44911 -35.7126,7.27901 z"
       id="path3444"
       style="fill:#000000" />
    <path
       inkscape:connector-curvature="0"
       d="m 355.9946,183.83364 c -0.50069,-1.81619 -1.29806,-4.19291 -2.61589,-7.24109 l 388.90873,388.90873 c 1.31783,3.04818 2.1152,5.4249 2.61589,7.24109 z"
       id="path3446"
       style="fill:#000000" />
    <path
       inkscape:connector-curvature="0"
       d="m 353.37871,176.59255 c -2.88184,-6.66578 -7.80856,-15.59723 -15.05085,-24.52871 l 388.90873,388.90873 c 7.24229,8.93148 12.16901,17.86293 15.05085,24.52871 z"
       id="path3448"
       style="fill:#000000" />
    <path
       inkscape:connector-curvature="0"
       d="m 338.32786,152.06384 c -2.26079,-2.7881 -4.74486,-5.57534 -7.4657,-8.29618 l 388.90873,388.90873 c 2.72084,2.72084 5.20491,5.50808 7.4657,8.29618 z"
       id="path3450"
       style="fill:#000000" />
    <path
       inkscape:connector-curvature="0"
       d="M 330.86216,143.76766 C 316.15098,129.05648 294.51817,116.28673 263.83183,115.82047 L 652.74056,504.7292 c 30.68634,0.46626 52.31915,13.23601 67.03033,27.94719 z"
       id="path3452"
       style="fill:#000000" />
    <path
       inkscape:connector-curvature="0"
       d="m 263.83183,115.82047 c -1.12911,-0.0178 -2.24584,-0.0238 -3.33621,0 L 649.40435,504.7292 c 1.09037,-0.0238 2.2071,-0.0178 3.33621,0 z"
       id="path3454"
       style="fill:#000000" />
    <path
       inkscape:connector-curvature="0"
       d="m 167.80211,116.38904 c -1.83461,0.001 -3.66498,0.0505 -5.49716,0.15164 l 388.90873,388.90873 c 1.83218,-0.10114 3.66255,-0.15064 5.49716,-0.15164 z"
       id="path3456"
       style="fill:#000000" />
    <path
       inkscape:connector-curvature="0"
       d="m 162.30495,116.54068 c -14.65748,0.80978 -28.75687,4.96577 -38.85925,15.27832 l 388.90873,388.90873 c 10.10238,-10.31255 24.20177,-14.46854 38.85925,-15.27832 z"
       id="path3458"
       style="fill:#000000" />
    <path
       inkscape:connector-curvature="0"
       d="m 123.4457,131.819 c -10.10238,10.31254 -16.5475,27.05294 -15.12668,54.2134 l 388.90873,388.90873 c -1.42082,-27.16046 5.0243,-43.90086 15.12668,-54.2134 z"
       id="path3460"
       style="fill:#000000" />
    <path
       inkscape:connector-curvature="0"
       d="m 108.31902,186.0324 c 0.28648,5.35705 2.60044,19.54711 6.55869,36.54665 l 388.90873,388.90873 c -3.95825,-16.99954 -6.27221,-31.1896 -6.55869,-36.54665 z"
       id="path3462"
       style="fill:#000000" />
    <path
       inkscape:connector-curvature="0"
       d="m 114.87771,222.57905 c 3.95824,16.99954 9.54,37.02754 16.30193,54.74416 l 388.90873,388.90873 c -6.76193,-17.71662 -12.34369,-37.74462 -16.30193,-54.74416 z"
       id="path3464"
       style="fill:#000000" />
    <path
       inkscape:connector-curvature="0"
       d="m 131.17964,277.32321 c 6.53501,17.12208 14.30921,32.11596 22.19089,39.99764 l 388.90873,388.90873 c -7.88168,-7.88168 -15.65588,-22.87556 -22.19089,-39.99764 z"
       id="path3466"
       style="fill:#000000" />
    <path
       inkscape:connector-curvature="0"
       d="m 153.37053,317.32085 c 0.27368,0.27367 0.54748,0.53877 0.82137,0.79509 l 388.90873,388.90873 c -0.27389,-0.25632 -0.54769,-0.52142 -0.82137,-0.79509 z"
       id="path3468"
       style="fill:#000000" />
    <path
       inkscape:connector-curvature="0"
       d="m 154.1919,318.11594 c 4.08082,3.81904 7.94899,5.61761 11.71464,5.45925 l 388.90873,388.90873 c -3.76565,0.15836 -7.63382,-1.64021 -11.71464,-5.45925 z"
       id="path3470"
       style="fill:#000000" />
    <path
       inkscape:connector-curvature="0"
       d="m 165.90654,323.57519 c 3.76564,-0.15835 7.94756,-2.26351 12.66243,-7.73393 L 567.4777,704.74999 c -4.71487,5.47042 -8.89679,7.57558 -12.66243,7.73393 z"
       id="path3472"
       style="fill:#000000" />
    <path
       inkscape:connector-curvature="0"
       d="m 178.56897,315.84126 c 12.12706,-14.0964 22.88255,-25.27802 26.53802,-29.04019 L 594.01572,675.7098 c -3.65547,3.76217 -14.41096,14.94379 -26.53802,29.04019 z"
       id="path3474"
       style="fill:#000000" />
    <path
       inkscape:connector-curvature="0"
       d="m 205.10699,286.80107 c -1.57479,-1.2004 -3.07043,-2.50869 -4.47597,-3.91424 l 388.90873,388.90873 c 1.40554,1.40555 2.90118,2.71384 4.47597,3.91424 z"
       id="path3476"
       style="fill:#000000" />
    <path
       inkscape:connector-curvature="0"
       d="m 200.63102,282.88683 c -9.54879,-9.54878 -14.93904,-23.58596 -12.73583,-38.77407 l 388.90873,388.90873 c -2.20321,15.18811 3.18704,29.22529 12.73583,38.77407 z"
       id="path3478"
       style="fill:#000000" />
    <path
       inkscape:connector-curvature="0"
       d="m 187.89519,244.07496 c 1.50093,-10.27994 1.68719,-19.80668 1.51646,-27.33416 l 388.90873,388.90873 c 0.17073,7.52748 -0.0155,17.05422 -1.51646,27.33416 z"
       id="path3480"
       style="fill:#000000" />
    <path
       inkscape:connector-curvature="0"
       d="m 189.41165,216.7408 c -0.15779,-6.95689 -0.61033,-11.8691 -0.68241,-14.74756 l 388.90873,388.90873 c 0.0721,2.87846 0.52462,7.79067 0.68241,14.74756 z"
       id="path3482"
       style="fill:#000000" />
    <path
       inkscape:connector-curvature="0"
       d="m 188.69144,201.38665 c 0,0 3.9e-4,-0.13608 0,-0.15164 l 388.90873,388.90873 c 3.9e-4,0.0156 0,0.15164 0,0.15164 z"
       id="path3484"
       style="fill:#000000" />
    <path
       inkscape:connector-curvature="0"
       d="m 188.69144,201.12133 c -0.0306,-1.41315 -0.36192,-23.38176 8.34052,-45.56958 l 388.90873,388.90873 c -8.70244,22.18782 -8.37112,44.15643 -8.34052,45.56958 z"
       id="path3486"
       style="fill:#000000" />
    <path
       inkscape:connector-curvature="0"
       d="m 197.03196,155.55175 c 4.26871,-10.88356 10.74792,-21.8391 20.62384,-30.32917 l 388.90873,388.90873 c -9.87592,8.49007 -16.35513,19.44561 -20.62384,30.32917 z"
       id="path3488"
       style="fill:#000000" />
    <path
       inkscape:connector-curvature="0"
       d="m 217.6558,125.22258 c -8.75403,-2.92565 -29.06134,-8.85124 -49.85358,-8.83337 l 388.90873,388.90873 c 20.79224,-0.0179 41.09955,5.90772 49.85358,8.83337 z"
       id="path3490"
       style="fill:#000000" />
    <path
       inkscape:connector-curvature="0"
       d="m 343.90086,188.83785 c -10.02322,0.14171 -15.9806,2.67994 -19.22112,6.25539 l 388.90873,388.90873 c 3.24052,-3.57545 9.1979,-6.11368 19.22112,-6.25539 z"
       id="path3492"
       style="fill:#000000" />
    <path
       inkscape:connector-curvature="0"
       d="m 324.67974,195.09324 c -4.60872,5.08507 -4.82051,13.44147 -2.27468,23.27764 l 388.90873,388.90873 c -2.54583,-9.83617 -2.33404,-18.19257 2.27468,-23.27764 z"
       id="path3494"
       style="fill:#000000" />
    <path
       inkscape:connector-curvature="0"
       d="m 322.40506,218.37088 c 2.54583,9.83616 7.72182,20.68624 12.5866,29.68468 l 388.90873,388.90873 c -4.86478,-8.99844 -10.04077,-19.84852 -12.5866,-29.68468 z"
       id="path3496"
       style="fill:#000000" />
    <path
       inkscape:connector-curvature="0"
       d="m 334.99166,248.05556 c 2.4324,4.49921 4.81437,8.55058 6.71033,11.82837 l 388.90873,388.90873 c -1.89596,-3.27779 -4.27793,-7.32916 -6.71033,-11.82837 z"
       id="path3498"
       style="fill:#000000" />
    <path
       inkscape:connector-curvature="0"
       d="m 341.70199,259.88393 c 1.89596,3.2778 3.26376,5.62912 4.01862,7.39274 L 734.62934,656.1854 c -0.75486,-1.76362 -2.12266,-4.11494 -4.01862,-7.39274 z"
       id="path3500"
       style="fill:#000000" />
    <path
       inkscape:connector-curvature="0"
       d="m 345.72061,267.27667 c 1.31374,3.05497 2.80992,5.61787 4.3219,7.84767 l 388.90873,388.90873 c -1.51198,-2.2298 -3.00816,-4.7927 -4.3219,-7.84767 z"
       id="path3502"
       style="fill:#000000" />
    <path
       inkscape:connector-curvature="0"
       d="m 350.04251,275.12434 c 5.20329,-8.85558 6.1035,-17.5222 5.64881,-26.38638 l 388.90873,388.90873 c 0.45469,8.86418 -0.44552,17.5308 -5.64881,26.38638 z"
       id="path3504"
       style="fill:#000000" />
    <path
       inkscape:connector-curvature="0"
       d="m 355.69132,248.73796 c -0.50226,-9.79165 -2.79168,-19.64008 -2.50215,-29.30556 L 742.0979,608.34113 c -0.28953,9.66548 1.99989,19.51391 2.50215,29.30556 z"
       id="path3506"
       style="fill:#000000" />
    <path
       inkscape:connector-curvature="0"
       d="m 353.18917,219.4324 c 0.44279,-12.03588 3.18047,-19.77503 3.18456,-29.72259 l 388.90873,388.90873 c -0.004,9.94756 -2.74177,17.68671 -3.18456,29.72259 z"
       id="path3508"
       style="fill:#000000" />
    <path
       inkscape:connector-curvature="0"
       d="m 356.37373,189.70981 c -3.83829,-0.51134 -7.33301,-0.81801 -10.42565,-0.87196 l 388.90873,388.90873 c 3.09264,0.0539 6.58736,0.36062 10.42565,0.87196 z"
       id="path3510"
       style="fill:#000000" />
    <path
       inkscape:connector-curvature="0"
       d="m 345.94808,188.83785 c -0.70488,-0.0123 -1.37901,-0.01 -2.04722,0 l 388.90873,388.90873 c 0.66821,-0.01 1.34234,-0.0123 2.04722,0 z"
       id="path3512"
       style="fill:#000000" />
    <path
       inkscape:connector-curvature="0"
       d="m 226.98191,190.31639 c -2.95193,-6.2e-4 -6.09022,0.40449 -9.21249,1.09944 l 388.90873,388.90873 c 3.12227,-0.69495 6.26056,-1.10006 9.21249,-1.09944 z"
       id="path3514"
       style="fill:#000000" />
    <path
       inkscape:connector-curvature="0"
       d="m 217.76942,191.41583 c -6.24454,1.38989 -12.37789,3.92085 -16.8706,6.33121 l 388.90873,388.90873 c 4.49271,-2.41036 10.62606,-4.94132 16.8706,-6.33121 z"
       id="path3516"
       style="fill:#000000" />
    <path
       inkscape:connector-curvature="0"
       d="m 200.89882,197.74704 c -2.24635,1.20517 -4.10409,2.38704 -5.26969,3.2983 l 388.90873,388.90873 c 1.1656,-0.91126 3.02334,-2.09313 5.26969,-3.2983 z"
       id="path3518"
       style="fill:#000000" />
    <path
       inkscape:connector-curvature="0"
       d="m 195.62913,201.04534 c -0.49363,0.38592 -0.77996,0.69412 -0.9857,0.90987 l 388.90873,388.90873 c 0.20574,-0.21575 0.49207,-0.52395 0.9857,-0.90987 z"
       id="path3520"
       style="fill:#000000" />
    <path
       inkscape:connector-curvature="0"
       d="m 194.64343,201.95521 c 0.0474,2.03941 0.51487,7.28494 0.68241,14.67174 l 388.90873,388.90873 c -0.16754,-7.3868 -0.63501,-12.63233 -0.68241,-14.67174 z"
       id="path3522"
       style="fill:#000000" />
    <path
       inkscape:connector-curvature="0"
       d="m 195.32584,216.62695 c 0.17576,7.74957 -0.0273,17.60042 -1.59229,28.31987 l 388.90873,388.90873 c 1.56499,-10.71945 1.76805,-20.5703 1.59229,-28.31987 z"
       id="path3524"
       style="fill:#000000" />
    <path
       inkscape:connector-curvature="0"
       d="m 193.73355,244.94682 c -1.92736,13.28651 2.74139,25.39462 10.96858,33.62181 l 388.90873,388.90873 c -8.22719,-8.22719 -12.89594,-20.3353 -10.96858,-33.62181 z"
       id="path3526"
       style="fill:#000000" />
    <path
       inkscape:connector-curvature="0"
       d="m 204.70213,278.56863 c 7.13116,7.13116 16.9358,11.34656 27.43573,10.88625 l 388.90873,388.90873 c -10.49993,0.46031 -20.30457,-3.75509 -27.43573,-10.88625 z"
       id="path3528"
       style="fill:#000000" />
    <path
       inkscape:connector-curvature="0"
       d="m 232.13786,289.45488 c 1.0886,-5.04265 3.17705,-10.25722 5.34551,-15.88491 L 626.3921,662.4787 c -2.16846,5.62769 -4.25691,10.84226 -5.34551,15.88491 z"
       id="path3530"
       style="fill:#000000" />
    <path
       inkscape:connector-curvature="0"
       d="m 237.48337,273.56997 c 5.60483,-14.54587 17.29885,-26.42914 7.65812,-69.37798 l 388.90873,388.90873 c 9.64073,42.94884 -2.05329,54.83211 -7.65812,69.37798 z"
       id="path3532"
       style="fill:#000000" />
    <path
       inkscape:connector-curvature="0"
       d="m 245.14149,204.19199 c -0.94297,-4.19458 -2.51837,-7.11866 -4.58748,-9.18777 l 388.90873,388.90873 c 2.06911,2.06911 3.64451,4.99319 4.58748,9.18777 z"
       id="path3534"
       style="fill:#000000" />
    <path
       inkscape:connector-curvature="0"
       d="m 240.55401,195.00422 c -1.55914,-1.55914 -3.39861,-2.63282 -5.45906,-3.39884 l 388.90873,388.90873 c 2.06045,0.76602 3.89992,1.8397 5.45906,3.39884 z"
       id="path3536"
       style="fill:#000000" />
    <path
       inkscape:connector-curvature="0"
       d="m 235.09495,191.60538 c -2.39741,-0.89129 -5.16113,-1.28837 -8.11304,-1.28899 l 388.90873,388.90873 c 2.95191,6.2e-4 5.71563,0.3977 8.11304,1.28899 z"
       id="path3538"
       style="fill:#000000" />
    <path
       inkscape:connector-curvature="0"
       d="m 340.22344,193.95589 c 0.97605,0.0274 1.8789,0.15268 2.69172,0.34121 l 388.90873,388.90873 c -0.81282,-0.18853 -1.71567,-0.31381 -2.69172,-0.34121 z"
       id="path3540"
       style="fill:#000000" />
    <path
       inkscape:connector-curvature="0"
       d="m 342.91516,194.2971 c 0.81282,0.18852 1.52677,0.44209 2.16095,0.87196 l 388.90873,388.90873 c -0.63418,-0.42987 -1.34813,-0.68344 -2.16095,-0.87196 z"
       id="path3542"
       style="fill:#000000" />
    <path
       inkscape:connector-curvature="0"
       d="m 345.07611,195.16906 c 0.16194,0.10977 0.31837,0.23818 0.46374,0.38355 l 388.90873,388.90873 c -0.14537,-0.14537 -0.3018,-0.27378 -0.46374,-0.38355 z"
       id="path3544"
       style="fill:#000000" />
    <path
       inkscape:connector-curvature="0"
       d="m 345.53985,195.55261 c 0.39188,0.39188 0.70332,0.90696 0.82525,1.51202 l 388.90873,388.90873 c -0.12193,-0.60506 -0.43337,-1.12014 -0.82525,-1.51202 z"
       id="path3546"
       style="fill:#000000" />
    <path
       inkscape:connector-curvature="0"
       d="m 346.3651,197.06463 0.0758,0 388.90873,388.90873 -0.0758,0 z"
       id="path3548"
       style="fill:#000000" />
    <path
       inkscape:connector-curvature="0"
       d="m 346.4409,197.06463 c 0.006,0.0284 -0.006,0.0478 0,0.0758 l 388.90873,388.90873 c -0.006,-0.028 0.006,-0.0474 0,-0.0758 z"
       id="path3550"
       style="fill:#000000" />
    <path
       inkscape:connector-curvature="0"
       d="m 346.4409,197.14043 c 10e-4,0.0121 -10e-4,0.026 0,0.0378 l 388.90873,388.90873 c -0.001,-0.0118 10e-4,-0.0257 0,-0.0378 z"
       id="path3552"
       style="fill:#000000" />
    <path
       inkscape:connector-curvature="0"
       d="m 346.4409,197.17823 c 6e-4,0.002 -0.0385,-0.002 -0.0379,0 l 388.90873,388.90873 c -6e-4,-0.002 0.0385,0.002 0.0379,0 z"
       id="path3554"
       style="fill:#000000" />
    <path
       inkscape:connector-curvature="0"
       d="m 346.403,197.17823 c 0.16402,0.92382 -0.078,1.69735 -0.45493,2.42633 L 734.8568,588.51329 c 0.37693,-0.72898 0.61895,-1.50251 0.45493,-2.42633 z"
       id="path3556"
       style="fill:#000000" />
    <path
       inkscape:connector-curvature="0"
       d="m 345.94807,199.60456 c -0.39511,0.76409 -0.95165,1.51428 -1.66811,2.23678 l 388.90873,388.90873 c 0.71646,-0.7225 1.273,-1.47269 1.66811,-2.23678 z"
       id="path3558"
       style="fill:#000000" />
    <path
       inkscape:connector-curvature="0"
       d="m 344.27996,201.84134 c -1.43292,1.44501 -3.49072,2.74095 -5.9521,3.07083 L 727.23659,593.8209 c 2.46138,-0.32988 4.51918,-1.62582 5.9521,-3.07083 z"
       id="path3560"
       style="fill:#000000" />
    <path
       inkscape:connector-curvature="0"
       d="m 338.32786,204.91217 -0.0378,0 388.90873,388.90873 0.0378,0 z"
       id="path3562"
       style="fill:#000000" />
    <path
       inkscape:connector-curvature="0"
       d="m 338.29006,204.91217 c -2.4557,0.25316 -4.62233,-0.53497 -6.21748,-1.59228 l 388.90873,388.90873 c 1.59515,1.05731 3.76178,1.84544 6.21748,1.59228 z"
       id="path3564"
       style="fill:#000000" />
    <path
       inkscape:connector-curvature="0"
       d="m 332.07258,203.31989 c -0.56125,-0.37203 -1.05344,-0.78857 -1.47555,-1.21069 l 388.90873,388.90873 c 0.42211,0.42212 0.9143,0.83866 1.47555,1.21069 z"
       id="path3566"
       style="fill:#000000" />
    <path
       inkscape:connector-curvature="0"
       d="m 330.59703,202.1092 c -0.17773,-0.17773 -0.34304,-0.35644 -0.49585,-0.53324 l 388.90873,388.90873 c 0.15281,0.1768 0.31812,0.35551 0.49585,0.53324 z"
       id="path3568"
       style="fill:#000000" />
    <path
       inkscape:connector-curvature="0"
       d="m 330.10118,201.57596 c -0.51572,-0.5967 -0.9152,-1.13562 -1.09943,-1.89558 l 388.90873,388.90873 c 0.18423,0.75996 0.58371,1.29888 1.09943,1.89558 z"
       id="path3570"
       style="fill:#000000" />
    <path
       inkscape:connector-curvature="0"
       d="m 329.00175,199.68038 0,-0.0378 388.90873,388.90873 0,0.0378 z"
       id="path3572"
       style="fill:#000000" />
    <path
       inkscape:connector-curvature="0"
       d="m 329.00175,199.64258 0,-0.0758 388.90873,388.90873 0,0.0758 z"
       id="path3574"
       style="fill:#000000" />
    <path
       inkscape:connector-curvature="0"
       d="m 329.00175,199.56678 c -0.15077,-0.90465 0.2253,-1.76165 0.72032,-2.35051 L 718.6308,586.125 c -0.49502,0.58886 -0.87109,1.44586 -0.72032,2.35051 z"
       id="path3576"
       style="fill:#000000" />
    <path
       inkscape:connector-curvature="0"
       d="m 329.72207,197.21627 c 0.49502,-0.58886 1.12617,-1.00909 1.85766,-1.40272 l 388.90873,388.90873 c -0.73149,0.39363 -1.36264,0.81386 -1.85766,1.40272 z"
       id="path3578"
       style="fill:#000000" />
    <path
       inkscape:connector-curvature="0"
       d="m 331.57973,195.81355 c 1.46297,-0.78729 3.37247,-1.37525 5.53508,-1.66811 l 388.90873,388.90873 c -2.16261,0.29286 -4.07211,0.88082 -5.53508,1.66811 z"
       id="path3580"
       style="fill:#000000" />
    <path
       inkscape:connector-curvature="0"
       d="m 337.11481,194.14544 c 1.08346,-0.14672 2.13269,-0.21701 3.10874,-0.18956 l 388.90873,388.90873 c -0.97605,-0.0274 -2.02528,0.0428 -3.10874,0.18956 z"
       id="path3582"
       style="fill:#000000" />
    <path
       inkscape:connector-curvature="0"
       d="m 227.51267,195.58609 c 1.05994,-0.0229 2.17831,0.0328 3.3362,0.18955 L 619.7576,584.68437 c -1.15789,-0.15675 -2.27626,-0.21245 -3.3362,-0.18955 z"
       id="path3584"
       style="fill:#000000" />
    <path
       inkscape:connector-curvature="0"
       d="m 230.84887,195.77564 c 2.30721,0.31244 4.34409,0.91363 6.02792,1.81975 l 388.90873,388.90873 c -1.68383,-0.90612 -3.72071,-1.50731 -6.02792,-1.81975 z"
       id="path3586"
       style="fill:#000000" />
    <path
       inkscape:connector-curvature="0"
       d="m 236.87679,197.59539 c 0.7101,0.38213 1.38908,0.79115 1.9878,1.38986 l 388.90873,388.90873 c -0.59872,-0.59871 -1.2777,-1.00773 -1.9878,-1.38986 z"
       id="path3588"
       style="fill:#000000" />
    <path
       inkscape:connector-curvature="0"
       d="m 238.86459,198.98525 c 0.11114,0.11114 0.21951,0.22882 0.3248,0.35407 l 388.90873,388.90873 c -0.10529,-0.12525 -0.21366,-0.24293 -0.3248,-0.35407 z"
       id="path3590"
       style="fill:#000000" />
    <path
       inkscape:connector-curvature="0"
       d="m 239.18939,199.33932 c 0.67251,0.8 1.26092,2.10189 1.02361,3.52577 l 388.90873,388.90873 c 0.23731,-1.42388 -0.3511,-2.72577 -1.02361,-3.52577 z"
       id="path3592"
       style="fill:#000000" />
    <path
       inkscape:connector-curvature="0"
       d="m 240.213,202.86509 0,0.0758 388.90873,388.90873 0,-0.0758 z"
       id="path3594"
       style="fill:#000000" />
    <path
       inkscape:connector-curvature="0"
       d="m 240.213,202.94089 0,0.0378 388.90873,388.90873 0,-0.0378 z"
       id="path3596"
       style="fill:#000000" />
    <path
       inkscape:connector-curvature="0"
       d="m 240.213,202.97869 c -0.24579,1.22895 -0.78094,1.91622 -1.40273,2.6538 L 627.719,594.54122 c 0.62179,-0.73758 1.15694,-1.42485 1.40273,-2.6538 z"
       id="path3598"
       style="fill:#000000" />
    <path
       inkscape:connector-curvature="0"
       d="m 238.81027,205.63249 c -0.62178,0.73759 -1.38957,1.43655 -2.31259,2.04722 l 388.90873,388.90873 c 0.92302,-0.61067 1.69081,-1.30963 2.31259,-2.04722 z"
       id="path3600"
       style="fill:#000000" />
    <path
       inkscape:connector-curvature="0"
       d="m 236.49768,207.67971 c -1.84606,1.22135 -4.39434,2.17247 -7.27899,1.78184 l 388.90873,388.90873 c 2.88465,0.39063 5.43293,-0.56049 7.27899,-1.78184 z"
       id="path3602"
       style="fill:#000000" />
    <path
       inkscape:connector-curvature="0"
       d="m 229.21869,209.46155 c -2.83124,-0.37945 -5.06037,-1.83718 -6.66398,-3.44079 l 388.90873,388.90873 c 1.60361,1.60361 3.83274,3.06134 6.66398,3.44079 z"
       id="path3604"
       style="fill:#000000" />
    <path
       inkscape:connector-curvature="0"
       d="m 222.55471,206.02076 c -0.0283,-0.0283 -0.0564,-0.0566 -0.0843,-0.085 l 388.90873,388.90873 c 0.0279,0.0284 0.056,0.0567 0.0843,0.085 z"
       id="path3606"
       style="fill:#000000" />
    <path
       inkscape:connector-curvature="0"
       d="m 222.47045,205.93579 c -0.80472,-0.81842 -1.45813,-1.6847 -1.93349,-2.61589 l 388.90873,388.90873 c 0.47536,0.93119 1.12877,1.79747 1.93349,2.61589 z"
       id="path3608"
       style="fill:#000000" />
    <path
       inkscape:connector-curvature="0"
       d="m 220.53696,203.3199 c -0.44792,-0.87748 -0.84964,-1.83612 -0.60658,-3.26039 l 388.90873,388.90873 c -0.24306,1.42427 0.15866,2.38291 0.60658,3.26039 z"
       id="path3610"
       style="fill:#000000" />
    <path
       inkscape:connector-curvature="0"
       d="m 219.93038,200.05951 -0.0379,0 388.90873,388.90873 0.0379,0 z"
       id="path3612"
       style="fill:#000000" />
    <path
       inkscape:connector-curvature="0"
       d="m 219.89248,200.05951 c 0.006,-0.0434 0.0308,-0.071 0.0379,-0.11367 l 388.90873,388.90873 c -0.007,0.0427 -0.0319,0.0703 -0.0379,0.11367 z"
       id="path3614"
       style="fill:#000000" />
    <path
       inkscape:connector-curvature="0"
       d="m 219.93038,199.94584 c 0.008,-0.0445 -0.01,-0.0684 0,-0.11368 l 388.90873,388.90873 c -0.01,0.0453 0.008,0.0692 0,0.11368 z"
       id="path3616"
       style="fill:#000000" />
    <path
       inkscape:connector-curvature="0"
       d="m 219.93038,199.83216 0.0378,0 388.90873,388.90873 -0.0378,0 z"
       id="path3618"
       style="fill:#000000" />
    <path
       inkscape:connector-curvature="0"
       d="m 219.96818,199.83216 c 0.26734,-1.28999 1.09402,-2.26213 1.89557,-2.80545 l 388.90873,388.90873 c -0.80155,0.54332 -1.62823,1.51546 -1.89557,2.80545 z"
       id="path3620"
       style="fill:#000000" />
    <path
       inkscape:connector-curvature="0"
       d="m 221.86375,197.02671 c 0.85377,-0.5787 1.72025,-0.8829 2.6538,-1.09943 l 388.90873,388.90873 c -0.93355,0.21653 -1.80003,0.52073 -2.6538,1.09943 z"
       id="path3622"
       style="fill:#000000" />
    <path
       inkscape:connector-curvature="0"
       d="m 224.51755,195.92728 c 0.93356,-0.21652 1.93507,-0.31822 2.99501,-0.3412 l 388.90873,388.90873 c -1.05994,0.023 -2.06145,0.12468 -2.99501,0.3412 z"
       id="path3624"
       style="fill:#000000" />
    <path
       inkscape:connector-curvature="0"
       d="m 357.51107,295.63444 c -0.37256,0.16763 -0.7469,0.29814 -1.09943,0.41703 L 745.32037,684.9602 c 0.35253,-0.11889 0.72687,-0.2494 1.09943,-0.41703 z"
       id="path3626"
       style="fill:#000000" />
    <path
       inkscape:connector-curvature="0"
       d="m 356.41164,296.05147 c -1.85756,0.62658 -3.72361,0.97261 -5.42134,1.70602 l 388.90873,388.90873 c 1.69773,-0.73341 3.56378,-1.07944 5.42134,-1.70602 z"
       id="path3628"
       style="fill:#000000" />
    <path
       inkscape:connector-curvature="0"
       d="m 350.9903,297.75749 c -1.69773,0.7334 -3.13232,1.70824 -4.24608,3.67741 l 388.90873,388.90873 c 1.11376,-1.96917 2.54835,-2.94401 4.24608,-3.67741 z"
       id="path3630"
       style="fill:#000000" />
    <path
       inkscape:connector-curvature="0"
       d="m 346.74422,301.4349 c -1.04273,1.84359 -1.83493,4.74826 -1.66811,9.40204 l 388.90873,388.90873 c -0.16682,-4.65378 0.62538,-7.55845 1.66811,-9.40204 z"
       id="path3632"
       style="fill:#000000" />
    <path
       inkscape:connector-curvature="0"
       d="m 345.18979,311.97429 c 0.0214,0.0743 0.0652,0.16198 0.20768,0.30446 L 734.3062,701.18748 c -0.14248,-0.14248 -0.18623,-0.23017 -0.20768,-0.30446 z"
       id="path3634"
       style="fill:#000000" />
    <path
       inkscape:connector-curvature="0"
       d="m 345.39747,312.27875 c 0.0541,0.0541 0.12251,0.11617 0.20934,0.18839 l 388.90873,388.90873 c -0.0868,-0.0722 -0.15521,-0.13426 -0.20934,-0.18839 z"
       id="path3636"
       style="fill:#000000" />
    <path
       inkscape:connector-curvature="0"
       d="m 345.60681,312.46714 c 0.47622,0.39611 1.46444,0.91004 2.84336,1.3269 L 737.3589,702.70277 c -1.37892,-0.41686 -2.36714,-0.93079 -2.84336,-1.3269 z"
       id="path3638"
       style="fill:#000000" />
    <path
       inkscape:connector-curvature="0"
       d="m 348.45017,313.79404 c 2.75785,0.83371 6.97132,1.28638 11.63882,1.25107 l 388.90873,388.90873 c -4.6675,0.0353 -8.88097,-0.41736 -11.63882,-1.25107 z"
       id="path3640"
       style="fill:#000000" />
    <path
       inkscape:connector-curvature="0"
       d="m 360.08899,315.04511 c 9.33502,-0.0706 20.62134,-2.0461 26.95505,-4.89057 l 388.90873,388.90873 c -6.33371,2.84447 -17.62003,4.81997 -26.95505,4.89057 z"
       id="path3642"
       style="fill:#000000" />
    <path
       inkscape:connector-curvature="0"
       d="m 387.04404,310.15454 c 8.22708,-3.68107 14.83386,-8.91682 16.71896,-11.67674 l 388.90873,388.90873 c -1.8851,2.75992 -8.49188,7.99567 -16.71896,11.67674 z"
       id="path3644"
       style="fill:#000000" />
    <path
       inkscape:connector-curvature="0"
       d="m 403.763,298.4778 c 0.0941,-0.13805 0.0462,-0.10797 0.11367,-0.22746 L 792.7854,687.15907 c -0.0675,0.11949 -0.0196,0.0894 -0.11367,0.22746 z"
       id="path3646"
       style="fill:#000000" />
    <path
       inkscape:connector-curvature="0"
       d="m 403.87667,298.25034 c -0.85113,-0.0767 -2.26225,-0.11392 -4.62519,0.3412 l 388.90873,388.90873 c 2.36294,-0.45512 3.77406,-0.4179 4.62519,-0.3412 z"
       id="path3648"
       style="fill:#000000" />
    <path
       inkscape:connector-curvature="0"
       d="m 399.25148,298.59154 c -0.0166,0.004 -0.0212,-0.004 -0.0379,0 l 388.90873,388.90873 c 0.0167,-0.004 0.0213,0.004 0.0379,0 z"
       id="path3650"
       style="fill:#000000" />
    <path
       inkscape:connector-curvature="0"
       d="m 399.21358,298.59154 c -19.54858,3.89656 -30.35549,2.76031 -36.66038,0.22747 l 388.90873,388.90873 c 6.30489,2.53284 17.1118,3.66909 36.66038,-0.22747 z"
       id="path3652"
       style="fill:#000000" />
    <path
       inkscape:connector-curvature="0"
       d="m 362.5532,298.81901 c -2.31517,-0.93006 -3.83935,-2.05869 -5.04223,-3.18457 L 746.4197,684.54317 c 1.20288,1.12588 2.72706,2.25451 5.04223,3.18457 z"
       id="path3654"
       style="fill:#000000" />
    <path
       inkscape:connector-curvature="0"
       d="m 242.63933,297.26464 c -1.28256,0.11015 -2.8728,0.64282 -5.19387,3.14665 l 388.90873,388.90873 c 2.32107,-2.50383 3.91131,-3.0365 5.19387,-3.14665 z"
       id="path3656"
       style="fill:#000000" />
    <path
       inkscape:connector-curvature="0"
       d="m 236.95261,300.86623 c -4.68211,5.16535 -6.55653,8.43875 -10.16026,11.18388 l 388.90873,388.90873 c 3.60373,-2.74513 5.47815,-6.01853 10.16026,-11.18388 z"
       id="path3658"
       style="fill:#000000" />
    <path
       inkscape:connector-curvature="0"
       d="m 226.79235,312.05011 c -3.7273,2.83925 -8.65909,4.42018 -19.1832,6.52077 l 388.90873,388.90873 c 10.52411,-2.10059 15.4559,-3.68152 19.1832,-6.52077 z"
       id="path3660"
       style="fill:#000000" />
    <path
       inkscape:connector-curvature="0"
       d="m 207.60915,318.57088 c -5.03929,0.99579 -7.88947,2.28449 -8.83337,3.03292 l 388.90873,388.90873 c 0.9439,-0.74843 3.79408,-2.03713 8.83337,-3.03292 z"
       id="path3662"
       style="fill:#000000" />
    <path
       inkscape:connector-curvature="0"
       d="m 198.77578,321.6038 c -0.27713,0.21966 -0.31589,0.2728 -0.31304,0.27565 l 388.90873,388.90873 c -0.003,-0.003 0.0359,-0.056 0.31304,-0.27565 z"
       id="path3664"
       style="fill:#000000" />
    <path
       inkscape:connector-curvature="0"
       d="m 198.46274,321.87945 c 9.9e-4,9.9e-4 0.007,-0.004 0.01,-0.0103 l 388.90873,388.90873 c -0.003,0.006 -0.009,0.0113 -0.01,0.0103 z"
       id="path3666"
       style="fill:#000000" />
    <path
       inkscape:connector-curvature="0"
       d="m 198.47249,321.86918 c 0.0637,0.10498 0.19553,0.26212 0.38628,0.45286 L 587.7675,711.23077 c -0.19075,-0.19075 -0.32259,-0.34788 -0.38628,-0.45286 z"
       id="path3668"
       style="fill:#000000" />
    <path
       inkscape:connector-curvature="0"
       d="m 198.85877,322.32204 c 0.5307,0.5307 1.51731,1.32158 2.76037,1.97347 l 388.90873,388.90873 c -1.24306,-0.65189 -2.22967,-1.44277 -2.76037,-1.97347 z"
       id="path3670"
       style="fill:#000000" />
    <path
       inkscape:connector-curvature="0"
       d="m 201.61914,324.29551 c 1.71246,0.89806 3.81653,1.63556 5.57298,2.04722 l 388.90873,388.90873 c -1.75645,-0.41166 -3.86052,-1.14916 -5.57298,-2.04722 z"
       id="path3672"
       style="fill:#000000" />
    <path
       inkscape:connector-curvature="0"
       d="m 207.23002,326.34273 c 4.70383,1.13007 12.38975,2.48299 20.58592,1.13735 l 388.90873,388.90873 c -8.19617,1.34564 -15.88209,-0.007 -20.58592,-1.13735 z"
       id="path3674"
       style="fill:#000000" />
    <path
       inkscape:connector-curvature="0"
       d="m 227.81594,327.48008 c 8.19616,-1.34565 16.85293,-5.24649 24.03586,-14.97503 l 388.90873,388.90873 c -7.18293,9.72854 -15.8397,13.62938 -24.03586,14.97503 z"
       id="path3676"
       style="fill:#000000" />
    <path
       inkscape:connector-curvature="0"
       d="m 251.8518,312.50505 c 0.59366,-0.80226 0.98206,-1.72097 1.17525,-2.69172 l 388.90873,388.90873 c -0.19319,0.97075 -0.58159,1.88946 -1.17525,2.69172 z"
       id="path3678"
       style="fill:#000000" />
    <path
       inkscape:connector-curvature="0"
       d="m 253.02705,309.81333 c 0.0218,-0.85037 0.0136,-1.68945 0.0379,-2.54007 l 388.90873,388.90873 c -0.0243,0.85062 -0.0161,1.6897 -0.0379,2.54007 z"
       id="path3680"
       style="fill:#000000" />
    <path
       inkscape:connector-curvature="0"
       d="m 253.06495,307.0458 c -0.11258,-0.84011 -0.31455,-1.68145 -0.64449,-2.54007 l 388.90873,388.90873 c 0.32994,0.85862 0.53191,1.69996 0.64449,2.54007 z"
       id="path3682"
       style="fill:#000000" />
    <path
       inkscape:connector-curvature="0"
       d="m 252.42046,304.50573 c -0.63579,-1.6545 -1.6799,-3.19205 -2.86022,-4.37236 L 638.46897,689.0421 c 1.18031,1.18031 2.22443,2.71786 2.86022,4.37236 z"
       id="path3684"
       style="fill:#000000" />
    <path
       inkscape:connector-curvature="0"
       d="m 249.56024,300.13337 c -0.89094,-0.89095 -1.85948,-1.57834 -2.78859,-1.95886 l 388.90873,388.90873 c 0.9291,0.38051 1.89765,1.06791 2.78859,1.95886 z"
       id="path3686"
       style="fill:#000000" />
    <path
       inkscape:connector-curvature="0"
       d="m 246.77165,298.17451 c -0.0137,-0.005 -0.0241,0.005 -0.0378,0 l 388.90873,388.90873 c 0.0137,0.005 0.0241,-0.005 0.0378,0 z"
       id="path3688"
       style="fill:#000000" />
    <path
       inkscape:connector-curvature="0"
       d="m 246.73385,298.17451 c -1.55094,-0.59862 -2.8231,-1.01906 -4.09444,-0.90987 l 388.90873,388.90873 c 1.27134,-0.10919 2.5435,0.31125 4.09444,0.90987 z"
       id="path3690"
       style="fill:#000000" />
  </g>
  <path
     style="fill:#ffffff;fill-opacity:1;fill-rule:nonzero;stroke:none"
     d="m 328.09178,112.18086 c -11.19797,0.1 -21.0228,1.70527 -27.7512,3.22248 -0.84949,0.19156 -1.48898,0.38131 -2.23677,0.56867 19.98314,7.19776 34.67914,19.79629 44.84926,32.33848 7.63577,9.41673 12.76239,18.79669 15.84699,25.93144 1.5423,3.56738 2.56971,6.57612 3.14665,8.83337 0.28847,1.12864 0.47326,2.03089 0.53077,2.91919 0.0288,0.44414 0.0734,0.86868 -0.0758,1.51646 -0.0159,0.0689 -0.0525,0.15221 -0.0758,0.22746 0.40605,11.97405 -2.78672,20.03885 -3.22248,31.88355 -0.25646,8.56198 1.96496,18.33996 2.50216,28.81271 0.51993,10.13585 -0.6739,21.06213 -7.69603,31.80772 0.0493,0.06 0.10264,0.13001 0.15165,0.18956 1.34926,1.64037 2.63306,3.09022 3.71532,4.58728 18.68323,-27.82159 32.05457,-58.85938 39.12464,-85.22497 3.70347,-13.81092 5.68297,-26.34021 5.83836,-36.3571 0.1554,-10.01688 -1.66507,-17.43157 -4.54937,-20.96504 -20.09216,-24.71944 -47.70237,-30.49117 -70.0983,-30.29126 z m -67.59615,3.6395 c -16.35562,0.35754 -28.39303,5.33276 -37.53234,12.66243 -9.7486,7.81832 -16.20074,18.43587 -20.43428,29.22974 -5.60768,14.29741 -7.25544,28.60734 -7.73393,36.73621 1.00348,-0.63416 2.08986,-1.28515 3.29829,-1.93348 4.94521,-2.65312 11.47024,-5.36037 18.38706,-6.89989 3.45842,-0.76976 7.03942,-1.25144 10.53939,-1.25108 3.49996,3.7e-4 6.941,0.50918 10.16026,1.70602 6.43852,2.39366 11.72359,7.89659 13.72395,16.79478 9.93071,44.24059 -2.90672,59.9066 -7.88558,72.82792 -2.60029,6.74837 -4.84834,12.55618 -5.53508,17.28763 1.58858,-0.95243 3.16206,-1.5013 4.66311,-1.63019 2.87533,-0.24687 5.20579,0.71583 6.78616,1.3269 a 2.9612092,2.9612092 0 0 1 0.0379,0 c 4.1752,1.68667 7.29515,5.40648 8.9471,9.70534 0.94688,2.46405 1.39402,5.23352 1.02361,7.92349 -0.17876,7.0958 -0.26168,14.11559 -0.26538,20.96504 1.10642,6.5784 1.70334,14.56178 1.47855,22.21612 -0.17927,6.08607 -0.36315,11.43826 -0.30329,16.1882 0.23016,2.95983 0.50839,5.69609 0.79614,8.11305 0.61618,5.17554 1.44194,9.1028 2.12304,10.76686 1.81742,4.39899 4.53193,10.38588 9.74325,14.59591 5.21131,4.21005 12.90255,6.94369 25.93144,4.32191 11.07609,-2.28879 18.21614,-5.58221 23.05017,-10.42566 4.83403,-4.84344 7.63576,-11.45535 9.36413,-21.15459 2.56261,-14.35882 7.63583,-54.9467 8.37844,-63.72918 -7e-4,-0.0125 6e-4,-0.0254 0,-0.0378 -0.36319,-5.97953 0.52088,-10.37538 2.35051,-13.61021 1.83403,-3.24263 4.58089,-5.15019 7.05153,-6.21748 2.2975,-0.9925 4.27544,-1.38668 5.45925,-1.74393 -0.71415,-1.413 -2.2347,-3.42495 -4.6252,-6.33122 -2.85371,-3.46942 -6.3745,-8.08464 -9.17457,-14.59591 -0.40012,-0.93481 -1.86078,-3.51444 -3.75324,-6.78615 -1.89245,-3.27172 -4.26416,-7.38519 -6.74824,-11.98003 -4.96817,-9.18965 -10.35035,-20.32084 -13.11737,-31.01157 -2.76701,-10.69073 -3.04011,-21.40871 3.60159,-28.73689 6.19009,-6.8299 17.72179,-9.46754 35.7126,-7.27901 -0.50069,-1.81619 -1.29806,-4.19291 -2.61589,-7.24109 -2.88184,-6.66578 -7.80856,-15.59723 -15.05085,-24.52871 -14.48458,-17.86296 -38.13425,-35.69088 -74.49603,-36.24337 -1.12911,-0.0178 -2.24584,-0.0238 -3.33621,0 z m -92.69352,0.56868 c -1.83461,0.001 -3.66498,0.0505 -5.49716,0.15164 -14.65748,0.80978 -28.75687,4.96577 -38.85925,15.27832 -10.10238,10.31254 -16.5475,27.05294 -15.12668,54.2134 0.28648,5.35705 2.60044,19.54711 6.55869,36.54665 3.95824,16.99954 9.54,37.02754 16.30193,54.74416 6.76192,17.71661 14.85059,33.15465 23.01226,40.79273 4.08082,3.81904 7.94899,5.61761 11.71464,5.45925 3.76564,-0.15835 7.94756,-2.26351 12.66243,-7.73393 12.12706,-14.0964 22.88255,-25.27802 26.53802,-29.04019 -12.27339,-9.35553 -19.73931,-25.26457 -17.2118,-42.68831 a 2.9612092,2.9612092 0 0 1 0,-0.0378 c 1.50093,-10.27994 1.68719,-19.80668 1.51646,-27.33416 -0.15779,-6.95689 -0.61033,-11.8691 -0.68241,-14.74756 a 2.9612092,2.9612092 0 0 1 -0.0378,-0.60659 c 0,0 3.9e-4,-0.13608 0,-0.15164 a 2.9612092,2.9612092 0 0 1 0,-0.11368 c -0.0306,-1.41315 -0.36192,-23.38176 8.34052,-45.56958 4.26871,-10.88356 10.74792,-21.8391 20.62384,-30.32917 -8.75403,-2.92565 -29.06134,-8.85124 -49.85358,-8.83337 z m 176.09875,72.44881 c -10.02322,0.14171 -15.9806,2.67994 -19.22112,6.25539 -4.60872,5.08507 -4.82051,13.44147 -2.27468,23.27764 2.54583,9.83616 7.72182,20.68624 12.5866,29.68468 2.4324,4.49921 4.81437,8.55058 6.71033,11.82837 1.89596,3.2778 3.26376,5.62912 4.01862,7.39274 1.31374,3.05497 2.80992,5.61787 4.3219,7.84767 5.20329,-8.85558 6.1035,-17.5222 5.64881,-26.38638 -0.50226,-9.79165 -2.79168,-19.64008 -2.50215,-29.30556 0.44279,-12.03588 3.18047,-19.77503 3.18456,-29.72259 -3.83829,-0.51134 -7.33301,-0.81801 -10.42565,-0.87196 -0.70488,-0.0123 -1.37901,-0.01 -2.04722,0 z m -116.91895,1.47854 c -2.95193,-6.2e-4 -6.09022,0.40449 -9.21249,1.09944 -6.24454,1.38989 -12.37789,3.92085 -16.8706,6.33121 -2.24635,1.20517 -4.10409,2.38704 -5.26969,3.2983 -0.49363,0.38592 -0.77996,0.69412 -0.9857,0.90987 0.0474,2.03941 0.51487,7.28494 0.68241,14.67174 0.17576,7.74957 -0.0273,17.60042 -1.59229,28.31987 -3.59796,24.80299 15.79065,45.49942 38.40431,44.50806 1.0886,-5.04265 3.17705,-10.25722 5.34551,-15.88491 5.60483,-14.54587 17.29885,-26.42914 7.65812,-69.37798 -1.65352,-7.35533 -5.2517,-10.80402 -10.04654,-12.58661 -2.39741,-0.89129 -5.16113,-1.28837 -8.11304,-1.28899 z m 113.24153,3.6395 c 0.97605,0.0274 1.8789,0.15268 2.69172,0.34121 0.81282,0.18852 1.52677,0.44209 2.16095,0.87196 0.59849,0.40568 1.12183,1.06606 1.28899,1.89557 l 0.0758,0 c 0.006,0.0284 -0.006,0.0478 0,0.0758 10e-4,0.0121 -10e-4,0.026 0,0.0378 6e-4,0.002 -0.0385,-0.002 -0.0379,0 0.16402,0.92382 -0.078,1.69735 -0.45493,2.42633 -0.39511,0.76409 -0.95165,1.51428 -1.66811,2.23678 -1.43292,1.44501 -3.49072,2.74095 -5.9521,3.07083 l -0.0378,0 c -2.4557,0.25316 -4.62233,-0.53497 -6.21748,-1.59228 -0.79757,-0.52867 -1.45567,-1.14724 -1.9714,-1.74393 -0.51572,-0.5967 -0.9152,-1.13562 -1.09943,-1.89558 l 0,-0.0378 0,-0.0758 c -0.15077,-0.90465 0.2253,-1.76165 0.72032,-2.35051 0.49502,-0.58886 1.12617,-1.00909 1.85766,-1.40272 1.46297,-0.78729 3.37247,-1.37525 5.53508,-1.66811 1.08346,-0.14672 2.13269,-0.21701 3.10874,-0.18956 z m -112.71077,1.6302 c 1.05994,-0.0229 2.17831,0.0328 3.3362,0.18955 2.30721,0.31244 4.34409,0.91363 6.02792,1.81975 0.84191,0.45306 1.64009,0.94393 2.3126,1.74393 0.67251,0.8 1.26092,2.10189 1.02361,3.52577 l 0,0.0758 0,0.0378 c -0.24579,1.22895 -0.78094,1.91622 -1.40273,2.6538 -0.62178,0.73759 -1.38957,1.43655 -2.31259,2.04722 -1.84606,1.22135 -4.39434,2.17247 -7.27899,1.78184 -2.88117,-0.38614 -5.13881,-1.88893 -6.74824,-3.52576 -0.80472,-0.81842 -1.45813,-1.6847 -1.93349,-2.61589 -0.44792,-0.87748 -0.84964,-1.83612 -0.60658,-3.26039 l -0.0379,0 c 0.006,-0.0434 0.0308,-0.071 0.0379,-0.11367 0.008,-0.0445 -0.01,-0.0684 0,-0.11368 l 0.0378,0 c 0.26734,-1.28999 1.09402,-2.26213 1.89557,-2.80545 0.85377,-0.5787 1.72025,-0.8829 2.6538,-1.09943 0.93356,-0.21652 1.93507,-0.31822 2.99501,-0.3412 z m 129.9984,100.04835 c -0.37256,0.16763 -0.7469,0.29814 -1.09943,0.41703 -1.85756,0.62658 -3.72361,0.97261 -5.42134,1.70602 -1.69773,0.7334 -3.13232,1.70824 -4.24608,3.67741 -1.04273,1.84359 -1.83493,4.74826 -1.66811,9.40204 a 2.9612092,2.9612092 0 0 1 0.11368,1.13735 c 0.0296,0.10251 0.10166,0.23056 0.41702,0.49285 0.47622,0.39611 1.46444,0.91004 2.84336,1.3269 2.75785,0.83371 6.97132,1.28638 11.63882,1.25107 9.33502,-0.0706 20.62134,-2.0461 26.95505,-4.89057 8.22708,-3.68107 14.83386,-8.91682 16.71896,-11.67674 0.0941,-0.13805 0.0462,-0.10797 0.11367,-0.22746 -0.85113,-0.0767 -2.26225,-0.11392 -4.62519,0.3412 -0.0166,0.004 -0.0212,-0.004 -0.0379,0 -19.54858,3.89656 -30.35549,2.76031 -36.66038,0.22747 -2.31517,-0.93006 -3.83935,-2.05869 -5.04223,-3.18457 z m -114.87174,1.6302 c -1.28256,0.11015 -2.8728,0.64282 -5.19387,3.14665 a 2.9612092,2.9612092 0 0 1 -0.49285,0.45494 c -4.68211,5.16535 -6.55653,8.43875 -10.16026,11.18388 -3.7273,2.83925 -8.65909,4.42018 -19.1832,6.52077 -5.03929,0.99579 -7.88947,2.28449 -8.83337,3.03292 -0.37293,0.29559 -0.31421,0.28964 -0.30329,0.26538 0.24088,0.39707 1.4568,1.54014 3.14665,2.42633 1.71246,0.89806 3.81653,1.63556 5.57298,2.04722 a 2.9612092,2.9612092 0 0 1 0.0379,0 c 4.70383,1.13007 12.38975,2.48299 20.58592,1.13735 8.19616,-1.34565 16.85293,-5.24649 24.03586,-14.97503 0.59366,-0.80226 0.98206,-1.72097 1.17525,-2.69172 0.0218,-0.85037 0.0136,-1.68945 0.0379,-2.54007 a 2.9612092,2.9612092 0 0 1 0,-0.22746 c -0.11258,-0.84011 -0.31455,-1.68145 -0.64449,-2.54007 -1.1157,-2.90337 -3.48883,-5.4466 -5.64881,-6.33122 -0.0137,-0.005 -0.0241,0.005 -0.0378,0 -1.55094,-0.59862 -2.8231,-1.01906 -4.09444,-0.90987 z"
     id="path3279"
     inkscape:connector-curvature="0" />
</svg>
