<?xml version="1.0" encoding="UTF-8" standalone="no"?>
<!-- Created with Inkscape (http://www.inkscape.org/) -->

<svg
   xmlns:dc="http://purl.org/dc/elements/1.1/"
   xmlns:cc="http://creativecommons.org/ns#"
   xmlns:rdf="http://www.w3.org/1999/02/22-rdf-syntax-ns#"
   xmlns:svg="http://www.w3.org/2000/svg"
   xmlns="http://www.w3.org/2000/svg"
   xmlns:inkscape="http://www.inkscape.org/namespaces/inkscape"
   version="1.1"
   width="100%"
   height="100%"
   viewBox="0 0 512 512"
   id="svg2">
  <metadata
     id="metadata72">
    <rdf:RDF>
      <cc:Work
         rdf:about="">
        <dc:format>image/svg+xml</dc:format>
        <dc:type
           rdf:resource="http://purl.org/dc/dcmitype/StillImage" />
        <dc:title />
      </cc:Work>
    </rdf:RDF>
  </metadata>
  <defs
     id="defs70">
    <clipPath
       id="clipPath4194">
      <path
         d="m 471.95,253.05 c 0,120.9 -98.01,218.9 -218.9,218.9 -120.9,0 -218.9,-98.01 -218.9,-218.9 0,-120.9 98.01,-218.9 218.9,-218.9 120.9,0 218.9,98.01 218.9,218.9"
         inkscape:connector-curvature="0"
         id="path4196"
         style="fill:#aa0044;fill-rule:evenodd" />
    </clipPath>
  </defs>
  <path
     d="m 471.95,253.05 c 0,120.9 -98.01,218.9 -218.9,218.9 -120.9,0 -218.9,-98.01 -218.9,-218.9 0,-120.9 98.01,-218.9 218.9,-218.9 120.9,0 218.9,98.01 218.9,218.9"
     inkscape:connector-curvature="0"
     id="path4"
     style="fill:#98d53b;fill-opacity:1;fill-rule:evenodd" />
  <g
     clip-path="url(#clipPath4194)"
     id="g4025"
     style="opacity:0.25;fill:#000000">
    <path
       d="m 268.79982,95.755889 c -9.0392,-0.02546 -15.98836,1.45773 -18.86244,4.638431 l 388.90873,388.90873 c 2.87408,-3.1807 9.82324,-4.66389 18.86244,-4.63843 z"
       inkscape:connector-curvature="0"
       id="path4027"
       style="fill:#000000" />
    <path
       d="m 249.93738,100.39432 c -4.55673,5.04688 -15.04624,42.68158 -28.13929,100.2057 l 388.90873,388.90873 c 13.09305,-57.52412 23.58256,-95.15882 28.13929,-100.2057 z"
       inkscape:connector-curvature="0"
       id="path4029"
       style="fill:#000000" />
    <path
       d="m 221.79809,200.60002 c -9.4466,41.38724 -2.89212,65.52892 3.56263,78.44691 l 388.90873,388.90873 c -6.45475,-12.91799 -13.00923,-37.05967 -3.56263,-78.44691 z"
       inkscape:connector-curvature="0"
       id="path4031"
       style="fill:#000000" />
    <path
       d="m 225.36072,279.04693 c 8.25199,16.51564 14.6834,26.44603 1.64021,59.40517 l 388.90873,388.90873 c 13.04319,-32.95914 6.61178,-42.88953 -1.64021,-59.40517 z"
       inkscape:connector-curvature="0"
       id="path4033"
       style="fill:#000000" />
    <path
       d="m 227.00093,338.4521 c -9.4466,23.87007 -19.08523,28.43848 -28.03744,29.57474 l 388.90873,388.90873 c 8.95221,-1.13626 18.59084,-5.70467 28.03744,-29.57474 z"
       inkscape:connector-curvature="0"
       id="path4035"
       style="fill:#000000" />
    <path
       d="m 198.96349,368.02684 c -21.57313,-5.18799 -37.85325,-5.37365 -39.97937,0.46045 l 388.90873,388.90873 c 2.12612,-5.8341 18.40624,-5.64844 39.97937,-0.46045 z"
       inkscape:connector-curvature="0"
       id="path4037"
       style="fill:#000000" />
    <path
       d="m 158.98412,368.48729 c -0.86262,2.36671 0.69497,5.45424 4.17996,8.93923 l 388.90873,388.90873 c -3.48499,-3.48499 -5.04258,-6.57252 -4.17996,-8.93923 z"
       inkscape:connector-curvature="0"
       id="path4039"
       style="fill:#000000" />
    <path
       d="m 163.16408,377.42652 c 8.26772,8.26772 27.38317,18.77239 50.76608,27.19636 l 388.90873,388.90873 c -23.38291,-8.42397 -42.49836,-18.92864 -50.76608,-27.19636 z"
       inkscape:connector-curvature="0"
       id="path4041"
       style="fill:#000000" />
    <path
       d="m 213.93016,404.62288 c 33.23923,11.97482 62.59542,15.23403 65.50557,7.25258 l 388.90873,388.90873 c -2.91015,7.98145 -32.26634,4.72224 -65.50557,-7.25258 z"
       inkscape:connector-curvature="0"
       id="path4043"
       style="fill:#000000" />
    <path
       d="m 279.43573,411.87546 c 0.86049,-2.36228 -0.69591,-5.44353 -4.17424,-8.92185 l 388.90873,388.90873 c 3.47833,3.47832 5.03473,6.55957 4.17424,8.92185 z"
       inkscape:connector-curvature="0"
       id="path4045"
       style="fill:#000000" />
    <path
       d="m 275.26149,402.95361 c -5.14174,-5.14174 -14.48314,-11.15114 -26.42537,-16.98841 l 388.90873,388.90873 c 11.94223,5.83727 21.28363,11.84667 26.42537,16.98841 z"
       inkscape:connector-curvature="0"
       id="path4047"
       style="fill:#000000" />
    <path
       d="m 248.83612,385.9652 c -8.78988,-9.05617 -16.67372,-15.36346 -9.71289,-43.41363 L 628.03196,731.4603 c -6.96083,28.05017 0.92301,34.35746 9.71289,43.41363 z"
       inkscape:connector-curvature="0"
       id="path4049"
       style="fill:#000000" />
    <path
       d="m 239.12323,342.55157 c 13.61609,-54.8739 34.38716,-36.01358 58.87151,-70.11747 l 388.90873,388.90873 c -24.48435,34.10389 -45.25542,15.24357 -58.87151,70.11747 z"
       inkscape:connector-curvature="0"
       id="path4051"
       style="fill:#000000" />
    <path
       d="m 297.99474,272.4341 c 20.76577,-28.93182 26.26461,-51.12666 38.2893,-85.03428 l 388.90873,388.90873 c -12.02469,33.90762 -17.52353,56.10246 -38.2893,85.03428 z"
       inkscape:connector-curvature="0"
       id="path4053"
       style="fill:#000000" />
    <path
       d="m 336.28404,187.39982 c 12.74188,-35.92765 18.33303,-52.55893 16.68327,-55.8436 l 388.90873,388.90873 c 1.64976,3.28467 -3.94139,19.91595 -16.68327,55.8436 z"
       inkscape:connector-curvature="0"
       id="path4055"
       style="fill:#000000" />
    <path
       d="m 352.96731,131.55622 c -1.52964,-3.04642 -3.71989,-5.9316 -6.43063,-8.64234 l 388.90873,388.90873 c 2.71074,2.71074 4.90099,5.59592 6.43063,8.64234 z"
       inkscape:connector-curvature="0"
       id="path4057"
       style="fill:#000000" />
    <path
       d="M 346.53668,122.91388 C 329.5643,105.9415 292.18783,95.807741 268.803,95.753767 L 657.71173,484.6625 c 23.38483,0.054 60.7613,10.18773 77.73368,27.16011 z"
       inkscape:connector-curvature="0"
       id="path4059"
       style="fill:#000000" />
    <path
       d="m 270.6745,103.28962 c 10.10226,0.0934 22.94493,2.29375 33.3676,6.02295 L 692.95083,498.2213 c -10.42267,-3.7292 -23.26534,-5.92955 -33.3676,-6.02295 z"
       inkscape:connector-curvature="0"
       id="path4061"
       style="fill:#000000" />
    <path
       d="m 304.0421,109.31257 c 16.61899,5.94731 32.03358,13.65362 38.34758,19.96762 l 388.90873,388.90873 c -6.314,-6.314 -21.72859,-14.02031 -38.34758,-19.96762 z"
       inkscape:connector-curvature="0"
       id="path4063"
       style="fill:#000000" />
    <path
       d="m 342.38968,129.28019 c 2.17082,2.17082 3.2659,4.17706 2.96433,5.89065 l 388.90873,388.90873 c 0.30157,-1.71359 -0.79351,-3.71983 -2.96433,-5.89065 z"
       inkscape:connector-curvature="0"
       id="path4065"
       style="fill:#000000" />
    <path
       d="m 345.35401,135.17084 c -2.98973,16.92304 -9.5145,30.74708 -11.17381,35.52025 l 388.90873,388.90873 c 1.65931,-4.77317 8.18408,-18.59721 11.17381,-35.52025 z"
       inkscape:connector-curvature="0"
       id="path4067"
       style="fill:#000000" />
    <path
       d="m 334.1802,170.69109 c -21.01455,-20.32458 -47.77533,37.25789 -89.82998,-4.79676 l 388.90873,388.90873 c 42.05465,42.05465 68.81543,-15.52782 89.82998,4.79676 z"
       inkscape:connector-curvature="0"
       id="path4069"
       style="fill:#000000" />
    <path
       d="m 244.35022,165.89433 c -1.65927,-1.65928 -3.34235,-3.47365 -5.04982,-5.45404 l 388.90873,388.90873 c 1.70747,1.98039 3.39055,3.79476 5.04982,5.45404 z"
       inkscape:connector-curvature="0"
       id="path4071"
       style="fill:#000000" />
    <path
       d="m 239.3004,160.44029 c 0,0 8.60104,-33.14374 14.53063,-52.04968 l 388.90873,388.90873 c -5.92959,18.90594 -14.53063,52.04968 -14.53063,52.04968 z"
       inkscape:connector-curvature="0"
       id="path4073"
       style="fill:#000000" />
    <path
       d="m 253.83103,108.39061 c 1.13202,-3.61249 7.92309,-5.17844 16.8371,-5.09993 l 388.90873,388.90873 c -8.91401,-0.0785 -15.70508,1.48744 -16.8371,5.09993 z"
       inkscape:connector-curvature="0"
       id="path4075"
       style="fill:#000000" />
  </g>
  <g
     id="g8"
     style="fill-rule:evenodd">
    <path
       d="M 256,1 C 115.17,1 1,115.17 1,256 1,396.83 115.17,511 256,511 396.83,511 511,396.83 511,256 511,115.17 396.83,1 256,1 m 8.827,44.931 c 120.9,0 218.9,98 218.9,218.9 0,120.9 -98,218.9 -218.9,218.9 -120.9,0 -218.93,-98 -218.93,-218.9 0,-120.9 98.03,-218.9 218.93,-218.9"
       inkscape:connector-curvature="0"
       id="path10"
       style="fill-opacity:0.06700003" />
    <g
       id="g12"
       style="fill-opacity:0.12900002">
      <path
         d="m 256,4.433 c -138.94,0 -251.57,112.63 -251.57,251.57 0,138.94 112.63,251.57 251.57,251.57 138.94,0 251.57,-112.63 251.57,-251.57 C 507.57,117.063 394.94,4.433 256,4.433 m 5.885,38.556 c 120.9,0 218.9,98 218.9,218.9 0,120.9 -98,218.9 -218.9,218.9 -120.9,0 -218.93,-98 -218.93,-218.9 0,-120.9 98.03,-218.9 218.93,-218.9"
         inkscape:connector-curvature="0"
         id="path14" />
      <path
         d="m 256,8.356 c -136.77,0 -247.64,110.87 -247.64,247.64 0,136.77 110.87,247.64 247.64,247.64 136.77,0 247.64,-110.87 247.64,-247.64 C 503.64,119.226 392.77,8.356 256,8.356 m 2.942,31.691 c 120.9,0 218.9,98 218.9,218.9 0,120.9 -98,218.9 -218.9,218.9 -120.9,0 -218.93,-98 -218.93,-218.9 0,-120.9 98.03,-218.9 218.93,-218.9"
         inkscape:connector-curvature="0"
         id="path16" />
    </g>
    <path
       d="m 253.04,7.859 c -135.42,0 -245.19,109.78 -245.19,245.19 0,135.42 109.78,245.19 245.19,245.19 135.42,0 245.19,-109.78 245.19,-245.19 0,-135.42 -109.78,-245.19 -245.19,-245.19 z m 0,26.297 c 120.9,0 218.9,98 218.9,218.9 0,120.9 -98,218.9 -218.9,218.9 -120.9,0 -218.93,-98 -218.93,-218.9 0,-120.9 98.03,-218.9 218.93,-218.9 z"
       inkscape:connector-curvature="0"
       id="path18"
       style="fill:#ffffff;stroke:#000000;stroke-width:4.90399981;stroke-opacity:0.31000001" />
  </g>
  <text
     x="729.64001"
     y="231.36"
     id="text20"
     style="font-size:129.22999573px;line-height:125%;letter-spacing:0;word-spacing:0;font-family:Gentium Book Basic">
    <tspan
       x="729.64001"
       y="231.36"
       id="tspan22" />
  </text>
  <text
     x="378.91"
     y="579.25"
     transform="scale(4.0128,0.2492)"
     id="text24"
     style="font-size:46.95399857px;text-anchor:middle;font-family:Arial" />
  <text
     x="1310.91"
     y="151.36"
     id="text26"
     style="font-size:129.22999573px;line-height:125%;letter-spacing:0;word-spacing:0;font-family:Gentium Book Basic">
    <tspan
       x="1310.91"
       y="151.36"
       id="tspan28" />
  </text>
  <text
     x="523.76001"
     y="258.22"
     transform="scale(4.0128,0.2492)"
     id="text30"
     style="font-size:46.95399857px;text-anchor:middle;font-family:Arial" />
  <text
     x="239.33"
     y="-29.900999"
     id="text32"
     style="font-size:129.22999573px;line-height:125%;letter-spacing:0;word-spacing:0;font-family:Gentium Book Basic">
    <tspan
       x="239.33"
       y="-29.900999"
       id="tspan34" />
  </text>
  <text
     x="256.72"
     y="-469.14001"
     transform="scale(4.0128,0.2492)"
     id="text36"
     style="font-size:46.95399857px;text-anchor:middle;font-family:Arial" />
  <text
     x="1337.38"
     y="-246.37"
     id="text38"
     style="font-size:129.22999573px;line-height:125%;letter-spacing:0;word-spacing:0;font-family:Gentium Book Basic">
    <tspan
       x="1337.38"
       y="-246.37"
       id="tspan40" />
  </text>
  <text
     x="530.35999"
     y="-1337.8101"
     transform="scale(4.0128,0.2492)"
     id="text42"
     style="font-size:46.95399857px;text-anchor:middle;font-family:Arial" />
  <text
     x="1918.65"
     y="-326.38"
     id="text44"
     style="font-size:129.22999573px;line-height:125%;letter-spacing:0;word-spacing:0;font-family:Gentium Book Basic">
    <tspan
       x="1918.65"
       y="-326.38"
       id="tspan46" />
  </text>
  <text
     x="675.21002"
     y="-1658.85"
     transform="scale(4.0128,0.2492)"
     id="text48"
     style="font-size:46.95399857px;text-anchor:middle;font-family:Arial" />
  <text
     x="1529.53"
     y="-798.78003"
     id="text50"
     style="font-size:129.22999573px;line-height:125%;letter-spacing:0;word-spacing:0;font-family:Gentium Book Basic">
    <tspan
       x="1529.53"
       y="-798.78003"
       id="tspan52" />
  </text>
  <text
     x="578.23999"
     y="-3554.51"
     transform="scale(4.0128,0.2492)"
     id="text54"
     style="font-size:46.95399857px;text-anchor:middle;font-family:Arial" />
  <text
     x="2110.79"
     y="-878.78003"
     id="text56"
     style="font-size:129.22999573px;line-height:125%;letter-spacing:0;word-spacing:0;font-family:Gentium Book Basic">
    <tspan
       x="2110.79"
       y="-878.78003"
       id="tspan58" />
  </text>
  <text
     x="723.09003"
     y="-3875.54"
     transform="scale(4.0128,0.2492)"
     id="text60"
     style="font-size:46.95399857px;text-anchor:middle;font-family:Arial" />
  <text
     x="277.98999"
     y="535.94"
     id="text62"
     style="font-size:208.33000183px;line-height:125%;letter-spacing:0;word-spacing:0;font-family:Gentium Book Basic">
    <tspan
       x="277.98999"
       y="535.94"
       id="tspan64" />
  </text>
  <path
     d="m 268.79982,95.755889 c -9.0392,-0.02546 -15.98836,1.45773 -18.86244,4.638431 -4.55673,5.04688 -15.04624,42.68158 -28.13929,100.2057 -9.4466,41.38724 -2.89212,65.52892 3.56263,78.44691 8.25199,16.51564 14.6834,26.44603 1.64021,59.40517 -9.4466,23.87007 -19.08523,28.43848 -28.03744,29.57474 -21.57313,-5.18799 -37.85325,-5.37365 -39.97937,0.46045 -2.90909,7.98145 21.70682,24.16077 54.94604,36.13559 33.23923,11.97482 62.59542,15.23403 65.50557,7.25258 2.13249,-5.85426 -10.57862,-16.12415 -30.59961,-25.91026 -8.78988,-9.05617 -16.67372,-15.36346 -9.71289,-43.41363 13.61609,-54.8739 34.38716,-36.01358 58.87151,-70.11747 20.76577,-28.93182 26.26461,-51.12666 38.2893,-85.03428 12.74188,-35.92765 18.33303,-52.55893 16.68327,-55.8436 C 341.86034,109.43564 295.92273,95.816362 268.803,95.753767 m 1.8715,7.535853 c 10.10226,0.0934 22.94493,2.29375 33.3676,6.02295 22.33277,7.99206 42.49061,19.16056 41.31191,25.85827 -2.98973,16.92304 -9.5145,30.74708 -11.17381,35.52025 -21.84368,-21.12649 -49.89597,41.92301 -94.8798,-10.2508 0,0 8.60104,-33.14374 14.53063,-52.04968 1.13202,-3.61249 7.92309,-5.17844 16.8371,-5.09993"
     inkscape:connector-curvature="0"
     id="path66"
     style="fill:#ffffff" />
</svg>
