<?xml version="1.0" encoding="UTF-8" standalone="no"?>
<!-- Created with Inkscape (http://www.inkscape.org/) -->

<svg
   xmlns:dc="http://purl.org/dc/elements/1.1/"
   xmlns:cc="http://creativecommons.org/ns#"
   xmlns:rdf="http://www.w3.org/1999/02/22-rdf-syntax-ns#"
   xmlns:svg="http://www.w3.org/2000/svg"
   xmlns="http://www.w3.org/2000/svg"
   xmlns:inkscape="http://www.inkscape.org/namespaces/inkscape"
   version="1.1"
   width="100%"
   height="100%"
   viewBox="0 0 512 512"
   id="svg2">
  <metadata
     id="metadata70">
    <rdf:RDF>
      <cc:Work
         rdf:about="">
        <dc:format>image/svg+xml</dc:format>
        <dc:type
           rdf:resource="http://purl.org/dc/dcmitype/StillImage" />
        <dc:title />
      </cc:Work>
    </rdf:RDF>
  </metadata>
  <defs
     id="defs68">
    <clipPath
       id="clipPath3271">
      <path
         d="m 471.9456,253.05189 c 0,120.89699 -98.00565,218.90724 -218.90724,218.90724 -120.89698,0 -218.90723,-98.00566 -218.90723,-218.90724 0,-120.89698 98.00565,-218.907232 218.90723,-218.907232 120.89699,0 218.90724,98.005652 218.90724,218.907232"
         inkscape:connector-curvature="0"
         id="path3273"
         style="fill:#8a704d;fill-rule:evenodd" />
    </clipPath>
  </defs>
  <path
     d="m 471.9456,253.05189 c 0,120.89699 -98.00565,218.90724 -218.90724,218.90724 -120.89698,0 -218.90723,-98.00566 -218.90723,-218.90724 0,-120.89698 98.00565,-218.907232 218.90723,-218.907232 120.89699,0 218.90724,98.005652 218.90724,218.907232"
     inkscape:connector-curvature="0"
     id="path8"
     style="fill:#8a704d;fill-rule:evenodd" />
  <g
     clip-path="url(#clipPath3271)"
     id="g3185"
     style="opacity:0.25;fill:#000000;fill-opacity:1;fill-rule:evenodd">
    <path
       d="m 247.42445,102.58656 c -75.41306,0 -136.53579,61.14766 -136.53579,136.56071 L 499.79739,628.056 c 0,-75.41305 61.12273,-136.56071 136.53579,-136.56071 z"
       inkscape:connector-curvature="0"
       id="path3187"
       style="fill:#000000" />
    <path
       d="m 110.88866,239.14727 c 0,37.70653 15.28068,71.84048 39.988,96.54779 l 388.90873,388.90873 c -24.70732,-24.70731 -39.988,-58.84126 -39.988,-96.54779 z"
       inkscape:connector-curvature="0"
       id="path3189"
       style="fill:#000000" />
    <path
       d="m 150.87666,335.69506 c 24.70731,24.70732 58.84126,39.988 96.54779,39.988 l 388.90873,388.90873 c -37.70653,0 -71.84048,-15.28068 -96.54779,-39.988 z"
       inkscape:connector-curvature="0"
       id="path3191"
       style="fill:#000000" />
    <path
       d="m 247.42445,375.68306 c 11.70332,0 23.06293,-1.46835 33.90335,-4.23792 l 388.90873,388.90873 c -10.84042,2.76957 -22.20003,4.23792 -33.90335,4.23792 z"
       inkscape:connector-curvature="0"
       id="path3193"
       style="fill:#000000" />
    <path
       d="m 281.3278,371.44514 c 2.6848,3.71713 5.64784,7.18017 8.84835,10.38069 l 388.90873,388.90873 c -3.20051,-3.20052 -6.16355,-6.66356 -8.84835,-10.38069 z"
       inkscape:connector-curvature="0"
       id="path3195"
       style="fill:#000000" />
    <path
       d="m 290.17615,381.82583 c 27.92377,27.92377 73.92483,35.86344 110.93519,18.2128 l 388.90873,388.90873 c -37.01036,17.65064 -83.01142,9.71097 -110.93519,-18.2128 z"
       inkscape:connector-curvature="0"
       id="path3197"
       style="fill:#000000" />
    <path
       d="m 401.11134,400.03863 c -22.05023,-5.05036 -42.9936,-15.28141 -57.69305,-29.98086 L 732.32702,758.9665 c 14.69945,14.69945 35.64282,24.9305 57.69305,29.98086 z"
       inkscape:connector-curvature="0"
       id="path3199"
       style="fill:#000000" />
    <path
       d="m 343.41829,370.05777 c -6.22467,-6.22467 -11.32968,-13.25061 -14.92494,-21.02375 l 388.90873,388.90873 c 3.59526,7.77314 8.70027,14.79908 14.92494,21.02375 z"
       inkscape:connector-curvature="0"
       id="path3201"
       style="fill:#000000" />
    <path
       d="M 328.49335,349.03402 C 362.154,324.16517 383.98516,284.21034 383.98516,239.14727 L 772.89389,628.056 c 0,45.06307 -21.83116,85.0179 -55.49181,109.88675 z"
       inkscape:connector-curvature="0"
       id="path3203"
       style="fill:#000000" />
    <path
       d="m 383.98516,239.14727 c 0,-37.70653 -15.28692,-71.8467 -40.00046,-96.56025 l 388.90873,388.90873 c 24.71354,24.71355 40.00046,58.85372 40.00046,96.56025 z"
       inkscape:connector-curvature="0"
       id="path3205"
       style="fill:#000000" />
    <path
       d="m 343.9847,142.58702 c -24.71355,-24.71354 -58.85373,-40.00046 -96.56025,-40.00046 l 388.90873,388.90873 c 37.70652,0 71.8467,15.28691 96.56025,40.00046 z"
       inkscape:connector-curvature="0"
       id="path3207"
       style="fill:#000000" />
  </g>
  <path
     d="m 247.4375,102.59375 c -75.41306,0 -136.5625,61.14945 -136.5625,136.5625 0,75.41306 61.14944,136.53125 136.5625,136.53125 11.70332,0 23.03458,-1.48043 33.875,-4.25 26.10908,36.14825 78.56016,48.26744 119.8125,28.59375 -31.38767,-7.189 -60.53958,-24.87072 -72.625,-51 33.66065,-24.86885 55.5,-64.81193 55.5,-109.875 0,-75.41305 -61.14945,-136.5625 -136.5625,-136.5625 z m -3.84375,34.96875 C 299.48474,136.87979 345.3173,181.64026 346,237.53125 c 0.41355,33.85596 -15.8207,64.0388 -41.125,82.71875 l 20.875,35.15625 -30.53125,18.125 L 272.9375,336 c -8.54202,2.46345 -17.55391,3.82364 -26.875,3.9375 C 190.17151,340.6202 144.27646,295.89098 143.59375,240 c -0.6827,-55.89099 44.10902,-101.7548 100,-102.4375 z m 0.34375,29.46875 c -39.60725,0.4838 -71.29629,32.98651 -70.8125,72.59375 0.4838,39.60725 32.95526,71.32754 72.5625,70.84375 3.90848,-0.0478 7.7374,-0.38398 11.46875,-1.03125 L 240.875,282 l 30.53125,-18.125 18.3125,30.8125 c 16.58381,-13.33144 27.09256,-33.88455 26.8125,-56.8125 -0.48379,-39.60725 -32.9865,-71.32754 -72.59375,-70.84375 z"
     inkscape:connector-curvature="0"
     id="path3053"
     style="fill:#ffffff;fill-opacity:1;fill-rule:evenodd" />
  <path
     d="M 256,1 C 115.17,1 1,115.17 1,256 1,396.83 115.17,511 256,511 396.83,511 511,396.83 511,256 511,115.17 396.83,1 256,1 m 8.827,44.931 c 120.9,0 218.9,98 218.9,218.9 0,120.9 -98,218.9 -218.9,218.9 -120.9,0 -218.93,-98 -218.93,-218.9 0,-120.9 98.03,-218.9 218.93,-218.9"
     inkscape:connector-curvature="0"
     id="path10"
     style="fill-opacity:0.06700003;fill-rule:evenodd" />
  <path
     d="M 256,4.43 C 117.06,4.43 4.43,117.06 4.43,256 4.43,394.94 117.06,507.57 256,507.57 394.94,507.57 507.57,394.94 507.57,256 507.57,117.06 394.94,4.43 256,4.43 m 5.885,38.556 c 120.9,0 218.9,98 218.9,218.9 0,120.9 -98,218.9 -218.9,218.9 -120.9,0 -218.93,-98 -218.93,-218.9 0,-120.9 98.03,-218.9 218.93,-218.9"
     inkscape:connector-curvature="0"
     id="path14"
     style="fill-opacity:0.12900002;fill-rule:evenodd" />
  <path
     d="M 256,8.36 C 119.23,8.36 8.36,119.23 8.36,256 8.36,392.77 119.23,503.64 256,503.64 392.77,503.64 503.64,392.77 503.64,256 503.64,119.23 392.77,8.36 256,8.36 m 2.942,31.691 c 120.9,0 218.9,98 218.9,218.9 0,120.9 -98,218.9 -218.9,218.9 -120.9,0 -218.93,-98 -218.93,-218.9 0,-120.9 98.03,-218.9 218.93,-218.9"
     inkscape:connector-curvature="0"
     id="path16"
     style="fill-opacity:0.12900002;fill-rule:evenodd" />
  <path
     d="M 253.04,7.86 C 117.62,7.86 7.85,117.64 7.85,253.05 c 0,135.42 109.78,245.19 245.19,245.19 135.42,0 245.19,-109.78 245.19,-245.19 C 498.23,117.63 388.45,7.86 253.04,7.86 z m 0,26.297 c 120.9,0 218.9,98 218.9,218.9 0,120.9 -98,218.9 -218.9,218.9 -120.9,0 -218.93,-98 -218.93,-218.9 0,-120.9 98.03,-218.9 218.93,-218.9 z"
     inkscape:connector-curvature="0"
     id="path18"
     style="fill:#ffffff;fill-rule:evenodd;stroke:#000000;stroke-width:4.90399981;stroke-opacity:0.31000001" />
  <text
     x="729.64001"
     y="231.35997"
     id="text20"
     style="font-size:129.22999573px;line-height:125%;letter-spacing:0;word-spacing:0;font-family:Gentium Book Basic">
    <tspan
       x="729.64001"
       y="231.35997"
       id="tspan22" />
  </text>
  <text
     x="378.90805"
     y="579.25812"
     transform="scale(4.0128205,0.24920128)"
     id="text24"
     style="font-size:46.95375824px;text-anchor:middle;font-family:Arial" />
  <text
     x="1310.91"
     y="151.35997"
     id="text26"
     style="font-size:129.22999573px;line-height:125%;letter-spacing:0;word-spacing:0;font-family:Gentium Book Basic">
    <tspan
       x="1310.91"
       y="151.35997"
       id="tspan28" />
  </text>
  <text
     x="523.75732"
     y="258.21997"
     transform="scale(4.0128205,0.24920128)"
     id="text30"
     style="font-size:46.95375824px;text-anchor:middle;font-family:Arial" />
  <text
     x="239.33"
     y="-29.900009"
     id="text32"
     style="font-size:129.22999573px;line-height:125%;letter-spacing:0;word-spacing:0;font-family:Gentium Book Basic">
    <tspan
       x="239.33"
       y="-29.900009"
       id="tspan34" />
  </text>
  <text
     x="256.71869"
     y="-469.1264"
     transform="scale(4.0128205,0.24920128)"
     id="text36"
     style="font-size:46.95375824px;text-anchor:middle;font-family:Arial" />
  <text
     x="1337.38"
     y="-246.37001"
     id="text38"
     style="font-size:129.22999573px;line-height:125%;letter-spacing:0;word-spacing:0;font-family:Gentium Book Basic">
    <tspan
       x="1337.38"
       y="-246.37001"
       id="tspan40" />
  </text>
  <text
     x="530.3573"
     y="-1337.802"
     transform="scale(4.0128205,0.24920128)"
     id="text42"
     style="font-size:46.95375824px;text-anchor:middle;font-family:Arial" />
  <text
     x="1918.65"
     y="-326.37"
     id="text44"
     style="font-size:129.22999573px;line-height:125%;letter-spacing:0;word-spacing:0;font-family:Gentium Book Basic">
    <tspan
       x="1918.65"
       y="-326.37"
       id="tspan46" />
  </text>
  <text
     x="675.20654"
     y="-1658.8303"
     transform="scale(4.0128205,0.24920128)"
     id="text48"
     style="font-size:46.95375824px;text-anchor:middle;font-family:Arial" />
  <text
     x="1529.53"
     y="-798.77002"
     id="text50"
     style="font-size:129.22999573px;line-height:125%;letter-spacing:0;word-spacing:0;font-family:Gentium Book Basic">
    <tspan
       x="1529.53"
       y="-798.77002"
       id="tspan52" />
  </text>
  <text
     x="578.237"
     y="-3554.4807"
     transform="scale(4.0128205,0.24920128)"
     id="text54"
     style="font-size:46.95375824px;text-anchor:middle;font-family:Arial" />
  <text
     x="2110.79"
     y="-878.78003"
     id="text56"
     style="font-size:129.22999573px;line-height:125%;letter-spacing:0;word-spacing:0;font-family:Gentium Book Basic">
    <tspan
       x="2110.79"
       y="-878.78003"
       id="tspan58" />
  </text>
  <text
     x="723.0863"
     y="-3875.519"
     transform="scale(4.0128205,0.24920128)"
     id="text60"
     style="font-size:46.95375824px;text-anchor:middle;font-family:Arial" />
  <text
     x="277.98999"
     y="535.94006"
     id="text62"
     style="font-size:208.33000183px;line-height:125%;letter-spacing:0;word-spacing:0;font-family:Gentium Book Basic">
    <tspan
       x="277.98999"
       y="535.94006"
       id="tspan64" />
  </text>
</svg>
