<?xml version="1.0" encoding="UTF-8" standalone="no"?>
<!-- Created with Inkscape (http://www.inkscape.org/) -->

<svg
   xmlns:dc="http://purl.org/dc/elements/1.1/"
   xmlns:cc="http://creativecommons.org/ns#"
   xmlns:rdf="http://www.w3.org/1999/02/22-rdf-syntax-ns#"
   xmlns:svg="http://www.w3.org/2000/svg"
   xmlns="http://www.w3.org/2000/svg"
   xmlns:inkscape="http://www.inkscape.org/namespaces/inkscape"
   version="1.1"
   width="100%"
   height="100%"
   viewBox="0 0 512 512"
   id="svg2">
  <metadata
     id="metadata72">
    <rdf:RDF>
      <cc:Work
         rdf:about="">
        <dc:format>image/svg+xml</dc:format>
        <dc:type
           rdf:resource="http://purl.org/dc/dcmitype/StillImage" />
      </cc:Work>
    </rdf:RDF>
  </metadata>
  <defs
     id="defs70" />
  <path
     d="m 471.95,253.05 c 0,120.9 -98.01,218.9 -218.9,218.9 -120.9,0 -218.9,-98.01 -218.9,-218.9 0,-120.9 98.01,-218.9 218.9,-218.9 120.9,0 218.9,98.01 218.9,218.9"
     inkscape:connector-curvature="0"
     id="path4"
     style="fill:#477bd7;fill-rule:evenodd" />
  <path
     d="m 224.47,175.47 c 0,14.15 0,28.29 0,42.44 -13.172,-17.357 -41.15,-18.775 -57.03,-4.406 -9.857,-13.959 -29.11,-12.755 -41.23,-2.367 -9.802,-3.984 -27.338,-9.318 -36.987,-3.45 0,31.97 0,63.941 0,95.91 58.833,54.818 121.46,119.17 171.24,168.59 2.217,2.217 4.38,-0.332 7.842,-0.793 18.493,-0.338 38.705,4.682 55.772,-4.54 5.182,-9.969 11.936,-2.184 21.465,-9.591 69.19,-32.516 117.55,-104.07 124.68,-179.85 -24.842,-24.842 -22.844,-24.394 -48.538,-50.09 -13.423,0.053 -23.313,-2.077 -32.07,-11.228 -7.53,-8.36 -12.548,-2.793 -13.157,-1.926 -11.721,-16.453 -34.618,-10.803 -50.2,-3.883 -12.374,-11.06 -23.328,-23.502 -35.589,-34.658 -12.837,-1.918 -30.541,-0.67 -28.786,9.783 -8.92,-13.806 -23.457,-9.27 -37.41,-9.938"
     inkscape:connector-curvature="0"
     id="path6"
     style="fill-opacity:0.23500001" />
  <g
     id="g8"
     style="fill-rule:evenodd">
    <path
       d="M 256,1 C 115.17,1 1,115.17 1,256 1,396.83 115.17,511 256,511 396.83,511 511,396.83 511,256 511,115.17 396.83,1 256,1 m 8.827,44.931 c 120.9,0 218.9,98 218.9,218.9 0,120.9 -98,218.9 -218.9,218.9 -120.9,0 -218.93,-98 -218.93,-218.9 0,-120.9 98.03,-218.9 218.93,-218.9"
       inkscape:connector-curvature="0"
       id="path10"
       style="fill-opacity:0.06700003" />
    <g
       id="g12"
       style="fill-opacity:0.12900002">
      <path
         d="m 256,4.433 c -138.94,0 -251.57,112.63 -251.57,251.57 0,138.94 112.63,251.57 251.57,251.57 138.94,0 251.57,-112.63 251.57,-251.57 C 507.57,117.063 394.94,4.433 256,4.433 m 5.885,38.556 c 120.9,0 218.9,98 218.9,218.9 0,120.9 -98,218.9 -218.9,218.9 -120.9,0 -218.93,-98 -218.93,-218.9 0,-120.9 98.03,-218.9 218.93,-218.9"
         inkscape:connector-curvature="0"
         id="path14" />
      <path
         d="m 256,8.356 c -136.77,0 -247.64,110.87 -247.64,247.64 0,136.77 110.87,247.64 247.64,247.64 136.77,0 247.64,-110.87 247.64,-247.64 C 503.64,119.226 392.77,8.356 256,8.356 m 2.942,31.691 c 120.9,0 218.9,98 218.9,218.9 0,120.9 -98,218.9 -218.9,218.9 -120.9,0 -218.93,-98 -218.93,-218.9 0,-120.9 98.03,-218.9 218.93,-218.9"
         inkscape:connector-curvature="0"
         id="path16" />
    </g>
    <path
       d="m 253.04,7.859 c -135.42,0 -245.19,109.78 -245.19,245.19 0,135.42 109.78,245.19 245.19,245.19 135.42,0 245.19,-109.78 245.19,-245.19 0,-135.42 -109.78,-245.19 -245.19,-245.19 z m 0,26.297 c 120.9,0 218.9,98 218.9,218.9 0,120.9 -98,218.9 -218.9,218.9 -120.9,0 -218.93,-98 -218.93,-218.9 0,-120.9 98.03,-218.9 218.93,-218.9 z"
       inkscape:connector-curvature="0"
       id="path18"
       style="fill:#ffffff;stroke:#000000;stroke-width:4.90399981;stroke-opacity:0.31000001" />
  </g>
  <text
     x="729.64001"
     y="231.36"
     id="text20"
     style="font-size:129.22999573px;line-height:125%;letter-spacing:0;word-spacing:0;font-family:Gentium Book Basic">
    <tspan
       x="729.64001"
       y="231.36"
       id="tspan22" />
  </text>
  <text
     x="378.91"
     y="579.25"
     transform="scale(4.0128,0.2492)"
     id="text24"
     style="font-size:46.95399857px;text-anchor:middle;font-family:Arial" />
  <text
     x="1310.91"
     y="151.36"
     id="text26"
     style="font-size:129.22999573px;line-height:125%;letter-spacing:0;word-spacing:0;font-family:Gentium Book Basic">
    <tspan
       x="1310.91"
       y="151.36"
       id="tspan28" />
  </text>
  <text
     x="523.76001"
     y="258.22"
     transform="scale(4.0128,0.2492)"
     id="text30"
     style="font-size:46.95399857px;text-anchor:middle;font-family:Arial" />
  <text
     x="239.33"
     y="-29.900999"
     id="text32"
     style="font-size:129.22999573px;line-height:125%;letter-spacing:0;word-spacing:0;font-family:Gentium Book Basic">
    <tspan
       x="239.33"
       y="-29.900999"
       id="tspan34" />
  </text>
  <text
     x="256.72"
     y="-469.14001"
     transform="scale(4.0128,0.2492)"
     id="text36"
     style="font-size:46.95399857px;text-anchor:middle;font-family:Arial" />
  <text
     x="1337.38"
     y="-246.37"
     id="text38"
     style="font-size:129.22999573px;line-height:125%;letter-spacing:0;word-spacing:0;font-family:Gentium Book Basic">
    <tspan
       x="1337.38"
       y="-246.37"
       id="tspan40" />
  </text>
  <text
     x="530.35999"
     y="-1337.8101"
     transform="scale(4.0128,0.2492)"
     id="text42"
     style="font-size:46.95399857px;text-anchor:middle;font-family:Arial" />
  <text
     x="1918.65"
     y="-326.38"
     id="text44"
     style="font-size:129.22999573px;line-height:125%;letter-spacing:0;word-spacing:0;font-family:Gentium Book Basic">
    <tspan
       x="1918.65"
       y="-326.38"
       id="tspan46" />
  </text>
  <text
     x="675.21002"
     y="-1658.85"
     transform="scale(4.0128,0.2492)"
     id="text48"
     style="font-size:46.95399857px;text-anchor:middle;font-family:Arial" />
  <text
     x="1529.53"
     y="-798.78003"
     id="text50"
     style="font-size:129.22999573px;line-height:125%;letter-spacing:0;word-spacing:0;font-family:Gentium Book Basic">
    <tspan
       x="1529.53"
       y="-798.78003"
       id="tspan52" />
  </text>
  <text
     x="578.23999"
     y="-3554.51"
     transform="scale(4.0128,0.2492)"
     id="text54"
     style="font-size:46.95399857px;text-anchor:middle;font-family:Arial" />
  <text
     x="2110.79"
     y="-878.78003"
     id="text56"
     style="font-size:129.22999573px;line-height:125%;letter-spacing:0;word-spacing:0;font-family:Gentium Book Basic">
    <tspan
       x="2110.79"
       y="-878.78003"
       id="tspan58" />
  </text>
  <text
     x="723.09003"
     y="-3875.54"
     transform="scale(4.0128,0.2492)"
     id="text60"
     style="font-size:46.95399857px;text-anchor:middle;font-family:Arial" />
  <text
     x="277.98999"
     y="535.94"
     id="text62"
     style="font-size:208.33000183px;line-height:125%;letter-spacing:0;word-spacing:0;font-family:Gentium Book Basic">
    <tspan
       x="277.98999"
       y="535.94"
       id="tspan64" />
  </text>
  <path
     d="m 224.47,175.47 v 42.79 c -6.466,-7.849 -15.421,-14.593 -29.969,-14.593 -22.809,0 -43.832,17.929 -43.832,50.608 v 0.365 c 0,32.679 21.382,50.556 43.832,50.556 14.187,0 23.324,-6.769 29.969,-15.896 v 14.229 h 27.467 V 175.469 H 224.47 m 38.881,0 v 21.265 h 28.09 v -21.265 h -28.09 m 90.22,28.2 c -29.995,0 -52.28,22.858 -52.28,50.973 v 0.365 c 0,28.11 22.1,50.556 51.911,50.556 29.992,0 52.28,-22.805 52.28,-50.921 v -0.365 c 0,-2.191 -0.156,-4.348 -0.417,-6.463 15.621,-4.139 22.08,-20.57 14.646,-21.16 -14.05,0.416 -31,-10.792 -37.578,-15.01 -0.61,-0.391 -0.725,-0.768 -1.355,-1.095 -0.688,-0.391 -1.426,-0.735 -2.137,-1.095 v 41.23 c 0.025,3.689 -1.588,7.579 -3.857,11.31 l -0.156,0.313 c -6.567,10.793 -20.397,17.06 -33.36,12.613 -12.585,-4.322 -15.942,-16.666 -9.277,-27.623 l 0.208,-0.365 c 6.56,-10.788 20.345,-17.06 33.3,-12.613 0.999,0.343 1.939,0.754 2.814,1.199 v -29.812 c -4.638,-1.276 -9.566,-2.033 -14.75,-2.033 m -209.31,0.208 c -14.326,0.412 -22.507,8.911 -27.727,21.577 v -19.701 h -27.31 v 97.83 h 27.31 v -36.12 c 0,-22.24 10.07,-33.374 26.685,-34.399 3.255,-11.554 9.199,-20.759 16.73,-27.363 -3.659,-1.37 -7.859,-1.99 -12.717,-1.772 -1.01,-0.046 -2.02,-0.08 -2.971,-0.052 m 119.72,1.616 v 98.04 h 27.363 v -98.04 h -27.363 m -60.2,27.21 c 3.22,-0.133 6.506,0.295 9.746,1.407 12.584,4.322 15.942,16.719 9.277,27.675 l -0.156,0.313 c -6.567,10.791 -20.396,17.11 -33.36,12.665 -12.585,-4.322 -15.942,-16.72 -9.277,-27.675 l 0.208,-0.313 c 4.92,-8.092 13.897,-13.673 23.558,-14.07"
     inkscape:connector-curvature="0"
     id="path66"
     style="fill:#ffffff" />
</svg>
