<?xml version="1.0" encoding="UTF-8" standalone="no"?>
<svg
   xmlns:dc="http://purl.org/dc/elements/1.1/"
   xmlns:cc="http://creativecommons.org/ns#"
   xmlns:rdf="http://www.w3.org/1999/02/22-rdf-syntax-ns#"
   xmlns:svg="http://www.w3.org/2000/svg"
   xmlns="http://www.w3.org/2000/svg"
   xmlns:xlink="http://www.w3.org/1999/xlink"
   xmlns:sodipodi="http://sodipodi.sourceforge.net/DTD/sodipodi-0.dtd"
   xmlns:inkscape="http://www.inkscape.org/namespaces/inkscape"
   viewBox="0 0 512 512"
   id="svg2"
   version="1.1"
   inkscape:version="0.48.5 r10040"
   width="100%"
   height="100%"
   sodipodi:docname="a base.svg">
  <sodipodi:namedview
     pagecolor="#ffffff"
     bordercolor="#666666"
     borderopacity="1"
     objecttolerance="10"
     gridtolerance="10"
     guidetolerance="10"
     inkscape:pageopacity="0"
     inkscape:pageshadow="2"
     inkscape:window-width="1306"
     inkscape:window-height="706"
     id="namedview66"
     showgrid="false"
     inkscape:zoom="0.4609375"
     inkscape:cx="-11.932203"
     inkscape:cy="235.38983"
     inkscape:window-x="56"
     inkscape:window-y="26"
     inkscape:window-maximized="1"
     inkscape:current-layer="svg2" />
  <metadata
     id="metadata70">
    <rdf:RDF>
      <cc:Work
         rdf:about="">
        <dc:format>image/svg+xml</dc:format>
        <dc:type
           rdf:resource="http://purl.org/dc/dcmitype/StillImage" />
        <dc:title></dc:title>
      </cc:Work>
    </rdf:RDF>
  </metadata>
  <defs
     id="defs68">
    <linearGradient
       xlink:href="#0"
       id="1"
       gradientUnits="userSpaceOnUse"
       gradientTransform="matrix(1.0381,0,0,1.46193,-228.29,-118.25)"
       x1="257"
       x2="362" />
    <linearGradient
       xlink:href="#0"
       id="2"
       gradientUnits="userSpaceOnUse"
       gradientTransform="matrix(1.0381,0,0,1.46193,-119.29,-118.25)"
       x1="257"
       x2="362" />
    <linearGradient
       id="0">
      <stop
         id="stop3028" />
      <stop
         offset="1"
         stop-color="#fff"
         id="stop3030" />
    </linearGradient>
    <linearGradient
       xlink:href="#0"
       id="3"
       gradientUnits="userSpaceOnUse"
       gradientTransform="matrix(1.0381,0,0,1.46193,-10.289,-118.25)"
       x1="257"
       x2="362" />
    <linearGradient
       xlink:href="#0"
       id="4"
       gradientUnits="userSpaceOnUse"
       gradientTransform="matrix(1.02835,0,0,1.46193,101.22,-118.25)"
       x1="257"
       x2="362" />
    <linearGradient
       xlink:href="#0"
       id="6"
       gradientUnits="userSpaceOnUse"
       gradientTransform="matrix(1.0381,0,0,1.46193,-337.29,-118.25)"
       x1="257"
       x2="362" />
    <linearGradient
       xlink:href="#0"
       id="5"
       gradientUnits="userSpaceOnUse"
       gradientTransform="matrix(1.02835,0,0,1.46193,209.19,-118.25)"
       x1="257"
       x2="362" />
    <linearGradient
       id="8"
       y1="19.564"
       x2="0"
       y2="504.02"
       gradientUnits="userSpaceOnUse">
      <stop
         stop-color="#f3f3f3"
         id="stop3017" />
      <stop
         offset=".5"
         stop-color="#eee"
         id="stop3019" />
      <stop
         offset="1"
         stop-color="#ebebeb"
         id="stop3021" />
    </linearGradient>
    <filter
       id="7">
      <feGaussianBlur
         stdDeviation="3.7725"
         id="feGaussianBlur3014" />
    </filter>
    <linearGradient
       x2="362"
       x1="257"
       gradientTransform="matrix(1.02835,0,0,1.46193,-402.60461,-240.57903)"
       gradientUnits="userSpaceOnUse"
       id="linearGradient3098"
       xlink:href="#0"
       inkscape:collect="always" />
    <linearGradient
       x2="362"
       x1="257"
       gradientTransform="matrix(1.0381,0,0,1.46193,-949.08461,-240.57903)"
       gradientUnits="userSpaceOnUse"
       id="linearGradient3101"
       xlink:href="#0"
       inkscape:collect="always" />
    <linearGradient
       x2="362"
       x1="257"
       gradientTransform="matrix(1.02835,0,0,1.46193,-510.57461,-240.57903)"
       gradientUnits="userSpaceOnUse"
       id="linearGradient3104"
       xlink:href="#0"
       inkscape:collect="always" />
    <linearGradient
       x2="362"
       x1="257"
       gradientTransform="matrix(1.0381,0,0,1.46193,-622.08361,-240.57903)"
       gradientUnits="userSpaceOnUse"
       id="linearGradient3107"
       xlink:href="#0"
       inkscape:collect="always" />
    <linearGradient
       x2="362"
       x1="257"
       gradientTransform="matrix(1.0381,0,0,1.46193,-731.08461,-240.57903)"
       gradientUnits="userSpaceOnUse"
       id="linearGradient3110"
       xlink:href="#0"
       inkscape:collect="always" />
    <linearGradient
       x2="362"
       x1="257"
       gradientTransform="matrix(1.0381,0,0,1.46193,-840.08461,-240.57903)"
       gradientUnits="userSpaceOnUse"
       id="linearGradient3113"
       xlink:href="#0"
       inkscape:collect="always" />
    <linearGradient
       gradientTransform="translate(-611.79461,-122.32903)"
       y2="504.02"
       x2="0"
       y1="19.564"
       gradientUnits="userSpaceOnUse"
       id="linearGradient3121"
       xlink:href="#8"
       inkscape:collect="always" />
    <clipPath
       clipPathUnits="userSpaceOnUse"
       id="clipPath3535">
      <path
         d="m 471.9456,253.05189 c 0,120.89699 -98.00565,218.90724 -218.90724,218.90724 -120.89698,0 -218.90723,-98.00566 -218.90723,-218.90724 0,-120.89698 98.00565,-218.907232 218.90723,-218.907232 120.89699,0 218.90724,98.005652 218.90724,218.907232"
         id="path3537"
         inkscape:connector-curvature="0"
         style="fill:#e4a146;fill-opacity:1;fill-rule:evenodd" />
    </clipPath>
  </defs>
  <path
     style="fill:#e4a146;fill-rule:evenodd;fill-opacity:1"
     inkscape:connector-curvature="0"
     id="path8"
     d="m 471.9456,253.05189 c 0,120.89699 -98.00565,218.90724 -218.90724,218.90724 -120.89698,0 -218.90723,-98.00566 -218.90723,-218.90724 0,-120.89698 98.00565,-218.907232 218.90723,-218.907232 120.89699,0 218.90724,98.005652 218.90724,218.907232" />
  <path
     style="fill-opacity:0.06700003;fill-rule:evenodd"
     inkscape:connector-curvature="0"
     id="path10"
     d="M 256,1 C 115.17,1 1,115.17 1,256 1,396.83 115.17,511 256,511 396.83,511 511,396.83 511,256 511,115.17 396.83,1 256,1 m 8.827,44.931 c 120.9,0 218.9,98 218.9,218.9 0,120.9 -98,218.9 -218.9,218.9 -120.9,0 -218.93,-98 -218.93,-218.9 0,-120.9 98.03,-218.9 218.93,-218.9" />
  <path
     d="M 256,4.43 C 117.06,4.43 4.43,117.06 4.43,256 4.43,394.94 117.06,507.57 256,507.57 394.94,507.57 507.57,394.94 507.57,256 507.57,117.06 394.94,4.43 256,4.43 m 5.885,38.556 c 120.9,0 218.9,98 218.9,218.9 0,120.9 -98,218.9 -218.9,218.9 -120.9,0 -218.93,-98 -218.93,-218.9 0,-120.9 98.03,-218.9 218.93,-218.9"
     id="path14"
     inkscape:connector-curvature="0"
     style="fill-opacity:0.12900002;fill-rule:evenodd" />
  <path
     d="M 256,8.36 C 119.23,8.36 8.36,119.23 8.36,256 8.36,392.77 119.23,503.64 256,503.64 392.77,503.64 503.64,392.77 503.64,256 503.64,119.23 392.77,8.36 256,8.36 m 2.942,31.691 c 120.9,0 218.9,98 218.9,218.9 0,120.9 -98,218.9 -218.9,218.9 -120.9,0 -218.93,-98 -218.93,-218.9 0,-120.9 98.03,-218.9 218.93,-218.9"
     id="path16"
     inkscape:connector-curvature="0"
     style="fill-opacity:0.12900002;fill-rule:evenodd" />
  <path
     style="fill:#ffffff;fill-rule:evenodd;stroke:#000000;stroke-width:4.90399981;stroke-opacity:0.31000001"
     inkscape:connector-curvature="0"
     id="path18"
     d="M 253.04,7.86 C 117.62,7.86 7.85,117.64 7.85,253.05 c 0,135.42 109.78,245.19 245.19,245.19 135.42,0 245.19,-109.78 245.19,-245.19 C 498.23,117.63 388.45,7.86 253.04,7.86 z m 0,26.297 c 120.9,0 218.9,98 218.9,218.9 0,120.9 -98,218.9 -218.9,218.9 -120.9,0 -218.93,-98 -218.93,-218.9 0,-120.9 98.03,-218.9 218.93,-218.9 z" />
  <text
     font-size="129.23"
     letter-spacing="0"
     line-height="125%"
     word-spacing="0"
     x="729.64001"
     y="231.35997"
     id="text20"
     sodipodi:linespacing="125%"
     style="font-size:129.22999573px;line-height:125%;letter-spacing:0;word-spacing:0;font-family:Gentium Book Basic">
    <tspan
       x="729.64001"
       y="231.35997"
       id="tspan22" />
  </text>
  <text
     x="378.90805"
     y="579.25812"
     font-size="46.954"
     transform="scale(4.0128205,0.24920128)"
     id="text24"
     style="font-size:46.95375824px;text-anchor:middle;font-family:Arial" />
  <text
     font-size="129.23"
     letter-spacing="0"
     line-height="125%"
     word-spacing="0"
     x="1310.91"
     y="151.35997"
     id="text26"
     sodipodi:linespacing="125%"
     style="font-size:129.22999573px;line-height:125%;letter-spacing:0;word-spacing:0;font-family:Gentium Book Basic">
    <tspan
       x="1310.91"
       y="151.35997"
       id="tspan28" />
  </text>
  <text
     x="523.75732"
     y="258.21997"
     font-size="46.954"
     transform="scale(4.0128205,0.24920128)"
     id="text30"
     style="font-size:46.95375824px;text-anchor:middle;font-family:Arial" />
  <text
     font-size="129.23"
     letter-spacing="0"
     line-height="125%"
     word-spacing="0"
     x="239.33"
     y="-29.900009"
     id="text32"
     sodipodi:linespacing="125%"
     style="font-size:129.22999573px;line-height:125%;letter-spacing:0;word-spacing:0;font-family:Gentium Book Basic">
    <tspan
       x="239.33"
       y="-29.900009"
       id="tspan34" />
  </text>
  <text
     x="256.71869"
     y="-469.1264"
     font-size="46.954"
     transform="scale(4.0128205,0.24920128)"
     id="text36"
     style="font-size:46.95375824px;text-anchor:middle;font-family:Arial" />
  <text
     font-size="129.23"
     letter-spacing="0"
     line-height="125%"
     word-spacing="0"
     x="1337.38"
     y="-246.37001"
     id="text38"
     sodipodi:linespacing="125%"
     style="font-size:129.22999573px;line-height:125%;letter-spacing:0;word-spacing:0;font-family:Gentium Book Basic">
    <tspan
       x="1337.38"
       y="-246.37001"
       id="tspan40" />
  </text>
  <text
     x="530.3573"
     y="-1337.802"
     font-size="46.954"
     transform="scale(4.0128205,0.24920128)"
     id="text42"
     style="font-size:46.95375824px;text-anchor:middle;font-family:Arial" />
  <text
     font-size="129.23"
     letter-spacing="0"
     line-height="125%"
     word-spacing="0"
     x="1918.65"
     y="-326.37"
     id="text44"
     sodipodi:linespacing="125%"
     style="font-size:129.22999573px;line-height:125%;letter-spacing:0;word-spacing:0;font-family:Gentium Book Basic">
    <tspan
       x="1918.65"
       y="-326.37"
       id="tspan46" />
  </text>
  <text
     x="675.20654"
     y="-1658.8303"
     font-size="46.954"
     transform="scale(4.0128205,0.24920128)"
     id="text48"
     style="font-size:46.95375824px;text-anchor:middle;font-family:Arial" />
  <text
     font-size="129.23"
     letter-spacing="0"
     line-height="125%"
     word-spacing="0"
     x="1529.53"
     y="-798.77002"
     id="text50"
     sodipodi:linespacing="125%"
     style="font-size:129.22999573px;line-height:125%;letter-spacing:0;word-spacing:0;font-family:Gentium Book Basic">
    <tspan
       x="1529.53"
       y="-798.77002"
       id="tspan52" />
  </text>
  <text
     x="578.237"
     y="-3554.4807"
     font-size="46.954"
     transform="scale(4.0128205,0.24920128)"
     id="text54"
     style="font-size:46.95375824px;text-anchor:middle;font-family:Arial" />
  <text
     font-size="129.23"
     letter-spacing="0"
     line-height="125%"
     word-spacing="0"
     x="2110.79"
     y="-878.78003"
     id="text56"
     sodipodi:linespacing="125%"
     style="font-size:129.22999573px;line-height:125%;letter-spacing:0;word-spacing:0;font-family:Gentium Book Basic">
    <tspan
       x="2110.79"
       y="-878.78003"
       id="tspan58" />
  </text>
  <text
     x="723.0863"
     y="-3875.519"
     font-size="46.954"
     transform="scale(4.0128205,0.24920128)"
     id="text60"
     style="font-size:46.95375824px;text-anchor:middle;font-family:Arial" />
  <text
     font-size="208.33"
     letter-spacing="0"
     line-height="125%"
     word-spacing="0"
     x="277.98999"
     y="535.94006"
     id="text62"
     sodipodi:linespacing="125%"
     style="font-size:208.33000183px;line-height:125%;letter-spacing:0;word-spacing:0;font-family:Gentium Book Basic">
    <tspan
       x="277.98999"
       y="535.94006"
       id="tspan64" />
  </text>
  <g
     style="fill:#000000;opacity:0.25"
     id="g3181"
     clip-path="url(#clipPath3535)">
    <path
       inkscape:connector-curvature="0"
       d="m 372.503,114.6545 c -13.176,0 -24.482,8.08 -29.16,19.594 l 388.90873,388.90873 c 4.678,-11.514 15.984,-19.594 29.16,-19.594 z"
       id="path3183"
       style="fill:#000000" />
    <path
       inkscape:connector-curvature="0"
       d="m 343.343,134.2485 -64.969,-15.469 388.90873,388.90873 64.969,15.469 z"
       id="path3185"
       style="fill:#000000" />
    <path
       inkscape:connector-curvature="0"
       d="m 278.374,118.7795 -26.969,76.69 388.90873,388.90873 26.969,-76.69 z"
       id="path3187"
       style="fill:#000000" />
    <path
       inkscape:connector-curvature="0"
       d="m 251.405,195.4695 c -38.38,0.706 -73.21,11.11 -99.22,27.719 l 388.90873,388.90873 c 26.01,-16.609 60.84,-27.013 99.22,-27.719 z"
       id="path3189"
       style="fill:#000000" />
    <path
       inkscape:connector-curvature="0"
       d="m 152.185,223.1885 c -7.01,-6.07 -15.745,-9.531 -25.12,-9.531 l 388.90873,388.90873 c 9.375,0 18.11,3.461 25.12,9.531 z"
       id="path3191"
       style="fill:#000000" />
    <path
       inkscape:connector-curvature="0"
       d="m 127.065,213.6575 c -21.285,0 -38.563001,17.309 -38.563001,38.563 L 477.41073,641.12923 c 0,-21.254 17.278,-38.563 38.563,-38.563 z"
       id="path3193"
       style="fill:#000000" />
    <path
       inkscape:connector-curvature="0"
       d="m 88.501999,252.2205 c 0,10.36468 4.159722,20.04387 11.26501,27.14916 L 488.67574,668.27839 c -7.10529,-7.10529 -11.26501,-16.78448 -11.26501,-27.14916 z"
       id="path3195"
       style="fill:#000000" />
    <path
       inkscape:connector-curvature="0"
       d="m 99.767009,279.36966 c 1.948491,1.94849 4.118501,3.70342 6.484991,5.22584 l 388.90873,388.90873 c -2.36649,-1.52242 -4.5365,-3.27735 -6.48499,-5.22584 z"
       id="path3197"
       style="fill:#000000" />
    <path
       inkscape:connector-curvature="0"
       d="m 106.252,284.5955 c -0.674,3.859 -1.063,7.735 -1.063,11.688 l 388.90873,388.90873 c 0,-3.953 0.389,-7.829 1.063,-11.688 z"
       id="path3199"
       style="fill:#000000" />
    <path
       inkscape:connector-curvature="0"
       d="m 105.189,296.2835 c 0,20.76216 9.39849,40.0962 25.48029,56.178 l 388.90873,388.90873 c -16.0818,-16.0818 -25.48029,-35.41584 -25.48029,-56.178 z"
       id="path3201"
       style="fill:#000000" />
    <path
       inkscape:connector-curvature="0"
       d="m 130.66929,352.4615 c 13.2474,13.2474 31.02987,24.28794 51.82971,32.102 l 388.90873,388.90873 c -20.79984,-7.81406 -38.58231,-18.8546 -51.82971,-32.102 z"
       id="path3203"
       style="fill:#000000" />
    <path
       inkscape:connector-curvature="0"
       d="m 182.499,384.5635 c 8.181,3.06 8.626,3.108 15.594,5.094 l 388.90873,388.90873 c -6.968,-1.986 -7.413,-2.034 -15.594,-5.094 z"
       id="path3205"
       style="fill:#000000" />
    <path
       inkscape:connector-curvature="0"
       d="m 198.093,389.6575 c 17.74,4.957 37.12,7.688 57.53,7.688 l 388.90873,388.90873 c -20.41,0 -39.79,-2.731 -57.53,-7.688 z"
       id="path3207"
       style="fill:#000000" />
    <path
       inkscape:connector-curvature="0"
       d="m 255.623,397.3455 c 19.905,0 38.917,-2.669 56.31,-7.375 l 388.90873,388.90873 c -17.393,4.706 -36.405,7.375 -56.31,7.375 z"
       id="path3209"
       style="fill:#000000" />
    <path
       inkscape:connector-curvature="0"
       d="m 311.933,389.9705 c 16.982,-5.198 2.143,-0.207 16.781,-5.406 l 388.90873,388.90873 c -14.638,5.199 0.201,0.208 -16.781,5.406 z"
       id="path3211"
       style="fill:#000000" />
    <path
       inkscape:connector-curvature="0"
       d="m 328.714,384.5645 c 46.13,-17.285 77.44,-50.39 77.44,-88.28 l 388.90873,388.90873 c 0,37.89 -31.31,70.995 -77.44,88.28 z"
       id="path3213"
       style="fill:#000000" />
    <path
       inkscape:connector-curvature="0"
       d="m 406.154,296.2845 c 0,-3.859 -0.357,-7.501 -0.969,-11.25 l 388.90873,388.90873 c 0.612,3.749 0.969,7.391 0.969,11.25 z"
       id="path3215"
       style="fill:#000000" />
    <path
       inkscape:connector-curvature="0"
       d="m 405.185,285.0345 c 11.278,-7.01 18.313,-19.417 18.313,-32.813 l 388.90873,388.90873 c 0,13.396 -7.035,25.803 -18.313,32.813 z"
       id="path3217"
       style="fill:#000000" />
    <path
       inkscape:connector-curvature="0"
       d="m 423.498,252.2215 c 0,-10.62512 -4.32947,-20.26435 -11.31318,-27.24805 l 388.90873,388.90873 c 6.98371,6.9837 11.31318,16.62293 11.31318,27.24805 z"
       id="path3219"
       style="fill:#000000" />
    <path
       inkscape:connector-curvature="0"
       d="M 412.18482,224.97345 C 405.19865,217.98728 395.55637,213.6585 384.935,213.6585 l 388.90873,388.90873 c 10.62137,0 20.26365,4.32878 27.24982,11.31495 z"
       id="path3221"
       style="fill:#000000" />
    <path
       inkscape:connector-curvature="0"
       d="m 384.935,213.6585 c -9.474,0 -18.395,3.539 -25.438,9.75 l 388.90873,388.90873 c 7.043,-6.211 15.964,-9.75 25.438,-9.75 z"
       id="path3223"
       style="fill:#000000" />
    <path
       inkscape:connector-curvature="0"
       d="m 359.497,223.4085 c -25.1,-16.11 -58.37,-26.448 -95.22,-27.844 l 388.90873,388.90873 c 36.85,1.396 70.12,11.734 95.22,27.844 z"
       id="path3225"
       style="fill:#000000" />
    <path
       inkscape:connector-curvature="0"
       d="m 264.277,195.5645 22,-62.37 388.90873,388.90873 -22,62.37 z"
       id="path3227"
       style="fill:#000000" />
    <path
       inkscape:connector-curvature="0"
       d="m 286.277,133.1945 54.688,13.09 388.90873,388.90873 -54.688,-13.09 z"
       id="path3229"
       style="fill:#000000" />
    <path
       inkscape:connector-curvature="0"
       d="m 340.965,146.2845 c 0.0155,8.64514 3.53558,16.47928 9.21709,22.16079 l 388.90873,388.90873 c -5.68151,-5.68151 -9.20163,-13.51565 -9.21709,-22.16079 z"
       id="path3231"
       style="fill:#000000" />
    <path
       inkscape:connector-curvature="0"
       d="m 350.18209,168.44529 c 5.70959,5.70959 13.60199,9.24521 22.31391,9.24521 l 388.90873,388.90873 c -8.71192,0 -16.60432,-3.53562 -22.31391,-9.24521 z"
       id="path3233"
       style="fill:#000000" />
    <path
       inkscape:connector-curvature="0"
       d="m 372.496,177.6905 c 17.38,0 31.5,-14.09 31.5,-31.5 l 388.90873,388.90873 c 0,17.41 -14.12,31.5 -31.5,31.5 z"
       id="path3235"
       style="fill:#000000" />
    <path
       inkscape:connector-curvature="0"
       d="m 403.996,146.1905 c 0,-8.69175 -3.53793,-16.58245 -9.25171,-22.29623 L 783.65302,512.803 c 5.71378,5.71378 9.25171,13.60448 9.25171,22.29623 z"
       id="path3237"
       style="fill:#000000" />
    <path
       inkscape:connector-curvature="0"
       d="M 394.74429,123.89427 C 389.04332,118.1933 381.17625,114.6595 372.496,114.6595 l 388.90873,388.90873 c 8.68025,0 16.54732,3.5338 22.24829,9.23477 z"
       id="path3239"
       style="fill:#000000" />
    <path
       inkscape:connector-curvature="0"
       d="m 372.496,126.7895 c 5.33924,0 10.17508,2.17305 13.68005,5.67802 l 388.90873,388.90873 c -3.50497,-3.50497 -8.34081,-5.67802 -13.68005,-5.67802 z"
       id="path3241"
       style="fill:#000000" />
    <path
       inkscape:connector-curvature="0"
       d="m 386.17605,132.46752 c 3.51778,3.51778 5.69495,8.37724 5.69495,13.72798 l 388.90873,388.90873 c 0,-5.35074 -2.17717,-10.2102 -5.69495,-13.72798 z"
       id="path3243"
       style="fill:#000000" />
    <path
       inkscape:connector-curvature="0"
       d="m 391.871,146.1955 c 0,10.682 -8.693,19.375 -19.375,19.375 l 388.90873,388.90873 c 10.682,0 19.375,-8.693 19.375,-19.375 z"
       id="path3245"
       style="fill:#000000" />
    <path
       inkscape:connector-curvature="0"
       d="m 372.496,165.5705 c -5.34875,0 -10.20658,-2.17956 -13.72405,-5.69703 L 747.68068,548.7822 c 3.51747,3.51747 8.3753,5.69703 13.72405,5.69703 z"
       id="path3247"
       style="fill:#000000" />
    <path
       inkscape:connector-curvature="0"
       d="M 358.77195,159.87347 C 355.26468,156.36619 353.09,151.52875 353.09,146.1955 l 388.90873,388.90873 c 0,5.33325 2.17467,10.17069 5.68195,13.67797 z"
       id="path3249"
       style="fill:#000000" />
    <path
       inkscape:connector-curvature="0"
       d="m 353.09,146.1955 c 0,-10.682 8.709,-19.406 19.406,-19.406 l 388.90873,388.90873 c -10.697,0 -19.406,8.724 -19.406,19.406 z"
       id="path3251"
       style="fill:#000000" />
    <path
       inkscape:connector-curvature="0"
       d="m 127.056,225.7895 c 5.396,0 10.561,1.598 14.938,4.563 l 388.90873,388.90873 c -4.377,-2.965 -9.542,-4.563 -14.938,-4.563 z"
       id="path3253"
       style="fill:#000000" />
    <path
       inkscape:connector-curvature="0"
       d="m 141.994,230.3525 c -15.262,11.827 -26.493,26.03 -32.28,41.688 l 388.90873,388.90873 c 5.787,-15.658 17.018,-29.861 32.28,-41.688 z"
       id="path3255"
       style="fill:#000000" />
    <path
       inkscape:connector-curvature="0"
       d="m 109.714,272.0405 c -0.46886,-0.408 -0.92227,-0.83113 -1.35958,-1.26844 l 388.90873,388.90873 c 0.43731,0.43731 0.89072,0.86044 1.35958,1.26844 z"
       id="path3257"
       style="fill:#000000" />
    <path
       inkscape:connector-curvature="0"
       d="M 108.35442,270.77206 C 103.49577,265.91341 100.624,259.3036 100.624,252.2275 l 388.90873,388.90873 c 0,7.0761 2.87177,13.68591 7.73042,18.54456 z"
       id="path3259"
       style="fill:#000000" />
    <path
       inkscape:connector-curvature="0"
       d="m 100.624,252.2275 c 0,-14.588 11.819,-26.438 26.438,-26.438 l 388.90873,388.90873 c -14.619,0 -26.438,11.85 -26.438,26.438 z"
       id="path3261"
       style="fill:#000000" />
    <path
       inkscape:connector-curvature="0"
       d="m 384.842,225.7895 c 7.31725,0 13.96903,2.98142 18.78193,7.79432 l 388.90873,388.90873 c -4.8129,-4.8129 -11.46468,-7.79432 -18.78193,-7.79432 z"
       id="path3263"
       style="fill:#000000" />
    <path
       inkscape:connector-curvature="0"
       d="m 403.62393,233.58382 c 4.78232,4.78232 7.74907,11.37293 7.74907,18.64368 l 388.90873,388.90873 c 0,-7.27075 -2.96675,-13.86136 -7.74907,-18.64368 z"
       id="path3265"
       style="fill:#000000" />
    <path
       inkscape:connector-curvature="0"
       d="m 411.373,252.2275 c 0,7.937 -3.68,15.168 -9.656,20.13 l 388.90873,388.90873 c 5.976,-4.962 9.656,-12.193 9.656,-20.13 z"
       id="path3267"
       style="fill:#000000" />
    <path
       inkscape:connector-curvature="0"
       d="m 401.717,272.3575 c -4.25222,-11.69025 -11.48811,-22.5908 -21.21039,-32.31307 l 388.90873,388.90873 c 9.72228,9.72227 16.95817,20.62282 21.21039,32.31307 z"
       id="path3269"
       style="fill:#000000" />
    <path
       inkscape:connector-curvature="0"
       d="m 380.50661,240.04443 c -3.29648,-3.29649 -6.87881,-6.45751 -10.72761,-9.46793 l 388.90873,388.90873 c 3.8488,3.01042 7.43113,6.17144 10.72761,9.46793 z"
       id="path3271"
       style="fill:#000000" />
    <path
       inkscape:connector-curvature="0"
       d="m 369.779,230.5765 c 4.392,-3.106 9.541,-4.781 15.06,-4.781 l 388.90873,388.90873 c -5.519,0 -10.668,1.675 -15.06,4.781 z"
       id="path3273"
       style="fill:#000000" />
    <path
       inkscape:connector-curvature="0"
       d="m 207.839,254.8255 c 6.54987,0 12.47952,2.6549 16.77175,6.94713 l 388.90873,388.90873 c -4.29223,-4.29223 -10.22188,-6.94713 -16.77175,-6.94713 z"
       id="path3275"
       style="fill:#000000" />
    <path
       inkscape:connector-curvature="0"
       d="m 224.61075,261.77263 c 4.2924,4.29239 6.94725,10.22225 6.94725,16.77187 l 388.90873,388.90873 c 0,-6.54963 -2.65485,-12.47948 -6.94725,-16.77187 z"
       id="path3277"
       style="fill:#000000" />
    <path
       inkscape:connector-curvature="0"
       d="m 231.558,278.5445 c 0,13.1 -10.62,23.719 -23.719,23.719 l 388.90873,388.90873 c 13.099,0 23.719,-10.619 23.719,-23.719 z"
       id="path3279"
       style="fill:#000000" />
    <path
       inkscape:connector-curvature="0"
       d="m 207.839,302.2635 c -6.54987,0 -12.47952,-2.6549 -16.77175,-6.94713 L 579.97598,684.2251 c 4.29223,4.29223 10.22187,6.94713 16.77175,6.94713 z"
       id="path3281"
       style="fill:#000000" />
    <path
       inkscape:connector-curvature="0"
       d="M 191.06725,295.31637 C 186.77485,291.02398 184.12,285.09412 184.12,278.5445 l 388.90873,388.90873 c 0,6.54962 2.65485,12.47948 6.94725,16.77187 z"
       id="path3283"
       style="fill:#000000" />
    <path
       inkscape:connector-curvature="0"
       d="m 184.12,278.5445 c 0,-13.1 10.62,-23.719 23.719,-23.719 l 388.90873,388.90873 c -13.099,0 -23.719,10.619 -23.719,23.719 z"
       id="path3285"
       style="fill:#000000" />
    <path
       inkscape:connector-curvature="0"
       d="m 306.839,254.8255 c 6.54987,0 12.47952,2.6549 16.77175,6.94713 l 388.90873,388.90873 c -4.29223,-4.29223 -10.22188,-6.94713 -16.77175,-6.94713 z"
       id="path3287"
       style="fill:#000000" />
    <path
       inkscape:connector-curvature="0"
       d="m 323.61075,261.77263 c 4.2924,4.29239 6.94725,10.22225 6.94725,16.77187 l 388.90873,388.90873 c 0,-6.54963 -2.65485,-12.47948 -6.94725,-16.77187 z"
       id="path3289"
       style="fill:#000000" />
    <path
       inkscape:connector-curvature="0"
       d="m 330.558,278.5445 c 0,13.1 -10.62,23.719 -23.719,23.719 l 388.90873,388.90873 c 13.099,0 23.719,-10.619 23.719,-23.719 z"
       id="path3291"
       style="fill:#000000" />
    <path
       inkscape:connector-curvature="0"
       d="m 306.839,302.2635 c -6.54987,0 -12.47952,-2.6549 -16.77175,-6.94713 L 678.97598,684.2251 c 4.29223,4.29223 10.22187,6.94713 16.77175,6.94713 z"
       id="path3293"
       style="fill:#000000" />
    <path
       inkscape:connector-curvature="0"
       d="M 290.06725,295.31637 C 285.77485,291.02398 283.12,285.09412 283.12,278.5445 l 388.90873,388.90873 c 0,6.54962 2.65485,12.47948 6.94725,16.77187 z"
       id="path3295"
       style="fill:#000000" />
    <path
       inkscape:connector-curvature="0"
       d="m 283.12,278.5445 c 0,-13.1 10.62,-23.719 23.719,-23.719 l 388.90873,388.90873 c -13.099,0 -23.719,10.619 -23.719,23.719 z"
       id="path3297"
       style="fill:#000000" />
    <path
       inkscape:connector-curvature="0"
       d="m 205.219,332.3255 c 1.53771,0.0218 3.09113,0.68947 4.25722,1.85555 l 388.90872,388.90873 c -1.16608,-1.16608 -2.7195,-1.83373 -4.25721,-1.85555 z"
       id="path3299"
       style="fill:#000000" />
    <path
       inkscape:connector-curvature="0"
       d="m 209.47622,334.18105 c 0.11624,0.11625 0.22863,0.23745 0.33678,0.36345 l 388.90873,388.90873 c -0.10815,-0.126 -0.22054,-0.2472 -0.33679,-0.36345 z"
       id="path3301"
       style="fill:#000000" />
    <path
       inkscape:connector-curvature="0"
       d="m 209.813,334.5445 c 0.0169,0.0169 0.0613,0.063 0.13391,0.13565 l 388.90873,388.90873 c -0.0726,-0.0726 -0.11701,-0.11875 -0.13391,-0.13565 z"
       id="path3303"
       style="fill:#000000" />
    <path
       inkscape:connector-curvature="0"
       d="m 209.94691,334.68015 c 1.47813,1.47814 14.64574,13.92435 45.46009,13.92435 l 388.90873,388.90873 c -30.81435,0 -43.98196,-12.44622 -45.46009,-13.92435 z"
       id="path3305"
       style="fill:#000000" />
    <path
       inkscape:connector-curvature="0"
       d="m 255.407,348.6045 c 32.893,0 47.31,-14.249 47.44,-14.406 l 388.90873,388.90873 c -0.13,0.157 -14.547,14.406 -47.44,14.406 z"
       id="path3307"
       style="fill:#000000" />
    <path
       inkscape:connector-curvature="0"
       d="m 302.847,334.1985 0,-0.094 388.90873,388.90873 0,0.094 z"
       id="path3309"
       style="fill:#000000" />
    <path
       inkscape:connector-curvature="0"
       d="m 302.847,334.1045 c 2.337,-2.29 6.163,-2.321 8.563,0 l 388.90873,388.90873 c -2.4,-2.321 -6.226,-2.29 -8.563,0 z"
       id="path3311"
       style="fill:#000000" />
    <path
       inkscape:connector-curvature="0"
       d="m 311.41,334.1045 c 0.0251,0.0243 0.0499,0.0487 0.0745,0.0732 l 388.90873,388.90872 c -0.0246,-0.0246 -0.0494,-0.049 -0.0745,-0.0732 z"
       id="path3313"
       style="fill:#000000" />
    <path
       inkscape:connector-curvature="0"
       d="m 311.48446,334.17773 c 2.32756,2.32755 2.41062,6.09901 0.14454,8.48977 l 388.90873,388.90873 c 2.26608,-2.39076 2.18302,-6.16222 -0.14454,-8.48978 z"
       id="path3315"
       style="fill:#000000" />
    <path
       inkscape:connector-curvature="0"
       d="m 311.629,342.6675 c -0.706,0.722 -17.774,17.969 -56.22,17.969 l 388.90873,388.90873 c 38.446,0 55.514,-17.247 56.22,-17.969 z"
       id="path3317"
       style="fill:#000000" />
    <path
       inkscape:connector-curvature="0"
       d="m 255.409,360.6365 c -34.49485,0 -50.57654,-13.91192 -54.08364,-17.41902 l 388.90873,388.90873 c 3.5071,3.5071 19.58879,17.41902 54.08364,17.41902 z"
       id="path3319"
       style="fill:#000000" />
    <path
       inkscape:connector-curvature="0"
       d="m 201.32536,343.21748 c -0.42073,-0.42073 -0.66049,-0.69172 -0.72936,-0.77098 l 388.90873,388.90873 c 0.0689,0.0793 0.30863,0.35025 0.72936,0.77098 z"
       id="path3321"
       style="fill:#000000" />
    <path
       inkscape:connector-curvature="0"
       d="m 200.596,342.4465 c -2.18,-2.541 -1.791,-6.382 0.75,-8.563 l 388.90873,388.90873 c -2.541,2.181 -2.93,6.022 -0.75,8.563 z"
       id="path3323"
       style="fill:#000000" />
    <path
       inkscape:connector-curvature="0"
       d="m 201.346,333.8835 c 0.941,-0.818 2.01,-1.395 3.156,-1.531 l 388.90873,388.90873 c -1.146,0.136 -2.215,0.713 -3.156,1.531 z"
       id="path3325"
       style="fill:#000000" />
    <path
       inkscape:connector-curvature="0"
       d="m 204.502,332.3525 c 0.24,-0.028 0.477,-0.035 0.719,-0.031 l 388.90873,388.90873 c -0.242,-0.004 -0.479,0.003 -0.719,0.031 z"
       id="path3327"
       style="fill:#000000" />
  </g>
  <path
     style="fill:#ffffff"
     inkscape:connector-curvature="0"
     d="m 372.503,114.6545 c -13.176,0 -24.482,8.08 -29.16,19.594 l -64.969,-15.469 -26.969,76.69 c -38.38,0.706 -73.21,11.11 -99.22,27.719 -7.01,-6.07 -15.745,-9.531 -25.12,-9.531 -21.285,0 -38.563001,17.309 -38.563001,38.563 0,13.207 6.754001,25.301 17.750001,32.375 -0.674,3.859 -1.063,7.735 -1.063,11.688 0,37.865 31.26,70.98 77.31,88.28 8.181,3.06 8.626,3.108 15.594,5.094 17.74,4.957 37.12,7.688 57.53,7.688 19.905,0 38.917,-2.669 56.31,-7.375 16.982,-5.198 2.143,-0.207 16.781,-5.406 46.13,-17.285 77.44,-50.39 77.44,-88.28 0,-3.859 -0.357,-7.501 -0.969,-11.25 11.278,-7.01 18.313,-19.417 18.313,-32.813 0,-21.254 -17.324,-38.563 -38.563,-38.563 -9.474,0 -18.395,3.539 -25.438,9.75 -25.1,-16.11 -58.37,-26.448 -95.22,-27.844 l 22,-62.37 54.688,13.09 c 0.031,17.333 14.15,31.406 31.531,31.406 17.38,0 31.5,-14.09 31.5,-31.5 0,-17.364 -14.12,-31.531 -31.5,-31.531 m 0,12.13 c 10.698,0 19.375,8.724 19.375,19.406 0,10.682 -8.693,19.375 -19.375,19.375 -10.682,0 -19.406,-8.693 -19.406,-19.375 0,-10.682 8.709,-19.406 19.406,-19.406 m -245.44,99 c 5.396,0 10.561,1.598 14.938,4.563 -15.262,11.827 -26.493,26.03 -32.28,41.688 -5.678,-4.941 -9.09,-12.1 -9.09,-19.813 0,-14.588 11.819,-26.438 26.438,-26.438 m 257.78,0 c 14.588,0 26.531,11.85 26.531,26.438 0,7.937 -3.68,15.168 -9.656,20.13 -5.694,-15.654 -16.738,-29.892 -31.938,-41.781 4.392,-3.106 9.541,-4.781 15.06,-4.781 m -177,29.03 c 13.1,0 23.719,10.62 23.719,23.719 0,13.1 -10.62,23.719 -23.719,23.719 -13.1,0 -23.719,-10.62 -23.719,-23.719 0,-13.1 10.62,-23.719 23.719,-23.719 m 99,0 c 13.1,0 23.719,10.62 23.719,23.719 0,13.1 -10.62,23.719 -23.719,23.719 -13.1,0 -23.719,-10.62 -23.719,-23.719 0,-13.1 10.62,-23.719 23.719,-23.719 m -101.62,77.5 c 1.691,0.024 3.401,0.829 4.594,2.219 0.361,0.361 13.266,14.06 45.594,14.06 32.893,0 47.31,-14.249 47.44,-14.406 v -0.094 c 2.337,-2.29 6.163,-2.321 8.563,0 2.4,2.321 2.509,6.147 0.219,8.563 -0.706,0.722 -17.774,17.969 -56.22,17.969 -38.633,0 -54.17,-17.45 -54.813,-18.19 -2.18,-2.541 -1.791,-6.382 0.75,-8.563 0.941,-0.818 2.01,-1.395 3.156,-1.531 0.24,-0.028 0.477,-0.035 0.719,-0.031"
     id="path3048" />
</svg>
