<?xml version="1.0" encoding="UTF-8" standalone="no"?>
<!-- Created with Inkscape (http://www.inkscape.org/) -->

<svg
   xmlns:dc="http://purl.org/dc/elements/1.1/"
   xmlns:cc="http://creativecommons.org/ns#"
   xmlns:rdf="http://www.w3.org/1999/02/22-rdf-syntax-ns#"
   xmlns:svg="http://www.w3.org/2000/svg"
   xmlns="http://www.w3.org/2000/svg"
   xmlns:xlink="http://www.w3.org/1999/xlink"
   xmlns:inkscape="http://www.inkscape.org/namespaces/inkscape"
   version="1.1"
   width="100%"
   height="100%"
   viewBox="0 0 512 512"
   id="svg2">
  <metadata
     id="metadata70">
    <rdf:RDF>
      <cc:Work
         rdf:about="">
        <dc:format>image/svg+xml</dc:format>
        <dc:type
           rdf:resource="http://purl.org/dc/dcmitype/StillImage" />
        <dc:title />
      </cc:Work>
    </rdf:RDF>
  </metadata>
  <defs
     id="defs68">
    <linearGradient
       x1="45.447727"
       y1="92.539597"
       x2="45.447727"
       y2="7.0165396"
       id="linearGradient3381"
       xlink:href="#ButtonShadow"
       gradientUnits="userSpaceOnUse"
       gradientTransform="scale(1.0058652,0.994169)" />
    <linearGradient
       x1="45.447727"
       y1="92.539597"
       x2="45.447727"
       y2="7.0165396"
       id="ButtonShadow"
       gradientUnits="userSpaceOnUse"
       gradientTransform="scale(1.0058652,0.994169)">
      <stop
         id="stop3750"
         style="stop-color:#000000;stop-opacity:1"
         offset="0" />
      <stop
         id="stop3752"
         style="stop-color:#000000;stop-opacity:0.58823532"
         offset="1" />
    </linearGradient>
    <filter
       color-interpolation-filters="sRGB"
       id="filter3174">
      <feGaussianBlur
         stdDeviation="1.71"
         id="feGaussianBlur3176" />
    </filter>
    <clipPath
       id="clipPath8030">
      <path
         d="m 471.9456,253.05189 c 0,120.89699 -98.00565,218.90724 -218.90724,218.90724 -120.89698,0 -218.90723,-98.00566 -218.90723,-218.90724 0,-120.89698 98.00565,-218.907232 218.90723,-218.907232 120.89699,0 218.90724,98.005652 218.90724,218.907232"
         inkscape:connector-curvature="0"
         id="path8032"
         style="fill:#4c98de;fill-opacity:1;fill-rule:evenodd" />
    </clipPath>
  </defs>
  <path
     d="m 471.9456,253.05189 c 0,120.89699 -98.00565,218.90724 -218.90724,218.90724 -120.89698,0 -218.90723,-98.00566 -218.90723,-218.90724 0,-120.89698 98.00565,-218.907232 218.90723,-218.907232 120.89699,0 218.90724,98.005652 218.90724,218.907232"
     inkscape:connector-curvature="0"
     id="path8"
     style="fill:#4c98de;fill-opacity:1;fill-rule:evenodd" />
  <path
     d="M 256,1 C 115.17,1 1,115.17 1,256 1,396.83 115.17,511 256,511 396.83,511 511,396.83 511,256 511,115.17 396.83,1 256,1 m 8.827,44.931 c 120.9,0 218.9,98 218.9,218.9 0,120.9 -98,218.9 -218.9,218.9 -120.9,0 -218.93,-98 -218.93,-218.9 0,-120.9 98.03,-218.9 218.93,-218.9"
     inkscape:connector-curvature="0"
     id="path10"
     style="fill-opacity:0.06700003;fill-rule:evenodd" />
  <path
     d="M 256,4.43 C 117.06,4.43 4.43,117.06 4.43,256 4.43,394.94 117.06,507.57 256,507.57 394.94,507.57 507.57,394.94 507.57,256 507.57,117.06 394.94,4.43 256,4.43 m 5.885,38.556 c 120.9,0 218.9,98 218.9,218.9 0,120.9 -98,218.9 -218.9,218.9 -120.9,0 -218.93,-98 -218.93,-218.9 0,-120.9 98.03,-218.9 218.93,-218.9"
     inkscape:connector-curvature="0"
     id="path14"
     style="fill-opacity:0.12900002;fill-rule:evenodd" />
  <path
     d="M 256,8.36 C 119.23,8.36 8.36,119.23 8.36,256 8.36,392.77 119.23,503.64 256,503.64 392.77,503.64 503.64,392.77 503.64,256 503.64,119.23 392.77,8.36 256,8.36 m 2.942,31.691 c 120.9,0 218.9,98 218.9,218.9 0,120.9 -98,218.9 -218.9,218.9 -120.9,0 -218.93,-98 -218.93,-218.9 0,-120.9 98.03,-218.9 218.93,-218.9"
     inkscape:connector-curvature="0"
     id="path16"
     style="fill-opacity:0.12900002;fill-rule:evenodd" />
  <path
     d="M 253.04,7.86 C 117.62,7.86 7.85,117.64 7.85,253.05 c 0,135.42 109.78,245.19 245.19,245.19 135.42,0 245.19,-109.78 245.19,-245.19 C 498.23,117.63 388.45,7.86 253.04,7.86 z m 0,26.297 c 120.9,0 218.9,98 218.9,218.9 0,120.9 -98,218.9 -218.9,218.9 -120.9,0 -218.93,-98 -218.93,-218.9 0,-120.9 98.03,-218.9 218.93,-218.9 z"
     inkscape:connector-curvature="0"
     id="path18"
     style="fill:#ffffff;fill-rule:evenodd;stroke:#000000;stroke-width:4.90399981;stroke-opacity:0.31000001" />
  <text
     x="729.64001"
     y="231.35997"
     id="text20"
     style="font-size:129.22999573px;line-height:125%;letter-spacing:0;word-spacing:0;font-family:Gentium Book Basic">
    <tspan
       x="729.64001"
       y="231.35997"
       id="tspan22" />
  </text>
  <text
     x="378.90805"
     y="579.25812"
     transform="scale(4.0128205,0.24920128)"
     id="text24"
     style="font-size:46.95375824px;text-anchor:middle;font-family:Arial" />
  <text
     x="1310.91"
     y="151.35997"
     id="text26"
     style="font-size:129.22999573px;line-height:125%;letter-spacing:0;word-spacing:0;font-family:Gentium Book Basic">
    <tspan
       x="1310.91"
       y="151.35997"
       id="tspan28" />
  </text>
  <text
     x="523.75732"
     y="258.21997"
     transform="scale(4.0128205,0.24920128)"
     id="text30"
     style="font-size:46.95375824px;text-anchor:middle;font-family:Arial" />
  <text
     x="239.33"
     y="-29.900009"
     id="text32"
     style="font-size:129.22999573px;line-height:125%;letter-spacing:0;word-spacing:0;font-family:Gentium Book Basic">
    <tspan
       x="239.33"
       y="-29.900009"
       id="tspan34" />
  </text>
  <text
     x="256.71869"
     y="-469.1264"
     transform="scale(4.0128205,0.24920128)"
     id="text36"
     style="font-size:46.95375824px;text-anchor:middle;font-family:Arial" />
  <text
     x="1337.38"
     y="-246.37001"
     id="text38"
     style="font-size:129.22999573px;line-height:125%;letter-spacing:0;word-spacing:0;font-family:Gentium Book Basic">
    <tspan
       x="1337.38"
       y="-246.37001"
       id="tspan40" />
  </text>
  <text
     x="530.3573"
     y="-1337.802"
     transform="scale(4.0128205,0.24920128)"
     id="text42"
     style="font-size:46.95375824px;text-anchor:middle;font-family:Arial" />
  <text
     x="1918.65"
     y="-326.37"
     id="text44"
     style="font-size:129.22999573px;line-height:125%;letter-spacing:0;word-spacing:0;font-family:Gentium Book Basic">
    <tspan
       x="1918.65"
       y="-326.37"
       id="tspan46" />
  </text>
  <text
     x="675.20654"
     y="-1658.8303"
     transform="scale(4.0128205,0.24920128)"
     id="text48"
     style="font-size:46.95375824px;text-anchor:middle;font-family:Arial" />
  <text
     x="1529.53"
     y="-798.77002"
     id="text50"
     style="font-size:129.22999573px;line-height:125%;letter-spacing:0;word-spacing:0;font-family:Gentium Book Basic">
    <tspan
       x="1529.53"
       y="-798.77002"
       id="tspan52" />
  </text>
  <text
     x="578.237"
     y="-3554.4807"
     transform="scale(4.0128205,0.24920128)"
     id="text54"
     style="font-size:46.95375824px;text-anchor:middle;font-family:Arial" />
  <text
     x="2110.79"
     y="-878.78003"
     id="text56"
     style="font-size:129.22999573px;line-height:125%;letter-spacing:0;word-spacing:0;font-family:Gentium Book Basic">
    <tspan
       x="2110.79"
       y="-878.78003"
       id="tspan58" />
  </text>
  <text
     x="723.0863"
     y="-3875.519"
     transform="scale(4.0128205,0.24920128)"
     id="text60"
     style="font-size:46.95375824px;text-anchor:middle;font-family:Arial" />
  <text
     x="277.98999"
     y="535.94006"
     id="text62"
     style="font-size:208.33000183px;line-height:125%;letter-spacing:0;word-spacing:0;font-family:Gentium Book Basic">
    <tspan
       x="277.98999"
       y="535.94006"
       id="tspan64" />
  </text>
  <g
     transform="matrix(6.8098525,0,0,6.8098525,594.06026,95.106484)"
     id="g4082" />
  <rect
     width="86"
     height="85"
     rx="6"
     ry="6"
     x="5"
     y="7"
     transform="matrix(4.5768213,0,0,4.5768213,224.36712,2.49782)"
     id="rect3745"
     style="opacity:0.9;fill:url(#linearGradient3381);fill-opacity:1;fill-rule:nonzero;stroke:none;display:none;filter:url(#filter3174)" />
  <g
     transform="translate(-664.35614,-563.85712)"
     id="layer1" />
  <g
     transform="matrix(1.1,0,0,0.44444,-569.27508,232.8976)"
     id="g2036">
    <g
       transform="matrix(1.0526,0,0,1.2857,-1.2632,-13.429)"
       id="g3712"
       style="opacity:0.4" />
  </g>
  <g
     transform="translate(-566.87508,207.7866)"
     id="g3541" />
  <g
     transform="translate(-566.87508,207.7866)"
     id="g3536" />
  <g
     transform="translate(-1269.8755,-377.46327)"
     id="g4076">
    <g
       transform="translate(-926.66758,684.38448)"
       id="g4038" />
  </g>
  <text
     x="13.421365"
     y="260.31879"
     id="text4"
     style="font-size:129.22999573px;line-height:125%;letter-spacing:0;word-spacing:0;font-family:Gentium Book Basic">
    <tspan
       x="13.421365"
       y="260.31879"
       id="tspan6" />
  </text>
  <text
     x="200.42546"
     y="695.45349"
     transform="scale(4.0128205,0.24920128)"
     id="text8"
     style="font-size:46.95375824px;text-anchor:middle;font-family:Arial" />
  <text
     x="594.69141"
     y="180.3188"
     id="text10"
     style="font-size:129.22999573px;line-height:125%;letter-spacing:0;word-spacing:0;font-family:Gentium Book Basic">
    <tspan
       x="594.69141"
       y="180.3188"
       id="tspan12" />
  </text>
  <text
     x="345.27472"
     y="374.42514"
     transform="scale(4.0128205,0.24920128)"
     id="text14"
     style="font-size:46.95375824px;text-anchor:middle;font-family:Arial" />
  <text
     x="-476.88864"
     y="-0.94220006"
     id="text16"
     style="font-size:129.22999573px;line-height:125%;letter-spacing:0;word-spacing:0;font-family:Gentium Book Basic">
    <tspan
       x="-476.88864"
       y="-0.94220006"
       id="tspan18" />
  </text>
  <text
     x="78.236084"
     y="-352.93115"
     transform="scale(4.0128205,0.24920128)"
     id="text20-1"
     style="font-size:46.95375824px;text-anchor:middle;font-family:Arial" />
  <text
     x="621.16138"
     y="-217.41119"
     id="text22"
     style="font-size:129.22999573px;line-height:125%;letter-spacing:0;word-spacing:0;font-family:Gentium Book Basic">
    <tspan
       x="621.16138"
       y="-217.41119"
       id="tspan24" />
  </text>
  <text
     x="351.87466"
     y="-1221.5968"
     transform="scale(4.0128205,0.24920128)"
     id="text26-8"
     style="font-size:46.95375824px;text-anchor:middle;font-family:Arial" />
  <text
     x="1202.4314"
     y="-297.4212"
     id="text28"
     style="font-size:129.22999573px;line-height:125%;letter-spacing:0;word-spacing:0;font-family:Gentium Book Basic">
    <tspan
       x="1202.4314"
       y="-297.4212"
       id="tspan30" />
  </text>
  <text
     x="496.72397"
     y="-1542.635"
     transform="scale(4.0128205,0.24920128)"
     id="text32-5"
     style="font-size:46.95375824px;text-anchor:middle;font-family:Arial" />
  <text
     x="813.3114"
     y="-769.82123"
     id="text34"
     style="font-size:129.22999573px;line-height:125%;letter-spacing:0;word-spacing:0;font-family:Gentium Book Basic">
    <tspan
       x="813.3114"
       y="-769.82123"
       id="tspan36" />
  </text>
  <text
     x="399.75443"
     y="-3438.2854"
     transform="scale(4.0128205,0.24920128)"
     id="text38-3"
     style="font-size:46.95375824px;text-anchor:middle;font-family:Arial" />
  <text
     x="1394.5714"
     y="-849.82123"
     id="text40"
     style="font-size:129.22999573px;line-height:125%;letter-spacing:0;word-spacing:0;font-family:Gentium Book Basic">
    <tspan
       x="1394.5714"
       y="-849.82123"
       id="tspan42" />
  </text>
  <text
     x="544.6037"
     y="-3759.3137"
     transform="scale(4.0128205,0.24920128)"
     id="text44-5"
     style="font-size:46.95375824px;text-anchor:middle;font-family:Arial" />
  <text
     x="-438.22867"
     y="564.8988"
     id="text46"
     style="font-size:208.33000183px;line-height:125%;letter-spacing:0;word-spacing:0;font-family:Gentium Book Basic">
    <tspan
       x="-438.22867"
       y="564.8988"
       id="tspan48" />
  </text>
  <text
     x="13.421365"
     y="260.31879"
     id="text66"
     style="font-size:129.22999573px;line-height:125%;letter-spacing:0;word-spacing:0;font-family:Gentium Book Basic">
    <tspan
       x="13.421365"
       y="260.31879"
       id="tspan68" />
  </text>
  <text
     x="200.42546"
     y="695.45349"
     transform="scale(4.0128205,0.24920128)"
     id="text70"
     style="font-size:46.95375824px;text-anchor:middle;font-family:Arial" />
  <text
     x="594.69141"
     y="180.3188"
     id="text72"
     style="font-size:129.22999573px;line-height:125%;letter-spacing:0;word-spacing:0;font-family:Gentium Book Basic">
    <tspan
       x="594.69141"
       y="180.3188"
       id="tspan74" />
  </text>
  <text
     x="345.27472"
     y="374.42514"
     transform="scale(4.0128205,0.24920128)"
     id="text76"
     style="font-size:46.95375824px;text-anchor:middle;font-family:Arial" />
  <text
     x="-476.88864"
     y="-0.94220006"
     id="text78"
     style="font-size:129.22999573px;line-height:125%;letter-spacing:0;word-spacing:0;font-family:Gentium Book Basic">
    <tspan
       x="-476.88864"
       y="-0.94220006"
       id="tspan80" />
  </text>
  <text
     x="78.236084"
     y="-352.93115"
     transform="scale(4.0128205,0.24920128)"
     id="text82"
     style="font-size:46.95375824px;text-anchor:middle;font-family:Arial" />
  <text
     x="621.16138"
     y="-217.41119"
     id="text84"
     style="font-size:129.22999573px;line-height:125%;letter-spacing:0;word-spacing:0;font-family:Gentium Book Basic">
    <tspan
       x="621.16138"
       y="-217.41119"
       id="tspan86" />
  </text>
  <text
     x="351.87466"
     y="-1221.5868"
     transform="scale(4.0128205,0.24920128)"
     id="text88"
     style="font-size:46.95375824px;text-anchor:middle;font-family:Arial" />
  <text
     x="1202.4314"
     y="-297.4212"
     id="text90"
     style="font-size:129.22999573px;line-height:125%;letter-spacing:0;word-spacing:0;font-family:Gentium Book Basic">
    <tspan
       x="1202.4314"
       y="-297.4212"
       id="tspan92" />
  </text>
  <text
     x="496.72397"
     y="-1542.625"
     transform="scale(4.0128205,0.24920128)"
     id="text94"
     style="font-size:46.95375824px;text-anchor:middle;font-family:Arial" />
  <text
     x="813.3114"
     y="-769.82123"
     id="text96"
     style="font-size:129.22999573px;line-height:125%;letter-spacing:0;word-spacing:0;font-family:Gentium Book Basic">
    <tspan
       x="813.3114"
       y="-769.82123"
       id="tspan98" />
  </text>
  <text
     x="399.75443"
     y="-3438.2654"
     transform="scale(4.0128205,0.24920128)"
     id="text100"
     style="font-size:46.95375824px;text-anchor:middle;font-family:Arial" />
  <text
     x="1394.5714"
     y="-849.82123"
     id="text102"
     style="font-size:129.22999573px;line-height:125%;letter-spacing:0;word-spacing:0;font-family:Gentium Book Basic">
    <tspan
       x="1394.5714"
       y="-849.82123"
       id="tspan104" />
  </text>
  <text
     x="544.6037"
     y="-3759.2937"
     transform="scale(4.0128205,0.24920128)"
     id="text106"
     style="font-size:46.95375824px;text-anchor:middle;font-family:Arial" />
  <text
     x="-438.22867"
     y="564.8988"
     id="text108"
     style="font-size:208.33000183px;line-height:125%;letter-spacing:0;word-spacing:0;font-family:Gentium Book Basic">
    <tspan
       x="-438.22867"
       y="564.8988"
       id="tspan110" />
  </text>
  <g
     clip-path="url(#clipPath8030)"
     id="g7747"
     style="opacity:0.25;fill:#000000;fill-opacity:1;stroke:none">
    <path
       d="m 202.91041,143.15962 c -51.03453,0 -92.39631,41.36176 -92.39631,92.3963 l 388.90873,388.90873 c 0,-51.03454 41.36178,-92.3963 92.39631,-92.3963 z"
       inkscape:connector-curvature="0"
       id="path7749"
       style="fill:#000000" />
    <path
       d="m 110.5141,235.55592 c 0,2.87027 0.16934,5.70444 0.4254,8.50795 L 499.84823,632.9726 c -0.25606,-2.80351 -0.4254,-5.63768 -0.4254,-8.50795 z"
       inkscape:connector-curvature="0"
       id="path7751"
       style="fill:#000000" />
    <path
       d="M 110.9395,244.06387 C 93.298471,252.78079 81.246754,270.2619 81.246754,290.43219 L 470.15548,679.34092 c 0,-20.17029 12.05172,-37.6514 29.69275,-46.36832 z"
       inkscape:connector-curvature="0"
       id="path7753"
       style="fill:#000000" />
    <path
       d="m 81.246754,290.43219 c 0,13.89719 5.748753,26.51221 15.099858,35.86332 L 485.25534,715.20424 c -9.3511,-9.35111 -15.09986,-21.96613 -15.09986,-35.86332 z"
       inkscape:connector-curvature="0"
       id="path7755"
       style="fill:#000000" />
    <path
       d="m 96.346612,326.29551 c 5.966008,5.96601 13.398328,10.60345 21.739558,13.39769 L 506.9949,728.60193 c -8.34123,-2.79424 -15.77355,-7.43168 -21.73956,-13.39769 z"
       inkscape:connector-curvature="0"
       id="path7757"
       style="fill:#000000" />
    <path
       d="m 118.08617,339.6932 277.61433,0 388.90873,388.90873 -277.61433,0 z"
       inkscape:connector-curvature="0"
       id="path7759"
       style="fill:#000000" />
    <path
       d="m 395.7005,339.6932 c 20.40346,-7.17401 35.05275,-26.50279 35.05275,-49.26101 l 388.90873,388.90873 c 0,22.75822 -14.64929,42.087 -35.05275,49.26101 z"
       inkscape:connector-curvature="0"
       id="path7761"
       style="fill:#000000" />
    <path
       d="m 430.75325,290.43219 c 0,-14.36505 -5.82742,-27.35128 -15.25639,-36.78025 l 388.90873,388.90873 c 9.42897,9.42897 15.25639,22.4152 15.25639,36.78025 z"
       inkscape:connector-curvature="0"
       id="path7763"
       style="fill:#000000" />
    <path
       d="m 415.49686,253.65194 c -5.96801,-5.968 -13.37885,-10.5109 -21.66812,-13.07632 l 388.90873,388.90873 c 8.28927,2.56542 15.70011,7.10832 21.66812,13.07632 z"
       inkscape:connector-curvature="0"
       id="path7765"
       style="fill:#000000" />
    <path
       d="m 393.82874,240.57562 c 0.52018,-3.31884 0.68065,-6.74466 0.68065,-10.20955 L 783.41812,619.2748 c 0,3.46489 -0.16047,6.89071 -0.68065,10.20955 z"
       inkscape:connector-curvature="0"
       id="path7767"
       style="fill:#000000" />
    <path
       d="m 394.50939,230.36607 c 0,-18.02066 -7.30366,-34.33465 -19.11248,-46.14347 l 388.90873,388.90873 c 11.80882,11.80882 19.11248,28.12281 19.11248,46.14347 z"
       inkscape:connector-curvature="0"
       id="path7769"
       style="fill:#000000" />
    <path
       d="M 375.39691,184.2226 C 363.58809,172.41378 347.2741,165.11012 329.25343,165.11012 l 388.90873,388.90873 c 18.02067,0 34.33466,7.30366 46.14348,19.11248 z"
       inkscape:connector-curvature="0"
       id="path7771"
       style="fill:#000000" />
    <path
       d="m 329.25343,165.11012 c -19.1028,0 -36.2206,8.18838 -48.15498,21.26988 l 388.90873,388.90873 c 11.93438,-13.0815 29.05218,-21.26988 48.15498,-21.26988 z"
       inkscape:connector-curvature="0"
       id="path7773"
       style="fill:#000000" />
    <path
       d="m 281.09845,186.38 c -3.69657,-5.86139 -8.03228,-11.2803 -12.90949,-16.1575 l 388.90873,388.90873 c 4.87721,4.8772 9.21291,10.29611 12.90949,16.1575 z"
       inkscape:connector-curvature="0"
       id="path7775"
       style="fill:#000000" />
    <path
       d="m 268.18896,170.2225 c -16.71134,-16.71134 -39.78005,-27.06288 -65.27855,-27.06288 l 388.90873,388.90873 c 25.4985,0 48.56721,10.35154 65.27855,27.06288 z"
       inkscape:connector-curvature="0"
       id="path7777"
       style="fill:#000000" />
    <path
       d="m 166.41131,172.93743 c 9.51491,0 17.18606,7.67115 17.18606,17.18606 L 572.5061,579.03222 c 0,-9.51491 -7.67115,-17.18606 -17.18606,-17.18606 z"
       inkscape:connector-curvature="0"
       id="path7779"
       style="fill:#000000" />
    <path
       d="m 183.59737,190.12349 c 0,9.5149 -7.67115,17.27112 -17.18606,17.27112 l 388.90873,388.90873 c 9.51491,0 17.18606,-7.75622 17.18606,-17.27112 z"
       inkscape:connector-curvature="0"
       id="path7781"
       style="fill:#000000" />
    <path
       d="m 166.41131,207.39461 c -4.75746,0 -9.07524,-1.93906 -12.20366,-5.06747 l 388.90873,388.90872 c 3.12842,3.12842 7.4462,5.06748 12.20366,5.06748 z"
       inkscape:connector-curvature="0"
       id="path7783"
       style="fill:#000000" />
    <path
       d="m 154.20765,202.32714 c -3.12842,-3.12842 -5.06747,-7.4462 -5.06747,-12.20365 l 388.90873,388.90873 c 0,4.75745 1.93905,9.07523 5.06747,12.20364 z"
       inkscape:connector-curvature="0"
       id="path7785"
       style="fill:#000000" />
    <path
       d="m 149.14018,190.12349 c 0,-9.51491 7.75622,-17.18606 17.27113,-17.18606 l 388.90873,388.90873 c -9.51491,0 -17.27113,7.67115 -17.27113,17.18606 z"
       inkscape:connector-curvature="0"
       id="path7787"
       style="fill:#000000" />
    <path
       d="m 256.17016,199.56731 c 16.31195,0 31.09051,6.61191 41.78243,17.30384 L 686.86132,605.77988 C 676.1694,595.08795 661.39084,588.47604 645.07889,588.47604 z"
       inkscape:connector-curvature="0"
       id="path7789"
       style="fill:#000000" />
    <path
       d="m 297.95259,216.87115 c 10.66404,10.66404 17.26273,25.38683 17.26273,41.65624 l 388.90873,388.90873 c 0,-16.26941 -6.59869,-30.9922 -17.26273,-41.65624 z"
       inkscape:connector-curvature="0"
       id="path7791"
       style="fill:#000000" />
    <path
       d="m 315.21532,258.52739 c 0,32.58135 -26.46381,59.04515 -59.04516,59.04515 l 388.90873,388.90873 c 32.58135,0 59.04516,-26.4638 59.04516,-59.04515 z"
       inkscape:connector-curvature="0"
       id="path7793"
       style="fill:#000000" />
    <path
       d="m 256.17016,317.57254 c -16.26941,0 -30.9922,-6.59868 -41.65624,-17.26272 l 388.90873,388.90873 c 10.66404,10.66404 25.38683,17.26272 41.65624,17.26272 z"
       inkscape:connector-curvature="0"
       id="path7795"
       style="fill:#000000" />
    <path
       d="M 214.51392,300.30982 C 203.822,289.6179 197.21009,274.83934 197.21009,258.52739 l 388.90873,388.90873 c 0,16.31195 6.61191,31.09051 17.30383,41.78243 z"
       inkscape:connector-curvature="0"
       id="path7797"
       style="fill:#000000" />
    <path
       d="m 197.21009,258.52739 c 0,-32.58136 26.37871,-58.96008 58.96007,-58.96008 l 388.90873,388.90873 c -32.58136,0 -58.96007,26.37872 -58.96007,58.96008 z"
       inkscape:connector-curvature="0"
       id="path7799"
       style="fill:#000000" />
    <path
       d="m 256.17016,221.00733 c -20.7598,0 -37.52005,16.76026 -37.52005,37.52006 l 388.90873,388.90873 c 0,-20.7598 16.76025,-37.52006 37.52005,-37.52006 z"
       inkscape:connector-curvature="0"
       id="path7801"
       style="fill:#000000" />
    <path
       d="m 218.65011,258.52739 c 0,10.40117 4.20725,19.8197 11.01684,26.62929 l 388.90873,388.90873 c -6.80959,-6.80959 -11.01684,-16.22812 -11.01684,-26.62929 z"
       inkscape:connector-curvature="0"
       id="path7803"
       style="fill:#000000" />
    <path
       d="m 229.66695,285.15668 c 6.78174,6.78174 16.14458,10.97583 26.50321,10.97583 l 388.90873,388.90873 c -10.35863,0 -19.72147,-4.19409 -26.50321,-10.97583 z"
       inkscape:connector-curvature="0"
       id="path7805"
       style="fill:#000000" />
    <path
       d="m 256.17016,296.13251 c 20.7598,0 37.60514,-16.84532 37.60514,-37.60512 l 388.90873,388.90873 c 0,20.7598 -16.84534,37.60512 -37.60514,37.60512 z"
       inkscape:connector-curvature="0"
       id="path7807"
       style="fill:#000000" />
    <path
       d="m 293.7753,258.52739 c 0,-10.35863 -4.19409,-19.72147 -10.97584,-26.50321 l 388.90873,388.90873 c 6.78175,6.78174 10.97584,16.14458 10.97584,26.50321 z"
       inkscape:connector-curvature="0"
       id="path7809"
       style="fill:#000000" />
    <path
       d="m 282.79946,232.02418 c -6.80959,-6.8096 -16.22813,-11.01685 -26.6293,-11.01685 l 388.90873,388.90873 c 10.40117,0 19.81971,4.20725 26.6293,11.01685 z"
       inkscape:connector-curvature="0"
       id="path7811"
       style="fill:#000000" />
  </g>
  <path
     d="m 202.91041,143.15962 c -51.03453,0 -92.39631,41.36176 -92.39631,92.3963 0,2.87027 0.16934,5.70444 0.4254,8.50795 -17.641029,8.71692 -29.692746,26.19803 -29.692746,46.36832 0,22.7636 15.424159,42.08709 36.839416,49.26101 l 277.61433,0 c 20.40346,-7.17401 35.05275,-26.50279 35.05275,-49.26101 0,-23.4573 -15.53884,-43.238 -36.92451,-49.85657 0.52018,-3.31884 0.68065,-6.74466 0.68065,-10.20955 0,-36.04132 -29.21463,-65.25595 -65.25596,-65.25595 -19.1028,0 -36.2206,8.18838 -48.15498,21.26988 -16.36259,-25.94495 -45.24781,-43.22038 -78.18804,-43.22038 z m -36.4991,29.77781 c 9.51491,0 17.18606,7.67115 17.18606,17.18606 0,9.5149 -7.67115,17.27112 -17.18606,17.27112 -9.51491,0 -17.27113,-7.75622 -17.27113,-17.27112 0,-9.51491 7.75622,-17.18606 17.27113,-17.18606 z m 89.75885,26.62988 c 32.58135,0 59.04516,26.37872 59.04516,58.96008 0,32.58135 -26.46381,59.04515 -59.04516,59.04515 -32.58136,0 -58.96007,-26.4638 -58.96007,-59.04515 0,-32.58136 26.37871,-58.96008 58.96007,-58.96008 z m 0,21.44002 c -20.7598,0 -37.52005,16.76026 -37.52005,37.52006 0,20.7598 16.76025,37.60512 37.52005,37.60512 20.7598,0 37.60514,-16.84532 37.60514,-37.60512 0,-20.7598 -16.84534,-37.52006 -37.60514,-37.52006 z"
     inkscape:connector-curvature="0"
     id="path7530"
     style="fill:#ffffff;fill-opacity:1;stroke:none" />
</svg>
