<?xml version="1.0" encoding="UTF-8" standalone="no"?>
<!-- Created with Inkscape (http://www.inkscape.org/) -->

<svg
   xmlns:dc="http://purl.org/dc/elements/1.1/"
   xmlns:cc="http://creativecommons.org/ns#"
   xmlns:rdf="http://www.w3.org/1999/02/22-rdf-syntax-ns#"
   xmlns:svg="http://www.w3.org/2000/svg"
   xmlns="http://www.w3.org/2000/svg"
   xmlns:xlink="http://www.w3.org/1999/xlink"
   xmlns:inkscape="http://www.inkscape.org/namespaces/inkscape"
   version="1.1"
   width="100%"
   height="100%"
   viewBox="0 0 512 512"
   id="svg2">
  <metadata
     id="metadata70">
    <rdf:RDF>
      <cc:Work
         rdf:about="">
        <dc:format>image/svg+xml</dc:format>
        <dc:type
           rdf:resource="http://purl.org/dc/dcmitype/StillImage" />
        <dc:title />
      </cc:Work>
    </rdf:RDF>
  </metadata>
  <defs
     id="defs68">
    <linearGradient
       x1="45.447727"
       y1="92.539597"
       x2="45.447727"
       y2="7.0165396"
       id="linearGradient3381"
       xlink:href="#ButtonShadow"
       gradientUnits="userSpaceOnUse"
       gradientTransform="scale(1.0058652,0.994169)" />
    <linearGradient
       x1="45.447727"
       y1="92.539597"
       x2="45.447727"
       y2="7.0165396"
       id="ButtonShadow"
       gradientUnits="userSpaceOnUse"
       gradientTransform="scale(1.0058652,0.994169)">
      <stop
         id="stop3750"
         style="stop-color:#000000;stop-opacity:1"
         offset="0" />
      <stop
         id="stop3752"
         style="stop-color:#000000;stop-opacity:0.58823532"
         offset="1" />
    </linearGradient>
    <filter
       color-interpolation-filters="sRGB"
       id="filter3174">
      <feGaussianBlur
         stdDeviation="1.71"
         id="feGaussianBlur3176" />
    </filter>
    <clipPath
       id="clipPath9279">
      <path
         d="m 471.9456,253.05189 c 0,120.89699 -98.00565,218.90724 -218.90724,218.90724 -120.89698,0 -218.90723,-98.00566 -218.90723,-218.90724 0,-120.89698 98.00565,-218.907232 218.90723,-218.907232 120.89699,0 218.90724,98.005652 218.90724,218.907232"
         inkscape:connector-curvature="0"
         id="path9281"
         style="fill:#d23638;fill-opacity:1;fill-rule:evenodd" />
    </clipPath>
  </defs>
  <path
     d="m 471.9456,253.05189 c 0,120.89699 -98.00565,218.90724 -218.90724,218.90724 -120.89698,0 -218.90723,-98.00566 -218.90723,-218.90724 0,-120.89698 98.00565,-218.907232 218.90723,-218.907232 120.89699,0 218.90724,98.005652 218.90724,218.907232"
     inkscape:connector-curvature="0"
     id="path8"
     style="fill:#d23638;fill-opacity:1;fill-rule:evenodd" />
  <path
     d="M 256,1 C 115.17,1 1,115.17 1,256 1,396.83 115.17,511 256,511 396.83,511 511,396.83 511,256 511,115.17 396.83,1 256,1 m 8.827,44.931 c 120.9,0 218.9,98 218.9,218.9 0,120.9 -98,218.9 -218.9,218.9 -120.9,0 -218.93,-98 -218.93,-218.9 0,-120.9 98.03,-218.9 218.93,-218.9"
     inkscape:connector-curvature="0"
     id="path10"
     style="fill-opacity:0.06700003;fill-rule:evenodd" />
  <path
     d="M 256,4.43 C 117.06,4.43 4.43,117.06 4.43,256 4.43,394.94 117.06,507.57 256,507.57 394.94,507.57 507.57,394.94 507.57,256 507.57,117.06 394.94,4.43 256,4.43 m 5.885,38.556 c 120.9,0 218.9,98 218.9,218.9 0,120.9 -98,218.9 -218.9,218.9 -120.9,0 -218.93,-98 -218.93,-218.9 0,-120.9 98.03,-218.9 218.93,-218.9"
     inkscape:connector-curvature="0"
     id="path14"
     style="fill-opacity:0.12900002;fill-rule:evenodd" />
  <path
     d="M 256,8.36 C 119.23,8.36 8.36,119.23 8.36,256 8.36,392.77 119.23,503.64 256,503.64 392.77,503.64 503.64,392.77 503.64,256 503.64,119.23 392.77,8.36 256,8.36 m 2.942,31.691 c 120.9,0 218.9,98 218.9,218.9 0,120.9 -98,218.9 -218.9,218.9 -120.9,0 -218.93,-98 -218.93,-218.9 0,-120.9 98.03,-218.9 218.93,-218.9"
     inkscape:connector-curvature="0"
     id="path16"
     style="fill-opacity:0.12900002;fill-rule:evenodd" />
  <path
     d="M 253.04,7.86 C 117.62,7.86 7.85,117.64 7.85,253.05 c 0,135.42 109.78,245.19 245.19,245.19 135.42,0 245.19,-109.78 245.19,-245.19 C 498.23,117.63 388.45,7.86 253.04,7.86 z m 0,26.297 c 120.9,0 218.9,98 218.9,218.9 0,120.9 -98,218.9 -218.9,218.9 -120.9,0 -218.93,-98 -218.93,-218.9 0,-120.9 98.03,-218.9 218.93,-218.9 z"
     inkscape:connector-curvature="0"
     id="path18"
     style="fill:#ffffff;fill-rule:evenodd;stroke:#000000;stroke-width:4.90399981;stroke-opacity:0.31000001" />
  <text
     x="729.64001"
     y="231.35997"
     id="text20"
     style="font-size:129.22999573px;line-height:125%;letter-spacing:0;word-spacing:0;font-family:Gentium Book Basic">
    <tspan
       x="729.64001"
       y="231.35997"
       id="tspan22" />
  </text>
  <text
     x="378.90805"
     y="579.25812"
     transform="scale(4.0128205,0.24920128)"
     id="text24"
     style="font-size:46.95375824px;text-anchor:middle;font-family:Arial" />
  <text
     x="1310.91"
     y="151.35997"
     id="text26"
     style="font-size:129.22999573px;line-height:125%;letter-spacing:0;word-spacing:0;font-family:Gentium Book Basic">
    <tspan
       x="1310.91"
       y="151.35997"
       id="tspan28" />
  </text>
  <text
     x="523.75732"
     y="258.21997"
     transform="scale(4.0128205,0.24920128)"
     id="text30"
     style="font-size:46.95375824px;text-anchor:middle;font-family:Arial" />
  <text
     x="239.33"
     y="-29.900009"
     id="text32"
     style="font-size:129.22999573px;line-height:125%;letter-spacing:0;word-spacing:0;font-family:Gentium Book Basic">
    <tspan
       x="239.33"
       y="-29.900009"
       id="tspan34" />
  </text>
  <text
     x="256.71869"
     y="-469.1264"
     transform="scale(4.0128205,0.24920128)"
     id="text36"
     style="font-size:46.95375824px;text-anchor:middle;font-family:Arial" />
  <text
     x="1337.38"
     y="-246.37001"
     id="text38"
     style="font-size:129.22999573px;line-height:125%;letter-spacing:0;word-spacing:0;font-family:Gentium Book Basic">
    <tspan
       x="1337.38"
       y="-246.37001"
       id="tspan40" />
  </text>
  <text
     x="530.3573"
     y="-1337.802"
     transform="scale(4.0128205,0.24920128)"
     id="text42"
     style="font-size:46.95375824px;text-anchor:middle;font-family:Arial" />
  <text
     x="1918.65"
     y="-326.37"
     id="text44"
     style="font-size:129.22999573px;line-height:125%;letter-spacing:0;word-spacing:0;font-family:Gentium Book Basic">
    <tspan
       x="1918.65"
       y="-326.37"
       id="tspan46" />
  </text>
  <text
     x="675.20654"
     y="-1658.8303"
     transform="scale(4.0128205,0.24920128)"
     id="text48"
     style="font-size:46.95375824px;text-anchor:middle;font-family:Arial" />
  <text
     x="1529.53"
     y="-798.77002"
     id="text50"
     style="font-size:129.22999573px;line-height:125%;letter-spacing:0;word-spacing:0;font-family:Gentium Book Basic">
    <tspan
       x="1529.53"
       y="-798.77002"
       id="tspan52" />
  </text>
  <text
     x="578.237"
     y="-3554.4807"
     transform="scale(4.0128205,0.24920128)"
     id="text54"
     style="font-size:46.95375824px;text-anchor:middle;font-family:Arial" />
  <text
     x="2110.79"
     y="-878.78003"
     id="text56"
     style="font-size:129.22999573px;line-height:125%;letter-spacing:0;word-spacing:0;font-family:Gentium Book Basic">
    <tspan
       x="2110.79"
       y="-878.78003"
       id="tspan58" />
  </text>
  <text
     x="723.0863"
     y="-3875.519"
     transform="scale(4.0128205,0.24920128)"
     id="text60"
     style="font-size:46.95375824px;text-anchor:middle;font-family:Arial" />
  <text
     x="277.98999"
     y="535.94006"
     id="text62"
     style="font-size:208.33000183px;line-height:125%;letter-spacing:0;word-spacing:0;font-family:Gentium Book Basic">
    <tspan
       x="277.98999"
       y="535.94006"
       id="tspan64" />
  </text>
  <g
     transform="matrix(6.8098525,0,0,6.8098525,594.06026,95.106484)"
     id="g4082" />
  <rect
     width="86"
     height="85"
     rx="6"
     ry="6"
     x="5"
     y="7"
     transform="matrix(4.5768213,0,0,4.5768213,224.36712,2.49782)"
     id="rect3745"
     style="opacity:0.9;fill:url(#linearGradient3381);fill-opacity:1;fill-rule:nonzero;stroke:none;display:none;filter:url(#filter3174)" />
  <g
     transform="translate(-664.35614,-563.85712)"
     id="layer1" />
  <g
     transform="matrix(1.1,0,0,0.44444,-569.27508,232.8976)"
     id="g2036">
    <g
       transform="matrix(1.0526,0,0,1.2857,-1.2632,-13.429)"
       id="g3712"
       style="opacity:0.4" />
  </g>
  <g
     transform="translate(-566.87508,207.7866)"
     id="g3541" />
  <g
     transform="translate(-566.87508,207.7866)"
     id="g3536" />
  <g
     transform="translate(-1269.8755,-377.46327)"
     id="g4076">
    <g
       transform="translate(-926.66758,684.38448)"
       id="g4038" />
  </g>
  <text
     x="13.421365"
     y="260.31879"
     id="text4"
     style="font-size:129.22999573px;line-height:125%;letter-spacing:0;word-spacing:0;font-family:Gentium Book Basic">
    <tspan
       x="13.421365"
       y="260.31879"
       id="tspan6" />
  </text>
  <text
     x="200.42546"
     y="695.45349"
     transform="scale(4.0128205,0.24920128)"
     id="text8"
     style="font-size:46.95375824px;text-anchor:middle;font-family:Arial" />
  <text
     x="594.69141"
     y="180.3188"
     id="text10"
     style="font-size:129.22999573px;line-height:125%;letter-spacing:0;word-spacing:0;font-family:Gentium Book Basic">
    <tspan
       x="594.69141"
       y="180.3188"
       id="tspan12" />
  </text>
  <text
     x="345.27472"
     y="374.42514"
     transform="scale(4.0128205,0.24920128)"
     id="text14"
     style="font-size:46.95375824px;text-anchor:middle;font-family:Arial" />
  <text
     x="-476.88864"
     y="-0.94220006"
     id="text16"
     style="font-size:129.22999573px;line-height:125%;letter-spacing:0;word-spacing:0;font-family:Gentium Book Basic">
    <tspan
       x="-476.88864"
       y="-0.94220006"
       id="tspan18" />
  </text>
  <text
     x="78.236084"
     y="-352.93115"
     transform="scale(4.0128205,0.24920128)"
     id="text20-1"
     style="font-size:46.95375824px;text-anchor:middle;font-family:Arial" />
  <text
     x="621.16138"
     y="-217.41119"
     id="text22"
     style="font-size:129.22999573px;line-height:125%;letter-spacing:0;word-spacing:0;font-family:Gentium Book Basic">
    <tspan
       x="621.16138"
       y="-217.41119"
       id="tspan24" />
  </text>
  <text
     x="351.87466"
     y="-1221.5968"
     transform="scale(4.0128205,0.24920128)"
     id="text26-8"
     style="font-size:46.95375824px;text-anchor:middle;font-family:Arial" />
  <text
     x="1202.4314"
     y="-297.4212"
     id="text28"
     style="font-size:129.22999573px;line-height:125%;letter-spacing:0;word-spacing:0;font-family:Gentium Book Basic">
    <tspan
       x="1202.4314"
       y="-297.4212"
       id="tspan30" />
  </text>
  <text
     x="496.72397"
     y="-1542.635"
     transform="scale(4.0128205,0.24920128)"
     id="text32-5"
     style="font-size:46.95375824px;text-anchor:middle;font-family:Arial" />
  <text
     x="813.3114"
     y="-769.82123"
     id="text34"
     style="font-size:129.22999573px;line-height:125%;letter-spacing:0;word-spacing:0;font-family:Gentium Book Basic">
    <tspan
       x="813.3114"
       y="-769.82123"
       id="tspan36" />
  </text>
  <text
     x="399.75443"
     y="-3438.2854"
     transform="scale(4.0128205,0.24920128)"
     id="text38-3"
     style="font-size:46.95375824px;text-anchor:middle;font-family:Arial" />
  <text
     x="1394.5714"
     y="-849.82123"
     id="text40"
     style="font-size:129.22999573px;line-height:125%;letter-spacing:0;word-spacing:0;font-family:Gentium Book Basic">
    <tspan
       x="1394.5714"
       y="-849.82123"
       id="tspan42" />
  </text>
  <text
     x="544.6037"
     y="-3759.3137"
     transform="scale(4.0128205,0.24920128)"
     id="text44-5"
     style="font-size:46.95375824px;text-anchor:middle;font-family:Arial" />
  <text
     x="-438.22867"
     y="564.8988"
     id="text46"
     style="font-size:208.33000183px;line-height:125%;letter-spacing:0;word-spacing:0;font-family:Gentium Book Basic">
    <tspan
       x="-438.22867"
       y="564.8988"
       id="tspan48" />
  </text>
  <text
     x="13.421365"
     y="260.31879"
     id="text66"
     style="font-size:129.22999573px;line-height:125%;letter-spacing:0;word-spacing:0;font-family:Gentium Book Basic">
    <tspan
       x="13.421365"
       y="260.31879"
       id="tspan68" />
  </text>
  <text
     x="200.42546"
     y="695.45349"
     transform="scale(4.0128205,0.24920128)"
     id="text70"
     style="font-size:46.95375824px;text-anchor:middle;font-family:Arial" />
  <text
     x="594.69141"
     y="180.3188"
     id="text72"
     style="font-size:129.22999573px;line-height:125%;letter-spacing:0;word-spacing:0;font-family:Gentium Book Basic">
    <tspan
       x="594.69141"
       y="180.3188"
       id="tspan74" />
  </text>
  <text
     x="345.27472"
     y="374.42514"
     transform="scale(4.0128205,0.24920128)"
     id="text76"
     style="font-size:46.95375824px;text-anchor:middle;font-family:Arial" />
  <text
     x="-476.88864"
     y="-0.94220006"
     id="text78"
     style="font-size:129.22999573px;line-height:125%;letter-spacing:0;word-spacing:0;font-family:Gentium Book Basic">
    <tspan
       x="-476.88864"
       y="-0.94220006"
       id="tspan80" />
  </text>
  <text
     x="78.236084"
     y="-352.93115"
     transform="scale(4.0128205,0.24920128)"
     id="text82"
     style="font-size:46.95375824px;text-anchor:middle;font-family:Arial" />
  <text
     x="621.16138"
     y="-217.41119"
     id="text84"
     style="font-size:129.22999573px;line-height:125%;letter-spacing:0;word-spacing:0;font-family:Gentium Book Basic">
    <tspan
       x="621.16138"
       y="-217.41119"
       id="tspan86" />
  </text>
  <text
     x="351.87466"
     y="-1221.5868"
     transform="scale(4.0128205,0.24920128)"
     id="text88"
     style="font-size:46.95375824px;text-anchor:middle;font-family:Arial" />
  <text
     x="1202.4314"
     y="-297.4212"
     id="text90"
     style="font-size:129.22999573px;line-height:125%;letter-spacing:0;word-spacing:0;font-family:Gentium Book Basic">
    <tspan
       x="1202.4314"
       y="-297.4212"
       id="tspan92" />
  </text>
  <text
     x="496.72397"
     y="-1542.625"
     transform="scale(4.0128205,0.24920128)"
     id="text94"
     style="font-size:46.95375824px;text-anchor:middle;font-family:Arial" />
  <text
     x="813.3114"
     y="-769.82123"
     id="text96"
     style="font-size:129.22999573px;line-height:125%;letter-spacing:0;word-spacing:0;font-family:Gentium Book Basic">
    <tspan
       x="813.3114"
       y="-769.82123"
       id="tspan98" />
  </text>
  <text
     x="399.75443"
     y="-3438.2654"
     transform="scale(4.0128205,0.24920128)"
     id="text100"
     style="font-size:46.95375824px;text-anchor:middle;font-family:Arial" />
  <text
     x="1394.5714"
     y="-849.82123"
     id="text102"
     style="font-size:129.22999573px;line-height:125%;letter-spacing:0;word-spacing:0;font-family:Gentium Book Basic">
    <tspan
       x="1394.5714"
       y="-849.82123"
       id="tspan104" />
  </text>
  <text
     x="544.6037"
     y="-3759.2937"
     transform="scale(4.0128205,0.24920128)"
     id="text106"
     style="font-size:46.95375824px;text-anchor:middle;font-family:Arial" />
  <text
     x="-438.22867"
     y="564.8988"
     id="text108"
     style="font-size:208.33000183px;line-height:125%;letter-spacing:0;word-spacing:0;font-family:Gentium Book Basic">
    <tspan
       x="-438.22867"
       y="564.8988"
       id="tspan110" />
  </text>
  <text
     x="1357.2598"
     y="2.5963206"
     id="text22-2"
     style="font-size:129.22999573px;line-height:125%;letter-spacing:0;word-spacing:0;font-family:Gentium Book Basic">
    <tspan
       x="1357.2598"
       y="2.5963206"
       id="tspan24-1" />
  </text>
  <text
     x="535.31171"
     y="-338.72937"
     transform="scale(4.0128205,0.24920128)"
     id="text26-9"
     style="font-size:46.95375824px;text-anchor:middle;font-family:Arial" />
  <text
     x="1938.5298"
     y="-77.403679"
     id="text28-3"
     style="font-size:129.22999573px;line-height:125%;letter-spacing:0;word-spacing:0;font-family:Gentium Book Basic">
    <tspan
       x="1938.5298"
       y="-77.403679"
       id="tspan30-2" />
  </text>
  <text
     x="680.16101"
     y="-659.76752"
     transform="scale(4.0128205,0.24920128)"
     id="text32-54"
     style="font-size:46.95375824px;text-anchor:middle;font-family:Arial" />
  <text
     x="866.94983"
     y="-258.66367"
     id="text34-8"
     style="font-size:129.22999573px;line-height:125%;letter-spacing:0;word-spacing:0;font-family:Gentium Book Basic">
    <tspan
       x="866.94983"
       y="-258.66367"
       id="tspan36-9" />
  </text>
  <text
     x="413.12234"
     y="-1387.1139"
     transform="scale(4.0128205,0.24920128)"
     id="text38-5"
     style="font-size:46.95375824px;text-anchor:middle;font-family:Arial" />
  <text
     x="1964.9998"
     y="-475.13367"
     id="text40-1"
     style="font-size:129.22999573px;line-height:125%;letter-spacing:0;word-spacing:0;font-family:Gentium Book Basic">
    <tspan
       x="1964.9998"
       y="-475.13367"
       id="tspan42-9" />
  </text>
  <text
     x="686.76093"
     y="-2255.7896"
     transform="scale(4.0128205,0.24920128)"
     id="text44-9"
     style="font-size:46.95375824px;text-anchor:middle;font-family:Arial" />
  <text
     x="2546.2698"
     y="-555.13367"
     id="text46-0"
     style="font-size:129.22999573px;line-height:125%;letter-spacing:0;word-spacing:0;font-family:Gentium Book Basic">
    <tspan
       x="2546.2698"
       y="-555.13367"
       id="tspan48-3" />
  </text>
  <text
     x="831.61023"
     y="-2576.8179"
     transform="scale(4.0128205,0.24920128)"
     id="text50-1"
     style="font-size:46.95375824px;text-anchor:middle;font-family:Arial" />
  <text
     x="2157.1499"
     y="-1027.5337"
     id="text52"
     style="font-size:129.22999573px;line-height:125%;letter-spacing:0;word-spacing:0;font-family:Gentium Book Basic">
    <tspan
       x="2157.1499"
       y="-1027.5337"
       id="tspan54" />
  </text>
  <text
     x="734.64069"
     y="-4472.4683"
     transform="scale(4.0128205,0.24920128)"
     id="text56-9"
     style="font-size:46.95375824px;text-anchor:middle;font-family:Arial" />
  <text
     x="2738.4099"
     y="-1107.5437"
     id="text58"
     style="font-size:129.22999573px;line-height:125%;letter-spacing:0;word-spacing:0;font-family:Gentium Book Basic">
    <tspan
       x="2738.4099"
       y="-1107.5437"
       id="tspan60" />
  </text>
  <text
     x="879.48999"
     y="-4793.5063"
     transform="scale(4.0128205,0.24920128)"
     id="text62-9"
     style="font-size:46.95375824px;text-anchor:middle;font-family:Arial" />
  <text
     x="905.6098"
     y="307.17639"
     id="text64"
     style="font-size:208.33000183px;line-height:125%;letter-spacing:0;word-spacing:0;font-family:Gentium Book Basic">
    <tspan
       x="905.6098"
       y="307.17639"
       id="tspan66" />
  </text>
  <g
     clip-path="url(#clipPath9279)"
     id="g8873"
     style="opacity:0.25;fill:#000000">
    <path
       d="m 198.602,125.765 c -39.24,0 -71.03,31.799 -71.03,71.03 l 388.90873,388.90873 c 0,-39.231 31.79,-71.03 71.03,-71.03 z"
       inkscape:connector-curvature="0"
       id="path8875"
       style="fill:#000000" />
    <path
       d="m 127.572,196.795 c 0,13.12 3.56101,25.383 9.75801,35.927 l 388.90873,388.90873 c -6.197,-10.544 -9.75801,-22.807 -9.75801,-35.927 z"
       inkscape:connector-curvature="0"
       id="path8877"
       style="fill:#000000" />
    <path
       d="m 137.33001,232.722 c -1.625,7.958 -2.46901,16.202 -2.46901,24.641 l 388.90873,388.90873 c 0,-8.439 0.84401,-16.683 2.46901,-24.641 z"
       inkscape:connector-curvature="0"
       id="path8879"
       style="fill:#000000" />
    <path
       d="m 134.861,257.363 c 0,33.82975 13.7103,64.45455 35.87776,86.62201 l 388.90873,388.90873 c -22.16746,-22.16746 -35.87776,-52.79226 -35.87776,-86.62201 z"
       inkscape:connector-curvature="0"
       id="path8881"
       style="fill:#000000" />
    <path
       d="M 170.73876,343.98501 C 192.90655,366.1528 223.53175,379.863 257.361,379.863 l 388.90873,388.90873 c -33.82925,0 -64.45445,-13.7102 -86.62224,-35.87799 z"
       inkscape:connector-curvature="0"
       id="path8883"
       style="fill:#000000" />
    <path
       d="m 257.361,379.863 c 7.663,0 15.16,-0.7 22.43101,-2.046 l 388.90873,388.90873 c -7.27101,1.346 -14.76801,2.046 -22.43101,2.046 z"
       inkscape:connector-curvature="0"
       id="path8885"
       style="fill:#000000" />
    <path
       d="m 279.79201,377.817 c 10,5.376 21.426,8.418 33.576,8.418 l 388.90873,388.90873 c -12.15,0 -23.576,-3.042 -33.576,-8.418 z"
       inkscape:connector-curvature="0"
       id="path8887"
       style="fill:#000000" />
    <path
       d="m 313.36801,386.235 c 39.24,0 71.05998,-31.795 71.05998,-71.03 l 388.90873,388.90873 c 0,39.235 -31.81998,71.03 -71.05998,71.03 z"
       inkscape:connector-curvature="0"
       id="path8889"
       style="fill:#000000" />
    <path
       d="m 384.42799,315.205 c 0,-11.336 -2.65999,-22.05 -7.38298,-31.554 l 388.90873,388.90873 c 4.72299,9.504 7.38298,20.218 7.38298,31.554 z"
       inkscape:connector-curvature="0"
       id="path8891"
       style="fill:#000000" />
    <path
       d="m 377.04501,283.651 c 1.852,-8.47 2.822,-17.262 2.822,-26.287 l 388.90873,388.90873 c 0,9.025 -0.97,17.817 -2.822,26.287 z"
       inkscape:connector-curvature="0"
       id="path8893"
       style="fill:#000000" />
    <path
       d="m 379.86701,257.364 c 0,-33.82975 -13.7103,-64.45455 -35.87776,-86.62201 l 388.90873,388.90873 c 22.16746,22.16746 35.87776,52.79226 35.87776,86.62201 z"
       inkscape:connector-curvature="0"
       id="path8895"
       style="fill:#000000" />
    <path
       d="M 343.98925,170.74199 C 321.82146,148.5742 291.19626,134.864 257.36701,134.864 l 388.90873,388.90873 c 33.82925,0 64.45445,13.7102 86.62224,35.87799 z"
       inkscape:connector-curvature="0"
       id="path8897"
       style="fill:#000000" />
    <path
       d="m 257.36701,134.864 c -7.143,0 -14.14,0.613 -20.95,1.787 l 388.90873,388.90873 c 6.81,-1.174 13.807,-1.787 20.95,-1.787 z"
       inkscape:connector-curvature="0"
       id="path8899"
       style="fill:#000000" />
    <path
       d="m 236.41701,136.651 c -10.949,-6.896 -23.91301,-10.886 -37.808,-10.886 l 388.90873,388.90873 c 13.89499,0 26.859,3.99 37.808,10.886 z"
       inkscape:connector-curvature="0"
       id="path8901"
       style="fill:#000000" />
    <path
       d="m 256.54401,171.165 c 10.94,0 20.563,1.265 28.591,3.762 l 388.90873,388.90873 c -8.028,-2.497 -17.651,-3.762 -28.591,-3.762 z"
       inkscape:connector-curvature="0"
       id="path8903"
       style="fill:#000000" />
    <path
       d="m 285.13501,174.927 c 8.08,2.514 14.895,5.908 20.244,10.09 l 388.90873,388.90873 c -5.349,-4.182 -12.164,-7.576 -20.244,-10.09 z"
       inkscape:connector-curvature="0"
       id="path8905"
       style="fill:#000000" />
    <path
       d="m 305.37901,185.017 c 1.87867,1.4675 3.58792,2.97247 5.12415,4.5087 l 388.90873,388.90873 c -1.53623,-1.53623 -3.24548,-3.0412 -5.12415,-4.5087 z"
       inkscape:connector-curvature="0"
       id="path8907"
       style="fill:#000000" />
    <path
       d="m 310.50316,189.5257 c 2.86884,2.86884 5.13428,5.84671 6.77285,8.8933 l 388.90873,388.90873 c -1.63857,-3.04659 -3.90401,-6.02446 -6.77285,-8.8933 z"
       inkscape:connector-curvature="0"
       id="path8909"
       style="fill:#000000" />
    <path
       d="m 317.27601,198.419 c 2.542,4.725 3.833,9.418 3.833,13.967 l 388.90873,388.90873 c 0,-4.549 -1.291,-9.242 -3.833,-13.967 z"
       inkscape:connector-curvature="0"
       id="path8911"
       style="fill:#000000" />
    <path
       d="m 321.10901,212.386 c 0,4.377 -1.674,8.36 -5.01,11.827 l 388.90873,388.90873 c 3.336,-3.467 5.01,-7.45 5.01,-11.827 z"
       inkscape:connector-curvature="0"
       id="path8913"
       style="fill:#000000" />
    <path
       d="m 316.09901,224.213 c -3.355,3.489 -7.609,5.243 -12.603,5.243 l 388.90873,388.90873 c 4.994,0 9.248,-1.754 12.603,-5.243 z"
       inkscape:connector-curvature="0"
       id="path8915"
       style="fill:#000000" />
    <path
       d="m 303.49601,229.456 c -4.537,0 -8.07,-1.109 -10.534,-3.292 l 388.90873,388.90873 c 2.464,2.183 5.997,3.292 10.534,3.292 z"
       inkscape:connector-curvature="0"
       id="path8917"
       style="fill:#000000" />
    <path
       d="m 292.96201,226.164 c -0.29478,-0.2607 -0.59103,-0.53977 -0.88911,-0.83785 l 388.90873,388.90873 c 0.29808,0.29808 0.59433,0.57715 0.88911,0.83785 z"
       inkscape:connector-curvature="0"
       id="path8919"
       style="fill:#000000" />
    <path
       d="m 292.0729,225.32615 c -2.01961,-2.01961 -4.1233,-4.91182 -6.42289,-8.87315 l 388.90873,388.90873 c 2.29959,3.96133 4.40328,6.85354 6.42289,8.87315 z"
       inkscape:connector-curvature="0"
       id="path8921"
       style="fill:#000000" />
    <path
       d="m 285.65001,216.453 c -2.23556,-4.2472 -4.8208,-7.84218 -7.70712,-10.7285 l 388.90873,388.90873 c 2.88632,2.88632 5.47156,6.4813 7.70712,10.7285 z"
       inkscape:connector-curvature="0"
       id="path8923"
       style="fill:#000000" />
    <path
       d="m 277.94289,205.7245 c -1.05797,-1.05797 -2.1564,-2.02073 -3.29288,-2.8855 l 388.90873,388.90873 c 1.13648,0.86477 2.23491,1.82753 3.29288,2.8855 z"
       inkscape:connector-curvature="0"
       id="path8925"
       style="fill:#000000" />
    <path
       d="m 274.65001,202.839 c -4.116,-3.132 -11,-4.726 -20.456,-4.726 l 388.90873,388.90873 c 9.456,0 16.34,1.594 20.456,4.726 z"
       inkscape:connector-curvature="0"
       id="path8927"
       style="fill:#000000" />
    <path
       d="m 254.19401,198.113 c -8.782,0 -15.907,1.766 -21.21,5.243 l 388.90873,388.90873 c 5.303,-3.477 12.428,-5.243 21.21,-5.243 z"
       inkscape:connector-curvature="0"
       id="path8929"
       style="fill:#000000" />
    <path
       d="m 232.98401,203.356 c -5.11,3.35 -7.595,7.182 -7.595,11.733 l 388.90873,388.90873 c 0,-4.551 2.485,-8.383 7.595,-11.733 z"
       inkscape:connector-curvature="0"
       id="path8931"
       style="fill:#000000" />
    <path
       d="m 225.38901,215.089 c 0,2.791 0.801,5.141 2.445,7.148 l 388.90873,388.90873 c -1.644,-2.007 -2.445,-4.357 -2.445,-7.148 z"
       inkscape:connector-curvature="0"
       id="path8933"
       style="fill:#000000" />
    <path
       d="m 227.83401,222.237 c 0.3491,0.4265 0.72647,0.84263 1.13176,1.24792 L 617.8745,612.39365 c -0.40529,-0.40529 -0.78266,-0.82142 -1.13176,-1.24792 z"
       inkscape:connector-curvature="0"
       id="path8935"
       style="fill:#000000" />
    <path
       d="m 228.96577,223.48492 c 1.61591,1.61591 3.67565,3.05949 6.15724,4.30108 l 388.90873,388.90873 c -2.48159,-1.24159 -4.54133,-2.68517 -6.15724,-4.30108 z"
       inkscape:connector-curvature="0"
       id="path8937"
       style="fill:#000000" />
    <path
       d="m 235.12301,227.786 c 3.22,1.618 6.529,2.891 9.852,3.809 l 388.90873,388.90873 c -3.323,-0.918 -6.632,-2.191 -9.852,-3.809 z"
       inkscape:connector-curvature="0"
       id="path8939"
       style="fill:#000000" />
    <path
       d="m 244.97501,231.595 c 3.405,0.945 9.12,2.351 16.953,4.162 l 388.90873,388.90873 c -7.833,-1.811 -13.548,-3.217 -16.953,-4.162 z"
       inkscape:connector-curvature="0"
       id="path8941"
       style="fill:#000000" />
    <path
       d="m 261.92801,235.757 c 9.913,2.128 19.03,4.502 27.09,7.077 l 388.90873,388.90873 c -8.06,-2.575 -17.177,-4.949 -27.09,-7.077 z"
       inkscape:connector-curvature="0"
       id="path8943"
       style="fill:#000000" />
    <path
       d="m 289.01801,242.834 c 8.157,2.611 15.201,5.83 20.95,9.57 l 388.90873,388.90873 c -5.749,-3.74 -12.793,-6.959 -20.95,-9.57 z"
       inkscape:connector-curvature="0"
       id="path8945"
       style="fill:#000000" />
    <path
       d="m 309.96801,252.404 c 2.60382,1.69594 4.96978,3.60828 7.08435,5.72285 l 388.90873,388.90873 c -2.11457,-2.11457 -4.48053,-4.02691 -7.08435,-5.72285 z"
       inkscape:connector-curvature="0"
       id="path8947"
       style="fill:#000000" />
    <path
       d="m 317.05236,258.12685 c 2.65086,2.65085 4.90663,5.61953 6.74065,8.87815 l 388.90873,388.90873 c -1.83402,-3.25862 -4.08979,-6.2273 -6.74065,-8.87815 z"
       inkscape:connector-curvature="0"
       id="path8949"
       style="fill:#000000" />
    <path
       d="m 323.79301,267.005 c 3.306,5.88 4.985,13.13 4.985,21.561 l 388.90873,388.90873 c 0,-8.431 -1.679,-15.681 -4.985,-21.561 z"
       inkscape:connector-curvature="0"
       id="path8951"
       style="fill:#000000" />
    <path
       d="m 328.77801,288.566 c 0,10.09 -2.895,19.294 -8.582,27.345 l 388.90873,388.90873 c 5.687,-8.051 8.582,-17.255 8.582,-27.345 z"
       inkscape:connector-curvature="0"
       id="path8953"
       style="fill:#000000" />
    <path
       d="m 320.19601,315.911 c -5.667,8.02 -14.03,14.37 -24.876,18.881 l 388.90873,388.90873 c 10.846,-4.511 19.209,-10.861 24.876,-18.881 z"
       inkscape:connector-curvature="0"
       id="path8955"
       style="fill:#000000" />
    <path
       d="m 295.32001,334.792 c -10.744,4.465 -23.643,6.725 -38.3,6.725 l 388.90873,388.90873 c 14.657,0 27.556,-2.26 38.3,-6.725 z"
       inkscape:connector-curvature="0"
       id="path8957"
       style="fill:#000000" />
    <path
       d="m 257.02001,341.517 c -17.594,0 -32.34,-3.085 -43.851,-9.193 l 388.90873,388.90873 c 11.511,6.108 26.257,9.193 43.851,9.193 z"
       inkscape:connector-curvature="0"
       id="path8959"
       style="fill:#000000" />
    <path
       d="m 213.16901,332.324 c -5.14935,-2.78144 -9.73432,-6.17695 -13.70669,-10.14932 l 388.90872,388.90873 c 3.97238,3.97237 8.55735,7.36788 13.7067,10.14932 z"
       inkscape:connector-curvature="0"
       id="path8961"
       style="fill:#000000" />
    <path
       d="m 199.46232,322.17468 c -2.37729,-2.37728 -4.53517,-4.96117 -6.46331,-7.74368 l 388.90873,388.90873 c 1.92814,2.78251 4.08602,5.3664 6.4633,7.74368 z"
       inkscape:connector-curvature="0"
       id="path8963"
       style="fill:#000000" />
    <path
       d="m 192.99901,314.431 c -5.204,-7.506 -7.83,-14.966 -7.83,-22.15 l 388.90873,388.90873 c 0,7.184 2.626,14.644 7.83,22.15 z"
       inkscape:connector-curvature="0"
       id="path8965"
       style="fill:#000000" />
    <path
       d="m 185.16901,292.281 c 0,-4.489 1.712,-8.383 5.102,-11.568 l 388.90873,388.90873 c -3.39,3.185 -5.102,7.079 -5.102,11.568 z"
       inkscape:connector-curvature="0"
       id="path8967"
       style="fill:#000000" />
    <path
       d="m 190.27101,280.713 c 3.356,-3.157 7.662,-4.75 12.791,-4.75 l 388.90873,388.90873 c -5.129,0 -9.435,1.593 -12.791,4.75 z"
       inkscape:connector-curvature="0"
       id="path8969"
       style="fill:#000000" />
    <path
       d="m 203.06201,275.963 c 4.21,0 7.841,1.267 10.792,3.762 l 388.90873,388.90873 c -2.951,-2.495 -6.582,-3.762 -10.792,-3.762 z"
       inkscape:connector-curvature="0"
       id="path8971"
       style="fill:#000000" />
    <path
       d="m 213.85401,279.725 c 0.39153,0.33183 0.77512,0.68564 1.15063,1.06114 l 388.90873,388.90873 c -0.37551,-0.3755 -0.7591,-0.72931 -1.15063,-1.06114 z"
       inkscape:connector-curvature="0"
       id="path8973"
       style="fill:#000000" />
    <path
       d="m 215.00464,280.78614 c 2.32907,2.32907 4.34714,5.49295 6.02037,9.42586 l 388.90873,388.90873 c -1.67323,-3.93291 -3.6913,-7.09679 -6.02037,-9.42586 z"
       inkscape:connector-curvature="0"
       id="path8975"
       style="fill:#000000" />
    <path
       d="m 221.02501,290.212 c 2.171,4.972 4.53,9.178 7.03,12.485 l 388.90873,388.90873 c -2.5,-3.307 -4.859,-7.513 -7.03,-12.485 z"
       inkscape:connector-curvature="0"
       id="path8977"
       style="fill:#000000" />
    <path
       d="m 228.05501,302.697 c 0.60118,0.79614 1.26844,1.56084 2.00028,2.29269 l 388.90873,388.90873 c -0.73184,-0.73185 -1.3991,-1.49655 -2.00028,-2.29269 z"
       inkscape:connector-curvature="0"
       id="path8979"
       style="fill:#000000" />
    <path
       d="m 230.05529,304.98969 c 2.19224,2.19223 4.96396,4.08965 8.27472,5.65431 l 388.90873,388.90873 c -3.31076,-1.56466 -6.08248,-3.46208 -8.27472,-5.65431 z"
       inkscape:connector-curvature="0"
       id="path8981"
       style="fill:#000000" />
    <path
       d="m 238.33001,310.644 c 4.44,2.103 10.434,3.151 17.799,3.151 l 388.90873,388.90873 c -7.365,0 -13.359,-1.048 -17.799,-3.151 z"
       inkscape:connector-curvature="0"
       id="path8983"
       style="fill:#000000" />
    <path
       d="m 256.12901,313.795 c 10.128,0 18.443,-2.155 24.688,-6.419 l 388.90873,388.90873 c -6.245,4.264 -14.56,6.419 -24.688,6.419 z"
       inkscape:connector-curvature="0"
       id="path8985"
       style="fill:#000000" />
    <path
       d="m 280.81701,307.376 c 6.101,-4.165 9.05,-9.162 9.05,-15.283 l 388.90873,388.90873 c 0,6.121 -2.949,11.118 -9.05,15.283 z"
       inkscape:connector-curvature="0"
       id="path8987"
       style="fill:#000000" />
    <path
       d="m 289.86701,292.093 c 0,-4.63741 -1.41796,-8.3194 -4.34205,-11.2435 l 388.90873,388.90873 c 2.92409,2.9241 4.34205,6.60609 4.34205,11.2435 z"
       inkscape:connector-curvature="0"
       id="path8989"
       style="fill:#000000" />
    <path
       d="m 285.52496,280.8495 c -0.12522,-0.12522 -0.2532,-0.24905 -0.38395,-0.3715 l 388.90873,388.90873 c 0.13075,0.12245 0.25873,0.24628 0.38395,0.3715 z"
       inkscape:connector-curvature="0"
       id="path8991"
       style="fill:#000000" />
    <path
       d="m 285.14101,280.478 c -3.333,-3.117 -7.733,-5.553 -13.07,-7.218 l 388.90873,388.90873 c 5.337,1.665 9.737,4.101 13.07,7.218 z"
       inkscape:connector-curvature="0"
       id="path8993"
       style="fill:#000000" />
    <path
       d="m 272.07101,273.26 c -5.569,-1.735 -13.13,-3.615 -22.478,-5.572 l 388.90873,388.90873 c 9.348,1.957 16.909,3.837 22.478,5.572 z"
       inkscape:connector-curvature="0"
       id="path8995"
       style="fill:#000000" />
    <path
       d="m 249.59301,267.688 c -12.713,-2.723 -23.504,-5.94 -32.09,-9.593 l 388.90873,388.90873 c 8.586,3.653 19.377,6.87 32.09,9.593 z"
       inkscape:connector-curvature="0"
       id="path8997"
       style="fill:#000000" />
    <path
       d="m 217.50301,258.095 c -6.99056,-2.97447 -12.90088,-6.86138 -17.6317,-11.5922 l 388.90873,388.90873 c 4.73082,4.73082 10.64114,8.61773 17.6317,11.5922 z"
       inkscape:connector-curvature="0"
       id="path8999"
       style="fill:#000000" />
    <path
       d="m 199.87131,246.5028 c -1.21438,-1.21438 -2.35104,-2.48437 -3.4083,-3.8088 l 388.90873,388.90873 c 1.05726,1.32443 2.19392,2.59442 3.4083,3.8088 z"
       inkscape:connector-curvature="0"
       id="path9001"
       style="fill:#000000" />
    <path
       d="m 196.46301,242.694 c -5.26,-6.582 -7.924,-14.838 -7.924,-24.547 l 388.90873,388.90873 c 0,9.709 2.664,17.965 7.924,24.547 z"
       inkscape:connector-curvature="0"
       id="path9003"
       style="fill:#000000" />
    <path
       d="m 188.53901,218.147 c 0,-9.254 2.78,-17.61 8.3,-24.806 l 388.90873,388.90873 c -5.52,7.196 -8.3,15.552 -8.3,24.806 z"
       inkscape:connector-curvature="0"
       id="path9005"
       style="fill:#000000" />
    <path
       d="m 196.83901,193.341 c 5.478,-7.145 13.494,-12.697 23.795,-16.506 l 388.90873,388.90873 c -10.301,3.809 -18.317,9.361 -23.795,16.506 z"
       inkscape:connector-curvature="0"
       id="path9007"
       style="fill:#000000" />
    <path
       d="m 220.63401,176.835 c 10.166,-3.76 22.243,-5.667 35.927,-5.667 l 388.90873,388.90873 c -13.684,0 -25.761,1.907 -35.927,5.667 z"
       inkscape:connector-curvature="0"
       id="path9009"
       style="fill:#000000" />
  </g>
  <path
     d="m 198.602,125.765 c -39.24,0 -71.03,31.799 -71.03,71.03 0,13.12 3.56101,25.383 9.75801,35.927 -1.625,7.958 -2.46901,16.202 -2.46901,24.641 0,67.66 54.842,122.5 122.5,122.5 7.663,0 15.16,-0.7 22.43101,-2.046 10,5.376 21.426,8.418 33.576,8.418 39.24,0 71.05998,-31.795 71.05998,-71.03 0,-11.336 -2.65999,-22.05 -7.38298,-31.554 1.852,-8.47 2.822,-17.262 2.822,-26.287 0,-67.66 -54.842,-122.5 -122.5,-122.5 -7.143,0 -14.14,0.613 -20.95,1.787 -10.949,-6.896 -23.91301,-10.886 -37.808,-10.886 m 57.935,45.4 c 10.94,0 20.563,1.265 28.591,3.762 8.08,2.514 14.895,5.908 20.244,10.09 5.387,4.208 9.381,8.724 11.897,13.402 2.542,4.725 3.833,9.418 3.833,13.967 0,4.377 -1.674,8.36 -5.01,11.827 -3.355,3.489 -7.609,5.243 -12.603,5.243 -4.537,0 -8.07,-1.109 -10.534,-3.292 -2.292,-2.027 -4.673,-5.165 -7.312,-9.711 -3.055,-5.804 -6.763,-10.39 -11,-13.614 -4.116,-3.132 -11,-4.726 -20.456,-4.726 -8.782,0 -15.907,1.766 -21.21,5.243 -5.11,3.35 -7.595,7.182 -7.595,11.733 0,2.791 0.801,5.141 2.445,7.148 1.741,2.127 4.185,3.996 7.289,5.549 3.22,1.618 6.529,2.891 9.852,3.809 3.405,0.945 9.12,2.351 16.953,4.162 9.913,2.128 19.03,4.502 27.09,7.077 8.157,2.611 15.201,5.83 20.95,9.57 5.868,3.822 10.528,8.743 13.825,14.601 3.306,5.88 4.985,13.13 4.985,21.561 0,10.09 -2.895,19.294 -8.582,27.345 -5.667,8.02 -14.03,14.37 -24.876,18.881 -10.744,4.465 -23.643,6.725 -38.3,6.725 -17.594,0 -32.34,-3.085 -43.851,-9.193 -8.231,-4.446 -15.02,-10.461 -20.17,-17.893 -5.204,-7.506 -7.83,-14.966 -7.83,-22.15 0,-4.489 1.712,-8.383 5.102,-11.568 3.356,-3.157 7.662,-4.75 12.791,-4.75 4.21,0 7.841,1.267 10.792,3.762 2.82,2.39 5.228,5.92 7.171,10.487 2.171,4.972 4.53,9.178 7.03,12.485 2.402,3.181 5.859,5.86 10.275,7.947 4.44,2.103 10.434,3.151 17.799,3.151 10.128,0 18.443,-2.155 24.688,-6.419 6.101,-4.165 9.05,-9.162 9.05,-15.283 0,-4.836 -1.542,-8.633 -4.726,-11.615 -3.333,-3.117 -7.733,-5.553 -13.07,-7.218 -5.569,-1.735 -13.13,-3.615 -22.478,-5.572 -12.713,-2.723 -23.504,-5.94 -32.09,-9.593 -8.785,-3.738 -15.864,-8.917 -21.04,-15.401 -5.26,-6.582 -7.924,-14.838 -7.924,-24.547 0,-9.254 2.78,-17.61 8.3,-24.806 5.478,-7.145 13.494,-12.697 23.795,-16.506 10.166,-3.76 22.243,-5.667 35.927,-5.667"
     inkscape:connector-curvature="0"
     id="path68"
     style="fill:#ffffff" />
</svg>
