<?xml version="1.0" encoding="UTF-8" standalone="no"?>
<!-- Created with Inkscape (http://www.inkscape.org/) -->

<svg
   xmlns:dc="http://purl.org/dc/elements/1.1/"
   xmlns:cc="http://creativecommons.org/ns#"
   xmlns:rdf="http://www.w3.org/1999/02/22-rdf-syntax-ns#"
   xmlns:svg="http://www.w3.org/2000/svg"
   xmlns="http://www.w3.org/2000/svg"
   xmlns:inkscape="http://www.inkscape.org/namespaces/inkscape"
   version="1.1"
   width="100%"
   height="100%"
   viewBox="0 0 512 512"
   id="svg2">
  <metadata
     id="metadata70">
    <rdf:RDF>
      <cc:Work
         rdf:about="">
        <dc:format>image/svg+xml</dc:format>
        <dc:type
           rdf:resource="http://purl.org/dc/dcmitype/StillImage" />
        <dc:title />
      </cc:Work>
    </rdf:RDF>
  </metadata>
  <defs
     id="defs68">
    <clipPath
       id="clipPath3465">
      <path
         d="m 471.9456,253.05189 c 0,120.89699 -98.00565,218.90724 -218.90724,218.90724 -120.89698,0 -218.90723,-98.00566 -218.90723,-218.90724 0,-120.89698 98.00565,-218.907232 218.90723,-218.907232 120.89699,0 218.90724,98.005652 218.90724,218.907232"
         inkscape:connector-curvature="0"
         id="path3467"
         style="fill:#f58e1a;fill-opacity:1;fill-rule:evenodd" />
    </clipPath>
  </defs>
  <path
     d="m 471.9456,253.05189 c 0,120.89699 -98.00565,218.90724 -218.90724,218.90724 -120.89698,0 -218.90723,-98.00566 -218.90723,-218.90724 0,-120.89698 98.00565,-218.907232 218.90723,-218.907232 120.89699,0 218.90724,98.005652 218.90724,218.907232"
     inkscape:connector-curvature="0"
     id="path8"
     style="fill:#f58e1a;fill-opacity:1;fill-rule:evenodd" />
  <path
     d="M 256,1 C 115.17,1 1,115.17 1,256 1,396.83 115.17,511 256,511 396.83,511 511,396.83 511,256 511,115.17 396.83,1 256,1 m 8.827,44.931 c 120.9,0 218.9,98 218.9,218.9 0,120.9 -98,218.9 -218.9,218.9 -120.9,0 -218.93,-98 -218.93,-218.9 0,-120.9 98.03,-218.9 218.93,-218.9"
     inkscape:connector-curvature="0"
     id="path10"
     style="fill-opacity:0.06700003;fill-rule:evenodd" />
  <path
     d="M 256,4.43 C 117.06,4.43 4.43,117.06 4.43,256 4.43,394.94 117.06,507.57 256,507.57 394.94,507.57 507.57,394.94 507.57,256 507.57,117.06 394.94,4.43 256,4.43 m 5.885,38.556 c 120.9,0 218.9,98 218.9,218.9 0,120.9 -98,218.9 -218.9,218.9 -120.9,0 -218.93,-98 -218.93,-218.9 0,-120.9 98.03,-218.9 218.93,-218.9"
     inkscape:connector-curvature="0"
     id="path14"
     style="fill-opacity:0.12900002;fill-rule:evenodd" />
  <path
     d="M 256,8.36 C 119.23,8.36 8.36,119.23 8.36,256 8.36,392.77 119.23,503.64 256,503.64 392.77,503.64 503.64,392.77 503.64,256 503.64,119.23 392.77,8.36 256,8.36 m 2.942,31.691 c 120.9,0 218.9,98 218.9,218.9 0,120.9 -98,218.9 -218.9,218.9 -120.9,0 -218.93,-98 -218.93,-218.9 0,-120.9 98.03,-218.9 218.93,-218.9"
     inkscape:connector-curvature="0"
     id="path16"
     style="fill-opacity:0.12900002;fill-rule:evenodd" />
  <path
     d="M 253.04,7.86 C 117.62,7.86 7.85,117.64 7.85,253.05 c 0,135.42 109.78,245.19 245.19,245.19 135.42,0 245.19,-109.78 245.19,-245.19 C 498.23,117.63 388.45,7.86 253.04,7.86 z m 0,26.297 c 120.9,0 218.9,98 218.9,218.9 0,120.9 -98,218.9 -218.9,218.9 -120.9,0 -218.93,-98 -218.93,-218.9 0,-120.9 98.03,-218.9 218.93,-218.9 z"
     inkscape:connector-curvature="0"
     id="path18"
     style="fill:#ffffff;fill-rule:evenodd;stroke:#000000;stroke-width:4.90399981;stroke-opacity:0.31000001" />
  <text
     x="729.64001"
     y="231.35997"
     id="text20"
     style="font-size:129.22999573px;line-height:125%;letter-spacing:0;word-spacing:0;font-family:Gentium Book Basic">
    <tspan
       x="729.64001"
       y="231.35997"
       id="tspan22" />
  </text>
  <text
     x="378.90805"
     y="579.25812"
     transform="scale(4.0128205,0.24920128)"
     id="text24"
     style="font-size:46.95375824px;text-anchor:middle;font-family:Arial" />
  <text
     x="1310.91"
     y="151.35997"
     id="text26"
     style="font-size:129.22999573px;line-height:125%;letter-spacing:0;word-spacing:0;font-family:Gentium Book Basic">
    <tspan
       x="1310.91"
       y="151.35997"
       id="tspan28" />
  </text>
  <text
     x="523.75732"
     y="258.21997"
     transform="scale(4.0128205,0.24920128)"
     id="text30"
     style="font-size:46.95375824px;text-anchor:middle;font-family:Arial" />
  <text
     x="239.33"
     y="-29.900009"
     id="text32"
     style="font-size:129.22999573px;line-height:125%;letter-spacing:0;word-spacing:0;font-family:Gentium Book Basic">
    <tspan
       x="239.33"
       y="-29.900009"
       id="tspan34" />
  </text>
  <text
     x="256.71869"
     y="-469.1264"
     transform="scale(4.0128205,0.24920128)"
     id="text36"
     style="font-size:46.95375824px;text-anchor:middle;font-family:Arial" />
  <text
     x="1337.38"
     y="-246.37001"
     id="text38"
     style="font-size:129.22999573px;line-height:125%;letter-spacing:0;word-spacing:0;font-family:Gentium Book Basic">
    <tspan
       x="1337.38"
       y="-246.37001"
       id="tspan40" />
  </text>
  <text
     x="530.3573"
     y="-1337.802"
     transform="scale(4.0128205,0.24920128)"
     id="text42"
     style="font-size:46.95375824px;text-anchor:middle;font-family:Arial" />
  <text
     x="1918.65"
     y="-326.37"
     id="text44"
     style="font-size:129.22999573px;line-height:125%;letter-spacing:0;word-spacing:0;font-family:Gentium Book Basic">
    <tspan
       x="1918.65"
       y="-326.37"
       id="tspan46" />
  </text>
  <text
     x="675.20654"
     y="-1658.8303"
     transform="scale(4.0128205,0.24920128)"
     id="text48"
     style="font-size:46.95375824px;text-anchor:middle;font-family:Arial" />
  <text
     x="1529.53"
     y="-798.77002"
     id="text50"
     style="font-size:129.22999573px;line-height:125%;letter-spacing:0;word-spacing:0;font-family:Gentium Book Basic">
    <tspan
       x="1529.53"
       y="-798.77002"
       id="tspan52" />
  </text>
  <text
     x="578.237"
     y="-3554.4807"
     transform="scale(4.0128205,0.24920128)"
     id="text54"
     style="font-size:46.95375824px;text-anchor:middle;font-family:Arial" />
  <text
     x="2110.79"
     y="-878.78003"
     id="text56"
     style="font-size:129.22999573px;line-height:125%;letter-spacing:0;word-spacing:0;font-family:Gentium Book Basic">
    <tspan
       x="2110.79"
       y="-878.78003"
       id="tspan58" />
  </text>
  <text
     x="723.0863"
     y="-3875.519"
     transform="scale(4.0128205,0.24920128)"
     id="text60"
     style="font-size:46.95375824px;text-anchor:middle;font-family:Arial" />
  <text
     x="277.98999"
     y="535.94006"
     id="text62"
     style="font-size:208.33000183px;line-height:125%;letter-spacing:0;word-spacing:0;font-family:Gentium Book Basic">
    <tspan
       x="277.98999"
       y="535.94006"
       id="tspan64" />
  </text>
  <g
     clip-path="url(#clipPath3465)"
     id="g3256"
     style="text-indent:0;text-transform:none;block-progression:tb;opacity:0.25;color:#000000;fill:#000000;fill-opacity:1;enable-background:new">
    <path
       d="m 250.95982,97.220273 c -15.13361,4.174267 -28.31176,16.354437 -31.65824,32.577127 l 388.90873,388.90873 c 3.34648,-16.22269 16.52463,-28.40286 31.65824,-32.57713 z"
       inkscape:connector-curvature="0"
       id="path3258"
       style="fill:#000000" />
    <path
       d="m 219.30158,129.7974 c -6.8103,19.71623 -12.48109,39.82132 -19.02806,59.6279 l 388.90873,388.90873 c 6.54697,-19.80658 12.21776,-39.91167 19.02806,-59.6279 z"
       inkscape:connector-curvature="0"
       id="path3260"
       style="fill:#000000" />
    <path
       d="m 200.27352,189.4253 c -24.86751,0.56957 -49.8728,-1.21233 -74.6492,1.0339 l 388.90873,388.90873 c 24.7764,-2.24623 49.78169,-0.46433 74.6492,-1.0339 z"
       inkscape:connector-curvature="0"
       id="path3262"
       style="fill:#000000" />
    <path
       d="m 125.62432,190.4592 c -25.663431,5.88398 -38.389964,43.87938 -19.14285,63.12649 L 495.3902,642.49442 c -19.24711,-19.24711 -6.52058,-57.24251 19.14285,-63.12649 z"
       inkscape:connector-curvature="0"
       id="path3264"
       style="fill:#000000" />
    <path
       d="m 106.48147,253.58569 c 0.66631,0.66631 1.37093,1.31015 2.11467,1.92941 l 388.90873,388.90873 c -0.74374,-0.61926 -1.44836,-1.2631 -2.11467,-1.92941 z"
       inkscape:connector-curvature="0"
       id="path3266"
       style="fill:#000000" />
    <path
       d="m 108.59614,255.5151 c 18.09168,15.81531 38.02902,29.24211 56.95685,43.99125 l 388.90873,388.90873 c -18.92783,-14.74914 -38.86517,-28.17594 -56.95685,-43.99125 z"
       inkscape:connector-curvature="0"
       id="path3268"
       style="fill:#000000" />
    <path
       d="m 165.55299,299.50635 c -6.93894,25.07675 -16.74595,49.45813 -21.57857,75.06098 l 388.90873,388.90873 c 4.83262,-25.60285 14.63963,-49.98423 21.57857,-75.06098 z"
       inkscape:connector-curvature="0"
       id="path3270"
       style="fill:#000000" />
    <path
       d="m 143.97442,374.56733 c -0.63531,10.58318 3.95631,20.30791 11.14065,27.49225 L 544.0238,790.96831 c -7.18434,-7.18434 -11.77596,-16.90908 -11.14065,-27.49225 z"
       inkscape:connector-curvature="0"
       id="path3272"
       style="fill:#000000" />
    <path
       d="m 155.11507,402.05958 c 12.89323,12.89323 34.13679,17.60458 48.50492,4.41238 l 388.90873,388.90873 c -14.36813,13.1922 -35.6117,8.48084 -48.50492,-4.41238 z"
       inkscape:connector-curvature="0"
       id="path3274"
       style="fill:#000000" />
    <path
       d="m 203.61999,406.47196 c 17.43882,-12.96772 34.7892,-26.06261 52.206,-39.05961 l 388.90873,388.90873 c -17.4168,12.997 -34.76718,26.09189 -52.206,39.05961 z"
       inkscape:connector-curvature="0"
       id="path3276"
       style="fill:#000000" />
    <path
       d="m 255.82599,367.41235 c 20.74641,14.71918 40.0489,31.76739 61.90103,44.72779 l 388.90873,388.90873 c -21.85213,-12.9604 -41.15462,-30.00861 -61.90103,-44.72779 z"
       inkscape:connector-curvature="0"
       id="path3278"
       style="fill:#000000" />
    <path
       d="m 317.72702,412.14014 c 24.82084,11.20002 56.55687,-14.7002 49.22838,-42.36034 l 388.90873,388.90873 c 7.32849,27.66014 -24.40754,53.56036 -49.22838,42.36034 z"
       inkscape:connector-curvature="0"
       id="path3280"
       style="fill:#000000" />
    <path
       d="m 366.9554,369.7798 c -5.8359,-23.72947 -14.00189,-46.81846 -20.85507,-70.27802 l 388.90873,388.90873 c 6.85318,23.45956 15.01917,46.54855 20.85507,70.27802 z"
       inkscape:connector-curvature="0"
       id="path3282"
       style="fill:#000000" />
    <path
       d="m 346.10033,299.50178 c 19.89335,-15.69132 41.18883,-29.61266 60.02335,-46.65378 l 388.90873,388.90873 c -18.83452,17.04112 -40.13,30.96246 -60.02335,46.65378 z"
       inkscape:connector-curvature="0"
       id="path3284"
       style="fill:#000000" />
    <path
       d="m 406.12368,252.848 c 13.56394,-15.16149 10.32095,-39.07517 -3.31631,-52.71243 L 791.7161,589.0443 c 13.63726,13.63726 16.88025,37.55094 3.31631,52.71243 z"
       inkscape:connector-curvature="0"
       id="path3286"
       style="fill:#000000" />
    <path
       d="m 402.80737,200.13557 c -1.4555,-1.4555 -3.0294,-2.79394 -4.71391,-3.99218 l 388.90873,388.90873 c 1.68451,1.19824 3.25841,2.53668 4.71391,3.99218 z"
       inkscape:connector-curvature="0"
       id="path3288"
       style="fill:#000000" />
    <path
       d="m 398.09346,196.14339 c -15.67269,-10.60758 -35.00917,-5.60161 -52.63043,-6.71923 l 388.90873,388.90873 c 17.62126,1.11762 36.95774,-3.88835 52.63043,6.71923 z"
       inkscape:connector-curvature="0"
       id="path3290"
       style="fill:#000000" />
    <path
       d="m 345.46303,189.42416 -34.77585,0 388.90873,388.90873 34.77585,0 z"
       inkscape:connector-curvature="0"
       id="path3292"
       style="fill:#000000" />
    <path
       d="m 310.68718,189.42416 c -8.17088,-24.49346 -14.8614,-49.61825 -23.97645,-73.70913 l 388.90873,388.90873 c 9.11505,24.09088 15.80557,49.21567 23.97645,73.70913 z"
       inkscape:connector-curvature="0"
       id="path3294"
       style="fill:#000000" />
    <path
       d="m 286.71073,115.71503 c -0.67439,-2.56324 -2.20866,-4.93948 -4.34551,-7.07633 l 388.90873,388.90873 c 2.13685,2.13685 3.67112,4.51309 4.34551,7.07633 z"
       inkscape:connector-curvature="0"
       id="path3296"
       style="fill:#000000" />
    <path
       d="M 282.36522,108.6387 C 275.34898,101.62247 261.83628,97.187098 250.93494,97.187098 L 639.84367,486.09583 c 10.90133,0 24.41404,4.43537 31.43028,11.4516 z"
       inkscape:connector-curvature="0"
       id="path3298"
       style="fill:#000000" />
    <path
       d="m 255.84844,163.09735 c 6.69452,19.84546 10.54653,40.96044 19.2476,59.92983 l 388.90873,388.90873 c -8.70107,-18.96939 -12.55308,-40.08437 -19.2476,-59.92983 z"
       inkscape:connector-curvature="0"
       id="path3300"
       style="fill:#000000" />
    <path
       d="m 275.09604,223.02718 c 0.85232,1.12715 1.74799,2.15366 2.68266,3.08833 l 388.90873,388.90873 c -0.93467,-0.93467 -1.83034,-1.96118 -2.68266,-3.08833 z"
       inkscape:connector-curvature="0"
       id="path3302"
       style="fill:#000000" />
    <path
       d="m 277.7787,226.11551 c 12.17863,12.17863 30.9794,8.76353 46.81016,9.17693 l 388.90873,388.90873 c -15.83076,-0.4134 -34.63153,3.0017 -46.81016,-9.17693 z"
       inkscape:connector-curvature="0"
       id="path3304"
       style="fill:#000000" />
    <path
       d="m 324.58886,235.29244 31.94935,0 388.90873,388.90873 -31.94935,0 z"
       inkscape:connector-curvature="0"
       id="path3306"
       style="fill:#000000" />
    <path
       d="m 356.53821,235.29244 c -17.12018,13.21499 -35.26251,25.0493 -51.64382,39.26091 l 388.90873,388.90873 c 16.38131,-14.21161 34.52364,-26.04592 51.64382,-39.26091 z"
       inkscape:connector-curvature="0"
       id="path3308"
       style="fill:#000000" />
    <path
       d="m 304.89439,274.55335 c -1.3725,0.95367 -3.47247,8.87274 -3.65841,8.6868 l 388.90873,388.90873 c 0.18594,0.18594 2.28591,-7.73313 3.65841,-8.6868 z"
       inkscape:connector-curvature="0"
       id="path3310"
       style="fill:#000000" />
    <path
       d="m 301.23598,283.24015 c -0.0549,-0.0549 0.057,-0.81612 0.4037,-2.6714 l 388.90873,388.90873 c -0.34668,1.85528 -0.45859,2.61651 -0.4037,2.6714 z"
       inkscape:connector-curvature="0"
       id="path3312"
       style="fill:#000000" />
    <path
       d="m 301.63968,280.56875 c -7.78423,13.57045 1.6377,28.30656 4.78952,41.91429 l 388.90873,388.90873 c -3.15182,-13.60773 -12.57375,-28.34384 -4.78952,-41.91429 z"
       inkscape:connector-curvature="0"
       id="path3314"
       style="fill:#000000" />
    <path
       d="m 306.4292,322.48304 c 3.51024,11.44248 7.0205,22.88542 10.53075,34.32699 l 388.90873,388.90873 c -3.51025,-11.44157 -7.02051,-22.88451 -10.53075,-34.32699 z"
       inkscape:connector-curvature="0"
       id="path3316"
       style="fill:#000000" />
    <path
       d="m 316.95995,356.81003 c -16.74952,-11.86862 -31.93823,-26.61617 -49.78391,-36.50231 l 388.90873,388.90873 c 17.84568,9.88614 33.03439,24.63369 49.78391,36.50231 z"
       inkscape:connector-curvature="0"
       id="path3318"
       style="fill:#000000" />
    <path
       d="m 267.17604,320.30772 c -12.77863,-3.95285 -26.98296,-0.82346 -36.49354,8.90439 l 388.90873,388.90873 c 9.51058,-9.72785 23.71491,-12.85724 36.49354,-8.90439 z"
       inkscape:connector-curvature="0"
       id="path3320"
       style="fill:#000000" />
    <path
       d="m 230.6825,329.21211 c -11.97934,9.19946 -23.95867,18.39914 -35.93801,27.59975 l 388.90873,388.90873 c 11.97934,-9.20061 23.95867,-18.40029 35.93801,-27.59975 z"
       inkscape:connector-curvature="0"
       id="path3322"
       style="fill:#000000" />
    <path
       d="m 194.74449,356.81186 c 5.61924,-20.41091 13.70812,-40.30625 17.63503,-61.08269 L 601.28825,684.6379 c -3.92691,20.77644 -12.01579,40.67178 -17.63503,61.08269 z"
       inkscape:connector-curvature="0"
       id="path3324"
       style="fill:#000000" />
    <path
       d="m 212.37952,295.72917 c 0.33821,-9.81184 -3.59884,-18.99095 -10.20077,-25.59288 l 388.90873,388.90873 c 6.60193,6.60193 10.53898,15.78104 10.20077,25.59288 z"
       inkscape:connector-curvature="0"
       id="path3326"
       style="fill:#000000" />
    <path
       d="m 202.17875,270.13629 c -2.46373,-2.46373 -5.29858,-4.56855 -8.42087,-6.21339 l 388.90873,388.90873 c 3.12229,1.64484 5.95714,3.74966 8.42087,6.21339 z"
       inkscape:connector-curvature="0"
       id="path3328"
       style="fill:#000000" />
    <path
       d="m 193.75788,263.9229 c -12.86529,-9.54303 -25.72969,-19.08583 -38.59564,-28.62909 l 388.90873,388.90873 c 12.86595,9.54326 25.73035,19.08606 38.59564,28.62909 z"
       inkscape:connector-curvature="0"
       id="path3330"
       style="fill:#000000" />
    <path
       d="m 155.16224,235.29381 c 20.91573,-0.53753 42.00656,1.12312 62.80985,-0.92868 l 388.90873,388.90873 c -20.80329,2.0518 -41.89412,0.39115 -62.80985,0.92868 z"
       inkscape:connector-curvature="0"
       id="path3332"
       style="fill:#000000" />
    <path
       d="m 217.97209,234.36513 c 12.59664,-3.00473 20.60331,-14.6716 23.01651,-27.13312 l 388.90873,388.90873 c -2.4132,12.46152 -10.41987,24.12839 -23.01651,27.13312 z"
       inkscape:connector-curvature="0"
       id="path3334"
       style="fill:#000000" />
    <path
       d="m 240.9886,207.23201 c 4.95328,-14.71186 9.90856,-29.42509 14.86073,-44.13535 l 388.90873,388.90873 c -4.95217,14.71026 -9.90745,29.42349 -14.86073,44.13535 z"
       inkscape:connector-curvature="0"
       id="path3336"
       style="fill:#000000" />
  </g>
  <path
     d="m 250.95982,97.220273 c -15.13361,4.174267 -28.31176,16.354437 -31.65824,32.577127 -6.8103,19.71623 -12.48109,39.82132 -19.02806,59.6279 -24.86751,0.56957 -49.8728,-1.21233 -74.6492,1.0339 -26.551864,6.08768 -39.25561,46.54856 -17.02818,65.0559 18.09168,15.81531 38.02902,29.24211 56.95685,43.99125 -6.93894,25.07675 -16.74595,49.45813 -21.57857,75.06098 -1.77547,29.57607 37.27127,52.44776 59.64557,31.90463 17.43882,-12.96772 34.7892,-26.06261 52.206,-39.05961 20.74641,14.71918 40.0489,31.76739 61.90103,44.72779 24.82084,11.20002 56.55687,-14.7002 49.22838,-42.36034 -5.8359,-23.72947 -14.00189,-46.81846 -20.85507,-70.27802 19.89335,-15.69132 41.18883,-29.61266 60.02335,-46.65378 15.01161,-16.77967 9.43725,-44.27946 -8.03022,-56.70461 -15.67269,-10.60758 -35.00917,-5.60161 -52.63043,-6.71923 l -34.77585,0 C 302.5163,164.9307 295.82578,139.80591 286.71073,115.71503 283.822,104.73552 265.15636,97.187098 250.93494,97.187098 z m 4.88862,65.877077 c 6.69452,19.84546 10.54653,40.96044 19.2476,59.92983 11.958,15.81371 32.4471,11.82013 49.49282,12.26526 l 31.94935,0 c -17.12018,13.21499 -35.26251,25.0493 -51.64382,39.26091 -1.77767,1.2352 -4.77573,14.15533 -3.25471,6.0154 -7.78423,13.57045 1.6377,28.30656 4.78952,41.91429 3.51024,11.44248 7.0205,22.88542 10.53075,34.32699 -16.74952,-11.86862 -31.93823,-26.61617 -49.78391,-36.50231 -12.77863,-3.95285 -26.98296,-0.82346 -36.49354,8.90439 -11.97934,9.19946 -23.95867,18.39914 -35.93801,27.59975 5.61924,-20.41091 13.70812,-40.30625 17.63503,-61.08269 0.46442,-13.47346 -7.13272,-25.75382 -18.62164,-31.80627 -12.86529,-9.54303 -25.72969,-19.08583 -38.59564,-28.62909 20.91573,-0.53753 42.00656,1.12312 62.80985,-0.92868 12.59664,-3.00473 20.60331,-14.6716 23.01651,-27.13312 4.95328,-14.71186 9.90856,-29.42509 14.86073,-44.13535 z"
     inkscape:connector-curvature="0"
     id="path5717-0-9-4"
     style="text-indent:0;text-transform:none;block-progression:tb;color:#000000;fill:#ffffff;fill-opacity:1;enable-background:new" />
</svg>
