<?xml version="1.0" encoding="UTF-8" standalone="no"?>
<!-- Created with Inkscape (http://www.inkscape.org/) -->

<svg
   xmlns:dc="http://purl.org/dc/elements/1.1/"
   xmlns:cc="http://creativecommons.org/ns#"
   xmlns:rdf="http://www.w3.org/1999/02/22-rdf-syntax-ns#"
   xmlns:svg="http://www.w3.org/2000/svg"
   xmlns="http://www.w3.org/2000/svg"
   xmlns:inkscape="http://www.inkscape.org/namespaces/inkscape"
   version="1.1"
   width="100%"
   height="100%"
   viewBox="0 0 512 512"
   id="svg2">
  <metadata
     id="metadata82">
    <rdf:RDF>
      <cc:Work
         rdf:about="">
        <dc:format>image/svg+xml</dc:format>
        <dc:type
           rdf:resource="http://purl.org/dc/dcmitype/StillImage" />
      </cc:Work>
    </rdf:RDF>
  </metadata>
  <defs
     id="defs4">
    <clipPath
       id="0">
      <path
         d="m 256,176 c -44.18,0 -80,35.64 -80,80 0,0 -0.53,7.515 1.768,16 h 122.86 c -3.317,9.265 -9.266,17.577 -17.344,23.13 -18.585,14.673 -46.731,9.337 -62.56,-7.125 h -38.03 c 12.35,28.24 40.517,48 73.31,48 44.18,0 80,-35.817 80,-80 0,0 0,-8.222 -1.591,-16 h -122.91 c 6.916,-17.482 23.431,-31.648 42.625,-31.813 0.96,-0.046 1.917,-0.051 2.875,-0.031 12.866,0.261 25.351,6.362 34.03,15.844 h 38.28 c -12.35,-28.24 -40.517,-48 -73.31,-48"
         inkscape:connector-curvature="0"
         transform="translate(0,-1.789)"
         id="path7" />
    </clipPath>
    <clipPath
       id="1">
      <path
         d="m 240,92.12 v 36.879 c -52.46,6.538 -95.05,44.81 -107.97,95 h 33.19 c 13.611,-36.23 49.647,-64.48 89.03,-64.22 0.955,-0.025 1.922,-0.037 2.875,-0.031 14.299,0.085 28.354,3.635 41.09,10 22.947,10.33 39.986,30.744 48.31,54.25 h 33.438 c -12.918,-50.19 -55.51,-88.46 -107.97,-95 V 92.119 z M 132.03,288 c 12.918,50.19 55.51,88.46 107.97,95 v 36.879 h 32 V 383 c 52.46,-6.538 95.05,-44.81 107.97,-95 h -32.969 c -12.936,38.16 -52.919,65.61 -93.34,64.19 -39.36,0.199 -75.06,-27.918 -88.37,-64.19 z"
         inkscape:connector-curvature="0"
         id="path10" />
    </clipPath>
  </defs>
  <path
     d="m 471.95,253.05 c 0,120.9 -98.01,218.9 -218.9,218.9 -120.9,0 -218.9,-98.01 -218.9,-218.9 0,-120.9 98.01,-218.9 218.9,-218.9 120.9,0 218.9,98.01 218.9,218.9"
     inkscape:connector-curvature="0"
     id="path12"
     style="fill:#20b393;fill-rule:evenodd" />
  <path
     d="m 238.78,82.63 v 39 c -56.43,6.917 -102.26,47.43 -116.16,100.53 h 1.281 c -0.09,0.335 -0.193,0.664 -0.281,1 h 1.281 c -0.091,0.335 -0.193,0.664 -0.281,1 h 1.281 c -0.09,0.333 -0.194,0.666 -0.281,1 h 1.25 c -0.088,0.325 -0.196,0.643 -0.281,0.969 h 1.281 c -0.09,0.335 -0.193,0.664 -0.281,1 h 1.281 c -0.09,0.335 -0.193,0.664 -0.281,1 h 1.281 c -0.09,0.335 -0.193,0.664 -0.281,1 h 1.281 c -0.091,0.335 -0.193,0.664 -0.281,1 h 1.281 c -0.09,0.333 -0.194,0.666 -0.281,1 h 1.25 c -0.088,0.325 -0.196,0.643 -0.281,0.969 h 1.281 c -0.09,0.335 -0.193,0.664 -0.281,1 h 1.281 c -0.09,0.335 -0.193,0.664 -0.281,1 h 1.281 c -0.09,0.335 -0.193,0.664 -0.281,1 h 1.281 c -0.091,0.335 -0.193,0.664 -0.281,1 h 1.281 c -0.091,0.335 -0.193,0.664 -0.281,1 h 1.25 c -0.088,0.325 -0.196,0.643 -0.281,0.969 h 1.281 c -0.09,0.335 -0.193,0.664 -0.281,1 h 1.281 c -0.09,0.335 -0.193,0.664 -0.281,1 h 1.281 c -0.09,0.335 -0.193,0.664 -0.281,1 h 1.281 c -0.091,0.335 -0.193,0.664 -0.281,1 h 1.281 c -0.091,0.335 -0.193,0.664 -0.281,1 h 1.25 c -0.088,0.325 -0.196,0.643 -0.281,0.969 h 1.281 c -0.09,0.335 -0.193,0.664 -0.281,1 h 1.281 c -0.09,0.335 -0.193,0.664 -0.281,1 h 1.281 c -0.09,0.335 -0.193,0.664 -0.281,1 h 1.281 c -0.09,0.335 -0.193,0.664 -0.281,1 h 1.281 c -0.091,0.335 -0.193,0.664 -0.281,1 h 1.281 c -0.09,0.333 -0.194,0.666 -0.281,1 h 1.25 c -0.088,0.325 -0.196,0.643 -0.281,0.969 h 1.281 c -0.09,0.335 -0.193,0.664 -0.281,1 h 1.281 c -0.09,0.335 -0.193,0.664 -0.281,1 h 1.281 c -0.09,0.335 -0.193,0.664 -0.281,1 h 1.281 c -0.091,0.335 -0.193,0.664 -0.281,1 h 1.281 c -0.09,0.333 -0.194,0.666 -0.281,1 h 1.25 c -0.088,0.325 -0.196,0.643 -0.281,0.969 h 1.281 c -0.09,0.335 -0.193,0.664 -0.281,1 h 1.281 c -0.09,0.335 -0.193,0.664 -0.281,1 h 1.281 c -0.09,0.335 -0.193,0.664 -0.281,1 h 1.281 c -0.091,0.335 -0.193,0.664 -0.281,1 h 1.281 c -0.091,0.335 -0.193,0.664 -0.281,1 h 1.25 c -0.088,0.325 -0.196,0.643 -0.281,0.969 h 1.281 c -0.09,0.335 -0.193,0.664 -0.281,1 h 1.281 c -0.09,0.335 -0.193,0.664 -0.281,1 h 1.281 c -0.09,0.335 -0.193,0.664 -0.281,1 h 1.281 c -0.09,0.335 -0.193,0.664 -0.281,1 h 1.281 c -0.091,0.335 -0.193,0.664 -0.281,1 h 1.281 c -0.09,0.333 -0.194,0.666 -0.281,1 h 1.25 c -0.088,0.325 -0.196,0.643 -0.281,0.969 h 1.281 c -0.09,0.335 -0.193,0.664 -0.281,1 h 1.281 c -0.09,0.335 -0.193,0.664 -0.281,1 h 1.281 c -0.09,0.335 -0.193,0.664 -0.281,1 h 1.281 c -0.091,0.335 -0.193,0.664 -0.281,1 h 1.281 c -0.09,0.333 -0.194,0.666 -0.281,1 h 1.25 c -0.088,0.325 -0.196,0.643 -0.281,0.969 h 1.281 c -0.09,0.335 -0.193,0.664 -0.281,1 h 1.281 c -0.09,0.335 -0.193,0.664 -0.281,1 h 1.281 c -0.09,0.335 -0.193,0.664 -0.281,1 h 1.281 c -0.091,0.335 -0.193,0.664 -0.281,1 h 1.281 c -0.091,0.335 -0.193,0.664 -0.281,1 h 1.25 c -0.088,0.325 -0.196,0.643 -0.281,0.969 h 1.281 c -0.09,0.335 -0.193,0.664 -0.281,1 h 1.281 c -0.09,0.335 -0.193,0.664 -0.281,1 h 1.281 c -0.09,0.335 -0.193,0.664 -0.281,1 h 1.281 c -0.091,0.335 -0.193,0.664 -0.281,1 h 1.281 c -0.077,0.284 -0.175,0.559 -0.25,0.844 h -0.781 c 4.134,9.296 10.126,17.61 17.531,24.469 0.122,0.117 0.252,0.228 0.375,0.344 0.369,0.361 0.748,0.709 1.125,1.063 0.302,0.293 0.599,0.587 0.906,0.875 0.208,0.209 0.414,0.419 0.625,0.625 0.021,0.02 0.041,0.042 0.063,0.063 0.369,0.36 0.749,0.71 1.125,1.063 0.271,0.263 0.538,0.523 0.813,0.781 0.41,0.4 0.83,0.798 1.25,1.188 0.141,0.14 0.296,0.267 0.438,0.406 0.005,0.005 -0.005,0.026 0,0.031 0.005,0.005 0.026,-0.005 0.031,0 0.294,0.288 0.576,0.592 0.875,0.875 0.065,0.06 0.122,0.128 0.188,0.188 0.238,0.231 0.478,0.459 0.719,0.688 0.374,0.367 0.742,0.735 1.125,1.094 0.229,0.223 0.455,0.437 0.688,0.656 0.01,0.011 0.021,0.021 0.031,0.031 0.367,0.359 0.719,0.742 1.094,1.094 0.354,0.345 0.732,0.663 1.094,1 0.253,0.245 0.493,0.509 0.75,0.75 0.293,0.285 0.608,0.564 0.906,0.844 0.301,0.293 0.6,0.588 0.906,0.875 0.331,0.323 0.662,0.653 1,0.969 0.27,0.262 0.538,0.524 0.813,0.781 0.343,0.334 0.681,0.673 1.031,1 0.402,0.39 0.807,0.777 1.219,1.156 0.095,0.091 0.186,0.191 0.281,0.281 0.049,0.045 0.107,0.08 0.156,0.125 0.322,0.315 0.64,0.629 0.969,0.938 0.3,0.292 0.601,0.588 0.906,0.875 0.315,0.306 0.617,0.637 0.938,0.938 0.265,0.258 0.543,0.496 0.813,0.75 0.363,0.355 0.722,0.716 1.094,1.063 0.354,0.343 0.701,0.696 1.063,1.031 0.222,0.214 0.462,0.414 0.688,0.625 0.264,0.257 0.513,0.529 0.781,0.781 0.336,0.329 0.688,0.647 1.031,0.969 0.303,0.295 0.598,0.586 0.906,0.875 0.301,0.293 0.6,0.588 0.906,0.875 0.263,0.256 0.514,0.53 0.781,0.781 0.412,0.403 0.827,0.795 1.25,1.188 0.227,0.219 0.458,0.441 0.688,0.656 0.226,0.221 0.458,0.439 0.688,0.656 0.3,0.296 0.6,0.586 0.906,0.875 0.06,0.055 0.127,0.102 0.188,0.156 0.031,0.032 0.062,0.062 0.094,0.094 0.281,0.274 0.558,0.544 0.844,0.813 0.031,0.031 0.063,0.062 0.094,0.094 0.269,0.262 0.539,0.525 0.813,0.781 0.031,0.031 0.063,0.062 0.094,0.094 0.204,0.198 0.387,0.398 0.594,0.594 0.478,0.472 0.944,0.95 1.438,1.406 0.2,0.193 0.422,0.372 0.625,0.563 0.031,0.032 0.062,0.062 0.094,0.094 0.269,0.262 0.538,0.524 0.813,0.781 0.351,0.343 0.703,0.697 1.063,1.031 0.227,0.22 0.457,0.44 0.688,0.656 0.352,0.345 0.702,0.695 1.063,1.031 0.323,0.314 0.639,0.631 0.969,0.938 0.344,0.334 0.679,0.675 1.031,1 0.202,0.195 0.42,0.37 0.625,0.563 0.062,0.064 0.125,0.124 0.188,0.188 0.237,0.23 0.478,0.461 0.719,0.688 0.071,0.073 0.147,0.146 0.219,0.219 0.225,0.218 0.459,0.442 0.688,0.656 0.072,0.074 0.146,0.145 0.219,0.219 0.207,0.201 0.415,0.396 0.625,0.594 0.209,0.206 0.413,0.423 0.625,0.625 -11.205,-0.061 -22.12,-2.244 -32.375,-6.094 -0.016,-0.043 -0.046,-0.081 -0.063,-0.125 h -0.313 c -0.114,-0.043 -0.23,-0.081 -0.344,-0.125 -0.113,-0.29 -0.235,-0.583 -0.344,-0.875 h -0.594 c -0.13,-0.332 -0.282,-0.666 -0.406,-1 h -0.594 c -0.127,-0.325 -0.253,-0.642 -0.375,-0.969 h -0.594 c -0.131,-0.336 -0.28,-0.662 -0.406,-1 h -0.625 c -0.13,-0.332 -0.251,-0.666 -0.375,-1 h -0.594 c -0.13,-0.333 -0.281,-0.666 -0.406,-1 h -0.594 c -0.131,-0.335 -0.281,-0.663 -0.406,-1 h -0.594 c -0.13,-0.334 -0.281,-0.664 -0.406,-1 h -0.594 c -0.126,-0.324 -0.254,-0.644 -0.375,-0.969 h -0.594 c -0.132,-0.338 -0.279,-0.66 -0.406,-1 h -0.594 c -0.131,-0.336 -0.28,-0.662 -0.406,-1 h -0.594 c -0.13,-0.335 -0.281,-0.664 -0.406,-1 h -0.594 c -0.13,-0.334 -0.281,-0.665 -0.406,-1 h -0.594 c -0.13,-0.334 -0.281,-0.664 -0.406,-1 h -0.594 c -0.127,-0.325 -0.253,-0.642 -0.375,-0.969 h -0.594 c -0.131,-0.335 -0.28,-0.663 -0.406,-1 h -0.594 c -0.13,-0.334 -0.281,-0.664 -0.406,-1 h -0.594 c -0.131,-0.337 -0.28,-0.662 -0.406,-1 h -0.594 c -0.13,-0.334 -0.281,-0.664 -0.406,-1 h -0.594 c -0.13,-0.333 -0.281,-0.665 -0.406,-1 h -0.594 c -0.13,-0.335 -0.281,-0.663 -0.406,-1 h -0.594 c -0.126,-0.325 -0.253,-0.642 -0.375,-0.969 h -0.594 c -0.131,-0.336 -0.28,-0.662 -0.406,-1 h -0.594 c -0.13,-0.334 -0.281,-0.664 -0.406,-1 h -0.594 c -0.131,-0.336 -0.28,-0.662 -0.406,-1 h -0.594 c -0.13,-0.335 -0.281,-0.663 -0.406,-1 h -0.594 c -0.129,-0.333 -0.281,-0.666 -0.406,-1 h -0.594 c -0.125,-0.323 -0.254,-0.644 -0.375,-0.969 h -0.594 c -0.131,-0.337 -0.28,-0.662 -0.406,-1 h -0.594 c -0.13,-0.336 -0.28,-0.663 -0.406,-1 h -0.594 c -0.13,-0.335 -0.281,-0.664 -0.406,-1 h -0.594 c -0.13,-0.335 -0.28,-0.663 -0.406,-1 h -0.594 c -0.13,-0.334 -0.281,-0.664 -0.406,-1 h -0.594 c -0.126,-0.325 -0.253,-0.642 -0.375,-0.969 h -0.594 c -0.13,-0.335 -0.28,-0.663 -0.406,-1 h -0.594 c -0.131,-0.337 -0.28,-0.661 -0.406,-1 h -0.594 c -0.13,-0.335 -0.281,-0.663 -0.406,-1 h -0.594 c -0.129,-0.334 -0.281,-0.664 -0.406,-1 h -0.594 c -0.129,-0.333 -0.281,-0.665 -0.406,-1 h -0.594 c -0.129,-0.334 -0.281,-0.664 -0.406,-1 h -0.594 c -0.125,-0.324 -0.253,-0.643 -0.375,-0.969 h -0.594 c -0.13,-0.335 -0.281,-0.664 -0.406,-1 h -0.594 c -0.13,-0.337 -0.28,-0.662 -0.406,-1 h -0.594 c -0.13,-0.336 -0.28,-0.663 -0.406,-1 h -0.594 c -0.129,-0.334 -0.281,-0.665 -0.406,-1 h -0.594 c -0.129,-0.333 -0.281,-0.666 -0.406,-1 h -0.594 c -0.126,-0.326 -0.253,-0.642 -0.375,-0.969 h -0.594 c -0.13,-0.336 -0.28,-0.662 -0.406,-1 h -0.594 c -0.13,-0.336 -0.28,-0.663 -0.406,-1 h -0.594 c -0.129,-0.334 -0.281,-0.665 -0.406,-1 h -0.594 c -0.13,-0.335 -0.281,-0.663 -0.406,-1 h -0.594 c -0.129,-0.334 -0.281,-0.664 -0.406,-1 h -0.594 c -0.125,-0.324 -0.254,-0.644 -0.375,-0.969 h -0.594 c -0.131,-0.338 -0.28,-0.661 -0.406,-1 h -0.594 c -0.13,-0.336 -0.28,-0.663 -0.406,-1 h -0.594 c -0.129,-0.335 -0.281,-0.663 -0.406,-1 h -0.594 c -0.129,-0.334 -0.281,-0.664 -0.406,-1 h -0.594 c -0.129,-0.335 -0.281,-0.664 -0.406,-1 h -0.594 c -0.125,-0.325 -0.253,-0.642 -0.375,-0.969 h -0.563 -0.063 c -0.129,-0.333 -0.25,-0.665 -0.375,-1 h -0.375 -0.219 c -0.129,-0.335 -0.281,-0.664 -0.406,-1 h -0.188 -0.406 c -0.13,-0.337 -0.28,-0.662 -0.406,-1 h -35.781 c 7.083,27.06 22.467,50.851 43.31,68.59 0.356,0.311 0.734,0.599 1.094,0.906 0.494,0.434 1,0.855 1.5,1.281 0.522,0.457 1.065,0.894 1.594,1.344 0.033,0.029 0.06,0.065 0.094,0.094 0.276,0.234 0.566,0.455 0.844,0.688 0.565,0.497 1.145,0.981 1.719,1.469 0.056,0.049 0.101,0.108 0.156,0.156 0.349,0.296 0.71,0.583 1.063,0.875 0.476,0.417 0.955,0.839 1.438,1.25 0.072,0.063 0.146,0.124 0.219,0.188 0.337,0.286 0.691,0.561 1.031,0.844 0.117,0.102 0.227,0.211 0.344,0.313 0.125,0.103 0.25,0.21 0.375,0.313 0.707,0.628 1.436,1.231 2.156,1.844 0.494,0.432 0.999,0.856 1.5,1.281 0.022,0.019 0.04,0.043 0.063,0.063 0.276,0.234 0.565,0.456 0.844,0.688 0.586,0.516 1.185,1.026 1.781,1.531 0.033,0.029 0.06,0.065 0.094,0.094 0.287,0.243 0.586,0.478 0.875,0.719 0.564,0.496 1.145,0.982 1.719,1.469 0.044,0.039 0.081,0.086 0.125,0.125 0.388,0.329 0.795,0.645 1.188,0.969 0.066,0.058 0.121,0.13 0.188,0.188 0.279,0.23 0.563,0.46 0.844,0.688 0.536,0.472 1.08,0.943 1.625,1.406 0.084,0.073 0.166,0.146 0.25,0.219 0.264,0.223 0.546,0.435 0.813,0.656 0.033,0.029 0.06,0.065 0.094,0.094 0.155,0.136 0.313,0.271 0.469,0.406 0.102,0.086 0.211,0.164 0.313,0.25 0.154,0.137 0.314,0.27 0.469,0.406 0.011,0.009 0.02,0.022 0.031,0.031 0.538,0.474 1.079,0.942 1.625,1.406 0.4,0.35 0.814,0.686 1.219,1.031 0.472,0.415 0.959,0.811 1.438,1.219 0.527,0.463 1.058,0.921 1.594,1.375 0.039,0.034 0.086,0.06 0.125,0.094 0.266,0.225 0.545,0.434 0.813,0.656 0.565,0.498 1.145,0.981 1.719,1.469 0.067,0.058 0.121,0.129 0.188,0.188 0.339,0.286 0.689,0.561 1.031,0.844 0.116,0.102 0.227,0.211 0.344,0.313 0.206,0.169 0.418,0.333 0.625,0.5 0.393,0.348 0.79,0.689 1.188,1.031 0.052,0.042 0.105,0.083 0.156,0.125 0.101,0.087 0.211,0.164 0.313,0.25 0.765,0.673 1.53,1.347 2.313,2 0.029,0.023 0.065,0.039 0.094,0.063 0.091,0.076 0.19,0.143 0.281,0.219 0.443,0.39 0.895,0.773 1.344,1.156 0.455,0.401 0.914,0.794 1.375,1.188 0.565,0.497 1.144,0.982 1.719,1.469 0.044,0.039 0.081,0.086 0.125,0.125 0.395,0.333 0.788,0.672 1.188,1 0.061,0.053 0.126,0.103 0.188,0.156 0.155,0.126 0.313,0.249 0.469,0.375 0.063,0.052 0.125,0.104 0.188,0.156 0.604,0.535 1.228,1.04 1.844,1.563 0.077,0.068 0.141,0.151 0.219,0.219 0.3,0.253 0.603,0.5 0.906,0.75 0.432,0.38 0.875,0.751 1.313,1.125 0.166,0.147 0.333,0.292 0.5,0.438 0.131,0.11 0.275,0.203 0.406,0.313 0.218,0.188 0.437,0.376 0.656,0.563 0.105,0.092 0.207,0.189 0.313,0.281 0.102,0.086 0.21,0.165 0.313,0.25 0.034,0.028 0.059,0.066 0.094,0.094 0.165,0.137 0.334,0.27 0.5,0.406 0.565,0.498 1.143,0.983 1.719,1.469 0.033,0.029 0.06,0.065 0.094,0.094 0.384,0.323 0.768,0.651 1.156,0.969 0.072,0.063 0.146,0.125 0.219,0.188 0.103,0.084 0.209,0.166 0.313,0.25 0.274,0.237 0.536,0.485 0.813,0.719 0.484,0.424 0.977,0.834 1.469,1.25 0.044,0.039 0.081,0.086 0.125,0.125 0.374,0.315 0.747,0.628 1.125,0.938 0.083,0.073 0.167,0.146 0.25,0.219 0.081,0.066 0.169,0.122 0.25,0.188 0.14,0.121 0.266,0.255 0.406,0.375 0.227,0.201 0.459,0.395 0.688,0.594 0.006,0.005 0.025,-0.005 0.031,0 0.097,0.079 0.184,0.171 0.281,0.25 0.24,0.2 0.477,0.396 0.719,0.594 0.116,0.102 0.228,0.211 0.344,0.313 0.07,0.057 0.149,0.1 0.219,0.156 0.135,0.117 0.271,0.228 0.406,0.344 0.311,0.276 0.624,0.541 0.938,0.813 0.011,0.009 0.02,0.022 0.031,0.031 0.267,0.231 0.543,0.459 0.813,0.688 0.106,0.093 0.206,0.189 0.313,0.281 0.424,0.356 0.852,0.713 1.281,1.063 0.033,0.029 0.061,0.065 0.094,0.094 0.052,0.042 0.104,0.083 0.156,0.125 0.188,0.157 0.374,0.313 0.563,0.469 0.613,0.543 1.249,1.066 1.875,1.594 0.044,0.039 0.081,0.086 0.125,0.125 0.04,0.033 0.085,0.06 0.125,0.094 0.095,0.082 0.186,0.168 0.281,0.25 v 9.03 h 1 v 1 h 0.156 0.844 v 1 h 0.344 0.656 v 1 h 0.5 0.469 v 0.969 h 0.688 0.313 v 1 h 0.875 0.125 v 1 h 1 v 1 h 1 v 1 h 1 v 1 h 0.969 v 0.969 h 1 v 1 h 1 v 1 h 1 v 1 h 1 v 1 h 1 v 1 h 0.969 v 0.969 h 1 v 1 h 1 v 1 h 1 v 1 h 1 v 1 h 1 v 1 h 0.969 v 0.969 h 1 v 1 h 1 v 1 h 1 v 1 h 1 v 1 h 1 v 1 h 1 v 1 h 0.969 v 0.969 h 1 v 1 h 1 v 1 h 1 v 1 h 1 v 1 h 1 v 1 h 0.969 v 0.969 h 1 v 1 h 1 v 1 h 1 v 1 h 1 v 1 h 1 v 1 h 0.969 v 0.969 h 1 v 0.063 c 99.93,-12.529 178.89,-92.39 190.03,-192.75 -0.052,-0.052 -0.104,-0.105 -0.156,-0.156 -0.146,-0.146 -0.29,-0.292 -0.438,-0.438 -0.39,-0.393 -0.793,-0.768 -1.188,-1.156 -0.468,-0.48 -0.931,-0.964 -1.406,-1.438 -0.691,-0.702 -1.388,-1.407 -2.094,-2.094 -0.282,-0.28 -0.56,-0.566 -0.844,-0.844 -0.146,-0.146 -0.29,-0.292 -0.438,-0.438 -0.39,-0.393 -0.793,-0.768 -1.188,-1.156 -0.468,-0.48 -0.931,-0.964 -1.406,-1.438 -0.33,-0.335 -0.667,-0.668 -1,-1 -0.455,-0.462 -0.913,-0.919 -1.375,-1.375 -0.062,-0.063 -0.125,-0.125 -0.188,-0.188 -0.147,-0.145 -0.29,-0.293 -0.438,-0.438 -0.34,-0.338 -0.688,-0.665 -1.031,-1 -0.178,-0.177 -0.352,-0.355 -0.531,-0.531 -0.468,-0.48 -0.931,-0.964 -1.406,-1.438 -0.33,-0.335 -0.667,-0.668 -1,-1 -0.691,-0.702 -1.388,-1.407 -2.094,-2.094 -0.282,-0.28 -0.56,-0.566 -0.844,-0.844 -0.146,-0.146 -0.29,-0.292 -0.438,-0.438 -0.39,-0.393 -0.793,-0.768 -1.188,-1.156 -0.468,-0.48 -0.931,-0.964 -1.406,-1.438 -0.691,-0.702 -1.388,-1.407 -2.094,-2.094 -0.282,-0.28 -0.56,-0.566 -0.844,-0.844 -0.146,-0.146 -0.29,-0.292 -0.438,-0.438 -0.39,-0.393 -0.793,-0.768 -1.188,-1.156 -0.468,-0.48 -0.931,-0.964 -1.406,-1.438 -0.691,-0.702 -1.388,-1.407 -2.094,-2.094 -0.302,-0.3 -0.601,-0.609 -0.906,-0.906 -0.34,-0.338 -0.688,-0.665 -1.031,-1 -0.178,-0.177 -0.352,-0.355 -0.531,-0.531 -0.468,-0.48 -0.931,-0.964 -1.406,-1.438 -0.33,-0.335 -0.667,-0.668 -1,-1 -0.691,-0.702 -1.388,-1.407 -2.094,-2.094 -0.282,-0.28 -0.56,-0.566 -0.844,-0.844 -0.146,-0.146 -0.29,-0.292 -0.438,-0.438 -0.39,-0.393 -0.793,-0.768 -1.188,-1.156 -0.468,-0.48 -0.931,-0.964 -1.406,-1.438 -0.691,-0.702 -1.388,-1.407 -2.094,-2.094 -0.282,-0.28 -0.56,-0.566 -0.844,-0.844 -0.146,-0.146 -0.29,-0.292 -0.438,-0.438 -0.39,-0.393 -0.793,-0.768 -1.188,-1.156 -0.468,-0.48 -0.931,-0.964 -1.406,-1.438 -0.691,-0.702 -1.388,-1.407 -2.094,-2.094 -0.282,-0.28 -0.56,-0.566 -0.844,-0.844 -0.146,-0.146 -0.29,-0.292 -0.438,-0.438 -0.39,-0.393 -0.793,-0.768 -1.188,-1.156 -0.468,-0.48 -0.931,-0.964 -1.406,-1.438 -0.691,-0.702 -1.388,-1.407 -2.094,-2.094 -0.302,-0.3 -0.601,-0.609 -0.906,-0.906 -0.126,-0.125 -0.249,-0.251 -0.375,-0.375 -0.39,-0.393 -0.793,-0.768 -1.188,-1.156 -0.468,-0.48 -0.931,-0.964 -1.406,-1.438 -0.33,-0.335 -0.667,-0.668 -1,-1 -0.454,-0.461 -0.915,-0.92 -1.375,-1.375 -0.331,-0.334 -0.665,-0.669 -1,-1 -0.333,-0.335 -0.664,-0.668 -1,-1 -0.333,-0.335 -0.664,-0.668 -1,-1 -0.057,-0.058 -0.13,-0.099 -0.188,-0.156 -0.468,-0.48 -0.931,-0.964 -1.406,-1.438 -0.454,-0.461 -0.915,-0.92 -1.375,-1.375 -0.331,-0.334 -0.665,-0.669 -1,-1 -0.333,-0.335 -0.664,-0.668 -1,-1 -0.333,-0.335 -0.664,-0.668 -1,-1 -0.057,-0.058 -0.13,-0.099 -0.188,-0.156 -0.468,-0.48 -0.931,-0.964 -1.406,-1.438 -0.454,-0.461 -0.915,-0.92 -1.375,-1.375 -0.331,-0.334 -0.665,-0.669 -1,-1 -0.333,-0.335 -0.664,-0.668 -1,-1 -0.333,-0.335 -0.664,-0.668 -1,-1 -0.057,-0.058 -0.13,-0.099 -0.188,-0.156 -0.468,-0.48 -0.931,-0.964 -1.406,-1.438 -0.33,-0.335 -0.667,-0.668 -1,-1 -0.454,-0.461 -0.915,-0.92 -1.375,-1.375 -0.333,-0.335 -0.664,-0.668 -1,-1 -0.333,-0.335 -0.664,-0.668 -1,-1 -0.333,-0.335 -0.664,-0.668 -1,-1 -0.057,-0.058 -0.13,-0.099 -0.188,-0.156 -0.468,-0.48 -0.931,-0.964 -1.406,-1.438 -0.454,-0.461 -0.915,-0.92 -1.375,-1.375 -0.331,-0.334 -0.665,-0.669 -1,-1 -0.333,-0.335 -0.664,-0.668 -1,-1 -0.333,-0.335 -0.664,-0.668 -1,-1 -0.057,-0.058 -0.13,-0.099 -0.188,-0.156 -0.468,-0.48 -0.931,-0.964 -1.406,-1.438 -0.454,-0.461 -0.915,-0.92 -1.375,-1.375 -0.331,-0.334 -0.665,-0.669 -1,-1 -0.333,-0.335 -0.664,-0.668 -1,-1 -0.333,-0.335 -0.664,-0.668 -1,-1 -0.057,-0.058 -0.13,-0.099 -0.188,-0.156 -0.468,-0.48 -0.931,-0.964 -1.406,-1.438 -0.454,-0.461 -0.915,-0.92 -1.375,-1.375 -0.331,-0.334 -0.665,-0.669 -1,-1 -0.333,-0.335 -0.664,-0.668 -1,-1 -0.333,-0.335 -0.664,-0.668 -1,-1 -0.057,-0.058 -0.13,-0.099 -0.188,-0.156 -0.468,-0.48 -0.931,-0.964 -1.406,-1.438 -0.33,-0.335 -0.667,-0.668 -1,-1 -0.454,-0.461 -0.915,-0.92 -1.375,-1.375 -0.331,-0.334 -0.665,-0.669 -1,-1 -0.333,-0.335 -0.664,-0.668 -1,-1 -0.333,-0.335 -0.664,-0.668 -1,-1 -0.057,-0.058 -0.13,-0.099 -0.188,-0.156 -0.468,-0.48 -0.931,-0.964 -1.406,-1.438 -0.454,-0.461 -0.915,-0.92 -1.375,-1.375 -0.331,-0.334 -0.665,-0.669 -1,-1 -0.333,-0.335 -0.664,-0.668 -1,-1 -0.333,-0.335 -0.664,-0.668 -1,-1 -0.057,-0.058 -0.13,-0.099 -0.188,-0.156 -0.468,-0.48 -0.931,-0.964 -1.406,-1.438 -5.546,-5.637 -11.598,-10.781 -18.06,-15.406 v -0.125 h -0.188 c -0.273,-0.195 -0.538,-0.401 -0.813,-0.594 v -0.406 h -0.563 c -0.147,-0.102 -0.29,-0.211 -0.438,-0.313 v -0.688 h -1 v -1 h -1 v -1 h -0.969 v -0.969 h -1 v -1 h -1 v -1 h -1 v -1 h -1 v -1 h -1 v -1 h -0.969 v -0.969 h -1 v -1 h -1 v -1 h -1 v -1 h -1 v -1 h -1 v -1 h -0.969 v -0.969 h -1 v -1 h -1 v -1 h -1 v -1 h -1 v -1 h -1 v -1 h -1 v -1 h -0.969 v -0.969 h -1 v -1 h -1 v -1 h -1 v -1 h -1 v -1 h -1 v -1 h -0.969 v -0.969 h -1 v -1 h -1 v -1 h -1 v -1 h -1 v -1 h -1 v -1 h -0.969 v -0.969 h -1 v -1 h -1 v -1 h -1 v -1 h -1 v -1 h -1 v -1 h -1 v -1 h -0.969 v -0.969 h -1 v -1 h -1 v -1 h -1 v -1 h -1 v -1 h -1 v -1 h -0.969 v -0.969 h -1 v -1 h -1 v -1 h -1 v -1 h -1 v -1 h -1 v -1 h -0.969 V 91.6 h -1 v -1 h -1 v -1 h -1 v -1 h -1 v -1 h -1 v -1 h -0.969 v -0.969 h -1 v -1 h -1 v -1 h -1 v -1 h -34.438"
     inkscape:connector-curvature="0"
     id="path14"
     style="fill-opacity:0.23500001" />
  <g
     id="g16"
     style="fill-rule:evenodd">
    <path
       d="M 256,1 C 115.17,1 1,115.17 1,256 1,396.83 115.17,511 256,511 396.83,511 511,396.83 511,256 511,115.17 396.83,1 256,1 m 8.827,44.931 c 120.9,0 218.9,98 218.9,218.9 0,120.9 -98,218.9 -218.9,218.9 -120.9,0 -218.93,-98 -218.93,-218.9 0,-120.9 98.03,-218.9 218.93,-218.9"
       inkscape:connector-curvature="0"
       id="path18"
       style="fill-opacity:0.06700003" />
    <g
       id="g20"
       style="fill-opacity:0.12900002">
      <path
         d="m 256,4.433 c -138.94,0 -251.57,112.63 -251.57,251.57 0,138.94 112.63,251.57 251.57,251.57 138.94,0 251.57,-112.63 251.57,-251.57 C 507.57,117.063 394.94,4.433 256,4.433 m 5.885,38.556 c 120.9,0 218.9,98 218.9,218.9 0,120.9 -98,218.9 -218.9,218.9 -120.9,0 -218.93,-98 -218.93,-218.9 0,-120.9 98.03,-218.9 218.93,-218.9"
         inkscape:connector-curvature="0"
         id="path22" />
      <path
         d="m 256,8.356 c -136.77,0 -247.64,110.87 -247.64,247.64 0,136.77 110.87,247.64 247.64,247.64 136.77,0 247.64,-110.87 247.64,-247.64 C 503.64,119.226 392.77,8.356 256,8.356 m 2.942,31.691 c 120.9,0 218.9,98 218.9,218.9 0,120.9 -98,218.9 -218.9,218.9 -120.9,0 -218.93,-98 -218.93,-218.9 0,-120.9 98.03,-218.9 218.93,-218.9"
         inkscape:connector-curvature="0"
         id="path24" />
    </g>
    <path
       d="m 253.04,7.859 c -135.42,0 -245.19,109.78 -245.19,245.19 0,135.42 109.78,245.19 245.19,245.19 135.42,0 245.19,-109.78 245.19,-245.19 0,-135.42 -109.78,-245.19 -245.19,-245.19 z m 0,26.297 c 120.9,0 218.9,98 218.9,218.9 0,120.9 -98,218.9 -218.9,218.9 -120.9,0 -218.93,-98 -218.93,-218.9 0,-120.9 98.03,-218.9 218.93,-218.9 z"
       inkscape:connector-curvature="0"
       id="path26"
       style="fill:#ffffff;stroke:#000000;stroke-width:4.90399981;stroke-opacity:0.31000001" />
  </g>
  <text
     x="729.64001"
     y="231.36"
     id="text28"
     style="font-size:129.22999573px;line-height:125%;letter-spacing:0;word-spacing:0;font-family:Gentium Book Basic">
    <tspan
       x="729.64001"
       y="231.36"
       id="tspan30" />
  </text>
  <text
     x="378.91"
     y="579.25"
     transform="scale(4.0128,0.2492)"
     id="text32"
     style="font-size:46.95399857px;text-anchor:middle;font-family:Arial" />
  <text
     x="1310.91"
     y="151.36"
     id="text34"
     style="font-size:129.22999573px;line-height:125%;letter-spacing:0;word-spacing:0;font-family:Gentium Book Basic">
    <tspan
       x="1310.91"
       y="151.36"
       id="tspan36" />
  </text>
  <text
     x="523.76001"
     y="258.22"
     transform="scale(4.0128,0.2492)"
     id="text38"
     style="font-size:46.95399857px;text-anchor:middle;font-family:Arial" />
  <text
     x="239.33"
     y="-29.900999"
     id="text40"
     style="font-size:129.22999573px;line-height:125%;letter-spacing:0;word-spacing:0;font-family:Gentium Book Basic">
    <tspan
       x="239.33"
       y="-29.900999"
       id="tspan42" />
  </text>
  <text
     x="256.72"
     y="-469.14001"
     transform="scale(4.0128,0.2492)"
     id="text44"
     style="font-size:46.95399857px;text-anchor:middle;font-family:Arial" />
  <text
     x="1337.38"
     y="-246.37"
     id="text46"
     style="font-size:129.22999573px;line-height:125%;letter-spacing:0;word-spacing:0;font-family:Gentium Book Basic">
    <tspan
       x="1337.38"
       y="-246.37"
       id="tspan48" />
  </text>
  <text
     x="530.35999"
     y="-1337.8101"
     transform="scale(4.0128,0.2492)"
     id="text50"
     style="font-size:46.95399857px;text-anchor:middle;font-family:Arial" />
  <text
     x="1918.65"
     y="-326.38"
     id="text52"
     style="font-size:129.22999573px;line-height:125%;letter-spacing:0;word-spacing:0;font-family:Gentium Book Basic">
    <tspan
       x="1918.65"
       y="-326.38"
       id="tspan54" />
  </text>
  <text
     x="675.21002"
     y="-1658.85"
     transform="scale(4.0128,0.2492)"
     id="text56"
     style="font-size:46.95399857px;text-anchor:middle;font-family:Arial" />
  <text
     x="1529.53"
     y="-798.78003"
     id="text58"
     style="font-size:129.22999573px;line-height:125%;letter-spacing:0;word-spacing:0;font-family:Gentium Book Basic">
    <tspan
       x="1529.53"
       y="-798.78003"
       id="tspan60" />
  </text>
  <text
     x="578.23999"
     y="-3554.51"
     transform="scale(4.0128,0.2492)"
     id="text62"
     style="font-size:46.95399857px;text-anchor:middle;font-family:Arial" />
  <text
     x="2110.79"
     y="-878.78003"
     id="text64"
     style="font-size:129.22999573px;line-height:125%;letter-spacing:0;word-spacing:0;font-family:Gentium Book Basic">
    <tspan
       x="2110.79"
       y="-878.78003"
       id="tspan66" />
  </text>
  <text
     x="723.09003"
     y="-3875.54"
     transform="scale(4.0128,0.2492)"
     id="text68"
     style="font-size:46.95399857px;text-anchor:middle;font-family:Arial" />
  <text
     x="277.98999"
     y="535.94"
     id="text70"
     style="font-size:208.33000183px;line-height:125%;letter-spacing:0;word-spacing:0;font-family:Gentium Book Basic">
    <tspan
       x="277.98999"
       y="535.94"
       id="tspan72" />
  </text>
  <g
     transform="matrix(14.93586,0,0,14.68777,-114.63,-14814.61)"
     id="g74"
     style="fill:#ffffff">
    <path
       d="m 240,92.12 v 36.879 c -52.46,6.538 -95.05,44.81 -107.97,95 h 33.19 c 13.611,-36.23 49.647,-64.48 89.03,-64.22 0.955,-0.025 1.922,-0.037 2.875,-0.031 14.299,0.085 28.354,3.635 41.09,10 22.947,10.33 39.986,30.744 48.31,54.25 h 33.438 c -12.918,-50.19 -55.51,-88.46 -107.97,-95 V 92.119 z M 132.03,288 c 12.918,50.19 55.51,88.46 107.97,95 v 36.879 h 32 V 383 c 52.46,-6.538 95.05,-44.81 107.97,-95 h -32.969 c -12.936,38.16 -52.919,65.61 -93.34,64.19 -39.36,0.199 -75.06,-27.918 -88.37,-64.19 z"
       inkscape:connector-curvature="0"
       transform="matrix(0.07203,0,0,0.07203,6.375,1007.63)"
       clip-path="url(#1)"
       id="path76" />
    <path
       d="m 256,176 c -44.18,0 -80,35.64 -80,80 0,0 -0.53,7.515 1.768,16 h 122.86 c -3.317,9.265 -9.266,17.577 -17.344,23.13 -18.585,14.673 -46.731,9.337 -62.56,-7.125 h -38.03 c 12.35,28.24 40.517,48 73.31,48 44.18,0 80,-35.817 80,-80 0,0 0,-8.222 -1.591,-16 h -122.91 c 6.916,-17.482 23.431,-31.648 42.625,-31.813 0.96,-0.046 1.917,-0.051 2.875,-0.031 12.866,0.261 25.351,6.362 34.03,15.844 h 38.28 c -12.35,-28.24 -40.517,-48 -73.31,-48"
       inkscape:connector-curvature="0"
       transform="matrix(0.06345,0,0,0.06345,8.575,1009.88)"
       clip-path="url(#0)"
       id="path78" />
  </g>
</svg>
