<?xml version="1.0" encoding="UTF-8" standalone="no"?>
<!-- Created with Inkscape (http://www.inkscape.org/) -->

<svg
   xmlns:dc="http://purl.org/dc/elements/1.1/"
   xmlns:cc="http://creativecommons.org/ns#"
   xmlns:rdf="http://www.w3.org/1999/02/22-rdf-syntax-ns#"
   xmlns:svg="http://www.w3.org/2000/svg"
   xmlns="http://www.w3.org/2000/svg"
   xmlns:inkscape="http://www.inkscape.org/namespaces/inkscape"
   version="1.1"
   width="100%"
   height="100%"
   viewBox="0 0 512 512"
   id="svg2">
  <metadata
     id="metadata76">
    <rdf:RDF>
      <cc:Work
         rdf:about="">
        <dc:format>image/svg+xml</dc:format>
        <dc:type
           rdf:resource="http://purl.org/dc/dcmitype/StillImage" />
      </cc:Work>
    </rdf:RDF>
  </metadata>
  <defs
     id="defs74" />
  <g
     id="g4"
     style="fill-rule:evenodd">
    <path
       d="m 471.95,253.05 c 0,120.9 -98.01,218.9 -218.9,218.9 -120.9,0 -218.9,-98.01 -218.9,-218.9 0,-120.9 98.01,-218.9 218.9,-218.9 120.9,0 218.9,98.01 218.9,218.9"
       inkscape:connector-curvature="0"
       id="path6"
       style="fill:#0078ad" />
    <path
       d="m 251.28,161.97 c -39.451,0.023 -77.31,0.078 -128.84,0.125 -0.122,0 -0.25,0.026 -0.25,0.063 v 22.844 c 0,0.036 0.128,0.063 0.25,0.063 h 0.75 v 0.938 c 0,0.036 0.128,0.063 0.25,0.063 h 0.75 v 0.938 c 0,0.036 0.128,0.063 0.25,0.063 h 0.75 v 0.938 c 0,0.036 0.128,0.063 0.25,0.063 h 0.719 v 0.906 c 0,0.036 0.128,0.063 0.25,0.063 h 0.75 v 0.938 c 0,0.036 0.128,0.063 0.25,0.063 h 0.75 v 0.938 c 0,0.036 0.128,0.063 0.25,0.063 h 0.75 v 0.938 c 0,0.036 0.128,0.063 0.25,0.063 h 0.75 v 0.938 c 0,0.036 0.128,0.063 0.25,0.063 h 0.75 v 0.938 c 0,0.036 0.128,0.063 0.25,0.063 h 0.719 v 0.906 c 0,0.036 0.128,0.063 0.25,0.063 h 0.75 v 0.938 c 0,0.036 0.128,0.063 0.25,0.063 h 0.75 v 0.938 c 0,0.036 0.128,0.063 0.25,0.063 h 0.75 v 0.938 c 0,0.036 0.128,0.063 0.25,0.063 h 0.75 v 0.938 c 0,0.036 0.128,0.063 0.25,0.063 h 0.75 v 0.938 c 0,0.036 0.128,0.063 0.25,0.063 h 0.719 v 0.906 c 0,0.036 0.128,0.063 0.25,0.063 h 0.75 v 0.938 c 0,0.036 0.128,0.063 0.25,0.063 h 0.75 v 0.938 c 0,0.036 0.128,0.063 0.25,0.063 h 0.75 v 0.938 c 0,0.036 0.128,0.063 0.25,0.063 h 0.75 v 0.938 c 0,0.036 0.128,0.063 0.25,0.063 h 0.75 v 0.938 c 0,0.036 0.128,0.063 0.25,0.063 h 0.719 v 0.906 0.031 c 0,0.036 0.128,0.031 0.25,0.031 h 0.75 v 0.375 h -22.625 c -0.122,0 -0.25,0.104 -0.25,0.219 v 45.5 24.719 1.844 45.47 24.75 c 0,0.115 0.128,0.219 0.25,0.219 h 0.75 v 0.656 0.125 c 0,0.114 0.129,0.219 0.25,0.219 h 0.75 v 0.531 0.25 c 0,0.114 0.129,0.219 0.25,0.219 h 0.75 v 0.406 0.375 c 0,0.113 0.099,0.188 0.219,0.188 0,0.002 0.029,0.031 0.031,0.031 h 0.719 v 0.281 0.469 c 0,0.113 0.131,0.219 0.25,0.219 h 0.75 v 0.156 0.625 c 0,0.112 0.131,0.219 0.25,0.219 h 0.75 v 0.031 0.75 c 0,0.112 0.132,0.219 0.25,0.219 h 0.75 v 0.781 c 0,0.111 0.132,0.219 0.25,0.219 h 0.75 v 0.781 c 0,0.11 0.102,0.187 0.219,0.188 0,0.005 0.026,0.031 0.031,0.031 h 0.75 v 0.781 c 0,0.11 0.102,0.187 0.219,0.188 0,0.005 0.026,0.031 0.031,0.031 h 0.719 v 0.75 c 0,0.109 0.134,0.219 0.25,0.219 h 0.75 v 0.781 c 0,0.109 0.135,0.219 0.25,0.219 h 0.75 v 0.781 c 0,0.108 0.135,0.219 0.25,0.219 h 0.75 v 0.781 c 0,0.108 0.105,0.187 0.219,0.188 0,0.007 0.023,0.031 0.031,0.031 h 0.75 v 0.781 c 0,0.107 0.105,0.187 0.219,0.188 0,0.008 0.023,0.031 0.031,0.031 h 0.75 v 0.781 c 0,0.106 0.106,0.187 0.219,0.188 0,0.009 0.023,0.031 0.031,0.031 h 0.719 v 0.75 c 0,0.106 0.138,0.219 0.25,0.219 h 0.75 v 0.781 c 0,0.105 0.138,0.219 0.25,0.219 h 0.75 v 0.781 c 0,0.105 0.108,0.219 0.219,0.219 0,0.01 0.02,0 0.031,0 h 0.75 v 0.781 c 0,0.104 0.108,0.187 0.219,0.188 0,0.011 0.02,0.031 0.031,0.031 h 0.75 v 0.781 c 0,0.104 0.109,0.187 0.219,0.188 0,0.011 0.019,0.031 0.031,0.031 h 0.75 v 0.781 c 0,0.103 0.11,0.187 0.219,0.188 0,0.012 0.019,0.031 0.031,0.031 h 0.719 v 0.75 c 0,0.102 0.141,0.219 0.25,0.219 h 0.75 v 0.781 c 0,0.102 0.111,0.219 0.219,0.219 0,0.013 0.017,0 0.031,0 h 0.75 v 0.781 c 0,0.101 0.111,0.187 0.219,0.188 0,0.014 0.017,0.031 0.031,0.031 h 0.75 v 0.781 c 0,0.101 0.112,0.187 0.219,0.188 0,0.014 0.016,0.031 0.031,0.031 h 0.75 v 0.781 c 0,0.1 0.113,0.187 0.219,0.188 0,0.015 0.016,0.031 0.031,0.031 h 0.75 v 0.781 c 0,0.1 0.113,0.187 0.219,0.188 0,0.015 0.015,0.031 0.031,0.031 h 0.75 v 0.781 c 0,0.099 0.083,0.187 0.188,0.188 0,0.016 0.046,0.031 0.063,0.031 h 0.719 v 0.75 c 0,0.099 0.114,0.187 0.219,0.188 0,0.017 0.014,0.031 0.031,0.031 h 0.75 v 0.781 c 0,0.098 0.115,0.187 0.219,0.188 0,0.017 0.013,0.031 0.031,0.031 h 0.75 v 0.781 c 0,0.097 0.116,0.187 0.219,0.188 0,0.018 0.012,0.031 0.031,0.031 h 0.75 v 0.781 c 0,0.097 0.116,0.187 0.219,0.188 0,0.018 0.012,0.031 0.031,0.031 h 0.75 v 0.781 c 0,0.096 0.086,0.187 0.188,0.188 0,0.019 0.043,0.031 0.063,0.031 h 0.75 v 0.781 c 0,0.096 0.086,0.156 0.188,0.156 0,0.019 0.042,0.063 0.063,0.063 h 0.719 v 0.75 c 0,0.095 0.118,0.187 0.219,0.188 0,0.02 0.01,0.031 0.031,0.031 h 0.75 v 0.781 c 0,0.094 0.119,0.187 0.219,0.188 0,0.021 0.009,0.031 0.031,0.031 h 0.75 v 0.781 c 0,0.094 0.119,0.187 0.219,0.188 0,0.021 0.009,0.031 0.031,0.031 h 0.75 v 0.781 c 0,0.093 0.089,0.187 0.188,0.188 0,0.022 0.04,0.031 0.063,0.031 h 0.75 v 0.781 c 0,0.093 0.089,0.156 0.188,0.156 0,0.022 0.039,0.063 0.063,0.063 h 0.75 v 0.781 c 0,0.092 0.09,0.156 0.188,0.156 0,0.023 0.038,0.063 0.063,0.063 h 0.719 v 0.75 c 0,0.092 0.122,0.187 0.219,0.188 0,0.023 0.006,0.031 0.031,0.031 h 0.75 v 0.781 c 0,0.091 0.122,0.187 0.219,0.188 0,0.024 0.006,0.031 0.031,0.031 h 0.75 v 0.781 c 0,0.091 0.092,0.187 0.188,0.188 0,0.024 0.036,0.031 0.063,0.031 h 0.75 v 0.781 c 0,0.09 0.092,0.156 0.188,0.156 0,0.025 0.036,0.063 0.063,0.063 h 0.75 v 0.781 c 0,0.089 0.093,0.156 0.188,0.156 0,0.026 0.035,0.063 0.063,0.063 h 0.75 v 0.781 c 0,0.089 0.094,0.156 0.188,0.156 0,0.026 0.035,0.063 0.063,0.063 h 0.75 v 0.781 c 0,0.088 0.094,0.156 0.188,0.156 0,0.027 0.034,0.063 0.063,0.063 h 0.719 v 0.75 c 0,0.088 0.095,0.187 0.188,0.188 0,0.027 0.033,0.031 0.063,0.031 h 0.75 v 0.781 c 0,0.087 0.095,0.156 0.188,0.156 0,0.028 0.033,0.063 0.063,0.063 h 0.75 v 0.781 c 0,0.087 0.096,0.156 0.188,0.156 0,0.029 0.032,0.063 0.063,0.063 h 0.75 v 0.781 c 0,0.086 0.097,0.156 0.188,0.156 0,0.029 0.032,0.063 0.063,0.063 h 0.75 v 0.781 c 0,0.085 0.097,0.156 0.188,0.156 0,0.03 0.031,0.063 0.063,0.063 h 0.75 v 0.781 c 0,0.085 0.066,0.156 0.156,0.156 0,0.03 0.062,0.063 0.094,0.063 h 0.719 v 0.75 c 0,0.084 0.098,0.187 0.188,0.188 0,0.031 0.03,0.031 0.063,0.031 h 0.75 v 0.781 c 0,0.084 0.099,0.156 0.188,0.156 0,0.031 0.029,0.063 0.063,0.063 h 0.75 v 0.781 c 0,0.083 0.1,0.156 0.188,0.156 0,0.032 0.029,0.063 0.063,0.063 h 0.75 v 0.781 c 0,0.082 0.1,0.156 0.188,0.156 0,0.033 0.028,0.063 0.063,0.063 h 0.75 v 0.781 c 0,0.082 0.069,0.156 0.156,0.156 0,0.033 0.059,0.063 0.094,0.063 h 0.75 v 0.781 c 0,0.081 0.07,0.156 0.156,0.156 0,0.034 0.058,0.063 0.094,0.063 h 0.719 v 0.75 c 0,0.081 0.102,0.156 0.188,0.156 0,0.034 0.026,0.063 0.063,0.063 h 0.75 v 0.781 c 0,0.08 0.103,0.156 0.188,0.156 0,0.035 0.025,0.063 0.063,0.063 h 0.75 v 0.781 c 0,0.08 0.103,0.156 0.188,0.156 0,0.035 0.025,0.063 0.063,0.063 h 0.75 v 0.781 c 0,0.079 0.073,0.156 0.156,0.156 0,0.036 0.056,0.063 0.094,0.063 h 0.75 v 0.781 c 0,0.079 0.073,0.156 0.156,0.156 0,0.037 0.055,0.063 0.094,0.063 h 0.75 v 0.781 c 0,0.078 0.074,0.125 0.156,0.125 0,0.037 0.054,0.094 0.094,0.094 h 0.719 v 0.75 c 0,0.077 0.106,0.156 0.188,0.156 0,0.038 0.023,0.063 0.063,0.063 h 0.75 v 0.781 c 0,0.077 0.106,0.156 0.188,0.156 0,0.038 0.022,0.063 0.063,0.063 h 0.75 v 0.781 c 0,0.076 0.076,0.156 0.156,0.156 0,0.039 0.053,0.063 0.094,0.063 h 0.75 v 0.781 c 0,0.076 0.076,0.156 0.156,0.156 0,0.039 0.052,0.063 0.094,0.063 h 0.75 v 0.781 c 0,0.075 0.077,0.125 0.156,0.125 0,0.04 0.051,0.094 0.094,0.094 h 0.75 v 0.781 c 0,0.075 0.077,0.125 0.156,0.125 0,0.041 0.051,0.094 0.094,0.094 h 0.75 v 0.781 c 0,0.074 0.078,0.125 0.156,0.125 0,0.041 0.05,0.094 0.094,0.094 h 0.719 v 0.75 c 0,0.073 0.079,0.156 0.156,0.156 0,0.042 0.05,0.063 0.094,0.063 h 0.75 v 0.781 c 0,0.073 0.079,0.156 0.156,0.156 0,0.042 0.049,0.063 0.094,0.063 h 0.75 v 0.781 c 0,0.072 0.08,0.125 0.156,0.125 0,0.043 0.048,0.094 0.094,0.094 h 0.75 v 0.781 c 0,0.072 0.08,0.125 0.156,0.125 0,0.043 0.048,0.094 0.094,0.094 h 0.75 v 0.781 c 0,0.071 0.081,0.125 0.156,0.125 0,0.044 0.047,0.094 0.094,0.094 h 0.75 v 0.781 c 0,0.07 0.05,0.125 0.125,0.125 0,0.045 0.078,0.094 0.125,0.094 h 0.719 v 0.75 c 0,0.07 0.082,0.156 0.156,0.156 0,0.045 0.046,0.063 0.094,0.063 h 0.75 v 0.781 c 0,0.069 0.083,0.125 0.156,0.125 0,0.046 0.045,0.094 0.094,0.094 h 0.75 v 0.781 c 0,0.069 0.083,0.125 0.156,0.125 0,0.046 0.045,0.094 0.094,0.094 h 0.75 v 0.781 c 0,0.068 0.084,0.125 0.156,0.125 0,0.047 0.044,0.094 0.094,0.094 h 0.75 v 0.781 c 0,0.068 0.053,0.125 0.125,0.125 0,0.047 0.075,0.094 0.125,0.094 h 0.75 v 0.781 c 0,0.067 0.054,0.125 0.125,0.125 0,0.048 0.074,0.094 0.125,0.094 h 0.719 v 0.75 c 0,0.067 0.086,0.156 0.156,0.156 0,0.048 0.042,0.063 0.094,0.063 h 0.75 v 0.781 c 0,0.066 0.087,0.125 0.156,0.125 0,0.049 0.042,0.094 0.094,0.094 h 0.75 v 0.781 c 0,0.065 0.087,0.125 0.156,0.125 0,0.05 0.041,0.094 0.094,0.094 h 0.75 v 0.781 c 0,0.065 0.056,0.125 0.125,0.125 0,0.05 0.072,0.094 0.125,0.094 h 0.75 v 0.781 c 0,0.064 0.057,0.125 0.125,0.125 0,0.051 0.071,0.094 0.125,0.094 h 0.75 v 0.781 c 0,0.064 0.058,0.125 0.125,0.125 0,0.051 0.07,0.094 0.125,0.094 h 0.75 v 0.781 c 0,0.063 0.058,0.094 0.125,0.094 0,0.052 0.07,0.125 0.125,0.125 h 0.719 v 0.75 c 0,0.063 0.09,0.125 0.156,0.125 0,0.053 0.038,0.094 0.094,0.094 h 0.75 v 0.781 c 0,0.062 0.059,0.125 0.125,0.125 0,0.053 0.069,0.094 0.125,0.094 h 0.75 v 0.781 c 0,0.061 0.06,0.125 0.125,0.125 0,0.054 0.068,0.094 0.125,0.094 h 0.75 v 0.781 c 0,0.061 0.061,0.125 0.125,0.125 0,0.054 0.068,0.094 0.125,0.094 h 0.75 v 0.781 c 0,0.06 0.061,0.094 0.125,0.094 0,0.055 0.067,0.125 0.125,0.125 h 0.75 v 0.781 c 0,0.06 0.062,0.094 0.125,0.094 0,0.055 0.066,0.125 0.125,0.125 h 0.719 v 0.75 c 0,0.059 0.062,0.125 0.125,0.125 0,0.056 0.066,0.094 0.125,0.094 h 0.75 v 0.781 c 0,0.058 0.063,0.125 0.125,0.125 0,0.057 0.065,0.094 0.125,0.094 h 0.75 v 0.781 c 0,0.058 0.064,0.125 0.125,0.125 0,0.057 0.064,0.094 0.125,0.094 h 0.75 v 0.781 c 0,0.057 0.064,0.094 0.125,0.094 0,0.058 0.064,0.125 0.125,0.125 h 0.75 v 0.781 c 0,0.057 0.065,0.094 0.125,0.094 0,0.058 0.063,0.125 0.125,0.125 h 0.75 v 0.781 c 0,0.056 0.066,0.094 0.125,0.094 0,0.059 0.063,0.125 0.125,0.125 h 0.719 v 0.75 c 0,0.056 0.066,0.125 0.125,0.125 0,0.059 0.062,0.094 0.125,0.094 h 0.75 v 0.781 c 0,0.055 0.067,0.125 0.125,0.125 0,0.06 0.061,0.094 0.125,0.094 h 0.75 v 0.781 c 0,0.055 0.067,0.094 0.125,0.094 0,0.06 0.061,0.125 0.125,0.125 h 0.75 v 0.781 c 0,0.054 0.068,0.094 0.125,0.094 0,0.061 0.06,0.125 0.125,0.125 h 0.75 v 0.781 c 0,0.053 0.069,0.094 0.125,0.094 0,0.062 0.06,0.125 0.125,0.125 h 0.75 v 0.781 c 0,0.053 0.038,0.094 0.094,0.094 0,0.062 0.09,0.125 0.156,0.125 h 0.719 v 0.75 c 0,0.052 0.07,0.125 0.125,0.125 0,0.063 0.058,0.094 0.125,0.094 h 0.75 v 0.781 c 0,0.052 0.07,0.094 0.125,0.094 0,0.063 0.058,0.125 0.125,0.125 h 0.75 v 0.781 c 0,0.051 0.071,0.094 0.125,0.094 0,0.064 0.057,0.125 0.125,0.125 h 0.75 v 0.781 c 0,0.05 0.072,0.094 0.125,0.094 0,0.065 0.057,0.125 0.125,0.125 h 0.75 v 0.781 c 0,0.05 0.041,0.094 0.094,0.094 0,0.065 0.087,0.125 0.156,0.125 h 0.75 v 0.781 c 0,0.049 0.042,0.094 0.094,0.094 0,0.066 0.087,0.125 0.156,0.125 h 0.75 v 0.781 c 0,0.049 0.042,0.094 0.094,0.094 0,0.066 0.086,0.125 0.156,0.125 h 0.719 v 0.75 c 0,0.048 0.074,0.094 0.125,0.094 0,0.067 0.054,0.125 0.125,0.125 h 0.75 v 0.781 c 0,0.048 0.075,0.094 0.125,0.094 0,0.067 0.054,0.125 0.125,0.125 h 0.75 v 0.781 c 0,0.047 0.044,0.094 0.094,0.094 0,0.068 0.084,0.125 0.156,0.125 h 0.75 v 0.781 c 0,0.046 0.045,0.094 0.094,0.094 0,0.068 0.084,0.125 0.156,0.125 h 0.75 v 0.781 c 0,0.046 0.045,0.094 0.094,0.094 0,0.069 0.083,0.125 0.156,0.125 h 0.75 v 0.781 c 0,0.045 0.046,0.062 0.094,0.063 0,0.07 0.082,0.156 0.156,0.156 h 0.719 v 0.313 c 2.818,0.108 5.625,0.219 8.469,0.219 120.9,0 218.91,-98.01 218.91,-218.91 0,-2.802 -0.052,-5.599 -0.156,-8.375 -0.116,0 -0.233,0 -0.375,0 v -0.938 c -0.001,-0.036 -0.128,-0.063 -0.25,-0.063 -0.285,-0.001 -0.466,10e-4 -0.75,0 v -0.938 c -0.001,-0.036 -0.128,-0.063 -0.25,-0.063 -0.285,-0.001 -0.466,0.001 -0.75,0 v -0.938 c -0.001,-0.036 -0.128,-0.063 -0.25,-0.063 -0.285,-0.001 -0.466,0.001 -0.75,0 v -0.938 c -0.001,-0.036 -0.128,-0.063 -0.25,-0.063 -0.273,-0.001 -0.446,0.001 -0.719,0 v -0.906 c -0.001,-0.036 -0.128,-0.063 -0.25,-0.063 -0.285,-0.001 -0.466,0.001 -0.75,0 v -0.938 c -0.001,-0.036 -0.128,-0.063 -0.25,-0.063 -0.285,-0.001 -0.466,0.001 -0.75,0 V 237.8 c -0.001,-0.036 -0.128,-0.063 -0.25,-0.063 -0.285,-0.001 -0.466,0.001 -0.75,0 v -0.938 c -0.001,-0.036 -0.128,-0.063 -0.25,-0.063 -0.285,-10e-4 -0.466,0.001 -0.75,0 v -0.938 c -0.001,-0.036 -0.128,-0.063 -0.25,-0.063 -0.285,-0.001 -0.466,10e-4 -0.75,0 v -0.938 c -0.001,-0.036 -0.128,-0.063 -0.25,-0.063 -0.273,-0.001 -0.446,0.001 -0.719,0 v -0.906 c -10e-4,-0.036 -0.128,-0.063 -0.25,-0.063 -0.285,-10e-4 -0.466,0.001 -0.75,0 v -0.938 c -10e-4,-0.036 -0.128,-0.063 -0.25,-0.063 -0.285,-0.001 -0.466,10e-4 -0.75,0 v -0.938 c -10e-4,-0.036 -0.128,-0.063 -0.25,-0.063 -0.285,-0.001 -0.466,0.001 -0.75,0 v -0.938 c -10e-4,-0.036 -0.128,-0.063 -0.25,-0.063 -0.285,-0.001 -0.466,0.001 -0.75,0 v -0.938 c -10e-4,-0.036 -0.128,-0.063 -0.25,-0.063 -0.285,-0.001 -0.466,0.001 -0.75,0 v -0.938 c -10e-4,-0.036 -0.128,-0.063 -0.25,-0.063 -0.285,-0.001 -0.466,0.001 -0.75,0 v -0.938 c -10e-4,-0.036 -0.128,-0.063 -0.25,-0.063 -0.273,-10e-4 -0.446,0.001 -0.719,0 v -0.906 c -10e-4,-0.036 -0.128,-0.063 -0.25,-0.063 -0.285,-0.001 -0.466,0.001 -0.75,0 v -0.938 c -10e-4,-0.036 -0.128,-0.063 -0.25,-0.063 -0.285,-10e-4 -0.466,0.001 -0.75,0 v -0.938 c -10e-4,-0.036 -0.128,-0.063 -0.25,-0.063 -0.285,-0.001 -0.466,10e-4 -0.75,0 v -0.938 c -10e-4,-0.036 -0.128,-0.063 -0.25,-0.063 -0.285,-0.001 -0.466,0.001 -0.75,0 v -0.938 c -10e-4,-0.036 -0.128,-0.063 -0.25,-0.063 -0.285,-0.001 -0.466,0.001 -0.75,0 v -0.938 c -10e-4,-0.036 -0.128,-0.063 -0.25,-0.063 -0.273,-0.001 -0.446,0.001 -0.719,0 v -0.906 c -10e-4,-0.036 -0.128,-0.063 -0.25,-0.063 -0.285,-0.001 -0.466,0.001 -0.75,0 v -0.938 c -10e-4,-0.036 -0.128,-0.063 -0.25,-0.063 -0.285,-0.001 -0.466,0.001 -0.75,0 v -0.938 c -10e-4,-0.036 -0.128,-0.063 -0.25,-0.063 -0.285,-0.001 -0.466,0.001 -0.75,0 v -0.938 c -10e-4,-0.036 -0.128,-0.063 -0.25,-0.063 -0.285,-10e-4 -0.466,0.001 -0.75,0 v -0.938 c -10e-4,-0.036 -0.128,-0.063 -0.25,-0.063 -0.285,-0.001 -0.466,10e-4 -0.75,0 v -0.938 c -10e-4,-0.036 -0.128,-0.063 -0.25,-0.063 -0.273,-0.001 -0.446,0.001 -0.719,0 v -0.906 c -10e-4,-0.036 -0.128,-0.063 -0.25,-0.063 -0.285,-0.001 -0.466,10e-4 -0.75,0 v -0.938 c -10e-4,-0.036 -0.128,-0.063 -0.25,-0.063 -0.285,-0.001 -0.466,0.001 -0.75,0 v -0.938 c 0,-0.036 -0.128,-0.063 -0.25,-0.063 -0.285,-0.001 -0.466,0.001 -0.75,0 v -0.938 c 0,-0.036 -0.128,-0.063 -0.25,-0.063 -0.285,-0.001 -0.466,0.001 -0.75,0 v -0.938 c 0,-0.036 -0.128,-0.063 -0.25,-0.063 -0.285,-0.001 -0.466,0.001 -0.75,0 V 209.9 c 0,-0.036 -0.128,-0.063 -0.25,-0.063 -0.273,-10e-4 -0.446,0.001 -0.719,0 v -0.906 c 0,-0.036 -0.128,-0.063 -0.25,-0.063 -0.285,-0.001 -0.466,0.001 -0.75,0 v -0.938 c 0,-0.036 -0.128,-0.063 -0.25,-0.063 -0.285,-10e-4 -0.466,0.001 -0.75,0 v -0.938 c 0,-0.036 -0.128,-0.063 -0.25,-0.063 -0.285,-0.001 -0.466,10e-4 -0.75,0 v -0.938 c 0,-0.036 -0.128,-0.063 -0.25,-0.063 -0.285,-0.001 -0.466,0.001 -0.75,0 v -0.938 c 0,-0.036 -0.128,-0.063 -0.25,-0.063 -0.285,-0.001 -0.466,0.001 -0.75,0 v -0.938 c 0,-0.036 -0.128,-0.063 -0.25,-0.063 -0.285,-0.001 -0.466,0.001 -0.75,0 v -0.938 c 0,-0.036 -0.128,-0.063 -0.25,-0.063 -0.273,-0.001 -0.446,0.001 -0.719,0 v -0.906 c 0,-0.036 -0.128,-0.063 -0.25,-0.063 -0.285,-0.001 -0.466,0.001 -0.75,0 v -0.938 c 0,-0.036 -0.128,-0.063 -0.25,-0.063 -0.285,-0.001 -0.466,0.001 -0.75,0 v -0.938 c 0,-0.036 -0.128,-0.063 -0.25,-0.063 -0.285,-0.001 -0.466,0.001 -0.75,0 v -0.938 c 0,-0.036 -0.128,-0.063 -0.25,-0.063 -0.285,-10e-4 -0.466,0.001 -0.75,0 v -0.938 c 0,-0.036 -0.128,-0.063 -0.25,-0.063 -0.285,-0.001 -0.466,10e-4 -0.75,0 v -0.938 c 0,-0.036 -0.128,-0.063 -0.25,-0.063 -0.273,-0.001 -0.446,0.001 -0.719,0 v -0.906 c 0,-0.036 -0.128,-0.063 -0.25,-0.063 -0.285,-0.001 -0.466,10e-4 -0.75,0 v -0.938 c 0,-0.036 -0.128,-0.063 -0.25,-0.063 -0.285,-0.001 -0.466,0.001 -0.75,0 v -0.938 c 0,-0.036 -0.128,-0.063 -0.25,-0.063 -0.285,-0.001 -0.466,0.001 -0.75,0 v -0.938 c 0,-0.036 -0.128,-0.063 -0.25,-0.063 -0.285,-0.001 -0.466,0.001 -0.75,0 v -0.938 c 0,-0.036 -0.128,-0.063 -0.25,-0.063 -0.285,-0.001 -0.466,0.001 -0.75,0 v -0.938 c 0,-0.036 -0.128,-0.063 -0.25,-0.063 -0.273,-10e-4 -0.446,0.001 -0.719,0 v -0.906 c 0,-0.036 -0.128,-0.063 -0.25,-0.063 -0.285,-0.001 -0.466,0.001 -0.75,0 v -0.938 c 0,-0.036 -0.128,-0.063 -0.25,-0.063 -0.285,-10e-4 -0.466,0.001 -0.75,0 v -0.938 c 0,-0.036 -0.128,-0.063 -0.25,-0.063 -0.285,-0.001 -0.466,10e-4 -0.75,0 v -0.938 c 0,-0.036 -0.128,-0.063 -0.25,-0.063 -0.285,-0.001 -0.466,0.001 -0.75,0 v -0.938 c 0,-0.036 -0.128,-0.063 -0.25,-0.063 -0.285,-0.001 -0.466,0.001 -0.75,0 v -0.938 c 0,-0.036 -0.128,-0.063 -0.25,-0.063 -0.285,-0.001 -0.466,0.001 -0.75,0 v -0.938 c 0,-0.036 -0.128,-0.063 -0.25,-0.063 -0.273,-0.001 -0.446,0.001 -0.719,0 v -0.906 c 0,-0.036 -0.128,-0.063 -0.25,-0.063 -0.285,-0.001 -0.466,0.001 -0.75,0 v -0.938 c 0,-0.036 -0.128,-0.063 -0.25,-0.063 -0.285,-0.001 -0.466,0.001 -0.75,0 v -0.938 c 0,-0.036 -0.128,-0.063 -0.25,-0.063 -0.285,-10e-4 -0.466,0.001 -0.75,0 v -0.938 c 0,-0.036 -0.128,-0.063 -0.25,-0.063 -0.285,-0.001 -0.466,10e-4 -0.75,0 v -0.938 c 0,-0.036 -0.128,-0.063 -0.25,-0.063 -0.285,-0.001 -0.466,0.001 -0.75,0 v -0.938 c 0,-0.036 -0.128,-0.063 -0.25,-0.063 -0.273,-0.001 -0.446,0.001 -0.719,0 v -0.906 c 0,-0.036 -0.128,-0.063 -0.25,-0.063 -0.285,-0.001 -0.466,0.001 -0.75,0 v -0.938 c 0,-0.036 -0.128,-0.063 -0.25,-0.063 -0.285,-0.001 -0.466,0.001 -0.75,0 v -0.938 c 0,-0.036 -0.128,-0.063 -0.25,-0.063 -0.285,-0.001 -0.466,0.001 -0.75,0 v -0.938 c 0,-0.036 -0.128,-0.063 -0.25,-0.063 -0.285,-0.001 -0.466,0.001 -0.75,0 v -0.938 c 0,-0.036 -0.128,-0.063 -0.25,-0.063 -0.285,-10e-4 -0.466,0.001 -0.75,0 v -0.938 c 0,-0.036 -0.128,-0.063 -0.25,-0.063 -0.273,-0.001 -0.446,10e-4 -0.719,0 v -0.906 c 0,-0.036 -0.128,-0.063 -0.25,-0.063 -0.285,-0.001 -0.466,0.001 -0.75,0 v -0.938 c 0,-0.036 -0.128,-0.063 -0.25,-0.063 -0.285,-10e-4 -0.466,0.001 -0.75,0 v -0.938 c 0,-0.036 -0.128,-0.063 -0.25,-0.063 -0.285,-0.001 -0.466,10e-4 -0.75,0 v -0.938 c 0,-0.036 -0.128,-0.063 -0.25,-0.063 -0.285,-0.001 -0.466,0.001 -0.75,0 v -0.938 c 0,-0.036 -0.128,-0.063 -0.25,-0.063 -0.285,-0.001 -0.466,0.001 -0.75,0 v -0.938 c 0,-0.036 -0.128,-0.063 -0.25,-0.063 -0.273,-0.001 -0.446,0.001 -0.719,0 v -0.906 c 0,-0.036 -0.128,-0.063 -0.25,-0.063 -0.285,-0.001 -0.466,0.001 -0.75,0 v -0.938 c 0,-0.036 -0.128,-0.063 -0.25,-0.063 -0.285,-0.001 -0.466,0.001 -0.75,0 v -0.938 c 0,-0.036 -0.128,-0.063 -0.25,-0.063 -0.285,-0.001 -0.466,0.001 -0.75,0 v -0.938 c 0,-0.036 -0.128,-0.063 -0.25,-0.063 -57.82,-0.138 -98.83,-0.148 -138.28,-0.125"
       inkscape:connector-curvature="0"
       id="path8"
       style="fill-opacity:0.23500001" />
    <path
       d="M 256,1 C 115.17,1 1,115.17 1,256 1,396.83 115.17,511 256,511 396.83,511 511,396.83 511,256 511,115.17 396.83,1 256,1 m 8.827,44.931 c 120.9,0 218.9,98 218.9,218.9 0,120.9 -98,218.9 -218.9,218.9 -120.9,0 -218.93,-98 -218.93,-218.9 0,-120.9 98.03,-218.9 218.93,-218.9"
       inkscape:connector-curvature="0"
       id="path10"
       style="fill-opacity:0.06700003" />
    <g
       id="g12"
       style="fill-opacity:0.12900002">
      <path
         d="m 256,4.433 c -138.94,0 -251.57,112.63 -251.57,251.57 0,138.94 112.63,251.57 251.57,251.57 138.94,0 251.57,-112.63 251.57,-251.57 C 507.57,117.063 394.94,4.433 256,4.433 m 5.885,38.556 c 120.9,0 218.9,98 218.9,218.9 0,120.9 -98,218.9 -218.9,218.9 -120.9,0 -218.93,-98 -218.93,-218.9 0,-120.9 98.03,-218.9 218.93,-218.9"
         inkscape:connector-curvature="0"
         id="path14" />
      <path
         d="m 256,8.356 c -136.77,0 -247.64,110.87 -247.64,247.64 0,136.77 110.87,247.64 247.64,247.64 136.77,0 247.64,-110.87 247.64,-247.64 C 503.64,119.226 392.77,8.356 256,8.356 m 2.942,31.691 c 120.9,0 218.9,98 218.9,218.9 0,120.9 -98,218.9 -218.9,218.9 -120.9,0 -218.93,-98 -218.93,-218.9 0,-120.9 98.03,-218.9 218.93,-218.9"
         inkscape:connector-curvature="0"
         id="path16" />
    </g>
    <path
       d="m 253.04,7.859 c -135.42,0 -245.19,109.78 -245.19,245.19 0,135.42 109.78,245.19 245.19,245.19 135.42,0 245.19,-109.78 245.19,-245.19 0,-135.42 -109.78,-245.19 -245.19,-245.19 z m 0,26.297 c 120.9,0 218.9,98 218.9,218.9 0,120.9 -98,218.9 -218.9,218.9 -120.9,0 -218.93,-98 -218.93,-218.9 0,-120.9 98.03,-218.9 218.93,-218.9 z"
       inkscape:connector-curvature="0"
       id="path18"
       style="fill:#ffffff;stroke:#000000;stroke-width:4.90399981;stroke-opacity:0.31000001" />
  </g>
  <text
     x="729.64001"
     y="231.36"
     id="text20"
     style="font-size:129.22999573px;line-height:125%;letter-spacing:0;word-spacing:0;font-family:Gentium Book Basic">
    <tspan
       x="729.64001"
       y="231.36"
       id="tspan22" />
  </text>
  <text
     x="378.91"
     y="579.25"
     transform="scale(4.0128,0.2492)"
     id="text24"
     style="font-size:46.95399857px;text-anchor:middle;font-family:Arial" />
  <text
     x="1310.91"
     y="151.36"
     id="text26"
     style="font-size:129.22999573px;line-height:125%;letter-spacing:0;word-spacing:0;font-family:Gentium Book Basic">
    <tspan
       x="1310.91"
       y="151.36"
       id="tspan28" />
  </text>
  <text
     x="523.76001"
     y="258.22"
     transform="scale(4.0128,0.2492)"
     id="text30"
     style="font-size:46.95399857px;text-anchor:middle;font-family:Arial" />
  <text
     x="239.33"
     y="-29.900999"
     id="text32"
     style="font-size:129.22999573px;line-height:125%;letter-spacing:0;word-spacing:0;font-family:Gentium Book Basic">
    <tspan
       x="239.33"
       y="-29.900999"
       id="tspan34" />
  </text>
  <text
     x="256.72"
     y="-469.14001"
     transform="scale(4.0128,0.2492)"
     id="text36"
     style="font-size:46.95399857px;text-anchor:middle;font-family:Arial" />
  <text
     x="1337.38"
     y="-246.37"
     id="text38"
     style="font-size:129.22999573px;line-height:125%;letter-spacing:0;word-spacing:0;font-family:Gentium Book Basic">
    <tspan
       x="1337.38"
       y="-246.37"
       id="tspan40" />
  </text>
  <text
     x="530.35999"
     y="-1337.8101"
     transform="scale(4.0128,0.2492)"
     id="text42"
     style="font-size:46.95399857px;text-anchor:middle;font-family:Arial" />
  <text
     x="1918.65"
     y="-326.38"
     id="text44"
     style="font-size:129.22999573px;line-height:125%;letter-spacing:0;word-spacing:0;font-family:Gentium Book Basic">
    <tspan
       x="1918.65"
       y="-326.38"
       id="tspan46" />
  </text>
  <text
     x="675.21002"
     y="-1658.85"
     transform="scale(4.0128,0.2492)"
     id="text48"
     style="font-size:46.95399857px;text-anchor:middle;font-family:Arial" />
  <text
     x="1529.53"
     y="-798.78003"
     id="text50"
     style="font-size:129.22999573px;line-height:125%;letter-spacing:0;word-spacing:0;font-family:Gentium Book Basic">
    <tspan
       x="1529.53"
       y="-798.78003"
       id="tspan52" />
  </text>
  <text
     x="578.23999"
     y="-3554.51"
     transform="scale(4.0128,0.2492)"
     id="text54"
     style="font-size:46.95399857px;text-anchor:middle;font-family:Arial" />
  <text
     x="2110.79"
     y="-878.78003"
     id="text56"
     style="font-size:129.22999573px;line-height:125%;letter-spacing:0;word-spacing:0;font-family:Gentium Book Basic">
    <tspan
       x="2110.79"
       y="-878.78003"
       id="tspan58" />
  </text>
  <text
     x="723.09003"
     y="-3875.54"
     transform="scale(4.0128,0.2492)"
     id="text60"
     style="font-size:46.95399857px;text-anchor:middle;font-family:Arial" />
  <text
     x="277.98999"
     y="535.94"
     id="text62"
     style="font-size:208.33000183px;line-height:125%;letter-spacing:0;word-spacing:0;font-family:Gentium Book Basic">
    <tspan
       x="277.98999"
       y="535.94"
       id="tspan64" />
  </text>
  <g
     transform="matrix(1.11247,0,0,1.11247,-25.507,-104.2)"
     id="g66"
     style="fill:#ffffff;fill-rule:evenodd">
    <path
       d="m 132.98,280.02 c -0.11,0 -0.204,0.089 -0.204,0.192 v 40.884 22.24 1.647 40.884 22.24 c 0,0.103 0.094,0.192 0.204,0.192 h 240.13 c 0.11,0 0.204,-0.089 0.204,-0.192 v -22.24 -40.884 -1.647 -22.24 -40.884 c 0,-0.103 -0.094,-0.192 -0.204,-0.192 h -87.7 v 1.785 c 0,0.248 -0.011,0.498 -0.029,0.741 0.004,0.098 0,0.203 0,0.302 v 9.143 c 0,5.631 -4.827,10.187 -10.795,10.187 h -43.09 c -5.967,0 -10.766,-4.555 -10.766,-10.187 v -9.143 c 0,-0.171 -0.008,-0.353 0,-0.522 -0.004,-0.072 0.002,-0.147 0,-0.22 -0.003,-0.101 -0.029,-0.201 -0.029,-0.302 v -1.785 h -87.73"
       inkscape:connector-curvature="0"
       id="path68" />
    <path
       d="m 248.81,239.27 c -35.463,0.02 -69.51,0.067 -115.83,0.11 -0.11,0 -0.204,0.022 -0.204,0.055 v 20.538 c 0,0.033 0.094,0.055 0.204,0.055 h 87.73 v -3.515 c 0,-5.586 4.759,-10.1 10.678,-10.1 h 43.35 c 5.92,0 10.678,4.518 10.678,10.1 v 3.515 h 87.7 c 0.11,0 0.204,-0.022 0.204,-0.055 v -20.538 c 0,-0.033 -0.094,-0.055 -0.204,-0.055 -51.974,-0.124 -88.84,-0.13 -124.3,-0.11"
       inkscape:connector-curvature="0"
       id="path70" />
  </g>
</svg>
