<?xml version="1.0" encoding="UTF-8" standalone="no"?>
<!-- Created with Inkscape (http://www.inkscape.org/) -->

<svg
   xmlns:dc="http://purl.org/dc/elements/1.1/"
   xmlns:cc="http://creativecommons.org/ns#"
   xmlns:rdf="http://www.w3.org/1999/02/22-rdf-syntax-ns#"
   xmlns:svg="http://www.w3.org/2000/svg"
   xmlns="http://www.w3.org/2000/svg"
   xmlns:inkscape="http://www.inkscape.org/namespaces/inkscape"
   version="1.1"
   width="100%"
   height="100%"
   viewBox="0 0 512 512"
   id="svg2">
  <metadata
     id="metadata114">
    <rdf:RDF>
      <cc:Work
         rdf:about="">
        <dc:format>image/svg+xml</dc:format>
        <dc:type
           rdf:resource="http://purl.org/dc/dcmitype/StillImage" />
      </cc:Work>
    </rdf:RDF>
  </metadata>
  <defs
     id="defs112" />
  <g
     id="g4"
     style="fill-rule:evenodd">
    <path
       d="m 471.95,253.05 c 0,120.9 -98.01,218.9 -218.9,218.9 -120.9,0 -218.9,-98.01 -218.9,-218.9 0,-120.9 98.01,-218.9 218.9,-218.9 120.9,0 218.9,98.01 218.9,218.9"
       inkscape:connector-curvature="0"
       id="path6"
       style="fill:#6ea6c1" />
    <path
       d="m 256,106 c -82.84,0 -150,67.16 -150,150 0,41.674 16.999,79.38 44.44,106.56 0.494,0.499 0.999,0.977 1.5,1.469 0.005,0.005 -0.005,0.026 0,0.031 0.021,0.02 0.041,0.042 0.063,0.063 0.598,0.609 1.204,1.214 1.813,1.813 0.031,0.031 0.062,0.062 0.094,0.094 0.126,0.124 0.249,0.252 0.375,0.375 0.374,0.378 0.747,0.751 1.125,1.125 0.166,0.167 0.333,0.333 0.5,0.5 0.126,0.124 0.249,0.252 0.375,0.375 0.207,0.209 0.417,0.417 0.625,0.625 0.186,0.179 0.376,0.353 0.563,0.531 0.098,0.1 0.183,0.213 0.281,0.313 0.052,0.052 0.105,0.105 0.156,0.156 0.011,0.01 0.021,0.021 0.031,0.031 0.609,0.62 1.225,1.235 1.844,1.844 0.031,0.031 0.062,0.062 0.094,0.094 0.126,0.124 0.249,0.252 0.375,0.375 0.332,0.335 0.665,0.668 1,1 0.374,0.378 0.747,0.751 1.125,1.125 0.494,0.499 0.999,0.977 1.5,1.469 0.005,0.005 -0.005,0.026 0,0.031 0.021,0.02 0.041,0.042 0.063,0.063 0.469,0.478 0.931,0.966 1.406,1.438 0.461,0.465 0.939,0.916 1.406,1.375 0.031,0.031 0.062,0.062 0.094,0.094 0.126,0.124 0.249,0.252 0.375,0.375 0.374,0.378 0.747,0.751 1.125,1.125 0.166,0.167 0.333,0.333 0.5,0.5 0.184,0.18 0.378,0.352 0.563,0.531 0.149,0.151 0.287,0.319 0.438,0.469 0.186,0.179 0.376,0.353 0.563,0.531 0.098,0.1 0.183,0.213 0.281,0.313 0.052,0.052 0.105,0.105 0.156,0.156 0.011,0.01 0.021,0.021 0.031,0.031 0.609,0.62 1.225,1.235 1.844,1.844 0.031,0.031 0.062,0.062 0.094,0.094 0.126,0.124 0.249,0.252 0.375,0.375 0.374,0.378 0.747,0.751 1.125,1.125 0.166,0.167 0.333,0.333 0.5,0.5 0.126,0.124 0.249,0.252 0.375,0.375 0.207,0.209 0.417,0.417 0.625,0.625 0.186,0.179 0.376,0.353 0.563,0.531 0.098,0.1 0.183,0.213 0.281,0.313 0.052,0.052 0.105,0.105 0.156,0.156 0.011,0.01 0.021,0.021 0.031,0.031 0.609,0.62 1.225,1.235 1.844,1.844 0.031,0.031 0.062,0.062 0.094,0.094 0.126,0.124 0.249,0.252 0.375,0.375 0.285,0.289 0.587,0.557 0.875,0.844 0.113,0.116 0.231,0.228 0.344,0.344 0.306,0.308 0.598,0.632 0.906,0.938 0.494,0.499 0.999,0.977 1.5,1.469 0.005,0.005 -0.005,0.026 0,0.031 0.021,0.02 0.041,0.042 0.063,0.063 0.598,0.609 1.204,1.214 1.813,1.813 0.031,0.031 0.062,0.062 0.094,0.094 0.126,0.124 0.249,0.252 0.375,0.375 0.332,0.335 0.665,0.668 1,1 0.374,0.378 0.747,0.751 1.125,1.125 0.494,0.499 0.999,0.977 1.5,1.469 0.005,0.005 -0.005,0.026 0,0.031 0.186,0.179 0.376,0.353 0.563,0.531 0.098,0.1 0.183,0.213 0.281,0.313 0.073,0.073 0.146,0.146 0.219,0.219 0.598,0.609 1.204,1.214 1.813,1.813 0.031,0.031 0.062,0.062 0.094,0.094 0.126,0.124 0.249,0.252 0.375,0.375 0.374,0.378 0.747,0.751 1.125,1.125 0.166,0.167 0.333,0.333 0.5,0.5 0.126,0.124 0.249,0.252 0.375,0.375 0.207,0.209 0.417,0.417 0.625,0.625 0.186,0.179 0.376,0.353 0.563,0.531 0.098,0.1 0.183,0.213 0.281,0.313 0.052,0.052 0.105,0.105 0.156,0.156 0.011,0.01 0.021,0.021 0.031,0.031 0.609,0.62 1.225,1.235 1.844,1.844 0.031,0.031 0.062,0.062 0.094,0.094 0.126,0.124 0.249,0.252 0.375,0.375 0.374,0.378 0.747,0.751 1.125,1.125 0.166,0.167 0.333,0.333 0.5,0.5 0.126,0.124 0.249,0.252 0.375,0.375 0.207,0.209 0.417,0.417 0.625,0.625 0.186,0.179 0.376,0.353 0.563,0.531 0.098,0.1 0.183,0.213 0.281,0.313 0.052,0.052 0.105,0.105 0.156,0.156 0.011,0.01 0.021,0.021 0.031,0.031 0.609,0.62 1.225,1.235 1.844,1.844 0.031,0.031 0.062,0.062 0.094,0.094 0.126,0.124 0.249,0.252 0.375,0.375 0.332,0.335 0.665,0.668 1,1 0.374,0.378 0.747,0.751 1.125,1.125 0.494,0.499 0.999,0.977 1.5,1.469 0.005,0.005 -0.005,0.026 0,0.031 0.021,0.02 0.041,0.042 0.063,0.063 0.469,0.478 0.931,0.966 1.406,1.438 0.461,0.465 0.939,0.916 1.406,1.375 0.031,0.031 0.062,0.062 0.094,0.094 0.126,0.124 0.249,0.252 0.375,0.375 0.374,0.378 0.747,0.751 1.125,1.125 0.494,0.499 0.999,0.977 1.5,1.469 0.005,0.005 -0.005,0.026 0,0.031 0.186,0.179 0.376,0.353 0.563,0.531 0.098,0.1 0.183,0.213 0.281,0.313 0.073,0.073 0.146,0.146 0.219,0.219 0.598,0.609 1.204,1.214 1.813,1.813 0.031,0.031 0.062,0.062 0.094,0.094 0.126,0.124 0.249,0.252 0.375,0.375 0.374,0.378 0.747,0.751 1.125,1.125 0.166,0.167 0.333,0.333 0.5,0.5 0.126,0.124 0.249,0.252 0.375,0.375 0.207,0.209 0.417,0.417 0.625,0.625 0.186,0.179 0.376,0.353 0.563,0.531 0.098,0.1 0.183,0.213 0.281,0.313 0.052,0.052 0.105,0.105 0.156,0.156 0.011,0.01 0.021,0.021 0.031,0.031 0.609,0.62 1.225,1.235 1.844,1.844 0.031,0.031 0.062,0.062 0.094,0.094 0.126,0.124 0.249,0.252 0.375,0.375 0.285,0.289 0.587,0.557 0.875,0.844 0.113,0.116 0.231,0.228 0.344,0.344 0.306,0.308 0.598,0.632 0.906,0.938 0.494,0.499 0.999,0.977 1.5,1.469 0.005,0.005 -0.005,0.026 0,0.031 0.021,0.02 0.041,0.042 0.063,0.063 0.598,0.609 1.204,1.214 1.813,1.813 0.031,0.031 0.062,0.062 0.094,0.094 0.126,0.124 0.249,0.252 0.375,0.375 0.332,0.335 0.665,0.668 1,1 0.374,0.378 0.747,0.751 1.125,1.125 0.494,0.499 0.999,0.977 1.5,1.469 0.005,0.005 -0.005,0.026 0,0.031 0.186,0.179 0.376,0.353 0.563,0.531 0.098,0.1 0.183,0.213 0.281,0.313 0.073,0.073 0.146,0.146 0.219,0.219 0.598,0.609 1.204,1.214 1.813,1.813 0.031,0.031 0.062,0.062 0.094,0.094 0.126,0.124 0.249,0.252 0.375,0.375 0.374,0.378 0.747,0.751 1.125,1.125 0.166,0.167 0.333,0.333 0.5,0.5 0.184,0.18 0.378,0.352 0.563,0.531 0.149,0.151 0.287,0.319 0.438,0.469 0.186,0.179 0.376,0.353 0.563,0.531 0.098,0.1 0.183,0.213 0.281,0.313 0.052,0.052 0.105,0.105 0.156,0.156 0.011,0.01 0.021,0.021 0.031,0.031 0.609,0.62 1.225,1.235 1.844,1.844 0.031,0.031 0.062,0.062 0.094,0.094 0.126,0.124 0.249,0.252 0.375,0.375 0.374,0.378 0.747,0.751 1.125,1.125 0.166,0.167 0.333,0.333 0.5,0.5 0.126,0.124 0.249,0.252 0.375,0.375 0.207,0.209 0.417,0.417 0.625,0.625 0.186,0.179 0.376,0.353 0.563,0.531 0.098,0.1 0.183,0.213 0.281,0.313 0.052,0.052 0.105,0.105 0.156,0.156 0.011,0.01 0.021,0.021 0.031,0.031 0.609,0.62 1.225,1.235 1.844,1.844 0.031,0.031 0.062,0.062 0.094,0.094 0.126,0.124 0.249,0.252 0.375,0.375 0.332,0.335 0.665,0.668 1,1 0.374,0.378 0.747,0.751 1.125,1.125 0.494,0.499 0.999,0.977 1.5,1.469 0.005,0.005 -0.005,0.026 0,0.031 0.021,0.02 0.041,0.042 0.063,0.063 0.469,0.478 0.931,0.966 1.406,1.438 0.461,0.465 0.939,0.916 1.406,1.375 0.031,0.031 0.062,0.062 0.094,0.094 0.126,0.124 0.249,0.252 0.375,0.375 0.374,0.378 0.747,0.751 1.125,1.125 0.494,0.499 0.999,0.977 1.5,1.469 0.005,0.005 -0.005,0.026 0,0.031 0.186,0.179 0.376,0.353 0.563,0.531 0.098,0.1 0.183,0.213 0.281,0.313 0.073,0.073 0.146,0.146 0.219,0.219 0.413,0.42 0.832,0.835 1.25,1.25 115.59,-3.465 208.66,-96.54 212.13,-212.12 -0.436,-0.439 -0.871,-0.879 -1.313,-1.313 -0.148,-0.154 -0.32,-0.284 -0.469,-0.438 -0.081,-0.085 -0.169,-0.165 -0.25,-0.25 -0.099,-0.098 -0.182,-0.215 -0.281,-0.313 -0.204,-0.212 -0.42,-0.414 -0.625,-0.625 -0.126,-0.124 -0.249,-0.251 -0.375,-0.375 -0.165,-0.168 -0.334,-0.333 -0.5,-0.5 -0.167,-0.166 -0.332,-0.335 -0.5,-0.5 -0.335,-0.335 -0.662,-0.668 -1,-1 -0.65,-0.662 -1.307,-1.319 -1.969,-1.969 -0.15,-0.15 -0.318,-0.288 -0.469,-0.438 -0.081,-0.085 -0.169,-0.165 -0.25,-0.25 -0.104,-0.103 -0.208,-0.21 -0.313,-0.313 -0.179,-0.186 -0.352,-0.378 -0.531,-0.563 -0.146,-0.144 -0.291,-0.294 -0.438,-0.438 -0.165,-0.168 -0.334,-0.333 -0.5,-0.5 -0.167,-0.166 -0.332,-0.335 -0.5,-0.5 -0.335,-0.335 -0.662,-0.668 -1,-1 -0.49,-0.499 -0.972,-1.01 -1.469,-1.5 -0.497,-0.502 -1.027,-0.974 -1.531,-1.469 -0.087,-0.09 -0.163,-0.191 -0.25,-0.281 -0.095,-0.093 -0.186,-0.189 -0.281,-0.281 -0.146,-0.144 -0.291,-0.294 -0.438,-0.438 -0.165,-0.168 -0.334,-0.333 -0.5,-0.5 -0.167,-0.166 -0.332,-0.335 -0.5,-0.5 -0.335,-0.335 -0.662,-0.668 -1,-1 -0.335,-0.335 -0.662,-0.668 -1,-1 -0.65,-0.662 -1.307,-1.319 -1.969,-1.969 -0.148,-0.154 -0.32,-0.284 -0.469,-0.438 -0.081,-0.085 -0.169,-0.165 -0.25,-0.25 -0.099,-0.098 -0.182,-0.215 -0.281,-0.313 -0.204,-0.212 -0.42,-0.414 -0.625,-0.625 -0.126,-0.124 -0.249,-0.251 -0.375,-0.375 -0.165,-0.168 -0.334,-0.333 -0.5,-0.5 -0.167,-0.166 -0.332,-0.335 -0.5,-0.5 -0.335,-0.335 -0.662,-0.668 -1,-1 -0.65,-0.662 -1.307,-1.319 -1.969,-1.969 -0.148,-0.154 -0.32,-0.284 -0.469,-0.438 -0.081,-0.085 -0.169,-0.165 -0.25,-0.25 -0.099,-0.098 -0.182,-0.215 -0.281,-0.313 -0.148,-0.154 -0.32,-0.284 -0.469,-0.438 -0.182,-0.18 -0.349,-0.383 -0.531,-0.563 -0.165,-0.168 -0.334,-0.333 -0.5,-0.5 -0.167,-0.166 -0.332,-0.335 -0.5,-0.5 -0.335,-0.335 -0.662,-0.668 -1,-1 -0.65,-0.662 -1.307,-1.319 -1.969,-1.969 -0.15,-0.15 -0.318,-0.288 -0.469,-0.438 -0.081,-0.085 -0.169,-0.165 -0.25,-0.25 -0.104,-0.103 -0.208,-0.21 -0.313,-0.313 -0.179,-0.186 -0.352,-0.378 -0.531,-0.563 -0.146,-0.144 -0.291,-0.294 -0.438,-0.438 -0.165,-0.168 -0.334,-0.333 -0.5,-0.5 -0.167,-0.166 -0.332,-0.335 -0.5,-0.5 -0.335,-0.335 -0.662,-0.668 -1,-1 -0.335,-0.335 -0.662,-0.668 -1,-1 -0.655,-0.667 -1.333,-1.314 -2,-1.969 -0.087,-0.09 -0.163,-0.191 -0.25,-0.281 -0.095,-0.093 -0.186,-0.189 -0.281,-0.281 -0.146,-0.144 -0.291,-0.294 -0.438,-0.438 -0.165,-0.168 -0.334,-0.333 -0.5,-0.5 -0.167,-0.166 -0.332,-0.335 -0.5,-0.5 -0.276,-0.276 -0.566,-0.539 -0.844,-0.813 -0.058,-0.056 -0.098,-0.131 -0.156,-0.188 -0.335,-0.335 -0.662,-0.668 -1,-1 -0.65,-0.662 -1.307,-1.319 -1.969,-1.969 -0.148,-0.154 -0.32,-0.284 -0.469,-0.438 -0.081,-0.085 -0.169,-0.165 -0.25,-0.25 -0.099,-0.098 -0.182,-0.215 -0.281,-0.313 -0.204,-0.212 -0.42,-0.414 -0.625,-0.625 -0.126,-0.124 -0.249,-0.251 -0.375,-0.375 -0.165,-0.168 -0.334,-0.333 -0.5,-0.5 -0.167,-0.166 -0.332,-0.335 -0.5,-0.5 -0.335,-0.335 -0.662,-0.668 -1,-1 -0.65,-0.662 -1.307,-1.319 -1.969,-1.969 -0.15,-0.15 -0.318,-0.288 -0.469,-0.438 -0.081,-0.085 -0.169,-0.165 -0.25,-0.25 -0.104,-0.103 -0.208,-0.21 -0.313,-0.313 -0.179,-0.186 -0.352,-0.378 -0.531,-0.563 -0.146,-0.144 -0.291,-0.294 -0.438,-0.438 -0.165,-0.168 -0.334,-0.333 -0.5,-0.5 -0.167,-0.166 -0.332,-0.335 -0.5,-0.5 -0.335,-0.335 -0.662,-0.668 -1,-1 -0.49,-0.499 -0.972,-1.01 -1.469,-1.5 -0.497,-0.502 -1.027,-0.974 -1.531,-1.469 -0.092,-0.095 -0.189,-0.186 -0.281,-0.281 -0.089,-0.087 -0.16,-0.194 -0.25,-0.281 -0.146,-0.144 -0.291,-0.294 -0.438,-0.438 -0.165,-0.168 -0.334,-0.333 -0.5,-0.5 -0.167,-0.166 -0.332,-0.335 -0.5,-0.5 -0.335,-0.335 -0.662,-0.668 -1,-1 -0.335,-0.335 -0.662,-0.668 -1,-1 -0.65,-0.662 -1.307,-1.319 -1.969,-1.969 -0.148,-0.154 -0.32,-0.284 -0.469,-0.438 -0.081,-0.085 -0.169,-0.165 -0.25,-0.25 -0.099,-0.098 -0.182,-0.215 -0.281,-0.313 -0.204,-0.212 -0.42,-0.414 -0.625,-0.625 -0.126,-0.124 -0.249,-0.251 -0.375,-0.375 -0.165,-0.168 -0.334,-0.333 -0.5,-0.5 -0.167,-0.166 -0.332,-0.335 -0.5,-0.5 -0.335,-0.335 -0.662,-0.668 -1,-1 -0.65,-0.662 -1.307,-1.319 -1.969,-1.969 -0.148,-0.154 -0.32,-0.284 -0.469,-0.438 -0.081,-0.085 -0.169,-0.165 -0.25,-0.25 -0.099,-0.098 -0.182,-0.215 -0.281,-0.313 -0.204,-0.212 -0.42,-0.414 -0.625,-0.625 -0.126,-0.124 -0.249,-0.251 -0.375,-0.375 -0.165,-0.168 -0.334,-0.333 -0.5,-0.5 -0.167,-0.166 -0.332,-0.335 -0.5,-0.5 -0.335,-0.335 -0.662,-0.668 -1,-1 -0.65,-0.662 -1.307,-1.319 -1.969,-1.969 -0.15,-0.15 -0.318,-0.288 -0.469,-0.438 -0.081,-0.085 -0.169,-0.165 -0.25,-0.25 -0.104,-0.103 -0.208,-0.21 -0.313,-0.313 -0.179,-0.186 -0.352,-0.378 -0.531,-0.563 -0.146,-0.144 -0.291,-0.294 -0.438,-0.438 -0.165,-0.168 -0.334,-0.333 -0.5,-0.5 -0.167,-0.166 -0.332,-0.335 -0.5,-0.5 -0.335,-0.335 -0.662,-0.668 -1,-1 -0.335,-0.335 -0.662,-0.668 -1,-1 -0.655,-0.667 -1.333,-1.314 -2,-1.969 -0.092,-0.095 -0.189,-0.186 -0.281,-0.281 -0.089,-0.087 -0.16,-0.194 -0.25,-0.281 -0.146,-0.144 -0.291,-0.294 -0.438,-0.438 -0.165,-0.168 -0.334,-0.333 -0.5,-0.5 -0.167,-0.166 -0.332,-0.335 -0.5,-0.5 -0.276,-0.276 -0.566,-0.539 -0.844,-0.813 -0.058,-0.056 -0.098,-0.131 -0.156,-0.188 -0.335,-0.335 -0.662,-0.668 -1,-1 -0.65,-0.662 -1.307,-1.319 -1.969,-1.969 -0.148,-0.154 -0.32,-0.284 -0.469,-0.438 -0.081,-0.085 -0.169,-0.165 -0.25,-0.25 -0.099,-0.098 -0.182,-0.215 -0.281,-0.313 -0.204,-0.212 -0.42,-0.414 -0.625,-0.625 -0.126,-0.124 -0.249,-0.251 -0.375,-0.375 -0.165,-0.168 -0.334,-0.333 -0.5,-0.5 -0.167,-0.166 -0.332,-0.335 -0.5,-0.5 -0.335,-0.335 -0.662,-0.668 -1,-1 -0.65,-0.662 -1.307,-1.319 -1.969,-1.969 -0.15,-0.15 -0.318,-0.288 -0.469,-0.438 -0.081,-0.085 -0.169,-0.165 -0.25,-0.25 -0.104,-0.103 -0.208,-0.21 -0.313,-0.313 -0.179,-0.186 -0.352,-0.378 -0.531,-0.563 -0.146,-0.144 -0.291,-0.294 -0.438,-0.438 -0.165,-0.168 -0.334,-0.333 -0.5,-0.5 -0.167,-0.166 -0.332,-0.335 -0.5,-0.5 -0.335,-0.335 -0.662,-0.668 -1,-1 -0.49,-0.499 -0.972,-1.01 -1.469,-1.5 -0.497,-0.502 -1.027,-0.974 -1.531,-1.469 -0.087,-0.09 -0.163,-0.191 -0.25,-0.281 -0.095,-0.093 -0.186,-0.189 -0.281,-0.281 -0.146,-0.144 -0.291,-0.294 -0.438,-0.438 -0.165,-0.168 -0.334,-0.333 -0.5,-0.5 -0.167,-0.166 -0.332,-0.335 -0.5,-0.5 -0.335,-0.335 -0.662,-0.668 -1,-1 -0.335,-0.335 -0.662,-0.668 -1,-1 -0.655,-0.667 -1.333,-1.314 -2,-1.969 -0.092,-0.095 -0.189,-0.186 -0.281,-0.281 -0.089,-0.087 -0.16,-0.194 -0.25,-0.281 -0.146,-0.144 -0.291,-0.294 -0.438,-0.438 -0.165,-0.168 -0.334,-0.333 -0.5,-0.5 -0.167,-0.166 -0.332,-0.335 -0.5,-0.5 -27.14,-27.15 -64.64,-43.938 -106.06,-43.938"
       inkscape:connector-curvature="0"
       id="path8"
       style="fill-opacity:0.23500001" />
  </g>
  <text
     x="-1160.48"
     y="549.52002"
     id="text10"
     style="font-size:208.33000183px;line-height:125%;letter-spacing:0;word-spacing:0;font-family:Gentium Book Basic">
    <tspan
       x="-1160.48"
       y="549.52002"
       id="tspan12" />
  </text>
  <text
     x="28.534"
     y="1642.24"
     transform="scale(4.0128,0.2492)"
     id="text14"
     style="font-size:75.69999695px;text-anchor:middle;font-family:Arial" />
  <text
     x="-454.14001"
     y="393.89001"
     id="text16"
     style="font-size:208.33000183px;line-height:125%;letter-spacing:0;word-spacing:0;font-family:Gentium Book Basic">
    <tspan
       x="-454.14001"
       y="393.89001"
       id="tspan18" />
  </text>
  <text
     x="204.55"
     y="1017.72"
     transform="scale(4.0128,0.2492)"
     id="text20"
     style="font-size:75.69999695px;text-anchor:middle;font-family:Arial" />
  <text
     x="-420.76999"
     y="385.76001"
     id="text22"
     style="font-size:208.33000183px;line-height:125%;letter-spacing:0;word-spacing:0;font-family:Gentium Book Basic">
    <tspan
       x="-420.76999"
       y="385.76001"
       id="tspan24" />
  </text>
  <text
     x="212.87"
     y="985.12"
     transform="scale(4.0128,0.2492)"
     id="text26"
     style="font-size:75.69999695px;text-anchor:middle;font-family:Arial" />
  <text
     x="-1843.1899"
     y="575.20001"
     id="text28"
     style="font-size:208.33000183px;line-height:125%;letter-spacing:0;word-spacing:0;font-family:Gentium Book Basic">
    <tspan
       x="-1843.1899"
       y="575.20001"
       id="tspan30" />
  </text>
  <text
     x="-141.60001"
     y="1745.3101"
     transform="scale(4.0128,0.2492)"
     id="text32"
     style="font-size:75.69999695px;text-anchor:middle;font-family:Arial" />
  <text
     x="-1136.85"
     y="419.57001"
     id="text34"
     style="font-size:208.33000183px;line-height:125%;letter-spacing:0;word-spacing:0;font-family:Gentium Book Basic">
    <tspan
       x="-1136.85"
       y="419.57001"
       id="tspan36" />
  </text>
  <text
     x="34.423"
     y="1120.79"
     transform="scale(4.0128,0.2492)"
     id="text38"
     style="font-size:75.69999695px;text-anchor:middle;font-family:Arial" />
  <text
     x="-1103.47"
     y="411.45001"
     id="text40"
     style="font-size:208.33000183px;line-height:125%;letter-spacing:0;word-spacing:0;font-family:Gentium Book Basic">
    <tspan
       x="-1103.47"
       y="411.45001"
       id="tspan42" />
  </text>
  <text
     x="42.740002"
     y="1088.1899"
     transform="scale(4.0128,0.2492)"
     id="text44"
     style="font-size:75.69999695px;text-anchor:middle;font-family:Arial" />
  <g
     id="g46"
     style="fill-rule:evenodd">
    <path
       d="M 256,1 C 115.17,1 1,115.17 1,256 1,396.83 115.17,511 256,511 396.83,511 511,396.83 511,256 511,115.17 396.83,1 256,1 m 8.827,44.931 c 120.9,0 218.9,98 218.9,218.9 0,120.9 -98,218.9 -218.9,218.9 -120.9,0 -218.93,-98 -218.93,-218.9 0,-120.9 98.03,-218.9 218.93,-218.9"
       inkscape:connector-curvature="0"
       id="path48"
       style="fill-opacity:0.06700003" />
    <g
       id="g50"
       style="fill-opacity:0.12900002">
      <path
         d="m 256,4.433 c -138.94,0 -251.57,112.63 -251.57,251.57 0,138.94 112.63,251.57 251.57,251.57 138.94,0 251.57,-112.63 251.57,-251.57 C 507.57,117.063 394.94,4.433 256,4.433 m 5.885,38.556 c 120.9,0 218.9,98 218.9,218.9 0,120.9 -98,218.9 -218.9,218.9 -120.9,0 -218.93,-98 -218.93,-218.9 0,-120.9 98.03,-218.9 218.93,-218.9"
         inkscape:connector-curvature="0"
         id="path52" />
      <path
         d="m 256,8.356 c -136.77,0 -247.64,110.87 -247.64,247.64 0,136.77 110.87,247.64 247.64,247.64 136.77,0 247.64,-110.87 247.64,-247.64 C 503.64,119.226 392.77,8.356 256,8.356 m 2.942,31.691 c 120.9,0 218.9,98 218.9,218.9 0,120.9 -98,218.9 -218.9,218.9 -120.9,0 -218.93,-98 -218.93,-218.9 0,-120.9 98.03,-218.9 218.93,-218.9"
         inkscape:connector-curvature="0"
         id="path54" />
    </g>
    <path
       d="m 253.04,7.859 c -135.42,0 -245.19,109.78 -245.19,245.19 0,135.42 109.78,245.19 245.19,245.19 135.42,0 245.19,-109.78 245.19,-245.19 0,-135.42 -109.78,-245.19 -245.19,-245.19 z m 0,26.297 c 120.9,0 218.9,98 218.9,218.9 0,120.9 -98,218.9 -218.9,218.9 -120.9,0 -218.93,-98 -218.93,-218.9 0,-120.9 98.03,-218.9 218.93,-218.9 z"
       inkscape:connector-curvature="0"
       id="path56"
       style="fill:#ffffff;stroke:#000000;stroke-width:4.90399981;stroke-opacity:0.31000001" />
  </g>
  <text
     x="729.64001"
     y="231.36"
     id="text58"
     style="font-size:129.22999573px;line-height:125%;letter-spacing:0;word-spacing:0;font-family:Gentium Book Basic">
    <tspan
       x="729.64001"
       y="231.36"
       id="tspan60" />
  </text>
  <text
     x="378.91"
     y="579.25"
     transform="scale(4.0128,0.2492)"
     id="text62"
     style="font-size:46.95399857px;text-anchor:middle;font-family:Arial" />
  <text
     x="1310.91"
     y="151.36"
     id="text64"
     style="font-size:129.22999573px;line-height:125%;letter-spacing:0;word-spacing:0;font-family:Gentium Book Basic">
    <tspan
       x="1310.91"
       y="151.36"
       id="tspan66" />
  </text>
  <text
     x="523.76001"
     y="258.22"
     transform="scale(4.0128,0.2492)"
     id="text68"
     style="font-size:46.95399857px;text-anchor:middle;font-family:Arial" />
  <text
     x="239.33"
     y="-29.900999"
     id="text70"
     style="font-size:129.22999573px;line-height:125%;letter-spacing:0;word-spacing:0;font-family:Gentium Book Basic">
    <tspan
       x="239.33"
       y="-29.900999"
       id="tspan72" />
  </text>
  <text
     x="256.72"
     y="-469.14001"
     transform="scale(4.0128,0.2492)"
     id="text74"
     style="font-size:46.95399857px;text-anchor:middle;font-family:Arial" />
  <text
     x="1337.38"
     y="-246.37"
     id="text76"
     style="font-size:129.22999573px;line-height:125%;letter-spacing:0;word-spacing:0;font-family:Gentium Book Basic">
    <tspan
       x="1337.38"
       y="-246.37"
       id="tspan78" />
  </text>
  <text
     x="530.35999"
     y="-1337.8101"
     transform="scale(4.0128,0.2492)"
     id="text80"
     style="font-size:46.95399857px;text-anchor:middle;font-family:Arial" />
  <text
     x="1918.65"
     y="-326.38"
     id="text82"
     style="font-size:129.22999573px;line-height:125%;letter-spacing:0;word-spacing:0;font-family:Gentium Book Basic">
    <tspan
       x="1918.65"
       y="-326.38"
       id="tspan84" />
  </text>
  <text
     x="675.21002"
     y="-1658.85"
     transform="scale(4.0128,0.2492)"
     id="text86"
     style="font-size:46.95399857px;text-anchor:middle;font-family:Arial" />
  <text
     x="1529.53"
     y="-798.78003"
     id="text88"
     style="font-size:129.22999573px;line-height:125%;letter-spacing:0;word-spacing:0;font-family:Gentium Book Basic">
    <tspan
       x="1529.53"
       y="-798.78003"
       id="tspan90" />
  </text>
  <text
     x="578.23999"
     y="-3554.51"
     transform="scale(4.0128,0.2492)"
     id="text92"
     style="font-size:46.95399857px;text-anchor:middle;font-family:Arial" />
  <text
     x="2110.79"
     y="-878.78003"
     id="text94"
     style="font-size:129.22999573px;line-height:125%;letter-spacing:0;word-spacing:0;font-family:Gentium Book Basic">
    <tspan
       x="2110.79"
       y="-878.78003"
       id="tspan96" />
  </text>
  <text
     x="723.09003"
     y="-3875.54"
     transform="scale(4.0128,0.2492)"
     id="text98"
     style="font-size:46.95399857px;text-anchor:middle;font-family:Arial" />
  <text
     x="277.98999"
     y="535.94"
     id="text100"
     style="font-size:208.33000183px;line-height:125%;letter-spacing:0;word-spacing:0;font-family:Gentium Book Basic">
    <tspan
       x="277.98999"
       y="535.94"
       id="tspan102" />
  </text>
  <g
     id="g104"
     style="fill:#ffffff;fill-rule:evenodd">
    <path
       d="m 256,106 c -82.84,0 -150,67.16 -150,150 0,82.84 67.16,150 150,150 82.84,0 150,-67.16 150,-150 0,-82.84 -67.16,-150 -150,-150 m 0,50.15 c 55.14,0 99.84,44.707 99.84,99.85 0,55.14 -44.703,99.85 -99.84,99.85 -55.14,0 -99.84,-44.707 -99.84,-99.85 0,-55.14 44.703,-99.85 99.84,-99.85"
       inkscape:connector-curvature="0"
       id="path106" />
    <rect
       width="50"
       height="130.13"
       rx="25"
       x="231"
       y="190.94"
       id="rect108" />
  </g>
</svg>
