<?xml version="1.0" encoding="UTF-8" standalone="no"?>
<!-- Created with Inkscape (http://www.inkscape.org/) -->

<svg
   xmlns:dc="http://purl.org/dc/elements/1.1/"
   xmlns:cc="http://creativecommons.org/ns#"
   xmlns:rdf="http://www.w3.org/1999/02/22-rdf-syntax-ns#"
   xmlns:svg="http://www.w3.org/2000/svg"
   xmlns="http://www.w3.org/2000/svg"
   xmlns:sodipodi="http://sodipodi.sourceforge.net/DTD/sodipodi-0.dtd"
   xmlns:inkscape="http://www.inkscape.org/namespaces/inkscape"
   width="512"
   height="512"
   id="svg2"
   version="1.1"
   inkscape:version="0.48.5 r10040"
   sodipodi:docname="xnee.svg">
  <sodipodi:namedview
     id="base"
     pagecolor="#ffffff"
     bordercolor="#666666"
     borderopacity="1.0"
     inkscape:pageopacity="0.0"
     inkscape:pageshadow="2"
     inkscape:zoom="0.98994949"
     inkscape:cx="314.45392"
     inkscape:cy="301.92673"
     inkscape:document-units="px"
     inkscape:current-layer="layer1"
     showgrid="false"
     inkscape:window-width="1307"
     inkscape:window-height="748"
     inkscape:window-x="57"
     inkscape:window-y="-3"
     inkscape:window-maximized="1"
     inkscape:snap-global="false" />
  <defs
     id="defs4">
    <clipPath
       id="clipPath4634"
       clipPathUnits="userSpaceOnUse">
      <path
         id="path4636"
         d="m 471.9456,253.05189 c 0,120.89699 -98.00565,218.90723 -218.90724,218.90723 -120.89698,0 -218.90723,-98.00565 -218.90723,-218.90723 0,-120.89698 98.00565,-218.90723 218.90723,-218.90723 120.89699,0 218.90724,98.00565 218.90724,218.90723"
         inkscape:connector-curvature="0"
         style="fill:#4d4d4d;fill-opacity:1;fill-rule:evenodd" />
    </clipPath>
    <clipPath
       clipPathUnits="userSpaceOnUse"
       id="clipPath4932">
      <path
         id="path4934"
         d="m 471.9456,253.05189 c 0,120.89699 -98.00565,218.90723 -218.90724,218.90723 -120.89698,0 -218.90723,-98.00565 -218.90723,-218.90723 0,-120.89698 98.00565,-218.90723 218.90723,-218.90723 120.89699,0 218.90724,98.00565 218.90724,218.90723"
         inkscape:connector-curvature="0"
         style="fill:#d22828;fill-opacity:1;fill-rule:evenodd" />
    </clipPath>
  </defs>
  <metadata
     id="metadata7">
    <rdf:RDF>
      <cc:Work
         rdf:about="">
        <dc:format>image/svg+xml</dc:format>
        <dc:type
           rdf:resource="http://purl.org/dc/dcmitype/StillImage" />
        <dc:title></dc:title>
      </cc:Work>
    </rdf:RDF>
  </metadata>
  <g
     transform="translate(0,-540.36218)"
     id="layer1"
     inkscape:groupmode="layer"
     inkscape:label="Layer 1">
    <path
       style="fill:#d22828;fill-rule:evenodd;fill-opacity:1"
       inkscape:connector-curvature="0"
       d="m 471.9456,793.41407 c 0,120.89699 -98.00565,218.90723 -218.90724,218.90723 -120.89698,0 -218.90723,-98.00565 -218.90723,-218.90723 0,-120.89698 98.00565,-218.90723 218.90723,-218.90723 120.89699,0 218.90724,98.00565 218.90724,218.90723"
       id="path3010" />
    <path
       style="fill-opacity:0.06700003;fill-rule:evenodd"
       inkscape:connector-curvature="0"
       d="m 256,541.36218 c -140.83,0 -255,114.17 -255,255 0,140.83 114.17,255.00002 255,255.00002 140.83,0 255,-114.17002 255,-255.00002 0,-140.83 -114.17,-255 -255,-255 m 8.827,44.931 c 120.9,0 218.9,98 218.9,218.9 0,120.9 -98,218.90002 -218.9,218.90002 -120.9,0 -218.93,-98.00002 -218.93,-218.90002 0,-120.9 98.03,-218.9 218.93,-218.9"
       id="path3012" />
    <path
       id="path3016"
       d="m 256,544.79218 c -138.94,0 -251.57,112.63 -251.57,251.57 0,138.94 112.63,251.57002 251.57,251.57002 138.94,0 251.57,-112.63002 251.57,-251.57002 0,-138.94 -112.63,-251.57 -251.57,-251.57 m 5.885,38.556 c 120.9,0 218.9,98 218.9,218.9 0,120.9 -98,218.90002 -218.9,218.90002 -120.9,0 -218.93,-98.00002 -218.93,-218.90002 0,-120.9 98.03,-218.9 218.93,-218.9"
       inkscape:connector-curvature="0"
       style="fill-opacity:0.12900002;fill-rule:evenodd" />
    <path
       id="path3018"
       d="m 256,548.72218 c -136.77,0 -247.64,110.87 -247.64,247.64 0,136.77 110.87,247.64002 247.64,247.64002 136.77,0 247.64,-110.87002 247.64,-247.64002 0,-136.77 -110.87,-247.64 -247.64,-247.64 m 2.942,31.691 c 120.9,0 218.9,98 218.9,218.9 0,120.9 -98,218.90002 -218.9,218.90002 -120.9,0 -218.93,-98.00002 -218.93,-218.90002 0,-120.9 98.03,-218.9 218.93,-218.9"
       inkscape:connector-curvature="0"
       style="fill-opacity:0.12900002;fill-rule:evenodd" />
    <path
       style="fill:#ffffff;fill-rule:evenodd;stroke:#000000;stroke-width:4.90399981;stroke-opacity:0.31000001"
       inkscape:connector-curvature="0"
       d="m 253.04,548.22218 c -135.42,0 -245.19,109.78 -245.19,245.19 0,135.42 109.78,245.19002 245.19,245.19002 135.42,0 245.19,-109.78002 245.19,-245.19002 0,-135.42 -109.78,-245.19 -245.19,-245.19 z m 0,26.297 c 120.9,0 218.9,98 218.9,218.9 0,120.9 -98,218.90002 -218.9,218.90002 -120.9,0 -218.93,-98.00002 -218.93,-218.90002 0,-120.9 98.03,-218.9 218.93,-218.9 z"
       id="path3020" />
    <text
       id="text3022"
       y="771.72217"
       x="729.64001"
       word-spacing="0"
       line-height="125%"
       letter-spacing="0"
       font-size="129.23"
       sodipodi:linespacing="125%"
       style="font-size:129.22999573px;line-height:125%;letter-spacing:0;word-spacing:0;font-family:Gentium Book Basic">
      <tspan
         id="tspan3024"
         y="771.72217"
         x="729.64001" />
    </text>
    <text
       id="text3026"
       transform="scale(4.0128205,0.24920128)"
       font-size="46.954"
       y="2747.6345"
       x="378.90805"
       style="font-size:46.95375824px;text-anchor:middle;font-family:Arial" />
    <text
       id="text3028"
       y="691.72217"
       x="1310.91"
       word-spacing="0"
       line-height="125%"
       letter-spacing="0"
       font-size="129.23"
       sodipodi:linespacing="125%"
       style="font-size:129.22999573px;line-height:125%;letter-spacing:0;word-spacing:0;font-family:Gentium Book Basic">
      <tspan
         id="tspan3030"
         y="691.72217"
         x="1310.91" />
    </text>
    <text
       id="text3032"
       transform="scale(4.0128205,0.24920128)"
       font-size="46.954"
       y="2426.5964"
       x="523.75732"
       style="font-size:46.95375824px;text-anchor:middle;font-family:Arial" />
    <text
       id="text3034"
       y="510.46216"
       x="239.33"
       word-spacing="0"
       line-height="125%"
       letter-spacing="0"
       font-size="129.23"
       sodipodi:linespacing="125%"
       style="font-size:129.22999573px;line-height:125%;letter-spacing:0;word-spacing:0;font-family:Gentium Book Basic">
      <tspan
         id="tspan3036"
         y="510.46216"
         x="239.33" />
    </text>
    <text
       id="text3038"
       transform="scale(4.0128205,0.24920128)"
       font-size="46.954"
       y="1699.25"
       x="256.71869"
       style="font-size:46.95375824px;text-anchor:middle;font-family:Arial" />
    <text
       id="text3040"
       y="293.99216"
       x="1337.38"
       word-spacing="0"
       line-height="125%"
       letter-spacing="0"
       font-size="129.23"
       sodipodi:linespacing="125%"
       style="font-size:129.22999573px;line-height:125%;letter-spacing:0;word-spacing:0;font-family:Gentium Book Basic">
      <tspan
         id="tspan3042"
         y="293.99216"
         x="1337.38" />
    </text>
    <text
       id="text3044"
       transform="scale(4.0128205,0.24920128)"
       font-size="46.954"
       y="830.57452"
       x="530.3573"
       style="font-size:46.95375824px;text-anchor:middle;font-family:Arial" />
    <text
       id="text3046"
       y="213.99219"
       x="1918.65"
       word-spacing="0"
       line-height="125%"
       letter-spacing="0"
       font-size="129.23"
       sodipodi:linespacing="125%"
       style="font-size:129.22999573px;line-height:125%;letter-spacing:0;word-spacing:0;font-family:Gentium Book Basic">
      <tspan
         id="tspan3048"
         y="213.99219"
         x="1918.65" />
    </text>
    <text
       id="text3050"
       transform="scale(4.0128205,0.24920128)"
       font-size="46.954"
       y="509.54614"
       x="675.20654"
       style="font-size:46.95375824px;text-anchor:middle;font-family:Arial" />
    <text
       id="text3052"
       y="-258.40784"
       x="1529.53"
       word-spacing="0"
       line-height="125%"
       letter-spacing="0"
       font-size="129.23"
       sodipodi:linespacing="125%"
       style="font-size:129.22999573px;line-height:125%;letter-spacing:0;word-spacing:0;font-family:Gentium Book Basic">
      <tspan
         id="tspan3054"
         y="-258.40784"
         x="1529.53" />
    </text>
    <text
       id="text3056"
       transform="scale(4.0128205,0.24920128)"
       font-size="46.954"
       y="-1386.1041"
       x="578.237"
       style="font-size:46.95375824px;text-anchor:middle;font-family:Arial" />
    <text
       id="text3058"
       y="-338.41785"
       x="2110.79"
       word-spacing="0"
       line-height="125%"
       letter-spacing="0"
       font-size="129.23"
       sodipodi:linespacing="125%"
       style="font-size:129.22999573px;line-height:125%;letter-spacing:0;word-spacing:0;font-family:Gentium Book Basic">
      <tspan
         id="tspan3060"
         y="-338.41785"
         x="2110.79" />
    </text>
    <text
       id="text3062"
       transform="scale(4.0128205,0.24920128)"
       font-size="46.954"
       y="-1707.1426"
       x="723.0863"
       style="font-size:46.95375824px;text-anchor:middle;font-family:Arial" />
    <text
       id="text3064"
       y="1076.3022"
       x="277.98999"
       word-spacing="0"
       line-height="125%"
       letter-spacing="0"
       font-size="208.33"
       sodipodi:linespacing="125%"
       style="font-size:208.33000183px;line-height:125%;letter-spacing:0;word-spacing:0;font-family:Gentium Book Basic">
      <tspan
         id="tspan3066"
         y="1076.3022"
         x="277.98999" />
    </text>
    <text
       sodipodi:linespacing="125%"
       x="1781.4971"
       y="813.07928"
       id="text22"
       style="font-size:129.22999573px;line-height:125%;letter-spacing:0;word-spacing:0;font-family:Gentium Book Basic">
      <tspan
         x="1781.4971"
         y="813.07928"
         id="tspan24" />
    </text>
    <text
       x="641.03217"
       y="2913.5933"
       transform="scale(4.0128205,0.24920128)"
       id="text26"
       style="font-size:46.95375824px;text-anchor:middle;font-family:Arial" />
    <text
       sodipodi:linespacing="125%"
       x="2362.7671"
       y="733.07928"
       id="text28"
       style="font-size:129.22999573px;line-height:125%;letter-spacing:0;word-spacing:0;font-family:Gentium Book Basic">
      <tspan
         x="2362.7671"
         y="733.07928"
         id="tspan30" />
    </text>
    <text
       x="785.88147"
       y="2592.5552"
       transform="scale(4.0128205,0.24920128)"
       id="text32"
       style="font-size:46.95375824px;text-anchor:middle;font-family:Arial" />
    <text
       sodipodi:linespacing="125%"
       x="1291.1871"
       y="551.81934"
       id="text34"
       style="font-size:129.22999573px;line-height:125%;letter-spacing:0;word-spacing:0;font-family:Gentium Book Basic">
      <tspan
         x="1291.1871"
         y="551.81934"
         id="tspan36" />
    </text>
    <text
       x="518.84283"
       y="1865.2089"
       transform="scale(4.0128205,0.24920128)"
       id="text38"
       style="font-size:46.95375824px;text-anchor:middle;font-family:Arial" />
    <text
       sodipodi:linespacing="125%"
       x="2389.2371"
       y="335.3493"
       id="text40"
       style="font-size:129.22999573px;line-height:125%;letter-spacing:0;word-spacing:0;font-family:Gentium Book Basic">
      <tspan
         x="2389.2371"
         y="335.3493"
         id="tspan42" />
    </text>
    <text
       x="792.48138"
       y="996.53333"
       transform="scale(4.0128205,0.24920128)"
       id="text44"
       style="font-size:46.95375824px;text-anchor:middle;font-family:Arial" />
    <text
       sodipodi:linespacing="125%"
       x="2970.5071"
       y="255.34933"
       id="text46"
       style="font-size:129.22999573px;line-height:125%;letter-spacing:0;word-spacing:0;font-family:Gentium Book Basic">
      <tspan
         x="2970.5071"
         y="255.34933"
         id="tspan48" />
    </text>
    <text
       x="937.33069"
       y="675.50494"
       transform="scale(4.0128205,0.24920128)"
       id="text50"
       style="font-size:46.95375824px;text-anchor:middle;font-family:Arial" />
    <text
       sodipodi:linespacing="125%"
       x="2581.3872"
       y="-217.05067"
       id="text52"
       style="font-size:129.22999573px;line-height:125%;letter-spacing:0;word-spacing:0;font-family:Gentium Book Basic">
      <tspan
         x="2581.3872"
         y="-217.05067"
         id="tspan54" />
    </text>
    <text
       x="840.36115"
       y="-1220.1454"
       transform="scale(4.0128205,0.24920128)"
       id="text56"
       style="font-size:46.95375824px;text-anchor:middle;font-family:Arial" />
    <text
       sodipodi:linespacing="125%"
       x="3162.6472"
       y="-297.0607"
       id="text58"
       style="font-size:129.22999573px;line-height:125%;letter-spacing:0;word-spacing:0;font-family:Gentium Book Basic">
      <tspan
         x="3162.6472"
         y="-297.0607"
         id="tspan60" />
    </text>
    <text
       x="985.21045"
       y="-1541.1837"
       transform="scale(4.0128205,0.24920128)"
       id="text62"
       style="font-size:46.95375824px;text-anchor:middle;font-family:Arial" />
    <text
       sodipodi:linespacing="125%"
       x="1329.847"
       y="1117.6594"
       id="text64"
       style="font-size:208.33000183px;line-height:125%;letter-spacing:0;word-spacing:0;font-family:Gentium Book Basic">
      <tspan
         x="1329.847"
         y="1117.6594"
         id="tspan66" />
    </text>
    <g
       style="color:#000000;fill:#000000;fill-opacity:1;fill-rule:evenodd;stroke:none;stroke-width:1px;marker:none;visibility:visible;display:inline;overflow:visible;enable-background:accumulate;opacity:0.25"
       id="g4730"
       transform="translate(0,540.36218)"
       clip-path="url(#clipPath4932)">
      <path
         inkscape:connector-curvature="0"
         d="m 159.125,128.84375 c -16.77075,0 -30.28125,13.5105 -30.28125,30.28125 l 388.90873,388.90873 c 0,-16.77075 13.5105,-30.28125 30.28125,-30.28125 z"
         id="path4732"
         style="fill:#000000" />
      <path
         inkscape:connector-curvature="0"
         d="m 128.84375,159.125 0,193.75 388.90873,388.90873 0,-193.75 z"
         id="path4734"
         style="fill:#000000" />
      <path
         inkscape:connector-curvature="0"
         d="m 128.84375,352.875 c 0,8.50348 3.47344,16.16877 9.08413,21.6597 l 388.90873,388.90873 c -5.61069,-5.49093 -9.08413,-13.15622 -9.08413,-21.6597 z"
         id="path4736"
         style="fill:#000000" />
      <path
         inkscape:connector-curvature="0"
         d="m 137.92788,374.5347 c 5.45484,5.3384 12.92985,8.62155 21.19712,8.62155 l 388.90873,388.90873 c -8.26727,0 -15.74228,-3.28315 -21.19712,-8.62155 z"
         id="path4738"
         style="fill:#000000" />
      <path
         inkscape:connector-curvature="0"
         d="m 159.125,383.15625 193.75,0 388.90873,388.90873 -193.75,0 z"
         id="path4740"
         style="fill:#000000" />
      <path
         inkscape:connector-curvature="0"
         d="m 352.875,383.15625 c 16.77075,0 30.28125,-13.5105 30.28125,-30.28125 l 388.90873,388.90873 c 0,16.77075 -13.5105,30.28125 -30.28125,30.28125 z"
         id="path4742"
         style="fill:#000000" />
      <path
         inkscape:connector-curvature="0"
         d="m 383.15625,352.875 0,-193.75 388.90873,388.90873 0,193.75 z"
         id="path4744"
         style="fill:#000000" />
      <path
         inkscape:connector-curvature="0"
         d="m 383.15625,159.125 c 0,-8.27051 -3.28572,-15.74813 -8.62782,-21.20352 l 388.90873,388.90873 c 5.3421,5.45539 8.62782,12.93301 8.62782,21.20352 z"
         id="path4746"
         style="fill:#000000" />
      <path
         inkscape:connector-curvature="0"
         d="m 374.52843,137.92148 c -5.49049,-5.60693 -13.15319,-9.07773 -21.65343,-9.07773 l 388.90873,388.90873 c 8.50024,0 16.16294,3.4708 21.65343,9.07773 z"
         id="path4748"
         style="fill:#000000" />
      <path
         inkscape:connector-curvature="0"
         d="m 352.875,128.84375 -193.75,0 388.90873,388.90873 193.75,0 z"
         id="path4750"
         style="fill:#000000" />
      <path
         inkscape:connector-curvature="0"
         d="m 193.0625,160.15625 c 9.09965,0 17.34044,3.68691 23.3031,9.64957 l 388.90873,388.90873 c -5.96266,-5.96266 -14.20345,-9.64957 -23.3031,-9.64957 z"
         id="path4752"
         style="fill:#000000" />
      <path
         inkscape:connector-curvature="0"
         d="M 216.3656,169.80582 C 222.31791,175.75813 226,183.9783 226,193.0625 l 388.90873,388.90873 c 0,-9.0842 -3.68209,-17.30437 -9.6344,-23.25668 z"
         id="path4754"
         style="fill:#000000" />
      <path
         inkscape:connector-curvature="0"
         d="M 226,193.0625 C 226,211.24601 211.24671,226 193.0625,226 l 388.90873,388.90873 c 18.18421,0 32.9375,-14.75399 32.9375,-32.9375 z"
         id="path4756"
         style="fill:#000000" />
      <path
         inkscape:connector-curvature="0"
         d="m 193.0625,226 c -9.08403,0 -17.30433,-3.68206 -23.25676,-9.63448 l 388.90873,388.90872 c 5.95243,5.95243 14.17273,9.63449 23.25676,9.63449 z"
         id="path4758"
         style="fill:#000000" />
      <path
         inkscape:connector-curvature="0"
         d="m 169.80574,216.36552 c -5.96255,-5.96255 -9.64949,-14.20319 -9.64949,-23.30302 l 388.90873,388.90873 c 0,9.09982 3.68694,17.34047 9.64949,23.30301 z"
         id="path4760"
         style="fill:#000000" />
      <path
         inkscape:connector-curvature="0"
         d="m 160.15625,193.0625 c 0,-18.18351 14.72205,-32.90625 32.90625,-32.90625 l 388.90873,388.90873 c -18.1842,0 -32.90625,14.72274 -32.90625,32.90625 z"
         id="path4762"
         style="fill:#000000" />
      <path
         inkscape:connector-curvature="0"
         d="m 318.9375,160.15625 c 9.09184,0 17.31847,3.68058 23.27211,9.63422 L 731.11834,558.6992 c -5.95364,-5.95364 -14.18027,-9.63422 -23.27211,-9.63422 z"
         id="path4764"
         style="fill:#000000" />
      <path
         inkscape:connector-curvature="0"
         d="m 342.20961,169.79047 c 5.95352,5.95352 9.63414,14.18002 9.63414,23.27203 l 388.90873,388.90873 c 0,-9.09201 -3.68062,-17.31851 -9.63414,-23.27203 z"
         id="path4766"
         style="fill:#000000" />
      <path
         inkscape:connector-curvature="0"
         d="m 351.84375,193.0625 c 0,18.18351 -14.72204,32.9375 -32.90625,32.9375 l 388.90873,388.90873 c 18.18421,0 32.90625,-14.75399 32.90625,-32.9375 z"
         id="path4768"
         style="fill:#000000" />
      <path
         inkscape:connector-curvature="0"
         d="m 318.9375,226 c -9.09184,0 -17.32628,-3.6884 -23.28773,-9.64985 L 684.5585,605.25888 c 5.96145,5.96145 14.19589,9.64985 23.28773,9.64985 z"
         id="path4770"
         style="fill:#000000" />
      <path
         inkscape:connector-curvature="0"
         d="M 295.64977,216.35015 C 289.68843,210.38882 286,202.15451 286,193.0625 l 388.90873,388.90873 c 0,9.09201 3.68843,17.32632 9.64977,23.28765 z"
         id="path4772"
         style="fill:#000000" />
      <path
         inkscape:connector-curvature="0"
         d="m 286,193.0625 c 0,-18.18351 14.7533,-32.90625 32.9375,-32.90625 l 388.90873,388.90873 c -18.1842,0 -32.9375,14.72274 -32.9375,32.90625 z"
         id="path4774"
         style="fill:#000000" />
      <path
         inkscape:connector-curvature="0"
         d="m 193.0625,286 c 9.09184,0 17.32629,3.68839 23.28774,9.64984 l 388.90873,388.90873 c -5.96145,-5.96145 -14.1959,-9.64984 -23.28774,-9.64984 z"
         id="path4776"
         style="fill:#000000" />
      <path
         inkscape:connector-curvature="0"
         d="M 216.35024,295.64984 C 222.31157,301.61118 226,309.84549 226,318.9375 l 388.90873,388.90873 c 0,-9.09201 -3.68843,-17.32632 -9.64976,-23.28766 z"
         id="path4778"
         style="fill:#000000" />
      <path
         inkscape:connector-curvature="0"
         d="m 226,318.9375 c 0,18.18351 -14.75329,32.90625 -32.9375,32.90625 l 388.90873,388.90873 c 18.18421,0 32.9375,-14.72274 32.9375,-32.90625 z"
         id="path4780"
         style="fill:#000000" />
      <path
         inkscape:connector-curvature="0"
         d="m 193.0625,351.84375 c -9.09184,0 -17.31847,-3.68058 -23.27211,-9.63422 l 388.90873,388.90873 c 5.95364,5.95364 14.18027,9.63422 23.27211,9.63422 z"
         id="path4782"
         style="fill:#000000" />
      <path
         inkscape:connector-curvature="0"
         d="m 169.79039,342.20953 c -5.95352,-5.95353 -9.63414,-14.18002 -9.63414,-23.27203 l 388.90873,388.90873 c 0,9.09201 3.68062,17.3185 9.63414,23.27203 z"
         id="path4784"
         style="fill:#000000" />
      <path
         inkscape:connector-curvature="0"
         d="M 160.15625,318.9375 C 160.15625,300.75399 174.8783,286 193.0625,286 l 388.90873,388.90873 c -18.1842,0 -32.90625,14.75399 -32.90625,32.9375 z"
         id="path4786"
         style="fill:#000000" />
      <path
         inkscape:connector-curvature="0"
         d="m 318.9375,286 c 9.08403,0 17.30434,3.68206 23.25676,9.63448 l 388.90873,388.90873 c -5.95243,-5.95242 -14.17273,-9.63448 -23.25676,-9.63448 z"
         id="path4788"
         style="fill:#000000" />
      <path
         inkscape:connector-curvature="0"
         d="m 342.19426,295.63448 c 5.96255,5.96255 9.64949,14.20319 9.64949,23.30302 l 388.90873,388.90873 c 0,-9.09983 -3.68694,-17.34047 -9.64949,-23.30302 z"
         id="path4790"
         style="fill:#000000" />
      <path
         inkscape:connector-curvature="0"
         d="m 351.84375,318.9375 c 0,18.18351 -14.72204,32.90625 -32.90625,32.90625 l 388.90873,388.90873 c 18.18421,0 32.90625,-14.72274 32.90625,-32.90625 z"
         id="path4792"
         style="fill:#000000" />
      <path
         inkscape:connector-curvature="0"
         d="m 318.9375,351.84375 c -9.09965,0 -17.34043,-3.68691 -23.3031,-9.64957 l 388.90873,388.90873 c 5.96267,5.96266 14.20345,9.64957 23.3031,9.64957 z"
         id="path4794"
         style="fill:#000000" />
      <path
         inkscape:connector-curvature="0"
         d="M 295.6344,342.19418 C 289.68209,336.24187 286,328.0217 286,318.9375 l 388.90873,388.90873 c 0,9.0842 3.68209,17.30437 9.6344,23.25668 z"
         id="path4796"
         style="fill:#000000" />
      <path
         inkscape:connector-curvature="0"
         d="M 286,318.9375 C 286,300.75399 300.7533,286 318.9375,286 l 388.90873,388.90873 c -18.1842,0 -32.9375,14.75399 -32.9375,32.9375 z"
         id="path4798"
         style="fill:#000000" />
    </g>
    <path
       inkscape:connector-curvature="0"
       style="color:#000000;fill:#ffffff;fill-opacity:1;fill-rule:evenodd;stroke:none;stroke-width:1px;marker:none;visibility:visible;display:inline;overflow:visible;enable-background:accumulate"
       d="m 159.125,669.20593 c -16.77075,0 -30.28125,13.5105 -30.28125,30.28125 l 0,193.75 c 0,16.77075 13.5105,30.28125 30.28125,30.28125 l 193.75,0 c 16.77075,0 30.28125,-13.5105 30.28125,-30.28125 l 0,-193.75 c 0,-16.77075 -13.5105,-30.28125 -30.28125,-30.28125 l -193.75,0 z m 33.9375,31.3125 c 18.18351,0 32.9375,14.72205 32.9375,32.90625 0,18.18351 -14.75329,32.9375 -32.9375,32.9375 -18.1835,0 -32.90625,-14.7533 -32.90625,-32.9375 0,-18.18351 14.72205,-32.90625 32.90625,-32.90625 z m 125.875,0 c 18.18351,0 32.90625,14.72205 32.90625,32.90625 0,18.18351 -14.72204,32.9375 -32.90625,32.9375 -18.1835,0 -32.9375,-14.7533 -32.9375,-32.9375 0,-18.18351 14.7533,-32.90625 32.9375,-32.90625 z m -125.875,125.84375 c 18.18351,0 32.9375,14.7533 32.9375,32.9375 0,18.18351 -14.75329,32.90625 -32.9375,32.90625 -18.1835,0 -32.90625,-14.72205 -32.90625,-32.90625 0,-18.18351 14.72205,-32.9375 32.90625,-32.9375 z m 125.875,0 c 18.18351,0 32.90625,14.7533 32.90625,32.9375 0,18.18351 -14.72204,32.90625 -32.90625,32.90625 -18.1835,0 -32.9375,-14.72205 -32.9375,-32.90625 0,-18.18351 14.7533,-32.9375 32.9375,-32.9375 z"
       id="rect4638" />
  </g>
</svg>
