<?xml version="1.0" encoding="UTF-8" standalone="no"?>
<!-- Created with Inkscape (http://www.inkscape.org/) -->

<svg
   xmlns:dc="http://purl.org/dc/elements/1.1/"
   xmlns:cc="http://creativecommons.org/ns#"
   xmlns:rdf="http://www.w3.org/1999/02/22-rdf-syntax-ns#"
   xmlns:svg="http://www.w3.org/2000/svg"
   xmlns="http://www.w3.org/2000/svg"
   xmlns:inkscape="http://www.inkscape.org/namespaces/inkscape"
   version="1.1"
   width="100%"
   height="100%"
   viewBox="0 0 512 512"
   id="svg2">
  <metadata
     id="metadata72">
    <rdf:RDF>
      <cc:Work
         rdf:about="">
        <dc:format>image/svg+xml</dc:format>
        <dc:type
           rdf:resource="http://purl.org/dc/dcmitype/StillImage" />
      </cc:Work>
    </rdf:RDF>
  </metadata>
  <defs
     id="defs70" />
  <g
     id="g4"
     style="fill-rule:evenodd">
    <path
       d="m 471.95,253.05 c 0,120.9 -98.01,218.9 -218.9,218.9 -120.9,0 -218.9,-98.01 -218.9,-218.9 0,-120.9 98.01,-218.9 218.9,-218.9 120.9,0 218.9,98.01 218.9,218.9"
       inkscape:connector-curvature="0"
       id="path6"
       style="fill:#426f83" />
    <path
       d="m 270.53,105.03 c -5.784,0.057 -11.654,0.84 -17.5,2.406 -36.59,9.805 -58.645,46.816 -50.22,83.44 l 9,48.19 -43.28,16.188 c -0.197,0.053 -0.396,0.103 -0.594,0.156 -37.413,10.02 -59.62,48.46 -49.594,85.88 3.446,12.861 10.254,23.925 19.219,32.5 0.332,0.331 0.661,0.676 1,1 0.332,0.331 0.661,0.676 1,1 0.429,0.428 0.841,0.866 1.281,1.281 0.091,0.097 0.189,0.184 0.281,0.281 0.181,0.176 0.349,0.358 0.531,0.531 0.293,0.291 0.577,0.59 0.875,0.875 0.332,0.331 0.661,0.676 1,1 0.332,0.331 0.661,0.676 1,1 0.332,0.331 0.661,0.676 1,1 0.429,0.428 0.841,0.866 1.281,1.281 0.091,0.097 0.189,0.184 0.281,0.281 0.181,0.176 0.349,0.358 0.531,0.531 0.293,0.291 0.577,0.59 0.875,0.875 0.332,0.331 0.661,0.676 1,1 0.332,0.331 0.661,0.676 1,1 0.332,0.331 0.661,0.676 1,1 0.429,0.428 0.841,0.866 1.281,1.281 0.091,0.097 0.189,0.184 0.281,0.281 0.181,0.176 0.349,0.358 0.531,0.531 0.293,0.291 0.577,0.59 0.875,0.875 0.332,0.331 0.661,0.676 1,1 0.332,0.331 0.661,0.676 1,1 0.332,0.331 0.661,0.676 1,1 0.332,0.331 0.661,0.676 1,1 0.326,0.325 0.636,0.651 0.969,0.969 0.378,0.377 0.738,0.757 1.125,1.125 0.293,0.291 0.577,0.59 0.875,0.875 0.332,0.331 0.661,0.676 1,1 0.332,0.331 0.661,0.676 1,1 0.332,0.331 0.661,0.676 1,1 0.429,0.428 0.841,0.866 1.281,1.281 0.091,0.097 0.189,0.184 0.281,0.281 0.181,0.176 0.349,0.358 0.531,0.531 0.293,0.291 0.577,0.59 0.875,0.875 0.332,0.331 0.661,0.676 1,1 0.332,0.331 0.661,0.676 1,1 0.332,0.331 0.661,0.676 1,1 0.429,0.428 0.841,0.866 1.281,1.281 0.091,0.097 0.189,0.184 0.281,0.281 0.181,0.176 0.349,0.358 0.531,0.531 0.293,0.291 0.577,0.59 0.875,0.875 0.332,0.331 0.661,0.676 1,1 0.332,0.331 0.661,0.676 1,1 0.332,0.331 0.661,0.676 1,1 0.429,0.428 0.841,0.866 1.281,1.281 0.233,0.229 0.452,0.462 0.688,0.688 0.378,0.377 0.738,0.757 1.125,1.125 0.293,0.291 0.577,0.59 0.875,0.875 0.332,0.331 0.661,0.676 1,1 0.332,0.331 0.661,0.676 1,1 0.332,0.331 0.661,0.676 1,1 0.429,0.428 0.841,0.866 1.281,1.281 0.091,0.097 0.189,0.184 0.281,0.281 0.181,0.176 0.349,0.358 0.531,0.531 0.293,0.291 0.577,0.59 0.875,0.875 0.332,0.331 0.661,0.676 1,1 0.332,0.331 0.661,0.676 1,1 0.332,0.331 0.661,0.676 1,1 0.429,0.428 0.841,0.866 1.281,1.281 0.091,0.097 0.189,0.184 0.281,0.281 0.181,0.176 0.349,0.358 0.531,0.531 0.293,0.291 0.577,0.59 0.875,0.875 0.332,0.331 0.661,0.676 1,1 0.332,0.331 0.661,0.676 1,1 0.332,0.331 0.661,0.676 1,1 0.429,0.428 0.841,0.866 1.281,1.281 0.091,0.097 0.189,0.184 0.281,0.281 0.181,0.176 0.349,0.358 0.531,0.531 0.293,0.291 0.577,0.59 0.875,0.875 0.332,0.331 0.661,0.676 1,1 0.332,0.331 0.661,0.676 1,1 0.332,0.331 0.661,0.676 1,1 0.332,0.331 0.661,0.676 1,1 0.326,0.325 0.636,0.651 0.969,0.969 0.378,0.377 0.738,0.757 1.125,1.125 0.293,0.291 0.577,0.59 0.875,0.875 0.332,0.331 0.661,0.676 1,1 0.332,0.331 0.661,0.676 1,1 0.332,0.331 0.661,0.676 1,1 0.429,0.428 0.841,0.866 1.281,1.281 0.091,0.097 0.189,0.184 0.281,0.281 0.181,0.176 0.349,0.358 0.531,0.531 0.293,0.291 0.577,0.59 0.875,0.875 0.332,0.331 0.661,0.676 1,1 0.332,0.331 0.661,0.676 1,1 0.332,0.331 0.661,0.676 1,1 0.429,0.428 0.841,0.866 1.281,1.281 0.091,0.097 0.189,0.184 0.281,0.281 0.181,0.176 0.349,0.358 0.531,0.531 0.293,0.291 0.577,0.59 0.875,0.875 0.332,0.331 0.661,0.676 1,1 0.332,0.331 0.661,0.676 1,1 0.332,0.331 0.661,0.676 1,1 0.429,0.428 0.841,0.866 1.281,1.281 0.233,0.229 0.452,0.462 0.688,0.688 0.378,0.377 0.738,0.757 1.125,1.125 0.293,0.291 0.577,0.59 0.875,0.875 0.332,0.331 0.661,0.676 1,1 0.332,0.331 0.661,0.676 1,1 0.332,0.331 0.661,0.676 1,1 0.429,0.428 0.841,0.866 1.281,1.281 0.091,0.097 0.189,0.184 0.281,0.281 0.181,0.176 0.349,0.358 0.531,0.531 0.293,0.291 0.577,0.59 0.875,0.875 0.332,0.331 0.661,0.676 1,1 0.332,0.331 0.661,0.676 1,1 0.332,0.331 0.661,0.676 1,1 0.429,0.428 0.841,0.866 1.281,1.281 0.091,0.097 0.189,0.184 0.281,0.281 0.117,0.114 0.23,0.229 0.344,0.344 5.947,0.485 11.959,0.75 18.03,0.75 113.28,0 206.45,-86.05 217.75,-196.34 -0.239,-0.25 -0.473,-0.505 -0.719,-0.75 -0.01,-0.011 -0.021,-0.021 -0.031,-0.031 -0.095,-0.091 -0.186,-0.191 -0.281,-0.281 -0.227,-0.233 -0.458,-0.458 -0.688,-0.688 -0.01,-0.011 -0.021,-0.021 -0.031,-0.031 -0.011,-0.01 -0.021,-0.021 -0.031,-0.031 -0.303,-0.314 -0.629,-0.598 -0.938,-0.906 -0.325,-0.339 -0.668,-0.668 -1,-1 -0.325,-0.339 -0.668,-0.668 -1,-1 -0.328,-0.341 -0.666,-0.666 -1,-1 -0.323,-0.336 -0.64,-0.671 -0.969,-1 -0.01,-0.011 -0.021,-0.021 -0.031,-0.031 -0.095,-0.091 -0.186,-0.191 -0.281,-0.281 -0.227,-0.233 -0.458,-0.458 -0.688,-0.688 -0.01,-0.011 -0.021,-0.021 -0.031,-0.031 -0.011,-0.01 -0.021,-0.021 -0.031,-0.031 -0.303,-0.314 -0.629,-0.598 -0.938,-0.906 -0.325,-0.339 -0.668,-0.668 -1,-1 -0.325,-0.339 -0.668,-0.668 -1,-1 -0.325,-0.339 -0.668,-0.668 -1,-1 -0.328,-0.341 -0.666,-0.666 -1,-1 -0.325,-0.339 -0.637,-0.668 -0.969,-1 -0.01,-0.011 -0.021,-0.021 -0.031,-0.031 -0.011,-0.01 -0.021,-0.021 -0.031,-0.031 -0.308,-0.319 -0.624,-0.624 -0.938,-0.938 -0.323,-0.336 -0.671,-0.64 -1,-0.969 -0.325,-0.339 -0.668,-0.668 -1,-1 -0.325,-0.339 -0.668,-0.668 -1,-1 -0.328,-0.341 -0.666,-0.666 -1,-1 -0.323,-0.336 -0.64,-0.671 -0.969,-1 -0.01,-0.011 -0.021,-0.021 -0.031,-0.031 -0.095,-0.091 -0.186,-0.191 -0.281,-0.281 -0.227,-0.233 -0.458,-0.458 -0.688,-0.688 -0.01,-0.011 -0.021,-0.021 -0.031,-0.031 -0.011,-0.01 -0.021,-0.021 -0.031,-0.031 -0.303,-0.314 -0.629,-0.598 -0.938,-0.906 -0.325,-0.339 -0.668,-0.668 -1,-1 -0.325,-0.339 -0.668,-0.668 -1,-1 -0.328,-0.341 -0.666,-0.666 -1,-1 -0.323,-0.336 -0.64,-0.671 -0.969,-1 -0.01,-0.011 -0.021,-0.021 -0.031,-0.031 -0.095,-0.091 -0.186,-0.191 -0.281,-0.281 -0.227,-0.233 -0.458,-0.458 -0.688,-0.688 -0.01,-0.011 -0.021,-0.021 -0.031,-0.031 -0.011,-0.01 -0.021,-0.021 -0.031,-0.031 -0.303,-0.314 -0.629,-0.598 -0.938,-0.906 -0.325,-0.339 -0.668,-0.668 -1,-1 -0.325,-0.339 -0.668,-0.668 -1,-1 -0.328,-0.341 -0.666,-0.666 -1,-1 -0.323,-0.336 -0.64,-0.671 -0.969,-1 -0.01,-0.011 -0.021,-0.021 -0.031,-0.031 -0.095,-0.091 -0.186,-0.191 -0.281,-0.281 -0.227,-0.233 -0.458,-0.458 -0.688,-0.688 -0.01,-0.011 -0.021,-0.021 -0.031,-0.031 -0.011,-0.01 -0.021,-0.021 -0.031,-0.031 -0.303,-0.314 -0.629,-0.598 -0.938,-0.906 -0.325,-0.339 -0.668,-0.668 -1,-1 -0.325,-0.339 -0.668,-0.668 -1,-1 -0.325,-0.339 -0.668,-0.668 -1,-1 -0.328,-0.341 -0.666,-0.666 -1,-1 -0.325,-0.339 -0.637,-0.668 -0.969,-1 -0.01,-0.011 -0.021,-0.021 -0.031,-0.031 -0.011,-0.01 -0.021,-0.021 -0.031,-0.031 -0.308,-0.319 -0.624,-0.624 -0.938,-0.938 -0.323,-0.336 -0.671,-0.64 -1,-0.969 -0.325,-0.339 -0.668,-0.668 -1,-1 -0.325,-0.339 -0.668,-0.668 -1,-1 -0.328,-0.341 -0.666,-0.666 -1,-1 -0.323,-0.336 -0.64,-0.671 -0.969,-1 -0.01,-0.011 -0.021,-0.021 -0.031,-0.031 -0.095,-0.091 -0.186,-0.191 -0.281,-0.281 -0.227,-0.233 -0.458,-0.458 -0.688,-0.688 -0.01,-0.011 -0.021,-0.021 -0.031,-0.031 -0.011,-0.01 -0.021,-0.021 -0.031,-0.031 -0.303,-0.314 -0.629,-0.598 -0.938,-0.906 -0.325,-0.339 -0.668,-0.668 -1,-1 -0.325,-0.339 -0.668,-0.668 -1,-1 -0.328,-0.341 -0.666,-0.666 -1,-1 -0.323,-0.336 -0.64,-0.671 -0.969,-1 -0.01,-0.011 -0.021,-0.021 -0.031,-0.031 -0.095,-0.091 -0.186,-0.191 -0.281,-0.281 -0.227,-0.233 -0.458,-0.458 -0.688,-0.688 -0.01,-0.011 -0.021,-0.021 -0.031,-0.031 -0.011,-0.01 -0.021,-0.021 -0.031,-0.031 -0.303,-0.314 -0.629,-0.598 -0.938,-0.906 -0.325,-0.339 -0.668,-0.668 -1,-1 -0.325,-0.339 -0.668,-0.668 -1,-1 -0.325,-0.339 -0.668,-0.668 -1,-1 -0.328,-0.341 -0.666,-0.666 -1,-1 -0.325,-0.339 -0.637,-0.668 -0.969,-1 -0.01,-0.011 -0.021,-0.021 -0.031,-0.031 -0.006,-0.005 -0.026,0.005 -0.031,0 -0.308,-0.32 -0.624,-0.624 -0.938,-0.938 -0.325,-0.339 -0.668,-0.668 -1,-1 -0.325,-0.339 -0.668,-0.668 -1,-1 -0.325,-0.339 -0.668,-0.668 -1,-1 -0.328,-0.341 -0.666,-0.666 -1,-1 -0.323,-0.336 -0.64,-0.671 -0.969,-1 -0.01,-0.011 -0.021,-0.021 -0.031,-0.031 -0.096,-0.092 -0.185,-0.19 -0.281,-0.281 -0.227,-0.233 -0.458,-0.458 -0.688,-0.688 -0.01,-0.011 -0.021,-0.021 -0.031,-0.031 -0.011,-0.01 -0.021,-0.021 -0.031,-0.031 -0.303,-0.314 -0.629,-0.598 -0.938,-0.906 -0.325,-0.339 -0.668,-0.668 -1,-1 -0.325,-0.339 -0.668,-0.668 -1,-1 -0.328,-0.341 -0.666,-0.666 -1,-1 -0.323,-0.336 -0.64,-0.671 -0.969,-1 -0.01,-0.011 -0.021,-0.021 -0.031,-0.031 -0.095,-0.091 -0.186,-0.191 -0.281,-0.281 -0.227,-0.233 -0.458,-0.458 -0.688,-0.688 -0.01,-0.011 -0.021,-0.021 -0.031,-0.031 -0.011,-0.01 -0.021,-0.021 -0.031,-0.031 -0.303,-0.314 -0.629,-0.598 -0.938,-0.906 -0.325,-0.339 -0.668,-0.668 -1,-1 -0.325,-0.339 -0.668,-0.668 -1,-1 -0.328,-0.341 -0.666,-0.666 -1,-1 -0.323,-0.336 -0.64,-0.671 -0.969,-1 -0.01,-0.011 -0.021,-0.021 -0.031,-0.031 -0.095,-0.091 -0.186,-0.191 -0.281,-0.281 -0.227,-0.233 -0.458,-0.458 -0.688,-0.688 -0.01,-0.011 -0.021,-0.021 -0.031,-0.031 -0.011,-0.01 -0.021,-0.021 -0.031,-0.031 -0.303,-0.314 -0.629,-0.598 -0.938,-0.906 -0.325,-0.339 -0.668,-0.668 -1,-1 -0.325,-0.339 -0.668,-0.668 -1,-1 -0.325,-0.339 -0.668,-0.668 -1,-1 -0.328,-0.341 -0.666,-0.666 -1,-1 -0.325,-0.339 -0.637,-0.668 -0.969,-1 -0.01,-0.011 -0.021,-0.021 -0.031,-0.031 -0.011,-0.01 -0.021,-0.021 -0.031,-0.031 -0.308,-0.319 -0.624,-0.624 -0.938,-0.938 -0.323,-0.336 -0.671,-0.64 -1,-0.969 -0.325,-0.339 -0.668,-0.668 -1,-1 -0.325,-0.339 -0.668,-0.668 -1,-1 -0.328,-0.341 -0.666,-0.666 -1,-1 -0.323,-0.336 -0.64,-0.671 -0.969,-1 -0.01,-0.011 -0.021,-0.021 -0.031,-0.031 -0.095,-0.091 -0.186,-0.191 -0.281,-0.281 -0.227,-0.233 -0.458,-0.458 -0.688,-0.688 -0.01,-0.011 -0.021,-0.021 -0.031,-0.031 -0.011,-0.01 -0.021,-0.021 -0.031,-0.031 -0.303,-0.314 -0.629,-0.598 -0.938,-0.906 -0.325,-0.339 -0.668,-0.668 -1,-1 -0.325,-0.339 -0.668,-0.668 -1,-1 -0.328,-0.341 -0.666,-0.666 -1,-1 -0.323,-0.336 -0.64,-0.671 -0.969,-1 -0.01,-0.011 -0.021,-0.021 -0.031,-0.031 -0.095,-0.091 -0.186,-0.191 -0.281,-0.281 -0.227,-0.233 -0.458,-0.458 -0.688,-0.688 -0.01,-0.011 -0.021,-0.021 -0.031,-0.031 -0.011,-0.01 -0.021,-0.021 -0.031,-0.031 -0.303,-0.314 -0.629,-0.598 -0.938,-0.906 -0.325,-0.339 -0.668,-0.668 -1,-1 -0.325,-0.339 -0.668,-0.668 -1,-1 -0.328,-0.341 -0.666,-0.666 -1,-1 -0.323,-0.336 -0.64,-0.671 -0.969,-1 -0.01,-0.011 -0.021,-0.021 -0.031,-0.031 -0.095,-0.091 -0.186,-0.191 -0.281,-0.281 -0.227,-0.233 -0.458,-0.458 -0.688,-0.688 -0.01,-0.011 -0.021,-0.021 -0.031,-0.031 -0.011,-0.01 -0.021,-0.021 -0.031,-0.031 -0.303,-0.314 -0.629,-0.598 -0.938,-0.906 -0.325,-0.339 -0.668,-0.668 -1,-1 -0.325,-0.339 -0.668,-0.668 -1,-1 -0.325,-0.339 -0.668,-0.668 -1,-1 -0.328,-0.341 -0.666,-0.666 -1,-1 -0.325,-0.339 -0.637,-0.668 -0.969,-1 -0.01,-0.011 -0.021,-0.021 -0.031,-0.031 -0.006,-0.005 -0.026,0.005 -0.031,0 -0.313,-0.325 -0.619,-0.65 -0.938,-0.969 -0.323,-0.336 -0.671,-0.64 -1,-0.969 -0.325,-0.339 -0.668,-0.668 -1,-1 -0.325,-0.339 -0.668,-0.668 -1,-1 -0.328,-0.341 -0.666,-0.666 -1,-1 -0.323,-0.336 -0.64,-0.671 -0.969,-1 -0.01,-0.011 -0.021,-0.021 -0.031,-0.031 -0.095,-0.091 -0.186,-0.191 -0.281,-0.281 -0.227,-0.233 -0.458,-0.458 -0.688,-0.688 -0.01,-0.011 -0.021,-0.021 -0.031,-0.031 -0.011,-0.01 -0.021,-0.021 -0.031,-0.031 -0.303,-0.314 -0.629,-0.598 -0.938,-0.906 -0.325,-0.339 -0.668,-0.668 -1,-1 -0.325,-0.339 -0.668,-0.668 -1,-1 -0.328,-0.341 -0.666,-0.666 -1,-1 -0.323,-0.336 -0.64,-0.671 -0.969,-1 -0.01,-0.011 -0.021,-0.021 -0.031,-0.031 -0.095,-0.091 -0.186,-0.191 -0.281,-0.281 -0.227,-0.233 -0.458,-0.458 -0.688,-0.688 -0.01,-0.011 -0.021,-0.021 -0.031,-0.031 -0.011,-0.01 -0.021,-0.021 -0.031,-0.031 -0.303,-0.314 -0.629,-0.598 -0.938,-0.906 -0.325,-0.339 -0.668,-0.668 -1,-1 -0.325,-0.339 -0.668,-0.668 -1,-1 -0.325,-0.339 -0.668,-0.668 -1,-1 -0.328,-0.341 -0.666,-0.666 -1,-1 -0.325,-0.339 -0.637,-0.668 -0.969,-1 -0.01,-0.011 -0.021,-0.021 -0.031,-0.031 -0.011,-0.01 -0.021,-0.021 -0.031,-0.031 -0.308,-0.319 -0.624,-0.624 -0.938,-0.938 -0.323,-0.336 -0.671,-0.64 -1,-0.969 -0.325,-0.339 -0.668,-0.668 -1,-1 -0.325,-0.339 -0.668,-0.668 -1,-1 -0.328,-0.341 -0.666,-0.666 -1,-1 -0.323,-0.336 -0.64,-0.671 -0.969,-1 -0.01,-0.011 -0.021,-0.021 -0.031,-0.031 -0.095,-0.091 -0.186,-0.191 -0.281,-0.281 -0.227,-0.233 -0.458,-0.458 -0.688,-0.688 -0.01,-0.011 -0.021,-0.021 -0.031,-0.031 -0.011,-0.01 -0.021,-0.021 -0.031,-0.031 -0.303,-0.314 -0.629,-0.598 -0.938,-0.906 -0.325,-0.339 -0.668,-0.668 -1,-1 -0.325,-0.339 -0.668,-0.668 -1,-1 -0.328,-0.341 -0.666,-0.666 -1,-1 -0.323,-0.336 -0.64,-0.671 -0.969,-1 -0.01,-0.011 -0.021,-0.021 -0.031,-0.031 -0.095,-0.091 -0.186,-0.191 -0.281,-0.281 -0.227,-0.233 -0.458,-0.458 -0.688,-0.688 -0.01,-0.011 -0.021,-0.021 -0.031,-0.031 -0.011,-0.01 -0.021,-0.021 -0.031,-0.031 -0.303,-0.314 -0.629,-0.598 -0.938,-0.906 -0.325,-0.339 -0.668,-0.668 -1,-1 -0.325,-0.339 -0.668,-0.668 -1,-1 -0.328,-0.341 -0.666,-0.666 -1,-1 -0.323,-0.336 -0.64,-0.671 -0.969,-1 -0.01,-0.011 -0.021,-0.021 -0.031,-0.031 -0.095,-0.091 -0.186,-0.191 -0.281,-0.281 -0.227,-0.233 -0.458,-0.458 -0.688,-0.688 -0.01,-0.011 -0.021,-0.021 -0.031,-0.031 -0.011,-0.01 -0.021,-0.021 -0.031,-0.031 -0.303,-0.314 -0.629,-0.598 -0.938,-0.906 -0.325,-0.339 -0.668,-0.668 -1,-1 -0.325,-0.339 -0.668,-0.668 -1,-1 -0.325,-0.339 -0.668,-0.668 -1,-1 -13.213,-13.756 -31.728,-21.786 -51.25,-21.594"
       inkscape:connector-curvature="0"
       id="path8"
       style="fill-opacity:0.23500001" />
    <path
       d="M 256,1 C 115.17,1 1,115.17 1,256 1,396.83 115.17,511 256,511 396.83,511 511,396.83 511,256 511,115.17 396.83,1 256,1 m 8.827,44.931 c 120.9,0 218.9,98 218.9,218.9 0,120.9 -98,218.9 -218.9,218.9 -120.9,0 -218.93,-98 -218.93,-218.9 0,-120.9 98.03,-218.9 218.93,-218.9"
       inkscape:connector-curvature="0"
       id="path10"
       style="fill-opacity:0.06700003" />
    <g
       id="g12"
       style="fill-opacity:0.12900002">
      <path
         d="m 256,4.433 c -138.94,0 -251.57,112.63 -251.57,251.57 0,138.94 112.63,251.57 251.57,251.57 138.94,0 251.57,-112.63 251.57,-251.57 C 507.57,117.063 394.94,4.433 256,4.433 m 5.885,38.556 c 120.9,0 218.9,98 218.9,218.9 0,120.9 -98,218.9 -218.9,218.9 -120.9,0 -218.93,-98 -218.93,-218.9 0,-120.9 98.03,-218.9 218.93,-218.9"
         inkscape:connector-curvature="0"
         id="path14" />
      <path
         d="m 256,8.356 c -136.77,0 -247.64,110.87 -247.64,247.64 0,136.77 110.87,247.64 247.64,247.64 136.77,0 247.64,-110.87 247.64,-247.64 C 503.64,119.226 392.77,8.356 256,8.356 m 2.942,31.691 c 120.9,0 218.9,98 218.9,218.9 0,120.9 -98,218.9 -218.9,218.9 -120.9,0 -218.93,-98 -218.93,-218.9 0,-120.9 98.03,-218.9 218.93,-218.9"
         inkscape:connector-curvature="0"
         id="path16" />
    </g>
    <path
       d="m 253.04,7.859 c -135.42,0 -245.19,109.78 -245.19,245.19 0,135.42 109.78,245.19 245.19,245.19 135.42,0 245.19,-109.78 245.19,-245.19 0,-135.42 -109.78,-245.19 -245.19,-245.19 z m 0,26.297 c 120.9,0 218.9,98 218.9,218.9 0,120.9 -98,218.9 -218.9,218.9 -120.9,0 -218.93,-98 -218.93,-218.9 0,-120.9 98.03,-218.9 218.93,-218.9 z"
       inkscape:connector-curvature="0"
       id="path18"
       style="fill:#ffffff;stroke:#000000;stroke-width:4.90399981;stroke-opacity:0.31000001" />
  </g>
  <text
     x="729.64001"
     y="231.36"
     id="text20"
     style="font-size:129.22999573px;line-height:125%;letter-spacing:0;word-spacing:0;font-family:Gentium Book Basic">
    <tspan
       x="729.64001"
       y="231.36"
       id="tspan22" />
  </text>
  <text
     x="378.91"
     y="579.25"
     transform="scale(4.0128,0.2492)"
     id="text24"
     style="font-size:46.95399857px;text-anchor:middle;font-family:Arial" />
  <text
     x="1310.91"
     y="151.36"
     id="text26"
     style="font-size:129.22999573px;line-height:125%;letter-spacing:0;word-spacing:0;font-family:Gentium Book Basic">
    <tspan
       x="1310.91"
       y="151.36"
       id="tspan28" />
  </text>
  <text
     x="523.76001"
     y="258.22"
     transform="scale(4.0128,0.2492)"
     id="text30"
     style="font-size:46.95399857px;text-anchor:middle;font-family:Arial" />
  <text
     x="239.33"
     y="-29.900999"
     id="text32"
     style="font-size:129.22999573px;line-height:125%;letter-spacing:0;word-spacing:0;font-family:Gentium Book Basic">
    <tspan
       x="239.33"
       y="-29.900999"
       id="tspan34" />
  </text>
  <text
     x="256.72"
     y="-469.14001"
     transform="scale(4.0128,0.2492)"
     id="text36"
     style="font-size:46.95399857px;text-anchor:middle;font-family:Arial" />
  <text
     x="1337.38"
     y="-246.37"
     id="text38"
     style="font-size:129.22999573px;line-height:125%;letter-spacing:0;word-spacing:0;font-family:Gentium Book Basic">
    <tspan
       x="1337.38"
       y="-246.37"
       id="tspan40" />
  </text>
  <text
     x="530.35999"
     y="-1337.8101"
     transform="scale(4.0128,0.2492)"
     id="text42"
     style="font-size:46.95399857px;text-anchor:middle;font-family:Arial" />
  <text
     x="1918.65"
     y="-326.38"
     id="text44"
     style="font-size:129.22999573px;line-height:125%;letter-spacing:0;word-spacing:0;font-family:Gentium Book Basic">
    <tspan
       x="1918.65"
       y="-326.38"
       id="tspan46" />
  </text>
  <text
     x="675.21002"
     y="-1658.85"
     transform="scale(4.0128,0.2492)"
     id="text48"
     style="font-size:46.95399857px;text-anchor:middle;font-family:Arial" />
  <text
     x="1529.53"
     y="-798.78003"
     id="text50"
     style="font-size:129.22999573px;line-height:125%;letter-spacing:0;word-spacing:0;font-family:Gentium Book Basic">
    <tspan
       x="1529.53"
       y="-798.78003"
       id="tspan52" />
  </text>
  <text
     x="578.23999"
     y="-3554.51"
     transform="scale(4.0128,0.2492)"
     id="text54"
     style="font-size:46.95399857px;text-anchor:middle;font-family:Arial" />
  <text
     x="2110.79"
     y="-878.78003"
     id="text56"
     style="font-size:129.22999573px;line-height:125%;letter-spacing:0;word-spacing:0;font-family:Gentium Book Basic">
    <tspan
       x="2110.79"
       y="-878.78003"
       id="tspan58" />
  </text>
  <text
     x="723.09003"
     y="-3875.54"
     transform="scale(4.0128,0.2492)"
     id="text60"
     style="font-size:46.95399857px;text-anchor:middle;font-family:Arial" />
  <text
     x="277.98999"
     y="535.94"
     id="text62"
     style="font-size:208.33000183px;line-height:125%;letter-spacing:0;word-spacing:0;font-family:Gentium Book Basic">
    <tspan
       x="277.98999"
       y="535.94"
       id="tspan64" />
  </text>
  <path
     d="m 118.34,341.29 c 10.02,37.413 48.48,59.61 85.89,49.589 36.59,-9.804 58.63,-46.795 50.2,-83.42 l -9.735,-49.28 44.24,-15.15 c 0.129,-0.034 0.258,-0.069 0.387,-0.104 3.318,-0.889 6.522,-2.01 9.589,-3.327 l 0.404,-0.133 -0.052,-0.011 c 31.29,-13.628 48.75,-48.45 39.648,-82.42 -10.02,-37.413 -48.48,-59.64 -85.9,-49.612 -36.59,9.804 -58.62,46.818 -50.2,83.44 l 8.978,48.19 -43.27,16.188 c -0.197,0.053 -0.395,0.106 -0.593,0.159 -37.413,10.02 -59.61,48.48 -49.589,85.89 m 27.306,-7.316 c -5.337,-19.916 4.64,-40.32 22.705,-48.737 49.619,-17.432 0,-0.265 49.754,-17.533 l 0.145,0.45 c 9.272,49.659 -0.137,-0.225 9.436,50.53 2.18,20.16 -10.575,39.477 -30.772,44.889 -22.324,5.982 -45.29,-7.276 -51.27,-29.6 m 93.72,-102.72 -2.979,-15.13 -0.029,-0.017 c -3.405,-18.342 1.3,6.534 -6.681,-35.782 -2.18,-20.16 10.581,-39.454 30.778,-44.866 22.324,-5.982 45.28,7.253 51.26,29.577 5.337,19.916 -4.64,40.32 -22.705,48.737 -42.815,15.04 -15.13,5.496 -37.753,13.365 -0.744,0.259 -1.846,0.639 -2.481,0.86 -3.282,1.141 -4.077,1.403 -9.412,3.255"
     inkscape:connector-curvature="0"
     id="path66"
     style="fill:#ffffff;fill-rule:evenodd" />
</svg>
