<?xml version="1.0" encoding="UTF-8" standalone="no"?>
<!-- Created with Inkscape (http://www.inkscape.org/) -->

<svg
   xmlns:dc="http://purl.org/dc/elements/1.1/"
   xmlns:cc="http://creativecommons.org/ns#"
   xmlns:rdf="http://www.w3.org/1999/02/22-rdf-syntax-ns#"
   xmlns:svg="http://www.w3.org/2000/svg"
   xmlns="http://www.w3.org/2000/svg"
   xmlns:inkscape="http://www.inkscape.org/namespaces/inkscape"
   version="1.1"
   width="100%"
   height="100%"
   viewBox="0 0 512 512"
   id="svg2">
  <metadata
     id="metadata76">
    <rdf:RDF>
      <cc:Work
         rdf:about="">
        <dc:format>image/svg+xml</dc:format>
        <dc:type
           rdf:resource="http://purl.org/dc/dcmitype/StillImage" />
      </cc:Work>
    </rdf:RDF>
  </metadata>
  <defs
     id="defs74" />
  <g
     transform="translate(-231.54,-163.82)"
     id="g4">
    <path
       d="m 703.49,416.87 c 0,120.9 -98.01,218.9 -218.9,218.9 -120.9,0 -218.9,-98.01 -218.9,-218.9 0,-120.9 98.01,-218.9 218.9,-218.9 120.9,0 218.9,98.01 218.9,218.9"
       inkscape:connector-curvature="0"
       id="path6"
       style="fill:#0078ad;fill-rule:evenodd" />
    <g
       transform="translate(231.54,163.82)"
       id="g8"
       style="color:#000000">
      <path
         d="m 274.41,86.75 -41.28,12.03 0.5,1.719 -0.375,-0.188 -75.78,143.84 H 34.355 c -0.118,2.951 -0.219,5.926 -0.219,8.906 0,15.442 1.615,30.492 4.656,45.03 h 0.563 v 1 h 1 v 1 h 1 v 1 h 1 v 1 h 0.969 v 0.969 h 1 v 1 h 1 v 1 h 1 v 1 h 1 v 1 h 1 v 1 h 0.969 v 0.969 h 1 v 1 h 1 v 1 h 1 v 1 h 1 v 1 h 1 v 1 h 1 v 1 h 0.969 v 0.969 h 1 v 1 h 1 v 1 h 1 v 1 h 1 v 1 h 1 v 1 h 0.969 v 0.969 h 1 v 1 h 1 v 1 h 1 v 1 h 1 v 1 h 1 v 1 H 68.2 v 0.969 h 1 v 1 h 1 v 1 h 1 v 1 h 1 v 1 h 1 v 1 h 1 v 1 h 0.969 v 0.969 h 1 v 1 h 1 v 1 h 1 v 1 h 1 v 1 h 1 v 1 h 0.969 v 0.969 h 1 v 1 h 1 v 1 h 1 v 1 h 1 v 1 h 1 v 1 h 0.969 v 0.969 h 1 v 1 h 1 v 1 h 1 v 1 h 1 v 1 h 1 v 1 h 0.969 v 0.969 h 1 v 1 h 1 v 1 h 1 v 1 h 1 v 1 h 1 v 1 h 1 v 1 h 0.969 v 0.969 h 1 v 1 h 1 v 1 h 1 v 1 h 1 v 1 h 1 v 1 h 0.969 v 0.969 h 1 v 1 h 1 v 1 h 1 v 1 h 1 v 1 h 1 v 1 h 0.969 v 0.969 h 1 v 1 h 1 v 1 h 1 v 1 h 1 v 1 h 1 v 1 h 1 v 1 h 0.969 v 0.969 h 1 v 1 h 1 v 1 h 1 v 1 h 1 v 1 h 1 v 1 h 0.969 v 0.969 h 1 v 1 h 1 v 1 h 1 v 1 h 1 v 1 h 1 v 1 h 0.969 v 0.969 h 1 v 1 h 1 v 1 h 1 v 1 h 1 v 1 h 1 v 1 h 0.969 v 0.969 h 1 v 1 h 1 v 1 h 1 v 1 h 1 v 1 h 1 v 1 h 1 v 1 h 0.969 v 0.969 h 1 v 1 h 1 v 1 h 1 v 1 h 1 v 1 h 1 v 1 h 0.969 v 0.969 h 1 v 1 h 1 v 1 h 1 v 1 h 1 v 1 h 1 v 1 h 0.969 v 0.969 h 1 v 1 h 1 v 1 h 1 v 1 h 1 v 1 h 1 v 1 h 1 v 1 h 0.969 v 0.969 h 1 v 1 h 1 v 1 h 1 v 1 h 1 v 1 h 1 v 1 h 0.969 v 0.969 h 1 v 1 h 1 v 1 h 1 v 1 h 1 v 1 h 1 v 1 h 0.969 v 0.969 h 1 v 1 h 1 v 1 h 1 v 1 h 1 v 1 h 1 v 1 h 0.969 v 0.969 h 1 v 1 h 1 v 1 h 1 v 1 h 1 v 1 h 1 v 1 h 1 v 1 h 0.969 v 0.969 h 1 v 1 h 1 v 1 h 1 v 1 h 1 v 1 h 1 v 1 h 0.969 v 0.969 h 1 v 1 h 1 v 1 h 1 v 1 h 1 v 1 h 1 v 1 h 0.969 v 0.969 h 1 v 1 h 1 v 1 h 1 v 1 h 1 v 1 h 1 v 1 h 1 v 1 h 0.969 v 0.969 h 1 v 0.938 c 0.094,0.02 0.188,0.043 0.281,0.063 h 0.719 v 0.156 c 14.385,2.974 29.26,4.563 44.531,4.563 112.9,0 205.82,-85.48 217.63,-195.25 h -6.938 c -0.002,-0.007 -0.25,-0.906 -0.25,-0.906 l -0.656,0.188 c -0.003,-0.012 -0.344,-1.188 -0.344,-1.188 l -0.656,0.188 c -0.003,-0.012 -0.344,-1.188 -0.344,-1.188 l -0.656,0.188 c -0.003,-0.012 -0.344,-1.188 -0.344,-1.188 l -0.656,0.188 -0.344,-1.188 -0.625,0.188 c -0.003,-0.011 -0.344,-1.156 -0.344,-1.156 l -0.656,0.188 c -0.003,-0.012 -0.344,-1.188 -0.344,-1.188 l -0.656,0.188 c -0.003,-0.012 -0.344,-1.188 -0.344,-1.188 l -0.656,0.188 c -0.003,-0.012 -0.344,-1.188 -0.344,-1.188 l -0.656,0.188 c -0.003,-0.012 -0.344,-1.188 -0.344,-1.188 l -0.656,0.188 c -0.003,-0.012 -0.344,-1.188 -0.344,-1.188 l -0.625,0.188 c -0.003,-0.011 -0.344,-1.156 -0.344,-1.156 l -0.656,0.188 c -0.003,-0.012 -0.344,-1.188 -0.344,-1.188 l -0.656,0.188 c -0.003,-0.012 -0.344,-1.188 -0.344,-1.188 l -0.656,0.188 c -0.003,-0.012 -0.344,-1.188 -0.344,-1.188 l -0.656,0.188 c -0.003,-0.012 -0.344,-1.188 -0.344,-1.188 l -0.656,0.188 -0.344,-1.188 -0.656,0.188 -0.344,-1.188 -0.625,0.188 -0.344,-1.156 -0.656,0.188 c -0.003,-0.012 -0.344,-1.188 -0.344,-1.188 l -0.656,0.188 c -0.003,-0.012 -0.344,-1.188 -0.344,-1.188 l -0.656,0.188 c -0.003,-0.012 -0.344,-1.188 -0.344,-1.188 l -0.656,0.188 c -0.003,-0.012 -0.344,-1.188 -0.344,-1.188 l -0.656,0.188 c -0.003,-0.012 -0.344,-1.188 -0.344,-1.188 l -0.625,0.188 c -0.003,-0.011 -0.344,-1.156 -0.344,-1.156 l -0.656,0.188 -0.344,-1.188 -0.656,0.188 -0.344,-1.188 -0.656,0.188 c -0.003,-0.012 -0.344,-1.188 -0.344,-1.188 l -0.656,0.188 c -0.003,-0.012 -0.344,-1.188 -0.344,-1.188 l -0.656,0.188 c -0.003,-0.012 -0.344,-1.188 -0.344,-1.188 l -0.625,0.188 -0.344,-1.156 -0.656,0.188 -0.344,-1.188 -0.656,0.188 -0.344,-1.188 -0.656,0.188 c -0.003,-0.012 -0.344,-1.188 -0.344,-1.188 l -0.656,0.188 c -0.003,-0.012 -0.344,-1.188 -0.344,-1.188 l -0.656,0.188 c -0.003,-0.012 -0.344,-1.188 -0.344,-1.188 l -0.656,0.188 c -0.003,-0.012 -0.344,-1.188 -0.344,-1.188 l -0.625,0.188 c -0.003,-0.011 -0.344,-1.156 -0.344,-1.156 l -0.656,0.188 -0.344,-1.188 -0.656,0.188 c -0.003,-0.012 -0.344,-1.188 -0.344,-1.188 l -0.656,0.188 c -0.003,-0.012 -0.344,-1.188 -0.344,-1.188 l -0.656,0.188 c -0.003,-0.012 -0.344,-1.188 -0.344,-1.188 l -0.656,0.188 c -0.003,-0.012 -0.344,-1.188 -0.344,-1.188 l -0.625,0.188 c -0.003,-0.011 -0.344,-1.156 -0.344,-1.156 l -0.656,0.188 c -0.003,-0.012 -0.344,-1.188 -0.344,-1.188 l -0.656,0.188 -0.344,-1.188 -0.656,0.188 -0.344,-1.188 -0.656,0.188 c -0.003,-0.012 -0.344,-1.188 -0.344,-1.188 l -0.656,0.188 c -0.003,-0.012 -0.344,-1.188 -0.344,-1.188 l -0.625,0.188 c -0.003,-0.011 -0.344,-1.156 -0.344,-1.156 l -0.656,0.188 c -0.003,-0.012 -0.344,-1.188 -0.344,-1.188 l -0.656,0.188 c -0.003,-0.012 -0.344,-1.188 -0.344,-1.188 l -0.656,0.188 -0.344,-1.188 -0.656,0.188 -0.344,-1.188 -0.656,0.188 c -0.003,-0.012 -0.344,-1.188 -0.344,-1.188 l -0.625,0.188 c -0.003,-0.011 -0.344,-1.156 -0.344,-1.156 l -0.656,0.188 c -0.003,-0.012 -0.344,-1.188 -0.344,-1.188 l -0.656,0.188 c -0.003,-0.012 -0.344,-1.188 -0.344,-1.188 l -0.656,0.188 c -0.003,-0.012 -0.344,-1.188 -0.344,-1.188 l -0.656,0.188 -0.344,-1.188 -0.656,0.188 -0.344,-1.188 -0.656,0.188 c -0.003,-0.012 -0.344,-1.188 -0.344,-1.188 l -0.625,0.188 c -0.003,-0.011 -0.344,-1.156 -0.344,-1.156 l -0.656,0.188 c -0.003,-0.012 -0.344,-1.188 -0.344,-1.188 l -0.656,0.188 c -0.003,-0.012 -0.344,-1.188 -0.344,-1.188 l -0.656,0.188 c -0.003,-0.012 -0.344,-1.188 -0.344,-1.188 l -0.656,0.188 -0.344,-1.188 -0.656,0.188 -0.344,-1.188 -0.625,0.188 c -0.003,-0.011 -0.344,-1.156 -0.344,-1.156 l -0.656,0.188 c -0.003,-0.012 -0.344,-1.188 -0.344,-1.188 l -0.656,0.188 c -0.003,-0.012 -0.344,-1.188 -0.344,-1.188 l -0.656,0.188 c -0.003,-0.012 -0.344,-1.188 -0.344,-1.188 l -0.656,0.188 c -0.003,-0.012 -0.344,-1.188 -0.344,-1.188 l -0.656,0.188 c -0.003,-0.012 -0.344,-1.188 -0.344,-1.188 l -0.625,0.188 -0.344,-1.156 -0.656,0.188 c -0.003,-0.012 -0.344,-1.188 -0.344,-1.188 l -0.656,0.188 c -0.003,-0.012 -0.344,-1.188 -0.344,-1.188 l -0.656,0.188 c -0.003,-0.012 -0.344,-1.188 -0.344,-1.188 l -0.656,0.188 c -0.003,-0.012 -0.344,-1.188 -0.344,-1.188 l -0.656,0.188 c -0.003,-0.012 -0.344,-1.188 -0.344,-1.188 l -0.656,0.188 -0.344,-1.188 -0.625,0.188 -0.344,-1.156 -0.656,0.188 c -0.003,-0.012 -0.344,-1.188 -0.344,-1.188 l -0.656,0.188 c -0.003,-0.012 -0.344,-1.188 -0.344,-1.188 l -0.656,0.188 c -0.003,-0.012 -0.344,-1.188 -0.344,-1.188 l -0.656,0.188 c -0.003,-0.012 -0.344,-1.188 -0.344,-1.188 l -0.656,0.188 c -0.003,-0.012 -0.344,-1.188 -0.344,-1.188 l -0.625,0.188 -0.344,-1.156 -0.656,0.188 -0.344,-1.188 -0.656,0.188 c -0.003,-0.012 -0.344,-1.188 -0.344,-1.188 l -0.656,0.188 c -0.003,-0.012 -0.344,-1.188 -0.344,-1.188 l -0.656,0.188 c -0.003,-0.012 -0.344,-1.188 -0.344,-1.188 l -0.656,0.188 c -0.003,-0.012 -0.344,-1.188 -0.344,-1.188 l -0.625,0.188 c -0.003,-0.011 -0.344,-1.156 -0.344,-1.156 l -0.656,0.188 c -0.003,-0.012 -0.344,-1.188 -0.344,-1.188 l -0.656,0.188 -0.344,-1.188 -0.656,0.188 c -0.003,-0.012 -0.344,-1.188 -0.344,-1.188 l -0.656,0.188 c -0.003,-0.012 -0.344,-1.188 -0.344,-1.188 l -0.656,0.188 c -0.003,-0.012 -0.344,-1.188 -0.344,-1.188 l -0.625,0.188 c -0.003,-0.011 -0.344,-1.156 -0.344,-1.156 l -0.656,0.188 c -0.003,-0.012 -0.344,-1.188 -0.344,-1.188 l -0.656,0.188 c -0.003,-0.012 -0.344,-1.188 -0.344,-1.188 l -0.656,0.188 -0.344,-1.188 -0.656,0.188 c -0.003,-0.012 -0.344,-1.188 -0.344,-1.188 l -0.656,0.188 c -0.003,-0.012 -0.344,-1.188 -0.344,-1.188 l -0.656,0.188 c -0.003,-0.012 -0.344,-1.188 -0.344,-1.188 l -0.625,0.188 c -0.003,-0.011 -0.344,-1.156 -0.344,-1.156 l -0.656,0.188 c -0.003,-0.012 -0.344,-1.188 -0.344,-1.188 l -0.656,0.188 c -0.003,-0.012 -0.344,-1.188 -0.344,-1.188 l -0.656,0.188 -0.344,-1.188 -0.656,0.188 c -0.003,-0.012 -0.344,-1.188 -0.344,-1.188 l -0.656,0.188 c -0.003,-0.012 -0.344,-1.188 -0.344,-1.188 l -0.625,0.188 c -0.003,-0.011 -0.344,-1.156 -0.344,-1.156 l -0.656,0.188 c -0.003,-0.012 -0.344,-1.188 -0.344,-1.188 l -0.656,0.188 c -0.003,-0.012 -0.344,-1.188 -0.344,-1.188 l -0.656,0.188 c -0.003,-0.012 -0.344,-1.188 -0.344,-1.188 l -0.656,0.188 -0.344,-1.188 -0.656,0.188 c -0.003,-0.012 -0.344,-1.188 -0.344,-1.188 l -0.625,0.188 c -0.003,-0.011 -0.344,-1.156 -0.344,-1.156 l -0.656,0.188 c -0.003,-0.012 -0.344,-1.188 -0.344,-1.188 l -0.656,0.188 c -0.003,-0.012 -0.344,-1.188 -0.344,-1.188 l -0.656,0.188 c -0.003,-0.012 -0.344,-1.188 -0.344,-1.188 l -0.656,0.188 c -0.003,-0.012 -0.344,-1.188 -0.344,-1.188 l -0.656,0.188 -0.344,-1.188 -0.656,0.188 c -0.003,-0.012 -0.344,-1.188 -0.344,-1.188 l -0.625,0.188 c -0.003,-0.011 -0.344,-1.156 -0.344,-1.156 l -0.656,0.188 c -0.003,-0.012 -0.344,-1.188 -0.344,-1.188 l -0.656,0.188 c -0.003,-0.012 -0.344,-1.188 -0.344,-1.188 l -0.656,0.188 c -0.003,-0.012 -0.344,-1.188 -0.344,-1.188 l -0.656,0.188 c -0.003,-0.012 -0.344,-1.188 -0.344,-1.188 l -0.656,0.188 -0.344,-1.188 -0.625,0.188 -0.344,-1.156 -0.656,0.188 c -0.003,-0.012 -0.344,-1.188 -0.344,-1.188 l -0.656,0.188 c -0.003,-0.012 -0.344,-1.188 -0.344,-1.188 l -0.656,0.188 c -0.003,-0.012 -0.344,-1.188 -0.344,-1.188 l -0.656,0.188 -0.344,-1.188 -0.656,0.188 -0.344,-1.188 -0.625,0.188 -0.344,-1.156 -0.656,0.188 -0.344,-1.188 -0.656,0.188 -0.344,-1.188 -0.656,0.188 -0.344,-1.188 -0.656,0.188 -0.344,-1.188 -0.656,0.188 -0.344,-1.188 -0.625,0.188 -0.344,-1.156 -0.656,0.188 -0.344,-1.188 -0.656,0.188 -0.344,-1.188 -0.656,0.188 -0.344,-1.188 -0.656,0.188 -0.344,-1.188 -0.656,0.188 -0.344,-1.188 -0.656,0.188 -0.344,-1.188 -0.625,0.188 c -0.003,-0.011 -0.344,-1.156 -0.344,-1.156 l -0.656,0.188 -0.344,-1.188 -0.656,0.188 -0.344,-1.188 -0.656,0.188 -0.344,-1.188 -0.656,0.188 -0.344,-1.188 -0.656,0.188 -0.344,-1.188 -0.625,0.188 -0.344,-1.156 -0.656,0.188 -0.344,-1.188 -0.656,0.188 -0.344,-1.188 -0.656,0.188 -0.344,-1.188 -0.656,0.188 -0.344,-1.188 -0.656,0.188 -0.344,-1.188 -0.625,0.188 -0.344,-1.156 -0.656,0.188 -0.344,-1.188 -0.656,0.188 -0.344,-1.188 -0.656,0.188 -0.344,-1.188 -0.656,0.188 -0.344,-1.188 -0.656,0.188 -0.344,-1.188 -0.656,0.188 -0.344,-1.188 -0.625,0.188 -0.344,-1.156 -0.656,0.188 -0.344,-1.188 -0.656,0.188 -0.344,-1.188 -0.656,0.188 -0.344,-1.188 -0.656,0.188 -0.344,-1.188 -0.656,0.188 -0.344,-1.188 -0.625,0.188 -0.344,-1.156 -0.656,0.188 -0.344,-1.188 -0.656,0.188 -0.344,-1.188 -0.656,0.188 -0.344,-1.188 -0.656,0.188 -0.344,-1.188 -0.656,0.188 -0.344,-1.188 -0.625,0.188 -0.344,-1.156 -0.656,0.188 -0.344,-1.188 -0.656,0.188 -0.344,-1.188 -0.656,0.188 -0.344,-1.188 -0.656,0.188 -0.344,-1.188 -0.656,0.188 -0.344,-1.188 -0.625,0.188 -0.344,-1.156 -0.656,0.188 -0.344,-1.188 -0.656,0.188 -0.344,-1.188 -0.656,0.188 -0.344,-1.188"
         inkscape:connector-curvature="0"
         id="path10"
         style="fill-opacity:0.23500001" />
      <path
         d="m 274.41,86.75 -41.28,12.03 0.5,1.719 -0.375,-0.188 -75.78,143.84 H 27.415 v 43 h 154.94 v -0.063 l 0.844,0.438 67.59,-128.22 64.875,222.25 1,-0.281 -0.938,1.719 37.75,20.594 45.19,-82.87 h 75.81 v -44 h -99.47 v 0.5 h -1 v 0.375 l -0.625,-0.344 -28.25,51.813 -70.72,-242.31"
         inkscape:connector-curvature="0"
         id="path12"
         style="fill:#ffffff" />
    </g>
    <g
       id="g14"
       style="fill-rule:evenodd">
      <path
         d="m 487.54,164.82 c -140.83,0 -255,114.17 -255,255 0,140.83 114.17,255 255,255 140.83,0 255,-114.17 255,-255 0,-140.83 -114.17,-255 -255,-255 m 8.827,44.931 c 120.9,0 218.9,98 218.9,218.9 0,120.9 -98,218.9 -218.9,218.9 -120.9,0 -218.93,-98 -218.93,-218.9 0,-120.9 98.03,-218.9 218.93,-218.9"
         inkscape:connector-curvature="0"
         id="path16"
         style="fill-opacity:0.06700003" />
      <g
         id="g18"
         style="fill-opacity:0.12900002">
        <path
           d="m 487.54,168.25 c -138.94,0 -251.57,112.63 -251.57,251.57 0,138.94 112.63,251.57 251.57,251.57 138.94,0 251.57,-112.63 251.57,-251.57 0,-138.94 -112.63,-251.57 -251.57,-251.57 m 5.885,38.556 c 120.9,0 218.9,98 218.9,218.9 0,120.9 -98,218.9 -218.9,218.9 -120.9,0 -218.93,-98 -218.93,-218.9 0,-120.9 98.03,-218.9 218.93,-218.9"
           inkscape:connector-curvature="0"
           id="path20" />
        <path
           d="m 487.54,172.18 c -136.77,0 -247.64,110.87 -247.64,247.64 0,136.77 110.87,247.64 247.64,247.64 136.77,0 247.64,-110.87 247.64,-247.64 0,-136.77 -110.87,-247.64 -247.64,-247.64 m 2.942,31.691 c 120.9,0 218.9,98 218.9,218.9 0,120.9 -98,218.9 -218.9,218.9 -120.9,0 -218.93,-98 -218.93,-218.9 0,-120.9 98.03,-218.9 218.93,-218.9"
           inkscape:connector-curvature="0"
           id="path22" />
      </g>
      <path
         d="m 484.58,171.68 c -135.42,0 -245.19,109.78 -245.19,245.19 0,135.42 109.78,245.19 245.19,245.19 135.42,0 245.19,-109.78 245.19,-245.19 0,-135.42 -109.78,-245.19 -245.19,-245.19 z m 0,26.297 c 120.9,0 218.9,98 218.9,218.9 0,120.9 -98,218.9 -218.9,218.9 -120.9,0 -218.93,-98 -218.93,-218.9 0,-120.9 98.03,-218.9 218.93,-218.9 z"
         inkscape:connector-curvature="0"
         id="path24"
         style="fill:#ffffff;stroke:#000000;stroke-width:4.90399981;stroke-opacity:0.31000001" />
    </g>
    <text
       x="961.17999"
       y="395.17999"
       id="text26"
       style="font-size:129.22999573px;line-height:125%;letter-spacing:0;word-spacing:0;font-family:Gentium Book Basic">
      <tspan
         x="961.17999"
         y="395.17999"
         id="tspan28" />
    </text>
    <text
       x="436.60999"
       y="1236.63"
       transform="scale(4.0128,0.2492)"
       id="text30"
       style="font-size:46.95399857px;text-anchor:middle;font-family:Arial" />
    <text
       x="1542.45"
       y="315.17999"
       id="text32"
       style="font-size:129.22999573px;line-height:125%;letter-spacing:0;word-spacing:0;font-family:Gentium Book Basic">
      <tspan
         x="1542.45"
         y="315.17999"
         id="tspan34" />
    </text>
    <text
       x="581.46002"
       y="915.59998"
       transform="scale(4.0128,0.2492)"
       id="text36"
       style="font-size:46.95399857px;text-anchor:middle;font-family:Arial" />
    <text
       x="470.87"
       y="133.92"
       id="text38"
       style="font-size:129.22999573px;line-height:125%;letter-spacing:0;word-spacing:0;font-family:Gentium Book Basic">
      <tspan
         x="470.87"
         y="133.92"
         id="tspan40" />
    </text>
    <text
       x="314.42001"
       y="188.25"
       transform="scale(4.0128,0.2492)"
       id="text42"
       style="font-size:46.95399857px;text-anchor:middle;font-family:Arial" />
    <text
       x="1568.92"
       y="-82.550003"
       id="text44"
       style="font-size:129.22999573px;line-height:125%;letter-spacing:0;word-spacing:0;font-family:Gentium Book Basic">
      <tspan
         x="1568.92"
         y="-82.550003"
         id="tspan46" />
    </text>
    <text
       x="588.06"
       y="-680.42999"
       transform="scale(4.0128,0.2492)"
       id="text48"
       style="font-size:46.95399857px;text-anchor:middle;font-family:Arial" />
    <text
       x="2150.1899"
       y="-162.56"
       id="text50"
       style="font-size:129.22999573px;line-height:125%;letter-spacing:0;word-spacing:0;font-family:Gentium Book Basic">
      <tspan
         x="2150.1899"
         y="-162.56"
         id="tspan52" />
    </text>
    <text
       x="732.90997"
       y="-1001.46"
       transform="scale(4.0128,0.2492)"
       id="text54"
       style="font-size:46.95399857px;text-anchor:middle;font-family:Arial" />
    <text
       x="1761.0699"
       y="-634.96002"
       id="text56"
       style="font-size:129.22999573px;line-height:125%;letter-spacing:0;word-spacing:0;font-family:Gentium Book Basic">
      <tspan
         x="1761.0699"
         y="-634.96002"
         id="tspan58" />
    </text>
    <text
       x="635.94"
       y="-2897.1299"
       transform="scale(4.0128,0.2492)"
       id="text60"
       style="font-size:46.95399857px;text-anchor:middle;font-family:Arial" />
    <text
       x="2342.3301"
       y="-714.96002"
       id="text62"
       style="font-size:129.22999573px;line-height:125%;letter-spacing:0;word-spacing:0;font-family:Gentium Book Basic">
      <tspan
         x="2342.3301"
         y="-714.96002"
         id="tspan64" />
    </text>
    <text
       x="780.78998"
       y="-3218.1599"
       transform="scale(4.0128,0.2492)"
       id="text66"
       style="font-size:46.95399857px;text-anchor:middle;font-family:Arial" />
    <text
       x="509.53"
       y="699.76001"
       id="text68"
       style="font-size:208.33000183px;line-height:125%;letter-spacing:0;word-spacing:0;font-family:Gentium Book Basic">
      <tspan
         x="509.53"
         y="699.76001"
         id="tspan70" />
    </text>
  </g>
</svg>
