<?xml version="1.0" encoding="UTF-8" standalone="no"?>
<!-- Created with Inkscape (http://www.inkscape.org/) -->

<svg
   xmlns:dc="http://purl.org/dc/elements/1.1/"
   xmlns:cc="http://creativecommons.org/ns#"
   xmlns:rdf="http://www.w3.org/1999/02/22-rdf-syntax-ns#"
   xmlns:svg="http://www.w3.org/2000/svg"
   xmlns="http://www.w3.org/2000/svg"
   xmlns:inkscape="http://www.inkscape.org/namespaces/inkscape"
   version="1.1"
   width="100%"
   height="100%"
   viewBox="0 0 512 512"
   id="svg2">
  <metadata
     id="metadata72">
    <rdf:RDF>
      <cc:Work
         rdf:about="">
        <dc:format>image/svg+xml</dc:format>
        <dc:type
           rdf:resource="http://purl.org/dc/dcmitype/StillImage" />
      </cc:Work>
    </rdf:RDF>
  </metadata>
  <defs
     id="defs70" />
  <path
     d="m 471.95,253.05 c 0,120.9 -98.01,218.9 -218.9,218.9 -120.9,0 -218.9,-98.01 -218.9,-218.9 0,-120.9 98.01,-218.9 218.9,-218.9 120.9,0 218.9,98.01 218.9,218.9"
     inkscape:connector-curvature="0"
     id="path4"
     style="fill:#00abec;fill-rule:evenodd" />
  <path
     d="m 305.44,149.75 c -0.718,-0.004 -1.439,0.014 -2.156,0.031 -5.738,0.142 -11.359,1 -15.531,2.5 -22.678,8.448 -36.997,30.19 -35.37,54 l 0.531,9.219 -9.06,-1.156 c -30.874,-4.04 -58.1,-17.1 -81.53,-38.875 -0.118,-0.121 -0.873,-0.873 -0.875,-0.875 -0.549,-0.559 -1.995,-1.995 -2,-2 -0.536,-0.546 -1.964,-1.964 -1.969,-1.969 -0.153,-0.156 -0.997,-0.997 -1,-1 -0.551,-0.562 -1.995,-1.995 -2,-2 -0.549,-0.559 -1.995,-1.995 -2,-2 -0.146,-0.149 -0.969,-1 -0.969,-1 -0.548,-0.558 -2,-2 -2,-2 -0.151,-0.153 -1,-1 -1,-1 l -1,-1 -1.969,-1.969 -3.094,9 c -6.539,20.05 -2.351,41.28 11.25,55.53 7.245,7.854 5.623,8.978 -6.906,4.281 -4.342,-1.484 -8.165,-2.629 -8.531,-2.063 -1.256,1.323 3.078,18.377 6.531,25.13 2.354,4.697 5.941,9.35 10.25,13.5 0.329,0.331 0.662,0.675 1,1 0.329,0.331 0.662,0.675 1,1 0.329,0.331 0.662,0.675 1,1 0.131,0.138 0.274,0.269 0.406,0.406 0.191,0.189 0.369,0.376 0.563,0.563 0.01,0.011 0.021,0.021 0.031,0.031 0.127,0.134 0.246,0.273 0.375,0.406 0.196,0.194 0.394,0.371 0.594,0.563 0.133,0.141 0.271,0.266 0.406,0.406 0.199,0.197 0.391,0.399 0.594,0.594 0.133,0.141 0.271,0.266 0.406,0.406 0.197,0.195 0.393,0.401 0.594,0.594 0.329,0.331 0.662,0.675 1,1 0.329,0.331 0.662,0.675 1,1 0.131,0.138 0.274,0.269 0.406,0.406 0.324,0.321 0.636,0.654 0.969,0.969 0.005,0.006 -0.005,0.026 0,0.031 0.196,0.194 0.394,0.371 0.594,0.563 0.01,0.01 0.021,0.021 0.031,0.031 0.127,0.134 0.246,0.273 0.375,0.406 0.194,0.192 0.396,0.372 0.594,0.563 0.133,0.141 0.271,0.266 0.406,0.406 0.199,0.197 0.391,0.399 0.594,0.594 0.329,0.331 0.662,0.675 1,1 0.329,0.331 0.662,0.675 1,1 l -1.969,0.094 c -10.175,0 -10.51,0.184 -9.438,4.125 1.652,5.543 5.532,11.22 10.75,16.313 0.327,0.335 0.661,0.67 1,1 0.277,0.284 0.558,0.563 0.844,0.844 0.428,0.443 0.864,0.878 1.313,1.313 0.17,0.173 0.358,0.328 0.531,0.5 0.421,0.438 0.841,0.883 1.281,1.313 0.327,0.335 0.661,0.67 1,1 0.327,0.335 0.661,0.67 1,1 0.277,0.284 0.558,0.563 0.844,0.844 0.428,0.443 0.864,0.878 1.313,1.313 0.17,0.173 0.358,0.328 0.531,0.5 0.421,0.438 0.841,0.883 1.281,1.313 0.327,0.335 0.661,0.67 1,1 0.327,0.335 0.661,0.67 1,1 0.277,0.284 0.558,0.563 0.844,0.844 0.428,0.443 0.864,0.878 1.313,1.313 0.17,0.173 0.358,0.328 0.531,0.5 0.421,0.438 0.841,0.883 1.281,1.313 0.327,0.335 0.661,0.67 1,1 0.327,0.335 0.661,0.67 1,1 0.327,0.335 0.661,0.67 1,1 0.333,0.342 0.686,0.663 1.031,1 0.222,0.227 0.429,0.463 0.656,0.688 0.398,0.414 0.803,0.812 1.219,1.219 0.331,0.341 0.656,0.695 1,1.031 0.215,0.221 0.436,0.437 0.656,0.656 -14.475,8.566 -31.459,13.374 -48.44,13.75 -8.161,0.187 -14.906,0.964 -14.906,1.531 0,0.237 0.382,0.609 1.031,1.094 0.086,0.241 0.424,0.604 1,1.031 0.103,0.242 0.466,0.583 1.031,1 0.118,0.236 0.439,0.576 0.969,0.969 0.096,0.238 0.444,0.556 1,0.969 0.077,0.239 0.42,0.569 1,1 0.08,0.237 0.405,0.579 0.969,1 0.085,0.236 0.441,0.583 1,1 0.087,0.243 0.444,0.598 1.031,1.031 0.118,0.236 0.439,0.576 0.969,0.969 0.096,0.238 0.444,0.556 1,0.969 0.077,0.239 0.42,0.569 1,1 0.076,0.237 0.4,0.575 0.969,1 0.085,0.236 0.441,0.583 1,1 0.086,0.241 0.424,0.604 1,1.031 0.102,0.239 0.445,0.558 1,0.969 0.096,0.238 0.444,0.556 1,0.969 0.077,0.239 0.42,0.569 1,1 0.076,0.237 0.4,0.575 0.969,1 0.085,0.236 0.441,0.583 1,1 0.086,0.241 0.424,0.604 1,1.031 0.103,0.242 0.466,0.583 1.031,1 0.118,0.236 0.439,0.576 0.969,0.969 0.096,0.238 0.444,0.556 1,0.969 0.076,0.237 0.4,0.575 0.969,1 0.076,0.237 0.431,0.575 1,1 0.085,0.236 0.441,0.583 1,1 0.087,0.243 0.444,0.598 1.031,1.031 0.118,0.236 0.439,0.576 0.969,0.969 0.096,0.238 0.444,0.556 1,0.969 0.077,0.239 0.42,0.569 1,1 0.08,0.237 0.405,0.579 0.969,1 0.085,0.236 0.441,0.583 1,1 0.087,0.243 0.444,0.598 1.031,1.031 0.118,0.236 0.439,0.576 0.969,0.969 0.096,0.238 0.444,0.556 1,0.969 0.077,0.239 0.42,0.569 1,1 0.076,0.237 0.4,0.575 0.969,1 0.085,0.236 0.441,0.583 1,1 0.086,0.241 0.424,0.604 1,1.031 0.103,0.242 0.466,0.583 1.031,1 0.117,0.235 0.445,0.549 0.969,0.938 0.077,0.239 0.42,0.569 1,1 0.076,0.237 0.4,0.575 0.969,1 0.076,0.237 0.43,0.575 1,1 0.085,0.236 0.441,0.583 1,1 0.087,0.243 0.444,0.598 1.031,1.031 0.118,0.236 0.439,0.576 0.969,0.969 0.096,0.238 0.444,0.556 1,0.969 0.077,0.239 0.42,0.569 1,1 0.08,0.237 0.405,0.579 0.969,1 0.085,0.236 0.441,0.583 1,1 0.087,0.243 0.444,0.598 1.031,1.031 0.118,0.236 0.439,0.576 0.969,0.969 0.096,0.238 0.444,0.556 1,0.969 0.077,0.239 0.42,0.569 1,1 0.076,0.237 0.399,0.575 0.969,1 0.085,0.236 0.441,0.583 1,1 0.086,0.241 0.424,0.604 1,1.031 0.102,0.239 0.445,0.558 1,0.969 0.096,0.238 0.444,0.556 1,0.969 0.077,0.239 0.42,0.569 1,1 0.076,0.237 0.399,0.575 0.969,1 0.085,0.236 0.441,0.583 1,1 0.086,0.241 0.424,0.604 1,1.031 0.103,0.242 0.466,0.583 1.031,1 0.118,0.236 0.439,0.576 0.969,0.969 0.096,0.238 0.444,0.556 1,0.969 0.076,0.237 0.399,0.575 0.969,1 0.076,0.237 0.431,0.575 1,1 0.085,0.237 0.441,0.583 1,1 0.087,0.243 0.444,0.598 1.031,1.031 0.118,0.236 0.439,0.576 0.969,0.969 0.096,0.238 0.444,0.556 1,0.969 0.077,0.24 0.42,0.569 1,1 0.081,0.237 0.405,0.579 0.969,1 0.085,0.237 0.441,0.583 1,1 0.087,0.243 0.444,0.598 1.031,1.031 0.118,0.236 0.439,0.576 0.969,0.969 0.096,0.238 0.444,0.556 1,0.969 0.077,0.24 0.42,0.569 1,1 0.076,0.237 0.399,0.575 0.969,1 0.085,0.237 0.441,0.583 1,1 0.086,0.241 0.424,0.604 1,1.031 0.103,0.242 0.466,0.583 1.031,1 0.117,0.235 0.445,0.549 0.969,0.938 0.077,0.24 0.42,0.569 1,1 0.076,0.237 0.399,0.575 0.969,1 0.076,0.237 0.431,0.575 1,1 0.085,0.237 0.441,0.583 1,1 0.087,0.243 0.444,0.598 1.031,1.031 0.118,0.236 0.439,0.576 0.969,0.969 0.096,0.238 0.444,0.556 1,0.969 0.077,0.24 0.42,0.569 1,1 0.081,0.237 0.405,0.579 0.969,1 0.085,0.237 0.441,0.583 1,1 0.087,0.243 0.444,0.598 1.031,1.031 0.118,0.236 0.439,0.576 0.969,0.969 0.096,0.238 0.444,0.556 1,0.969 0.077,0.24 0.42,0.569 1,1 0.076,0.237 0.399,0.575 0.969,1 0.085,0.237 0.441,0.583 1,1 0.086,0.241 0.423,0.604 1,1.031 0.102,0.239 0.445,0.558 1,0.969 0.096,0.238 0.444,0.556 1,0.969 0.077,0.24 0.42,0.569 1,1 0.076,0.237 0.399,0.575 0.969,1 0.085,0.237 0.441,0.583 1,1 0.086,0.241 0.423,0.604 1,1.031 0.103,0.242 0.466,0.583 1.031,1 0.118,0.236 0.439,0.576 0.969,0.969 0.096,0.238 0.444,0.556 1,0.969 0.076,0.237 0.399,0.575 0.969,1 0.076,0.237 0.431,0.575 1,1 0.085,0.237 0.441,0.583 1,1 0.087,0.243 0.444,0.598 1.031,1.031 0.118,0.236 0.439,0.576 0.969,0.969 0.096,0.238 0.444,0.556 1,0.969 0.077,0.24 0.42,0.569 1,1 0.081,0.237 0.405,0.579 0.969,1 0.085,0.237 0.441,0.583 1,1 0.087,0.243 0.444,0.598 1.031,1.031 0.118,0.236 0.439,0.576 0.969,0.969 0.096,0.238 0.444,0.556 1,0.969 0.077,0.24 0.42,0.569 1,1 0.076,0.237 0.399,0.575 0.969,1 0.085,0.237 0.441,0.583 1,1 0.086,0.241 0.423,0.604 1,1.031 0.103,0.242 0.466,0.583 1.031,1 0.118,0.236 0.439,0.576 0.969,0.969 0.096,0.238 0.444,0.556 1,0.969 0.077,0.237 0.399,0.575 0.969,1 0.077,0.237 0.431,0.575 1,1 116.36,-5.111 209.13,-101.03 209.13,-218.66 0,-0.417 0.002,-0.833 0,-1.25 -0.064,0.015 -0.118,0.012 -0.188,0.031 0.088,-0.364 0.156,-0.704 0.156,-0.969 0,-0.224 -0.448,-0.229 -1.156,-0.031 0.088,-0.364 0.156,-0.704 0.156,-0.969 0,-0.224 -0.449,-0.229 -1.156,-0.031 0.089,-0.366 0.156,-0.703 0.156,-0.969 0,-0.224 -0.448,-0.198 -1.156,0 0.094,-0.379 0.156,-0.726 0.156,-1 0,-0.224 -0.448,-0.198 -1.156,0 0.094,-0.379 0.156,-0.726 0.156,-1 0,-0.227 -0.435,-0.204 -1.156,0 0.094,-0.379 0.156,-0.695 0.156,-0.969 0,-0.224 -0.417,-0.229 -1.125,-0.031 0.088,-0.364 0.156,-0.704 0.156,-0.969 0,-0.224 -0.448,-0.229 -1.156,-0.031 0.088,-0.364 0.156,-0.704 0.156,-0.969 0,-0.224 -0.448,-0.229 -1.156,-0.031 0.088,-0.364 0.156,-0.704 0.156,-0.969 0,-0.221 -0.433,-0.222 -1.125,-0.031 0.088,-0.364 0.125,-0.704 0.125,-0.969 0,-0.224 -0.448,-0.198 -1.156,0 0.094,-0.379 0.156,-0.726 0.156,-1 0,-0.224 -0.448,-0.198 -1.156,0 0.094,-0.379 0.156,-0.726 0.156,-1 0,-0.224 -0.417,-0.198 -1.125,0 0.088,-0.364 0.156,-0.704 0.156,-0.969 0,-0.224 -0.448,-0.229 -1.156,-0.031 0.088,-0.364 0.156,-0.704 0.156,-0.969 0,-0.224 -0.448,-0.229 -1.156,-0.031 0.088,-0.364 0.156,-0.704 0.156,-0.969 0,-0.224 -0.449,-0.229 -1.156,-0.031 0.089,-0.366 0.156,-0.703 0.156,-0.969 0,-0.224 -0.448,-0.198 -1.156,0 0.094,-0.379 0.156,-0.726 0.156,-1 0,-0.224 -0.448,-0.198 -1.156,0 0.094,-0.379 0.156,-0.726 0.156,-1 0,-0.227 -0.435,-0.204 -1.156,0 0.092,-0.375 0.188,-0.698 0.188,-0.969 0,-0.224 -0.448,-0.229 -1.156,-0.031 0.088,-0.364 0.156,-0.704 0.156,-0.969 0,-0.224 -0.448,-0.229 -1.156,-0.031 0.088,-0.364 0.156,-0.704 0.156,-0.969 0,-0.224 -0.449,-0.229 -1.156,-0.031 0.089,-0.366 0.156,-0.703 0.156,-0.969 0,-0.224 -0.448,-0.198 -1.156,0 0.094,-0.379 0.156,-0.726 0.156,-1 0,-0.224 -0.448,-0.198 -1.156,0 0.094,-0.379 0.156,-0.726 0.156,-1 0,-0.227 -0.435,-0.204 -1.156,0 0.092,-0.375 0.156,-0.698 0.156,-0.969 0,-0.224 -0.417,-0.229 -1.125,-0.031 0.088,-0.364 0.156,-0.704 0.156,-0.969 0,-0.224 -0.448,-0.229 -1.156,-0.031 0.088,-0.364 0.156,-0.704 0.156,-0.969 0,-0.224 -0.448,-0.229 -1.156,-0.031 0.089,-0.366 0.156,-0.703 0.156,-0.969 0,-0.222 -0.433,-0.222 -1.125,-0.031 0.088,-0.364 0.125,-0.704 0.125,-0.969 0,-0.224 -0.448,-0.198 -1.156,0 0.094,-0.379 0.156,-0.726 0.156,-1 0,-0.227 -0.435,-0.204 -1.156,0 0.094,-0.379 0.156,-0.695 0.156,-0.969 v -0.031 c 0,-0.224 -0.417,-0.198 -1.125,0 0.088,-0.364 0.156,-0.704 0.156,-0.969 0,-0.225 -0.448,-0.229 -1.156,-0.031 0.088,-0.364 0.156,-0.704 0.156,-0.969 0,-0.225 -0.448,-0.229 -1.156,-0.031 0.088,-0.364 0.156,-0.704 0.156,-0.969 0,-0.222 -0.433,-0.222 -1.125,-0.031 0.088,-0.364 0.125,-0.704 0.125,-0.969 0,-0.225 -0.448,-0.198 -1.156,0 0.094,-0.379 0.156,-0.726 0.156,-1 0,-0.225 -0.448,-0.198 -1.156,0 0.094,-0.379 0.156,-0.726 0.156,-1 0,-0.225 -0.417,-0.198 -1.125,0 0.088,-0.364 0.156,-0.704 0.156,-0.969 0,-0.225 -0.448,-0.229 -1.156,-0.031 0.088,-0.364 0.156,-0.704 0.156,-0.969 0,-0.225 -0.448,-0.229 -1.156,-0.031 0.088,-0.364 0.156,-0.704 0.156,-0.969 0,-0.224 -0.449,-0.229 -1.156,-0.031 0.089,-0.366 0.156,-0.703 0.156,-0.969 0,-0.225 -0.448,-0.198 -1.156,0 0.094,-0.379 0.156,-0.726 0.156,-1 0,-0.225 -0.448,-0.198 -1.156,0 0.094,-0.379 0.156,-0.726 0.156,-1 0,-0.227 -0.435,-0.204 -1.156,0 0.092,-0.375 0.188,-0.698 0.188,-0.969 0,-0.225 -0.448,-0.229 -1.156,-0.031 0.088,-0.364 0.156,-0.704 0.156,-0.969 0,-0.225 -0.448,-0.229 -1.156,-0.031 0.088,-0.364 0.156,-0.704 0.156,-0.969 0,-0.224 -0.449,-0.229 -1.156,-0.031 0.089,-0.366 0.156,-0.703 0.156,-0.969 0,-0.225 -0.448,-0.198 -1.156,0 0.094,-0.379 0.156,-0.726 0.156,-1 0,-0.225 -0.448,-0.198 -1.156,0 0.094,-0.379 0.156,-0.726 0.156,-1 0,-0.227 -0.435,-0.204 -1.156,0 0.092,-0.375 0.156,-0.698 0.156,-0.969 0,-0.225 -0.417,-0.229 -1.125,-0.031 0.088,-0.364 0.156,-0.704 0.156,-0.969 0,-0.225 -0.448,-0.229 -1.156,-0.031 0.088,-0.364 0.156,-0.704 0.156,-0.969 0,-0.225 -0.448,-0.229 -1.156,-0.031 0.088,-0.364 0.156,-0.704 0.156,-0.969 0,-0.222 -0.433,-0.222 -1.125,-0.031 0.088,-0.364 0.125,-0.704 0.125,-0.969 0,-0.225 -0.448,-0.198 -1.156,0 0.094,-0.379 0.156,-0.726 0.156,-1 0,-0.227 -0.435,-0.204 -1.156,0 0.094,-0.379 0.156,-0.726 0.156,-1 0,-0.225 -0.417,-0.198 -1.125,0 0.088,-0.364 0.156,-0.704 0.156,-0.969 0,-0.225 -0.448,-0.229 -1.156,-0.031 0.088,-0.364 0.156,-0.704 0.156,-0.969 0,-0.225 -0.448,-0.229 -1.156,-0.031 0.088,-0.364 0.156,-0.704 0.156,-0.969 0,-0.224 -0.449,-0.229 -1.156,-0.031 0.089,-0.366 0.156,-0.703 0.156,-0.969 0,-0.225 -0.448,-0.198 -1.156,0 0.094,-0.379 0.156,-0.726 0.156,-1 0,-0.225 -0.448,-0.198 -1.156,0 0.094,-0.379 0.156,-0.726 0.156,-1 0,-0.227 -0.435,-0.204 -1.156,0 0.092,-0.375 0.188,-0.698 0.188,-0.969 0,-0.225 -0.448,-0.229 -1.156,-0.031 0.088,-0.364 0.156,-0.704 0.156,-0.969 0,-0.225 -0.448,-0.229 -1.156,-0.031 0.088,-0.364 0.156,-0.704 0.156,-0.969 0,-0.224 -0.449,-0.229 -1.156,-0.031 0.089,-0.366 0.156,-0.703 0.156,-0.969 0,-0.225 -0.448,-0.198 -1.156,0 0.094,-0.379 0.156,-0.726 0.156,-1 0,-0.225 -0.448,-0.198 -1.156,0 0.094,-0.379 0.156,-0.726 0.156,-1 0,-0.227 -0.435,-0.204 -1.156,0 0.092,-0.375 0.156,-0.698 0.156,-0.969 0,-0.225 -0.417,-0.229 -1.125,-0.031 0.088,-0.364 0.156,-0.704 0.156,-0.969 0,-0.225 -0.448,-0.229 -1.156,-0.031 0.088,-0.364 0.156,-0.704 0.156,-0.969 0,-0.225 -0.448,-0.229 -1.156,-0.031 0.089,-0.366 0.156,-0.703 0.156,-0.969 0,-0.222 -0.433,-0.222 -1.125,-0.031 0.088,-0.364 0.125,-0.704 0.125,-0.969 0,-0.225 -0.448,-0.198 -1.156,0 0.094,-0.379 0.156,-0.726 0.156,-1 0,-0.227 -0.435,-0.204 -1.156,0 0.094,-0.379 0.156,-0.695 0.156,-0.969 0,-0.225 -0.417,-0.229 -1.125,-0.031 0.088,-0.364 0.156,-0.704 0.156,-0.969 0,-0.225 -0.448,-0.229 -1.156,-0.031 0.088,-0.364 0.156,-0.704 0.156,-0.969 0,-0.225 -0.448,-0.229 -1.156,-0.031 0.088,-0.364 0.156,-0.704 0.156,-0.969 0,-0.222 -0.433,-0.222 -1.125,-0.031 0.088,-0.364 0.125,-0.704 0.125,-0.969 0,-0.225 -0.448,-0.198 -1.156,0 0.094,-0.379 0.156,-0.726 0.156,-1 0,-0.225 -0.448,-0.198 -1.156,0 0.094,-0.379 0.156,-0.726 0.156,-1 0,-0.225 -0.417,-0.198 -1.125,0 0.088,-0.364 0.156,-0.704 0.156,-0.969 0,-0.225 -0.448,-0.229 -1.156,-0.031 0.088,-0.364 0.156,-0.704 0.156,-0.969 0,-0.225 -0.448,-0.229 -1.156,-0.031 0.088,-0.364 0.156,-0.704 0.156,-0.969 0,-0.224 -0.449,-0.229 -1.156,-0.031 0.089,-0.366 0.156,-0.703 0.156,-0.969 0,-0.225 -0.448,-0.198 -1.156,0 0.094,-0.379 0.156,-0.726 0.156,-1 0,-0.225 -0.448,-0.198 -1.156,0 0.094,-0.379 0.156,-0.726 0.156,-1 0,-0.227 -0.435,-0.204 -1.156,0 0.092,-0.375 0.188,-0.698 0.188,-0.969 0,-0.225 -0.448,-0.229 -1.156,-0.031 0.088,-0.364 0.156,-0.704 0.156,-0.969 0,-0.225 -0.448,-0.229 -1.156,-0.031 0.088,-0.364 0.156,-0.704 0.156,-0.969 0,-0.225 -0.449,-0.229 -1.156,-0.031 0.089,-0.366 0.156,-0.703 0.156,-0.969 0,-0.225 -0.448,-0.198 -1.156,0 0.094,-0.379 0.156,-0.726 0.156,-1 0,-0.225 -0.448,-0.198 -1.156,0 0.094,-0.379 0.156,-0.726 0.156,-1 0,-0.227 -0.435,-0.204 -1.156,0 0.092,-0.375 0.156,-0.698 0.156,-0.969 0,-0.225 -0.417,-0.229 -1.125,-0.031 0.088,-0.364 0.156,-0.704 0.156,-0.969 0,-0.225 -0.448,-0.229 -1.156,-0.031 0.088,-0.364 0.156,-0.704 0.156,-0.969 0,-0.225 -0.448,-0.229 -1.156,-0.031 0.088,-0.364 0.156,-0.704 0.156,-0.969 0,-0.222 -0.433,-0.222 -1.125,-0.031 0.088,-0.364 0.125,-0.704 0.125,-0.969 0,-0.567 -2.726,0.362 -5.813,2.063 -3.27,1.862 -10.497,4.702 -15.938,6.375 l -9.813,3.188 -8.906,-6.188 c -4.891,-3.374 -11.771,-7.148 -15.406,-8.281 -4.051,-1.145 -9.04,-1.722 -14.06,-1.75"
     inkscape:connector-curvature="0"
     id="path6"
     style="fill-opacity:0.23500001" />
  <g
     id="g8"
     style="fill-rule:evenodd">
    <path
       d="M 256,1 C 115.17,1 1,115.17 1,256 1,396.83 115.17,511 256,511 396.83,511 511,396.83 511,256 511,115.17 396.83,1 256,1 m 8.827,44.931 c 120.9,0 218.9,98 218.9,218.9 0,120.9 -98,218.9 -218.9,218.9 -120.9,0 -218.93,-98 -218.93,-218.9 0,-120.9 98.03,-218.9 218.93,-218.9"
       inkscape:connector-curvature="0"
       id="path10"
       style="fill-opacity:0.06700003" />
    <g
       id="g12"
       style="fill-opacity:0.12900002">
      <path
         d="m 256,4.433 c -138.94,0 -251.57,112.63 -251.57,251.57 0,138.94 112.63,251.57 251.57,251.57 138.94,0 251.57,-112.63 251.57,-251.57 C 507.57,117.063 394.94,4.433 256,4.433 m 5.885,38.556 c 120.9,0 218.9,98 218.9,218.9 0,120.9 -98,218.9 -218.9,218.9 -120.9,0 -218.93,-98 -218.93,-218.9 0,-120.9 98.03,-218.9 218.93,-218.9"
         inkscape:connector-curvature="0"
         id="path14" />
      <path
         d="m 256,8.356 c -136.77,0 -247.64,110.87 -247.64,247.64 0,136.77 110.87,247.64 247.64,247.64 136.77,0 247.64,-110.87 247.64,-247.64 C 503.64,119.226 392.77,8.356 256,8.356 m 2.942,31.691 c 120.9,0 218.9,98 218.9,218.9 0,120.9 -98,218.9 -218.9,218.9 -120.9,0 -218.93,-98 -218.93,-218.9 0,-120.9 98.03,-218.9 218.93,-218.9"
         inkscape:connector-curvature="0"
         id="path16" />
    </g>
    <path
       d="m 253.04,7.859 c -135.42,0 -245.19,109.78 -245.19,245.19 0,135.42 109.78,245.19 245.19,245.19 135.42,0 245.19,-109.78 245.19,-245.19 0,-135.42 -109.78,-245.19 -245.19,-245.19 z m 0,26.297 c 120.9,0 218.9,98 218.9,218.9 0,120.9 -98,218.9 -218.9,218.9 -120.9,0 -218.93,-98 -218.93,-218.9 0,-120.9 98.03,-218.9 218.93,-218.9 z"
       inkscape:connector-curvature="0"
       id="path18"
       style="fill:#ffffff;stroke:#000000;stroke-width:4.90399981;stroke-opacity:0.31000001" />
  </g>
  <text
     x="729.64001"
     y="231.36"
     id="text20"
     style="font-size:129.22999573px;line-height:125%;letter-spacing:0;word-spacing:0;font-family:Gentium Book Basic">
    <tspan
       x="729.64001"
       y="231.36"
       id="tspan22" />
  </text>
  <text
     x="378.91"
     y="579.25"
     transform="scale(4.0128,0.2492)"
     id="text24"
     style="font-size:46.95399857px;text-anchor:middle;font-family:Arial" />
  <text
     x="1310.91"
     y="151.36"
     id="text26"
     style="font-size:129.22999573px;line-height:125%;letter-spacing:0;word-spacing:0;font-family:Gentium Book Basic">
    <tspan
       x="1310.91"
       y="151.36"
       id="tspan28" />
  </text>
  <text
     x="523.76001"
     y="258.22"
     transform="scale(4.0128,0.2492)"
     id="text30"
     style="font-size:46.95399857px;text-anchor:middle;font-family:Arial" />
  <text
     x="239.33"
     y="-29.900999"
     id="text32"
     style="font-size:129.22999573px;line-height:125%;letter-spacing:0;word-spacing:0;font-family:Gentium Book Basic">
    <tspan
       x="239.33"
       y="-29.900999"
       id="tspan34" />
  </text>
  <text
     x="256.72"
     y="-469.14001"
     transform="scale(4.0128,0.2492)"
     id="text36"
     style="font-size:46.95399857px;text-anchor:middle;font-family:Arial" />
  <text
     x="1337.38"
     y="-246.37"
     id="text38"
     style="font-size:129.22999573px;line-height:125%;letter-spacing:0;word-spacing:0;font-family:Gentium Book Basic">
    <tspan
       x="1337.38"
       y="-246.37"
       id="tspan40" />
  </text>
  <text
     x="530.35999"
     y="-1337.8101"
     transform="scale(4.0128,0.2492)"
     id="text42"
     style="font-size:46.95399857px;text-anchor:middle;font-family:Arial" />
  <text
     x="1918.65"
     y="-326.38"
     id="text44"
     style="font-size:129.22999573px;line-height:125%;letter-spacing:0;word-spacing:0;font-family:Gentium Book Basic">
    <tspan
       x="1918.65"
       y="-326.38"
       id="tspan46" />
  </text>
  <text
     x="675.21002"
     y="-1658.85"
     transform="scale(4.0128,0.2492)"
     id="text48"
     style="font-size:46.95399857px;text-anchor:middle;font-family:Arial" />
  <text
     x="1529.53"
     y="-798.78003"
     id="text50"
     style="font-size:129.22999573px;line-height:125%;letter-spacing:0;word-spacing:0;font-family:Gentium Book Basic">
    <tspan
       x="1529.53"
       y="-798.78003"
       id="tspan52" />
  </text>
  <text
     x="578.23999"
     y="-3554.51"
     transform="scale(4.0128,0.2492)"
     id="text54"
     style="font-size:46.95399857px;text-anchor:middle;font-family:Arial" />
  <text
     x="2110.79"
     y="-878.78003"
     id="text56"
     style="font-size:129.22999573px;line-height:125%;letter-spacing:0;word-spacing:0;font-family:Gentium Book Basic">
    <tspan
       x="2110.79"
       y="-878.78003"
       id="tspan58" />
  </text>
  <text
     x="723.09003"
     y="-3875.54"
     transform="scale(4.0128,0.2492)"
     id="text60"
     style="font-size:46.95399857px;text-anchor:middle;font-family:Arial" />
  <text
     x="277.98999"
     y="535.94"
     id="text62"
     style="font-size:208.33000183px;line-height:125%;letter-spacing:0;word-spacing:0;font-family:Gentium Book Basic">
    <tspan
       x="277.98999"
       y="535.94"
       id="tspan64" />
  </text>
  <path
     d="m 287.75,152.27 c -22.678,8.448 -37.01,30.2 -35.39,54.01 l 0.55,9.204 -9.08,-1.134 c -33.01,-4.319 -61.86,-18.948 -86.34,-43.51 l -11.98,-12.2 -3.086,9.02 c -6.539,20.05 -2.354,41.27 11.247,55.52 7.245,7.854 5.624,8.988 -6.905,4.292 -4.342,-1.484 -8.161,-2.618 -8.527,-2.051 -1.256,1.323 3.086,18.381 6.539,25.13 4.708,9.393 14.334,18.57 24.848,24.02 l 8.893,4.292 -10.515,0.188 c -10.175,0 -10.515,0.188 -9.442,4.13 3.636,12.2 17.969,25.13 33.925,30.77 l 11.247,3.941 -9.782,5.992 c -14.517,8.637 -31.571,13.496 -48.625,13.873 -8.161,0.187 -14.883,0.945 -14.883,1.512 0,1.862 22.13,12.362 35.02,16.492 38.633,12.2 84.54,6.937 119.01,-13.873 24.482,-14.818 48.991,-44.27 60.42,-72.77 6.173,-15.196 12.346,-42.943 12.346,-56.28 0,-8.61 0.523,-9.744 10.698,-20.05 5.99,-5.992 11.613,-12.578 12.686,-14.44 1.831,-3.563 1.648,-3.563 -7.611,-0.378 -15.432,5.614 -17.603,4.885 -9.966,-3.563 5.624,-5.992 12.32,-16.869 12.32,-20.05 0,-0.567 -2.72,0.351 -5.807,2.051 -3.27,1.862 -10.515,4.697 -15.955,6.37 l -9.809,3.185 -8.893,-6.181 c -4.891,-3.374 -11.77,-7.126 -15.406,-8.26 -9.259,-2.618 -23.41,-2.24 -31.754,0.756"
     inkscape:connector-curvature="0"
     id="path66"
     style="fill:#ffffff" />
</svg>
