<?xml version="1.0" encoding="UTF-8" standalone="no"?>
<!-- Created with Inkscape (http://www.inkscape.org/) -->

<svg
   xmlns:dc="http://purl.org/dc/elements/1.1/"
   xmlns:cc="http://creativecommons.org/ns#"
   xmlns:rdf="http://www.w3.org/1999/02/22-rdf-syntax-ns#"
   xmlns:svg="http://www.w3.org/2000/svg"
   xmlns="http://www.w3.org/2000/svg"
   xmlns:inkscape="http://www.inkscape.org/namespaces/inkscape"
   version="1.1"
   width="100%"
   height="100%"
   viewBox="0 0 512 512"
   id="svg2">
  <metadata
     id="metadata84">
    <rdf:RDF>
      <cc:Work
         rdf:about="">
        <dc:format>image/svg+xml</dc:format>
        <dc:type
           rdf:resource="http://purl.org/dc/dcmitype/StillImage" />
      </cc:Work>
    </rdf:RDF>
  </metadata>
  <defs
     id="defs82" />
  <g
     transform="translate(0,-540.36)"
     id="g4">
    <g
       id="g6"
       style="fill-rule:evenodd">
      <path
         d="m 471.95,793.41 c 0,120.9 -98.01,218.9 -218.9,218.9 -120.9,0 -218.9,-98.01 -218.9,-218.9 0,-120.9 98.01,-218.9 218.9,-218.9 120.9,0 218.9,98.01 218.9,218.9"
         inkscape:connector-curvature="0"
         id="path8"
         style="fill:#ffffff" />
      <path
         d="m 562.86,-316.57 c 0,198.82 -161.18,360 -360,360 -198.82,0 -360,-161.18 -360,-360 0,-198.82 161.18,-360 360,-360 198.82,0 360,161.18 360,360"
         inkscape:connector-curvature="0"
         transform="matrix(0.63095,0,0,0.63095,125.99,996.1)"
         id="path10"
         style="fill:#6788cc" />
    </g>
    <path
       d="M 290.88,137.06 184.35,320.72 c -17.11,28.404 -30.351,39.06 -47.781,39.06 l -1.594,15.16 h 1.094 l -0.094,1 h 1.094 c -0.013,0.123 -0.094,1 -0.094,1 h 1.094 c -0.013,0.123 -0.094,1 -0.094,1 h 1.063 c -0.012,0.116 -0.094,0.969 -0.094,0.969 h 1.094 c -0.013,0.123 -0.094,1 -0.094,1 h 1.094 c -0.013,0.123 -0.094,1 -0.094,1 h 1.094 l -0.094,1 h 1.094 c -0.013,0.123 -0.094,1 -0.094,1 h 1.094 c -0.013,0.123 -0.094,1 -0.094,1 h 1.063 c -0.012,0.116 -0.094,0.969 -0.094,0.969 h 1.094 c -0.013,0.123 -0.094,1 -0.094,1 h 1.094 l -0.094,1 h 1.094 c -0.013,0.123 -0.094,1 -0.094,1 h 1.094 c -0.013,0.123 -0.094,1 -0.094,1 h 1.094 c -0.013,0.123 -0.094,1 -0.094,1 h 1.063 c -0.012,0.116 -0.094,0.969 -0.094,0.969 h 1.094 c -0.013,0.123 -0.094,1 -0.094,1 h 1.094 c -0.013,0.123 -0.094,1 -0.094,1 h 1.094 c -0.013,0.123 -0.094,1 -0.094,1 h 1.094 c -0.013,0.123 -0.094,1 -0.094,1 h 1.094 c -0.013,0.123 -0.094,1 -0.094,1 h 1.063 c -0.012,0.116 -0.094,0.969 -0.094,0.969 h 0.031 1.063 c -0.013,0.123 -0.094,1 -0.094,1 h 1.094 c -0.013,0.123 -0.094,1 -0.094,1 h 1.094 c -0.013,0.123 -0.094,1 -0.094,1 h 1.094 c -0.013,0.123 -0.094,1 -0.094,1 h 1.094 c -0.013,0.123 -0.094,1 -0.094,1 h 1.094 c -0.013,0.123 -0.094,1 -0.094,1 h 1.063 c -0.012,0.116 -0.094,0.969 -0.094,0.969 h 1.094 c -0.013,0.123 -0.094,1 -0.094,1 h 1.094 c -0.013,0.123 -0.094,1 -0.094,1 h 1.094 c -0.013,0.123 -0.094,1 -0.094,1 h 1.094 c -0.013,0.123 -0.094,1 -0.094,1 h 1.094 c -0.013,0.123 -0.094,1 -0.094,1 h 1.063 c -0.012,0.116 -0.094,0.969 -0.094,0.969 h 1.094 c -0.013,0.123 -0.094,1 -0.094,1 h 1.094 c -0.013,0.123 -0.094,1 -0.094,1 h 1.094 c -0.013,0.123 -0.094,1 -0.094,1 h 1.094 c -0.013,0.123 -0.094,1 -0.094,1 h 1.094 c -0.013,0.123 -0.094,1 -0.094,1 h 1.063 c -0.012,0.116 -0.094,0.969 -0.094,0.969 h 1.094 c -0.013,0.123 -0.094,1 -0.094,1 h 1.094 c -0.013,0.123 -0.094,1 -0.094,1 h 1.094 c -0.013,0.123 -0.094,1 -0.094,1 h 1.094 c -0.013,0.123 -0.094,1 -0.094,1 h 1.094 c -0.013,0.123 -0.094,1 -0.094,1 h 1.094 c -0.013,0.123 -0.094,1 -0.094,1 h 1.063 c -0.012,0.116 -0.094,0.969 -0.094,0.969 h 1.094 l -0.094,1 h 1.094 c -0.013,0.123 -0.094,1 -0.094,1 h 1.094 c -0.013,0.123 -0.094,1 -0.094,1 h 1.094 c -0.013,0.123 -0.094,1 -0.094,1 h 1.094 c -0.013,0.123 -0.094,1 -0.094,1 h 1.063 c -0.012,0.115 -0.094,0.969 -0.094,0.969 h 1.094 c -0.013,0.123 -0.094,1 -0.094,1 h 1.094 c -0.013,0.123 -0.094,1 -0.094,1 h 1.094 c -0.013,0.123 -0.094,1 -0.094,1 h 1.094 c -0.013,0.123 -0.094,1 -0.094,1 h 1.094 c -0.013,0.123 -0.094,1 -0.094,1 h 1.063 c -0.012,0.115 -0.094,0.969 -0.094,0.969 h 1.094 c -0.013,0.123 -0.094,1 -0.094,1 h 1.094 c -0.013,0.123 -0.094,1 -0.094,1 h 1.094 c -0.013,0.123 -0.094,1 -0.094,1 h 1.094 c -0.013,0.123 -0.094,1 -0.094,1 h 1.094 l -0.094,1 h 1.063 c -0.012,0.115 -0.094,0.969 -0.094,0.969 h 0.031 1.063 c -0.013,0.123 -0.094,1 -0.094,1 h 1.094 c -0.013,0.123 -0.094,1 -0.094,1 h 1.094 c -0.013,0.123 -0.094,1 -0.094,1 h 1.094 c -0.013,0.123 -0.094,1 -0.094,1 h 1.094 c -0.013,0.123 -0.094,1 -0.094,1 h 1.094 c -0.013,0.123 -0.094,1 -0.094,1 h 1.063 c -0.012,0.115 -0.094,0.969 -0.094,0.969 h 1.094 c -0.013,0.123 -0.094,1 -0.094,1 h 1.094 c -0.013,0.123 -0.094,1 -0.094,1 h 1.094 c -0.013,0.123 -0.094,1 -0.094,1 h 1.094 c -0.013,0.123 -0.094,1 -0.094,1 h 1.094 c -0.013,0.123 -0.094,1 -0.094,1 h 1.063 c -0.012,0.115 -0.094,0.969 -0.094,0.969 h 1.094 c -0.013,0.123 -0.094,1 -0.094,1 h 1.094 c -0.013,0.123 -0.094,1 -0.094,1 h 1.094 c -0.013,0.123 -0.094,1 -0.094,1 h 1.094 c -0.013,0.123 -0.094,1 -0.094,1 h 1.094 c -0.013,0.123 -0.094,1 -0.094,1 h 1.063 c -0.012,0.115 -0.094,0.969 -0.094,0.969 h 1.094 c -0.013,0.123 -0.094,1 -0.094,1 h 1.094 c -0.013,0.123 -0.094,1 -0.094,1 h 1.094 c -0.013,0.123 -0.094,1 -0.094,1 h 1.094 c -0.013,0.123 -0.094,1 -0.094,1 h 1.094 c -0.013,0.123 -0.094,1 -0.094,1 h 1.094 c -0.013,0.123 -0.094,1 -0.094,1 h 1.063 c -0.012,0.115 -0.094,0.969 -0.094,0.969 h 1.094 c -0.013,0.123 -0.094,1 -0.094,1 h 1.094 c -0.013,0.123 -0.094,1 -0.094,1 h 1.094 c -0.013,0.123 -0.094,1 -0.094,1 h 1.094 c -0.013,0.123 -0.094,1 -0.094,1 h 1.094 c -0.013,0.123 -0.094,1 -0.094,1 h 1.063 c -0.012,0.115 -0.094,0.969 -0.094,0.969 h 1.094 c -0.013,0.123 -0.094,1 -0.094,1 h 1.094 c -0.013,0.123 -0.094,1 -0.094,1 h 1.094 c -0.013,0.123 -0.094,1 -0.094,1 h 1.094 c -0.013,0.123 -0.094,1 -0.094,1 h 1.094 c -0.013,0.123 -0.094,1 -0.094,1 h 1.063 c -0.012,0.115 -0.094,0.969 -0.094,0.969 h 1.094 c -0.013,0.122 -0.094,1 -0.094,1 h 1.094 c -0.013,0.122 -0.094,1 -0.094,1 h 1.094 c -0.013,0.122 -0.094,1 -0.094,1 h 1.094 c -0.013,0.122 -0.094,1 -0.094,1 h 1.094 c -0.006,0.057 -0.011,0.248 -0.031,0.469 3.473,0.158 6.957,0.281 10.469,0.281 107.48,0 197.54,-74.65 221.13,-174.94 h -0.656 c -0.002,-0.01 -0.188,-1 -0.188,-1 h -0.813 c -0.002,-0.01 -0.188,-1 -0.188,-1 h -0.813 c -0.002,-0.01 -0.188,-1 -0.188,-1 h -0.813 c -0.002,-0.01 -0.188,-1 -0.188,-1 h -0.813 c -0.002,-0.01 -0.188,-1 -0.188,-1 h -0.781 c -0.002,-0.009 -0.188,-0.969 -0.188,-0.969 h -0.813 l -0.188,-1 h -0.813 l -0.188,-1 h -0.813 l -0.188,-1 h -0.813 l -0.188,-1 h -0.813 c -0.002,-0.01 -0.188,-1 -0.188,-1 h -0.781 c -0.002,-0.009 -0.188,-0.969 -0.188,-0.969 h -0.813 c -0.002,-0.01 -0.188,-1 -0.188,-1 h -0.813 c -0.002,-0.01 -0.188,-1 -0.188,-1 h -0.813 c -0.002,-0.01 -0.188,-1 -0.188,-1 h -0.813 c -0.002,-0.01 -0.188,-1 -0.188,-1 h -0.813 c -0.002,-0.01 -0.188,-1 -0.188,-1 h -0.813 c -0.002,-0.01 -0.188,-1 -0.188,-1 h -0.781 c -0.002,-0.009 -0.188,-0.969 -0.188,-0.969 h -0.813 c -0.002,-0.01 -0.188,-1 -0.188,-1 h -0.813 c -0.002,-0.01 -0.188,-1 -0.188,-1 h -0.813 c -0.002,-0.01 -0.188,-1 -0.188,-1 h -0.813 c -0.002,-0.01 -0.188,-1 -0.188,-1 h -0.813 c -0.002,-0.01 -0.188,-1 -0.188,-1 h -0.781 c -0.002,-0.009 -0.188,-0.969 -0.188,-0.969 h -0.813 c -0.002,-0.01 -0.188,-1 -0.188,-1 h -0.813 c -0.002,-0.01 -0.188,-1 -0.188,-1 h -0.813 l -0.188,-1 h -0.813 l -0.188,-1 h -0.813 c -0.002,-0.01 -0.188,-1 -0.188,-1 h -0.781 c -0.002,-0.009 -0.188,-0.969 -0.188,-0.969 h -0.813 c -0.002,-0.01 -0.188,-1 -0.188,-1 h -0.813 c -0.002,-0.01 -0.188,-1 -0.188,-1 h -0.813 c -0.002,-0.01 -0.188,-1 -0.188,-1 h -0.813 c -0.002,-0.01 -0.188,-1 -0.188,-1 h -0.813 c -0.002,-0.01 -0.188,-1 -0.188,-1 h -0.781 c -0.002,-0.009 -0.188,-0.969 -0.188,-0.969 h -0.813 l -0.188,-1 h -0.813 l -0.188,-1 h -0.813 l -0.188,-1 h -0.813 l -0.188,-1 h -0.813 c -0.002,-0.01 -0.188,-1 -0.188,-1 h -0.813 c -0.002,-0.01 -0.188,-1 -0.188,-1 h -0.781 c -0.002,-0.009 -0.188,-0.969 -0.188,-0.969 h -0.813 c -0.002,-0.01 -0.188,-1 -0.188,-1 h -0.813 c -0.002,-0.01 -0.188,-1 -0.188,-1 h -0.813 c -0.002,-0.01 -0.188,-1 -0.188,-1 h -0.813 c -0.002,-0.01 -0.188,-1 -0.188,-1 h -0.813 l -0.188,-1 h -0.781 l -0.188,-0.969 h -0.813 l -0.188,-1 h -0.813 l -0.188,-1 h -0.813 c -0.002,-0.01 -0.188,-1 -0.188,-1 h -0.813 c -0.002,-0.01 -0.188,-1 -0.188,-1 h -0.813 c -0.002,-0.01 -0.188,-1 -0.188,-1 h -0.781 c -0.002,-0.009 -0.188,-0.969 -0.188,-0.969 h -0.813 c -0.002,-0.01 -0.188,-1 -0.188,-1 h -0.813 c -0.002,-0.01 -0.188,-1 -0.188,-1 h -0.813 c -0.002,-0.01 -0.188,-1 -0.188,-1 h -0.813 c -0.002,-0.01 -0.188,-1 -0.188,-1 h -0.813 c -0.002,-0.01 -0.188,-1 -0.188,-1 h -0.813 l -0.188,-1 h -0.781 l -0.188,-0.969 h -0.813 c -0.002,-0.01 -0.188,-1 -0.188,-1 h -0.813 c -0.002,-0.01 -0.188,-1 -0.188,-1 h -0.813 c -0.002,-0.01 -0.188,-1 -0.188,-1 h -0.813 c -0.002,-0.01 -0.188,-1 -0.188,-1 h -0.813 c -0.002,-0.01 -0.188,-1 -0.188,-1 h -0.781 c -0.002,-0.009 -0.188,-0.969 -0.188,-0.969 h -0.813 c -0.002,-0.01 -0.188,-1 -0.188,-1 h -0.813 c -0.002,-0.01 -0.188,-1 -0.188,-1 h -0.813 c -0.002,-0.01 -0.188,-1 -0.188,-1 h -0.813 l -0.188,-1 h -0.813 l -0.188,-1 h -0.781 l -0.188,-0.969 h -0.813 c -0.002,-0.01 -0.188,-1 -0.188,-1 h -0.813 c -0.002,-0.01 -0.188,-1 -0.188,-1 h -0.813 c -0.002,-0.01 -0.188,-1 -0.188,-1 h -0.813 c -0.002,-0.01 -0.188,-1 -0.188,-1 h -0.813 c -0.002,-0.01 -0.188,-1 -0.188,-1 h -0.781 c -0.002,-0.009 -0.188,-0.969 -0.188,-0.969 h -0.813 c -0.002,-0.01 -0.188,-1 -0.188,-1 h -0.813 c -0.002,-0.01 -0.188,-1 -0.188,-1 h -0.813 c -0.002,-0.01 -0.188,-1 -0.188,-1 h -0.813 l -0.188,-1 h -0.813 l -0.188,-1 h -0.813 c -0.002,-0.01 -0.188,-1 -0.188,-1 h -0.781 c -0.002,-0.009 -0.188,-0.969 -0.188,-0.969 h -0.813 c -0.002,-0.01 -0.188,-1 -0.188,-1 h -0.813 c -0.002,-0.01 -0.188,-1 -0.188,-1 h -0.813 c -0.002,-0.01 -0.188,-1 -0.188,-1 h -0.813 c -0.002,-0.01 -0.188,-1 -0.188,-1 h -0.813 c -0.002,-0.01 -0.188,-1 -0.188,-1 h -0.781 c -0.002,-0.009 -0.188,-0.969 -0.188,-0.969 h -0.813 c -0.002,-0.01 -0.188,-1 -0.188,-1 h -0.813 l -0.188,-1 h -0.813 l -0.188,-1 h -0.813 c -0.002,-0.01 -0.188,-1 -0.188,-1 h -0.813 c -0.002,-0.01 -0.188,-1 -0.188,-1 h -0.781 c -0.002,-0.009 -0.188,-0.969 -0.188,-0.969 h -0.813 c -0.002,-0.01 -0.188,-1 -0.188,-1 h -0.813 c -0.002,-0.01 -0.188,-1 -0.188,-1 h -0.813 c -0.002,-0.01 -0.188,-1 -0.188,-1 h -0.813 c -0.002,-0.01 -0.188,-1 -0.188,-1 h -0.813 c -0.002,-0.01 -0.188,-1 -0.188,-1 h -0.813 c -0.002,-0.01 -0.188,-1 -0.188,-1 h -0.781 l -0.188,-0.969 h -0.813 l -0.188,-1 h -0.813 l -0.188,-1 h -0.813 c -0.002,-0.01 -0.188,-1 -0.188,-1 h -0.813 c -0.002,-0.01 -0.188,-1 -0.188,-1 h -0.813 c -0.002,-0.01 -0.188,-1 -0.188,-1 h -0.781 c -0.002,-0.009 -0.188,-0.969 -0.188,-0.969 h -0.813 c -0.002,-0.01 -0.188,-1 -0.188,-1 h -0.813 c -0.002,-0.01 -0.188,-1 -0.188,-1 h -0.813 c -0.002,-0.01 -0.188,-1 -0.188,-1 h -0.813 c -0.002,-0.01 -0.188,-1 -0.188,-1 h -0.813 c -0.002,-0.01 -0.188,-1 -0.188,-1 h -0.781 l -0.188,-0.969 h -0.813 l -0.188,-1 h -0.813 c -0.002,-0.01 -0.188,-1 -0.188,-1 h -0.813 c -0.002,-0.01 -0.188,-1 -0.188,-1 h -0.813 c -0.002,-0.01 -0.188,-1 -0.188,-1 h -0.813 c -0.002,-0.01 -0.188,-1 -0.188,-1 h -0.781 c -0.002,-0.009 -0.188,-0.969 -0.188,-0.969 h -0.813 c -0.002,-0.01 -0.188,-1 -0.188,-1 h -0.813 c -0.002,-0.01 -0.188,-1 -0.188,-1 h -0.813 c -0.002,-0.01 -0.188,-1 -0.188,-1 h -0.813 c -0.002,-0.01 -0.188,-1 -0.188,-1 h -0.813 l -0.188,-1 h -0.813 l -0.188,-1 h -0.781 l -0.188,-0.969 h -0.813 c -0.002,-0.01 -0.188,-1 -0.188,-1 h -0.813 c -0.002,-0.01 -0.188,-1 -0.188,-1 h -0.813 c -0.002,-0.01 -0.188,-1 -0.188,-1 h -0.813 c -0.002,-0.01 -0.188,-1 -0.188,-1 h -0.813 c -0.002,-0.01 -0.188,-1 -0.188,-1 h -0.781 c -0.002,-0.009 -0.188,-0.969 -0.188,-0.969 h -0.813 c -0.002,-0.01 -0.188,-1 -0.188,-1 h -0.813 c -0.002,-0.01 -0.188,-1 -0.188,-1 h -0.813 c -0.002,-0.01 -0.188,-1 -0.188,-1 h -0.813 l -0.188,-1 h -0.813 l -0.188,-1 h -0.781 c -0.002,-0.009 -0.188,-0.969 -0.188,-0.969 h -0.813 c -0.002,-0.01 -0.188,-1 -0.188,-1 h -0.813 c -0.002,-0.01 -0.188,-1 -0.188,-1 h -0.813 c -0.002,-0.01 -0.188,-1 -0.188,-1 h -0.813 c -0.002,-0.01 -0.188,-1 -0.188,-1 h -0.813 c -0.002,-0.01 -0.188,-1 -0.188,-1 h -0.813 c -0.002,-0.01 -0.188,-1 -0.188,-1 h -0.781 c -0.002,-0.009 -0.188,-0.969 -0.188,-0.969 h -0.813 c -0.002,-0.01 -0.188,-1 -0.188,-1 h -0.813 l -0.188,-1 h -0.813 l -0.188,-1 h -0.813 l -0.188,-1 h -0.813 c -0.002,-0.01 -0.188,-1 -0.188,-1 h -0.781 c -0.002,-0.009 -0.188,-0.969 -0.188,-0.969 h -0.813 c -0.002,-0.01 -0.188,-1 -0.188,-1 h -0.813 l -0.188,-1 h -0.813 c -0.002,-0.01 -0.188,-1 -0.188,-1 h -0.813 c -0.002,-0.01 -0.188,-1 -0.188,-1 h -0.813 c -0.002,-0.01 -0.188,-1 -0.188,-1 h -0.781 c -0.002,-0.009 -0.188,-0.969 -0.188,-0.969 h -0.813 c -0.002,-0.01 -0.188,-1 -0.188,-1 h -0.813 l -0.188,-1 h -0.813 l -0.188,-1 h -0.813 c -0.002,-0.01 -0.188,-1 -0.188,-1 h -0.813 c -0.002,-0.01 -0.188,-1 -0.188,-1 h -0.781 c -0.002,-0.009 -0.188,-0.969 -0.188,-0.969 h -0.813 c -0.002,-0.01 -0.188,-1 -0.188,-1 h -0.813 c -0.002,-0.01 -0.188,-1 -0.188,-1 h -0.813 c -0.002,-0.01 -0.188,-1 -0.188,-1 H 290.74"
       inkscape:connector-curvature="0"
       transform="translate(0,540.36)"
       id="path12"
       style="opacity:0.87599996;fill-opacity:0.23500001" />
    <g
       id="g14"
       style="fill:#ffffff">
      <path
         d="m 292.17,640.29 c -29.542,0 -51.54,6.309 -74.22,21.295 -22.757,15.04 -42.557,38.793 -52.19,62.52 -3.667,9.04 -5.315,11.62 -7.24,11.3 -1.37,-0.227 -8.556,-0.477 -15.928,-0.568 -24.26,-0.3 -41.83,6.708 -58.6,23.481 -11.03,11.03 -17.695,22.459 -21.238,36.2 -2.449,9.499 -3.234,28.16 -1.533,36.598 l 0.994,4.969 -8.177,1.675 c -7.765,1.604 -15.05,4.683 -21.579,8.944 8.793,38.863 27.521,73.937 53.41,102.41 0.041,0.045 0.073,0.097 0.114,0.142 1.149,1.262 2.344,2.512 3.521,3.748 0.364,0.382 0.74,0.756 1.107,1.136 0.955,0.989 1.895,1.981 2.868,2.953 0.782,0.781 1.564,1.559 2.357,2.328 0.264,0.256 0.53,0.512 0.795,0.767 0.851,0.817 1.72,1.609 2.584,2.413 1.128,1.05 2.258,2.096 3.407,3.123 0.524,0.469 1.061,0.927 1.59,1.391 0.8,0.702 1.603,1.41 2.413,2.101 0.041,0.035 0.073,0.079 0.114,0.114 0.967,0.824 1.943,1.634 2.924,2.442 0.008,0 0.02,0 0.028,0 39.24,32.31 89.5,51.732 144.29,51.732 55.12,0 105.64,-19.648 144.97,-52.3 0.009,0 0.02,0 0.028,0 0.413,-0.343 0.811,-0.705 1.221,-1.051 0.95,-0.8 1.902,-1.598 2.839,-2.413 0.197,-0.172 0.4,-0.339 0.596,-0.511 0.116,-0.102 0.225,-0.211 0.341,-0.312 1.414,-1.244 2.82,-2.497 4.202,-3.776 1.323,-1.224 2.624,-2.465 3.918,-3.719 0.168,-0.163 0.343,-0.319 0.511,-0.483 0.959,-0.936 1.897,-1.887 2.839,-2.839 0.758,-0.766 1.525,-1.523 2.271,-2.3 0.671,-0.698 1.325,-1.423 1.988,-2.129 0.472,-0.503 0.952,-0.997 1.42,-1.505 0.114,-0.124 0.227,-0.245 0.341,-0.369 0.208,-0.227 0.417,-0.453 0.625,-0.681 36.682,-40.34 59.03,-93.93 59.03,-152.75 0,-3.035 -0.081,-6.05 -0.199,-9.06 -12.681,-10.998 -28.11,-18.967 -45.34,-22.544 l -7.439,-1.533 -1.732,-10.818 c -4.02,-25.842 -15.868,-49.24 -35.406,-69.875 -27.325,-28.862 -58.61,-42.25 -98.84,-42.25"
         inkscape:connector-curvature="0"
         id="path16"
         style="fill-opacity:0.44600004;fill-rule:evenodd" />
      <text
         x="161.42999"
         y="915.31"
         id="text18"
         style="font-size:322.77999878px;font-style:italic;line-height:125%;letter-spacing:0;word-spacing:0;opacity:0.87599996;font-family:Century Schoolbook L">
        <tspan
           x="161.42999"
           y="915.31"
           id="tspan20">A</tspan>
      </text>
    </g>
    <g
       id="g22"
       style="fill-rule:evenodd">
      <path
         d="m 256,541.36 c -140.83,0 -255,114.17 -255,255 0,140.83 114.17,255 255,255 140.83,0 255,-114.17 255,-255 0,-140.83 -114.17,-255 -255,-255 m 8.827,44.931 c 120.9,0 218.9,98 218.9,218.9 0,120.9 -98,218.9 -218.9,218.9 -120.9,0 -218.93,-98 -218.93,-218.9 0,-120.9 98.03,-218.9 218.93,-218.9"
         inkscape:connector-curvature="0"
         id="path24"
         style="fill-opacity:0.06700003" />
      <g
         id="g26"
         style="fill-opacity:0.12900002">
        <path
           d="M 256,544.79 C 117.06,544.79 4.43,657.42 4.43,796.36 4.43,935.3 117.06,1047.93 256,1047.93 394.94,1047.93 507.57,935.3 507.57,796.36 507.57,657.42 394.94,544.79 256,544.79 m 5.885,38.556 c 120.9,0 218.9,98 218.9,218.9 0,120.9 -98,218.9 -218.9,218.9 -120.9,0 -218.93,-98 -218.93,-218.9 0,-120.9 98.03,-218.9 218.93,-218.9"
           inkscape:connector-curvature="0"
           id="path28" />
        <path
           d="M 256,548.72 C 119.23,548.72 8.36,659.59 8.36,796.36 8.36,933.13 119.23,1044 256,1044 392.77,1044 503.64,933.13 503.64,796.36 503.64,659.59 392.77,548.72 256,548.72 m 2.942,31.691 c 120.9,0 218.9,98 218.9,218.9 0,120.9 -98,218.9 -218.9,218.9 -120.9,0 -218.93,-98 -218.93,-218.9 0,-120.9 98.03,-218.9 218.93,-218.9"
           inkscape:connector-curvature="0"
           id="path30" />
      </g>
      <path
         d="M 253.04,548.22 C 117.62,548.22 7.85,658 7.85,793.41 c 0,135.42 109.78,245.19 245.19,245.19 135.42,0 245.19,-109.78 245.19,-245.19 0,-135.42 -109.78,-245.19 -245.19,-245.19 z m 0,26.297 c 120.9,0 218.9,98 218.9,218.9 0,120.9 -98,218.9 -218.9,218.9 -120.9,0 -218.93,-98 -218.93,-218.9 0,-120.9 98.03,-218.9 218.93,-218.9 z"
         inkscape:connector-curvature="0"
         id="path32"
         style="fill:#ffffff;stroke:#000000;stroke-width:4.90399981;stroke-opacity:0.31000001" />
    </g>
    <text
       x="729.64001"
       y="771.71997"
       id="text34"
       style="font-size:129.22999573px;line-height:125%;letter-spacing:0;word-spacing:0;font-family:Gentium Book Basic">
      <tspan
         x="729.64001"
         y="771.71997"
         id="tspan36" />
    </text>
    <text
       x="378.91"
       y="2747.6399"
       transform="scale(4.0128,0.2492)"
       id="text38"
       style="font-size:46.95399857px;text-anchor:middle;font-family:Arial" />
    <text
       x="1310.91"
       y="691.71997"
       id="text40"
       style="font-size:129.22999573px;line-height:125%;letter-spacing:0;word-spacing:0;font-family:Gentium Book Basic">
      <tspan
         x="1310.91"
         y="691.71997"
         id="tspan42" />
    </text>
    <text
       x="523.76001"
       y="2426.6001"
       transform="scale(4.0128,0.2492)"
       id="text44"
       style="font-size:46.95399857px;text-anchor:middle;font-family:Arial" />
    <text
       x="239.33"
       y="510.45999"
       id="text46"
       style="font-size:129.22999573px;line-height:125%;letter-spacing:0;word-spacing:0;font-family:Gentium Book Basic">
      <tspan
         x="239.33"
         y="510.45999"
         id="tspan48" />
    </text>
    <text
       x="256.72"
       y="1699.25"
       transform="scale(4.0128,0.2492)"
       id="text50"
       style="font-size:46.95399857px;text-anchor:middle;font-family:Arial" />
    <text
       x="1337.38"
       y="293.98999"
       id="text52"
       style="font-size:129.22999573px;line-height:125%;letter-spacing:0;word-spacing:0;font-family:Gentium Book Basic">
      <tspan
         x="1337.38"
         y="293.98999"
         id="tspan54" />
    </text>
    <text
       x="530.35999"
       y="830.57001"
       transform="scale(4.0128,0.2492)"
       id="text56"
       style="font-size:46.95399857px;text-anchor:middle;font-family:Arial" />
    <text
       x="1918.65"
       y="213.99001"
       id="text58"
       style="font-size:129.22999573px;line-height:125%;letter-spacing:0;word-spacing:0;font-family:Gentium Book Basic">
      <tspan
         x="1918.65"
         y="213.99001"
         id="tspan60" />
    </text>
    <text
       x="675.21002"
       y="509.54001"
       transform="scale(4.0128,0.2492)"
       id="text62"
       style="font-size:46.95399857px;text-anchor:middle;font-family:Arial" />
    <text
       x="1529.53"
       y="-258.41"
       id="text64"
       style="font-size:129.22999573px;line-height:125%;letter-spacing:0;word-spacing:0;font-family:Gentium Book Basic">
      <tspan
         x="1529.53"
         y="-258.41"
         id="tspan66" />
    </text>
    <text
       x="578.23999"
       y="-1386.12"
       transform="scale(4.0128,0.2492)"
       id="text68"
       style="font-size:46.95399857px;text-anchor:middle;font-family:Arial" />
    <text
       x="2110.79"
       y="-338.42001"
       id="text70"
       style="font-size:129.22999573px;line-height:125%;letter-spacing:0;word-spacing:0;font-family:Gentium Book Basic">
      <tspan
         x="2110.79"
         y="-338.42001"
         id="tspan72" />
    </text>
    <text
       x="723.09003"
       y="-1707.16"
       transform="scale(4.0128,0.2492)"
       id="text74"
       style="font-size:46.95399857px;text-anchor:middle;font-family:Arial" />
    <text
       x="277.98999"
       y="1076.3"
       id="text76"
       style="font-size:208.33000183px;line-height:125%;letter-spacing:0;word-spacing:0;font-family:Gentium Book Basic">
      <tspan
         x="277.98999"
         y="1076.3"
         id="tspan78" />
    </text>
  </g>
</svg>
