<?xml version="1.0" encoding="UTF-8" standalone="no"?>
<!-- Created with Inkscape (http://www.inkscape.org/) -->

<svg
   xmlns:dc="http://purl.org/dc/elements/1.1/"
   xmlns:cc="http://creativecommons.org/ns#"
   xmlns:rdf="http://www.w3.org/1999/02/22-rdf-syntax-ns#"
   xmlns:svg="http://www.w3.org/2000/svg"
   xmlns="http://www.w3.org/2000/svg"
   xmlns:inkscape="http://www.inkscape.org/namespaces/inkscape"
   version="1.1"
   width="100%"
   height="100%"
   viewBox="0 0 512 512"
   id="svg2">
  <metadata
     id="metadata76">
    <rdf:RDF>
      <cc:Work
         rdf:about="">
        <dc:format>image/svg+xml</dc:format>
        <dc:type
           rdf:resource="http://purl.org/dc/dcmitype/StillImage" />
      </cc:Work>
    </rdf:RDF>
  </metadata>
  <defs
     id="defs74" />
  <path
     d="m 471.95,253.05 c 0,120.9 -98.01,218.9 -218.9,218.9 -120.9,0 -218.9,-98.01 -218.9,-218.9 0,-120.9 98.01,-218.9 218.9,-218.9 120.9,0 218.9,98.01 218.9,218.9"
     inkscape:connector-curvature="0"
     id="path4"
     style="fill:#ff6600;fill-rule:evenodd" />
  <path
     d="M 334.65,117.17 V 227.9 h -0.574 v -1.08 h -1.046 v -1.046 h -1.08 v -1.08 h -1.08 v -1.08 h -1.08 v -1.08 h -1.08 v -1.08 h -1.08 v -1.08 h -1.08 v -1.08 h -1.046 v -1.046 h -1.08 v -1.08 h -1.08 v -1.08 h -1.08 v -1.08 h -1.08 v -1.08 h -1.08 v -1.08 h -1.046 v -1.046 h -1.08 v -1.08 h -1.08 v -1.08 h -1.08 v -1.08 h -1.08 v -1.08 h -1.08 v -1.08 h -1.046 v -1.046 h -1.08 v -1.08 h -1.08 v -1.08 h -1.08 v -1.08 h -1.08 v -1.08 h -1.08 v -1.08 h -1.08 v -1.08 h -1.046 v -1.046 h -1.08 v -1.08 h -1.08 v -1.08 h -1.08 v -1.08 h -1.08 v -1.08 h -1.08 v -1.08 h -1.046 v -1.046 h -1.08 v -1.08 h -1.08 v -1.08 h -1.08 v -1.08 h -1.08 v -1.08 h -1.08 v -1.08 h -1.046 v -1.046 h -1.08 v -1.08 h -1.08 v -1.08 h -1.08 v -1.08 h -1.08 v -1.08 h -1.08 v -1.08 h -1.046 v -1.046 h -1.08 v -1.08 h -1.08 v -0.27 -0.81 h -1.08 v -1.08 h -31.29 v 73.07 h -1.012 c 0,-0.076 0,-1.08 0,-1.08 h -1.08 c 0,-0.077 0,-1.08 0,-1.08 h -1.046 c 0,-0.073 0,-1.046 0,-1.046 H 247 c 0,-0.079 0,-1.08 0,-1.08 h -1.08 c 0,-0.08 0,-1.08 0,-1.08 h -1.08 c 0,-0.081 0,-1.08 0,-1.08 h -1.08 c 0,-0.083 0,-1.08 0,-1.08 h -1.08 c 0,-0.084 0,-1.08 0,-1.08 h -1.046 c 0,-0.08 0,-1.046 0,-1.046 h -1.08 c 0,-0.087 0,-1.08 0,-1.08 h -1.08 c 0,-0.088 0,-1.08 0,-1.08 h -1.08 c 0,-0.09 0,-1.08 0,-1.08 h -1.08 c 0,-0.091 0,-1.08 0,-1.08 h -1.08 c 0,-0.093 0,-1.08 0,-1.08 h -1.046 c 0,-0.089 0,-1.046 0,-1.046 h -1.08 c 0,-0.096 0,-1.08 0,-1.08 h -1.08 c 0,-0.098 0,-1.08 0,-1.08 h -1.08 c 0,-0.1 0,-1.08 0,-1.08 h -1.08 c 0,-0.102 0,-1.08 0,-1.08 h -1.08 c 0,-0.104 0,-1.08 0,-1.08 h -1.046 c 0,-0.1 0,-1.046 0,-1.046 h -1.08 c 0,-0.108 0,-1.08 0,-1.08 h -1.08 c 0,-0.11 0,-1.08 0,-1.08 h -1.08 c 0,-0.113 0,-1.08 0,-1.08 h -1.08 c 0,-0.115 0,-1.08 0,-1.08 h -1.08 c 0,-0.118 0,-1.08 0,-1.08 h -1.08 c 0,-0.12 0,-1.08 0,-1.08 h -1.046 c 0,-0.116 0,-1.046 0,-1.046 h -1.08 c 0,-0.126 0,-1.08 0,-1.08 h -1.08 c 0,-0.129 0,-1.08 0,-1.08 h -1.08 c 0,-0.133 0,-1.08 0,-1.08 h -1.08 c 0,-0.136 0,-1.08 0,-1.08 h -1.08 c 0,-0.139 0,-1.08 0,-1.08 h -1.046 c 0,-0.135 0,-1.046 0,-1.046 h -1.08 c 0,-0.148 0,-1.08 0,-1.08 h -1.08 c 0,-0.152 0,-1.08 0,-1.08 h -1.08 c 0,-0.156 0,-1.08 0,-1.08 h -1.08 c 0,-0.161 0,-1.08 0,-1.08 h -1.08 c 0,-0.166 0,-1.08 0,-1.08 h -1.046 c 0,-0.162 0,-1.046 0,-1.046 h -1.08 c 0,-0.177 0,-1.08 0,-1.08 h -1.08 c 0,-0.183 0,-1.08 0,-1.08 h -1.08 c 0,-0.19 0,-1.08 0,-1.08 h -1.08 c 0,-0.196 0,-1.08 0,-1.08 h -1.08 c 0,-0.204 0,-1.08 0,-1.08 h -1.08 c 0,-0.212 0,-1.08 0,-1.08 h -1.046 c 0,-0.209 0,-1.046 0,-1.046 h -1.08 c 0,-0.231 0,-1.08 0,-1.08 h -1.08 c 0,-0.241 0,-1.08 0,-1.08 h -1.08 c 0,-0.252 0,-1.08 0,-1.08 h -1.08 c 0,-0.264 0,-1.08 0,-1.08 h -1.08 c 0,-0.277 0,-1.08 0,-1.08 h -1.046 c 0,-0.278 0,-1.046 0,-1.046 h -1.08 c 0,-0.311 0,-1.08 0,-1.08 h -1.08 c 0,-0.329 0,-1.08 0,-1.08 h -1.08 c 0,-0.349 0,-1.08 0,-1.08 h -1.08 c 0,-0.371 0,-1.08 0,-1.08 h -1.08 c 0,-0.395 0,-1.08 0,-1.08 h -1.046 c 0,-0.407 0,-1.046 0,-1.046 h -1.08 c 0,-0.459 0,-1.08 0,-1.08 h -1.08 c 0,-0.491 0,-1.08 0,-1.08 h -1.08 c 0,-0.52 0,-1.08 0,-1.08 h -1.08 c 0,-0.538 0,-1.08 0,-1.08 h -1.08 c 0,-0.513 0,-1.08 0,-1.08 h -1.046 c 0,-0.345 0,-1.046 0,-1.046 h -1.08 v -0.202 c 0,0 0,-0.877 0,-0.877 h -1.08 v -0.641 c 0,0 0,-0.439 0,-0.439 h -1.08 v -1.08 h -31.29 v 95.85 c 0,11.597 1.204,22.2 3.611,31.826 2.407,9.409 6.376,17.602 11.846,24.604 1.49,1.907 3.114,3.684 4.86,5.366 0.39,0.398 0.778,0.796 1.181,1.181 0.24,0.244 0.497,0.47 0.742,0.709 0.403,0.417 0.797,0.845 1.215,1.249 0.367,0.375 0.735,0.75 1.114,1.114 0.335,0.341 0.668,0.68 1.012,1.012 0.344,0.351 0.692,0.705 1.046,1.046 0.406,0.414 0.828,0.814 1.249,1.215 0.278,0.281 0.559,0.569 0.844,0.844 0.346,0.354 0.689,0.702 1.046,1.046 0.344,0.352 0.691,0.704 1.046,1.046 0.29,0.297 0.579,0.587 0.877,0.877 0.473,0.489 0.957,0.981 1.451,1.451 0.301,0.305 0.602,0.614 0.911,0.911 0.311,0.318 0.624,0.635 0.945,0.945 0.378,0.388 0.756,0.772 1.147,1.147 0.323,0.33 0.645,0.658 0.979,0.979 0.438,0.449 0.893,0.883 1.35,1.316 0.23,0.232 0.44,0.481 0.675,0.709 0.371,0.383 0.763,0.743 1.147,1.114 0.367,0.377 0.733,0.749 1.114,1.114 0.283,0.289 0.553,0.595 0.844,0.877 0.409,0.423 0.823,0.841 1.249,1.249 0.388,0.397 0.778,0.798 1.181,1.181 0.285,0.289 0.585,0.562 0.877,0.844 0.342,0.351 0.692,0.706 1.046,1.046 0.367,0.377 0.733,0.749 1.114,1.114 0.322,0.33 0.646,0.659 0.979,0.979 0.411,0.423 0.82,0.842 1.249,1.249 0.272,0.277 0.564,0.54 0.844,0.81 0.283,0.292 0.552,0.593 0.844,0.877 0.405,0.423 0.826,0.842 1.249,1.249 0.378,0.39 0.754,0.771 1.147,1.147 0.406,0.416 0.825,0.814 1.249,1.215 0.289,0.293 0.579,0.592 0.877,0.877 0.344,0.353 0.689,0.705 1.046,1.046 0.321,0.329 0.646,0.659 0.979,0.979 0.344,0.355 0.689,0.703 1.046,1.046 0.365,0.376 0.734,0.751 1.114,1.114 0.345,0.354 0.688,0.704 1.046,1.046 0.332,0.341 0.669,0.682 1.012,1.012 0.344,0.355 0.689,0.704 1.046,1.046 0.341,0.352 0.691,0.706 1.046,1.046 0.366,0.378 0.732,0.749 1.114,1.114 0.409,0.42 0.821,0.846 1.249,1.249 0.252,0.256 0.517,0.493 0.776,0.743 0.341,0.354 0.691,0.705 1.046,1.046 0.343,0.356 0.689,0.703 1.046,1.046 0.33,0.342 0.669,0.682 1.012,1.012 0.441,0.459 0.885,0.912 1.35,1.35 0.302,0.308 0.598,0.613 0.911,0.911 0.342,0.352 0.69,0.706 1.046,1.046 0.344,0.354 0.688,0.705 1.046,1.046 0.321,0.33 0.645,0.659 0.979,0.979 0.398,0.413 0.797,0.82 1.215,1.215 0.305,0.313 0.628,0.609 0.945,0.911 0.344,0.356 0.687,0.704 1.046,1.046 0.342,0.353 0.69,0.706 1.046,1.046 0.279,0.289 0.555,0.564 0.844,0.844 0.398,0.419 0.796,0.848 1.215,1.249 0.392,0.407 0.803,0.792 1.215,1.181 0.343,0.353 0.688,0.707 1.046,1.046 0.288,0.296 0.578,0.591 0.877,0.877 0.374,0.39 0.755,0.774 1.148,1.147 0.309,0.319 0.623,0.637 0.945,0.945 0.427,0.445 0.865,0.893 1.316,1.316 0.261,0.267 0.54,0.518 0.81,0.776 0.286,0.299 0.58,0.588 0.877,0.877 0.43,0.455 0.861,0.917 1.316,1.35 0.343,0.356 0.687,0.705 1.046,1.046 0.39,0.404 0.804,0.796 1.215,1.181 0.268,0.274 0.532,0.544 0.81,0.81 0.363,0.379 0.732,0.751 1.114,1.114 0.344,0.358 0.686,0.703 1.046,1.046 0.341,0.355 0.689,0.706 1.046,1.046 0.343,0.357 0.686,0.704 1.046,1.046 0.352,0.367 0.709,0.729 1.08,1.08 0.317,0.331 0.646,0.661 0.979,0.979 0.394,0.414 0.797,0.822 1.215,1.215 0.309,0.319 0.622,0.638 0.945,0.945 0.352,0.368 0.709,0.729 1.08,1.08 0.352,0.366 0.709,0.73 1.08,1.08 0.324,0.337 0.672,0.656 1.012,0.979 0.29,0.303 0.574,0.62 0.877,0.911 0.388,0.412 0.802,0.79 1.215,1.181 0.254,0.266 0.512,0.519 0.776,0.776 0.476,0.512 0.972,1.01 1.485,1.485 0.297,0.307 0.6,0.616 0.911,0.911 0.341,0.357 0.687,0.706 1.046,1.046 0.374,0.392 0.75,0.775 1.147,1.147 0.309,0.321 0.62,0.638 0.945,0.945 0.373,0.391 0.751,0.777 1.147,1.147 0.362,0.377 0.73,0.757 1.114,1.114 0.293,0.303 0.604,0.587 0.911,0.877 0.258,0.271 0.507,0.549 0.776,0.81 0.453,0.49 0.927,0.96 1.418,1.418 0.308,0.321 0.62,0.639 0.945,0.945 0.42,0.442 0.865,0.868 1.316,1.282 0.211,0.217 0.423,0.432 0.641,0.641 0.389,0.418 0.798,0.822 1.215,1.215 0.289,0.305 0.573,0.62 0.877,0.911 0.417,0.448 0.866,0.863 1.316,1.282 0.298,0.312 0.596,0.614 0.911,0.911 0.332,0.354 0.692,0.677 1.046,1.012 0.299,0.32 0.594,0.641 0.911,0.945 0.393,0.426 0.825,0.85 1.249,1.249 0.368,0.39 0.752,0.781 1.147,1.147 0.308,0.324 0.618,0.638 0.945,0.945 0.409,0.435 0.839,0.844 1.282,1.249 0.254,0.263 0.51,0.524 0.776,0.776 0.389,0.417 0.794,0.826 1.215,1.215 0.258,0.271 0.504,0.551 0.776,0.81 0.417,0.453 0.862,0.862 1.316,1.282 0.286,0.302 0.574,0.591 0.877,0.877 0.399,0.43 0.815,0.849 1.249,1.249 0.252,0.266 0.51,0.523 0.776,0.776 0.386,0.422 0.795,0.823 1.215,1.215 0.336,0.36 0.685,0.709 1.046,1.046 0.512,0.548 1.048,1.09 1.62,1.586 0.349,0.348 0.671,0.721 1.046,1.046 0.147,0.147 0.287,0.296 0.439,0.439 0.335,0.364 0.684,0.706 1.046,1.046 0.315,0.342 0.639,0.692 0.979,1.012 0.4,0.439 0.843,0.845 1.282,1.249 0.292,0.311 0.598,0.618 0.911,0.911 0.388,0.423 0.788,0.825 1.215,1.215 0.283,0.302 0.574,0.593 0.877,0.877 0.386,0.422 0.79,0.827 1.215,1.215 0.282,0.301 0.575,0.594 0.877,0.877 0.376,0.413 0.767,0.802 1.181,1.181 0.25,0.27 0.509,0.521 0.776,0.776 0.01,0.012 0.023,0.022 0.034,0.034 0.204,0.194 0.394,0.389 0.607,0.574 0.217,0.221 0.412,0.464 0.641,0.675 0.365,0.397 0.746,0.783 1.147,1.147 0.301,0.323 0.618,0.644 0.945,0.945 0.349,0.382 0.729,0.729 1.114,1.08 0.431,0.468 0.865,0.93 1.35,1.35 0.344,0.356 0.669,0.719 1.046,1.046 0.21,0.218 0.418,0.435 0.641,0.641 0.171,0.191 0.36,0.362 0.54,0.54 99.52,-27.878 172.5,-119.26 172.5,-227.68 0,-1.138 -0.018,-2.274 -0.034,-3.409 h -1.012 v -1.08 h -1.08 v -1.08 h -1.08 v -1.08 h -1.046 v -1.046 h -1.08 v -1.08 h -1.08 v -1.08 h -1.08 v -1.08 h -1.08 v -1.08 h -1.08 v -1.08 h -1.08 v -1.08 h -1.046 v -1.046 h -1.08 v -1.08 h -1.08 v -1.08 h -1.08 v -1.08 h -1.08 v -1.08 h -1.08 v -1.08 h -1.046 v -1.046 h -1.08 v -1.08 h -1.08 v -1.08 h -1.08 v -1.08 h -1.08 v -1.08 h -1.08 v -1.08 h -1.046 v -1.046 h -1.08 v -1.08 h -1.08 v -1.08 h -1.08 v -1.08 h -1.08 v -1.08 h -1.08 v -1.08 H 453.3 v -1.046 h -0.034 -1.046 v -1.08 h -1.08 v -1.08 h -1.08 v -1.08 h -1.08 v -1.08 h -1.08 v -1.08 h -1.08 v -1.08 h -1.046 v -1.046 h -1.08 v -1.08 h -1.08 v -1.08 h -1.08 v -1.08 h -1.08 v -1.08 h -1.08 v -1.08 h -1.046 v -1.046 h -1.08 v -1.08 h -1.08 v -1.08 h -1.08 v -1.08 h -1.08 v -1.08 h -1.08 v -1.08 h -1.046 v -1.046 h -1.08 v -1.08 h -1.08 v -1.08 h -1.08 v -1.08 h -1.08 v -1.08 h -1.08 v -1.08 h -1.08 v -1.08 h -1.046 v -1.046 h -1.08 v -1.08 h -1.08 v -1.08 h -1.08 v -1.08 h -1.08 v -1.08 h -1.08 v -1.08 h -1.046 v -1.046 h -1.08 v -1.08 h -1.08 v -1.08 h -1.08 v -1.08 h -1.08 v -1.08 h -1.08 v -1.08 h -1.046 v -1.046 h -1.08 v -1.08 h -1.08 v -1.08 h -1.08 v -1.08 h -1.08 v -1.08 h -1.08 v -1.08 h -1.046 v -1.046 h -1.08 v -1.08 h -1.08 v -1.08 h -1.08 v -1.08 h -1.08 v -1.08 h -1.08 v -1.08 h -1.08 v -1.08 h -1.046 v -1.046 h -1.08 v -1.08 h -1.08 v -1.08 h -1.08 v -1.08 h -1.08 v -1.08 h -1.08 v -1.08 h -1.046 v -1.046 h -1.08 v -1.08 h -1.08 v -1.08 h -1.08 v -1.08 h -1.08 v -1.08 h -1.08 v -1.08 H 385.6 v -1.046 h -1.08 v -1.08 h -1.08 v -1.08 h -1.08 v -1.08 h -1.08 v -1.08 h -1.08 v -1.08 h -1.08 v -1.08 h -1.046 v -1.046 h -1.08 v -1.08 h -1.08 v -1.08 h -1.08 v -1.08 h -1.08 v -1.08 h -1.08 v -1.08 h -1.046 v -1.046 h -1.08 v -1.08 h -1.08 v -1.08 h -1.08 v -1.08 h -1.08 v -1.08 h -1.08 v -1.08 h -1.046 v -1.046 h -1.08 v -1.08 h -1.08 v -1.08 h -1.08 v -1.08 h -1.08 v -1.08 h -1.08 v -1.08 h -1.046 v -1.046 h -1.08 v -1.08 h -1.08 v -1.08 h -1.08 v -1.08 h -20.857"
     inkscape:connector-curvature="0"
     id="path6"
     style="fill-opacity:0.23500001" />
  <g
     id="g8"
     style="fill-rule:evenodd">
    <path
       d="M 256,1 C 115.17,1 1,115.17 1,256 1,396.83 115.17,511 256,511 396.83,511 511,396.83 511,256 511,115.17 396.83,1 256,1 m 8.827,44.931 c 120.9,0 218.9,98 218.9,218.9 0,120.9 -98,218.9 -218.9,218.9 -120.9,0 -218.93,-98 -218.93,-218.9 0,-120.9 98.03,-218.9 218.93,-218.9"
       inkscape:connector-curvature="0"
       id="path10"
       style="fill-opacity:0.06700003" />
    <g
       id="g12"
       style="fill-opacity:0.12900002">
      <path
         d="m 256,4.433 c -138.94,0 -251.57,112.63 -251.57,251.57 0,138.94 112.63,251.57 251.57,251.57 138.94,0 251.57,-112.63 251.57,-251.57 C 507.57,117.063 394.94,4.433 256,4.433 m 5.885,38.556 c 120.9,0 218.9,98 218.9,218.9 0,120.9 -98,218.9 -218.9,218.9 -120.9,0 -218.93,-98 -218.93,-218.9 0,-120.9 98.03,-218.9 218.93,-218.9"
         inkscape:connector-curvature="0"
         id="path14" />
      <path
         d="m 256,8.356 c -136.77,0 -247.64,110.87 -247.64,247.64 0,136.77 110.87,247.64 247.64,247.64 136.77,0 247.64,-110.87 247.64,-247.64 C 503.64,119.226 392.77,8.356 256,8.356 m 2.942,31.691 c 120.9,0 218.9,98 218.9,218.9 0,120.9 -98,218.9 -218.9,218.9 -120.9,0 -218.93,-98 -218.93,-218.9 0,-120.9 98.03,-218.9 218.93,-218.9"
         inkscape:connector-curvature="0"
         id="path16" />
    </g>
    <path
       d="m 253.04,7.859 c -135.42,0 -245.19,109.78 -245.19,245.19 0,135.42 109.78,245.19 245.19,245.19 135.42,0 245.19,-109.78 245.19,-245.19 0,-135.42 -109.78,-245.19 -245.19,-245.19 z m 0,26.297 c 120.9,0 218.9,98 218.9,218.9 0,120.9 -98,218.9 -218.9,218.9 -120.9,0 -218.93,-98 -218.93,-218.9 0,-120.9 98.03,-218.9 218.93,-218.9 z"
       inkscape:connector-curvature="0"
       id="path18"
       style="fill:#ffffff;stroke:#000000;stroke-width:4.90399981;stroke-opacity:0.31000001" />
  </g>
  <text
     x="729.64001"
     y="231.36"
     id="text20"
     style="font-size:129.22999573px;line-height:125%;letter-spacing:0;word-spacing:0;font-family:Gentium Book Basic">
    <tspan
       x="729.64001"
       y="231.36"
       id="tspan22" />
  </text>
  <text
     x="378.91"
     y="579.25"
     transform="scale(4.0128,0.2492)"
     id="text24"
     style="font-size:46.95399857px;text-anchor:middle;font-family:Arial" />
  <text
     x="1310.91"
     y="151.36"
     id="text26"
     style="font-size:129.22999573px;line-height:125%;letter-spacing:0;word-spacing:0;font-family:Gentium Book Basic">
    <tspan
       x="1310.91"
       y="151.36"
       id="tspan28" />
  </text>
  <text
     x="523.76001"
     y="258.22"
     transform="scale(4.0128,0.2492)"
     id="text30"
     style="font-size:46.95399857px;text-anchor:middle;font-family:Arial" />
  <text
     x="239.33"
     y="-29.900999"
     id="text32"
     style="font-size:129.22999573px;line-height:125%;letter-spacing:0;word-spacing:0;font-family:Gentium Book Basic">
    <tspan
       x="239.33"
       y="-29.900999"
       id="tspan34" />
  </text>
  <text
     x="256.72"
     y="-469.14001"
     transform="scale(4.0128,0.2492)"
     id="text36"
     style="font-size:46.95399857px;text-anchor:middle;font-family:Arial" />
  <text
     x="1337.38"
     y="-246.37"
     id="text38"
     style="font-size:129.22999573px;line-height:125%;letter-spacing:0;word-spacing:0;font-family:Gentium Book Basic">
    <tspan
       x="1337.38"
       y="-246.37"
       id="tspan40" />
  </text>
  <text
     x="530.35999"
     y="-1337.8101"
     transform="scale(4.0128,0.2492)"
     id="text42"
     style="font-size:46.95399857px;text-anchor:middle;font-family:Arial" />
  <text
     x="1918.65"
     y="-326.38"
     id="text44"
     style="font-size:129.22999573px;line-height:125%;letter-spacing:0;word-spacing:0;font-family:Gentium Book Basic">
    <tspan
       x="1918.65"
       y="-326.38"
       id="tspan46" />
  </text>
  <text
     x="675.21002"
     y="-1658.85"
     transform="scale(4.0128,0.2492)"
     id="text48"
     style="font-size:46.95399857px;text-anchor:middle;font-family:Arial" />
  <text
     x="1529.53"
     y="-798.78003"
     id="text50"
     style="font-size:129.22999573px;line-height:125%;letter-spacing:0;word-spacing:0;font-family:Gentium Book Basic">
    <tspan
       x="1529.53"
       y="-798.78003"
       id="tspan52" />
  </text>
  <text
     x="578.23999"
     y="-3554.51"
     transform="scale(4.0128,0.2492)"
     id="text54"
     style="font-size:46.95399857px;text-anchor:middle;font-family:Arial" />
  <text
     x="2110.79"
     y="-878.78003"
     id="text56"
     style="font-size:129.22999573px;line-height:125%;letter-spacing:0;word-spacing:0;font-family:Gentium Book Basic">
    <tspan
       x="2110.79"
       y="-878.78003"
       id="tspan58" />
  </text>
  <text
     x="723.09003"
     y="-3875.54"
     transform="scale(4.0128,0.2492)"
     id="text60"
     style="font-size:46.95399857px;text-anchor:middle;font-family:Arial" />
  <text
     x="277.98999"
     y="535.94"
     id="text62"
     style="font-size:208.33000183px;line-height:125%;letter-spacing:0;word-spacing:0;font-family:Gentium Book Basic">
    <tspan
       x="277.98999"
       y="535.94"
       id="tspan64" />
  </text>
  <g
     transform="matrix(10.42705,0,0,10.42705,293.87,-1562.41)"
     id="g66"
     style="fill:#ffffff">
    <path
       d="m -0.869,182.54 c -0.672,0.168 -1.563,0.346 -2.676,0.535 -1.091,0.189 -2.361,0.283 -3.809,0.283 -1.259,0 -2.319,-0.178 -3.179,-0.535 -0.86,-0.378 -1.553,-0.902 -2.077,-1.574 -0.525,-0.672 -0.902,-1.458 -1.133,-2.361 -0.231,-0.923 -0.346,-1.941 -0.346,-3.053 v -9.191 h 3 v 8.562 c 0,1.994 0.242,3.421 0.872,4.281 0.63,0.86 1.689,1.291 3.179,1.291 0.315,0 0.64,-0.011 0.976,-0.031 0.336,-0.021 0.651,-0.042 0.944,-0.063 0.294,-0.042 0.556,-0.073 0.787,-0.094 0.252,-0.042 0.137,-0.084 0.242,-0.126 v -13.818 h 3 v 15.896"
       inkscape:connector-curvature="0"
       id="path68" />
    <path
       d="m 3.911,161.08 h 2 v 26 h -2 z"
       inkscape:connector-curvature="0"
       id="path70"
       style="color:#000000" />
  </g>
</svg>
