<?xml version="1.0" encoding="UTF-8" standalone="no"?>
<!-- Created with Inkscape (http://www.inkscape.org/) -->

<svg
   xmlns:dc="http://purl.org/dc/elements/1.1/"
   xmlns:cc="http://creativecommons.org/ns#"
   xmlns:rdf="http://www.w3.org/1999/02/22-rdf-syntax-ns#"
   xmlns:svg="http://www.w3.org/2000/svg"
   xmlns="http://www.w3.org/2000/svg"
   xmlns:inkscape="http://www.inkscape.org/namespaces/inkscape"
   version="1.1"
   width="100%"
   height="100%"
   viewBox="0 0 512 512"
   id="svg2">
  <metadata
     id="metadata70">
    <rdf:RDF>
      <cc:Work
         rdf:about="">
        <dc:format>image/svg+xml</dc:format>
        <dc:type
           rdf:resource="http://purl.org/dc/dcmitype/StillImage" />
        <dc:title />
      </cc:Work>
    </rdf:RDF>
  </metadata>
  <defs
     id="defs68">
    <filter
       color-interpolation-filters="sRGB"
       id="filter3174">
      <feGaussianBlur
         stdDeviation="1.71"
         id="feGaussianBlur3176" />
    </filter>
    <linearGradient
       x1="45.447727"
       y1="92.539597"
       x2="45.447727"
       y2="7.0165396"
       id="ButtonShadow"
       gradientUnits="userSpaceOnUse"
       gradientTransform="scale(1.0058652,0.994169)">
      <stop
         id="stop3750"
         style="stop-color:#000000;stop-opacity:1"
         offset="0" />
      <stop
         id="stop3752"
         style="stop-color:#000000;stop-opacity:0.58823532"
         offset="1" />
    </linearGradient>
  </defs>
  <path
     d="m 471.9456,253.05189 c 0,120.89699 -98.00565,218.90724 -218.90724,218.90724 -120.89698,0 -218.90723,-98.00566 -218.90723,-218.90724 0,-120.89698 98.00565,-218.907232 218.90723,-218.907232 120.89699,0 218.90724,98.005652 218.90724,218.907232"
     inkscape:connector-curvature="0"
     id="path8"
     style="fill:#68af4c;fill-rule:evenodd" />
  <path
     d="M 256,1 C 115.17,1 1,115.17 1,256 1,396.83 115.17,511 256,511 396.83,511 511,396.83 511,256 511,115.17 396.83,1 256,1 m 8.827,44.931 c 120.9,0 218.9,98 218.9,218.9 0,120.9 -98,218.9 -218.9,218.9 -120.9,0 -218.93,-98 -218.93,-218.9 0,-120.9 98.03,-218.9 218.93,-218.9"
     inkscape:connector-curvature="0"
     id="path10"
     style="fill-opacity:0.06700003;fill-rule:evenodd" />
  <path
     d="M 256,4.43 C 117.06,4.43 4.43,117.06 4.43,256 4.43,394.94 117.06,507.57 256,507.57 394.94,507.57 507.57,394.94 507.57,256 507.57,117.06 394.94,4.43 256,4.43 m 5.885,38.556 c 120.9,0 218.9,98 218.9,218.9 0,120.9 -98,218.9 -218.9,218.9 -120.9,0 -218.93,-98 -218.93,-218.9 0,-120.9 98.03,-218.9 218.93,-218.9"
     inkscape:connector-curvature="0"
     id="path14"
     style="fill-opacity:0.12900002;fill-rule:evenodd" />
  <path
     d="M 256,8.36 C 119.23,8.36 8.36,119.23 8.36,256 8.36,392.77 119.23,503.64 256,503.64 392.77,503.64 503.64,392.77 503.64,256 503.64,119.23 392.77,8.36 256,8.36 m 2.942,31.691 c 120.9,0 218.9,98 218.9,218.9 0,120.9 -98,218.9 -218.9,218.9 -120.9,0 -218.93,-98 -218.93,-218.9 0,-120.9 98.03,-218.9 218.93,-218.9"
     inkscape:connector-curvature="0"
     id="path16"
     style="fill-opacity:0.12900002;fill-rule:evenodd" />
  <path
     d="M 253.04,7.86 C 117.62,7.86 7.85,117.64 7.85,253.05 c 0,135.42 109.78,245.19 245.19,245.19 135.42,0 245.19,-109.78 245.19,-245.19 C 498.23,117.63 388.45,7.86 253.04,7.86 z m 0,26.297 c 120.9,0 218.9,98 218.9,218.9 0,120.9 -98,218.9 -218.9,218.9 -120.9,0 -218.93,-98 -218.93,-218.9 0,-120.9 98.03,-218.9 218.93,-218.9 z"
     inkscape:connector-curvature="0"
     id="path18"
     style="fill:#ffffff;fill-rule:evenodd;stroke:#000000;stroke-width:4.90399981;stroke-opacity:0.31000001" />
  <text
     x="729.64001"
     y="231.35997"
     id="text20"
     style="font-size:129.22999573px;line-height:125%;letter-spacing:0;word-spacing:0;font-family:Gentium Book Basic">
    <tspan
       x="729.64001"
       y="231.35997"
       id="tspan22" />
  </text>
  <text
     x="378.90805"
     y="579.25812"
     transform="scale(4.0128205,0.24920128)"
     id="text24"
     style="font-size:46.95375824px;text-anchor:middle;font-family:Arial" />
  <text
     x="1310.91"
     y="151.35997"
     id="text26"
     style="font-size:129.22999573px;line-height:125%;letter-spacing:0;word-spacing:0;font-family:Gentium Book Basic">
    <tspan
       x="1310.91"
       y="151.35997"
       id="tspan28" />
  </text>
  <text
     x="523.75732"
     y="258.21997"
     transform="scale(4.0128205,0.24920128)"
     id="text30"
     style="font-size:46.95375824px;text-anchor:middle;font-family:Arial" />
  <text
     x="239.33"
     y="-29.900009"
     id="text32"
     style="font-size:129.22999573px;line-height:125%;letter-spacing:0;word-spacing:0;font-family:Gentium Book Basic">
    <tspan
       x="239.33"
       y="-29.900009"
       id="tspan34" />
  </text>
  <text
     x="256.71869"
     y="-469.1264"
     transform="scale(4.0128205,0.24920128)"
     id="text36"
     style="font-size:46.95375824px;text-anchor:middle;font-family:Arial" />
  <text
     x="1337.38"
     y="-246.37001"
     id="text38"
     style="font-size:129.22999573px;line-height:125%;letter-spacing:0;word-spacing:0;font-family:Gentium Book Basic">
    <tspan
       x="1337.38"
       y="-246.37001"
       id="tspan40" />
  </text>
  <text
     x="530.3573"
     y="-1337.802"
     transform="scale(4.0128205,0.24920128)"
     id="text42"
     style="font-size:46.95375824px;text-anchor:middle;font-family:Arial" />
  <text
     x="1918.65"
     y="-326.37"
     id="text44"
     style="font-size:129.22999573px;line-height:125%;letter-spacing:0;word-spacing:0;font-family:Gentium Book Basic">
    <tspan
       x="1918.65"
       y="-326.37"
       id="tspan46" />
  </text>
  <text
     x="675.20654"
     y="-1658.8303"
     transform="scale(4.0128205,0.24920128)"
     id="text48"
     style="font-size:46.95375824px;text-anchor:middle;font-family:Arial" />
  <text
     x="1529.53"
     y="-798.77002"
     id="text50"
     style="font-size:129.22999573px;line-height:125%;letter-spacing:0;word-spacing:0;font-family:Gentium Book Basic">
    <tspan
       x="1529.53"
       y="-798.77002"
       id="tspan52" />
  </text>
  <text
     x="578.237"
     y="-3554.4807"
     transform="scale(4.0128205,0.24920128)"
     id="text54"
     style="font-size:46.95375824px;text-anchor:middle;font-family:Arial" />
  <text
     x="2110.79"
     y="-878.78003"
     id="text56"
     style="font-size:129.22999573px;line-height:125%;letter-spacing:0;word-spacing:0;font-family:Gentium Book Basic">
    <tspan
       x="2110.79"
       y="-878.78003"
       id="tspan58" />
  </text>
  <text
     x="723.0863"
     y="-3875.519"
     transform="scale(4.0128205,0.24920128)"
     id="text60"
     style="font-size:46.95375824px;text-anchor:middle;font-family:Arial" />
  <text
     x="277.98999"
     y="535.94006"
     id="text62"
     style="font-size:208.33000183px;line-height:125%;letter-spacing:0;word-spacing:0;font-family:Gentium Book Basic">
    <tspan
       x="277.98999"
       y="535.94006"
       id="tspan64" />
  </text>
  <g
     transform="matrix(4.2877401,0,0,4.2877401,-661.40474,-3.9719461)"
     id="layer2"
     style="display:none">
    <rect
       width="86"
       height="85"
       rx="6"
       ry="6"
       x="5"
       y="7"
       id="rect3745"
       style="opacity:0.9;fill:url(#ButtonShadow);fill-opacity:1;fill-rule:nonzero;stroke:none;filter:url(#filter3174)" />
  </g>
  <path
     d="M 223.09375,98.71875 C 206.847,103.55774 172.41394,111.07022 171.1875,124.9375 L 168,121.75 c 3.24357,14.71534 -12.69639,26.49767 -9.65625,36.59375 l -3.28125,-3.28125 c -7.63065,11.909 -31.19486,9.82122 -30.15625,16.15625 l -3.1875,-3.1875 C 112.73128,185.06463 96.262451,207.77748 101.8125,226 c -0.52973,-0.52088 -1.05904,-1.00999 -1.65625,-1.5 0.57342,0.5723 1.14534,1.14644 1.71875,1.71875 0.005,0.005 -0.005,0.026 0,0.0312 0.003,0.01 -0.003,0.0216 0,0.0312 0.67731,0.67696 1.35396,1.35428 2.03125,2.03125 7.27401,9.16969 7.08022,21.72208 12.75,31.15625 l -3.4375,-3.4375 C 115.96376,270.92773 99.111819,282.1928 102,292.1875 l -3.28125,-3.25 c 4.20343,19.65533 11.66031,39.05644 23.78125,55.03125 -0.2597,0.008 -0.5193,-0.0129 -0.78125,0 l 3.875,3.875 c 3.63081,4.33011 7.64332,8.39211 12.0625,12.0625 L 168,390.28125 c 0.0408,0.032 0.0842,0.0619 0.125,0.0937 l 3.3125,3.3125 c 1.8659,3.19471 4.44263,6.05301 8.25,8.28125 l 69.96875,69.9375 c 1.12314,0.017 2.24782,0.0625 3.375,0.0625 120.90159,0 218.90625,-98.00926 218.90625,-218.90625 0,-1.1376 -0.014,-2.27276 -0.0312,-3.40625 l -78.46875,-78.4375 c -0.0215,-0.0103 -0.0202,-0.039 -0.0312,-0.0312 l -3.125,-3.15625 -27.34375,-27.34375 -7.71875,-7.71875 c -2.78899,-3.03849 -5.57621,-6.06415 -7.84375,-7.84375 l -3.53125,-3.53125 c -12.67893,-8.97561 -48.63665,-25.496033 -51.75,-19.6875 l -3.1875,-3.1875 c -7.09893,12.34683 -30.69233,11.12681 -29.71875,17.6875 L 256,113.21875 c -11.41678,1.87663 -27.14999,-9.76625 -28.5625,-10.15625 l -4.34375,-4.34375 z"
     inkscape:connector-curvature="0"
     id="path3331"
     style="opacity:0.25;color:#000000;fill:#000000;fill-opacity:1;fill-rule:nonzero;stroke:none;stroke-width:1;marker:none;visibility:visible" />
  <path
     d="m 223.09104,98.723131 c -19.98423,4.164219 -38.58168,12.186259 -55.08674,23.023269 0.48103,12.02651 -3.77317,24.1624 -12.94246,33.33169 -9.16931,9.1693 -21.30519,13.42351 -33.33171,12.94246 -10.83701,16.50508 -18.85904,35.10251 -23.023263,55.08674 8.915423,8.15788 14.503353,19.87204 14.503353,32.90896 0,13.03693 -5.58793,24.7511 -14.503353,32.90897 4.164223,19.98422 12.186253,38.54915 23.023263,55.05422 12.02652,-0.48103 24.1624,3.80568 33.33171,12.97498 9.16929,9.16929 13.42349,21.30518 12.94246,33.3317 16.50506,10.83701 35.10251,18.82653 55.08674,22.99075 8.15787,-8.91543 19.87204,-14.47084 32.90896,-14.47084 13.03693,0 24.75109,5.55541 32.90896,14.47084 19.91957,-4.15076 38.45884,-12.07782 54.92415,-22.86067 -0.0281,-0.64405 0,-1.30717 0,-1.95113 0,-11.41879 4.39281,-22.79841 13.10505,-31.51065 9.16931,-9.1693 21.30519,-13.45601 33.33171,-12.97498 10.83701,-16.50507 18.85904,-35.07 23.02326,-55.05422 -8.91542,-8.15787 -14.50335,-19.87204 -14.50335,-32.90897 0,-13.03692 5.58793,-24.75108 14.50335,-32.90896 -4.16422,-19.98423 -12.18625,-38.58166 -23.02326,-55.08674 -12.02652,0.48104 -24.1624,-3.77316 -33.33171,-12.94246 -8.71224,-8.71224 -13.10505,-20.09186 -13.10505,-31.51065 0,-0.64394 -0.0281,-1.33958 0,-1.98364 C 327.3678,110.80095 308.82853,102.87388 288.90896,98.723131 280.75109,107.63855 269.03693,113.22649 256,113.22649 c -13.03692,0 -24.75109,-5.58794 -32.90896,-14.503359 z m 77.29704,55.249329 c 0.36144,-0.0184 0.73961,0 1.10563,0 11.71265,0 21.1697,9.51168 21.1697,21.26725 0,11.75558 -9.45705,21.29977 -21.1697,21.29977 -11.71264,0 -21.20221,-9.54419 -21.20221,-21.29977 0,-11.38821 8.89174,-20.69681 20.09658,-21.26725 z m -43.67267,16.64959 c 4.76027,0 9.72244,0.60698 14.82855,1.49586 0.80185,0.13964 1.3983,0.91124 1.3983,1.72349 0,0.0273 0.002,0.57702 0,0.58534 0.002,16.30288 13.26167,29.62457 29.59205,29.62457 5.59773,0 11.12198,-1.68144 15.99922,-4.84529 0.68998,-0.44782 1.60037,-0.38539 2.14624,0.22763 12.09564,13.51195 19.75216,30.92291 21.49488,48.90818 0.044,0.47339 -0.13824,0.91745 -0.45526,1.26823 -0.31701,0.35082 -0.79695,0.5203 -1.26823,0.5203 l -32.29111,0 c -0.8188,0 -1.49712,-0.58435 -1.62593,-1.3983 -3.84822,-24.23976 -25.27483,-42.50199 -49.81871,-42.50199 -6.67252,0 -13.27733,1.29743 -19.64132,3.9998 -0.75439,0.31844 -1.64555,0.0443 -2.08119,-0.65037 l -17.20242,-27.34826 c -0.25086,-0.40187 -0.25889,-0.87691 -0.13007,-1.33327 0.12714,-0.45636 0.38918,-0.82946 0.81297,-1.0406 11.91763,-5.91563 25.16993,-9.23324 38.24203,-9.23532 z m -51.5422,17.85279 c 0.10986,0.002 0.2095,0.012 0.32519,0.0325 0.46281,0.0817 0.85475,0.34946 1.10564,0.74793 l 17.20241,27.31574 c 0.43909,0.69988 0.26106,1.60304 -0.35771,2.14624 -10.97847,9.60566 -17.26745,23.436 -17.26745,37.91685 0,14.37357 6.23998,28.11949 17.10486,37.72173 0.61881,0.54662 0.73511,1.48231 0.29267,2.17876 l -17.33249,27.21818 c -0.2526,0.39677 -0.64283,0.76547 -1.10564,0.84549 -0.46449,0.0818 -0.89696,-0.0991 -1.26823,-0.39023 -13.84344,-10.81975 -24.28713,-26.00954 -29.36442,-42.72962 -0.20004,-0.66068 -0.0171,-1.36107 0.5203,-1.78853 7.04548,-5.60399 11.28401,-14.20788 11.28401,-23.05578 0,-8.8479 -4.24023,-17.48429 -11.28401,-23.08831 -0.54065,-0.42911 -0.72032,-1.12952 -0.5203,-1.78853 5.11797,-16.8614 15.64074,-32.11363 29.65709,-42.95725 0.18393,-0.14383 0.45914,-0.23752 0.6829,-0.29267 0.11189,-0.0276 0.21533,-0.0342 0.32518,-0.0325 z M 256,220.31069 c 19.71357,0 35.70557,15.99201 35.70557,35.70556 0,19.71357 -15.992,35.70559 -35.70557,35.70559 -19.71356,0 -35.70557,-15.99201 -35.70557,-35.70558 0,-19.71356 15.99201,-35.70557 35.70557,-35.70557 z m -98.95452,14.9261 c 11.98696,0 21.69,9.78801 21.69,21.82006 0,12.03207 -9.70304,21.75504 -21.69,21.75504 -11.98698,0 -21.72251,-9.72297 -21.72251,-21.75504 0,-12.03205 9.73553,-21.82006 21.72251,-21.82006 z m 183.40568,28.16122 c 0.47128,-0.002 0.94948,0.16783 1.26823,0.5203 0.31866,0.3525 0.50272,0.79655 0.45526,1.26823 -1.91902,19.21982 -10.49473,37.48096 -24.03134,51.3471 -0.51706,0.52957 -1.26593,0.66746 -1.91861,0.32518 -4.29238,-2.24772 -9.04878,-3.44698 -13.69039,-3.44698 -14.97248,0 -27.577,11.26778 -29.29938,26.2101 -0.0865,0.73391 -0.6077,1.30312 -1.33327,1.43082 -5.16882,0.92124 -10.28188,1.39831 -15.18625,1.39831 -13.22297,0 -26.58887,-3.19539 -38.59974,-9.23532 -0.42213,-0.21116 -0.68759,-0.58424 -0.81297,-1.0406 -0.12537,-0.45805 -0.12251,-0.93309 0.13008,-1.33327 l 17.33248,-27.31574 c 0.44247,-0.68963 1.32851,-0.93969 2.0812,-0.61786 6.43519,2.7688 13.11844,4.19492 19.86895,4.19492 24.47607,0 45.82037,-18.15005 49.72115,-42.20932 0.13053,-0.80714 0.90808,-1.42874 1.72349,-1.43082 l 32.29111,-0.065 z m -38.14448,57.52564 c 11.98698,0 21.69,9.72002 21.69,21.69 0,11.97 -9.70302,21.65748 -21.69,21.65748 -11.98697,0 -21.72251,-9.68748 -21.72251,-21.65748 0,-11.96998 9.73554,-21.69 21.72251,-21.69 z"
     inkscape:connector-curvature="0"
     id="path3683"
     style="color:#000000;fill:#ffffff;fill-opacity:1;fill-rule:nonzero;stroke:none;stroke-width:1;marker:none;visibility:visible;display:inline;overflow:visible;enable-background:accumulate" />
</svg>
