<?xml version="1.0" encoding="UTF-8" standalone="no"?>
<!-- Created with Inkscape (http://www.inkscape.org/) -->

<svg
   xmlns:dc="http://purl.org/dc/elements/1.1/"
   xmlns:cc="http://creativecommons.org/ns#"
   xmlns:rdf="http://www.w3.org/1999/02/22-rdf-syntax-ns#"
   xmlns:svg="http://www.w3.org/2000/svg"
   xmlns="http://www.w3.org/2000/svg"
   xmlns:inkscape="http://www.inkscape.org/namespaces/inkscape"
   version="1.1"
   width="100%"
   height="100%"
   viewBox="0 0 512 512"
   id="svg2">
  <metadata
     id="metadata84">
    <rdf:RDF>
      <cc:Work
         rdf:about="">
        <dc:format>image/svg+xml</dc:format>
        <dc:type
           rdf:resource="http://purl.org/dc/dcmitype/StillImage" />
      </cc:Work>
    </rdf:RDF>
  </metadata>
  <defs
     id="defs82" />
  <text
     x="-1160.48"
     y="549.52002"
     id="text4"
     style="font-size:208.33000183px;line-height:125%;letter-spacing:0;word-spacing:0;font-family:Gentium Book Basic">
    <tspan
       x="-1160.48"
       y="549.52002"
       id="tspan6" />
  </text>
  <text
     x="28.534"
     y="1642.24"
     transform="scale(4.0128,0.2492)"
     id="text8"
     style="font-size:75.69999695px;text-anchor:middle;font-family:Arial" />
  <g
     id="g10"
     style="fill-rule:evenodd">
    <path
       d="m 471.95,253.05 c 0,120.9 -98.01,218.9 -218.9,218.9 -120.9,0 -218.9,-98.01 -218.9,-218.9 0,-120.9 98.01,-218.9 218.9,-218.9 120.9,0 218.9,98.01 218.9,218.9"
       inkscape:connector-curvature="0"
       id="path12"
       style="fill:#707175" />
    <path
       d="M 256,1 C 115.17,1 1,115.17 1,256 1,396.83 115.17,511 256,511 396.83,511 511,396.83 511,256 511,115.17 396.83,1 256,1 m 8.827,44.931 c 120.9,0 218.9,98 218.9,218.9 0,120.9 -98,218.9 -218.9,218.9 -120.9,0 -218.93,-98 -218.93,-218.9 0,-120.9 98.03,-218.9 218.93,-218.9"
       inkscape:connector-curvature="0"
       id="path14"
       style="fill-opacity:0.06700003" />
  </g>
  <g
     id="g16"
     style="color:#000000">
    <path
       d="m 268.59,90.34 c -7.952,0.58 -14.331,7.975 -13.594,15.906 -6.894,47.682 -13.175,95.47 -20.06,143.16 l -34.531,-34.531 c -6.152,-6.152 -18.825,-4.065 -21.375,4.938 -8.396,15.838 -16.793,31.661 -25.19,47.5 H 34.62 c 0.569,8.841 1.663,17.538 3.25,26.06 l 174.84,174.84 c 13.08,2.437 26.56,3.719 40.34,3.719 117.53,0 213.42,-92.63 218.66,-208.87 -8.352,0.049 -16.704,0.069 -25.06,0.063 L 277.46,93.935 c -2.333,-2.333 -5.583,-3.746 -8.875,-3.594"
       inkscape:connector-curvature="0"
       id="path18"
       style="opacity:0.25" />
    <path
       d="m 268.59,90.34 c -7.952,0.58 -14.315,7.965 -13.578,15.896 -9.306,64.37 -17.529,128.93 -27.578,193.17 -1.074,4.303 -6.079,1.681 -6.06,-1.75 -7,-26.668 -11.483,-54.26 -19.281,-80.62 -5.105,-8.679 -20.249,-7.164 -23.06,2.767 -8.396,15.838 -16.793,31.675 -25.19,47.51 -40.23,0 -80.46,0 -120.69,0 1.103,8.567 2.397,17.12 4.219,25.563 42.674,-0.368 85.45,0.749 128.06,-0.563 9.322,-3.757 10.966,-15.03 15.844,-22.75 0.274,-3.88 5.898,-6.07 6.906,-1.406 9.823,41.655 18.51,83.965 29.16,125.44 4.956,9.798 22.813,7.459 23.5,-4.188 3.659,-21.314 5.903,-42.795 9.26,-64.23 5.274,-35.831 9.407,-71.915 15.647,-107.55 1.094,-4.214 6.337,-2.037 6.219,1.625 4.843,26.732 7.882,54.06 12.06,81.04 3.384,21.02 5.529,42.38 9.937,63.15 4.962,9.641 22.04,7.951 23.722,-3.438 9.215,-23.684 17.818,-47.6 26.872,-71.34 41.552,0 83.1,0 124.66,0 1.622,-8.498 2.715,-17.01 3.563,-25.594 -46.93,0.293 -94,-0.592 -140.84,0.469 -9.662,3.219 -10.157,15.181 -13.969,23.09 -2.126,4.934 -2.66,11.297 -7.969,14.06 -10.04,-67.42 -19.13,-135.03 -29.719,-202.34 -1.671,-4.766 -6.644,-8.233 -11.688,-8"
       inkscape:connector-curvature="0"
       id="path20"
       style="fill:#ffffff" />
  </g>
  <g
     transform="translate(0,-540.36)"
     id="g22"
     style="fill-rule:evenodd">
    <g
       id="g24"
       style="fill-opacity:0.12900002">
      <path
         d="M 256,544.79 C 117.06,544.79 4.43,657.42 4.43,796.36 4.43,935.3 117.06,1047.93 256,1047.93 394.94,1047.93 507.57,935.3 507.57,796.36 507.57,657.42 394.94,544.79 256,544.79 m 5.885,38.556 c 120.9,0 218.9,98 218.9,218.9 0,120.9 -98,218.9 -218.9,218.9 -120.9,0 -218.93,-98 -218.93,-218.9 0,-120.9 98.03,-218.9 218.93,-218.9"
         inkscape:connector-curvature="0"
         id="path26" />
      <path
         d="M 256,548.72 C 119.23,548.72 8.36,659.59 8.36,796.36 8.36,933.13 119.23,1044 256,1044 392.77,1044 503.64,933.13 503.64,796.36 503.64,659.59 392.77,548.72 256,548.72 m 2.942,31.691 c 120.9,0 218.9,98 218.9,218.9 0,120.9 -98,218.9 -218.9,218.9 -120.9,0 -218.93,-98 -218.93,-218.9 0,-120.9 98.03,-218.9 218.93,-218.9"
         inkscape:connector-curvature="0"
         id="path28" />
    </g>
    <path
       d="M 253.04,548.22 C 117.62,548.22 7.85,658 7.85,793.41 c 0,135.42 109.78,245.19 245.19,245.19 135.42,0 245.19,-109.78 245.19,-245.19 0,-135.42 -109.78,-245.19 -245.19,-245.19 z m 0,26.297 c 120.9,0 218.9,98 218.9,218.9 0,120.9 -98,218.9 -218.9,218.9 -120.9,0 -218.93,-98 -218.93,-218.9 0,-120.9 98.03,-218.9 218.93,-218.9 z"
       inkscape:connector-curvature="0"
       id="path30"
       style="fill:#ffffff;stroke:#000000;stroke-width:4.90399981;stroke-opacity:0.31000001" />
  </g>
  <text
     x="729.64001"
     y="231.36"
     id="text32"
     style="font-size:129.22999573px;line-height:125%;letter-spacing:0;word-spacing:0;font-family:Gentium Book Basic">
    <tspan
       x="729.64001"
       y="231.36"
       id="tspan34" />
  </text>
  <text
     x="378.91"
     y="579.26001"
     transform="scale(4.0128,0.2492)"
     id="text36"
     style="font-size:46.95399857px;text-anchor:middle;font-family:Arial" />
  <text
     x="1310.91"
     y="151.36"
     id="text38"
     style="font-size:129.22999573px;line-height:125%;letter-spacing:0;word-spacing:0;font-family:Gentium Book Basic">
    <tspan
       x="1310.91"
       y="151.36"
       id="tspan40" />
  </text>
  <text
     x="523.76001"
     y="258.22"
     transform="scale(4.0128,0.2492)"
     id="text42"
     style="font-size:46.95399857px;text-anchor:middle;font-family:Arial" />
  <text
     x="239.33"
     y="-29.9"
     id="text44"
     style="font-size:129.22999573px;line-height:125%;letter-spacing:0;word-spacing:0;font-family:Gentium Book Basic">
    <tspan
       x="239.33"
       y="-29.9"
       id="tspan46" />
  </text>
  <text
     x="256.72"
     y="-469.13"
     transform="scale(4.0128,0.2492)"
     id="text48"
     style="font-size:46.95399857px;text-anchor:middle;font-family:Arial" />
  <text
     x="1337.38"
     y="-246.37"
     id="text50"
     style="font-size:129.22999573px;line-height:125%;letter-spacing:0;word-spacing:0;font-family:Gentium Book Basic">
    <tspan
       x="1337.38"
       y="-246.37"
       id="tspan52" />
  </text>
  <text
     x="530.35999"
     y="-1337.8"
     transform="scale(4.0128,0.2492)"
     id="text54"
     style="font-size:46.95399857px;text-anchor:middle;font-family:Arial" />
  <text
     x="1918.65"
     y="-326.37"
     id="text56"
     style="font-size:129.22999573px;line-height:125%;letter-spacing:0;word-spacing:0;font-family:Gentium Book Basic">
    <tspan
       x="1918.65"
       y="-326.37"
       id="tspan58" />
  </text>
  <text
     x="675.21002"
     y="-1658.83"
     transform="scale(4.0128,0.2492)"
     id="text60"
     style="font-size:46.95399857px;text-anchor:middle;font-family:Arial" />
  <text
     x="1529.53"
     y="-798.77002"
     id="text62"
     style="font-size:129.22999573px;line-height:125%;letter-spacing:0;word-spacing:0;font-family:Gentium Book Basic">
    <tspan
       x="1529.53"
       y="-798.77002"
       id="tspan64" />
  </text>
  <text
     x="578.23999"
     y="-3554.48"
     transform="scale(4.0128,0.2492)"
     id="text66"
     style="font-size:46.95399857px;text-anchor:middle;font-family:Arial" />
  <text
     x="2110.79"
     y="-878.78003"
     id="text68"
     style="font-size:129.22999573px;line-height:125%;letter-spacing:0;word-spacing:0;font-family:Gentium Book Basic">
    <tspan
       x="2110.79"
       y="-878.78003"
       id="tspan70" />
  </text>
  <text
     x="723.09003"
     y="-3875.52"
     transform="scale(4.0128,0.2492)"
     id="text72"
     style="font-size:46.95399857px;text-anchor:middle;font-family:Arial" />
  <text
     x="277.98999"
     y="535.94"
     id="text74"
     style="font-size:208.33000183px;line-height:125%;letter-spacing:0;word-spacing:0;font-family:Gentium Book Basic">
    <tspan
       x="277.98999"
       y="535.94"
       id="tspan76" />
  </text>
  <path
     d="m 241,37.25 c -5.893,1.028 -4.173,9.186 -4.03,13.656 0.29,2.741 0.856,7.398 -3.406,6.281 -15.592,-1.205 -31.28,0.203 -46.938,-0.313 -5.663,2.28 -1.556,-4.829 -5.563,-5.906 -4.727,-0.561 -2.947,7.797 -7.75,5.938 -7.275,-1.026 -14.566,1.078 -19.938,6.219 7.833,0 15.667,0 23.5,0 0,17.917 0,35.833 0,53.75 -17.917,0 -35.833,0 -53.75,0 0,-11.771 0,-23.542 0,-35.31 -6.153,2.746 -7.549,9.633 -6.156,15.594 -0.019,5.695 -0.576,11.365 0.188,17.09 0.563,4.991 -6.03,1.758 -8.781,2.625 -7.349,0.523 -15.735,-1.046 -22.438,0.781 -3.02,2.892 0.747,6.692 4.188,5.719 8.913,-0.806 17.801,-0.01 26.75,-0.25 0,17.917 0,35.833 0,53.75 -17.917,0 -35.833,0 -53.75,0 0,-7.927 0,-15.854 0,-23.781 -5.16,5.823 -7.374,13.31 -6.219,20.969 2.176,5.208 -5.987,1.137 -5.813,5.688 0.428,3.827 7.713,2.591 5.781,7.438 0,16.563 0,33.13 0,49.688 -6.604,0 -13.208,0 -19.813,0 -0.704,4.858 4.171,7.524 8.406,6.5 3.634,-0.203 8.06,-1.031 11.344,-0.125 0.67,5.924 -0.68,12.1 0.063,18.13 -0.279,11.794 0.552,24.617 -0.406,35.781 -4.688,0.212 -13.388,-3.098 -15,3.469 -0.131,4.191 6.174,2.486 9.188,2.438 2.458,-0.238 7.819,-1.409 6.241,3.094 0.615,14.751 -1.403,29.891 1.102,44.41 0.684,3.782 5.862,2.914 5.219,-0.844 -0.283,-15.522 0.008,-31.06 -0.094,-46.594 17.917,0 35.833,0 53.75,0 0,17.917 0,35.833 0,53.75 -18.719,0 -37.438,0 -56.16,0 2.448,6.499 9.661,7.393 15.563,6.156 13.49,0.023 27.07,0.171 40.594,0.094 0,17.896 0,35.792 0,53.688 -2.883,-1.045 -7.678,1.909 -4.094,4.563 2.851,1.106 4.623,3.072 6.03,5.594 4.316,2.369 4.03,-6.879 8.03,-4.25 16.483,0.956 33.388,0.13 50.03,0.406 0,12.521 0,25.04 0,37.563 3.813,2.419 7.548,-1.553 6.594,-5.438 -1.19,-10.674 0.099,-21.376 -0.344,-32.12 17.917,0 35.833,0 53.75,0 0,17.26 0,34.521 0,51.781 5.725,0.665 7.52,-5.684 6.406,-10.188 -0.753,-13.802 0.213,-27.727 -0.156,-41.594 17.917,0 35.833,0 53.75,0 0,16.313 0,32.625 0,48.938 6.245,-0.875 7.477,-7.668 6.281,-12.813 -0.461,-11.991 0.258,-24.08 -0.031,-36.12 17.927,0 35.854,0 53.781,0 -0.016,9.448 -0.213,18.903 0.281,28.344 5.565,-2.761 7.199,-8.936 5.969,-14.625 0.052,-4.372 -1.012,-8.805 0.063,-13 3.286,-2.839 8.22,0.323 12.13,-0.813 7.999,-0.436 17.1,1.736 24.438,-1.563 2.75,-3.771 -2.984,-5.65 -5.906,-4.75 -10.234,0.612 -20.487,-0.098 -30.75,0.156 0,-17.917 0,-35.833 0,-53.75 17.917,0 35.833,0 53.75,0 0,13.917 0,27.833 0,41.75 5.795,-4.092 7.517,-11.131 6.188,-17.781 -0.188,-7.97 0.252,-15.973 0.063,-23.969 8.06,0 16.13,0 24.19,0 2.959,-2.768 0.591,-7.465 -3.406,-6.594 -6.745,0.737 -13.45,0.412 -20.19,0.313 -2.91,-1.12 0.97,-5.801 -0.594,-7.969 0,-15.25 0,-30.5 0,-45.75 15.813,0 31.625,0 47.44,0 1.406,-5.02 -4.076,-7.524 -8.219,-6.5 -13.02,1.045 -26.13,-0.217 -39.22,0.25 0,-17.917 0,-35.833 0,-53.75 17.427,0 34.854,0 52.28,0 0.091,-5.584 -5.704,-7.613 -10.313,-6.406 -13.912,0.737 -27.978,-0.204 -41.969,0.156 0,-17.917 0,-35.833 0,-53.75 13.51,0 27.02,0 40.531,0 -2.055,-6.585 -9.269,-7.378 -15,-6.156 -8.482,0.129 -17.01,-0.273 -25.531,-0.094 0,-17.917 0,-35.833 0,-53.75 3.01,0.749 6.126,-2.835 2.813,-4.75 -1.596,-1.116 -4.654,-2.437 -3.25,-4.844 -2.225,-3.621 -6.22,-0.553 -6.406,2.781 -2.077,3.781 -6.287,-1.171 -9.406,0.563 -14.583,0 -29.17,0 -43.75,0 0,-17.458 0,-34.917 0,-52.37 -3.503,-2.885 -7.518,0.837 -6.531,4.75 1.01,15.819 -0.134,31.737 0.281,47.625 -17.917,0 -35.833,0 -53.75,0 0,-17.917 0,-35.833 0,-53.75 18.875,-0.033 37.75,0.071 56.625,-0.063 -7.483,-5.582 -16.706,-7.5 -25.875,-6.125 -10.302,0.102 -20.76,-0.131 -30.969,-0.125 0.046,-5.583 2.368,-13.08 -3.594,-16.594 -5.236,4.254 -0.632,11.67 -2.781,16.656 -17.802,0 -35.604,0 -53.41,0 0,-6.583 0,-13.167 0,-19.75 -0.708,0.042 -1.417,0.083 -2.125,0.125 m -4.125,25.875 c 0,17.917 0,35.833 0,53.75 -17.917,0 -35.833,0 -53.75,0 0,-17.917 0,-35.833 0,-53.75 17.917,0 35.833,0 53.75,0 m 60,0 c 0,17.917 0,35.833 0,53.75 -17.917,0 -35.833,0 -53.75,0 0,-17.917 0,-35.833 0,-53.75 17.917,0 35.833,0 53.75,0 m -120,60 c 0,17.917 0,35.833 0,53.75 -17.917,0 -35.833,0 -53.75,0 0,-17.917 0,-35.833 0,-53.75 17.917,0 35.833,0 53.75,0 m 60,0 c 0,17.917 0,35.833 0,53.75 -17.917,0 -35.833,0 -53.75,0 0,-17.917 0,-35.833 0,-53.75 17.917,0 35.833,0 53.75,0 m 60,0 c 0,17.917 0,35.833 0,53.75 -17.917,0 -35.833,0 -53.75,0 0,-17.917 0,-35.833 0,-53.75 17.917,0 35.833,0 53.75,0 m 60,0 c 0,17.917 0,35.833 0,53.75 -17.917,0 -35.833,0 -53.75,0 0,-17.917 0,-35.833 0,-53.75 17.917,0 35.833,0 53.75,0 m 60,0 c 0,17.917 0,35.833 0,53.75 -17.917,0 -35.833,0 -53.75,0 0,-17.917 0,-35.833 0,-53.75 17.917,0 35.833,0 53.75,0 m -300,60 c 0,17.917 0,35.833 0,53.75 -17.917,0 -35.833,0 -53.75,0 0,-17.917 0,-35.833 0,-53.75 17.917,0 35.833,0 53.75,0 m 60,0 c 0,17.917 0,35.833 0,53.75 -17.917,0 -35.833,0 -53.75,0 0,-17.917 0,-35.833 0,-53.75 17.917,0 35.833,0 53.75,0 m 60,0 c 0,17.917 0,35.833 0,53.75 -17.917,0 -35.833,0 -53.75,0 0,-17.917 0,-35.833 0,-53.75 17.917,0 35.833,0 53.75,0 m 60,0 c 0,17.917 0,35.833 0,53.75 -17.917,0 -35.833,0 -53.75,0 0,-17.917 0,-35.833 0,-53.75 17.917,0 35.833,0 53.75,0 m 60,0 c 0,17.917 0,35.833 0,53.75 -17.917,0 -35.833,0 -53.75,0 0,-17.917 0,-35.833 0,-53.75 17.917,0 35.833,0 53.75,0 m 60,0 c 0,17.917 0,35.833 0,53.75 -17.917,0 -35.833,0 -53.75,0 0,-17.917 0,-35.833 0,-53.75 17.917,0 35.833,0 53.75,0 m -300,60 c 0,17.917 0,35.833 0,53.75 -17.917,0 -35.833,0 -53.75,0 0,-17.917 0,-35.833 0,-53.75 17.917,0 35.833,0 53.75,0 m 60,0 c 0,17.917 0,35.833 0,53.75 -17.917,0 -35.833,0 -53.75,0 0,-17.917 0,-35.833 0,-53.75 17.917,0 35.833,0 53.75,0 m 60,0 c 0,17.917 0,35.833 0,53.75 -17.917,0 -35.833,0 -53.75,0 0,-17.917 0,-35.833 0,-53.75 17.917,0 35.833,0 53.75,0 m 60,0 c 0,17.917 0,35.833 0,53.75 -17.917,0 -35.833,0 -53.75,0 0,-17.917 0,-35.833 0,-53.75 17.917,0 35.833,0 53.75,0 m 60,0 c 0,17.917 0,35.833 0,53.75 -17.917,0 -35.833,0 -53.75,0 0,-17.917 0,-35.833 0,-53.75 17.917,0 35.833,0 53.75,0 m 60,0 c 0,17.917 0,35.833 0,53.75 -17.917,0 -35.833,0 -53.75,0 0,-17.917 0,-35.833 0,-53.75 17.917,0 35.833,0 53.75,0 m -240,60 c 0,17.917 0,35.833 0,53.75 -17.917,0 -35.833,0 -53.75,0 0,-17.917 0,-35.833 0,-53.75 17.917,0 35.833,0 53.75,0 m 60,0 c 0,17.917 0,35.833 0,53.75 -17.917,0 -35.833,0 -53.75,0 0,-17.917 0,-35.833 0,-53.75 17.917,0 35.833,0 53.75,0 m 60,0 c 0,17.917 0,35.833 0,53.75 -17.917,0 -35.833,0 -53.75,0 0,-17.917 0,-35.833 0,-53.75 17.917,0 35.833,0 53.75,0 m 60,0 c 0,17.917 0,35.833 0,53.75 -17.917,0 -35.833,0 -53.75,0 0,-17.917 0,-35.833 0,-53.75 17.917,0 35.833,0 53.75,0 m 60,0 c 0,17.917 0,35.833 0,53.75 -17.917,0 -35.833,0 -53.75,0 0,-17.917 0,-35.833 0,-53.75 17.917,0 35.833,0 53.75,0 m -240,60 c 0,17.917 0,35.833 0,53.75 -17.917,0 -35.833,0 -53.75,0 0,-17.917 0,-35.833 0,-53.75 17.917,0 35.833,0 53.75,0 m 60,0 c 0,17.917 0,35.833 0,53.75 -17.917,0 -35.833,0 -53.75,0 0,-17.917 0,-35.833 0,-53.75 17.917,0 35.833,0 53.75,0 m 60,0 c 0,17.917 0,35.833 0,53.75 -17.917,0 -35.833,0 -53.75,0 0,-17.917 0,-35.833 0,-53.75 17.917,0 35.833,0 53.75,0 m 60,0 c 0,17.917 0,35.833 0,53.75 -17.917,0 -35.833,0 -53.75,0 0,-17.917 0,-35.833 0,-53.75 17.917,0 35.833,0 53.75,0"
     inkscape:connector-curvature="0"
     id="path78"
     style="color:#000000;fill:#ffffff;fill-opacity:0.11799999" />
</svg>
