<?xml version="1.0" encoding="UTF-8" standalone="no"?>
<!-- Created with Inkscape (http://www.inkscape.org/) -->

<svg
   xmlns:dc="http://purl.org/dc/elements/1.1/"
   xmlns:cc="http://creativecommons.org/ns#"
   xmlns:rdf="http://www.w3.org/1999/02/22-rdf-syntax-ns#"
   xmlns:svg="http://www.w3.org/2000/svg"
   xmlns="http://www.w3.org/2000/svg"
   xmlns:inkscape="http://www.inkscape.org/namespaces/inkscape"
   version="1.1"
   width="100%"
   height="100%"
   viewBox="0 0 512 512"
   id="svg2">
  <metadata
     id="metadata78">
    <rdf:RDF>
      <cc:Work
         rdf:about="">
        <dc:format>image/svg+xml</dc:format>
        <dc:type
           rdf:resource="http://purl.org/dc/dcmitype/StillImage" />
      </cc:Work>
    </rdf:RDF>
  </metadata>
  <defs
     id="defs76" />
  <path
     d="m 471.95,253.05 c 0,120.9 -98.01,218.9 -218.9,218.9 -120.9,0 -218.9,-98.01 -218.9,-218.9 0,-120.9 98.01,-218.9 218.9,-218.9 120.9,0 218.9,98.01 218.9,218.9"
     inkscape:connector-curvature="0"
     id="path4"
     style="fill:#8db173;fill-rule:evenodd" />
  <path
     d="m 121,139.78 -3.375,4.313 v 11.875 c 0.015,0.012 0.627,0.51 1,0.813 v 0.188 c 0.015,0.012 0.627,0.511 1,0.813 v 0.188 l 1,0.813 v 0.188 c 0.015,0.012 0.616,0.496 0.969,0.781 v 0.188 c 0.015,0.012 0.627,0.511 1,0.813 v 0.188 c 0.015,0.012 0.627,0.511 1,0.813 v 0.188 c 0.015,0.012 0.627,0.511 1,0.813 v 0.188 l 1,0.813 v 0.188 c 0.015,0.012 0.627,0.511 1,0.813 v 0.188 l 0.969,0.781 v 0.188 l 1,0.813 v 0.188 c 0.015,0.012 0.627,0.511 1,0.813 v 0.188 l 1,0.813 v 0.188 c 0.014,0.012 0.627,0.511 1,0.813 v 0.188 c 0.014,0.012 0.627,0.511 1,0.813 v 0.188 c 0.014,0.011 0.617,0.496 0.969,0.781 v 0.188 c 0.014,0.011 0.627,0.511 1,0.813 v 0.188 l 1,0.813 v 0.188 c 0.014,0.011 0.627,0.511 1,0.813 v 0.188 c 0.006,0.005 0.328,0.28 0.406,0.344 v 192.56 c 0.036,0.059 2.344,3.844 2.344,3.844 0.003,0 0.388,0 0.406,0 0.229,0.376 0.594,1 0.594,1 0.003,0 0.388,0 0.406,0 0.229,0.376 0.594,1 0.594,1 0.003,0 0.388,0 0.406,0 0.229,0.376 0.594,1 0.594,1 0.003,0 0.36,0 0.375,0 l 0.594,0.969 c 0.003,0 0.388,0 0.406,0 0.229,0.376 0.594,1 0.594,1 0.003,0 0.388,0 0.406,0 l 0.594,1 c 0.003,0 0.388,0 0.406,0 0.229,0.376 0.594,1 0.594,1 0.003,0 0.388,0 0.406,0 0.229,0.376 0.594,1 0.594,1 0.003,0 0.388,0 0.406,0 0.229,0.376 0.594,1 0.594,1 0.003,0 0.36,0 0.375,0 0.22,0.362 0.594,0.969 0.594,0.969 0.003,0 0.388,0 0.406,0 0.229,0.376 0.594,1 0.594,1 0.003,0 0.388,0 0.406,0 l 0.594,1 c 0.003,0 0.389,0 0.406,0 0.229,0.376 0.594,1 0.594,1 0.003,0 0.389,0 0.406,0 0.229,0.376 0.594,1 0.594,1 0.003,0 0.389,0 0.406,0 0.229,0.376 0.594,1 0.594,1 0.003,0 0.36,0 0.375,0 0.221,0.362 0.594,0.969 0.594,0.969 0.003,0 0.389,0 0.406,0 0.229,0.376 0.594,1 0.594,1 0.003,0 0.389,0 0.406,0 l 0.594,1 c 0.003,0 0.389,0 0.406,0 0.229,0.376 0.594,1 0.594,1 0.003,0 0.389,0 0.406,0 0.229,0.376 0.594,1 0.594,1 0.003,0 0.389,0 0.406,0 0.229,0.376 0.594,1 0.594,1 0.003,0 0.36,0 0.375,0 0.224,0.368 0.594,0.969 0.594,0.969 h 0.031 c 0.003,0 0.36,0 0.375,0 0.229,0.376 0.594,1 0.594,1 0.003,0 0.389,0 0.406,0 0.229,0.376 0.594,1 0.594,1 0.003,0 0.389,0 0.406,0 0.229,0.376 0.594,1 0.594,1 0.003,0 0.389,0 0.406,0 l 0.594,1 h 0.406 c 0.229,0.376 0.594,1 0.594,1 0.003,0 0.389,0 0.406,0 0.229,0.376 0.594,1 0.594,1 0.002,0 0.36,0 0.375,0 0.221,0.362 0.594,0.969 0.594,0.969 0.003,0 0.389,0 0.406,0 0.229,0.376 0.594,1 0.594,1 0.003,0 0.389,0 0.406,0 0.229,0.376 0.594,1 0.594,1 0.003,0 0.389,0 0.406,0 l 0.594,1 c 0.003,0 0.389,0 0.406,0 0.229,0.376 0.594,1 0.594,1 0.003,0 0.389,0 0.406,0 0.229,0.376 0.594,1 0.594,1 0.002,0 0.36,0 0.375,0 0.221,0.362 0.594,0.969 0.594,0.969 0.003,0 0.389,0 0.406,0 0.23,0.376 0.594,1 0.594,1 0.003,0 0.389,0 0.406,0 l 0.594,1 c 0.003,0 0.389,0 0.406,0 l 0.594,1 c 0.003,0 0.389,0 0.406,0 0.23,0.377 0.594,1 0.594,1 0.003,0 0.389,0 0.406,0 l 0.594,1 c 0.002,0 0.36,0 0.375,0 0.221,0.362 0.594,0.969 0.594,0.969 0.002,0 0.389,0 0.406,0 0.23,0.377 0.594,1 0.594,1 0.002,0 0.389,0 0.406,0 0.23,0.377 0.594,1 0.594,1 0.002,0 0.389,0 0.406,0 0.23,0.377 0.594,1 0.594,1 0.002,0 0.389,0 0.406,0 0.23,0.377 0.594,1 0.594,1 0.002,0 0.389,0 0.406,0 l 0.594,1 c 0.002,0 0.389,0 0.406,0 0.23,0.377 0.594,1 0.594,1 0.002,0 0.36,0 0.375,0 0.221,0.362 0.594,0.969 0.594,0.969 0.002,0 0.389,0 0.406,0 0.23,0.377 0.594,1 0.594,1 0.002,0 0.389,0 0.406,0 0.23,0.377 0.594,1 0.594,1 0.002,0 0.389,0 0.406,0 l 0.594,1 c 0.002,0 0.389,0 0.406,0 l 0.594,1 c 0.002,0 0.389,0 0.406,0 0.23,0.377 0.594,1 0.594,1 0.002,0 0.36,0 0.375,0 0.221,0.363 0.594,0.969 0.594,0.969 0.002,0 0.389,0 0.406,0 0.23,0.377 0.594,1 0.594,1 0.002,0 0.389,0 0.406,0 0.23,0.377 0.594,1 0.594,1 0.002,0 0.389,0 0.406,0 0.23,0.377 0.594,1 0.594,1 0.002,0 0.389,0 0.406,0 0.23,0.377 0.594,1 0.594,1 0.002,0 0.389,0 0.406,0 0.23,0.377 0.594,1 0.594,1 0.002,0 0.36,0 0.375,0 l 0.594,0.969 c 0.002,0 0.389,0 0.406,0 0.23,0.377 0.594,1 0.594,1 0.002,0 0.389,0 0.406,0 0.23,0.377 0.594,1 0.594,1 0.002,0 0.389,0 0.406,0 0.23,0.377 0.594,1 0.594,1 0.002,0 0.389,0 0.406,0 0.23,0.377 0.594,1 0.594,1 0.002,0 0.389,0 0.406,0 l 0.594,1 c 0.002,0 0.36,0 0.375,0 l 0.594,0.969 h 0.031 c 0.002,0 0.36,0 0.375,0 0.23,0.377 0.594,1 0.594,1 0.002,0 0.389,0 0.406,0 0.23,0.377 0.594,1 0.594,1 0.002,0 0.389,0 0.406,0 0.23,0.377 0.594,1 0.594,1 0.002,0 0.389,0 0.406,0 0.23,0.377 0.594,1 0.594,1 h 0.406 l 0.594,1 c 0.002,0 0.389,0 0.406,0 l 0.594,1 c 0.002,0 0.36,0 0.375,0 0.221,0.363 0.594,0.969 0.594,0.969 0.002,0 0.389,0 0.406,0 l 0.594,1 c 0.002,0 0.389,0 0.406,0 0.23,0.377 0.594,1 0.594,1 0.002,0 0.389,0 0.406,0 0.23,0.377 0.594,1 0.594,1 0.002,0 0.389,0 0.406,0 0.23,0.377 0.594,1 0.594,1 0.002,0 0.389,0 0.406,0 0.23,0.377 0.594,1 0.594,1 0.002,0 0.361,0 0.375,0 l 0.594,0.969 c 0.002,0 0.389,0 0.406,0 l 0.594,1 c 0.002,0 0.389,0 0.406,0 0.23,0.378 0.594,1 0.594,1 0.002,0 0.39,0 0.406,0 0.23,0.378 0.594,1 0.594,1 0.002,0 0.39,0 0.406,0 0.23,0.378 0.594,1 0.594,1 0.002,0 0.39,0 0.406,0 0.23,0.378 0.594,1 0.594,1 0.002,0 0.361,0 0.375,0 l 0.594,0.969 c 0.002,0 0.39,0 0.406,0 l 0.594,1 c 0.002,0 0.39,0 0.406,0 0.23,0.378 0.594,1 0.594,1 0.002,0 0.39,0 0.406,0 0.23,0.378 0.594,1 0.594,1 0.002,0 0.39,0 0.406,0 0.23,0.378 0.594,1 0.594,1 0.002,0 0.39,0 0.406,0 0.23,0.378 0.594,1 0.594,1 0.002,0 0.39,0 0.406,0 0.23,0.378 0.594,1 0.594,1 0.002,0 0.361,0 0.375,0 0.222,0.364 0.594,0.969 0.594,0.969 0.002,0 0.39,0 0.406,0 0.23,0.378 0.594,1 0.594,1 0.002,0 0.39,0 0.406,0 0.23,0.378 0.594,1 0.594,1 0.002,0 0.39,0 0.406,0 0.23,0.378 0.594,1 0.594,1 0.002,0 0.39,0 0.406,0 0.23,0.378 0.594,1 0.594,1 0.002,0 0.39,0 0.406,0 0.23,0.378 0.594,1 0.594,1 0.001,0 0.361,0 0.375,0 0.222,0.364 0.594,0.969 0.594,0.969 0.002,0 0.39,0 0.406,0 l 0.594,1 c 0.002,0 0.39,0 0.406,0 0.23,0.378 0.594,1 0.594,1 0.002,0 0.39,0 0.406,0 0.086,0.141 0.122,0.211 0.219,0.375 4.51,0.277 9.04,0.469 13.625,0.469 120.9,0 218.91,-98.01 218.91,-218.91 0,-12.547 -1.067,-24.843 -3.094,-36.813 -0.759,-0.576 -0.819,-0.616 -0.844,-0.625 v -0.281 c -0.992,-0.759 -0.973,-0.709 -1,-0.719 v -0.281 c -0.972,-0.744 -0.937,-0.706 -0.969,-0.719 v -0.25 c -0.977,-0.748 -0.97,-0.738 -1,-0.75 v -0.25 c -0.977,-0.748 -0.97,-0.738 -1,-0.75 v -0.25 c -0.977,-0.748 -0.97,-0.738 -1,-0.75 v -0.25 c -0.992,-0.759 -0.973,-0.709 -1,-0.719 v -0.281 c -0.992,-0.759 -0.973,-0.709 -1,-0.719 v -0.281 c -0.992,-0.759 -0.973,-0.709 -1,-0.719 v -0.281 c -0.972,-0.744 -0.937,-0.706 -0.969,-0.719 v -0.25 c -0.977,-0.748 -0.97,-0.738 -1,-0.75 v -0.25 c -0.977,-0.748 -0.97,-0.738 -1,-0.75 v -0.25 c -0.975,-0.746 -0.969,-0.707 -1,-0.719 v -0.281 c -0.992,-0.759 -0.973,-0.709 -1,-0.719 v -0.281 c -0.992,-0.759 -0.973,-0.709 -1,-0.719 v -0.281 c -0.972,-0.744 -0.937,-0.706 -0.969,-0.719 v -0.25 c -0.977,-0.748 -0.97,-0.738 -1,-0.75 v -0.25 c -0.977,-0.748 -0.97,-0.738 -1,-0.75 v -0.25 c -0.975,-0.746 -0.969,-0.707 -1,-0.719 v -0.281 c -0.992,-0.759 -0.973,-0.709 -1,-0.719 v -0.281 c -0.992,-0.759 -0.973,-0.709 -1,-0.719 v -0.281 c -0.972,-0.744 -0.937,-0.706 -0.969,-0.719 v -0.25 c -0.977,-0.748 -0.97,-0.738 -1,-0.75 v -0.25 c -0.977,-0.748 -0.97,-0.738 -1,-0.75 v -0.25 c -0.977,-0.748 -0.97,-0.738 -1,-0.75 v -0.25 c -0.992,-0.759 -0.973,-0.709 -1,-0.719 v -0.281 c -0.992,-0.759 -0.973,-0.709 -1,-0.719 v -0.281 c -0.972,-0.744 -0.937,-0.706 -0.969,-0.719 v -0.25 h -0.031 c -0.959,-0.734 -0.934,-0.704 -0.969,-0.719 v -0.281 c -0.977,-0.748 -0.97,-0.738 -1,-0.75 v -0.25 c -0.977,-0.748 -0.97,-0.738 -1,-0.75 v -0.25 c -0.975,-0.746 -0.969,-0.707 -1,-0.719 v -0.281 c -0.992,-0.759 -0.973,-0.709 -1,-0.719 v -0.281 c -0.992,-0.759 -0.973,-0.709 -1,-0.719 v -0.281 c -0.972,-0.744 -0.937,-0.706 -0.969,-0.719 v -0.25 c -0.977,-0.748 -0.97,-0.738 -1,-0.75 v -0.25 c -0.977,-0.748 -0.97,-0.738 -1,-0.75 v -0.25 c -0.975,-0.746 -0.969,-0.707 -1,-0.719 v -0.281 c -0.992,-0.759 -0.973,-0.709 -1,-0.719 v -0.281 c -0.992,-0.759 -0.973,-0.709 -1,-0.719 v -0.281 c -0.972,-0.744 -0.937,-0.706 -0.969,-0.719 v -0.25 c -0.977,-0.748 -0.97,-0.738 -1,-0.75 v -0.25 c -0.977,-0.748 -0.97,-0.738 -1,-0.75 v -0.25 c -0.975,-0.746 -0.969,-0.707 -1,-0.719 v -0.281 c -0.992,-0.759 -0.973,-0.709 -1,-0.719 v -0.281 c -0.992,-0.759 -0.973,-0.709 -1,-0.719 v -0.281 c -0.972,-0.744 -0.937,-0.706 -0.969,-0.719 v -0.25 c -0.977,-0.748 -0.97,-0.738 -1,-0.75 v -0.25 c -0.977,-0.748 -0.97,-0.738 -1,-0.75 v -0.25 c -0.977,-0.748 -0.97,-0.738 -1,-0.75 v -0.25 c -0.992,-0.759 -0.973,-0.709 -1,-0.719 v -0.281 c -0.992,-0.759 -0.973,-0.709 -1,-0.719 v -0.281 c -0.992,-0.759 -0.973,-0.709 -1,-0.719 v -0.281 c -0.972,-0.744 -0.937,-0.706 -0.969,-0.719 v -0.25 c -0.977,-0.748 -0.97,-0.738 -1,-0.75 v -0.25 c -0.977,-0.748 -0.97,-0.738 -1,-0.75 v -0.25 c -0.975,-0.746 -0.969,-0.707 -1,-0.719 v -0.281 c -0.992,-0.759 -0.973,-0.709 -1,-0.719 v -0.281 c -0.992,-0.759 -0.973,-0.709 -1,-0.719 v -0.281 c -0.972,-0.744 -0.937,-0.706 -0.969,-0.719 v -0.25 c -0.977,-0.748 -0.97,-0.738 -1,-0.75 v -0.25 c -0.977,-0.748 -0.97,-0.738 -1,-0.75 v -0.25 c -0.975,-0.746 -0.969,-0.707 -1,-0.719 v -0.281 c -0.992,-0.759 -0.973,-0.709 -1,-0.719 v -0.281 c -0.992,-0.759 -0.973,-0.709 -1,-0.719 v -0.281 c -0.972,-0.744 -0.937,-0.706 -0.969,-0.719 v -0.25 c -0.977,-0.748 -0.97,-0.738 -1,-0.75 v -0.25 c -0.977,-0.748 -0.97,-0.738 -1,-0.75 v -0.25 c -0.977,-0.748 -0.97,-0.738 -1,-0.75 v -0.25 c -0.992,-0.759 -0.973,-0.709 -1,-0.719 v -0.281 c -0.992,-0.759 -0.973,-0.709 -1,-0.719 v -0.281 c -0.972,-0.743 -0.937,-0.706 -0.969,-0.719 v -0.25 h -0.031 c -0.959,-0.734 -0.934,-0.704 -0.969,-0.719 v -0.281 c -0.977,-0.748 -0.97,-0.738 -1,-0.75 v -0.25 c -0.977,-0.748 -0.97,-0.738 -1,-0.75 v -0.25 c -2.306,-1.764 -0.038,0.108 -2.344,-1.875 h -97.97 c -0.046,0.055 -3,3.594 -3,3.594 -0.002,0.094 -0.313,12.06 -0.313,12.06 0.015,0.013 0.575,0.465 1,0.813 0,0.006 0,0.188 0,0.188 0.015,0.012 0.575,0.465 1,0.813 0,0.006 0,0.188 0,0.188 0.015,0.012 0.575,0.465 1,0.813 0,0.006 0,0.188 0,0.188 0.015,0.012 0.566,0.452 0.969,0.781 0,0.006 0,0.188 0,0.188 0.015,0.012 0.575,0.465 1,0.813 0,0.006 0,0.188 0,0.188 l 1,0.813 c 0,0.006 0,0.188 0,0.188 0.015,0.012 0.575,0.465 1,0.813 0,0.006 0,0.188 0,0.188 l 1,0.813 c 0,0.006 0,0.188 0,0.188 0.015,0.012 0.575,0.465 1,0.813 0,0.006 0,0.188 0,0.188 0.014,0.012 0.566,0.452 0.969,0.781 0,0.006 0,0.188 0,0.188 0.015,0.012 0.575,0.465 1,0.813 0,0.006 0,0.188 0,0.188 0.015,0.012 0.575,0.465 1,0.813 0,0.006 0,0.188 0,0.188 0.014,0.012 0.575,0.465 1,0.813 0,0.006 0,0.188 0,0.188 0.014,0.012 0.575,0.465 1,0.813 0,0.006 0,0.188 0,0.188 l 1,0.813 c 0,0.006 0,0.188 0,0.188 0.014,0.011 0.566,0.452 0.969,0.781 0,0.006 0,0.188 0,0.188 l 1,0.813 c 0,0.006 0,0.188 0,0.188 0.011,0.009 0.508,0.407 0.813,0.656 l -30,27.781 -0.344,-0.375 h -0.094 c -0.296,-0.325 -0.906,-1 -0.906,-1 h -0.094 c -0.279,-0.307 -0.875,-0.969 -0.875,-0.969 h -0.094 l -0.906,-1 h -0.094 c -0.296,-0.325 -0.906,-1 -0.906,-1 h -0.094 c -0.296,-0.325 -0.906,-1 -0.906,-1 h -0.094 l -0.906,-1 h -0.094 c -0.296,-0.325 -0.906,-1 -0.906,-1 h -0.094 c -0.279,-0.307 -0.875,-0.969 -0.875,-0.969 h -0.094 l -0.906,-1 h -0.094 c -0.296,-0.325 -0.906,-1 -0.906,-1 h -0.094 c -0.296,-0.325 -0.906,-1 -0.906,-1 h -0.094 l -0.906,-1 h -0.094 c -0.295,-0.325 -0.906,-1 -0.906,-1 h -0.094 c -0.282,-0.31 -0.875,-0.969 -0.875,-0.969 h -0.031 -0.063 l -0.906,-1 h -0.094 c -0.295,-0.325 -0.906,-1 -0.906,-1 h -0.094 c -0.295,-0.325 -0.906,-1 -0.906,-1 h -0.094 l -0.906,-1 h -0.094 c -0.295,-0.325 -0.906,-1 -0.906,-1 h -0.094 c -0.295,-0.325 -0.906,-1 -0.906,-1 h -0.094 l -0.875,-0.969 h -0.094 c -0.295,-0.325 -0.906,-1 -0.906,-1 h -0.094 c -0.295,-0.325 -0.906,-1 -0.906,-1 h -0.094 l -0.906,-1 h -0.094 c -0.295,-0.325 -0.906,-1 -0.906,-1 h -0.094 c -0.295,-0.325 -0.906,-1 -0.906,-1 h -0.094 l -0.875,-0.969 h -0.094 c -0.295,-0.325 -0.906,-1 -0.906,-1 h -0.094 c -0.295,-0.325 -0.906,-1 -0.906,-1 h -0.094 l -0.906,-1 h -0.094 c -0.295,-0.325 -0.906,-1 -0.906,-1 h -0.094 c -0.295,-0.325 -0.906,-1 -0.906,-1 h -0.094 l -0.875,-0.969 h -0.094 c -0.295,-0.325 -0.906,-1 -0.906,-1 h -0.094 c -0.295,-0.325 -0.906,-1 -0.906,-1 h -0.094 l -0.906,-1 h -0.094 c -0.295,-0.325 -0.906,-1 -0.906,-1 h -0.094 c -0.295,-0.324 -0.906,-1 -0.906,-1 h -0.094 l -0.906,-1 h -0.094 c -0.278,-0.306 -0.875,-0.969 -0.875,-0.969 h -0.094 c -0.295,-0.324 -0.906,-1 -0.906,-1 h -0.094 l -0.906,-1 h -0.094 c -0.295,-0.324 -0.906,-1 -0.906,-1 h -0.094 c -0.295,-0.324 -0.906,-1 -0.906,-1 h -0.094 l -0.906,-1 h -0.094 c -0.278,-0.306 -0.875,-0.969 -0.875,-0.969 h -0.094 c -0.295,-0.324 -0.906,-1 -0.906,-1 h -0.094 l -0.906,-1 h -0.094 c -0.295,-0.324 -0.906,-1 -0.906,-1 h -0.094 c -0.295,-0.324 -0.906,-1 -0.906,-1 h -0.094 c -0.295,-0.324 -0.906,-1 -0.906,-1 h -0.094 c -0.278,-0.306 -0.875,-0.969 -0.875,-0.969 h -0.094 c -0.295,-0.324 -0.906,-1 -0.906,-1 h -0.094 l -0.906,-1 h -0.094 c -0.295,-0.324 -0.906,-1 -0.906,-1 h -0.094 c -0.295,-0.324 -0.906,-1 -0.906,-1 h -0.094 c -0.295,-0.324 -0.906,-1 -0.906,-1 h -0.094 c -0.281,-0.309 -0.875,-0.969 -0.875,-0.969 h -0.031 -0.063 c -0.295,-0.324 -0.906,-1 -0.906,-1 h -0.094 c -0.295,-0.324 -0.906,-1 -0.906,-1 h -0.094 c -0.295,-0.324 -0.906,-1 -0.906,-1 h -96.44"
     inkscape:connector-curvature="0"
     id="path6"
     style="fill-opacity:0.23500001" />
  <g
     transform="translate(0,-540.36)"
     id="g8"
     style="fill-rule:evenodd">
    <path
       d="m 256,541.36 c -140.83,0 -255,114.17 -255,255 0,140.83 114.17,255 255,255 140.83,0 255,-114.17 255,-255 0,-140.83 -114.17,-255 -255,-255 m 8.827,44.931 c 120.9,0 218.9,98 218.9,218.9 0,120.9 -98,218.9 -218.9,218.9 -120.9,0 -218.93,-98 -218.93,-218.9 0,-120.9 98.03,-218.9 218.93,-218.9"
       inkscape:connector-curvature="0"
       id="path10"
       style="fill-opacity:0.06700003" />
    <g
       id="g12"
       style="fill-opacity:0.12900002">
      <path
         d="M 256,544.79 C 117.06,544.79 4.43,657.42 4.43,796.36 4.43,935.3 117.06,1047.93 256,1047.93 394.94,1047.93 507.57,935.3 507.57,796.36 507.57,657.42 394.94,544.79 256,544.79 m 5.885,38.556 c 120.9,0 218.9,98 218.9,218.9 0,120.9 -98,218.9 -218.9,218.9 -120.9,0 -218.93,-98 -218.93,-218.9 0,-120.9 98.03,-218.9 218.93,-218.9"
         inkscape:connector-curvature="0"
         id="path14" />
      <path
         d="M 256,548.72 C 119.23,548.72 8.36,659.59 8.36,796.36 8.36,933.13 119.23,1044 256,1044 392.77,1044 503.64,933.13 503.64,796.36 503.64,659.59 392.77,548.72 256,548.72 m 2.942,31.691 c 120.9,0 218.9,98 218.9,218.9 0,120.9 -98,218.9 -218.9,218.9 -120.9,0 -218.93,-98 -218.93,-218.9 0,-120.9 98.03,-218.9 218.93,-218.9"
         inkscape:connector-curvature="0"
         id="path16" />
    </g>
    <path
       d="M 253.04,548.22 C 117.62,548.22 7.85,658 7.85,793.41 c 0,135.42 109.78,245.19 245.19,245.19 135.42,0 245.19,-109.78 245.19,-245.19 0,-135.42 -109.78,-245.19 -245.19,-245.19 z m 0,26.297 c 120.9,0 218.9,98 218.9,218.9 0,120.9 -98,218.9 -218.9,218.9 -120.9,0 -218.93,-98 -218.93,-218.9 0,-120.9 98.03,-218.9 218.93,-218.9 z"
       inkscape:connector-curvature="0"
       id="path18"
       style="fill:#ffffff;stroke:#000000;stroke-width:4.90399981;stroke-opacity:0.31000001" />
  </g>
  <text
     x="729.64001"
     y="231.36"
     id="text20"
     style="font-size:129.22999573px;line-height:125%;letter-spacing:0;word-spacing:0;font-family:Gentium Book Basic">
    <tspan
       x="729.64001"
       y="231.36"
       id="tspan22" />
  </text>
  <text
     x="378.91"
     y="579.26001"
     transform="scale(4.0128,0.2492)"
     id="text24"
     style="font-size:46.95399857px;text-anchor:middle;font-family:Arial" />
  <text
     x="1310.91"
     y="151.36"
     id="text26"
     style="font-size:129.22999573px;line-height:125%;letter-spacing:0;word-spacing:0;font-family:Gentium Book Basic">
    <tspan
       x="1310.91"
       y="151.36"
       id="tspan28" />
  </text>
  <text
     x="523.76001"
     y="258.22"
     transform="scale(4.0128,0.2492)"
     id="text30"
     style="font-size:46.95399857px;text-anchor:middle;font-family:Arial" />
  <text
     x="239.33"
     y="-29.9"
     id="text32"
     style="font-size:129.22999573px;line-height:125%;letter-spacing:0;word-spacing:0;font-family:Gentium Book Basic">
    <tspan
       x="239.33"
       y="-29.9"
       id="tspan34" />
  </text>
  <text
     x="256.72"
     y="-469.13"
     transform="scale(4.0128,0.2492)"
     id="text36"
     style="font-size:46.95399857px;text-anchor:middle;font-family:Arial" />
  <text
     x="1337.38"
     y="-246.37"
     id="text38"
     style="font-size:129.22999573px;line-height:125%;letter-spacing:0;word-spacing:0;font-family:Gentium Book Basic">
    <tspan
       x="1337.38"
       y="-246.37"
       id="tspan40" />
  </text>
  <text
     x="530.35999"
     y="-1337.8"
     transform="scale(4.0128,0.2492)"
     id="text42"
     style="font-size:46.95399857px;text-anchor:middle;font-family:Arial" />
  <text
     x="1918.65"
     y="-326.37"
     id="text44"
     style="font-size:129.22999573px;line-height:125%;letter-spacing:0;word-spacing:0;font-family:Gentium Book Basic">
    <tspan
       x="1918.65"
       y="-326.37"
       id="tspan46" />
  </text>
  <text
     x="675.21002"
     y="-1658.83"
     transform="scale(4.0128,0.2492)"
     id="text48"
     style="font-size:46.95399857px;text-anchor:middle;font-family:Arial" />
  <text
     x="1529.53"
     y="-798.77002"
     id="text50"
     style="font-size:129.22999573px;line-height:125%;letter-spacing:0;word-spacing:0;font-family:Gentium Book Basic">
    <tspan
       x="1529.53"
       y="-798.77002"
       id="tspan52" />
  </text>
  <text
     x="578.23999"
     y="-3554.48"
     transform="scale(4.0128,0.2492)"
     id="text54"
     style="font-size:46.95399857px;text-anchor:middle;font-family:Arial" />
  <text
     x="2110.79"
     y="-878.78003"
     id="text56"
     style="font-size:129.22999573px;line-height:125%;letter-spacing:0;word-spacing:0;font-family:Gentium Book Basic">
    <tspan
       x="2110.79"
       y="-878.78003"
       id="tspan58" />
  </text>
  <text
     x="723.09003"
     y="-3875.52"
     transform="scale(4.0128,0.2492)"
     id="text60"
     style="font-size:46.95399857px;text-anchor:middle;font-family:Arial" />
  <text
     x="277.98999"
     y="535.94"
     id="text62"
     style="font-size:208.33000183px;line-height:125%;letter-spacing:0;word-spacing:0;font-family:Gentium Book Basic">
    <tspan
       x="277.98999"
       y="535.94"
       id="tspan64" />
  </text>
  <g
     transform="matrix(0.81547,0,0,0.81547,-651.34,-397.14)"
     id="g66"
     style="fill:#ffffff">
    <path
       d="m 969.54,942.73 26.43,0.724 286.39,-268.64 v -14.01 c -2.829,-2.165 -0.067,0.149 -2.895,-2.283 h -120.11 l -3.711,4.39 -0.362,14.799 3.983,3.259 h 19.913 v 16.292 l -135.41,124.91 v -140.84 h 21.956 l 5.02,-3.802 v -13.215 l -5.377,-5.876 h -118.26 l -4.134,5.275 v 14.585 l 5.03,4.049 h 18.651 v 255.68 z"
       inkscape:connector-curvature="0"
       id="path68" />
    <text
       x="1082.76"
       y="941.52002"
       id="text70"
       style="font-size:144px;font-style:italic;font-weight:bold;line-height:125%;letter-spacing:0;word-spacing:0;font-family:Serif">
      <tspan
         x="1082.76"
         y="941.52002"
         id="tspan72"
         style="fill:#ffffff">im</tspan>
    </text>
  </g>
</svg>
