<?xml version="1.0" encoding="UTF-8" standalone="no"?>
<svg
   xmlns:dc="http://purl.org/dc/elements/1.1/"
   xmlns:cc="http://creativecommons.org/ns#"
   xmlns:rdf="http://www.w3.org/1999/02/22-rdf-syntax-ns#"
   xmlns:svg="http://www.w3.org/2000/svg"
   xmlns="http://www.w3.org/2000/svg"
   xmlns:xlink="http://www.w3.org/1999/xlink"
   xmlns:sodipodi="http://sodipodi.sourceforge.net/DTD/sodipodi-0.dtd"
   xmlns:inkscape="http://www.inkscape.org/namespaces/inkscape"
   viewBox="0 0 512 512"
   id="svg2"
   version="1.1"
   inkscape:version="0.48.5 r10040"
   width="100%"
   height="100%"
   sodipodi:docname="a base.svg">
  <sodipodi:namedview
     pagecolor="#ffffff"
     bordercolor="#666666"
     borderopacity="1"
     objecttolerance="10"
     gridtolerance="10"
     guidetolerance="10"
     inkscape:pageopacity="0"
     inkscape:pageshadow="2"
     inkscape:window-width="1306"
     inkscape:window-height="706"
     id="namedview66"
     showgrid="false"
     inkscape:zoom="0.32593203"
     inkscape:cx="-77.426975"
     inkscape:cy="260.06028"
     inkscape:window-x="56"
     inkscape:window-y="26"
     inkscape:window-maximized="1"
     inkscape:current-layer="svg2" />
  <metadata
     id="metadata70">
    <rdf:RDF>
      <cc:Work
         rdf:about="">
        <dc:format>image/svg+xml</dc:format>
        <dc:type
           rdf:resource="http://purl.org/dc/dcmitype/StillImage" />
        <dc:title></dc:title>
      </cc:Work>
    </rdf:RDF>
  </metadata>
  <defs
     id="defs68">
    <linearGradient
       xlink:href="#0"
       id="1"
       gradientUnits="userSpaceOnUse"
       gradientTransform="matrix(1.0381,0,0,1.46193,-228.29,-118.25)"
       x1="257"
       x2="362" />
    <linearGradient
       xlink:href="#0"
       id="2"
       gradientUnits="userSpaceOnUse"
       gradientTransform="matrix(1.0381,0,0,1.46193,-119.29,-118.25)"
       x1="257"
       x2="362" />
    <linearGradient
       id="0">
      <stop
         id="stop3028" />
      <stop
         offset="1"
         stop-color="#fff"
         id="stop3030" />
    </linearGradient>
    <linearGradient
       xlink:href="#0"
       id="3"
       gradientUnits="userSpaceOnUse"
       gradientTransform="matrix(1.0381,0,0,1.46193,-10.289,-118.25)"
       x1="257"
       x2="362" />
    <linearGradient
       xlink:href="#0"
       id="4"
       gradientUnits="userSpaceOnUse"
       gradientTransform="matrix(1.02835,0,0,1.46193,101.22,-118.25)"
       x1="257"
       x2="362" />
    <linearGradient
       xlink:href="#0"
       id="6"
       gradientUnits="userSpaceOnUse"
       gradientTransform="matrix(1.0381,0,0,1.46193,-337.29,-118.25)"
       x1="257"
       x2="362" />
    <linearGradient
       xlink:href="#0"
       id="5"
       gradientUnits="userSpaceOnUse"
       gradientTransform="matrix(1.02835,0,0,1.46193,209.19,-118.25)"
       x1="257"
       x2="362" />
    <linearGradient
       id="8"
       y1="19.564"
       x2="0"
       y2="504.02"
       gradientUnits="userSpaceOnUse">
      <stop
         stop-color="#f3f3f3"
         id="stop3017" />
      <stop
         offset=".5"
         stop-color="#eee"
         id="stop3019" />
      <stop
         offset="1"
         stop-color="#ebebeb"
         id="stop3021" />
    </linearGradient>
    <filter
       id="7">
      <feGaussianBlur
         stdDeviation="3.7725"
         id="feGaussianBlur3014" />
    </filter>
    <linearGradient
       x2="362"
       x1="257"
       gradientTransform="matrix(1.02835,0,0,1.46193,-517.58766,-160.30785)"
       gradientUnits="userSpaceOnUse"
       id="linearGradient3101"
       xlink:href="#0"
       inkscape:collect="always" />
    <linearGradient
       x2="362"
       x1="257"
       gradientTransform="matrix(1.0381,0,0,1.46193,-1064.0677,-160.30785)"
       gradientUnits="userSpaceOnUse"
       id="linearGradient3104"
       xlink:href="#0"
       inkscape:collect="always" />
    <linearGradient
       x2="362"
       x1="257"
       gradientTransform="matrix(1.02835,0,0,1.46193,-625.55766,-160.30785)"
       gradientUnits="userSpaceOnUse"
       id="linearGradient3107"
       xlink:href="#0"
       inkscape:collect="always" />
    <linearGradient
       x2="362"
       x1="257"
       gradientTransform="matrix(1.0381,0,0,1.46193,-737.06666,-160.30785)"
       gradientUnits="userSpaceOnUse"
       id="linearGradient3110"
       xlink:href="#0"
       inkscape:collect="always" />
    <linearGradient
       x2="362"
       x1="257"
       gradientTransform="matrix(1.0381,0,0,1.46193,-846.06766,-160.30785)"
       gradientUnits="userSpaceOnUse"
       id="linearGradient3113"
       xlink:href="#0"
       inkscape:collect="always" />
    <linearGradient
       x2="362"
       x1="257"
       gradientTransform="matrix(1.0381,0,0,1.46193,-955.06766,-160.30785)"
       gradientUnits="userSpaceOnUse"
       id="linearGradient3116"
       xlink:href="#0"
       inkscape:collect="always" />
    <linearGradient
       gradientTransform="translate(-726.77766,-42.057849)"
       y2="504.02"
       x2="0"
       y1="19.564"
       gradientUnits="userSpaceOnUse"
       id="linearGradient3125"
       xlink:href="#8"
       inkscape:collect="always" />
    <clipPath
       clipPathUnits="userSpaceOnUse"
       id="clipPath3337">
      <path
         d="m 471.9456,253.05189 c 0,120.89699 -98.00565,218.90724 -218.90724,218.90724 -120.89698,0 -218.90723,-98.00566 -218.90723,-218.90724 0,-120.89698 98.00565,-218.907232 218.90723,-218.907232 120.89699,0 218.90724,98.005652 218.90724,218.907232"
         id="path3339"
         inkscape:connector-curvature="0"
         style="fill:#62c0dc;fill-opacity:1;fill-rule:evenodd" />
    </clipPath>
  </defs>
  <path
     style="fill:#50a9c4;fill-rule:evenodd;fill-opacity:1"
     inkscape:connector-curvature="0"
     id="path8"
     d="m 471.9456,253.05189 c 0,120.89699 -98.00565,218.90724 -218.90724,218.90724 -120.89698,0 -218.90723,-98.00566 -218.90723,-218.90724 0,-120.89698 98.00565,-218.907232 218.90723,-218.907232 120.89699,0 218.90724,98.005652 218.90724,218.907232" />
  <path
     style="fill-opacity:0.06700003;fill-rule:evenodd"
     inkscape:connector-curvature="0"
     id="path10"
     d="M 256,1 C 115.17,1 1,115.17 1,256 1,396.83 115.17,511 256,511 396.83,511 511,396.83 511,256 511,115.17 396.83,1 256,1 m 8.827,44.931 c 120.9,0 218.9,98 218.9,218.9 0,120.9 -98,218.9 -218.9,218.9 -120.9,0 -218.93,-98 -218.93,-218.9 0,-120.9 98.03,-218.9 218.93,-218.9" />
  <path
     d="M 256,4.43 C 117.06,4.43 4.43,117.06 4.43,256 4.43,394.94 117.06,507.57 256,507.57 394.94,507.57 507.57,394.94 507.57,256 507.57,117.06 394.94,4.43 256,4.43 m 5.885,38.556 c 120.9,0 218.9,98 218.9,218.9 0,120.9 -98,218.9 -218.9,218.9 -120.9,0 -218.93,-98 -218.93,-218.9 0,-120.9 98.03,-218.9 218.93,-218.9"
     id="path14"
     inkscape:connector-curvature="0"
     style="fill-opacity:0.12900002;fill-rule:evenodd" />
  <path
     d="M 256,8.36 C 119.23,8.36 8.36,119.23 8.36,256 8.36,392.77 119.23,503.64 256,503.64 392.77,503.64 503.64,392.77 503.64,256 503.64,119.23 392.77,8.36 256,8.36 m 2.942,31.691 c 120.9,0 218.9,98 218.9,218.9 0,120.9 -98,218.9 -218.9,218.9 -120.9,0 -218.93,-98 -218.93,-218.9 0,-120.9 98.03,-218.9 218.93,-218.9"
     id="path16"
     inkscape:connector-curvature="0"
     style="fill-opacity:0.12900002;fill-rule:evenodd" />
  <path
     style="fill:#ffffff;fill-rule:evenodd;stroke:#000000;stroke-width:4.90399981;stroke-opacity:0.31000001"
     inkscape:connector-curvature="0"
     id="path18"
     d="M 253.04,7.86 C 117.62,7.86 7.85,117.64 7.85,253.05 c 0,135.42 109.78,245.19 245.19,245.19 135.42,0 245.19,-109.78 245.19,-245.19 C 498.23,117.63 388.45,7.86 253.04,7.86 z m 0,26.297 c 120.9,0 218.9,98 218.9,218.9 0,120.9 -98,218.9 -218.9,218.9 -120.9,0 -218.93,-98 -218.93,-218.9 0,-120.9 98.03,-218.9 218.93,-218.9 z" />
  <text
     font-size="129.23"
     letter-spacing="0"
     line-height="125%"
     word-spacing="0"
     x="729.64001"
     y="231.35997"
     id="text20"
     sodipodi:linespacing="125%"
     style="font-size:129.22999573px;line-height:125%;letter-spacing:0;word-spacing:0;font-family:Gentium Book Basic">
    <tspan
       x="729.64001"
       y="231.35997"
       id="tspan22" />
  </text>
  <text
     x="378.90805"
     y="579.25812"
     font-size="46.954"
     transform="scale(4.0128205,0.24920128)"
     id="text24"
     style="font-size:46.95375824px;text-anchor:middle;font-family:Arial" />
  <text
     font-size="129.23"
     letter-spacing="0"
     line-height="125%"
     word-spacing="0"
     x="1310.91"
     y="151.35997"
     id="text26"
     sodipodi:linespacing="125%"
     style="font-size:129.22999573px;line-height:125%;letter-spacing:0;word-spacing:0;font-family:Gentium Book Basic">
    <tspan
       x="1310.91"
       y="151.35997"
       id="tspan28" />
  </text>
  <text
     x="523.75732"
     y="258.21997"
     font-size="46.954"
     transform="scale(4.0128205,0.24920128)"
     id="text30"
     style="font-size:46.95375824px;text-anchor:middle;font-family:Arial" />
  <text
     font-size="129.23"
     letter-spacing="0"
     line-height="125%"
     word-spacing="0"
     x="239.33"
     y="-29.900009"
     id="text32"
     sodipodi:linespacing="125%"
     style="font-size:129.22999573px;line-height:125%;letter-spacing:0;word-spacing:0;font-family:Gentium Book Basic">
    <tspan
       x="239.33"
       y="-29.900009"
       id="tspan34" />
  </text>
  <text
     x="256.71869"
     y="-469.1264"
     font-size="46.954"
     transform="scale(4.0128205,0.24920128)"
     id="text36"
     style="font-size:46.95375824px;text-anchor:middle;font-family:Arial" />
  <text
     font-size="129.23"
     letter-spacing="0"
     line-height="125%"
     word-spacing="0"
     x="1337.38"
     y="-246.37001"
     id="text38"
     sodipodi:linespacing="125%"
     style="font-size:129.22999573px;line-height:125%;letter-spacing:0;word-spacing:0;font-family:Gentium Book Basic">
    <tspan
       x="1337.38"
       y="-246.37001"
       id="tspan40" />
  </text>
  <text
     x="530.3573"
     y="-1337.802"
     font-size="46.954"
     transform="scale(4.0128205,0.24920128)"
     id="text42"
     style="font-size:46.95375824px;text-anchor:middle;font-family:Arial" />
  <text
     font-size="129.23"
     letter-spacing="0"
     line-height="125%"
     word-spacing="0"
     x="1918.65"
     y="-326.37"
     id="text44"
     sodipodi:linespacing="125%"
     style="font-size:129.22999573px;line-height:125%;letter-spacing:0;word-spacing:0;font-family:Gentium Book Basic">
    <tspan
       x="1918.65"
       y="-326.37"
       id="tspan46" />
  </text>
  <text
     x="675.20654"
     y="-1658.8303"
     font-size="46.954"
     transform="scale(4.0128205,0.24920128)"
     id="text48"
     style="font-size:46.95375824px;text-anchor:middle;font-family:Arial" />
  <text
     font-size="129.23"
     letter-spacing="0"
     line-height="125%"
     word-spacing="0"
     x="1529.53"
     y="-798.77002"
     id="text50"
     sodipodi:linespacing="125%"
     style="font-size:129.22999573px;line-height:125%;letter-spacing:0;word-spacing:0;font-family:Gentium Book Basic">
    <tspan
       x="1529.53"
       y="-798.77002"
       id="tspan52" />
  </text>
  <text
     x="578.237"
     y="-3554.4807"
     font-size="46.954"
     transform="scale(4.0128205,0.24920128)"
     id="text54"
     style="font-size:46.95375824px;text-anchor:middle;font-family:Arial" />
  <text
     font-size="129.23"
     letter-spacing="0"
     line-height="125%"
     word-spacing="0"
     x="2110.79"
     y="-878.78003"
     id="text56"
     sodipodi:linespacing="125%"
     style="font-size:129.22999573px;line-height:125%;letter-spacing:0;word-spacing:0;font-family:Gentium Book Basic">
    <tspan
       x="2110.79"
       y="-878.78003"
       id="tspan58" />
  </text>
  <text
     x="723.0863"
     y="-3875.519"
     font-size="46.954"
     transform="scale(4.0128205,0.24920128)"
     id="text60"
     style="font-size:46.95375824px;text-anchor:middle;font-family:Arial" />
  <text
     font-size="208.33"
     letter-spacing="0"
     line-height="125%"
     word-spacing="0"
     x="277.98999"
     y="535.94006"
     id="text62"
     sodipodi:linespacing="125%"
     style="font-size:208.33000183px;line-height:125%;letter-spacing:0;word-spacing:0;font-family:Gentium Book Basic">
    <tspan
       x="277.98999"
       y="535.94006"
       id="tspan64" />
  </text>
  <g
     style="fill:#000000;opacity:0.25"
     id="g3197"
     clip-path="url(#clipPath3337)">
    <path
       inkscape:connector-curvature="0"
       d="m 98.30803,194.30026 c 34.5303,-30.98216 65.35601,-84.97693 101.1436,-73.75983 l 388.90873,388.90873 c -35.78759,-11.2171 -66.6133,42.77767 -101.1436,73.75983 z"
       id="path3199"
       style="fill:#000000" />
    <path
       inkscape:connector-curvature="0"
       d="m 199.45163,120.54043 c 8.01867,2.07537 14.48477,5.94396 19.75484,11.21403 L 608.1152,520.66319 c -5.27007,-5.27007 -11.73617,-9.13866 -19.75484,-11.21403 z"
       id="path3201"
       style="fill:#000000" />
    <path
       inkscape:connector-curvature="0"
       d="m 219.20647,131.75446 c 33.70958,33.70958 18.48477,124.75961 47.63314,170.63016 L 655.74834,691.29335 C 626.59997,645.4228 641.82478,554.37277 608.1152,520.66319 z"
       id="path3203"
       style="fill:#000000" />
    <path
       inkscape:connector-curvature="0"
       d="m 266.83961,302.38462 c 46.15702,-26.02975 76.10186,-80.78592 63.66159,-109.19374 l 388.90873,388.90873 c 12.44027,28.40782 -17.50457,83.16399 -63.66159,109.19374 z"
       id="path3205"
       style="fill:#000000" />
    <path
       inkscape:connector-curvature="0"
       d="m 330.5012,193.19088 c -1.34772,-3.84655 -1.2479,-10.47734 -5.09524,-14.32467 l 388.90873,388.90873 c 3.84734,3.84733 3.74752,10.47812 5.09524,14.32467 z"
       id="path3207"
       style="fill:#000000" />
    <path
       inkscape:connector-curvature="0"
       d="m 325.40596,178.86621 c -4.09444,-4.09444 -12.65937,-5.03639 -32.19714,3.88508 l 388.90873,388.90873 c 19.53777,-8.92147 28.1027,-7.97953 32.19714,-3.88508 z"
       id="path3209"
       style="fill:#000000" />
    <path
       inkscape:connector-curvature="0"
       d="m 293.20882,182.75129 c -2.7359,1.24913 -4.67966,0.8046 -6.02303,-0.53876 l 388.90873,388.90873 c 1.34337,1.34336 3.28713,1.78789 6.02303,0.53876 z"
       id="path3211"
       style="fill:#000000" />
    <path
       inkscape:connector-curvature="0"
       d="m 287.18579,182.21253 c -3.48604,-3.48605 -2.92892,-13.02493 -1.67913,-14.72713 l 388.90873,388.90873 c -1.24979,1.7022 -1.80691,11.24108 1.67913,14.72713 z"
       id="path3213"
       style="fill:#000000" />
    <path
       inkscape:connector-curvature="0"
       d="m 285.50666,167.4854 c 35.08309,-38.55157 55.34595,-54.6348 79.35416,-53.64868 l 388.90873,388.90873 c -24.00821,-0.98612 -44.27107,15.09711 -79.35416,53.64868 z"
       id="path3215"
       style="fill:#000000" />
    <path
       inkscape:connector-curvature="0"
       d="m 364.86082,113.83672 c 8.82352,1.47404 20.5724,6.63703 30.4601,16.52472 l 388.90873,388.90873 c -9.8877,-9.88769 -21.63658,-15.05068 -30.4601,-16.52472 z"
       id="path3217"
       style="fill:#000000" />
    <path
       inkscape:connector-curvature="0"
       d="m 395.32092,130.36144 c 12.73612,12.73613 22.38426,33.31122 18.71501,63.93882 l 388.90873,388.90873 c 3.66925,-30.6276 -5.97889,-51.20269 -18.71501,-63.93882 z"
       id="path3219"
       style="fill:#000000" />
    <path
       inkscape:connector-curvature="0"
       d="M 414.03593,194.30026 C 400.5242,275.25686 281.6589,402.3904 241.92019,397.70633 l 388.90873,388.90873 c 39.73871,4.68407 158.60401,-122.44947 172.11574,-203.40607 z"
       id="path3221"
       style="fill:#000000" />
    <path
       inkscape:connector-curvature="0"
       d="m 241.92019,397.70633 c -8.30449,1.83203 -15.86361,-1.46022 -22.8809,-8.47751 l 388.90873,388.90873 c 7.01729,7.01729 14.57641,10.30954 22.8809,8.47751 z"
       id="path3223"
       style="fill:#000000" />
    <path
       inkscape:connector-curvature="0"
       d="m 219.03929,389.22882 c -31.41894,-31.41894 -51.9761,-137.51285 -79.941,-192.69083 l 388.90873,388.90873 c 27.9649,55.17798 48.52206,161.27189 79.941,192.69083 z"
       id="path3225"
       style="fill:#000000" />
    <path
       inkscape:connector-curvature="0"
       d="m 139.09829,196.53799 -31.29981,12.1122 388.90873,388.90873 31.29981,-12.1122 z"
       id="path3227"
       style="fill:#000000" />
    <path
       inkscape:connector-curvature="0"
       d="m 107.79848,208.65019 c -4.73867,0.74682 -7.49635,0.10691 -9.008297,-1.40504 L 487.69891,596.15388 c 1.51195,1.51195 4.26963,2.15186 9.0083,1.40504 z"
       id="path3229"
       style="fill:#000000" />
    <path
       inkscape:connector-curvature="0"
       d="m 98.790183,207.24515 c -2.603749,-2.60375 -1.513066,-7.79368 -0.483102,-12.9411 L 487.21581,583.21278 c -1.02996,5.14742 -2.12065,10.33735 0.4831,12.9411 z"
       id="path3231"
       style="fill:#000000" />
  </g>
  <path
     id="path3050"
     d="m 98.30803,194.30026 c 34.5303,-30.98216 65.35601,-84.97693 101.1436,-73.75983 59.30939,15.35028 33.68262,128.80235 67.38798,181.84419 46.15702,-26.02975 76.10186,-80.78592 63.66159,-109.19374 -2.782,-7.94016 0.604,-27.74409 -37.29238,-10.43959 -9.83559,4.49063 -9.43356,-12.90774 -7.70216,-15.26589 35.08309,-38.55157 55.34595,-54.6348 79.35416,-53.64868 20.1889,3.37272 55.69298,26.0582 49.17511,80.46354 C 400.5242,275.25686 281.6589,402.3904 241.92019,397.70633 196.43354,407.74104 173.30904,264.03975 139.09829,196.53799 l -31.29981,12.1122 c -12.899199,2.03293 -11.119444,-6.2097 -9.491399,-14.34614"
     inkscape:connector-curvature="0"
     style="fill:#ffffff" />
</svg>
