<?xml version="1.0" encoding="UTF-8" standalone="no"?>
<!-- Created with Inkscape (http://www.inkscape.org/) -->

<svg
   xmlns:dc="http://purl.org/dc/elements/1.1/"
   xmlns:cc="http://creativecommons.org/ns#"
   xmlns:rdf="http://www.w3.org/1999/02/22-rdf-syntax-ns#"
   xmlns:svg="http://www.w3.org/2000/svg"
   xmlns="http://www.w3.org/2000/svg"
   xmlns:inkscape="http://www.inkscape.org/namespaces/inkscape"
   version="1.1"
   width="100%"
   height="100%"
   viewBox="0 0 512 512"
   id="svg2">
  <metadata
     id="metadata70">
    <rdf:RDF>
      <cc:Work
         rdf:about="">
        <dc:format>image/svg+xml</dc:format>
        <dc:type
           rdf:resource="http://purl.org/dc/dcmitype/StillImage" />
        <dc:title />
      </cc:Work>
    </rdf:RDF>
  </metadata>
  <defs
     id="defs68" />
  <path
     d="m 471.9456,253.05189 c 0,120.89699 -98.00565,218.90724 -218.90724,218.90724 -120.89698,0 -218.90723,-98.00566 -218.90723,-218.90724 0,-120.89698 98.00565,-218.907232 218.90723,-218.907232 120.89699,0 218.90724,98.005652 218.90724,218.907232"
     inkscape:connector-curvature="0"
     id="path8"
     style="fill:#5c805a;fill-rule:evenodd" />
  <path
     d="M 256,1 C 115.17,1 1,115.17 1,256 1,396.83 115.17,511 256,511 396.83,511 511,396.83 511,256 511,115.17 396.83,1 256,1 m 8.827,44.931 c 120.9,0 218.9,98 218.9,218.9 0,120.9 -98,218.9 -218.9,218.9 -120.9,0 -218.93,-98 -218.93,-218.9 0,-120.9 98.03,-218.9 218.93,-218.9"
     inkscape:connector-curvature="0"
     id="path10"
     style="fill-opacity:0.06700003;fill-rule:evenodd" />
  <path
     d="M 256,4.43 C 117.06,4.43 4.43,117.06 4.43,256 4.43,394.94 117.06,507.57 256,507.57 394.94,507.57 507.57,394.94 507.57,256 507.57,117.06 394.94,4.43 256,4.43 m 5.885,38.556 c 120.9,0 218.9,98 218.9,218.9 0,120.9 -98,218.9 -218.9,218.9 -120.9,0 -218.93,-98 -218.93,-218.9 0,-120.9 98.03,-218.9 218.93,-218.9"
     inkscape:connector-curvature="0"
     id="path14"
     style="fill-opacity:0.12900002;fill-rule:evenodd" />
  <path
     d="M 256,8.36 C 119.23,8.36 8.36,119.23 8.36,256 8.36,392.77 119.23,503.64 256,503.64 392.77,503.64 503.64,392.77 503.64,256 503.64,119.23 392.77,8.36 256,8.36 m 2.942,31.691 c 120.9,0 218.9,98 218.9,218.9 0,120.9 -98,218.9 -218.9,218.9 -120.9,0 -218.93,-98 -218.93,-218.9 0,-120.9 98.03,-218.9 218.93,-218.9"
     inkscape:connector-curvature="0"
     id="path16"
     style="fill-opacity:0.12900002;fill-rule:evenodd" />
  <path
     d="M 253.04,7.86 C 117.62,7.86 7.85,117.64 7.85,253.05 c 0,135.42 109.78,245.19 245.19,245.19 135.42,0 245.19,-109.78 245.19,-245.19 C 498.23,117.63 388.45,7.86 253.04,7.86 z m 0,26.297 c 120.9,0 218.9,98 218.9,218.9 0,120.9 -98,218.9 -218.9,218.9 -120.9,0 -218.93,-98 -218.93,-218.9 0,-120.9 98.03,-218.9 218.93,-218.9 z"
     inkscape:connector-curvature="0"
     id="path18"
     style="fill:#ffffff;fill-rule:evenodd;stroke:#000000;stroke-width:4.90399981;stroke-opacity:0.31000001" />
  <text
     x="729.64001"
     y="231.35997"
     id="text20"
     style="font-size:129.22999573px;line-height:125%;letter-spacing:0;word-spacing:0;font-family:Gentium Book Basic">
    <tspan
       x="729.64001"
       y="231.35997"
       id="tspan22" />
  </text>
  <text
     x="378.90805"
     y="579.25812"
     transform="scale(4.0128205,0.24920128)"
     id="text24"
     style="font-size:46.95375824px;text-anchor:middle;font-family:Arial" />
  <text
     x="1310.91"
     y="151.35997"
     id="text26"
     style="font-size:129.22999573px;line-height:125%;letter-spacing:0;word-spacing:0;font-family:Gentium Book Basic">
    <tspan
       x="1310.91"
       y="151.35997"
       id="tspan28" />
  </text>
  <text
     x="523.75732"
     y="258.21997"
     transform="scale(4.0128205,0.24920128)"
     id="text30"
     style="font-size:46.95375824px;text-anchor:middle;font-family:Arial" />
  <text
     x="239.33"
     y="-29.900009"
     id="text32"
     style="font-size:129.22999573px;line-height:125%;letter-spacing:0;word-spacing:0;font-family:Gentium Book Basic">
    <tspan
       x="239.33"
       y="-29.900009"
       id="tspan34" />
  </text>
  <text
     x="256.71869"
     y="-469.1264"
     transform="scale(4.0128205,0.24920128)"
     id="text36"
     style="font-size:46.95375824px;text-anchor:middle;font-family:Arial" />
  <text
     x="1337.38"
     y="-246.37001"
     id="text38"
     style="font-size:129.22999573px;line-height:125%;letter-spacing:0;word-spacing:0;font-family:Gentium Book Basic">
    <tspan
       x="1337.38"
       y="-246.37001"
       id="tspan40" />
  </text>
  <text
     x="530.3573"
     y="-1337.802"
     transform="scale(4.0128205,0.24920128)"
     id="text42"
     style="font-size:46.95375824px;text-anchor:middle;font-family:Arial" />
  <text
     x="1918.65"
     y="-326.37"
     id="text44"
     style="font-size:129.22999573px;line-height:125%;letter-spacing:0;word-spacing:0;font-family:Gentium Book Basic">
    <tspan
       x="1918.65"
       y="-326.37"
       id="tspan46" />
  </text>
  <text
     x="675.20654"
     y="-1658.8303"
     transform="scale(4.0128205,0.24920128)"
     id="text48"
     style="font-size:46.95375824px;text-anchor:middle;font-family:Arial" />
  <text
     x="1529.53"
     y="-798.77002"
     id="text50"
     style="font-size:129.22999573px;line-height:125%;letter-spacing:0;word-spacing:0;font-family:Gentium Book Basic">
    <tspan
       x="1529.53"
       y="-798.77002"
       id="tspan52" />
  </text>
  <text
     x="578.237"
     y="-3554.4807"
     transform="scale(4.0128205,0.24920128)"
     id="text54"
     style="font-size:46.95375824px;text-anchor:middle;font-family:Arial" />
  <text
     x="2110.79"
     y="-878.78003"
     id="text56"
     style="font-size:129.22999573px;line-height:125%;letter-spacing:0;word-spacing:0;font-family:Gentium Book Basic">
    <tspan
       x="2110.79"
       y="-878.78003"
       id="tspan58" />
  </text>
  <text
     x="723.0863"
     y="-3875.519"
     transform="scale(4.0128205,0.24920128)"
     id="text60"
     style="font-size:46.95375824px;text-anchor:middle;font-family:Arial" />
  <text
     x="277.98999"
     y="535.94006"
     id="text62"
     style="font-size:208.33000183px;line-height:125%;letter-spacing:0;word-spacing:0;font-family:Gentium Book Basic">
    <tspan
       x="277.98999"
       y="535.94006"
       id="tspan64" />
  </text>
  <path
     d="m 127.0625,129.53125 c -11,0 -19.84375,9.31402 -19.84375,20.875 l 0,21.34375 c 0,5.97279 2.35744,11.35745 6.15625,15.15625 l 37.5625,37.5625 -23.875,0 c -11,0 -19.84375,9.28277 -19.84375,20.84375 l 0,21.375 c 0,5.9648 2.36638,11.33513 6.15625,15.125 l 37.59375,37.59375 -23.90625,0 c -11,0 -19.84375,9.28278 -19.84375,20.84375 l 0,21.34375 c 0,5.97279 2.35744,11.35744 6.15625,15.15625 l 89.40625,89.40625 c 16.13626,3.79044 32.95741,5.8125 50.25,5.8125 120.90159,0 218.90625,-98.00926 218.90625,-218.90625 0,-17.3153 -2.01252,-34.1571 -5.8125,-50.3125 l -67.5,-67.5 c -3.55419,-3.55419 -8.37047,-5.71875 -13.6875,-5.71875 l -257.875,0 z"
     inkscape:connector-curvature="0"
     id="path3587"
     style="opacity:0.25;color:#000000;fill:#000000;fill-opacity:1;fill-rule:evenodd;stroke:none;stroke-width:1px;marker:none;visibility:visible" />
  <path
     d="m 127.0625,129.53125 c -11,0 -19.84375,9.31402 -19.84375,20.875 l 0,21.34375 c 0,11.56097 8.84375,20.875 19.84375,20.875 l 257.875,0 c 11.00001,0 19.84375,-9.31403 19.84375,-20.875 l 0,-21.34375 c 0,-11.56098 -8.84374,-20.875 -19.84375,-20.875 l -257.875,0 z m 94.40625,9.0625 c 3.98471,0 7.1875,3.37458 7.1875,7.5625 l 0,29.84375 c 0,4.18792 -3.20279,7.5625 -7.1875,7.5625 -3.98471,0 -7.1875,-3.37458 -7.1875,-7.5625 l 0,-29.84375 c 0,-4.18792 3.20279,-7.5625 7.1875,-7.5625 z m 30.3125,0 c 3.98471,0 7.1875,3.37458 7.1875,7.5625 l 0,29.84375 c 0,4.18792 -3.20279,7.5625 -7.1875,7.5625 -3.98471,0 -7.1875,-3.37458 -7.1875,-7.5625 l 0,-29.84375 c 0,-4.18792 3.20279,-7.5625 7.1875,-7.5625 z m 30.28125,0 c 3.98471,0 7.1875,3.37458 7.1875,7.5625 l 0,29.84375 c 0,4.18792 -3.20279,7.5625 -7.1875,7.5625 -3.98471,0 -7.1875,-3.37458 -7.1875,-7.5625 l 0,-29.84375 c 0,-4.18792 3.20279,-7.5625 7.1875,-7.5625 z m 30.28125,0 c 3.98471,0 7.21875,3.37458 7.21875,7.5625 l 0,29.84375 c 0,4.18792 -3.23404,7.5625 -7.21875,7.5625 -3.98471,0 -7.15625,-3.37458 -7.15625,-7.5625 l 0,-29.84375 c 0,-4.18792 3.17154,-7.5625 7.15625,-7.5625 z m -166.5,8.65625 c 7.26376,0 13.15625,6.20955 13.15625,13.84375 0,7.63419 -5.89249,13.8125 -13.15625,13.8125 -7.26376,0 -13.15625,-6.17831 -13.15625,-13.8125 0,-7.6342 5.89249,-13.84375 13.15625,-13.84375 z m -18.78125,77.21875 c -11,0 -19.84375,9.28277 -19.84375,20.84375 l 0,21.375 c 0,11.56098 8.84375,20.84375 19.84375,20.84375 l 257.875,0 c 11.00001,0 19.84375,-9.28277 19.84375,-20.84375 l 0,-21.375 c 0,-11.56098 -8.84374,-20.84375 -19.84375,-20.84375 l -257.875,0 z m 94.40625,9.0625 c 3.98471,0 7.1875,3.37457 7.1875,7.5625 l 0,29.8125 c 0,4.18792 -3.20279,7.5625 -7.1875,7.5625 -3.98471,0 -7.1875,-3.37458 -7.1875,-7.5625 l 0,-29.8125 c 0,-4.18793 3.20279,-7.5625 7.1875,-7.5625 z m 30.3125,0 c 3.98471,0 7.1875,3.37457 7.1875,7.5625 l 0,29.8125 c 0,4.18792 -3.20279,7.5625 -7.1875,7.5625 -3.98471,0 -7.1875,-3.37458 -7.1875,-7.5625 l 0,-29.8125 c 0,-4.18793 3.20279,-7.5625 7.1875,-7.5625 z m 30.28125,0 c 3.98471,0 7.1875,3.37457 7.1875,7.5625 l 0,29.8125 c 0,4.18792 -3.20279,7.5625 -7.1875,7.5625 -3.98471,0 -7.1875,-3.37458 -7.1875,-7.5625 l 0,-29.8125 c 0,-4.18793 3.20279,-7.5625 7.1875,-7.5625 z m 30.28125,0 c 3.98471,0 7.21875,3.37457 7.21875,7.5625 l 0,29.8125 c 0,4.18792 -3.23404,7.5625 -7.21875,7.5625 -3.98471,0 -7.15625,-3.37458 -7.15625,-7.5625 l 0,-29.8125 c 0,-4.18793 3.17154,-7.5625 7.15625,-7.5625 z m -166.5,8.65625 C 153.10751,242.1875 159,248.3658 159,256 c 0,7.6342 -5.89249,13.8125 -13.15625,13.8125 -7.26376,0 -13.15625,-6.1783 -13.15625,-13.8125 0,-7.6342 5.89249,-13.8125 13.15625,-13.8125 z m -18.78125,77.21875 c -11,0 -19.84375,9.28278 -19.84375,20.84375 l 0,21.34375 c 0,11.56098 8.84375,20.875 19.84375,20.875 l 257.875,0 c 11.00001,0 19.84375,-9.31402 19.84375,-20.875 l 0,-21.34375 c 0,-11.56097 -8.84374,-20.84375 -19.84375,-20.84375 l -257.875,0 z m 94.40625,9.0625 c 3.98471,0 7.1875,3.37458 7.1875,7.5625 l 0,29.8125 c 0,4.18792 -3.20279,7.5625 -7.1875,7.5625 -3.98471,0 -7.1875,-3.37458 -7.1875,-7.5625 l 0,-29.8125 c 0,-4.18792 3.20279,-7.5625 7.1875,-7.5625 z m 30.3125,0 c 3.98471,0 7.1875,3.37458 7.1875,7.5625 l 0,29.8125 c 0,4.18792 -3.20279,7.5625 -7.1875,7.5625 -3.98471,0 -7.1875,-3.37458 -7.1875,-7.5625 l 0,-29.8125 c 0,-4.18792 3.20279,-7.5625 7.1875,-7.5625 z m 30.28125,0 c 3.98471,0 7.1875,3.37458 7.1875,7.5625 l 0,29.8125 c 0,4.18792 -3.20279,7.5625 -7.1875,7.5625 -3.98471,0 -7.1875,-3.37458 -7.1875,-7.5625 l 0,-29.8125 c 0,-4.18792 3.20279,-7.5625 7.1875,-7.5625 z m 30.28125,0 c 3.98471,0 7.21875,3.37458 7.21875,7.5625 l 0,29.8125 c 0,4.18792 -3.23404,7.5625 -7.21875,7.5625 -3.98471,0 -7.15625,-3.37458 -7.15625,-7.5625 l 0,-29.8125 c 0,-4.18792 3.17154,-7.5625 7.15625,-7.5625 z m -166.5,8.65625 c 7.26376,0 13.15625,6.1783 13.15625,13.8125 0,7.6342 -5.89249,13.8125 -13.15625,13.8125 -7.26376,0 -13.15625,-6.1783 -13.15625,-13.8125 0,-7.6342 5.89249,-13.8125 13.15625,-13.8125 z"
     inkscape:connector-curvature="0"
     id="rect3476"
     style="color:#000000;fill:#ffffff;fill-opacity:1;fill-rule:evenodd;stroke:none;stroke-width:1px;marker:none;visibility:visible;display:inline;overflow:visible;enable-background:accumulate" />
</svg>
