<?xml version="1.0" encoding="UTF-8" standalone="no"?>
<!-- Created with Inkscape (http://www.inkscape.org/) -->

<svg
   xmlns:dc="http://purl.org/dc/elements/1.1/"
   xmlns:cc="http://creativecommons.org/ns#"
   xmlns:rdf="http://www.w3.org/1999/02/22-rdf-syntax-ns#"
   xmlns:svg="http://www.w3.org/2000/svg"
   xmlns="http://www.w3.org/2000/svg"
   xmlns:inkscape="http://www.inkscape.org/namespaces/inkscape"
   version="1.1"
   width="100%"
   height="100%"
   viewBox="0 0 512 512"
   id="svg2">
  <metadata
     id="metadata38">
    <rdf:RDF>
      <cc:Work
         rdf:about="">
        <dc:format>image/svg+xml</dc:format>
        <dc:type
           rdf:resource="http://purl.org/dc/dcmitype/StillImage" />
      </cc:Work>
    </rdf:RDF>
  </metadata>
  <defs
     id="defs36" />
  <g
     transform="translate(0,-540.36)"
     id="g4">
    <path
       d="m 280,423.79 c 0,78.898 -63.959,142.86 -142.86,142.86 -78.898,0 -142.86,-63.959 -142.86,-142.86 0,-78.898 63.959,-142.86 142.86,-142.86 78.898,0 142.86,63.959 142.86,142.86"
       inkscape:connector-curvature="0"
       transform="matrix(1.53232,0,0,1.53232,42.896,144.03)"
       id="path6"
       style="fill:#f38725;fill-rule:evenodd" />
    <path
       d="m 255.28,101.38 c -4.9,0.024 -9.593,3.275 -19.375,9.625 l -20.531,79.56 h 1.25 c -0.006,0.025 -0.25,1 -0.25,1 h 1.25 c -0.006,0.025 -0.25,1 -0.25,1 h 1.25 c -0.006,0.025 -0.25,1 -0.25,1 h 1.219 l -0.25,0.969 h 1.25 c -0.006,0.025 -0.25,1 -0.25,1 h 1.25 c -0.006,0.025 -0.25,1 -0.25,1 h 1.25 c -0.006,0.025 -0.25,1 -0.25,1 h 1.25 c -0.006,0.025 -0.25,1 -0.25,1 h 1.25 c -0.006,0.025 -0.25,1 -0.25,1 h 1.219 l -0.25,0.969 h 1.25 c -0.006,0.025 -0.25,1 -0.25,1 h 1.25 c -0.006,0.025 -0.25,1 -0.25,1 h 1.25 c -0.006,0.025 -0.25,1 -0.25,1 h 1.25 c -0.006,0.025 -0.25,1 -0.25,1 h 1.25 c -0.006,0.025 -0.25,1 -0.25,1 h 1.219 l -0.25,0.969 h 1.25 c -0.006,0.025 -0.25,1 -0.25,1 h 1.25 c -0.006,0.025 -0.25,1 -0.25,1 h 1.25 c -0.006,0.025 -0.25,1 -0.25,1 h 1.25 c -0.006,0.025 -0.25,1 -0.25,1 h 1.25 c -0.006,0.025 -0.25,1 -0.25,1 h 1.219 l -0.25,0.969 h 0.031 1.219 c -0.006,0.025 -0.25,1 -0.25,1 h 1.25 c -0.006,0.025 -0.25,1 -0.25,1 h 1.25 c -0.006,0.025 -0.25,1 -0.25,1 h 1.25 c -0.006,0.025 -0.25,1 -0.25,1 h 1.25 c -0.006,0.025 -0.25,1 -0.25,1 h 1.25 c -0.006,0.025 -0.25,1 -0.25,1 h 1.219 l -0.25,0.969 h 1.25 c -0.006,0.025 -0.25,1 -0.25,1 h 1.25 c -0.006,0.025 -0.25,1 -0.25,1 h 1.25 c -0.006,0.025 -0.25,1 -0.25,1 h 1.25 l -0.25,1 h 1.25 c -0.006,0.025 -0.25,1 -0.25,1 h 1.219 l -0.25,0.969 h 1.25 c -0.006,0.025 -0.25,1 -0.25,1 h 1.25 v 0.031 l -46.34,-0.031 -7.656,29.563 h 1.25 l -0.219,0.844 -0.031,0.156 h 1.25 l -0.188,0.688 c 0,10e-4 -0.063,0.313 -0.063,0.313 h 1.219 l -0.125,0.531 c 0,0.002 -0.094,0.469 -0.094,0.469 h 1.219 l -0.094,0.406 c -0.001,0.002 -0.156,0.563 -0.156,0.563 h 1.25 l -0.063,0.281 c -0.001,0.003 -0.188,0.719 -0.188,0.719 h 1.25 l -0.031,0.125 c -10e-4,0.003 -0.219,0.875 -0.219,0.875 h 1.25 c -0.015,0.059 -0.25,1 -0.25,1 h 1.25 c -0.068,0.263 -0.25,1 -0.25,1 h 1.25 c -0.097,0.376 -0.25,1 -0.25,1 h 1.25 c -0.113,0.436 -0.281,0.969 -0.281,0.969 h 1.281 c -0.122,0.471 -0.281,1 -0.281,1 h 1.281 c -0.128,0.494 -0.281,1 -0.281,1 h 1.25 c -0.129,0.498 -0.25,1 -0.25,1 h 1.25 c -0.129,0.497 -0.25,1 -0.25,1 h 1.25 c -0.127,0.491 -0.25,1 -0.25,1 h 1.219 c -0.122,0.469 -0.25,0.969 -0.25,0.969 h 1.25 c -0.123,0.477 -0.25,1 -0.25,1 h 1.25 c -0.12,0.465 -0.25,1 -0.25,1 h 1.25 c -0.119,0.46 -0.25,1 -0.25,1 h 1.25 c -0.116,0.448 -0.25,1 -0.25,1 h 1.25 c -0.113,0.435 -0.25,1 -0.25,1 h 1.219 c -0.106,0.408 -0.25,0.969 -0.25,0.969 h 1.25 c -0.108,0.415 -0.25,1 -0.25,1 h 1.25 c -0.104,0.404 -0.25,1 -0.25,1 h 1.25 c -0.102,0.392 -0.25,1 -0.25,1 h 1.25 c -0.098,0.38 -0.25,1 -0.25,1 h 1.25 c -0.097,0.374 -0.25,1 -0.25,1 h 1.25 c -0.094,0.364 -0.25,1 -0.25,1 h 1.219 c -0.088,0.34 -0.25,0.969 -0.25,0.969 h 1.25 c -0.09,0.348 -0.25,1 -0.25,1 h 1.25 c -0.088,0.339 -0.25,1 -0.25,1 h 1.25 c -0.086,0.331 -0.25,1 -0.25,1 h 1.25 c -0.084,0.323 -0.25,1 -0.25,1 h 1.25 c -0.082,0.318 -0.25,1 -0.25,1 h 1.219 c -0.077,0.297 -0.25,0.969 -0.25,0.969 h 1.25 c -0.079,0.305 -0.25,1 -0.25,1 h 1.25 c -0.044,0.169 -0.135,0.48 -0.156,0.563 l -46.25,-0.031 -11.938,46.25 c 0.115,0.066 0.229,0.122 0.344,0.188 h -24.625 -5.813 l -2.719,5.125 c 0,0 -11.705,22.06 -29.28,52.25 l -8.438,14.5 h 1.594 l -0.594,1 h 1.594 c -0.075,0.13 -0.594,1 -0.594,1 h 1.594 c -0.075,0.13 -0.594,1 -0.594,1 h 1.531 c -0.07,0.121 -0.563,0.969 -0.563,0.969 h 1.594 c -0.075,0.13 -0.594,1 -0.594,1 h 1.594 c -0.075,0.13 -0.594,1 -0.594,1 h 1.594 c -0.075,0.13 -0.594,1 -0.594,1 h 1.594 c -0.075,0.13 -0.594,1 -0.594,1 h 1.594 c -0.075,0.13 -0.594,1 -0.594,1 h 1.531 c -0.07,0.121 -0.563,0.969 -0.563,0.969 h 1.594 c -0.075,0.13 -0.594,1 -0.594,1 h 1.594 c -0.075,0.13 -0.594,1 -0.594,1 h 1.594 c -0.075,0.13 -0.594,1 -0.594,1 h 1.594 c -0.075,0.13 -0.594,1 -0.594,1 h 1.594 c -0.075,0.13 -0.594,1 -0.594,1 h 1.531 c -0.07,0.121 -0.563,0.969 -0.563,0.969 h 1.594 c -0.075,0.13 -0.594,1 -0.594,1 h 1.594 c -0.075,0.13 -0.594,1 -0.594,1 h 1.594 c -0.075,0.13 -0.594,1 -0.594,1 h 1.594 c -0.075,0.13 -0.594,1 -0.594,1 h 1.594 c -0.075,0.13 -0.594,1 -0.594,1 h 1.531 c -0.07,0.121 -0.563,0.969 -0.563,0.969 h 0.031 1.563 c -0.075,0.13 -0.594,1 -0.594,1 h 1.594 c -0.075,0.13 -0.594,1 -0.594,1 0.007,0.005 0.024,-0.005 0.031,0 h 1.563 c -0.056,0.097 -0.287,0.498 -0.438,0.75 0.125,0.083 0.25,0.167 0.375,0.25 h 1.063 c -0.038,0.066 -0.172,0.263 -0.313,0.5 0.251,0.165 0.499,0.336 0.75,0.5 h 0.563 c -0.019,0.033 -0.096,0.148 -0.156,0.25 0.378,0.245 0.746,0.507 1.125,0.75 h 0.031 c 34.04,21.82 74.5,34.5 117.94,34.5 104.17,0 191.34,-72.78 213.47,-170.25 -0.099,-0.058 -0.197,-0.118 -0.313,-0.188 -0.001,-0.005 -0.125,-0.469 -0.125,-0.469 -0.332,-0.199 -0.554,-0.338 -0.875,-0.531 -0.001,-0.005 -0.125,-0.469 -0.125,-0.469 -0.332,-0.199 -0.554,-0.338 -0.875,-0.531 -0.001,-0.005 -0.125,-0.469 -0.125,-0.469 -0.333,-0.2 -0.553,-0.338 -0.875,-0.531 -0.001,-0.005 -0.125,-0.469 -0.125,-0.469 -0.334,-0.201 -0.552,-0.337 -0.875,-0.531 -0.001,-0.005 -0.125,-0.469 -0.125,-0.469 -0.334,-0.201 -0.552,-0.337 -0.875,-0.531 -0.001,-0.005 -0.125,-0.469 -0.125,-0.469 -0.32,-0.192 -0.534,-0.314 -0.844,-0.5 -0.001,-0.005 -0.125,-0.469 -0.125,-0.469 -0.332,-0.199 -0.554,-0.338 -0.875,-0.531 -0.001,-0.005 -0.125,-0.469 -0.125,-0.469 -0.332,-0.199 -0.554,-0.338 -0.875,-0.531 -0.001,-0.005 -0.125,-0.469 -0.125,-0.469 -0.333,-0.2 -0.553,-0.338 -0.875,-0.531 -0.001,-0.005 -0.125,-0.469 -0.125,-0.469 -0.334,-0.201 -0.552,-0.337 -0.875,-0.531 -0.001,-0.005 -0.125,-0.469 -0.125,-0.469 -0.334,-0.201 -0.552,-0.337 -0.875,-0.531 -0.001,-0.005 -0.125,-0.469 -0.125,-0.469 -0.32,-0.192 -0.534,-0.314 -0.844,-0.5 -0.001,-0.005 -0.125,-0.469 -0.125,-0.469 l -0.031,-0.031 c -0.32,-0.192 -0.534,-0.314 -0.844,-0.5 -0.001,-0.005 -0.125,-0.469 -0.125,-0.469 -0.332,-0.199 -0.554,-0.338 -0.875,-0.531 -0.001,-0.005 -0.125,-0.469 -0.125,-0.469 -0.333,-0.2 -0.553,-0.338 -0.875,-0.531 -0.001,-0.005 -0.125,-0.469 -0.125,-0.469 -0.334,-0.201 -0.552,-0.337 -0.875,-0.531 -0.001,-0.005 -0.125,-0.469 -0.125,-0.469 -0.334,-0.201 -0.552,-0.337 -0.875,-0.531 -0.001,-0.005 -0.125,-0.469 -0.125,-0.469 -0.334,-0.201 -0.552,-0.337 -0.875,-0.531 -0.001,-0.005 -0.125,-0.469 -0.125,-0.469 -0.32,-0.192 -0.534,-0.314 -0.844,-0.5 -0.001,-0.005 -0.125,-0.469 -0.125,-0.469 -0.332,-0.199 -0.554,-0.338 -0.875,-0.531 -0.001,-0.005 -0.125,-0.469 -0.125,-0.469 -0.333,-0.2 -0.553,-0.338 -0.875,-0.531 -0.001,-0.005 -0.125,-0.469 -0.125,-0.469 -0.334,-0.201 -0.552,-0.337 -0.875,-0.531 -0.001,-0.005 -0.125,-0.469 -0.125,-0.469 -0.334,-0.201 -0.552,-0.337 -0.875,-0.531 -0.001,-0.005 -0.125,-0.469 -0.125,-0.469 -0.334,-0.201 -0.552,-0.337 -0.875,-0.531 -0.001,-0.005 -0.125,-0.469 -0.125,-0.469 -0.32,-0.192 -0.534,-0.314 -0.844,-0.5 -10e-4,-0.005 -0.125,-0.469 -0.125,-0.469 -0.332,-0.199 -0.554,-0.338 -0.875,-0.531 -10e-4,-0.005 -0.125,-0.469 -0.125,-0.469 -0.332,-0.199 -0.554,-0.338 -0.875,-0.531 -10e-4,-0.005 -0.125,-0.469 -0.125,-0.469 -0.333,-0.2 -0.553,-0.338 -0.875,-0.531 -10e-4,-0.005 -0.125,-0.469 -0.125,-0.469 -0.334,-0.201 -0.552,-0.337 -0.875,-0.531 -10e-4,-0.005 -0.125,-0.469 -0.125,-0.469 -0.334,-0.201 -0.552,-0.337 -0.875,-0.531 l -0.125,-0.469 c -0.32,-0.192 -0.534,-0.314 -0.844,-0.5 l -0.125,-0.469 c -0.332,-0.199 -0.554,-0.338 -0.875,-0.531 l -0.125,-0.469 c -0.332,-0.199 -0.554,-0.338 -0.875,-0.531 l -0.125,-0.469 c -0.333,-0.2 -0.553,-0.338 -0.875,-0.531 l -0.125,-0.469 c -0.334,-0.201 -0.552,-0.337 -0.875,-0.531 l -0.125,-0.469 c -0.334,-0.201 -0.552,-0.337 -0.875,-0.531 l -0.125,-0.469 c -0.334,-0.201 -0.552,-0.337 -0.875,-0.531 l -0.125,-0.469 c -0.32,-0.192 -0.534,-0.314 -0.844,-0.5 l -0.125,-0.469 c -0.332,-0.199 -0.554,-0.338 -0.875,-0.531 -10e-4,-0.005 -0.125,-0.469 -0.125,-0.469 -0.333,-0.2 -0.553,-0.338 -0.875,-0.531 -10e-4,-0.005 -0.125,-0.469 -0.125,-0.469 -0.334,-0.201 -0.552,-0.337 -0.875,-0.531 -10e-4,-0.005 -0.125,-0.469 -0.125,-0.469 -0.334,-0.201 -0.552,-0.337 -0.875,-0.531 -10e-4,-0.005 -0.125,-0.469 -0.125,-0.469 -0.334,-0.201 -0.552,-0.337 -0.875,-0.531 -10e-4,-0.005 -0.125,-0.469 -0.125,-0.469 -0.32,-0.192 -0.534,-0.314 -0.844,-0.5 -10e-4,-0.005 -0.125,-0.469 -0.125,-0.469 -0.332,-0.199 -0.554,-0.338 -0.875,-0.531 -10e-4,-0.005 -0.125,-0.469 -0.125,-0.469 -0.332,-0.199 -0.554,-0.338 -0.875,-0.531 -10e-4,-0.006 -0.125,-0.469 -0.125,-0.469 -0.333,-0.2 -0.553,-0.338 -0.875,-0.531 -10e-4,-0.006 -0.125,-0.469 -0.125,-0.469 -0.334,-0.201 -0.552,-0.337 -0.875,-0.531 -10e-4,-0.006 -0.125,-0.469 -0.125,-0.469 -0.334,-0.201 -0.552,-0.337 -0.875,-0.531 -10e-4,-0.006 -0.125,-0.469 -0.125,-0.469 -0.32,-0.192 -0.534,-0.314 -0.844,-0.5 -10e-4,-0.006 -0.125,-0.469 -0.125,-0.469 -0.332,-0.199 -0.554,-0.338 -0.875,-0.531 -10e-4,-0.006 -0.125,-0.469 -0.125,-0.469 -0.332,-0.199 -0.554,-0.338 -0.875,-0.531 -10e-4,-0.006 -0.125,-0.469 -0.125,-0.469 -0.333,-0.2 -0.553,-0.338 -0.875,-0.531 -10e-4,-0.006 -0.125,-0.469 -0.125,-0.469 -0.334,-0.201 -0.552,-0.337 -0.875,-0.531 -10e-4,-0.006 -0.125,-0.469 -0.125,-0.469 -0.334,-0.201 -0.552,-0.337 -0.875,-0.531 -10e-4,-0.006 -0.125,-0.469 -0.125,-0.469 -0.32,-0.192 -0.534,-0.314 -0.844,-0.5 -10e-4,-0.006 -0.125,-0.469 -0.125,-0.469 h -0.031 c -0.319,-0.192 -0.534,-0.314 -0.844,-0.5 -0.002,-0.006 -0.125,-0.5 -0.125,-0.5 -0.332,-0.199 -0.554,-0.338 -0.875,-0.531 -10e-4,-0.006 -0.125,-0.469 -0.125,-0.469 -0.333,-0.2 -0.553,-0.338 -0.875,-0.531 -10e-4,-0.006 -0.125,-0.469 -0.125,-0.469 -0.334,-0.201 -0.552,-0.337 -0.875,-0.531 -10e-4,-0.006 -0.125,-0.469 -0.125,-0.469 -0.334,-0.201 -0.552,-0.337 -0.875,-0.531 -10e-4,-0.006 -0.125,-0.469 -0.125,-0.469 -0.334,-0.201 -0.552,-0.337 -0.875,-0.531 -10e-4,-0.006 -0.125,-0.469 -0.125,-0.469 -0.32,-0.192 -0.534,-0.314 -0.844,-0.5 -0.001,-0.006 -0.125,-0.469 -0.125,-0.469 -0.332,-0.199 -0.554,-0.338 -0.875,-0.531 -0.001,-0.006 -0.125,-0.469 -0.125,-0.469 -0.333,-0.2 -0.553,-0.338 -0.875,-0.531 -0.001,-0.006 -0.125,-0.469 -0.125,-0.469 -0.334,-0.201 -0.552,-0.337 -0.875,-0.531 -0.001,-0.006 -0.125,-0.469 -0.125,-0.469 -0.334,-0.201 -0.552,-0.337 -0.875,-0.531 -0.001,-0.006 -0.125,-0.469 -0.125,-0.469 -0.334,-0.201 -0.552,-0.337 -0.875,-0.531 -0.001,-0.006 -0.125,-0.469 -0.125,-0.469 -0.32,-0.192 -0.534,-0.314 -0.844,-0.5 -0.001,-0.006 -0.125,-0.469 -0.125,-0.469 -0.332,-0.199 -0.554,-0.338 -0.875,-0.531 l -0.125,-0.469 c -0.332,-0.199 -0.554,-0.338 -0.875,-0.531 l -0.125,-0.469 c -0.333,-0.2 -0.553,-0.338 -0.875,-0.531 l -0.125,-0.469 c -0.334,-0.201 -0.552,-0.337 -0.875,-0.531 l -0.125,-0.469 c -0.334,-0.201 -0.552,-0.337 -0.875,-0.531 l -0.125,-0.469 c -0.32,-0.192 -0.534,-0.314 -0.844,-0.5 l -0.125,-0.469 c -0.332,-0.199 -0.554,-0.338 -0.875,-0.531 l -0.125,-0.469 c -0.332,-0.199 -0.554,-0.338 -0.875,-0.531 l -0.125,-0.469 c -0.333,-0.2 -0.553,-0.338 -0.875,-0.531 -0.001,-0.006 -0.125,-0.469 -0.125,-0.469 -0.334,-0.201 -0.552,-0.337 -0.875,-0.531 -0.001,-0.006 -0.125,-0.469 -0.125,-0.469 -0.334,-0.201 -0.552,-0.337 -0.875,-0.531 -0.001,-0.006 -0.125,-0.469 -0.125,-0.469 -0.334,-0.201 -0.552,-0.337 -0.875,-0.531 -0.001,-0.006 -0.125,-0.469 -0.125,-0.469 -0.32,-0.192 -0.534,-0.314 -0.844,-0.5 -0.001,-0.006 -0.125,-0.469 -0.125,-0.469 -0.332,-0.199 -0.554,-0.338 -0.875,-0.531 -0.001,-0.006 -0.125,-0.469 -0.125,-0.469 -0.333,-0.2 -0.553,-0.338 -0.875,-0.531 -0.001,-0.006 -0.125,-0.469 -0.125,-0.469 -0.334,-0.201 -0.552,-0.337 -0.875,-0.531 -0.001,-0.006 -0.125,-0.469 -0.125,-0.469 -0.334,-0.201 -0.552,-0.337 -0.875,-0.531 -0.001,-0.006 -0.125,-0.469 -0.125,-0.469 -0.334,-0.201 -0.552,-0.337 -0.875,-0.531 -0.001,-0.006 -0.125,-0.469 -0.125,-0.469 -0.32,-0.192 -0.534,-0.314 -0.844,-0.5 -10e-4,-0.006 -0.125,-0.469 -0.125,-0.469 -0.332,-0.199 -0.554,-0.338 -0.875,-0.531 -10e-4,-0.006 -0.125,-0.469 -0.125,-0.469 -0.333,-0.2 -0.553,-0.338 -0.875,-0.531 -10e-4,-0.006 -0.125,-0.469 -0.125,-0.469 -0.333,-0.2 -0.553,-0.338 -0.875,-0.531 -10e-4,-0.006 -0.125,-0.469 -0.125,-0.469 -0.334,-0.201 -0.552,-0.337 -0.875,-0.531 -10e-4,-0.006 -0.125,-0.469 -0.125,-0.469 -0.334,-0.201 -0.552,-0.337 -0.875,-0.531 -10e-4,-0.006 -0.125,-0.469 -0.125,-0.469 -0.32,-0.192 -0.534,-0.314 -0.844,-0.5 -10e-4,-0.006 -0.125,-0.469 -0.125,-0.469 -0.332,-0.199 -0.554,-0.338 -0.875,-0.531 -10e-4,-0.006 -0.125,-0.469 -0.125,-0.469 -0.332,-0.199 -0.554,-0.338 -0.875,-0.531 -10e-4,-0.006 -0.125,-0.469 -0.125,-0.469 -0.333,-0.2 -0.553,-0.338 -0.875,-0.531 -10e-4,-0.006 -0.125,-0.469 -0.125,-0.469 -0.334,-0.201 -0.552,-0.337 -0.875,-0.531 -10e-4,-0.006 -0.125,-0.469 -0.125,-0.469 -0.334,-0.201 -0.552,-0.337 -0.875,-0.531 -10e-4,-0.006 -0.125,-0.469 -0.125,-0.469 -0.32,-0.192 -0.534,-0.314 -0.844,-0.5 -10e-4,-0.006 -0.125,-0.469 -0.125,-0.469 -0.332,-0.199 -0.554,-0.338 -0.875,-0.531 -10e-4,-0.006 -0.125,-0.469 -0.125,-0.469 -0.332,-0.199 -0.554,-0.338 -0.875,-0.531 -10e-4,-0.006 -0.125,-0.469 -0.125,-0.469 -0.333,-0.2 -0.553,-0.338 -0.875,-0.531 -10e-4,-0.006 -0.125,-0.469 -0.125,-0.469 -0.334,-0.201 -0.552,-0.337 -0.875,-0.531 -10e-4,-0.006 -0.125,-0.469 -0.125,-0.469 -0.334,-0.201 -0.552,-0.337 -0.875,-0.531 -10e-4,-0.006 -0.125,-0.469 -0.125,-0.469 -0.334,-0.201 -0.552,-0.337 -0.875,-0.531 -10e-4,-0.006 -0.125,-0.469 -0.125,-0.469 -0.32,-0.192 -0.534,-0.314 -0.844,-0.5 -10e-4,-0.006 -0.125,-0.469 -0.125,-0.469 -0.332,-0.199 -0.554,-0.338 -0.875,-0.531 -10e-4,-0.006 -0.125,-0.469 -0.125,-0.469 -0.333,-0.2 -0.553,-0.338 -0.875,-0.531 l -0.125,-0.469 c -0.334,-0.201 -0.552,-0.337 -0.875,-0.531 l -0.125,-0.469 c -0.334,-0.201 -0.552,-0.337 -0.875,-0.531 l -0.125,-0.469 c -0.334,-0.201 -0.552,-0.337 -0.875,-0.531 l -0.125,-0.469 c -0.32,-0.192 -0.534,-0.314 -0.844,-0.5 l -0.125,-0.469 c -0.332,-0.199 -0.554,-0.338 -0.875,-0.531 l -0.125,-0.469 c -0.332,-0.199 -0.554,-0.338 -0.875,-0.531 l -0.125,-0.469 c -0.333,-0.2 -0.553,-0.338 -0.875,-0.531 l -0.125,-0.469 c -0.334,-0.201 -0.552,-0.337 -0.875,-0.531 l -0.125,-0.469 c -0.334,-0.201 -0.552,-0.337 -0.875,-0.531 -10e-4,-0.006 -0.125,-0.469 -0.125,-0.469 -0.32,-0.192 -0.534,-0.314 -0.844,-0.5 -0.001,-0.006 -0.125,-0.469 -0.125,-0.469 -0.332,-0.199 -0.554,-0.338 -0.875,-0.531 -0.001,-0.006 -0.125,-0.469 -0.125,-0.469 -0.332,-0.199 -0.554,-0.338 -0.875,-0.531 -0.001,-0.006 -0.125,-0.469 -0.125,-0.469 -0.333,-0.2 -0.553,-0.338 -0.875,-0.531 -0.001,-0.006 -0.125,-0.469 -0.125,-0.469 -0.334,-0.201 -0.552,-0.337 -0.875,-0.531 -0.001,-0.006 -0.125,-0.469 -0.125,-0.469 -0.334,-0.201 -0.552,-0.337 -0.875,-0.531 -0.001,-0.006 -0.125,-0.469 -0.125,-0.469 -0.334,-0.201 -0.552,-0.337 -0.875,-0.531 -0.001,-0.006 -0.125,-0.469 -0.125,-0.469 -0.32,-0.192 -0.534,-0.314 -0.844,-0.5 -0.001,-0.006 -0.125,-0.469 -0.125,-0.469 -0.332,-0.199 -0.554,-0.338 -0.875,-0.531 -0.001,-0.006 -0.125,-0.469 -0.125,-0.469 -0.333,-0.2 -0.553,-0.338 -0.875,-0.531 -0.001,-0.006 -0.125,-0.469 -0.125,-0.469 -0.334,-0.201 -0.552,-0.337 -0.875,-0.531 -0.001,-0.006 -0.125,-0.469 -0.125,-0.469 -0.334,-0.201 -0.552,-0.337 -0.875,-0.531 -0.001,-0.006 -0.125,-0.469 -0.125,-0.469 -0.334,-0.201 -0.552,-0.337 -0.875,-0.531 -0.001,-0.006 -0.125,-0.469 -0.125,-0.469 -0.32,-0.192 -0.534,-0.314 -0.844,-0.5 -0.001,-0.006 -0.125,-0.469 -0.125,-0.469 -0.332,-0.199 -0.554,-0.338 -0.875,-0.531 -0.001,-0.006 -0.125,-0.469 -0.125,-0.469 -0.333,-0.2 -0.553,-0.338 -0.875,-0.531 -0.001,-0.006 -0.125,-0.469 -0.125,-0.469 -0.334,-0.201 -0.552,-0.337 -0.875,-0.531 -0.001,-0.006 -0.125,-0.469 -0.125,-0.469 -0.334,-0.201 -0.552,-0.337 -0.875,-0.531 -0.001,-0.006 -0.125,-0.469 -0.125,-0.469 -0.334,-0.201 -0.552,-0.337 -0.875,-0.531 -0.001,-0.006 -0.125,-0.469 -0.125,-0.469 -0.32,-0.192 -0.534,-0.314 -0.844,-0.5 -0.001,-0.006 -0.125,-0.469 -0.125,-0.469 -0.332,-0.199 -0.554,-0.338 -0.875,-0.531 -0.001,-0.006 -0.125,-0.469 -0.125,-0.469 -0.332,-0.199 -0.554,-0.338 -0.875,-0.531 -0.001,-0.006 -0.125,-0.469 -0.125,-0.469 -0.333,-0.2 -0.553,-0.338 -0.875,-0.531 -0.001,-0.006 -0.125,-0.469 -0.125,-0.469 -0.334,-0.201 -0.552,-0.337 -0.875,-0.531 -0.001,-0.006 -0.125,-0.469 -0.125,-0.469 -0.334,-0.201 -0.552,-0.337 -0.875,-0.531 -0.001,-0.006 -0.125,-0.469 -0.125,-0.469 -0.32,-0.192 -0.534,-0.314 -0.844,-0.5 l -0.125,-0.469 c -0.332,-0.199 -0.554,-0.338 -0.875,-0.531 -10e-4,-0.006 -0.125,-0.469 -0.125,-0.469 -0.332,-0.199 -0.554,-0.338 -0.875,-0.531 l -0.125,-0.469 c -0.333,-0.2 -0.553,-0.338 -0.875,-0.531 l -0.125,-0.469 c -0.334,-0.201 -0.552,-0.337 -0.875,-0.531 l -0.125,-0.469 c -0.334,-0.201 -0.552,-0.337 -0.875,-0.531 l -0.125,-0.469 c -0.334,-0.201 -0.552,-0.337 -0.875,-0.531 -10e-4,-0.006 -0.125,-0.469 -0.125,-0.469 -0.32,-0.192 -0.534,-0.314 -0.844,-0.5 l -0.125,-0.469 c -0.332,-0.199 -0.554,-0.338 -0.875,-0.531 -10e-4,-0.006 -0.125,-0.469 -0.125,-0.469 -0.333,-0.2 -0.553,-0.338 -0.875,-0.531 l -0.125,-0.469 c -0.334,-0.201 -0.552,-0.337 -0.875,-0.531 -10e-4,-0.006 -0.125,-0.469 -0.125,-0.469 -0.334,-0.201 -0.552,-0.337 -0.875,-0.531 l -0.125,-0.469 c -0.334,-0.201 -0.552,-0.337 -0.875,-0.531 -10e-4,-0.006 -0.125,-0.469 -0.125,-0.469 -0.32,-0.192 -0.534,-0.314 -0.844,-0.5 l -0.125,-0.469 c -0.332,-0.199 -0.554,-0.338 -0.875,-0.531 -10e-4,-0.006 -0.125,-0.469 -0.125,-0.469 -0.332,-0.199 -0.554,-0.338 -0.875,-0.531 -10e-4,-0.006 -0.125,-0.469 -0.125,-0.469 -0.333,-0.2 -0.553,-0.338 -0.875,-0.531 -10e-4,-0.006 -0.125,-0.469 -0.125,-0.469 -0.334,-0.201 -0.552,-0.337 -0.875,-0.531 -10e-4,-0.006 -0.125,-0.469 -0.125,-0.469 -0.334,-0.201 -0.552,-0.337 -0.875,-0.531 -10e-4,-0.006 -0.125,-0.469 -0.125,-0.469 -0.32,-0.192 -0.534,-0.314 -0.844,-0.5 -10e-4,-0.006 -0.125,-0.469 -0.125,-0.469 -0.332,-0.199 -0.554,-0.338 -0.875,-0.531 -10e-4,-0.006 -0.125,-0.469 -0.125,-0.469 -0.332,-0.199 -0.554,-0.338 -0.875,-0.531 -10e-4,-0.006 -0.125,-0.469 -0.125,-0.469 -0.333,-0.2 -0.553,-0.338 -0.875,-0.531 -10e-4,-0.006 -0.125,-0.469 -0.125,-0.469 -0.334,-0.201 -0.552,-0.337 -0.875,-0.531 -10e-4,-0.006 -0.125,-0.469 -0.125,-0.469 -0.334,-0.201 -0.552,-0.337 -0.875,-0.531 -10e-4,-0.006 -0.125,-0.469 -0.125,-0.469 -0.334,-0.201 -0.552,-0.337 -0.875,-0.531 -10e-4,-0.006 -0.125,-0.469 -0.125,-0.469 -0.32,-0.192 -0.534,-0.314 -0.844,-0.5 -10e-4,-0.006 -0.125,-0.469 -0.125,-0.469 -0.332,-0.199 -0.554,-0.338 -0.875,-0.531 -10e-4,-0.006 -0.125,-0.469 -0.125,-0.469 -0.333,-0.2 -0.553,-0.338 -0.875,-0.531 -10e-4,-0.006 -0.125,-0.469 -0.125,-0.469 -0.334,-0.201 -0.552,-0.337 -0.875,-0.531 -10e-4,-0.006 -0.125,-0.469 -0.125,-0.469 -0.334,-0.201 -0.552,-0.337 -0.875,-0.531 -10e-4,-0.006 -0.125,-0.469 -0.125,-0.469 -0.334,-0.201 -0.552,-0.337 -0.875,-0.531 -10e-4,-0.006 -0.125,-0.469 -0.125,-0.469 -0.32,-0.192 -0.534,-0.314 -0.844,-0.5 -10e-4,-0.006 -0.125,-0.469 -0.125,-0.469 -0.332,-0.199 -0.554,-0.338 -0.875,-0.531 -10e-4,-0.006 -0.125,-0.469 -0.125,-0.469 -0.333,-0.2 -0.553,-0.338 -0.875,-0.531 -10e-4,-0.006 -0.125,-0.469 -0.125,-0.469 -0.334,-0.201 -0.552,-0.337 -0.875,-0.531 -10e-4,-0.006 -0.125,-0.469 -0.125,-0.469 -0.334,-0.201 -0.552,-0.337 -0.875,-0.531 -10e-4,-0.006 -0.125,-0.469 -0.125,-0.469 -0.334,-0.201 -0.552,-0.337 -0.875,-0.531 -10e-4,-0.006 -0.125,-0.469 -0.125,-0.469 -0.32,-0.192 -0.534,-0.314 -0.844,-0.5 -0.001,-0.006 -0.125,-0.469 -0.125,-0.469 -0.332,-0.199 -0.554,-0.338 -0.875,-0.531 -0.001,-0.006 -0.125,-0.469 -0.125,-0.469 -0.332,-0.199 -0.554,-0.338 -0.875,-0.531 -0.001,-0.006 -0.125,-0.469 -0.125,-0.469 -0.333,-0.2 -0.553,-0.338 -0.875,-0.531 -0.001,-0.006 -0.125,-0.469 -0.125,-0.469 -0.334,-0.201 -0.552,-0.337 -0.875,-0.531 -0.001,-0.006 -0.125,-0.469 -0.125,-0.469 -0.334,-0.201 -0.552,-0.337 -0.875,-0.531 -0.001,-0.006 -0.125,-0.469 -0.125,-0.469 -0.32,-0.192 -0.534,-0.314 -0.844,-0.5 -0.001,-0.006 -0.125,-0.469 -0.125,-0.469 -0.332,-0.199 -0.554,-0.338 -0.875,-0.531 -0.001,-0.006 -0.125,-0.469 -0.125,-0.469 -0.332,-0.199 -0.554,-0.338 -0.875,-0.531 -0.001,-0.006 -0.125,-0.469 -0.125,-0.469 -0.333,-0.2 -0.553,-0.338 -0.875,-0.531 l -0.125,-0.469 c -10.731,-6.446 -15.819,-9.649 -20.719,-9.625"
       inkscape:connector-curvature="0"
       transform="translate(0,540.36)"
       id="path8"
       style="color:#000000;fill-opacity:0.23500001" />
    <g
       transform="matrix(1.14172,0,0,1.14172,-629.6,-65.725)"
       id="g10"
       style="fill:#ffffff">
      <path
         d="M 659.52,882.06 H 891.81 L 868.281,836 h -182.95 c 0,0 -10.333,19.482 -25.808,46.06 z"
         inkscape:connector-curvature="0"
         id="path12"
         style="stroke:#ffffff;stroke-width:16.89999962" />
      <path
         d="m 775.03,619.65 c -4.291,0.021 -8.403,2.86 -16.971,8.422 l -17.987,69.7 71.1,-0.042 -17.987,-69.66 c -9.399,-5.646 -13.865,-8.443 -18.16,-8.422 m -43.08,109.49 -6.687,25.901 h 100.73 l -6.645,-25.816 z m 94.04,25.901 8.253,31.91 -8.253,-31.91 m 8.253,31.91 -117.19,-0.085 -10.454,40.502 c 49.886,28.516 83.27,30.27 138.14,0.169 z"
         inkscape:connector-curvature="0"
         id="path14" />
    </g>
    <g
       id="g16"
       style="fill-rule:evenodd">
      <path
         d="m 256,541.36 c -140.83,0 -255,114.17 -255,255 0,140.83 114.17,255 255,255 140.83,0 255,-114.17 255,-255 0,-140.83 -114.17,-255 -255,-255 m 8.827,44.931 c 120.9,0 218.9,98 218.9,218.9 0,120.9 -98,218.9 -218.9,218.9 -120.9,0 -218.93,-98 -218.93,-218.9 0,-120.9 98.03,-218.9 218.93,-218.9"
         inkscape:connector-curvature="0"
         id="path18"
         style="fill-opacity:0.06700003" />
      <g
         id="g20"
         style="fill-opacity:0.12900002">
        <path
           d="M 256,544.79 C 117.06,544.79 4.43,657.42 4.43,796.36 4.43,935.3 117.06,1047.93 256,1047.93 394.94,1047.93 507.57,935.3 507.57,796.36 507.57,657.42 394.94,544.79 256,544.79 m 5.885,38.556 c 120.9,0 218.9,98 218.9,218.9 0,120.9 -98,218.9 -218.9,218.9 -120.9,0 -218.93,-98 -218.93,-218.9 0,-120.9 98.03,-218.9 218.93,-218.9"
           inkscape:connector-curvature="0"
           id="path22" />
        <path
           d="M 256,548.72 C 119.23,548.72 8.36,659.59 8.36,796.36 8.36,933.13 119.23,1044 256,1044 392.77,1044 503.64,933.13 503.64,796.36 503.64,659.59 392.77,548.72 256,548.72 m 2.942,31.691 c 120.9,0 218.9,98 218.9,218.9 0,120.9 -98,218.9 -218.9,218.9 -120.9,0 -218.93,-98 -218.93,-218.9 0,-120.9 98.03,-218.9 218.93,-218.9"
           inkscape:connector-curvature="0"
           id="path24" />
      </g>
      <path
         d="M 253.04,548.22 C 117.62,548.22 7.85,658 7.85,793.41 c 0,135.42 109.78,245.19 245.19,245.19 135.42,0 245.19,-109.78 245.19,-245.19 0,-135.42 -109.78,-245.19 -245.19,-245.19 z m 0,26.297 c 120.9,0 218.9,98 218.9,218.9 0,120.9 -98,218.9 -218.9,218.9 -120.9,0 -218.93,-98 -218.93,-218.9 0,-120.9 98.03,-218.9 218.93,-218.9 z"
         inkscape:connector-curvature="0"
         id="path26"
         style="fill:#ffffff;stroke:#000000;stroke-width:4.90399981;stroke-opacity:0.31000001" />
    </g>
    <text
       x="-188.49001"
       y="998.90002"
       id="text28"
       style="font-size:195.71000671px;line-height:125%;letter-spacing:0;word-spacing:0;font-family:Gentium Book Basic">
      <tspan
         x="-188.49001"
         y="998.90002"
         id="tspan30" />
    </text>
    <text
       x="251.50999"
       y="3479.6101"
       transform="scale(4.0128,0.2492)"
       id="text32"
       style="font-size:71.11000061px;text-anchor:middle;font-family:Arial" />
  </g>
</svg>
