<?xml version="1.0" encoding="UTF-8" standalone="no"?>
<!-- Created with Inkscape (http://www.inkscape.org/) -->

<svg
   xmlns:dc="http://purl.org/dc/elements/1.1/"
   xmlns:cc="http://creativecommons.org/ns#"
   xmlns:rdf="http://www.w3.org/1999/02/22-rdf-syntax-ns#"
   xmlns:svg="http://www.w3.org/2000/svg"
   xmlns="http://www.w3.org/2000/svg"
   xmlns:inkscape="http://www.inkscape.org/namespaces/inkscape"
   version="1.1"
   width="100%"
   height="100%"
   viewBox="0 0 512 512"
   id="svg2">
  <metadata
     id="metadata74">
    <rdf:RDF>
      <cc:Work
         rdf:about="">
        <dc:format>image/svg+xml</dc:format>
        <dc:type
           rdf:resource="http://purl.org/dc/dcmitype/StillImage" />
      </cc:Work>
    </rdf:RDF>
  </metadata>
  <defs
     id="defs72" />
  <path
     d="m 471.95,253.05 c 0,120.9 -98.01,218.9 -218.9,218.9 -120.9,0 -218.9,-98.01 -218.9,-218.9 0,-120.9 98.01,-218.9 218.9,-218.9 120.9,0 218.9,98.01 218.9,218.9"
     inkscape:connector-curvature="0"
     id="path4"
     style="fill:#0078ad;fill-rule:evenodd" />
  <path
     d="m 241.57,31.01 c -1.204,0.076 -2.408,0.159 -3.607,0.254 V 42.48 h -28.856 v -7.02 c -1.202,0.254 -2.412,0.516 -3.607,0.789 v 6.228 h -22.06 c -3.51,1.192 -6.969,2.474 -10.398,3.832 V 74.94 H 144.186 V 60.202 c -1.212,0.694 -2.409,1.398 -3.607,2.113 V 74.94 h -18.937 c -1.59,1.182 -3.149,2.385 -4.706,3.607 h 23.643 v 28.856 H 111.723 V 82.774 c -1.216,1.014 -2.413,2.033 -3.607,3.072 v 21.558 H 86.502 c -1.047,1.194 -2.077,2.391 -3.1,3.607 h 24.714 v 28.856 H 79.26 v -23.812 c -1.22,1.539 -2.427,3.079 -3.607,4.65 v 19.16 H 62.747 c -0.722,1.2 -1.441,2.393 -2.142,3.607 h 15.05 v 28.856 H 46.799 v -0.423 c -1.266,3.146 -2.481,6.311 -3.607,9.525 v 23.361 h -6.791 c -0.277,1.192 -0.503,2.407 -0.761,3.607 h 7.552 v 28.856 H 31.328 c -0.099,1.199 -0.174,2.402 -0.254,3.607 h 12.12 v 28.856 H 30.992 c 0.072,1.202 0.135,2.41 0.225,3.607 h 11.976 v 28.856 h -7.862 c 0.25,1.202 0.492,2.413 0.761,3.607 h 7.101 v 24.77 c 1.126,3.214 2.341,6.379 3.607,9.525 v -1.832 h 28.856 v 28.856 H 59.819 c 0.689,1.214 1.403,2.407 2.113,3.607 h 13.724 v 20.571 c 1.18,1.571 2.387,3.111 3.607,4.65 v -25.22 h 28.856 V 399.57 H 82.194 c 1.01,1.221 2.037,2.408 3.072,3.607 h 22.854 v 22.967 c 1.194,1.039 2.391,2.058 3.607,3.072 v -26.04 h 28.856 v 28.856 h -25.39 c 1.52,1.217 3.042,2.429 4.593,3.607 h 20.797 v 14.03 c 1.198,0.715 2.395,1.42 3.607,2.113 v -16.15 h 28.856 v 28.856 h -2.874 c 3.062,1.262 6.144,2.478 9.271,3.607 h 26.07 v 7.637 c 1.195,0.273 2.405,0.535 3.607,0.789 v -8.426 h 28.856 v 12.625 c 1.199,0.095 2.403,0.178 3.607,0.254 v -12.878 h 28.856 v 12.878 c 1.204,-0.076 2.408,-0.159 3.607,-0.254 v -12.625 h 28.856 v 8.426 c 1.202,-0.254 2.412,-0.516 3.607,-0.789 v -7.637 h 26.07 c 3.128,-1.129 6.21,-2.345 9.271,-3.607 h -2.874 v -28.856 h 28.856 v 16.15 c 1.212,-0.694 2.409,-1.398 3.607,-2.113 v -14.03 h 20.797 c 1.552,-1.178 3.074,-2.39 4.593,-3.607 h -25.39 v -28.856 h 28.856 v 26.04 c 1.216,-1.014 2.413,-2.033 3.607,-3.072 v -22.967 h 22.854 c 1.034,-1.199 2.062,-2.387 3.072,-3.607 h -25.925 v -28.856 h 28.856 v 25.22 c 1.22,-1.539 2.427,-3.079 3.607,-4.65 v -20.571 h 13.724 c 0.711,-1.2 1.424,-2.393 2.114,-3.607 H 436.367 V 338.25 h 28.856 v 1.832 c 1.266,-3.146 2.481,-6.311 3.607,-9.525 v -24.77 h 7.101 c 0.269,-1.194 0.511,-2.405 0.761,-3.607 h -7.862 v -28.856 h 11.976 c 0.091,-1.197 0.153,-2.405 0.225,-3.607 h -12.202 v -28.856 h 12.12 c -0.08,-1.205 -0.155,-2.408 -0.254,-3.607 h -11.864 v -28.856 h 7.552 c -0.258,-1.2 -0.484,-2.415 -0.761,-3.607 h -6.791 V 181.43 c -1.126,-3.214 -2.341,-6.379 -3.607,-9.525 v 0.423 h -28.856 v -28.856 h 15.05 c -0.701,-1.214 -1.419,-2.407 -2.142,-3.607 H 436.37 v -19.16 c -1.18,-1.571 -2.387,-3.111 -3.607,-4.65 v 23.812 h -28.856 v -28.856 h 24.714 c -1.022,-1.216 -2.052,-2.413 -3.1,-3.607 H 403.907 V 85.846 c -1.194,-1.039 -2.391,-2.058 -3.607,-3.072 v 24.629 H 371.444 V 78.547 h 23.643 c -1.557,-1.222 -3.116,-2.425 -4.706,-3.607 H 371.444 V 62.315 c -1.198,-0.715 -2.395,-1.42 -3.607,-2.113 V 74.94 H 338.981 V 46.309 c -3.43,-1.358 -6.889,-2.64 -10.398,-3.832 h -22.06 v -6.228 c -1.195,-0.273 -2.405,-0.535 -3.607,-0.789 v 7.02 H 274.06 V 31.264 c -1.199,-0.095 -2.403,-0.178 -3.607,-0.254 V 42.479 H 241.597 V 31.01 m -64.926,15.08 h 28.856 V 74.946 H 176.671 V 46.09 m 32.463,0 H 237.99 V 74.946 H 209.134 V 46.09 m 32.463,0 h 28.856 V 74.946 H 241.597 V 46.09 m 32.463,0 h 28.856 V 74.946 H 274.06 V 46.09 m 32.463,0 h 28.856 V 74.946 H 306.523 V 46.09 m -162.32,32.463 h 28.856 v 28.856 H 144.203 V 78.553 m 32.463,0 h 28.856 v 28.856 H 176.666 V 78.553 m 32.463,0 h 28.856 v 28.856 H 209.129 V 78.553 m 32.463,0 h 28.856 v 28.856 H 241.592 V 78.553 m 32.463,0 h 28.856 v 28.856 H 274.055 V 78.553 m 32.463,0 h 28.856 v 28.856 H 306.518 V 78.553 m 32.463,0 h 28.856 v 28.856 H 338.981 V 78.553 m -227.24,32.463 h 28.856 v 28.856 h -28.856 v -28.856 m 32.463,0 h 28.856 v 28.856 h -28.856 v -28.856 m 32.463,0 h 28.856 v 28.856 h -28.856 v -28.856 m 32.463,0 h 28.856 v 28.856 H 209.13 v -28.856 m 32.463,0 h 28.856 v 28.856 h -28.856 v -28.856 m 32.463,0 h 28.856 v 28.856 h -28.856 v -28.856 m 32.463,0 h 28.856 v 28.856 h -28.856 v -28.856 m 32.463,0 h 28.856 v 28.856 h -28.856 v -28.856 m 32.463,0 h 28.856 v 28.856 h -28.856 v -28.856 m -292.17,32.463 h 28.856 v 28.856 H 79.275 v -28.856 m 32.463,0 h 28.856 v 28.856 h -28.856 v -28.856 m 32.463,0 h 28.856 v 28.856 h -28.856 v -28.856 m 32.463,0 h 28.856 v 28.856 h -28.856 v -28.856 m 32.463,0 h 28.856 v 28.856 h -28.856 v -28.856 m 32.463,0 h 28.856 v 28.856 H 241.59 v -28.856 m 32.463,0 h 28.856 v 28.856 h -28.856 v -28.856 m 32.463,0 h 28.856 v 28.856 h -28.856 v -28.856 m 32.463,0 h 28.856 v 28.856 h -28.856 v -28.856 m 32.463,0 h 28.856 v 28.856 h -28.856 v -28.856 m 32.463,0 h 28.856 v 28.856 h -28.856 v -28.856 m -357.09,32.463 h 28.856 v 28.856 H 46.815 v -28.856 m 32.463,0 h 28.856 v 28.856 H 79.278 v -28.856 m 32.463,0 h 28.856 v 28.856 h -28.856 v -28.856 m 32.463,0 h 28.856 v 28.856 h -28.856 v -28.856 m 32.463,0 h 28.856 v 28.856 h -28.856 v -28.856 m 32.463,0 h 28.856 v 28.856 H 209.13 v -28.856 m 32.463,0 h 28.856 v 28.856 h -28.856 v -28.856 m 32.463,0 h 28.856 v 28.856 h -28.856 v -28.856 m 32.463,0 h 28.856 v 28.856 h -28.856 v -28.856 m 32.463,0 h 28.856 v 28.856 h -28.856 v -28.856 m 32.463,0 h 28.856 v 28.856 h -28.856 v -28.856 m 32.463,0 h 28.856 v 28.856 h -28.856 v -28.856 m 32.463,0 h 28.856 v 28.856 h -28.856 v -28.856 m -389.56,32.463 h 28.856 v 28.856 H 46.811 v -28.856 m 32.463,0 h 28.856 v 28.856 H 79.274 v -28.856 m 32.463,0 h 28.856 v 28.856 h -28.856 v -28.856 m 32.463,0 h 28.856 v 28.856 H 144.2 v -28.856 m 32.463,0 h 28.856 v 28.856 h -28.856 v -28.856 m 32.463,0 h 28.856 v 28.856 h -28.856 v -28.856 m 32.463,0 h 28.856 v 28.856 h -28.856 v -28.856 m 32.463,0 h 28.856 v 28.856 h -28.856 v -28.856 m 32.463,0 h 28.856 v 28.856 h -28.856 v -28.856 m 32.463,0 h 28.856 v 28.856 h -28.856 v -28.856 m 32.463,0 h 28.856 v 28.856 h -28.856 v -28.856 m 32.463,0 h 28.856 v 28.856 h -28.856 v -28.856 m 32.463,0 h 28.856 v 28.856 h -28.856 v -28.856 m -389.56,32.463 h 28.856 v 28.856 H 46.807 v -28.856 m 32.463,0 h 28.856 v 28.856 H 79.27 v -28.856 m 32.463,0 h 28.856 v 28.856 h -28.856 v -28.856 m 32.463,0 h 28.856 v 28.856 h -28.856 v -28.856 m 32.463,0 h 28.856 v 28.856 h -28.856 v -28.856 m 32.463,0 h 28.856 v 28.856 h -28.856 v -28.856 m 32.463,0 h 28.856 v 28.856 h -28.856 v -28.856 m 32.463,0 h 28.856 v 28.856 h -28.856 v -28.856 m 32.463,0 h 28.856 v 28.856 h -28.856 v -28.856 m 32.463,0 h 28.856 v 28.856 h -28.856 v -28.856 m 32.463,0 h 28.856 v 28.856 h -28.856 v -28.856 m 32.463,0 h 28.856 v 28.856 H 403.9 v -28.856 m 32.463,0 h 28.856 v 28.856 h -28.856 v -28.856 m -389.56,32.463 h 28.856 v 28.856 H 46.803 v -28.856 m 32.463,0 h 28.856 v 28.856 H 79.266 v -28.856 m 32.463,0 h 28.856 v 28.856 h -28.856 v -28.856 m 32.463,0 h 28.856 v 28.856 h -28.856 v -28.856 m 32.463,0 h 28.856 v 28.856 h -28.856 v -28.856 m 32.463,0 h 28.856 v 28.856 h -28.856 v -28.856 m 32.463,0 h 28.856 v 28.856 h -28.856 v -28.856 m 32.463,0 H 302.9 v 28.856 h -28.856 v -28.856 m 32.463,0 h 28.856 v 28.856 h -28.856 v -28.856 m 32.463,0 h 28.856 v 28.856 H 338.97 v -28.856 m 32.463,0 h 28.856 v 28.856 h -28.856 v -28.856 m 32.463,0 h 28.856 v 28.856 h -28.856 v -28.856 m 32.463,0 h 28.856 v 28.856 H 436.359 V 273.331 M 46.799,305.794 H 75.655 V 334.65 H 46.799 v -28.856 m 32.463,0 h 28.856 V 334.65 H 79.262 v -28.856 m 32.463,0 h 28.856 v 28.856 h -28.856 v -28.856 m 32.463,0 h 28.856 v 28.856 h -28.856 v -28.856 m 32.463,0 h 28.856 v 28.856 h -28.856 v -28.856 m 32.463,0 h 28.856 v 28.856 h -28.856 v -28.856 m 32.463,0 h 28.856 v 28.856 h -28.856 v -28.856 m 32.463,0 h 28.856 V 334.65 H 274.04 v -28.856 m 32.463,0 h 28.856 v 28.856 h -28.856 v -28.856 m 32.463,0 h 28.856 v 28.856 h -28.856 v -28.856 m 32.463,0 h 28.856 v 28.856 h -28.856 v -28.856 m 32.463,0 h 28.856 v 28.856 h -28.856 v -28.856 m 32.463,0 h 28.856 v 28.856 h -28.856 v -28.856 m -357.09,32.463 h 28.856 v 28.856 H 79.265 v -28.856 m 32.463,0 h 28.856 v 28.856 h -28.856 v -28.856 m 32.463,0 h 28.856 v 28.856 h -28.856 v -28.856 m 32.463,0 h 28.856 v 28.856 h -28.856 v -28.856 m 32.463,0 h 28.856 v 28.856 h -28.856 v -28.856 m 32.463,0 h 28.856 v 28.856 H 241.58 v -28.856 m 32.463,0 h 28.856 v 28.856 h -28.856 v -28.856 m 32.463,0 h 28.856 v 28.856 h -28.856 v -28.856 m 32.463,0 h 28.856 v 28.856 h -28.856 v -28.856 m 32.463,0 h 28.856 v 28.856 h -28.856 v -28.856 m 32.463,0 h 28.856 v 28.856 h -28.856 v -28.856 m -292.17,32.463 h 28.856 v 28.856 H 111.725 V 370.72 m 32.463,0 h 28.856 v 28.856 H 144.188 V 370.72 m 32.463,0 h 28.856 v 28.856 H 176.651 V 370.72 m 32.463,0 h 28.856 v 28.856 H 209.114 V 370.72 m 32.463,0 h 28.856 v 28.856 H 241.577 V 370.72 m 32.463,0 h 28.856 v 28.856 H 274.04 V 370.72 m 32.463,0 h 28.856 v 28.856 H 306.503 V 370.72 m 32.463,0 h 28.856 v 28.856 H 338.966 V 370.72 m 32.463,0 h 28.856 v 28.856 H 371.429 V 370.72 m -227.24,32.463 h 28.856 v 28.856 h -28.856 v -28.856 m 32.463,0 h 28.856 v 28.856 h -28.856 v -28.856 m 32.463,0 h 28.856 v 28.856 h -28.856 v -28.856 m 32.463,0 h 28.856 v 28.856 h -28.856 v -28.856 m 32.463,0 h 28.856 v 28.856 h -28.856 v -28.856 m 32.463,0 h 28.856 v 28.856 h -28.856 v -28.856 m 32.463,0 h 28.856 v 28.856 h -28.856 v -28.856 m -162.32,32.463 h 28.856 v 28.856 h -28.856 v -28.856 m 32.463,0 h 28.856 v 28.856 H 209.11 v -28.856 m 32.463,0 h 28.856 v 28.856 h -28.856 v -28.856 m 32.463,0 h 28.856 v 28.856 h -28.856 v -28.856 m 32.463,0 h 28.856 v 28.856 h -28.856 v -28.856"
     inkscape:connector-curvature="0"
     id="path6"
     style="color:#000000;fill:#ffffff;fill-opacity:0.30800003" />
  <path
     d="m 214.44,140.25 -7.5,34.5 h -0.344 c -0.004,-0.02 -0.188,-1 -0.188,-1 h -0.781 c -0.004,-0.02 -0.188,-1 -0.188,-1 h -0.813 c -0.004,-0.019 -0.188,-0.969 -0.188,-0.969 h -0.813 c -0.004,-0.02 -0.188,-1 -0.188,-1 h -0.813 c -0.004,-0.02 -0.188,-1 -0.188,-1 h -0.813 c -0.004,-0.02 -0.188,-1 -0.188,-1 h -0.813 c -0.004,-0.02 -0.188,-1 -0.188,-1 h -0.781 c -0.004,-0.02 -0.188,-1 -0.188,-1 h -0.813 c -0.004,-0.019 -0.188,-0.969 -0.188,-0.969 h -0.813 c -0.004,-0.02 -0.188,-1 -0.188,-1 h -0.813 c -0.004,-0.02 -0.188,-1 -0.188,-1 h -0.813 c -0.004,-0.02 -0.188,-1 -0.188,-1 h -0.813 c -0.004,-0.02 -0.188,-1 -0.188,-1 h -0.781 c -0.004,-0.02 -0.188,-1 -0.188,-1 h -0.813 c -0.004,-0.019 -0.188,-0.969 -0.188,-0.969 h -0.813 c -0.004,-0.02 -0.188,-1 -0.188,-1 h -0.813 c -0.004,-0.02 -0.188,-1 -0.188,-1 h -0.813 c -0.004,-0.02 -0.188,-1 -0.188,-1 h -0.813 c -0.004,-0.02 -0.188,-1 -0.188,-1 h -0.813 c -0.004,-0.02 -0.188,-1 -0.188,-1 h -0.781 c -0.004,-0.019 -0.188,-0.969 -0.188,-0.969 h -0.813 c -0.004,-0.02 -0.188,-1 -0.188,-1 h -0.813 c -0.004,-0.02 -0.188,-1 -0.188,-1 h -0.813 c -0.004,-0.02 -0.188,-1 -0.188,-1 H 182.7 c -0.004,-0.02 -0.188,-1 -0.188,-1 h -0.813 c -0.004,-0.02 -0.188,-1 -0.188,-1 h -0.781 c -0.004,-0.02 -0.188,-1 -0.188,-1 h -0.813 c -0.004,-0.019 -0.188,-0.969 -0.188,-0.969 h -0.813 c -0.004,-0.02 -0.188,-1 -0.188,-1 h -0.813 c -0.004,-0.02 -0.188,-1 -0.188,-1 h -0.813 c -0.004,-0.02 -0.188,-1 -0.188,-1 h -0.813 c -0.004,-0.02 -0.188,-1 -0.188,-1 h -0.781 l -0.188,-1 h -0.813 l -0.188,-0.969 h -52.37 l 47,230.78 h 0.813 c 0.002,0.008 0.188,0.969 0.188,0.969 h 0.781 c 0.002,0.009 0.219,1 0.219,1 h 0.75 c 0.002,0.009 0.219,1 0.219,1 h 0.781 c 0.002,0.009 0.219,1 0.219,1 h 0.781 c 0.002,0.009 0.219,1 0.219,1 h 0.781 c 0.002,0.009 0.219,1 0.219,1 h 0.813 c 0.002,0.008 0.188,0.969 0.188,0.969 h 0.781 c 0.002,0.009 0.219,1 0.219,1 h 0.75 c 0.002,0.009 0.219,1 0.219,1 h 0.781 c 0.002,0.009 0.219,1 0.219,1 h 0.781 l 0.219,1 h 0.781 c 0.002,0.009 0.219,1 0.219,1 h 0.781 c 0.002,0.009 0.219,1 0.219,1 h 0.813 c 0.002,0.008 0.188,0.969 0.188,0.969 h 0.781 c 0.002,0.009 0.219,1 0.219,1 h 0.75 c 0.002,0.009 0.219,1 0.219,1 h 0.781 c 0.002,0.009 0.219,1 0.219,1 h 0.781 c 0.002,0.009 0.219,1 0.219,1 h 0.781 c 0.002,0.009 0.219,1 0.219,1 h 0.813 c 0.002,0.008 0.188,0.969 0.188,0.969 h 0.781 c 0.002,0.009 0.219,1 0.219,1 h 0.75 c 0.002,0.009 0.219,1 0.219,1 h 0.781 c 0.002,0.009 0.219,1 0.219,1 h 0.781 c 0.002,0.009 0.219,1 0.219,1 h 0.781 l 0.219,1 h 0.813 c 0.002,0.008 0.188,0.969 0.188,0.969 h 0.781 l 0.219,1 h 0.75 c 0.002,0.009 0.219,1 0.219,1 h 0.781 c 0.002,0.009 0.219,1 0.219,1 h 0.781 c 0.002,0.009 0.219,1 0.219,1 h 0.781 c 0.002,0.009 0.219,1 0.219,1 h 0.813 c 0.002,0.008 0.188,0.969 0.188,0.969 h 0.781 c 0.002,0.009 0.219,1 0.219,1 h 0.75 l 0.219,1 h 0.031 0.75 c 0.002,0.009 0.219,1 0.219,1 h 0.781 c 0.002,0.009 0.219,1 0.219,1 h 0.781 c 0.002,0.009 0.219,1 0.219,1 h 0.781 c 0.002,0.009 0.219,1 0.219,1 h 0.813 c 0.002,0.008 0.188,0.969 0.188,0.969 h 0.781 c 0.002,0.009 0.219,1 0.219,1 h 0.75 l 0.219,1 h 0.781 c 0.002,0.009 0.219,1 0.219,1 h 0.781 l 0.219,1 h 0.781 c 0.002,0.009 0.219,1 0.219,1 h 0.813 l 0.188,0.969 h 0.781 c 0.002,0.009 0.219,1 0.219,1 h 0.75 c 0.002,0.009 0.219,1 0.219,1 h 0.781 c 0.002,0.009 0.219,1 0.219,1 h 0.781 c 0.002,0.009 0.219,1 0.219,1 h 0.781 c 0.002,0.009 0.219,1 0.219,1 h 0.813 c 0.002,0.008 0.188,0.969 0.188,0.969 h 0.781 l 0.219,1 h 0.75 c 0.002,0.009 0.219,1 0.219,1 h 0.781 c 0.002,0.009 0.219,1 0.219,1 h 0.781 c 0.002,0.009 0.219,1 0.219,1 h 0.781 c 0.002,0.009 0.219,1 0.219,1 h 0.781 c 0.002,0.009 0.219,1 0.219,1 h 0.813 c 0.002,0.008 0.188,0.969 0.188,0.969 h 0.781 l 0.219,1 h 0.75 c 0.002,0.009 0.219,1 0.219,1 h 0.781 l 0.219,1 h 0.781 c 0.002,0.009 0.219,1 0.219,1 h 0.781 c 0.002,0.009 0.219,1 0.219,1 h 0.813 c 0.002,0.008 0.188,0.969 0.188,0.969 h 0.781 c 0.002,0.009 0.219,1 0.219,1 h 0.75 c 0.002,0.009 0.219,1 0.219,1 h 0.781 c 0.002,0.009 0.219,1 0.219,1 h 0.781 l 0.219,1 h 0.781 c 0.002,0.009 0.219,1 0.219,1 h 0.813 l 0.188,0.969 h 0.781 c 0.002,0.009 0.219,1 0.219,1 h 0.75 c 0.002,0.009 0.219,1 0.219,1 h 0.781 c 0.002,0.009 0.219,1 0.219,1 h 0.781 c 0.002,0.009 0.219,1 0.219,1 h 0.781 c 0.002,0.009 0.219,1 0.219,1 h 0.813 c 0.002,0.008 0.188,0.969 0.188,0.969 h 0.781 l 0.219,1 h 0.75 c 0.002,0.009 0.219,1 0.219,1 h 0.031 0.75 l 0.219,1 h 0.781 c 0.002,0.009 0.219,1 0.219,1 h 0.781 c 0.002,0.009 0.219,1 0.219,1 h 0.781 c 0.002,0.009 0.219,1 0.219,1 h 0.813 c 0.002,0.008 0.188,0.969 0.188,0.969 h 0.781 c 0.002,0.009 0.219,1 0.219,1 h 0.75 c 0.002,0.009 0.219,1 0.219,1 h 0.781 l 0.219,1 h 0.781 c 0.002,0.009 0.219,1 0.219,1 h 0.781 l 0.219,1 h 0.813 c 0.002,0.008 0.188,0.969 0.188,0.969 h 0.781 c 0.002,0.009 0.219,1 0.219,1 h 0.75 c 0.002,0.009 0.219,1 0.219,1 h 0.781 c 0.002,0.009 0.219,1 0.219,1 h 0.781 c 0.002,0.009 0.219,1 0.219,1 h 0.781 c 0.002,0.009 0.219,1 0.219,1 h 0.813 l 0.188,0.969 h 0.781 c 0.002,0.009 0.219,1 0.219,1 h 0.75 l 0.219,1 h 0.781 c 0.002,0.009 0.219,1 0.219,1 h 0.781 c 0.002,0.009 0.219,1 0.219,1 h 0.781 c 0.002,0.009 0.219,1 0.219,1 h 0.813 c 0,0.002 0.02,0.129 0.031,0.188 111.86,-7.84 200.54,-99.72 203.31,-212.91 h -0.625 c 0.192,-0.329 0.396,-0.662 0.625,-1 h -1.969 c 0.193,-0.333 0.394,-0.658 0.625,-1 h -1.969 c 0.192,-0.334 0.393,-0.657 0.625,-1 h -1.969 c 0.189,-0.331 0.395,-0.66 0.625,-1 h -1.969 c 0.187,-0.328 0.397,-0.663 0.625,-1 h -1.938 c 0.182,-0.32 0.371,-0.64 0.594,-0.969 h -1.938 c 0.184,-0.329 0.365,-0.663 0.594,-1 h -1.938 c 0.182,-0.326 0.367,-0.666 0.594,-1 h -1.969 c 0.184,-0.334 0.393,-0.657 0.625,-1 h -1.969 c 0.181,-0.331 0.395,-0.66 0.625,-1 h -1.938 c 0.178,-0.327 0.366,-0.664 0.594,-1 h -1.938 c 0.175,-0.324 0.368,-0.667 0.594,-1 h -1.938 c 0.172,-0.321 0.37,-0.639 0.594,-0.969 h -1.938 c 0.172,-0.325 0.367,-0.666 0.594,-1 h -1.938 c 0.174,-0.334 0.361,-0.657 0.594,-1 h -1.938 c 0.171,-0.33 0.364,-0.66 0.594,-1 h -1.938 c 0.168,-0.327 0.366,-0.663 0.594,-1 h -1.875 c -0.005,-0.007 0.006,-0.025 0,-0.031 -0.007,-0.012 -0.024,-0.019 -0.031,-0.031 0.158,-0.305 0.35,-0.624 0.563,-0.938 h -1.188 c -0.105,-0.215 -0.235,-0.415 -0.375,-0.625 0.073,-0.119 0.138,-0.224 0.219,-0.344 h -0.469 c -0.031,-0.041 -0.062,-0.085 -0.094,-0.125 -0.203,-0.441 -0.494,-0.861 -0.844,-1.281 -0.183,-0.369 -0.46,-0.74 -0.75,-1.094 -0.187,-0.401 -0.463,-0.804 -0.781,-1.188 -0.194,-0.418 -0.47,-0.82 -0.813,-1.219 -0.189,-0.399 -0.421,-0.806 -0.75,-1.188 -0.177,-0.379 -0.441,-0.731 -0.75,-1.094 -0.188,-0.442 -0.47,-0.861 -0.844,-1.281 -0.178,-0.386 -0.393,-0.756 -0.719,-1.125 -0.157,-0.367 -0.422,-0.712 -0.719,-1.063 -0.159,-0.433 -0.452,-0.84 -0.813,-1.25 -0.161,-0.421 -0.421,-0.851 -0.781,-1.25 -0.156,-0.39 -0.447,-0.785 -0.781,-1.156 -0.148,-0.407 -0.431,-0.801 -0.781,-1.188 -0.146,-0.424 -0.439,-0.818 -0.813,-1.219 -0.135,-0.391 -0.382,-0.754 -0.719,-1.125 -0.129,-0.436 -0.423,-0.87 -0.813,-1.281 -0.128,-0.412 -0.41,-0.798 -0.781,-1.188 -0.124,-0.424 -0.389,-0.85 -0.781,-1.25 -0.123,-0.412 -0.393,-0.83 -0.781,-1.219 -0.116,-0.41 -0.391,-0.801 -0.781,-1.188 -0.107,-0.426 -0.398,-0.818 -0.813,-1.219 -0.1,-0.409 -0.353,-0.803 -0.75,-1.188 -0.085,-0.436 -0.377,-0.842 -0.813,-1.25 -0.086,-0.418 -0.357,-0.827 -0.781,-1.219 -0.075,-0.432 -0.361,-0.847 -0.813,-1.25 -0.074,-0.411 -0.317,-0.803 -0.75,-1.188 -0.05,-0.438 -0.338,-0.842 -0.813,-1.25 -0.052,-0.418 -0.323,-0.829 -0.781,-1.219 -0.033,-0.422 -0.315,-0.826 -0.781,-1.219 -0.014,-0.435 -0.316,-0.846 -0.813,-1.25 -0.017,-0.421 -0.29,-0.859 -0.781,-1.25 -0.006,-0.419 -0.312,-0.83 -0.813,-1.219 0.015,-0.424 -0.267,-0.827 -0.781,-1.219 0.032,-0.424 -0.285,-0.827 -0.813,-1.219 0.064,-0.435 -0.229,-0.85 -0.781,-1.25 0.08,-0.436 -0.24,-0.85 -0.813,-1.25 0.096,-0.436 -0.221,-0.85 -0.813,-1.25 0.008,-0.012 0.024,-0.019 0.031,-0.031 0.096,-0.435 -0.218,-0.852 -0.844,-1.25 0.008,-0.012 0.024,-0.019 0.031,-0.031 0.092,-0.418 -0.197,-0.804 -0.813,-1.188 0.012,-0.02 0.019,-0.043 0.031,-0.063 0.09,-0.408 -0.22,-0.814 -0.844,-1.188 0.02,-0.032 0.042,-0.062 0.063,-0.094 0.089,-0.404 -0.254,-0.786 -0.906,-1.156 0.028,-0.045 0.066,-0.08 0.094,-0.125 0.086,-0.389 -0.231,-0.769 -0.875,-1.125 0.033,-0.052 0.061,-0.104 0.094,-0.156 0.083,-0.378 -0.257,-0.747 -0.906,-1.094 0.041,-0.064 0.084,-0.123 0.125,-0.188 0.081,-0.369 -0.276,-0.725 -0.938,-1.063 0.045,-0.071 0.08,-0.147 0.125,-0.219 0.081,-0.365 -0.273,-0.697 -0.969,-1.031 0.056,-0.088 0.131,-0.161 0.188,-0.25 0.078,-0.355 -0.296,-0.675 -1,-1 0.057,-0.089 0.131,-0.16 0.188,-0.25 0.075,-0.341 -0.272,-0.688 -0.969,-1 0.061,-0.096 0.126,-0.185 0.188,-0.281 0.073,-0.331 -0.295,-0.666 -1,-0.969 0.069,-0.107 0.15,-0.205 0.219,-0.313 0.071,-0.32 -0.32,-0.645 -1.031,-0.938 0.074,-0.115 0.145,-0.229 0.219,-0.344 0.068,-0.309 -0.312,-0.623 -1.031,-0.906 0.082,-0.126 0.169,-0.248 0.25,-0.375 0.066,-0.3 -0.333,-0.569 -1.063,-0.844 0.095,-0.146 0.187,-0.291 0.281,-0.438 0.065,-0.293 -0.367,-0.544 -1.125,-0.813 0.102,-0.156 0.211,-0.311 0.313,-0.469 0.062,-0.279 -0.348,-0.526 -1.094,-0.781 0.104,-0.159 0.209,-0.309 0.313,-0.469 0.059,-0.269 -0.366,-0.535 -1.125,-0.781 0.109,-0.166 0.204,-0.332 0.313,-0.5 0.057,-0.259 -0.358,-0.513 -1.125,-0.75 0.115,-0.175 0.229,-0.354 0.344,-0.531 0.055,-0.248 -0.382,-0.491 -1.156,-0.719 0.124,-0.188 0.252,-0.373 0.375,-0.563 0.054,-0.243 -0.407,-0.466 -1.219,-0.688 0.132,-0.2 0.275,-0.392 0.406,-0.594 0.051,-0.232 -0.371,-0.445 -1.188,-0.656 0.138,-0.208 0.269,-0.415 0.406,-0.625 0.049,-0.221 -0.393,-0.423 -1.219,-0.625 0.144,-0.216 0.295,-0.438 0.438,-0.656 0.047,-0.211 -0.413,-0.401 -1.25,-0.594 0.147,-0.221 0.291,-0.433 0.438,-0.656 0.044,-0.2 -0.404,-0.411 -1.25,-0.594 0.155,-0.232 0.315,-0.453 0.469,-0.688 0.042,-0.19 -0.428,-0.389 -1.281,-0.563 0.159,-0.237 0.311,-0.479 0.469,-0.719 0.04,-0.182 -0.426,-0.334 -1.313,-0.5 0.176,-0.262 0.357,-0.517 0.531,-0.781 0.038,-0.171 -0.448,-0.312 -1.344,-0.469 0.183,-0.272 0.381,-0.537 0.563,-0.813 0.035,-0.161 -0.471,-0.291 -1.375,-0.438 0.188,-0.279 0.376,-0.561 0.563,-0.844 0.031,-0.142 -0.547,-0.244 -1.375,-0.375 0.201,-0.296 0.395,-0.606 0.594,-0.906 0.029,-0.133 -0.565,-0.222 -1.406,-0.344 0.207,-0.305 0.42,-0.597 0.625,-0.906 0.027,-0.123 -0.587,-0.263 -1.438,-0.375 0.208,-0.306 0.419,-0.596 0.625,-0.906 0.025,-0.112 -0.579,-0.241 -1.438,-0.344 0.215,-0.315 0.444,-0.618 0.656,-0.938 0.023,-0.102 -0.599,-0.187 -1.469,-0.281 0.226,-0.33 0.433,-0.665 0.656,-1 0.021,-0.093 -0.603,-0.165 -1.5,-0.25 0.237,-0.345 0.485,-0.681 0.719,-1.031 0.018,-0.082 -0.613,-0.144 -1.5,-0.219 0.24,-0.349 0.482,-0.708 0.719,-1.063 0.016,-0.073 -0.637,-0.121 -1.563,-0.188 0.247,-0.358 0.506,-0.698 0.75,-1.063 0.014,-0.062 -0.623,-0.162 -1.531,-0.219 0.248,-0.359 0.505,-0.698 0.75,-1.063 0.011,-0.051 -0.647,-0.109 -1.563,-0.156 0.258,-0.372 0.527,-0.747 0.781,-1.125 0.009,-0.041 -0.659,-0.087 -1.594,-0.125 0.266,-0.383 0.519,-0.767 0.781,-1.156 0.007,-0.031 -0.663,-0.065 -1.625,-0.094 0.277,-0.397 0.571,-0.783 0.844,-1.188 0.004,-0.017 -1.033,-0.047 -1.656,-0.063 0.283,-0.405 0.565,-0.806 0.844,-1.219 0.001,-0.005 -1.462,0.004 -1.656,0 0.295,-0.42 0.585,-0.853 0.875,-1.281 h -70.09 c -9.142,13.558 -15.419,21.928 -20.375,32.5 -0.303,0.5 -0.59,0.991 -0.875,1.5 h -0.5 c -0.005,-0.027 -0.219,-1 -0.219,-1 h -0.781 c -0.005,-0.027 -0.219,-1 -0.219,-1 h -0.781 c -0.005,-0.027 -0.219,-1 -0.219,-1 h -0.813 c -0.005,-0.025 -0.188,-0.969 -0.188,-0.969 h -0.781 c -0.005,-0.027 -0.219,-1 -0.219,-1 h -0.75 c -0.005,-0.027 -0.219,-1 -0.219,-1 h -0.781 c -0.005,-0.027 -0.219,-1 -0.219,-1 h -0.781 c -0.005,-0.027 -0.219,-1 -0.219,-1 h -0.781 c -0.005,-0.027 -0.219,-1 -0.219,-1 h -0.813 c -0.005,-0.025 -0.188,-0.969 -0.188,-0.969 h -0.781 c -0.005,-0.027 -0.219,-1 -0.219,-1 h -0.75 c -0.005,-0.027 -0.219,-1 -0.219,-1 h -0.781 c -0.005,-0.027 -0.219,-1 -0.219,-1 h -0.781 c -0.005,-0.027 -0.219,-1 -0.219,-1 h -0.781 c -0.005,-0.027 -0.219,-1 -0.219,-1 h -0.781 c -0.005,-0.027 -0.219,-1 -0.219,-1 h -0.813 c -0.005,-0.025 -0.188,-0.969 -0.188,-0.969 h -0.781 c -0.005,-0.027 -0.219,-1 -0.219,-1 h -0.75 c -0.005,-0.027 -0.219,-1 -0.219,-1 h -0.781 c -0.005,-0.027 -0.219,-1 -0.219,-1 h -0.781 c -0.005,-0.027 -0.219,-1 -0.219,-1 h -0.781 c -0.005,-0.027 -0.219,-1 -0.219,-1 h -0.813 c -0.005,-0.025 -0.188,-0.969 -0.188,-0.969 h -0.781 c -0.005,-0.027 -0.219,-1 -0.219,-1 h -0.75 c -0.005,-0.027 -0.219,-1 -0.219,-1 h -0.781 c -0.005,-0.027 -0.219,-1 -0.219,-1 h -0.781 c -0.005,-0.027 -0.219,-1 -0.219,-1 h -0.781 c -0.005,-0.027 -0.219,-1 -0.219,-1 h -0.813 c -0.005,-0.025 -0.188,-0.969 -0.188,-0.969 h -0.781 c -0.005,-0.027 -0.219,-1 -0.219,-1 h -0.75 c -0.005,-0.027 -0.219,-1 -0.219,-1 h -0.781 c -0.005,-0.027 -0.219,-1 -0.219,-1 h -0.781 c -0.005,-0.027 -0.219,-1 -0.219,-1 h -0.781 c -0.005,-0.027 -0.219,-1 -0.219,-1 h -0.813 l -0.188,-0.969 h -44.41"
     inkscape:connector-curvature="0"
     id="path8"
     style="fill-opacity:0.23500001" />
  <path
     d="m 214.43,140.23 -21.804,99.6 -19.04,-98.91 h -52.36 l 46.996,230.78 h 45.35 l 20.574,-98.13 20.03,98.19 h 18.02 l 7.978,-8.547 c 14.24,-17.275 29.325,-29.749 37.25,-46.876 3.09,-7.929 3.866,-14.75 2.399,-20.754 -1.303,-5.331 -4.358,-10.01 -9.147,-14.246 -11.08,-10.806 -21.286,-19.466 -27.05,-31.431 -4.967,-12.322 -7.874,-24.598 -9.537,-35.21 l -15.235,-74.47 h -44.42 m 100.23,0.84 c -9.142,13.558 -15.438,21.908 -20.394,32.48 -12.504,20.628 -9.747,49.647 0.3,71.05 5.655,14.493 18.336,22.75 27.622,33.05 4.586,4.772 7.337,10.336 8.697,16.225 2.158,9.343 0.772,19.458 -2.579,28.25 -8.872,19.856 -23.865,32.882 -39.2,49.4 h 74.38 c 10.843,-13.566 18.641,-31.01 23,-45.616 3.356,-11.45 5.04,-22.919 3.959,-33.08 -1.403,-10.692 -5.162,-20.873 -10.677,-28.731 -10.942,-15.03 -27.538,-28.29 -34.01,-40.458 -3.674,-7.435 -3.89,-15.213 -1.62,-25.942 5.268,-23.883 26.09,-35.18 40.608,-56.623 h -70.09"
     inkscape:connector-curvature="0"
     id="path10"
     style="fill:#ffffff" />
  <g
     id="g12"
     style="fill-rule:evenodd">
    <path
       d="M 256,1 C 115.17,1 1,115.17 1,256 1,396.83 115.17,511 256,511 396.83,511 511,396.83 511,256 511,115.17 396.83,1 256,1 m 8.827,44.931 c 120.9,0 218.9,98 218.9,218.9 0,120.9 -98,218.9 -218.9,218.9 -120.9,0 -218.93,-98 -218.93,-218.9 0,-120.9 98.03,-218.9 218.93,-218.9"
       inkscape:connector-curvature="0"
       id="path14"
       style="fill-opacity:0.06700003" />
    <g
       id="g16"
       style="fill-opacity:0.12900002">
      <path
         d="m 256,4.433 c -138.94,0 -251.57,112.63 -251.57,251.57 0,138.94 112.63,251.57 251.57,251.57 138.94,0 251.57,-112.63 251.57,-251.57 C 507.57,117.063 394.94,4.433 256,4.433 m 5.885,38.556 c 120.9,0 218.9,98 218.9,218.9 0,120.9 -98,218.9 -218.9,218.9 -120.9,0 -218.93,-98 -218.93,-218.9 0,-120.9 98.03,-218.9 218.93,-218.9"
         inkscape:connector-curvature="0"
         id="path18" />
      <path
         d="m 256,8.356 c -136.77,0 -247.64,110.87 -247.64,247.64 0,136.77 110.87,247.64 247.64,247.64 136.77,0 247.64,-110.87 247.64,-247.64 C 503.64,119.226 392.77,8.356 256,8.356 m 2.942,31.691 c 120.9,0 218.9,98 218.9,218.9 0,120.9 -98,218.9 -218.9,218.9 -120.9,0 -218.93,-98 -218.93,-218.9 0,-120.9 98.03,-218.9 218.93,-218.9"
         inkscape:connector-curvature="0"
         id="path20" />
    </g>
    <path
       d="m 253.04,7.859 c -135.42,0 -245.19,109.78 -245.19,245.19 0,135.42 109.78,245.19 245.19,245.19 135.42,0 245.19,-109.78 245.19,-245.19 0,-135.42 -109.78,-245.19 -245.19,-245.19 z m 0,26.297 c 120.9,0 218.9,98 218.9,218.9 0,120.9 -98,218.9 -218.9,218.9 -120.9,0 -218.93,-98 -218.93,-218.9 0,-120.9 98.03,-218.9 218.93,-218.9 z"
       inkscape:connector-curvature="0"
       id="path22"
       style="fill:#ffffff;stroke:#000000;stroke-width:4.90399981;stroke-opacity:0.31000001" />
  </g>
  <text
     x="729.64001"
     y="231.36"
     id="text24"
     style="font-size:129.22999573px;line-height:125%;letter-spacing:0;word-spacing:0;font-family:Gentium Book Basic">
    <tspan
       x="729.64001"
       y="231.36"
       id="tspan26" />
  </text>
  <text
     x="378.91"
     y="579.25"
     transform="scale(4.0128,0.2492)"
     id="text28"
     style="font-size:46.95399857px;text-anchor:middle;font-family:Arial" />
  <text
     x="1310.91"
     y="151.36"
     id="text30"
     style="font-size:129.22999573px;line-height:125%;letter-spacing:0;word-spacing:0;font-family:Gentium Book Basic">
    <tspan
       x="1310.91"
       y="151.36"
       id="tspan32" />
  </text>
  <text
     x="523.76001"
     y="258.22"
     transform="scale(4.0128,0.2492)"
     id="text34"
     style="font-size:46.95399857px;text-anchor:middle;font-family:Arial" />
  <text
     x="239.33"
     y="-29.900999"
     id="text36"
     style="font-size:129.22999573px;line-height:125%;letter-spacing:0;word-spacing:0;font-family:Gentium Book Basic">
    <tspan
       x="239.33"
       y="-29.900999"
       id="tspan38" />
  </text>
  <text
     x="256.72"
     y="-469.14001"
     transform="scale(4.0128,0.2492)"
     id="text40"
     style="font-size:46.95399857px;text-anchor:middle;font-family:Arial" />
  <text
     x="1337.38"
     y="-246.37"
     id="text42"
     style="font-size:129.22999573px;line-height:125%;letter-spacing:0;word-spacing:0;font-family:Gentium Book Basic">
    <tspan
       x="1337.38"
       y="-246.37"
       id="tspan44" />
  </text>
  <text
     x="530.35999"
     y="-1337.8101"
     transform="scale(4.0128,0.2492)"
     id="text46"
     style="font-size:46.95399857px;text-anchor:middle;font-family:Arial" />
  <text
     x="1918.65"
     y="-326.38"
     id="text48"
     style="font-size:129.22999573px;line-height:125%;letter-spacing:0;word-spacing:0;font-family:Gentium Book Basic">
    <tspan
       x="1918.65"
       y="-326.38"
       id="tspan50" />
  </text>
  <text
     x="675.21002"
     y="-1658.85"
     transform="scale(4.0128,0.2492)"
     id="text52"
     style="font-size:46.95399857px;text-anchor:middle;font-family:Arial" />
  <text
     x="1529.53"
     y="-798.78003"
     id="text54"
     style="font-size:129.22999573px;line-height:125%;letter-spacing:0;word-spacing:0;font-family:Gentium Book Basic">
    <tspan
       x="1529.53"
       y="-798.78003"
       id="tspan56" />
  </text>
  <text
     x="578.23999"
     y="-3554.51"
     transform="scale(4.0128,0.2492)"
     id="text58"
     style="font-size:46.95399857px;text-anchor:middle;font-family:Arial" />
  <text
     x="2110.79"
     y="-878.78003"
     id="text60"
     style="font-size:129.22999573px;line-height:125%;letter-spacing:0;word-spacing:0;font-family:Gentium Book Basic">
    <tspan
       x="2110.79"
       y="-878.78003"
       id="tspan62" />
  </text>
  <text
     x="723.09003"
     y="-3875.54"
     transform="scale(4.0128,0.2492)"
     id="text64"
     style="font-size:46.95399857px;text-anchor:middle;font-family:Arial" />
  <text
     x="277.98999"
     y="535.94"
     id="text66"
     style="font-size:208.33000183px;line-height:125%;letter-spacing:0;word-spacing:0;font-family:Gentium Book Basic">
    <tspan
       x="277.98999"
       y="535.94"
       id="tspan68" />
  </text>
</svg>
