<?xml version="1.0" encoding="UTF-8" standalone="no"?>
<!-- Created with Inkscape (http://www.inkscape.org/) -->

<svg
   xmlns:dc="http://purl.org/dc/elements/1.1/"
   xmlns:cc="http://creativecommons.org/ns#"
   xmlns:rdf="http://www.w3.org/1999/02/22-rdf-syntax-ns#"
   xmlns:svg="http://www.w3.org/2000/svg"
   xmlns="http://www.w3.org/2000/svg"
   xmlns:inkscape="http://www.inkscape.org/namespaces/inkscape"
   version="1.1"
   width="100%"
   height="100%"
   viewBox="0 0 512 512"
   id="svg2">
  <metadata
     id="metadata70">
    <rdf:RDF>
      <cc:Work
         rdf:about="">
        <dc:format>image/svg+xml</dc:format>
        <dc:type
           rdf:resource="http://purl.org/dc/dcmitype/StillImage" />
        <dc:title />
      </cc:Work>
    </rdf:RDF>
  </metadata>
  <defs
     id="defs68">
    <clipPath
       id="clipPath7687">
      <path
         d="m 471.9456,253.05189 c 0,120.89699 -98.00565,218.90724 -218.90724,218.90724 -120.89698,0 -218.90723,-98.00566 -218.90723,-218.90724 0,-120.89698 98.00565,-218.907232 218.90723,-218.907232 120.89699,0 218.90724,98.005652 218.90724,218.907232"
         inkscape:connector-curvature="0"
         id="path7689"
         style="fill:#68af4c;fill-opacity:1;fill-rule:evenodd" />
    </clipPath>
  </defs>
  <path
     d="m 471.9456,253.05189 c 0,120.89699 -98.00565,218.90724 -218.90724,218.90724 -120.89698,0 -218.90723,-98.00566 -218.90723,-218.90724 0,-120.89698 98.00565,-218.907232 218.90723,-218.907232 120.89699,0 218.90724,98.005652 218.90724,218.907232"
     inkscape:connector-curvature="0"
     id="path8"
     style="fill:#68af4c;fill-opacity:1;fill-rule:evenodd" />
  <path
     d="M 256,1 C 115.17,1 1,115.17 1,256 1,396.83 115.17,511 256,511 396.83,511 511,396.83 511,256 511,115.17 396.83,1 256,1 m 8.827,44.931 c 120.9,0 218.9,98 218.9,218.9 0,120.9 -98,218.9 -218.9,218.9 -120.9,0 -218.93,-98 -218.93,-218.9 0,-120.9 98.03,-218.9 218.93,-218.9"
     inkscape:connector-curvature="0"
     id="path10"
     style="fill-opacity:0.06700003;fill-rule:evenodd" />
  <path
     d="M 256,4.43 C 117.06,4.43 4.43,117.06 4.43,256 4.43,394.94 117.06,507.57 256,507.57 394.94,507.57 507.57,394.94 507.57,256 507.57,117.06 394.94,4.43 256,4.43 m 5.885,38.556 c 120.9,0 218.9,98 218.9,218.9 0,120.9 -98,218.9 -218.9,218.9 -120.9,0 -218.93,-98 -218.93,-218.9 0,-120.9 98.03,-218.9 218.93,-218.9"
     inkscape:connector-curvature="0"
     id="path14"
     style="fill-opacity:0.12900002;fill-rule:evenodd" />
  <path
     d="M 256,8.36 C 119.23,8.36 8.36,119.23 8.36,256 8.36,392.77 119.23,503.64 256,503.64 392.77,503.64 503.64,392.77 503.64,256 503.64,119.23 392.77,8.36 256,8.36 m 2.942,31.691 c 120.9,0 218.9,98 218.9,218.9 0,120.9 -98,218.9 -218.9,218.9 -120.9,0 -218.93,-98 -218.93,-218.9 0,-120.9 98.03,-218.9 218.93,-218.9"
     inkscape:connector-curvature="0"
     id="path16"
     style="fill-opacity:0.12900002;fill-rule:evenodd" />
  <path
     d="M 253.04,7.86 C 117.62,7.86 7.85,117.64 7.85,253.05 c 0,135.42 109.78,245.19 245.19,245.19 135.42,0 245.19,-109.78 245.19,-245.19 C 498.23,117.63 388.45,7.86 253.04,7.86 z m 0,26.297 c 120.9,0 218.9,98 218.9,218.9 0,120.9 -98,218.9 -218.9,218.9 -120.9,0 -218.93,-98 -218.93,-218.9 0,-120.9 98.03,-218.9 218.93,-218.9 z"
     inkscape:connector-curvature="0"
     id="path18"
     style="fill:#ffffff;fill-rule:evenodd;stroke:#000000;stroke-width:4.90399981;stroke-opacity:0.31000001" />
  <text
     x="729.64001"
     y="231.35997"
     id="text20"
     style="font-size:129.22999573px;line-height:125%;letter-spacing:0;word-spacing:0;font-family:Gentium Book Basic">
    <tspan
       x="729.64001"
       y="231.35997"
       id="tspan22" />
  </text>
  <text
     x="378.90805"
     y="579.25812"
     transform="scale(4.0128205,0.24920128)"
     id="text24"
     style="font-size:46.95375824px;text-anchor:middle;font-family:Arial" />
  <text
     x="1310.91"
     y="151.35997"
     id="text26"
     style="font-size:129.22999573px;line-height:125%;letter-spacing:0;word-spacing:0;font-family:Gentium Book Basic">
    <tspan
       x="1310.91"
       y="151.35997"
       id="tspan28" />
  </text>
  <text
     x="523.75732"
     y="258.21997"
     transform="scale(4.0128205,0.24920128)"
     id="text30"
     style="font-size:46.95375824px;text-anchor:middle;font-family:Arial" />
  <text
     x="239.33"
     y="-29.900009"
     id="text32"
     style="font-size:129.22999573px;line-height:125%;letter-spacing:0;word-spacing:0;font-family:Gentium Book Basic">
    <tspan
       x="239.33"
       y="-29.900009"
       id="tspan34" />
  </text>
  <text
     x="256.71869"
     y="-469.1264"
     transform="scale(4.0128205,0.24920128)"
     id="text36"
     style="font-size:46.95375824px;text-anchor:middle;font-family:Arial" />
  <text
     x="1337.38"
     y="-246.37001"
     id="text38"
     style="font-size:129.22999573px;line-height:125%;letter-spacing:0;word-spacing:0;font-family:Gentium Book Basic">
    <tspan
       x="1337.38"
       y="-246.37001"
       id="tspan40" />
  </text>
  <text
     x="530.3573"
     y="-1337.802"
     transform="scale(4.0128205,0.24920128)"
     id="text42"
     style="font-size:46.95375824px;text-anchor:middle;font-family:Arial" />
  <text
     x="1918.65"
     y="-326.37"
     id="text44"
     style="font-size:129.22999573px;line-height:125%;letter-spacing:0;word-spacing:0;font-family:Gentium Book Basic">
    <tspan
       x="1918.65"
       y="-326.37"
       id="tspan46" />
  </text>
  <text
     x="675.20654"
     y="-1658.8303"
     transform="scale(4.0128205,0.24920128)"
     id="text48"
     style="font-size:46.95375824px;text-anchor:middle;font-family:Arial" />
  <text
     x="1529.53"
     y="-798.77002"
     id="text50"
     style="font-size:129.22999573px;line-height:125%;letter-spacing:0;word-spacing:0;font-family:Gentium Book Basic">
    <tspan
       x="1529.53"
       y="-798.77002"
       id="tspan52" />
  </text>
  <text
     x="578.237"
     y="-3554.4807"
     transform="scale(4.0128205,0.24920128)"
     id="text54"
     style="font-size:46.95375824px;text-anchor:middle;font-family:Arial" />
  <text
     x="2110.79"
     y="-878.78003"
     id="text56"
     style="font-size:129.22999573px;line-height:125%;letter-spacing:0;word-spacing:0;font-family:Gentium Book Basic">
    <tspan
       x="2110.79"
       y="-878.78003"
       id="tspan58" />
  </text>
  <text
     x="723.0863"
     y="-3875.519"
     transform="scale(4.0128205,0.24920128)"
     id="text60"
     style="font-size:46.95375824px;text-anchor:middle;font-family:Arial" />
  <text
     x="277.98999"
     y="535.94006"
     id="text62"
     style="font-size:208.33000183px;line-height:125%;letter-spacing:0;word-spacing:0;font-family:Gentium Book Basic">
    <tspan
       x="277.98999"
       y="535.94006"
       id="tspan64" />
  </text>
  <g
     transform="matrix(3.7137797,0.77536577,-0.77536577,3.7137797,710.38532,-3693.5259)"
     id="g854"
     style="fill:#6a6f72;fill-opacity:1" />
  <g
     transform="matrix(12.554426,0,0,12.554426,-1229.6381,-242.47491)"
     id="g6692" />
  <g
     clip-path="url(#clipPath7687)"
     id="g6935"
     style="opacity:0.25;fill:#000000;fill-opacity:1;fill-rule:nonzero;stroke:none">
    <path
       d="m 246.38928,70.388743 c -0.0416,0 -0.21147,0.416749 -0.33612,0.904942 L 634.96189,460.20241 c 0.12465,-0.48819 0.29452,-0.90494 0.33612,-0.90494 z"
       inkscape:connector-curvature="0"
       id="path6937"
       style="fill:#000000" />
    <path
       d="m 246.05316,71.293685 c -0.47781,1.869703 -2.51647,8.841286 -4.13688,13.910256 L 630.82501,474.11267 c 1.62041,-5.06897 3.65907,-12.04055 4.13688,-13.91026 z"
       inkscape:connector-curvature="0"
       id="path6939"
       style="fill:#000000" />
    <path
       d="M 241.91628,85.203941 C 236.23447,103.14268 229.78061,119.36472 223.6106,131.175 l 388.90873,388.90873 c 6.17001,-11.81028 12.62387,-28.03232 18.30568,-45.97106 z"
       inkscape:connector-curvature="0"
       id="path6941"
       style="fill:#000000" />
    <path
       d="m 223.6106,131.175 c -3.7394,7.02176 -6.63814,11.61956 -10.57489,16.36652 l 388.90873,388.90873 c 3.93675,-4.74696 6.83549,-9.34476 10.57489,-16.36652 z"
       inkscape:connector-curvature="0"
       id="path6943"
       style="fill:#000000" />
    <path
       d="m 213.03571,147.54152 c -1.98397,2.2748 -2.39746,2.90745 -2.84411,3.80075 L 599.10033,540.251 c 0.44665,-0.8933 0.86014,-1.52595 2.84411,-3.80075 z"
       inkscape:connector-curvature="0"
       id="path6945"
       style="fill:#000000" />
    <path
       d="m 210.1916,151.34227 c -0.38138,0.75706 -0.43844,1.28252 -0.15229,1.56868 l 388.90873,388.90873 c -0.28616,-0.28616 -0.22909,-0.81162 0.15229,-1.56868 z"
       inkscape:connector-curvature="0"
       id="path6947"
       style="fill:#000000" />
    <path
       d="m 210.03931,152.91095 c 0.23603,0.23603 0.70556,0.30925 1.41921,0.21535 l 388.90873,388.90873 c -0.71365,0.0939 -1.18318,0.0207 -1.41921,-0.21535 z"
       inkscape:connector-curvature="0"
       id="path6949"
       style="fill:#000000" />
    <path
       d="m 211.45852,153.1263 c 1.42306,-0.15581 4.93749,-1.32521 13.49656,-4.57642 l 388.90873,388.90873 c -8.55907,3.25121 -12.0735,4.42061 -13.49656,4.57642 z"
       inkscape:connector-curvature="0"
       id="path6951"
       style="fill:#000000" />
    <path
       d="m 224.95508,148.54988 c 7.0495,-2.62284 8.4509,-3.1293 8.59625,-2.98395 l 388.90873,388.90873 c -0.14535,-0.14535 -1.54675,0.36111 -8.59625,2.98395 z"
       inkscape:connector-curvature="0"
       id="path6953"
       style="fill:#000000" />
    <path
       d="m 233.55133,145.56593 c 0.009,0.01 0.0136,0.0218 0.0136,0.0364 l 388.90873,388.90873 c 0,-0.0146 -0.004,-0.0269 -0.0136,-0.0364 z"
       inkscape:connector-curvature="0"
       id="path6955"
       style="fill:#000000" />
    <path
       d="m 233.56496,145.60235 c 0,0.4051 1.67193,6.38679 2.48213,8.66159 l 388.90873,388.90873 c -0.8102,-2.2748 -2.48213,-8.25649 -2.48213,-8.66159 z"
       inkscape:connector-curvature="0"
       id="path6957"
       style="fill:#000000" />
    <path
       d="m 236.04709,154.26394 c 4.10339,12.5098 9.96376,22.45387 18.03539,30.5255 l 388.90873,388.90873 c -8.07163,-8.07163 -13.932,-18.0157 -18.03539,-30.5255 z"
       inkscape:connector-curvature="0"
       id="path6959"
       style="fill:#000000" />
    <path
       d="m 254.08248,184.78944 c 3.26831,3.26832 6.89918,6.22963 10.92275,8.92998 l 388.90873,388.90873 c -4.02357,-2.70035 -7.65444,-5.66167 -10.92275,-8.92998 z"
       inkscape:connector-curvature="0"
       id="path6961"
       style="fill:#000000" />
    <path
       d="m 265.00523,193.71942 c 5.97266,3.97831 11.6613,6.85356 22.28744,11.19542 L 676.2014,593.82357 c -10.62614,-4.34186 -16.31478,-7.21711 -22.28744,-11.19542 z"
       inkscape:connector-curvature="0"
       id="path6963"
       style="fill:#000000" />
    <path
       d="m 287.29267,204.91484 c 15.58083,6.36737 18.53776,7.73828 23.45092,10.78174 l 388.90873,388.90873 c -4.91316,-3.04346 -7.87009,-4.41437 -23.45092,-10.78174 z"
       inkscape:connector-curvature="0"
       id="path6965"
       style="fill:#000000" />
    <path
       d="m 310.74359,215.69658 c 1.85877,1.1853 4.19439,2.90583 4.7933,3.50475 l 388.90873,388.90873 c -0.59891,-0.59892 -2.93453,-2.31945 -4.7933,-3.50475 z"
       inkscape:connector-curvature="0"
       id="path6967"
       style="fill:#000000" />
    <path
       d="m 315.53689,219.20133 c 0.0939,0.0939 0.1451,0.16021 0.1451,0.19259 l 388.90873,388.90873 c 0,-0.0324 -0.0512,-0.0987 -0.1451,-0.19259 z"
       inkscape:connector-curvature="0"
       id="path6969"
       style="fill:#000000" />
    <path
       d="m 315.68199,219.39392 c 0,0.12464 -1.82606,2.03289 -4.05931,4.26615 L 700.53141,612.5688 c 2.23325,-2.23326 4.05931,-4.14151 4.05931,-4.26615 z"
       inkscape:connector-curvature="0"
       id="path6971"
       style="fill:#000000" />
    <path
       d="m 311.62268,223.66007 -4.08517,4.08517 388.90873,388.90873 4.08517,-4.08517 z"
       inkscape:connector-curvature="0"
       id="path6973"
       style="fill:#000000" />
    <path
       d="m 307.53751,227.74524 -4.55056,-4.57643 388.90873,388.90873 4.55056,4.57643 z"
       inkscape:connector-curvature="0"
       id="path6975"
       style="fill:#000000" />
    <path
       d="m 302.98695,223.16881 c -2.91882,-2.88764 -4.71034,-4.55609 -4.83498,-4.47299 L 687.0607,607.60455 c 0.12464,-0.0831 1.91616,1.58535 4.83498,4.47299 z"
       inkscape:connector-curvature="0"
       id="path6977"
       style="fill:#000000" />
    <path
       d="m 298.15197,218.69582 c -0.2389,0.0416 -3.13729,10.27532 -9.46311,34.05168 l 388.90873,388.90873 c 6.32582,-23.77636 9.22421,-34.01008 9.46311,-34.05168 z"
       inkscape:connector-curvature="0"
       id="path6979"
       style="fill:#000000" />
    <path
       d="m 288.68886,252.7475 c -0.0241,0.0663 -0.0136,0.15145 0.0462,0.21123 l 388.90873,388.90873 c -0.0598,-0.0598 -0.0703,-0.14492 -0.0462,-0.21123 z"
       inkscape:connector-curvature="0"
       id="path6981"
       style="fill:#000000" />
    <path
       d="m 288.73501,252.95873 c 0.0432,0.0432 0.11218,0.0732 0.21241,0.0732 l 388.90873,388.90873 c -0.10023,0 -0.16919,-0.03 -0.21241,-0.0732 z"
       inkscape:connector-curvature="0"
       id="path6983"
       style="fill:#000000" />
    <path
       d="m 288.94742,253.03191 c 0.29084,0 31.88118,-8.4726 33.94825,-9.127 L 711.8044,632.81364 c -2.06707,0.6544 -33.65741,9.127 -33.94825,9.127 z"
       inkscape:connector-curvature="0"
       id="path6985"
       style="fill:#000000" />
    <path
       d="m 322.89567,243.90491 c 0.11425,-0.0728 0.25855,-0.15975 0.25855,-0.2844 l 388.90873,388.90873 c 0,0.12465 -0.1443,0.2116 -0.25855,0.2844 z"
       inkscape:connector-curvature="0"
       id="path6987"
       style="fill:#000000" />
    <path
       d="m 323.15422,243.62051 c 0,-0.12464 -2.00064,-2.23335 -4.47266,-4.70537 l 388.90873,388.90873 c 2.47201,2.47201 4.47266,4.58073 4.47266,4.70537 z"
       inkscape:connector-curvature="0"
       id="path6989"
       style="fill:#000000" />
    <path
       d="m 318.68156,238.91514 c -1.1e-4,-1.1e-4 -2.3e-4,-2.3e-4 -3.4e-4,-3.4e-4 l 388.90873,388.90873 c 1.1e-4,1.1e-4 2.3e-4,2.3e-4 3.4e-4,3.4e-4 z"
       inkscape:connector-curvature="0"
       id="path6991"
       style="fill:#000000" />
    <path
       d="m 318.68122,238.9148 c -0.33673,-0.3298 -0.66415,-0.65416 -0.97874,-0.96875 l 388.90873,388.90873 c 0.31459,0.31459 0.64201,0.63895 0.97874,0.96875 z"
       inkscape:connector-curvature="0"
       id="path6993"
       style="fill:#000000" />
    <path
       d="m 317.70248,237.94605 c -2.04354,-2.04354 -3.54596,-3.67507 -3.54596,-3.71109 l 388.90873,388.90873 c 0,0.036 1.50242,1.66755 3.54596,3.71109 z"
       inkscape:connector-curvature="0"
       id="path6995"
       style="fill:#000000" />
    <path
       d="m 314.15652,234.23496 c 0,-0.29084 8.0607,-8.29961 8.29961,-8.29961 l 388.90873,388.90873 c -0.23891,0 -8.29961,8.00877 -8.29961,8.29961 z"
       inkscape:connector-curvature="0"
       id="path6997"
       style="fill:#000000" />
    <path
       d="m 322.45613,225.93535 c 0.0545,0 0.19695,0.11713 0.40753,0.32771 l 388.90873,388.90873 c -0.21058,-0.21058 -0.35308,-0.32771 -0.40753,-0.32771 z"
       inkscape:connector-curvature="0"
       id="path6999"
       style="fill:#000000" />
    <path
       d="m 322.86366,226.26306 c 0.75354,0.75355 2.37895,2.70374 3.96205,4.76582 l 388.90873,388.90873 c -1.5831,-2.06208 -3.20851,-4.01227 -3.96205,-4.76582 z"
       inkscape:connector-curvature="0"
       id="path7001"
       style="fill:#000000" />
    <path
       d="m 326.82571,231.02888 c 10.06522,12.95288 16.43688,28.61388 18.09884,44.80756 l 388.90873,388.90873 c -1.66196,-16.19368 -8.03362,-31.85468 -18.09884,-44.80756 z"
       inkscape:connector-curvature="0"
       id="path7003"
       style="fill:#000000" />
    <path
       d="m 344.92455,275.83644 c 0.47781,4.42496 0.47159,4.99475 0.2327,5.11939 l 388.90873,388.90873 c 0.23889,-0.12464 0.24511,-0.69443 -0.2327,-5.11939 z"
       inkscape:connector-curvature="0"
       id="path7005"
       style="fill:#000000" />
    <path
       d="m 345.15725,280.95583 c -0.32155,0.28005 -11.36992,0.18746 -11.60817,-0.0508 l 388.90873,388.90873 c 0.23825,0.23824 11.28662,0.33083 11.60817,0.0508 z"
       inkscape:connector-curvature="0"
       id="path7007"
       style="fill:#000000" />
    <path
       d="m 333.54908,280.90505 c -3.4e-4,-3.4e-4 -6.5e-4,-6.8e-4 -9.5e-4,-0.001 l 388.90873,388.90873 c 2.9e-4,3.4e-4 6.1e-4,6.8e-4 9.5e-4,10e-4 z"
       inkscape:connector-curvature="0"
       id="path7009"
       style="fill:#000000" />
    <path
       d="m 333.54813,280.90403 c -0.005,-0.003 -0.009,-0.006 -0.0137,-0.0109 l 388.90873,388.90873 c 0.004,0.004 0.009,0.008 0.0137,0.0109 z"
       inkscape:connector-curvature="0"
       id="path7011"
       style="fill:#000000" />
    <path
       d="m 333.53441,280.89312 c -0.19398,-0.19398 -0.19312,-1.96806 -0.19312,-6.6081 l 388.90873,388.90873 c 0,4.64004 -8.6e-4,6.41412 0.19312,6.6081 z"
       inkscape:connector-curvature="0"
       id="path7013"
       style="fill:#000000" />
    <path
       d="m 333.34129,274.28502 c 0,-5.02797 10e-4,-6.10198 -0.18463,-6.28788 l 388.90873,388.90873 c 0.18591,0.1859 0.18463,1.25991 0.18463,6.28788 z"
       inkscape:connector-curvature="0"
       id="path7015"
       style="fill:#000000" />
    <path
       d="m 333.15666,267.99714 c -0.0464,-0.0465 -0.10459,-0.0375 -0.17735,-0.0208 l 388.90873,388.90873 c 0.0728,-0.0166 0.1309,-0.0256 0.17735,0.0208 z"
       inkscape:connector-curvature="0"
       id="path7017"
       style="fill:#000000" />
    <path
       d="m 332.97931,267.97629 c -0.4882,0.15581 -30.71632,17.51896 -30.71632,17.68516 l 388.90873,388.90873 c 0,-0.1662 30.22812,-17.52935 30.71632,-17.68516 z"
       inkscape:connector-curvature="0"
       id="path7019"
       style="fill:#000000" />
    <path
       d="m 302.26299,285.66145 c 0,0.0433 0.0418,0.10154 0.11118,0.17093 L 691.2829,674.74111 c -0.0694,-0.0694 -0.11118,-0.12767 -0.11118,-0.17093 z"
       inkscape:connector-curvature="0"
       id="path7021"
       style="fill:#000000" />
    <path
       d="m 302.37417,285.83238 c 0.0639,0.0639 0.1512,0.13722 0.2508,0.21689 L 691.5337,674.958 c -0.0996,-0.0797 -0.1869,-0.15299 -0.2508,-0.21689 z"
       inkscape:connector-curvature="0"
       id="path7023"
       style="fill:#000000" />
    <path
       d="m 302.62497,286.04927 c 0.92446,0.5713 30.43653,17.45245 30.56118,17.45245 l 388.90873,388.90873 c -0.12465,0 -29.63672,-16.88115 -30.56118,-17.45245 z"
       inkscape:connector-curvature="0"
       id="path7025"
       style="fill:#000000" />
    <path
       d="m 333.18615,303.50172 c 0.0831,0 0.15514,-2.87982 0.15514,-6.56728 l 388.90873,388.90873 c 0,3.68746 -0.072,6.56728 -0.15514,6.56728 z"
       inkscape:connector-curvature="0"
       id="path7027"
       style="fill:#000000" />
    <path
       d="m 333.34129,296.93444 0.0517,-6.54145 388.90873,388.90873 -0.0517,6.54145 z"
       inkscape:connector-curvature="0"
       id="path7029"
       style="fill:#000000" />
    <path
       d="m 333.39299,290.39299 11.89353,0 388.90873,388.90873 -11.89353,0 z"
       inkscape:connector-curvature="0"
       id="path7031"
       style="fill:#000000" />
    <path
       d="m 345.28652,290.39299 0,1.42206 388.90873,388.90873 0,-1.42206 z"
       inkscape:connector-curvature="0"
       id="path7033"
       style="fill:#000000" />
    <path
       d="m 345.28652,291.81505 c -0.16619,3.15771 -0.98862,9.05681 -1.96502,13.31557 l 388.90873,388.90873 c 0.9764,-4.25876 1.79883,-10.15786 1.96502,-13.31557 z"
       inkscape:connector-curvature="0"
       id="path7035"
       style="fill:#000000" />
    <path
       d="m 343.3215,305.13062 c -2.75261,12.73474 -8.34803,24.74576 -16.2631,35.00834 l 388.90873,388.90873 c 7.91507,-10.26258 13.51049,-22.2736 16.2631,-35.00834 z"
       inkscape:connector-curvature="0"
       id="path7037"
       style="fill:#000000" />
    <path
       d="m 327.0584,340.13896 c -1.4646,1.8697 -4.12515,5.11848 -4.44714,5.32622 l 388.90873,388.90873 c 0.32199,-0.20774 2.98254,-3.45652 4.44714,-5.32622 z"
       inkscape:connector-curvature="0"
       id="path7039"
       style="fill:#000000" />
    <path
       d="m 322.61126,345.46518 c -0.12007,0.0901 -2.92544,-2.59734 -5.27208,-4.94397 l 388.90873,388.90873 c 2.34664,2.34663 5.15201,5.03402 5.27208,4.94397 z"
       inkscape:connector-curvature="0"
       id="path7041"
       style="fill:#000000" />
    <path
       d="m 317.33918,340.52121 c -1.71365,-1.71366 -3.18267,-3.2456 -3.18267,-3.3815 l 388.90873,388.90873 c 0,0.1359 1.46902,1.66784 3.18267,3.3815 z"
       inkscape:connector-curvature="0"
       id="path7043"
       style="fill:#000000" />
    <path
       d="m 314.15651,337.13971 c 0,-0.0416 2.03686,-2.19199 4.55057,-4.70569 l 388.90873,388.90873 c -2.51371,2.5137 -4.55057,4.66409 -4.55057,4.70569 z"
       inkscape:connector-curvature="0"
       id="path7045"
       style="fill:#000000" />
    <path
       d="m 318.70708,332.43402 c 2.87726,-2.79417 4.52008,-4.49796 4.39543,-4.7057 l 388.90873,388.90873 c 0.12465,0.20774 -1.51817,1.91153 -4.39543,4.7057 z"
       inkscape:connector-curvature="0"
       id="path7047"
       style="fill:#000000" />
    <path
       d="m 323.10251,327.72832 c -0.29083,-0.24929 -34.16989,-9.37075 -34.33609,-9.20455 L 677.67515,707.4325 c 0.1662,-0.1662 34.04526,8.95526 34.33609,9.20455 z"
       inkscape:connector-curvature="0"
       id="path7049"
       style="fill:#000000" />
    <path
       d="m 288.76642,318.52377 c -0.11418,0.12456 9.00594,34.08579 9.25581,34.33566 l 388.90873,388.90873 c -0.24987,-0.24987 -9.36999,-34.2111 -9.25581,-34.33566 z"
       inkscape:connector-curvature="0"
       id="path7051"
       style="fill:#000000" />
    <path
       d="m 298.02223,352.85943 c 1.6e-4,1.6e-4 3.1e-4,3e-4 4.6e-4,4.3e-4 l 388.90873,388.90873 c -1.5e-4,-1.3e-4 -3e-4,-2.7e-4 -4.6e-4,-4.3e-4 z"
       inkscape:connector-curvature="0"
       id="path7053"
       style="fill:#000000" />
    <path
       d="m 298.02269,352.85986 c 10e-4,0.002 0.003,0.004 0.004,0.005 L 686.9357,741.77397 c -0.002,-0.002 -0.003,-0.003 -0.004,-0.005 z"
       inkscape:connector-curvature="0"
       id="path7055"
       style="fill:#000000" />
    <path
       d="m 298.02697,352.86524 c 0.15636,0.15636 1.92521,-1.59375 4.70142,-4.40081 l 388.90873,388.90873 c -2.77621,2.80706 -4.54506,4.55717 -4.70142,4.40081 z"
       inkscape:connector-curvature="0"
       id="path7057"
       style="fill:#000000" />
    <path
       d="m 302.72839,348.46443 c 2.5137,-2.48256 4.61707,-4.55058 4.78326,-4.55058 l 388.90873,388.90873 c -0.16619,0 -2.26956,2.06802 -4.78326,4.55058 z"
       inkscape:connector-curvature="0"
       id="path7059"
       style="fill:#000000" />
    <path
       d="m 307.51165,343.91385 c 0.177,0 1.80071,1.54079 3.55925,3.29933 l 388.90873,388.90873 c -1.75854,-1.75854 -3.38225,-3.29933 -3.55925,-3.29933 z"
       inkscape:connector-curvature="0"
       id="path7061"
       style="fill:#000000" />
    <path
       d="m 311.0709,347.21318 c 2.26623,2.26623 4.75638,4.89408 4.6628,5.052 l 388.90873,388.90873 c 0.0936,-0.15792 -2.39657,-2.78577 -4.6628,-5.052 z"
       inkscape:connector-curvature="0"
       id="path7063"
       style="fill:#000000" />
    <path
       d="m 315.7337,352.26518 c -0.12466,0.28045 -3.4291,3.14716 -5.66236,4.80911 l 388.90873,388.90873 c 2.23326,-1.66195 5.5377,-4.52866 5.66236,-4.80911 z"
       inkscape:connector-curvature="0"
       id="path7065"
       style="fill:#000000" />
    <path
       d="m 310.07134,357.07429 c -10.10676,7.74887 -22.02587,13.25171 -34.64635,16.05626 l 388.90873,388.90873 c 12.62048,-2.80455 24.53959,-8.30739 34.64635,-16.05626 z"
       inkscape:connector-curvature="0"
       id="path7067"
       style="fill:#000000" />
    <path
       d="m 275.42499,373.13055 c -4.17566,0.89331 -10.153,1.75728 -13.238,1.96502 L 651.09572,764.0043 c 3.085,-0.20774 9.06234,-1.07171 13.238,-1.96502 z"
       inkscape:connector-curvature="0"
       id="path7069"
       style="fill:#000000" />
    <path
       d="m 262.18699,375.09557 -1.52548,0.0258 388.90873,388.90873 1.52548,-0.0258 z"
       inkscape:connector-curvature="0"
       id="path7071"
       style="fill:#000000" />
    <path
       d="m 260.66151,375.12137 0,-11.91938 388.90873,388.90873 0,11.91938 z"
       inkscape:connector-curvature="0"
       id="path7073"
       style="fill:#000000" />
    <path
       d="m 260.66151,363.20199 6.56729,-0.0518 388.90873,388.90873 -6.56729,0.0518 z"
       inkscape:connector-curvature="0"
       id="path7075"
       style="fill:#000000" />
    <path
       d="m 267.2288,363.15019 c 4.38341,0 6.54144,-0.0822 6.54144,-0.20684 l 388.90873,388.90873 c 0,0.12464 -2.15803,0.20684 -6.54144,0.20684 z"
       inkscape:connector-curvature="0"
       id="path7077"
       style="fill:#000000" />
    <path
       d="m 273.77024,362.94335 c 0,-0.37098 -17.30257,-30.43963 -17.78036,-30.91741 l 388.90873,388.90872 c 0.47779,0.47779 17.78036,30.54644 17.78036,30.91742 z"
       inkscape:connector-curvature="0"
       id="path7079"
       style="fill:#000000" />
    <path
       d="m 255.98988,332.02594 c -0.004,-0.004 -0.007,-0.006 -0.008,-0.006 l 388.90873,388.90873 c 0.002,0 0.004,0.002 0.008,0.006 z"
       inkscape:connector-curvature="0"
       id="path7081"
       style="fill:#000000" />
    <path
       d="m 255.98166,332.02018 c -0.20774,0 -17.76271,30.60116 -17.76271,30.92317 l 388.90873,388.90873 c 0,-0.32201 17.55497,-30.92317 17.76271,-30.92317 z"
       inkscape:connector-curvature="0"
       id="path7083"
       style="fill:#000000" />
    <path
       d="m 238.21895,362.94335 c 0,0.002 8.1e-4,0.003 0.002,0.005 l 388.90873,388.90873 c -0.002,-0.002 -0.002,-0.003 -0.002,-0.005 z"
       inkscape:connector-curvature="0"
       id="path7085"
       style="fill:#000000" />
    <path
       d="m 238.22139,362.94824 c 0.0814,0.0814 2.20078,0.16122 6.53899,0.20195 l 388.90873,388.90873 c -4.33821,-0.0407 -6.45757,-0.12053 -6.53899,-0.20195 z"
       inkscape:connector-curvature="0"
       id="path7087"
       style="fill:#000000" />
    <path
       d="m 244.76038,363.15019 6.59315,0.0518 388.90873,388.90873 -6.59315,-0.0518 z"
       inkscape:connector-curvature="0"
       id="path7089"
       style="fill:#000000" />
    <path
       d="m 251.35353,363.20199 0,11.91938 388.90873,388.90873 0,-11.91938 z"
       inkscape:connector-curvature="0"
       id="path7091"
       style="fill:#000000" />
    <path
       d="m 251.35353,375.12137 -1.52547,-0.0258 388.90873,388.90873 1.52547,0.0258 z"
       inkscape:connector-curvature="0"
       id="path7093"
       style="fill:#000000" />
    <path
       d="m 249.82806,375.09557 c -3.04346,-0.20774 -8.99494,-1.07171 -13.21215,-1.96502 l 388.90873,388.90873 c 4.21721,0.89331 10.16869,1.75728 13.21215,1.96502 z"
       inkscape:connector-curvature="0"
       id="path7095"
       style="fill:#000000" />
    <path
       d="m 236.61591,373.13055 c -12.62048,-2.80455 -24.51858,-8.30739 -34.69807,-16.05626 l 388.90873,388.90873 c 10.17949,7.74887 22.07759,13.25171 34.69807,16.05626 z"
       inkscape:connector-curvature="0"
       id="path7097"
       style="fill:#000000" />
    <path
       d="m 201.91784,357.07429 c -1.85473,-1.40643 -4.54733,-3.67563 -5.38183,-4.51012 L 585.44474,741.4729 c 0.83449,0.83449 3.5271,3.10369 5.38183,4.51012 z"
       inkscape:connector-curvature="0"
       id="path7099"
       style="fill:#000000" />
    <path
       d="m 196.53601,352.56417 c -0.15161,-0.15161 -0.24189,-0.25587 -0.25467,-0.29899 l 388.90873,388.90873 c 0.0128,0.0431 0.10306,0.14737 0.25467,0.29899 z"
       inkscape:connector-curvature="0"
       id="path7101"
       style="fill:#000000" />
    <path
       d="m 196.28134,352.26518 c -0.12464,-0.29084 7.81695,-8.35133 8.22205,-8.35133 l 388.90873,388.90873 c -0.4051,0 -8.34669,8.06049 -8.22205,8.35133 z"
       inkscape:connector-curvature="0"
       id="path7103"
       style="fill:#000000" />
    <path
       d="m 204.50339,343.91385 c 0.14204,0 1.72928,1.48768 3.73089,3.48928 l 388.90873,388.90873 c -2.00161,-2.0016 -3.58885,-3.48928 -3.73089,-3.48928 z"
       inkscape:connector-curvature="0"
       id="path7105"
       style="fill:#000000" />
    <path
       d="m 208.23428,347.40313 c 0.34049,0.34049 0.69297,0.69586 1.05237,1.0613 l 388.90873,388.90873 c -0.3594,-0.36544 -0.71188,-0.72081 -1.05237,-1.0613 z"
       inkscape:connector-curvature="0"
       id="path7107"
       style="fill:#000000" />
    <path
       d="m 209.28665,348.46443 c 0.65414,0.66372 1.25025,1.26617 1.78183,1.79775 l 388.90873,388.90873 c -0.53158,-0.53158 -1.12769,-1.13403 -1.78183,-1.79775 z"
       inkscape:connector-curvature="0"
       id="path7109"
       style="fill:#000000" />
    <path
       d="m 211.06848,350.26218 c 1.77287,1.77287 2.82798,2.7575 2.92388,2.59768 l 388.90873,388.90873 c -0.0959,0.15982 -1.15101,-0.82481 -2.92388,-2.59768 z"
       inkscape:connector-curvature="0"
       id="path7111"
       style="fill:#000000" />
    <path
       d="m 213.99236,352.85986 c 0.33238,-0.2493 9.43262,-34.21144 9.30797,-34.33609 L 612.20906,707.4325 c 0.12465,0.12465 -8.97559,34.08679 -9.30797,34.33609 z"
       inkscape:connector-curvature="0"
       id="path7113"
       style="fill:#000000" />
    <path
       d="m 223.30033,318.52377 c 0,0 0,0 0,0 L 612.20906,707.4325 c 0,0 0,0 0,0 z"
       inkscape:connector-curvature="0"
       id="path7115"
       style="fill:#000000" />
    <path
       d="m 223.30033,318.52377 c -0.20774,-0.0831 -34.08149,8.99681 -34.36194,9.20455 l 388.90873,388.90873 c 0.28045,-0.20774 34.1542,-9.28765 34.36194,-9.20455 z"
       inkscape:connector-curvature="0"
       id="path7117"
       style="fill:#000000" />
    <path
       d="m 188.93839,327.72832 c -0.0749,0.14035 1.22981,1.57054 3.56218,3.90291 L 581.4093,720.53996 c -2.33237,-2.33237 -3.63704,-3.76256 -3.56218,-3.90291 z"
       inkscape:connector-curvature="0"
       id="path7119"
       style="fill:#000000" />
    <path
       d="m 192.50057,331.63123 c 0.25683,0.25683 0.52612,0.5246 0.8074,0.80279 L 582.2167,721.34275 c -0.28128,-0.27819 -0.55057,-0.54596 -0.8074,-0.80279 z"
       inkscape:connector-curvature="0"
       id="path7121"
       style="fill:#000000" />
    <path
       d="m 193.30797,332.43402 c 2.5137,2.5137 4.57642,4.66417 4.57642,4.70569 l 388.90873,388.90873 c 0,-0.0415 -2.06272,-2.19199 -4.57642,-4.70569 z"
       inkscape:connector-curvature="0"
       id="path7123"
       style="fill:#000000" />
    <path
       d="m 197.88439,337.13971 c 0,0.32201 -8.2417,8.49167 -8.48061,8.32547 l 388.90873,388.90873 c 0.23891,0.1662 8.48061,-8.00346 8.48061,-8.32547 z"
       inkscape:connector-curvature="0"
       id="path7125"
       style="fill:#000000" />
    <path
       d="m 189.40378,345.46518 c -0.0225,-0.0169 -0.0557,-0.0473 -0.0984,-0.09 l 388.90873,388.90873 c 0.0427,0.0427 0.0758,0.0732 0.0984,0.09 z"
       inkscape:connector-curvature="0"
       id="path7127"
       style="fill:#000000" />
    <path
       d="m 189.30542,345.37514 c -0.58761,-0.58761 -2.98339,-3.49313 -4.34878,-5.23618 l 388.90873,388.90873 c 1.36539,1.74305 3.76117,4.64857 4.34878,5.23618 z"
       inkscape:connector-curvature="0"
       id="path7129"
       style="fill:#000000" />
    <path
       d="m 184.95664,340.13896 c -7.83196,-10.26258 -13.4791,-22.23204 -16.31481,-35.00834 l 388.90873,388.90873 c 2.83571,12.7763 8.48285,24.74576 16.31481,35.00834 z"
       inkscape:connector-curvature="0"
       id="path7131"
       style="fill:#000000" />
    <path
       d="m 168.64183,305.13062 c -0.93484,-4.25876 -1.73695,-10.06437 -1.8616,-13.31557 l 388.90873,388.90873 c 0.12465,3.2512 0.92676,9.05681 1.8616,13.31557 z"
       inkscape:connector-curvature="0"
       id="path7133"
       style="fill:#000000" />
    <path
       d="m 166.78023,291.81505 -0.0517,-1.42206 388.90873,388.90873 0.0517,1.42206 z"
       inkscape:connector-curvature="0"
       id="path7135"
       style="fill:#000000" />
    <path
       d="m 166.72853,290.39299 11.84181,0 388.90873,388.90873 -11.84181,0 z"
       inkscape:connector-curvature="0"
       id="path7137"
       style="fill:#000000" />
    <path
       d="m 178.57034,290.39299 0.0517,6.54145 388.90873,388.90873 -0.0517,-6.54145 z"
       inkscape:connector-curvature="0"
       id="path7139"
       style="fill:#000000" />
    <path
       d="m 178.62204,296.93444 c 0.0717,3.64414 0.14737,6.48376 0.22908,6.56547 l 388.90873,388.90873 c -0.0817,-0.0817 -0.15734,-2.92133 -0.22908,-6.56547 z"
       inkscape:connector-curvature="0"
       id="path7141"
       style="fill:#000000" />
    <path
       d="m 178.85112,303.49991 c 0.001,10e-4 0.002,0.002 0.004,0.002 l 388.90873,388.90873 c -0.001,0 -0.002,-6.1e-4 -0.004,-0.002 z"
       inkscape:connector-curvature="0"
       id="path7143"
       style="fill:#000000" />
    <path
       d="m 178.85474,303.50172 c 0.0312,0 29.54323,-16.88115 30.56118,-17.45245 L 598.32465,674.958 c -1.01795,0.5713 -30.52998,17.45245 -30.56118,17.45245 z"
       inkscape:connector-curvature="0"
       id="path7145"
       style="fill:#000000" />
    <path
       d="m 209.41592,286.04927 c 0.0728,-0.16619 0.28442,-0.34628 0.28442,-0.38782 l 388.90873,388.90873 c 0,0.0415 -0.21162,0.22163 -0.28442,0.38782 z"
       inkscape:connector-curvature="0"
       id="path7147"
       style="fill:#000000" />
    <path
       d="m 209.70034,285.66145 c 0,-6e-4 -7e-4,-0.002 -0.002,-0.003 l 388.90873,388.90873 c 10e-4,10e-4 0.002,0.002 0.002,0.003 z"
       inkscape:connector-curvature="0"
       id="path7149"
       style="fill:#000000" />
    <path
       d="m 209.69823,285.65844 c -0.28866,-0.28866 -30.15604,-17.44439 -30.76593,-17.68215 l 388.90873,388.90873 c 0.60989,0.23776 30.47727,17.39349 30.76593,17.68215 z"
       inkscape:connector-curvature="0"
       id="path7151"
       style="fill:#000000" />
    <path
       d="m 178.9323,267.97629 c -0.2389,-0.0831 -0.23269,0.0245 -0.23269,6.30873 l 388.90873,388.90873 c 0,-6.28423 -0.006,-6.39183 0.23269,-6.30873 z"
       inkscape:connector-curvature="0"
       id="path7153"
       style="fill:#000000" />
    <path
       d="m 178.69961,274.28502 c 0,4.78852 -0.10806,6.49437 -0.2327,6.61901 l 388.90873,388.90873 c 0.12464,-0.12464 0.2327,-1.83049 0.2327,-6.61901 z"
       inkscape:connector-curvature="0"
       id="path7155"
       style="fill:#000000" />
    <path
       d="m 178.46691,280.90403 c -0.19736,0.28046 -11.29728,0.29062 -11.66083,0.0518 l 388.90873,388.90873 c 0.36355,0.23882 11.46347,0.22866 11.66083,-0.0518 z"
       inkscape:connector-curvature="0"
       id="path7157"
       style="fill:#000000" />
    <path
       d="m 166.80608,280.95583 c -0.0112,-0.007 -0.0218,-0.0147 -0.0316,-0.0246 l 388.90873,388.90873 c 0.01,0.01 0.0204,0.0179 0.0316,0.0246 z"
       inkscape:connector-curvature="0"
       id="path7159"
       style="fill:#000000" />
    <path
       d="m 166.77446,280.93122 c -0.17277,-0.17276 -0.13237,-0.90864 0.29017,-5.09478 l 388.90873,388.90873 c -0.42254,4.18614 -0.46294,4.92202 -0.29017,5.09478 z"
       inkscape:connector-curvature="0"
       id="path7161"
       style="fill:#000000" />
    <path
       d="m 167.06463,275.83644 c 1.7035,-16.11058 8.05948,-31.86507 18.1247,-44.80756 l 388.90873,388.90873 c -10.06522,12.94249 -16.4212,28.69698 -18.1247,44.80756 z"
       inkscape:connector-curvature="0"
       id="path7163"
       style="fill:#000000" />
    <path
       d="m 185.18933,231.02888 c 1.99435,-2.63835 4.15653,-5.09353 4.39543,-5.09353 l 388.90873,388.90873 c -0.2389,0 -2.40108,2.45518 -4.39543,5.09353 z"
       inkscape:connector-curvature="0"
       id="path7165"
       style="fill:#000000" />
    <path
       d="m 189.58476,225.93535 c 0.10148,0 2.07809,1.92343 4.07366,3.919 l 388.90873,388.90873 c -1.99557,-1.99557 -3.97218,-3.919 -4.07366,-3.919 z"
       inkscape:connector-curvature="0"
       id="path7167"
       style="fill:#000000" />
    <path
       d="m 193.65842,229.85435 c 2.08965,2.08965 4.2001,4.25841 4.2001,4.38061 l 388.90873,388.90873 c 0,-0.1222 -2.11045,-2.29096 -4.2001,-4.38061 z"
       inkscape:connector-curvature="0"
       id="path7169"
       style="fill:#000000" />
    <path
       d="m 197.85852,234.23496 c 0,0.0831 -2.05255,2.2077 -4.52471,4.67984 l 388.90873,388.90873 c 2.47216,-2.47214 4.52471,-4.59674 4.52471,-4.67984 z"
       inkscape:connector-curvature="0"
       id="path7171"
       style="fill:#000000" />
    <path
       d="m 193.33381,238.9148 c -2.48255,2.47216 -4.49885,4.58106 -4.49885,4.70571 l 388.90873,388.90873 c 0,-0.12465 2.0163,-2.23355 4.49885,-4.70571 z"
       inkscape:connector-curvature="0"
       id="path7173"
       style="fill:#000000" />
    <path
       d="m 188.83496,243.62051 c 0,0.0149 0.0184,0.0395 0.0496,0.0707 l 388.90873,388.90873 c -0.0312,-0.0312 -0.0496,-0.0558 -0.0496,-0.0707 z"
       inkscape:connector-curvature="0"
       id="path7175"
       style="fill:#000000" />
    <path
       d="m 188.88453,243.69118 c 0.0561,0.0562 0.15385,0.13361 0.26069,0.21373 l 388.90873,388.90873 c -0.10684,-0.0801 -0.20454,-0.15757 -0.26069,-0.21373 z"
       inkscape:connector-curvature="0"
       id="path7177"
       style="fill:#000000" />
    <path
       d="m 189.14522,243.90491 c 2.03589,0.6544 33.70935,9.127 33.94825,9.127 L 612.0022,641.94064 c -0.2389,0 -31.91236,-8.4726 -33.94825,-9.127 z"
       inkscape:connector-curvature="0"
       id="path7179"
       style="fill:#000000" />
    <path
       d="m 223.09347,253.03191 c 0.23893,0 0.34167,-0.0766 0.25856,-0.28441 l 388.90873,388.90873 c 0.0831,0.20781 -0.0196,0.28441 -0.25856,0.28441 z"
       inkscape:connector-curvature="0"
       id="path7181"
       style="fill:#000000" />
    <path
       d="m 223.35203,252.7475 c -6.3975,-23.5399 -9.18362,-33.79958 -9.43161,-34.04758 l 388.90873,388.90873 c 0.24799,0.248 3.03411,10.50768 9.43161,34.04758 z"
       inkscape:connector-curvature="0"
       id="path7183"
       style="fill:#000000" />
    <path
       d="m 213.92042,218.69992 c -0.002,-0.002 -0.004,-0.003 -0.006,-0.004 l 388.90873,388.90873 c 0.002,6.8e-4 0.004,0.002 0.006,0.004 z"
       inkscape:connector-curvature="0"
       id="path7185"
       style="fill:#000000" />
    <path
       d="m 213.91478,218.69582 c -0.16619,-0.0416 -1.95772,1.63728 -4.83498,4.47299 l 388.90873,388.90873 c 2.87726,-2.83571 4.66879,-4.51459 4.83498,-4.47299 z"
       inkscape:connector-curvature="0"
       id="path7187"
       style="fill:#000000" />
    <path
       d="m 209.0798,223.16881 -4.55056,4.57643 388.90873,388.90873 4.55056,-4.57643 z"
       inkscape:connector-curvature="0"
       id="path7189"
       style="fill:#000000" />
    <path
       d="m 204.52924,227.74524 -16.54751,-16.54752 388.90873,388.90873 16.54751,16.54752 z"
       inkscape:connector-curvature="0"
       id="path7191"
       style="fill:#000000" />
    <path
       d="m 187.98173,211.19772 c -9.08883,-9.08881 -16.68142,-16.54751 -16.80607,-16.54751 l 388.90873,388.90873 c 0.12465,0 7.71724,7.4587 16.80607,16.54751 z"
       inkscape:connector-curvature="0"
       id="path7193"
       style="fill:#000000" />
    <path
       d="m 171.17566,194.65021 c -0.40511,0 -7.01127,6.71976 -9.56653,9.72166 L 550.51786,593.2806 c 2.55526,-3.0019 9.16142,-9.72166 9.56653,-9.72166 z"
       inkscape:connector-curvature="0"
       id="path7195"
       style="fill:#000000" />
    <path
       d="m 161.60913,204.37187 c -19.83964,23.25701 -30.26639,51.38879 -30.22503,81.57407 l 388.90873,388.90873 c -0.0414,-30.18528 10.38539,-58.31706 30.22503,-81.57407 z"
       inkscape:connector-curvature="0"
       id="path7197"
       style="fill:#000000" />
    <path
       d="m 131.3841,285.94594 c -8e-5,29.62437 10.65272,58.41437 29.68206,80.69498 l 388.90873,388.90873 c -19.02934,-22.28061 -29.68214,-51.07061 -29.68206,-80.69498 z"
       inkscape:connector-curvature="0"
       id="path7199"
       style="fill:#000000" />
    <path
       d="m 161.06616,366.64092 c 2.15019,2.50517 4.38175,4.9129 6.68948,7.22063 l 388.90873,388.90873 c -2.30773,-2.30773 -4.53929,-4.71546 -6.68948,-7.22063 z"
       inkscape:connector-curvature="0"
       id="path7201"
       style="fill:#000000" />
    <path
       d="m 167.75564,373.86155 c 22.47481,22.47481 52.17387,35.4646 84.29598,36.60441 l 388.90873,388.90873 c -32.12211,-1.13981 -61.82117,-14.1296 -84.29598,-36.60441 z"
       inkscape:connector-curvature="0"
       id="path7203"
       style="fill:#000000" />
    <path
       d="m 252.05162,410.46596 -0.10342,-0.0258 388.90873,388.90873 0.10342,0.0258 z"
       inkscape:connector-curvature="0"
       id="path7205"
       style="fill:#000000" />
    <path
       d="m 251.9482,410.44016 c 9.74321,0.32201 20.67853,-0.69947 30.3802,-2.76653 l 388.90873,388.90873 c -9.70167,2.06706 -20.63699,3.08854 -30.3802,2.76653 z"
       inkscape:connector-curvature="0"
       id="path7207"
       style="fill:#000000" />
    <path
       d="m 282.3284,407.67363 c 18.17764,-3.93677 35.07321,-11.82323 49.92694,-23.26994 l 388.90873,388.90873 c -14.85373,11.44671 -31.7493,19.33317 -49.92694,23.26994 z"
       inkscape:connector-curvature="0"
       id="path7209"
       style="fill:#000000" />
    <path
       d="m 332.25534,384.40369 c 26.33162,-20.30703 43.60132,-50.77179 47.49653,-83.72007 L 768.6606,689.59235 c -3.89521,32.94828 -21.16491,63.41304 -47.49653,83.72007 z"
       inkscape:connector-curvature="0"
       id="path7211"
       style="fill:#000000" />
    <path
       d="m 379.75187,300.68362 c 4.41457,-37.90298 -8.22057,-75.15817 -34.80148,-102.25845 L 733.85912,587.3339 c 26.58091,27.10028 39.21605,64.35547 34.80148,102.25845 z"
       inkscape:connector-curvature="0"
       id="path7213"
       style="fill:#000000" />
    <path
       d="m 344.95039,198.42517 c -0.38202,-0.39653 -0.7636,-0.78543 -1.14552,-1.16735 L 732.7136,586.16655 c 0.38192,0.38192 0.7635,0.77082 1.14552,1.16735 z"
       inkscape:connector-curvature="0"
       id="path7215"
       style="fill:#000000" />
    <path
       d="m 343.80487,197.25782 c -3.99,-3.99 -8.01622,-7.21862 -12.94573,-10.44176 l 388.90873,388.90873 c 4.92951,3.22314 8.95572,6.45176 12.94573,10.44176 z"
       inkscape:connector-curvature="0"
       id="path7217"
       style="fill:#000000" />
    <path
       d="m 330.85914,186.81606 c -6.53355,-4.25876 -14.0304,-7.99517 -25.67449,-12.61748 l 388.90873,388.90873 c 11.64409,4.62231 19.14094,8.35872 25.67449,12.61748 z"
       inkscape:connector-curvature="0"
       id="path7219"
       style="fill:#000000" />
    <path
       d="m 305.18465,174.19858 c -14.93683,-5.96227 -20.82875,-9.09126 -25.70035,-13.75512 l 388.90873,388.90873 c 4.8716,4.66386 10.76352,7.79285 25.70035,13.75512 z"
       inkscape:connector-curvature="0"
       id="path7221"
       style="fill:#000000" />
    <path
       d="m 279.4843,160.44346 c -0.19399,-0.18406 -0.38596,-0.37107 -0.57593,-0.56104 L 667.8171,548.79115 c 0.18997,0.18997 0.38194,0.37698 0.57593,0.56104 z"
       inkscape:connector-curvature="0"
       id="path7223"
       style="fill:#000000" />
    <path
       d="m 278.90837,159.88242 c -4.58073,-4.58073 -7.99351,-10.87939 -10.25753,-18.90815 L 657.55957,529.883 c 2.26402,8.02876 5.6768,14.32742 10.25753,18.90815 z"
       inkscape:connector-curvature="0"
       id="path7225"
       style="fill:#000000" />
    <path
       d="m 268.65084,140.97427 c -0.61284,-2.23325 -0.59568,-2.19308 0.82738,-2.06843 l 388.90873,388.90873 c -1.42306,-0.12465 -1.44022,-0.16482 -0.82738,2.06843 z"
       inkscape:connector-curvature="0"
       id="path7227"
       style="fill:#000000" />
    <path
       d="m 269.47822,138.90584 c 1.53731,0.16619 4.58559,0.81474 6.05018,1.34449 l 388.90873,388.90873 c -1.46459,-0.52975 -4.51287,-1.1783 -6.05018,-1.34449 z"
       inkscape:connector-curvature="0"
       id="path7229"
       style="fill:#000000" />
    <path
       d="m 275.5284,140.25033 c 3.68748,1.29839 5.63531,2.55386 9.48897,6.28288 L 673.9261,535.44194 c -3.85366,-3.72902 -5.80149,-4.98449 -9.48897,-6.28288 z"
       inkscape:connector-curvature="0"
       id="path7231"
       style="fill:#000000" />
    <path
       d="m 285.01737,146.53321 c 2.43061,2.31635 3.23499,2.88169 3.72318,2.55969 l 388.90873,388.90873 c -0.48819,0.322 -1.29257,-0.24334 -3.72318,-2.55969 z"
       inkscape:connector-curvature="0"
       id="path7233"
       style="fill:#000000" />
    <path
       d="m 288.74055,149.0929 c 1.62041,-1.0595 -4.86474,-14.40963 -19.46917,-39.97259 l 388.90873,388.90873 c 14.60443,25.56296 21.08958,38.91309 19.46917,39.97259 z"
       inkscape:connector-curvature="0"
       id="path7235"
       style="fill:#000000" />
    <path
       d="M 269.27138,109.12031 C 262.22712,96.744162 247.06612,71.060254 246.40757,70.401707 L 635.3163,459.31044 c 0.65855,0.65854 15.81955,26.34245 22.86381,38.7186 z"
       inkscape:connector-curvature="0"
       id="path7237"
       style="fill:#000000" />
    <path
       d="m 246.40757,70.401707 c -0.009,-0.0086 -0.0147,-0.01291 -0.0183,-0.01291 L 635.298,459.29753 c 0.004,0 0.01,0.004 0.0183,0.0129 z"
       inkscape:connector-curvature="0"
       id="path7239"
       style="fill:#000000" />
    <path
       d="m 256.08509,244.21519 c -3.20965,0 -4.66315,0.0454 -6.12775,0.2844 l 388.90873,388.90873 c 1.4646,-0.239 2.9181,-0.2844 6.12775,-0.2844 z"
       inkscape:connector-curvature="0"
       id="path7241"
       style="fill:#000000" />
    <path
       d="m 249.95734,244.49959 c -14.24088,2.19171 -26.25434,11.27858 -32.06081,24.30416 l 388.90873,388.90873 c 5.80647,-13.02558 17.81993,-22.11245 32.06081,-24.30416 z"
       inkscape:connector-curvature="0"
       id="path7243"
       style="fill:#000000" />
    <path
       d="m 217.89653,268.80375 c -1.57886,3.53167 -2.57223,7.11765 -3.25778,11.37641 l 388.90873,388.90873 c 0.68555,-4.25876 1.67892,-7.84474 3.25778,-11.37641 z"
       inkscape:connector-curvature="0"
       id="path7245"
       style="fill:#000000" />
    <path
       d="m 214.63875,280.18016 c -0.44666,2.87727 -0.41063,8.94334 0.0775,11.94524 l 388.90873,388.90873 c -0.48813,-3.0019 -0.52416,-9.06797 -0.0775,-11.94524 z"
       inkscape:connector-curvature="0"
       id="path7247"
       style="fill:#000000" />
    <path
       d="m 214.71625,292.1254 c 1.42306,8.83954 5.22209,16.52027 11.35056,22.80454 l 388.90873,388.90873 c -6.12847,-6.28427 -9.9275,-13.965 -11.35056,-22.80454 z"
       inkscape:connector-curvature="0"
       id="path7249"
       style="fill:#000000" />
    <path
       d="m 226.06681,314.92994 c 0.20266,0.20967 0.40485,0.41539 0.6068,0.61733 L 615.58234,704.456 c -0.20195,-0.20195 -0.40414,-0.40766 -0.6068,-0.61733 z"
       inkscape:connector-curvature="0"
       id="path7251"
       style="fill:#000000" />
    <path
       d="m 226.67361,315.54727 c 3.38957,3.38957 6.70852,5.71638 11.00232,7.86327 l 388.90873,388.90873 c -4.2938,-2.14689 -7.61275,-4.4737 -11.00232,-7.86327 z"
       inkscape:connector-curvature="0"
       id="path7253"
       style="fill:#000000" />
    <path
       d="m 237.67593,323.41054 c 4.9547,2.38906 9.28536,3.6016 15.69428,4.21444 l 388.90873,388.90873 c -6.40892,-0.61284 -10.73958,-1.82538 -15.69428,-4.21444 z"
       inkscape:connector-curvature="0"
       id="path7255"
       style="fill:#000000" />
    <path
       d="m 253.37021,327.62498 0.0517,0.0517 388.90873,388.90873 -0.0517,-0.0517 z"
       inkscape:connector-curvature="0"
       id="path7257"
       style="fill:#000000" />
    <path
       d="m 253.42191,327.67668 c 0.36355,0.0416 1.97351,0.0416 3.59392,0 l 388.90873,388.90873 c -1.62041,0.0416 -3.23037,0.0416 -3.59392,0 z"
       inkscape:connector-curvature="0"
       id="path7259"
       style="fill:#000000" />
    <path
       d="m 257.01583,327.67668 c 6.37774,-0.0831 11.77064,-1.37872 17.45245,-4.21444 l 388.90873,388.90873 c -5.68181,2.83572 -11.07471,4.13134 -17.45245,4.21444 z"
       inkscape:connector-curvature="0"
       id="path7261"
       style="fill:#000000" />
    <path
       d="m 274.46828,323.46224 c 4.53922,-2.23326 7.95281,-4.79845 11.60912,-8.45474 l 388.90873,388.90873 c -3.65631,3.65629 -7.0699,6.22148 -11.60912,8.45474 z"
       inkscape:connector-curvature="0"
       id="path7263"
       style="fill:#000000" />
    <path
       d="m 286.0774,315.0075 c 3.3239,-3.49011 5.57047,-6.68275 7.67908,-11.06615 l 388.90873,388.90873 c -2.10861,4.3834 -4.35518,7.57604 -7.67908,11.06615 z"
       inkscape:connector-curvature="0"
       id="path7265"
       style="fill:#000000" />
    <path
       d="m 293.75648,303.94135 c 1.81777,-3.78095 2.98592,-7.51565 3.67147,-11.81596 l 388.90873,388.90873 c -0.68555,4.30031 -1.8537,8.03501 -3.67147,11.81596 z"
       inkscape:connector-curvature="0"
       id="path7267"
       style="fill:#000000" />
    <path
       d="m 297.42795,292.12539 c 0.48821,-3.0019 0.52422,-9.06797 0.0776,-11.94524 l 388.90873,388.90873 c 0.44662,2.87727 0.41061,8.94334 -0.0776,11.94524 z"
       inkscape:connector-curvature="0"
       id="path7269"
       style="fill:#000000" />
    <path
       d="m 297.50555,280.18015 c -0.64402,-4.25876 -1.7048,-7.84475 -3.28365,-11.37641 l 388.90873,388.90873 c 1.57885,3.53166 2.63963,7.11765 3.28365,11.37641 z"
       inkscape:connector-curvature="0"
       id="path7271"
       style="fill:#000000" />
    <path
       d="m 294.2219,268.80374 c -2.10777,-4.72836 -5.03006,-8.93771 -8.57897,-12.48662 l 388.90873,388.90873 c 3.54891,3.54891 6.4712,7.75826 8.57897,12.48662 z"
       inkscape:connector-curvature="0"
       id="path7273"
       style="fill:#000000" />
    <path
       d="m 285.64293,256.31712 c -6.22754,-6.22754 -14.38461,-10.42144 -23.45598,-11.81754 l 388.90873,388.90873 c 9.07137,1.3961 17.22844,5.59 23.45598,11.81754 z"
       inkscape:connector-curvature="0"
       id="path7275"
       style="fill:#000000" />
    <path
       d="m 262.18695,244.49958 c -1.4646,-0.23891 -2.93379,-0.28441 -6.10189,-0.28441 L 644.99379,633.1239 c 3.1681,0 4.63729,0.0455 6.10189,0.28441 z"
       inkscape:connector-curvature="0"
       id="path7277"
       style="fill:#000000" />
  </g>
  <path
     d="m 246.38928,70.388743 c -0.0416,0 -0.21147,0.416749 -0.33612,0.904942 -0.47781,1.869703 -2.51647,8.841286 -4.13688,13.910256 -5.68181,17.938739 -12.13567,34.160779 -18.30568,45.971059 -3.7394,7.02176 -6.63814,11.61956 -10.57489,16.36652 -1.98397,2.2748 -2.39746,2.90745 -2.84411,3.80075 -0.69595,1.3815 -0.31194,1.99178 1.26692,1.78403 1.42306,-0.15581 4.93749,-1.32521 13.49656,-4.57642 7.50997,-2.79416 8.60988,-3.18643 8.60988,-2.94753 0,0.4051 1.67193,6.38679 2.48213,8.66159 5.76491,17.57519 14.99772,30.0862 28.95814,39.45548 5.97266,3.97831 11.6613,6.85356 22.28744,11.19542 15.58083,6.36737 18.53776,7.73828 23.45092,10.78174 2.15016,1.37112 4.9384,3.45843 4.9384,3.69734 0,0.12464 -1.82606,2.03289 -4.05931,4.26615 l -4.08517,4.08517 -4.55056,-4.57643 c -2.91882,-2.88764 -4.71034,-4.55609 -4.83498,-4.47299 -0.2389,0.0416 -3.13729,10.27532 -9.46311,34.05168 -0.0416,0.11425 0.0197,0.28441 0.25856,0.28441 0.29084,0 31.88118,-8.4726 33.94825,-9.127 0.11425,-0.0728 0.25855,-0.15975 0.25855,-0.2844 0,-0.12465 -2.00083,-2.23355 -4.473,-4.70571 -2.52409,-2.47214 -4.5247,-4.63828 -4.5247,-4.67984 0,-0.29084 8.0607,-8.29961 8.29961,-8.29961 0.2493,0 2.34407,2.45518 4.36958,5.09353 10.06522,12.95288 16.43688,28.61388 18.09884,44.80756 0.47781,4.42496 0.47159,4.99475 0.2327,5.11939 -0.32201,0.28045 -11.40138,0.1872 -11.60912,-0.0518 -0.20774,-0.12464 -0.20684,-1.87204 -0.20684,-6.61901 0,-6.28426 0.002,-6.39183 -0.36198,-6.30873 -0.4882,0.15581 -30.71632,17.51896 -30.71632,17.68516 0,0.0831 0.15423,0.22163 0.36198,0.38782 0.92446,0.5713 30.43653,17.45245 30.56118,17.45245 0.0831,0 0.15514,-2.87982 0.15514,-6.56728 l 0.0517,-6.54145 11.89353,0 0,1.42206 c -0.16619,3.15771 -0.98862,9.05681 -1.96502,13.31557 -2.75261,12.73474 -8.34803,24.74576 -16.2631,35.00834 -1.4646,1.8697 -4.12515,5.11848 -4.44714,5.32622 -0.20775,0.15581 -8.45475,-8.00346 -8.45475,-8.32547 0,-0.0416 2.03686,-2.19199 4.55057,-4.70569 2.87726,-2.79417 4.52008,-4.49796 4.39543,-4.7057 -0.29083,-0.24929 -34.16989,-9.37075 -34.33609,-9.20455 -0.11425,0.12464 9.01737,34.12835 9.25627,34.33609 0.12464,0.19736 1.90115,-1.55972 4.7057,-4.39543 2.5137,-2.48256 4.61707,-4.55058 4.78326,-4.55058 0.4051,0 8.38824,8.07087 8.22205,8.35133 -0.12466,0.28045 -3.4291,3.14716 -5.66236,4.80911 -10.10676,7.74887 -22.02587,13.25171 -34.64635,16.05626 -4.17566,0.89331 -10.153,1.75728 -13.238,1.96502 l -1.52548,0.0258 0,-11.91938 6.56729,-0.0518 c 4.38341,0 6.54144,-0.0822 6.54144,-0.20684 0,-0.37395 -17.58083,-30.92317 -17.78858,-30.92317 -0.20774,0 -17.76271,30.60116 -17.76271,30.92317 0,0.0831 2.11648,0.1653 6.54143,0.20684 l 6.59315,0.0518 0,11.91938 -1.52547,-0.0258 c -3.04346,-0.20774 -8.99494,-1.07171 -13.21215,-1.96502 -12.62048,-2.80455 -24.51858,-8.30739 -34.69807,-16.05626 -2.1917,-1.66195 -5.5534,-4.52866 -5.6365,-4.80911 -0.12464,-0.29084 7.81695,-8.35133 8.22205,-8.35133 0.1662,0 2.31111,2.03686 4.78326,4.55058 2.83572,2.87725 4.58106,4.60317 4.70571,4.39543 0.33238,-0.2493 9.43262,-34.21145 9.30797,-34.33609 -0.20774,-0.0831 -34.08149,8.99681 -34.36194,9.20455 -0.0831,0.15581 1.53386,1.90115 4.36958,4.7057 2.5137,2.5137 4.57642,4.66417 4.57642,4.70569 0,0.32201 -8.2417,8.49167 -8.48061,8.32547 -0.33238,-0.24929 -2.98254,-3.45652 -4.44714,-5.32622 -7.83196,-10.26258 -13.4791,-22.23204 -16.31481,-35.00834 -0.93484,-4.25876 -1.73695,-10.06437 -1.8616,-13.31557 l -0.0517,-1.42206 11.84181,0 0.0517,6.54145 c 0.0728,3.69785 0.1496,6.56728 0.2327,6.56728 0.0312,0 29.54323,-16.88115 30.56118,-17.45245 0.0728,-0.16619 0.28442,-0.34628 0.28442,-0.38782 0,-0.12465 -30.15519,-17.44625 -30.76804,-17.68516 -0.2389,-0.0831 -0.23269,0.0245 -0.23269,6.30873 0,4.78852 -0.10806,6.49437 -0.2327,6.61901 -0.19736,0.28046 -11.29728,0.29062 -11.66083,0.0518 -0.20775,-0.12464 -0.1881,-0.69443 0.25855,-5.11939 1.7035,-16.11058 8.05948,-31.86507 18.1247,-44.80756 1.99435,-2.63835 4.15653,-5.09353 4.39543,-5.09353 0.20775,0 8.27376,8.06071 8.27376,8.29961 0,0.0831 -2.05255,2.2077 -4.52471,4.67984 -2.48255,2.47216 -4.49885,4.58106 -4.49885,4.70571 0,0.0416 0.14407,0.15977 0.31026,0.2844 2.03589,0.6544 33.70935,9.127 33.94825,9.127 0.23893,0 0.34167,-0.0766 0.25856,-0.28441 -6.45047,-23.73482 -9.22951,-33.96858 -9.43725,-34.05168 -0.16619,-0.0416 -1.95772,1.63728 -4.83498,4.47299 l -4.55056,4.57643 -16.54751,-16.54752 c -9.08883,-9.08881 -16.68142,-16.54751 -16.80607,-16.54751 -0.40511,0 -7.01127,6.71976 -9.56653,9.72166 -19.83964,23.25701 -30.26639,51.38879 -30.22503,81.57407 -8e-5,29.62437 10.65272,58.41437 29.68206,80.69498 23.0908,26.9029 55.56503,42.56819 90.98546,43.82504 l -0.10342,-0.0258 c 9.74321,0.32201 20.67853,-0.69947 30.3802,-2.76653 18.17764,-3.93677 35.07321,-11.82323 49.92694,-23.26994 26.33162,-20.30703 43.60132,-50.77179 47.49653,-83.72007 4.41457,-37.90298 -8.22057,-75.15817 -34.80148,-102.25845 -4.37303,-4.53922 -8.68989,-8.07745 -14.09125,-11.60911 -6.53355,-4.25876 -14.0304,-7.99517 -25.67449,-12.61748 -14.93683,-5.96227 -20.82875,-9.09126 -25.70035,-13.75512 -4.87162,-4.62232 -8.47555,-11.10747 -10.83346,-19.46919 -0.61284,-2.23325 -0.59568,-2.19308 0.82738,-2.06843 1.53731,0.16619 4.58559,0.81474 6.05018,1.34449 3.68748,1.29839 5.63531,2.55386 9.48897,6.28288 2.43061,2.31635 3.23499,2.88169 3.72318,2.55969 1.62041,-1.0595 -4.86474,-14.40963 -19.46917,-39.97259 -7.13603,-12.537379 -22.60166,-38.731514 -22.88211,-38.731514 z m 9.69581,173.826447 c -3.20965,0 -4.66315,0.0454 -6.12775,0.2844 -14.24088,2.19171 -26.25434,11.27858 -32.06081,24.30416 -1.57886,3.53167 -2.57223,7.11765 -3.25778,11.37641 -0.44666,2.87727 -0.41063,8.94334 0.0775,11.94524 1.42306,8.83954 5.22209,16.52027 11.35056,22.80454 3.60436,3.72901 7.05951,6.2058 11.60912,8.4806 4.9547,2.38906 9.28536,3.6016 15.69428,4.21444 l 0.0517,0.0517 c 0.36355,0.0416 1.97351,0.0416 3.59392,0 6.37774,-0.0831 11.77064,-1.37872 17.45245,-4.21444 4.53922,-2.23326 7.95281,-4.79845 11.60912,-8.45474 3.3239,-3.49011 5.57047,-6.68275 7.67908,-11.06615 1.81777,-3.78095 2.98592,-7.51565 3.67147,-11.81596 0.48821,-3.0019 0.52422,-9.06797 0.0776,-11.94524 -0.64402,-4.25876 -1.7048,-7.84475 -3.28365,-11.37641 -5.80645,-13.02559 -17.79406,-22.11246 -32.03495,-24.30416 -1.4646,-0.23891 -2.93379,-0.28441 -6.10189,-0.28441 z"
     inkscape:connector-curvature="0"
     id="path6714"
     style="fill:#ffffff;fill-opacity:1;fill-rule:nonzero;stroke:none" />
</svg>
