<?xml version="1.0" encoding="UTF-8" standalone="no"?>
<!-- Created with Inkscape (http://www.inkscape.org/) -->

<svg
   xmlns:dc="http://purl.org/dc/elements/1.1/"
   xmlns:cc="http://creativecommons.org/ns#"
   xmlns:rdf="http://www.w3.org/1999/02/22-rdf-syntax-ns#"
   xmlns:svg="http://www.w3.org/2000/svg"
   xmlns="http://www.w3.org/2000/svg"
   xmlns:inkscape="http://www.inkscape.org/namespaces/inkscape"
   version="1.1"
   width="100%"
   height="100%"
   viewBox="0 0 512 512"
   id="svg2">
  <metadata
     id="metadata242">
    <rdf:RDF>
      <cc:Work
         rdf:about="">
        <dc:format>image/svg+xml</dc:format>
        <dc:type
           rdf:resource="http://purl.org/dc/dcmitype/StillImage" />
      </cc:Work>
    </rdf:RDF>
  </metadata>
  <defs
     id="defs240" />
  <g
     id="g4"
     style="fill-rule:evenodd">
    <path
       d="m 471.95,253.05 c 0,120.9 -98.01,218.9 -218.9,218.9 -120.9,0 -218.9,-98.01 -218.9,-218.9 0,-120.9 98.01,-218.9 218.9,-218.9 120.9,0 218.9,98.01 218.9,218.9"
       inkscape:connector-curvature="0"
       id="path6"
       style="fill:#68af4c" />
    <path
       d="m 323.13,128 c -1.429,-0.011 -2.864,0.013 -4.313,0.063 h -0.031 c -3.863,0.131 -8.08,0.434 -11.844,0.5 h -181.78 c -19.79,6.69 -11.618,29.923 -13.344,45.719 0.345,46.73 3.146,127.93 0.5,141.78 1.068,-1.2 4.849,0.703 0,1.031 0.049,-0.197 -0.049,-0.785 0,-1.031 -0.641,0.723 -0.457,2.277 3.094,6.156 9.435,10.355 0.775,0.553 45.19,51.38 1.611,4.865 3.795,9.169 6.688,13.344 14.79,15.08 63.06,61.686 86.969,85 116.83,-0.638 212,-92.8 217.44,-208.44 -33.906,-33.854 -97.9,-97.53 -123.62,-123.09 -5.638,-10.312 -14.935,-12.33 -24.938,-12.406"
       inkscape:connector-curvature="0"
       id="path8"
       style="fill-opacity:0.23500001" />
    <path
       d="M 256,1 C 115.17,1 1,115.17 1,256 1,396.83 115.17,511 256,511 396.83,511 511,396.83 511,256 511,115.17 396.83,1 256,1 m 8.827,44.931 c 120.9,0 218.9,98 218.9,218.9 0,120.9 -98,218.9 -218.9,218.9 -120.9,0 -218.93,-98 -218.93,-218.9 0,-120.9 98.03,-218.9 218.93,-218.9"
       inkscape:connector-curvature="0"
       id="path10"
       style="fill-opacity:0.06700003" />
    <g
       id="g12"
       style="fill-opacity:0.12900002">
      <path
         d="m 256,4.433 c -138.94,0 -251.57,112.63 -251.57,251.57 0,138.94 112.63,251.57 251.57,251.57 138.94,0 251.57,-112.63 251.57,-251.57 C 507.57,117.063 394.94,4.433 256,4.433 m 5.885,38.556 c 120.9,0 218.9,98 218.9,218.9 0,120.9 -98,218.9 -218.9,218.9 -120.9,0 -218.93,-98 -218.93,-218.9 0,-120.9 98.03,-218.9 218.93,-218.9"
         inkscape:connector-curvature="0"
         id="path14" />
      <path
         d="m 256,8.356 c -136.77,0 -247.64,110.87 -247.64,247.64 0,136.77 110.87,247.64 247.64,247.64 136.77,0 247.64,-110.87 247.64,-247.64 C 503.64,119.226 392.77,8.356 256,8.356 m 2.942,31.691 c 120.9,0 218.9,98 218.9,218.9 0,120.9 -98,218.9 -218.9,218.9 -120.9,0 -218.93,-98 -218.93,-218.9 0,-120.9 98.03,-218.9 218.93,-218.9"
         inkscape:connector-curvature="0"
         id="path16" />
    </g>
    <path
       d="m 253.04,7.859 c -135.42,0 -245.19,109.78 -245.19,245.19 0,135.42 109.78,245.19 245.19,245.19 135.42,0 245.19,-109.78 245.19,-245.19 0,-135.42 -109.78,-245.19 -245.19,-245.19 z m 0,26.297 c 120.9,0 218.9,98 218.9,218.9 0,120.9 -98,218.9 -218.9,218.9 -120.9,0 -218.93,-98 -218.93,-218.9 0,-120.9 98.03,-218.9 218.93,-218.9 z"
       inkscape:connector-curvature="0"
       id="path18"
       style="fill:#ffffff;stroke:#000000;stroke-width:4.90399981;stroke-opacity:0.31000001" />
  </g>
  <text
     x="729.64001"
     y="231.36"
     id="text20"
     style="font-size:129.22999573px;line-height:125%;letter-spacing:0;word-spacing:0;font-family:Gentium Book Basic">
    <tspan
       x="729.64001"
       y="231.36"
       id="tspan22" />
  </text>
  <text
     x="378.91"
     y="579.25"
     transform="scale(4.0128,0.2492)"
     id="text24"
     style="font-size:46.95399857px;text-anchor:middle;font-family:Arial" />
  <text
     x="1310.91"
     y="151.36"
     id="text26"
     style="font-size:129.22999573px;line-height:125%;letter-spacing:0;word-spacing:0;font-family:Gentium Book Basic">
    <tspan
       x="1310.91"
       y="151.36"
       id="tspan28" />
  </text>
  <text
     x="523.76001"
     y="258.22"
     transform="scale(4.0128,0.2492)"
     id="text30"
     style="font-size:46.95399857px;text-anchor:middle;font-family:Arial" />
  <text
     x="239.33"
     y="-29.900999"
     id="text32"
     style="font-size:129.22999573px;line-height:125%;letter-spacing:0;word-spacing:0;font-family:Gentium Book Basic">
    <tspan
       x="239.33"
       y="-29.900999"
       id="tspan34" />
  </text>
  <text
     x="256.72"
     y="-469.14001"
     transform="scale(4.0128,0.2492)"
     id="text36"
     style="font-size:46.95399857px;text-anchor:middle;font-family:Arial" />
  <text
     x="1337.38"
     y="-246.37"
     id="text38"
     style="font-size:129.22999573px;line-height:125%;letter-spacing:0;word-spacing:0;font-family:Gentium Book Basic">
    <tspan
       x="1337.38"
       y="-246.37"
       id="tspan40" />
  </text>
  <text
     x="530.35999"
     y="-1337.8101"
     transform="scale(4.0128,0.2492)"
     id="text42"
     style="font-size:46.95399857px;text-anchor:middle;font-family:Arial" />
  <text
     x="1918.65"
     y="-326.38"
     id="text44"
     style="font-size:129.22999573px;line-height:125%;letter-spacing:0;word-spacing:0;font-family:Gentium Book Basic">
    <tspan
       x="1918.65"
       y="-326.38"
       id="tspan46" />
  </text>
  <text
     x="675.21002"
     y="-1658.85"
     transform="scale(4.0128,0.2492)"
     id="text48"
     style="font-size:46.95399857px;text-anchor:middle;font-family:Arial" />
  <text
     x="1529.53"
     y="-798.78003"
     id="text50"
     style="font-size:129.22999573px;line-height:125%;letter-spacing:0;word-spacing:0;font-family:Gentium Book Basic">
    <tspan
       x="1529.53"
       y="-798.78003"
       id="tspan52" />
  </text>
  <text
     x="578.23999"
     y="-3554.51"
     transform="scale(4.0128,0.2492)"
     id="text54"
     style="font-size:46.95399857px;text-anchor:middle;font-family:Arial" />
  <text
     x="2110.79"
     y="-878.78003"
     id="text56"
     style="font-size:129.22999573px;line-height:125%;letter-spacing:0;word-spacing:0;font-family:Gentium Book Basic">
    <tspan
       x="2110.79"
       y="-878.78003"
       id="tspan58" />
  </text>
  <text
     x="723.09003"
     y="-3875.54"
     transform="scale(4.0128,0.2492)"
     id="text60"
     style="font-size:46.95399857px;text-anchor:middle;font-family:Arial" />
  <g
     id="g62"
     style="line-height:125%;letter-spacing:0;word-spacing:0;font-family:Gentium Book Basic">
    <text
       x="277.98999"
       y="535.94"
       id="text64"
       style="font-size:208.33000183px">
      <tspan
         x="277.98999"
         y="535.94"
         id="tspan66" />
    </text>
    <text
       x="-27836.289"
       y="1302.6899"
       id="text68"
       style="font-size:4848.18994141px">
      <tspan
         x="-27836.289"
         y="1302.6899"
         id="tspan70" />
    </text>
  </g>
  <text
     x="457.12"
     y="-7871.9702"
     transform="scale(4.0128,0.2492)"
     id="text72"
     style="font-size:1761.66003418px;text-anchor:middle;font-family:Arial" />
  <text
     x="-27971.029"
     y="2214.71"
     id="text74"
     style="font-size:4848.18994141px;line-height:125%;letter-spacing:0;word-spacing:0;font-family:Gentium Book Basic">
    <tspan
       x="-27971.029"
       y="2214.71"
       id="tspan76" />
  </text>
  <text
     x="423.59"
     y="-4212.2798"
     transform="scale(4.0128,0.2492)"
     id="text78"
     style="font-size:1761.66003418px;text-anchor:middle;font-family:Arial" />
  <g
     id="g80"
     style="fill:#555753">
    <text
       x="-13473.56"
       y="-4835.4302"
       transform="scale(1.05082,0.95163)"
       id="text82"
       style="font-size:2975.9699707px;line-height:125%;letter-spacing:0;word-spacing:0;font-family:Gentium Book Basic">
      <tspan
         x="-13473.56"
         y="-4835.4302"
         id="tspan84" />
    </text>
    <text
       x="1181.08"
       y="-27444.631"
       transform="scale(4.21677,0.23715)"
       id="text86"
       style="font-size:1081.43994141px;text-anchor:middle;font-family:Arial" />
    <text
       x="-4071.1399"
       y="-5660.4102"
       transform="scale(1.05082,0.95163)"
       id="text88"
       style="font-size:1593.17004395px;line-height:125%;letter-spacing:0;word-spacing:0;font-family:Gentium Book Basic">
      <tspan
         x="-4071.1399"
         y="-5660.4102"
         id="tspan90" />
    </text>
    <text
       x="1415.17"
       y="-27018.52"
       transform="scale(4.21677,0.23715)"
       id="text92"
       style="font-size:578.85998535px;text-anchor:middle;font-family:Arial" />
    <text
       x="-40170.281"
       y="-1810.83"
       id="text94"
       style="font-size:4654.33007812px;line-height:125%;letter-spacing:0;word-spacing:0;font-family:Gentium Book Basic">
      <tspan
         x="-40170.281"
         y="-1810.83"
         id="tspan96" />
    </text>
    <text
       x="-2912.1299"
       y="-19841.461"
       transform="scale(4.0128,0.2492)"
       id="text98"
       style="font-size:1691.14001465px;text-anchor:middle;font-family:Arial" />
  </g>
  <g
     id="g100"
     style="fill:#000000">
    <text
       x="-25987.82"
       y="-14036.83"
       id="text102"
       style="font-size:4848.18994141px;line-height:125%;letter-spacing:0;word-spacing:0;stroke:#cd1d31;stroke-width:23.27199936;font-family:Gentium Book Basic">
      <tspan
         x="-25987.82"
         y="-14036.83"
         id="tspan104" />
    </text>
    <text
       x="917.90002"
       y="-69426.852"
       transform="scale(4.0128,0.2492)"
       id="text106"
       style="font-size:1761.66003418px;text-anchor:middle;stroke:none;font-family:Arial" />
    <text
       x="-26122.801"
       y="-13124.82"
       id="text108"
       style="font-size:4848.18994141px;line-height:125%;letter-spacing:0;word-spacing:0;stroke:#cd1d31;stroke-width:23.27199936;font-family:Gentium Book Basic">
      <tspan
         x="-26122.801"
         y="-13124.82"
         id="tspan110" />
    </text>
    <text
       x="884.22998"
       y="-65766.93"
       transform="scale(4.0128,0.2492)"
       id="text112"
       style="font-size:1761.66003418px;text-anchor:middle;stroke:none;font-family:Arial" />
  </g>
  <g
     id="g114"
     style="fill:#555753">
    <g
       id="g116"
       style="stroke:#cd1d31;stroke-width:23.27199936">
      <text
         x="-11714.46"
         y="-20954.48"
         transform="scale(1.05082,0.95163)"
         id="text118"
         style="font-size:2975.9699707px;line-height:125%;letter-spacing:0;word-spacing:0;font-family:Gentium Book Basic">
        <tspan
           x="-11714.46"
           y="-20954.48"
           id="tspan120" />
      </text>
      <text
         x="1619.5"
         y="-92128.617"
         transform="scale(4.21677,0.23715)"
         id="text122"
         style="font-size:1081.43994141px;text-anchor:middle;font-family:Arial" />
      <text
         x="-2312.28"
         y="-21779.461"
         transform="scale(1.05082,0.95163)"
         id="text124"
         style="font-size:1593.17004395px;line-height:125%;letter-spacing:0;word-spacing:0;font-family:Gentium Book Basic">
        <tspan
           x="-2312.28"
           y="-21779.461"
           id="tspan126" />
      </text>
      <text
         x="1853.38"
         y="-91702.508"
         transform="scale(4.21677,0.23715)"
         id="text128"
         style="font-size:578.85998535px;text-anchor:middle;font-family:Arial" />
      <text
         x="-38321.809"
         y="-17150.35"
         id="text130"
         style="font-size:4654.33007812px;line-height:125%;letter-spacing:0;word-spacing:0;font-family:Gentium Book Basic">
        <tspan
           x="-38321.809"
           y="-17150.35"
           id="tspan132" />
      </text>
    </g>
    <text
       x="-2451.5901"
       y="-81396.344"
       transform="scale(4.0128,0.2492)"
       id="text134"
       style="font-size:1691.14001465px;text-anchor:middle;stroke:none;font-family:Arial" />
  </g>
  <g
     id="g136"
     style="fill:#000000">
    <text
       x="-9012.7695"
       y="-20726.039"
       id="text138"
       style="font-size:4654.33007812px;line-height:125%;letter-spacing:0;word-spacing:0;stroke:#cd1d31;stroke-width:23.27199936;font-family:Gentium Book Basic">
      <tspan
         x="-9012.7695"
         y="-20726.039"
         id="tspan140" />
    </text>
    <text
       x="4852.1899"
       y="-95744.867"
       transform="scale(4.0128,0.2492)"
       id="text142"
       style="font-size:1691.14001465px;text-anchor:middle;stroke:none;font-family:Arial" />
    <text
       x="11922.89"
       y="-23607.539"
       id="text144"
       style="font-size:4654.33007812px;line-height:125%;letter-spacing:0;word-spacing:0;stroke:#cd1d31;stroke-width:23.27199936;font-family:Gentium Book Basic">
      <tspan
         x="11922.89"
         y="-23607.539"
         id="tspan146" />
    </text>
    <text
       x="10069.44"
       y="-107307.59"
       transform="scale(4.0128,0.2492)"
       id="text148"
       style="font-size:1691.14001465px;text-anchor:middle;stroke:none;font-family:Arial" />
  </g>
  <text
     x="-28681.279"
     y="1318.75"
     id="text150"
     style="font-size:4848.18994141px;line-height:125%;letter-spacing:0;word-spacing:0;font-family:Gentium Book Basic">
    <tspan
       x="-28681.279"
       y="1318.75"
       id="tspan152" />
  </text>
  <text
     x="246.52"
     y="-7807.7402"
     transform="scale(4.0128,0.2492)"
     id="text154"
     style="font-size:1761.66003418px;text-anchor:middle;font-family:Arial" />
  <text
     x="-28816.26"
     y="2230.76"
     id="text156"
     style="font-size:4848.18994141px;line-height:125%;letter-spacing:0;word-spacing:0;font-family:Gentium Book Basic">
    <tspan
       x="-28816.26"
       y="2230.76"
       id="tspan158" />
  </text>
  <text
     x="213.00999"
     y="-4148.0498"
     transform="scale(4.0128,0.2492)"
     id="text160"
     style="font-size:1761.66003418px;text-anchor:middle;font-family:Arial" />
  <g
     id="g162"
     style="fill:#555753">
    <text
       x="-14277.59"
       y="-4818.4399"
       transform="scale(1.05082,0.95163)"
       id="text164"
       style="font-size:2975.9699707px;line-height:125%;letter-spacing:0;word-spacing:0;font-family:Gentium Book Basic">
      <tspan
         x="-14277.59"
         y="-4818.4399"
         id="tspan166" />
    </text>
    <text
       x="980.69"
       y="-27377.141"
       transform="scale(4.21677,0.23715)"
       id="text168"
       style="font-size:1081.43994141px;text-anchor:middle;font-family:Arial" />
    <text
       x="-4875.4102"
       y="-5643.4199"
       transform="scale(1.05082,0.95163)"
       id="text170"
       style="font-size:1593.17004395px;line-height:125%;letter-spacing:0;word-spacing:0;font-family:Gentium Book Basic">
      <tspan
         x="-4875.4102"
         y="-5643.4199"
         id="tspan172" />
    </text>
    <text
       x="1214.8"
       y="-26951.029"
       transform="scale(4.21677,0.23715)"
       id="text174"
       style="font-size:578.85998535px;text-anchor:middle;font-family:Arial" />
    <text
       x="-41015.27"
       y="-1794.77"
       id="text176"
       style="font-size:4654.33007812px;line-height:125%;letter-spacing:0;word-spacing:0;font-family:Gentium Book Basic">
      <tspan
         x="-41015.27"
         y="-1794.77"
         id="tspan178" />
    </text>
    <text
       x="-3122.74"
       y="-19777.23"
       transform="scale(4.0128,0.2492)"
       id="text180"
       style="font-size:1691.14001465px;text-anchor:middle;font-family:Arial" />
  </g>
  <g
     id="g182"
     style="fill:#000000">
    <text
       x="-26833.051"
       y="-14020.77"
       id="text184"
       style="font-size:4848.18994141px;line-height:125%;letter-spacing:0;word-spacing:0;stroke:#cd1d31;stroke-width:23.27199936;font-family:Gentium Book Basic">
      <tspan
         x="-26833.051"
         y="-14020.77"
         id="tspan186" />
    </text>
    <text
       x="707.21997"
       y="-69362.617"
       transform="scale(4.0128,0.2492)"
       id="text188"
       style="font-size:1761.66003418px;text-anchor:middle;stroke:none;font-family:Arial" />
    <text
       x="-26967.789"
       y="-13108.76"
       id="text190"
       style="font-size:4848.18994141px;line-height:125%;letter-spacing:0;word-spacing:0;stroke:#cd1d31;stroke-width:23.27199936;font-family:Gentium Book Basic">
      <tspan
         x="-26967.789"
         y="-13108.76"
         id="tspan192" />
    </text>
    <text
       x="673.64001"
       y="-65702.703"
       transform="scale(4.0128,0.2492)"
       id="text194"
       style="font-size:1761.66003418px;text-anchor:middle;stroke:none;font-family:Arial" />
  </g>
  <g
     id="g196"
     style="fill:#555753">
    <g
       id="g198"
       style="stroke:#cd1d31;stroke-width:23.27199936">
      <text
         x="-12518.73"
         y="-20937.73"
         transform="scale(1.05082,0.95163)"
         id="text200"
         style="font-size:2975.9699707px;line-height:125%;letter-spacing:0;word-spacing:0;font-family:Gentium Book Basic">
        <tspan
           x="-12518.73"
           y="-20937.73"
           id="tspan202" />
      </text>
      <text
         x="1419.13"
         y="-92061.117"
         transform="scale(4.21677,0.23715)"
         id="text204"
         style="font-size:1081.43994141px;text-anchor:middle;font-family:Arial" />
      <text
         x="-3116.3101"
         y="-21762.711"
         transform="scale(1.05082,0.95163)"
         id="text206"
         style="font-size:1593.17004395px;line-height:125%;letter-spacing:0;word-spacing:0;font-family:Gentium Book Basic">
        <tspan
           x="-3116.3101"
           y="-21762.711"
           id="tspan208" />
      </text>
      <text
         x="1653.01"
         y="-91635.023"
         transform="scale(4.21677,0.23715)"
         id="text210"
         style="font-size:578.85998535px;text-anchor:middle;font-family:Arial" />
      <text
         x="-39166.801"
         y="-17134.289"
         id="text212"
         style="font-size:4654.33007812px;line-height:125%;letter-spacing:0;word-spacing:0;font-family:Gentium Book Basic">
        <tspan
           x="-39166.801"
           y="-17134.289"
           id="tspan214" />
      </text>
    </g>
    <text
       x="-2662.1899"
       y="-81332.109"
       transform="scale(4.0128,0.2492)"
       id="text216"
       style="font-size:1691.14001465px;text-anchor:middle;stroke:none;font-family:Arial" />
  </g>
  <g
     id="g218"
     style="fill:#000000">
    <text
       x="-9857.7598"
       y="-20709.98"
       id="text220"
       style="font-size:4654.33007812px;line-height:125%;letter-spacing:0;word-spacing:0;stroke:#cd1d31;stroke-width:23.27199936;font-family:Gentium Book Basic">
      <tspan
         x="-9857.7598"
         y="-20709.98"
         id="tspan222" />
    </text>
    <text
       x="4641.5801"
       y="-95680.867"
       transform="scale(4.0128,0.2492)"
       id="text224"
       style="font-size:1691.14001465px;text-anchor:middle;stroke:none;font-family:Arial" />
    <text
       x="11077.67"
       y="-23591.48"
       id="text226"
       style="font-size:4654.33007812px;line-height:125%;letter-spacing:0;word-spacing:0;stroke:#cd1d31;stroke-width:23.27199936;font-family:Gentium Book Basic">
      <tspan
         x="11077.67"
         y="-23591.48"
         id="tspan228" />
    </text>
    <text
       x="9858.8301"
       y="-107243.34"
       transform="scale(4.0128,0.2492)"
       id="text230"
       style="font-size:1691.14001465px;text-anchor:middle;stroke:none;font-family:Arial" />
  </g>
  <g
     id="g232"
     style="fill:#ffffff;fill-rule:evenodd">
    <path
       d="m 124.39,127.12 c -7.658,1.547 -13.402,8.623 -13.402,16.757 v 167.52 c 0,9.251 7.459,16.757 16.757,16.757 h 16.757 v -137.85 c 0,-8.118 5.744,-15.194 13.402,-16.757 1.088,-0.214 2.19,0 3.354,0 h 184.26 v -29.684 c 0,-9.282 -7.505,-16.757 -16.757,-16.757 h -201.11 c -1.164,0 -2.267,-0.214 -3.354,0"
       inkscape:connector-curvature="0"
       id="path234" />
    <path
       d="m 173.59,189.23 c -7.658,1.547 -13.356,8.47 -13.356,16.588 v 167.6 c 0,9.251 7.704,16.588 17,16.588 h 200.8 c 9.205,0 17,-7.352 17,-16.588 v -167.6 c 0,-9.282 -7.766,-16.588 -17,-16.588 h -200.8 c -1.164,0 -2.558,-0.214 -3.645,0 m 3.645,42.11 h 200.8 v 142.09 h -200.8 V 231.34"
       inkscape:connector-curvature="0"
       id="path236" />
  </g>
</svg>
