<?xml version="1.0" encoding="UTF-8" standalone="no"?>
<!-- Created with Inkscape (http://www.inkscape.org/) -->

<svg
   xmlns:dc="http://purl.org/dc/elements/1.1/"
   xmlns:cc="http://creativecommons.org/ns#"
   xmlns:rdf="http://www.w3.org/1999/02/22-rdf-syntax-ns#"
   xmlns:svg="http://www.w3.org/2000/svg"
   xmlns="http://www.w3.org/2000/svg"
   xmlns:inkscape="http://www.inkscape.org/namespaces/inkscape"
   version="1.1"
   width="100%"
   height="100%"
   viewBox="0 0 512 512"
   id="svg2">
  <metadata
     id="metadata80">
    <rdf:RDF>
      <cc:Work
         rdf:about="">
        <dc:format>image/svg+xml</dc:format>
        <dc:type
           rdf:resource="http://purl.org/dc/dcmitype/StillImage" />
      </cc:Work>
    </rdf:RDF>
  </metadata>
  <defs
     id="defs78" />
  <g
     transform="translate(0,-540.36)"
     id="g4">
    <text
       x="-1160.48"
       y="1089.88"
       id="text6"
       style="font-size:208.33000183px;line-height:125%;letter-spacing:0;word-spacing:0;font-family:Gentium Book Basic">
      <tspan
         x="-1160.48"
         y="1089.88"
         id="tspan8" />
    </text>
    <text
       x="28.534"
       y="3810.6299"
       transform="scale(4.0128,0.2492)"
       id="text10"
       style="font-size:75.69999695px;text-anchor:middle;font-family:Arial" />
    <g
       id="g12"
       style="fill-rule:evenodd">
      <path
         d="m 471.95,793.41 c 0,120.9 -98.01,218.9 -218.9,218.9 -120.9,0 -218.9,-98.01 -218.9,-218.9 0,-120.9 98.01,-218.9 218.9,-218.9 120.9,0 218.9,98.01 218.9,218.9"
         inkscape:connector-curvature="0"
         id="path14"
         style="fill:#f38725" />
      <path
         d="M 137.66,126.41 V 385.6 h 1 v 1 h 1 v 1 h 1 v 1 h 0.969 v 0.969 h 1 v 1 h 1 v 1 h 1 v 1 h 1 v 1 h 1 v 1 h 0.969 v 0.969 h 1 v 1 h 1 v 1 h 1 v 1 h 1 v 1 h 1 v 1 h 0.969 v 0.969 h 1 v 1 h 1 v 1 h 1 v 1 h 1 v 1 h 1 v 1 h 0.969 v 0.969 h 1 v 1 h 1 v 1 h 1 v 1 h 1 v 1 h 1 v 1 h 1 v 1 h 0.969 v 0.969 h 1 v 1 h 1 v 1 h 1 v 1 h 1 v 1 h 1 v 1 h 0.969 v 0.969 h 1 v 1 h 1 v 1 h 1 v 1 h 1 v 1 h 1 v 1 h 0.969 v 0.969 h 1 v 1 h 1 v 1 h 1 v 1 h 1 v 1 h 1 v 1 h 1 v 1 h 0.969 v 0.969 h 1 v 1 h 1 v 1 h 1 v 1 h 1 v 1 h 1 v 1 h 0.969 v 0.969 h 1 v 1 h 1 v 1 h 1 v 1 h 1 v 1 h 1 v 1 h 0.969 v 0.969 h 1 v 1 h 1 v 1 h 1 v 1 h 1 v 1 h 1 v 1 h 0.969 v 0.969 h 1 v 1 h 1 v 1 h 1 v 1 h 1 v 1 h 1 v 1 h 1 v 1 h 0.969 v 0.969 h 1 v 1 h 1 v 1 h 1 v 1 h 1 v 1 h 1 v 1 h 0.969 v 0.969 h 1 v 1 h 1 v 1 h 1 v 1 h 1 v 1 h 1 v 1 h 0.969 v 0.594 c 10.07,1.42 20.347,2.188 30.813,2.188 120.9,0 218.91,-98.01 218.91,-218.91 0,-10.216 -0.708,-20.281 -2.063,-30.12 v -0.063 c -0.043,-0.314 -0.08,-0.624 -0.125,-0.938 h -0.875 v -1 h -1 v -1 h -1 v -1 h -1 v -1 h -0.969 v -0.969 h -1 v -1 h -1 v -1 h -1 v -1 h -1 v -1 h -1 v -1 h -1 v -1 h -0.969 v -0.969 h -1 v -1 h -1 v -1 h -1 v -1 h -1 v -1 h -1 v -1 h -0.969 v -0.969 h -1 v -1 h -1 v -1 h -1 v -1 h -1 v -1 h -1 v -1 h -0.969 v -0.969 h -1 v -1 h -1 v -1 h -1 v -1 h -1 v -1 h -1 v -1 h -1 v -1 h -0.969 v -0.969 h -1 v -1 h -1 v -1 h -1 v -1 h -1 v -1 h -1 v -1 h -0.969 v -0.969 h -1 v -1 h -1 v -1 h -1 v -1 h -1 v -1 h -1 v -1 h -0.969 v -0.969 h -1 v -1 h -1 v -1 h -1 v -1 h -1 v -1 h -1 v -1 h -0.969 v -0.969 h -1 v -1 h -1 v -1 h -1 v -1 h -1 v -1 h -1 v -1 h -1 v -1 h -0.969 v -0.969 h -1 v -1 h -1 v -1 h -1 v -1 h -1 v -1 h -1 v -1 h -0.969 v -0.969 h -1 v -1 h -1 v -1 h -1 v -1 h -1 v -1 h -1 v -1 h -0.969 v -0.969 h -1 v -1 h -1 v -1 h -1 v -1 h -1 v -1 h -1 v -1 h -1 v -1 h -0.969 v -0.969 h -1 v -1 h -1 v -1 h -1 v -1 h -1 v -1 h -1 v -1 h -0.969 v -0.969 h -1 v -1 h -1 v -1 h -1 v -1 h -1 v -1 h -1 v -1 h -0.969 v -0.969 h -1 v -1 h -1 v -1 h -1 v -1 h -1 v -1 h -1 v -1 h -0.969 v -0.969 h -1 v -1 h -1 v -1 h -1 v -1 h -56.59 -120.62 -59.47"
         inkscape:connector-curvature="0"
         transform="translate(0,540.36)"
         id="path16"
         style="fill-opacity:0.23500001" />
      <path
         d="m 256,541.36 c -140.83,0 -255,114.17 -255,255 0,140.83 114.17,255 255,255 140.83,0 255,-114.17 255,-255 0,-140.83 -114.17,-255 -255,-255 m 8.827,44.931 c 120.9,0 218.9,98 218.9,218.9 0,120.9 -98,218.9 -218.9,218.9 -120.9,0 -218.93,-98 -218.93,-218.9 0,-120.9 98.03,-218.9 218.93,-218.9"
         inkscape:connector-curvature="0"
         id="path18"
         style="fill-opacity:0.06700003" />
      <g
         id="g20"
         style="fill-opacity:0.12900002">
        <path
           d="M 256,544.79 C 117.06,544.79 4.43,657.42 4.43,796.36 4.43,935.3 117.06,1047.93 256,1047.93 394.94,1047.93 507.57,935.3 507.57,796.36 507.57,657.42 394.94,544.79 256,544.79 m 5.885,38.556 c 120.9,0 218.9,98 218.9,218.9 0,120.9 -98,218.9 -218.9,218.9 -120.9,0 -218.93,-98 -218.93,-218.9 0,-120.9 98.03,-218.9 218.93,-218.9"
           inkscape:connector-curvature="0"
           id="path22" />
        <path
           d="M 256,548.72 C 119.23,548.72 8.36,659.59 8.36,796.36 8.36,933.13 119.23,1044 256,1044 392.77,1044 503.64,933.13 503.64,796.36 503.64,659.59 392.77,548.72 256,548.72 m 2.942,31.691 c 120.9,0 218.9,98 218.9,218.9 0,120.9 -98,218.9 -218.9,218.9 -120.9,0 -218.93,-98 -218.93,-218.9 0,-120.9 98.03,-218.9 218.93,-218.9"
           inkscape:connector-curvature="0"
           id="path24" />
      </g>
      <path
         d="M 253.04,548.22 C 117.62,548.22 7.85,658 7.85,793.41 c 0,135.42 109.78,245.19 245.19,245.19 135.42,0 245.19,-109.78 245.19,-245.19 0,-135.42 -109.78,-245.19 -245.19,-245.19 z m 0,26.297 c 120.9,0 218.9,98 218.9,218.9 0,120.9 -98,218.9 -218.9,218.9 -120.9,0 -218.93,-98 -218.93,-218.9 0,-120.9 98.03,-218.9 218.93,-218.9 z"
         inkscape:connector-curvature="0"
         id="path26"
         style="fill:#ffffff;stroke:#000000;stroke-width:4.90399981;stroke-opacity:0.31000001" />
    </g>
    <text
       x="729.64001"
       y="771.71997"
       id="text28"
       style="font-size:129.22999573px;line-height:125%;letter-spacing:0;word-spacing:0;font-family:Gentium Book Basic">
      <tspan
         x="729.64001"
         y="771.71997"
         id="tspan30" />
    </text>
    <text
       x="378.91"
       y="2747.6399"
       transform="scale(4.0128,0.2492)"
       id="text32"
       style="font-size:46.95399857px;text-anchor:middle;font-family:Arial" />
    <text
       x="1310.91"
       y="691.71997"
       id="text34"
       style="font-size:129.22999573px;line-height:125%;letter-spacing:0;word-spacing:0;font-family:Gentium Book Basic">
      <tspan
         x="1310.91"
         y="691.71997"
         id="tspan36" />
    </text>
    <text
       x="523.76001"
       y="2426.6001"
       transform="scale(4.0128,0.2492)"
       id="text38"
       style="font-size:46.95399857px;text-anchor:middle;font-family:Arial" />
    <text
       x="239.33"
       y="510.45999"
       id="text40"
       style="font-size:129.22999573px;line-height:125%;letter-spacing:0;word-spacing:0;font-family:Gentium Book Basic">
      <tspan
         x="239.33"
         y="510.45999"
         id="tspan42" />
    </text>
    <text
       x="256.72"
       y="1699.25"
       transform="scale(4.0128,0.2492)"
       id="text44"
       style="font-size:46.95399857px;text-anchor:middle;font-family:Arial" />
    <text
       x="1337.38"
       y="293.98999"
       id="text46"
       style="font-size:129.22999573px;line-height:125%;letter-spacing:0;word-spacing:0;font-family:Gentium Book Basic">
      <tspan
         x="1337.38"
         y="293.98999"
         id="tspan48" />
    </text>
    <text
       x="530.35999"
       y="830.57001"
       transform="scale(4.0128,0.2492)"
       id="text50"
       style="font-size:46.95399857px;text-anchor:middle;font-family:Arial" />
    <text
       x="1918.65"
       y="213.99001"
       id="text52"
       style="font-size:129.22999573px;line-height:125%;letter-spacing:0;word-spacing:0;font-family:Gentium Book Basic">
      <tspan
         x="1918.65"
         y="213.99001"
         id="tspan54" />
    </text>
    <text
       x="675.21002"
       y="509.54001"
       transform="scale(4.0128,0.2492)"
       id="text56"
       style="font-size:46.95399857px;text-anchor:middle;font-family:Arial" />
    <text
       x="1529.53"
       y="-258.41"
       id="text58"
       style="font-size:129.22999573px;line-height:125%;letter-spacing:0;word-spacing:0;font-family:Gentium Book Basic">
      <tspan
         x="1529.53"
         y="-258.41"
         id="tspan60" />
    </text>
    <text
       x="578.23999"
       y="-1386.12"
       transform="scale(4.0128,0.2492)"
       id="text62"
       style="font-size:46.95399857px;text-anchor:middle;font-family:Arial" />
    <text
       x="2110.79"
       y="-338.42001"
       id="text64"
       style="font-size:129.22999573px;line-height:125%;letter-spacing:0;word-spacing:0;font-family:Gentium Book Basic">
      <tspan
         x="2110.79"
         y="-338.42001"
         id="tspan66" />
    </text>
    <text
       x="723.09003"
       y="-1707.16"
       transform="scale(4.0128,0.2492)"
       id="text68"
       style="font-size:46.95399857px;text-anchor:middle;font-family:Arial" />
    <text
       x="277.98999"
       y="1076.3"
       id="text70"
       style="font-size:208.33000183px;line-height:125%;letter-spacing:0;word-spacing:0;font-family:Gentium Book Basic">
      <tspan
         x="277.98999"
         y="1076.3"
         id="tspan72" />
    </text>
    <path
       d="m 137.66,666.77 v 259.19 h 59.47 v -87.84 h 117.75 v 0.063 h 59.47 V 666.773 H 317.76 197.14 137.67 m 59.47,59.34 h 117.75 v 52.656 H 197.14 v -52.656"
       inkscape:connector-curvature="0"
       id="path74"
       style="fill:#ffffff;fill-rule:evenodd" />
  </g>
</svg>
