<?xml version="1.0" encoding="UTF-8" standalone="no"?>
<svg
   xmlns:dc="http://purl.org/dc/elements/1.1/"
   xmlns:cc="http://creativecommons.org/ns#"
   xmlns:rdf="http://www.w3.org/1999/02/22-rdf-syntax-ns#"
   xmlns:svg="http://www.w3.org/2000/svg"
   xmlns="http://www.w3.org/2000/svg"
   xmlns:xlink="http://www.w3.org/1999/xlink"
   xmlns:sodipodi="http://sodipodi.sourceforge.net/DTD/sodipodi-0.dtd"
   xmlns:inkscape="http://www.inkscape.org/namespaces/inkscape"
   viewBox="0 0 512 512"
   id="svg2"
   version="1.1"
   inkscape:version="0.48.5 r10040"
   width="100%"
   height="100%"
   sodipodi:docname="xampp.svg">
  <sodipodi:namedview
     pagecolor="#ffffff"
     bordercolor="#666666"
     borderopacity="1"
     objecttolerance="10"
     gridtolerance="10"
     guidetolerance="10"
     inkscape:pageopacity="0"
     inkscape:pageshadow="2"
     inkscape:window-width="1307"
     inkscape:window-height="748"
     id="namedview66"
     showgrid="false"
     inkscape:zoom="0.65186406"
     inkscape:cx="204.33661"
     inkscape:cy="205.50406"
     inkscape:window-x="57"
     inkscape:window-y="-3"
     inkscape:window-maximized="1"
     inkscape:current-layer="svg2" />
  <metadata
     id="metadata70">
    <rdf:RDF>
      <cc:Work
         rdf:about="">
        <dc:format>image/svg+xml</dc:format>
        <dc:type
           rdf:resource="http://purl.org/dc/dcmitype/StillImage" />
        <dc:title></dc:title>
      </cc:Work>
    </rdf:RDF>
  </metadata>
  <defs
     id="defs68">
    <filter
       color-interpolation-filters="sRGB"
       id="filter3174">
      <feGaussianBlur
         id="feGaussianBlur3176"
         stdDeviation="1.71" />
    </filter>
    <linearGradient
       x1="45.447727"
       y1="92.539597"
       x2="45.447727"
       y2="7.0165396"
       id="ButtonShadow"
       gradientUnits="userSpaceOnUse"
       gradientTransform="scale(1.0058652,0.994169)">
      <stop
         id="stop3750"
         style="stop-color:#000000;stop-opacity:1"
         offset="0" />
      <stop
         id="stop3752"
         style="stop-color:#000000;stop-opacity:0.58823532"
         offset="1" />
    </linearGradient>
    <clipPath
       clipPathUnits="userSpaceOnUse"
       id="clipPath37241">
      <path
         d="m 471.9456,253.05189 c 0,120.89699 -98.00565,218.90724 -218.90724,218.90724 -120.89698,0 -218.90723,-98.00566 -218.90723,-218.90724 0,-120.89698 98.00565,-218.907232 218.90723,-218.907232 120.89699,0 218.90724,98.005652 218.90724,218.907232"
         id="path37243"
         inkscape:connector-curvature="0"
         style="fill:#d23638;fill-opacity:1;fill-rule:evenodd" />
    </clipPath>
    <linearGradient
       gradientTransform="matrix(3.482195,0,0,3.543307,0.307109,0)"
       y2="1.129"
       x2="0"
       y1="12.7"
       gradientUnits="userSpaceOnUse"
       id="linearGradient37311">
      <stop
         id="stop37313"
         stop-opacity="1"
         stop-color="#de491e" />
      <stop
         id="stop37315"
         stop-opacity="1"
         stop-color="#f47736"
         offset="1" />
    </linearGradient>
    <linearGradient
       gradientTransform="matrix(3.482195,0,0,3.543307,0.307109,0)"
       y2="1.129"
       x2="0"
       y1="12.7"
       gradientUnits="userSpaceOnUse"
       id="linear0">
      <stop
         id="stop37307"
         stop-opacity="1"
         stop-color="#de491e" />
      <stop
         id="stop37309"
         stop-opacity="1"
         stop-color="#f47736"
         offset="1" />
    </linearGradient>
    <clipPath
       id="clipPath-377450625">
      <g
         id="g37302"
         transform="translate(0,-1004.3622)">
        <path
           id="path37304"
           fill="#1890d0"
           transform="matrix(15.333333,0,0,11.5,414.99999,878.8622)"
           d="m -24 13 c 0 1.105 -0.672 2 -1.5 2 -0.828 0 -1.5 -0.895 -1.5 -2 0 -1.105 0.672 -2 1.5 -2 0.828 0 1.5 0.895 1.5 2 z" />
      </g>
    </clipPath>
    <clipPath
       id="clipPath-369610194">
      <g
         id="g37297"
         transform="translate(0,-1004.3622)">
        <path
           id="path37299"
           fill="#1890d0"
           transform="matrix(15.333333,0,0,11.5,414.99999,878.8622)"
           d="m -24 13 c 0 1.105 -0.672 2 -1.5 2 -0.828 0 -1.5 -0.895 -1.5 -2 0 -1.105 0.672 -2 1.5 -2 0.828 0 1.5 0.895 1.5 2 z" />
      </g>
    </clipPath>
    <linearGradient
       gradientTransform="matrix(0,-1,1,0,-1.5e-6,47.999998)"
       gradientUnits="userSpaceOnUse"
       x2="47"
       x1="1"
       id="linearGradient3764">
      <stop
         id="stop37292"
         stop-opacity="1"
         stop-color="#ce411c" />
      <stop
         id="stop37294"
         stop-opacity="1"
         stop-color="#e0491e"
         offset="1" />
    </linearGradient>
    <clipPath
       id="clipPath37880"
       clipPathUnits="userSpaceOnUse">
      <path
         d="m 471.9456,253.05189 c 0,120.89699 -98.00565,218.90724 -218.90724,218.90724 -120.89698,0 -218.90723,-98.00566 -218.90723,-218.90724 0,-120.89698 98.00565,-218.907232 218.90723,-218.907232 120.89699,0 218.90724,98.005652 218.90724,218.907232"
         id="path37882"
         inkscape:connector-curvature="0"
         style="fill:#ff5722;fill-opacity:1;fill-rule:evenodd" />
    </clipPath>
    <linearGradient
       id="linearGradient3587-6-5-3">
      <stop
         offset="0"
         style="stop-color:#000000;stop-opacity:1"
         id="stop3589-9-2-2" />
      <stop
         offset="1"
         style="stop-color:#363636;stop-opacity:1"
         id="stop3591-7-4-73" />
    </linearGradient>
    <linearGradient
       gradientTransform="matrix(-0.4100229,0,0,0.5447147,103.0059,-3.508554)"
       gradientUnits="userSpaceOnUse"
       xlink:href="#linearGradient3587-6-5-3"
       id="linearGradient3158"
       y2="37.82296"
       x2="222.84993"
       y1="13.784379"
       x1="222.84993" />
    <linearGradient
       id="linearGradient4046-3">
      <stop
         id="stop4048-7"
         style="stop-color:#000000;stop-opacity:1;"
         offset="0" />
      <stop
         id="stop4050-73"
         style="stop-color:#ffffff;stop-opacity:0.2"
         offset="1" />
    </linearGradient>
    <linearGradient
       inkscape:collect="always"
       xlink:href="#linearGradient4046-3"
       id="linearGradient4086-12"
       gradientUnits="userSpaceOnUse"
       x1="1764.6487"
       y1="155.59685"
       x2="1763.6903"
       y2="-55.941216" />
    <linearGradient
       id="linearGradient3737-9">
      <stop
         id="stop3739-7"
         style="stop-color:#ffffff;stop-opacity:1"
         offset="0" />
      <stop
         id="stop3741-4"
         style="stop-color:#ffffff;stop-opacity:0"
         offset="1" />
    </linearGradient>
    <linearGradient
       inkscape:collect="always"
       xlink:href="#linearGradient3737-9"
       id="linearGradient4084-8"
       gradientUnits="userSpaceOnUse"
       gradientTransform="translate(778.59979,-360.55963)"
       x1="993.43896"
       y1="51.511765"
       x2="988.78552"
       y2="363.73825" />
    <linearGradient
       y2="20.625916"
       x2="1006.8082"
       y1="484.41721"
       x1="1012.5133"
       gradientTransform="matrix(1.0074153,0,0,1.0074153,-810.48879,593.1369)"
       gradientUnits="userSpaceOnUse"
       id="linearGradient5342-3"
       xlink:href="#ButtonShadow-0-1-1-5-9"
       inkscape:collect="always" />
    <linearGradient
       inkscape:collect="always"
       xlink:href="#ButtonShadow-0-1-1-5-9"
       id="linearGradient4116-6-3"
       gradientUnits="userSpaceOnUse"
       gradientTransform="matrix(1.0148305,0,0,1.0148305,-816.68996,592.99723)"
       x1="1012.5133"
       y1="484.41721"
       x2="1006.8082"
       y2="20.625916" />
    <linearGradient
       inkscape:collect="always"
       xlink:href="#ButtonShadow-0-1-1-5-9"
       id="linearGradient4110-6-7"
       gradientUnits="userSpaceOnUse"
       gradientTransform="matrix(1.023305,0,0,1.023305,-823.77704,592.83757)"
       x1="1012.5133"
       y1="484.41721"
       x2="1006.8082"
       y2="20.625916" />
    <linearGradient
       inkscape:collect="always"
       xlink:href="#ButtonShadow-0-1-1-5-9"
       id="linearGradient4112-2-6"
       gradientUnits="userSpaceOnUse"
       gradientTransform="matrix(1.0402541,0,0,1.0402541,-837.95116,592.51825)"
       x1="1012.5133"
       y1="484.41721"
       x2="1006.8082"
       y2="20.625916" />
    <linearGradient
       x1="45.447727"
       y1="92.539597"
       x2="45.447727"
       y2="7.0165396"
       id="ButtonShadow-0-1-1-5-9"
       gradientUnits="userSpaceOnUse"
       gradientTransform="matrix(1.0058652,0,0,0.994169,100,0)">
      <stop
         id="stop3750-8-9-3-6-4"
         style="stop-color:#000000;stop-opacity:1"
         offset="0" />
      <stop
         id="stop3752-5-6-4-2-9"
         style="stop-color:#000000;stop-opacity:0.58823532"
         offset="1" />
    </linearGradient>
    <linearGradient
       inkscape:collect="always"
       xlink:href="#ButtonShadow-0-1-1-5-9"
       id="linearGradient4114-2-6"
       gradientUnits="userSpaceOnUse"
       gradientTransform="matrix(1.0317796,0,0,1.0317796,-830.86406,592.67791)"
       x1="1012.5133"
       y1="484.41721"
       x2="1006.8082"
       y2="20.625916" />
    <linearGradient
       x1="19.244999"
       y1="21.030804"
       x2="19.360001"
       gradientUnits="userSpaceOnUse"
       y2="44.984001"
       id="linearGradient2460">
      <stop
         offset="0"
         style="stop-color:#fafafa;stop-opacity:1;"
         id="stop3602" />
      <stop
         offset="1"
         style="stop-color:#f0f0f0;stop-opacity:1;"
         id="stop3604" />
    </linearGradient>
    <clipPath
       clipPathUnits="userSpaceOnUse"
       id="clipPath38374">
      <path
         d="m 471.9456,253.05189 c 0,120.89699 -98.00565,218.90724 -218.90724,218.90724 -120.89698,0 -218.90723,-98.00566 -218.90723,-218.90724 0,-120.89698 98.00565,-218.907232 218.90723,-218.907232 120.89699,0 218.90724,98.005652 218.90724,218.907232"
         id="path38376"
         inkscape:connector-curvature="0"
         style="fill:#cd1d31;fill-opacity:1;fill-rule:evenodd" />
    </clipPath>
  </defs>
  <path
     style="fill:#cd1d31;fill-rule:evenodd;fill-opacity:1"
     inkscape:connector-curvature="0"
     id="path8"
     d="m 471.9456,253.05189 c 0,120.89699 -98.00565,218.90724 -218.90724,218.90724 -120.89698,0 -218.90723,-98.00566 -218.90723,-218.90724 0,-120.89698 98.00565,-218.907232 218.90723,-218.907232 120.89699,0 218.90724,98.005652 218.90724,218.907232" />
  <path
     id="rect38111"
     d="M 147.875 61.03125 C 80.086244 98.234027 34.125 170.27996 34.125 253.0625 C 34.125 335.85266 80.080336 407.89377 147.875 445.09375 L 147.875 61.03125 z "
     style="color:#000000;fill:#000000;fill-opacity:1;fill-rule:evenodd;stroke:none;stroke-width:1px;marker:none;visibility:visible;display:inline;overflow:visible;enable-background:accumulate;opacity:0.2" />
  <path
     style="fill-opacity:0.06700003;fill-rule:evenodd"
     inkscape:connector-curvature="0"
     id="path10"
     d="M 256,1 C 115.17,1 1,115.17 1,256 1,396.83 115.17,511 256,511 396.83,511 511,396.83 511,256 511,115.17 396.83,1 256,1 m 8.827,44.931 c 120.9,0 218.9,98 218.9,218.9 0,120.9 -98,218.9 -218.9,218.9 -120.9,0 -218.93,-98 -218.93,-218.9 0,-120.9 98.03,-218.9 218.93,-218.9" />
  <path
     d="M 256,4.43 C 117.06,4.43 4.43,117.06 4.43,256 4.43,394.94 117.06,507.57 256,507.57 394.94,507.57 507.57,394.94 507.57,256 507.57,117.06 394.94,4.43 256,4.43 m 5.885,38.556 c 120.9,0 218.9,98 218.9,218.9 0,120.9 -98,218.9 -218.9,218.9 -120.9,0 -218.93,-98 -218.93,-218.9 0,-120.9 98.03,-218.9 218.93,-218.9"
     id="path14"
     inkscape:connector-curvature="0"
     style="fill-opacity:0.12900002;fill-rule:evenodd" />
  <path
     d="M 256,8.36 C 119.23,8.36 8.36,119.23 8.36,256 8.36,392.77 119.23,503.64 256,503.64 392.77,503.64 503.64,392.77 503.64,256 503.64,119.23 392.77,8.36 256,8.36 m 2.942,31.691 c 120.9,0 218.9,98 218.9,218.9 0,120.9 -98,218.9 -218.9,218.9 -120.9,0 -218.93,-98 -218.93,-218.9 0,-120.9 98.03,-218.9 218.93,-218.9"
     id="path16"
     inkscape:connector-curvature="0"
     style="fill-opacity:0.12900002;fill-rule:evenodd" />
  <path
     style="fill:#ffffff;fill-rule:evenodd;stroke:#000000;stroke-width:4.90399981;stroke-opacity:0.31000001"
     inkscape:connector-curvature="0"
     id="path18"
     d="M 253.04,7.86 C 117.62,7.86 7.85,117.64 7.85,253.05 c 0,135.42 109.78,245.19 245.19,245.19 135.42,0 245.19,-109.78 245.19,-245.19 C 498.23,117.63 388.45,7.86 253.04,7.86 z m 0,26.297 c 120.9,0 218.9,98 218.9,218.9 0,120.9 -98,218.9 -218.9,218.9 -120.9,0 -218.93,-98 -218.93,-218.9 0,-120.9 98.03,-218.9 218.93,-218.9 z" />
  <text
     font-size="129.23"
     letter-spacing="0"
     line-height="125%"
     word-spacing="0"
     x="729.64001"
     y="231.35997"
     id="text20"
     sodipodi:linespacing="125%"
     style="font-size:129.22999573px;line-height:125%;letter-spacing:0;word-spacing:0;font-family:Gentium Book Basic">
    <tspan
       x="729.64001"
       y="231.35997"
       id="tspan22" />
  </text>
  <text
     x="378.90805"
     y="579.25812"
     font-size="46.954"
     transform="scale(4.0128205,0.24920128)"
     id="text24"
     style="font-size:46.95375824px;text-anchor:middle;font-family:Arial" />
  <text
     font-size="129.23"
     letter-spacing="0"
     line-height="125%"
     word-spacing="0"
     x="1310.91"
     y="151.35997"
     id="text26"
     sodipodi:linespacing="125%"
     style="font-size:129.22999573px;line-height:125%;letter-spacing:0;word-spacing:0;font-family:Gentium Book Basic">
    <tspan
       x="1310.91"
       y="151.35997"
       id="tspan28" />
  </text>
  <text
     x="523.75732"
     y="258.21997"
     font-size="46.954"
     transform="scale(4.0128205,0.24920128)"
     id="text30"
     style="font-size:46.95375824px;text-anchor:middle;font-family:Arial" />
  <text
     font-size="129.23"
     letter-spacing="0"
     line-height="125%"
     word-spacing="0"
     x="239.33"
     y="-29.900009"
     id="text32"
     sodipodi:linespacing="125%"
     style="font-size:129.22999573px;line-height:125%;letter-spacing:0;word-spacing:0;font-family:Gentium Book Basic">
    <tspan
       x="239.33"
       y="-29.900009"
       id="tspan34" />
  </text>
  <text
     x="256.71869"
     y="-469.1264"
     font-size="46.954"
     transform="scale(4.0128205,0.24920128)"
     id="text36"
     style="font-size:46.95375824px;text-anchor:middle;font-family:Arial" />
  <text
     font-size="129.23"
     letter-spacing="0"
     line-height="125%"
     word-spacing="0"
     x="1337.38"
     y="-246.37001"
     id="text38"
     sodipodi:linespacing="125%"
     style="font-size:129.22999573px;line-height:125%;letter-spacing:0;word-spacing:0;font-family:Gentium Book Basic">
    <tspan
       x="1337.38"
       y="-246.37001"
       id="tspan40" />
  </text>
  <text
     x="530.3573"
     y="-1337.802"
     font-size="46.954"
     transform="scale(4.0128205,0.24920128)"
     id="text42"
     style="font-size:46.95375824px;text-anchor:middle;font-family:Arial" />
  <text
     font-size="129.23"
     letter-spacing="0"
     line-height="125%"
     word-spacing="0"
     x="1918.65"
     y="-326.37"
     id="text44"
     sodipodi:linespacing="125%"
     style="font-size:129.22999573px;line-height:125%;letter-spacing:0;word-spacing:0;font-family:Gentium Book Basic">
    <tspan
       x="1918.65"
       y="-326.37"
       id="tspan46" />
  </text>
  <text
     x="675.20654"
     y="-1658.8303"
     font-size="46.954"
     transform="scale(4.0128205,0.24920128)"
     id="text48"
     style="font-size:46.95375824px;text-anchor:middle;font-family:Arial" />
  <text
     font-size="129.23"
     letter-spacing="0"
     line-height="125%"
     word-spacing="0"
     x="1529.53"
     y="-798.77002"
     id="text50"
     sodipodi:linespacing="125%"
     style="font-size:129.22999573px;line-height:125%;letter-spacing:0;word-spacing:0;font-family:Gentium Book Basic">
    <tspan
       x="1529.53"
       y="-798.77002"
       id="tspan52" />
  </text>
  <text
     x="578.237"
     y="-3554.4807"
     font-size="46.954"
     transform="scale(4.0128205,0.24920128)"
     id="text54"
     style="font-size:46.95375824px;text-anchor:middle;font-family:Arial" />
  <text
     font-size="129.23"
     letter-spacing="0"
     line-height="125%"
     word-spacing="0"
     x="2110.79"
     y="-878.78003"
     id="text56"
     sodipodi:linespacing="125%"
     style="font-size:129.22999573px;line-height:125%;letter-spacing:0;word-spacing:0;font-family:Gentium Book Basic">
    <tspan
       x="2110.79"
       y="-878.78003"
       id="tspan58" />
  </text>
  <text
     x="723.0863"
     y="-3875.519"
     font-size="46.954"
     transform="scale(4.0128205,0.24920128)"
     id="text60"
     style="font-size:46.95375824px;text-anchor:middle;font-family:Arial" />
  <text
     font-size="208.33"
     letter-spacing="0"
     line-height="125%"
     word-spacing="0"
     x="277.98999"
     y="535.94006"
     id="text62"
     sodipodi:linespacing="125%"
     style="font-size:208.33000183px;line-height:125%;letter-spacing:0;word-spacing:0;font-family:Gentium Book Basic">
    <tspan
       x="277.98999"
       y="535.94006"
       id="tspan64" />
  </text>
  <g
     transform="matrix(5.4789502,0,0,5.4789502,-627.46419,47.707221)"
     style="display:none"
     id="layer2">
    <rect
       style="opacity:0.9;fill:url(#ButtonShadow);fill-opacity:1;fill-rule:nonzero;stroke:none;filter:url(#filter3174)"
       id="rect3745"
       y="7"
       x="5"
       ry="6"
       rx="6"
       height="85"
       width="86" />
  </g>
  <g
     id="g37329"
     transform="matrix(6.2160115,0,0,6.2160115,-410.45556,175.30094)" />
  <g
     transform="translate(-599.60167,-658.33675)"
     inkscape:label="Livello 1"
     id="layer1" />
  <g
     transform="matrix(1.1,0,0,0.44444,-504.52061,138.41797)"
     id="g2036">
    <g
       transform="matrix(1.0526,0,0,1.2857,-1.2632,-13.429)"
       style="opacity:0.4"
       id="g3712" />
  </g>
  <g
     id="g3541"
     transform="translate(-502.12061,113.30697)" />
  <g
     id="g3536"
     transform="translate(-502.12061,113.30697)" />
  <g
     transform="translate(-1205.121,-471.9429)"
     id="g4076">
    <g
       id="g4038"
       transform="translate(-926.66758,684.38448)" />
  </g>
  <g
     style="fill:#000000;stroke:none;opacity:0.25"
     id="g38232"
     clip-path="url(#clipPath38374)">
    <path
       inkscape:connector-curvature="0"
       d="m 229.85612,94.52313 0,81.50738 388.90873,388.90873 0,-81.50738 z"
       id="path38234"
       style="fill:#000000" />
    <path
       inkscape:connector-curvature="0"
       d="m 229.85612,176.03051 -81.50737,0 388.90873,388.90873 81.50737,0 z"
       id="path38236"
       style="fill:#000000" />
    <path
       inkscape:connector-curvature="0"
       d="m 148.34875,176.03051 0,52.28774 388.90873,388.90873 0,-52.28774 z"
       id="path38238"
       style="fill:#000000" />
    <path
       inkscape:connector-curvature="0"
       d="m 148.34875,228.31825 81.50737,0 388.90873,388.90873 -81.50737,0 z"
       id="path38240"
       style="fill:#000000" />
    <path
       inkscape:connector-curvature="0"
       d="m 229.85612,228.31825 0,189.15862 388.90873,388.90873 0,-189.15862 z"
       id="path38242"
       style="fill:#000000" />
    <path
       inkscape:connector-curvature="0"
       d="m 229.85612,417.47687 52.28775,0 388.90873,388.90873 -52.28775,0 z"
       id="path38244"
       style="fill:#000000" />
    <path
       inkscape:connector-curvature="0"
       d="m 282.14387,417.47687 0,-189.15862 388.90873,388.90873 0,189.15862 z"
       id="path38246"
       style="fill:#000000" />
    <path
       inkscape:connector-curvature="0"
       d="m 282.14387,228.31825 81.50737,0 388.90873,388.90873 -81.50737,0 z"
       id="path38248"
       style="fill:#000000" />
    <path
       inkscape:connector-curvature="0"
       d="m 363.65124,228.31825 0,-52.28774 388.90873,388.90873 0,52.28774 z"
       id="path38250"
       style="fill:#000000" />
    <path
       inkscape:connector-curvature="0"
       d="m 363.65124,176.03051 -81.50737,0 388.90873,388.90873 81.50737,0 z"
       id="path38252"
       style="fill:#000000" />
    <path
       inkscape:connector-curvature="0"
       d="m 282.14387,176.03051 0,-81.50738 388.90873,388.90873 0,81.50738 z"
       id="path38254"
       style="fill:#000000" />
  </g>
  <path
     sodipodi:nodetypes="ccccccccccccc"
     style="fill:#ffffff;stroke:none"
     inkscape:connector-curvature="0"
     stroke-miterlimit="4"
     id="rect1061"
     d="m 229.85612,94.52313 0,81.50738 -81.50737,0 0,52.28774 81.50737,0 0,189.15862 52.28775,0 0,-189.15862 81.50737,0 0,-52.28774 -81.50737,0 0,-81.50738 z" />
</svg>
