<?xml version="1.0" encoding="UTF-8" standalone="no"?>
<!-- Created with Inkscape (http://www.inkscape.org/) -->

<svg
   xmlns:dc="http://purl.org/dc/elements/1.1/"
   xmlns:cc="http://creativecommons.org/ns#"
   xmlns:rdf="http://www.w3.org/1999/02/22-rdf-syntax-ns#"
   xmlns:svg="http://www.w3.org/2000/svg"
   xmlns="http://www.w3.org/2000/svg"
   xmlns:sodipodi="http://sodipodi.sourceforge.net/DTD/sodipodi-0.dtd"
   xmlns:inkscape="http://www.inkscape.org/namespaces/inkscape"
   width="512"
   height="512"
   id="svg2"
   version="1.1"
   inkscape:version="0.48.5 r10040"
   sodipodi:docname="xnee.svg">
  <sodipodi:namedview
     id="base"
     pagecolor="#ffffff"
     bordercolor="#666666"
     borderopacity="1.0"
     inkscape:pageopacity="0.0"
     inkscape:pageshadow="2"
     inkscape:zoom="0.7"
     inkscape:cx="263.72881"
     inkscape:cy="401.6675"
     inkscape:document-units="px"
     inkscape:current-layer="layer1"
     showgrid="false"
     inkscape:window-width="1307"
     inkscape:window-height="748"
     inkscape:window-x="57"
     inkscape:window-y="-3"
     inkscape:window-maximized="1"
     inkscape:snap-global="false" />
  <defs
     id="defs4">
    <clipPath
       clipPathUnits="userSpaceOnUse"
       id="clipPath4634">
      <path
         style="fill:#4d4d4d;fill-opacity:1;fill-rule:evenodd"
         inkscape:connector-curvature="0"
         d="m 471.9456,253.05189 c 0,120.89699 -98.00565,218.90723 -218.90724,218.90723 -120.89698,0 -218.90723,-98.00565 -218.90723,-218.90723 0,-120.89698 98.00565,-218.90723 218.90723,-218.90723 120.89699,0 218.90724,98.00565 218.90724,218.90723"
         id="path4636" />
    </clipPath>
  </defs>
  <metadata
     id="metadata7">
    <rdf:RDF>
      <cc:Work
         rdf:about="">
        <dc:format>image/svg+xml</dc:format>
        <dc:type
           rdf:resource="http://purl.org/dc/dcmitype/StillImage" />
        <dc:title />
      </cc:Work>
    </rdf:RDF>
  </metadata>
  <g
     inkscape:label="Layer 1"
     inkscape:groupmode="layer"
     id="layer1"
     transform="translate(0,-540.36218)">
    <path
       id="path3010"
       d="m 471.9456,793.41407 c 0,120.89699 -98.00565,218.90723 -218.90724,218.90723 -120.89698,0 -218.90723,-98.00565 -218.90723,-218.90723 0,-120.89698 98.00565,-218.90723 218.90723,-218.90723 120.89699,0 218.90724,98.00565 218.90724,218.90723"
       inkscape:connector-curvature="0"
       style="fill:#4d4d4d;fill-rule:evenodd;fill-opacity:1" />
    <g
       style="color:#000000;fill:#000000;fill-opacity:1;fill-rule:evenodd;stroke:none;stroke-width:1px;marker:none;visibility:visible;display:inline;overflow:visible;enable-background:accumulate;opacity:0.25"
       id="g4430"
       transform="translate(0,540.36218)"
       clip-path="url(#clipPath4634)">
      <path
         inkscape:connector-curvature="0"
         d="m 134.53125,123.625 -17.0625,199.28125 388.90873,388.90873 17.0625,-199.28125 z"
         id="path4432"
         style="fill:#000000" />
      <path
         inkscape:connector-curvature="0"
         d="m 117.46875,322.90625 66.65625,0 388.90873,388.90873 -66.65625,0 z"
         id="path4434"
         style="fill:#000000" />
      <path
         inkscape:connector-curvature="0"
         d="m 184.125,322.90625 12.3125,12.3125 388.90873,388.90873 -12.3125,-12.3125 z"
         id="path4436"
         style="fill:#000000" />
      <path
         inkscape:connector-curvature="0"
         d="m 196.4375,335.21875 -78.96875,0 388.90873,388.90873 78.96875,0 z"
         id="path4438"
         style="fill:#000000" />
      <path
         inkscape:connector-curvature="0"
         d="m 117.46875,335.21875 0,53.15625 388.90873,388.90873 0,-53.15625 z"
         id="path4440"
         style="fill:#000000" />
      <path
         inkscape:connector-curvature="0"
         d="m 117.46875,388.375 277.0625,0 388.90873,388.90873 -277.0625,0 z"
         id="path4442"
         style="fill:#000000" />
      <path
         inkscape:connector-curvature="0"
         d="m 394.53125,388.375 0,-53.15625 388.90873,388.90873 0,53.15625 z"
         id="path4444"
         style="fill:#000000" />
      <path
         inkscape:connector-curvature="0"
         d="m 394.53125,335.21875 -89.53125,0 388.90873,388.90873 89.53125,0 z"
         id="path4446"
         style="fill:#000000" />
      <path
         inkscape:connector-curvature="0"
         d="m 305,335.21875 12.3125,-12.3125 388.90873,388.90873 -12.3125,12.3125 z"
         id="path4448"
         style="fill:#000000" />
      <path
         inkscape:connector-curvature="0"
         d="m 317.3125,322.90625 77.21875,0 388.90873,388.90873 -77.21875,0 z"
         id="path4450"
         style="fill:#000000" />
      <path
         inkscape:connector-curvature="0"
         d="M 394.53125,322.90625 379.34375,123.625 768.25248,512.53373 783.43998,711.81498 z"
         id="path4452"
         style="fill:#000000" />
      <path
         inkscape:connector-curvature="0"
         d="m 379.34375,123.625 -244.8125,0 388.90873,388.90873 244.8125,0 z"
         id="path4454"
         style="fill:#000000" />
      <path
         inkscape:connector-curvature="0"
         d="m 178.4375,162.6875 159.1875,0 388.90873,388.90873 -159.1875,0 z"
         id="path4456"
         style="fill:#000000" />
      <path
         inkscape:connector-curvature="0"
         d="M 337.625,162.6875 351.59375,289.21875 740.50248,678.12748 726.53373,551.59623 z"
         id="path4458"
         style="fill:#000000" />
      <path
         inkscape:connector-curvature="0"
         d="m 351.59375,289.21875 -189.84375,0 388.90873,388.90873 189.84375,0 z"
         id="path4460"
         style="fill:#000000" />
      <path
         inkscape:connector-curvature="0"
         d="M 161.75,289.21875 178.4375,162.6875 567.34623,551.59623 550.65873,678.12748 z"
         id="path4462"
         style="fill:#000000" />
      <path
         inkscape:connector-curvature="0"
         d="m 205.3125,174.375 39.34375,52.96875 388.90873,388.90873 -39.34375,-52.96875 z"
         id="path4464"
         style="fill:#000000" />
      <path
         inkscape:connector-curvature="0"
         d="m 244.65625,227.34375 -39.34375,50.1875 388.90873,388.90873 39.34375,-50.1875 z"
         id="path4466"
         style="fill:#000000" />
      <path
         inkscape:connector-curvature="0"
         d="m 205.3125,277.53125 9,0 388.90873,388.90873 -9,0 z"
         id="path4468"
         style="fill:#000000" />
      <path
         inkscape:connector-curvature="0"
         d="M 214.3125,277.53125 262.25,217.25 l 388.90873,388.90873 -47.9375,60.28125 z"
         id="path4470"
         style="fill:#000000" />
      <path
         inkscape:connector-curvature="0"
         d="m 262.25,217.25 -31.5,-42.875 388.90873,388.90873 31.5,42.875 z"
         id="path4472"
         style="fill:#000000" />
      <path
         inkscape:connector-curvature="0"
         d="m 230.75,174.375 -25.4375,0 388.90873,388.90873 25.4375,0 z"
         id="path4474"
         style="fill:#000000" />
      <path
         inkscape:connector-curvature="0"
         d="m 298.78125,174.375 -47.9375,60.625 388.90873,388.90873 47.9375,-60.625 z"
         id="path4476"
         style="fill:#000000" />
      <path
         inkscape:connector-curvature="0"
         d="m 250.84375,235 31.75,42.53125 388.90873,388.90873 -31.75,-42.53125 z"
         id="path4478"
         style="fill:#000000" />
      <path
         inkscape:connector-curvature="0"
         d="m 282.59375,277.53125 25.40625,0 388.90873,388.90873 -25.40625,0 z"
         id="path4480"
         style="fill:#000000" />
      <path
         inkscape:connector-curvature="0"
         d="m 308,277.53125 -39.3125,-53.40625 388.90873,388.90873 39.3125,53.40625 z"
         id="path4482"
         style="fill:#000000" />
      <path
         inkscape:connector-curvature="0"
         d="M 268.6875,224.125 308,174.375 l 388.90873,388.90873 -39.3125,49.75 z"
         id="path4484"
         style="fill:#000000" />
      <path
         inkscape:connector-curvature="0"
         d="m 308,174.375 -9.21875,0 388.90873,388.90873 9.21875,0 z"
         id="path4486"
         style="fill:#000000" />
      <path
         inkscape:connector-curvature="0"
         d="m 128.875,348.21875 254.25,0 388.90873,388.90873 -254.25,0 z"
         id="path4488"
         style="fill:#000000" />
      <path
         inkscape:connector-curvature="0"
         d="m 383.125,348.21875 0,27.15625 388.90873,388.90873 0,-27.15625 z"
         id="path4490"
         style="fill:#000000" />
      <path
         inkscape:connector-curvature="0"
         d="m 383.125,375.375 -254.25,0 388.90873,388.90873 254.25,0 z"
         id="path4492"
         style="fill:#000000" />
      <path
         inkscape:connector-curvature="0"
         d="m 128.875,375.375 0,-27.15625 388.90873,388.90873 0,27.15625 z"
         id="path4494"
         style="fill:#000000" />
    </g>
    <path
       inkscape:connector-curvature="0"
       style="color:#000000;fill:#ffffff;fill-opacity:1;fill-rule:evenodd;stroke:none;stroke-width:1px;marker:none;visibility:visible;display:inline;overflow:visible;enable-background:accumulate"
       d="m 134.53125,663.98718 -17.0625,199.28125 66.65625,0 12.3125,12.3125 -78.96875,0 0,53.15625 277.0625,0 0,-53.15625 -89.53125,0 12.3125,-12.3125 77.21875,0 -15.1875,-199.28125 -244.8125,0 z m 43.90625,39.0625 159.1875,0 13.96875,126.53125 -189.84375,0 16.6875,-126.53125 z m 26.875,11.6875 39.34375,52.96875 -39.34375,50.1875 9,0 47.9375,-60.28125 -31.5,-42.875 -25.4375,0 z m 93.46875,0 -47.9375,60.625 31.75,42.53125 25.40625,0 -39.3125,-53.40625 39.3125,-49.75 -9.21875,0 z M 128.875,888.58093 l 254.25,0 0,27.15625 -254.25,0 0,-27.15625 z"
       id="rect4324" />
    <path
       id="path3012"
       d="m 256,541.36218 c -140.83,0 -255,114.17 -255,255 0,140.83 114.17,255.00002 255,255.00002 140.83,0 255,-114.17002 255,-255.00002 0,-140.83 -114.17,-255 -255,-255 m 8.827,44.931 c 120.9,0 218.9,98 218.9,218.9 0,120.9 -98,218.90002 -218.9,218.90002 -120.9,0 -218.93,-98.00002 -218.93,-218.90002 0,-120.9 98.03,-218.9 218.93,-218.9"
       inkscape:connector-curvature="0"
       style="fill-opacity:0.06700003;fill-rule:evenodd" />
    <path
       style="fill-opacity:0.12900002;fill-rule:evenodd"
       inkscape:connector-curvature="0"
       d="m 256,544.79218 c -138.94,0 -251.57,112.63 -251.57,251.57 0,138.94 112.63,251.57002 251.57,251.57002 138.94,0 251.57,-112.63002 251.57,-251.57002 0,-138.94 -112.63,-251.57 -251.57,-251.57 m 5.885,38.556 c 120.9,0 218.9,98 218.9,218.9 0,120.9 -98,218.90002 -218.9,218.90002 -120.9,0 -218.93,-98.00002 -218.93,-218.90002 0,-120.9 98.03,-218.9 218.93,-218.9"
       id="path3016" />
    <path
       style="fill-opacity:0.12900002;fill-rule:evenodd"
       inkscape:connector-curvature="0"
       d="m 256,548.72218 c -136.77,0 -247.64,110.87 -247.64,247.64 0,136.77 110.87,247.64002 247.64,247.64002 136.77,0 247.64,-110.87002 247.64,-247.64002 0,-136.77 -110.87,-247.64 -247.64,-247.64 m 2.942,31.691 c 120.9,0 218.9,98 218.9,218.9 0,120.9 -98,218.90002 -218.9,218.90002 -120.9,0 -218.93,-98.00002 -218.93,-218.90002 0,-120.9 98.03,-218.9 218.93,-218.9"
       id="path3018" />
    <path
       id="path3020"
       d="m 253.04,548.22218 c -135.42,0 -245.19,109.78 -245.19,245.19 0,135.42 109.78,245.19002 245.19,245.19002 135.42,0 245.19,-109.78002 245.19,-245.19002 0,-135.42 -109.78,-245.19 -245.19,-245.19 z m 0,26.297 c 120.9,0 218.9,98 218.9,218.9 0,120.9 -98,218.90002 -218.9,218.90002 -120.9,0 -218.93,-98.00002 -218.93,-218.90002 0,-120.9 98.03,-218.9 218.93,-218.9 z"
       inkscape:connector-curvature="0"
       style="fill:#ffffff;fill-rule:evenodd;stroke:#000000;stroke-width:4.90399981;stroke-opacity:0.31000001" />
    <text
       style="font-size:129.22999573px;line-height:125%;letter-spacing:0;word-spacing:0;font-family:Gentium Book Basic"
       sodipodi:linespacing="125%"
       font-size="129.23"
       letter-spacing="0"
       line-height="125%"
       word-spacing="0"
       x="729.64001"
       y="771.72217"
       id="text3022">
      <tspan
         x="729.64001"
         y="771.72217"
         id="tspan3024" />
    </text>
    <text
       style="font-size:46.95375824px;text-anchor:middle;font-family:Arial"
       x="378.90805"
       y="2747.6345"
       font-size="46.954"
       transform="scale(4.0128205,0.24920128)"
       id="text3026" />
    <text
       style="font-size:129.22999573px;line-height:125%;letter-spacing:0;word-spacing:0;font-family:Gentium Book Basic"
       sodipodi:linespacing="125%"
       font-size="129.23"
       letter-spacing="0"
       line-height="125%"
       word-spacing="0"
       x="1310.91"
       y="691.72217"
       id="text3028">
      <tspan
         x="1310.91"
         y="691.72217"
         id="tspan3030" />
    </text>
    <text
       style="font-size:46.95375824px;text-anchor:middle;font-family:Arial"
       x="523.75732"
       y="2426.5964"
       font-size="46.954"
       transform="scale(4.0128205,0.24920128)"
       id="text3032" />
    <text
       style="font-size:129.22999573px;line-height:125%;letter-spacing:0;word-spacing:0;font-family:Gentium Book Basic"
       sodipodi:linespacing="125%"
       font-size="129.23"
       letter-spacing="0"
       line-height="125%"
       word-spacing="0"
       x="239.33"
       y="510.46216"
       id="text3034">
      <tspan
         x="239.33"
         y="510.46216"
         id="tspan3036" />
    </text>
    <text
       style="font-size:46.95375824px;text-anchor:middle;font-family:Arial"
       x="256.71869"
       y="1699.25"
       font-size="46.954"
       transform="scale(4.0128205,0.24920128)"
       id="text3038" />
    <text
       style="font-size:129.22999573px;line-height:125%;letter-spacing:0;word-spacing:0;font-family:Gentium Book Basic"
       sodipodi:linespacing="125%"
       font-size="129.23"
       letter-spacing="0"
       line-height="125%"
       word-spacing="0"
       x="1337.38"
       y="293.99216"
       id="text3040">
      <tspan
         x="1337.38"
         y="293.99216"
         id="tspan3042" />
    </text>
    <text
       style="font-size:46.95375824px;text-anchor:middle;font-family:Arial"
       x="530.3573"
       y="830.57452"
       font-size="46.954"
       transform="scale(4.0128205,0.24920128)"
       id="text3044" />
    <text
       style="font-size:129.22999573px;line-height:125%;letter-spacing:0;word-spacing:0;font-family:Gentium Book Basic"
       sodipodi:linespacing="125%"
       font-size="129.23"
       letter-spacing="0"
       line-height="125%"
       word-spacing="0"
       x="1918.65"
       y="213.99219"
       id="text3046">
      <tspan
         x="1918.65"
         y="213.99219"
         id="tspan3048" />
    </text>
    <text
       style="font-size:46.95375824px;text-anchor:middle;font-family:Arial"
       x="675.20654"
       y="509.54614"
       font-size="46.954"
       transform="scale(4.0128205,0.24920128)"
       id="text3050" />
    <text
       style="font-size:129.22999573px;line-height:125%;letter-spacing:0;word-spacing:0;font-family:Gentium Book Basic"
       sodipodi:linespacing="125%"
       font-size="129.23"
       letter-spacing="0"
       line-height="125%"
       word-spacing="0"
       x="1529.53"
       y="-258.40784"
       id="text3052">
      <tspan
         x="1529.53"
         y="-258.40784"
         id="tspan3054" />
    </text>
    <text
       style="font-size:46.95375824px;text-anchor:middle;font-family:Arial"
       x="578.237"
       y="-1386.1041"
       font-size="46.954"
       transform="scale(4.0128205,0.24920128)"
       id="text3056" />
    <text
       style="font-size:129.22999573px;line-height:125%;letter-spacing:0;word-spacing:0;font-family:Gentium Book Basic"
       sodipodi:linespacing="125%"
       font-size="129.23"
       letter-spacing="0"
       line-height="125%"
       word-spacing="0"
       x="2110.79"
       y="-338.41785"
       id="text3058">
      <tspan
         x="2110.79"
         y="-338.41785"
         id="tspan3060" />
    </text>
    <text
       style="font-size:46.95375824px;text-anchor:middle;font-family:Arial"
       x="723.0863"
       y="-1707.1426"
       font-size="46.954"
       transform="scale(4.0128205,0.24920128)"
       id="text3062" />
    <text
       style="font-size:208.33000183px;line-height:125%;letter-spacing:0;word-spacing:0;font-family:Gentium Book Basic"
       sodipodi:linespacing="125%"
       font-size="208.33"
       letter-spacing="0"
       line-height="125%"
       word-spacing="0"
       x="277.98999"
       y="1076.3022"
       id="text3064">
      <tspan
         x="277.98999"
         y="1076.3022"
         id="tspan3066" />
    </text>
    <text
       style="font-size:129.22999573px;line-height:125%;letter-spacing:0;word-spacing:0;font-family:Gentium Book Basic"
       id="text22"
       y="813.07928"
       x="1781.4971"
       sodipodi:linespacing="125%">
      <tspan
         id="tspan24"
         y="813.07928"
         x="1781.4971" />
    </text>
    <text
       style="font-size:46.95375824px;text-anchor:middle;font-family:Arial"
       id="text26"
       transform="scale(4.0128205,0.24920128)"
       y="2913.5933"
       x="641.03217" />
    <text
       style="font-size:129.22999573px;line-height:125%;letter-spacing:0;word-spacing:0;font-family:Gentium Book Basic"
       id="text28"
       y="733.07928"
       x="2362.7671"
       sodipodi:linespacing="125%">
      <tspan
         id="tspan30"
         y="733.07928"
         x="2362.7671" />
    </text>
    <text
       style="font-size:46.95375824px;text-anchor:middle;font-family:Arial"
       id="text32"
       transform="scale(4.0128205,0.24920128)"
       y="2592.5552"
       x="785.88147" />
    <text
       style="font-size:129.22999573px;line-height:125%;letter-spacing:0;word-spacing:0;font-family:Gentium Book Basic"
       id="text34"
       y="551.81934"
       x="1291.1871"
       sodipodi:linespacing="125%">
      <tspan
         id="tspan36"
         y="551.81934"
         x="1291.1871" />
    </text>
    <text
       style="font-size:46.95375824px;text-anchor:middle;font-family:Arial"
       id="text38"
       transform="scale(4.0128205,0.24920128)"
       y="1865.2089"
       x="518.84283" />
    <text
       style="font-size:129.22999573px;line-height:125%;letter-spacing:0;word-spacing:0;font-family:Gentium Book Basic"
       id="text40"
       y="335.3493"
       x="2389.2371"
       sodipodi:linespacing="125%">
      <tspan
         id="tspan42"
         y="335.3493"
         x="2389.2371" />
    </text>
    <text
       style="font-size:46.95375824px;text-anchor:middle;font-family:Arial"
       id="text44"
       transform="scale(4.0128205,0.24920128)"
       y="996.53333"
       x="792.48138" />
    <text
       style="font-size:129.22999573px;line-height:125%;letter-spacing:0;word-spacing:0;font-family:Gentium Book Basic"
       id="text46"
       y="255.34933"
       x="2970.5071"
       sodipodi:linespacing="125%">
      <tspan
         id="tspan48"
         y="255.34933"
         x="2970.5071" />
    </text>
    <text
       style="font-size:46.95375824px;text-anchor:middle;font-family:Arial"
       id="text50"
       transform="scale(4.0128205,0.24920128)"
       y="675.50494"
       x="937.33069" />
    <text
       style="font-size:129.22999573px;line-height:125%;letter-spacing:0;word-spacing:0;font-family:Gentium Book Basic"
       id="text52"
       y="-217.05067"
       x="2581.3872"
       sodipodi:linespacing="125%">
      <tspan
         id="tspan54"
         y="-217.05067"
         x="2581.3872" />
    </text>
    <text
       style="font-size:46.95375824px;text-anchor:middle;font-family:Arial"
       id="text56"
       transform="scale(4.0128205,0.24920128)"
       y="-1220.1454"
       x="840.36115" />
    <text
       style="font-size:129.22999573px;line-height:125%;letter-spacing:0;word-spacing:0;font-family:Gentium Book Basic"
       id="text58"
       y="-297.0607"
       x="3162.6472"
       sodipodi:linespacing="125%">
      <tspan
         id="tspan60"
         y="-297.0607"
         x="3162.6472" />
    </text>
    <text
       style="font-size:46.95375824px;text-anchor:middle;font-family:Arial"
       id="text62"
       transform="scale(4.0128205,0.24920128)"
       y="-1541.1837"
       x="985.21045" />
    <text
       style="font-size:208.33000183px;line-height:125%;letter-spacing:0;word-spacing:0;font-family:Gentium Book Basic"
       id="text64"
       y="1117.6594"
       x="1329.847"
       sodipodi:linespacing="125%">
      <tspan
         id="tspan66"
         y="1117.6594"
         x="1329.847" />
    </text>
    <path
       id="path4329"
       transform="translate(0,540.36218)"
       d="M 155.21875 143.90625 L 133.5625 308 L 379.78125 308 L 361.65625 143.90625 L 155.21875 143.90625 z M 178.4375 162.6875 L 337.625 162.6875 L 351.59375 289.21875 L 161.75 289.21875 L 178.4375 162.6875 z "
       style="color:#000000;fill:#19171c;fill-opacity:1;fill-rule:evenodd;stroke:none;stroke-width:1px;marker:none;visibility:visible;display:inline;overflow:visible;enable-background:accumulate" />
  </g>
</svg>
