<?xml version="1.0" encoding="UTF-8" standalone="no"?>
<svg
   xmlns:dc="http://purl.org/dc/elements/1.1/"
   xmlns:cc="http://creativecommons.org/ns#"
   xmlns:rdf="http://www.w3.org/1999/02/22-rdf-syntax-ns#"
   xmlns:svg="http://www.w3.org/2000/svg"
   xmlns="http://www.w3.org/2000/svg"
   xmlns:sodipodi="http://sodipodi.sourceforge.net/DTD/sodipodi-0.dtd"
   xmlns:inkscape="http://www.inkscape.org/namespaces/inkscape"
   viewBox="0 0 512 512"
   id="svg2"
   version="1.1"
   inkscape:version="0.48.5 r10040"
   width="100%"
   height="100%"
   sodipodi:docname="a base.svg">
  <sodipodi:namedview
     pagecolor="#ffffff"
     bordercolor="#666666"
     borderopacity="1"
     objecttolerance="10"
     gridtolerance="10"
     guidetolerance="10"
     inkscape:pageopacity="0"
     inkscape:pageshadow="2"
     inkscape:window-width="1307"
     inkscape:window-height="748"
     id="namedview66"
     showgrid="false"
     inkscape:zoom="0.4609375"
     inkscape:cx="133.9158"
     inkscape:cy="328.42786"
     inkscape:window-x="57"
     inkscape:window-y="-3"
     inkscape:window-maximized="1"
     inkscape:current-layer="svg2" />
  <metadata
     id="metadata70">
    <rdf:RDF>
      <cc:Work
         rdf:about="">
        <dc:format>image/svg+xml</dc:format>
        <dc:type
           rdf:resource="http://purl.org/dc/dcmitype/StillImage" />
        <dc:title></dc:title>
      </cc:Work>
    </rdf:RDF>
  </metadata>
  <defs
     id="defs68">
    <clipPath
       clipPathUnits="userSpaceOnUse"
       id="clipPath3550">
      <path
         d="m 471.9456,253.05189 c 0,120.89699 -98.00565,218.90724 -218.90724,218.90724 -120.89698,0 -218.90723,-98.00566 -218.90723,-218.90724 0,-120.89698 98.00565,-218.907232 218.90723,-218.907232 120.89699,0 218.90724,98.005652 218.90724,218.907232"
         id="path3552"
         inkscape:connector-curvature="0"
         style="fill:#4273b6;fill-opacity:1;fill-rule:evenodd" />
    </clipPath>
  </defs>
  <path
     style="fill:#4273b6;fill-rule:evenodd;fill-opacity:1"
     inkscape:connector-curvature="0"
     id="path8"
     d="m 471.9456,253.05189 c 0,120.89699 -98.00565,218.90724 -218.90724,218.90724 -120.89698,0 -218.90723,-98.00566 -218.90723,-218.90724 0,-120.89698 98.00565,-218.907232 218.90723,-218.907232 120.89699,0 218.90724,98.005652 218.90724,218.907232" />
  <g
     style="color:#000000;fill:#000000;fill-opacity:1;fill-rule:evenodd;stroke:none;stroke-width:1px;marker:none;visibility:visible;display:inline;overflow:visible;enable-background:accumulate;opacity:0.25"
     id="g3162"
     clip-path="url(#clipPath3550)">
    <path
       inkscape:connector-curvature="0"
       d="m 157.99552,115.92958 c -6.86354,0.15427 -15.00432,0.82711 -24.14735,1.96947 L 522.7569,506.80778 c 9.14303,-1.14236 17.28381,-1.8152 24.14735,-1.96947 z"
       id="path3164"
       style="fill:#000000" />
    <path
       inkscape:connector-curvature="0"
       d="m 133.84817,117.89905 c -13.35734,1.6689 -15.07068,2.55684 -15.07068,8.13474 l 388.90873,388.90873 c 0,-5.5779 1.71334,-6.46584 15.07068,-8.13474 z"
       id="path3166"
       style="fill:#000000" />
    <path
       inkscape:connector-curvature="0"
       d="m 118.77749,126.03379 c 0,2.20691 0.28327,3.68774 1.34603,4.7505 l 388.90873,388.90873 c -1.06276,-1.06276 -1.34603,-2.54359 -1.34603,-4.7505 z"
       id="path3168"
       style="fill:#000000" />
    <path
       inkscape:connector-curvature="0"
       d="m 120.12352,130.78429 c 1.56311,1.56311 4.8125,2.22182 11.32704,2.95611 l 388.90873,388.90873 c -6.51454,-0.73429 -9.76393,-1.393 -11.32704,-2.95611 z"
       id="path3170"
       style="fill:#000000" />
    <path
       inkscape:connector-curvature="0"
       d="m 131.45056,133.7404 c 7.07853,0.79783 14.64389,3.59713 17.49831,6.45155 L 537.8576,529.10068 c -2.85443,-2.85442 -10.41979,-5.65372 -17.49831,-6.45155 z"
       id="path3172"
       style="fill:#000000" />
    <path
       inkscape:connector-curvature="0"
       d="m 148.94887,140.19195 c 0.0187,0.0187 0.0373,0.0375 0.0556,0.0562 L 537.9132,529.15688 c -0.0183,-0.0188 -0.0369,-0.0375 -0.0556,-0.0562 z"
       id="path3174"
       style="fill:#000000" />
    <path
       inkscape:connector-curvature="0"
       d="m 149.00449,140.24819 c 8.45822,8.64816 40.76738,63.5992 59.16957,100.69959 L 597.08279,629.85651 C 578.6806,592.75612 546.37144,537.80508 537.91322,529.15692 z"
       id="path3176"
       style="fill:#000000" />
    <path
       inkscape:connector-curvature="0"
       d="m 208.17406,240.94778 17.46829,35.27911 388.90873,388.90873 -17.46829,-35.27911 z"
       id="path3178"
       style="fill:#000000" />
    <path
       inkscape:connector-curvature="0"
       d="m 225.64235,276.22689 0,47.43841 388.90873,388.90873 0,-47.43841 z"
       id="path3180"
       style="fill:#000000" />
    <path
       inkscape:connector-curvature="0"
       d="m 225.64235,323.6653 c 0,46.09555 -0.17591,47.59558 -6.16528,51.80548 L 608.3858,764.37951 c 5.98937,-4.2099 6.16528,-5.70993 6.16528,-51.80548 z"
       id="path3182"
       style="fill:#000000" />
    <path
       inkscape:connector-curvature="0"
       d="m 219.47707,375.47078 c -3.3909,2.38342 -10.78924,5.57939 -16.44075,7.1072 l 388.90873,388.90873 c 5.65151,-1.52781 13.04985,-4.72378 16.44075,-7.1072 z"
       id="path3184"
       style="fill:#000000" />
    <path
       inkscape:connector-curvature="0"
       d="m 203.03632,382.57798 c -7.43727,2.01054 -10.27546,4.24464 -10.27546,8.13475 l 388.90873,388.90873 c 0,-3.89011 2.83819,-6.12421 10.27546,-8.13475 z"
       id="path3186"
       style="fill:#000000" />
    <path
       inkscape:connector-curvature="0"
       d="m 192.76086,390.71273 c 0,1.14255 0.10666,2.04366 0.81722,2.75421 l 388.90873,388.90873 c -0.71056,-0.71055 -0.81722,-1.61166 -0.81722,-2.75421 z"
       id="path3188"
       style="fill:#000000" />
    <path
       inkscape:connector-curvature="0"
       d="m 193.57808,393.46694 c 2.49279,2.49279 12.41805,2.64041 51.24515,2.64041 l 388.90873,388.90873 c -38.8271,0 -48.75237,-0.14762 -51.24515,-2.64041 z"
       id="path3190"
       style="fill:#000000" />
    <path
       inkscape:connector-curvature="0"
       d="m 244.82323,396.10735 c 49.8946,0 52.06237,-0.24388 52.06237,-5.39462 l 388.90873,388.90873 c 0,5.15074 -2.16777,5.39462 -52.06237,5.39462 z"
       id="path3192"
       style="fill:#000000" />
    <path
       inkscape:connector-curvature="0"
       d="m 296.8856,390.71273 c 0,-1.65779 -0.51544,-3.01484 -1.6826,-4.18201 l 388.90873,388.90873 c 1.16716,1.16717 1.6826,2.52422 1.6826,4.18201 z"
       id="path3194"
       style="fill:#000000" />
    <path
       inkscape:connector-curvature="0"
       d="m 295.203,386.53072 c -1.57166,-1.57165 -4.32503,-2.799 -8.59287,-3.95274 l 388.90873,388.90873 c 4.26784,1.15374 7.02121,2.38109 8.59287,3.95274 z"
       id="path3196"
       style="fill:#000000" />
    <path
       inkscape:connector-curvature="0"
       d="m 286.61013,382.57798 c -5.65151,-1.52781 -13.04984,-4.72378 -16.44075,-7.1072 l 388.90873,388.90873 c 3.39091,2.38342 10.78924,5.57939 16.44075,7.1072 z"
       id="path3198"
       style="fill:#000000" />
    <path
       inkscape:connector-curvature="0"
       d="m 270.16938,375.47078 c -0.87689,-0.61635 -1.62917,-1.17407 -2.27454,-1.81944 l 388.90873,388.90873 c 0.64537,0.64537 1.39765,1.20309 2.27454,1.81944 z"
       id="path3200"
       style="fill:#000000" />
    <path
       inkscape:connector-curvature="0"
       d="m 267.89484,373.65134 c -3.75711,-3.75711 -3.89074,-10.48475 -3.89074,-49.04413 l 388.90873,388.90873 c 0,38.55938 0.13363,45.28701 3.89074,49.04413 z"
       id="path3202"
       style="fill:#000000" />
    <path
       inkscape:connector-curvature="0"
       d="m 264.0041,324.60721 0,-46.58212 388.90873,388.90873 0,46.58212 z"
       id="path3204"
       style="fill:#000000" />
    <path
       inkscape:connector-curvature="0"
       d="m 264.0041,278.02509 14.64254,-28.00065 388.90873,388.90873 -14.64254,28.00065 z"
       id="path3206"
       style="fill:#000000" />
    <path
       inkscape:connector-curvature="0"
       d="m 278.64664,250.02444 c 8.07682,-15.36933 23.44985,-45.24702 34.16593,-66.44802 L 701.7213,572.48515 c -10.71608,21.201 -26.08911,51.07869 -34.16593,66.44802 z"
       id="path3208"
       style="fill:#000000" />
    <path
       inkscape:connector-curvature="0"
       d="m 312.81257,183.57642 c 10.71606,-21.20101 21.79271,-40.6386 24.5755,-43.15697 L 726.2968,529.32818 c -2.78279,2.51837 -13.85944,21.95596 -24.5755,43.15697 z"
       id="path3210"
       style="fill:#000000" />
    <path
       inkscape:connector-curvature="0"
       d="m 337.38807,140.41945 c 2.78279,-2.51839 9.91303,-6.26165 15.84135,-8.306 l 388.90873,388.90873 c -5.92832,2.04435 -13.05856,5.78761 -15.84135,8.306 z"
       id="path3212"
       style="fill:#000000" />
    <path
       inkscape:connector-curvature="0"
       d="m 353.22942,132.11345 c 7.43434,-2.56369 11.0416,-5.51818 11.64553,-9.59044 l 388.90873,388.90873 c -0.60393,4.07226 -4.21119,7.02675 -11.64553,9.59044 z"
       id="path3214"
       style="fill:#000000" />
    <path
       inkscape:connector-curvature="0"
       d="m 364.87495,122.52301 c 0.24169,-1.62974 0.37679,-2.81002 -0.47796,-3.66477 l 388.90872,388.90873 c 0.85476,0.85475 0.71966,2.03503 0.47797,3.66477 z"
       id="path3216"
       style="fill:#000000" />
    <path
       inkscape:connector-curvature="0"
       d="m 364.39699,118.85824 c -2.20357,-2.20356 -10.98581,-2.24362 -41.4802,-2.24362 l 388.90873,388.90873 c 30.49439,0 39.27663,0.0401 41.48019,2.24362 z"
       id="path3218"
       style="fill:#000000" />
    <path
       inkscape:connector-curvature="0"
       d="m 322.91679,116.61462 c -41.98055,0 -42.81593,0.10193 -41.95817,5.73713 l 388.90873,388.90873 c -0.85776,-5.6352 -0.0224,-5.73713 41.95817,-5.73713 z"
       id="path3220"
       style="fill:#000000" />
    <path
       inkscape:connector-curvature="0"
       d="m 280.95862,122.35175 c 0.24603,1.61633 1.03182,3.09192 2.37788,4.43798 l 388.90873,388.90873 c -1.34606,-1.34606 -2.13185,-2.82165 -2.37788,-4.43798 z"
       id="path3222"
       style="fill:#000000" />
    <path
       inkscape:connector-curvature="0"
       d="m 283.3365,126.78973 c 1.87248,1.87247 4.82913,3.49428 8.92514,4.89557 l 388.90873,388.90873 c -4.09601,-1.40129 -7.05266,-3.0231 -8.92514,-4.89557 z"
       id="path3224"
       style="fill:#000000" />
    <path
       inkscape:connector-curvature="0"
       d="m 292.26164,131.6853 c 5.75192,1.96779 11.28983,4.43948 12.3243,5.47395 l 388.90873,388.90873 c -1.03447,-1.03447 -6.57238,-3.50616 -12.3243,-5.47395 z"
       id="path3226"
       style="fill:#000000" />
    <path
       inkscape:connector-curvature="0"
       d="m 304.58594,137.15925 c 0.002,0.002 0.004,0.004 0.006,0.006 l 388.90873,388.90873 c -0.002,-0.002 -0.004,-0.004 -0.006,-0.006 z"
       id="path3228"
       style="fill:#000000" />
    <path
       inkscape:connector-curvature="0"
       d="m 304.5922,137.16555 c 2.15352,2.18007 -49.48983,104.12474 -52.7474,104.12474 l 388.90873,388.90873 c 3.25757,0 54.90092,-101.94467 52.7474,-104.12474 z"
       id="path3230"
       style="fill:#000000" />
    <path
       inkscape:connector-curvature="0"
       d="m 251.8448,241.29029 c -0.0836,0 -0.20949,-0.0852 -0.37521,-0.25087 l 388.90873,388.90873 c 0.16572,0.16571 0.29165,0.25087 0.37521,0.25087 z"
       id="path3232"
       style="fill:#000000" />
    <path
       inkscape:connector-curvature="0"
       d="m 251.46959,241.03942 c -2.21669,-2.21669 -11.55145,-18.84783 -21.80268,-38.88153 l 388.90873,388.90873 c 10.25123,20.0337 19.58599,36.66484 21.80268,38.88153 z"
       id="path3234"
       style="fill:#000000" />
    <path
       inkscape:connector-curvature="0"
       d="m 229.66691,202.15789 c -20.70487,-40.4629 -40.74493,-74.38158 -48.51708,-82.15373 l 388.90873,388.90873 c 7.77215,7.77215 27.81221,41.69083 48.51708,82.15373 z"
       id="path3236"
       style="fill:#000000" />
    <path
       inkscape:connector-curvature="0"
       d="m 181.14983,120.00416 c -0.31769,-0.31769 -0.61489,-0.5917 -0.89079,-0.82068 l 388.90873,388.90873 c 0.2759,0.22898 0.5731,0.50299 0.89079,0.82068 z"
       id="path3238"
       style="fill:#000000" />
    <path
       inkscape:connector-curvature="0"
       d="m 180.25904,119.18348 c -2.92155,-2.42465 -10.82426,-3.51108 -22.26352,-3.2539 l 388.90873,388.90873 c 11.43926,-0.25718 19.34197,0.82925 22.26352,3.2539 z"
       id="path3240"
       style="fill:#000000" />
    <path
       inkscape:connector-curvature="0"
       d="m 408.11754,291.64009 -23.20543,66.01988 388.90873,388.90873 23.20543,-66.01988 z"
       id="path3242"
       style="fill:#000000" />
    <path
       inkscape:connector-curvature="0"
       d="m 384.91211,357.65997 14.98506,0 388.90873,388.90873 -14.98506,0 z"
       id="path3244"
       style="fill:#000000" />
    <path
       inkscape:connector-curvature="0"
       d="m 399.89717,357.65997 4.79521,-15.67009 388.90873,388.90873 -4.79521,15.67009 z"
       id="path3246"
       style="fill:#000000" />
    <path
       inkscape:connector-curvature="0"
       d="m 404.69238,341.98988 23.9761,0 388.90873,388.90873 -23.9761,0 z"
       id="path3248"
       style="fill:#000000" />
    <path
       inkscape:connector-curvature="0"
       d="m 428.66848,341.98988 4.79522,15.67009 388.90873,388.90873 -4.79522,-15.67009 z"
       id="path3250"
       style="fill:#000000" />
    <path
       inkscape:connector-curvature="0"
       d="m 433.4637,357.65997 14.98505,0 388.90873,388.90873 -14.98505,0 z"
       id="path3252"
       style="fill:#000000" />
    <path
       inkscape:connector-curvature="0"
       d="m 448.44875,357.65997 -23.29106,-66.01988 388.90873,388.90873 23.29106,66.01988 z"
       id="path3254"
       style="fill:#000000" />
    <path
       inkscape:connector-curvature="0"
       d="m 425.15769,291.64009 -17.04015,0 388.90873,388.90873 17.04015,0 z"
       id="path3256"
       style="fill:#000000" />
    <path
       inkscape:connector-curvature="0"
       d="m 279.4173,291.89684 0,65.76299 388.90873,388.90873 0,-65.76299 z"
       id="path3258"
       style="fill:#000000" />
    <path
       inkscape:connector-curvature="0"
       d="m 279.4173,357.65983 13.95751,0 388.90873,388.90873 -13.95751,0 z"
       id="path3260"
       style="fill:#000000" />
    <path
       inkscape:connector-curvature="0"
       d="m 293.37481,357.65983 0,-23.37669 388.90873,388.90873 0,23.37669 z"
       id="path3262"
       style="fill:#000000" />
    <path
       inkscape:connector-curvature="0"
       d="m 293.37481,334.28314 5.9084,0 388.90873,388.90873 -5.9084,0 z"
       id="path3264"
       style="fill:#000000" />
    <path
       inkscape:connector-curvature="0"
       d="m 299.28321,334.28314 c 8.16116,3e-5 14.51329,-1.9009 18.92399,-5.6515 l 388.90873,388.90873 c -4.4107,3.7506 -10.76283,5.65153 -18.92399,5.6515 z"
       id="path3266"
       style="fill:#000000" />
    <path
       inkscape:connector-curvature="0"
       d="m 318.2072,328.63164 c 4.44059,-3.75052 6.59337,-9.10278 6.59342,-16.18387 L 713.70935,701.3565 c -5e-5,7.08109 -2.15283,12.43335 -6.59342,16.18387 z"
       id="path3268"
       style="fill:#000000" />
    <path
       inkscape:connector-curvature="0"
       d="m 324.80062,312.44777 c -5e-5,-6.14662 -1.69432,-10.96628 -5.09017,-14.36212 l 388.90873,388.90873 c 3.39585,3.39584 5.09012,8.2155 5.09017,14.36212 z"
       id="path3270"
       style="fill:#000000" />
    <path
       inkscape:connector-curvature="0"
       d="m 319.71045,298.08565 c -0.36703,-0.36704 -0.75394,-0.71744 -1.16074,-1.05108 L 707.45844,685.9433 c 0.4068,0.33364 0.79371,0.68404 1.16074,1.05108 z"
       id="path3272"
       style="fill:#000000" />
    <path
       inkscape:connector-curvature="0"
       d="m 318.54971,297.03457 c -4.14066,-3.45042 -10.17219,-5.13768 -18.15333,-5.13773 l 388.90873,388.90873 c 7.98114,5e-5 14.01267,1.68731 18.15333,5.13773 z"
       id="path3274"
       style="fill:#000000" />
    <path
       inkscape:connector-curvature="0"
       d="m 300.39638,291.89684 -20.97908,0 388.90873,388.90873 20.97908,0 z"
       id="path3276"
       style="fill:#000000" />
    <path
       inkscape:connector-curvature="0"
       d="m 337.38807,291.89684 0,65.76299 388.90873,388.90873 0,-65.76299 z"
       id="path3278"
       style="fill:#000000" />
    <path
       inkscape:connector-curvature="0"
       d="m 337.38807,357.65983 13.95751,0 388.90873,388.90873 -13.95751,0 z"
       id="path3280"
       style="fill:#000000" />
    <path
       inkscape:connector-curvature="0"
       d="m 351.34558,357.65983 0,-23.37669 388.90873,388.90873 0,23.37669 z"
       id="path3282"
       style="fill:#000000" />
    <path
       inkscape:connector-curvature="0"
       d="m 351.34558,334.28314 5.90839,0 388.90873,388.90873 -5.90839,0 z"
       id="path3284"
       style="fill:#000000" />
    <path
       inkscape:connector-curvature="0"
       d="m 357.25397,334.28314 c 8.16116,3e-5 14.51329,-1.9009 18.92399,-5.6515 l 388.90873,388.90873 c -4.4107,3.7506 -10.76283,5.65153 -18.92399,5.6515 z"
       id="path3286"
       style="fill:#000000" />
    <path
       inkscape:connector-curvature="0"
       d="m 376.17796,328.63164 c 4.44062,-3.75052 6.59337,-9.10278 6.59343,-16.18387 L 771.68012,701.3565 c -6e-5,7.08109 -2.15281,12.43335 -6.59343,16.18387 z"
       id="path3288"
       style="fill:#000000" />
    <path
       inkscape:connector-curvature="0"
       d="m 382.77139,312.44777 c -5e-5,-6.14662 -1.69433,-10.96628 -5.09017,-14.36212 l 388.90873,388.90872 c 3.39584,3.39585 5.09012,8.21551 5.09017,14.36213 z"
       id="path3290"
       style="fill:#000000" />
    <path
       inkscape:connector-curvature="0"
       d="m 377.68122,298.08565 c -0.36703,-0.36704 -0.75394,-0.71744 -1.16074,-1.05108 L 765.42921,685.9433 c 0.4068,0.33364 0.79371,0.68404 1.16074,1.05107 z"
       id="path3292"
       style="fill:#000000" />
    <path
       inkscape:connector-curvature="0"
       d="m 376.52048,297.03457 c -4.14066,-3.45042 -10.1722,-5.13768 -18.15333,-5.13773 l 388.90873,388.90873 c 7.98113,5e-5 14.01267,1.68731 18.15333,5.13773 z"
       id="path3294"
       style="fill:#000000" />
    <path
       inkscape:connector-curvature="0"
       d="m 358.36715,291.89684 -20.97908,0 388.90873,388.90873 20.97908,0 z"
       id="path3296"
       style="fill:#000000" />
    <path
       inkscape:connector-curvature="0"
       d="m 416.68043,301.82979 c 0.24004,1.08021 0.6587,2.50686 1.19881,4.36707 l 388.90873,388.90873 c -0.54011,-1.86021 -0.95877,-3.28686 -1.19881,-4.36707 z"
       id="path3298"
       style="fill:#000000" />
    <path
       inkscape:connector-curvature="0"
       d="m 417.87924,306.19686 c 0.57005,1.86033 3.03901,9.95532 7.44971,24.14735 l 388.90873,388.90873 c -4.4107,-14.19203 -6.87966,-22.28702 -7.44971,-24.14735 z"
       id="path3300"
       style="fill:#000000" />
    <path
       inkscape:connector-curvature="0"
       d="m 425.32895,330.34421 -17.12578,0 388.90873,388.90873 17.12578,0 z"
       id="path3302"
       style="fill:#000000" />
    <path
       inkscape:connector-curvature="0"
       d="m 408.20317,330.34421 c 4.68068,-15.15217 7.48709,-24.67381 8.47726,-28.51442 l 388.90873,388.90873 c -0.99017,3.84061 -3.79658,13.36225 -8.47726,28.51442 z"
       id="path3304"
       style="fill:#000000" />
    <path
       inkscape:connector-curvature="0"
       d="m 293.37481,303.28548 6.33654,0 388.90873,388.90873 -6.33654,0 z"
       id="path3306"
       style="fill:#000000" />
    <path
       inkscape:connector-curvature="0"
       d="m 299.71135,303.28548 c 3.81053,6e-5 6.53572,0.83741 8.30601,2.39761 l 388.90873,388.90873 c -1.77029,-1.5602 -4.49548,-2.39755 -8.30601,-2.39761 z"
       id="path3308"
       style="fill:#000000" />
    <path
       inkscape:connector-curvature="0"
       d="m 308.01736,305.68309 c 0.12943,0.11217 0.25441,0.22849 0.37491,0.34899 L 697.301,694.94081 c -0.1205,-0.1205 -0.24548,-0.23682 -0.37491,-0.34899 z"
       id="path3310"
       style="fill:#000000" />
    <path
       inkscape:connector-curvature="0"
       d="m 308.39227,306.03208 c 1.5556,1.55561 2.36516,3.80854 2.36521,6.84384 l 388.90873,388.90873 c -5e-5,-3.0353 -0.80961,-5.28823 -2.36521,-6.84384 z"
       id="path3312"
       style="fill:#000000" />
    <path
       inkscape:connector-curvature="0"
       d="m 310.75748,312.87592 c -5e-5,3.24052 -1.03799,5.73952 -3.16827,7.44971 l 388.90873,388.90873 c 2.13028,-1.71019 3.16822,-4.20919 3.16827,-7.44971 z"
       id="path3314"
       style="fill:#000000" />
    <path
       inkscape:connector-curvature="0"
       d="m 307.58921,320.32563 c -2.13034,1.6803 -5.38547,2.48327 -9.67606,2.48324 L 686.82188,711.7176 c 4.29059,3e-5 7.54572,-0.80294 9.67606,-2.48324 z"
       id="path3316"
       style="fill:#000000" />
    <path
       inkscape:connector-curvature="0"
       d="m 297.91315,322.80887 -4.53834,0 388.90873,388.90873 4.53834,0 z"
       id="path3318"
       style="fill:#000000" />
    <path
       inkscape:connector-curvature="0"
       d="m 293.37481,322.80887 0,-19.52339 388.90873,388.90873 0,19.52339 z"
       id="path3320"
       style="fill:#000000" />
    <path
       inkscape:connector-curvature="0"
       d="m 351.34558,303.28548 6.33654,0 388.90873,388.90873 -6.33654,0 z"
       id="path3322"
       style="fill:#000000" />
    <path
       inkscape:connector-curvature="0"
       d="m 357.68212,303.28548 c 3.81053,6e-5 6.53572,0.83741 8.306,2.39761 l 388.90873,388.90873 c -1.77028,-1.5602 -4.49547,-2.39755 -8.306,-2.39761 z"
       id="path3324"
       style="fill:#000000" />
    <path
       inkscape:connector-curvature="0"
       d="m 365.98812,305.68309 c 0.12943,0.11218 0.25442,0.2285 0.37493,0.34901 l 388.90873,388.90873 c -0.12051,-0.12051 -0.2455,-0.23683 -0.37493,-0.34901 z"
       id="path3326"
       style="fill:#000000" />
    <path
       inkscape:connector-curvature="0"
       d="m 366.36305,306.0321 c 1.5556,1.5556 2.36517,3.80854 2.3652,6.84382 l 388.90873,388.90873 c -3e-5,-3.03528 -0.8096,-5.28822 -2.3652,-6.84382 z"
       id="path3328"
       style="fill:#000000" />
    <path
       inkscape:connector-curvature="0"
       d="m 368.72825,312.87592 c -3e-5,3.24052 -1.03802,5.73952 -3.16827,7.44971 l 388.90873,388.90873 c 2.13025,-1.71019 3.16824,-4.20919 3.16827,-7.44971 z"
       id="path3330"
       style="fill:#000000" />
    <path
       inkscape:connector-curvature="0"
       d="m 365.55998,320.32563 c -2.13037,1.6803 -5.38547,2.48327 -9.67607,2.48324 L 744.79264,711.7176 c 4.2906,3e-5 7.5457,-0.80294 9.67607,-2.48324 z"
       id="path3332"
       style="fill:#000000" />
    <path
       inkscape:connector-curvature="0"
       d="m 355.88391,322.80887 -4.53833,0 388.90873,388.90873 4.53833,0 z"
       id="path3334"
       style="fill:#000000" />
    <path
       inkscape:connector-curvature="0"
       d="m 351.34558,322.80887 0,-19.52339 388.90873,388.90873 0,19.52339 z"
       id="path3336"
       style="fill:#000000" />
  </g>
  <path
     style="color:#000000;fill:#ffffff;fill-opacity:1;fill-rule:evenodd;stroke:none;stroke-width:1px;marker:none;visibility:visible;display:inline;overflow:visible;enable-background:accumulate"
     d="m 157.99552,115.92958 c -6.86354,0.15427 -15.00432,0.82711 -24.14735,1.96947 -13.35734,1.6689 -15.07068,2.55684 -15.07068,8.13474 0,5.45285 1.72932,6.47308 12.67307,7.70661 7.12501,0.80307 14.74327,3.63398 17.55393,6.50779 8.45822,8.64816 40.76738,63.5992 59.16957,100.69959 l 17.46829,35.27911 0,47.43841 c 0,46.09555 -0.17591,47.59558 -6.16528,51.80548 -3.3909,2.38342 -10.78924,5.57939 -16.44075,7.1072 -7.43727,2.01054 -10.27546,4.24464 -10.27546,8.13475 0,5.15085 2.16776,5.39462 52.06237,5.39462 49.8946,0 52.06237,-0.24388 52.06237,-5.39462 0,-3.89011 -2.83819,-6.12421 -10.27547,-8.13475 -5.65151,-1.52781 -13.04984,-4.72378 -16.44075,-7.1072 -5.9818,-4.20453 -6.16528,-5.68074 -6.16528,-50.86357 l 0,-46.58212 14.64254,-28.00065 c 8.07682,-15.36933 23.44985,-45.24702 34.16593,-66.44802 10.71606,-21.20101 21.79271,-40.6386 24.5755,-43.15697 2.78279,-2.51839 9.91303,-6.26165 15.84135,-8.306 7.43434,-2.56369 11.0416,-5.51818 11.64553,-9.59044 0.86478,-5.83123 0.36487,-5.90839 -41.95816,-5.90839 -41.98055,0 -42.81593,0.10193 -41.95817,5.73713 0.58828,3.86478 4.26254,6.92493 11.30302,9.33355 5.76363,1.9718 11.31238,4.44955 12.33056,5.48025 2.15352,2.18007 -49.48983,104.12474 -52.7474,104.12474 -1.20135,0 -11.16031,-17.60105 -22.17789,-39.1324 -21.55119,-42.11684 -42.38211,-77.14353 -49.40787,-82.97441 -2.92155,-2.42465 -10.82426,-3.51108 -22.26352,-3.2539 z m 250.12202,175.71051 -23.20543,66.01988 14.98506,0 4.79521,-15.67009 23.9761,0 4.79522,15.67009 14.98505,0 -23.29106,-66.01988 -17.04015,0 z m -128.70024,0.25675 0,65.76299 13.95751,0 0,-23.37669 5.9084,0 c 8.16116,3e-5 14.51329,-1.9009 18.92399,-5.6515 4.44059,-3.75052 6.59337,-9.10278 6.59342,-16.18387 -5e-5,-6.81096 -2.08036,-11.99262 -6.25091,-15.4132 -4.14066,-3.45042 -10.17219,-5.13768 -18.15333,-5.13773 l -20.97908,0 z m 57.97077,0 0,65.76299 13.95751,0 0,-23.37669 5.90839,0 c 8.16116,3e-5 14.51329,-1.9009 18.92399,-5.6515 4.44062,-3.75052 6.59337,-9.10278 6.59343,-16.18387 -6e-5,-6.81096 -2.08036,-11.99262 -6.25091,-15.4132 -4.14066,-3.45042 -10.1722,-5.13768 -18.15333,-5.13773 l -20.97908,0 z m 79.29236,9.93295 c 0.24004,1.08021 0.6587,2.50686 1.19881,4.36707 0.57005,1.86033 3.03901,9.95532 7.44971,24.14735 l -17.12578,0 c 4.68068,-15.15217 7.48709,-24.67381 8.47726,-28.51442 z m -123.30562,1.45569 6.33654,0 c 3.81053,6e-5 6.53572,0.83741 8.30601,2.39761 1.80023,1.56025 2.74007,3.92241 2.74012,7.19283 -5e-5,3.24052 -1.03799,5.73952 -3.16827,7.44971 -2.13034,1.6803 -5.38547,2.48327 -9.67606,2.48324 l -4.53834,0 0,-19.52339 z m 57.97077,0 6.33654,0 c 3.81053,6e-5 6.53572,0.83741 8.306,2.39761 1.80024,1.56025 2.7401,3.92241 2.74013,7.19283 -3e-5,3.24052 -1.03802,5.73952 -3.16827,7.44971 -2.13037,1.6803 -5.38547,2.48327 -9.67607,2.48324 l -4.53833,0 0,-19.52339 z"
     id="path3071"
     inkscape:connector-curvature="0" />
  <path
     style="fill-opacity:0.06700003;fill-rule:evenodd"
     inkscape:connector-curvature="0"
     id="path10"
     d="M 256,1 C 115.17,1 1,115.17 1,256 1,396.83 115.17,511 256,511 396.83,511 511,396.83 511,256 511,115.17 396.83,1 256,1 m 8.827,44.931 c 120.9,0 218.9,98 218.9,218.9 0,120.9 -98,218.9 -218.9,218.9 -120.9,0 -218.93,-98 -218.93,-218.9 0,-120.9 98.03,-218.9 218.93,-218.9" />
  <path
     d="M 256,4.43 C 117.06,4.43 4.43,117.06 4.43,256 4.43,394.94 117.06,507.57 256,507.57 394.94,507.57 507.57,394.94 507.57,256 507.57,117.06 394.94,4.43 256,4.43 m 5.885,38.556 c 120.9,0 218.9,98 218.9,218.9 0,120.9 -98,218.9 -218.9,218.9 -120.9,0 -218.93,-98 -218.93,-218.9 0,-120.9 98.03,-218.9 218.93,-218.9"
     id="path14"
     inkscape:connector-curvature="0"
     style="fill-opacity:0.12900002;fill-rule:evenodd" />
  <path
     d="M 256,8.36 C 119.23,8.36 8.36,119.23 8.36,256 8.36,392.77 119.23,503.64 256,503.64 392.77,503.64 503.64,392.77 503.64,256 503.64,119.23 392.77,8.36 256,8.36 m 2.942,31.691 c 120.9,0 218.9,98 218.9,218.9 0,120.9 -98,218.9 -218.9,218.9 -120.9,0 -218.93,-98 -218.93,-218.9 0,-120.9 98.03,-218.9 218.93,-218.9"
     id="path16"
     inkscape:connector-curvature="0"
     style="fill-opacity:0.12900002;fill-rule:evenodd" />
  <path
     style="fill:#ffffff;fill-rule:evenodd;stroke:#000000;stroke-width:4.90399981;stroke-opacity:0.31000001"
     inkscape:connector-curvature="0"
     id="path18"
     d="M 253.04,7.86 C 117.62,7.86 7.85,117.64 7.85,253.05 c 0,135.42 109.78,245.19 245.19,245.19 135.42,0 245.19,-109.78 245.19,-245.19 C 498.23,117.63 388.45,7.86 253.04,7.86 z m 0,26.297 c 120.9,0 218.9,98 218.9,218.9 0,120.9 -98,218.9 -218.9,218.9 -120.9,0 -218.93,-98 -218.93,-218.9 0,-120.9 98.03,-218.9 218.93,-218.9 z" />
  <text
     font-size="129.23"
     letter-spacing="0"
     line-height="125%"
     word-spacing="0"
     x="729.64001"
     y="231.35997"
     id="text20"
     sodipodi:linespacing="125%"
     style="font-size:129.22999573px;line-height:125%;letter-spacing:0;word-spacing:0;font-family:Gentium Book Basic">
    <tspan
       x="729.64001"
       y="231.35997"
       id="tspan22" />
  </text>
  <text
     x="378.90805"
     y="579.25812"
     font-size="46.954"
     transform="scale(4.0128205,0.24920128)"
     id="text24"
     style="font-size:46.95375824px;text-anchor:middle;font-family:Arial" />
  <text
     font-size="129.23"
     letter-spacing="0"
     line-height="125%"
     word-spacing="0"
     x="1310.91"
     y="151.35997"
     id="text26"
     sodipodi:linespacing="125%"
     style="font-size:129.22999573px;line-height:125%;letter-spacing:0;word-spacing:0;font-family:Gentium Book Basic">
    <tspan
       x="1310.91"
       y="151.35997"
       id="tspan28" />
  </text>
  <text
     x="523.75732"
     y="258.21997"
     font-size="46.954"
     transform="scale(4.0128205,0.24920128)"
     id="text30"
     style="font-size:46.95375824px;text-anchor:middle;font-family:Arial" />
  <text
     font-size="129.23"
     letter-spacing="0"
     line-height="125%"
     word-spacing="0"
     x="239.33"
     y="-29.900009"
     id="text32"
     sodipodi:linespacing="125%"
     style="font-size:129.22999573px;line-height:125%;letter-spacing:0;word-spacing:0;font-family:Gentium Book Basic">
    <tspan
       x="239.33"
       y="-29.900009"
       id="tspan34" />
  </text>
  <text
     x="256.71869"
     y="-469.1264"
     font-size="46.954"
     transform="scale(4.0128205,0.24920128)"
     id="text36"
     style="font-size:46.95375824px;text-anchor:middle;font-family:Arial" />
  <text
     font-size="129.23"
     letter-spacing="0"
     line-height="125%"
     word-spacing="0"
     x="1337.38"
     y="-246.37001"
     id="text38"
     sodipodi:linespacing="125%"
     style="font-size:129.22999573px;line-height:125%;letter-spacing:0;word-spacing:0;font-family:Gentium Book Basic">
    <tspan
       x="1337.38"
       y="-246.37001"
       id="tspan40" />
  </text>
  <text
     x="530.3573"
     y="-1337.802"
     font-size="46.954"
     transform="scale(4.0128205,0.24920128)"
     id="text42"
     style="font-size:46.95375824px;text-anchor:middle;font-family:Arial" />
  <text
     font-size="129.23"
     letter-spacing="0"
     line-height="125%"
     word-spacing="0"
     x="1918.65"
     y="-326.37"
     id="text44"
     sodipodi:linespacing="125%"
     style="font-size:129.22999573px;line-height:125%;letter-spacing:0;word-spacing:0;font-family:Gentium Book Basic">
    <tspan
       x="1918.65"
       y="-326.37"
       id="tspan46" />
  </text>
  <text
     x="675.20654"
     y="-1658.8303"
     font-size="46.954"
     transform="scale(4.0128205,0.24920128)"
     id="text48"
     style="font-size:46.95375824px;text-anchor:middle;font-family:Arial" />
  <text
     font-size="129.23"
     letter-spacing="0"
     line-height="125%"
     word-spacing="0"
     x="1529.53"
     y="-798.77002"
     id="text50"
     sodipodi:linespacing="125%"
     style="font-size:129.22999573px;line-height:125%;letter-spacing:0;word-spacing:0;font-family:Gentium Book Basic">
    <tspan
       x="1529.53"
       y="-798.77002"
       id="tspan52" />
  </text>
  <text
     x="578.237"
     y="-3554.4807"
     font-size="46.954"
     transform="scale(4.0128205,0.24920128)"
     id="text54"
     style="font-size:46.95375824px;text-anchor:middle;font-family:Arial" />
  <text
     font-size="129.23"
     letter-spacing="0"
     line-height="125%"
     word-spacing="0"
     x="2110.79"
     y="-878.78003"
     id="text56"
     sodipodi:linespacing="125%"
     style="font-size:129.22999573px;line-height:125%;letter-spacing:0;word-spacing:0;font-family:Gentium Book Basic">
    <tspan
       x="2110.79"
       y="-878.78003"
       id="tspan58" />
  </text>
  <text
     x="723.0863"
     y="-3875.519"
     font-size="46.954"
     transform="scale(4.0128205,0.24920128)"
     id="text60"
     style="font-size:46.95375824px;text-anchor:middle;font-family:Arial" />
  <text
     font-size="208.33"
     letter-spacing="0"
     line-height="125%"
     word-spacing="0"
     x="277.98999"
     y="535.94006"
     id="text62"
     sodipodi:linespacing="125%"
     style="font-size:208.33000183px;line-height:125%;letter-spacing:0;word-spacing:0;font-family:Gentium Book Basic">
    <tspan
       x="277.98999"
       y="535.94006"
       id="tspan64" />
  </text>
</svg>
