<?xml version="1.0" encoding="UTF-8" standalone="no"?>
<!-- Created with Inkscape (http://www.inkscape.org/) -->

<svg
   xmlns:dc="http://purl.org/dc/elements/1.1/"
   xmlns:cc="http://creativecommons.org/ns#"
   xmlns:rdf="http://www.w3.org/1999/02/22-rdf-syntax-ns#"
   xmlns:svg="http://www.w3.org/2000/svg"
   xmlns="http://www.w3.org/2000/svg"
   xmlns:inkscape="http://www.inkscape.org/namespaces/inkscape"
   version="1.1"
   width="100%"
   height="100%"
   viewBox="0 0 512 512"
   id="svg2">
  <metadata
     id="metadata72">
    <rdf:RDF>
      <cc:Work
         rdf:about="">
        <dc:format>image/svg+xml</dc:format>
        <dc:type
           rdf:resource="http://purl.org/dc/dcmitype/StillImage" />
      </cc:Work>
    </rdf:RDF>
  </metadata>
  <defs
     id="defs70" />
  <path
     d="m 471.95,253.05 c 0,120.9 -98.01,218.9 -218.9,218.9 -120.9,0 -218.9,-98.01 -218.9,-218.9 0,-120.9 98.01,-218.9 218.9,-218.9 120.9,0 218.9,98.01 218.9,218.9"
     inkscape:connector-curvature="0"
     id="path4"
     style="fill:#c42319;fill-rule:evenodd" />
  <path
     d="m 257.56,166.53 c -30.19,0 -74.58,1.721 -87.94,2.156 -14.503,1.277 -20.03,2.023 -27.969,8.719 -12.1,10.6 -14.906,31.512 -14.906,63.38 v 30.438 c 0,35.23 4.678,53.586 12.313,60.844 0.429,0.479 0.863,0.909 1.313,1.313 0.306,0.325 0.621,0.619 0.938,0.906 0.331,0.356 0.657,0.689 1,1 0.293,0.315 0.573,0.626 0.875,0.906 0.322,0.351 0.667,0.691 1,1 0.274,0.299 0.561,0.575 0.844,0.844 0.32,0.358 0.668,0.685 1,1 0.4,0.446 0.802,0.838 1.219,1.219 0.335,0.361 0.684,0.684 1.031,1 0.331,0.356 0.657,0.689 1,1 0.293,0.315 0.573,0.626 0.875,0.906 0.274,0.299 0.561,0.575 0.844,0.844 0.32,0.358 0.668,0.685 1,1 0.429,0.479 0.863,0.909 1.313,1.313 0.306,0.325 0.621,0.619 0.938,0.906 0.331,0.356 0.657,0.689 1,1 0.293,0.315 0.573,0.626 0.875,0.906 0.322,0.351 0.667,0.691 1,1 0.274,0.299 0.561,0.575 0.844,0.844 0.429,0.479 0.863,0.909 1.313,1.313 0.306,0.325 0.621,0.619 0.938,0.906 0.331,0.356 0.657,0.689 1,1 0.293,0.315 0.573,0.626 0.875,0.906 0.322,0.351 0.667,0.691 1,1 0.274,0.299 0.561,0.575 0.844,0.844 0.429,0.479 0.863,0.909 1.313,1.313 0.306,0.325 0.621,0.619 0.938,0.906 0.331,0.356 0.657,0.689 1,1 0.331,0.356 0.657,0.689 1,1 0.293,0.315 0.573,0.626 0.875,0.906 0.274,0.299 0.561,0.575 0.844,0.844 0.32,0.358 0.668,0.685 1,1 0.429,0.479 0.863,0.909 1.313,1.313 0.306,0.325 0.621,0.619 0.938,0.906 0.331,0.356 0.657,0.689 1,1 0.293,0.315 0.573,0.626 0.875,0.906 0.274,0.299 0.561,0.575 0.844,0.844 0.32,0.358 0.668,0.685 1,1 0.429,0.479 0.863,0.909 1.313,1.313 0.306,0.325 0.621,0.619 0.938,0.906 0.331,0.356 0.657,0.689 1,1 0.293,0.315 0.573,0.626 0.875,0.906 0.322,0.351 0.667,0.691 1,1 0.274,0.299 0.561,0.575 0.844,0.844 0.429,0.479 0.863,0.909 1.313,1.313 0.306,0.325 0.621,0.619 0.938,0.906 0.331,0.356 0.657,0.689 1,1 0.293,0.315 0.573,0.626 0.875,0.906 0.322,0.351 0.667,0.691 1,1 0.274,0.299 0.561,0.575 0.844,0.844 0.32,0.358 0.668,0.685 1,1 0.4,0.446 0.802,0.838 1.219,1.219 0.335,0.361 0.684,0.684 1.031,1 0.331,0.356 0.657,0.689 1,1 0.293,0.315 0.573,0.626 0.875,0.906 0.274,0.299 0.561,0.575 0.844,0.844 0.32,0.358 0.668,0.685 1,1 0.429,0.479 0.863,0.909 1.313,1.313 0.306,0.325 0.621,0.619 0.938,0.906 0.331,0.356 0.657,0.689 1,1 0.293,0.315 0.573,0.626 0.875,0.906 0.322,0.351 0.667,0.691 1,1 0.274,0.299 0.561,0.575 0.844,0.844 0.429,0.479 0.863,0.909 1.313,1.313 0.306,0.325 0.621,0.619 0.938,0.906 0.331,0.356 0.657,0.689 1,1 0.293,0.315 0.573,0.626 0.875,0.906 0.322,0.351 0.667,0.691 1,1 0.274,0.299 0.561,0.575 0.844,0.844 0.429,0.479 0.863,0.909 1.313,1.313 0.306,0.325 0.621,0.619 0.938,0.906 0.331,0.356 0.657,0.689 1,1 0.331,0.356 0.657,0.689 1,1 0.293,0.315 0.573,0.626 0.875,0.906 0.274,0.299 0.561,0.575 0.844,0.844 0.32,0.358 0.668,0.685 1,1 0.4,0.446 0.802,0.838 1.219,1.219 0.335,0.361 0.684,0.684 1.031,1 0.331,0.356 0.657,0.689 1,1 0.293,0.315 0.573,0.626 0.875,0.906 0.274,0.299 0.561,0.575 0.844,0.844 0.32,0.358 0.668,0.685 1,1 0.429,0.479 0.863,0.909 1.313,1.313 0.306,0.325 0.621,0.619 0.938,0.906 0.331,0.356 0.657,0.689 1,1 0.293,0.315 0.573,0.626 0.875,0.906 0.322,0.351 0.667,0.691 1,1 0.274,0.299 0.561,0.575 0.844,0.844 0.429,0.479 0.863,0.909 1.313,1.313 0.306,0.325 0.621,0.619 0.938,0.906 0.331,0.356 0.657,0.689 1,1 0.293,0.315 0.573,0.626 0.875,0.906 0.322,0.351 0.667,0.691 1,1 0.274,0.299 0.561,0.575 0.844,0.844 0.32,0.358 0.668,0.685 1,1 0.4,0.446 0.802,0.838 1.219,1.219 0.335,0.361 0.684,0.684 1.031,1 0.331,0.356 0.657,0.689 1,1 0.293,0.315 0.573,0.626 0.875,0.906 0.274,0.299 0.561,0.575 0.844,0.844 0.32,0.358 0.668,0.685 1,1 0.429,0.479 0.863,0.909 1.313,1.313 0.306,0.325 0.621,0.619 0.938,0.906 0.331,0.356 0.657,0.689 1,1 0.293,0.315 0.573,0.626 0.875,0.906 0.322,0.351 0.667,0.691 1,1 0.274,0.299 0.561,0.575 0.844,0.844 0.429,0.479 0.863,0.909 1.313,1.313 0.306,0.325 0.621,0.619 0.938,0.906 0.331,0.356 0.657,0.689 1,1 0.293,0.315 0.573,0.626 0.875,0.906 0.322,0.351 0.667,0.691 1,1 0.274,0.299 0.561,0.575 0.844,0.844 0.429,0.479 0.863,0.909 1.313,1.313 0.306,0.325 0.621,0.619 0.938,0.906 0.331,0.356 0.657,0.689 1,1 0.331,0.356 0.657,0.689 1,1 0.293,0.315 0.573,0.626 0.875,0.906 0.274,0.299 0.561,0.575 0.844,0.844 0.32,0.358 0.668,0.685 1,1 0.4,0.446 0.802,0.838 1.219,1.219 0.335,0.361 0.684,0.684 1.031,1 0.331,0.356 0.658,0.689 1,1 0.293,0.315 0.573,0.626 0.875,0.906 0.274,0.299 0.561,0.575 0.844,0.844 0.32,0.358 0.668,0.685 1,1 0.429,0.479 0.863,0.909 1.313,1.313 0.306,0.325 0.621,0.619 0.938,0.906 0.331,0.356 0.658,0.689 1,1 0.293,0.315 0.573,0.626 0.875,0.906 0.322,0.351 0.667,0.691 1,1 0.274,0.299 0.561,0.575 0.844,0.844 0.429,0.479 0.863,0.909 1.313,1.313 0.306,0.325 0.621,0.619 0.938,0.906 0.331,0.356 0.658,0.689 1,1 0.293,0.315 0.573,0.626 0.875,0.906 0.322,0.351 0.667,0.691 1,1 0.274,0.299 0.561,0.575 0.844,0.844 0.32,0.358 0.668,0.685 1,1 0.061,0.069 0.126,0.121 0.188,0.188 101.29,-11.286 181.69,-91.65 193,-192.94 -0.244,-0.255 -0.496,-0.509 -0.75,-0.75 -0.321,-0.346 -0.661,-0.679 -1,-1 -0.321,-0.346 -0.661,-0.679 -1,-1 -0.321,-0.346 -0.661,-0.679 -1,-1 -0.321,-0.346 -0.661,-0.679 -1,-1 -0.316,-0.34 -0.636,-0.653 -0.969,-0.969 -0.035,-0.038 -0.058,-0.087 -0.094,-0.125 -0.055,-0.046 -0.101,-0.079 -0.156,-0.125 -0.244,-0.255 -0.496,-0.509 -0.75,-0.75 -0.321,-0.346 -0.661,-0.679 -1,-1 -0.321,-0.346 -0.661,-0.679 -1,-1 -0.321,-0.346 -0.661,-0.679 -1,-1 -0.321,-0.346 -0.661,-0.679 -1,-1 -0.326,-0.351 -0.656,-0.674 -1,-1 -0.026,-0.028 -0.037,-0.066 -0.063,-0.094 -0.055,-0.046 -0.101,-0.079 -0.156,-0.125 -0.251,-0.263 -0.488,-0.502 -0.75,-0.75 -0.321,-0.346 -0.661,-0.679 -1,-1 -0.321,-0.346 -0.661,-0.679 -1,-1 -0.321,-0.346 -0.661,-0.679 -1,-1 -0.321,-0.346 -0.661,-0.679 -1,-1 -0.326,-0.351 -0.656,-0.674 -1,-1 -0.026,-0.028 -0.037,-0.066 -0.063,-0.094 -0.055,-0.046 -0.101,-0.079 -0.156,-0.125 -0.251,-0.263 -0.488,-0.502 -0.75,-0.75 -0.321,-0.346 -0.661,-0.679 -1,-1 -0.321,-0.346 -0.661,-0.679 -1,-1 -0.321,-0.346 -0.661,-0.679 -1,-1 -0.321,-0.346 -0.661,-0.679 -1,-1 -0.321,-0.346 -0.661,-0.679 -1,-1 -0.316,-0.34 -0.636,-0.653 -0.969,-0.969 -0.035,-0.038 -0.058,-0.087 -0.094,-0.125 -0.056,-0.046 -0.101,-0.079 -0.156,-0.125 -0.244,-0.255 -0.496,-0.509 -0.75,-0.75 -0.321,-0.346 -0.661,-0.679 -1,-1 -0.321,-0.346 -0.661,-0.679 -1,-1 -0.321,-0.346 -0.661,-0.679 -1,-1 -0.321,-0.346 -0.661,-0.679 -1,-1 -0.316,-0.34 -0.636,-0.653 -0.969,-0.969 -0.035,-0.038 -0.058,-0.087 -0.094,-0.125 -0.055,-0.046 -0.101,-0.079 -0.156,-0.125 -0.244,-0.255 -0.496,-0.509 -0.75,-0.75 -0.321,-0.346 -0.661,-0.679 -1,-1 -0.321,-0.346 -0.661,-0.679 -1,-1 -0.321,-0.346 -0.661,-0.679 -1,-1 -0.321,-0.346 -0.661,-0.679 -1,-1 -0.326,-0.351 -0.656,-0.674 -1,-1 -0.026,-0.028 -0.037,-0.066 -0.063,-0.094 -0.055,-0.046 -0.101,-0.079 -0.156,-0.125 -0.251,-0.263 -0.488,-0.502 -0.75,-0.75 -0.321,-0.346 -0.661,-0.679 -1,-1 -0.321,-0.346 -0.661,-0.679 -1,-1 -0.321,-0.346 -0.661,-0.679 -1,-1 -0.321,-0.346 -0.661,-0.679 -1,-1 -0.326,-0.351 -0.656,-0.674 -1,-1 -0.025,-0.027 -0.037,-0.066 -0.063,-0.094 -0.055,-0.046 -0.101,-0.079 -0.156,-0.125 -0.247,-0.259 -0.493,-0.505 -0.75,-0.75 -0.035,-0.038 -0.058,-0.087 -0.094,-0.125 -0.056,-0.046 -0.101,-0.079 -0.156,-0.125 -0.244,-0.255 -0.496,-0.509 -0.75,-0.75 -0.321,-0.346 -0.661,-0.679 -1,-1 -0.321,-0.346 -0.661,-0.679 -1,-1 -0.321,-0.346 -0.661,-0.679 -1,-1 -0.321,-0.346 -0.661,-0.679 -1,-1 -0.316,-0.34 -0.636,-0.653 -0.969,-0.969 -0.035,-0.038 -0.058,-0.087 -0.094,-0.125 -0.056,-0.046 -0.101,-0.079 -0.156,-0.125 -0.244,-0.255 -0.496,-0.509 -0.75,-0.75 -0.321,-0.346 -0.661,-0.679 -1,-1 -0.321,-0.346 -0.661,-0.679 -1,-1 -0.321,-0.346 -0.661,-0.679 -1,-1 -0.321,-0.346 -0.661,-0.679 -1,-1 -0.326,-0.351 -0.656,-0.674 -1,-1 -0.026,-0.028 -0.037,-0.066 -0.063,-0.094 -0.055,-0.046 -0.101,-0.079 -0.156,-0.125 -0.251,-0.263 -0.488,-0.502 -0.75,-0.75 -0.321,-0.346 -0.661,-0.679 -1,-1 -0.321,-0.346 -0.661,-0.679 -1,-1 -0.321,-0.346 -0.661,-0.679 -1,-1 -0.321,-0.346 -0.661,-0.679 -1,-1 -0.326,-0.351 -0.656,-0.674 -1,-1 -0.026,-0.028 -0.037,-0.066 -0.063,-0.094 -0.055,-0.046 -0.101,-0.079 -0.156,-0.125 -0.251,-0.263 -0.488,-0.502 -0.75,-0.75 -0.321,-0.346 -0.661,-0.679 -1,-1 -0.321,-0.346 -0.661,-0.679 -1,-1 -0.321,-0.346 -0.661,-0.679 -1,-1 -0.321,-0.346 -0.661,-0.679 -1,-1 -0.321,-0.346 -0.661,-0.679 -1,-1 -0.316,-0.34 -0.636,-0.653 -0.969,-0.969 -0.035,-0.038 -0.058,-0.087 -0.094,-0.125 -0.056,-0.046 -0.101,-0.079 -0.156,-0.125 -0.244,-0.255 -0.496,-0.509 -0.75,-0.75 -0.321,-0.346 -0.661,-0.679 -1,-1 -0.321,-0.346 -0.661,-0.679 -1,-1 -0.321,-0.346 -0.661,-0.679 -1,-1 -0.321,-0.346 -0.661,-0.679 -1,-1 -0.316,-0.34 -0.636,-0.653 -0.969,-0.969 -0.035,-0.038 -0.058,-0.087 -0.094,-0.125 -0.055,-0.046 -0.101,-0.079 -0.156,-0.125 -0.244,-0.255 -0.496,-0.509 -0.75,-0.75 -0.321,-0.346 -0.661,-0.679 -1,-1 -0.321,-0.346 -0.661,-0.679 -1,-1 -0.321,-0.346 -0.661,-0.679 -1,-1 -0.321,-0.346 -0.661,-0.679 -1,-1 -0.326,-0.351 -0.656,-0.674 -1,-1 -0.026,-0.028 -0.037,-0.066 -0.063,-0.094 -0.055,-0.046 -0.101,-0.079 -0.156,-0.125 -0.251,-0.263 -0.488,-0.502 -0.75,-0.75 -0.321,-0.346 -0.661,-0.679 -1,-1 -0.321,-0.346 -0.661,-0.679 -1,-1 -0.321,-0.346 -0.661,-0.679 -1,-1 -0.321,-0.346 -0.661,-0.679 -1,-1 -0.326,-0.351 -0.656,-0.674 -1,-1 -0.025,-0.027 -0.037,-0.066 -0.063,-0.094 -0.055,-0.046 -0.101,-0.079 -0.156,-0.125 -0.247,-0.259 -0.493,-0.505 -0.75,-0.75 -0.035,-0.038 -0.058,-0.087 -0.094,-0.125 -0.056,-0.046 -0.101,-0.079 -0.156,-0.125 -0.244,-0.255 -0.496,-0.509 -0.75,-0.75 -0.321,-0.346 -0.661,-0.679 -1,-1 -0.321,-0.346 -0.661,-0.679 -1,-1 -0.321,-0.346 -0.661,-0.679 -1,-1 -0.321,-0.346 -0.661,-0.679 -1,-1 -0.316,-0.34 -0.636,-0.653 -0.969,-0.969 -0.035,-0.038 -0.058,-0.087 -0.094,-0.125 -0.056,-0.046 -0.101,-0.079 -0.156,-0.125 -0.244,-0.255 -0.496,-0.509 -0.75,-0.75 -0.321,-0.346 -0.661,-0.679 -1,-1 -0.321,-0.346 -0.661,-0.679 -1,-1 -0.321,-0.346 -0.661,-0.679 -1,-1 -0.352,-0.379 -0.721,-0.745 -1.094,-1.094 -9.03,-7.523 -12.386,-9.638 -31.06,-10.563 -5.282,-0.239 -51.37,-2.156 -83.56,-2.156"
     inkscape:connector-curvature="0"
     id="path6"
     style="fill-opacity:0.23500001" />
  <g
     id="g8"
     style="fill-rule:evenodd">
    <path
       d="M 256,1 C 115.17,1 1,115.17 1,256 1,396.83 115.17,511 256,511 396.83,511 511,396.83 511,256 511,115.17 396.83,1 256,1 m 8.827,44.931 c 120.9,0 218.9,98 218.9,218.9 0,120.9 -98,218.9 -218.9,218.9 -120.9,0 -218.93,-98 -218.93,-218.9 0,-120.9 98.03,-218.9 218.93,-218.9"
       inkscape:connector-curvature="0"
       id="path10"
       style="fill-opacity:0.06700003" />
    <g
       id="g12"
       style="fill-opacity:0.12900002">
      <path
         d="m 256,4.433 c -138.94,0 -251.57,112.63 -251.57,251.57 0,138.94 112.63,251.57 251.57,251.57 138.94,0 251.57,-112.63 251.57,-251.57 C 507.57,117.063 394.94,4.433 256,4.433 m 5.885,38.556 c 120.9,0 218.9,98 218.9,218.9 0,120.9 -98,218.9 -218.9,218.9 -120.9,0 -218.93,-98 -218.93,-218.9 0,-120.9 98.03,-218.9 218.93,-218.9"
         inkscape:connector-curvature="0"
         id="path14" />
      <path
         d="m 256,8.356 c -136.77,0 -247.64,110.87 -247.64,247.64 0,136.77 110.87,247.64 247.64,247.64 136.77,0 247.64,-110.87 247.64,-247.64 C 503.64,119.226 392.77,8.356 256,8.356 m 2.942,31.691 c 120.9,0 218.9,98 218.9,218.9 0,120.9 -98,218.9 -218.9,218.9 -120.9,0 -218.93,-98 -218.93,-218.9 0,-120.9 98.03,-218.9 218.93,-218.9"
         inkscape:connector-curvature="0"
         id="path16" />
    </g>
    <path
       d="m 253.04,7.859 c -135.42,0 -245.19,109.78 -245.19,245.19 0,135.42 109.78,245.19 245.19,245.19 135.42,0 245.19,-109.78 245.19,-245.19 0,-135.42 -109.78,-245.19 -245.19,-245.19 z m 0,26.297 c 120.9,0 218.9,98 218.9,218.9 0,120.9 -98,218.9 -218.9,218.9 -120.9,0 -218.93,-98 -218.93,-218.9 0,-120.9 98.03,-218.9 218.93,-218.9 z"
       inkscape:connector-curvature="0"
       id="path18"
       style="fill:#ffffff;stroke:#000000;stroke-width:4.90399981;stroke-opacity:0.31000001" />
  </g>
  <text
     x="729.64001"
     y="231.36"
     id="text20"
     style="font-size:129.22999573px;line-height:125%;letter-spacing:0;word-spacing:0;font-family:Gentium Book Basic">
    <tspan
       x="729.64001"
       y="231.36"
       id="tspan22" />
  </text>
  <text
     x="378.91"
     y="579.25"
     transform="scale(4.0128,0.2492)"
     id="text24"
     style="font-size:46.95399857px;text-anchor:middle;font-family:Arial" />
  <text
     x="1310.91"
     y="151.36"
     id="text26"
     style="font-size:129.22999573px;line-height:125%;letter-spacing:0;word-spacing:0;font-family:Gentium Book Basic">
    <tspan
       x="1310.91"
       y="151.36"
       id="tspan28" />
  </text>
  <text
     x="523.76001"
     y="258.22"
     transform="scale(4.0128,0.2492)"
     id="text30"
     style="font-size:46.95399857px;text-anchor:middle;font-family:Arial" />
  <text
     x="239.33"
     y="-29.900999"
     id="text32"
     style="font-size:129.22999573px;line-height:125%;letter-spacing:0;word-spacing:0;font-family:Gentium Book Basic">
    <tspan
       x="239.33"
       y="-29.900999"
       id="tspan34" />
  </text>
  <text
     x="256.72"
     y="-469.14001"
     transform="scale(4.0128,0.2492)"
     id="text36"
     style="font-size:46.95399857px;text-anchor:middle;font-family:Arial" />
  <text
     x="1337.38"
     y="-246.37"
     id="text38"
     style="font-size:129.22999573px;line-height:125%;letter-spacing:0;word-spacing:0;font-family:Gentium Book Basic">
    <tspan
       x="1337.38"
       y="-246.37"
       id="tspan40" />
  </text>
  <text
     x="530.35999"
     y="-1337.8101"
     transform="scale(4.0128,0.2492)"
     id="text42"
     style="font-size:46.95399857px;text-anchor:middle;font-family:Arial" />
  <text
     x="1918.65"
     y="-326.38"
     id="text44"
     style="font-size:129.22999573px;line-height:125%;letter-spacing:0;word-spacing:0;font-family:Gentium Book Basic">
    <tspan
       x="1918.65"
       y="-326.38"
       id="tspan46" />
  </text>
  <text
     x="675.21002"
     y="-1658.85"
     transform="scale(4.0128,0.2492)"
     id="text48"
     style="font-size:46.95399857px;text-anchor:middle;font-family:Arial" />
  <text
     x="1529.53"
     y="-798.78003"
     id="text50"
     style="font-size:129.22999573px;line-height:125%;letter-spacing:0;word-spacing:0;font-family:Gentium Book Basic">
    <tspan
       x="1529.53"
       y="-798.78003"
       id="tspan52" />
  </text>
  <text
     x="578.23999"
     y="-3554.51"
     transform="scale(4.0128,0.2492)"
     id="text54"
     style="font-size:46.95399857px;text-anchor:middle;font-family:Arial" />
  <text
     x="2110.79"
     y="-878.78003"
     id="text56"
     style="font-size:129.22999573px;line-height:125%;letter-spacing:0;word-spacing:0;font-family:Gentium Book Basic">
    <tspan
       x="2110.79"
       y="-878.78003"
       id="tspan58" />
  </text>
  <text
     x="723.09003"
     y="-3875.54"
     transform="scale(4.0128,0.2492)"
     id="text60"
     style="font-size:46.95399857px;text-anchor:middle;font-family:Arial" />
  <text
     x="277.98999"
     y="535.94"
     id="text62"
     style="font-size:208.33000183px;line-height:125%;letter-spacing:0;word-spacing:0;font-family:Gentium Book Basic">
    <tspan
       x="277.98999"
       y="535.94"
       id="tspan64" />
  </text>
  <path
     d="m 257.55,166.52 c -30.19,0 -74.57,1.739 -87.93,2.175 -14.503,1.277 -20.02,2 -27.963,8.7 -12.1,10.599 -14.914,31.519 -14.914,63.38 v 30.448 c 0,36.37 4.973,54.76 13.05,61.52 9.322,7.875 15.541,8.377 21.749,9.321 2.41,0.352 19.384,3.418 95.07,3.418 47.2,0 87.77,-2.262 91.97,-2.796 6.742,-0.844 16.299,-1.933 23.613,-9.942 10.827,-12.12 13.05,-32.374 13.05,-61.52 v -35.11 c 0,-18.864 -1.135,-45.695 -13.05,-56.858 -9.03,-7.523 -12.393,-9.639 -31.07,-10.564 -5.282,-0.239 -51.38,-2.175 -83.58,-2.175 m 34.487,19.885 c 16.762,-0.594 32.32,11.318 46.605,11.496 0,0 -11.478,17.399 -28.895,17.399 -16.231,-3.128 -23.378,0.466 -23.924,0.932 v 69.6 c -0.769,14.8 -12.06,29.22 -30.14,36.04 -22.937,8.655 -47.35,1.214 -54.37,-16.778 -7.02,-17.989 5.958,-39.814 28.895,-48.47 17.754,-6.697 34.937,-4.717 45.673,5.336 v -69.961 c 5.806,-3.861 10.569,-5.394 16.16,-5.593"
     inkscape:connector-curvature="0"
     id="path66"
     style="fill:#ffffff" />
</svg>
