<?xml version="1.0" encoding="UTF-8" standalone="no"?>
<!-- Created with Inkscape (http://www.inkscape.org/) -->

<svg
   xmlns:dc="http://purl.org/dc/elements/1.1/"
   xmlns:cc="http://creativecommons.org/ns#"
   xmlns:rdf="http://www.w3.org/1999/02/22-rdf-syntax-ns#"
   xmlns:svg="http://www.w3.org/2000/svg"
   xmlns="http://www.w3.org/2000/svg"
   xmlns:inkscape="http://www.inkscape.org/namespaces/inkscape"
   version="1.1"
   width="100%"
   height="100%"
   viewBox="0 0 512 512"
   id="svg2">
  <metadata
     id="metadata10">
    <rdf:RDF>
      <cc:Work
         rdf:about="">
        <dc:format>image/svg+xml</dc:format>
        <dc:type
           rdf:resource="http://purl.org/dc/dcmitype/StillImage" />
        <dc:title />
      </cc:Work>
    </rdf:RDF>
  </metadata>
  <defs
     id="defs8">
    <clipPath
       id="clipPath3218">
      <path
         d="M 26,0 C 11.602648,0 0,11.602648 0,26 l 0,460 c 0,14.39735 11.602648,26 26,26 l 460,0 c 14.39735,0 26,-11.60265 26,-26 L 512,26 C 512,11.602648 500.39735,0 486,0 L 26,0 z"
         inkscape:connector-curvature="0"
         id="path3220"
         style="fill:none;fill-opacity:1;stroke:none" />
    </clipPath>
  </defs>
  <path
     d="M 26,0 C 11.602648,0 0,11.602648 0,26 l 0,460 c 0,14.39735 11.602648,26 26,26 l 460,0 c 14.39735,0 26,-11.60265 26,-26 L 512,26 C 512,11.602648 500.39735,0 486,0 L 26,0 z"
     inkscape:connector-curvature="0"
     id="rect2986"
     style="fill:none;fill-opacity:1;stroke:none" />
  <g
     clip-path="url(#clipPath3218)"
     id="g3145"
     style="opacity:0.0;fill:#000000;fill-opacity:1;stroke:none">
    <path
       d="m 471.00004,255.99998 c 0,118.74122 -96.25876,215.00001 -214.99999,215.00001 l 388.90873,388.90873 c 118.74123,0 214.99999,-96.25879 214.99999,-215.00001 z"
       inkscape:connector-curvature="0"
       id="path3147" />
    <path
       d="m 256.00005,470.99999 c -64.76794,0 -122.84689,-28.63898 -162.26413,-73.94421 l 388.90873,388.90873 c 39.41724,45.30523 97.49619,73.94421 162.26413,73.94421 z"
       inkscape:connector-curvature="0"
       id="path3149" />
    <path
       d="M 93.73592,397.05578 C 60.88822,359.30141 41.00004,309.97326 41.00004,255.99998 l 388.90873,388.90873 c 0,53.97328 19.88818,103.30143 52.73588,141.0558 z"
       inkscape:connector-curvature="0"
       id="path3151" />
    <path
       d="m 41.00004,255.99998 c 0,-118.74121 96.25879,-214.999973 215.00001,-214.999973 L 644.90878,429.90874 c -118.74122,0 -215.00001,96.25876 -215.00001,214.99997 z"
       inkscape:connector-curvature="0"
       id="path3153" />
    <path
       d="m 256.00005,41.000007 c 59.37062,0 113.12062,24.064692 152.02796,62.972033 L 796.93674,492.88077 C 758.0294,453.97343 704.2794,429.90874 644.90878,429.90874 z"
       inkscape:connector-curvature="0"
       id="path3155" />
    <path
       d="m 408.02801,103.97204 c 38.90734,38.90734 62.97203,92.65734 62.97203,152.02794 l 388.90873,388.90873 c 0,-59.3706 -24.06469,-113.1206 -62.97203,-152.02794 z"
       inkscape:connector-curvature="0"
       id="path3157" />
  </g>
  <path
     d="m 471.00004,255.99998 c 0,118.74122 -96.25876,215.00001 -214.99999,215.00001 -118.74122,0 -215.00001,-96.25879 -215.00001,-215.00001 0,-118.74121 96.25879,-214.999973 215.00001,-214.999973 118.74123,0 214.99999,96.258763 214.99999,214.999973 z"
     inkscape:connector-curvature="0"
     id="path3181"
     style="fill:#666666;fill-opacity:1;stroke:none" />
  <path
     d="m 471.00004,255.99998 c 0,118.74122 -96.25876,215.00001 -214.99999,215.00001 -118.74122,0 -215.00001,-96.25879 -215.00001,-215.00001 0,-118.74121 96.25879,-214.999973 215.00001,-214.999973 118.74123,0 214.99999,96.258763 214.99999,214.999973 z"
     inkscape:connector-curvature="0"
     id="path3511"
     style="fill:#000000;fill-opacity:1;stroke:none" />
  <path
     d="m 355.29416,256 c 0,54.83861 -44.45547,99.29414 -99.29411,99.29414 -54.83864,0 -99.29413,-44.45553 -99.29413,-99.29414 0,-54.83864 44.45549,-99.29414 99.29413,-99.29414 54.83864,0 99.29411,44.4555 99.29411,99.29414 z"
     inkscape:connector-curvature="0"
     id="path3569"
     style="fill:#666666;fill-opacity:1;stroke:none" />
  <path
     d="m 293.30333,280.22189 q 0,6.98709 -2.25135,12.88743 -2.17382,5.82261 -6.75417,10.09244 -4.50294,4.27002 -11.56761,6.67674 -7.06485,2.40656 -16.69159,2.40656 -9.62674,0 -16.69141,-2.40656 -6.98709,-2.40672 -11.64521,-6.59898 -4.58052,-4.27 -6.83191,-10.09259 -2.17378,-5.9002 -2.17378,-12.80968 0,-5.97795 1.78552,-10.63608 1.86327,-4.65809 4.89103,-7.99639 3.10536,-3.41587 6.98726,-5.43448 3.95932,-2.09605 8.15156,-2.79483 l 0,-0.31006 q -4.58052,-1.08752 -8.22933,-3.49346 -3.57122,-2.40671 -6.05554,-5.745 -2.40657,-3.41604 -3.72639,-7.53071 -1.24176,-4.11449 -1.24176,-8.69501 0,-5.74501 2.17381,-10.79124 2.25139,-5.12397 6.59898,-8.92795 4.3476,-3.8819 10.79124,-6.05552 6.4438,-2.25155 14.9059,-2.25155 8.92812,0 15.44932,2.25155 6.59898,2.25136 10.869,6.1331 4.34743,3.80416 6.44363,8.92797 2.09605,5.12397 2.09605,10.86897 0,4.50278 -1.31966,8.61744 -1.24178,4.11465 -3.72656,7.53054 -2.40674,3.33828 -6.05553,5.74502 -3.57122,2.32896 -8.30694,3.26067 l 0,0.31006 q 4.7357,0.77589 8.77279,2.87242 4.03706,2.01861 6.98708,5.43448 2.95018,3.33828 4.65811,7.99641 1.70795,4.65809 1.70795,10.55829 z M 276.06848,228.6723 q 0,-4.11466 -1.08755,-7.53052 -1.00961,-3.41588 -3.41585,-5.82262 -2.40674,-2.48431 -6.28848,-3.80413 -3.88171,-1.39758 -9.54914,-1.39758 -5.51207,0 -9.31622,1.39758 -3.80398,1.31966 -6.28831,3.80413 -2.40672,2.40674 -3.49361,5.82262 -1.08754,3.41586 -1.08754,7.53052 0,3.26071 0.85381,6.67673 0.85381,3.41588 3.10535,6.2107 2.25156,2.79485 6.21087,4.58054 3.95932,1.78552 10.17019,1.78552 6.59898,0 10.5583,-1.78552 4.03709,-1.78569 6.13312,-4.58054 2.1738,-2.79482 2.79485,-6.2107 0.69798,-3.41602 0.69798,-6.67673 z m 2.71724,50.22978 q 0,-3.95933 -1.08752,-7.60813 -1.08755,-3.72656 -3.72655,-6.52141 -2.6395,-2.87242 -7.14245,-4.58035 -4.42517,-1.78568 -11.10174,-1.78568 -6.13311,0 -10.48072,1.78568 -4.26983,1.70793 -6.98709,4.58035 -2.63965,2.8726 -3.88172,6.67659 -1.24177,3.72656 -1.24177,7.76345 0,5.04637 1.24177,9.23865 1.24175,4.11466 3.95933,7.14241 2.71724,2.95003 7.14243,4.58038 4.42516,1.63033 10.71364,1.63033 6.36603,0 10.71362,-1.63033 4.34745,-1.63035 6.98709,-4.58038 2.63966,-3.02775 3.72639,-7.22002 1.16386,-4.26999 1.16386,-9.47154 z"
     inkscape:connector-curvature="0"
     id="path6802"
     style="font-size:10px;font-style:normal;font-weight:normal;line-height:125%;letter-spacing:0px;word-spacing:0px;fill:#000000;fill-opacity:1;stroke:none;font-family:Sans" />
</svg>
