<?xml version="1.0" encoding="UTF-8" standalone="no"?>
<!-- Created with Inkscape (http://www.inkscape.org/) -->

<svg
   xmlns:dc="http://purl.org/dc/elements/1.1/"
   xmlns:cc="http://creativecommons.org/ns#"
   xmlns:rdf="http://www.w3.org/1999/02/22-rdf-syntax-ns#"
   xmlns:svg="http://www.w3.org/2000/svg"
   xmlns="http://www.w3.org/2000/svg"
   xmlns:inkscape="http://www.inkscape.org/namespaces/inkscape"
   version="1.1"
   width="100%"
   height="100%"
   viewBox="0 0 512 512"
   id="svg2">
  <metadata
     id="metadata60">
    <rdf:RDF>
      <cc:Work
         rdf:about="">
        <dc:format>image/svg+xml</dc:format>
        <dc:type
           rdf:resource="http://purl.org/dc/dcmitype/StillImage" />
      </cc:Work>
    </rdf:RDF>
  </metadata>
  <defs
     id="defs58" />
  <rect
     width="512"
     height="512"
     rx="25.988001"
     x="0"
     y="0"
     id="rect4"
     style="fill:none" />
  <path
     d="m 243.94,54.656 c -61.44,3.657 -34.602,79.32 -31.375,101.5 23.818,23.818 50.96,50.49 80.938,80.47 -13.311,20.552 -11.592,13.402 -27.656,23.06 67.73,68.61 162.27,162.27 241.53,241.16 2.913,-4.2 4.625,-9.324 4.625,-14.844 v -301.86 c -4.74,-5.932 -6.682,-11.161 -40.949,-45.43 -31.28,-5.359 -81.934,25.935 -123.71,17.473 -31.554,-32.3 -68.71,-67.881 -103.4,-101.53 m -202.94,103.5 c 3.479,11.279 3.309,15.07 -0.063,28.406 17.653,17.653 35.613,34.769 56.22,55.38 9.06,9.06 15.608,15.366 20.09,19.688 18.08,17.416 11.343,8.689 -7.781,13.406 -13.765,13.155 1.847,19.602 5.094,31.719 29.671,29.671 37.852,29.536 0.375,34.22 -41.13,15.269 -53.58,72.61 -20.469,102.22 23.621,22.734 46.994,45.697 70.25,68.813 h 321.28 c 2.848,0 5.596,-0.442 8.156,-1.281 -22.09,-21.12 -52.01,-50.17 -93.44,-91.59 -54.51,-54.27 -108.79,-108.54 -163.06,-163.03 -26.513,-26.968 -54.25,-52.793 -79.969,-80.69 -39.39,-1.23 -78.65,-6.916 -116.69,-17.25"
     inkscape:connector-curvature="0"
     id="path6"
     style="color:#000000;fill-opacity:0.0" />
  <path
     d="m 211.7,54.49 c -21.481,50.1 -5.177,80.52 0.604,101.7 l 33.965,-4.511 c -7.182,-26.319 -19.549,-56.59 -2.141,-97.19 h -32.429 m 259.3,84.21 c -56.18,0 -110.22,10.796 -179.36,36.709 l 23.776,21.635 c 34.571,-17.277 90.76,-36.709 155.59,-36.709 v -21.635 m -430,19.445 v 28.1 c 21.608,6.478 69.14,12.935 112.36,12.935 l 4.327,-23.776 c -43.07,-1.678 -75.64,-6.465 -116.68,-17.262 m 253.02,75.23 -28.29,26.287 c 75.63,36.712 136.14,88.53 170.71,157.64 l 25.915,-34.571 c -34.23,-51.32 -86.43,-103.67 -168.33,-149.35 m -115.15,13.818 c -1.158,-0.01 -2.314,0.019 -3.49,0.046 -4.342,0.094 -8.752,0.735 -13.444,1.257 -13.273,1.471 -23.289,4.254 -34.423,8.375 -7.553,2.793 -13.275,5.634 -21.821,10.934 -8.546,5.3 -17.216,13.03 -17.216,13.03 l 26.06,26.01 c 0,0 12.276,-9.146 19.309,-12.981 7.03,-3.834 16.541,-5.507 23.496,-6.328 17.941,-2.119 35.38,1.484 43.689,8.421 8.86,7.398 12.548,12.57 12.981,32.34 -7.988,-0.325 -16.184,0.179 -25.17,0.418 -8.03,0.216 -24.368,0.587 -31.08,1.675 -17.881,2.902 -37.19,5.912 -55.832,18.06 -9.932,6.469 -18.02,16.211 -22.287,27.27 -4.816,12.444 -5.914,27.13 -2.093,39.921 3.977,13.31 12.978,26.295 24.799,33.593 22.716,8.993 52.33,11.263 73.885,3.768 12.02,-4.337 21.48,-7.965 32.34,-20.566 1.76,-2.043 3.244,-5.646 5.443,-9.259 v 30.662 h 45.36 v -123.44 c -0.503,-26.889 -11.192,-50.86 -30.24,-66.767 -17.405,-11.744 -32.889,-16.264 -50.25,-16.422 m 24.985,114.69 c 1.886,-0.021 3.728,-0.012 5.537,0 0.862,0.006 1.672,-0.01 2.513,0 -0.013,0.274 0.013,0.546 0,0.838 0,0 2.168,35.25 -17.216,47.41 -19.385,12.158 -27.788,12.524 -41.971,10.1 -9.889,-1.693 -21.22,-7.175 -25.22,-16.377 -3.209,-7.386 -0.761,-17.18 4.234,-23.496 7.803,-9.867 22.16,-12.355 34.437,-15.12 9.841,-2.22 24.481,-3.203 37.688,-3.35"
     inkscape:connector-curvature="0"
     id="path54"
     style="color:#000000;fill:#666666" />
</svg>
