<?xml version="1.0" encoding="UTF-8" standalone="no"?>
<!-- Created with Inkscape (http://www.inkscape.org/) -->

<svg
   xmlns:dc="http://purl.org/dc/elements/1.1/"
   xmlns:cc="http://creativecommons.org/ns#"
   xmlns:rdf="http://www.w3.org/1999/02/22-rdf-syntax-ns#"
   xmlns:svg="http://www.w3.org/2000/svg"
   xmlns="http://www.w3.org/2000/svg"
   xmlns:inkscape="http://www.inkscape.org/namespaces/inkscape"
   version="1.1"
   width="100%"
   height="100%"
   viewBox="0 0 512 512"
   id="svg2">
  <metadata
     id="metadata64">
    <rdf:RDF>
      <cc:Work
         rdf:about="">
        <dc:format>image/svg+xml</dc:format>
        <dc:type
           rdf:resource="http://purl.org/dc/dcmitype/StillImage" />
      </cc:Work>
    </rdf:RDF>
  </metadata>
  <defs
     id="defs62" />
  <rect
     width="512"
     height="512"
     rx="25.988001"
     x="0"
     y="0"
     id="rect4"
     style="fill:none" />
  <path
     d="m 250.03,40.594 c -1.268,-0.01 -2.703,0.111 -4.344,0.406 -98.95,-1.722 -185.8,80.891 -199.81,176.94 -13.879,75.834 15.401,156.19 73,206.91 29.1,29.01 58.15,58.09 87.19,87.16 h 279.94 c 14.397,0 26,-11.603 26,-26 V 195.76 c -38.31,-41.547 -75.981,-83.77 -115.72,-123.84 -29.11,-27.951 -78.32,-3.748 -93.31,15.688 -5.127,-3.857 -9.517,-8.422 -13.438,-13.438 -5.856,-3.658 -9.07,-9.848 -14.938,-13.5 -3.594,-5.807 -9.837,-9.08 -13.438,-14.875 -3.194,-2.539 -5.63,-5.142 -11.125,-5.188"
     inkscape:connector-curvature="0"
     id="path6"
     style="fill-opacity:0.0;fill-rule:evenodd" />
  <g
     transform="matrix(1.30279,0,0,1.30279,1822.44,-778.68)"
     id="g54"
     style="fill:#666666;fill-rule:evenodd">
    <path
       d="m -1210.28,88.81 c -86.05,0 -155.81,73.886 -155.81,165.03 0,90.97 69.49,164.75 155.31,165.03 0.167,10e-4 0.333,0 0.5,0 h 171.53 v -0.75 h 0.094 V 216.65 h -19.813 -51.687 l -54.656,75.66 h -37.03 V 89.06 c -2.8,-0.159 -5.6,-0.25 -8.437,-0.25"
       inkscape:connector-curvature="0"
       transform="translate(0,540.36)"
       id="path56" />
    <path
       d="m -1088.24,145.37 c 0,24.798 -20.1,44.901 -44.901,44.901 -24.798,0 -44.901,-20.1 -44.901,-44.901 0,-24.798 20.1,-44.901 44.901,-44.901 24.798,0 44.901,20.1 44.901,44.901"
       inkscape:connector-curvature="0"
       transform="matrix(1.07874,0,0,1.07874,98.77,534.93)"
       id="path58" />
  </g>
</svg>
