<?xml version="1.0" encoding="UTF-8" standalone="no"?>
<!-- Created with Inkscape (http://www.inkscape.org/) -->

<svg
   xmlns:dc="http://purl.org/dc/elements/1.1/"
   xmlns:cc="http://creativecommons.org/ns#"
   xmlns:rdf="http://www.w3.org/1999/02/22-rdf-syntax-ns#"
   xmlns:svg="http://www.w3.org/2000/svg"
   xmlns="http://www.w3.org/2000/svg"
   xmlns:inkscape="http://www.inkscape.org/namespaces/inkscape"
   version="1.1"
   width="100%"
   height="100%"
   viewBox="0 0 512 512"
   id="svg2">
  <metadata
     id="metadata60">
    <rdf:RDF>
      <cc:Work
         rdf:about="">
        <dc:format>image/svg+xml</dc:format>
        <dc:type
           rdf:resource="http://purl.org/dc/dcmitype/StillImage" />
      </cc:Work>
    </rdf:RDF>
  </metadata>
  <defs
     id="defs58" />
  <rect
     width="512"
     height="512"
     rx="25.988001"
     x="0"
     y="0"
     id="rect4"
     style="fill:none" />
  <path
     d="m 276.06,41 c -14.48,102.51 -27.18,205.27 -41.656,307.78 -35.674,-21.459 -89.17,-34.923 -121.25,-0.344 -26.2,30.18 -23.788,82.25 8.875,106.94 18.904,18.862 37.777,37.737 56.656,56.625 h 307.31 c 14.397,0 26,-11.603 26,-26 v -239.59 c -70.93,-71.12 -148.03,-148.53 -198.72,-199.22 -7.799,-1.289 -29.419,-4.899 -37.22,-6.188"
     inkscape:connector-curvature="0"
     id="path6"
     style="fill-opacity:0.0" />
  <path
     d="m 234.4,348.77 c -93.9,-53.73 -151.46,1.459 -136.47,70.921 9.222,42.746 86.09,82.61 153.33,15.18 4.359,-3.91 10.09,-17.243 10.317,-24.05 9.8,-81.61 22.06,-163.56 31.546,-245.14 106.19,93.63 72.28,150.27 50.33,215.5 45.14,-18.601 115.84,-100.73 38.598,-216.57 -36.554,-51.31 -33.12,-15.08 -68.53,-117.44 -12.482,-2.062 -24.965,-4.123 -37.447,-6.185 -14.881,105.48 -26.785,202.3 -41.666,307.77"
     inkscape:connector-curvature="0"
     id="path54"
     style="fill:#666666" />
</svg>
