<?xml version="1.0" encoding="UTF-8" standalone="no"?>
<!-- Created with Inkscape (http://www.inkscape.org/) -->

<svg
   xmlns:dc="http://purl.org/dc/elements/1.1/"
   xmlns:cc="http://creativecommons.org/ns#"
   xmlns:rdf="http://www.w3.org/1999/02/22-rdf-syntax-ns#"
   xmlns:svg="http://www.w3.org/2000/svg"
   xmlns="http://www.w3.org/2000/svg"
   xmlns:inkscape="http://www.inkscape.org/namespaces/inkscape"
   version="1.1"
   width="100%"
   height="100%"
   viewBox="0 0 512 512"
   id="svg2">
  <metadata
     id="metadata2077">
    <rdf:RDF>
      <cc:Work
         rdf:about="">
        <dc:format>image/svg+xml</dc:format>
        <dc:type
           rdf:resource="http://purl.org/dc/dcmitype/StillImage" />
      </cc:Work>
    </rdf:RDF>
  </metadata>
  <defs
     id="defs4">
    <clipPath
       id="0">
      <path
         d="M 26,0 C 11.603,0 0,11.603 0,26 v 460 c 0,14.397 11.603,26 26,26 h 460 c 14.397,0 26,-11.603 26,-26 V 26 C 512,11.603 500.397,0 486,0 H 26"
         inkscape:connector-curvature="0"
         id="path7" />
    </clipPath>
  </defs>
  <path
     d="M 26,0 C 11.603,0 0,11.603 0,26 v 460 c 0,14.397 11.603,26 26,26 h 460 c 14.397,0 26,-11.603 26,-26 V 26 C 512,11.603 500.397,0 486,0 H 26"
     inkscape:connector-curvature="0"
     id="path9"
     style="fill:none" />
  <g
     id="g53"
     style="line-height:125%;letter-spacing:0;word-spacing:0;font-family:Gentium Book Basic">
  </g>
  <g
     id="g101"
     style="line-height:125%;letter-spacing:0;word-spacing:0;font-family:Gentium Book Basic">
  </g>
  <g
     id="g149"
     style="line-height:125%;letter-spacing:0;word-spacing:0;font-family:Gentium Book Basic">
  </g>
  <g
     id="g197"
     style="line-height:125%;letter-spacing:0;word-spacing:0;font-family:Gentium Book Basic">
  </g>
  <g
     id="g245"
     style="line-height:125%;letter-spacing:0;word-spacing:0;font-family:Gentium Book Basic">
  </g>
  <g
     id="g293"
     style="line-height:125%;letter-spacing:0;word-spacing:0;font-family:Gentium Book Basic">
  </g>
  <g
     id="g341"
     style="line-height:125%;letter-spacing:0;word-spacing:0;font-family:Gentium Book Basic">
  </g>
  <g
     id="g389"
     style="line-height:125%;letter-spacing:0;word-spacing:0;font-family:Gentium Book Basic">
  </g>
  <g
     id="g437"
     style="line-height:125%;letter-spacing:0;word-spacing:0;font-family:Gentium Book Basic">
  </g>
  <g
     id="g485"
     style="line-height:125%;letter-spacing:0;word-spacing:0;font-family:Gentium Book Basic">
  </g>
  <g
     id="g533"
     style="line-height:125%;letter-spacing:0;word-spacing:0;font-family:Gentium Book Basic">
  </g>
  <g
     id="g581"
     style="line-height:125%;letter-spacing:0;word-spacing:0;font-family:Gentium Book Basic">
  </g>
  <g
     id="g629"
     style="line-height:125%;letter-spacing:0;word-spacing:0;font-family:Gentium Book Basic">
  </g>
  <g
     id="g677"
     style="line-height:125%;letter-spacing:0;word-spacing:0;font-family:Gentium Book Basic">
  </g>
  <g
     id="g725"
     style="font-size:208.33000183px;line-height:125%;letter-spacing:0;word-spacing:0;font-family:Gentium Book Basic">
  </g>
  <g
     id="g857"
     style="line-height:125%;letter-spacing:0;word-spacing:0;font-family:Gentium Book Basic">
  </g>
  <g
     id="g905"
     style="line-height:125%;letter-spacing:0;word-spacing:0;font-family:Gentium Book Basic">
  </g>
  <g
     id="g953"
     style="font-size:208.33000183px;line-height:125%;letter-spacing:0;word-spacing:0;font-family:Gentium Book Basic">
  </g>
  <g
     id="g1085"
     style="line-height:125%;letter-spacing:0;word-spacing:0;font-family:Gentium Book Basic">
  </g>
  <g
     id="g1133"
     style="line-height:125%;letter-spacing:0;word-spacing:0;font-family:Gentium Book Basic">
  </g>
  <g
     id="g1181"
     style="font-size:208.33000183px;line-height:125%;letter-spacing:0;word-spacing:0;font-family:Gentium Book Basic">
  </g>
  <g
     id="g1313"
     style="line-height:125%;letter-spacing:0;word-spacing:0;font-family:Gentium Book Basic">
  </g>
  <g
     id="g1361"
     style="line-height:125%;letter-spacing:0;word-spacing:0;font-family:Gentium Book Basic">
  </g>
  <g
     id="g1409"
     style="font-size:208.33000183px;line-height:125%;letter-spacing:0;word-spacing:0;font-family:Gentium Book Basic">
  </g>
  <g
     id="g1541"
     style="line-height:125%;letter-spacing:0;word-spacing:0;font-family:Gentium Book Basic">
  </g>
  <g
     id="g1589"
     style="line-height:125%;letter-spacing:0;word-spacing:0;font-family:Gentium Book Basic">
  </g>
  <g
     id="g1637"
     style="line-height:125%;letter-spacing:0;word-spacing:0;font-family:Gentium Book Basic">
  </g>
  <g
     id="g1685"
     style="line-height:125%;letter-spacing:0;word-spacing:0;font-family:Gentium Book Basic">
  </g>
  <g
     id="g1733"
     style="line-height:125%;letter-spacing:0;word-spacing:0;font-family:Gentium Book Basic">
  </g>
  <g
     id="g1781"
     style="line-height:125%;letter-spacing:0;word-spacing:0;font-family:Gentium Book Basic">
  </g>
  <g
     id="g1829"
     style="line-height:125%;letter-spacing:0;word-spacing:0;font-family:Gentium Book Basic">
  </g>
  <g
     id="g1877"
     style="line-height:125%;letter-spacing:0;word-spacing:0;font-family:Gentium Book Basic">
  </g>
  <g
     id="g1925"
     style="line-height:125%;letter-spacing:0;word-spacing:0;font-family:Gentium Book Basic">
  </g>
  <g
     id="g1973"
     style="line-height:125%;letter-spacing:0;word-spacing:0;font-family:Gentium Book Basic">
  </g>
  <g
     clip-path="url(#0)"
     id="g2025"
     style="opacity:0.0;color:#000000;fill-rule:evenodd">
    <path
       d="M 114,41.01 C 98.409,41.795 86.119,54.605 86.119,70.398 l 353.55,353.55 c 0,-15.793 12.29,-28.603 27.881,-29.388 z"
       inkscape:connector-curvature="0"
       id="path2027" />
    <path
       d="M 86.12,70.4 V 441.61 L 439.67,795.16 V 423.95 z"
       inkscape:connector-curvature="0"
       id="path2029" />
    <path
       d="m 86.12,441.61 c 0,7.452 2.735,14.233 7.261,19.398 l 353.55,353.55 c -4.526,-5.165 -7.261,-11.946 -7.261,-19.398 z"
       inkscape:connector-curvature="0"
       id="path2031" />
    <path
       d="m 93.38,461.01 c 5.375,6.134 13.277,9.99 22.13,9.99 l 353.55,353.55 c -8.85,0 -16.752,-3.856 -22.13,-9.99 z"
       inkscape:connector-curvature="0"
       id="path2033" />
    <path
       d="M 115.51,471 H 396.49 L 750.04,824.55 H 469.06 z"
       inkscape:connector-curvature="0"
       id="path2035" />
    <path
       d="m 396.49,471 c 16.302,0 29.388,-13.09 29.388,-29.388 l 353.55,353.55 c 0,16.302 -13.09,29.388 -29.388,29.388 z"
       inkscape:connector-curvature="0"
       id="path2037" />
    <path
       d="M 425.88,441.61 V 70.4 l 353.55,353.55 v 371.21 z"
       inkscape:connector-curvature="0"
       id="path2039" />
    <path
       d="m 425.88,70.4 c 0,-8.151 -3.271,-15.498 -8.581,-20.807 l 353.55,353.55 c 5.309,5.309 8.581,12.656 8.581,20.807 z"
       inkscape:connector-curvature="0"
       id="path2041" />
    <path
       d="m 417.3,49.592 c -5.309,-5.309 -12.656,-8.581 -20.807,-8.581 l 353.55,353.55 c 8.151,0 15.498,3.271 20.807,8.581 z"
       inkscape:connector-curvature="0"
       id="path2043" />
    <path
       d="M 396.49,41.01 H 115.51 l 353.55,353.55 h 280.98 z"
       inkscape:connector-curvature="0"
       id="path2045" />
    <path
       d="m 115.51,41.01 c -0.509,0 -1,-0.025 -1.507,0 l 353.55,353.55 c 0.503,-0.025 0.998,0 1.507,0 z"
       inkscape:connector-curvature="0"
       id="path2047" />
    <path
       d="m 256,81.8 c 12.189,0 23.22,4.938 31.21,12.923 l 353.55,353.55 c -7.985,-7.985 -19.02,-12.923 -31.21,-12.923 z"
       inkscape:connector-curvature="0"
       id="path2049" />
    <path
       d="m 287.21,94.72 c 7.985,7.985 12.923,19.02 12.923,31.21 l 353.55,353.55 c 0,-12.189 -4.938,-23.22 -12.923,-31.21 z"
       inkscape:connector-curvature="0"
       id="path2051" />
    <path
       d="m 300.13,125.93 c 0,24.378 -19.752,44.18 -44.13,44.18 l 353.55,353.55 c 24.377,0 44.13,-19.799 44.13,-44.18 z"
       inkscape:connector-curvature="0"
       id="path2053" />
    <path
       d="m 256,170.1 c -12.177,0 -23.2,-4.94 -31.18,-12.923 l 353.55,353.55 c 7.983,7.983 19.01,12.923 31.18,12.923 z"
       inkscape:connector-curvature="0"
       id="path2055" />
    <path
       d="m 224.82,157.18 c -7.999,-7.999 -12.946,-19.05 -12.946,-31.25 l 353.55,353.55 c 0,12.201 4.947,23.254 12.946,31.25 z"
       inkscape:connector-curvature="0"
       id="path2057" />
    <path
       d="m 211.87,125.93 c 0,-24.378 19.752,-44.13 44.13,-44.13 l 353.55,353.55 c -24.378,0 -44.13,19.752 -44.13,44.13 z"
       inkscape:connector-curvature="0"
       id="path2059" />
    <path
       d="m 256,263.45 c 23.01,0 43.842,9.331 58.925,24.413 l 353.55,353.55 C 653.395,626.333 632.562,617 609.551,617 z"
       inkscape:connector-curvature="0"
       id="path2061" />
    <path
       d="m 314.92,287.86 c 15.1,15.1 24.436,35.959 24.436,58.994 l 353.55,353.55 c 0,-23.04 -9.338,-43.896 -24.436,-58.994 z"
       inkscape:connector-curvature="0"
       id="path2063" />
    <path
       d="m 339.36,346.85 c 0,46.05 -37.31,83.36 -83.36,83.36 l 353.55,353.55 c 46.05,0 83.36,-37.31 83.36,-83.36 z"
       inkscape:connector-curvature="0"
       id="path2065" />
    <path
       d="m 256,430.21 c -23.02,0 -43.863,-9.328 -58.948,-24.413 l 353.55,353.55 c 15.08,15.08 35.924,24.413 58.948,24.413 z"
       inkscape:connector-curvature="0"
       id="path2067" />
    <path
       d="m 197.05,405.8 c -15.08,-15.08 -24.413,-35.924 -24.413,-58.948 l 353.55,353.55 c 0,23.02 9.328,43.863 24.413,58.948 z"
       inkscape:connector-curvature="0"
       id="path2069" />
    <path
       d="m 172.64,346.85 c 0,-46.05 37.31,-83.41 83.36,-83.41 l 353.55,353.55 c -46.05,0 -83.36,37.36 -83.36,83.41 z"
       inkscape:connector-curvature="0"
       id="path2071" />
  </g>
  <path
     d="M 114,41.01 C 98.409,41.795 86.119,54.605 86.119,70.398 v 371.21 c 0,16.302 13.09,29.388 29.388,29.388 h 280.98 c 16.302,0 29.388,-13.09 29.388,-29.388 V 70.398 c 0,-16.302 -13.09,-29.388 -29.388,-29.388 h -280.98 c -0.509,0 -1,-0.025 -1.507,0 m 142,40.785 c 24.377,0 44.13,19.752 44.13,44.13 0,24.378 -19.752,44.18 -44.13,44.18 -24.378,0 -44.13,-19.799 -44.13,-44.18 0,-24.378 19.752,-44.13 44.13,-44.13 m 0,181.65 c 46.05,0 83.36,37.36 83.36,83.41 0,46.05 -37.31,83.36 -83.36,83.36 -46.05,0 -83.36,-37.31 -83.36,-83.36 0,-46.05 37.31,-83.41 83.36,-83.41"
     inkscape:connector-curvature="0"
     id="path2073"
     style="color:#000000;fill:#666666;fill-rule:evenodd" />
</svg>
