<?xml version="1.0" encoding="UTF-8" standalone="no"?>
<!-- Created with Inkscape (http://www.inkscape.org/) -->

<svg
   xmlns:dc="http://purl.org/dc/elements/1.1/"
   xmlns:cc="http://creativecommons.org/ns#"
   xmlns:rdf="http://www.w3.org/1999/02/22-rdf-syntax-ns#"
   xmlns:svg="http://www.w3.org/2000/svg"
   xmlns="http://www.w3.org/2000/svg"
   xmlns:inkscape="http://www.inkscape.org/namespaces/inkscape"
   version="1.1"
   width="100%"
   height="100%"
   viewBox="0 0 512 512"
   id="svg2">
  <metadata
     id="metadata93">
    <rdf:RDF>
      <cc:Work
         rdf:about="">
        <dc:format>image/svg+xml</dc:format>
        <dc:type
           rdf:resource="http://purl.org/dc/dcmitype/StillImage" />
      </cc:Work>
    </rdf:RDF>
  </metadata>
  <defs
     id="defs4">
    <clipPath
       id="0">
      <rect
         width="512"
         height="512"
         rx="25.988001"
         x="0"
         y="0"
         id="rect7"
         style="fill:none" />
    </clipPath>
  </defs>
  <rect
     width="512"
     height="512"
     rx="25.988001"
     x="0"
     y="0"
     id="rect9"
     style="fill:none" />
  <g
     clip-path="url(#0)"
     id="g11"
     style="opacity:0.0">
    <path
       d="m 125.5,451.72 c 0,0 25.64,7.443 59.753,11.697 l 353.55,353.55 C 504.693,812.713 479.05,805.27 479.05,805.27 z"
       inkscape:connector-curvature="0"
       id="path13" />
    <path
       d="m 185.25,463.42 c 13.818,1.723 66.4,7.746 106.7,7.581 l 353.55,353.55 c -40.31,0.165 -92.88,-5.858 -106.7,-7.581 z"
       inkscape:connector-curvature="0"
       id="path15" />
    <path
       d="m 291.95,471 c 0,0 49.09,0.053 76.19,-3.793 l 353.55,353.55 c -27.1,3.846 -76.19,3.793 -76.19,3.793 z"
       inkscape:connector-curvature="0"
       id="path17" />
    <path
       d="m 368.15,467.2 c 28.356,-4.03 44.42,-9.168 53.36,-19.427 l 353.55,353.55 c -8.939,10.259 -25,15.399 -53.36,19.427 z"
       inkscape:connector-curvature="0"
       id="path19" />
    <path
       d="m 421.51,447.78 c 0.205,-2.152 3.391,-8.585 -3.358,-15.335 l 353.55,353.55 c 6.75,6.75 3.563,13.183 3.358,15.335 z"
       inkscape:connector-curvature="0"
       id="path21" />
    <path
       d="m 418.15,432.44 c -0.921,-0.921 -2.026,-1.847 -3.349,-2.769 l 353.55,353.55 c 1.323,0.922 2.428,1.849 3.349,2.769 z"
       inkscape:connector-curvature="0"
       id="path23" />
    <path
       d="M 414.8,429.67 C 386.62,410.02 350.19,404.63 279.44,387.828 l 353.55,353.55 c 70.75,16.804 107.18,22.19 135.36,41.842 z"
       inkscape:connector-curvature="0"
       id="path25" />
    <path
       d="M 279.44,387.83 C 209.637,370.285 183.49,353.395 170.37,340.274 l 353.55,353.55 c 13.12,13.12 39.26,30.01 109.07,47.556 z"
       inkscape:connector-curvature="0"
       id="path27" />
    <path
       d="m 170.37,340.27 c -1.586,-1.586 -2.982,-3.117 -4.241,-4.587 l 353.55,353.55 c 1.26,1.47 2.655,3 4.241,4.587 z"
       inkscape:connector-curvature="0"
       id="path29" />
    <path
       d="m 166.13,335.69 c -11.08,-13.664 2.079,-42.03 65.12,-55.964 l 353.55,353.55 c -63.04,13.931 -76.2,42.3 -65.12,55.964 z"
       inkscape:connector-curvature="0"
       id="path31" />
    <path
       d="m 231.25,279.72 c 31.922,-7.769 150.81,-9.196 150.81,-9.196 l 353.55,353.55 c 0,0 -118.89,1.428 -150.81,9.196 z"
       inkscape:connector-curvature="0"
       id="path33" />
    <path
       d="M 382.06,270.53 C 347.95,243.45 283.91,194.96 270.82,184.65 L 624.37,538.2 c 13.09,10.313 77.13,58.801 111.24,85.88 z"
       inkscape:connector-curvature="0"
       id="path35" />
    <path
       d="m 270.82,184.65 c -6.01,-4.734 -13.953,-10.797 -20.436,-17.281 l 353.55,353.55 c 6.484,6.484 14.423,12.547 20.436,17.281 z"
       inkscape:connector-curvature="0"
       id="path37" />
    <path
       d="m 250.38,167.36 c -5.894,-5.894 -10.585,-12.135 -11.531,-18.04 l 353.55,353.55 c 0.946,5.905 5.637,12.146 11.531,18.04 z"
       inkscape:connector-curvature="0"
       id="path39" />
    <path
       d="m 238.85,149.32 c -2.683,-12.07 16.319,-17.885 26.379,-18.554 l 353.55,353.55 c -10.06,0.67 -29.06,6.485 -26.379,18.554 z"
       inkscape:connector-curvature="0"
       id="path41" />
    <path
       d="m 265.23,130.77 c 32.415,-2.235 76.68,1.564 116.03,9.39 l 353.55,353.55 c -39.35,-7.826 -83.61,-11.625 -116.03,-9.39 z"
       inkscape:connector-curvature="0"
       id="path43" />
    <path
       d="m 381.26,140.16 c 19.778,3.933 23.25,3.354 23.25,3.354 l 353.55,353.55 c 0,0 -3.472,0.579 -23.25,-3.354 z"
       inkscape:connector-curvature="0"
       id="path45" />
    <path
       d="m 404.51,143.51 c 28.17,1.342 50.08,-13.413 48.958,-44.487 l 353.55,353.55 c 1.121,31.07 -20.79,45.829 -48.958,44.487 z"
       inkscape:connector-curvature="0"
       id="path47" />
    <path
       d="M 453.47,99.03 C 453.371,85.065 447.131,72.325 437.176,62.371 l 353.55,353.55 c 9.954,9.954 16.195,22.694 16.294,36.659 z"
       inkscape:connector-curvature="0"
       id="path49" />
    <path
       d="M 437.17,62.37 C 424.656,49.856 406.273,41.743 386.84,41.129 l 353.55,353.55 c 19.431,0.615 37.814,8.727 50.33,21.241 z"
       inkscape:connector-curvature="0"
       id="path51" />
    <path
       d="m 386.84,41.13 c -32.847,-1.04 -113.79,4.694 -113.79,4.694 l 353.55,353.55 c 0,0 80.942,-5.734 113.79,-4.694 z"
       inkscape:connector-curvature="0"
       id="path53" />
    <path
       d="m 273.05,45.82 c 79.61,16.413 103.03,22.51 111.36,30.838 l 353.55,353.55 C 729.631,421.879 706.218,415.783 626.6,399.37 z"
       inkscape:connector-curvature="0"
       id="path55" />
    <path
       d="m 384.41,76.66 c 1.54,1.54 2.565,3.157 3.333,4.93 l 353.55,353.55 c -0.769,-1.773 -1.793,-3.389 -3.333,-4.93 z"
       inkscape:connector-curvature="0"
       id="path57" />
    <path
       d="m 387.74,81.59 c 2.906,6.707 -4.855,13.375 -30.851,12.07 l 353.55,353.55 c 25.996,1.306 33.757,-5.362 30.851,-12.07 z"
       inkscape:connector-curvature="0"
       id="path59" />
    <path
       d="M 356.89,93.66 C 328.59,92.241 270.6,85.389 270.6,85.389 l 353.55,353.55 c 0,0 57.986,6.853 86.29,8.271 z"
       inkscape:connector-curvature="0"
       id="path61" />
    <path
       d="M 270.61,85.39 C 215.39,76.895 176.94,68.847 160.17,90.755 l 353.55,353.55 c 16.768,-21.908 55.22,-13.86 110.44,-5.365 z"
       inkscape:connector-curvature="0"
       id="path63" />
    <path
       d="m 160.17,90.75 c -10.954,14.312 1.564,31.75 6.484,42.03 l 353.55,353.55 c -4.919,-10.279 -17.438,-27.716 -6.484,-42.03 z"
       inkscape:connector-curvature="0"
       id="path65" />
    <path
       d="m 166.65,132.78 c 8.309,14.499 18.917,27.27 30.2,38.55 L 550.4,524.88 c -11.279,-11.279 -21.886,-24.05 -30.2,-38.55 z"
       inkscape:connector-curvature="0"
       id="path67" />
    <path
       d="m 196.84,171.33 c 18.458,18.458 38.715,32.916 53.638,44.39 l 353.55,353.55 c -14.923,-11.474 -35.18,-25.931 -53.638,-44.39 z"
       inkscape:connector-curvature="0"
       id="path69" />
    <path
       d="m 250.48,215.72 c 9.05,6.955 36.663,22.355 36.663,22.355 l 353.55,353.55 c 0,0 -27.611,-15.4 -36.663,-22.355 z"
       inkscape:connector-curvature="0"
       id="path71" />
    <path
       d="M 287.14,238.08 C 201.29,214.606 132.89,227.797 89.53,250.598 l 353.55,353.55 c 43.37,-22.801 111.76,-35.992 197.61,-12.518 z"
       inkscape:connector-curvature="0"
       id="path73" />
    <path
       d="m 89.53,250.59 c -38.2,22.612 -42.12,57.14 -6.273,92.99 l 353.55,353.55 c -35.85,-35.85 -31.93,-70.37 6.273,-92.99 z"
       inkscape:connector-curvature="0"
       id="path75" />
    <path
       d="m 83.26,343.58 c 10.934,10.934 25.568,21.992 44.06,32.872 l 353.55,353.55 c -18.489,-10.88 -33.12,-21.938 -44.06,-32.872 z"
       inkscape:connector-curvature="0"
       id="path77" />
    <path
       d="m 127.32,376.45 c 46.716,27.497 69.986,40.712 146.48,50.1 L 627.35,780.1 C 550.85,770.713 527.58,757.498 480.87,730 z"
       inkscape:connector-curvature="0"
       id="path79" />
    <path
       d="m 273.8,426.55 c 35.946,5.732 47.31,8.741 50.2,11.634 l 353.55,353.55 c -2.893,-2.893 -14.253,-5.902 -50.2,-11.634 z"
       inkscape:connector-curvature="0"
       id="path81" />
    <path
       d="m 324,438.18 c 0.706,0.706 0.908,1.405 0.84,2.135 l 353.55,353.55 c 0.068,-0.73 -0.134,-1.429 -0.84,-2.135 z"
       inkscape:connector-curvature="0"
       id="path83" />
    <path
       d="m 324.84,440.32 c -0.479,5.241 -52.931,7.225 -67.34,8.22 l 353.55,353.55 c 14.41,-0.995 66.862,-2.98 67.34,-8.22 z"
       inkscape:connector-curvature="0"
       id="path85" />
    <path
       d="m 257.5,448.54 c -36.674,2.529 -131.52,3.161 -132,3.161 l 353.55,353.55 c 0.48,0 95.32,-0.632 132,-3.161 z"
       inkscape:connector-curvature="0"
       id="path87" />
  </g>
  <path
     d="m 125.5,451.72 c 0,0 25.64,7.443 59.753,11.697 13.818,1.723 66.4,7.746 106.7,7.581 0,0 49.09,0.053 76.19,-3.793 28.356,-4.03 44.42,-9.168 53.36,-19.427 0.233,-2.445 4.316,-10.42 -6.707,-18.1 -28.18,-19.65 -64.61,-25.04 -135.36,-41.842 -78.24,-19.665 -101.63,-38.51 -113.31,-52.14 -11.08,-13.664 2.079,-42.03 65.12,-55.964 31.922,-7.769 150.81,-9.196 150.81,-9.196 -34.11,-27.08 -98.15,-75.57 -111.24,-85.88 -11.479,-9.04 -29.98,-22.92 -31.967,-35.32 -2.683,-12.07 16.319,-17.885 26.379,-18.554 32.415,-2.235 76.68,1.564 116.03,9.39 19.778,3.933 23.25,3.354 23.25,3.354 28.17,1.342 50.08,-13.413 48.958,-44.487 -0.224,-31.522 -31.735,-56.797 -66.62,-57.9 -32.847,-1.04 -113.79,4.694 -113.79,4.694 94.34,19.449 109.77,24.412 114.69,35.768 2.906,6.707 -4.855,13.375 -30.851,12.07 -28.3,-1.419 -86.29,-8.271 -86.29,-8.271 -55.22,-8.495 -93.67,-16.543 -110.44,5.365 -10.954,14.312 1.564,31.75 6.484,42.03 21.908,38.23 59.792,64.45 83.83,82.94 9.05,6.955 36.663,22.355 36.663,22.355 -85.85,-23.474 -154.25,-10.283 -197.61,12.518 -49.854,29.508 -41.32,79.31 37.784,125.86 46.716,27.497 69.986,40.712 146.48,50.1 44.715,7.131 51.39,10.05 51.04,13.769 -0.479,5.241 -52.931,7.225 -67.34,8.22 -36.674,2.529 -131.52,3.161 -132,3.161"
     inkscape:connector-curvature="0"
     id="path89"
     style="fill:#666666" />
</svg>
