<?xml version="1.0" encoding="UTF-8" standalone="no"?>
<!-- Created with Inkscape (http://www.inkscape.org/) -->

<svg
   xmlns:dc="http://purl.org/dc/elements/1.1/"
   xmlns:cc="http://creativecommons.org/ns#"
   xmlns:rdf="http://www.w3.org/1999/02/22-rdf-syntax-ns#"
   xmlns:svg="http://www.w3.org/2000/svg"
   xmlns="http://www.w3.org/2000/svg"
   xmlns:inkscape="http://www.inkscape.org/namespaces/inkscape"
   version="1.1"
   width="100%"
   height="100%"
   viewBox="0 0 512 512"
   id="svg2">
  <metadata
     id="metadata71">
    <rdf:RDF>
      <cc:Work
         rdf:about="">
        <dc:format>image/svg+xml</dc:format>
        <dc:type
           rdf:resource="http://purl.org/dc/dcmitype/StillImage" />
      </cc:Work>
    </rdf:RDF>
  </metadata>
  <defs
     id="defs4">
    <clipPath
       id="0">
      <path
         d="M 26,0 C 11.603,0 0,11.603 0,26 v 460 c 0,14.397 11.603,26 26,26 h 460 c 14.397,0 26,-11.603 26,-26 V 26 C 512,11.603 500.397,0 486,0 H 26"
         inkscape:connector-curvature="0"
         id="path7" />
    </clipPath>
  </defs>
  <path
     d="M 26,0 C 11.603,0 0,11.603 0,26 v 460 c 0,14.397 11.603,26 26,26 h 460 c 14.397,0 26,-11.603 26,-26 V 26 C 512,11.603 500.397,0 486,0 H 26"
     inkscape:connector-curvature="0"
     id="path9"
     style="fill:none" />
  <g
     clip-path="url(#0)"
     id="g57"
     style="opacity:0.0">
    <path
       d="M 256,41 72.76,471 426.31,824.55 609.55,394.55 z"
       inkscape:connector-curvature="0"
       id="path59" />
    <path
       d="M 72.76,471 256,418.028 609.55,771.578 426.31,824.55 z"
       inkscape:connector-curvature="0"
       id="path61" />
    <path
       d="M 256,418.03 439.24,471.002 792.79,824.552 609.55,771.58 z"
       inkscape:connector-curvature="0"
       id="path63" />
    <path
       d="M 439.24,471 256,41 l 353.55,353.55 183.24,430 z"
       inkscape:connector-curvature="0"
       id="path65" />
  </g>
  <path
     d="M 256,41 72.757165,471 256,418.02804 439.24284,471 256,41"
     inkscape:connector-curvature="0"
     id="path67"
     style="fill:#666666" />
</svg>
