<?xml version="1.0" encoding="UTF-8" standalone="no"?>
<!-- Created with Inkscape (http://www.inkscape.org/) -->

<svg
   xmlns:dc="http://purl.org/dc/elements/1.1/"
   xmlns:cc="http://creativecommons.org/ns#"
   xmlns:rdf="http://www.w3.org/1999/02/22-rdf-syntax-ns#"
   xmlns:svg="http://www.w3.org/2000/svg"
   xmlns="http://www.w3.org/2000/svg"
   xmlns:inkscape="http://www.inkscape.org/namespaces/inkscape"
   version="1.1"
   width="100%"
   height="100%"
   viewBox="0 0 512 512"
   id="svg2">
  <metadata
     id="metadata10">
    <rdf:RDF>
      <cc:Work
         rdf:about="">
        <dc:format>image/svg+xml</dc:format>
        <dc:type
           rdf:resource="http://purl.org/dc/dcmitype/StillImage" />
        <dc:title />
      </cc:Work>
    </rdf:RDF>
  </metadata>
  <defs
     id="defs8">
    <clipPath
       id="clipPath3519">
      <path
         d="M 26,0 C 11.602648,0 0,11.602648 0,26 l 0,460 c 0,14.39735 11.602648,26 26,26 l 460,0 c 14.39735,0 26,-11.60265 26,-26 L 512,26 C 512,11.602648 500.39735,0 486,0 L 26,0 z"
         inkscape:connector-curvature="0"
         id="path3521"
         style="fill:none;fill-opacity:1;stroke:none" />
    </clipPath>
  </defs>
  <path
     d="M 26,0 C 11.602648,0 0,11.602648 0,26 l 0,460 c 0,14.39735 11.602648,26 26,26 l 460,0 c 14.39735,0 26,-11.60265 26,-26 L 512,26 C 512,11.602648 500.39735,0 486,0 L 26,0 z"
     inkscape:connector-curvature="0"
     id="rect2986"
     style="fill:none;fill-opacity:1;stroke:none" />
  <g
     clip-path="url(#clipPath3519)"
     id="g3281"
     style="opacity:0.0;fill:#000000;fill-opacity:1;stroke:none">
    <path
       d="m 41.000002,94.207688 0,35.604792 388.908728,388.90873 0,-35.60479 z"
       inkscape:connector-curvature="0"
       id="path3283"
       style="fill:#000000" />
    <path
       d="m 41.000002,129.81248 0,60.38849 388.908728,388.90873 0,-60.38849 z"
       inkscape:connector-curvature="0"
       id="path3285"
       style="fill:#000000" />
    <path
       d="m 41.000002,190.20097 0,35.60478 388.908728,388.90873 0,-35.60478 z"
       inkscape:connector-curvature="0"
       id="path3287"
       style="fill:#000000" />
    <path
       d="m 41.000002,225.80575 0,60.38849 388.908728,388.90873 0,-60.38849 z"
       inkscape:connector-curvature="0"
       id="path3289"
       style="fill:#000000" />
    <path
       d="m 41.000002,286.19424 0,35.60479 388.908728,388.90873 0,-35.60479 z"
       inkscape:connector-curvature="0"
       id="path3291"
       style="fill:#000000" />
    <path
       d="m 41.000002,321.79903 0,60.38849 388.908728,388.90873 0,-60.38849 z"
       inkscape:connector-curvature="0"
       id="path3293"
       style="fill:#000000" />
    <path
       d="m 41.000002,382.18752 0,14.86026 388.908728,388.90873 0,-14.86026 z"
       inkscape:connector-curvature="0"
       id="path3295"
       style="fill:#000000" />
    <path
       d="m 41.000002,397.04778 0,20.74453 388.908728,388.90873 0,-20.74453 z"
       inkscape:connector-curvature="0"
       id="path3297"
       style="fill:#000000" />
    <path
       d="m 41.000002,417.79231 429.999998,0 388.90873,388.90873 -430,0 z"
       inkscape:connector-curvature="0"
       id="path3299"
       style="fill:#000000" />
    <path
       d="m 471,417.79231 0,-20.74453 388.90873,388.90873 0,20.74453 z"
       inkscape:connector-curvature="0"
       id="path3301"
       style="fill:#000000" />
    <path
       d="m 471,397.04778 0,-14.86026 388.90873,388.90873 0,14.86026 z"
       inkscape:connector-curvature="0"
       id="path3303"
       style="fill:#000000" />
    <path
       d="m 471,382.18752 0,-273.21929 388.90873,388.90873 0,273.21929 z"
       inkscape:connector-curvature="0"
       id="path3305"
       style="fill:#000000" />
    <path
       d="m 471,108.96823 0,-14.760542 388.90873,388.908732 0,14.76054 z"
       inkscape:connector-curvature="0"
       id="path3307"
       style="fill:#000000" />
    <path
       d="m 471,94.207688 -429.999998,0 388.908728,388.908732 430,0 z"
       inkscape:connector-curvature="0"
       id="path3309"
       style="fill:#000000" />
    <path
       d="m 76.604775,129.81248 81.831145,0 388.90873,388.90873 -81.83115,0 z"
       inkscape:connector-curvature="0"
       id="path3311"
       style="fill:#000000" />
    <path
       d="m 158.43592,129.81248 0,60.38849 388.90873,388.90873 0,-60.38849 z"
       inkscape:connector-curvature="0"
       id="path3313"
       style="fill:#000000" />
    <path
       d="m 158.43592,190.20097 -81.831145,0 388.908725,388.90873 81.83115,0 z"
       inkscape:connector-curvature="0"
       id="path3315"
       style="fill:#000000" />
    <path
       d="m 76.604775,190.20097 0,-60.38849 388.908725,388.90873 0,60.38849 z"
       inkscape:connector-curvature="0"
       id="path3317"
       style="fill:#000000" />
    <path
       d="m 194.04069,129.81248 241.35453,0 388.90873,388.90873 -241.35453,0 z"
       inkscape:connector-curvature="0"
       id="path3319"
       style="fill:#000000" />
    <path
       d="m 435.39522,129.81248 0,60.38849 388.90873,388.90873 0,-60.38849 z"
       inkscape:connector-curvature="0"
       id="path3321"
       style="fill:#000000" />
    <path
       d="m 435.39522,190.20097 -241.35453,0 388.90873,388.90873 241.35453,0 z"
       inkscape:connector-curvature="0"
       id="path3323"
       style="fill:#000000" />
    <path
       d="m 194.04069,190.20097 0,-60.38849 388.90873,388.90873 0,60.38849 z"
       inkscape:connector-curvature="0"
       id="path3325"
       style="fill:#000000" />
    <path
       d="m 76.604775,225.80575 81.831145,0 388.90873,388.90873 -81.83115,0 z"
       inkscape:connector-curvature="0"
       id="path3327"
       style="fill:#000000" />
    <path
       d="m 158.43592,225.80575 0,60.38849 388.90873,388.90873 0,-60.38849 z"
       inkscape:connector-curvature="0"
       id="path3329"
       style="fill:#000000" />
    <path
       d="m 158.43592,286.19424 -81.831145,0 388.908725,388.90873 81.83115,0 z"
       inkscape:connector-curvature="0"
       id="path3331"
       style="fill:#000000" />
    <path
       d="m 76.604775,286.19424 0,-60.38847 388.908725,388.90873 0,60.38847 z"
       inkscape:connector-curvature="0"
       id="path3333"
       style="fill:#000000" />
    <path
       d="m 194.04069,225.80575 241.35453,0 388.90873,388.90873 -241.35453,0 z"
       inkscape:connector-curvature="0"
       id="path3335"
       style="fill:#000000" />
    <path
       d="m 435.39522,225.80575 0,60.38849 388.90873,388.90873 0,-60.38849 z"
       inkscape:connector-curvature="0"
       id="path3337"
       style="fill:#000000" />
    <path
       d="m 435.39522,286.19424 -241.35453,0 388.90873,388.90873 241.35453,0 z"
       inkscape:connector-curvature="0"
       id="path3339"
       style="fill:#000000" />
    <path
       d="m 194.04069,286.19424 0,-60.38847 388.90873,388.90873 0,60.38847 z"
       inkscape:connector-curvature="0"
       id="path3341"
       style="fill:#000000" />
    <path
       d="m 76.604775,321.79905 81.831145,0 388.90873,388.90873 -81.83115,0 z"
       inkscape:connector-curvature="0"
       id="path3343"
       style="fill:#000000" />
    <path
       d="m 158.43592,321.79905 0,60.38847 388.90873,388.90873 0,-60.38847 z"
       inkscape:connector-curvature="0"
       id="path3345"
       style="fill:#000000" />
    <path
       d="m 158.43592,382.18752 -81.831145,0 388.908725,388.90873 81.83115,0 z"
       inkscape:connector-curvature="0"
       id="path3347"
       style="fill:#000000" />
    <path
       d="m 76.604775,382.18752 0,-60.38847 388.908725,388.90873 0,60.38847 z"
       inkscape:connector-curvature="0"
       id="path3349"
       style="fill:#000000" />
    <path
       d="m 194.04069,321.79905 241.35453,0 388.90873,388.90873 -241.35453,0 z"
       inkscape:connector-curvature="0"
       id="path3351"
       style="fill:#000000" />
    <path
       d="m 435.39522,321.79905 0,60.38847 388.90873,388.90873 0,-60.38847 z"
       inkscape:connector-curvature="0"
       id="path3353"
       style="fill:#000000" />
    <path
       d="m 435.39522,382.18752 -241.35453,0 388.90873,388.90873 241.35453,0 z"
       inkscape:connector-curvature="0"
       id="path3355"
       style="fill:#000000" />
    <path
       d="m 194.04069,382.18752 0,-60.38847 388.90873,388.90873 0,60.38847 z"
       inkscape:connector-curvature="0"
       id="path3357"
       style="fill:#000000" />
  </g>
  <path
     d="m 41.000002,94.207688 0,35.604792 0,60.38849 0,35.60478 0,60.38849 0,35.60479 0,60.38849 0,14.86026 0,20.74453 429.999998,0 0,-20.74453 0,-14.86026 0,-273.21929 0,-14.760542 -429.999998,0 z m 35.604773,35.604792 81.831145,0 0,60.38849 -81.831145,0 0,-60.38849 z m 117.435915,0 241.35453,0 0,60.38849 -241.35453,0 0,-60.38849 z m -117.435915,95.99327 81.831145,0 0,60.38849 -81.831145,0 0,-60.38847 z m 117.435915,0 241.35453,0 0,60.38849 -241.35453,0 0,-60.38847 z m -117.435915,95.9933 81.831145,0 0,60.38847 -81.831145,0 0,-60.38847 z m 117.435915,0 241.35453,0 0,60.38847 -241.35453,0 0,-60.38847 z"
     inkscape:connector-curvature="0"
     id="rect3173"
     style="fill:#666666;fill-opacity:1;stroke:none" />
</svg>
