<?xml version="1.0" encoding="UTF-8" standalone="no"?>
<!-- Created with Inkscape (http://www.inkscape.org/) -->

<svg
   xmlns:dc="http://purl.org/dc/elements/1.1/"
   xmlns:cc="http://creativecommons.org/ns#"
   xmlns:rdf="http://www.w3.org/1999/02/22-rdf-syntax-ns#"
   xmlns:svg="http://www.w3.org/2000/svg"
   xmlns="http://www.w3.org/2000/svg"
   xmlns:inkscape="http://www.inkscape.org/namespaces/inkscape"
   version="1.1"
   width="100%"
   height="100%"
   viewBox="0 0 512 512"
   id="svg2">
  <metadata
     id="metadata10">
    <rdf:RDF>
      <cc:Work
         rdf:about="">
        <dc:format>image/svg+xml</dc:format>
        <dc:type
           rdf:resource="http://purl.org/dc/dcmitype/StillImage" />
        <dc:title />
      </cc:Work>
    </rdf:RDF>
  </metadata>
  <defs
     id="defs8">
    <clipPath
       id="clipPath3835">
      <path
         d="M 26,0 C 11.602648,0 0,11.602648 0,26 l 0,460 c 0,14.39735 11.602648,26 26,26 l 460,0 c 14.39735,0 26,-11.60265 26,-26 L 512,26 C 512,11.602648 500.39735,0 486,0 L 26,0 z"
         inkscape:connector-curvature="0"
         id="path3837"
         style="fill:none;fill-opacity:1;stroke:none" />
    </clipPath>
  </defs>
  <path
     d="M 26,0 C 11.602648,0 0,11.602648 0,26 l 0,460 c 0,14.39735 11.602648,26 26,26 l 460,0 c 14.39735,0 26,-11.60265 26,-26 L 512,26 C 512,11.602648 500.39735,0 486,0 L 26,0 z"
     inkscape:connector-curvature="0"
     id="rect2986"
     style="fill:none;fill-opacity:1;stroke:none" />
  <path
     d="M 267.9375,247.5 26.46875,512 486,512 c 8.58029,0 16.17553,-4.12249 20.90625,-10.5 L 267.9375,247.5 z"
     inkscape:connector-curvature="0"
     id="path3080"
     style="fill:none" />
  <path
     d="M 493.71875,1.15625 267.9375,247.4375 506.75,501.6875 C 510.04517,497.3307 512,491.90431 512,486 L 512,26 C 512,14.291694 504.32821,4.4310137 493.71875,1.15625 z"
     inkscape:connector-curvature="0"
     id="path3086"
     style="fill:none" />
  <path
     d="M 26,0 C 19.843037,0 14.195916,2.1325517 9.75,5.6875 102.96741,108.03114 132.15138,151.12175 249.0625,267.90625 321.72201,189.74459 424.19781,126.71563 512,59.90625 L 512,26 C 512,11.602648 500.39735,0 486,0 L 26,0 z"
     inkscape:connector-curvature="0"
     id="path3084"
     style="fill:none" />
  <g
     clip-path="url(#clipPath3835)"
     id="g3534"
     style="opacity:0.0;fill:#000000">
    <path
       d="m 67.71361,41.000002 -3.81464,2.20075 388.90873,388.908728 3.81464,-2.20075 z"
       inkscape:connector-curvature="0"
       id="path3536"
       style="fill:#000000" />
    <path
       d="m 63.89897,43.200752 c -2.28359,1.32857 -4.92976,4.4797 -6.65116,7.82489 L 446.15654,439.93437 c 1.7214,-3.34519 4.36757,-6.49632 6.65116,-7.82489 z"
       inkscape:connector-curvature="0"
       id="path3538"
       style="fill:#000000" />
    <path
       d="m 57.24781,51.025642 -2.88542,5.57523 388.90873,388.908728 2.88542,-5.57523 z"
       inkscape:connector-curvature="0"
       id="path3540"
       style="fill:#000000" />
    <path
       d="m 54.36239,56.600872 0,200.268248 388.90873,388.90873 0,-200.26825 z"
       inkscape:connector-curvature="0"
       id="path3542"
       style="fill:#000000" />
    <path
       d="m 54.36239,256.86912 0,200.26826 388.90873,388.90873 0,-200.26826 z"
       inkscape:connector-curvature="0"
       id="path3544"
       style="fill:#000000" />
    <path
       d="m 54.36239,457.13738 2.49418,4.69494 388.90873,388.90873 -2.49418,-4.69494 z"
       inkscape:connector-curvature="0"
       id="path3546"
       style="fill:#000000" />
    <path
       d="m 56.85657,461.83232 c 1.128552,2.11 3.018626,4.63061 4.589632,6.20162 L 450.35493,856.94267 c -1.571,-1.57101 -3.46108,-4.09162 -4.58963,-6.20162 z"
       inkscape:connector-curvature="0"
       id="path3548"
       style="fill:#000000" />
    <path
       d="m 61.446202,468.03394 c 0.348123,0.34812 0.680578,0.64961 0.985608,0.88968 l 388.90873,388.90873 c -0.30503,-0.24007 -0.63749,-0.54156 -0.98561,-0.88968 z"
       inkscape:connector-curvature="0"
       id="path3550"
       style="fill:#000000" />
    <path
       d="m 62.43181,468.92362 c 1.68285,1.32344 3.75246,2.23247 4.59713,2.05403 l 388.90873,388.90873 c -0.84467,0.17844 -2.91428,-0.73059 -4.59713,-2.05403 z"
       inkscape:connector-curvature="0"
       id="path3552"
       style="fill:#000000" />
    <path
       d="m 67.02894,470.97765 c 0.84721,-0.17969 45.40663,-48.48331 99.03374,-107.34769 l 388.90873,388.90873 c -53.62711,58.86438 -98.18653,107.168 -99.03374,107.34769 z"
       inkscape:connector-curvature="0"
       id="path3554"
       style="fill:#000000" />
    <path
       d="m 166.06268,363.62996 c 96.55239,-105.98079 97.48951,-107.05163 95.56146,-109.49955 l 388.90873,388.90873 c 1.92805,2.44792 0.99093,3.51876 -95.56146,109.49955 z"
       inkscape:connector-curvature="0"
       id="path3556"
       style="fill:#000000" />
    <path
       d="m 261.62414,254.13041 c -1.06798,-1.35423 -43.05685,-47.55603 -93.3118,-102.70167 l 388.90873,388.90873 c 50.25495,55.14564 92.24382,101.34744 93.3118,102.70167 z"
       inkscape:connector-curvature="0"
       id="path3558"
       style="fill:#000000" />
    <path
       d="M 168.31234,151.42874 C 118.05996,96.283076 74.84467,48.876832 72.31073,46.086182 L 461.21946,434.99491 c 2.53394,2.79065 45.74923,50.1969 96.00161,105.34256 z"
       inkscape:connector-curvature="0"
       id="path3560"
       style="fill:#000000" />
    <path
       d="m 72.31073,46.086182 -4.59712,-5.08618 388.90873,388.908728 4.59712,5.08618 z"
       inkscape:connector-curvature="0"
       id="path3562"
       style="fill:#000000" />
    <path
       d="m 102.97451,52.394992 4.98838,5.57524 388.90873,388.908728 -4.98838,-5.57524 z"
       inkscape:connector-curvature="0"
       id="path3564"
       style="fill:#000000" />
    <path
       d="m 107.96289,57.970232 c 2.76114,3.07048 41.54033,45.787518 86.17158,94.925688 L 583.0432,541.80465 c -44.63125,-49.13817 -83.41044,-91.85521 -86.17158,-94.92569 z"
       inkscape:connector-curvature="0"
       id="path3566"
       style="fill:#000000" />
    <path
       d="m 194.13447,152.89592 0.0488,0 388.90873,388.90873 -0.0488,0 z"
       inkscape:connector-curvature="0"
       id="path3568"
       style="fill:#000000" />
    <path
       d="m 194.18327,152.89592 c 40.31017,44.39228 74.34266,81.3918 80.95669,88.00583 l 388.90873,388.90873 c -6.61403,-6.61403 -40.64652,-43.61355 -80.95669,-88.00583 z"
       inkscape:connector-curvature="0"
       id="path3570"
       style="fill:#000000" />
    <path
       d="m 275.13996,240.90175 c 0.709,0.709 1.10294,1.06884 1.15576,1.05119 l 388.90873,388.90873 c -0.0528,0.0177 -0.44676,-0.34219 -1.15576,-1.05119 z"
       inkscape:connector-curvature="0"
       id="path3572"
       style="fill:#000000" />
    <path
       d="m 276.29572,241.95294 c 2.17439,-0.72393 57.24152,-62.23476 56.43713,-63.03915 l 388.90873,388.90873 c 0.80439,0.80439 -54.26274,62.31522 -56.43713,63.03915 z"
       inkscape:connector-curvature="0"
       id="path3574"
       style="fill:#000000" />
    <path
       d="m 332.73285,178.91379 c -4e-5,-4e-5 -8e-5,-8e-5 -1.2e-4,-1.2e-4 L 721.64146,567.8224 c 4e-5,4e-5 8e-5,8e-5 1.2e-4,1.2e-4 z"
       inkscape:connector-curvature="0"
       id="path3576"
       style="fill:#000000" />
    <path
       d="M 332.73273,178.91367 C 331.8855,178.09214 116.5593,59.367312 107.42483,54.693552 L 496.33356,443.60228 c 9.13447,4.67376 224.46067,123.39859 225.3079,124.22012 z"
       inkscape:connector-curvature="0"
       id="path3578"
       style="fill:#000000" />
    <path
       d="m 107.42483,54.693552 -4.45042,-2.29856 388.90873,388.908728 4.45042,2.29856 z"
       inkscape:connector-curvature="0"
       id="path3580"
       style="fill:#000000" />
    <path
       d="m 350.92569,188.15682 -20.24691,22.20313 388.90873,388.90873 20.24691,-22.20313 z"
       inkscape:connector-curvature="0"
       id="path3582"
       style="fill:#000000" />
    <path
       d="m 330.67878,210.35995 c -11.13182,12.23189 -25.21362,27.64105 -31.25065,34.23388 l 388.90873,388.90873 c 6.03703,-6.59283 20.11883,-22.00199 31.25065,-34.23388 z"
       inkscape:connector-curvature="0"
       id="path3584"
       style="fill:#000000" />
    <path
       d="m 299.42813,244.59383 -10.95484,11.98186 388.90873,388.90873 10.95484,-11.98186 z"
       inkscape:connector-curvature="0"
       id="path3586"
       style="fill:#000000" />
    <path
       d="m 288.47329,256.57569 31.15284,34.08718 388.90873,388.90873 -31.15284,-34.08718 z"
       inkscape:connector-curvature="0"
       id="path3588"
       style="fill:#000000" />
    <path
       d="m 319.62613,290.66287 c 11.64352,12.73149 20.27084,21.90336 25.74738,27.3799 L 734.28224,706.9515 c -5.47654,-5.47654 -14.10386,-14.64841 -25.74738,-27.3799 z"
       inkscape:connector-curvature="0"
       id="path3590"
       style="fill:#000000" />
    <path
       d="m 345.37351,318.04277 c 4.17044,4.17043 6.51373,6.19795 6.97044,6.02259 l 388.90873,388.90873 c -0.45671,0.17536 -2.8,-1.85216 -6.97044,-6.02259 z"
       inkscape:connector-curvature="0"
       id="path3592"
       style="fill:#000000" />
    <path
       d="m 352.34395,324.06536 c 3.95362,-1.50957 92.84804,-50.93152 97.12643,-53.99174 l 388.90873,388.90873 c -4.27839,3.06022 -93.17281,52.48217 -97.12643,53.99174 z"
       inkscape:connector-curvature="0"
       id="path3594"
       style="fill:#000000" />
    <path
       d="m 449.47038,270.07362 c 6.26425,-4.48121 8.16723,-7.5771 8.16723,-13.25341 l 388.90873,388.90873 c 0,5.67631 -1.90298,8.7722 -8.16723,13.25341 z"
       inkscape:connector-curvature="0"
       id="path3596"
       style="fill:#000000" />
    <path
       d="m 457.63761,256.82021 c 0,-3.49846 -0.17508,-5.83481 -3.35387,-9.0136 l 388.90873,388.90873 c 3.17879,3.17879 3.35387,5.51514 3.35387,9.0136 z"
       inkscape:connector-curvature="0"
       id="path3598"
       style="fill:#000000" />
    <path
       d="m 454.28374,247.80661 c -5.44524,-5.44524 -19.7044,-13.36249 -56.99558,-33.82766 l 388.90873,388.90873 c 37.29118,20.46517 51.55034,28.38242 56.99558,33.82766 z"
       inkscape:connector-curvature="0"
       id="path3600"
       style="fill:#000000" />
    <path
       d="m 397.28816,213.97895 c -21.71683,-11.91741 -41.04185,-22.6205 -42.93909,-23.7681 L 743.2578,579.11958 c 1.89724,1.1476 21.22226,11.85069 42.93909,23.7681 z"
       inkscape:connector-curvature="0"
       id="path3602"
       style="fill:#000000" />
    <path
       d="m 354.34907,190.21085 -3.42338,-2.05403 388.90873,388.90873 3.42338,2.05403 z"
       inkscape:connector-curvature="0"
       id="path3604"
       style="fill:#000000" />
    <path
       d="m 277.17611,271.14954 c -5e-5,-5e-5 -1.1e-4,-1.1e-4 -1.6e-4,-1.6e-4 l 388.90873,388.90873 c 5e-5,5e-5 1.1e-4,1.1e-4 1.6e-4,1.6e-4 z"
       inkscape:connector-curvature="0"
       id="path3606"
       style="fill:#000000" />
    <path
       d="m 277.17595,271.14938 c -0.50667,-0.50667 -29.74359,30.72484 -64.99532,69.39716 l 388.90873,388.90873 c 35.25173,-38.67232 64.48865,-69.90383 64.99532,-69.39716 z"
       inkscape:connector-curvature="0"
       id="path3608"
       style="fill:#000000" />
    <path
       d="m 212.18063,340.54654 c -35.2542,38.67641 -74.55105,81.72908 -87.29642,95.65927 l 388.90873,388.90873 c 12.74537,-13.93019 52.04222,-56.98286 87.29642,-95.65927 z"
       inkscape:connector-curvature="0"
       id="path3610"
       style="fill:#000000" />
    <path
       d="m 124.88421,436.20581 -23.13233,25.33307 388.90873,388.90873 23.13233,-25.33307 z"
       inkscape:connector-curvature="0"
       id="path3612"
       style="fill:#000000" />
    <path
       d="m 101.75188,461.53888 11.24827,-6.06429 388.90873,388.90873 -11.24827,6.06429 z"
       inkscape:connector-curvature="0"
       id="path3614"
       style="fill:#000000" />
    <path
       d="m 113.00015,455.47459 c 6.20515,-3.32851 15.1046,-8.20488 19.75785,-10.80812 L 521.66673,833.5752 c -4.65325,2.60324 -13.5527,7.47961 -19.75785,10.80812 z"
       inkscape:connector-curvature="0"
       id="path3616"
       style="fill:#000000" />
    <path
       d="m 132.758,444.66647 c 4.64677,-2.60326 51.84912,-28.44196 104.90242,-57.46403 l 388.90873,388.90873 c -53.0533,29.02207 -100.25565,54.86077 -104.90242,57.46403 z"
       inkscape:connector-curvature="0"
       id="path3618"
       style="fill:#000000" />
    <path
       d="m 237.66042,387.20244 c 53.05074,-29.01951 96.56046,-52.86973 96.68629,-52.96472 l 388.90873,388.90873 c -0.12583,0.095 -43.63555,23.94521 -96.68629,52.96472 z"
       inkscape:connector-curvature="0"
       id="path3620"
       style="fill:#000000" />
    <path
       d="m 334.34671,334.23772 c 0.17588,-0.12833 -52.7433,-58.52864 -57.1706,-63.08818 l 388.90873,388.90873 c 4.4273,4.55954 57.34648,62.95985 57.1706,63.08818 z"
       inkscape:connector-curvature="0"
       id="path3622"
       style="fill:#000000" />
  </g>
  <path
     d="m 67.71361,41.000002 -3.81464,2.20075 c -2.28359,1.32857 -4.92976,4.4797 -6.65116,7.82489 l -2.88542,5.57523 0,200.268248 0,200.26826 2.49418,4.69494 c 1.37863,2.57756 3.89367,5.76787 5.57524,7.0913 1.68285,1.32344 3.75246,2.23247 4.59713,2.05403 0.84721,-0.17969 45.40663,-48.48331 99.03374,-107.34769 96.55239,-105.98079 97.48951,-107.05163 95.56146,-109.49955 -1.06798,-1.35423 -43.05685,-47.55603 -93.3118,-102.70167 C 118.05996,96.283076 74.84467,48.876832 72.31073,46.086182 l -4.59712,-5.08618 z m 35.2609,11.39499 4.98838,5.57524 c 2.76114,3.07048 41.54033,45.787518 86.17158,94.925688 l 0.0488,0 c 44.63128,49.15098 81.56686,89.23929 82.11245,89.05702 2.1745,-0.72397 57.24698,-62.24085 56.43701,-63.03927 C 331.8855,178.09214 116.5593,59.367312 107.42483,54.693552 l -4.45042,-2.29856 z m 247.95118,135.761828 -20.24691,22.20313 c -11.13182,12.23189 -25.21362,27.64105 -31.25065,34.23388 l -10.95484,11.98186 31.15284,34.08718 c 20.51018,22.42665 31.66137,33.80812 32.71782,33.40249 3.95362,-1.50957 92.84804,-50.93152 97.12643,-53.99174 6.26425,-4.48121 8.16723,-7.5771 8.16723,-13.25341 0,-9.4913 -1.28866,-10.42907 -60.34945,-42.84126 -21.71683,-11.91741 -41.04185,-22.6205 -42.93909,-23.7681 l -3.42338,-2.05403 z m -73.74958,82.99272 c -0.50063,-0.51345 -29.74001,30.72058 -64.99548,69.397 -35.2542,38.67641 -74.55105,81.72908 -87.29642,95.65927 l -23.13233,25.33307 11.24827,-6.06429 c 6.20515,-3.32851 15.1046,-8.20488 19.75785,-10.80812 4.64677,-2.60326 51.84912,-28.44196 104.90242,-57.46403 53.05074,-29.01951 96.56046,-52.86973 96.68629,-52.96472 0.17588,-0.12833 -52.7433,-58.52864 -57.1706,-63.08818 z"
     inkscape:connector-curvature="0"
     id="path3092"
     style="fill:#666666" />
</svg>
