<?xml version="1.0" encoding="UTF-8" standalone="no"?>
<!-- Created with Inkscape (http://www.inkscape.org/) -->

<svg
   xmlns:dc="http://purl.org/dc/elements/1.1/"
   xmlns:cc="http://creativecommons.org/ns#"
   xmlns:rdf="http://www.w3.org/1999/02/22-rdf-syntax-ns#"
   xmlns:svg="http://www.w3.org/2000/svg"
   xmlns="http://www.w3.org/2000/svg"
   xmlns:inkscape="http://www.inkscape.org/namespaces/inkscape"
   version="1.1"
   width="100%"
   height="100%"
   viewBox="0 0 512 512"
   id="svg2">
  <metadata
     id="metadata10">
    <rdf:RDF>
      <cc:Work
         rdf:about="">
        <dc:format>image/svg+xml</dc:format>
        <dc:type
           rdf:resource="http://purl.org/dc/dcmitype/StillImage" />
        <dc:title />
      </cc:Work>
    </rdf:RDF>
  </metadata>
  <defs
     id="defs8">
    <clipPath
       id="clipPath3804">
      <path
         d="M 26,0 C 11.602648,0 0,11.602648 0,26 l 0,460 c 0,14.39735 11.602648,26 26,26 l 460,0 c 14.39735,0 26,-11.60265 26,-26 L 512,26 C 512,11.602648 500.39735,0 486,0 L 26,0 z"
         inkscape:connector-curvature="0"
         id="path3806"
         style="fill:none;fill-opacity:1;stroke:none" />
    </clipPath>
  </defs>
  <path
     d="M 26,0 C 11.602648,0 0,11.602648 0,26 l 0,460 c 0,14.39735 11.602648,26 26,26 l 460,0 c 14.39735,0 26,-11.60265 26,-26 L 512,26 C 512,11.602648 500.39735,0 486,0 L 26,0 z"
     inkscape:connector-curvature="0"
     id="rect2986"
     style="fill:none;fill-opacity:1;stroke:none" />
  <g
     clip-path="url(#clipPath3804)"
     id="g3434"
     style="opacity:0.0;fill:#000000">
    <path
       d="m 157.60717,189.27465 -116.60717,0 388.90873,388.90873 116.60717,0 z"
       inkscape:connector-curvature="0"
       id="path3436"
       style="fill:#000000" />
    <path
       d="m 41,189.27465 0,-14.82714 388.90873,388.90873 0,14.82714 z"
       inkscape:connector-curvature="0"
       id="path3438"
       style="fill:#000000" />
    <path
       d="m 41,174.44751 c 0,142.98335 0,232.29019 0,232.29019 l 388.90873,388.90873 c 0,0 0,-89.30684 0,-232.29019 z"
       inkscape:connector-curvature="0"
       id="path3440"
       style="fill:#000000" />
    <path
       d="m 41,406.7377 c 0,21.41757 7.139189,35.69594 16.658106,45.21486 L 446.56684,840.86129 c -9.51892,-9.51892 -16.65811,-23.79729 -16.65811,-45.21486 z"
       inkscape:connector-curvature="0"
       id="path3442"
       style="fill:#000000" />
    <path
       d="m 57.658106,451.95256 c 19.037828,19.03783 47.594564,19.03783 47.594564,19.03783 L 494.1614,859.89912 c 0,0 -28.55674,0 -47.59456,-19.03783 z"
       inkscape:connector-curvature="0"
       id="path3444"
       style="fill:#000000" />
    <path
       d="m 105.25267,470.99039 301.4844,0 388.90873,388.90873 -301.4844,0 z"
       inkscape:connector-curvature="0"
       id="path3446"
       style="fill:#000000" />
    <path
       d="m 406.73707,470.99039 c 0,0 64.25267,0 64.25267,-64.25269 l 388.90873,388.90873 c 0,64.25269 -64.25267,64.25269 -64.25267,64.25269 z"
       inkscape:connector-curvature="0"
       id="path3448"
       style="fill:#000000" />
    <path
       d="m 470.98974,406.7377 0,-217.46562 388.90873,388.90873 0,217.46562 z"
       inkscape:connector-curvature="0"
       id="path3450"
       style="fill:#000000" />
    <path
       d="m 470.98974,189.27208 0,-14.82714 388.90873,388.90873 0,14.82714 z"
       inkscape:connector-curvature="0"
       id="path3452"
       style="fill:#000000" />
    <path
       d="m 470.98974,174.44494 -126.01532,0 388.90873,388.90873 126.01532,0 z"
       inkscape:connector-curvature="0"
       id="path3454"
       style="fill:#000000" />
    <path
       d="m 344.97442,174.44494 c -3.16287,-4.21022 -6.61774,-8.18879 -10.33457,-11.90562 l 388.90873,388.90873 c 3.71683,3.71683 7.1717,7.6954 10.33457,11.90562 z"
       inkscape:connector-curvature="0"
       id="path3456"
       style="fill:#000000" />
    <path
       d="M 334.63985,162.53932 C 314.51623,142.4157 286.71373,129.96479 256.00129,129.96479 l 388.90873,388.90873 c 30.71244,0 58.51494,12.45091 78.63856,32.57453 z"
       inkscape:connector-curvature="0"
       id="path3458"
       style="fill:#000000" />
    <path
       d="m 256.00129,129.96479 c -36.38118,0 -68.6808,17.47118 -88.97314,44.48015 l 388.90873,388.90873 c 20.29234,-27.00897 52.59196,-44.48015 88.97314,-44.48015 z"
       inkscape:connector-curvature="0"
       id="path3460"
       style="fill:#000000" />
    <path
       d="m 167.02815,174.44494 -126.01532,0 388.90873,388.90873 126.01532,0 z"
       inkscape:connector-curvature="0"
       id="path3462"
       style="fill:#000000" />
    <path
       d="m 41.01283,174.44494 c 0,-21.85825 0,-44.96148 0,-69.19164 l 388.90873,388.90873 c 0,24.23016 0,47.33339 0,69.19164 z"
       inkscape:connector-curvature="0"
       id="path3464"
       style="fill:#000000" />
    <path
       d="m 41.01283,105.2533 c 0,-40.55517 25.59967,-55.51195 44.48014,-61.02721 L 474.4017,433.13482 c -18.88047,5.51526 -44.48014,20.47204 -44.48014,61.02721 z"
       inkscape:connector-curvature="0"
       id="path3466"
       style="fill:#000000" />
    <path
       d="m 85.49297,44.22609 0,85.7387 388.90873,388.90873 0,-85.7387 z"
       inkscape:connector-curvature="0"
       id="path3468"
       style="fill:#000000" />
    <path
       d="m 85.49297,129.96479 14.82715,0 388.90873,388.90873 -14.82715,0 z"
       inkscape:connector-curvature="0"
       id="path3470"
       style="fill:#000000" />
    <path
       d="m 100.32012,129.96479 0,-88.63945 388.90873,388.90873 0,88.63945 z"
       inkscape:connector-curvature="0"
       id="path3472"
       style="fill:#000000" />
    <path
       d="m 100.32012,41.32534 c 3.08428,-0.31573 4.94281,-0.31573 4.94281,-0.31573 l 388.90873,388.90873 c 0,0 -1.85853,0 -4.94281,0.31573 z"
       inkscape:connector-curvature="0"
       id="path3474"
       style="fill:#000000" />
    <path
       d="m 105.26293,41.00961 301.4844,0 388.90873,388.90873 -301.4844,0 z"
       inkscape:connector-curvature="0"
       id="path3476"
       style="fill:#000000" />
    <path
       d="m 406.74733,41.00961 c 0,0 28.55674,0 47.59457,19.037828 L 843.25063,448.95617 C 824.2128,429.91834 795.65606,429.91834 795.65606,429.91834 z"
       inkscape:connector-curvature="0"
       id="path3478"
       style="fill:#000000" />
    <path
       d="M 454.3419,60.047438 C 463.86081,69.566352 471,83.844723 471,105.26228 l 388.90873,388.90873 c 0,-21.41756 -7.13919,-35.69593 -16.6581,-45.21484 z"
       inkscape:connector-curvature="0"
       id="path3480"
       style="fill:#000000" />
    <path
       d="m 471,105.26228 0,84.01878 388.90873,388.90873 0,-84.01878 z"
       inkscape:connector-curvature="0"
       id="path3482"
       style="fill:#000000" />
    <path
       d="m 471,189.28106 -116.60717,0 388.90873,388.90873 116.60717,0 z"
       inkscape:connector-curvature="0"
       id="path3484"
       style="fill:#000000" />
    <path
       d="m 354.39283,189.28106 c 8.18881,15.492 12.82614,33.15186 12.82614,51.89244 L 756.1277,630.08223 c 0,-18.74058 -4.63733,-36.40044 -12.82614,-51.89244 z"
       inkscape:connector-curvature="0"
       id="path3486"
       style="fill:#000000" />
    <path
       d="m 367.21897,241.1735 c 0,61.41481 -49.78618,111.20358 -111.20358,111.20358 l 388.90873,388.90873 c 61.4174,0 111.20358,-49.78877 111.20358,-111.20358 z"
       inkscape:connector-curvature="0"
       id="path3488"
       style="fill:#000000" />
    <path
       d="m 256.01539,352.37708 c -30.70772,0 -58.50886,-12.44681 -78.63295,-32.5709 l 388.90873,388.90873 c 20.12408,20.12409 47.92523,32.5709 78.63295,32.5709 z"
       inkscape:connector-curvature="0"
       id="path3490"
       style="fill:#000000" />
    <path
       d="M 177.38244,319.80618 C 157.25876,299.68251 144.81183,271.88187 144.81183,241.1735 l 388.90873,388.90873 c 0,30.70837 12.44693,58.50901 32.57061,78.63268 z"
       inkscape:connector-curvature="0"
       id="path3492"
       style="fill:#000000" />
    <path
       d="m 144.81183,241.1735 c 0,-18.74186 4.63732,-36.40171 12.82614,-51.89244 L 546.5467,578.18979 c -8.18882,15.49073 -12.82614,33.15058 -12.82614,51.89244 z"
       inkscape:connector-curvature="0"
       id="path3494"
       style="fill:#000000" />
    <path
       d="m 392.93161,70.6716 c -14.2085,0 -25.72162,11.577278 -25.72162,25.721595 L 756.11872,485.30192 c 0,-14.14431 11.51312,-25.72159 25.72162,-25.72159 z"
       inkscape:connector-curvature="0"
       id="path3496"
       style="fill:#000000" />
    <path
       d="m 367.20999,96.393195 0,22.692525 388.90873,388.90873 0,-22.69253 z"
       inkscape:connector-curvature="0"
       id="path3498"
       style="fill:#000000" />
    <path
       d="m 367.20999,119.08572 c 0,7.0962 2.88777,13.52008 7.54086,18.17317 l 388.90873,388.90873 c -4.65309,-4.65309 -7.54086,-11.07697 -7.54086,-18.17317 z"
       inkscape:connector-curvature="0"
       id="path3500"
       style="fill:#000000" />
    <path
       d="m 374.75085,137.25889 c 4.66363,4.66363 11.10059,7.54843 18.18076,7.54843 l 388.90873,388.90873 c -7.08017,0 -13.51713,-2.8848 -18.18076,-7.54843 z"
       inkscape:connector-curvature="0"
       id="path3502"
       style="fill:#000000" />
    <path
       d="m 392.93161,144.80732 22.69251,0 388.90873,388.90873 -22.69251,0 z"
       inkscape:connector-curvature="0"
       id="path3504"
       style="fill:#000000" />
    <path
       d="m 415.62412,144.80732 c 14.20848,0 25.7216,-11.57728 25.7216,-25.7216 l 388.90873,388.90873 c 0,14.14432 -11.51312,25.7216 -25.7216,25.7216 z"
       inkscape:connector-curvature="0"
       id="path3506"
       style="fill:#000000" />
    <path
       d="m 441.34572,119.08572 0,-22.692525 388.90873,388.908725 0,22.69253 z"
       inkscape:connector-curvature="0"
       id="path3508"
       style="fill:#000000" />
    <path
       d="m 441.34572,96.393195 c 0,-7.096205 -2.88777,-13.520086 -7.54086,-18.173169 L 822.71359,467.12876 c 4.65309,4.65308 7.54086,11.07696 7.54086,18.17316 z"
       inkscape:connector-curvature="0"
       id="path3510"
       style="fill:#000000" />
    <path
       d="M 433.80486,78.220026 C 429.14123,73.556396 422.70428,70.6716 415.62412,70.6716 l 388.90873,388.90873 c 7.08016,0 13.51711,2.8848 18.18074,7.54843 z"
       inkscape:connector-curvature="0"
       id="path3512"
       style="fill:#000000" />
    <path
       d="m 415.62412,70.6716 -22.69251,0 388.90873,388.90873 22.69251,0 z"
       inkscape:connector-curvature="0"
       id="path3514"
       style="fill:#000000" />
    <path
       d="m 144.81568,41.02243 0,88.96032 388.90873,388.90873 0,-88.96032 z"
       inkscape:connector-curvature="0"
       id="path3516"
       style="fill:#000000" />
    <path
       d="m 144.81568,129.98275 14.82714,0 388.90873,388.90873 -14.82714,0 z"
       inkscape:connector-curvature="0"
       id="path3518"
       style="fill:#000000" />
    <path
       d="m 159.64282,129.98275 0,-88.96032 388.90873,388.90873 0,88.96032 z"
       inkscape:connector-curvature="0"
       id="path3520"
       style="fill:#000000" />
    <path
       d="m 159.64282,41.02243 -14.82714,0 388.90873,388.90873 14.82714,0 z"
       inkscape:connector-curvature="0"
       id="path3522"
       style="fill:#000000" />
    <path
       d="m 115.16653,41.02243 0,88.96032 388.90873,388.90873 0,-88.96032 z"
       inkscape:connector-curvature="0"
       id="path3524"
       style="fill:#000000" />
    <path
       d="m 115.16653,129.98275 14.82714,0 388.90873,388.90873 -14.82714,0 z"
       inkscape:connector-curvature="0"
       id="path3526"
       style="fill:#000000" />
    <path
       d="m 129.99367,129.98275 0,-88.96032 388.90873,388.90873 0,88.96032 z"
       inkscape:connector-curvature="0"
       id="path3528"
       style="fill:#000000" />
    <path
       d="m 129.99367,41.02243 -14.82714,0 388.90873,388.90873 14.82714,0 z"
       inkscape:connector-curvature="0"
       id="path3530"
       style="fill:#000000" />
    <path
       d="m 256.01926,330.14663 c 49.13289,0 88.96029,-39.82741 88.96029,-88.9603 l 388.90873,388.90873 c 0,49.13289 -39.8274,88.9603 -88.96029,88.9603 z"
       inkscape:connector-curvature="0"
       id="path3532"
       style="fill:#000000" />
    <path
       d="m 344.97955,241.18633 c 0,-24.56644 -9.95685,-46.80651 -26.05531,-62.90497 l 388.90873,388.90873 c 16.09846,16.09846 26.05531,38.33853 26.05531,62.90497 z"
       inkscape:connector-curvature="0"
       id="path3534"
       style="fill:#000000" />
    <path
       d="M 318.92424,178.28136 C 302.82578,162.1829 280.58571,152.22605 256.01926,152.22605 l 388.90873,388.90873 c 24.56645,0 46.80652,9.95685 62.90498,26.05531 z"
       inkscape:connector-curvature="0"
       id="path3536"
       style="fill:#000000" />
    <path
       d="m 256.01926,152.22605 c -49.1329,0 -88.9603,39.8274 -88.9603,88.96028 l 388.90873,388.90873 c 0,-49.13288 39.8274,-88.96028 88.9603,-88.96028 z"
       inkscape:connector-curvature="0"
       id="path3538"
       style="fill:#000000" />
    <path
       d="m 167.05896,241.18633 c 0,24.56645 9.95685,46.80652 26.05531,62.90499 L 582.023,693.00005 c -16.09846,-16.09847 -26.05531,-38.33854 -26.05531,-62.90499 z"
       inkscape:connector-curvature="0"
       id="path3540"
       style="fill:#000000" />
    <path
       d="m 193.11427,304.09132 c 16.09847,16.09846 38.33854,26.05531 62.90499,26.05531 l 388.90873,388.90873 c -24.56645,0 -46.80652,-9.95685 -62.90499,-26.05531 z"
       inkscape:connector-curvature="0"
       id="path3542"
       style="fill:#000000" />
    <path
       d="m 256.01926,300.49748 c 32.75396,0 59.31113,-26.55333 59.31113,-59.31115 l 388.90873,388.90873 c 0,32.75782 -26.55717,59.31115 -59.31113,59.31115 z"
       inkscape:connector-curvature="0"
       id="path3544"
       style="fill:#000000" />
    <path
       d="m 315.33039,241.18633 c 0,-16.37747 -6.63872,-31.20566 -17.37234,-41.93927 l 388.90873,388.90873 c 10.73362,10.73361 17.37234,25.56179 17.37234,41.93927 z"
       inkscape:connector-curvature="0"
       id="path3546"
       style="fill:#000000" />
    <path
       d="m 297.95805,199.24706 c -10.73298,-10.73298 -25.56037,-17.37188 -41.93879,-17.37188 l 388.90873,388.90873 c 16.37842,0 31.20581,6.6389 41.93879,17.37188 z"
       inkscape:connector-curvature="0"
       id="path3548"
       style="fill:#000000" />
    <path
       d="m 256.01926,181.87518 c -32.75399,0 -59.31114,26.55334 -59.31114,59.31115 l 388.90873,388.90873 c 0,-32.75781 26.55715,-59.31115 59.31114,-59.31115 z"
       inkscape:connector-curvature="0"
       id="path3550"
       style="fill:#000000" />
    <path
       d="m 196.70812,241.18633 c 0,16.37747 6.63872,31.20565 17.37233,41.93927 l 388.90873,388.90873 c -10.73361,-10.73362 -17.37233,-25.5618 -17.37233,-41.93927 z"
       inkscape:connector-curvature="0"
       id="path3552"
       style="fill:#000000" />
    <path
       d="m 214.08045,283.1256 c 10.73299,10.73298 25.56038,17.37188 41.93881,17.37188 l 388.90873,388.90873 c -16.37843,0 -31.20582,-6.6389 -41.93881,-17.37188 z"
       inkscape:connector-curvature="0"
       id="path3554"
       style="fill:#000000" />
  </g>
  <path
     d="M 157.60717,189.27465 H 41 v -14.82714 c 0,142.98335 0,232.29019 0,232.29019 0,64.25269 64.25267,64.25269 64.25267,64.25269 h 301.4844 c 0,0 64.25267,0 64.25267,-64.25269 V 189.27208 174.44494 H 344.97442 c -20.28722,-27.00513 -52.58811,-44.48015 -88.97313,-44.48015 -36.38118,0 -68.6808,17.47118 -88.97314,44.48015 H 41.01283 c 0,-21.85825 0,-44.96148 0,-69.19164 0,-40.55517 25.59967,-55.51195 44.48014,-61.02721 v 85.7387 h 14.82715 V 41.32534 c 3.08428,-0.31573 4.94281,-0.31573 4.94281,-0.31573 h 301.4844 c 0,0 64.25267,0 64.25267,64.25267 v 84.01878 H 354.39283 c 8.18881,15.492 12.82614,33.15186 12.82614,51.89244 0,61.41481 -49.78618,111.20358 -111.20358,111.20358 -61.4148,0 -111.20356,-49.7862 -111.20356,-111.20358 0,-18.74186 4.63732,-36.40171 12.82614,-51.89244 M 392.93161,70.6716 c -14.2085,0 -25.72162,11.577278 -25.72162,25.721595 v 22.692525 c 0,14.2085 11.5773,25.7216 25.72162,25.7216 h 22.69251 c 14.20848,0 25.7216,-11.57728 25.7216,-25.7216 V 96.393195 C 441.34572,82.1847 429.76843,70.6716 415.62412,70.6716 H 392.93161 M 144.81568,41.02243 v 88.96032 h 14.82714 V 41.02243 h -14.82714 m -29.64915,0 v 88.96032 h 14.82714 V 41.02243 h -14.82714 m 140.85273,289.1242 c 49.13289,0 88.96029,-39.82741 88.96029,-88.9603 0,-49.13288 -39.8274,-88.96028 -88.96029,-88.96028 -49.1329,0 -88.9603,39.8274 -88.9603,88.96028 0,49.13289 39.8274,88.9603 88.9603,88.9603 m 0,-29.64915 c 32.75396,0 59.31113,-26.55333 59.31113,-59.31115 0,-32.75398 -26.55331,-59.31115 -59.31113,-59.31115 -32.75399,0 -59.31114,26.55334 -59.31114,59.31115 0,32.75398 26.55331,59.31115 59.31114,59.31115"
     inkscape:connector-curvature="0"
     id="path3050"
     style="fill:#666666" />
</svg>
