<?xml version="1.0" encoding="UTF-8" standalone="no"?>
<!-- Created with Inkscape (http://www.inkscape.org/) -->

<svg
   xmlns:dc="http://purl.org/dc/elements/1.1/"
   xmlns:cc="http://creativecommons.org/ns#"
   xmlns:rdf="http://www.w3.org/1999/02/22-rdf-syntax-ns#"
   xmlns:svg="http://www.w3.org/2000/svg"
   xmlns="http://www.w3.org/2000/svg"
   xmlns:inkscape="http://www.inkscape.org/namespaces/inkscape"
   version="1.1"
   width="100%"
   height="100%"
   viewBox="0 0 512 512"
   id="svg2">
  <metadata
     id="metadata171">
    <rdf:RDF>
      <cc:Work
         rdf:about="">
        <dc:format>image/svg+xml</dc:format>
        <dc:type
           rdf:resource="http://purl.org/dc/dcmitype/StillImage" />
      </cc:Work>
    </rdf:RDF>
  </metadata>
  <defs
     id="defs4">
    <clipPath
       id="0">
      <path
         d="M 26,0 C 11.603,0 0,11.603 0,26 v 460 c 0,14.397 11.603,26 26,26 h 460 c 14.397,0 26,-11.603 26,-26 V 26 C 512,11.603 500.397,0 486,0 H 26"
         inkscape:connector-curvature="0"
         id="path7" />
    </clipPath>
  </defs>
  <path
     d="M 26,0 C 11.603,0 0,11.603 0,26 v 460 c 0,14.397 11.603,26 26,26 h 460 c 14.397,0 26,-11.603 26,-26 V 26 C 512,11.603 500.397,0 486,0 H 26"
     inkscape:connector-curvature="0"
     id="path9"
     style="fill:none" />
  <g
     clip-path="url(#0)"
     id="g57"
     style="opacity:0.0;color:#000000">
    <path
       d="m 256,41 c -12.214,0 -24.22,1.063 -35.876,3.02 l 353.55,353.55 c 11.66,-1.961 23.662,-3.02 35.876,-3.02 z"
       inkscape:connector-curvature="0"
       id="path59" />
    <path
       d="m 220.12,44.02 c -0.219,0.037 -0.453,0.03 -0.671,0.067 l 353.55,353.55 c 0.219,-0.038 0.453,-0.03 0.671,-0.067 z"
       inkscape:connector-curvature="0"
       id="path61" />
    <path
       d="m 219.45,44.09 c -15.902,1.852 -32.57,6.402 -49.52,14.848 l 353.55,353.55 c 16.946,-8.446 33.614,-12.996 49.52,-14.848 z"
       inkscape:connector-curvature="0"
       id="path63" />
    <path
       d="M 169.93,58.939 C 94.057,92.159 41,167.929 41,255.999 l 353.55,353.55 c 0,-88.07 53.06,-163.85 128.93,-197.06 z"
       inkscape:connector-curvature="0"
       id="path65" />
    <path
       d="m 41,256 c 0,59.33 24.08,113.08 63,152 l 353.55,353.55 c -38.917,-38.917 -63,-92.67 -63,-152 z"
       inkscape:connector-curvature="0"
       id="path67" />
    <path
       d="m 104,408 c 38.917,38.917 92.67,63 152,63 l 353.55,353.55 c -59.33,0 -113.08,-24.08 -152,-63 z"
       inkscape:connector-curvature="0"
       id="path69" />
    <path
       d="m 256,471 c 118.66,0 215,-96.33 215,-215 l 353.55,353.55 c 0,118.66 -96.34,215 -215,215 z"
       inkscape:connector-curvature="0"
       id="path71" />
    <path
       d="m 471,256 c 0,-59.33 -24.08,-113.08 -63,-152 l 353.55,353.55 c 38.917,38.917 63,92.67 63,152 z"
       inkscape:connector-curvature="0"
       id="path73" />
    <path
       d="M 408,104 C 369.083,65.083 315.33,41 256,41 l 353.55,353.55 c 59.33,0 113.08,24.08 152,63 z"
       inkscape:connector-curvature="0"
       id="path75" />
    <path
       d="m 190.76,96.3 c 0,0 -6.413,19.347 6.585,45.15 L 550.895,495 c -12.998,-25.801 -6.585,-45.15 -6.585,-45.15 z"
       inkscape:connector-curvature="0"
       id="path77" />
    <path
       d="m 197.35,141.44 c 12.998,25.801 32.422,32.21 19.619,71.02 l 353.55,353.55 c 12.803,-38.802 -6.621,-45.22 -19.619,-71.02 z"
       inkscape:connector-curvature="0"
       id="path79" />
    <path
       d="m 216.97,212.46 -12.833,38.833 353.55,353.55 12.833,-38.833 z"
       inkscape:connector-curvature="0"
       id="path81" />
    <path
       d="m 204.13,251.29 c 0,0 32.23,-32.4 38.632,-51.798 l 353.55,353.55 C 589.91,572.441 557.68,604.84 557.68,604.84 z"
       inkscape:connector-curvature="0"
       id="path83" />
    <path
       d="m 242.77,199.49 c 6.402,-19.399 -0.201,-64.63 -0.201,-64.63 l 353.55,353.55 c 0,0 6.604,45.23 0.201,64.63 z"
       inkscape:connector-curvature="0"
       id="path85" />
    <path
       d="m 242.56,134.86 c 0,0 13.14,9.815 25.363,22.04 l 353.55,353.55 C 609.253,498.23 596.11,488.41 596.11,488.41 z"
       inkscape:connector-curvature="0"
       id="path87" />
    <path
       d="m 267.93,156.9 c 12.03,12.03 23.16,26.387 19.988,36.01 l 353.55,353.55 c 3.175,-9.62 -7.959,-23.979 -19.988,-36.01 z"
       inkscape:connector-curvature="0"
       id="path89" />
    <path
       d="m 287.92,192.91 -6.382,19.349 353.55,353.55 6.382,-19.349 z"
       inkscape:connector-curvature="0"
       id="path91" />
    <path
       d="m 281.53,212.25 c 0,0 25.781,-12.986 32.18,-32.384 l 353.55,353.55 c -6.401,19.399 -32.18,32.384 -32.18,32.384 z"
       inkscape:connector-curvature="0"
       id="path93" />
    <path
       d="m 313.72,179.87 c 1.491,-4.519 2.996,-5.531 4.346,-4.181 l 353.55,353.55 c -1.35,-1.35 -2.855,-0.337 -4.346,4.181 z"
       inkscape:connector-curvature="0"
       id="path95" />
    <path
       d="m 318.06,175.69 c 4.446,4.446 7.216,34.516 2.306,49.4 l 353.55,353.55 c 4.91,-14.88 2.14,-44.95 -2.306,-49.4 z"
       inkscape:connector-curvature="0"
       id="path97" />
    <path
       d="m 320.37,225.09 c -2.133,6.467 -2.853,8.614 -2.858,8.608 l 353.55,353.55 c 0.005,0.005 0.725,-2.141 2.858,-8.608 z"
       inkscape:connector-curvature="0"
       id="path99" />
    <path
       d="m 317.51,233.69 c -0.003,-0.003 0.173,-0.544 0.44,-1.352 l 353.55,353.55 c -0.267,0.808 -0.443,1.349 -0.44,1.352 z"
       inkscape:connector-curvature="0"
       id="path101" />
    <path
       d="m 317.95,232.34 -4.03,12.161 353.55,353.55 4.03,-12.161 z"
       inkscape:connector-curvature="0"
       id="path103" />
    <path
       d="m 313.92,244.5 c 0,0 25.848,-13.05 32.25,-32.451 l 353.55,353.55 c -6.401,19.399 -32.25,32.451 -32.25,32.451 z"
       inkscape:connector-curvature="0"
       id="path105" />
    <path
       d="m 346.17,212.05 c 6.402,-19.402 12.765,-38.766 12.765,-38.766 l 353.55,353.55 c 0,0 -6.363,19.364 -12.765,38.766 z"
       inkscape:connector-curvature="0"
       id="path107" />
    <path
       d="m 358.93,173.29 c 0,0 12.986,25.816 6.585,45.22 l 353.55,353.55 c 6.401,-19.399 -6.585,-45.22 -6.585,-45.22 z"
       inkscape:connector-curvature="0"
       id="path109" />
    <path
       d="m 365.52,218.5 c -1.485,4.499 -1.238,7.253 0.098,8.589 l 353.55,353.55 c -1.335,-1.335 -1.582,-4.09 -0.098,-8.589 z"
       inkscape:connector-curvature="0"
       id="path111" />
    <path
       d="m 365.61,227.09 c 4.423,4.423 20.784,-6.724 25.702,-21.623 l 353.55,353.55 c -4.918,14.899 -21.279,26.05 -25.702,21.623 z"
       inkscape:connector-curvature="0"
       id="path113" />
    <path
       d="m 391.32,205.47 c 6.402,-19.399 12.833,-38.766 12.833,-38.766 l 353.55,353.55 c 0,0 -6.43,19.367 -12.833,38.766 z"
       inkscape:connector-curvature="0"
       id="path115" />
    <path
       d="m 404.15,166.7 c 0,0 1.024,1.057 2.418,2.552 l 353.55,353.55 c -1.394,-1.496 -2.418,-2.552 -2.418,-2.552 z"
       inkscape:connector-curvature="0"
       id="path117" />
    <path
       d="m 406.57,169.25 c 15.24,25.759 24.12,55.39 24.12,86.53 l 353.55,353.55 c 0,-31.14 -8.88,-60.775 -24.12,-86.53 z"
       inkscape:connector-curvature="0"
       id="path119" />
    <path
       d="m 430.69,255.79 c 0,94.06 -80.62,174.68 -174.68,174.68 l 353.55,353.55 c 94.05,0 174.68,-80.62 174.68,-174.68 z"
       inkscape:connector-curvature="0"
       id="path121" />
    <path
       d="m 256.01,430.46 c -47.03,0 -90.7,-20.16 -122.61,-52.07 l 353.55,353.55 c 31.911,31.911 75.58,52.07 122.61,52.07 z"
       inkscape:connector-curvature="0"
       id="path123" />
    <path
       d="M 133.4,378.4 C 101.488,346.488 81.33,302.82 81.33,255.79 l 353.55,353.55 c 0,47.03 20.15,90.7 52.07,122.61 z"
       inkscape:connector-curvature="0"
       id="path125" />
    <path
       d="m 81.34,255.79 c 0,-0.61 -0.006,-1.205 0,-1.814 l 353.55,353.55 c -0.006,0.609 0,1.204 0,1.814 z"
       inkscape:connector-curvature="0"
       id="path127" />
    <path
       d="m 81.34,253.97 c 15.959,-27.916 18.624,-63.821 19.08,-75.65 l 353.55,353.55 c -0.456,11.832 -3.121,47.736 -19.08,75.65 z"
       inkscape:connector-curvature="0"
       id="path129" />
    <path
       d="m 100.42,178.32 c 0.49,-0.951 1.038,-1.881 1.546,-2.823 l 353.55,353.55 c -0.507,0.941 -1.055,1.872 -1.546,2.823 z"
       inkscape:connector-curvature="0"
       id="path131" />
    <path
       d="m 101.96,175.5 c 6.113,6.429 30.19,33.15 24.589,50.13 l 353.55,353.55 C 485.7,562.198 461.623,535.481 455.51,529.05 z"
       inkscape:connector-curvature="0"
       id="path133" />
    <path
       d="m 126.55,225.63 -6.382,19.417 353.55,353.55 6.382,-19.417 z"
       inkscape:connector-curvature="0"
       id="path135" />
    <path
       d="m 120.17,245.04 c 0,0 25.781,-12.984 32.18,-32.384 l 353.55,353.55 c -6.401,19.4 -32.18,32.384 -32.18,32.384 z"
       inkscape:connector-curvature="0"
       id="path137" />
    <path
       d="m 152.35,212.66 c 6.402,-19.399 -6.604,-45.17 -0.201,-64.57 l 353.55,353.55 c -6.402,19.402 6.604,45.17 0.201,64.57 z"
       inkscape:connector-curvature="0"
       id="path139" />
    <path
       d="m 152.15,148.09 c 6.402,-19.399 38.632,-51.798 38.632,-51.798 l 353.55,353.55 c 0,0 -32.23,32.4 -38.632,51.798 z"
       inkscape:connector-curvature="0"
       id="path141" />
    <path
       d="m 256.02,222.4 c -18.507,0 -33.592,15.09 -33.592,33.592 l 353.55,353.55 c 0,-18.507 15.09,-33.592 33.592,-33.592 z"
       inkscape:connector-curvature="0"
       id="path143" />
    <path
       d="m 222.42,255.99 c 0,9.254 3.771,17.652 9.856,23.736 l 353.55,353.55 c -6.084,-6.084 -9.856,-14.482 -9.856,-23.736 z"
       inkscape:connector-curvature="0"
       id="path145" />
    <path
       d="m 232.28,279.73 c 6.085,6.085 14.483,9.856 23.737,9.856 l 353.55,353.55 c -9.253,0 -17.652,-3.771 -23.737,-9.856 z"
       inkscape:connector-curvature="0"
       id="path147" />
    <path
       d="m 256.02,289.59 c 18.506,0 33.592,-15.09 33.592,-33.592 l 353.55,353.55 c 0,18.507 -15.09,33.592 -33.592,33.592 z"
       inkscape:connector-curvature="0"
       id="path149" />
    <path
       d="m 289.61,255.99 c 0,-9.253 -3.772,-17.651 -9.856,-23.736 l 353.55,353.55 c 6.085,6.085 9.856,14.483 9.856,23.736 z"
       inkscape:connector-curvature="0"
       id="path151" />
    <path
       d="m 279.75,232.26 c -6.085,-6.085 -14.483,-9.856 -23.736,-9.856 l 353.55,353.55 c 9.253,0 17.651,3.771 23.736,9.856 z"
       inkscape:connector-curvature="0"
       id="path153" />
    <path
       d="m 256.02,235.84 c 5.679,0 10.718,2.199 14.337,5.818 l 353.55,353.55 c -3.619,-3.619 -8.658,-5.818 -14.337,-5.818 z"
       inkscape:connector-curvature="0"
       id="path155" />
    <path
       d="m 270.35,241.66 c 3.619,3.619 5.818,8.658 5.818,14.337 l 353.55,353.55 c 0,-5.679 -2.199,-10.718 -5.818,-14.337 z"
       inkscape:connector-curvature="0"
       id="path157" />
    <path
       d="m 276.17,255.99 c 0,11.36 -8.797,20.16 -20.16,20.16 L 609.56,629.7 c 11.359,0 20.16,-8.795 20.16,-20.16 z"
       inkscape:connector-curvature="0"
       id="path159" />
    <path
       d="m 256.02,276.15 c -5.68,0 -10.719,-2.199 -14.338,-5.818 l 353.55,353.55 c 3.619,3.619 8.658,5.818 14.338,5.818 z"
       inkscape:connector-curvature="0"
       id="path161" />
    <path
       d="m 241.68,270.33 c -3.619,-3.619 -5.818,-8.658 -5.818,-14.338 l 353.55,353.55 c 0,5.68 2.199,10.719 5.818,14.338 z"
       inkscape:connector-curvature="0"
       id="path163" />
    <path
       d="m 235.86,255.99 c 0,-11.359 8.797,-20.16 20.16,-20.16 l 353.55,353.55 c -11.359,0 -20.16,8.797 -20.16,20.16 z"
       inkscape:connector-curvature="0"
       id="path165" />
  </g>
  <path
     d="m 256,41 c -12.214,0 -24.22,1.063 -35.876,3.02 -0.219,0.037 -0.453,0.03 -0.671,0.067 -15.902,1.852 -32.57,6.402 -49.52,14.848 -75.873,33.22 -128.93,108.99 -128.93,197.06 0,118.66 96.34,215 215,215 118.66,0 215,-96.33 215,-215 0,-118.66 -96.34,-215 -215,-215 m -65.24,55.29 c 0,0 -6.413,19.347 6.585,45.15 12.998,25.801 32.422,32.21 19.619,71.02 l -12.833,38.833 c 0,0 32.23,-32.4 38.632,-51.798 6.402,-19.399 -0.201,-64.63 -0.201,-64.63 0,0 51.752,38.649 45.35,58.04 l -6.382,19.349 c 0,0 25.781,-12.986 32.18,-32.384 6.402,-19.399 13.05,25.816 6.652,45.22 -3.2,9.701 -3.219,9.681 -2.418,7.256 l -4.03,12.161 c 0,0 25.848,-13.05 32.25,-32.451 6.402,-19.402 12.765,-38.766 12.765,-38.766 0,0 12.986,25.816 6.585,45.22 -6.402,19.4 19.397,6.363 25.799,-13.03 6.402,-19.399 12.833,-38.766 12.833,-38.766 0,0 1.024,1.057 2.418,2.552 15.24,25.759 24.12,55.39 24.12,86.53 0,94.06 -80.62,174.68 -174.68,174.68 -94.06,0 -174.68,-80.62 -174.68,-174.68 0,-0.61 -0.006,-1.205 0,-1.814 15.959,-27.916 18.624,-63.821 19.08,-75.65 0.49,-0.951 1.038,-1.881 1.546,-2.823 6.113,6.429 30.19,33.15 24.589,50.13 l -6.382,19.417 c 0,0 25.781,-12.984 32.18,-32.384 6.402,-19.399 -6.604,-45.17 -0.201,-64.57 6.402,-19.399 38.632,-51.798 38.632,-51.798 m 65.24,126.11 c -18.507,0 -33.592,15.09 -33.592,33.592 0,18.509 15.09,33.592 33.592,33.592 18.506,0 33.592,-15.09 33.592,-33.592 0,-18.507 -15.09,-33.592 -33.592,-33.592 m 0,13.437 c 11.359,0 20.16,8.797 20.16,20.16 0,11.36 -8.797,20.16 -20.16,20.16 -11.359,0 -20.16,-8.795 -20.16,-20.16 0,-11.359 8.797,-20.16 20.16,-20.16"
     inkscape:connector-curvature="0"
     id="path167"
     style="color:#000000;fill:#666666" />
</svg>
