<?xml version="1.0" encoding="UTF-8" standalone="no"?>
<!-- Created with Inkscape (http://www.inkscape.org/) -->

<svg
   xmlns:dc="http://purl.org/dc/elements/1.1/"
   xmlns:cc="http://creativecommons.org/ns#"
   xmlns:rdf="http://www.w3.org/1999/02/22-rdf-syntax-ns#"
   xmlns:svg="http://www.w3.org/2000/svg"
   xmlns="http://www.w3.org/2000/svg"
   xmlns:inkscape="http://www.inkscape.org/namespaces/inkscape"
   version="1.1"
   width="100%"
   height="100%"
   viewBox="0 0 512 512"
   id="svg2">
  <metadata
     id="metadata549">
    <rdf:RDF>
      <cc:Work
         rdf:about="">
        <dc:format>image/svg+xml</dc:format>
        <dc:type
           rdf:resource="http://purl.org/dc/dcmitype/StillImage" />
      </cc:Work>
    </rdf:RDF>
  </metadata>
  <defs
     id="defs4">
    <clipPath
       id="0">
      <path
         d="M 26,0 C 11.603,0 0,11.603 0,26 v 460 c 0,14.397 11.603,26 26,26 h 460 c 14.397,0 26,-11.603 26,-26 V 26 C 512,11.603 500.397,0 486,0 H 26"
         inkscape:connector-curvature="0"
         id="path7" />
    </clipPath>
  </defs>
  <path
     d="M 26,0 C 11.603,0 0,11.603 0,26 v 460 c 0,14.397 11.603,26 26,26 h 460 c 14.397,0 26,-11.603 26,-26 V 26 C 512,11.603 500.397,0 486,0 H 26"
     inkscape:connector-curvature="0"
     id="path9"
     style="fill:none" />
  <g
     clip-path="url(#0)"
     id="g57"
     style="opacity:0.0">
    <path
       d="M 484.91,0 333.1,158.31 686.65,511.86 838.46,353.55 z"
       inkscape:connector-curvature="0"
       id="path59" />
    <path
       d="m 333.09,158.31 c -0.697,0.743 -1.379,1.533 -2,2.313 l 353.55,353.55 c 0.621,-0.78 1.303,-1.569 2,-2.313 z"
       inkscape:connector-curvature="0"
       id="path61" />
    <path
       d="m 331.09,160.63 c -3.768,-0.698 -7.662,-1.069 -11.625,-1.063 l 353.55,353.55 c 3.963,-0.007 7.857,0.364 11.625,1.063 z"
       inkscape:connector-curvature="0"
       id="path63" />
    <path
       d="m 319.47,159.56 c -20.885,0.036 -43.682,10.354 -60.09,36.28 l 353.55,353.55 c 16.412,-25.927 39.21,-36.24 60.09,-36.28 z"
       inkscape:connector-curvature="0"
       id="path65" />
    <path
       d="m 259.38,195.84 c -24.14,38.15 -11.218,96.3 -57.12,132.75 l 353.55,353.55 c 45.907,-36.447 32.988,-94.6 57.13,-132.75 z"
       inkscape:connector-curvature="0"
       id="path67" />
    <path
       d="m 202.25,328.59 c 0,0 80.38,4.641 127.91,-28.719 l 353.55,353.55 C 636.18,686.781 555.8,682.14 555.8,682.14 z"
       inkscape:connector-curvature="0"
       id="path69" />
    <path
       d="m 330.16,299.88 c 35.784,-25.11 53.31,-55.902 48.875,-86.34 l 353.55,353.55 c 4.438,30.442 -13.09,61.23 -48.875,86.34 z"
       inkscape:connector-curvature="0"
       id="path71" />
    <path
       d="m 379.03,213.53 c 3.565,-1.903 6.893,-4.425 9.781,-7.5 l 353.55,353.55 c -2.889,3.075 -6.216,5.597 -9.781,7.5 z"
       inkscape:connector-curvature="0"
       id="path73" />
    <path
       d="M 388.81,206.03 512,66.62 865.55,420.17 742.36,559.58 z"
       inkscape:connector-curvature="0"
       id="path75" />
    <path
       d="m 512,26 c 0,-7.199 -2.901,-13.699 -7.601,-18.399 l 353.55,353.55 c 4.7,4.7 7.601,11.2 7.601,18.399 z"
       inkscape:connector-curvature="0"
       id="path77" />
    <path
       d="M 504.4,7.601 C 499.7,2.901 493.2,0 486.001,0 l 353.55,353.55 c 7.199,0 13.699,2.901 18.399,7.601 z"
       inkscape:connector-curvature="0"
       id="path79" />
    <path
       d="m 486,0 h -1.094 l 353.55,353.55 h 1.094 z"
       inkscape:connector-curvature="0"
       id="path81" />
    <path
       d="m 163.53,95.13 c -0.632,0.036 -1.254,0.169 -1.781,0.344 l 353.55,353.55 c 0.528,-0.175 1.149,-0.307 1.781,-0.344 z"
       inkscape:connector-curvature="0"
       id="path83" />
    <path
       d="m 161.75,95.47 c -0.716,0.237 -1.293,0.567 -1.906,1.031 l 353.55,353.55 c 0.613,-0.464 1.191,-0.794 1.906,-1.031 z"
       inkscape:connector-curvature="0"
       id="path85" />
    <path
       d="m 159.84,96.5 c -0.483,0.365 -0.929,0.767 -1.375,1.25 l 353.55,353.55 c 0.446,-0.483 0.892,-0.885 1.375,-1.25 z"
       inkscape:connector-curvature="0"
       id="path87" />
    <path
       d="m 158.47,97.75 c -0.407,0.432 -1.041,0.771 -1.438,1.281 l 353.55,353.55 c 0.396,-0.51 1.03,-0.85 1.438,-1.281 z"
       inkscape:connector-curvature="0"
       id="path89" />
    <path
       d="m 157.03,99.03 c -0.185,0.244 -0.283,0.492 -0.469,0.75 l 353.55,353.55 c 0.185,-0.259 0.283,-0.506 0.469,-0.75 z"
       inkscape:connector-curvature="0"
       id="path91" />
    <path
       d="m 156.56,99.78 c -1.22,1.661 -2.425,3.778 -3.938,5.813 l 353.55,353.55 c 1.513,-2.034 2.717,-4.152 3.938,-5.813 z"
       inkscape:connector-curvature="0"
       id="path93" />
    <path
       d="m 152.63,105.59 c -1.936,2.604 -2.323,5.356 -1.938,8.188 l 353.55,353.55 c -0.386,-2.831 10e-4,-5.584 1.938,-8.188 z"
       inkscape:connector-curvature="0"
       id="path95" />
    <path
       d="m 150.69,113.78 c 0.386,2.835 1.638,5.539 3.063,8.094 l 353.55,353.55 c -1.425,-2.555 -2.677,-5.258 -3.063,-8.094 z"
       inkscape:connector-curvature="0"
       id="path97" />
    <path
       d="m 153.75,121.88 c 2.851,5.112 6.532,9.292 5.844,10.219 l 353.55,353.55 c 0.689,-0.927 -2.993,-5.107 -5.844,-10.219 z"
       inkscape:connector-curvature="0"
       id="path99" />
    <path
       d="m 159.59,132.09 c 2.182,-1.394 4.02,-2.615 5.469,-3.844 l 353.55,353.55 c -1.445,1.229 -3.286,2.45 -5.469,3.844 z"
       inkscape:connector-curvature="0"
       id="path101" />
    <path
       d="m 165.06,128.25 c 4.472,-3.58 6.36,-6.585 8.625,-11.594 l 353.55,353.55 c -2.265,5.01 -4.153,8.01 -8.625,11.594 z"
       inkscape:connector-curvature="0"
       id="path103" />
    <path
       d="m 173.69,116.66 c 0.671,-1.482 1.14,-5.548 1.188,-9.438 l 353.55,353.55 c -0.047,3.89 -0.516,7.956 -1.188,9.438 z"
       inkscape:connector-curvature="0"
       id="path105" />
    <path
       d="m 174.88,107.22 c 0.044,-3.606 -0.335,-7.114 -1.593,-8.371 l 353.55,353.55 c 1.257,1.257 1.637,4.765 1.593,8.371 z"
       inkscape:connector-curvature="0"
       id="path107" />
    <path
       d="m 173.28,98.85 c -0.099,-0.099 -0.203,-0.184 -0.314,-0.254 l 353.55,353.55 c 0.11,0.07 0.215,0.155 0.314,0.254 z"
       inkscape:connector-curvature="0"
       id="path109" />
    <path
       d="m 172.97,98.59 c -0.938,-0.595 -1.645,-0.969 -2.469,-1.406 l 353.55,353.55 c 0.824,0.437 1.531,0.811 2.469,1.406 z"
       inkscape:connector-curvature="0"
       id="path111" />
    <path
       d="m 170.5,97.19 c -0.023,-0.012 -0.043,-0.028 -0.06,-0.046 l 353.55,353.55 c 0.018,0.018 0.037,0.033 0.06,0.046 z"
       inkscape:connector-curvature="0"
       id="path113" />
    <path
       d="m 170.44,97.14 c -0.052,-0.052 -0.086,-0.121 -0.14,-0.17 l 353.55,353.55 c 0.054,0.049 0.088,0.117 0.14,0.17 z"
       inkscape:connector-curvature="0"
       id="path115" />
    <path
       d="m 170.3,96.97 c -0.015,-0.013 -0.031,-0.025 -0.049,-0.035 l 353.55,353.55 c 0.019,0.01 0.035,0.021 0.049,0.035 z"
       inkscape:connector-curvature="0"
       id="path117" />
    <path
       d="m 170.25,96.94 c -0.756,-0.391 -1.519,-0.641 -2.188,-0.906 l 353.55,353.55 c 0.668,0.265 1.431,0.515 2.188,0.906 z"
       inkscape:connector-curvature="0"
       id="path119" />
    <path
       d="m 168.06,96.03 c -0.593,-0.23 -1.156,-0.299 -1.688,-0.438 l 353.55,353.55 c 0.532,0.138 1.095,0.207 1.688,0.438 z"
       inkscape:connector-curvature="0"
       id="path121" />
    <path
       d="m 166.38,95.59 c -0.777,-0.206 -1.556,-0.446 -2.219,-0.469 l 353.55,353.55 c 0.663,0.023 1.442,0.263 2.219,0.469 z"
       inkscape:connector-curvature="0"
       id="path123" />
    <path
       d="m 164.16,95.13 c -0.212,-0.007 -0.414,-0.012 -0.625,0 l 353.55,353.55 c 0.211,-0.012 0.413,-0.007 0.625,0 z"
       inkscape:connector-curvature="0"
       id="path125" />
    <path
       d="m 100.81,172.53 c -1.284,0.06 -2.561,0.294 -3.875,0.75 l 353.55,353.55 c 1.314,-0.456 2.591,-0.69 3.875,-0.75 z"
       inkscape:connector-curvature="0"
       id="path127" />
    <path
       d="m 96.94,173.28 c -2.425,0.842 -4.902,2.677 -7.375,5.125 l 353.55,353.55 c 2.473,-2.448 4.95,-4.283 7.375,-5.125 z"
       inkscape:connector-curvature="0"
       id="path129" />
    <path
       d="m 89.56,178.41 c -7.73,11.493 -26.648,1.383 -33.781,14.313 l 353.55,353.55 c 7.133,-12.929 26.05,-2.819 33.781,-14.313 z"
       inkscape:connector-curvature="0"
       id="path131" />
    <path
       d="m 55.781,192.72 c -0.138,0.601 -0.1,1.036 -0.188,1.594 l 353.55,353.55 c 0.088,-0.558 0.05,-0.993 0.188,-1.594 z"
       inkscape:connector-curvature="0"
       id="path133" />
    <path
       d="m 55.59,194.31 c -0.156,0.974 -0.361,1.872 -0.375,2.719 l 353.55,353.55 c 0.014,-0.847 0.219,-1.744 0.375,-2.719 z"
       inkscape:connector-curvature="0"
       id="path135" />
    <path
       d="m 55.22,197.03 c -0.005,0.355 0.045,0.636 0.063,0.969 l 353.55,353.55 c -0.018,-0.333 -0.067,-0.614 -0.063,-0.969 z"
       inkscape:connector-curvature="0"
       id="path137" />
    <path
       d="m 55.28,198 c 0.039,0.786 0.086,1.546 0.25,2.219 l 353.55,353.55 c -0.164,-0.673 -0.211,-1.432 -0.25,-2.219 z"
       inkscape:connector-curvature="0"
       id="path139" />
    <path
       d="m 55.53,200.22 c 0.203,0.84 0.436,1.573 0.813,2.25 l 353.55,353.55 c -0.376,-0.677 -0.61,-1.41 -0.813,-2.25 z"
       inkscape:connector-curvature="0"
       id="path141" />
    <path
       d="m 56.34,202.47 c 0.378,0.683 0.843,1.25 1.376,1.782 l 353.55,353.55 c -0.533,-0.533 -0.998,-1.1 -1.376,-1.782 z"
       inkscape:connector-curvature="0"
       id="path143" />
    <path
       d="m 57.72,204.25 c 0.01,0.01 0.02,0.02 0.03,0.03 L 411.3,557.83 c -0.01,-0.01 -0.02,-0.02 -0.03,-0.03 z"
       inkscape:connector-curvature="0"
       id="path145" />
    <path
       d="m 57.75,204.28 c 0.007,0.007 0.015,0.015 0.022,0.022 l 353.55,353.55 c -0.007,-0.008 -0.015,-0.015 -0.022,-0.022 z"
       inkscape:connector-curvature="0"
       id="path147" />
    <path
       d="m 57.772,204.3 c 0.21,0.21 0.445,0.476 0.686,0.717 l 353.55,353.55 c -0.241,-0.24 -0.476,-0.506 -0.686,-0.717 z"
       inkscape:connector-curvature="0"
       id="path149" />
    <path
       d="m 58.46,205.02 c 0.158,0.158 0.32,0.304 0.479,0.417 l 353.55,353.55 c -0.159,-0.113 -0.321,-0.259 -0.479,-0.417 z"
       inkscape:connector-curvature="0"
       id="path151" />
    <path
       d="m 58.938,205.44 c 0.18,0.127 0.434,0.165 0.625,0.281 l 353.55,353.55 c -0.191,-0.116 -0.445,-0.154 -0.625,-0.281 z"
       inkscape:connector-curvature="0"
       id="path153" />
    <path
       d="m 59.56,205.72 c 0.467,0.283 0.789,0.588 1.313,0.813 l 353.55,353.55 c -0.524,-0.225 -0.846,-0.53 -1.313,-0.813 z"
       inkscape:connector-curvature="0"
       id="path155" />
    <path
       d="m 60.875,206.53 c 0.258,0.115 0.604,0.117 0.875,0.219 l 353.55,353.55 c -0.271,-0.102 -0.617,-0.104 -0.875,-0.219 z"
       inkscape:connector-curvature="0"
       id="path157" />
    <path
       d="m 61.75,206.75 c 1.526,0.549 3.26,0.866 5.094,1.063 l 353.55,353.55 c -1.833,-0.196 -3.568,-0.513 -5.094,-1.063 z"
       inkscape:connector-curvature="0"
       id="path159" />
    <path
       d="m 66.844,207.81 c 1.647,0.177 3.289,0.265 5.063,0.25 l 353.55,353.55 c -1.774,0.015 -3.416,-0.073 -5.063,-0.25 z"
       inkscape:connector-curvature="0"
       id="path161" />
    <path
       d="m 71.906,208.06 c 0.846,-0.005 1.675,-0.09 2.531,-0.125 l 353.55,353.55 c -0.856,0.035 -1.686,0.12 -2.531,0.125 z"
       inkscape:connector-curvature="0"
       id="path163" />
    <path
       d="m 74.44,207.94 c 1.215,-0.051 2.482,0.087 3.688,0 l 353.55,353.55 c -1.205,0.087 -2.473,-0.051 -3.688,0 z"
       inkscape:connector-curvature="0"
       id="path165" />
    <path
       d="m 78.13,207.94 c 4.132,-0.29 8.08,-0.803 11.188,-0.813 l 353.55,353.55 c -3.106,0.009 -7.06,0.523 -11.188,0.813 z"
       inkscape:connector-curvature="0"
       id="path167" />
    <path
       d="m 89.31,207.13 c 14.45,-1.625 23.267,7.89 32.16,14.875 l 353.55,353.55 c -8.889,-6.985 -17.706,-16.5 -32.16,-14.875 z"
       inkscape:connector-curvature="0"
       id="path169" />
    <path
       d="m 121.47,222 c 1.55,-0.172 2.937,-0.479 4.125,-0.906 l 353.55,353.55 c -1.188,0.428 -2.575,0.734 -4.125,0.906 z"
       inkscape:connector-curvature="0"
       id="path171" />
    <path
       d="m 125.59,221.09 c 0.486,-0.172 0.884,-0.509 1.313,-0.719 l 353.55,353.55 c -0.429,0.21 -0.827,0.547 -1.313,0.719 z"
       inkscape:connector-curvature="0"
       id="path173" />
    <path
       d="m 126.91,220.38 c 0.152,-0.074 0.324,-0.108 0.469,-0.188 l 353.55,353.55 c -0.145,0.08 -0.317,0.113 -0.469,0.188 z"
       inkscape:connector-curvature="0"
       id="path175" />
    <path
       d="m 127.38,220.19 c 1.069,-0.568 1.684,-1.306 2.406,-2.094 l 353.55,353.55 c -0.722,0.788 -1.337,1.525 -2.406,2.094 z"
       inkscape:connector-curvature="0"
       id="path177" />
    <path
       d="m 129.78,218.09 c 0.605,-0.659 1.238,-1.31 1.625,-2.094 l 353.55,353.55 c -0.387,0.784 -1.02,1.435 -1.625,2.094 z"
       inkscape:connector-curvature="0"
       id="path179" />
    <path
       d="m 131.41,216 c 0.471,-0.956 0.817,-2.056 1,-3.156 l 353.55,353.55 c -0.183,1.1 -0.529,2.201 -1,3.156 z"
       inkscape:connector-curvature="0"
       id="path181" />
    <path
       d="m 132.41,212.84 c 0.012,-0.07 -0.103,-0.147 -0.094,-0.219 l 353.55,353.55 c -0.009,0.072 0.106,0.148 0.094,0.219 z"
       inkscape:connector-curvature="0"
       id="path183" />
    <path
       d="m 132.31,212.63 c 0.127,-0.966 0.277,-2.149 0.219,-3.188 l 353.55,353.55 c 0.058,1.038 -0.091,2.221 -0.219,3.188 z"
       inkscape:connector-curvature="0"
       id="path185" />
    <path
       d="m 132.53,209.44 c -0.012,-0.261 0.023,-0.485 0,-0.75 l 353.55,353.55 c 0.023,0.265 -0.012,0.489 0,0.75 z"
       inkscape:connector-curvature="0"
       id="path187" />
    <path
       d="m 132.53,208.69 c -0.11,-1.264 -0.485,-2.502 -0.813,-3.813 l 353.55,353.55 c 0.327,1.31 0.703,2.548 0.813,3.813 z"
       inkscape:connector-curvature="0"
       id="path189" />
    <path
       d="m 131.72,204.88 c -0.273,-1.054 -0.491,-2.2 -0.875,-3.25 l 353.55,353.55 c 0.384,1.05 0.602,2.196 0.875,3.25 z"
       inkscape:connector-curvature="0"
       id="path191" />
    <path
       d="m 130.84,201.63 c -0.108,-0.305 -0.164,-0.634 -0.281,-0.938 l 353.55,353.55 c 0.118,0.303 0.173,0.633 0.281,0.938 z"
       inkscape:connector-curvature="0"
       id="path193" />
    <path
       d="m 130.56,200.69 c -0.41,-1.039 -0.887,-2.092 -1.375,-3.094 l 353.55,353.55 c 0.488,1 0.965,2.054 1.375,3.094 z"
       inkscape:connector-curvature="0"
       id="path195" />
    <path
       d="m 129.19,197.59 c -0.15,-0.309 -0.374,-0.541 -0.531,-0.844 l 353.55,353.55 c 0.157,0.303 0.381,0.535 0.531,0.844 z"
       inkscape:connector-curvature="0"
       id="path197" />
    <path
       d="m 128.66,196.75 c -1.545,-2.995 -3.349,-5.876 -5.125,-7.938 l 353.55,353.55 c 1.776,2.061 3.58,4.942 5.125,7.938 z"
       inkscape:connector-curvature="0"
       id="path199" />
    <path
       d="m 123.53,188.81 c -2.01,-2.93 -4.358,-5.927 -6.969,-8.538 l 353.55,353.55 c 2.611,2.611 4.963,5.608 6.969,8.538 z"
       inkscape:connector-curvature="0"
       id="path201" />
    <path
       d="m 116.56,180.27 c -4.603,-4.603 -10.01,-8.01 -15.75,-7.743 l 353.55,353.55 c 5.737,-0.266 11.146,3.14 15.75,7.743 z"
       inkscape:connector-curvature="0"
       id="path203" />
    <path
       d="m 188.94,182.47 c -2.779,2.243 -4.188,4.821 -4.938,7.688 l 353.55,353.55 c 0.75,-2.867 2.158,-5.445 4.938,-7.688 z"
       inkscape:connector-curvature="0"
       id="path205" />
    <path
       d="m 184,190.16 c -0.38,1.451 -0.711,3.069 -0.75,4.625 l 353.55,353.55 c 0.039,-1.556 0.37,-3.174 0.75,-4.625 z"
       inkscape:connector-curvature="0"
       id="path207" />
    <path
       d="m 183.25,194.78 c -0.05,1.716 0.294,3.484 0.5,5.281 l 353.55,353.55 c -0.206,-1.797 -0.55,-3.565 -0.5,-5.281 z"
       inkscape:connector-curvature="0"
       id="path209" />
    <path
       d="m 183.75,200.06 c 0.417,3.329 0.948,6.773 1.469,10.156 l 353.55,353.55 c -0.521,-3.384 -1.052,-6.827 -1.469,-10.156 z"
       inkscape:connector-curvature="0"
       id="path211" />
    <path
       d="m 185.22,210.22 c -0.019,0.077 0.019,0.174 0,0.25 l 353.55,353.55 c 0.019,-0.076 -0.019,-0.173 0,-0.25 z"
       inkscape:connector-curvature="0"
       id="path213" />
    <path
       d="m 185.22,210.47 c 1.329,8.8 1.351,17.207 -9.125,22.656 l 353.55,353.55 c 10.476,-5.449 10.454,-13.856 9.125,-22.656 z"
       inkscape:connector-curvature="0"
       id="path215" />
    <path
       d="m 176.09,233.13 c -16.72,12.06 -41.32,1.709 -54.875,20.06 l 353.55,353.55 c 13.558,-18.354 38.15,-8 54.875,-20.06 z"
       inkscape:connector-curvature="0"
       id="path217" />
    <path
       d="m 121.22,253.19 c -8.06,10.959 -17.586,7.086 -26.688,3.375 l 353.55,353.55 c 9.101,3.711 18.626,7.584 26.688,-3.375 z"
       inkscape:connector-curvature="0"
       id="path219" />
    <path
       d="m 94.53,256.56 c -0.766,-0.313 -1.424,-0.666 -2.188,-0.969 l 353.55,353.55 c 0.763,0.303 1.422,0.656 2.188,0.969 z"
       inkscape:connector-curvature="0"
       id="path221" />
    <path
       d="m 92.34,255.59 c -1.546,-0.61 -3.175,-1.241 -4.688,-1.688 l 353.55,353.55 c 1.513,0.447 3.141,1.077 4.688,1.688 z"
       inkscape:connector-curvature="0"
       id="path223" />
    <path
       d="m 87.66,253.91 c -2.318,-0.685 -4.498,-1.119 -6.688,-0.969 l 353.55,353.55 c 2.189,-0.15 4.37,0.284 6.688,0.969 z"
       inkscape:connector-curvature="0"
       id="path225" />
    <path
       d="m 80.969,252.94 c -1.809,0.125 -3.534,0.654 -5.219,1.688 l 353.55,353.55 c 1.684,-1.034 3.41,-1.563 5.219,-1.688 z"
       inkscape:connector-curvature="0"
       id="path227" />
    <path
       d="m 75.75,254.63 c 0.545,0.662 1.07,1.244 1.661,1.834 l 353.55,353.55 c -0.59,-0.59 -1.115,-1.172 -1.661,-1.834 z"
       inkscape:connector-curvature="0"
       id="path229" />
    <path
       d="m 77.41,256.46 c 0.189,0.189 0.384,0.379 0.589,0.572 l 353.55,353.55 c -0.205,-0.194 -0.401,-0.383 -0.589,-0.572 z"
       inkscape:connector-curvature="0"
       id="path231" />
    <path
       d="m 78,257.03 c 0.786,0.752 1.591,1.457 2.469,2.156 l 353.55,353.55 c -0.878,-0.7 -1.683,-1.404 -2.469,-2.156 z"
       inkscape:connector-curvature="0"
       id="path233" />
    <path
       d="m 80.47,259.19 c 1.517,1.203 3.233,2.277 4.938,3.375 l 353.55,353.55 c -1.705,-1.098 -3.421,-2.172 -4.938,-3.375 z"
       inkscape:connector-curvature="0"
       id="path235" />
    <path
       d="m 85.41,262.56 c 0.254,0.164 0.492,0.369 0.75,0.531 l 353.55,353.55 c -0.258,-0.162 -0.496,-0.367 -0.75,-0.531 z"
       inkscape:connector-curvature="0"
       id="path237" />
    <path
       d="m 86.16,263.09 c 0.254,0.16 0.463,0.309 0.719,0.469 l 353.55,353.55 c -0.256,-0.16 -0.464,-0.309 -0.719,-0.469 z"
       inkscape:connector-curvature="0"
       id="path239" />
    <path
       d="m 86.88,263.56 c 3.791,2.352 7.845,4.546 11.625,7 l 353.55,353.55 c -3.78,-2.454 -7.834,-4.648 -11.625,-7 z"
       inkscape:connector-curvature="0"
       id="path241" />
    <path
       d="m 98.5,270.56 c 0.494,0.322 1.016,0.606 1.5,0.938 l 353.55,353.55 c -0.484,-0.332 -1.01,-0.615 -1.5,-0.938 z"
       inkscape:connector-curvature="0"
       id="path243" />
    <path
       d="m 100,271.5 c 0.441,0.3 0.788,0.66 1.219,0.969 l 353.55,353.55 c -0.43,-0.309 -0.778,-0.668 -1.219,-0.969 z"
       inkscape:connector-curvature="0"
       id="path245" />
    <path
       d="m 101.22,272.47 c 1.484,1.066 2.878,2.457 4.188,3.656 l 353.55,353.55 c -1.31,-1.199 -2.703,-2.59 -4.188,-3.656 z"
       inkscape:connector-curvature="0"
       id="path247" />
    <path
       d="m 105.41,276.13 c 0.129,0.119 0.373,0.13 0.5,0.25 l 353.55,353.55 c -0.127,-0.12 -0.371,-0.131 -0.5,-0.25 z"
       inkscape:connector-curvature="0"
       id="path249" />
    <path
       d="m 105.91,276.38 c 0.648,0.61 1.269,1.121 1.858,1.71 l 353.55,353.55 c -0.589,-0.589 -1.21,-1.1 -1.858,-1.71 z"
       inkscape:connector-curvature="0"
       id="path251" />
    <path
       d="m 107.76,278.08 c 0.218,0.218 0.432,0.448 0.642,0.697 l 353.55,353.55 c -0.209,-0.249 -0.423,-0.478 -0.642,-0.697 z"
       inkscape:connector-curvature="0"
       id="path253" />
    <path
       d="m 108.41,278.78 c 0.187,0.223 0.289,0.491 0.469,0.719 l 353.55,353.55 c -0.18,-0.227 -0.282,-0.495 -0.469,-0.719 z"
       inkscape:connector-curvature="0"
       id="path255" />
    <path
       d="m 108.88,279.5 c 0.556,0.709 0.993,1.39 1.469,2.156 l 353.55,353.55 c -0.476,-0.766 -0.913,-1.447 -1.469,-2.156 z"
       inkscape:connector-curvature="0"
       id="path257" />
    <path
       d="m 110.34,281.66 c 0.15,0.238 0.358,0.475 0.5,0.719 l 353.55,353.55 c -0.142,-0.244 -0.35,-0.481 -0.5,-0.719 z"
       inkscape:connector-curvature="0"
       id="path259" />
    <path
       d="m 110.84,282.38 c 0.461,0.808 0.887,1.778 1.25,2.656 l 353.55,353.55 c -0.363,-0.878 -0.789,-1.848 -1.25,-2.656 z"
       inkscape:connector-curvature="0"
       id="path261" />
    <path
       d="m 112.09,285.03 c 0.292,0.698 0.527,1.408 0.75,2.156 l 353.55,353.55 c -0.223,-0.748 -0.458,-1.458 -0.75,-2.156 z"
       inkscape:connector-curvature="0"
       id="path263" />
    <path
       d="m 112.84,287.19 c 0.145,0.486 0.355,0.991 0.469,1.5 l 353.55,353.55 c -0.114,-0.509 -0.324,-1.014 -0.469,-1.5 z"
       inkscape:connector-curvature="0"
       id="path265" />
    <path
       d="m 113.31,288.69 c 0.018,0.079 -0.018,0.109 0,0.188 l 353.55,353.55 c -0.018,-0.078 0.018,-0.109 0,-0.188 z"
       inkscape:connector-curvature="0"
       id="path267" />
    <path
       d="m 113.31,288.88 c 0.256,1.205 0.434,2.569 0.5,3.906 l 353.55,353.55 c -0.066,-1.337 -0.244,-2.702 -0.5,-3.906 z"
       inkscape:connector-curvature="0"
       id="path269" />
    <path
       d="m 113.81,292.78 c 0.07,1.42 -0.085,2.732 -0.25,4.313 l 353.55,353.55 c 0.165,-1.581 0.32,-2.893 0.25,-4.313 z"
       inkscape:connector-curvature="0"
       id="path271" />
    <path
       d="m 113.56,297.09 c 2.916,19.392 -12.568,34.839 -16.06,52.41 l 353.55,353.55 c 3.495,-17.567 18.978,-33.01 16.06,-52.41 z"
       inkscape:connector-curvature="0"
       id="path273" />
    <path
       d="m 97.5,349.5 c -0.016,0.079 0.016,0.17 0,0.25 L 451.05,703.3 c 0.016,-0.08 -0.016,-0.172 0,-0.25 z"
       inkscape:connector-curvature="0"
       id="path275" />
    <path
       d="m 97.5,349.75 c -0.668,3.47 -0.727,6.926 -0.219,10.625 l 353.55,353.55 c -0.509,-3.699 -0.45,-7.155 0.219,-10.625 z"
       inkscape:connector-curvature="0"
       id="path277" />
    <path
       d="m 97.28,360.38 c 0.571,2.094 1.215,4.113 2.188,6.25 l 353.55,353.55 c -0.973,-2.137 -1.617,-4.156 -2.188,-6.25 z"
       inkscape:connector-curvature="0"
       id="path279" />
    <path
       d="m 99.47,366.63 c 0.4,0.888 0.808,1.764 1.25,2.656 l 353.55,353.55 c -0.442,-0.892 -0.85,-1.768 -1.25,-2.656 z"
       inkscape:connector-curvature="0"
       id="path281" />
    <path
       d="m 100.72,369.28 c 1.707,3.43 3.719,6.944 5.438,10.375 l 353.55,353.55 c -1.718,-3.431 -3.73,-6.945 -5.438,-10.375 z"
       inkscape:connector-curvature="0"
       id="path283" />
    <path
       d="m 106.16,379.66 c 0.242,0.483 0.519,0.954 0.75,1.438 l 353.55,353.55 c -0.231,-0.483 -0.508,-0.954 -0.75,-1.438 z"
       inkscape:connector-curvature="0"
       id="path285" />
    <path
       d="m 106.91,381.09 c 0.112,0.235 0.109,0.514 0.219,0.75 l 353.55,353.55 c -0.11,-0.236 -0.106,-0.515 -0.219,-0.75 z"
       inkscape:connector-curvature="0"
       id="path287" />
    <path
       d="m 107.13,381.84 c 0.938,2.01 1.893,4.02 2.5,6 l 353.55,353.55 c -0.607,-1.976 -1.562,-3.993 -2.5,-6 z"
       inkscape:connector-curvature="0"
       id="path289" />
    <path
       d="m 109.63,387.84 c 0.67,2.195 0.959,4.404 0.969,6.531 l 353.55,353.55 c -0.009,-2.128 -0.299,-4.336 -0.969,-6.531 z"
       inkscape:connector-curvature="0"
       id="path291" />
    <path
       d="m 110.59,394.38 c 10e-4,0.314 0.018,0.656 0,0.969 l 353.55,353.55 c 0.018,-0.313 0.001,-0.655 0,-0.969 z"
       inkscape:connector-curvature="0"
       id="path293" />
    <path
       d="m 110.59,395.34 c -0.102,2.03 -0.497,4.115 -1.469,6.06 l 353.55,353.55 c 0.971,-1.948 1.367,-4.03 1.469,-6.06 z"
       inkscape:connector-curvature="0"
       id="path295" />
    <path
       d="m 109.13,401.41 c -0.304,0.61 -0.811,1.088 -1.219,1.688 l 353.55,353.55 c 0.407,-0.6 0.914,-1.077 1.219,-1.688 z"
       inkscape:connector-curvature="0"
       id="path297" />
    <path
       d="m 107.91,403.09 c -0.262,0.384 -0.474,0.809 -0.781,1.188 l 353.55,353.55 c 0.307,-0.379 0.519,-0.803 0.781,-1.188 z"
       inkscape:connector-curvature="0"
       id="path299" />
    <path
       d="m 107.13,404.28 c -0.498,0.623 -1.094,1.078 -1.719,1.688 l 353.55,353.55 c 0.625,-0.609 1.221,-1.065 1.719,-1.688 z"
       inkscape:connector-curvature="0"
       id="path301" />
    <path
       d="m 105.41,405.97 c -0.342,0.334 -0.586,0.639 -0.969,0.969 l 353.55,353.55 c 0.383,-0.33 0.626,-0.634 0.969,-0.969 z"
       inkscape:connector-curvature="0"
       id="path303" />
    <path
       d="m 104.44,406.94 c -1.053,0.919 -2.081,1.774 -3.469,2.656 l 353.55,353.55 c 1.388,-0.882 2.416,-1.737 3.469,-2.656 z"
       inkscape:connector-curvature="0"
       id="path305" />
    <path
       d="m 100.97,409.59 c -5.756,5.135 -6.685,10.02 -5.03,11.675 l 353.55,353.55 c -1.658,-1.658 -0.73,-6.54 5.03,-11.675 z"
       inkscape:connector-curvature="0"
       id="path307" />
    <path
       d="m 95.94,421.27 c 0.773,0.773 2.107,0.846 3.777,-0.081 l 353.55,353.55 c -1.669,0.927 -3,0.854 -3.777,0.081 z"
       inkscape:connector-curvature="0"
       id="path309" />
    <path
       d="m 99.72,421.19 c 0.875,-0.486 1.693,-1.109 2.719,-2.188 l 353.55,353.55 c -1.026,1.079 -1.843,1.702 -2.719,2.188 z"
       inkscape:connector-curvature="0"
       id="path311" />
    <path
       d="m 102.44,419 c 1.026,-1.079 2.109,-2.556 3.219,-4.313 l 353.55,353.55 c -1.109,1.757 -2.193,3.234 -3.219,4.313 z"
       inkscape:connector-curvature="0"
       id="path313" />
    <path
       d="m 105.66,414.69 c 4.542,-14.08 24.67,-24.2 33.785,-15.08 l 353.55,353.55 c -9.115,-9.115 -29.24,1 -33.785,15.08 z"
       inkscape:connector-curvature="0"
       id="path315" />
    <path
       d="m 139.44,399.6 c 1.723,1.723 3.052,4.133 3.809,7.334 l 353.55,353.55 c -0.756,-3.2 -2.086,-5.611 -3.809,-7.334 z"
       inkscape:connector-curvature="0"
       id="path317" />
    <path
       d="m 143.25,406.94 c 0.317,1.343 0.363,2.967 0.469,4.594 l 353.55,353.55 c -0.106,-1.627 -0.152,-3.251 -0.469,-4.594 z"
       inkscape:connector-curvature="0"
       id="path319" />
    <path
       d="m 143.72,411.53 c 1.729,6.098 -0.612,15.11 -1.75,23.16 l 353.55,353.55 c 1.138,-8.05 3.479,-17.06 1.75,-23.16 z"
       inkscape:connector-curvature="0"
       id="path321" />
    <path
       d="m 141.97,434.69 c -0.913,6.462 -0.986,12.31 2.222,15.518 l 353.55,353.55 c -3.208,-3.208 -3.135,-9.06 -2.222,-15.518 z"
       inkscape:connector-curvature="0"
       id="path323" />
    <path
       d="m 144.19,450.21 c 0.789,0.789 1.776,1.418 2.997,1.857 l 353.55,353.55 c -1.222,-0.439 -2.209,-1.068 -2.997,-1.857 z"
       inkscape:connector-curvature="0"
       id="path325" />
    <path
       d="m 147.19,452.06 c 1.768,-20.355 2.579,-45.93 22.22,-57.688 l 353.55,353.55 c -19.64,11.757 -20.45,37.33 -22.22,57.688 z"
       inkscape:connector-curvature="0"
       id="path327" />
    <path
       d="m 169.41,394.38 c 1.31,-0.784 2.706,-1.501 4.188,-2.156 l 353.55,353.55 c -1.481,0.655 -2.878,1.373 -4.188,2.156 z"
       inkscape:connector-curvature="0"
       id="path329" />
    <path
       d="m 173.59,392.22 c 18.518,-9.67 29.917,15.355 47.19,13.281 l 353.55,353.55 C 557.059,761.124 545.661,736.1 527.14,745.77 z"
       inkscape:connector-curvature="0"
       id="path331" />
    <path
       d="m 220.78,405.5 c 1.151,-0.138 2.261,-0.571 3.469,-0.969 l 353.55,353.55 c -1.208,0.398 -2.317,0.831 -3.469,0.969 z"
       inkscape:connector-curvature="0"
       id="path333" />
    <path
       d="m 224.25,404.53 c 12.211,-5.132 19.935,-0.256 26.895,6.704 l 353.55,353.55 c -6.96,-6.96 -14.684,-11.836 -26.895,-6.704 z"
       inkscape:connector-curvature="0"
       id="path335" />
    <path
       d="m 251.14,411.24 c 4.661,4.661 8.981,10.258 14.08,14.41 L 618.77,779.2 c -5.096,-4.152 -9.415,-9.749 -14.08,-14.41 z"
       inkscape:connector-curvature="0"
       id="path337" />
    <path
       d="m 265.22,425.65 c 1.124,0.916 2.286,1.761 3.497,2.511 l 353.55,353.55 c -1.212,-0.75 -2.373,-1.595 -3.497,-2.511 z"
       inkscape:connector-curvature="0"
       id="path339" />
    <path
       d="m 268.72,428.16 c 12.661,0.494 17.586,-7.457 19.813,-18.313 l 353.55,353.55 c -2.227,10.856 -7.151,18.806 -19.813,18.313 z"
       inkscape:connector-curvature="0"
       id="path341" />
    <path
       d="m 288.53,409.84 c 0.318,-1.551 0.493,-3.231 0.719,-4.875 l 353.55,353.55 c -0.226,1.644 -0.401,3.324 -0.719,4.875 z"
       inkscape:connector-curvature="0"
       id="path343" />
    <path
       d="m 289.25,404.97 c 1.81,-13.151 1,-28.748 5.656,-37.875 l 353.55,353.55 c -4.656,9.127 -3.846,24.724 -5.656,37.875 z"
       inkscape:connector-curvature="0"
       id="path345" />
    <path
       d="m 294.91,367.09 c 11.791,-11.182 15.911,-25.397 19.06,-40.28 l 353.55,353.55 c -3.151,14.885 -7.271,29.1 -19.06,40.28 z"
       inkscape:connector-curvature="0"
       id="path347" />
    <path
       d="m 313.97,326.81 c -47.544,20.679 -102.22,19.911 -153.37,15.781 l 353.55,353.55 c 51.16,4.129 105.83,4.897 153.38,-15.781 z"
       inkscape:connector-curvature="0"
       id="path349" />
    <path
       d="m 160.59,342.59 c 11.787,-12.178 26.408,-21.282 38.5,-32.969 l 353.55,353.55 c -12.09,11.687 -26.713,20.791 -38.5,32.969 z"
       inkscape:connector-curvature="0"
       id="path351" />
    <path
       d="m 199.09,309.63 c 16.73,-16.924 21.877,-39.629 26.594,-62.31 l 353.55,353.55 c -4.716,22.683 -9.864,45.39 -26.594,62.31 z"
       inkscape:connector-curvature="0"
       id="path353" />
    <path
       d="m 225.69,247.31 c -4.342,-1.907 -8.38,-4.61 -11.941,-8.17 l 353.55,353.55 c 3.56,3.56 7.598,6.264 11.941,8.17 z"
       inkscape:connector-curvature="0"
       id="path355" />
    <path
       d="m 213.75,239.14 c -1.446,-1.446 -2.814,-3.034 -4.091,-4.767 l 353.55,353.55 c 1.277,1.733 2.644,3.321 4.091,4.767 z"
       inkscape:connector-curvature="0"
       id="path357" />
    <path
       d="m 209.66,234.38 c -1.587,-1.042 -2.959,-2.162 -4.146,-3.349 l 353.55,353.55 c 1.187,1.187 2.559,2.307 4.146,3.349 z"
       inkscape:connector-curvature="0"
       id="path359" />
    <path
       d="m 205.51,231.03 c -12.501,-12.501 -4.538,-32.442 -12.635,-46.651 l 353.55,353.55 c 8.097,14.21 0.134,34.15 12.635,46.651 z"
       inkscape:connector-curvature="0"
       id="path361" />
    <path
       d="m 192.88,184.38 c -0.163,-0.502 -0.383,-0.863 -0.643,-1.123 l 353.55,353.55 c 0.26,0.26 0.48,0.621 0.643,1.123 z"
       inkscape:connector-curvature="0"
       id="path363" />
    <path
       d="m 192.23,183.25 c -0.848,-0.848 -2.128,-0.632 -3.295,-0.783 l 353.55,353.55 c 1.167,0.151 2.447,-0.065 3.295,0.783 z"
       inkscape:connector-curvature="0"
       id="path365" />
    <path
       d="m 238.38,187.03 c -3.112,0.023 -6.162,1.65 -9.375,4.844 l 353.55,353.55 c 3.213,-3.194 6.263,-4.821 9.375,-4.844 z"
       inkscape:connector-curvature="0"
       id="path367" />
    <path
       d="m 229,191.88 c -1.624,1.615 -2.685,3.434 -3.469,5.281 l 353.55,353.55 c 0.783,-1.847 1.845,-3.667 3.469,-5.281 z"
       inkscape:connector-curvature="0"
       id="path369" />
    <path
       d="m 225.53,197.16 c -0.478,1.129 -0.777,2.231 -0.969,3.375 l 353.55,353.55 c 0.192,-1.144 0.491,-2.246 0.969,-3.375 z"
       inkscape:connector-curvature="0"
       id="path371" />
    <path
       d="m 224.56,200.53 c -0.413,2.312 -0.192,4.748 0.438,6.781 l 353.55,353.55 c -0.629,-2.033 -0.85,-4.47 -0.438,-6.781 z"
       inkscape:connector-curvature="0"
       id="path373" />
    <path
       d="m 225,207.31 c 0.227,0.678 0.45,1.326 0.781,1.938 l 353.55,353.55 c -0.331,-0.612 -0.554,-1.259 -0.781,-1.938 z"
       inkscape:connector-curvature="0"
       id="path375" />
    <path
       d="m 225.78,209.25 c 0.276,0.525 0.62,0.972 0.969,1.438 l 353.55,353.55 c -0.349,-0.466 -0.693,-0.912 -0.969,-1.438 z"
       inkscape:connector-curvature="0"
       id="path377" />
    <path
       d="m 226.75,210.69 c 0.025,0.033 0.053,0.064 0.083,0.093 l 353.55,353.55 c -0.029,-0.029 -0.057,-0.06 -0.083,-0.093 z"
       inkscape:connector-curvature="0"
       id="path379" />
    <path
       d="m 226.83,210.78 c 0.117,0.117 0.261,0.213 0.376,0.331 l 353.55,353.55 c -0.115,-0.118 -0.259,-0.214 -0.376,-0.331 z"
       inkscape:connector-curvature="0"
       id="path381" />
    <path
       d="m 227.21,211.11 c 0.014,0.014 0.028,0.029 0.041,0.045 l 353.55,353.55 c -0.013,-0.015 -0.027,-0.03 -0.041,-0.045 z"
       inkscape:connector-curvature="0"
       id="path383" />
    <path
       d="m 227.25,211.16 c 0.191,0.224 0.388,0.438 0.592,0.642 l 353.55,353.55 c -0.204,-0.204 -0.401,-0.418 -0.592,-0.642 z"
       inkscape:connector-curvature="0"
       id="path385" />
    <path
       d="m 227.84,211.8 c 0.491,0.491 1.025,0.923 1.627,1.295 l 353.55,353.55 c -0.602,-0.372 -1.136,-0.804 -1.627,-1.295 z"
       inkscape:connector-curvature="0"
       id="path387" />
    <path
       d="m 229.47,213.09 c 0.252,0.156 0.482,0.367 0.75,0.5 l 353.55,353.55 c -0.268,-0.133 -0.498,-0.344 -0.75,-0.5 z"
       inkscape:connector-curvature="0"
       id="path389" />
    <path
       d="m 230.22,213.59 c 0.521,0.253 1.14,0.314 1.719,0.469 l 353.55,353.55 c -0.579,-0.154 -1.198,-0.216 -1.719,-0.469 z"
       inkscape:connector-curvature="0"
       id="path391" />
    <path
       d="m 231.94,214.06 c 0.529,0.145 1.023,0.348 1.563,0.438 l 353.55,353.55 c -0.54,-0.089 -1.033,-0.293 -1.563,-0.438 z"
       inkscape:connector-curvature="0"
       id="path393" />
    <path
       d="m 233.5,214.5 c 2.27,-8.957 5.957,-17.601 10.781,-25.594 l 353.55,353.55 c -4.825,7.993 -8.511,16.637 -10.781,25.594 z"
       inkscape:connector-curvature="0"
       id="path395" />
    <path
       d="m 244.28,188.91 c -2.044,-1.253 -3.958,-1.859 -5.906,-1.844 l 353.55,353.55 c 1.948,-0.015 3.862,0.59 5.906,1.844 z"
       inkscape:connector-curvature="0"
       id="path397" />
    <path
       d="m 238.38,187.06 v -0.031 l 353.55,353.55 v 0.031 z"
       inkscape:connector-curvature="0"
       id="path399" />
    <path
       d="m 51.938,279.22 c -0.483,0 -0.949,0.014 -1.406,0.031 l 353.55,353.55 c 0.457,-0.018 0.923,-0.031 1.406,-0.031 z"
       inkscape:connector-curvature="0"
       id="path401" />
    <path
       d="m 50.53,279.25 c -2.744,0.107 -5.03,0.575 -5.781,1.688 l 353.55,353.55 c 0.748,-1.112 3.037,-1.581 5.781,-1.688 z"
       inkscape:connector-curvature="0"
       id="path403" />
    <path
       d="m 44.75,280.94 c -0.62,0.922 -1.041,1.596 -1.5,2.406 l 353.55,353.55 c 0.459,-0.811 0.88,-1.485 1.5,-2.406 z"
       inkscape:connector-curvature="0"
       id="path405" />
    <path
       d="m 43.25,283.34 c -0.062,0.11 -0.19,0.173 -0.25,0.281 l 353.55,353.55 c 0.06,-0.108 0.188,-0.172 0.25,-0.281 z"
       inkscape:connector-curvature="0"
       id="path407" />
    <path
       d="m 43,283.63 c -0.411,0.747 -0.687,1.494 -0.969,2.156 l 353.55,353.55 c 0.281,-0.662 0.557,-1.409 0.969,-2.156 z"
       inkscape:connector-curvature="0"
       id="path409" />
    <path
       d="m 42.03,285.78 c -0.246,0.586 -0.348,1.16 -0.5,1.688 l 353.55,353.55 c 0.152,-0.528 0.254,-1.101 0.5,-1.688 z"
       inkscape:connector-curvature="0"
       id="path411" />
    <path
       d="m 41.531,287.47 c -0.226,0.77 -0.491,1.526 -0.531,2.188 l 353.55,353.55 c 0.041,-0.662 0.305,-1.417 0.531,-2.188 z"
       inkscape:connector-curvature="0"
       id="path413" />
    <path
       d="m 41,289.66 c -0.051,0.849 0.066,1.697 0.281,2.406 l 353.55,353.55 c -0.215,-0.709 -0.333,-1.558 -0.281,-2.406 z"
       inkscape:connector-curvature="0"
       id="path415" />
    <path
       d="m 41.28,292.06 c 0.218,0.721 0.552,1.281 1,1.906 l 353.55,353.55 c -0.448,-0.625 -0.782,-1.185 -1,-1.906 z"
       inkscape:connector-curvature="0"
       id="path417" />
    <path
       d="m 42.28,293.97 c 0.343,0.478 0.726,1.01 1.177,1.459 l 353.55,353.55 c -0.451,-0.451 -0.835,-0.981 -1.177,-1.459 z"
       inkscape:connector-curvature="0"
       id="path419" />
    <path
       d="m 43.46,295.43 c 0.014,0.014 0.028,0.027 0.041,0.041 l 353.55,353.55 c -0.014,-0.014 -0.028,-0.027 -0.041,-0.041 z"
       inkscape:connector-curvature="0"
       id="path421" />
    <path
       d="m 43.5,295.47 c 10e-4,10e-4 0.002,0.002 0.003,0.003 l 353.55,353.55 c -10e-4,-10e-4 -0.002,-0.002 -0.003,-0.003 z"
       inkscape:connector-curvature="0"
       id="path423" />
    <path
       d="m 43.503,295.47 c 0.361,0.361 0.656,0.861 1.049,1.255 l 353.55,353.55 c -0.393,-0.393 -0.688,-0.893 -1.049,-1.255 z"
       inkscape:connector-curvature="0"
       id="path425" />
    <path
       d="m 44.552,296.73 c 0.063,0.063 0.129,0.123 0.198,0.18 L 398.3,650.46 c -0.069,-0.057 -0.135,-0.117 -0.198,-0.18 z"
       inkscape:connector-curvature="0"
       id="path427" />
    <path
       d="m 44.75,296.91 c 0.238,0.192 0.497,0.245 0.75,0.438 l 353.55,353.55 c -0.253,-0.192 -0.512,-0.245 -0.75,-0.438 z"
       inkscape:connector-curvature="0"
       id="path429" />
    <path
       d="m 45.5,297.34 c 1.628,1.264 3.663,2.559 5.656,4.125 l 353.55,353.55 c -1.993,-1.566 -4.03,-2.861 -5.656,-4.125 z"
       inkscape:connector-curvature="0"
       id="path431" />
    <path
       d="m 51.16,301.47 c 2.55,2.01 5.315,2.497 8.156,2.188 l 353.55,353.55 c -2.841,0.31 -5.606,-0.182 -8.156,-2.188 z"
       inkscape:connector-curvature="0"
       id="path433" />
    <path
       d="m 59.31,303.66 c 2.844,-0.31 5.567,-1.549 8.156,-2.906 l 353.55,353.55 c -2.59,1.357 -5.312,2.596 -8.156,2.906 z"
       inkscape:connector-curvature="0"
       id="path435" />
    <path
       d="m 67.47,300.75 c 5.183,-2.72 9.469,-6.276 10.375,-5.563 l 353.55,353.55 c -0.906,-0.713 -5.192,2.842 -10.375,5.563 z"
       inkscape:connector-curvature="0"
       id="path437" />
    <path
       d="m 77.84,295.19 c -1.335,-2.22 -2.529,-4.051 -3.719,-5.531 l 353.55,353.55 c 1.189,1.481 2.383,3.312 3.719,5.531 z"
       inkscape:connector-curvature="0"
       id="path439" />
    <path
       d="m 74.13,289.66 c -0.966,-1.275 -1.892,-2.351 -2.832,-3.291 l 353.55,353.55 c 0.94,0.94 1.865,2.02 2.832,3.291 z"
       inkscape:connector-curvature="0"
       id="path441" />
    <path
       d="m 71.29,286.37 c -2.426,-2.426 -4.948,-3.95 -8.512,-5.678 l 353.55,353.55 c 3.564,1.729 6.086,3.252 8.512,5.678 z"
       inkscape:connector-curvature="0"
       id="path443" />
    <path
       d="m 62.781,280.69 c -1.464,-0.709 -5.489,-1.287 -9.375,-1.438 l 353.55,353.55 c 3.886,0.15 7.911,0.728 9.375,1.438 z"
       inkscape:connector-curvature="0"
       id="path445" />
    <path
       d="m 53.41,279.25 c -0.486,-0.019 -0.986,-0.032 -1.469,-0.031 l 353.55,353.55 c 0.483,0 0.983,0.012 1.469,0.031 z"
       inkscape:connector-curvature="0"
       id="path447" />
    <path
       d="m 366.31,290.38 c -4.01,4.284 -8.253,8.32 -12.75,12.09 l 353.55,353.55 c 4.497,-3.773 8.741,-7.81 12.75,-12.09 z"
       inkscape:connector-curvature="0"
       id="path449" />
    <path
       d="m 353.56,302.47 c 8.789,1.129 17.352,2.088 24.13,-1.469 l 353.55,353.55 c -6.773,3.557 -15.336,2.597 -24.12,1.469 z"
       inkscape:connector-curvature="0"
       id="path451" />
    <path
       d="m 377.69,301 c -0.283,-2.57 -1.038,-4.775 -2.219,-6.313 l 353.55,353.55 c 1.181,1.537 1.936,3.742 2.219,6.313 z"
       inkscape:connector-curvature="0"
       id="path453" />
    <path
       d="m 375.47,294.69 c -0.016,-0.021 -0.033,-0.039 -0.05,-0.057 l 353.55,353.55 c 0.017,0.017 0.034,0.035 0.05,0.057 z"
       inkscape:connector-curvature="0"
       id="path455" />
    <path
       d="m 375.42,294.63 c -0.045,-0.045 -0.092,-0.08 -0.138,-0.128 l 353.55,353.55 c 0.046,0.047 0.093,0.083 0.138,0.128 z"
       inkscape:connector-curvature="0"
       id="path457" />
    <path
       d="m 375.28,294.5 c -0.01,-0.011 -0.021,-0.022 -0.031,-0.034 l 353.55,353.55 c 0.01,0.012 0.02,0.024 0.031,0.034 z"
       inkscape:connector-curvature="0"
       id="path459" />
    <path
       d="m 375.25,294.47 c -0.115,-0.14 -0.236,-0.272 -0.361,-0.398 l 353.55,353.55 c 0.125,0.125 0.246,0.257 0.361,0.398 z"
       inkscape:connector-curvature="0"
       id="path461" />
    <path
       d="m 374.89,294.07 c -0.493,-0.493 -1.059,-0.885 -1.639,-1.29 l 353.55,353.55 c 0.58,0.405 1.146,0.797 1.639,1.29 z"
       inkscape:connector-curvature="0"
       id="path463" />
    <path
       d="m 373.25,292.78 c -0.018,-0.013 -0.035,-0.028 -0.051,-0.044 l 353.55,353.55 c 0.016,0.016 0.033,0.031 0.051,0.044 z"
       inkscape:connector-curvature="0"
       id="path465" />
    <path
       d="m 373.2,292.74 c -0.052,-0.052 -0.097,-0.117 -0.15,-0.167 l 353.55,353.55 c 0.053,0.05 0.098,0.115 0.15,0.167 z"
       inkscape:connector-curvature="0"
       id="path467" />
    <path
       d="m 373.05,292.57 c -0.015,-0.015 -0.032,-0.028 -0.049,-0.039 l 353.55,353.55 c 0.017,0.011 0.033,0.025 0.049,0.039 z"
       inkscape:connector-curvature="0"
       id="path469" />
    <path
       d="m 373,292.53 c -0.221,-0.143 -0.517,-0.12 -0.75,-0.25 L 725.8,645.83 c 0.233,0.13 0.529,0.107 0.75,0.25 z"
       inkscape:connector-curvature="0"
       id="path471" />
    <path
       d="m 372.25,292.28 c -0.656,-0.368 -1.218,-0.706 -1.969,-0.969 l 353.55,353.55 c 0.751,0.263 1.313,0.601 1.969,0.969 z"
       inkscape:connector-curvature="0"
       id="path473" />
    <path
       d="m 370.28,291.31 c -1.214,-0.424 -2.554,-0.734 -3.969,-0.938 l 353.55,353.55 c 1.415,0.203 2.755,0.514 3.969,0.938 z"
       inkscape:connector-curvature="0"
       id="path475" />
    <path
       d="m 62.06,330.34 c -0.414,0 -0.806,0.037 -1.156,0.094 l 353.55,353.55 c 0.35,-0.057 0.742,-0.094 1.156,-0.094 z"
       inkscape:connector-curvature="0"
       id="path477" />
    <path
       d="m 60.906,330.44 c -0.927,0.15 -1.645,0.49 -2.219,0.969 l 353.55,353.55 c 0.574,-0.479 1.292,-0.819 2.219,-0.969 z"
       inkscape:connector-curvature="0"
       id="path479" />
    <path
       d="m 58.688,331.41 c -0.051,0.046 0.049,0.2 0,0.25 l 353.55,353.55 c 0.049,-0.05 -0.051,-0.204 0,-0.25 z"
       inkscape:connector-curvature="0"
       id="path481" />
    <path
       d="m 58.688,331.66 c -0.405,0.405 -0.766,0.889 -1,1.438 l 353.55,353.55 c 0.234,-0.548 0.595,-1.033 1,-1.438 z"
       inkscape:connector-curvature="0"
       id="path483" />
    <path
       d="m 57.688,333.09 c -0.298,0.673 -0.408,1.316 -0.469,2.156 l 353.55,353.55 c 0.061,-0.84 0.171,-1.484 0.469,-2.156 z"
       inkscape:connector-curvature="0"
       id="path485" />
    <path
       d="m 57.22,335.25 c -0.036,0.494 -0.032,0.936 0,1.469 l 353.55,353.55 c -0.033,-0.533 -0.036,-0.975 0,-1.469 z"
       inkscape:connector-curvature="0"
       id="path487" />
    <path
       d="m 57.22,336.72 c 0.046,1.075 0.179,2.255 0.469,3.406 l 353.55,353.55 c -0.29,-1.152 -0.423,-2.332 -0.469,-3.406 z"
       inkscape:connector-curvature="0"
       id="path489" />
    <path
       d="m 57.688,340.13 c 0.745,2.962 1.437,4.54 2.171,5.275 l 353.55,353.55 c -0.735,-0.735 -1.426,-2.312 -2.171,-5.275 z"
       inkscape:connector-curvature="0"
       id="path491" />
    <path
       d="m 59.859,345.4 c 0.488,0.488 0.994,0.604 1.547,0.507 l 353.55,353.55 c -0.553,0.097 -1.06,-0.019 -1.548,-0.506 z"
       inkscape:connector-curvature="0"
       id="path493" />
    <path
       d="m 61.41,345.91 c 0.693,-0.122 1.366,-0.635 2.219,-1.219 l 353.55,353.55 c -0.852,0.583 -1.526,1.097 -2.219,1.219 z"
       inkscape:connector-curvature="0"
       id="path495" />
    <path
       d="m 63.63,344.69 c 0.854,-0.583 1.873,-1.196 2.969,-1.688 l 353.55,353.55 c -1.096,0.491 -2.115,1.104 -2.969,1.688 z"
       inkscape:connector-curvature="0"
       id="path497" />
    <path
       d="m 66.59,343 c 6.145,-2.756 3.58,-3.324 0,-11.844 l 353.55,353.55 c 3.58,8.52 6.145,9.09 0,11.844 z"
       inkscape:connector-curvature="0"
       id="path499" />
    <path
       d="m 66.59,331.16 c -1.764,-0.555 -3.287,-0.814 -4.531,-0.813 l 353.55,353.55 c 1.245,-0.001 2.767,0.258 4.531,0.813 z"
       inkscape:connector-curvature="0"
       id="path501" />
    <path
       d="m 313.72,365.25 c -1.513,0.261 0.327,5.03 5.438,14.313 l 353.55,353.55 c -5.11,-9.279 -6.95,-14.05 -5.438,-14.313 z"
       inkscape:connector-curvature="0"
       id="path503" />
    <path
       d="m 319.16,379.56 c 4.583,8.319 9.225,18.06 10.375,21.281 l 353.55,353.55 c -1.15,-3.218 -5.792,-12.962 -10.375,-21.281 z"
       inkscape:connector-curvature="0"
       id="path505" />
    <path
       d="m 329.53,400.84 c 0.759,2.126 1.76,3.759 2.889,4.888 l 353.55,353.55 c -1.129,-1.129 -2.13,-2.762 -2.889,-4.888 z"
       inkscape:connector-curvature="0"
       id="path507" />
    <path
       d="m 332.42,405.73 c 3.239,3.239 7.528,2.33 10.173,-2.982 l 353.55,353.55 c -2.645,5.312 -6.934,6.22 -10.173,2.982 z"
       inkscape:connector-curvature="0"
       id="path509" />
    <path
       d="m 342.59,402.75 c 0.727,-1.458 1.215,-2.586 1.375,-3.625 l 353.55,353.55 c -0.16,1.039 -0.648,2.167 -1.375,3.625 z"
       inkscape:connector-curvature="0"
       id="path511" />
    <path
       d="m 343.97,399.13 c 0.088,-0.57 -0.052,-1.066 -0.188,-1.625 l 353.55,353.55 c 0.135,0.559 0.275,1.055 0.188,1.625 z"
       inkscape:connector-curvature="0"
       id="path513" />
    <path
       d="m 343.78,397.5 c -0.107,-0.437 -0.236,-0.995 -0.5,-1.469 l 353.55,353.55 c 0.264,0.474 0.393,1.032 0.5,1.469 z"
       inkscape:connector-curvature="0"
       id="path515" />
    <path
       d="m 343.28,396.03 c -0.046,-0.083 -0.074,-0.229 -0.125,-0.313 l 353.55,353.55 c 0.051,0.084 0.079,0.23 0.125,0.313 z"
       inkscape:connector-curvature="0"
       id="path517" />
    <path
       d="m 343.16,395.72 c -0.566,-0.934 -1.433,-1.921 -2.682,-3.171 l 353.55,353.55 c 1.25,1.25 2.116,2.237 2.682,3.171 z"
       inkscape:connector-curvature="0"
       id="path519" />
    <path
       d="m 340.47,392.55 c -1.035,-1.035 -2.334,-2.251 -3.943,-3.767 l 353.55,353.55 c 1.609,1.515 2.907,2.731 3.943,3.767 z"
       inkscape:connector-curvature="0"
       id="path521" />
    <path
       d="m 336.53,388.78 c -0.388,-0.365 -0.78,-0.747 -1.176,-1.143 l 353.55,353.55 c 0.396,0.396 0.788,0.778 1.176,1.143 z"
       inkscape:connector-curvature="0"
       id="path523" />
    <path
       d="m 335.36,387.64 c -1.506,-1.506 -3.071,-3.212 -4.668,-4.919 l 353.55,353.55 c 1.597,1.707 3.162,3.413 4.668,4.919 z"
       inkscape:connector-curvature="0"
       id="path525" />
    <path
       d="m 330.69,382.72 c -0.079,-0.084 -0.109,-0.26 -0.188,-0.344 l 353.55,353.55 c 0.078,0.084 0.109,0.26 0.188,0.344 z"
       inkscape:connector-curvature="0"
       id="path527" />
    <path
       d="m 330.5,382.38 c -0.086,-0.092 -0.171,-0.18 -0.257,-0.266 l 353.55,353.55 c 0.086,0.086 0.172,0.174 0.257,0.266 z"
       inkscape:connector-curvature="0"
       id="path529" />
    <path
       d="m 330.24,382.11 c -0.406,-0.406 -0.815,-0.759 -1.213,-1.161 l 353.55,353.55 c 0.398,0.402 0.807,0.755 1.213,1.161 z"
       inkscape:connector-curvature="0"
       id="path531" />
    <path
       d="m 329.03,380.95 c -0.083,-0.084 -0.166,-0.171 -0.249,-0.26 l 353.55,353.55 c 0.082,0.09 0.165,0.176 0.249,0.26 z"
       inkscape:connector-curvature="0"
       id="path533" />
    <path
       d="m 328.78,380.69 c -0.977,-1.081 -1.414,-1.946 -2.281,-2.969 l 353.55,353.55 c 0.867,1.023 1.304,1.887 2.281,2.969 z"
       inkscape:connector-curvature="0"
       id="path535" />
    <path
       d="m 326.5,377.72 c -1.62,-1.831 -3.092,-3.245 -4.063,-4.625 l 353.55,353.55 c 0.97,1.38 2.443,2.794 4.063,4.625 z"
       inkscape:connector-curvature="0"
       id="path537" />
    <path
       d="m 322.44,373.09 c -1.2,-1.707 -2.572,-3.321 -3.889,-4.638 l 353.55,353.55 c 1.317,1.317 2.689,2.931 3.889,4.638 z"
       inkscape:connector-curvature="0"
       id="path539" />
    <path
       d="m 318.55,368.46 c -1.788,-1.788 -3.473,-3.03 -4.486,-3.206 l 353.55,353.55 c 1.014,0.179 2.699,1.418 4.486,3.206 z"
       inkscape:connector-curvature="0"
       id="path541" />
    <path
       d="m 314.06,365.25 c -0.131,-0.023 -0.242,-0.018 -0.344,0 l 353.55,353.55 c 0.101,-0.018 0.212,-0.023 0.344,0 z"
       inkscape:connector-curvature="0"
       id="path543" />
  </g>
  <path
     d="M 484.91,0 333.1,158.31 c -0.697,0.743 -1.379,1.533 -2,2.313 -3.768,-0.698 -7.662,-1.069 -11.625,-1.063 -20.885,0.036 -43.682,10.354 -60.09,36.28 -24.14,38.15 -11.218,96.3 -57.12,132.75 0,0 80.38,4.641 127.91,-28.719 35.784,-25.11 53.31,-55.902 48.875,-86.34 3.565,-1.903 6.893,-4.425 9.781,-7.5 L 512.021,66.621 V 25.996 c 0,-14.397 -11.603,-26 -26,-26 h -1.094 m -321.37,95.13 c -0.632,0.036 -1.254,0.169 -1.781,0.344 -0.716,0.237 -1.293,0.567 -1.906,1.031 -0.483,0.365 -0.929,0.767 -1.375,1.25 -0.407,0.432 -1.041,0.771 -1.438,1.281 -0.185,0.244 -0.283,0.492 -0.469,0.75 -1.22,1.661 -2.425,3.778 -3.938,5.813 -1.936,2.604 -2.323,5.356 -1.938,8.188 0.386,2.835 1.638,5.539 3.063,8.094 2.851,5.112 6.532,9.292 5.844,10.219 2.182,-1.394 4.02,-2.615 5.469,-3.844 4.472,-3.58 6.36,-6.585 8.625,-11.594 0.671,-1.482 1.14,-5.548 1.188,-9.438 0.047,-3.89 -0.398,-7.665 -1.906,-8.625 -0.938,-0.595 -1.645,-0.969 -2.469,-1.406 -0.111,-0.06 -0.14,-0.193 -0.25,-0.25 -0.756,-0.391 -1.519,-0.641 -2.188,-0.906 -0.593,-0.23 -1.156,-0.299 -1.688,-0.438 -0.777,-0.206 -1.556,-0.446 -2.219,-0.469 -0.212,-0.007 -0.414,-0.012 -0.625,0 m -62.719,77.41 c -1.284,0.06 -2.561,0.294 -3.875,0.75 -2.425,0.842 -4.902,2.677 -7.375,5.125 -7.73,11.493 -26.648,1.383 -33.781,14.313 -0.138,0.601 -0.1,1.036 -0.188,1.594 -0.156,0.974 -0.361,1.872 -0.375,2.719 -0.005,0.355 0.045,0.636 0.063,0.969 0.039,0.786 0.086,1.546 0.25,2.219 0.203,0.84 0.436,1.573 0.813,2.25 0.386,0.696 0.861,1.271 1.406,1.813 0.353,0.349 0.776,0.865 1.188,1.156 0.18,0.127 0.434,0.165 0.625,0.281 0.467,0.283 0.789,0.588 1.313,0.813 0.258,0.115 0.604,0.117 0.875,0.219 1.526,0.549 3.26,0.866 5.094,1.063 1.647,0.177 3.289,0.265 5.063,0.25 0.846,-0.005 1.675,-0.09 2.531,-0.125 1.215,-0.051 2.482,0.087 3.688,0 4.132,-0.29 8.08,-0.803 11.188,-0.813 14.45,-1.625 23.267,7.89 32.16,14.875 1.55,-0.172 2.937,-0.479 4.125,-0.906 0.486,-0.172 0.884,-0.509 1.313,-0.719 0.152,-0.074 0.324,-0.108 0.469,-0.188 1.069,-0.568 1.684,-1.306 2.406,-2.094 0.605,-0.659 1.238,-1.31 1.625,-2.094 0.471,-0.956 0.817,-2.056 1,-3.156 0.012,-0.07 -0.103,-0.147 -0.094,-0.219 0.127,-0.966 0.277,-2.149 0.219,-3.188 -0.012,-0.261 0.023,-0.485 0,-0.75 -0.11,-1.264 -0.485,-2.502 -0.813,-3.813 -0.273,-1.054 -0.491,-2.2 -0.875,-3.25 -0.108,-0.305 -0.164,-0.634 -0.281,-0.938 -0.41,-1.039 -0.887,-2.092 -1.375,-3.094 -0.15,-0.309 -0.374,-0.541 -0.531,-0.844 -1.545,-2.995 -3.349,-5.876 -5.125,-7.938 -5.542,-8.096 -13.727,-16.698 -22.719,-16.281 m 88.12,9.938 c -2.779,2.243 -4.188,4.821 -4.938,7.688 -0.38,1.451 -0.711,3.069 -0.75,4.625 -0.05,1.716 0.294,3.484 0.5,5.281 0.417,3.329 0.948,6.773 1.469,10.156 -0.019,0.077 0.019,0.174 0,0.25 1.329,8.8 1.351,17.207 -9.125,22.656 -16.72,12.06 -41.32,1.709 -54.875,20.06 -8.06,10.959 -17.586,7.086 -26.688,3.375 -0.766,-0.313 -1.424,-0.666 -2.188,-0.969 -1.546,-0.61 -3.175,-1.241 -4.688,-1.688 -2.318,-0.685 -4.498,-1.119 -6.688,-0.969 -1.809,0.125 -3.534,0.654 -5.219,1.688 0.72,0.874 1.404,1.608 2.25,2.406 0.786,0.752 1.591,1.457 2.469,2.156 1.517,1.203 3.233,2.277 4.938,3.375 0.254,0.164 0.492,0.369 0.75,0.531 0.254,0.16 0.463,0.309 0.719,0.469 3.791,2.352 7.845,4.546 11.625,7 0.494,0.322 1.016,0.606 1.5,0.938 0.441,0.3 0.788,0.66 1.219,0.969 1.484,1.066 2.878,2.457 4.188,3.656 0.129,0.119 0.373,0.13 0.5,0.25 0.889,0.836 1.726,1.486 2.5,2.406 0.187,0.223 0.289,0.491 0.469,0.719 0.556,0.709 0.993,1.39 1.469,2.156 0.15,0.238 0.358,0.475 0.5,0.719 0.461,0.808 0.887,1.778 1.25,2.656 0.292,0.698 0.527,1.408 0.75,2.156 0.145,0.486 0.355,0.991 0.469,1.5 0.018,0.079 -0.018,0.109 0,0.188 0.256,1.205 0.434,2.569 0.5,3.906 0.07,1.42 -0.085,2.732 -0.25,4.313 2.916,19.392 -12.568,34.839 -16.06,52.41 -0.016,0.079 0.016,0.17 0,0.25 -0.668,3.47 -0.727,6.926 -0.219,10.625 0.571,2.094 1.215,4.113 2.188,6.25 0.4,0.888 0.808,1.764 1.25,2.656 1.707,3.43 3.719,6.944 5.438,10.375 0.242,0.483 0.519,0.954 0.75,1.438 0.112,0.235 0.109,0.514 0.219,0.75 0.938,2.01 1.893,4.02 2.5,6 0.67,2.195 0.959,4.404 0.969,6.531 0.001,0.314 0.018,0.656 0,0.969 -0.102,2.03 -0.497,4.115 -1.469,6.06 -0.304,0.61 -0.811,1.088 -1.219,1.688 -0.262,0.384 -0.474,0.809 -0.781,1.188 -0.498,0.623 -1.094,1.078 -1.719,1.688 -0.342,0.334 -0.586,0.639 -0.969,0.969 -1.053,0.919 -2.081,1.774 -3.469,2.656 -8.439,7.528 -6.502,14.51 -1.25,11.594 0.875,-0.486 1.693,-1.109 2.719,-2.188 1.026,-1.079 2.109,-2.556 3.219,-4.313 5.401,-16.742 32.837,-27.882 37.594,-7.75 0.317,1.343 0.363,2.967 0.469,4.594 1.729,6.098 -0.612,15.11 -1.75,23.16 -1.138,8.05 -0.971,15.15 5.219,17.375 1.768,-20.355 2.579,-45.93 22.22,-57.688 1.31,-0.784 2.706,-1.501 4.188,-2.156 18.518,-9.67 29.917,15.355 47.19,13.281 1.151,-0.138 2.261,-0.571 3.469,-0.969 22.19,-9.326 29.562,14.4 44.47,23.625 12.661,0.494 17.586,-7.457 19.813,-18.313 0.318,-1.551 0.493,-3.231 0.719,-4.875 1.81,-13.151 1,-28.748 5.656,-37.875 11.791,-11.182 15.911,-25.397 19.06,-40.28 -47.544,20.679 -102.22,19.911 -153.37,15.781 11.787,-12.178 26.408,-21.282 38.5,-32.969 16.73,-16.924 21.877,-39.629 26.594,-62.31 -6.106,-2.681 -11.611,-6.938 -16.03,-12.938 -18.304,-12.01 -7.915,-34.441 -16.781,-50 -0.694,-2.138 -2.413,-1.709 -3.938,-1.906 m 49.44,4.563 c -3.112,0.023 -6.162,1.65 -9.375,4.844 -1.624,1.615 -2.685,3.434 -3.469,5.281 -0.478,1.129 -0.777,2.231 -0.969,3.375 -0.413,2.312 -0.192,4.748 0.438,6.781 0.227,0.678 0.45,1.326 0.781,1.938 0.276,0.525 0.62,0.972 0.969,1.438 0.138,0.18 0.353,0.298 0.5,0.469 0.652,0.765 1.366,1.411 2.219,1.938 0.252,0.156 0.482,0.367 0.75,0.5 0.521,0.253 1.14,0.314 1.719,0.469 0.529,0.145 1.023,0.348 1.563,0.438 2.27,-8.957 5.957,-17.601 10.781,-25.594 -2.044,-1.253 -3.958,-1.859 -5.906,-1.844 v -0.031 m -186.44,92.19 c -0.483,0 -0.949,0.014 -1.406,0.031 -2.744,0.107 -5.03,0.575 -5.781,1.688 -0.62,0.922 -1.041,1.596 -1.5,2.406 -0.062,0.11 -0.19,0.173 -0.25,0.281 -0.411,0.747 -0.687,1.494 -0.969,2.156 -0.246,0.586 -0.348,1.16 -0.5,1.688 -0.226,0.77 -0.491,1.526 -0.531,2.188 -0.051,0.849 0.066,1.697 0.281,2.406 0.218,0.721 0.552,1.281 1,1.906 0.353,0.493 0.749,1.04 1.219,1.5 0.421,0.42 0.751,1.027 1.25,1.438 0.238,0.192 0.497,0.245 0.75,0.438 1.628,1.264 3.663,2.559 5.656,4.125 2.55,2.01 5.315,2.497 8.156,2.188 2.844,-0.31 5.567,-1.549 8.156,-2.906 5.183,-2.72 9.469,-6.276 10.375,-5.563 -1.335,-2.22 -2.529,-4.051 -3.719,-5.531 -3.46,-4.566 -6.399,-6.571 -11.344,-8.969 -1.464,-0.709 -5.489,-1.287 -9.375,-1.438 -0.486,-0.019 -0.986,-0.032 -1.469,-0.031 m 314.38,11.156 c -4.01,4.284 -8.253,8.32 -12.75,12.09 8.789,1.129 17.352,2.088 24.13,-1.469 -0.283,-2.57 -1.038,-4.775 -2.219,-6.313 -0.069,-0.089 -0.147,-0.132 -0.219,-0.219 -0.567,-0.692 -1.272,-1.18 -2,-1.688 -0.092,-0.065 -0.155,-0.188 -0.25,-0.25 -0.221,-0.143 -0.517,-0.12 -0.75,-0.25 -0.656,-0.368 -1.218,-0.706 -1.969,-0.969 -1.214,-0.424 -2.554,-0.734 -3.969,-0.938 m -304.25,39.969 c -0.414,0 -0.806,0.037 -1.156,0.094 -0.927,0.15 -1.645,0.49 -2.219,0.969 -0.051,0.046 0.049,0.2 0,0.25 -0.405,0.405 -0.766,0.889 -1,1.438 -0.298,0.673 -0.408,1.316 -0.469,2.156 -0.036,0.494 -0.032,0.936 0,1.469 0.046,1.075 0.179,2.255 0.469,3.406 1.239,4.929 2.332,6.02 3.719,5.781 0.693,-0.122 1.366,-0.635 2.219,-1.219 0.854,-0.583 1.873,-1.196 2.969,-1.688 6.145,-2.756 3.58,-3.324 0,-11.844 -1.764,-0.555 -3.287,-0.814 -4.531,-0.813 m 251.66,34.906 c -1.513,0.261 0.327,5.03 5.438,14.313 4.583,8.319 9.225,18.06 10.375,21.281 2.937,8.225 9.496,9.07 13.06,1.906 0.727,-1.458 1.215,-2.586 1.375,-3.625 0.088,-0.57 -0.052,-1.066 -0.188,-1.625 -0.107,-0.437 -0.236,-0.995 -0.5,-1.469 -0.046,-0.083 -0.074,-0.229 -0.125,-0.313 -1.035,-1.708 -3.075,-3.593 -6.625,-6.938 -1.862,-1.753 -3.826,-3.907 -5.844,-6.06 -0.079,-0.084 -0.109,-0.26 -0.188,-0.344 -0.575,-0.616 -1.16,-1.08 -1.719,-1.688 -0.977,-1.081 -1.414,-1.946 -2.281,-2.969 -1.62,-1.831 -3.092,-3.245 -4.063,-4.625 -2.829,-4.03 -6.615,-7.532 -8.375,-7.844 -0.131,-0.023 -0.242,-0.018 -0.344,0"
     inkscape:connector-curvature="0"
     id="path545"
     style="fill:#666666" />
</svg>
