<?xml version="1.0" encoding="UTF-8" standalone="no"?>
<!-- Created with Inkscape (http://www.inkscape.org/) -->

<svg
   xmlns:dc="http://purl.org/dc/elements/1.1/"
   xmlns:cc="http://creativecommons.org/ns#"
   xmlns:rdf="http://www.w3.org/1999/02/22-rdf-syntax-ns#"
   xmlns:svg="http://www.w3.org/2000/svg"
   xmlns="http://www.w3.org/2000/svg"
   xmlns:inkscape="http://www.inkscape.org/namespaces/inkscape"
   version="1.1"
   width="100%"
   height="100%"
   viewBox="0 0 512 512"
   id="svg2">
  <metadata
     id="metadata117">
    <rdf:RDF>
      <cc:Work
         rdf:about="">
        <dc:format>image/svg+xml</dc:format>
        <dc:type
           rdf:resource="http://purl.org/dc/dcmitype/StillImage" />
      </cc:Work>
    </rdf:RDF>
  </metadata>
  <defs
     id="defs4">
    <clipPath
       id="0">
      <path
         d="M 26,0 C 11.603,0 0,11.603 0,26 v 460 c 0,14.397 11.603,26 26,26 h 460 c 14.397,0 26,-11.603 26,-26 V 26 C 512,11.603 500.397,0 486,0 H 26"
         inkscape:connector-curvature="0"
         id="path7" />
    </clipPath>
  </defs>
  <path
     d="M 26,0 C 11.603,0 0,11.603 0,26 v 460 c 0,14.397 11.603,26 26,26 h 460 c 14.397,0 26,-11.603 26,-26 V 26 C 512,11.603 500.397,0 486,0 H 26"
     inkscape:connector-curvature="0"
     id="path9"
     style="fill:none" />
  <path
     d="m 171.59,330.5 -0.031,0.031 c -2.496,-0.021 -4.963,0.007 -7.469,0.063 -20.354,0.456 -41.03,3.545 -61.53,9.313 -39.17,11.02 -74.13,31.23 -102.56,58.16 v 87.94 c 0,14.397 11.603,26 26,26 h 460 c 14.397,0 26,-11.603 26,-26 v -73.06 c -30.759,-11.325 -65.23,-13.424 -99.16,-3.875 -16.466,4.632 -31.627,12.01 -45.44,21.19 -45.827,-61.55 -118.42,-99.1 -195.81,-99.75"
     inkscape:connector-curvature="0"
     id="path11"
     style="fill:#666666;fill-opacity:0.0" />
  <g
     id="g55"
     style="line-height:125%">
    <g
       transform="translate(-1044.51,-96.83)"
       id="g61"
       style="text-align:start;fill:#666666">
    </g>
  </g>
  <g
     clip-path="url(#0)"
     id="g71"
     style="opacity:0.0;fill:#000000;fill-rule:evenodd">
    <path
       d="m 173.5,109.16 -132.47,0.031 353.55,353.55 132.47,-0.031 z"
       inkscape:connector-curvature="0"
       id="path73" />
    <path
       d="m 41.03,109.19 v 50.34 l 353.55,353.55 v -50.34 z"
       inkscape:connector-curvature="0"
       id="path75" />
    <path
       d="m 41.03,159.53 h -0.031 l 353.55,353.55 h 0.031 z"
       inkscape:connector-curvature="0"
       id="path77" />
    <path
       d="M 41,159.53 V 402.81 L 394.55,756.36 V 513.08 z"
       inkscape:connector-curvature="0"
       id="path79" />
    <path
       d="m 41,402.81 h 91.53 l 353.55,353.55 h -91.53 z"
       inkscape:connector-curvature="0"
       id="path81" />
    <path
       d="M 132.53,402.81 V 200.72 l 353.55,353.55 v 202.09 z"
       inkscape:connector-curvature="0"
       id="path83" />
    <path
       d="M 132.53,200.72 H 379.41 L 732.96,554.27 H 486.09 z"
       inkscape:connector-curvature="0"
       id="path85" />
    <path
       d="M 379.41,200.72 V 402.81 L 732.96,756.36 V 554.27 z"
       inkscape:connector-curvature="0"
       id="path87" />
    <path
       d="m 379.41,402.81 h 91.53 l 353.55,353.55 h -91.53 z"
       inkscape:connector-curvature="0"
       id="path89" />
    <path
       d="M 470.94,402.81 V 163.97 l 353.55,353.55 v 238.84 z"
       inkscape:connector-curvature="0"
       id="path91" />
    <path
       d="m 470.94,163.97 c 0.047,-0.891 0.063,-1.787 0.063,-2.688 l 353.55,353.55 c 0,0.9 -0.015,1.797 -0.063,2.688 z"
       inkscape:connector-curvature="0"
       id="path93" />
    <path
       d="m 471,161.28 c 0,-14.13 -5.752,-26.919 -15.12,-36.29 l 353.55,353.55 c 9.371,9.371 15.12,22.16 15.12,36.29 z"
       inkscape:connector-curvature="0"
       id="path95" />
    <path
       d="m 455.88,124.99 c -9.776,-9.776 -23.49,-15.835 -38.722,-15.835 l 353.55,353.55 c 15.232,0 28.946,6.06 38.722,15.835 z"
       inkscape:connector-curvature="0"
       id="path97" />
    <path
       d="m 417.16,109.16 c -0.114,0 -0.23,-10e-4 -0.344,0 l 353.55,353.55 c 0.114,-10e-4 0.23,0 0.344,0 z"
       inkscape:connector-curvature="0"
       id="path99" />
    <path
       d="M 416.81,109.16 H 273.22 l 353.55,353.55 h 143.59 z"
       inkscape:connector-curvature="0"
       id="path101" />
    <path
       d="M 273.22,109.16 H 173.5 l 353.55,353.55 h 99.72 z"
       inkscape:connector-curvature="0"
       id="path103" />
    <path
       d="M 194.5,262.63 V 402.85 L 548.05,756.4 V 616.18 z"
       inkscape:connector-curvature="0"
       id="path105" />
    <path
       d="m 194.5,402.84 h 123 l 353.55,353.55 h -123 z"
       inkscape:connector-curvature="0"
       id="path107" />
    <path
       d="M 317.5,402.84 V 262.62 l 353.55,353.55 v 140.22 z"
       inkscape:connector-curvature="0"
       id="path109" />
    <path
       d="m 317.5,262.63 h -123 l 353.55,353.55 h 123 z"
       inkscape:connector-curvature="0"
       id="path111" />
  </g>
  <path
     d="m 173.5,109.16 -132.47,0.031 v 50.34 h -0.031 v 243.28 h 91.53 v -202.09 h 246.88 v 202.09 h 91.53 v -238.84 c 0.047,-0.891 0.063,-1.787 0.063,-2.688 0,-28.879 -24.01,-52.12 -53.844,-52.12 -0.114,0 -0.23,-10e-4 -0.344,0 h -143.59 -99.72 m 21,153.47 v 140.22 h 123 v -140.22 h -123"
     inkscape:connector-curvature="0"
     id="path113"
     style="fill:#666666;fill-rule:evenodd" />
</svg>
