<?xml version="1.0" encoding="UTF-8" standalone="no"?>
<!-- Created with Inkscape (http://www.inkscape.org/) -->

<svg
   xmlns:dc="http://purl.org/dc/elements/1.1/"
   xmlns:cc="http://creativecommons.org/ns#"
   xmlns:rdf="http://www.w3.org/1999/02/22-rdf-syntax-ns#"
   xmlns:svg="http://www.w3.org/2000/svg"
   xmlns="http://www.w3.org/2000/svg"
   xmlns:inkscape="http://www.inkscape.org/namespaces/inkscape"
   version="1.1"
   width="100%"
   height="100%"
   viewBox="0 0 512 512"
   id="svg2">
  <metadata
     id="metadata10">
    <rdf:RDF>
      <cc:Work
         rdf:about="">
        <dc:format>image/svg+xml</dc:format>
        <dc:type
           rdf:resource="http://purl.org/dc/dcmitype/StillImage" />
        <dc:title />
      </cc:Work>
    </rdf:RDF>
  </metadata>
  <defs
     id="defs8">
    <clipPath
       id="clipPath3363">
      <path
         d="M 26,0 C 11.602648,0 0,11.602648 0,26 l 0,460 c 0,14.39735 11.602648,26 26,26 l 460,0 c 14.39735,0 26,-11.60265 26,-26 L 512,26 C 512,11.602648 500.39735,0 486,0 L 26,0 z"
         inkscape:connector-curvature="0"
         id="path3365"
         style="fill:none;fill-opacity:1;stroke:none" />
    </clipPath>
  </defs>
  <path
     d="M 26,0 C 11.602648,0 0,11.602648 0,26 l 0,460 c 0,14.39735 11.602648,26 26,26 l 460,0 c 14.39735,0 26,-11.60265 26,-26 L 512,26 C 512,11.602648 500.39735,0 486,0 L 26,0 z"
     inkscape:connector-curvature="0"
     id="rect2986"
     style="fill:none;fill-opacity:1;stroke:none" />
  <path
     d="M 26,0 C 11.602648,0 0,11.602648 0,26 l 0,460 c 0,14.39735 11.602648,26 26,26 l 102.875,0 0,-512 L 26,0 z"
     inkscape:connector-curvature="0"
     id="path49"
     style="fill:none" />
  <path
     d="m 257.71875,0 0,512 128.84375,0 0,-512 -128.84375,0 z"
     inkscape:connector-curvature="0"
     id="path53"
     style="fill:none" />
  <path
     d="m 128.84375,0 0,512 128.875,0 0,-512 -128.875,0 z"
     inkscape:connector-curvature="0"
     id="path51"
     style="fill:none" />
  <g
     clip-path="url(#clipPath3363)"
     id="g3226"
     style="opacity:0.0;fill:#000000">
    <path
       d="M 256.80155,65.676881 C 195.90847,65.846326 134.92543,65.660191 74.096405,66.358475 L 463.00513,455.2672 c 60.82903,-0.69828 121.81207,-0.51214 182.70515,-0.68159 z"
       inkscape:connector-curvature="0"
       id="path3228"
       style="fill:#000000" />
    <path
       d="M 74.096405,66.358475 C 55.280415,70.423582 40.684815,82.6805 41.162225,111.24663 L 430.07095,500.15536 c -0.47741,-28.56613 14.11819,-40.82305 32.93418,-44.88816 z"
       inkscape:connector-curvature="0"
       id="path3230"
       style="fill:#000000" />
    <path
       d="m 41.162225,111.24663 c 0.4364,46.08961 -1.50041,102.13469 1.89469,147.89442 L 431.96564,648.04978 c -3.3951,-45.75973 -1.45829,-101.80481 -1.89469,-147.89442 z"
       inkscape:connector-curvature="0"
       id="path3232"
       style="fill:#000000" />
    <path
       d="m 43.056915,259.14105 c 4.057394,47.09586 26.451823,90.04146 59.309265,122.8989 l 388.90873,388.90873 c -32.85744,-32.85745 -55.25187,-75.80304 -59.30927,-122.8989 z"
       inkscape:connector-curvature="0"
       id="path3234"
       style="fill:#000000" />
    <path
       d="m 102.36618,382.03995 c 41.41245,41.41245 99.44567,66.79962 158.33489,64.27314 L 649.6098,835.22182 C 590.72058,837.7483 532.68736,812.36113 491.27491,770.94868 z"
       inkscape:connector-curvature="0"
       id="path3236"
       style="fill:#000000" />
    <path
       d="M 260.70107,446.31309 C 363.26456,446.10386 460.91442,361.62743 469.20629,258.20404 L 858.11502,647.11277 C 849.82315,750.53616 752.17329,835.01259 649.6098,835.22182 z"
       inkscape:connector-curvature="0"
       id="path3238"
       style="fill:#000000" />
    <path
       d="m 469.20629,258.20404 c 2.96505,-53.55493 1.4389,-107.25618 1.09754,-160.832935 L 859.21256,486.27983 c 0.34136,53.57676 1.86751,107.27801 -1.09754,160.83294 z"
       inkscape:connector-curvature="0"
       id="path3240"
       style="fill:#000000" />
    <path
       d="m 470.30383,97.371105 c -1.15178,-7.905512 -4.55889,-14.185099 -9.38035,-19.006561 L 849.83221,467.27327 c 4.82146,4.82147 8.22857,11.10105 9.38035,19.00656 z"
       inkscape:connector-curvature="0"
       id="path3242"
       style="fill:#000000" />
    <path
       d="M 460.92348,78.364544 C 449.79695,67.238012 431.13827,63.876757 415.28299,66.218558 L 804.19172,455.12729 c 15.85528,-2.3418 34.51396,1.01945 45.64049,12.14598 z"
       inkscape:connector-curvature="0"
       id="path3244"
       style="fill:#000000" />
    <path
       d="M 415.28299,66.218558 C 362.46358,65.775716 309.63129,65.652502 256.799,65.67561 l 388.90873,388.90873 c 52.83229,-0.0231 105.66458,0.10011 158.48399,0.54295 z"
       inkscape:connector-curvature="0"
       id="path3246"
       style="fill:#000000" />
    <path
       d="m 156.68851,174.93416 c 11.30587,0.12316 13.49442,3.58119 54.14151,41.51108 l 388.90873,388.90873 c -40.64709,-37.92989 -42.83564,-41.38792 -54.14151,-41.51108 z"
       inkscape:connector-curvature="0"
       id="path3248"
       style="fill:#000000" />
    <path
       d="m 210.83002,216.44524 c 5.44673,4.95767 10.3699,9.78582 15.12705,14.54297 L 614.8658,619.89694 c -4.75715,-4.75715 -9.68032,-9.5853 -15.12705,-14.54297 z"
       inkscape:connector-curvature="0"
       id="path3250"
       style="fill:#000000" />
    <path
       d="m 225.95707,230.98821 c 5.24497,5.24497 10.28811,10.40363 15.60861,15.55441 l 388.90873,388.90873 c -5.3205,-5.15079 -10.36364,-10.30944 -15.60861,-15.55441 z"
       inkscape:connector-curvature="0"
       id="path3252"
       style="fill:#000000" />
    <path
       d="m 241.56568,246.54262 c 4.66051,4.51184 9.53383,9.01763 14.94202,13.5701 l 388.90873,388.90873 c -5.40819,-4.55247 -10.28151,-9.05826 -14.94202,-13.5701 z"
       inkscape:connector-curvature="0"
       id="path3254"
       style="fill:#000000" />
    <path
       d="m 256.5077,260.11272 c 27.88961,-25.25578 56.55461,-55.63049 84.8962,-80.24961 l 388.90873,388.90873 c -28.34159,24.61912 -57.00659,54.99383 -84.8962,80.24961 z"
       inkscape:connector-curvature="0"
       id="path3256"
       style="fill:#000000" />
    <path
       d="m 341.4039,179.86311 c 11.82891,-8.47445 27.57295,-5.26789 37.1086,4.26776 L 767.42123,573.0396 c -9.53565,-9.53565 -25.27969,-12.74221 -37.1086,-4.26776 z"
       inkscape:connector-curvature="0"
       id="path3258"
       style="fill:#000000" />
    <path
       d="m 378.5125,184.13087 c 5.02306,5.02306 8.3234,11.80234 8.42127,19.55554 L 775.8425,592.59514 c -0.0979,-7.7532 -3.39821,-14.53248 -8.42127,-19.55554 z"
       inkscape:connector-curvature="0"
       id="path3260"
       style="fill:#000000" />
    <path
       d="m 386.93377,203.68641 c 0.71119,16.88684 -18.21652,28.91144 -40.43031,51.51019 l 388.90873,388.90873 c 22.21379,-22.59875 41.1415,-34.62335 40.43031,-51.51019 z"
       inkscape:connector-curvature="0"
       id="path3262"
       style="fill:#000000" />
    <path
       d="m 346.50346,255.1966 c -24.80775,23.47544 -48.28833,46.20513 -74.21793,69.08755 l 388.90873,388.90873 c 25.9296,-22.88242 49.41018,-45.61211 74.21793,-69.08755 z"
       inkscape:connector-curvature="0"
       id="path3264"
       style="fill:#000000" />
    <path
       d="m 272.28553,324.28415 c -21.01868,15.5442 -40.69985,-6.82095 -54.82964,-20.65284 l 388.90873,388.90873 c 14.12979,13.83189 33.81096,36.19704 54.82964,20.65284 z"
       inkscape:connector-curvature="0"
       id="path3266"
       style="fill:#000000" />
    <path
       d="m 217.45589,303.63131 c -25.34386,-23.88426 -50.88808,-47.67833 -75.49857,-72.28882 l 388.90873,388.90873 c 24.61049,24.61049 50.15471,48.40456 75.49857,72.28882 z"
       inkscape:connector-curvature="0"
       id="path3268"
       style="fill:#000000" />
    <path
       d="m 141.95732,231.34249 c -3.24371,-3.24371 -6.4712,-6.50161 -9.67988,-9.77576 l 388.90873,388.90873 c 3.20867,3.27415 6.43617,6.53205 9.67988,9.77576 z"
       inkscape:connector-curvature="0"
       id="path3270"
       style="fill:#000000" />
    <path
       d="m 132.27744,221.56673 c -11.74863,-13.03479 -8.69252,-44.76496 24.41362,-46.6454 l 388.90873,388.90873 c -33.10614,1.88044 -36.16225,33.61061 -24.41362,46.6454 z"
       inkscape:connector-curvature="0"
       id="path3272"
       style="fill:#000000" />
  </g>
  <path
     d="m 256.80155,65.676881 c -60.89308,0.169445 -121.87612,-0.01669 -182.705145,0.681594 -18.81599,4.065107 -33.41159,16.322025 -32.93418,44.888155 0.4364,46.08961 -1.50041,102.13469 1.89469,147.89442 9.1712,106.45394 112.031075,191.70308 217.644155,187.17204 102.56349,-0.20923 200.21335,-84.68566 208.50522,-188.10905 2.96505,-53.55493 1.4389,-107.25618 1.09754,-160.832935 C 466.49409,71.221969 438.00884,62.861984 415.28299,66.218558 362.46358,65.775716 309.63129,65.652502 256.799,65.67561 M 156.68851,174.93416 c 11.30587,0.12316 13.49442,3.58119 54.14151,41.51108 16.71231,15.21173 28.49559,29.20407 45.67768,43.66748 27.88961,-25.25578 56.55461,-55.63049 84.8962,-80.24961 18.05998,-12.93851 45.2462,1.35162 45.52987,23.8233 0.71119,16.88684 -18.21652,28.91144 -40.43031,51.51019 -24.80775,23.47544 -48.28833,46.20513 -74.21793,69.08755 -21.01868,15.5442 -40.69985,-6.82095 -54.82964,-20.65284 -28.68423,-27.03226 -57.62513,-53.94898 -85.17845,-82.06458 -11.74863,-13.03479 -8.69252,-44.76496 24.41362,-46.6454"
     inkscape:connector-curvature="0"
     id="path63"
     style="fill:#666666" />
</svg>
