<?xml version="1.0" encoding="UTF-8" standalone="no"?>
<!-- Created with Inkscape (http://www.inkscape.org/) -->

<svg
   xmlns:dc="http://purl.org/dc/elements/1.1/"
   xmlns:cc="http://creativecommons.org/ns#"
   xmlns:rdf="http://www.w3.org/1999/02/22-rdf-syntax-ns#"
   xmlns:svg="http://www.w3.org/2000/svg"
   xmlns="http://www.w3.org/2000/svg"
   xmlns:inkscape="http://www.inkscape.org/namespaces/inkscape"
   version="1.1"
   width="100%"
   height="100%"
   viewBox="0 0 512 512"
   id="svg2">
  <metadata
     id="metadata64">
    <rdf:RDF>
      <cc:Work
         rdf:about="">
        <dc:format>image/svg+xml</dc:format>
        <dc:type
           rdf:resource="http://purl.org/dc/dcmitype/StillImage" />
      </cc:Work>
    </rdf:RDF>
  </metadata>
  <defs
     id="defs4" />
  <path
     d="M 26,0 C 11.603,0 0,11.603 0,26 v 460 c 0,14.397 11.603,26 26,26 h 460 c 14.397,0 26,-11.603 26,-26 V 26 C 512,11.603 500.397,0 486,0 H 26"
     inkscape:connector-curvature="0"
     id="path10"
     style="fill:none" />
  <path
     d="m 231.88,41 c -26.745,0 -48.31,21.5 -48.31,48.25 v 38.719 l -12.688,-12.688 h -72.19 -0.031 v -0.031 c -22.645,0 -40.906,18.19 -40.906,40.844 v 274.06 c 0,11.311 4.557,21.495 11.938,28.875 l 52.969,52.969 h 363.34 c 14.397,0 26,-11.603 26,-26 v -359 L 440.127,55.123 c -8.732,-8.732 -20.782,-14.12 -34.16,-14.12 h -174.09"
     inkscape:connector-curvature="0"
     id="path58"
     style="opacity:0.0" />
  <path
     d="m 231.87,41 c -26.745,0 -48.3,21.504 -48.3,48.25 v 119.14 c 0,25.555 19.662,46.3 44.753,48.1 v 52.616 c 0.01,3.598 2.411,7.07 5.785,8.321 3.374,1.249 7.493,0.187 9.839,-2.538 l 50.08,-58.25 h 4.821 107.11 c 26.745,0 48.3,-21.554 48.3,-48.3 V 89.309 c 0,-26.745 -21.554,-48.3 -48.3,-48.3 h -174.09 m 70.43,43.839 v 134.21 l -45.868,-37.14 h -33.488 c -3.731,0 -6.748,-3.02 -6.748,-6.748 v -47.28 c 0,-3.731 3.02,-6.698 6.748,-6.698 h 32.782 l 46.579,-36.33 m 37.953,18.519 h 79.965 c 5.01,0 9.03,4.069 9.03,9.08 0,5.01 -4.02,9.03 -9.03,9.03 h -79.965 c -5.01,0 -9.03,-4.02 -9.03,-9.03 0,-5.01 4.02,-9.08 9.03,-9.08 m -241.62,11.874 c -22.645,0 -40.9,18.2 -40.9,40.851 v 274.04 c 0,22.645 18.25,40.851 40.9,40.851 h 203.57 c 22.645,0 40.9,-18.2 40.9,-40.851 v -160.48 c -14.334,-0.284 -28.662,-0.547 -42.926,-0.05 l -40.491,47.13 c -6.641,13.845 -27.667,19.372 -38.562,7.357 -10.417,-16.716 -4.494,-37.974 -5.48,-56.57 -19.739,-5.296 -36.33,-21.254 -42.36,-40.851 -5.059,-36.844 -2.299,-74.27 -2.435,-111.42 h -72.2 m 241.62,27.651 h 79.965 c 5.01,0 9.03,4.069 9.03,9.08 0,5.01 -4.02,9.03 -9.03,9.03 h -79.965 c -5.01,0 -9.03,-4.02 -9.03,-9.03 0,-5.01 4.02,-9.08 9.03,-9.08 m -228.53,12.686 h 45.868 c -0.227,7.509 -0.507,15.04 -0.559,22.528 h -45.31 c -6.251,0 -11.265,-5.01 -11.265,-11.265 0,-6.251 5.01,-11.265 11.265,-11.265 m 228.53,26.841 h 79.965 c 5.01,0 9.03,4.069 9.03,9.08 0,5.01 -4.02,9.03 -9.03,9.03 h -79.965 c -5.01,0 -9.03,-4.02 -9.03,-9.03 0,-5.01 4.02,-9.08 9.03,-9.08 m -228.53,23.645 h 46.32 c 0.679,7.574 1.752,15.13 3.45,22.579 h -49.775 c -6.251,0 -11.265,-5.064 -11.265,-11.315 0,-6.251 5.01,-11.265 11.265,-11.265 m 0,50.48 h 63.63 c 7.444,8.674 16.805,15.671 27.298,20.14 -0.055,0.787 -0.097,1.64 -0.153,2.435 h -90.77 c -6.251,0 -11.265,-5.064 -11.265,-11.315 0,-6.251 5.01,-11.265 11.265,-11.265 m 0,50.48 h 90.62 c 0.893,8.167 2.96,16.01 7.357,22.579 h -97.97 c -6.251,0 -11.265,-5.01 -11.265,-11.265 0,-6.251 5.01,-11.315 11.265,-11.315 m 173.58,0 h 3.806 c 6.251,0 11.265,5.064 11.265,11.315 0,6.251 -5.01,11.265 -11.265,11.265 h -21.869 c 2.872,-2.989 5.335,-6.329 7.206,-9.945 l 10.859,-12.634 m -173.58,50.48 h 177.38 c 6.251,0 11.265,5.064 11.265,11.315 0,6.251 -5.01,11.265 -11.265,11.265 H 111.75 c -6.251,0 -11.265,-5.01 -11.265,-11.265 0,-6.251 5.01,-11.315 11.265,-11.315 m 0,50.48 h 177.38 c 6.251,0 11.265,5.064 11.265,11.315 0,6.251 -5.01,11.265 -11.265,11.265 H 111.75 c -6.251,0 -11.265,-5.01 -11.265,-11.265 0,-6.251 5.01,-11.315 11.265,-11.315"
     inkscape:connector-curvature="0"
     id="path60"
     style="fill:#666666" />
</svg>
