<?xml version="1.0" encoding="UTF-8" standalone="no"?>
<!-- Created with Inkscape (http://www.inkscape.org/) -->

<svg
   xmlns:dc="http://purl.org/dc/elements/1.1/"
   xmlns:cc="http://creativecommons.org/ns#"
   xmlns:rdf="http://www.w3.org/1999/02/22-rdf-syntax-ns#"
   xmlns:svg="http://www.w3.org/2000/svg"
   xmlns="http://www.w3.org/2000/svg"
   xmlns:inkscape="http://www.inkscape.org/namespaces/inkscape"
   version="1.1"
   width="100%"
   height="100%"
   viewBox="0 0 512 512"
   id="svg2">
  <metadata
     id="metadata365">
    <rdf:RDF>
      <cc:Work
         rdf:about="">
        <dc:format>image/svg+xml</dc:format>
        <dc:type
           rdf:resource="http://purl.org/dc/dcmitype/StillImage" />
      </cc:Work>
    </rdf:RDF>
  </metadata>
  <defs
     id="defs4">
    <clipPath
       id="0">
      <path
         d="m 25.992,-0.013 c -14.397,0 -26,11.603 -26,26 v 460 c 0,14.397 11.603,26 26,26 h 460 c 14.397,0 26,-11.603 26,-26 v -460 c 0,-14.397 -11.603,-26 -26,-26 h -460"
         inkscape:connector-curvature="0"
         id="path7" />
    </clipPath>
  </defs>
  <g
     id="g51"
     style="line-height:125%;letter-spacing:0;word-spacing:0;font-family:Gentium Book Basic">
  </g>
  <path
     d="m 25.992,-0.013 c -14.397,0 -26,11.603 -26,26 v 460 c 0,14.397 11.603,26 26,26 h 460 c 14.397,0 26,-11.603 26,-26 v -460 c 0,-14.397 -11.603,-26 -26,-26 h -460"
     inkscape:connector-curvature="0"
     id="path103"
     style="fill:none" />
  <path
     d="m 25.992,-0.013 c -14.397,0 -26,11.603 -26,26 v 232.75 c 17.689,-13.975 51.23,-11.519 59.41,11.438 -9.229,-31.487 22.791,-56.2 40.75,-78.81 3.736,-11.04 25.951,-20.511 18.313,-5.844 13.02,-0.446 32.71,-22.719 9.594,-12.438 -0.327,-20.315 -20.231,-14.509 -26.688,-11.625 11.975,-18.03 73.51,-8.148 47.75,-37.625 -19.957,-7.672 -18.346,-52.44 -38.531,-27.5 1.698,-15.366 -41.09,-45.45 -40.16,-19.688 5.222,23.06 0.931,49.636 -10.188,64.75 C 57.922,107.608 -2.818,115.023 4.992,79.025 16.306,61.865 29.577,38.172 30.836,40.306 49.666,33.484 65.046,14.564 48.305,0.65 46.033,2.387 43.783,4.138 41.555,5.931 38.172,14.237 32.118,22.283 29.525,17.619 V 2.338 c 0,-0.79 -0.045,-1.576 -0.125,-2.344 h -3.406 m 50.656,0 c 1.324,1.88 2.574,4.179 3.75,7.06 23.08,12.618 2.041,34.04 -8.03,41.41 16.838,-9.377 46.32,37.28 38.28,11.375 -9.908,-6.863 26.63,11.02 7.688,-11.281 -17.431,-26.646 1.337,-11.906 8.688,-5.688 23.863,-20.3 -23.588,-23.58 -16.375,-42.875 h -34 m 89.88,0 c 2.161,0.576 4.54,0.588 5.875,0 h -5.875 m 12.813,0 c 0.685,7.01 -14.788,12.159 -1.344,19.438 -19.16,9.379 3.109,49.07 17.344,59 23.42,18.706 10.368,-39.623 36.5,-42.656 12.62,-13.669 33.686,-23.01 50.656,-35.781 H 179.34 m 278.91,0 c -15.882,13.98 -26.04,34.1 -37.719,51.813 -25.966,11.11 -25.01,58.792 4,43.563 7.765,12.866 -5.43,33.1 17.188,16.281 18.243,-22.903 3.204,-59.903 34.25,-74.34 2.261,11.23 -28.629,53.17 7.469,46.28 32.632,1.168 -23.684,3.068 -7.813,22.844 -16.49,-9.282 -7.944,25.341 -29.469,17.281 -18.647,9.622 -30.896,-4.471 -26.625,-19.906 -14.669,8.119 4.59,31.06 -20.875,32.438 -5.704,19.216 -52.612,16.276 -25.938,35.844 11.843,29.12 -44.11,1.837 -28.22,36.781 13.595,34.554 42.06,-11.427 53.625,-20.313 21.605,-15.903 53.29,25.25 37,29.344 20.504,-3.674 15.706,-23.17 -1.844,-30.813 -9.738,-23.959 30.812,11.8 28.563,23.813 14.313,25.426 8.435,-26.06 23,-3.281 -0.904,12.778 15.716,13.553 27.16,16.09 v -25.09 c -16.414,-0.516 -30.401,-6.136 -10.969,-24.375 2.732,-1.556 7.01,-0.147 10.969,1.563 V 26.003 c 0,-14.397 -11.603,-26 -26,-26 h -27.75 M 75.312,11.847 c -11.03,17.14 16.301,6.329 0,0 m 241.56,20.313 c -12.915,14.11 -29.94,-3.75 -30.22,8.375 2.341,3.664 11.709,29.827 32.25,10.531 11.02,-4.409 6.668,-15.498 -2.031,-18.906 m -275,8.375 c -24.497,20.3 41.602,22.21 5.188,2.375 l -5.188,-2.375 m 30.469,7.938 c -0.535,0.301 -1.024,0.673 -1.531,1.094 0.477,-0.314 0.981,-0.692 1.531,-1.094 m 292.41,48.5 c -16.997,10.994 8.791,33.898 0,44.719 -11.05,18.269 41.09,-1.269 13.25,-15.844 -1.907,-12.04 -15.256,-26.614 -13.188,-28.875 h -0.063 m -11.594,21.813 c -24.568,6.592 -5.579,40.618 3.125,8.563 0.489,-1.858 1.153,-8.624 -3.125,-8.563 m -196.75,24.594 c -22.861,14.79 -3.566,29.593 13.188,22.938 -3.44,-8.923 -13.03,-14.591 -13.188,-22.938 m 259.72,56.44 c -14.331,8.759 9.911,15.476 0,0 m 2.094,19.688 c -25.22,1.944 -56.46,1.7 -73.34,21.03 -18.262,23.769 -44.561,56.99 -24.656,87.34 19.917,44.969 69.29,2.312 97.69,28.875 8.439,11.07 -7.336,24.26 11.531,36.25 7.101,25.554 -8.06,49.819 9.375,74.25 9.02,22.973 14.656,57.36 48.22,36.38 12.954,-7.398 19.922,-17.07 24.969,-27.375 v -231.91 c -23.828,3.531 -47.27,-6.188 -67.813,0.469 -19.83,-0.167 -18.745,-20.276 -25.969,-25.313 m -361.97,61.969 c -2.416,7.647 45.32,15.407 12.375,3.156 l -4.906,-1.656 -7.469,-1.5 m -25.406,5.594 c -8.704,8.213 -21.944,10.562 -30.844,6.281 v 18.438 c 4.936,1.663 10.122,3.03 15.563,4.125 19.517,6.298 35.586,27.957 52.75,23.19 9.706,24.272 -28.774,47.576 1.281,70.22 15.689,22.92 42.07,37.98 27.813,70.16 -3.373,10.629 -5.134,21.567 -6.313,32.531 h 61.19 c 1.608,-4.077 4.969,-6.842 14.656,-5.531 16.448,-20.453 21.18,-44.884 48.938,-53 3.316,-24.827 46.16,-62.829 1.906,-72.5 -12.03,-5.624 -42.997,-7.6 -40.625,-10.375 4.795,-24.64 -40.01,-31.702 -59.09,-41.781 -25.05,-16.869 -62.706,28.02 -71.53,-10.656 -5.265,-12.17 -24.53,-12.315 -15.688,-31.09 m 62.44,5.281 c -14.475,13.948 29.836,4.167 0,0"
     inkscape:connector-curvature="0"
     id="path105"
     style="fill:#666666;fill-opacity:0.0" />
  <g
     id="g149"
     style="line-height:125%;letter-spacing:0;word-spacing:0;font-family:Gentium Book Basic">
  </g>
  <g
     id="g197"
     style="line-height:125%;letter-spacing:0;word-spacing:0;font-family:Gentium Book Basic">
  </g>
  <g
     clip-path="url(#0)"
     id="g249"
     style="opacity:0.0">
    <path
       d="m 148.54,75.05 c -34.832,0 -63.07,28.24 -63.07,63.07 l 353.55,353.55 c 0,-34.832 28.24,-63.07 63.07,-63.07 z"
       inkscape:connector-curvature="0"
       id="path251" />
    <path
       d="m 85.46,138.12 c 0,17.411 7.06,33.18 18.478,44.598 l 353.55,353.55 C 446.071,524.851 439.01,509.078 439.01,491.67 z"
       inkscape:connector-curvature="0"
       id="path253" />
    <path
       d="m 103.94,182.72 c 11.413,11.413 27.18,18.475 44.596,18.475 l 353.55,353.55 c -17.417,0 -33.18,-7.06 -44.596,-18.475 z"
       inkscape:connector-curvature="0"
       id="path255" />
    <path
       d="m 148.54,201.2 c 12.337,0 23.787,-3.596 33.511,-9.729 l 353.55,353.55 c -9.723,6.133 -21.17,9.729 -33.511,9.729 z"
       inkscape:connector-curvature="0"
       id="path257" />
    <path
       d="m 182.05,191.47 c 3.091,-20.16 13.935,-37.818 29.375,-49.82 l 353.55,353.55 c -15.44,12 -26.28,29.659 -29.375,49.82 z"
       inkscape:connector-curvature="0"
       id="path259" />
    <path
       d="m 211.42,141.65 c 0.065,-1.181 0.141,-2.334 0.141,-3.525 l 353.55,353.55 c 0,1.191 -0.076,2.344 -0.141,3.525 z"
       inkscape:connector-curvature="0"
       id="path261" />
    <path
       d="m 211.56,138.12 c 0,-17.426 -7.06,-33.2 -18.476,-44.618 l 353.55,353.55 c 11.416,11.416 18.476,27.19 18.476,44.618 z"
       inkscape:connector-curvature="0"
       id="path263" />
    <path
       d="M 193.09,93.51 C 181.687,82.107 165.94,75.055 148.54,75.055 l 353.55,353.55 c 17.399,0 33.15,7.05 44.55,18.455 z"
       inkscape:connector-curvature="0"
       id="path265" />
    <path
       d="m 363.51,75.05 c -34.5,0.005 -62.5,27.752 -63.03,62.13 l 353.55,353.55 c 0.525,-34.381 28.527,-62.13 63.03,-62.13 z"
       inkscape:connector-curvature="0"
       id="path267" />
    <path
       d="m 300.49,137.18 c 5.05,3.169 9.726,6.896 13.924,11.09 l 353.55,353.55 c -4.198,-4.198 -8.869,-7.925 -13.924,-11.09 z"
       inkscape:connector-curvature="0"
       id="path269" />
    <path
       d="m 314.41,148.28 c 12.316,12.316 20.558,28.689 22.454,46.951 l 353.55,353.55 C 688.518,530.519 680.276,514.146 667.96,501.83 z"
       inkscape:connector-curvature="0"
       id="path271" />
    <path
       d="m 336.86,195.23 c 8.103,3.789 17.11,5.969 26.649,5.969 l 353.55,353.55 c -9.535,0 -18.545,-2.18 -26.649,-5.969 z"
       inkscape:connector-curvature="0"
       id="path273" />
    <path
       d="m 363.51,201.2 c 34.832,0 63.07,-28.25 63.07,-63.07 l 353.55,353.55 c 0,34.826 -28.24,63.07 -63.07,63.07 z"
       inkscape:connector-curvature="0"
       id="path275" />
    <path
       d="m 426.59,138.12 c 0,-17.417 -7.06,-33.19 -18.474,-44.6 l 353.55,353.55 c 11.414,11.414 18.474,27.18 18.474,44.6 z"
       inkscape:connector-curvature="0"
       id="path277" />
    <path
       d="M 408.11,93.52 C 396.697,82.107 380.93,75.047 363.51,75.047 l 353.55,353.55 c 17.418,0 33.19,7.06 44.6,18.473 z"
       inkscape:connector-curvature="0"
       id="path279" />
    <path
       d="m 259.17,140.19 c -34.832,0 -63.07,28.2 -63.07,63.03 l 353.55,353.55 c 0,-34.828 28.24,-63.03 63.07,-63.03 z"
       inkscape:connector-curvature="0"
       id="path281" />
    <path
       d="m 196.1,203.22 c 0,17.416 7.06,33.18 18.475,44.598 l 353.55,353.55 C 556.711,589.954 549.65,574.188 549.65,556.77 z"
       inkscape:connector-curvature="0"
       id="path283" />
    <path
       d="m 214.57,247.82 c 11.415,11.415 27.18,18.476 44.598,18.476 l 353.55,353.55 c -17.415,0 -33.18,-7.06 -44.598,-18.476 z"
       inkscape:connector-curvature="0"
       id="path285" />
    <path
       d="m 259.17,266.29 c 34.832,0 63.07,-28.25 63.07,-63.07 l 353.55,353.55 c 0,34.828 -28.24,63.07 -63.07,63.07 z"
       inkscape:connector-curvature="0"
       id="path287" />
    <path
       d="m 322.25,203.22 c 0,-17.404 -7.05,-33.15 -18.452,-44.551 l 353.55,353.55 c 11.401,11.401 18.452,27.15 18.452,44.551 z"
       inkscape:connector-curvature="0"
       id="path289" />
    <path
       d="m 303.79,158.67 c -11.417,-11.417 -27.2,-18.475 -44.621,-18.475 l 353.55,353.55 c 17.426,0 33.2,7.06 44.621,18.475 z"
       inkscape:connector-curvature="0"
       id="path291" />
    <path
       d="M 121.75,205.48 C 77.226,205.48 41,241.7 41,286.23 l 353.55,353.55 c 0,-44.526 36.22,-80.75 80.75,-80.75 z"
       inkscape:connector-curvature="0"
       id="path293" />
    <path
       d="m 41,286.22 v 65.47 l 353.55,353.55 v -65.47 z"
       inkscape:connector-curvature="0"
       id="path295" />
    <path
       d="m 41,351.69 0.188,0.987 353.55,353.55 -0.188,-0.987 z"
       inkscape:connector-curvature="0"
       id="path297" />
    <path
       d="m 41.19,352.68 4.512,1.41 353.55,353.55 -4.512,-1.41 z"
       inkscape:connector-curvature="0"
       id="path299" />
    <path
       d="m 45.7,354.09 c 34.09,10.647 64.48,15.563 90.9,17.11 l 353.55,353.55 c -26.422,-1.545 -56.811,-6.461 -90.9,-17.11 z"
       inkscape:connector-curvature="0"
       id="path301" />
    <path
       d="m 136.6,371.2 v -19.74 l 353.55,353.55 v 19.74 z"
       inkscape:connector-curvature="0"
       id="path303" />
    <path
       d="m 136.6,351.46 c 0.011,-43.35 28.984,-80.06 68.57,-91.84 l 353.55,353.55 c -39.588,11.776 -68.56,48.49 -68.57,91.84 z"
       inkscape:connector-curvature="0"
       id="path305" />
    <path
       d="m 205.17,259.62 c -0.395,-0.379 -0.787,-0.763 -1.174,-1.15 l 353.55,353.55 c 0.387,0.387 0.779,0.771 1.174,1.15 z"
       inkscape:connector-curvature="0"
       id="path307" />
    <path
       d="m 204,258.47 c -13.594,-13.594 -22.15,-32.13 -22.795,-52.665 l 353.55,353.55 c 0.642,20.531 9.201,39.07 22.795,52.665 z"
       inkscape:connector-curvature="0"
       id="path309" />
    <path
       d="m 181.2,205.8 c -1.969,-0.144 -3.916,-0.329 -5.922,-0.329 l 353.55,353.55 c 2.01,0 3.953,0.185 5.922,0.329 z"
       inkscape:connector-curvature="0"
       id="path311" />
    <path
       d="M 175.28,205.48 H 121.75 L 475.3,559.03 h 53.53 z"
       inkscape:connector-curvature="0"
       id="path313" />
    <path
       d="m 337.19,205.48 c -0.575,21.251 -9.678,40.38 -24.02,54.14 l 353.55,353.55 c 14.339,-13.76 23.442,-32.892 24.02,-54.14 z"
       inkscape:connector-curvature="0"
       id="path315" />
    <path
       d="m 313.18,259.62 c 15.466,4.599 29.31,13.01 40.44,24.14 l 353.55,353.55 c -11.126,-11.126 -24.969,-19.536 -40.44,-24.14 z"
       inkscape:connector-curvature="0"
       id="path317" />
    <path
       d="m 353.61,283.75 c 17.346,17.346 28.09,41.3 28.09,67.7 L 735.25,705 c 0,-26.407 -10.744,-50.36 -28.09,-67.7 z"
       inkscape:connector-curvature="0"
       id="path319" />
    <path
       d="m 381.7,351.46 v 20.16 l 353.55,353.55 v -20.16 z"
       inkscape:connector-curvature="0"
       id="path321" />
    <path
       d="m 381.7,371.62 c 52.43,-1.927 82.66,-16.808 84.65,-17.813 l 353.55,353.55 c -1.988,1 -32.22,15.886 -84.65,17.813 z"
       inkscape:connector-curvature="0"
       id="path323" />
    <path
       d="m 466.35,353.81 4.23,-2.115 353.55,353.55 -4.23,2.115 z"
       inkscape:connector-curvature="0"
       id="path325" />
    <path
       d="m 470.58,351.69 h 0.423 l 353.55,353.55 h -0.423 z"
       inkscape:connector-curvature="0"
       id="path327" />
    <path
       d="m 471,351.69 v -65.47 l 353.55,353.55 v 65.47 z"
       inkscape:connector-curvature="0"
       id="path329" />
    <path
       d="m 471,286.22 c 0,-22.261 -9.06,-42.45 -23.677,-57.07 l 353.55,353.55 c 14.622,14.622 23.677,34.809 23.677,57.07 z"
       inkscape:connector-curvature="0"
       id="path331" />
    <path
       d="M 447.32,229.15 C 432.71,214.54 412.542,205.486 390.3,205.474 l 353.55,353.55 c 22.243,0.013 42.41,9.07 57.02,23.676 z"
       inkscape:connector-curvature="0"
       id="path333" />
    <path
       d="m 390.3,205.48 h -53.11 l 353.55,353.55 h 53.11 z"
       inkscape:connector-curvature="0"
       id="path335" />
    <path
       d="m 232.43,270.57 c -44.524,0 -80.75,36.28 -80.75,80.79 l 353.55,353.55 c 0,-44.517 36.22,-80.79 80.75,-80.79 z"
       inkscape:connector-curvature="0"
       id="path337" />
    <path
       d="m 151.68,351.36 v 65.42 l 353.55,353.55 v -65.42 z"
       inkscape:connector-curvature="0"
       id="path339" />
    <path
       d="m 151.68,416.79 0.141,1.034 353.55,353.55 -0.141,-1.034 z"
       inkscape:connector-curvature="0"
       id="path341" />
    <path
       d="m 151.83,417.82 4.512,1.41 353.55,353.55 -4.512,-1.41 z"
       inkscape:connector-curvature="0"
       id="path343" />
    <path
       d="m 156.34,419.23 c 42.488,13.271 79.41,17.719 109.79,17.719 l 353.55,353.55 c -30.384,0 -67.3,-4.448 -109.79,-17.719 z"
       inkscape:connector-curvature="0"
       id="path345" />
    <path
       d="m 266.13,436.95 c 59.35,0 93.75,-16.923 95.88,-18 L 715.56,772.5 c -2.127,1.078 -36.533,18 -95.88,18 z"
       inkscape:connector-curvature="0"
       id="path347" />
    <path
       d="m 362.01,418.95 4.23,-2.162 353.55,353.55 -4.23,2.162 z"
       inkscape:connector-curvature="0"
       id="path349" />
    <path
       d="m 366.24,416.79 h 0.423 l 353.55,353.55 h -0.423 z"
       inkscape:connector-curvature="0"
       id="path351" />
    <path
       d="m 366.66,416.79 v -65.42 l 353.55,353.55 v 65.42 z"
       inkscape:connector-curvature="0"
       id="path353" />
    <path
       d="m 366.66,351.36 c 0.002,-22.272 -9.06,-42.479 -23.697,-57.11 l 353.55,353.55 c 14.635,14.635 23.7,34.843 23.697,57.11 z"
       inkscape:connector-curvature="0"
       id="path355" />
    <path
       d="m 342.96,294.25 c -14.619,-14.619 -34.797,-23.678 -57.05,-23.678 l 353.55,353.55 c 22.251,0 42.43,9.06 57.05,23.678 z"
       inkscape:connector-curvature="0"
       id="path357" />
    <path
       d="m 285.92,270.57 h -53.49 l 353.55,353.55 h 53.49 z"
       inkscape:connector-curvature="0"
       id="path359" />
  </g>
  <path
     d="m 148.54,75.05 c -34.832,0 -63.07,28.24 -63.07,63.07 0,34.817 28.24,63.07 63.07,63.07 12.337,0 23.787,-3.596 33.511,-9.729 3.091,-20.16 13.935,-37.818 29.375,-49.82 0.065,-1.181 0.141,-2.334 0.141,-3.525 0,-34.832 -28.21,-63.07 -63.03,-63.07 m 214.98,0 c -34.5,0.005 -62.5,27.752 -63.03,62.13 19.883,12.467 33.836,33.558 36.38,58.04 8.103,3.789 17.11,5.969 26.649,5.969 34.832,0 63.07,-28.25 63.07,-63.07 0,-34.832 -28.24,-63.07 -63.07,-63.07 m -104.34,65.14 c -34.832,0 -63.07,28.2 -63.07,63.03 0,34.832 28.25,63.07 63.07,63.07 34.832,0 63.07,-28.25 63.07,-63.07 0,-34.832 -28.25,-63.03 -63.07,-63.03 m -137.43,65.28 c -44.524,0 -80.75,36.22 -80.75,80.75 v 65.47 l 0.188,0.987 4.512,1.41 c 34.09,10.647 64.48,15.563 90.9,17.11 v -19.74 c 0.011,-43.35 28.984,-80.06 68.57,-91.84 -14.274,-13.689 -23.31,-32.699 -23.97,-53.815 -1.969,-0.144 -3.916,-0.329 -5.922,-0.329 h -53.53 m 215.45,0 c -0.575,21.251 -9.678,40.38 -24.02,54.14 39.577,11.769 68.53,48.49 68.53,91.84 v 20.16 c 52.43,-1.927 82.66,-16.808 84.65,-17.813 l 4.23,-2.115 h 0.423 v -65.47 c 0,-44.504 -36.19,-80.72 -80.7,-80.75 h -53.11 m -104.76,65.09 c -44.524,0 -80.75,36.28 -80.75,80.79 v 65.42 l 0.141,1.034 4.512,1.41 c 42.488,13.271 79.41,17.719 109.79,17.719 59.35,0 93.75,-16.923 95.88,-18 l 4.23,-2.162 h 0.423 v -65.42 c 0.005,-44.52 -36.22,-80.79 -80.75,-80.79 h -53.49"
     inkscape:connector-curvature="0"
     id="path361"
     style="fill:#666666" />
</svg>
