<?xml version="1.0" encoding="UTF-8" standalone="no"?>
<!-- Created with Inkscape (http://www.inkscape.org/) -->

<svg
   xmlns:dc="http://purl.org/dc/elements/1.1/"
   xmlns:cc="http://creativecommons.org/ns#"
   xmlns:rdf="http://www.w3.org/1999/02/22-rdf-syntax-ns#"
   xmlns:svg="http://www.w3.org/2000/svg"
   xmlns="http://www.w3.org/2000/svg"
   xmlns:inkscape="http://www.inkscape.org/namespaces/inkscape"
   version="1.1"
   width="100%"
   height="100%"
   viewBox="0 0 512 512"
   id="svg2">
  <metadata
     id="metadata191">
    <rdf:RDF>
      <cc:Work
         rdf:about="">
        <dc:format>image/svg+xml</dc:format>
        <dc:type
           rdf:resource="http://purl.org/dc/dcmitype/StillImage" />
      </cc:Work>
    </rdf:RDF>
  </metadata>
  <defs
     id="defs4">
    <clipPath
       id="0">
      <path
         d="M 26,0 C 11.603,0 0,11.603 0,26 v 460 c 0,14.397 11.603,26 26,26 h 460 c 14.397,0 26,-11.603 26,-26 V 26 C 512,11.603 500.397,0 486,0 H 26"
         inkscape:connector-curvature="0"
         id="path7" />
    </clipPath>
  </defs>
  <path
     d="M 26,0 C 11.603,0 0,11.603 0,26 v 460 c 0,14.397 11.603,26 26,26 h 460 c 14.397,0 26,-11.603 26,-26 V 26 C 512,11.603 500.397,0 486,0 H 26"
     inkscape:connector-curvature="0"
     id="path9"
     style="fill:none" />
  <g
     transform="translate(-789.85,-185.81)"
     id="g11"
     style="font-size:208.33000183px;line-height:125%;letter-spacing:0;word-spacing:0;font-family:Gentium Book Basic">
  </g>
  <g
     clip-path="url(#0)"
     id="g87"
     style="opacity:0.0">
    <path
       d="M 267.81,41 V 93.19 L 621.36,446.74 V 394.55 z"
       inkscape:connector-curvature="0"
       id="path89" />
    <path
       d="m 267.81,93.19 c -18.08,0.961 -35.25,5.361 -50.89,12.507 l 353.55,353.55 c 15.641,-7.145 32.811,-11.545 50.89,-12.507 z"
       inkscape:connector-curvature="0"
       id="path91" />
    <path
       d="M 216.92,105.69 V 49.86 l 353.55,353.55 v 55.83 z"
       inkscape:connector-curvature="0"
       id="path93" />
    <path
       d="m 216.92,49.865 c 16.14,-5.127 33.22,-8.171 50.89,-8.858 l 353.55,353.55 c -17.674,0.687 -34.746,3.731 -50.89,8.858 z"
       inkscape:connector-curvature="0"
       id="path95" />
    <path
       d="m 289.94,41.37 c 18.575,1.38 36.405,5.413 53.15,11.677 l 353.55,353.55 c -16.741,-6.265 -34.571,-10.298 -53.15,-11.677 z"
       inkscape:connector-curvature="0"
       id="path97" />
    <path
       d="m 343.09,53.05 v 57.23 L 696.64,463.83 V 406.6 z"
       inkscape:connector-curvature="0"
       id="path99" />
    <path
       d="M 343.09,110.28 C 327.01,101.46 309.07,95.677 289.94,93.724 l 353.55,353.55 c 19.13,1.953 37.06,7.736 53.15,16.556 z"
       inkscape:connector-curvature="0"
       id="path101" />
    <path
       d="m 197.12,57.4 v 59.34 l 353.55,353.55 v -59.34 z"
       inkscape:connector-curvature="0"
       id="path103" />
    <path
       d="m 197.12,116.74 c -13.793,9.238 -25.864,20.839 -35.632,34.23 l 353.55,353.55 c 9.769,-13.395 21.839,-24.995 35.632,-34.23 z"
       inkscape:connector-curvature="0"
       id="path105" />
    <path
       d="M 161.49,150.97 H 101.05 L 454.6,504.52 h 60.44 z"
       inkscape:connector-curvature="0"
       id="path107" />
    <path
       d="m 101.04,150.97 c 19.782,-41.52 53.961,-74.868 96.07,-93.59 l 353.55,353.55 c -42.11,18.723 -76.29,52.07 -96.07,93.59 z"
       inkscape:connector-curvature="0"
       id="path109" />
    <path
       d="m 362.92,61.729 c 18.18,9.255 34.688,21.306 48.968,35.587 l 353.55,353.55 c -14.28,-14.28 -30.788,-26.332 -48.968,-35.587 z"
       inkscape:connector-curvature="0"
       id="path111" />
    <path
       d="m 411.89,97.32 c 15.501,15.501 28.376,33.627 37.916,53.653 l 353.55,353.55 c -9.54,-20.03 -22.416,-38.15 -37.916,-53.653 z"
       inkscape:connector-curvature="0"
       id="path113" />
    <path
       d="m 449.8,150.97 h -60.44 l 353.55,353.55 h 60.44 z"
       inkscape:connector-curvature="0"
       id="path115" />
    <path
       d="m 389.36,150.97 c -4.331,-5.941 -9.109,-11.523 -14.289,-16.704 l 353.55,353.55 c 5.181,5.18 9.959,10.762 14.289,16.704 z"
       inkscape:connector-curvature="0"
       id="path117" />
    <path
       d="m 375.07,134.26 c -3.836,-3.836 -7.893,-7.452 -12.151,-10.831 l 353.55,353.55 c 4.259,3.379 8.315,6.995 12.151,10.831 z"
       inkscape:connector-curvature="0"
       id="path119" />
    <path
       d="m 457.93,170.81 c 5.802,16.789 9.378,34.651 10.317,53.18 l 353.55,353.55 c -0.939,-18.533 -4.514,-36.39 -10.317,-53.18 z"
       inkscape:connector-curvature="0"
       id="path121" />
    <path
       d="M 468.25,223.99 H 416 l 353.55,353.55 h 52.25 z"
       inkscape:connector-curvature="0"
       id="path123" />
    <path
       d="m 416,223.99 c -1.323,-19.01 -6.408,-36.988 -14.53,-53.18 l 353.55,353.55 c 8.122,16.196 13.207,34.17 14.53,53.18 z"
       inkscape:connector-curvature="0"
       id="path125" />
    <path
       d="m 149.38,170.81 c -8.122,16.191 -13.207,34.17 -14.53,53.18 L 488.4,577.54 c 1.323,-19.01 6.408,-36.993 14.53,-53.18 z"
       inkscape:connector-curvature="0"
       id="path127" />
    <path
       d="M 134.85,223.99 H 82.6 l 353.55,353.55 h 52.25 z"
       inkscape:connector-curvature="0"
       id="path129" />
    <path
       d="m 82.6,223.99 c 0.939,-18.528 4.514,-36.39 10.317,-53.18 l 353.55,353.55 c -5.802,16.794 -9.378,34.656 -10.317,53.18 z"
       inkscape:connector-curvature="0"
       id="path131" />
    <path
       d="m 135.08,245.91 v 51.35 l 353.55,353.55 v -51.35 z"
       inkscape:connector-curvature="0"
       id="path133" />
    <path
       d="M 135.08,297.27 H 82.73 l 353.55,353.55 h 52.35 z"
       inkscape:connector-curvature="0"
       id="path135" />
    <path
       d="m 82.73,297.27 v -51.35 l 353.55,353.55 v 51.35 z"
       inkscape:connector-curvature="0"
       id="path137" />
    <path
       d="m 468.12,246.08 c -1.102,17.703 -4.593,34.794 -10.155,50.89 l 353.55,353.55 c 5.563,-16.1 9.05,-33.19 10.155,-50.89 z"
       inkscape:connector-curvature="0"
       id="path139" />
    <path
       d="m 457.96,296.97 h -56.5 l 353.55,353.55 h 56.5 z"
       inkscape:connector-curvature="0"
       id="path141" />
    <path
       d="m 401.46,296.97 c 7.793,-15.546 12.81,-32.718 14.365,-50.89 l 353.55,353.55 c -1.555,18.17 -6.572,35.34 -14.365,50.89 z"
       inkscape:connector-curvature="0"
       id="path143" />
    <path
       d="m 449.84,316.78 c -18.328,38.491 -48.995,69.967 -86.92,89.27 L 716.47,759.6 c 37.922,-19.307 68.59,-50.782 86.92,-89.27 z"
       inkscape:connector-curvature="0"
       id="path145" />
    <path
       d="M 362.92,406.05 V 344.38 L 716.47,697.93 V 759.6 z"
       inkscape:connector-curvature="0"
       id="path147" />
    <path
       d="m 362.92,344.38 c 10.03,-7.953 18.925,-17.244 26.472,-27.601 l 353.55,353.55 c -7.547,10.357 -16.444,19.648 -26.472,27.601 z"
       inkscape:connector-curvature="0"
       id="path149" />
    <path
       d="M 135.08,317.01 V 374.1 L 488.63,727.65 V 670.56 z"
       inkscape:connector-curvature="0"
       id="path151" />
    <path
       d="m 135.08,374.1 h 62.14 l 353.55,353.55 h -62.14 z"
       inkscape:connector-curvature="0"
       id="path153" />
    <path
       d="m 197.22,374.1 v 52.35 L 550.77,780 v -52.35 z"
       inkscape:connector-curvature="0"
       id="path155" />
    <path
       d="M 197.22,426.45 H 135.08 L 488.63,780 h 62.14 z"
       inkscape:connector-curvature="0"
       id="path157" />
    <path
       d="m 135.08,426.45 v 44.553 l 353.55,353.55 V 780 z"
       inkscape:connector-curvature="0"
       id="path159" />
    <path
       d="M 135.08,471 C 116.03,459.657 98.498,448.435 82.93,432.86 l 353.55,353.55 c 15.573,15.573 33.11,26.794 52.15,38.14 z"
       inkscape:connector-curvature="0"
       id="path161" />
    <path
       d="m 82.926,432.86 c -0.065,-0.065 -0.13,-0.13 -0.195,-0.195 l 353.55,353.55 c 0.065,0.065 0.13,0.13 0.195,0.195 z"
       inkscape:connector-curvature="0"
       id="path163" />
    <path
       d="m 82.73,432.67 v -2.777 l 353.55,353.55 v 2.777 z"
       inkscape:connector-curvature="0"
       id="path165" />
    <path
       d="M 82.73,429.89 C 67.856,414.969 54.758,392.199 43.75,374.098 l 353.55,353.55 c 11.01,18.1 24.11,40.871 38.98,55.792 z"
       inkscape:connector-curvature="0"
       id="path167" />
    <path
       d="m 43.751,374.1 h 38.98 l 353.55,353.55 h -38.98 z"
       inkscape:connector-curvature="0"
       id="path169" />
    <path
       d="m 82.73,374.1 v -57.09 l 353.55,353.55 v 57.09 z"
       inkscape:connector-curvature="0"
       id="path171" />
    <path
       d="m 343.09,357.54 v 57.23 l 353.55,353.55 v -57.23 z"
       inkscape:connector-curvature="0"
       id="path173" />
    <path
       d="m 343.09,414.77 c -16.741,6.265 -34.571,10.298 -53.15,11.677 l 353.55,353.55 c 18.575,-1.38 36.405,-5.413 53.15,-11.677 z"
       inkscape:connector-curvature="0"
       id="path175" />
    <path
       d="M 289.94,426.45 V 374.1 L 643.49,727.65 V 780 z"
       inkscape:connector-curvature="0"
       id="path177" />
    <path
       d="m 289.94,374.1 c 19.12,-1.952 37.06,-7.734 53.15,-16.556 l 353.55,353.55 c -16.08,8.822 -34.02,14.604 -53.15,16.556 z"
       inkscape:connector-curvature="0"
       id="path179" />
    <path
       d="m 268.49,374.1 v 52.35 L 622.04,780 v -52.35 z"
       inkscape:connector-curvature="0"
       id="path181" />
    <path
       d="M 268.49,426.45 H 217 L 570.55,780 h 51.49 z"
       inkscape:connector-curvature="0"
       id="path183" />
    <path
       d="M 217,426.45 V 374.1 L 570.55,727.65 V 780 z"
       inkscape:connector-curvature="0"
       id="path185" />
  </g>
  <path
     d="m 267.81,41 v 52.19 c -18.08,0.961 -35.25,5.361 -50.89,12.507 v -55.83 c 16.14,-5.127 33.22,-8.171 50.89,-8.858 m 22.13,0.365 c 18.575,1.38 36.405,5.413 53.15,11.677 v 57.23 c -16.08,-8.82 -34.02,-14.603 -53.15,-16.556 z m -92.82,16.02 v 59.34 c -13.793,9.238 -25.864,20.839 -35.632,34.23 h -60.44 c 19.782,-41.52 53.961,-74.868 96.07,-93.59 m 165.8,4.346 c 37.913,19.3 68.56,50.764 86.88,89.24 h -60.44 c -7.537,-10.341 -16.43,-19.593 -26.441,-27.534 z m 95.01,109.08 c 5.802,16.789 9.378,34.651 10.317,53.18 h -52.25 c -1.323,-19.01 -6.408,-36.988 -14.53,-53.18 z m -308.56,0 c -8.122,16.191 -13.207,34.17 -14.53,53.18 h -52.25 c 0.939,-18.528 4.514,-36.39 10.317,-53.18 z m -14.298,75.11 v 51.35 H 82.72 v -51.35 z m 333.04,0.166 c -1.102,17.703 -4.593,34.794 -10.155,50.89 h -56.5 c 7.793,-15.546 12.81,-32.718 14.365,-50.89 z m -18.28,70.7 c -18.328,38.491 -48.995,69.967 -86.92,89.27 v -61.67 c 10.03,-7.953 18.925,-17.244 26.472,-27.601 z m -314.75,0.232 v 57.09 h 62.14 v 52.35 h -62.14 v 44.553 c -19.13,-11.39 -36.728,-22.658 -52.35,-38.33 v -2.777 C 67.856,414.973 54.758,392.203 43.75,374.102 h 38.98 v -57.09 z m 208.01,40.533 v 57.23 c -16.741,6.265 -34.571,10.298 -53.15,11.677 v -52.35 c 19.12,-1.952 37.06,-7.734 53.15,-16.556 m -74.6,16.556 v 52.35 H 217 v -52.35 z"
     inkscape:connector-curvature="0"
     id="path187"
     style="fill:#666666" />
</svg>
