<?xml version="1.0" encoding="UTF-8" standalone="no"?>
<!-- Created with Inkscape (http://www.inkscape.org/) -->

<svg
   xmlns:dc="http://purl.org/dc/elements/1.1/"
   xmlns:cc="http://creativecommons.org/ns#"
   xmlns:rdf="http://www.w3.org/1999/02/22-rdf-syntax-ns#"
   xmlns:svg="http://www.w3.org/2000/svg"
   xmlns="http://www.w3.org/2000/svg"
   xmlns:inkscape="http://www.inkscape.org/namespaces/inkscape"
   version="1.1"
   width="100%"
   height="100%"
   viewBox="0 0 512 512"
   id="svg2">
  <metadata
     id="metadata199">
    <rdf:RDF>
      <cc:Work
         rdf:about="">
        <dc:format>image/svg+xml</dc:format>
        <dc:type
           rdf:resource="http://purl.org/dc/dcmitype/StillImage" />
      </cc:Work>
    </rdf:RDF>
  </metadata>
  <defs
     id="defs4">
    <clipPath
       id="0">
      <path
         d="M 26,0 C 11.603,0 0,11.603 0,26 v 460 c 0,14.397 11.603,26 26,26 h 460 c 14.397,0 26,-11.603 26,-26 V 26 C 512,11.603 500.397,0 486,0 H 26"
         inkscape:connector-curvature="0"
         id="path7" />
    </clipPath>
  </defs>
  <path
     d="M 26,0 C 11.603,0 0,11.603 0,26 v 460 c 0,14.397 11.603,26 26,26 h 460 c 14.397,0 26,-11.603 26,-26 V 26 C 512,11.603 500.397,0 486,0 H 26"
     inkscape:connector-curvature="0"
     id="path9"
     style="fill:none" />
  <g
     clip-path="url(#0)"
     id="g57"
     style="opacity:0.0">
    <path
       d="M 161.24,41 C 96.46,41 43.98,93.5 43.98,158.26 l 353.55,353.55 c 0,-64.765 52.48,-117.26 117.26,-117.26 z"
       inkscape:connector-curvature="0"
       id="path59" />
    <path
       d="m 43.983,158.26 c 0,21.659 5.879,41.904 16.11,59.31 l 353.55,353.55 c -10.23,-17.407 -16.11,-37.651 -16.11,-59.31 z"
       inkscape:connector-curvature="0"
       id="path61" />
    <path
       d="m 60.09,217.57 c -2.683,13.14 -4.076,26.747 -4.076,40.679 l 353.55,353.55 c 0,-13.932 1.393,-27.541 4.076,-40.679 z"
       inkscape:connector-curvature="0"
       id="path63" />
    <path
       d="m 56.02,258.25 c 0,55.848 22.634,106.41 59.23,143 L 468.8,754.8 c -36.595,-36.595 -59.23,-87.15 -59.23,-143 z"
       inkscape:connector-curvature="0"
       id="path65" />
    <path
       d="m 115.25,401.25 c 36.596,36.596 87.15,59.23 143,59.23 L 611.8,814.03 c -55.847,0 -106.41,-22.634 -143,-59.23 z"
       inkscape:connector-curvature="0"
       id="path67" />
    <path
       d="m 258.25,460.48 c 12.651,0 25.03,-1.156 37.03,-3.378 l 353.55,353.55 c -12,2.222 -24.38,3.378 -37.03,3.378 z"
       inkscape:connector-curvature="0"
       id="path69" />
    <path
       d="m 295.28,457.1 c 16.509,8.875 35.37,13.897 55.43,13.897 l 353.55,353.55 c -20.06,0 -38.921,-5.02 -55.43,-13.897 z"
       inkscape:connector-curvature="0"
       id="path71" />
    <path
       d="m 350.71,471 c 64.78,0 117.31,-52.49 117.31,-117.26 l 353.55,353.55 c 0,64.772 -52.53,117.26 -117.31,117.26 z"
       inkscape:connector-curvature="0"
       id="path73" />
    <path
       d="m 468.02,353.74 c 0,-18.714 -4.391,-36.402 -12.188,-52.09 l 353.55,353.55 c 7.797,15.69 12.188,33.377 12.188,52.09 z"
       inkscape:connector-curvature="0"
       id="path75" />
    <path
       d="m 455.83,301.65 c 3.057,-13.983 4.659,-28.497 4.659,-43.4 l 353.55,353.55 c 0,14.899 -1.601,29.413 -4.659,43.4 z"
       inkscape:connector-curvature="0"
       id="path77" />
    <path
       d="m 460.49,258.25 c 0,-55.848 -22.634,-106.41 -59.23,-143 L 754.81,468.8 c 36.595,36.595 59.23,87.15 59.23,143 z"
       inkscape:connector-curvature="0"
       id="path79" />
    <path
       d="M 401.26,115.25 C 364.664,78.654 314.11,56.02 258.26,56.02 l 353.55,353.55 c 55.847,0 106.41,22.634 143,59.23 z"
       inkscape:connector-curvature="0"
       id="path81" />
    <path
       d="m 258.26,56.02 c -11.792,0 -23.343,1.012 -34.586,2.95 l 353.55,353.55 c 11.242,-1.938 22.793,-2.95 34.586,-2.95 z"
       inkscape:connector-curvature="0"
       id="path83" />
    <path
       d="M 223.67,58.971 C 205.59,47.587 184.193,41 161.25,41 L 514.8,394.55 c 22.939,0 44.34,6.587 62.42,17.971 z"
       inkscape:connector-curvature="0"
       id="path85" />
    <path
       d="m 256.9,115.95 c 18.06,0 33.947,2.088 47.2,6.211 l 353.55,353.55 c -13.253,-4.122 -29.14,-6.211 -47.2,-6.211 z"
       inkscape:connector-curvature="0"
       id="path87" />
    <path
       d="m 304.1,122.16 c 13.339,4.15 24.59,9.753 33.42,16.657 l 353.55,353.55 c -8.83,-6.904 -20.08,-12.507 -33.42,-16.657 z"
       inkscape:connector-curvature="0"
       id="path89" />
    <path
       d="m 337.52,138.82 c 3.101,2.423 5.923,4.907 8.459,7.443 l 353.55,353.55 c -2.536,-2.536 -5.358,-5.02 -8.459,-7.443 z"
       inkscape:connector-curvature="0"
       id="path91" />
    <path
       d="m 345.98,146.26 c 4.736,4.736 8.476,9.652 11.181,14.682 l 353.55,353.55 c -2.705,-5.03 -6.445,-9.946 -11.181,-14.682 z"
       inkscape:connector-curvature="0"
       id="path93" />
    <path
       d="m 357.16,160.94 c 4.196,7.8 6.328,15.548 6.328,23.06 l 353.55,353.55 c 0,-7.51 -2.131,-15.257 -6.328,-23.06 z"
       inkscape:connector-curvature="0"
       id="path95" />
    <path
       d="m 363.49,184 c 0,7.226 -2.764,13.801 -8.271,19.525 l 353.55,353.55 c 5.507,-5.724 8.271,-12.299 8.271,-19.525 z"
       inkscape:connector-curvature="0"
       id="path97" />
    <path
       d="m 355.22,203.52 c -5.539,5.76 -12.561,8.655 -20.806,8.655 l 353.55,353.55 c 8.244,0 15.267,-2.896 20.806,-8.655 z"
       inkscape:connector-curvature="0"
       id="path99" />
    <path
       d="m 334.41,212.18 c -7.49,0 -13.322,-1.831 -17.39,-5.435 l 353.55,353.55 c 4.068,3.604 9.9,5.435 17.39,5.435 z"
       inkscape:connector-curvature="0"
       id="path101" />
    <path
       d="m 317.02,206.74 c -0.487,-0.43 -0.976,-0.891 -1.468,-1.383 l 353.55,353.55 c 0.492,0.492 0.981,0.953 1.468,1.383 z"
       inkscape:connector-curvature="0"
       id="path103" />
    <path
       d="m 315.55,205.36 c -3.334,-3.334 -6.807,-8.109 -10.603,-14.648 l 353.55,353.55 c 3.796,6.54 7.269,11.314 10.603,14.648 z"
       inkscape:connector-curvature="0"
       id="path105" />
    <path
       d="m 304.95,190.71 c -3.691,-7.01 -7.958,-12.946 -12.723,-17.711 l 353.55,353.55 c 4.765,4.765 9.03,10.7 12.723,17.711 z"
       inkscape:connector-curvature="0"
       id="path107" />
    <path
       d="m 292.22,173 c -1.747,-1.747 -3.56,-3.336 -5.436,-4.764 l 353.55,353.55 c 1.876,1.428 3.69,3.02 5.436,4.764 z"
       inkscape:connector-curvature="0"
       id="path109" />
    <path
       d="m 286.79,168.24 c -6.795,-5.171 -18.16,-7.802 -33.77,-7.802 l 353.55,353.55 c 15.611,0 26.975,2.631 33.77,7.802 z"
       inkscape:connector-curvature="0"
       id="path111" />
    <path
       d="m 253.02,160.44 c -14.498,0 -26.26,2.915 -35.01,8.655 l 353.55,353.55 c 8.755,-5.74 20.517,-8.655 35.01,-8.655 z"
       inkscape:connector-curvature="0"
       id="path113" />
    <path
       d="m 218,169.09 c -8.436,5.53 -12.538,11.856 -12.538,19.37 l 353.55,353.55 c 0,-7.513 4.102,-13.839 12.538,-19.37 z"
       inkscape:connector-curvature="0"
       id="path115" />
    <path
       d="m 205.47,188.46 c 0,4.608 1.322,8.487 4.04,11.8 l 353.55,353.55 c -2.714,-3.313 -4.04,-7.193 -4.04,-11.8 z"
       inkscape:connector-curvature="0"
       id="path117" />
    <path
       d="m 209.5,200.26 c 0.576,0.704 1.199,1.391 1.868,2.06 l 353.55,353.55 c -0.669,-0.669 -1.292,-1.356 -1.868,-2.06 z"
       inkscape:connector-curvature="0"
       id="path119" />
    <path
       d="m 211.37,202.32 c 2.668,2.668 6.068,5.05 10.165,7.101 l 353.55,353.55 c -4.097,-2.05 -7.497,-4.433 -10.165,-7.1 z"
       inkscape:connector-curvature="0"
       id="path121" />
    <path
       d="m 221.53,209.42 c 5.316,2.671 10.778,4.773 16.264,6.288 l 353.55,353.55 c -5.486,-1.515 -10.949,-3.617 -16.264,-6.288 z"
       inkscape:connector-curvature="0"
       id="path123" />
    <path
       d="m 237.8,215.71 c 5.621,1.56 15.06,3.881 27.987,6.871 l 353.55,353.55 c -12.931,-2.99 -22.366,-5.311 -27.987,-6.871 z"
       inkscape:connector-curvature="0"
       id="path125" />
    <path
       d="m 265.79,222.58 c 16.365,3.513 31.416,7.432 44.722,11.683 l 353.55,353.55 c -13.306,-4.251 -28.357,-8.17 -44.722,-11.683 z"
       inkscape:connector-curvature="0"
       id="path127" />
    <path
       d="m 310.51,234.26 c 13.466,4.31 25.09,9.625 34.586,15.799 l 353.55,353.55 c -9.491,-6.174 -21.12,-11.488 -34.586,-15.799 z"
       inkscape:connector-curvature="0"
       id="path129" />
    <path
       d="m 345.09,250.06 c 4.299,2.8 8.204,5.957 11.695,9.448 l 353.55,353.55 c -3.491,-3.491 -7.397,-6.648 -11.695,-9.448 z"
       inkscape:connector-curvature="0"
       id="path131" />
    <path
       d="m 356.79,259.51 c 4.376,4.376 8.1,9.277 11.128,14.657 l 353.55,353.55 c -3.03,-5.38 -6.752,-10.28 -11.128,-14.657 z"
       inkscape:connector-curvature="0"
       id="path133" />
    <path
       d="m 367.92,274.17 c 5.458,9.707 8.23,21.676 8.23,35.594 l 353.55,353.55 c 0,-13.918 -2.772,-25.887 -8.23,-35.594 z"
       inkscape:connector-curvature="0"
       id="path135" />
    <path
       d="m 376.15,309.76 c 0,16.657 -4.779,31.852 -14.168,45.14 l 353.55,353.55 C 724.92,695.159 729.7,679.964 729.7,663.31 z"
       inkscape:connector-curvature="0"
       id="path137" />
    <path
       d="m 361.98,354.9 c -9.355,13.24 -23.16,23.723 -41.07,31.17 l 353.55,353.55 c 17.905,-7.447 31.711,-17.93 41.07,-31.17 z"
       inkscape:connector-curvature="0"
       id="path139" />
    <path
       d="m 320.91,386.07 c -17.737,7.371 -39.03,11.1 -63.23,11.1 l 353.55,353.55 c 24.2,0 45.49,-3.731 63.23,-11.1 z"
       inkscape:connector-curvature="0"
       id="path141" />
    <path
       d="m 257.68,397.18 c -29.05,0 -53.39,-5.093 -72.39,-15.176 l 353.55,353.55 c 19,10.08 43.35,15.176 72.39,15.176 z"
       inkscape:connector-curvature="0"
       id="path143" />
    <path
       d="m 185.29,382 c -8.501,-4.592 -16.07,-10.197 -22.628,-16.755 l 353.55,353.55 c 6.558,6.558 14.13,12.163 22.628,16.755 z"
       inkscape:connector-curvature="0"
       id="path145" />
    <path
       d="m 162.66,365.25 c -3.925,-3.925 -7.487,-8.19 -10.67,-12.784 l 353.55,353.55 c 3.183,4.594 6.745,8.859 10.67,12.784 z"
       inkscape:connector-curvature="0"
       id="path147" />
    <path
       d="m 151.99,352.46 c -8.591,-12.391 -12.926,-24.707 -12.926,-36.567 l 353.55,353.55 c 0,11.86 4.335,24.18 12.926,36.567 z"
       inkscape:connector-curvature="0"
       id="path149" />
    <path
       d="m 139.07,315.89 c 0,-7.411 2.826,-13.839 8.423,-19.1 l 353.55,353.55 c -5.596,5.258 -8.423,11.686 -8.423,19.1 z"
       inkscape:connector-curvature="0"
       id="path151" />
    <path
       d="m 147.49,296.8 c 5.54,-5.212 12.649,-7.842 21.12,-7.842 l 353.55,353.55 c -8.467,0 -15.576,2.63 -21.12,7.842 z"
       inkscape:connector-curvature="0"
       id="path153" />
    <path
       d="m 168.61,288.96 c 6.95,0 12.944,2.092 17.816,6.211 l 353.55,353.55 c -4.872,-4.119 -10.866,-6.211 -17.816,-6.211 z"
       inkscape:connector-curvature="0"
       id="path155" />
    <path
       d="m 186.42,295.17 c 0.646,0.548 1.28,1.132 1.9,1.752 l 353.55,353.55 c -0.62,-0.62 -1.253,-1.204 -1.9,-1.752 z"
       inkscape:connector-curvature="0"
       id="path157" />
    <path
       d="m 188.32,296.92 c 3.845,3.845 7.177,9.07 9.939,15.561 l 353.55,353.55 c -2.762,-6.493 -6.094,-11.716 -9.939,-15.561 z"
       inkscape:connector-curvature="0"
       id="path159" />
    <path
       d="m 198.26,312.48 c 3.584,8.208 7.478,15.15 11.606,20.611 l 353.55,353.55 c -4.127,-5.459 -8.02,-12.403 -11.606,-20.611 z"
       inkscape:connector-curvature="0"
       id="path161" />
    <path
       d="m 209.87,333.09 c 0.992,1.314 2.094,2.577 3.302,3.785 l 353.55,353.55 c -1.208,-1.208 -2.31,-2.471 -3.302,-3.785 z"
       inkscape:connector-curvature="0"
       id="path163" />
    <path
       d="m 213.17,336.88 c 3.619,3.619 8.195,6.751 13.66,9.334 l 353.55,353.55 c -5.466,-2.583 -10.04,-5.715 -13.66,-9.334 z"
       inkscape:connector-curvature="0"
       id="path165" />
    <path
       d="m 226.83,346.21 c 7.33,3.472 17.225,5.202 29.384,5.202 l 353.55,353.55 c -12.159,0 -22.05,-1.73 -29.384,-5.202 z"
       inkscape:connector-curvature="0"
       id="path167" />
    <path
       d="m 256.21,351.41 c 16.72,0 30.447,-3.558 40.756,-10.597 l 353.55,353.55 c -10.31,7.04 -24.04,10.597 -40.756,10.597 z"
       inkscape:connector-curvature="0"
       id="path169" />
    <path
       d="m 296.97,340.81 c 10.07,-6.876 14.94,-15.13 14.94,-25.23 l 353.55,353.55 c 0,10.1 -4.868,18.354 -14.94,25.23 z"
       inkscape:connector-curvature="0"
       id="path171" />
    <path
       d="m 311.91,315.58 c 0,-7.656 -2.341,-13.734 -7.168,-18.561 l 353.55,353.55 c 4.827,4.827 7.168,10.906 7.168,18.561 z"
       inkscape:connector-curvature="0"
       id="path173" />
    <path
       d="m 304.74,297.02 c -0.207,-0.207 -0.418,-0.411 -0.634,-0.613 l 353.55,353.55 c 0.216,0.202 0.427,0.407 0.634,0.613 z"
       inkscape:connector-curvature="0"
       id="path175" />
    <path
       d="m 304.11,296.41 c -5.502,-5.146 -12.766,-9.167 -21.577,-11.916 l 353.55,353.55 c 8.811,2.749 16.07,6.77 21.577,11.916 z"
       inkscape:connector-curvature="0"
       id="path177" />
    <path
       d="m 282.53,284.49 c -9.194,-2.864 -21.676,-5.968 -37.11,-9.199 l 353.55,353.55 c 15.432,3.231 27.914,6.334 37.11,9.199 z"
       inkscape:connector-curvature="0"
       id="path179" />
    <path
       d="m 245.42,275.3 c -20.987,-4.495 -38.802,-9.806 -52.976,-15.837 l 353.55,353.55 c 14.174,6.03 31.989,11.341 52.976,15.837 z"
       inkscape:connector-curvature="0"
       id="path181" />
    <path
       d="m 192.45,259.46 c -11.54,-4.91 -21.298,-11.327 -29.11,-19.14 l 353.55,353.55 c 7.81,7.81 17.567,14.227 29.11,19.14 z"
       inkscape:connector-curvature="0"
       id="path183" />
    <path
       d="m 163.34,240.32 c -2,-2 -3.881,-4.101 -5.627,-6.288 l 353.55,353.55 c 1.745,2.186 3.622,4.283 5.627,6.288 z"
       inkscape:connector-curvature="0"
       id="path185" />
    <path
       d="m 157.71,234.03 c -8.684,-10.866 -13.08,-24.495 -13.08,-40.524 l 353.55,353.55 c 0,16.03 4.398,29.658 13.08,40.524 z"
       inkscape:connector-curvature="0"
       id="path187" />
    <path
       d="m 144.63,193.51 c 0,-15.277 4.589,-29.07 13.702,-40.951 l 353.55,353.55 c -9.113,11.88 -13.702,25.674 -13.702,40.951 z"
       inkscape:connector-curvature="0"
       id="path189" />
    <path
       d="m 158.33,152.56 c 9.04,-11.795 22.277,-20.961 39.28,-27.25 l 353.55,353.55 c -17.01,6.288 -30.24,15.454 -39.28,27.25 z"
       inkscape:connector-curvature="0"
       id="path191" />
    <path
       d="m 197.62,125.31 c 16.783,-6.207 36.72,-9.355 59.31,-9.355 l 353.55,353.55 c -22.59,0 -42.528,3.148 -59.31,9.355 z"
       inkscape:connector-curvature="0"
       id="path193" />
  </g>
  <path
     d="M 161.24,41 C 96.46,41 43.98,93.5 43.98,158.26 c 0,21.659 5.879,41.904 16.11,59.31 -2.683,13.14 -4.076,26.747 -4.076,40.679 0,111.7 90.54,202.23 202.23,202.23 12.651,0 25.03,-1.156 37.03,-3.378 16.509,8.875 35.37,13.897 55.43,13.897 64.78,0 117.31,-52.49 117.31,-117.26 0,-18.714 -4.391,-36.402 -12.188,-52.09 3.057,-13.983 4.659,-28.497 4.659,-43.4 0,-111.7 -90.54,-202.23 -202.23,-202.23 -11.792,0 -23.343,1.012 -34.586,2.95 -18.08,-11.384 -39.477,-17.971 -62.42,-17.971 m 95.64,74.949 c 18.06,0 33.947,2.088 47.2,6.211 13.339,4.15 24.59,9.753 33.42,16.657 8.893,6.947 15.487,14.402 19.64,22.12 4.196,7.8 6.328,15.548 6.328,23.06 0,7.226 -2.764,13.801 -8.271,19.525 -5.539,5.76 -12.561,8.655 -20.806,8.655 -7.49,0 -13.322,-1.831 -17.39,-5.435 -3.784,-3.346 -7.714,-8.527 -12.07,-16.03 -5.04,-9.582 -11.165,-17.15 -18.16,-22.475 -6.795,-5.171 -18.16,-7.802 -33.77,-7.802 -14.498,0 -26.26,2.915 -35.01,8.655 -8.436,5.53 -12.538,11.856 -12.538,19.37 0,4.608 1.322,8.487 4.04,11.8 2.874,3.511 6.909,6.597 12.03,9.161 5.316,2.671 10.778,4.773 16.264,6.288 5.621,1.56 15.06,3.881 27.987,6.871 16.365,3.513 31.416,7.432 44.722,11.683 13.466,4.31 25.09,9.625 34.586,15.799 9.687,6.31 17.38,14.433 22.823,24.1 5.458,9.707 8.23,21.676 8.23,35.594 0,16.657 -4.779,31.852 -14.168,45.14 -9.355,13.24 -23.16,23.723 -41.07,31.17 -17.737,7.371 -39.03,11.1 -63.23,11.1 -29.05,0 -53.39,-5.093 -72.39,-15.176 -13.588,-7.34 -24.796,-17.27 -33.3,-29.539 -8.591,-12.391 -12.926,-24.707 -12.926,-36.567 0,-7.411 2.826,-13.839 8.423,-19.1 5.54,-5.212 12.649,-7.842 21.12,-7.842 6.95,0 12.944,2.092 17.816,6.211 4.655,3.946 8.631,9.773 11.838,17.313 3.584,8.208 7.478,15.15 11.606,20.611 3.965,5.251 9.672,9.674 16.963,13.12 7.33,3.472 17.225,5.202 29.384,5.202 16.72,0 30.447,-3.558 40.756,-10.597 10.07,-6.876 14.94,-15.13 14.94,-25.23 0,-7.984 -2.546,-14.252 -7.802,-19.17 -5.502,-5.146 -12.766,-9.167 -21.577,-11.916 -9.194,-2.864 -21.676,-5.968 -37.11,-9.199 -20.987,-4.495 -38.802,-9.806 -52.976,-15.837 -14.503,-6.171 -26.19,-14.721 -34.734,-25.425 -8.684,-10.866 -13.08,-24.495 -13.08,-40.524 0,-15.277 4.589,-29.07 13.702,-40.951 9.04,-11.795 22.277,-20.961 39.28,-27.25 16.783,-6.207 36.72,-9.355 59.31,-9.355"
     inkscape:connector-curvature="0"
     id="path195"
     style="fill:#666666" />
</svg>
