<?xml version="1.0" encoding="UTF-8" standalone="no"?>
<!-- Created with Inkscape (http://www.inkscape.org/) -->

<svg
   xmlns:dc="http://purl.org/dc/elements/1.1/"
   xmlns:cc="http://creativecommons.org/ns#"
   xmlns:rdf="http://www.w3.org/1999/02/22-rdf-syntax-ns#"
   xmlns:svg="http://www.w3.org/2000/svg"
   xmlns="http://www.w3.org/2000/svg"
   xmlns:inkscape="http://www.inkscape.org/namespaces/inkscape"
   version="1.1"
   width="100%"
   height="100%"
   viewBox="0 0 512 512"
   id="svg2">
  <metadata
     id="metadata131">
    <rdf:RDF>
      <cc:Work
         rdf:about="">
        <dc:format>image/svg+xml</dc:format>
        <dc:type
           rdf:resource="http://purl.org/dc/dcmitype/StillImage" />
      </cc:Work>
    </rdf:RDF>
  </metadata>
  <defs
     id="defs4">
    <clipPath
       id="0">
      <path
         d="M 26,0 C 11.603,0 0,11.603 0,26 v 460 c 0,14.397 11.603,26 26,26 h 460 c 14.397,0 26,-11.603 26,-26 V 26 C 512,11.603 500.397,0 486,0 H 26"
         inkscape:connector-curvature="0"
         id="path7" />
    </clipPath>
  </defs>
  <path
     d="M 26,0 C 11.603,0 0,11.603 0,26 v 460 c 0,14.397 11.603,26 26,26 h 460 c 14.397,0 26,-11.603 26,-26 V 26 C 512,11.603 500.397,0 486,0 H 26"
     inkscape:connector-curvature="0"
     id="path9"
     style="fill:none" />
  <g
     clip-path="url(#0)"
     id="g57"
     style="opacity:0.0;fill-rule:evenodd">
    <path
       d="m 91.49,393.44 c 4.921,18.374 14.441,34.29 26.989,46.836 l 353.55,353.55 C 459.481,781.278 449.959,765.364 445.04,746.99 z"
       inkscape:connector-curvature="0"
       id="path59" />
    <path
       d="m 118.48,440.28 c 25.564,25.564 63.699,37.16 101.13,27.13 l 353.55,353.55 c -37.43,10.03 -75.57,-1.569 -101.13,-27.13 z"
       inkscape:connector-curvature="0"
       id="path61" />
    <path
       d="m 219.61,467.41 c 54.58,-14.624 87.46,-69.802 74.881,-124.43 l 353.55,353.55 c 12.575,54.632 -20.301,109.81 -74.881,124.43 z"
       inkscape:connector-curvature="0"
       id="path63" />
    <path
       d="m 294.49,342.98 -14.521,-73.51 353.55,353.55 14.521,73.51 z"
       inkscape:connector-curvature="0"
       id="path65" />
    <path
       d="m 279.97,269.47 65.991,-22.599 353.55,353.55 -65.991,22.599 z"
       inkscape:connector-curvature="0"
       id="path67" />
    <path
       d="m 345.96,246.87 c 0.192,-0.051 0.385,-0.103 0.577,-0.155 l 353.55,353.55 c -0.192,0.052 -0.385,0.104 -0.577,0.155 z"
       inkscape:connector-curvature="0"
       id="path69" />
    <path
       d="m 346.54,246.71 c 4.949,-1.326 9.729,-2.998 14.304,-4.963 l 353.55,353.55 c -4.575,1.965 -9.354,3.637 -14.304,4.963 z"
       inkscape:connector-curvature="0"
       id="path71" />
    <path
       d="m 360.84,241.75 0.603,-0.198 353.55,353.55 -0.603,0.198 z"
       inkscape:connector-curvature="0"
       id="path73" />
    <path
       d="m 361.45,241.55 -0.078,-0.016 353.55,353.55 0.078,0.016 z"
       inkscape:connector-curvature="0"
       id="path75" />
    <path
       d="m 361.37,241.54 c 46.674,-20.328 72.72,-72.27 59.14,-122.94 l 353.55,353.55 c 13.577,50.672 -12.467,102.61 -59.14,122.94 z"
       inkscape:connector-curvature="0"
       id="path77" />
    <path
       d="M 420.51,118.59 C 415.587,100.208 406.061,84.28 393.5,71.726 l 353.55,353.55 c 12.557,12.557 22.08,28.481 27.01,46.864 z"
       inkscape:connector-curvature="0"
       id="path79" />
    <path
       d="M 393.5,71.73 C 367.935,46.165 329.805,34.56 292.37,44.59 l 353.55,353.55 c 37.432,-10.03 75.56,1.575 101.13,27.14 z"
       inkscape:connector-curvature="0"
       id="path81" />
    <path
       d="M 292.38,44.59 C 237.8,59.214 204.94,114.426 217.499,169.05 L 571.049,522.6 C 558.489,467.972 591.35,412.76 645.93,398.14 z"
       inkscape:connector-curvature="0"
       id="path83" />
    <path
       d="m 217.49,169.05 13.392,71.883 353.55,353.55 L 571.04,522.6 z"
       inkscape:connector-curvature="0"
       id="path85" />
    <path
       d="m 230.89,240.94 -64.54,24.15 353.55,353.55 64.54,-24.15 z"
       inkscape:connector-curvature="0"
       id="path87" />
    <path
       d="m 166.34,265.08 c -0.294,0.079 -0.589,0.158 -0.885,0.237 l 353.55,353.55 c 0.295,-0.079 0.591,-0.158 0.885,-0.237 z"
       inkscape:connector-curvature="0"
       id="path89" />
    <path
       d="M 165.46,265.32 C 109.653,280.266 76.54,337.64 91.49,393.44 L 445.04,746.99 C 430.092,691.187 463.2,633.82 519.01,618.87 z"
       inkscape:connector-curvature="0"
       id="path91" />
    <path
       d="m 132.22,382.53 c -7.961,-29.708 6.921,-60.14 33.868,-72.7 l 353.55,353.55 c -26.947,12.555 -41.829,42.991 -33.868,72.7 z"
       inkscape:connector-curvature="0"
       id="path93" />
    <path
       d="m 166.09,309.83 c 74.01,-26 0,-0.395 74.22,-26.15 l 353.55,353.55 c -74.22,25.758 -0.201,0.151 -74.22,26.15 z"
       inkscape:connector-curvature="0"
       id="path95" />
    <path
       d="m 240.3,283.67 0.216,0.671 353.55,353.55 -0.216,-0.671 z"
       inkscape:connector-curvature="0"
       id="path97" />
    <path
       d="m 240.52,284.35 c 13.831,74.07 -0.204,-0.336 14.08,75.37 l 353.55,353.55 c -14.28,-75.71 -0.245,-1.299 -14.08,-75.37 z"
       inkscape:connector-curvature="0"
       id="path99" />
    <path
       d="m 254.6,359.72 c 3.252,30.07 -15.774,58.886 -45.901,66.959 l 353.55,353.55 c 30.13,-8.07 49.15,-36.887 45.901,-66.959 z"
       inkscape:connector-curvature="0"
       id="path101" />
    <path
       d="m 208.69,426.68 c -22.338,5.986 -45.11,-0.943 -60.37,-16.206 l 353.55,353.55 c 15.262,15.262 38.03,22.19 60.37,16.206 z"
       inkscape:connector-curvature="0"
       id="path103" />
    <path
       d="m 148.32,410.47 c -7.49,-7.49 -13.171,-16.986 -16.11,-27.948 l 353.55,353.55 c 2.936,10.962 8.618,20.458 16.11,27.948 z"
       inkscape:connector-curvature="0"
       id="path105" />
    <path
       d="m 272.01,229.3 -4.444,-22.569 353.55,353.55 4.444,22.569 z"
       inkscape:connector-curvature="0"
       id="path107" />
    <path
       d="m 267.57,206.73 -0.043,-0.025 353.55,353.55 0.043,0.025 z"
       inkscape:connector-curvature="0"
       id="path109" />
    <path
       d="m 267.53,206.71 c -5.079,-27.36 1.939,9.746 -9.966,-53.37 l 353.55,353.55 c 11.905,63.12 4.887,26.01 9.966,53.37 z"
       inkscape:connector-curvature="0"
       id="path111" />
    <path
       d="m 257.56,153.33 c -3.252,-30.07 15.783,-58.852 45.91,-66.925 l 353.55,353.55 c -30.13,8.07 -49.16,36.853 -45.91,66.925 z"
       inkscape:connector-curvature="0"
       id="path113" />
    <path
       d="m 303.47,86.41 c 22.342,-5.987 45.11,0.93 60.37,16.188 l 353.55,353.55 C 702.132,440.89 679.37,433.968 657.02,439.96 z"
       inkscape:connector-curvature="0"
       id="path115" />
    <path
       d="m 363.84,102.6 c 7.483,7.483 13.16,16.973 16.1,27.931 l 353.55,353.55 c -2.935,-10.958 -8.612,-20.447 -16.1,-27.931 z"
       inkscape:connector-curvature="0"
       id="path117" />
    <path
       d="m 379.93,130.53 c 7.961,29.708 -6.921,60.14 -33.868,72.7 l 353.55,353.55 c 26.947,-12.555 41.829,-42.991 33.868,-72.7 z"
       inkscape:connector-curvature="0"
       id="path119" />
    <path
       d="m 346.07,203.23 c -63.865,22.435 -22.569,8.198 -56.31,19.936 l 353.55,353.55 c 33.746,-11.738 -7.551,2.499 56.31,-19.936 z"
       inkscape:connector-curvature="0"
       id="path121" />
    <path
       d="m 289.75,223.16 c -1.11,0.386 -2.754,0.953 -3.701,1.283 l 353.55,353.55 c 0.947,-0.33 2.591,-0.896 3.701,-1.283 z"
       inkscape:connector-curvature="0"
       id="path123" />
    <path
       d="m 286.05,224.45 c -4.896,1.702 -6.081,2.093 -14.04,4.855 l 353.55,353.55 c 7.958,-2.763 9.144,-3.153 14.04,-4.855 z"
       inkscape:connector-curvature="0"
       id="path125" />
  </g>
  <path
     d="m 91.49,393.44 c 14.946,55.807 72.32,88.92 128.12,73.97 54.58,-14.624 87.46,-69.802 74.881,-124.43 l -14.521,-73.51 65.991,-22.599 c 0.192,-0.051 0.385,-0.103 0.577,-0.155 4.949,-1.326 9.729,-2.998 14.304,-4.963 l 0.603,-0.198 -0.078,-0.016 c 46.674,-20.328 72.72,-72.27 59.14,-122.94 -14.946,-55.807 -72.32,-88.96 -128.13,-74 -54.58,14.624 -87.44,69.836 -74.881,124.46 l 13.392,71.883 -64.54,24.15 c -0.294,0.079 -0.589,0.158 -0.885,0.237 -55.807,14.946 -88.92,72.32 -73.97,128.12 m 40.731,-10.913 c -7.961,-29.708 6.921,-60.14 33.868,-72.7 74.01,-26 0,-0.395 74.22,-26.15 l 0.216,0.671 c 13.831,74.07 -0.204,-0.336 14.08,75.37 3.252,30.07 -15.774,58.886 -45.901,66.959 -33.3,8.923 -67.56,-10.853 -76.48,-44.15 m 139.8,-153.22 -4.444,-22.569 -0.043,-0.025 c -5.079,-27.36 1.939,9.746 -9.966,-53.37 -3.252,-30.07 15.783,-58.852 45.91,-66.925 33.3,-8.923 67.54,10.819 76.46,44.12 7.961,29.708 -6.921,60.14 -33.868,72.7 -63.865,22.435 -22.569,8.198 -56.31,19.936 -1.11,0.386 -2.754,0.953 -3.701,1.283 -4.896,1.702 -6.081,2.093 -14.04,4.855"
     inkscape:connector-curvature="0"
     id="path127"
     style="fill:#666666;fill-rule:evenodd" />
</svg>
