<?xml version="1.0" encoding="UTF-8" standalone="no"?>
<!-- Created with Inkscape (http://www.inkscape.org/) -->

<svg
   xmlns:dc="http://purl.org/dc/elements/1.1/"
   xmlns:cc="http://creativecommons.org/ns#"
   xmlns:rdf="http://www.w3.org/1999/02/22-rdf-syntax-ns#"
   xmlns:svg="http://www.w3.org/2000/svg"
   xmlns="http://www.w3.org/2000/svg"
   xmlns:inkscape="http://www.inkscape.org/namespaces/inkscape"
   version="1.1"
   width="100%"
   height="100%"
   viewBox="0 0 512 512"
   id="svg2">
  <metadata
     id="metadata1353">
    <rdf:RDF>
      <cc:Work
         rdf:about="">
        <dc:format>image/svg+xml</dc:format>
        <dc:type
           rdf:resource="http://purl.org/dc/dcmitype/StillImage" />
      </cc:Work>
    </rdf:RDF>
  </metadata>
  <defs
     id="defs4" />
  <path
     d="M 26,0 C 11.603,0 0,11.603 0,26 v 460 c 0,14.397 11.603,26 26,26 h 460 c 14.397,0 26,-11.603 26,-26 V 26 C 512,11.603 500.397,0 486,0 H 26"
     inkscape:connector-curvature="0"
     id="path1155"
     style="fill:none" />
  <path
     d="m 251.28,40.969 c -99.85,0.505 -191.6,80.947 -204.41,180.22 -6.271,26.738 1.387,86.09 5.625,72.69 2.827,10.618 4.353,1.401 7.156,12.03 0.486,-10.281 2.804,8.592 3.313,-1.5 3.02,12.516 7.09,-4.054 7.906,28.06 3.721,43.35 33.33,76.66 63.875,104.41 24.959,25.03 49.901,50.07 74.844,75.13 h 276.41 c 14.397,0 26,-11.603 26,-26 v -276.72 c -39.07,-39.06 -78.22,-78.01 -117.62,-116.72 -37.938,-33.1 -87.986,-51.773 -138.34,-51.563 -1.589,-0.033 -3.165,-0.039 -4.75,-0.031"
     inkscape:connector-curvature="0"
     id="path1157"
     style="opacity:0.0" />
  <g
     id="g1201"
     style="line-height:125%;letter-spacing:0;word-spacing:0;font-family:Gentium Book Basic">
  </g>
  <g
     id="g1249"
     style="line-height:125%;letter-spacing:0;word-spacing:0;font-family:Gentium Book Basic">
  </g>
  <g
     id="g1297"
     style="line-height:125%;letter-spacing:0;word-spacing:0;font-family:Gentium Book Basic">
  </g>
  <path
     d="m 256.04353,41.00001 a 211.43505,211.43505 0 0 0 -211.481255,211.39425 211.43505,211.43505 0 0 0 4.64841,43.05213 156.09646,156.09646 0 0 1 155.700135,-148.01073 156.09646,156.09646 0 0 1 156.13461,156.04771 156.09646,156.09646 0 0 1 -23.89371,82.54194 c 24.82999,2.353 56.639,1.827 86.93,-5.604 A 211.43505,211.43505 0 0 0 467.43772,252.39426 211.43505,211.43505 0 0 0 256.04353,41.00001 m -37.23,138.63 c -2.01,-0.022 -4.02,0.003 -5.995,0.043 -47.37,0.969 -84.56,19.901 -113.73,55.04 -18.837,24.518 -29.06,53.589 -29.11,82.72 10e-4,40.2 19.815,80.18 53.87,108.61 34.05,28.427 81.909,44.964 130.07,44.964 29.378,-0.014 58.739,-6.01 84.8,-17.334 26.06,-11.32 48.81,-27.931 65.69,-48 -29.429,3.487 -60.06,-0.726 -86.71,-11.947 -26.657,-11.219 -49.23,-29.414 -63.948,-51.48 -18.967,-23.22 -28.546,-51.918 -26.761,-80.2 1.785,-28.28 14.931,-55.95 36.71,-77.29 -15.87,-3.273 -30.814,-4.971 -44.877,-5.126"
     inkscape:connector-curvature="0"
     id="path1349"
     style="fill:#666666" />
</svg>
