<?xml version="1.0" encoding="UTF-8" standalone="no"?>
<!-- Created with Inkscape (http://www.inkscape.org/) -->

<svg
   xmlns:dc="http://purl.org/dc/elements/1.1/"
   xmlns:cc="http://creativecommons.org/ns#"
   xmlns:rdf="http://www.w3.org/1999/02/22-rdf-syntax-ns#"
   xmlns:svg="http://www.w3.org/2000/svg"
   xmlns="http://www.w3.org/2000/svg"
   xmlns:inkscape="http://www.inkscape.org/namespaces/inkscape"
   version="1.1"
   width="100%"
   height="100%"
   viewBox="0 0 512 512"
   id="svg2">
  <metadata
     id="metadata10">
    <rdf:RDF>
      <cc:Work
         rdf:about="">
        <dc:format>image/svg+xml</dc:format>
        <dc:type
           rdf:resource="http://purl.org/dc/dcmitype/StillImage" />
        <dc:title />
      </cc:Work>
    </rdf:RDF>
  </metadata>
  <defs
     id="defs8">
    <clipPath
       id="clipPath6897">
      <path
         d="M 26,0 C 11.602648,0 0,11.602648 0,26 l 0,460 c 0,14.39735 11.602648,26 26,26 l 460,0 c 14.39735,0 26,-11.60265 26,-26 L 512,26 C 512,11.602648 500.39735,0 486,0 L 26,0 z"
         inkscape:connector-curvature="0"
         id="path6899"
         style="fill:none;fill-opacity:1;stroke:none" />
    </clipPath>
  </defs>
  <path
     d="M 26,0 C 11.602648,0 0,11.602648 0,26 l 0,460 c 0,14.39735 11.602648,26 26,26 l 460,0 c 14.39735,0 26,-11.60265 26,-26 L 512,26 C 512,11.602648 500.39735,0 486,0 L 26,0 z"
     inkscape:connector-curvature="0"
     id="rect2986"
     style="fill:none;fill-opacity:1;stroke:none" />
  <path
     d="m 256,256 0,256 230,0 c 14.39735,0 26,-11.60265 26,-26 l 0,-230 -256,0 z"
     inkscape:connector-curvature="0"
     id="path3175"
     style="fill:none;fill-opacity:1" />
  <path
     d="m 0,256 0,230 c 0,14.39735 11.602648,26 26,26 l 230,0 0,-256 -256,0 z"
     inkscape:connector-curvature="0"
     id="path3177"
     style="fill:none;fill-opacity:1" />
  <path
     d="M 26,0 C 11.602648,0 0,11.602648 0,26 L 0,256 256,256 256,0 26,0 z"
     inkscape:connector-curvature="0"
     id="path3162"
     style="fill:none;fill-opacity:1" />
  <g
     transform="translate(-1653.0823,-85.550754)"
     id="g5289"
     style="font-size:208.33000183px;line-height:125%;letter-spacing:0;word-spacing:0;font-family:Gentium Book Basic">
  </g>
  <g
     clip-path="url(#clipPath6897)"
     id="g6590"
     style="opacity:0.0;fill:#000000">
    <path
       d="m 273.17332,41.002845 c -12.12776,-0.03421 -21.45135,1.955815 -25.30746,6.223313 L 636.77459,436.13489 c 3.85611,-4.2675 13.1797,-6.25753 25.30746,-6.22332 z"
       inkscape:connector-curvature="0"
       id="path6592"
       style="fill:#000000" />
    <path
       d="m 247.86586,47.226158 c -6.11369,6.771324 -20.18731,57.265242 -37.75407,134.444502 l 388.90873,388.90873 c 17.56676,-77.17926 31.64038,-127.67318 37.75407,-134.4445 z"
       inkscape:connector-curvature="0"
       id="path6594"
       style="fill:#000000" />
    <path
       d="m 210.11179,181.67066 c -12.67436,55.52865 -3.88031,87.91918 4.77993,105.25106 l 388.90873,388.90873 c -8.66024,-17.33188 -17.45429,-49.72241 -4.77993,-105.25106 z"
       inkscape:connector-curvature="0"
       id="path6596"
       style="fill:#000000" />
    <path
       d="m 214.89172,286.92172 c 11.07158,22.15879 19.7005,35.48224 2.20065,79.70303 L 606.0011,755.53348 c 17.49985,-44.22079 8.87093,-57.54424 -2.20065,-79.70303 z"
       inkscape:connector-curvature="0"
       id="path6598"
       style="fill:#000000" />
    <path
       d="m 217.09237,366.62475 c -12.67437,32.02612 -25.60637,38.15549 -37.61742,39.68 l 388.90873,388.90873 c 12.01105,-1.52451 24.94305,-7.65388 37.61742,-39.68 z"
       inkscape:connector-curvature="0"
       id="path6600"
       style="fill:#000000" />
    <path
       d="M 179.47495,406.30475 C 150.5306,399.3441 128.6878,399.095 125.83522,406.92252 l 388.90873,388.90873 c 2.85258,-7.82752 24.69538,-7.57842 53.63973,-0.61777 z"
       inkscape:connector-curvature="0"
       id="path6602"
       style="fill:#000000" />
    <path
       d="m 125.83522,406.92252 c -1.15737,3.17538 0.93244,7.31788 5.60819,11.99364 l 388.90873,388.90873 c -4.67575,-4.67576 -6.76556,-8.81826 -5.60819,-11.99364 z"
       inkscape:connector-curvature="0"
       id="path6604"
       style="fill:#000000" />
    <path
       d="m 131.44341,418.91616 c 11.09268,11.09268 36.7396,25.18664 68.1121,36.48895 l 388.90873,388.90873 c -31.37251,-11.30231 -57.01942,-25.39627 -68.1121,-36.48895 z"
       inkscape:connector-curvature="0"
       id="path6606"
       style="fill:#000000" />
    <path
       d="m 199.55551,455.40511 c 44.59658,16.06644 83.98335,20.43927 87.88785,9.73068 l 388.90873,388.90873 c -3.9045,10.70859 -43.29127,6.33576 -87.88785,-9.73068 z"
       inkscape:connector-curvature="0"
       id="path6608"
       style="fill:#000000" />
    <path
       d="m 287.44336,465.13579 c 1.15451,-3.16943 -0.9337,-7.3035 -5.60051,-11.97031 l 388.90873,388.90873 c 4.66681,4.66681 6.75502,8.80088 5.60051,11.97031 z"
       inkscape:connector-curvature="0"
       id="path6610"
       style="fill:#000000" />
    <path
       d="m 281.84285,453.16548 c -6.8986,-6.8986 -19.43183,-14.96132 -35.45453,-22.7931 l 388.90873,388.90873 c 16.0227,7.83178 28.55593,15.8945 35.45453,22.7931 z"
       inkscape:connector-curvature="0"
       id="path6612"
       style="fill:#000000" />
    <path
       d="m 246.38832,430.37238 c -11.79325,-12.15053 -22.37088,-20.61293 -13.03164,-58.24743 l 388.90873,388.90873 c -9.33924,37.6345 1.23839,46.0969 13.03164,58.24743 z"
       inkscape:connector-curvature="0"
       id="path6614"
       style="fill:#000000" />
    <path
       d="m 233.35668,372.12495 c 18.2685,-73.6235 46.13674,-48.31888 78.98703,-94.07557 l 388.90873,388.90873 c -32.85029,45.75669 -60.71853,20.45207 -78.98703,94.07557 z"
       inkscape:connector-curvature="0"
       id="path6616"
       style="fill:#000000" />
    <path
       d="m 312.34371,278.04938 c 27.86113,-38.81739 35.23884,-68.59588 51.37219,-114.08923 l 388.90873,388.90873 c -16.13335,45.49335 -23.51106,75.27184 -51.37219,114.08923 z"
       inkscape:connector-curvature="0"
       id="path6618"
       style="fill:#000000" />
    <path
       d="m 363.7159,163.96015 c 17.09559,-48.2036 24.59715,-70.517539 22.3837,-74.924532 L 775.00833,477.94435 c 2.21345,4.40699 -5.28811,26.72093 -22.3837,74.92453 z"
       inkscape:connector-curvature="0"
       id="path6620"
       style="fill:#000000" />
    <path
       d="m 386.0996,89.035618 c -2.05229,-4.087338 -4.99093,-7.958342 -8.62788,-11.595297 L 766.38045,466.34905 c 3.63695,3.63696 6.57559,7.50796 8.62788,11.5953 z"
       inkscape:connector-curvature="0"
       id="path6622"
       style="fill:#000000" />
    <path
       d="M 377.47172,77.440321 C 354.70013,54.668727 304.55267,41.072412 273.17759,41.000001 L 662.08632,429.90873 c 31.37508,0.0724 81.52253,13.66873 104.29413,36.44032 z"
       inkscape:connector-curvature="0"
       id="path6624"
       style="fill:#000000" />
    <path
       d="m 275.68855,51.110739 c 13.55405,0.125313 30.78487,3.077491 44.76882,8.080903 L 709.3661,448.10037 c -13.98395,-5.00341 -31.21477,-7.95559 -44.76882,-8.0809 z"
       inkscape:connector-curvature="0"
       id="path6626"
       style="fill:#000000" />
    <path
       d="m 320.45737,59.191642 c 22.29744,7.97942 42.97898,18.318858 51.45037,26.790257 L 760.81647,474.89063 c -8.4714,-8.4714 -29.15293,-18.81084 -51.45037,-26.79026 z"
       inkscape:connector-curvature="0"
       id="path6628"
       style="fill:#000000" />
    <path
       d="m 371.90774,85.981899 c 2.91256,2.912557 4.38181,5.6043 3.9772,7.903401 l 388.90873,388.90873 c 0.40461,-2.2991 -1.06464,-4.99084 -3.9772,-7.9034 z"
       inkscape:connector-curvature="0"
       id="path6630"
       style="fill:#000000" />
    <path
       d="m 375.88494,93.8853 c -4.01127,22.70539 -12.76546,41.2529 -14.99173,47.65699 l 388.90873,388.90873 c 2.22627,-6.40409 10.98046,-24.9516 14.99173,-47.65699 z"
       inkscape:connector-curvature="0"
       id="path6632"
       style="fill:#000000" />
    <path
       d="M 360.89321,141.54229 C 332.6983,114.2731 296.79375,191.53065 240.36965,135.10654 l 388.90873,388.90873 c 56.4241,56.42411 92.32865,-20.83344 120.52356,6.43575 z"
       inkscape:connector-curvature="0"
       id="path6634"
       style="fill:#000000" />
    <path
       d="m 240.36965,135.10654 c -2.22622,-2.22622 -4.48438,-4.66054 -6.77527,-7.31759 l 388.90873,388.90873 c 2.29089,2.65705 4.54905,5.09137 6.77527,7.31759 z"
       inkscape:connector-curvature="0"
       id="path6636"
       style="fill:#000000" />
    <path
       d="m 233.59438,127.78895 c 0,0 11.53989,-44.468468 19.49554,-69.834288 L 641.99865,446.86339 c -7.95565,25.36582 -19.49554,69.83429 -19.49554,69.83429 z"
       inkscape:connector-curvature="0"
       id="path6638"
       style="fill:#000000" />
    <path
       d="m 253.08992,57.954662 c 1.51881,-4.846824 10.63029,-6.947836 22.59008,-6.842501 L 664.58873,440.02089 c -11.95979,-0.10533 -21.07127,1.99568 -22.59008,6.8425 z"
       inkscape:connector-curvature="0"
       id="path6640"
       style="fill:#000000" />
  </g>
  <path
     d="m 273.17332,41.002845 c -12.12776,-0.03421 -21.45135,1.955815 -25.30746,6.223313 -6.11369,6.771324 -20.18731,57.265242 -37.75407,134.444502 -12.67436,55.52865 -3.88031,87.91918 4.77993,105.25106 11.07158,22.15879 19.7005,35.48224 2.20065,79.70303 -12.67437,32.02612 -25.60637,38.15549 -37.61742,39.68 -28.94435,-6.96065 -50.78715,-7.20975 -53.63973,0.61777 -3.90308,10.7086 29.12372,32.41615 73.72029,48.48259 44.59658,16.06644 83.98335,20.43927 87.88785,9.73068 2.86113,-7.85457 -14.19318,-21.63353 -41.05504,-34.76341 -11.79325,-12.15053 -22.37088,-20.61293 -13.03164,-58.24743 18.2685,-73.6235 46.13674,-48.31888 78.98703,-94.07557 27.86113,-38.81739 35.23884,-68.59588 51.37219,-114.08923 17.09559,-48.2036 24.59715,-70.517539 22.3837,-74.924532 C 371.19754,59.356763 309.56373,41.083977 273.17759,41.000001 m 2.51096,10.110738 c 13.55405,0.125313 30.78487,3.077491 44.76882,8.080903 29.96354,10.722829 57.00902,25.70744 55.42757,34.693658 -4.01127,22.70539 -12.76546,41.2529 -14.99173,47.65699 -29.30734,-28.3451 -66.94469,56.24748 -127.29883,-13.75334 0,0 11.53989,-44.468468 19.49554,-69.834288 1.51881,-4.846824 10.63029,-6.947836 22.59008,-6.842501"
     inkscape:connector-curvature="0"
     id="path66"
     style="fill:#666666" />
</svg>
