<?xml version="1.0" encoding="UTF-8" standalone="no"?>
<!-- Created with Inkscape (http://www.inkscape.org/) -->

<svg
   xmlns:dc="http://purl.org/dc/elements/1.1/"
   xmlns:cc="http://creativecommons.org/ns#"
   xmlns:rdf="http://www.w3.org/1999/02/22-rdf-syntax-ns#"
   xmlns:svg="http://www.w3.org/2000/svg"
   xmlns="http://www.w3.org/2000/svg"
   xmlns:inkscape="http://www.inkscape.org/namespaces/inkscape"
   version="1.1"
   width="100%"
   height="100%"
   viewBox="0 0 512 512"
   id="svg2">
  <metadata
     id="metadata169">
    <rdf:RDF>
      <cc:Work
         rdf:about="">
        <dc:format>image/svg+xml</dc:format>
        <dc:type
           rdf:resource="http://purl.org/dc/dcmitype/StillImage" />
      </cc:Work>
    </rdf:RDF>
  </metadata>
  <defs
     id="defs4">
    <clipPath
       id="0">
      <rect
         width="512"
         height="512"
         rx="25.988001"
         x="0"
         y="0"
         id="rect7"
         style="fill:none" />
    </clipPath>
  </defs>
  <rect
     width="512"
     height="512"
     rx="25.988001"
     x="0"
     y="0"
     id="rect9"
     style="fill:none" />
  <g
     clip-path="url(#0)"
     id="g11"
     style="opacity:0.0;color:#000000;fill-rule:evenodd">
    <path
       d="m 41.875,91.5 v 7.125 l 353.55,353.55 v -7.125 z"
       inkscape:connector-curvature="0"
       id="path13" />
    <path
       d="m 41.875,98.63 v 134.91 l 353.55,353.55 V 452.18 z"
       inkscape:connector-curvature="0"
       id="path15" />
    <path
       d="m 41.875,233.53 v 7.156 l 353.55,353.55 v -7.156 z"
       inkscape:connector-curvature="0"
       id="path17" />
    <path
       d="M 41.875,240.69 H 49 l 353.55,353.55 h -7.125 z"
       inkscape:connector-curvature="0"
       id="path19" />
    <path
       d="M 49,240.69 H 235.5 L 589.05,594.24 H 402.55 z"
       inkscape:connector-curvature="0"
       id="path21" />
    <path
       d="m 235.5,240.69 h 7.156 l 353.55,353.55 h -7.156 z"
       inkscape:connector-curvature="0"
       id="path23" />
    <path
       d="m 242.66,240.69 v -7.156 l 353.55,353.55 v 7.156 z"
       inkscape:connector-curvature="0"
       id="path25" />
    <path
       d="M 242.66,233.53 V 98.62 l 353.55,353.55 v 134.91 z"
       inkscape:connector-curvature="0"
       id="path27" />
    <path
       d="m 242.66,98.63 v -7.125 l 353.55,353.55 v 7.125 z"
       inkscape:connector-curvature="0"
       id="path29" />
    <path
       d="m 242.66,91.5 h -7.156 l 353.55,353.55 h 7.156 z"
       inkscape:connector-curvature="0"
       id="path31" />
    <path
       d="M 235.5,91.5 H 49 l 353.55,353.55 h 186.5 z"
       inkscape:connector-curvature="0"
       id="path33" />
    <path
       d="m 49,91.5 h -7.125 l 353.55,353.55 h 7.125 z"
       inkscape:connector-curvature="0"
       id="path35" />
    <path
       d="m 269.34,91.5 v 7.125 l 353.55,353.55 v -7.125 z"
       inkscape:connector-curvature="0"
       id="path37" />
    <path
       d="M 269.34,98.63 V 233.54 L 622.89,587.09 V 452.18 z"
       inkscape:connector-curvature="0"
       id="path39" />
    <path
       d="m 269.34,233.53 v 7.156 l 353.55,353.55 v -7.156 z"
       inkscape:connector-curvature="0"
       id="path41" />
    <path
       d="m 269.34,240.69 h 7.125 l 353.55,353.55 h -7.125 z"
       inkscape:connector-curvature="0"
       id="path43" />
    <path
       d="m 276.47,240.69 h 186.5 l 353.55,353.55 h -186.5 z"
       inkscape:connector-curvature="0"
       id="path45" />
    <path
       d="m 462.97,240.69 h 7.156 l 353.55,353.55 h -7.156 z"
       inkscape:connector-curvature="0"
       id="path47" />
    <path
       d="m 470.13,240.69 v -7.156 l 353.55,353.55 v 7.156 z"
       inkscape:connector-curvature="0"
       id="path49" />
    <path
       d="M 470.13,233.53 V 98.62 l 353.55,353.55 v 134.91 z"
       inkscape:connector-curvature="0"
       id="path51" />
    <path
       d="m 470.13,98.63 v -7.125 l 353.55,353.55 v 7.125 z"
       inkscape:connector-curvature="0"
       id="path53" />
    <path
       d="m 470.13,91.5 h -7.156 l 353.55,353.55 h 7.156 z"
       inkscape:connector-curvature="0"
       id="path55" />
    <path
       d="m 462.97,91.5 h -186.5 l 353.55,353.55 h 186.5 z"
       inkscape:connector-curvature="0"
       id="path57" />
    <path
       d="m 276.47,91.5 h -7.125 l 353.55,353.55 h 7.125 z"
       inkscape:connector-curvature="0"
       id="path59" />
    <path
       d="m 41.875,271.31 v 7.125 l 353.55,353.55 v -7.125 z"
       inkscape:connector-curvature="0"
       id="path61" />
    <path
       d="M 41.875,278.44 V 413.35 L 395.425,766.9 V 631.99 z"
       inkscape:connector-curvature="0"
       id="path63" />
    <path
       d="m 41.875,413.34 v 7.156 l 353.55,353.55 v -7.156 z"
       inkscape:connector-curvature="0"
       id="path65" />
    <path
       d="M 41.875,420.5 H 49 l 353.55,353.55 h -7.125 z"
       inkscape:connector-curvature="0"
       id="path67" />
    <path
       d="M 49,420.5 H 235.5 L 589.05,774.05 H 402.55 z"
       inkscape:connector-curvature="0"
       id="path69" />
    <path
       d="m 235.5,420.5 h 7.156 l 353.55,353.55 h -7.156 z"
       inkscape:connector-curvature="0"
       id="path71" />
    <path
       d="m 242.66,420.5 v -7.156 l 353.55,353.55 v 7.156 z"
       inkscape:connector-curvature="0"
       id="path73" />
    <path
       d="M 242.66,413.34 V 278.43 l 353.55,353.55 v 134.91 z"
       inkscape:connector-curvature="0"
       id="path75" />
    <path
       d="m 242.66,278.44 v -7.125 l 353.55,353.55 v 7.125 z"
       inkscape:connector-curvature="0"
       id="path77" />
    <path
       d="m 242.66,271.31 h -7.156 l 353.55,353.55 h 7.156 z"
       inkscape:connector-curvature="0"
       id="path79" />
    <path
       d="M 235.5,271.31 H 49 l 353.55,353.55 h 186.5 z"
       inkscape:connector-curvature="0"
       id="path81" />
    <path
       d="m 49,271.31 h -7.125 l 353.55,353.55 h 7.125 z"
       inkscape:connector-curvature="0"
       id="path83" />
    <path
       d="m 269.34,271.31 v 7.125 l 353.55,353.55 v -7.125 z"
       inkscape:connector-curvature="0"
       id="path85" />
    <path
       d="M 269.34,278.44 V 413.35 L 622.89,766.9 V 631.99 z"
       inkscape:connector-curvature="0"
       id="path87" />
    <path
       d="m 269.34,413.34 v 7.156 l 353.55,353.55 v -7.156 z"
       inkscape:connector-curvature="0"
       id="path89" />
    <path
       d="m 269.34,420.5 h 7.125 l 353.55,353.55 h -7.125 z"
       inkscape:connector-curvature="0"
       id="path91" />
    <path
       d="m 276.47,420.5 h 186.5 l 353.55,353.55 h -186.5 z"
       inkscape:connector-curvature="0"
       id="path93" />
    <path
       d="m 462.97,420.5 h 7.156 l 353.55,353.55 h -7.156 z"
       inkscape:connector-curvature="0"
       id="path95" />
    <path
       d="m 470.13,420.5 v -7.156 l 353.55,353.55 v 7.156 z"
       inkscape:connector-curvature="0"
       id="path97" />
    <path
       d="M 470.13,413.34 V 278.43 l 353.55,353.55 v 134.91 z"
       inkscape:connector-curvature="0"
       id="path99" />
    <path
       d="m 470.13,278.44 v -7.125 l 353.55,353.55 v 7.125 z"
       inkscape:connector-curvature="0"
       id="path101" />
    <path
       d="m 470.13,271.31 h -7.156 l 353.55,353.55 h 7.156 z"
       inkscape:connector-curvature="0"
       id="path103" />
    <path
       d="m 462.97,271.31 h -186.5 l 353.55,353.55 h 186.5 z"
       inkscape:connector-curvature="0"
       id="path105" />
    <path
       d="m 276.47,271.31 h -7.125 l 353.55,353.55 h 7.125 z"
       inkscape:connector-curvature="0"
       id="path107" />
  </g>
  <g
     id="g155"
     style="stroke:#666666;stroke-width:15.68000031">
    <g
       id="g157"
       style="fill:#666666">
      <path
         d="m 48.725,277.76 h 187.08 V 414.05 H 48.725 z"
         inkscape:connector-curvature="0"
         id="path159" />
      <path
         d="m 48.725,97.95 h 187.08 V 234.24 H 48.725 z"
         inkscape:connector-curvature="0"
         id="path161" />
    </g>
    <path
       d="M 276.19,97.95 H 463.27 V 234.24 H 276.19 z"
       inkscape:connector-curvature="0"
       id="path163"
       style="fill:none" />
    <path
       d="M 276.19,277.76 H 463.27 V 414.05 H 276.19 z"
       inkscape:connector-curvature="0"
       id="path165"
       style="fill:#666666" />
  </g>
</svg>
