<?xml version="1.0" encoding="UTF-8" standalone="no"?>
<!-- Created with Inkscape (http://www.inkscape.org/) -->

<svg
   xmlns:dc="http://purl.org/dc/elements/1.1/"
   xmlns:cc="http://creativecommons.org/ns#"
   xmlns:rdf="http://www.w3.org/1999/02/22-rdf-syntax-ns#"
   xmlns:svg="http://www.w3.org/2000/svg"
   xmlns="http://www.w3.org/2000/svg"
   xmlns:inkscape="http://www.inkscape.org/namespaces/inkscape"
   version="1.1"
   width="100%"
   height="100%"
   viewBox="0 0 512 512"
   id="svg2">
  <metadata
     id="metadata4386">
    <rdf:RDF>
      <cc:Work
         rdf:about="">
        <dc:format>image/svg+xml</dc:format>
        <dc:type
           rdf:resource="http://purl.org/dc/dcmitype/StillImage" />
      </cc:Work>
    </rdf:RDF>
  </metadata>
  <defs
     id="defs4384" />
  <g
     transform="translate(-601.18,-346.04)"
     id="g46"
     style="line-height:125%;letter-spacing:0;word-spacing:0;font-family:Gentium Book Basic">
  </g>
  <g
     transform="translate(-599.52,-179.83)"
     id="g202"
     style="line-height:125%;letter-spacing:0;word-spacing:0;font-family:Gentium Book Basic">
  </g>
  <g
     transform="translate(-622.71,-189.38)"
     id="g358"
     style="line-height:125%;letter-spacing:0;word-spacing:0;font-family:Gentium Book Basic">
  </g>
  <g
     transform="translate(-622.71,-189.38)"
     id="g514"
     style="line-height:125%;letter-spacing:0;word-spacing:0;font-family:Gentium Book Basic">
  </g>
  <g
     transform="translate(-622.71,-189.38)"
     id="g562"
     style="line-height:125%;letter-spacing:0;word-spacing:0;font-family:Gentium Book Basic">
  </g>
  <g
     transform="translate(-622.71,-189.38)"
     id="g718"
     style="line-height:125%;letter-spacing:0;word-spacing:0;font-family:Gentium Book Basic">
  </g>
  <g
     transform="translate(-622.71,-189.38)"
     id="g874"
     style="line-height:125%;letter-spacing:0;word-spacing:0;font-family:Gentium Book Basic">
  </g>
  <g
     transform="translate(-622.71,-189.38)"
     id="g922"
     style="line-height:125%;letter-spacing:0;word-spacing:0;font-family:Gentium Book Basic">
  </g>
  <g
     transform="translate(-620.97,-226.09)"
     id="g1078"
     style="line-height:125%;letter-spacing:0;word-spacing:0;font-family:Gentium Book Basic">
  </g>
  <g
     transform="translate(-620.97,-226.09)"
     id="g1234"
     style="line-height:125%;letter-spacing:0;word-spacing:0;font-family:Gentium Book Basic">
  </g>
  <g
     transform="translate(-620.97,-226.09)"
     id="g1282"
     style="line-height:125%;letter-spacing:0;word-spacing:0;font-family:Gentium Book Basic">
  </g>
  <g
     transform="translate(-620.97,-226.09)"
     id="g1438"
     style="line-height:125%;letter-spacing:0;word-spacing:0;font-family:Gentium Book Basic">
  </g>
  <g
     transform="translate(-620.97,-226.09)"
     id="g1594"
     style="line-height:125%;letter-spacing:0;word-spacing:0;font-family:Gentium Book Basic">
  </g>
  <g
     transform="translate(-620.97,-226.09)"
     id="g1642"
     style="line-height:125%;letter-spacing:0;word-spacing:0;font-family:Gentium Book Basic">
  </g>
  <g
     id="g1798"
     style="font-size:208.33000183px;line-height:125%;letter-spacing:0;word-spacing:0;font-family:Gentium Book Basic">
  </g>
  <g
     id="g1852"
     style="line-height:125%;letter-spacing:0;word-spacing:0;font-family:Gentium Book Basic">
  </g>
  <g
     transform="translate(-784.03,59.875)"
     id="g1900"
     style="line-height:125%;letter-spacing:0;word-spacing:0;font-family:Gentium Book Basic">
  </g>
  <g
     transform="translate(-784.03,59.875)"
     id="g2056"
     style="line-height:125%;letter-spacing:0;word-spacing:0;font-family:Gentium Book Basic">
  </g>
  <g
     transform="translate(-784.03,59.875)"
     id="g2104"
     style="line-height:125%;letter-spacing:0;word-spacing:0;font-family:Gentium Book Basic">
  </g>
  <g
     transform="translate(-1058.75,-485.41)"
     id="g2260"
     style="line-height:125%;letter-spacing:0;word-spacing:0;font-family:Gentium Book Basic">
  </g>
  <g
     transform="translate(-1058.75,-485.41)"
     id="g2416"
     style="line-height:125%;letter-spacing:0;word-spacing:0;font-family:Gentium Book Basic">
  </g>
  <g
     transform="translate(-1058.75,-485.41)"
     id="g2464"
     style="line-height:125%;letter-spacing:0;word-spacing:0;font-family:Gentium Book Basic">
  </g>
  <rect
     width="512"
     height="512"
     rx="26.26"
     x="0"
     y="0"
     id="rect2578"
     style="fill:none" />
  <g
     id="g2622"
     style="line-height:125%;letter-spacing:0;word-spacing:0;font-family:Gentium Book Basic">
  </g>
  <g
     id="g2778"
     style="line-height:125%;letter-spacing:0;word-spacing:0;font-family:Gentium Book Basic">
  </g>
  <g
     id="g2934"
     style="line-height:125%;letter-spacing:0;word-spacing:0;font-family:Gentium Book Basic">
  </g>
  <g
     id="g3090"
     style="line-height:125%;letter-spacing:0;word-spacing:0;font-family:Gentium Book Basic">
  </g>
  <g
     id="g3138"
     style="line-height:125%;letter-spacing:0;word-spacing:0;font-family:Gentium Book Basic">
  </g>
  <g
     id="g3294"
     style="line-height:125%;letter-spacing:0;word-spacing:0;font-family:Gentium Book Basic">
  </g>
  <g
     id="g3450"
     style="line-height:125%;letter-spacing:0;word-spacing:0;font-family:Gentium Book Basic">
  </g>
  <g
     id="g3498"
     style="line-height:125%;letter-spacing:0;word-spacing:0;font-family:Gentium Book Basic">
  </g>
  <g
     id="g3654"
     style="line-height:125%;letter-spacing:0;word-spacing:0;font-family:Gentium Book Basic">
  </g>
  <g
     id="g3810"
     style="line-height:125%;letter-spacing:0;word-spacing:0;font-family:Gentium Book Basic">
  </g>
  <g
     id="g3858"
     style="line-height:125%;letter-spacing:0;word-spacing:0;font-family:Gentium Book Basic">
  </g>
  <g
     id="g4014"
     style="line-height:125%;letter-spacing:0;word-spacing:0;font-family:Gentium Book Basic">
  </g>
  <g
     id="g4170"
     style="line-height:125%;letter-spacing:0;word-spacing:0;font-family:Gentium Book Basic">
  </g>
  <g
     id="g4218"
     style="line-height:125%;letter-spacing:0;word-spacing:0;font-family:Gentium Book Basic">
  </g>
  <path
     d="m 255.19,48.813 c -33.78,0.855 -63.35,32.25 -60.22,66.41 v 166.66 c -3.05,-1.787 -5.166,-4.497 -7.344,-7.156 -2.813,-1.739 -4.457,-4.648 -7.219,-6.438 -1.613,-2.916 -4.842,-4.224 -6.438,-7.156 -2.157,-3.412 -7.05,-4.096 -13.25,-3.469 -7.04,0.067 -16.641,-2.437 -13.375,7.938 -0.119,27.594 -1.93,56.839 13.219,81.38 14.826,26.919 41.723,43.05 63.906,63.13 6.06,4.631 12.786,9.06 10.281,17.719 -1.386,5.678 4.065,18.19 -5.656,15.531 -5.308,1.506 -16.673,-3.049 -18.19,2.25 0,6.984 -2.563,12.204 -2.563,19.19 9.79,7.263 36.14,34.28 48.781,47.22 h 228.63 c 14.546,0 26.25,-11.704 26.25,-26.25 v -212.56 c -64.51,-64.33 -147.11,-145.05 -211.03,-208.56 -11.61,-10.226 -27.05,-15.856 -42.5,-15.781 V 48.84 c -1.097,-0.037 -2.192,-0.028 -3.281,0"
     inkscape:connector-curvature="0"
     id="path4378"
     style="fill-opacity:0.0" />
  <path
     d="m 256.06,47.18 c -35.18,0 -63.52,27.561 -63.52,61.884 v 185.63 c 0,34.28 28.322,61.884 63.52,61.884 35.18,0 63.52,-27.561 63.52,-61.884 V 109.064 C 319.594,74.784 291.258,47.18 256.07,47.18 m -111.23,208.8 v 38.674 c 0,51.15 37.874,94.75 87.34,105.63 v 41.33 h -23.816 v 23.21 h 95.28 v -23.21 h -23.816 v -41.33 c 49.47,-10.874 87.34,-54.48 87.34,-105.63 V 255.98 h -23.569 v 38.674 c 0,46.884 -39.457,85.33 -87.59,85.33 -48.13,0 -87.59,-38.442 -87.59,-85.33 V 255.98 z"
     inkscape:connector-curvature="0"
     id="path4380"
     style="fill:#666666" />
</svg>
