<?xml version="1.0" encoding="UTF-8" standalone="no"?>
<!-- Created with Inkscape (http://www.inkscape.org/) -->

<svg
   xmlns:dc="http://purl.org/dc/elements/1.1/"
   xmlns:cc="http://creativecommons.org/ns#"
   xmlns:rdf="http://www.w3.org/1999/02/22-rdf-syntax-ns#"
   xmlns:svg="http://www.w3.org/2000/svg"
   xmlns="http://www.w3.org/2000/svg"
   xmlns:inkscape="http://www.inkscape.org/namespaces/inkscape"
   version="1.1"
   width="100%"
   height="100%"
   viewBox="0 0 512 512"
   id="svg2">
  <metadata
     id="metadata2900">
    <rdf:RDF>
      <cc:Work
         rdf:about="">
        <dc:format>image/svg+xml</dc:format>
        <dc:type
           rdf:resource="http://purl.org/dc/dcmitype/StillImage" />
      </cc:Work>
    </rdf:RDF>
  </metadata>
  <defs
     id="defs2898" />
  <g
     transform="translate(-601.18,-346.04)"
     id="g46"
     style="line-height:125%;letter-spacing:0;word-spacing:0;font-family:Gentium Book Basic">
  </g>
  <g
     transform="translate(-599.52,-179.83)"
     id="g202"
     style="line-height:125%;letter-spacing:0;word-spacing:0;font-family:Gentium Book Basic">
  </g>
  <g
     transform="translate(-622.71,-189.38)"
     id="g358"
     style="line-height:125%;letter-spacing:0;word-spacing:0;font-family:Gentium Book Basic">
  </g>
  <g
     transform="translate(-622.71,-189.38)"
     id="g514"
     style="line-height:125%;letter-spacing:0;word-spacing:0;font-family:Gentium Book Basic">
  </g>
  <g
     transform="translate(-622.71,-189.38)"
     id="g562"
     style="line-height:125%;letter-spacing:0;word-spacing:0;font-family:Gentium Book Basic">
  </g>
  <g
     transform="translate(-622.71,-189.38)"
     id="g718"
     style="line-height:125%;letter-spacing:0;word-spacing:0;font-family:Gentium Book Basic">
  </g>
  <g
     transform="translate(-622.71,-189.38)"
     id="g874"
     style="line-height:125%;letter-spacing:0;word-spacing:0;font-family:Gentium Book Basic">
  </g>
  <g
     transform="translate(-622.71,-189.38)"
     id="g922"
     style="line-height:125%;letter-spacing:0;word-spacing:0;font-family:Gentium Book Basic">
  </g>
  <g
     transform="translate(-620.97,-226.09)"
     id="g1078"
     style="line-height:125%;letter-spacing:0;word-spacing:0;font-family:Gentium Book Basic">
  </g>
  <g
     transform="translate(-620.97,-226.09)"
     id="g1234"
     style="line-height:125%;letter-spacing:0;word-spacing:0;font-family:Gentium Book Basic">
  </g>
  <g
     transform="translate(-620.97,-226.09)"
     id="g1282"
     style="line-height:125%;letter-spacing:0;word-spacing:0;font-family:Gentium Book Basic">
  </g>
  <g
     transform="translate(-620.97,-226.09)"
     id="g1438"
     style="line-height:125%;letter-spacing:0;word-spacing:0;font-family:Gentium Book Basic">
  </g>
  <g
     transform="translate(-620.97,-226.09)"
     id="g1594"
     style="line-height:125%;letter-spacing:0;word-spacing:0;font-family:Gentium Book Basic">
  </g>
  <g
     transform="translate(-620.97,-226.09)"
     id="g1642"
     style="line-height:125%;letter-spacing:0;word-spacing:0;font-family:Gentium Book Basic">
  </g>
  <g
     id="g1798"
     style="font-size:208.33000183px;line-height:125%;letter-spacing:0;word-spacing:0;font-family:Gentium Book Basic">
  </g>
  <g
     id="g1852"
     style="line-height:125%;letter-spacing:0;word-spacing:0;font-family:Gentium Book Basic">
  </g>
  <g
     transform="translate(-784.03,59.875)"
     id="g1900"
     style="line-height:125%;letter-spacing:0;word-spacing:0;font-family:Gentium Book Basic">
  </g>
  <g
     transform="translate(-784.03,59.875)"
     id="g2056"
     style="line-height:125%;letter-spacing:0;word-spacing:0;font-family:Gentium Book Basic">
  </g>
  <g
     transform="translate(-784.03,59.875)"
     id="g2104"
     style="line-height:125%;letter-spacing:0;word-spacing:0;font-family:Gentium Book Basic">
  </g>
  <g
     transform="translate(-1058.75,-485.41)"
     id="g2260"
     style="line-height:125%;letter-spacing:0;word-spacing:0;font-family:Gentium Book Basic">
  </g>
  <g
     transform="translate(-1058.75,-485.41)"
     id="g2416"
     style="line-height:125%;letter-spacing:0;word-spacing:0;font-family:Gentium Book Basic">
  </g>
  <g
     transform="translate(-1058.75,-485.41)"
     id="g2464"
     style="line-height:125%;letter-spacing:0;word-spacing:0;font-family:Gentium Book Basic">
  </g>
  <rect
     width="512"
     height="512"
     rx="26.26"
     x="0"
     y="0"
     id="rect2578"
     style="fill:none" />
  <g
     transform="matrix(0.9375,0,0,0.9375,-547.61,-308.41)"
     id="g2622"
     style="line-height:125%;letter-spacing:0;word-spacing:0;font-family:Gentium Book Basic">
  </g>
  <g
     transform="matrix(0.9375,0,0,0.9375,-546.05,-152.59)"
     id="g2778"
     style="line-height:125%;letter-spacing:0;word-spacing:0;font-family:Gentium Book Basic">
  </g>
  <path
     d="m 54.19,94.41 c -6.572,0.096 -13.191,0.453 -19.688,0.156 1.042,25.5 37.3,37.09 25.16,67.813 v 254.13 c 25.508,24.558 69.985,68.18 97.28,95.5 h 328.81 c 14.546,0 26.25,-11.704 26.25,-26.25 v -254.69 l -55.56,-49 c -47.859,0 -30.814,1.821 -48.75,-0.563 h -248.28 c -28.707,-28.464 -57.39,-57.27 -85.75,-85.62 -6.363,-1.38 -12.897,-1.563 -19.469,-1.469"
     inkscape:connector-curvature="0"
     id="path2892"
     style="fill-opacity:0.0" />
  <path
     d="m 34.378,95.01 v 13.328 h 25.2 v 308.65 H 72.906 V 108.338 95.01 H 34.375 m 50.841,86.972 v 32.747 h 24.18 v 25.27 h -24.18 v 24.769 h 24.18 v 24.18 h -24.18 v 24.769 h 24.18 v 25.359 h -24.18 v 34.24 h 39.31 v -22.725 h 62.59 v 22.884 h 27.715 v -22.884 h 14.194 v 22.884 h 91.91 v -22.884 h 14.625 v 22.884 h 26.07 v -22.884 h 94.78 v -168.62 h -343.44 -3.578 -24.18"
     inkscape:connector-curvature="0"
     id="path2894"
     style="fill:#666666" />
</svg>
