<?xml version="1.0" encoding="UTF-8" standalone="no"?>
<svg
   xmlns:dc="http://purl.org/dc/elements/1.1/"
   xmlns:cc="http://creativecommons.org/ns#"
   xmlns:rdf="http://www.w3.org/1999/02/22-rdf-syntax-ns#"
   xmlns:svg="http://www.w3.org/2000/svg"
   xmlns="http://www.w3.org/2000/svg"
   xmlns:sodipodi="http://sodipodi.sourceforge.net/DTD/sodipodi-0.dtd"
   xmlns:inkscape="http://www.inkscape.org/namespaces/inkscape"
   viewBox="0 0 512 512"
   id="svg2"
   version="1.1"
   inkscape:version="0.48.5 r10040"
   width="100%"
   height="100%"
   sodipodi:docname="document-open-remote.svg">
  <sodipodi:namedview
     pagecolor="#ffffff"
     bordercolor="#666666"
     borderopacity="1"
     objecttolerance="10"
     gridtolerance="10"
     guidetolerance="10"
     inkscape:pageopacity="0"
     inkscape:pageshadow="2"
     inkscape:window-width="1306"
     inkscape:window-height="715"
     id="namedview2074"
     showgrid="false"
     inkscape:zoom="0.921875"
     inkscape:cx="237.92651"
     inkscape:cy="203.92576"
     inkscape:window-x="56"
     inkscape:window-y="28"
     inkscape:window-maximized="1"
     inkscape:current-layer="svg2"
     inkscape:snap-global="false" />
  <metadata
     id="metadata2076">
    <rdf:RDF>
      <cc:Work
         rdf:about="">
        <dc:format>image/svg+xml</dc:format>
        <dc:type
           rdf:resource="http://purl.org/dc/dcmitype/StillImage" />
      </cc:Work>
    </rdf:RDF>
  </metadata>
  <defs
     id="defs4" />
  <path
     inkscape:connector-curvature="0"
     style="fill:#666666;fill-opacity:1;stroke:none"
     d="M 26,0 C 11.60265,0 0,11.60265 0,26 l 0,460 c 0,14.39735 11.60265,26 26,26 l 460,0 c 14.39735,0 26,-11.60265 26,-26 L 512,26 C 512,11.60265 500.39735,0 486,0 L 26,0 z"
     id="rect2986" />
  <path
     style="fill:#000000;stroke:none;stroke-width:1px;stroke-linecap:butt;stroke-linejoin:miter;stroke-opacity:1;opacity:0.25"
     d="M 256 56 C 145.55 56 56 145.55 56 256 C 56 302.58033 71.919949 345.44097 98.625 379.4375 L 98.03125 380 L 104.09375 386.0625 C 110.8053 393.89394 118.10606 401.1947 125.9375 407.90625 L 230.03125 512 L 486 512 C 500.39735 512 512 500.39735 512 486 L 512 228.84375 L 393.4375 110.4375 L 393.28125 110.5625 C 357.46073 76.739721 309.14923 56 256 56 z "
     id="path9511" />
  <path
     d="M 256,56 C 145.55,56 56,145.55 56,256 56,366.45 145.55,456 256,456 366.45,456 456,366.45 456,256 456,145.55 366.45,56 256,56 m -0.3,23.474999 c 8.05,0 15.975,0.550002 23.725,1.600001 1.175,1.125 0.95,2.6 -1.775,4.5 1.15,6.500001 -6.925,4.699997 -15.225,7.200004 8.6,3.524995 20.2,25.699996 4.675,10.624996 -8.425,3.25 -3.2,8.55 5.7,9.225 -9.1,7.95 -21.925,13.025 -29.225,20.925 -13.425,1.55 -6.725,31.575 -18.775,21.95 -7.325,-5.1 -18.75,-25.525 -8.9,-30.35 -8.55,-4.625 5.62501,-7.6 -1.275,-12.75 -12,-5.75 4.625,-0.5 -0.925,-7.95 -8.6,0.125 -6.7,-8.975001 -8.475,-17.6 16,-4.8 32.925,-7.375001 50.5,-7.375001 M 170.1,101.775 c 4.65,3.875 8.575,9.325 11.925,11.9 -6.85,11.25 20.525,12.625 7.675,23.55 -3.775,-3.2 -13.45,-10.775 -4.475,2.925 9.75,11.475 -9.05,2.275 -3.95,5.8 4.125,13.325 -11.025,-10.7 -19.675,-5.85 -0.275,0.2 -0.55,0.4 -0.8,0.55 0.275,-0.225 0.525,-0.4 0.8,-0.55 5.175,-3.775 16,-14.8 4.125,-21.3 -2.65,-6.52499 -5.975,-7.525 -10.5,-7.7 4.8,-3.35 9.75,-6.45 14.875,-9.325 m 39.05,9.25 c 12.725,6.3 -6.7,5.3 0,0 m 151.675,3.425 c 29.125,21.825 51.3,52.5 62.4,88.05 -14.1,3.85 -0.975,12.075 -2.7,22.85 4.275,4.475 7.15,4.275 8.525,2.1 1.25,7.90001 1.925,16 2.075,24.225 -1.025,-0.4 -2.075,-0.775 -3.175,-1.225 -14.35,-15.55 -6.475,6.35 3.2,6.375 -0.05,5.225 -0.35,10.4 -0.85,15.525 -2.82499,1.625 -5.65,2.92499 -7.6,3.7 -17.25,13.075 -17.425,-12.325 -26.75,-20.9 -6.775,-12.55 -8.375,-2.7 -2.3,3.975 3.5,13.75 16.4,27.45 30.85,25.45 -6.625,17.775 -33.15,27.35 -21.225,49.25 -15.075,10.65 -10.2,29.875 -28.475,40.3 -17.25,10.8 -20.15,-6.9 -24.775,-18.725 -8.975,-12.55 -1.175,-25 -4.825,-38.15 -9.7,-6.175 -1.575,-12.95 -5.925,-18.65 -14.6,-13.65 -40,8.275 -50.25,-14.85 -10.225,-15.6 3.275,-32.675 12.675,-44.9 8.675,-9.95 24.75,-9.825 37.725,-10.82499 3.7,2.59999 3.175,12.92499 13.375,12.99998 10.95,-3.54999 23.5,1.97501 36.225,-0.44999 14.8,-15.75 -16.2,-6.3 -15.325,-18.65 -7.5,-11.725 -4.5,14.75 -11.85,1.675 1.15,-6.175 -19.675,-24.55 -14.675,-12.225 9.025,3.925 11.5,13.925 0.95,15.82501 C 356.5,225.1 340.2,203.95 329.1,212.125 c -5.95,4.575 -20.575,28.2 -27.575,10.425 -8.175,-17.975 20.6,-3.925 14.49999,-18.9 C 302.3,193.6 326.45,195.075 329.375,185.2 c 13.1,-0.7 3.175,-12.5 10.725,-16.675 -2.2,7.925 4.1,15.2 13.7,10.25 11.075,4.15 6.675,-13.675 15.15,-8.89999 C 360.8,159.7 389.725,158.75 372.95,158.14999 354.40001,161.7 370.3,140.1 369.125,134.325 c -15.975,7.425 -8.25,26.475 -17.625,38.25 -11.625,8.65 -4.825,-1.75 -8.82501,-8.375 -14.92498,7.825 -15.39999,-16.7 -2.04999,-22.4 6.2,-9.4 11.55,-20.15 20.2,-27.35 m -211.6,1.05 c 8.6,7.15 0.7,16.9 -8.975,20.40001 -0.65,-1.10002 -7.475,11.04999 -13.3,19.87499 -4.025,18.525 27.225,14.7 28.425,32.075 5.725,-7.775 7.9,-21.425 5.225,-33.275 -0.475,-13.25 21.525,2.225 20.65,10.125 10.375,-12.825 9.575,10.175 19.825,14.125 13.25,15.15 -18.425,10.075 -24.575,19.35 3.325,-1.475 13.55,-4.45 13.725,6 11.875,-5.27501 1.775,6.17501 -4.925,6.4 3.925,-7.54999 -7.475,-2.70001 -9.4,2.975 -9.175,11.55 -25.5,24.175 -21.075,40.2 -5.225,-13.725 -28.425,-12.75 -34.6,-0.55 -4.20001,14.95 11.82499,17.275 20.025,9.55 -4.55,9.65 5.375,9.75 8.075,16 4.55,19.9 23.9,-3.20001 36.775,5.475 9.8,5.175 32.84999,8.8 30.37499,21.475 -1.22499,1.425 14.72501,2.44999 20.90001,5.35 22.75,4.97499 0.725,24.5 -0.975,37.275 -14.275,4.175 -16.725,16.725 -25.25,27.25 -13.85,-1.875 -2.575,12.475 -16.55,12.375 -7.575,6.8 -9.45,16.4 -11.7,26.175 -4.775,-2.225 -9.45,-4.65 -13.975,-7.275 3.2,-14.2 1.75,-30.275 6.475,-45.15 7.325,-16.54999 -6.225,-24.3 -14.3,-36.075 -15.45,-11.65 4.35,-23.65 -0.65,-36.125 -8.825,2.45 -17.1,-8.675 -27.12501,-11.925 -18.34999,-3.7 -30.92499,-13.75 -40.24999,-29.25 -10.4,-16.325 -4.075,2 2.075,8.1 -0.45,5.375 -8.725,-8.225 -13.325,-16.2 3.85,-46.3 25.675,-87.47499 58.45,-116.575 1.15,3.525 4.55,-0.9 6.4,-5.45 1.15,-0.925 2.3,-1.8 3.475,-2.7 m 13.9,5.75001 c 8.375,3.24999 -5.675,8.82499 0,0 m 124.2,10.42499 c 4.475,1.74999 6.725,7.475 1.05,9.75 -10.54999,9.925 -15.4,-3.55 -16.6,-5.425 0.15,-6.225 8.9,2.925 15.55,-4.325 m -141.4,4.325 2.675,1.225 c 18.725,10.2 -15.275,9.2 -2.675,-1.225 m 166.025,29.025 c -1.05,1.15 5.825,8.65 6.8,14.85 14.325,7.5 -12.475,17.55 -6.8,8.15 4.525,-5.575 -8.75,-17.35 0,-23 m -5.975,11.2 c 2.2,-0.025 1.85,3.475 1.6,4.425 -4.47499,16.475 -14.225,-1.025 -1.6,-4.425 m -101.175,12.65 c 0.075,4.3 5.025,7.2 6.8,11.8 -8.625,3.425 -18.55,-4.2 -6.8,-11.8 M 396.65,201.8 c -1.825,0.55 -3.675,1.25 -5.62501,1.375 5.50002,9.525 -5.07499,-0.725 -9.09999,1.575 -12.725,11.95 2.425,13.375 12.525,12.25 19.1,3.775 1.4,-7.75001 2.2,-15.2 m 27.95,5.725 c 0.6,2.175 1.175,4.35 1.7,6.55 -4.65,-2.275 -3.575,-4.525 -1.7,-6.55 M 338.275,217.9 c 5.1,7.95 -7.375,4.5 0,0 m -185.05,41.975 3.85,0.775 2.525,0.85 c 16.95,6.3 -7.625,2.3 -6.375,-1.625 m 19.05,5.59999 c 15.35,2.15001 -7.45,7.17501 0,0"
     id="path2072"
     inkscape:connector-curvature="0"
     style="fill:#ffffff;fill-rule:evenodd" />
</svg>
