<?xml version="1.0" encoding="UTF-8" standalone="no"?>
<svg
   xmlns:dc="http://purl.org/dc/elements/1.1/"
   xmlns:cc="http://creativecommons.org/ns#"
   xmlns:rdf="http://www.w3.org/1999/02/22-rdf-syntax-ns#"
   xmlns:svg="http://www.w3.org/2000/svg"
   xmlns="http://www.w3.org/2000/svg"
   xmlns:sodipodi="http://sodipodi.sourceforge.net/DTD/sodipodi-0.dtd"
   xmlns:inkscape="http://www.inkscape.org/namespaces/inkscape"
   width="512"
   height="512"
   viewBox="0 0 384 384"
   id="svg2"
   version="1.1"
   inkscape:version="0.48.5 r10040"
   sodipodi:docname="format-text-strikethrough.svg">
  <sodipodi:namedview
     pagecolor="#ffffff"
     bordercolor="#666666"
     borderopacity="1"
     objecttolerance="10"
     gridtolerance="10"
     guidetolerance="10"
     inkscape:pageopacity="0"
     inkscape:pageshadow="2"
     inkscape:window-width="1306"
     inkscape:window-height="715"
     id="namedview14"
     showgrid="false"
     inkscape:zoom="0.4609375"
     inkscape:cx="262.5818"
     inkscape:cy="179.52213"
     inkscape:window-x="56"
     inkscape:window-y="28"
     inkscape:window-maximized="1"
     inkscape:current-layer="svg2" />
  <metadata
     id="metadata18">
    <rdf:RDF>
      <cc:Work
         rdf:about="">
        <dc:format>image/svg+xml</dc:format>
        <dc:type
           rdf:resource="http://purl.org/dc/dcmitype/StillImage" />
      </cc:Work>
    </rdf:RDF>
  </metadata>
  <defs
     id="defs16">
    <clipPath
       clipPathUnits="userSpaceOnUse"
       id="clipPath3169">
      <path
         id="path3171"
         d="M 19.499998,9.9999999e-7 C 8.701988,9.9999999e-7 -2e-6,8.701987 -2e-6,19.500001 L -2e-6,364.5 c 0,10.79801 8.70199,19.5 19.5,19.5 L 364.5,384 c 10.79801,0 19.5,-8.70199 19.5,-19.5 l 0,-344.999999 c 0,-10.798014 -8.70199,-19.5 -19.5,-19.5 l -345.000002,0 z"
         style="fill:#666666;fill-opacity:1;stroke:none"
         inkscape:connector-curvature="0" />
    </clipPath>
  </defs>
  <path
     inkscape:connector-curvature="0"
     style="fill:#666666;fill-opacity:1;stroke:none"
     d="M 19.499998,9.9999999e-7 C 8.701988,9.9999999e-7 -2e-6,8.701987 -2e-6,19.500001 L -2e-6,364.5 c 0,10.79801 8.70199,19.5 19.5,19.5 L 364.5,384 c 10.79801,0 19.5,-8.70199 19.5,-19.5 l 0,-344.999999 c 0,-10.798014 -8.70199,-19.5 -19.5,-19.5 l -345.000002,0 z"
     id="rect2986" />
  <g
     style="fill:#000000;opacity:0.25"
     id="g3032"
     clip-path="url(#clipPath3169)">
    <path
       inkscape:connector-curvature="0"
       d="m 197.84088,42.000002 c -50.68045,0.0084 -95.49345,25.446042 -95.49345,80.287008 l 388.90873,388.90873 c 0,-54.84097 44.813,-80.27861 95.49345,-80.28701 z"
       id="path3034"
       style="fill:#000000" />
    <path
       inkscape:connector-curvature="0"
       d="m 102.34743,122.28701 c 0,13.65516 3.64562,25.13668 9.7432,35.09567 l 388.90873,388.90873 c -6.09758,-9.95899 -9.7432,-21.44051 -9.7432,-35.09567 z"
       id="path3036"
       style="fill:#000000" />
    <path
       inkscape:connector-curvature="0"
       d="m 112.09063,157.38268 c 22.27658,-0.23982 44.55669,-0.24403 66.8429,-0.17623 l 388.90873,388.90873 c -22.28621,-0.0678 -44.56632,-0.0636 -66.8429,0.17623 z"
       id="path3038"
       style="fill:#000000" />
    <path
       inkscape:connector-curvature="0"
       d="m 178.93353,157.20645 c -9.69462,-4.71525 -18.41788,-10.44905 -25.15192,-17.18309 l 388.90873,388.90873 c 6.73404,6.73404 15.4573,12.46784 25.15192,17.18309 z"
       id="path3040"
       style="fill:#000000" />
    <path
       inkscape:connector-curvature="0"
       d="m 153.78161,140.02336 c -8.59289,-8.59289 -13.94677,-18.81443 -13.94677,-30.62658 l 388.90873,388.90873 c 0,11.81215 5.35388,22.03369 13.94677,30.62658 z"
       id="path3042"
       style="fill:#000000" />
    <path
       inkscape:connector-curvature="0"
       d="m 139.83484,109.39678 c 0,-30.32427 18.41545,-52.74421 53.32327,-52.74421 L 582.06684,445.5613 c -34.90782,0 -53.32327,22.41994 -53.32327,52.74421 z"
       id="path3044"
       style="fill:#000000" />
    <path
       inkscape:connector-curvature="0"
       d="m 193.15811,56.65257 c 17.81573,0 31.65112,5.006374 41.87111,15.226369 L 623.93795,460.78767 c -10.21999,-10.22 -24.05538,-15.22637 -41.87111,-15.22637 z"
       id="path3046"
       style="fill:#000000" />
    <path
       inkscape:connector-curvature="0"
       d="m 235.02922,71.878939 c 10.28121,10.281207 16.90358,25.838677 20.23865,46.883401 L 644.1766,507.67107 c -3.33507,-21.04472 -9.95744,-36.60219 -20.23865,-46.8834 z"
       id="path3048"
       style="fill:#000000" />
    <path
       inkscape:connector-curvature="0"
       d="m 255.26787,118.76234 12.89024,0 388.90873,388.90873 -12.89024,0 z"
       id="path3050"
       style="fill:#000000" />
    <path
       inkscape:connector-curvature="0"
       d="m 268.15811,118.76234 0,-58.585096 388.90873,388.908726 0,58.5851 z"
       id="path3052"
       style="fill:#000000" />
    <path
       inkscape:connector-curvature="0"
       d="M 268.15811,60.177244 C 254.03462,48.960709 226.11928,42.004134 197.86606,42.000002 L 586.77479,430.90873 c 28.25322,0.004 56.16856,6.96071 70.29205,18.17724 z"
       id="path3054"
       style="fill:#000000" />
    <path
       inkscape:connector-curvature="0"
       d="m 197.86606,42.000002 -0.0252,0 388.90873,388.908728 0.0252,0 z"
       id="path3056"
       style="fill:#000000" />
    <path
       inkscape:connector-curvature="0"
       d="m 68.661632,172.36254 c -10.846056,0 -19.637463,8.78818 -19.637463,19.63746 L 437.9329,580.90873 c 0,-10.84928 8.79141,-19.63746 19.63746,-19.63746 z"
       id="path3058"
       style="fill:#000000" />
    <path
       inkscape:connector-curvature="0"
       d="m 49.024169,192 c 0,5.42343 2.197373,10.33313 5.751046,13.8868 L 443.68394,594.79553 c -3.55367,-3.55367 -5.75104,-8.46337 -5.75104,-13.8868 z"
       id="path3060"
       style="fill:#000000" />
    <path
       inkscape:connector-curvature="0"
       d="m 54.775215,205.8868 c 3.553143,3.55315 8.462182,5.75067 13.886417,5.75067 L 457.57036,600.5462 c -5.42423,0 -10.33327,-2.19753 -13.88642,-5.75067 z"
       id="path3062"
       style="fill:#000000" />
    <path
       inkscape:connector-curvature="0"
       d="m 68.661632,211.63747 246.676738,0 388.90873,388.90873 -246.67674,0 z"
       id="path3064"
       style="fill:#000000" />
    <path
       inkscape:connector-curvature="0"
       d="m 315.33837,211.63747 c 10.84606,0 19.63746,-8.78818 19.63746,-19.63747 l 388.90873,388.90873 c 0,10.84929 -8.7914,19.63747 -19.63746,19.63747 z"
       id="path3066"
       style="fill:#000000" />
    <path
       inkscape:connector-curvature="0"
       d="m 334.97583,192 c 0,-5.42343 -2.19737,-10.33312 -5.75104,-13.88679 l 388.90873,388.90873 c 3.55367,3.55367 5.75104,8.46336 5.75104,13.88679 z"
       id="path3068"
       style="fill:#000000" />
    <path
       inkscape:connector-curvature="0"
       d="m 329.22479,178.11321 c -3.55315,-3.55314 -8.46218,-5.75067 -13.88642,-5.75067 L 704.2471,561.27127 c 5.42424,0 10.33327,2.19752 13.88642,5.75067 z"
       id="path3070"
       style="fill:#000000" />
    <path
       inkscape:connector-curvature="0"
       d="m 315.33837,172.36254 -246.676738,0 388.908728,388.90873 246.67674,0 z"
       id="path3072"
       style="fill:#000000" />
    <path
       inkscape:connector-curvature="0"
       d="m 280.72105,226.51662 c -19.01264,0.28687 -38.03113,0.34328 -57.04935,0.32729 l 388.90873,388.90873 c 19.01822,0.016 38.03671,-0.0404 57.04935,-0.32729 z"
       id="path3074"
       style="fill:#000000" />
    <path
       inkscape:connector-curvature="0"
       d="m 223.6717,226.84391 c 1.84131,1.53831 3.62882,3.16015 5.33748,4.86881 l 388.90873,388.90873 c -1.70866,-1.70866 -3.49617,-3.33051 -5.33748,-4.86881 z"
       id="path3076"
       style="fill:#000000" />
    <path
       inkscape:connector-curvature="0"
       d="m 229.00918,231.71272 c 9.72323,9.72323 16.89313,22.2578 16.89313,38.20773 l 388.90873,388.90873 c 0,-15.94993 -7.1699,-28.4845 -16.89313,-38.20773 z"
       id="path3078"
       style="fill:#000000" />
    <path
       inkscape:connector-curvature="0"
       d="m 245.90231,269.92045 c 0,35.73817 -22.78737,57.42699 -59.76837,57.42699 l 388.90873,388.90873 c 36.981,0 59.76837,-21.68882 59.76837,-57.42699 z"
       id="path3080"
       style="fill:#000000" />
    <path
       inkscape:connector-curvature="0"
       d="m 186.13394,327.34744 c -18.69599,0 -34.29817,-6.92641 -46.62384,-19.25208 l 388.90873,388.90873 c 12.32567,12.32567 27.92785,19.25208 46.62384,19.25208 z"
       id="path3082"
       style="fill:#000000" />
    <path
       inkscape:connector-curvature="0"
       d="M 139.5101,308.09536 C 126.08647,294.67173 116.54909,274.84408 111.13394,250.5851 l 388.90873,388.90873 c 5.41515,24.25898 14.95253,44.08663 28.37616,57.51026 z"
       id="path3084"
       style="fill:#000000" />
    <path
       inkscape:connector-curvature="0"
       d="m 111.13394,250.5851 -13.469288,0 388.908728,388.90873 13.46929,0 z"
       id="path3086"
       style="fill:#000000" />
    <path
       inkscape:connector-curvature="0"
       d="m 97.664652,250.5851 4.103728,66.2135 388.90873,388.90873 -4.10373,-66.2135 z"
       id="path3088"
       style="fill:#000000" />
    <path
       inkscape:connector-curvature="0"
       d="M 101.76838,316.7986 C 120.05102,333.82981 154.71433,342 183.79255,342 l 388.90873,388.90873 c -29.07822,0 -63.74153,-8.17019 -82.02417,-25.2014 z"
       id="path3090"
       style="fill:#000000" />
    <path
       inkscape:connector-curvature="0"
       d="m 183.79255,342 c 73.53877,0 102.51762,-42.00335 102.51762,-84.39073 L 675.2189,646.518 c 0,42.38738 -28.97885,84.39073 -102.51762,84.39073 z"
       id="path3092"
       style="fill:#000000" />
    <path
       inkscape:connector-curvature="0"
       d="m 286.31017,257.60927 c 0,-11.84315 -1.95969,-22.01535 -5.58912,-31.09265 l 388.90873,388.90873 c 3.62943,9.0773 5.58912,19.2495 5.58912,31.09265 z"
       id="path3094"
       style="fill:#000000" />
  </g>
  <path
     style="fill:#ffffff"
     d="m 197.84088,42.000002 c -50.68045,0.0084 -95.49345,25.446042 -95.49345,80.287008 0,13.65516 3.64562,25.13668 9.7432,35.09567 22.27658,-0.23982 44.55669,-0.24403 66.8429,-0.17623 -22.06532,-10.73209 -39.09869,-26.74063 -39.09869,-47.80967 0,-30.32427 18.41545,-52.74421 53.32327,-52.74421 35.73816,0 55.45948,20.145619 62.10976,62.10977 l 12.89024,0 0,-58.585096 C 254.03462,48.960709 226.11928,42.004134 197.86606,42.000002 l -0.0252,0 z M 68.661632,172.36254 c -10.846056,0 -19.637463,8.78818 -19.637463,19.63746 0,10.84606 8.788184,19.63747 19.637463,19.63747 l 246.676738,0 c 10.84606,0 19.63746,-8.78818 19.63746,-19.63747 0,-10.84605 -8.78818,-19.63746 -19.63746,-19.63746 l -246.676738,0 z m 212.059418,54.15408 c -19.01264,0.28687 -38.03113,0.34328 -57.04935,0.32729 12.31936,10.29211 22.23061,24.32373 22.23061,43.07654 0,35.73817 -22.78737,57.42699 -59.76837,57.42699 -39.05741,0 -64.61263,-30.2286 -75,-76.76234 l -13.469288,0 4.103728,66.2135 C 120.05102,333.82981 154.71433,342 183.79255,342 c 73.53877,0 102.51762,-42.00335 102.51762,-84.39073 0,-11.84315 -1.95969,-22.01535 -5.58912,-31.09265 z"
     id="path10"
     inkscape:connector-curvature="0" />
</svg>
