<?xml version="1.0" encoding="UTF-8" standalone="no"?>
<svg
   xmlns:dc="http://purl.org/dc/elements/1.1/"
   xmlns:cc="http://creativecommons.org/ns#"
   xmlns:rdf="http://www.w3.org/1999/02/22-rdf-syntax-ns#"
   xmlns:svg="http://www.w3.org/2000/svg"
   xmlns="http://www.w3.org/2000/svg"
   xmlns:sodipodi="http://sodipodi.sourceforge.net/DTD/sodipodi-0.dtd"
   xmlns:inkscape="http://www.inkscape.org/namespaces/inkscape"
   width="512"
   height="512"
   viewBox="0 0 384 384"
   id="svg2"
   version="1.1"
   inkscape:version="0.48.5 r10040"
   sodipodi:docname="insert-link.svg">
  <sodipodi:namedview
     pagecolor="#ffffff"
     bordercolor="#666666"
     borderopacity="1"
     objecttolerance="10"
     gridtolerance="10"
     guidetolerance="10"
     inkscape:pageopacity="0"
     inkscape:pageshadow="2"
     inkscape:window-width="1306"
     inkscape:window-height="715"
     id="namedview12"
     showgrid="false"
     inkscape:zoom="0.4609375"
     inkscape:cx="565.15254"
     inkscape:cy="108.47458"
     inkscape:window-x="56"
     inkscape:window-y="28"
     inkscape:window-maximized="1"
     inkscape:current-layer="svg2" />
  <metadata
     id="metadata16">
    <rdf:RDF>
      <cc:Work
         rdf:about="">
        <dc:format>image/svg+xml</dc:format>
        <dc:type
           rdf:resource="http://purl.org/dc/dcmitype/StillImage" />
      </cc:Work>
    </rdf:RDF>
  </metadata>
  <defs
     id="defs14">
    <clipPath
       clipPathUnits="userSpaceOnUse"
       id="clipPath3198">
      <path
         id="path3200"
         d="M 19.499999,5.0000003e-7 C 8.701989,5.0000003e-7 -1.0000001e-6,8.7019805 -1.0000001e-6,19.500001 l 0,344.999999 C -1.0000001e-6,375.29801 8.701989,384 19.499999,384 L 364.5,384 c 10.79801,0 19.5,-8.70199 19.5,-19.5 L 384,19.500001 C 384,8.7019805 375.29801,5.0000006e-7 364.5,5.0000006e-7 l -345.000001,0 z"
         style="fill:#666666;fill-opacity:1;stroke:none"
         inkscape:connector-curvature="0" />
    </clipPath>
  </defs>
  <path
     inkscape:connector-curvature="0"
     style="fill:#666666;fill-opacity:1;stroke:none"
     d="M 19.499999,5.0000003e-7 C 8.701989,5.0000003e-7 -1.0000001e-6,8.7019805 -1.0000001e-6,19.500001 l 0,344.999999 C -1.0000001e-6,375.29801 8.701989,384 19.499999,384 L 364.5,384 c 10.79801,0 19.5,-8.70199 19.5,-19.5 L 384,19.500001 C 384,8.7019805 375.29801,5.0000006e-7 364.5,5.0000006e-7 l -345.000001,0 z"
     id="rect2986" />
  <g
     style="fill:#000000;fill-rule:evenodd;opacity:0.25"
     id="g3013"
     clip-path="url(#clipPath3198)">
    <path
       inkscape:connector-curvature="0"
       d="m 309.90029,57.909224 c 0,-2e-6 0,-5e-6 -10e-6,-7e-6 L 698.80901,446.81795 c 0,0 1e-5,0 1e-5,0 z"
       id="path3015"
       style="fill:#000000" />
    <path
       inkscape:connector-curvature="0"
       d="m 309.90028,57.909217 c -21.21229,-21.212291 -55.2598,-21.212289 -76.46564,7e-6 L 622.34337,446.81795 c 21.20584,-21.21229 55.25335,-21.21229 76.46564,0 z"
       id="path3017"
       style="fill:#000000" />
    <path
       inkscape:connector-curvature="0"
       d="m 233.43464,57.909224 -41.40082,41.400796 388.90873,388.90873 41.40082,-41.4008 z"
       id="path3019"
       style="fill:#000000" />
    <path
       inkscape:connector-curvature="0"
       d="m 192.03382,99.31002 c -18.04001,18.0443 -20.62575,45.22629 -7.97314,66.04539 l 388.90873,388.90873 c -12.65261,-20.8191 -10.06687,-48.00109 7.97314,-66.04539 z"
       id="path3021"
       style="fill:#000000" />
    <path
       inkscape:connector-curvature="0"
       d="m 184.06068,165.35541 17.99381,-17.9938 388.90873,388.90873 -17.99381,17.9938 z"
       id="path3023"
       style="fill:#000000" />
    <path
       inkscape:connector-curvature="0"
       d="m 202.05449,147.36161 c -4.26802,-13.82679 -1.04095,-29.42499 9.9154,-40.37709 l 388.90873,388.90873 c -10.95635,10.9521 -14.18342,26.5503 -9.9154,40.37709 z"
       id="path3025"
       style="fill:#000000" />
    <path
       inkscape:connector-curvature="0"
       d="m 211.96989,106.98452 27.08204,-27.092798 388.90873,388.908728 -27.08204,27.0928 z"
       id="path3027"
       style="fill:#000000" />
    <path
       inkscape:connector-curvature="0"
       d="m 239.05193,79.891722 c 15.76514,-15.765138 41.27728,-15.765799 57.0411,-0.002 L 685.00176,468.79845 c -15.76382,-15.76382 -41.27596,-15.76316 -57.0411,0.002 z"
       id="path3029"
       style="fill:#000000" />
    <path
       inkscape:connector-curvature="0"
       d="m 296.09303,79.88974 c 6.6e-4,6.6e-4 10e-4,0.0013 0.002,0.002 l 388.90871,388.90871 c -6.6e-4,-6.6e-4 -10e-4,-0.001 -0.002,-0.002 z"
       id="path3031"
       style="fill:#000000" />
    <path
       inkscape:connector-curvature="0"
       d="m 296.09501,79.891722 8.07412,8.074199 388.90873,388.908729 -8.07412,-8.0742 z"
       id="path3033"
       style="fill:#000000" />
    <path
       inkscape:connector-curvature="0"
       d="m 304.16913,87.965921 c 0,3e-6 1e-5,7e-6 1e-5,1e-5 L 693.07787,476.87466 c 0,0 -10e-6,-1e-5 -10e-6,-1e-5 z"
       id="path3035"
       style="fill:#000000" />
    <path
       inkscape:connector-curvature="0"
       d="m 304.16914,87.965931 c 15.7658,15.765799 15.66482,41.176289 -0.10101,56.946379 l 388.90873,388.90873 c 15.76583,-15.77009 15.86681,-41.18058 0.10101,-56.94638 z"
       id="path3037"
       style="fill:#000000" />
    <path
       inkscape:connector-curvature="0"
       d="m 304.06813,144.91231 -27.09278,27.082 388.90873,388.90873 27.09278,-27.082 z"
       id="path3039"
       style="fill:#000000" />
    <path
       inkscape:connector-curvature="0"
       d="m 276.97535,171.99431 c -10.94776,10.9521 -26.4826,14.2511 -40.27606,10.0207 l 388.90873,388.90873 c 13.79346,4.2304 29.3283,0.9314 40.27606,-10.0207 z"
       id="path3041"
       style="fill:#000000" />
    <path
       inkscape:connector-curvature="0"
       d="m 236.69929,182.01501 -17.99382,17.9895 388.90873,388.90873 17.99382,-17.9895 z"
       id="path3043"
       style="fill:#000000" />
    <path
       inkscape:connector-curvature="0"
       d="m 218.70547,200.00451 c 20.82234,12.5849 48.03542,10.0336 66.04536,-7.9731 l 388.90873,388.90873 c -18.00994,18.0067 -45.22302,20.558 -66.04536,7.9731 z"
       id="path3045"
       style="fill:#000000" />
    <path
       inkscape:connector-curvature="0"
       d="m 284.75083,192.03141 41.40082,-41.4009 388.90873,388.90873 -41.40082,41.4009 z"
       id="path3047"
       style="fill:#000000" />
    <path
       inkscape:connector-curvature="0"
       d="m 326.15165,150.63051 c 21.21228,-21.21229 21.107,-55.35649 -0.1053,-76.573088 L 714.95508,462.96615 c 21.2123,21.2166 21.31758,55.3608 0.1053,76.57309 z"
       id="path3049"
       style="fill:#000000" />
    <path
       inkscape:connector-curvature="0"
       d="m 326.04635,74.057422 -16.15684,-16.156798 388.90873,388.908726 16.15684,16.1568 z"
       id="path3051"
       style="fill:#000000" />
    <path
       inkscape:connector-curvature="0"
       d="m 234.64851,149.28771 c -4.07896,-4.0789 -10.6416,-4.0789 -14.72056,0 l 388.90873,388.90873 c 4.07896,-4.0789 10.6416,-4.0789 14.72056,0 z"
       id="path3053"
       style="fill:#000000" />
    <path
       inkscape:connector-curvature="0"
       d="m 219.92795,149.28771 -91.60194,91.60199 388.90873,388.90873 91.60194,-91.60199 z"
       id="path3055"
       style="fill:#000000" />
    <path
       inkscape:connector-curvature="0"
       d="m 128.32601,240.8897 c -4.07894,4.07458 -4.07896,10.64154 -6e-5,14.72044 l 388.90873,388.90873 c -4.0789,-4.0789 -4.07888,-10.64586 6e-5,-14.72044 z"
       id="path3057"
       style="fill:#000000" />
    <path
       inkscape:connector-curvature="0"
       d="m 128.32595,255.61014 c 2e-5,2e-5 4e-5,4e-5 6e-5,6e-5 l 388.90873,388.90873 c -2e-5,-2e-5 -4e-5,-4e-5 -6e-5,-6e-5 z"
       id="path3059"
       style="fill:#000000" />
    <path
       inkscape:connector-curvature="0"
       d="m 128.32601,255.6102 c 4.07895,4.0747 10.64159,4.0747 14.72055,0 l 388.90873,388.90873 c -4.07896,4.0747 -10.6416,4.0747 -14.72055,0 z"
       id="path3061"
       style="fill:#000000" />
    <path
       inkscape:connector-curvature="0"
       d="m 143.04656,255.6102 91.60195,-91.60189 388.90873,388.90873 -91.60195,91.60189 z"
       id="path3063"
       style="fill:#000000" />
    <path
       inkscape:connector-curvature="0"
       d="m 234.64851,164.00831 c 4.07896,-4.079 4.07896,-10.6416 0,-14.7206 l 388.90873,388.90873 c 4.07896,4.079 4.07896,10.6416 0,14.7206 z"
       id="path3065"
       style="fill:#000000" />
    <path
       inkscape:connector-curvature="0"
       d="m 165.3374,184.04531 c -20.81374,-12.6472 -47.99783,-10.0669 -66.034616,7.9732 L 488.21151,580.92724 c 18.03679,-18.0401 45.22088,-20.6204 66.03462,-7.9732 z"
       id="path3067"
       style="fill:#000000" />
    <path
       inkscape:connector-curvature="0"
       d="m 99.302784,192.01851 -41.405106,41.4008 388.908732,388.90873 41.4051,-41.4008 z"
       id="path3069"
       style="fill:#000000" />
    <path
       inkscape:connector-curvature="0"
       d="m 57.897678,233.41931 c -21.207313,21.21161 -21.207997,55.25759 -0.0021,76.46354 L 446.80436,698.79158 c -21.20595,-21.20595 -21.20527,-55.25193 0.002,-76.46354 z"
       id="path3071"
       style="fill:#000000" />
    <path
       inkscape:connector-curvature="0"
       d="m 57.895625,309.88285 c 6.85e-4,6.8e-4 0.0014,10e-4 0.0021,0.002 L 446.80641,698.79363 c -6.9e-4,-6.8e-4 -0.001,-10e-4 -0.002,-0.002 z"
       id="path3073"
       style="fill:#000000" />
    <path
       inkscape:connector-curvature="0"
       d="m 57.897678,309.8849 16.156829,16.1569 388.908733,388.90873 -16.15683,-16.1569 z"
       id="path3075"
       style="fill:#000000" />
    <path
       inkscape:connector-curvature="0"
       d="m 74.054507,326.0418 c 21.212297,21.20799 55.356503,21.31329 76.573083,0.101 l 388.90873,388.90873 c -21.21658,21.21229 -55.36079,21.10699 -76.57308,-0.101 z"
       id="path3077"
       style="fill:#000000" />
    <path
       inkscape:connector-curvature="0"
       d="m 150.62759,326.1428 41.40082,-41.4009 388.90873,388.90873 -41.40082,41.4009 z"
       id="path3079"
       style="fill:#000000" />
    <path
       inkscape:connector-curvature="0"
       d="m 192.02841,284.7419 c 18.0067,-18.0067 20.56129,-45.2155 7.97314,-66.03459 l 388.90873,388.90873 c 12.58815,20.81909 10.03356,48.02789 -7.97314,66.03459 z"
       id="path3081"
       style="fill:#000000" />
    <path
       inkscape:connector-curvature="0"
       d="m 200.00155,218.70731 -17.98952,17.9895 388.90873,388.90873 17.98952,-17.9895 z"
       id="path3083"
       style="fill:#000000" />
    <path
       inkscape:connector-curvature="0"
       d="m 182.01203,236.69681 c 4.23042,13.79349 0.9314,29.32839 -10.02068,40.27609 l 388.90873,388.90873 c 10.95208,-10.9477 14.2511,-26.4826 10.02068,-40.27609 z"
       id="path3085"
       style="fill:#000000" />
    <path
       inkscape:connector-curvature="0"
       d="m 171.99135,276.9729 -27.08203,27.0928 388.90873,388.90873 27.08203,-27.0928 z"
       id="path3087"
       style="fill:#000000" />
    <path
       inkscape:connector-curvature="0"
       d="m 144.90932,304.0657 c -15.76504,15.76504 -41.17386,15.86679 -56.93339,0.10727 L 476.88466,693.0817 c 15.75952,15.75952 41.16835,15.65777 56.93339,-0.10727 z"
       id="path3089"
       style="fill:#000000" />
    <path
       inkscape:connector-curvature="0"
       d="m 87.97593,304.17297 c -7.55e-4,-7.6e-4 -0.0015,-0.002 -0.0023,-0.002 l 388.90876,388.90846 c 7.6e-4,7.5e-4 0.002,0.002 0.002,0.002 z"
       id="path3091"
       style="fill:#000000" />
    <path
       inkscape:connector-curvature="0"
       d="m 87.973665,304.1707 -8.078419,-8.0784 388.908734,388.90873 8.07841,8.0784 z"
       id="path3093"
       style="fill:#000000" />
    <path
       inkscape:connector-curvature="0"
       d="m 79.895246,296.0923 c -15.765798,-15.7659 -15.765798,-41.2752 0,-57.0431 L 468.80398,627.95793 c -15.7658,15.7679 -15.7658,41.2772 0,57.0431 z"
       id="path3095"
       style="fill:#000000" />
    <path
       inkscape:connector-curvature="0"
       d="m 79.895246,239.0492 27.092774,-27.09279 388.90873,388.90873 -27.09277,27.09279 z"
       id="path3097"
       style="fill:#000000" />
    <path
       inkscape:connector-curvature="0"
       d="m 106.98802,211.95641 c 10.95206,-10.9521 26.55458,-14.1834 40.37705,-9.9154 L 536.2738,590.94974 c -13.82247,-4.268 -29.42499,-1.0367 -40.37705,9.9154 z"
       id="path3099"
       style="fill:#000000" />
  </g>
  <path
     style="fill:#ffffff;fill-rule:evenodd"
     inkscape:connector-curvature="0"
     id="path10"
     d="m 309.90029,57.909224 c -21.21229,-21.212298 -55.25981,-21.212298 -76.46565,0 L 192.03382,99.31002 c -18.04001,18.0443 -20.62575,45.22629 -7.97314,66.04539 l 17.99381,-17.9938 c -4.26802,-13.82679 -1.04095,-29.42499 9.9154,-40.37709 l 27.08204,-27.092798 c 15.7658,-15.765799 41.27942,-15.765799 57.04308,0 l 8.07412,8.074199 c 15.76581,15.765799 15.66483,41.176299 -0.101,56.946389 l -27.09278,27.082 c -10.94776,10.9521 -26.4826,14.2511 -40.27606,10.0207 l -17.99382,17.9895 c 20.82234,12.5849 48.03542,10.0336 66.04536,-7.9731 l 41.40082,-41.4009 c 21.21228,-21.21229 21.107,-55.35649 -0.1053,-76.573088 L 309.88951,57.900624 m -75.241,91.387086 c -4.07896,-4.0789 -10.6416,-4.0789 -14.72056,0 l -91.60194,91.60199 c -4.07896,4.0746 -4.07896,10.6416 0,14.7205 4.07895,4.0747 10.64159,4.0747 14.72055,0 l 91.60195,-91.60189 c 4.07896,-4.079 4.07896,-10.6416 0,-14.7206 m -69.31111,34.7576 c -20.81374,-12.6472 -47.99783,-10.0669 -66.034616,7.9732 l -41.405106,41.4008 c -21.207997,21.21229 -21.207997,55.25979 0,76.46559 l 16.156829,16.1569 c 21.212297,21.20799 55.356503,21.31329 76.573083,0.101 l 41.40082,-41.4009 c 18.0067,-18.0067 20.56129,-45.2155 7.97314,-66.03459 l -17.98952,17.9895 c 4.23042,13.79349 0.9314,29.32839 -10.02068,40.27609 l -27.08203,27.0928 c -15.7658,15.7658 -41.1763,15.8668 -56.935655,0.105 l -8.078419,-8.0784 c -15.765798,-15.7659 -15.765798,-41.2752 0,-57.0431 l 27.092774,-27.09279 c 10.95206,-10.9521 26.55458,-14.1834 40.37705,-9.9154" />
</svg>
