<?xml version="1.0" encoding="UTF-8" standalone="no"?>
<svg
   xmlns:dc="http://purl.org/dc/elements/1.1/"
   xmlns:cc="http://creativecommons.org/ns#"
   xmlns:rdf="http://www.w3.org/1999/02/22-rdf-syntax-ns#"
   xmlns:svg="http://www.w3.org/2000/svg"
   xmlns="http://www.w3.org/2000/svg"
   xmlns:sodipodi="http://sodipodi.sourceforge.net/DTD/sodipodi-0.dtd"
   xmlns:inkscape="http://www.inkscape.org/namespaces/inkscape"
   width="512"
   height="512"
   viewBox="0 0 384 384"
   id="svg2"
   version="1.1"
   inkscape:version="0.48.5 r10040"
   sodipodi:docname="mail-forwarded-replied.svg">
  <sodipodi:namedview
     pagecolor="#ffffff"
     bordercolor="#666666"
     borderopacity="1"
     objecttolerance="10"
     gridtolerance="10"
     guidetolerance="10"
     inkscape:pageopacity="0"
     inkscape:pageshadow="2"
     inkscape:window-width="1306"
     inkscape:window-height="715"
     id="namedview18"
     showgrid="false"
     inkscape:zoom="0.65186406"
     inkscape:cx="289.01869"
     inkscape:cy="196.56185"
     inkscape:window-x="56"
     inkscape:window-y="28"
     inkscape:window-maximized="1"
     inkscape:current-layer="svg2" />
  <metadata
     id="metadata22">
    <rdf:RDF>
      <cc:Work
         rdf:about="">
        <dc:format>image/svg+xml</dc:format>
        <dc:type
           rdf:resource="http://purl.org/dc/dcmitype/StillImage" />
      </cc:Work>
    </rdf:RDF>
  </metadata>
  <defs
     id="defs20">
    <clipPath
       clipPathUnits="userSpaceOnUse"
       id="clipPath3369">
      <path
         id="path3371"
         d="M 19.5,0 C 8.70199,0 0,8.70198 0,19.5 l 0,345 C 0,375.29801 8.70199,384 19.5,384 l 345,0 c 10.79801,0 19.5,-8.70199 19.5,-19.5 l 0,-345 C 384,8.70198 375.29801,0 364.5,0 l -345,0 z"
         style="fill:#666666;fill-opacity:1;stroke:none"
         inkscape:connector-curvature="0" />
    </clipPath>
  </defs>
  <path
     inkscape:connector-curvature="0"
     style="fill:#666666;fill-opacity:1;stroke:none"
     d="M 19.5,0 C 8.70199,0 0,8.70198 0,19.5 l 0,345 C 0,375.29801 8.70199,384 19.5,384 l 345,0 c 10.79801,0 19.5,-8.70199 19.5,-19.5 l 0,-345 C 384,8.70198 375.29801,0 364.5,0 l -345,0 z"
     id="rect2986" />
  <g
     style="fill:#000000;opacity:0.25"
     id="g3071"
     clip-path="url(#clipPath3369)">
    <path
       inkscape:connector-curvature="0"
       d="m 85.291249,48.557014 0,79.672056 282.842711,282.84271 0,-79.67205 z"
       id="path3073"
       style="fill:#000000" />
    <path
       inkscape:connector-curvature="0"
       d="M 85.291249,128.22907 49.87616,154.77851 332.71887,437.62122 368.13396,411.07178 z"
       id="path3075"
       style="fill:#000000" />
    <path
       inkscape:connector-curvature="0"
       d="m 49.87616,154.77851 0,26.38305 282.84271,282.84271 0,-26.38305 z"
       id="path3077"
       style="fill:#000000" />
    <path
       inkscape:connector-curvature="0"
       d="m 49.87616,181.16156 c 12.796704,-7.54747 27.330537,-11.97554 42.450565,-11.97933 L 375.16944,452.02494 c -15.12003,0.004 -29.65386,4.43186 -42.45057,11.97933 z"
       id="path3079"
       style="fill:#000000" />
    <path
       inkscape:connector-curvature="0"
       d="m 92.326725,169.18223 c 3.553336,-0.1049 7.109505,0.005 10.648295,0.33275 l 282.84271,282.84271 c -3.53879,-0.32775 -7.09496,-0.43765 -10.64829,-0.33275 z"
       id="path3081"
       style="fill:#000000" />
    <path
       inkscape:connector-curvature="0"
       d="m 102.97502,169.51498 0,-103.250422 282.84271,282.842712 0,103.25042 z"
       id="path3083"
       style="fill:#000000" />
    <path
       inkscape:connector-curvature="0"
       d="m 102.97502,66.264558 123.90527,0 282.84271,282.842712 -123.90527,0 z"
       id="path3085"
       style="fill:#000000" />
    <path
       inkscape:connector-curvature="0"
       d="m 226.88029,66.264558 0,53.098862 282.84271,282.84271 0,-53.09886 z"
       id="path3087"
       style="fill:#000000" />
    <path
       inkscape:connector-curvature="0"
       d="m 226.88029,119.36342 53.09887,0 282.84271,282.84271 -53.09887,0 z"
       id="path3089"
       style="fill:#000000" />
    <path
       inkscape:connector-curvature="0"
       d="m 279.97916,119.36342 0,50.1278 282.84271,282.84271 0,-50.1278 z"
       id="path3091"
       style="fill:#000000" />
    <path
       inkscape:connector-curvature="0"
       d="m 279.97916,169.49122 c 1.41487,-0.12618 2.85099,-0.23599 4.27834,-0.28522 l 282.84271,282.84271 c -1.42735,0.0492 -2.86347,0.15904 -4.27834,0.28522 z"
       id="path3093"
       style="fill:#000000" />
    <path
       inkscape:connector-curvature="0"
       d="m 284.2575,169.206 c 13.33738,-0.56069 26.71974,1.65171 39.00412,6.70272 l 282.84271,282.84271 c -12.28438,-5.05101 -25.66674,-7.26341 -39.00412,-6.70272 z"
       id="path3095"
       style="fill:#000000" />
    <path
       inkscape:connector-curvature="0"
       d="m 323.26162,175.90872 c 3.38913,1.2609 6.66194,2.73618 9.8164,4.42094 l 282.84271,282.84271 c -3.15446,-1.68476 -6.42727,-3.16004 -9.8164,-4.42094 z"
       id="path3097"
       style="fill:#000000" />
    <path
       inkscape:connector-curvature="0"
       d="m 333.07802,180.32966 0,-25.57493 282.84271,282.84271 0,25.57493 z"
       id="path3099"
       style="fill:#000000" />
    <path
       inkscape:connector-curvature="0"
       d="m 333.07802,154.75473 -35.39131,-26.54942 282.84271,282.84271 35.39131,26.54942 z"
       id="path3101"
       style="fill:#000000" />
    <path
       inkscape:connector-curvature="0"
       d="m 297.68671,128.20531 0,-26.54943 282.84271,282.84271 0,26.54943 z"
       id="path3103"
       style="fill:#000000" />
    <path
       inkscape:connector-curvature="0"
       d="M 297.68671,101.65588 244.58784,48.557014 527.43055,331.39973 580.52942,384.49859 z"
       id="path3105"
       style="fill:#000000" />
    <path
       inkscape:connector-curvature="0"
       d="m 244.58784,48.557014 -159.296591,0 282.842711,282.842716 159.29659,0 z"
       id="path3107"
       style="fill:#000000" />
    <path
       inkscape:connector-curvature="0"
       d="m 85.267479,150.3338 0,16.04374 282.842711,282.84271 0,-16.04374 z"
       id="path3109"
       style="fill:#000000" />
    <path
       inkscape:connector-curvature="0"
       d="m 85.267479,166.37754 -10.505684,-8.29521 282.842715,282.84271 10.50568,8.29521 z"
       id="path3111"
       style="fill:#000000" />
    <path
       inkscape:connector-curvature="0"
       d="m 74.761795,158.08233 10.505684,-7.74853 282.842711,282.84271 -10.50568,7.74853 z"
       id="path3113"
       style="fill:#000000" />
    <path
       inkscape:connector-curvature="0"
       d="m 297.68671,150.3338 10.50567,7.74853 282.84271,282.84271 -10.50567,-7.74853 z"
       id="path3115"
       style="fill:#000000" />
    <path
       inkscape:connector-curvature="0"
       d="m 308.19238,158.08233 -10.50567,8.29521 282.84271,282.84271 10.50567,-8.29521 z"
       id="path3117"
       style="fill:#000000" />
    <path
       inkscape:connector-curvature="0"
       d="m 297.68671,166.37754 0,-16.04374 282.84271,282.84271 0,16.04374 z"
       id="path3119"
       style="fill:#000000" />
    <path
       inkscape:connector-curvature="0"
       d="M 94.727357,184.9883 C 53.259849,184.9883 19.5,218.74003 19.5,260.21563 l 282.84271,282.84271 c 0,-41.4756 33.75985,-75.22733 75.22736,-75.22733 z"
       id="path3121"
       style="fill:#000000" />
    <path
       inkscape:connector-curvature="0"
       d="m 19.5,260.21563 c 0,20.73858 8.437727,39.54521 22.05982,53.1673 l 282.84271,282.84271 c -13.62209,-13.62209 -22.05982,-32.42872 -22.05982,-53.1673 z"
       id="path3123"
       style="fill:#000000" />
    <path
       inkscape:connector-curvature="0"
       d="m 41.55982,313.38293 c 13.622426,13.62243 32.429472,22.06006 53.167537,22.06006 L 377.57007,618.2857 c -20.73807,0 -39.54511,-8.43763 -53.16754,-22.06006 z"
       id="path3125"
       style="fill:#000000" />
    <path
       inkscape:connector-curvature="0"
       d="m 94.727357,335.44299 c 41.477643,0 75.227343,-33.75173 75.227343,-75.22736 l 282.84271,282.84271 c 0,41.47563 -33.7497,75.22736 -75.22734,75.22736 z"
       id="path3127"
       style="fill:#000000" />
    <path
       inkscape:connector-curvature="0"
       d="m 169.9547,260.21563 c 0,-20.73476 -8.43876,-39.54241 -22.06231,-53.16597 L 430.7351,489.89237 c 13.62356,13.62356 22.06231,32.43122 22.06231,53.16597 z"
       id="path3129"
       style="fill:#000000" />
    <path
       inkscape:connector-curvature="0"
       d="M 147.89239,207.04966 C 134.27016,193.42744 115.46415,184.9883 94.727357,184.9883 L 377.57007,467.83101 c 20.73679,0 39.54281,8.43914 53.16503,22.06136 z"
       id="path3131"
       style="fill:#000000" />
    <path
       inkscape:connector-curvature="0"
       d="m 289.27264,184.9883 c -41.47561,0 -75.22734,33.75984 -75.22734,75.22733 l 282.84271,282.84271 c 0,-41.46749 33.75173,-75.22733 75.22734,-75.22733 z"
       id="path3133"
       style="fill:#000000" />
    <path
       inkscape:connector-curvature="0"
       d="m 214.0453,260.21563 c 0,20.73807 8.43763,39.54512 22.06006,53.16755 l 282.84271,282.84271 c -13.62242,-13.62243 -22.06006,-32.42948 -22.06006,-53.16755 z"
       id="path3135"
       style="fill:#000000" />
    <path
       inkscape:connector-curvature="0"
       d="m 236.10536,313.38318 c 13.62209,13.62209 32.42872,22.05981 53.16728,22.05981 L 572.11535,618.2857 c -20.73856,0 -39.54519,-8.43772 -53.16728,-22.05981 z"
       id="path3137"
       style="fill:#000000" />
    <path
       inkscape:connector-curvature="0"
       d="m 289.27264,335.44299 c 41.47563,0 75.22736,-33.7497 75.22736,-75.22736 l 282.84271,282.84271 c 0,41.47766 -33.75173,75.22736 -75.22736,75.22736 z"
       id="path3139"
       style="fill:#000000" />
    <path
       inkscape:connector-curvature="0"
       d="m 364.5,260.21563 c 0,-20.73678 -8.43913,-39.54279 -22.06135,-53.16501 l 282.84271,282.84271 c 13.62222,13.62223 22.06135,32.42823 22.06135,53.16501 z"
       id="path3141"
       style="fill:#000000" />
    <path
       inkscape:connector-curvature="0"
       d="M 342.43865,207.05062 C 328.81509,193.42706 310.00742,184.9883 289.27264,184.9883 l 282.84271,282.84271 c 20.73478,0 39.54245,8.43876 53.16601,22.06232 z"
       id="path3143"
       style="fill:#000000" />
    <path
       inkscape:connector-curvature="0"
       d="m 191.48898,196.25457 -18.39683,17.8977 282.84271,282.84271 18.39683,-17.8977 z"
       id="path3145"
       style="fill:#000000" />
    <path
       inkscape:connector-curvature="0"
       d="m 173.09215,214.15227 c 9.76868,16.7511 14.39822,36.55472 12.14572,55.99862 L 468.08058,552.9936 c 2.2525,-19.4439 -2.37704,-39.24752 -12.14572,-55.99862 z"
       id="path3147"
       style="fill:#000000" />
    <path
       inkscape:connector-curvature="0"
       d="m 185.23787,270.15089 c -1.99377,24.5187 -15.43902,46.69692 -34.55943,61.63175 l 282.84271,282.84271 c 19.12041,-14.93483 32.56566,-37.11305 34.55943,-61.63175 z"
       id="path3149"
       style="fill:#000000" />
    <path
       inkscape:connector-curvature="0"
       d="m 150.67844,331.78264 82.73819,0 282.84271,282.84271 -82.73819,0 z"
       id="path3151"
       style="fill:#000000" />
    <path
       inkscape:connector-curvature="0"
       d="m 233.41663,331.78264 c -2.91998,-2.31461 -5.70808,-4.79928 -8.34418,-7.43538 l 282.84272,282.84271 c 2.6361,2.6361 5.42419,5.12077 8.34417,7.43538 z"
       id="path3153"
       style="fill:#000000" />
    <path
       inkscape:connector-curvature="0"
       d="m 225.07245,324.34726 c -14.75203,-14.75204 -24.74411,-34.24639 -26.45293,-55.21842 l 282.84271,282.84271 c 1.70883,20.97203 11.7009,40.46638 26.45294,55.21842 z"
       id="path3155"
       style="fill:#000000" />
    <path
       inkscape:connector-curvature="0"
       d="m 198.61952,269.12884 c -2.5106,-19.23333 2.34743,-38.33228 12.14572,-54.59629 l 282.84271,282.84271 c -9.79829,16.26401 -14.65632,35.36296 -12.14572,54.59629 z"
       id="path3157"
       style="fill:#000000" />
    <path
       inkscape:connector-curvature="0"
       d="m 210.76524,214.53255 -19.27626,-18.27798 282.84271,282.84271 19.27626,18.27798 z"
       id="path3159"
       style="fill:#000000" />
    <path
       inkscape:connector-curvature="0"
       d="m 79.230278,220.92629 0,23.79227 282.842712,282.84271 0,-23.79227 z"
       id="path3161"
       style="fill:#000000" />
    <path
       inkscape:connector-curvature="0"
       d="m 79.230278,244.71856 c 24.613622,0 45.336692,3.62674 60.915402,19.20544 l 282.84271,282.84272 c -15.5787,-15.57871 -36.30177,-19.20545 -60.9154,-19.20545 z"
       id="path3163"
       style="fill:#000000" />
    <path
       inkscape:connector-curvature="0"
       d="m 140.14568,263.924 c 6.6749,6.67491 12.4054,15.54397 17.09287,27.26202 l 282.84271,282.84271 c -4.68747,-11.71805 -10.41796,-20.58711 -17.09287,-27.26201 z"
       id="path3165"
       style="fill:#000000" />
    <path
       inkscape:connector-curvature="0"
       d="M 157.23855,291.18602 C 133.79506,271.65299 110.48151,267.87309 79.230278,275.68895 L 362.07299,558.53166 c 31.25123,-7.81586 54.56478,-4.03596 78.00827,15.49707 z"
       id="path3167"
       style="fill:#000000" />
    <path
       inkscape:connector-curvature="0"
       d="m 79.230278,275.68895 0,23.79227 282.842712,282.84271 0,-23.79227 z"
       id="path3169"
       style="fill:#000000" />
    <path
       inkscape:connector-curvature="0"
       d="M 79.230278,299.48122 32.216155,260.21563 315.05887,543.05834 362.07299,582.32393 z"
       id="path3171"
       style="fill:#000000" />
    <path
       inkscape:connector-curvature="0"
       d="M 32.216155,260.21563 79.230278,220.92629 362.07299,503.769 315.05887,543.05834 z"
       id="path3173"
       style="fill:#000000" />
    <path
       inkscape:connector-curvature="0"
       d="M 304.76972,220.92629 351.78384,260.21563 634.62655,543.05834 587.61243,503.769 z"
       id="path3175"
       style="fill:#000000" />
    <path
       inkscape:connector-curvature="0"
       d="m 351.78384,260.21563 -47.01412,39.26559 282.84271,282.84271 47.01412,-39.26559 z"
       id="path3177"
       style="fill:#000000" />
    <path
       inkscape:connector-curvature="0"
       d="m 304.76972,299.48122 0,-23.79227 282.84271,282.84271 0,23.79227 z"
       id="path3179"
       style="fill:#000000" />
    <path
       inkscape:connector-curvature="0"
       d="m 304.76972,275.68895 c -31.25123,-7.81586 -54.54507,-4.03596 -77.9845,15.49707 l 282.84271,282.84271 c 23.43943,-19.53303 46.73327,-23.31293 77.9845,-15.49707 z"
       id="path3181"
       style="fill:#000000" />
    <path
       inkscape:connector-curvature="0"
       d="m 226.78522,291.18602 c 15.62765,-39.06707 42.82484,-46.46746 77.9845,-46.46746 l 282.84271,282.84271 c -35.15966,0 -62.35685,7.40039 -77.9845,46.46746 z"
       id="path3183"
       style="fill:#000000" />
    <path
       inkscape:connector-curvature="0"
       d="m 304.76972,244.71856 0,-23.79227 282.84271,282.84271 0,23.79227 z"
       id="path3185"
       style="fill:#000000" />
  </g>
  <path
     style="fill:#ffffff"
     d="m 84.597914,47.625 0,80.18972 -35.645197,26.72194 0,26.55448 c 12.87985,-7.59651 27.508116,-12.05335 42.726385,-12.05717 3.576424,-0.10558 7.155699,0.005 10.717478,0.33491 l 0,-103.921282 124.71034,0 0,53.443872 53.44388,0 0,50.4535 c 1.42406,-0.127 2.86951,-0.23752 4.30614,-0.28707 13.42403,-0.56434 26.89335,1.66244 39.25754,6.74627 3.41115,1.26909 6.70523,2.75395 9.88018,4.44966 l 0,-25.7411 -35.62126,-26.72192 0,-26.72194 -53.44388,-53.44387 -160.331606,0 z m -0.02392,102.43807 0,16.14799 -10.573944,-8.34911 10.573944,-7.79888 z m 213.799406,0 10.57393,7.79888 -10.57393,8.34911 0,-16.14799 z M 94.095332,184.94274 c -41.73694,0 -75.716142,33.97103 -75.716142,75.71611 0,41.74716 33.971035,75.71615 75.716142,75.71615 41.747138,0 75.716128,-33.97103 75.716128,-75.71615 0,-41.73692 -33.97103,-75.71611 -75.716128,-75.71611 z m 195.809328,0 c -41.74509,0 -75.71612,33.97919 -75.71612,75.71611 0,41.74512 33.96898,75.71615 75.71612,75.71615 41.74512,0 75.71615,-33.96899 75.71615,-75.71615 0,-41.74508 -33.9792,-75.71611 -75.71615,-75.71611 z m -98.419,11.33947 -18.51636,18.01399 c 9.83215,16.85994 14.49177,36.79223 12.22463,56.36247 -2.00672,24.67801 -15.53933,47.00033 -34.78398,62.0322 l 83.27578,0 c -19.38581,-15.36676 -32.99593,-38.18068 -35.0232,-63.06089 -2.52691,-19.3583 2.36268,-38.58134 12.22463,-54.95103 l -19.4015,-18.39674 z m -112.988098,24.83202 0,23.94686 c 35.388108,0 62.785938,7.44848 78.515128,46.76938 -23.59581,-19.65994 -47.06084,-23.4644 -78.515128,-15.59776 l 0,23.94686 -47.319595,-39.52072 47.319595,-39.54462 z m 227.004868,0 47.31959,39.54462 -47.31959,39.52072 0,-23.94686 c -31.45428,-7.86664 -54.89947,-4.06218 -78.4912,15.59776 15.72919,-39.3209 43.10309,-46.76938 78.4912,-46.76938 l 0,-23.94686 z"
     id="path10"
     inkscape:connector-curvature="0" />
</svg>
