<?xml version="1.0" encoding="UTF-8" standalone="no"?>
<svg
   xmlns:dc="http://purl.org/dc/elements/1.1/"
   xmlns:cc="http://creativecommons.org/ns#"
   xmlns:rdf="http://www.w3.org/1999/02/22-rdf-syntax-ns#"
   xmlns:svg="http://www.w3.org/2000/svg"
   xmlns="http://www.w3.org/2000/svg"
   xmlns:sodipodi="http://sodipodi.sourceforge.net/DTD/sodipodi-0.dtd"
   xmlns:inkscape="http://www.inkscape.org/namespaces/inkscape"
   viewBox="0 0 512 512"
   id="svg2"
   version="1.1"
   inkscape:version="0.48.5 r10040"
   width="100%"
   height="100%"
   sodipodi:docname="view-grid.svg">
  <sodipodi:namedview
     pagecolor="#ffffff"
     bordercolor="#666666"
     borderopacity="1"
     objecttolerance="10"
     gridtolerance="10"
     guidetolerance="10"
     inkscape:pageopacity="0"
     inkscape:pageshadow="2"
     inkscape:window-width="1306"
     inkscape:window-height="715"
     id="namedview266"
     showgrid="false"
     inkscape:zoom="0.4609375"
     inkscape:cx="256.22485"
     inkscape:cy="287.82117"
     inkscape:window-x="56"
     inkscape:window-y="28"
     inkscape:window-maximized="1"
     inkscape:current-layer="svg2" />
  <metadata
     id="metadata268">
    <rdf:RDF>
      <cc:Work
         rdf:about="">
        <dc:format>image/svg+xml</dc:format>
        <dc:type
           rdf:resource="http://purl.org/dc/dcmitype/StillImage" />
      </cc:Work>
    </rdf:RDF>
  </metadata>
  <defs
     id="defs4">
    <clipPath
       clipPathUnits="userSpaceOnUse"
       id="clipPath3435">
      <path
         id="path3437"
         d="M 26,1.5e-6 C 11.60265,1.5e-6 0,11.602649 0,26.000001 L 0,486 c 0,14.39735 11.60265,26 26,26 l 459.99999,0 C 500.39734,512 512,500.39735 512,486 L 512,26 C 512,11.602649 500.39734,1.5e-6 485.99999,1.5e-6 L 26,1.5e-6 z"
         style="fill:#666666;fill-opacity:1;stroke:none"
         inkscape:connector-curvature="0" />
    </clipPath>
  </defs>
  <path
     inkscape:connector-curvature="0"
     style="fill:#666666;fill-opacity:1;stroke:none"
     d="M 26,1.5e-6 C 11.60265,1.5e-6 0,11.602649 0,26.000001 L 0,486 c 0,14.39735 11.60265,26 26,26 l 459.99999,0 C 500.39734,512 512,500.39735 512,486 L 512,26 C 512,11.602649 500.39734,1.5e-6 485.99999,1.5e-6 L 26,1.5e-6 z"
     id="rect2986" />
  <g
     style="fill:#000000;fill-opacity:1;stroke:none;opacity:0.25"
     id="g3294"
     clip-path="url(#clipPath3435)">
    <path
       inkscape:connector-curvature="0"
       d="m 106.90625,54.28125 0,67.625 388.90873,388.90873 0,-67.625 z"
       id="path3296"
       style="fill:#000000" />
    <path
       inkscape:connector-curvature="0"
       d="m 106.90625,121.90625 -55.90625,0 388.90873,388.90873 55.90625,0 z"
       id="path3298"
       style="fill:#000000" />
    <path
       inkscape:connector-curvature="0"
       d="M 51,121.90625 51,171 l 388.90873,388.90873 0,-49.09375 z"
       id="path3300"
       style="fill:#000000" />
    <path
       inkscape:connector-curvature="0"
       d="m 51,171 55.90625,0 388.90873,388.90873 -55.90625,0 z"
       id="path3302"
       style="fill:#000000" />
    <path
       inkscape:connector-curvature="0"
       d="m 106.90625,171 0,170 388.90873,388.90873 0,-170 z"
       id="path3304"
       style="fill:#000000" />
    <path
       inkscape:connector-curvature="0"
       d="M 106.90625,341 51,341 l 388.90873,388.90873 55.90625,0 z"
       id="path3306"
       style="fill:#000000" />
    <path
       inkscape:connector-curvature="0"
       d="m 51,341 0,49.09375 388.90873,388.90873 0,-49.09375 z"
       id="path3308"
       style="fill:#000000" />
    <path
       inkscape:connector-curvature="0"
       d="m 51,390.09375 55.90625,0 388.90873,388.90873 -55.90625,0 z"
       id="path3310"
       style="fill:#000000" />
    <path
       inkscape:connector-curvature="0"
       d="m 106.90625,390.09375 0,67.625 388.90873,388.90873 0,-67.625 z"
       id="path3312"
       style="fill:#000000" />
    <path
       inkscape:connector-curvature="0"
       d="m 106.90625,457.71875 49.09375,0 388.90873,388.90873 -49.09375,0 z"
       id="path3314"
       style="fill:#000000" />
    <path
       inkscape:connector-curvature="0"
       d="m 156,457.71875 0,-67.625 388.90873,388.90873 0,67.625 z"
       id="path3316"
       style="fill:#000000" />
    <path
       inkscape:connector-curvature="0"
       d="m 156,390.09375 200,0 388.90873,388.90873 -200,0 z"
       id="path3318"
       style="fill:#000000" />
    <path
       inkscape:connector-curvature="0"
       d="m 356,390.09375 0,67.625 388.90873,388.90873 0,-67.625 z"
       id="path3320"
       style="fill:#000000" />
    <path
       inkscape:connector-curvature="0"
       d="m 356,457.71875 49.09375,0 388.90873,388.90873 -49.09375,0 z"
       id="path3322"
       style="fill:#000000" />
    <path
       inkscape:connector-curvature="0"
       d="m 405.09375,457.71875 0,-67.625 388.90873,388.90873 0,67.625 z"
       id="path3324"
       style="fill:#000000" />
    <path
       inkscape:connector-curvature="0"
       d="m 405.09375,390.09375 55.90625,0 388.90873,388.90873 -55.90625,0 z"
       id="path3326"
       style="fill:#000000" />
    <path
       inkscape:connector-curvature="0"
       d="M 461,390.09375 461,341 l 388.90873,388.90873 0,49.09375 z"
       id="path3328"
       style="fill:#000000" />
    <path
       inkscape:connector-curvature="0"
       d="m 461,341 -55.90625,0 388.90873,388.90873 55.90625,0 z"
       id="path3330"
       style="fill:#000000" />
    <path
       inkscape:connector-curvature="0"
       d="m 405.09375,341 0,-170 388.90873,388.90873 0,170 z"
       id="path3332"
       style="fill:#000000" />
    <path
       inkscape:connector-curvature="0"
       d="M 405.09375,171 461,171 l 388.90873,388.90873 -55.90625,0 z"
       id="path3334"
       style="fill:#000000" />
    <path
       inkscape:connector-curvature="0"
       d="m 461,171 0,-49.09375 388.90873,388.90873 0,49.09375 z"
       id="path3336"
       style="fill:#000000" />
    <path
       inkscape:connector-curvature="0"
       d="m 461,121.90625 -55.90625,0 388.90873,388.90873 55.90625,0 z"
       id="path3338"
       style="fill:#000000" />
    <path
       inkscape:connector-curvature="0"
       d="m 405.09375,121.90625 0,-67.625 388.90873,388.90873 0,67.625 z"
       id="path3340"
       style="fill:#000000" />
    <path
       inkscape:connector-curvature="0"
       d="m 405.09375,54.28125 -49.09375,0 388.90873,388.90873 49.09375,0 z"
       id="path3342"
       style="fill:#000000" />
    <path
       inkscape:connector-curvature="0"
       d="m 356,54.28125 0,67.625 388.90873,388.90873 0,-67.625 z"
       id="path3344"
       style="fill:#000000" />
    <path
       inkscape:connector-curvature="0"
       d="m 356,121.90625 -200,0 388.90873,388.90873 200,0 z"
       id="path3346"
       style="fill:#000000" />
    <path
       inkscape:connector-curvature="0"
       d="m 156,121.90625 0,-67.625 388.90873,388.90873 0,67.625 z"
       id="path3348"
       style="fill:#000000" />
    <path
       inkscape:connector-curvature="0"
       d="m 156,54.28125 -49.09375,0 388.90873,388.90873 49.09375,0 z"
       id="path3350"
       style="fill:#000000" />
    <path
       inkscape:connector-curvature="0"
       d="m 156,171 200,0 388.90873,388.90873 -200,0 z"
       id="path3352"
       style="fill:#000000" />
    <path
       inkscape:connector-curvature="0"
       d="m 356,171 0,170 388.90873,388.90873 0,-170 z"
       id="path3354"
       style="fill:#000000" />
    <path
       inkscape:connector-curvature="0"
       d="m 356,341 -200,0 388.90873,388.90873 200,0 z"
       id="path3356"
       style="fill:#000000" />
    <path
       inkscape:connector-curvature="0"
       d="m 156,341 0,-170 388.90873,388.90873 0,170 z"
       id="path3358"
       style="fill:#000000" />
  </g>
  <path
     inkscape:connector-curvature="0"
     style="fill:#ffffff;fill-opacity:1;stroke:none"
     d="m 106.90625,54.28125 0,67.625 -55.90625,0 0,49.09375 55.90625,0 0,170 L 51,341 l 0,49.09375 55.90625,0 0,67.625 49.09375,0 0,-67.625 200,0 0,67.625 49.09375,0 0,-67.625 55.90625,0 0,-49.09375 -55.90625,0 0,-170 55.90625,0 0,-49.09375 -55.90625,0 0,-67.625 -49.09375,0 0,67.625 -200,0 0,-67.625 -49.09375,0 z M 156,171 l 200,0 0,170 -200,0 0,-170 z"
     id="path3283" />
</svg>
