<?xml version="1.0" encoding="UTF-8" standalone="no"?>
<svg
   xmlns:dc="http://purl.org/dc/elements/1.1/"
   xmlns:cc="http://creativecommons.org/ns#"
   xmlns:rdf="http://www.w3.org/1999/02/22-rdf-syntax-ns#"
   xmlns:svg="http://www.w3.org/2000/svg"
   xmlns="http://www.w3.org/2000/svg"
   xmlns:sodipodi="http://sodipodi.sourceforge.net/DTD/sodipodi-0.dtd"
   xmlns:inkscape="http://www.inkscape.org/namespaces/inkscape"
   viewBox="0 0 512 512"
   id="svg2"
   version="1.1"
   inkscape:version="0.48.5 r10040"
   width="100%"
   height="100%"
   sodipodi:docname="view-form.svg">
  <sodipodi:namedview
     pagecolor="#ffffff"
     bordercolor="#666666"
     borderopacity="1"
     objecttolerance="10"
     gridtolerance="10"
     guidetolerance="10"
     inkscape:pageopacity="0"
     inkscape:pageshadow="2"
     inkscape:window-width="1306"
     inkscape:window-height="715"
     id="namedview266"
     showgrid="false"
     inkscape:zoom="0.4609375"
     inkscape:cx="239.72881"
     inkscape:cy="210.44068"
     inkscape:window-x="56"
     inkscape:window-y="28"
     inkscape:window-maximized="1"
     inkscape:current-layer="svg2" />
  <metadata
     id="metadata268">
    <rdf:RDF>
      <cc:Work
         rdf:about="">
        <dc:format>image/svg+xml</dc:format>
        <dc:type
           rdf:resource="http://purl.org/dc/dcmitype/StillImage" />
      </cc:Work>
    </rdf:RDF>
  </metadata>
  <defs
     id="defs4">
    <clipPath
       clipPathUnits="userSpaceOnUse"
       id="clipPath3808">
      <path
         id="path3810"
         d="M 25.999998,-5.0000001e-7 C 11.602648,-5.0000001e-7 -2e-6,11.602649 -2e-6,25.999999 L -2e-6,486 c 0,14.39735 11.60265,26 26,26 L 486,512 c 14.39735,0 26,-11.60265 26,-26 L 512,26 C 512,11.602649 500.39735,-5e-7 486,-5e-7 l -460.000002,0 z"
         style="fill:#666666;fill-opacity:1;stroke:none"
         inkscape:connector-curvature="0" />
    </clipPath>
  </defs>
  <path
     inkscape:connector-curvature="0"
     style="fill:#666666;fill-opacity:1;stroke:none"
     d="M 25.999998,-5.0000001e-7 C 11.602648,-5.0000001e-7 -2e-6,11.602649 -2e-6,25.999999 L -2e-6,486 c 0,14.39735 11.60265,26 26,26 L 486,512 c 14.39735,0 26,-11.60265 26,-26 L 512,26 C 512,11.602649 500.39735,-5e-7 486,-5e-7 l -460.000002,0 z"
     id="rect2986" />
  <g
     style="fill:#000000;opacity:0.25"
     id="g3620"
     clip-path="url(#clipPath3808)">
    <path
       inkscape:connector-curvature="0"
       d="m 189.0625,56 0,134.78125 388.90873,388.90873 0,-134.78125 z"
       id="path3622"
       style="fill:#000000" />
    <path
       inkscape:connector-curvature="0"
       d="m 189.0625,190.78125 269.9375,0 388.90873,388.90873 -269.9375,0 z"
       id="path3624"
       style="fill:#000000" />
    <path
       inkscape:connector-curvature="0"
       d="M 459,190.78125 459,56 l 388.90873,388.90873 0,134.78125 z"
       id="path3626"
       style="fill:#000000" />
    <path
       inkscape:connector-curvature="0"
       d="m 459,56 -269.9375,0 388.90873,388.90873 269.9375,0 z"
       id="path3628"
       style="fill:#000000" />
    <path
       inkscape:connector-curvature="0"
       d="m 53,77.625 0,48.46875 388.90873,388.90873 0,-48.46875 z"
       id="path3630"
       style="fill:#000000" />
    <path
       inkscape:connector-curvature="0"
       d="m 53,126.09375 107.1875,0 388.90873,388.90873 -107.1875,0 z"
       id="path3632"
       style="fill:#000000" />
    <path
       inkscape:connector-curvature="0"
       d="m 160.1875,126.09375 0,-48.46875 388.90873,388.90873 0,48.46875 z"
       id="path3634"
       style="fill:#000000" />
    <path
       inkscape:connector-curvature="0"
       d="m 160.1875,77.625 -107.1875,0 388.90873,388.90873 107.1875,0 z"
       id="path3636"
       style="fill:#000000" />
    <path
       inkscape:connector-curvature="0"
       d="m 189.0625,256.90625 0,199.09375 388.90873,388.90873 0,-199.09375 z"
       id="path3638"
       style="fill:#000000" />
    <path
       inkscape:connector-curvature="0"
       d="M 189.0625,456 459,456 l 388.90873,388.90873 -269.9375,0 z"
       id="path3640"
       style="fill:#000000" />
    <path
       inkscape:connector-curvature="0"
       d="m 459,456 0,-199.09375 388.90873,388.90873 0,199.09375 z"
       id="path3642"
       style="fill:#000000" />
    <path
       inkscape:connector-curvature="0"
       d="m 459,256.90625 -269.9375,0 388.90873,388.90873 269.9375,0 z"
       id="path3644"
       style="fill:#000000" />
    <path
       inkscape:connector-curvature="0"
       d="m 53,262.15625 0,48.5 388.90873,388.90873 0,-48.5 z"
       id="path3646"
       style="fill:#000000" />
    <path
       inkscape:connector-curvature="0"
       d="m 53,310.65625 107.1875,0 388.90873,388.90873 -107.1875,0 z"
       id="path3648"
       style="fill:#000000" />
    <path
       inkscape:connector-curvature="0"
       d="m 160.1875,310.65625 0,-48.5 388.90873,388.90873 0,48.5 z"
       id="path3650"
       style="fill:#000000" />
    <path
       inkscape:connector-curvature="0"
       d="m 160.1875,262.15625 -107.1875,0 388.90873,388.90873 107.1875,0 z"
       id="path3652"
       style="fill:#000000" />
  </g>
  <path
     style="fill:#ffffff"
     d="m 189.0625,56 0,134.78125 269.9375,0 L 459,56 189.0625,56 z M 53,77.625 l 0,48.46875 107.1875,0 0,-48.46875 -107.1875,0 z m 136.0625,179.28125 0,199.09375 269.9375,0 0,-199.09375 -269.9375,0 z m -136.0625,5.25 0,48.5 107.1875,0 0,-48.5 -107.1875,0 z"
     id="path3499"
     inkscape:connector-curvature="0" />
</svg>
