<?xml version="1.0" encoding="UTF-8" standalone="no"?>
<!-- Created with Inkscape (http://www.inkscape.org/) -->

<svg
   xmlns:dc="http://purl.org/dc/elements/1.1/"
   xmlns:cc="http://creativecommons.org/ns#"
   xmlns:rdf="http://www.w3.org/1999/02/22-rdf-syntax-ns#"
   xmlns:svg="http://www.w3.org/2000/svg"
   xmlns="http://www.w3.org/2000/svg"
   xmlns:inkscape="http://www.inkscape.org/namespaces/inkscape"
   version="1.1"
   width="100%"
   height="100%"
   viewBox="0 0 512 512"
   id="svg2">
  <metadata
     id="metadata60">
    <rdf:RDF>
      <cc:Work
         rdf:about="">
        <dc:format>image/svg+xml</dc:format>
        <dc:type
           rdf:resource="http://purl.org/dc/dcmitype/StillImage" />
        <dc:title />
      </cc:Work>
    </rdf:RDF>
  </metadata>
  <defs
     id="defs58">
    <clipPath
       id="clipPath3745">
      <path
         d="m 471.9456,253.05189 c 0,120.89699 -98.00565,218.90724 -218.90724,218.90724 -120.89698,0 -218.90723,-98.00566 -218.90723,-218.90724 0,-120.89698 98.00565,-218.907232 218.90723,-218.907232 120.89699,0 218.90724,98.005652 218.90724,218.907232"
         inkscape:connector-curvature="0"
         id="path3747"
         style="fill:#ef6a47;fill-opacity:1;fill-rule:evenodd" />
    </clipPath>
  </defs>
  <text
     x="137.67999"
     y="194.35001"
     id="text8"
     style="font-size:129.22999573px;line-height:125%;letter-spacing:0;word-spacing:0;font-family:Gentium Book Basic">
    <tspan
       x="137.67999"
       y="194.35001"
       id="tspan10" />
  </text>
  <text
     x="231.39"
     y="430.76001"
     transform="scale(4.0128,0.2492)"
     id="text12"
     style="font-size:46.95399857px;text-anchor:middle;font-family:Arial" />
  <text
     x="718.95001"
     y="114.35"
     id="text14"
     style="font-size:129.22999573px;line-height:125%;letter-spacing:0;word-spacing:0;font-family:Gentium Book Basic">
    <tspan
       x="718.95001"
       y="114.35"
       id="tspan16" />
  </text>
  <text
     x="376.23999"
     y="109.72"
     transform="scale(4.0128,0.2492)"
     id="text18"
     style="font-size:46.95399857px;text-anchor:middle;font-family:Arial" />
  <text
     x="-352.63"
     y="-66.905998"
     id="text20"
     style="font-size:129.22999573px;line-height:125%;letter-spacing:0;word-spacing:0;font-family:Gentium Book Basic">
    <tspan
       x="-352.63"
       y="-66.905998"
       id="tspan22" />
  </text>
  <text
     x="109.2"
     y="-617.63"
     transform="scale(4.0128,0.2492)"
     id="text24"
     style="font-size:46.95399857px;text-anchor:middle;font-family:Arial" />
  <text
     x="745.41998"
     y="-283.38"
     id="text26"
     style="font-size:129.22999573px;line-height:125%;letter-spacing:0;word-spacing:0;font-family:Gentium Book Basic">
    <tspan
       x="745.41998"
       y="-283.38"
       id="tspan28" />
  </text>
  <text
     x="382.84"
     y="-1486.29"
     transform="scale(4.0128,0.2492)"
     id="text30"
     style="font-size:46.95399857px;text-anchor:middle;font-family:Arial" />
  <text
     x="1326.6899"
     y="-363.38"
     id="text32"
     style="font-size:129.22999573px;line-height:125%;letter-spacing:0;word-spacing:0;font-family:Gentium Book Basic">
    <tspan
       x="1326.6899"
       y="-363.38"
       id="tspan34" />
  </text>
  <text
     x="527.69"
     y="-1807.3199"
     transform="scale(4.0128,0.2492)"
     id="text36"
     style="font-size:46.95399857px;text-anchor:middle;font-family:Arial" />
  <text
     x="937.57001"
     y="-835.78003"
     id="text38"
     style="font-size:129.22999573px;line-height:125%;letter-spacing:0;word-spacing:0;font-family:Gentium Book Basic">
    <tspan
       x="937.57001"
       y="-835.78003"
       id="tspan40" />
  </text>
  <text
     x="430.72"
     y="-3702.96"
     transform="scale(4.0128,0.2492)"
     id="text42"
     style="font-size:46.95399857px;text-anchor:middle;font-family:Arial" />
  <text
     x="1518.83"
     y="-915.78998"
     id="text44"
     style="font-size:129.22999573px;line-height:125%;letter-spacing:0;word-spacing:0;font-family:Gentium Book Basic">
    <tspan
       x="1518.83"
       y="-915.78998"
       id="tspan46" />
  </text>
  <text
     x="575.57001"
     y="-4024"
     transform="scale(4.0128,0.2492)"
     id="text48"
     style="font-size:46.95399857px;text-anchor:middle;font-family:Arial" />
  <text
     x="-313.97"
     y="498.92999"
     id="text50"
     style="font-size:208.33000183px;line-height:125%;letter-spacing:0;word-spacing:0;font-family:Gentium Book Basic">
    <tspan
       x="-313.97"
       y="498.92999"
       id="tspan52" />
  </text>
  <text
     x="154.74306"
     y="-420.99731"
     id="text8-1"
     style="font-size:129.22999573px;line-height:125%;letter-spacing:0;word-spacing:0;font-family:Gentium Book Basic">
    <tspan
       x="154.74306"
       y="-420.99731"
       id="tspan10-9" />
  </text>
  <text
     x="235.64096"
     y="-2038.5205"
     transform="scale(4.0128205,0.24920128)"
     id="text12-3"
     style="font-size:46.95375824px;text-anchor:middle;font-family:Arial" />
  <text
     x="736.01306"
     y="-500.99731"
     id="text14-2"
     style="font-size:129.22999573px;line-height:125%;letter-spacing:0;word-spacing:0;font-family:Gentium Book Basic">
    <tspan
       x="736.01306"
       y="-500.99731"
       id="tspan16-7" />
  </text>
  <text
     x="380.4902"
     y="-2359.5588"
     transform="scale(4.0128205,0.24920128)"
     id="text18-0"
     style="font-size:46.95375824px;text-anchor:middle;font-family:Arial" />
  <text
     x="-335.56693"
     y="-682.2533"
     id="text20-5"
     style="font-size:129.22999573px;line-height:125%;letter-spacing:0;word-spacing:0;font-family:Gentium Book Basic">
    <tspan
       x="-335.56693"
       y="-682.2533"
       id="tspan22-9" />
  </text>
  <text
     x="113.45158"
     y="-3086.9053"
     transform="scale(4.0128205,0.24920128)"
     id="text24-2"
     style="font-size:46.95375824px;text-anchor:middle;font-family:Arial" />
  <text
     x="762.48303"
     y="-898.72729"
     id="text26-2"
     style="font-size:129.22999573px;line-height:125%;letter-spacing:0;word-spacing:0;font-family:Gentium Book Basic">
    <tspan
       x="762.48303"
       y="-898.72729"
       id="tspan28-5" />
  </text>
  <text
     x="387.09018"
     y="-3955.5608"
     transform="scale(4.0128205,0.24920128)"
     id="text30-6"
     style="font-size:46.95375824px;text-anchor:middle;font-family:Arial" />
  <text
     x="1343.7531"
     y="-978.72729"
     id="text32-2"
     style="font-size:129.22999573px;line-height:125%;letter-spacing:0;word-spacing:0;font-family:Gentium Book Basic">
    <tspan
       x="1343.7531"
       y="-978.72729"
       id="tspan34-2" />
  </text>
  <text
     x="531.93945"
     y="-4276.5889"
     transform="scale(4.0128205,0.24920128)"
     id="text36-7"
     style="font-size:46.95375824px;text-anchor:middle;font-family:Arial" />
  <text
     x="954.63306"
     y="-1451.1273"
     id="text38-1"
     style="font-size:129.22999573px;line-height:125%;letter-spacing:0;word-spacing:0;font-family:Gentium Book Basic">
    <tspan
       x="954.63306"
       y="-1451.1273"
       id="tspan40-3" />
  </text>
  <text
     x="434.96994"
     y="-6172.2192"
     transform="scale(4.0128205,0.24920128)"
     id="text42-2"
     style="font-size:46.95375824px;text-anchor:middle;font-family:Arial" />
  <text
     x="1535.8931"
     y="-1531.1373"
     id="text44-1"
     style="font-size:129.22999573px;line-height:125%;letter-spacing:0;word-spacing:0;font-family:Gentium Book Basic">
    <tspan
       x="1535.8931"
       y="-1531.1373"
       id="tspan46-6" />
  </text>
  <text
     x="579.81921"
     y="-6493.2578"
     transform="scale(4.0128205,0.24920128)"
     id="text48-7"
     style="font-size:46.95375824px;text-anchor:middle;font-family:Arial" />
  <text
     x="-296.90692"
     y="-116.41732"
     id="text50-9"
     style="font-size:208.33000183px;line-height:125%;letter-spacing:0;word-spacing:0;font-family:Gentium Book Basic">
    <tspan
       x="-296.90692"
       y="-116.41732"
       id="tspan52-3" />
  </text>
  <text
     x="-58.176929"
     y="-624.80133"
     id="text60"
     style="font-size:129.22999573px;line-height:125%;letter-spacing:0;word-spacing:0;font-family:Gentium Book Basic">
    <tspan
       x="-58.176929"
       y="-624.80133"
       id="tspan62" />
  </text>
  <text
     x="182.58122"
     y="-2856.3564"
     transform="scale(4.0128205,0.24920128)"
     id="text64"
     style="font-size:46.95375824px;text-anchor:middle;font-family:Arial" />
  <text
     x="523.09308"
     y="-704.7973"
     id="text66"
     style="font-size:129.22999573px;line-height:125%;letter-spacing:0;word-spacing:0;font-family:Gentium Book Basic">
    <tspan
       x="523.09308"
       y="-704.7973"
       id="tspan68" />
  </text>
  <text
     x="327.43048"
     y="-3177.3948"
     transform="scale(4.0128205,0.24920128)"
     id="text70"
     style="font-size:46.95375824px;text-anchor:middle;font-family:Arial" />
  <text
     x="-548.48694"
     y="-886.05731"
     id="text72"
     style="font-size:129.22999573px;line-height:125%;letter-spacing:0;word-spacing:0;font-family:Gentium Book Basic">
    <tspan
       x="-548.48694"
       y="-886.05731"
       id="tspan74" />
  </text>
  <text
     x="60.39185"
     y="-3904.741"
     transform="scale(4.0128205,0.24920128)"
     id="text76"
     style="font-size:46.95375824px;text-anchor:middle;font-family:Arial" />
  <text
     x="549.56305"
     y="-1102.5273"
     id="text78"
     style="font-size:129.22999573px;line-height:125%;letter-spacing:0;word-spacing:0;font-family:Gentium Book Basic">
    <tspan
       x="549.56305"
       y="-1102.5273"
       id="tspan80" />
  </text>
  <text
     x="334.03046"
     y="-4773.3965"
     transform="scale(4.0128205,0.24920128)"
     id="text82"
     style="font-size:46.95375824px;text-anchor:middle;font-family:Arial" />
  <text
     x="1130.8331"
     y="-1182.5273"
     id="text84"
     style="font-size:129.22999573px;line-height:125%;letter-spacing:0;word-spacing:0;font-family:Gentium Book Basic">
    <tspan
       x="1130.8331"
       y="-1182.5273"
       id="tspan86" />
  </text>
  <text
     x="478.8797"
     y="-5094.4248"
     transform="scale(4.0128205,0.24920128)"
     id="text88"
     style="font-size:46.95375824px;text-anchor:middle;font-family:Arial" />
  <text
     x="741.71307"
     y="-1654.9272"
     id="text90"
     style="font-size:129.22999573px;line-height:125%;letter-spacing:0;word-spacing:0;font-family:Gentium Book Basic">
    <tspan
       x="741.71307"
       y="-1654.9272"
       id="tspan92" />
  </text>
  <text
     x="381.91022"
     y="-6990.0552"
     transform="scale(4.0128205,0.24920128)"
     id="text94"
     style="font-size:46.95375824px;text-anchor:middle;font-family:Arial" />
  <text
     x="1322.9731"
     y="-1734.9373"
     id="text96"
     style="font-size:129.22999573px;line-height:125%;letter-spacing:0;word-spacing:0;font-family:Gentium Book Basic">
    <tspan
       x="1322.9731"
       y="-1734.9373"
       id="tspan98" />
  </text>
  <text
     x="526.75946"
     y="-7311.0933"
     transform="scale(4.0128205,0.24920128)"
     id="text100"
     style="font-size:46.95375824px;text-anchor:middle;font-family:Arial" />
  <text
     x="-509.82693"
     y="-320.21732"
     id="text102"
     style="font-size:208.33000183px;line-height:125%;letter-spacing:0;word-spacing:0;font-family:Gentium Book Basic">
    <tspan
       x="-509.82693"
       y="-320.21732"
       id="tspan104" />
  </text>
  <path
     d="m 471.9456,253.05189 c 0,120.89699 -98.00565,218.90724 -218.90724,218.90724 -120.89698,0 -218.90723,-98.00566 -218.90723,-218.90724 0,-120.89698 98.00565,-218.907232 218.90723,-218.907232 120.89699,0 218.90724,98.005652 218.90724,218.907232"
     inkscape:connector-curvature="0"
     id="path3090"
     style="fill:#ef6a47;fill-opacity:1;fill-rule:evenodd" />
  <path
     d="M 256,1 C 115.17,1 1,115.17 1,256 1,396.83 115.17,511 256,511 396.83,511 511,396.83 511,256 511,115.17 396.83,1 256,1 m 8.827,44.931 c 120.9,0 218.9,98 218.9,218.9 0,120.9 -98,218.9 -218.9,218.9 -120.9,0 -218.93,-98 -218.93,-218.9 0,-120.9 98.03,-218.9 218.93,-218.9"
     inkscape:connector-curvature="0"
     id="path3092"
     style="fill-opacity:0.06700003;fill-rule:evenodd" />
  <path
     d="M 256,4.43 C 117.06,4.43 4.43,117.06 4.43,256 4.43,394.94 117.06,507.57 256,507.57 394.94,507.57 507.57,394.94 507.57,256 507.57,117.06 394.94,4.43 256,4.43 m 5.885,38.556 c 120.9,0 218.9,98 218.9,218.9 0,120.9 -98,218.9 -218.9,218.9 -120.9,0 -218.93,-98 -218.93,-218.9 0,-120.9 98.03,-218.9 218.93,-218.9"
     inkscape:connector-curvature="0"
     id="path3096"
     style="fill-opacity:0.12900002;fill-rule:evenodd" />
  <path
     d="M 256,8.36 C 119.23,8.36 8.36,119.23 8.36,256 8.36,392.77 119.23,503.64 256,503.64 392.77,503.64 503.64,392.77 503.64,256 503.64,119.23 392.77,8.36 256,8.36 m 2.942,31.691 c 120.9,0 218.9,98 218.9,218.9 0,120.9 -98,218.9 -218.9,218.9 -120.9,0 -218.93,-98 -218.93,-218.9 0,-120.9 98.03,-218.9 218.93,-218.9"
     inkscape:connector-curvature="0"
     id="path3098"
     style="fill-opacity:0.12900002;fill-rule:evenodd" />
  <path
     d="M 253.04,7.86 C 117.62,7.86 7.85,117.64 7.85,253.05 c 0,135.42 109.78,245.19 245.19,245.19 135.42,0 245.19,-109.78 245.19,-245.19 C 498.23,117.63 388.45,7.86 253.04,7.86 z m 0,26.297 c 120.9,0 218.9,98 218.9,218.9 0,120.9 -98,218.9 -218.9,218.9 -120.9,0 -218.93,-98 -218.93,-218.9 0,-120.9 98.03,-218.9 218.93,-218.9 z"
     inkscape:connector-curvature="0"
     id="path3100"
     style="fill:#ffffff;fill-rule:evenodd;stroke:#000000;stroke-width:4.90399981;stroke-opacity:0.31000001" />
  <text
     x="729.64001"
     y="231.35997"
     id="text3102"
     style="font-size:129.22999573px;line-height:125%;letter-spacing:0;word-spacing:0;font-family:Gentium Book Basic">
    <tspan
       x="729.64001"
       y="231.35997"
       id="tspan3104" />
  </text>
  <text
     x="378.90805"
     y="579.25812"
     transform="scale(4.0128205,0.24920128)"
     id="text3106"
     style="font-size:46.95375824px;text-anchor:middle;font-family:Arial" />
  <text
     x="1310.91"
     y="151.35997"
     id="text3108"
     style="font-size:129.22999573px;line-height:125%;letter-spacing:0;word-spacing:0;font-family:Gentium Book Basic">
    <tspan
       x="1310.91"
       y="151.35997"
       id="tspan3110" />
  </text>
  <text
     x="523.75732"
     y="258.21997"
     transform="scale(4.0128205,0.24920128)"
     id="text3112"
     style="font-size:46.95375824px;text-anchor:middle;font-family:Arial" />
  <text
     x="239.33"
     y="-29.900009"
     id="text3114"
     style="font-size:129.22999573px;line-height:125%;letter-spacing:0;word-spacing:0;font-family:Gentium Book Basic">
    <tspan
       x="239.33"
       y="-29.900009"
       id="tspan3116" />
  </text>
  <text
     x="256.71869"
     y="-469.1264"
     transform="scale(4.0128205,0.24920128)"
     id="text3118"
     style="font-size:46.95375824px;text-anchor:middle;font-family:Arial" />
  <text
     x="1337.38"
     y="-246.37001"
     id="text3120"
     style="font-size:129.22999573px;line-height:125%;letter-spacing:0;word-spacing:0;font-family:Gentium Book Basic">
    <tspan
       x="1337.38"
       y="-246.37001"
       id="tspan3122" />
  </text>
  <text
     x="530.3573"
     y="-1337.802"
     transform="scale(4.0128205,0.24920128)"
     id="text3124"
     style="font-size:46.95375824px;text-anchor:middle;font-family:Arial" />
  <text
     x="1918.65"
     y="-326.37"
     id="text3126"
     style="font-size:129.22999573px;line-height:125%;letter-spacing:0;word-spacing:0;font-family:Gentium Book Basic">
    <tspan
       x="1918.65"
       y="-326.37"
       id="tspan3128" />
  </text>
  <text
     x="675.20654"
     y="-1658.8303"
     transform="scale(4.0128205,0.24920128)"
     id="text3130"
     style="font-size:46.95375824px;text-anchor:middle;font-family:Arial" />
  <text
     x="1529.53"
     y="-798.77002"
     id="text3132"
     style="font-size:129.22999573px;line-height:125%;letter-spacing:0;word-spacing:0;font-family:Gentium Book Basic">
    <tspan
       x="1529.53"
       y="-798.77002"
       id="tspan3134" />
  </text>
  <text
     x="578.237"
     y="-3554.4807"
     transform="scale(4.0128205,0.24920128)"
     id="text3136"
     style="font-size:46.95375824px;text-anchor:middle;font-family:Arial" />
  <text
     x="2110.79"
     y="-878.78003"
     id="text3138"
     style="font-size:129.22999573px;line-height:125%;letter-spacing:0;word-spacing:0;font-family:Gentium Book Basic">
    <tspan
       x="2110.79"
       y="-878.78003"
       id="tspan3140" />
  </text>
  <text
     x="723.0863"
     y="-3875.519"
     transform="scale(4.0128205,0.24920128)"
     id="text3142"
     style="font-size:46.95375824px;text-anchor:middle;font-family:Arial" />
  <text
     x="277.98999"
     y="535.94006"
     id="text3144"
     style="font-size:208.33000183px;line-height:125%;letter-spacing:0;word-spacing:0;font-family:Gentium Book Basic">
    <tspan
       x="277.98999"
       y="535.94006"
       id="tspan3146" />
  </text>
  <text
     x="886.63263"
     y="154.81017"
     id="text8-5"
     style="font-size:129.22999573px;line-height:125%;letter-spacing:0;word-spacing:0;font-family:Gentium Book Basic">
    <tspan
       x="886.63263"
       y="154.81017"
       id="tspan10-2" />
  </text>
  <text
     x="418.02878"
     y="272.09149"
     transform="scale(4.0128205,0.24920128)"
     id="text12-7"
     style="font-size:46.95375824px;text-anchor:middle;font-family:Arial" />
  <text
     x="1467.9026"
     y="74.81015"
     id="text14-25"
     style="font-size:129.22999573px;line-height:125%;letter-spacing:0;word-spacing:0;font-family:Gentium Book Basic">
    <tspan
       x="1467.9026"
       y="74.81015"
       id="tspan16-6" />
  </text>
  <text
     x="562.87799"
     y="-48.946865"
     transform="scale(4.0128205,0.24920128)"
     id="text18-6"
     style="font-size:46.95375824px;text-anchor:middle;font-family:Arial" />
  <text
     x="396.3226"
     y="-106.44585"
     id="text20-2"
     style="font-size:129.22999573px;line-height:125%;letter-spacing:0;word-spacing:0;font-family:Gentium Book Basic">
    <tspan
       x="396.3226"
       y="-106.44585"
       id="tspan22-4" />
  </text>
  <text
     x="295.83939"
     y="-776.29315"
     transform="scale(4.0128205,0.24920128)"
     id="text24-4"
     style="font-size:46.95375824px;text-anchor:middle;font-family:Arial" />
  <text
     x="1494.3726"
     y="-322.91986"
     id="text26-0"
     style="font-size:129.22999573px;line-height:125%;letter-spacing:0;word-spacing:0;font-family:Gentium Book Basic">
    <tspan
       x="1494.3726"
       y="-322.91986"
       id="tspan28-4" />
  </text>
  <text
     x="569.47797"
     y="-1644.9487"
     transform="scale(4.0128205,0.24920128)"
     id="text30-5"
     style="font-size:46.95375824px;text-anchor:middle;font-family:Arial" />
  <text
     x="2075.6426"
     y="-402.91986"
     id="text32-8"
     style="font-size:129.22999573px;line-height:125%;letter-spacing:0;word-spacing:0;font-family:Gentium Book Basic">
    <tspan
       x="2075.6426"
       y="-402.91986"
       id="tspan34-0" />
  </text>
  <text
     x="714.32727"
     y="-1965.9771"
     transform="scale(4.0128205,0.24920128)"
     id="text36-6"
     style="font-size:46.95375824px;text-anchor:middle;font-family:Arial" />
  <text
     x="1686.5226"
     y="-875.31989"
     id="text38-4"
     style="font-size:129.22999573px;line-height:125%;letter-spacing:0;word-spacing:0;font-family:Gentium Book Basic">
    <tspan
       x="1686.5226"
       y="-875.31989"
       id="tspan40-6" />
  </text>
  <text
     x="617.35773"
     y="-3861.6074"
     transform="scale(4.0128205,0.24920128)"
     id="text42-5"
     style="font-size:46.95375824px;text-anchor:middle;font-family:Arial" />
  <text
     x="2267.7825"
     y="-955.32983"
     id="text44-2"
     style="font-size:129.22999573px;line-height:125%;letter-spacing:0;word-spacing:0;font-family:Gentium Book Basic">
    <tspan
       x="2267.7825"
       y="-955.32983"
       id="tspan46-4" />
  </text>
  <text
     x="762.20703"
     y="-4182.6455"
     transform="scale(4.0128205,0.24920128)"
     id="text48-5"
     style="font-size:46.95375824px;text-anchor:middle;font-family:Arial" />
  <text
     x="434.9826"
     y="459.39014"
     id="text50-1"
     style="font-size:208.33000183px;line-height:125%;letter-spacing:0;word-spacing:0;font-family:Gentium Book Basic">
    <tspan
       x="434.9826"
       y="459.39014"
       id="tspan52-7" />
  </text>
  <g
     clip-path="url(#clipPath3745)"
     id="g3469"
     style="opacity:0.25;color:#000000;fill:#000000">
    <path
       d="m 231.7377,117.78308 c -1.76934,0.006 -3.69619,0.34324 -5.76229,1.07314 L 579.5288,472.40961 c 2.0661,-0.7299 3.99295,-1.06714 5.76229,-1.07314 z"
       inkscape:connector-curvature="0"
       id="path3471"
       style="fill:#000000" />
    <path
       d="m 225.97541,118.85622 c -3.87473,1.37275 -3.99626,1.48499 -53.19042,49.83103 l 353.55339,353.55339 c 49.19416,-48.34604 49.31569,-48.45828 53.19042,-49.83103 z"
       inkscape:connector-curvature="0"
       id="path3473"
       style="fill:#000000" />
    <path
       d="m 172.78499,168.68725 -24.30895,23.91235 353.55339,353.55339 24.30895,-23.91235 z"
       inkscape:connector-curvature="0"
       id="path3475"
       style="fill:#000000" />
    <path
       d="m 148.47604,192.5996 0,126.60719 353.55339,353.55339 0,-126.60719 z"
       inkscape:connector-curvature="0"
       id="path3477"
       style="fill:#000000" />
    <path
       d="m 148.47604,319.20679 21.18285,20.80958 353.55339,353.55339 -21.18285,-20.80958 z"
       inkscape:connector-curvature="0"
       id="path3479"
       style="fill:#000000" />
    <path
       d="m 169.65889,340.01637 c 49.80318,48.95361 52.1496,51.18935 55.3367,52.74716 l 353.55339,353.55339 c -3.1871,-1.55781 -5.53352,-3.79355 -55.3367,-52.74716 z"
       inkscape:connector-curvature="0"
       id="path3481"
       style="fill:#000000" />
    <path
       d="m 224.99559,392.76353 0.0233,0 353.55339,353.55339 -0.0233,0 z"
       inkscape:connector-curvature="0"
       id="path3483"
       style="fill:#000000" />
    <path
       d="m 225.01889,392.76353 c 5.67879,2.75692 11.391,1.53758 14.90731,-3.19609 l 353.55339,353.55339 c -3.51631,4.73367 -9.22852,5.95301 -14.90731,3.19609 z"
       inkscape:connector-curvature="0"
       id="path3485"
       style="fill:#000000" />
    <path
       d="m 239.9262,389.56744 c 3.58776,-4.83776 3.38243,3.55275 3.56936,-132.90605 l 353.55339,353.55339 c -0.18693,136.4588 0.0184,128.06829 -3.56936,132.90605 z"
       inkscape:connector-curvature="0"
       id="path3487"
       style="fill:#000000" />
    <path
       d="m 243.49556,256.66139 c 0.15356,-111.71843 0.0519,-126.6736 -0.81653,-129.6633 l 353.55339,353.55339 c 0.86843,2.9897 0.97009,17.94487 0.81653,129.6633 z"
       inkscape:connector-curvature="0"
       id="path3489"
       style="fill:#000000" />
    <path
       d="m 242.67903,126.99809 c -0.77064,-2.65149 -1.94393,-4.74953 -3.46406,-6.26966 l 353.55339,353.55339 c 1.52013,1.52013 2.69342,3.61817 3.46406,6.26966 z"
       inkscape:connector-curvature="0"
       id="path3491"
       style="fill:#000000" />
    <path
       d="m 239.21497,120.72843 c -1.95717,-1.95718 -4.48931,-2.95636 -7.4773,-2.94535 l 353.55339,353.55339 c 2.98799,-0.011 5.52013,0.98817 7.4773,2.94535 z"
       inkscape:connector-curvature="0"
       id="path3493"
       style="fill:#000000" />
    <path
       d="m 100.30139,195.49241 c -5.990178,0 -10.801391,4.81118 -10.801391,10.80139 L 443.05339,559.84719 c 0,-5.99021 4.81121,-10.80139 10.80139,-10.80139 z"
       inkscape:connector-curvature="0"
       id="path3495"
       style="fill:#000000" />
    <path
       d="m 89.499999,206.2938 0,99.40542 353.553391,353.55339 0,-99.40542 z"
       inkscape:connector-curvature="0"
       id="path3497"
       style="fill:#000000" />
    <path
       d="m 89.499999,305.69922 c 0,2.99511 1.202789,5.69546 3.154361,7.64703 l 353.55339,353.55339 c -1.95157,-1.95157 -3.15436,-4.65192 -3.15436,-7.64703 z"
       inkscape:connector-curvature="0"
       id="path3499"
       style="fill:#000000" />
    <path
       d="m 92.65436,313.34625 c 1.951565,1.95157 4.651909,3.15436 7.64703,3.15436 L 453.85478,670.054 c -2.99512,0 -5.69546,-1.20279 -7.64703,-3.15436 z"
       inkscape:connector-curvature="0"
       id="path3501"
       style="fill:#000000" />
    <path
       d="m 100.30139,316.50061 40.47604,0 353.55339,353.55339 -40.47604,0 z"
       inkscape:connector-curvature="0"
       id="path3503"
       style="fill:#000000" />
    <path
       d="m 140.77743,316.50061 0,-121.0082 353.55339,353.55339 0,121.0082 z"
       inkscape:connector-curvature="0"
       id="path3505"
       style="fill:#000000" />
    <path
       d="m 140.77743,195.49241 -40.47604,0 353.55339,353.55339 40.47604,0 z"
       inkscape:connector-curvature="0"
       id="path3507"
       style="fill:#000000" />
    <path
       d="m 268.22447,239.39783 0,33.22068 353.55339,353.55339 0,-33.22068 z"
       inkscape:connector-curvature="0"
       id="path3509"
       style="fill:#000000" />
    <path
       d="m 268.22447,272.61851 66.39469,0 353.55339,353.55339 -66.39469,0 z"
       inkscape:connector-curvature="0"
       id="path3511"
       style="fill:#000000" />
    <path
       d="m 334.61916,272.61851 0,-33.22068 353.55339,353.55339 0,33.22068 z"
       inkscape:connector-curvature="0"
       id="path3513"
       style="fill:#000000" />
    <path
       d="m 334.61916,239.39783 -66.39469,0 353.55339,353.55339 66.39469,0 z"
       inkscape:connector-curvature="0"
       id="path3515"
       style="fill:#000000" />
    <path
       d="m 356.08197,239.39783 0,33.22068 353.55339,353.55339 0,-33.22068 z"
       inkscape:connector-curvature="0"
       id="path3517"
       style="fill:#000000" />
    <path
       d="m 356.08197,272.61851 66.41803,0 353.55339,353.55339 -66.41803,0 z"
       inkscape:connector-curvature="0"
       id="path3519"
       style="fill:#000000" />
    <path
       d="m 422.5,272.61851 0,-33.22068 353.55339,353.55339 0,33.22068 z"
       inkscape:connector-curvature="0"
       id="path3521"
       style="fill:#000000" />
    <path
       d="m 422.5,239.39783 -66.41803,0 353.55339,353.55339 66.41803,0 z"
       inkscape:connector-curvature="0"
       id="path3523"
       style="fill:#000000" />
  </g>
  <path
     d="m 231.7377,117.78308 c -1.76934,0.006 -3.69619,0.34324 -5.76229,1.07314 -3.87473,1.37275 -3.99626,1.48499 -53.19042,49.83103 l -24.30895,23.91235 0,126.60719 21.18285,20.80958 c 49.80318,48.95361 52.1496,51.18935 55.3367,52.74716 l 0.0233,0 c 5.67879,2.75692 11.391,1.53758 14.90731,-3.19609 3.58776,-4.83776 3.38243,3.55275 3.56936,-132.90605 0.15356,-111.71843 0.0519,-126.6736 -0.81653,-129.6633 -1.76285,-6.06531 -5.63261,-9.23458 -10.94136,-9.21501 z m -131.43631,77.70933 c -5.990178,0 -10.801391,4.81118 -10.801391,10.80139 l 0,99.40542 c 0,5.99021 4.811139,10.80139 10.801391,10.80139 l 40.47604,0 0,-121.0082 -40.47604,0 z m 167.92308,43.90542 0,33.22068 66.39469,0 0,-33.22068 -66.39469,0 z m 87.8575,0 0,33.22068 66.41803,0 0,-33.22068 -66.41803,0 z"
     inkscape:connector-curvature="0"
     id="path6260"
     style="color:#000000;fill:#ffffff" />
</svg>
