<?xml version="1.0" encoding="UTF-8" standalone="no"?>
<!-- Created with Inkscape (http://www.inkscape.org/) -->

<svg
   xmlns:dc="http://purl.org/dc/elements/1.1/"
   xmlns:cc="http://creativecommons.org/ns#"
   xmlns:rdf="http://www.w3.org/1999/02/22-rdf-syntax-ns#"
   xmlns:svg="http://www.w3.org/2000/svg"
   xmlns="http://www.w3.org/2000/svg"
   xmlns:inkscape="http://www.inkscape.org/namespaces/inkscape"
   version="1.1"
   width="100%"
   height="100%"
   viewBox="0 0 512 512"
   id="svg2">
  <metadata
     id="metadata90">
    <rdf:RDF>
      <cc:Work
         rdf:about="">
        <dc:format>image/svg+xml</dc:format>
        <dc:type
           rdf:resource="http://purl.org/dc/dcmitype/StillImage" />
      </cc:Work>
    </rdf:RDF>
  </metadata>
  <defs
     id="defs88" />
  <path
     d="m 471.95,253.05 c 0,120.9 -98.01,218.9 -218.9,218.9 -120.9,0 -218.9,-98.01 -218.9,-218.9 0,-120.9 98.01,-218.9 218.9,-218.9 120.9,0 218.9,98.01 218.9,218.9"
     inkscape:connector-curvature="0"
     id="path4"
     style="fill:#0078ad;fill-rule:evenodd" />
  <path
     d="m 256.19,98.72 c -54.77,-0.228 -105.53,49.06 -101.18,104.88 0.964,27.396 15.362,52.46 35.389,70.5 19.582,16.12 10.465,42.892 25.02,58.45 15.456,17.693 -0.046,0.11 15.491,17.71 0.31,0.351 0.607,-0.408 -0.834,0.168 -9.337,0.587 -31.545,1.715 -20.09,15.592 6.372,6.372 8.867,9.455 10.997,11.585 1.974,1.974 -2.575,2.126 -11.736,2.527 -3.376,4.608 -2.956,8.965 0.218,12.139 4.922,4.922 9.932,9.874 15.14,15.08 0.552,2.989 1.906,5.573 3.706,7.933 18.782,18.56 37.08,37.425 56.41,56.77 104.62,-8.977 187.79,-96.83 190,-203.25 -44.23,-44.25 -99.95,-98.49 -144.28,-142.63 -19.323,-17.712 -45.46,-27.512 -71.63,-27.397 -0.871,-0.028 -1.734,-0.056 -2.604,-0.06"
     inkscape:connector-curvature="0"
     id="path6"
     style="fill-opacity:0.23500001" />
  <g
     id="g8"
     style="fill-rule:evenodd">
    <path
       d="M 256,1 C 115.17,1 1,115.17 1,256 1,396.83 115.17,511 256,511 396.83,511 511,396.83 511,256 511,115.17 396.83,1 256,1 m 8.827,44.931 c 120.9,0 218.9,98 218.9,218.9 0,120.9 -98,218.9 -218.9,218.9 -120.9,0 -218.93,-98 -218.93,-218.9 0,-120.9 98.03,-218.9 218.93,-218.9"
       inkscape:connector-curvature="0"
       id="path10"
       style="fill-opacity:0.06700003" />
    <g
       id="g12"
       style="fill-opacity:0.12900002">
      <path
         d="m 256,4.433 c -138.94,0 -251.57,112.63 -251.57,251.57 0,138.94 112.63,251.57 251.57,251.57 138.94,0 251.57,-112.63 251.57,-251.57 C 507.57,117.063 394.94,4.433 256,4.433 m 5.885,38.556 c 120.9,0 218.9,98 218.9,218.9 0,120.9 -98,218.9 -218.9,218.9 -120.9,0 -218.93,-98 -218.93,-218.9 0,-120.9 98.03,-218.9 218.93,-218.9"
         inkscape:connector-curvature="0"
         id="path14" />
      <path
         d="m 256,8.356 c -136.77,0 -247.64,110.87 -247.64,247.64 0,136.77 110.87,247.64 247.64,247.64 136.77,0 247.64,-110.87 247.64,-247.64 C 503.64,119.226 392.77,8.356 256,8.356 m 2.942,31.691 c 120.9,0 218.9,98 218.9,218.9 0,120.9 -98,218.9 -218.9,218.9 -120.9,0 -218.93,-98 -218.93,-218.9 0,-120.9 98.03,-218.9 218.93,-218.9"
         inkscape:connector-curvature="0"
         id="path16" />
    </g>
    <path
       d="m 253.04,7.859 c -135.42,0 -245.19,109.78 -245.19,245.19 0,135.42 109.78,245.19 245.19,245.19 135.42,0 245.19,-109.78 245.19,-245.19 0,-135.42 -109.78,-245.19 -245.19,-245.19 z m 0,26.297 c 120.9,0 218.9,98 218.9,218.9 0,120.9 -98,218.9 -218.9,218.9 -120.9,0 -218.93,-98 -218.93,-218.9 0,-120.9 98.03,-218.9 218.93,-218.9 z"
       inkscape:connector-curvature="0"
       id="path18"
       style="fill:#ffffff;stroke:#000000;stroke-width:4.90399981;stroke-opacity:0.31000001" />
  </g>
  <text
     x="729.64001"
     y="231.36"
     id="text20"
     style="font-size:129.22999573px;line-height:125%;letter-spacing:0;word-spacing:0;font-family:Gentium Book Basic">
    <tspan
       x="729.64001"
       y="231.36"
       id="tspan22" />
  </text>
  <text
     x="378.91"
     y="579.25"
     transform="scale(4.0128,0.2492)"
     id="text24"
     style="font-size:46.95399857px;text-anchor:middle;font-family:Arial" />
  <text
     x="1310.91"
     y="151.36"
     id="text26"
     style="font-size:129.22999573px;line-height:125%;letter-spacing:0;word-spacing:0;font-family:Gentium Book Basic">
    <tspan
       x="1310.91"
       y="151.36"
       id="tspan28" />
  </text>
  <text
     x="523.76001"
     y="258.22"
     transform="scale(4.0128,0.2492)"
     id="text30"
     style="font-size:46.95399857px;text-anchor:middle;font-family:Arial" />
  <text
     x="239.33"
     y="-29.900999"
     id="text32"
     style="font-size:129.22999573px;line-height:125%;letter-spacing:0;word-spacing:0;font-family:Gentium Book Basic">
    <tspan
       x="239.33"
       y="-29.900999"
       id="tspan34" />
  </text>
  <text
     x="256.72"
     y="-469.14001"
     transform="scale(4.0128,0.2492)"
     id="text36"
     style="font-size:46.95399857px;text-anchor:middle;font-family:Arial" />
  <text
     x="1337.38"
     y="-246.37"
     id="text38"
     style="font-size:129.22999573px;line-height:125%;letter-spacing:0;word-spacing:0;font-family:Gentium Book Basic">
    <tspan
       x="1337.38"
       y="-246.37"
       id="tspan40" />
  </text>
  <text
     x="530.35999"
     y="-1337.8101"
     transform="scale(4.0128,0.2492)"
     id="text42"
     style="font-size:46.95399857px;text-anchor:middle;font-family:Arial" />
  <text
     x="1918.65"
     y="-326.38"
     id="text44"
     style="font-size:129.22999573px;line-height:125%;letter-spacing:0;word-spacing:0;font-family:Gentium Book Basic">
    <tspan
       x="1918.65"
       y="-326.38"
       id="tspan46" />
  </text>
  <text
     x="675.21002"
     y="-1658.85"
     transform="scale(4.0128,0.2492)"
     id="text48"
     style="font-size:46.95399857px;text-anchor:middle;font-family:Arial" />
  <text
     x="1529.53"
     y="-798.78003"
     id="text50"
     style="font-size:129.22999573px;line-height:125%;letter-spacing:0;word-spacing:0;font-family:Gentium Book Basic">
    <tspan
       x="1529.53"
       y="-798.78003"
       id="tspan52" />
  </text>
  <text
     x="578.23999"
     y="-3554.51"
     transform="scale(4.0128,0.2492)"
     id="text54"
     style="font-size:46.95399857px;text-anchor:middle;font-family:Arial" />
  <text
     x="2110.79"
     y="-878.78003"
     id="text56"
     style="font-size:129.22999573px;line-height:125%;letter-spacing:0;word-spacing:0;font-family:Gentium Book Basic">
    <tspan
       x="2110.79"
       y="-878.78003"
       id="tspan58" />
  </text>
  <text
     x="723.09003"
     y="-3875.54"
     transform="scale(4.0128,0.2492)"
     id="text60"
     style="font-size:46.95399857px;text-anchor:middle;font-family:Arial" />
  <g
     id="g62"
     style="font-size:208.33000183px;line-height:125%;letter-spacing:0;word-spacing:0;font-family:Gentium Book Basic">
    <text
       x="277.98999"
       y="535.94"
       id="text64">
      <tspan
         x="277.98999"
         y="535.94"
         id="tspan66" />
    </text>
    <text
       x="-1771.42"
       y="413.26999"
       id="text68">
      <tspan
         x="-1771.42"
         y="413.26999"
         id="tspan70" />
    </text>
  </g>
  <text
     x="-123.71"
     y="1095.49"
     transform="scale(4.0128,0.2492)"
     id="text72"
     style="font-size:75.69999695px;text-anchor:middle;font-family:Arial" />
  <text
     x="-1213.24"
     y="859.17999"
     id="text74"
     style="font-size:208.33000183px;line-height:125%;letter-spacing:0;word-spacing:0;font-family:Gentium Book Basic">
    <tspan
       x="-1213.24"
       y="859.17999"
       id="tspan76" />
  </text>
  <text
     x="15.386"
     y="2884.8501"
     transform="scale(4.0128,0.2492)"
     id="text78"
     style="font-size:75.69999695px;text-anchor:middle;font-family:Arial" />
  <text
     x="875.45001"
     y="621.65997"
     id="text80"
     style="font-size:40px;line-height:125%;letter-spacing:0;word-spacing:0;font-family:Sans">
    <tspan
       x="875.45001"
       y="621.65997"
       id="tspan82"
       style="font-style:italic;font-weight:bold" />
  </text>
  <path
     d="m 258.78,98.78 c -57.42,0 -103.91,44.601 -103.91,99.68 0,28.359 12.336,53.953 32.14,72.11 l 0.028,0.084 c 4.334,3.755 8.785,10.113 12.355,18.14 3.719,8.356 5.699,16.847 5.897,23.697 l 0.028,0.057 c 0.94,14.93 13.264,26.66 28.44,26.66 h 50.34 c 15.792,0 28.525,-12.704 28.525,-28.497 v -2.257 c 0.702,-6.01 2.566,-12.876 5.587,-19.666 3.573,-8.03 7.995,-14.387 12.326,-18.14 19.864,-18.17 32.25,-43.805 32.25,-72.2 0,-55.08 -46.579,-99.68 -104,-99.68 m -3.72435,26.38085 a 7.926705,7.926705 0 0 1 1.38252,15.77208 c -14.552,1.813 -27.22,6.25 -36.736,14.587 -9.515,8.337 -16.451,20.743 -18.791,40.709 a 7.934768,7.934768 0 1 1 -15.74386,-1.86218 c 2.685,-22.92 11.446,-39.7 24.1,-50.786 12.653,-11.09 28.629,-16.303 45.2,-18.368 a 7.926705,7.926705 0 0 1 0.59251,-0.0564 m 51.6331,216.21008 a 7.105889,7.105889 0 0 0 -0.50787,0.0564 l -93.34,11 a 7.105889,7.105889 0 1 0 1.66467,14.10741 l 93.34,-11 a 7.105889,7.105889 0 0 0 -1.15681,-14.16384 m 0,26.40907 a 7.206096,7.206096 0 0 0 -0.50787,0.0564 l -93.37,11 a 7.206096,7.206096 0 1 0 1.69288,14.30491 l 93.37,-11 a 7.206096,7.206096 0 0 0 -1.18502,-14.36134 m -17.63426,27.34016 a 7.213686,7.213686 0 0 0 -0.31036,0.0282 7.206096,7.206096 0 0 0 -0.50787,0.0564 l -57.33,6.179 a 7.208443,7.208443 0 0 0 1.55182,14.33312 l 57.33,-6.179 a 7.218211,7.218211 0 0 0 -0.73359,-14.41777"
     inkscape:connector-curvature="0"
     id="path84"
     style="fill:#ffffff" />
</svg>
