<?xml version="1.0" encoding="UTF-8" standalone="no"?>
<!-- Created with Inkscape (http://www.inkscape.org/) -->

<svg
   xmlns:dc="http://purl.org/dc/elements/1.1/"
   xmlns:cc="http://creativecommons.org/ns#"
   xmlns:rdf="http://www.w3.org/1999/02/22-rdf-syntax-ns#"
   xmlns:svg="http://www.w3.org/2000/svg"
   xmlns="http://www.w3.org/2000/svg"
   xmlns:inkscape="http://www.inkscape.org/namespaces/inkscape"
   version="1.1"
   width="100%"
   height="100%"
   viewBox="0 0 512 512"
   id="svg2">
  <metadata
     id="metadata72">
    <rdf:RDF>
      <cc:Work
         rdf:about="">
        <dc:format>image/svg+xml</dc:format>
        <dc:type
           rdf:resource="http://purl.org/dc/dcmitype/StillImage" />
      </cc:Work>
    </rdf:RDF>
  </metadata>
  <defs
     id="defs70" />
  <path
     d="m 471.95,253.05 c 0,120.9 -98.01,218.91 -218.91,218.91 -120.9,0 -218.91,-98.01 -218.91,-218.91 0,-120.9 98.01,-218.91 218.91,-218.91 120.9,0 218.91,98.01 218.91,218.91"
     inkscape:connector-curvature="0"
     id="path4"
     style="fill:#ef6a47;fill-rule:evenodd" />
  <path
     d="m 251.97,118.59 c -33.867,0.442 -69.967,27.07 -67.22,63.44 0.891,22.871 22.696,34.765 36.13,50.41 9.08,9.106 18.18,18.198 27.28,27.28 -5.926,19.413 -10.393,41.851 -5.375,61.34 8.758,8.677 17.505,17.414 26.19,26.19 -20.385,-13.376 -48.814,9.978 -39.781,32.563 7.295,15.258 22.82,24.41 34.06,36.688 16.438,15.886 33.18,31.456 49.813,47.13 77.98,-22.19 138.21,-86.53 154.5,-166.81 -53.55,-53.623 -107.17,-107.16 -160.84,-160.66 -14.07,-12.263 -33.06,-17.587 -51.47,-17.531 -1.086,-0.041 -2.189,-0.045 -3.281,-0.031 m 48.625,260.22 c 0.417,0.417 0.833,0.833 1.25,1.25 -0.009,0.016 0.009,0.047 0,0.063 -0.402,-0.423 -0.849,-0.891 -1.25,-1.313"
     inkscape:connector-curvature="0"
     id="path6"
     style="fill-opacity:0.23500001" />
  <g
     id="g8"
     style="fill-rule:evenodd">
    <path
       d="M 256,1 C 115.17,1 1,115.17 1,256 1,396.83 115.17,511 256,511 396.83,511 511,396.83 511,256 511,115.17 396.83,1 256,1 m 8.827,44.931 c 120.9,0 218.9,98 218.9,218.9 0,120.9 -98,218.9 -218.9,218.9 -120.9,0 -218.93,-98 -218.93,-218.9 0,-120.9 98.03,-218.9 218.93,-218.9"
       inkscape:connector-curvature="0"
       id="path10"
       style="fill-opacity:0.06700003" />
    <g
       transform="translate(0,-540.36)"
       id="g12"
       style="fill-opacity:0.12900002">
      <path
         d="M 256,544.79 C 117.06,544.79 4.43,657.42 4.43,796.36 4.43,935.3 117.06,1047.93 256,1047.93 394.94,1047.93 507.57,935.3 507.57,796.36 507.57,657.42 394.94,544.79 256,544.79 m 5.885,38.556 c 120.9,0 218.9,98 218.9,218.9 0,120.9 -98,218.9 -218.9,218.9 -120.9,0 -218.93,-98 -218.93,-218.9 0,-120.9 98.03,-218.9 218.93,-218.9"
         inkscape:connector-curvature="0"
         id="path14" />
      <path
         d="M 256,548.72 C 119.23,548.72 8.36,659.59 8.36,796.36 8.36,933.13 119.23,1044 256,1044 392.77,1044 503.64,933.13 503.64,796.36 503.64,659.59 392.77,548.72 256,548.72 m 2.942,31.691 c 120.9,0 218.9,98 218.9,218.9 0,120.9 -98,218.9 -218.9,218.9 -120.9,0 -218.93,-98 -218.93,-218.9 0,-120.9 98.03,-218.9 218.93,-218.9"
         inkscape:connector-curvature="0"
         id="path16" />
    </g>
    <path
       d="M 253.04,7.86 C 117.62,7.86 7.85,117.64 7.85,253.05 c 0,135.42 109.78,245.19 245.19,245.19 135.42,0 245.19,-109.78 245.19,-245.19 C 498.23,117.63 388.45,7.86 253.04,7.86 z m 0,26.297 c 120.9,0 218.9,98 218.9,218.9 0,120.9 -98,218.9 -218.9,218.9 -120.9,0 -218.93,-98 -218.93,-218.9 0,-120.9 98.03,-218.9 218.93,-218.9 z"
       inkscape:connector-curvature="0"
       id="path18"
       style="fill:#ffffff;stroke:#000000;stroke-width:4.90399981;stroke-opacity:0.31000001" />
  </g>
  <text
     x="729.64001"
     y="231.36"
     id="text20"
     style="font-size:129.22999573px;line-height:125%;letter-spacing:0;word-spacing:0;font-family:Gentium Book Basic">
    <tspan
       x="729.64001"
       y="231.36"
       id="tspan22" />
  </text>
  <text
     x="378.91"
     y="579.26001"
     transform="scale(4.0128,0.2492)"
     id="text24"
     style="font-size:46.95399857px;text-anchor:middle;font-family:Arial" />
  <text
     x="1310.91"
     y="151.36"
     id="text26"
     style="font-size:129.22999573px;line-height:125%;letter-spacing:0;word-spacing:0;font-family:Gentium Book Basic">
    <tspan
       x="1310.91"
       y="151.36"
       id="tspan28" />
  </text>
  <text
     x="523.76001"
     y="258.22"
     transform="scale(4.0128,0.2492)"
     id="text30"
     style="font-size:46.95399857px;text-anchor:middle;font-family:Arial" />
  <text
     x="239.33"
     y="-29.9"
     id="text32"
     style="font-size:129.22999573px;line-height:125%;letter-spacing:0;word-spacing:0;font-family:Gentium Book Basic">
    <tspan
       x="239.33"
       y="-29.9"
       id="tspan34" />
  </text>
  <text
     x="256.72"
     y="-469.13"
     transform="scale(4.0128,0.2492)"
     id="text36"
     style="font-size:46.95399857px;text-anchor:middle;font-family:Arial" />
  <text
     x="1337.38"
     y="-246.37"
     id="text38"
     style="font-size:129.22999573px;line-height:125%;letter-spacing:0;word-spacing:0;font-family:Gentium Book Basic">
    <tspan
       x="1337.38"
       y="-246.37"
       id="tspan40" />
  </text>
  <text
     x="530.35999"
     y="-1337.8"
     transform="scale(4.0128,0.2492)"
     id="text42"
     style="font-size:46.95399857px;text-anchor:middle;font-family:Arial" />
  <text
     x="1918.65"
     y="-326.37"
     id="text44"
     style="font-size:129.22999573px;line-height:125%;letter-spacing:0;word-spacing:0;font-family:Gentium Book Basic">
    <tspan
       x="1918.65"
       y="-326.37"
       id="tspan46" />
  </text>
  <text
     x="675.21002"
     y="-1658.83"
     transform="scale(4.0128,0.2492)"
     id="text48"
     style="font-size:46.95399857px;text-anchor:middle;font-family:Arial" />
  <text
     x="1529.53"
     y="-798.77002"
     id="text50"
     style="font-size:129.22999573px;line-height:125%;letter-spacing:0;word-spacing:0;font-family:Gentium Book Basic">
    <tspan
       x="1529.53"
       y="-798.77002"
       id="tspan52" />
  </text>
  <text
     x="578.23999"
     y="-3554.48"
     transform="scale(4.0128,0.2492)"
     id="text54"
     style="font-size:46.95399857px;text-anchor:middle;font-family:Arial" />
  <text
     x="2110.79"
     y="-878.78003"
     id="text56"
     style="font-size:129.22999573px;line-height:125%;letter-spacing:0;word-spacing:0;font-family:Gentium Book Basic">
    <tspan
       x="2110.79"
       y="-878.78003"
       id="tspan58" />
  </text>
  <text
     x="723.09003"
     y="-3875.52"
     transform="scale(4.0128,0.2492)"
     id="text60"
     style="font-size:46.95399857px;text-anchor:middle;font-family:Arial" />
  <text
     x="277.98999"
     y="535.94"
     id="text62"
     style="font-size:208.33000183px;line-height:125%;letter-spacing:0;word-spacing:0;font-family:Gentium Book Basic">
    <tspan
       x="277.98999"
       y="535.94"
       id="tspan64" />
  </text>
  <path
     d="m 255.25,118.63 c -38.01,0 -70.62,25.771 -70.62,59.906 0,9.466 2.592,18.08 7.469,24.688 4.876,6.605 12.464,11.188 21,11.188 12.949,0 24.06,-10.32 24.06,-23.313 0,-5.983 -2.32,-11.902 -6.313,-17.281 -0.067,-0.095 -0.059,-0.063 -0.125,-0.156 -3.01,-4.25 -4.6,-6.69 -5.03,-7.594 -0.441,-0.924 -0.375,-0.487 -0.375,-2.688 0,-4.124 1.926,-7.782 5.938,-10.906 4.01,-3.124 10.111,-5.344 17.344,-5.344 9.01,0 15.07,3.03 19.688,8.875 4.62,5.845 7.656,15.16 7.656,27.719 0,7.957 -0.41,12.596 -2.781,19.875 -2.371,7.279 -6.911,17.228 -15.188,33.781 a 8.150815,8.150815 0 0 0 -0.0312,0.0312 c -13.87,28.11 -16.723,40.876 -17.469,77.78 a 8.150815,8.150815 0 0 0 8.125,8.3125 h 6.906 a 8.150815,8.150815 0 0 0 6.3125,-1.6875 8.150815,8.150815 0 0 0 0.21875,-0.15625 8.150815,8.150815 0 0 0 0.21875,-0.21875 8.150815,8.150815 0 0 0 0.375,-0.34375 8.150815,8.150815 0 0 0 0.4375,-0.5 8.150815,8.150815 0 0 0 0.0937,-0.0937 8.150815,8.150815 0 0 0 1.78125,-6.09375 8.150815,8.150815 0 0 0 0,-0.0625 c 0.51,-20.931 5.552,-34.837 18.469,-50.813 22.03,-24.2 23.06,-25.449 28.906,-34.22 0.008,-0.012 0.023,-0.019 0.031,-0.031 10,-14.813 15.03,-30.655 15.03,-47.06 0,-18.461 -7.687,-34.794 -20.656,-46.06 -12.969,-11.269 -30.96,-17.531 -51.47,-17.531 m 0.5,224.94 c -15.706,0 -27.969,12.253 -27.969,27.469 0,15.216 12.253,27.5 27.469,27.5 15.216,0 27.5,-12.284 27.5,-27.5 0,-14.725 -12.275,-27.469 -27,-27.469"
     inkscape:connector-curvature="0"
     id="path66"
     style="fill:#ffffff" />
</svg>
