<?xml version="1.0" encoding="UTF-8" standalone="no"?>
<!-- Created with Inkscape (http://www.inkscape.org/) -->

<svg
   xmlns:dc="http://purl.org/dc/elements/1.1/"
   xmlns:cc="http://creativecommons.org/ns#"
   xmlns:rdf="http://www.w3.org/1999/02/22-rdf-syntax-ns#"
   xmlns:svg="http://www.w3.org/2000/svg"
   xmlns="http://www.w3.org/2000/svg"
   xmlns:inkscape="http://www.inkscape.org/namespaces/inkscape"
   version="1.1"
   width="100%"
   height="100%"
   viewBox="0 0 512 512"
   id="svg2">
  <metadata
     id="metadata123">
    <rdf:RDF>
      <cc:Work
         rdf:about="">
        <dc:format>image/svg+xml</dc:format>
        <dc:type
           rdf:resource="http://purl.org/dc/dcmitype/StillImage" />
      </cc:Work>
    </rdf:RDF>
  </metadata>
  <defs
     id="defs4">
    <linearGradient
       y1="450.91"
       x2="0"
       y2="77.050003"
       id="0"
       gradientUnits="userSpaceOnUse">
      <stop
         id="stop7"
         style="stop-color:#628aba;stop-opacity:1"
         offset="0" />
      <stop
         id="stop9"
         style="stop-color:#6c9ace;stop-opacity:1"
         offset="0.082" />
      <stop
         id="stop11"
         style="stop-color:#77a1d1;stop-opacity:1"
         offset="0.49000001" />
      <stop
         id="stop13"
         style="stop-color:#6c99c7;stop-opacity:1"
         offset="0.51099998" />
      <stop
         id="stop15"
         style="stop-color:#6494c7;stop-opacity:1"
         offset="1" />
    </linearGradient>
  </defs>
  <text
     x="729.64001"
     y="233.74001"
     id="text17"
     style="font-size:129.22999573px;line-height:125%;letter-spacing:0;word-spacing:0;font-family:Gentium Book Basic">
    <tspan
       x="729.64001"
       y="233.74001"
       id="tspan19" />
  </text>
  <text
     x="378.91"
     y="588.81"
     transform="scale(4.0128,0.2492)"
     id="text21"
     style="font-size:46.95399857px;text-anchor:middle;font-family:Arial" />
  <text
     x="1310.91"
     y="153.74001"
     id="text23"
     style="font-size:129.22999573px;line-height:125%;letter-spacing:0;word-spacing:0;font-family:Gentium Book Basic">
    <tspan
       x="1310.91"
       y="153.74001"
       id="tspan25" />
  </text>
  <text
     x="523.76001"
     y="267.76999"
     transform="scale(4.0128,0.2492)"
     id="text27"
     style="font-size:46.95399857px;text-anchor:middle;font-family:Arial" />
  <text
     x="239.33"
     y="-27.52"
     id="text29"
     style="font-size:129.22999573px;line-height:125%;letter-spacing:0;word-spacing:0;font-family:Gentium Book Basic">
    <tspan
       x="239.33"
       y="-27.52"
       id="tspan31" />
  </text>
  <text
     x="256.72"
     y="-459.57999"
     transform="scale(4.0128,0.2492)"
     id="text33"
     style="font-size:46.95399857px;text-anchor:middle;font-family:Arial" />
  <text
     x="1337.38"
     y="-243.99001"
     id="text35"
     style="font-size:129.22999573px;line-height:125%;letter-spacing:0;word-spacing:0;font-family:Gentium Book Basic">
    <tspan
       x="1337.38"
       y="-243.99001"
       id="tspan37" />
  </text>
  <text
     x="530.35999"
     y="-1328.26"
     transform="scale(4.0128,0.2492)"
     id="text39"
     style="font-size:46.95399857px;text-anchor:middle;font-family:Arial" />
  <text
     x="1918.65"
     y="-324"
     id="text41"
     style="font-size:129.22999573px;line-height:125%;letter-spacing:0;word-spacing:0;font-family:Gentium Book Basic">
    <tspan
       x="1918.65"
       y="-324"
       id="tspan43" />
  </text>
  <text
     x="675.21002"
     y="-1649.29"
     transform="scale(4.0128,0.2492)"
     id="text45"
     style="font-size:46.95399857px;text-anchor:middle;font-family:Arial" />
  <text
     x="1529.53"
     y="-796.40002"
     id="text47"
     style="font-size:129.22999573px;line-height:125%;letter-spacing:0;word-spacing:0;font-family:Gentium Book Basic">
    <tspan
       x="1529.53"
       y="-796.40002"
       id="tspan49" />
  </text>
  <text
     x="578.23999"
     y="-3544.95"
     transform="scale(4.0128,0.2492)"
     id="text51"
     style="font-size:46.95399857px;text-anchor:middle;font-family:Arial" />
  <text
     x="2110.8"
     y="-876.40002"
     id="text53"
     style="font-size:129.22999573px;line-height:125%;letter-spacing:0;word-spacing:0;font-family:Gentium Book Basic">
    <tspan
       x="2110.8"
       y="-876.40002"
       id="tspan55" />
  </text>
  <text
     x="723.09003"
     y="-3865.99"
     transform="scale(4.0128,0.2492)"
     id="text57"
     style="font-size:46.95399857px;text-anchor:middle;font-family:Arial" />
  <g
     id="g59"
     style="line-height:125%;letter-spacing:0;word-spacing:0;font-family:Gentium Book Basic">
    <text
       x="277.98999"
       y="538.32001"
       id="text61"
       style="font-size:208.33000183px">
      <tspan
         x="277.98999"
         y="538.32001"
         id="tspan63" />
    </text>
    <text
       x="3833.78"
       y="-509.14001"
       id="text65"
       style="font-size:129.22999573px">
      <tspan
         x="3833.78"
         y="-509.14001"
         id="tspan67" />
    </text>
  </g>
  <text
     x="1152.46"
     y="-2392.23"
     transform="scale(4.0128,0.2492)"
     id="text69"
     style="font-size:46.95399857px;text-anchor:middle;font-family:Arial" />
  <text
     x="4415.0498"
     y="-589.14001"
     id="text71"
     style="font-size:129.22999573px;line-height:125%;letter-spacing:0;word-spacing:0;font-family:Gentium Book Basic">
    <tspan
       x="4415.0498"
       y="-589.14001"
       id="tspan73" />
  </text>
  <text
     x="1297.3101"
     y="-2713.26"
     transform="scale(4.0128,0.2492)"
     id="text75"
     style="font-size:46.95399857px;text-anchor:middle;font-family:Arial" />
  <text
     x="3343.47"
     y="-770.39001"
     id="text77"
     style="font-size:129.22999573px;line-height:125%;letter-spacing:0;word-spacing:0;font-family:Gentium Book Basic">
    <tspan
       x="3343.47"
       y="-770.39001"
       id="tspan79" />
  </text>
  <text
     x="1030.27"
     y="-3440.6201"
     transform="scale(4.0128,0.2492)"
     id="text81"
     style="font-size:46.95399857px;text-anchor:middle;font-family:Arial" />
  <text
     x="4441.52"
     y="-986.87"
     id="text83"
     style="font-size:129.22999573px;line-height:125%;letter-spacing:0;word-spacing:0;font-family:Gentium Book Basic">
    <tspan
       x="4441.52"
       y="-986.87"
       id="tspan85" />
  </text>
  <text
     x="1303.91"
     y="-4309.29"
     transform="scale(4.0128,0.2492)"
     id="text87"
     style="font-size:46.95399857px;text-anchor:middle;font-family:Arial" />
  <text
     x="5022.79"
     y="-1066.87"
     id="text89"
     style="font-size:129.22999573px;line-height:125%;letter-spacing:0;word-spacing:0;font-family:Gentium Book Basic">
    <tspan
       x="5022.79"
       y="-1066.87"
       id="tspan91" />
  </text>
  <text
     x="1448.76"
     y="-4630.3198"
     transform="scale(4.0128,0.2492)"
     id="text93"
     style="font-size:46.95399857px;text-anchor:middle;font-family:Arial" />
  <text
     x="4633.6699"
     y="-1539.27"
     id="text95"
     style="font-size:129.22999573px;line-height:125%;letter-spacing:0;word-spacing:0;font-family:Gentium Book Basic">
    <tspan
       x="4633.6699"
       y="-1539.27"
       id="tspan97" />
  </text>
  <text
     x="1351.79"
     y="-6525.9902"
     transform="scale(4.0128,0.2492)"
     id="text99"
     style="font-size:46.95399857px;text-anchor:middle;font-family:Arial" />
  <text
     x="5214.9302"
     y="-1619.27"
     id="text101"
     style="font-size:129.22999573px;line-height:125%;letter-spacing:0;word-spacing:0;font-family:Gentium Book Basic">
    <tspan
       x="5214.9302"
       y="-1619.27"
       id="tspan103" />
  </text>
  <text
     x="1496.64"
     y="-6847.02"
     transform="scale(4.0128,0.2492)"
     id="text105"
     style="font-size:46.95399857px;text-anchor:middle;font-family:Arial" />
  <text
     x="3382.1299"
     y="-204.56"
     id="text107"
     style="font-size:208.33000183px;line-height:125%;letter-spacing:0;word-spacing:0;font-family:Gentium Book Basic">
    <tspan
       x="3382.1299"
       y="-204.56"
       id="tspan109" />
  </text>
  <g
     id="g111"
     style="fill-rule:evenodd">
    <path
       d="m 108.63,57.38 c -7.963,0 -15.222,2.323 -20.688,6.25 -4.545,3.266 -7.749,7.867 -8.75,13.13 H 67.286 c -16.447,0 -29.875,13.02 -29.875,29.19 v 12.531 H 37.38 c -19.928,0 -38.08,15.84 -36.25,35.875 l 24.25,265.41 c 1.733,18.966 16.29,34.938 36.22,34.938 h 383.41 c 19.933,0 34.09,-16.04 36.19,-34.844 l 29.656,-265.41 c 1.123,-10.05 -3.135,-19.287 -9.969,-25.688 -6.833,-6.399 -16.257,-10.281 -26.22,-10.281 h -0.031 V 105.95 c 0,-16.17 -13.428,-29.19 -29.875,-29.19 h -262.91 c -1,-5.256 -4.205,-9.857 -8.75,-13.12 -5.465,-3.927 -12.756,-6.25 -20.719,-6.25 h -43.75"
       inkscape:connector-curvature="0"
       id="path113"
       style="fill:url(#0)" />
    <g
       id="g115"
       style="fill:#ffffff">
      <path
         d="m 108.03,63.25 369.56,369.59 c 1.839,-4.047 3.084,-8.438 3.594,-13 L 482.84,405.152 140.9,63.242 h -32.875 m -23.594,9.375 c -1.663,2.635 -2.343,5.704 -3,9.156 H 67.15 c -2.023,0 -3.996,0.216 -5.906,0.594 l 372.31,372.31 h 11.438 c 6.338,0 12.09,-1.621 17.06,-4.438 L 84.432,72.619 m 107.97,9.156 293.72,293.75 3.313,-29.625 -264.12,-264.12 h -32.906 m 65.844,0 234.5,234.53 3.313,-29.656 -204.91,-204.87 H 258.25 m 65.875,0 175.25,175.25 3.313,-29.594 -145.69,-145.66 h -32.875 m 65.844,0 116.03,116.03 3.313,-29.625 -86.41,-86.41 h -32.938 m 68.969,3.125 13.281,13.25 C 469.548,92.323 464.84,87.72 458.931,84.9 M 41.711,95.744 c -2.471,3.95 -3.996,8.54 -4.313,13.438 v 9.281 h -0.031 c -1.858,0 -3.688,0.14 -5.5,0.406 l 335.84,335.81 h 32.906 L 41.703,95.739 m -3.813,4.906 c -0.097,0.517 -0.181,1.036 -0.25,1.563 0.069,-0.527 0.158,-1.047 0.25,-1.563 m -0.25,1.563 c -0.055,0.425 -0.12,0.851 -0.156,1.281 0.041,-0.431 0.101,-0.857 0.156,-1.281 m -27.625,27.719 c -6.073,6.278 -9.666,14.676 -8.938,24 l 300.78,300.75 h 32.906 L 10.013,129.927 m -5.625,60.22 3.313,36.22 228.31,228.31 h 32.875 L 4.386,190.147 m 6.625,72.47 3.313,36.25 155.81,155.81 h 32.875 l -192,-192.06 m 6.625,72.53 3.313,36.22 83.28,83.31 h 32.938 L 17.635,335.147 m 6.625,72.47 1.094,12.13 c 1.733,18.966 16.29,34.938 36.22,34.938 h 9.75 l -47.06,-47.06"
         inkscape:connector-curvature="0"
         id="path117"
         style="opacity:0.2" />
      <path
         d="m 108.55,56.926 c -7.963,0 -15.11,2.403 -20.572,6.33 -4.545,3.266 -7.702,7.931 -8.703,13.187 h -12.13 c -17.677,0 -29.802,12.771 -29.802,30.661 v 3.956 c 0,-16.17 13.355,-29.27 29.802,-29.27 h 14.286 c 1,-5.256 2,-9.657 6.549,-12.923 5.465,-3.927 12.609,-6.33 20.572,-6.33 h 43.78 c 7.963,0 15.371,2.403 20.835,6.33 4.545,3.266 5.766,7.668 6.769,12.923 h 264.88 c 16.447,0 29.802,11.455 29.802,27.625 v -3.956 c 0,-16.17 -13.355,-29.01 -29.802,-29.01 h -262.95 c -1,-5.256 -4.159,-9.921 -8.703,-13.187 -5.465,-3.927 -12.872,-6.33 -20.835,-6.33 z"
         inkscape:connector-curvature="0"
         id="path119"
         style="opacity:0.76399997" />
    </g>
  </g>
</svg>
