<?xml version="1.0" encoding="UTF-8" standalone="no"?>
<!-- Created with Inkscape (http://www.inkscape.org/) -->

<svg
   xmlns:dc="http://purl.org/dc/elements/1.1/"
   xmlns:cc="http://creativecommons.org/ns#"
   xmlns:rdf="http://www.w3.org/1999/02/22-rdf-syntax-ns#"
   xmlns:svg="http://www.w3.org/2000/svg"
   xmlns="http://www.w3.org/2000/svg"
   xmlns:inkscape="http://www.inkscape.org/namespaces/inkscape"
   version="1.1"
   width="100%"
   height="100%"
   viewBox="0 0 512 512"
   id="svg2">
  <metadata
     id="metadata78">
    <rdf:RDF>
      <cc:Work
         rdf:about="">
        <dc:format>image/svg+xml</dc:format>
        <dc:type
           rdf:resource="http://purl.org/dc/dcmitype/StillImage" />
      </cc:Work>
    </rdf:RDF>
  </metadata>
  <defs
     id="defs76" />
  <path
     d="m 471.95,253.05 c 0,120.9 -98.01,218.91 -218.91,218.91 -120.9,0 -218.91,-98.01 -218.91,-218.91 0,-120.9 98.01,-218.91 218.91,-218.91 120.9,0 218.91,98.01 218.91,218.91"
     inkscape:connector-curvature="0"
     id="path4"
     style="fill:#cd1d31;fill-rule:evenodd" />
  <path
     d="m 227.06,110.03 c -20.04,0.836 -13.673,33.58 -35.06,26.469 -21.99,-8.716 -7.789,32.34 -19.12,17.406 -4.565,-3.528 -7.425,-12.458 -14.875,-9.5 -24.604,5.334 -38.26,31.513 -34.531,55.34 0.335,55.49 -0.551,111.25 0.656,166.63 6.819,22.1 27.53,34.58 42.563,50.813 17.999,17.629 36.22,35 54.41,52.44 10.426,1.524 21.09,2.344 31.938,2.344 104.82,0 192.42,-73.68 213.88,-172.06 -14.609,-14.481 -29.02,-29.15 -43.12,-44.12 -33.906,-34.392 -66.951,-69.69 -101.47,-103.44 -11.996,-11.474 -26.728,-10.143 -24.594,1.625 -8.634,-7.576 -15.546,-20.272 -29.06,-17.5 -11.432,-9.814 -20.358,-26.19 -37.22,-26.16 -1.586,-0.249 -3.039,-0.337 -4.375,-0.281"
     inkscape:connector-curvature="0"
     id="path6"
     style="fill-opacity:0.23500001" />
  <g
     id="g8"
     style="fill-rule:evenodd">
    <path
       d="M 256,1 C 115.17,1 1,115.17 1,256 1,396.83 115.17,511 256,511 396.83,511 511,396.83 511,256 511,115.17 396.83,1 256,1 m 8.827,44.931 c 120.9,0 218.9,98 218.9,218.9 0,120.9 -98,218.9 -218.9,218.9 -120.9,0 -218.93,-98 -218.93,-218.9 0,-120.9 98.03,-218.9 218.93,-218.9"
       inkscape:connector-curvature="0"
       id="path10"
       style="fill-opacity:0.06700003" />
    <g
       id="g12"
       style="fill-opacity:0.12900002">
      <path
         d="M 256,4.43 C 117.06,4.43 4.43,117.06 4.43,256 4.43,394.94 117.06,507.57 256,507.57 394.94,507.57 507.57,394.94 507.57,256 507.57,117.06 394.94,4.43 256,4.43 m 5.885,38.556 c 120.9,0 218.9,98 218.9,218.9 0,120.9 -98,218.9 -218.9,218.9 -120.9,0 -218.93,-98 -218.93,-218.9 0,-120.9 98.03,-218.9 218.93,-218.9"
         inkscape:connector-curvature="0"
         id="path14" />
      <path
         d="M 256,8.36 C 119.23,8.36 8.36,119.23 8.36,256 8.36,392.77 119.23,503.64 256,503.64 392.77,503.64 503.64,392.77 503.64,256 503.64,119.23 392.77,8.36 256,8.36 m 2.942,31.691 c 120.9,0 218.9,98 218.9,218.9 0,120.9 -98,218.9 -218.9,218.9 -120.9,0 -218.93,-98 -218.93,-218.9 0,-120.9 98.03,-218.9 218.93,-218.9"
         inkscape:connector-curvature="0"
         id="path16" />
    </g>
    <path
       d="M 253.04,7.86 C 117.62,7.86 7.85,117.64 7.85,253.05 c 0,135.42 109.78,245.19 245.19,245.19 135.42,0 245.19,-109.78 245.19,-245.19 C 498.23,117.63 388.45,7.86 253.04,7.86 z m 0,26.297 c 120.9,0 218.9,98 218.9,218.9 0,120.9 -98,218.9 -218.9,218.9 -120.9,0 -218.93,-98 -218.93,-218.9 0,-120.9 98.03,-218.9 218.93,-218.9 z"
       inkscape:connector-curvature="0"
       id="path18"
       style="fill:#ffffff;stroke:#000000;stroke-width:4.90399981;stroke-opacity:0.31000001" />
  </g>
  <text
     x="729.64001"
     y="231.36"
     id="text20"
     style="font-size:129.22999573px;line-height:125%;letter-spacing:0;word-spacing:0;font-family:Gentium Book Basic">
    <tspan
       x="729.64001"
       y="231.36"
       id="tspan22" />
  </text>
  <text
     x="378.91"
     y="579.26001"
     transform="scale(4.0128,0.2492)"
     id="text24"
     style="font-size:46.95399857px;text-anchor:middle;font-family:Arial" />
  <text
     x="1310.91"
     y="151.36"
     id="text26"
     style="font-size:129.22999573px;line-height:125%;letter-spacing:0;word-spacing:0;font-family:Gentium Book Basic">
    <tspan
       x="1310.91"
       y="151.36"
       id="tspan28" />
  </text>
  <text
     x="523.76001"
     y="258.22"
     transform="scale(4.0128,0.2492)"
     id="text30"
     style="font-size:46.95399857px;text-anchor:middle;font-family:Arial" />
  <text
     x="239.33"
     y="-29.9"
     id="text32"
     style="font-size:129.22999573px;line-height:125%;letter-spacing:0;word-spacing:0;font-family:Gentium Book Basic">
    <tspan
       x="239.33"
       y="-29.9"
       id="tspan34" />
  </text>
  <text
     x="256.72"
     y="-469.13"
     transform="scale(4.0128,0.2492)"
     id="text36"
     style="font-size:46.95399857px;text-anchor:middle;font-family:Arial" />
  <text
     x="1337.38"
     y="-246.37"
     id="text38"
     style="font-size:129.22999573px;line-height:125%;letter-spacing:0;word-spacing:0;font-family:Gentium Book Basic">
    <tspan
       x="1337.38"
       y="-246.37"
       id="tspan40" />
  </text>
  <text
     x="530.35999"
     y="-1337.8"
     transform="scale(4.0128,0.2492)"
     id="text42"
     style="font-size:46.95399857px;text-anchor:middle;font-family:Arial" />
  <text
     x="1918.65"
     y="-326.37"
     id="text44"
     style="font-size:129.22999573px;line-height:125%;letter-spacing:0;word-spacing:0;font-family:Gentium Book Basic">
    <tspan
       x="1918.65"
       y="-326.37"
       id="tspan46" />
  </text>
  <text
     x="675.21002"
     y="-1658.83"
     transform="scale(4.0128,0.2492)"
     id="text48"
     style="font-size:46.95399857px;text-anchor:middle;font-family:Arial" />
  <text
     x="1529.53"
     y="-798.77002"
     id="text50"
     style="font-size:129.22999573px;line-height:125%;letter-spacing:0;word-spacing:0;font-family:Gentium Book Basic">
    <tspan
       x="1529.53"
       y="-798.77002"
       id="tspan52" />
  </text>
  <text
     x="578.23999"
     y="-3554.48"
     transform="scale(4.0128,0.2492)"
     id="text54"
     style="font-size:46.95399857px;text-anchor:middle;font-family:Arial" />
  <text
     x="2110.79"
     y="-878.78003"
     id="text56"
     style="font-size:129.22999573px;line-height:125%;letter-spacing:0;word-spacing:0;font-family:Gentium Book Basic">
    <tspan
       x="2110.79"
       y="-878.78003"
       id="tspan58" />
  </text>
  <text
     x="723.09003"
     y="-3875.52"
     transform="scale(4.0128,0.2492)"
     id="text60"
     style="font-size:46.95399857px;text-anchor:middle;font-family:Arial" />
  <text
     x="277.98999"
     y="535.94"
     id="text62"
     style="font-size:208.33000183px;line-height:125%;letter-spacing:0;word-spacing:0;font-family:Gentium Book Basic">
    <tspan
       x="277.98999"
       y="535.94"
       id="tspan64" />
  </text>
  <g
     id="g66"
     style="fill:#ffffff">
    <path
       d="m 231.44,110.31 c -6.48,0.087 -12.894,2.644 -17.875,7.625 -4.26,4.255 -7.656,11.646 -7.656,16.656 v 1.875 h -10.09 c -11.307,0.017 -13.349,0.534 -16.219,3.938 -2.78,3.31 -2.988,5.386 -1.594,17.13 0.689,5.791 1.636,11.803 2.125,13.344 1.492,4.7 6.06,8.739 11.281,10.03 0.937,0.232 19.618,0.393 41.531,0.344 39.13,-0.093 39.891,-0.116 42.41,-1.281 6.836,-3.178 8.588,-6.524 10.219,-19.625 1.777,-14.279 1.589,-16.719 -1.563,-20.09 -3.053,-3.265 -5.07,-3.765 -15.875,-3.781 h -9.781 l -0.344,-2.125 c -1.239,-7.774 -3.584,-12.498 -8.313,-16.875 -5.234,-4.847 -11.77,-7.243 -18.25,-7.156 m 0.438,12.719 c 4.235,0.024 8.492,1.967 11.281,5.938 1.456,2.066 1.758,3.079 1.938,6.625 0.188,3.738 0.056,4.527 -1.375,7.156 -1.847,3.391 -5.171,5.933 -8.844,6.781 -3.314,0.763 -3.708,0.747 -7.344,-0.5 -7.509,-2.581 -11.278,-11.836 -7.688,-18.781 2.49,-4.811 7.231,-7.246 12.03,-7.219 m 67.844,20.16 0.344,2.188 c 0.445,2.626 -2.12,23.985 -3.469,28.844 -2.506,9.03 -11.452,17.351 -20.875,19.438 -3.543,0.787 -9.376,0.893 -45.625,0.75 l -41.531,-0.156 -3.438,-1.375 c -8.539,-3.424 -15.07,-9.967 -17.594,-17.594 -1.125,-3.396 -3.75,-23.06 -3.75,-28.12 0,-4.431 0.292,-4.303 -5.781,-2.75 -16.854,4.313 -29.537,17.13 -33.531,33.938 -1.088,4.591 -1.12,6.98 -0.969,95.69 l 0.156,90.97 1.344,3.969 c 5.743,16.993 18.386,28.39 35.38,31.875 2.984,0.615 22.402,0.776 101.88,0.813 109.02,0.049 101.73,0.316 109.53,-3.781 7.529,-3.955 13.14,-10.875 15.656,-19.219 1.186,-3.965 1.214,-4.339 1.063,-66.31 l -0.156,-62.31 -1.875,-4 c -1.724,-3.664 -3.521,-5.616 -22.22,-24.375 -11.177,-11.213 -21.01,-20.73 -21.875,-21.19 l -1.563,-0.844 -0.031,-6.688 c -0.016,-8.188 -0.668,-13.13 -2.563,-18.813 -5.226,-15.685 -19.494,-27.775 -36.03,-30.531 l -2.469,-0.406 m 30.19,68.938 0.219,11.563 c 0.2,10.288 0.367,11.889 1.5,14.75 2.488,6.292 7.373,11.192 13.594,13.625 2.895,1.129 4.653,1.336 15.219,1.625 l 11.969,0.313 v 120.09 l -1.406,2.781 c -1.578,3.087 -4.02,5.432 -7.594,7.344 l -2.406,1.281 -55.47,0.125 c -52.623,0.126 -55.674,0.088 -58.53,-0.906 -3.999,-1.39 -6.726,-3.709 -8.875,-7.5 l -1.75,-3.125 v -150.25 l 1.281,-2.406 c 1.736,-3.245 4.572,-5.987 7.906,-7.625 l 2.75,-1.344 40.781,-0.156 40.813,-0.188"
       inkscape:connector-curvature="0"
       id="path68" />
    <text
       x="276.76999"
       y="364.64999"
       id="text70"
       style="font-size:157.27000427px;line-height:125%;letter-spacing:0;word-spacing:0;font-family:Sesame">
      <tspan
         x="276.76999"
         y="364.64999"
         id="tspan72">!</tspan>
    </text>
  </g>
</svg>
