<?xml version="1.0" encoding="UTF-8" standalone="no"?>
<!-- Created with Inkscape (http://www.inkscape.org/) -->

<svg
   xmlns:dc="http://purl.org/dc/elements/1.1/"
   xmlns:cc="http://creativecommons.org/ns#"
   xmlns:rdf="http://www.w3.org/1999/02/22-rdf-syntax-ns#"
   xmlns:svg="http://www.w3.org/2000/svg"
   xmlns="http://www.w3.org/2000/svg"
   xmlns:inkscape="http://www.inkscape.org/namespaces/inkscape"
   version="1.1"
   width="100%"
   height="100%"
   viewBox="0 0 512 512"
   id="svg2">
  <metadata
     id="metadata186">
    <rdf:RDF>
      <cc:Work
         rdf:about="">
        <dc:format>image/svg+xml</dc:format>
        <dc:type
           rdf:resource="http://purl.org/dc/dcmitype/StillImage" />
      </cc:Work>
    </rdf:RDF>
  </metadata>
  <defs
     id="defs4" />
  <path
     d="m 471.95,253.05 c 0,120.9 -98.01,218.9 -218.9,218.9 -120.9,0 -218.9,-98.01 -218.9,-218.9 0,-120.9 98.01,-218.9 218.9,-218.9 120.9,0 218.9,98.01 218.9,218.9"
     inkscape:connector-curvature="0"
     id="path10"
     style="fill:#68af4c;fill-rule:evenodd" />
  <path
     d="m 103.94,127.91 c -5.224,0.076 -10.489,0.361 -15.656,0.125 0.828,20.273 29.656,29.483 20,53.906 v 202.03 c 26.471,25.479 52.26,51.665 78.19,77.69 20.992,6.693 43.35,10.313 66.56,10.313 120.9,0 218.91,-98.01 218.91,-218.91 0,-2.456 -0.045,-4.908 -0.125,-7.344 -14.722,-14.722 -29.14,-29.14 -48.12,-48.12 -38.04,0 -24.493,1.456 -38.75,-0.438 h -197.37 c -22.819,-22.626 -45.617,-45.54 -68.16,-68.09 -5.058,-1.097 -10.245,-1.232 -15.469,-1.156"
     inkscape:connector-curvature="0"
     id="path12"
     style="fill-opacity:0.23500001" />
  <g
     id="g14"
     style="fill-rule:evenodd">
    <path
       d="M 256,1 C 115.17,1 1,115.17 1,256 1,396.83 115.17,511 256,511 396.83,511 511,396.83 511,256 511,115.17 396.83,1 256,1 m 8.827,44.931 c 120.9,0 218.9,98 218.9,218.9 0,120.9 -98,218.9 -218.9,218.9 -120.9,0 -218.93,-98 -218.93,-218.9 0,-120.9 98.03,-218.9 218.93,-218.9"
       inkscape:connector-curvature="0"
       id="path16"
       style="fill-opacity:0.06700003" />
    <g
       id="g18"
       style="fill-opacity:0.12900002">
      <path
         d="m 256,4.433 c -138.94,0 -251.57,112.63 -251.57,251.57 0,138.94 112.63,251.57 251.57,251.57 138.94,0 251.57,-112.63 251.57,-251.57 C 507.57,117.063 394.94,4.433 256,4.433 m 5.885,38.556 c 120.9,0 218.9,98 218.9,218.9 0,120.9 -98,218.9 -218.9,218.9 -120.9,0 -218.93,-98 -218.93,-218.9 0,-120.9 98.03,-218.9 218.93,-218.9"
         inkscape:connector-curvature="0"
         id="path20" />
      <path
         d="m 256,8.356 c -136.77,0 -247.64,110.87 -247.64,247.64 0,136.77 110.87,247.64 247.64,247.64 136.77,0 247.64,-110.87 247.64,-247.64 C 503.64,119.226 392.77,8.356 256,8.356 m 2.942,31.691 c 120.9,0 218.9,98 218.9,218.9 0,120.9 -98,218.9 -218.9,218.9 -120.9,0 -218.93,-98 -218.93,-218.9 0,-120.9 98.03,-218.9 218.93,-218.9"
         inkscape:connector-curvature="0"
         id="path22" />
    </g>
    <path
       d="m 253.04,7.859 c -135.42,0 -245.19,109.78 -245.19,245.19 0,135.42 109.78,245.19 245.19,245.19 135.42,0 245.19,-109.78 245.19,-245.19 0,-135.42 -109.78,-245.19 -245.19,-245.19 z m 0,26.297 c 120.9,0 218.9,98 218.9,218.9 0,120.9 -98,218.9 -218.9,218.9 -120.9,0 -218.93,-98 -218.93,-218.9 0,-120.9 98.03,-218.9 218.93,-218.9 z"
       inkscape:connector-curvature="0"
       id="path24"
       style="fill:#ffffff;stroke:#000000;stroke-width:4.90399981;stroke-opacity:0.31000001" />
  </g>
  <text
     x="729.64001"
     y="231.36"
     id="text26"
     style="font-size:129.22999573px;line-height:125%;letter-spacing:0;word-spacing:0;font-family:Gentium Book Basic">
    <tspan
       x="729.64001"
       y="231.36"
       id="tspan28" />
  </text>
  <text
     x="378.91"
     y="579.25"
     transform="scale(4.0128,0.2492)"
     id="text30"
     style="font-size:46.95399857px;text-anchor:middle;font-family:Arial" />
  <text
     x="1310.91"
     y="151.36"
     id="text32"
     style="font-size:129.22999573px;line-height:125%;letter-spacing:0;word-spacing:0;font-family:Gentium Book Basic">
    <tspan
       x="1310.91"
       y="151.36"
       id="tspan34" />
  </text>
  <text
     x="523.76001"
     y="258.22"
     transform="scale(4.0128,0.2492)"
     id="text36"
     style="font-size:46.95399857px;text-anchor:middle;font-family:Arial" />
  <text
     x="239.33"
     y="-29.900999"
     id="text38"
     style="font-size:129.22999573px;line-height:125%;letter-spacing:0;word-spacing:0;font-family:Gentium Book Basic">
    <tspan
       x="239.33"
       y="-29.900999"
       id="tspan40" />
  </text>
  <text
     x="256.72"
     y="-469.14001"
     transform="scale(4.0128,0.2492)"
     id="text42"
     style="font-size:46.95399857px;text-anchor:middle;font-family:Arial" />
  <text
     x="1337.38"
     y="-246.37"
     id="text44"
     style="font-size:129.22999573px;line-height:125%;letter-spacing:0;word-spacing:0;font-family:Gentium Book Basic">
    <tspan
       x="1337.38"
       y="-246.37"
       id="tspan46" />
  </text>
  <text
     x="530.35999"
     y="-1337.8101"
     transform="scale(4.0128,0.2492)"
     id="text48"
     style="font-size:46.95399857px;text-anchor:middle;font-family:Arial" />
  <text
     x="1918.65"
     y="-326.38"
     id="text50"
     style="font-size:129.22999573px;line-height:125%;letter-spacing:0;word-spacing:0;font-family:Gentium Book Basic">
    <tspan
       x="1918.65"
       y="-326.38"
       id="tspan52" />
  </text>
  <text
     x="675.21002"
     y="-1658.85"
     transform="scale(4.0128,0.2492)"
     id="text54"
     style="font-size:46.95399857px;text-anchor:middle;font-family:Arial" />
  <text
     x="1529.53"
     y="-798.78003"
     id="text56"
     style="font-size:129.22999573px;line-height:125%;letter-spacing:0;word-spacing:0;font-family:Gentium Book Basic">
    <tspan
       x="1529.53"
       y="-798.78003"
       id="tspan58" />
  </text>
  <text
     x="578.23999"
     y="-3554.51"
     transform="scale(4.0128,0.2492)"
     id="text60"
     style="font-size:46.95399857px;text-anchor:middle;font-family:Arial" />
  <text
     x="2110.79"
     y="-878.78003"
     id="text62"
     style="font-size:129.22999573px;line-height:125%;letter-spacing:0;word-spacing:0;font-family:Gentium Book Basic">
    <tspan
       x="2110.79"
       y="-878.78003"
       id="tspan64" />
  </text>
  <text
     x="723.09003"
     y="-3875.54"
     transform="scale(4.0128,0.2492)"
     id="text66"
     style="font-size:46.95399857px;text-anchor:middle;font-family:Arial" />
  <g
     id="g68"
     style="line-height:125%;letter-spacing:0;word-spacing:0;font-family:Gentium Book Basic">
    <text
       x="277.98999"
       y="535.94"
       id="text70"
       style="font-size:208.33000183px">
      <tspan
         x="277.98999"
         y="535.94"
         id="tspan72" />
    </text>
    <text
       x="-307.17999"
       y="-11.341"
       id="text74"
       style="font-size:200px">
      <tspan
         x="-307.17999"
         y="-11.341"
         id="tspan76" />
    </text>
  </g>
  <text
     x="228.47"
     y="-585.88"
     transform="scale(4.0128,0.2492)"
     id="text78"
     style="font-size:72.66999817px;text-anchor:middle;font-family:Arial" />
  <text
     x="438.20001"
     y="41.801998"
     id="text80"
     style="font-size:200px;line-height:125%;letter-spacing:0;word-spacing:0;font-family:Gentium Book Basic">
    <tspan
       x="438.20001"
       y="41.801998"
       id="tspan82" />
  </text>
  <text
     x="414.22"
     y="-372.63"
     transform="scale(4.0128,0.2492)"
     id="text84"
     style="font-size:72.66999817px;text-anchor:middle;font-family:Arial" />
  <text
     x="1337.8101"
     y="-82.019997"
     id="text86"
     style="font-size:200px;line-height:125%;letter-spacing:0;word-spacing:0;font-family:Gentium Book Basic">
    <tspan
       x="1337.8101"
       y="-82.019997"
       id="tspan88" />
  </text>
  <text
     x="638.40002"
     y="-869.48999"
     transform="scale(4.0128,0.2492)"
     id="text90"
     style="font-size:72.66999817px;text-anchor:middle;font-family:Arial" />
  <text
     x="465.66"
     y="-134.64999"
     id="text92"
     style="font-size:200px;line-height:125%;letter-spacing:0;word-spacing:0;font-family:Gentium Book Basic">
    <tspan
       x="465.66"
       y="-134.64999"
       id="tspan94" />
  </text>
  <text
     x="421.06"
     y="-1080.71"
     transform="scale(4.0128,0.2492)"
     id="text96"
     style="font-size:72.66999817px;text-anchor:middle;font-family:Arial" />
  <text
     x="1365.27"
     y="-258.47"
     id="text98"
     style="font-size:200px;line-height:125%;letter-spacing:0;word-spacing:0;font-family:Gentium Book Basic">
    <tspan
       x="1365.27"
       y="-258.47"
       id="tspan100" />
  </text>
  <text
     x="645.23999"
     y="-1577.5699"
     transform="scale(4.0128,0.2492)"
     id="text102"
     style="font-size:72.66999817px;text-anchor:middle;font-family:Arial" />
  <text
     x="-2544.3201"
     y="317.23001"
     id="text104"
     style="font-size:200px;line-height:125%;letter-spacing:0;word-spacing:0;font-family:Gentium Book Basic">
    <tspan
       x="-2544.3201"
       y="317.23001"
       id="tspan106" />
  </text>
  <text
     x="-329.03"
     y="732.62"
     transform="scale(4.0128,0.2492)"
     id="text108"
     style="font-size:72.66999817px;text-anchor:middle;font-family:Arial" />
  <text
     x="-616.03998"
     y="81.800003"
     id="text110"
     style="font-size:200px;line-height:125%;letter-spacing:0;word-spacing:0;font-family:Gentium Book Basic">
    <tspan
       x="-616.03998"
       y="81.800003"
       id="tspan112" />
  </text>
  <text
     x="151.5"
     y="-212.12"
     transform="scale(4.0128,0.2492)"
     id="text114"
     style="font-size:72.66999817px;text-anchor:middle;font-family:Arial" />
  <text
     x="129.34"
     y="134.94"
     id="text116"
     style="font-size:200px;line-height:125%;letter-spacing:0;word-spacing:0;font-family:Gentium Book Basic">
    <tspan
       x="129.34"
       y="134.94"
       id="tspan118" />
  </text>
  <text
     x="337.25"
     y="1.138"
     transform="scale(4.0128,0.2492)"
     id="text120"
     style="font-size:72.66999817px;text-anchor:middle;font-family:Arial" />
  <text
     x="1028.95"
     y="11.127"
     id="text122"
     style="font-size:200px;line-height:125%;letter-spacing:0;word-spacing:0;font-family:Gentium Book Basic">
    <tspan
       x="1028.95"
       y="11.127"
       id="tspan124" />
  </text>
  <text
     x="561.42999"
     y="-495.72"
     transform="scale(4.0128,0.2492)"
     id="text126"
     style="font-size:72.66999817px;text-anchor:middle;font-family:Arial" />
  <text
     x="156.8"
     y="-41.509998"
     id="text128"
     style="font-size:200px;line-height:125%;letter-spacing:0;word-spacing:0;font-family:Gentium Book Basic">
    <tspan
       x="156.8"
       y="-41.509998"
       id="tspan130" />
  </text>
  <text
     x="344.09"
     y="-706.95001"
     transform="scale(4.0128,0.2492)"
     id="text132"
     style="font-size:72.66999817px;text-anchor:middle;font-family:Arial" />
  <text
     x="1056.42"
     y="-165.33"
     id="text134"
     style="font-size:200px;line-height:125%;letter-spacing:0;word-spacing:0;font-family:Gentium Book Basic">
    <tspan
       x="1056.42"
       y="-165.33"
       id="tspan136" />
  </text>
  <text
     x="568.28003"
     y="-1203.8101"
     transform="scale(4.0128,0.2492)"
     id="text138"
     style="font-size:72.66999817px;text-anchor:middle;font-family:Arial" />
  <text
     x="-2853.1799"
     y="410.37"
     id="text140"
     style="font-size:200px;line-height:125%;letter-spacing:0;word-spacing:0;font-family:Gentium Book Basic">
    <tspan
       x="-2853.1799"
       y="410.37"
       id="tspan142" />
  </text>
  <text
     x="-406"
     y="1106.39"
     transform="scale(4.0128,0.2492)"
     id="text144"
     style="font-size:72.66999817px;text-anchor:middle;font-family:Arial" />
  <text
     x="-1330.61"
     y="-35.060001"
     id="text146"
     style="font-size:200px;line-height:125%;letter-spacing:0;word-spacing:0;font-family:Gentium Book Basic">
    <tspan
       x="-1330.61"
       y="-35.060001"
       id="tspan148" />
  </text>
  <text
     x="-26.570999"
     y="-681.03998"
     transform="scale(4.0128,0.2492)"
     id="text150"
     style="font-size:72.66999817px;text-anchor:middle;font-family:Arial" />
  <text
     x="-585.22998"
     y="18.09"
     id="text152"
     style="font-size:200px;line-height:125%;letter-spacing:0;word-spacing:0;font-family:Gentium Book Basic">
    <tspan
       x="-585.22998"
       y="18.09"
       id="tspan154" />
  </text>
  <text
     x="159.17999"
     y="-467.79001"
     transform="scale(4.0128,0.2492)"
     id="text156"
     style="font-size:72.66999817px;text-anchor:middle;font-family:Arial" />
  <text
     x="314.38"
     y="-105.73"
     id="text158"
     style="font-size:200px;line-height:125%;letter-spacing:0;word-spacing:0;font-family:Gentium Book Basic">
    <tspan
       x="314.38"
       y="-105.73"
       id="tspan160" />
  </text>
  <text
     x="383.35999"
     y="-964.65002"
     transform="scale(4.0128,0.2492)"
     id="text162"
     style="font-size:72.66999817px;text-anchor:middle;font-family:Arial" />
  <text
     x="-557.77002"
     y="-158.37"
     id="text164"
     style="font-size:200px;line-height:125%;letter-spacing:0;word-spacing:0;font-family:Gentium Book Basic">
    <tspan
       x="-557.77002"
       y="-158.37"
       id="tspan166" />
  </text>
  <text
     x="166.02"
     y="-1175.88"
     transform="scale(4.0128,0.2492)"
     id="text168"
     style="font-size:72.66999817px;text-anchor:middle;font-family:Arial" />
  <text
     x="341.85001"
     y="-282.17999"
     id="text170"
     style="font-size:200px;line-height:125%;letter-spacing:0;word-spacing:0;font-family:Gentium Book Basic">
    <tspan
       x="341.85001"
       y="-282.17999"
       id="tspan172" />
  </text>
  <text
     x="390.20001"
     y="-1672.73"
     transform="scale(4.0128,0.2492)"
     id="text174"
     style="font-size:72.66999817px;text-anchor:middle;font-family:Arial" />
  <text
     x="-3567.75"
     y="293.51999"
     id="text176"
     style="font-size:200px;line-height:125%;letter-spacing:0;word-spacing:0;font-family:Gentium Book Basic">
    <tspan
       x="-3567.75"
       y="293.51999"
       id="tspan178" />
  </text>
  <text
     x="-584.07001"
     y="637.46002"
     transform="scale(4.0128,0.2492)"
     id="text180"
     style="font-size:72.66999817px;text-anchor:middle;font-family:Arial" />
  <path
     d="m 88.27,128.03 v 10.594 h 20.03 v 245.34 h 10.594 V 138.624 128.03 H 88.269 m 40.41,69.13 v 26.03 h 19.219 v 20.09 h -19.219 v 19.688 h 19.219 v 19.219 h -19.219 v 19.688 h 19.219 v 20.16 h -19.219 v 27.22 h 31.25 v -18.06 h 49.75 v 18.19 h 22.03 v -18.19 h 11.281 v 18.19 h 73.06 v -18.19 h 11.625 v 18.19 h 20.719 v -18.19 h 75.34 v -134.03 h -273 -2.844 -19.219"
     inkscape:connector-curvature="0"
     id="path182"
     style="fill:#ffffff" />
</svg>
