<?xml version="1.0" encoding="UTF-8" standalone="no"?>
<!-- Created with Inkscape (http://www.inkscape.org/) -->

<svg
   xmlns:dc="http://purl.org/dc/elements/1.1/"
   xmlns:cc="http://creativecommons.org/ns#"
   xmlns:rdf="http://www.w3.org/1999/02/22-rdf-syntax-ns#"
   xmlns:svg="http://www.w3.org/2000/svg"
   xmlns="http://www.w3.org/2000/svg"
   xmlns:xlink="http://www.w3.org/1999/xlink"
   xmlns:inkscape="http://www.inkscape.org/namespaces/inkscape"
   version="1.1"
   width="100%"
   height="100%"
   viewBox="0 0 512 512"
   id="svg2">
  <metadata
     id="metadata97">
    <rdf:RDF>
      <cc:Work
         rdf:about="">
        <dc:format>image/svg+xml</dc:format>
        <dc:type
           rdf:resource="http://purl.org/dc/dcmitype/StillImage" />
      </cc:Work>
    </rdf:RDF>
  </metadata>
  <defs
     id="defs95" />
  <path
     d="m 471.95,253.05 c 0,120.9 -98.01,218.9 -218.9,218.9 -120.9,0 -218.9,-98.01 -218.9,-218.9 0,-120.9 98.01,-218.9 218.9,-218.9 120.9,0 218.9,98.01 218.9,218.9"
     inkscape:connector-curvature="0"
     id="path4"
     style="fill:#ef6a47;fill-rule:evenodd" />
  <path
     d="m 341.5,95.09 c -9.265,0.004 -18.766,1.054 -27.781,0.281 -50.658,-10e-4 -101.31,0.003 -151.97,0 -21.16,-0.691 -33.1,21.346 -29.969,40.25 0.115,84.74 -0.216,169.51 0.188,254.25 3.242,19.338 22.438,29.365 34.13,43.531 10.538,10.473 21.05,20.965 31.563,31.469 17.694,4.614 36.24,7.094 55.38,7.094 120.9,0 218.91,-98.01 218.91,-218.91 0,-19.18 -2.458,-37.8 -7.094,-55.53 -32.21,-32.25 -64.46,-64.48 -96.94,-96.44 -8.097,-4.976 -17.14,-6 -26.406,-6"
     inkscape:connector-curvature="0"
     id="path6"
     style="fill-opacity:0.23500001" />
  <g
     id="g8"
     style="fill-rule:evenodd">
    <path
       d="M 256,1 C 115.17,1 1,115.17 1,256 1,396.83 115.17,511 256,511 396.83,511 511,396.83 511,256 511,115.17 396.83,1 256,1 m 8.827,44.931 c 120.9,0 218.9,98 218.9,218.9 0,120.9 -98,218.9 -218.9,218.9 -120.9,0 -218.93,-98 -218.93,-218.9 0,-120.9 98.03,-218.9 218.93,-218.9"
       inkscape:connector-curvature="0"
       id="path10"
       style="fill-opacity:0.06700003" />
    <g
       id="g12"
       style="fill-opacity:0.12900002">
      <path
         d="m 256,4.433 c -138.94,0 -251.57,112.63 -251.57,251.57 0,138.94 112.63,251.57 251.57,251.57 138.94,0 251.57,-112.63 251.57,-251.57 C 507.57,117.063 394.94,4.433 256,4.433 m 5.885,38.556 c 120.9,0 218.9,98 218.9,218.9 0,120.9 -98,218.9 -218.9,218.9 -120.9,0 -218.93,-98 -218.93,-218.9 0,-120.9 98.03,-218.9 218.93,-218.9"
         inkscape:connector-curvature="0"
         id="path14" />
      <path
         d="m 256,8.356 c -136.77,0 -247.64,110.87 -247.64,247.64 0,136.77 110.87,247.64 247.64,247.64 136.77,0 247.64,-110.87 247.64,-247.64 C 503.64,119.226 392.77,8.356 256,8.356 m 2.942,31.691 c 120.9,0 218.9,98 218.9,218.9 0,120.9 -98,218.9 -218.9,218.9 -120.9,0 -218.93,-98 -218.93,-218.9 0,-120.9 98.03,-218.9 218.93,-218.9"
         inkscape:connector-curvature="0"
         id="path16" />
    </g>
    <path
       d="m 253.04,7.859 c -135.42,0 -245.19,109.78 -245.19,245.19 0,135.42 109.78,245.19 245.19,245.19 135.42,0 245.19,-109.78 245.19,-245.19 0,-135.42 -109.78,-245.19 -245.19,-245.19 z m 0,26.297 c 120.9,0 218.9,98 218.9,218.9 0,120.9 -98,218.9 -218.9,218.9 -120.9,0 -218.93,-98 -218.93,-218.9 0,-120.9 98.03,-218.9 218.93,-218.9 z"
       inkscape:connector-curvature="0"
       id="path18"
       style="fill:#ffffff;stroke:#000000;stroke-width:4.90399981;stroke-opacity:0.31000001" />
  </g>
  <text
     x="729.64001"
     y="231.36"
     id="text20"
     style="font-size:129.22999573px;line-height:125%;letter-spacing:0;word-spacing:0;font-family:Gentium Book Basic">
    <tspan
       x="729.64001"
       y="231.36"
       id="tspan22" />
  </text>
  <text
     x="378.91"
     y="579.25"
     transform="scale(4.0128,0.2492)"
     id="text24"
     style="font-size:46.95399857px;text-anchor:middle;font-family:Arial" />
  <text
     x="1310.91"
     y="151.36"
     id="text26"
     style="font-size:129.22999573px;line-height:125%;letter-spacing:0;word-spacing:0;font-family:Gentium Book Basic">
    <tspan
       x="1310.91"
       y="151.36"
       id="tspan28" />
  </text>
  <text
     x="523.76001"
     y="258.22"
     transform="scale(4.0128,0.2492)"
     id="text30"
     style="font-size:46.95399857px;text-anchor:middle;font-family:Arial" />
  <text
     x="239.33"
     y="-29.900999"
     id="text32"
     style="font-size:129.22999573px;line-height:125%;letter-spacing:0;word-spacing:0;font-family:Gentium Book Basic">
    <tspan
       x="239.33"
       y="-29.900999"
       id="tspan34" />
  </text>
  <text
     x="256.72"
     y="-469.14001"
     transform="scale(4.0128,0.2492)"
     id="text36"
     style="font-size:46.95399857px;text-anchor:middle;font-family:Arial" />
  <text
     x="1337.38"
     y="-246.37"
     id="text38"
     style="font-size:129.22999573px;line-height:125%;letter-spacing:0;word-spacing:0;font-family:Gentium Book Basic">
    <tspan
       x="1337.38"
       y="-246.37"
       id="tspan40" />
  </text>
  <text
     x="530.35999"
     y="-1337.8101"
     transform="scale(4.0128,0.2492)"
     id="text42"
     style="font-size:46.95399857px;text-anchor:middle;font-family:Arial" />
  <text
     x="1918.65"
     y="-326.38"
     id="text44"
     style="font-size:129.22999573px;line-height:125%;letter-spacing:0;word-spacing:0;font-family:Gentium Book Basic">
    <tspan
       x="1918.65"
       y="-326.38"
       id="tspan46" />
  </text>
  <text
     x="675.21002"
     y="-1658.85"
     transform="scale(4.0128,0.2492)"
     id="text48"
     style="font-size:46.95399857px;text-anchor:middle;font-family:Arial" />
  <text
     x="1529.53"
     y="-798.78003"
     id="text50"
     style="font-size:129.22999573px;line-height:125%;letter-spacing:0;word-spacing:0;font-family:Gentium Book Basic">
    <tspan
       x="1529.53"
       y="-798.78003"
       id="tspan52" />
  </text>
  <text
     x="578.23999"
     y="-3554.51"
     transform="scale(4.0128,0.2492)"
     id="text54"
     style="font-size:46.95399857px;text-anchor:middle;font-family:Arial" />
  <text
     x="2110.79"
     y="-878.78003"
     id="text56"
     style="font-size:129.22999573px;line-height:125%;letter-spacing:0;word-spacing:0;font-family:Gentium Book Basic">
    <tspan
       x="2110.79"
       y="-878.78003"
       id="tspan58" />
  </text>
  <text
     x="723.09003"
     y="-3875.54"
     transform="scale(4.0128,0.2492)"
     id="text60"
     style="font-size:46.95399857px;text-anchor:middle;font-family:Arial" />
  <text
     x="277.98999"
     y="535.94"
     id="text62"
     style="font-size:208.33000183px;line-height:125%;letter-spacing:0;word-spacing:0;font-family:Gentium Book Basic">
    <tspan
       x="277.98999"
       y="535.94"
       id="tspan64" />
  </text>
  <g
     id="g66"
     style="fill:#ffffff">
    <path
       d="m 161.75,95.38 c -16.628,0 -29.969,13.403 -29.969,30.03 V 386.6 c 0,16.628 13.341,30.03 29.969,30.03 h 188.47 c 16.628,0 30,-13.403 30,-30.03 V 125.41 c 0,-16.628 -13.372,-30.03 -30,-30.03 H 161.75 m 7.906,22.22 h 172.69 c 8.935,0 16.13,7.159 16.13,16.09 v 244.56 c 0,8.935 -7.19,16.13 -16.12,16.13 h -172.69 c -8.935,0 -16.16,-7.19 -16.16,-16.12 V 133.7 c 0,-8.935 7.222,-16.09 16.16,-16.09"
       inkscape:connector-curvature="0"
       id="path68" />
    <g
       transform="matrix(0.80326,0,0,0.80326,50.37,65.21)"
       id="g70">
      <path
         d="m 294.59,361.53 c 0,19.557 -15.854,35.411 -35.411,35.411 -19.557,0 -35.411,-15.854 -35.411,-35.411 0,-19.557 15.854,-35.411 35.411,-35.411 19.557,0 35.411,15.854 35.411,35.411"
         inkscape:connector-curvature="0"
         id="0"
         style="fill:#ffffff;fill-rule:evenodd" />
      <g
         id="g73"
         style="fill-rule:evenodd">
        <path
           d="m 290.19,126.79 -61.35,0.35 30.346,-49.03 z"
           inkscape:connector-curvature="0"
           id="path75" />
        <path
           d="m 246.83,118.22 h 24.695 V 335.44 H 246.83 z"
           inkscape:connector-curvature="0"
           id="path77" />
        <path
           d="m 188.58,259.79 17.462,-17.462 64.18,64.18 -17.462,17.462 z"
           inkscape:connector-curvature="0"
           id="path79" />
        <path
           d="m 188.58,178.58 h 24.695 v 81.21 H 188.58 z"
           inkscape:connector-curvature="0"
           id="path81" />
      </g>
      <use
         transform="matrix(0.74554,0,0,0.74554,7.698,-74.867)"
         id="use83"
         x="0"
         y="0"
         width="512"
         height="512"
         xlink:href="#0" />
      <g
         id="g85"
         style="fill-rule:evenodd">
        <path
           d="m 328.28,216.41 -17.462,-17.462 -64.18,64.18 17.462,17.462 z"
           inkscape:connector-curvature="0"
           id="path87" />
        <path
           d="m 328.28,135.2 h -24.695 v 81.21 h 24.695 z"
           inkscape:connector-curvature="0"
           id="path89" />
        <path
           d="m 294.38,131.25 h 43.09 v 40.888 h -43.09 z"
           inkscape:connector-curvature="0"
           id="path91" />
      </g>
    </g>
  </g>
</svg>
