<?xml version="1.0" encoding="UTF-8" standalone="no"?>
<!-- Created with Inkscape (http://www.inkscape.org/) -->

<svg
   xmlns:dc="http://purl.org/dc/elements/1.1/"
   xmlns:cc="http://creativecommons.org/ns#"
   xmlns:rdf="http://www.w3.org/1999/02/22-rdf-syntax-ns#"
   xmlns:svg="http://www.w3.org/2000/svg"
   xmlns="http://www.w3.org/2000/svg"
   xmlns:inkscape="http://www.inkscape.org/namespaces/inkscape"
   version="1.1"
   width="100%"
   height="100%"
   viewBox="0 0 512 512"
   id="svg2">
  <metadata
     id="metadata456">
    <rdf:RDF>
      <cc:Work
         rdf:about="">
        <dc:format>image/svg+xml</dc:format>
        <dc:type
           rdf:resource="http://purl.org/dc/dcmitype/StillImage" />
      </cc:Work>
    </rdf:RDF>
  </metadata>
  <defs
     id="defs4" />
  <text
     x="729.64001"
     y="231.36"
     id="text34"
     style="font-size:129.22999573px;line-height:125%;letter-spacing:0;word-spacing:0;font-family:Gentium Book Basic">
    <tspan
       x="729.64001"
       y="231.36"
       id="tspan36" />
  </text>
  <text
     x="378.91"
     y="579.25"
     transform="scale(4.0128,0.2492)"
     id="text38"
     style="font-size:46.95399857px;text-anchor:middle;font-family:Arial" />
  <text
     x="1310.91"
     y="151.36"
     id="text40"
     style="font-size:129.22999573px;line-height:125%;letter-spacing:0;word-spacing:0;font-family:Gentium Book Basic">
    <tspan
       x="1310.91"
       y="151.36"
       id="tspan42" />
  </text>
  <text
     x="523.76001"
     y="258.22"
     transform="scale(4.0128,0.2492)"
     id="text44"
     style="font-size:46.95399857px;text-anchor:middle;font-family:Arial" />
  <text
     x="239.33"
     y="-29.900999"
     id="text46"
     style="font-size:129.22999573px;line-height:125%;letter-spacing:0;word-spacing:0;font-family:Gentium Book Basic">
    <tspan
       x="239.33"
       y="-29.900999"
       id="tspan48" />
  </text>
  <text
     x="256.72"
     y="-469.14001"
     transform="scale(4.0128,0.2492)"
     id="text50"
     style="font-size:46.95399857px;text-anchor:middle;font-family:Arial" />
  <text
     x="1337.38"
     y="-246.37"
     id="text52"
     style="font-size:129.22999573px;line-height:125%;letter-spacing:0;word-spacing:0;font-family:Gentium Book Basic">
    <tspan
       x="1337.38"
       y="-246.37"
       id="tspan54" />
  </text>
  <text
     x="530.35999"
     y="-1337.8101"
     transform="scale(4.0128,0.2492)"
     id="text56"
     style="font-size:46.95399857px;text-anchor:middle;font-family:Arial" />
  <text
     x="1918.65"
     y="-326.38"
     id="text58"
     style="font-size:129.22999573px;line-height:125%;letter-spacing:0;word-spacing:0;font-family:Gentium Book Basic">
    <tspan
       x="1918.65"
       y="-326.38"
       id="tspan60" />
  </text>
  <text
     x="675.21002"
     y="-1658.85"
     transform="scale(4.0128,0.2492)"
     id="text62"
     style="font-size:46.95399857px;text-anchor:middle;font-family:Arial" />
  <text
     x="1529.53"
     y="-798.78003"
     id="text64"
     style="font-size:129.22999573px;line-height:125%;letter-spacing:0;word-spacing:0;font-family:Gentium Book Basic">
    <tspan
       x="1529.53"
       y="-798.78003"
       id="tspan66" />
  </text>
  <text
     x="578.23999"
     y="-3554.51"
     transform="scale(4.0128,0.2492)"
     id="text68"
     style="font-size:46.95399857px;text-anchor:middle;font-family:Arial" />
  <text
     x="2110.79"
     y="-878.78003"
     id="text70"
     style="font-size:129.22999573px;line-height:125%;letter-spacing:0;word-spacing:0;font-family:Gentium Book Basic">
    <tspan
       x="2110.79"
       y="-878.78003"
       id="tspan72" />
  </text>
  <text
     x="723.09003"
     y="-3875.54"
     transform="scale(4.0128,0.2492)"
     id="text74"
     style="font-size:46.95399857px;text-anchor:middle;font-family:Arial" />
  <g
     id="g76"
     style="line-height:125%;letter-spacing:0;word-spacing:0;font-family:Gentium Book Basic">
    <text
       x="277.98999"
       y="535.94"
       id="text78"
       style="font-size:208.33000183px">
      <tspan
         x="277.98999"
         y="535.94"
         id="tspan80" />
    </text>
    <text
       x="-307.17999"
       y="-11.341"
       id="text82"
       style="font-size:200px">
      <tspan
         x="-307.17999"
         y="-11.341"
         id="tspan84" />
    </text>
  </g>
  <text
     x="228.47"
     y="-585.88"
     transform="scale(4.0128,0.2492)"
     id="text86"
     style="font-size:72.66999817px;text-anchor:middle;font-family:Arial" />
  <text
     x="438.20001"
     y="41.801998"
     id="text88"
     style="font-size:200px;line-height:125%;letter-spacing:0;word-spacing:0;font-family:Gentium Book Basic">
    <tspan
       x="438.20001"
       y="41.801998"
       id="tspan90" />
  </text>
  <text
     x="414.22"
     y="-372.63"
     transform="scale(4.0128,0.2492)"
     id="text92"
     style="font-size:72.66999817px;text-anchor:middle;font-family:Arial" />
  <text
     x="1337.8101"
     y="-82.019997"
     id="text94"
     style="font-size:200px;line-height:125%;letter-spacing:0;word-spacing:0;font-family:Gentium Book Basic">
    <tspan
       x="1337.8101"
       y="-82.019997"
       id="tspan96" />
  </text>
  <text
     x="638.40002"
     y="-869.48999"
     transform="scale(4.0128,0.2492)"
     id="text98"
     style="font-size:72.66999817px;text-anchor:middle;font-family:Arial" />
  <text
     x="465.66"
     y="-134.64999"
     id="text100"
     style="font-size:200px;line-height:125%;letter-spacing:0;word-spacing:0;font-family:Gentium Book Basic">
    <tspan
       x="465.66"
       y="-134.64999"
       id="tspan102" />
  </text>
  <text
     x="421.06"
     y="-1080.71"
     transform="scale(4.0128,0.2492)"
     id="text104"
     style="font-size:72.66999817px;text-anchor:middle;font-family:Arial" />
  <text
     x="1365.27"
     y="-258.47"
     id="text106"
     style="font-size:200px;line-height:125%;letter-spacing:0;word-spacing:0;font-family:Gentium Book Basic">
    <tspan
       x="1365.27"
       y="-258.47"
       id="tspan108" />
  </text>
  <text
     x="645.23999"
     y="-1577.5699"
     transform="scale(4.0128,0.2492)"
     id="text110"
     style="font-size:72.66999817px;text-anchor:middle;font-family:Arial" />
  <text
     x="-2544.3201"
     y="317.23001"
     id="text112"
     style="font-size:200px;line-height:125%;letter-spacing:0;word-spacing:0;font-family:Gentium Book Basic">
    <tspan
       x="-2544.3201"
       y="317.23001"
       id="tspan114" />
  </text>
  <text
     x="-329.03"
     y="732.62"
     transform="scale(4.0128,0.2492)"
     id="text116"
     style="font-size:72.66999817px;text-anchor:middle;font-family:Arial" />
  <text
     x="-616.03998"
     y="81.800003"
     id="text118"
     style="font-size:200px;line-height:125%;letter-spacing:0;word-spacing:0;font-family:Gentium Book Basic">
    <tspan
       x="-616.03998"
       y="81.800003"
       id="tspan120" />
  </text>
  <text
     x="151.5"
     y="-212.12"
     transform="scale(4.0128,0.2492)"
     id="text122"
     style="font-size:72.66999817px;text-anchor:middle;font-family:Arial" />
  <text
     x="129.34"
     y="134.94"
     id="text124"
     style="font-size:200px;line-height:125%;letter-spacing:0;word-spacing:0;font-family:Gentium Book Basic">
    <tspan
       x="129.34"
       y="134.94"
       id="tspan126" />
  </text>
  <text
     x="337.25"
     y="1.138"
     transform="scale(4.0128,0.2492)"
     id="text128"
     style="font-size:72.66999817px;text-anchor:middle;font-family:Arial" />
  <text
     x="1028.95"
     y="11.127"
     id="text130"
     style="font-size:200px;line-height:125%;letter-spacing:0;word-spacing:0;font-family:Gentium Book Basic">
    <tspan
       x="1028.95"
       y="11.127"
       id="tspan132" />
  </text>
  <text
     x="561.42999"
     y="-495.72"
     transform="scale(4.0128,0.2492)"
     id="text134"
     style="font-size:72.66999817px;text-anchor:middle;font-family:Arial" />
  <text
     x="156.8"
     y="-41.509998"
     id="text136"
     style="font-size:200px;line-height:125%;letter-spacing:0;word-spacing:0;font-family:Gentium Book Basic">
    <tspan
       x="156.8"
       y="-41.509998"
       id="tspan138" />
  </text>
  <text
     x="344.09"
     y="-706.95001"
     transform="scale(4.0128,0.2492)"
     id="text140"
     style="font-size:72.66999817px;text-anchor:middle;font-family:Arial" />
  <text
     x="1056.42"
     y="-165.33"
     id="text142"
     style="font-size:200px;line-height:125%;letter-spacing:0;word-spacing:0;font-family:Gentium Book Basic">
    <tspan
       x="1056.42"
       y="-165.33"
       id="tspan144" />
  </text>
  <text
     x="568.28003"
     y="-1203.8101"
     transform="scale(4.0128,0.2492)"
     id="text146"
     style="font-size:72.66999817px;text-anchor:middle;font-family:Arial" />
  <text
     x="-2853.1799"
     y="410.37"
     id="text148"
     style="font-size:200px;line-height:125%;letter-spacing:0;word-spacing:0;font-family:Gentium Book Basic">
    <tspan
       x="-2853.1799"
       y="410.37"
       id="tspan150" />
  </text>
  <text
     x="-406"
     y="1106.39"
     transform="scale(4.0128,0.2492)"
     id="text152"
     style="font-size:72.66999817px;text-anchor:middle;font-family:Arial" />
  <text
     x="-1330.61"
     y="-35.060001"
     id="text154"
     style="font-size:200px;line-height:125%;letter-spacing:0;word-spacing:0;font-family:Gentium Book Basic">
    <tspan
       x="-1330.61"
       y="-35.060001"
       id="tspan156" />
  </text>
  <text
     x="-26.570999"
     y="-681.03998"
     transform="scale(4.0128,0.2492)"
     id="text158"
     style="font-size:72.66999817px;text-anchor:middle;font-family:Arial" />
  <text
     x="-585.22998"
     y="18.09"
     id="text160"
     style="font-size:200px;line-height:125%;letter-spacing:0;word-spacing:0;font-family:Gentium Book Basic">
    <tspan
       x="-585.22998"
       y="18.09"
       id="tspan162" />
  </text>
  <text
     x="159.17999"
     y="-467.79001"
     transform="scale(4.0128,0.2492)"
     id="text164"
     style="font-size:72.66999817px;text-anchor:middle;font-family:Arial" />
  <text
     x="314.38"
     y="-105.73"
     id="text166"
     style="font-size:200px;line-height:125%;letter-spacing:0;word-spacing:0;font-family:Gentium Book Basic">
    <tspan
       x="314.38"
       y="-105.73"
       id="tspan168" />
  </text>
  <text
     x="383.35999"
     y="-964.65002"
     transform="scale(4.0128,0.2492)"
     id="text170"
     style="font-size:72.66999817px;text-anchor:middle;font-family:Arial" />
  <text
     x="-557.77002"
     y="-158.37"
     id="text172"
     style="font-size:200px;line-height:125%;letter-spacing:0;word-spacing:0;font-family:Gentium Book Basic">
    <tspan
       x="-557.77002"
       y="-158.37"
       id="tspan174" />
  </text>
  <text
     x="166.02"
     y="-1175.88"
     transform="scale(4.0128,0.2492)"
     id="text176"
     style="font-size:72.66999817px;text-anchor:middle;font-family:Arial" />
  <text
     x="341.85001"
     y="-282.17999"
     id="text178"
     style="font-size:200px;line-height:125%;letter-spacing:0;word-spacing:0;font-family:Gentium Book Basic">
    <tspan
       x="341.85001"
       y="-282.17999"
       id="tspan180" />
  </text>
  <text
     x="390.20001"
     y="-1672.73"
     transform="scale(4.0128,0.2492)"
     id="text182"
     style="font-size:72.66999817px;text-anchor:middle;font-family:Arial" />
  <text
     x="-3567.75"
     y="293.51999"
     id="text184"
     style="font-size:200px;line-height:125%;letter-spacing:0;word-spacing:0;font-family:Gentium Book Basic">
    <tspan
       x="-3567.75"
       y="293.51999"
       id="tspan186" />
  </text>
  <text
     x="-584.07001"
     y="637.46002"
     transform="scale(4.0128,0.2492)"
     id="text188"
     style="font-size:72.66999817px;text-anchor:middle;font-family:Arial" />
  <g
     id="g190"
     style="fill-rule:evenodd">
    <path
       d="m 471.95,253.05 c 0,120.9 -98.01,218.9 -218.9,218.9 -120.9,0 -218.9,-98.01 -218.9,-218.9 0,-120.9 98.01,-218.9 218.9,-218.9 120.9,0 218.9,98.01 218.9,218.9"
       inkscape:connector-curvature="0"
       id="path192"
       style="fill:#f68d5c" />
    <path
       d="m 252.56,105.69 c -72.04,0.287 -137.95,59.39 -145.62,131.19 -7.337,50.96 15.03,102.8 53.5,136.09 33.02,32.891 65.918,65.89 98.84,98.88 115.91,-3.247 209.28,-96.59 212.56,-212.5 -39.42,-39.587 -78.8,-79.23 -118.87,-118.12 -26.788,-22.824 -61.769,-35.649 -96.97,-35.5 -1.146,-0.025 -2.294,-0.036 -3.438,-0.031"
       inkscape:connector-curvature="0"
       id="path194"
       style="fill-opacity:0.23500001" />
    <path
       d="M 256,1 C 115.17,1 1,115.17 1,256 1,396.83 115.17,511 256,511 396.83,511 511,396.83 511,256 511,115.17 396.83,1 256,1 m 8.827,44.931 c 120.9,0 218.9,98 218.9,218.9 0,120.9 -98,218.9 -218.9,218.9 -120.9,0 -218.93,-98 -218.93,-218.9 0,-120.9 98.03,-218.9 218.93,-218.9"
       inkscape:connector-curvature="0"
       id="path196"
       style="fill-opacity:0.06700003" />
    <g
       id="g198"
       style="fill-opacity:0.12900002">
      <path
         d="m 256,4.433 c -138.94,0 -251.57,112.63 -251.57,251.57 0,138.94 112.63,251.57 251.57,251.57 138.94,0 251.57,-112.63 251.57,-251.57 C 507.57,117.063 394.94,4.433 256,4.433 m 5.885,38.556 c 120.9,0 218.9,98 218.9,218.9 0,120.9 -98,218.9 -218.9,218.9 -120.9,0 -218.93,-98 -218.93,-218.9 0,-120.9 98.03,-218.9 218.93,-218.9"
         inkscape:connector-curvature="0"
         id="path200" />
      <path
         d="m 256,8.356 c -136.77,0 -247.64,110.87 -247.64,247.64 0,136.77 110.87,247.64 247.64,247.64 136.77,0 247.64,-110.87 247.64,-247.64 C 503.64,119.226 392.77,8.356 256,8.356 m 2.942,31.691 c 120.9,0 218.9,98 218.9,218.9 0,120.9 -98,218.9 -218.9,218.9 -120.9,0 -218.93,-98 -218.93,-218.9 0,-120.9 98.03,-218.9 218.93,-218.9"
         inkscape:connector-curvature="0"
         id="path202" />
    </g>
    <path
       d="m 253.04,7.859 c -135.42,0 -245.19,109.78 -245.19,245.19 0,135.42 109.78,245.19 245.19,245.19 135.42,0 245.19,-109.78 245.19,-245.19 0,-135.42 -109.78,-245.19 -245.19,-245.19 z m 0,26.297 c 120.9,0 218.9,98 218.9,218.9 0,120.9 -98,218.9 -218.9,218.9 -120.9,0 -218.93,-98 -218.93,-218.9 0,-120.9 98.03,-218.9 218.93,-218.9 z"
       inkscape:connector-curvature="0"
       id="path204"
       style="fill:#ffffff;stroke:#000000;stroke-width:4.90399981;stroke-opacity:0.31000001" />
  </g>
  <text
     x="729.64001"
     y="231.36"
     id="text206"
     style="font-size:129.22999573px;line-height:125%;letter-spacing:0;word-spacing:0;font-family:Gentium Book Basic">
    <tspan
       x="729.64001"
       y="231.36"
       id="tspan208" />
  </text>
  <text
     x="378.91"
     y="579.25"
     transform="scale(4.0128,0.2492)"
     id="text210"
     style="font-size:46.95399857px;text-anchor:middle;font-family:Arial" />
  <text
     x="1310.91"
     y="151.36"
     id="text212"
     style="font-size:129.22999573px;line-height:125%;letter-spacing:0;word-spacing:0;font-family:Gentium Book Basic">
    <tspan
       x="1310.91"
       y="151.36"
       id="tspan214" />
  </text>
  <text
     x="523.76001"
     y="258.22"
     transform="scale(4.0128,0.2492)"
     id="text216"
     style="font-size:46.95399857px;text-anchor:middle;font-family:Arial" />
  <text
     x="239.33"
     y="-29.900999"
     id="text218"
     style="font-size:129.22999573px;line-height:125%;letter-spacing:0;word-spacing:0;font-family:Gentium Book Basic">
    <tspan
       x="239.33"
       y="-29.900999"
       id="tspan220" />
  </text>
  <text
     x="256.72"
     y="-469.14001"
     transform="scale(4.0128,0.2492)"
     id="text222"
     style="font-size:46.95399857px;text-anchor:middle;font-family:Arial" />
  <text
     x="1337.38"
     y="-246.37"
     id="text224"
     style="font-size:129.22999573px;line-height:125%;letter-spacing:0;word-spacing:0;font-family:Gentium Book Basic">
    <tspan
       x="1337.38"
       y="-246.37"
       id="tspan226" />
  </text>
  <text
     x="530.35999"
     y="-1337.8"
     transform="scale(4.0128,0.2492)"
     id="text228"
     style="font-size:46.95399857px;text-anchor:middle;font-family:Arial" />
  <text
     x="1918.65"
     y="-326.38"
     id="text230"
     style="font-size:129.22999573px;line-height:125%;letter-spacing:0;word-spacing:0;font-family:Gentium Book Basic">
    <tspan
       x="1918.65"
       y="-326.38"
       id="tspan232" />
  </text>
  <text
     x="675.21002"
     y="-1658.84"
     transform="scale(4.0128,0.2492)"
     id="text234"
     style="font-size:46.95399857px;text-anchor:middle;font-family:Arial" />
  <text
     x="1529.53"
     y="-798.78003"
     id="text236"
     style="font-size:129.22999573px;line-height:125%;letter-spacing:0;word-spacing:0;font-family:Gentium Book Basic">
    <tspan
       x="1529.53"
       y="-798.78003"
       id="tspan238" />
  </text>
  <text
     x="578.23999"
     y="-3554.49"
     transform="scale(4.0128,0.2492)"
     id="text240"
     style="font-size:46.95399857px;text-anchor:middle;font-family:Arial" />
  <text
     x="2110.79"
     y="-878.78003"
     id="text242"
     style="font-size:129.22999573px;line-height:125%;letter-spacing:0;word-spacing:0;font-family:Gentium Book Basic">
    <tspan
       x="2110.79"
       y="-878.78003"
       id="tspan244" />
  </text>
  <text
     x="723.09003"
     y="-3875.52"
     transform="scale(4.0128,0.2492)"
     id="text246"
     style="font-size:46.95399857px;text-anchor:middle;font-family:Arial" />
  <g
     id="g248"
     style="line-height:125%;letter-spacing:0;word-spacing:0;font-family:Gentium Book Basic">
    <text
       x="277.98999"
       y="535.94"
       id="text250"
       style="font-size:208.33000183px">
      <tspan
         x="277.98999"
         y="535.94"
         id="tspan252" />
    </text>
    <text
       x="104.96"
       y="227.12"
       id="text254"
       style="font-size:129.22999573px">
      <tspan
         x="104.96"
         y="227.12"
         id="tspan256" />
    </text>
  </g>
  <text
     x="223.24001"
     y="562.22998"
     transform="scale(4.0128,0.2492)"
     id="text258"
     style="font-size:46.95399857px;text-anchor:middle;font-family:Arial" />
  <text
     x="686.22998"
     y="147.11"
     id="text260"
     style="font-size:129.22999573px;line-height:125%;letter-spacing:0;word-spacing:0;font-family:Gentium Book Basic">
    <tspan
       x="686.22998"
       y="147.11"
       id="tspan262" />
  </text>
  <text
     x="368.09"
     y="241.19"
     transform="scale(4.0128,0.2492)"
     id="text264"
     style="font-size:46.95399857px;text-anchor:middle;font-family:Arial" />
  <text
     x="-385.35001"
     y="-34.139999"
     id="text266"
     style="font-size:129.22999573px;line-height:125%;letter-spacing:0;word-spacing:0;font-family:Gentium Book Basic">
    <tspan
       x="-385.35001"
       y="-34.139999"
       id="tspan268" />
  </text>
  <text
     x="101.05"
     y="-486.16"
     transform="scale(4.0128,0.2492)"
     id="text270"
     style="font-size:46.95399857px;text-anchor:middle;font-family:Arial" />
  <text
     x="712.70001"
     y="-250.62"
     id="text272"
     style="font-size:129.22999573px;line-height:125%;letter-spacing:0;word-spacing:0;font-family:Gentium Book Basic">
    <tspan
       x="712.70001"
       y="-250.62"
       id="tspan274" />
  </text>
  <text
     x="374.69"
     y="-1354.84"
     transform="scale(4.0128,0.2492)"
     id="text276"
     style="font-size:46.95399857px;text-anchor:middle;font-family:Arial" />
  <text
     x="1293.97"
     y="-330.62"
     id="text278"
     style="font-size:129.22999573px;line-height:125%;letter-spacing:0;word-spacing:0;font-family:Gentium Book Basic">
    <tspan
       x="1293.97"
       y="-330.62"
       id="tspan280" />
  </text>
  <text
     x="519.53998"
     y="-1675.87"
     transform="scale(4.0128,0.2492)"
     id="text282"
     style="font-size:46.95399857px;text-anchor:middle;font-family:Arial" />
  <text
     x="904.84998"
     y="-803.02002"
     id="text284"
     style="font-size:129.22999573px;line-height:125%;letter-spacing:0;word-spacing:0;font-family:Gentium Book Basic">
    <tspan
       x="904.84998"
       y="-803.02002"
       id="tspan286" />
  </text>
  <text
     x="422.57001"
     y="-3571.53"
     transform="scale(4.0128,0.2492)"
     id="text288"
     style="font-size:46.95399857px;text-anchor:middle;font-family:Arial" />
  <text
     x="1486.12"
     y="-883.02002"
     id="text290"
     style="font-size:129.22999573px;line-height:125%;letter-spacing:0;word-spacing:0;font-family:Gentium Book Basic">
    <tspan
       x="1486.12"
       y="-883.02002"
       id="tspan292" />
  </text>
  <text
     x="567.41998"
     y="-3892.5701"
     transform="scale(4.0128,0.2492)"
     id="text294"
     style="font-size:46.95399857px;text-anchor:middle;font-family:Arial" />
  <g
     id="g296"
     style="line-height:125%;letter-spacing:0;word-spacing:0;font-family:Gentium Book Basic">
    <text
       x="-346.69"
       y="531.69"
       id="text298"
       style="font-size:208.33000183px">
      <tspan
         x="-346.69"
         y="531.69"
         id="tspan300" />
    </text>
    <text
       x="-931.85999"
       y="-15.584"
       id="text302"
       style="font-size:200px">
      <tspan
         x="-931.85999"
         y="-15.584"
         id="tspan304" />
    </text>
  </g>
  <text
     x="72.796997"
     y="-602.90997"
     transform="scale(4.0128,0.2492)"
     id="text306"
     style="font-size:72.66999817px;text-anchor:middle;font-family:Arial" />
  <text
     x="-186.48"
     y="37.558998"
     id="text308"
     style="font-size:200px;line-height:125%;letter-spacing:0;word-spacing:0;font-family:Gentium Book Basic">
    <tspan
       x="-186.48"
       y="37.558998"
       id="tspan310" />
  </text>
  <text
     x="258.54999"
     y="-389.66"
     transform="scale(4.0128,0.2492)"
     id="text312"
     style="font-size:72.66999817px;text-anchor:middle;font-family:Arial" />
  <text
     x="713.13"
     y="-86.260002"
     id="text314"
     style="font-size:200px;line-height:125%;letter-spacing:0;word-spacing:0;font-family:Gentium Book Basic">
    <tspan
       x="713.13"
       y="-86.260002"
       id="tspan316" />
  </text>
  <text
     x="482.73001"
     y="-886.51001"
     transform="scale(4.0128,0.2492)"
     id="text318"
     style="font-size:72.66999817px;text-anchor:middle;font-family:Arial" />
  <text
     x="-159.02"
     y="-138.89999"
     id="text320"
     style="font-size:200px;line-height:125%;letter-spacing:0;word-spacing:0;font-family:Gentium Book Basic">
    <tspan
       x="-159.02"
       y="-138.89999"
       id="tspan322" />
  </text>
  <text
     x="265.39001"
     y="-1097.74"
     transform="scale(4.0128,0.2492)"
     id="text324"
     style="font-size:72.66999817px;text-anchor:middle;font-family:Arial" />
  <text
     x="740.59998"
     y="-262.70999"
     id="text326"
     style="font-size:200px;line-height:125%;letter-spacing:0;word-spacing:0;font-family:Gentium Book Basic">
    <tspan
       x="740.59998"
       y="-262.70999"
       id="tspan328" />
  </text>
  <text
     x="489.57001"
     y="-1594.6"
     transform="scale(4.0128,0.2492)"
     id="text330"
     style="font-size:72.66999817px;text-anchor:middle;font-family:Arial" />
  <text
     x="-3169"
     y="312.98999"
     id="text332"
     style="font-size:200px;line-height:125%;letter-spacing:0;word-spacing:0;font-family:Gentium Book Basic">
    <tspan
       x="-3169"
       y="312.98999"
       id="tspan334" />
  </text>
  <text
     x="-484.70001"
     y="715.59003"
     transform="scale(4.0128,0.2492)"
     id="text336"
     style="font-size:72.66999817px;text-anchor:middle;font-family:Arial" />
  <text
     x="-1240.72"
     y="77.559998"
     id="text338"
     style="font-size:200px;line-height:125%;letter-spacing:0;word-spacing:0;font-family:Gentium Book Basic">
    <tspan
       x="-1240.72"
       y="77.559998"
       id="tspan340" />
  </text>
  <text
     x="-4.1700001"
     y="-229.14"
     transform="scale(4.0128,0.2492)"
     id="text342"
     style="font-size:72.66999817px;text-anchor:middle;font-family:Arial" />
  <text
     x="-495.34"
     y="130.7"
     id="text344"
     style="font-size:200px;line-height:125%;letter-spacing:0;word-spacing:0;font-family:Gentium Book Basic">
    <tspan
       x="-495.34"
       y="130.7"
       id="tspan346" />
  </text>
  <text
     x="181.58"
     y="-15.889"
     transform="scale(4.0128,0.2492)"
     id="text348"
     style="font-size:72.66999817px;text-anchor:middle;font-family:Arial" />
  <text
     x="404.26999"
     y="6.8839998"
     id="text350"
     style="font-size:200px;line-height:125%;letter-spacing:0;word-spacing:0;font-family:Gentium Book Basic">
    <tspan
       x="404.26999"
       y="6.8839998"
       id="tspan352" />
  </text>
  <text
     x="405.76001"
     y="-512.75"
     transform="scale(4.0128,0.2492)"
     id="text354"
     style="font-size:72.66999817px;text-anchor:middle;font-family:Arial" />
  <text
     x="-467.88"
     y="-45.754002"
     id="text356"
     style="font-size:200px;line-height:125%;letter-spacing:0;word-spacing:0;font-family:Gentium Book Basic">
    <tspan
       x="-467.88"
       y="-45.754002"
       id="tspan358" />
  </text>
  <text
     x="188.42"
     y="-723.96997"
     transform="scale(4.0128,0.2492)"
     id="text360"
     style="font-size:72.66999817px;text-anchor:middle;font-family:Arial" />
  <text
     x="431.73999"
     y="-169.57001"
     id="text362"
     style="font-size:200px;line-height:125%;letter-spacing:0;word-spacing:0;font-family:Gentium Book Basic">
    <tspan
       x="431.73999"
       y="-169.57001"
       id="tspan364" />
  </text>
  <text
     x="412.60999"
     y="-1220.83"
     transform="scale(4.0128,0.2492)"
     id="text366"
     style="font-size:72.66999817px;text-anchor:middle;font-family:Arial" />
  <text
     x="-3477.8601"
     y="406.13"
     id="text368"
     style="font-size:200px;line-height:125%;letter-spacing:0;word-spacing:0;font-family:Gentium Book Basic">
    <tspan
       x="-3477.8601"
       y="406.13"
       id="tspan370" />
  </text>
  <text
     x="-561.66998"
     y="1089.36"
     transform="scale(4.0128,0.2492)"
     id="text372"
     style="font-size:72.66999817px;text-anchor:middle;font-family:Arial" />
  <text
     x="-1955.29"
     y="-39.299999"
     id="text374"
     style="font-size:200px;line-height:125%;letter-spacing:0;word-spacing:0;font-family:Gentium Book Basic">
    <tspan
       x="-1955.29"
       y="-39.299999"
       id="tspan376" />
  </text>
  <text
     x="-182.24001"
     y="-698.07001"
     transform="scale(4.0128,0.2492)"
     id="text378"
     style="font-size:72.66999817px;text-anchor:middle;font-family:Arial" />
  <text
     x="-1209.91"
     y="13.844"
     id="text380"
     style="font-size:200px;line-height:125%;letter-spacing:0;word-spacing:0;font-family:Gentium Book Basic">
    <tspan
       x="-1209.91"
       y="13.844"
       id="tspan382" />
  </text>
  <text
     x="3.507"
     y="-484.82001"
     transform="scale(4.0128,0.2492)"
     id="text384"
     style="font-size:72.66999817px;text-anchor:middle;font-family:Arial" />
  <text
     x="-310.29999"
     y="-109.97"
     id="text386"
     style="font-size:200px;line-height:125%;letter-spacing:0;word-spacing:0;font-family:Gentium Book Basic">
    <tspan
       x="-310.29999"
       y="-109.97"
       id="tspan388" />
  </text>
  <text
     x="227.69"
     y="-981.67999"
     transform="scale(4.0128,0.2492)"
     id="text390"
     style="font-size:72.66999817px;text-anchor:middle;font-family:Arial" />
  <text
     x="-1182.45"
     y="-162.61"
     id="text392"
     style="font-size:200px;line-height:125%;letter-spacing:0;word-spacing:0;font-family:Gentium Book Basic">
    <tspan
       x="-1182.45"
       y="-162.61"
       id="tspan394" />
  </text>
  <text
     x="10.351"
     y="-1192.9"
     transform="scale(4.0128,0.2492)"
     id="text396"
     style="font-size:72.66999817px;text-anchor:middle;font-family:Arial" />
  <text
     x="-282.82999"
     y="-286.42999"
     id="text398"
     style="font-size:200px;line-height:125%;letter-spacing:0;word-spacing:0;font-family:Gentium Book Basic">
    <tspan
       x="-282.82999"
       y="-286.42999"
       id="tspan400" />
  </text>
  <text
     x="234.53999"
     y="-1689.76"
     transform="scale(4.0128,0.2492)"
     id="text402"
     style="font-size:72.66999817px;text-anchor:middle;font-family:Arial" />
  <text
     x="-4192.4302"
     y="289.26999"
     id="text404"
     style="font-size:200px;line-height:125%;letter-spacing:0;word-spacing:0;font-family:Gentium Book Basic">
    <tspan
       x="-4192.4302"
       y="289.26999"
       id="tspan406" />
  </text>
  <text
     x="-739.73999"
     y="620.42999"
     transform="scale(4.0128,0.2492)"
     id="text408"
     style="font-size:72.66999817px;text-anchor:middle;font-family:Arial" />
  <g
     id="g410"
     style="fill:#ffffff">
    <path
       d="m 256,105.72 c -82.998,0 -150.28,67.28 -150.28,150.28 0,75.55 55.763,138.08 128.38,148.69 l -0.094,-2.469 -2.719,-71.75 -27.469,57.844 c -1.117,-0.437 -2.235,-0.846 -3.344,-1.313 -1.101,-0.462 -2.19,-0.947 -3.281,-1.438 -2.193,-0.988 -4.319,-2.02 -6.469,-3.125 -1.063,-0.545 -2.136,-1.145 -3.188,-1.719 -0.009,-0.003 -0.024,0.003 -0.031,0 -1.059,-0.578 -2.078,-1.143 -3.125,-1.75 -2.1,-1.218 -4.17,-2.478 -6.219,-3.813 -1.021,-0.665 -2.026,-1.337 -3.03,-2.031 -4.04,-2.779 -7.955,-5.785 -11.75,-9.03 -0.942,-0.805 -1.887,-1.635 -2.813,-2.469 -0.005,-0.005 -0.026,0.005 -0.031,0 -0.931,-0.838 -1.836,-1.695 -2.75,-2.563 -0.914,-0.867 -1.823,-1.759 -2.719,-2.656 -4.533,-4.533 -8.675,-9.294 -12.469,-14.25 -0.631,-0.825 -1.233,-1.633 -1.844,-2.469 -5.501,-7.52 -10.189,-15.461 -14.03,-23.688 l 87.81,-50.688 c 0.322,1.399 0.722,2.788 1.188,4.156 0.155,0.456 0.298,0.892 0.469,1.344 1.369,3.618 3.257,7.07 5.656,10.281 0.299,0.4 0.592,0.796 0.906,1.188 0.949,1.18 1.968,2.311 3.063,3.406 0.876,0.876 1.789,1.686 2.719,2.469 l -0.531,-10.938 c -4.475,-5.898 -7.156,-13.244 -7.156,-21.22 0,-19.417 15.744,-35.16 35.16,-35.16 14.681,0 27.24,9 32.5,21.781 2.314,-0.427 4.61,-0.846 6.969,-1.281 -2.053,-5.496 -5.27,-10.677 -9.688,-15.09 -6.05,-6.05 -13.484,-9.857 -21.281,-11.469 l 43.28,-91.16 c 17.756,6.938 34.407,17.563 48.75,31.906 12.07,12.07 21.549,25.785 28.375,40.41 l -73.62,42.5 c 31.89,-5.866 65.05,-11.953 86.59,-16.06 l 4.438,-0.844 c -15.579,-66.38 -75.17,-115.81 -146.31,-115.81"
       inkscape:connector-curvature="0"
       id="path412" />
    <path
       d="m 256,228.63 c -14.427,0 -26.23,11.158 -27.28,25.313 2.407,-0.487 5.111,-1.035 8.313,-1.656 1.73,-8.896 9.567,-15.594 18.969,-15.594 6.855,0 12.883,3.555 16.313,8.938 2.784,-0.517 5.443,-0.994 8.344,-1.531 -4.428,-9.154 -13.806,-15.469 -24.656,-15.469"
       inkscape:connector-curvature="0"
       id="path414" />
  </g>
  <g
     id="g416"
     style="font-size:208.33000183px;line-height:125%;letter-spacing:0;word-spacing:0;font-family:Gentium Book Basic">
    <text
       x="-45.009998"
       y="30.657"
       id="text418">
      <tspan
         x="-45.009998"
         y="30.657"
         id="tspan420" />
    </text>
    <text
       x="-2403.8401"
       y="308.76999"
       id="text422">
      <tspan
         x="-2403.8401"
         y="308.76999"
         id="tspan424" />
    </text>
    <text
       x="-2115.6201"
       y="81.489998"
       id="text426">
      <tspan
         x="-2115.6201"
         y="81.489998"
         id="tspan428" />
    </text>
    <text
       x="2078.98"
       y="-175.41"
       id="text430">
      <tspan
         x="2078.98"
         y="-175.41"
         id="tspan432" />
    </text>
    <text
       x="-48.952999"
       y="-30.377001"
       id="text434">
      <tspan
         x="-48.952999"
         y="-30.377001"
         id="tspan436" />
    </text>
    <text
       x="-2407.78"
       y="247.74001"
       id="text438">
      <tspan
         x="-2407.78"
         y="247.74001"
         id="tspan440" />
    </text>
    <text
       x="-2119.5701"
       y="20.454"
       id="text442">
      <tspan
         x="-2119.5701"
         y="20.454"
         id="tspan444" />
    </text>
  </g>
  <g
     transform="matrix(0.8221,0,0,0.8221,116.75,-347.06)"
     id="g446"
     style="fill:#ffffff;fill-rule:evenodd">
    <path
       d="m 176.91,779.51 -26.682,24.532 4.046,106.91 203.67,-5.719 -4.945,-130.66 -176.09,4.944 m 13.11,49.2 126.03,-3.539 0.281,7.424 -126.03,3.539 -0.281,-7.424 m 1,26.498 126.03,-3.539 0.281,7.424 -126.03,3.539 -0.281,-7.424"
       inkscape:connector-curvature="0"
       id="path448" />
    <path
       d="m 146.56,750.19 1.214,25.12 1.148,23.746 26.423,-24.81 0.762,-0.716 -29.547,-23.338"
       inkscape:connector-curvature="0"
       id="path450" />
    <path
       d="m 145.97,741.14 1.349,4.92 34.16,18.774 -0.59,0.815 171.3,-31.982 -8.092,-29.519 -198.13,36.991 m 42.01,-4.552 21.928,-4.094 14.1,22.755 -21.929,4.094 -14.1,-22.755 m 53.4,-9.97 21.928,-4.094 14.1,22.755 -21.928,4.094 -14.1,-22.755 m 51.34,-9.585 21.928,-4.094 14.1,22.755 -21.929,4.094 -14.1,-22.755"
       inkscape:connector-curvature="0"
       id="path452" />
  </g>
</svg>
