<?xml version="1.0" encoding="UTF-8" standalone="no"?>
<!-- Created with Inkscape (http://www.inkscape.org/) -->

<svg
   xmlns:dc="http://purl.org/dc/elements/1.1/"
   xmlns:cc="http://creativecommons.org/ns#"
   xmlns:rdf="http://www.w3.org/1999/02/22-rdf-syntax-ns#"
   xmlns:svg="http://www.w3.org/2000/svg"
   xmlns="http://www.w3.org/2000/svg"
   xmlns:inkscape="http://www.inkscape.org/namespaces/inkscape"
   version="1.1"
   width="100%"
   height="100%"
   viewBox="0 0 512 512"
   id="svg2">
  <metadata
     id="metadata36">
    <rdf:RDF>
      <cc:Work
         rdf:about="">
        <dc:format>image/svg+xml</dc:format>
        <dc:type
           rdf:resource="http://purl.org/dc/dcmitype/StillImage" />
        <dc:title />
      </cc:Work>
    </rdf:RDF>
  </metadata>
  <defs
     id="defs34" />
  <text
     x="-109.95321"
     y="148.91933"
     id="text3031"
     style="font-size:129.22999573px;line-height:125%;letter-spacing:0;word-spacing:0;font-family:Gentium Book Basic">
    <tspan
       x="-109.95321"
       y="148.91933"
       id="tspan3033" />
  </text>
  <text
     x="169.68036"
     y="248.42738"
     transform="scale(4.0128205,0.24920128)"
     id="text3035"
     style="font-size:46.95375824px;text-anchor:middle;font-family:Arial" />
  <text
     x="471.3168"
     y="68.919319"
     id="text3037"
     style="font-size:129.22999573px;line-height:125%;letter-spacing:0;word-spacing:0;font-family:Gentium Book Basic">
    <tspan
       x="471.3168"
       y="68.919319"
       id="tspan3039" />
  </text>
  <text
     x="314.52963"
     y="-72.600967"
     transform="scale(4.0128205,0.24920128)"
     id="text3041"
     style="font-size:46.95375824px;text-anchor:middle;font-family:Arial" />
  <text
     x="-600.26324"
     y="-112.34167"
     id="text3043"
     style="font-size:129.22999573px;line-height:125%;letter-spacing:0;word-spacing:0;font-family:Gentium Book Basic">
    <tspan
       x="-600.26324"
       y="-112.34167"
       id="tspan3045" />
  </text>
  <text
     x="47.490986"
     y="-799.95728"
     transform="scale(4.0128205,0.24920128)"
     id="text3047"
     style="font-size:46.95375824px;text-anchor:middle;font-family:Arial" />
  <text
     x="497.78677"
     y="-328.81067"
     id="text3049"
     style="font-size:129.22999573px;line-height:125%;letter-spacing:0;word-spacing:0;font-family:Gentium Book Basic">
    <tspan
       x="497.78677"
       y="-328.81067"
       id="tspan3051" />
  </text>
  <text
     x="321.12958"
     y="-1668.6228"
     transform="scale(4.0128205,0.24920128)"
     id="text3053"
     style="font-size:46.95375824px;text-anchor:middle;font-family:Arial" />
  <text
     x="1079.0568"
     y="-408.82068"
     id="text3055"
     style="font-size:129.22999573px;line-height:125%;letter-spacing:0;word-spacing:0;font-family:Gentium Book Basic">
    <tspan
       x="1079.0568"
       y="-408.82068"
       id="tspan3057" />
  </text>
  <text
     x="465.97885"
     y="-1989.6611"
     transform="scale(4.0128205,0.24920128)"
     id="text3059"
     style="font-size:46.95375824px;text-anchor:middle;font-family:Arial" />
  <text
     x="689.93683"
     y="-881.2207"
     id="text3061"
     style="font-size:129.22999573px;line-height:125%;letter-spacing:0;word-spacing:0;font-family:Gentium Book Basic">
    <tspan
       x="689.93683"
       y="-881.2207"
       id="tspan3063" />
  </text>
  <text
     x="369.00934"
     y="-3885.3115"
     transform="scale(4.0128205,0.24920128)"
     id="text3065"
     style="font-size:46.95375824px;text-anchor:middle;font-family:Arial" />
  <text
     x="1271.1968"
     y="-961.2207"
     id="text3067"
     style="font-size:129.22999573px;line-height:125%;letter-spacing:0;word-spacing:0;font-family:Gentium Book Basic">
    <tspan
       x="1271.1968"
       y="-961.2207"
       id="tspan3069" />
  </text>
  <text
     x="513.85864"
     y="-4206.3398"
     transform="scale(4.0128205,0.24920128)"
     id="text3071"
     style="font-size:46.95375824px;text-anchor:middle;font-family:Arial" />
  <text
     x="-561.60321"
     y="453.49933"
     id="text3073"
     style="font-size:208.33000183px;line-height:125%;letter-spacing:0;word-spacing:0;font-family:Gentium Book Basic">
    <tspan
       x="-561.60321"
       y="453.49933"
       id="tspan3075" />
  </text>
  <path
     d="M 36.0625,0 C 30.432883,0 25.90625,4.5266327 25.90625,10.15625 l 0,491.6875 C 25.90625,507.47337 30.432883,512 36.0625,512 l 439.875,0 c 5.62962,0 10.15625,-4.52663 10.15625,-10.15625 l 0,-334.09375 L 318.34375,0 36.0625,0 z"
     inkscape:connector-curvature="0"
     id="rect3134"
     style="opacity:0.1;fill:#000000;fill-opacity:1;stroke:none" />
  <path
     d="m 39.0625,3.5 c -5.55265,0 -10.03125,4.4786001 -10.03125,10.03125 l 0,484.9375 c 0,5.55265 4.4786,10.03125 10.03125,10.03125 l 433.875,0 c 5.55265,0 10.03125,-4.4786 10.03125,-10.03125 l 0,-327.84375 L 315.84375,3.5 39.0625,3.5 z"
     inkscape:connector-curvature="0"
     id="rect3910"
     style="opacity:0.1;fill:#000000;fill-opacity:1;stroke:none" />
  <path
     d="m 42.0625,7 c -5.475683,0 -9.875,4.399317 -9.875,9.875 l 0,478.25 c 0,5.47568 4.399317,9.875 9.875,9.875 l 427.875,0 c 5.47568,0 9.875,-4.39932 9.875,-9.875 l 0,-321.65625 L 313.34375,7 42.0625,7 z"
     inkscape:connector-curvature="0"
     id="rect3912"
     style="opacity:0.1;fill:#000000;fill-opacity:1;stroke:none" />
  <path
     d="m 45.0625,10.5 c -5.398715,0 -9.71875,4.351285 -9.71875,9.75 l 0,471.5 c 0,5.39872 4.320035,9.75 9.71875,9.75 l 421.875,0 c 5.39872,0 9.71875,-4.35128 9.71875,-9.75 l 0,-315.4375 L 310.84375,10.5 45.0625,10.5 z"
     inkscape:connector-curvature="0"
     id="rect3914"
     style="fill:#3c3c3c;fill-opacity:1;stroke:none" />
  <path
     d="M 476.65625,176.3125 310.84375,10.5 l 0,156.0625 c 0,5.39872 4.32003,9.75 9.71875,9.75 l 156.09375,0 z"
     inkscape:connector-curvature="0"
     id="path4187"
     style="fill:#ffffff;fill-opacity:0.19607843;stroke:none" />
  <path
     d="M 476.65625,176.3125 310.84375,10.5 l 0,156.0625 c 0,5.39872 4.32003,9.75 9.71875,9.75 l 156.09375,0 z"
     inkscape:connector-curvature="0"
     id="path4190"
     style="fill:#ffffff;fill-opacity:0.19607843;stroke:none" />
  <path
     d="m 316.59375,175.46875 c 10.20892,10.26294 20.67319,20.77366 31.0625,31.21875 l -155.0625,0 42.625,42.625 c -0.0735,0.006 -0.14524,0.0254 -0.21875,0.0312 L 192.34375,206.6875 C 187.58096,203.97829 182.87762,202.76952 178.5,202.71875 164.10519,202.5518 153.09555,214.77643 153.9375,226.5 l -13.09375,-13.09375 c -23.85418,10.93271 -20.6001,27.24266 -9.1875,43 L 114.375,239.125 c -15.235322,19.74404 -23.75631,43.68563 0.75,58.4375 l 3.8125,3.8125 c -5.96222,-4.8629 -12.10269,-9.50503 -18.5,-13.875 l 59.71875,59.71875 c -8.07569,26.3897 -17.00411,52.60748 -23.09375,79.375 8.60552,8.85605 17.24148,17.70285 25.875,26.53125 -0.7556,0.0159 -1.52005,0.0668 -2.28125,0.125 l -30.9375,-30.9375 c -1.64482,12.12443 1.28023,22.13941 6.71875,30.9375 l -8,-8 c 2.95555,3.14915 5.94118,6.26641 8.90625,9.40625 2.53813,3.85675 5.5187,7.48861 8.84375,10.96875 -4.092,-3.93425 -8.18011,-7.88751 -12.28125,-11.8125 16.02339,15.84857 31.9878,31.76034 47.9375,47.6875 l 285.09375,0 c 5.39872,0 9.71875,-4.35128 9.71875,-9.75 l 0,-180.34375 0,-48.0625 0,-87.03125 -156.09375,0 c -1.42198,0 -2.75566,-0.30037 -3.96875,-0.84375 z M 154.0625,473.1875 c 1.6596,1.4892 3.37946,2.94538 5.09375,4.40625 2.15086,2.24613 4.28243,4.50799 6.4375,6.75 -3.84174,-3.71886 -7.68204,-7.44497 -11.53125,-11.15625 z"
     inkscape:connector-curvature="0"
     id="path4634"
     style="font-size:medium;font-style:normal;font-variant:normal;font-weight:normal;font-stretch:normal;text-indent:0;text-align:start;text-decoration:none;line-height:normal;letter-spacing:normal;word-spacing:normal;text-transform:none;direction:ltr;block-progression:tb;writing-mode:lr-tb;text-anchor:start;baseline-shift:baseline;opacity:0.25;color:#000000;fill:#000000;fill-opacity:1;stroke:none;stroke-width:1px;marker:none;visibility:visible;display:inline;overflow:visible;enable-background:accumulate;font-family:Sans;-inkscape-font-specification:Sans" />
  <text
     x="-990.50824"
     y="-43.574726"
     id="text4889"
     style="font-size:208.33332825px;line-height:125%;letter-spacing:0;word-spacing:0;font-family:Gentium Book Basic">
    <tspan
       x="-990.50824"
       y="-43.574726"
       id="tspan4891" />
  </text>
  <text
     x="70.890884"
     y="-737.74774"
     transform="scale(4.0128362,0.2492003)"
     id="text4893"
     style="font-size:75.69770813px;text-anchor:middle;font-family:Arial" />
  <text
     x="-1638.2747"
     y="-811.52643"
     id="text4895"
     style="font-size:208.33332825px;line-height:125%;letter-spacing:0;word-spacing:0;font-family:Gentium Book Basic">
    <tspan
       x="-1638.2747"
       y="-811.52643"
       id="tspan4897" />
  </text>
  <text
     x="-90.5327"
     y="-3819.4121"
     transform="scale(4.0128362,0.2492003)"
     id="text4899"
     style="font-size:75.69770813px;text-anchor:middle;font-family:Arial" />
  <text
     x="-931.93353"
     y="-967.15826"
     id="text4901"
     style="font-size:208.33332825px;line-height:125%;letter-spacing:0;word-spacing:0;font-family:Gentium Book Basic">
    <tspan
       x="-931.93353"
       y="-967.15826"
       id="tspan4903" />
  </text>
  <text
     x="85.487717"
     y="-4443.937"
     transform="scale(4.0128362,0.2492003)"
     id="text4905"
     style="font-size:75.69770813px;text-anchor:middle;font-family:Arial" />
  <path
     d="m 72.273742,108.77156 c 37.202398,-14.403826 65.558998,-13.860339 87.439198,1.38263 19.34028,-22.849516 61.08528,-31.632116 74.48788,-30.097396 -40.04244,-14.88039 -71.46338,0.0768 -78.25398,10.07896 -22.228,-9.76469 -72.026198,-0.91795 -83.673098,18.635806 z"
     inkscape:connector-curvature="0"
     id="path4909"
     style="fill:#ffffff" />
  <path
     d="m 134.74984,56.811934 c 26.6167,-7.34838 50.22932,-7.97939 66.96978,1.48807 15.64867,-12.54076 47.96698,-17.08092 58.1855,-16.11157 -36.72475,-7.58821 -52.91187,-0.62975 -60.81108,4.17374 -23.59673,-5.20087 -46.2036,-4.7866 -64.3442,10.44976 z"
     inkscape:connector-curvature="0"
     id="path4911"
     style="fill:#ffffff" />
  <text
     x="-34.020966"
     y="244.37695"
     id="text3052"
     style="font-size:129.22999573px;line-height:125%;letter-spacing:0;word-spacing:0;font-family:Gentium Book Basic">
    <tspan
       x="-34.020966"
       y="244.37695"
       id="tspan3054" />
  </text>
  <text
     x="188.60277"
     y="631.48175"
     transform="scale(4.0128205,0.24920128)"
     id="text3056"
     style="font-size:46.95375824px;text-anchor:middle;font-family:Arial" />
  <text
     x="547.24908"
     y="164.37695"
     id="text3058"
     style="font-size:129.22999573px;line-height:125%;letter-spacing:0;word-spacing:0;font-family:Gentium Book Basic">
    <tspan
       x="547.24908"
       y="164.37695"
       id="tspan3060" />
  </text>
  <text
     x="333.45203"
     y="310.45337"
     transform="scale(4.0128205,0.24920128)"
     id="text3062"
     style="font-size:46.95375824px;text-anchor:middle;font-family:Arial" />
  <text
     x="-524.33099"
     y="-16.884045"
     id="text3064"
     style="font-size:129.22999573px;line-height:125%;letter-spacing:0;word-spacing:0;font-family:Gentium Book Basic">
    <tspan
       x="-524.33099"
       y="-16.884045"
       id="tspan3066" />
  </text>
  <text
     x="66.413399"
     y="-416.90292"
     transform="scale(4.0128205,0.24920128)"
     id="text3068"
     style="font-size:46.95375824px;text-anchor:middle;font-family:Arial" />
  <text
     x="573.71906"
     y="-233.35304"
     id="text3070"
     style="font-size:129.22999573px;line-height:125%;letter-spacing:0;word-spacing:0;font-family:Gentium Book Basic">
    <tspan
       x="573.71906"
       y="-233.35304"
       id="tspan3072" />
  </text>
  <text
     x="340.05197"
     y="-1285.5685"
     transform="scale(4.0128205,0.24920128)"
     id="text3074"
     style="font-size:46.95375824px;text-anchor:middle;font-family:Arial" />
  <text
     x="1154.989"
     y="-313.36304"
     id="text3076"
     style="font-size:129.22999573px;line-height:125%;letter-spacing:0;word-spacing:0;font-family:Gentium Book Basic">
    <tspan
       x="1154.989"
       y="-313.36304"
       id="tspan3078" />
  </text>
  <text
     x="484.90128"
     y="-1606.6068"
     transform="scale(4.0128205,0.24920128)"
     id="text3080"
     style="font-size:46.95375824px;text-anchor:middle;font-family:Arial" />
  <text
     x="765.86908"
     y="-785.76306"
     id="text3082"
     style="font-size:129.22999573px;line-height:125%;letter-spacing:0;word-spacing:0;font-family:Gentium Book Basic">
    <tspan
       x="765.86908"
       y="-785.76306"
       id="tspan3084" />
  </text>
  <text
     x="387.93173"
     y="-3502.2571"
     transform="scale(4.0128205,0.24920128)"
     id="text3086"
     style="font-size:46.95375824px;text-anchor:middle;font-family:Arial" />
  <text
     x="1347.129"
     y="-865.76306"
     id="text3088"
     style="font-size:129.22999573px;line-height:125%;letter-spacing:0;word-spacing:0;font-family:Gentium Book Basic">
    <tspan
       x="1347.129"
       y="-865.76306"
       id="tspan3090" />
  </text>
  <text
     x="532.78101"
     y="-3823.2854"
     transform="scale(4.0128205,0.24920128)"
     id="text3092"
     style="font-size:46.95375824px;text-anchor:middle;font-family:Arial" />
  <text
     x="-485.67099"
     y="548.95697"
     id="text3094"
     style="font-size:208.33000183px;line-height:125%;letter-spacing:0;word-spacing:0;font-family:Gentium Book Basic">
    <tspan
       x="-485.67099"
       y="548.95697"
       id="tspan3096" />
  </text>
  <text
     x="-38.247757"
     y="217.7473"
     id="text3083"
     style="font-size:129.22999573px;line-height:125%;letter-spacing:0;word-spacing:0;font-family:Gentium Book Basic">
    <tspan
       x="-38.247757"
       y="217.7473"
       id="tspan3085" />
  </text>
  <text
     x="187.54945"
     y="524.6217"
     transform="scale(4.0128205,0.24920128)"
     id="text3087"
     style="font-size:46.95375824px;text-anchor:middle;font-family:Arial" />
  <text
     x="543.02228"
     y="137.7473"
     id="text3089"
     style="font-size:129.22999573px;line-height:125%;letter-spacing:0;word-spacing:0;font-family:Gentium Book Basic">
    <tspan
       x="543.02228"
       y="137.7473"
       id="tspan3091" />
  </text>
  <text
     x="332.39871"
     y="203.59335"
     transform="scale(4.0128205,0.24920128)"
     id="text3093"
     style="font-size:46.95375824px;text-anchor:middle;font-family:Arial" />
  <text
     x="-528.55774"
     y="-43.513699"
     id="text3095"
     style="font-size:129.22999573px;line-height:125%;letter-spacing:0;word-spacing:0;font-family:Gentium Book Basic">
    <tspan
       x="-528.55774"
       y="-43.513699"
       id="tspan3097" />
  </text>
  <text
     x="65.360077"
     y="-523.76294"
     transform="scale(4.0128205,0.24920128)"
     id="text3099"
     style="font-size:46.95375824px;text-anchor:middle;font-family:Arial" />
  <text
     x="569.49225"
     y="-259.9827"
     id="text3101"
     style="font-size:129.22999573px;line-height:125%;letter-spacing:0;word-spacing:0;font-family:Gentium Book Basic">
    <tspan
       x="569.49225"
       y="-259.9827"
       id="tspan3103" />
  </text>
  <text
     x="338.99866"
     y="-1392.4286"
     transform="scale(4.0128205,0.24920128)"
     id="text3105"
     style="font-size:46.95375824px;text-anchor:middle;font-family:Arial" />
  <text
     x="1150.7622"
     y="-339.99271"
     id="text3107"
     style="font-size:129.22999573px;line-height:125%;letter-spacing:0;word-spacing:0;font-family:Gentium Book Basic">
    <tspan
       x="1150.7622"
       y="-339.99271"
       id="tspan3109" />
  </text>
  <text
     x="483.84796"
     y="-1713.4668"
     transform="scale(4.0128205,0.24920128)"
     id="text3111"
     style="font-size:46.95375824px;text-anchor:middle;font-family:Arial" />
  <text
     x="761.64227"
     y="-812.3927"
     id="text3113"
     style="font-size:129.22999573px;line-height:125%;letter-spacing:0;word-spacing:0;font-family:Gentium Book Basic">
    <tspan
       x="761.64227"
       y="-812.3927"
       id="tspan3115" />
  </text>
  <text
     x="386.87842"
     y="-3609.1172"
     transform="scale(4.0128205,0.24920128)"
     id="text3117"
     style="font-size:46.95375824px;text-anchor:middle;font-family:Arial" />
  <text
     x="1342.9022"
     y="-892.3927"
     id="text3119"
     style="font-size:129.22999573px;line-height:125%;letter-spacing:0;word-spacing:0;font-family:Gentium Book Basic">
    <tspan
       x="1342.9022"
       y="-892.3927"
       id="tspan3121" />
  </text>
  <text
     x="531.72772"
     y="-3930.1455"
     transform="scale(4.0128205,0.24920128)"
     id="text3123"
     style="font-size:46.95375824px;text-anchor:middle;font-family:Arial" />
  <text
     x="-489.89777"
     y="522.32733"
     id="text3125"
     style="font-size:208.33000183px;line-height:125%;letter-spacing:0;word-spacing:0;font-family:Gentium Book Basic">
    <tspan
       x="-489.89777"
       y="522.32733"
       id="tspan3127" />
  </text>
  <text
     x="-90.427788"
     y="-78.877289"
     id="text3831"
     style="font-size:129.22999573px;line-height:125%;letter-spacing:0;word-spacing:0;font-family:Gentium Book Basic">
    <tspan
       x="-90.427788"
       y="-78.877289"
       id="tspan3833" />
  </text>
  <text
     x="174.54613"
     y="-665.67957"
     transform="scale(4.0128205,0.24920128)"
     id="text3835"
     style="font-size:46.95375824px;text-anchor:middle;font-family:Arial" />
  <text
     x="490.84222"
     y="-158.87729"
     id="text3837"
     style="font-size:129.22999573px;line-height:125%;letter-spacing:0;word-spacing:0;font-family:Gentium Book Basic">
    <tspan
       x="490.84222"
       y="-158.87729"
       id="tspan3839" />
  </text>
  <text
     x="319.39539"
     y="-986.70789"
     transform="scale(4.0128205,0.24920128)"
     id="text3841"
     style="font-size:46.95375824px;text-anchor:middle;font-family:Arial" />
  <text
     x="-580.73779"
     y="-340.13828"
     id="text3843"
     style="font-size:129.22999573px;line-height:125%;letter-spacing:0;word-spacing:0;font-family:Gentium Book Basic">
    <tspan
       x="-580.73779"
       y="-340.13828"
       id="tspan3845" />
  </text>
  <text
     x="52.356743"
     y="-1714.0642"
     transform="scale(4.0128205,0.24920128)"
     id="text3847"
     style="font-size:46.95375824px;text-anchor:middle;font-family:Arial" />
  <text
     x="517.31219"
     y="-556.6073"
     id="text3849"
     style="font-size:129.22999573px;line-height:125%;letter-spacing:0;word-spacing:0;font-family:Gentium Book Basic">
    <tspan
       x="517.31219"
       y="-556.6073"
       id="tspan3851" />
  </text>
  <text
     x="325.99533"
     y="-2582.7297"
     transform="scale(4.0128205,0.24920128)"
     id="text3853"
     style="font-size:46.95375824px;text-anchor:middle;font-family:Arial" />
  <text
     x="1098.5823"
     y="-636.61731"
     id="text3855"
     style="font-size:129.22999573px;line-height:125%;letter-spacing:0;word-spacing:0;font-family:Gentium Book Basic">
    <tspan
       x="1098.5823"
       y="-636.61731"
       id="tspan3857" />
  </text>
  <text
     x="470.84464"
     y="-2903.7681"
     transform="scale(4.0128205,0.24920128)"
     id="text3859"
     style="font-size:46.95375824px;text-anchor:middle;font-family:Arial" />
  <text
     x="709.46222"
     y="-1109.0173"
     id="text3861"
     style="font-size:129.22999573px;line-height:125%;letter-spacing:0;word-spacing:0;font-family:Gentium Book Basic">
    <tspan
       x="709.46222"
       y="-1109.0173"
       id="tspan3863" />
  </text>
  <text
     x="373.87509"
     y="-4799.4185"
     transform="scale(4.0128205,0.24920128)"
     id="text3865"
     style="font-size:46.95375824px;text-anchor:middle;font-family:Arial" />
  <text
     x="1290.7223"
     y="-1189.0173"
     id="text3867"
     style="font-size:129.22999573px;line-height:125%;letter-spacing:0;word-spacing:0;font-family:Gentium Book Basic">
    <tspan
       x="1290.7223"
       y="-1189.0173"
       id="tspan3869" />
  </text>
  <text
     x="518.72437"
     y="-5120.4468"
     transform="scale(4.0128205,0.24920128)"
     id="text3871"
     style="font-size:46.95375824px;text-anchor:middle;font-family:Arial" />
  <text
     x="-542.07782"
     y="225.70271"
     id="text3873"
     style="font-size:208.33000183px;line-height:125%;letter-spacing:0;word-spacing:0;font-family:Gentium Book Basic">
    <tspan
       x="-542.07782"
       y="225.70271"
       id="tspan3875" />
  </text>
  <text
     x="140.62306"
     y="240.03796"
     id="text4646"
     style="font-size:129.22999573px;line-height:125%;letter-spacing:0;word-spacing:0;font-family:Gentium Book Basic">
    <tspan
       x="140.62306"
       y="240.03796"
       id="tspan4648" />
  </text>
  <text
     x="232.12428"
     y="614.07013"
     transform="scale(4.0128205,0.24920128)"
     id="text4650"
     style="font-size:46.95375824px;text-anchor:middle;font-family:Arial" />
  <text
     x="721.89307"
     y="160.03796"
     id="text4652"
     style="font-size:129.22999573px;line-height:125%;letter-spacing:0;word-spacing:0;font-family:Gentium Book Basic">
    <tspan
       x="721.89307"
       y="160.03796"
       id="tspan4654" />
  </text>
  <text
     x="376.97354"
     y="293.04181"
     transform="scale(4.0128205,0.24920128)"
     id="text4656"
     style="font-size:46.95375824px;text-anchor:middle;font-family:Arial" />
  <text
     x="-349.68695"
     y="-21.223034"
     id="text4658"
     style="font-size:129.22999573px;line-height:125%;letter-spacing:0;word-spacing:0;font-family:Gentium Book Basic">
    <tspan
       x="-349.68695"
       y="-21.223034"
       id="tspan4660" />
  </text>
  <text
     x="109.93491"
     y="-434.31448"
     transform="scale(4.0128205,0.24920128)"
     id="text4662"
     style="font-size:46.95375824px;text-anchor:middle;font-family:Arial" />
  <text
     x="748.36304"
     y="-237.69203"
     id="text4664"
     style="font-size:129.22999573px;line-height:125%;letter-spacing:0;word-spacing:0;font-family:Gentium Book Basic">
    <tspan
       x="748.36304"
       y="-237.69203"
       id="tspan4666" />
  </text>
  <text
     x="383.57349"
     y="-1302.9801"
     transform="scale(4.0128205,0.24920128)"
     id="text4668"
     style="font-size:46.95375824px;text-anchor:middle;font-family:Arial" />
  <text
     x="1329.6331"
     y="-317.70203"
     id="text4670"
     style="font-size:129.22999573px;line-height:125%;letter-spacing:0;word-spacing:0;font-family:Gentium Book Basic">
    <tspan
       x="1329.6331"
       y="-317.70203"
       id="tspan4672" />
  </text>
  <text
     x="528.42279"
     y="-1624.0183"
     transform="scale(4.0128205,0.24920128)"
     id="text4674"
     style="font-size:46.95375824px;text-anchor:middle;font-family:Arial" />
  <text
     x="940.51306"
     y="-790.10205"
     id="text4676"
     style="font-size:129.22999573px;line-height:125%;letter-spacing:0;word-spacing:0;font-family:Gentium Book Basic">
    <tspan
       x="940.51306"
       y="-790.10205"
       id="tspan4678" />
  </text>
  <text
     x="431.45325"
     y="-3519.6687"
     transform="scale(4.0128205,0.24920128)"
     id="text4680"
     style="font-size:46.95375824px;text-anchor:middle;font-family:Arial" />
  <text
     x="1521.7731"
     y="-870.10205"
     id="text4682"
     style="font-size:129.22999573px;line-height:125%;letter-spacing:0;word-spacing:0;font-family:Gentium Book Basic">
    <tspan
       x="1521.7731"
       y="-870.10205"
       id="tspan4684" />
  </text>
  <text
     x="576.30255"
     y="-3840.697"
     transform="scale(4.0128205,0.24920128)"
     id="text4686"
     style="font-size:46.95375824px;text-anchor:middle;font-family:Arial" />
  <text
     x="-311.02695"
     y="544.61798"
     id="text4688"
     style="font-size:208.33000183px;line-height:125%;letter-spacing:0;word-spacing:0;font-family:Gentium Book Basic">
    <tspan
       x="-311.02695"
       y="544.61798"
       id="tspan4690" />
  </text>
  <path
     d="m 192.33436,206.67436 c -23.86539,0.84578 -39.33776,2.07786 -51.4762,6.74224 -12.13844,4.66438 -20.0084,13.38131 -26.46512,25.69372 a 7.0963017,7.0963017 0 0 0 -0.0297,0.0296 l -19.664094,38.02051 a 7.0963017,7.0963017 0 0 0 5.732724,10.3367 l 6.71345,0.50507 a 7.0963017,7.0963017 0 0 0 6.77234,-3.6535 c 6.90301,-12.6615 13.61286,-21.56078 21.02933,-27.14893 7.36968,-5.55336 15.51797,-8.25265 27.03017,-8.28745 h 0.20755 l 17.04996,0.44508 c -9.70548,56.1622 -7.78597,99.63409 -49.09963,172.07125 a 7.0963017,7.0963017 0 0 0 -0.41584,0.8911 c -3.33514,8.39422 -3.68185,16.34455 -1.27768,22.92604 2.39938,6.58629 7.50886,11.44742 13.4557,13.87199 11.89251,4.84674 27.3145,0.33711 35.67393,-13.42571 a 7.0963017,7.0963017 0 0 0 0.32674,-0.62376 c 17.36547,-36.40693 26.5011,-105.52576 32.13843,-195.62112 h 57.86095 l -9.44514,147.89753 a 7.0963017,7.0963017 0 0 0 0,0.29703 c -0.46908,21.9243 4.87793,38.45 14.64339,49.2232 9.76546,10.7624 23.76582,15.0057 37.6642,13.24455 27.79677,-3.51628 56.23777,-28.94847 67.2785,-69.73785 a 7.0963017,7.0963017 0 0 0 -6.86144,-8.97038 h -6.68346 a 7.0963017,7.0963017 0 0 0 -6.29707,3.80202 c -9.78946,18.58796 -19.27899,29.31558 -26.76264,34.06994 -7.48725,4.75316 -12.13605,4.37766 -16.98998,1.39644 -4.85394,-2.98243 -9.86984,-9.97901 -13.12939,-20.0204 -3.25715,-10.03298 -4.79875,-22.86605 -3.8618,-36.59408 9.1e-4,-0.01 -9e-4,-0.0192 0,-0.03 l 8.28745,-114.15031 66.29476,-0.95015 a 7.0963017,7.0963017 0 0 0 7.00997,-7.09905 v -28.04027 a 7.0963017,7.0963017 0 0 0 -7.09912,-7.09906 H 192.59223 a 7.0963017,7.0963017 0 0 0 -0.26734,0"
     inkscape:connector-curvature="0"
     id="path4692"
     style="color:#000000;fill:#ffffff" />
</svg>
