<?xml version="1.0" encoding="UTF-8" standalone="no"?>
<!-- Created with Inkscape (http://www.inkscape.org/) -->

<svg
   xmlns:dc="http://purl.org/dc/elements/1.1/"
   xmlns:cc="http://creativecommons.org/ns#"
   xmlns:rdf="http://www.w3.org/1999/02/22-rdf-syntax-ns#"
   xmlns:svg="http://www.w3.org/2000/svg"
   xmlns="http://www.w3.org/2000/svg"
   xmlns:sodipodi="http://sodipodi.sourceforge.net/DTD/sodipodi-0.dtd"
   xmlns:inkscape="http://www.inkscape.org/namespaces/inkscape"
   version="1.1"
   width="100%"
   height="100%"
   viewBox="0 0 512 512"
   id="svg2"
   inkscape:version="0.48.5 r10040"
   sodipodi:docname="application-x-nzb.svg">
  <sodipodi:namedview
     pagecolor="#ffffff"
     bordercolor="#666666"
     borderopacity="1"
     objecttolerance="10"
     gridtolerance="10"
     guidetolerance="10"
     inkscape:pageopacity="0"
     inkscape:pageshadow="2"
     inkscape:window-width="1306"
     inkscape:window-height="706"
     id="namedview19"
     showgrid="false"
     inkscape:zoom="0.65186406"
     inkscape:cx="227.05862"
     inkscape:cy="115.13352"
     inkscape:window-x="56"
     inkscape:window-y="26"
     inkscape:window-maximized="1"
     inkscape:current-layer="svg2" />
  <metadata
     id="metadata36">
    <rdf:RDF>
      <cc:Work
         rdf:about="">
        <dc:format>image/svg+xml</dc:format>
        <dc:type
           rdf:resource="http://purl.org/dc/dcmitype/StillImage" />
      </cc:Work>
    </rdf:RDF>
  </metadata>
  <defs
     id="defs34" />
  <g
     id="g4"
     style="fill-opacity:0.078">
    <path
       d="m 66.61,0 c -4.047,0 -7.299,3.253 -7.299,7.299 v 497.4 c 0,4.047 3.253,7.299 7.299,7.299 H 445.4 c 4.047,0 7.299,-3.253 7.299,-7.299 V 145.239 L 307.489,-0.001 H 66.609"
       inkscape:connector-curvature="0"
       id="path6" />
    <path
       d="M 69.2,3.5 C 65.209,3.5 62,6.708 62,10.7 v 490.6 c 0,3.991 3.208,7.2 7.2,7.2 h 373.61 c 3.991,0 7.2,-3.208 7.2,-7.2 V 146.75 L 306.79,3.5 H 69.2"
       inkscape:connector-curvature="0"
       id="path8" />
    <path
       d="m 71.786,7 c -3.936,0 -7.1,3.164 -7.1,7.1 v 483.8 c 0,3.936 3.164,7.1 7.1,7.1 h 368.43 c 3.936,0 7.1,-3.164 7.1,-7.1 V 148.27 L 306.076,7 H 71.786"
       inkscape:connector-curvature="0"
       id="path10" />
  </g>
  <path
     d="m 74.38,10.5 c -3.881,0 -7,3.119 -7,7 v 477 c 0,3.881 3.119,7 7,7 h 363.25 c 3.881,0 7,-3.119 7,-7 V 149.78 L 305.38,10.5 h -231"
     inkscape:connector-curvature="0"
     id="path12"
     style="fill:#336699" />
  <path
     style="opacity:0.25;fill:#000000;fill-opacity:1;stroke:none"
     d="M 252.28125 182.84375 C 174.3033 182.93717 106.18734 255.99633 112.5 334.0625 C 113.06526 380.45726 141.81518 418.63739 174.6875 448.4375 C 192.39739 466.11469 210.08461 483.80962 227.78125 501.5 L 437.625 501.5 C 441.506 501.5 444.625 498.381 444.625 494.5 L 444.625 312 C 412.60025 280.09351 380.51222 248.22304 348.34375 216.46875 C 322.77351 194.85147 289.48367 182.76775 256 182.90625 C 254.75754 182.87071 253.519 182.84227 252.28125 182.84375 z "
     id="path3106" />
  <path
     d="m 308.78,148.78 c 4.487,5.957 11.24,10.578 16.06,16.313 39.915,39.949 79.85,79.881 119.78,119.81 V 149.783 H 312.37 c -1.321,0 -2.542,-0.37 -3.594,-1"
     inkscape:connector-curvature="0"
     id="path14"
     style="fill-opacity:0.23500001" />
  <path
     d="M 444.62,149.78 305.37,10.5 v 132.28 c 0,3.881 3.119,7 7,7 h 132.25"
     inkscape:connector-curvature="0"
     id="path16"
     style="fill:#ffffff;fill-opacity:0.19599998" />
  <path
     inkscape:connector-curvature="0"
     id="path3005"
     d="m 256,182.89177 c -79.35384,0 -143.67509,64.32125 -143.67509,143.67509 0,79.35384 64.32125,143.67509 143.67509,143.67509 79.35384,0 143.67509,-64.32125 143.67509,-143.67509 0,-79.35384 -64.32125,-143.67509 -143.67509,-143.67509 z m -36.17748,36.0533 72.35496,0 0,113.29263 47.72612,0 L 256,434.18865 172.0964,332.2377 l 0.0413,0 47.68474,0 0,-113.29263 z"
     style="fill:#ffffff;fill-opacity:1;stroke:none" />
</svg>
