<?xml version="1.0" encoding="UTF-8" standalone="no"?>
<!-- Created with Inkscape (http://www.inkscape.org/) -->

<svg
   xmlns:dc="http://purl.org/dc/elements/1.1/"
   xmlns:cc="http://creativecommons.org/ns#"
   xmlns:rdf="http://www.w3.org/1999/02/22-rdf-syntax-ns#"
   xmlns:svg="http://www.w3.org/2000/svg"
   xmlns="http://www.w3.org/2000/svg"
   xmlns:inkscape="http://www.inkscape.org/namespaces/inkscape"
   version="1.1"
   width="100%"
   height="100%"
   viewBox="0 0 512 512"
   id="svg2">
  <metadata
     id="metadata28">
    <rdf:RDF>
      <cc:Work
         rdf:about="">
        <dc:format>image/svg+xml</dc:format>
        <dc:type
           rdf:resource="http://purl.org/dc/dcmitype/StillImage" />
      </cc:Work>
    </rdf:RDF>
  </metadata>
  <defs
     id="defs26" />
  <g
     id="g4"
     style="fill-opacity:0.078">
    <path
       d="m 66.61,0 c -4.047,0 -7.299,3.253 -7.299,7.299 v 497.4 c 0,4.047 3.253,7.299 7.299,7.299 H 445.4 c 4.047,0 7.299,-3.253 7.299,-7.299 V 145.239 L 307.489,-0.001 H 66.609"
       inkscape:connector-curvature="0"
       id="path6" />
    <path
       d="M 69.2,3.5 C 65.209,3.5 62,6.708 62,10.7 v 490.6 c 0,3.991 3.208,7.2 7.2,7.2 h 373.61 c 3.991,0 7.2,-3.208 7.2,-7.2 V 146.75 L 306.79,3.5 H 69.2"
       inkscape:connector-curvature="0"
       id="path8" />
    <path
       d="m 71.786,7 c -3.936,0 -7.1,3.164 -7.1,7.1 v 483.8 c 0,3.936 3.164,7.1 7.1,7.1 h 368.43 c 3.936,0 7.1,-3.164 7.1,-7.1 V 148.27 L 306.076,7 H 71.786"
       inkscape:connector-curvature="0"
       id="path10" />
  </g>
  <path
     d="m 74.37,10.5 c -3.881,0 -7,3.119 -7,7 v 477 c 0,3.881 3.119,7 7,7 h 363.25 c 3.881,0 7,-3.119 7,-7 V 149.78 L 305.37,10.5 h -231"
     inkscape:connector-curvature="0"
     id="path12"
     style="fill:#f59640" />
  <path
     d="m 308.78,148.78 c 4.487,5.957 11.24,10.578 16.06,16.313 39.915,39.949 79.85,79.881 119.78,119.81 V 149.783 H 312.37 c -1.321,0 -2.542,-0.37 -3.594,-1"
     inkscape:connector-curvature="0"
     id="path14"
     style="fill-opacity:0.23500001" />
  <path
     d="M 444.62,149.78 305.37,10.5 v 132.28 c 0,3.881 3.119,7 7,7 h 132.25"
     inkscape:connector-curvature="0"
     id="path16"
     style="fill:#ffffff;fill-opacity:0.19599998" />
  <g
     id="g18"
     style="fill-rule:evenodd">
    <path
       d="m 111.75,160.84 v 54.09 l 66.906,66.906 c -20.686,-8.27 -43.27,-12.813 -66.906,-12.813 v 54.09 l 178.38,178.38 h 147.5 c 3.881,0 7,-3.119 7,-7 V 374.213 L 315.76,245.343 c -52.21,-52.21 -124.33,-84.5 -204,-84.5 m 36.06,216.38 c -19.917,0 -36.06,16.14 -36.06,36.06 0,6.641 -0.004,18.667 0.031,36.06 l 52.16,52.16 h 123.09 l -113.72,-113.72 c -6.526,-6.526 -15.541,-10.563 -25.5,-10.563 m 226.69,3.375 c 6.194,1.01 12.32,2.195 18.375,3.594 1.397,6.05 2.584,12.185 3.594,18.375 l -21.969,-21.969"
       inkscape:connector-curvature="0"
       id="path20"
       style="opacity:0.25" />
    <path
       d="m 111.75,160.84 v 54.09 c 129.46,0 234.41,104.95 234.41,234.41 h 54.09 c 0,-159.34 -129.16,-288.5 -288.5,-288.5 m 0,108.19 v 54.09 c 69.71,0 126.22,56.51 126.22,126.22 h 54.09 c 0,-99.58 -80.73,-180.31 -180.31,-180.31 m 36.06,108.19 c -19.917,0 -36.06,16.14 -36.06,36.06 0,6.641 -0.004,18.667 0.031,36.06 17.373,0.008 29.392,0 36.03,0 19.917,0 36.06,-16.14 36.06,-36.06 0,-19.918 -16.15,-36.06 -36.06,-36.06"
       inkscape:connector-curvature="0"
       id="path22"
       style="fill:#ffffff" />
  </g>
</svg>
