<?xml version="1.0" encoding="UTF-8" standalone="no"?>
<!-- Created with Inkscape (http://www.inkscape.org/) -->

<svg
   xmlns:dc="http://purl.org/dc/elements/1.1/"
   xmlns:cc="http://creativecommons.org/ns#"
   xmlns:rdf="http://www.w3.org/1999/02/22-rdf-syntax-ns#"
   xmlns:svg="http://www.w3.org/2000/svg"
   xmlns="http://www.w3.org/2000/svg"
   xmlns:inkscape="http://www.inkscape.org/namespaces/inkscape"
   version="1.1"
   width="100%"
   height="100%"
   viewBox="0 0 512 512"
   id="svg2">
  <metadata
     id="metadata36">
    <rdf:RDF>
      <cc:Work
         rdf:about="">
        <dc:format>image/svg+xml</dc:format>
        <dc:type
           rdf:resource="http://purl.org/dc/dcmitype/StillImage" />
        <dc:title />
      </cc:Work>
    </rdf:RDF>
  </metadata>
  <defs
     id="defs34" />
  <text
     x="-109.95321"
     y="148.91933"
     id="text3031"
     style="font-size:129.22999573px;line-height:125%;letter-spacing:0;word-spacing:0;font-family:Gentium Book Basic">
    <tspan
       x="-109.95321"
       y="148.91933"
       id="tspan3033" />
  </text>
  <text
     x="169.68036"
     y="248.42738"
     transform="scale(4.0128205,0.24920128)"
     id="text3035"
     style="font-size:46.95375824px;text-anchor:middle;font-family:Arial" />
  <text
     x="471.3168"
     y="68.919319"
     id="text3037"
     style="font-size:129.22999573px;line-height:125%;letter-spacing:0;word-spacing:0;font-family:Gentium Book Basic">
    <tspan
       x="471.3168"
       y="68.919319"
       id="tspan3039" />
  </text>
  <text
     x="314.52963"
     y="-72.600967"
     transform="scale(4.0128205,0.24920128)"
     id="text3041"
     style="font-size:46.95375824px;text-anchor:middle;font-family:Arial" />
  <text
     x="-600.26324"
     y="-112.34167"
     id="text3043"
     style="font-size:129.22999573px;line-height:125%;letter-spacing:0;word-spacing:0;font-family:Gentium Book Basic">
    <tspan
       x="-600.26324"
       y="-112.34167"
       id="tspan3045" />
  </text>
  <text
     x="47.490986"
     y="-799.95728"
     transform="scale(4.0128205,0.24920128)"
     id="text3047"
     style="font-size:46.95375824px;text-anchor:middle;font-family:Arial" />
  <text
     x="497.78677"
     y="-328.81067"
     id="text3049"
     style="font-size:129.22999573px;line-height:125%;letter-spacing:0;word-spacing:0;font-family:Gentium Book Basic">
    <tspan
       x="497.78677"
       y="-328.81067"
       id="tspan3051" />
  </text>
  <text
     x="321.12958"
     y="-1668.6228"
     transform="scale(4.0128205,0.24920128)"
     id="text3053"
     style="font-size:46.95375824px;text-anchor:middle;font-family:Arial" />
  <text
     x="1079.0568"
     y="-408.82068"
     id="text3055"
     style="font-size:129.22999573px;line-height:125%;letter-spacing:0;word-spacing:0;font-family:Gentium Book Basic">
    <tspan
       x="1079.0568"
       y="-408.82068"
       id="tspan3057" />
  </text>
  <text
     x="465.97885"
     y="-1989.6611"
     transform="scale(4.0128205,0.24920128)"
     id="text3059"
     style="font-size:46.95375824px;text-anchor:middle;font-family:Arial" />
  <text
     x="689.93683"
     y="-881.2207"
     id="text3061"
     style="font-size:129.22999573px;line-height:125%;letter-spacing:0;word-spacing:0;font-family:Gentium Book Basic">
    <tspan
       x="689.93683"
       y="-881.2207"
       id="tspan3063" />
  </text>
  <text
     x="369.00934"
     y="-3885.3115"
     transform="scale(4.0128205,0.24920128)"
     id="text3065"
     style="font-size:46.95375824px;text-anchor:middle;font-family:Arial" />
  <text
     x="1271.1968"
     y="-961.2207"
     id="text3067"
     style="font-size:129.22999573px;line-height:125%;letter-spacing:0;word-spacing:0;font-family:Gentium Book Basic">
    <tspan
       x="1271.1968"
       y="-961.2207"
       id="tspan3069" />
  </text>
  <text
     x="513.85864"
     y="-4206.3398"
     transform="scale(4.0128205,0.24920128)"
     id="text3071"
     style="font-size:46.95375824px;text-anchor:middle;font-family:Arial" />
  <text
     x="-561.60321"
     y="453.49933"
     id="text3073"
     style="font-size:208.33000183px;line-height:125%;letter-spacing:0;word-spacing:0;font-family:Gentium Book Basic">
    <tspan
       x="-561.60321"
       y="453.49933"
       id="tspan3075" />
  </text>
  <text
     x="-990.50824"
     y="-43.574726"
     id="text4889"
     style="font-size:208.33332825px;line-height:125%;letter-spacing:0;word-spacing:0;font-family:Gentium Book Basic">
    <tspan
       x="-990.50824"
       y="-43.574726"
       id="tspan4891" />
  </text>
  <text
     x="70.890884"
     y="-737.74774"
     transform="scale(4.0128362,0.2492003)"
     id="text4893"
     style="font-size:75.69770813px;text-anchor:middle;font-family:Arial" />
  <text
     x="-1638.2747"
     y="-811.52643"
     id="text4895"
     style="font-size:208.33332825px;line-height:125%;letter-spacing:0;word-spacing:0;font-family:Gentium Book Basic">
    <tspan
       x="-1638.2747"
       y="-811.52643"
       id="tspan4897" />
  </text>
  <text
     x="-90.5327"
     y="-3819.4121"
     transform="scale(4.0128362,0.2492003)"
     id="text4899"
     style="font-size:75.69770813px;text-anchor:middle;font-family:Arial" />
  <text
     x="-931.93353"
     y="-967.15826"
     id="text4901"
     style="font-size:208.33332825px;line-height:125%;letter-spacing:0;word-spacing:0;font-family:Gentium Book Basic">
    <tspan
       x="-931.93353"
       y="-967.15826"
       id="tspan4903" />
  </text>
  <text
     x="85.487717"
     y="-4443.937"
     transform="scale(4.0128362,0.2492003)"
     id="text4905"
     style="font-size:75.69770813px;text-anchor:middle;font-family:Arial" />
  <text
     x="-459.24139"
     y="318.13965"
     id="text20"
     style="font-size:129.22999573px;line-height:125%;letter-spacing:0;word-spacing:0;font-family:Gentium Book Basic">
    <tspan
       x="-459.24139"
       y="318.13965"
       id="tspan22" />
  </text>
  <text
     x="82.637299"
     y="927.47821"
     transform="scale(4.0128205,0.24920128)"
     id="text24"
     style="font-size:46.95375824px;text-anchor:middle;font-family:Arial" />
  <text
     x="122.02863"
     y="238.13966"
     id="text26"
     style="font-size:129.22999573px;line-height:125%;letter-spacing:0;word-spacing:0;font-family:Gentium Book Basic">
    <tspan
       x="122.02863"
       y="238.13966"
       id="tspan28" />
  </text>
  <text
     x="227.48657"
     y="606.44989"
     transform="scale(4.0128205,0.24920128)"
     id="text30"
     style="font-size:46.95375824px;text-anchor:middle;font-family:Arial" />
  <text
     x="-949.55139"
     y="56.878662"
     id="text32"
     style="font-size:129.22999573px;line-height:125%;letter-spacing:0;word-spacing:0;font-family:Gentium Book Basic">
    <tspan
       x="-949.55139"
       y="56.878662"
       id="tspan34" />
  </text>
  <text
     x="-39.552074"
     y="-120.90641"
     transform="scale(4.0128205,0.24920128)"
     id="text36"
     style="font-size:46.95375824px;text-anchor:middle;font-family:Arial" />
  <text
     x="148.49861"
     y="-159.59033"
     id="text38"
     style="font-size:129.22999573px;line-height:125%;letter-spacing:0;word-spacing:0;font-family:Gentium Book Basic">
    <tspan
       x="148.49861"
       y="-159.59033"
       id="tspan40" />
  </text>
  <text
     x="234.0865"
     y="-989.57202"
     transform="scale(4.0128205,0.24920128)"
     id="text42"
     style="font-size:46.95375824px;text-anchor:middle;font-family:Arial" />
  <text
     x="729.76862"
     y="-239.60034"
     id="text44"
     style="font-size:129.22999573px;line-height:125%;letter-spacing:0;word-spacing:0;font-family:Gentium Book Basic">
    <tspan
       x="729.76862"
       y="-239.60034"
       id="tspan46" />
  </text>
  <text
     x="378.93579"
     y="-1310.6102"
     transform="scale(4.0128205,0.24920128)"
     id="text48"
     style="font-size:46.95375824px;text-anchor:middle;font-family:Arial" />
  <text
     x="340.64862"
     y="-712.00037"
     id="text50"
     style="font-size:129.22999573px;line-height:125%;letter-spacing:0;word-spacing:0;font-family:Gentium Book Basic">
    <tspan
       x="340.64862"
       y="-712.00037"
       id="tspan52" />
  </text>
  <text
     x="281.96628"
     y="-3206.2605"
     transform="scale(4.0128205,0.24920128)"
     id="text54"
     style="font-size:46.95375824px;text-anchor:middle;font-family:Arial" />
  <text
     x="921.90863"
     y="-792.00037"
     id="text56"
     style="font-size:129.22999573px;line-height:125%;letter-spacing:0;word-spacing:0;font-family:Gentium Book Basic">
    <tspan
       x="921.90863"
       y="-792.00037"
       id="tspan58" />
  </text>
  <text
     x="426.81555"
     y="-3527.2891"
     transform="scale(4.0128205,0.24920128)"
     id="text60"
     style="font-size:46.95375824px;text-anchor:middle;font-family:Arial" />
  <text
     x="-910.89142"
     y="622.71967"
     id="text62"
     style="font-size:208.33000183px;line-height:125%;letter-spacing:0;word-spacing:0;font-family:Gentium Book Basic">
    <tspan
       x="-910.89142"
       y="622.71967"
       id="tspan64" />
  </text>
  <path
     d="M -854.90971,176.3125 -1020.7222,10.5 l 388.90872,388.90873 165.8125,165.8125 z"
     inkscape:connector-curvature="0"
     id="path4645"
     style="fill:#ffffff;fill-opacity:0.19607843;stroke:none" />
  <path
     d="m 36.0625,512 c -5.629617,0 -10.15625,-4.52663 -10.15625,-10.15625 l 0,-491.6875 C 25.90625,4.52663 30.432883,0 36.0625,0 l 439.875,0 c 5.62962,0 10.15625,4.52663 10.15625,10.15625 l 0,334.09375 -167.75,167.75 -282.28125,0 z"
     inkscape:connector-curvature="0"
     id="rect3134"
     style="opacity:0.1;fill:#000000;fill-opacity:1;stroke:none" />
  <path
     d="m 39.0625,508.5 c -5.55265,0 -10.03125,-4.4786 -10.03125,-10.03125 l 0,-484.9375 C 29.03125,7.9786 33.50985,3.5 39.0625,3.5 l 433.875,0 c 5.55265,0 10.03125,4.4786 10.03125,10.03125 l 0,327.84375 -167.125,167.125 -276.78125,0 z"
     inkscape:connector-curvature="0"
     id="rect3910"
     style="opacity:0.1;fill:#000000;fill-opacity:1;stroke:none" />
  <path
     d="m 42.0625,505 c -5.475683,0 -9.875,-4.39932 -9.875,-9.875 l 0,-478.25 C 32.1875,11.39932 36.586817,7 42.0625,7 l 427.875,0 c 5.47568,0 9.875,4.39932 9.875,9.875 l 0,321.65625 L 313.34375,505 42.0625,505 z"
     inkscape:connector-curvature="0"
     id="rect3912"
     style="opacity:0.1;fill:#000000;fill-opacity:1;stroke:none" />
  <path
     d="m 45.0625,501.5 c -5.398715,0 -9.71875,-4.35129 -9.71875,-9.75 l 0,-471.5 c 0,-5.39872 4.320035,-9.75 9.71875,-9.75 l 421.875,0 c 5.39872,0 9.71875,4.35128 9.71875,9.75 l 0,315.4375 -165.8125,165.8125 -265.78125,0 z"
     inkscape:connector-curvature="0"
     id="rect3914"
     style="fill:#ff9955;fill-opacity:1;stroke:none" />
  <path
     d="m 91.65625,60.21875 0,76.84375 38.4375,38.4375 -38.4375,0 0,76.8125 38.40625,38.40625 -38.40625,0 0,25.59375 185.1875,185.1875 34,0 165.8125,-165.8125 0,-170.90625 L 399.875,88 l -1.5,-1.53125 C 382.15736,70.251113 359.76385,60.21875 335,60.21875 l 0,25.8125 -13,-13 c -31.25899,0 -58.766,15.992042 -74.8125,40.25 l -53.0625,-53.0625 -102.46875,0 z"
     inkscape:connector-curvature="0"
     id="path3896"
     style="opacity:0.25;fill:#000000" />
  <path
     d="M 476.65625,335.6875 310.84375,501.5 l 0,-156.0625 c 0,-5.39872 4.32003,-9.75 9.71875,-9.75 l 156.09375,0 z"
     inkscape:connector-curvature="0"
     id="path4190"
     style="fill:#ffffff;fill-opacity:0.19607843;stroke:none" />
  <path
     d="M 476.65625,335.6875 310.84375,501.5 l 0,-156.0625 c 0,-5.39872 4.32003,-9.75 9.71875,-9.75 l 156.09375,0 z"
     inkscape:connector-curvature="0"
     id="path4650"
     style="fill:#ffffff;fill-opacity:0.19607843;stroke:none" />
  <path
     d="m 230.04026,394.60911 c -17.24593,-0.0877 -26.60054,4.2601 -32.03125,7.5625 -23.59673,-5.20087 -46.20315,-4.79886 -64.34375,10.4375 26.6167,-7.34838 50.22829,-7.96746 66.96875,1.5 15.64867,-12.54076 47.96898,-17.09435 58.1875,-16.125 -11.47648,-2.37131 -20.94219,-3.33514 -28.78125,-3.375 z m -31.4375,34.96875 c -22.74981,0.25464 -39.08146,9.46727 -43.75,16.34375 -22.228,-9.76469 -72.009357,-0.8975 -83.656257,18.65625 37.202397,-14.40382 65.557307,-13.86797 87.437507,1.375 19.34028,-22.84951 61.06615,-31.62847 74.46875,-30.09375 -12.51326,-4.65012 -24.15918,-6.39699 -34.5,-6.28125 z"
     inkscape:connector-curvature="0"
     id="path4909"
     style="fill:#ffffff" />
  <text
     x="-764.80939"
     y="79.698143"
     id="text3031-8"
     style="font-size:129.22999573px;line-height:125%;letter-spacing:0;word-spacing:0;font-family:Gentium Book Basic">
    <tspan
       x="-764.80939"
       y="79.698143"
       id="tspan3033-4" />
  </text>
  <text
     x="6.4893641"
     y="-29.344793"
     transform="scale(4.0128205,0.24920128)"
     id="text3035-7"
     style="font-size:46.95375824px;text-anchor:middle;font-family:Arial" />
  <text
     x="-183.53937"
     y="-0.30186284"
     id="text3037-9"
     style="font-size:129.22999573px;line-height:125%;letter-spacing:0;word-spacing:0;font-family:Gentium Book Basic">
    <tspan
       x="-183.53937"
       y="-0.30186284"
       id="tspan3039-2" />
  </text>
  <text
     x="151.33864"
     y="-350.37314"
     transform="scale(4.0128205,0.24920128)"
     id="text3041-9"
     style="font-size:46.95375824px;text-anchor:middle;font-family:Arial" />
  <text
     x="-1255.1194"
     y="-181.56285"
     id="text3043-0"
     style="font-size:129.22999573px;line-height:125%;letter-spacing:0;word-spacing:0;font-family:Gentium Book Basic">
    <tspan
       x="-1255.1194"
       y="-181.56285"
       id="tspan3045-1" />
  </text>
  <text
     x="-115.70001"
     y="-1077.7295"
     transform="scale(4.0128205,0.24920128)"
     id="text3047-5"
     style="font-size:46.95375824px;text-anchor:middle;font-family:Arial" />
  <text
     x="-157.0694"
     y="-398.03186"
     id="text3049-5"
     style="font-size:129.22999573px;line-height:125%;letter-spacing:0;word-spacing:0;font-family:Gentium Book Basic">
    <tspan
       x="-157.0694"
       y="-398.03186"
       id="tspan3051-8" />
  </text>
  <text
     x="157.93858"
     y="-1946.395"
     transform="scale(4.0128205,0.24920128)"
     id="text3053-5"
     style="font-size:46.95375824px;text-anchor:middle;font-family:Arial" />
  <text
     x="424.20059"
     y="-478.04187"
     id="text3055-2"
     style="font-size:129.22999573px;line-height:125%;letter-spacing:0;word-spacing:0;font-family:Gentium Book Basic">
    <tspan
       x="424.20059"
       y="-478.04187"
       id="tspan3057-1" />
  </text>
  <text
     x="302.78787"
     y="-2267.4333"
     transform="scale(4.0128205,0.24920128)"
     id="text3059-9"
     style="font-size:46.95375824px;text-anchor:middle;font-family:Arial" />
  <text
     x="35.080658"
     y="-950.44189"
     id="text3061-3"
     style="font-size:129.22999573px;line-height:125%;letter-spacing:0;word-spacing:0;font-family:Gentium Book Basic">
    <tspan
       x="35.080658"
       y="-950.44189"
       id="tspan3063-6" />
  </text>
  <text
     x="205.81834"
     y="-4163.0835"
     transform="scale(4.0128205,0.24920128)"
     id="text3065-7"
     style="font-size:46.95375824px;text-anchor:middle;font-family:Arial" />
  <text
     x="616.34064"
     y="-1030.4419"
     id="text3067-7"
     style="font-size:129.22999573px;line-height:125%;letter-spacing:0;word-spacing:0;font-family:Gentium Book Basic">
    <tspan
       x="616.34064"
       y="-1030.4419"
       id="tspan3069-3" />
  </text>
  <text
     x="350.66766"
     y="-4484.1118"
     transform="scale(4.0128205,0.24920128)"
     id="text3071-4"
     style="font-size:46.95375824px;text-anchor:middle;font-family:Arial" />
  <text
     x="-1216.4594"
     y="384.27814"
     id="text3073-8"
     style="font-size:208.33000183px;line-height:125%;letter-spacing:0;word-spacing:0;font-family:Gentium Book Basic">
    <tspan
       x="-1216.4594"
       y="384.27814"
       id="tspan3075-2" />
  </text>
  <text
     x="-1645.3644"
     y="-112.79591"
     id="text4889-4"
     style="font-size:208.33332825px;line-height:125%;letter-spacing:0;word-spacing:0;font-family:Gentium Book Basic">
    <tspan
       x="-1645.3644"
       y="-112.79591"
       id="tspan4891-2" />
  </text>
  <text
     x="-92.299469"
     y="-1015.521"
     transform="scale(4.0128362,0.2492003)"
     id="text4893-0"
     style="font-size:75.69770813px;text-anchor:middle;font-family:Arial" />
  <text
     x="-2293.1309"
     y="-880.74762"
     id="text4895-4"
     style="font-size:208.33332825px;line-height:125%;letter-spacing:0;word-spacing:0;font-family:Gentium Book Basic">
    <tspan
       x="-2293.1309"
       y="-880.74762"
       id="tspan4897-8" />
  </text>
  <text
     x="-253.72305"
     y="-4097.1855"
     transform="scale(4.0128362,0.2492003)"
     id="text4899-9"
     style="font-size:75.69770813px;text-anchor:middle;font-family:Arial" />
  <text
     x="-1586.7897"
     y="-1036.3794"
     id="text4901-3"
     style="font-size:208.33332825px;line-height:125%;letter-spacing:0;word-spacing:0;font-family:Gentium Book Basic">
    <tspan
       x="-1586.7897"
       y="-1036.3794"
       id="tspan4903-0" />
  </text>
  <text
     x="-77.702637"
     y="-4721.7104"
     transform="scale(4.0128362,0.2492003)"
     id="text4905-8"
     style="font-size:75.69770813px;text-anchor:middle;font-family:Arial" />
  <text
     x="-688.87714"
     y="175.15578"
     id="text3052"
     style="font-size:129.22999573px;line-height:125%;letter-spacing:0;word-spacing:0;font-family:Gentium Book Basic">
    <tspan
       x="-688.87714"
       y="175.15578"
       id="tspan3054" />
  </text>
  <text
     x="25.411774"
     y="353.70956"
     transform="scale(4.0128205,0.24920128)"
     id="text3056"
     style="font-size:46.95375824px;text-anchor:middle;font-family:Arial" />
  <text
     x="-107.60709"
     y="95.155769"
     id="text3058"
     style="font-size:129.22999573px;line-height:125%;letter-spacing:0;word-spacing:0;font-family:Gentium Book Basic">
    <tspan
       x="-107.60709"
       y="95.155769"
       id="tspan3060" />
  </text>
  <text
     x="170.26103"
     y="32.681194"
     transform="scale(4.0128205,0.24920128)"
     id="text3062"
     style="font-size:46.95375824px;text-anchor:middle;font-family:Arial" />
  <text
     x="-1179.1871"
     y="-86.105225"
     id="text3064"
     style="font-size:129.22999573px;line-height:125%;letter-spacing:0;word-spacing:0;font-family:Gentium Book Basic">
    <tspan
       x="-1179.1871"
       y="-86.105225"
       id="tspan3066" />
  </text>
  <text
     x="-96.777596"
     y="-694.67511"
     transform="scale(4.0128205,0.24920128)"
     id="text3068"
     style="font-size:46.95375824px;text-anchor:middle;font-family:Arial" />
  <text
     x="-81.137115"
     y="-302.57422"
     id="text3070"
     style="font-size:129.22999573px;line-height:125%;letter-spacing:0;word-spacing:0;font-family:Gentium Book Basic">
    <tspan
       x="-81.137115"
       y="-302.57422"
       id="tspan3072" />
  </text>
  <text
     x="176.86098"
     y="-1563.3407"
     transform="scale(4.0128205,0.24920128)"
     id="text3074"
     style="font-size:46.95375824px;text-anchor:middle;font-family:Arial" />
  <text
     x="500.13284"
     y="-382.58423"
     id="text3076"
     style="font-size:129.22999573px;line-height:125%;letter-spacing:0;word-spacing:0;font-family:Gentium Book Basic">
    <tspan
       x="500.13284"
       y="-382.58423"
       id="tspan3078" />
  </text>
  <text
     x="321.7103"
     y="-1884.379"
     transform="scale(4.0128205,0.24920128)"
     id="text3080"
     style="font-size:46.95375824px;text-anchor:middle;font-family:Arial" />
  <text
     x="111.01291"
     y="-854.98425"
     id="text3082"
     style="font-size:129.22999573px;line-height:125%;letter-spacing:0;word-spacing:0;font-family:Gentium Book Basic">
    <tspan
       x="111.01291"
       y="-854.98425"
       id="tspan3084" />
  </text>
  <text
     x="224.74074"
     y="-3780.0293"
     transform="scale(4.0128205,0.24920128)"
     id="text3086"
     style="font-size:46.95375824px;text-anchor:middle;font-family:Arial" />
  <text
     x="692.27289"
     y="-934.98425"
     id="text3088"
     style="font-size:129.22999573px;line-height:125%;letter-spacing:0;word-spacing:0;font-family:Gentium Book Basic">
    <tspan
       x="692.27289"
       y="-934.98425"
       id="tspan3090" />
  </text>
  <text
     x="369.59003"
     y="-4101.0576"
     transform="scale(4.0128205,0.24920128)"
     id="text3092"
     style="font-size:46.95375824px;text-anchor:middle;font-family:Arial" />
  <text
     x="-1140.5271"
     y="479.73578"
     id="text3094"
     style="font-size:208.33000183px;line-height:125%;letter-spacing:0;word-spacing:0;font-family:Gentium Book Basic">
    <tspan
       x="-1140.5271"
       y="479.73578"
       id="tspan3096" />
  </text>
  <text
     x="-693.10394"
     y="148.52612"
     id="text3083"
     style="font-size:129.22999573px;line-height:125%;letter-spacing:0;word-spacing:0;font-family:Gentium Book Basic">
    <tspan
       x="-693.10394"
       y="148.52612"
       id="tspan3085" />
  </text>
  <text
     x="24.358459"
     y="246.84953"
     transform="scale(4.0128205,0.24920128)"
     id="text3087"
     style="font-size:46.95375824px;text-anchor:middle;font-family:Arial" />
  <text
     x="-111.83389"
     y="68.526115"
     id="text3089"
     style="font-size:129.22999573px;line-height:125%;letter-spacing:0;word-spacing:0;font-family:Gentium Book Basic">
    <tspan
       x="-111.83389"
       y="68.526115"
       id="tspan3091" />
  </text>
  <text
     x="169.20772"
     y="-74.178825"
     transform="scale(4.0128205,0.24920128)"
     id="text3093"
     style="font-size:46.95375824px;text-anchor:middle;font-family:Arial" />
  <text
     x="-1183.4139"
     y="-112.73488"
     id="text3095"
     style="font-size:129.22999573px;line-height:125%;letter-spacing:0;word-spacing:0;font-family:Gentium Book Basic">
    <tspan
       x="-1183.4139"
       y="-112.73488"
       id="tspan3097" />
  </text>
  <text
     x="-97.830917"
     y="-801.5351"
     transform="scale(4.0128205,0.24920128)"
     id="text3099"
     style="font-size:46.95375824px;text-anchor:middle;font-family:Arial" />
  <text
     x="-85.363922"
     y="-329.20389"
     id="text3101"
     style="font-size:129.22999573px;line-height:125%;letter-spacing:0;word-spacing:0;font-family:Gentium Book Basic">
    <tspan
       x="-85.363922"
       y="-329.20389"
       id="tspan3103" />
  </text>
  <text
     x="175.80766"
     y="-1670.2008"
     transform="scale(4.0128205,0.24920128)"
     id="text3105"
     style="font-size:46.95375824px;text-anchor:middle;font-family:Arial" />
  <text
     x="495.90604"
     y="-409.2139"
     id="text3107"
     style="font-size:129.22999573px;line-height:125%;letter-spacing:0;word-spacing:0;font-family:Gentium Book Basic">
    <tspan
       x="495.90604"
       y="-409.2139"
       id="tspan3109" />
  </text>
  <text
     x="320.65698"
     y="-1991.239"
     transform="scale(4.0128205,0.24920128)"
     id="text3111"
     style="font-size:46.95375824px;text-anchor:middle;font-family:Arial" />
  <text
     x="106.7861"
     y="-881.61389"
     id="text3113"
     style="font-size:129.22999573px;line-height:125%;letter-spacing:0;word-spacing:0;font-family:Gentium Book Basic">
    <tspan
       x="106.7861"
       y="-881.61389"
       id="tspan3115" />
  </text>
  <text
     x="223.68742"
     y="-3886.8894"
     transform="scale(4.0128205,0.24920128)"
     id="text3117"
     style="font-size:46.95375824px;text-anchor:middle;font-family:Arial" />
  <text
     x="688.04608"
     y="-961.61389"
     id="text3119"
     style="font-size:129.22999573px;line-height:125%;letter-spacing:0;word-spacing:0;font-family:Gentium Book Basic">
    <tspan
       x="688.04608"
       y="-961.61389"
       id="tspan3121" />
  </text>
  <text
     x="368.53674"
     y="-4207.9175"
     transform="scale(4.0128205,0.24920128)"
     id="text3123"
     style="font-size:46.95375824px;text-anchor:middle;font-family:Arial" />
  <text
     x="-1144.7539"
     y="453.10614"
     id="text3125"
     style="font-size:208.33000183px;line-height:125%;letter-spacing:0;word-spacing:0;font-family:Gentium Book Basic">
    <tspan
       x="-1144.7539"
       y="453.10614"
       id="tspan3127" />
  </text>
  <path
     d="m 91.65625,60.210807 0,76.843753 102.46875,0 0,-76.843753 -102.46875,0 z m 243.34375,0 0,89.687503 89.65625,0 C 424.65625,100.389 384.55468,60.210807 335,60.210807 z m -13,12.8125 c -49.50931,0 -89.65625,40.101563 -89.65625,89.656253 0,49.5093 40.10157,89.6875 89.65625,89.6875 49.5093,0 89.6875,-40.13282 89.6875,-89.6875 l -89.6875,0 0,-89.656253 z M 91.65625,175.49206 l 0,76.8125 102.46875,0 0,-76.8125 -102.46875,0 z m 0,115.21875 0,25.59375 333,0 0,-25.59375 -333,0 z"
     inkscape:connector-curvature="0"
     id="path3133"
     style="fill:#f9f9f9" />
</svg>
