<?xml version="1.0" encoding="UTF-8" standalone="no"?>
<!-- Created with Inkscape (http://www.inkscape.org/) -->

<svg
   xmlns:dc="http://purl.org/dc/elements/1.1/"
   xmlns:cc="http://creativecommons.org/ns#"
   xmlns:rdf="http://www.w3.org/1999/02/22-rdf-syntax-ns#"
   xmlns:svg="http://www.w3.org/2000/svg"
   xmlns="http://www.w3.org/2000/svg"
   xmlns:inkscape="http://www.inkscape.org/namespaces/inkscape"
   version="1.1"
   width="100%"
   height="100%"
   viewBox="0 0 512 512"
   id="svg2">
  <metadata
     id="metadata36">
    <rdf:RDF>
      <cc:Work
         rdf:about="">
        <dc:format>image/svg+xml</dc:format>
        <dc:type
           rdf:resource="http://purl.org/dc/dcmitype/StillImage" />
      </cc:Work>
    </rdf:RDF>
  </metadata>
  <defs
     id="defs34" />
  <g
     id="g4"
     style="fill-opacity:0.078">
    <path
       d="m 66.61,0 c -4.047,0 -7.299,3.253 -7.299,7.299 v 497.4 c 0,4.047 3.253,7.299 7.299,7.299 H 445.4 c 4.047,0 7.299,-3.253 7.299,-7.299 V 145.239 L 307.489,-0.001 H 66.609"
       inkscape:connector-curvature="0"
       id="path6" />
    <path
       d="M 69.2,3.5 C 65.209,3.5 62,6.708 62,10.7 v 490.6 c 0,3.991 3.208,7.2 7.2,7.2 h 373.61 c 3.991,0 7.2,-3.208 7.2,-7.2 V 146.75 L 306.79,3.5 H 69.2"
       inkscape:connector-curvature="0"
       id="path8" />
    <path
       d="m 71.786,7 c -3.936,0 -7.1,3.164 -7.1,7.1 v 483.8 c 0,3.936 3.164,7.1 7.1,7.1 h 368.43 c 3.936,0 7.1,-3.164 7.1,-7.1 V 148.27 L 306.076,7 H 71.786"
       inkscape:connector-curvature="0"
       id="path10" />
  </g>
  <path
     d="m 74.38,10.5 c -3.881,0 -7,3.119 -7,7 v 477 c 0,3.881 3.119,7 7,7 h 363.25 c 3.881,0 7,-3.119 7,-7 V 149.78 L 305.38,10.5 h -231"
     inkscape:connector-curvature="0"
     id="path12"
     style="fill:#79c943" />
  <path
     d="m 308.78,148.78 c 4.487,5.957 11.24,10.578 16.06,16.313 39.915,39.949 79.85,79.881 119.78,119.81 V 149.783 H 312.37 c -1.321,0 -2.542,-0.37 -3.594,-1"
     inkscape:connector-curvature="0"
     id="path14"
     style="fill-opacity:0.23500001" />
  <path
     d="M 444.62,149.78 305.37,10.5 v 132.28 c 0,3.881 3.119,7 7,7 h 132.25"
     inkscape:connector-curvature="0"
     id="path16"
     style="fill:#ffffff;fill-opacity:0.19599998" />
  <path
     d="m 224.38,178.56 v 132.63 h -36.813 c 28.675,28.721 57.41,57.38 86.06,86.13 -47.24,0.993 -86.73,2.848 -133.72,6.5 -19.222,8.685 -25.707,21.92 -16.5,36.5 20.559,19.936 41.35,40.535 62.03,61.19 h 252.19 c 3.881,0 7,-3.119 7,-7 V 335.57 c -53.781,-53.768 -106,-105.94 -157.03,-156.97 -19.773,1.263 -42.13,1.648 -63.22,-0.031"
     inkscape:connector-curvature="0"
     id="path18"
     style="fill-opacity:0.23500001" />
  <g
     transform="translate(0,77.983)"
     id="g20">
    <path
       d="m 187.58,233.22 68.41,68.44 68.44,-68.44 H 187.59"
       inkscape:connector-curvature="0"
       id="path22"
       style="fill:#fff8eb" />
    <g
       id="g24"
       style="fill:#ffffff">
      <path
         d="m 224.38,100.59 h 63.25 v 150.34 h -63.25 z"
         inkscape:connector-curvature="0"
         id="path26" />
      <path
         d="m 141,319.34 c -13.85,0 -25,11.15 -25,25 0,13.85 11.15,25 25,25 h 230 c 13.85,0 25,-11.15 25,-25 0,-13.85 -11.15,-25 -25,-25 H 141 m 3.781,11.125 h 222.44 c 7.678,0 13.844,6.197 13.844,13.875 0,7.678 -6.165,13.844 -13.844,13.844 h -222.44 c -7.678,0 -13.844,-6.165 -13.844,-13.844 0,-7.678 6.165,-13.875 13.844,-13.875"
         inkscape:connector-curvature="0"
         id="path28" />
      <path
         d="m 129.43,324.34 h 135.99 v 37.966 H 129.43 z"
         inkscape:connector-curvature="0"
         id="path30" />
    </g>
  </g>
</svg>
