<?xml version="1.0" encoding="UTF-8" standalone="no"?>
<!-- Created with Inkscape (http://www.inkscape.org/) -->

<svg
   xmlns:dc="http://purl.org/dc/elements/1.1/"
   xmlns:cc="http://creativecommons.org/ns#"
   xmlns:rdf="http://www.w3.org/1999/02/22-rdf-syntax-ns#"
   xmlns:svg="http://www.w3.org/2000/svg"
   xmlns="http://www.w3.org/2000/svg"
   xmlns:inkscape="http://www.inkscape.org/namespaces/inkscape"
   version="1.1"
   width="100%"
   height="100%"
   viewBox="0 0 512 512"
   id="svg2">
  <metadata
     id="metadata36">
    <rdf:RDF>
      <cc:Work
         rdf:about="">
        <dc:format>image/svg+xml</dc:format>
        <dc:type
           rdf:resource="http://purl.org/dc/dcmitype/StillImage" />
        <dc:title />
      </cc:Work>
    </rdf:RDF>
  </metadata>
  <defs
     id="defs34" />
  <text
     x="-210.55171"
     y="39.413849"
     id="text20"
     style="font-size:129.22999573px;line-height:125%;letter-spacing:0;word-spacing:0;font-family:Gentium Book Basic">
    <tspan
       x="-210.55171"
       y="39.413849"
       id="tspan22" />
  </text>
  <text
     x="144.61108"
     y="-190.99841"
     transform="scale(4.0128205,0.24920128)"
     id="text24"
     style="font-size:46.95375824px;text-anchor:middle;font-family:Arial" />
  <text
     x="370.71829"
     y="-40.586151"
     id="text26"
     style="font-size:129.22999573px;line-height:125%;letter-spacing:0;word-spacing:0;font-family:Gentium Book Basic">
    <tspan
       x="370.71829"
       y="-40.586151"
       id="tspan28" />
  </text>
  <text
     x="289.46036"
     y="-512.02679"
     transform="scale(4.0128205,0.24920128)"
     id="text30"
     style="font-size:46.95375824px;text-anchor:middle;font-family:Arial" />
  <text
     x="-700.86176"
     y="-221.84715"
     id="text32"
     style="font-size:129.22999573px;line-height:125%;letter-spacing:0;word-spacing:0;font-family:Gentium Book Basic">
    <tspan
       x="-700.86176"
       y="-221.84715"
       id="tspan34" />
  </text>
  <text
     x="22.421707"
     y="-1239.3831"
     transform="scale(4.0128205,0.24920128)"
     id="text36"
     style="font-size:46.95375824px;text-anchor:middle;font-family:Arial" />
  <text
     x="397.18826"
     y="-438.31613"
     id="text38"
     style="font-size:129.22999573px;line-height:125%;letter-spacing:0;word-spacing:0;font-family:Gentium Book Basic">
    <tspan
       x="397.18826"
       y="-438.31613"
       id="tspan40" />
  </text>
  <text
     x="296.0603"
     y="-2108.0486"
     transform="scale(4.0128205,0.24920128)"
     id="text42"
     style="font-size:46.95375824px;text-anchor:middle;font-family:Arial" />
  <text
     x="978.45831"
     y="-518.32617"
     id="text44"
     style="font-size:129.22999573px;line-height:125%;letter-spacing:0;word-spacing:0;font-family:Gentium Book Basic">
    <tspan
       x="978.45831"
       y="-518.32617"
       id="tspan46" />
  </text>
  <text
     x="440.90958"
     y="-2429.0869"
     transform="scale(4.0128205,0.24920128)"
     id="text48"
     style="font-size:46.95375824px;text-anchor:middle;font-family:Arial" />
  <text
     x="589.33832"
     y="-990.7262"
     id="text50"
     style="font-size:129.22999573px;line-height:125%;letter-spacing:0;word-spacing:0;font-family:Gentium Book Basic">
    <tspan
       x="589.33832"
       y="-990.7262"
       id="tspan52" />
  </text>
  <text
     x="343.94006"
     y="-4324.7373"
     transform="scale(4.0128205,0.24920128)"
     id="text54"
     style="font-size:46.95375824px;text-anchor:middle;font-family:Arial" />
  <text
     x="1170.5983"
     y="-1070.7262"
     id="text56"
     style="font-size:129.22999573px;line-height:125%;letter-spacing:0;word-spacing:0;font-family:Gentium Book Basic">
    <tspan
       x="1170.5983"
       y="-1070.7262"
       id="tspan58" />
  </text>
  <text
     x="488.78934"
     y="-4645.7656"
     transform="scale(4.0128205,0.24920128)"
     id="text60"
     style="font-size:46.95375824px;text-anchor:middle;font-family:Arial" />
  <text
     x="-662.20172"
     y="343.99387"
     id="text62"
     style="font-size:208.33000183px;line-height:125%;letter-spacing:0;word-spacing:0;font-family:Gentium Book Basic">
    <tspan
       x="-662.20172"
       y="343.99387"
       id="tspan64" />
  </text>
  <text
     x="91.809502"
     y="209.66508"
     id="text20-3"
     style="font-size:129.22999573px;line-height:125%;letter-spacing:0;word-spacing:0;font-family:Gentium Book Basic">
    <tspan
       x="91.809502"
       y="209.66508"
       id="tspan22-6" />
  </text>
  <text
     x="219.95988"
     y="492.18924"
     transform="scale(4.0128205,0.24920128)"
     id="text24-5"
     style="font-size:46.95375824px;text-anchor:middle;font-family:Arial" />
  <text
     x="673.07953"
     y="129.66508"
     id="text26-2"
     style="font-size:129.22999573px;line-height:125%;letter-spacing:0;word-spacing:0;font-family:Gentium Book Basic">
    <tspan
       x="673.07953"
       y="129.66508"
       id="tspan28-9" />
  </text>
  <text
     x="364.80914"
     y="171.16087"
     transform="scale(4.0128205,0.24920128)"
     id="text30-0"
     style="font-size:46.95375824px;text-anchor:middle;font-family:Arial" />
  <text
     x="-398.50052"
     y="-51.595913"
     id="text32-5"
     style="font-size:129.22999573px;line-height:125%;letter-spacing:0;word-spacing:0;font-family:Gentium Book Basic">
    <tspan
       x="-398.50052"
       y="-51.595913"
       id="tspan34-6" />
  </text>
  <text
     x="97.770508"
     y="-556.19543"
     transform="scale(4.0128205,0.24920128)"
     id="text36-2"
     style="font-size:46.95375824px;text-anchor:middle;font-family:Arial" />
  <text
     x="699.5495"
     y="-268.06491"
     id="text38-0"
     style="font-size:129.22999573px;line-height:125%;letter-spacing:0;word-spacing:0;font-family:Gentium Book Basic">
    <tspan
       x="699.5495"
       y="-268.06491"
       id="tspan40-5" />
  </text>
  <text
     x="371.40909"
     y="-1424.861"
     transform="scale(4.0128205,0.24920128)"
     id="text42-8"
     style="font-size:46.95375824px;text-anchor:middle;font-family:Arial" />
  <text
     x="1280.8195"
     y="-348.07492"
     id="text44-4"
     style="font-size:129.22999573px;line-height:125%;letter-spacing:0;word-spacing:0;font-family:Gentium Book Basic">
    <tspan
       x="1280.8195"
       y="-348.07492"
       id="tspan46-8" />
  </text>
  <text
     x="516.25836"
     y="-1745.8993"
     transform="scale(4.0128205,0.24920128)"
     id="text48-0"
     style="font-size:46.95375824px;text-anchor:middle;font-family:Arial" />
  <text
     x="891.69952"
     y="-820.47491"
     id="text50-3"
     style="font-size:129.22999573px;line-height:125%;letter-spacing:0;word-spacing:0;font-family:Gentium Book Basic">
    <tspan
       x="891.69952"
       y="-820.47491"
       id="tspan52-6" />
  </text>
  <text
     x="419.28885"
     y="-3641.5496"
     transform="scale(4.0128205,0.24920128)"
     id="text54-1"
     style="font-size:46.95375824px;text-anchor:middle;font-family:Arial" />
  <text
     x="1472.9595"
     y="-900.47491"
     id="text56-1"
     style="font-size:129.22999573px;line-height:125%;letter-spacing:0;word-spacing:0;font-family:Gentium Book Basic">
    <tspan
       x="1472.9595"
       y="-900.47491"
       id="tspan58-5" />
  </text>
  <text
     x="564.13812"
     y="-3962.5779"
     transform="scale(4.0128205,0.24920128)"
     id="text60-7"
     style="font-size:46.95375824px;text-anchor:middle;font-family:Arial" />
  <text
     x="-359.84052"
     y="514.24512"
     id="text62-2"
     style="font-size:208.33000183px;line-height:125%;letter-spacing:0;word-spacing:0;font-family:Gentium Book Basic">
    <tspan
       x="-359.84052"
       y="514.24512"
       id="tspan64-1" />
  </text>
  <text
     x="78.792557"
     y="179.29221"
     id="text20-2"
     style="font-size:129.22999573px;line-height:125%;letter-spacing:0;word-spacing:0;font-family:Gentium Book Basic">
    <tspan
       x="78.792557"
       y="179.29221"
       id="tspan22-5" />
  </text>
  <text
     x="216.71605"
     y="370.30832"
     transform="scale(4.0128205,0.24920128)"
     id="text24-9"
     style="font-size:46.95375824px;text-anchor:middle;font-family:Arial" />
  <text
     x="660.06256"
     y="99.292206"
     id="text26-7"
     style="font-size:129.22999573px;line-height:125%;letter-spacing:0;word-spacing:0;font-family:Gentium Book Basic">
    <tspan
       x="660.06256"
       y="99.292206"
       id="tspan28-1" />
  </text>
  <text
     x="361.56531"
     y="49.279953"
     transform="scale(4.0128205,0.24920128)"
     id="text30-6"
     style="font-size:46.95375824px;text-anchor:middle;font-family:Arial" />
  <text
     x="-411.51746"
     y="-81.968796"
     id="text32-9"
     style="font-size:129.22999573px;line-height:125%;letter-spacing:0;word-spacing:0;font-family:Gentium Book Basic">
    <tspan
       x="-411.51746"
       y="-81.968796"
       id="tspan34-3" />
  </text>
  <text
     x="94.526672"
     y="-678.07635"
     transform="scale(4.0128205,0.24920128)"
     id="text36-7"
     style="font-size:46.95375824px;text-anchor:middle;font-family:Arial" />
  <text
     x="686.53253"
     y="-298.43781"
     id="text38-6"
     style="font-size:129.22999573px;line-height:125%;letter-spacing:0;word-spacing:0;font-family:Gentium Book Basic">
    <tspan
       x="686.53253"
       y="-298.43781"
       id="tspan40-1" />
  </text>
  <text
     x="368.16525"
     y="-1546.7419"
     transform="scale(4.0128205,0.24920128)"
     id="text42-1"
     style="font-size:46.95375824px;text-anchor:middle;font-family:Arial" />
  <text
     x="1267.8026"
     y="-378.44781"
     id="text44-7"
     style="font-size:129.22999573px;line-height:125%;letter-spacing:0;word-spacing:0;font-family:Gentium Book Basic">
    <tspan
       x="1267.8026"
       y="-378.44781"
       id="tspan46-9" />
  </text>
  <text
     x="513.01453"
     y="-1867.7802"
     transform="scale(4.0128205,0.24920128)"
     id="text48-1"
     style="font-size:46.95375824px;text-anchor:middle;font-family:Arial" />
  <text
     x="878.68256"
     y="-850.84784"
     id="text50-1"
     style="font-size:129.22999573px;line-height:125%;letter-spacing:0;word-spacing:0;font-family:Gentium Book Basic">
    <tspan
       x="878.68256"
       y="-850.84784"
       id="tspan52-7" />
  </text>
  <text
     x="416.04501"
     y="-3763.4304"
     transform="scale(4.0128205,0.24920128)"
     id="text54-2"
     style="font-size:46.95375824px;text-anchor:middle;font-family:Arial" />
  <text
     x="1459.9426"
     y="-930.84784"
     id="text56-6"
     style="font-size:129.22999573px;line-height:125%;letter-spacing:0;word-spacing:0;font-family:Gentium Book Basic">
    <tspan
       x="1459.9426"
       y="-930.84784"
       id="tspan58-3" />
  </text>
  <text
     x="560.89429"
     y="-4084.459"
     transform="scale(4.0128205,0.24920128)"
     id="text60-5"
     style="font-size:46.95375824px;text-anchor:middle;font-family:Arial" />
  <text
     x="-372.85748"
     y="483.87219"
     id="text62-7"
     style="font-size:208.33000183px;line-height:125%;letter-spacing:0;word-spacing:0;font-family:Gentium Book Basic">
    <tspan
       x="-372.85748"
       y="483.87219"
       id="tspan64-8" />
  </text>
  <text
     x="39.500423"
     y="244.97818"
     id="text20-7"
     style="font-size:129.22999573px;line-height:125%;letter-spacing:0;word-spacing:0;font-family:Gentium Book Basic">
    <tspan
       x="39.500423"
       y="244.97818"
       id="tspan22-4" />
  </text>
  <text
     x="206.92439"
     y="633.89435"
     transform="scale(4.0128205,0.24920128)"
     id="text24-4"
     style="font-size:46.95375824px;text-anchor:middle;font-family:Arial" />
  <text
     x="620.77045"
     y="164.97818"
     id="text26-74"
     style="font-size:129.22999573px;line-height:125%;letter-spacing:0;word-spacing:0;font-family:Gentium Book Basic">
    <tspan
       x="620.77045"
       y="164.97818"
       id="tspan28-2" />
  </text>
  <text
     x="351.77365"
     y="312.86597"
     transform="scale(4.0128205,0.24920128)"
     id="text30-61"
     style="font-size:46.95375824px;text-anchor:middle;font-family:Arial" />
  <text
     x="-450.8096"
     y="-16.282822"
     id="text32-2"
     style="font-size:129.22999573px;line-height:125%;letter-spacing:0;word-spacing:0;font-family:Gentium Book Basic">
    <tspan
       x="-450.8096"
       y="-16.282822"
       id="tspan34-7" />
  </text>
  <text
     x="84.735023"
     y="-414.49033"
     transform="scale(4.0128205,0.24920128)"
     id="text36-0"
     style="font-size:46.95375824px;text-anchor:middle;font-family:Arial" />
  <text
     x="647.24042"
     y="-232.75182"
     id="text38-06"
     style="font-size:129.22999573px;line-height:125%;letter-spacing:0;word-spacing:0;font-family:Gentium Book Basic">
    <tspan
       x="647.24042"
       y="-232.75182"
       id="tspan40-4" />
  </text>
  <text
     x="358.3736"
     y="-1283.1559"
     transform="scale(4.0128205,0.24920128)"
     id="text42-0"
     style="font-size:46.95375824px;text-anchor:middle;font-family:Arial" />
  <text
     x="1228.5104"
     y="-312.76184"
     id="text44-6"
     style="font-size:129.22999573px;line-height:125%;letter-spacing:0;word-spacing:0;font-family:Gentium Book Basic">
    <tspan
       x="1228.5104"
       y="-312.76184"
       id="tspan46-92" />
  </text>
  <text
     x="503.2229"
     y="-1604.1942"
     transform="scale(4.0128205,0.24920128)"
     id="text48-9"
     style="font-size:46.95375824px;text-anchor:middle;font-family:Arial" />
  <text
     x="839.39044"
     y="-785.16187"
     id="text50-17"
     style="font-size:129.22999573px;line-height:125%;letter-spacing:0;word-spacing:0;font-family:Gentium Book Basic">
    <tspan
       x="839.39044"
       y="-785.16187"
       id="tspan52-1" />
  </text>
  <text
     x="406.25336"
     y="-3499.8445"
     transform="scale(4.0128205,0.24920128)"
     id="text54-4"
     style="font-size:46.95375824px;text-anchor:middle;font-family:Arial" />
  <text
     x="1420.6504"
     y="-865.16187"
     id="text56-7"
     style="font-size:129.22999573px;line-height:125%;letter-spacing:0;word-spacing:0;font-family:Gentium Book Basic">
    <tspan
       x="1420.6504"
       y="-865.16187"
       id="tspan58-34" />
  </text>
  <text
     x="551.10266"
     y="-3820.8728"
     transform="scale(4.0128205,0.24920128)"
     id="text60-0"
     style="font-size:46.95375824px;text-anchor:middle;font-family:Arial" />
  <g
     transform="translate(-690.13959,13.618177)"
     id="g62"
     style="line-height:125%;letter-spacing:0;word-spacing:0;font-family:Gentium Book Basic">
    <text
       x="277.98999"
       y="535.94"
       id="text64"
       style="font-size:208.33000183px">
      <tspan
         x="277.98999"
         y="535.94"
         id="tspan66" />
    </text>
    <text
       x="148.44"
       y="135.64999"
       id="text68"
       style="font-size:129.22999573px">
      <tspan
         x="148.44"
         y="135.64999"
         id="tspan70" />
    </text>
  </g>
  <text
     x="62.085144"
     y="249.8463"
     transform="scale(4.0128205,0.24920128)"
     id="text72"
     style="font-size:46.95375824px;text-anchor:middle;font-family:Arial" />
  <text
     x="39.570431"
     y="69.273178"
     id="text74"
     style="font-size:129.22999573px;line-height:125%;letter-spacing:0;word-spacing:0;font-family:Gentium Book Basic">
    <tspan
       x="39.570431"
       y="69.273178"
       id="tspan76" />
  </text>
  <text
     x="206.9344"
     y="-71.18206"
     transform="scale(4.0128205,0.24920128)"
     id="text78"
     style="font-size:46.95375824px;text-anchor:middle;font-family:Arial" />
  <text
     x="-1032.0096"
     y="-111.99182"
     id="text80"
     style="font-size:129.22999573px;line-height:125%;letter-spacing:0;word-spacing:0;font-family:Gentium Book Basic">
    <tspan
       x="-1032.0096"
       y="-111.99182"
       id="tspan82" />
  </text>
  <text
     x="-60.10424"
     y="-798.53833"
     transform="scale(4.0128205,0.24920128)"
     id="text84"
     style="font-size:46.95375824px;text-anchor:middle;font-family:Arial" />
  <text
     x="66.040405"
     y="-328.46182"
     id="text86"
     style="font-size:129.22999573px;line-height:125%;letter-spacing:0;word-spacing:0;font-family:Gentium Book Basic">
    <tspan
       x="66.040405"
       y="-328.46182"
       id="tspan88" />
  </text>
  <text
     x="213.53435"
     y="-1667.1938"
     transform="scale(4.0128205,0.24920128)"
     id="text90"
     style="font-size:46.95375824px;text-anchor:middle;font-family:Arial" />
  <text
     x="647.31036"
     y="-408.47183"
     id="text92"
     style="font-size:129.22999573px;line-height:125%;letter-spacing:0;word-spacing:0;font-family:Gentium Book Basic">
    <tspan
       x="647.31036"
       y="-408.47183"
       id="tspan94" />
  </text>
  <text
     x="358.38361"
     y="-1988.2323"
     transform="scale(4.0128205,0.24920128)"
     id="text96"
     style="font-size:46.95375824px;text-anchor:middle;font-family:Arial" />
  <text
     x="258.19043"
     y="-880.87183"
     id="text98"
     style="font-size:129.22999573px;line-height:125%;letter-spacing:0;word-spacing:0;font-family:Gentium Book Basic">
    <tspan
       x="258.19043"
       y="-880.87183"
       id="tspan100" />
  </text>
  <text
     x="261.41412"
     y="-3883.8726"
     transform="scale(4.0128205,0.24920128)"
     id="text102"
     style="font-size:46.95375824px;text-anchor:middle;font-family:Arial" />
  <text
     x="839.45038"
     y="-960.87183"
     id="text104"
     style="font-size:129.22999573px;line-height:125%;letter-spacing:0;word-spacing:0;font-family:Gentium Book Basic">
    <tspan
       x="839.45038"
       y="-960.87183"
       id="tspan106" />
  </text>
  <text
     x="406.26337"
     y="-4204.9009"
     transform="scale(4.0128205,0.24920128)"
     id="text108"
     style="font-size:46.95375824px;text-anchor:middle;font-family:Arial" />
  <text
     x="-993.34961"
     y="453.84818"
     id="text110"
     style="font-size:208.33000183px;line-height:125%;letter-spacing:0;word-spacing:0;font-family:Gentium Book Basic">
    <tspan
       x="-993.34961"
       y="453.84818"
       id="tspan112" />
  </text>
  <g
     transform="translate(-0.005,0.0015)"
     id="g12938"
     style="fill-opacity:0.078">
    <path
       d="m 66.61,0 c -4.047,0 -7.299,3.253 -7.299,7.299 v 497.4 c 0,4.047 3.253,7.299 7.299,7.299 H 445.4 c 4.047,0 7.299,-3.253 7.299,-7.299 V 145.239 L 307.489,-0.001 H 66.609"
       inkscape:connector-curvature="0"
       id="path12940" />
    <path
       d="M 69.2,3.5 C 65.209,3.5 62,6.708 62,10.7 v 490.6 c 0,3.991 3.208,7.2 7.2,7.2 h 373.61 c 3.991,0 7.2,-3.208 7.2,-7.2 V 146.75 L 306.79,3.5 H 69.2"
       inkscape:connector-curvature="0"
       id="path12942" />
    <path
       d="m 71.786,7 c -3.936,0 -7.1,3.164 -7.1,7.1 v 483.8 c 0,3.936 3.164,7.1 7.1,7.1 h 368.43 c 3.936,0 7.1,-3.164 7.1,-7.1 V 148.27 L 306.076,7 H 71.786"
       inkscape:connector-curvature="0"
       id="path12944" />
  </g>
  <path
     d="m 74.375,10.5015 c -3.881,0 -7,3.119 -7,7 v 477 c 0,3.881 3.119,7 7,7 h 363.25 c 3.881,0 7,-3.119 7,-7 v -344.72 l -139.25,-139.28 h -231"
     inkscape:connector-curvature="0"
     id="path12946"
     style="fill:#009587" />
  <path
     d="m 105.995,131.9115 v 26.16 h 2 v 2 h 1.969 v 1.969 h 2 v 2 h 2 v 2 h 1.969 v 1.969 h 2 v 2 h 2 v 2 h 1.969 v 1.969 h 2 v 2 h 2 v 2 h 1.969 v 1.969 h 2 v 2 h 2 v 2 h 2 v 2 h 1.969 v 1.469 h -29.844 v 26.16 h 2 v 2 h 1.969 v 1.969 h 2 v 2 h 2 v 2 h 1.969 v 1.969 h 2 v 2 h 2 v 2 h 1.969 v 1.969 h 2 v 2 h 2 v 2 h 1.969 v 1.969 h 2 v 2 h 2 v 2 h 2 v 2 h 1.969 v 1.469 h -29.844 v 26.19 h 2 v 2 h 1.969 v 1.969 h 2 v 2 h 2 v 2 h 1.969 v 1.969 h 2 v 2 h 2 v 2 h 1.969 v 1.969 h 2 v 2 h 2 v 2 h 1.969 v 1.969 h 2 v 2 h 2 v 2 h 2 v 2 h 1.969 v 1.469 h -29.844 v 26.16 h 2 v 2 h 1.969 v 1.969 h 2 v 2 h 2 v 2 h 1.969 v 1.969 h 2 v 2 h 2 v 2 h 1.969 v 1.969 h 2 v 2 h 2 v 2 h 1.969 v 1.969 h 2 v 2 h 2 v 2 h 2 v 2 h 1.969 v 1.469 h -29.844 v 26.16 h 2 v 2 h 1.969 v 1.969 h 2 v 2 h 2 v 2 h 1.969 v 1.969 h 2 v 2 h 2 v 2 h 1.969 v 1.969 h 2 v 2 h 2 v 2 h 1.969 v 1.969 h 2 v 2 h 2 v 2 h 2 v 2 h 1.969 v 1.969 h 2 v 2 h 2 v 2 h 1.969 v 1.969 h 2 v 2 h 2 v 2 h 1.969 v 1.969 h 2 v 2 h 2 v 2 h 1.969 v 1.969 h 2 v 2 h 2 v 2 h 1.969 v 1.969 h 2 v 2 h 2 v 2 h 1.969 v 1.969 h 2 v 2 h 2 v 2 h 1.969 v 1.969 h 2 v 2 h 2 v 2 h 2 v 2 h 1.969 v 1.969 h 2 v 2 h 2 v 2 h 1.969 v 1.969 h 2 v 2 h 2 v 2 h 1.969 v 1.969 h 2 v 2 h 2 v 2 h 1.969 v 1.969 h 2 v 2 h 2 v 2 h 1.969 v 1.969 h 2 v 2 h 2 v 2 h 1.969 v 1.969 h 2 v 2 h 2 v 2 h 1.969 v 1.969 h 2 v 2 h 2 v 2 h 2 v 2 h 1.969 v 1.969 h 2 v 2 h 2 v 2 h 1.969 208.25 c 3.881,0 7,-3.119 7,-7 v -344.72 h -132.25 c -0.364,0 -0.714,-0.041 -1.063,-0.094 -0.12,-0.018 -0.226,-0.038 -0.344,-0.063 -0.209,-0.042 -0.424,-0.096 -0.625,-0.156 -0.239,-0.072 -0.46,-0.154 -0.688,-0.25 -0.137,-0.059 -0.273,-0.12 -0.406,-0.188 -0.251,-0.125 -0.486,-0.253 -0.719,-0.406 0.52,0.789 1.18,1.48 1.969,2 0.521,0.789 1.211,1.449 2,1.969 0.521,0.79 1.21,1.479 2,2 0.528,0.8 1.196,1.508 2,2.031 0.513,0.771 1.166,1.424 1.938,1.938 0.524,0.804 1.231,1.472 2.031,2 0.528,0.8 1.196,1.508 2,2.031 0.513,0.771 1.166,1.424 1.938,1.938 0.524,0.804 1.231,1.472 2.031,2 0.528,0.8 1.196,1.508 2,2.031 0.513,0.771 1.167,1.425 1.938,1.938 0.524,0.804 1.231,1.472 2.031,2 0.528,0.8 1.196,1.508 2,2.031 0.513,0.771 1.166,1.424 1.938,1.938 0.524,0.804 1.231,1.472 2.031,2 0.528,0.8 1.196,1.508 2,2.031 0.513,0.772 1.166,1.424 1.938,1.938 0.524,0.804 1.231,1.472 2.031,2 0.521,0.79 1.21,1.479 2,2 0.231,0.351 0.492,0.666 0.781,0.969 h -9.438 v -1.781 h -1.969 v -1.969 h -2 v -2 h -2 v -2 h -1.969 v -1.969 h -2 v -2 h -2 v -2 h -1.969 v -1.969 h -2 v -2 h -2 v -2 h -1.969 v -1.969 h -2 v -2 h -2 v -2 h -1.969 v -1.969 h -2 v -2 h -2 v -2 h -2 v -2 h -1.969 v -1.969 h -2 v -2 h -2 v -2 h -1.969 v -1.969 h -2 v -2 h -2 v -2 h -1.969 v -1.969 h -2 v -2 h -2 v -2 h -1.969 v -1.969 h -2 v -2 H 106"
     inkscape:connector-curvature="0"
     id="path12948"
     style="fill-opacity:0.23500001" />
  <path
     d="m 106,131.90625 0,26.15625 177.96875,0 0,-26.15625 -177.96875,0 z m 0,55.5 0,26.15625 300,0 0,-26.15625 -300,0 z m 0,55.5 0,26.1875 231.90625,0 c 0.22972,-0.18645 0.45732,-0.37658 0.6875,-0.5625 11.724,-8.08904 22.85008,-18.47763 35.40625,-25.625 l -268,0 z m 0,55.53125 0,26.15625 175.3125,0 c 7.78435,-8.9893 15.83606,-17.74292 24.21875,-26.15625 l -199.53125,0 z m 300,5.25 c -6.73099,6.78783 -13.2799,13.75724 -19.625,20.90625 l 19.625,0 0,-20.90625 z m -300,50.25 0,26.15625 89.4375,0 c -5.05243,-7.75108 -5.50819,-17.45256 -2.625,-26.15625 l -86.8125,0 z m 256.25,0 c -6.49327,8.51913 -12.72452,17.23411 -18.65625,26.15625 l 62.40625,0 0,-26.15625 -43.75,0 z"
     inkscape:connector-curvature="0"
     id="path12952"
     style="fill:#ffffff" />
  <path
     d="m 444.615,149.7815 -139.25,-139.28 v 132.28 c 0,3.881 3.119,7 7,7 h 132.25"
     inkscape:connector-curvature="0"
     id="path12954"
     style="fill:#ffffff;fill-opacity:0.19599998" />
  <text
     x="-575.7395"
     y="116.28439"
     id="text13000"
     style="font-size:200px;line-height:125%;letter-spacing:0;word-spacing:0;fill:#555753;stroke:#555753;font-family:Gentium Book Basic">
    <tspan
       x="-575.7395"
       y="116.28439"
       id="tspan13002" />
  </text>
  <text
     x="161.54237"
     y="-73.743103"
     transform="scale(4.0128361,0.24920031)"
     id="text13004"
     style="font-size:72.6697998px;text-anchor:middle;fill:#555753;stroke:none;font-family:Arial" />
  <text
     x="169.63625"
     y="169.4272"
     id="text13006"
     style="font-size:200px;line-height:125%;letter-spacing:0;word-spacing:0;fill:#555753;stroke:#555753;font-family:Gentium Book Basic">
    <tspan
       x="169.63625"
       y="169.4272"
       id="tspan13008" />
  </text>
  <text
     x="347.29022"
     y="139.51056"
     transform="scale(4.0128361,0.24920031)"
     id="text13010"
     style="font-size:72.6697998px;text-anchor:middle;fill:#555753;stroke:none;font-family:Arial" />
  <text
     x="1069.2507"
     y="45.609943"
     id="text13012"
     style="font-size:200px;line-height:125%;letter-spacing:0;word-spacing:0;fill:#555753;stroke:#555753;font-family:Gentium Book Basic">
    <tspan
       x="1069.2507"
       y="45.609943"
       id="tspan13014" />
  </text>
  <text
     x="571.47449"
     y="-357.34833"
     transform="scale(4.0128361,0.24920031)"
     id="text13016"
     style="font-size:72.6697998px;text-anchor:middle;fill:#555753;stroke:none;font-family:Arial" />
  <text
     x="197.10085"
     y="-7.0279374"
     id="text13018"
     style="font-size:200px;line-height:125%;letter-spacing:0;word-spacing:0;fill:#555753;stroke:#555753;font-family:Gentium Book Basic">
    <tspan
       x="197.10085"
       y="-7.0279374"
       id="tspan13020" />
  </text>
  <text
     x="354.1344"
     y="-568.57513"
     transform="scale(4.0128361,0.24920031)"
     id="text13022"
     style="font-size:72.6697998px;text-anchor:middle;fill:#555753;stroke:none;font-family:Arial" />
  <text
     x="1096.7155"
     y="-130.84531"
     id="text13024"
     style="font-size:200px;line-height:125%;letter-spacing:0;word-spacing:0;fill:#555753;stroke:#555753;font-family:Gentium Book Basic">
    <tspan
       x="1096.7155"
       y="-130.84531"
       id="tspan13026" />
  </text>
  <text
     x="578.31866"
     y="-1065.4341"
     transform="scale(4.0128361,0.24920031)"
     id="text13028"
     style="font-size:72.6697998px;text-anchor:middle;fill:#555753;stroke:none;font-family:Arial" />
  <text
     x="-2812.8823"
     y="444.8558"
     id="text13030"
     style="font-size:200px;line-height:125%;letter-spacing:0;word-spacing:0;fill:#555753;stroke:#555753;font-family:Gentium Book Basic">
    <tspan
       x="-2812.8823"
       y="444.8558"
       id="tspan13032" />
  </text>
  <text
     x="-395.95432"
     y="1244.7604"
     transform="scale(4.0128361,0.24920031)"
     id="text13034"
     style="font-size:72.6697998px;text-anchor:middle;fill:#555753;stroke:none;font-family:Arial" />
  <path
     d="m 397.36123,250.81197 a 16.69662,16.69662 0 0 0 -8.28125,2.125 c -41.55282,23.44695 -84.70047,64.77428 -122.8125,115.75 l -34.3125,-19.375 a 16.69662,16.69662 0 0 0 -20.875,25.4375 l 55.375,64.21875 a 16.69662,16.69662 0 0 0 27.625,-3.53125 c 27.60987,-56.27982 60.69247,-106.96038 114.40625,-155.5625 a 16.69662,16.69662 0 0 0 -11.125,-29.0625 z"
     inkscape:connector-curvature="0"
     id="path13036"
     style="font-size:medium;font-style:normal;font-variant:normal;font-weight:normal;font-stretch:normal;text-indent:0;text-align:start;text-decoration:none;line-height:normal;letter-spacing:normal;word-spacing:normal;text-transform:none;direction:ltr;block-progression:tb;writing-mode:lr-tb;text-anchor:start;baseline-shift:baseline;color:#000000;fill:#ffffff;fill-opacity:1;fill-rule:nonzero;stroke:none;stroke-width:33.38990021;marker:none;visibility:visible;display:inline;overflow:visible;enable-background:accumulate;font-family:Sans;-inkscape-font-specification:Sans" />
  <text
     x="-957.33099"
     y="478.97345"
     id="text13038"
     style="font-size:208.33332825px;line-height:125%;letter-spacing:0;word-spacing:0;font-family:Gentium Book Basic">
    <tspan
       x="-957.33099"
       y="478.97345"
       id="tspan13040" />
  </text>
  <text
     x="79.158661"
     y="1359.1525"
     transform="scale(4.0128362,0.2492003)"
     id="text13042"
     style="font-size:75.69770813px;text-anchor:middle;font-family:Arial" />
</svg>
