<?xml version="1.0" encoding="UTF-8" standalone="no"?>
<!-- Created with Inkscape (http://www.inkscape.org/) -->

<svg
   xmlns:dc="http://purl.org/dc/elements/1.1/"
   xmlns:cc="http://creativecommons.org/ns#"
   xmlns:rdf="http://www.w3.org/1999/02/22-rdf-syntax-ns#"
   xmlns:svg="http://www.w3.org/2000/svg"
   xmlns="http://www.w3.org/2000/svg"
   xmlns:inkscape="http://www.inkscape.org/namespaces/inkscape"
   version="1.1"
   width="100%"
   height="100%"
   viewBox="0 0 512 512"
   id="svg2">
  <metadata
     id="metadata347">
    <rdf:RDF>
      <cc:Work
         rdf:about="">
        <dc:format>image/svg+xml</dc:format>
        <dc:type
           rdf:resource="http://purl.org/dc/dcmitype/StillImage" />
      </cc:Work>
    </rdf:RDF>
  </metadata>
  <defs
     id="defs4">
    <clipPath
       id="0">
      <path
         d="m 74.37,10.5 c -3.881,0 -7,3.119 -7,7 v 477 c 0,3.881 3.119,7 7,7 h 363.25 c 3.881,0 7,-3.119 7,-7 V 149.78 L 305.37,10.5 h -231"
         inkscape:connector-curvature="0"
         id="path7" />
    </clipPath>
  </defs>
  <g
     id="g9"
     style="fill-opacity:0.078">
    <path
       d="m 66.61,0 c -4.047,0 -7.299,3.253 -7.299,7.299 v 497.4 c 0,4.047 3.253,7.299 7.299,7.299 H 445.4 c 4.047,0 7.299,-3.253 7.299,-7.299 V 145.239 L 307.489,-0.001 H 66.609"
       inkscape:connector-curvature="0"
       id="path11" />
    <path
       d="M 69.2,3.5 C 65.209,3.5 62,6.708 62,10.7 v 490.6 c 0,3.991 3.208,7.2 7.2,7.2 h 373.61 c 3.991,0 7.2,-3.208 7.2,-7.2 V 146.75 L 306.79,3.5 H 69.2"
       inkscape:connector-curvature="0"
       id="path13" />
    <path
       d="m 71.786,7 c -3.936,0 -7.1,3.164 -7.1,7.1 v 483.8 c 0,3.936 3.164,7.1 7.1,7.1 h 368.43 c 3.936,0 7.1,-3.164 7.1,-7.1 V 148.27 L 306.076,7 H 71.786"
       inkscape:connector-curvature="0"
       id="path15" />
  </g>
  <path
     d="m 74.37,10.5 c -3.881,0 -7,3.119 -7,7 v 477 c 0,3.881 3.119,7 7,7 h 363.25 c 3.881,0 7,-3.119 7,-7 V 149.78 L 305.37,10.5 h -231"
     inkscape:connector-curvature="0"
     id="path17"
     style="fill:#f29643" />
  <path
     d="M 444.62,149.78 305.37,10.5 v 132.28 c 0,3.881 3.119,7 7,7 h 132.25"
     inkscape:connector-curvature="0"
     id="path19"
     style="fill:#ffffff;fill-opacity:0.19599998" />
  <g
     clip-path="url(#0)"
     id="g21"
     style="opacity:0.25;fill-rule:evenodd">
    <path
       d="m 299.25,185.76 c -1.84,0.062 -3.714,0.113 -5.797,0.223 l 215.95,215.95 c 2.084,-0.11 3.958,-0.161 5.797,-0.223 z"
       inkscape:connector-curvature="0"
       id="path23" />
    <path
       d="m 293.45,185.98 c -6.172,1.288 -11.919,4.156 -17.838,6.243 l 215.95,215.95 c 5.919,-2.087 11.666,-4.956 17.838,-6.243 z"
       inkscape:connector-curvature="0"
       id="path25" />
    <path
       d="m 275.61,192.23 c -9.157,3.592 -17.961,9.732 -21.739,19.06 l 215.95,215.95 c 3.778,-9.332 12.582,-15.472 21.739,-19.06 z"
       inkscape:connector-curvature="0"
       id="path27" />
    <path
       d="m 253.87,211.29 c -0.947,2.068 -5.097,8.775 -7.247,11.817 l 215.95,215.95 c 2.15,-3.042 6.299,-9.749 7.247,-11.817 z"
       inkscape:connector-curvature="0"
       id="path29" />
    <path
       d="m 246.63,223.11 c -4.03,4.699 -9.135,8.553 -14.27,11.929 l 215.95,215.95 c 5.135,-3.376 10.245,-7.23 14.27,-11.929 z"
       inkscape:connector-curvature="0"
       id="path31" />
    <path
       d="m 232.36,235.04 c -6.376,3.792 -11.578,8.798 -17.838,17.17 l 215.95,215.95 c 6.26,-8.37 11.462,-13.376 17.838,-17.17 z"
       inkscape:connector-curvature="0"
       id="path33" />
    <path
       d="m 214.52,252.21 c -6.326,8.697 -6.877,16.254 -10.03,26.09 l 215.95,215.95 c 3.156,-9.833 3.708,-17.391 10.03,-26.09 z"
       inkscape:connector-curvature="0"
       id="path35" />
    <path
       d="m 204.49,278.29 c -2.235,2.364 -4.254,2.144 -5.664,0.734 l 215.95,215.95 c 1.41,1.41 3.429,1.63 5.664,-0.734 z"
       inkscape:connector-curvature="0"
       id="path37" />
    <path
       d="m 198.82,279.03 c -1.659,-1.659 -2.474,-4.964 -1.805,-7.646 l 215.95,215.95 c -0.669,2.681 0.146,5.987 1.805,7.646 z"
       inkscape:connector-curvature="0"
       id="path39" />
    <path
       d="m 197.02,271.38 c 2.977,-12 8.327,-22.828 7.581,-35.564 l 215.95,215.95 c 0.746,12.736 -4.604,23.561 -7.581,35.564 z"
       inkscape:connector-curvature="0"
       id="path41" />
    <path
       d="m 204.6,235.82 c -1.24,-11.283 -4.773,-25.11 -13.01,-33.35 l 215.95,215.95 c 8.239,8.239 11.772,22.06 13.01,33.35 z"
       inkscape:connector-curvature="0"
       id="path43" />
    <path
       d="m 191.58,202.47 c -4.01,-4.01 -9.128,-6.693 -15.639,-7.121 l 215.95,215.95 c 6.511,0.428 11.632,3.114 15.639,7.121 z"
       inkscape:connector-curvature="0"
       id="path45" />
    <path
       d="m 175.95,195.35 c -4.447,0.014 -5.71,0.716 -10.703,5.24 l 215.95,215.95 c 4.992,-4.523 6.256,-5.226 10.703,-5.24 z"
       inkscape:connector-curvature="0"
       id="path47" />
    <path
       d="m 165.24,200.59 c -3.343,3.03 -5.568,4.059 -11.04,5.463 l 215.95,215.95 c 5.469,-1.404 7.694,-2.434 11.04,-5.463 z"
       inkscape:connector-curvature="0"
       id="path49" />
    <path
       d="m 154.21,206.05 c -6.531,1.605 -13.496,0.493 -19.621,3.345 l 215.95,215.95 c 6.126,-2.851 13.09,-1.74 19.621,-3.345 z"
       inkscape:connector-curvature="0"
       id="path51" />
    <path
       d="m 134.58,209.4 c -2.93,1.717 -6.467,6.95 -7.246,10.703 l 215.95,215.95 c 0.779,-3.753 4.316,-8.985 7.246,-10.703 z"
       inkscape:connector-curvature="0"
       id="path53" />
    <path
       d="m 127.34,220.1 c -0.489,2.357 0.273,4.697 2,6.428 l 215.95,215.95 c -1.731,-1.731 -2.493,-4.071 -2,-6.428 z"
       inkscape:connector-curvature="0"
       id="path55" />
    <path
       d="m 129.34,226.53 c 0.569,0.569 1.242,1.071 2.01,1.488 l 215.95,215.95 c -0.768,-0.416 -1.441,-0.919 -2.01,-1.488 z"
       inkscape:connector-curvature="0"
       id="path57" />
    <path
       d="m 131.35,228.01 c 4.903,2.305 12.512,1.458 16.23,5.176 l 215.95,215.95 c -3.718,-3.718 -11.328,-2.872 -16.23,-5.176 z"
       inkscape:connector-curvature="0"
       id="path59" />
    <path
       d="m 147.58,233.19 c 1.029,1.029 1.76,2.408 2.053,4.3 l 215.95,215.95 c -0.293,-1.892 -1.024,-3.271 -2.053,-4.3 z"
       inkscape:connector-curvature="0"
       id="path61" />
    <path
       d="m 149.63,237.49 c -2.128,9.244 -7.918,15.633 -7.581,24.861 l 215.95,215.95 c -0.337,-9.228 5.453,-15.617 7.581,-24.861 z"
       inkscape:connector-curvature="0"
       id="path63" />
    <path
       d="m 142.05,262.35 c -0.412,10.09 0.873,18.438 1.561,28.317 l 215.95,215.95 C 358.873,496.737 357.588,488.395 358,478.3 z"
       inkscape:connector-curvature="0"
       id="path65" />
    <path
       d="m 143.61,290.67 c 0.908,12.11 9.654,18.532 15.719,28.652 l 215.95,215.95 c -6.06,-10.12 -14.811,-16.543 -15.719,-28.652 z"
       inkscape:connector-curvature="0"
       id="path67" />
    <path
       d="m 159.33,319.32 c 1.558,1.989 3.322,3.992 5.255,5.924 l 215.95,215.95 c -1.932,-1.932 -3.696,-3.936 -5.255,-5.924 z"
       inkscape:connector-curvature="0"
       id="path69" />
    <path
       d="m 164.59,325.24 c 9.389,9.389 22.739,17.09 35.66,13.14 L 416.2,554.33 c -12.921,3.946 -26.27,-3.751 -35.66,-13.14 z"
       inkscape:connector-curvature="0"
       id="path71" />
    <path
       d="m 200.25,338.38 c 4.599,-1.487 6.853,-1.485 8.664,0.325 l 215.95,215.95 c -1.811,-1.811 -4.064,-1.812 -8.664,-0.325 z"
       inkscape:connector-curvature="0"
       id="path73" />
    <path
       d="m 208.91,338.71 c 0.318,0.318 0.623,0.692 0.924,1.124 l 215.95,215.95 c -0.301,-0.432 -0.606,-0.806 -0.924,-1.124 z"
       inkscape:connector-curvature="0"
       id="path75" />
    <path
       d="m 209.84,339.83 c 1.375,1.971 1.566,3.786 0.78,8.138 l 215.95,215.95 c 0.786,-4.352 0.595,-6.167 -0.78,-8.138 z"
       inkscape:connector-curvature="0"
       id="path77" />
    <path
       d="m 210.62,347.97 c -0.959,5.31 -0.949,15.4 0,21.07 l 215.95,215.95 c -0.949,-5.67 -0.959,-15.76 0,-21.07 z"
       inkscape:connector-curvature="0"
       id="path79" />
    <path
       d="m 210.62,369.04 c 0.703,4.201 1.227,10.589 1.226,14.159 l 215.95,215.95 c 0.001,-3.57 -0.523,-9.958 -1.226,-14.159 z"
       inkscape:connector-curvature="0"
       id="path81" />
    <path
       d="m 211.84,383.2 c -0.001,2.919 0.578,6.57 1.338,9.588 l 215.95,215.95 c -0.759,-3.02 -1.338,-6.669 -1.338,-9.588 z"
       inkscape:connector-curvature="0"
       id="path83" />
    <path
       d="m 213.18,392.79 c 0.495,1.968 0.581,4.03 0.78,10.703 l 215.95,215.95 c -0.199,-6.674 -0.285,-8.735 -0.78,-10.703 z"
       inkscape:connector-curvature="0"
       id="path85" />
    <path
       d="m 213.96,403.49 c 0.135,4.506 0.371,8.909 0.557,9.811 l 215.95,215.95 c -0.186,-0.901 -0.423,-5.304 -0.557,-9.811 z"
       inkscape:connector-curvature="0"
       id="path87" />
    <path
       d="m 214.52,413.3 c 0.631,3.055 0.492,5.543 -0.892,15.05 l 215.95,215.95 c 1.384,-9.507 1.523,-11.995 0.892,-15.05 z"
       inkscape:connector-curvature="0"
       id="path89" />
    <path
       d="m 213.63,428.35 c -0.586,4.02 -2.618,11.377 -4.01,14.493 l 215.95,215.95 c 1.396,-3.116 3.428,-10.47 4.01,-14.493 z"
       inkscape:connector-curvature="0"
       id="path91" />
    <path
       d="m 209.61,442.85 c -0.753,1.682 -2.692,5.612 -4.348,8.807 l 215.95,215.95 c 1.656,-3.195 3.594,-7.125 4.348,-8.807 z"
       inkscape:connector-curvature="0"
       id="path93" />
    <path
       d="m 205.27,451.65 c -0.139,0.269 -0.228,0.456 -0.334,0.669 l 215.95,215.95 c 0.106,-0.213 0.195,-0.4 0.334,-0.669 z"
       inkscape:connector-curvature="0"
       id="path95" />
    <path
       d="m 204.93,452.32 c 0.712,-0.043 1.53,-0.068 2.23,-0.111 l 215.95,215.95 c -0.7,0.044 -1.518,0.068 -2.23,0.111 z"
       inkscape:connector-curvature="0"
       id="path97" />
    <path
       d="m 207.16,452.21 c 5.521,-0.344 10.766,-0.809 15.942,-1.226 l 215.95,215.95 c -5.177,0.417 -10.421,0.882 -15.942,1.226 z"
       inkscape:connector-curvature="0"
       id="path99" />
    <path
       d="m 223.1,450.98 c -1.638,0.11 -3.266,0.209 -4.905,0.334 l 215.95,215.95 c 1.639,-0.126 3.267,-0.224 4.905,-0.334 z"
       inkscape:connector-curvature="0"
       id="path101" />
    <path
       d="m 218.2,451.32 c 0.812,-3.998 1.615,-8.275 1.784,-11.26 l 215.95,215.95 c -0.169,2.985 -0.972,7.262 -1.784,11.26 z"
       inkscape:connector-curvature="0"
       id="path103" />
    <path
       d="m 219.98,440.06 c 0.159,-2.807 0.543,-6.03 1,-8.25 l 215.95,215.95 c -0.461,2.221 -0.844,5.443 -1,8.25 z"
       inkscape:connector-curvature="0"
       id="path105" />
    <path
       d="m 220.99,431.81 c 0.417,-2.01 0.834,-5.369 1,-7.469 l 215.95,215.95 c -0.17,2.1 -0.587,5.46 -1,7.469 z"
       inkscape:connector-curvature="0"
       id="path107" />
    <path
       d="m 221.99,424.34 c 0.399,-4.935 0.784,-6.368 3.122,-11.371 l 215.95,215.95 c -2.337,5 -2.723,6.436 -3.122,11.371 z"
       inkscape:connector-curvature="0"
       id="path109" />
    <path
       d="m 225.11,412.97 c 1.063,-2.276 2.267,-5.28 2.676,-6.689 l 215.95,215.95 c -0.408,1.409 -1.612,4.413 -2.676,6.689 z"
       inkscape:connector-curvature="0"
       id="path111" />
    <path
       d="m 227.79,406.28 c 0.714,-2.463 0.734,-2.941 0.669,-10.145 l 215.95,215.95 c 0.065,7.204 0.045,7.682 -0.669,10.145 z"
       inkscape:connector-curvature="0"
       id="path113" />
    <path
       d="m 228.45,396.13 c -0.059,-6.551 0.091,-7.896 0.669,-11.371 l 215.95,215.95 c -0.578,3.475 -0.728,4.82 -0.669,11.371 z"
       inkscape:connector-curvature="0"
       id="path115" />
    <path
       d="m 229.12,384.76 c 1.148,-6.902 1.678,-8.958 3.902,-13.49 l 215.95,215.95 c -2.224,4.532 -2.754,6.588 -3.902,13.49 z"
       inkscape:connector-curvature="0"
       id="path117" />
    <path
       d="m 233.03,371.27 c 3.02,-6.16 3.278,-7.102 3.568,-12.709 l 215.95,215.95 c -0.289,5.607 -0.545,6.549 -3.568,12.709 z"
       inkscape:connector-curvature="0"
       id="path119" />
    <path
       d="m 236.59,358.56 c 0.337,-6.539 1.409,-9.927 3.679,-12.263 l 215.95,215.95 c -2.27,2.336 -3.342,5.724 -3.679,12.263 z"
       inkscape:connector-curvature="0"
       id="path121" />
    <path
       d="m 240.27,346.3 c 1.277,-1.314 2.382,-2.01 4.459,-2.23 l 215.95,215.95 c -2.078,0.223 -3.182,0.915 -4.459,2.23 z"
       inkscape:connector-curvature="0"
       id="path123" />
    <path
       d="m 244.73,344.07 c 0.693,-0.074 1.519,0.002 2.453,0 l 215.95,215.95 c -0.934,0.002 -1.76,-0.074 -2.453,0 z"
       inkscape:connector-curvature="0"
       id="path125" />
    <path
       d="m 247.18,344.07 c 3.488,-0.009 5.269,0.41 6.475,1.616 l 215.95,215.95 c -1.206,-1.206 -2.987,-1.626 -6.475,-1.616 z"
       inkscape:connector-curvature="0"
       id="path127" />
    <path
       d="m 253.66,345.69 c 0.154,0.154 0.299,0.321 0.437,0.502 l 215.95,215.95 c -0.138,-0.181 -0.283,-0.348 -0.437,-0.502 z"
       inkscape:connector-curvature="0"
       id="path129" />
    <path
       d="m 254.1,346.19 c 1.14,1.495 1.265,3.335 0.334,7.358 l 215.95,215.95 c 0.931,-4.02 0.806,-5.863 -0.334,-7.358 z"
       inkscape:connector-curvature="0"
       id="path131" />
    <path
       d="m 254.43,353.55 c -0.417,1.802 -0.939,5.069 -1.115,7.247 l 215.95,215.95 c 0.176,-2.177 0.698,-5.444 1.115,-7.247 z"
       inkscape:connector-curvature="0"
       id="path133" />
    <path
       d="m 253.32,360.79 c -0.385,4.771 -1.217,7.484 -3.345,11.26 L 465.925,588 c 2.128,-3.776 2.96,-6.489 3.344,-11.26 z"
       inkscape:connector-curvature="0"
       id="path135" />
    <path
       d="m 249.97,372.05 c -2.712,4.813 -2.784,5.237 -2.787,13.267 l 215.95,215.95 c 0.004,-8.03 0.075,-8.454 2.787,-13.267 z"
       inkscape:connector-curvature="0"
       id="path137" />
    <path
       d="m 247.18,385.32 c -0.003,6.449 0.052,7.109 0.669,9.03 l 215.95,215.95 c -0.617,-1.921 -0.672,-2.581 -0.669,-9.03 z"
       inkscape:connector-curvature="0"
       id="path139" />
    <path
       d="m 247.85,394.35 c 0.368,1.147 1.102,2.685 1.672,3.456 l 215.95,215.95 c -0.57,-0.771 -1.304,-2.309 -1.672,-3.456 z"
       inkscape:connector-curvature="0"
       id="path141" />
    <path
       d="m 249.53,397.81 c 0.3,0.406 0.742,0.898 1.294,1.45 l 215.95,215.95 c -0.552,-0.552 -0.994,-1.044 -1.294,-1.45 z"
       inkscape:connector-curvature="0"
       id="path143" />
    <path
       d="m 250.82,399.26 c 1.773,1.773 4.689,4.17 7.737,6.354 l 215.95,215.95 c -3.048,-2.184 -5.963,-4.581 -7.737,-6.354 z"
       inkscape:connector-curvature="0"
       id="path145" />
    <path
       d="m 258.56,405.61 c 2.162,1.55 4.49,3.565 6.586,5.661 l 215.95,215.95 c -2.096,-2.096 -4.424,-4.112 -6.586,-5.661 z"
       inkscape:connector-curvature="0"
       id="path147" />
    <path
       d="m 265.14,411.27 c 1.656,1.656 3.168,3.363 4.339,4.93 l 215.95,215.95 c -1.171,-1.567 -2.683,-3.274 -4.339,-4.93 z"
       inkscape:connector-curvature="0"
       id="path149" />
    <path
       d="m 269.48,416.2 c 2.818,3.737 6.852,7.429 7.358,12.263 l 215.95,215.95 c -0.506,-4.834 -4.54,-8.527 -7.358,-12.263 z"
       inkscape:connector-curvature="0"
       id="path151" />
    <path
       d="m 276.84,428.46 c 0.009,3.532 -2.05,7.993 -5.02,10.926 l 215.95,215.95 c 2.967,-2.933 5.03,-7.393 5.02,-10.926 z"
       inkscape:connector-curvature="0"
       id="path153" />
    <path
       d="m 271.82,439.39 c -1.522,1.504 -2.565,2.209 -5.574,3.679 l 215.95,215.95 c 3.01,-1.469 4.053,-2.175 5.574,-3.679 z"
       inkscape:connector-curvature="0"
       id="path155" />
    <path
       d="m 266.25,443.07 c -4.142,2.023 -5.705,3.337 -6.02,5.02 l 215.95,215.95 c 0.315,-1.68 1.878,-2.994 6.02,-5.02 z"
       inkscape:connector-curvature="0"
       id="path157" />
    <path
       d="m 260.23,448.09 c -0.121,0.644 0.104,1.142 0.334,1.672 l 215.95,215.95 c -0.23,-0.53 -0.455,-1.028 -0.334,-1.672 z"
       inkscape:connector-curvature="0"
       id="path159" />
    <path
       d="m 260.56,449.76 c 7.371,-0.007 14.344,0.117 20.959,0.334 l 215.95,215.95 c -6.615,-0.218 -13.588,-0.341 -20.959,-0.334 z"
       inkscape:connector-curvature="0"
       id="path161" />
    <path
       d="m 281.52,450.09 c 1.286,-0.951 2.298,-2.176 3.122,-3.902 l 215.95,215.95 c -0.824,1.726 -1.836,2.951 -3.122,3.902 z"
       inkscape:connector-curvature="0"
       id="path163" />
    <path
       d="m 284.64,446.19 c 1.13,-2.367 2,-3.552 3.121,-3.456 l 215.95,215.95 c -1.122,-0.096 -1.992,1.089 -3.121,3.456 z"
       inkscape:connector-curvature="0"
       id="path165" />
    <path
       d="m 287.76,442.73 c 0.541,0.046 1.12,0.401 1.768,1.048 l 215.95,215.95 c -0.647,-0.647 -1.226,-1 -1.768,-1.048 z"
       inkscape:connector-curvature="0"
       id="path167" />
    <path
       d="m 289.53,443.78 c 0.694,0.694 1.468,1.726 2.357,3.077 l 215.95,215.95 c -0.89,-1.351 -1.663,-2.383 -2.357,-3.077 z"
       inkscape:connector-curvature="0"
       id="path169" />
    <path
       d="m 291.89,446.86 c 0.847,1.285 1.66,2.29 2.468,3.098 l 215.95,215.95 c -0.808,-0.808 -1.622,-1.813 -2.468,-3.098 z"
       inkscape:connector-curvature="0"
       id="path171" />
    <path
       d="m 294.36,449.96 c 0.292,0.292 0.584,0.559 0.876,0.804 l 215.95,215.95 c -0.292,-0.245 -0.584,-0.511 -0.876,-0.804 z"
       inkscape:connector-curvature="0"
       id="path173" />
    <path
       d="m 295.23,450.76 c 2.505,0.148 5.077,0.267 7.47,0.446 l 215.95,215.95 c -2.393,-0.179 -4.964,-0.298 -7.47,-0.446 z"
       inkscape:connector-curvature="0"
       id="path175" />
    <path
       d="m 302.7,451.21 c 1.375,-1.292 2.302,-3.486 2.787,-6.801 l 215.95,215.95 c -0.485,3.315 -1.412,5.508 -2.787,6.801 z"
       inkscape:connector-curvature="0"
       id="path177" />
    <path
       d="m 305.49,444.41 c 0.289,-1.976 0.278,-2.871 -0.111,-5.128 l 215.95,215.95 c 0.39,2.258 0.4,3.153 0.111,5.128 z"
       inkscape:connector-curvature="0"
       id="path179" />
    <path
       d="m 305.38,439.28 c -0.723,-4.189 -1.666,-6.307 -3.944,-8.585 l 215.95,215.95 c 2.278,2.278 3.221,4.396 3.944,8.585 z"
       inkscape:connector-curvature="0"
       id="path181" />
    <path
       d="m 301.44,430.69 c -0.538,-0.538 -1.151,-1.086 -1.853,-1.671 l 215.95,215.95 c 0.702,0.586 1.315,1.133 1.853,1.671 z"
       inkscape:connector-curvature="0"
       id="path183" />
    <path
       d="m 299.58,429.02 c -0.625,-0.521 -1.279,-1.122 -1.827,-1.67 l 215.95,215.95 c 0.548,0.548 1.202,1.149 1.827,1.67 z"
       inkscape:connector-curvature="0"
       id="path185" />
    <path
       d="m 297.76,427.35 c -0.54,-0.54 -0.977,-1.028 -1.183,-1.34 l 215.95,215.95 c 0.207,0.312 0.644,0.801 1.183,1.34 z"
       inkscape:connector-curvature="0"
       id="path187" />
    <path
       d="m 296.57,426.01 c -1.106,-1.67 -1.453,-3.882 -1,-6.02 l 215.95,215.95 c -0.449,2.138 -0.103,4.35 1,6.02 z"
       inkscape:connector-curvature="0"
       id="path189" />
    <path
       d="m 295.57,419.99 c 0.548,-2.605 3.093,-7.224 6.02,-11.148 l 215.95,215.95 c -2.927,3.925 -5.472,8.543 -6.02,11.148 z"
       inkscape:connector-curvature="0"
       id="path191" />
    <path
       d="m 301.59,408.84 c 2.622,-3.516 4,-5.711 6.132,-9.811 l 215.95,215.95 c -2.132,4.099 -3.509,6.295 -6.132,9.811 z"
       inkscape:connector-curvature="0"
       id="path193" />
    <path
       d="m 307.72,399.03 c 0.799,-1.536 1.986,-3.043 3.79,-4.905 l 215.95,215.95 c -1.805,1.862 -2.992,3.369 -3.79,4.905 z"
       inkscape:connector-curvature="0"
       id="path195" />
    <path
       d="m 311.51,394.13 c 1.446,-1.492 3.03,-3.58 3.567,-4.571 l 215.95,215.95 c -0.538,0.991 -2.122,3.079 -3.567,4.571 z"
       inkscape:connector-curvature="0"
       id="path197" />
    <path
       d="m 315.08,389.56 0.892,-1.784 215.95,215.95 -0.892,1.784 z"
       inkscape:connector-curvature="0"
       id="path199" />
    <path
       d="m 315.97,387.77 v -10.145 l 215.95,215.95 v 10.145 z"
       inkscape:connector-curvature="0"
       id="path201" />
    <path
       d="m 315.97,377.63 c -0.036,-7.232 0.382,-14.244 1.338,-21.405 l 215.95,215.95 c -0.956,7.161 -1.374,14.173 -1.338,21.405 z"
       inkscape:connector-curvature="0"
       id="path203" />
    <path
       d="m 317.31,356.22 c 0.792,-8.588 3.837,-15.365 8.03,-22.743 l 215.95,215.95 c -4.19,7.378 -7.235,14.155 -8.03,22.743 z"
       inkscape:connector-curvature="0"
       id="path205" />
    <path
       d="m 325.33,333.48 c 2.396,-4.949 3.521,-6.355 5.574,-6.355 l 215.95,215.95 c -2.053,0 -3.178,1.406 -5.574,6.355 z"
       inkscape:connector-curvature="0"
       id="path207" />
    <path
       d="m 330.91,327.12 c 0.914,0 1.71,0.336 2.394,1.02 l 215.95,215.95 c -0.684,-0.684 -1.48,-1.02 -2.394,-1.02 z"
       inkscape:connector-curvature="0"
       id="path209" />
    <path
       d="m 333.3,328.14 c 1.377,1.377 2.304,4.163 2.846,8.456 l 215.95,215.95 c -0.542,-4.293 -1.469,-7.079 -2.846,-8.456 z"
       inkscape:connector-curvature="0"
       id="path211" />
    <path
       d="m 336.15,336.6 c 0.928,6.308 3.997,11.706 5.909,17.726 l 215.95,215.95 c -1.912,-6.02 -4.981,-11.418 -5.909,-17.726 z"
       inkscape:connector-curvature="0"
       id="path213" />
    <path
       d="m 342.06,354.33 c 1.166,4.288 1.998,6.216 4.682,11.594 l 215.95,215.95 c -2.684,-5.378 -3.517,-7.307 -4.682,-11.594 z"
       inkscape:connector-curvature="0"
       id="path215" />
    <path
       d="m 346.74,365.92 c 2.547,5.103 4.692,10.795 5.351,14.27 l 215.95,215.95 c -0.659,-3.475 -2.805,-9.167 -5.351,-14.27 z"
       inkscape:connector-curvature="0"
       id="path217" />
    <path
       d="m 352.09,380.19 c 0.349,1.839 0.444,4.389 0.446,9.699 l 215.95,215.95 c -0.002,-5.31 -0.097,-7.86 -0.446,-9.699 z"
       inkscape:connector-curvature="0"
       id="path219" />
    <path
       d="m 352.54,389.89 c 0,7.822 0.262,10.939 1.226,14.939 l 215.95,215.95 c -0.964,-4 -1.226,-7.116 -1.226,-14.939 z"
       inkscape:connector-curvature="0"
       id="path221" />
    <path
       d="m 353.76,404.83 c 0.733,3.04 1.092,11.753 0.78,17.615 l 215.95,215.95 c 0.311,-5.861 -0.047,-14.575 -0.78,-17.615 z"
       inkscape:connector-curvature="0"
       id="path223" />
    <path
       d="m 354.54,422.44 c -0.182,3.428 -0.25,3.874 -2.118,9.365 l 215.95,215.95 c 1.868,-5.491 1.936,-5.937 2.118,-9.365 z"
       inkscape:connector-curvature="0"
       id="path225" />
    <path
       d="m 352.43,431.81 c -2.74,8.05 -3.369,10.406 -3.902,14.493 l 215.95,215.95 c 0.533,-4.087 1.162,-6.44 3.902,-14.493 z"
       inkscape:connector-curvature="0"
       id="path227" />
    <path
       d="m 348.52,446.3 c -0.514,3.937 -0.861,4.89 -2.676,8.807 l 215.95,215.95 c 1.815,-3.918 2.162,-4.871 2.676,-8.807 z"
       inkscape:connector-curvature="0"
       id="path229" />
    <path
       d="m 345.85,455.11 c -0.26,0.56 -0.379,1.044 -0.557,1.561 l 215.95,215.95 c 0.178,-0.517 0.298,-1 0.557,-1.561 z"
       inkscape:connector-curvature="0"
       id="path231" />
    <path
       d="m 345.29,456.67 c 6.601,1.281 12.487,2.668 18.06,4.125 l 215.95,215.95 c -5.574,-1.457 -11.46,-2.844 -18.06,-4.125 z"
       inkscape:connector-curvature="0"
       id="path233" />
    <path
       d="m 363.35,460.79 c 0.153,-0.298 0.357,-0.575 0.446,-0.892 l 215.95,215.95 c -0.089,0.317 -0.293,0.594 -0.446,0.892 z"
       inkscape:connector-curvature="0"
       id="path235" />
    <path
       d="m 363.8,459.9 c 0.699,-3.119 -0.293,-6.327 -0.111,-9.476 l 215.95,215.95 c -0.181,3.149 0.81,6.357 0.111,9.476 z"
       inkscape:connector-curvature="0"
       id="path237" />
    <path
       d="m 363.69,450.43 c 0.439,-0.711 -0.599,-5.769 -2.341,-11.148 l 215.95,215.95 c 1.743,5.38 2.781,10.437 2.341,11.148 z"
       inkscape:connector-curvature="0"
       id="path239" />
    <path
       d="m 361.34,439.28 c -2.771,-8.556 -2.983,-9.921 -1.561,-15.719 l 215.95,215.95 c -1.423,5.798 -1.211,7.164 1.561,15.719 z"
       inkscape:connector-curvature="0"
       id="path241" />
    <path
       d="m 359.78,423.56 c 0.247,-1.01 0.631,-4.356 0.78,-7.469 l 215.95,215.95 c -0.15,3.113 -0.533,6.462 -0.78,7.469 z"
       inkscape:connector-curvature="0"
       id="path243" />
    <path
       d="m 360.56,416.09 c 0.287,-5.98 0.556,-7.485 2.118,-11.371 l 215.95,215.95 c -1.562,3.887 -1.831,5.392 -2.118,11.371 z"
       inkscape:connector-curvature="0"
       id="path245" />
    <path
       d="m 362.68,404.72 c 1.401,-3.485 1.813,-5.02 2.01,-8.584 l 215.95,215.95 c -0.194,3.563 -0.606,5.099 -2.01,8.584 z"
       inkscape:connector-curvature="0"
       id="path247" />
    <path
       d="m 364.69,396.13 c 0.225,-4.141 -0.263,-6.572 -1.784,-10.145 l 215.95,215.95 c 1.521,3.573 2.01,6 1.784,10.145 z"
       inkscape:connector-curvature="0"
       id="path249" />
    <path
       d="m 362.91,385.99 c -1.504,-3.535 -1.7,-5.149 -1,-8.919 l 215.95,215.95 c -0.697,3.77 -0.501,5.384 1,8.919 z"
       inkscape:connector-curvature="0"
       id="path251" />
    <path
       d="m 361.9,377.07 c 0.755,-4.082 0.752,-13.665 0,-16.723 l 215.95,215.95 c 0.752,3.058 0.755,12.641 0,16.723 z"
       inkscape:connector-curvature="0"
       id="path253" />
    <path
       d="m 361.9,360.35 c -0.748,-3.041 -1.13,-14.07 -1,-28.21 l 215.95,215.95 c -0.127,14.14 0.255,25.16 1,28.21 z"
       inkscape:connector-curvature="0"
       id="path255" />
    <path
       d="m 360.9,332.14 1.561,-17.28 215.95,215.95 -1.561,17.28 z"
       inkscape:connector-curvature="0"
       id="path257" />
    <path
       d="m 362.46,314.86 c 2.404,-9.35 3.869,-12.709 5.797,-12.709 l 215.95,215.95 c -1.928,0 -3.393,3.36 -5.797,12.709 z"
       inkscape:connector-curvature="0"
       id="path259" />
    <path
       d="m 368.26,302.15 c 0.524,0 1.039,0.254 1.534,0.749 l 215.95,215.95 c -0.495,-0.495 -1.01,-0.749 -1.534,-0.749 z"
       inkscape:connector-curvature="0"
       id="path261" />
    <path
       d="m 369.79,302.9 c 1.173,1.173 2.233,3.697 3.037,7.389 l 215.95,215.95 c -0.804,-3.692 -1.864,-6.216 -3.037,-7.389 z"
       inkscape:connector-curvature="0"
       id="path263" />
    <path
       d="m 372.83,310.29 c 0.699,4.868 0.346,9.866 1.226,14.716 l 215.95,215.95 c -0.88,-4.85 -0.527,-9.848 -1.226,-14.716 z"
       inkscape:connector-curvature="0"
       id="path265" />
    <path
       d="m 374.05,325.01 c 1.14,6.696 -0.685,13.396 -4.125,19.18 l 215.95,215.95 c 3.44,-5.779 5.265,-12.48 4.125,-19.18 z"
       inkscape:connector-curvature="0"
       id="path267" />
    <path
       d="m 369.93,344.18 c -2.042,3.581 -2.746,6.157 -2.23,8.03 l 215.95,215.95 c -0.516,-1.87 0.188,-4.446 2.23,-8.03 z"
       inkscape:connector-curvature="0"
       id="path269" />
    <path
       d="m 367.7,352.21 c 0.231,0.836 0.811,1.727 1.485,2.401 l 215.95,215.95 c -0.674,-0.674 -1.254,-1.565 -1.485,-2.401 z"
       inkscape:connector-curvature="0"
       id="path271" />
    <path
       d="m 369.18,354.61 c 0.528,0.528 1.115,0.924 1.637,1.055 l 215.95,215.95 c -0.522,-0.131 -1.108,-0.526 -1.637,-1.055 z"
       inkscape:connector-curvature="0"
       id="path273" />
    <path
       d="m 370.82,355.66 c 0.516,0.13 1.161,-0.077 1.895,-0.446 l 215.95,215.95 c -0.734,0.369 -1.379,0.575 -1.895,0.446 z"
       inkscape:connector-curvature="0"
       id="path275" />
    <path
       d="m 372.72,355.22 c 0.91,-0.457 1.834,-1.596 5.02,-6.355 l 215.95,215.95 c -3.183,4.759 -4.107,5.897 -5.02,6.355 z"
       inkscape:connector-curvature="0"
       id="path277" />
    <path
       d="m 377.73,348.86 c 2.158,-3.226 4.213,-6.634 4.571,-7.581 l 215.95,215.95 c -0.358,0.947 -2.413,4.355 -4.571,7.581 z"
       inkscape:connector-curvature="0"
       id="path279" />
    <path
       d="m 382.3,341.28 c 2.968,-13.02 3.089,-22.627 1.449,-35.452 l 215.95,215.95 c 1.64,12.825 1.519,22.434 -1.449,35.452 z"
       inkscape:connector-curvature="0"
       id="path281" />
    <path
       d="m 383.75,305.83 c 0,-8.33 -1.153,-11.45 -6.912,-17.726 l 215.95,215.95 c 5.759,6.276 6.912,9.396 6.912,17.726 z"
       inkscape:connector-curvature="0"
       id="path283" />
    <path
       d="M 376.84,288.1 C 366.064,274.678 359.841,262.9 353.65,247.07 L 569.6,463.02 c 6.19,15.822 12.413,27.605 23.19,41.03 z"
       inkscape:connector-curvature="0"
       id="path285" />
    <path
       d="m 353.65,247.08 c -2.134,-3.546 -5.244,-7.849 -7.581,-10.48 l 215.95,215.95 c 2.337,2.63 5.447,6.934 7.581,10.48 z"
       inkscape:connector-curvature="0"
       id="path287" />
    <path
       d="m 346.07,236.6 c -3.641,-4.097 -5.814,-8.156 -7.804,-14.27 l 215.95,215.95 c 1.99,6.115 4.163,10.173 7.804,14.27 z"
       inkscape:connector-curvature="0"
       id="path289" />
    <path
       d="m 338.27,222.33 c -2.869,-7.281 -5.326,-15.883 -9.588,-22.19 l 215.95,215.95 c 4.262,6.303 6.718,14.904 9.588,22.19 z"
       inkscape:connector-curvature="0"
       id="path291" />
    <path
       d="m 328.68,200.14 c -1.822,-2.04 -3.587,-4.172 -5.52,-6.104 l 215.95,215.95 c 1.932,1.932 3.698,4.064 5.52,6.104 z"
       inkscape:connector-curvature="0"
       id="path293" />
    <path
       d="m 323.16,194.04 c -2.324,-2.324 -4.889,-4.36 -8.08,-5.602 l 215.95,215.95 c 3.193,1.242 5.758,3.278 8.08,5.602 z"
       inkscape:connector-curvature="0"
       id="path295" />
    <path
       d="m 315.08,188.44 c -5.556,-2.604 -10.312,-2.862 -15.831,-2.676 l 215.95,215.95 c 5.519,-0.186 10.275,0.072 15.831,2.676 z"
       inkscape:connector-curvature="0"
       id="path297" />
    <path
       d="m 293.23,340.28 c 0.439,0.029 0.853,0.288 1.338,0.669 l 215.95,215.95 c -0.485,-0.381 -0.898,-0.64 -1.338,-0.669 z"
       inkscape:connector-curvature="0"
       id="path299" />
    <path
       d="m 294.57,340.95 c 0.138,0.109 0.266,0.219 0.384,0.337 l 215.95,215.95 c -0.118,-0.118 -0.246,-0.228 -0.384,-0.337 z"
       inkscape:connector-curvature="0"
       id="path301" />
    <path
       d="m 294.95,341.29 c 1.056,1.056 1.388,2.778 2.069,10.143 l 215.95,215.95 c -0.681,-7.364 -1.013,-9.09 -2.069,-10.143 z"
       inkscape:connector-curvature="0"
       id="path303" />
    <path
       d="m 297.02,351.43 c 0.395,4.275 0.907,9.635 1.226,11.929 l 215.95,215.95 c -0.319,-2.294 -0.831,-7.654 -1.226,-11.929 z"
       inkscape:connector-curvature="0"
       id="path305" />
    <path
       d="m 298.24,363.36 c 1.408,10.124 1.631,13.295 1.226,16.723 l 215.95,215.95 c 0.404,-3.428 0.182,-6.598 -1.226,-16.723 z"
       inkscape:connector-curvature="0"
       id="path307" />
    <path
       d="m 299.47,380.08 c -0.208,1.765 -0.421,5.404 -0.557,8.03 l 215.95,215.95 c 0.137,-2.623 0.349,-6.262 0.557,-8.03 z"
       inkscape:connector-curvature="0"
       id="path309" />
    <path
       d="m 298.91,388.11 c -0.385,7.389 -1.431,10.664 -5.463,17.615 l 215.95,215.95 c 4.03,-6.95 5.078,-10.225 5.463,-17.615 z"
       inkscape:connector-curvature="0"
       id="path311" />
    <path
       d="m 293.45,405.72 c -1.23,2.121 -2.739,4.859 -3.345,6.132 l 215.95,215.95 c 0.605,-1.273 2.114,-4.01 3.345,-6.132 z"
       inkscape:connector-curvature="0"
       id="path313" />
    <path
       d="m 290.11,411.85 c -1.205,2.533 -2.498,4.237 -3.79,4.905 l 215.95,215.95 c 1.292,-0.668 2.586,-2.372 3.79,-4.905 z"
       inkscape:connector-curvature="0"
       id="path315" />
    <path
       d="m 286.32,416.76 c -1.268,0.656 -2.927,0.537 -4.571,-0.334 l 215.95,215.95 c 1.644,0.871 3.303,0.99 4.571,0.334 z"
       inkscape:connector-curvature="0"
       id="path317" />
    <path
       d="m 281.74,416.42 c -2.158,-1.144 -5.996,-4.094 -8.07,-6.165 l 215.95,215.95 c 2.071,2.071 5.909,5.02 8.07,6.165 z"
       inkscape:connector-curvature="0"
       id="path319" />
    <path
       d="m 273.68,410.26 c -0.103,-0.103 -0.201,-0.203 -0.295,-0.301 l 215.95,215.95 c 0.094,0.098 0.192,0.199 0.295,0.301 z"
       inkscape:connector-curvature="0"
       id="path321" />
    <path
       d="m 273.38,409.96 c -2.121,-2.221 -3.02,-3.421 -5.463,-7.804 l 215.95,215.95 c 2.442,4.383 3.342,5.583 5.463,7.804 z"
       inkscape:connector-curvature="0"
       id="path323" />
    <path
       d="m 267.92,402.15 c -2.776,-4.983 -3.12,-6.03 -3.122,-8.25 l 215.95,215.95 c 0.002,2.221 0.345,3.267 3.122,8.25 z"
       inkscape:connector-curvature="0"
       id="path325" />
    <path
       d="m 264.8,393.9 c 0,-2.905 1.06,-5.059 3.902,-7.804 l 215.95,215.95 c -2.842,2.745 -3.902,4.899 -3.902,7.804 z"
       inkscape:connector-curvature="0"
       id="path327" />
    <path
       d="m 268.7,386.1 c 1.241,-1.199 3.927,-3.86 5.909,-5.909 l 215.95,215.95 c -1.982,2.048 -4.667,4.71 -5.909,5.909 z"
       inkscape:connector-curvature="0"
       id="path329" />
    <path
       d="m 274.61,380.19 c 4.102,-4.24 4.212,-4.454 5.24,-10.48 L 495.8,585.66 c -1.028,6.03 -1.138,6.239 -5.24,10.48 z"
       inkscape:connector-curvature="0"
       id="path331" />
    <path
       d="m 279.85,369.71 c 0.932,-5.461 0.952,-5.553 4.794,-11.148 l 215.95,215.95 c -3.842,5.595 -3.862,5.688 -4.794,11.148 z"
       inkscape:connector-curvature="0"
       id="path333" />
    <path
       d="m 284.64,358.56 c 1.376,-2 2.029,-3.824 3.679,-10.03 l 215.95,215.95 c -1.65,6.209 -2.303,8.03 -3.679,10.03 z"
       inkscape:connector-curvature="0"
       id="path335" />
    <path
       d="m 288.32,348.53 c 1.524,-5.739 2.212,-7.161 3.456,-7.804 l 215.95,215.95 c -1.244,0.643 -1.932,2.065 -3.456,7.804 z"
       inkscape:connector-curvature="0"
       id="path337" />
    <path
       d="m 291.78,340.73 c 0.596,-0.308 1.01,-0.474 1.449,-0.446 l 215.95,215.95 c -0.439,-0.029 -0.854,0.138 -1.449,0.446 z"
       inkscape:connector-curvature="0"
       id="path339" />
  </g>
  <path
     d="m 299.25,185.76 c -1.84,0.062 -3.714,0.113 -5.797,0.223 -6.172,1.288 -11.919,4.156 -17.838,6.243 -9.157,3.592 -17.961,9.732 -21.739,19.06 -0.947,2.068 -5.097,8.775 -7.247,11.817 -4.03,4.699 -9.135,8.553 -14.27,11.929 -6.376,3.792 -11.578,8.798 -17.838,17.17 -6.326,8.697 -6.877,16.254 -10.03,26.09 -4.865,5.145 -8.707,-1.952 -7.469,-6.912 2.977,-12 8.327,-22.828 7.581,-35.564 -1.843,-16.771 -8.753,-39.16 -28.652,-40.469 -4.447,0.014 -5.71,0.716 -10.703,5.24 -3.343,3.03 -5.568,4.059 -11.04,5.463 -6.531,1.605 -13.496,0.493 -19.621,3.345 -2.93,1.717 -6.467,6.95 -7.246,10.703 -0.65,3.131 0.909,6.232 4.01,7.915 6.26,2.942 16.932,0.749 18.284,9.476 -2.128,9.244 -7.918,15.633 -7.581,24.861 -0.412,10.09 0.873,18.438 1.561,28.317 0.908,12.11 9.654,18.532 15.719,28.652 9.13,11.652 25.335,23.822 40.915,19.06 5.408,-1.748 7.573,-1.439 9.588,1.449 1.375,1.971 1.566,3.786 0.78,8.138 -0.959,5.31 -0.949,15.4 0,21.07 0.703,4.201 1.227,10.589 1.226,14.159 -10e-4,2.919 0.578,6.57 1.338,9.588 0.495,1.968 0.581,4.03 0.78,10.703 0.135,4.506 0.371,8.909 0.557,9.811 0.631,3.055 0.492,5.543 -0.892,15.05 -0.586,4.02 -2.618,11.377 -4.01,14.493 -0.753,1.682 -2.692,5.612 -4.348,8.807 -0.139,0.269 -0.228,0.456 -0.334,0.669 0.712,-0.043 1.53,-0.068 2.23,-0.111 5.521,-0.344 10.766,-0.809 15.942,-1.226 -1.638,0.11 -3.266,0.209 -4.905,0.334 0.812,-3.998 1.615,-8.275 1.784,-11.26 0.159,-2.807 0.543,-6.03 1,-8.25 0.417,-2.01 0.834,-5.369 1,-7.469 0.399,-4.935 0.784,-6.368 3.122,-11.371 1.063,-2.276 2.267,-5.28 2.676,-6.689 0.714,-2.463 0.734,-2.941 0.669,-10.145 -0.059,-6.551 0.091,-7.896 0.669,-11.371 1.148,-6.902 1.678,-8.958 3.902,-13.49 3.02,-6.16 3.278,-7.102 3.568,-12.709 0.337,-6.539 1.409,-9.927 3.679,-12.263 1.277,-1.314 2.382,-2.01 4.459,-2.23 0.693,-0.074 1.519,0.002 2.453,0 3.934,-0.011 5.696,0.524 6.912,2.118 1.14,1.495 1.265,3.335 0.334,7.358 -0.417,1.802 -0.939,5.069 -1.115,7.247 -0.385,4.771 -1.217,7.484 -3.345,11.26 -2.712,4.813 -2.784,5.237 -2.787,13.267 -0.003,6.449 0.052,7.109 0.669,9.03 0.368,1.147 1.102,2.685 1.672,3.456 1.264,1.71 5.03,4.94 9.03,7.804 3.871,2.774 8.271,7.04 10.925,10.591 2.818,3.737 6.852,7.429 7.358,12.263 0.009,3.532 -2.05,7.993 -5.02,10.926 -1.522,1.504 -2.565,2.209 -5.574,3.679 -4.142,2.023 -5.705,3.337 -6.02,5.02 -0.121,0.644 0.104,1.142 0.334,1.672 7.371,-0.007 14.344,0.117 20.959,0.334 1.286,-0.951 2.298,-2.176 3.122,-3.902 1.13,-2.367 2,-3.552 3.121,-3.456 1.122,0.096 2.406,1.515 4.125,4.125 1.153,1.751 2.245,2.981 3.344,3.902 2.505,0.148 5.077,0.267 7.47,0.446 1.375,-1.292 2.302,-3.486 2.787,-6.801 0.289,-1.976 0.278,-2.871 -0.111,-5.128 -0.894,-5.179 -2.123,-7.192 -5.797,-10.257 -1.241,-1.035 -2.594,-2.382 -3.01,-3.01 -1.106,-1.67 -1.453,-3.882 -1,-6.02 0.548,-2.605 3.093,-7.224 6.02,-11.148 2.622,-3.516 4,-5.711 6.132,-9.811 0.799,-1.536 1.986,-3.043 3.79,-4.905 1.446,-1.492 3.03,-3.58 3.567,-4.571 l 0.892,-1.784 v -10.145 c -0.036,-7.232 0.382,-14.244 1.338,-21.405 0.792,-8.588 3.837,-15.365 8.03,-22.743 2.396,-4.949 3.521,-6.355 5.574,-6.355 2.754,0 4.429,3.049 5.24,9.476 0.928,6.308 3.997,11.706 5.909,17.726 1.166,4.288 1.998,6.216 4.682,11.594 2.547,5.103 4.692,10.795 5.351,14.27 0.349,1.839 0.444,4.389 0.446,9.699 0,7.822 0.262,10.939 1.226,14.939 0.733,3.04 1.092,11.753 0.78,17.615 -0.182,3.428 -0.25,3.874 -2.118,9.365 -2.74,8.05 -3.369,10.406 -3.902,14.493 -0.514,3.937 -0.861,4.89 -2.676,8.807 -0.26,0.56 -0.379,1.044 -0.557,1.561 6.601,1.281 12.487,2.668 18.06,4.125 0.153,-0.298 0.357,-0.575 0.446,-0.892 0.699,-3.119 -0.293,-6.327 -0.111,-9.476 0.439,-0.711 -0.599,-5.769 -2.341,-11.148 -2.771,-8.556 -2.983,-9.921 -1.561,-15.719 0.247,-1.01 0.631,-4.356 0.78,-7.469 0.287,-5.98 0.556,-7.485 2.118,-11.371 1.401,-3.485 1.813,-5.02 2.01,-8.584 0.225,-4.141 -0.263,-6.572 -1.784,-10.145 -1.504,-3.535 -1.7,-5.149 -1,-8.919 0.755,-4.082 0.752,-13.665 0,-16.723 -0.748,-3.041 -1.13,-14.07 -1,-28.21 l 1.561,-17.28 c 2.404,-9.35 3.869,-12.709 5.797,-12.709 1.767,0 3.428,2.889 4.571,8.138 0.699,4.868 0.346,9.866 1.226,14.716 1.14,6.696 -0.685,13.396 -4.125,19.18 -2.042,3.581 -2.746,6.157 -2.23,8.03 0.412,1.492 1.934,3.158 3.122,3.456 0.516,0.13 1.161,-0.077 1.895,-0.446 0.91,-0.457 1.834,-1.596 5.02,-6.355 2.158,-3.226 4.213,-6.634 4.571,-7.581 2.968,-13.02 3.089,-22.627 1.449,-35.452 0,-8.33 -1.153,-11.45 -6.912,-17.726 -10.776,-13.422 -16.999,-25.2 -23.19,-41.03 -2.134,-3.546 -5.244,-7.849 -7.581,-10.48 -3.641,-4.097 -5.814,-8.156 -7.804,-14.27 -2.869,-7.281 -5.326,-15.883 -9.588,-22.19 -4.01,-4.494 -7.754,-9.431 -13.601,-11.706 -5.556,-2.604 -10.312,-2.862 -15.831,-2.676 m -6.02,154.52 c 0.439,0.029 0.853,0.288 1.338,0.669 1.369,1.077 1.696,2.29 2.453,10.48 0.395,4.275 0.907,9.635 1.226,11.929 1.408,10.124 1.631,13.295 1.226,16.723 -0.208,1.765 -0.421,5.404 -0.557,8.03 -0.385,7.389 -1.431,10.664 -5.463,17.615 -1.23,2.121 -2.739,4.859 -3.345,6.132 -1.205,2.533 -2.498,4.237 -3.79,4.905 -1.268,0.656 -2.927,0.537 -4.571,-0.334 -2.265,-1.2 -6.38,-4.391 -8.361,-6.466 -2.121,-2.221 -3.02,-3.421 -5.463,-7.804 -2.776,-4.983 -3.12,-6.03 -3.122,-8.25 0,-2.905 1.06,-5.059 3.902,-7.804 1.241,-1.199 3.927,-3.86 5.909,-5.909 4.102,-4.24 4.212,-4.454 5.24,-10.48 0.932,-5.461 0.952,-5.553 4.794,-11.148 1.376,-2 2.029,-3.824 3.679,-10.03 1.524,-5.739 2.212,-7.161 3.456,-7.804 0.596,-0.308 1.01,-0.474 1.449,-0.446"
     inkscape:connector-curvature="0"
     id="path341"
     style="fill:#ffffff;fill-rule:evenodd" />
  <path
     d="M 312.38,149.78 444.63,282.03 V 149.78 H 312.38"
     inkscape:connector-curvature="0"
     id="path343"
     style="fill-opacity:0.19599998" />
</svg>
