<?xml version="1.0" encoding="UTF-8" standalone="no"?>
<!-- Created with Inkscape (http://www.inkscape.org/) -->

<svg
   xmlns:dc="http://purl.org/dc/elements/1.1/"
   xmlns:cc="http://creativecommons.org/ns#"
   xmlns:rdf="http://www.w3.org/1999/02/22-rdf-syntax-ns#"
   xmlns:svg="http://www.w3.org/2000/svg"
   xmlns="http://www.w3.org/2000/svg"
   xmlns:inkscape="http://www.inkscape.org/namespaces/inkscape"
   version="1.1"
   width="100%"
   height="100%"
   viewBox="0 0 512 512"
   id="svg2">
  <metadata
     id="metadata10">
    <rdf:RDF>
      <cc:Work
         rdf:about="">
        <dc:format>image/svg+xml</dc:format>
        <dc:type
           rdf:resource="http://purl.org/dc/dcmitype/StillImage" />
        <dc:title />
      </cc:Work>
    </rdf:RDF>
  </metadata>
  <defs
     id="defs8">
    <clipPath
       id="clipPath3501">
      <path
         d="M 26,0 C 11.602648,0 0,11.602648 0,26 l 0,460 c 0,14.39735 11.602648,26 26,26 l 460,0 c 14.39735,0 26,-11.60265 26,-26 L 512,26 C 512,11.602648 500.39735,0 486,0 L 26,0 z"
         inkscape:connector-curvature="0"
         id="path3503"
         style="fill:#e63232;fill-opacity:1;stroke:none" />
    </clipPath>
  </defs>
  <path
     d="M 26,0 C 11.602648,0 0,11.602648 0,26 l 0,460 c 0,14.39735 11.602648,26 26,26 l 460,0 c 14.39735,0 26,-11.60265 26,-26 L 512,26 C 512,11.602648 500.39735,0 486,0 L 26,0 z"
     inkscape:connector-curvature="0"
     id="rect2986"
     style="fill:#e63232;fill-opacity:1;stroke:none" />
  <text
     x="-143.05299"
     y="267.92493"
     id="text20"
     style="font-size:129.22999573px;line-height:125%;letter-spacing:0;word-spacing:0;font-family:Gentium Book Basic">
    <tspan
       x="-143.05299"
       y="267.92493"
       id="tspan22" />
  </text>
  <text
     x="161.43184"
     y="725.98676"
     transform="scale(4.0128205,0.24920128)"
     id="text24"
     style="font-size:46.95375824px;text-anchor:middle;font-family:Arial" />
  <text
     x="438.21701"
     y="187.92494"
     id="text26"
     style="font-size:129.22999573px;line-height:125%;letter-spacing:0;word-spacing:0;font-family:Gentium Book Basic">
    <tspan
       x="438.21701"
       y="187.92494"
       id="tspan28" />
  </text>
  <text
     x="306.2811"
     y="404.94864"
     transform="scale(4.0128205,0.24920128)"
     id="text30"
     style="font-size:46.95375824px;text-anchor:middle;font-family:Arial" />
  <text
     x="-633.36304"
     y="6.6649609"
     id="text32"
     style="font-size:129.22999573px;line-height:125%;letter-spacing:0;word-spacing:0;font-family:Gentium Book Basic">
    <tspan
       x="-633.36304"
       y="6.6649609"
       id="tspan34" />
  </text>
  <text
     x="39.242474"
     y="-322.39774"
     transform="scale(4.0128205,0.24920128)"
     id="text36"
     style="font-size:46.95375824px;text-anchor:middle;font-family:Arial" />
  <text
     x="464.68698"
     y="-209.80504"
     id="text38"
     style="font-size:129.22999573px;line-height:125%;letter-spacing:0;word-spacing:0;font-family:Gentium Book Basic">
    <tspan
       x="464.68698"
       y="-209.80504"
       id="tspan40" />
  </text>
  <text
     x="312.88107"
     y="-1191.0734"
     transform="scale(4.0128205,0.24920128)"
     id="text42"
     style="font-size:46.95375824px;text-anchor:middle;font-family:Arial" />
  <text
     x="1045.957"
     y="-289.80502"
     id="text44"
     style="font-size:129.22999573px;line-height:125%;letter-spacing:0;word-spacing:0;font-family:Gentium Book Basic">
    <tspan
       x="1045.957"
       y="-289.80502"
       id="tspan46" />
  </text>
  <text
     x="457.73032"
     y="-1512.1017"
     transform="scale(4.0128205,0.24920128)"
     id="text48"
     style="font-size:46.95375824px;text-anchor:middle;font-family:Arial" />
  <text
     x="656.83704"
     y="-762.20508"
     id="text50"
     style="font-size:129.22999573px;line-height:125%;letter-spacing:0;word-spacing:0;font-family:Gentium Book Basic">
    <tspan
       x="656.83704"
       y="-762.20508"
       id="tspan52" />
  </text>
  <text
     x="360.76077"
     y="-3407.752"
     transform="scale(4.0128205,0.24920128)"
     id="text54"
     style="font-size:46.95375824px;text-anchor:middle;font-family:Arial" />
  <text
     x="1238.097"
     y="-842.21509"
     id="text56"
     style="font-size:129.22999573px;line-height:125%;letter-spacing:0;word-spacing:0;font-family:Gentium Book Basic">
    <tspan
       x="1238.097"
       y="-842.21509"
       id="tspan58" />
  </text>
  <text
     x="505.61008"
     y="-3728.7903"
     transform="scale(4.0128205,0.24920128)"
     id="text60"
     style="font-size:46.95375824px;text-anchor:middle;font-family:Arial" />
  <text
     x="-594.703"
     y="572.505"
     id="text62"
     style="font-size:208.33000183px;line-height:125%;letter-spacing:0;word-spacing:0;font-family:Gentium Book Basic">
    <tspan
       x="-594.703"
       y="572.505"
       id="tspan64" />
  </text>
  <g
     clip-path="url(#clipPath3501)"
     id="g3273"
     style="opacity:0.25;fill:#000000;fill-opacity:1;stroke:none">
    <path
       d="m 135.9013,130.66299 0,50.73893 388.90873,388.90873 0,-50.73893 z"
       inkscape:connector-curvature="0"
       id="path3275"
       style="fill:#000000" />
    <path
       d="m 135.9013,181.40192 -34.45047,0 388.90873,388.90873 34.45047,0 z"
       inkscape:connector-curvature="0"
       id="path3277"
       style="fill:#000000" />
    <path
       d="m 101.45083,181.40192 0,34.48871 388.90873,388.90873 0,-34.48871 z"
       inkscape:connector-curvature="0"
       id="path3279"
       style="fill:#000000" />
    <path
       d="m 101.45083,215.89063 -28.40922,0 388.90873,388.90873 28.40922,0 z"
       inkscape:connector-curvature="0"
       id="path3281"
       style="fill:#000000" />
    <path
       d="m 73.04161,215.89063 0,19.69144 388.90873,388.90873 0,-19.69144 z"
       inkscape:connector-curvature="0"
       id="path3283"
       style="fill:#000000" />
    <path
       d="m 73.04161,235.58207 -32.04161,0 388.90873,388.90873 32.04161,0 z"
       inkscape:connector-curvature="0"
       id="path3285"
       style="fill:#000000" />
    <path
       d="m 41,235.58207 0,40.83586 388.90873,388.90873 0,-40.83586 z"
       inkscape:connector-curvature="0"
       id="path3287"
       style="fill:#000000" />
    <path
       d="m 41,276.41793 32.04161,0 388.90873,388.90873 -32.04161,0 z"
       inkscape:connector-curvature="0"
       id="path3289"
       style="fill:#000000" />
    <path
       d="m 73.04161,276.41793 0,19.69144 388.90873,388.90873 0,-19.69144 z"
       inkscape:connector-curvature="0"
       id="path3291"
       style="fill:#000000" />
    <path
       d="m 73.04161,296.10937 28.40922,0 388.90873,388.90873 -28.40922,0 z"
       inkscape:connector-curvature="0"
       id="path3293"
       style="fill:#000000" />
    <path
       d="m 101.45083,296.10937 0,34.48871 388.90873,388.90873 0,-34.48871 z"
       inkscape:connector-curvature="0"
       id="path3295"
       style="fill:#000000" />
    <path
       d="m 101.45083,330.59808 34.45047,0 388.90873,388.90873 -34.45047,0 z"
       inkscape:connector-curvature="0"
       id="path3297"
       style="fill:#000000" />
    <path
       d="m 135.9013,330.59808 0,50.73893 388.90873,388.90873 0,-50.73893 z"
       inkscape:connector-curvature="0"
       id="path3299"
       style="fill:#000000" />
    <path
       d="m 135.9013,381.33701 37.73875,0 388.90873,388.90873 -37.73875,0 z"
       inkscape:connector-curvature="0"
       id="path3301"
       style="fill:#000000" />
    <path
       d="m 173.64005,381.33701 0,-104.91908 388.90873,388.90873 0,104.91908 z"
       inkscape:connector-curvature="0"
       id="path3303"
       style="fill:#000000" />
    <path
       d="m 173.64005,276.41793 164.75814,0 388.90873,388.90873 -164.75814,0 z"
       inkscape:connector-curvature="0"
       id="path3305"
       style="fill:#000000" />
    <path
       d="m 338.39819,276.41793 0,104.91908 388.90873,388.90873 0,-104.91908 z"
       inkscape:connector-curvature="0"
       id="path3307"
       style="fill:#000000" />
    <path
       d="m 338.39819,381.33701 37.70051,0 388.90873,388.90873 -37.70051,0 z"
       inkscape:connector-curvature="0"
       id="path3309"
       style="fill:#000000" />
    <path
       d="m 376.0987,381.33701 0,-50.73893 388.90873,388.90873 0,50.73893 z"
       inkscape:connector-curvature="0"
       id="path3311"
       style="fill:#000000" />
    <path
       d="m 376.0987,330.59808 34.48871,0 388.90873,388.90873 -34.48871,0 z"
       inkscape:connector-curvature="0"
       id="path3313"
       style="fill:#000000" />
    <path
       d="m 410.58741,330.59808 0,-34.48871 388.90873,388.90873 0,34.48871 z"
       inkscape:connector-curvature="0"
       id="path3315"
       style="fill:#000000" />
    <path
       d="m 410.58741,296.10937 28.37098,0 388.90873,388.90873 -28.37098,0 z"
       inkscape:connector-curvature="0"
       id="path3317"
       style="fill:#000000" />
    <path
       d="m 438.95839,296.10937 0,-19.69144 388.90873,388.90873 0,19.69144 z"
       inkscape:connector-curvature="0"
       id="path3319"
       style="fill:#000000" />
    <path
       d="m 438.95839,276.41793 32.04161,0 388.90873,388.90873 -32.04161,0 z"
       inkscape:connector-curvature="0"
       id="path3321"
       style="fill:#000000" />
    <path
       d="m 471,276.41793 0,-40.83586 388.90873,388.90873 0,40.83586 z"
       inkscape:connector-curvature="0"
       id="path3323"
       style="fill:#000000" />
    <path
       d="m 471,235.58207 -32.04161,0 388.90873,388.90873 32.04161,0 z"
       inkscape:connector-curvature="0"
       id="path3325"
       style="fill:#000000" />
    <path
       d="m 438.95839,235.58207 0,-19.69144 388.90873,388.90873 0,19.69144 z"
       inkscape:connector-curvature="0"
       id="path3327"
       style="fill:#000000" />
    <path
       d="m 438.95839,215.89063 -28.37098,0 388.90873,388.90873 28.37098,0 z"
       inkscape:connector-curvature="0"
       id="path3329"
       style="fill:#000000" />
    <path
       d="m 410.58741,215.89063 0,-34.48871 388.90873,388.90873 0,34.48871 z"
       inkscape:connector-curvature="0"
       id="path3331"
       style="fill:#000000" />
    <path
       d="m 410.58741,181.40192 -34.48871,0 388.90873,388.90873 34.48871,0 z"
       inkscape:connector-curvature="0"
       id="path3333"
       style="fill:#000000" />
    <path
       d="m 376.0987,181.40192 0,-50.73893 388.90873,388.90873 0,50.73893 z"
       inkscape:connector-curvature="0"
       id="path3335"
       style="fill:#000000" />
    <path
       d="m 376.0987,130.66299 -37.70051,0 388.90873,388.90873 37.70051,0 z"
       inkscape:connector-curvature="0"
       id="path3337"
       style="fill:#000000" />
    <path
       d="m 338.39819,130.66299 0,104.91908 388.90873,388.90873 0,-104.91908 z"
       inkscape:connector-curvature="0"
       id="path3339"
       style="fill:#000000" />
    <path
       d="m 338.39819,235.58207 -164.75814,0 388.90873,388.90873 164.75814,0 z"
       inkscape:connector-curvature="0"
       id="path3341"
       style="fill:#000000" />
    <path
       d="m 173.64005,235.58207 0,-104.91908 388.90873,388.90873 0,104.91908 z"
       inkscape:connector-curvature="0"
       id="path3343"
       style="fill:#000000" />
    <path
       d="m 173.64005,130.66299 -37.73875,0 388.90873,388.90873 37.73875,0 z"
       inkscape:connector-curvature="0"
       id="path3345"
       style="fill:#000000" />
  </g>
  <path
     d="m 135.9013,130.66299 0,50.73893 -34.45047,0 0,34.48871 -28.40922,0 0,19.69144 -32.04161,0 0,40.83586 32.04161,0 0,19.69144 28.40922,0 0,34.48871 34.45047,0 0,50.73893 37.73875,0 0,-104.91908 164.75814,0 0,104.91908 37.70051,0 0,-50.73893 34.48871,0 0,-34.48871 28.37098,0 0,-19.69144 32.04161,0 0,-40.83586 -32.04161,0 0,-19.69144 -28.37098,0 0,-34.48871 -34.48871,0 0,-50.73893 -37.70051,0 0,104.91908 -164.75814,0 0,-104.91908 -37.73875,0 z"
     inkscape:connector-curvature="0"
     id="rect3115"
     style="fill:#ffffff;fill-opacity:1;stroke:none" />
</svg>
