<?xml version="1.0" encoding="UTF-8" standalone="no"?>
<!-- Created with Inkscape (http://www.inkscape.org/) -->

<svg
   xmlns:dc="http://purl.org/dc/elements/1.1/"
   xmlns:cc="http://creativecommons.org/ns#"
   xmlns:rdf="http://www.w3.org/1999/02/22-rdf-syntax-ns#"
   xmlns:svg="http://www.w3.org/2000/svg"
   xmlns="http://www.w3.org/2000/svg"
   xmlns:inkscape="http://www.inkscape.org/namespaces/inkscape"
   version="1.1"
   width="100%"
   height="100%"
   viewBox="0 0 512 512"
   id="svg2">
  <metadata
     id="metadata10">
    <rdf:RDF>
      <cc:Work
         rdf:about="">
        <dc:format>image/svg+xml</dc:format>
        <dc:type
           rdf:resource="http://purl.org/dc/dcmitype/StillImage" />
        <dc:title />
      </cc:Work>
    </rdf:RDF>
  </metadata>
  <defs
     id="defs8">
    <clipPath
       id="clipPath3822">
      <path
         d="M 26,0 C 11.602648,0 0,11.602648 0,26 l 0,460 c 0,14.39735 11.602648,26 26,26 l 460,0 c 14.39735,0 26,-11.60265 26,-26 L 512,26 C 512,11.602648 500.39735,0 486,0 L 26,0 z"
         inkscape:connector-curvature="0"
         id="path3824"
         style="fill:#5a8bc0;fill-opacity:1;stroke:none" />
    </clipPath>
  </defs>
  <path
     d="M 26,0 C 11.602648,0 0,11.602648 0,26 l 0,460 c 0,14.39735 11.602648,26 26,26 l 460,0 c 14.39735,0 26,-11.60265 26,-26 L 512,26 C 512,11.602648 500.39735,0 486,0 L 26,0 z"
     inkscape:connector-curvature="0"
     id="rect2986"
     style="fill:#5a8bc0;fill-opacity:1;stroke:none" />
  <text
     x="-268.84607"
     y="94.640053"
     id="text20"
     style="font-size:129.22999573px;line-height:125%;letter-spacing:0;word-spacing:0;font-family:Gentium Book Basic">
    <tspan
       x="-268.84607"
       y="94.640053"
       id="tspan22" />
  </text>
  <text
     x="130.08405"
     y="30.625624"
     transform="scale(4.0128205,0.24920128)"
     id="text24"
     style="font-size:46.95375824px;text-anchor:middle;font-family:Arial" />
  <text
     x="312.42395"
     y="14.64005"
     id="text26"
     style="font-size:129.22999573px;line-height:125%;letter-spacing:0;word-spacing:0;font-family:Gentium Book Basic">
    <tspan
       x="312.42395"
       y="14.64005"
       id="tspan28" />
  </text>
  <text
     x="274.93332"
     y="-290.41254"
     transform="scale(4.0128205,0.24920128)"
     id="text30"
     style="font-size:46.95375824px;text-anchor:middle;font-family:Arial" />
  <text
     x="-759.15607"
     y="-166.61993"
     id="text32"
     style="font-size:129.22999573px;line-height:125%;letter-spacing:0;word-spacing:0;font-family:Gentium Book Basic">
    <tspan
       x="-759.15607"
       y="-166.61993"
       id="tspan34" />
  </text>
  <text
     x="7.8946786"
     y="-1017.7589"
     transform="scale(4.0128205,0.24920128)"
     id="text36"
     style="font-size:46.95375824px;text-anchor:middle;font-family:Arial" />
  <text
     x="338.89392"
     y="-383.08994"
     id="text38"
     style="font-size:129.22999573px;line-height:125%;letter-spacing:0;word-spacing:0;font-family:Gentium Book Basic">
    <tspan
       x="338.89392"
       y="-383.08994"
       id="tspan40" />
  </text>
  <text
     x="281.53329"
     y="-1886.4344"
     transform="scale(4.0128205,0.24920128)"
     id="text42"
     style="font-size:46.95375824px;text-anchor:middle;font-family:Arial" />
  <text
     x="920.16394"
     y="-463.0899"
     id="text44"
     style="font-size:129.22999573px;line-height:125%;letter-spacing:0;word-spacing:0;font-family:Gentium Book Basic">
    <tspan
       x="920.16394"
       y="-463.0899"
       id="tspan46" />
  </text>
  <text
     x="426.38254"
     y="-2207.4629"
     transform="scale(4.0128205,0.24920128)"
     id="text48"
     style="font-size:46.95375824px;text-anchor:middle;font-family:Arial" />
  <text
     x="531.04395"
     y="-935.48993"
     id="text50"
     style="font-size:129.22999573px;line-height:125%;letter-spacing:0;word-spacing:0;font-family:Gentium Book Basic">
    <tspan
       x="531.04395"
       y="-935.48993"
       id="tspan52" />
  </text>
  <text
     x="329.41299"
     y="-4103.1133"
     transform="scale(4.0128205,0.24920128)"
     id="text54"
     style="font-size:46.95375824px;text-anchor:middle;font-family:Arial" />
  <text
     x="1112.304"
     y="-1015.4999"
     id="text56"
     style="font-size:129.22999573px;line-height:125%;letter-spacing:0;word-spacing:0;font-family:Gentium Book Basic">
    <tspan
       x="1112.304"
       y="-1015.4999"
       id="tspan58" />
  </text>
  <text
     x="474.2623"
     y="-4424.1514"
     transform="scale(4.0128205,0.24920128)"
     id="text60"
     style="font-size:46.95375824px;text-anchor:middle;font-family:Arial" />
  <text
     x="-720.49609"
     y="399.22015"
     id="text62"
     style="font-size:208.33000183px;line-height:125%;letter-spacing:0;word-spacing:0;font-family:Gentium Book Basic">
    <tspan
       x="-720.49609"
       y="399.22015"
       id="tspan64" />
  </text>
  <g
     clip-path="url(#clipPath3822)"
     id="g3433"
     style="opacity:0.25;fill:#000000">
    <path
       d="m 314.36701,135.60123 c -46.98841,0 -87.05493,29.74136 -102.32298,71.42683 l 388.90873,388.90873 c 15.26805,-41.68547 55.33457,-71.42683 102.32298,-71.42683 z"
       inkscape:connector-curvature="0"
       id="path3435"
       style="fill:#000000" />
    <path
       d="m 212.04403,207.02806 c -11.22407,-10.71799 -26.36986,-17.37497 -43.11198,-17.37497 l 388.90873,388.90873 c 16.74212,0 31.88791,6.65698 43.11198,17.37497 z"
       inkscape:connector-curvature="0"
       id="path3437"
       style="fill:#000000" />
    <path
       d="m 168.93205,189.65309 c -31.69997,0 -57.81849,23.59723 -61.90552,54.18317 l 388.90873,388.90873 c 4.08703,-30.58594 30.20555,-54.18317 61.90552,-54.18317 z"
       inkscape:connector-curvature="0"
       id="path3439"
       style="fill:#000000" />
    <path
       d="M 107.02653,243.83626 C 70.44702,244.60499 41,274.50599 41,311.27797 L 429.90873,700.1867 c 0,-36.77198 29.44702,-66.67298 66.02653,-67.44171 z"
       inkscape:connector-curvature="0"
       id="path3441"
       style="fill:#000000" />
    <path
       d="m 41,311.27797 c 0,18.5894 7.516639,35.37534 19.67771,47.53641 L 449.58644,747.72311 C 437.42537,735.56204 429.90873,718.7761 429.90873,700.1867 z"
       inkscape:connector-curvature="0"
       id="path3443"
       style="fill:#000000" />
    <path
       d="m 60.67771,358.81438 c 8.339853,8.33985 18.863973,14.50464 30.64601,17.5844 l 388.90873,388.90873 c -11.78204,-3.07976 -22.30616,-9.24455 -30.64601,-17.5844 z"
       inkscape:connector-curvature="0"
       id="path3445"
       style="fill:#000000" />
    <path
       d="m 91.32372,376.39878 34.6209,0 388.90873,388.90873 -34.6209,0 z"
       inkscape:connector-curvature="0"
       id="path3447"
       style="fill:#000000" />
    <path
       d="m 125.94462,376.39878 284.17897,0 388.90873,388.90873 -284.17897,0 z"
       inkscape:connector-curvature="0"
       id="path3449"
       style="fill:#000000" />
    <path
       d="M 410.12359,376.39878 C 445.19056,367.06765 471,335.2907 471,297.24733 l 388.90873,388.90873 c 0,38.04337 -25.80944,69.82032 -60.87641,79.15145 z"
       inkscape:connector-curvature="0"
       id="path3451"
       style="fill:#000000" />
    <path
       d="m 471,297.24733 c 0,-22.72233 -9.21099,-43.31515 -24.10689,-58.21105 l 388.90873,388.90873 c 14.8959,14.8959 24.10689,35.48872 24.10689,58.21105 z"
       inkscape:connector-curvature="0"
       id="path3453"
       style="fill:#000000" />
    <path
       d="m 446.89311,239.03628 c -7.42917,-7.42917 -16.27241,-13.44129 -26.09229,-17.59378 l 388.90873,388.90873 c 9.81988,4.15249 18.66312,10.1646 26.09229,17.59378 z"
       inkscape:connector-curvature="0"
       id="path3455"
       style="fill:#000000" />
    <path
       d="M 420.80082,221.4425 C 416.30376,200.62918 405.8589,182.022 391.33378,167.49688 l 388.90873,388.90873 c 14.52512,14.52512 24.96998,33.1323 29.46704,53.94562 z"
       inkscape:connector-curvature="0"
       id="path3457"
       style="fill:#000000" />
    <path
       d="m 391.33378,167.49688 c -19.7018,-19.7018 -46.91048,-31.89339 -76.96563,-31.89339 l 388.90873,388.90873 c 30.05515,0 57.26383,12.19159 76.96563,31.89339 z"
       inkscape:connector-curvature="0"
       id="path3459"
       style="fill:#000000" />
    <path
       d="m 163.78194,208.44551 c 2.51392,0 4.79258,1.00493 6.42937,2.64172 l 388.90873,388.90873 c -1.63679,-1.63679 -3.91545,-2.64172 -6.42937,-2.64172 z"
       inkscape:connector-curvature="0"
       id="path3461"
       style="fill:#000000" />
    <path
       d="m 170.21131,211.08723 c 1.59478,1.59478 2.58022,3.78941 2.58022,6.2388 l 388.90873,388.90873 c 0,-2.44939 -0.98544,-4.64402 -2.58022,-6.2388 z"
       inkscape:connector-curvature="0"
       id="path3463"
       style="fill:#000000" />
    <path
       d="m 172.79153,217.32603 0,35.65001 388.90873,388.90873 0,-35.65001 z"
       inkscape:connector-curvature="0"
       id="path3465"
       style="fill:#000000" />
    <path
       d="m 172.79153,252.97604 c 6.84946,-4.81839 15.16843,-7.72234 24.19613,-7.72234 l 388.90873,388.90873 c -9.0277,0 -17.34667,2.90395 -24.19613,7.72234 z"
       inkscape:connector-curvature="0"
       id="path3467"
       style="fill:#000000" />
    <path
       d="m 196.98766,245.2537 c 11.67588,0 22.25535,4.72277 29.90287,12.37029 l 388.90873,388.90873 c -7.64752,-7.64752 -18.22699,-12.37029 -29.90287,-12.37029 z"
       inkscape:connector-curvature="0"
       id="path3469"
       style="fill:#000000" />
    <path
       d="m 226.89053,257.62399 c 2.94235,2.94234 5.45068,6.31764 7.42046,10.02348 L 623.21972,656.5562 c -1.96978,-3.70584 -4.47811,-7.08114 -7.42046,-10.02348 z"
       inkscape:connector-curvature="0"
       id="path3471"
       style="fill:#000000" />
    <path
       d="m 234.31099,267.64747 c 7.0974,-13.31172 21.04652,-22.39377 37.19539,-22.39377 l 388.90873,388.90873 c -16.14887,0 -30.09799,9.08205 -37.19539,22.39377 z"
       inkscape:connector-curvature="0"
       id="path3473"
       style="fill:#000000" />
    <path
       d="m 271.50638,245.2537 c 11.64069,0 22.16066,4.70048 29.77069,12.31051 L 690.1858,646.47294 c -7.61003,-7.61003 -18.13,-12.31051 -29.77069,-12.31051 z"
       inkscape:connector-curvature="0"
       id="path3475"
       style="fill:#000000" />
    <path
       d="m 301.27707,257.56421 c 7.61077,7.61077 12.31103,18.13166 12.31103,29.77121 l 388.90873,388.90873 c 0,-11.63955 -4.70026,-22.16044 -12.31103,-29.77121 z"
       inkscape:connector-curvature="0"
       id="path3477"
       style="fill:#000000" />
    <path
       d="m 313.5881,287.33542 c 0,23.28251 -18.80374,42.21758 -42.08172,42.21758 l 388.90873,388.90873 c 23.27798,0 42.08172,-18.93507 42.08172,-42.21758 z"
       inkscape:connector-curvature="0"
       id="path3479"
       style="fill:#000000" />
    <path
       d="m 271.50638,329.553 c -11.59244,0 -22.0489,-4.7224 -29.65215,-12.32565 l 388.90873,388.90873 c 7.60325,7.60325 18.05971,12.32565 29.65215,12.32565 z"
       inkscape:connector-curvature="0"
       id="path3481"
       style="fill:#000000" />
    <path
       d="m 241.85423,317.22735 c -2.9907,-2.99069 -5.53995,-6.42712 -7.54324,-10.19719 l 388.90873,388.90873 c 2.00329,3.77007 4.55254,7.2065 7.54324,10.19719 z"
       inkscape:connector-curvature="0"
       id="path3483"
       style="fill:#000000" />
    <path
       d="m 234.31099,307.03016 c -7.08721,13.38306 -21.15067,22.52284 -37.32333,22.52284 l 388.90873,388.90873 c 16.17266,0 30.23612,-9.13978 37.32333,-22.52284 z"
       inkscape:connector-curvature="0"
       id="path3485"
       style="fill:#000000" />
    <path
       d="m 196.98766,329.553 c -11.60771,0 -22.10104,-4.70569 -29.70594,-12.31058 l 388.90873,388.90873 c 7.60489,7.60489 18.09823,12.31058 29.70594,12.31058 z"
       inkscape:connector-curvature="0"
       id="path3487"
       style="fill:#000000" />
    <path
       d="m 167.28172,317.24242 c -7.64885,-7.64885 -12.37577,-18.23051 -12.37577,-29.907 l 388.90873,388.90873 c 0,11.67649 4.72692,22.25815 12.37577,29.907 z"
       inkscape:connector-curvature="0"
       id="path3489"
       style="fill:#000000" />
    <path
       d="m 154.90595,287.33542 c 0,-0.48569 0.11208,-0.93401 0.12793,-1.41518 l 388.90873,388.90873 c -0.0159,0.48117 -0.12793,0.92949 -0.12793,1.41518 z"
       inkscape:connector-curvature="0"
       id="path3491"
       style="fill:#000000" />
    <path
       d="m 155.03388,285.92024 c -0.0611,-0.42682 -0.12793,-0.84344 -0.12793,-1.28724 l 388.90873,388.90873 c 0,0.4438 0.0668,0.86042 0.12793,1.28724 z"
       inkscape:connector-curvature="0"
       id="path3493"
       style="fill:#000000" />
    <path
       d="m 154.90595,284.633 0,-67.30585 388.90873,388.90873 0,67.30585 z"
       inkscape:connector-curvature="0"
       id="path3495"
       style="fill:#000000" />
    <path
       d="m 154.90595,217.32715 c 0,-4.96331 3.91721,-8.88052 8.88052,-8.88052 L 552.6952,597.35536 c -4.96331,0 -8.88052,3.91721 -8.88052,8.88052 z"
       inkscape:connector-curvature="0"
       id="path3497"
       style="fill:#000000" />
    <path
       d="m 313.34243,242.42222 c 2.4579,-0.072 4.90315,0.86331 6.72591,2.68607 l 388.90873,388.90873 c -1.82276,-1.82276 -4.26801,-2.75805 -6.72591,-2.68607 z"
       inkscape:connector-curvature="0"
       id="path3499"
       style="fill:#000000" />
    <path
       d="m 320.06834,245.10829 c 0.35764,0.35765 0.69132,0.74946 0.99643,1.17453 L 709.9735,635.19155 c -0.30511,-0.42507 -0.63879,-0.81688 -0.99643,-1.17453 z"
       inkscape:connector-curvature="0"
       id="path3501"
       style="fill:#000000" />
    <path
       d="m 321.06477,246.28282 18.01804,25.09959 388.90873,388.90873 -18.01804,-25.09959 z"
       inkscape:connector-curvature="0"
       id="path3503"
       style="fill:#000000" />
    <path
       d="m 339.08281,271.38241 17.89011,-25.09959 388.90873,388.90873 -17.89011,25.09959 z"
       inkscape:connector-curvature="0"
       id="path3505"
       style="fill:#000000" />
    <path
       d="m 356.97292,246.28282 c 2.96055,-4.12553 8.73561,-5.15578 12.87019,-2.18843 l 388.90873,388.90873 c -4.13458,-2.96735 -9.90964,-1.9371 -12.87019,2.18843 z"
       inkscape:connector-curvature="0"
       id="path3507"
       style="fill:#000000" />
    <path
       d="m 369.84311,244.09439 c 0.41944,0.301 0.80689,0.63109 1.16139,0.98559 l 388.90873,388.90873 c -0.3545,-0.3545 -0.74195,-0.68459 -1.16139,-0.98559 z"
       inkscape:connector-curvature="0"
       id="path3509"
       style="fill:#000000" />
    <path
       d="m 371.0045,245.07998 c 3.1323,3.1323 3.69269,8.17037 1.02704,11.8846 l 388.90873,388.90873 c 2.66565,-3.71423 2.10526,-8.7523 -1.02704,-11.8846 z"
       inkscape:connector-curvature="0"
       id="path3512"
       style="fill:#000000" />
    <path
       d="m 372.03154,256.96458 -21.75071,30.11611 388.90873,388.90873 21.75071,-30.11611 z"
       inkscape:connector-curvature="0"
       id="path3514"
       style="fill:#000000" />
    <path
       d="m 350.28083,287.08069 21.75071,30.24518 388.90873,388.90873 -21.75071,-30.24518 z"
       inkscape:connector-curvature="0"
       id="path3516"
       style="fill:#000000" />
    <path
       d="m 372.03154,317.32587 c 2.95262,4.11421 1.90879,9.80209 -2.18843,12.74113 l 388.90873,388.90873 c 4.09722,-2.93904 5.14105,-8.62692 2.18843,-12.74113 z"
       inkscape:connector-curvature="0"
       id="path3518"
       style="fill:#000000" />
    <path
       d="m 369.84311,330.067 c -3.69816,2.65377 -8.76254,2.22043 -11.90638,-0.92341 l 388.90873,388.90873 c 3.14384,3.14384 8.20822,3.57718 11.90638,0.92341 z"
       inkscape:connector-curvature="0"
       id="path3520"
       style="fill:#000000" />
    <path
       d="m 357.93673,329.14359 c -0.34599,-0.34599 -0.66872,-0.72481 -0.96381,-1.13596 l 388.90873,388.90873 c 0.29509,0.41115 0.61782,0.78997 0.96381,1.13596 z"
       inkscape:connector-curvature="0"
       id="path3522"
       style="fill:#000000" />
    <path
       d="m 356.97292,328.00763 -17.89011,-25.09959 388.90873,388.90873 17.89011,25.09959 z"
       inkscape:connector-curvature="0"
       id="path3524"
       style="fill:#000000" />
    <path
       d="m 339.08281,302.90804 -18.01804,25.09959 388.90873,388.90873 18.01804,-25.09959 z"
       inkscape:connector-curvature="0"
       id="path3526"
       style="fill:#000000" />
    <path
       d="m 321.06477,328.00763 c -2.9764,4.14702 -8.76504,5.0052 -12.87019,2.05937 l 388.90873,388.90873 c 4.10515,2.94583 9.89379,2.08765 12.87019,-2.05937 z"
       inkscape:connector-curvature="0"
       id="path3528"
       style="fill:#000000" />
    <path
       d="m 308.19458,330.067 c -0.42076,-0.30202 -0.80931,-0.63304 -1.16464,-0.98836 l 388.90873,388.90873 c 0.35533,0.35532 0.74388,0.68634 1.16464,0.98836 z"
       inkscape:connector-curvature="0"
       id="path3530"
       style="fill:#000000" />
    <path
       d="m 307.02994,329.07864 c -3.10374,-3.10375 -3.67211,-8.0622 -1.0238,-11.75277 L 694.91487,706.2346 c -2.64831,3.69057 -2.07994,8.64902 1.0238,11.75277 z"
       inkscape:connector-curvature="0"
       id="path3532"
       style="fill:#000000" />
    <path
       d="m 306.00614,317.32587 21.75072,-30.24518 388.90873,388.90873 -21.75072,30.24518 z"
       inkscape:connector-curvature="0"
       id="path3534"
       style="fill:#000000" />
    <path
       d="m 327.75686,287.08069 -21.75072,-30.11611 388.90873,388.90873 21.75072,30.11611 z"
       inkscape:connector-curvature="0"
       id="path3536"
       style="fill:#000000" />
    <path
       d="m 306.00614,256.96458 c -2.96734,-4.13459 -1.93822,-9.90964 2.18844,-12.87019 l 388.90873,388.90873 c -4.12666,2.96055 -5.15578,8.7356 -2.18844,12.87019 z"
       inkscape:connector-curvature="0"
       id="path3538"
       style="fill:#000000" />
    <path
       d="m 308.19458,244.09439 c 1.59179,-1.14347 3.43605,-1.62237 5.14785,-1.67331 l 388.90873,388.90873 c -1.7118,0.0509 -3.55606,0.52984 -5.14785,1.67331 z"
       inkscape:connector-curvature="0"
       id="path3540"
       style="fill:#000000" />
    <path
       d="m 196.99219,261.34032 c -14.35783,0 -25.99737,11.64068 -25.99737,25.99737 l 388.90873,388.90873 c 0,-14.35669 11.63954,-25.99737 25.99737,-25.99737 z"
       inkscape:connector-curvature="0"
       id="path3542"
       style="fill:#000000" />
    <path
       d="m 170.99482,287.33769 c 0,7.17877 2.91006,13.67801 7.61465,18.3826 L 567.5182,694.62902 c -4.70459,-4.70459 -7.61465,-11.20383 -7.61465,-18.3826 z"
       inkscape:connector-curvature="0"
       id="path3544"
       style="fill:#000000" />
    <path
       d="m 178.60947,305.72029 c 4.70478,4.70478 11.20423,7.61478 18.38272,7.61478 L 585.90092,702.2438 c -7.17849,0 -13.67794,-2.91 -18.38272,-7.61478 z"
       inkscape:connector-curvature="0"
       id="path3546"
       style="fill:#000000" />
    <path
       d="m 196.99219,313.33507 c 14.35782,0 25.99738,-11.64068 25.99738,-25.99738 L 611.8983,676.24642 c 0,14.3567 -11.63956,25.99738 -25.99738,25.99738 z"
       inkscape:connector-curvature="0"
       id="path3548"
       style="fill:#000000" />
    <path
       d="m 222.98957,287.33769 c 0,-7.17877 -2.91006,-13.67799 -7.61465,-18.38258 l 388.90873,388.90872 c 4.70459,4.7046 7.61465,11.20382 7.61465,18.38259 z"
       inkscape:connector-curvature="0"
       id="path3550"
       style="fill:#000000" />
    <path
       d="m 215.37492,268.95511 c -4.70478,-4.70479 -11.20424,-7.61479 -18.38273,-7.61479 l 388.90873,388.90873 c 7.17849,0 13.67795,2.91 18.38273,7.61478 z"
       inkscape:connector-curvature="0"
       id="path3552"
       style="fill:#000000" />
    <path
       d="m 271.51091,261.34032 c -14.35782,0 -25.99737,11.64069 -25.99737,25.99737 l 388.90873,388.90873 c 0,-14.35668 11.63955,-25.99737 25.99737,-25.99737 z"
       inkscape:connector-curvature="0"
       id="path3554"
       style="fill:#000000" />
    <path
       d="m 245.51354,287.33769 c 0,7.17877 2.91006,13.67801 7.61465,18.3826 l 388.90873,388.90873 c -4.70459,-4.70459 -7.61465,-11.20383 -7.61465,-18.3826 z"
       inkscape:connector-curvature="0"
       id="path3556"
       style="fill:#000000" />
    <path
       d="m 253.12819,305.72029 c 4.70478,4.70478 11.20423,7.61478 18.38272,7.61478 L 660.41964,702.2438 c -7.17849,0 -13.67794,-2.91 -18.38272,-7.61478 z"
       inkscape:connector-curvature="0"
       id="path3558"
       style="fill:#000000" />
    <path
       d="m 271.51091,313.33507 c 14.35782,0 25.99738,-11.64068 25.99738,-25.99738 l 388.90873,388.90873 c 0,14.3567 -11.63956,25.99738 -25.99738,25.99738 z"
       inkscape:connector-curvature="0"
       id="path3560"
       style="fill:#000000" />
    <path
       d="m 297.50829,287.33769 c 0,-7.17877 -2.91006,-13.67799 -7.61465,-18.38258 l 388.90873,388.90872 c 4.70459,4.7046 7.61465,11.20382 7.61465,18.38259 z"
       inkscape:connector-curvature="0"
       id="path3562"
       style="fill:#000000" />
    <path
       d="m 289.89364,268.95511 c -4.70478,-4.70479 -11.20424,-7.61479 -18.38273,-7.61479 l 388.90873,388.90873 c 7.17849,0 13.67795,2.91 18.38273,7.61478 z"
       inkscape:connector-curvature="0"
       id="path3564"
       style="fill:#000000" />
  </g>
  <path
     d="m 314.36701,135.60123 c -46.98841,0 -87.05493,29.74136 -102.32298,71.42683 -11.22407,-10.71799 -26.36986,-17.37497 -43.11198,-17.37497 -31.69997,0 -57.81849,23.59723 -61.90552,54.18317 C 70.44702,244.60499 41,274.50599 41,311.27797 c 0,31.33769 21.36126,57.55018 50.32372,65.12081 h 34.6209 284.17897 C 445.19056,367.06765 471,335.2907 471,297.24733 471,263.19249 450.3101,233.92097 420.80082,221.4425 410.20397,172.39811 366.58141,135.60349 314.36815,135.60349 m -150.58621,72.84202 c 4.96331,0 9.00959,3.91721 9.00959,8.88052 v 35.65001 c 6.84946,-4.81839 15.16843,-7.72234 24.19613,-7.72234 16.16812,0 30.23385,9.056 37.32333,22.39377 7.0974,-13.31172 21.04652,-22.39377 37.19539,-22.39377 23.28251,0 42.08172,18.80375 42.08172,42.08172 0,23.28251 -18.80374,42.21758 -42.08172,42.21758 -16.15226,0 -30.09912,-9.1681 -37.19539,-22.52284 -7.08721,13.38306 -21.15067,22.52284 -37.32333,22.52284 -23.2825,0 -42.08171,-18.93169 -42.08171,-42.21758 0,-0.48569 0.11208,-0.93401 0.12793,-1.41518 -0.0611,-0.42682 -0.12793,-0.84344 -0.12793,-1.28724 v -67.30585 c 0,-4.96331 3.91721,-8.88052 8.88052,-8.88052 m 149.55596,33.97559 c 2.94017,-0.0861 5.86223,1.26912 7.72234,3.8606 l 18.01804,25.09959 17.89011,-25.09959 c 2.96055,-4.12553 8.73561,-5.15578 12.87019,-2.18843 4.12552,2.96055 5.15577,8.7356 2.18843,12.87019 l -21.75071,30.11611 21.75071,30.24518 c 2.95262,4.11421 1.90879,9.80209 -2.18843,12.74113 -4.10515,2.94583 -9.89379,2.08766 -12.87019,-2.05937 l -17.89011,-25.09959 -18.01804,25.09959 c -2.9764,4.14702 -8.76504,5.0052 -12.87019,2.05937 -4.09609,-2.94018 -5.13993,-8.62805 -2.18844,-12.74113 l 21.75072,-30.24518 -21.75072,-30.11611 c -2.96734,-4.13459 -1.93822,-9.90964 2.18844,-12.87019 1.59179,-1.14347 3.43605,-1.62237 5.14785,-1.67331 m -116.35024,18.91924 c -14.35783,0 -25.99737,11.64068 -25.99737,25.99737 0,14.35782 11.64067,25.99738 25.99737,25.99738 14.35782,0 25.99738,-11.64068 25.99738,-25.99738 0,-14.35782 -11.64069,-25.99737 -25.99738,-25.99737 m 74.51872,0 c -14.35782,0 -25.99737,11.64069 -25.99737,25.99737 0,14.35782 11.64067,25.99738 25.99737,25.99738 14.35782,0 25.99738,-11.64068 25.99738,-25.99738 0,-14.35782 -11.64069,-25.99737 -25.99738,-25.99737"
     inkscape:connector-curvature="0"
     id="path3050"
     style="fill:#ffffff" />
</svg>
