<?xml version="1.0" encoding="UTF-8" standalone="no"?>
<!-- Created with Inkscape (http://www.inkscape.org/) -->

<svg
   xmlns:dc="http://purl.org/dc/elements/1.1/"
   xmlns:cc="http://creativecommons.org/ns#"
   xmlns:rdf="http://www.w3.org/1999/02/22-rdf-syntax-ns#"
   xmlns:svg="http://www.w3.org/2000/svg"
   xmlns="http://www.w3.org/2000/svg"
   xmlns:inkscape="http://www.inkscape.org/namespaces/inkscape"
   version="1.1"
   width="100%"
   height="100%"
   viewBox="0 0 512 512"
   id="svg2">
  <metadata
     id="metadata168">
    <rdf:RDF>
      <cc:Work
         rdf:about="">
        <dc:format>image/svg+xml</dc:format>
        <dc:type
           rdf:resource="http://purl.org/dc/dcmitype/StillImage" />
      </cc:Work>
    </rdf:RDF>
  </metadata>
  <defs
     id="defs4" />
  <text
     x="729.64001"
     y="231.36"
     id="text14"
     style="font-size:129.22999573px;line-height:125%;letter-spacing:0;word-spacing:0;font-family:Gentium Book Basic">
    <tspan
       x="729.64001"
       y="231.36"
       id="tspan16" />
  </text>
  <text
     x="378.91"
     y="579.25"
     transform="scale(4.0128,0.2492)"
     id="text18"
     style="font-size:46.95399857px;text-anchor:middle;font-family:Arial" />
  <text
     x="1310.91"
     y="151.36"
     id="text20"
     style="font-size:129.22999573px;line-height:125%;letter-spacing:0;word-spacing:0;font-family:Gentium Book Basic">
    <tspan
       x="1310.91"
       y="151.36"
       id="tspan22" />
  </text>
  <text
     x="523.76001"
     y="258.22"
     transform="scale(4.0128,0.2492)"
     id="text24"
     style="font-size:46.95399857px;text-anchor:middle;font-family:Arial" />
  <text
     x="239.33"
     y="-29.900999"
     id="text26"
     style="font-size:129.22999573px;line-height:125%;letter-spacing:0;word-spacing:0;font-family:Gentium Book Basic">
    <tspan
       x="239.33"
       y="-29.900999"
       id="tspan28" />
  </text>
  <text
     x="256.72"
     y="-469.14001"
     transform="scale(4.0128,0.2492)"
     id="text30"
     style="font-size:46.95399857px;text-anchor:middle;font-family:Arial" />
  <text
     x="1337.38"
     y="-246.37"
     id="text32"
     style="font-size:129.22999573px;line-height:125%;letter-spacing:0;word-spacing:0;font-family:Gentium Book Basic">
    <tspan
       x="1337.38"
       y="-246.37"
       id="tspan34" />
  </text>
  <text
     x="530.35999"
     y="-1337.8"
     transform="scale(4.0128,0.2492)"
     id="text36"
     style="font-size:46.95399857px;text-anchor:middle;font-family:Arial" />
  <text
     x="1918.65"
     y="-326.38"
     id="text38"
     style="font-size:129.22999573px;line-height:125%;letter-spacing:0;word-spacing:0;font-family:Gentium Book Basic">
    <tspan
       x="1918.65"
       y="-326.38"
       id="tspan40" />
  </text>
  <text
     x="675.21002"
     y="-1658.84"
     transform="scale(4.0128,0.2492)"
     id="text42"
     style="font-size:46.95399857px;text-anchor:middle;font-family:Arial" />
  <text
     x="1529.53"
     y="-798.78003"
     id="text44"
     style="font-size:129.22999573px;line-height:125%;letter-spacing:0;word-spacing:0;font-family:Gentium Book Basic">
    <tspan
       x="1529.53"
       y="-798.78003"
       id="tspan46" />
  </text>
  <text
     x="578.23999"
     y="-3554.49"
     transform="scale(4.0128,0.2492)"
     id="text48"
     style="font-size:46.95399857px;text-anchor:middle;font-family:Arial" />
  <text
     x="2110.79"
     y="-878.78003"
     id="text50"
     style="font-size:129.22999573px;line-height:125%;letter-spacing:0;word-spacing:0;font-family:Gentium Book Basic">
    <tspan
       x="2110.79"
       y="-878.78003"
       id="tspan52" />
  </text>
  <text
     x="723.09003"
     y="-3875.52"
     transform="scale(4.0128,0.2492)"
     id="text54"
     style="font-size:46.95399857px;text-anchor:middle;font-family:Arial" />
  <text
     x="277.98999"
     y="535.94"
     id="text56"
     style="font-size:208.33000183px;line-height:125%;letter-spacing:0;word-spacing:0;fill:#ffffff;font-family:Gentium Book Basic">
    <tspan
       x="277.98999"
       y="535.94"
       id="tspan58" />
  </text>
  <rect
     width="512"
     height="512"
     rx="25.988001"
     x="0"
     y="-0.003"
     id="rect60"
     style="fill:#5480bf" />
  <g
     id="g62"
     style="fill-rule:evenodd">
    <path
       d="m 26,-0.003 c -14.397,0 -26,11.603 -26,26 v 460 c 0,14.397 11.603,26 26,26 h 21.781 v -512 H 26"
       inkscape:connector-curvature="0"
       id="path64"
       style="fill:#366378" />
    <path
       d="m 47.781,-0.003 v 512 h 40 v -512 h -40"
       inkscape:connector-curvature="0"
       id="path66"
       style="fill:#003366" />
  </g>
  <text
     x="171.42999"
     y="271.06"
     id="text68"
     style="font-size:129.22999573px;line-height:125%;letter-spacing:0;word-spacing:0;font-family:Gentium Book Basic">
    <tspan
       x="171.42999"
       y="271.06"
       id="tspan70" />
  </text>
  <text
     x="239.8"
     y="738.52002"
     transform="scale(4.0128,0.2492)"
     id="text72"
     style="font-size:46.95399857px;text-anchor:middle;font-family:Arial" />
  <text
     x="752.70001"
     y="191.06"
     id="text74"
     style="font-size:129.22999573px;line-height:125%;letter-spacing:0;word-spacing:0;font-family:Gentium Book Basic">
    <tspan
       x="752.70001"
       y="191.06"
       id="tspan76" />
  </text>
  <text
     x="384.64999"
     y="417.51001"
     transform="scale(4.0128,0.2492)"
     id="text78"
     style="font-size:46.95399857px;text-anchor:middle;font-family:Arial" />
  <text
     x="-318.88"
     y="9.7930002"
     id="text80"
     style="font-size:129.22999573px;line-height:125%;letter-spacing:0;word-spacing:0;font-family:Gentium Book Basic">
    <tspan
       x="-318.88"
       y="9.7930002"
       id="tspan82" />
  </text>
  <text
     x="117.61"
     y="-309.85001"
     transform="scale(4.0128,0.2492)"
     id="text84"
     style="font-size:46.95399857px;text-anchor:middle;font-family:Arial" />
  <text
     x="779.16998"
     y="-206.67"
     id="text86"
     style="font-size:129.22999573px;line-height:125%;letter-spacing:0;word-spacing:0;font-family:Gentium Book Basic">
    <tspan
       x="779.16998"
       y="-206.67"
       id="tspan88" />
  </text>
  <text
     x="391.25"
     y="-1178.52"
     transform="scale(4.0128,0.2492)"
     id="text90"
     style="font-size:46.95399857px;text-anchor:middle;font-family:Arial" />
  <text
     x="1360.4399"
     y="-286.67999"
     id="text92"
     style="font-size:129.22999573px;line-height:125%;letter-spacing:0;word-spacing:0;font-family:Gentium Book Basic">
    <tspan
       x="1360.4399"
       y="-286.67999"
       id="tspan94" />
  </text>
  <text
     x="536.09998"
     y="-1499.54"
     transform="scale(4.0128,0.2492)"
     id="text96"
     style="font-size:46.95399857px;text-anchor:middle;font-family:Arial" />
  <text
     x="971.32001"
     y="-759.08002"
     id="text98"
     style="font-size:129.22999573px;line-height:125%;letter-spacing:0;word-spacing:0;font-family:Gentium Book Basic">
    <tspan
       x="971.32001"
       y="-759.08002"
       id="tspan100" />
  </text>
  <text
     x="439.13"
     y="-3395.1799"
     transform="scale(4.0128,0.2492)"
     id="text102"
     style="font-size:46.95399857px;text-anchor:middle;font-family:Arial" />
  <text
     x="1552.58"
     y="-839.08002"
     id="text104"
     style="font-size:129.22999573px;line-height:125%;letter-spacing:0;word-spacing:0;font-family:Gentium Book Basic">
    <tspan
       x="1552.58"
       y="-839.08002"
       id="tspan106" />
  </text>
  <text
     x="583.97998"
     y="-3716.21"
     transform="scale(4.0128,0.2492)"
     id="text108"
     style="font-size:46.95399857px;text-anchor:middle;font-family:Arial" />
  <g
     id="g110"
     style="line-height:125%;letter-spacing:0;word-spacing:0;font-family:Gentium Book Basic">
    <text
       x="-280.22"
       y="575.64001"
       id="text112"
       style="font-size:208.33000183px">
      <tspan
         x="-280.22"
         y="575.64001"
         id="tspan114" />
    </text>
    <text
       x="-101.28"
       y="187.97"
       id="text116"
       style="font-size:129.22999573px">
      <tspan
         x="-101.28"
         y="187.97"
         id="tspan118" />
    </text>
  </g>
  <text
     x="171.84"
     y="405.13"
     transform="scale(4.0128,0.2492)"
     id="text120"
     style="font-size:46.95399857px;text-anchor:middle;font-family:Arial" />
  <text
     x="479.98999"
     y="107.97"
     id="text122"
     style="font-size:129.22999573px;line-height:125%;letter-spacing:0;word-spacing:0;font-family:Gentium Book Basic">
    <tspan
       x="479.98999"
       y="107.97"
       id="tspan124" />
  </text>
  <text
     x="316.69"
     y="84.099998"
     transform="scale(4.0128,0.2492)"
     id="text126"
     style="font-size:46.95399857px;text-anchor:middle;font-family:Arial" />
  <text
     x="-591.59003"
     y="-73.290001"
     id="text128"
     style="font-size:129.22999573px;line-height:125%;letter-spacing:0;word-spacing:0;font-family:Gentium Book Basic">
    <tspan
       x="-591.59003"
       y="-73.290001"
       id="tspan130" />
  </text>
  <text
     x="49.653999"
     y="-643.25"
     transform="scale(4.0128,0.2492)"
     id="text132"
     style="font-size:46.95399857px;text-anchor:middle;font-family:Arial" />
  <text
     x="506.45999"
     y="-289.76001"
     id="text134"
     style="font-size:129.22999573px;line-height:125%;letter-spacing:0;word-spacing:0;font-family:Gentium Book Basic">
    <tspan
       x="506.45999"
       y="-289.76001"
       id="tspan136" />
  </text>
  <text
     x="323.29001"
     y="-1511.91"
     transform="scale(4.0128,0.2492)"
     id="text138"
     style="font-size:46.95399857px;text-anchor:middle;font-family:Arial" />
  <text
     x="1087.73"
     y="-369.76999"
     id="text140"
     style="font-size:129.22999573px;line-height:125%;letter-spacing:0;word-spacing:0;font-family:Gentium Book Basic">
    <tspan
       x="1087.73"
       y="-369.76999"
       id="tspan142" />
  </text>
  <text
     x="468.14001"
     y="-1832.95"
     transform="scale(4.0128,0.2492)"
     id="text144"
     style="font-size:46.95399857px;text-anchor:middle;font-family:Arial" />
  <text
     x="698.60999"
     y="-842.16998"
     id="text146"
     style="font-size:129.22999573px;line-height:125%;letter-spacing:0;word-spacing:0;font-family:Gentium Book Basic">
    <tspan
       x="698.60999"
       y="-842.16998"
       id="tspan148" />
  </text>
  <text
     x="371.17001"
     y="-3728.5901"
     transform="scale(4.0128,0.2492)"
     id="text150"
     style="font-size:46.95399857px;text-anchor:middle;font-family:Arial" />
  <text
     x="1279.87"
     y="-922.16998"
     id="text152"
     style="font-size:129.22999573px;line-height:125%;letter-spacing:0;word-spacing:0;font-family:Gentium Book Basic">
    <tspan
       x="1279.87"
       y="-922.16998"
       id="tspan154" />
  </text>
  <text
     x="516.02002"
     y="-4049.6201"
     transform="scale(4.0128,0.2492)"
     id="text156"
     style="font-size:46.95399857px;text-anchor:middle;font-family:Arial" />
  <text
     x="-552.92999"
     y="492.54999"
     id="text158"
     style="font-size:208.33000183px;line-height:125%;letter-spacing:0;word-spacing:0;fill:#ffffff;font-family:Gentium Book Basic">
    <tspan
       x="-552.92999"
       y="492.54999"
       id="tspan160"
       style="fill:#ffffff" />
  </text>
  <path
     d="m 299.34,82.22 c -95.93,0 -173.66,77.7 -173.72,173.63 v 110.59 23.906 12.438 c 0,7.484 2.989,14.239 7.875,19.13 l 90.09,90.09 h 262.41 c 14.397,0 26,-11.603 26,-26 v -263.16 l -89.72,-89.72 C 390.817,101.666 347.371,82.218 299.365,82.218 h -0.031"
     inkscape:connector-curvature="0"
     id="path162"
     style="opacity:0.25;fill:#000000" />
  <path
     d="m 299.35,82.22 c -95.93,0 -173.68,77.71 -173.74,173.63 v 110.58 23.913 12.424 c 0,14.938 12.01,27 26.946,27 h 12.54 87.08 47.3 c 95.94,-0.039 173.69,-77.861 173.69,-173.81 0,-95.98 -77.84,-173.74 -173.81,-173.74 m 52.38,38.03 c 6.982,0 11.969,0.816 18.43,2.508 9.424,2.472 17.09,10.205 17.09,19.19 0,10.864 -7.871,18.722 -19.655,18.722 -5.615,0 -7.641,-1.05 -15.864,-1.05 -24.26,0 -43.935,19.655 -43.977,43.919 v 38.03 c 0,3.434 2.81,6.182 6.24,6.182 h 28.871 c 10.763,0 19.472,8.631 19.481,19.422 0,10.796 -8.722,19.422 -19.481,19.422 h -35.11 v 44.27 0.058 c 0,46.02 -37.27,83.35 -83.29,83.35 -6.983,0 -11.969,-0.815 -18.43,-2.508 -9.424,-2.47 -17.09,-10.205 -17.09,-19.19 0,-10.861 7.864,-18.722 19.655,-18.722 5.609,0 7.653,1.05 15.864,1.05 24.26,0 43.939,-19.664 43.977,-43.919 v -38.2 c 0,-3.426 -2.81,-6.182 -6.24,-6.182 h -28.871 c -10.765,0 -19.481,-8.625 -19.481,-19.422 0,-10.859 8.776,-19.422 19.655,-19.422 h 34.937 v -44.09 -0.058 c 0,-46.02 37.27,-83.35 83.29,-83.35"
     inkscape:connector-curvature="0"
     id="path164"
     style="fill:#ffffff" />
</svg>
