<?xml version="1.0" encoding="UTF-8" standalone="no"?>
<!-- Created with Inkscape (http://www.inkscape.org/) -->

<svg
   xmlns:dc="http://purl.org/dc/elements/1.1/"
   xmlns:cc="http://creativecommons.org/ns#"
   xmlns:rdf="http://www.w3.org/1999/02/22-rdf-syntax-ns#"
   xmlns:svg="http://www.w3.org/2000/svg"
   xmlns="http://www.w3.org/2000/svg"
   xmlns:inkscape="http://www.inkscape.org/namespaces/inkscape"
   version="1.1"
   width="100%"
   height="100%"
   viewBox="0 0 512 512"
   id="svg2">
  <metadata
     id="metadata93">
    <rdf:RDF>
      <cc:Work
         rdf:about="">
        <dc:format>image/svg+xml</dc:format>
        <dc:type
           rdf:resource="http://purl.org/dc/dcmitype/StillImage" />
      </cc:Work>
    </rdf:RDF>
  </metadata>
  <defs
     id="defs4">
    <clipPath
       id="0">
      <path
         d="M 26,0 C 11.603,0 0,11.603 0,26 v 460 c 0,14.397 11.603,26 26,26 h 460 c 14.397,0 26,-11.603 26,-26 V 26 C 512,11.603 500.397,0 486,0 H 26"
         inkscape:connector-curvature="0"
         id="path7" />
    </clipPath>
  </defs>
  <path
     d="M 26,0 C 11.603,0 0,11.603 0,26 v 460 c 0,14.397 11.603,26 26,26 h 460 c 14.397,0 26,-11.603 26,-26 V 26 C 512,11.603 500.397,0 486,0 H 26"
     inkscape:connector-curvature="0"
     id="path9"
     style="fill:#22acbb" />
  <text
     x="44.419998"
     y="232.17"
     id="text11"
     style="font-size:129.22999573px;line-height:125%;letter-spacing:0;word-spacing:0;font-family:Gentium Book Basic">
    <tspan
       x="44.419998"
       y="232.17"
       id="tspan13" />
  </text>
  <text
     x="208.14999"
     y="582.47998"
     transform="scale(4.0128,0.2492)"
     id="text15"
     style="font-size:46.95399857px;text-anchor:middle;font-family:Arial" />
  <text
     x="625.69"
     y="152.17"
     id="text17"
     style="font-size:129.22999573px;line-height:125%;letter-spacing:0;word-spacing:0;font-family:Gentium Book Basic">
    <tspan
       x="625.69"
       y="152.17"
       id="tspan19" />
  </text>
  <text
     x="353"
     y="261.45999"
     transform="scale(4.0128,0.2492)"
     id="text21"
     style="font-size:46.95399857px;text-anchor:middle;font-family:Arial" />
  <text
     x="-445.89001"
     y="-29.09"
     id="text23"
     style="font-size:129.22999573px;line-height:125%;letter-spacing:0;word-spacing:0;font-family:Gentium Book Basic">
    <tspan
       x="-445.89001"
       y="-29.09"
       id="tspan25" />
  </text>
  <text
     x="85.961998"
     y="-465.89999"
     transform="scale(4.0128,0.2492)"
     id="text27"
     style="font-size:46.95399857px;text-anchor:middle;font-family:Arial" />
  <text
     x="652.15997"
     y="-245.56"
     id="text29"
     style="font-size:129.22999573px;line-height:125%;letter-spacing:0;word-spacing:0;font-family:Gentium Book Basic">
    <tspan
       x="652.15997"
       y="-245.56"
       id="tspan31" />
  </text>
  <text
     x="359.60001"
     y="-1334.5699"
     transform="scale(4.0128,0.2492)"
     id="text33"
     style="font-size:46.95399857px;text-anchor:middle;font-family:Arial" />
  <text
     x="1233.4301"
     y="-325.57001"
     id="text35"
     style="font-size:129.22999573px;line-height:125%;letter-spacing:0;word-spacing:0;font-family:Gentium Book Basic">
    <tspan
       x="1233.4301"
       y="-325.57001"
       id="tspan37" />
  </text>
  <text
     x="504.45001"
     y="-1655.6"
     transform="scale(4.0128,0.2492)"
     id="text39"
     style="font-size:46.95399857px;text-anchor:middle;font-family:Arial" />
  <text
     x="844.31"
     y="-797.96997"
     id="text41"
     style="font-size:129.22999573px;line-height:125%;letter-spacing:0;word-spacing:0;font-family:Gentium Book Basic">
    <tspan
       x="844.31"
       y="-797.96997"
       id="tspan43" />
  </text>
  <text
     x="407.48001"
     y="-3551.25"
     transform="scale(4.0128,0.2492)"
     id="text45"
     style="font-size:46.95399857px;text-anchor:middle;font-family:Arial" />
  <text
     x="1425.58"
     y="-877.96997"
     id="text47"
     style="font-size:129.22999573px;line-height:125%;letter-spacing:0;word-spacing:0;font-family:Gentium Book Basic">
    <tspan
       x="1425.58"
       y="-877.96997"
       id="tspan49" />
  </text>
  <text
     x="552.33002"
     y="-3872.28"
     transform="scale(4.0128,0.2492)"
     id="text51"
     style="font-size:46.95399857px;text-anchor:middle;font-family:Arial" />
  <text
     x="-407.23001"
     y="536.75"
     id="text53"
     style="font-size:208.33000183px;line-height:125%;letter-spacing:0;word-spacing:0;font-family:Gentium Book Basic">
    <tspan
       x="-407.23001"
       y="536.75"
       id="tspan55" />
  </text>
  <g
     clip-path="url(#0)"
     id="g57"
     style="opacity:0.25;fill-rule:evenodd">
    <path
       d="m 140.3,56.39 -3.959,3.74 353.55,353.55 3.959,-3.74 z"
       inkscape:connector-curvature="0"
       id="path59" />
    <path
       d="m 136.34,60.13 -86.88,83.03 353.55,353.55 86.88,-83.03 z"
       inkscape:connector-curvature="0"
       id="path61" />
    <path
       d="m 49.47,143.16 -8.469,8.248 353.55,353.55 8.469,-8.248 z"
       inkscape:connector-curvature="0"
       id="path63" />
    <path
       d="m 41,151.41 6.928,9.568 353.55,353.55 -6.928,-9.568 z"
       inkscape:connector-curvature="0"
       id="path65" />
    <path
       d="m 47.928,160.98 200.93,279.01 353.55,353.55 -200.93,-279.01 z"
       inkscape:connector-curvature="0"
       id="path67" />
    <path
       d="m 248.85,439.99 11.217,15.617 353.55,353.55 L 602.4,793.54 z"
       inkscape:connector-curvature="0"
       id="path69" />
    <path
       d="m 260.07,455.61 10.999,-15.727 353.55,353.55 -10.999,15.727 z"
       inkscape:connector-curvature="0"
       id="path71" />
    <path
       d="M 271.07,439.88 464.51,161.97 818.06,515.52 624.62,793.43 z"
       inkscape:connector-curvature="0"
       id="path73" />
    <path
       d="m 464.51,161.97 6.489,-9.348 353.55,353.55 -6.489,9.348 z"
       inkscape:connector-curvature="0"
       id="path75" />
    <path
       d="m 471,152.62 -8.03,-8.03 353.55,353.55 8.03,8.03 z"
       inkscape:connector-curvature="0"
       id="path77" />
    <path
       d="m 462.97,144.6 -83.8,-84.13 353.55,353.55 83.8,84.13 z"
       inkscape:connector-curvature="0"
       id="path79" />
    <path
       d="m 379.17,60.46 -4.069,-4.069 353.55,353.55 4.069,4.069 z"
       inkscape:connector-curvature="0"
       id="path81" />
    <path
       d="m 375.1,56.39 h -5.61 l 353.55,353.55 h 5.61 z"
       inkscape:connector-curvature="0"
       id="path83" />
    <path
       d="M 369.49,56.39 H 145.8 l 353.55,353.55 h 223.69 z"
       inkscape:connector-curvature="0"
       id="path85" />
    <path
       d="m 145.8,56.39 h -5.499 l 353.55,353.55 h 5.499 z"
       inkscape:connector-curvature="0"
       id="path87" />
  </g>
  <path
     d="m 140.3,56.39 -3.959,3.74 -86.88,83.03 -8.469,8.248 6.928,9.568 200.93,279.01 11.217,15.617 10.999,-15.727 193.44,-277.91 6.489,-9.348 -8.03,-8.03 -83.8,-84.13 -4.069,-4.069 h -5.61 -223.69 -5.499"
     inkscape:connector-curvature="0"
     id="path89"
     style="opacity:0.98999999;fill:#ffffff;fill-rule:evenodd" />
</svg>
