<?xml version="1.0" encoding="UTF-8" standalone="no"?>
<!-- Created with Inkscape (http://www.inkscape.org/) -->

<svg
   xmlns:dc="http://purl.org/dc/elements/1.1/"
   xmlns:cc="http://creativecommons.org/ns#"
   xmlns:rdf="http://www.w3.org/1999/02/22-rdf-syntax-ns#"
   xmlns:svg="http://www.w3.org/2000/svg"
   xmlns="http://www.w3.org/2000/svg"
   xmlns:inkscape="http://www.inkscape.org/namespaces/inkscape"
   version="1.1"
   width="100%"
   height="100%"
   viewBox="0 0 512 512"
   id="svg2">
  <metadata
     id="metadata147">
    <rdf:RDF>
      <cc:Work
         rdf:about="">
        <dc:format>image/svg+xml</dc:format>
        <dc:type
           rdf:resource="http://purl.org/dc/dcmitype/StillImage" />
      </cc:Work>
    </rdf:RDF>
  </metadata>
  <defs
     id="defs4">
    <clipPath
       id="0">
      <path
         d="M 26,0 C 11.603,0 0,11.603 0,26 v 460 c 0,14.397 11.603,26 26,26 h 460 c 14.397,0 26,-11.603 26,-26 V 26 C 512,11.603 500.397,0 486,0 H 26"
         inkscape:connector-curvature="0"
         id="path7" />
    </clipPath>
  </defs>
  <path
     d="M 26,0 C 11.603,0 0,11.603 0,26 v 460 c 0,14.397 11.603,26 26,26 h 460 c 14.397,0 26,-11.603 26,-26 V 26 C 512,11.603 500.397,0 486,0 H 26"
     inkscape:connector-curvature="0"
     id="path9"
     style="fill:#0078ad" />
  <text
     x="102.72"
     y="149.33"
     id="text11"
     style="font-size:129.22999573px;line-height:125%;letter-spacing:0;word-spacing:0;font-family:Gentium Book Basic">
    <tspan
       x="102.72"
       y="149.33"
       id="tspan13" />
  </text>
  <text
     x="222.67999"
     y="250.08"
     transform="scale(4.0128,0.2492)"
     id="text15"
     style="font-size:46.95399857px;text-anchor:middle;font-family:Arial" />
  <text
     x="683.98999"
     y="69.330002"
     id="text17"
     style="font-size:129.22999573px;line-height:125%;letter-spacing:0;word-spacing:0;font-family:Gentium Book Basic">
    <tspan
       x="683.98999"
       y="69.330002"
       id="tspan19" />
  </text>
  <text
     x="367.53"
     y="-70.961998"
     transform="scale(4.0128,0.2492)"
     id="text21"
     style="font-size:46.95399857px;text-anchor:middle;font-family:Arial" />
  <text
     x="-387.59"
     y="-111.93"
     id="text23"
     style="font-size:129.22999573px;line-height:125%;letter-spacing:0;word-spacing:0;font-family:Gentium Book Basic">
    <tspan
       x="-387.59"
       y="-111.93"
       id="tspan25" />
  </text>
  <text
     x="100.49"
     y="-798.31"
     transform="scale(4.0128,0.2492)"
     id="text27"
     style="font-size:46.95399857px;text-anchor:middle;font-family:Arial" />
  <text
     x="710.46002"
     y="-328.39999"
     id="text29"
     style="font-size:129.22999573px;line-height:125%;letter-spacing:0;word-spacing:0;font-family:Gentium Book Basic">
    <tspan
       x="710.46002"
       y="-328.39999"
       id="tspan31" />
  </text>
  <text
     x="374.13"
     y="-1666.98"
     transform="scale(4.0128,0.2492)"
     id="text33"
     style="font-size:46.95399857px;text-anchor:middle;font-family:Arial" />
  <text
     x="1291.73"
     y="-408.39999"
     id="text35"
     style="font-size:129.22999573px;line-height:125%;letter-spacing:0;word-spacing:0;font-family:Gentium Book Basic">
    <tspan
       x="1291.73"
       y="-408.39999"
       id="tspan37" />
  </text>
  <text
     x="518.97998"
     y="-1988.01"
     transform="scale(4.0128,0.2492)"
     id="text39"
     style="font-size:46.95399857px;text-anchor:middle;font-family:Arial" />
  <text
     x="902.60999"
     y="-880.79999"
     id="text41"
     style="font-size:129.22999573px;line-height:125%;letter-spacing:0;word-spacing:0;font-family:Gentium Book Basic">
    <tspan
       x="902.60999"
       y="-880.79999"
       id="tspan43" />
  </text>
  <text
     x="422.01001"
     y="-3883.6599"
     transform="scale(4.0128,0.2492)"
     id="text45"
     style="font-size:46.95399857px;text-anchor:middle;font-family:Arial" />
  <text
     x="1483.87"
     y="-960.81"
     id="text47"
     style="font-size:129.22999573px;line-height:125%;letter-spacing:0;word-spacing:0;font-family:Gentium Book Basic">
    <tspan
       x="1483.87"
       y="-960.81"
       id="tspan49" />
  </text>
  <text
     x="566.85999"
     y="-4204.7002"
     transform="scale(4.0128,0.2492)"
     id="text51"
     style="font-size:46.95399857px;text-anchor:middle;font-family:Arial" />
  <text
     x="-348.92999"
     y="453.91"
     id="text53"
     style="font-size:208.33000183px;line-height:125%;letter-spacing:0;word-spacing:0;font-family:Gentium Book Basic">
    <tspan
       x="-348.92999"
       y="453.91"
       id="tspan55" />
  </text>
  <g
     clip-path="url(#0)"
     id="g57"
     style="opacity:0.25;color:#000000">
    <path
       d="m 252.72,41 c -33.723,0 -55,24.24 -55,52.625 l 353.55,353.55 c 0,-28.388 21.277,-52.625 55,-52.625 z"
       inkscape:connector-curvature="0"
       id="path59" />
    <path
       d="m 197.72,93.63 c 0,14.624 5.42,28.04 15.13,37.748 l 353.55,353.55 c -9.705,-9.705 -15.13,-23.12 -15.13,-37.748 z"
       inkscape:connector-curvature="0"
       id="path61" />
    <path
       d="m 212.84,131.37 c 9.523,9.523 23.17,15.47 39.874,15.47 l 353.55,353.55 c -16.702,0 -30.351,-5.947 -39.874,-15.471 z"
       inkscape:connector-curvature="0"
       id="path63" />
    <path
       d="m 252.72,146.84 c 33.14,0 55.59,-24.22 55.59,-53.22 l 353.55,353.55 c 0,28.997 -22.458,53.22 -55.59,53.22 z"
       inkscape:connector-curvature="0"
       id="path65" />
    <path
       d="m 308.31,93.63 c 0,-14.192 -5.32,-27.347 -14.927,-36.955 l 353.55,353.55 c 9.608,9.608 14.927,22.762 14.927,36.955 z"
       inkscape:connector-curvature="0"
       id="path67" />
    <path
       d="M 293.39,56.67 C 283.78,47.06 269.881,41 252.723,41 l 353.55,353.55 c 17.16,0 31.06,6.06 40.667,15.67 z"
       inkscape:connector-curvature="0"
       id="path69" />
    <path
       d="m 297.03,170.63 -0.406,0.031 353.55,353.55 0.406,-0.031 z"
       inkscape:connector-curvature="0"
       id="path71" />
    <path
       d="M 296.63,170.66 175.88,187.91 529.43,541.46 650.18,524.21 z"
       inkscape:connector-curvature="0"
       id="path73" />
    <path
       d="m 175.88,187.91 -0.75,0.125 353.55,353.55 0.75,-0.125 z"
       inkscape:connector-curvature="0"
       id="path75" />
    <path
       d="m 175.13,188.03 v 0.75 l 353.55,353.55 v -0.75 z"
       inkscape:connector-curvature="0"
       id="path77" />
    <path
       d="m 175.13,188.78 v 21.406 l 353.55,353.55 V 542.33 z"
       inkscape:connector-curvature="0"
       id="path79" />
    <path
       d="m 175.13,210.19 v 0.75 l 353.55,353.55 v -0.75 z"
       inkscape:connector-curvature="0"
       id="path81" />
    <path
       d="m 175.13,210.94 0.75,0.125 353.55,353.55 -0.75,-0.125 z"
       inkscape:connector-curvature="0"
       id="path83" />
    <path
       d="m 175.88,211.06 20.813,3 353.55,353.55 -20.813,-3 z"
       inkscape:connector-curvature="0"
       id="path85" />
    <path
       d="m 196.69,214.06 h 0.031 l 353.55,353.55 h -0.031 z"
       inkscape:connector-curvature="0"
       id="path87" />
    <path
       d="m 196.72,214.06 c 3.324,0.415 5.893,1.271 7.912,3.29 l 353.55,353.55 c -2.02,-2.02 -4.588,-2.875 -7.912,-3.29 z"
       inkscape:connector-curvature="0"
       id="path89" />
    <path
       d="m 204.63,217.35 c 0.786,0.786 1.488,1.748 2.119,2.929 l 353.55,353.55 c -0.631,-1.181 -1.333,-2.143 -2.119,-2.929 z"
       inkscape:connector-curvature="0"
       id="path91" />
    <path
       d="m 206.75,220.28 c 2.252,4.214 3.469,11.381 3.469,23.22 l 353.55,353.55 c 0,-11.838 -1.217,-19 -3.469,-23.22 z"
       inkscape:connector-curvature="0"
       id="path93" />
    <path
       d="M 210.22,243.5 V 418.38 L 563.77,771.93 V 597.06 z"
       inkscape:connector-curvature="0"
       id="path95" />
    <path
       d="m 210.22,418.38 c 0,6.218 -0.309,10.993 -1.25,14.625 l 353.55,353.55 c 0.941,-3.632 1.25,-8.407 1.25,-14.625 z"
       inkscape:connector-curvature="0"
       id="path97" />
    <path
       d="m 208.97,433 c -0.941,3.632 -2.456,6.089 -5,7.938 l 353.55,353.55 c 2.544,-1.849 4.059,-4.306 5,-7.938 z"
       inkscape:connector-curvature="0"
       id="path99" />
    <path
       d="m 203.97,440.94 c -5.088,3.698 -14.629,4.827 -31.563,5.719 l 353.55,353.55 c 16.934,-0.891 26.475,-2.02 31.563,-5.719 z"
       inkscape:connector-curvature="0"
       id="path101" />
    <path
       d="m 172.41,446.66 -0.844,0.063 353.55,353.55 0.844,-0.063 z"
       inkscape:connector-curvature="0"
       id="path103" />
    <path
       d="m 171.56,446.72 v 0.813 l 353.55,353.55 v -0.813 z"
       inkscape:connector-curvature="0"
       id="path105" />
    <path
       d="m 171.56,447.53 v 22.594 l 353.55,353.55 V 801.08 z"
       inkscape:connector-curvature="0"
       id="path107" />
    <path
       d="m 171.56,470.13 v 0.875 l 353.55,353.55 v -0.875 z"
       inkscape:connector-curvature="0"
       id="path109" />
    <path
       d="m 171.56,471 h 0.875 l 353.55,353.55 h -0.875 z"
       inkscape:connector-curvature="0"
       id="path111" />
    <path
       d="M 172.44,471 H 339.57 L 693.12,824.55 H 526 z"
       inkscape:connector-curvature="0"
       id="path113" />
    <path
       d="m 339.56,471 h 0.875 l 353.55,353.55 h -0.875 z"
       inkscape:connector-curvature="0"
       id="path115" />
    <path
       d="m 340.44,471 v -0.875 l 353.55,353.55 v 0.875 z"
       inkscape:connector-curvature="0"
       id="path117" />
    <path
       d="m 340.44,470.13 v -22.594 l 353.55,353.55 v 22.594 z"
       inkscape:connector-curvature="0"
       id="path119" />
    <path
       d="m 340.44,447.53 v -0.813 l 353.55,353.55 v 0.813 z"
       inkscape:connector-curvature="0"
       id="path121" />
    <path
       d="m 340.44,446.72 -0.844,-0.063 353.55,353.55 0.844,0.063 z"
       inkscape:connector-curvature="0"
       id="path123" />
    <path
       d="m 339.59,446.66 c -16.934,-0.891 -26.475,-2.02 -31.563,-5.719 l 353.55,353.55 c 5.088,3.698 14.629,4.827 31.563,5.719 z"
       inkscape:connector-curvature="0"
       id="path125" />
    <path
       d="m 308.03,440.94 c -0.536,-0.39 -1.027,-0.807 -1.476,-1.256 l 353.55,353.55 c 0.449,0.449 0.94,0.866 1.476,1.256 z"
       inkscape:connector-curvature="0"
       id="path127" />
    <path
       d="m 306.56,439.68 c -1.681,-1.681 -2.782,-3.816 -3.524,-6.682 l 353.55,353.55 c 0.742,2.866 1.843,5 3.524,6.682 z"
       inkscape:connector-curvature="0"
       id="path129" />
    <path
       d="m 303.03,433 c -0.941,-3.632 -1.25,-8.407 -1.25,-14.625 l 353.55,353.55 c 0,6.218 0.309,10.993 1.25,14.625 z"
       inkscape:connector-curvature="0"
       id="path131" />
    <path
       d="M 301.78,418.38 V 175.1 l 353.55,353.55 v 243.28 z"
       inkscape:connector-curvature="0"
       id="path133" />
    <path
       d="m 301.78,175.09 v -0.406 l 353.55,353.55 v 0.406 z"
       inkscape:connector-curvature="0"
       id="path135" />
    <path
       d="m 301.78,174.69 -0.313,-0.25 353.55,353.55 0.313,0.25 z"
       inkscape:connector-curvature="0"
       id="path137" />
    <path
       d="m 301.47,174.44 -4.156,-3.563 353.55,353.55 4.156,3.563 z"
       inkscape:connector-curvature="0"
       id="path139" />
    <path
       d="m 297.31,170.88 -0.281,-0.25 353.55,353.55 0.281,0.25 z"
       inkscape:connector-curvature="0"
       id="path141" />
  </g>
  <path
     d="m 252.72,41 c -33.723,0 -55,24.24 -55,52.625 0,28.973 21.277,53.22 55,53.22 33.14,0 55.59,-24.22 55.59,-53.22 C 308.31,65.238 287.027,41 252.72,41 m 44.31,129.63 -0.406,0.031 -120.75,17.25 -0.75,0.125 v 0.75 21.406 0.75 l 0.75,0.125 20.813,3 h 0.031 c 4.618,0.577 7.779,2 10.03,6.219 2.252,4.214 3.469,11.381 3.469,23.22 v 174.88 c 0,6.218 -0.309,10.993 -1.25,14.625 -0.941,3.632 -2.456,6.089 -5,7.938 -5.088,3.698 -14.629,4.827 -31.563,5.719 l -0.844,0.063 v 0.813 22.594 0.875 h 0.875 167.13 0.875 v -0.875 -22.594 -0.813 l -0.844,-0.063 c -16.934,-0.891 -26.475,-2.02 -31.563,-5.719 -2.544,-1.849 -4.059,-4.306 -5,-7.938 -0.941,-3.632 -1.25,-8.407 -1.25,-14.625 V 175.106 174.7 l -0.313,-0.25 -4.156,-3.563 -0.281,-0.25"
     inkscape:connector-curvature="0"
     id="path143"
     style="color:#000000;fill:#ffffff" />
</svg>
