<?xml version="1.0" encoding="UTF-8" standalone="no"?>
<!-- Created with Inkscape (http://www.inkscape.org/) -->

<svg
   xmlns:dc="http://purl.org/dc/elements/1.1/"
   xmlns:cc="http://creativecommons.org/ns#"
   xmlns:rdf="http://www.w3.org/1999/02/22-rdf-syntax-ns#"
   xmlns:svg="http://www.w3.org/2000/svg"
   xmlns="http://www.w3.org/2000/svg"
   xmlns:inkscape="http://www.inkscape.org/namespaces/inkscape"
   version="1.1"
   width="100%"
   height="100%"
   viewBox="0 0 512 512"
   id="svg2">
  <metadata
     id="metadata177">
    <rdf:RDF>
      <cc:Work
         rdf:about="">
        <dc:format>image/svg+xml</dc:format>
        <dc:type
           rdf:resource="http://purl.org/dc/dcmitype/StillImage" />
      </cc:Work>
    </rdf:RDF>
  </metadata>
  <defs
     id="defs4">
    <clipPath
       id="0">
      <path
         d="M 26,0 C 11.603,0 0,11.603 0,26 v 460 c 0,14.397 11.603,26 26,26 h 460 c 14.397,0 26,-11.603 26,-26 V 26 C 512,11.603 500.397,0 486,0 H 26"
         inkscape:connector-curvature="0"
         id="path7" />
    </clipPath>
  </defs>
  <path
     d="M 26,0 C 11.603,0 0,11.603 0,26 v 460 c 0,14.397 11.603,26 26,26 h 460 c 14.397,0 26,-11.603 26,-26 V 26 C 512,11.603 500.397,0 486,0 H 26"
     inkscape:connector-curvature="0"
     id="path9"
     style="fill:#e7c649" />
  <text
     x="13.744"
     y="229.10001"
     id="text11"
     style="font-size:129.22999573px;line-height:125%;letter-spacing:0;word-spacing:0;font-family:Gentium Book Basic">
    <tspan
       x="13.744"
       y="229.10001"
       id="tspan13" />
  </text>
  <text
     x="200.50999"
     y="570.16998"
     transform="scale(4.0128,0.2492)"
     id="text15"
     style="font-size:46.95399857px;text-anchor:middle;font-family:Arial" />
  <text
     x="595.01001"
     y="149.10001"
     id="text17"
     style="font-size:129.22999573px;line-height:125%;letter-spacing:0;word-spacing:0;font-family:Gentium Book Basic">
    <tspan
       x="595.01001"
       y="149.10001"
       id="tspan19" />
  </text>
  <text
     x="345.35999"
     y="249.14"
     transform="scale(4.0128,0.2492)"
     id="text21"
     style="font-size:46.95399857px;text-anchor:middle;font-family:Arial" />
  <text
     x="-476.57001"
     y="-32.16"
     id="text23"
     style="font-size:129.22999573px;line-height:125%;letter-spacing:0;word-spacing:0;font-family:Gentium Book Basic">
    <tspan
       x="-476.57001"
       y="-32.16"
       id="tspan25" />
  </text>
  <text
     x="78.32"
     y="-478.20999"
     transform="scale(4.0128,0.2492)"
     id="text27"
     style="font-size:46.95399857px;text-anchor:middle;font-family:Arial" />
  <text
     x="621.47998"
     y="-248.63"
     id="text29"
     style="font-size:129.22999573px;line-height:125%;letter-spacing:0;word-spacing:0;font-family:Gentium Book Basic">
    <tspan
       x="621.47998"
       y="-248.63"
       id="tspan31" />
  </text>
  <text
     x="351.95001"
     y="-1346.88"
     transform="scale(4.0128,0.2492)"
     id="text33"
     style="font-size:46.95399857px;text-anchor:middle;font-family:Arial" />
  <text
     x="1202.75"
     y="-328.64001"
     id="text35"
     style="font-size:129.22999573px;line-height:125%;letter-spacing:0;word-spacing:0;font-family:Gentium Book Basic">
    <tspan
       x="1202.75"
       y="-328.64001"
       id="tspan37" />
  </text>
  <text
     x="496.79999"
     y="-1667.92"
     transform="scale(4.0128,0.2492)"
     id="text39"
     style="font-size:46.95399857px;text-anchor:middle;font-family:Arial" />
  <text
     x="813.63"
     y="-801.03998"
     id="text41"
     style="font-size:129.22999573px;line-height:125%;letter-spacing:0;word-spacing:0;font-family:Gentium Book Basic">
    <tspan
       x="813.63"
       y="-801.03998"
       id="tspan43" />
  </text>
  <text
     x="399.82999"
     y="-3563.5701"
     transform="scale(4.0128,0.2492)"
     id="text45"
     style="font-size:46.95399857px;text-anchor:middle;font-family:Arial" />
  <text
     x="1394.89"
     y="-881.03998"
     id="text47"
     style="font-size:129.22999573px;line-height:125%;letter-spacing:0;word-spacing:0;font-family:Gentium Book Basic">
    <tspan
       x="1394.89"
       y="-881.03998"
       id="tspan49" />
  </text>
  <text
     x="544.67999"
     y="-3884.5901"
     transform="scale(4.0128,0.2492)"
     id="text51"
     style="font-size:46.95399857px;text-anchor:middle;font-family:Arial" />
  <text
     x="-437.91"
     y="533.67999"
     id="text53"
     style="font-size:208.33000183px;line-height:125%;letter-spacing:0;word-spacing:0;font-family:Gentium Book Basic">
    <tspan
       x="-437.91"
       y="533.67999"
       id="tspan55" />
  </text>
  <g
     clip-path="url(#0)"
     id="g57"
     style="opacity:0.25">
    <path
       d="m 256,41.01 c -20.498,0 -37.12,16.625 -37.12,37.12 l 353.55,353.55 c 0,-20.495 16.622,-37.12 37.12,-37.12 z"
       inkscape:connector-curvature="0"
       id="path59" />
    <path
       d="m 218.88,78.13 v 38.75 l 353.55,353.55 v -38.75 z"
       inkscape:connector-curvature="0"
       id="path61" />
    <path
       d="m 218.88,116.88 c -12.405,3.299 -24.18,8.202 -35.03,14.493 l 353.55,353.55 c 10.859,-6.291 22.63,-11.195 35.03,-14.493 z"
       inkscape:connector-curvature="0"
       id="path63" />
    <path
       d="m 183.85,131.37 -27.362,-27.39 353.55,353.55 27.362,27.39 z"
       inkscape:connector-curvature="0"
       id="path65" />
    <path
       d="m 156.48,103.98 c 0,0 0,0 0,0 l 353.55,353.55 c 0,0 0,0 0,0 z"
       inkscape:connector-curvature="0"
       id="path67" />
    <path
       d="m 156.48,103.98 c -14.493,-14.493 -38.01,-14.493 -52.51,0 l 353.55,353.55 c 14.495,-14.493 38.01,-14.493 52.51,0 z"
       inkscape:connector-curvature="0"
       id="path69" />
    <path
       d="m 103.98,103.98 c -14.493,14.493 -14.493,38.01 0,52.51 l 353.55,353.55 c -14.493,-14.495 -14.493,-38.01 0,-52.51 z"
       inkscape:connector-curvature="0"
       id="path71" />
    <path
       d="m 103.98,156.49 27.29,27.29 353.55,353.55 -27.29,-27.29 z"
       inkscape:connector-curvature="0"
       id="path73" />
    <path
       d="m 131.27,183.78 c -6.331,10.87 -11.255,22.66 -14.585,35.1 l 353.55,353.55 c 3.33,-12.437 8.254,-24.23 14.585,-35.1 z"
       inkscape:connector-curvature="0"
       id="path75" />
    <path
       d="M 116.69,218.88 H 77.848 l 353.55,353.55 h 38.842 z"
       inkscape:connector-curvature="0"
       id="path77" />
    <path
       d="M 77.85,218.88 C 57.476,219.023 41.004,235.594 41.004,256 l 353.55,353.55 c 0,-20.407 16.472,-36.977 36.846,-37.12 z"
       inkscape:connector-curvature="0"
       id="path79" />
    <path
       d="m 41,256 c 0,10.249 4.156,19.528 10.874,26.25 l 353.55,353.55 c -6.718,-6.718 -10.874,-15.997 -10.874,-26.25 z"
       inkscape:connector-curvature="0"
       id="path81" />
    <path
       d="m 51.874,282.25 c 6.718,6.718 15.998,10.874 26.25,10.874 l 353.55,353.55 c -10.248,0 -19.528,-4.156 -26.25,-10.874 z"
       inkscape:connector-curvature="0"
       id="path83" />
    <path
       d="m 78.12,293.12 h 38.42 l 353.55,353.55 h -38.42 z"
       inkscape:connector-curvature="0"
       id="path85" />
    <path
       d="m 116.54,293.12 c 3.299,12.51 8.216,24.374 14.555,35.31 l 353.55,353.55 c -6.339,-10.937 -11.256,-22.8 -14.555,-35.31 z"
       inkscape:connector-curvature="0"
       id="path87" />
    <path
       d="M 131.09,328.43 103.8,355.7 457.35,709.25 484.64,681.98 z"
       inkscape:connector-curvature="0"
       id="path89" />
    <path
       d="m 103.8,355.7 0.031,0.03 353.55,353.55 -0.031,-0.03 z"
       inkscape:connector-curvature="0"
       id="path91" />
    <path
       d="m 103.83,355.73 c -14.319,14.507 -14.282,37.856 0.153,52.3 l 353.55,353.55 c -14.435,-14.44 -14.471,-37.789 -0.153,-52.3 z"
       inkscape:connector-curvature="0"
       id="path93" />
    <path
       d="m 103.98,408.02 c 14.493,14.493 38.01,14.493 52.51,0 l 353.55,353.55 c -14.495,14.493 -38.01,14.493 -52.51,0 z"
       inkscape:connector-curvature="0"
       id="path95" />
    <path
       d="m 156.49,408.02 27.05,-27.08 353.55,353.55 -27.05,27.08 z"
       inkscape:connector-curvature="0"
       id="path97" />
    <path
       d="m 183.54,380.94 c 10.945,6.38 22.803,11.376 35.34,14.707 l 353.55,353.55 c -12.539,-3.331 -24.397,-8.327 -35.34,-14.707 z"
       inkscape:connector-curvature="0"
       id="path99" />
    <path
       d="m 218.88,395.65 v 38.498 l 353.55,353.55 v -38.499 z"
       inkscape:connector-curvature="0"
       id="path101" />
    <path
       d="m 218.88,434.15 c 0.071,10.14 4.212,19.314 10.869,25.971 l 353.55,353.55 C 576.642,807.014 572.501,797.84 572.43,787.7 z"
       inkscape:connector-curvature="0"
       id="path103" />
    <path
       d="m 229.75,460.12 c 6.719,6.719 16,10.875 26.25,10.875 l 353.55,353.55 c -10.25,0 -19.532,-4.156 -26.25,-10.875 z"
       inkscape:connector-curvature="0"
       id="path105" />
    <path
       d="m 256,470.99 c 20.498,0 37.12,-16.625 37.12,-37.12 l 353.55,353.55 c 0,20.495 -16.622,37.12 -37.12,37.12 z"
       inkscape:connector-curvature="0"
       id="path107" />
    <path
       d="m 293.12,433.87 v -38.23 l 353.55,353.55 v 38.23 z"
       inkscape:connector-curvature="0"
       id="path109" />
    <path
       d="m 293.12,395.65 c 12.539,-3.331 24.39,-8.327 35.34,-14.707 l 353.55,353.55 c -10.952,6.38 -22.803,11.376 -35.34,14.707 z"
       inkscape:connector-curvature="0"
       id="path111" />
    <path
       d="m 328.46,380.94 27.05,27.08 353.55,353.55 -27.05,-27.08 z"
       inkscape:connector-curvature="0"
       id="path113" />
    <path
       d="m 355.51,408.02 c 14.493,14.493 38.01,14.493 52.51,0 l 353.55,353.55 c -14.495,14.493 -38.01,14.493 -52.51,0 z"
       inkscape:connector-curvature="0"
       id="path115" />
    <path
       d="m 408.02,408.02 c 14.435,-14.435 14.473,-37.783 0.153,-52.3 l 353.55,353.55 c 14.32,14.512 14.282,37.861 -0.153,52.3 z"
       inkscape:connector-curvature="0"
       id="path117" />
    <path
       d="m 408.17,355.72 0.03,-0.03 353.55,353.55 -0.03,0.03 z"
       inkscape:connector-curvature="0"
       id="path119" />
    <path
       d="m 408.2,355.69 -27.29,-27.27 353.55,353.55 27.29,27.27 z"
       inkscape:connector-curvature="0"
       id="path121" />
    <path
       d="m 380.91,328.43 c 6.332,-10.931 11.256,-22.8 14.555,-35.31 l 353.55,353.55 c -3.299,12.51 -8.222,24.379 -14.555,35.31 z"
       inkscape:connector-curvature="0"
       id="path123" />
    <path
       d="m 395.46,293.12 h 38.42 l 353.55,353.55 h -38.42 z"
       inkscape:connector-curvature="0"
       id="path125" />
    <path
       d="M 433.88,293.12 C 454.378,293.12 471,276.495 471,256 l 353.55,353.55 c 0,20.495 -16.622,37.12 -37.12,37.12 z"
       inkscape:connector-curvature="0"
       id="path127" />
    <path
       d="m 471,256 c 0,-10.251 -4.156,-19.536 -10.876,-26.26 l 353.55,353.55 c 6.719,6.719 10.876,16 10.876,26.26 z"
       inkscape:connector-curvature="0"
       id="path129" />
    <path
       d="m 460.12,229.74 c -6.657,-6.657 -15.83,-10.797 -25.97,-10.865 l 353.55,353.55 c 10.14,0.068 19.313,4.208 25.97,10.865 z"
       inkscape:connector-curvature="0"
       id="path131" />
    <path
       d="m 434.15,218.88 h -38.842 l 353.55,353.55 H 787.7 z"
       inkscape:connector-curvature="0"
       id="path133" />
    <path
       d="m 395.31,218.88 c -3.33,-12.435 -8.257,-24.23 -14.585,-35.1 l 353.55,353.55 c 6.328,10.87 11.255,22.661 14.585,35.1 z"
       inkscape:connector-curvature="0"
       id="path135" />
    <path
       d="m 380.73,183.78 27.29,-27.29 353.55,353.55 -27.29,27.29 z"
       inkscape:connector-curvature="0"
       id="path137" />
    <path
       d="m 408.02,156.49 c 14.493,-14.493 14.493,-38.01 0,-52.51 l 353.55,353.55 c 14.493,14.495 14.493,38.01 0,52.51 z"
       inkscape:connector-curvature="0"
       id="path139" />
    <path
       d="m 408.02,103.98 c 0,0 0,0 0,0 l 353.55,353.55 c 0,0 0,0 0,0 z"
       inkscape:connector-curvature="0"
       id="path141" />
    <path
       d="m 408.02,103.98 c -14.493,-14.493 -38.01,-14.493 -52.51,0 l 353.55,353.55 c 14.495,-14.493 38.01,-14.493 52.51,0 z"
       inkscape:connector-curvature="0"
       id="path143" />
    <path
       d="m 355.52,103.98 c -0.147,0.147 -0.254,0.311 -0.399,0.46 l 353.55,353.55 c 0.145,-0.149 0.251,-0.313 0.399,-0.46 z"
       inkscape:connector-curvature="0"
       id="path145" />
    <path
       d="m 355.12,104.44 -26.959,26.928 353.55,353.55 26.958,-26.928 z"
       inkscape:connector-curvature="0"
       id="path147" />
    <path
       d="m 328.16,131.37 c -10.859,-6.287 -22.623,-11.195 -35.03,-14.493 l 353.55,353.55 c 12.412,3.298 24.18,8.206 35.03,14.493 z"
       inkscape:connector-curvature="0"
       id="path149" />
    <path
       d="M 293.12,116.88 V 78.13 l 353.55,353.55 v 38.75 z"
       inkscape:connector-curvature="0"
       id="path151" />
    <path
       d="m 293.12,78.13 c 0,-10.249 -4.156,-19.528 -10.874,-26.25 l 353.55,353.55 c 6.718,6.718 10.874,15.998 10.874,26.25 z"
       inkscape:connector-curvature="0"
       id="path153" />
    <path
       d="M 282.25,51.882 C 275.532,45.164 266.252,41.008 256,41.008 l 353.55,353.55 c 10.248,0 19.528,4.156 26.25,10.874 z"
       inkscape:connector-curvature="0"
       id="path155" />
    <path
       d="m 187.69,282.96 c 51.14,31.3 95.15,24.997 136.63,3.776 l 353.55,353.55 c -41.487,21.22 -85.49,27.519 -136.63,-3.776 z"
       inkscape:connector-curvature="0"
       id="path157" />
    <path
       d="m 324.32,286.74 c -2.519,11.1 -7.17,20.07 -12.988,28.432 l 353.55,353.55 C 670.7,660.36 675.351,651.39 677.87,640.29 z"
       inkscape:connector-curvature="0"
       id="path159" />
    <path
       d="m 311.34,315.17 c -11.222,16.527 -21.89,26.639 -35.13,31.689 l 353.55,353.55 c 13.236,-5.05 23.904,-15.16 35.13,-31.689 z"
       inkscape:connector-curvature="0"
       id="path161" />
    <path
       d="m 276.21,346.86 c -9.392,3.316 -17.03,4.453 -24.01,3.838 l 353.55,353.55 c 6.979,0.615 14.619,-0.521 24.01,-3.838 z"
       inkscape:connector-curvature="0"
       id="path163" />
    <path
       d="m 252.2,350.7 c -17.325,-2.899 -28.25,-10.392 -38.641,-20.782 l 353.55,353.55 c 10.39,10.39 21.316,17.883 38.641,20.782 z"
       inkscape:connector-curvature="0"
       id="path165" />
    <path
       d="m 213.56,329.92 c -1.894,-1.894 -3.771,-3.885 -5.666,-5.962 l 353.55,353.55 c 1.894,2.077 3.771,4.068 5.666,5.962 z"
       inkscape:connector-curvature="0"
       id="path167" />
    <path
       d="m 207.89,323.95 c -0.626,-0.556 -1.227,-1.123 -1.804,-1.701 l 353.55,353.55 c 0.578,0.578 1.178,1.145 1.804,1.701 z"
       inkscape:connector-curvature="0"
       id="path169" />
    <path
       d="m 206.09,322.25 c -10.566,-10.566 -13.337,-24.607 -18.4,-39.29 l 353.55,353.55 c 5.063,14.688 7.835,28.729 18.4,39.29 z"
       inkscape:connector-curvature="0"
       id="path171" />
  </g>
  <path
     d="m 256,41.01 c -20.498,0 -37.12,16.625 -37.12,37.12 v 38.75 c -12.405,3.299 -24.18,8.202 -35.03,14.493 l -27.362,-27.39 c -14.493,-14.493 -38.01,-14.493 -52.51,0 -14.493,14.493 -14.493,38.01 0,52.51 l 27.29,27.29 c -6.331,10.87 -11.255,22.66 -14.585,35.1 H 77.841 c -20.374,0.143 -36.846,16.714 -36.846,37.12 0,20.498 16.625,37.12 37.12,37.12 h 38.42 c 3.299,12.51 8.216,24.374 14.555,35.31 l -27.29,27.27 0.031,0.03 c -14.319,14.507 -14.282,37.856 0.153,52.3 14.493,14.493 38.01,14.493 52.51,0 l 27.05,-27.08 c 10.945,6.38 22.803,11.376 35.34,14.707 v 38.498 c 0.143,20.374 16.714,36.846 37.12,36.846 20.498,0 37.12,-16.625 37.12,-37.12 v -38.23 c 12.539,-3.331 24.39,-8.327 35.34,-14.707 l 27.05,27.08 c 14.493,14.493 38.01,14.493 52.51,0 14.435,-14.435 14.473,-37.783 0.153,-52.3 l 0.03,-0.03 -27.29,-27.27 c 6.332,-10.931 11.256,-22.8 14.555,-35.31 h 38.42 c 20.498,0 37.12,-16.625 37.12,-37.12 0,-20.408 -16.472,-36.984 -36.846,-37.12 h -38.842 c -3.33,-12.435 -8.257,-24.23 -14.585,-35.1 l 27.29,-27.29 c 14.493,-14.493 14.493,-38.01 0,-52.51 -14.493,-14.493 -38.01,-14.493 -52.51,0 -0.147,0.147 -0.254,0.311 -0.399,0.46 l -26.959,26.928 c -10.859,-6.287 -22.623,-11.195 -35.03,-14.493 v -38.75 c 0,-20.498 -16.625,-37.12 -37.12,-37.12 m -29.41534,120.70118 a 27.81693,41.519952 0 0 1 27.02034,41.51309 27.818687,41.522575 0 0 1 -55.63736,0 27.81693,41.519952 0 0 1 28.61702,-41.51309 m 60.151,0 a 27.81693,41.519952 0 0 1 27.02035,41.51309 27.818687,41.522575 0 0 1 -55.63736,0 27.81693,41.519952 0 0 1 28.61701,-41.51309 m -99.05,121.25 c 51.14,31.3 95.15,24.997 136.63,3.776 -2.519,11.1 -7.17,20.07 -12.988,28.432 -11.222,16.527 -21.89,26.639 -35.13,31.689 -9.392,3.316 -17.03,4.453 -24.01,3.838 -20.484,-3.428 -32.02,-13.277 -44.31,-26.744 -12.07,-10.733 -14.864,-25.505 -20.2,-40.996"
     inkscape:connector-curvature="0"
     id="path173"
     style="fill:#ffffff" />
</svg>
