<?xml version="1.0" encoding="UTF-8" standalone="no"?>
<!-- Created with Inkscape (http://www.inkscape.org/) -->

<svg
   xmlns:dc="http://purl.org/dc/elements/1.1/"
   xmlns:cc="http://creativecommons.org/ns#"
   xmlns:rdf="http://www.w3.org/1999/02/22-rdf-syntax-ns#"
   xmlns:svg="http://www.w3.org/2000/svg"
   xmlns="http://www.w3.org/2000/svg"
   xmlns:inkscape="http://www.inkscape.org/namespaces/inkscape"
   version="1.1"
   width="100%"
   height="100%"
   viewBox="0 0 512 512"
   id="svg2">
  <metadata
     id="metadata60">
    <rdf:RDF>
      <cc:Work
         rdf:about="">
        <dc:format>image/svg+xml</dc:format>
        <dc:type
           rdf:resource="http://purl.org/dc/dcmitype/StillImage" />
      </cc:Work>
    </rdf:RDF>
  </metadata>
  <defs
     id="defs58" />
  <path
     d="M 26,0 C 11.603,0 0,11.603 0,26 v 460 c 0,14.397 11.603,26 26,26 h 460 c 14.397,0 26,-11.603 26,-26 V 26 C 512,11.603 500.397,0 486,0 H 26"
     inkscape:connector-curvature="0"
     id="path4"
     style="fill:#ef6a47" />
  <text
     x="1372.37"
     y="218.46001"
     id="text6"
     style="font-size:129.22999573px;line-height:125%;letter-spacing:0;word-spacing:0;font-family:Gentium Book Basic">
    <tspan
       x="1372.37"
       y="218.46001"
       id="tspan8" />
  </text>
  <text
     x="539.08002"
     y="527.47998"
     transform="scale(4.0128,0.2492)"
     id="text10"
     style="font-size:46.95399857px;text-anchor:middle;font-family:Arial" />
  <text
     x="1953.64"
     y="138.46001"
     id="text12"
     style="font-size:129.22999573px;line-height:125%;letter-spacing:0;word-spacing:0;font-family:Gentium Book Basic">
    <tspan
       x="1953.64"
       y="138.46001"
       id="tspan14" />
  </text>
  <text
     x="683.92999"
     y="206.45"
     transform="scale(4.0128,0.2492)"
     id="text16"
     style="font-size:46.95399857px;text-anchor:middle;font-family:Arial" />
  <text
     x="882.06"
     y="-42.800999"
     id="text18"
     style="font-size:129.22999573px;line-height:125%;letter-spacing:0;word-spacing:0;font-family:Gentium Book Basic">
    <tspan
       x="882.06"
       y="-42.800999"
       id="tspan20" />
  </text>
  <text
     x="416.89001"
     y="-520.90002"
     transform="scale(4.0128,0.2492)"
     id="text22"
     style="font-size:46.95399857px;text-anchor:middle;font-family:Arial" />
  <text
     x="1980.11"
     y="-259.26999"
     id="text24"
     style="font-size:129.22999573px;line-height:125%;letter-spacing:0;word-spacing:0;font-family:Gentium Book Basic">
    <tspan
       x="1980.11"
       y="-259.26999"
       id="tspan26" />
  </text>
  <text
     x="690.53003"
     y="-1389.5699"
     transform="scale(4.0128,0.2492)"
     id="text28"
     style="font-size:46.95399857px;text-anchor:middle;font-family:Arial" />
  <text
     x="2561.3799"
     y="-339.28"
     id="text30"
     style="font-size:129.22999573px;line-height:125%;letter-spacing:0;word-spacing:0;font-family:Gentium Book Basic">
    <tspan
       x="2561.3799"
       y="-339.28"
       id="tspan32" />
  </text>
  <text
     x="835.38"
     y="-1710.61"
     transform="scale(4.0128,0.2492)"
     id="text34"
     style="font-size:46.95399857px;text-anchor:middle;font-family:Arial" />
  <text
     x="2172.26"
     y="-811.67999"
     id="text36"
     style="font-size:129.22999573px;line-height:125%;letter-spacing:0;word-spacing:0;font-family:Gentium Book Basic">
    <tspan
       x="2172.26"
       y="-811.67999"
       id="tspan38" />
  </text>
  <text
     x="738.40997"
     y="-3606.26"
     transform="scale(4.0128,0.2492)"
     id="text40"
     style="font-size:46.95399857px;text-anchor:middle;font-family:Arial" />
  <text
     x="2753.52"
     y="-891.67999"
     id="text42"
     style="font-size:129.22999573px;line-height:125%;letter-spacing:0;word-spacing:0;font-family:Gentium Book Basic">
    <tspan
       x="2753.52"
       y="-891.67999"
       id="tspan44" />
  </text>
  <text
     x="883.26001"
     y="-3927.29"
     transform="scale(4.0128,0.2492)"
     id="text46"
     style="font-size:46.95399857px;text-anchor:middle;font-family:Arial" />
  <text
     x="920.71997"
     y="523.03998"
     id="text48"
     style="font-size:208.33000183px;line-height:125%;letter-spacing:0;word-spacing:0;font-family:Gentium Book Basic">
    <tspan
       x="920.71997"
       y="523.03998"
       id="tspan50" />
  </text>
  <path
     d="M 66.844,66.813 C 52.599,66.813 41,78.349 41,92.594 v 39.469 l 22.813,22.813 H 41.032 v 0.031 264.44 c 0,6.949 2.741,13.291 7.219,17.938 l 0.906,0.875 73.844,73.844 h 363 c 14.397,0 26,-11.603 26,-26 V 122.944 L 464.313,75.256 463.438,74.35 c -4.664,-4.664 -11.09,-7.531 -18.219,-7.531 H 66.849 m 391.53,300.22 h 12.625 v 12.625 l -12.625,-12.625"
     inkscape:connector-curvature="0"
     id="path52"
     style="opacity:0.25" />
  <path
     d="M 66.83,66.812 C 52.585,66.812 41,78.345 41,92.59 v 39.473 H 471 V 92.59 C 471,78.34 459.47,66.812 445.222,66.812 H 66.842 m 266.55,17.17 c 9.481,0 17.22,7.735 17.22,17.22 0,9.486 -7.739,17.17 -17.22,17.17 -9.481,0 -17.17,-7.684 -17.17,-17.17 0,-9.486 7.687,-17.22 17.17,-17.22 m 47.3,0 c 9.481,0 17.22,7.735 17.22,17.22 0,9.486 -7.739,17.17 -17.22,17.17 -9.481,0 -17.17,-7.684 -17.17,-17.17 0,-9.486 7.687,-17.22 17.17,-17.22 m 47.3,0 c 9.481,0 17.17,7.735 17.17,17.22 0,9.486 -7.687,17.17 -17.17,17.17 -9.481,0 -17.22,-7.684 -17.22,-17.17 0,-9.486 7.739,-17.22 17.22,-17.22 m -386.99,70.905 v 264.47 c 0,14.245 11.585,25.83 25.83,25.83 h 378.38 c 14.25,0 25.778,-11.59 25.778,-25.83 v -264.47 h -430 m 192.33,88.18 h 45.39 c 8.375,0 14.938,6.799 14.938,15.15 v 27.491 c 13.785,3.581 27.07,9.114 39.11,16.235 l 19.607,-19.502 c 5.908,-5.912 15.509,-5.912 21.421,0 l 32.11,32.16 c 5.911,5.912 5.911,15.509 0,21.421 l -19.502,19.502 c 7.116,12.05 12.653,25.337 16.235,39.11 h 27.491 c 8.363,0 15.09,6.583 15.09,14.938 v 9.752 H 330.53 c -6.157,-35.612 -37.11,-62.71 -74.48,-62.71 -37.37,0 -68.39,27.1 -74.53,62.71 H 66.84 v -9.7 c 0,-8.372 6.786,-14.99 15.15,-14.99 h 27.491 c 3.578,-13.777 9.114,-27.01 16.235,-39.06 l -19.502,-19.607 c -5.916,-5.912 -5.911,-15.509 0,-21.421 l 32.11,-32.11 c 5.908,-5.912 15.511,-5.912 21.421,0 l 19.555,19.502 c 12.04,-7.111 25.332,-12.653 39.11,-16.235 v -27.491 c 0,-8.36 6.579,-15.15 14.938,-15.15"
     inkscape:connector-curvature="0"
     id="path54"
     style="fill:#ffffff" />
</svg>
