<?xml version="1.0" encoding="UTF-8" standalone="no"?>
<!-- Created with Inkscape (http://www.inkscape.org/) -->

<svg
   xmlns:dc="http://purl.org/dc/elements/1.1/"
   xmlns:cc="http://creativecommons.org/ns#"
   xmlns:rdf="http://www.w3.org/1999/02/22-rdf-syntax-ns#"
   xmlns:svg="http://www.w3.org/2000/svg"
   xmlns="http://www.w3.org/2000/svg"
   xmlns:inkscape="http://www.inkscape.org/namespaces/inkscape"
   version="1.1"
   width="100%"
   height="100%"
   viewBox="0 0 512 512"
   id="svg2">
  <metadata
     id="metadata125">
    <rdf:RDF>
      <cc:Work
         rdf:about="">
        <dc:format>image/svg+xml</dc:format>
        <dc:type
           rdf:resource="http://purl.org/dc/dcmitype/StillImage" />
      </cc:Work>
    </rdf:RDF>
  </metadata>
  <defs
     id="defs4">
    <clipPath
       id="0">
      <path
         d="M 26,0 C 11.603,0 0,11.603 0,26 v 460 c 0,14.397 11.603,26 26,26 h 460 c 14.397,0 26,-11.603 26,-26 V 26 C 512,11.603 500.397,0 486,0 H 26"
         inkscape:connector-curvature="0"
         id="path7" />
    </clipPath>
  </defs>
  <path
     d="M 26,0 C 11.603,0 0,11.603 0,26 v 460 c 0,14.397 11.603,26 26,26 h 460 c 14.397,0 26,-11.603 26,-26 V 26 C 512,11.603 500.397,0 486,0 H 26"
     inkscape:connector-curvature="0"
     id="path9"
     style="fill:#62c0dc" />
  <text
     x="-24.16"
     y="-593.09998"
     id="text11"
     style="font-size:129.22999573px;line-height:125%;letter-spacing:0;word-spacing:0;font-family:Gentium Book Basic">
    <tspan
       x="-24.16"
       y="-593.09998"
       id="tspan13" />
  </text>
  <text
     x="191.06"
     y="-2729.1499"
     transform="scale(4.0128,0.2492)"
     id="text15"
     style="font-size:46.95399857px;text-anchor:middle;font-family:Arial" />
  <text
     x="557.10999"
     y="-673.09998"
     id="text17"
     style="font-size:129.22999573px;line-height:125%;letter-spacing:0;word-spacing:0;font-family:Gentium Book Basic">
    <tspan
       x="557.10999"
       y="-673.09998"
       id="tspan19" />
  </text>
  <text
     x="335.91"
     y="-3050.1899"
     transform="scale(4.0128,0.2492)"
     id="text21"
     style="font-size:46.95399857px;text-anchor:middle;font-family:Arial" />
  <text
     x="-514.46997"
     y="-854.35999"
     id="text23"
     style="font-size:129.22999573px;line-height:125%;letter-spacing:0;word-spacing:0;font-family:Gentium Book Basic">
    <tspan
       x="-514.46997"
       y="-854.35999"
       id="tspan25" />
  </text>
  <text
     x="68.870003"
     y="-3777.53"
     transform="scale(4.0128,0.2492)"
     id="text27"
     style="font-size:46.95399857px;text-anchor:middle;font-family:Arial" />
  <text
     x="583.58002"
     y="-1070.83"
     id="text29"
     style="font-size:129.22999573px;line-height:125%;letter-spacing:0;word-spacing:0;font-family:Gentium Book Basic">
    <tspan
       x="583.58002"
       y="-1070.83"
       id="tspan31" />
  </text>
  <text
     x="342.51001"
     y="-4646.21"
     transform="scale(4.0128,0.2492)"
     id="text33"
     style="font-size:46.95399857px;text-anchor:middle;font-family:Arial" />
  <text
     x="1164.85"
     y="-1150.83"
     id="text35"
     style="font-size:129.22999573px;line-height:125%;letter-spacing:0;word-spacing:0;font-family:Gentium Book Basic">
    <tspan
       x="1164.85"
       y="-1150.83"
       id="tspan37" />
  </text>
  <text
     x="487.35999"
     y="-4967.2402"
     transform="scale(4.0128,0.2492)"
     id="text39"
     style="font-size:46.95399857px;text-anchor:middle;font-family:Arial" />
  <text
     x="775.72998"
     y="-1623.23"
     id="text41"
     style="font-size:129.22999573px;line-height:125%;letter-spacing:0;word-spacing:0;font-family:Gentium Book Basic">
    <tspan
       x="775.72998"
       y="-1623.23"
       id="tspan43" />
  </text>
  <text
     x="390.39001"
     y="-6862.8901"
     transform="scale(4.0128,0.2492)"
     id="text45"
     style="font-size:46.95399857px;text-anchor:middle;font-family:Arial" />
  <text
     x="1356.99"
     y="-1703.24"
     id="text47"
     style="font-size:129.22999573px;line-height:125%;letter-spacing:0;word-spacing:0;font-family:Gentium Book Basic">
    <tspan
       x="1356.99"
       y="-1703.24"
       id="tspan49" />
  </text>
  <text
     x="535.23999"
     y="-7183.9302"
     transform="scale(4.0128,0.2492)"
     id="text51"
     style="font-size:46.95399857px;text-anchor:middle;font-family:Arial" />
  <g
     transform="translate(-753.8,-1364.82)"
     id="g53"
     style="font-size:208.33000183px;line-height:125%;letter-spacing:0;word-spacing:0;font-family:Gentium Book Basic">
    <text
       x="277.98999"
       y="1076.3"
       id="text55">
      <tspan
         x="277.98999"
         y="1076.3"
         id="tspan57" />
    </text>
    <text
       x="-1666.79"
       y="907.01001"
       id="text59">
      <tspan
         x="-1666.79"
         y="907.01001"
         id="tspan61" />
    </text>
  </g>
  <text
     x="-285.48999"
     y="-2399.99"
     transform="scale(4.0128,0.2492)"
     id="text63"
     style="font-size:75.69999695px;text-anchor:middle;font-family:Arial" />
  <g
     clip-path="url(#0)"
     id="g65"
     style="opacity:0.25">
    <path
       d="m 232.94,91.55 19.03,49.26 353.55,353.55 -19.03,-49.26 z"
       inkscape:connector-curvature="0"
       id="path67" />
    <path
       d="m 251.97,140.81 33.14,85.08 353.55,353.55 -33.14,-85.08 z"
       inkscape:connector-curvature="0"
       id="path69" />
    <path
       d="m 285.11,225.89 36.08,-88.54 353.55,353.55 -36.08,88.54 z"
       inkscape:connector-curvature="0"
       id="path71" />
    <path
       d="M 321.19,137.35 338.648,94.434 692.198,447.984 674.74,490.9 z"
       inkscape:connector-curvature="0"
       id="path73" />
    <path
       d="m 338.64,94.44 16.57,43.13 353.55,353.55 -16.57,-43.13 z"
       inkscape:connector-curvature="0"
       id="path75" />
    <path
       d="M 355.21,137.56 412.33,286.9 765.88,640.45 708.76,491.11 z"
       inkscape:connector-curvature="0"
       id="path77" />
    <path
       d="m 412.34,286.9 h 58.662 l 353.55,353.55 H 765.89 z"
       inkscape:connector-curvature="0"
       id="path79" />
    <path
       d="m 471,286.9 v 30.797 l 353.55,353.55 V 640.45 z"
       inkscape:connector-curvature="0"
       id="path81" />
    <path
       d="m 471,317.7 h -71.64 l 353.55,353.55 h 71.64 z"
       inkscape:connector-curvature="0"
       id="path83" />
    <path
       d="m 399.36,317.7 h -13.02 l 353.55,353.55 h 13.02 z"
       inkscape:connector-curvature="0"
       id="path85" />
    <path
       d="m 386.34,317.7 -4.03,-10.598 353.55,353.55 4.03,10.598 z"
       inkscape:connector-curvature="0"
       id="path87" />
    <path
       d="M 382.31,307.1 337.759,190.28 691.309,543.83 735.86,660.65 z"
       inkscape:connector-curvature="0"
       id="path89" />
    <path
       d="M 337.75,190.28 301.67,278.8 655.22,632.35 691.3,543.83 z"
       inkscape:connector-curvature="0"
       id="path91" />
    <path
       d="m 301.68,278.8 -17.458,42.539 353.55,353.55 17.458,-42.539 z"
       inkscape:connector-curvature="0"
       id="path93" />
    <path
       d="m 284.22,321.34 -16.57,-42.718 353.55,353.55 16.57,42.718 z"
       inkscape:connector-curvature="0"
       id="path95" />
    <path
       d="m 267.65,278.62 -30.475,-78.71 353.55,353.55 30.475,78.71 z"
       inkscape:connector-curvature="0"
       id="path97" />
    <path
       d="M 237.17,199.91 186.13,367.54 539.68,721.09 590.72,553.46 z"
       inkscape:connector-curvature="0"
       id="path99" />
    <path
       d="M 186.13,367.55 170,420.455 523.55,774.005 539.68,721.1 z"
       inkscape:connector-curvature="0"
       id="path101" />
    <path
       d="M 170.01,420.45 151.63,368.11 505.18,721.66 523.56,774 z"
       inkscape:connector-curvature="0"
       id="path103" />
    <path
       d="M 151.63,368.11 99.22,219.15 452.77,572.7 505.18,721.66 z"
       inkscape:connector-curvature="0"
       id="path105" />
    <path
       d="M 99.22,219.14 H 41 l 353.55,353.55 h 58.22 z"
       inkscape:connector-curvature="0"
       id="path107" />
    <path
       d="m 41,219.14 v -30.797 l 353.55,353.55 v 30.797 z"
       inkscape:connector-curvature="0"
       id="path109" />
    <path
       d="m 41,188.35 h 71.64 L 466.19,541.9 h -71.64 z"
       inkscape:connector-curvature="0"
       id="path111" />
    <path
       d="m 112.64,188.35 h 13.222 L 479.412,541.9 H 466.19 z"
       inkscape:connector-curvature="0"
       id="path113" />
    <path
       d="m 125.86,188.35 4.03,10.979 353.55,353.55 -4.03,-10.979 z"
       inkscape:connector-curvature="0"
       id="path115" />
    <path
       d="M 129.9,199.33 167.55,306.72 521.1,660.27 483.451,552.88 z"
       inkscape:connector-curvature="0"
       id="path117" />
    <path
       d="M 167.54,306.72 217.69,141.79 571.24,495.34 521.09,660.27 z"
       inkscape:connector-curvature="0"
       id="path119" />
  </g>
  <path
     d="m 232.94,91.55 19.03,49.26 33.14,85.08 36.08,-88.54 17.458,-42.916 16.57,43.13 57.12,149.34 H 471 v 30.797 h -71.64 -13.02 l -4.03,-10.598 -44.551,-116.82 -36.08,88.52 -17.458,42.539 -16.57,-42.718 -30.475,-78.71 -51.04,167.63 -16.13,52.905 -18.38,-52.34 -52.41,-148.96 h -58.22 v -30.797 h 71.64 13.222 l 4.03,10.979 37.65,107.39 50.15,-164.93 z"
     inkscape:connector-curvature="0"
     id="path121"
     style="fill:#ffffff" />
</svg>
