<?xml version="1.0" encoding="UTF-8" standalone="no"?>
<!-- Created with Inkscape (http://www.inkscape.org/) -->

<svg
   xmlns:dc="http://purl.org/dc/elements/1.1/"
   xmlns:cc="http://creativecommons.org/ns#"
   xmlns:rdf="http://www.w3.org/1999/02/22-rdf-syntax-ns#"
   xmlns:svg="http://www.w3.org/2000/svg"
   xmlns="http://www.w3.org/2000/svg"
   xmlns:inkscape="http://www.inkscape.org/namespaces/inkscape"
   version="1.1"
   width="100%"
   height="100%"
   viewBox="0 0 512 512"
   id="svg2">
  <metadata
     id="metadata125">
    <rdf:RDF>
      <cc:Work
         rdf:about="">
        <dc:format>image/svg+xml</dc:format>
        <dc:type
           rdf:resource="http://purl.org/dc/dcmitype/StillImage" />
      </cc:Work>
    </rdf:RDF>
  </metadata>
  <defs
     id="defs4">
    <clipPath
       id="0">
      <path
         d="M 26,0 C 11.603,0 0,11.603 0,26 v 460 c 0,14.397 11.603,26 26,26 h 460 c 14.397,0 26,-11.603 26,-26 V 26 C 512,11.603 500.397,0 486,0 H 26"
         inkscape:connector-curvature="0"
         id="path7" />
    </clipPath>
  </defs>
  <path
     d="M 26,0 C 11.603,0 0,11.603 0,26 v 460 c 0,14.397 11.603,26 26,26 h 460 c 14.397,0 26,-11.603 26,-26 V 26 C 512,11.603 500.397,0 486,0 H 26"
     inkscape:connector-curvature="0"
     id="path9"
     style="fill:#62c0dc" />
  <text
     x="149.75999"
     y="231.36"
     id="text11"
     style="font-size:129.22999573px;line-height:125%;letter-spacing:0;word-spacing:0;font-family:Gentium Book Basic">
    <tspan
       x="149.75999"
       y="231.36"
       id="tspan13" />
  </text>
  <text
     x="234.39999"
     y="579.25"
     transform="scale(4.0128,0.2492)"
     id="text15"
     style="font-size:46.95399857px;text-anchor:middle;font-family:Arial" />
  <text
     x="731.03003"
     y="151.36"
     id="text17"
     style="font-size:129.22999573px;line-height:125%;letter-spacing:0;word-spacing:0;font-family:Gentium Book Basic">
    <tspan
       x="731.03003"
       y="151.36"
       id="tspan19" />
  </text>
  <text
     x="379.25"
     y="258.22"
     transform="scale(4.0128,0.2492)"
     id="text21"
     style="font-size:46.95399857px;text-anchor:middle;font-family:Arial" />
  <text
     x="-340.54999"
     y="-29.900999"
     id="text23"
     style="font-size:129.22999573px;line-height:125%;letter-spacing:0;word-spacing:0;font-family:Gentium Book Basic">
    <tspan
       x="-340.54999"
       y="-29.900999"
       id="tspan25" />
  </text>
  <text
     x="112.21"
     y="-469.14001"
     transform="scale(4.0128,0.2492)"
     id="text27"
     style="font-size:46.95399857px;text-anchor:middle;font-family:Arial" />
  <text
     x="757.5"
     y="-246.37"
     id="text29"
     style="font-size:129.22999573px;line-height:125%;letter-spacing:0;word-spacing:0;font-family:Gentium Book Basic">
    <tspan
       x="757.5"
       y="-246.37"
       id="tspan31" />
  </text>
  <text
     x="385.85001"
     y="-1337.8"
     transform="scale(4.0128,0.2492)"
     id="text33"
     style="font-size:46.95399857px;text-anchor:middle;font-family:Arial" />
  <text
     x="1338.77"
     y="-326.38"
     id="text35"
     style="font-size:129.22999573px;line-height:125%;letter-spacing:0;word-spacing:0;font-family:Gentium Book Basic">
    <tspan
       x="1338.77"
       y="-326.38"
       id="tspan37" />
  </text>
  <text
     x="530.70001"
     y="-1658.84"
     transform="scale(4.0128,0.2492)"
     id="text39"
     style="font-size:46.95399857px;text-anchor:middle;font-family:Arial" />
  <text
     x="949.65002"
     y="-798.78003"
     id="text41"
     style="font-size:129.22999573px;line-height:125%;letter-spacing:0;word-spacing:0;font-family:Gentium Book Basic">
    <tspan
       x="949.65002"
       y="-798.78003"
       id="tspan43" />
  </text>
  <text
     x="433.73001"
     y="-3554.49"
     transform="scale(4.0128,0.2492)"
     id="text45"
     style="font-size:46.95399857px;text-anchor:middle;font-family:Arial" />
  <text
     x="1530.91"
     y="-878.78003"
     id="text47"
     style="font-size:129.22999573px;line-height:125%;letter-spacing:0;word-spacing:0;font-family:Gentium Book Basic">
    <tspan
       x="1530.91"
       y="-878.78003"
       id="tspan49" />
  </text>
  <text
     x="578.58002"
     y="-3875.52"
     transform="scale(4.0128,0.2492)"
     id="text51"
     style="font-size:46.95399857px;text-anchor:middle;font-family:Arial" />
  <text
     x="-301.89001"
     y="535.94"
     id="text53"
     style="font-size:208.33000183px;line-height:125%;letter-spacing:0;word-spacing:0;font-family:Gentium Book Basic">
    <tspan
       x="-301.89001"
       y="535.94"
       id="tspan55" />
  </text>
  <path
     d="M 0,274.03 V 486 c 0,14.397 11.603,26 26,26 h 460 c 14.397,0 26,-11.603 26,-26 V 274.03 H 0"
     inkscape:connector-curvature="0"
     id="path57"
     style="fill:#282629" />
  <g
     clip-path="url(#0)"
     id="g59"
     style="opacity:0.25">
    <path
       d="M 101.38,97.05 C 68.008,97.05 41,124.11 41,157.48 l 353.55,353.55 c 0,-33.377 27.01,-60.43 60.38,-60.43 z"
       inkscape:connector-curvature="0"
       id="path61" />
    <path
       d="m 41,157.49 c 0,16.696 6.763,31.813 17.701,42.751 l 353.55,353.55 C 401.312,542.852 394.55,527.731 394.55,511.04 z"
       inkscape:connector-curvature="0"
       id="path63" />
    <path
       d="m 58.701,200.24 c 10.925,10.925 26.02,17.682 42.695,17.682 l 353.55,353.55 c -16.679,0 -31.769,-6.757 -42.695,-17.682 z"
       inkscape:connector-curvature="0"
       id="path65" />
    <path
       d="m 101.4,217.92 c 33.372,0 60.43,-27.06 60.43,-60.43 l 353.55,353.55 c 0,33.377 -27.06,60.43 -60.43,60.43 z"
       inkscape:connector-curvature="0"
       id="path67" />
    <path
       d="m 161.83,157.49 c 0,-16.686 -6.765,-31.795 -17.702,-42.732 l 353.55,353.55 c 10.937,10.937 17.702,26.05 17.702,42.732 z"
       inkscape:connector-curvature="0"
       id="path69" />
    <path
       d="M 144.13,114.75 C 133.194,103.814 118.09,97.049 101.398,97.049 l 353.55,353.55 c 16.688,0 31.796,6.765 42.732,17.701 z"
       inkscape:connector-curvature="0"
       id="path71" />
    <path
       d="m 255.98,97.05 c -33.372,0 -60.43,27.06 -60.43,60.43 L 549.1,511.03 c 0,-33.377 27.06,-60.43 60.43,-60.43 z"
       inkscape:connector-curvature="0"
       id="path73" />
    <path
       d="m 195.55,157.49 c 0,16.686 6.765,31.795 17.702,42.732 l 353.55,353.55 C 555.865,542.835 549.1,527.722 549.1,511.04 z"
       inkscape:connector-curvature="0"
       id="path75" />
    <path
       d="m 213.25,200.22 c 10.936,10.936 26.04,17.701 42.732,17.701 l 353.55,353.55 c -16.688,0 -31.796,-6.765 -42.732,-17.701 z"
       inkscape:connector-curvature="0"
       id="path77" />
    <path
       d="m 255.98,217.92 c 33.372,0 60.43,-27.06 60.43,-60.43 l 353.55,353.55 c 0,33.377 -27.06,60.43 -60.43,60.43 z"
       inkscape:connector-curvature="0"
       id="path79" />
    <path
       d="m 316.41,157.49 c 0,-16.686 -6.765,-31.795 -17.702,-42.732 l 353.55,353.55 c 10.937,10.937 17.702,26.05 17.702,42.732 z"
       inkscape:connector-curvature="0"
       id="path81" />
    <path
       d="M 298.71,114.75 C 287.774,103.814 272.67,97.049 255.978,97.049 l 353.55,353.55 c 16.688,0 31.796,6.765 42.732,17.701 z"
       inkscape:connector-curvature="0"
       id="path83" />
    <path
       d="m 410.57,97.05 c -33.372,0 -60.43,27.06 -60.43,60.43 l 353.55,353.55 c 0,-33.377 27.06,-60.43 60.43,-60.43 z"
       inkscape:connector-curvature="0"
       id="path85" />
    <path
       d="m 350.13,157.49 c 0,16.686 6.765,31.795 17.702,42.732 l 353.55,353.55 C 710.445,542.835 703.68,527.722 703.68,511.04 z"
       inkscape:connector-curvature="0"
       id="path87" />
    <path
       d="m 367.83,200.22 c 10.936,10.936 26.04,17.701 42.732,17.701 l 353.55,353.55 c -16.688,0 -31.796,-6.765 -42.732,-17.701 z"
       inkscape:connector-curvature="0"
       id="path89" />
    <path
       d="m 410.57,217.92 c 33.372,0 60.43,-27.06 60.43,-60.43 l 353.55,353.55 c 0,33.377 -27.06,60.43 -60.43,60.43 z"
       inkscape:connector-curvature="0"
       id="path91" />
    <path
       d="m 471,157.49 c 0,-16.686 -6.765,-31.795 -17.702,-42.732 l 353.55,353.55 c 10.937,10.937 17.702,26.05 17.702,42.732 z"
       inkscape:connector-curvature="0"
       id="path93" />
    <path
       d="M 453.3,114.75 C 442.364,103.814 427.26,97.049 410.568,97.049 l 353.55,353.55 c 16.688,0 31.796,6.765 42.732,17.701 z"
       inkscape:connector-curvature="0"
       id="path95" />
    <path
       d="m 231.71,300.85 v 48.04 L 585.26,702.44 V 654.4 z"
       inkscape:connector-curvature="0"
       id="path97" />
    <path
       d="m 231.71,348.89 -47.998,-0.039 353.55,353.55 47.998,0.039 z"
       inkscape:connector-curvature="0"
       id="path99" />
    <path
       d="m 183.71,348.85 -0.275,48.31 353.55,353.55 0.275,-48.31 z"
       inkscape:connector-curvature="0"
       id="path101" />
    <path
       d="m 183.44,397.16 48.27,0.039 353.55,353.55 -48.27,-0.039 z"
       inkscape:connector-curvature="0"
       id="path103" />
    <path
       d="m 231.71,397.2 v 48.04 l 353.55,353.55 v -48.04 z"
       inkscape:connector-curvature="0"
       id="path105" />
    <path
       d="m 231.71,445.24 48.705,0.393 353.55,353.55 -48.705,-0.393 z"
       inkscape:connector-curvature="0"
       id="path107" />
    <path
       d="m 280.42,445.63 -0.079,-48.39 353.55,353.55 0.079,48.39 z"
       inkscape:connector-curvature="0"
       id="path109" />
    <path
       d="m 280.34,397.24 48.23,0.079 353.55,353.55 -48.23,-0.079 z"
       inkscape:connector-curvature="0"
       id="path111" />
    <path
       d="m 328.57,397.32 -0.275,-48.43 353.55,353.55 0.275,48.43 z"
       inkscape:connector-curvature="0"
       id="path113" />
    <path
       d="m 328.3,348.89 h -48.07 l 353.55,353.55 h 48.07 z"
       inkscape:connector-curvature="0"
       id="path115" />
    <path
       d="m 280.22,348.89 -0.118,-47.998 353.55,353.55 0.118,47.998 z"
       inkscape:connector-curvature="0"
       id="path117" />
    <path
       d="m 280.11,300.89 -48.39,-0.039 353.55,353.55 48.39,0.039 z"
       inkscape:connector-curvature="0"
       id="path119" />
  </g>
  <path
     d="M 101.38,97.05 C 68.008,97.05 41,124.11 41,157.48 c 0,33.372 27.02,60.43 60.4,60.43 33.372,0 60.43,-27.06 60.43,-60.43 0,-33.372 -27.06,-60.43 -60.43,-60.43 m 154.59,0 c -33.372,0 -60.43,27.06 -60.43,60.43 0,33.372 27.06,60.43 60.43,60.43 33.372,0 60.43,-27.06 60.43,-60.43 0,-33.372 -27.06,-60.43 -60.43,-60.43 m 154.59,0 c -33.372,0 -60.43,27.06 -60.43,60.43 0,33.372 27.06,60.43 60.43,60.43 33.372,0 60.43,-27.06 60.43,-60.43 0,-33.372 -27.06,-60.43 -60.43,-60.43 m -178.85,203.8 v 48.04 l -47.998,-0.039 -0.275,48.31 48.27,0.039 v 48.04 l 48.705,0.393 -0.079,-48.39 48.23,0.079 -0.275,-48.43 h -48.07 l -0.118,-47.998 -48.39,-0.039"
     inkscape:connector-curvature="0"
     id="path121"
     style="fill:#ffffff" />
</svg>
