<?xml version="1.0" encoding="UTF-8" standalone="no"?>
<!-- Created with Inkscape (http://www.inkscape.org/) -->

<svg
   xmlns:dc="http://purl.org/dc/elements/1.1/"
   xmlns:cc="http://creativecommons.org/ns#"
   xmlns:rdf="http://www.w3.org/1999/02/22-rdf-syntax-ns#"
   xmlns:svg="http://www.w3.org/2000/svg"
   xmlns="http://www.w3.org/2000/svg"
   xmlns:inkscape="http://www.inkscape.org/namespaces/inkscape"
   version="1.1"
   width="100%"
   height="100%"
   viewBox="0 0 512 512"
   id="svg2">
  <metadata
     id="metadata105">
    <rdf:RDF>
      <cc:Work
         rdf:about="">
        <dc:format>image/svg+xml</dc:format>
        <dc:type
           rdf:resource="http://purl.org/dc/dcmitype/StillImage" />
      </cc:Work>
    </rdf:RDF>
  </metadata>
  <defs
     id="defs4">
    <clipPath
       id="0">
      <path
         d="M 26,0 C 11.603,0 0,11.603 0,26 v 460 c 0,14.397 11.603,26 26,26 h 460 c 14.397,0 26,-11.603 26,-26 V 26 C 512,11.603 500.397,0 486,0 H 26"
         inkscape:connector-curvature="0"
         id="path7" />
    </clipPath>
  </defs>
  <path
     d="M 26,0 C 11.603,0 0,11.603 0,26 v 460 c 0,14.397 11.603,26 26,26 h 460 c 14.397,0 26,-11.603 26,-26 V 26 C 512,11.603 500.397,0 486,0 H 26"
     inkscape:connector-curvature="0"
     id="path9"
     style="fill:#49a026" />
  <text
     x="-1863.37"
     y="138.00999"
     id="text11"
     style="font-size:208.33000183px;line-height:125%;letter-spacing:0;word-spacing:0;font-family:Gentium Book Basic">
    <tspan
       x="-1863.37"
       y="138.00999"
       id="tspan13" />
  </text>
  <text
     x="-146.63"
     y="-9.0699997"
     transform="scale(4.0128,0.2492)"
     id="text15"
     style="font-size:75.69999695px;text-anchor:middle;font-family:Arial" />
  <text
     x="26.749001"
     y="-180.14999"
     id="text17"
     style="font-size:129.22999573px;line-height:125%;letter-spacing:0;word-spacing:0;font-family:Gentium Book Basic">
    <tspan
       x="26.749001"
       y="-180.14999"
       id="tspan19" />
  </text>
  <text
     x="203.75"
     y="-1072.05"
     transform="scale(4.0128,0.2492)"
     id="text21"
     style="font-size:46.95399857px;text-anchor:middle;font-family:Arial" />
  <text
     x="608.02002"
     y="-260.14999"
     id="text23"
     style="font-size:129.22999573px;line-height:125%;letter-spacing:0;word-spacing:0;font-family:Gentium Book Basic">
    <tspan
       x="608.02002"
       y="-260.14999"
       id="tspan25" />
  </text>
  <text
     x="348.60001"
     y="-1393.09"
     transform="scale(4.0128,0.2492)"
     id="text27"
     style="font-size:46.95399857px;text-anchor:middle;font-family:Arial" />
  <text
     x="-463.56"
     y="-441.41"
     id="text29"
     style="font-size:129.22999573px;line-height:125%;letter-spacing:0;word-spacing:0;font-family:Gentium Book Basic">
    <tspan
       x="-463.56"
       y="-441.41"
       id="tspan31" />
  </text>
  <text
     x="81.559998"
     y="-2120.4399"
     transform="scale(4.0128,0.2492)"
     id="text33"
     style="font-size:46.95399857px;text-anchor:middle;font-family:Arial" />
  <text
     x="634.48999"
     y="-657.88"
     id="text35"
     style="font-size:129.22999573px;line-height:125%;letter-spacing:0;word-spacing:0;font-family:Gentium Book Basic">
    <tspan
       x="634.48999"
       y="-657.88"
       id="tspan37" />
  </text>
  <text
     x="355.20001"
     y="-2989.1101"
     transform="scale(4.0128,0.2492)"
     id="text39"
     style="font-size:46.95399857px;text-anchor:middle;font-family:Arial" />
  <text
     x="1215.76"
     y="-737.88"
     id="text41"
     style="font-size:129.22999573px;line-height:125%;letter-spacing:0;word-spacing:0;font-family:Gentium Book Basic">
    <tspan
       x="1215.76"
       y="-737.88"
       id="tspan43" />
  </text>
  <text
     x="500.04999"
     y="-3310.1399"
     transform="scale(4.0128,0.2492)"
     id="text45"
     style="font-size:46.95399857px;text-anchor:middle;font-family:Arial" />
  <text
     x="826.64001"
     y="-1210.28"
     id="text47"
     style="font-size:129.22999573px;line-height:125%;letter-spacing:0;word-spacing:0;font-family:Gentium Book Basic">
    <tspan
       x="826.64001"
       y="-1210.28"
       id="tspan49" />
  </text>
  <text
     x="403.07999"
     y="-5205.79"
     transform="scale(4.0128,0.2492)"
     id="text51"
     style="font-size:46.95399857px;text-anchor:middle;font-family:Arial" />
  <text
     x="1407.9"
     y="-1290.29"
     id="text53"
     style="font-size:129.22999573px;line-height:125%;letter-spacing:0;word-spacing:0;font-family:Gentium Book Basic">
    <tspan
       x="1407.9"
       y="-1290.29"
       id="tspan55" />
  </text>
  <text
     x="547.91998"
     y="-5526.8301"
     transform="scale(4.0128,0.2492)"
     id="text57"
     style="font-size:46.95399857px;text-anchor:middle;font-family:Arial" />
  <text
     x="-424.89999"
     y="124.43"
     id="text59"
     style="font-size:208.33000183px;line-height:125%;letter-spacing:0;word-spacing:0;font-family:Gentium Book Basic">
    <tspan
       x="-424.89999"
       y="124.43"
       id="tspan61" />
  </text>
  <g
     clip-path="url(#0)"
     id="g63"
     style="opacity:0.25;fill-rule:evenodd">
    <path
       d="m 59.906,41 v 98.72 l 353.55,353.55 v -98.72 z"
       inkscape:connector-curvature="0"
       id="path65" />
    <path
       d="m 59.906,139.72 h 0.031 l 353.55,353.55 h -0.031 z"
       inkscape:connector-curvature="0"
       id="path67" />
    <path
       d="m 59.938,139.72 v 165.56 l 353.55,353.55 V 493.27 z"
       inkscape:connector-curvature="0"
       id="path69" />
    <path
       d="m 59.938,305.28 h 98.72 l 353.55,353.55 h -98.72 z"
       inkscape:connector-curvature="0"
       id="path71" />
    <path
       d="M 158.66,305.28 H 353.38 L 706.93,658.83 H 512.21 z"
       inkscape:connector-curvature="0"
       id="path73" />
    <path
       d="m 353.38,305.28 v 67 l 353.55,353.55 v -67 z"
       inkscape:connector-curvature="0"
       id="path75" />
    <path
       d="M 353.38,372.28 H 59.91 l 353.55,353.55 h 293.47 z"
       inkscape:connector-curvature="0"
       id="path77" />
    <path
       d="M 59.906,372.28 V 471 l 353.55,353.55 v -98.72 z"
       inkscape:connector-curvature="0"
       id="path79" />
    <path
       d="m 59.906,471 h 392.19 l 353.55,353.55 h -392.19 z"
       inkscape:connector-curvature="0"
       id="path81" />
    <path
       d="m 452.09,471 v -98.72 l 353.55,353.55 v 98.72 z"
       inkscape:connector-curvature="0"
       id="path83" />
    <path
       d="M 452.09,372.28 V 206.53 l 353.55,353.55 v 165.75 z"
       inkscape:connector-curvature="0"
       id="path85" />
    <path
       d="m 452.09,206.53 h -98.72 l 353.55,353.55 h 98.72 z"
       inkscape:connector-curvature="0"
       id="path87" />
    <path
       d="m 353.38,206.53 v 0.031 l 353.55,353.55 v -0.031 z"
       inkscape:connector-curvature="0"
       id="path89" />
    <path
       d="M 353.38,206.56 H 158.66 l 353.55,353.55 h 194.72 z"
       inkscape:connector-curvature="0"
       id="path91" />
    <path
       d="m 158.66,206.56 v -66.844 l 353.55,353.55 v 66.844 z"
       inkscape:connector-curvature="0"
       id="path93" />
    <path
       d="M 158.66,139.72 H 452.1 L 805.65,493.27 H 512.21 z"
       inkscape:connector-curvature="0"
       id="path95" />
    <path
       d="M 452.09,139.72 V 41 l 353.55,353.55 v 98.72 z"
       inkscape:connector-curvature="0"
       id="path97" />
    <path
       d="M 452.09,41 H 59.9 l 353.55,353.55 h 392.19 z"
       inkscape:connector-curvature="0"
       id="path99" />
  </g>
  <path
     d="m 59.906,41 v 98.72 h 0.031 v 165.56 h 98.72 194.72 v 67 H 59.907 V 471 h 392.19 V 372.28 206.53 h -98.72 v 0.031 h -194.72 v -66.844 h 293.44 V 40.997 H 59.907"
     inkscape:connector-curvature="0"
     id="path101"
     style="fill:#ffffff;fill-rule:evenodd" />
</svg>
