<?xml version="1.0" encoding="UTF-8" standalone="no"?>
<!-- Created with Inkscape (http://www.inkscape.org/) -->

<svg
   xmlns:dc="http://purl.org/dc/elements/1.1/"
   xmlns:cc="http://creativecommons.org/ns#"
   xmlns:rdf="http://www.w3.org/1999/02/22-rdf-syntax-ns#"
   xmlns:svg="http://www.w3.org/2000/svg"
   xmlns="http://www.w3.org/2000/svg"
   xmlns:inkscape="http://www.inkscape.org/namespaces/inkscape"
   version="1.1"
   width="100%"
   height="100%"
   viewBox="0 0 512 512"
   id="svg2">
  <metadata
     id="metadata87">
    <rdf:RDF>
      <cc:Work
         rdf:about="">
        <dc:format>image/svg+xml</dc:format>
        <dc:type
           rdf:resource="http://purl.org/dc/dcmitype/StillImage" />
      </cc:Work>
    </rdf:RDF>
  </metadata>
  <defs
     id="defs4">
    <clipPath
       id="0">
      <path
         d="M 26,0 C 11.603,0 0,11.603 0,26 v 460 c 0,14.397 11.603,26 26,26 h 460 c 14.397,0 26,-11.603 26,-26 V 26 C 512,11.603 500.397,0 486,0 H 26"
         inkscape:connector-curvature="0"
         id="path7" />
    </clipPath>
  </defs>
  <path
     d="M 26,0 C 11.603,0 0,11.603 0,26 v 460 c 0,14.397 11.603,26 26,26 h 460 c 14.397,0 26,-11.603 26,-26 V 26 C 512,11.603 500.397,0 486,0 H 26"
     inkscape:connector-curvature="0"
     id="path9"
     style="fill:#4d4d4d" />
  <text
     x="9.6400003"
     y="-532.64001"
     id="text11"
     style="font-size:129.22999573px;line-height:125%;letter-spacing:0;word-spacing:0;font-family:Gentium Book Basic">
    <tspan
       x="9.6400003"
       y="-532.64001"
       id="tspan13" />
  </text>
  <text
     x="199.48"
     y="-2486.54"
     transform="scale(4.0128,0.2492)"
     id="text15"
     style="font-size:46.95399857px;text-anchor:middle;font-family:Arial" />
  <text
     x="590.90997"
     y="-612.64001"
     id="text17"
     style="font-size:129.22999573px;line-height:125%;letter-spacing:0;word-spacing:0;font-family:Gentium Book Basic">
    <tspan
       x="590.90997"
       y="-612.64001"
       id="tspan19" />
  </text>
  <text
     x="344.32999"
     y="-2807.5701"
     transform="scale(4.0128,0.2492)"
     id="text21"
     style="font-size:46.95399857px;text-anchor:middle;font-family:Arial" />
  <text
     x="-480.67001"
     y="-793.90002"
     id="text23"
     style="font-size:129.22999573px;line-height:125%;letter-spacing:0;word-spacing:0;font-family:Gentium Book Basic">
    <tspan
       x="-480.67001"
       y="-793.90002"
       id="tspan25" />
  </text>
  <text
     x="77.290001"
     y="-3534.9199"
     transform="scale(4.0128,0.2492)"
     id="text27"
     style="font-size:46.95399857px;text-anchor:middle;font-family:Arial" />
  <text
     x="617.38"
     y="-1010.37"
     id="text29"
     style="font-size:129.22999573px;line-height:125%;letter-spacing:0;word-spacing:0;font-family:Gentium Book Basic">
    <tspan
       x="617.38"
       y="-1010.37"
       id="tspan31" />
  </text>
  <text
     x="350.92999"
     y="-4403.6001"
     transform="scale(4.0128,0.2492)"
     id="text33"
     style="font-size:46.95399857px;text-anchor:middle;font-family:Arial" />
  <text
     x="1198.65"
     y="-1090.37"
     id="text35"
     style="font-size:129.22999573px;line-height:125%;letter-spacing:0;word-spacing:0;font-family:Gentium Book Basic">
    <tspan
       x="1198.65"
       y="-1090.37"
       id="tspan37" />
  </text>
  <text
     x="495.78"
     y="-4724.6201"
     transform="scale(4.0128,0.2492)"
     id="text39"
     style="font-size:46.95399857px;text-anchor:middle;font-family:Arial" />
  <text
     x="809.53003"
     y="-1562.77"
     id="text41"
     style="font-size:129.22999573px;line-height:125%;letter-spacing:0;word-spacing:0;font-family:Gentium Book Basic">
    <tspan
       x="809.53003"
       y="-1562.77"
       id="tspan43" />
  </text>
  <text
     x="398.81"
     y="-6620.2798"
     transform="scale(4.0128,0.2492)"
     id="text45"
     style="font-size:46.95399857px;text-anchor:middle;font-family:Arial" />
  <text
     x="1390.79"
     y="-1642.78"
     id="text47"
     style="font-size:129.22999573px;line-height:125%;letter-spacing:0;word-spacing:0;font-family:Gentium Book Basic">
    <tspan
       x="1390.79"
       y="-1642.78"
       id="tspan49" />
  </text>
  <text
     x="543.65997"
     y="-6941.3101"
     transform="scale(4.0128,0.2492)"
     id="text51"
     style="font-size:46.95399857px;text-anchor:middle;font-family:Arial" />
  <text
     x="-442.01001"
     y="-228.06"
     id="text53"
     style="font-size:208.33000183px;line-height:125%;letter-spacing:0;word-spacing:0;font-family:Gentium Book Basic">
    <tspan
       x="-442.01001"
       y="-228.06"
       id="tspan55" />
  </text>
  <g
     clip-path="url(#0)"
     id="g57"
     style="opacity:0.25">
    <path
       d="m 41.985,471 c 0,0 163.88,-209.13 163.88,-209.13 l 353.55,353.55 c 0,0 -163.88,209.13 -163.88,209.13 z"
       inkscape:connector-curvature="0"
       id="path59" />
    <path
       d="M 205.87,261.87 C 205.87,261.87 41.99,41 41.99,41 l 353.55,353.55 c 0,0 163.88,220.87 163.88,220.87 z"
       inkscape:connector-curvature="0"
       id="path61" />
    <path
       d="m 41.985,41 h 105.99 l 353.55,353.55 h -105.99 z"
       inkscape:connector-curvature="0"
       id="path63" />
    <path
       d="m 147.97,41 c 0,0 131.26,178.73 131.26,178.73 l 353.55,353.55 c 0,0 -131.26,-178.73 -131.26,-178.73 z"
       inkscape:connector-curvature="0"
       id="path65" />
    <path
       d="M 279.24,219.73 79.45,471 433,824.55 632.79,573.28 z"
       inkscape:connector-curvature="0"
       id="path67" />
    <path
       d="M 79.45,471 H 41.99 L 395.54,824.55 H 433 z"
       inkscape:connector-curvature="0"
       id="path69" />
    <path
       d="M 231.76,293.73 431.5,41.01 785.05,394.56 585.31,647.28 z"
       inkscape:connector-curvature="0"
       id="path71" />
    <path
       d="m 431.5,41.02 c 0,0 38.513,0 38.513,0 l 353.55,353.55 c 0,0 -38.513,0 -38.513,0 z"
       inkscape:connector-curvature="0"
       id="path73" />
    <path
       d="M 470.01,41.02 306.08,248.38 659.63,601.93 823.56,394.57 z"
       inkscape:connector-curvature="0"
       id="path75" />
    <path
       d="m 306.09,248.38 c 0,0 163.93,222.62 163.93,222.62 l 353.55,353.55 c 0,0 -163.93,-222.62 -163.93,-222.62 z"
       inkscape:connector-curvature="0"
       id="path77" />
    <path
       d="M 470.01,471 H 364.02 l 353.55,353.55 h 105.99 z"
       inkscape:connector-curvature="0"
       id="path79" />
    <path
       d="m 364.03,471 c 0,0 -132.26,-177.27 -132.26,-177.27 l 353.55,353.55 c 0,0 132.26,177.27 132.26,177.27 z"
       inkscape:connector-curvature="0"
       id="path81" />
  </g>
  <path
     d="m 41.985,471 c 0,0 163.88,-209.13 163.88,-209.13 0,0 -163.88,-220.87 -163.88,-220.87 h 105.99 c 0,0 131.26,178.73 131.26,178.73 L 79.445,471 H 41.985 M 231.755,293.73 431.495,41.01 c 0,0 38.513,0 38.513,0 l -163.93,207.36 c 0,0 163.93,222.62 163.93,222.62 h -105.99 c 0,0 -132.26,-177.27 -132.26,-177.27"
     inkscape:connector-curvature="0"
     id="path83"
     style="fill:#ffffff" />
</svg>
