<?xml version="1.0" encoding="UTF-8" standalone="no"?>
<!-- Created with Inkscape (http://www.inkscape.org/) -->

<svg
   xmlns:dc="http://purl.org/dc/elements/1.1/"
   xmlns:cc="http://creativecommons.org/ns#"
   xmlns:rdf="http://www.w3.org/1999/02/22-rdf-syntax-ns#"
   xmlns:svg="http://www.w3.org/2000/svg"
   xmlns="http://www.w3.org/2000/svg"
   xmlns:inkscape="http://www.inkscape.org/namespaces/inkscape"
   version="1.1"
   width="100%"
   height="100%"
   viewBox="0 0 512 512"
   id="svg2">
  <metadata
     id="metadata10">
    <rdf:RDF>
      <cc:Work
         rdf:about="">
        <dc:format>image/svg+xml</dc:format>
        <dc:type
           rdf:resource="http://purl.org/dc/dcmitype/StillImage" />
        <dc:title />
      </cc:Work>
    </rdf:RDF>
  </metadata>
  <defs
     id="defs8">
    <clipPath
       id="clipPath8100">
      <path
         d="M 26,0 C 11.602648,0 0,11.602648 0,26 l 0,460 c 0,14.39735 11.602648,26 26,26 l 460,0 c 14.39735,0 26,-11.60265 26,-26 L 512,26 C 512,11.602648 500.39735,0 486,0 L 26,0 z"
         inkscape:connector-curvature="0"
         id="path8102"
         style="fill:none;fill-opacity:1;stroke:none" />
    </clipPath>
  </defs>
  <path
     d="M 26,0 C 11.602648,0 0,11.602648 0,26 l 0,460 c 0,14.39735 11.602648,26 26,26 l 460,0 c 14.39735,0 26,-11.60265 26,-26 L 512,26 C 512,11.602648 500.39735,0 486,0 L 26,0 z"
     inkscape:connector-curvature="0"
     id="rect2986"
     style="fill:none;fill-opacity:1;stroke:none" />
  <g
     clip-path="url(#clipPath8100)"
     id="g7724"
     style="opacity:0.0;fill:#000000">
    <path
       d="m 312.3125,59.53125 c -2.40928,0.0043 -4.83815,0.03125 -7.21875,0.03125 l 353.55339,353.55339 c 2.3806,0 4.80947,-0.0269 7.21875,-0.0313 z"
       inkscape:connector-curvature="0"
       id="path7726"
       style="fill:#000000" />
    <path
       d="m 305.09375,59.5625 c 0.018,0 0.0351,0.0082 0.0512,0.02432 l 353.55338,353.55339 c -0.0161,-0.0161 -0.0332,-0.0243 -0.0512,-0.0243 z"
       inkscape:connector-curvature="0"
       id="path7728"
       style="fill:#000000" />
    <path
       d="m 305.14494,59.586816 c 1.08288,1.082878 -1.98533,37.98783 -2.48869,41.038184 l 353.55339,353.55339 c 0.50336,-3.05035 3.57157,-39.95531 2.48869,-41.03818 z"
       inkscape:connector-curvature="0"
       id="path7730"
       style="fill:#000000" />
    <path
       d="m 302.65625,100.625 c -2.42147,14.53905 -6.78312,28.84207 -13.28125,42.09375 l 353.55339,353.55339 c 6.49813,-13.25168 10.85978,-27.5547 13.28125,-42.09375 z"
       inkscape:connector-curvature="0"
       id="path7732"
       style="fill:#000000" />
    <path
       d="m 289.375,142.71875 c -17.6655,36.07685 -56.0799,65.65417 -63.90625,106.09375 l 353.55339,353.55339 c 7.82635,-40.43958 46.24075,-70.0169 63.90625,-106.09375 z"
       inkscape:connector-curvature="0"
       id="path7734"
       style="fill:#000000" />
    <path
       d="m 225.46875,248.8125 c -1.85338,9.56804 -0.0914,17.57621 5.02287,22.69048 l 353.55339,353.55339 c -5.11426,-5.11427 -6.87624,-13.12244 -5.02287,-22.69048 z"
       inkscape:connector-curvature="0"
       id="path7736"
       style="fill:#000000" />
    <path
       d="m 230.49162,271.50298 c 3.90771,3.9077 9.77253,6.1259 17.47713,6.05952 l 353.55339,353.55339 c -7.7046,0.0664 -13.56942,-2.15182 -17.47713,-6.05952 z"
       inkscape:connector-curvature="0"
       id="path7738"
       style="fill:#000000" />
    <path
       d="M 247.96875,277.5625 248,277.5 l 353.55339,353.55339 -0.0313,0.0625 z"
       inkscape:connector-curvature="0"
       id="path7740"
       style="fill:#000000" />
    <path
       d="m 248,277.5 c 22.38584,-0.19412 40.38656,-16.59918 60.71875,-23.8125 l 353.55339,353.55339 c -20.33219,7.21332 -38.33291,23.61838 -60.71875,23.8125 z"
       inkscape:connector-curvature="0"
       id="path7742"
       style="fill:#000000" />
    <path
       d="m 308.71875,253.6875 c 20.68978,-7.33594 42.36186,-11.62034 63.5625,-17.25 l 353.55339,353.55339 c -21.20064,5.62966 -42.87272,9.91406 -63.5625,17.25 z"
       inkscape:connector-curvature="0"
       id="path7744"
       style="fill:#000000" />
    <path
       d="m 372.28125,236.4375 c 16.82769,-4.47513 32.04812,-6.14942 46.25,5.9375 l 353.55339,353.55339 c -14.20188,-12.08692 -29.42231,-10.41263 -46.25,-5.9375 z"
       inkscape:connector-curvature="0"
       id="path7746"
       style="fill:#000000" />
    <path
       d="m 418.53125,242.375 c 10.31935,8.7459 21.82386,24.40185 37.34375,19.375 l 353.55339,353.55339 c -15.51989,5.02685 -27.0244,-10.6291 -37.34375,-19.375 z"
       inkscape:connector-curvature="0"
       id="path7748"
       style="fill:#000000" />
    <path
       d="m 455.875,261.75 c 13.84428,-4.47513 18.11098,-21.36618 13.125,-33.71875 l 353.55339,353.55339 c 4.98598,12.35257 0.71928,29.24362 -13.125,33.71875 z"
       inkscape:connector-curvature="0"
       id="path7750"
       style="fill:#000000" />
    <path
       d="m 469,228.03125 c -2.29691,-5.70905 -5.87074,-10.55476 -10.14239,-14.82641 L 812.411,566.75823 c 4.27165,4.27165 7.84548,9.11736 10.14239,14.82641 z"
       inkscape:connector-curvature="0"
       id="path7752"
       style="fill:#000000" />
    <path
       d="m 458.85761,213.20484 c -7.54712,-7.54712 -17.27255,-13.30231 -25.98261,-18.86109 l 353.55339,353.55339 c 8.71006,5.55878 18.43549,11.31397 25.98261,18.86109 z"
       inkscape:connector-curvature="0"
       id="path7754"
       style="fill:#000000" />
    <path
       d="m 432.875,194.34375 c -16.04096,-10.21718 -29.42898,-24.66206 -45.53125,-34.5625 l 353.55339,353.55339 c 16.10227,9.90044 29.49029,24.34532 45.53125,34.5625 z"
       inkscape:connector-curvature="0"
       id="path7756"
       style="fill:#000000" />
    <path
       d="m 387.34375,159.78125 c -12.61821,-7.77527 -16.48389,1.4701 -15.125,14.34375 l 353.55339,353.55339 c -1.35889,-12.87365 2.50679,-22.11902 15.125,-14.34375 z"
       inkscape:connector-curvature="0"
       id="path7758"
       style="fill:#000000" />
    <path
       d="m 372.21875,174.125 c 1.61431,15.30533 11.17097,33.45318 -7.28125,40.125 l 353.55339,353.55339 c 18.45222,-6.67182 8.89556,-24.81967 7.28125,-40.125 z"
       inkscape:connector-curvature="0"
       id="path7760"
       style="fill:#000000" />
    <path
       d="m 364.9375,214.25 c -24.3884,8.80721 -49.84348,11.74863 -75.4375,13.8125 l 353.55339,353.55339 c 25.59402,-2.06387 51.0491,-5.00529 75.4375,-13.8125 z"
       inkscape:connector-curvature="0"
       id="path7762"
       style="fill:#000000" />
    <path
       d="m 289.5,228.0625 c -3.73949,0.30651 -7.648,-1.12132 -13.09375,-2 l 353.55339,353.55339 c 5.44575,0.87868 9.35426,2.30651 13.09375,2 z"
       inkscape:connector-curvature="0"
       id="path7764"
       style="fill:#000000" />
    <path
       d="m 276.40625,226.0625 c -0.24685,-0.0401 -0.44536,-0.13852 -0.59841,-0.29157 l 353.55339,353.55339 c 0.15305,0.15305 0.35156,0.25152 0.59841,0.29157 z"
       inkscape:connector-curvature="0"
       id="path7766"
       style="fill:#000000" />
    <path
       d="m 275.80784,225.77093 c -4.3762,-4.3762 28.42142,-53.37165 31.25466,-56.89593 l 353.55339,353.55339 c -2.83324,3.52428 -35.63086,52.51973 -31.25466,56.89593 z"
       inkscape:connector-curvature="0"
       id="path7768"
       style="fill:#000000" />
    <path
       d="m 307.0625,168.875 c 12.98603,-16.09205 29.6768,-28.53598 43,-44.25 l 353.55339,353.55339 c -13.3232,15.71402 -30.01397,28.15795 -43,44.25 z"
       inkscape:connector-curvature="0"
       id="path7770"
       style="fill:#000000" />
    <path
       d="m 350.0625,124.625 c 11.43302,-13.46624 16.68713,-33.11353 6.53125,-48.53125 l 353.55339,353.55339 c 10.15588,15.41772 4.90177,35.06501 -6.53125,48.53125 z"
       inkscape:connector-curvature="0"
       id="path7772"
       style="fill:#000000" />
    <path
       d="m 356.59375,76.09375 c -1.37679,-2.088349 -2.87176,-3.914677 -4.46875,-5.511671 L 705.67839,424.13547 c 1.59699,1.59699 3.09196,3.42332 4.46875,5.51167 z"
       inkscape:connector-curvature="0"
       id="path7774"
       style="fill:#000000" />
    <path
       d="M 352.125,70.582079 C 341.70327,60.160354 326.93651,59.505086 312.3125,59.53125 l 353.55339,353.55339 c 14.62401,-0.0262 29.39078,0.6291 39.8125,11.05083 z"
       inkscape:connector-curvature="0"
       id="path7776"
       style="fill:#000000" />
    <path
       d="m 228.03125,80.875 c -9.03892,0.10481 -18.54705,2.188088 -25.375,3.96875 l 353.55339,353.55339 c 6.82795,-1.78066 16.33608,-3.86394 25.375,-3.96875 z"
       inkscape:connector-curvature="0"
       id="path7778"
       style="fill:#000000" />
    <path
       d="M 202.65625,84.84375 C 171.44278,92.98684 140.1691,99.894453 107.75,97.15625 l 353.55339,353.55339 c 32.4191,2.7382 63.69278,-4.16941 94.90625,-12.3125 z"
       inkscape:connector-curvature="0"
       id="path7780"
       style="fill:#000000" />
    <path
       d="M 107.75,97.15625 C 95.520038,96.124315 57.36999,92.843005 67.25,116.8125 l 353.55339,353.55339 c -9.88001,-23.96949 28.27004,-20.68818 40.5,-19.65625 z"
       inkscape:connector-curvature="0"
       id="path7782"
       style="fill:#000000" />
    <path
       d="m 67.25,116.8125 c 0.497976,1.20804 1.219998,2.25514 2.129765,3.16491 L 422.93316,473.5308 c -0.90977,-0.90977 -1.63179,-1.95687 -2.12977,-3.16491 z"
       inkscape:connector-curvature="0"
       id="path7784"
       style="fill:#000000" />
    <path
       d="m 69.379765,119.97741 c 10.027841,10.02784 42.865555,3.37017 49.900615,11.63313 l 353.55339,353.55339 c -7.03506,-8.26296 -39.87277,-1.60529 -49.90061,-11.63313 z"
       inkscape:connector-curvature="0"
       id="path7786"
       style="fill:#000000" />
    <path
       d="m 119.28038,131.61054 c 1.42787,1.67709 1.7928,3.96882 0.68837,7.13946 l 353.55339,353.55339 c 1.10444,-3.17064 0.7395,-5.46237 -0.68837,-7.13946 z"
       inkscape:connector-curvature="0"
       id="path7788"
       style="fill:#000000" />
    <path
       d="m 119.96875,138.75 c -8.7459,25.12404 -17.75726,47.9639 -32,70.65625 l 353.55339,353.55339 c 14.24274,-22.69235 23.2541,-45.53221 32,-70.65625 z"
       inkscape:connector-curvature="0"
       id="path7790"
       style="fill:#000000" />
    <path
       d="m 87.96875,209.40625 c -11.729319,18.69743 -24.696724,36.57723 -36.90625,54.9375 l 353.55339,353.55339 c 12.20953,-18.36027 25.17693,-36.24007 36.90625,-54.9375 z"
       inkscape:connector-curvature="0"
       id="path7792"
       style="fill:#000000" />
    <path
       d="m 51.0625,264.34375 c -4.226562,6.3778 -14.394416,20.23191 -8.021478,26.60485 L 396.59441,644.50199 c -6.37294,-6.37293 3.79492,-20.22705 8.02148,-26.60485 z"
       inkscape:connector-curvature="0"
       id="path7794"
       style="fill:#000000" />
    <path
       d="m 43.041022,290.9486 c 1.345353,1.34536 3.427843,2.35731 6.458978,2.89515 l 353.55339,353.55339 c -3.03113,-0.53784 -5.11362,-1.54979 -6.45898,-2.89515 z"
       inkscape:connector-curvature="0"
       id="path7796"
       style="fill:#000000" />
    <path
       d="m 49.5,293.84375 c 14.181441,2.5032 26.136278,-11.54437 35.25,-20.21875 l 353.55339,353.55339 c -9.11372,8.67438 -21.06856,22.72195 -35.25,20.21875 z"
       inkscape:connector-curvature="0"
       id="path7798"
       style="fill:#000000" />
    <path
       d="m 84.75,273.625 c 5.915374,3.8992 11.08129,8.42648 15.96354,13.30874 l 353.55339,353.55339 c -4.88225,-4.88226 -10.04817,-9.40954 -15.96354,-13.30874 z"
       inkscape:connector-curvature="0"
       id="path7800"
       style="fill:#000000" />
    <path
       d="m 100.71354,286.93374 c 8.23067,8.23066 15.65517,17.47018 24.50521,26.41001 l 353.55339,353.55339 c -8.85004,-8.93983 -16.27454,-18.17935 -24.50521,-26.41001 z"
       inkscape:connector-curvature="0"
       id="path7802"
       style="fill:#000000" />
    <path
       d="m 125.21875,313.34375 c 1.23628,1.25671 -43.515258,60.1774 -48.03125,66.0625 l 353.55339,353.55339 c 4.51599,-5.8851 49.26753,-64.80579 48.03125,-66.0625 z"
       inkscape:connector-curvature="0"
       id="path7804"
       style="fill:#000000" />
    <path
       d="m 77.1875,379.40625 c -6.998766,9.15459 -29.420194,30.11853 -20.53125,43.125 l 353.55339,353.55339 c -8.88894,-13.00647 13.53248,-33.97041 20.53125,-43.125 z"
       inkscape:connector-curvature="0"
       id="path7806"
       style="fill:#000000" />
    <path
       d="m 56.65625,422.53125 c 0.456095,0.66642 0.943624,1.2566 1.460829,1.77381 L 411.67047,777.85845 c -0.51721,-0.51721 -1.00473,-1.10739 -1.46083,-1.77381 z"
       inkscape:connector-curvature="0"
       id="path7808"
       style="fill:#000000" />
    <path
       d="m 58.117079,424.30506 c 19.909154,19.90915 83.790441,-68.315 91.289171,-78.49256 l 353.55339,353.55339 c -7.49873,10.17757 -71.38002,98.40171 -91.28917,78.49256 z"
       inkscape:connector-curvature="0"
       id="path7810"
       style="fill:#000000" />
    <path
       d="m 149.40625,345.8125 c 13.93623,-18.82004 28.59673,-38.55893 36.21875,-60.25 l 353.55339,353.55339 c -7.62202,21.69107 -22.28252,41.42996 -36.21875,60.25 z"
       inkscape:connector-curvature="0"
       id="path7812"
       style="fill:#000000" />
    <path
       d="m 185.625,285.5625 c 6.60029,-18.78939 16.15889,-36.69762 28.03125,-52.6875 l 353.55339,353.55339 c -11.87236,15.98988 -21.43096,33.89811 -28.03125,52.6875 z"
       inkscape:connector-curvature="0"
       id="path7814"
       style="fill:#000000" />
    <path
       d="m 213.65625,232.875 c 8.44961,-11.38194 24.97619,-25.87072 22.15625,-41.65625 l 353.55339,353.55339 c 2.81994,15.78553 -13.70664,30.27431 -22.15625,41.65625 z"
       inkscape:connector-curvature="0"
       id="path7816"
       style="fill:#000000" />
    <path
       d="m 235.8125,191.21875 c -0.6169,-3.45513 -1.95879,-6.05598 -3.8744,-7.97158 l 353.55339,353.55339 c 1.91561,1.9156 3.2575,4.51645 3.8744,7.97158 z"
       inkscape:connector-curvature="0"
       id="path7818"
       style="fill:#000000" />
    <path
       d="M 231.9381,183.24717 C 217.32427,168.63334 169.32088,193.90028 155.09375,184 l 353.55339,353.55339 c 14.22714,9.90028 62.23052,-15.36666 76.84435,-0.75283 z"
       inkscape:connector-curvature="0"
       id="path7820"
       style="fill:#000000" />
    <path
       d="m 155.09375,184 c -0.35015,-0.24377 -0.66881,-0.5106 -0.95739,-0.79918 l 353.55339,353.55339 c 0.28858,0.28858 0.60724,0.55541 0.95739,0.79918 z"
       inkscape:connector-curvature="0"
       id="path7822"
       style="fill:#000000" />
    <path
       d="m 154.13636,183.20082 c -9.8834,-9.8834 15.52099,-45.27658 19.76989,-53.57582 l 353.55339,353.55339 c -4.2489,8.29924 -29.65329,43.69242 -19.76989,53.57582 z"
       inkscape:connector-curvature="0"
       id="path7824"
       style="fill:#000000" />
    <path
       d="M 173.90625,129.625 C 176.14381,125.27248 217.931,125.16536 224,124.03125 l 353.55339,353.55339 c -6.069,1.13411 -47.85619,1.24123 -50.09375,5.59375 z"
       inkscape:connector-curvature="0"
       id="path7826"
       style="fill:#000000" />
    <path
       d="m 224,124.03125 c 12.45474,-2.3193 32.15997,-7.56958 30.75,-23.9375 l 353.55339,353.55339 c 1.40997,16.36792 -18.29526,21.6182 -30.75,23.9375 z"
       inkscape:connector-curvature="0"
       id="path7828"
       style="fill:#000000" />
    <path
       d="m 254.75,100.09375 c -0.48882,-5.63818 -2.4466,-9.749891 -5.38422,-12.687509 L 602.91917,440.95963 c 2.93762,2.93762 4.8954,7.04933 5.38422,12.68751 z"
       inkscape:connector-curvature="0"
       id="path7830"
       style="fill:#000000" />
    <path
       d="M 249.36578,87.406241 C 244.31933,82.359788 236.38128,80.778178 228.03125,80.875 l 353.55339,353.55339 c 8.35003,-0.0968 16.28808,1.48479 21.33453,6.53124 z"
       inkscape:connector-curvature="0"
       id="path7832"
       style="fill:#000000" />
    <path
       d="m 126.25,207.40625 c 14.81491,0.82759 28.75114,1.61051 44.28125,2.46875 l 353.55339,353.55339 c -15.53011,-0.85824 -29.46634,-1.64116 -44.28125,-2.46875 z"
       inkscape:connector-curvature="0"
       id="path7834"
       style="fill:#000000" />
    <path
       d="m 170.53125,209.875 c -5.7727,19.65785 -6.6102,38.67411 -18.65625,55.59375 l 353.55339,353.55339 c 12.04605,-16.91964 12.88355,-35.9359 18.65625,-55.59375 z"
       inkscape:connector-curvature="0"
       id="path7836"
       style="fill:#000000" />
    <path
       d="m 151.875,265.46875 c -12.67951,-11.66801 -24.14863,-22.21242 -36.5625,-33.625 l 353.55339,353.55339 c 12.41387,11.41258 23.88299,21.95699 36.5625,33.625 z"
       inkscape:connector-curvature="0"
       id="path7838"
       style="fill:#000000" />
    <path
       d="m 115.3125,231.84375 c 3.50449,-7.82636 7.20823,-16.10028 10.9375,-24.4375 l 353.55339,353.55339 c -3.72927,8.33722 -7.43301,16.61114 -10.9375,24.4375 z"
       inkscape:connector-curvature="0"
       id="path7840"
       style="fill:#000000" />
    <path
       d="m 246.46875,288.8125 c -5.20661,0.0833 -10.03047,1.4192 -14.125,4.75 l 353.55339,353.55339 c 4.09453,-3.3308 8.91839,-4.66667 14.125,-4.75 z"
       inkscape:connector-curvature="0"
       id="path7842"
       style="fill:#000000" />
    <path
       d="m 232.34375,293.5625 c -11.21846,9.12394 -1.28557,30.17453 0.0937,41.78125 l 353.55339,353.55339 c -1.37932,-11.60672 -11.31221,-32.65731 -0.0937,-41.78125 z"
       inkscape:connector-curvature="0"
       id="path7844"
       style="fill:#000000" />
    <path
       d="m 232.4375,335.34375 c 2.60538,21.86476 3.57173,43.81735 8.3125,65.40625 l 353.55339,353.55339 c -4.74077,-21.5889 -5.70712,-43.54149 -8.3125,-65.40625 z"
       inkscape:connector-curvature="0"
       id="path7846"
       style="fill:#000000" />
    <path
       d="m 240.75,400.75 c 1.79563,8.1732 8.28781,36.35351 19.24374,47.30945 L 613.54713,801.61284 C 602.5912,790.6569 596.09902,762.47659 594.30339,754.30339 z"
       inkscape:connector-curvature="0"
       id="path7848"
       style="fill:#000000" />
    <path
       d="m 259.99374,448.05945 c 5.3147,5.3147 11.67981,6.57616 19.06876,-0.4657 l 353.55339,353.55339 c -7.38895,7.04186 -13.75406,5.7804 -19.06876,0.4657 z"
       inkscape:connector-curvature="0"
       id="path7850"
       style="fill:#000000" />
    <path
       d="m 279.0625,447.59375 c 9.62458,-9.18524 6.35648,-24.09986 19.8125,-30.28125 l 353.55339,353.55339 c -13.45602,6.18139 -10.18792,21.09601 -19.8125,30.28125 z"
       inkscape:connector-curvature="0"
       id="path7852"
       style="fill:#000000" />
    <path
       d="m 298.875,417.3125 c 12.6693,-5.82379 28.56382,-1.91339 41.96875,-2.8125 l 353.55339,353.55339 c -13.40493,0.89911 -29.29945,-3.01129 -41.96875,2.8125 z"
       inkscape:connector-curvature="0"
       id="path7854"
       style="fill:#000000" />
    <path
       d="m 340.84375,414.5 c 9.59393,-0.64368 19.2396,-1.07571 28.84375,-1.21875 l 353.55339,353.55339 c -9.60415,0.14304 -19.24982,0.57507 -28.84375,1.21875 z"
       inkscape:connector-curvature="0"
       id="path7856"
       style="fill:#000000" />
    <path
       d="m 369.6875,413.28125 c 6.08944,-0.0817 12.17078,-0.0686 18.25,0.15625 l 353.55339,353.55339 c -6.07922,-0.22481 -12.16056,-0.23795 -18.25,-0.15625 z"
       inkscape:connector-curvature="0"
       id="path7858"
       style="fill:#000000" />
    <path
       d="m 387.9375,413.4375 c 13.77275,0.50064 27.77355,2.65899 41.25,-1.46875 l 353.55339,353.55339 c -13.47645,4.12774 -27.47725,1.96939 -41.25,1.46875 z"
       inkscape:connector-curvature="0"
       id="path7860"
       style="fill:#000000" />
    <path
       d="m 429.1875,411.96875 c 29.11896,-8.92981 -19.5547,-31.01885 2.71875,-43.1875 l 353.55339,353.55339 c -22.27345,12.16865 26.40021,34.25769 -2.71875,43.1875 z"
       inkscape:connector-curvature="0"
       id="path7862"
       style="fill:#000000" />
    <path
       d="m 431.90625,368.78125 c 13.65015,-7.45854 38.83495,-26.59049 36.25,-44.5625 l 353.55339,353.55339 c 2.58495,17.97201 -22.59985,37.10396 -36.25,44.5625 z"
       inkscape:connector-curvature="0"
       id="path7864"
       style="fill:#000000" />
    <path
       d="m 468.15625,324.21875 c -0.44819,-3.11837 -2.0492,-5.7941 -4.37176,-8.11665 l 353.55339,353.55339 c 2.32256,2.32255 3.92357,4.99828 4.37176,8.11665 z"
       inkscape:connector-curvature="0"
       id="path7866"
       style="fill:#000000" />
    <path
       d="m 463.78449,316.1021 c -7.68424,-7.68425 -23.26676,-11.50261 -31.12824,-14.69585 l 353.55339,353.55339 c 7.86148,3.19324 23.444,7.0116 31.12824,14.69585 z"
       inkscape:connector-curvature="0"
       id="path7868"
       style="fill:#000000" />
    <path
       d="m 432.65625,301.40625 -0.0625,0 353.55339,353.55339 0.0625,0 z"
       inkscape:connector-curvature="0"
       id="path7870"
       style="fill:#000000" />
    <path
       d="m 432.59375,301.40625 c -18.90177,-7.66288 -36.76995,-13.91548 -57.53125,-11.1875 l 353.55339,353.55339 c 20.7613,-2.72798 38.62948,3.52462 57.53125,11.1875 z"
       inkscape:connector-curvature="0"
       id="path7872"
       style="fill:#000000" />
    <path
       d="m 375.0625,290.21875 c -26.91205,3.5658 -53.27721,14.85368 -80.8125,11.09375 l 353.55339,353.55339 c 27.53529,3.75993 53.90045,-7.52795 80.8125,-11.09375 z"
       inkscape:connector-curvature="0"
       id="path7874"
       style="fill:#000000" />
    <path
       d="m 294.25,301.3125 c -13.11119,-1.79312 -32.16142,-12.75 -47.78125,-12.5 l 353.55339,353.55339 c 15.61983,-0.25 34.67006,10.70688 47.78125,12.5 z"
       inkscape:connector-curvature="0"
       id="path7876"
       style="fill:#000000" />
    <path
       d="m 374.40625,318.84375 c 2.81074,0.002 5.64234,0.13865 8.53125,0.4375 l 353.55339,353.55339 c -2.88891,-0.29885 -5.72051,-0.43573 -8.53125,-0.4375 z"
       inkscape:connector-curvature="0"
       id="path7878"
       style="fill:#000000" />
    <path
       d="m 382.9375,319.28125 c 1.77779,11.31042 15.17956,49.63094 -5.5,50.46875 l 353.55339,353.55339 c 20.67956,-0.83781 7.27779,-39.15833 5.5,-50.46875 z"
       inkscape:connector-curvature="0"
       id="path7880"
       style="fill:#000000" />
    <path
       d="m 377.4375,369.75 c -15.98989,0.64368 -29.29799,0.0116 -45.09375,4.875 l 353.55339,353.55339 c 15.79576,-4.86341 29.10386,-4.23132 45.09375,-4.875 z"
       inkscape:connector-curvature="0"
       id="path7882"
       style="fill:#000000" />
    <path
       d="m 332.34375,374.625 c -12.27083,3.77013 -29.15457,14.16083 -42.40625,9.59375 l 353.55339,353.55339 c 13.25168,4.56708 30.13542,-5.82362 42.40625,-9.59375 z"
       inkscape:connector-curvature="0"
       id="path7884"
       style="fill:#000000" />
    <path
       d="m 289.9375,384.21875 c -2.61942,-0.90008 -4.78426,-2.31203 -6.57949,-4.10726 L 636.9114,733.66488 c 1.79523,1.79523 3.96007,3.20718 6.57949,4.10726 z"
       inkscape:connector-curvature="0"
       id="path7886"
       style="fill:#000000" />
    <path
       d="m 283.35801,380.11149 c -9.7797,-9.7797 -8.59075,-30.93375 -10.17051,-42.67399 l 353.55339,353.55339 c 1.57976,11.74024 0.39081,32.89429 10.17051,42.67399 z"
       inkscape:connector-curvature="0"
       id="path7888"
       style="fill:#000000" />
    <path
       d="m 273.1875,337.4375 c 25.86989,3.61688 45.57407,-6.11247 65.90625,-12.40625 l 353.55339,353.55339 c -20.33218,6.29378 -40.03636,16.02313 -65.90625,12.40625 z"
       inkscape:connector-curvature="0"
       id="path7890"
       style="fill:#000000" />
    <path
       d="m 339.09375,325.03125 c 11.58883,-3.59453 23.13264,-6.19518 35.3125,-6.1875 l 353.55339,353.55339 c -12.17986,-0.008 -23.72367,2.59297 -35.3125,6.1875 z"
       inkscape:connector-curvature="0"
       id="path7892"
       style="fill:#000000" />
  </g>
  <path
     d="m 312.3125,59.53125 c -2.40928,0.0043 -4.83815,0.03125 -7.21875,0.03125 1.22606,0 -1.92664,37.966699 -2.4375,41.0625 -2.42147,14.53905 -6.78312,28.84207 -13.28125,42.09375 -17.6655,36.07685 -56.0799,65.65417 -63.90625,106.09375 -3.2695,16.87878 4.71189,28.90326 22.5,28.75 L 248,277.5 c 22.38584,-0.19412 40.38656,-16.59918 60.71875,-23.8125 20.68978,-7.33594 42.36186,-11.62034 63.5625,-17.25 16.82769,-4.47513 32.04812,-6.14942 46.25,5.9375 10.31935,8.7459 21.82386,24.40185 37.34375,19.375 13.84428,-4.47513 18.11098,-21.36618 13.125,-33.71875 -6.35508,-15.79575 -22.48506,-24.98246 -36.125,-33.6875 -16.04096,-10.21718 -29.42898,-24.66206 -45.53125,-34.5625 -12.61821,-7.77527 -16.48389,1.4701 -15.125,14.34375 1.61431,15.30533 11.17097,33.45318 -7.28125,40.125 -24.3884,8.80721 -49.84348,11.74863 -75.4375,13.8125 -3.73949,0.30651 -7.648,-1.12132 -13.09375,-2 -7.30528,-1.18519 27.72392,-53.53997 30.65625,-57.1875 12.98603,-16.09205 29.6768,-28.53598 43,-44.25 11.43302,-13.46624 16.68713,-33.11353 6.53125,-48.53125 C 346.23226,60.377178 329.17745,59.501077 312.3125,59.53125 z M 228.03125,80.875 c -9.03892,0.10481 -18.54705,2.188088 -25.375,3.96875 -31.21347,8.14309 -62.48715,15.050703 -94.90625,12.3125 -12.229962,-1.031935 -50.38001,-4.313245 -40.5,19.65625 7.100938,17.22616 59.75839,1.72793 52.71875,21.9375 -8.7459,25.12404 -17.75726,47.9639 -32,70.65625 -11.729319,18.69743 -24.696724,36.57723 -36.90625,54.9375 -5.118806,7.72418 -18.952136,26.41441 -1.5625,29.5 14.181441,2.5032 26.136278,-11.54437 35.25,-20.21875 15.88771,10.4726 26.36905,25.476 40.46875,39.71875 1.23628,1.25671 -43.515258,60.1774 -48.03125,66.0625 -6.998766,9.15459 -29.420194,30.11853 -20.53125,43.125 18.012883,26.31945 85.05647,-66.27679 92.75,-76.71875 13.93623,-18.82004 28.59673,-38.55893 36.21875,-60.25 6.60029,-18.78939 16.15889,-36.69762 28.03125,-52.6875 8.44961,-11.38194 24.97619,-25.87072 22.15625,-41.65625 -5.32315,-29.81373 -64.6267,3.97927 -80.71875,-7.21875 -12.34235,-8.59265 14.43954,-45.83344 18.8125,-54.375 2.23756,-4.35252 44.02475,-4.45964 50.09375,-5.59375 12.45474,-2.3193 32.15997,-7.56958 30.75,-23.9375 C 253.42145,84.7699 241.24197,80.721816 228.03125,80.875 z M 126.25,207.40625 c 14.81491,0.82759 28.75114,1.61051 44.28125,2.46875 -5.7727,19.65785 -6.6102,38.67411 -18.65625,55.59375 -12.67951,-11.66801 -24.14863,-22.21242 -36.5625,-33.625 3.50449,-7.82636 7.20823,-16.10028 10.9375,-24.4375 z m 120.21875,81.40625 c -5.20661,0.0833 -10.03047,1.4192 -14.125,4.75 -11.21846,9.12394 -1.28557,30.17453 0.0937,41.78125 2.60538,21.86476 3.57173,43.81735 8.3125,65.40625 2.66669,12.138 15.69167,68.40199 38.3125,46.84375 9.62458,-9.18524 6.35648,-24.09986 19.8125,-30.28125 12.6693,-5.82379 28.56382,-1.91339 41.96875,-2.8125 9.59393,-0.64368 19.2396,-1.07571 28.84375,-1.21875 6.08944,-0.0817 12.17078,-0.0686 18.25,0.15625 13.77275,0.50064 27.77355,2.65899 41.25,-1.46875 29.11896,-8.92981 -19.5547,-31.01885 2.71875,-43.1875 13.65015,-7.45854 38.83495,-26.59049 36.25,-44.5625 -1.93104,-13.43559 -25.26239,-18.65411 -35.5,-22.8125 l -0.0625,0 c -18.90177,-7.66288 -36.76995,-13.91548 -57.53125,-11.1875 -26.91205,3.5658 -53.27721,14.85368 -80.8125,11.09375 -13.11119,-1.79312 -32.16142,-12.75 -47.78125,-12.5 z m 127.9375,30.03125 c 2.81074,0.002 5.64234,0.13865 8.53125,0.4375 1.77779,11.31042 15.17956,49.63094 -5.5,50.46875 -15.98989,0.64368 -29.29799,0.0116 -45.09375,4.875 -12.27083,3.77013 -29.15457,14.16083 -42.40625,9.59375 -16.88899,-5.80336 -14.88025,-32.88589 -16.75,-46.78125 25.86989,3.61688 45.57407,-6.11247 65.90625,-12.40625 11.58883,-3.59453 23.13264,-6.19518 35.3125,-6.1875 z"
     inkscape:connector-curvature="0"
     id="path7532"
     style="fill:#666666" />
</svg>
