<?xml version="1.0" encoding="UTF-8" standalone="no"?>
<!-- Created with Inkscape (http://www.inkscape.org/) -->

<svg
   xmlns:dc="http://purl.org/dc/elements/1.1/"
   xmlns:cc="http://creativecommons.org/ns#"
   xmlns:rdf="http://www.w3.org/1999/02/22-rdf-syntax-ns#"
   xmlns:svg="http://www.w3.org/2000/svg"
   xmlns="http://www.w3.org/2000/svg"
   xmlns:inkscape="http://www.inkscape.org/namespaces/inkscape"
   version="1.1"
   width="100%"
   height="100%"
   viewBox="0 0 512 512"
   id="svg2">
  <metadata
     id="metadata2948">
    <rdf:RDF>
      <cc:Work
         rdf:about="">
        <dc:format>image/svg+xml</dc:format>
        <dc:type
           rdf:resource="http://purl.org/dc/dcmitype/StillImage" />
      </cc:Work>
    </rdf:RDF>
  </metadata>
  <defs
     id="defs2946" />
  <g
     transform="translate(-601.18,-346.04)"
     id="g46"
     style="line-height:125%;letter-spacing:0;word-spacing:0;font-family:Gentium Book Basic">
  </g>
  <g
     transform="translate(-599.52,-179.83)"
     id="g202"
     style="line-height:125%;letter-spacing:0;word-spacing:0;font-family:Gentium Book Basic">
  </g>
  <g
     transform="translate(-622.71,-189.38)"
     id="g358"
     style="line-height:125%;letter-spacing:0;word-spacing:0;font-family:Gentium Book Basic">
  </g>
  <g
     transform="translate(-622.71,-189.38)"
     id="g514"
     style="line-height:125%;letter-spacing:0;word-spacing:0;font-family:Gentium Book Basic">
  </g>
  <g
     transform="translate(-622.71,-189.38)"
     id="g562"
     style="line-height:125%;letter-spacing:0;word-spacing:0;font-family:Gentium Book Basic">
  </g>
  <g
     transform="translate(-622.71,-189.38)"
     id="g718"
     style="line-height:125%;letter-spacing:0;word-spacing:0;font-family:Gentium Book Basic">
  </g>
  <g
     transform="translate(-622.71,-189.38)"
     id="g874"
     style="line-height:125%;letter-spacing:0;word-spacing:0;font-family:Gentium Book Basic">
  </g>
  <g
     transform="translate(-622.71,-189.38)"
     id="g922"
     style="line-height:125%;letter-spacing:0;word-spacing:0;font-family:Gentium Book Basic">
  </g>
  <g
     transform="translate(-620.97,-226.09)"
     id="g1078"
     style="line-height:125%;letter-spacing:0;word-spacing:0;font-family:Gentium Book Basic">
  </g>
  <g
     transform="translate(-620.97,-226.09)"
     id="g1234"
     style="line-height:125%;letter-spacing:0;word-spacing:0;font-family:Gentium Book Basic">
  </g>
  <g
     transform="translate(-620.97,-226.09)"
     id="g1282"
     style="line-height:125%;letter-spacing:0;word-spacing:0;font-family:Gentium Book Basic">
  </g>
  <g
     transform="translate(-620.97,-226.09)"
     id="g1438"
     style="line-height:125%;letter-spacing:0;word-spacing:0;font-family:Gentium Book Basic">
  </g>
  <g
     transform="translate(-620.97,-226.09)"
     id="g1594"
     style="line-height:125%;letter-spacing:0;word-spacing:0;font-family:Gentium Book Basic">
  </g>
  <g
     transform="translate(-620.97,-226.09)"
     id="g1642"
     style="line-height:125%;letter-spacing:0;word-spacing:0;font-family:Gentium Book Basic">
  </g>
  <g
     id="g1798"
     style="font-size:208.33000183px;line-height:125%;letter-spacing:0;word-spacing:0;font-family:Gentium Book Basic">
  </g>
  <g
     id="g1852"
     style="line-height:125%;letter-spacing:0;word-spacing:0;font-family:Gentium Book Basic">
  </g>
  <g
     transform="translate(-784.03,59.875)"
     id="g1900"
     style="line-height:125%;letter-spacing:0;word-spacing:0;font-family:Gentium Book Basic">
  </g>
  <g
     transform="translate(-784.03,59.875)"
     id="g2056"
     style="line-height:125%;letter-spacing:0;word-spacing:0;font-family:Gentium Book Basic">
  </g>
  <g
     transform="translate(-784.03,59.875)"
     id="g2104"
     style="line-height:125%;letter-spacing:0;word-spacing:0;font-family:Gentium Book Basic">
  </g>
  <g
     transform="translate(-1058.75,-485.41)"
     id="g2260"
     style="line-height:125%;letter-spacing:0;word-spacing:0;font-family:Gentium Book Basic">
  </g>
  <g
     transform="translate(-1058.75,-485.41)"
     id="g2416"
     style="line-height:125%;letter-spacing:0;word-spacing:0;font-family:Gentium Book Basic">
  </g>
  <g
     transform="translate(-1058.75,-485.41)"
     id="g2464"
     style="line-height:125%;letter-spacing:0;word-spacing:0;font-family:Gentium Book Basic">
  </g>
  <rect
     width="512"
     height="512"
     rx="26.26"
     x="0"
     y="0"
     id="rect2578"
     style="fill:none" />
  <g
     transform="translate(-697.28,-4.243)"
     id="g2622"
     style="line-height:125%;letter-spacing:0;word-spacing:0;font-family:Gentium Book Basic">
  </g>
  <path
     d="m 309.16,62.03 c -18.12,0.115 -36.33,0.886 -54.34,0.281 H 167.7 c -26.636,1.655 -20.649,31.958 -21.19,50.5 1.688,14.664 1.596,27.563 -16.781,22.16 -11.03,1.883 -32.554,-6.748 -27.06,11.656 l -56.12,2.625 c 1.738,10.475 -4.421,28.423 5.03,31.594 4.04,6.523 11.07,10.209 15.13,16.719 6.601,4.158 10.258,11.11 16.875,15.25 4.04,6.53 11.07,10.234 15.13,16.75 12.933,8.733 -6.39,12.931 -17,10.969 -10.59,3.02 -31.465,-3.762 -35.16,5.844 0.649,11.197 -3.167,26.607 6.688,29.09 4.111,6.468 11.1,10.225 15.188,16.719 6.576,4.171 10.262,11.09 16.813,15.281 4.105,6.476 11.08,10.218 15.16,16.719 10.634,12.532 -9.783,13.942 -20.813,12.906 -10,3.583 -33.09,-5.313 -33.03,7.875 -0.668,12.265 -0.971,24.15 6.688,28.531 47.42,47.42 93.53,93.09 139.34,138.5 h 293.19 c 14.547,0 26.25,-11.703 26.25,-26.25 v -290 c -0.717,-0.864 -1.393,-1.783 -2,-2.75 -6.576,-4.171 -10.293,-11.06 -16.844,-15.25 -4.105,-6.476 -11.07,-10.222 -15.16,-16.719 -7.614,-3.911 -8.6,-14.222 -22.25,-12.25 -15.711,3.577 -24.476,-8.605 -34.19,-18.688 -22.76,-21.716 -43.561,-45.856 -67.69,-65.875 -12.199,-1.587 -24.542,-2.111 -36.938,-2.188 h -0.031 c -2.585,-0.016 -5.161,-0.016 -7.75,0"
     inkscape:connector-curvature="0"
     id="path2736"
     style="fill-opacity:0.0" />
  <g
     transform="translate(-697.28,-4.243)"
     id="g2780"
     style="line-height:125%;letter-spacing:0;word-spacing:0;font-family:Gentium Book Basic">
  </g>
  <g
     transform="translate(-697.28,-4.243)"
     id="g2828"
     style="line-height:125%;letter-spacing:0;word-spacing:0;font-family:Gentium Book Basic">
  </g>
  <path
     d="m 167.25,62.02 c -11.67,0 -21.14,9.511 -21.14,21.19 v 51.52 h -43.893 v 11.674 l -56.07,2.62 v 28.13 l 56.07,2.62 v 15.167 h 43.893 v 32.725 h -43.893 v 11.674 l -56.07,2.62 v 28.13 l 56.07,2.62 v 15.167 h 43.893 v 36.22 h -43.893 v 11.72 l -56.07,2.574 v 28.17 l 56.07,2.574 v 15.213 h 43.893 v 44.491 c 0,11.685 9.472,21.14 21.14,21.14 h 177.46 c 11.663,0 21.14,-9.458 21.14,-21.14 v -44.491 h 43.893 v -15.213 l 56.12,-2.574 v -28.17 l -56.12,-2.574 v -11.72 H 365.85 v -36.22 h 43.893 V 272.71 l 56.12,-2.62 v -28.13 l -56.12,-2.62 V 227.666 H 365.85 v -32.725 h 43.893 v -15.167 l 56.12,-2.62 v -28.13 l -56.12,-2.62 V 134.73 H 365.85 V 83.21 c 0,-11.67 -9.479,-21.19 -21.14,-21.19 H 167.25 m 17.741,27.669 c 7.581,0 13.743,6.155 13.743,13.743 0,7.581 -6.169,13.743 -13.743,13.743 -7.574,0 -13.743,-6.162 -13.743,-13.743 0,-7.588 6.162,-13.743 13.743,-13.743"
     inkscape:connector-curvature="0"
     id="path2942"
     style="fill:#ffffff" />
</svg>
