<?xml version="1.0" encoding="UTF-8" standalone="no"?>
<svg
   xmlns:dc="http://purl.org/dc/elements/1.1/"
   xmlns:cc="http://creativecommons.org/ns#"
   xmlns:rdf="http://www.w3.org/1999/02/22-rdf-syntax-ns#"
   xmlns:svg="http://www.w3.org/2000/svg"
   xmlns="http://www.w3.org/2000/svg"
   xmlns:sodipodi="http://sodipodi.sourceforge.net/DTD/sodipodi-0.dtd"
   xmlns:inkscape="http://www.inkscape.org/namespaces/inkscape"
   sodipodi:docname="audacious-panel.svg"
   height="100%"
   width="100%"
   inkscape:version="0.48.5 r10040"
   version="1.1"
   id="svg2"
   viewBox="0 0 512 512">
  <sodipodi:namedview
     pagecolor="#666666"
     bordercolor="#666666"
     borderopacity="1"
     objecttolerance="10"
     gridtolerance="10"
     guidetolerance="10"
     inkscape:pageopacity="0"
     inkscape:pageshadow="2"
     inkscape:window-width="1307"
     inkscape:window-height="748"
     id="namedview6"
     showgrid="false"
     showguides="true"
     inkscape:guide-bbox="true"
     inkscape:zoom="0.4609375"
     inkscape:cx="219.09094"
     inkscape:cy="214.6848"
     inkscape:window-x="57"
     inkscape:window-y="-3"
     inkscape:window-maximized="1"
     inkscape:current-layer="svg2">
    <sodipodi:guide
       orientation="0,1"
       position="260.08346,471.00503"
       id="guide2989" />
    <sodipodi:guide
       orientation="0,1"
       position="267.59322,40.983051"
       id="guide2991" />
    <sodipodi:guide
       orientation="1,0"
       position="40.940284,84.756935"
       id="guide2993" />
    <sodipodi:guide
       orientation="1,0"
       position="471.05085,254.98305"
       id="guide2995" />
  </sodipodi:namedview>
  <metadata
     id="metadata10">
    <rdf:RDF>
      <cc:Work
         rdf:about="">
        <dc:format>image/svg+xml</dc:format>
        <dc:type
           rdf:resource="http://purl.org/dc/dcmitype/StillImage" />
        <dc:title></dc:title>
      </cc:Work>
    </rdf:RDF>
  </metadata>
  <defs
     id="defs8">
    <clipPath
       id="clipPath3157"
       clipPathUnits="userSpaceOnUse">
      <path
         inkscape:connector-curvature="0"
         id="path3159"
         d="M 26,0 C 11.602648,0 0,11.602648 0,26 l 0,460 c 0,14.39735 11.602648,26 26,26 l 460,0 c 14.39735,0 26,-11.60265 26,-26 L 512,26 C 512,11.602648 500.39735,0 486,0 L 26,0 z"
         style="fill:none;fill-opacity:1;stroke:none" />
    </clipPath>
    <clipPath
       clipPathUnits="userSpaceOnUse"
       id="clipPath3408">
      <path
         id="path3410"
         d="M 26,0 C 11.602648,0 0,11.602648 0,26 l 0,460 c 0,14.39735 11.602648,26 26,26 l 460,0 c 14.39735,0 26,-11.60265 26,-26 L 512,26 C 512,11.602648 500.39735,0 486,0 L 26,0 z"
         style="fill:none;fill-opacity:1;stroke:none"
         inkscape:connector-curvature="0" />
    </clipPath>
  </defs>
  <path
     style="fill:none;fill-opacity:1;stroke:none"
     d="M 26 0 C 11.602648 0 0 11.602648 0 26 L 0 486 C 0 500.39735 11.602648 512 26 512 L 486 512 C 500.39735 512 512 500.39735 512 486 L 512 26 C 512 11.602648 500.39735 0 486 0 L 26 0 z "
     id="rect2986" />
  <g
     style="fill:#000000;opacity:0.0"
     id="g3233"
     clip-path="url(#clipPath3408)">
    <path
       inkscape:connector-curvature="0"
       d="m 155.375,41.025669 c -5.34966,0.238554 -10.68099,2.605692 -14.59375,7.9375 L 529.68998,437.8719 c 3.91276,-5.33181 9.24409,-7.69895 14.59375,-7.9375 z"
       id="path3235"
       style="fill:#000000" />
    <path
       inkscape:connector-curvature="0"
       d="M 140.78125,48.963169 C 128.87563,65.184036 125.59773,82.759668 130.6875,102.18192 l 388.90873,388.90873 c -5.08977,-19.42225 -1.81187,-36.99788 10.09375,-53.21875 z"
       id="path3237"
       style="fill:#000000" />
    <path
       inkscape:connector-curvature="0"
       d="m 130.6875,102.18192 c 5.016,19.13458 19.03192,33.93265 11.90625,54.46875 L 531.50248,545.5594 c 7.12567,-20.5361 -6.89025,-35.33417 -11.90625,-54.46875 z"
       id="path3239"
       style="fill:#000000" />
    <path
       inkscape:connector-curvature="0"
       d="m 142.59375,156.65067 c -2.46526,7.10507 -0.61076,12.92416 3.32737,16.8623 L 534.82985,562.4217 c -3.93813,-3.93814 -5.79263,-9.75723 -3.32737,-16.8623 z"
       id="path3241"
       style="fill:#000000" />
    <path
       inkscape:connector-curvature="0"
       d="m 145.92112,173.51297 c 8.55244,8.55243 26.93184,8.23378 32.23513,-7.0498 L 567.06498,555.3719 c -5.30329,15.28358 -23.68269,15.60223 -32.23513,7.0498 z"
       id="path3243"
       style="fill:#000000" />
    <path
       inkscape:connector-curvature="0"
       d="m 178.15625,166.46317 c 5.90118,-17.01015 4.32204,-33.54269 -2.125,-50.125 L 564.93998,505.2469 c 6.44704,16.58231 8.02618,33.11485 2.125,50.125 z"
       id="path3245"
       style="fill:#000000" />
    <path
       inkscape:connector-curvature="0"
       d="M 176.03125,116.33817 C 168.86132,97.919108 159.43587,85.557258 172.625,67.588169 L 561.53373,456.4969 c -13.18913,17.96909 -3.76368,30.33094 3.40625,48.75 z"
       id="path3247"
       style="fill:#000000" />
    <path
       inkscape:connector-curvature="0"
       d="m 172.625,67.588169 c 5.67003,-7.72619 3.8731,-15.314627 -1.20522,-20.392948 L 560.32851,436.10395 c 5.07832,5.07832 6.87525,12.66676 1.20522,20.39295 z"
       id="path3249"
       style="fill:#000000" />
    <path
       inkscape:connector-curvature="0"
       d="M 171.41978,47.195221 C 167.42361,43.199047 161.39551,40.7572 155.375,41.025669 L 544.28373,429.9344 c 6.02051,-0.26847 12.04861,2.17338 16.04478,6.16955 z"
       id="path3251"
       style="fill:#000000" />
    <path
       inkscape:connector-curvature="0"
       d="m 221.78125,41.025669 c -5.34966,0.238554 -10.71224,2.605692 -14.625,7.9375 L 596.06498,437.8719 c 3.91276,-5.33181 9.27534,-7.69895 14.625,-7.9375 z"
       id="path3253"
       style="fill:#000000" />
    <path
       inkscape:connector-curvature="0"
       d="M 207.15625,48.963169 C 195.25062,65.184036 191.97274,82.759668 197.0625,102.18192 l 388.90873,388.90873 c -5.08976,-19.42225 -1.81188,-36.99788 10.09375,-53.21875 z"
       id="path3255"
       style="fill:#000000" />
    <path
       inkscape:connector-curvature="0"
       d="m 197.0625,102.18192 c 5.01601,19.13458 19.06317,33.93265 11.9375,54.46875 L 597.90873,545.5594 c 7.12567,-20.5361 -6.92149,-35.33417 -11.9375,-54.46875 z"
       id="path3257"
       style="fill:#000000" />
    <path
       inkscape:connector-curvature="0"
       d="m 209,156.65067 c -2.46526,7.10507 -0.61077,12.92416 3.32737,16.8623 L 601.2361,562.4217 c -3.93814,-3.93814 -5.79264,-9.75723 -3.32737,-16.8623 z"
       id="path3259"
       style="fill:#000000" />
    <path
       inkscape:connector-curvature="0"
       d="m 212.32737,173.51297 c 8.55243,8.55243 26.93184,8.23378 32.23513,-7.0498 L 633.47123,555.3719 c -5.30329,15.28358 -23.6827,15.60223 -32.23513,7.0498 z"
       id="path3261"
       style="fill:#000000" />
    <path
       inkscape:connector-curvature="0"
       d="m 244.5625,166.46317 c 5.90118,-17.01015 4.29079,-33.54269 -2.15625,-50.125 L 631.31498,505.2469 c 6.44704,16.58231 8.05743,33.11485 2.15625,50.125 z"
       id="path3263"
       style="fill:#000000" />
    <path
       inkscape:connector-curvature="0"
       d="M 242.40625,116.33817 C 235.23632,97.919108 225.81086,85.557258 239,67.588169 L 627.90873,456.4969 c -13.18914,17.96909 -3.76368,30.33094 3.40625,48.75 z"
       id="path3265"
       style="fill:#000000" />
    <path
       inkscape:connector-curvature="0"
       d="m 239,67.588169 c 5.67425,-7.731939 3.88023,-15.32592 -1.19813,-20.40428 L 626.7106,436.09262 c 5.07836,5.07836 6.87238,12.67234 1.19813,20.40428 z"
       id="path3267"
       style="fill:#000000" />
    <path
       inkscape:connector-curvature="0"
       d="m 237.80187,47.183889 c -3.98946,-3.989458 -10.0058,-6.426435 -16.02062,-6.15822 L 610.68998,429.9344 c 6.01482,-0.26822 12.03116,2.16876 16.02062,6.15822 z"
       id="path3269"
       style="fill:#000000" />
    <path
       inkscape:connector-curvature="0"
       d="m 288.15625,41.025669 c -5.34966,0.238554 -10.68099,2.605692 -14.59375,7.9375 L 662.47123,437.8719 c 3.91276,-5.33181 9.24409,-7.69895 14.59375,-7.9375 z"
       id="path3271"
       style="fill:#000000" />
    <path
       inkscape:connector-curvature="0"
       d="M 273.5625,48.963169 C 261.65687,65.184036 258.37898,82.759668 263.46875,102.18192 L 652.37748,491.09065 C 647.28771,471.6684 650.5656,454.09277 662.47123,437.8719 z"
       id="path3273"
       style="fill:#000000" />
    <path
       inkscape:connector-curvature="0"
       d="m 263.46875,102.18192 c 5.016,19.13458 19.03193,33.93265 11.90625,54.46875 L 664.28373,545.5594 c 7.12568,-20.5361 -6.89025,-35.33417 -11.90625,-54.46875 z"
       id="path3275"
       style="fill:#000000" />
    <path
       inkscape:connector-curvature="0"
       d="m 275.375,156.65067 c -2.46526,7.10507 -0.61076,12.92416 3.32737,16.8623 L 667.6111,562.4217 c -3.93813,-3.93814 -5.79263,-9.75723 -3.32737,-16.8623 z"
       id="path3277"
       style="fill:#000000" />
    <path
       inkscape:connector-curvature="0"
       d="m 278.70237,173.51297 c 8.55244,8.55243 26.93184,8.23378 32.23513,-7.0498 L 699.84623,555.3719 c -5.30329,15.28358 -23.68269,15.60223 -32.23513,7.0498 z"
       id="path3279"
       style="fill:#000000" />
    <path
       inkscape:connector-curvature="0"
       d="m 310.9375,166.46317 c 5.90117,-17.01015 4.32204,-33.54269 -2.125,-50.125 L 697.72123,505.2469 c 6.44704,16.58231 8.02617,33.11485 2.125,50.125 z"
       id="path3281"
       style="fill:#000000" />
    <path
       inkscape:connector-curvature="0"
       d="M 308.8125,116.33817 C 301.64257,97.919108 292.21711,85.557258 305.40625,67.588169 L 694.31498,456.4969 c -13.18914,17.96909 -3.76368,30.33094 3.40625,48.75 z"
       id="path3283"
       style="fill:#000000" />
    <path
       inkscape:connector-curvature="0"
       d="m 305.40625,67.588169 c 5.67003,-7.72619 3.8731,-15.314627 -1.20522,-20.392948 L 693.10976,436.10395 c 5.07832,5.07832 6.87525,12.66676 1.20522,20.39295 z"
       id="path3285"
       style="fill:#000000" />
    <path
       inkscape:connector-curvature="0"
       d="M 304.20103,47.195221 C 300.20486,43.199047 294.17676,40.7572 288.15625,41.025669 L 677.06498,429.9344 c 6.02051,-0.26847 12.04861,2.17338 16.04478,6.16955 z"
       id="path3287"
       style="fill:#000000" />
    <path
       inkscape:connector-curvature="0"
       d="m 47.90625,202.11942 c 0,71.24497 -0.0024,172.15721 55.73455,227.89413 L 492.54952,818.92228 C 436.8126,763.18536 436.81498,662.27311 436.81498,591.02815 z"
       id="path3289"
       style="fill:#000000" />
    <path
       inkscape:connector-curvature="0"
       d="m 103.6408,430.01355 c 25.05457,25.05458 61.37204,40.98087 114.01545,40.98087 l 388.90873,388.90873 c -52.64341,0 -88.96088,-15.92629 -114.01546,-40.98087 z"
       id="path3291"
       style="fill:#000000" />
    <path
       inkscape:connector-curvature="0"
       d="m 217.65625,470.99442 c 79.24546,0 121.47225,-36.0992 144,-85.09375 L 750.56498,774.8094 c -22.52775,48.99455 -64.75454,85.09375 -144,85.09375 z"
       id="path3293"
       style="fill:#000000" />
    <path
       inkscape:connector-curvature="0"
       d="m 361.65625,385.90067 c 72.79105,-3.06123 102.4375,-35.56806 102.4375,-75.3125 L 853.00248,699.4969 c 0,39.74444 -29.64645,72.25127 -102.4375,75.3125 z"
       id="path3295"
       style="fill:#000000" />
    <path
       inkscape:connector-curvature="0"
       d="m 464.09375,310.58817 c 0,-17.62393 -5.84179,-33.82672 -18.68682,-46.67175 l 388.90873,388.90873 c 12.84503,12.84503 18.68682,29.04782 18.68682,46.67175 z"
       id="path3297"
       style="fill:#000000" />
    <path
       inkscape:connector-curvature="0"
       d="M 445.40693,263.91642 C 432.94048,251.44997 413.8775,242.14626 387.15625,237.77567 L 776.06498,626.6844 c 26.72125,4.37059 45.78423,13.67429 58.25068,26.14075 z"
       id="path3299"
       style="fill:#000000" />
    <path
       inkscape:connector-curvature="0"
       d="m 387.15625,237.77567 c 0.2213,-12.42198 0.25,-24.4145 0.25,-35.65625 l 388.90873,388.90873 c 0,11.24175 -0.0287,23.23427 -0.25,35.65625 z"
       id="path3301"
       style="fill:#000000" />
    <path
       inkscape:connector-curvature="0"
       d="m 387.40625,202.11942 -339.5,0 388.90873,388.90873 339.5,0 z"
       id="path3303"
       style="fill:#000000" />
    <path
       inkscape:connector-curvature="0"
       d="m 385.9375,271.11942 c 11.843,2.9415 19.87011,7.18782 25.17847,12.49617 L 800.0247,672.52432 c -5.30836,-5.30835 -13.33547,-9.55467 -25.17847,-12.49617 z"
       id="path3305"
       style="fill:#000000" />
    <path
       inkscape:connector-curvature="0"
       d="m 411.11597,283.61559 c 7.40451,7.40452 9.51916,16.87542 9.32153,27.75383 l 388.90873,388.90873 c 0.19763,-10.87841 -1.91702,-20.34932 -9.32153,-27.75383 z"
       id="path3307"
       style="fill:#000000" />
    <path
       inkscape:connector-curvature="0"
       d="m 420.4375,311.36942 c -0.38358,21.259 -8.25044,35.71321 -46.71875,40.90625 L 762.62748,741.1844 c 38.46831,-5.19304 46.33517,-19.64725 46.71875,-40.90625 z"
       id="path3309"
       style="fill:#000000" />
    <path
       inkscape:connector-curvature="0"
       d="m 373.71875,352.27567 c 7.19206,-26.09059 10.61068,-54.02557 12.21875,-81.15625 l 388.90873,388.90873 c -1.60807,27.13068 -5.02669,55.06566 -12.21875,81.15625 z"
       id="path3311"
       style="fill:#000000" />
  </g>
  <path
     style="fill:#666666"
     d="m 155.375,41.025669 c -5.34966,0.238554 -10.68099,2.605692 -14.59375,7.9375 -11.90562,16.220867 -15.18352,33.796499 -10.09375,53.218751 5.016,19.13458 19.03192,33.93265 11.90625,54.46875 -7.81906,22.53513 27.8172,32.13371 35.5625,9.8125 5.90118,-17.01015 4.32204,-33.54269 -2.125,-50.125 -7.16993,-18.419062 -16.59538,-30.780912 -3.40625,-48.750001 10.13182,-13.805994 -3.57865,-27.172139 -17.25,-26.5625 z m 66.40625,0 c -5.34966,0.238554 -10.71224,2.605692 -14.625,7.9375 -11.90563,16.220867 -15.18351,33.796499 -10.09375,53.218751 5.01601,19.13458 19.06317,33.93265 11.9375,54.46875 -7.81907,22.53513 27.8172,32.13371 35.5625,9.8125 5.90118,-17.01015 4.29079,-33.54269 -2.15625,-50.125 C 235.23632,97.919108 225.81086,85.557258 239,67.588169 249.13182,53.782175 235.4526,40.41603 221.78125,41.025669 z m 66.375,0 c -5.34966,0.238554 -10.68099,2.605692 -14.59375,7.9375 -11.90563,16.220867 -15.18352,33.796499 -10.09375,53.218751 5.016,19.13458 19.03193,33.93265 11.90625,54.46875 -7.81906,22.53513 27.8172,32.13371 35.5625,9.8125 5.90117,-17.01015 4.32204,-33.54269 -2.125,-50.125 -7.16993,-18.419062 -16.59539,-30.780912 -3.40625,-48.750001 10.13182,-13.805994 -3.57865,-27.172139 -17.25,-26.5625 z m -240.25,161.093751 c 0,103.27064 -0.005,268.875 169.75,268.875 79.24546,0 121.47225,-36.0992 144,-85.09375 72.79105,-3.06123 102.4375,-35.56806 102.4375,-75.3125 0,-34.72844 -22.68353,-63.9386 -76.9375,-72.8125 0.2213,-12.42198 0.25,-24.4145 0.25,-35.65625 l -339.5,0 z m 338.03125,69 c 28.36254,7.04454 34.83932,21.57277 34.5,40.25 -0.38358,21.259 -8.25044,35.71321 -46.71875,40.90625 7.19206,-26.09059 10.61068,-54.02557 12.21875,-81.15625 z"
     id="path3189"
     inkscape:connector-curvature="0" />
</svg>
