<?xml version="1.0" encoding="UTF-8" standalone="no"?>
<!-- Created with Inkscape (http://www.inkscape.org/) -->

<svg
   xmlns:dc="http://purl.org/dc/elements/1.1/"
   xmlns:cc="http://creativecommons.org/ns#"
   xmlns:rdf="http://www.w3.org/1999/02/22-rdf-syntax-ns#"
   xmlns:svg="http://www.w3.org/2000/svg"
   xmlns="http://www.w3.org/2000/svg"
   xmlns:inkscape="http://www.inkscape.org/namespaces/inkscape"
   version="1.1"
   width="100%"
   height="100%"
   viewBox="0 0 512 512"
   id="svg2">
  <metadata
     id="metadata340">
    <rdf:RDF>
      <cc:Work
         rdf:about="">
        <dc:format>image/svg+xml</dc:format>
        <dc:type
           rdf:resource="http://purl.org/dc/dcmitype/StillImage" />
      </cc:Work>
    </rdf:RDF>
  </metadata>
  <defs
     id="defs338" />
  <rect
     width="512"
     height="512"
     rx="25.988001"
     x="0"
     y="0"
     id="rect4"
     style="fill:none" />
  <path
     d="m 118.59,42.28 c -30.71,0.923 -50.825,32.772 -46,61.813 0.179,108.5 -0.317,217.05 0.313,325.53 4.479,30.21 34.18,45.918 52.38,67.75 4.902,4.872 9.791,9.747 14.688,14.625 h 346.03 c 14.397,0 26,-11.603 26,-26 V 234.058 L 320.221,42.278 h -198.59 c -1.012,-0.036 -2.039,-0.03 -3.03,0 m 342.38,64.41 4.875,0.719 -4.875,-0.719 m 19.16,14.969 4.688,1.219 -4.688,-1.219"
     inkscape:connector-curvature="0"
     id="path52"
     style="fill-opacity:0.0" />
  <g
     transform="matrix(1.55732,0,0,1.55732,906.38,-12.593)"
     id="g102">
    <path
       d="m -504.38,34.06 c -17.422,0 -31.469,14.02 -31.469,31.438 v 213.94 c 0,17.422 14.05,31.438 31.469,31.438 h 173.5 c 17.422,0 31.469,-14.02 31.469,-31.438 v -167.94 l -77.44,-77.44 h -127.53 m 84.5,86.38 c 4.738,10e-4 9.492,0.189 11.375,0.563 1.591,0.315 3.041,0.55 3.219,0.531 0.178,-0.018 2.416,0.51 4.969,1.156 4.196,1.062 6,1.629 11.438,3.656 6.06,2.258 16.387,8.293 19.406,11.313 l 1.656,1.656 8.25,-8.25 c 6.247,-6.247 8.454,-8.271 9.125,-8.375 0.487,-0.076 1.471,0.323 2.188,0.875 1.036,0.798 1.445,1.542 2.063,3.594 l 11.844,59.28 c 2.185,9.611 2.212,10.256 0.438,12.03 -1.494,1.494 -2.842,1.662 -6.094,0.75 -24.688,-4.904 -42.18,-8.382 -65.09,-12.906 -2.215,-0.609 -2.853,-0.959 -3.719,-2.094 -0.572,-0.75 -0.982,-1.763 -0.906,-2.25 0.105,-0.676 2.277,-3.03 9.09,-9.844 l 8.906,-8.906 -1.375,-1.094 c -1.253,-0.956 -5.128,-2.964 -9.09,-4.75 -0.782,-0.352 -1.98,-0.759 -2.688,-0.906 -0.707,-0.147 -1.408,-0.408 -1.563,-0.563 -0.154,-0.154 -0.618,-0.299 -1.031,-0.313 -0.413,-0.013 -2.286,-0.322 -4.156,-0.688 -3.465,-0.678 -10.928,-0.978 -11.438,-0.469 -0.154,0.154 -0.411,0.152 -0.563,0 -0.253,-0.253 -5.683,0.501 -7.906,1.094 -3.213,0.856 -9.938,3.357 -10.5,3.906 -0.204,0.2 -1.139,0.741 -2.063,1.188 -2.172,1.05 -8.251,5.621 -10.5,7.906 -5.106,5.188 -10.118,13.557 -11.875,19.844 -0.315,1.125 -0.668,2.474 -0.813,2.969 -0.645,2.206 -1.364,8.846 -1.313,12.188 0.053,3.41 0.719,9.04 1.313,11.125 0.142,0.498 0.498,1.812 0.813,2.938 1.348,4.82 4.761,11.177 8.719,16.219 5.376,6.847 15.25,13.537 23.281,15.781 1.125,0.315 2.442,0.699 2.938,0.844 4.241,1.241 13.934,1.744 18.16,0.938 1.208,-0.231 2.853,-0.484 3.656,-0.563 1.246,-0.122 8.11,-2.358 10.656,-3.469 3.407,-1.486 9.911,-5.867 12.406,-8.344 1.593,-1.581 3.255,-2.354 4.813,-2.219 0.997,0.084 2.061,1.061 11.281,10.281 9.614,9.617 10.187,10.252 10.344,11.469 l 0.156,1.313 -4.813,4.656 c -6.215,6.04 -11.57,9.631 -20.813,13.969 -2.415,1.134 -12.481,4.558 -15.563,5.281 -4.658,1.094 -13.842,2.136 -18.656,2.125 -4.969,-0.011 -11.137,-0.667 -16.531,-1.75 -3.252,-0.654 -12.515,-3.527 -15.313,-4.75 -6.151,-2.691 -9.924,-4.727 -15.06,-8.188 v -0.031 c -2.867,-1.931 -4.77,-3.65 -10.969,-9.813 -6.857,-6.817 -7.778,-7.824 -10.375,-11.719 -3.473,-5.21 -5.536,-8.914 -7.75,-13.938 -1.252,-2.843 -4.541,-13.14 -4.688,-14.656 -0.047,-0.487 -0.261,-1.409 -0.469,-2.031 -0.603,-1.803 -1.512,-10.575 -1.563,-15.188 -0.073,-6.737 0.99,-15.392 2.594,-21.375 0.396,-1.478 3.556,-10.801 4.125,-12.156 1.371,-3.273 2.318,-5.224 2.688,-5.594 0.238,-0.236 0.988,-1.489 1.656,-2.781 2.944,-5.695 5.874,-9.393 13.469,-17 6.116,-6.122 7.787,-7.621 11.156,-9.938 3.807,-2.617 13.303,-7.807 15.719,-8.594 0.638,-0.207 2.889,-0.99 5,-1.719 3.823,-1.32 11.05,-3.263 11.75,-3.156 0.204,0.031 1.656,-0.181 3.25,-0.5 1.862,-0.373 6.606,-0.564 11.344,-0.563"
       inkscape:connector-curvature="0"
       id="path104"
       style="fill:#666666" />
    <path
       d="m -376.85,34.06 c 0.342,17.512 -0.744,35.12 0.688,52.56 3.969,16 19.369,24.787 29.531,36.688 15.748,15.732 31.479,31.479 47.22,47.22 v -59.03 l -77.44,-77.44"
       inkscape:connector-curvature="0"
       id="path106"
       style="fill-opacity:0.0" />
    <path
       d="m -299.41,111.5 -77.44,-77.44 v 46 c 0,17.422 14.05,31.438 31.469,31.438 h 45.969"
       inkscape:connector-curvature="0"
       id="path108"
       style="fill:none" />
  </g>
  <g
     id="g152"
     style="line-height:125%;letter-spacing:0;word-spacing:0;font-family:Gentium Book Basic">
  </g>
  <g
     id="g200"
     style="font-size:208.33000183px;line-height:125%;letter-spacing:0;word-spacing:0;font-family:Gentium Book Basic">
  </g>
</svg>
