<?xml version="1.0" encoding="UTF-8" standalone="no"?>
<!-- Created with Inkscape (http://www.inkscape.org/) -->

<svg
   xmlns:dc="http://purl.org/dc/elements/1.1/"
   xmlns:cc="http://creativecommons.org/ns#"
   xmlns:rdf="http://www.w3.org/1999/02/22-rdf-syntax-ns#"
   xmlns:svg="http://www.w3.org/2000/svg"
   xmlns="http://www.w3.org/2000/svg"
   xmlns:inkscape="http://www.inkscape.org/namespaces/inkscape"
   version="1.1"
   width="100%"
   height="100%"
   viewBox="0 0 512 512"
   id="svg2">
  <metadata
     id="metadata156">
    <rdf:RDF>
      <cc:Work
         rdf:about="">
        <dc:format>image/svg+xml</dc:format>
        <dc:type
           rdf:resource="http://purl.org/dc/dcmitype/StillImage" />
      </cc:Work>
    </rdf:RDF>
  </metadata>
  <defs
     id="defs154" />
  <rect
     width="512"
     height="512"
     rx="25.988001"
     x="0"
     y="0"
     id="rect4"
     style="fill:#666666" />
  <path
     d="m 307.53,41.781 c -30.942,0.445 -30.652,45.12 -65.27,30.09 -54.743,0.624 -47.77,70.848 -63,110.07 -16.4,46.665 -47.751,79.44 -89.3,104.46 -20.06,15.03 -68.6,42.888 -56.24,64.22 11.578,10.182 20.886,21.368 32.469,31.563 8.74,10.141 19.751,19.292 28.5,29.438 10.05,9.356 19.656,18.857 28.688,28.688 11.575,10.179 20.884,21.367 32.469,31.563 8.737,10.136 19.78,19.292 28.531,29.438 3.953,3.476 7.613,7.06 11.219,10.688 h 290.41 c 14.397,0 26,-11.603 26,-26 v -256.06 c -59.974,-60.03 -119.97,-120.04 -180.12,-179.87 -6.375,-5.233 -14.577,-8.125 -22.813,-8.219 l -0.031,-0.031 c -0.507,-0.015 -1.01,-0.038 -1.5,-0.031"
     inkscape:connector-curvature="0"
     id="path6"
     style="fill-opacity:0.23500001" />
  <g
     id="g50"
     style="line-height:125%;letter-spacing:0;word-spacing:0;font-family:Gentium Book Basic">
  </g>
  <g
     id="g98"
     style="line-height:125%;letter-spacing:0;word-spacing:0;font-family:Gentium Book Basic">
  </g>
  <path
     d="m 311.6,41.776 c -16.343,-0.163 -31.32,10.67 -35.753,27.18 -0.182,0.68 -0.299,1.374 -0.44,2.058 -42.796,-5.728 -77.14,3.849 -89.58,50.24 -47.06,175.67 -126.63,118.25 -154.95,223.97 0,0 66.37,36.776 190.32,69.985 123.93,33.21 199.52,34.479 199.52,34.479 28.16,-105.08 -69.58,-94.72 -22.24,-271.42 12.505,-46.665 -12.237,-72.03 -52.35,-88.41 0.199,-0.638 0.414,-1.26 0.588,-1.91 5.244,-19.571 -6.382,-39.664 -25.958,-44.91 -3.059,-0.82 -6.132,-1.243 -9.159,-1.274 m -27.671,89.53 c 3.268,-0.088 6.587,0.312 9.991,1.224 10.11,2.708 17.504,8.102 22.19,16.211 4.872,9.04 5.545,20.2 2.01,33.402 -3.592,13.407 -10.986,28.24 -22.19,44.47 l -13.616,19.885 c -6.698,10.145 -13.878,24.568 -21.549,43.29 l -16.7,-4.457 c 0.36,-2.998 0.674,-5.926 0.98,-8.718 0.512,-2.736 0.876,-5.397 1.127,-7.983 0.627,-6.465 0.989,-12.299 1.078,-17.583 0.295,-5.227 0.252,-9.906 -0.196,-14.01 l -1.862,-24.05 c -1.586,-19.659 -0.605,-36.2 2.987,-49.612 3.371,-12.585 10.04,-21.737 19.982,-27.475 5.067,-2.926 10.325,-4.457 15.766,-4.604 m -50,187.77 c 2.964,-0.077 5.966,0.298 9.06,1.127 8.664,2.321 15.03,7.082 19.05,14.349 4.228,7.324 5.198,15.11 2.987,23.361 -2.211,8.251 -6.977,14.53 -14.301,18.758 -7.06,4.078 -14.893,4.916 -23.555,2.595 -8.251,-2.211 -14.523,-6.841 -18.807,-13.958 -4.228,-7.324 -5.247,-15.11 -3.037,-23.361 2.211,-8.251 6.977,-14.53 14.301,-18.758 4.578,-2.642 9.361,-3.987 14.301,-4.114 m -67.53,99.33 c 1.352,23.02 16.907,43.659 40.4,49.955 23.497,6.3 47.31,-3.775 59.993,-23.02 -15.766,-3.567 -32.484,-7.604 -50.34,-12.39 -17.957,-4.811 -34.541,-9.698 -50.05,-14.545"
     inkscape:connector-curvature="0"
     id="path150"
     style="fill:#ffffff" />
</svg>
