<?xml version="1.0" encoding="UTF-8" standalone="no"?>
<!-- Created with Inkscape (http://www.inkscape.org/) -->

<svg
   xmlns:dc="http://purl.org/dc/elements/1.1/"
   xmlns:cc="http://creativecommons.org/ns#"
   xmlns:rdf="http://www.w3.org/1999/02/22-rdf-syntax-ns#"
   xmlns:svg="http://www.w3.org/2000/svg"
   xmlns="http://www.w3.org/2000/svg"
   xmlns:sodipodi="http://sodipodi.sourceforge.net/DTD/sodipodi-0.dtd"
   xmlns:inkscape="http://www.inkscape.org/namespaces/inkscape"
   version="1.1"
   width="100%"
   height="100%"
   viewBox="0 0 512 512"
   id="svg2"
   inkscape:version="0.48.5 r10040"
   sodipodi:docname="nm-signal-100.svg">
  <sodipodi:namedview
     pagecolor="#ffffff"
     bordercolor="#666666"
     borderopacity="1"
     objecttolerance="10"
     gridtolerance="10"
     guidetolerance="10"
     inkscape:pageopacity="0"
     inkscape:pageshadow="2"
     inkscape:window-width="1303"
     inkscape:window-height="741"
     id="namedview78"
     showgrid="false"
     inkscape:zoom="0.65186409"
     inkscape:cx="275.40756"
     inkscape:cy="206.2376"
     inkscape:window-x="59"
     inkscape:window-y="0"
     inkscape:window-maximized="0"
     inkscape:current-layer="svg2" />
  <metadata
     id="metadata10">
    <rdf:RDF>
      <cc:Work
         rdf:about="">
        <dc:format>image/svg+xml</dc:format>
        <dc:type
           rdf:resource="http://purl.org/dc/dcmitype/StillImage" />
        <dc:title />
      </cc:Work>
    </rdf:RDF>
  </metadata>
  <defs
     id="defs8">
    <clipPath
       clipPathUnits="userSpaceOnUse"
       id="clipPath3423">
      <path
         d="M 26,0 C 11.602648,0 0,11.602648 0,26 l 0,460 c 0,14.39735 11.602648,26 26,26 l 460,0 c 14.39735,0 26,-11.60265 26,-26 L 512,26 C 512,11.602648 500.39735,0 486,0 L 26,0 z"
         inkscape:connector-curvature="0"
         id="path3425"
         style="fill:#666666;fill-opacity:1;stroke:none" />
    </clipPath>
  </defs>
  <path
     style="fill:#666666;fill-opacity:1;stroke:none"
     id="rect2986"
     inkscape:connector-curvature="0"
     d="M 26,0 C 11.602648,0 0,11.602648 0,26 l 0,460 c 0,14.39735 11.602648,26 26,26 l 460,0 c 14.39735,0 26,-11.60265 26,-26 L 512,26 C 512,11.602648 500.39735,0 486,0 L 26,0 z" />
  <g
     style="color:#000000;fill:#000000;fill-opacity:1;fill-rule:evenodd;stroke:none;stroke-width:1px;marker:none;visibility:visible;display:inline;overflow:visible;enable-background:accumulate;opacity:0.25"
     id="g3278"
     clip-path="url(#clipPath3423)">
    <path
       inkscape:connector-curvature="0"
       d="m 256,77.836722 c -76.2987,0 -152.5993,33.102258 -215,83.951558 l 388.90873,388.90873 c 62.4007,-50.8493 138.7013,-83.95156 215,-83.95156 z"
       id="path3280"
       style="fill:#000000" />
    <path
       inkscape:connector-curvature="0"
       d="m 41,161.78828 c 182.57505,222.34303 71.328,86.68689 160.625,195.84375 l 388.90873,388.90873 c -89.297,-109.15686 21.95005,26.49928 -160.625,-195.84375 z"
       id="path3282"
       style="fill:#000000" />
    <path
       inkscape:connector-curvature="0"
       d="m 201.625,357.63203 c 11.81604,-17.40062 31.75703,-28.8125 54.375,-28.8125 l 388.90873,388.90873 c -22.61797,0 -42.55896,11.41188 -54.375,28.8125 z"
       id="path3284"
       style="fill:#000000" />
    <path
       inkscape:connector-curvature="0"
       d="m 256,328.81953 c 18.14454,0 34.57051,7.3434 46.45855,19.23145 l 388.90873,388.90873 c -11.88804,-11.88805 -28.31401,-19.23145 -46.45855,-19.23145 z"
       id="path3286"
       style="fill:#000000" />
    <path
       inkscape:connector-curvature="0"
       d="m 302.45855,348.05098 c 3.04637,3.04637 5.79475,6.39116 8.1977,9.9873 l 388.90873,388.90873 c -2.40295,-3.59614 -5.15133,-6.94094 -8.1977,-9.9873 z"
       id="path3288"
       style="fill:#000000" />
    <path
       inkscape:connector-curvature="0"
       d="M 310.65625,358.03828 C 402.71969,246.67131 287.71875,385.28108 471,161.78828 l 388.90873,388.90873 c -183.28125,223.4928 -68.28031,84.88303 -160.34375,196.25 z"
       id="path3290"
       style="fill:#000000" />
    <path
       inkscape:connector-curvature="0"
       d="M 471,161.78828 C 408.59635,110.93898 332.29876,77.836722 256,77.836722 L 644.90873,466.74545 c 76.29876,0 152.59635,33.10226 215,83.95156 z"
       id="path3292"
       style="fill:#000000" />
    <path
       inkscape:connector-curvature="0"
       d="m 256,354.85078 c -21.9006,0 -39.65625,17.75567 -39.65625,39.65625 l 388.90873,388.90873 c 0,-21.90058 17.75565,-39.65625 39.65625,-39.65625 z"
       id="path3294"
       style="fill:#000000" />
    <path
       inkscape:connector-curvature="0"
       d="m 216.34375,394.50703 c 0,10.95029 4.43891,20.86436 11.6154,28.04085 l 388.90873,388.90873 c -7.17649,-7.17649 -11.6154,-17.09056 -11.6154,-28.04085 z"
       id="path3296"
       style="fill:#000000" />
    <path
       inkscape:connector-curvature="0"
       d="m 227.95915,422.54788 c 7.17649,7.17648 17.09055,11.6154 28.04085,11.6154 l 388.90873,388.90873 c -10.9503,0 -20.86436,-4.43892 -28.04085,-11.6154 z"
       id="path3298"
       style="fill:#000000" />
    <path
       inkscape:connector-curvature="0"
       d="m 256,434.16328 c 21.9006,0 39.65625,-17.75567 39.65625,-39.65625 l 388.90873,388.90873 c 0,21.90058 -17.75565,39.65625 -39.65625,39.65625 z"
       id="path3300"
       style="fill:#000000" />
    <path
       inkscape:connector-curvature="0"
       d="m 295.65625,394.50703 c 0,-10.95029 -4.43891,-20.86436 -11.6154,-28.04085 l 388.90872,388.90873 c 7.1765,7.17649 11.61541,17.09056 11.61541,28.04085 z"
       id="path3302"
       style="fill:#000000" />
    <path
       inkscape:connector-curvature="0"
       d="M 284.04085,366.46618 C 276.86436,359.2897 266.9503,354.85078 256,354.85078 l 388.90873,388.90873 c 10.9503,0 20.86436,4.43892 28.04084,11.6154 z"
       id="path3304"
       style="fill:#000000" />
  </g>
  <path
     id="path3189"
     d="m 256,77.836722 c -76.2987,0 -152.5993,33.102258 -215,83.951558 182.57505,222.34303 71.328,86.68689 160.625,195.84375 11.81604,-17.40062 31.75703,-28.8125 54.375,-28.8125 22.79417,0 42.87612,11.58918 54.65625,29.21875 C 402.71969,246.67131 287.71875,385.28108 471,161.78828 408.59635,110.93898 332.29876,77.836722 256,77.836722 z m 0,277.014058 c -21.9006,0 -39.65625,17.75567 -39.65625,39.65625 0,21.90058 17.75565,39.65625 39.65625,39.65625 21.9006,0 39.65625,-17.75567 39.65625,-39.65625 0,-21.90058 -17.75565,-39.65625 -39.65625,-39.65625 z"
     style="color:#000000;fill:#ffffff;fill-opacity:1;fill-rule:evenodd;stroke:none;stroke-width:1px;marker:none;visibility:visible;display:inline;overflow:visible;enable-background:accumulate"
     inkscape:connector-curvature="0"
     sodipodi:nodetypes="sccsccssssss" />
  <g
     id="g62"
     style="font-size:208.33000183px;line-height:125%;letter-spacing:0;word-spacing:0;font-family:Gentium Book Basic"
     transform="translate(-1397.1525,611.79661)">
  </g>
</svg>
