<?xml version="1.0" encoding="UTF-8" standalone="no"?>
<!-- Created with Inkscape (http://www.inkscape.org/) -->

<svg
   xmlns:dc="http://purl.org/dc/elements/1.1/"
   xmlns:cc="http://creativecommons.org/ns#"
   xmlns:rdf="http://www.w3.org/1999/02/22-rdf-syntax-ns#"
   xmlns:svg="http://www.w3.org/2000/svg"
   xmlns="http://www.w3.org/2000/svg"
   xmlns:inkscape="http://www.inkscape.org/namespaces/inkscape"
   version="1.1"
   width="100%"
   height="100%"
   viewBox="0 0 512 512"
   id="svg2">
  <metadata
     id="metadata160">
    <rdf:RDF>
      <cc:Work
         rdf:about="">
        <dc:format>image/svg+xml</dc:format>
        <dc:type
           rdf:resource="http://purl.org/dc/dcmitype/StillImage" />
      </cc:Work>
    </rdf:RDF>
  </metadata>
  <defs
     id="defs158" />
  <rect
     width="512"
     height="512"
     rx="25.988001"
     x="0"
     y="0"
     id="rect4"
     style="fill:#666666" />
  <path
     d="m 247.16,50.844 c -19.411,29.353 -17.848,73.69 -34.639,105.74 4.649,43.907 -36.19,46.742 -72.5,45.22 -21.08,10.455 -78.3,-2.053 -96.58,18.443 34.937,37.408 72.26,72.63 108.09,109.22 -5.476,43.07 -21.75,85.33 -19.688,128.94 17.636,17.926 35.35,35.775 53.09,53.594 h 301.06 c 14.397,0 26,-11.603 26,-26 v -244.41 c -16.345,-16.212 -32.72,-32.399 -49.16,-48.531 -26.21,-0.028 -62.5,3.864 -84.91,-13.375 -42.823,-42.604 -85.2,-85.67 -128.28,-128 z"
     inkscape:connector-curvature="0"
     id="path6"
     style="fill-opacity:0.23500001" />
  <g
     id="g50"
     style="line-height:125%;letter-spacing:0;word-spacing:0;font-family:Gentium Book Basic">
  </g>
  <g
     id="g98"
     style="line-height:125%;letter-spacing:0;word-spacing:0;font-family:Gentium Book Basic">
  </g>
  <g
     transform="matrix(1.29063,0,0,1.29063,-74.886,-77.36)"
     id="g150"
     style="fill:#ffffff">
    <path
       d="m 251.16,99.34 c -11.492,0.498 -37.4,98.09 -46.41,105.25 -9,7.158 -109.92,10.385 -113,21.469 -3.077,11.08 81.76,65.881 85.78,76.66 4.03,10.775 -24.12,107.74 -14.531,114.09 9.59,6.351 87.91,-57.38 99.41,-57.875 11.492,-0.498 95.03,56.22 104.03,49.06 9,-7.158 -27.39,-101.35 -24.313,-112.44 3.077,-11.08 82.84,-73.01 78.81,-83.78 -4.03,-10.775 -104.88,-5.242 -114.47,-11.594 -9.59,-6.351 -43.821,-101.34 -55.31,-100.84 m 1.469,34.03 c 9.231,-0.4 36.734,75.929 44.44,81.03 7.703,5.102 88.7,0.657 91.94,9.313 3.233,8.655 -60.841,58.38 -63.31,67.28 -2.472,8.903 26.795,84.56 19.563,90.31 -7.233,5.75 -74.33,-39.807 -83.56,-39.41 -9.231,0.4 -72.14,51.602 -79.84,46.5 -7.703,-5.102 14.89,-83 11.656,-91.66 -3.233,-8.655 -71.38,-52.66 -68.906,-61.56 2.472,-8.903 83.55,-11.5 90.78,-17.25 7.233,-5.75 28.02,-84.16 37.25,-84.56"
       inkscape:connector-curvature="0"
       id="path152" />
    <path
       d="m 293.17,198.07 -41.12,-87.54 9.489,245.29 80.971,32.759 8.149,-29.342 -17.35,-65.18 c 22.872,-22.862 45.04,-47.17 62.834,-71.66 z"
       inkscape:connector-curvature="0"
       id="path154" />
  </g>
</svg>
