<?xml version="1.0" encoding="UTF-8" standalone="no"?>
<!-- Created with Inkscape (http://www.inkscape.org/) -->

<svg
   xmlns:dc="http://purl.org/dc/elements/1.1/"
   xmlns:cc="http://creativecommons.org/ns#"
   xmlns:rdf="http://www.w3.org/1999/02/22-rdf-syntax-ns#"
   xmlns:svg="http://www.w3.org/2000/svg"
   xmlns="http://www.w3.org/2000/svg"
   xmlns:inkscape="http://www.inkscape.org/namespaces/inkscape"
   version="1.1"
   width="100%"
   height="100%"
   viewBox="0 0 512 512"
   id="svg2">
  <metadata
     id="metadata106">
    <rdf:RDF>
      <cc:Work
         rdf:about="">
        <dc:format>image/svg+xml</dc:format>
        <dc:type
           rdf:resource="http://purl.org/dc/dcmitype/StillImage" />
      </cc:Work>
    </rdf:RDF>
  </metadata>
  <defs
     id="defs104" />
  <rect
     width="512"
     height="512"
     rx="25.988001"
     x="0"
     y="0"
     id="rect4"
     style="fill:#666666" />
  <path
     d="m 401.63,41.34 c -16.25,-0.114 -32.907,1.735 -48.75,0.469 H 97.38 c -36.653,-1.308 -61.753,35.817 -56.22,69.969 0.21,103.21 -0.455,206.4 0.281,309.59 4.379,32.2 34.845,49.2 54.41,72.03 6.201,6.195 12.394,12.397 18.594,18.594 h 371.56 c 14.397,0 26,-11.603 26,-26 v -370.16 c -21.321,-21.16 -42.696,-42.27 -64.12,-63.31 -14.15,-9 -29.973,-11.07 -46.22,-11.188 h -0.031"
     inkscape:connector-curvature="0"
     id="path52"
     style="fill-opacity:0.23500001" />
  <path
     d="m 97.38,41.797 c -31.18,0 -56.23,25.06 -56.23,56.23 v 317.31 c 0,31.18 25.06,56.23 56.23,56.23 h 317.31 c 31.18,0 56.23,-25.06 56.23,-56.23 V 98.027 c 0,-31.18 -25.06,-56.23 -56.23,-56.23 H 97.38 m 158.65,47.05 c 13.742,0 24.947,4.36 33.64,13.05 9.254,9.815 13.879,23.691 13.879,41.639 0,18.227 -4.309,39.529 -13,63.927 l -10.525,29.867 c -5.05,15.14 -9.276,35.915 -12.64,62.28 h -22.702 c -0.561,-3.926 -1.143,-7.757 -1.702,-11.402 -0.281,-3.646 -0.677,-7.108 -1.238,-10.474 -1.402,-8.412 -2.96,-16.02 -4.644,-22.753 -1.402,-6.73 -3.094,-12.597 -5.057,-17.646 l -10.525,-29.867 c -8.693,-24.397 -13,-45.697 -13,-63.927 0,-17.11 5.338,-30.98 15.995,-41.639 8.693,-8.693 19.19,-13.05 31.518,-13.05 m -0.826,255.35 c 11.779,0 21.424,3.911 28.997,11.764 7.852,7.852 11.815,17.367 11.815,28.584 0,11.217 -3.964,20.783 -11.815,28.636 -7.572,7.572 -17.219,11.351 -28.997,11.351 -11.217,0 -20.783,-3.779 -28.636,-11.351 -7.852,-7.852 -11.764,-17.418 -11.764,-28.636 0,-11.217 3.911,-20.732 11.764,-28.584 7.852,-7.852 17.418,-11.764 28.636,-11.764"
     inkscape:connector-curvature="0"
     id="path100"
     style="fill:#ffffff" />
</svg>
