<?xml version="1.0" encoding="UTF-8" standalone="no"?>
<!-- Created with Inkscape (http://www.inkscape.org/) -->

<svg
   xmlns:dc="http://purl.org/dc/elements/1.1/"
   xmlns:cc="http://creativecommons.org/ns#"
   xmlns:rdf="http://www.w3.org/1999/02/22-rdf-syntax-ns#"
   xmlns:svg="http://www.w3.org/2000/svg"
   xmlns="http://www.w3.org/2000/svg"
   xmlns:inkscape="http://www.inkscape.org/namespaces/inkscape"
   version="1.1"
   width="100%"
   height="100%"
   viewBox="0 0 512 512"
   id="svg2">
  <metadata
     id="metadata68">
    <rdf:RDF>
      <cc:Work
         rdf:about="">
        <dc:format>image/svg+xml</dc:format>
        <dc:type
           rdf:resource="http://purl.org/dc/dcmitype/StillImage" />
      </cc:Work>
    </rdf:RDF>
  </metadata>
  <defs
     id="defs66" />
  <rect
     width="512"
     height="512"
     rx="25.988001"
     x="0"
     y="0"
     id="rect4"
     style="fill:#666666" />
  <g
     id="g6"
     style="fill-rule:evenodd">
    <path
       d="M 26,0 C 11.603,0 0,11.603 0,26 v 460 c 0,14.397 11.603,26 26,26 H 47.781 V 0 H 26"
       inkscape:connector-curvature="0"
       id="path8"
       style="fill:#666666" />
    <path
       d="m 47.781,0 v 512 h 40 V 0 h -40"
       inkscape:connector-curvature="0"
       id="path10"
       style="fill:#666666" />
  </g>
  <text
     x="171.42999"
     y="271.06"
     id="text12"
     style="font-size:129.22999573px;line-height:125%;letter-spacing:0;word-spacing:0;font-family:Gentium Book Basic">
    <tspan
       x="171.42999"
       y="271.06"
       id="tspan14" />
  </text>
  <text
     x="239.8"
     y="738.53998"
     transform="scale(4.0128,0.2492)"
     id="text16"
     style="font-size:46.95399857px;text-anchor:middle;font-family:Arial" />
  <text
     x="752.70001"
     y="191.06"
     id="text18"
     style="font-size:129.22999573px;line-height:125%;letter-spacing:0;word-spacing:0;font-family:Gentium Book Basic">
    <tspan
       x="752.70001"
       y="191.06"
       id="tspan20" />
  </text>
  <text
     x="384.64999"
     y="417.51999"
     transform="scale(4.0128,0.2492)"
     id="text22"
     style="font-size:46.95399857px;text-anchor:middle;font-family:Arial" />
  <text
     x="-318.88"
     y="9.7959995"
     id="text24"
     style="font-size:129.22999573px;line-height:125%;letter-spacing:0;word-spacing:0;font-family:Gentium Book Basic">
    <tspan
       x="-318.88"
       y="9.7959995"
       id="tspan26" />
  </text>
  <text
     x="117.61"
     y="-309.84"
     transform="scale(4.0128,0.2492)"
     id="text28"
     style="font-size:46.95399857px;text-anchor:middle;font-family:Arial" />
  <text
     x="779.16998"
     y="-206.67"
     id="text30"
     style="font-size:129.22999573px;line-height:125%;letter-spacing:0;word-spacing:0;font-family:Gentium Book Basic">
    <tspan
       x="779.16998"
       y="-206.67"
       id="tspan32" />
  </text>
  <text
     x="391.25"
     y="-1178.51"
     transform="scale(4.0128,0.2492)"
     id="text34"
     style="font-size:46.95399857px;text-anchor:middle;font-family:Arial" />
  <text
     x="1360.4399"
     y="-286.67999"
     id="text36"
     style="font-size:129.22999573px;line-height:125%;letter-spacing:0;word-spacing:0;font-family:Gentium Book Basic">
    <tspan
       x="1360.4399"
       y="-286.67999"
       id="tspan38" />
  </text>
  <text
     x="536.09998"
     y="-1499.54"
     transform="scale(4.0128,0.2492)"
     id="text40"
     style="font-size:46.95399857px;text-anchor:middle;font-family:Arial" />
  <text
     x="971.32001"
     y="-759.08002"
     id="text42"
     style="font-size:129.22999573px;line-height:125%;letter-spacing:0;word-spacing:0;font-family:Gentium Book Basic">
    <tspan
       x="971.32001"
       y="-759.08002"
       id="tspan44" />
  </text>
  <text
     x="439.13"
     y="-3395.1899"
     transform="scale(4.0128,0.2492)"
     id="text46"
     style="font-size:46.95399857px;text-anchor:middle;font-family:Arial" />
  <text
     x="1552.58"
     y="-839.08002"
     id="text48"
     style="font-size:129.22999573px;line-height:125%;letter-spacing:0;word-spacing:0;font-family:Gentium Book Basic">
    <tspan
       x="1552.58"
       y="-839.08002"
       id="tspan50" />
  </text>
  <text
     x="583.97998"
     y="-3716.22"
     transform="scale(4.0128,0.2492)"
     id="text52"
     style="font-size:46.95399857px;text-anchor:middle;font-family:Arial" />
  <text
     x="-280.22"
     y="575.64001"
     id="text54"
     style="font-size:208.33000183px;line-height:125%;letter-spacing:0;word-spacing:0;font-family:Gentium Book Basic">
    <tspan
       x="-280.22"
       y="575.64001"
       id="tspan56" />
  </text>
  <path
     d="m 188.34,127.44 c -5.262,-0.002 -11.413,1.213 -16.06,0.344 -14.12,0 -28.23,10e-4 -42.34,0 l -88.94,253 c 5.02,2.678 6.833,7.615 11.844,10.313 2.23,4.562 7.685,6.854 9.906,11.438 5.04,2.654 6.796,7.636 11.844,10.281 2.19,4.598 7.681,6.857 9.875,11.438 5.05,2.674 6.816,7.652 11.875,10.313 2.179,4.595 7.686,6.852 9.875,11.438 5.03,2.678 6.829,7.619 11.844,10.313 2.233,4.563 7.689,6.856 9.906,11.438 5.03,2.659 6.8,7.636 11.844,10.281 2.206,4.611 7.69,6.869 9.906,11.469 5.03,2.651 6.801,7.636 11.844,10.281 2.184,4.598 7.683,6.853 9.875,11.438 0.454,0.242 0.875,0.506 1.281,0.781 h 313.28 c 14.397,0 26,-11.603 26,-26 v -223.44 c -21.391,-21.305 -42.829,-42.515 -64.34,-63.56 -36.24,-22.886 -84.14,-17.1 -122.12,-1.563 -16.582,3.519 1.824,19.18 3.844,29.13 3.171,8.42 7.668,13.662 12.219,15.969 3.234,4.557 7.576,5.932 9.844,9.969 4.799,1.873 6.581,7.02 11,8.094 7.241,2 -24.714,13.09 -28.719,5.656 -6.713,-5.59 -12.337,-12.729 -19.06,-18.313 -6.245,-7.384 -13.587,-13.218 -19.844,-20.594 -6.712,-5.591 -12.339,-12.73 -19.06,-18.313 -6.245,-7.384 -13.587,-13.218 -19.844,-20.594 -6.712,-5.591 -12.339,-12.73 -19.06,-18.313 -6.246,-7.386 -13.587,-13.217 -19.844,-20.594 -6.712,-5.591 -12.339,-12.73 -19.06,-18.313 -1.942,-3.046 -5.501,-3.78 -9.594,-3.781"
     inkscape:connector-curvature="0"
     id="path58"
     style="fill-opacity:0.23500001" />
  <text
     x="41"
     y="380.78"
     id="text60"
     style="font-size:352.95999146px;font-weight:bold;line-height:125%;letter-spacing:0;word-spacing:0;fill:#ffffff;font-family:Sans">
    <tspan
       x="41"
       y="380.78"
       id="tspan62">Aa</tspan>
  </text>
</svg>
