<?xml version="1.0" encoding="UTF-8" standalone="no"?>
<!-- Created with Inkscape (http://www.inkscape.org/) -->

<svg
   xmlns:dc="http://purl.org/dc/elements/1.1/"
   xmlns:cc="http://creativecommons.org/ns#"
   xmlns:rdf="http://www.w3.org/1999/02/22-rdf-syntax-ns#"
   xmlns:svg="http://www.w3.org/2000/svg"
   xmlns="http://www.w3.org/2000/svg"
   xmlns:inkscape="http://www.inkscape.org/namespaces/inkscape"
   version="1.1"
   width="100%"
   height="100%"
   viewBox="0 0 512 512"
   id="svg2">
  <metadata
     id="metadata62">
    <rdf:RDF>
      <cc:Work
         rdf:about="">
        <dc:format>image/svg+xml</dc:format>
        <dc:type
           rdf:resource="http://purl.org/dc/dcmitype/StillImage" />
      </cc:Work>
    </rdf:RDF>
  </metadata>
  <defs
     id="defs60" />
  <rect
     width="512"
     height="512"
     rx="25.988001"
     x="0"
     y="0"
     id="rect4"
     style="fill:#666666" />
  <path
     d="m 48.34,0 v 512 h 40 V 0 h -40"
     inkscape:connector-curvature="0"
     id="path6"
     style="fill:#666666;fill-rule:evenodd" />
  <path
     d="m 176.5,40.906 c -25.84,-0.051 -42.38,29.856 -32.406,53.19 5.475,38.757 52.1,65.29 32.906,106.66 -10.465,55.24 -26.01,109.79 -49.875,160.81 -33.24,16.231 -81,32.515 -86.06,74.63 3.392,24.52 26.628,37.583 41.688,55.09 6.936,6.902 13.856,13.805 20.781,20.719 h 382.47 c 14.397,0 26,-11.603 26,-26 v -124.85 c -38.723,-38.723 44.36,44.15 -91.91,-92.12 -74.23,-73.815 -147.67,-148.5 -222.41,-221.78 -5.379,-3.92 -11.952,-6.325 -18.656,-6.25 -0.852,-0.065 -1.698,-0.092 -2.531,-0.094"
     inkscape:connector-curvature="0"
     id="path8"
     style="fill-opacity:0.23500001" />
  <text
     x="169.89999"
     y="197.42"
     id="text10"
     style="font-size:129.22999573px;line-height:125%;letter-spacing:0;word-spacing:0;font-family:Gentium Book Basic">
    <tspan
       x="169.89999"
       y="197.42"
       id="tspan12" />
  </text>
  <text
     x="239.42"
     y="443.06"
     transform="scale(4.0128,0.2492)"
     id="text14"
     style="font-size:46.95399857px;text-anchor:middle;font-family:Arial" />
  <text
     x="751.16998"
     y="117.42"
     id="text16"
     style="font-size:129.22999573px;line-height:125%;letter-spacing:0;word-spacing:0;font-family:Gentium Book Basic">
    <tspan
       x="751.16998"
       y="117.42"
       id="tspan18" />
  </text>
  <text
     x="384.26999"
     y="122.03"
     transform="scale(4.0128,0.2492)"
     id="text20"
     style="font-size:46.95399857px;text-anchor:middle;font-family:Arial" />
  <text
     x="-320.41"
     y="-63.839001"
     id="text22"
     style="font-size:129.22999573px;line-height:125%;letter-spacing:0;word-spacing:0;font-family:Gentium Book Basic">
    <tspan
       x="-320.41"
       y="-63.839001"
       id="tspan24" />
  </text>
  <text
     x="117.23"
     y="-605.32001"
     transform="scale(4.0128,0.2492)"
     id="text26"
     style="font-size:46.95399857px;text-anchor:middle;font-family:Arial" />
  <text
     x="777.64001"
     y="-280.31"
     id="text28"
     style="font-size:129.22999573px;line-height:125%;letter-spacing:0;word-spacing:0;font-family:Gentium Book Basic">
    <tspan
       x="777.64001"
       y="-280.31"
       id="tspan30" />
  </text>
  <text
     x="390.87"
     y="-1473.99"
     transform="scale(4.0128,0.2492)"
     id="text32"
     style="font-size:46.95399857px;text-anchor:middle;font-family:Arial" />
  <text
     x="1358.91"
     y="-360.32001"
     id="text34"
     style="font-size:129.22999573px;line-height:125%;letter-spacing:0;word-spacing:0;font-family:Gentium Book Basic">
    <tspan
       x="1358.91"
       y="-360.32001"
       id="tspan36" />
  </text>
  <text
     x="535.71997"
     y="-1795.03"
     transform="scale(4.0128,0.2492)"
     id="text38"
     style="font-size:46.95399857px;text-anchor:middle;font-family:Arial" />
  <text
     x="969.78998"
     y="-832.71997"
     id="text40"
     style="font-size:129.22999573px;line-height:125%;letter-spacing:0;word-spacing:0;font-family:Gentium Book Basic">
    <tspan
       x="969.78998"
       y="-832.71997"
       id="tspan42" />
  </text>
  <text
     x="438.75"
     y="-3690.6799"
     transform="scale(4.0128,0.2492)"
     id="text44"
     style="font-size:46.95399857px;text-anchor:middle;font-family:Arial" />
  <text
     x="1551.05"
     y="-912.71997"
     id="text46"
     style="font-size:129.22999573px;line-height:125%;letter-spacing:0;word-spacing:0;font-family:Gentium Book Basic">
    <tspan
       x="1551.05"
       y="-912.71997"
       id="tspan48" />
  </text>
  <text
     x="583.59998"
     y="-4011.71"
     transform="scale(4.0128,0.2492)"
     id="text50"
     style="font-size:46.95399857px;text-anchor:middle;font-family:Arial" />
  <text
     x="-281.75"
     y="502"
     id="text52"
     style="font-size:208.33000183px;line-height:125%;letter-spacing:0;word-spacing:0;font-family:Gentium Book Basic">
    <tspan
       x="-281.75"
       y="502"
       id="tspan54" />
  </text>
  <path
     d="m 176.82,41.1 c -20.966,-0.367 -39.06,20.486 -34.627,41.32 2.984,31.834 23.51,57.667 39.528,83.954 1.801,9.789 -3.362,19.318 -3.707,29.04 -10.443,57.05 -26.376,113.8 -50.887,166.16 -30.33,13.963 -64.68,27.752 -82.42,57.846 -11.259,20.88 4.594,49.06 27.865,51.26 21.589,2.953 37.614,-15.548 49.42,-31.05 12.322,-16.674 20.431,-36.528 30.684,-54.45 62.05,-24.988 127.32,-42.45 193.96,-49.08 26.943,19.283 55.49,42.03 90.04,43.41 20.08,-0.299 36.33,-19.793 34.13,-39.593 -1.294,-18.03 -17.309,-30.669 -33.9,-34.05 -26.759,-8.06 -55.42,-3.646 -82.64,-3.45 -52.38,-41.854 -100.73,-90.01 -138.82,-145.11 2.827,-33.498 8.503,-70.55 -8.939,-101.03 -6.623,-9.611 -17.85,-16.202 -29.679,-15.16 m 0.998,30.422 c 5.898,1.137 6.29,9.922 7.941,14.619 1.554,9.574 1.384,19.344 1.271,29.01 -7.02,-13.13 -16.15,-26.843 -14.522,-42.4 1.851,-0.073 3.491,-1.01 5.31,-1.226 m 32.501,130.64 c 31.22,38.817 65.896,74.57 103.74,106.97 -49.9,7.61 -99.47,20.359 -146.95,37.557 18.208,-47.589 32.07,-96.75 41.21,-146.93 0.666,0.803 1.331,1.604 1.997,2.407 m 194.73,130.49 c 12.1,1.168 26.07,0.467 35.764,8.809 0.909,7.529 -8.301,8.628 -13.206,5.903 -10.233,-3.417 -20.357,-7.712 -29.04,-14.257 2.165,-0.134 4.321,-0.412 6.494,-0.454 m -302.48,79.19 c -5.756,10.705 -14.13,20.798 -22.872,28.379 -2.908,4.707 -10.888,-3.996 -7.216,-7.673 7.581,-11.867 20.817,-18.16 32.534,-25.25 -0.817,1.514 -1.632,3.03 -2.451,4.541"
     inkscape:connector-curvature="0"
     id="path56"
     style="fill:#ffffff" />
</svg>
