<?xml version="1.0" encoding="UTF-8" standalone="no"?>
<!-- Created with Inkscape (http://www.inkscape.org/) -->

<svg
   xmlns:dc="http://purl.org/dc/elements/1.1/"
   xmlns:cc="http://creativecommons.org/ns#"
   xmlns:rdf="http://www.w3.org/1999/02/22-rdf-syntax-ns#"
   xmlns:svg="http://www.w3.org/2000/svg"
   xmlns="http://www.w3.org/2000/svg"
   xmlns:inkscape="http://www.inkscape.org/namespaces/inkscape"
   version="1.1"
   width="100%"
   height="100%"
   viewBox="0 0 512 512"
   id="svg2">
  <metadata
     id="metadata60">
    <rdf:RDF>
      <cc:Work
         rdf:about="">
        <dc:format>image/svg+xml</dc:format>
        <dc:type
           rdf:resource="http://purl.org/dc/dcmitype/StillImage" />
      </cc:Work>
    </rdf:RDF>
  </metadata>
  <defs
     id="defs58" />
  <rect
     width="512"
     height="512"
     rx="25.988001"
     x="0"
     y="0"
     id="rect4"
     style="fill:#666666" />
  <path
     d="m 326.66,41.38 c -5.84,0.073 -11.792,0.74 -17.469,0.219 -19.13,1.714 -13.486,23.26 -14.344,36.438 v 52.5 c -28.865,-28.55 -57.35,-57.5 -86.25,-86.03 -9.815,-5.411 -22.481,-1.914 -33.34,-2.906 h -0.031 c -28.717,6.773 -5.738,31.723 7.25,41.813 6.426,7.148 1.596,18.967 3.094,28.16 -0.455,30.892 0.917,62.07 -0.656,92.78 l -87.09,228.31 c -5.198,23.411 19.18,36.33 32.16,51.594 9.226,9.256 18.48,18.506 27.719,27.75 h 328.31 c 14.397,0 26,-11.603 26,-26 v -272.78 c -56.19,-56.2 -112.35,-112.43 -168.62,-168.56 -5.157,-2.844 -10.878,-3.354 -16.719,-3.281"
     inkscape:connector-curvature="0"
     id="path6"
     style="fill-opacity:0.23500001" />
  <text
     x="25.694"
     y="172.88"
     id="text8"
     style="font-size:129.22999573px;line-height:125%;letter-spacing:0;word-spacing:0;font-family:Gentium Book Basic">
    <tspan
       x="25.694"
       y="172.88"
       id="tspan10" />
  </text>
  <text
     x="203.48"
     y="344.57999"
     transform="scale(4.0128,0.2492)"
     id="text12"
     style="font-size:46.95399857px;text-anchor:middle;font-family:Arial" />
  <text
     x="606.96002"
     y="92.879997"
     id="text14"
     style="font-size:129.22999573px;line-height:125%;letter-spacing:0;word-spacing:0;font-family:Gentium Book Basic">
    <tspan
       x="606.96002"
       y="92.879997"
       id="tspan16" />
  </text>
  <text
     x="348.32999"
     y="23.539"
     transform="scale(4.0128,0.2492)"
     id="text18"
     style="font-size:46.95399857px;text-anchor:middle;font-family:Arial" />
  <text
     x="-464.62"
     y="-88.379997"
     id="text20"
     style="font-size:129.22999573px;line-height:125%;letter-spacing:0;word-spacing:0;font-family:Gentium Book Basic">
    <tspan
       x="-464.62"
       y="-88.379997"
       id="tspan22" />
  </text>
  <text
     x="81.290001"
     y="-703.81"
     transform="scale(4.0128,0.2492)"
     id="text24"
     style="font-size:46.95399857px;text-anchor:middle;font-family:Arial" />
  <text
     x="633.42999"
     y="-304.85001"
     id="text26"
     style="font-size:129.22999573px;line-height:125%;letter-spacing:0;word-spacing:0;font-family:Gentium Book Basic">
    <tspan
       x="633.42999"
       y="-304.85001"
       id="tspan28" />
  </text>
  <text
     x="354.92999"
     y="-1572.48"
     transform="scale(4.0128,0.2492)"
     id="text30"
     style="font-size:46.95399857px;text-anchor:middle;font-family:Arial" />
  <text
     x="1214.7"
     y="-384.85001"
     id="text32"
     style="font-size:129.22999573px;line-height:125%;letter-spacing:0;word-spacing:0;font-family:Gentium Book Basic">
    <tspan
       x="1214.7"
       y="-384.85001"
       id="tspan34" />
  </text>
  <text
     x="499.78"
     y="-1893.51"
     transform="scale(4.0128,0.2492)"
     id="text36"
     style="font-size:46.95399857px;text-anchor:middle;font-family:Arial" />
  <text
     x="825.58002"
     y="-857.25"
     id="text38"
     style="font-size:129.22999573px;line-height:125%;letter-spacing:0;word-spacing:0;font-family:Gentium Book Basic">
    <tspan
       x="825.58002"
       y="-857.25"
       id="tspan40" />
  </text>
  <text
     x="402.81"
     y="-3789.1599"
     transform="scale(4.0128,0.2492)"
     id="text42"
     style="font-size:46.95399857px;text-anchor:middle;font-family:Arial" />
  <text
     x="1406.84"
     y="-937.26001"
     id="text44"
     style="font-size:129.22999573px;line-height:125%;letter-spacing:0;word-spacing:0;font-family:Gentium Book Basic">
    <tspan
       x="1406.84"
       y="-937.26001"
       id="tspan46" />
  </text>
  <text
     x="547.65997"
     y="-4110.2002"
     transform="scale(4.0128,0.2492)"
     id="text48"
     style="font-size:46.95399857px;text-anchor:middle;font-family:Arial" />
  <text
     x="-425.95999"
     y="477.45999"
     id="text50"
     style="font-size:208.33000183px;line-height:125%;letter-spacing:0;word-spacing:0;font-family:Gentium Book Basic">
    <tspan
       x="-425.95999"
       y="477.45999"
       id="tspan52" />
  </text>
  <path
     d="m 415.15,437.78 c 0,17.996 -14.635,32.636 -32.629,32.636 h -253.04 c -18.01,0 -32.64,-14.645 -32.64,-32.636 0,-1.745 0.323,-3.479 0.944,-5.111 l 87.65,-229.69 c 0.03,-0.364 0.082,-0.728 0.128,-1.087 V 70.272 h -10.355 c -7.927,0 -14.342,-6.424 -14.342,-14.347 0,-7.923 6.413,-14.347 14.342,-14.347 h 24.698 c 7.927,0 14.353,6.424 14.353,14.347 v 147.06 c 0,0.825 -0.072,1.642 -0.21,2.458 0,1.75 -0.42,4.105 -1.052,5.731 l -52.791,138.35 h 190.35 l -54.54,-138.18 c -0.589,-1.488 -0.923,-3.061 -0.99,-4.654 l -0.117,-0.867 c -0.061,-0.565 -0.093,-1.129 -0.093,-1.694 V 55.939 c 0,-7.923 6.413,-14.347 14.342,-14.347 h 25.343 c 7.927,0 14.342,6.424 14.342,14.347 0,7.923 -6.413,14.347 -14.342,14.347 h -11.01 v 132.56 l 90.65,229.67 c 0.663,1.683 1.01,3.463 1.01,5.27 m -186.94,-120.21 c 0,-5.932 4.819,-10.768 10.753,-10.768 5.937,0 10.768,4.823 10.768,10.768 0,5.926 -4.828,10.768 -10.768,10.768 -5.937,0 -10.753,-4.834 -10.753,-10.768 m 7.163,0 c 0,1.975 1.611,3.582 3.587,3.582 1.975,0 3.587,-1.607 3.587,-3.582 0,-1.981 -1.611,-3.587 -3.587,-3.587 -1.975,0 -3.587,1.607 -3.587,3.587 m 48.42,-10.768 c 0,-5.932 4.828,-10.768 10.768,-10.768 5.937,0 10.753,4.823 10.753,10.768 0,5.926 -4.819,10.768 -10.753,10.768 -5.937,0 -10.768,-4.828 -10.768,-10.768 m 7.173,0 c 0,1.975 1.611,3.582 3.587,3.582 1.975,0 3.587,-1.607 3.587,-3.582 0,-1.98 -1.611,-3.587 -3.587,-3.587 -1.975,0 -3.587,1.611 -3.587,3.587 m -37.07,-35.863 c 0,-8.241 6.706,-14.947 14.953,-14.947 8.235,0 14.942,6.706 14.942,14.947 0,8.235 -6.706,14.947 -14.942,14.947 -8.252,0 -14.953,-6.706 -14.953,-14.947 m 7.173,0 c 0,4.284 3.489,7.774 7.78,7.774 4.28,0 7.78,-3.489 7.78,-7.774 0,-4.29 -3.5,-7.78 -7.78,-7.78 -4.29,0 -7.78,3.489 -7.78,7.78"
     inkscape:connector-curvature="0"
     id="path54"
     style="fill:#ffffff" />
</svg>
