<?xml version="1.0" encoding="UTF-8" standalone="no"?>
<!-- Created with Inkscape (http://www.inkscape.org/) -->

<svg
   xmlns:dc="http://purl.org/dc/elements/1.1/"
   xmlns:cc="http://creativecommons.org/ns#"
   xmlns:rdf="http://www.w3.org/1999/02/22-rdf-syntax-ns#"
   xmlns:svg="http://www.w3.org/2000/svg"
   xmlns="http://www.w3.org/2000/svg"
   xmlns:inkscape="http://www.inkscape.org/namespaces/inkscape"
   version="1.1"
   width="100%"
   height="100%"
   viewBox="0 0 512 512"
   id="svg2">
  <metadata
     id="metadata74">
    <rdf:RDF>
      <cc:Work
         rdf:about="">
        <dc:format>image/svg+xml</dc:format>
        <dc:type
           rdf:resource="http://purl.org/dc/dcmitype/StillImage" />
      </cc:Work>
    </rdf:RDF>
  </metadata>
  <defs
     id="defs72" />
  <rect
     width="512"
     height="512"
     rx="25.988001"
     x="0"
     y="0"
     id="rect4"
     style="fill:#666666" />
  <path
     d="m 273.09,60.34 c -64.01,0.478 -125.91,35.817 -160.16,89.69 -11.429,-10.559 -20.871,-23.429 -33.969,-31.906 -16.28,2.601 -10.453,25.25 -15.25,37.594 l -22.563,131.66 c 6.238,15.828 23.488,25.82 34.5,39.09 20.89,20.565 41.796,41 59.56,64.34 40.43,40.32 80.77,80.76 121.09,121.19 h 229.69 c 14.397,0 26,-11.603 26,-26 v -270.06 c -36.557,-36.623 -73.21,-73.13 -110.28,-109.22 -34.649,-29.679 -79.904,-46.566 -125.56,-46.37 -1.017,-0.01 -2.046,-0.008 -3.063,0"
     inkscape:connector-curvature="0"
     id="path6"
     style="color:#000000;fill-opacity:0.23500001" />
  <text
     x="177.57001"
     y="182.08"
     id="text8"
     style="font-size:129.22999573px;line-height:125%;letter-spacing:0;word-spacing:0;font-family:Gentium Book Basic">
    <tspan
       x="177.57001"
       y="182.08"
       id="tspan10" />
  </text>
  <text
     x="241.33"
     y="381.5"
     transform="scale(4.0128,0.2492)"
     id="text12"
     style="font-size:46.95399857px;text-anchor:middle;font-family:Arial" />
  <text
     x="758.84003"
     y="102.08"
     id="text14"
     style="font-size:129.22999573px;line-height:125%;letter-spacing:0;word-spacing:0;font-family:Gentium Book Basic">
    <tspan
       x="758.84003"
       y="102.08"
       id="tspan16" />
  </text>
  <text
     x="386.17999"
     y="60.470001"
     transform="scale(4.0128,0.2492)"
     id="text18"
     style="font-size:46.95399857px;text-anchor:middle;font-family:Arial" />
  <text
     x="-312.73999"
     y="-79.18"
     id="text20"
     style="font-size:129.22999573px;line-height:125%;letter-spacing:0;word-spacing:0;font-family:Gentium Book Basic">
    <tspan
       x="-312.73999"
       y="-79.18"
       id="tspan22" />
  </text>
  <text
     x="119.14"
     y="-666.88"
     transform="scale(4.0128,0.2492)"
     id="text24"
     style="font-size:46.95399857px;text-anchor:middle;font-family:Arial" />
  <text
     x="785.31"
     y="-295.64999"
     id="text26"
     style="font-size:129.22999573px;line-height:125%;letter-spacing:0;word-spacing:0;font-family:Gentium Book Basic">
    <tspan
       x="785.31"
       y="-295.64999"
       id="tspan28" />
  </text>
  <text
     x="392.78"
     y="-1535.55"
     transform="scale(4.0128,0.2492)"
     id="text30"
     style="font-size:46.95399857px;text-anchor:middle;font-family:Arial" />
  <text
     x="1366.58"
     y="-375.66"
     id="text32"
     style="font-size:129.22999573px;line-height:125%;letter-spacing:0;word-spacing:0;font-family:Gentium Book Basic">
    <tspan
       x="1366.58"
       y="-375.66"
       id="tspan34" />
  </text>
  <text
     x="537.63"
     y="-1856.59"
     transform="scale(4.0128,0.2492)"
     id="text36"
     style="font-size:46.95399857px;text-anchor:middle;font-family:Arial" />
  <text
     x="977.46002"
     y="-848.06"
     id="text38"
     style="font-size:129.22999573px;line-height:125%;letter-spacing:0;word-spacing:0;font-family:Gentium Book Basic">
    <tspan
       x="977.46002"
       y="-848.06"
       id="tspan40" />
  </text>
  <text
     x="440.66"
     y="-3752.24"
     transform="scale(4.0128,0.2492)"
     id="text42"
     style="font-size:46.95399857px;text-anchor:middle;font-family:Arial" />
  <text
     x="1558.72"
     y="-928.06"
     id="text44"
     style="font-size:129.22999573px;line-height:125%;letter-spacing:0;word-spacing:0;font-family:Gentium Book Basic">
    <tspan
       x="1558.72"
       y="-928.06"
       id="tspan46" />
  </text>
  <text
     x="585.51001"
     y="-4073.27"
     transform="scale(4.0128,0.2492)"
     id="text48"
     style="font-size:46.95399857px;text-anchor:middle;font-family:Arial" />
  <text
     x="-274.07999"
     y="486.66"
     id="text50"
     style="font-size:208.33000183px;line-height:125%;letter-spacing:0;word-spacing:0;font-family:Gentium Book Basic">
    <tspan
       x="-274.07999"
       y="486.66"
       id="tspan52" />
  </text>
  <g
     transform="matrix(2.14997,0,0,2.14997,799.06,-127.13)"
     id="g54">
    <path
       d="m -243.21,87.2 c -32.437,0 -60.892,17.387 -76.886,43.26 l -12.744,-15.368 c -0.129,-0.075 -0.288,-0.082 -0.425,-0.138 -1.819,-1.932 -5.723,-0.761 -6.23,1.85 l -13.03,75.986 c -0.461,2.134 1.508,4.442 3.682,4.412 l 16.283,-4.127 c 7.08,43.11 44.491,76.13 89.35,76.13 49.881,0 90.62,-40.799 90.62,-90.93 0,-50.13 -40.74,-91.07 -90.62,-91.07 z m 11.04,27.595 c 4.759,0.063 9.756,0.977 15.01,2.561 27.508,10.529 47.01,29.514 47.01,60.912 0,40.644 -32.62,73.42 -73.06,73.42 -36.925,0 -67.2,-27.347 -72.21,-63.04 l 40.496,-10.388 c 2.635,-0.082 4.408,-3.711 2.832,-5.834 l -16.425,-12.38 c 0.353,-1.381 -5.11,-5.173 16.834,-28.633 10.352,-11.07 24.23,-16.795 39.521,-16.627"
       inkscape:connector-curvature="0"
       id="path56"
       style="color:#000000;fill:#ffffff" />
    <g
       id="g58"
       style="fill:none;stroke:#ffffff;stroke-width:9.07999992;stroke-linecap:round;stroke-linejoin:round">
      <path
         d="m -243.21,118.73 v 9.277"
         inkscape:connector-curvature="0"
         id="path60" />
      <path
         d="m -243.21,228.11 v 10.374"
         inkscape:connector-curvature="0"
         id="path62" />
      <path
         d="m -183.59,178.27 h -9.06"
         inkscape:connector-curvature="0"
         id="path64" />
    </g>
    <path
       d="m -193.85,137.96 c -0.286,0.063 -0.57,0.075 -0.85,0.144 -1.062,0.138 -2.09,0.534 -2.974,1.139 l -48.09,32.475 c -4.184,1.573 -5.624,7.842 -2.549,11.1 0,0.063 0,0.094 0,0.138 0.138,0.101 0.28,0.195 0.425,0.283 0.044,0.063 0.094,0.094 0.141,0.144 0.138,0.101 0.28,0.195 0.425,0.283 0.044,0.063 0.094,0.094 0.142,0.144 0.138,0.101 0.28,0.195 0.425,0.283 0.044,0.063 0.094,0.094 0.142,0.144 l 0.142,0.138 c 0.093,0.063 0.188,0.094 0.283,0.144 h 0.142 l 31.15,17.929 c 3.114,1.788 7.566,0.565 9.345,-2.561 1.779,-3.129 0.565,-7.603 -2.549,-9.391 l -22.09,-12.664 40.16,-27.21 c 2.557,-1.559 3.847,-4.947 2.979,-7.823 -0.868,-2.876 -3.814,-4.973 -6.802,-4.841 z"
       inkscape:connector-curvature="0"
       id="path66"
       style="color:#000000;fill:#ffffff" />
    <path
       d="m -238.68,178.27 -27.19,50.09"
       inkscape:connector-curvature="0"
       id="path68"
       style="fill:none;stroke:#ffffff;stroke-width:4.54199982;stroke-linecap:round" />
  </g>
</svg>
