<?xml version="1.0" encoding="UTF-8" standalone="no"?>
<!-- Created with Inkscape (http://www.inkscape.org/) -->

<svg
   xmlns:dc="http://purl.org/dc/elements/1.1/"
   xmlns:cc="http://creativecommons.org/ns#"
   xmlns:rdf="http://www.w3.org/1999/02/22-rdf-syntax-ns#"
   xmlns:svg="http://www.w3.org/2000/svg"
   xmlns="http://www.w3.org/2000/svg"
   xmlns:xlink="http://www.w3.org/1999/xlink"
   xmlns:inkscape="http://www.inkscape.org/namespaces/inkscape"
   version="1.1"
   width="100%"
   height="100%"
   viewBox="0 0 512 512"
   id="svg2">
  <metadata
     id="metadata194">
    <rdf:RDF>
      <cc:Work
         rdf:about="">
        <dc:format>image/svg+xml</dc:format>
        <dc:type
           rdf:resource="http://purl.org/dc/dcmitype/StillImage" />
      </cc:Work>
    </rdf:RDF>
  </metadata>
  <defs
     id="defs4">
    <clipPath
       id="1">
      <path
         d="M 26,0 C 11.603,0 0,11.603 0,26 v 460 c 0,14.397 11.603,26 26,26 h 460 c 14.397,0 26,-11.603 26,-26 V 26 C 512,11.603 500.397,0 486,0 H 26"
         inkscape:connector-curvature="0"
         id="path7" />
    </clipPath>
  </defs>
  <path
     d="M 26,0 C 11.603,0 0,11.603 0,26 v 460 c 0,14.397 11.603,26 26,26 h 460 c 14.397,0 26,-11.603 26,-26 V 26 C 512,11.603 500.397,0 486,0 H 26"
     inkscape:connector-curvature="0"
     id="path9"
     style="fill:#666666" />
  <g
     clip-path="url(#1)"
     id="g11"
     style="opacity:0.25;color:#000000;fill-rule:evenodd">
    <path
       d="m 120.95,73.03 c -44.15,0 -79.952,35.799 -79.952,79.952 l 353.55,353.55 c 0,-44.15 35.799,-79.952 79.952,-79.952 z"
       inkscape:connector-curvature="0"
       id="path13" />
    <path
       d="m 41,152.99 c 0,22.08 8.95,42.06 23.419,56.53 l 353.55,353.55 C 403.5,548.601 394.55,528.613 394.55,506.54 z"
       inkscape:connector-curvature="0"
       id="path15" />
    <path
       d="m 64.42,209.52 c 14.469,14.469 34.457,23.419 56.53,23.419 l 353.55,353.55 c -22.08,0 -42.06,-8.95 -56.53,-23.419 z"
       inkscape:connector-curvature="0"
       id="path17" />
    <path
       d="m 120.95,232.94 c 44.15,0 79.952,-35.799 79.952,-79.952 l 353.55,353.55 c 0,44.15 -35.799,79.952 -79.952,79.952 z"
       inkscape:connector-curvature="0"
       id="path19" />
    <path
       d="m 200.9,152.99 c 0,-22.08 -8.95,-42.06 -23.419,-56.53 l 353.55,353.55 c 14.469,14.469 23.419,34.457 23.419,56.53 z"
       inkscape:connector-curvature="0"
       id="path21" />
    <path
       d="M 177.49,96.45 C 163.021,81.981 143.033,73.031 120.96,73.031 l 353.55,353.55 c 22.08,0 42.06,8.95 56.53,23.419 z"
       inkscape:connector-curvature="0"
       id="path23" />
    <path
       d="m 391.05,77.06 c -44.15,0 -79.952,35.799 -79.952,79.952 l 353.55,353.55 c 0,-44.15 35.799,-79.952 79.952,-79.952 z"
       inkscape:connector-curvature="0"
       id="path25" />
    <path
       d="m 311.1,157.01 c 0,22.07 8.941,42.03 23.397,56.49 l 353.55,353.55 C 673.591,552.594 664.65,532.626 664.65,510.56 z"
       inkscape:connector-curvature="0"
       id="path27" />
    <path
       d="m 334.49,213.5 c 14.471,14.471 34.467,23.418 56.56,23.418 l 353.55,353.55 c -22.09,0 -42.08,-8.948 -56.56,-23.418 z"
       inkscape:connector-curvature="0"
       id="path29" />
    <path
       d="m 391.05,236.92 c 44.15,0 79.952,-35.755 79.952,-79.908 l 353.55,353.55 c 0,44.15 -35.799,79.908 -79.952,79.908 z"
       inkscape:connector-curvature="0"
       id="path31" />
    <path
       d="m 471,157.01 c 0,-22.08 -8.95,-42.06 -23.419,-56.53 l 353.55,353.55 c 14.469,14.469 23.419,34.457 23.419,56.53 z"
       inkscape:connector-curvature="0"
       id="path33" />
    <path
       d="M 447.58,100.48 C 433.111,86.011 413.123,77.061 391.05,77.061 l 353.55,353.55 c 22.08,0 42.06,8.95 56.53,23.419 z"
       inkscape:connector-curvature="0"
       id="path35" />
    <path
       d="m 250.09,223.88 c -27.354,0.299 -41.696,11.367 -60.13,19.04 l 353.55,353.55 c 18.432,-7.669 32.774,-18.737 60.13,-19.04 z"
       inkscape:connector-curvature="0"
       id="path37" />
    <path
       d="m 189.96,242.92 c -30.414,99.91 61.03,142.36 70.02,196.05 L 613.53,792.52 C 604.539,738.824 513.1,696.38 543.51,596.47 z"
       inkscape:connector-curvature="0"
       id="path39" />
    <path
       d="M 259.98,438.97 C 273.13,388.171 347.62,329.09 330,242.92 l 353.55,353.55 c 17.622,86.17 -56.868,145.25 -70.02,196.05 z"
       inkscape:connector-curvature="0"
       id="path41" />
    <path
       d="m 330,242.92 c -36.39,-14.396 -61.19,-19.241 -79.908,-19.04 l 353.55,353.55 c 18.716,-0.204 43.518,4.64 79.908,19.04 z"
       inkscape:connector-curvature="0"
       id="path43" />
  </g>
  <path
     d="m 120.95,73.03 c -44.15,0 -79.952,35.799 -79.952,79.952 0,44.15 35.799,79.952 79.952,79.952 44.15,0 79.952,-35.799 79.952,-79.952 0,-44.15 -35.799,-79.952 -79.952,-79.952 m 270.1,4.03 c -44.15,0 -79.952,35.799 -79.952,79.952 0,44.15 35.799,79.908 79.952,79.908 44.15,0 79.952,-35.755 79.952,-79.908 0,-44.15 -35.799,-79.952 -79.952,-79.952 M 250.09,223.88 c -27.354,0.299 -41.696,11.367 -60.13,19.04 -30.414,99.91 61.03,142.36 70.02,196.05 13.15,-50.799 87.64,-109.88 70.02,-196.05 -36.39,-14.396 -61.19,-19.241 -79.908,-19.04"
     inkscape:connector-curvature="0"
     id="path45"
     style="color:#000000;fill:#ffffff;fill-rule:evenodd" />
  <g
     id="g89"
     style="line-height:125%;letter-spacing:0;word-spacing:0;font-family:Gentium Book Basic">
  </g>
  <g
     id="g137"
     style="line-height:125%;letter-spacing:0;word-spacing:0;font-family:Gentium Book Basic">
  </g>
  <path
     d="m -695.45987,-76.1999 a 57.95499,57.95499 0 1 1 -115.90998,0 57.95499,57.95499 0 1 1 115.90998,0"
     inkscape:connector-curvature="0"
     transform="matrix(0.52252,0,0,0.52252,750.7,174.8)"
     id="0"
     style="color:#000000;fill:#666666;fill-rule:evenodd" />
  <use
     transform="translate(-202.05,-4)"
     id="use190"
     x="0"
     y="0"
     width="1"
     height="1"
     xlink:href="#0" />
</svg>
