<?xml version="1.0" encoding="UTF-8" standalone="no"?>
<!-- Created with Inkscape (http://www.inkscape.org/) -->

<svg
   xmlns:dc="http://purl.org/dc/elements/1.1/"
   xmlns:cc="http://creativecommons.org/ns#"
   xmlns:rdf="http://www.w3.org/1999/02/22-rdf-syntax-ns#"
   xmlns:svg="http://www.w3.org/2000/svg"
   xmlns="http://www.w3.org/2000/svg"
   xmlns:inkscape="http://www.inkscape.org/namespaces/inkscape"
   version="1.1"
   width="100%"
   height="100%"
   viewBox="0 0 512 512"
   id="svg2">
  <metadata
     id="metadata135">
    <rdf:RDF>
      <cc:Work
         rdf:about="">
        <dc:format>image/svg+xml</dc:format>
        <dc:type
           rdf:resource="http://purl.org/dc/dcmitype/StillImage" />
      </cc:Work>
    </rdf:RDF>
  </metadata>
  <defs
     id="defs4">
    <clipPath
       id="0">
      <rect
         width="512"
         height="512"
         rx="25.988001"
         x="0"
         y="0"
         id="rect7"
         style="fill:#666666" />
    </clipPath>
  </defs>
  <rect
     width="512"
     height="512"
     rx="25.988001"
     x="0"
     y="0"
     id="rect9"
     style="fill:#666666" />
  <text
     x="90.120003"
     y="169.81"
     id="text11"
     style="font-size:129.22999573px;line-height:125%;letter-spacing:0;word-spacing:0;font-family:Gentium Book Basic">
    <tspan
       x="90.120003"
       y="169.81"
       id="tspan13" />
  </text>
  <text
     x="219.53999"
     y="332.26999"
     transform="scale(4.0128,0.2492)"
     id="text15"
     style="font-size:46.95399857px;text-anchor:middle;font-family:Arial" />
  <text
     x="671.39001"
     y="89.809998"
     id="text17"
     style="font-size:129.22999573px;line-height:125%;letter-spacing:0;word-spacing:0;font-family:Gentium Book Basic">
    <tspan
       x="671.39001"
       y="89.809998"
       id="tspan19" />
  </text>
  <text
     x="364.39001"
     y="11.227"
     transform="scale(4.0128,0.2492)"
     id="text21"
     style="font-size:46.95399857px;text-anchor:middle;font-family:Arial" />
  <text
     x="-400.19"
     y="-91.449997"
     id="text23"
     style="font-size:129.22999573px;line-height:125%;letter-spacing:0;word-spacing:0;font-family:Gentium Book Basic">
    <tspan
       x="-400.19"
       y="-91.449997"
       id="tspan25" />
  </text>
  <text
     x="97.349998"
     y="-716.12"
     transform="scale(4.0128,0.2492)"
     id="text27"
     style="font-size:46.95399857px;text-anchor:middle;font-family:Arial" />
  <text
     x="697.85999"
     y="-307.92001"
     id="text29"
     style="font-size:129.22999573px;line-height:125%;letter-spacing:0;word-spacing:0;font-family:Gentium Book Basic">
    <tspan
       x="697.85999"
       y="-307.92001"
       id="tspan31" />
  </text>
  <text
     x="370.98999"
     y="-1584.79"
     transform="scale(4.0128,0.2492)"
     id="text33"
     style="font-size:46.95399857px;text-anchor:middle;font-family:Arial" />
  <text
     x="1279.13"
     y="-387.92001"
     id="text35"
     style="font-size:129.22999573px;line-height:125%;letter-spacing:0;word-spacing:0;font-family:Gentium Book Basic">
    <tspan
       x="1279.13"
       y="-387.92001"
       id="tspan37" />
  </text>
  <text
     x="515.84003"
     y="-1905.8199"
     transform="scale(4.0128,0.2492)"
     id="text39"
     style="font-size:46.95399857px;text-anchor:middle;font-family:Arial" />
  <text
     x="890.01001"
     y="-860.32001"
     id="text41"
     style="font-size:129.22999573px;line-height:125%;letter-spacing:0;word-spacing:0;font-family:Gentium Book Basic">
    <tspan
       x="890.01001"
       y="-860.32001"
       id="tspan43" />
  </text>
  <text
     x="418.87"
     y="-3801.47"
     transform="scale(4.0128,0.2492)"
     id="text45"
     style="font-size:46.95399857px;text-anchor:middle;font-family:Arial" />
  <text
     x="1471.27"
     y="-940.33002"
     id="text47"
     style="font-size:129.22999573px;line-height:125%;letter-spacing:0;word-spacing:0;font-family:Gentium Book Basic">
    <tspan
       x="1471.27"
       y="-940.33002"
       id="tspan49" />
  </text>
  <text
     x="563.71997"
     y="-4122.5098"
     transform="scale(4.0128,0.2492)"
     id="text51"
     style="font-size:46.95399857px;text-anchor:middle;font-family:Arial" />
  <text
     x="-361.53"
     y="474.39001"
     id="text53"
     style="font-size:208.33000183px;line-height:125%;letter-spacing:0;word-spacing:0;font-family:Gentium Book Basic">
    <tspan
       x="-361.53"
       y="474.39001"
       id="tspan55" />
  </text>
  <g
     clip-path="url(#0)"
     id="g57"
     style="opacity:0.23000004;fill-rule:evenodd">
    <path
       d="m 313.82,146.13 c -13.642,0 -25.517,7.671 -31.492,18.934 l 282.84,282.84 c 5.976,-11.262 17.85,-18.934 31.492,-18.934 z"
       inkscape:connector-curvature="0"
       id="path59" />
    <path
       d="m 282.32,165.07 h -56.38 l 282.84,282.84 h 56.38 z"
       inkscape:connector-curvature="0"
       id="path61" />
    <path
       d="m 225.94,165.07 -78.54,78.57 282.84,282.84 78.54,-78.57 z"
       inkscape:connector-curvature="0"
       id="path63" />
    <path
       d="m 147.41,243.64 h -13.88 l 282.84,282.84 h 13.88 z"
       inkscape:connector-curvature="0"
       id="path65" />
    <path
       d="m 133.53,243.64 c -2.413,-6.486 -6.197,-12.305 -10.999,-17.11 l 282.84,282.84 c 4.802,4.802 8.586,10.622 10.999,17.11 z"
       inkscape:connector-curvature="0"
       id="path67" />
    <path
       d="m 122.53,226.53 c -8.648,-8.648 -20.596,-13.996 -33.785,-13.996 l 282.84,282.84 c 13.188,0 25.14,5.349 33.785,13.996 z"
       inkscape:connector-curvature="0"
       id="path69" />
    <path
       d="m 88.74,212.54 c -26.375,0 -47.743,21.368 -47.743,47.743 l 282.84,282.84 c 0,-26.375 21.368,-47.743 47.743,-47.743 z"
       inkscape:connector-curvature="0"
       id="path71" />
    <path
       d="m 41,260.28 c 0,13.197 5.35,25.15 14,33.8 l 282.84,282.84 c -8.65,-8.65 -14,-20.603 -14,-33.8 z"
       inkscape:connector-curvature="0"
       id="path73" />
    <path
       d="m 55,294.08 c 8.637,8.637 20.566,13.981 33.744,13.981 l 282.84,282.84 c -13.178,0 -25.11,-5.344 -33.744,-13.981 z"
       inkscape:connector-curvature="0"
       id="path75" />
    <path
       d="m 88.74,308.06 c 20.512,0 38.03,-12.94 44.784,-31.1 l 282.84,282.84 c -6.754,18.16 -24.272,31.1 -44.784,31.1 z"
       inkscape:connector-curvature="0"
       id="path77" />
    <path
       d="m 133.53,276.96 h 74.42 L 490.79,559.8 h -74.42 z"
       inkscape:connector-curvature="0"
       id="path79" />
    <path
       d="m 207.94,276.96 76.51,76.51 282.84,282.84 -76.51,-76.51 z"
       inkscape:connector-curvature="0"
       id="path81" />
    <path
       d="m 284.45,353.47 h 59.721 l 282.84,282.84 H 567.29 z"
       inkscape:connector-curvature="0"
       id="path83" />
    <path
       d="m 344.18,353.47 v 12.403 l 282.84,282.84 V 636.31 z"
       inkscape:connector-curvature="0"
       id="path85" />
    <path
       d="m 344.18,365.87 h 55.14 l 282.84,282.84 h -55.14 z"
       inkscape:connector-curvature="0"
       id="path87" />
    <path
       d="m 399.31,365.87 v -58.12 l 282.84,282.84 v 58.12 z"
       inkscape:connector-curvature="0"
       id="path89" />
    <path
       d="m 399.31,307.75 h -55.14 l 282.84,282.84 h 55.14 z"
       inkscape:connector-curvature="0"
       id="path91" />
    <path
       d="m 344.18,307.75 v 12.441 l 282.84,282.84 V 590.59 z"
       inkscape:connector-curvature="0"
       id="path93" />
    <path
       d="m 344.18,320.19 h -45.876 l 282.84,282.84 h 45.876 z"
       inkscape:connector-curvature="0"
       id="path95" />
    <path
       d="m 298.3,320.19 -43.23,-43.23 282.84,282.84 43.23,43.23 z"
       inkscape:connector-curvature="0"
       id="path97" />
    <path
       d="M 255.06,276.95 H 405.17 L 688.01,559.79 H 537.9 z"
       inkscape:connector-curvature="0"
       id="path99" />
    <path
       d="m 405.18,276.95 0.155,25.15 282.84,282.84 -0.155,-25.15 z"
       inkscape:connector-curvature="0"
       id="path101" />
    <path
       d="M 405.33,302.11 471,260.316 753.84,543.156 688.17,584.95 z"
       inkscape:connector-curvature="0"
       id="path103" />
    <path
       d="m 471,260.32 -66.13,-40.936 282.84,282.84 66.13,40.936 z"
       inkscape:connector-curvature="0"
       id="path105" />
    <path
       d="m 404.87,219.38 0.155,24.26 282.84,282.84 -0.155,-24.26 z"
       inkscape:connector-curvature="0"
       id="path107" />
    <path
       d="M 405.02,243.64 H 221.74 l 282.84,282.84 h 183.28 z"
       inkscape:connector-curvature="0"
       id="path109" />
    <path
       d="m 221.74,243.64 -0.272,-0.272 282.84,282.84 0.272,0.272 z"
       inkscape:connector-curvature="0"
       id="path111" />
    <path
       d="m 221.47,243.37 -0.272,0.272 282.84,282.84 0.272,-0.272 z"
       inkscape:connector-curvature="0"
       id="path113" />
    <path
       d="m 221.2,243.64 h -26.71 l 282.84,282.84 h 26.71 z"
       inkscape:connector-curvature="0"
       id="path115" />
    <path
       d="m 194.49,243.64 45.26,-45.26 282.84,282.84 -45.26,45.26 z"
       inkscape:connector-curvature="0"
       id="path117" />
    <path
       d="m 239.74,198.38 h 42.573 l 282.84,282.84 H 522.58 z"
       inkscape:connector-curvature="0"
       id="path119" />
    <path
       d="m 282.32,198.38 c 1.667,3.142 3.792,6 6.286,8.498 l 282.84,282.84 c -2.494,-2.494 -4.619,-5.356 -6.286,-8.498 z"
       inkscape:connector-curvature="0"
       id="path121" />
    <path
       d="m 288.6,206.88 c 6.449,6.449 15.365,10.435 25.21,10.435 l 282.84,282.84 c -9.842,0 -18.758,-3.986 -25.21,-10.435 z"
       inkscape:connector-curvature="0"
       id="path123" />
    <path
       d="m 313.81,217.32 c 19.664,0 35.576,-15.911 35.576,-35.576 l 282.84,282.84 c 0,19.665 -15.912,35.576 -35.576,35.576 z"
       inkscape:connector-curvature="0"
       id="path125" />
    <path
       d="m 349.39,181.74 c 0,-9.842 -3.986,-18.753 -10.433,-25.2 l 282.84,282.84 c 6.447,6.447 10.433,15.358 10.433,25.2 z"
       inkscape:connector-curvature="0"
       id="path127" />
    <path
       d="m 338.95,156.54 c -6.434,-6.434 -15.32,-10.414 -25.14,-10.414 l 282.84,282.84 c 9.823,0 18.709,3.98 25.14,10.414 z"
       inkscape:connector-curvature="0"
       id="path129" />
  </g>
  <path
     d="m 313.82,146.13 c -13.642,0 -25.517,7.671 -31.492,18.934 h -56.38 l -78.54,78.57 h -13.88 c -6.758,-18.17 -24.272,-31.1 -44.784,-31.1 -26.375,0 -47.743,21.368 -47.743,47.743 0,26.375 21.368,47.782 47.743,47.782 20.512,0 38.03,-12.94 44.784,-31.1 h 74.42 l 76.51,76.51 h 59.721 v 12.403 h 55.14 v -58.12 h -55.14 v 12.441 h -45.876 l -43.23,-43.23 h 150.11 l 0.155,25.15 65.67,-41.794 -66.13,-40.936 0.155,24.26 h -183.28 l -0.272,-0.272 -0.272,0.272 h -26.71 l 45.26,-45.26 h 42.573 c 5.977,11.268 17.845,18.934 31.492,18.934 19.664,0 35.576,-15.911 35.576,-35.576 0,-19.664 -15.911,-35.614 -35.576,-35.614"
     inkscape:connector-curvature="0"
     id="path131"
     style="fill:#ffffff;fill-rule:evenodd" />
</svg>
