<?xml version="1.0" encoding="UTF-8" standalone="no"?>
<!-- Created with Inkscape (http://www.inkscape.org/) -->

<svg
   xmlns:dc="http://purl.org/dc/elements/1.1/"
   xmlns:cc="http://creativecommons.org/ns#"
   xmlns:rdf="http://www.w3.org/1999/02/22-rdf-syntax-ns#"
   xmlns:svg="http://www.w3.org/2000/svg"
   xmlns="http://www.w3.org/2000/svg"
   xmlns:sodipodi="http://sodipodi.sourceforge.net/DTD/sodipodi-0.dtd"
   xmlns:inkscape="http://www.inkscape.org/namespaces/inkscape"
   version="1.1"
   width="100%"
   height="100%"
   viewBox="0 0 512 512"
   id="svg2"
   inkscape:version="0.48.5 r10040"
   sodipodi:docname="eidete.svg">
  <sodipodi:namedview
     pagecolor="#ffffff"
     bordercolor="#666666"
     borderopacity="1"
     objecttolerance="10"
     gridtolerance="10"
     guidetolerance="10"
     inkscape:pageopacity="0"
     inkscape:pageshadow="2"
     inkscape:window-width="684"
     inkscape:window-height="480"
     id="namedview119"
     showgrid="false"
     inkscape:zoom="0.4609375"
     inkscape:cx="256"
     inkscape:cy="256"
     inkscape:window-x="0"
     inkscape:window-y="0"
     inkscape:window-maximized="0"
     inkscape:current-layer="svg2" />
  <metadata
     id="metadata2686">
    <rdf:RDF>
      <cc:Work
         rdf:about="">
        <dc:format>image/svg+xml</dc:format>
        <dc:type
           rdf:resource="http://purl.org/dc/dcmitype/StillImage" />
      </cc:Work>
    </rdf:RDF>
  </metadata>
  <defs
     id="defs4">
    <clipPath
       id="0">
      <path
         d="M 26,0 C 11.603,0 0,11.603 0,26 v 460 c 0,14.397 11.603,26 26,26 h 460 c 14.397,0 26,-11.603 26,-26 V 26 C 512,11.603 500.397,0 486,0 H 26"
         inkscape:connector-curvature="0"
         id="path7" />
    </clipPath>
    <radialGradient
       cx="260.07999"
       cy="40.994999"
       r="256"
       id="1"
       gradientUnits="userSpaceOnUse"
       gradientTransform="matrix(0.82409,-0.82409,0.70711,0.70711,16.763,226.34)">
      <stop
         id="stop10"
         style="stop-color:#f6b493;stop-opacity:1"
         offset="0" />
      <stop
         id="stop12"
         style="stop-color:#ae1f37;stop-opacity:1"
         offset="1" />
    </radialGradient>
  </defs>
  <path
     d="M 26,0 C 11.603,0 0,11.603 0,26 v 460 c 0,14.397 11.603,26 26,26 h 460 c 14.397,0 26,-11.603 26,-26 V 26 C 512,11.603 500.397,0 486,0 H 26"
     inkscape:connector-curvature="0"
     id="path14"
     style="fill:#666666;fill-opacity:1" />
  <g
     id="g58"
     style="line-height:125%;letter-spacing:0;word-spacing:0;font-family:Gentium Book Basic" />
  <g
     id="g106"
     style="line-height:125%;letter-spacing:0;word-spacing:0;font-family:Gentium Book Basic" />
  <g
     id="g154"
     style="line-height:125%;letter-spacing:0;word-spacing:0;font-family:Gentium Book Basic" />
  <g
     id="g202"
     style="line-height:125%;letter-spacing:0;word-spacing:0;font-family:Gentium Book Basic" />
  <g
     id="g250"
     style="line-height:125%;letter-spacing:0;word-spacing:0;font-family:Gentium Book Basic" />
  <g
     id="g298"
     style="line-height:125%;letter-spacing:0;word-spacing:0;font-family:Gentium Book Basic" />
  <g
     id="g346"
     style="line-height:125%;letter-spacing:0;word-spacing:0;font-family:Gentium Book Basic" />
  <g
     id="g394"
     style="line-height:125%;letter-spacing:0;word-spacing:0;font-family:Gentium Book Basic" />
  <g
     id="g442"
     style="line-height:125%;letter-spacing:0;word-spacing:0;font-family:Gentium Book Basic" />
  <g
     id="g490"
     style="line-height:125%;letter-spacing:0;word-spacing:0;font-family:Gentium Book Basic" />
  <g
     id="g538"
     style="line-height:125%;letter-spacing:0;word-spacing:0;font-family:Gentium Book Basic" />
  <g
     id="g586"
     style="line-height:125%;letter-spacing:0;word-spacing:0;font-family:Gentium Book Basic" />
  <g
     id="g634"
     style="line-height:125%;letter-spacing:0;word-spacing:0;font-family:Gentium Book Basic" />
  <g
     id="g682"
     style="line-height:125%;letter-spacing:0;word-spacing:0;font-family:Gentium Book Basic" />
  <g
     id="g730"
     style="font-size:208.33000183px;line-height:125%;letter-spacing:0;word-spacing:0;font-family:Gentium Book Basic" />
  <g
     id="g862"
     style="line-height:125%;letter-spacing:0;word-spacing:0;font-family:Gentium Book Basic" />
  <g
     id="g910"
     style="line-height:125%;letter-spacing:0;word-spacing:0;font-family:Gentium Book Basic" />
  <g
     id="g958"
     style="font-size:208.33000183px;line-height:125%;letter-spacing:0;word-spacing:0;font-family:Gentium Book Basic" />
  <g
     id="g1090"
     style="line-height:125%;letter-spacing:0;word-spacing:0;font-family:Gentium Book Basic" />
  <g
     id="g1138"
     style="line-height:125%;letter-spacing:0;word-spacing:0;font-family:Gentium Book Basic" />
  <g
     id="g1186"
     style="font-size:208.33000183px;line-height:125%;letter-spacing:0;word-spacing:0;font-family:Gentium Book Basic" />
  <g
     id="g1318"
     style="line-height:125%;letter-spacing:0;word-spacing:0;font-family:Gentium Book Basic" />
  <g
     id="g1366"
     style="line-height:125%;letter-spacing:0;word-spacing:0;font-family:Gentium Book Basic" />
  <g
     id="g1414"
     style="font-size:208.33000183px;line-height:125%;letter-spacing:0;word-spacing:0;font-family:Gentium Book Basic" />
  <g
     id="g1546"
     style="line-height:125%;letter-spacing:0;word-spacing:0;font-family:Gentium Book Basic" />
  <g
     id="g1594"
     style="line-height:125%;letter-spacing:0;word-spacing:0;font-family:Gentium Book Basic" />
  <g
     id="g1642"
     style="line-height:125%;letter-spacing:0;word-spacing:0;font-family:Gentium Book Basic" />
  <g
     id="g1690"
     style="line-height:125%;letter-spacing:0;word-spacing:0;font-family:Gentium Book Basic" />
  <g
     id="g1738"
     style="line-height:125%;letter-spacing:0;word-spacing:0;font-family:Gentium Book Basic" />
  <g
     id="g1786"
     style="line-height:125%;letter-spacing:0;word-spacing:0;font-family:Gentium Book Basic" />
  <g
     id="g1834"
     style="line-height:125%;letter-spacing:0;word-spacing:0;font-family:Gentium Book Basic" />
  <g
     id="g1882"
     style="line-height:125%;letter-spacing:0;word-spacing:0;font-family:Gentium Book Basic" />
  <g
     id="g1930"
     style="line-height:125%;letter-spacing:0;word-spacing:0;font-family:Gentium Book Basic" />
  <g
     id="g1978"
     style="line-height:125%;letter-spacing:0;word-spacing:0;font-family:Gentium Book Basic" />
  <g
     id="g2026"
     style="line-height:125%;letter-spacing:0;word-spacing:0;font-family:Gentium Book Basic" />
  <g
     id="g2074"
     style="line-height:125%;letter-spacing:0;word-spacing:0;font-family:Gentium Book Basic" />
  <g
     id="g2122"
     style="line-height:125%;letter-spacing:0;word-spacing:0;font-family:Gentium Book Basic" />
  <g
     id="g2170"
     style="line-height:125%;letter-spacing:0;word-spacing:0;font-family:Gentium Book Basic" />
  <g
     id="g2218"
     style="line-height:125%;letter-spacing:0;word-spacing:0;font-family:Gentium Book Basic" />
  <g
     id="g2266"
     style="line-height:125%;letter-spacing:0;word-spacing:0;font-family:Gentium Book Basic" />
  <g
     id="g2314"
     style="line-height:125%;letter-spacing:0;word-spacing:0;font-family:Gentium Book Basic" />
  <g
     id="g2362"
     style="line-height:125%;letter-spacing:0;word-spacing:0;font-family:Gentium Book Basic" />
  <g
     id="g2410"
     style="line-height:125%;letter-spacing:0;word-spacing:0;font-family:Gentium Book Basic" />
  <g
     id="g2458"
     style="line-height:125%;letter-spacing:0;word-spacing:0;font-family:Gentium Book Basic" />
  <g
     id="g2506"
     style="line-height:125%;letter-spacing:0;word-spacing:0;font-family:Gentium Book Basic" />
  <g
     clip-path="url(#0)"
     id="g2558"
     style="opacity:0.25;color:#000000">
    <path
       d="M 112.42,59.32 C 73.19,59.32 41,91.55 41,130.78 l 353.55,353.55 c 0,-39.23 32.18,-71.46 71.42,-71.46 z"
       inkscape:connector-curvature="0"
       id="path2560" />
    <path
       d="M 41,130.78 V 287.37 L 394.55,640.92 V 484.33 z"
       inkscape:connector-curvature="0"
       id="path2562" />
    <path
       d="m 41,287.37 c 0,19.627 8.05,37.5 21.02,50.46 l 353.55,353.55 c -12.962,-12.962 -21.02,-30.836 -21.02,-50.46 z"
       inkscape:connector-curvature="0"
       id="path2564" />
    <path
       d="m 62.02,337.83 c 12.949,12.949 30.794,20.997 50.4,20.997 l 353.55,353.55 c -19.606,0 -37.452,-8.05 -50.4,-20.996 z"
       inkscape:connector-curvature="0"
       id="path2566" />
    <path
       d="M 112.42,358.83 H 399.59 L 753.14,712.38 H 465.97 z"
       inkscape:connector-curvature="0"
       id="path2568" />
    <path
       d="m 399.58,358.83 c 39.23,0 71.42,-32.23 71.42,-71.46 l 353.55,353.55 c 0,39.23 -32.18,71.46 -71.42,71.46 z"
       inkscape:connector-curvature="0"
       id="path2570" />
    <path
       d="M 471,287.37 V 130.78 l 353.55,353.55 v 156.59 z"
       inkscape:connector-curvature="0"
       id="path2572" />
    <path
       d="m 471,130.78 c 0,-19.627 -8.05,-37.5 -21.02,-50.46 l 353.55,353.55 c 12.962,12.962 21.02,30.836 21.02,50.46 z"
       inkscape:connector-curvature="0"
       id="path2574" />
    <path
       d="M 449.98,80.32 C 437.031,67.371 419.186,59.323 399.58,59.323 l 353.55,353.55 c 19.606,0 37.452,8.05 50.4,20.997 z"
       inkscape:connector-curvature="0"
       id="path2576" />
    <path
       d="M 399.58,59.32 H 112.41 l 353.55,353.55 h 287.17 z"
       inkscape:connector-curvature="0"
       id="path2578" />
    <path
       d="M 118.11,94.3 H 393.89 L 747.44,447.85 H 471.66 z"
       inkscape:connector-curvature="0"
       id="path2580" />
    <path
       d="m 393.89,94.3 c 11.266,0 21.391,4.478 28.685,11.772 l 353.55,353.55 C 768.831,452.328 758.706,447.85 747.44,447.85 z"
       inkscape:connector-curvature="0"
       id="path2582" />
    <path
       d="m 422.58,106.08 c 7.246,7.246 11.698,17.271 11.698,28.444 l 353.55,353.55 c 0,-11.173 -4.452,-21.2 -11.698,-28.444 z"
       inkscape:connector-curvature="0"
       id="path2584" />
    <path
       d="M 434.27,134.52 V 283.63 L 787.82,637.18 V 488.07 z"
       inkscape:connector-curvature="0"
       id="path2586" />
    <path
       d="m 434.27,283.63 c 0,22.421 -17.961,40.38 -40.38,40.38 l 353.55,353.55 c 22.422,0 40.38,-17.962 40.38,-40.38 z"
       inkscape:connector-curvature="0"
       id="path2588" />
    <path
       d="M 393.89,324.01 H 118.11 l 353.55,353.55 h 275.78 z"
       inkscape:connector-curvature="0"
       id="path2590" />
    <path
       d="m 118.11,324.01 c -11.21,0 -21.306,-4.491 -28.599,-11.784 l 353.55,353.55 c 7.293,7.293 17.389,11.784 28.599,11.784 z"
       inkscape:connector-curvature="0"
       id="path2592" />
    <path
       d="M 89.51,312.23 C 82.217,304.937 77.726,294.841 77.726,283.631 l 353.55,353.55 c 0,11.21 4.491,21.306 11.784,28.599 z"
       inkscape:connector-curvature="0"
       id="path2594" />
    <path
       d="M 77.73,283.63 V 134.52 l 353.55,353.55 v 149.11 z"
       inkscape:connector-curvature="0"
       id="path2596" />
    <path
       d="m 77.73,134.52 c 0,-22.421 17.926,-40.22 40.38,-40.22 l 353.55,353.55 c -22.457,0 -40.38,17.796 -40.38,40.22 z"
       inkscape:connector-curvature="0"
       id="path2598" />
    <path
       d="m 138.09,147.69 c -13.479,0 -24.346,10.867 -24.346,24.346 l 353.55,353.55 c 0,-13.479 10.867,-24.346 24.346,-24.346 z"
       inkscape:connector-curvature="0"
       id="path2600" />
    <path
       d="m 113.75,172.04 v 79.69 L 467.3,605.28 v -79.69 z"
       inkscape:connector-curvature="0"
       id="path2602" />
    <path
       d="m 113.75,251.72 c 0,6.739 2.717,12.826 7.118,17.227 l 353.55,353.55 C 470.016,618.095 467.3,612.009 467.3,605.27 z"
       inkscape:connector-curvature="0"
       id="path2604" />
    <path
       d="m 120.87,268.95 c 4.402,4.402 10.488,7.118 17.227,7.118 l 353.55,353.55 c -6.739,0 -12.826,-2.717 -17.227,-7.118 z"
       inkscape:connector-curvature="0"
       id="path2606" />
    <path
       d="m 138.09,276.07 h 127.8 l 353.55,353.55 h -127.8 z"
       inkscape:connector-curvature="0"
       id="path2608" />
    <path
       d="m 265.89,276.07 c 13.479,0 24.346,-10.867 24.346,-24.346 l 353.55,353.55 c 0,13.479 -10.867,24.346 -24.346,24.346 z"
       inkscape:connector-curvature="0"
       id="path2610" />
    <path
       d="m 290.23,251.72 v -79.69 l 353.55,353.55 v 79.69 z"
       inkscape:connector-curvature="0"
       id="path2612" />
    <path
       d="m 290.23,172.04 c 0,-6.739 -2.717,-12.826 -7.118,-17.227 l 353.55,353.55 c 4.402,4.402 7.118,10.488 7.118,17.227 z"
       inkscape:connector-curvature="0"
       id="path2614" />
    <path
       d="m 283.12,154.81 c -4.402,-4.402 -10.488,-7.118 -17.227,-7.118 l 353.55,353.55 c 6.739,0 12.826,2.717 17.227,7.118 z"
       inkscape:connector-curvature="0"
       id="path2616" />
    <path
       d="m 265.89,147.69 h -127.8 l 353.55,353.55 h 127.8 z"
       inkscape:connector-curvature="0"
       id="path2618" />
    <path
       d="M 368.84,160.94 V 262.81 L 722.39,616.36 V 514.49 z"
       inkscape:connector-curvature="0"
       id="path2620" />
    <path
       d="m 368.84,262.81 h 29.414 l 353.55,353.55 H 722.39 z"
       inkscape:connector-curvature="0"
       id="path2622" />
    <path
       d="M 398.25,262.81 V 160.94 L 751.8,514.49 v 101.87 z"
       inkscape:connector-curvature="0"
       id="path2624" />
    <path
       d="m 398.25,160.94 h -29.414 l 353.55,353.55 H 751.8 z"
       inkscape:connector-curvature="0"
       id="path2626" />
    <path
       d="m 316.74,183.67 v 56.54 l 353.55,353.55 v -56.54 z"
       inkscape:connector-curvature="0"
       id="path2628" />
    <path
       d="m 316.74,240.21 h 22.435 l 353.55,353.55 H 670.29 z"
       inkscape:connector-curvature="0"
       id="path2630" />
    <path
       d="m 339.17,240.21 v -56.54 l 353.55,353.55 v 56.54 z"
       inkscape:connector-curvature="0"
       id="path2632" />
    <path
       d="m 339.17,183.67 h -22.435 l 353.55,353.55 h 22.435 z"
       inkscape:connector-curvature="0"
       id="path2634" />
    <path
       d="m 345.91,328.33 c 3.728,0 7.093,1.501 9.526,3.935 l 353.55,353.55 c -2.433,-2.433 -5.799,-3.935 -9.526,-3.935 z"
       inkscape:connector-curvature="0"
       id="path2636" />
    <path
       d="m 355.43,332.27 c 2.433,2.433 3.935,5.798 3.935,9.526 l 353.55,353.55 c 0,-3.728 -1.501,-7.093 -3.935,-9.526 z"
       inkscape:connector-curvature="0"
       id="path2638" />
    <path
       d="m 359.37,341.79 c 0,7.455 -6,13.502 -13.461,13.502 l 353.55,353.55 c 7.456,0 13.461,-6.05 13.461,-13.502 z"
       inkscape:connector-curvature="0"
       id="path2640" />
    <path
       d="m 345.91,355.29 c -3.738,0 -7.132,-1.52 -9.588,-3.976 l 353.55,353.55 c 2.456,2.456 5.85,3.976 9.588,3.976 z"
       inkscape:connector-curvature="0"
       id="path2642" />
    <path
       d="m 336.32,351.32 c -2.442,-2.442 -3.956,-5.809 -3.956,-9.526 l 353.55,353.55 c 0,3.717 1.514,7.084 3.956,9.526 z"
       inkscape:connector-curvature="0"
       id="path2644" />
    <path
       d="m 332.36,341.79 c 0,-7.455 6.089,-13.461 13.544,-13.461 l 353.55,353.55 c -7.455,0 -13.544,6.01 -13.544,13.461 z"
       inkscape:connector-curvature="0"
       id="path2646" />
    <path
       d="m 233.19,377.73 c -8.877,0 -16.04,7.16 -16.04,16.04 L 570.7,747.32 c 0,-8.877 7.16,-16.04 16.04,-16.04 z"
       inkscape:connector-curvature="0"
       id="path2648" />
    <path
       d="m 217.15,393.77 v 34.691 L 570.7,782.011 V 747.32 z"
       inkscape:connector-curvature="0"
       id="path2650" />
    <path
       d="m 217.15,428.46 c 0,0.37 0.017,0.717 0.041,1.08 l 353.55,353.55 c -0.024,-0.363 -0.041,-0.711 -0.041,-1.08 z"
       inkscape:connector-curvature="0"
       id="path2652" />
    <path
       d="m 217.2,429.54 h -68.47 l 353.55,353.55 h 68.47 z"
       inkscape:connector-curvature="0"
       id="path2654" />
    <path
       d="m 148.73,429.54 c -6.409,0 -11.591,5.182 -11.591,11.591 l 353.55,353.55 c 0,-6.409 5.182,-11.591 11.591,-11.591 z"
       inkscape:connector-curvature="0"
       id="path2656" />
    <path
       d="m 137.14,441.13 c 0,3.194 1.287,6.073 3.372,8.158 l 353.55,353.55 c -2.085,-2.085 -3.372,-4.964 -3.372,-8.158 z"
       inkscape:connector-curvature="0"
       id="path2658" />
    <path
       d="m 140.51,449.29 c 2.098,2.098 5,3.392 8.219,3.392 l 353.55,353.55 c -3.215,0 -6.121,-1.293 -8.219,-3.392 z"
       inkscape:connector-curvature="0"
       id="path2660" />
    <path
       d="M 148.73,452.68 H 356.96 L 710.51,806.23 H 502.28 z"
       inkscape:connector-curvature="0"
       id="path2662" />
    <path
       d="m 356.96,452.68 c 6.409,0 11.55,-5.141 11.55,-11.55 l 353.55,353.55 c 0,6.409 -5.141,11.55 -11.55,11.55 z"
       inkscape:connector-curvature="0"
       id="path2664" />
    <path
       d="m 368.51,441.13 c 0,-3.215 -1.293,-6.121 -3.392,-8.219 l 353.55,353.55 c 2.098,2.098 3.392,5 3.392,8.219 z"
       inkscape:connector-curvature="0"
       id="path2666" />
    <path
       d="m 365.11,432.91 c -2.085,-2.085 -4.964,-3.372 -8.158,-3.372 l 353.55,353.55 c 3.194,0 6.073,1.287 8.158,3.372 z"
       inkscape:connector-curvature="0"
       id="path2668" />
    <path
       d="m 356.96,429.54 h -67.3 l 353.55,353.55 h 67.3 z"
       inkscape:connector-curvature="0"
       id="path2670" />
    <path
       d="m 289.65,429.54 c 0.024,-0.363 0.041,-0.711 0.041,-1.08 l 353.55,353.55 c 0,0.37 -0.017,0.717 -0.041,1.08 z"
       inkscape:connector-curvature="0"
       id="path2672" />
    <path
       d="m 289.69,428.46 v -34.691 l 353.55,353.55 v 34.691 z"
       inkscape:connector-curvature="0"
       id="path2674" />
    <path
       d="m 289.69,393.77 c 0,-4.438 -1.79,-8.448 -4.69,-11.347 l 353.55,353.55 c 2.9,2.9 4.69,6.909 4.69,11.347 z"
       inkscape:connector-curvature="0"
       id="path2676" />
    <path
       d="m 285,382.42 c -2.9,-2.9 -6.909,-4.69 -11.347,-4.69 l 353.55,353.55 c 4.438,0 8.448,1.79 11.347,4.69 z"
       inkscape:connector-curvature="0"
       id="path2678" />
    <path
       d="m 273.66,377.73 h -40.466 l 353.55,353.55 h 40.466 z"
       inkscape:connector-curvature="0"
       id="path2680" />
  </g>
  <path
     d="M 112.42,59.32 C 73.19,59.32 41,91.55 41,130.78 v 156.59 c 0,39.23 32.18,71.46 71.42,71.46 h 287.17 c 39.23,0 71.42,-32.23 71.42,-71.46 V 130.78 c 0,-39.23 -32.18,-71.46 -71.42,-71.46 H 112.42 m 5.692,34.982 h 275.78 c 22.458,0 40.38,17.796 40.38,40.22 v 149.11 c 0,22.421 -17.961,40.38 -40.38,40.38 h -275.78 c -22.419,0 -40.38,-17.962 -40.38,-40.38 v -149.11 c 0,-22.421 17.926,-40.22 40.38,-40.22 m 19.984,53.39 c -13.479,0 -24.346,10.867 -24.346,24.346 v 79.69 c 0,13.479 10.867,24.346 24.346,24.346 h 127.8 c 13.479,0 24.346,-10.867 24.346,-24.346 v -79.69 c 0,-13.479 -10.867,-24.346 -24.346,-24.346 h -127.8 m 230.75,13.253 v 101.87 h 29.414 v -101.87 h -29.414 m -52.1,22.726 v 56.54 h 22.435 v -56.54 h -22.435 m 29.17,144.66 c 7.455,0 13.461,6 13.461,13.461 0,7.455 -6,13.502 -13.461,13.502 -7.455,0 -13.544,-6.05 -13.544,-13.502 0,-7.455 6.089,-13.461 13.544,-13.461 m -112.71,49.4 c -8.877,0 -16.04,7.16 -16.04,16.04 v 34.691 c 0,0.37 0.017,0.717 0.041,1.08 h -68.47 c -6.409,0 -11.591,5.182 -11.591,11.591 0,6.409 5.182,11.55 11.591,11.55 h 208.23 c 6.409,0 11.55,-5.141 11.55,-11.55 0,-6.409 -5.141,-11.591 -11.55,-11.591 h -67.3 c 0.024,-0.363 0.041,-0.711 0.041,-1.08 v -34.691 c 0,-8.877 -7.16,-16.04 -16.04,-16.04 h -40.466 z"
     inkscape:connector-curvature="0"
     id="path2682"
     style="color:#000000;fill:#ffffff" />
</svg>
