<?xml version="1.0" encoding="UTF-8" standalone="no"?>
<!-- Created with Inkscape (http://www.inkscape.org/) -->

<svg
   xmlns:dc="http://purl.org/dc/elements/1.1/"
   xmlns:cc="http://creativecommons.org/ns#"
   xmlns:rdf="http://www.w3.org/1999/02/22-rdf-syntax-ns#"
   xmlns:svg="http://www.w3.org/2000/svg"
   xmlns="http://www.w3.org/2000/svg"
   xmlns:inkscape="http://www.inkscape.org/namespaces/inkscape"
   version="1.1"
   width="100%"
   height="100%"
   viewBox="0 0 512 512"
   id="svg2">
  <metadata
     id="metadata203">
    <rdf:RDF>
      <cc:Work
         rdf:about="">
        <dc:format>image/svg+xml</dc:format>
        <dc:type
           rdf:resource="http://purl.org/dc/dcmitype/StillImage" />
      </cc:Work>
    </rdf:RDF>
  </metadata>
  <defs
     id="defs4">
    <clipPath
       id="0">
      <path
         d="M 26,0 C 11.603,0 0,11.603 0,26 v 460 c 0,14.397 11.603,26 26,26 h 460 c 14.397,0 26,-11.603 26,-26 V 26 C 512,11.603 500.397,0 486,0 H 26"
         inkscape:connector-curvature="0"
         id="path11" />
    </clipPath>
  </defs>
  <path
     d="M 26,0 C 11.603,0 0,11.603 0,26 v 460 c 0,14.397 11.603,26 26,26 h 460 c 14.397,0 26,-11.603 26,-26 V 26 C 512,11.603 500.397,0 486,0 H 26"
     inkscape:connector-curvature="0"
     id="path13"
     style="fill:#666666" />
  <text
     x="71.720001"
     y="119.19"
     id="text15"
     style="font-size:129.22999573px;line-height:125%;letter-spacing:0;word-spacing:0;font-family:Gentium Book Basic">
    <tspan
       x="71.720001"
       y="119.19"
       id="tspan17" />
  </text>
  <text
     x="214.95"
     y="129.11"
     transform="scale(4.0128,0.2492)"
     id="text19"
     style="font-size:46.95399857px;text-anchor:middle;font-family:Arial" />
  <text
     x="652.98999"
     y="39.189999"
     id="text21"
     style="font-size:129.22999573px;line-height:125%;letter-spacing:0;word-spacing:0;font-family:Gentium Book Basic">
    <tspan
       x="652.98999"
       y="39.189999"
       id="tspan23" />
  </text>
  <text
     x="359.79999"
     y="-191.92"
     transform="scale(4.0128,0.2492)"
     id="text25"
     style="font-size:46.95399857px;text-anchor:middle;font-family:Arial" />
  <text
     x="-418.59"
     y="-142.08"
     id="text27"
     style="font-size:129.22999573px;line-height:125%;letter-spacing:0;word-spacing:0;font-family:Gentium Book Basic">
    <tspan
       x="-418.59"
       y="-142.08"
       id="tspan29" />
  </text>
  <text
     x="92.760002"
     y="-919.28003"
     transform="scale(4.0128,0.2492)"
     id="text31"
     style="font-size:46.95399857px;text-anchor:middle;font-family:Arial" />
  <text
     x="679.46002"
     y="-358.54001"
     id="text33"
     style="font-size:129.22999573px;line-height:125%;letter-spacing:0;word-spacing:0;font-family:Gentium Book Basic">
    <tspan
       x="679.46002"
       y="-358.54001"
       id="tspan35" />
  </text>
  <text
     x="366.39999"
     y="-1787.9399"
     transform="scale(4.0128,0.2492)"
     id="text37"
     style="font-size:46.95399857px;text-anchor:middle;font-family:Arial" />
  <text
     x="1260.73"
     y="-438.54999"
     id="text39"
     style="font-size:129.22999573px;line-height:125%;letter-spacing:0;word-spacing:0;font-family:Gentium Book Basic">
    <tspan
       x="1260.73"
       y="-438.54999"
       id="tspan41" />
  </text>
  <text
     x="511.25"
     y="-2108.98"
     transform="scale(4.0128,0.2492)"
     id="text43"
     style="font-size:46.95399857px;text-anchor:middle;font-family:Arial" />
  <text
     x="871.60999"
     y="-910.95001"
     id="text45"
     style="font-size:129.22999573px;line-height:125%;letter-spacing:0;word-spacing:0;font-family:Gentium Book Basic">
    <tspan
       x="871.60999"
       y="-910.95001"
       id="tspan47" />
  </text>
  <text
     x="414.28"
     y="-4004.6299"
     transform="scale(4.0128,0.2492)"
     id="text49"
     style="font-size:46.95399857px;text-anchor:middle;font-family:Arial" />
  <text
     x="1452.87"
     y="-990.95001"
     id="text51"
     style="font-size:129.22999573px;line-height:125%;letter-spacing:0;word-spacing:0;font-family:Gentium Book Basic">
    <tspan
       x="1452.87"
       y="-990.95001"
       id="tspan53" />
  </text>
  <text
     x="559.13"
     y="-4325.6602"
     transform="scale(4.0128,0.2492)"
     id="text55"
     style="font-size:46.95399857px;text-anchor:middle;font-family:Arial" />
  <text
     x="-379.92999"
     y="423.76999"
     id="text57"
     style="font-size:208.33000183px;line-height:125%;letter-spacing:0;word-spacing:0;font-family:Gentium Book Basic">
    <tspan
       x="-379.92999"
       y="423.76999"
       id="tspan59" />
  </text>
  <g
     clip-path="url(#0)"
     id="g61"
     style="opacity:0.25">
    <path
       d="M 154.57,42.33 V 93.35 L 366.7,305.48 v -51.02 z"
       inkscape:connector-curvature="0"
       id="path63" />
    <path
       d="m 154.57,93.35 h 89.35 L 456.05,305.48 H 366.7 z"
       inkscape:connector-curvature="0"
       id="path65" />
    <path
       d="M 243.92,93.35 V 42.33 l 212.13,212.13 v 51.02 z"
       inkscape:connector-curvature="0"
       id="path67" />
    <path
       d="M 243.92,42.33 H 154.57 L 366.7,254.46 h 89.35 z"
       inkscape:connector-curvature="0"
       id="path69" />
    <path
       d="m 154.57,117.6 v 51.02 L 366.7,380.75 v -51.02 z"
       inkscape:connector-curvature="0"
       id="path71" />
    <path
       d="m 154.57,168.63 h 89.35 L 456.05,380.76 H 366.7 z"
       inkscape:connector-curvature="0"
       id="path73" />
    <path
       d="m 243.92,168.63 v -51.02 l 212.13,212.13 v 51.02 z"
       inkscape:connector-curvature="0"
       id="path75" />
    <path
       d="M 243.92,117.6 H 154.57 L 366.7,329.73 h 89.35 z"
       inkscape:connector-curvature="0"
       id="path77" />
    <path
       d="M 41.03,192.88 V 243.9 L 253.16,456.03 V 405.01 z"
       inkscape:connector-curvature="0"
       id="path79" />
    <path
       d="m 41.03,243.9 h 89.35 l 212.13,212.13 h -89.35 z"
       inkscape:connector-curvature="0"
       id="path81" />
    <path
       d="m 130.38,243.9 v -51.02 l 212.13,212.13 v 51.02 z"
       inkscape:connector-curvature="0"
       id="path83" />
    <path
       d="M 130.38,192.88 H 41.03 l 212.13,212.13 h 89.35 z"
       inkscape:connector-curvature="0"
       id="path85" />
    <path
       d="M 154.57,192.88 V 243.9 L 366.7,456.03 v -51.02 z"
       inkscape:connector-curvature="0"
       id="path87" />
    <path
       d="m 154.57,243.9 h 89.35 L 456.05,456.03 H 366.7 z"
       inkscape:connector-curvature="0"
       id="path89" />
    <path
       d="m 243.92,243.9 v -51.02 l 212.13,212.13 v 51.02 z"
       inkscape:connector-curvature="0"
       id="path91" />
    <path
       d="M 243.92,192.88 H 154.57 L 366.7,405.01 h 89.35 z"
       inkscape:connector-curvature="0"
       id="path93" />
    <path
       d="M 381.65,192.88 V 243.9 L 593.78,456.03 V 405.01 z"
       inkscape:connector-curvature="0"
       id="path95" />
    <path
       d="M 381.65,243.9 H 471 l 212.13,212.13 h -89.35 z"
       inkscape:connector-curvature="0"
       id="path97" />
    <path
       d="m 471,243.9 v -51.02 l 212.13,212.13 v 51.02 z"
       inkscape:connector-curvature="0"
       id="path99" />
    <path
       d="m 471,192.88 h -89.35 l 212.13,212.13 h 89.35 z"
       inkscape:connector-curvature="0"
       id="path101" />
    <path
       d="m 41.03,268.1 v 51.02 l 212.13,212.13 v -51.02 z"
       inkscape:connector-curvature="0"
       id="path103" />
    <path
       d="m 41.03,319.12 h 89.35 l 212.13,212.13 h -89.35 z"
       inkscape:connector-curvature="0"
       id="path105" />
    <path
       d="M 130.38,319.12 V 268.1 l 212.13,212.13 v 51.02 z"
       inkscape:connector-curvature="0"
       id="path107" />
    <path
       d="M 130.38,268.1 H 41.03 l 212.13,212.13 h 89.35 z"
       inkscape:connector-curvature="0"
       id="path109" />
    <path
       d="m 154.57,268.1 v 51.02 L 366.7,531.25 v -51.02 z"
       inkscape:connector-curvature="0"
       id="path111" />
    <path
       d="m 154.57,319.12 h 89.35 L 456.05,531.25 H 366.7 z"
       inkscape:connector-curvature="0"
       id="path113" />
    <path
       d="M 243.92,319.12 V 268.1 l 212.13,212.13 v 51.02 z"
       inkscape:connector-curvature="0"
       id="path115" />
    <path
       d="M 243.92,268.1 H 154.57 L 366.7,480.23 h 89.35 z"
       inkscape:connector-curvature="0"
       id="path117" />
    <path
       d="m 268.1,268.1 v 51.02 l 212.13,212.13 v -51.02 z"
       inkscape:connector-curvature="0"
       id="path119" />
    <path
       d="m 268.1,319.12 h 89.35 l 212.13,212.13 h -89.35 z"
       inkscape:connector-curvature="0"
       id="path121" />
    <path
       d="M 357.45,319.12 V 268.1 l 212.13,212.13 v 51.02 z"
       inkscape:connector-curvature="0"
       id="path123" />
    <path
       d="M 357.45,268.1 H 268.1 l 212.13,212.13 h 89.35 z"
       inkscape:connector-curvature="0"
       id="path125" />
    <path
       d="m 381.63,268.1 v 51.02 l 212.13,212.13 v -51.02 z"
       inkscape:connector-curvature="0"
       id="path127" />
    <path
       d="m 381.63,319.12 h 89.35 l 212.13,212.13 h -89.35 z"
       inkscape:connector-curvature="0"
       id="path129" />
    <path
       d="M 470.98,319.12 V 268.1 l 212.13,212.13 v 51.02 z"
       inkscape:connector-curvature="0"
       id="path131" />
    <path
       d="m 470.98,268.1 h -89.35 l 212.13,212.13 h 89.35 z"
       inkscape:connector-curvature="0"
       id="path133" />
    <path
       d="m 41.02,343.37 v 51.02 L 253.15,606.52 V 555.5 z"
       inkscape:connector-curvature="0"
       id="path135" />
    <path
       d="m 41.02,394.4 h 89.35 L 342.5,606.53 h -89.35 z"
       inkscape:connector-curvature="0"
       id="path137" />
    <path
       d="M 130.37,394.4 V 343.38 L 342.5,555.51 v 51.02 z"
       inkscape:connector-curvature="0"
       id="path139" />
    <path
       d="M 130.37,343.37 H 41.02 L 253.15,555.5 h 89.35 z"
       inkscape:connector-curvature="0"
       id="path141" />
    <path
       d="m 154.55,343.37 v 51.02 L 366.68,606.52 V 555.5 z"
       inkscape:connector-curvature="0"
       id="path143" />
    <path
       d="M 154.55,394.4 H 243.9 L 456.03,606.53 H 366.68 z"
       inkscape:connector-curvature="0"
       id="path145" />
    <path
       d="m 243.9,394.4 v -51.02 l 212.13,212.13 v 51.02 z"
       inkscape:connector-curvature="0"
       id="path147" />
    <path
       d="M 243.9,343.37 H 154.55 L 366.68,555.5 h 89.35 z"
       inkscape:connector-curvature="0"
       id="path149" />
    <path
       d="m 268.08,343.37 v 51.02 L 480.21,606.52 V 555.5 z"
       inkscape:connector-curvature="0"
       id="path151" />
    <path
       d="m 268.08,394.4 h 89.35 l 212.13,212.13 h -89.35 z"
       inkscape:connector-curvature="0"
       id="path153" />
    <path
       d="m 357.43,394.4 v -51.02 l 212.13,212.13 v 51.02 z"
       inkscape:connector-curvature="0"
       id="path155" />
    <path
       d="M 357.43,343.37 H 268.08 L 480.21,555.5 h 89.35 z"
       inkscape:connector-curvature="0"
       id="path157" />
    <path
       d="m 381.62,343.37 v 51.02 L 593.75,606.52 V 555.5 z"
       inkscape:connector-curvature="0"
       id="path159" />
    <path
       d="m 381.62,394.4 h 89.35 L 683.1,606.53 h -89.35 z"
       inkscape:connector-curvature="0"
       id="path161" />
    <path
       d="M 470.97,394.4 V 343.38 L 683.1,555.51 v 51.02 z"
       inkscape:connector-curvature="0"
       id="path163" />
    <path
       d="M 470.97,343.37 H 381.62 L 593.75,555.5 h 89.35 z"
       inkscape:connector-curvature="0"
       id="path165" />
    <path
       d="m 41,418.65 v 51.02 L 253.13,681.8 v -51.02 z"
       inkscape:connector-curvature="0"
       id="path167" />
    <path
       d="m 41,469.67 h 89.35 L 342.48,681.8 h -89.35 z"
       inkscape:connector-curvature="0"
       id="path169" />
    <path
       d="M 130.35,469.67 V 418.65 L 342.48,630.78 V 681.8 z"
       inkscape:connector-curvature="0"
       id="path171" />
    <path
       d="M 130.35,418.65 H 41 l 212.13,212.13 h 89.35 z"
       inkscape:connector-curvature="0"
       id="path173" />
    <path
       d="m 154.53,418.65 v 51.02 L 366.66,681.8 v -51.02 z"
       inkscape:connector-curvature="0"
       id="path175" />
    <path
       d="m 154.53,469.67 h 89.35 L 456.01,681.8 h -89.35 z"
       inkscape:connector-curvature="0"
       id="path177" />
    <path
       d="M 243.88,469.67 V 418.65 L 456.01,630.78 V 681.8 z"
       inkscape:connector-curvature="0"
       id="path179" />
    <path
       d="m 243.88,418.65 h -89.35 l 212.13,212.13 h 89.35 z"
       inkscape:connector-curvature="0"
       id="path181" />
    <path
       d="m 268.07,418.65 v 51.02 L 480.2,681.8 v -51.02 z"
       inkscape:connector-curvature="0"
       id="path183" />
    <path
       d="m 268.07,469.67 h 89.35 L 569.55,681.8 H 480.2 z"
       inkscape:connector-curvature="0"
       id="path185" />
    <path
       d="M 357.42,469.67 V 418.65 L 569.55,630.78 V 681.8 z"
       inkscape:connector-curvature="0"
       id="path187" />
    <path
       d="M 357.42,418.65 H 268.07 L 480.2,630.78 h 89.35 z"
       inkscape:connector-curvature="0"
       id="path189" />
    <path
       d="m 381.6,418.65 v 51.02 L 593.73,681.8 v -51.02 z"
       inkscape:connector-curvature="0"
       id="path191" />
    <path
       d="m 381.6,469.67 h 89.35 L 683.08,681.8 h -89.35 z"
       inkscape:connector-curvature="0"
       id="path193" />
    <path
       d="M 470.95,469.67 V 418.65 L 683.08,630.78 V 681.8 z"
       inkscape:connector-curvature="0"
       id="path195" />
    <path
       d="M 470.95,418.65 H 381.6 l 212.13,212.13 h 89.35 z"
       inkscape:connector-curvature="0"
       id="path197" />
  </g>
  <path
     d="m 154.57,42.33 v 51.02 h 89.35 V 42.33 h -89.35 m 0,75.27 v 51.02 h 89.35 V 117.6 H 154.57 M 41.04,192.87 v 51.02 h 89.35 V 192.87 H 41.04 m 113.53,0 v 51.02 h 89.35 v -51.02 h -89.35 m 227.08,0 v 51.02 H 471 V 192.87 H 381.65 M 41.03,268.09 v 51.02 h 89.35 V 268.09 H 41.03 m 113.53,0 v 51.02 h 89.35 v -51.02 h -89.35 m 113.53,0 v 51.02 h 89.35 v -51.02 h -89.35 m 113.53,0 v 51.02 h 89.35 V 268.09 H 381.62 M 41,343.36 v 51.02 h 89.35 V 343.36 H 41 m 113.53,0 v 51.02 h 89.35 v -51.02 h -89.35 m 113.53,0 v 51.02 h 89.35 v -51.02 h -89.35 m 113.53,0 v 51.02 h 89.35 V 343.36 H 381.59 M 40.97,418.63 v 51.02 h 89.35 V 418.63 H 40.97 m 113.53,0 v 51.02 h 89.35 V 418.63 H 154.5 m 113.53,0 v 51.02 h 89.35 v -51.02 h -89.35 m 113.53,0 v 51.02 h 89.35 v -51.02 h -89.35"
     inkscape:connector-curvature="0"
     id="path199"
     style="fill:#ffffff" />
</svg>
