<?xml version="1.0" encoding="UTF-8" standalone="no"?>
<!-- Created with Inkscape (http://www.inkscape.org/) -->

<svg
   xmlns:dc="http://purl.org/dc/elements/1.1/"
   xmlns:cc="http://creativecommons.org/ns#"
   xmlns:rdf="http://www.w3.org/1999/02/22-rdf-syntax-ns#"
   xmlns:svg="http://www.w3.org/2000/svg"
   xmlns="http://www.w3.org/2000/svg"
   xmlns:inkscape="http://www.inkscape.org/namespaces/inkscape"
   version="1.1"
   width="100%"
   height="100%"
   viewBox="0 0 512 512"
   id="svg2">
  <metadata
     id="metadata81">
    <rdf:RDF>
      <cc:Work
         rdf:about="">
        <dc:format>image/svg+xml</dc:format>
        <dc:type
           rdf:resource="http://purl.org/dc/dcmitype/StillImage" />
      </cc:Work>
    </rdf:RDF>
  </metadata>
  <defs
     id="defs4">
    <clipPath
       id="0">
      <rect
         width="512"
         height="512"
         rx="25.988001"
         x="0"
         y="0"
         id="rect7"
         style="fill:#666666" />
    </clipPath>
  </defs>
  <rect
     width="512"
     height="512"
     rx="25.988001"
     x="0"
     y="0"
     id="rect9"
     style="fill:#666666" />
  <text
     x="25.694"
     y="202.02"
     id="text11"
     style="font-size:129.22999573px;line-height:125%;letter-spacing:0;word-spacing:0;font-family:Gentium Book Basic">
    <tspan
       x="25.694"
       y="202.02"
       id="tspan13" />
  </text>
  <text
     x="203.48"
     y="461.53"
     transform="scale(4.0128,0.2492)"
     id="text15"
     style="font-size:46.95399857px;text-anchor:middle;font-family:Arial" />
  <text
     x="606.96002"
     y="122.02"
     id="text17"
     style="font-size:129.22999573px;line-height:125%;letter-spacing:0;word-spacing:0;font-family:Gentium Book Basic">
    <tspan
       x="606.96002"
       y="122.02"
       id="tspan19" />
  </text>
  <text
     x="348.32999"
     y="140.5"
     transform="scale(4.0128,0.2492)"
     id="text21"
     style="font-size:46.95399857px;text-anchor:middle;font-family:Arial" />
  <text
     x="-464.62"
     y="-59.240002"
     id="text23"
     style="font-size:129.22999573px;line-height:125%;letter-spacing:0;word-spacing:0;font-family:Gentium Book Basic">
    <tspan
       x="-464.62"
       y="-59.240002"
       id="tspan25" />
  </text>
  <text
     x="81.290001"
     y="-586.85999"
     transform="scale(4.0128,0.2492)"
     id="text27"
     style="font-size:46.95399857px;text-anchor:middle;font-family:Arial" />
  <text
     x="633.42999"
     y="-275.70999"
     id="text29"
     style="font-size:129.22999573px;line-height:125%;letter-spacing:0;word-spacing:0;font-family:Gentium Book Basic">
    <tspan
       x="633.42999"
       y="-275.70999"
       id="tspan31" />
  </text>
  <text
     x="354.92999"
     y="-1455.52"
     transform="scale(4.0128,0.2492)"
     id="text33"
     style="font-size:46.95399857px;text-anchor:middle;font-family:Arial" />
  <text
     x="1214.7"
     y="-355.72"
     id="text35"
     style="font-size:129.22999573px;line-height:125%;letter-spacing:0;word-spacing:0;font-family:Gentium Book Basic">
    <tspan
       x="1214.7"
       y="-355.72"
       id="tspan37" />
  </text>
  <text
     x="499.78"
     y="-1776.5601"
     transform="scale(4.0128,0.2492)"
     id="text39"
     style="font-size:46.95399857px;text-anchor:middle;font-family:Arial" />
  <text
     x="825.58002"
     y="-828.12"
     id="text41"
     style="font-size:129.22999573px;line-height:125%;letter-spacing:0;word-spacing:0;font-family:Gentium Book Basic">
    <tspan
       x="825.58002"
       y="-828.12"
       id="tspan43" />
  </text>
  <text
     x="402.81"
     y="-3672.21"
     transform="scale(4.0128,0.2492)"
     id="text45"
     style="font-size:46.95399857px;text-anchor:middle;font-family:Arial" />
  <text
     x="1406.84"
     y="-908.12"
     id="text47"
     style="font-size:129.22999573px;line-height:125%;letter-spacing:0;word-spacing:0;font-family:Gentium Book Basic">
    <tspan
       x="1406.84"
       y="-908.12"
       id="tspan49" />
  </text>
  <text
     x="547.65997"
     y="-3993.24"
     transform="scale(4.0128,0.2492)"
     id="text51"
     style="font-size:46.95399857px;text-anchor:middle;font-family:Arial" />
  <text
     x="-425.95999"
     y="506.60001"
     id="text53"
     style="font-size:208.33000183px;line-height:125%;letter-spacing:0;word-spacing:0;font-family:Gentium Book Basic">
    <tspan
       x="-425.95999"
       y="506.60001"
       id="tspan55" />
  </text>
  <g
     clip-path="url(#0)"
     id="g57"
     style="opacity:0.25">
    <path
       d="m 428,41.13 v 86.5 l 353.55,353.55 v -86.5 z"
       inkscape:connector-curvature="0"
       id="path59" />
    <path
       d="m 428,127.63 c -86.37,1.517 -107.59,85.75 -107.59,85.75 l 353.55,353.55 c 0,0 21.23,-84.23 107.59,-85.75 z"
       inkscape:connector-curvature="0"
       id="path61" />
    <path
       d="m 320.41,213.38 h 65.14 L 739.1,566.93 h -65.14 z"
       inkscape:connector-curvature="0"
       id="path63" />
    <path
       d="m 385.55,213.38 v 86.5 L 739.1,653.43 v -86.5 z"
       inkscape:connector-curvature="0"
       id="path65" />
    <path
       d="m 385.55,299.88 h -101 L 638.1,653.43 h 101 z"
       inkscape:connector-curvature="0"
       id="path67" />
    <path
       d="M 284.54,299.88 C 223.791,487.31 84,470.61 84,470.61 l 353.55,353.55 c 0,0 139.8,16.696 200.54,-170.73 z"
       inkscape:connector-curvature="0"
       id="path69" />
    <path
       d="m 83.998,470.62 v -86.5 l 353.55,353.55 v 86.5 z"
       inkscape:connector-curvature="0"
       id="path71" />
    <path
       d="m 83.998,384.11 c 0,0 88.71,16.45 133.94,-148.72 l 353.55,353.55 c -45.23,165.17 -133.94,148.72 -133.94,148.72 z"
       inkscape:connector-curvature="0"
       id="path73" />
    <path
       d="M 217.94,235.39 C 274.52,28.76 428,41.14 428,41.14 l 353.55,353.55 c 0,0 -153.48,-12.379 -210.06,194.25 z"
       inkscape:connector-curvature="0"
       id="path75" />
  </g>
  <path
     d="m 428,41.13 v 86.5 c -86.37,1.517 -107.59,85.75 -107.59,85.75 h 65.14 v 86.5 h -101 C 223.801,487.31 84.01,470.61 84.01,470.61 v -86.5 c 0,0 88.71,16.45 133.94,-148.72 C 274.53,28.76 428.01,41.14 428.01,41.14"
     inkscape:connector-curvature="0"
     id="path77"
     style="fill:#ffffff" />
</svg>
