<?xml version="1.0" encoding="UTF-8" standalone="no"?>
<!-- Created with Inkscape (http://www.inkscape.org/) -->

<svg
   xmlns:dc="http://purl.org/dc/elements/1.1/"
   xmlns:cc="http://creativecommons.org/ns#"
   xmlns:rdf="http://www.w3.org/1999/02/22-rdf-syntax-ns#"
   xmlns:svg="http://www.w3.org/2000/svg"
   xmlns="http://www.w3.org/2000/svg"
   xmlns:inkscape="http://www.inkscape.org/namespaces/inkscape"
   version="1.1"
   width="100%"
   height="100%"
   viewBox="0 0 512 512"
   id="svg2">
  <metadata
     id="metadata95">
    <rdf:RDF>
      <cc:Work
         rdf:about="">
        <dc:format>image/svg+xml</dc:format>
        <dc:type
           rdf:resource="http://purl.org/dc/dcmitype/StillImage" />
      </cc:Work>
    </rdf:RDF>
  </metadata>
  <defs
     id="defs4">
    <clipPath
       id="0">
      <rect
         width="512"
         height="512"
         rx="25.988001"
         x="0"
         y="0"
         id="rect7"
         style="fill:#666666" />
    </clipPath>
  </defs>
  <rect
     width="512"
     height="512"
     rx="25.988001"
     x="0"
     y="0"
     id="rect9"
     style="fill:#666666" />
  <text
     x="208.25"
     y="175.95"
     id="text11"
     style="font-size:129.22999573px;line-height:125%;letter-spacing:0;word-spacing:0;font-family:Gentium Book Basic">
    <tspan
       x="208.25"
       y="175.95"
       id="tspan13" />
  </text>
  <text
     x="248.98"
     y="356.88"
     transform="scale(4.0128,0.2492)"
     id="text15"
     style="font-size:46.95399857px;text-anchor:middle;font-family:Arial" />
  <text
     x="789.52002"
     y="95.949997"
     id="text17"
     style="font-size:129.22999573px;line-height:125%;letter-spacing:0;word-spacing:0;font-family:Gentium Book Basic">
    <tspan
       x="789.52002"
       y="95.949997"
       id="tspan19" />
  </text>
  <text
     x="393.82999"
     y="35.849998"
     transform="scale(4.0128,0.2492)"
     id="text21"
     style="font-size:46.95399857px;text-anchor:middle;font-family:Arial" />
  <text
     x="-282.06"
     y="-85.32"
     id="text23"
     style="font-size:129.22999573px;line-height:125%;letter-spacing:0;word-spacing:0;font-family:Gentium Book Basic">
    <tspan
       x="-282.06"
       y="-85.32"
       id="tspan25" />
  </text>
  <text
     x="126.79"
     y="-691.51001"
     transform="scale(4.0128,0.2492)"
     id="text27"
     style="font-size:46.95399857px;text-anchor:middle;font-family:Arial" />
  <text
     x="815.98999"
     y="-301.78"
     id="text29"
     style="font-size:129.22999573px;line-height:125%;letter-spacing:0;word-spacing:0;font-family:Gentium Book Basic">
    <tspan
       x="815.98999"
       y="-301.78"
       id="tspan31" />
  </text>
  <text
     x="400.42999"
     y="-1560.17"
     transform="scale(4.0128,0.2492)"
     id="text33"
     style="font-size:46.95399857px;text-anchor:middle;font-family:Arial" />
  <text
     x="1397.26"
     y="-381.79001"
     id="text35"
     style="font-size:129.22999573px;line-height:125%;letter-spacing:0;word-spacing:0;font-family:Gentium Book Basic">
    <tspan
       x="1397.26"
       y="-381.79001"
       id="tspan37" />
  </text>
  <text
     x="545.27002"
     y="-1881.21"
     transform="scale(4.0128,0.2492)"
     id="text39"
     style="font-size:46.95399857px;text-anchor:middle;font-family:Arial" />
  <text
     x="1008.14"
     y="-854.19"
     id="text41"
     style="font-size:129.22999573px;line-height:125%;letter-spacing:0;word-spacing:0;font-family:Gentium Book Basic">
    <tspan
       x="1008.14"
       y="-854.19"
       id="tspan43" />
  </text>
  <text
     x="448.31"
     y="-3776.8601"
     transform="scale(4.0128,0.2492)"
     id="text45"
     style="font-size:46.95399857px;text-anchor:middle;font-family:Arial" />
  <text
     x="1589.4"
     y="-934.19"
     id="text47"
     style="font-size:129.22999573px;line-height:125%;letter-spacing:0;word-spacing:0;font-family:Gentium Book Basic">
    <tspan
       x="1589.4"
       y="-934.19"
       id="tspan49" />
  </text>
  <text
     x="593.15002"
     y="-4097.8901"
     transform="scale(4.0128,0.2492)"
     id="text51"
     style="font-size:46.95399857px;text-anchor:middle;font-family:Arial" />
  <text
     x="-243.39999"
     y="480.53"
     id="text53"
     style="font-size:208.33000183px;line-height:125%;letter-spacing:0;word-spacing:0;font-family:Gentium Book Basic">
    <tspan
       x="-243.39999"
       y="480.53"
       id="tspan55" />
  </text>
  <g
     clip-path="url(#0)"
     id="g57"
     style="opacity:0.25;color:#000000">
    <path
       d="m 370.5,148.48 c 27.828,0 52.944,11.207 71.11,29.37 L 795.16,531.4 C 777,513.24 751.88,502.03 724.05,502.03 z"
       inkscape:connector-curvature="0"
       id="path59" />
    <path
       d="m 441.61,177.85 c 18.18,18.18 29.392,43.32 29.392,71.17 l 353.55,353.55 c 0,-27.851 -11.214,-52.996 -29.392,-71.17 z"
       inkscape:connector-curvature="0"
       id="path61" />
    <path
       d="m 471,249.02 v 13.962 l 353.55,353.55 V 602.57 z"
       inkscape:connector-curvature="0"
       id="path63" />
    <path
       d="m 471,262.98 c 0,55.679 -44.823,100.54 -100.5,100.54 l 353.55,353.55 c 55.676,0 100.5,-44.865 100.5,-100.54 z"
       inkscape:connector-curvature="0"
       id="path65" />
    <path
       d="m 370.5,363.52 h -229 l 353.55,353.55 h 229 z"
       inkscape:connector-curvature="0"
       id="path67" />
    <path
       d="m 141.5,363.52 c -27.828,0 -52.944,-11.207 -71.11,-29.37 L 423.94,687.7 c 18.16,18.16 43.28,29.37 71.11,29.37 z"
       inkscape:connector-curvature="0"
       id="path69" />
    <path
       d="M 70.39,334.15 C 52.21,315.97 40.998,290.83 40.998,262.98 l 353.55,353.55 c 0,27.851 11.214,52.996 29.392,71.17 z"
       inkscape:connector-curvature="0"
       id="path71" />
    <path
       d="m 41,262.98 v -13.962 l 353.55,353.55 v 13.962 z"
       inkscape:connector-curvature="0"
       id="path73" />
    <path
       d="M 41,249.02 C 41,193.341 85.823,148.48 141.5,148.48 l 353.55,353.55 c -55.676,0 -100.5,44.865 -100.5,100.54 z"
       inkscape:connector-curvature="0"
       id="path75" />
    <path
       d="M 141.5,148.48 H 370.52 L 724.07,502.03 H 495.05 z"
       inkscape:connector-curvature="0"
       id="path77" />
    <path
       d="m 148.49,177.04 c -43.616,0 -78.962,35.35 -78.962,78.962 l 353.55,353.55 c 0,-43.61 35.35,-78.962 78.962,-78.962 z"
       inkscape:connector-curvature="0"
       id="path79" />
    <path
       d="m 69.52,256 c 0,21.807 8.837,41.547 23.13,55.835 l 353.55,353.55 c -14.288,-14.288 -23.13,-34.03 -23.13,-55.835 z"
       inkscape:connector-curvature="0"
       id="path81" />
    <path
       d="m 92.65,311.84 c 14.289,14.289 34.03,23.13 55.836,23.13 l 353.55,353.55 c -21.806,0 -41.547,-8.837 -55.836,-23.13 z"
       inkscape:connector-curvature="0"
       id="path83" />
    <path
       d="m 148.49,334.96 c 43.616,0 78.962,-35.35 78.962,-78.962 l 353.55,353.55 c 0,43.61 -35.35,78.962 -78.962,78.962 z"
       inkscape:connector-curvature="0"
       id="path85" />
    <path
       d="m 227.45,256 c 0,-21.807 -8.837,-41.547 -23.13,-55.835 l 353.55,353.55 c 14.288,14.288 23.13,34.03 23.13,55.835 z"
       inkscape:connector-curvature="0"
       id="path87" />
    <path
       d="m 204.32,200.16 c -14.289,-14.289 -34.03,-23.13 -55.836,-23.13 l 353.55,353.55 c 21.806,0 41.547,8.837 55.836,23.13 z"
       inkscape:connector-curvature="0"
       id="path89" />
  </g>
  <path
     d="m 370.5,148.48 c 55.679,0 100.5,44.865 100.5,100.54 v 13.962 c 0,55.679 -44.823,100.54 -100.5,100.54 h -229 C 85.821,363.522 41,318.657 41,262.982 V 249.02 C 41,193.341 85.823,148.48 141.5,148.48 h 229.02 m -222.03,28.563 c -43.616,0 -78.962,35.35 -78.962,78.962 0,43.616 35.35,78.962 78.962,78.962 43.616,0 78.962,-35.35 78.962,-78.962 0,-43.616 -35.35,-78.962 -78.962,-78.962"
     inkscape:connector-curvature="0"
     id="path91"
     style="color:#000000;fill:#ffffff" />
</svg>
