<?xml version="1.0" encoding="UTF-8" standalone="no"?>
<!-- Created with Inkscape (http://www.inkscape.org/) -->

<svg
   xmlns:dc="http://purl.org/dc/elements/1.1/"
   xmlns:cc="http://creativecommons.org/ns#"
   xmlns:rdf="http://www.w3.org/1999/02/22-rdf-syntax-ns#"
   xmlns:svg="http://www.w3.org/2000/svg"
   xmlns="http://www.w3.org/2000/svg"
   xmlns:sodipodi="http://sodipodi.sourceforge.net/DTD/sodipodi-0.dtd"
   xmlns:inkscape="http://www.inkscape.org/namespaces/inkscape"
   version="1.1"
   width="100%"
   height="100%"
   viewBox="0 0 512 512"
   id="svg2"
   inkscape:version="0.48.5 r10040"
   sodipodi:docname="giteye.svg">
  <sodipodi:namedview
     pagecolor="#ffffff"
     bordercolor="#666666"
     borderopacity="1"
     objecttolerance="10"
     gridtolerance="10"
     guidetolerance="10"
     inkscape:pageopacity="0"
     inkscape:pageshadow="2"
     inkscape:window-width="640"
     inkscape:window-height="480"
     id="namedview58"
     showgrid="false"
     inkscape:zoom="0.4609375"
     inkscape:cx="256"
     inkscape:cy="256"
     inkscape:window-x="56"
     inkscape:window-y="0"
     inkscape:window-maximized="0"
     inkscape:current-layer="svg2" />
  <metadata
     id="metadata113">
    <rdf:RDF>
      <cc:Work
         rdf:about="">
        <dc:format>image/svg+xml</dc:format>
        <dc:type
           rdf:resource="http://purl.org/dc/dcmitype/StillImage" />
      </cc:Work>
    </rdf:RDF>
  </metadata>
  <defs
     id="defs4">
    <clipPath
       id="0">
      <rect
         width="512"
         height="512"
         rx="25.988001"
         x="0"
         y="0"
         id="rect7"
         style="fill:#666666" />
    </clipPath>
  </defs>
  <rect
     width="512"
     height="512"
     rx="25.988001"
     x="0"
     y="0"
     id="rect9"
     style="fill:#666666" />
  <text
     x="125.41"
     y="223.5"
     id="text11"
     style="font-size:129.22999573px;line-height:125%;letter-spacing:0;word-spacing:0;font-family:Gentium Book Basic">
    <tspan
       x="125.41"
       y="223.5"
       id="tspan13" />
  </text>
  <text
     x="228.33"
     y="547.71002"
     transform="scale(4.0128,0.2492)"
     id="text15"
     style="font-size:46.95399857px;text-anchor:middle;font-family:Arial" />
  <text
     x="706.67999"
     y="143.5"
     id="text17"
     style="font-size:129.22999573px;line-height:125%;letter-spacing:0;word-spacing:0;font-family:Gentium Book Basic">
    <tspan
       x="706.67999"
       y="143.5"
       id="tspan19" />
  </text>
  <text
     x="373.17999"
     y="226.67999"
     transform="scale(4.0128,0.2492)"
     id="text21"
     style="font-size:46.95399857px;text-anchor:middle;font-family:Arial" />
  <text
     x="-364.89999"
     y="-37.759998"
     id="text23"
     style="font-size:129.22999573px;line-height:125%;letter-spacing:0;word-spacing:0;font-family:Gentium Book Basic">
    <tspan
       x="-364.89999"
       y="-37.759998"
       id="tspan25" />
  </text>
  <text
     x="106.14"
     y="-500.67001"
     transform="scale(4.0128,0.2492)"
     id="text27"
     style="font-size:46.95399857px;text-anchor:middle;font-family:Arial" />
  <text
     x="733.15002"
     y="-254.23"
     id="text29"
     style="font-size:129.22999573px;line-height:125%;letter-spacing:0;word-spacing:0;font-family:Gentium Book Basic">
    <tspan
       x="733.15002"
       y="-254.23"
       id="tspan31" />
  </text>
  <text
     x="379.78"
     y="-1369.34"
     transform="scale(4.0128,0.2492)"
     id="text33"
     style="font-size:46.95399857px;text-anchor:middle;font-family:Arial" />
  <text
     x="1314.42"
     y="-334.23999"
     id="text35"
     style="font-size:129.22999573px;line-height:125%;letter-spacing:0;word-spacing:0;font-family:Gentium Book Basic">
    <tspan
       x="1314.42"
       y="-334.23999"
       id="tspan37" />
  </text>
  <text
     x="524.63"
     y="-1690.38"
     transform="scale(4.0128,0.2492)"
     id="text39"
     style="font-size:46.95399857px;text-anchor:middle;font-family:Arial" />
  <text
     x="925.29999"
     y="-806.64001"
     id="text41"
     style="font-size:129.22999573px;line-height:125%;letter-spacing:0;word-spacing:0;font-family:Gentium Book Basic">
    <tspan
       x="925.29999"
       y="-806.64001"
       id="tspan43" />
  </text>
  <text
     x="427.66"
     y="-3586.03"
     transform="scale(4.0128,0.2492)"
     id="text45"
     style="font-size:46.95399857px;text-anchor:middle;font-family:Arial" />
  <text
     x="1506.5601"
     y="-886.64001"
     id="text47"
     style="font-size:129.22999573px;line-height:125%;letter-spacing:0;word-spacing:0;font-family:Gentium Book Basic">
    <tspan
       x="1506.5601"
       y="-886.64001"
       id="tspan49" />
  </text>
  <text
     x="572.51001"
     y="-3907.0601"
     transform="scale(4.0128,0.2492)"
     id="text51"
     style="font-size:46.95399857px;text-anchor:middle;font-family:Arial" />
  <text
     x="-326.23999"
     y="528.08002"
     id="text53"
     style="font-size:208.33000183px;line-height:125%;letter-spacing:0;word-spacing:0;font-family:Gentium Book Basic">
    <tspan
       x="-326.23999"
       y="528.08002"
       id="tspan55" />
  </text>
  <g
     clip-path="url(#0)"
     id="g57"
     style="opacity:0.25">
    <path
       d="m 88.85,303.75 c 0,19.782 8.01,37.677 20.962,50.632 l 353.55,353.55 C 450.407,694.977 442.4,677.082 442.4,657.3 z"
       inkscape:connector-curvature="0"
       id="path59" />
    <path
       d="m 109.81,354.39 c 7.468,7.468 16.58,13.294 26.751,16.894 l 353.55,353.55 c -10.171,-3.6 -19.283,-9.426 -26.751,-16.894 z"
       inkscape:connector-curvature="0"
       id="path61" />
    <path
       d="M 136.57,371.28 V 471 l 353.55,353.55 v -99.72 z"
       inkscape:connector-curvature="0"
       id="path63" />
    <path
       d="m 136.57,471 h 47.794 l 353.55,353.55 H 490.12 z"
       inkscape:connector-curvature="0"
       id="path65" />
    <path
       d="m 184.36,471 v -99.72 l 353.55,353.55 v 99.72 z"
       inkscape:connector-curvature="0"
       id="path67" />
    <path
       d="m 184.36,371.28 c 27.82,-9.853 47.794,-36.34 47.794,-67.53 l 353.55,353.55 c 0,31.19 -19.975,57.674 -47.794,67.53 z"
       inkscape:connector-curvature="0"
       id="path69" />
    <path
       d="m 232.15,303.75 c 0,-12.02 -3.02,-23.292 -8.248,-33.24 l 353.55,353.55 c 5.226,9.946 8.248,21.22 8.248,33.24 z"
       inkscape:connector-curvature="0"
       id="path71" />
    <path
       d="m 223.91,270.52 94.37,-94.37 353.55,353.55 -94.37,94.37 z"
       inkscape:connector-curvature="0"
       id="path73" />
    <path
       d="m 318.27,176.15 c 9.941,5.219 21.235,8.162 33.24,8.162 l 353.55,353.55 c -12,0 -23.296,-2.943 -33.24,-8.162 z"
       inkscape:connector-curvature="0"
       id="path75" />
    <path
       d="m 351.51,184.31 c 39.574,0 71.66,-32.08 71.66,-71.66 L 776.72,466.2 c 0,39.577 -32.08,71.66 -71.66,71.66 z"
       inkscape:connector-curvature="0"
       id="path77" />
    <path
       d="m 423.17,112.66 c 0,-19.787 -8.02,-37.701 -20.987,-50.668 l 353.55,353.55 c 12.967,12.967 20.987,30.881 20.987,50.668 z"
       inkscape:connector-curvature="0"
       id="path79" />
    <path
       d="M 402.18,61.987 C 389.213,49.02 371.3,41 351.512,41 l 353.55,353.55 c 19.788,0 37.701,8.02 50.668,20.987 z"
       inkscape:connector-curvature="0"
       id="path81" />
    <path
       d="m 351.51,41 c -39.574,0 -71.66,32.08 -71.66,71.66 L 633.4,466.21 c 0,-39.577 32.08,-71.66 71.66,-71.66 z"
       inkscape:connector-curvature="0"
       id="path83" />
    <path
       d="m 279.86,112.66 c 0,12.02 3.02,23.368 8.248,33.32 l 353.55,353.55 c -5.232,-9.951 -8.248,-21.297 -8.248,-33.32 z"
       inkscape:connector-curvature="0"
       id="path85" />
    <path
       d="m 288.11,145.97 -94.3,94.3 353.55,353.55 94.3,-94.3 z"
       inkscape:connector-curvature="0"
       id="path87" />
    <path
       d="m 193.81,240.27 c -3.02,-1.587 -6.211,-2.893 -9.461,-4.04 l 353.55,353.55 c 3.25,1.151 6.445,2.457 9.461,4.04 z"
       inkscape:connector-curvature="0"
       id="path89" />
    <path
       d="M 184.35,236.23 V 180.267 L 537.9,533.817 V 589.78 z"
       inkscape:connector-curvature="0"
       id="path91" />
    <path
       d="m 184.35,180.26 c 27.82,-9.853 47.794,-36.419 47.794,-67.61 l 353.55,353.55 c 0,31.19 -19.975,57.755 -47.794,67.61 z"
       inkscape:connector-curvature="0"
       id="path93" />
    <path
       d="m 232.14,112.66 c 0,-19.787 -8.02,-37.701 -20.987,-50.668 l 353.55,353.55 c 12.967,12.967 20.987,30.881 20.987,50.668 z"
       inkscape:connector-curvature="0"
       id="path95" />
    <path
       d="M 211.16,61.987 C 198.193,49.02 180.28,41 160.492,41 l 353.55,353.55 c 19.788,0 37.701,8.02 50.668,20.987 z"
       inkscape:connector-curvature="0"
       id="path97" />
    <path
       d="m 160.49,41 c -39.574,0 -71.66,32.08 -71.66,71.66 l 353.55,353.55 c 0,-39.577 32.08,-71.66 71.66,-71.66 z"
       inkscape:connector-curvature="0"
       id="path99" />
    <path
       d="m 88.83,112.66 c 0,19.806 8.03,37.753 21.01,50.736 l 353.55,353.55 c -12.983,-12.983 -21.01,-30.93 -21.01,-50.736 z"
       inkscape:connector-curvature="0"
       id="path101" />
    <path
       d="m 109.84,163.39 c 7.459,7.459 16.555,13.28 26.704,16.872 l 353.55,353.55 c -10.15,-3.592 -19.245,-9.413 -26.704,-16.872 z"
       inkscape:connector-curvature="0"
       id="path103" />
    <path
       d="m 136.55,180.26 v 55.963 L 490.1,589.773 V 533.81 z"
       inkscape:connector-curvature="0"
       id="path105" />
    <path
       d="m 136.55,236.23 c -27.82,9.853 -47.713,36.34 -47.713,67.53 l 353.55,353.55 c 0,-31.19 19.893,-57.674 47.713,-67.53 z"
       inkscape:connector-curvature="0"
       id="path107" />
  </g>
  <path
     d="m 88.85,303.75 c 0,31.19 19.898,57.682 47.713,67.53 V 471 h 47.794 v -99.72 c 27.82,-9.853 47.794,-36.34 47.794,-67.53 0,-12.02 -3.02,-23.292 -8.248,-33.24 l 94.37,-94.37 c 9.941,5.219 21.235,8.162 33.24,8.162 39.574,0 71.66,-32.08 71.66,-71.66 0,-39.574 -32.08,-71.66 -71.66,-71.66 -39.574,0 -71.66,32.08 -71.66,71.66 0,12.02 3.02,23.368 8.248,33.32 l -94.3,94.3 c -3.02,-1.587 -6.211,-2.893 -9.461,-4.04 v -55.963 c 27.82,-9.853 47.794,-36.419 47.794,-67.61 0,-39.574 -32.08,-71.66 -71.66,-71.66 -39.574,0 -71.66,32.08 -71.66,71.66 0,31.19 19.898,57.763 47.713,67.61 v 55.963 c -27.82,9.853 -47.713,36.34 -47.713,67.53"
     inkscape:connector-curvature="0"
     id="path109"
     style="fill:#ffffff" />
</svg>
