<?xml version="1.0" encoding="UTF-8" standalone="no"?>
<!-- Created with Inkscape (http://www.inkscape.org/) -->

<svg
   xmlns:dc="http://purl.org/dc/elements/1.1/"
   xmlns:cc="http://creativecommons.org/ns#"
   xmlns:rdf="http://www.w3.org/1999/02/22-rdf-syntax-ns#"
   xmlns:svg="http://www.w3.org/2000/svg"
   xmlns="http://www.w3.org/2000/svg"
   xmlns:inkscape="http://www.inkscape.org/namespaces/inkscape"
   version="1.1"
   width="100%"
   height="100%"
   viewBox="0 0 512 512"
   id="svg2">
  <metadata
     id="metadata10">
    <rdf:RDF>
      <cc:Work
         rdf:about="">
        <dc:format>image/svg+xml</dc:format>
        <dc:type
           rdf:resource="http://purl.org/dc/dcmitype/StillImage" />
        <dc:title />
      </cc:Work>
    </rdf:RDF>
  </metadata>
  <defs
     id="defs8">
    <clipPath
       id="clipPath3432">
      <path
         d="M 26,0 C 11.602648,0 0,11.602648 0,26 l 0,460 c 0,14.39735 11.602648,26 26,26 l 460,0 c 14.39735,0 26,-11.60265 26,-26 L 512,26 C 512,11.602648 500.39735,0 486,0 L 26,0 z"
         inkscape:connector-curvature="0"
         id="path3434"
         style="fill:#666666;fill-opacity:1;stroke:none" />
    </clipPath>
  </defs>
  <path
     d="M 26,0 C 11.602648,0 0,11.602648 0,26 l 0,460 c 0,14.39735 11.602648,26 26,26 l 460,0 c 14.39735,0 26,-11.60265 26,-26 L 512,26 C 512,11.602648 500.39735,0 486,0 L 26,0 z"
     inkscape:connector-curvature="0"
     id="rect2986"
     style="fill:#666666;fill-opacity:1;stroke:none" />
  <text
     x="-4.9873853"
     y="-101.71991"
     id="text20"
     style="font-size:129.22999573px;line-height:125%;letter-spacing:0;word-spacing:0;font-family:Gentium Book Basic">
    <tspan
       x="-4.9873853"
       y="-101.71991"
       id="tspan22" />
  </text>
  <text
     x="195.83797"
     y="-757.33167"
     transform="scale(4.0128205,0.24920128)"
     id="text24"
     style="font-size:46.95375824px;text-anchor:middle;font-family:Arial" />
  <text
     x="576.28265"
     y="-181.71991"
     id="text26"
     style="font-size:129.22999573px;line-height:125%;letter-spacing:0;word-spacing:0;font-family:Gentium Book Basic">
    <tspan
       x="576.28265"
       y="-181.71991"
       id="tspan28" />
  </text>
  <text
     x="340.68723"
     y="-1078.3698"
     transform="scale(4.0128205,0.24920128)"
     id="text30"
     style="font-size:46.95375824px;text-anchor:middle;font-family:Arial" />
  <text
     x="-495.29739"
     y="-362.97989"
     id="text32"
     style="font-size:129.22999573px;line-height:125%;letter-spacing:0;word-spacing:0;font-family:Gentium Book Basic">
    <tspan
       x="-495.29739"
       y="-362.97989"
       id="tspan34" />
  </text>
  <text
     x="73.648605"
     y="-1805.7162"
     transform="scale(4.0128205,0.24920128)"
     id="text36"
     style="font-size:46.95375824px;text-anchor:middle;font-family:Arial" />
  <text
     x="602.75262"
     y="-579.44989"
     id="text38"
     style="font-size:129.22999573px;line-height:125%;letter-spacing:0;word-spacing:0;font-family:Gentium Book Basic">
    <tspan
       x="602.75262"
       y="-579.44989"
       id="tspan40" />
  </text>
  <text
     x="347.2872"
     y="-2674.3918"
     transform="scale(4.0128205,0.24920128)"
     id="text42"
     style="font-size:46.95375824px;text-anchor:middle;font-family:Arial" />
  <text
     x="1184.0226"
     y="-659.44989"
     id="text44"
     style="font-size:129.22999573px;line-height:125%;letter-spacing:0;word-spacing:0;font-family:Gentium Book Basic">
    <tspan
       x="1184.0226"
       y="-659.44989"
       id="tspan46" />
  </text>
  <text
     x="492.13644"
     y="-2995.4202"
     transform="scale(4.0128205,0.24920128)"
     id="text48"
     style="font-size:46.95375824px;text-anchor:middle;font-family:Arial" />
  <text
     x="794.90265"
     y="-1131.8499"
     id="text50"
     style="font-size:129.22999573px;line-height:125%;letter-spacing:0;word-spacing:0;font-family:Gentium Book Basic">
    <tspan
       x="794.90265"
       y="-1131.8499"
       id="tspan52" />
  </text>
  <text
     x="395.1669"
     y="-4891.0703"
     transform="scale(4.0128205,0.24920128)"
     id="text54"
     style="font-size:46.95375824px;text-anchor:middle;font-family:Arial" />
  <text
     x="1376.1626"
     y="-1211.8599"
     id="text56"
     style="font-size:129.22999573px;line-height:125%;letter-spacing:0;word-spacing:0;font-family:Gentium Book Basic">
    <tspan
       x="1376.1626"
       y="-1211.8599"
       id="tspan58" />
  </text>
  <text
     x="540.01624"
     y="-5212.1089"
     transform="scale(4.0128205,0.24920128)"
     id="text60"
     style="font-size:46.95375824px;text-anchor:middle;font-family:Arial" />
  <text
     x="-456.63742"
     y="202.86018"
     id="text62"
     style="font-size:208.33000183px;line-height:125%;letter-spacing:0;word-spacing:0;font-family:Gentium Book Basic">
    <tspan
       x="-456.63742"
       y="202.86018"
       id="tspan64" />
  </text>
  <g
     clip-path="url(#clipPath3432)"
     id="g3237"
     style="opacity:0.25;fill:#000000;fill-opacity:1;stroke:none">
    <path
       d="M 80.85242,79.507084 C 58.8302,79.507084 41,97.388049 41,119.41027 L 429.90873,508.319 c 0,-22.02222 17.8302,-39.90319 39.85242,-39.90319 z"
       inkscape:connector-curvature="0"
       id="path3239"
       style="fill:#000000" />
    <path
       d="m 41,119.41027 c 0,11.01112 4.45755,20.97423 11.667877,28.18455 L 441.57661,536.50355 c -7.21033,-7.21032 -11.66788,-17.17343 -11.66788,-28.18455 z"
       inkscape:connector-curvature="0"
       id="path3241"
       style="fill:#000000" />
    <path
       d="m 52.667877,147.59482 c 7.210328,7.21033 17.173433,11.66788 28.184543,11.66788 l 388.90873,388.90873 c -11.01111,0 -20.97422,-4.45755 -28.18454,-11.66788 z"
       inkscape:connector-curvature="0"
       id="path3243"
       style="fill:#000000" />
    <path
       d="m 80.85242,159.2627 c 22.02222,0 39.90319,-17.83019 39.90319,-39.85243 L 509.66434,508.319 c 0,22.02224 -17.88097,39.85243 -39.90319,39.85243 z"
       inkscape:connector-curvature="0"
       id="path3245"
       style="fill:#000000" />
    <path
       d="m 120.75561,119.41027 c 0,-11.01111 -4.47024,-20.986905 -11.69326,-28.209924 L 497.97108,480.10908 c 7.22302,7.22301 11.69326,17.19881 11.69326,28.20992 z"
       inkscape:connector-curvature="0"
       id="path3247"
       style="fill:#000000" />
    <path
       d="M 109.06235,91.200346 C 101.83933,83.977326 91.863531,79.507084 80.85242,79.507084 L 469.76115,468.41581 c 11.01111,0 20.98691,4.47025 28.20993,11.69327 z"
       inkscape:connector-curvature="0"
       id="path3249"
       style="fill:#000000" />
    <path
       d="m 154.1098,91.995868 0,54.828812 388.90873,388.90873 0,-54.82881 z"
       inkscape:connector-curvature="0"
       id="path3251"
       style="fill:#000000" />
    <path
       d="m 154.1098,146.82468 316.8902,0 388.90873,388.90873 -316.8902,0 z"
       inkscape:connector-curvature="0"
       id="path3253"
       style="fill:#000000" />
    <path
       d="m 471,146.82468 0,-54.828812 388.90873,388.908732 0,54.82881 z"
       inkscape:connector-curvature="0"
       id="path3255"
       style="fill:#000000" />
    <path
       d="m 471,91.995868 -316.8902,0 388.90873,388.908732 316.8902,0 z"
       inkscape:connector-curvature="0"
       id="path3257"
       style="fill:#000000" />
    <path
       d="M 80.85242,216.1222 C 58.8302,216.1222 41,234.00317 41,256.02539 l 388.90873,388.90873 c 0,-22.02222 17.8302,-39.90319 39.85242,-39.90319 z"
       inkscape:connector-curvature="0"
       id="path3259"
       style="fill:#000000" />
    <path
       d="m 41,256.02539 c 0,11.01112 4.457548,20.97422 11.667873,28.18455 L 441.5766,673.11866 c -7.21032,-7.21032 -11.66787,-17.17342 -11.66787,-28.18454 z"
       inkscape:connector-curvature="0"
       id="path3261"
       style="fill:#000000" />
    <path
       d="m 52.667873,284.20994 c 7.210327,7.21032 17.173434,11.66787 28.184547,11.66787 l 388.90873,388.90873 c -11.01111,0 -20.97422,-4.45755 -28.18455,-11.66788 z"
       inkscape:connector-curvature="0"
       id="path3263"
       style="fill:#000000" />
    <path
       d="m 80.85242,295.87781 c 22.02222,0 39.90319,-17.83018 39.90319,-39.85242 l 388.90873,388.90873 c 0,22.02224 -17.88097,39.85242 -39.90319,39.85242 z"
       inkscape:connector-curvature="0"
       id="path3265"
       style="fill:#000000" />
    <path
       d="m 120.75561,256.02539 c 0,-10.3634 -3.9598,-19.8097 -10.44754,-26.90705 L 499.2168,618.02707 c 6.48774,7.09735 10.44754,16.54365 10.44754,26.90705 z"
       inkscape:connector-curvature="0"
       id="path3267"
       style="fill:#000000" />
    <path
       d="M 110.30807,229.11834 C 103.00937,221.13382 92.511242,216.1222 80.85242,216.1222 l 388.90873,388.90873 c 11.65882,0 22.15695,5.01162 29.45565,12.99614 z"
       inkscape:connector-curvature="0"
       id="path3269"
       style="fill:#000000" />
    <path
       d="m 154.1098,228.61098 0,54.82881 388.90873,388.90873 0,-54.82881 z"
       inkscape:connector-curvature="0"
       id="path3271"
       style="fill:#000000" />
    <path
       d="m 154.1098,283.43979 316.8902,0 388.90873,388.90873 -316.8902,0 z"
       inkscape:connector-curvature="0"
       id="path3273"
       style="fill:#000000" />
    <path
       d="m 471,283.43979 0,-54.82881 388.90873,388.90873 0,54.82881 z"
       inkscape:connector-curvature="0"
       id="path3275"
       style="fill:#000000" />
    <path
       d="m 471,228.61098 -316.8902,0 388.90873,388.90873 316.8902,0 z"
       inkscape:connector-curvature="0"
       id="path3277"
       style="fill:#000000" />
    <path
       d="M 80.85242,352.73731 C 58.8302,352.73731 41,370.61828 41,392.6405 l 388.90873,388.90873 c 0,-22.02222 17.8302,-39.90319 39.85242,-39.90319 z"
       inkscape:connector-curvature="0"
       id="path3279"
       style="fill:#000000" />
    <path
       d="m 41,392.6405 c 0,11.01112 4.457548,20.97422 11.667873,28.18455 L 441.5766,809.73377 c -7.21032,-7.21032 -11.66787,-17.17342 -11.66787,-28.18454 z"
       inkscape:connector-curvature="0"
       id="path3281"
       style="fill:#000000" />
    <path
       d="m 52.667873,420.82505 c 7.210327,7.21032 17.173434,11.66787 28.184547,11.66787 l 388.90873,388.90873 c -11.01111,0 -20.97422,-4.45755 -28.18455,-11.66788 z"
       inkscape:connector-curvature="0"
       id="path3283"
       style="fill:#000000" />
    <path
       d="m 80.85242,432.49292 c 22.02222,0 39.90319,-17.83018 39.90319,-39.85242 l 388.90873,388.90873 c 0,22.02224 -17.88097,39.85242 -39.90319,39.85242 z"
       inkscape:connector-curvature="0"
       id="path3285"
       style="fill:#000000" />
    <path
       d="m 120.75561,392.6405 c 0,-10.3634 -3.9598,-19.8097 -10.44754,-26.90705 L 499.2168,754.64218 c 6.48774,7.09735 10.44754,16.54365 10.44754,26.90705 z"
       inkscape:connector-curvature="0"
       id="path3287"
       style="fill:#000000" />
    <path
       d="m 110.30807,365.73345 c -7.2987,-7.98452 -17.796828,-12.99614 -29.45565,-12.99614 l 388.90873,388.90873 c 11.65882,0 22.15695,5.01162 29.45565,12.99614 z"
       inkscape:connector-curvature="0"
       id="path3289"
       style="fill:#000000" />
    <path
       d="m 154.1098,365.2261 0,54.8288 388.90873,388.90873 0,-54.8288 z"
       inkscape:connector-curvature="0"
       id="path3291"
       style="fill:#000000" />
    <path
       d="m 154.1098,420.0549 316.8902,0 388.90873,388.90873 -316.8902,0 z"
       inkscape:connector-curvature="0"
       id="path3293"
       style="fill:#000000" />
    <path
       d="m 471,420.0549 0,-54.8288 388.90873,388.90873 0,54.8288 z"
       inkscape:connector-curvature="0"
       id="path3295"
       style="fill:#000000" />
    <path
       d="m 471,365.2261 -316.8902,0 388.90873,388.90873 316.8902,0 z"
       inkscape:connector-curvature="0"
       id="path3297"
       style="fill:#000000" />
  </g>
  <path
     d="M 80.85242,79.507084 C 58.8302,79.507084 41,97.388049 41,119.41027 c 0,22.02224 17.8302,39.85243 39.85242,39.85243 22.02222,0 39.90319,-17.83019 39.90319,-39.85243 0,-22.022221 -17.88097,-39.903186 -39.90319,-39.903186 z m 73.25738,12.488784 0,54.828812 316.8902,0 0,-54.828812 -316.8902,0 z M 80.85242,216.1222 C 58.8302,216.1222 41,234.00317 41,256.02539 c 0,22.02224 17.8302,39.85242 39.85242,39.85242 22.02222,0 39.90319,-17.83018 39.90319,-39.85242 0,-22.02222 -17.88097,-39.90319 -39.90319,-39.90319 z m 73.25738,12.48878 0,54.82881 316.8902,0 0,-54.82881 -316.8902,0 z M 80.85242,352.73731 C 58.8302,352.73731 41,370.61828 41,392.6405 c 0,22.02224 17.8302,39.85242 39.85242,39.85242 22.02222,0 39.90319,-17.83018 39.90319,-39.85242 0,-22.02222 -17.88097,-39.90319 -39.90319,-39.90319 z m 73.25738,12.48879 0,54.8288 316.8902,0 0,-54.8288 -316.8902,0 z"
     inkscape:connector-curvature="0"
     id="path3891"
     style="fill:#ffffff;fill-opacity:1;stroke:none" />
</svg>
