<?xml version="1.0" encoding="UTF-8" standalone="no"?>
<!-- Created with Inkscape (http://www.inkscape.org/) -->

<svg
   xmlns:dc="http://purl.org/dc/elements/1.1/"
   xmlns:cc="http://creativecommons.org/ns#"
   xmlns:rdf="http://www.w3.org/1999/02/22-rdf-syntax-ns#"
   xmlns:svg="http://www.w3.org/2000/svg"
   xmlns="http://www.w3.org/2000/svg"
   xmlns:inkscape="http://www.inkscape.org/namespaces/inkscape"
   version="1.1"
   width="100%"
   height="100%"
   viewBox="0 0 512 512"
   id="svg2">
  <metadata
     id="metadata139">
    <rdf:RDF>
      <cc:Work
         rdf:about="">
        <dc:format>image/svg+xml</dc:format>
        <dc:type
           rdf:resource="http://purl.org/dc/dcmitype/StillImage" />
      </cc:Work>
    </rdf:RDF>
  </metadata>
  <defs
     id="defs4">
    <clipPath
       id="0">
      <path
         d="M 26,0 C 11.603,0 0,11.603 0,26 v 460 c 0,14.397 11.603,26 26,26 h 460 c 14.397,0 26,-11.603 26,-26 V 26 C 512,11.603 500.397,0 486,0 H 26"
         inkscape:connector-curvature="0"
         id="path7" />
    </clipPath>
  </defs>
  <path
     d="M 26,0 C 11.603,0 0,11.603 0,26 v 460 c 0,14.397 11.603,26 26,26 h 460 c 14.397,0 26,-11.603 26,-26 V 26 C 512,11.603 500.397,0 486,0 H 26"
     inkscape:connector-curvature="0"
     id="path9"
     style="fill:#666666" />
  <text
     x="-139.98"
     y="174.41"
     id="text11"
     style="font-size:129.22999573px;line-height:125%;letter-spacing:0;word-spacing:0;font-family:Gentium Book Basic">
    <tspan
       x="-139.98"
       y="174.41"
       id="tspan13" />
  </text>
  <text
     x="162.2"
     y="350.73001"
     transform="scale(4.0128,0.2492)"
     id="text15"
     style="font-size:46.95399857px;text-anchor:middle;font-family:Arial" />
  <text
     x="441.28"
     y="94.410004"
     id="text17"
     style="font-size:129.22999573px;line-height:125%;letter-spacing:0;word-spacing:0;font-family:Gentium Book Basic">
    <tspan
       x="441.28"
       y="94.410004"
       id="tspan19" />
  </text>
  <text
     x="307.04999"
     y="29.691"
     transform="scale(4.0128,0.2492)"
     id="text21"
     style="font-size:46.95399857px;text-anchor:middle;font-family:Arial" />
  <text
     x="-630.28998"
     y="-86.849998"
     id="text23"
     style="font-size:129.22999573px;line-height:125%;letter-spacing:0;word-spacing:0;font-family:Gentium Book Basic">
    <tspan
       x="-630.28998"
       y="-86.849998"
       id="tspan25" />
  </text>
  <text
     x="40.009998"
     y="-697.65997"
     transform="scale(4.0128,0.2492)"
     id="text27"
     style="font-size:46.95399857px;text-anchor:middle;font-family:Arial" />
  <text
     x="467.76001"
     y="-303.32001"
     id="text29"
     style="font-size:129.22999573px;line-height:125%;letter-spacing:0;word-spacing:0;font-family:Gentium Book Basic">
    <tspan
       x="467.76001"
       y="-303.32001"
       id="tspan31" />
  </text>
  <text
     x="313.64999"
     y="-1566.34"
     transform="scale(4.0128,0.2492)"
     id="text33"
     style="font-size:46.95399857px;text-anchor:middle;font-family:Arial" />
  <text
     x="1049.02"
     y="-383.32999"
     id="text35"
     style="font-size:129.22999573px;line-height:125%;letter-spacing:0;word-spacing:0;font-family:Gentium Book Basic">
    <tspan
       x="1049.02"
       y="-383.32999"
       id="tspan37" />
  </text>
  <text
     x="458.5"
     y="-1887.37"
     transform="scale(4.0128,0.2492)"
     id="text39"
     style="font-size:46.95399857px;text-anchor:middle;font-family:Arial" />
  <text
     x="659.90002"
     y="-855.71997"
     id="text41"
     style="font-size:129.22999573px;line-height:125%;letter-spacing:0;word-spacing:0;font-family:Gentium Book Basic">
    <tspan
       x="659.90002"
       y="-855.71997"
       id="tspan43" />
  </text>
  <text
     x="361.53"
     y="-3783.03"
     transform="scale(4.0128,0.2492)"
     id="text45"
     style="font-size:46.95399857px;text-anchor:middle;font-family:Arial" />
  <text
     x="1241.17"
     y="-935.72998"
     id="text47"
     style="font-size:129.22999573px;line-height:125%;letter-spacing:0;word-spacing:0;font-family:Gentium Book Basic">
    <tspan
       x="1241.17"
       y="-935.72998"
       id="tspan49" />
  </text>
  <text
     x="506.38"
     y="-4104.0698"
     transform="scale(4.0128,0.2492)"
     id="text51"
     style="font-size:46.95399857px;text-anchor:middle;font-family:Arial" />
  <text
     x="-591.64001"
     y="478.98999"
     id="text53"
     style="font-size:208.33000183px;line-height:125%;letter-spacing:0;word-spacing:0;font-family:Gentium Book Basic">
    <tspan
       x="-591.64001"
       y="478.98999"
       id="tspan55" />
  </text>
  <g
     clip-path="url(#0)"
     id="g57"
     style="opacity:0.25">
    <path
       d="m 314.61,291.52 c 5.215,-19.486 31.26,-27.616 39.35,-47.545 l 353.55,353.55 c -8.09,19.929 -34.13,28.06 -39.35,47.545 z"
       inkscape:connector-curvature="0"
       id="path59" />
    <path
       d="M 353.96,243.97 C 381.518,201.291 374.762,140.4 338.94,104.58 l 353.55,353.55 c 35.825,35.825 42.58,96.71 15.02,139.39 z"
       inkscape:connector-curvature="0"
       id="path61" />
    <path
       d="m 338.93,104.58 c -1.467,-1.467 -2.983,-2.892 -4.547,-4.272 l 353.55,353.55 c 1.564,1.38 3.08,2.805 4.547,4.272 z"
       inkscape:connector-curvature="0"
       id="path63" />
    <path
       d="m 334.39,100.31 c -0.207,-0.211 -0.415,-0.421 -0.625,-0.63 l 353.55,353.55 c 0.209,0.209 0.417,0.419 0.625,0.63 z"
       inkscape:connector-curvature="0"
       id="path65" />
    <path
       d="M 333.76,99.68 C 300.112,66.032 244.19,60.683 202.67,82.059 l 353.55,353.55 c 41.521,-21.376 97.45,-16.03 131.09,17.621 z"
       inkscape:connector-curvature="0"
       id="path67" />
    <path
       d="m 202.67,82.06 c -44.11,23.789 -70.57,77.53 -58.54,126.82 l 353.55,353.55 c -12.04,-49.3 14.427,-103.04 58.54,-126.82 z"
       inkscape:connector-curvature="0"
       id="path69" />
    <path
       d="m 144.13,208.88 c 4.489,21.894 16.378,41.48 32.09,57.19 l 353.55,353.55 c -15.711,-15.711 -27.6,-35.3 -32.09,-57.19 z"
       inkscape:connector-curvature="0"
       id="path71" />
    <path
       d="m 176.22,266.07 c 5.647,5.647 11.789,10.794 18.258,15.368 l 353.55,353.55 c -6.469,-4.573 -12.61,-9.72 -18.258,-15.368 z"
       inkscape:connector-curvature="0"
       id="path73" />
    <path
       d="m 194.48,281.44 c 0.381,0.245 0.718,0.519 1.017,0.818 l 353.55,353.55 c -0.299,-0.299 -0.636,-0.572 -1.017,-0.818 z"
       inkscape:connector-curvature="0"
       id="path75" />
    <path
       d="m 195.49,282.26 c 4.402,4.402 0.398,14.179 3.698,17.02 l 353.55,353.55 c -3.3,-2.84 0.704,-12.617 -3.698,-17.02 z"
       inkscape:connector-curvature="0"
       id="path77" />
    <path
       d="m 199.19,299.28 c 1.052,0.906 2.846,1.106 5.892,0.203 l 353.55,353.55 c -3.046,0.903 -4.84,0.703 -5.892,-0.203 z"
       inkscape:connector-curvature="0"
       id="path79" />
    <path
       d="m 205.08,299.48 c 36.507,0 73.01,0 109.52,0 l 353.55,353.55 c -36.507,0 -73.01,0 -109.52,0 z"
       inkscape:connector-curvature="0"
       id="path81" />
    <path
       d="m 314.61,299.48 c 0,-2.654 0,-5.309 0,-7.963 l 353.55,353.55 c 0,2.654 0,5.309 0,7.963 z"
       inkscape:connector-curvature="0"
       id="path83" />
    <path
       d="m 314.23,341.9 c -1.09,-3.865 1.162,-11.201 -1.289,-13.653 l 353.55,353.55 c 2.451,2.451 0.199,9.787 1.289,13.653 z"
       inkscape:connector-curvature="0"
       id="path85" />
    <path
       d="m 312.94,328.25 c -0.829,-0.829 -2.194,-1.099 -4.408,-0.489 l 353.55,353.55 c 2.214,-0.61 3.58,-0.34 4.408,0.489 z"
       inkscape:connector-curvature="0"
       id="path87" />
    <path
       d="m 308.53,327.76 c -36.588,0 -73.18,0 -109.76,0 l 353.55,353.55 c 36.588,0 73.18,0 109.76,0 z"
       inkscape:connector-curvature="0"
       id="path89" />
    <path
       d="m 198.77,327.76 c -0.355,9.428 -0.71,18.855 -1.066,28.28 l 353.55,353.55 c 0.355,-9.428 0.71,-18.855 1.066,-28.28 z"
       inkscape:connector-curvature="0"
       id="path91" />
    <path
       d="m 197.7,356.04 c 39.02,0 78.04,0 117.06,0 l 353.55,353.55 c -39.02,0 -78.04,0 -117.06,0 z"
       inkscape:connector-curvature="0"
       id="path93" />
    <path
       d="m 314.76,356.04 c -0.178,-4.714 -0.355,-9.428 -0.533,-14.14 l 353.55,353.55 c 0.178,4.714 0.355,9.428 0.533,14.14 z"
       inkscape:connector-curvature="0"
       id="path95" />
    <path
       d="m 314.61,399.84 c -1.231,-3.657 1.819,-11.596 -0.624,-14.04 l 353.55,353.55 c 2.444,2.444 -0.606,10.383 0.624,14.04 z"
       inkscape:connector-curvature="0"
       id="path97" />
    <path
       d="m 313.98,385.8 c -0.677,-0.677 -1.777,-0.933 -3.507,-0.557 l 353.55,353.55 c 1.73,-0.375 2.83,-0.12 3.507,0.557 z"
       inkscape:connector-curvature="0"
       id="path99" />
    <path
       d="m 310.47,385.24 c -37.54,0 -75.08,0 -112.62,0 L 551.4,738.79 c 37.54,0 75.08,0 112.62,0 z"
       inkscape:connector-curvature="0"
       id="path101" />
    <path
       d="m 197.85,385.24 c 0,9.732 0,19.463 0,29.2 L 551.4,767.99 c 0,-9.732 0,-19.463 0,-29.2 z"
       inkscape:connector-curvature="0"
       id="path103" />
    <path
       d="m 197.85,414.43 c 38.917,0 77.83,0 116.75,0 l 353.55,353.55 c -38.917,0 -77.83,0 -116.75,0 z"
       inkscape:connector-curvature="0"
       id="path105" />
    <path
       d="m 314.61,414.43 c 0,-4.866 0,-9.732 0,-14.598 l 353.55,353.55 c 0,4.866 0,9.732 0,14.598 z"
       inkscape:connector-curvature="0"
       id="path107" />
    <path
       d="M 199.83,441.65 H 170.489 L 524.039,795.2 H 553.38 z"
       inkscape:connector-curvature="0"
       id="path109" />
    <path
       d="m 170.49,441.65 c 0,-47.33 0,-94.66 0,-141.99 l 353.55,353.55 c 0,47.33 0,94.66 0,141.99 z"
       inkscape:connector-curvature="0"
       id="path111" />
    <path
       d="m 170.49,299.66 c -5.302,-3.952 -10.294,-8.285 -14.951,-12.942 l 353.55,353.55 c 4.658,4.658 9.649,8.99 14.951,12.942 z"
       inkscape:connector-curvature="0"
       id="path113" />
    <path
       d="M 155.54,286.72 C 117.845,249.025 102,190.04 119.99,139.12 l 353.55,353.55 c -17.99,50.916 -2.146,109.9 35.55,147.6 z"
       inkscape:connector-curvature="0"
       id="path115" />
    <path
       d="M 119.99,139.12 C 138.959,80.47 199.05,36.86 261.18,41.31 l 353.55,353.55 c -62.12,-4.458 -122.22,39.16 -141.19,97.81 z"
       inkscape:connector-curvature="0"
       id="path117" />
    <path
       d="m 261.18,41.31 c 36.32,-0.211 70.884,16.11 96.34,41.559 l 353.55,353.55 c -25.452,-25.452 -60.02,-41.77 -96.34,-41.559 z"
       inkscape:connector-curvature="0"
       id="path119" />
    <path
       d="m 357.51,82.87 c 25.692,25.692 42.1,60.691 41.658,97.39 l 353.55,353.55 c 0.442,-36.7 -15.965,-71.7 -41.658,-97.39 z"
       inkscape:connector-curvature="0"
       id="path121" />
    <path
       d="m 399.17,180.26 c 2.904,44.01 -18.989,86.61 -51.773,115.01 l 353.55,353.55 c 32.783,-28.403 54.677,-71 51.773,-115.01 z"
       inkscape:connector-curvature="0"
       id="path123" />
    <path
       d="m 347.4,295.27 c -6.631,3.498 -5.641,10.226 -5.427,16.624 l 353.55,353.55 c -0.214,-6.398 -1.204,-13.13 5.427,-16.624 z"
       inkscape:connector-curvature="0"
       id="path125" />
    <path
       d="m 341.97,311.9 c 0,43.25 0,86.5 0,129.75 L 695.52,795.2 c 0,-43.25 0,-86.5 0,-129.75 z"
       inkscape:connector-curvature="0"
       id="path127" />
    <path
       d="M 341.97,441.65 H 312.628 L 666.178,795.2 H 695.52 z"
       inkscape:connector-curvature="0"
       id="path129" />
    <path
       d="m 312.63,441.65 v 29.348 l 353.55,353.55 V 795.2 z"
       inkscape:connector-curvature="0"
       id="path131" />
    <path
       d="m 312.63,471 h -112.8 l 353.55,353.55 h 112.8 z"
       inkscape:connector-curvature="0"
       id="path133" />
  </g>
  <path
     d="m 314.61,291.52 c 5.215,-19.486 31.26,-27.616 39.35,-47.545 28.686,-44.43 20.19,-108.58 -19.569,-143.66 -33.577,-34.21 -89.94,-39.76 -131.72,-18.251 -44.11,23.789 -70.57,77.53 -58.54,126.82 6.102,29.763 25.881,55.26 50.35,72.56 7.786,5.01 -2.641,21.969 10.607,18.04 36.507,0 73.01,0 109.52,0 0,-2.654 0,-5.309 0,-7.963 m -0.379,50.39 c -1.458,-5.172 3.066,-16.557 -5.697,-14.14 -36.588,0 -73.18,0 -109.76,0 -0.355,9.428 -0.71,18.855 -1.066,28.28 39.02,0 78.04,0 117.06,0 -0.178,-4.714 -0.355,-9.428 -0.533,-14.14 m 0.379,57.934 c -1.572,-4.671 3.839,-16.327 -4.132,-14.598 -37.54,0 -75.08,0 -112.62,0 0,9.732 0,19.463 0,29.2 38.917,0 77.83,0 116.75,0 0,-4.866 0,-9.732 0,-14.598 m -114.77,41.815 h -29.341 c 0,-47.33 0,-94.66 0,-141.99 -48.21,-35.937 -70.71,-103.34 -50.5,-160.54 18.969,-58.65 79.06,-102.26 141.19,-97.81 72.983,-0.424 138.87,65.893 137.99,138.95 2.904,44.01 -18.989,86.61 -51.773,115.01 -6.631,3.498 -5.641,10.226 -5.427,16.624 0,43.25 0,86.5 0,129.75 h -29.342 v 29.348 h -112.8 z"
     inkscape:connector-curvature="0"
     id="path135"
     style="fill:#ffffff" />
</svg>
