<?xml version="1.0" encoding="UTF-8" standalone="no"?>
<!-- Created with Inkscape (http://www.inkscape.org/) -->

<svg
   xmlns:dc="http://purl.org/dc/elements/1.1/"
   xmlns:cc="http://creativecommons.org/ns#"
   xmlns:rdf="http://www.w3.org/1999/02/22-rdf-syntax-ns#"
   xmlns:svg="http://www.w3.org/2000/svg"
   xmlns="http://www.w3.org/2000/svg"
   xmlns:inkscape="http://www.inkscape.org/namespaces/inkscape"
   version="1.1"
   width="100%"
   height="100%"
   viewBox="0 0 512 512"
   id="svg2">
  <metadata
     id="metadata177">
    <rdf:RDF>
      <cc:Work
         rdf:about="">
        <dc:format>image/svg+xml</dc:format>
        <dc:type
           rdf:resource="http://purl.org/dc/dcmitype/StillImage" />
      </cc:Work>
    </rdf:RDF>
  </metadata>
  <defs
     id="defs4">
    <clipPath
       id="0">
      <path
         d="M 26,0 C 11.603,0 0,11.603 0,26 v 460 c 0,14.397 11.603,26 26,26 h 460 c 14.397,0 26,-11.603 26,-26 V 26 C 512,11.603 500.397,0 486,0 H 26"
         inkscape:connector-curvature="0"
         id="path7" />
    </clipPath>
  </defs>
  <path
     d="M 26,0 C 11.603,0 0,11.603 0,26 v 460 c 0,14.397 11.603,26 26,26 h 460 c 14.397,0 26,-11.603 26,-26 V 26 C 512,11.603 500.397,0 486,0 H 26"
     inkscape:connector-curvature="0"
     id="path9"
     style="fill:#666666" />
  <text
     x="72.040001"
     y="198.42"
     id="text11"
     style="font-size:129.22999573px;line-height:125%;letter-spacing:0;word-spacing:0;font-family:Gentium Book Basic">
    <tspan
       x="72.040001"
       y="198.42"
       id="tspan13" />
  </text>
  <text
     x="215.03"
     y="447.04999"
     transform="scale(4.0128,0.2492)"
     id="text15"
     style="font-size:46.95399857px;text-anchor:middle;font-family:Arial" />
  <text
     x="653.31"
     y="118.42"
     id="text17"
     style="font-size:129.22999573px;line-height:125%;letter-spacing:0;word-spacing:0;font-family:Gentium Book Basic">
    <tspan
       x="653.31"
       y="118.42"
       id="tspan19" />
  </text>
  <text
     x="359.88"
     y="126.03"
     transform="scale(4.0128,0.2492)"
     id="text21"
     style="font-size:46.95399857px;text-anchor:middle;font-family:Arial" />
  <text
     x="-418.26999"
     y="-62.844002"
     id="text23"
     style="font-size:129.22999573px;line-height:125%;letter-spacing:0;word-spacing:0;font-family:Gentium Book Basic">
    <tspan
       x="-418.26999"
       y="-62.844002"
       id="tspan25" />
  </text>
  <text
     x="92.839996"
     y="-601.33002"
     transform="scale(4.0128,0.2492)"
     id="text27"
     style="font-size:46.95399857px;text-anchor:middle;font-family:Arial" />
  <text
     x="679.78003"
     y="-279.31"
     id="text29"
     style="font-size:129.22999573px;line-height:125%;letter-spacing:0;word-spacing:0;font-family:Gentium Book Basic">
    <tspan
       x="679.78003"
       y="-279.31"
       id="tspan31" />
  </text>
  <text
     x="366.48001"
     y="-1470"
     transform="scale(4.0128,0.2492)"
     id="text33"
     style="font-size:46.95399857px;text-anchor:middle;font-family:Arial" />
  <text
     x="1261.05"
     y="-359.32001"
     id="text35"
     style="font-size:129.22999573px;line-height:125%;letter-spacing:0;word-spacing:0;font-family:Gentium Book Basic">
    <tspan
       x="1261.05"
       y="-359.32001"
       id="tspan37" />
  </text>
  <text
     x="511.32999"
     y="-1791.03"
     transform="scale(4.0128,0.2492)"
     id="text39"
     style="font-size:46.95399857px;text-anchor:middle;font-family:Arial" />
  <text
     x="871.92999"
     y="-831.71997"
     id="text41"
     style="font-size:129.22999573px;line-height:125%;letter-spacing:0;word-spacing:0;font-family:Gentium Book Basic">
    <tspan
       x="871.92999"
       y="-831.71997"
       id="tspan43" />
  </text>
  <text
     x="414.35999"
     y="-3686.6799"
     transform="scale(4.0128,0.2492)"
     id="text45"
     style="font-size:46.95399857px;text-anchor:middle;font-family:Arial" />
  <text
     x="1453.1899"
     y="-911.71997"
     id="text47"
     style="font-size:129.22999573px;line-height:125%;letter-spacing:0;word-spacing:0;font-family:Gentium Book Basic">
    <tspan
       x="1453.1899"
       y="-911.71997"
       id="tspan49" />
  </text>
  <text
     x="559.21002"
     y="-4007.71"
     transform="scale(4.0128,0.2492)"
     id="text51"
     style="font-size:46.95399857px;text-anchor:middle;font-family:Arial" />
  <text
     x="-379.60999"
     y="503"
     id="text53"
     style="font-size:208.33000183px;line-height:125%;letter-spacing:0;word-spacing:0;font-family:Gentium Book Basic">
    <tspan
       x="-379.60999"
       y="503"
       id="tspan55" />
  </text>
  <g
     clip-path="url(#0)"
     id="g57"
     style="opacity:0.25">
    <path
       d="m 255.64,87.55 c -25.969,0 -48.33,15.409 -58.45,37.577 l 353.55,353.55 c 10.122,-22.17 32.481,-37.577 58.45,-37.577 z"
       inkscape:connector-curvature="0"
       id="path59" />
    <path
       d="M 197.19,125.13 H 84.92 l 353.55,353.55 h 112.27 z"
       inkscape:connector-curvature="0"
       id="path61" />
    <path
       d="m 84.92,125.13 c -8.668,0 -15.637,6.147 -15.637,13.798 l 353.55,353.55 c 0,-7.652 6.969,-13.798 15.637,-13.798 z"
       inkscape:connector-curvature="0"
       id="path63" />
    <path
       d="m 69.28,138.93 v 25.674 l 353.55,353.55 V 492.48 z"
       inkscape:connector-curvature="0"
       id="path65" />
    <path
       d="m 69.28,164.6 c 0,3.526 1.478,6.739 3.918,9.18 l 353.55,353.55 c -2.441,-2.441 -3.918,-5.654 -3.918,-9.18 z"
       inkscape:connector-curvature="0"
       id="path67" />
    <path
       d="m 73.2,173.78 c 2.86,2.86 7.04,4.659 11.719,4.659 l 353.55,353.55 c -4.677,0 -8.859,-1.799 -11.719,-4.659 z"
       inkscape:connector-curvature="0"
       id="path69" />
    <path
       d="m 84.92,178.44 h 112.3 l 353.55,353.55 h -112.3 z"
       inkscape:connector-curvature="0"
       id="path71" />
    <path
       d="m 197.22,178.44 c 3.211,7.02 7.645,13.357 13.03,18.743 l 353.55,353.55 c -5.386,-5.386 -9.821,-11.726 -13.03,-18.743 z"
       inkscape:connector-curvature="0"
       id="path73" />
    <path
       d="m 210.25,197.18 c 11.615,11.615 27.654,18.799 45.38,18.799 l 353.55,353.55 c -17.73,0 -33.769,-7.185 -45.38,-18.799 z"
       inkscape:connector-curvature="0"
       id="path75" />
    <path
       d="m 255.63,215.98 c 25.952,0 48.31,-15.388 58.45,-37.543 l 353.55,353.55 c -10.136,22.15 -32.498,37.543 -58.45,37.543 z"
       inkscape:connector-curvature="0"
       id="path77" />
    <path
       d="m 314.08,178.44 h 112.3 l 353.55,353.55 h -112.3 z"
       inkscape:connector-curvature="0"
       id="path79" />
    <path
       d="m 426.38,178.44 c 8.668,0 15.637,-6.18 15.637,-13.839 l 353.55,353.55 c 0,7.66 -6.969,13.839 -15.637,13.839 z"
       inkscape:connector-curvature="0"
       id="path81" />
    <path
       d="m 442.02,164.6 v -25.674 l 353.55,353.55 v 25.674 z"
       inkscape:connector-curvature="0"
       id="path83" />
    <path
       d="m 442.02,138.93 c 0,-3.517 -1.47,-6.713 -3.898,-9.142 l 353.55,353.55 c 2.429,2.429 3.898,5.625 3.898,9.142 z"
       inkscape:connector-curvature="0"
       id="path85" />
    <path
       d="m 438.12,129.78 c -2.86,-2.86 -7.05,-4.656 -11.739,-4.656 l 353.55,353.55 c 4.688,0 8.879,1.796 11.739,4.656 z"
       inkscape:connector-curvature="0"
       id="path87" />
    <path
       d="M 426.38,125.13 H 314.11 l 353.55,353.55 h 112.27 z"
       inkscape:connector-curvature="0"
       id="path89" />
    <path
       d="m 314.11,125.13 c -3.206,-7.02 -7.641,-13.358 -13.03,-18.747 l 353.55,353.55 c 5.389,5.389 9.824,11.73 13.03,18.747 z"
       inkscape:connector-curvature="0"
       id="path91" />
    <path
       d="M 301.08,106.38 C 289.448,94.748 273.373,87.55 255.63,87.55 L 609.18,441.1 c 17.747,0 33.822,7.199 45.45,18.83 z"
       inkscape:connector-curvature="0"
       id="path93" />
    <path
       d="m 255.63,128.03 c 0.41,0 0.83,0.012 1.234,0.033 l 353.55,353.55 c -0.404,-0.021 -0.824,-0.033 -1.234,-0.033 z"
       inkscape:connector-curvature="0"
       id="path95" />
    <path
       d="m 256.86,128.06 c 0.055,0.003 0.113,-0.003 0.166,0 l 353.55,353.55 c -0.054,-0.003 -0.111,0.003 -0.166,0 z"
       inkscape:connector-curvature="0"
       id="path97" />
    <path
       d="m 257.03,128.06 c 6.01,0.346 11.423,2.926 15.418,6.92 l 353.55,353.55 c -3.995,-3.995 -9.407,-6.574 -15.418,-6.92 z"
       inkscape:connector-curvature="0"
       id="path99" />
    <path
       d="m 272.45,134.98 c 4.297,4.297 6.955,10.233 6.955,16.787 l 353.55,353.55 c 0,-6.554 -2.658,-12.489 -6.955,-16.787 z"
       inkscape:connector-curvature="0"
       id="path101" />
    <path
       d="m 279.4,151.77 c 0,13.12 -10.657,23.74 -23.773,23.74 l 353.55,353.55 c 13.12,0 23.773,-10.623 23.773,-23.74 z"
       inkscape:connector-curvature="0"
       id="path103" />
    <path
       d="m 255.63,175.51 c -0.407,0 -0.798,0.017 -1.201,0 l 353.55,353.55 c 0.403,0.016 0.794,0 1.201,0 z"
       inkscape:connector-curvature="0"
       id="path105" />
    <path
       d="m 254.43,175.51 c -6.07,-0.308 -11.541,-2.899 -15.572,-6.931 l 353.55,353.55 c 4.03,4.03 9.503,6.623 15.572,6.931 z"
       inkscape:connector-curvature="0"
       id="path107" />
    <path
       d="m 238.85,168.58 c -4.304,-4.304 -6.967,-10.248 -6.967,-16.809 l 353.55,353.55 c 0,6.561 2.663,12.506 6.967,16.809 z"
       inkscape:connector-curvature="0"
       id="path109" />
    <path
       d="m 231.89,151.77 c 0,-12.649 9.902,-22.988 22.373,-23.707 l 353.55,353.55 c -12.471,0.719 -22.373,11.06 -22.373,23.707 z"
       inkscape:connector-curvature="0"
       id="path111" />
    <path
       d="m 254.26,128.06 c 0.458,-0.021 0.902,-0.033 1.367,-0.033 l 353.55,353.55 c -0.465,0 -0.909,0.012 -1.367,0.033 z"
       inkscape:connector-curvature="0"
       id="path113" />
    <path
       d="M 125.09,189.45 41.63,324.09 395.18,677.64 478.64,543 z"
       inkscape:connector-curvature="0"
       id="path115" />
    <path
       d="M 41.633,324.08 H 41.3 l 353.55,353.55 h 0.333 z"
       inkscape:connector-curvature="0"
       id="path117" />
    <path
       d="m 41.3,324.08 c -0.199,2.479 -0.3,4.972 -0.3,7.502 l 353.55,353.55 c 0,-2.53 0.1,-5.02 0.3,-7.502 z"
       inkscape:connector-curvature="0"
       id="path119" />
    <path
       d="m 41,331.59 c 0,25.464 10.325,48.52 27.02,65.21 l 353.55,353.55 c -16.691,-16.691 -27.02,-39.747 -27.02,-65.21 z"
       inkscape:connector-curvature="0"
       id="path121" />
    <path
       d="m 68.02,396.8 c 16.691,16.691 39.747,27.02 65.21,27.02 l 353.55,353.55 c -25.464,0 -48.52,-10.325 -65.21,-27.02 z"
       inkscape:connector-curvature="0"
       id="path123" />
    <path
       d="m 133.23,423.81 c 50.928,0 92.2,-41.3 92.2,-92.23 l 353.55,353.55 c 0,50.928 -41.27,92.23 -92.2,92.23 z"
       inkscape:connector-curvature="0"
       id="path125" />
    <path
       d="m 225.42,331.59 c 0,-2.124 -0.092,-4.216 -0.234,-6.302 l 353.55,353.55 c 0.142,2.086 0.234,4.178 0.234,6.302 z"
       inkscape:connector-curvature="0"
       id="path127" />
    <path
       d="m 225.19,325.28 0.066,-0.033 353.55,353.55 -0.066,0.033 z"
       inkscape:connector-curvature="0"
       id="path129" />
    <path
       d="m 225.26,325.25 -0.066,-0.1 353.55,353.55 0.066,0.1 z"
       inkscape:connector-curvature="0"
       id="path131" />
    <path
       d="m 225.19,325.15 c -0.025,-0.355 -0.038,-0.713 -0.066,-1.068 l 353.55,353.55 c 0.028,0.355 0.041,0.713 0.066,1.068 z"
       inkscape:connector-curvature="0"
       id="path133" />
    <path
       d="m 225.12,324.08 h -0.6 l 353.55,353.55 h 0.6 z"
       inkscape:connector-curvature="0"
       id="path135" />
    <path
       d="M 224.53,324.08 141.07,189.44 494.62,542.99 578.08,677.63 z"
       inkscape:connector-curvature="0"
       id="path137" />
    <path
       d="M 370.67,190.11 287.21,324.72 640.76,678.27 724.22,543.66 z"
       inkscape:connector-curvature="0"
       id="path139" />
    <path
       d="m 287.21,324.72 h -0.333 l 353.55,353.55 h 0.333 z"
       inkscape:connector-curvature="0"
       id="path141" />
    <path
       d="m 286.88,324.72 c -0.199,2.479 -0.3,4.972 -0.3,7.502 l 353.55,353.55 c 0,-2.53 0.1,-5.02 0.3,-7.502 z"
       inkscape:connector-curvature="0"
       id="path143" />
    <path
       d="m 286.58,332.22 c 0,50.928 41.3,92.23 92.23,92.23 L 732.36,778 c -50.928,0 -92.23,-41.3 -92.23,-92.23 z"
       inkscape:connector-curvature="0"
       id="path145" />
    <path
       d="m 378.8,424.45 c 50.928,0 92.2,-41.3 92.2,-92.23 l 353.55,353.55 c 0,50.928 -41.27,92.23 -92.2,92.23 z"
       inkscape:connector-curvature="0"
       id="path147" />
    <path
       d="m 471,332.22 c 0,-2.124 -0.092,-4.216 -0.234,-6.302 l 353.55,353.55 c 0.142,2.086 0.234,4.178 0.234,6.302 z"
       inkscape:connector-curvature="0"
       id="path149" />
    <path
       d="m 470.77,325.92 0.066,-0.033 353.55,353.55 -0.066,0.033 z"
       inkscape:connector-curvature="0"
       id="path151" />
    <path
       d="m 470.83,325.89 -0.066,-0.1 353.55,353.55 0.066,0.1 z"
       inkscape:connector-curvature="0"
       id="path153" />
    <path
       d="m 470.77,325.79 c -0.025,-0.355 -0.038,-0.713 -0.066,-1.068 l 353.55,353.55 c 0.028,0.355 0.041,0.713 0.066,1.068 z"
       inkscape:connector-curvature="0"
       id="path155" />
    <path
       d="m 470.7,324.72 h -0.6 l 353.55,353.55 h 0.6 z"
       inkscape:connector-curvature="0"
       id="path157" />
    <path
       d="M 470.1,324.72 386.68,190.11 740.23,543.66 823.65,678.27 z"
       inkscape:connector-curvature="0"
       id="path159" />
    <path
       d="M 133.11,212.25 202.39,324.08 555.94,677.63 486.66,565.8 z"
       inkscape:connector-curvature="0"
       id="path161" />
    <path
       d="M 202.39,324.08 H 63.79 l 353.55,353.55 h 138.6 z"
       inkscape:connector-curvature="0"
       id="path163" />
    <path
       d="m 63.791,324.08 69.32,-111.83 353.55,353.55 -69.32,111.83 z"
       inkscape:connector-curvature="0"
       id="path165" />
    <path
       d="m 378.69,212.92 69.28,111.8 353.55,353.55 -69.28,-111.8 z"
       inkscape:connector-curvature="0"
       id="path167" />
    <path
       d="m 447.97,324.72 h -138.6 l 353.55,353.55 h 138.6 z"
       inkscape:connector-curvature="0"
       id="path169" />
    <path
       d="m 309.36,324.72 69.32,-111.8 353.55,353.55 -69.32,111.8 z"
       inkscape:connector-curvature="0"
       id="path171" />
  </g>
  <path
     d="m 255.64,87.55 c -25.969,0 -48.33,15.409 -58.45,37.577 H 84.92 c -8.668,0 -15.637,6.147 -15.637,13.798 v 25.674 c 0,7.658 6.969,13.839 15.637,13.839 h 112.3 c 10.133,22.15 32.463,37.543 58.42,37.543 25.952,0 48.31,-15.388 58.45,-37.543 h 112.3 c 8.668,0 15.637,-6.18 15.637,-13.839 v -25.674 c 0,-7.658 -6.969,-13.798 -15.637,-13.798 H 314.12 C 303.995,102.967 281.606,87.55 255.64,87.55 m 0,40.478 c 0.41,0 0.83,0.012 1.234,0.033 0.055,0.003 0.113,-0.003 0.166,0 12.477,0.718 22.373,11.06 22.373,23.707 0,13.12 -10.657,23.74 -23.773,23.74 -0.407,0 -0.798,0.017 -1.201,0 -12.549,-0.637 -22.539,-11.03 -22.539,-23.74 0,-12.649 9.902,-22.988 22.373,-23.707 0.458,-0.021 0.902,-0.033 1.367,-0.033 m -122.40112,56.98271 a 9.405085,9.405085 0 0 0 -8.13563,4.43458 l -83.46,134.64 h -0.333 c -0.199,2.479 -0.3,4.972 -0.3,7.502 0,50.928 41.3,92.23 92.23,92.23 50.928,0 92.2,-41.3 92.2,-92.23 0,-2.124 -0.092,-4.216 -0.234,-6.302 l 0.066,-0.033 -0.066,-0.1 c -0.025,-0.355 -0.038,-0.713 -0.066,-1.068 h -0.6 l -83.46,-134.64 a 9.405085,9.405085 0 0 0 -7.83554,-4.43459 m 245.56917,0.63345 a 9.405086,9.405086 0 0 0 -8.13563,4.46793 l -83.46,134.61 h -0.333 c -0.199,2.479 -0.3,4.972 -0.3,7.502 0,50.928 41.3,92.23 92.23,92.23 50.928,0 92.2,-41.3 92.2,-92.23 0,-2.124 -0.092,-4.216 -0.234,-6.302 l 0.066,-0.033 -0.066,-0.1 c -0.025,-0.355 -0.038,-0.713 -0.066,-1.068 h -0.6 l -83.42,-134.61 a 9.405086,9.405086 0 0 0 -7.86889,-4.46793 m -245.7,26.607 69.28,111.83 h -138.6 l 69.32,-111.83 m 245.57,0.667 69.28,111.8 h -138.6 l 69.32,-111.8"
     inkscape:connector-curvature="0"
     id="path173"
     style="fill:#ffffff" />
</svg>
