<?xml version="1.0" encoding="UTF-8" standalone="no"?>
<!-- Created with Inkscape (http://www.inkscape.org/) -->

<svg
   xmlns:dc="http://purl.org/dc/elements/1.1/"
   xmlns:cc="http://creativecommons.org/ns#"
   xmlns:rdf="http://www.w3.org/1999/02/22-rdf-syntax-ns#"
   xmlns:svg="http://www.w3.org/2000/svg"
   xmlns="http://www.w3.org/2000/svg"
   xmlns:inkscape="http://www.inkscape.org/namespaces/inkscape"
   version="1.1"
   width="100%"
   height="100%"
   viewBox="0 0 512 512"
   id="svg2">
  <metadata
     id="metadata135">
    <rdf:RDF>
      <cc:Work
         rdf:about="">
        <dc:format>image/svg+xml</dc:format>
        <dc:type
           rdf:resource="http://purl.org/dc/dcmitype/StillImage" />
      </cc:Work>
    </rdf:RDF>
  </metadata>
  <defs
     id="defs4">
    <clipPath
       id="0">
      <rect
         width="512"
         height="512"
         rx="25.988001"
         x="0"
         y="0"
         id="rect7"
         style="fill:#666666" />
    </clipPath>
  </defs>
  <rect
     width="512"
     height="512"
     rx="25.988001"
     x="0"
     y="0"
     id="rect9"
     style="fill:#666666" />
  <text
     x="220.52"
     y="179.00999"
     id="text11"
     style="font-size:129.22999573px;line-height:125%;letter-spacing:0;word-spacing:0;font-family:Gentium Book Basic">
    <tspan
       x="220.52"
       y="179.00999"
       id="tspan13" />
  </text>
  <text
     x="252.03"
     y="369.19"
     transform="scale(4.0128,0.2492)"
     id="text15"
     style="font-size:46.95399857px;text-anchor:middle;font-family:Arial" />
  <text
     x="801.78998"
     y="99.010002"
     id="text17"
     style="font-size:129.22999573px;line-height:125%;letter-spacing:0;word-spacing:0;font-family:Gentium Book Basic">
    <tspan
       x="801.78998"
       y="99.010002"
       id="tspan19" />
  </text>
  <text
     x="396.88"
     y="48.16"
     transform="scale(4.0128,0.2492)"
     id="text21"
     style="font-size:46.95399857px;text-anchor:middle;font-family:Arial" />
  <text
     x="-269.79001"
     y="-82.25"
     id="text23"
     style="font-size:129.22999573px;line-height:125%;letter-spacing:0;word-spacing:0;font-family:Gentium Book Basic">
    <tspan
       x="-269.79001"
       y="-82.25"
       id="tspan25" />
  </text>
  <text
     x="129.85001"
     y="-679.19"
     transform="scale(4.0128,0.2492)"
     id="text27"
     style="font-size:46.95399857px;text-anchor:middle;font-family:Arial" />
  <text
     x="828.26001"
     y="-298.72"
     id="text29"
     style="font-size:129.22999573px;line-height:125%;letter-spacing:0;word-spacing:0;font-family:Gentium Book Basic">
    <tspan
       x="828.26001"
       y="-298.72"
       id="tspan31" />
  </text>
  <text
     x="403.48001"
     y="-1547.86"
     transform="scale(4.0128,0.2492)"
     id="text33"
     style="font-size:46.95399857px;text-anchor:middle;font-family:Arial" />
  <text
     x="1409.53"
     y="-378.73001"
     id="text35"
     style="font-size:129.22999573px;line-height:125%;letter-spacing:0;word-spacing:0;font-family:Gentium Book Basic">
    <tspan
       x="1409.53"
       y="-378.73001"
       id="tspan37" />
  </text>
  <text
     x="548.33002"
     y="-1868.9"
     transform="scale(4.0128,0.2492)"
     id="text39"
     style="font-size:46.95399857px;text-anchor:middle;font-family:Arial" />
  <text
     x="1020.41"
     y="-851.13"
     id="text41"
     style="font-size:129.22999573px;line-height:125%;letter-spacing:0;word-spacing:0;font-family:Gentium Book Basic">
    <tspan
       x="1020.41"
       y="-851.13"
       id="tspan43" />
  </text>
  <text
     x="451.35999"
     y="-3764.55"
     transform="scale(4.0128,0.2492)"
     id="text45"
     style="font-size:46.95399857px;text-anchor:middle;font-family:Arial" />
  <text
     x="1601.67"
     y="-931.13"
     id="text47"
     style="font-size:129.22999573px;line-height:125%;letter-spacing:0;word-spacing:0;font-family:Gentium Book Basic">
    <tspan
       x="1601.67"
       y="-931.13"
       id="tspan49" />
  </text>
  <text
     x="596.21002"
     y="-4085.5801"
     transform="scale(4.0128,0.2492)"
     id="text51"
     style="font-size:46.95399857px;text-anchor:middle;font-family:Arial" />
  <text
     x="-231.13"
     y="483.59"
     id="text53"
     style="font-size:208.33000183px;line-height:125%;letter-spacing:0;word-spacing:0;font-family:Gentium Book Basic">
    <tspan
       x="-231.13"
       y="483.59"
       id="tspan55" />
  </text>
  <g
     clip-path="url(#0)"
     id="g57"
     style="opacity:0.25">
    <path
       d="m 41,90.81 v 51.594 l 353.55,353.55 V 444.36 z"
       inkscape:connector-curvature="0"
       id="path59" />
    <path
       d="m 41,142.41 h 60.22 l 353.55,353.55 h -60.22 z"
       inkscape:connector-curvature="0"
       id="path61" />
    <path
       d="m 101.22,142.41 c 4.085,-6.383 10.568,-10.5 17.938,-10.5 l 353.55,353.55 c -7.37,0 -13.852,4.117 -17.938,10.5 z"
       inkscape:connector-curvature="0"
       id="path63" />
    <path
       d="m 119.16,131.91 h 29.625 l 353.55,353.55 H 472.71 z"
       inkscape:connector-curvature="0"
       id="path65" />
    <path
       d="m 148.78,131.91 c 5.57,0 10.633,2.352 14.538,6.256 l 353.55,353.55 c -3.904,-3.904 -8.968,-6.256 -14.538,-6.256 z"
       inkscape:connector-curvature="0"
       id="path67" />
    <path
       d="m 163.32,138.16 c 1.262,1.262 2.402,2.685 3.4,4.244 l 353.55,353.55 c -0.998,-1.559 -2.138,-2.982 -3.4,-4.244 z"
       inkscape:connector-curvature="0"
       id="path69" />
    <path
       d="m 166.72,142.41 h 60.25 l 353.55,353.55 h -60.25 z"
       inkscape:connector-curvature="0"
       id="path71" />
    <path
       d="M 226.97,142.41 V 90.816 l 353.55,353.55 v 51.594 z"
       inkscape:connector-curvature="0"
       id="path73" />
    <path
       d="M 226.97,90.81 H 41 l 353.55,353.55 h 185.97 z"
       inkscape:connector-curvature="0"
       id="path75" />
    <path
       d="m 285.09,90.81 v 51.594 l 353.55,353.55 V 444.36 z"
       inkscape:connector-curvature="0"
       id="path77" />
    <path
       d="m 285.09,142.41 h 60.22 l 353.55,353.55 h -60.22 z"
       inkscape:connector-curvature="0"
       id="path79" />
    <path
       d="m 345.31,142.41 c 4.085,-6.383 10.568,-10.5 17.938,-10.5 l 353.55,353.55 c -7.37,0 -13.852,4.117 -17.938,10.5 z"
       inkscape:connector-curvature="0"
       id="path81" />
    <path
       d="m 363.25,131.91 h 29.594 l 353.55,353.55 H 716.8 z"
       inkscape:connector-curvature="0"
       id="path83" />
    <path
       d="m 392.84,131.91 c 5.57,0 10.633,2.352 14.538,6.256 l 353.55,353.55 c -3.904,-3.904 -8.968,-6.256 -14.538,-6.256 z"
       inkscape:connector-curvature="0"
       id="path85" />
    <path
       d="m 407.38,138.16 c 1.262,1.262 2.402,2.685 3.4,4.244 l 353.55,353.55 c -0.998,-1.559 -2.138,-2.982 -3.4,-4.244 z"
       inkscape:connector-curvature="0"
       id="path87" />
    <path
       d="M 410.78,142.41 H 471 l 353.55,353.55 h -60.22 z"
       inkscape:connector-curvature="0"
       id="path89" />
    <path
       d="M 471,142.41 V 90.816 l 353.55,353.55 v 51.594 z"
       inkscape:connector-curvature="0"
       id="path91" />
    <path
       d="M 471,90.81 H 285.09 l 353.55,353.55 h 185.91 z"
       inkscape:connector-curvature="0"
       id="path93" />
    <path
       d="M 41,172 V 421.19 L 394.55,774.74 V 525.55 z"
       inkscape:connector-curvature="0"
       id="path95" />
    <path
       d="M 41,421.19 H 226.97 L 580.52,774.74 H 394.55 z"
       inkscape:connector-curvature="0"
       id="path97" />
    <path
       d="M 226.97,421.19 V 172 l 353.55,353.55 v 249.19 z"
       inkscape:connector-curvature="0"
       id="path99" />
    <path
       d="m 226.97,172 h -59.09 l 353.55,353.55 h 59.09 z"
       inkscape:connector-curvature="0"
       id="path101" />
    <path
       d="m 167.88,172 c -3.949,7.453 -10.985,12.375 -19.06,12.375 l 353.55,353.55 c 8.08,0 15.11,-4.922 19.06,-12.375 z"
       inkscape:connector-curvature="0"
       id="path103" />
    <path
       d="m 148.81,184.38 h -29.625 l 353.55,353.55 h 29.625 z"
       inkscape:connector-curvature="0"
       id="path105" />
    <path
       d="m 119.19,184.38 c -5.581,0 -10.666,-2.351 -14.579,-6.264 l 353.55,353.55 c 3.913,3.913 8.998,6.264 14.579,6.264 z"
       inkscape:connector-curvature="0"
       id="path107" />
    <path
       d="m 104.61,178.11 c -1.749,-1.749 -3.263,-3.809 -4.483,-6.111 l 353.55,353.55 c 1.22,2.302 2.735,4.362 4.483,6.111 z"
       inkscape:connector-curvature="0"
       id="path109" />
    <path
       d="M 100.13,172 H 41.01 l 353.55,353.55 h 59.13 z"
       inkscape:connector-curvature="0"
       id="path111" />
    <path
       d="M 285.09,172 V 421.19 L 638.64,774.74 V 525.55 z"
       inkscape:connector-curvature="0"
       id="path113" />
    <path
       d="M 285.09,421.19 H 471 L 824.55,774.74 H 638.64 z"
       inkscape:connector-curvature="0"
       id="path115" />
    <path
       d="M 471,421.19 V 172 l 353.55,353.55 v 249.19 z"
       inkscape:connector-curvature="0"
       id="path117" />
    <path
       d="m 471,172 h -59.09 l 353.55,353.55 h 59.09 z"
       inkscape:connector-curvature="0"
       id="path119" />
    <path
       d="m 411.91,172 c -3.949,7.453 -10.985,12.375 -19.06,12.375 l 353.55,353.55 c 8.08,0 15.11,-4.922 19.06,-12.375 z"
       inkscape:connector-curvature="0"
       id="path121" />
    <path
       d="m 392.84,184.38 h -29.594 l 353.55,353.55 h 29.594 z"
       inkscape:connector-curvature="0"
       id="path123" />
    <path
       d="m 363.25,184.38 c -5.581,0 -10.666,-2.351 -14.579,-6.264 l 353.55,353.55 c 3.913,3.913 8.998,6.264 14.579,6.264 z"
       inkscape:connector-curvature="0"
       id="path125" />
    <path
       d="m 348.67,178.11 c -1.749,-1.749 -3.263,-3.809 -4.483,-6.111 l 353.55,353.55 c 1.22,2.302 2.735,4.362 4.483,6.111 z"
       inkscape:connector-curvature="0"
       id="path127" />
    <path
       d="M 344.19,172 H 285.1 l 353.55,353.55 h 59.09 z"
       inkscape:connector-curvature="0"
       id="path129" />
  </g>
  <path
     d="m 41,90.81 v 51.594 h 60.22 c 4.085,-6.383 10.568,-10.5 17.938,-10.5 h 29.625 c 7.37,0 13.852,4.117 17.938,10.5 h 60.25 V 90.81 H 41.001 m 244.09,0 v 51.594 h 60.22 c 4.085,-6.383 10.568,-10.5 17.938,-10.5 h 29.594 c 7.37,0 13.852,4.117 17.937,10.5 H 471 V 90.81 H 285.09 M 41,172 V 421.19 H 226.97 V 172 h -59.09 c -3.949,7.453 -10.985,12.375 -19.06,12.375 h -29.625 c -8.08,0 -15.11,-4.922 -19.06,-12.375 h -59.12 m 244.09,0 v 249.19 h 185.91 V 172 h -59.09 c -3.949,7.453 -10.985,12.375 -19.06,12.375 h -29.594 c -8.08,0 -15.11,-4.922 -19.06,-12.375 h -59.09"
     inkscape:connector-curvature="0"
     id="path131"
     style="fill:#ffffff" />
</svg>
