<?xml version="1.0" encoding="UTF-8" standalone="no"?>
<!-- Created with Inkscape (http://www.inkscape.org/) -->

<svg
   xmlns:dc="http://purl.org/dc/elements/1.1/"
   xmlns:cc="http://creativecommons.org/ns#"
   xmlns:rdf="http://www.w3.org/1999/02/22-rdf-syntax-ns#"
   xmlns:svg="http://www.w3.org/2000/svg"
   xmlns="http://www.w3.org/2000/svg"
   xmlns:sodipodi="http://sodipodi.sourceforge.net/DTD/sodipodi-0.dtd"
   xmlns:inkscape="http://www.inkscape.org/namespaces/inkscape"
   version="1.1"
   width="100%"
   height="100%"
   viewBox="0 0 512 512"
   id="svg2"
   inkscape:version="0.48.5 r10040"
   sodipodi:docname="libreoffice-impress.svg">
  <sodipodi:namedview
     pagecolor="#ffffff"
     bordercolor="#666666"
     borderopacity="1"
     objecttolerance="10"
     gridtolerance="10"
     guidetolerance="10"
     inkscape:pageopacity="0"
     inkscape:pageshadow="2"
     inkscape:window-width="640"
     inkscape:window-height="480"
     id="namedview55"
     showgrid="false"
     inkscape:zoom="0.4609375"
     inkscape:cx="256"
     inkscape:cy="256"
     inkscape:window-x="56"
     inkscape:window-y="0"
     inkscape:window-maximized="0"
     inkscape:current-layer="svg2" />
  <metadata
     id="metadata107">
    <rdf:RDF>
      <cc:Work
         rdf:about="">
        <dc:format>image/svg+xml</dc:format>
        <dc:type
           rdf:resource="http://purl.org/dc/dcmitype/StillImage" />
      </cc:Work>
    </rdf:RDF>
  </metadata>
  <defs
     id="defs4">
    <clipPath
       id="0">
      <path
         d="M 26,0 C 11.603,0 0,11.603 0,26 v 460 c 0,14.397 11.603,26 26,26 h 460 c 14.397,0 26,-11.603 26,-26 V 26 C 512,11.603 500.397,0 486,0 H 26"
         inkscape:connector-curvature="0"
         id="path7" />
    </clipPath>
  </defs>
  <path
     d="M 26,0 C 11.603,0 0,11.603 0,26 v 460 c 0,14.397 11.603,26 26,26 h 460 c 14.397,0 26,-11.603 26,-26 V 26 C 512,11.603 500.397,0 486,0 H 26"
     inkscape:connector-curvature="0"
     id="path9"
     style="fill:#666666" />
  <text
     x="59.439999"
     y="251.11"
     id="text11"
     style="font-size:129.22999573px;line-height:125%;letter-spacing:0;word-spacing:0;font-family:Gentium Book Basic">
    <tspan
       x="59.439999"
       y="251.11"
       id="tspan13" />
  </text>
  <text
     x="211.89"
     y="658.52002"
     transform="scale(4.0128,0.2492)"
     id="text15"
     style="font-size:46.95399857px;text-anchor:middle;font-family:Arial" />
  <text
     x="640.71002"
     y="171.11"
     id="text17"
     style="font-size:129.22999573px;line-height:125%;letter-spacing:0;word-spacing:0;font-family:Gentium Book Basic">
    <tspan
       x="640.71002"
       y="171.11"
       id="tspan19" />
  </text>
  <text
     x="356.73999"
     y="337.48999"
     transform="scale(4.0128,0.2492)"
     id="text21"
     style="font-size:46.95399857px;text-anchor:middle;font-family:Arial" />
  <text
     x="-430.87"
     y="-10.147"
     id="text23"
     style="font-size:129.22999573px;line-height:125%;letter-spacing:0;word-spacing:0;font-family:Gentium Book Basic">
    <tspan
       x="-430.87"
       y="-10.147"
       id="tspan25" />
  </text>
  <text
     x="89.699997"
     y="-389.87"
     transform="scale(4.0128,0.2492)"
     id="text27"
     style="font-size:46.95399857px;text-anchor:middle;font-family:Arial" />
  <text
     x="667.17999"
     y="-226.62"
     id="text29"
     style="font-size:129.22999573px;line-height:125%;letter-spacing:0;word-spacing:0;font-family:Gentium Book Basic">
    <tspan
       x="667.17999"
       y="-226.62"
       id="tspan31" />
  </text>
  <text
     x="363.34"
     y="-1258.53"
     transform="scale(4.0128,0.2492)"
     id="text33"
     style="font-size:46.95399857px;text-anchor:middle;font-family:Arial" />
  <text
     x="1248.45"
     y="-306.63"
     id="text35"
     style="font-size:129.22999573px;line-height:125%;letter-spacing:0;word-spacing:0;font-family:Gentium Book Basic">
    <tspan
       x="1248.45"
       y="-306.63"
       id="tspan37" />
  </text>
  <text
     x="508.19"
     y="-1579.5699"
     transform="scale(4.0128,0.2492)"
     id="text39"
     style="font-size:46.95399857px;text-anchor:middle;font-family:Arial" />
  <text
     x="859.33002"
     y="-779.03003"
     id="text41"
     style="font-size:129.22999573px;line-height:125%;letter-spacing:0;word-spacing:0;font-family:Gentium Book Basic">
    <tspan
       x="859.33002"
       y="-779.03003"
       id="tspan43" />
  </text>
  <text
     x="411.22"
     y="-3475.22"
     transform="scale(4.0128,0.2492)"
     id="text45"
     style="font-size:46.95399857px;text-anchor:middle;font-family:Arial" />
  <text
     x="1440.59"
     y="-859.03003"
     id="text47"
     style="font-size:129.22999573px;line-height:125%;letter-spacing:0;word-spacing:0;font-family:Gentium Book Basic">
    <tspan
       x="1440.59"
       y="-859.03003"
       id="tspan49" />
  </text>
  <text
     x="556.07001"
     y="-3796.25"
     transform="scale(4.0128,0.2492)"
     id="text51"
     style="font-size:46.95399857px;text-anchor:middle;font-family:Arial" />
  <text
     x="-392.20999"
     y="555.69"
     id="text53"
     style="font-size:208.33000183px;line-height:125%;letter-spacing:0;word-spacing:0;font-family:Gentium Book Basic">
    <tspan
       x="-392.20999"
       y="555.69"
       id="tspan55" />
  </text>
  <g
     clip-path="url(#0)"
     id="g57"
     style="opacity:0.4">
    <path
       d="m 41,90.67 v 99.19 l 353.55,353.55 v -99.19 z"
       inkscape:connector-curvature="0"
       id="path59" />
    <path
       d="M 41,189.85 H 173.3 L 526.85,543.4 h -132.3 z"
       inkscape:connector-curvature="0"
       id="path61" />
    <path
       d="M 173.3,189.85 V 90.66 l 353.55,353.55 v 99.19 z"
       inkscape:connector-curvature="0"
       id="path63" />
    <path
       d="M 173.3,90.67 H 41 l 353.55,353.55 h 132.3 z"
       inkscape:connector-curvature="0"
       id="path65" />
    <path
       d="M 355.21,90.67 V 206.46 L 708.76,560.01 V 444.22 z"
       inkscape:connector-curvature="0"
       id="path67" />
    <path
       d="M 355.21,206.45 H 471 L 824.55,560 H 708.76 z"
       inkscape:connector-curvature="0"
       id="path69" />
    <path
       d="m 471,206.45 c 0,-31.973 -12.956,-60.926 -33.913,-81.88 l 353.55,353.55 c 20.957,20.957 33.913,49.91 33.913,81.88 z"
       inkscape:connector-curvature="0"
       id="path71" />
    <path
       d="M 437.09,124.57 C 416.142,103.622 387.201,90.664 355.21,90.664 l 353.55,353.55 c 31.987,0 60.929,12.959 81.88,33.906 z"
       inkscape:connector-curvature="0"
       id="path73" />
    <path
       d="m 338.46,107.17 c -63.931,0 -115.79,51.8 -115.79,115.79 l 353.55,353.55 c 0,-63.99 51.858,-115.79 115.79,-115.79 z"
       inkscape:connector-curvature="0"
       id="path75" />
    <path
       d="m 222.67,222.96 c 0,31.973 12.956,60.926 33.913,81.88 l 353.55,353.55 C 589.176,637.433 576.22,608.48 576.22,576.51 z"
       inkscape:connector-curvature="0"
       id="path77" />
    <path
       d="m 256.59,304.85 c 20.948,20.948 49.889,33.906 81.88,33.906 l 353.55,353.55 c -31.987,0 -60.929,-12.959 -81.88,-33.906 z"
       inkscape:connector-curvature="0"
       id="path79" />
    <path
       d="m 338.46,338.75 c 63.931,0 115.79,-51.8 115.79,-115.79 L 807.8,576.51 c 0,63.99 -51.858,115.79 -115.79,115.79 z"
       inkscape:connector-curvature="0"
       id="path81" />
    <path
       d="M 454.25,222.96 H 338.46 L 692.01,576.51 H 807.8 z"
       inkscape:connector-curvature="0"
       id="path83" />
    <path
       d="M 338.46,222.96 V 107.17 l 353.55,353.55 v 115.79 z"
       inkscape:connector-curvature="0"
       id="path85" />
    <path
       d="M 41,239.47 V 338.7 L 394.55,692.25 V 593.02 z"
       inkscape:connector-curvature="0"
       id="path87" />
    <path
       d="M 41,338.7 H 173.3 L 526.85,692.25 H 394.55 z"
       inkscape:connector-curvature="0"
       id="path89" />
    <path
       d="m 173.3,338.7 v -99.23 l 353.55,353.55 v 99.23 z"
       inkscape:connector-curvature="0"
       id="path91" />
    <path
       d="M 173.3,239.47 H 41 l 353.55,353.55 h 132.3 z"
       inkscape:connector-curvature="0"
       id="path93" />
    <path
       d="m 41,388.27 v 33.06 l 353.55,353.55 v -33.06 z"
       inkscape:connector-curvature="0"
       id="path95" />
    <path
       d="m 41,421.33 h 430 l 353.55,353.55 h -430 z"
       inkscape:connector-curvature="0"
       id="path97" />
    <path
       d="m 471,421.33 v -33.06 l 353.55,353.55 v 33.06 z"
       inkscape:connector-curvature="0"
       id="path99" />
    <path
       d="M 471,388.27 H 41 l 353.55,353.55 h 430 z"
       inkscape:connector-curvature="0"
       id="path101" />
  </g>
  <path
     d="m 41,90.67 v 99.19 H 173.3 V 90.67 H 41 m 314.21,0 V 206.46 H 471 C 471,142.529 419.2,90.67 355.21,90.67 m -16.746,16.507 c -63.931,0 -115.79,51.8 -115.79,115.79 0,63.931 51.8,115.79 115.79,115.79 63.931,0 115.79,-51.8 115.79,-115.79 h -115.79 v -115.79 m -297.46,132.3 v 99.23 h 132.3 v -99.23 h -132.3 m 0,148.8 v 33.06 h 430 v -33.06 h -430"
     inkscape:connector-curvature="0"
     id="path103"
     style="fill:#ffffff" />
</svg>
