<?xml version="1.0" encoding="UTF-8" standalone="no"?>
<!-- Created with Inkscape (http://www.inkscape.org/) -->

<svg
   xmlns:dc="http://purl.org/dc/elements/1.1/"
   xmlns:cc="http://creativecommons.org/ns#"
   xmlns:rdf="http://www.w3.org/1999/02/22-rdf-syntax-ns#"
   xmlns:svg="http://www.w3.org/2000/svg"
   xmlns="http://www.w3.org/2000/svg"
   xmlns:inkscape="http://www.inkscape.org/namespaces/inkscape"
   version="1.1"
   width="100%"
   height="100%"
   viewBox="0 0 512 512"
   id="svg2">
  <metadata
     id="metadata175">
    <rdf:RDF>
      <cc:Work
         rdf:about="">
        <dc:format>image/svg+xml</dc:format>
        <dc:type
           rdf:resource="http://purl.org/dc/dcmitype/StillImage" />
      </cc:Work>
    </rdf:RDF>
  </metadata>
  <defs
     id="defs4">
    <clipPath
       id="0">
      <path
         d="M 26,0 C 11.603,0 0,11.603 0,26 v 460 c 0,14.397 11.603,26 26,26 h 460 c 14.397,0 26,-11.603 26,-26 V 26 C 512,11.603 500.397,0 486,0 H 26"
         inkscape:connector-curvature="0"
         id="path7" />
    </clipPath>
  </defs>
  <path
     d="M 26,0 C 11.603,0 0,11.603 0,26 v 460 c 0,14.397 11.603,26 26,26 h 460 c 14.397,0 26,-11.603 26,-26 V 26 C 512,11.603 500.397,0 486,0 H 26"
     inkscape:connector-curvature="0"
     id="path9"
     style="fill:#666666" />
  <text
     x="-72.489998"
     y="63.959"
     id="text11"
     style="font-size:129.22999573px;line-height:125%;letter-spacing:0;word-spacing:0;font-family:Gentium Book Basic">
    <tspan
       x="-72.489998"
       y="63.959"
       id="tspan13" />
  </text>
  <text
     x="179.02"
     y="-92.5"
     transform="scale(4.0128,0.2492)"
     id="text15"
     style="font-size:46.95399857px;text-anchor:middle;font-family:Arial" />
  <text
     x="508.78"
     y="-16.040001"
     id="text17"
     style="font-size:129.22999573px;line-height:125%;letter-spacing:0;word-spacing:0;font-family:Gentium Book Basic">
    <tspan
       x="508.78"
       y="-16.040001"
       id="tspan19" />
  </text>
  <text
     x="323.87"
     y="-413.53"
     transform="scale(4.0128,0.2492)"
     id="text21"
     style="font-size:46.95399857px;text-anchor:middle;font-family:Arial" />
  <text
     x="-562.79999"
     y="-197.3"
     id="text23"
     style="font-size:129.22999573px;line-height:125%;letter-spacing:0;word-spacing:0;font-family:Gentium Book Basic">
    <tspan
       x="-562.79999"
       y="-197.3"
       id="tspan25" />
  </text>
  <text
     x="56.827999"
     y="-1140.89"
     transform="scale(4.0128,0.2492)"
     id="text27"
     style="font-size:46.95399857px;text-anchor:middle;font-family:Arial" />
  <text
     x="535.25"
     y="-413.76999"
     id="text29"
     style="font-size:129.22999573px;line-height:125%;letter-spacing:0;word-spacing:0;font-family:Gentium Book Basic">
    <tspan
       x="535.25"
       y="-413.76999"
       id="tspan31" />
  </text>
  <text
     x="330.47"
     y="-2009.55"
     transform="scale(4.0128,0.2492)"
     id="text33"
     style="font-size:46.95399857px;text-anchor:middle;font-family:Arial" />
  <text
     x="1116.52"
     y="-493.78"
     id="text35"
     style="font-size:129.22999573px;line-height:125%;letter-spacing:0;word-spacing:0;font-family:Gentium Book Basic">
    <tspan
       x="1116.52"
       y="-493.78"
       id="tspan37" />
  </text>
  <text
     x="475.32001"
     y="-2330.5901"
     transform="scale(4.0128,0.2492)"
     id="text39"
     style="font-size:46.95399857px;text-anchor:middle;font-family:Arial" />
  <text
     x="727.40002"
     y="-966.17999"
     id="text41"
     style="font-size:129.22999573px;line-height:125%;letter-spacing:0;word-spacing:0;font-family:Gentium Book Basic">
    <tspan
       x="727.40002"
       y="-966.17999"
       id="tspan43" />
  </text>
  <text
     x="378.35001"
     y="-4226.2402"
     transform="scale(4.0128,0.2492)"
     id="text45"
     style="font-size:46.95399857px;text-anchor:middle;font-family:Arial" />
  <text
     x="1308.66"
     y="-1046.1801"
     id="text47"
     style="font-size:129.22999573px;line-height:125%;letter-spacing:0;word-spacing:0;font-family:Gentium Book Basic">
    <tspan
       x="1308.66"
       y="-1046.1801"
       id="tspan49" />
  </text>
  <text
     x="523.20001"
     y="-4547.27"
     transform="scale(4.0128,0.2492)"
     id="text51"
     style="font-size:46.95399857px;text-anchor:middle;font-family:Arial" />
  <text
     x="-524.14001"
     y="368.54001"
     id="text53"
     style="font-size:208.33000183px;line-height:125%;letter-spacing:0;word-spacing:0;font-family:Gentium Book Basic">
    <tspan
       x="-524.14001"
       y="368.54001"
       id="tspan55" />
  </text>
  <g
     clip-path="url(#0)"
     id="g57"
     style="opacity:0.25;fill-rule:evenodd">
    <path
       d="m 114.88,112.02 c -73.54,0 -73.881,79.19 -73.881,79.19 l 353.55,353.55 c 0,0 0.346,-79.19 73.881,-79.19 z"
       inkscape:connector-curvature="0"
       id="path59" />
    <path
       d="m 41,191.21 c 0,0 0,0 0,0 l 353.55,353.55 c 0,0 0,0 0,0 z"
       inkscape:connector-curvature="0"
       id="path61" />
    <path
       d="m 41,191.21 v 90.04 L 394.55,634.8 v -90.04 z"
       inkscape:connector-curvature="0"
       id="path63" />
    <path
       d="m 41,281.25 c 0,16.922 11.599,39.468 22.898,50.767 l 353.55,353.55 C 406.149,674.268 394.55,651.722 394.55,634.8 z"
       inkscape:connector-curvature="0"
       id="path65" />
    <path
       d="m 63.898,332.02 c 0.011,0.011 0.022,0.022 0.033,0.033 l 353.55,353.55 c -0.011,-0.011 -0.022,-0.022 -0.033,-0.033 z"
       inkscape:connector-curvature="0"
       id="path67" />
    <path
       d="m 63.931,332.05 c 19.998,19.959 33.854,17.1 33.854,17.1 l 353.55,353.55 c 0,0 -13.856,2.863 -33.854,-17.1 z"
       inkscape:connector-curvature="0"
       id="path69" />
    <path
       d="m 97.79,349.15 c 0,0 0.18,5.585 5.836,22.52 l 353.55,353.55 C 451.52,708.285 451.34,702.7 451.34,702.7 z"
       inkscape:connector-curvature="0"
       id="path71" />
    <path
       d="m 103.62,371.67 c 2.035,6.093 5.492,11.467 9.876,15.851 l 353.55,353.55 c -4.384,-4.384 -7.841,-9.758 -9.876,-15.851 z"
       inkscape:connector-curvature="0"
       id="path73" />
    <path
       d="m 113.5,387.52 c 7.802,7.802 18.537,12.467 29.403,12.467 l 353.55,353.55 c -10.865,0 -21.6,-4.665 -29.403,-12.467 z"
       inkscape:connector-curvature="0"
       id="path75" />
    <path
       d="m 142.9,399.98 c 16.97,0 22.931,-5.836 22.931,-5.836 l 353.55,353.55 c 0,0 -5.962,5.836 -22.931,5.836 z"
       inkscape:connector-curvature="0"
       id="path77" />
    <path
       d="m 165.83,394.15 v -22.482 l 353.55,353.55 V 747.7 z"
       inkscape:connector-curvature="0"
       id="path79" />
    <path
       d="m 165.83,371.67 c 0,0 -5.783,0.183 -17.1,-5.462 l 353.55,353.55 c 11.312,5.644 17.1,5.462 17.1,5.462 z"
       inkscape:connector-curvature="0"
       id="path81" />
    <path
       d="m 148.74,366.2 c -2.248,-1.122 -4.049,-2.471 -5.492,-3.914 l 353.55,353.55 c 1.442,1.442 3.243,2.792 5.492,3.914 z"
       inkscape:connector-curvature="0"
       id="path83" />
    <path
       d="m 143.24,362.29 c -5.817,-5.817 -5.805,-13.144 -5.805,-13.144 l 353.55,353.55 c 0,0 -0.011,7.328 5.805,13.144 z"
       inkscape:connector-curvature="0"
       id="path85" />
    <path
       d="m 137.44,349.15 c 0,0 16.843,-5.547 33.817,-22.482 l 353.55,353.55 C 507.833,697.153 490.99,702.7 490.99,702.7 z"
       inkscape:connector-curvature="0"
       id="path87" />
    <path
       d="m 171.26,326.66 c 16.97,-16.938 17.13,-45.41 17.13,-45.41 L 541.94,634.8 c 0,0 -0.163,28.475 -17.13,45.41 z"
       inkscape:connector-curvature="0"
       id="path89" />
    <path
       d="M 188.39,281.25 V 196.63 L 541.94,550.18 V 634.8 z"
       inkscape:connector-curvature="0"
       id="path91" />
    <path
       d="m 188.39,196.63 c 0,0 0.012,-41.13 -24.898,-66.04 l 353.55,353.55 c 24.909,24.909 24.898,66.04 24.898,66.04 z"
       inkscape:connector-curvature="0"
       id="path93" />
    <path
       d="m 163.49,130.6 c -10.82,-10.82 -26.342,-18.58 -48.609,-18.58 l 353.55,353.55 c 22.267,0 37.789,7.76 48.609,18.58 z"
       inkscape:connector-curvature="0"
       id="path95" />
    <path
       d="m 226.92,123.65 -0.037,0.037 353.55,353.55 0.037,-0.037 z"
       inkscape:connector-curvature="0"
       id="path97" />
    <path
       d="m 226.88,123.69 -17.1,45 353.55,353.55 17.1,-45 z"
       inkscape:connector-curvature="0"
       id="path99" />
    <path
       d="m 209.79,168.69 h -11.297 l 353.55,353.55 h 11.297 z"
       inkscape:connector-curvature="0"
       id="path101" />
    <path
       d="m 198.49,168.69 v 22.52 l 353.55,353.55 v -22.52 z"
       inkscape:connector-curvature="0"
       id="path103" />
    <path
       d="m 198.49,191.21 h 11.297 l 353.55,353.55 H 552.04 z"
       inkscape:connector-curvature="0"
       id="path105" />
    <path
       d="M 209.79,191.21 V 309.94 L 563.34,663.49 V 544.76 z"
       inkscape:connector-curvature="0"
       id="path107" />
    <path
       d="m 209.79,309.94 c 0,0 0.032,12.298 8.311,20.577 l 353.55,353.55 c -8.279,-8.279 -8.311,-20.577 -8.311,-20.577 z"
       inkscape:connector-curvature="0"
       id="path109" />
    <path
       d="m 218.1,330.52 c 4.201,4.201 10.524,7.367 20.04,7.367 l 353.55,353.55 c -9.52,0 -15.843,-3.166 -20.04,-7.367 z"
       inkscape:connector-curvature="0"
       id="path111" />
    <path
       d="m 238.14,337.89 c 28.28,0 33.892,-11.222 33.892,-11.222 l 353.55,353.55 c 0,0 -5.61,11.222 -33.892,11.222 z"
       inkscape:connector-curvature="0"
       id="path113" />
    <path
       d="m 272.03,326.66 v -21.772 l 353.55,353.55 v 21.772 z"
       inkscape:connector-curvature="0"
       id="path115" />
    <path
       d="m 272.03,304.89 c -0.53,1.587 -2.812,5.05 -11.297,5.05 l 353.55,353.55 c 8.485,0 10.767,-3.463 11.297,-5.05 z"
       inkscape:connector-curvature="0"
       id="path117" />
    <path
       d="m 260.74,309.94 c -5.579,0 -9.722,-2.729 -12.488,-5.496 l 353.55,353.55 c 2.767,2.767 6.909,5.495 12.488,5.495 z"
       inkscape:connector-curvature="0"
       id="path119" />
    <path
       d="m 248.25,304.45 c -2.844,-2.844 -4.233,-5.727 -4.233,-5.727 l 353.55,353.55 c 0,0 1.389,2.883 4.233,5.727 z"
       inkscape:connector-curvature="0"
       id="path121" />
    <path
       d="M 244.01,298.72 V 191.21 l 353.55,353.55 v 107.51 z"
       inkscape:connector-curvature="0"
       id="path123" />
    <path
       d="m 244.01,191.21 h 28.02 l 353.55,353.55 h -28.02 z"
       inkscape:connector-curvature="0"
       id="path125" />
    <path
       d="m 272.03,191.21 v -22.557 l 353.55,353.55 v 22.557 z"
       inkscape:connector-curvature="0"
       id="path127" />
    <path
       d="M 272.03,168.65 H 244.01 L 597.56,522.2 h 28.02 z"
       inkscape:connector-curvature="0"
       id="path129" />
    <path
       d="m 244.01,168.65 v -45 L 597.56,477.2 v 45 z"
       inkscape:connector-curvature="0"
       id="path131" />
    <path
       d="m 244.01,123.65 h -17.1 L 580.46,477.2 h 17.1 z"
       inkscape:connector-curvature="0"
       id="path133" />
    <path
       d="m 118.4,140.37 c 9.53,0 15.861,3.172 20.07,7.378 l 353.55,353.55 c -4.206,-4.206 -10.538,-7.378 -20.07,-7.378 z"
       inkscape:connector-curvature="0"
       id="path135" />
    <path
       d="m 138.47,147.75 c 8.279,8.279 8.325,20.566 8.325,20.566 l 353.55,353.55 c 0,0 -0.046,-12.287 -8.325,-20.566 z"
       inkscape:connector-curvature="0"
       id="path137" />
    <path
       d="M 146.79,168.32 V 281.26 L 500.34,634.81 V 521.87 z"
       inkscape:connector-curvature="0"
       id="path139" />
    <path
       d="m 146.79,281.25 c 0,0 -0.111,39.578 -28.393,39.578 l 353.55,353.55 c 28.28,0 28.393,-39.578 28.393,-39.578 z"
       inkscape:connector-curvature="0"
       id="path141" />
    <path
       d="m 118.4,320.83 c -7.462,0 -12.963,-2.754 -17.02,-6.809 l 353.55,353.55 c 4.055,4.055 9.556,6.809 17.02,6.809 z"
       inkscape:connector-curvature="0"
       id="path143" />
    <path
       d="M 101.38,314.02 C 90.063,302.703 90.006,281.252 90.006,281.252 l 353.55,353.55 c 0,0 0.057,21.451 11.374,32.768 z"
       inkscape:connector-curvature="0"
       id="path145" />
    <path
       d="M 90,281.25 V 174.11 L 443.55,527.66 V 634.8 z"
       inkscape:connector-curvature="0"
       id="path147" />
    <path
       d="m 90,174.11 c 0,0 0.111,-33.742 28.393,-33.742 l 353.55,353.55 c -28.28,0 -28.393,33.742 -28.393,33.742 z"
       inkscape:connector-curvature="0"
       id="path149" />
    <path
       d="m 375.02,166.59 c -43.33,0.079 -79.08,23.528 -82.67,56.19 L 645.9,576.33 c 3.591,-32.659 39.34,-56.11 82.67,-56.19 z"
       inkscape:connector-curvature="0"
       id="path151" />
    <path
       d="m 292.35,222.78 c -1.863,16.942 5.253,33.34 18.434,46.518 l 353.55,353.55 C 651.153,609.667 644.037,593.272 645.9,576.33 z"
       inkscape:connector-curvature="0"
       id="path153" />
    <path
       d="m 310.78,269.3 c 13.529,13.529 33.448,23.674 56.61,27.551 l 353.55,353.55 c -23.16,-3.877 -43.08,-14.02 -56.61,-27.551 z"
       inkscape:connector-curvature="0"
       id="path155" />
    <path
       d="m 367.39,296.85 c -6.116,19.14 -10.692,38.978 -16.834,48.556 l 353.55,353.55 c 6.142,-9.578 10.718,-29.414 16.834,-48.556 z"
       inkscape:connector-curvature="0"
       id="path157" />
    <path
       d="m 350.55,345.41 c 33.488,-13.287 78.7,-37.37 105,-72.12 L 809.1,626.84 c -26.304,34.751 -71.52,58.835 -105,72.12 z"
       inkscape:connector-curvature="0"
       id="path159" />
    <path
       d="m 455.56,273.28 c 8.415,-8.687 13.863,-19.2 15.15,-30.899 l 353.55,353.55 c -1.287,11.699 -6.735,22.21 -15.15,30.899 z"
       inkscape:connector-curvature="0"
       id="path161" />
    <path
       d="m 470.71,242.38 c 1.863,-16.938 -5.258,-33.33 -18.44,-46.513 l 353.55,353.55 c 13.182,13.182 20.303,29.575 18.44,46.513 z"
       inkscape:connector-curvature="0"
       id="path163" />
    <path
       d="M 452.27,195.87 C 437.4,181 414.817,170.216 388.71,167.342 l 353.55,353.55 c 26.11,2.873 48.689,13.658 63.56,28.528 z"
       inkscape:connector-curvature="0"
       id="path165" />
    <path
       d="m 388.71,167.34 h -0.037 l 353.55,353.55 h 0.037 z"
       inkscape:connector-curvature="0"
       id="path167" />
    <path
       d="m 388.67,167.34 c -4.617,-0.508 -9.172,-0.756 -13.654,-0.748 l 353.55,353.55 c 4.482,-0.008 9.04,0.24 13.654,0.748 z"
       inkscape:connector-curvature="0"
       id="path169" />
  </g>
  <path
     d="m 114.88,112.02 c -73.54,0 -73.881,79.19 -73.881,79.19 v 90.04 c 0,16.938 11.621,39.512 22.931,50.8 19.998,19.959 33.854,17.1 33.854,17.1 0,0 0.18,5.585 5.836,22.52 5.656,16.938 22.309,28.318 39.28,28.318 16.97,0 22.931,-5.836 22.931,-5.836 V 371.67 c 0,0 -5.783,0.183 -17.1,-5.462 -11.315,-5.645 -11.297,-17.06 -11.297,-17.06 0,0 16.843,-5.547 33.817,-22.482 16.97,-16.938 17.13,-45.41 17.13,-45.41 v -84.62 c 0,0 0.024,-84.62 -73.51,-84.62 m 112.04,11.634 -0.037,0.037 -17.1,45 h -11.297 v 22.52 h 11.297 v 118.73 c 0,0 0.074,27.944 28.355,27.944 28.28,0 33.892,-11.222 33.892,-11.222 v -21.772 c -0.53,1.587 -2.812,5.05 -11.297,5.05 -11.313,0 -16.721,-11.222 -16.721,-11.222 v -107.51 h 28.02 v -22.557 h -28.02 v -45 h -17.1 m -108.52,16.721 c 28.29,0 28.393,27.944 28.393,27.944 v 112.94 c 0,0 -0.111,39.578 -28.393,39.578 -28.29,0 -28.393,-39.578 -28.393,-39.578 v -107.14 c 0,0 0.111,-33.742 28.393,-33.742 m 256.62,26.22 c -43.33,0.079 -79.08,23.528 -82.67,56.19 -3.776,34.33 29.32,66.41 75.04,74.07 -6.116,19.14 -10.692,38.978 -16.834,48.556 33.488,-13.287 78.7,-37.37 105,-72.12 8.415,-8.687 13.863,-19.2 15.15,-30.899 3.963,-36.04 -32.75,-69.62 -81.999,-75.04 h -0.037 c -4.617,-0.508 -9.172,-0.756 -13.654,-0.748"
     inkscape:connector-curvature="0"
     id="path171"
     style="fill:#ffffff;fill-rule:evenodd" />
</svg>
