<?xml version="1.0" encoding="UTF-8" standalone="no"?>
<!-- Created with Inkscape (http://www.inkscape.org/) -->

<svg
   xmlns:dc="http://purl.org/dc/elements/1.1/"
   xmlns:cc="http://creativecommons.org/ns#"
   xmlns:rdf="http://www.w3.org/1999/02/22-rdf-syntax-ns#"
   xmlns:svg="http://www.w3.org/2000/svg"
   xmlns="http://www.w3.org/2000/svg"
   xmlns:inkscape="http://www.inkscape.org/namespaces/inkscape"
   version="1.1"
   width="100%"
   height="100%"
   viewBox="0 0 512 512"
   id="svg2">
  <metadata
     id="metadata117">
    <rdf:RDF>
      <cc:Work
         rdf:about="">
        <dc:format>image/svg+xml</dc:format>
        <dc:type
           rdf:resource="http://purl.org/dc/dcmitype/StillImage" />
      </cc:Work>
    </rdf:RDF>
  </metadata>
  <defs
     id="defs4">
    <clipPath
       id="0">
      <path
         d="M 26,0 C 11.603,0 0,11.603 0,26 v 460 c 0,14.397 11.603,26 26,26 h 460 c 14.397,0 26,-11.603 26,-26 V 26 C 512,11.603 500.397,0 486,0 H 26"
         inkscape:connector-curvature="0"
         id="path7" />
    </clipPath>
  </defs>
  <path
     d="M 26,0 C 11.603,0 0,11.603 0,26 v 460 c 0,14.397 11.603,26 26,26 h 460 c 14.397,0 26,-11.603 26,-26 V 26 C 512,11.603 500.397,0 486,0 H 26"
     inkscape:connector-curvature="0"
     id="path9"
     style="fill:#666666" />
  <text
     x="-250.44"
     y="189.75"
     id="text11"
     style="font-size:129.22999573px;line-height:125%;letter-spacing:0;word-spacing:0;font-family:Gentium Book Basic">
    <tspan
       x="-250.44"
       y="189.75"
       id="tspan13" />
  </text>
  <text
     x="134.67"
     y="412.28"
     transform="scale(4.0128,0.2492)"
     id="text15"
     style="font-size:46.95399857px;text-anchor:middle;font-family:Arial" />
  <text
     x="330.82999"
     y="109.75"
     id="text17"
     style="font-size:129.22999573px;line-height:125%;letter-spacing:0;word-spacing:0;font-family:Gentium Book Basic">
    <tspan
       x="330.82999"
       y="109.75"
       id="tspan19" />
  </text>
  <text
     x="279.51999"
     y="91.25"
     transform="scale(4.0128,0.2492)"
     id="text21"
     style="font-size:46.95399857px;text-anchor:middle;font-family:Arial" />
  <text
     x="-740.75"
     y="-71.510002"
     id="text23"
     style="font-size:129.22999573px;line-height:125%;letter-spacing:0;word-spacing:0;font-family:Gentium Book Basic">
    <tspan
       x="-740.75"
       y="-71.510002"
       id="tspan25" />
  </text>
  <text
     x="12.482"
     y="-636.09998"
     transform="scale(4.0128,0.2492)"
     id="text27"
     style="font-size:46.95399857px;text-anchor:middle;font-family:Arial" />
  <text
     x="357.29999"
     y="-287.98001"
     id="text29"
     style="font-size:129.22999573px;line-height:125%;letter-spacing:0;word-spacing:0;font-family:Gentium Book Basic">
    <tspan
       x="357.29999"
       y="-287.98001"
       id="tspan31" />
  </text>
  <text
     x="286.12"
     y="-1504.77"
     transform="scale(4.0128,0.2492)"
     id="text33"
     style="font-size:46.95399857px;text-anchor:middle;font-family:Arial" />
  <text
     x="938.57001"
     y="-367.98999"
     id="text35"
     style="font-size:129.22999573px;line-height:125%;letter-spacing:0;word-spacing:0;font-family:Gentium Book Basic">
    <tspan
       x="938.57001"
       y="-367.98999"
       id="tspan37" />
  </text>
  <text
     x="430.97"
     y="-1825.8101"
     transform="scale(4.0128,0.2492)"
     id="text39"
     style="font-size:46.95399857px;text-anchor:middle;font-family:Arial" />
  <text
     x="549.45001"
     y="-840.39001"
     id="text41"
     style="font-size:129.22999573px;line-height:125%;letter-spacing:0;word-spacing:0;font-family:Gentium Book Basic">
    <tspan
       x="549.45001"
       y="-840.39001"
       id="tspan43" />
  </text>
  <text
     x="334"
     y="-3721.46"
     transform="scale(4.0128,0.2492)"
     id="text45"
     style="font-size:46.95399857px;text-anchor:middle;font-family:Arial" />
  <text
     x="1130.71"
     y="-920.39001"
     id="text47"
     style="font-size:129.22999573px;line-height:125%;letter-spacing:0;word-spacing:0;font-family:Gentium Book Basic">
    <tspan
       x="1130.71"
       y="-920.39001"
       id="tspan49" />
  </text>
  <text
     x="478.85001"
     y="-4042.49"
     transform="scale(4.0128,0.2492)"
     id="text51"
     style="font-size:46.95399857px;text-anchor:middle;font-family:Arial" />
  <text
     x="-702.09003"
     y="494.32999"
     id="text53"
     style="font-size:208.33000183px;line-height:125%;letter-spacing:0;word-spacing:0;font-family:Gentium Book Basic">
    <tspan
       x="-702.09003"
       y="494.32999"
       id="tspan55" />
  </text>
  <g
     clip-path="url(#0)"
     id="g57"
     style="opacity:0.25;fill-rule:evenodd">
    <path
       d="m 453.41,118.49 -67.14,3.645 353.55,353.55 67.14,-3.645 z"
       inkscape:connector-curvature="0"
       id="path59" />
    <path
       d="m 386.26,122.14 -17.697,35.881 353.55,353.55 17.697,-35.881 z"
       inkscape:connector-curvature="0"
       id="path61" />
    <path
       d="m 368.57,158.02 -22.556,-34.26 353.55,353.55 22.556,34.26 z"
       inkscape:connector-curvature="0"
       id="path63" />
    <path
       d="m 346.01,123.76 -61.02,4.414 353.55,353.55 61.02,-4.414 z"
       inkscape:connector-curvature="0"
       id="path65" />
    <path
       d="m 284.99,128.17 40.618,68.32 353.55,353.55 -40.618,-68.32 z"
       inkscape:connector-curvature="0"
       id="path67" />
    <path
       d="m 325.61,196.49 -58.23,7.853 353.55,353.55 58.23,-7.853 z"
       inkscape:connector-curvature="0"
       id="path69" />
    <path
       d="m 267.37,204.34 -15.308,42.28 353.55,353.55 15.308,-42.28 z"
       inkscape:connector-curvature="0"
       id="path71" />
    <path
       d="m 252.06,246.62 -30.777,-35.921 353.55,353.55 30.777,35.921 z"
       inkscape:connector-curvature="0"
       id="path73" />
    <path
       d="m 221.29,210.7 -68.799,8.787 353.55,353.55 68.799,-8.787 z"
       inkscape:connector-curvature="0"
       id="path75" />
    <path
       d="m 152.49,219.49 41.87,50.578 353.55,353.55 -41.87,-50.578 z"
       inkscape:connector-curvature="0"
       id="path77" />
    <path
       d="m 194.36,270.07 -35.395,31.871 353.55,353.55 35.395,-31.871 z"
       inkscape:connector-curvature="0"
       id="path79" />
    <path
       d="m 158.96,301.94 -70.7,-92.41 353.55,353.55 70.7,92.41 z"
       inkscape:connector-curvature="0"
       id="path81" />
    <path
       d="m 88.26,209.53 -0.81,2.066 353.55,353.55 0.81,-2.066 z"
       inkscape:connector-curvature="0"
       id="path83" />
    <path
       d="M 87.45,211.59 41,250.75 394.55,604.3 441,565.14 z"
       inkscape:connector-curvature="0"
       id="path85" />
    <path
       d="M 41,250.75 147.91,385.89 501.46,739.44 394.55,604.3 z"
       inkscape:connector-curvature="0"
       id="path87" />
    <path
       d="m 147.91,385.89 82.33,-72.41 353.55,353.55 -82.33,72.41 z"
       inkscape:connector-curvature="0"
       id="path89" />
    <path
       d="m 230.24,313.48 1.702,2.025 353.55,353.55 -1.702,-2.025 z"
       inkscape:connector-curvature="0"
       id="path91" />
    <path
       d="m 231.94,315.51 9.435,77.999 353.55,353.55 -9.435,-77.999 z"
       inkscape:connector-curvature="0"
       id="path93" />
    <path
       d="m 241.38,393.51 64.754,-6.763 353.55,353.55 -64.754,6.763 z"
       inkscape:connector-curvature="0"
       id="path95" />
    <path
       d="m 306.13,386.74 -7.411,-87.72 353.55,353.55 7.411,87.72 z"
       inkscape:connector-curvature="0"
       id="path97" />
    <path
       d="m 298.72,299.03 1.336,-3.645 353.55,353.55 -1.336,3.645 z"
       inkscape:connector-curvature="0"
       id="path99" />
    <path
       d="m 300.05,295.38 55.2,2.268 353.55,353.55 -55.2,-2.268 z"
       inkscape:connector-curvature="0"
       id="path101" />
    <path
       d="m 355.25,297.65 19.607,-50.578 353.55,353.55 L 708.8,651.2 z"
       inkscape:connector-curvature="0"
       id="path103" />
    <path
       d="m 374.86,247.07 25.918,48.12 353.55,353.55 -25.918,-48.12 z"
       inkscape:connector-curvature="0"
       id="path105" />
    <path
       d="M 400.78,295.19 471,283.488 824.55,637.038 754.33,648.74 z"
       inkscape:connector-curvature="0"
       id="path107" />
    <path
       d="m 471,283.48 -57.628,-86.1 353.55,353.55 57.628,86.1 z"
       inkscape:connector-curvature="0"
       id="path109" />
    <path
       d="m 413.37,197.39 40.05,-78.887 353.55,353.55 -40.05,78.887 z"
       inkscape:connector-curvature="0"
       id="path111" />
  </g>
  <path
     d="m 453.41,118.49 -67.14,3.645 -17.697,35.881 -22.556,-34.26 -61.02,4.414 40.618,68.32 -58.23,7.853 -15.308,42.28 -30.777,-35.921 -68.799,8.787 41.87,50.578 -35.395,31.871 -70.7,-92.41 -0.81,2.066 -46.45,39.16 106.91,135.14 82.33,-72.41 1.702,2.025 9.435,77.999 64.754,-6.763 -7.411,-87.72 1.336,-3.645 55.2,2.268 19.607,-50.578 25.918,48.12 70.22,-11.702 -57.628,-86.1 40.05,-78.887"
     inkscape:connector-curvature="0"
     id="path113"
     style="fill:#ffffff;fill-rule:evenodd" />
</svg>
