<?xml version="1.0" encoding="UTF-8" standalone="no"?>
<!-- Created with Inkscape (http://www.inkscape.org/) -->

<svg
   xmlns:dc="http://purl.org/dc/elements/1.1/"
   xmlns:cc="http://creativecommons.org/ns#"
   xmlns:rdf="http://www.w3.org/1999/02/22-rdf-syntax-ns#"
   xmlns:svg="http://www.w3.org/2000/svg"
   xmlns="http://www.w3.org/2000/svg"
   xmlns:inkscape="http://www.inkscape.org/namespaces/inkscape"
   version="1.1"
   width="100%"
   height="100%"
   viewBox="0 0 512 512"
   id="svg2">
  <metadata
     id="metadata70">
    <rdf:RDF>
      <cc:Work
         rdf:about="">
        <dc:format>image/svg+xml</dc:format>
        <dc:type
           rdf:resource="http://purl.org/dc/dcmitype/StillImage" />
      </cc:Work>
    </rdf:RDF>
  </metadata>
  <defs
     id="defs68" />
  <path
     d="M 26,0 C 11.603,0 0,11.603 0,26 v 460 c 0,14.397 11.603,26 26,26 h 460 c 14.397,0 26,-11.603 26,-26 V 26 C 512,11.603 500.397,0 486,0 H 26"
     inkscape:connector-curvature="0"
     id="path4"
     style="fill:#666666" />
  <text
     x="37.966"
     y="140.66"
     id="text6"
     style="font-size:129.22999573px;line-height:125%;letter-spacing:0;word-spacing:0;font-family:Gentium Book Basic">
    <tspan
       x="37.966"
       y="140.66"
       id="tspan8" />
  </text>
  <text
     x="206.53999"
     y="215.3"
     transform="scale(4.0128,0.2492)"
     id="text10"
     style="font-size:46.95399857px;text-anchor:middle;font-family:Arial" />
  <text
     x="619.23999"
     y="60.661999"
     id="text12"
     style="font-size:129.22999573px;line-height:125%;letter-spacing:0;word-spacing:0;font-family:Gentium Book Basic">
    <tspan
       x="619.23999"
       y="60.661999"
       id="tspan14" />
  </text>
  <text
     x="351.39001"
     y="-105.74"
     transform="scale(4.0128,0.2492)"
     id="text16"
     style="font-size:46.95399857px;text-anchor:middle;font-family:Arial" />
  <text
     x="-452.34"
     y="-120.6"
     id="text18"
     style="font-size:129.22999573px;line-height:125%;letter-spacing:0;word-spacing:0;font-family:Gentium Book Basic">
    <tspan
       x="-452.34"
       y="-120.6"
       id="tspan20" />
  </text>
  <text
     x="84.349998"
     y="-833.08002"
     transform="scale(4.0128,0.2492)"
     id="text22"
     style="font-size:46.95399857px;text-anchor:middle;font-family:Arial" />
  <text
     x="645.71002"
     y="-337.07001"
     id="text24"
     style="font-size:129.22999573px;line-height:125%;letter-spacing:0;word-spacing:0;font-family:Gentium Book Basic">
    <tspan
       x="645.71002"
       y="-337.07001"
       id="tspan26" />
  </text>
  <text
     x="357.98999"
     y="-1701.76"
     transform="scale(4.0128,0.2492)"
     id="text28"
     style="font-size:46.95399857px;text-anchor:middle;font-family:Arial" />
  <text
     x="1226.98"
     y="-417.07001"
     id="text30"
     style="font-size:129.22999573px;line-height:125%;letter-spacing:0;word-spacing:0;font-family:Gentium Book Basic">
    <tspan
       x="1226.98"
       y="-417.07001"
       id="tspan32" />
  </text>
  <text
     x="502.84"
     y="-2022.79"
     transform="scale(4.0128,0.2492)"
     id="text34"
     style="font-size:46.95399857px;text-anchor:middle;font-family:Arial" />
  <text
     x="837.85999"
     y="-889.46997"
     id="text36"
     style="font-size:129.22999573px;line-height:125%;letter-spacing:0;word-spacing:0;font-family:Gentium Book Basic">
    <tspan
       x="837.85999"
       y="-889.46997"
       id="tspan38" />
  </text>
  <text
     x="405.87"
     y="-3918.4399"
     transform="scale(4.0128,0.2492)"
     id="text40"
     style="font-size:46.95399857px;text-anchor:middle;font-family:Arial" />
  <text
     x="1419.12"
     y="-969.47998"
     id="text42"
     style="font-size:129.22999573px;line-height:125%;letter-spacing:0;word-spacing:0;font-family:Gentium Book Basic">
    <tspan
       x="1419.12"
       y="-969.47998"
       id="tspan44" />
  </text>
  <text
     x="550.71997"
     y="-4239.4702"
     transform="scale(4.0128,0.2492)"
     id="text46"
     style="font-size:46.95399857px;text-anchor:middle;font-family:Arial" />
  <g
     id="g48"
     style="font-size:208.33000183px;line-height:125%;letter-spacing:0;word-spacing:0;font-family:Gentium Book Basic">
    <text
       x="-413.67999"
       y="445.23999"
       id="text50">
      <tspan
         x="-413.67999"
         y="445.23999"
         id="tspan52" />
    </text>
    <text
       x="-2572.76"
       y="-181.25999"
       id="text54">
      <tspan
         x="-2572.76"
         y="-181.25999"
         id="tspan56" />
    </text>
    <text
       x="575.89001"
       y="-484.31"
       id="text58">
      <tspan
         x="575.89001"
         y="-484.31"
         id="tspan60" />
    </text>
  </g>
  <path
     d="m 41,41 v 35.25 l 26.875,26.875 c 0,0.021 0,0.042 0,0.063 0,14.993 -11.905,27.688 -26.875,27.688 v 6.719 l 26.844,26.844 c 0.009,0.292 0.031,0.582 0.031,0.875 0,14.993 -11.905,26.03 -26.875,26.03 v 6.719 l 26.844,26.844 c 0.009,0.291 0.031,0.582 0.031,0.875 0,15.02 -11.905,26.03 -26.875,26.03 v 8.375 l 26.844,26.844 C 67.425,301.669 55.7,313.937 41,313.937 v 5.906 l 26.875,26.875 C 67.858,361.698 55.96,374.406 41,374.406 v 6.719 l 26.844,26.844 c 0.008,0.281 0.031,0.561 0.031,0.844 0,15.02 -11.905,26.938 -26.875,26.938 v 35.25 l 41,41 h 404 c 14.397,0 26,-11.603 26,-26 v -404 l -41,-41 h -35.31 c 0,14.993 -11.801,26.875 -26.813,26.875 -0.304,0 -0.604,-0.022 -0.906,-0.031 L 381.127,41.001 h -6.688 c 0,14.993 -12.763,26.875 -27.75,26.875 L 319.845,41.001 h -5.906 c 0,14.993 -11.888,26.875 -26.875,26.875 -0.282,0 -0.563,-0.023 -0.844,-0.031 L 259.376,41.001 h -6.75 c 0,14.993 -11.832,26.875 -26.844,26.875 -0.293,0 -0.584,-0.022 -0.875,-0.031 L 198.063,41.001 h -5.906 c 0,14.993 -11.874,26.875 -26.844,26.875 -0.293,0 -0.583,-0.022 -0.875,-0.031 L 137.594,41.001 h -6.719 c 0,14.972 -12.721,26.842 -27.688,26.875 L 76.312,41.001 h -35.31"
     inkscape:connector-curvature="0"
     id="path62"
     style="opacity:0.25" />
  <path
     d="m 41,41 v 35.26 c 14.97,0 26.869,11.902 26.869,26.92 0,14.993 -11.898,27.697 -26.869,27.697 v 6.73 c 14.97,0 26.869,12.679 26.869,27.697 0,14.993 -11.898,26.04 -26.869,26.04 v 6.73 c 14.97,0 26.869,12.704 26.869,27.697 0,15.02 -11.898,26.04 -26.869,26.04 v 8.387 c 14.97,0 26.869,11.05 26.869,26.04 0,14.993 -11.898,27.697 -26.869,27.697 v 5.902 c 14.97,0 26.869,11.898 26.869,26.869 0,14.993 -11.898,27.697 -26.869,27.697 v 6.73 c 14.97,0 26.869,12.727 26.869,27.697 0,15.02 -11.898,26.92 -26.869,26.92 v 35.26 h 31.942 c 0,-14.993 11.875,-27.749 26.869,-27.749 14.987,0 27.697,12.755 27.697,27.749 h 6.73 c 0,-14.993 12.778,-27.749 27.749,-27.749 14.987,0 26.817,12.755 26.817,27.749 h 5.902 c 0,-14.993 11.898,-27.749 26.869,-27.749 14.987,0 27.697,12.755 27.697,27.749 h 6.73 c 0,-14.993 11.857,-27.749 26.869,-27.749 14.97,0 27.749,12.755 27.749,27.749 h 5.85 c 0,-14.993 11.882,-27.749 26.869,-27.749 14.946,0 27.697,12.755 27.697,27.749 h 6.782 c 0,-14.993 12.71,-27.749 27.697,-27.749 14.993,0 26.817,12.755 26.817,27.749 h 38.672 V 439.9 c -14.946,0 -26.869,-11.799 -26.869,-26.817 0,-14.945 11.923,-26.869 26.869,-26.869 v -6.73 c -14.946,0 -26.869,-12.679 -26.869,-27.697 0,-14.993 11.923,-27.749 26.869,-27.749 v -5.85 c -14.946,0 -26.869,-11.927 -26.869,-26.92 0,-14.993 11.923,-26.869 26.869,-26.869 v -7.558 c -14.946,0 -26.869,-11.05 -26.869,-26.04 0,-14.97 11.923,-27.697 26.869,-27.697 v -6.73 c -14.946,0 -26.869,-11.898 -26.869,-26.869 0,-15.02 11.923,-26.869 26.869,-26.869 v -7.558 c -14.946,0 -26.869,-11.923 -26.869,-26.869 0.019,-15.02 11.898,-27.697 26.869,-27.697 v -39.5 h -35.31 c 0,14.993 -11.805,26.869 -26.817,26.869 -14.993,0 -27.749,-11.875 -27.749,-26.869 h -6.678 c 0,14.993 -12.762,26.869 -27.749,26.869 -14.97,0 -26.869,-11.875 -26.869,-26.869 h -5.902 c 0,14.993 -11.882,26.869 -26.869,26.869 -14.97,0 -27.697,-11.875 -27.697,-26.869 h -6.73 c 0,14.993 -11.857,26.869 -26.869,26.869 -14.97,0 -27.697,-11.875 -27.697,-26.869 h -5.902 c 0,14.993 -11.898,26.869 -26.869,26.869 -15.01,0 -27.697,-11.875 -27.697,-26.869 h -6.73 c 0,14.993 -12.755,26.869 -27.749,26.869 -14.987,0 -26.817,-11.875 -26.817,-26.869 h -35.31 m 262.63,91.99 c 1.406,-0.056 2.866,0.083 4.297,0.466 7.631,2.045 12.14,9.867 10.1,17.498 -0.405,1.513 -1.049,2.9 -1.864,4.142 27.582,11.627 41.955,35.536 34.893,60.36 -5.875,26.8 -9.156,57.855 -2.847,93.81 0.174,0.588 0.438,1.181 0.569,1.76 3.639,16.05 11.389,29.657 21.02,44.26 -4.593,13.04 -11.965,12.965 -18.637,13.874 l -65.39,-17.343 c -0.086,0.37 -0.16,0.717 -0.259,1.087 -5.03,18.791 -24.384,29.936 -43.18,24.901 -18.791,-5.03 -29.936,-24.332 -24.901,-43.12 0.082,-0.303 0.17,-0.58 0.259,-0.88 l -64.971,-17.239 c -4.094,-3.639 -13.637,-9.953 -9.422,-21.899 21.553,-10.247 31.21,-20.613 42.4,-30.958 26.09,-27.19 32.945,-54.777 43.694,-80.86 8.909,-26.838 29.786,-39.61 60.52,-34.945 -0.061,-1.422 0.078,-2.901 0.466,-4.349 1.661,-6.2 7.16,-10.319 13.253,-10.561"
     inkscape:connector-curvature="0"
     id="path64"
     style="fill:#ffffff" />
</svg>
