<?xml version="1.0" encoding="UTF-8" standalone="no"?>
<!-- Created with Inkscape (http://www.inkscape.org/) -->

<svg
   xmlns:dc="http://purl.org/dc/elements/1.1/"
   xmlns:cc="http://creativecommons.org/ns#"
   xmlns:rdf="http://www.w3.org/1999/02/22-rdf-syntax-ns#"
   xmlns:svg="http://www.w3.org/2000/svg"
   xmlns="http://www.w3.org/2000/svg"
   xmlns:inkscape="http://www.inkscape.org/namespaces/inkscape"
   version="1.1"
   width="100%"
   height="100%"
   viewBox="0 0 512 512"
   id="svg2">
  <metadata
     id="metadata10">
    <rdf:RDF>
      <cc:Work
         rdf:about="">
        <dc:format>image/svg+xml</dc:format>
        <dc:type
           rdf:resource="http://purl.org/dc/dcmitype/StillImage" />
        <dc:title />
      </cc:Work>
    </rdf:RDF>
  </metadata>
  <defs
     id="defs8">
    <clipPath
       id="clipPath3672">
      <path
         d="M 26,0 C 11.602648,0 0,11.602648 0,26 l 0,460 c 0,14.39735 11.602648,26 26,26 l 460,0 c 14.39735,0 26,-11.60265 26,-26 L 512,26 C 512,11.602648 500.39735,0 486,0 L 26,0 z"
         inkscape:connector-curvature="0"
         id="path3674"
         style="fill:#666666;fill-opacity:1;stroke:none" />
    </clipPath>
  </defs>
  <path
     d="M 26,0 C 11.602648,0 0,11.602648 0,26 l 0,460 c 0,14.39735 11.602648,26 26,26 l 460,0 c 14.39735,0 26,-11.60265 26,-26 L 512,26 C 512,11.602648 500.39735,0 486,0 L 26,0 z"
     inkscape:connector-curvature="0"
     id="rect2986"
     style="fill:#666666;fill-opacity:1;stroke:none" />
  <text
     x="-299.52728"
     y="97.708183"
     id="text20"
     style="font-size:129.22999573px;line-height:125%;letter-spacing:0;word-spacing:0;font-family:Gentium Book Basic">
    <tspan
       x="-299.52728"
       y="97.708183"
       id="tspan22" />
  </text>
  <text
     x="122.43824"
     y="42.937477"
     transform="scale(4.0128205,0.24920128)"
     id="text24"
     style="font-size:46.95375824px;text-anchor:middle;font-family:Arial" />
  <text
     x="281.74274"
     y="17.708179"
     id="text26"
     style="font-size:129.22999573px;line-height:125%;letter-spacing:0;word-spacing:0;font-family:Gentium Book Basic">
    <tspan
       x="281.74274"
       y="17.708179"
       id="tspan28" />
  </text>
  <text
     x="267.28751"
     y="-278.10068"
     transform="scale(4.0128205,0.24920128)"
     id="text30"
     style="font-size:46.95375824px;text-anchor:middle;font-family:Arial" />
  <text
     x="-789.83728"
     y="-163.5518"
     id="text32"
     style="font-size:129.22999573px;line-height:125%;letter-spacing:0;word-spacing:0;font-family:Gentium Book Basic">
    <tspan
       x="-789.83728"
       y="-163.5518"
       id="tspan34" />
  </text>
  <text
     x="0.24888176"
     y="-1005.447"
     transform="scale(4.0128205,0.24920128)"
     id="text36"
     style="font-size:46.95375824px;text-anchor:middle;font-family:Arial" />
  <text
     x="308.21271"
     y="-380.02179"
     id="text38"
     style="font-size:129.22999573px;line-height:125%;letter-spacing:0;word-spacing:0;font-family:Gentium Book Basic">
    <tspan
       x="308.21271"
       y="-380.02179"
       id="tspan40" />
  </text>
  <text
     x="273.88748"
     y="-1874.1227"
     transform="scale(4.0128205,0.24920128)"
     id="text42"
     style="font-size:46.95375824px;text-anchor:middle;font-family:Arial" />
  <text
     x="889.48273"
     y="-460.02179"
     id="text44"
     style="font-size:129.22999573px;line-height:125%;letter-spacing:0;word-spacing:0;font-family:Gentium Book Basic">
    <tspan
       x="889.48273"
       y="-460.02179"
       id="tspan46" />
  </text>
  <text
     x="418.73672"
     y="-2195.1509"
     transform="scale(4.0128205,0.24920128)"
     id="text48"
     style="font-size:46.95375824px;text-anchor:middle;font-family:Arial" />
  <text
     x="500.36273"
     y="-932.42181"
     id="text50"
     style="font-size:129.22999573px;line-height:125%;letter-spacing:0;word-spacing:0;font-family:Gentium Book Basic">
    <tspan
       x="500.36273"
       y="-932.42181"
       id="tspan52" />
  </text>
  <text
     x="321.76718"
     y="-4090.8013"
     transform="scale(4.0128205,0.24920128)"
     id="text54"
     style="font-size:46.95375824px;text-anchor:middle;font-family:Arial" />
  <text
     x="1081.6227"
     y="-1012.4318"
     id="text56"
     style="font-size:129.22999573px;line-height:125%;letter-spacing:0;word-spacing:0;font-family:Gentium Book Basic">
    <tspan
       x="1081.6227"
       y="-1012.4318"
       id="tspan58" />
  </text>
  <text
     x="466.61649"
     y="-4411.8398"
     transform="scale(4.0128205,0.24920128)"
     id="text60"
     style="font-size:46.95375824px;text-anchor:middle;font-family:Arial" />
  <text
     x="-751.17731"
     y="402.28827"
     id="text62"
     style="font-size:208.33000183px;line-height:125%;letter-spacing:0;word-spacing:0;font-family:Gentium Book Basic">
    <tspan
       x="-751.17731"
       y="402.28827"
       id="tspan64" />
  </text>
  <g
     clip-path="url(#clipPath3672)"
     id="g3349"
     style="opacity:0.25;fill:#000000;fill-opacity:1;fill-rule:evenodd;stroke:none">
    <path
       d="M 288.76481,47.568825 41,91.290465 429.90873,480.19919 677.67354,436.47755 z"
       inkscape:connector-curvature="0"
       id="path3351"
       style="fill:#000000" />
    <path
       d="m 41,91.290465 0,329.947745 388.90873,388.90873 0,-329.94775 z"
       inkscape:connector-curvature="0"
       id="path3353"
       style="fill:#000000" />
    <path
       d="M 41,421.23821 288.76481,464.43117 677.67354,853.3399 429.90873,810.14694 z"
       inkscape:connector-curvature="0"
       id="path3355"
       style="fill:#000000" />
    <path
       d="m 298.20172,95.519895 0,0.9252 388.90873,388.908725 0,-0.9252 z"
       inkscape:connector-curvature="0"
       id="path3357"
       style="fill:#000000" />
    <path
       d="m 298.20172,96.445095 0,24.557065 388.90873,388.90873 0,-24.55707 z"
       inkscape:connector-curvature="0"
       id="path3359"
       style="fill:#000000" />
    <path
       d="m 298.20172,121.00216 0,20.1955 388.90873,388.90873 0,-20.1955 z"
       inkscape:connector-curvature="0"
       id="path3361"
       style="fill:#000000" />
    <path
       d="m 298.20172,141.19766 c 12.42655,-10.69803 28.27606,-16.58768 44.67325,-16.60049 L 731.7837,513.5059 c -16.39719,0.0128 -32.2467,5.90246 -44.67325,16.60049 z"
       inkscape:connector-curvature="0"
       id="path3363"
       style="fill:#000000" />
    <path
       d="m 342.87497,124.59717 0,68.5695 388.90873,388.90873 0,-68.5695 z"
       inkscape:connector-curvature="0"
       id="path3365"
       style="fill:#000000" />
    <path
       d="m 342.87497,193.16667 68.54306,0 388.90873,388.90873 -68.54306,0 z"
       inkscape:connector-curvature="0"
       id="path3367"
       style="fill:#000000" />
    <path
       d="m 411.41803,193.16667 c -2.5e-4,27.72776 -16.7034,52.72504 -42.32066,63.33557 L 758.0061,645.41097 c 25.61726,-10.61053 42.32041,-35.60781 42.32066,-63.33557 z"
       inkscape:connector-curvature="0"
       id="path3369"
       style="fill:#000000" />
    <path
       d="m 369.09737,256.50224 c -23.89962,9.85786 -51.31244,5.43213 -70.89565,-11.44585 l 388.90873,388.90873 c 19.58321,16.87798 46.99603,21.30371 70.89565,11.44585 z"
       inkscape:connector-curvature="0"
       id="path3371"
       style="fill:#000000" />
    <path
       d="m 298.20172,245.05639 0,31.98501 388.90873,388.90873 0,-31.98501 z"
       inkscape:connector-curvature="0"
       id="path3373"
       style="fill:#000000" />
    <path
       d="m 298.20172,277.0414 0,13.34912 388.90873,388.90873 0,-13.34912 z"
       inkscape:connector-curvature="0"
       id="path3375"
       style="fill:#000000" />
    <path
       d="m 298.20172,290.39052 0,17.26131 388.90873,388.90873 0,-17.26131 z"
       inkscape:connector-curvature="0"
       id="path3377"
       style="fill:#000000" />
    <path
       d="m 298.20172,307.65183 142.00282,0 388.90873,388.90873 -142.00282,0 z"
       inkscape:connector-curvature="0"
       id="path3379"
       style="fill:#000000" />
    <path
       d="m 440.20454,307.65183 0,13.48131 388.90873,388.90873 0,-13.48131 z"
       inkscape:connector-curvature="0"
       id="path3381"
       style="fill:#000000" />
    <path
       d="m 440.20454,321.13314 -142.00282,0 388.90873,388.90873 142.00282,0 z"
       inkscape:connector-curvature="0"
       id="path3383"
       style="fill:#000000" />
    <path
       d="m 298.20172,321.13314 0,12.34459 388.90873,388.90873 0,-12.34459 z"
       inkscape:connector-curvature="0"
       id="path3385"
       style="fill:#000000" />
    <path
       d="m 298.20172,333.47773 0,13.37556 388.90873,388.90873 0,-13.37556 z"
       inkscape:connector-curvature="0"
       id="path3387"
       style="fill:#000000" />
    <path
       d="m 298.20172,346.85329 0,6.50273 388.90873,388.90873 0,-6.50273 z"
       inkscape:connector-curvature="0"
       id="path3389"
       style="fill:#000000" />
    <path
       d="m 298.20172,353.35602 142.00282,0 388.90873,388.90873 -142.00282,0 z"
       inkscape:connector-curvature="0"
       id="path3391"
       style="fill:#000000" />
    <path
       d="m 440.20454,353.35602 0,13.48128 388.90873,388.90873 0,-13.48128 z"
       inkscape:connector-curvature="0"
       id="path3393"
       style="fill:#000000" />
    <path
       d="m 440.20454,366.8373 -142.00282,0 388.90873,388.90873 142.00282,0 z"
       inkscape:connector-curvature="0"
       id="path3395"
       style="fill:#000000" />
    <path
       d="m 298.20172,366.8373 0,23.10321 388.90873,388.90873 0,-23.10321 z"
       inkscape:connector-curvature="0"
       id="path3397"
       style="fill:#000000" />
    <path
       d="m 298.20172,389.94051 0,24.5571 388.90873,388.90873 0,-24.5571 z"
       inkscape:connector-curvature="0"
       id="path3399"
       style="fill:#000000" />
    <path
       d="m 298.20172,414.49761 0,0.95159 388.90873,388.90873 0,-0.95159 z"
       inkscape:connector-curvature="0"
       id="path3401"
       style="fill:#000000" />
    <path
       d="m 298.20172,415.4492 0.92519,0 388.90873,388.90873 -0.92519,0 z"
       inkscape:connector-curvature="0"
       id="path3403"
       style="fill:#000000" />
    <path
       d="m 299.12691,415.4492 68.38445,0 388.90873,388.90873 -68.38445,0 z"
       inkscape:connector-curvature="0"
       id="path3405"
       style="fill:#000000" />
    <path
       d="m 367.51136,415.4492 33.22739,0 388.90873,388.90873 -33.22739,0 z"
       inkscape:connector-curvature="0"
       id="path3407"
       style="fill:#000000" />
    <path
       d="m 400.73875,415.4492 69.30965,0 388.90873,388.90873 -69.30965,0 z"
       inkscape:connector-curvature="0"
       id="path3409"
       style="fill:#000000" />
    <path
       d="m 470.0484,415.4492 c 0.52039,0 0.9516,-0.43176 0.9516,-0.95159 l 388.90873,388.90873 c 0,0.51983 -0.43121,0.95159 -0.9516,0.95159 z"
       inkscape:connector-curvature="0"
       id="path3411"
       style="fill:#000000" />
    <path
       d="m 471,414.49761 0,-318.052505 388.90873,388.908725 0,318.05251 z"
       inkscape:connector-curvature="0"
       id="path3413"
       style="fill:#000000" />
    <path
       d="m 471,96.445105 c 0,-0.253425 -0.1025,-0.479537 -0.26775,-0.644787 L 859.64098,484.70905 c 0.16525,0.16525 0.26775,0.39136 0.26775,0.64478 z"
       inkscape:connector-curvature="0"
       id="path3415"
       style="fill:#000000" />
    <path
       d="m 470.73225,95.800318 c -0.17391,-0.173902 -0.4173,-0.280403 -0.68385,-0.280403 L 858.95713,484.42864 c 0.26655,0 0.50994,0.10651 0.68385,0.28041 z"
       inkscape:connector-curvature="0"
       id="path3417"
       style="fill:#000000" />
    <path
       d="m 470.0484,95.519915 -69.30965,0 388.90873,388.908725 69.30965,0 z"
       inkscape:connector-curvature="0"
       id="path3419"
       style="fill:#000000" />
    <path
       d="m 400.73875,95.519915 -33.22739,0 388.90873,388.908725 33.22739,0 z"
       inkscape:connector-curvature="0"
       id="path3421"
       style="fill:#000000" />
    <path
       d="m 367.51136,95.519915 -68.38445,0 388.90873,388.908725 68.38445,0 z"
       inkscape:connector-curvature="0"
       id="path3423"
       style="fill:#000000" />
    <path
       d="m 353.47497,125.52235 c 14.6981,2.31794 27.79317,9.23946 37.7944,19.24069 L 780.1781,533.67177 c -10.00123,-10.00123 -23.0963,-16.92275 -37.7944,-19.24069 z"
       inkscape:connector-curvature="0"
       id="path3425"
       style="fill:#000000" />
    <path
       d="m 391.26937,144.76304 c 10.35635,10.35634 17.39524,24.01499 19.46137,39.28392 l 388.90873,388.90873 c -2.06613,-15.26893 -9.10502,-28.92758 -19.46137,-39.28392 z"
       inkscape:connector-curvature="0"
       id="path3427"
       style="fill:#000000" />
    <path
       d="m 410.73074,184.04696 -57.25577,0 388.90873,388.90873 57.25577,0 z"
       inkscape:connector-curvature="0"
       id="path3429"
       style="fill:#000000" />
    <path
       d="m 115.39141,175.42381 44.47385,0 388.90873,388.90873 -44.47385,0 z"
       inkscape:connector-curvature="0"
       id="path3431"
       style="fill:#000000" />
    <path
       d="m 159.86526,175.42381 c 17.30366,0 30.68089,4.21476 40.16026,12.6409 l 388.90873,388.90873 c -9.47937,-8.42614 -22.8566,-12.6409 -40.16026,-12.6409 z"
       inkscape:connector-curvature="0"
       id="path3433"
       style="fill:#000000" />
    <path
       d="m 200.02552,188.06471 c 0.65548,0.57807 1.28856,1.17243 1.89922,1.78308 l 388.90873,388.90873 c -0.61066,-0.61065 -1.24374,-1.20501 -1.89922,-1.78308 z"
       inkscape:connector-curvature="0"
       id="path3435"
       style="fill:#000000" />
    <path
       d="m 201.92474,189.84779 c 8.2905,8.29051 12.44867,19.58435 12.44867,33.87905 l 388.90873,388.90873 c 0,-14.2947 -4.15817,-25.58854 -12.44867,-33.87905 z"
       inkscape:connector-curvature="0"
       id="path3437"
       style="fill:#000000" />
    <path
       d="m 214.37341,223.72684 c 0,15.3476 -5.3086,27.91169 -15.91647,37.69203 L 587.36567,650.3276 c 10.60787,-9.78034 15.91647,-22.34443 15.91647,-37.69203 z"
       inkscape:connector-curvature="0"
       id="path3439"
       style="fill:#000000" />
    <path
       d="m 198.45694,261.41887 c -10.53265,9.78034 -24.78613,14.67083 -42.76688,14.67083 l 388.90873,388.90873 c 17.98075,0 32.23423,-4.89049 42.76688,-14.67083 z"
       inkscape:connector-curvature="0"
       id="path3441"
       style="fill:#000000" />
    <path
       d="m 155.69006,276.0897 -21.33727,0 388.90873,388.90873 21.33727,0 z"
       inkscape:connector-curvature="0"
       id="path3443"
       style="fill:#000000" />
    <path
       d="m 134.35279,276.0897 0,61.1746 388.90873,388.90873 0,-61.1746 z"
       inkscape:connector-curvature="0"
       id="path3445"
       style="fill:#000000" />
    <path
       d="m 134.35279,337.2643 -18.96138,0 388.90873,388.90873 18.96138,0 z"
       inkscape:connector-curvature="0"
       id="path3447"
       style="fill:#000000" />
    <path
       d="m 134.35279,192.5859 0,66.36477 388.90873,388.90873 0,-66.36477 z"
       inkscape:connector-curvature="0"
       id="path3449"
       style="fill:#000000" />
    <path
       d="m 134.35279,258.95067 19.86098,0 388.90873,388.90873 -19.86098,0 z"
       inkscape:connector-curvature="0"
       id="path3451"
       style="fill:#000000" />
    <path
       d="m 154.21377,258.95067 c 13.09057,0 23.07211,-2.98363 29.91833,-8.92708 l 388.90873,388.90873 c -6.84622,5.94345 -16.82776,8.92708 -29.91833,8.92708 z"
       inkscape:connector-curvature="0"
       id="path3453"
       style="fill:#000000" />
    <path
       d="m 184.1321,250.02359 c 6.92147,-6.01865 10.38032,-14.48831 10.38032,-25.39714 l 388.90873,388.90873 c 0,10.90883 -3.45885,19.37849 -10.38032,25.39714 z"
       inkscape:connector-curvature="0"
       id="path3455"
       style="fill:#000000" />
    <path
       d="m 194.51242,224.62645 c 0,-9.78394 -2.65135,-17.32592 -7.95307,-22.62764 l 388.90873,388.90873 c 5.30172,5.30172 7.95307,12.8437 7.95307,22.62764 z"
       inkscape:connector-curvature="0"
       id="path3457"
       style="fill:#000000" />
    <path
       d="m 186.55935,201.99881 c -6.27621,-6.27621 -16.26664,-9.41291 -29.96964,-9.41291 l 388.90873,388.90873 c 13.703,0 23.69343,3.1367 29.96964,9.41291 z"
       inkscape:connector-curvature="0"
       id="path3459"
       style="fill:#000000" />
  </g>
  <path
     d="M 288.76481,47.568825 41,91.290465 41,421.23821 288.76481,464.43117 z m 9.43691,47.95107 0,0.9252 0,24.557065 0,20.1955 c 12.42655,-10.69803 28.27606,-16.58768 44.67325,-16.60049 l 0,68.5695 68.54306,0 c -2.5e-4,27.72776 -16.7034,52.72504 -42.32066,63.33557 -23.89962,9.85786 -51.31244,5.43213 -70.89565,-11.44585 l 0,31.98501 0,13.34912 0,17.26131 142.00282,0 0,13.48131 -142.00282,0 0,12.34459 0,13.37556 0,6.50273 142.00282,0 0,13.48128 -142.00282,0 0,23.10321 0,24.5571 0,0.95159 0.92519,0 68.38445,0 33.22739,0 69.30965,0 c 0.52039,0 0.9516,-0.43176 0.9516,-0.95159 l 0,-318.052505 c 0,-0.52012 -0.43176,-0.92519 -0.9516,-0.92519 l -69.30965,0 -33.22739,0 -68.38445,0 z m 55.27325,30.002455 c 29.91809,4.71819 53.19436,28.51031 57.25577,58.52461 l -57.25577,0 z m -238.08356,49.90146 44.47385,0 c 17.30366,0 30.68089,4.21476 40.16026,12.6409 9.5546,8.42612 14.34789,20.31452 14.34789,35.66213 0,15.3476 -5.3086,27.91169 -15.91647,37.69203 -10.53265,9.78034 -24.78613,14.67083 -42.76688,14.67083 l -21.33727,0 0,61.1746 -18.96138,0 z m 18.96138,17.16209 0,66.36477 19.86098,0 c 13.09057,0 23.07211,-2.98363 29.91833,-8.92708 6.92147,-6.01865 10.38032,-14.48831 10.38032,-25.39714 0,-21.36624 -12.64435,-32.04055 -37.92271,-32.04055 z"
     inkscape:connector-curvature="0"
     id="path4381"
     style="fill:#ffffff;fill-opacity:1;fill-rule:evenodd;stroke:none" />
</svg>
