<?xml version="1.0" encoding="UTF-8" standalone="no"?>
<!-- Created with Inkscape (http://www.inkscape.org/) -->

<svg
   xmlns:dc="http://purl.org/dc/elements/1.1/"
   xmlns:cc="http://creativecommons.org/ns#"
   xmlns:rdf="http://www.w3.org/1999/02/22-rdf-syntax-ns#"
   xmlns:svg="http://www.w3.org/2000/svg"
   xmlns="http://www.w3.org/2000/svg"
   xmlns:inkscape="http://www.inkscape.org/namespaces/inkscape"
   version="1.1"
   width="100%"
   height="100%"
   viewBox="0 0 512 512"
   id="svg2">
  <metadata
     id="metadata10">
    <rdf:RDF>
      <cc:Work
         rdf:about="">
        <dc:format>image/svg+xml</dc:format>
        <dc:type
           rdf:resource="http://purl.org/dc/dcmitype/StillImage" />
        <dc:title />
      </cc:Work>
    </rdf:RDF>
  </metadata>
  <defs
     id="defs8">
    <clipPath
       id="clipPath4332">
      <path
         d="M 26,0 C 11.602648,0 0,11.602648 0,26 l 0,460 c 0,14.39735 11.602648,26 26,26 l 460,0 c 14.39735,0 26,-11.60265 26,-26 L 512,26 C 512,11.602648 500.39735,0 486,0 L 26,0 z"
         inkscape:connector-curvature="0"
         id="path4334"
         style="fill:#666666;fill-opacity:1;stroke:none" />
    </clipPath>
  </defs>
  <path
     d="M 26,0 C 11.602648,0 0,11.602648 0,26 l 0,460 c 0,14.39735 11.602648,26 26,26 l 460,0 c 14.39735,0 26,-11.60265 26,-26 L 512,26 C 512,11.602648 500.39735,0 486,0 L 26,0 z"
     inkscape:connector-curvature="0"
     id="rect2986"
     style="fill:#666666;fill-opacity:1;stroke:none" />
  <text
     x="-164.52986"
     y="76.231308"
     id="text20"
     style="font-size:129.22999573px;line-height:125%;letter-spacing:0;word-spacing:0;font-family:Gentium Book Basic">
    <tspan
       x="-164.52986"
       y="76.231308"
       id="tspan22" />
  </text>
  <text
     x="156.07977"
     y="-43.245346"
     transform="scale(4.0128205,0.24920128)"
     id="text24"
     style="font-size:46.95375824px;text-anchor:middle;font-family:Arial" />
  <text
     x="416.74017"
     y="-3.7686899"
     id="text26"
     style="font-size:129.22999573px;line-height:125%;letter-spacing:0;word-spacing:0;font-family:Gentium Book Basic">
    <tspan
       x="416.74017"
       y="-3.7686899"
       id="tspan28" />
  </text>
  <text
     x="300.92905"
     y="-364.28351"
     transform="scale(4.0128205,0.24920128)"
     id="text30"
     style="font-size:46.95375824px;text-anchor:middle;font-family:Arial" />
  <text
     x="-654.83984"
     y="-185.02867"
     id="text32"
     style="font-size:129.22999573px;line-height:125%;letter-spacing:0;word-spacing:0;font-family:Gentium Book Basic">
    <tspan
       x="-654.83984"
       y="-185.02867"
       id="tspan34" />
  </text>
  <text
     x="33.890415"
     y="-1091.6299"
     transform="scale(4.0128205,0.24920128)"
     id="text36"
     style="font-size:46.95375824px;text-anchor:middle;font-family:Arial" />
  <text
     x="443.21014"
     y="-401.49866"
     id="text38"
     style="font-size:129.22999573px;line-height:125%;letter-spacing:0;word-spacing:0;font-family:Gentium Book Basic">
    <tspan
       x="443.21014"
       y="-401.49866"
       id="tspan40" />
  </text>
  <text
     x="307.52902"
     y="-1960.3054"
     transform="scale(4.0128205,0.24920128)"
     id="text42"
     style="font-size:46.95375824px;text-anchor:middle;font-family:Arial" />
  <text
     x="1024.4801"
     y="-481.49866"
     id="text44"
     style="font-size:129.22999573px;line-height:125%;letter-spacing:0;word-spacing:0;font-family:Gentium Book Basic">
    <tspan
       x="1024.4801"
       y="-481.49866"
       id="tspan46" />
  </text>
  <text
     x="452.37827"
     y="-2281.3337"
     transform="scale(4.0128205,0.24920128)"
     id="text48"
     style="font-size:46.95375824px;text-anchor:middle;font-family:Arial" />
  <text
     x="635.36017"
     y="-953.89868"
     id="text50"
     style="font-size:129.22999573px;line-height:125%;letter-spacing:0;word-spacing:0;font-family:Gentium Book Basic">
    <tspan
       x="635.36017"
       y="-953.89868"
       id="tspan52" />
  </text>
  <text
     x="355.40872"
     y="-4176.9844"
     transform="scale(4.0128205,0.24920128)"
     id="text54"
     style="font-size:46.95375824px;text-anchor:middle;font-family:Arial" />
  <text
     x="1216.6201"
     y="-1033.9087"
     id="text56"
     style="font-size:129.22999573px;line-height:125%;letter-spacing:0;word-spacing:0;font-family:Gentium Book Basic">
    <tspan
       x="1216.6201"
       y="-1033.9087"
       id="tspan58" />
  </text>
  <text
     x="500.25803"
     y="-4498.0225"
     transform="scale(4.0128205,0.24920128)"
     id="text60"
     style="font-size:46.95375824px;text-anchor:middle;font-family:Arial" />
  <text
     x="-616.17987"
     y="380.8114"
     id="text62"
     style="font-size:208.33000183px;line-height:125%;letter-spacing:0;word-spacing:0;font-family:Gentium Book Basic">
    <tspan
       x="-616.17987"
       y="380.8114"
       id="tspan64" />
  </text>
  <g
     clip-path="url(#clipPath4332)"
     id="g3640"
     style="opacity:0.25;fill:#000000;fill-opacity:1;stroke:none">
    <path
       d="m 258.14022,41 c -0.36451,-0.004 -5.90082,11.13169 -12.78015,25.3157 L 634.2688,455.22443 c 6.87933,-14.18401 12.41564,-25.3197 12.78015,-25.3157 z"
       inkscape:connector-curvature="0"
       id="path3642"
       style="fill:#000000" />
    <path
       d="m 245.36007,66.3157 c 3.3747,-0.1763 6.79333,-0.2446 10.21188,-0.2446 l 388.90873,388.90873 c -3.41855,0 -6.83718,0.0683 -10.21188,0.2446 z"
       inkscape:connector-curvature="0"
       id="path3644"
       style="fill:#000000" />
    <path
       d="m 255.57195,66.0711 c 4.97304,0 9.92022,0.17924 14.79807,0.55034 l 388.90873,388.90873 c -4.87785,-0.3711 -9.82503,-0.55034 -14.79807,-0.55034 z"
       inkscape:connector-curvature="0"
       id="path3646"
       style="fill:#000000" />
    <path
       d="M 270.37002,66.62144 C 263.95798,52.705944 258.80651,41.650882 258.18334,41.02772 l 388.90873,388.90873 c 0.62317,0.62316 5.77464,11.67822 12.18668,25.59372 z"
       inkscape:connector-curvature="0"
       id="path3648"
       style="fill:#000000" />
    <path
       d="M 258.18334,41.02772 C 258.16504,41.00941 258.15064,41.0001 258.14024,41 l 388.90873,388.90873 c 0.0104,1e-4 0.0248,0.009 0.0431,0.0277 z"
       inkscape:connector-curvature="0"
       id="path3650"
       style="fill:#000000" />
    <path
       d="m 255.57195,81.96986 c -6.1229,0 -12.19935,0.30761 -18.16126,0.91722 l 388.90873,388.90873 c 5.96191,-0.60961 12.03836,-0.91722 18.16126,-0.91722 z"
       inkscape:connector-curvature="0"
       id="path3652"
       style="fill:#000000" />
    <path
       d="m 237.41069,82.88708 c -2.87586,5.97038 -5.43942,11.26292 -8.31627,17.24403 l 388.90873,388.90873 c 2.87685,-5.98111 5.44041,-11.27365 8.31627,-17.24403 z"
       inkscape:connector-curvature="0"
       id="path3654"
       style="fill:#000000" />
    <path
       d="m 229.09442,100.13111 c 8.61559,-1.431905 17.45578,-2.201365 26.47753,-2.201365 L 644.48068,486.83847 c -9.02175,0 -17.86194,0.76946 -26.47753,2.20137 z"
       inkscape:connector-curvature="0"
       id="path3656"
       style="fill:#000000" />
    <path
       d="m 255.57195,97.929745 c 10.43845,0 20.63245,1.03048 30.51337,2.935155 l 388.90873,388.90873 c -9.88092,-1.90468 -20.07492,-2.93516 -30.51337,-2.93516 z"
       inkscape:connector-curvature="0"
       id="path3658"
       style="fill:#000000" />
    <path
       d="m 286.08532,100.8649 c -2.76767,-6.06218 -5.23961,-11.43078 -8.01052,-17.48862 l 388.90873,388.90873 c 2.77091,6.05784 5.24285,11.42644 8.01052,17.48862 z"
       inkscape:connector-curvature="0"
       id="path3660"
       style="fill:#000000" />
    <path
       d="m 278.0748,83.37628 c -7.36697,-0.93898 -14.88065,-1.40642 -22.50285,-1.40642 l 388.90873,388.90873 c 7.6222,0 15.13588,0.46744 22.50285,1.40642 z"
       inkscape:connector-curvature="0"
       id="path3662"
       style="fill:#000000" />
    <path
       d="m 105.45108,102.45478 c -0.2539,0.24894 3.57776,11.50975 8.56087,25.86604 l 388.90873,388.90873 c -4.98311,-14.35629 -8.81477,-25.6171 -8.56087,-25.86604 z"
       inkscape:connector-curvature="0"
       id="path3664"
       style="fill:#000000" />
    <path
       d="m 114.01195,128.32082 c 5.42993,-5.91313 11.24064,-11.49878 17.36632,-16.69369 L 520.287,500.53586 c -6.12568,5.19491 -11.93639,10.78056 -17.36632,16.69369 z"
       inkscape:connector-curvature="0"
       id="path3666"
       style="fill:#000000" />
    <path
       d="m 131.37827,111.62713 c -14.40359,-5.3049 -25.67163,-9.42288 -25.92719,-9.17235 l 388.90873,388.90873 c 0.25556,-0.25053 11.5236,3.86745 25.92719,9.17235 z"
       inkscape:connector-curvature="0"
       id="path3668"
       style="fill:#000000" />
    <path
       d="m 409.54522,105.45108 c -4e-5,-4e-5 -8e-5,-8e-5 -1.2e-4,-1.3e-4 l 388.90873,388.90873 c 4e-5,5e-5 8e-5,9e-5 1.2e-4,1.3e-4 z"
       inkscape:connector-curvature="0"
       id="path3670"
       style="fill:#000000" />
    <path
       d="m 409.5451,105.45095 c -0.25769,-0.25769 -11.92309,3.73002 -26.72201,8.86674 l 388.90873,388.90873 c 14.79892,-5.13672 26.46431,-9.12443 26.72201,-8.86674 z"
       inkscape:connector-curvature="0"
       id="path3672"
       style="fill:#000000" />
    <path
       d="m 382.82309,114.31769 c 3.04018,2.69144 5.99493,5.46552 8.85909,8.32968 L 780.59091,511.5561 c -2.86416,-2.86416 -5.81891,-5.63824 -8.85909,-8.32968 z"
       inkscape:connector-curvature="0"
       id="path3674"
       style="fill:#000000" />
    <path
       d="m 391.68218,122.64737 c 2.95441,2.95442 5.81243,6.00467 8.56839,9.15894 L 789.1593,520.71504 c -2.75596,-3.15427 -5.61398,-6.20452 -8.56839,-9.15894 z"
       inkscape:connector-curvature="0"
       id="path3676"
       style="fill:#000000" />
    <path
       d="m 400.25057,131.80631 c 5.38486,-14.58665 9.54733,-26.0975 9.29465,-26.35523 l 388.90873,388.90873 c 0.25268,0.25773 -3.90979,11.76858 -9.29465,26.35523 z"
       inkscape:connector-curvature="0"
       id="path3678"
       style="fill:#000000" />
    <path
       d="m 255.57195,114.86804 c -12.34326,0 -24.34479,1.59005 -35.77217,4.52502 l 388.90873,388.90873 c 11.42738,-2.93497 23.42891,-4.52502 35.77217,-4.52502 z"
       inkscape:connector-curvature="0"
       id="path3680"
       style="fill:#000000" />
    <path
       d="m 219.79978,119.39306 c -5.68337,11.74742 -10.09971,20.79394 -10.39535,20.91297 l 388.90873,388.90873 c 0.29564,-0.11903 4.71198,-9.16555 10.39535,-20.91297 z"
       inkscape:connector-curvature="0"
       id="path3682"
       style="fill:#000000" />
    <path
       d="m 209.40443,140.30603 c -0.29813,0.12018 -9.91795,-3.41462 -22.31939,-8.01052 l 388.90873,388.90873 c 12.40144,4.5959 22.02126,8.1307 22.31939,8.01052 z"
       inkscape:connector-curvature="0"
       id="path3684"
       style="fill:#000000" />
    <path
       d="m 187.08504,132.29551 c -22.09102,12.04459 -40.64065,29.72261 -53.75,51.12059 l 388.90873,388.90873 c 13.10935,-21.39798 31.65898,-39.076 53.75,-51.12059 z"
       inkscape:connector-curvature="0"
       id="path3686"
       style="fill:#000000" />
    <path
       d="m 133.33504,183.4161 c 4.48224,12.83374 7.96098,22.98948 7.94938,23.60352 l 388.90873,388.90873 c 0.0116,-0.61404 -3.46714,-10.76978 -7.94938,-23.60352 z"
       inkscape:connector-curvature="0"
       id="path3688"
       style="fill:#000000" />
    <path
       d="M 141.28442,207.01962 C 160.85205,163.36729 204.63738,132.907 255.57195,132.907 l 388.90873,388.90873 c -50.93457,0 -94.7199,30.46029 -114.28753,74.11262 z"
       inkscape:connector-curvature="0"
       id="path3690"
       style="fill:#000000" />
    <path
       d="m 255.57195,132.907 c 34.58221,0 65.89051,14.0172 88.55327,36.67995 l 388.90873,388.90873 c -22.66276,-22.66275 -53.97106,-36.67995 -88.55327,-36.67995 z"
       inkscape:connector-curvature="0"
       id="path3692"
       style="fill:#000000" />
    <path
       d="m 344.12522,169.58695 c 22.66275,22.66275 36.67995,53.97106 36.67995,88.55327 L 769.7139,647.04895 c 0,-34.58221 -14.0172,-65.89052 -36.67995,-88.55327 z"
       inkscape:connector-curvature="0"
       id="path3694"
       style="fill:#000000" />
    <path
       d="m 380.80517,258.14022 c 0,16.22052 -3.13102,31.75837 -8.7443,45.98406 L 760.9696,693.03301 c 5.61328,-14.22569 8.7443,-29.76354 8.7443,-45.98406 z"
       inkscape:connector-curvature="0"
       id="path3696"
       style="fill:#000000" />
    <path
       d="m 372.06087,304.12428 c 3.09122,-1.56088 11.65944,-5.57021 22.31939,-10.45648 l 388.90873,388.90873 c -10.65995,4.88627 -19.22817,8.8956 -22.31939,10.45648 z"
       inkscape:connector-curvature="0"
       id="path3698"
       style="fill:#000000" />
    <path
       d="m 394.38026,293.6678 c 2.89496,-11.35689 4.46388,-23.27152 4.46388,-35.52758 l 388.90873,388.90873 c 0,12.25606 -1.56892,24.17069 -4.46388,35.52758 z"
       inkscape:connector-curvature="0"
       id="path3700"
       style="fill:#000000" />
    <path
       d="m 398.84414,258.14022 c 0,-13.07711 -1.79348,-25.75345 -5.07537,-37.7901 L 782.6775,609.25885 c 3.28189,12.03665 5.07537,24.71299 5.07537,37.7901 z"
       inkscape:connector-curvature="0"
       id="path3702"
       style="fill:#000000" />
    <path
       d="m 393.76877,220.35012 c -12.07973,-5.84028 -21.60775,-10.4738 -22.05924,-10.92528 l 388.90873,388.90873 c 0.45149,0.45148 9.97951,5.085 22.05924,10.92528 z"
       inkscape:connector-curvature="0"
       id="path3704"
       style="fill:#000000" />
    <path
       d="m 371.70953,209.42484 c -0.008,-0.008 -0.0134,-0.015 -0.0156,-0.0204 L 760.6027,598.31316 c 0.002,0.005 0.007,0.0122 0.0156,0.0204 z"
       inkscape:connector-curvature="0"
       id="path3706"
       style="fill:#000000" />
    <path
       d="m 371.69397,209.40443 c -0.12092,-0.30036 3.48171,-10.07731 8.13281,-22.62513 l 388.90873,388.90873 c -4.6511,12.54782 -8.25373,22.32477 -8.13281,22.62513 z"
       inkscape:connector-curvature="0"
       id="path3708"
       style="fill:#000000" />
    <path
       d="m 379.82678,186.7793 c -6.29225,-10.93354 -13.9913,-20.94304 -22.84665,-29.79839 l 388.90873,388.90873 c 8.85535,8.85534 16.5544,18.86484 22.84665,29.79839 z"
       inkscape:connector-curvature="0"
       id="path3710"
       style="fill:#000000" />
    <path
       d="m 356.98013,156.98091 c -8.95938,-8.95938 -19.10238,-16.73733 -30.16955,-23.09553 l 388.90873,388.90873 c 11.06717,6.3582 21.21017,14.13615 30.16955,23.09553 z"
       inkscape:connector-curvature="0"
       id="path3712"
       style="fill:#000000" />
    <path
       d="m 326.81058,133.88538 c -12.23845,4.25849 -21.66061,7.4622 -21.95251,7.33789 L 693.7668,530.132 c 0.2919,0.12431 9.71406,-3.0794 21.95251,-7.33789 z"
       inkscape:connector-curvature="0"
       id="path3714"
       style="fill:#000000" />
    <path
       d="m 304.85807,141.22327 c -0.005,-0.002 -0.0109,-0.007 -0.018,-0.0138 L 693.74878,530.1182 c 0.007,0.007 0.0131,0.0117 0.018,0.0138 z"
       inkscape:connector-curvature="0"
       id="path3716"
       style="fill:#000000" />
    <path
       d="m 304.84005,141.20947 c -0.414,-0.414 -4.52479,-9.29566 -9.82697,-20.83802 l 388.90873,388.90873 c 5.30218,11.54236 9.41297,20.42402 9.82697,20.83802 z"
       inkscape:connector-curvature="0"
       id="path3718"
       style="fill:#000000" />
    <path
       d="m 295.01308,120.37145 c -12.52653,-3.578 -25.76565,-5.50341 -39.44113,-5.50341 l 388.90873,388.90873 c 13.67548,0 26.9146,1.92541 39.44113,5.50341 z"
       inkscape:connector-curvature="0"
       id="path3720"
       style="fill:#000000" />
    <path
       d="m 148.7446,118.04778 c -10.56916,8.07191 -20.18369,17.30026 -28.6789,27.51707 l 388.90873,388.90873 c 8.49521,-10.21681 18.10974,-19.44516 28.6789,-27.51707 z"
       inkscape:connector-curvature="0"
       id="path3722"
       style="fill:#000000" />
    <path
       d="m 120.0657,145.56485 c 2.17227,6.19812 4.03936,11.66369 6.23721,17.91667 l 388.90873,388.90873 c -2.19785,-6.25298 -4.06494,-11.71855 -6.23721,-17.91667 z"
       inkscape:connector-curvature="0"
       id="path3724"
       style="fill:#000000" />
    <path
       d="m 126.30291,163.48152 c 11.12207,-15.15554 24.81261,-28.32641 40.48065,-38.7685 l 388.90873,388.90873 c -15.66804,10.44209 -29.35858,23.61296 -40.48065,38.7685 z"
       inkscape:connector-curvature="0"
       id="path3726"
       style="fill:#000000" />
    <path
       d="m 166.78356,124.71302 c -6.26603,-2.338 -11.80483,-4.34702 -18.03896,-6.66524 l 388.90873,388.90873 c 6.23413,2.31822 11.77293,4.32724 18.03896,6.66524 z"
       inkscape:connector-curvature="0"
       id="path3728"
       style="fill:#000000" />
    <path
       d="m 365.39561,120.37145 c -6.2848,2.20009 -11.86553,4.15243 -18.16126,6.35949 l 388.90873,388.90873 c 6.29573,-2.20706 11.87646,-4.1594 18.16126,-6.35949 z"
       inkscape:connector-curvature="0"
       id="path3730"
       style="fill:#000000" />
    <path
       d="m 347.23435,126.73094 c 7.72106,5.39548 14.94542,11.4586 21.5893,18.10248 l 388.90873,388.90873 c -6.64388,-6.64388 -13.86824,-12.707 -21.5893,-18.10248 z"
       inkscape:connector-curvature="0"
       id="path3732"
       style="fill:#000000" />
    <path
       d="m 368.82365,144.83342 c 6.76547,6.76547 12.92901,14.13315 18.40217,22.01128 l 388.90873,388.90873 c -5.47316,-7.87813 -11.63671,-15.24581 -18.40217,-22.01128 z"
       inkscape:connector-curvature="0"
       id="path3734"
       style="fill:#000000" />
    <path
       d="m 387.22582,166.8447 c 2.31744,-6.21097 4.36242,-11.67086 6.66525,-17.8555 L 782.7998,537.89793 c -2.30283,6.18464 -4.34781,11.64453 -6.66525,17.8555 z"
       inkscape:connector-curvature="0"
       id="path3736"
       style="fill:#000000" />
    <path
       d="m 393.89107,148.9892 c -4.25888,-5.38963 -8.82816,-10.52207 -13.67913,-15.37304 l 388.90873,388.90873 c 4.85097,4.85097 9.42025,9.98341 13.67913,15.37304 z"
       inkscape:connector-curvature="0"
       id="path3738"
       style="fill:#000000" />
    <path
       d="m 380.21194,133.61616 c -4.6847,-4.6847 -9.6321,-9.10689 -14.81633,-13.24471 l 388.90873,388.90873 c 5.18423,4.13782 10.13163,8.56001 14.81633,13.24471 z"
       inkscape:connector-curvature="0"
       id="path3740"
       style="fill:#000000" />
    <path
       d="m 255.57195,147.76622 c -60.95843,0 -110.374,49.41555 -110.374,110.374 l 388.90873,388.90873 c 0,-60.95845 49.41557,-110.374 110.374,-110.374 z"
       inkscape:connector-curvature="0"
       id="path3742"
       style="fill:#000000" />
    <path
       d="m 145.19795,258.14022 c 0,30.49451 12.36629,58.1157 32.35765,78.10706 l 388.90873,388.90873 c -19.99136,-19.99136 -32.35765,-47.61255 -32.35765,-78.10706 z"
       inkscape:connector-curvature="0"
       id="path3744"
       style="fill:#000000" />
    <path
       d="m 177.5556,336.24728 c 19.97131,19.97132 47.55242,32.32809 78.01635,32.32809 L 644.48068,757.4841 c -30.46393,0 -58.04504,-12.35677 -78.01635,-32.32809 z"
       inkscape:connector-curvature="0"
       id="path3746"
       style="fill:#000000" />
    <path
       d="m 255.57195,368.57537 c 60.95845,0 110.37401,-49.47671 110.37401,-110.43515 l 388.90873,388.90873 c 0,60.95844 -49.41556,110.43515 -110.37401,110.43515 z"
       inkscape:connector-curvature="0"
       id="path3748"
       style="fill:#000000" />
    <path
       d="m 365.94596,258.14022 c 0,-30.47922 -12.35389,-58.07272 -32.32758,-78.04641 l 388.90873,388.90873 c 19.97369,19.97369 32.32758,47.56719 32.32758,78.04641 z"
       inkscape:connector-curvature="0"
       id="path3750"
       style="fill:#000000" />
    <path
       d="m 333.61838,180.09381 c -19.9737,-19.9737 -47.5672,-32.32759 -78.04643,-32.32759 l 388.90873,388.90873 c 30.47923,0 58.07273,12.35389 78.04643,32.32759 z"
       inkscape:connector-curvature="0"
       id="path3752"
       style="fill:#000000" />
    <path
       d="m 141.16211,207.20307 c -0.48928,0.46121 -10.53582,5.08864 -23.17547,10.88453 l 388.90873,388.90873 c 12.63965,-5.79589 22.68619,-10.42332 23.17547,-10.88453 z"
       inkscape:connector-curvature="0"
       id="path3754"
       style="fill:#000000" />
    <path
       d="m 117.98664,218.0876 c -3.69186,12.70826 -5.68687,26.15317 -5.68687,40.05262 L 501.2085,647.04895 c 0,-13.89945 1.99501,-27.34436 5.68687,-40.05262 z"
       inkscape:connector-curvature="0"
       id="path3756"
       style="fill:#000000" />
    <path
       d="m 112.29977,258.14022 c 0,11.1481 1.32124,21.99114 3.7301,32.40899 L 504.9386,679.45794 c -2.40886,-10.41785 -3.7301,-21.26089 -3.7301,-32.40899 z"
       inkscape:connector-curvature="0"
       id="path3758"
       style="fill:#000000" />
    <path
       d="m 116.02987,290.54921 c 10.02439,4.83705 18.19069,8.79484 21.89135,10.70107 l 388.90873,388.90873 c -3.70066,-1.90623 -11.86696,-5.86402 -21.89135,-10.70107 z"
       inkscape:connector-curvature="0"
       id="path3760"
       style="fill:#000000" />
    <path
       d="m 137.92122,301.25028 c -4.91614,-13.4266 -7.58249,-27.98035 -7.58249,-43.11006 l 388.90873,388.90873 c 0,15.12971 2.66635,29.68346 7.58249,43.11006 z"
       inkscape:connector-curvature="0"
       id="path3762"
       style="fill:#000000" />
    <path
       d="m 130.33873,258.14022 c 0,-18.15203 3.87631,-35.36597 10.82338,-50.93715 L 530.07084,596.1118 c -6.94707,15.57118 -10.82338,32.78512 -10.82338,50.93715 z"
       inkscape:connector-curvature="0"
       id="path3764"
       style="fill:#000000" />
    <path
       d="m 98.296645,227.07651 c -6.13251,2.7982 -11.40331,5.25258 -17.42748,8.01052 L 469.77789,623.99576 c 6.02417,-2.75794 11.29497,-5.21232 17.42748,-8.01052 z"
       inkscape:connector-curvature="0"
       id="path3766"
       style="fill:#000000" />
    <path
       d="m 80.869165,235.08703 c -0.98545,7.5427 -1.46758,15.24166 -1.46758,23.05319 L 468.31031,647.04895 c 0,-7.81153 0.48213,-15.51049 1.46758,-23.05319 z"
       inkscape:connector-curvature="0"
       id="path3768"
       style="fill:#000000" />
    <path
       d="m 79.401585,258.14022 c 0,5.08075 0.19,10.13183 0.6115,15.10381 L 468.92181,662.15276 c -0.4215,-4.97198 -0.6115,-10.02306 -0.6115,-15.10381 z"
       inkscape:connector-curvature="0"
       id="path3770"
       style="fill:#000000" />
    <path
       d="m 80.013085,273.24403 c 5.85114,2.82027 10.96639,5.26226 16.93828,8.13281 L 485.86009,670.28557 c -5.97189,-2.87055 -11.08714,-5.31254 -16.93828,-8.13281 z"
       inkscape:connector-curvature="0"
       id="path3772"
       style="fill:#000000" />
    <path
       d="m 96.951365,281.37684 c -1.10224,-7.58696 -1.65103,-15.3444 -1.65103,-23.23662 L 484.20906,647.04895 c 0,7.89222 0.54879,15.64966 1.65103,23.23662 z"
       inkscape:connector-curvature="0"
       id="path3774"
       style="fill:#000000" />
    <path
       d="m 95.300335,258.14022 c 0,-10.63023 1.02117,-21.01339 2.99631,-31.06371 L 487.20537,615.98524 c -1.97514,10.05032 -2.99631,20.43348 -2.99631,31.06371 z"
       inkscape:connector-curvature="0"
       id="path3776"
       style="fill:#000000" />
    <path
       d="m 413.27531,229.76706 c 1.64372,9.20659 2.5071,18.6927 2.5071,28.37316 l 388.90873,388.90873 c 0,-9.68046 -0.86338,-19.16657 -2.5071,-28.37316 z"
       inkscape:connector-curvature="0"
       id="path3778"
       style="fill:#000000" />
    <path
       d="m 415.78241,258.14022 c 0,9.12868 -0.79718,18.07117 -2.2625,26.78327 l 388.90873,388.90873 c 1.46532,-8.7121 2.2625,-17.65459 2.2625,-26.78327 z"
       inkscape:connector-curvature="0"
       id="path3780"
       style="fill:#000000" />
    <path
       d="m 413.51991,284.92349 c 6.03576,-2.75458 11.23667,-5.17248 17.18287,-7.88823 l 388.90873,388.90873 c -5.9462,2.71575 -11.14711,5.13365 -17.18287,7.88823 z"
       inkscape:connector-curvature="0"
       id="path3782"
       style="fill:#000000" />
    <path
       d="m 430.70278,277.03526 c 0.66074,-6.20293 1.03954,-12.51721 1.03954,-18.89504 l 388.90873,388.90873 c 0,6.37783 -0.3788,12.69211 -1.03954,18.89504 z"
       inkscape:connector-curvature="0"
       id="path3784"
       style="fill:#000000" />
    <path
       d="m 431.74232,258.14022 c 0,-6.75792 -0.42114,-13.43586 -1.16184,-19.99574 l 388.90873,388.90873 c 0.7407,6.55988 1.16184,13.23782 1.16184,19.99574 z"
       inkscape:connector-curvature="0"
       id="path3786"
       style="fill:#000000" />
    <path
       d="m 430.58048,238.14448 c -5.98673,-2.88509 -11.24803,-5.4643 -17.30517,-8.37742 l 388.90873,388.90873 c 6.05714,2.91312 11.31844,5.49233 17.30517,8.37742 z"
       inkscape:connector-curvature="0"
       id="path3788"
       style="fill:#000000" />
    <path
       d="m 64.053185,242.79181 c -13.05689,6.03207 -23.04978,10.72516 -23.05318,11.06797 L 429.90873,642.76851 c 0.003,-0.34281 9.99629,-5.0359 23.05318,-11.06797 z"
       inkscape:connector-curvature="0"
       id="path3790"
       style="fill:#000000" />
    <path
       d="m 41.000005,253.85978 c -1.33e-4,0.0113 0.0105,0.0276 0.03165,0.0487 L 429.94039,642.81722 c -0.0212,-0.0212 -0.0318,-0.0374 -0.0317,-0.0487 z"
       inkscape:connector-curvature="0"
       id="path3792"
       style="fill:#000000" />
    <path
       d="m 41.031657,253.90849 c 0.616397,0.61639 10.165707,5.37454 22.532338,11.38615 L 452.47272,654.20337 c -12.36663,-6.01161 -21.91594,-10.76976 -22.53233,-11.38615 z"
       inkscape:connector-curvature="0"
       id="path3794"
       style="fill:#000000" />
    <path
       d="m 63.563995,265.29464 c -0.0869,-2.37299 -0.12228,-4.76026 -0.12228,-7.15442 L 452.35044,647.04895 c 0,2.39416 0.0354,4.78143 0.12228,7.15442 z"
       inkscape:connector-curvature="0"
       id="path3796"
       style="fill:#000000" />
    <path
       d="m 63.441715,258.14022 c 0,-5.16226 0.21167,-10.28899 0.61149,-15.34841 L 452.96193,631.70054 c -0.39982,5.05942 -0.61149,10.18615 -0.61149,15.34841 z"
       inkscape:connector-curvature="0"
       id="path3798"
       style="fill:#000000" />
    <path
       d="m 447.27417,246.15501 c 0.24327,3.95836 0.3669,7.96552 0.3669,11.98521 L 836.5498,647.04895 c 0,-4.01969 -0.12363,-8.02685 -0.3669,-11.98521 z"
       inkscape:connector-curvature="0"
       id="path3800"
       style="fill:#000000" />
    <path
       d="m 447.64107,258.14022 c 0,3.79135 -0.0892,7.57543 -0.30575,11.31256 l 388.90873,388.90873 c 0.21655,-3.73713 0.30575,-7.52121 0.30575,-11.31256 z"
       inkscape:connector-curvature="0"
       id="path3802"
       style="fill:#000000" />
    <path
       d="M 447.33532,269.45278 C 460.69101,263.30917 470.99655,258.48752 471,258.14022 l 388.90873,388.90873 c -0.003,0.3473 -10.30899,5.16895 -23.66468,11.31256 z"
       inkscape:connector-curvature="0"
       id="path3804"
       style="fill:#000000" />
    <path
       d="m 471,258.14022 c 1.3e-4,-0.0113 -0.0105,-0.0276 -0.0317,-0.0488 l 388.90873,388.90873 c 0.0212,0.0212 0.0318,0.0374 0.0317,0.0488 z"
       inkscape:connector-curvature="0"
       id="path3806"
       style="fill:#000000" />
    <path
       d="m 470.96834,258.09146 c -0.63442,-0.63443 -10.73178,-5.64122 -23.69417,-11.93645 L 836.1829,635.06374 c 12.96239,6.29523 23.05974,11.30202 23.69417,11.93645 z"
       inkscape:connector-curvature="0"
       id="path3808"
       style="fill:#000000" />
    <path
       d="m 139.5111,305.22497 c -1.38221,4.03595 -4.59144,12.87012 -8.56088,23.54237 l 388.90873,388.90873 c 3.96944,-10.67225 7.17867,-19.50642 8.56088,-23.54237 z"
       inkscape:connector-curvature="0"
       id="path3810"
       style="fill:#000000" />
    <path
       d="m 130.95022,328.76734 c 6.43157,11.33027 14.35023,21.71236 23.49896,30.86109 l 388.90873,388.90873 c -9.14873,-9.14873 -17.06739,-19.53082 -23.49896,-30.86109 z"
       inkscape:connector-curvature="0"
       id="path3812"
       style="fill:#000000" />
    <path
       d="m 154.44918,359.62843 c 7.67807,7.67807 16.22252,14.48743 25.48142,20.25951 l 388.90873,388.90873 c -9.2589,-5.77208 -17.80335,-12.58144 -25.48142,-20.25951 z"
       inkscape:connector-curvature="0"
       id="path3814"
       style="fill:#000000" />
    <path
       d="m 179.9306,379.88794 c 10.11314,-3.5289 18.60886,-6.42659 23.23664,-7.94938 l 388.90873,388.90873 c -4.62778,1.52279 -13.1235,4.42048 -23.23664,7.94938 z"
       inkscape:connector-curvature="0"
       id="path3816"
       style="fill:#000000" />
    <path
       d="m 203.16724,371.93856 c -13.51186,-6.23604 -25.71988,-14.80776 -36.10986,-25.19774 l 388.90873,388.90873 c 10.38998,10.38998 22.598,18.9617 36.10986,25.19774 z"
       inkscape:connector-curvature="0"
       id="path3818"
       style="fill:#000000" />
    <path
       d="M 167.05738,346.74082 C 155.29789,334.98134 145.8673,320.89266 139.5111,305.22497 L 528.41983,694.1337 c 6.3562,15.66769 15.78679,29.75637 27.54628,41.51585 z"
       inkscape:connector-curvature="0"
       id="path3820"
       style="fill:#000000" />
    <path
       d="m 371.14363,306.44795 c -12.37021,29.59225 -35.76892,53.41444 -65.06257,66.3467 l 388.90873,388.90873 c 29.29365,-12.93226 52.69236,-36.75445 65.06257,-66.3467 z"
       inkscape:connector-curvature="0"
       id="path3822"
       style="fill:#000000" />
    <path
       d="m 306.08106,372.79465 c 4.39817,1.53361 12.82914,4.66089 22.99203,8.43857 l 388.90873,388.90873 c -10.16289,-3.77768 -18.59386,-6.90496 -22.99203,-8.43857 z"
       inkscape:connector-curvature="0"
       id="path3824"
       style="fill:#000000" />
    <path
       d="m 329.07309,381.23322 c 20.72663,-12.41819 37.99872,-30.00508 50.20336,-50.876 l 388.90873,388.90873 c -12.20464,20.87092 -29.47673,38.45781 -50.20336,50.876 z"
       inkscape:connector-curvature="0"
       id="path3826"
       style="fill:#000000" />
    <path
       d="m 379.27645,330.35722 c -3.93876,-11.27267 -7.0729,-20.47547 -8.13282,-23.90927 l 388.90873,388.90873 c 1.05992,3.4338 4.19406,12.6366 8.13282,23.90927 z"
       inkscape:connector-curvature="0"
       id="path3828"
       style="fill:#000000" />
    <path
       d="m 123.4289,348.76308 c -2.36926,6.34211 -4.36625,11.74156 -6.66524,17.91667 l 388.90873,388.90873 c 2.29899,-6.17511 4.29598,-11.57456 6.66524,-17.91667 z"
       inkscape:connector-curvature="0"
       id="path3830"
       style="fill:#000000" />
    <path
       d="m 116.76366,366.67975 c 4.42525,5.6536 9.19378,11.03721 14.26868,16.11211 l 388.90873,388.90873 c -5.0749,-5.0749 -9.84343,-10.45851 -14.26868,-16.11211 z"
       inkscape:connector-curvature="0"
       id="path3832"
       style="fill:#000000" />
    <path
       d="m 131.03234,382.79186 c 3.59419,3.59419 7.34204,7.03353 11.23046,10.30427 l 388.90873,388.90873 c -3.88842,-3.27074 -7.63628,-6.71008 -11.23046,-10.30427 z"
       inkscape:connector-curvature="0"
       id="path3834"
       style="fill:#000000" />
    <path
       d="m 142.2628,393.09613 c 6.15347,-2.14875 11.52345,-4.01916 17.85552,-6.23721 l 388.90873,388.90873 c -6.33207,2.21805 -11.70205,4.08846 -17.85552,6.23721 z"
       inkscape:connector-curvature="0"
       id="path3836"
       style="fill:#000000" />
    <path
       d="m 160.11832,386.85892 c -6.29851,-4.67857 -12.23733,-9.81031 -17.77267,-15.34565 L 531.25438,760.422 c 5.53534,5.53534 11.47416,10.66708 17.77267,15.34565 z"
       inkscape:connector-curvature="0"
       id="path3838"
       style="fill:#000000" />
    <path
       d="m 142.34565,371.51327 c -6.97552,-6.97552 -13.31031,-14.59199 -18.91675,-22.75019 l 388.90873,388.90873 c 5.60644,8.1582 11.94123,15.77467 18.91675,22.75019 z"
       inkscape:connector-curvature="0"
       id="path3840"
       style="fill:#000000" />
    <path
       d="m 386.43089,350.59755 c -10.36452,14.64992 -23.14159,27.46769 -37.72895,37.9124 l 388.90873,388.90873 c 14.58736,-10.44471 27.36443,-23.26248 37.72895,-37.9124 z"
       inkscape:connector-curvature="0"
       id="path3842"
       style="fill:#000000" />
    <path
       d="m 348.70194,388.50995 c 6.27306,2.34135 11.61425,4.32509 17.73321,6.6041 l 388.90873,388.90873 c -6.11896,-2.27901 -11.46015,-4.26275 -17.73321,-6.6041 z"
       inkscape:connector-curvature="0"
       id="path3844"
       style="fill:#000000" />
    <path
       d="m 366.43515,395.11405 c 9.6756,-7.84593 18.47249,-16.71967 26.29409,-26.41639 l 388.90873,388.90873 c -7.8216,9.69672 -16.61849,18.57046 -26.29409,26.41639 z"
       inkscape:connector-curvature="0"
       id="path3846"
       style="fill:#000000" />
    <path
       d="m 392.72924,368.69766 c -2.18354,-6.23762 -4.05852,-11.72202 -6.29835,-18.10011 l 388.90873,388.90873 c 2.23983,6.37809 4.11481,11.86249 6.29835,18.10011 z"
       inkscape:connector-curvature="0"
       id="path3848"
       style="fill:#000000" />
    <path
       d="m 209.03755,374.44568 c 2.12594,4.4281 5.89738,12.61752 10.39533,22.44169 L 608.34161,785.7961 c -4.49795,-9.82417 -8.26939,-18.01359 -10.39533,-22.44169 z"
       inkscape:connector-curvature="0"
       id="path3850"
       style="fill:#000000" />
    <path
       d="m 219.43288,396.88737 c 11.53576,2.99755 23.66611,4.58618 36.13907,4.58618 l 388.90873,388.90873 c -12.47296,0 -24.60331,-1.58863 -36.13907,-4.58618 z"
       inkscape:connector-curvature="0"
       id="path3852"
       style="fill:#000000" />
    <path
       d="m 255.57195,401.47355 c 11.8202,0 23.31704,-1.45705 34.30461,-4.15814 l 388.90873,388.90873 c -10.98757,2.70109 -22.48441,4.15814 -34.30461,4.15814 z"
       inkscape:connector-curvature="0"
       id="path3854"
       style="fill:#000000" />
    <path
       d="m 289.87656,397.31541 c 4.77585,-9.91358 8.73964,-18.15225 10.88454,-22.38055 l 388.90873,388.90873 c -2.1449,4.2283 -6.10869,12.46697 -10.88454,22.38055 z"
       inkscape:connector-curvature="0"
       id="path3856"
       style="fill:#000000" />
    <path
       d="m 300.7611,374.93486 c -14.02769,5.4344 -29.24248,8.43857 -45.18915,8.43857 l 388.90873,388.90873 c 15.94667,0 31.16146,-3.00417 45.18915,-8.43857 z"
       inkscape:connector-curvature="0"
       id="path3858"
       style="fill:#000000" />
    <path
       d="m 255.57195,383.37343 c -16.45391,0 -32.14134,-3.15997 -46.5344,-8.92775 l 388.90873,388.90873 c 14.39306,5.76778 30.08049,8.92775 46.5344,8.92775 z"
       inkscape:connector-curvature="0"
       id="path3860"
       style="fill:#000000" />
    <path
       d="m 110.343,383.98492 c -4.673,12.68994 -8.11867,22.26778 -7.88822,22.50285 L 491.36351,795.3965 c -0.23045,-0.23507 3.21522,-9.81291 7.88822,-22.50285 z"
       inkscape:connector-curvature="0"
       id="path3862"
       style="fill:#000000" />
    <path
       d="m 102.45478,406.48777 c 4e-5,4e-5 8e-5,8e-5 1.2e-4,1.3e-4 l 388.90873,388.90872 c -4e-5,-4e-5 -8e-5,-8e-5 -1.2e-4,-1.2e-4 z"
       inkscape:connector-curvature="0"
       id="path3864"
       style="fill:#000000" />
    <path
       d="m 102.4549,406.4879 c 0.23313,0.23312 9.86976,-2.99422 22.62503,-7.39916 l 388.90873,388.90873 c -12.75528,4.40494 -22.3919,7.63228 -22.62503,7.39915 z"
       inkscape:connector-curvature="0"
       id="path3866"
       style="fill:#000000" />
    <path
       d="m 125.07993,399.08874 c -2.08036,-1.92722 -4.13098,-3.89341 -6.1398,-5.90224 l 388.90873,388.90873 c 2.00882,2.00883 4.05944,3.97502 6.1398,5.90224 z"
       inkscape:connector-curvature="0"
       id="path3868"
       style="fill:#000000" />
    <path
       d="m 118.94013,393.1865 c -2.97006,-2.97006 -5.84877,-6.03332 -8.59713,-9.20158 l 388.90873,388.90873 c 2.74836,3.16826 5.62706,6.23152 8.59713,9.20158 z"
       inkscape:connector-curvature="0"
       id="path3870"
       style="fill:#000000" />
    <path
       d="m 398.84414,386.06399 c -4.82833,5.40682 -9.94383,10.579 -15.3484,15.40956 l 388.90873,388.90873 c 5.40457,-4.83056 10.52007,-10.00274 15.3484,-15.40956 z"
       inkscape:connector-curvature="0"
       id="path3872"
       style="fill:#000000" />
    <path
       d="m 383.49574,401.47355 c 12.94475,4.77447 22.81536,8.30479 23.05318,8.07167 l 388.90873,388.90873 c -0.23782,0.23312 -10.10843,-3.2972 -23.05318,-8.07167 z"
       inkscape:connector-curvature="0"
       id="path3874"
       style="fill:#000000" />
    <path
       d="m 406.54892,409.54522 c 0.23978,-0.23507 -3.13512,-10.28527 -7.70478,-23.48123 l 388.90873,388.90873 c 4.56966,13.19596 7.94456,23.24616 7.70478,23.48123 z"
       inkscape:connector-curvature="0"
       id="path3876"
       style="fill:#000000" />
    <path
       d="m 228.1772,416.08816 c 2.79042,6.1145 5.17439,11.25767 7.88822,17.18289 l 388.90873,388.90873 c -2.71383,-5.92522 -5.0978,-11.06839 -7.88822,-17.18289 z"
       inkscape:connector-curvature="0"
       id="path3878"
       style="fill:#000000" />
    <path
       d="m 236.06542,433.27105 c 6.40096,0.70508 12.9178,1.10067 19.50653,1.10067 l 388.90873,388.90873 c -6.58873,0 -13.10557,-0.39559 -19.50653,-1.10067 z"
       inkscape:connector-curvature="0"
       id="path3880"
       style="fill:#000000" />
    <path
       d="m 255.57195,434.37172 c 5.66452,0 11.28832,-0.27184 16.81599,-0.79494 l 388.90873,388.90873 c -5.52767,0.5231 -11.15147,0.79494 -16.81599,0.79494 z"
       inkscape:connector-curvature="0"
       id="path3882"
       style="fill:#000000" />
    <path
       d="m 272.38794,433.57678 c 2.84068,-5.9017 5.33265,-11.03483 8.25512,-17.12172 l 388.90873,388.90873 c -2.92247,6.08689 -5.41444,11.22002 -8.25512,17.12172 z"
       inkscape:connector-curvature="0"
       id="path3884"
       style="fill:#000000" />
    <path
       d="m 280.64306,416.45506 c -8.17057,1.28452 -16.53906,1.95677 -25.07111,1.95677 l 388.90873,388.90873 c 8.53205,0 16.90054,-0.67225 25.07111,-1.95677 z"
       inkscape:connector-curvature="0"
       id="path3886"
       style="fill:#000000" />
    <path
       d="m 255.57195,418.41183 c -9.33901,0 -18.49321,-0.79027 -27.39475,-2.32367 l 388.90873,388.90873 c 8.90154,1.5334 18.05574,2.32367 27.39475,2.32367 z"
       inkscape:connector-curvature="0"
       id="path3888"
       style="fill:#000000" />
    <path
       d="m 243.70905,449.90357 c 5.40304,11.6805 9.5538,20.51483 10.10781,21.06883 l 388.90872,388.90873 c -0.554,-0.554 -4.70476,-9.38833 -10.1078,-21.06883 z"
       inkscape:connector-curvature="0"
       id="path3890"
       style="fill:#000000" />
    <path
       d="m 253.81686,470.9724 c 0.0182,0.0182 0.0326,0.0275 0.0429,0.0276 l 388.90873,388.90873 c -0.0104,-10e-5 -0.0247,-0.009 -0.0429,-0.0276 z"
       inkscape:connector-curvature="0"
       id="path3892"
       style="fill:#000000" />
    <path
       d="m 253.85978,471 c 0.32545,0.004 4.76407,-8.94023 10.57879,-20.91297 L 653.3473,838.99576 c -5.81472,11.97274 -10.25334,20.91697 -10.57879,20.91297 z"
       inkscape:connector-curvature="0"
       id="path3894"
       style="fill:#000000" />
    <path
       d="m 264.43857,450.08703 c -2.93426,0.13326 -5.89945,0.18334 -8.86662,0.18334 L 644.48068,839.1791 c 2.96717,0 5.93236,-0.0501 8.86662,-0.18334 z"
       inkscape:connector-curvature="0"
       id="path3896"
       style="fill:#000000" />
    <path
       d="m 255.57195,450.27037 c -3.97841,0 -7.94435,-0.12836 -11.8629,-0.36689 l 388.90873,388.90873 c 3.91855,0.23853 7.88449,0.36689 11.8629,0.36689 z"
       inkscape:connector-curvature="0"
       id="path3898"
       style="fill:#000000" />
  </g>
  <path
     d="m 258.14022,41 c -0.36451,-0.004 -5.90082,11.13169 -12.78015,25.3157 3.3747,-0.1763 6.79333,-0.2446 10.21188,-0.2446 4.97304,0 9.92022,0.17924 14.79807,0.55034 C 263.76955,52.29702 258.50483,41.00362 258.14022,41 z m -2.56827,40.96986 c -6.1229,0 -12.19935,0.30761 -18.16126,0.91722 -2.87586,5.97038 -5.43942,11.26292 -8.31627,17.24403 8.61559,-1.431905 17.45578,-2.201365 26.47753,-2.201365 10.43845,0 20.63245,1.03048 30.51337,2.935155 -2.76767,-6.06218 -5.23961,-11.43078 -8.01052,-17.48862 -7.36697,-0.93898 -14.88065,-1.40642 -22.50285,-1.40642 z m -150.12087,20.48492 c -0.2539,0.24894 3.57776,11.50975 8.56087,25.86604 5.42993,-5.91313 11.24064,-11.49878 17.36632,-16.69369 -14.40359,-5.3049 -25.67163,-9.42288 -25.92719,-9.17235 z m 304.09414,2.9963 c -0.25403,-0.25911 -11.92081,3.72906 -26.72213,8.86661 6.17616,5.4677 11.99976,11.27645 17.42748,17.48862 5.38486,-14.58665 9.54733,-26.0975 9.29465,-26.35523 z m -153.97327,9.41696 c -12.34326,0 -24.34479,1.59005 -35.77217,4.52502 -5.68337,11.74742 -10.09971,20.79394 -10.39535,20.91297 -0.29813,0.12018 -9.91795,-3.41462 -22.31939,-8.01052 -22.09102,12.04459 -40.64065,29.72261 -53.75,51.12059 4.48224,12.83374 7.96098,22.98948 7.94938,23.60352 19.56763,-43.65233 63.35296,-74.11262 114.28753,-74.11262 69.16442,0 125.23322,56.0688 125.23322,125.23322 0,16.22052 -3.13102,31.75837 -8.7443,45.98406 3.09122,-1.56088 11.65944,-5.57021 22.31939,-10.45648 2.89496,-11.35689 4.46388,-23.27152 4.46388,-35.52758 0,-13.07711 -1.79348,-25.75345 -5.07537,-37.7901 -12.29865,-5.94612 -21.95227,-10.64135 -22.0748,-10.94569 -0.12092,-0.30036 3.48171,-10.07731 8.13281,-22.62513 -12.65842,-21.99554 -31.01037,-40.25135 -53.0162,-52.89392 -12.23845,4.25849 -21.66061,7.4622 -21.95251,7.33789 -0.29143,-0.12407 -4.45192,-9.11159 -9.84499,-20.85182 -12.52653,-3.578 -25.76565,-5.50341 -39.44113,-5.50341 z m -106.82735,3.17974 c -10.56916,8.07191 -20.18369,17.30026 -28.6789,27.51707 2.17227,6.19812 4.03936,11.66369 6.23721,17.91667 11.12207,-15.15554 24.81261,-28.32641 40.48065,-38.7685 -6.26603,-2.338 -11.80483,-4.34702 -18.03896,-6.66524 z m 216.65101,2.32367 c -6.2848,2.20009 -11.86553,4.15243 -18.16126,6.35949 15.58342,10.8897 29.14352,24.49908 39.99147,40.11376 2.31744,-6.21097 4.36242,-11.67086 6.66525,-17.8555 -8.37178,-10.59454 -17.943,-20.19525 -28.49546,-28.61775 z m -109.82366,27.39477 c -60.95843,0 -110.374,49.41555 -110.374,110.374 0,60.95844 49.41557,110.43515 110.374,110.43515 60.95845,0 110.37401,-49.47671 110.37401,-110.43515 0,-60.95845 -49.41556,-110.374 -110.37401,-110.374 z m -114.40984,59.43685 c -0.48928,0.46121 -10.53582,5.08864 -23.17547,10.88453 -3.69186,12.70826 -5.68687,26.15317 -5.68687,40.05262 0,11.1481 1.32124,21.99114 3.7301,32.40899 10.02439,4.83705 18.19069,8.79484 21.89135,10.70107 -4.91614,-13.4266 -7.58249,-27.98035 -7.58249,-43.11006 0,-18.15203 3.87631,-35.36597 10.82338,-50.93715 z m -42.865465,19.87344 c -6.13251,2.7982 -11.40331,5.25258 -17.42748,8.01052 -0.98545,7.5427 -1.46758,15.24166 -1.46758,23.05319 0,5.08075 0.19,10.13183 0.6115,15.10381 5.85114,2.82027 10.96639,5.26226 16.93828,8.13281 -1.10224,-7.58696 -1.65103,-15.3444 -1.65103,-23.23662 0,-10.63023 1.02117,-21.01339 2.99631,-31.06371 z m 314.978665,2.69055 c 1.64372,9.20659 2.5071,18.6927 2.5071,28.37316 0,9.12868 -0.79718,18.07117 -2.2625,26.78327 6.03576,-2.75458 11.23667,-5.17248 17.18287,-7.88823 0.66074,-6.20293 1.03954,-12.51721 1.03954,-18.89504 0,-6.75792 -0.42114,-13.43586 -1.16184,-19.99574 -5.98673,-2.88509 -11.24803,-5.4643 -17.30517,-8.37742 z M 64.053185,242.79181 c -13.05689,6.03207 -23.04978,10.72516 -23.05318,11.06797 -0.004,0.34003 9.773,5.21696 22.56399,11.43486 -0.0869,-2.37299 -0.12228,-4.76026 -0.12228,-7.15442 0,-5.16226 0.21167,-10.28899 0.61149,-15.34841 z m 383.220985,3.3632 c 0.24327,3.95836 0.3669,7.96552 0.3669,11.98521 0,3.79135 -0.0892,7.57543 -0.30575,11.31256 13.35569,-6.14361 23.66123,-10.96526 23.66468,-11.31256 0.004,-0.35078 -10.33129,-5.4801 -23.72583,-11.98521 z M 139.5111,305.22497 c -1.38221,4.03595 -4.59144,12.87012 -8.56088,23.54237 11.82926,20.8392 28.68914,38.47086 48.98038,51.1206 10.11314,-3.5289 18.60886,-6.42659 23.23664,-7.94938 -28.80472,-13.29405 -51.68398,-37.20286 -63.65614,-66.71359 z m 231.63253,1.22298 c -12.37021,29.59225 -35.76892,53.41444 -65.06257,66.3467 4.39817,1.53361 12.82914,4.66089 22.99203,8.43857 20.72663,-12.41819 37.99872,-30.00508 50.20336,-50.876 -3.93876,-11.27267 -7.0729,-20.47547 -8.13282,-23.90927 z M 123.4289,348.76308 c -2.36926,6.34211 -4.36625,11.74156 -6.66524,17.91667 7.55934,9.65765 16.12039,18.52745 25.49914,26.41638 6.15347,-2.14875 11.52345,-4.01916 17.85552,-6.23721 -14.23577,-10.57441 -26.63405,-23.46379 -36.68942,-38.09584 z m 263.00199,1.83447 c -10.36452,14.64992 -23.14159,27.46769 -37.72895,37.9124 6.27306,2.34135 11.61425,4.32509 17.73321,6.6041 9.6756,-7.84593 18.47249,-16.71967 26.29409,-26.41639 -2.18354,-6.23762 -4.05852,-11.72202 -6.29835,-18.10011 z m -177.39334,23.84813 c 2.12594,4.4281 5.89738,12.61752 10.39533,22.44169 11.53576,2.99755 23.66611,4.58618 36.13907,4.58618 11.8202,0 23.31704,-1.45705 34.30461,-4.15814 4.77585,-9.91358 8.73964,-18.15225 10.88454,-22.38055 -14.02769,5.4344 -29.24248,8.43857 -45.18915,8.43857 -16.45391,0 -32.14134,-3.15997 -46.5344,-8.92775 z m -98.69455,9.53924 c -4.673,12.68994 -8.11867,22.26778 -7.88822,22.50285 0.22981,0.2344 9.8676,-2.9933 22.62515,-7.39903 -5.15618,-4.77663 -10.12969,-9.79268 -14.73693,-15.10382 z m 288.50114,2.07907 c -4.82833,5.40682 -9.94383,10.579 -15.3484,15.40956 12.94475,4.77447 22.81536,8.30479 23.05318,8.07167 0.23978,-0.23507 -3.13512,-10.28527 -7.70478,-23.48123 z M 228.1772,416.08816 c 2.79042,6.1145 5.17439,11.25767 7.88822,17.18289 6.40096,0.70508 12.9178,1.10067 19.50653,1.10067 5.66452,0 11.28832,-0.27184 16.81599,-0.79494 2.84068,-5.9017 5.33265,-11.03483 8.25512,-17.12172 -8.17057,1.28452 -16.53906,1.95677 -25.07111,1.95677 -9.33901,0 -18.49321,-0.79027 -27.39475,-2.32367 z m 15.53185,33.81541 c 5.58085,12.06489 9.82564,21.0932 10.15073,21.09643 0.32545,0.004 4.76407,-8.94023 10.57879,-20.91297 -2.93426,0.13326 -5.89945,0.18334 -8.86662,0.18334 -3.97841,0 -7.94435,-0.12836 -11.8629,-0.36689 z"
     inkscape:connector-curvature="0"
     id="path3022"
     style="fill:#ffffff;fill-opacity:1;stroke:none" />
</svg>
