<?xml version="1.0" encoding="UTF-8" standalone="no"?>
<!-- Created with Inkscape (http://www.inkscape.org/) -->

<svg
   xmlns:dc="http://purl.org/dc/elements/1.1/"
   xmlns:cc="http://creativecommons.org/ns#"
   xmlns:rdf="http://www.w3.org/1999/02/22-rdf-syntax-ns#"
   xmlns:svg="http://www.w3.org/2000/svg"
   xmlns="http://www.w3.org/2000/svg"
   xmlns:inkscape="http://www.inkscape.org/namespaces/inkscape"
   version="1.1"
   width="100%"
   height="100%"
   viewBox="0 0 512 512"
   id="svg2">
  <metadata
     id="metadata62">
    <rdf:RDF>
      <cc:Work
         rdf:about="">
        <dc:format>image/svg+xml</dc:format>
        <dc:type
           rdf:resource="http://purl.org/dc/dcmitype/StillImage" />
      </cc:Work>
    </rdf:RDF>
  </metadata>
  <defs
     id="defs60" />
  <path
     d="M 26,0 C 11.603,0 0,11.603 0,26 v 460 c 0,14.397 11.603,26 26,26 h 460 c 14.397,0 26,-11.603 26,-26 V 26 C 512,11.603 500.397,0 486,0 H 26"
     inkscape:connector-curvature="0"
     id="path4"
     style="fill:#666666" />
  <text
     x="4.217"
     y="230.42999"
     id="text6"
     style="font-size:129.22999573px;line-height:125%;letter-spacing:0;word-spacing:0;font-family:Gentium Book Basic">
    <tspan
       x="4.217"
       y="230.42999"
       id="tspan8" />
  </text>
  <text
     x="198.13"
     y="575.51001"
     transform="scale(4.0128,0.2492)"
     id="text10"
     style="font-size:46.95399857px;text-anchor:middle;font-family:Arial" />
  <text
     x="585.48999"
     y="150.42999"
     id="text12"
     style="font-size:129.22999573px;line-height:125%;letter-spacing:0;word-spacing:0;font-family:Gentium Book Basic">
    <tspan
       x="585.48999"
       y="150.42999"
       id="tspan14" />
  </text>
  <text
     x="342.98001"
     y="254.48"
     transform="scale(4.0128,0.2492)"
     id="text16"
     style="font-size:46.95399857px;text-anchor:middle;font-family:Arial" />
  <text
     x="-486.09"
     y="-30.833"
     id="text18"
     style="font-size:129.22999573px;line-height:125%;letter-spacing:0;word-spacing:0;font-family:Gentium Book Basic">
    <tspan
       x="-486.09"
       y="-30.833"
       id="tspan20" />
  </text>
  <text
     x="75.942001"
     y="-472.87"
     transform="scale(4.0128,0.2492)"
     id="text22"
     style="font-size:46.95399857px;text-anchor:middle;font-family:Arial" />
  <text
     x="611.96002"
     y="-247.3"
     id="text24"
     style="font-size:129.22999573px;line-height:125%;letter-spacing:0;word-spacing:0;font-family:Gentium Book Basic">
    <tspan
       x="611.96002"
       y="-247.3"
       id="tspan26" />
  </text>
  <text
     x="349.57999"
     y="-1341.55"
     transform="scale(4.0128,0.2492)"
     id="text28"
     style="font-size:46.95399857px;text-anchor:middle;font-family:Arial" />
  <text
     x="1193.23"
     y="-327.29999"
     id="text30"
     style="font-size:129.22999573px;line-height:125%;letter-spacing:0;word-spacing:0;font-family:Gentium Book Basic">
    <tspan
       x="1193.23"
       y="-327.29999"
       id="tspan32" />
  </text>
  <text
     x="494.42999"
     y="-1662.5699"
     transform="scale(4.0128,0.2492)"
     id="text34"
     style="font-size:46.95399857px;text-anchor:middle;font-family:Arial" />
  <text
     x="804.10999"
     y="-799.70001"
     id="text36"
     style="font-size:129.22999573px;line-height:125%;letter-spacing:0;word-spacing:0;font-family:Gentium Book Basic">
    <tspan
       x="804.10999"
       y="-799.70001"
       id="tspan38" />
  </text>
  <text
     x="397.45999"
     y="-3558.22"
     transform="scale(4.0128,0.2492)"
     id="text40"
     style="font-size:46.95399857px;text-anchor:middle;font-family:Arial" />
  <text
     x="1385.37"
     y="-879.71002"
     id="text42"
     style="font-size:129.22999573px;line-height:125%;letter-spacing:0;word-spacing:0;font-family:Gentium Book Basic">
    <tspan
       x="1385.37"
       y="-879.71002"
       id="tspan44" />
  </text>
  <text
     x="542.31"
     y="-3879.26"
     transform="scale(4.0128,0.2492)"
     id="text46"
     style="font-size:46.95399857px;text-anchor:middle;font-family:Arial" />
  <text
     x="-447.42999"
     y="535.01001"
     id="text48"
     style="font-size:208.33000183px;line-height:125%;letter-spacing:0;word-spacing:0;font-family:Gentium Book Basic">
    <tspan
       x="-447.42999"
       y="535.01001"
       id="tspan50" />
  </text>
  <g
     id="g52"
     style="fill-rule:evenodd">
    <path
       d="m 256.28,41 c -25.775,0.004 -49.909,5.189 -72.28,15.531 -22.38,10.39 -42.48,25.735 -60.47,45.875 -19.448,21.431 -33.901,44.69 -43.06,69.69 -9.166,24.961 -13.625,53.02 -13.625,84.16 0,31.14 4.459,59.3 13.625,84.25 9.163,25.02 23.615,48.22 43.06,69.66 2.761,3.097 5.569,6.069 8.438,8.938 l 92.91,92.91 h 261.13 c 14.397,0 26,-11.603 26,-26 V 224.894 L 380.418,93.304 C 364.711,77.597 347.455,65.274 328.605,56.523 306.27,46.18 282.089,41.027 256.325,41.023 h -0.031"
       inkscape:connector-curvature="0"
       id="path54"
       style="opacity:0.25" />
    <path
       d="m 256.3,41 c -25.786,0 -49.909,5.164 -72.29,15.511 -22.38,10.39 -42.498,25.762 -60.49,45.903 -19.448,21.431 -33.883,44.691 -43.05,69.69 -9.166,24.961 -13.619,53.02 -13.619,84.15 0,31.14 4.452,59.28 13.619,84.23 9.163,25.02 23.598,48.22 43.05,69.65 17.8,19.973 37.849,35.21 60.19,45.49 22.359,10.263 46.618,15.363 72.59,15.363 25.969,0 50.16,-5.103 72.54,-15.363 22.38,-10.284 42.4,-25.523 60.23,-45.49 19.256,-21.283 33.542,-44.36 42.601,-69.28 9.08,-24.83 13.465,-53.11 13.465,-84.6 0,-31.507 -4.391,-59.753 -13.465,-84.6 -9.05,-24.893 -23.36,-47.979 -42.637,-69.24 C 371.089,82.274 350.944,66.899 328.574,56.511 306.23,46.164 282.061,41 256.284,41 m 0,28.351 c 29.18,0 47.75,11.149 58.22,32.73 11.231,23.12 17.589,73.7 17.589,154.19 0,80.53 -6.355,131.1 -17.589,154.19 -10.473,21.623 -29.05,32.767 -58.22,32.767 -29.352,0 -48.1,-11.261 -58.706,-33.03 -11.339,-23.295 -17.7,-73.79 -17.7,-153.93 0,-80.12 6.363,-130.56 17.7,-153.86 10.603,-21.79 29.356,-33.06 58.706,-33.06"
       inkscape:connector-curvature="0"
       id="path56"
       style="fill:#ffffff" />
  </g>
</svg>
