<?xml version="1.0" encoding="UTF-8" standalone="no"?>
<!-- Created with Inkscape (http://www.inkscape.org/) -->

<svg
   xmlns:dc="http://purl.org/dc/elements/1.1/"
   xmlns:cc="http://creativecommons.org/ns#"
   xmlns:rdf="http://www.w3.org/1999/02/22-rdf-syntax-ns#"
   xmlns:svg="http://www.w3.org/2000/svg"
   xmlns="http://www.w3.org/2000/svg"
   xmlns:inkscape="http://www.inkscape.org/namespaces/inkscape"
   version="1.1"
   width="100%"
   height="100%"
   viewBox="0 0 512 512"
   id="svg2">
  <metadata
     id="metadata109">
    <rdf:RDF>
      <cc:Work
         rdf:about="">
        <dc:format>image/svg+xml</dc:format>
        <dc:type
           rdf:resource="http://purl.org/dc/dcmitype/StillImage" />
      </cc:Work>
    </rdf:RDF>
  </metadata>
  <defs
     id="defs4">
    <clipPath
       id="0">
      <path
         d="M 26,0 C 11.603,0 0,11.603 0,26 v 460 c 0,14.397 11.603,26 26,26 h 460 c 14.397,0 26,-11.603 26,-26 V 26 C 512,11.603 500.397,0 486,0 H 26"
         inkscape:connector-curvature="0"
         id="path7" />
    </clipPath>
  </defs>
  <path
     d="M 26,0 C 11.603,0 0,11.603 0,26 v 460 c 0,14.397 11.603,26 26,26 h 460 c 14.397,0 26,-11.603 26,-26 V 26 C 512,11.603 500.397,0 486,0 H 26"
     inkscape:connector-curvature="0"
     id="path9"
     style="fill:#666666" />
  <text
     x="-2.3599999"
     y="-388.64001"
     id="text11"
     style="font-size:129.22999573px;line-height:125%;letter-spacing:0;word-spacing:0;font-family:Gentium Book Basic">
    <tspan
       x="-2.3599999"
       y="-388.64001"
       id="tspan13" />
  </text>
  <text
     x="196.49001"
     y="-1908.7"
     transform="scale(4.0128,0.2492)"
     id="text15"
     style="font-size:46.95399857px;text-anchor:middle;font-family:Arial" />
  <text
     x="578.90997"
     y="-468.64001"
     id="text17"
     style="font-size:129.22999573px;line-height:125%;letter-spacing:0;word-spacing:0;font-family:Gentium Book Basic">
    <tspan
       x="578.90997"
       y="-468.64001"
       id="tspan19" />
  </text>
  <text
     x="341.34"
     y="-2229.73"
     transform="scale(4.0128,0.2492)"
     id="text21"
     style="font-size:46.95399857px;text-anchor:middle;font-family:Arial" />
  <text
     x="-492.67001"
     y="-649.90002"
     id="text23"
     style="font-size:129.22999573px;line-height:125%;letter-spacing:0;word-spacing:0;font-family:Gentium Book Basic">
    <tspan
       x="-492.67001"
       y="-649.90002"
       id="tspan25" />
  </text>
  <text
     x="74.300003"
     y="-2957.0901"
     transform="scale(4.0128,0.2492)"
     id="text27"
     style="font-size:46.95399857px;text-anchor:middle;font-family:Arial" />
  <text
     x="605.38"
     y="-866.37"
     id="text29"
     style="font-size:129.22999573px;line-height:125%;letter-spacing:0;word-spacing:0;font-family:Gentium Book Basic">
    <tspan
       x="605.38"
       y="-866.37"
       id="tspan31" />
  </text>
  <text
     x="347.94"
     y="-3825.75"
     transform="scale(4.0128,0.2492)"
     id="text33"
     style="font-size:46.95399857px;text-anchor:middle;font-family:Arial" />
  <text
     x="1186.65"
     y="-946.38"
     id="text35"
     style="font-size:129.22999573px;line-height:125%;letter-spacing:0;word-spacing:0;font-family:Gentium Book Basic">
    <tspan
       x="1186.65"
       y="-946.38"
       id="tspan37" />
  </text>
  <text
     x="492.79001"
     y="-4146.79"
     transform="scale(4.0128,0.2492)"
     id="text39"
     style="font-size:46.95399857px;text-anchor:middle;font-family:Arial" />
  <text
     x="797.53003"
     y="-1418.78"
     id="text41"
     style="font-size:129.22999573px;line-height:125%;letter-spacing:0;word-spacing:0;font-family:Gentium Book Basic">
    <tspan
       x="797.53003"
       y="-1418.78"
       id="tspan43" />
  </text>
  <text
     x="395.82001"
     y="-6042.4399"
     transform="scale(4.0128,0.2492)"
     id="text45"
     style="font-size:46.95399857px;text-anchor:middle;font-family:Arial" />
  <text
     x="1378.79"
     y="-1498.78"
     id="text47"
     style="font-size:129.22999573px;line-height:125%;letter-spacing:0;word-spacing:0;font-family:Gentium Book Basic">
    <tspan
       x="1378.79"
       y="-1498.78"
       id="tspan49" />
  </text>
  <text
     x="540.66998"
     y="-6363.4702"
     transform="scale(4.0128,0.2492)"
     id="text51"
     style="font-size:46.95399857px;text-anchor:middle;font-family:Arial" />
  <text
     x="-454.01001"
     y="-84.059998"
     id="text53"
     style="font-size:208.33000183px;line-height:125%;letter-spacing:0;word-spacing:0;font-family:Gentium Book Basic">
    <tspan
       x="-454.01001"
       y="-84.059998"
       id="tspan55" />
  </text>
  <g
     clip-path="url(#0)"
     id="g57"
     style="opacity:0.25;fill-rule:evenodd">
    <path
       d="M 370.8,129.94 338.47,158 692.02,511.55 724.35,483.49 z"
       inkscape:connector-curvature="0"
       id="path59" />
    <path
       d="m 338.48,158 c 15.8,16.972 36.764,57.58 37.11,70.859 l 353.55,353.55 c -0.349,-13.281 -21.313,-53.887 -37.11,-70.859 z"
       inkscape:connector-curvature="0"
       id="path61" />
    <path
       d="m 375.59,228.86 c -47.871,0.01 -76.8,30.796 -76.78,75.7 l 353.55,353.55 c -0.015,-44.899 28.914,-75.68 76.78,-75.7 z"
       inkscape:connector-curvature="0"
       id="path63" />
    <path
       d="m 298.81,304.56 c 0.022,21.507 8.05,40.19 21.68,53.818 l 353.55,353.55 c -13.626,-13.626 -21.658,-32.31 -21.68,-53.818 z"
       inkscape:connector-curvature="0"
       id="path65" />
    <path
       d="m 320.49,358.38 c 14.803,14.803 36.21,23.637 61.12,23.631 l 353.55,353.55 c -24.911,0.005 -46.32,-8.828 -61.12,-23.631 z"
       inkscape:connector-curvature="0"
       id="path67" />
    <path
       d="m 381.61,382.01 c 47.871,-0.01 89.4,-36.2 89.39,-81.1 l 353.55,353.55 c 0.009,44.901 -41.523,81.09 -89.39,81.1 z"
       inkscape:connector-curvature="0"
       id="path69" />
    <path
       d="M 471,300.91 C 470.65,243.14 443.231,194.78 409.39,160.94 l 353.55,353.55 c 33.839,33.839 61.26,82.2 61.61,139.97 z"
       inkscape:connector-curvature="0"
       id="path71" />
    <path
       d="m 409.39,160.94 c -12.345,-12.345 -25.545,-22.758 -38.597,-30.99 l 353.55,353.55 c 13.05,8.232 26.25,18.644 38.597,30.99 z"
       inkscape:connector-curvature="0"
       id="path73" />
    <path
       d="M 130.39,130 C 82.519,130.01 40.99,166.2 41,211.1 l 353.55,353.55 c -0.009,-44.901 41.523,-81.09 89.39,-81.1 z"
       inkscape:connector-curvature="0"
       id="path75" />
    <path
       d="m 41,211.1 c 0.35,57.77 27.769,106.13 61.61,139.97 L 456.16,704.62 C 422.321,670.781 394.9,622.42 394.55,564.65 z"
       inkscape:connector-curvature="0"
       id="path77" />
    <path
       d="m 102.61,351.07 c 12.345,12.345 25.545,22.758 38.597,30.99 l 353.55,353.55 c -13.05,-8.232 -26.25,-18.644 -38.597,-30.99 z"
       inkscape:connector-curvature="0"
       id="path79" />
    <path
       d="m 141.21,382.06 32.33,-28.01 353.55,353.55 -32.33,28.01 z"
       inkscape:connector-curvature="0"
       id="path81" />
    <path
       d="m 173.53,354.04 c -15.8,-16.972 -36.764,-57.58 -37.11,-70.859 l 353.55,353.55 c 0.349,13.281 21.313,53.887 37.11,70.859 z"
       inkscape:connector-curvature="0"
       id="path83" />
    <path
       d="m 136.42,283.18 c 47.871,-0.01 76.8,-30.796 76.78,-75.7 l 353.55,353.55 c 0.015,44.899 -28.914,75.68 -76.78,75.7 z"
       inkscape:connector-curvature="0"
       id="path85" />
    <path
       d="m 213.2,207.49 c -0.022,-21.518 -8.06,-40.22 -21.701,-53.861 l 353.55,353.55 c 13.639,13.639 21.68,32.34 21.701,53.861 z"
       inkscape:connector-curvature="0"
       id="path87" />
    <path
       d="m 191.5,153.63 c -14.803,-14.803 -36.2,-23.64 -61.1,-23.636 l 353.55,353.55 c 24.899,-0.005 46.3,8.833 61.1,23.636 z"
       inkscape:connector-curvature="0"
       id="path89" />
    <path
       d="m 249.8,231.09 c -13.767,0.003 -24.934,11.164 -24.931,24.931 l 353.55,353.55 c -0.003,-13.767 11.164,-24.928 24.931,-24.931 z"
       inkscape:connector-curvature="0"
       id="path91" />
    <path
       d="m 224.87,256.02 c 0.001,6.884 2.793,13.12 7.305,17.631 l 353.55,353.55 c -4.512,-4.512 -7.304,-10.747 -7.305,-17.631 z"
       inkscape:connector-curvature="0"
       id="path93" />
    <path
       d="m 232.17,273.66 c 4.511,4.511 10.743,7.302 17.626,7.3 l 353.55,353.55 c -6.883,0.002 -13.11,-2.789 -17.626,-7.3 z"
       inkscape:connector-curvature="0"
       id="path95" />
    <path
       d="m 249.8,280.96 c 13.767,-0.003 24.934,-11.164 24.931,-24.931 l 353.55,353.55 c 0.003,13.767 -11.164,24.928 -24.931,24.931 z"
       inkscape:connector-curvature="0"
       id="path97" />
    <path
       d="m 274.73,256.02 v -0.048 l 353.55,353.55 v 0.048 z"
       inkscape:connector-curvature="0"
       id="path99" />
    <path
       d="m 274.73,255.98 c -0.007,-6.87 -2.792,-13.08 -7.291,-17.583 l 353.55,353.55 c 4.5,4.5 7.285,10.713 7.291,17.583 z"
       inkscape:connector-curvature="0"
       id="path101" />
    <path
       d="m 267.44,238.39 c -4.513,-4.513 -10.75,-7.302 -17.64,-7.3 l 353.55,353.55 c 6.89,-10e-4 13.13,2.787 17.64,7.3 z"
       inkscape:connector-curvature="0"
       id="path103" />
  </g>
  <path
     d="M 370.8,129.94 338.47,158 c 15.8,16.972 36.764,57.58 37.11,70.859 -47.871,0.01 -76.8,30.796 -76.78,75.7 0.045,44.871 34.959,77.46 82.8,77.45 47.871,-0.01 89.4,-36.2 89.39,-81.1 -0.478,-78.85 -51.38,-140.17 -100.21,-170.96 m -240.4,0.048 c -47.871,0.01 -89.4,36.2 -89.39,81.1 0.478,78.85 51.38,140.17 100.21,170.96 l 32.33,-28.01 c -15.8,-16.972 -36.764,-57.58 -37.11,-70.859 47.871,-0.01 76.8,-30.796 76.78,-75.7 -0.045,-44.871 -34.959,-77.51 -82.8,-77.5 m 119.4,101.1 c -13.767,0.003 -24.934,11.164 -24.931,24.931 0.003,13.767 11.164,24.934 24.931,24.931 13.767,-0.003 24.934,-11.164 24.931,-24.931 v -0.048 C 274.718,242.211 263.56,231.085 249.8,231.088"
     inkscape:connector-curvature="0"
     id="path105"
     style="fill:#ffffff;fill-rule:evenodd" />
</svg>
