<?xml version="1.0" encoding="UTF-8" standalone="no"?>
<!-- Created with Inkscape (http://www.inkscape.org/) -->

<svg
   xmlns:dc="http://purl.org/dc/elements/1.1/"
   xmlns:cc="http://creativecommons.org/ns#"
   xmlns:rdf="http://www.w3.org/1999/02/22-rdf-syntax-ns#"
   xmlns:svg="http://www.w3.org/2000/svg"
   xmlns="http://www.w3.org/2000/svg"
   xmlns:inkscape="http://www.inkscape.org/namespaces/inkscape"
   version="1.1"
   width="100%"
   height="100%"
   viewBox="0 0 512 512"
   id="svg2">
  <metadata
     id="metadata89">
    <rdf:RDF>
      <cc:Work
         rdf:about="">
        <dc:format>image/svg+xml</dc:format>
        <dc:type
           rdf:resource="http://purl.org/dc/dcmitype/StillImage" />
      </cc:Work>
    </rdf:RDF>
  </metadata>
  <defs
     id="defs4">
    <clipPath
       id="0">
      <path
         d="M 26,0 C 11.603,0 0,11.603 0,26 v 460 c 0,14.397 11.603,26 26,26 h 460 c 14.397,0 26,-11.603 26,-26 V 26 C 512,11.603 500.397,0 486,0 H 26"
         inkscape:connector-curvature="0"
         id="path7" />
    </clipPath>
  </defs>
  <path
     d="M 26,0 C 11.603,0 0,11.603 0,26 v 460 c 0,14.397 11.603,26 26,26 h 460 c 14.397,0 26,-11.603 26,-26 V 26 C 512,11.603 500.397,0 486,0 H 26"
     inkscape:connector-curvature="0"
     id="path9"
     style="fill:#666666" />
  <text
     x="-142.36"
     y="-120.64"
     id="text11"
     style="font-size:129.22999573px;line-height:125%;letter-spacing:0;word-spacing:0;font-family:Gentium Book Basic">
    <tspan
       x="-142.36"
       y="-120.64"
       id="tspan13" />
  </text>
  <text
     x="161.60001"
     y="-833.27002"
     transform="scale(4.0128,0.2492)"
     id="text15"
     style="font-size:46.95399857px;text-anchor:middle;font-family:Arial" />
  <text
     x="438.91"
     y="-200.64"
     id="text17"
     style="font-size:129.22999573px;line-height:125%;letter-spacing:0;word-spacing:0;font-family:Gentium Book Basic">
    <tspan
       x="438.91"
       y="-200.64"
       id="tspan19" />
  </text>
  <text
     x="306.45001"
     y="-1154.29"
     transform="scale(4.0128,0.2492)"
     id="text21"
     style="font-size:46.95399857px;text-anchor:middle;font-family:Arial" />
  <text
     x="-632.66998"
     y="-381.89999"
     id="text23"
     style="font-size:129.22999573px;line-height:125%;letter-spacing:0;word-spacing:0;font-family:Gentium Book Basic">
    <tspan
       x="-632.66998"
       y="-381.89999"
       id="tspan25" />
  </text>
  <text
     x="39.419998"
     y="-1881.65"
     transform="scale(4.0128,0.2492)"
     id="text27"
     style="font-size:46.95399857px;text-anchor:middle;font-family:Arial" />
  <text
     x="465.38"
     y="-598.37"
     id="text29"
     style="font-size:129.22999573px;line-height:125%;letter-spacing:0;word-spacing:0;font-family:Gentium Book Basic">
    <tspan
       x="465.38"
       y="-598.37"
       id="tspan31" />
  </text>
  <text
     x="313.04999"
     y="-2750.3201"
     transform="scale(4.0128,0.2492)"
     id="text33"
     style="font-size:46.95399857px;text-anchor:middle;font-family:Arial" />
  <text
     x="1046.65"
     y="-678.38"
     id="text35"
     style="font-size:129.22999573px;line-height:125%;letter-spacing:0;word-spacing:0;font-family:Gentium Book Basic">
    <tspan
       x="1046.65"
       y="-678.38"
       id="tspan37" />
  </text>
  <text
     x="457.89999"
     y="-3071.3501"
     transform="scale(4.0128,0.2492)"
     id="text39"
     style="font-size:46.95399857px;text-anchor:middle;font-family:Arial" />
  <text
     x="657.53003"
     y="-1150.78"
     id="text41"
     style="font-size:129.22999573px;line-height:125%;letter-spacing:0;word-spacing:0;font-family:Gentium Book Basic">
    <tspan
       x="657.53003"
       y="-1150.78"
       id="tspan43" />
  </text>
  <text
     x="360.92999"
     y="-4967"
     transform="scale(4.0128,0.2492)"
     id="text45"
     style="font-size:46.95399857px;text-anchor:middle;font-family:Arial" />
  <text
     x="1238.79"
     y="-1230.78"
     id="text47"
     style="font-size:129.22999573px;line-height:125%;letter-spacing:0;word-spacing:0;font-family:Gentium Book Basic">
    <tspan
       x="1238.79"
       y="-1230.78"
       id="tspan49" />
  </text>
  <text
     x="505.78"
     y="-5288.0298"
     transform="scale(4.0128,0.2492)"
     id="text51"
     style="font-size:46.95399857px;text-anchor:middle;font-family:Arial" />
  <text
     x="-594.01001"
     y="183.94"
     id="text53"
     style="font-size:208.33000183px;line-height:125%;letter-spacing:0;word-spacing:0;font-family:Gentium Book Basic">
    <tspan
       x="-594.01001"
       y="183.94"
       id="tspan55" />
  </text>
  <g
     clip-path="url(#0)"
     id="g57"
     style="opacity:0.25">
    <path
       d="m 184.33,57.999 v 184.27 l 353.55,353.55 v -184.27 z"
       inkscape:connector-curvature="0"
       id="path59" />
    <path
       d="m 184.33,242.27 h -71.67 l 353.55,353.55 h 71.67 z"
       inkscape:connector-curvature="0"
       id="path61" />
    <path
       d="M 112.67,242.27 256.21,406.11 609.76,759.66 466.22,595.82 z"
       inkscape:connector-curvature="0"
       id="path63" />
    <path
       d="M 256.21,406.11 399.34,242.27 752.89,595.82 609.76,759.66 z"
       inkscape:connector-curvature="0"
       id="path65" />
    <path
       d="m 399.33,242.27 h -71.67 l 353.55,353.55 h 71.67 z"
       inkscape:connector-curvature="0"
       id="path67" />
    <path
       d="M 327.66,242.27 V 58 l 353.55,353.55 v 184.27 z"
       inkscape:connector-curvature="0"
       id="path69" />
    <path
       d="M 327.66,57.999 H 184.33 l 353.55,353.55 h 143.33 z"
       inkscape:connector-curvature="0"
       id="path71" />
    <path
       d="M 256.2,406.11 H 41 l 353.55,353.55 h 215.2 z"
       inkscape:connector-curvature="0"
       id="path73" />
    <path
       d="m 41,406.11 v 47.887 l 353.55,353.55 V 759.66 z"
       inkscape:connector-curvature="0"
       id="path75" />
    <path
       d="m 41,454 c 0.488,-0.021 0.967,-0.074 1.461,-0.074 l 353.55,353.55 c -0.494,0 -0.973,0.053 -1.461,0.074 z"
       inkscape:connector-curvature="0"
       id="path77" />
    <path
       d="M 42.46,453.93 H 471 L 824.55,807.48 H 396.01 z"
       inkscape:connector-curvature="0"
       id="path79" />
    <path
       d="m 471,453.93 v -47.813 l 353.55,353.55 v 47.813 z"
       inkscape:connector-curvature="0"
       id="path81" />
    <path
       d="M 471,406.11 H 256.21 l 353.55,353.55 h 214.79 z"
       inkscape:connector-curvature="0"
       id="path83" />
  </g>
  <path
     d="m 184.33,57.999 v 184.27 H 112.66 L 256.2,406.109 399.33,242.269 H 327.66 V 57.999 H 184.33 m 71.871,348.11 h -215.2 v 47.887 c 0.488,-0.021 0.967,-0.074 1.461,-0.074 h 428.54 v -47.813 h -214.79"
     inkscape:connector-curvature="0"
     id="path85"
     style="fill:#ffffff" />
</svg>
