<?xml version="1.0" encoding="UTF-8" standalone="no"?>
<!-- Created with Inkscape (http://www.inkscape.org/) -->

<svg
   xmlns:dc="http://purl.org/dc/elements/1.1/"
   xmlns:cc="http://creativecommons.org/ns#"
   xmlns:rdf="http://www.w3.org/1999/02/22-rdf-syntax-ns#"
   xmlns:svg="http://www.w3.org/2000/svg"
   xmlns="http://www.w3.org/2000/svg"
   xmlns:inkscape="http://www.inkscape.org/namespaces/inkscape"
   version="1.1"
   width="100%"
   height="100%"
   viewBox="0 0 512 512"
   id="svg2">
  <metadata
     id="metadata119">
    <rdf:RDF>
      <cc:Work
         rdf:about="">
        <dc:format>image/svg+xml</dc:format>
        <dc:type
           rdf:resource="http://purl.org/dc/dcmitype/StillImage" />
      </cc:Work>
    </rdf:RDF>
  </metadata>
  <defs
     id="defs4">
    <clipPath
       id="0">
      <path
         d="M 26,0 C 11.603,0 0,11.603 0,26 v 460 c 0,14.397 11.603,26 26,26 h 460 c 14.397,0 26,-11.603 26,-26 V 26 C 512,11.603 500.397,0 486,0 H 26"
         inkscape:connector-curvature="0"
         id="path7" />
    </clipPath>
  </defs>
  <path
     d="M 26,0 C 11.603,0 0,11.603 0,26 v 460 c 0,14.397 11.603,26 26,26 h 460 c 14.397,0 26,-11.603 26,-26 V 26 C 512,11.603 500.397,0 486,0 H 26"
     inkscape:connector-curvature="0"
     id="path9"
     style="fill:#666666" />
  <text
     x="-451.26001"
     y="201.69"
     id="text11"
     style="font-size:129.22999573px;line-height:125%;letter-spacing:0;word-spacing:0;font-family:Gentium Book Basic">
    <tspan
       x="-451.26001"
       y="201.69"
       id="tspan13" />
  </text>
  <text
     x="84.629997"
     y="460.17999"
     transform="scale(4.0128,0.2492)"
     id="text15"
     style="font-size:46.95399857px;text-anchor:middle;font-family:Arial" />
  <text
     x="130.00999"
     y="121.69"
     id="text17"
     style="font-size:129.22999573px;line-height:125%;letter-spacing:0;word-spacing:0;font-family:Gentium Book Basic">
    <tspan
       x="130.00999"
       y="121.69"
       id="tspan19" />
  </text>
  <text
     x="229.48"
     y="139.14999"
     transform="scale(4.0128,0.2492)"
     id="text21"
     style="font-size:46.95399857px;text-anchor:middle;font-family:Arial" />
  <text
     x="-941.57001"
     y="-59.57"
     id="text23"
     style="font-size:129.22999573px;line-height:125%;letter-spacing:0;word-spacing:0;font-family:Gentium Book Basic">
    <tspan
       x="-941.57001"
       y="-59.57"
       id="tspan25" />
  </text>
  <text
     x="-37.562"
     y="-588.20001"
     transform="scale(4.0128,0.2492)"
     id="text27"
     style="font-size:46.95399857px;text-anchor:middle;font-family:Arial" />
  <text
     x="156.48"
     y="-276.04001"
     id="text29"
     style="font-size:129.22999573px;line-height:125%;letter-spacing:0;word-spacing:0;font-family:Gentium Book Basic">
    <tspan
       x="156.48"
       y="-276.04001"
       id="tspan31" />
  </text>
  <text
     x="236.08"
     y="-1456.87"
     transform="scale(4.0128,0.2492)"
     id="text33"
     style="font-size:46.95399857px;text-anchor:middle;font-family:Arial" />
  <text
     x="737.75"
     y="-356.04999"
     id="text35"
     style="font-size:129.22999573px;line-height:125%;letter-spacing:0;word-spacing:0;font-family:Gentium Book Basic">
    <tspan
       x="737.75"
       y="-356.04999"
       id="tspan37" />
  </text>
  <text
     x="380.92999"
     y="-1777.91"
     transform="scale(4.0128,0.2492)"
     id="text39"
     style="font-size:46.95399857px;text-anchor:middle;font-family:Arial" />
  <text
     x="348.63"
     y="-828.45001"
     id="text41"
     style="font-size:129.22999573px;line-height:125%;letter-spacing:0;word-spacing:0;font-family:Gentium Book Basic">
    <tspan
       x="348.63"
       y="-828.45001"
       id="tspan43" />
  </text>
  <text
     x="283.95999"
     y="-3673.5601"
     transform="scale(4.0128,0.2492)"
     id="text45"
     style="font-size:46.95399857px;text-anchor:middle;font-family:Arial" />
  <text
     x="929.89001"
     y="-908.45001"
     id="text47"
     style="font-size:129.22999573px;line-height:125%;letter-spacing:0;word-spacing:0;font-family:Gentium Book Basic">
    <tspan
       x="929.89001"
       y="-908.45001"
       id="tspan49" />
  </text>
  <text
     x="428.81"
     y="-3994.5901"
     transform="scale(4.0128,0.2492)"
     id="text51"
     style="font-size:46.95399857px;text-anchor:middle;font-family:Arial" />
  <text
     x="-902.90997"
     y="506.26999"
     id="text53"
     style="font-size:208.33000183px;line-height:125%;letter-spacing:0;word-spacing:0;font-family:Gentium Book Basic">
    <tspan
       x="-902.90997"
       y="506.26999"
       id="tspan55" />
  </text>
  <g
     clip-path="url(#0)"
     id="g57"
     style="opacity:0.25">
    <path
       d="m 90.88,41.28 v 76.38 l 353.55,353.55 v -76.37 z"
       inkscape:connector-curvature="0"
       id="path59" />
    <path
       d="m 90.88,117.66 c 83.66,0 159.46,33.983 214.39,88.91 L 658.82,560.12 C 603.891,505.191 528.09,471.21 444.43,471.21 z"
       inkscape:connector-curvature="0"
       id="path61" />
    <path
       d="m 305.26,206.57 c 55.06,55.06 89.15,131.16 89.15,215.18 L 747.96,775.3 c 0,-84.02 -34.09,-160.12 -89.15,-215.18 z"
       inkscape:connector-curvature="0"
       id="path63" />
    <path
       d="M 394.41,421.75 H 471 L 824.55,775.3 h -76.59 z"
       inkscape:connector-curvature="0"
       id="path65" />
    <path
       d="M 471,421.75 C 471,316.67 428.362,221.52 359.5,152.66 l 353.55,353.55 c 68.862,68.862 111.5,164.01 111.5,269.09 z"
       inkscape:connector-curvature="0"
       id="path67" />
    <path
       d="M 359.5,152.66 C 290.686,83.846 195.68,41.28 90.87,41.28 l 353.55,353.55 c 104.81,0 199.81,42.565 268.63,111.38 z"
       inkscape:connector-curvature="0"
       id="path69" />
    <path
       d="m 90.72,192.5 v 69.09 l 353.55,353.55 v -69.09 z"
       inkscape:connector-curvature="0"
       id="path71" />
    <path
       d="m 90.72,261.59 c 44.04,0 83.949,17.897 112.88,46.827 l 353.55,353.55 C 528.221,633.038 488.311,615.14 444.27,615.14 z"
       inkscape:connector-curvature="0"
       id="path73" />
    <path
       d="m 203.6,308.42 c 29.02,29.02 46.996,69.15 46.996,113.45 l 353.55,353.55 c 0,-44.3 -17.972,-84.43 -46.996,-113.45 z"
       inkscape:connector-curvature="0"
       id="path75" />
    <path
       d="M 250.59,421.88 H 319.9 L 673.45,775.43 H 604.14 z"
       inkscape:connector-curvature="0"
       id="path77" />
    <path
       d="m 319.91,421.88 c 0,-63.36 -25.709,-120.7 -67.22,-162.21 l 353.55,353.55 c 41.507,41.507 67.22,98.86 67.22,162.21 z"
       inkscape:connector-curvature="0"
       id="path79" />
    <path
       d="M 252.69,259.66 C 211.19,218.16 153.9,192.5 90.72,192.5 l 353.55,353.55 c 63.18,0 120.47,25.664 161.97,67.16 z"
       inkscape:connector-curvature="0"
       id="path81" />
    <path
       d="m 120.78,319.03 c -5.553,-0.016 -20.247,46.5 -24.75,49.75 l 353.55,353.55 c 4.503,-3.252 19.2,-49.766 24.75,-49.75 z"
       inkscape:connector-curvature="0"
       id="path83" />
    <path
       d="m 96.03,368.78 c -4.504,3.252 -53.24,2.535 -54.969,7.813 l 353.55,353.55 c 1.731,-5.278 50.46,-4.56 54.969,-7.813 z"
       inkscape:connector-curvature="0"
       id="path85" />
    <path
       d="m 41.06,376.59 c -0.425,1.293 1.639,3.97 5.02,7.352 l 353.55,353.55 c -3.382,-3.382 -5.446,-6.06 -5.02,-7.352 z"
       inkscape:connector-curvature="0"
       id="path87" />
    <path
       d="m 46.08,383.95 c 8.934,8.934 27.07,22.791 32.867,29.08 l 353.55,353.55 c -5.796,-6.284 -23.933,-20.14 -32.867,-29.08 z"
       inkscape:connector-curvature="0"
       id="path89" />
    <path
       d="m 78.951,413.02 c 0.963,1.044 1.585,1.879 1.768,2.448 l 353.55,353.55 c -0.183,-0.569 -0.805,-1.404 -1.768,-2.448 z"
       inkscape:connector-curvature="0"
       id="path91" />
    <path
       d="m 80.72,415.47 c 1.685,5.237 -13.714,50.553 -9.656,54.612 l 353.55,353.55 c -4.058,-4.058 11.34,-49.38 9.656,-54.612 z"
       inkscape:connector-curvature="0"
       id="path93" />
    <path
       d="m 71.06,470.08 c 0.04,0.04 0.081,0.075 0.124,0.107 l 353.55,353.55 c -0.043,-0.032 -0.085,-0.067 -0.124,-0.107 z"
       inkscape:connector-curvature="0"
       id="path95" />
    <path
       d="m 71.19,470.19 c 4.484,3.276 43.664,-25.703 49.22,-25.688 l 353.55,353.55 c -5.555,-0.016 -44.735,28.964 -49.22,25.688 z"
       inkscape:connector-curvature="0"
       id="path97" />
    <path
       d="m 120.41,444.5 c 5.554,0.016 44.591,29.22 49.09,25.969 l 353.55,353.55 c -4.503,3.252 -43.539,-25.953 -49.09,-25.969 z"
       inkscape:connector-curvature="0"
       id="path99" />
    <path
       d="m 169.5,470.47 c 4.504,-3.253 -10.95,-49.47 -9.219,-54.75 l 353.55,353.55 c -1.731,5.278 13.723,51.5 9.219,54.75 z"
       inkscape:connector-curvature="0"
       id="path101" />
    <path
       d="m 160.28,415.72 c 1.729,-5.28 41.577,-33.368 39.875,-38.656 l 353.55,353.55 c 1.702,5.288 -38.15,33.376 -39.875,38.656 z"
       inkscape:connector-curvature="0"
       id="path103" />
    <path
       d="m 200.16,377.06 c -0.06,-0.186 -0.178,-0.365 -0.35,-0.537 l 353.55,353.55 c 0.172,0.172 0.29,0.351 0.35,0.537 z"
       inkscape:connector-curvature="0"
       id="path105" />
    <path
       d="m 199.81,376.53 c -4.726,-4.726 -50.26,-4.457 -54.59,-7.619 l 353.55,353.55 c 4.327,3.162 49.861,2.893 54.59,7.619 z"
       inkscape:connector-curvature="0"
       id="path107" />
    <path
       d="m 145.22,368.91 c -0.083,-0.06 -0.168,-0.135 -0.258,-0.225 l 353.55,353.55 c 0.089,0.089 0.175,0.164 0.258,0.225 z"
       inkscape:connector-curvature="0"
       id="path109" />
    <path
       d="m 144.96,368.68 c -4.375,-4.375 -16.568,-42.764 -22.73,-48.842 l 353.55,353.55 c 6.162,6.077 18.354,44.47 22.73,48.842 z"
       inkscape:connector-curvature="0"
       id="path111" />
    <path
       d="m 122.23,319.84 c -0.531,-0.524 -1.017,-0.808 -1.45,-0.809 l 353.55,353.55 c 0.433,10e-4 0.919,0.285 1.45,0.809 z"
       inkscape:connector-curvature="0"
       id="path113" />
  </g>
  <path
     d="m 90.88,41.28 v 76.38 c 167.51,0 303.53,136.25 303.53,304.09 H 471 C 471,211.66 300.57,41.28 90.88,41.28 M 90.724,192.5 v 69.09 c 88.22,0 159.88,71.826 159.88,160.28 h 69.31 c 0,-126.7 -102.82,-229.37 -229.19,-229.37 m 30.06,126.53 c -5.553,-0.016 -20.247,46.5 -24.75,49.75 -4.504,3.252 -53.24,2.535 -54.969,7.813 -1.733,5.276 37.955,33.587 39.656,38.875 1.701,5.288 -14.02,51.44 -9.531,54.719 4.484,3.276 43.664,-25.703 49.22,-25.688 5.554,0.016 44.591,29.22 49.09,25.969 4.504,-3.253 -10.95,-49.47 -9.219,-54.75 1.729,-5.28 41.577,-33.368 39.875,-38.656 -1.701,-5.288 -50.45,-4.879 -54.938,-8.156 -4.483,-3.277 -18.883,-49.859 -24.438,-49.875"
     inkscape:connector-curvature="0"
     id="path115"
     style="fill:#ffffff" />
</svg>
