<?xml version="1.0" encoding="UTF-8" standalone="no"?>
<!-- Created with Inkscape (http://www.inkscape.org/) -->

<svg
   xmlns:dc="http://purl.org/dc/elements/1.1/"
   xmlns:cc="http://creativecommons.org/ns#"
   xmlns:rdf="http://www.w3.org/1999/02/22-rdf-syntax-ns#"
   xmlns:svg="http://www.w3.org/2000/svg"
   xmlns="http://www.w3.org/2000/svg"
   xmlns:inkscape="http://www.inkscape.org/namespaces/inkscape"
   version="1.1"
   width="100%"
   height="100%"
   viewBox="0 0 512 512"
   id="svg2">
  <metadata
     id="metadata79">
    <rdf:RDF>
      <cc:Work
         rdf:about="">
        <dc:format>image/svg+xml</dc:format>
        <dc:type
           rdf:resource="http://purl.org/dc/dcmitype/StillImage" />
      </cc:Work>
    </rdf:RDF>
  </metadata>
  <defs
     id="defs4">
    <clipPath
       id="0">
      <path
         d="M 26,0 C 11.603,0 0,11.603 0,26 v 460 c 0,14.397 11.603,26 26,26 h 460 c 14.397,0 26,-11.603 26,-26 V 26 C 512,11.603 500.397,0 486,0 H 26"
         inkscape:connector-curvature="0"
         id="path7" />
    </clipPath>
  </defs>
  <path
     d="M 26,0 C 11.603,0 0,11.603 0,26 v 460 c 0,14.397 11.603,26 26,26 h 460 c 14.397,0 26,-11.603 26,-26 V 26 C 512,11.603 500.397,0 486,0 H 26"
     inkscape:connector-curvature="0"
     id="path9"
     style="fill:#666666" />
  <text
     x="-363.95999"
     y="195.89"
     id="text11"
     style="font-size:129.22999573px;line-height:125%;letter-spacing:0;word-spacing:0;font-family:Gentium Book Basic">
    <tspan
       x="-363.95999"
       y="195.89"
       id="tspan13" />
  </text>
  <text
     x="106.38"
     y="436.92001"
     transform="scale(4.0128,0.2492)"
     id="text15"
     style="font-size:46.95399857px;text-anchor:middle;font-family:Arial" />
  <text
     x="217.31"
     y="115.89"
     id="text17"
     style="font-size:129.22999573px;line-height:125%;letter-spacing:0;word-spacing:0;font-family:Gentium Book Basic">
    <tspan
       x="217.31"
       y="115.89"
       id="tspan19" />
  </text>
  <text
     x="251.23"
     y="115.88"
     transform="scale(4.0128,0.2492)"
     id="text21"
     style="font-size:46.95399857px;text-anchor:middle;font-family:Arial" />
  <text
     x="-854.27002"
     y="-65.370003"
     id="text23"
     style="font-size:129.22999573px;line-height:125%;letter-spacing:0;word-spacing:0;font-family:Gentium Book Basic">
    <tspan
       x="-854.27002"
       y="-65.370003"
       id="tspan25" />
  </text>
  <text
     x="-15.807"
     y="-611.46997"
     transform="scale(4.0128,0.2492)"
     id="text27"
     style="font-size:46.95399857px;text-anchor:middle;font-family:Arial" />
  <text
     x="243.78"
     y="-281.84"
     id="text29"
     style="font-size:129.22999573px;line-height:125%;letter-spacing:0;word-spacing:0;font-family:Gentium Book Basic">
    <tspan
       x="243.78"
       y="-281.84"
       id="tspan31" />
  </text>
  <text
     x="257.82999"
     y="-1480.14"
     transform="scale(4.0128,0.2492)"
     id="text33"
     style="font-size:46.95399857px;text-anchor:middle;font-family:Arial" />
  <text
     x="825.04999"
     y="-361.84"
     id="text35"
     style="font-size:129.22999573px;line-height:125%;letter-spacing:0;word-spacing:0;font-family:Gentium Book Basic">
    <tspan
       x="825.04999"
       y="-361.84"
       id="tspan37" />
  </text>
  <text
     x="402.67999"
     y="-1801.17"
     transform="scale(4.0128,0.2492)"
     id="text39"
     style="font-size:46.95399857px;text-anchor:middle;font-family:Arial" />
  <text
     x="435.92999"
     y="-834.23999"
     id="text41"
     style="font-size:129.22999573px;line-height:125%;letter-spacing:0;word-spacing:0;font-family:Gentium Book Basic">
    <tspan
       x="435.92999"
       y="-834.23999"
       id="tspan43" />
  </text>
  <text
     x="305.70999"
     y="-3696.8201"
     transform="scale(4.0128,0.2492)"
     id="text45"
     style="font-size:46.95399857px;text-anchor:middle;font-family:Arial" />
  <text
     x="1017.19"
     y="-914.25"
     id="text47"
     style="font-size:129.22999573px;line-height:125%;letter-spacing:0;word-spacing:0;font-family:Gentium Book Basic">
    <tspan
       x="1017.19"
       y="-914.25"
       id="tspan49" />
  </text>
  <text
     x="450.56"
     y="-4017.8601"
     transform="scale(4.0128,0.2492)"
     id="text51"
     style="font-size:46.95399857px;text-anchor:middle;font-family:Arial" />
  <text
     x="-815.60999"
     y="500.47"
     id="text53"
     style="font-size:208.33000183px;line-height:125%;letter-spacing:0;word-spacing:0;font-family:Gentium Book Basic">
    <tspan
       x="-815.60999"
       y="500.47"
       id="tspan55" />
  </text>
  <g
     clip-path="url(#0)"
     id="g57"
     style="opacity:0.25">
    <path
       d="m 443.85,464.8 c -30.604,24.05 -175.5,-28.612 -211.53,-43.21 l 353.55,353.55 c 36.03,14.595 180.93,67.25 211.53,43.21 z"
       inkscape:connector-curvature="0"
       id="path59" />
    <path
       d="M 232.32,421.59 C 202.484,409.5 100.87,364.22 63.71,327.06 l 353.55,353.55 c 37.16,37.16 138.77,82.45 168.61,94.53 z"
       inkscape:connector-curvature="0"
       id="path61" />
    <path
       d="M 63.714,327.06 C 55.993,319.339 51.055,311.97 50.122,305.322 l 353.55,353.55 c 0.933,6.648 5.871,14.02 13.592,21.738 z"
       inkscape:connector-curvature="0"
       id="path63" />
    <path
       d="M 50.12,305.32 C 44.686,266.679 162.54,166.97 193.14,142.92 l 353.55,353.55 c -30.604,24.05 -148.46,123.76 -143.02,162.4 z"
       inkscape:connector-curvature="0"
       id="path65" />
    <path
       d="M 193.14,142.93 C 223.744,118.88 348.46,27.99 384.49,42.58 l 353.55,353.55 c -36.03,-14.593 -160.75,76.3 -191.35,100.35 z"
       inkscape:connector-curvature="0"
       id="path67" />
    <path
       d="m 384.5,42.577 c 2.811,1.138 5.567,3.115 8.262,5.81 l 353.55,353.55 c -2.695,-2.695 -5.451,-4.672 -8.262,-5.81 z"
       inkscape:connector-curvature="0"
       id="path69" />
    <path
       d="m 392.76,48.39 c 31.862,31.862 55.25,164.17 60.25,199.79 l 353.55,353.55 c -5,-35.626 -28.387,-167.93 -60.25,-199.79 z"
       inkscape:connector-curvature="0"
       id="path71" />
    <path
       d="m 453.01,248.18 c 5.434,38.641 21.449,192.57 -9.153,216.62 l 353.55,353.55 c 30.602,-24.05 14.587,-177.98 9.153,-216.62 z"
       inkscape:connector-curvature="0"
       id="path73" />
  </g>
  <path
     d="M 443.85,464.8 C 413.246,488.85 268.35,436.188 232.32,421.59 196.28,406.994 55.55,343.96 50.12,305.32 44.686,266.679 162.54,166.97 193.14,142.92 223.744,118.87 348.46,27.98 384.49,42.57 c 36.04,14.596 63.08,166.96 68.51,205.6 5.434,38.641 21.449,192.57 -9.153,216.62"
     inkscape:connector-curvature="0"
     id="path75"
     style="fill:#ffffff" />
</svg>
