<?xml version="1.0" encoding="UTF-8" standalone="no"?>
<!-- Created with Inkscape (http://www.inkscape.org/) -->

<svg
   xmlns:dc="http://purl.org/dc/elements/1.1/"
   xmlns:cc="http://creativecommons.org/ns#"
   xmlns:rdf="http://www.w3.org/1999/02/22-rdf-syntax-ns#"
   xmlns:svg="http://www.w3.org/2000/svg"
   xmlns="http://www.w3.org/2000/svg"
   xmlns:inkscape="http://www.inkscape.org/namespaces/inkscape"
   version="1.1"
   width="100%"
   height="100%"
   viewBox="0 0 512 512"
   id="svg2">
  <metadata
     id="metadata10">
    <rdf:RDF>
      <cc:Work
         rdf:about="">
        <dc:format>image/svg+xml</dc:format>
        <dc:type
           rdf:resource="http://purl.org/dc/dcmitype/StillImage" />
        <dc:title />
      </cc:Work>
    </rdf:RDF>
  </metadata>
  <defs
     id="defs8">
    <clipPath
       id="clipPath3277">
      <path
         d="M 26,0 C 11.602648,0 0,11.602648 0,26 l 0,460 c 0,14.39735 11.602648,26 26,26 l 460,0 c 14.39735,0 26,-11.60265 26,-26 L 512,26 C 512,11.602648 500.39735,0 486,0 L 26,0 z"
         inkscape:connector-curvature="0"
         id="path3279"
         style="fill:#666666;fill-opacity:1;stroke:none" />
    </clipPath>
  </defs>
  <path
     d="M 26,0 C 11.602648,0 0,11.602648 0,26 l 0,460 c 0,14.39735 11.602648,26 26,26 l 460,0 c 14.39735,0 26,-11.60265 26,-26 L 512,26 C 512,11.602648 500.39735,0 486,0 L 26,0 z"
     inkscape:connector-curvature="0"
     id="rect2986"
     style="fill:#666666;fill-opacity:1;stroke:none" />
  <text
     x="-93.962997"
     y="171.34315"
     id="text20"
     style="font-size:129.22999573px;line-height:125%;letter-spacing:0;word-spacing:0;font-family:Gentium Book Basic">
    <tspan
       x="-93.962997"
       y="171.34315"
       id="tspan22" />
  </text>
  <text
     x="173.66513"
     y="338.42145"
     transform="scale(4.0128205,0.24920128)"
     id="text24"
     style="font-size:46.95375824px;text-anchor:middle;font-family:Arial" />
  <text
     x="487.30704"
     y="91.343163"
     id="text26"
     style="font-size:129.22999573px;line-height:125%;letter-spacing:0;word-spacing:0;font-family:Gentium Book Basic">
    <tspan
       x="487.30704"
       y="91.343163"
       id="tspan28" />
  </text>
  <text
     x="318.5144"
     y="17.383291"
     transform="scale(4.0128205,0.24920128)"
     id="text30"
     style="font-size:46.95375824px;text-anchor:middle;font-family:Arial" />
  <text
     x="-584.27301"
     y="-89.916817"
     id="text32"
     style="font-size:129.22999573px;line-height:125%;letter-spacing:0;word-spacing:0;font-family:Gentium Book Basic">
    <tspan
       x="-584.27301"
       y="-89.916817"
       id="tspan34" />
  </text>
  <text
     x="51.475765"
     y="-709.96307"
     transform="scale(4.0128205,0.24920128)"
     id="text36"
     style="font-size:46.95375824px;text-anchor:middle;font-family:Arial" />
  <text
     x="513.77698"
     y="-306.38681"
     id="text38"
     style="font-size:129.22999573px;line-height:125%;letter-spacing:0;word-spacing:0;font-family:Gentium Book Basic">
    <tspan
       x="513.77698"
       y="-306.38681"
       id="tspan40" />
  </text>
  <text
     x="325.11438"
     y="-1578.6387"
     transform="scale(4.0128205,0.24920128)"
     id="text42"
     style="font-size:46.95375824px;text-anchor:middle;font-family:Arial" />
  <text
     x="1095.047"
     y="-386.38681"
     id="text44"
     style="font-size:129.22999573px;line-height:125%;letter-spacing:0;word-spacing:0;font-family:Gentium Book Basic">
    <tspan
       x="1095.047"
       y="-386.38681"
       id="tspan46" />
  </text>
  <text
     x="469.96362"
     y="-1899.667"
     transform="scale(4.0128205,0.24920128)"
     id="text48"
     style="font-size:46.95375824px;text-anchor:middle;font-family:Arial" />
  <text
     x="705.927"
     y="-858.7868"
     id="text50"
     style="font-size:129.22999573px;line-height:125%;letter-spacing:0;word-spacing:0;font-family:Gentium Book Basic">
    <tspan
       x="705.927"
       y="-858.7868"
       id="tspan52" />
  </text>
  <text
     x="372.99408"
     y="-3795.3174"
     transform="scale(4.0128205,0.24920128)"
     id="text54"
     style="font-size:46.95375824px;text-anchor:middle;font-family:Arial" />
  <text
     x="1287.187"
     y="-938.79681"
     id="text56"
     style="font-size:129.22999573px;line-height:125%;letter-spacing:0;word-spacing:0;font-family:Gentium Book Basic">
    <tspan
       x="1287.187"
       y="-938.79681"
       id="tspan58" />
  </text>
  <text
     x="517.84338"
     y="-4116.356"
     transform="scale(4.0128205,0.24920128)"
     id="text60"
     style="font-size:46.95375824px;text-anchor:middle;font-family:Arial" />
  <text
     x="-545.61304"
     y="475.92325"
     id="text62"
     style="font-size:208.33000183px;line-height:125%;letter-spacing:0;word-spacing:0;font-family:Gentium Book Basic">
    <tspan
       x="-545.61304"
       y="475.92325"
       id="tspan64" />
  </text>
  <g
     clip-path="url(#clipPath3277)"
     id="g3173"
     style="opacity:0.25;fill:#000000;fill-opacity:1;stroke:none">
    <path
       d="M 92.6455,108.71363 C 64.02869,108.71363 41,174.43189 41,256.02843 l 388.90873,388.90873 c 0,-81.59654 23.02869,-147.3148 51.6455,-147.3148 z"
       inkscape:connector-curvature="0"
       id="path3176"
       style="fill:#000000" />
    <path
       d="m 41,256.02843 c 0,64.38798 14.339534,118.85341 34.449024,138.9629 L 464.35775,783.90006 c -20.10949,-20.10949 -34.44902,-74.57492 -34.44902,-138.9629 z"
       inkscape:connector-curvature="0"
       id="path3178"
       style="fill:#000000" />
    <path
       d="m 75.449024,394.99133 c 5.374544,5.37454 11.161235,8.29504 17.196476,8.29504 L 481.55423,792.1951 c -6.03524,0 -11.82193,-2.9205 -17.19648,-8.29504 z"
       inkscape:connector-curvature="0"
       id="path3180"
       style="fill:#000000" />
    <path
       d="m 92.6455,403.28637 326.709,0 388.90873,388.90873 -326.709,0 z"
       inkscape:connector-curvature="0"
       id="path3182"
       style="fill:#000000" />
    <path
       d="M 419.3545,403.28637 C 447.97147,403.28637 471,337.625 471,256.02843 l 388.90873,388.90873 c 0,81.59657 -23.02853,147.25794 -51.6455,147.25794 z"
       inkscape:connector-curvature="0"
       id="path3184"
       style="fill:#000000" />
    <path
       d="m 471,256.02843 c 0,-64.39991 -14.34476,-118.90904 -34.46016,-139.02444 l 388.90873,388.90873 c 20.1154,20.1154 34.46016,74.62453 34.46016,139.02444 z"
       inkscape:connector-curvature="0"
       id="path3186"
       style="fill:#000000" />
    <path
       d="m 436.53984,117.00399 c -5.37139,-5.37139 -11.15426,-8.29036 -17.18534,-8.29036 l 388.90873,388.90873 c 6.03108,0 11.81395,2.91897 17.18534,8.29036 z"
       inkscape:connector-curvature="0"
       id="path3188"
       style="fill:#000000" />
    <path
       d="m 419.3545,108.71363 -326.709,0 388.90873,388.90873 326.709,0 z"
       inkscape:connector-curvature="0"
       id="path3190"
       style="fill:#000000" />
    <path
       d="m 208.33599,164.34061 c 46.96509,30.07441 93.67226,60.71634 140.71692,90.66401 l 388.90873,388.90873 c -47.04466,-29.94767 -93.75183,-60.5896 -140.71692,-90.66401 z"
       inkscape:connector-curvature="0"
       id="path3192"
       style="fill:#000000" />
    <path
       d="m 349.05291,255.00462 c -46.86355,30.89314 -93.78678,62.00276 -140.71692,92.71165 L 597.24472,736.625 c 46.93014,-30.70889 93.85337,-61.81851 140.71692,-92.71165 z"
       inkscape:connector-curvature="0"
       id="path3194"
       style="fill:#000000" />
    <path
       d="m 208.33599,347.71627 0,-183.37566 388.90873,388.90873 0,183.37566 z"
       inkscape:connector-curvature="0"
       id="path3196"
       style="fill:#000000" />
  </g>
  <path
     d="M 92.6455,108.71363 C 64.02869,108.71363 41,174.43189 41,256.02843 41,337.625 64.02869,403.28637 92.6455,403.28637 l 326.709,0 c 28.61697,0 51.6455,-65.66137 51.6455,-147.25794 0,-81.59654 -23.02853,-147.3148 -51.6455,-147.3148 l -326.709,0 z m 115.69049,55.62698 c 46.96509,30.07441 93.67226,60.71634 140.71692,90.66401 -46.86355,30.89314 -93.78678,62.00276 -140.71692,92.71165 l 0,-183.37566 z"
     inkscape:connector-curvature="0"
     id="path3132"
     style="fill:#ffffff;fill-opacity:1;stroke:none" />
</svg>
