<?xml version="1.0" encoding="UTF-8" standalone="no"?>
<!-- Created with Inkscape (http://www.inkscape.org/) -->

<svg
   xmlns:dc="http://purl.org/dc/elements/1.1/"
   xmlns:cc="http://creativecommons.org/ns#"
   xmlns:rdf="http://www.w3.org/1999/02/22-rdf-syntax-ns#"
   xmlns:svg="http://www.w3.org/2000/svg"
   xmlns="http://www.w3.org/2000/svg"
   xmlns:inkscape="http://www.inkscape.org/namespaces/inkscape"
   version="1.1"
   width="100%"
   height="100%"
   viewBox="0 0 512 512"
   id="svg2">
  <metadata
     id="metadata465">
    <rdf:RDF>
      <cc:Work
         rdf:about="">
        <dc:format>image/svg+xml</dc:format>
        <dc:type
           rdf:resource="http://purl.org/dc/dcmitype/StillImage" />
      </cc:Work>
    </rdf:RDF>
  </metadata>
  <defs
     id="defs4">
    <linearGradient
       y1="121.74"
       x2="0"
       y2="453.23999"
       id="0"
       gradientUnits="userSpaceOnUse">
      <stop
         id="stop7"
         style="stop-color:#6a6a6a;stop-opacity:1"
         offset="0" />
      <stop
         id="stop9"
         style="stop-color:#000000;stop-opacity:1"
         offset="0.47" />
      <stop
         id="stop11"
         style="stop-color:#ffffff;stop-opacity:1"
         offset="0.49399999" />
      <stop
         id="stop13"
         style="stop-color:#ffffff;stop-opacity:1"
         offset="0.90100002" />
      <stop
         id="stop15"
         style="stop-color:#000000;stop-opacity:1"
         offset="0.95499998" />
      <stop
         id="stop17"
         style="stop-color:#000000;stop-opacity:1"
         offset="1" />
    </linearGradient>
  </defs>
  <text
     x="729.64001"
     y="233.72"
     id="text19"
     style="font-size:129.22999573px;line-height:125%;letter-spacing:0;word-spacing:0;font-family:Gentium Book Basic">
    <tspan
       x="729.64001"
       y="233.72"
       id="tspan21" />
  </text>
  <text
     x="378.91"
     y="588.72998"
     transform="scale(4.0128,0.2492)"
     id="text23"
     style="font-size:46.95399857px;text-anchor:middle;font-family:Arial" />
  <text
     x="1310.91"
     y="153.72"
     id="text25"
     style="font-size:129.22999573px;line-height:125%;letter-spacing:0;word-spacing:0;font-family:Gentium Book Basic">
    <tspan
       x="1310.91"
       y="153.72"
       id="tspan27" />
  </text>
  <text
     x="523.76001"
     y="267.69"
     transform="scale(4.0128,0.2492)"
     id="text29"
     style="font-size:46.95399857px;text-anchor:middle;font-family:Arial" />
  <text
     x="239.33"
     y="-27.540001"
     id="text31"
     style="font-size:129.22999573px;line-height:125%;letter-spacing:0;word-spacing:0;font-family:Gentium Book Basic">
    <tspan
       x="239.33"
       y="-27.540001"
       id="tspan33" />
  </text>
  <text
     x="256.72"
     y="-459.66"
     transform="scale(4.0128,0.2492)"
     id="text35"
     style="font-size:46.95399857px;text-anchor:middle;font-family:Arial" />
  <text
     x="1337.38"
     y="-244.00999"
     id="text37"
     style="font-size:129.22999573px;line-height:125%;letter-spacing:0;word-spacing:0;font-family:Gentium Book Basic">
    <tspan
       x="1337.38"
       y="-244.00999"
       id="tspan39" />
  </text>
  <text
     x="530.35999"
     y="-1328.33"
     transform="scale(4.0128,0.2492)"
     id="text41"
     style="font-size:46.95399857px;text-anchor:middle;font-family:Arial" />
  <text
     x="1918.65"
     y="-324.01999"
     id="text43"
     style="font-size:129.22999573px;line-height:125%;letter-spacing:0;word-spacing:0;font-family:Gentium Book Basic">
    <tspan
       x="1918.65"
       y="-324.01999"
       id="tspan45" />
  </text>
  <text
     x="675.21002"
     y="-1649.36"
     transform="scale(4.0128,0.2492)"
     id="text47"
     style="font-size:46.95399857px;text-anchor:middle;font-family:Arial" />
  <text
     x="1529.53"
     y="-796.41998"
     id="text49"
     style="font-size:129.22999573px;line-height:125%;letter-spacing:0;word-spacing:0;font-family:Gentium Book Basic">
    <tspan
       x="1529.53"
       y="-796.41998"
       id="tspan51" />
  </text>
  <text
     x="578.23999"
     y="-3545.01"
     transform="scale(4.0128,0.2492)"
     id="text53"
     style="font-size:46.95399857px;text-anchor:middle;font-family:Arial" />
  <text
     x="2110.8"
     y="-876.41998"
     id="text55"
     style="font-size:129.22999573px;line-height:125%;letter-spacing:0;word-spacing:0;font-family:Gentium Book Basic">
    <tspan
       x="2110.8"
       y="-876.41998"
       id="tspan57" />
  </text>
  <text
     x="723.09003"
     y="-3866.05"
     transform="scale(4.0128,0.2492)"
     id="text59"
     style="font-size:46.95399857px;text-anchor:middle;font-family:Arial" />
  <g
     transform="translate(0,-0.02)"
     id="g61"
     style="line-height:125%;letter-spacing:0;word-spacing:0;font-family:Gentium Book Basic">
    <text
       x="277.98999"
       y="538.32001"
       id="text63"
       style="font-size:208.33000183px">
      <tspan
         x="277.98999"
         y="538.32001"
         id="tspan65" />
    </text>
    <text
       x="3833.78"
       y="-509.14001"
       id="text67"
       style="font-size:129.22999573px">
      <tspan
         x="3833.78"
         y="-509.14001"
         id="tspan69" />
    </text>
  </g>
  <text
     x="1152.45"
     y="-2392.3"
     transform="scale(4.0128,0.2492)"
     id="text71"
     style="font-size:46.95399857px;text-anchor:middle;font-family:Arial" />
  <text
     x="4415.0498"
     y="-589.15997"
     id="text73"
     style="font-size:129.22999573px;line-height:125%;letter-spacing:0;word-spacing:0;font-family:Gentium Book Basic">
    <tspan
       x="4415.0498"
       y="-589.15997"
       id="tspan75" />
  </text>
  <text
     x="1297.3"
     y="-2713.3201"
     transform="scale(4.0128,0.2492)"
     id="text77"
     style="font-size:46.95399857px;text-anchor:middle;font-family:Arial" />
  <text
     x="3343.47"
     y="-770.40997"
     id="text79"
     style="font-size:129.22999573px;line-height:125%;letter-spacing:0;word-spacing:0;font-family:Gentium Book Basic">
    <tspan
       x="3343.47"
       y="-770.40997"
       id="tspan81" />
  </text>
  <text
     x="1030.26"
     y="-3440.6799"
     transform="scale(4.0128,0.2492)"
     id="text83"
     style="font-size:46.95399857px;text-anchor:middle;font-family:Arial" />
  <text
     x="4441.52"
     y="-986.89001"
     id="text85"
     style="font-size:129.22999573px;line-height:125%;letter-spacing:0;word-spacing:0;font-family:Gentium Book Basic">
    <tspan
       x="4441.52"
       y="-986.89001"
       id="tspan87" />
  </text>
  <text
     x="1303.9"
     y="-4309.3501"
     transform="scale(4.0128,0.2492)"
     id="text89"
     style="font-size:46.95399857px;text-anchor:middle;font-family:Arial" />
  <text
     x="5022.79"
     y="-1066.89"
     id="text91"
     style="font-size:129.22999573px;line-height:125%;letter-spacing:0;word-spacing:0;font-family:Gentium Book Basic">
    <tspan
       x="5022.79"
       y="-1066.89"
       id="tspan93" />
  </text>
  <text
     x="1448.75"
     y="-4630.3701"
     transform="scale(4.0128,0.2492)"
     id="text95"
     style="font-size:46.95399857px;text-anchor:middle;font-family:Arial" />
  <text
     x="4633.6699"
     y="-1539.29"
     id="text97"
     style="font-size:129.22999573px;line-height:125%;letter-spacing:0;word-spacing:0;font-family:Gentium Book Basic">
    <tspan
       x="4633.6699"
       y="-1539.29"
       id="tspan99" />
  </text>
  <text
     x="1351.78"
     y="-6526.04"
     transform="scale(4.0128,0.2492)"
     id="text101"
     style="font-size:46.95399857px;text-anchor:middle;font-family:Arial" />
  <text
     x="5214.9302"
     y="-1619.29"
     id="text103"
     style="font-size:129.22999573px;line-height:125%;letter-spacing:0;word-spacing:0;font-family:Gentium Book Basic">
    <tspan
       x="5214.9302"
       y="-1619.29"
       id="tspan105" />
  </text>
  <text
     x="1496.63"
     y="-6847.0601"
     transform="scale(4.0128,0.2492)"
     id="text107"
     style="font-size:46.95399857px;text-anchor:middle;font-family:Arial" />
  <text
     x="3382.1299"
     y="-204.58"
     id="text109"
     style="font-size:208.33000183px;line-height:125%;letter-spacing:0;word-spacing:0;font-family:Gentium Book Basic">
    <tspan
       x="3382.1299"
       y="-204.58"
       id="tspan111" />
  </text>
  <g
     id="g113"
     style="fill-rule:evenodd">
    <path
       d="m 108.63,57.37 c -7.963,0 -15.228,2.293 -20.693,6.22 -4.545,3.266 -7.751,7.872 -8.752,13.13 H 67.276 c -16.447,0 -29.883,13.03 -29.883,29.2 v 66.736 c 0,16.17 13.436,29.19 29.883,29.19 h 377.47 c 16.447,0 29.883,-13.03 29.883,-29.19 V 105.92 c 0,-16.17 -13.436,-29.2 -29.883,-29.2 h -262.91 c -1,-5.256 -4.208,-9.862 -8.753,-13.13 -5.465,-3.927 -12.73,-6.22 -20.693,-6.22 h -43.761"
       inkscape:connector-curvature="0"
       id="path115"
       style="fill:#cccccc" />
    <path
       d="m 37.36,118.46 c -19.928,0 -38.06,15.818 -36.23,35.853 l 24.26,265.41 c 1.733,18.966 16.271,34.947 36.2,34.947 H 445 c 19.933,0 34.1,-16.05 36.2,-34.853 l 29.632,-265.41 c 1.123,-10.05 -3.137,-19.263 -9.971,-25.663 -6.833,-6.399 -16.258,-10.284 -26.22,-10.284 H 37.371"
       inkscape:connector-curvature="0"
       id="path117"
       style="fill:#6997c7" />
  </g>
  <path
     d="m 37.36,118.45 c -19.928,0 -38.08,15.84 -36.25,35.875 l 11.781,128.78 12.469,136.63 c 1.733,18.966 16.29,34.938 36.22,34.938 h 383.41 c 19.933,0 34.09,-16.04 36.19,-34.844 l 15.281,-136.72 14.375,-128.69 c 1.123,-10.05 -3.135,-19.287 -9.969,-25.688 -6.833,-6.399 -16.257,-10.281 -26.22,-10.281 H 37.367"
     inkscape:connector-curvature="0"
     id="path119"
     style="opacity:0.05;fill:url(#0)" />
  <g
     id="g121"
     style="fill:#ffffff;fill-rule:evenodd">
    <path
       d="m 37.35,118.45 c -6.165,0 -12.154,1.503 -17.438,4.188 l 332.06,332.03 h 28.25 L 44.032,118.448 h -6.688 m 34.969,0 336.22,336.22 h 28.28 l -336.22,-336.22 h -28.28 m 56.59,0 332.25,332.28 c 5.997,-3.165 10.884,-8.06 14.375,-13.938 L 157.158,118.45 h -28.25 m 56.56,0 296.28,296.31 2.844,-25.469 -270.87,-270.84 h -28.25 m 56.56,0 245.41,245.44 2.844,-25.469 -220,-219.97 h -28.25 m 56.56,0 194.53,194.53 2.844,-25.438 -169.12,-169.09 H 298.6 m 56.56,0 143.63,143.63 2.844,-25.438 -118.19,-118.19 h -28.28 m 56.56,0 92.75,92.75 2.844,-25.438 -67.28,-67.31 h -28.313 m 56.59,0 41.844,41.844 0.656,-5.875 c 1.123,-10.05 -3.134,-19.288 -9.969,-25.688 -6.833,-6.399 -16.252,-10.281 -26.22,-10.281 h -6.313 M 5.253,136.239 c -3.108,5.286 -4.73,11.464 -4.125,18.09 l 0.625,6.719 293.66,293.63 h 28.25 L 5.253,136.238 m -0.656,55.906 2.844,31.13 231.41,231.41 h 28.25 L 4.601,192.154 m 5.688,62.25 2.844,31.13 169.16,169.16 h 28.25 L 10.293,254.414 m 5.688,62.28 2.844,31.13 106.88,106.88 h 28.28 l -138,-138 m 5.688,62.25 2.844,31.13 44.625,44.625 h 28.28 l -75.75,-75.75"
       inkscape:connector-curvature="0"
       id="path123"
       style="opacity:0" />
    <path
       d="m 108.55,57.29 c -7.963,0 -15.11,2.403 -20.572,6.33 -4.545,3.266 -7.702,7.931 -8.703,13.187 h -12.13 c -17.677,0 -29.802,12.771 -29.802,30.661 v 3.956 c 0,-16.17 13.355,-29.27 29.802,-29.27 h 14.286 c 1,-5.256 2,-9.657 6.549,-12.923 5.465,-3.927 12.609,-6.33 20.572,-6.33 h 43.78 c 7.963,0 15.371,2.403 20.835,6.33 4.545,3.266 5.766,7.668 6.769,12.923 h 264.88 c 16.447,0 29.802,11.455 29.802,27.625 v -3.956 c 0,-16.17 -13.355,-29.01 -29.802,-29.01 h -262.95 c -1,-5.256 -4.159,-9.921 -8.703,-13.187 -5.465,-3.927 -12.872,-6.33 -20.835,-6.33 z"
       inkscape:connector-curvature="0"
       id="path125"
       style="opacity:0.76399997" />
    <path
       d="m 37.35,118.45 c -19.928,0 -38.05,15.84 -36.22,35.875 l 0.406,4.375 c 3,-15.936 18.732,-27.563 35.813,-27.563 h 437.28 c 9.966,0 19.386,3.882 26.22,10.281 4.736,4.435 8.234,10.208 9.563,16.688 l 0.406,-3.688 c 1.123,-10.05 -3.134,-19.288 -9.969,-25.688 -6.833,-6.399 -16.252,-10.281 -26.22,-10.281 H 37.349"
       inkscape:connector-curvature="0"
       id="path127"
       style="opacity:0.4" />
  </g>
  <text
     x="90.120003"
     y="140.64"
     id="text129"
     style="font-size:129.22999573px;line-height:125%;letter-spacing:0;word-spacing:0;font-family:Gentium Book Basic">
    <tspan
       x="90.120003"
       y="140.64"
       id="tspan131" />
  </text>
  <text
     x="219.53999"
     y="215.21001"
     transform="scale(4.0128,0.2492)"
     id="text133"
     style="font-size:46.95399857px;text-anchor:middle;font-family:Arial" />
  <text
     x="671.39001"
     y="60.639999"
     id="text135"
     style="font-size:129.22999573px;line-height:125%;letter-spacing:0;word-spacing:0;font-family:Gentium Book Basic">
    <tspan
       x="671.39001"
       y="60.639999"
       id="tspan137" />
  </text>
  <text
     x="364.39001"
     y="-105.81"
     transform="scale(4.0128,0.2492)"
     id="text139"
     style="font-size:46.95399857px;text-anchor:middle;font-family:Arial" />
  <text
     x="-400.19"
     y="-120.62"
     id="text141"
     style="font-size:129.22999573px;line-height:125%;letter-spacing:0;word-spacing:0;font-family:Gentium Book Basic">
    <tspan
       x="-400.19"
       y="-120.62"
       id="tspan143" />
  </text>
  <text
     x="97.349998"
     y="-833.16998"
     transform="scale(4.0128,0.2492)"
     id="text145"
     style="font-size:46.95399857px;text-anchor:middle;font-family:Arial" />
  <text
     x="697.85999"
     y="-337.09"
     id="text147"
     style="font-size:129.22999573px;line-height:125%;letter-spacing:0;word-spacing:0;font-family:Gentium Book Basic">
    <tspan
       x="697.85999"
       y="-337.09"
       id="tspan149" />
  </text>
  <text
     x="370.98999"
     y="-1701.84"
     transform="scale(4.0128,0.2492)"
     id="text151"
     style="font-size:46.95399857px;text-anchor:middle;font-family:Arial" />
  <text
     x="1279.13"
     y="-417.10001"
     id="text153"
     style="font-size:129.22999573px;line-height:125%;letter-spacing:0;word-spacing:0;font-family:Gentium Book Basic">
    <tspan
       x="1279.13"
       y="-417.10001"
       id="tspan155" />
  </text>
  <text
     x="515.84003"
     y="-2022.87"
     transform="scale(4.0128,0.2492)"
     id="text157"
     style="font-size:46.95399857px;text-anchor:middle;font-family:Arial" />
  <text
     x="890.01001"
     y="-889.5"
     id="text159"
     style="font-size:129.22999573px;line-height:125%;letter-spacing:0;word-spacing:0;font-family:Gentium Book Basic">
    <tspan
       x="890.01001"
       y="-889.5"
       id="tspan161" />
  </text>
  <text
     x="418.87"
     y="-3918.53"
     transform="scale(4.0128,0.2492)"
     id="text163"
     style="font-size:46.95399857px;text-anchor:middle;font-family:Arial" />
  <text
     x="1471.27"
     y="-969.5"
     id="text165"
     style="font-size:129.22999573px;line-height:125%;letter-spacing:0;word-spacing:0;font-family:Gentium Book Basic">
    <tspan
       x="1471.27"
       y="-969.5"
       id="tspan167" />
  </text>
  <text
     x="563.71997"
     y="-4239.5498"
     transform="scale(4.0128,0.2492)"
     id="text169"
     style="font-size:46.95399857px;text-anchor:middle;font-family:Arial" />
  <g
     id="g171"
     style="font-size:208.33000183px;line-height:125%;letter-spacing:0;word-spacing:0;font-family:Gentium Book Basic">
    <text
       x="-361.53"
       y="445.22"
       id="text173">
      <tspan
         x="-361.53"
         y="445.22"
         id="tspan175" />
    </text>
    <text
       x="-2585.3601"
       y="426.26001"
       id="text177">
      <tspan
         x="-2585.3601"
         y="426.26001"
         id="tspan179" />
    </text>
  </g>
  <text
     x="-326.54999"
     y="1147.62"
     transform="scale(4.0128,0.2492)"
     id="text181"
     style="font-size:75.69999695px;text-anchor:middle;font-family:Arial" />
  <text
     x="-1879.02"
     y="270.63"
     id="text183"
     style="font-size:208.33000183px;line-height:125%;letter-spacing:0;word-spacing:0;font-family:Gentium Book Basic">
    <tspan
       x="-1879.02"
       y="270.63"
       id="tspan185" />
  </text>
  <text
     x="-150.53"
     y="523.09003"
     transform="scale(4.0128,0.2492)"
     id="text187"
     style="font-size:75.69999695px;text-anchor:middle;font-family:Arial" />
  <text
     x="-1845.65"
     y="262.51001"
     id="text189"
     style="font-size:208.33000183px;line-height:125%;letter-spacing:0;word-spacing:0;font-family:Gentium Book Basic">
    <tspan
       x="-1845.65"
       y="262.51001"
       id="tspan191" />
  </text>
  <text
     x="-142.21001"
     y="490.48999"
     transform="scale(4.0128,0.2492)"
     id="text193"
     style="font-size:75.69999695px;text-anchor:middle;font-family:Arial" />
  <text
     x="-695.22998"
     y="108.1"
     id="text195"
     style="font-size:129.22999573px;line-height:125%;letter-spacing:0;word-spacing:0;font-family:Gentium Book Basic">
    <tspan
       x="-695.22998"
       y="108.1"
       id="tspan197" />
  </text>
  <text
     x="23.830999"
     y="84.629997"
     transform="scale(4.0128,0.2492)"
     id="text199"
     style="font-size:46.95399857px;text-anchor:middle;font-family:Arial" />
  <text
     x="-113.97"
     y="28.1"
     id="text201"
     style="font-size:129.22999573px;line-height:125%;letter-spacing:0;word-spacing:0;font-family:Gentium Book Basic">
    <tspan
       x="-113.97"
       y="28.1"
       id="tspan203" />
  </text>
  <text
     x="168.67999"
     y="-236.39999"
     transform="scale(4.0128,0.2492)"
     id="text205"
     style="font-size:46.95399857px;text-anchor:middle;font-family:Arial" />
  <text
     x="-1185.55"
     y="-153.16"
     id="text207"
     style="font-size:129.22999573px;line-height:125%;letter-spacing:0;word-spacing:0;font-family:Gentium Book Basic">
    <tspan
       x="-1185.55"
       y="-153.16"
       id="tspan209" />
  </text>
  <text
     x="-98.360001"
     y="-963.73999"
     transform="scale(4.0128,0.2492)"
     id="text211"
     style="font-size:46.95399857px;text-anchor:middle;font-family:Arial" />
  <text
     x="-87.5"
     y="-369.63"
     id="text213"
     style="font-size:129.22999573px;line-height:125%;letter-spacing:0;word-spacing:0;font-family:Gentium Book Basic">
    <tspan
       x="-87.5"
       y="-369.63"
       id="tspan215" />
  </text>
  <text
     x="175.28"
     y="-1832.42"
     transform="scale(4.0128,0.2492)"
     id="text217"
     style="font-size:46.95399857px;text-anchor:middle;font-family:Arial" />
  <text
     x="493.76999"
     y="-449.63"
     id="text219"
     style="font-size:129.22999573px;line-height:125%;letter-spacing:0;word-spacing:0;font-family:Gentium Book Basic">
    <tspan
       x="493.76999"
       y="-449.63"
       id="tspan221" />
  </text>
  <text
     x="320.12"
     y="-2153.4399"
     transform="scale(4.0128,0.2492)"
     id="text223"
     style="font-size:46.95399857px;text-anchor:middle;font-family:Arial" />
  <text
     x="104.65"
     y="-922.03003"
     id="text225"
     style="font-size:129.22999573px;line-height:125%;letter-spacing:0;word-spacing:0;font-family:Gentium Book Basic">
    <tspan
       x="104.65"
       y="-922.03003"
       id="tspan227" />
  </text>
  <text
     x="223.16"
     y="-4049.0801"
     transform="scale(4.0128,0.2492)"
     id="text229"
     style="font-size:46.95399857px;text-anchor:middle;font-family:Arial" />
  <text
     x="685.90997"
     y="-1002.04"
     id="text231"
     style="font-size:129.22999573px;line-height:125%;letter-spacing:0;word-spacing:0;font-family:Gentium Book Basic">
    <tspan
       x="685.90997"
       y="-1002.04"
       id="tspan233" />
  </text>
  <text
     x="368"
     y="-4370.1201"
     transform="scale(4.0128,0.2492)"
     id="text235"
     style="font-size:46.95399857px;text-anchor:middle;font-family:Arial" />
  <g
     id="g237"
     style="line-height:125%;letter-spacing:0;word-spacing:0;font-family:Gentium Book Basic">
    <text
       x="-1146.89"
       y="412.67999"
       id="text239"
       style="font-size:208.33000183px">
      <tspan
         x="-1146.89"
         y="412.67999"
         id="tspan241" />
    </text>
    <text
       x="-745.67999"
       y="-630.90997"
       id="text243"
       style="font-size:129.22999573px">
      <tspan
         x="-745.67999"
         y="-630.90997"
         id="tspan245" />
    </text>
  </g>
  <text
     x="11.261"
     y="-2880.8701"
     transform="scale(4.0128,0.2492)"
     id="text247"
     style="font-size:46.95399857px;text-anchor:middle;font-family:Arial" />
  <text
     x="-164.41"
     y="-710.90997"
     id="text249"
     style="font-size:129.22999573px;line-height:125%;letter-spacing:0;word-spacing:0;font-family:Gentium Book Basic">
    <tspan
       x="-164.41"
       y="-710.90997"
       id="tspan251" />
  </text>
  <text
     x="156.11"
     y="-3201.8999"
     transform="scale(4.0128,0.2492)"
     id="text253"
     style="font-size:46.95399857px;text-anchor:middle;font-family:Arial" />
  <text
     x="-1235.99"
     y="-892.16998"
     id="text255"
     style="font-size:129.22999573px;line-height:125%;letter-spacing:0;word-spacing:0;font-family:Gentium Book Basic">
    <tspan
       x="-1235.99"
       y="-892.16998"
       id="tspan257" />
  </text>
  <text
     x="-110.93"
     y="-3929.26"
     transform="scale(4.0128,0.2492)"
     id="text259"
     style="font-size:46.95399857px;text-anchor:middle;font-family:Arial" />
  <text
     x="-137.94"
     y="-1108.64"
     id="text261"
     style="font-size:129.22999573px;line-height:125%;letter-spacing:0;word-spacing:0;font-family:Gentium Book Basic">
    <tspan
       x="-137.94"
       y="-1108.64"
       id="tspan263" />
  </text>
  <text
     x="162.71001"
     y="-4797.9102"
     transform="scale(4.0128,0.2492)"
     id="text265"
     style="font-size:46.95399857px;text-anchor:middle;font-family:Arial" />
  <text
     x="443.32001"
     y="-1188.65"
     id="text267"
     style="font-size:129.22999573px;line-height:125%;letter-spacing:0;word-spacing:0;font-family:Gentium Book Basic">
    <tspan
       x="443.32001"
       y="-1188.65"
       id="tspan269" />
  </text>
  <text
     x="307.54999"
     y="-5118.9502"
     transform="scale(4.0128,0.2492)"
     id="text271"
     style="font-size:46.95399857px;text-anchor:middle;font-family:Arial" />
  <text
     x="54.200001"
     y="-1661.05"
     id="text273"
     style="font-size:129.22999573px;line-height:125%;letter-spacing:0;word-spacing:0;font-family:Gentium Book Basic">
    <tspan
       x="54.200001"
       y="-1661.05"
       id="tspan275" />
  </text>
  <text
     x="210.59"
     y="-7014.5898"
     transform="scale(4.0128,0.2492)"
     id="text277"
     style="font-size:46.95399857px;text-anchor:middle;font-family:Arial" />
  <text
     x="635.46997"
     y="-1741.05"
     id="text279"
     style="font-size:129.22999573px;line-height:125%;letter-spacing:0;word-spacing:0;font-family:Gentium Book Basic">
    <tspan
       x="635.46997"
       y="-1741.05"
       id="tspan281" />
  </text>
  <text
     x="355.42999"
     y="-7335.6201"
     transform="scale(4.0128,0.2492)"
     id="text283"
     style="font-size:46.95399857px;text-anchor:middle;font-family:Arial" />
  <g
     id="g285"
     style="line-height:125%;letter-spacing:0;word-spacing:0;font-family:Gentium Book Basic">
    <text
       x="-1197.34"
       y="-326.32999"
       id="text287"
       style="font-size:208.33000183px">
      <tspan
         x="-1197.34"
         y="-326.32999"
         id="tspan289" />
    </text>
    <text
       x="2358.46"
       y="-1373.79"
       id="text291"
       style="font-size:129.22999573px">
      <tspan
         x="2358.46"
         y="-1373.79"
         id="tspan293" />
    </text>
  </g>
  <text
     x="784.79999"
     y="-5861.8701"
     transform="scale(4.0128,0.2492)"
     id="text295"
     style="font-size:46.95399857px;text-anchor:middle;font-family:Arial" />
  <text
     x="2939.72"
     y="-1453.79"
     id="text297"
     style="font-size:129.22999573px;line-height:125%;letter-spacing:0;word-spacing:0;font-family:Gentium Book Basic">
    <tspan
       x="2939.72"
       y="-1453.79"
       id="tspan299" />
  </text>
  <text
     x="929.65002"
     y="-6182.9102"
     transform="scale(4.0128,0.2492)"
     id="text301"
     style="font-size:46.95399857px;text-anchor:middle;font-family:Arial" />
  <text
     x="1868.14"
     y="-1635.04"
     id="text303"
     style="font-size:129.22999573px;line-height:125%;letter-spacing:0;word-spacing:0;font-family:Gentium Book Basic">
    <tspan
       x="1868.14"
       y="-1635.04"
       id="tspan305" />
  </text>
  <text
     x="662.60999"
     y="-6910.25"
     transform="scale(4.0128,0.2492)"
     id="text307"
     style="font-size:46.95399857px;text-anchor:middle;font-family:Arial" />
  <text
     x="2966.1899"
     y="-1851.52"
     id="text309"
     style="font-size:129.22999573px;line-height:125%;letter-spacing:0;word-spacing:0;font-family:Gentium Book Basic">
    <tspan
       x="2966.1899"
       y="-1851.52"
       id="tspan311" />
  </text>
  <text
     x="936.25"
     y="-7778.9102"
     transform="scale(4.0128,0.2492)"
     id="text313"
     style="font-size:46.95399857px;text-anchor:middle;font-family:Arial" />
  <text
     x="3547.46"
     y="-1931.52"
     id="text315"
     style="font-size:129.22999573px;line-height:125%;letter-spacing:0;word-spacing:0;font-family:Gentium Book Basic">
    <tspan
       x="3547.46"
       y="-1931.52"
       id="tspan317" />
  </text>
  <text
     x="1081.1"
     y="-8099.9502"
     transform="scale(4.0128,0.2492)"
     id="text319"
     style="font-size:46.95399857px;text-anchor:middle;font-family:Arial" />
  <text
     x="3158.3401"
     y="-2403.9199"
     id="text321"
     style="font-size:129.22999573px;line-height:125%;letter-spacing:0;word-spacing:0;font-family:Gentium Book Basic">
    <tspan
       x="3158.3401"
       y="-2403.9199"
       id="tspan323" />
  </text>
  <text
     x="984.13"
     y="-9995.5898"
     transform="scale(4.0128,0.2492)"
     id="text325"
     style="font-size:46.95399857px;text-anchor:middle;font-family:Arial" />
  <text
     x="3739.6101"
     y="-2483.9199"
     id="text327"
     style="font-size:129.22999573px;line-height:125%;letter-spacing:0;word-spacing:0;font-family:Gentium Book Basic">
    <tspan
       x="3739.6101"
       y="-2483.9199"
       id="tspan329" />
  </text>
  <text
     x="1128.98"
     y="-10316.62"
     transform="scale(4.0128,0.2492)"
     id="text331"
     style="font-size:46.95399857px;text-anchor:middle;font-family:Arial" />
  <g
     id="g333"
     style="font-size:208.33000183px;line-height:125%;letter-spacing:0;word-spacing:0;font-family:Gentium Book Basic">
    <text
       x="1906.8"
       y="-1069.21"
       id="text335">
      <tspan
         x="1906.8"
         y="-1069.21"
         id="tspan337" />
    </text>
    <text
       x="-2635.8101"
       y="-315.13"
       id="text339">
      <tspan
         x="-2635.8101"
         y="-315.13"
         id="tspan341" />
    </text>
  </g>
  <text
     x="-339.12"
     y="-1827.45"
     transform="scale(4.0128,0.2492)"
     id="text343"
     style="font-size:75.69999695px;text-anchor:middle;font-family:Arial" />
  <text
     x="-2635.8101"
     y="-315.13"
     id="text345"
     style="font-size:208.33000183px;line-height:125%;letter-spacing:0;word-spacing:0;font-family:Gentium Book Basic">
    <tspan
       x="-2635.8101"
       y="-315.13"
       id="tspan347" />
  </text>
  <text
     x="-339.12"
     y="-1827.45"
     transform="scale(4.0128,0.2492)"
     id="text349"
     style="font-size:75.69999695px;text-anchor:middle;font-family:Arial" />
  <text
     x="-2969.3601"
     y="317.78"
     id="text351"
     style="font-size:208.33000183px;line-height:125%;letter-spacing:0;word-spacing:0;font-family:Gentium Book Basic">
    <tspan
       x="-2969.3601"
       y="317.78"
       id="tspan353" />
  </text>
  <text
     x="-422.23999"
     y="712.32001"
     transform="scale(4.0128,0.2492)"
     id="text355"
     style="font-size:75.69999695px;text-anchor:middle;font-family:Arial" />
  <text
     x="-2263.02"
     y="162.14999"
     id="text357"
     style="font-size:208.33000183px;line-height:125%;letter-spacing:0;word-spacing:0;font-family:Gentium Book Basic">
    <tspan
       x="-2263.02"
       y="162.14999"
       id="tspan359" />
  </text>
  <text
     x="-246.22"
     y="87.800003"
     transform="scale(4.0128,0.2492)"
     id="text361"
     style="font-size:75.69999695px;text-anchor:middle;font-family:Arial" />
  <text
     x="729.64001"
     y="233.74001"
     id="text363"
     style="font-size:129.22999573px;line-height:125%;letter-spacing:0;word-spacing:0;font-family:Gentium Book Basic">
    <tspan
       x="729.64001"
       y="233.74001"
       id="tspan365" />
  </text>
  <text
     x="378.91"
     y="588.81"
     transform="scale(4.0128,0.2492)"
     id="text367"
     style="font-size:46.95399857px;text-anchor:middle;font-family:Arial" />
  <text
     x="1310.91"
     y="153.74001"
     id="text369"
     style="font-size:129.22999573px;line-height:125%;letter-spacing:0;word-spacing:0;font-family:Gentium Book Basic">
    <tspan
       x="1310.91"
       y="153.74001"
       id="tspan371" />
  </text>
  <text
     x="523.76001"
     y="267.76999"
     transform="scale(4.0128,0.2492)"
     id="text373"
     style="font-size:46.95399857px;text-anchor:middle;font-family:Arial" />
  <text
     x="239.33"
     y="-27.52"
     id="text375"
     style="font-size:129.22999573px;line-height:125%;letter-spacing:0;word-spacing:0;font-family:Gentium Book Basic">
    <tspan
       x="239.33"
       y="-27.52"
       id="tspan377" />
  </text>
  <text
     x="256.72"
     y="-459.57999"
     transform="scale(4.0128,0.2492)"
     id="text379"
     style="font-size:46.95399857px;text-anchor:middle;font-family:Arial" />
  <text
     x="1337.38"
     y="-243.99001"
     id="text381"
     style="font-size:129.22999573px;line-height:125%;letter-spacing:0;word-spacing:0;font-family:Gentium Book Basic">
    <tspan
       x="1337.38"
       y="-243.99001"
       id="tspan383" />
  </text>
  <text
     x="530.35999"
     y="-1328.26"
     transform="scale(4.0128,0.2492)"
     id="text385"
     style="font-size:46.95399857px;text-anchor:middle;font-family:Arial" />
  <text
     x="1918.65"
     y="-324"
     id="text387"
     style="font-size:129.22999573px;line-height:125%;letter-spacing:0;word-spacing:0;font-family:Gentium Book Basic">
    <tspan
       x="1918.65"
       y="-324"
       id="tspan389" />
  </text>
  <text
     x="675.21002"
     y="-1649.29"
     transform="scale(4.0128,0.2492)"
     id="text391"
     style="font-size:46.95399857px;text-anchor:middle;font-family:Arial" />
  <text
     x="1529.53"
     y="-796.40002"
     id="text393"
     style="font-size:129.22999573px;line-height:125%;letter-spacing:0;word-spacing:0;font-family:Gentium Book Basic">
    <tspan
       x="1529.53"
       y="-796.40002"
       id="tspan395" />
  </text>
  <text
     x="578.23999"
     y="-3544.95"
     transform="scale(4.0128,0.2492)"
     id="text397"
     style="font-size:46.95399857px;text-anchor:middle;font-family:Arial" />
  <text
     x="2110.8"
     y="-876.40002"
     id="text399"
     style="font-size:129.22999573px;line-height:125%;letter-spacing:0;word-spacing:0;font-family:Gentium Book Basic">
    <tspan
       x="2110.8"
       y="-876.40002"
       id="tspan401" />
  </text>
  <text
     x="723.09003"
     y="-3865.99"
     transform="scale(4.0128,0.2492)"
     id="text403"
     style="font-size:46.95399857px;text-anchor:middle;font-family:Arial" />
  <g
     id="g405"
     style="line-height:125%;letter-spacing:0;word-spacing:0;font-family:Gentium Book Basic">
    <text
       x="277.98999"
       y="538.32001"
       id="text407"
       style="font-size:208.33000183px">
      <tspan
         x="277.98999"
         y="538.32001"
         id="tspan409" />
    </text>
    <text
       x="3833.78"
       y="-509.14001"
       id="text411"
       style="font-size:129.22999573px">
      <tspan
         x="3833.78"
         y="-509.14001"
         id="tspan413" />
    </text>
  </g>
  <text
     x="1152.46"
     y="-2392.23"
     transform="scale(4.0128,0.2492)"
     id="text415"
     style="font-size:46.95399857px;text-anchor:middle;font-family:Arial" />
  <text
     x="4415.0498"
     y="-589.14001"
     id="text417"
     style="font-size:129.22999573px;line-height:125%;letter-spacing:0;word-spacing:0;font-family:Gentium Book Basic">
    <tspan
       x="4415.0498"
       y="-589.14001"
       id="tspan419" />
  </text>
  <text
     x="1297.3101"
     y="-2713.26"
     transform="scale(4.0128,0.2492)"
     id="text421"
     style="font-size:46.95399857px;text-anchor:middle;font-family:Arial" />
  <text
     x="3343.47"
     y="-770.39001"
     id="text423"
     style="font-size:129.22999573px;line-height:125%;letter-spacing:0;word-spacing:0;font-family:Gentium Book Basic">
    <tspan
       x="3343.47"
       y="-770.39001"
       id="tspan425" />
  </text>
  <text
     x="1030.27"
     y="-3440.6201"
     transform="scale(4.0128,0.2492)"
     id="text427"
     style="font-size:46.95399857px;text-anchor:middle;font-family:Arial" />
  <text
     x="4441.52"
     y="-986.87"
     id="text429"
     style="font-size:129.22999573px;line-height:125%;letter-spacing:0;word-spacing:0;font-family:Gentium Book Basic">
    <tspan
       x="4441.52"
       y="-986.87"
       id="tspan431" />
  </text>
  <text
     x="1303.91"
     y="-4309.29"
     transform="scale(4.0128,0.2492)"
     id="text433"
     style="font-size:46.95399857px;text-anchor:middle;font-family:Arial" />
  <text
     x="5022.79"
     y="-1066.87"
     id="text435"
     style="font-size:129.22999573px;line-height:125%;letter-spacing:0;word-spacing:0;font-family:Gentium Book Basic">
    <tspan
       x="5022.79"
       y="-1066.87"
       id="tspan437" />
  </text>
  <text
     x="1448.76"
     y="-4630.3198"
     transform="scale(4.0128,0.2492)"
     id="text439"
     style="font-size:46.95399857px;text-anchor:middle;font-family:Arial" />
  <text
     x="4633.6699"
     y="-1539.27"
     id="text441"
     style="font-size:129.22999573px;line-height:125%;letter-spacing:0;word-spacing:0;font-family:Gentium Book Basic">
    <tspan
       x="4633.6699"
       y="-1539.27"
       id="tspan443" />
  </text>
  <text
     x="1351.79"
     y="-6525.9902"
     transform="scale(4.0128,0.2492)"
     id="text445"
     style="font-size:46.95399857px;text-anchor:middle;font-family:Arial" />
  <text
     x="5214.9302"
     y="-1619.27"
     id="text447"
     style="font-size:129.22999573px;line-height:125%;letter-spacing:0;word-spacing:0;font-family:Gentium Book Basic">
    <tspan
       x="5214.9302"
       y="-1619.27"
       id="tspan449" />
  </text>
  <text
     x="1496.64"
     y="-6847.02"
     transform="scale(4.0128,0.2492)"
     id="text451"
     style="font-size:46.95399857px;text-anchor:middle;font-family:Arial" />
  <text
     x="3382.1299"
     y="-204.56"
     id="text453"
     style="font-size:208.33000183px;line-height:125%;letter-spacing:0;word-spacing:0;font-family:Gentium Book Basic">
    <tspan
       x="3382.1299"
       y="-204.56"
       id="tspan455" />
  </text>
  <g
     id="g457"
     style="color:#000000">
    <path
       d="m 193.5,161.56 -9.781,38.594 c -12.971,8.337 -21.469,22.966 -21.469,39.531 0,8.168 2.171,15.782 5.844,22.469 l -37.09,149.41 h 1.25 c -0.003,0.013 -0.25,1 -0.25,1 h 1.25 c -0.003,0.013 -0.25,1 -0.25,1 h 1.25 c -0.003,0.013 -0.25,1 -0.25,1 h 1.219 c -0.003,0.013 -0.25,0.969 -0.25,0.969 h 1.25 l -0.25,1 h 1.25 c -0.003,0.013 -0.25,1 -0.25,1 h 1.25 c -0.003,0.013 -0.25,1 -0.25,1 h 1.25 c -0.003,0.013 -0.25,1 -0.25,1 h 1.25 c -0.003,0.013 -0.25,1 -0.25,1 h 1.219 l -0.25,0.969 h 1.25 c -0.003,0.013 -0.25,1 -0.25,1 h 1.25 l -0.25,1 h 1.25 c -0.003,0.013 -0.25,1 -0.25,1 h 1.25 c -0.003,0.013 -0.25,1 -0.25,1 h 1.25 l -0.25,1 h 1.219 c -0.003,0.013 -0.25,0.969 -0.25,0.969 h 1.25 l -0.25,1 h 1.25 c -0.003,0.013 -0.25,1 -0.25,1 h 1.25 c -0.003,0.013 -0.25,1 -0.25,1 h 1.25 c -0.003,0.013 -0.25,1 -0.25,1 h 1.25 c -0.003,0.013 -0.25,1 -0.25,1 h 1.219 l -0.25,0.969 h 1.25 c -0.003,0.013 -0.25,1 -0.25,1 h 1.25 c -0.003,0.013 -0.25,1 -0.25,1 h 1.25 c -0.003,0.013 -0.25,1 -0.25,1 h 1.25 c -0.003,0.013 -0.25,1 -0.25,1 h 1.25 l -0.25,1 h 1.25 c -0.003,0.013 -0.25,1 -0.25,1 h 1.219 c -0.003,0.013 -0.25,0.969 -0.25,0.969 h 1.25 c -0.003,0.013 -0.25,1 -0.25,1 h 1.25 c -0.003,0.013 -0.25,1 -0.25,1 h 1.25 l -0.25,1 h 1.25 c -0.003,0.013 -0.25,1 -0.25,1 h 1.25 c -0.003,0.013 -0.25,1 -0.25,1 h 1.219 c -0.003,0.013 -0.25,0.969 -0.25,0.969 h 1.25 c -0.003,0.013 -0.25,1 -0.25,1 h 1.25 l -0.25,1 h 1.25 c -0.003,0.013 -0.25,1 -0.25,1 h 1.25 c -0.003,0.013 -0.25,1 -0.25,1 h 1.25 c -0.003,0.013 -0.25,1 -0.25,1 h 1.219 c -0.003,0.013 -0.25,0.969 -0.25,0.969 h 1.25 l -0.25,1 h 1.25 c -0.003,0.013 -0.25,1 -0.25,1 h 1.25 c -0.001,0.005 -0.055,0.188 -0.094,0.344 h 270.06 c 19.933,0 34.09,-16.04 36.19,-34.844 l 15.844,-141.87 h -0.594 v -0.969 h -1 v -1 h -1 v -1 h -1 v -1 h -1 v -1 h -1 v -1 h -1 v -1 h -0.969 v -0.969 h -1 v -1 h -1 v -1 h -1 v -1 h -1 v -1 h -1 v -1 h -0.969 v -0.969 h -1 v -1 h -1 v -1 h -1 v -1 h -1 v -1 h -1 v -1 h -0.969 v -0.969 h -1 v -1 h -1 v -1 h -1 v -1 h -1 v -1 h -1 v -1 h -0.969 v -0.969 h -1 v -1 h -1 v -1 h -1 v -1 h -1 v -1 h -1 v -1 h -1 v -1 h -0.969 v -0.969 h -1 v -1 h -1 v -1 h -1 v -1 h -1 v -1 h -1 v -1 h -0.969 v -0.969 h -1 v -1 h -1 v -1 h -1 v -1 h -1 v -1 h -1 v -1 h -0.969 v -0.969 h -1 v -1 h -1 v -1 h -1 v -1 h -1 v -1 h -1 v -1 h -1 v -1 h -0.969 v -0.969 h -1 v -1 h -1 v -1 h -1 v -1 h -1 v -1 h -1 v -1 h -0.969 v -0.969 h -1 v -1 h -1 v -1 h -1 v -1 h -1 v -1 h -1 v -1 h -0.969 v -0.969 h -1 v -1 h -1 v -1 h -1 v -1 h -1 v -1 h -1 v -1 h -0.969 v -0.969 h -1 v -1 h -1 v -1 h -1 v -1 h -1 v -1 h -1 v -1 h -1 v -1 h -0.969 v -0.969 h -1 v -1 h -1 v -1 h -1 v -1 h -1 v -1 h -1 v -1 h -0.969 v -0.969 h -1 v -1 h -1 v -1 h -1 v -1 h -1 v -1 h -1 v -1 h -0.969 v -0.969 h -1 v -1 h -1 v -1 h -1 v -1 h -1 v -1 h -1 v -1 h -1 v -1 h -0.969 v -0.969 h -1 v -1 h -1 v -1 h -1 v -1 h -1 v -1 h -1 v -1 h -0.969 v -0.969 h -1 v -1 h -1 v -1 h -1 v -1 h -1 v -1 h -1 v -1 h -0.969 v -0.969 h -1 v -1 h -1 v -1 h -1 v -1 h -1 v -1 h -1 v -1 h -0.969 v -0.969 h -1 v -1 h -1 v -1 h -1 v -1 h -78.12 v 78.59 h -0.25 l -0.25,-0.969 h -0.75 l -0.25,-1 h -0.75 l -0.25,-1 h -0.75 l -0.25,-1 h -0.75 l -0.25,-1 h -0.75 l -0.25,-1 h -0.719 l -0.25,-0.969 h -0.75 l -0.25,-1 h -0.75 l -0.25,-1 h -0.75 l -0.25,-1 h -0.75 l -0.25,-1 h -0.75 l -0.25,-1 h -0.75 l -0.25,-1 h -0.719 l -0.25,-0.969 h -0.75 l -0.25,-1 h -0.75 l -0.25,-1 h -0.75 l -0.25,-1 h -0.75 l -0.25,-1 h -0.75 l -0.25,-1 h -0.719 l -0.25,-0.969 h -0.75 l -0.25,-1 h -0.75 l -0.25,-1 h -0.75 l -0.25,-1 h -0.75 l -0.25,-1 h -0.75 l -0.25,-1 h -0.719 l -0.25,-0.969 h -0.75 l -0.25,-1 h -0.75 l -0.25,-1 h -0.75 l -0.25,-1 h -0.75 l -0.25,-1 h -0.75 l -0.25,-1 h -0.719 l -0.25,-0.969 h -0.75 l -0.25,-1 h -0.75 l -0.25,-1 h -0.75 l -0.25,-1 h -0.75 l -0.25,-1 h -0.75 l -0.25,-1 h -0.75 l -0.25,-1 h -0.719 l -0.25,-0.969 h -0.75 l -0.25,-1 h -0.75 l -0.25,-1 h -0.75 l -0.25,-1 h -0.75 l -0.25,-1 h -0.75 l -0.25,-1 h -0.719 l -0.25,-0.969 h -0.75 l -0.25,-1 h -0.75 l -0.25,-1 h -0.75 l -0.25,-1 h -0.75 l -0.25,-1 h -0.75 l -0.25,-1 h -0.719 l -0.25,-0.969 h -0.75 l -0.25,-1 h -0.75 l -0.25,-1 h -0.75 l -0.25,-1 h -0.75 l -0.25,-1 h -0.75 l -0.25,-1 h -0.75 l -0.25,-1 h -0.719 l -0.25,-0.969 h -0.75 l -0.25,-1 h -0.75 l -0.25,-1 h -0.75 l -0.25,-1 h -0.75 l -0.25,-1 h -0.75 l -0.25,-1 h -0.719 l -0.25,-0.969 h -0.75 l -0.25,-1 h -0.75 l -0.25,-1 h -0.75 l -0.25,-1 h -0.75 l -0.25,-1 h -0.75 l -0.25,-1 h -0.719 l -0.25,-0.969 h -0.75 l -0.25,-1 h -0.75 l -0.25,-1 h -0.75 l -0.25,-1 h -0.75 l -0.25,-1 h -0.75 l -0.25,-1 h -0.719 l -0.25,-0.969 h -0.75 l -0.25,-1 h -0.75 l -0.25,-1 h -0.75 l -0.25,-1 h -31.25"
       inkscape:connector-curvature="0"
       id="path459"
       style="fill-opacity:0.23500001" />
    <path
       d="m 193.5,161.58 -9.766,38.574 c -12.971,8.337 -21.484,22.986 -21.484,39.551 0,8.168 2.186,15.774 5.859,22.461 l -37.11,149.41 h 15.625 l 62.5,-109.37 62.5,109.38 h 15.625 l -37.11,-149.41 c 3.673,-6.687 5.859,-14.293 5.859,-22.461 0,-16.565 -8.513,-31.21 -21.484,-39.551 l -9.766,-38.574 h -31.25 m 109.38,0 v 250 h 78.13 V 395.965 H 334.133 V 380.34 h 46.875 v -31.25 h -31.25 v -15.625 h 31.25 v -31.25 H 334.133 V 286.59 h 46.875 v -31.25 h -31.25 v -15.625 h 31.25 v -31.25 H 334.133 V 192.84 h 46.875 v -31.25 h -78.12 m -109.37,62.5 h 31.25 v 31.25 h -31.25 v -31.25"
       inkscape:connector-curvature="0"
       id="path461"
       style="fill:#ffffff" />
  </g>
</svg>
