<?xml version="1.0" encoding="UTF-8" standalone="no"?>
<!-- Created with Inkscape (http://www.inkscape.org/) -->

<svg
   xmlns:dc="http://purl.org/dc/elements/1.1/"
   xmlns:cc="http://creativecommons.org/ns#"
   xmlns:rdf="http://www.w3.org/1999/02/22-rdf-syntax-ns#"
   xmlns:svg="http://www.w3.org/2000/svg"
   xmlns="http://www.w3.org/2000/svg"
   xmlns:inkscape="http://www.inkscape.org/namespaces/inkscape"
   version="1.1"
   width="100%"
   height="100%"
   viewBox="0 0 512 512"
   id="svg2">
  <metadata
     id="metadata106">
    <rdf:RDF>
      <cc:Work
         rdf:about="">
        <dc:format>image/svg+xml</dc:format>
        <dc:type
           rdf:resource="http://purl.org/dc/dcmitype/StillImage" />
      </cc:Work>
    </rdf:RDF>
  </metadata>
  <defs
     id="defs104" />
  <rect
     width="512"
     height="512"
     rx="25.988001"
     x="0"
     y="0"
     id="rect4"
     style="fill:none" />
  <path
     d="m 116.53,69.844 c -22.08,3 -33.467,25.722 -49.75,38.906 -13.615,13.05 -34.671,30.354 -20.75,51 31.01,32.747 63.737,63.959 95.38,96.13 -31.657,32.16 -64.39,63.36 -95.37,96.13 -14.627,22.939 10.146,39.671 24.13,54.31 35.21,35.24 70.44,70.47 105.66,105.69 h 310.19 c 14.397,0 26,-11.603 26,-26 V 453.92 C 395.68,337.48 250.67,191.84 134.93,77.45 c -4.767,-4.9 -11.544,-7.682 -18.375,-7.594 m 295.94,131.84 v 0.031 c -40.443,1.328 -66.02,54.33 -39.719,86.44 40.616,40.02 96.29,87.66 139.25,127.06 v -136.59 c -20.873,-22.511 -41.835,-44.935 -63.59,-66.5 -9.194,-6.743 -20.537,-10.41 -31.938,-10.375 -1.334,-0.068 -2.695,-0.106 -4,-0.063"
     inkscape:connector-curvature="0"
     id="path52"
     style="fill-opacity:0.0;fill-rule:evenodd" />
  <path
     d="m 116.34,69.838 c -6.801,0 -13.168,2.351 -18.38,7.563 l -48.674,48.674 c -10.424,10.424 -10.424,27.432 0,37.858 l 91.94,91.94 -91.94,91.94 c -10.424,10.424 -10.424,27.432 0,37.858 l 48.674,48.674 c 10.424,10.424 26.334,10.424 36.763,0 l 160.1,-160.1 c 10.424,-10.424 10.424,-27.432 0,-37.858 L 245.05,186.657 134.74,77.437 c -5.212,-5.212 -11.578,-7.605 -18.38,-7.605 m 299.9,131.91 c -29.975,0 -54.24,24.282 -54.24,54.26 0,29.975 24.282,54.26 54.26,54.26 29.975,0 54.26,-24.282 54.26,-54.24 0,-29.975 -24.282,-54.24 -54.24,-54.24"
     inkscape:connector-curvature="0"
     id="path100"
     style="fill:#ffffff;fill-rule:evenodd" />
</svg>
